<svg width="179" height="234" viewBox="0 0 179 234" fill="none" xmlns="http://www.w3.org/2000/svg">
<mask id="path-1-inside-1_1073_8685" fill="white">
<path d="M43 58C43 49.1634 50.1634 42 59 42H129C137.837 42 145 49.1634 145 58C145 66.8366 137.837 74 129 74H59C50.1634 74 43 66.8366 43 58Z"/>
</mask>
<path d="M43 58C43 49.1634 50.1634 42 59 42H129C137.837 42 145 49.1634 145 58C145 66.8366 137.837 74 129 74H59C50.1634 74 43 66.8366 43 58Z" fill="#006837"/>
<path d="M42 58C42 48.6112 49.6112 41 59 41H129C138.389 41 146 48.6112 146 58H144C144 49.7157 137.284 43 129 43H59C50.7157 43 44 49.7157 44 58H42ZM146 59C146 68.3888 138.389 76 129 76H59C49.6112 76 42 68.3888 42 59L44 58C44 65.732 50.7157 72 59 72H129C137.284 72 144 65.732 144 58L146 59ZM59 76C49.6112 76 42 68.3888 42 59V58C42 48.6112 49.6112 41 59 41V43C50.7157 43 44 49.7157 44 58C44 65.732 50.7157 72 59 72V76ZM129 41C138.389 41 146 48.6112 146 58V59C146 68.3888 138.389 76 129 76V72C137.284 72 144 65.732 144 58C144 49.7157 137.284 43 129 43V41Z" fill="url(#paint0_linear_1073_8685)" mask="url(#path-1-inside-1_1073_8685)"/>
<path fill-rule="evenodd" clip-rule="evenodd" d="M66.4405 56.9441C68.0513 56.9441 69.3571 55.6135 69.3571 53.9721C69.3571 52.3306 68.0513 51 66.4405 51C64.8296 51 63.5238 52.3306 63.5238 53.9721C63.5238 55.6135 64.8296 56.9441 66.4405 56.9441ZM66.4405 55.7709C67.3566 55.7709 68.1667 55.0029 68.1667 53.9721C68.1667 52.9413 67.3566 52.1732 66.4405 52.1732C65.5243 52.1732 64.7143 52.9413 64.7143 53.9721C64.7143 55.0029 65.5243 55.7709 66.4405 55.7709Z" fill="white"/>
<path d="M66.5404 58.8161C65.7089 58.7068 65.0644 58.7233 64.141 58.8181C62.8911 58.9464 61.8689 59.2955 61.1774 59.749C60.4802 60.2063 60.1904 60.714 60.1905 61.1699L60.1905 61.6755C60.1905 61.9997 60.4573 62.2626 60.7866 62.2626H65.9048C66.2335 62.2626 66.5 62.5252 66.5 62.8492C66.5 63.1731 66.2335 63.4358 65.9048 63.4358H60.7866C59.8002 63.4358 59.0001 62.648 59 61.6756L59 61.17C58.9999 60.1774 59.6327 59.3529 60.5179 58.7724C61.4088 58.1881 62.6287 57.7938 64.0177 57.6512C64.9991 57.5505 65.7435 57.5278 66.6977 57.6532C67.0236 57.696 67.2525 57.991 67.2091 58.3122C67.1656 58.6333 66.8662 58.8589 66.5404 58.8161Z" fill="white"/>
<path d="M70.3492 59.4078C70.152 59.4078 69.9921 59.5654 69.9921 59.7598V61.7542C69.9921 61.8985 70.0802 62.0225 70.2063 62.0768L71.0693 62.5679C71.2402 62.6651 71.4586 62.6074 71.5572 62.4391C71.6558 62.2707 71.5973 62.0555 71.4265 61.9583L70.7063 61.5485V59.7598C70.7063 59.5654 70.5465 59.4078 70.3492 59.4078Z" fill="white"/>
<path fill-rule="evenodd" clip-rule="evenodd" d="M74 61.4609C74 63.4155 72.3921 65 70.4087 65C68.4253 65 66.8175 63.4155 66.8175 61.4609C66.8175 59.5063 68.4253 57.9218 70.4087 57.9218C72.3921 57.9218 74 59.5063 74 61.4609ZM73.0079 61.4609C73.0079 62.8755 71.8442 64.0223 70.4087 64.0223C68.9732 64.0223 67.8095 62.8755 67.8095 61.4609C67.8095 60.0462 68.9732 58.8994 70.4087 58.8994C71.8442 58.8994 73.0079 60.0462 73.0079 61.4609Z" fill="white"/>
<path d="M82.804 62.108C82.436 62.108 82.076 62.08 81.724 62.024C81.372 61.968 81.04 61.884 80.728 61.772C80.416 61.652 80.136 61.508 79.888 61.34C79.768 61.252 79.684 61.152 79.636 61.04C79.596 60.928 79.584 60.82 79.6 60.716C79.624 60.604 79.672 60.508 79.744 60.428C79.816 60.348 79.904 60.3 80.008 60.284C80.112 60.26 80.228 60.292 80.356 60.38C80.716 60.612 81.096 60.784 81.496 60.896C81.896 61 82.332 61.052 82.804 61.052C83.484 61.052 83.984 60.932 84.304 60.692C84.632 60.444 84.796 60.124 84.796 59.732C84.796 59.412 84.68 59.16 84.448 58.976C84.216 58.784 83.828 58.632 83.284 58.52L82 58.256C81.24 58.096 80.672 57.832 80.296 57.464C79.928 57.096 79.744 56.6 79.744 55.976C79.744 55.6 79.82 55.256 79.972 54.944C80.132 54.632 80.352 54.364 80.632 54.14C80.912 53.908 81.248 53.732 81.64 53.612C82.032 53.492 82.46 53.432 82.924 53.432C83.42 53.432 83.884 53.496 84.316 53.624C84.756 53.752 85.148 53.948 85.492 54.212C85.596 54.284 85.664 54.376 85.696 54.488C85.736 54.592 85.744 54.696 85.72 54.8C85.704 54.904 85.66 54.992 85.588 55.064C85.516 55.136 85.424 55.18 85.312 55.196C85.2 55.204 85.076 55.164 84.94 55.076C84.628 54.868 84.308 54.72 83.98 54.632C83.66 54.536 83.304 54.488 82.912 54.488C82.52 54.488 82.176 54.548 81.88 54.668C81.592 54.788 81.368 54.956 81.208 55.172C81.056 55.388 80.98 55.644 80.98 55.94C80.98 56.276 81.088 56.544 81.304 56.744C81.52 56.944 81.88 57.096 82.384 57.2L83.656 57.464C84.456 57.632 85.052 57.892 85.444 58.244C85.836 58.596 86.032 59.064 86.032 59.648C86.032 60.024 85.956 60.364 85.804 60.668C85.652 60.964 85.436 61.22 85.156 61.436C84.876 61.652 84.536 61.82 84.136 61.94C83.744 62.052 83.3 62.108 82.804 62.108ZM90.0648 62.108C89.4248 62.108 88.8728 61.988 88.4088 61.748C87.9528 61.5 87.5968 61.152 87.3408 60.704C87.0928 60.248 86.9688 59.708 86.9688 59.084C86.9688 58.476 87.0928 57.944 87.3408 57.488C87.5888 57.032 87.9288 56.676 88.3608 56.42C88.7928 56.164 89.2848 56.036 89.8368 56.036C90.2448 56.036 90.6088 56.104 90.9288 56.24C91.2488 56.368 91.5208 56.56 91.7448 56.816C91.9768 57.064 92.1488 57.368 92.2608 57.728C92.3808 58.088 92.4408 58.492 92.4408 58.94C92.4408 59.076 92.4008 59.18 92.3208 59.252C92.2408 59.316 92.1208 59.348 91.9608 59.348H87.9288V58.604H91.6248L91.4208 58.772C91.4208 58.372 91.3608 58.032 91.2408 57.752C91.1288 57.472 90.9568 57.26 90.7248 57.116C90.5008 56.964 90.2208 56.888 89.8848 56.888C89.5088 56.888 89.1888 56.976 88.9248 57.152C88.6688 57.328 88.4728 57.572 88.3368 57.884C88.2008 58.196 88.1328 58.56 88.1328 58.976V59.048C88.1328 59.752 88.2968 60.284 88.6248 60.644C88.9608 60.996 89.4448 61.172 90.0768 61.172C90.3168 61.172 90.5688 61.14 90.8328 61.076C91.1048 61.012 91.3608 60.904 91.6008 60.752C91.7368 60.672 91.8568 60.636 91.9608 60.644C92.0728 60.652 92.1608 60.688 92.2248 60.752C92.2968 60.816 92.3408 60.896 92.3568 60.992C92.3728 61.088 92.3568 61.188 92.3088 61.292C92.2608 61.388 92.1768 61.476 92.0568 61.556C91.7848 61.74 91.4688 61.88 91.1088 61.976C90.7488 62.064 90.4008 62.108 90.0648 62.108ZM96.2464 62.108C95.7664 62.108 95.3624 62.024 95.0344 61.856C94.7064 61.688 94.4624 61.44 94.3024 61.112C94.1424 60.784 94.0624 60.384 94.0624 59.912V57.08H93.3424C93.1824 57.08 93.0584 57.04 92.9704 56.96C92.8824 56.872 92.8384 56.756 92.8384 56.612C92.8384 56.46 92.8824 56.344 92.9704 56.264C93.0584 56.184 93.1824 56.144 93.3424 56.144H94.0624V54.908C94.0624 54.708 94.1144 54.556 94.2184 54.452C94.3304 54.348 94.4824 54.296 94.6744 54.296C94.8664 54.296 95.0144 54.348 95.1184 54.452C95.2224 54.556 95.2744 54.708 95.2744 54.908V56.144H96.6784C96.8384 56.144 96.9624 56.184 97.0504 56.264C97.1384 56.344 97.1824 56.46 97.1824 56.612C97.1824 56.756 97.1384 56.872 97.0504 56.96C96.9624 57.04 96.8384 57.08 96.6784 57.08H95.2744V59.816C95.2744 60.24 95.3624 60.56 95.5384 60.776C95.7224 60.992 96.0184 61.1 96.4264 61.1C96.5704 61.1 96.6944 61.088 96.7984 61.064C96.9104 61.032 97.0024 61.012 97.0744 61.004C97.1624 61.004 97.2344 61.036 97.2904 61.1C97.3464 61.156 97.3744 61.268 97.3744 61.436C97.3744 61.556 97.3504 61.668 97.3024 61.772C97.2624 61.876 97.1864 61.944 97.0744 61.976C96.9784 62.008 96.8464 62.036 96.6784 62.06C96.5184 62.092 96.3744 62.108 96.2464 62.108ZM104.117 62.084C103.917 62.084 103.761 62.028 103.649 61.916C103.545 61.804 103.493 61.648 103.493 61.448V54.584H100.949C100.781 54.584 100.649 54.54 100.553 54.452C100.457 54.356 100.409 54.224 100.409 54.056C100.409 53.888 100.457 53.76 100.553 53.672C100.649 53.584 100.781 53.54 100.949 53.54H107.273C107.449 53.54 107.585 53.584 107.681 53.672C107.777 53.76 107.825 53.888 107.825 54.056C107.825 54.224 107.777 54.356 107.681 54.452C107.585 54.54 107.449 54.584 107.273 54.584H104.729V61.448C104.729 61.648 104.677 61.804 104.573 61.916C104.477 62.028 104.325 62.084 104.117 62.084ZM109.702 62.072C109.51 62.072 109.362 62.016 109.258 61.904C109.154 61.784 109.102 61.62 109.102 61.412V56.732C109.102 56.524 109.154 56.364 109.258 56.252C109.362 56.14 109.51 56.084 109.702 56.084C109.894 56.084 110.042 56.14 110.146 56.252C110.258 56.364 110.314 56.524 110.314 56.732V61.412C110.314 61.62 110.262 61.784 110.158 61.904C110.054 62.016 109.902 62.072 109.702 62.072ZM109.702 54.836C109.462 54.836 109.274 54.776 109.138 54.656C109.01 54.536 108.946 54.368 108.946 54.152C108.946 53.928 109.01 53.76 109.138 53.648C109.274 53.528 109.462 53.468 109.702 53.468C109.942 53.468 110.126 53.528 110.254 53.648C110.39 53.76 110.458 53.928 110.458 54.152C110.458 54.368 110.39 54.536 110.254 54.656C110.126 54.776 109.942 54.836 109.702 54.836ZM112.644 62.084C112.452 62.084 112.304 62.032 112.2 61.928C112.096 61.816 112.044 61.664 112.044 61.472V56.672C112.044 56.472 112.096 56.32 112.2 56.216C112.304 56.112 112.448 56.06 112.632 56.06C112.824 56.06 112.968 56.112 113.064 56.216C113.168 56.32 113.22 56.472 113.22 56.672V57.656L113.088 57.392C113.248 56.968 113.496 56.636 113.832 56.396C114.168 56.156 114.572 56.036 115.044 56.036C115.532 56.036 115.928 56.152 116.232 56.384C116.536 56.616 116.744 56.972 116.856 57.452H116.688C116.84 57.012 117.1 56.668 117.468 56.42C117.836 56.164 118.264 56.036 118.752 56.036C119.2 56.036 119.568 56.124 119.856 56.3C120.144 56.468 120.36 56.728 120.504 57.08C120.648 57.424 120.72 57.86 120.72 58.388V61.472C120.72 61.664 120.664 61.816 120.552 61.928C120.448 62.032 120.3 62.084 120.108 62.084C119.916 62.084 119.768 62.032 119.664 61.928C119.56 61.816 119.508 61.664 119.508 61.472V58.448C119.508 57.952 119.42 57.588 119.244 57.356C119.076 57.124 118.796 57.008 118.404 57.008C117.964 57.008 117.616 57.16 117.36 57.464C117.104 57.768 116.976 58.188 116.976 58.724V61.472C116.976 61.664 116.924 61.816 116.82 61.928C116.716 62.032 116.568 62.084 116.376 62.084C116.184 62.084 116.032 62.032 115.92 61.928C115.816 61.816 115.764 61.664 115.764 61.472V58.448C115.764 57.952 115.68 57.588 115.512 57.356C115.344 57.124 115.064 57.008 114.672 57.008C114.232 57.008 113.884 57.16 113.628 57.464C113.38 57.768 113.256 58.188 113.256 58.724V61.472C113.256 61.88 113.052 62.084 112.644 62.084ZM125.163 62.108C124.523 62.108 123.971 61.988 123.507 61.748C123.051 61.5 122.695 61.152 122.439 60.704C122.191 60.248 122.067 59.708 122.067 59.084C122.067 58.476 122.191 57.944 122.439 57.488C122.687 57.032 123.027 56.676 123.459 56.42C123.891 56.164 124.383 56.036 124.935 56.036C125.343 56.036 125.707 56.104 126.027 56.24C126.347 56.368 126.619 56.56 126.843 56.816C127.075 57.064 127.247 57.368 127.359 57.728C127.479 58.088 127.539 58.492 127.539 58.94C127.539 59.076 127.499 59.18 127.419 59.252C127.339 59.316 127.219 59.348 127.059 59.348H123.027V58.604H126.723L126.519 58.772C126.519 58.372 126.459 58.032 126.339 57.752C126.227 57.472 126.055 57.26 125.823 57.116C125.599 56.964 125.319 56.888 124.983 56.888C124.607 56.888 124.287 56.976 124.023 57.152C123.767 57.328 123.571 57.572 123.435 57.884C123.299 58.196 123.231 58.56 123.231 58.976V59.048C123.231 59.752 123.395 60.284 123.723 60.644C124.059 60.996 124.543 61.172 125.175 61.172C125.415 61.172 125.667 61.14 125.931 61.076C126.203 61.012 126.459 60.904 126.699 60.752C126.835 60.672 126.955 60.636 127.059 60.644C127.171 60.652 127.259 60.688 127.323 60.752C127.395 60.816 127.439 60.896 127.455 60.992C127.471 61.088 127.455 61.188 127.407 61.292C127.359 61.388 127.275 61.476 127.155 61.556C126.883 61.74 126.567 61.88 126.207 61.976C125.847 62.064 125.499 62.108 125.163 62.108Z" fill="white"/>
<mask id="path-5-inside-2_1073_8685" fill="white">
<path d="M43 140C43 131.163 50.1634 124 59 124H163C171.837 124 179 131.163 179 140C179 148.837 171.837 156 163 156H59C50.1634 156 43 148.837 43 140Z"/>
</mask>
<path d="M43 140C43 131.163 50.1634 124 59 124H163C171.837 124 179 131.163 179 140C179 148.837 171.837 156 163 156H59C50.1634 156 43 148.837 43 140Z" fill="#FFAA00"/>
<path d="M42 140C42 130.611 49.6112 123 59 123H163C172.389 123 180 130.611 180 140H178C178 131.716 171.284 125 163 125H59C50.7157 125 44 131.716 44 140H42ZM180 141C180 150.389 172.389 158 163 158H59C49.6112 158 42 150.389 42 141L44 140C44 147.732 50.7157 154 59 154H163C171.284 154 178 147.732 178 140L180 141ZM59 158C49.6112 158 42 150.389 42 141V140C42 130.611 49.6112 123 59 123V125C50.7157 125 44 131.716 44 140C44 147.732 50.7157 154 59 154V158ZM163 123C172.389 123 180 130.611 180 140V141C180 150.389 172.389 158 163 158V154C171.284 154 178 147.732 178 140C178 131.716 171.284 125 163 125V123Z" fill="url(#paint1_linear_1073_8685)" mask="url(#path-5-inside-2_1073_8685)"/>
<path fill-rule="evenodd" clip-rule="evenodd" d="M69.7851 136.031C69.7851 137.706 68.4253 139.063 66.7479 139.063C65.0705 139.063 63.7107 137.706 63.7107 136.031C63.7107 134.357 65.0705 133 66.7479 133C68.4253 133 69.7851 134.357 69.7851 136.031ZM68.5455 136.031C68.5455 137.083 67.7019 137.866 66.7479 137.866C65.7939 137.866 64.9504 137.083 64.9504 136.031C64.9504 134.98 65.7939 134.197 66.7479 134.197C67.7019 134.197 68.5455 134.98 68.5455 136.031Z" fill="white"/>
<path d="M64.3535 140.974C65.315 140.877 65.9861 140.861 66.852 140.972C67.1913 141.016 67.503 140.786 67.5483 140.458C67.5935 140.13 67.3551 139.83 67.0158 139.786C66.0221 139.658 65.247 139.681 64.225 139.784C62.7787 139.929 61.5083 140.331 60.5806 140.927C59.6589 141.519 58.9999 142.36 59 143.373L59.0001 143.889C59.0001 144.88 59.8333 145.684 60.8604 145.684H66.1901C66.5324 145.684 66.8099 145.416 66.8099 145.085C66.8099 144.755 66.5324 144.487 66.1901 144.487H60.8604C60.5175 144.487 60.2397 144.219 60.2397 143.888L60.2397 143.373C60.2396 142.908 60.5414 142.39 61.2674 141.924C61.9875 141.461 63.0519 141.105 64.3535 140.974Z" fill="white"/>
<path d="M73.966 145.239C73.9421 145.197 73.907 145.162 73.8643 145.138L73.5582 144.961C73.4387 144.892 73.3399 144.794 73.2713 144.677C73.2026 144.56 73.1666 144.428 73.1666 144.294V142.698C73.1663 142.235 73.0105 141.785 72.7224 141.415C72.4344 141.044 72.0296 140.774 71.5687 140.644C71.5487 140.638 71.5312 140.627 71.5186 140.611C71.5061 140.595 71.4992 140.576 71.499 140.556C71.499 140.413 71.4404 140.277 71.3362 140.177C71.2319 140.076 71.0906 140.02 70.9432 140.02C70.7958 140.02 70.6544 140.076 70.5501 140.177C70.4459 140.277 70.3873 140.413 70.3873 140.556C70.3871 140.576 70.3802 140.595 70.3677 140.611C70.3551 140.627 70.3376 140.638 70.3177 140.644C69.8568 140.774 69.452 141.044 69.1639 141.415C68.8759 141.785 68.72 142.235 68.7197 142.698V144.293C68.7198 144.428 68.6837 144.56 68.6151 144.677C68.5465 144.794 68.4476 144.891 68.3281 144.961L68.022 145.138C67.9692 145.168 67.9281 145.214 67.905 145.269C67.8819 145.324 67.878 145.385 67.894 145.442C67.91 145.5 67.945 145.55 67.9936 145.587C68.0422 145.623 68.1018 145.643 68.1634 145.644H73.7221C73.7708 145.643 73.8185 145.63 73.8604 145.606C73.9023 145.582 73.9372 145.548 73.9616 145.507C73.9861 145.467 73.9993 145.421 74 145.374C74.0007 145.327 73.9888 145.28 73.9656 145.239L73.966 145.239Z" fill="white"/>
<path d="M70.3063 146.759C70.4723 146.876 70.6633 146.953 70.8642 146.984C71.0652 147.016 71.2706 147 71.4644 146.938C71.6582 146.876 71.835 146.771 71.981 146.629C72.127 146.488 72.2382 146.314 72.3058 146.123H69.8264C69.917 146.379 70.0845 146.601 70.3063 146.759Z" fill="white"/>
<path d="M82.804 144.108C82.436 144.108 82.076 144.08 81.724 144.024C81.372 143.968 81.04 143.884 80.728 143.772C80.416 143.652 80.136 143.508 79.888 143.34C79.768 143.252 79.684 143.152 79.636 143.04C79.596 142.928 79.584 142.82 79.6 142.716C79.624 142.604 79.672 142.508 79.744 142.428C79.816 142.348 79.904 142.3 80.008 142.284C80.112 142.26 80.228 142.292 80.356 142.38C80.716 142.612 81.096 142.784 81.496 142.896C81.896 143 82.332 143.052 82.804 143.052C83.484 143.052 83.984 142.932 84.304 142.692C84.632 142.444 84.796 142.124 84.796 141.732C84.796 141.412 84.68 141.16 84.448 140.976C84.216 140.784 83.828 140.632 83.284 140.52L82 140.256C81.24 140.096 80.672 139.832 80.296 139.464C79.928 139.096 79.744 138.6 79.744 137.976C79.744 137.6 79.82 137.256 79.972 136.944C80.132 136.632 80.352 136.364 80.632 136.14C80.912 135.908 81.248 135.732 81.64 135.612C82.032 135.492 82.46 135.432 82.924 135.432C83.42 135.432 83.884 135.496 84.316 135.624C84.756 135.752 85.148 135.948 85.492 136.212C85.596 136.284 85.664 136.376 85.696 136.488C85.736 136.592 85.744 136.696 85.72 136.8C85.704 136.904 85.66 136.992 85.588 137.064C85.516 137.136 85.424 137.18 85.312 137.196C85.2 137.204 85.076 137.164 84.94 137.076C84.628 136.868 84.308 136.72 83.98 136.632C83.66 136.536 83.304 136.488 82.912 136.488C82.52 136.488 82.176 136.548 81.88 136.668C81.592 136.788 81.368 136.956 81.208 137.172C81.056 137.388 80.98 137.644 80.98 137.94C80.98 138.276 81.088 138.544 81.304 138.744C81.52 138.944 81.88 139.096 82.384 139.2L83.656 139.464C84.456 139.632 85.052 139.892 85.444 140.244C85.836 140.596 86.032 141.064 86.032 141.648C86.032 142.024 85.956 142.364 85.804 142.668C85.652 142.964 85.436 143.22 85.156 143.436C84.876 143.652 84.536 143.82 84.136 143.94C83.744 144.052 83.3 144.108 82.804 144.108ZM90.0648 144.108C89.4248 144.108 88.8728 143.988 88.4088 143.748C87.9528 143.5 87.5968 143.152 87.3408 142.704C87.0928 142.248 86.9688 141.708 86.9688 141.084C86.9688 140.476 87.0928 139.944 87.3408 139.488C87.5888 139.032 87.9288 138.676 88.3608 138.42C88.7928 138.164 89.2848 138.036 89.8368 138.036C90.2448 138.036 90.6088 138.104 90.9288 138.24C91.2488 138.368 91.5208 138.56 91.7448 138.816C91.9768 139.064 92.1488 139.368 92.2608 139.728C92.3808 140.088 92.4408 140.492 92.4408 140.94C92.4408 141.076 92.4008 141.18 92.3208 141.252C92.2408 141.316 92.1208 141.348 91.9608 141.348H87.9288V140.604H91.6248L91.4208 140.772C91.4208 140.372 91.3608 140.032 91.2408 139.752C91.1288 139.472 90.9568 139.26 90.7248 139.116C90.5008 138.964 90.2208 138.888 89.8848 138.888C89.5088 138.888 89.1888 138.976 88.9248 139.152C88.6688 139.328 88.4728 139.572 88.3368 139.884C88.2008 140.196 88.1328 140.56 88.1328 140.976V141.048C88.1328 141.752 88.2968 142.284 88.6248 142.644C88.9608 142.996 89.4448 143.172 90.0768 143.172C90.3168 143.172 90.5688 143.14 90.8328 143.076C91.1048 143.012 91.3608 142.904 91.6008 142.752C91.7368 142.672 91.8568 142.636 91.9608 142.644C92.0728 142.652 92.1608 142.688 92.2248 142.752C92.2968 142.816 92.3408 142.896 92.3568 142.992C92.3728 143.088 92.3568 143.188 92.3088 143.292C92.2608 143.388 92.1768 143.476 92.0568 143.556C91.7848 143.74 91.4688 143.88 91.1088 143.976C90.7488 144.064 90.4008 144.108 90.0648 144.108ZM94.3622 144.084C94.1702 144.084 94.0222 144.032 93.9182 143.928C93.8142 143.816 93.7622 143.664 93.7622 143.472V138.672C93.7622 138.472 93.8142 138.32 93.9182 138.216C94.0222 138.112 94.1662 138.06 94.3502 138.06C94.5422 138.06 94.6862 138.112 94.7822 138.216C94.8862 138.32 94.9382 138.472 94.9382 138.672V139.608L94.8062 139.392C94.9822 138.944 95.2582 138.608 95.6342 138.384C96.0102 138.152 96.4422 138.036 96.9302 138.036C97.3942 138.036 97.7782 138.124 98.0822 138.3C98.3942 138.468 98.6262 138.728 98.7782 139.08C98.9302 139.424 99.0062 139.86 99.0062 140.388V143.472C99.0062 143.664 98.9542 143.816 98.8502 143.928C98.7462 144.032 98.5982 144.084 98.4062 144.084C98.2062 144.084 98.0542 144.032 97.9502 143.928C97.8462 143.816 97.7942 143.664 97.7942 143.472V140.46C97.7942 139.956 97.6942 139.588 97.4942 139.356C97.3022 139.124 96.9982 139.008 96.5822 139.008C96.0942 139.008 95.7022 139.16 95.4062 139.464C95.1182 139.768 94.9742 140.176 94.9742 140.688V143.472C94.9742 143.88 94.7702 144.084 94.3622 144.084ZM102.908 144.108C102.396 144.108 101.944 143.988 101.552 143.748C101.168 143.5 100.868 143.148 100.652 142.692C100.436 142.228 100.328 141.688 100.328 141.072C100.328 140.44 100.436 139.9 100.652 139.452C100.868 139.004 101.168 138.656 101.552 138.408C101.944 138.16 102.396 138.036 102.908 138.036C103.42 138.036 103.86 138.164 104.228 138.42C104.604 138.668 104.856 139.004 104.984 139.428H104.852V136.068C104.852 135.868 104.904 135.716 105.008 135.612C105.112 135.508 105.26 135.456 105.452 135.456C105.644 135.456 105.792 135.508 105.896 135.612C106.008 135.716 106.064 135.868 106.064 136.068V143.472C106.064 143.664 106.012 143.816 105.908 143.928C105.804 144.032 105.656 144.084 105.464 144.084C105.272 144.084 105.124 144.032 105.02 143.928C104.916 143.816 104.864 143.664 104.864 143.472V142.416L104.996 142.68C104.868 143.112 104.616 143.46 104.24 143.724C103.872 143.98 103.428 144.108 102.908 144.108ZM103.22 143.172C103.548 143.172 103.836 143.092 104.084 142.932C104.332 142.772 104.524 142.536 104.66 142.224C104.804 141.912 104.876 141.528 104.876 141.072C104.876 140.384 104.724 139.864 104.42 139.512C104.116 139.16 103.716 138.984 103.22 138.984C102.884 138.984 102.592 139.064 102.344 139.224C102.096 139.376 101.9 139.608 101.756 139.92C101.62 140.232 101.552 140.616 101.552 141.072C101.552 141.752 101.704 142.272 102.008 142.632C102.312 142.992 102.716 143.172 103.22 143.172ZM111.686 144.084C111.486 144.084 111.33 144.028 111.218 143.916C111.114 143.804 111.062 143.648 111.062 143.448V136.176C111.062 135.968 111.118 135.812 111.23 135.708C111.342 135.596 111.498 135.54 111.698 135.54H114.566C115.478 135.54 116.182 135.756 116.678 136.188C117.174 136.62 117.422 137.232 117.422 138.024C117.422 138.536 117.31 138.976 117.086 139.344C116.862 139.712 116.534 139.992 116.102 140.184C115.678 140.376 115.166 140.472 114.566 140.472L114.674 140.304H114.986C115.306 140.304 115.582 140.384 115.814 140.544C116.054 140.704 116.27 140.96 116.462 141.312L117.494 143.232C117.574 143.376 117.61 143.516 117.602 143.652C117.602 143.78 117.554 143.884 117.458 143.964C117.37 144.044 117.242 144.084 117.074 144.084C116.898 144.084 116.754 144.048 116.642 143.976C116.538 143.896 116.442 143.78 116.354 143.628L115.094 141.3C114.926 140.988 114.734 140.78 114.518 140.676C114.302 140.564 114.018 140.508 113.666 140.508H112.31V143.448C112.31 143.648 112.258 143.804 112.154 143.916C112.05 144.028 111.894 144.084 111.686 144.084ZM112.31 139.572H114.362C114.97 139.572 115.43 139.444 115.742 139.188C116.054 138.932 116.21 138.552 116.21 138.048C116.21 137.552 116.054 137.176 115.742 136.92C115.43 136.664 114.97 136.536 114.362 136.536H112.31V139.572ZM121.659 144.108C121.019 144.108 120.467 143.988 120.003 143.748C119.547 143.5 119.191 143.152 118.935 142.704C118.687 142.248 118.563 141.708 118.563 141.084C118.563 140.476 118.687 139.944 118.935 139.488C119.183 139.032 119.523 138.676 119.955 138.42C120.387 138.164 120.879 138.036 121.431 138.036C121.839 138.036 122.203 138.104 122.523 138.24C122.843 138.368 123.115 138.56 123.339 138.816C123.571 139.064 123.743 139.368 123.855 139.728C123.975 140.088 124.035 140.492 124.035 140.94C124.035 141.076 123.995 141.18 123.915 141.252C123.835 141.316 123.715 141.348 123.555 141.348H119.523V140.604H123.219L123.015 140.772C123.015 140.372 122.955 140.032 122.835 139.752C122.723 139.472 122.551 139.26 122.319 139.116C122.095 138.964 121.815 138.888 121.479 138.888C121.103 138.888 120.783 138.976 120.519 139.152C120.263 139.328 120.067 139.572 119.931 139.884C119.795 140.196 119.727 140.56 119.727 140.976V141.048C119.727 141.752 119.891 142.284 120.219 142.644C120.555 142.996 121.039 143.172 121.671 143.172C121.911 143.172 122.163 143.14 122.427 143.076C122.699 143.012 122.955 142.904 123.195 142.752C123.331 142.672 123.451 142.636 123.555 142.644C123.667 142.652 123.755 142.688 123.819 142.752C123.891 142.816 123.935 142.896 123.951 142.992C123.967 143.088 123.951 143.188 123.903 143.292C123.855 143.388 123.771 143.476 123.651 143.556C123.379 143.74 123.063 143.88 122.703 143.976C122.343 144.064 121.995 144.108 121.659 144.108ZM125.98 144.084C125.788 144.084 125.64 144.032 125.536 143.928C125.432 143.816 125.38 143.664 125.38 143.472V138.672C125.38 138.472 125.432 138.32 125.536 138.216C125.64 138.112 125.784 138.06 125.968 138.06C126.16 138.06 126.304 138.112 126.4 138.216C126.504 138.32 126.556 138.472 126.556 138.672V139.656L126.424 139.392C126.584 138.968 126.832 138.636 127.168 138.396C127.504 138.156 127.908 138.036 128.38 138.036C128.868 138.036 129.264 138.152 129.568 138.384C129.872 138.616 130.08 138.972 130.192 139.452H130.024C130.176 139.012 130.436 138.668 130.804 138.42C131.172 138.164 131.6 138.036 132.088 138.036C132.536 138.036 132.904 138.124 133.192 138.3C133.48 138.468 133.696 138.728 133.84 139.08C133.984 139.424 134.056 139.86 134.056 140.388V143.472C134.056 143.664 134 143.816 133.888 143.928C133.784 144.032 133.636 144.084 133.444 144.084C133.252 144.084 133.104 144.032 133 143.928C132.896 143.816 132.844 143.664 132.844 143.472V140.448C132.844 139.952 132.756 139.588 132.58 139.356C132.412 139.124 132.132 139.008 131.74 139.008C131.3 139.008 130.952 139.16 130.696 139.464C130.44 139.768 130.312 140.188 130.312 140.724V143.472C130.312 143.664 130.26 143.816 130.156 143.928C130.052 144.032 129.904 144.084 129.712 144.084C129.52 144.084 129.368 144.032 129.256 143.928C129.152 143.816 129.1 143.664 129.1 143.472V140.448C129.1 139.952 129.016 139.588 128.848 139.356C128.68 139.124 128.4 139.008 128.008 139.008C127.568 139.008 127.22 139.16 126.964 139.464C126.716 139.768 126.592 140.188 126.592 140.724V143.472C126.592 143.88 126.388 144.084 125.98 144.084ZM136.35 144.072C136.158 144.072 136.01 144.016 135.906 143.904C135.802 143.784 135.75 143.62 135.75 143.412V138.732C135.75 138.524 135.802 138.364 135.906 138.252C136.01 138.14 136.158 138.084 136.35 138.084C136.542 138.084 136.69 138.14 136.794 138.252C136.906 138.364 136.962 138.524 136.962 138.732V143.412C136.962 143.62 136.91 143.784 136.806 143.904C136.702 144.016 136.55 144.072 136.35 144.072ZM136.35 136.836C136.11 136.836 135.922 136.776 135.786 136.656C135.658 136.536 135.594 136.368 135.594 136.152C135.594 135.928 135.658 135.76 135.786 135.648C135.922 135.528 136.11 135.468 136.35 135.468C136.59 135.468 136.774 135.528 136.902 135.648C137.038 135.76 137.106 135.928 137.106 136.152C137.106 136.368 137.038 136.536 136.902 136.656C136.774 136.776 136.59 136.836 136.35 136.836ZM139.268 144.084C139.076 144.084 138.928 144.032 138.824 143.928C138.72 143.816 138.668 143.664 138.668 143.472V138.672C138.668 138.472 138.72 138.32 138.824 138.216C138.928 138.112 139.072 138.06 139.256 138.06C139.448 138.06 139.592 138.112 139.688 138.216C139.792 138.32 139.844 138.472 139.844 138.672V139.608L139.712 139.392C139.888 138.944 140.164 138.608 140.54 138.384C140.916 138.152 141.348 138.036 141.836 138.036C142.3 138.036 142.684 138.124 142.988 138.3C143.3 138.468 143.532 138.728 143.684 139.08C143.836 139.424 143.912 139.86 143.912 140.388V143.472C143.912 143.664 143.86 143.816 143.756 143.928C143.652 144.032 143.504 144.084 143.312 144.084C143.112 144.084 142.96 144.032 142.856 143.928C142.752 143.816 142.7 143.664 142.7 143.472V140.46C142.7 139.956 142.6 139.588 142.4 139.356C142.208 139.124 141.904 139.008 141.488 139.008C141 139.008 140.608 139.16 140.312 139.464C140.024 139.768 139.88 140.176 139.88 140.688V143.472C139.88 143.88 139.676 144.084 139.268 144.084ZM147.814 144.108C147.302 144.108 146.85 143.988 146.458 143.748C146.074 143.5 145.774 143.148 145.558 142.692C145.342 142.228 145.234 141.688 145.234 141.072C145.234 140.44 145.342 139.9 145.558 139.452C145.774 139.004 146.074 138.656 146.458 138.408C146.85 138.16 147.302 138.036 147.814 138.036C148.326 138.036 148.766 138.164 149.134 138.42C149.51 138.668 149.762 139.004 149.89 139.428H149.758V136.068C149.758 135.868 149.81 135.716 149.914 135.612C150.018 135.508 150.166 135.456 150.358 135.456C150.55 135.456 150.698 135.508 150.802 135.612C150.914 135.716 150.97 135.868 150.97 136.068V143.472C150.97 143.664 150.918 143.816 150.814 143.928C150.71 144.032 150.562 144.084 150.37 144.084C150.178 144.084 150.03 144.032 149.926 143.928C149.822 143.816 149.77 143.664 149.77 143.472V142.416L149.902 142.68C149.774 143.112 149.522 143.46 149.146 143.724C148.778 143.98 148.334 144.108 147.814 144.108ZM148.126 143.172C148.454 143.172 148.742 143.092 148.99 142.932C149.238 142.772 149.43 142.536 149.566 142.224C149.71 141.912 149.782 141.528 149.782 141.072C149.782 140.384 149.63 139.864 149.326 139.512C149.022 139.16 148.622 138.984 148.126 138.984C147.79 138.984 147.498 139.064 147.25 139.224C147.002 139.376 146.806 139.608 146.662 139.92C146.526 140.232 146.458 140.616 146.458 141.072C146.458 141.752 146.61 142.272 146.914 142.632C147.218 142.992 147.622 143.172 148.126 143.172ZM155.42 144.108C154.78 144.108 154.228 143.988 153.764 143.748C153.308 143.5 152.952 143.152 152.696 142.704C152.448 142.248 152.324 141.708 152.324 141.084C152.324 140.476 152.448 139.944 152.696 139.488C152.944 139.032 153.284 138.676 153.716 138.42C154.148 138.164 154.64 138.036 155.192 138.036C155.6 138.036 155.964 138.104 156.284 138.24C156.604 138.368 156.876 138.56 157.1 138.816C157.332 139.064 157.504 139.368 157.616 139.728C157.736 140.088 157.796 140.492 157.796 140.94C157.796 141.076 157.756 141.18 157.676 141.252C157.596 141.316 157.476 141.348 157.316 141.348H153.284V140.604H156.98L156.776 140.772C156.776 140.372 156.716 140.032 156.596 139.752C156.484 139.472 156.312 139.26 156.08 139.116C155.856 138.964 155.576 138.888 155.24 138.888C154.864 138.888 154.544 138.976 154.28 139.152C154.024 139.328 153.828 139.572 153.692 139.884C153.556 140.196 153.488 140.56 153.488 140.976V141.048C153.488 141.752 153.652 142.284 153.98 142.644C154.316 142.996 154.8 143.172 155.432 143.172C155.672 143.172 155.924 143.14 156.188 143.076C156.46 143.012 156.716 142.904 156.956 142.752C157.092 142.672 157.212 142.636 157.316 142.644C157.428 142.652 157.516 142.688 157.58 142.752C157.652 142.816 157.696 142.896 157.712 142.992C157.728 143.088 157.712 143.188 157.664 143.292C157.616 143.388 157.532 143.476 157.412 143.556C157.14 143.74 156.824 143.88 156.464 143.976C156.104 144.064 155.756 144.108 155.42 144.108ZM159.73 144.084C159.53 144.084 159.378 144.032 159.274 143.928C159.17 143.816 159.118 143.664 159.118 143.472V138.672C159.118 138.472 159.17 138.32 159.274 138.216C159.378 138.112 159.522 138.06 159.706 138.06C159.898 138.06 160.042 138.112 160.138 138.216C160.242 138.32 160.294 138.472 160.294 138.672V139.548H160.174C160.302 139.068 160.538 138.704 160.882 138.456C161.226 138.208 161.666 138.064 162.202 138.024C162.346 138.016 162.458 138.052 162.538 138.132C162.626 138.212 162.674 138.336 162.682 138.504C162.698 138.672 162.662 138.808 162.574 138.912C162.486 139.008 162.35 139.064 162.166 139.08L161.938 139.104C161.418 139.152 161.022 139.316 160.75 139.596C160.478 139.876 160.342 140.26 160.342 140.748V143.472C160.342 143.664 160.29 143.816 160.186 143.928C160.09 144.032 159.938 144.084 159.73 144.084Z" fill="white"/>
<mask id="path-9-inside-3_1073_8685" fill="white">
<path d="M43 179C43 170.163 50.1634 163 59 163H122C130.837 163 138 170.163 138 179C138 187.837 130.837 195 122 195H59C50.1634 195 43 187.837 43 179Z"/>
</mask>
<path d="M43 179C43 170.163 50.1634 163 59 163H122C130.837 163 138 170.163 138 179C138 187.837 130.837 195 122 195H59C50.1634 195 43 187.837 43 179Z" fill="#FF7B1D"/>
<path d="M42 179C42 169.611 49.6112 162 59 162H122C131.389 162 139 169.611 139 179H137C137 170.716 130.284 164 122 164H59C50.7157 164 44 170.716 44 179H42ZM139 180C139 189.389 131.389 197 122 197H59C49.6112 197 42 189.389 42 180L44 179C44 186.732 50.7157 193 59 193H122C130.284 193 137 186.732 137 179L139 180ZM59 197C49.6112 197 42 189.389 42 180V179C42 169.611 49.6112 162 59 162V164C50.7157 164 44 170.716 44 179C44 186.732 50.7157 193 59 193V197ZM122 162C131.389 162 139 169.611 139 179V180C139 189.389 131.389 197 122 197V193C130.284 193 137 186.732 137 179C137 170.716 130.284 164 122 164V162Z" fill="url(#paint2_linear_1073_8685)" mask="url(#path-9-inside-3_1073_8685)"/>
<path d="M71.025 181.569L71.7389 182.005C71.9343 182.124 72.1589 182.181 72.3839 182.168C72.6089 182.155 72.8239 182.073 73.0016 181.933L73.5841 181.473C73.8014 181.301 73.9457 181.049 73.9875 180.769C74.0293 180.488 73.9655 180.2 73.809 179.964C73.2333 179.092 72.1477 178.621 71.1944 179.164C70.5673 179.521 69.8102 180.067 69.0768 180.886C68.4584 181.573 67.9471 182.355 67.5605 183.205C67.1001 184.225 67.6256 185.316 68.5139 185.848C68.7521 185.99 69.0327 186.035 69.2984 185.972C69.5642 185.91 69.7951 185.744 69.9442 185.511L70.3521 184.871C70.4751 184.678 70.5388 184.45 70.5349 184.218C70.531 183.986 70.4598 183.758 70.3304 183.566L69.8578 182.863C69.8784 182.824 69.9033 182.779 69.9324 182.728C70.0542 182.516 70.1968 182.318 70.3581 182.136C70.5222 181.957 70.7038 181.796 70.9002 181.656C70.9412 181.626 70.9828 181.597 71.025 181.569Z" fill="white"/>
<path fill-rule="evenodd" clip-rule="evenodd" d="M69.5011 175.078C69.5011 176.778 68.1771 178.156 66.5439 178.156C64.9107 178.156 63.5867 176.778 63.5867 175.078C63.5867 173.378 64.9107 172 66.5439 172C68.1771 172 69.5011 173.378 69.5011 175.078ZM68.2941 175.078C68.2941 176.145 67.4727 176.941 66.5439 176.941C65.615 176.941 64.7937 176.145 64.7937 175.078C64.7937 174.01 65.615 173.215 66.5439 173.215C67.4727 173.215 68.2941 174.01 68.2941 175.078Z" fill="white"/>
<path d="M64.2125 180.097C65.1487 179.998 66.0812 180.013 66.7048 180.097C66.8663 180.118 67.5138 180.346 67.9118 180.383C68.328 180.422 68.4804 180.097 68.5355 179.958C68.5905 179.82 68.5355 179.462 68.2941 179.31C67.9923 179.121 66.8673 178.91 66.7048 178.888C65.7373 178.758 65.0824 178.784 64.0874 178.888C62.6791 179.036 61.4422 179.444 60.539 180.049C59.6415 180.651 58.9999 181.504 59 182.532L59.0001 183.056C59.0001 184.063 59.8113 184.879 60.8114 184.879H66.0007C66.334 184.879 66.6042 184.607 66.6042 184.271C66.6042 183.936 66.334 183.664 66.0007 183.664H60.8114C60.4775 183.664 60.2071 183.392 60.2071 183.056L60.207 182.532C60.207 182.06 60.5008 181.534 61.2077 181.061C61.9088 180.591 62.9452 180.23 64.2125 180.097Z" fill="white"/>
<path d="M83.776 183.108C82.92 183.108 82.188 182.932 81.58 182.58C80.972 182.228 80.504 181.728 80.176 181.08C79.856 180.424 79.696 179.652 79.696 178.764C79.696 178.1 79.788 177.504 79.972 176.976C80.156 176.44 80.42 175.984 80.764 175.608C81.116 175.224 81.544 174.932 82.048 174.732C82.56 174.532 83.136 174.432 83.776 174.432C84.248 174.432 84.7 174.496 85.132 174.624C85.572 174.752 85.952 174.936 86.272 175.176C86.408 175.264 86.496 175.372 86.536 175.5C86.584 175.62 86.592 175.736 86.56 175.848C86.536 175.96 86.484 176.056 86.404 176.136C86.324 176.208 86.22 176.248 86.092 176.256C85.972 176.264 85.84 176.22 85.696 176.124C85.432 175.924 85.14 175.776 84.82 175.68C84.5 175.584 84.164 175.536 83.812 175.536C83.204 175.536 82.692 175.664 82.276 175.92C81.86 176.168 81.544 176.532 81.328 177.012C81.112 177.492 81.004 178.076 81.004 178.764C81.004 179.452 81.112 180.04 81.328 180.528C81.544 181.008 81.86 181.376 82.276 181.632C82.692 181.88 83.204 182.004 83.812 182.004C84.164 182.004 84.5 181.956 84.82 181.86C85.148 181.756 85.456 181.604 85.744 181.404C85.888 181.316 86.016 181.276 86.128 181.284C86.248 181.292 86.348 181.332 86.428 181.404C86.508 181.476 86.56 181.568 86.584 181.68C86.616 181.784 86.612 181.896 86.572 182.016C86.54 182.128 86.464 182.224 86.344 182.304C86.016 182.568 85.628 182.768 85.18 182.904C84.732 183.04 84.264 183.108 83.776 183.108ZM90.0835 183.108C89.4915 183.108 88.9795 182.984 88.5475 182.736C88.1235 182.488 87.7915 182.136 87.5515 181.68C87.3115 181.224 87.1915 180.688 87.1915 180.072C87.1915 179.6 87.2595 179.18 87.3955 178.812C87.5315 178.444 87.7235 178.128 87.9715 177.864C88.2275 177.592 88.5315 177.388 88.8835 177.252C89.2435 177.108 89.6435 177.036 90.0835 177.036C90.6675 177.036 91.1715 177.16 91.5955 177.408C92.0275 177.656 92.3635 178.008 92.6035 178.464C92.8435 178.912 92.9635 179.448 92.9635 180.072C92.9635 180.536 92.8955 180.956 92.7595 181.332C92.6235 181.708 92.4275 182.028 92.1715 182.292C91.9235 182.556 91.6195 182.76 91.2595 182.904C90.9075 183.04 90.5155 183.108 90.0835 183.108ZM90.0835 182.172C90.4115 182.172 90.6995 182.092 90.9475 181.932C91.1955 181.772 91.3875 181.536 91.5235 181.224C91.6675 180.912 91.7395 180.528 91.7395 180.072C91.7395 179.384 91.5875 178.864 91.2835 178.512C90.9795 178.16 90.5795 177.984 90.0835 177.984C89.7475 177.984 89.4555 178.064 89.2075 178.224C88.9595 178.376 88.7635 178.608 88.6195 178.92C88.4835 179.232 88.4155 179.616 88.4155 180.072C88.4155 180.752 88.5675 181.272 88.8715 181.632C89.1755 181.992 89.5795 182.172 90.0835 182.172ZM94.9247 183.084C94.7327 183.084 94.5847 183.032 94.4807 182.928C94.3767 182.816 94.3247 182.664 94.3247 182.472V177.672C94.3247 177.472 94.3767 177.32 94.4807 177.216C94.5847 177.112 94.7287 177.06 94.9127 177.06C95.1047 177.06 95.2487 177.112 95.3447 177.216C95.4487 177.32 95.5007 177.472 95.5007 177.672V178.608L95.3687 178.392C95.5447 177.944 95.8207 177.608 96.1967 177.384C96.5727 177.152 97.0047 177.036 97.4927 177.036C97.9567 177.036 98.3407 177.124 98.6447 177.3C98.9567 177.468 99.1887 177.728 99.3407 178.08C99.4927 178.424 99.5687 178.86 99.5687 179.388V182.472C99.5687 182.664 99.5167 182.816 99.4127 182.928C99.3087 183.032 99.1607 183.084 98.9687 183.084C98.7687 183.084 98.6167 183.032 98.5127 182.928C98.4087 182.816 98.3567 182.664 98.3567 182.472V179.46C98.3567 178.956 98.2567 178.588 98.0567 178.356C97.8647 178.124 97.5607 178.008 97.1447 178.008C96.6567 178.008 96.2647 178.16 95.9687 178.464C95.6807 178.768 95.5367 179.176 95.5367 179.688V182.472C95.5367 182.88 95.3327 183.084 94.9247 183.084ZM103.735 183.108C103.255 183.108 102.851 183.024 102.523 182.856C102.195 182.688 101.951 182.44 101.791 182.112C101.631 181.784 101.551 181.384 101.551 180.912V178.08H100.831C100.671 178.08 100.547 178.04 100.459 177.96C100.371 177.872 100.327 177.756 100.327 177.612C100.327 177.46 100.371 177.344 100.459 177.264C100.547 177.184 100.671 177.144 100.831 177.144H101.551V175.908C101.551 175.708 101.603 175.556 101.707 175.452C101.819 175.348 101.971 175.296 102.163 175.296C102.355 175.296 102.503 175.348 102.607 175.452C102.711 175.556 102.763 175.708 102.763 175.908V177.144H104.167C104.327 177.144 104.451 177.184 104.539 177.264C104.627 177.344 104.671 177.46 104.671 177.612C104.671 177.756 104.627 177.872 104.539 177.96C104.451 178.04 104.327 178.08 104.167 178.08H102.763V180.816C102.763 181.24 102.851 181.56 103.027 181.776C103.211 181.992 103.507 182.1 103.915 182.1C104.059 182.1 104.183 182.088 104.287 182.064C104.399 182.032 104.491 182.012 104.563 182.004C104.651 182.004 104.723 182.036 104.779 182.1C104.835 182.156 104.863 182.268 104.863 182.436C104.863 182.556 104.839 182.668 104.791 182.772C104.751 182.876 104.675 182.944 104.563 182.976C104.467 183.008 104.335 183.036 104.167 183.06C104.007 183.092 103.863 183.108 103.735 183.108ZM107.494 183.108C107.086 183.108 106.718 183.028 106.39 182.868C106.07 182.708 105.818 182.492 105.634 182.22C105.45 181.948 105.358 181.64 105.358 181.296C105.358 180.864 105.466 180.524 105.682 180.276C105.906 180.02 106.27 179.84 106.774 179.736C107.286 179.624 107.974 179.568 108.838 179.568H109.402V180.312H108.85C108.274 180.312 107.818 180.34 107.482 180.396C107.146 180.452 106.906 180.548 106.762 180.684C106.626 180.812 106.558 180.992 106.558 181.224C106.558 181.528 106.662 181.776 106.87 181.968C107.078 182.152 107.366 182.244 107.734 182.244C108.03 182.244 108.29 182.176 108.514 182.04C108.738 181.896 108.914 181.704 109.042 181.464C109.178 181.224 109.246 180.948 109.246 180.636V179.256C109.246 178.8 109.15 178.472 108.958 178.272C108.766 178.072 108.45 177.972 108.01 177.972C107.754 177.972 107.486 178.004 107.206 178.068C106.934 178.132 106.65 178.24 106.354 178.392C106.218 178.456 106.102 178.476 106.006 178.452C105.91 178.428 105.834 178.376 105.778 178.296C105.722 178.208 105.69 178.116 105.682 178.02C105.682 177.916 105.706 177.816 105.754 177.72C105.81 177.624 105.902 177.552 106.03 177.504C106.382 177.336 106.73 177.216 107.074 177.144C107.418 177.072 107.742 177.036 108.046 177.036C108.582 177.036 109.022 177.12 109.366 177.288C109.718 177.456 109.978 177.712 110.146 178.056C110.314 178.4 110.398 178.844 110.398 179.388V182.472C110.398 182.664 110.35 182.816 110.254 182.928C110.158 183.032 110.018 183.084 109.834 183.084C109.658 183.084 109.518 183.032 109.414 182.928C109.31 182.816 109.258 182.664 109.258 182.472V181.692H109.366C109.302 181.988 109.182 182.244 109.006 182.46C108.838 182.668 108.626 182.828 108.37 182.94C108.114 183.052 107.822 183.108 107.494 183.108ZM114.647 183.108C114.047 183.108 113.527 182.984 113.087 182.736C112.655 182.48 112.319 182.124 112.079 181.668C111.839 181.204 111.719 180.66 111.719 180.036C111.719 179.572 111.787 179.156 111.923 178.788C112.059 178.412 112.251 178.096 112.499 177.84C112.755 177.584 113.063 177.388 113.423 177.252C113.791 177.108 114.199 177.036 114.647 177.036C114.927 177.036 115.219 177.08 115.523 177.168C115.835 177.248 116.123 177.384 116.387 177.576C116.491 177.64 116.555 177.72 116.579 177.816C116.611 177.904 116.615 177.996 116.591 178.092C116.575 178.188 116.531 178.272 116.459 178.344C116.395 178.408 116.315 178.448 116.219 178.464C116.123 178.472 116.019 178.444 115.907 178.38C115.715 178.244 115.519 178.148 115.319 178.092C115.119 178.028 114.927 177.996 114.743 177.996C114.455 177.996 114.199 178.044 113.975 178.14C113.759 178.228 113.575 178.36 113.423 178.536C113.271 178.704 113.155 178.916 113.075 179.172C113.003 179.428 112.967 179.72 112.967 180.048C112.967 180.704 113.119 181.22 113.423 181.596C113.735 181.964 114.175 182.148 114.743 182.148C114.927 182.148 115.119 182.12 115.319 182.064C115.519 182.008 115.715 181.912 115.907 181.776C116.019 181.712 116.123 181.688 116.219 181.704C116.315 181.72 116.391 181.764 116.447 181.836C116.511 181.9 116.551 181.98 116.567 182.076C116.591 182.164 116.587 182.256 116.555 182.352C116.523 182.448 116.455 182.528 116.351 182.592C116.095 182.776 115.815 182.908 115.511 182.988C115.215 183.068 114.927 183.108 114.647 183.108ZM120.176 183.108C119.696 183.108 119.292 183.024 118.964 182.856C118.636 182.688 118.392 182.44 118.232 182.112C118.072 181.784 117.992 181.384 117.992 180.912V178.08H117.272C117.112 178.08 116.988 178.04 116.9 177.96C116.812 177.872 116.768 177.756 116.768 177.612C116.768 177.46 116.812 177.344 116.9 177.264C116.988 177.184 117.112 177.144 117.272 177.144H117.992V175.908C117.992 175.708 118.044 175.556 118.148 175.452C118.26 175.348 118.412 175.296 118.604 175.296C118.796 175.296 118.944 175.348 119.048 175.452C119.152 175.556 119.204 175.708 119.204 175.908V177.144H120.608C120.768 177.144 120.892 177.184 120.98 177.264C121.068 177.344 121.112 177.46 121.112 177.612C121.112 177.756 121.068 177.872 120.98 177.96C120.892 178.04 120.768 178.08 120.608 178.08H119.204V180.816C119.204 181.24 119.292 181.56 119.468 181.776C119.652 181.992 119.948 182.1 120.356 182.1C120.5 182.1 120.624 182.088 120.728 182.064C120.84 182.032 120.932 182.012 121.004 182.004C121.092 182.004 121.164 182.036 121.22 182.1C121.276 182.156 121.304 182.268 121.304 182.436C121.304 182.556 121.28 182.668 121.232 182.772C121.192 182.876 121.116 182.944 121.004 182.976C120.908 183.008 120.776 183.036 120.608 183.06C120.448 183.092 120.304 183.108 120.176 183.108Z" fill="white"/>
<mask id="path-13-inside-4_1073_8685" fill="white">
<path d="M44 218C44 209.163 51.1634 202 60 202H76C84.8366 202 92 209.163 92 218C92 226.837 84.8366 234 76 234H60C51.1634 234 44 226.837 44 218Z"/>
</mask>
<path d="M44 218C44 209.163 51.1634 202 60 202H76C84.8366 202 92 209.163 92 218C92 226.837 84.8366 234 76 234H60C51.1634 234 44 226.837 44 218Z" fill="#FE5000"/>
<path d="M43 218C43 208.611 50.6112 201 60 201H76C85.3888 201 93 208.611 93 218H91C91 209.716 84.2843 203 76 203H60C51.7157 203 45 209.716 45 218H43ZM93 220C93 229.389 85.3888 237 76 237H60C50.6112 237 43 229.389 43 220L45 218C45 225.18 51.7157 231 60 231H76C84.2843 231 91 225.18 91 218L93 220ZM60 237C50.6112 237 43 229.389 43 220V218C43 208.611 50.6112 201 60 201V203C51.7157 203 45 209.716 45 218C45 225.18 51.7157 231 60 231V237ZM76 201C85.3888 201 93 208.611 93 218V220C93 229.389 85.3888 237 76 237V231C84.2843 231 91 225.18 91 218C91 209.716 84.2843 203 76 203V201Z" fill="url(#paint3_linear_1073_8685)" mask="url(#path-13-inside-4_1073_8685)"/>
<path fill-rule="evenodd" clip-rule="evenodd" d="M70.0495 213.93C70.0495 215.548 68.7825 216.86 67.2195 216.86C65.6565 216.86 64.3895 215.548 64.3895 213.93C64.3895 212.312 65.6565 211 67.2195 211C68.7825 211 70.0495 212.312 70.0495 213.93ZM68.8944 213.93C68.8944 214.946 68.1084 215.703 67.2195 215.703C66.3306 215.703 65.5446 214.946 65.5446 213.93C65.5446 212.914 66.3306 212.157 67.2195 212.157C68.1084 212.157 68.8944 212.914 68.8944 213.93Z" fill="white"/>
<path d="M64.9883 218.707C65.8843 218.614 66.5097 218.598 67.3164 218.705C67.6326 218.747 67.9231 218.525 67.9653 218.209C68.0074 217.892 67.7853 217.601 67.4691 217.559C66.5432 217.435 65.8209 217.458 64.8687 217.557C63.5209 217.697 62.3372 218.086 61.4728 218.662C60.6139 219.234 59.9999 220.047 60 221.026L60 221.524C60.0001 222.483 60.7765 223.259 61.7335 223.259H66.6997C67.0187 223.259 67.2772 223.001 67.2772 222.681C67.2772 222.362 67.0187 222.103 66.6997 222.103H61.7335C61.414 222.103 61.1552 221.844 61.1552 221.524L61.1551 221.026C61.1551 220.576 61.4362 220.076 62.1128 219.625C62.7837 219.178 63.7756 218.834 64.9883 218.707Z" fill="white"/>
<path d="M67.0286 220.421L69.0055 221.996L68.3906 224.364C68.2699 224.805 68.7885 225.168 69.2102 224.919L71.4164 223.638L73.6226 224.918C74.0326 225.156 74.5507 224.805 74.4422 224.363L73.8273 221.996L75.8045 220.421C76.1779 220.127 75.9852 219.549 75.491 219.515L72.899 219.333L71.9226 217.079C71.7419 216.66 71.1029 216.66 70.9099 217.079L69.9335 219.334L67.3416 219.515C66.8477 219.56 66.6547 220.127 67.0286 220.421Z" fill="white"/>
<mask id="path-16-inside-5_1073_8685" fill="white">
<path d="M44 98C44 89.1634 51.1634 82 60 82H138C146.837 82 154 89.1634 154 98C154 106.837 146.837 114 138 114H60C51.1634 114 44 106.837 44 98Z"/>
</mask>
<path d="M44 98C44 89.1634 51.1634 82 60 82H138C146.837 82 154 89.1634 154 98C154 106.837 146.837 114 138 114H60C51.1634 114 44 106.837 44 98Z" fill="#76BC21"/>
<path d="M43 98C43 88.6112 50.6112 81 60 81H138C147.389 81 155 88.6112 155 98H153C153 89.7157 146.284 83 138 83H60C51.7157 83 45 89.7157 45 98H43ZM155 99C155 108.389 147.389 116 138 116H60C50.6112 116 43 108.389 43 99L45 98C45 105.732 51.7157 112 60 112H138C146.284 112 153 105.732 153 98L155 99ZM60 116C50.6112 116 43 108.389 43 99V98C43 88.6112 50.6112 81 60 81V83C51.7157 83 45 89.7157 45 98C45 105.732 51.7157 112 60 112V116ZM138 81C147.389 81 155 88.6112 155 98V99C155 108.389 147.389 116 138 116V112C146.284 112 153 105.732 153 98C153 89.7157 146.284 83 138 83V81Z" fill="url(#paint4_linear_1073_8685)" mask="url(#path-16-inside-5_1073_8685)"/>
<path fill-rule="evenodd" clip-rule="evenodd" d="M71.0475 94.2281C71.0475 96.0109 69.6546 97.4562 67.9364 97.4562C66.2182 97.4562 64.8253 96.0109 64.8253 94.2281C64.8253 92.4453 66.2182 91 67.9364 91C69.6546 91 71.0475 92.4453 71.0475 94.2281ZM69.7777 94.2281C69.7777 95.3477 68.9136 96.1819 67.9364 96.1819C66.9592 96.1819 66.0952 95.3477 66.0952 94.2281C66.0952 93.1085 66.9592 92.2742 67.9364 92.2742C68.9136 92.2742 69.7777 93.1085 69.7777 94.2281Z" fill="white"/>
<path d="M65.4837 99.4916C66.4687 99.3886 67.4497 99.4038 68.1057 99.4916C68.2756 99.5143 68.9569 99.7533 69.3756 99.7923C69.8134 99.8332 69.9737 99.4916 70.0316 99.3463C70.0895 99.2011 70.0316 98.8258 69.7777 98.6667C69.4602 98.4679 68.2767 98.2471 68.1057 98.2242C67.0879 98.088 66.3989 98.1148 65.3522 98.2242C63.8706 98.379 62.5693 98.8073 61.619 99.4419C60.6749 100.072 59.9999 100.968 60 102.046L60.0001 102.595C60.0001 103.651 60.8536 104.507 61.9056 104.507H66.201C66.5516 104.507 66.8571 104.243 66.8571 103.891C66.8571 103.539 66.5516 103.233 66.201 103.233H61.9056C61.5544 103.233 61.2699 102.947 61.2699 102.595L61.2698 102.046C61.2698 101.551 61.5789 100.999 62.3226 100.503C63.0602 100.01 64.1505 99.6309 65.4837 99.4916Z" fill="white"/>
<path d="M69.2438 104.716C68.8838 104.354 68.8838 103.767 69.2438 103.405L73.4263 99.1977C73.7863 98.8355 74.37 98.8355 74.73 99.1977C75.09 99.5598 75.09 100.147 74.73 100.509L70.5474 104.716C70.1874 105.079 69.6038 105.079 69.2438 104.716Z" fill="white"/>
<path d="M67.3971 101.559C67.7571 101.196 68.3407 101.196 68.7007 101.559L70.5482 103.417C70.9082 103.779 70.9082 104.366 70.5482 104.728C70.1882 105.091 69.6045 105.091 69.2445 104.728L67.3971 102.87C67.0371 102.508 67.0371 101.921 67.3971 101.559Z" fill="white"/>
<path d="M83.804 102.108C83.436 102.108 83.076 102.08 82.724 102.024C82.372 101.968 82.04 101.884 81.728 101.772C81.416 101.652 81.136 101.508 80.888 101.34C80.768 101.252 80.684 101.152 80.636 101.04C80.596 100.928 80.584 100.82 80.6 100.716C80.624 100.604 80.672 100.508 80.744 100.428C80.816 100.348 80.904 100.3 81.008 100.284C81.112 100.26 81.228 100.292 81.356 100.38C81.716 100.612 82.096 100.784 82.496 100.896C82.896 101 83.332 101.052 83.804 101.052C84.484 101.052 84.984 100.932 85.304 100.692C85.632 100.444 85.796 100.124 85.796 99.732C85.796 99.412 85.68 99.16 85.448 98.976C85.216 98.784 84.828 98.632 84.284 98.52L83 98.256C82.24 98.096 81.672 97.832 81.296 97.464C80.928 97.096 80.744 96.6 80.744 95.976C80.744 95.6 80.82 95.256 80.972 94.944C81.132 94.632 81.352 94.364 81.632 94.14C81.912 93.908 82.248 93.732 82.64 93.612C83.032 93.492 83.46 93.432 83.924 93.432C84.42 93.432 84.884 93.496 85.316 93.624C85.756 93.752 86.148 93.948 86.492 94.212C86.596 94.284 86.664 94.376 86.696 94.488C86.736 94.592 86.744 94.696 86.72 94.8C86.704 94.904 86.66 94.992 86.588 95.064C86.516 95.136 86.424 95.18 86.312 95.196C86.2 95.204 86.076 95.164 85.94 95.076C85.628 94.868 85.308 94.72 84.98 94.632C84.66 94.536 84.304 94.488 83.912 94.488C83.52 94.488 83.176 94.548 82.88 94.668C82.592 94.788 82.368 94.956 82.208 95.172C82.056 95.388 81.98 95.644 81.98 95.94C81.98 96.276 82.088 96.544 82.304 96.744C82.52 96.944 82.88 97.096 83.384 97.2L84.656 97.464C85.456 97.632 86.052 97.892 86.444 98.244C86.836 98.596 87.032 99.064 87.032 99.648C87.032 100.024 86.956 100.364 86.804 100.668C86.652 100.964 86.436 101.22 86.156 101.436C85.876 101.652 85.536 101.82 85.136 101.94C84.744 102.052 84.3 102.108 83.804 102.108ZM90.1888 102.108C89.7808 102.108 89.4128 102.028 89.0848 101.868C88.7648 101.708 88.5128 101.492 88.3288 101.22C88.1448 100.948 88.0528 100.64 88.0528 100.296C88.0528 99.864 88.1608 99.524 88.3768 99.276C88.6008 99.02 88.9648 98.84 89.4688 98.736C89.9808 98.624 90.6688 98.568 91.5328 98.568H92.0968V99.312H91.5448C90.9688 99.312 90.5128 99.34 90.1768 99.396C89.8408 99.452 89.6008 99.548 89.4568 99.684C89.3208 99.812 89.2528 99.992 89.2528 100.224C89.2528 100.528 89.3568 100.776 89.5648 100.968C89.7728 101.152 90.0608 101.244 90.4288 101.244C90.7248 101.244 90.9848 101.176 91.2088 101.04C91.4328 100.896 91.6088 100.704 91.7368 100.464C91.8728 100.224 91.9408 99.948 91.9408 99.636V98.256C91.9408 97.8 91.8448 97.472 91.6528 97.272C91.4608 97.072 91.1448 96.972 90.7048 96.972C90.4488 96.972 90.1808 97.004 89.9008 97.068C89.6288 97.132 89.3448 97.24 89.0488 97.392C88.9128 97.456 88.7968 97.476 88.7008 97.452C88.6048 97.428 88.5288 97.376 88.4728 97.296C88.4168 97.208 88.3848 97.116 88.3768 97.02C88.3768 96.916 88.4008 96.816 88.4488 96.72C88.5048 96.624 88.5968 96.552 88.7248 96.504C89.0768 96.336 89.4248 96.216 89.7688 96.144C90.1128 96.072 90.4368 96.036 90.7408 96.036C91.2768 96.036 91.7168 96.12 92.0608 96.288C92.4128 96.456 92.6728 96.712 92.8408 97.056C93.0088 97.4 93.0928 97.844 93.0928 98.388V101.472C93.0928 101.664 93.0448 101.816 92.9488 101.928C92.8528 102.032 92.7128 102.084 92.5288 102.084C92.3528 102.084 92.2128 102.032 92.1088 101.928C92.0048 101.816 91.9528 101.664 91.9528 101.472V100.692H92.0608C91.9968 100.988 91.8768 101.244 91.7008 101.46C91.5328 101.668 91.3208 101.828 91.0648 101.94C90.8088 102.052 90.5168 102.108 90.1888 102.108ZM96.9716 102.084C96.8036 102.084 96.6556 102.04 96.5276 101.952C96.4076 101.864 96.3076 101.728 96.2276 101.544L94.2236 96.888C94.1596 96.744 94.1356 96.608 94.1516 96.48C94.1676 96.352 94.2276 96.252 94.3316 96.18C94.4356 96.1 94.5756 96.06 94.7516 96.06C94.9036 96.06 95.0236 96.096 95.1116 96.168C95.1996 96.24 95.2796 96.364 95.3516 96.54L97.1636 101.004H96.8276L98.6756 96.54C98.7476 96.364 98.8276 96.24 98.9156 96.168C99.0116 96.096 99.1436 96.06 99.3116 96.06C99.4556 96.06 99.5676 96.1 99.6476 96.18C99.7356 96.252 99.7876 96.352 99.8036 96.48C99.8276 96.6 99.8076 96.732 99.7436 96.876L97.7156 101.544C97.6436 101.728 97.5436 101.864 97.4156 101.952C97.2876 102.04 97.1396 102.084 96.9716 102.084ZM103.58 102.108C102.94 102.108 102.388 101.988 101.924 101.748C101.468 101.5 101.112 101.152 100.856 100.704C100.608 100.248 100.484 99.708 100.484 99.084C100.484 98.476 100.608 97.944 100.856 97.488C101.104 97.032 101.444 96.676 101.876 96.42C102.308 96.164 102.8 96.036 103.352 96.036C103.76 96.036 104.124 96.104 104.444 96.24C104.764 96.368 105.036 96.56 105.26 96.816C105.492 97.064 105.664 97.368 105.776 97.728C105.896 98.088 105.956 98.492 105.956 98.94C105.956 99.076 105.916 99.18 105.836 99.252C105.756 99.316 105.636 99.348 105.476 99.348H101.444V98.604H105.14L104.936 98.772C104.936 98.372 104.876 98.032 104.756 97.752C104.644 97.472 104.472 97.26 104.24 97.116C104.016 96.964 103.736 96.888 103.4 96.888C103.024 96.888 102.704 96.976 102.44 97.152C102.184 97.328 101.988 97.572 101.852 97.884C101.716 98.196 101.648 98.56 101.648 98.976V99.048C101.648 99.752 101.812 100.284 102.14 100.644C102.476 100.996 102.96 101.172 103.592 101.172C103.832 101.172 104.084 101.14 104.348 101.076C104.62 101.012 104.876 100.904 105.116 100.752C105.252 100.672 105.372 100.636 105.476 100.644C105.588 100.652 105.676 100.688 105.74 100.752C105.812 100.816 105.856 100.896 105.872 100.992C105.888 101.088 105.872 101.188 105.824 101.292C105.776 101.388 105.692 101.476 105.572 101.556C105.3 101.74 104.984 101.88 104.624 101.976C104.264 102.064 103.916 102.108 103.58 102.108ZM111.234 102.084C111.026 102.084 110.862 102.028 110.742 101.916C110.63 101.804 110.574 101.64 110.574 101.424V94.212C110.574 93.996 110.63 93.832 110.742 93.72C110.862 93.6 111.03 93.54 111.246 93.54H115.518C115.694 93.54 115.822 93.584 115.902 93.672C115.99 93.752 116.034 93.872 116.034 94.032C116.034 94.2 115.99 94.328 115.902 94.416C115.822 94.504 115.694 94.548 115.518 94.548H111.822V97.248H115.278C115.438 97.248 115.562 97.292 115.65 97.38C115.746 97.46 115.794 97.58 115.794 97.74C115.794 97.908 115.746 98.036 115.65 98.124C115.562 98.212 115.438 98.256 115.278 98.256H111.822V101.424C111.822 101.864 111.626 102.084 111.234 102.084ZM119.408 102.108C118.816 102.108 118.304 101.984 117.872 101.736C117.448 101.488 117.116 101.136 116.876 100.68C116.636 100.224 116.516 99.688 116.516 99.072C116.516 98.6 116.584 98.18 116.72 97.812C116.856 97.444 117.048 97.128 117.296 96.864C117.552 96.592 117.856 96.388 118.208 96.252C118.568 96.108 118.968 96.036 119.408 96.036C119.992 96.036 120.496 96.16 120.92 96.408C121.352 96.656 121.688 97.008 121.928 97.464C122.168 97.912 122.288 98.448 122.288 99.072C122.288 99.536 122.22 99.956 122.084 100.332C121.948 100.708 121.752 101.028 121.496 101.292C121.248 101.556 120.944 101.76 120.584 101.904C120.232 102.04 119.84 102.108 119.408 102.108ZM119.408 101.172C119.736 101.172 120.024 101.092 120.272 100.932C120.52 100.772 120.712 100.536 120.848 100.224C120.992 99.912 121.064 99.528 121.064 99.072C121.064 98.384 120.912 97.864 120.608 97.512C120.304 97.16 119.904 96.984 119.408 96.984C119.072 96.984 118.78 97.064 118.532 97.224C118.284 97.376 118.088 97.608 117.944 97.92C117.808 98.232 117.74 98.616 117.74 99.072C117.74 99.752 117.892 100.272 118.196 100.632C118.5 100.992 118.904 101.172 119.408 101.172ZM124.261 102.084C124.061 102.084 123.909 102.032 123.805 101.928C123.701 101.816 123.649 101.664 123.649 101.472V96.672C123.649 96.472 123.701 96.32 123.805 96.216C123.909 96.112 124.053 96.06 124.237 96.06C124.429 96.06 124.573 96.112 124.669 96.216C124.773 96.32 124.825 96.472 124.825 96.672V97.548H124.705C124.833 97.068 125.069 96.704 125.413 96.456C125.757 96.208 126.197 96.064 126.733 96.024C126.877 96.016 126.989 96.052 127.069 96.132C127.157 96.212 127.205 96.336 127.213 96.504C127.229 96.672 127.193 96.808 127.105 96.912C127.017 97.008 126.881 97.064 126.697 97.08L126.469 97.104C125.949 97.152 125.553 97.316 125.281 97.596C125.009 97.876 124.873 98.26 124.873 98.748V101.472C124.873 101.664 124.821 101.816 124.717 101.928C124.621 102.032 124.469 102.084 124.261 102.084ZM128.749 102.084C128.557 102.084 128.409 102.032 128.305 101.928C128.201 101.816 128.149 101.664 128.149 101.472V96.672C128.149 96.472 128.201 96.32 128.305 96.216C128.409 96.112 128.553 96.06 128.737 96.06C128.929 96.06 129.073 96.112 129.169 96.216C129.273 96.32 129.325 96.472 129.325 96.672V97.656L129.193 97.392C129.353 96.968 129.601 96.636 129.937 96.396C130.273 96.156 130.677 96.036 131.149 96.036C131.637 96.036 132.033 96.152 132.337 96.384C132.641 96.616 132.849 96.972 132.961 97.452H132.793C132.945 97.012 133.205 96.668 133.573 96.42C133.941 96.164 134.369 96.036 134.857 96.036C135.305 96.036 135.673 96.124 135.961 96.3C136.249 96.468 136.465 96.728 136.609 97.08C136.753 97.424 136.825 97.86 136.825 98.388V101.472C136.825 101.664 136.769 101.816 136.657 101.928C136.553 102.032 136.405 102.084 136.213 102.084C136.021 102.084 135.873 102.032 135.769 101.928C135.665 101.816 135.613 101.664 135.613 101.472V98.448C135.613 97.952 135.525 97.588 135.349 97.356C135.181 97.124 134.901 97.008 134.509 97.008C134.069 97.008 133.721 97.16 133.465 97.464C133.209 97.768 133.081 98.188 133.081 98.724V101.472C133.081 101.664 133.029 101.816 132.925 101.928C132.821 102.032 132.673 102.084 132.481 102.084C132.289 102.084 132.137 102.032 132.025 101.928C131.921 101.816 131.869 101.664 131.869 101.472V98.448C131.869 97.952 131.785 97.588 131.617 97.356C131.449 97.124 131.169 97.008 130.777 97.008C130.337 97.008 129.989 97.16 129.733 97.464C129.485 97.768 129.361 98.188 129.361 98.724V101.472C129.361 101.88 129.157 102.084 128.749 102.084Z" fill="white"/>
<path d="M43 16C43 7.16344 50.1634 0 59 0H102C110.837 0 118 7.16344 118 16V16C118 24.8366 110.837 32 102 32H59C50.1634 32 43 24.8366 43 16V16Z" fill="#64728C" fill-opacity="0.12"/>
<path d="M60.656 20C60.44 20 60.272 19.944 60.152 19.832C60.04 19.712 59.984 19.544 59.984 19.328V12.212C59.984 11.996 60.04 11.832 60.152 11.72C60.272 11.6 60.44 11.54 60.656 11.54H63.512C64.096 11.54 64.592 11.628 65 11.804C65.416 11.98 65.732 12.232 65.948 12.56C66.172 12.888 66.284 13.284 66.284 13.748C66.284 14.26 66.132 14.692 65.828 15.044C65.524 15.396 65.112 15.632 64.592 15.752V15.572C65.184 15.652 65.648 15.876 65.984 16.244C66.32 16.604 66.488 17.076 66.488 17.66C66.488 18.412 66.24 18.992 65.744 19.4C65.248 19.8 64.552 20 63.656 20H60.656ZM61.184 19.04H63.512C64.112 19.04 64.556 18.924 64.844 18.692C65.132 18.452 65.276 18.092 65.276 17.612C65.276 17.132 65.132 16.776 64.844 16.544C64.556 16.312 64.112 16.196 63.512 16.196H61.184V19.04ZM61.184 15.236H63.32C63.896 15.236 64.332 15.12 64.628 14.888C64.924 14.656 65.072 14.316 65.072 13.868C65.072 13.42 64.924 13.08 64.628 12.848C64.332 12.616 63.896 12.5 63.32 12.5H61.184V15.236ZM70.1197 20.108C69.6477 20.108 69.2517 20.02 68.9317 19.844C68.6197 19.668 68.3837 19.408 68.2237 19.064C68.0717 18.712 67.9957 18.272 67.9957 17.744V14.672C67.9957 14.464 68.0477 14.312 68.1517 14.216C68.2557 14.112 68.4037 14.06 68.5957 14.06C68.7877 14.06 68.9357 14.112 69.0397 14.216C69.1517 14.312 69.2077 14.464 69.2077 14.672V17.756C69.2077 18.228 69.3037 18.576 69.4957 18.8C69.6877 19.024 69.9917 19.136 70.4077 19.136C70.8637 19.136 71.2317 18.984 71.5117 18.68C71.7997 18.368 71.9437 17.96 71.9437 17.456V14.672C71.9437 14.464 71.9957 14.312 72.0997 14.216C72.2037 14.112 72.3557 14.06 72.5557 14.06C72.7477 14.06 72.8957 14.112 72.9997 14.216C73.1037 14.312 73.1557 14.464 73.1557 14.672V19.472C73.1557 19.88 72.9597 20.084 72.5677 20.084C72.3837 20.084 72.2397 20.032 72.1357 19.928C72.0317 19.816 71.9797 19.664 71.9797 19.472V18.452L72.1357 18.716C71.9757 19.164 71.7197 19.508 71.3677 19.748C71.0157 19.988 70.5997 20.108 70.1197 20.108ZM77.3597 20.108C76.8797 20.108 76.4757 20.024 76.1477 19.856C75.8197 19.688 75.5757 19.44 75.4157 19.112C75.2557 18.784 75.1757 18.384 75.1757 17.912V15.08H74.4557C74.2957 15.08 74.1717 15.04 74.0837 14.96C73.9957 14.872 73.9517 14.756 73.9517 14.612C73.9517 14.46 73.9957 14.344 74.0837 14.264C74.1717 14.184 74.2957 14.144 74.4557 14.144H75.1757V12.908C75.1757 12.708 75.2277 12.556 75.3317 12.452C75.4437 12.348 75.5957 12.296 75.7877 12.296C75.9797 12.296 76.1277 12.348 76.2317 12.452C76.3357 12.556 76.3877 12.708 76.3877 12.908V14.144H77.7917C77.9517 14.144 78.0757 14.184 78.1637 14.264C78.2517 14.344 78.2957 14.46 78.2957 14.612C78.2957 14.756 78.2517 14.872 78.1637 14.96C78.0757 15.04 77.9517 15.08 77.7917 15.08H76.3877V17.816C76.3877 18.24 76.4757 18.56 76.6517 18.776C76.8357 18.992 77.1317 19.1 77.5397 19.1C77.6837 19.1 77.8077 19.088 77.9117 19.064C78.0237 19.032 78.1157 19.012 78.1877 19.004C78.2757 19.004 78.3477 19.036 78.4037 19.1C78.4597 19.156 78.4877 19.268 78.4877 19.436C78.4877 19.556 78.4637 19.668 78.4157 19.772C78.3757 19.876 78.2997 19.944 78.1877 19.976C78.0917 20.008 77.9597 20.036 77.7917 20.06C77.6317 20.092 77.4877 20.108 77.3597 20.108ZM81.5082 20.108C81.0282 20.108 80.6242 20.024 80.2962 19.856C79.9682 19.688 79.7242 19.44 79.5642 19.112C79.4042 18.784 79.3242 18.384 79.3242 17.912V15.08H78.6042C78.4442 15.08 78.3202 15.04 78.2322 14.96C78.1442 14.872 78.1002 14.756 78.1002 14.612C78.1002 14.46 78.1442 14.344 78.2322 14.264C78.3202 14.184 78.4442 14.144 78.6042 14.144H79.3242V12.908C79.3242 12.708 79.3762 12.556 79.4802 12.452C79.5922 12.348 79.7442 12.296 79.9362 12.296C80.1282 12.296 80.2762 12.348 80.3802 12.452C80.4842 12.556 80.5362 12.708 80.5362 12.908V14.144H81.9402C82.1002 14.144 82.2242 14.184 82.3122 14.264C82.4002 14.344 82.4442 14.46 82.4442 14.612C82.4442 14.756 82.4002 14.872 82.3122 14.96C82.2242 15.04 82.1002 15.08 81.9402 15.08H80.5362V17.816C80.5362 18.24 80.6242 18.56 80.8002 18.776C80.9842 18.992 81.2802 19.1 81.6882 19.1C81.8322 19.1 81.9562 19.088 82.0602 19.064C82.1722 19.032 82.2642 19.012 82.3362 19.004C82.4242 19.004 82.4962 19.036 82.5522 19.1C82.6082 19.156 82.6362 19.268 82.6362 19.436C82.6362 19.556 82.6122 19.668 82.5642 19.772C82.5242 19.876 82.4482 19.944 82.3362 19.976C82.2402 20.008 82.1082 20.036 81.9402 20.06C81.7802 20.092 81.6362 20.108 81.5082 20.108ZM85.8804 20.108C85.2884 20.108 84.7764 19.984 84.3444 19.736C83.9204 19.488 83.5884 19.136 83.3484 18.68C83.1084 18.224 82.9884 17.688 82.9884 17.072C82.9884 16.6 83.0564 16.18 83.1924 15.812C83.3284 15.444 83.5204 15.128 83.7684 14.864C84.0244 14.592 84.3284 14.388 84.6804 14.252C85.0404 14.108 85.4404 14.036 85.8804 14.036C86.4644 14.036 86.9684 14.16 87.3924 14.408C87.8244 14.656 88.1604 15.008 88.4004 15.464C88.6404 15.912 88.7604 16.448 88.7604 17.072C88.7604 17.536 88.6924 17.956 88.5564 18.332C88.4204 18.708 88.2244 19.028 87.9684 19.292C87.7204 19.556 87.4164 19.76 87.0564 19.904C86.7044 20.04 86.3124 20.108 85.8804 20.108ZM85.8804 19.172C86.2084 19.172 86.4964 19.092 86.7444 18.932C86.9924 18.772 87.1844 18.536 87.3204 18.224C87.4644 17.912 87.5364 17.528 87.5364 17.072C87.5364 16.384 87.3844 15.864 87.0804 15.512C86.7764 15.16 86.3764 14.984 85.8804 14.984C85.5444 14.984 85.2524 15.064 85.0044 15.224C84.7564 15.376 84.5604 15.608 84.4164 15.92C84.2804 16.232 84.2124 16.616 84.2124 17.072C84.2124 17.752 84.3644 18.272 84.6684 18.632C84.9724 18.992 85.3764 19.172 85.8804 19.172ZM90.7215 20.084C90.5295 20.084 90.3815 20.032 90.2775 19.928C90.1735 19.816 90.1215 19.664 90.1215 19.472V14.672C90.1215 14.472 90.1735 14.32 90.2775 14.216C90.3815 14.112 90.5255 14.06 90.7095 14.06C90.9015 14.06 91.0455 14.112 91.1415 14.216C91.2455 14.32 91.2975 14.472 91.2975 14.672V15.608L91.1655 15.392C91.3415 14.944 91.6175 14.608 91.9935 14.384C92.3695 14.152 92.8015 14.036 93.2895 14.036C93.7535 14.036 94.1375 14.124 94.4415 14.3C94.7535 14.468 94.9855 14.728 95.1375 15.08C95.2895 15.424 95.3655 15.86 95.3655 16.388V19.472C95.3655 19.664 95.3135 19.816 95.2095 19.928C95.1055 20.032 94.9575 20.084 94.7655 20.084C94.5655 20.084 94.4135 20.032 94.3095 19.928C94.2055 19.816 94.1535 19.664 94.1535 19.472V16.46C94.1535 15.956 94.0535 15.588 93.8535 15.356C93.6615 15.124 93.3575 15.008 92.9415 15.008C92.4535 15.008 92.0615 15.16 91.7655 15.464C91.4775 15.768 91.3335 16.176 91.3335 16.688V19.472C91.3335 19.88 91.1295 20.084 90.7215 20.084ZM99.0876 20.108C98.7356 20.108 98.3716 20.068 97.9956 19.988C97.6276 19.908 97.2876 19.772 96.9756 19.58C96.8716 19.508 96.7996 19.428 96.7596 19.34C96.7196 19.252 96.7036 19.164 96.7116 19.076C96.7276 18.98 96.7636 18.9 96.8196 18.836C96.8836 18.764 96.9596 18.72 97.0476 18.704C97.1436 18.688 97.2436 18.708 97.3476 18.764C97.6596 18.94 97.9596 19.064 98.2476 19.136C98.5356 19.2 98.8196 19.232 99.0996 19.232C99.5236 19.232 99.8436 19.156 100.06 19.004C100.276 18.852 100.384 18.648 100.384 18.392C100.384 18.184 100.312 18.024 100.168 17.912C100.024 17.792 99.8076 17.7 99.5196 17.636L98.3796 17.408C97.8836 17.304 97.5076 17.12 97.2516 16.856C96.9956 16.592 96.8676 16.256 96.8676 15.848C96.8676 15.48 96.9676 15.16 97.1676 14.888C97.3676 14.616 97.6476 14.408 98.0076 14.264C98.3676 14.112 98.7836 14.036 99.2556 14.036C99.6076 14.036 99.9396 14.08 100.252 14.168C100.564 14.256 100.852 14.388 101.116 14.564C101.22 14.62 101.288 14.696 101.32 14.792C101.352 14.88 101.356 14.968 101.332 15.056C101.316 15.144 101.276 15.224 101.212 15.296C101.148 15.36 101.068 15.4 100.972 15.416C100.884 15.424 100.784 15.4 100.672 15.344C100.432 15.192 100.192 15.084 99.9516 15.02C99.7196 14.956 99.4876 14.924 99.2556 14.924C98.8316 14.924 98.5116 15.004 98.2956 15.164C98.0876 15.316 97.9836 15.524 97.9836 15.788C97.9836 15.988 98.0476 16.152 98.1756 16.28C98.3036 16.408 98.5036 16.5 98.7756 16.556L99.9156 16.784C100.436 16.888 100.828 17.064 101.092 17.312C101.364 17.56 101.5 17.896 101.5 18.32C101.5 18.872 101.28 19.308 100.84 19.628C100.4 19.948 99.8156 20.108 99.0876 20.108Z" fill="#64728C"/>
<rect y="2" width="30" height="30" rx="15" fill="#64728C" fill-opacity="0.15"/>
<path fill-rule="evenodd" clip-rule="evenodd" d="M17.4416 21.4283C18.0804 22.0611 19.1159 22.0611 19.7546 21.4283C20.3933 20.7955 20.3933 19.7695 19.7546 19.1367L17.4671 16.8704L19.7168 14.6415C20.3555 14.0087 20.3555 12.9827 19.7168 12.3499C19.0781 11.7172 18.0425 11.7172 17.4038 12.3499L15.1541 14.5788L12.8157 12.2621C12.177 11.6293 11.1415 11.6293 10.5027 12.2621C9.86404 12.8949 9.86404 13.9209 10.5027 14.5536L12.8411 16.8704L10.4649 19.2246C9.82619 19.8574 9.82619 20.8834 10.4649 21.5161C11.1036 22.1489 12.1392 22.1489 12.7779 21.5161L15.1541 19.1619L17.4416 21.4283Z" fill="#64728C"/>
<rect y="42" width="30" height="30" rx="15" fill="#006837" fill-opacity="0.15"/>
<path fill-rule="evenodd" clip-rule="evenodd" d="M14.9444 55.9441C16.4479 55.9441 17.6667 54.6135 17.6667 52.9721C17.6667 51.3306 16.4479 50 14.9444 50C13.441 50 12.2222 51.3306 12.2222 52.9721C12.2222 54.6135 13.441 55.9441 14.9444 55.9441ZM14.9444 54.7709C15.7995 54.7709 16.5556 54.0029 16.5556 52.9721C16.5556 51.9413 15.7995 51.1732 14.9444 51.1732C14.0894 51.1732 13.3333 51.9413 13.3333 52.9721C13.3333 54.0029 14.0894 54.7709 14.9444 54.7709Z" fill="#006837"/>
<path d="M15.0377 57.8161C14.2616 57.7068 13.6601 57.7233 12.7983 57.8181C11.6317 57.9464 10.6777 58.2955 10.0323 58.749C9.38153 59.2063 9.11106 59.714 9.11111 60.1699L9.11116 60.6755C9.11118 60.9997 9.36012 61.2626 9.66745 61.2626H14.4444C14.7513 61.2626 15 61.5252 15 61.8492C15 62.1731 14.7513 62.4358 14.4444 62.4358H9.66745C8.74687 62.4358 8.00012 61.648 8.00005 60.6756L8 60.17C7.99989 59.1774 8.59054 58.3529 9.41668 57.7724C10.2482 57.1881 11.3868 56.7938 12.6832 56.6512C13.5991 56.5505 14.2939 56.5278 15.1845 56.6532C15.4887 56.696 15.7023 56.991 15.6618 57.3122C15.6212 57.6333 15.3418 57.8589 15.0377 57.8161Z" fill="#006837"/>
<path d="M18.5926 58.4078C18.4085 58.4078 18.2593 58.5654 18.2593 58.7598V60.7542C18.2593 60.8985 18.3415 61.0225 18.4592 61.0768L19.2647 61.5679C19.4241 61.6651 19.628 61.6074 19.7201 61.4391C19.8121 61.2707 19.7575 61.0555 19.598 60.9583L18.9259 60.5485V58.7598C18.9259 58.5654 18.7767 58.4078 18.5926 58.4078Z" fill="#006837"/>
<path fill-rule="evenodd" clip-rule="evenodd" d="M22 60.4609C22 62.4155 20.4993 64 18.6481 64C16.797 64 15.2963 62.4155 15.2963 60.4609C15.2963 58.5063 16.797 56.9218 18.6481 56.9218C20.4993 56.9218 22 58.5063 22 60.4609ZM21.0741 60.4609C21.0741 61.8755 19.988 63.0223 18.6481 63.0223C17.3083 63.0223 16.2222 61.8755 16.2222 60.4609C16.2222 59.0462 17.3083 57.8994 18.6481 57.8994C19.988 57.8994 21.0741 59.0462 21.0741 60.4609Z" fill="#006837"/>
<rect y="82" width="30" height="30" rx="15" fill="#76BC21" fill-opacity="0.15"/>
<path fill-rule="evenodd" clip-rule="evenodd" d="M18.311 93.2281C18.311 95.0109 17.011 96.4562 15.4073 96.4562C13.8037 96.4562 12.5037 95.0109 12.5037 93.2281C12.5037 91.4453 13.8037 90 15.4073 90C17.011 90 18.311 91.4453 18.311 93.2281ZM17.1258 93.2281C17.1258 94.3477 16.3194 95.1819 15.4073 95.1819C14.4953 95.1819 13.6888 94.3477 13.6888 93.2281C13.6888 92.1085 14.4953 91.2742 15.4073 91.2742C16.3194 91.2742 17.1258 92.1085 17.1258 93.2281Z" fill="#76BC21"/>
<path d="M13.1181 98.4916C14.0374 98.3886 14.953 98.4038 15.5654 98.4916C15.7239 98.5143 16.3597 98.7533 16.7505 98.7923C17.1592 98.8332 17.3088 98.4916 17.3629 98.3463C17.4169 98.2011 17.3629 97.8258 17.1258 97.6667C16.8295 97.4679 15.7249 97.2471 15.5654 97.2242C14.6154 97.088 13.9723 97.1148 12.9953 97.2242C11.6125 97.379 10.398 97.8073 9.51111 98.4419C8.6299 99.0725 7.99989 99.968 8 101.046L8.00005 101.595C8.00012 102.651 8.79665 103.507 9.7786 103.507H13.7876C14.1149 103.507 14.3999 103.243 14.3999 102.891C14.3999 102.539 14.1149 102.233 13.7876 102.233H9.7786C9.45078 102.233 9.18525 101.947 9.18522 101.595L9.18517 101.046C9.18512 100.551 9.47361 99.9994 10.1677 99.5027C10.8561 99.0101 11.8738 98.6309 13.1181 98.4916Z" fill="#76BC21"/>
<path d="M16.6275 103.716C16.2915 103.354 16.2915 102.767 16.6275 102.405L20.5313 98.1977C20.8673 97.8355 21.412 97.8355 21.748 98.1977C22.084 98.5598 22.084 99.1469 21.748 99.5091L17.8443 103.716C17.5083 104.079 16.9635 104.079 16.6275 103.716Z" fill="#76BC21"/>
<path d="M14.9039 100.559C15.2399 100.196 15.7847 100.196 16.1207 100.559L17.845 102.417C18.181 102.779 18.181 103.366 17.845 103.728C17.509 104.091 16.9642 104.091 16.6282 103.728L14.9039 101.87C14.5679 101.508 14.5679 100.921 14.9039 100.559Z" fill="#76BC21"/>
<rect y="122" width="30" height="30" rx="15" fill="#FFAA00" fill-opacity="0.15"/>
<path fill-rule="evenodd" clip-rule="evenodd" d="M18.0661 133.031C18.0661 134.706 16.797 136.063 15.2314 136.063C13.6658 136.063 12.3967 134.706 12.3967 133.031C12.3967 131.357 13.6658 130 15.2314 130C16.797 130 18.0661 131.357 18.0661 133.031ZM16.9091 133.031C16.9091 134.083 16.1218 134.866 15.2314 134.866C14.341 134.866 13.5537 134.083 13.5537 133.031C13.5537 131.98 14.341 131.197 15.2314 131.197C16.1218 131.197 16.9091 131.98 16.9091 133.031Z" fill="#FFAA00"/>
<path d="M12.9966 137.974C13.894 137.877 14.5204 137.861 15.3285 137.972C15.6452 138.016 15.9362 137.786 15.9784 137.458C16.0206 137.13 15.7981 136.83 15.4814 136.786C14.554 136.658 13.8305 136.681 12.8767 136.784C11.5267 136.929 10.3411 137.331 9.47522 137.927C8.61494 138.519 7.99989 139.36 8 140.373L8.00005 140.889C8.00012 141.88 8.77773 142.684 9.73636 142.684H14.7107C15.0302 142.684 15.2893 142.416 15.2893 142.085C15.2893 141.755 15.0302 141.487 14.7107 141.487H9.73636C9.41633 141.487 9.1571 141.219 9.15707 140.888L9.15702 140.373C9.15697 139.908 9.43862 139.39 10.1163 138.924C10.7883 138.461 11.7818 138.105 12.9966 137.974Z" fill="#FFAA00"/>
<path d="M21.9683 142.239C21.946 142.197 21.9132 142.162 21.8733 142.138L21.5877 141.961C21.4761 141.892 21.3839 141.794 21.3198 141.677C21.2558 141.56 21.2221 141.428 21.2222 141.294V139.698C21.2219 139.235 21.0764 138.785 20.8076 138.415C20.5387 138.044 20.1609 137.774 19.7308 137.644C19.7121 137.638 19.6958 137.627 19.684 137.611C19.6723 137.595 19.6659 137.576 19.6657 137.556C19.6657 137.413 19.6111 137.277 19.5138 137.177C19.4165 137.076 19.2845 137.02 19.147 137.02C19.0094 137.02 18.8774 137.076 18.7801 137.177C18.6828 137.277 18.6282 137.413 18.6282 137.556C18.628 137.576 18.6216 137.595 18.6098 137.611C18.5981 137.627 18.5818 137.638 18.5632 137.644C18.133 137.774 17.7552 138.044 17.4863 138.415C17.2175 138.785 17.072 139.235 17.0718 139.698V141.293C17.0718 141.428 17.0381 141.56 16.9741 141.677C16.91 141.794 16.8178 141.891 16.7063 141.961L16.4206 142.138C16.3712 142.168 16.3329 142.214 16.3113 142.269C16.2897 142.324 16.2861 142.385 16.3011 142.442C16.316 142.5 16.3486 142.55 16.394 142.587C16.4394 142.623 16.495 142.643 16.5525 142.644H21.7406C21.7861 142.643 21.8306 142.63 21.8697 142.606C21.9089 142.582 21.9414 142.548 21.9642 142.507C21.987 142.467 21.9993 142.421 22 142.374C22.0006 142.327 21.9896 142.28 21.9679 142.239L21.9683 142.239Z" fill="#FFAA00"/>
<path d="M18.5525 143.759C18.7075 143.876 18.8857 143.953 19.0733 143.984C19.2608 144.016 19.4526 144 19.6335 143.938C19.8143 143.876 19.9794 143.771 20.1156 143.629C20.2519 143.488 20.3556 143.314 20.4187 143.123H18.1047C18.1892 143.379 18.3456 143.601 18.5525 143.759Z" fill="#FFAA00"/>
<rect y="162" width="30" height="30" rx="15" fill="#FF7B1D" fill-opacity="0.15"/>
<path d="M19.2233 179.569L19.8896 180.005C20.072 180.124 20.2816 180.181 20.4916 180.168C20.7016 180.155 20.9024 180.073 21.0681 179.933L21.6118 179.473C21.8147 179.301 21.9493 179.049 21.9883 178.769C22.0273 178.488 21.9678 178.2 21.8218 177.964C21.2844 177.092 20.2712 176.621 19.3814 177.164C18.7962 177.521 18.0895 178.067 17.405 178.886C16.8279 179.573 16.3506 180.355 15.9898 181.205C15.5601 182.225 16.0506 183.316 16.8797 183.848C17.102 183.99 17.3638 184.035 17.6119 183.972C17.8599 183.91 18.0755 183.744 18.2146 183.511L18.5953 182.871C18.7101 182.678 18.7695 182.45 18.7659 182.218C18.7623 181.986 18.6959 181.758 18.5751 181.566L18.134 180.863C18.1532 180.824 18.1764 180.779 18.2036 180.728C18.3173 180.516 18.4504 180.318 18.6009 180.136C18.754 179.957 18.9236 179.796 19.1068 179.656C19.1451 179.626 19.1839 179.597 19.2233 179.569Z" fill="#FF8A00"/>
<path fill-rule="evenodd" clip-rule="evenodd" d="M17.801 173.078C17.801 174.778 16.5653 176.156 15.0409 176.156C13.5166 176.156 12.2809 174.778 12.2809 173.078C12.2809 171.378 13.5166 170 15.0409 170C16.5653 170 17.801 171.378 17.801 173.078ZM16.6744 173.078C16.6744 174.145 15.9079 174.941 15.0409 174.941C14.174 174.941 13.4074 174.145 13.4074 173.078C13.4074 172.01 14.174 171.215 15.0409 171.215C15.9079 171.215 16.6744 172.01 16.6744 173.078Z" fill="#FF8A00"/>
<path d="M12.865 178.097C13.7388 177.998 14.6091 178.013 15.1912 178.097C15.3419 178.118 15.9462 178.346 16.3177 178.383C16.7062 178.422 16.8484 178.097 16.8998 177.958C16.9511 177.82 16.8998 177.462 16.6744 177.31C16.3928 177.121 15.3428 176.91 15.1912 176.888C14.2882 176.758 13.6769 176.784 12.7483 176.888C11.4339 177.036 10.2794 177.444 9.43636 178.049C8.59875 178.651 7.99989 179.504 8 180.532L8.00005 181.056C8.00012 182.063 8.75725 182.879 9.69062 182.879H14.534C14.8451 182.879 15.0973 182.607 15.0973 182.271C15.0973 181.936 14.8451 181.664 14.534 181.664H9.69062C9.37902 181.664 9.12662 181.392 9.1266 181.056L9.12655 180.532C9.1265 180.06 9.40073 179.534 10.0605 179.061C10.7149 178.591 11.6822 178.23 12.865 178.097Z" fill="#FF8A00"/>
<rect y="202" width="31" height="30" rx="15" fill="#FE5000" fill-opacity="0.15"/>
<path fill-rule="evenodd" clip-rule="evenodd" d="M17.4214 212.93C17.4214 214.548 16.2336 215.86 14.7683 215.86C13.303 215.86 12.1151 214.548 12.1151 212.93C12.1151 211.312 13.303 210 14.7683 210C16.2336 210 17.4214 211.312 17.4214 212.93ZM16.3385 212.93C16.3385 213.946 15.6016 214.703 14.7683 214.703C13.9349 214.703 13.198 213.946 13.198 212.93C13.198 211.914 13.9349 211.157 14.7683 211.157C15.6016 211.157 16.3385 211.914 16.3385 212.93Z" fill="#FE5000"/>
<path d="M12.6766 217.707C13.5166 217.614 14.1028 217.598 14.8592 217.705C15.1556 217.747 15.4279 217.525 15.4674 217.209C15.5069 216.892 15.2987 216.601 15.0023 216.559C14.1342 216.435 13.4571 216.458 12.5644 216.557C11.3009 216.697 10.1911 217.086 9.38074 217.662C8.57556 218.234 7.9999 219.047 8 220.026L8.00004 220.524C8.00011 221.483 8.72792 222.259 9.62515 222.259H14.281C14.58 222.259 14.8224 222.001 14.8224 221.681C14.8224 221.362 14.58 221.103 14.281 221.103H9.62515C9.32562 221.103 9.08299 220.844 9.08297 220.524L9.08292 220.026C9.08288 219.576 9.34648 219.076 9.98072 218.625C10.6097 218.178 11.5396 217.834 12.6766 217.707Z" fill="#FE5000"/>
<path d="M14.5893 219.421L16.4426 220.996L15.8662 223.364C15.753 223.805 16.2392 224.168 16.6346 223.919L18.7029 222.638L20.7711 223.918C21.1555 224.156 21.6413 223.805 21.5396 223.363L20.9631 220.996L22.8167 219.421C23.1668 219.127 22.9861 218.549 22.5228 218.515L20.0928 218.333L19.1775 216.079C19.008 215.66 18.409 215.66 18.228 216.079L17.3126 218.334L14.8827 218.515C14.4197 218.56 14.2388 219.127 14.5893 219.421Z" fill="#FE5000"/>
<defs>
<linearGradient id="paint0_linear_1073_8685" x1="102.353" y1="42" x2="102.353" y2="74" gradientUnits="userSpaceOnUse">
<stop stop-color="#006837" stop-opacity="0.75"/>
<stop offset="1" stop-color="#01592F"/>
</linearGradient>
<linearGradient id="paint1_linear_1073_8685" x1="122.138" y1="124" x2="122.138" y2="156" gradientUnits="userSpaceOnUse">
<stop stop-color="#FFAA00" stop-opacity="0.75"/>
<stop offset="1" stop-color="#E89B01"/>
</linearGradient>
<linearGradient id="paint2_linear_1073_8685" x1="98.2802" y1="163" x2="98.2802" y2="195" gradientUnits="userSpaceOnUse">
<stop stop-color="#FF7B1D" stop-opacity="0.75"/>
<stop offset="1" stop-color="#EB711A"/>
</linearGradient>
<linearGradient id="paint3_linear_1073_8685" x1="71.931" y1="202" x2="71.931" y2="234" gradientUnits="userSpaceOnUse">
<stop stop-color="#FE5000" stop-opacity="0.74"/>
<stop offset="1" stop-color="#E74A02"/>
</linearGradient>
<linearGradient id="paint4_linear_1073_8685" x1="108.009" y1="82" x2="108.009" y2="114" gradientUnits="userSpaceOnUse">
<stop stop-color="#76BC21" stop-opacity="0.75"/>
<stop offset="1" stop-color="#6EAF20"/>
</linearGradient>
</defs>
</svg>
