<svg width="308" height="312" viewBox="0 0 308 312" fill="none" xmlns="http://www.w3.org/2000/svg">
<g filter="url(#filter0_d_553_3579)">
<g clip-path="url(#clip0_553_3579)">
<rect x="4" y="72" width="300" height="232" rx="14" fill="#E8EAEF"/>
<g filter="url(#filter1_d_553_3579)">
<rect x="4" y="72" width="300" height="228" rx="14" fill="white"/>
<rect x="4.5" y="72.5" width="299" height="227" rx="13.5" stroke="url(#paint0_linear_553_3579)"/>
<rect x="12" y="80" width="284" height="32" rx="10" fill="#F6F7F9"/>
<path d="M24.74 100.108C23.9 100.108 23.18 99.932 22.58 99.58C21.98 99.228 21.516 98.728 21.188 98.08C20.868 97.424 20.708 96.652 20.708 95.764C20.708 95.1 20.8 94.504 20.984 93.976C21.168 93.44 21.432 92.984 21.776 92.608C22.12 92.224 22.54 91.932 23.036 91.732C23.54 91.532 24.108 91.432 24.74 91.432C25.22 91.432 25.68 91.5 26.12 91.636C26.568 91.772 26.952 91.964 27.272 92.212C27.4 92.3 27.484 92.4 27.524 92.512C27.564 92.624 27.568 92.732 27.536 92.836C27.512 92.932 27.46 93.016 27.38 93.088C27.308 93.152 27.216 93.188 27.104 93.196C26.992 93.196 26.872 93.152 26.744 93.064C26.464 92.848 26.156 92.692 25.82 92.596C25.492 92.492 25.14 92.44 24.764 92.44C24.148 92.44 23.624 92.572 23.192 92.836C22.768 93.092 22.444 93.468 22.22 93.964C22.004 94.452 21.896 95.052 21.896 95.764C21.896 96.468 22.004 97.072 22.22 97.576C22.444 98.072 22.768 98.452 23.192 98.716C23.624 98.972 24.148 99.1 24.764 99.1C25.14 99.1 25.496 99.048 25.832 98.944C26.176 98.84 26.492 98.68 26.78 98.464C26.908 98.376 27.024 98.336 27.128 98.344C27.24 98.352 27.332 98.388 27.404 98.452C27.476 98.508 27.524 98.588 27.548 98.692C27.58 98.788 27.58 98.888 27.548 98.992C27.516 99.096 27.444 99.188 27.332 99.268C27.004 99.548 26.612 99.76 26.156 99.904C25.708 100.04 25.236 100.108 24.74 100.108ZM31.0358 100.108C30.4598 100.108 29.9598 99.984 29.5358 99.736C29.1118 99.488 28.7838 99.136 28.5518 98.68C28.3198 98.224 28.2038 97.688 28.2038 97.072C28.2038 96.608 28.2678 96.192 28.3958 95.824C28.5318 95.448 28.7238 95.128 28.9718 94.864C29.2198 94.6 29.5158 94.4 29.8598 94.264C30.2118 94.12 30.6038 94.048 31.0358 94.048C31.6118 94.048 32.1118 94.172 32.5358 94.42C32.9598 94.668 33.2878 95.02 33.5198 95.476C33.7518 95.924 33.8678 96.456 33.8678 97.072C33.8678 97.536 33.7998 97.956 33.6638 98.332C33.5358 98.708 33.3478 99.028 33.0998 99.292C32.8518 99.556 32.5518 99.76 32.1998 99.904C31.8558 100.04 31.4678 100.108 31.0358 100.108ZM31.0358 99.244C31.3878 99.244 31.6918 99.16 31.9478 98.992C32.2118 98.824 32.4118 98.58 32.5478 98.26C32.6918 97.94 32.7638 97.544 32.7638 97.072C32.7638 96.368 32.6078 95.832 32.2958 95.464C31.9838 95.096 31.5638 94.912 31.0358 94.912C30.6918 94.912 30.3878 94.996 30.1238 95.164C29.8678 95.324 29.6678 95.564 29.5238 95.884C29.3798 96.204 29.3078 96.6 29.3078 97.072C29.3078 97.776 29.4638 98.316 29.7758 98.692C30.0958 99.06 30.5158 99.244 31.0358 99.244ZM35.8066 100.084C35.6386 100.084 35.5066 100.036 35.4106 99.94C35.3146 99.844 35.2666 99.704 35.2666 99.52V94.624C35.2666 94.44 35.3146 94.304 35.4106 94.216C35.5066 94.12 35.6386 94.072 35.8066 94.072C35.9746 94.072 36.1026 94.12 36.1906 94.216C36.2866 94.304 36.3346 94.44 36.3346 94.624V95.608L36.2026 95.428C36.3706 94.972 36.6426 94.628 37.0186 94.396C37.4026 94.164 37.8386 94.048 38.3266 94.048C38.7986 94.048 39.1866 94.132 39.4906 94.3C39.7946 94.468 40.0226 94.724 40.1746 95.068C40.3266 95.412 40.4026 95.848 40.4026 96.376V99.52C40.4026 99.704 40.3546 99.844 40.2586 99.94C40.1706 100.036 40.0386 100.084 39.8626 100.084C39.6866 100.084 39.5506 100.036 39.4546 99.94C39.3586 99.844 39.3106 99.704 39.3106 99.52V96.436C39.3106 95.916 39.2106 95.536 39.0106 95.296C38.8106 95.056 38.4906 94.936 38.0506 94.936C37.5386 94.936 37.1266 95.096 36.8146 95.416C36.5106 95.728 36.3586 96.152 36.3586 96.688V99.52C36.3586 99.896 36.1746 100.084 35.8066 100.084ZM44.5578 100.108C44.0858 100.108 43.6898 100.024 43.3698 99.856C43.0578 99.688 42.8218 99.444 42.6618 99.124C42.5098 98.804 42.4338 98.412 42.4338 97.948V94.996H41.6658C41.5218 94.996 41.4098 94.96 41.3298 94.888C41.2498 94.808 41.2098 94.704 41.2098 94.576C41.2098 94.44 41.2498 94.336 41.3298 94.264C41.4098 94.192 41.5218 94.156 41.6658 94.156H42.4338V92.848C42.4338 92.664 42.4818 92.528 42.5778 92.44C42.6738 92.344 42.8098 92.296 42.9858 92.296C43.1618 92.296 43.2938 92.344 43.3818 92.44C43.4778 92.528 43.5258 92.664 43.5258 92.848V94.156H44.9778C45.1298 94.156 45.2458 94.192 45.3258 94.264C45.4058 94.336 45.4458 94.44 45.4458 94.576C45.4458 94.704 45.4058 94.808 45.3258 94.888C45.2458 94.96 45.1298 94.996 44.9778 94.996H43.5258V97.852C43.5258 98.292 43.6178 98.624 43.8018 98.848C43.9858 99.072 44.2898 99.184 44.7138 99.184C44.8658 99.184 44.9938 99.172 45.0978 99.148C45.2018 99.116 45.2938 99.1 45.3738 99.1C45.4458 99.092 45.5058 99.116 45.5538 99.172C45.6098 99.228 45.6378 99.332 45.6378 99.484C45.6378 99.596 45.6178 99.7 45.5778 99.796C45.5458 99.884 45.4778 99.944 45.3738 99.976C45.2778 100.008 45.1498 100.036 44.9898 100.06C44.8298 100.092 44.6858 100.108 44.5578 100.108ZM48.2946 100.108C47.8946 100.108 47.5306 100.028 47.2026 99.868C46.8826 99.708 46.6306 99.492 46.4466 99.22C46.2706 98.948 46.1826 98.644 46.1826 98.308C46.1826 97.876 46.2906 97.536 46.5066 97.288C46.7226 97.04 47.0866 96.864 47.5986 96.76C48.1106 96.648 48.7986 96.592 49.6626 96.592H50.2266V97.288H49.6866C49.0706 97.288 48.5826 97.316 48.2226 97.372C47.8706 97.428 47.6226 97.528 47.4786 97.672C47.3346 97.808 47.2626 98 47.2626 98.248C47.2626 98.56 47.3706 98.816 47.5866 99.016C47.8106 99.216 48.1146 99.316 48.4986 99.316C48.8026 99.316 49.0706 99.244 49.3026 99.1C49.5346 98.948 49.7186 98.748 49.8546 98.5C49.9906 98.244 50.0586 97.952 50.0586 97.624V96.244C50.0586 95.772 49.9626 95.432 49.7706 95.224C49.5786 95.008 49.2546 94.9 48.7986 94.9C48.5346 94.9 48.2626 94.936 47.9826 95.008C47.7026 95.08 47.4106 95.192 47.1066 95.344C46.9866 95.4 46.8826 95.42 46.7946 95.404C46.7066 95.38 46.6346 95.332 46.5786 95.26C46.5306 95.18 46.5026 95.096 46.4946 95.008C46.4946 94.912 46.5146 94.82 46.5546 94.732C46.6026 94.644 46.6826 94.58 46.7946 94.54C47.1466 94.364 47.4946 94.24 47.8386 94.168C48.1906 94.088 48.5186 94.048 48.8226 94.048C49.3426 94.048 49.7706 94.132 50.1066 94.3C50.4426 94.46 50.6946 94.712 50.8626 95.056C51.0306 95.392 51.1146 95.824 51.1146 96.352V99.52C51.1146 99.704 51.0706 99.844 50.9826 99.94C50.8946 100.036 50.7666 100.084 50.5986 100.084C50.4386 100.084 50.3106 100.036 50.2146 99.94C50.1266 99.844 50.0826 99.704 50.0826 99.52V98.668H50.1906C50.1266 98.964 50.0066 99.22 49.8306 99.436C49.6546 99.652 49.4346 99.82 49.1706 99.94C48.9146 100.052 48.6226 100.108 48.2946 100.108ZM55.365 100.108C54.773 100.108 54.261 99.984 53.829 99.736C53.397 99.48 53.065 99.124 52.833 98.668C52.601 98.204 52.485 97.66 52.485 97.036C52.485 96.572 52.549 96.156 52.677 95.788C52.813 95.42 53.005 95.108 53.253 94.852C53.501 94.588 53.801 94.388 54.153 94.252C54.513 94.116 54.917 94.048 55.365 94.048C55.645 94.048 55.941 94.092 56.253 94.18C56.565 94.268 56.853 94.412 57.117 94.612C57.205 94.676 57.261 94.752 57.285 94.84C57.309 94.92 57.309 95.004 57.285 95.092C57.269 95.18 57.229 95.256 57.165 95.32C57.109 95.376 57.033 95.408 56.937 95.416C56.849 95.424 56.753 95.396 56.649 95.332C56.457 95.188 56.253 95.084 56.037 95.02C55.829 94.956 55.629 94.924 55.437 94.924C55.141 94.924 54.877 94.972 54.645 95.068C54.421 95.164 54.229 95.304 54.069 95.488C53.917 95.664 53.801 95.884 53.721 96.148C53.641 96.404 53.601 96.704 53.601 97.048C53.601 97.728 53.761 98.264 54.081 98.656C54.401 99.04 54.853 99.232 55.437 99.232C55.629 99.232 55.829 99.204 56.037 99.148C56.245 99.084 56.449 98.98 56.649 98.836C56.753 98.772 56.849 98.748 56.937 98.764C57.025 98.772 57.097 98.808 57.153 98.872C57.217 98.928 57.257 99 57.273 99.088C57.289 99.168 57.281 99.252 57.249 99.34C57.225 99.428 57.169 99.5 57.081 99.556C56.825 99.748 56.545 99.888 56.241 99.976C55.937 100.064 55.645 100.108 55.365 100.108ZM60.8469 100.108C60.3749 100.108 59.9789 100.024 59.6589 99.856C59.3469 99.688 59.1109 99.444 58.9509 99.124C58.7989 98.804 58.7229 98.412 58.7229 97.948V94.996H57.9549C57.8109 94.996 57.6989 94.96 57.6189 94.888C57.5389 94.808 57.4989 94.704 57.4989 94.576C57.4989 94.44 57.5389 94.336 57.6189 94.264C57.6989 94.192 57.8109 94.156 57.9549 94.156H58.7229V92.848C58.7229 92.664 58.7709 92.528 58.8669 92.44C58.9629 92.344 59.0989 92.296 59.2749 92.296C59.4509 92.296 59.5829 92.344 59.6709 92.44C59.7669 92.528 59.8149 92.664 59.8149 92.848V94.156H61.2669C61.4189 94.156 61.5349 94.192 61.6149 94.264C61.6949 94.336 61.7349 94.44 61.7349 94.576C61.7349 94.704 61.6949 94.808 61.6149 94.888C61.5349 94.96 61.4189 94.996 61.2669 94.996H59.8149V97.852C59.8149 98.292 59.9069 98.624 60.0909 98.848C60.2749 99.072 60.5789 99.184 61.0029 99.184C61.1549 99.184 61.2829 99.172 61.3869 99.148C61.4909 99.116 61.5829 99.1 61.6629 99.1C61.7349 99.092 61.7949 99.116 61.8429 99.172C61.8989 99.228 61.9269 99.332 61.9269 99.484C61.9269 99.596 61.9069 99.7 61.8669 99.796C61.8349 99.884 61.7669 99.944 61.6629 99.976C61.5669 100.008 61.4389 100.036 61.2789 100.06C61.1189 100.092 60.9749 100.108 60.8469 100.108ZM66.5126 100.084C66.3526 100.084 66.2246 100.036 66.1286 99.94C66.0406 99.844 65.9966 99.712 65.9966 99.544V92.02C65.9966 91.836 66.0406 91.696 66.1286 91.6C66.2166 91.504 66.3326 91.456 66.4766 91.456C66.6126 91.456 66.7166 91.48 66.7886 91.528C66.8606 91.576 66.9406 91.66 67.0286 91.78L72.1166 98.524H71.8166V91.996C71.8166 91.82 71.8606 91.688 71.9486 91.6C72.0446 91.504 72.1766 91.456 72.3446 91.456C72.5126 91.456 72.6406 91.504 72.7286 91.6C72.8166 91.688 72.8606 91.82 72.8606 91.996V99.544C72.8606 99.712 72.8166 99.844 72.7286 99.94C72.6486 100.036 72.5406 100.084 72.4046 100.084C72.2766 100.084 72.1686 100.056 72.0806 100C72.0006 99.952 71.9166 99.868 71.8286 99.748L66.7526 93.004H67.0286V99.544C67.0286 99.712 66.9846 99.844 66.8966 99.94C66.8086 100.036 66.6806 100.084 66.5126 100.084ZM76.8351 100.108C76.3631 100.108 75.9671 100.02 75.6471 99.844C75.3351 99.668 75.1031 99.408 74.9511 99.064C74.7991 98.72 74.7231 98.288 74.7231 97.768V94.624C74.7231 94.44 74.7671 94.304 74.8551 94.216C74.9511 94.12 75.0871 94.072 75.2631 94.072C75.4391 94.072 75.5751 94.12 75.6711 94.216C75.7671 94.304 75.8151 94.44 75.8151 94.624V97.768C75.8151 98.264 75.9151 98.632 76.1151 98.872C76.3151 99.104 76.6311 99.22 77.0631 99.22C77.5431 99.22 77.9311 99.06 78.2271 98.74C78.5311 98.42 78.6831 97.996 78.6831 97.468V94.624C78.6831 94.44 78.7271 94.304 78.8151 94.216C78.9111 94.12 79.0471 94.072 79.2231 94.072C79.3991 94.072 79.5351 94.12 79.6311 94.216C79.7271 94.304 79.7751 94.44 79.7751 94.624V99.52C79.7751 99.896 79.5991 100.084 79.2471 100.084C79.0711 100.084 78.9351 100.036 78.8391 99.94C78.7511 99.844 78.7071 99.704 78.7071 99.52V98.476L78.8631 98.68C78.7031 99.144 78.4431 99.5 78.0831 99.748C77.7311 99.988 77.3151 100.108 76.8351 100.108ZM82.0963 100.084C81.9283 100.084 81.7963 100.036 81.7003 99.94C81.6043 99.844 81.5563 99.704 81.5563 99.52V94.624C81.5563 94.44 81.6043 94.304 81.7003 94.216C81.7963 94.12 81.9283 94.072 82.0963 94.072C82.2643 94.072 82.3923 94.12 82.4803 94.216C82.5763 94.304 82.6243 94.44 82.6243 94.624V95.644L82.4923 95.428C82.6443 94.988 82.8883 94.648 83.2243 94.408C83.5683 94.168 83.9763 94.048 84.4483 94.048C84.9443 94.048 85.3443 94.168 85.6483 94.408C85.9523 94.64 86.1563 94.996 86.2603 95.476H86.0923C86.2363 95.036 86.4923 94.688 86.8603 94.432C87.2363 94.176 87.6723 94.048 88.1683 94.048C88.6083 94.048 88.9683 94.136 89.2483 94.312C89.5363 94.48 89.7523 94.736 89.8963 95.08C90.0403 95.416 90.1123 95.848 90.1123 96.376V99.52C90.1123 99.704 90.0643 99.844 89.9683 99.94C89.8723 100.036 89.7403 100.084 89.5723 100.084C89.3963 100.084 89.2603 100.036 89.1643 99.94C89.0683 99.844 89.0203 99.704 89.0203 99.52V96.424C89.0203 95.912 88.9323 95.536 88.7563 95.296C88.5803 95.056 88.2843 94.936 87.8683 94.936C87.4123 94.936 87.0483 95.096 86.7763 95.416C86.5123 95.728 86.3803 96.16 86.3803 96.712V99.52C86.3803 99.704 86.3323 99.844 86.2363 99.94C86.1483 100.036 86.0163 100.084 85.8403 100.084C85.6643 100.084 85.5283 100.036 85.4323 99.94C85.3363 99.844 85.2883 99.704 85.2883 99.52V96.424C85.2883 95.912 85.2003 95.536 85.0243 95.296C84.8483 95.056 84.5523 94.936 84.1363 94.936C83.6803 94.936 83.3163 95.096 83.0443 95.416C82.7803 95.728 82.6483 96.16 82.6483 96.712V99.52C82.6483 99.896 82.4643 100.084 82.0963 100.084ZM94.9282 100.108C94.4002 100.108 93.9482 99.976 93.5722 99.712C93.1962 99.448 92.9442 99.092 92.8162 98.644L92.9482 98.464V99.52C92.9482 99.704 92.9002 99.844 92.8042 99.94C92.7162 100.036 92.5842 100.084 92.4082 100.084C92.2402 100.084 92.1082 100.036 92.0122 99.94C91.9162 99.844 91.8682 99.704 91.8682 99.52V92.008C91.8682 91.824 91.9162 91.688 92.0122 91.6C92.1082 91.504 92.2402 91.456 92.4082 91.456C92.5842 91.456 92.7202 91.504 92.8162 91.6C92.9122 91.688 92.9602 91.824 92.9602 92.008V95.476H92.8282C92.9562 95.044 93.2082 94.7 93.5842 94.444C93.9602 94.18 94.4082 94.048 94.9282 94.048C95.4482 94.048 95.9002 94.172 96.2842 94.42C96.6762 94.66 96.9762 95.008 97.1842 95.464C97.4002 95.912 97.5082 96.448 97.5082 97.072C97.5082 97.688 97.4002 98.228 97.1842 98.692C96.9682 99.148 96.6682 99.5 96.2842 99.748C95.9002 99.988 95.4482 100.108 94.9282 100.108ZM94.6762 99.244C95.0202 99.244 95.3202 99.16 95.5762 98.992C95.8402 98.824 96.0442 98.58 96.1882 98.26C96.3322 97.94 96.4042 97.544 96.4042 97.072C96.4042 96.368 96.2482 95.832 95.9362 95.464C95.6242 95.096 95.2042 94.912 94.6762 94.912C94.3242 94.912 94.0162 94.996 93.7522 95.164C93.4962 95.324 93.2962 95.564 93.1522 95.884C93.0162 96.204 92.9482 96.6 92.9482 97.072C92.9482 97.776 93.1042 98.316 93.4162 98.692C93.7282 99.06 94.1482 99.244 94.6762 99.244ZM101.611 100.108C100.979 100.108 100.435 99.988 99.9792 99.748C99.5312 99.5 99.1832 99.152 98.9352 98.704C98.6872 98.248 98.5632 97.712 98.5632 97.096C98.5632 96.488 98.6832 95.956 98.9232 95.5C99.1712 95.044 99.5072 94.688 99.9312 94.432C100.363 94.176 100.855 94.048 101.407 94.048C101.799 94.048 102.151 94.116 102.463 94.252C102.783 94.38 103.055 94.568 103.279 94.816C103.503 95.064 103.671 95.368 103.783 95.728C103.903 96.08 103.963 96.48 103.963 96.928C103.963 97.056 103.923 97.156 103.843 97.228C103.771 97.292 103.663 97.324 103.519 97.324H99.4152V96.628H103.243L103.039 96.796C103.039 96.38 102.975 96.028 102.847 95.74C102.727 95.444 102.547 95.22 102.307 95.068C102.075 94.916 101.783 94.84 101.431 94.84C101.047 94.84 100.719 94.932 100.447 95.116C100.175 95.292 99.9672 95.544 99.8232 95.872C99.6792 96.192 99.6072 96.564 99.6072 96.988V97.06C99.6072 97.78 99.7792 98.324 100.123 98.692C100.467 99.06 100.963 99.244 101.611 99.244C101.867 99.244 102.127 99.212 102.391 99.148C102.663 99.084 102.923 98.968 103.171 98.8C103.291 98.728 103.399 98.696 103.495 98.704C103.599 98.704 103.683 98.736 103.747 98.8C103.811 98.856 103.851 98.928 103.867 99.016C103.883 99.096 103.871 99.184 103.831 99.28C103.791 99.376 103.715 99.46 103.603 99.532C103.339 99.716 103.023 99.86 102.655 99.964C102.295 100.06 101.947 100.108 101.611 100.108ZM105.885 100.084C105.701 100.084 105.561 100.036 105.465 99.94C105.369 99.844 105.321 99.704 105.321 99.52V94.624C105.321 94.44 105.369 94.304 105.465 94.216C105.561 94.12 105.693 94.072 105.861 94.072C106.029 94.072 106.157 94.12 106.245 94.216C106.341 94.304 106.389 94.44 106.389 94.624V95.548H106.269C106.397 95.068 106.637 94.704 106.989 94.456C107.341 94.208 107.785 94.068 108.321 94.036C108.449 94.028 108.553 94.06 108.633 94.132C108.713 94.196 108.757 94.308 108.765 94.468C108.773 94.62 108.737 94.744 108.657 94.84C108.577 94.928 108.453 94.98 108.285 94.996L108.069 95.008C107.541 95.064 107.133 95.236 106.845 95.524C106.565 95.812 106.425 96.208 106.425 96.712V99.52C106.425 99.704 106.377 99.844 106.281 99.94C106.193 100.036 106.061 100.084 105.885 100.084Z" fill="#64728C"/>
<rect x="12" y="116" width="284" height="32" rx="10" fill="white"/>
<path d="M21.62 136C21.428 136 21.28 135.948 21.176 135.844C21.072 135.74 21.02 135.592 21.02 135.4V128.14C21.02 127.948 21.072 127.8 21.176 127.696C21.28 127.592 21.428 127.54 21.62 127.54H23.936C25.32 127.54 26.384 127.904 27.128 128.632C27.88 129.352 28.256 130.396 28.256 131.764C28.256 132.444 28.16 133.048 27.968 133.576C27.776 134.104 27.496 134.548 27.128 134.908C26.76 135.26 26.308 135.532 25.772 135.724C25.244 135.908 24.632 136 23.936 136H21.62ZM22.136 135.052H23.864C24.408 135.052 24.88 134.984 25.28 134.848C25.68 134.712 26.012 134.508 26.276 134.236C26.548 133.964 26.752 133.624 26.888 133.216C27.024 132.8 27.092 132.316 27.092 131.764C27.092 130.668 26.82 129.848 26.276 129.304C25.74 128.76 24.936 128.488 23.864 128.488H22.136V135.052ZM31.7008 136.108C31.3008 136.108 30.9368 136.028 30.6088 135.868C30.2888 135.708 30.0368 135.492 29.8528 135.22C29.6768 134.948 29.5888 134.644 29.5888 134.308C29.5888 133.876 29.6968 133.536 29.9128 133.288C30.1288 133.04 30.4928 132.864 31.0048 132.76C31.5168 132.648 32.2048 132.592 33.0688 132.592H33.6328V133.288H33.0928C32.4768 133.288 31.9888 133.316 31.6288 133.372C31.2768 133.428 31.0288 133.528 30.8848 133.672C30.7408 133.808 30.6688 134 30.6688 134.248C30.6688 134.56 30.7768 134.816 30.9928 135.016C31.2168 135.216 31.5208 135.316 31.9048 135.316C32.2088 135.316 32.4768 135.244 32.7088 135.1C32.9408 134.948 33.1248 134.748 33.2608 134.5C33.3968 134.244 33.4648 133.952 33.4648 133.624V132.244C33.4648 131.772 33.3688 131.432 33.1768 131.224C32.9848 131.008 32.6608 130.9 32.2048 130.9C31.9408 130.9 31.6688 130.936 31.3888 131.008C31.1088 131.08 30.8168 131.192 30.5128 131.344C30.3928 131.4 30.2888 131.42 30.2008 131.404C30.1128 131.38 30.0408 131.332 29.9848 131.26C29.9368 131.18 29.9088 131.096 29.9008 131.008C29.9008 130.912 29.9208 130.82 29.9608 130.732C30.0088 130.644 30.0888 130.58 30.2008 130.54C30.5528 130.364 30.9008 130.24 31.2448 130.168C31.5968 130.088 31.9248 130.048 32.2288 130.048C32.7488 130.048 33.1768 130.132 33.5128 130.3C33.8488 130.46 34.1008 130.712 34.2688 131.056C34.4368 131.392 34.5208 131.824 34.5208 132.352V135.52C34.5208 135.704 34.4768 135.844 34.3888 135.94C34.3008 136.036 34.1728 136.084 34.0048 136.084C33.8448 136.084 33.7168 136.036 33.6208 135.94C33.5328 135.844 33.4888 135.704 33.4888 135.52V134.668H33.5968C33.5328 134.964 33.4128 135.22 33.2368 135.436C33.0608 135.652 32.8408 135.82 32.5768 135.94C32.3208 136.052 32.0288 136.108 31.7008 136.108ZM38.6633 136.108C38.1913 136.108 37.7953 136.024 37.4753 135.856C37.1633 135.688 36.9273 135.444 36.7673 135.124C36.6153 134.804 36.5393 134.412 36.5393 133.948V130.996H35.7713C35.6273 130.996 35.5153 130.96 35.4353 130.888C35.3553 130.808 35.3153 130.704 35.3153 130.576C35.3153 130.44 35.3553 130.336 35.4353 130.264C35.5153 130.192 35.6273 130.156 35.7713 130.156H36.5393V128.848C36.5393 128.664 36.5873 128.528 36.6833 128.44C36.7793 128.344 36.9153 128.296 37.0913 128.296C37.2673 128.296 37.3993 128.344 37.4873 128.44C37.5833 128.528 37.6313 128.664 37.6313 128.848V130.156H39.0833C39.2353 130.156 39.3513 130.192 39.4313 130.264C39.5113 130.336 39.5513 130.44 39.5513 130.576C39.5513 130.704 39.5113 130.808 39.4313 130.888C39.3513 130.96 39.2353 130.996 39.0833 130.996H37.6313V133.852C37.6313 134.292 37.7233 134.624 37.9073 134.848C38.0913 135.072 38.3953 135.184 38.8193 135.184C38.9713 135.184 39.0993 135.172 39.2033 135.148C39.3073 135.116 39.3993 135.1 39.4793 135.1C39.5513 135.092 39.6113 135.116 39.6593 135.172C39.7153 135.228 39.7433 135.332 39.7433 135.484C39.7433 135.596 39.7233 135.7 39.6833 135.796C39.6513 135.884 39.5833 135.944 39.4793 135.976C39.3833 136.008 39.2553 136.036 39.0953 136.06C38.9353 136.092 38.7913 136.108 38.6633 136.108ZM43.1815 136.108C42.5495 136.108 42.0055 135.988 41.5495 135.748C41.1015 135.5 40.7535 135.152 40.5055 134.704C40.2575 134.248 40.1335 133.712 40.1335 133.096C40.1335 132.488 40.2535 131.956 40.4935 131.5C40.7415 131.044 41.0775 130.688 41.5015 130.432C41.9335 130.176 42.4255 130.048 42.9775 130.048C43.3695 130.048 43.7215 130.116 44.0335 130.252C44.3535 130.38 44.6255 130.568 44.8495 130.816C45.0735 131.064 45.2415 131.368 45.3535 131.728C45.4735 132.08 45.5335 132.48 45.5335 132.928C45.5335 133.056 45.4935 133.156 45.4135 133.228C45.3415 133.292 45.2335 133.324 45.0895 133.324H40.9855V132.628H44.8135L44.6095 132.796C44.6095 132.38 44.5455 132.028 44.4175 131.74C44.2975 131.444 44.1175 131.22 43.8775 131.068C43.6455 130.916 43.3535 130.84 43.0015 130.84C42.6175 130.84 42.2895 130.932 42.0175 131.116C41.7455 131.292 41.5375 131.544 41.3935 131.872C41.2495 132.192 41.1775 132.564 41.1775 132.988V133.06C41.1775 133.78 41.3495 134.324 41.6935 134.692C42.0375 135.06 42.5335 135.244 43.1815 135.244C43.4375 135.244 43.6975 135.212 43.9615 135.148C44.2335 135.084 44.4935 134.968 44.7415 134.8C44.8615 134.728 44.9695 134.696 45.0655 134.704C45.1695 134.704 45.2535 134.736 45.3175 134.8C45.3815 134.856 45.4215 134.928 45.4375 135.016C45.4535 135.096 45.4415 135.184 45.4015 135.28C45.3615 135.376 45.2855 135.46 45.1735 135.532C44.9095 135.716 44.5935 135.86 44.2255 135.964C43.8655 136.06 43.5175 136.108 43.1815 136.108ZM52.5045 136.108C51.9285 136.108 51.4285 135.984 51.0045 135.736C50.5805 135.488 50.2525 135.136 50.0205 134.68C49.7885 134.224 49.6725 133.688 49.6725 133.072C49.6725 132.608 49.7365 132.192 49.8645 131.824C50.0005 131.448 50.1925 131.128 50.4405 130.864C50.6885 130.6 50.9845 130.4 51.3285 130.264C51.6805 130.12 52.0725 130.048 52.5045 130.048C53.0805 130.048 53.5805 130.172 54.0045 130.42C54.4285 130.668 54.7565 131.02 54.9885 131.476C55.2205 131.924 55.3365 132.456 55.3365 133.072C55.3365 133.536 55.2685 133.956 55.1325 134.332C55.0045 134.708 54.8165 135.028 54.5685 135.292C54.3205 135.556 54.0205 135.76 53.6685 135.904C53.3245 136.04 52.9365 136.108 52.5045 136.108ZM52.5045 135.244C52.8565 135.244 53.1605 135.16 53.4165 134.992C53.6805 134.824 53.8805 134.58 54.0165 134.26C54.1605 133.94 54.2325 133.544 54.2325 133.072C54.2325 132.368 54.0765 131.832 53.7645 131.464C53.4525 131.096 53.0325 130.912 52.5045 130.912C52.1605 130.912 51.8565 130.996 51.5925 131.164C51.3365 131.324 51.1365 131.564 50.9925 131.884C50.8485 132.204 50.7765 132.6 50.7765 133.072C50.7765 133.776 50.9325 134.316 51.2445 134.692C51.5645 135.06 51.9845 135.244 52.5045 135.244ZM57.5648 136.084C57.3888 136.084 57.2528 136.036 57.1568 135.94C57.0608 135.844 57.0128 135.704 57.0128 135.52V130.996H56.2928C56.1488 130.996 56.0368 130.96 55.9568 130.888C55.8768 130.808 55.8368 130.704 55.8368 130.576C55.8368 130.44 55.8768 130.336 55.9568 130.264C56.0368 130.192 56.1488 130.156 56.2928 130.156H57.3128L57.0128 130.444V130C57.0128 129.224 57.2008 128.636 57.5768 128.236C57.9608 127.828 58.5208 127.592 59.2568 127.528L59.6288 127.504C59.7488 127.488 59.8448 127.508 59.9168 127.564C59.9888 127.612 60.0368 127.676 60.0608 127.756C60.0848 127.836 60.0848 127.92 60.0608 128.008C60.0448 128.088 60.0088 128.16 59.9528 128.224C59.8968 128.288 59.8248 128.324 59.7368 128.332L59.4728 128.344C58.9928 128.384 58.6448 128.528 58.4288 128.776C58.2128 129.016 58.1048 129.376 58.1048 129.856V130.336L57.9488 130.156H59.3288C59.4808 130.156 59.5968 130.192 59.6768 130.264C59.7568 130.336 59.7968 130.44 59.7968 130.576C59.7968 130.704 59.7568 130.808 59.6768 130.888C59.5968 130.96 59.4808 130.996 59.3288 130.996H58.1048V135.52C58.1048 135.896 57.9248 136.084 57.5648 136.084ZM63.9078 136.084C63.7638 136.084 63.6478 136.052 63.5598 135.988C63.4798 135.924 63.4318 135.836 63.4158 135.724C63.3998 135.612 63.4238 135.488 63.4878 135.352L66.7638 127.936C66.8358 127.768 66.9278 127.648 67.0398 127.576C67.1518 127.496 67.2758 127.456 67.4118 127.456C67.5478 127.456 67.6678 127.496 67.7718 127.576C67.8838 127.648 67.9798 127.768 68.0598 127.936L71.3358 135.352C71.3998 135.488 71.4238 135.616 71.4078 135.736C71.3998 135.848 71.3558 135.936 71.2758 136C71.1958 136.056 71.0838 136.084 70.9398 136.084C70.7798 136.084 70.6518 136.044 70.5558 135.964C70.4598 135.876 70.3758 135.752 70.3038 135.592L69.4518 133.6L69.9678 133.888H64.8318L65.3478 133.6L64.4958 135.592C64.4238 135.768 64.3438 135.896 64.2558 135.976C64.1678 136.048 64.0518 136.084 63.9078 136.084ZM67.3878 128.8L65.5158 133.228L65.2278 132.976H69.5718L69.2958 133.228L67.4118 128.8H67.3878ZM73.2246 138.244C73.0566 138.244 72.9246 138.196 72.8286 138.1C72.7326 138.004 72.6846 137.868 72.6846 137.692V130.624C72.6846 130.44 72.7326 130.304 72.8286 130.216C72.9246 130.12 73.0566 130.072 73.2246 130.072C73.4006 130.072 73.5326 130.12 73.6206 130.216C73.7166 130.304 73.7646 130.44 73.7646 130.624V131.716L73.6326 131.5C73.7606 131.06 74.0126 130.708 74.3886 130.444C74.7646 130.18 75.2166 130.048 75.7446 130.048C76.2646 130.048 76.7166 130.172 77.1006 130.42C77.4846 130.66 77.7846 131.008 78.0006 131.464C78.2166 131.912 78.3246 132.448 78.3246 133.072C78.3246 133.688 78.2166 134.228 78.0006 134.692C77.7926 135.148 77.4926 135.5 77.1006 135.748C76.7166 135.988 76.2646 136.108 75.7446 136.108C75.2246 136.108 74.7766 135.976 74.4006 135.712C74.0246 135.448 73.7726 135.1 73.6446 134.668H73.7766V137.692C73.7766 137.868 73.7286 138.004 73.6326 138.1C73.5366 138.196 73.4006 138.244 73.2246 138.244ZM75.4926 135.244C75.8366 135.244 76.1366 135.16 76.3926 134.992C76.6566 134.824 76.8606 134.58 77.0046 134.26C77.1486 133.94 77.2206 133.544 77.2206 133.072C77.2206 132.368 77.0646 131.832 76.7526 131.464C76.4406 131.096 76.0206 130.912 75.4926 130.912C75.1406 130.912 74.8326 130.996 74.5686 131.164C74.3126 131.324 74.1126 131.564 73.9686 131.884C73.8326 132.204 73.7646 132.6 73.7646 133.072C73.7646 133.776 73.9206 134.316 74.2326 134.692C74.5446 135.06 74.9646 135.244 75.4926 135.244ZM80.2676 138.244C80.0996 138.244 79.9676 138.196 79.8716 138.1C79.7756 138.004 79.7276 137.868 79.7276 137.692V130.624C79.7276 130.44 79.7756 130.304 79.8716 130.216C79.9676 130.12 80.0996 130.072 80.2676 130.072C80.4436 130.072 80.5756 130.12 80.6636 130.216C80.7596 130.304 80.8076 130.44 80.8076 130.624V131.716L80.6756 131.5C80.8036 131.06 81.0556 130.708 81.4316 130.444C81.8076 130.18 82.2596 130.048 82.7876 130.048C83.3076 130.048 83.7596 130.172 84.1436 130.42C84.5276 130.66 84.8276 131.008 85.0436 131.464C85.2596 131.912 85.3676 132.448 85.3676 133.072C85.3676 133.688 85.2596 134.228 85.0436 134.692C84.8356 135.148 84.5356 135.5 84.1436 135.748C83.7596 135.988 83.3076 136.108 82.7876 136.108C82.2676 136.108 81.8196 135.976 81.4436 135.712C81.0676 135.448 80.8156 135.1 80.6876 134.668H80.8196V137.692C80.8196 137.868 80.7716 138.004 80.6756 138.1C80.5796 138.196 80.4436 138.244 80.2676 138.244ZM82.5356 135.244C82.8796 135.244 83.1796 135.16 83.4356 134.992C83.6996 134.824 83.9036 134.58 84.0476 134.26C84.1916 133.94 84.2636 133.544 84.2636 133.072C84.2636 132.368 84.1076 131.832 83.7956 131.464C83.4836 131.096 83.0636 130.912 82.5356 130.912C82.1836 130.912 81.8756 130.996 81.6116 131.164C81.3556 131.324 81.1556 131.564 81.0116 131.884C80.8756 132.204 80.8076 132.6 80.8076 133.072C80.8076 133.776 80.9636 134.316 81.2756 134.692C81.5876 135.06 82.0076 135.244 82.5356 135.244ZM88.6065 136.108C88.0065 136.108 87.5505 135.932 87.2385 135.58C86.9265 135.22 86.7705 134.704 86.7705 134.032V128.008C86.7705 127.824 86.8185 127.688 86.9145 127.6C87.0105 127.504 87.1425 127.456 87.3105 127.456C87.4865 127.456 87.6225 127.504 87.7185 127.6C87.8145 127.688 87.8625 127.824 87.8625 128.008V133.948C87.8625 134.364 87.9465 134.676 88.1145 134.884C88.2905 135.084 88.5385 135.184 88.8585 135.184C88.9305 135.184 88.9945 135.184 89.0505 135.184C89.1065 135.176 89.1625 135.168 89.2185 135.16C89.3065 135.152 89.3705 135.176 89.4105 135.232C89.4505 135.288 89.4705 135.4 89.4705 135.568C89.4705 135.72 89.4345 135.84 89.3625 135.928C89.2985 136.008 89.1905 136.06 89.0385 136.084C88.9665 136.092 88.8945 136.096 88.8225 136.096C88.7505 136.104 88.6785 136.108 88.6065 136.108ZM90.9199 136.06C90.7519 136.06 90.6199 136.008 90.5239 135.904C90.4279 135.8 90.3799 135.656 90.3799 135.472V130.684C90.3799 130.492 90.4279 130.348 90.5239 130.252C90.6199 130.148 90.7519 130.096 90.9199 130.096C91.0959 130.096 91.2319 130.148 91.3279 130.252C91.4239 130.348 91.4719 130.492 91.4719 130.684V135.472C91.4719 135.656 91.4239 135.8 91.3279 135.904C91.2399 136.008 91.1039 136.06 90.9199 136.06ZM90.9199 128.8C90.7039 128.8 90.5319 128.744 90.4039 128.632C90.2839 128.512 90.2239 128.356 90.2239 128.164C90.2239 127.956 90.2839 127.8 90.4039 127.696C90.5319 127.584 90.7039 127.528 90.9199 127.528C91.1519 127.528 91.3239 127.584 91.4359 127.696C91.5559 127.8 91.6159 127.956 91.6159 128.164C91.6159 128.356 91.5559 128.512 91.4359 128.632C91.3239 128.744 91.1519 128.8 90.9199 128.8ZM95.7596 136.108C95.1676 136.108 94.6556 135.984 94.2236 135.736C93.7916 135.48 93.4596 135.124 93.2276 134.668C92.9956 134.204 92.8796 133.66 92.8796 133.036C92.8796 132.572 92.9436 132.156 93.0716 131.788C93.2076 131.42 93.3996 131.108 93.6476 130.852C93.8956 130.588 94.1956 130.388 94.5476 130.252C94.9076 130.116 95.3116 130.048 95.7596 130.048C96.0396 130.048 96.3356 130.092 96.6476 130.18C96.9596 130.268 97.2476 130.412 97.5116 130.612C97.5996 130.676 97.6556 130.752 97.6796 130.84C97.7036 130.92 97.7036 131.004 97.6796 131.092C97.6636 131.18 97.6236 131.256 97.5596 131.32C97.5036 131.376 97.4276 131.408 97.3316 131.416C97.2436 131.424 97.1476 131.396 97.0436 131.332C96.8516 131.188 96.6476 131.084 96.4316 131.02C96.2236 130.956 96.0236 130.924 95.8316 130.924C95.5356 130.924 95.2716 130.972 95.0396 131.068C94.8156 131.164 94.6236 131.304 94.4636 131.488C94.3116 131.664 94.1956 131.884 94.1156 132.148C94.0356 132.404 93.9956 132.704 93.9956 133.048C93.9956 133.728 94.1556 134.264 94.4756 134.656C94.7956 135.04 95.2476 135.232 95.8316 135.232C96.0236 135.232 96.2236 135.204 96.4316 135.148C96.6396 135.084 96.8436 134.98 97.0436 134.836C97.1476 134.772 97.2436 134.748 97.3316 134.764C97.4196 134.772 97.4916 134.808 97.5476 134.872C97.6116 134.928 97.6516 135 97.6676 135.088C97.6836 135.168 97.6756 135.252 97.6436 135.34C97.6196 135.428 97.5636 135.5 97.4756 135.556C97.2196 135.748 96.9396 135.888 96.6356 135.976C96.3316 136.064 96.0396 136.108 95.7596 136.108ZM100.619 136.108C100.219 136.108 99.8548 136.028 99.5268 135.868C99.2068 135.708 98.9548 135.492 98.7708 135.22C98.5948 134.948 98.5068 134.644 98.5068 134.308C98.5068 133.876 98.6148 133.536 98.8308 133.288C99.0468 133.04 99.4108 132.864 99.9228 132.76C100.435 132.648 101.123 132.592 101.987 132.592H102.551V133.288H102.011C101.395 133.288 100.907 133.316 100.547 133.372C100.195 133.428 99.9468 133.528 99.8028 133.672C99.6588 133.808 99.5868 134 99.5868 134.248C99.5868 134.56 99.6948 134.816 99.9108 135.016C100.135 135.216 100.439 135.316 100.823 135.316C101.127 135.316 101.395 135.244 101.627 135.1C101.859 134.948 102.043 134.748 102.179 134.5C102.315 134.244 102.383 133.952 102.383 133.624V132.244C102.383 131.772 102.287 131.432 102.095 131.224C101.903 131.008 101.579 130.9 101.123 130.9C100.859 130.9 100.587 130.936 100.307 131.008C100.027 131.08 99.7348 131.192 99.4308 131.344C99.3108 131.4 99.2068 131.42 99.1188 131.404C99.0308 131.38 98.9588 131.332 98.9028 131.26C98.8548 131.18 98.8268 131.096 98.8188 131.008C98.8188 130.912 98.8388 130.82 98.8788 130.732C98.9268 130.644 99.0068 130.58 99.1188 130.54C99.4708 130.364 99.8188 130.24 100.163 130.168C100.515 130.088 100.843 130.048 101.147 130.048C101.667 130.048 102.095 130.132 102.431 130.3C102.767 130.46 103.019 130.712 103.187 131.056C103.355 131.392 103.439 131.824 103.439 132.352V135.52C103.439 135.704 103.395 135.844 103.307 135.94C103.219 136.036 103.091 136.084 102.923 136.084C102.763 136.084 102.635 136.036 102.539 135.94C102.451 135.844 102.407 135.704 102.407 135.52V134.668H102.515C102.451 134.964 102.331 135.22 102.155 135.436C101.979 135.652 101.759 135.82 101.495 135.94C101.239 136.052 100.947 136.108 100.619 136.108ZM107.581 136.108C107.109 136.108 106.713 136.024 106.393 135.856C106.081 135.688 105.845 135.444 105.685 135.124C105.533 134.804 105.457 134.412 105.457 133.948V130.996H104.689C104.545 130.996 104.433 130.96 104.353 130.888C104.273 130.808 104.233 130.704 104.233 130.576C104.233 130.44 104.273 130.336 104.353 130.264C104.433 130.192 104.545 130.156 104.689 130.156H105.457V128.848C105.457 128.664 105.505 128.528 105.601 128.44C105.697 128.344 105.833 128.296 106.009 128.296C106.185 128.296 106.317 128.344 106.405 128.44C106.501 128.528 106.549 128.664 106.549 128.848V130.156H108.001C108.153 130.156 108.269 130.192 108.349 130.264C108.429 130.336 108.469 130.44 108.469 130.576C108.469 130.704 108.429 130.808 108.349 130.888C108.269 130.96 108.153 130.996 108.001 130.996H106.549V133.852C106.549 134.292 106.641 134.624 106.825 134.848C107.009 135.072 107.313 135.184 107.737 135.184C107.889 135.184 108.017 135.172 108.121 135.148C108.225 135.116 108.317 135.1 108.397 135.1C108.469 135.092 108.529 135.116 108.577 135.172C108.633 135.228 108.661 135.332 108.661 135.484C108.661 135.596 108.641 135.7 108.601 135.796C108.569 135.884 108.501 135.944 108.397 135.976C108.301 136.008 108.173 136.036 108.013 136.06C107.853 136.092 107.709 136.108 107.581 136.108ZM110.092 136.06C109.924 136.06 109.792 136.008 109.696 135.904C109.6 135.8 109.552 135.656 109.552 135.472V130.684C109.552 130.492 109.6 130.348 109.696 130.252C109.792 130.148 109.924 130.096 110.092 130.096C110.268 130.096 110.404 130.148 110.5 130.252C110.596 130.348 110.644 130.492 110.644 130.684V135.472C110.644 135.656 110.596 135.8 110.5 135.904C110.412 136.008 110.276 136.06 110.092 136.06ZM110.092 128.8C109.876 128.8 109.704 128.744 109.576 128.632C109.456 128.512 109.396 128.356 109.396 128.164C109.396 127.956 109.456 127.8 109.576 127.696C109.704 127.584 109.876 127.528 110.092 127.528C110.324 127.528 110.496 127.584 110.608 127.696C110.728 127.8 110.788 127.956 110.788 128.164C110.788 128.356 110.728 128.512 110.608 128.632C110.496 128.744 110.324 128.8 110.092 128.8ZM114.883 136.108C114.307 136.108 113.807 135.984 113.383 135.736C112.959 135.488 112.631 135.136 112.399 134.68C112.167 134.224 112.051 133.688 112.051 133.072C112.051 132.608 112.115 132.192 112.243 131.824C112.379 131.448 112.571 131.128 112.819 130.864C113.067 130.6 113.363 130.4 113.707 130.264C114.059 130.12 114.451 130.048 114.883 130.048C115.459 130.048 115.959 130.172 116.383 130.42C116.807 130.668 117.135 131.02 117.367 131.476C117.599 131.924 117.715 132.456 117.715 133.072C117.715 133.536 117.647 133.956 117.511 134.332C117.383 134.708 117.195 135.028 116.947 135.292C116.699 135.556 116.399 135.76 116.047 135.904C115.703 136.04 115.315 136.108 114.883 136.108ZM114.883 135.244C115.235 135.244 115.539 135.16 115.795 134.992C116.059 134.824 116.259 134.58 116.395 134.26C116.539 133.94 116.611 133.544 116.611 133.072C116.611 132.368 116.455 131.832 116.143 131.464C115.831 131.096 115.411 130.912 114.883 130.912C114.539 130.912 114.235 130.996 113.971 131.164C113.715 131.324 113.515 131.564 113.371 131.884C113.227 132.204 113.155 132.6 113.155 133.072C113.155 133.776 113.311 134.316 113.623 134.692C113.943 135.06 114.363 135.244 114.883 135.244ZM119.654 136.084C119.486 136.084 119.354 136.036 119.258 135.94C119.162 135.844 119.114 135.704 119.114 135.52V130.624C119.114 130.44 119.162 130.304 119.258 130.216C119.354 130.12 119.486 130.072 119.654 130.072C119.822 130.072 119.95 130.12 120.038 130.216C120.134 130.304 120.182 130.44 120.182 130.624V131.608L120.05 131.428C120.218 130.972 120.49 130.628 120.866 130.396C121.25 130.164 121.686 130.048 122.174 130.048C122.646 130.048 123.034 130.132 123.338 130.3C123.642 130.468 123.87 130.724 124.022 131.068C124.174 131.412 124.25 131.848 124.25 132.376V135.52C124.25 135.704 124.202 135.844 124.106 135.94C124.018 136.036 123.886 136.084 123.71 136.084C123.534 136.084 123.398 136.036 123.302 135.94C123.206 135.844 123.158 135.704 123.158 135.52V132.436C123.158 131.916 123.058 131.536 122.858 131.296C122.658 131.056 122.338 130.936 121.898 130.936C121.386 130.936 120.974 131.096 120.662 131.416C120.358 131.728 120.206 132.152 120.206 132.688V135.52C120.206 135.896 120.022 136.084 119.654 136.084Z" fill="#64728C"/>
<rect x="12" y="152" width="284" height="32" rx="10" fill="white"/>
<path d="M21.62 172C21.428 172 21.28 171.948 21.176 171.844C21.072 171.74 21.02 171.592 21.02 171.4V164.14C21.02 163.948 21.072 163.8 21.176 163.696C21.28 163.592 21.428 163.54 21.62 163.54H26.036C26.188 163.54 26.304 163.58 26.384 163.66C26.472 163.732 26.516 163.84 26.516 163.984C26.516 164.136 26.472 164.252 26.384 164.332C26.304 164.412 26.188 164.452 26.036 164.452H22.1V167.248H25.784C25.936 167.248 26.052 167.288 26.132 167.368C26.212 167.448 26.252 167.56 26.252 167.704C26.252 167.856 26.212 167.972 26.132 168.052C26.052 168.124 25.936 168.16 25.784 168.16H22.1V171.088H26.036C26.188 171.088 26.304 171.128 26.384 171.208C26.472 171.28 26.516 171.392 26.516 171.544C26.516 171.696 26.472 171.812 26.384 171.892C26.304 171.964 26.188 172 26.036 172H21.62ZM28.4713 172.084C28.3033 172.084 28.1713 172.036 28.0753 171.94C27.9793 171.844 27.9313 171.704 27.9313 171.52V166.624C27.9313 166.44 27.9793 166.304 28.0753 166.216C28.1713 166.12 28.3033 166.072 28.4713 166.072C28.6393 166.072 28.7673 166.12 28.8553 166.216C28.9513 166.304 28.9993 166.44 28.9993 166.624V167.644L28.8673 167.428C29.0193 166.988 29.2633 166.648 29.5993 166.408C29.9433 166.168 30.3513 166.048 30.8233 166.048C31.3193 166.048 31.7193 166.168 32.0233 166.408C32.3273 166.64 32.5313 166.996 32.6353 167.476H32.4673C32.6113 167.036 32.8673 166.688 33.2353 166.432C33.6113 166.176 34.0473 166.048 34.5433 166.048C34.9833 166.048 35.3433 166.136 35.6233 166.312C35.9113 166.48 36.1273 166.736 36.2713 167.08C36.4153 167.416 36.4873 167.848 36.4873 168.376V171.52C36.4873 171.704 36.4393 171.844 36.3433 171.94C36.2473 172.036 36.1153 172.084 35.9473 172.084C35.7713 172.084 35.6353 172.036 35.5393 171.94C35.4433 171.844 35.3953 171.704 35.3953 171.52V168.424C35.3953 167.912 35.3073 167.536 35.1313 167.296C34.9553 167.056 34.6593 166.936 34.2433 166.936C33.7873 166.936 33.4233 167.096 33.1513 167.416C32.8873 167.728 32.7553 168.16 32.7553 168.712V171.52C32.7553 171.704 32.7073 171.844 32.6113 171.94C32.5233 172.036 32.3913 172.084 32.2153 172.084C32.0393 172.084 31.9033 172.036 31.8073 171.94C31.7113 171.844 31.6633 171.704 31.6633 171.52V168.424C31.6633 167.912 31.5753 167.536 31.3993 167.296C31.2233 167.056 30.9273 166.936 30.5113 166.936C30.0553 166.936 29.6913 167.096 29.4193 167.416C29.1553 167.728 29.0233 168.16 29.0233 168.712V171.52C29.0233 171.896 28.8393 172.084 28.4713 172.084ZM38.7832 174.244C38.6152 174.244 38.4832 174.196 38.3872 174.1C38.2912 174.004 38.2432 173.868 38.2432 173.692V166.624C38.2432 166.44 38.2912 166.304 38.3872 166.216C38.4832 166.12 38.6152 166.072 38.7832 166.072C38.9592 166.072 39.0912 166.12 39.1792 166.216C39.2752 166.304 39.3232 166.44 39.3232 166.624V167.716L39.1912 167.5C39.3192 167.06 39.5712 166.708 39.9472 166.444C40.3232 166.18 40.7752 166.048 41.3032 166.048C41.8232 166.048 42.2752 166.172 42.6592 166.42C43.0432 166.66 43.3432 167.008 43.5592 167.464C43.7752 167.912 43.8832 168.448 43.8832 169.072C43.8832 169.688 43.7752 170.228 43.5592 170.692C43.3512 171.148 43.0512 171.5 42.6592 171.748C42.2752 171.988 41.8232 172.108 41.3032 172.108C40.7832 172.108 40.3352 171.976 39.9592 171.712C39.5832 171.448 39.3312 171.1 39.2032 170.668H39.3352V173.692C39.3352 173.868 39.2872 174.004 39.1912 174.1C39.0952 174.196 38.9592 174.244 38.7832 174.244ZM41.0512 171.244C41.3952 171.244 41.6952 171.16 41.9512 170.992C42.2152 170.824 42.4192 170.58 42.5632 170.26C42.7072 169.94 42.7792 169.544 42.7792 169.072C42.7792 168.368 42.6232 167.832 42.3112 167.464C41.9992 167.096 41.5792 166.912 41.0512 166.912C40.6992 166.912 40.3912 166.996 40.1272 167.164C39.8712 167.324 39.6712 167.564 39.5272 167.884C39.3912 168.204 39.3232 168.6 39.3232 169.072C39.3232 169.776 39.4792 170.316 39.7912 170.692C40.1032 171.06 40.5232 171.244 41.0512 171.244ZM47.1222 172.108C46.5222 172.108 46.0662 171.932 45.7542 171.58C45.4422 171.22 45.2862 170.704 45.2862 170.032V164.008C45.2862 163.824 45.3342 163.688 45.4302 163.6C45.5262 163.504 45.6582 163.456 45.8262 163.456C46.0022 163.456 46.1382 163.504 46.2342 163.6C46.3302 163.688 46.3782 163.824 46.3782 164.008V169.948C46.3782 170.364 46.4622 170.676 46.6302 170.884C46.8062 171.084 47.0542 171.184 47.3742 171.184C47.4462 171.184 47.5102 171.184 47.5662 171.184C47.6222 171.176 47.6782 171.168 47.7342 171.16C47.8222 171.152 47.8862 171.176 47.9262 171.232C47.9662 171.288 47.9862 171.4 47.9862 171.568C47.9862 171.72 47.9502 171.84 47.8782 171.928C47.8142 172.008 47.7062 172.06 47.5542 172.084C47.4822 172.092 47.4102 172.096 47.3382 172.096C47.2662 172.104 47.1942 172.108 47.1222 172.108ZM51.3209 172.108C50.7449 172.108 50.2449 171.984 49.8209 171.736C49.3969 171.488 49.0689 171.136 48.8369 170.68C48.6049 170.224 48.4889 169.688 48.4889 169.072C48.4889 168.608 48.5529 168.192 48.6809 167.824C48.8169 167.448 49.0089 167.128 49.2569 166.864C49.5049 166.6 49.8009 166.4 50.1449 166.264C50.4969 166.12 50.8889 166.048 51.3209 166.048C51.8969 166.048 52.3969 166.172 52.8209 166.42C53.2449 166.668 53.5729 167.02 53.8049 167.476C54.0369 167.924 54.1529 168.456 54.1529 169.072C54.1529 169.536 54.0849 169.956 53.9489 170.332C53.8209 170.708 53.6329 171.028 53.3849 171.292C53.1369 171.556 52.8369 171.76 52.4849 171.904C52.1409 172.04 51.7529 172.108 51.3209 172.108ZM51.3209 171.244C51.6729 171.244 51.9769 171.16 52.2329 170.992C52.4969 170.824 52.6969 170.58 52.8329 170.26C52.9769 169.94 53.0489 169.544 53.0489 169.072C53.0489 168.368 52.8929 167.832 52.5809 167.464C52.2689 167.096 51.8489 166.912 51.3209 166.912C50.9769 166.912 50.6729 166.996 50.4089 167.164C50.1529 167.324 49.9529 167.564 49.8089 167.884C49.6649 168.204 49.5929 168.6 49.5929 169.072C49.5929 169.776 49.7489 170.316 50.0609 170.692C50.3809 171.06 50.8009 171.244 51.3209 171.244ZM56.802 174.244C56.674 174.244 56.566 174.208 56.478 174.136C56.398 174.072 56.35 173.98 56.334 173.86C56.326 173.748 56.35 173.628 56.406 173.5L57.222 171.652V172.108L54.954 166.828C54.898 166.692 54.878 166.568 54.894 166.456C54.91 166.344 54.962 166.252 55.05 166.18C55.146 166.108 55.274 166.072 55.434 166.072C55.57 166.072 55.678 166.104 55.758 166.168C55.838 166.232 55.914 166.344 55.986 166.504L57.87 171.148H57.534L59.454 166.504C59.518 166.344 59.594 166.232 59.682 166.168C59.77 166.104 59.89 166.072 60.042 166.072C60.178 166.072 60.282 166.108 60.354 166.18C60.434 166.252 60.482 166.344 60.498 166.456C60.514 166.568 60.49 166.688 60.426 166.816L57.402 173.812C57.322 173.98 57.238 174.092 57.15 174.148C57.07 174.212 56.954 174.244 56.802 174.244ZM64.2635 172.108C63.6315 172.108 63.0875 171.988 62.6315 171.748C62.1835 171.5 61.8355 171.152 61.5875 170.704C61.3395 170.248 61.2155 169.712 61.2155 169.096C61.2155 168.488 61.3355 167.956 61.5755 167.5C61.8235 167.044 62.1595 166.688 62.5835 166.432C63.0155 166.176 63.5075 166.048 64.0595 166.048C64.4515 166.048 64.8035 166.116 65.1155 166.252C65.4355 166.38 65.7075 166.568 65.9315 166.816C66.1555 167.064 66.3235 167.368 66.4355 167.728C66.5555 168.08 66.6155 168.48 66.6155 168.928C66.6155 169.056 66.5755 169.156 66.4955 169.228C66.4235 169.292 66.3155 169.324 66.1715 169.324H62.0675V168.628H65.8955L65.6915 168.796C65.6915 168.38 65.6275 168.028 65.4995 167.74C65.3795 167.444 65.1995 167.22 64.9595 167.068C64.7275 166.916 64.4355 166.84 64.0835 166.84C63.6995 166.84 63.3715 166.932 63.0995 167.116C62.8275 167.292 62.6195 167.544 62.4755 167.872C62.3315 168.192 62.2595 168.564 62.2595 168.988V169.06C62.2595 169.78 62.4315 170.324 62.7755 170.692C63.1195 171.06 63.6155 171.244 64.2635 171.244C64.5195 171.244 64.7795 171.212 65.0435 171.148C65.3155 171.084 65.5755 170.968 65.8235 170.8C65.9435 170.728 66.0515 170.696 66.1475 170.704C66.2515 170.704 66.3355 170.736 66.3995 170.8C66.4635 170.856 66.5035 170.928 66.5195 171.016C66.5355 171.096 66.5235 171.184 66.4835 171.28C66.4435 171.376 66.3675 171.46 66.2555 171.532C65.9915 171.716 65.6755 171.86 65.3075 171.964C64.9475 172.06 64.5995 172.108 64.2635 172.108ZM70.6737 172.108C70.0417 172.108 69.4977 171.988 69.0417 171.748C68.5937 171.5 68.2457 171.152 67.9977 170.704C67.7497 170.248 67.6257 169.712 67.6257 169.096C67.6257 168.488 67.7457 167.956 67.9857 167.5C68.2337 167.044 68.5697 166.688 68.9937 166.432C69.4257 166.176 69.9177 166.048 70.4697 166.048C70.8617 166.048 71.2137 166.116 71.5257 166.252C71.8457 166.38 72.1177 166.568 72.3417 166.816C72.5657 167.064 72.7337 167.368 72.8457 167.728C72.9657 168.08 73.0257 168.48 73.0257 168.928C73.0257 169.056 72.9857 169.156 72.9057 169.228C72.8337 169.292 72.7257 169.324 72.5817 169.324H68.4777V168.628H72.3057L72.1017 168.796C72.1017 168.38 72.0377 168.028 71.9097 167.74C71.7897 167.444 71.6097 167.22 71.3697 167.068C71.1377 166.916 70.8457 166.84 70.4937 166.84C70.1097 166.84 69.7817 166.932 69.5097 167.116C69.2377 167.292 69.0297 167.544 68.8857 167.872C68.7417 168.192 68.6697 168.564 68.6697 168.988V169.06C68.6697 169.78 68.8417 170.324 69.1857 170.692C69.5297 171.06 70.0257 171.244 70.6737 171.244C70.9297 171.244 71.1897 171.212 71.4537 171.148C71.7257 171.084 71.9857 170.968 72.2337 170.8C72.3537 170.728 72.4617 170.696 72.5577 170.704C72.6617 170.704 72.7457 170.736 72.8097 170.8C72.8737 170.856 72.9137 170.928 72.9297 171.016C72.9457 171.096 72.9337 171.184 72.8937 171.28C72.8537 171.376 72.7777 171.46 72.6657 171.532C72.4017 171.716 72.0857 171.86 71.7177 171.964C71.3577 172.06 71.0097 172.108 70.6737 172.108ZM78.2087 172.084C78.0327 172.084 77.8967 172.036 77.8007 171.94C77.7047 171.836 77.6567 171.692 77.6567 171.508V164.032C77.6567 163.84 77.7047 163.696 77.8007 163.6C77.8967 163.504 78.0327 163.456 78.2087 163.456C78.3927 163.456 78.5327 163.504 78.6287 163.6C78.7247 163.696 78.7727 163.84 78.7727 164.032V171.508C78.7727 171.692 78.7247 171.836 78.6287 171.94C78.5407 172.036 78.4007 172.084 78.2087 172.084ZM81.3973 172C81.2053 172 81.0573 171.948 80.9533 171.844C80.8493 171.74 80.7973 171.592 80.7973 171.4V164.14C80.7973 163.948 80.8493 163.8 80.9533 163.696C81.0573 163.592 81.2053 163.54 81.3973 163.54H83.7133C85.0973 163.54 86.1613 163.904 86.9053 164.632C87.6573 165.352 88.0333 166.396 88.0333 167.764C88.0333 168.444 87.9373 169.048 87.7453 169.576C87.5533 170.104 87.2733 170.548 86.9053 170.908C86.5373 171.26 86.0853 171.532 85.5493 171.724C85.0213 171.908 84.4093 172 83.7133 172H81.3973ZM81.9133 171.052H83.6413C84.1853 171.052 84.6573 170.984 85.0573 170.848C85.4573 170.712 85.7893 170.508 86.0533 170.236C86.3253 169.964 86.5293 169.624 86.6653 169.216C86.8013 168.8 86.8693 168.316 86.8693 167.764C86.8693 166.668 86.5973 165.848 86.0533 165.304C85.5173 164.76 84.7133 164.488 83.6413 164.488H81.9133V171.052Z" fill="#64728C"/>
<rect x="12" y="188" width="284" height="32" rx="10" fill="white"/>
<path d="M21.608 208.084C21.424 208.084 21.28 208.032 21.176 207.928C21.072 207.824 21.02 207.676 21.02 207.484V200.14C21.02 199.948 21.072 199.8 21.176 199.696C21.28 199.592 21.428 199.54 21.62 199.54H25.928C26.088 199.54 26.208 199.58 26.288 199.66C26.368 199.732 26.408 199.84 26.408 199.984C26.408 200.136 26.368 200.252 26.288 200.332C26.208 200.412 26.088 200.452 25.928 200.452H22.136V203.284H25.688C25.84 203.284 25.956 203.324 26.036 203.404C26.116 203.484 26.156 203.592 26.156 203.728C26.156 203.88 26.116 203.996 26.036 204.076C25.956 204.156 25.84 204.196 25.688 204.196H22.136V207.484C22.136 207.884 21.96 208.084 21.608 208.084ZM28.3066 208.06C28.1386 208.06 28.0066 208.008 27.9106 207.904C27.8146 207.8 27.7666 207.656 27.7666 207.472V202.684C27.7666 202.492 27.8146 202.348 27.9106 202.252C28.0066 202.148 28.1386 202.096 28.3066 202.096C28.4826 202.096 28.6186 202.148 28.7146 202.252C28.8106 202.348 28.8586 202.492 28.8586 202.684V207.472C28.8586 207.656 28.8106 207.8 28.7146 207.904C28.6266 208.008 28.4906 208.06 28.3066 208.06ZM28.3066 200.8C28.0906 200.8 27.9186 200.744 27.7906 200.632C27.6706 200.512 27.6106 200.356 27.6106 200.164C27.6106 199.956 27.6706 199.8 27.7906 199.696C27.9186 199.584 28.0906 199.528 28.3066 199.528C28.5386 199.528 28.7106 199.584 28.8226 199.696C28.9426 199.8 29.0026 199.956 29.0026 200.164C29.0026 200.356 28.9426 200.512 28.8226 200.632C28.7106 200.744 28.5386 200.8 28.3066 200.8ZM31.1783 208.084C30.9943 208.084 30.8543 208.036 30.7583 207.94C30.6623 207.844 30.6143 207.704 30.6143 207.52V202.624C30.6143 202.44 30.6623 202.304 30.7583 202.216C30.8543 202.12 30.9863 202.072 31.1543 202.072C31.3223 202.072 31.4503 202.12 31.5383 202.216C31.6343 202.304 31.6823 202.44 31.6823 202.624V203.548H31.5623C31.6903 203.068 31.9303 202.704 32.2823 202.456C32.6343 202.208 33.0783 202.068 33.6143 202.036C33.7423 202.028 33.8463 202.06 33.9263 202.132C34.0063 202.196 34.0503 202.308 34.0583 202.468C34.0663 202.62 34.0303 202.744 33.9503 202.84C33.8703 202.928 33.7463 202.98 33.5783 202.996L33.3623 203.008C32.8343 203.064 32.4263 203.236 32.1383 203.524C31.8583 203.812 31.7183 204.208 31.7183 204.712V207.52C31.7183 207.704 31.6703 207.844 31.5743 207.94C31.4863 208.036 31.3543 208.084 31.1783 208.084ZM36.9545 208.108C36.5945 208.108 36.2305 208.068 35.8625 207.988C35.5025 207.9 35.1625 207.752 34.8425 207.544C34.7545 207.488 34.6905 207.42 34.6505 207.34C34.6185 207.252 34.6065 207.168 34.6145 207.088C34.6305 207 34.6665 206.924 34.7225 206.86C34.7785 206.796 34.8465 206.76 34.9265 206.752C35.0145 206.736 35.1065 206.756 35.2025 206.812C35.5145 206.988 35.8145 207.112 36.1025 207.184C36.3985 207.256 36.6905 207.292 36.9785 207.292C37.4185 207.292 37.7505 207.212 37.9745 207.052C38.1985 206.892 38.3105 206.68 38.3105 206.416C38.3105 206.192 38.2345 206.02 38.0825 205.9C37.9385 205.772 37.7105 205.676 37.3985 205.612L36.2825 205.384C35.7865 205.272 35.4105 205.088 35.1545 204.832C34.9065 204.568 34.7825 204.232 34.7825 203.824C34.7825 203.464 34.8785 203.152 35.0705 202.888C35.2705 202.616 35.5465 202.408 35.8985 202.264C36.2505 202.12 36.6545 202.048 37.1105 202.048C37.4625 202.048 37.7945 202.096 38.1065 202.192C38.4265 202.28 38.7145 202.416 38.9705 202.6C39.0665 202.656 39.1265 202.728 39.1505 202.816C39.1825 202.896 39.1865 202.98 39.1625 203.068C39.1465 203.148 39.1105 203.216 39.0545 203.272C38.9985 203.328 38.9265 203.364 38.8385 203.38C38.7505 203.388 38.6545 203.364 38.5505 203.308C38.3185 203.148 38.0785 203.036 37.8305 202.972C37.5905 202.9 37.3505 202.864 37.1105 202.864C36.6785 202.864 36.3505 202.948 36.1265 203.116C35.9105 203.284 35.8025 203.504 35.8025 203.776C35.8025 203.984 35.8665 204.156 35.9945 204.292C36.1305 204.428 36.3425 204.528 36.6305 204.592L37.7465 204.82C38.2665 204.932 38.6585 205.112 38.9225 205.36C39.1865 205.6 39.3185 205.928 39.3185 206.344C39.3185 206.888 39.1025 207.32 38.6705 207.64C38.2465 207.952 37.6745 208.108 36.9545 208.108ZM43.1047 208.108C42.6327 208.108 42.2367 208.024 41.9167 207.856C41.6047 207.688 41.3687 207.444 41.2087 207.124C41.0567 206.804 40.9807 206.412 40.9807 205.948V202.996H40.2127C40.0687 202.996 39.9567 202.96 39.8767 202.888C39.7967 202.808 39.7567 202.704 39.7567 202.576C39.7567 202.44 39.7967 202.336 39.8767 202.264C39.9567 202.192 40.0687 202.156 40.2127 202.156H40.9807V200.848C40.9807 200.664 41.0287 200.528 41.1247 200.44C41.2207 200.344 41.3567 200.296 41.5327 200.296C41.7087 200.296 41.8407 200.344 41.9287 200.44C42.0247 200.528 42.0727 200.664 42.0727 200.848V202.156H43.5247C43.6767 202.156 43.7927 202.192 43.8727 202.264C43.9527 202.336 43.9927 202.44 43.9927 202.576C43.9927 202.704 43.9527 202.808 43.8727 202.888C43.7927 202.96 43.6767 202.996 43.5247 202.996H42.0727V205.852C42.0727 206.292 42.1647 206.624 42.3487 206.848C42.5327 207.072 42.8367 207.184 43.2607 207.184C43.4127 207.184 43.5407 207.172 43.6447 207.148C43.7487 207.116 43.8407 207.1 43.9207 207.1C43.9927 207.092 44.0527 207.116 44.1007 207.172C44.1567 207.228 44.1847 207.332 44.1847 207.484C44.1847 207.596 44.1647 207.7 44.1247 207.796C44.0927 207.884 44.0247 207.944 43.9207 207.976C43.8247 208.008 43.6967 208.036 43.5367 208.06C43.3767 208.092 43.2327 208.108 43.1047 208.108ZM48.7704 208.084C48.6104 208.084 48.4824 208.036 48.3864 207.94C48.2984 207.844 48.2544 207.712 48.2544 207.544V200.02C48.2544 199.836 48.2984 199.696 48.3864 199.6C48.4744 199.504 48.5904 199.456 48.7344 199.456C48.8704 199.456 48.9744 199.48 49.0464 199.528C49.1184 199.576 49.1984 199.66 49.2864 199.78L54.3744 206.524H54.0744V199.996C54.0744 199.82 54.1184 199.688 54.2064 199.6C54.3024 199.504 54.4344 199.456 54.6024 199.456C54.7704 199.456 54.8984 199.504 54.9864 199.6C55.0744 199.688 55.1184 199.82 55.1184 199.996V207.544C55.1184 207.712 55.0744 207.844 54.9864 207.94C54.9064 208.036 54.7984 208.084 54.6624 208.084C54.5344 208.084 54.4264 208.056 54.3384 208C54.2584 207.952 54.1744 207.868 54.0864 207.748L49.0104 201.004H49.2864V207.544C49.2864 207.712 49.2424 207.844 49.1544 207.94C49.0664 208.036 48.9384 208.084 48.7704 208.084ZM58.8649 208.108C58.4649 208.108 58.1009 208.028 57.7729 207.868C57.4529 207.708 57.2009 207.492 57.0169 207.22C56.8409 206.948 56.7529 206.644 56.7529 206.308C56.7529 205.876 56.8609 205.536 57.0769 205.288C57.2929 205.04 57.6569 204.864 58.1689 204.76C58.6809 204.648 59.3689 204.592 60.2329 204.592H60.7969V205.288H60.2569C59.6409 205.288 59.1529 205.316 58.7929 205.372C58.4409 205.428 58.1929 205.528 58.0489 205.672C57.9049 205.808 57.8329 206 57.8329 206.248C57.8329 206.56 57.9409 206.816 58.1569 207.016C58.3809 207.216 58.6849 207.316 59.0689 207.316C59.3729 207.316 59.6409 207.244 59.8729 207.1C60.1049 206.948 60.2889 206.748 60.4249 206.5C60.5609 206.244 60.6289 205.952 60.6289 205.624V204.244C60.6289 203.772 60.5329 203.432 60.3409 203.224C60.1489 203.008 59.8249 202.9 59.3689 202.9C59.1049 202.9 58.8329 202.936 58.5529 203.008C58.2729 203.08 57.9809 203.192 57.6769 203.344C57.5569 203.4 57.4529 203.42 57.3649 203.404C57.2769 203.38 57.2049 203.332 57.1489 203.26C57.1009 203.18 57.0729 203.096 57.0649 203.008C57.0649 202.912 57.0849 202.82 57.1249 202.732C57.1729 202.644 57.2529 202.58 57.3649 202.54C57.7169 202.364 58.0649 202.24 58.4089 202.168C58.7609 202.088 59.0889 202.048 59.3929 202.048C59.9129 202.048 60.3409 202.132 60.6769 202.3C61.0129 202.46 61.2649 202.712 61.4329 203.056C61.6009 203.392 61.6849 203.824 61.6849 204.352V207.52C61.6849 207.704 61.6409 207.844 61.5529 207.94C61.4649 208.036 61.3369 208.084 61.1689 208.084C61.0089 208.084 60.8809 208.036 60.7849 207.94C60.6969 207.844 60.6529 207.704 60.6529 207.52V206.668H60.7609C60.6969 206.964 60.5769 207.22 60.4009 207.436C60.2249 207.652 60.0049 207.82 59.7409 207.94C59.4849 208.052 59.1929 208.108 58.8649 208.108ZM63.9673 208.084C63.7993 208.084 63.6673 208.036 63.5713 207.94C63.4753 207.844 63.4273 207.704 63.4273 207.52V202.624C63.4273 202.44 63.4753 202.304 63.5713 202.216C63.6673 202.12 63.7993 202.072 63.9673 202.072C64.1353 202.072 64.2633 202.12 64.3513 202.216C64.4473 202.304 64.4953 202.44 64.4953 202.624V203.644L64.3633 203.428C64.5153 202.988 64.7593 202.648 65.0953 202.408C65.4393 202.168 65.8473 202.048 66.3193 202.048C66.8153 202.048 67.2153 202.168 67.5193 202.408C67.8233 202.64 68.0273 202.996 68.1313 203.476H67.9633C68.1073 203.036 68.3633 202.688 68.7313 202.432C69.1073 202.176 69.5433 202.048 70.0393 202.048C70.4793 202.048 70.8393 202.136 71.1193 202.312C71.4073 202.48 71.6233 202.736 71.7673 203.08C71.9113 203.416 71.9833 203.848 71.9833 204.376V207.52C71.9833 207.704 71.9353 207.844 71.8393 207.94C71.7433 208.036 71.6113 208.084 71.4433 208.084C71.2673 208.084 71.1313 208.036 71.0353 207.94C70.9393 207.844 70.8913 207.704 70.8913 207.52V204.424C70.8913 203.912 70.8033 203.536 70.6273 203.296C70.4513 203.056 70.1553 202.936 69.7393 202.936C69.2833 202.936 68.9193 203.096 68.6473 203.416C68.3833 203.728 68.2513 204.16 68.2513 204.712V207.52C68.2513 207.704 68.2033 207.844 68.1073 207.94C68.0193 208.036 67.8873 208.084 67.7113 208.084C67.5353 208.084 67.3993 208.036 67.3033 207.94C67.2073 207.844 67.1593 207.704 67.1593 207.52V204.424C67.1593 203.912 67.0713 203.536 66.8953 203.296C66.7193 203.056 66.4233 202.936 66.0073 202.936C65.5513 202.936 65.1873 203.096 64.9153 203.416C64.6513 203.728 64.5193 204.16 64.5193 204.712V207.52C64.5193 207.896 64.3353 208.084 63.9673 208.084ZM76.4393 208.108C75.8073 208.108 75.2633 207.988 74.8073 207.748C74.3593 207.5 74.0113 207.152 73.7633 206.704C73.5153 206.248 73.3913 205.712 73.3913 205.096C73.3913 204.488 73.5113 203.956 73.7513 203.5C73.9993 203.044 74.3353 202.688 74.7593 202.432C75.1913 202.176 75.6833 202.048 76.2353 202.048C76.6273 202.048 76.9793 202.116 77.2913 202.252C77.6113 202.38 77.8833 202.568 78.1073 202.816C78.3313 203.064 78.4993 203.368 78.6113 203.728C78.7313 204.08 78.7913 204.48 78.7913 204.928C78.7913 205.056 78.7513 205.156 78.6713 205.228C78.5993 205.292 78.4913 205.324 78.3473 205.324H74.2433V204.628H78.0713L77.8673 204.796C77.8673 204.38 77.8033 204.028 77.6753 203.74C77.5553 203.444 77.3753 203.22 77.1353 203.068C76.9033 202.916 76.6113 202.84 76.2593 202.84C75.8753 202.84 75.5473 202.932 75.2753 203.116C75.0033 203.292 74.7953 203.544 74.6513 203.872C74.5073 204.192 74.4353 204.564 74.4353 204.988V205.06C74.4353 205.78 74.6073 206.324 74.9513 206.692C75.2953 207.06 75.7913 207.244 76.4393 207.244C76.6953 207.244 76.9553 207.212 77.2193 207.148C77.4913 207.084 77.7513 206.968 77.9993 206.8C78.1193 206.728 78.2273 206.696 78.3233 206.704C78.4273 206.704 78.5113 206.736 78.5753 206.8C78.6393 206.856 78.6793 206.928 78.6953 207.016C78.7113 207.096 78.6993 207.184 78.6593 207.28C78.6193 207.376 78.5433 207.46 78.4313 207.532C78.1673 207.716 77.8513 207.86 77.4833 207.964C77.1233 208.06 76.7753 208.108 76.4393 208.108Z" fill="#64728C"/>
<path d="M21.62 244C21.42 244 21.264 243.944 21.152 243.832C21.04 243.72 20.984 243.564 20.984 243.364V236.128C20.984 235.92 21.036 235.764 21.14 235.66C21.252 235.548 21.408 235.492 21.608 235.492C21.808 235.492 21.96 235.548 22.064 235.66C22.176 235.764 22.232 235.92 22.232 236.128V242.932H25.952C26.128 242.932 26.264 242.98 26.36 243.076C26.456 243.164 26.504 243.292 26.504 243.46C26.504 243.628 26.456 243.76 26.36 243.856C26.264 243.952 26.128 244 25.952 244H21.62ZM29.9585 244.108C29.3665 244.108 28.8545 243.984 28.4225 243.736C27.9985 243.488 27.6665 243.136 27.4265 242.68C27.1865 242.224 27.0665 241.688 27.0665 241.072C27.0665 240.6 27.1345 240.18 27.2705 239.812C27.4065 239.444 27.5985 239.128 27.8465 238.864C28.1025 238.592 28.4065 238.388 28.7585 238.252C29.1185 238.108 29.5185 238.036 29.9585 238.036C30.5425 238.036 31.0465 238.16 31.4705 238.408C31.9025 238.656 32.2385 239.008 32.4785 239.464C32.7185 239.912 32.8385 240.448 32.8385 241.072C32.8385 241.536 32.7705 241.956 32.6345 242.332C32.4985 242.708 32.3025 243.028 32.0465 243.292C31.7985 243.556 31.4945 243.76 31.1345 243.904C30.7825 244.04 30.3905 244.108 29.9585 244.108ZM29.9585 243.172C30.2865 243.172 30.5745 243.092 30.8225 242.932C31.0705 242.772 31.2625 242.536 31.3985 242.224C31.5425 241.912 31.6145 241.528 31.6145 241.072C31.6145 240.384 31.4625 239.864 31.1585 239.512C30.8545 239.16 30.4545 238.984 29.9585 238.984C29.6225 238.984 29.3305 239.064 29.0825 239.224C28.8345 239.376 28.6385 239.608 28.4945 239.92C28.3585 240.232 28.2905 240.616 28.2905 241.072C28.2905 241.752 28.4425 242.272 28.7465 242.632C29.0505 242.992 29.4545 243.172 29.9585 243.172ZM36.0717 244.108C35.6637 244.108 35.2957 244.028 34.9677 243.868C34.6477 243.708 34.3957 243.492 34.2117 243.22C34.0277 242.948 33.9357 242.64 33.9357 242.296C33.9357 241.864 34.0437 241.524 34.2597 241.276C34.4837 241.02 34.8477 240.84 35.3517 240.736C35.8637 240.624 36.5517 240.568 37.4157 240.568H37.9797V241.312H37.4277C36.8517 241.312 36.3957 241.34 36.0597 241.396C35.7237 241.452 35.4837 241.548 35.3397 241.684C35.2037 241.812 35.1357 241.992 35.1357 242.224C35.1357 242.528 35.2397 242.776 35.4477 242.968C35.6557 243.152 35.9437 243.244 36.3117 243.244C36.6077 243.244 36.8677 243.176 37.0917 243.04C37.3157 242.896 37.4917 242.704 37.6197 242.464C37.7557 242.224 37.8237 241.948 37.8237 241.636V240.256C37.8237 239.8 37.7277 239.472 37.5357 239.272C37.3437 239.072 37.0277 238.972 36.5877 238.972C36.3317 238.972 36.0637 239.004 35.7837 239.068C35.5117 239.132 35.2277 239.24 34.9317 239.392C34.7957 239.456 34.6797 239.476 34.5837 239.452C34.4877 239.428 34.4117 239.376 34.3557 239.296C34.2997 239.208 34.2677 239.116 34.2597 239.02C34.2597 238.916 34.2837 238.816 34.3317 238.72C34.3877 238.624 34.4797 238.552 34.6077 238.504C34.9597 238.336 35.3077 238.216 35.6517 238.144C35.9957 238.072 36.3197 238.036 36.6237 238.036C37.1597 238.036 37.5997 238.12 37.9437 238.288C38.2957 238.456 38.5557 238.712 38.7237 239.056C38.8917 239.4 38.9757 239.844 38.9757 240.388V243.472C38.9757 243.664 38.9277 243.816 38.8317 243.928C38.7357 244.032 38.5957 244.084 38.4117 244.084C38.2357 244.084 38.0957 244.032 37.9917 243.928C37.8877 243.816 37.8357 243.664 37.8357 243.472V242.692H37.9437C37.8797 242.988 37.7597 243.244 37.5837 243.46C37.4157 243.668 37.2037 243.828 36.9477 243.94C36.6917 244.052 36.3997 244.108 36.0717 244.108ZM43.225 244.108C42.625 244.108 42.105 243.984 41.665 243.736C41.233 243.48 40.897 243.124 40.657 242.668C40.417 242.204 40.297 241.66 40.297 241.036C40.297 240.572 40.365 240.156 40.501 239.788C40.637 239.412 40.829 239.096 41.077 238.84C41.333 238.584 41.641 238.388 42.001 238.252C42.369 238.108 42.777 238.036 43.225 238.036C43.505 238.036 43.797 238.08 44.101 238.168C44.413 238.248 44.701 238.384 44.965 238.576C45.069 238.64 45.133 238.72 45.157 238.816C45.189 238.904 45.193 238.996 45.169 239.092C45.153 239.188 45.109 239.272 45.037 239.344C44.973 239.408 44.893 239.448 44.797 239.464C44.701 239.472 44.597 239.444 44.485 239.38C44.293 239.244 44.097 239.148 43.897 239.092C43.697 239.028 43.505 238.996 43.321 238.996C43.033 238.996 42.777 239.044 42.553 239.14C42.337 239.228 42.153 239.36 42.001 239.536C41.849 239.704 41.733 239.916 41.653 240.172C41.581 240.428 41.545 240.72 41.545 241.048C41.545 241.704 41.697 242.22 42.001 242.596C42.313 242.964 42.753 243.148 43.321 243.148C43.505 243.148 43.697 243.12 43.897 243.064C44.097 243.008 44.293 242.912 44.485 242.776C44.597 242.712 44.701 242.688 44.797 242.704C44.893 242.72 44.969 242.764 45.025 242.836C45.089 242.9 45.129 242.98 45.145 243.076C45.169 243.164 45.165 243.256 45.133 243.352C45.101 243.448 45.033 243.528 44.929 243.592C44.673 243.776 44.393 243.908 44.089 243.988C43.793 244.068 43.505 244.108 43.225 244.108ZM48.7543 244.108C48.2743 244.108 47.8703 244.024 47.5423 243.856C47.2143 243.688 46.9703 243.44 46.8103 243.112C46.6503 242.784 46.5703 242.384 46.5703 241.912V239.08H45.8503C45.6903 239.08 45.5663 239.04 45.4783 238.96C45.3902 238.872 45.3462 238.756 45.3462 238.612C45.3462 238.46 45.3902 238.344 45.4783 238.264C45.5663 238.184 45.6903 238.144 45.8503 238.144H46.5703V236.908C46.5703 236.708 46.6223 236.556 46.7263 236.452C46.8383 236.348 46.9903 236.296 47.1823 236.296C47.3743 236.296 47.5223 236.348 47.6263 236.452C47.7303 236.556 47.7823 236.708 47.7823 236.908V238.144H49.1863C49.3463 238.144 49.4703 238.184 49.5583 238.264C49.6463 238.344 49.6903 238.46 49.6903 238.612C49.6903 238.756 49.6463 238.872 49.5583 238.96C49.4703 239.04 49.3463 239.08 49.1863 239.08H47.7823V241.816C47.7823 242.24 47.8703 242.56 48.0463 242.776C48.2303 242.992 48.5263 243.1 48.9342 243.1C49.0783 243.1 49.2023 243.088 49.3063 243.064C49.4183 243.032 49.5103 243.012 49.5823 243.004C49.6703 243.004 49.7423 243.036 49.7983 243.1C49.8543 243.156 49.8823 243.268 49.8823 243.436C49.8823 243.556 49.8583 243.668 49.8103 243.772C49.7703 243.876 49.6943 243.944 49.5823 243.976C49.4863 244.008 49.3543 244.036 49.1863 244.06C49.0263 244.092 48.8823 244.108 48.7543 244.108ZM51.3465 244.072C51.1545 244.072 51.0065 244.016 50.9025 243.904C50.7985 243.784 50.7465 243.62 50.7465 243.412V238.732C50.7465 238.524 50.7985 238.364 50.9025 238.252C51.0065 238.14 51.1545 238.084 51.3465 238.084C51.5385 238.084 51.6865 238.14 51.7905 238.252C51.9025 238.364 51.9585 238.524 51.9585 238.732V243.412C51.9585 243.62 51.9065 243.784 51.8025 243.904C51.6985 244.016 51.5465 244.072 51.3465 244.072ZM51.3465 236.836C51.1065 236.836 50.9185 236.776 50.7825 236.656C50.6545 236.536 50.5905 236.368 50.5905 236.152C50.5905 235.928 50.6545 235.76 50.7825 235.648C50.9185 235.528 51.1065 235.468 51.3465 235.468C51.5865 235.468 51.7705 235.528 51.8985 235.648C52.0345 235.76 52.1025 235.928 52.1025 236.152C52.1025 236.368 52.0345 236.536 51.8985 236.656C51.7705 236.776 51.5865 236.836 51.3465 236.836ZM56.2085 244.108C55.6165 244.108 55.1045 243.984 54.6725 243.736C54.2485 243.488 53.9165 243.136 53.6765 242.68C53.4365 242.224 53.3165 241.688 53.3165 241.072C53.3165 240.6 53.3845 240.18 53.5205 239.812C53.6565 239.444 53.8485 239.128 54.0965 238.864C54.3525 238.592 54.6565 238.388 55.0085 238.252C55.3685 238.108 55.7685 238.036 56.2085 238.036C56.7925 238.036 57.2965 238.16 57.7205 238.408C58.1525 238.656 58.4885 239.008 58.7285 239.464C58.9685 239.912 59.0885 240.448 59.0885 241.072C59.0885 241.536 59.0205 241.956 58.8845 242.332C58.7485 242.708 58.5525 243.028 58.2965 243.292C58.0485 243.556 57.7445 243.76 57.3845 243.904C57.0325 244.04 56.6405 244.108 56.2085 244.108ZM56.2085 243.172C56.5365 243.172 56.8245 243.092 57.0725 242.932C57.3205 242.772 57.5125 242.536 57.6485 242.224C57.7925 241.912 57.8645 241.528 57.8645 241.072C57.8645 240.384 57.7125 239.864 57.4085 239.512C57.1045 239.16 56.7045 238.984 56.2085 238.984C55.8725 238.984 55.5805 239.064 55.3325 239.224C55.0845 239.376 54.8885 239.608 54.7445 239.92C54.6085 240.232 54.5405 240.616 54.5405 241.072C54.5405 241.752 54.6925 242.272 54.9965 242.632C55.3005 242.992 55.7045 243.172 56.2085 243.172ZM61.0497 244.084C60.8577 244.084 60.7097 244.032 60.6057 243.928C60.5017 243.816 60.4497 243.664 60.4497 243.472V238.672C60.4497 238.472 60.5017 238.32 60.6057 238.216C60.7097 238.112 60.8537 238.06 61.0377 238.06C61.2297 238.06 61.3737 238.112 61.4697 238.216C61.5737 238.32 61.6257 238.472 61.6257 238.672V239.608L61.4937 239.392C61.6697 238.944 61.9457 238.608 62.3217 238.384C62.6977 238.152 63.1297 238.036 63.6177 238.036C64.0817 238.036 64.4657 238.124 64.7697 238.3C65.0817 238.468 65.3137 238.728 65.4657 239.08C65.6177 239.424 65.6937 239.86 65.6937 240.388V243.472C65.6937 243.664 65.6417 243.816 65.5377 243.928C65.4337 244.032 65.2857 244.084 65.0937 244.084C64.8937 244.084 64.7417 244.032 64.6377 243.928C64.5337 243.816 64.4817 243.664 64.4817 243.472V240.46C64.4817 239.956 64.3817 239.588 64.1817 239.356C63.9897 239.124 63.6857 239.008 63.2697 239.008C62.7817 239.008 62.3897 239.16 62.0937 239.464C61.8057 239.768 61.6617 240.176 61.6617 240.688V243.472C61.6617 243.88 61.4577 244.084 61.0497 244.084Z" fill="#64728C"/>
<rect x="12" y="260" width="284" height="32" rx="10" fill="white"/>
<path d="M23.792 280.108C23.416 280.108 23.052 280.076 22.7 280.012C22.348 279.956 22.016 279.868 21.704 279.748C21.392 279.628 21.112 279.48 20.864 279.304C20.76 279.232 20.684 279.144 20.636 279.04C20.596 278.936 20.584 278.836 20.6 278.74C20.624 278.636 20.668 278.548 20.732 278.476C20.804 278.404 20.888 278.36 20.984 278.344C21.08 278.328 21.184 278.36 21.296 278.44C21.664 278.688 22.048 278.868 22.448 278.98C22.856 279.092 23.304 279.148 23.792 279.148C24.496 279.148 25.012 279.02 25.34 278.764C25.676 278.508 25.844 278.172 25.844 277.756C25.844 277.412 25.724 277.144 25.484 276.952C25.244 276.752 24.84 276.596 24.272 276.484L23 276.22C22.248 276.06 21.684 275.796 21.308 275.428C20.94 275.06 20.756 274.568 20.756 273.952C20.756 273.576 20.832 273.236 20.984 272.932C21.136 272.62 21.352 272.352 21.632 272.128C21.912 271.904 22.24 271.732 22.616 271.612C23 271.492 23.424 271.432 23.888 271.432C24.384 271.432 24.848 271.5 25.28 271.636C25.72 271.772 26.116 271.972 26.468 272.236C26.564 272.308 26.628 272.396 26.66 272.5C26.692 272.596 26.696 272.692 26.672 272.788C26.656 272.884 26.612 272.964 26.54 273.028C26.476 273.092 26.392 273.128 26.288 273.136C26.192 273.144 26.084 273.108 25.964 273.028C25.644 272.804 25.316 272.644 24.98 272.548C24.644 272.444 24.276 272.392 23.876 272.392C23.468 272.392 23.112 272.456 22.808 272.584C22.512 272.712 22.28 272.892 22.112 273.124C21.952 273.348 21.872 273.612 21.872 273.916C21.872 274.284 21.984 274.572 22.208 274.78C22.432 274.988 22.808 275.148 23.336 275.26L24.596 275.512C25.396 275.68 25.988 275.94 26.372 276.292C26.764 276.636 26.96 277.1 26.96 277.684C26.96 278.052 26.884 278.384 26.732 278.68C26.588 278.976 26.38 279.232 26.108 279.448C25.836 279.656 25.504 279.82 25.112 279.94C24.72 280.052 24.28 280.108 23.792 280.108ZM30.382 280.108C29.91 280.108 29.514 280.02 29.194 279.844C28.882 279.668 28.65 279.408 28.498 279.064C28.346 278.72 28.27 278.288 28.27 277.768V274.624C28.27 274.44 28.314 274.304 28.402 274.216C28.498 274.12 28.634 274.072 28.81 274.072C28.986 274.072 29.122 274.12 29.218 274.216C29.314 274.304 29.362 274.44 29.362 274.624V277.768C29.362 278.264 29.462 278.632 29.662 278.872C29.862 279.104 30.178 279.22 30.61 279.22C31.09 279.22 31.478 279.06 31.774 278.74C32.078 278.42 32.23 277.996 32.23 277.468V274.624C32.23 274.44 32.274 274.304 32.362 274.216C32.458 274.12 32.594 274.072 32.77 274.072C32.946 274.072 33.082 274.12 33.178 274.216C33.274 274.304 33.322 274.44 33.322 274.624V279.52C33.322 279.896 33.146 280.084 32.794 280.084C32.618 280.084 32.482 280.036 32.386 279.94C32.298 279.844 32.254 279.704 32.254 279.52V278.476L32.41 278.68C32.25 279.144 31.99 279.5 31.63 279.748C31.278 279.988 30.862 280.108 30.382 280.108ZM38.1391 280.108C37.6111 280.108 37.1591 279.976 36.7831 279.712C36.4071 279.448 36.1551 279.092 36.0271 278.644L36.1591 278.464V279.52C36.1591 279.704 36.1111 279.844 36.0151 279.94C35.9271 280.036 35.7951 280.084 35.6191 280.084C35.4511 280.084 35.3191 280.036 35.2231 279.94C35.1271 279.844 35.0791 279.704 35.0791 279.52V272.008C35.0791 271.824 35.1271 271.688 35.2231 271.6C35.3191 271.504 35.4511 271.456 35.6191 271.456C35.7951 271.456 35.9311 271.504 36.0271 271.6C36.1231 271.688 36.1711 271.824 36.1711 272.008V275.476H36.0391C36.1671 275.044 36.4191 274.7 36.7951 274.444C37.1711 274.18 37.6191 274.048 38.1391 274.048C38.6591 274.048 39.1111 274.172 39.4951 274.42C39.8871 274.66 40.1871 275.008 40.3951 275.464C40.6111 275.912 40.7191 276.448 40.7191 277.072C40.7191 277.688 40.6111 278.228 40.3951 278.692C40.1791 279.148 39.8791 279.5 39.4951 279.748C39.1111 279.988 38.6591 280.108 38.1391 280.108ZM37.8871 279.244C38.2311 279.244 38.5311 279.16 38.7871 278.992C39.0511 278.824 39.2551 278.58 39.3991 278.26C39.5431 277.94 39.6151 277.544 39.6151 277.072C39.6151 276.368 39.4591 275.832 39.1471 275.464C38.8351 275.096 38.4151 274.912 37.8871 274.912C37.5351 274.912 37.2271 274.996 36.9631 275.164C36.7071 275.324 36.5071 275.564 36.3631 275.884C36.2271 276.204 36.1591 276.6 36.1591 277.072C36.1591 277.776 36.3151 278.316 36.6271 278.692C36.9391 279.06 37.3591 279.244 37.8871 279.244ZM48.767 280.108C48.207 280.108 47.711 280.036 47.279 279.892C46.855 279.74 46.499 279.52 46.211 279.232C45.923 278.936 45.703 278.572 45.551 278.14C45.407 277.7 45.335 277.192 45.335 276.616V272.02C45.335 271.828 45.383 271.688 45.479 271.6C45.575 271.504 45.711 271.456 45.887 271.456C46.071 271.456 46.211 271.504 46.307 271.6C46.403 271.688 46.451 271.828 46.451 272.02V276.58C46.451 277.436 46.647 278.076 47.039 278.5C47.431 278.916 48.007 279.124 48.767 279.124C49.527 279.124 50.103 278.916 50.495 278.5C50.887 278.076 51.083 277.436 51.083 276.58V272.02C51.083 271.828 51.131 271.688 51.227 271.6C51.323 271.504 51.459 271.456 51.635 271.456C51.811 271.456 51.947 271.504 52.043 271.6C52.139 271.688 52.187 271.828 52.187 272.02V276.616C52.187 277.376 52.055 278.016 51.791 278.536C51.535 279.056 51.151 279.448 50.639 279.712C50.135 279.976 49.511 280.108 48.767 280.108ZM54.5683 280.084C54.4003 280.084 54.2683 280.036 54.1723 279.94C54.0763 279.844 54.0283 279.704 54.0283 279.52V274.624C54.0283 274.44 54.0763 274.304 54.1723 274.216C54.2683 274.12 54.4003 274.072 54.5683 274.072C54.7363 274.072 54.8643 274.12 54.9523 274.216C55.0483 274.304 55.0963 274.44 55.0963 274.624V275.608L54.9643 275.428C55.1323 274.972 55.4043 274.628 55.7803 274.396C56.1643 274.164 56.6003 274.048 57.0883 274.048C57.5603 274.048 57.9483 274.132 58.2523 274.3C58.5563 274.468 58.7843 274.724 58.9363 275.068C59.0883 275.412 59.1643 275.848 59.1643 276.376V279.52C59.1643 279.704 59.1163 279.844 59.0203 279.94C58.9323 280.036 58.8003 280.084 58.6243 280.084C58.4483 280.084 58.3123 280.036 58.2163 279.94C58.1203 279.844 58.0723 279.704 58.0723 279.52V276.436C58.0723 275.916 57.9723 275.536 57.7723 275.296C57.5723 275.056 57.2523 274.936 56.8123 274.936C56.3003 274.936 55.8883 275.096 55.5763 275.416C55.2723 275.728 55.1203 276.152 55.1203 276.688V279.52C55.1203 279.896 54.9363 280.084 54.5683 280.084ZM61.4355 280.06C61.2675 280.06 61.1355 280.008 61.0395 279.904C60.9435 279.8 60.8955 279.656 60.8955 279.472V274.684C60.8955 274.492 60.9435 274.348 61.0395 274.252C61.1355 274.148 61.2675 274.096 61.4355 274.096C61.6115 274.096 61.7475 274.148 61.8435 274.252C61.9395 274.348 61.9875 274.492 61.9875 274.684V279.472C61.9875 279.656 61.9395 279.8 61.8435 279.904C61.7555 280.008 61.6195 280.06 61.4355 280.06ZM61.4355 272.8C61.2195 272.8 61.0475 272.744 60.9195 272.632C60.7995 272.512 60.7395 272.356 60.7395 272.164C60.7395 271.956 60.7995 271.8 60.9195 271.696C61.0475 271.584 61.2195 271.528 61.4355 271.528C61.6675 271.528 61.8395 271.584 61.9515 271.696C62.0715 271.8 62.1315 271.956 62.1315 272.164C62.1315 272.356 62.0715 272.512 61.9515 272.632C61.8395 272.744 61.6675 272.8 61.4355 272.8ZM66.1672 280.108C65.6952 280.108 65.2992 280.024 64.9792 279.856C64.6672 279.688 64.4312 279.444 64.2712 279.124C64.1192 278.804 64.0432 278.412 64.0432 277.948V274.996H63.2752C63.1312 274.996 63.0192 274.96 62.9392 274.888C62.8592 274.808 62.8192 274.704 62.8192 274.576C62.8192 274.44 62.8592 274.336 62.9392 274.264C63.0192 274.192 63.1312 274.156 63.2752 274.156H64.0432V272.848C64.0432 272.664 64.0912 272.528 64.1872 272.44C64.2832 272.344 64.4192 272.296 64.5952 272.296C64.7712 272.296 64.9032 272.344 64.9912 272.44C65.0872 272.528 65.1352 272.664 65.1352 272.848V274.156H66.5872C66.7392 274.156 66.8552 274.192 66.9352 274.264C67.0152 274.336 67.0552 274.44 67.0552 274.576C67.0552 274.704 67.0152 274.808 66.9352 274.888C66.8552 274.96 66.7392 274.996 66.5872 274.996H65.1352V277.852C65.1352 278.292 65.2272 278.624 65.4112 278.848C65.5952 279.072 65.8992 279.184 66.3232 279.184C66.4752 279.184 66.6032 279.172 66.7072 279.148C66.8112 279.116 66.9032 279.1 66.9832 279.1C67.0552 279.092 67.1152 279.116 67.1632 279.172C67.2192 279.228 67.2472 279.332 67.2472 279.484C67.2472 279.596 67.2272 279.7 67.1872 279.796C67.1552 279.884 67.0872 279.944 66.9832 279.976C66.8872 280.008 66.7592 280.036 66.5992 280.06C66.4392 280.092 66.2952 280.108 66.1672 280.108Z" fill="#64728C"/>
</g>
</g>
<rect x="4.5" y="72.5" width="299" height="231" rx="13.5" stroke="#64728C" stroke-opacity="0.2"/>
</g>
<rect x="3.5" y="21.5" width="299" height="44" rx="11.5" fill="white"/>
<rect x="3.5" y="21.5" width="299" height="44" rx="11.5" stroke="#E8EAEF"/>
<path d="M16.78 47.608C16.404 47.608 16.036 47.576 15.676 47.512C15.316 47.448 14.98 47.356 14.668 47.236C14.364 47.116 14.088 46.964 13.84 46.78C13.744 46.708 13.676 46.628 13.636 46.54C13.604 46.444 13.596 46.352 13.612 46.264C13.636 46.168 13.676 46.088 13.732 46.024C13.796 45.96 13.872 45.924 13.96 45.916C14.048 45.908 14.144 45.936 14.248 46C14.608 46.256 14.992 46.444 15.4 46.564C15.808 46.676 16.268 46.732 16.78 46.732C17.5 46.732 18.032 46.6 18.376 46.336C18.728 46.064 18.904 45.708 18.904 45.268C18.904 44.908 18.776 44.628 18.52 44.428C18.272 44.22 17.852 44.056 17.26 43.936L16.012 43.684C15.26 43.524 14.696 43.264 14.32 42.904C13.952 42.536 13.768 42.048 13.768 41.44C13.768 41.064 13.844 40.724 13.996 40.42C14.148 40.108 14.36 39.844 14.632 39.628C14.904 39.404 15.228 39.232 15.604 39.112C15.98 38.992 16.396 38.932 16.852 38.932C17.356 38.932 17.824 39.004 18.256 39.148C18.696 39.284 19.092 39.492 19.444 39.772C19.532 39.844 19.592 39.928 19.624 40.024C19.656 40.112 19.66 40.2 19.636 40.288C19.612 40.368 19.568 40.436 19.504 40.492C19.448 40.548 19.372 40.58 19.276 40.588C19.188 40.596 19.088 40.564 18.976 40.492C18.656 40.252 18.324 40.08 17.98 39.976C17.636 39.864 17.256 39.808 16.84 39.808C16.416 39.808 16.048 39.872 15.736 40C15.432 40.128 15.192 40.316 15.016 40.564C14.848 40.804 14.764 41.084 14.764 41.404C14.764 41.788 14.88 42.092 15.112 42.316C15.352 42.54 15.74 42.704 16.276 42.808L17.524 43.072C18.332 43.24 18.928 43.496 19.312 43.84C19.704 44.176 19.9 44.636 19.9 45.22C19.9 45.572 19.828 45.896 19.684 46.192C19.54 46.488 19.332 46.744 19.06 46.96C18.788 47.168 18.46 47.328 18.076 47.44C17.692 47.552 17.26 47.608 16.78 47.608ZM23.9228 47.608C23.3068 47.608 22.7748 47.488 22.3268 47.248C21.8868 47 21.5428 46.652 21.2948 46.204C21.0548 45.756 20.9348 45.22 20.9348 44.596C20.9348 43.988 21.0548 43.46 21.2948 43.012C21.5348 42.556 21.8628 42.2 22.2788 41.944C22.7028 41.688 23.1908 41.56 23.7428 41.56C24.1348 41.56 24.4868 41.628 24.7988 41.764C25.1108 41.892 25.3748 42.08 25.5908 42.328C25.8148 42.576 25.9828 42.876 26.0948 43.228C26.2148 43.58 26.2748 43.976 26.2748 44.416C26.2748 44.544 26.2388 44.64 26.1668 44.704C26.0948 44.76 25.9908 44.788 25.8548 44.788H21.6788V44.152H25.6268L25.4348 44.308C25.4348 43.876 25.3708 43.512 25.2428 43.216C25.1148 42.912 24.9268 42.68 24.6788 42.52C24.4388 42.36 24.1348 42.28 23.7668 42.28C23.3588 42.28 23.0108 42.376 22.7228 42.568C22.4428 42.752 22.2308 43.012 22.0868 43.348C21.9428 43.676 21.8708 44.06 21.8708 44.5V44.572C21.8708 45.308 22.0468 45.868 22.3988 46.252C22.7588 46.636 23.2668 46.828 23.9228 46.828C24.1948 46.828 24.4628 46.792 24.7268 46.72C24.9988 46.648 25.2628 46.528 25.5188 46.36C25.6308 46.288 25.7308 46.256 25.8188 46.264C25.9148 46.264 25.9908 46.292 26.0468 46.348C26.1028 46.396 26.1388 46.46 26.1548 46.54C26.1788 46.612 26.1708 46.692 26.1308 46.78C26.0988 46.868 26.0308 46.944 25.9268 47.008C25.6628 47.2 25.3508 47.348 24.9908 47.452C24.6308 47.556 24.2748 47.608 23.9228 47.608ZM29.4575 47.608C28.8815 47.608 28.4415 47.432 28.1375 47.08C27.8335 46.728 27.6815 46.224 27.6815 45.568V39.448C27.6815 39.288 27.7215 39.168 27.8015 39.088C27.8815 39 28.0015 38.956 28.1615 38.956C28.3135 38.956 28.4335 39 28.5215 39.088C28.6095 39.168 28.6535 39.288 28.6535 39.448V45.496C28.6535 45.928 28.7375 46.252 28.9055 46.468C29.0815 46.676 29.3375 46.78 29.6735 46.78C29.7455 46.78 29.8095 46.776 29.8655 46.768C29.9215 46.76 29.9775 46.756 30.0335 46.756C30.1215 46.748 30.1815 46.768 30.2135 46.816C30.2535 46.864 30.2735 46.96 30.2735 47.104C30.2735 47.248 30.2415 47.356 30.1775 47.428C30.1135 47.5 30.0095 47.548 29.8655 47.572C29.8015 47.58 29.7335 47.588 29.6615 47.596C29.5895 47.604 29.5215 47.608 29.4575 47.608ZM33.8017 47.608C33.1857 47.608 32.6537 47.488 32.2057 47.248C31.7657 47 31.4217 46.652 31.1737 46.204C30.9337 45.756 30.8137 45.22 30.8137 44.596C30.8137 43.988 30.9337 43.46 31.1737 43.012C31.4137 42.556 31.7417 42.2 32.1577 41.944C32.5817 41.688 33.0697 41.56 33.6217 41.56C34.0137 41.56 34.3657 41.628 34.6777 41.764C34.9897 41.892 35.2537 42.08 35.4697 42.328C35.6937 42.576 35.8617 42.876 35.9737 43.228C36.0937 43.58 36.1537 43.976 36.1537 44.416C36.1537 44.544 36.1177 44.64 36.0457 44.704C35.9737 44.76 35.8697 44.788 35.7337 44.788H31.5577V44.152H35.5057L35.3137 44.308C35.3137 43.876 35.2497 43.512 35.1217 43.216C34.9937 42.912 34.8057 42.68 34.5577 42.52C34.3177 42.36 34.0137 42.28 33.6457 42.28C33.2377 42.28 32.8897 42.376 32.6017 42.568C32.3217 42.752 32.1097 43.012 31.9657 43.348C31.8217 43.676 31.7497 44.06 31.7497 44.5V44.572C31.7497 45.308 31.9257 45.868 32.2777 46.252C32.6377 46.636 33.1457 46.828 33.8017 46.828C34.0737 46.828 34.3417 46.792 34.6057 46.72C34.8777 46.648 35.1417 46.528 35.3977 46.36C35.5097 46.288 35.6097 46.256 35.6977 46.264C35.7937 46.264 35.8697 46.292 35.9257 46.348C35.9817 46.396 36.0177 46.46 36.0337 46.54C36.0577 46.612 36.0497 46.692 36.0097 46.78C35.9777 46.868 35.9097 46.944 35.8057 47.008C35.5417 47.2 35.2297 47.348 34.8697 47.452C34.5097 47.556 34.1537 47.608 33.8017 47.608ZM40.0324 47.608C39.4484 47.608 38.9444 47.48 38.5204 47.224C38.0964 46.968 37.7684 46.612 37.5364 46.156C37.3124 45.692 37.2004 45.156 37.2004 44.548C37.2004 44.084 37.2644 43.668 37.3924 43.3C37.5204 42.932 37.7084 42.62 37.9564 42.364C38.2044 42.1 38.5004 41.9 38.8444 41.764C39.1964 41.628 39.5924 41.56 40.0324 41.56C40.3204 41.56 40.6204 41.604 40.9324 41.692C41.2444 41.78 41.5284 41.932 41.7844 42.148C41.8644 42.204 41.9164 42.272 41.9404 42.352C41.9644 42.432 41.9644 42.512 41.9404 42.592C41.9164 42.664 41.8764 42.728 41.8204 42.784C41.7644 42.832 41.6924 42.86 41.6044 42.868C41.5244 42.876 41.4404 42.848 41.3524 42.784C41.1444 42.624 40.9324 42.512 40.7164 42.448C40.5004 42.384 40.2924 42.352 40.0924 42.352C39.7804 42.352 39.5084 42.404 39.2764 42.508C39.0444 42.604 38.8484 42.744 38.6884 42.928C38.5284 43.112 38.4044 43.34 38.3164 43.612C38.2364 43.884 38.1964 44.2 38.1964 44.56C38.1964 45.256 38.3604 45.808 38.6884 46.216C39.0164 46.616 39.4844 46.816 40.0924 46.816C40.2924 46.816 40.4964 46.784 40.7044 46.72C40.9204 46.656 41.1364 46.544 41.3524 46.384C41.4404 46.32 41.5244 46.292 41.6044 46.3C41.6844 46.308 41.7524 46.34 41.8084 46.396C41.8644 46.444 41.9004 46.508 41.9164 46.588C41.9404 46.668 41.9404 46.748 41.9164 46.828C41.8924 46.9 41.8404 46.964 41.7604 47.02C41.5044 47.228 41.2244 47.38 40.9204 47.476C40.6164 47.564 40.3204 47.608 40.0324 47.608ZM45.4551 47.608C44.9991 47.608 44.6151 47.528 44.3031 47.368C43.9991 47.2 43.7711 46.96 43.6191 46.648C43.4671 46.328 43.3911 45.94 43.3911 45.484V42.424H42.5871C42.4511 42.424 42.3471 42.392 42.2751 42.328C42.2031 42.256 42.1671 42.16 42.1671 42.04C42.1671 41.92 42.2031 41.828 42.2751 41.764C42.3471 41.7 42.4511 41.668 42.5871 41.668H43.3911V40.288C43.3911 40.128 43.4351 40.008 43.5231 39.928C43.6111 39.84 43.7311 39.796 43.8831 39.796C44.0351 39.796 44.1511 39.84 44.2311 39.928C44.3191 40.008 44.3631 40.128 44.3631 40.288V41.668H45.8751C46.0111 41.668 46.1151 41.7 46.1871 41.764C46.2591 41.828 46.2951 41.92 46.2951 42.04C46.2951 42.16 46.2591 42.256 46.1871 42.328C46.1151 42.392 46.0111 42.424 45.8751 42.424H44.3631V45.388C44.3631 45.844 44.4591 46.192 44.6511 46.432C44.8431 46.664 45.1551 46.78 45.5871 46.78C45.7391 46.78 45.8671 46.764 45.9711 46.732C46.0831 46.7 46.1751 46.684 46.2471 46.684C46.3191 46.676 46.3791 46.7 46.4271 46.756C46.4751 46.812 46.4991 46.908 46.4991 47.044C46.4991 47.14 46.4791 47.228 46.4391 47.308C46.4071 47.388 46.3471 47.444 46.2591 47.476C46.1631 47.508 46.0351 47.536 45.8751 47.56C45.7231 47.592 45.5831 47.608 45.4551 47.608ZM51.1962 47.584C51.0442 47.584 50.9242 47.54 50.8362 47.452C50.7562 47.364 50.7162 47.24 50.7162 47.08V42.424H49.9482C49.8202 42.424 49.7162 42.392 49.6362 42.328C49.5642 42.256 49.5282 42.16 49.5282 42.04C49.5282 41.92 49.5642 41.828 49.6362 41.764C49.7162 41.7 49.8202 41.668 49.9482 41.668H50.9802L50.7162 41.92V41.464C50.7162 40.712 50.8962 40.136 51.2562 39.736C51.6242 39.336 52.1642 39.108 52.8762 39.052L53.2362 39.016C53.3562 39.008 53.4522 39.028 53.5242 39.076C53.5962 39.116 53.6402 39.172 53.6562 39.244C53.6802 39.316 53.6842 39.392 53.6682 39.472C53.6522 39.552 53.6162 39.62 53.5602 39.676C53.5122 39.732 53.4522 39.764 53.3802 39.772L53.0202 39.796C52.5482 39.828 52.2082 39.976 52.0002 40.24C51.7922 40.496 51.6882 40.864 51.6882 41.344V41.848L51.5442 41.668H54.8082C54.9602 41.668 55.0762 41.712 55.1562 41.8C55.2442 41.888 55.2882 42.016 55.2882 42.184V47.032C55.2882 47.2 55.2482 47.332 55.1682 47.428C55.0882 47.516 54.9682 47.56 54.8082 47.56C54.6482 47.56 54.5242 47.516 54.4362 47.428C54.3562 47.332 54.3162 47.2 54.3162 47.032V42.424H51.6882V47.08C51.6882 47.416 51.5242 47.584 51.1962 47.584ZM54.8202 40.264C54.6202 40.264 54.4642 40.212 54.3522 40.108C54.2482 39.996 54.1962 39.848 54.1962 39.664C54.1962 39.472 54.2482 39.328 54.3522 39.232C54.4642 39.128 54.6202 39.076 54.8202 39.076C55.0202 39.076 55.1722 39.128 55.2762 39.232C55.3882 39.328 55.4442 39.472 55.4442 39.664C55.4442 39.848 55.3882 39.996 55.2762 40.108C55.1722 40.212 55.0202 40.264 54.8202 40.264ZM59.7353 47.608C59.1193 47.608 58.5873 47.488 58.1393 47.248C57.6993 47 57.3553 46.652 57.1073 46.204C56.8673 45.756 56.7473 45.22 56.7473 44.596C56.7473 43.988 56.8673 43.46 57.1073 43.012C57.3473 42.556 57.6753 42.2 58.0913 41.944C58.5153 41.688 59.0033 41.56 59.5553 41.56C59.9473 41.56 60.2993 41.628 60.6113 41.764C60.9233 41.892 61.1873 42.08 61.4033 42.328C61.6273 42.576 61.7953 42.876 61.9073 43.228C62.0273 43.58 62.0873 43.976 62.0873 44.416C62.0873 44.544 62.0513 44.64 61.9793 44.704C61.9073 44.76 61.8033 44.788 61.6673 44.788H57.4913V44.152H61.4393L61.2473 44.308C61.2473 43.876 61.1833 43.512 61.0553 43.216C60.9273 42.912 60.7393 42.68 60.4913 42.52C60.2513 42.36 59.9473 42.28 59.5793 42.28C59.1713 42.28 58.8233 42.376 58.5353 42.568C58.2553 42.752 58.0433 43.012 57.8993 43.348C57.7553 43.676 57.6833 44.06 57.6833 44.5V44.572C57.6833 45.308 57.8593 45.868 58.2113 46.252C58.5713 46.636 59.0793 46.828 59.7353 46.828C60.0073 46.828 60.2753 46.792 60.5393 46.72C60.8113 46.648 61.0753 46.528 61.3313 46.36C61.4433 46.288 61.5433 46.256 61.6313 46.264C61.7273 46.264 61.8033 46.292 61.8593 46.348C61.9153 46.396 61.9513 46.46 61.9673 46.54C61.9913 46.612 61.9833 46.692 61.9433 46.78C61.9113 46.868 61.8433 46.944 61.7393 47.008C61.4753 47.2 61.1633 47.348 60.8033 47.452C60.4433 47.556 60.0873 47.608 59.7353 47.608ZM65.27 47.608C64.694 47.608 64.254 47.432 63.95 47.08C63.646 46.728 63.494 46.224 63.494 45.568V39.448C63.494 39.288 63.534 39.168 63.614 39.088C63.694 39 63.814 38.956 63.974 38.956C64.126 38.956 64.246 39 64.334 39.088C64.422 39.168 64.466 39.288 64.466 39.448V45.496C64.466 45.928 64.55 46.252 64.718 46.468C64.894 46.676 65.15 46.78 65.486 46.78C65.558 46.78 65.622 46.776 65.678 46.768C65.734 46.76 65.79 46.756 65.846 46.756C65.934 46.748 65.994 46.768 66.026 46.816C66.066 46.864 66.086 46.96 66.086 47.104C66.086 47.248 66.054 47.356 65.99 47.428C65.926 47.5 65.822 47.548 65.678 47.572C65.614 47.58 65.546 47.588 65.474 47.596C65.402 47.604 65.334 47.608 65.27 47.608ZM69.2062 47.608C68.6862 47.608 68.2302 47.484 67.8382 47.236C67.4542 46.988 67.1542 46.64 66.9382 46.192C66.7302 45.736 66.6262 45.2 66.6262 44.584C66.6262 43.96 66.7302 43.424 66.9382 42.976C67.1542 42.52 67.4542 42.172 67.8382 41.932C68.2302 41.684 68.6862 41.56 69.2062 41.56C69.7342 41.56 70.1862 41.692 70.5622 41.956C70.9382 42.22 71.1902 42.576 71.3182 43.024H71.1862V39.448C71.1862 39.288 71.2262 39.168 71.3062 39.088C71.3942 39 71.5182 38.956 71.6782 38.956C71.8302 38.956 71.9462 39 72.0262 39.088C72.1142 39.168 72.1582 39.288 72.1582 39.448V47.08C72.1582 47.24 72.1182 47.364 72.0382 47.452C71.9582 47.54 71.8382 47.584 71.6782 47.584C71.5262 47.584 71.4062 47.54 71.3182 47.452C71.2382 47.364 71.1982 47.24 71.1982 47.08V45.94L71.3302 46.108C71.2022 46.564 70.9462 46.928 70.5622 47.2C70.1862 47.472 69.7342 47.608 69.2062 47.608ZM69.4102 46.828C69.7702 46.828 70.0862 46.74 70.3582 46.564C70.6302 46.388 70.8382 46.132 70.9822 45.796C71.1342 45.46 71.2102 45.056 71.2102 44.584C71.2102 43.856 71.0462 43.3 70.7182 42.916C70.3982 42.532 69.9622 42.34 69.4102 42.34C69.0422 42.34 68.7222 42.428 68.4502 42.604C68.1862 42.772 67.9782 43.024 67.8262 43.36C67.6822 43.688 67.6102 44.096 67.6102 44.584C67.6102 45.304 67.7742 45.86 68.1022 46.252C68.4302 46.636 68.8662 46.828 69.4102 46.828Z" fill="#929BAA"/>
<rect x="263" y="25.5" width="36" height="36" rx="12" fill="#64728C" fill-opacity="0.12"/>
<path d="M282.039 48.2C281.577 49 280.423 49 279.961 48.2L276.843 42.8C276.381 42 276.959 41 277.882 41L284.118 41C285.041 41 285.619 42 285.157 42.8L282.039 48.2Z" fill="#64728C"/>
<path d="M4.656 12C4.44 12 4.272 11.944 4.152 11.832C4.04 11.712 3.984 11.544 3.984 11.328V4.212C3.984 3.996 4.04 3.832 4.152 3.72C4.272 3.6 4.44 3.54 4.656 3.54H6.972C8.364 3.54 9.436 3.904 10.188 4.632C10.948 5.352 11.328 6.396 11.328 7.764C11.328 8.444 11.232 9.048 11.04 9.576C10.848 10.104 10.564 10.548 10.188 10.908C9.82 11.26 9.368 11.532 8.832 11.724C8.296 11.908 7.676 12 6.972 12H4.656ZM5.232 10.956H6.9C7.428 10.956 7.884 10.892 8.268 10.764C8.66 10.628 8.988 10.428 9.252 10.164C9.516 9.9 9.712 9.568 9.84 9.168C9.968 8.768 10.032 8.3 10.032 7.764C10.032 6.7 9.768 5.904 9.24 5.376C8.72 4.848 7.94 4.584 6.9 4.584H5.232V10.956ZM13.4757 12.084C13.2757 12.084 13.1237 12.032 13.0197 11.928C12.9157 11.816 12.8637 11.664 12.8637 11.472V6.672C12.8637 6.472 12.9157 6.32 13.0197 6.216C13.1237 6.112 13.2677 6.06 13.4517 6.06C13.6437 6.06 13.7877 6.112 13.8837 6.216C13.9877 6.32 14.0397 6.472 14.0397 6.672V7.548H13.9197C14.0477 7.068 14.2837 6.704 14.6277 6.456C14.9717 6.208 15.4117 6.064 15.9477 6.024C16.0917 6.016 16.2037 6.052 16.2837 6.132C16.3717 6.212 16.4197 6.336 16.4277 6.504C16.4437 6.672 16.4077 6.808 16.3197 6.912C16.2317 7.008 16.0957 7.064 15.9117 7.08L15.6837 7.104C15.1637 7.152 14.7677 7.316 14.4957 7.596C14.2237 7.876 14.0877 8.26 14.0877 8.748V11.472C14.0877 11.664 14.0357 11.816 13.9317 11.928C13.8357 12.032 13.6837 12.084 13.4757 12.084ZM19.8023 12.108C19.2103 12.108 18.6983 11.984 18.2663 11.736C17.8423 11.488 17.5103 11.136 17.2703 10.68C17.0303 10.224 16.9103 9.688 16.9103 9.072C16.9103 8.6 16.9783 8.18 17.1143 7.812C17.2503 7.444 17.4423 7.128 17.6903 6.864C17.9463 6.592 18.2503 6.388 18.6023 6.252C18.9623 6.108 19.3623 6.036 19.8023 6.036C20.3863 6.036 20.8903 6.16 21.3143 6.408C21.7463 6.656 22.0823 7.008 22.3223 7.464C22.5623 7.912 22.6823 8.448 22.6823 9.072C22.6823 9.536 22.6143 9.956 22.4783 10.332C22.3423 10.708 22.1463 11.028 21.8903 11.292C21.6423 11.556 21.3383 11.76 20.9783 11.904C20.6263 12.04 20.2343 12.108 19.8023 12.108ZM19.8023 11.172C20.1303 11.172 20.4183 11.092 20.6663 10.932C20.9143 10.772 21.1063 10.536 21.2423 10.224C21.3863 9.912 21.4583 9.528 21.4583 9.072C21.4583 8.384 21.3063 7.864 21.0023 7.512C20.6983 7.16 20.2983 6.984 19.8023 6.984C19.4663 6.984 19.1743 7.064 18.9263 7.224C18.6783 7.376 18.4823 7.608 18.3383 7.92C18.2023 8.232 18.1343 8.616 18.1343 9.072C18.1343 9.752 18.2863 10.272 18.5903 10.632C18.8943 10.992 19.2983 11.172 19.8023 11.172ZM24.6434 14.244C24.4514 14.244 24.3034 14.192 24.1994 14.088C24.0954 13.984 24.0434 13.832 24.0434 13.632V6.672C24.0434 6.472 24.0954 6.32 24.1994 6.216C24.3034 6.112 24.4474 6.06 24.6314 6.06C24.8234 6.06 24.9714 6.112 25.0754 6.216C25.1794 6.32 25.2314 6.472 25.2314 6.672V7.716L25.0994 7.464C25.2274 7.032 25.4794 6.688 25.8554 6.432C26.2314 6.168 26.6754 6.036 27.1874 6.036C27.7074 6.036 28.1594 6.16 28.5434 6.408C28.9354 6.656 29.2354 7.004 29.4434 7.452C29.6594 7.9 29.7674 8.44 29.7674 9.072C29.7674 9.688 29.6594 10.228 29.4434 10.692C29.2354 11.148 28.9394 11.5 28.5554 11.748C28.1714 11.988 27.7154 12.108 27.1874 12.108C26.6834 12.108 26.2434 11.98 25.8674 11.724C25.4914 11.468 25.2394 11.128 25.1114 10.704H25.2554V13.632C25.2554 13.832 25.1994 13.984 25.0874 14.088C24.9834 14.192 24.8354 14.244 24.6434 14.244ZM26.8874 11.172C27.2234 11.172 27.5154 11.092 27.7634 10.932C28.0114 10.772 28.2034 10.536 28.3394 10.224C28.4754 9.912 28.5434 9.528 28.5434 9.072C28.5434 8.384 28.3914 7.864 28.0874 7.512C27.7914 7.16 27.3914 6.984 26.8874 6.984C26.5594 6.984 26.2674 7.064 26.0114 7.224C25.7634 7.376 25.5714 7.608 25.4354 7.92C25.2994 8.232 25.2314 8.616 25.2314 9.072C25.2314 9.752 25.3834 10.272 25.6874 10.632C25.9914 10.992 26.3914 11.172 26.8874 11.172ZM33.3652 12.108C32.8533 12.108 32.4013 11.988 32.0093 11.748C31.6253 11.5 31.3253 11.148 31.1093 10.692C30.8933 10.228 30.7853 9.688 30.7853 9.072C30.7853 8.44 30.8933 7.9 31.1093 7.452C31.3253 7.004 31.6253 6.656 32.0093 6.408C32.4013 6.16 32.8533 6.036 33.3652 6.036C33.8773 6.036 34.3173 6.164 34.6853 6.42C35.0613 6.668 35.3133 7.004 35.4413 7.428H35.3093V4.068C35.3093 3.868 35.3613 3.716 35.4653 3.612C35.5693 3.508 35.7173 3.456 35.9093 3.456C36.1013 3.456 36.2493 3.508 36.3533 3.612C36.4653 3.716 36.5213 3.868 36.5213 4.068V11.472C36.5213 11.664 36.4693 11.816 36.3653 11.928C36.2613 12.032 36.1133 12.084 35.9213 12.084C35.7293 12.084 35.5813 12.032 35.4773 11.928C35.3733 11.816 35.3213 11.664 35.3213 11.472V10.416L35.4533 10.68C35.3253 11.112 35.0733 11.46 34.6973 11.724C34.3293 11.98 33.8853 12.108 33.3652 12.108ZM33.6773 11.172C34.0053 11.172 34.2933 11.092 34.5413 10.932C34.7893 10.772 34.9813 10.536 35.1173 10.224C35.2613 9.912 35.3333 9.528 35.3333 9.072C35.3333 8.384 35.1813 7.864 34.8773 7.512C34.5733 7.16 34.1733 6.984 33.6773 6.984C33.3413 6.984 33.0493 7.064 32.8013 7.224C32.5533 7.376 32.3573 7.608 32.2133 7.92C32.0773 8.232 32.0093 8.616 32.0093 9.072C32.0093 9.752 32.1613 10.272 32.4653 10.632C32.7693 10.992 33.1733 11.172 33.6773 11.172ZM40.7671 12.108C40.1751 12.108 39.6631 11.984 39.2311 11.736C38.8071 11.488 38.4751 11.136 38.2351 10.68C37.9951 10.224 37.8751 9.688 37.8751 9.072C37.8751 8.6 37.9431 8.18 38.0791 7.812C38.2151 7.444 38.4071 7.128 38.6551 6.864C38.9111 6.592 39.2151 6.388 39.5671 6.252C39.9271 6.108 40.3271 6.036 40.7671 6.036C41.3511 6.036 41.8551 6.16 42.2791 6.408C42.7111 6.656 43.0471 7.008 43.2871 7.464C43.5271 7.912 43.6471 8.448 43.6471 9.072C43.6471 9.536 43.5791 9.956 43.4431 10.332C43.3071 10.708 43.1111 11.028 42.8551 11.292C42.6071 11.556 42.3031 11.76 41.9431 11.904C41.5911 12.04 41.1991 12.108 40.7671 12.108ZM40.7671 11.172C41.0951 11.172 41.3831 11.092 41.6311 10.932C41.8791 10.772 42.0711 10.536 42.2071 10.224C42.3511 9.912 42.4231 9.528 42.4231 9.072C42.4231 8.384 42.2711 7.864 41.9671 7.512C41.6631 7.16 41.2631 6.984 40.7671 6.984C40.4311 6.984 40.1391 7.064 39.8911 7.224C39.6431 7.376 39.4471 7.608 39.3031 7.92C39.1671 8.232 39.0991 8.616 39.0991 9.072C39.0991 9.752 39.2511 10.272 39.5551 10.632C39.8591 10.992 40.2631 11.172 40.7671 11.172ZM47.0388 12.084C46.8708 12.084 46.7228 12.044 46.5948 11.964C46.4748 11.876 46.3788 11.74 46.3068 11.556L44.5428 6.888C44.4788 6.728 44.4588 6.588 44.4828 6.468C44.5068 6.34 44.5668 6.24 44.6628 6.168C44.7668 6.096 44.8988 6.06 45.0588 6.06C45.2028 6.06 45.3188 6.096 45.4068 6.168C45.5028 6.232 45.5828 6.36 45.6468 6.552L47.2188 10.98H46.9308L48.5628 6.504C48.6188 6.352 48.6948 6.24 48.7908 6.168C48.8868 6.096 49.0108 6.06 49.1628 6.06C49.3148 6.06 49.4388 6.096 49.5348 6.168C49.6388 6.24 49.7148 6.352 49.7628 6.504L51.3588 10.98H51.0948L52.6908 6.528C52.7548 6.344 52.8348 6.22 52.9308 6.156C53.0348 6.092 53.1508 6.06 53.2788 6.06C53.4388 6.06 53.5588 6.1 53.6388 6.18C53.7268 6.26 53.7748 6.364 53.7828 6.492C53.7988 6.612 53.7788 6.744 53.7228 6.888L51.9588 11.556C51.8868 11.732 51.7868 11.864 51.6588 11.952C51.5388 12.04 51.3988 12.084 51.2388 12.084C51.0708 12.084 50.9228 12.04 50.7948 11.952C50.6748 11.864 50.5788 11.732 50.5068 11.556L48.8268 7.008H49.4268L47.7588 11.556C47.6948 11.732 47.5988 11.864 47.4708 11.952C47.3508 12.04 47.2068 12.084 47.0388 12.084ZM55.6512 12.084C55.4592 12.084 55.3112 12.032 55.2072 11.928C55.1032 11.816 55.0512 11.664 55.0512 11.472V6.672C55.0512 6.472 55.1032 6.32 55.2072 6.216C55.3112 6.112 55.4552 6.06 55.6392 6.06C55.8312 6.06 55.9752 6.112 56.0712 6.216C56.1752 6.32 56.2272 6.472 56.2272 6.672V7.608L56.0952 7.392C56.2712 6.944 56.5472 6.608 56.9232 6.384C57.2992 6.152 57.7312 6.036 58.2192 6.036C58.6832 6.036 59.0672 6.124 59.3712 6.3C59.6832 6.468 59.9152 6.728 60.0672 7.08C60.2192 7.424 60.2952 7.86 60.2952 8.388V11.472C60.2952 11.664 60.2432 11.816 60.1392 11.928C60.0352 12.032 59.8872 12.084 59.6952 12.084C59.4952 12.084 59.3432 12.032 59.2392 11.928C59.1352 11.816 59.0832 11.664 59.0832 11.472V8.46C59.0832 7.956 58.9832 7.588 58.7832 7.356C58.5912 7.124 58.2872 7.008 57.8712 7.008C57.3832 7.008 56.9912 7.16 56.6952 7.464C56.4072 7.768 56.2632 8.176 56.2632 8.688V11.472C56.2632 11.88 56.0592 12.084 55.6512 12.084Z" fill="#64728C"/>
<defs>
<filter id="filter0_d_553_3579" x="0" y="72" width="308" height="240" filterUnits="userSpaceOnUse" color-interpolation-filters="sRGB">
<feFlood flood-opacity="0" result="BackgroundImageFix"/>
<feColorMatrix in="SourceAlpha" type="matrix" values="0 0 0 0 0 0 0 0 0 0 0 0 0 0 0 0 0 0 127 0" result="hardAlpha"/>
<feOffset dy="4"/>
<feGaussianBlur stdDeviation="2"/>
<feComposite in2="hardAlpha" operator="out"/>
<feColorMatrix type="matrix" values="0 0 0 0 0 0 0 0 0 0 0 0 0 0 0 0 0 0 0.05 0"/>
<feBlend mode="normal" in2="BackgroundImageFix" result="effect1_dropShadow_553_3579"/>
<feBlend mode="normal" in="SourceGraphic" in2="effect1_dropShadow_553_3579" result="shape"/>
</filter>
<filter id="filter1_d_553_3579" x="-16" y="57" width="340" height="268" filterUnits="userSpaceOnUse" color-interpolation-filters="sRGB">
<feFlood flood-opacity="0" result="BackgroundImageFix"/>
<feColorMatrix in="SourceAlpha" type="matrix" values="0 0 0 0 0 0 0 0 0 0 0 0 0 0 0 0 0 0 127 0" result="hardAlpha"/>
<feOffset dy="5"/>
<feGaussianBlur stdDeviation="10"/>
<feComposite in2="hardAlpha" operator="out"/>
<feColorMatrix type="matrix" values="0 0 0 0 0 0 0 0 0 0 0 0 0 0 0 0 0 0 0.06 0"/>
<feBlend mode="normal" in2="BackgroundImageFix" result="effect1_dropShadow_553_3579"/>
<feBlend mode="normal" in="SourceGraphic" in2="effect1_dropShadow_553_3579" result="shape"/>
</filter>
<linearGradient id="paint0_linear_553_3579" x1="154" y1="169.956" x2="154" y2="300" gradientUnits="userSpaceOnUse">
<stop stop-color="#F1F3F6"/>
<stop offset="1" stop-color="#D6D8DC" stop-opacity="0.23"/>
</linearGradient>
<clipPath id="clip0_553_3579">
<rect x="4" y="72" width="300" height="232" rx="14" fill="white"/>
</clipPath>
</defs>
</svg>
