<svg width="208" height="76" viewBox="0 0 208 76" fill="none" xmlns="http://www.w3.org/2000/svg">
<g clip-path="url(#clip0_1091_9168)">
<rect y="48" width="208" height="28" rx="14" fill="#64728C" fill-opacity="0.07"/>
<path d="M9.293 61.293C9.19982 61.3857 9.12587 61.4958 9.0754 61.6171C9.02494 61.7385 8.99897 61.8686 8.99897 62C8.99897 62.1314 9.02494 62.2615 9.0754 62.3829C9.12587 62.5042 9.19982 62.6143 9.293 62.707L13.536 66.95C13.6282 67.0455 13.7386 67.1217 13.8606 67.1741C13.9826 67.2265 14.1138 67.2541 14.2466 67.2553C14.3794 67.2564 14.5111 67.2311 14.634 67.1808C14.7569 67.1305 14.8685 67.0563 14.9624 66.9624C15.0563 66.8685 15.1305 66.7569 15.1808 66.634C15.2311 66.5111 15.2564 66.3794 15.2553 66.2466C15.2541 66.1138 15.2265 65.9826 15.1741 65.8606C15.1217 65.7386 15.0455 65.6282 14.95 65.536L12.414 63L18 63C18.2652 63 18.5196 62.8946 18.7071 62.7071C18.8946 62.5196 19 62.2652 19 62C19 61.7348 18.8946 61.4804 18.7071 61.2929C18.5196 61.1054 18.2652 61 18 61L12.414 61L14.95 58.464C15.0455 58.3718 15.1217 58.2614 15.1741 58.1394C15.2265 58.0174 15.2541 57.8862 15.2553 57.7534C15.2564 57.6206 15.2311 57.4889 15.1808 57.366C15.1305 57.2431 15.0563 57.1315 14.9624 57.0376C14.8685 56.9437 14.7569 56.8695 14.634 56.8192C14.5111 56.7689 14.3794 56.7436 14.2466 56.7447C14.1138 56.7459 13.9826 56.7735 13.8606 56.8259C13.7386 56.8783 13.6282 56.9545 13.536 57.05L9.293 61.293ZM4 62C4 56.477 8.477 52 14 52C19.523 52 24 56.477 24 62C24 67.523 19.523 72 14 72C8.477 72 4 67.523 4 62Z" fill="#929BAA"/>
<path d="M41.2979 67H39.3018V60.1641H36.9707V58.8379C37.5859 58.8105 38.0166 58.7695 38.2627 58.7148C38.6546 58.6283 38.9736 58.4551 39.2197 58.1953C39.3883 58.0176 39.516 57.7806 39.6025 57.4844C39.6527 57.3066 39.6777 57.1745 39.6777 57.0879H41.2979V67Z" fill="#64728C"/>
<path d="M58.8672 59.1045C58.6348 58.8265 58.3021 58.6875 57.8691 58.6875C57.2767 58.6875 56.8734 58.9085 56.6592 59.3506C56.5361 59.6058 56.4632 60.0114 56.4404 60.5674H54.5469C54.5788 59.7243 54.7314 59.043 55.0049 58.5234C55.5244 57.5345 56.4473 57.04 57.7734 57.04C58.8216 57.04 59.6556 57.3317 60.2754 57.915C60.8952 58.4938 61.2051 59.2617 61.2051 60.2188C61.2051 60.9525 60.9863 61.6042 60.5488 62.1738C60.2617 62.5521 59.79 62.9736 59.1338 63.4385L58.3545 63.9922C57.8669 64.3385 57.5319 64.5892 57.3496 64.7441C57.1719 64.8991 57.0215 65.0791 56.8984 65.2842H61.2256V67H54.4375C54.4557 66.2891 54.6084 65.6396 54.8955 65.0518C55.1735 64.391 55.8298 63.6914 56.8643 62.9531C57.762 62.3105 58.3431 61.8503 58.6074 61.5723C59.013 61.1393 59.2158 60.6654 59.2158 60.1504C59.2158 59.7311 59.0996 59.3825 58.8672 59.1045Z" fill="#64728C"/>
<g filter="url(#filter0_d_1091_9168)">
<rect x="67" y="52" width="20" height="20" rx="10" fill="#38455D" shape-rendering="crispEdges"/>
<path d="M75.6797 59.0635C75.4609 59.3551 75.3561 59.7448 75.3652 60.2324H73.5469C73.5651 59.7402 73.6494 59.2731 73.7998 58.8311C73.9593 58.4437 74.21 58.0859 74.5518 57.7578C74.807 57.5254 75.11 57.3477 75.4609 57.2246C75.8118 57.1016 76.2425 57.04 76.7529 57.04C77.7008 57.04 78.4642 57.2861 79.043 57.7783C79.6263 58.266 79.918 58.9222 79.918 59.7471C79.918 60.3304 79.7448 60.8226 79.3984 61.2236C79.1797 61.4743 78.9518 61.6452 78.7148 61.7363C78.8926 61.7363 79.1478 61.889 79.4805 62.1943C79.9772 62.6546 80.2256 63.2835 80.2256 64.0811C80.2256 64.9196 79.9339 65.6579 79.3506 66.2959C78.7718 66.9294 77.9128 67.2461 76.7734 67.2461C75.3698 67.2461 74.3945 66.7881 73.8477 65.8721C73.5605 65.3844 73.401 64.7464 73.3691 63.958H75.2832C75.2832 64.3545 75.347 64.6826 75.4746 64.9424C75.7116 65.4209 76.1423 65.6602 76.7666 65.6602C77.1494 65.6602 77.4821 65.5303 77.7646 65.2705C78.0518 65.0062 78.1953 64.6279 78.1953 64.1357C78.1953 63.484 77.931 63.0488 77.4023 62.8301C77.1016 62.707 76.6276 62.6455 75.9805 62.6455V61.251C76.6139 61.2419 77.056 61.1803 77.3066 61.0664C77.7396 60.875 77.9561 60.4876 77.9561 59.9043C77.9561 59.526 77.8444 59.2184 77.6211 58.9814C77.4023 58.7445 77.0924 58.626 76.6914 58.626C76.2311 58.626 75.8939 58.7718 75.6797 59.0635Z" fill="white"/>
</g>
<path d="M99.3213 63.3428V64.8672H98.2002V67H96.293V64.8672H92.3691V63.165L96.0127 57.1494H98.2002V63.3428H99.3213ZM93.8115 63.3428H96.293V59.0635L93.8115 63.3428Z" fill="#64728C"/>
<path d="M113.732 62.0781C113.495 62.0781 113.29 62.1077 113.117 62.167C112.812 62.2764 112.582 62.4792 112.427 62.7754L110.677 62.6934L111.374 57.2178H116.836V58.8721H112.782L112.427 61.0391C112.728 60.8431 112.962 60.7132 113.131 60.6494C113.413 60.5446 113.757 60.4922 114.163 60.4922C114.983 60.4922 115.699 60.7679 116.31 61.3193C116.92 61.8708 117.226 62.6729 117.226 63.7256C117.226 64.6416 116.932 65.4596 116.344 66.1797C115.756 66.8997 114.876 67.2598 113.705 67.2598C112.762 67.2598 111.987 67.0068 111.381 66.501C110.775 65.9951 110.438 65.2773 110.369 64.3477H112.311C112.388 64.7715 112.536 65.0996 112.755 65.332C112.974 65.5599 113.293 65.6738 113.712 65.6738C114.195 65.6738 114.562 65.5052 114.812 65.168C115.068 64.8262 115.195 64.3978 115.195 63.8828C115.195 63.377 115.077 62.9508 114.84 62.6045C114.603 62.2536 114.234 62.0781 113.732 62.0781Z" fill="#64728C"/>
<path d="M132.279 60.5674C133.159 60.5674 133.879 60.8659 134.439 61.4629C135.005 62.0599 135.287 62.8232 135.287 63.7529C135.287 64.6781 135.011 65.4938 134.46 66.2002C133.909 66.9066 133.052 67.2598 131.89 67.2598C130.641 67.2598 129.72 66.738 129.128 65.6943C128.668 64.8786 128.438 63.8258 128.438 62.5361C128.438 61.7796 128.469 61.1644 128.533 60.6904C128.647 59.8473 128.868 59.1455 129.196 58.585C129.479 58.1064 129.848 57.7214 130.304 57.4297C130.764 57.138 131.313 56.9922 131.951 56.9922C132.872 56.9922 133.605 57.2292 134.152 57.7031C134.699 58.1725 135.007 58.7992 135.075 59.583H133.134C133.134 59.4235 133.072 59.248 132.949 59.0566C132.74 58.7467 132.423 58.5918 131.999 58.5918C131.366 58.5918 130.914 58.9473 130.646 59.6582C130.5 60.0501 130.399 60.6289 130.345 61.3945C130.586 61.1074 130.867 60.8978 131.186 60.7656C131.505 60.6335 131.869 60.5674 132.279 60.5674ZM130.967 62.4268C130.584 62.723 130.393 63.2015 130.393 63.8623C130.393 64.3955 130.536 64.8307 130.823 65.168C131.11 65.5052 131.475 65.6738 131.917 65.6738C132.35 65.6738 132.689 65.512 132.936 65.1885C133.186 64.8604 133.312 64.4365 133.312 63.917C133.312 63.3382 133.17 62.8962 132.888 62.5908C132.605 62.2809 132.259 62.126 131.849 62.126C131.516 62.126 131.222 62.2262 130.967 62.4268Z" fill="#64728C"/>
<path d="M152.166 60.2734C151.646 61.0117 151.211 61.7728 150.86 62.5566C150.582 63.1719 150.332 63.9238 150.108 64.8125C149.885 65.7012 149.773 66.4303 149.773 67H147.75C147.809 65.2227 148.393 63.3747 149.5 61.4561C150.215 60.2666 150.815 59.4372 151.298 58.9678H146.355L146.383 57.2178H153.383V58.7422C153.091 59.0293 152.686 59.5397 152.166 60.2734Z" fill="#64728C"/>
<path d="M165.224 66.3779C164.654 65.7946 164.369 65.0859 164.369 64.252C164.369 63.696 164.494 63.1924 164.745 62.7412C165 62.29 165.372 61.9505 165.859 61.7227C165.381 61.4036 165.069 61.0596 164.923 60.6904C164.782 60.3167 164.711 59.9681 164.711 59.6445C164.711 58.9245 164.982 58.3115 165.524 57.8057C166.067 57.2952 166.832 57.04 167.821 57.04C168.81 57.04 169.576 57.2952 170.118 57.8057C170.66 58.3115 170.932 58.9245 170.932 59.6445C170.932 59.9681 170.859 60.3167 170.713 60.6904C170.572 61.0596 170.262 61.3809 169.783 61.6543C170.271 61.9277 170.638 62.29 170.884 62.7412C171.13 63.1924 171.253 63.696 171.253 64.252C171.253 65.0859 170.943 65.7969 170.323 66.3848C169.708 66.9681 168.847 67.2598 167.739 67.2598C166.632 67.2598 165.793 66.9658 165.224 66.3779ZM166.393 64.1221C166.393 64.6097 166.518 64.988 166.769 65.2568C167.024 65.5257 167.375 65.6602 167.821 65.6602C168.268 65.6602 168.617 65.5257 168.867 65.2568C169.122 64.988 169.25 64.6097 169.25 64.1221C169.25 63.6162 169.12 63.2334 168.86 62.9736C168.605 62.7093 168.259 62.5771 167.821 62.5771C167.384 62.5771 167.035 62.7093 166.775 62.9736C166.52 63.2334 166.393 63.6162 166.393 64.1221ZM166.905 60.7451C167.124 60.973 167.429 61.0869 167.821 61.0869C168.218 61.0869 168.523 60.973 168.737 60.7451C168.956 60.5173 169.065 60.2233 169.065 59.8633C169.065 59.4714 168.956 59.166 168.737 58.9473C168.523 58.724 168.218 58.6123 167.821 58.6123C167.429 58.6123 167.122 58.724 166.898 58.9473C166.68 59.166 166.57 59.4714 166.57 59.8633C166.57 60.2233 166.682 60.5173 166.905 60.7451Z" fill="#64728C"/>
<path d="M198.707 62.707C198.8 62.6143 198.874 62.5042 198.925 62.3829C198.975 62.2615 199.001 62.1314 199.001 62C199.001 61.8686 198.975 61.7385 198.925 61.6171C198.874 61.4958 198.8 61.3857 198.707 61.293L194.464 57.05C194.372 56.9545 194.261 56.8783 194.139 56.8259C194.017 56.7735 193.886 56.7459 193.753 56.7447C193.621 56.7436 193.489 56.7689 193.366 56.8192C193.243 56.8695 193.131 56.9437 193.038 57.0376C192.944 57.1315 192.869 57.2431 192.819 57.366C192.769 57.4889 192.744 57.6206 192.745 57.7534C192.746 57.8862 192.773 58.0174 192.826 58.1394C192.878 58.2614 192.954 58.3718 193.05 58.464L195.586 61L190 61C189.735 61 189.48 61.1054 189.293 61.2929C189.105 61.4804 189 61.7348 189 62C189 62.2652 189.105 62.5196 189.293 62.7071C189.48 62.8946 189.735 63 190 63L195.586 63L193.05 65.536C192.954 65.6282 192.878 65.7386 192.826 65.8606C192.773 65.9826 192.746 66.1138 192.745 66.2466C192.744 66.3794 192.769 66.5111 192.819 66.634C192.869 66.7569 192.944 66.8685 193.038 66.9624C193.131 67.0563 193.243 67.1305 193.366 67.1808C193.489 67.2311 193.621 67.2564 193.753 67.2553C193.886 67.2541 194.017 67.2265 194.139 67.1741C194.261 67.1217 194.372 67.0455 194.464 66.95L198.707 62.707ZM204 62C204 67.523 199.523 72 194 72C188.477 72 184 67.523 184 62C184 56.477 188.477 52 194 52C199.523 52 204 56.477 204 62Z" fill="#929BAA"/>
</g>
<rect x="156" width="52" height="28" rx="14" fill="#64728C" fill-opacity="0.07"/>
<path d="M170.867 11.1045C170.635 10.8265 170.302 10.6875 169.869 10.6875C169.277 10.6875 168.873 10.9085 168.659 11.3506C168.536 11.6058 168.463 12.0114 168.44 12.5674H166.547C166.579 11.7243 166.731 11.043 167.005 10.5234C167.524 9.53451 168.447 9.04004 169.773 9.04004C170.822 9.04004 171.656 9.33171 172.275 9.91504C172.895 10.4938 173.205 11.2617 173.205 12.2188C173.205 12.9525 172.986 13.6042 172.549 14.1738C172.262 14.5521 171.79 14.9736 171.134 15.4385L170.354 15.9922C169.867 16.3385 169.532 16.5892 169.35 16.7441C169.172 16.8991 169.021 17.0791 168.898 17.2842H173.226V19H166.438C166.456 18.2891 166.608 17.6396 166.896 17.0518C167.174 16.391 167.83 15.6914 168.864 14.9531C169.762 14.3105 170.343 13.8503 170.607 13.5723C171.013 13.1393 171.216 12.6654 171.216 12.1504C171.216 11.7311 171.1 11.3825 170.867 11.1045ZM177.525 14.0781C177.288 14.0781 177.083 14.1077 176.91 14.167C176.605 14.2764 176.375 14.4792 176.22 14.7754L174.47 14.6934L175.167 9.21777H180.629V10.8721H176.575L176.22 13.0391C176.521 12.8431 176.755 12.7132 176.924 12.6494C177.206 12.5446 177.55 12.4922 177.956 12.4922C178.776 12.4922 179.492 12.7679 180.103 13.3193C180.713 13.8708 181.019 14.6729 181.019 15.7256C181.019 16.6416 180.725 17.4596 180.137 18.1797C179.549 18.8997 178.669 19.2598 177.498 19.2598C176.555 19.2598 175.78 19.0068 175.174 18.501C174.568 17.9951 174.23 17.2773 174.162 16.3477H176.104C176.181 16.7715 176.329 17.0996 176.548 17.332C176.767 17.5599 177.086 17.6738 177.505 17.6738C177.988 17.6738 178.355 17.5052 178.605 17.168C178.861 16.8262 178.988 16.3978 178.988 15.8828C178.988 15.377 178.87 14.9508 178.633 14.6045C178.396 14.2536 178.027 14.0781 177.525 14.0781Z" fill="#64728C"/>
<path d="M193.293 18.707C193.386 18.8002 193.496 18.8741 193.617 18.9246C193.738 18.9751 193.869 19.001 194 19.001C194.131 19.001 194.262 18.9751 194.383 18.9246C194.504 18.8741 194.614 18.8002 194.707 18.707L198.95 14.464C199.046 14.3718 199.122 14.2614 199.174 14.1394C199.227 14.0174 199.254 13.8862 199.255 13.7534C199.256 13.6206 199.231 13.4889 199.181 13.366C199.131 13.2431 199.056 13.1315 198.962 13.0376C198.869 12.9437 198.757 12.8695 198.634 12.8192C198.511 12.7689 198.379 12.7436 198.247 12.7448C198.114 12.7459 197.983 12.7735 197.861 12.8259C197.739 12.8783 197.628 12.9545 197.536 13.05L195 15.586V10C195 9.73478 194.895 9.48043 194.707 9.29289C194.52 9.10536 194.265 9 194 9C193.735 9 193.48 9.10536 193.293 9.29289C193.105 9.48043 193 9.73478 193 10V15.586L190.464 13.05C190.372 12.9545 190.261 12.8783 190.139 12.8259C190.017 12.7735 189.886 12.7459 189.753 12.7448C189.621 12.7436 189.489 12.7689 189.366 12.8192C189.243 12.8695 189.131 12.9437 189.038 13.0376C188.944 13.1315 188.869 13.2431 188.819 13.366C188.769 13.4889 188.744 13.6206 188.745 13.7534C188.746 13.8862 188.773 14.0174 188.826 14.1394C188.878 14.2614 188.954 14.3718 189.05 14.464L193.293 18.707ZM194 24C188.477 24 184 19.523 184 14C184 8.477 188.477 4 194 4C199.523 4 204 8.477 204 14C204 19.523 199.523 24 194 24Z" fill="#929BAA"/>
<g clip-path="url(#clip1_1091_9168)">
<rect width="152" height="28" rx="14" fill="#64728C" fill-opacity="0.07"/>
<path d="M9.293 13.293C9.19982 13.3857 9.12587 13.4958 9.0754 13.6171C9.02494 13.7385 8.99897 13.8686 8.99897 14C8.99897 14.1314 9.02494 14.2615 9.0754 14.3829C9.12587 14.5042 9.19982 14.6143 9.293 14.707L13.536 18.95C13.6282 19.0455 13.7386 19.1217 13.8606 19.1741C13.9826 19.2265 14.1138 19.2541 14.2466 19.2553C14.3794 19.2564 14.5111 19.2311 14.634 19.1808C14.7569 19.1305 14.8685 19.0563 14.9624 18.9624C15.0563 18.8685 15.1305 18.7569 15.1808 18.634C15.2311 18.5111 15.2564 18.3794 15.2553 18.2466C15.2541 18.1138 15.2265 17.9826 15.1741 17.8606C15.1217 17.7386 15.0455 17.6282 14.95 17.536L12.414 15L18 15C18.2652 15 18.5196 14.8946 18.7071 14.7071C18.8946 14.5196 19 14.2652 19 14C19 13.7348 18.8946 13.4804 18.7071 13.2929C18.5196 13.1054 18.2652 13 18 13L12.414 13L14.95 10.464C15.0455 10.3718 15.1217 10.2614 15.1741 10.1394C15.2265 10.0174 15.2541 9.88618 15.2553 9.7534C15.2564 9.62062 15.2311 9.48894 15.1808 9.36605C15.1305 9.24315 15.0563 9.1315 14.9624 9.0376C14.8685 8.94371 14.7569 8.86946 14.634 8.81918C14.5111 8.7689 14.3794 8.7436 14.2466 8.74475C14.1138 8.7459 13.9826 8.77349 13.8606 8.8259C13.7386 8.87831 13.6282 8.95449 13.536 9.05L9.293 13.293ZM4 14C4 8.477 8.477 4 14 4C19.523 4 24 8.477 24 14C24 19.523 19.523 24 14 24C8.477 24 4 19.523 4 14Z" fill="#929BAA"/>
<g filter="url(#filter1_d_1091_9168)">
<rect x="30" y="4" width="20" height="20" rx="10" fill="#38455D" shape-rendering="crispEdges"/>
<path d="M41.2979 19H39.3018V12.1641H36.9707V10.8379C37.5859 10.8105 38.0166 10.7695 38.2627 10.7148C38.6546 10.6283 38.9736 10.4551 39.2197 10.1953C39.3883 10.0176 39.516 9.7806 39.6025 9.48438C39.6527 9.30664 39.6777 9.17448 39.6777 9.08789H41.2979V19Z" fill="white"/>
</g>
<path d="M59.8672 11.1045C59.6348 10.8265 59.3021 10.6875 58.8691 10.6875C58.2767 10.6875 57.8734 10.9085 57.6592 11.3506C57.5361 11.6058 57.4632 12.0114 57.4404 12.5674H55.5469C55.5788 11.7243 55.7314 11.043 56.0049 10.5234C56.5244 9.53451 57.4473 9.04004 58.7734 9.04004C59.8216 9.04004 60.6556 9.33171 61.2754 9.91504C61.8952 10.4938 62.2051 11.2617 62.2051 12.2188C62.2051 12.9525 61.9863 13.6042 61.5488 14.1738C61.2617 14.5521 60.79 14.9736 60.1338 15.4385L59.3545 15.9922C58.8669 16.3385 58.5319 16.5892 58.3496 16.7441C58.1719 16.8991 58.0215 17.0791 57.8984 17.2842H62.2256V19H55.4375C55.4557 18.2891 55.6084 17.6396 55.8955 17.0518C56.1735 16.391 56.8298 15.6914 57.8643 14.9531C58.762 14.3105 59.3431 13.8503 59.6074 13.5723C60.013 13.1393 60.2158 12.6654 60.2158 12.1504C60.2158 11.7311 60.0996 11.3825 59.8672 11.1045Z" fill="#64728C"/>
<path d="M75.6797 11.0635C75.4609 11.3551 75.3561 11.7448 75.3652 12.2324H73.5469C73.5651 11.7402 73.6494 11.2731 73.7998 10.8311C73.9593 10.4437 74.21 10.0859 74.5518 9.75781C74.807 9.52539 75.11 9.34766 75.4609 9.22461C75.8118 9.10156 76.2425 9.04004 76.7529 9.04004C77.7008 9.04004 78.4642 9.28613 79.043 9.77832C79.6263 10.266 79.918 10.9222 79.918 11.7471C79.918 12.3304 79.7448 12.8226 79.3984 13.2236C79.1797 13.4743 78.9518 13.6452 78.7148 13.7363C78.8926 13.7363 79.1478 13.889 79.4805 14.1943C79.9772 14.6546 80.2256 15.2835 80.2256 16.0811C80.2256 16.9196 79.9339 17.6579 79.3506 18.2959C78.7718 18.9294 77.9128 19.2461 76.7734 19.2461C75.3698 19.2461 74.3945 18.7881 73.8477 17.8721C73.5605 17.3844 73.401 16.7464 73.3691 15.958H75.2832C75.2832 16.3545 75.347 16.6826 75.4746 16.9424C75.7116 17.4209 76.1423 17.6602 76.7666 17.6602C77.1494 17.6602 77.4821 17.5303 77.7646 17.2705C78.0518 17.0062 78.1953 16.6279 78.1953 16.1357C78.1953 15.484 77.931 15.0488 77.4023 14.8301C77.1016 14.707 76.6276 14.6455 75.9805 14.6455V13.251C76.6139 13.2419 77.056 13.1803 77.3066 13.0664C77.7396 12.875 77.9561 12.4876 77.9561 11.9043C77.9561 11.526 77.8444 11.2184 77.6211 10.9814C77.4023 10.7445 77.0924 10.626 76.6914 10.626C76.2311 10.626 75.8939 10.7718 75.6797 11.0635Z" fill="#64728C"/>
<path d="M98.3213 15.3428V16.8672H97.2002V19H95.293V16.8672H91.3691V15.165L95.0127 9.14941H97.2002V15.3428H98.3213ZM92.8115 15.3428H95.293V11.0635L92.8115 15.3428Z" fill="#64728C"/>
<path d="M112.732 14.0781C112.495 14.0781 112.29 14.1077 112.117 14.167C111.812 14.2764 111.582 14.4792 111.427 14.7754L109.677 14.6934L110.374 9.21777H115.836V10.8721H111.782L111.427 13.0391C111.728 12.8431 111.962 12.7132 112.131 12.6494C112.413 12.5446 112.757 12.4922 113.163 12.4922C113.983 12.4922 114.699 12.7679 115.31 13.3193C115.92 13.8708 116.226 14.6729 116.226 15.7256C116.226 16.6416 115.932 17.4596 115.344 18.1797C114.756 18.8997 113.876 19.2598 112.705 19.2598C111.762 19.2598 110.987 19.0068 110.381 18.501C109.775 17.9951 109.438 17.2773 109.369 16.3477H111.311C111.388 16.7715 111.536 17.0996 111.755 17.332C111.974 17.5599 112.293 17.6738 112.712 17.6738C113.195 17.6738 113.562 17.5052 113.812 17.168C114.068 16.8262 114.195 16.3978 114.195 15.8828C114.195 15.377 114.077 14.9508 113.84 14.6045C113.603 14.2536 113.234 14.0781 112.732 14.0781Z" fill="#64728C"/>
<path d="M142.707 14.707C142.8 14.6143 142.874 14.5042 142.925 14.3829C142.975 14.2615 143.001 14.1314 143.001 14C143.001 13.8686 142.975 13.7385 142.925 13.6171C142.874 13.4958 142.8 13.3857 142.707 13.293L138.464 9.05C138.372 8.95449 138.261 8.87831 138.139 8.8259C138.017 8.77349 137.886 8.7459 137.753 8.74475C137.621 8.7436 137.489 8.7689 137.366 8.81918C137.243 8.86946 137.131 8.94371 137.038 9.0376C136.944 9.1315 136.869 9.24315 136.819 9.36605C136.769 9.48894 136.744 9.62062 136.745 9.7534C136.746 9.88618 136.773 10.0174 136.826 10.1394C136.878 10.2614 136.954 10.3718 137.05 10.464L139.586 13L134 13C133.735 13 133.48 13.1054 133.293 13.2929C133.105 13.4804 133 13.7348 133 14C133 14.2652 133.105 14.5196 133.293 14.7071C133.48 14.8946 133.735 15 134 15L139.586 15L137.05 17.536C136.954 17.6282 136.878 17.7386 136.826 17.8606C136.773 17.9826 136.746 18.1138 136.745 18.2466C136.744 18.3794 136.769 18.5111 136.819 18.634C136.869 18.7569 136.944 18.8685 137.038 18.9624C137.131 19.0563 137.243 19.1305 137.366 19.1808C137.489 19.2311 137.621 19.2564 137.753 19.2553C137.886 19.2541 138.017 19.2265 138.139 19.1741C138.261 19.1217 138.372 19.0455 138.464 18.95L142.707 14.707ZM148 14C148 19.523 143.523 24 138 24C132.477 24 128 19.523 128 14C128 8.477 132.477 4 138 4C143.523 4 148 8.477 148 14Z" fill="#929BAA"/>
</g>
<defs>
<filter id="filter0_d_1091_9168" x="63" y="52" width="28" height="28" filterUnits="userSpaceOnUse" color-interpolation-filters="sRGB">
<feFlood flood-opacity="0" result="BackgroundImageFix"/>
<feColorMatrix in="SourceAlpha" type="matrix" values="0 0 0 0 0 0 0 0 0 0 0 0 0 0 0 0 0 0 127 0" result="hardAlpha"/>
<feOffset dy="4"/>
<feGaussianBlur stdDeviation="2"/>
<feComposite in2="hardAlpha" operator="out"/>
<feColorMatrix type="matrix" values="0 0 0 0 0 0 0 0 0 0 0 0 0 0 0 0 0 0 0.05 0"/>
<feBlend mode="normal" in2="BackgroundImageFix" result="effect1_dropShadow_1091_9168"/>
<feBlend mode="normal" in="SourceGraphic" in2="effect1_dropShadow_1091_9168" result="shape"/>
</filter>
<filter id="filter1_d_1091_9168" x="26" y="4" width="28" height="28" filterUnits="userSpaceOnUse" color-interpolation-filters="sRGB">
<feFlood flood-opacity="0" result="BackgroundImageFix"/>
<feColorMatrix in="SourceAlpha" type="matrix" values="0 0 0 0 0 0 0 0 0 0 0 0 0 0 0 0 0 0 127 0" result="hardAlpha"/>
<feOffset dy="4"/>
<feGaussianBlur stdDeviation="2"/>
<feComposite in2="hardAlpha" operator="out"/>
<feColorMatrix type="matrix" values="0 0 0 0 0 0 0 0 0 0 0 0 0 0 0 0 0 0 0.05 0"/>
<feBlend mode="normal" in2="BackgroundImageFix" result="effect1_dropShadow_1091_9168"/>
<feBlend mode="normal" in="SourceGraphic" in2="effect1_dropShadow_1091_9168" result="shape"/>
</filter>
<clipPath id="clip0_1091_9168">
<rect y="48" width="208" height="28" rx="14" fill="white"/>
</clipPath>
<clipPath id="clip1_1091_9168">
<rect width="152" height="28" rx="14" fill="white"/>
</clipPath>
</defs>
</svg>
