<svg width="148" height="164" viewBox="0 0 148 164" fill="none" xmlns="http://www.w3.org/2000/svg">
<g filter="url(#filter0_d_1082_8997)">
<rect x="4" width="140" height="50" rx="25" fill="white"/>
<rect x="4.5" y="0.5" width="139" height="49" rx="24.5" stroke="#64728C" stroke-opacity="0.05"/>
<rect x="4.5" y="0.5" width="139" height="49" rx="24.5" stroke="url(#paint0_linear_1082_8997)" stroke-opacity="0.2"/>
</g>
<g filter="url(#filter1_d_1082_8997)">
<circle cx="29" cy="25" r="20" fill="#64728C" fill-opacity="0.1" shape-rendering="crispEdges"/>
<circle cx="29" cy="25" r="19.5" stroke="#64728C" stroke-opacity="0.01" shape-rendering="crispEdges"/>
<circle cx="29" cy="25" r="19.5" stroke="url(#paint1_linear_1082_8997)" stroke-opacity="0.1" shape-rendering="crispEdges"/>
</g>
<g filter="url(#filter2_d_1082_8997)">
<circle cx="119" cy="25" r="20" fill="#64728C" fill-opacity="0.1" shape-rendering="crispEdges"/>
<circle cx="119" cy="25" r="19.5" stroke="#64728C" stroke-opacity="0.01" shape-rendering="crispEdges"/>
<circle cx="119" cy="25" r="19.5" stroke="url(#paint2_linear_1082_8997)" stroke-opacity="0.1" shape-rendering="crispEdges"/>
</g>
<g clip-path="url(#clip0_1082_8997)">
<path d="M127 25.0002C127 25.7735 126.373 26.4003 125.6 26.4003H120.4V31.5999C120.4 32.3735 119.773 33.0002 119 33C118.613 33 118.263 32.8435 118.01 32.5903C117.757 32.3366 117.6 31.9868 117.6 31.6003L117.6 26.4001H112.4C112.013 26.4001 111.664 26.2436 111.41 25.9899C111.157 25.7369 111 25.3869 111 25.0002C111 24.227 111.627 23.6001 112.401 23.6001H117.6V18.4004C117.6 17.6269 118.227 17 119.001 17C119.774 17.0002 120.4 17.6265 120.401 18.3999V23.6001H125.601C126.374 23.6005 127 24.227 127 25.0002Z" fill="#64728C"/>
</g>
<rect x="20" y="23" width="17" height="4" rx="2" fill="#64728C"/>
<path d="M62.496 30C62.2187 30 62 29.9253 61.84 29.776C61.6907 29.616 61.616 29.4027 61.616 29.136C61.616 28.8587 61.6907 28.6507 61.84 28.512C62 28.3733 62.2187 28.304 62.496 28.304H64.288V20.448H65.28L62.928 21.872C62.7253 21.9893 62.5333 22.0373 62.352 22.016C62.1813 21.984 62.032 21.9093 61.904 21.792C61.7867 21.664 61.7067 21.5147 61.664 21.344C61.6213 21.1733 61.632 21.0027 61.696 20.832C61.7707 20.6507 61.9093 20.5013 62.112 20.384L64.32 19.056C64.5333 18.928 64.7467 18.8213 64.96 18.736C65.1733 18.64 65.3707 18.592 65.552 18.592C65.776 18.592 65.9627 18.656 66.112 18.784C66.2613 18.9013 66.336 19.0987 66.336 19.376V28.304H67.968C68.2453 28.304 68.4587 28.3733 68.608 28.512C68.768 28.6507 68.848 28.8587 68.848 29.136C68.848 29.4133 68.768 29.6267 68.608 29.776C68.4587 29.9253 68.2453 30 67.968 30H62.496ZM74.3938 30.16C73.0604 30.16 72.0418 29.6587 71.3378 28.656C70.6338 27.6427 70.2818 26.2027 70.2818 24.336C70.2818 23.0773 70.4364 22.0213 70.7458 21.168C71.0658 20.304 71.5298 19.6533 72.1378 19.216C72.7564 18.7787 73.5084 18.56 74.3938 18.56C75.7378 18.56 76.7564 19.0507 77.4498 20.032C78.1538 21.0133 78.5058 22.4427 78.5058 24.32C78.5058 25.568 78.3458 26.6293 78.0258 27.504C77.7164 28.368 77.2578 29.0293 76.6498 29.488C76.0418 29.936 75.2898 30.16 74.3938 30.16ZM74.3938 28.48C75.1191 28.48 75.6524 28.144 75.9938 27.472C76.3458 26.8 76.5218 25.7493 76.5218 24.32C76.5218 22.8907 76.3458 21.856 75.9938 21.216C75.6524 20.5653 75.1191 20.24 74.3938 20.24C73.6791 20.24 73.1458 20.5653 72.7938 21.216C72.4418 21.856 72.2658 22.8907 72.2658 24.32C72.2658 25.7493 72.4418 26.8 72.7938 27.472C73.1458 28.144 73.6791 28.48 74.3938 28.48ZM83.9875 30.16C82.6542 30.16 81.6355 29.6587 80.9315 28.656C80.2275 27.6427 79.8755 26.2027 79.8755 24.336C79.8755 23.0773 80.0302 22.0213 80.3395 21.168C80.6595 20.304 81.1235 19.6533 81.7315 19.216C82.3502 18.7787 83.1022 18.56 83.9875 18.56C85.3315 18.56 86.3502 19.0507 87.0435 20.032C87.7475 21.0133 88.0995 22.4427 88.0995 24.32C88.0995 25.568 87.9395 26.6293 87.6195 27.504C87.3102 28.368 86.8515 29.0293 86.2435 29.488C85.6355 29.936 84.8835 30.16 83.9875 30.16ZM83.9875 28.48C84.7128 28.48 85.2462 28.144 85.5875 27.472C85.9395 26.8 86.1155 25.7493 86.1155 24.32C86.1155 22.8907 85.9395 21.856 85.5875 21.216C85.2462 20.5653 84.7128 20.24 83.9875 20.24C83.2728 20.24 82.7395 20.5653 82.3875 21.216C82.0355 21.856 81.8595 22.8907 81.8595 24.32C81.8595 25.7493 82.0355 26.8 82.3875 27.472C82.7395 28.144 83.2728 28.48 83.9875 28.48Z" fill="#64728C"/>
<g filter="url(#filter3_d_1082_8997)">
<rect x="4" y="106" width="140" height="50" rx="25" fill="white"/>
<rect x="4.5" y="106.5" width="139" height="49" rx="24.5" stroke="url(#paint3_linear_1082_8997)" stroke-opacity="0.02"/>
<rect x="4.5" y="106.5" width="139" height="49" rx="24.5" stroke="url(#paint4_linear_1082_8997)" stroke-opacity="0.2"/>
</g>
<g filter="url(#filter4_d_1082_8997)">
<circle cx="29" cy="131" r="20" fill="#76BC21"/>
<circle cx="29" cy="131" r="19.5" stroke="#FE5000" stroke-opacity="0.01"/>
<circle cx="29" cy="131" r="19.5" stroke="url(#paint5_linear_1082_8997)"/>
</g>
<g filter="url(#filter5_d_1082_8997)">
<circle cx="119" cy="131" r="20" fill="#76BC21"/>
<circle cx="119" cy="131" r="19.5" stroke="#FE5000" stroke-opacity="0.01"/>
<circle cx="119" cy="131" r="19.5" stroke="url(#paint6_linear_1082_8997)"/>
</g>
<g clip-path="url(#clip1_1082_8997)">
<path d="M127 131C127 131.774 126.373 132.4 125.6 132.4H120.4V137.6C120.4 138.373 119.773 139 119 139C118.613 139 118.263 138.844 118.01 138.59C117.757 138.337 117.6 137.987 117.6 137.6L117.6 132.4H112.4C112.013 132.4 111.664 132.244 111.41 131.99C111.157 131.737 111 131.387 111 131C111 130.227 111.627 129.6 112.401 129.6H117.6V124.4C117.6 123.627 118.227 123 119.001 123C119.774 123 120.4 123.627 120.401 124.4V129.6H125.601C126.374 129.601 127 130.227 127 131Z" fill="white"/>
</g>
<rect x="20" y="129" width="17" height="4" rx="2" fill="white"/>
<path d="M69.576 136.16C69 136.16 68.4027 136.085 67.784 135.936C67.1653 135.787 66.6267 135.563 66.168 135.264C65.9547 135.125 65.8107 134.965 65.736 134.784C65.6613 134.603 65.64 134.432 65.672 134.272C65.7147 134.101 65.7947 133.957 65.912 133.84C66.04 133.723 66.1947 133.653 66.376 133.632C66.568 133.611 66.776 133.659 67 133.776C67.4373 134.011 67.8587 134.181 68.264 134.288C68.6693 134.384 69.0853 134.432 69.512 134.432C69.9813 134.432 70.376 134.368 70.696 134.24C71.016 134.112 71.256 133.92 71.416 133.664C71.5867 133.408 71.672 133.099 71.672 132.736C71.672 132.203 71.4907 131.808 71.128 131.552C70.776 131.285 70.2587 131.152 69.576 131.152H68.552C68.2533 131.152 68.024 131.077 67.864 130.928C67.7147 130.779 67.64 130.571 67.64 130.304C67.64 130.037 67.7147 129.829 67.864 129.68C68.024 129.531 68.2533 129.456 68.552 129.456H69.384C69.7893 129.456 70.136 129.392 70.424 129.264C70.712 129.125 70.936 128.933 71.096 128.688C71.256 128.443 71.336 128.144 71.336 127.792C71.336 127.301 71.1707 126.928 70.84 126.672C70.52 126.416 70.0507 126.288 69.432 126.288C69.0373 126.288 68.664 126.336 68.312 126.432C67.9707 126.517 67.592 126.683 67.176 126.928C66.984 127.045 66.7973 127.093 66.616 127.072C66.4453 127.051 66.3013 126.981 66.184 126.864C66.0667 126.747 65.9867 126.608 65.944 126.448C65.9013 126.277 65.912 126.107 65.976 125.936C66.04 125.755 66.1733 125.6 66.376 125.472C66.8347 125.173 67.3413 124.949 67.896 124.8C68.4507 124.64 69.0213 124.56 69.608 124.56C70.3867 124.56 71.0533 124.683 71.608 124.928C72.1627 125.163 72.584 125.504 72.872 125.952C73.1707 126.389 73.32 126.923 73.32 127.552C73.32 128 73.2347 128.411 73.064 128.784C72.8933 129.147 72.6533 129.456 72.344 129.712C72.0347 129.968 71.6613 130.149 71.224 130.256V130.064C71.992 130.192 72.5893 130.512 73.016 131.024C73.4427 131.525 73.656 132.155 73.656 132.912C73.656 133.573 73.4907 134.149 73.16 134.64C72.8293 135.131 72.36 135.509 71.752 135.776C71.144 136.032 70.4187 136.16 69.576 136.16ZM79.4898 136.16C78.9244 136.16 78.3484 136.085 77.7618 135.936C77.1751 135.787 76.6364 135.557 76.1458 135.248C75.9431 135.12 75.8044 134.971 75.7298 134.8C75.6658 134.619 75.6498 134.443 75.6818 134.272C75.7244 134.091 75.8044 133.941 75.9218 133.824C76.0498 133.696 76.1991 133.621 76.3698 133.6C76.5511 133.579 76.7484 133.627 76.9618 133.744C77.3564 133.968 77.7564 134.139 78.1618 134.256C78.5671 134.373 78.9991 134.432 79.4578 134.432C79.9058 134.432 80.2898 134.352 80.6098 134.192C80.9298 134.032 81.1751 133.808 81.3458 133.52C81.5164 133.232 81.6018 132.896 81.6018 132.512C81.6018 131.915 81.4204 131.435 81.0578 131.072C80.6951 130.699 80.1991 130.512 79.5698 130.512C79.2284 130.512 78.8978 130.571 78.5778 130.688C78.2578 130.795 77.9431 130.987 77.6338 131.264C77.5378 131.349 77.4151 131.435 77.2658 131.52C77.1164 131.595 76.9564 131.632 76.7858 131.632C76.5191 131.632 76.3164 131.563 76.1778 131.424C76.0391 131.285 75.9698 131.093 75.9698 130.848V125.616C75.9698 125.328 76.0444 125.109 76.1938 124.96C76.3538 124.8 76.5778 124.72 76.8658 124.72H82.1298C82.4178 124.72 82.6364 124.795 82.7858 124.944C82.9458 125.083 83.0258 125.291 83.0258 125.568C83.0258 125.835 82.9458 126.043 82.7858 126.192C82.6364 126.341 82.4178 126.416 82.1298 126.416H77.9698V130H77.4418C77.7191 129.627 78.0871 129.339 78.5458 129.136C79.0044 128.933 79.5058 128.832 80.0498 128.832C80.7644 128.832 81.3831 128.987 81.9058 129.296C82.4391 129.595 82.8498 130.016 83.1378 130.56C83.4364 131.093 83.5858 131.717 83.5858 132.432C83.5858 133.168 83.4204 133.819 83.0898 134.384C82.7591 134.939 82.2844 135.376 81.6658 135.696C81.0578 136.005 80.3324 136.16 79.4898 136.16Z" fill="#64728C"/>
<rect x="35" y="65" width="77" height="28" rx="14" fill="#64728C" fill-opacity="0.07"/>
<path d="M49 69C43.4766 69 39 73.4766 39 79C39 84.5234 43.4766 89 49 89C54.5234 89 59 84.5234 59 79C59 73.4766 54.5234 69 49 69ZM52.75 79.9375H45.25C44.7344 79.9375 44.3125 79.5156 44.3125 79C44.3125 78.4844 44.7344 78.0625 45.25 78.0625H52.75C53.2656 78.0625 53.6875 78.4844 53.6875 79C53.6875 79.5156 53.2656 79.9375 52.75 79.9375Z" fill="#64728C"/>
<path d="M67.184 83.5C66.9413 83.5 66.75 83.4347 66.61 83.304C66.4793 83.164 66.414 82.9773 66.414 82.744C66.414 82.5013 66.4793 82.3193 66.61 82.198C66.75 82.0767 66.9413 82.016 67.184 82.016H68.752V75.142H69.62L67.562 76.388C67.3847 76.4907 67.2167 76.5327 67.058 76.514C66.9087 76.486 66.778 76.4207 66.666 76.318C66.5633 76.206 66.4933 76.0753 66.456 75.926C66.4187 75.7767 66.428 75.6273 66.484 75.478C66.5493 75.3193 66.6707 75.1887 66.848 75.086L68.78 73.924C68.9667 73.812 69.1533 73.7187 69.34 73.644C69.5267 73.56 69.6993 73.518 69.858 73.518C70.054 73.518 70.2173 73.574 70.348 73.686C70.4787 73.7887 70.544 73.9613 70.544 74.204V82.016H71.972C72.2147 82.016 72.4013 82.0767 72.532 82.198C72.672 82.3193 72.742 82.5013 72.742 82.744C72.742 82.9867 72.672 83.1733 72.532 83.304C72.4013 83.4347 72.2147 83.5 71.972 83.5H67.184ZM75.2565 83.5C74.9579 83.5 74.7385 83.4347 74.5985 83.304C74.4679 83.164 74.4025 82.9633 74.4025 82.702C74.4025 82.5433 74.4445 82.3893 74.5285 82.24C74.6125 82.0907 74.7339 81.932 74.8925 81.764L77.7065 78.768C78.1359 78.32 78.4439 77.914 78.6305 77.55C78.8172 77.1767 78.9105 76.8033 78.9105 76.43C78.9105 75.9633 78.7612 75.6087 78.4625 75.366C78.1732 75.1233 77.7485 75.002 77.1885 75.002C76.8712 75.002 76.5539 75.0487 76.2365 75.142C75.9192 75.226 75.5972 75.3753 75.2705 75.59C75.1025 75.702 74.9439 75.7487 74.7945 75.73C74.6545 75.7113 74.5285 75.6507 74.4165 75.548C74.3139 75.4453 74.2439 75.3193 74.2065 75.17C74.1692 75.0207 74.1739 74.8713 74.2205 74.722C74.2765 74.5633 74.3885 74.428 74.5565 74.316C74.9579 74.0453 75.4059 73.84 75.9005 73.7C76.4045 73.56 76.9085 73.49 77.4125 73.49C78.1219 73.49 78.7192 73.5973 79.2045 73.812C79.6899 74.0267 80.0585 74.3393 80.3105 74.75C80.5625 75.1607 80.6885 75.66 80.6885 76.248C80.6885 76.64 80.6232 77.0227 80.4925 77.396C80.3712 77.7693 80.1799 78.1473 79.9185 78.53C79.6665 78.9127 79.3352 79.3187 78.9245 79.748L76.2925 82.492V82.016H80.4085C80.6605 82.016 80.8519 82.0767 80.9825 82.198C81.1132 82.3193 81.1785 82.5013 81.1785 82.744C81.1785 82.9867 81.1132 83.1733 80.9825 83.304C80.8519 83.4347 80.6605 83.5 80.4085 83.5H75.2565Z" fill="#64728C"/>
<path d="M98 69C92.4766 69 88 73.4766 88 79C88 84.5234 92.4766 89 98 89C103.523 89 108 84.5234 108 79C108 73.4766 103.523 69 98 69ZM101.75 79.9375H98.9375V82.75C98.9375 83.2656 98.5156 83.6875 98.0352 83.6875C97.4844 83.6875 97.0625 83.2656 97.0625 82.75V79.9375H94.25C93.7344 79.9375 93.3125 79.5156 93.3125 79C93.3125 78.4844 93.7344 78.0625 94.25 78.0625H97.0625V75.25C97.0625 74.7344 97.4844 74.3125 98 74.3125C98.5156 74.3125 98.9375 74.7344 98.9375 75.25V78.0625H101.75C102.266 78.0625 102.688 78.4844 102.688 79C102.688 79.5156 102.266 79.9375 101.75 79.9375Z" fill="#64728C"/>
<defs>
<filter id="filter0_d_1082_8997" x="0" y="0" width="148" height="58" filterUnits="userSpaceOnUse" color-interpolation-filters="sRGB">
<feFlood flood-opacity="0" result="BackgroundImageFix"/>
<feColorMatrix in="SourceAlpha" type="matrix" values="0 0 0 0 0 0 0 0 0 0 0 0 0 0 0 0 0 0 127 0" result="hardAlpha"/>
<feOffset dy="4"/>
<feGaussianBlur stdDeviation="2"/>
<feComposite in2="hardAlpha" operator="out"/>
<feColorMatrix type="matrix" values="0 0 0 0 0 0 0 0 0 0 0 0 0 0 0 0 0 0 0.05 0"/>
<feBlend mode="normal" in2="BackgroundImageFix" result="effect1_dropShadow_1082_8997"/>
<feBlend mode="normal" in="SourceGraphic" in2="effect1_dropShadow_1082_8997" result="shape"/>
</filter>
<filter id="filter1_d_1082_8997" x="4" y="4" width="50" height="50" filterUnits="userSpaceOnUse" color-interpolation-filters="sRGB">
<feFlood flood-opacity="0" result="BackgroundImageFix"/>
<feColorMatrix in="SourceAlpha" type="matrix" values="0 0 0 0 0 0 0 0 0 0 0 0 0 0 0 0 0 0 127 0" result="hardAlpha"/>
<feOffset dy="4"/>
<feGaussianBlur stdDeviation="2.5"/>
<feComposite in2="hardAlpha" operator="out"/>
<feColorMatrix type="matrix" values="0 0 0 0 0.392157 0 0 0 0 0.447059 0 0 0 0 0.54902 0 0 0 0.12 0"/>
<feBlend mode="normal" in2="BackgroundImageFix" result="effect1_dropShadow_1082_8997"/>
<feBlend mode="normal" in="SourceGraphic" in2="effect1_dropShadow_1082_8997" result="shape"/>
</filter>
<filter id="filter2_d_1082_8997" x="94" y="4" width="50" height="50" filterUnits="userSpaceOnUse" color-interpolation-filters="sRGB">
<feFlood flood-opacity="0" result="BackgroundImageFix"/>
<feColorMatrix in="SourceAlpha" type="matrix" values="0 0 0 0 0 0 0 0 0 0 0 0 0 0 0 0 0 0 127 0" result="hardAlpha"/>
<feOffset dy="4"/>
<feGaussianBlur stdDeviation="2.5"/>
<feComposite in2="hardAlpha" operator="out"/>
<feColorMatrix type="matrix" values="0 0 0 0 0.392157 0 0 0 0 0.447059 0 0 0 0 0.54902 0 0 0 0.12 0"/>
<feBlend mode="normal" in2="BackgroundImageFix" result="effect1_dropShadow_1082_8997"/>
<feBlend mode="normal" in="SourceGraphic" in2="effect1_dropShadow_1082_8997" result="shape"/>
</filter>
<filter id="filter3_d_1082_8997" x="0" y="106" width="148" height="58" filterUnits="userSpaceOnUse" color-interpolation-filters="sRGB">
<feFlood flood-opacity="0" result="BackgroundImageFix"/>
<feColorMatrix in="SourceAlpha" type="matrix" values="0 0 0 0 0 0 0 0 0 0 0 0 0 0 0 0 0 0 127 0" result="hardAlpha"/>
<feOffset dy="4"/>
<feGaussianBlur stdDeviation="2"/>
<feComposite in2="hardAlpha" operator="out"/>
<feColorMatrix type="matrix" values="0 0 0 0 0 0 0 0 0 0 0 0 0 0 0 0 0 0 0.05 0"/>
<feBlend mode="normal" in2="BackgroundImageFix" result="effect1_dropShadow_1082_8997"/>
<feBlend mode="normal" in="SourceGraphic" in2="effect1_dropShadow_1082_8997" result="shape"/>
</filter>
<filter id="filter4_d_1082_8997" x="4" y="108" width="50" height="50" filterUnits="userSpaceOnUse" color-interpolation-filters="sRGB">
<feFlood flood-opacity="0" result="BackgroundImageFix"/>
<feColorMatrix in="SourceAlpha" type="matrix" values="0 0 0 0 0 0 0 0 0 0 0 0 0 0 0 0 0 0 127 0" result="hardAlpha"/>
<feOffset dy="2"/>
<feGaussianBlur stdDeviation="2.5"/>
<feComposite in2="hardAlpha" operator="out"/>
<feColorMatrix type="matrix" values="0 0 0 0 0.462745 0 0 0 0 0.737255 0 0 0 0 0.129412 0 0 0 0.25 0"/>
<feBlend mode="normal" in2="BackgroundImageFix" result="effect1_dropShadow_1082_8997"/>
<feBlend mode="normal" in="SourceGraphic" in2="effect1_dropShadow_1082_8997" result="shape"/>
</filter>
<filter id="filter5_d_1082_8997" x="94" y="108" width="50" height="50" filterUnits="userSpaceOnUse" color-interpolation-filters="sRGB">
<feFlood flood-opacity="0" result="BackgroundImageFix"/>
<feColorMatrix in="SourceAlpha" type="matrix" values="0 0 0 0 0 0 0 0 0 0 0 0 0 0 0 0 0 0 127 0" result="hardAlpha"/>
<feOffset dy="2"/>
<feGaussianBlur stdDeviation="2.5"/>
<feComposite in2="hardAlpha" operator="out"/>
<feColorMatrix type="matrix" values="0 0 0 0 0.462745 0 0 0 0 0.737255 0 0 0 0 0.129412 0 0 0 0.25 0"/>
<feBlend mode="normal" in2="BackgroundImageFix" result="effect1_dropShadow_1082_8997"/>
<feBlend mode="normal" in="SourceGraphic" in2="effect1_dropShadow_1082_8997" result="shape"/>
</filter>
<linearGradient id="paint0_linear_1082_8997" x1="74" y1="0" x2="74" y2="50" gradientUnits="userSpaceOnUse">
<stop stop-color="#64728C" stop-opacity="0"/>
<stop offset="1" stop-color="#64728C" stop-opacity="0.87"/>
</linearGradient>
<linearGradient id="paint1_linear_1082_8997" x1="29" y1="25" x2="29" y2="45" gradientUnits="userSpaceOnUse">
<stop stop-opacity="0"/>
<stop offset="1" stop-color="#64728C"/>
</linearGradient>
<linearGradient id="paint2_linear_1082_8997" x1="119" y1="25" x2="119" y2="45" gradientUnits="userSpaceOnUse">
<stop stop-opacity="0"/>
<stop offset="1" stop-color="#64728C"/>
</linearGradient>
<linearGradient id="paint3_linear_1082_8997" x1="74" y1="106" x2="74" y2="156" gradientUnits="userSpaceOnUse">
<stop stop-color="#64728C"/>
<stop offset="1" stop-color="#1B1F26"/>
</linearGradient>
<linearGradient id="paint4_linear_1082_8997" x1="74" y1="106" x2="74" y2="156" gradientUnits="userSpaceOnUse">
<stop stop-color="#76BC21" stop-opacity="0.16"/>
<stop offset="1" stop-color="#76BC21"/>
</linearGradient>
<linearGradient id="paint5_linear_1082_8997" x1="29" y1="131" x2="29" y2="151" gradientUnits="userSpaceOnUse">
<stop stop-color="#76BC21"/>
<stop offset="1" stop-color="#64A417"/>
</linearGradient>
<linearGradient id="paint6_linear_1082_8997" x1="119" y1="131" x2="119" y2="151" gradientUnits="userSpaceOnUse">
<stop stop-color="#76BC21"/>
<stop offset="1" stop-color="#64A417"/>
</linearGradient>
<clipPath id="clip0_1082_8997">
<rect width="16" height="16" fill="white" transform="translate(111 17)"/>
</clipPath>
<clipPath id="clip1_1082_8997">
<rect width="16" height="16" fill="white" transform="translate(111 123)"/>
</clipPath>
</defs>
</svg>
