<svg width="242" height="250" viewBox="0 0 242 250" fill="none" xmlns="http://www.w3.org/2000/svg">
<rect width="78" height="81" rx="16" fill="white"/>
<rect x="82" width="78" height="81" rx="16" fill="white"/>
<rect x="164" width="78" height="81" rx="16" fill="white"/>
<rect y="84" width="78" height="82" rx="16" fill="white"/>
<rect y="169" width="78" height="81" rx="16" fill="white"/>
<rect x="82" y="84" width="78" height="82" rx="16" fill="white"/>
<rect x="82" y="169" width="78" height="81" rx="16" fill="white"/>
<rect x="164" y="84" width="78" height="82" rx="16" fill="white"/>
<rect x="164" y="169" width="78" height="81" rx="16" fill="white"/>
<path d="M144 123.5C144 135.926 133.926 146 121.5 146C109.074 146 99 135.926 99 123.5C99 111.074 109.074 101 121.5 101C133.926 101 144 111.074 144 123.5ZM104.351 123.5C104.351 132.971 112.029 140.649 121.5 140.649C130.971 140.649 138.649 132.971 138.649 123.5C138.649 114.029 130.971 106.351 121.5 106.351C112.029 106.351 104.351 114.029 104.351 123.5Z" fill="#DAFDF5"/>
<path d="M121.5 103.591C121.5 102.16 122.664 100.985 124.085 101.149C128.017 101.604 131.775 103.09 134.97 105.477C138.164 107.865 140.654 111.048 142.204 114.69C142.764 116.007 141.966 117.456 140.594 117.861V117.861C139.222 118.266 137.798 117.471 137.193 116.174C135.99 113.598 134.166 111.345 131.868 109.628C129.57 107.91 126.892 106.798 124.081 106.375C122.666 106.162 121.5 105.021 121.5 103.591V103.591Z" fill="#08838F"/>
<path d="M115.596 127C115.34 127 115.152 126.944 115.032 126.832C114.92 126.712 114.864 126.54 114.864 126.316C114.864 126.18 114.9 126.048 114.972 125.92C115.044 125.792 115.148 125.656 115.284 125.512L117.696 122.944C118.064 122.56 118.328 122.212 118.488 121.9C118.648 121.58 118.728 121.26 118.728 120.94C118.728 120.54 118.6 120.236 118.344 120.028C118.096 119.82 117.732 119.716 117.252 119.716C116.98 119.716 116.708 119.756 116.436 119.836C116.164 119.908 115.888 120.036 115.608 120.22C115.464 120.316 115.328 120.356 115.2 120.34C115.08 120.324 114.972 120.272 114.876 120.184C114.788 120.096 114.728 119.988 114.696 119.86C114.664 119.732 114.668 119.604 114.708 119.476C114.756 119.34 114.852 119.224 114.996 119.128C115.34 118.896 115.724 118.72 116.148 118.6C116.58 118.48 117.012 118.42 117.444 118.42C118.052 118.42 118.564 118.512 118.98 118.696C119.396 118.88 119.712 119.148 119.928 119.5C120.144 119.852 120.252 120.28 120.252 120.784C120.252 121.12 120.196 121.448 120.084 121.768C119.98 122.088 119.816 122.412 119.592 122.74C119.376 123.068 119.092 123.416 118.74 123.784L116.484 126.136V125.728H120.012C120.228 125.728 120.392 125.78 120.504 125.884C120.616 125.988 120.672 126.144 120.672 126.352C120.672 126.56 120.616 126.72 120.504 126.832C120.392 126.944 120.228 127 120.012 127H115.596ZM124.867 127.12C124.443 127.12 124.011 127.064 123.571 126.952C123.131 126.84 122.727 126.668 122.359 126.436C122.207 126.34 122.103 126.228 122.047 126.1C121.999 125.964 121.987 125.832 122.011 125.704C122.043 125.568 122.103 125.456 122.191 125.368C122.287 125.272 122.399 125.216 122.527 125.2C122.663 125.184 122.811 125.22 122.971 125.308C123.267 125.476 123.567 125.604 123.871 125.692C124.175 125.78 124.499 125.824 124.843 125.824C125.179 125.824 125.467 125.764 125.707 125.644C125.947 125.524 126.131 125.356 126.259 125.14C126.387 124.924 126.451 124.672 126.451 124.384C126.451 123.936 126.315 123.576 126.043 123.304C125.771 123.024 125.399 122.884 124.927 122.884C124.671 122.884 124.423 122.928 124.183 123.016C123.943 123.096 123.707 123.24 123.475 123.448C123.403 123.512 123.311 123.576 123.199 123.64C123.087 123.696 122.967 123.724 122.839 123.724C122.639 123.724 122.487 123.672 122.383 123.568C122.279 123.464 122.227 123.32 122.227 123.136V119.212C122.227 118.996 122.283 118.832 122.395 118.72C122.515 118.6 122.683 118.54 122.899 118.54H126.847C127.063 118.54 127.227 118.596 127.339 118.708C127.459 118.812 127.519 118.968 127.519 119.176C127.519 119.376 127.459 119.532 127.339 119.644C127.227 119.756 127.063 119.812 126.847 119.812H123.727V122.5H123.331C123.539 122.22 123.815 122.004 124.159 121.852C124.503 121.7 124.879 121.624 125.287 121.624C125.823 121.624 126.287 121.74 126.679 121.972C127.079 122.196 127.387 122.512 127.603 122.92C127.827 123.32 127.939 123.788 127.939 124.324C127.939 124.876 127.815 125.364 127.567 125.788C127.319 126.204 126.963 126.532 126.499 126.772C126.043 127.004 125.499 127.12 124.867 127.12Z" fill="#08838F"/>
<path d="M101.41 156.08C101.203 156.08 101.043 156.023 100.93 155.91C100.823 155.79 100.77 155.627 100.77 155.42V149.6C100.77 149.387 100.827 149.227 100.94 149.12C101.053 149.007 101.213 148.95 101.42 148.95H103.83C104.603 148.95 105.2 149.143 105.62 149.53C106.04 149.917 106.25 150.457 106.25 151.15C106.25 151.843 106.04 152.387 105.62 152.78C105.2 153.167 104.603 153.36 103.83 153.36H102.05V155.42C102.05 155.627 101.997 155.79 101.89 155.91C101.783 156.023 101.623 156.08 101.41 156.08ZM102.05 152.35H103.63C104.083 152.35 104.427 152.25 104.66 152.05C104.893 151.843 105.01 151.543 105.01 151.15C105.01 150.757 104.893 150.46 104.66 150.26C104.427 150.06 104.083 149.96 103.63 149.96H102.05V152.35ZM107.716 156.08C107.509 156.08 107.349 156.027 107.236 155.92C107.129 155.807 107.076 155.647 107.076 155.44V151.66C107.076 151.453 107.129 151.297 107.236 151.19C107.342 151.083 107.492 151.03 107.686 151.03C107.879 151.03 108.029 151.083 108.136 151.19C108.242 151.297 108.296 151.453 108.296 151.66V152.29H108.196C108.289 151.89 108.472 151.587 108.746 151.38C109.019 151.173 109.382 151.05 109.836 151.01C109.976 150.997 110.086 151.033 110.166 151.12C110.252 151.2 110.302 151.327 110.316 151.5C110.329 151.667 110.289 151.803 110.196 151.91C110.109 152.01 109.976 152.07 109.796 152.09L109.576 152.11C109.169 152.15 108.862 152.277 108.656 152.49C108.449 152.697 108.346 152.99 108.346 153.37V155.44C108.346 155.647 108.292 155.807 108.186 155.92C108.079 156.027 107.922 156.08 107.716 156.08ZM113.144 156.1C112.637 156.1 112.197 155.997 111.824 155.79C111.45 155.583 111.16 155.29 110.954 154.91C110.747 154.523 110.644 154.07 110.644 153.55C110.644 153.157 110.7 152.807 110.814 152.5C110.934 152.187 111.104 151.92 111.324 151.7C111.544 151.473 111.807 151.303 112.114 151.19C112.42 151.07 112.764 151.01 113.144 151.01C113.65 151.01 114.09 151.113 114.464 151.32C114.837 151.527 115.127 151.82 115.334 152.2C115.54 152.58 115.644 153.03 115.644 153.55C115.644 153.943 115.584 154.297 115.464 154.61C115.35 154.923 115.184 155.193 114.964 155.42C114.744 155.64 114.48 155.81 114.174 155.93C113.867 156.043 113.524 156.1 113.144 156.1ZM113.144 155.15C113.39 155.15 113.607 155.09 113.794 154.97C113.98 154.85 114.124 154.673 114.224 154.44C114.33 154.2 114.384 153.903 114.384 153.55C114.384 153.017 114.27 152.62 114.044 152.36C113.817 152.093 113.517 151.96 113.144 151.96C112.897 151.96 112.68 152.02 112.494 152.14C112.307 152.253 112.16 152.43 112.054 152.67C111.954 152.903 111.904 153.197 111.904 153.55C111.904 154.077 112.017 154.477 112.244 154.75C112.47 155.017 112.77 155.15 113.144 155.15ZM118.955 157.9C118.595 157.9 118.245 157.867 117.905 157.8C117.572 157.733 117.269 157.63 116.995 157.49C116.869 157.423 116.782 157.343 116.735 157.25C116.695 157.157 116.682 157.06 116.695 156.96C116.715 156.867 116.755 156.783 116.815 156.71C116.882 156.637 116.962 156.587 117.055 156.56C117.149 156.533 117.245 156.547 117.345 156.6C117.639 156.747 117.915 156.84 118.175 156.88C118.442 156.927 118.669 156.95 118.855 156.95C119.302 156.95 119.635 156.84 119.855 156.62C120.082 156.407 120.195 156.087 120.195 155.66V154.76H120.285C120.185 155.1 119.975 155.373 119.655 155.58C119.342 155.78 118.985 155.88 118.585 155.88C118.145 155.88 117.762 155.78 117.435 155.58C117.109 155.373 116.855 155.087 116.675 154.72C116.495 154.353 116.405 153.927 116.405 153.44C116.405 153.073 116.455 152.743 116.555 152.45C116.662 152.15 116.809 151.893 116.995 151.68C117.189 151.467 117.419 151.303 117.685 151.19C117.959 151.07 118.259 151.01 118.585 151.01C118.999 151.01 119.359 151.113 119.665 151.32C119.979 151.52 120.182 151.787 120.275 152.12L120.175 152.37V151.66C120.175 151.453 120.229 151.297 120.335 151.19C120.449 151.083 120.602 151.03 120.795 151.03C120.995 151.03 121.149 151.083 121.255 151.19C121.362 151.297 121.415 151.453 121.415 151.66V155.51C121.415 156.303 121.205 156.9 120.785 157.3C120.365 157.7 119.755 157.9 118.955 157.9ZM118.925 154.93C119.185 154.93 119.409 154.87 119.595 154.75C119.782 154.63 119.925 154.46 120.025 154.24C120.132 154.013 120.185 153.747 120.185 153.44C120.185 152.98 120.072 152.62 119.845 152.36C119.619 152.093 119.312 151.96 118.925 151.96C118.665 151.96 118.442 152.02 118.255 152.14C118.069 152.26 117.922 152.43 117.815 152.65C117.715 152.87 117.665 153.133 117.665 153.44C117.665 153.9 117.779 154.263 118.005 154.53C118.232 154.797 118.539 154.93 118.925 154.93ZM123.351 156.08C123.144 156.08 122.984 156.027 122.871 155.92C122.764 155.807 122.711 155.647 122.711 155.44V151.66C122.711 151.453 122.764 151.297 122.871 151.19C122.977 151.083 123.127 151.03 123.321 151.03C123.514 151.03 123.664 151.083 123.771 151.19C123.877 151.297 123.931 151.453 123.931 151.66V152.29H123.831C123.924 151.89 124.107 151.587 124.381 151.38C124.654 151.173 125.017 151.05 125.471 151.01C125.611 150.997 125.721 151.033 125.801 151.12C125.887 151.2 125.937 151.327 125.951 151.5C125.964 151.667 125.924 151.803 125.831 151.91C125.744 152.01 125.611 152.07 125.431 152.09L125.211 152.11C124.804 152.15 124.497 152.277 124.291 152.49C124.084 152.697 123.981 152.99 123.981 153.37V155.44C123.981 155.647 123.927 155.807 123.821 155.92C123.714 156.027 123.557 156.08 123.351 156.08ZM128.958 156.1C128.405 156.1 127.928 155.997 127.528 155.79C127.128 155.583 126.818 155.29 126.598 154.91C126.385 154.53 126.278 154.08 126.278 153.56C126.278 153.053 126.382 152.61 126.588 152.23C126.802 151.85 127.092 151.553 127.458 151.34C127.832 151.12 128.255 151.01 128.728 151.01C129.075 151.01 129.385 151.067 129.658 151.18C129.938 151.293 130.175 151.457 130.368 151.67C130.568 151.883 130.718 152.143 130.818 152.45C130.925 152.75 130.978 153.09 130.978 153.47C130.978 153.59 130.935 153.683 130.848 153.75C130.768 153.81 130.652 153.84 130.498 153.84H127.288V153.12H130.098L129.938 153.27C129.938 152.963 129.892 152.707 129.798 152.5C129.712 152.293 129.582 152.137 129.408 152.03C129.242 151.917 129.032 151.86 128.778 151.86C128.498 151.86 128.258 151.927 128.058 152.06C127.865 152.187 127.715 152.37 127.608 152.61C127.508 152.843 127.458 153.123 127.458 153.45V153.52C127.458 154.067 127.585 154.477 127.838 154.75C128.098 155.017 128.478 155.15 128.978 155.15C129.152 155.15 129.345 155.13 129.558 155.09C129.778 155.043 129.985 154.967 130.178 154.86C130.318 154.78 130.442 154.747 130.548 154.76C130.655 154.767 130.738 154.803 130.798 154.87C130.865 154.937 130.905 155.02 130.918 155.12C130.932 155.213 130.912 155.31 130.858 155.41C130.812 155.51 130.728 155.597 130.608 155.67C130.375 155.817 130.105 155.927 129.798 156C129.498 156.067 129.218 156.1 128.958 156.1ZM133.758 156.1C133.472 156.1 133.168 156.07 132.848 156.01C132.528 155.95 132.242 155.847 131.988 155.7C131.882 155.633 131.805 155.557 131.758 155.47C131.718 155.377 131.702 155.287 131.708 155.2C131.722 155.107 131.755 155.027 131.808 154.96C131.868 154.893 131.942 154.85 132.028 154.83C132.122 154.81 132.222 154.827 132.328 154.88C132.595 155.007 132.845 155.097 133.078 155.15C133.312 155.197 133.542 155.22 133.768 155.22C134.088 155.22 134.325 155.167 134.478 155.06C134.638 154.947 134.718 154.8 134.718 154.62C134.718 154.467 134.665 154.35 134.558 154.27C134.458 154.183 134.305 154.12 134.098 154.08L133.098 153.89C132.685 153.81 132.368 153.66 132.148 153.44C131.935 153.213 131.828 152.923 131.828 152.57C131.828 152.25 131.915 151.973 132.088 151.74C132.268 151.507 132.515 151.327 132.828 151.2C133.142 151.073 133.502 151.01 133.908 151.01C134.202 151.01 134.475 151.043 134.728 151.11C134.988 151.17 135.238 151.267 135.478 151.4C135.578 151.453 135.645 151.523 135.678 151.61C135.718 151.697 135.728 151.787 135.708 151.88C135.688 151.967 135.648 152.047 135.588 152.12C135.528 152.187 135.452 152.23 135.358 152.25C135.272 152.263 135.172 152.243 135.058 152.19C134.852 152.083 134.652 152.007 134.458 151.96C134.272 151.913 134.092 151.89 133.918 151.89C133.592 151.89 133.348 151.947 133.188 152.06C133.035 152.173 132.958 152.323 132.958 152.51C132.958 152.65 133.005 152.767 133.098 152.86C133.192 152.953 133.335 153.017 133.528 153.05L134.528 153.24C134.962 153.32 135.288 153.467 135.508 153.68C135.735 153.893 135.848 154.18 135.848 154.54C135.848 155.027 135.658 155.41 135.278 155.69C134.898 155.963 134.392 156.1 133.758 156.1ZM138.641 156.1C138.355 156.1 138.051 156.07 137.731 156.01C137.411 155.95 137.125 155.847 136.871 155.7C136.765 155.633 136.688 155.557 136.641 155.47C136.601 155.377 136.585 155.287 136.591 155.2C136.605 155.107 136.638 155.027 136.691 154.96C136.751 154.893 136.825 154.85 136.911 154.83C137.005 154.81 137.105 154.827 137.211 154.88C137.478 155.007 137.728 155.097 137.961 155.15C138.195 155.197 138.425 155.22 138.651 155.22C138.971 155.22 139.208 155.167 139.361 155.06C139.521 154.947 139.601 154.8 139.601 154.62C139.601 154.467 139.548 154.35 139.441 154.27C139.341 154.183 139.188 154.12 138.981 154.08L137.981 153.89C137.568 153.81 137.251 153.66 137.031 153.44C136.818 153.213 136.711 152.923 136.711 152.57C136.711 152.25 136.798 151.973 136.971 151.74C137.151 151.507 137.398 151.327 137.711 151.2C138.025 151.073 138.385 151.01 138.791 151.01C139.085 151.01 139.358 151.043 139.611 151.11C139.871 151.17 140.121 151.267 140.361 151.4C140.461 151.453 140.528 151.523 140.561 151.61C140.601 151.697 140.611 151.787 140.591 151.88C140.571 151.967 140.531 152.047 140.471 152.12C140.411 152.187 140.335 152.23 140.241 152.25C140.155 152.263 140.055 152.243 139.941 152.19C139.735 152.083 139.535 152.007 139.341 151.96C139.155 151.913 138.975 151.89 138.801 151.89C138.475 151.89 138.231 151.947 138.071 152.06C137.918 152.173 137.841 152.323 137.841 152.51C137.841 152.65 137.888 152.767 137.981 152.86C138.075 152.953 138.218 153.017 138.411 153.05L139.411 153.24C139.845 153.32 140.171 153.467 140.391 153.68C140.618 153.893 140.731 154.18 140.731 154.54C140.731 155.027 140.541 155.41 140.161 155.69C139.781 155.963 139.275 156.1 138.641 156.1Z" fill="#08838F"/>
<path d="M62 123.5C62 135.926 51.9264 146 39.5 146C27.0736 146 17 135.926 17 123.5C17 111.074 27.0736 101 39.5 101C51.9264 101 62 111.074 62 123.5ZM22.3514 123.5C22.3514 132.971 30.0291 140.649 39.5 140.649C48.9709 140.649 56.6486 132.971 56.6486 123.5C56.6486 114.029 48.9709 106.351 39.5 106.351C30.0291 106.351 22.3514 114.029 22.3514 123.5Z" fill="#FFF3B9"/>
<path d="M39.5 103.591C39.5 102.16 40.6637 100.985 42.085 101.149C44.1521 101.388 46.1802 101.913 48.1104 102.713C50.8402 103.843 53.3206 105.501 55.4099 107.59C57.4992 109.679 59.1566 112.16 60.2873 114.89C61.0868 116.82 61.6119 118.848 61.851 120.915C62.0154 122.336 60.8401 123.5 59.4093 123.5V123.5C57.9785 123.5 56.8385 122.334 56.6252 120.919C56.4163 119.533 56.0393 118.174 55.5003 116.872C54.63 114.771 53.3543 112.862 51.7461 111.254C50.1379 109.646 48.2288 108.37 46.1276 107.5C44.8264 106.961 43.4674 106.584 42.081 106.375C40.6662 106.162 39.5 105.021 39.5 103.591V103.591Z" fill="#FFB300"/>
<path d="M33.432 127.12C33 127.12 32.552 127.064 32.088 126.952C31.624 126.84 31.22 126.672 30.876 126.448C30.716 126.344 30.608 126.224 30.552 126.088C30.496 125.952 30.48 125.824 30.504 125.704C30.536 125.576 30.596 125.468 30.684 125.38C30.78 125.292 30.896 125.24 31.032 125.224C31.176 125.208 31.332 125.244 31.5 125.332C31.828 125.508 32.144 125.636 32.448 125.716C32.752 125.788 33.064 125.824 33.384 125.824C33.736 125.824 34.032 125.776 34.272 125.68C34.512 125.584 34.692 125.44 34.812 125.248C34.94 125.056 35.004 124.824 35.004 124.552C35.004 124.152 34.868 123.856 34.596 123.664C34.332 123.464 33.944 123.364 33.432 123.364H32.664C32.44 123.364 32.268 123.308 32.148 123.196C32.036 123.084 31.98 122.928 31.98 122.728C31.98 122.528 32.036 122.372 32.148 122.26C32.268 122.148 32.44 122.092 32.664 122.092H33.288C33.592 122.092 33.852 122.044 34.068 121.948C34.284 121.844 34.452 121.7 34.572 121.516C34.692 121.332 34.752 121.108 34.752 120.844C34.752 120.476 34.628 120.196 34.38 120.004C34.14 119.812 33.788 119.716 33.324 119.716C33.028 119.716 32.748 119.752 32.484 119.824C32.228 119.888 31.944 120.012 31.632 120.196C31.488 120.284 31.348 120.32 31.212 120.304C31.084 120.288 30.976 120.236 30.888 120.148C30.8 120.06 30.74 119.956 30.708 119.836C30.676 119.708 30.684 119.58 30.732 119.452C30.78 119.316 30.88 119.2 31.032 119.104C31.376 118.88 31.756 118.712 32.172 118.6C32.588 118.48 33.016 118.42 33.456 118.42C34.04 118.42 34.54 118.512 34.956 118.696C35.372 118.872 35.688 119.128 35.904 119.464C36.128 119.792 36.24 120.192 36.24 120.664C36.24 121 36.176 121.308 36.048 121.588C35.92 121.86 35.74 122.092 35.508 122.284C35.276 122.476 34.996 122.612 34.668 122.692V122.548C35.244 122.644 35.692 122.884 36.012 123.268C36.332 123.644 36.492 124.116 36.492 124.684C36.492 125.18 36.368 125.612 36.12 125.98C35.872 126.348 35.52 126.632 35.064 126.832C34.608 127.024 34.064 127.12 33.432 127.12ZM40.8673 127.12C40.4433 127.12 40.0113 127.064 39.5713 126.952C39.1313 126.84 38.7273 126.668 38.3593 126.436C38.2073 126.34 38.1033 126.228 38.0473 126.1C37.9993 125.964 37.9873 125.832 38.0113 125.704C38.0433 125.568 38.1033 125.456 38.1913 125.368C38.2873 125.272 38.3993 125.216 38.5273 125.2C38.6633 125.184 38.8113 125.22 38.9713 125.308C39.2673 125.476 39.5673 125.604 39.8713 125.692C40.1753 125.78 40.4993 125.824 40.8433 125.824C41.1793 125.824 41.4673 125.764 41.7073 125.644C41.9473 125.524 42.1313 125.356 42.2593 125.14C42.3873 124.924 42.4513 124.672 42.4513 124.384C42.4513 123.936 42.3153 123.576 42.0433 123.304C41.7713 123.024 41.3993 122.884 40.9273 122.884C40.6713 122.884 40.4233 122.928 40.1833 123.016C39.9433 123.096 39.7073 123.24 39.4753 123.448C39.4033 123.512 39.3113 123.576 39.1993 123.64C39.0873 123.696 38.9673 123.724 38.8393 123.724C38.6393 123.724 38.4873 123.672 38.3833 123.568C38.2793 123.464 38.2273 123.32 38.2273 123.136V119.212C38.2273 118.996 38.2833 118.832 38.3953 118.72C38.5153 118.6 38.6833 118.54 38.8993 118.54H42.8473C43.0633 118.54 43.2273 118.596 43.3393 118.708C43.4593 118.812 43.5193 118.968 43.5193 119.176C43.5193 119.376 43.4593 119.532 43.3393 119.644C43.2273 119.756 43.0633 119.812 42.8473 119.812H39.7273V122.5H39.3313C39.5393 122.22 39.8153 122.004 40.1593 121.852C40.5033 121.7 40.8793 121.624 41.2873 121.624C41.8233 121.624 42.2873 121.74 42.6793 121.972C43.0793 122.196 43.3873 122.512 43.6033 122.92C43.8273 123.32 43.9393 123.788 43.9393 124.324C43.9393 124.876 43.8153 125.364 43.5673 125.788C43.3193 126.204 42.9633 126.532 42.4993 126.772C42.0433 127.004 41.4993 127.12 40.8673 127.12ZM46.8818 122.906C46.8242 123.002 46.7546 123.065 46.673 123.094C46.5914 123.127 46.5098 123.134 46.4282 123.115C46.3466 123.096 46.277 123.058 46.2194 123C46.1666 122.938 46.133 122.863 46.1186 122.777C46.1042 122.69 46.1258 122.599 46.1834 122.503L48.7682 118.025C48.8258 117.924 48.8954 117.857 48.977 117.823C49.0586 117.79 49.1378 117.785 49.2146 117.809C49.2962 117.828 49.3658 117.869 49.4234 117.931C49.481 117.989 49.517 118.061 49.5314 118.147C49.5458 118.234 49.5242 118.325 49.4666 118.421L46.8818 122.906ZM45.9746 120.948C45.557 120.948 45.233 120.809 45.0026 120.53C44.7722 120.247 44.657 119.868 44.657 119.393C44.657 119.071 44.7074 118.795 44.8082 118.565C44.9138 118.334 45.065 118.157 45.2618 118.032C45.4634 117.907 45.701 117.845 45.9746 117.845C46.3874 117.845 46.709 117.986 46.9394 118.27C47.1746 118.548 47.2922 118.922 47.2922 119.393C47.2922 119.71 47.2394 119.986 47.1338 120.221C47.033 120.451 46.8842 120.631 46.6874 120.761C46.4906 120.886 46.253 120.948 45.9746 120.948ZM45.9746 120.257C46.0706 120.257 46.1498 120.228 46.2122 120.17C46.2794 120.108 46.3298 120.014 46.3634 119.89C46.4018 119.76 46.421 119.594 46.421 119.393C46.421 119.09 46.3802 118.874 46.2986 118.745C46.2218 118.61 46.1138 118.543 45.9746 118.543C45.8786 118.543 45.797 118.572 45.7298 118.63C45.6626 118.687 45.6122 118.778 45.5786 118.903C45.545 119.023 45.5282 119.186 45.5282 119.393C45.5282 119.7 45.5666 119.921 45.6434 120.055C45.7202 120.19 45.8306 120.257 45.9746 120.257ZM49.6826 123.079C49.265 123.079 48.941 122.938 48.7106 122.654C48.4802 122.371 48.365 121.992 48.365 121.517C48.365 121.2 48.4178 120.926 48.5234 120.696C48.629 120.466 48.7802 120.288 48.977 120.163C49.1738 120.038 49.409 119.976 49.6826 119.976C50.0954 119.976 50.417 120.115 50.6474 120.394C50.8826 120.672 51.0002 121.046 51.0002 121.517C51.0002 121.834 50.9474 122.11 50.8418 122.345C50.741 122.58 50.5922 122.762 50.3954 122.892C50.1986 123.017 49.961 123.079 49.6826 123.079ZM49.6826 122.381C49.7786 122.381 49.8578 122.352 49.9202 122.294C49.9874 122.237 50.0378 122.143 50.0714 122.014C50.1098 121.884 50.129 121.718 50.129 121.517C50.129 121.214 50.0882 120.998 50.0066 120.869C49.9298 120.734 49.8218 120.667 49.6826 120.667C49.5866 120.667 49.505 120.696 49.4378 120.754C49.3754 120.811 49.325 120.902 49.2866 121.027C49.253 121.152 49.2362 121.315 49.2362 121.517C49.2362 121.829 49.2746 122.052 49.3514 122.186C49.4282 122.316 49.5386 122.381 49.6826 122.381Z" fill="#FFB300"/>
<path d="M144 41.5C144 53.9264 133.926 64 121.5 64C109.074 64 99 53.9264 99 41.5C99 29.0736 109.074 19 121.5 19C133.926 19 144 29.0736 144 41.5ZM104.351 41.5C104.351 50.9709 112.029 58.6486 121.5 58.6486C130.971 58.6486 138.649 50.9709 138.649 41.5C138.649 32.0291 130.971 24.3514 121.5 24.3514C112.029 24.3514 104.351 32.0291 104.351 41.5Z" fill="#38455D" fill-opacity="0.15"/>
<path d="M121.5 21.5907C121.5 20.1599 122.664 18.9846 124.085 19.149C127.62 19.5578 131.021 20.8012 134 22.7919C137.7 25.2643 140.584 28.7783 142.287 32.8896C143.99 37.001 144.436 41.525 143.568 45.8895C142.869 49.4039 141.343 52.6879 139.132 55.4767C138.244 56.5979 136.59 56.5897 135.578 55.578V55.578C134.566 54.5663 134.585 52.9355 135.434 51.7843C136.941 49.7433 137.987 47.3873 138.486 44.8787C139.154 41.5192 138.811 38.037 137.5 34.8724C136.19 31.7079 133.97 29.0031 131.122 27.1001C128.995 25.6791 126.589 24.7528 124.081 24.3748C122.666 24.1615 121.5 23.0215 121.5 21.5907V21.5907Z" fill="#38455D"/>
<path d="M118.956 45.096C118.716 45.096 118.528 45.032 118.392 44.904C118.256 44.768 118.188 44.576 118.188 44.328V43.392H115.224C114.976 43.392 114.776 43.34 114.624 43.236C114.48 43.132 114.408 42.968 114.408 42.744C114.408 42.616 114.44 42.476 114.504 42.324C114.576 42.172 114.7 41.972 114.876 41.724L118.164 36.96C118.276 36.792 118.4 36.664 118.536 36.576C118.672 36.488 118.828 36.444 119.004 36.444C119.212 36.444 119.384 36.508 119.52 36.636C119.656 36.756 119.724 36.948 119.724 37.212V42.12H120.312C120.544 42.12 120.716 42.176 120.828 42.288C120.948 42.392 121.008 42.548 121.008 42.756C121.008 42.964 120.948 43.124 120.828 43.236C120.716 43.34 120.544 43.392 120.312 43.392H119.724V44.328C119.724 44.576 119.656 44.768 119.52 44.904C119.384 45.032 119.196 45.096 118.956 45.096ZM118.188 42.12V38.376H118.536L115.704 42.528V42.12H118.188ZM124.867 45.12C124.443 45.12 124.011 45.064 123.571 44.952C123.131 44.84 122.727 44.668 122.359 44.436C122.207 44.34 122.103 44.228 122.047 44.1C121.999 43.964 121.987 43.832 122.011 43.704C122.043 43.568 122.103 43.456 122.191 43.368C122.287 43.272 122.399 43.216 122.527 43.2C122.663 43.184 122.811 43.22 122.971 43.308C123.267 43.476 123.567 43.604 123.871 43.692C124.175 43.78 124.499 43.824 124.843 43.824C125.179 43.824 125.467 43.764 125.707 43.644C125.947 43.524 126.131 43.356 126.259 43.14C126.387 42.924 126.451 42.672 126.451 42.384C126.451 41.936 126.315 41.576 126.043 41.304C125.771 41.024 125.399 40.884 124.927 40.884C124.671 40.884 124.423 40.928 124.183 41.016C123.943 41.096 123.707 41.24 123.475 41.448C123.403 41.512 123.311 41.576 123.199 41.64C123.087 41.696 122.967 41.724 122.839 41.724C122.639 41.724 122.487 41.672 122.383 41.568C122.279 41.464 122.227 41.32 122.227 41.136V37.212C122.227 36.996 122.283 36.832 122.395 36.72C122.515 36.6 122.683 36.54 122.899 36.54H126.847C127.063 36.54 127.227 36.596 127.339 36.708C127.459 36.812 127.519 36.968 127.519 37.176C127.519 37.376 127.459 37.532 127.339 37.644C127.227 37.756 127.063 37.812 126.847 37.812H123.727V40.5H123.331C123.539 40.22 123.815 40.004 124.159 39.852C124.503 39.7 124.879 39.624 125.287 39.624C125.823 39.624 126.287 39.74 126.679 39.972C127.079 40.196 127.387 40.512 127.603 40.92C127.827 41.32 127.939 41.788 127.939 42.324C127.939 42.876 127.815 43.364 127.567 43.788C127.319 44.204 126.963 44.532 126.499 44.772C126.043 45.004 125.499 45.12 124.867 45.12Z" fill="#38455D"/>
<path d="M225 124.5C225 136.926 214.926 147 202.5 147C190.074 147 180 136.926 180 124.5C180 112.074 190.074 102 202.5 102C214.926 102 225 112.074 225 124.5ZM185.351 124.5C185.351 133.971 193.029 141.649 202.5 141.649C211.971 141.649 219.649 133.971 219.649 124.5C219.649 115.029 211.971 107.351 202.5 107.351C193.029 107.351 185.351 115.029 185.351 124.5Z" fill="#F1ECFF"/>
<path d="M202.5 104.591C202.5 103.16 203.664 101.985 205.085 102.149C208.352 102.527 211.507 103.618 214.323 105.357C217.876 107.551 220.749 110.692 222.619 114.426C224.489 118.16 225.282 122.341 224.911 126.501C224.539 130.661 223.018 134.635 220.516 137.979C218.014 141.323 214.631 143.904 210.745 145.435C206.859 146.965 202.624 147.384 198.514 146.644C194.404 145.904 190.581 144.035 187.473 141.246C185.009 139.035 183.072 136.316 181.787 133.289C181.229 131.972 182.028 130.524 183.4 130.12V130.12C184.773 129.716 186.196 130.513 186.8 131.81C187.783 133.922 189.186 135.822 190.933 137.39C193.326 139.537 196.268 140.975 199.432 141.545C202.596 142.114 205.856 141.792 208.846 140.614C211.837 139.436 214.441 137.449 216.367 134.875C218.293 132.301 219.464 129.242 219.75 126.04C220.036 122.838 219.425 119.62 217.986 116.746C216.546 113.871 214.336 111.454 211.601 109.765C209.604 108.532 207.385 107.722 205.081 107.375C203.666 107.162 202.5 106.021 202.5 104.591V104.591Z" fill="#5E36FF"/>
<path d="M194.912 128.12C194.216 128.12 193.62 127.956 193.124 127.628C192.636 127.292 192.264 126.812 192.008 126.188C191.752 125.564 191.624 124.808 191.624 123.92C191.624 123.2 191.704 122.564 191.864 122.012C192.032 121.452 192.272 120.98 192.584 120.596C192.896 120.212 193.276 119.92 193.724 119.72C194.18 119.52 194.692 119.42 195.26 119.42C195.612 119.42 195.968 119.476 196.328 119.588C196.696 119.692 197.04 119.852 197.36 120.068C197.488 120.148 197.572 120.252 197.612 120.38C197.652 120.508 197.656 120.636 197.624 120.764C197.6 120.884 197.544 120.992 197.456 121.088C197.376 121.176 197.272 121.232 197.144 121.256C197.016 121.272 196.876 121.236 196.724 121.148C196.452 120.988 196.196 120.876 195.956 120.812C195.716 120.748 195.476 120.716 195.236 120.716C194.772 120.716 194.38 120.824 194.06 121.04C193.74 121.256 193.496 121.58 193.328 122.012C193.168 122.444 193.088 122.984 193.088 123.632V124.532H192.944C193.008 124.124 193.14 123.776 193.34 123.488C193.548 123.192 193.812 122.968 194.132 122.816C194.452 122.656 194.808 122.576 195.2 122.576C195.688 122.576 196.12 122.692 196.496 122.924C196.872 123.156 197.168 123.476 197.384 123.884C197.6 124.292 197.708 124.76 197.708 125.288C197.708 125.832 197.588 126.32 197.348 126.752C197.116 127.176 196.788 127.512 196.364 127.76C195.948 128 195.464 128.12 194.912 128.12ZM194.828 126.896C195.116 126.896 195.368 126.832 195.584 126.704C195.808 126.576 195.98 126.396 196.1 126.164C196.22 125.924 196.28 125.652 196.28 125.348C196.28 125.036 196.22 124.764 196.1 124.532C195.98 124.3 195.808 124.12 195.584 123.992C195.368 123.856 195.116 123.788 194.828 123.788C194.54 123.788 194.288 123.856 194.072 123.992C193.856 124.12 193.684 124.3 193.556 124.532C193.436 124.764 193.376 125.036 193.376 125.348C193.376 125.652 193.436 125.924 193.556 126.164C193.684 126.396 193.856 126.576 194.072 126.704C194.288 126.832 194.54 126.896 194.828 126.896ZM200.259 128.096C200.075 128.096 199.923 128.052 199.803 127.964C199.683 127.876 199.611 127.76 199.587 127.616C199.563 127.464 199.599 127.296 199.695 127.112L203.319 120.296V120.824H199.431C199.215 120.824 199.047 120.768 198.927 120.656C198.815 120.544 198.759 120.388 198.759 120.188C198.759 119.98 198.815 119.82 198.927 119.708C199.047 119.596 199.215 119.54 199.431 119.54H204.075C204.291 119.54 204.467 119.596 204.603 119.708C204.739 119.82 204.807 119.98 204.807 120.188C204.807 120.364 204.783 120.52 204.735 120.656C204.687 120.784 204.623 120.924 204.543 121.076L201.135 127.592C201.047 127.768 200.931 127.896 200.787 127.976C200.651 128.056 200.475 128.096 200.259 128.096ZM209.063 128.12C208.639 128.12 208.207 128.064 207.767 127.952C207.327 127.84 206.923 127.668 206.555 127.436C206.403 127.34 206.299 127.228 206.243 127.1C206.195 126.964 206.183 126.832 206.207 126.704C206.239 126.568 206.299 126.456 206.387 126.368C206.483 126.272 206.595 126.216 206.723 126.2C206.859 126.184 207.007 126.22 207.167 126.308C207.463 126.476 207.763 126.604 208.067 126.692C208.371 126.78 208.695 126.824 209.039 126.824C209.375 126.824 209.663 126.764 209.903 126.644C210.143 126.524 210.327 126.356 210.455 126.14C210.583 125.924 210.647 125.672 210.647 125.384C210.647 124.936 210.511 124.576 210.239 124.304C209.967 124.024 209.595 123.884 209.123 123.884C208.867 123.884 208.619 123.928 208.379 124.016C208.139 124.096 207.903 124.24 207.671 124.448C207.599 124.512 207.507 124.576 207.395 124.64C207.283 124.696 207.163 124.724 207.035 124.724C206.835 124.724 206.683 124.672 206.579 124.568C206.475 124.464 206.423 124.32 206.423 124.136V120.212C206.423 119.996 206.479 119.832 206.591 119.72C206.711 119.6 206.879 119.54 207.095 119.54H211.043C211.259 119.54 211.423 119.596 211.535 119.708C211.655 119.812 211.715 119.968 211.715 120.176C211.715 120.376 211.655 120.532 211.535 120.644C211.423 120.756 211.259 120.812 211.043 120.812H207.923V123.5H207.527C207.735 123.22 208.011 123.004 208.355 122.852C208.699 122.7 209.075 122.624 209.483 122.624C210.019 122.624 210.483 122.74 210.875 122.972C211.275 123.196 211.583 123.512 211.799 123.92C212.023 124.32 212.135 124.788 212.135 125.324C212.135 125.876 212.011 126.364 211.763 126.788C211.515 127.204 211.159 127.532 210.695 127.772C210.239 128.004 209.695 128.12 209.063 128.12Z" fill="#5E36FF"/>
<path d="M144 211.5C144 223.926 133.926 234 121.5 234C109.074 234 99 223.926 99 211.5C99 199.074 109.074 189 121.5 189C133.926 189 144 199.074 144 211.5ZM104.351 211.5C104.351 220.971 112.029 228.649 121.5 228.649C130.971 228.649 138.649 220.971 138.649 211.5C138.649 202.029 130.971 194.351 121.5 194.351C112.029 194.351 104.351 202.029 104.351 211.5Z" fill="#76BC21" fill-opacity="0.12"/>
<path d="M136 211.5C136 219.508 129.508 226 121.5 226C113.492 226 107 219.508 107 211.5C107 203.492 113.492 197 121.5 197C129.508 197 136 203.492 136 211.5ZM109.9 211.5C109.9 217.907 115.093 223.1 121.5 223.1C127.907 223.1 133.1 217.907 133.1 211.5C133.1 205.093 127.907 199.9 121.5 199.9C115.093 199.9 109.9 205.093 109.9 211.5Z" fill="#9FD65C" fill-opacity="0.49"/>
<path d="M121.5 191.591C121.5 190.16 122.664 188.985 124.085 189.149C128.391 189.647 132.482 191.382 135.85 194.17C139.885 197.511 142.628 202.156 143.605 207.303C144.582 212.451 143.733 217.778 141.203 222.365C139.091 226.194 135.921 229.307 132.097 231.349C130.834 232.022 129.321 231.355 128.797 230.024V230.024C128.272 228.693 128.94 227.205 130.178 226.488C132.888 224.918 135.137 222.634 136.665 219.863C138.613 216.332 139.267 212.232 138.515 208.27C137.763 204.308 135.651 200.733 132.545 198.161C130.108 196.143 127.178 194.842 124.081 194.375C122.666 194.162 121.5 193.021 121.5 191.591V191.591Z" fill="#6AAD18"/>
<path d="M115.596 216C115.34 216 115.152 215.944 115.032 215.832C114.92 215.712 114.864 215.54 114.864 215.316C114.864 215.18 114.9 215.048 114.972 214.92C115.044 214.792 115.148 214.656 115.284 214.512L117.696 211.944C118.064 211.56 118.328 211.212 118.488 210.9C118.648 210.58 118.728 210.26 118.728 209.94C118.728 209.54 118.6 209.236 118.344 209.028C118.096 208.82 117.732 208.716 117.252 208.716C116.98 208.716 116.708 208.756 116.436 208.836C116.164 208.908 115.888 209.036 115.608 209.22C115.464 209.316 115.328 209.356 115.2 209.34C115.08 209.324 114.972 209.272 114.876 209.184C114.788 209.096 114.728 208.988 114.696 208.86C114.664 208.732 114.668 208.604 114.708 208.476C114.756 208.34 114.852 208.224 114.996 208.128C115.34 207.896 115.724 207.72 116.148 207.6C116.58 207.48 117.012 207.42 117.444 207.42C118.052 207.42 118.564 207.512 118.98 207.696C119.396 207.88 119.712 208.148 119.928 208.5C120.144 208.852 120.252 209.28 120.252 209.784C120.252 210.12 120.196 210.448 120.084 210.768C119.98 211.088 119.816 211.412 119.592 211.74C119.376 212.068 119.092 212.416 118.74 212.784L116.484 215.136V214.728H120.012C120.228 214.728 120.392 214.78 120.504 214.884C120.616 214.988 120.672 215.144 120.672 215.352C120.672 215.56 120.616 215.72 120.504 215.832C120.392 215.944 120.228 216 120.012 216H115.596ZM124.867 216.12C124.443 216.12 124.011 216.064 123.571 215.952C123.131 215.84 122.727 215.668 122.359 215.436C122.207 215.34 122.103 215.228 122.047 215.1C121.999 214.964 121.987 214.832 122.011 214.704C122.043 214.568 122.103 214.456 122.191 214.368C122.287 214.272 122.399 214.216 122.527 214.2C122.663 214.184 122.811 214.22 122.971 214.308C123.267 214.476 123.567 214.604 123.871 214.692C124.175 214.78 124.499 214.824 124.843 214.824C125.179 214.824 125.467 214.764 125.707 214.644C125.947 214.524 126.131 214.356 126.259 214.14C126.387 213.924 126.451 213.672 126.451 213.384C126.451 212.936 126.315 212.576 126.043 212.304C125.771 212.024 125.399 211.884 124.927 211.884C124.671 211.884 124.423 211.928 124.183 212.016C123.943 212.096 123.707 212.24 123.475 212.448C123.403 212.512 123.311 212.576 123.199 212.64C123.087 212.696 122.967 212.724 122.839 212.724C122.639 212.724 122.487 212.672 122.383 212.568C122.279 212.464 122.227 212.32 122.227 212.136V208.212C122.227 207.996 122.283 207.832 122.395 207.72C122.515 207.6 122.683 207.54 122.899 207.54H126.847C127.063 207.54 127.227 207.596 127.339 207.708C127.459 207.812 127.519 207.968 127.519 208.176C127.519 208.376 127.459 208.532 127.339 208.644C127.227 208.756 127.063 208.812 126.847 208.812H123.727V211.5H123.331C123.539 211.22 123.815 211.004 124.159 210.852C124.503 210.7 124.879 210.624 125.287 210.624C125.823 210.624 126.287 210.74 126.679 210.972C127.079 211.196 127.387 211.512 127.603 211.92C127.827 212.32 127.939 212.788 127.939 213.324C127.939 213.876 127.815 214.364 127.567 214.788C127.319 215.204 126.963 215.532 126.499 215.772C126.043 216.004 125.499 216.12 124.867 216.12Z" fill="#6AAD18"/>
<path d="M226 210C226 222.703 215.703 233 203 233C190.297 233 180 222.703 180 210C180 197.297 190.297 187 203 187C215.703 187 226 197.297 226 210ZM185.47 210C185.47 219.681 193.319 227.53 203 227.53C212.681 227.53 220.53 219.681 220.53 210C220.53 200.319 212.681 192.47 203 192.47C193.319 192.47 185.47 200.319 185.47 210Z" fill="#FE5000" fill-opacity="0.15"/>
<path d="M203 189.648C203 188.186 204.19 186.984 205.642 187.152C208.843 187.522 211.941 188.562 214.729 190.216C218.28 192.321 221.198 195.342 223.179 198.963C225.16 202.585 226.129 206.672 225.986 210.797C225.843 214.922 224.593 218.933 222.366 222.408C220.139 225.884 217.018 228.696 213.33 230.55C209.643 232.403 205.524 233.231 201.406 232.945C197.289 232.659 193.324 231.27 189.928 228.924C187.261 227.082 185.021 224.702 183.347 221.949C182.587 220.699 183.182 219.116 184.511 218.505V218.505C185.839 217.894 187.396 218.49 188.199 219.713C189.446 221.614 191.053 223.264 192.938 224.566C195.552 226.372 198.604 227.441 201.773 227.661C204.943 227.881 208.113 227.244 210.951 225.817C213.79 224.39 216.192 222.226 217.906 219.551C219.62 216.876 220.583 213.789 220.693 210.614C220.803 207.439 220.057 204.292 218.532 201.505C217.008 198.718 214.761 196.392 212.028 194.772C210.058 193.603 207.887 192.833 205.638 192.494C204.192 192.276 203 191.111 203 189.648V189.648Z" fill="#FE5000"/>
<path d="M220 210C220 219.389 212.389 227 203 227C193.611 227 186 219.389 186 210C186 200.611 193.611 193 203 193C212.389 193 220 200.611 220 210ZM190.566 210C190.566 216.867 196.133 222.434 203 222.434C209.867 222.434 215.434 216.867 215.434 210C215.434 203.133 209.867 197.566 203 197.566C196.133 197.566 190.566 203.133 190.566 210Z" fill="#FFAA00" fill-opacity="0.15"/>
<path d="M203 195.315C203 194.036 204.041 192.984 205.308 193.157C206.927 193.379 208.509 193.834 210.006 194.511C212.207 195.506 214.171 196.96 215.766 198.774C217.362 200.589 218.552 202.722 219.258 205.033C219.964 207.343 220.169 209.778 219.86 212.174C219.551 214.57 218.735 216.873 217.466 218.929C216.197 220.985 214.504 222.747 212.501 224.097C210.497 225.448 208.229 226.355 205.847 226.76C204.228 227.035 202.582 227.073 200.959 226.877C199.69 226.724 198.95 225.441 199.275 224.205V224.205C199.599 222.968 200.867 222.252 202.143 222.341C203.119 222.408 204.102 222.36 205.072 222.196C206.805 221.901 208.456 221.241 209.913 220.258C211.371 219.276 212.603 217.994 213.527 216.497C214.45 215.001 215.044 213.326 215.269 211.582C215.494 209.838 215.344 208.067 214.83 206.386C214.317 204.704 213.451 203.152 212.29 201.831C211.129 200.511 209.7 199.453 208.098 198.729C207.202 198.324 206.263 198.028 205.301 197.846C204.045 197.608 203 196.593 203 195.315V195.315Z" fill="#FFAA00"/>
<path d="M214.334 210C214.334 216.259 209.26 221.333 203 221.333C196.741 221.333 191.667 216.259 191.667 210C191.667 203.741 196.741 198.667 203 198.667C209.26 198.667 214.334 203.741 214.334 210ZM195.088 210C195.088 214.37 198.63 217.912 203 217.912C207.37 217.912 210.913 214.37 210.913 210C210.913 205.63 207.37 202.087 203 202.087C198.63 202.087 195.088 205.63 195.088 210Z" fill="#76BC21" fill-opacity="0.15"/>
<path d="M203 200.345C203 199.418 203.756 198.654 204.673 198.791C206.411 199.05 208.072 199.711 209.522 200.731C211.431 202.074 212.879 203.974 213.667 206.171C214.456 208.368 214.547 210.755 213.928 213.006C213.458 214.715 212.596 216.282 211.42 217.587C210.799 218.275 209.73 218.166 209.14 217.451V217.451C208.55 216.735 208.67 215.686 209.247 214.96C209.911 214.123 210.404 213.157 210.69 212.116C211.126 210.532 211.062 208.852 210.507 207.305C209.952 205.759 208.933 204.422 207.59 203.477C206.707 202.855 205.711 202.423 204.667 202.2C203.76 202.006 203 201.272 203 200.345V200.345Z" fill="#76BC21"/>
<path d="M225 40.5C225 52.9264 214.926 63 202.5 63C190.074 63 180 52.9264 180 40.5C180 28.0736 190.074 18 202.5 18C214.926 18 225 28.0736 225 40.5ZM185.351 40.5C185.351 49.9709 193.029 57.6486 202.5 57.6486C211.971 57.6486 219.649 49.9709 219.649 40.5C219.649 31.0291 211.971 23.3514 202.5 23.3514C193.029 23.3514 185.351 31.0291 185.351 40.5Z" fill="#EAF9FF"/>
<path d="M202.5 20.5907C202.5 19.1599 203.664 17.9846 205.085 18.149C207.637 18.4441 210.126 19.1749 212.442 20.3156C215.534 21.8389 218.236 24.0525 220.337 26.7856C222.439 29.5187 223.884 32.6981 224.561 36.0784C225.239 39.4588 225.13 42.9496 224.245 46.2814C223.359 49.6131 221.719 52.6968 219.452 55.2943C217.185 57.8918 214.352 59.9336 211.171 61.2622C207.989 62.5908 204.545 63.1705 201.104 62.9567C198.528 62.7966 196.005 62.1947 193.643 61.1835C192.328 60.6203 191.902 59.0222 192.612 57.7804V57.7804C193.323 56.5385 194.901 56.1282 196.235 56.6458C197.892 57.2886 199.642 57.6744 201.426 57.7853C204.074 57.9499 206.725 57.5036 209.174 56.481C211.623 55.4584 213.804 53.8868 215.548 51.8874C217.293 49.8881 218.555 47.5145 219.237 44.95C219.919 42.3855 220.002 39.6985 219.481 37.0966C218.959 34.4948 217.847 32.0475 216.23 29.9438C214.612 27.8401 212.533 26.1362 210.152 24.9637C208.549 24.174 206.838 23.6396 205.081 23.3748C203.666 23.1615 202.5 22.0215 202.5 20.5907V20.5907Z" fill="#0070F2"/>
<path d="M203.253 39.3468C202.872 39.2904 202.603 39.2213 202.332 39.2157C201.616 39.1987 200.898 39.2015 200.181 39.2157C199.939 39.2199 199.765 39.155 199.603 38.9674C199.118 38.4075 198.614 37.8645 198.116 37.3158C197.716 36.8744 197.311 36.8053 196.956 37.1184C196.606 37.4258 196.626 37.8673 197.009 38.2932C197.346 38.6698 197.678 39.0506 198.026 39.4173C198.167 39.5654 198.225 39.7008 198.185 39.9152C198.123 40.2594 198.112 40.6134 198.077 41.0069C198.229 41.0167 198.353 41.0308 198.476 41.0308C199.075 41.0337 199.675 41.0252 200.274 41.0337C200.892 41.0421 201.219 41.3327 201.271 41.9377C201.407 43.4948 201.534 45.0533 201.655 46.6104C201.696 47.1407 201.325 47.5638 200.817 47.5977C200.298 47.6315 199.901 47.2634 199.854 46.6936C199.757 45.499 199.662 44.3044 199.566 43.1084C199.561 43.0294 199.552 42.9504 199.542 42.8376C198.855 42.8376 198.188 42.8376 197.521 42.8376C197.369 42.8376 197.215 42.8446 197.063 42.8418C196.178 42.8249 195.668 42.3637 195.551 41.4864C195.372 40.1437 195.517 38.8377 195.981 37.5669C196.256 36.8151 196.827 36.3525 197.493 36.3271C197.864 36.313 198.14 36.4527 198.367 36.7517C198.793 37.313 199.252 37.8504 199.675 38.4131C199.819 38.6049 199.964 38.643 200.183 38.5965C200.814 38.4639 201.449 38.3426 202.082 38.2241C202.414 38.1621 203.101 38.4822 203.215 38.7883C203.28 38.9632 203.243 39.1762 203.252 39.3454L203.253 39.3468Z" fill="#0070F2"/>
<path d="M198.646 46.7093C198.09 46.5386 197.565 46.3778 196.911 46.1776C196.99 46.4526 197.018 46.6571 197.107 46.8306C197.219 47.0478 197.252 47.265 197.045 47.3905C196.918 47.4667 196.671 47.4653 196.544 47.3905C196.337 47.2664 196.362 47.052 196.481 46.8334C196.573 46.6642 196.598 46.4582 196.678 46.1846C196.035 46.3807 195.502 46.5429 194.938 46.7149C194.987 46.8066 195.066 46.8856 195.058 46.9533C195.038 47.1127 195.02 47.344 194.918 47.4032C194.794 47.4751 194.539 47.4582 194.427 47.3708C194.334 47.2974 194.309 47.0478 194.353 46.9082C194.464 46.5485 194.726 46.3553 195.116 46.2777C195.55 46.1903 195.972 46.0323 196.391 45.8814C196.482 45.8489 196.595 45.7206 196.599 45.6303C196.622 45.21 196.609 44.7869 196.609 44.3187C196.11 44.203 195.619 44.0944 195.13 43.9759C194.725 43.8772 194.472 43.6431 194.327 43.2284C193.914 42.0521 193.454 40.897 193.03 39.7278C192.986 39.6065 193.055 39.4443 193.068 39.3018C193.075 39.2172 193.085 39.1312 193.079 39.0466C193.052 38.6728 193 38.3005 193 37.9267C193 37.7744 193.113 37.6221 193.243 37.4697C194.137 38.8279 194.694 40.2849 194.963 41.8899C194.489 41.9322 194.327 41.605 194.049 41.4316C194.262 41.9985 194.465 42.5712 194.701 43.1297C194.732 43.203 194.928 43.2524 195.039 43.2411C196.248 43.1085 197.454 43.1043 198.66 43.2637C198.826 43.2862 198.987 43.3497 199.265 43.4259C199.062 43.6092 198.958 43.7573 198.815 43.8222C198.561 43.9378 198.289 44.0168 198.017 44.0873C197.675 44.1748 197.329 44.2397 196.972 44.3158C196.972 44.7841 196.959 45.2058 196.982 45.6275C196.986 45.7164 197.104 45.8433 197.196 45.8757C197.729 46.0563 198.269 46.2142 198.807 46.3807C199.038 46.4526 199.336 46.9279 199.288 47.1663C199.238 47.4145 199.07 47.533 198.826 47.4892C198.581 47.4441 198.47 47.2692 198.509 47.0224C198.525 46.9251 198.589 46.8362 198.646 46.7107V46.7093Z" fill="#0070F2"/>
<path d="M209.878 41.6303C209.781 41.6867 209.688 41.784 209.586 41.7925C208.59 41.8743 207.594 41.942 206.531 42.0182C206.6 43.6556 206.669 45.3072 206.741 46.9969C207.415 47.0448 208.102 47.0942 208.789 47.1436C209.07 47.1633 209.353 47.1732 209.631 47.2141C209.72 47.2268 209.795 47.3283 209.877 47.3904C209.857 47.4214 209.838 47.4539 209.819 47.4849H202.355C202.308 47.231 202.308 47.2254 202.552 47.207C203.49 47.1365 204.427 47.0688 205.384 46.9997C205.397 46.9503 205.42 46.8968 205.421 46.8432C205.451 45.767 205.473 44.6895 205.51 43.6133C205.524 43.1959 205.573 42.7812 205.602 42.3651C205.61 42.2509 205.602 42.1366 205.602 42.0182C204.552 41.9434 203.545 41.8687 202.538 41.8024C202.348 41.7897 202.242 41.7417 202.335 41.5146H209.798C209.824 41.5541 209.851 41.5922 209.878 41.6317V41.6303Z" fill="#0070F2"/>
<path d="M198.983 36.2214C198.086 36.2172 197.371 35.4978 197.377 34.6036C197.38 33.7109 198.105 32.9958 199 33C199.89 33.0042 200.617 33.7348 200.612 34.6206C200.608 35.5077 199.878 36.2256 198.983 36.2214Z" fill="#0070F2"/>
<path d="M201.049 40.5202C200.568 40.5202 200.084 40.5442 199.604 40.5089C199.403 40.4948 199.157 40.4045 199.022 40.2635C198.349 39.5583 197.703 38.8277 197.054 38.0999C196.803 37.8178 196.812 37.4765 197.054 37.2523C197.295 37.0294 197.641 37.0478 197.896 37.3256C198.462 37.9377 199.011 38.5668 199.585 39.1732C199.689 39.2833 199.876 39.3679 200.029 39.3707C200.851 39.389 201.673 39.3778 202.496 39.3806C202.917 39.382 203.159 39.5851 203.167 39.9349C203.177 40.303 202.934 40.5174 202.493 40.5216C202.012 40.5258 201.529 40.5216 201.049 40.5216V40.5202Z" fill="#0070F2"/>
<path d="M210.649 40.8896V41.3438H201.491V40.8896H210.649Z" fill="#0070F2"/>
<path d="M210.448 34.9253H210.692C210.795 35.0861 210.908 35.2088 210.958 35.3555C211 35.481 211.025 35.7109 210.96 35.756C210.707 35.9323 210.797 36.1721 210.795 36.3865C210.788 37.6192 210.78 38.8519 210.798 40.0846C210.804 40.4682 210.894 40.849 210.938 41.2326C210.951 41.3483 210.939 41.4653 210.939 41.6036H210.156C210.154 41.5754 210.152 41.5457 210.149 41.5175C210.344 41.5034 210.54 41.4893 210.766 41.4724V40.763C210.565 40.7503 210.364 40.7362 210.217 40.7263C210.269 40.55 210.355 40.3977 210.355 40.2439C210.365 38.8942 210.365 37.543 210.355 36.1932C210.355 36.0607 210.257 35.9323 210.233 35.7955C210.207 35.6517 210.185 35.4937 210.219 35.3555C210.252 35.2144 210.354 35.0917 210.446 34.9253H210.448Z" fill="#0070F2"/>
<path d="M206.76 33.144H207.146V37.9803C207.019 37.986 206.906 37.9916 206.76 37.9987V33.144Z" fill="#0070F2"/>
<path d="M207.54 36.4739H207.283V34.6221C207.726 34.7405 207.682 35.134 207.821 35.4246H208.744C208.779 35.6145 208.667 35.7095 208.407 35.7095C208.21 35.7095 208.012 35.7095 207.822 35.7095C207.727 35.9648 207.64 36.2031 207.54 36.4739Z" fill="#0070F2"/>
<path d="M205.014 40.4626C204.948 40.5289 204.883 40.6516 204.815 40.653C204.211 40.6685 203.606 40.6615 203.001 40.6615C202.991 40.622 202.982 40.5825 202.972 40.543C203.14 40.4852 203.307 40.385 203.478 40.3766C203.967 40.354 204.458 40.3681 204.949 40.3681C204.972 40.3992 204.993 40.4316 205.015 40.4626H205.014Z" fill="#0070F2"/>
<path d="M208.891 35.7114V35.4067H210.026C210.136 35.6324 210.088 35.717 209.869 35.7128C209.548 35.7072 209.226 35.7114 208.891 35.7114Z" fill="#0070F2"/>
<path d="M219.26 67.1C218.68 67.1 218.183 66.9633 217.77 66.69C217.363 66.41 217.053 66.01 216.84 65.49C216.627 64.97 216.52 64.34 216.52 63.6C216.52 63 216.587 62.47 216.72 62.01C216.86 61.5433 217.06 61.15 217.32 60.83C217.58 60.51 217.897 60.2667 218.27 60.1C218.65 59.9333 219.077 59.85 219.55 59.85C219.843 59.85 220.14 59.8967 220.44 59.99C220.747 60.0767 221.033 60.21 221.3 60.39C221.407 60.4567 221.477 60.5433 221.51 60.65C221.543 60.7567 221.547 60.8633 221.52 60.97C221.5 61.07 221.453 61.16 221.38 61.24C221.313 61.3133 221.227 61.36 221.12 61.38C221.013 61.3933 220.897 61.3633 220.77 61.29C220.543 61.1567 220.33 61.0633 220.13 61.01C219.93 60.9567 219.73 60.93 219.53 60.93C219.143 60.93 218.817 61.02 218.55 61.2C218.283 61.38 218.08 61.65 217.94 62.01C217.807 62.37 217.74 62.82 217.74 63.36V64.11H217.62C217.673 63.77 217.783 63.48 217.95 63.24C218.123 62.9933 218.343 62.8067 218.61 62.68C218.877 62.5467 219.173 62.48 219.5 62.48C219.907 62.48 220.267 62.5767 220.58 62.77C220.893 62.9633 221.14 63.23 221.32 63.57C221.5 63.91 221.59 64.3 221.59 64.74C221.59 65.1933 221.49 65.6 221.29 65.96C221.097 66.3133 220.823 66.5933 220.47 66.8C220.123 67 219.72 67.1 219.26 67.1ZM219.19 66.08C219.43 66.08 219.64 66.0267 219.82 65.92C220.007 65.8133 220.15 65.6633 220.25 65.47C220.35 65.27 220.4 65.0433 220.4 64.79C220.4 64.53 220.35 64.3033 220.25 64.11C220.15 63.9167 220.007 63.7667 219.82 63.66C219.64 63.5467 219.43 63.49 219.19 63.49C218.95 63.49 218.74 63.5467 218.56 63.66C218.38 63.7667 218.237 63.9167 218.13 64.11C218.03 64.3033 217.98 64.53 217.98 64.79C217.98 65.0433 218.03 65.27 218.13 65.47C218.237 65.6633 218.38 65.8133 218.56 65.92C218.74 66.0267 218.95 66.08 219.19 66.08ZM225.981 67.08C225.781 67.08 225.628 67.0267 225.521 66.92C225.414 66.8067 225.361 66.6467 225.361 66.44V60.5C225.361 60.2933 225.414 60.1367 225.521 60.03C225.628 59.9233 225.781 59.87 225.981 59.87C226.181 59.87 226.334 59.9233 226.441 60.03C226.554 60.1367 226.611 60.2933 226.611 60.5V63.09H226.471C226.618 62.7367 226.844 62.47 227.151 62.29C227.464 62.1033 227.818 62.01 228.211 62.01C228.604 62.01 228.928 62.0833 229.181 62.23C229.434 62.3767 229.624 62.6 229.751 62.9C229.878 63.1933 229.941 63.5667 229.941 64.02V66.44C229.941 66.6467 229.888 66.8067 229.781 66.92C229.674 67.0267 229.521 67.08 229.321 67.08C229.121 67.08 228.964 67.0267 228.851 66.92C228.744 66.8067 228.691 66.6467 228.691 66.44V64.08C228.691 63.7 228.618 63.4233 228.471 63.25C228.331 63.0767 228.111 62.99 227.811 62.99C227.444 62.99 227.151 63.1067 226.931 63.34C226.718 63.5667 226.611 63.87 226.611 64.25V66.44C226.611 66.8667 226.401 67.08 225.981 67.08ZM231.851 67.08C231.644 67.08 231.484 67.0267 231.371 66.92C231.264 66.8067 231.211 66.6467 231.211 66.44V62.66C231.211 62.4533 231.264 62.2967 231.371 62.19C231.477 62.0833 231.627 62.03 231.821 62.03C232.014 62.03 232.164 62.0833 232.271 62.19C232.377 62.2967 232.431 62.4533 232.431 62.66V63.29H232.331C232.424 62.89 232.607 62.5867 232.881 62.38C233.154 62.1733 233.517 62.05 233.971 62.01C234.111 61.9967 234.221 62.0333 234.301 62.12C234.387 62.2 234.437 62.3267 234.451 62.5C234.464 62.6667 234.424 62.8033 234.331 62.91C234.244 63.01 234.111 63.07 233.931 63.09L233.711 63.11C233.304 63.15 232.997 63.2767 232.791 63.49C232.584 63.6967 232.481 63.99 232.481 64.37V66.44C232.481 66.6467 232.427 66.8067 232.321 66.92C232.214 67.0267 232.057 67.08 231.851 67.08Z" fill="#0070F2"/>
<path d="M58 211.5C58 223.926 47.9264 234 35.5 234C23.0736 234 13 223.926 13 211.5C13 199.074 23.0736 189 35.5 189C47.9264 189 58 199.074 58 211.5ZM18.3514 211.5C18.3514 220.971 26.0291 228.649 35.5 228.649C44.9709 228.649 52.6486 220.971 52.6486 211.5C52.6486 202.029 44.9709 194.351 35.5 194.351C26.0291 194.351 18.3514 202.029 18.3514 211.5Z" fill="#F5FAE5"/>
<path d="M35.5 191.591C35.5 190.16 36.6637 188.985 38.085 189.149C41.352 189.527 44.5074 190.618 47.3233 192.357C50.8765 194.551 53.7488 197.692 55.6187 201.426C57.4886 205.16 58.2822 209.341 57.9109 213.501C57.5395 217.661 56.0177 221.635 53.5159 224.979C51.0141 228.323 47.631 230.904 43.7452 232.435C39.8595 233.965 35.6244 234.384 31.5142 233.644C27.404 232.904 23.5808 231.035 20.4726 228.246C18.0093 226.035 16.0721 223.316 14.7875 220.289C14.2286 218.972 15.0276 217.524 16.4003 217.12V217.12C17.7729 216.716 19.1958 217.513 19.7997 218.81C20.7829 220.922 22.1861 222.822 23.9331 224.39C26.3256 226.537 29.2684 227.975 32.4321 228.545C35.5958 229.114 38.8555 228.792 41.8465 227.614C44.8374 226.436 47.4415 224.449 49.3672 221.875C51.2928 219.301 52.4642 216.242 52.75 213.04C53.0359 209.838 52.425 206.62 50.9857 203.746C49.5464 200.871 47.3356 198.454 44.6006 196.765C42.6035 195.532 40.3846 194.722 38.0811 194.375C36.6663 194.162 35.5 193.021 35.5 191.591V191.591Z" fill="#178917"/>
<path d="M30.064 215.096C29.88 215.096 29.728 215.052 29.608 214.964C29.488 214.876 29.416 214.76 29.392 214.616C29.368 214.464 29.404 214.296 29.5 214.112L33.124 207.296V207.824H29.236C29.02 207.824 28.852 207.768 28.732 207.656C28.62 207.544 28.564 207.388 28.564 207.188C28.564 206.98 28.62 206.82 28.732 206.708C28.852 206.596 29.02 206.54 29.236 206.54H33.88C34.096 206.54 34.272 206.596 34.408 206.708C34.544 206.82 34.612 206.98 34.612 207.188C34.612 207.364 34.588 207.52 34.54 207.656C34.492 207.784 34.428 207.924 34.348 208.076L30.94 214.592C30.852 214.768 30.736 214.896 30.592 214.976C30.456 215.056 30.28 215.096 30.064 215.096ZM38.8673 215.12C38.4433 215.12 38.0113 215.064 37.5713 214.952C37.1313 214.84 36.7273 214.668 36.3593 214.436C36.2073 214.34 36.1033 214.228 36.0473 214.1C35.9993 213.964 35.9873 213.832 36.0113 213.704C36.0433 213.568 36.1033 213.456 36.1913 213.368C36.2873 213.272 36.3993 213.216 36.5273 213.2C36.6633 213.184 36.8113 213.22 36.9713 213.308C37.2673 213.476 37.5673 213.604 37.8713 213.692C38.1753 213.78 38.4993 213.824 38.8433 213.824C39.1793 213.824 39.4673 213.764 39.7073 213.644C39.9473 213.524 40.1313 213.356 40.2593 213.14C40.3873 212.924 40.4513 212.672 40.4513 212.384C40.4513 211.936 40.3153 211.576 40.0433 211.304C39.7713 211.024 39.3993 210.884 38.9273 210.884C38.6713 210.884 38.4233 210.928 38.1833 211.016C37.9433 211.096 37.7073 211.24 37.4753 211.448C37.4033 211.512 37.3113 211.576 37.1993 211.64C37.0873 211.696 36.9673 211.724 36.8393 211.724C36.6393 211.724 36.4873 211.672 36.3833 211.568C36.2793 211.464 36.2273 211.32 36.2273 211.136V207.212C36.2273 206.996 36.2833 206.832 36.3953 206.72C36.5153 206.6 36.6833 206.54 36.8993 206.54H40.8473C41.0633 206.54 41.2273 206.596 41.3393 206.708C41.4593 206.812 41.5193 206.968 41.5193 207.176C41.5193 207.376 41.4593 207.532 41.3393 207.644C41.2273 207.756 41.0633 207.812 40.8473 207.812H37.7273V210.5H37.3313C37.5393 210.22 37.8153 210.004 38.1593 209.852C38.5033 209.7 38.8793 209.624 39.2873 209.624C39.8233 209.624 40.2873 209.74 40.6793 209.972C41.0793 210.196 41.3873 210.512 41.6033 210.92C41.8273 211.32 41.9393 211.788 41.9393 212.324C41.9393 212.876 41.8153 213.364 41.5673 213.788C41.3193 214.204 40.9633 214.532 40.4993 214.772C40.0433 215.004 39.4993 215.12 38.8673 215.12Z" fill="#178917"/>
<path d="M60.5879 231.746C60.642 231.8 60.7062 231.843 60.777 231.873C60.8478 231.902 60.9237 231.917 61.0003 231.917C61.077 231.917 61.1529 231.902 61.2237 231.873C61.2944 231.843 61.3587 231.8 61.4127 231.746L63.8878 229.271C63.9435 229.217 63.988 229.152 64.0186 229.081C64.0491 229.01 64.0652 228.933 64.0659 228.856C64.0666 228.779 64.0518 228.702 64.0225 228.63C63.9931 228.558 63.9498 228.493 63.8951 228.438C63.8403 228.384 63.7752 228.34 63.7035 228.311C63.6318 228.282 63.555 228.267 63.4775 228.268C63.4001 228.268 63.3235 228.284 63.2523 228.315C63.1812 228.346 63.1168 228.39 63.063 228.446L61.5837 229.925L61.5837 226.667C61.5837 226.512 61.5222 226.363 61.4128 226.254C61.3034 226.145 61.155 226.083 61.0003 226.083C60.8456 226.083 60.6972 226.145 60.5878 226.254C60.4785 226.363 60.417 226.512 60.417 226.667L60.417 229.925L58.9377 228.446C58.8838 228.39 58.8195 228.346 58.7483 228.315C58.6771 228.284 58.6006 228.268 58.5231 228.268C58.4457 228.267 58.3689 228.282 58.2972 228.311C58.2255 228.34 58.1604 228.384 58.1056 228.438C58.0508 228.493 58.0075 228.558 57.9782 228.63C57.9488 228.702 57.9341 228.779 57.9348 228.856C57.9354 228.933 57.9515 229.01 57.9821 229.081C58.0127 229.152 58.0571 229.217 58.1128 229.271L60.5879 231.746ZM61.0003 234.833C57.7786 234.833 55.167 232.222 55.167 229C55.167 225.778 57.7786 223.167 61.0003 223.167C64.2221 223.167 66.8337 225.778 66.8337 229C66.8337 232.222 64.2221 234.833 61.0003 234.833Z" fill="#178917"/>
<path d="M61.0003 187.167C57.7798 187.167 55.167 189.779 55.167 193C55.167 196.22 57.7798 198.833 61.0003 198.833C64.2208 198.833 66.8337 196.22 66.8337 193C66.8337 189.779 64.2208 187.167 61.0003 187.167ZM60.818 196.403C60.6979 196.403 60.5804 196.367 60.4804 196.3C60.3805 196.233 60.3026 196.139 60.2566 196.028C60.2107 195.916 60.1986 195.794 60.2221 195.676C60.2455 195.559 60.3034 195.45 60.3884 195.365C60.4733 195.28 60.5816 195.222 60.6995 195.199C60.8174 195.176 60.9395 195.188 61.0506 195.234C61.1616 195.28 61.2565 195.357 61.3233 195.457C61.39 195.557 61.4257 195.675 61.4257 195.795C61.4257 195.956 61.3617 196.111 61.2477 196.225C61.1337 196.339 60.9792 196.403 60.818 196.403ZM61.834 193.304C61.3415 193.634 61.2738 193.937 61.2738 194.215C61.2738 194.328 61.229 194.436 61.1492 194.516C61.0694 194.596 60.9612 194.64 60.8484 194.64C60.7356 194.64 60.6274 194.596 60.5477 194.516C60.4679 194.436 60.4231 194.328 60.4231 194.215C60.4231 193.549 60.7293 193.02 61.3594 192.597C61.9452 192.204 62.2764 191.955 62.2764 191.407C62.2764 191.034 62.0637 190.752 61.6235 190.542C61.5199 190.493 61.2893 190.445 61.0055 190.448C60.6494 190.453 60.3729 190.538 60.16 190.709C59.7583 191.033 59.7243 191.384 59.7243 191.39C59.7216 191.445 59.7079 191.5 59.6841 191.551C59.6602 191.601 59.6266 191.647 59.5852 191.684C59.5438 191.722 59.4954 191.751 59.4428 191.77C59.3901 191.789 59.3343 191.797 59.2784 191.794C59.2226 191.792 59.1678 191.778 59.1172 191.754C59.0666 191.73 59.0213 191.697 58.9837 191.655C58.9461 191.614 58.917 191.566 58.8981 191.513C58.8792 191.46 58.8709 191.404 58.8736 191.349C58.8769 191.275 58.9283 190.61 59.6262 190.048C59.988 189.757 60.4483 189.606 60.9933 189.599C61.3792 189.595 61.7416 189.66 61.9874 189.776C62.723 190.124 63.1271 190.704 63.1271 191.407C63.1271 192.435 62.4401 192.896 61.834 193.304Z" fill="#178917"/>
<path d="M62 41.5C62 53.9264 51.9264 64 39.5 64C27.0736 64 17 53.9264 17 41.5C17 29.0736 27.0736 19 39.5 19C51.9264 19 62 29.0736 62 41.5ZM22.3514 41.5C22.3514 50.9709 30.0291 58.6486 39.5 58.6486C48.9709 58.6486 56.6486 50.9709 56.6486 41.5C56.6486 32.0291 48.9709 24.3514 39.5 24.3514C30.0291 24.3514 22.3514 32.0291 22.3514 41.5Z" fill="#FFE3D6"/>
<path d="M39.5 21.5907C39.5 20.1599 40.6637 18.9846 42.085 19.149C45.352 19.5268 48.5074 20.6177 51.3233 22.3569C54.8765 24.5514 57.7488 27.6916 59.6187 31.4258C61.4886 35.1601 62.2822 39.3411 61.9109 43.5008C61.5395 47.6605 60.0177 51.6348 57.5159 54.9788C55.0141 58.3227 51.631 60.9044 47.7452 62.4348C43.8595 63.9652 39.6244 64.384 35.5142 63.6442C31.404 62.9043 27.5808 61.0352 24.4726 58.2459C22.0093 56.0354 20.0721 53.3162 18.7875 50.2888C18.2286 48.9716 19.0276 47.5235 20.4003 47.1197V47.1197C21.7729 46.7158 23.1958 47.5128 23.7997 48.8099C24.7829 50.9218 26.1861 52.8219 27.9331 54.3896C30.3256 56.5366 33.2684 57.9753 36.4321 58.5447C39.5958 59.1142 42.8555 58.7919 45.8465 57.6139C48.8374 56.4359 51.4415 54.4487 53.3672 51.8748C55.2928 49.3009 56.4642 46.2419 56.75 43.0401C57.0359 39.8383 56.425 36.6201 54.9857 33.7457C53.5464 30.8714 51.3356 28.4544 48.6006 26.7652C46.6035 25.5318 44.3846 24.722 42.0811 24.3748C40.6663 24.1615 39.5 23.0215 39.5 21.5907V21.5907Z" fill="#FE5000"/>
<path fill-rule="evenodd" clip-rule="evenodd" d="M39.9365 40.4339C41.6547 40.4339 43.0476 38.9936 43.0476 37.2169C43.0476 35.4403 41.6547 34 39.9365 34C38.2183 34 36.8254 35.4403 36.8254 37.2169C36.8254 38.9936 38.2183 40.4339 39.9365 40.4339ZM39.9365 39.164C40.9137 39.164 41.7778 38.3326 41.7778 37.2169C41.7778 36.1012 40.9137 35.2698 39.9365 35.2698C38.9593 35.2698 38.0952 36.1012 38.0952 37.2169C38.0952 38.3326 38.9593 39.164 39.9365 39.164Z" fill="#FE5000"/>
<path d="M40.0431 42.46C39.1562 42.3418 38.4687 42.3596 37.4838 42.4622C36.1505 42.6011 35.0602 42.979 34.3226 43.4698C33.5789 43.9648 33.2698 44.5144 33.2698 45.0078L33.2699 45.5551C33.2699 45.9059 33.5544 46.1905 33.9057 46.1905H39.3651C39.7157 46.1905 40 46.4747 40 46.8254C40 47.1761 39.7157 47.4603 39.3651 47.4603H33.9057C32.8536 47.4603 32.0001 46.6077 32.0001 45.5552L32 45.0079C31.9999 43.9335 32.6749 43.0411 33.6191 42.4127C34.5694 41.7803 35.8706 41.3535 37.3522 41.1992C38.399 41.0902 39.193 41.0656 40.2109 41.2013C40.5585 41.2477 40.8027 41.567 40.7563 41.9146C40.71 42.2622 40.3907 42.5064 40.0431 42.46Z" fill="#FE5000"/>
<path d="M44.1058 43.1005C43.8954 43.1005 43.7249 43.2711 43.7249 43.4815V45.6402C43.7249 45.7964 43.8188 45.9306 43.9533 45.9894L44.874 46.5209C45.0562 46.6261 45.2891 46.5637 45.3943 46.3815C45.4995 46.1993 45.4371 45.9663 45.2549 45.8611L44.4868 45.4176V43.4815C44.4868 43.2711 44.3162 43.1005 44.1058 43.1005Z" fill="#FE5000"/>
<path fill-rule="evenodd" clip-rule="evenodd" d="M48 45.3228C48 47.4384 46.2849 49.1534 44.1693 49.1534C42.0537 49.1534 40.3386 47.4384 40.3386 45.3228C40.3386 43.2071 42.0537 41.4921 44.1693 41.4921C46.2849 41.4921 48 43.2071 48 45.3228ZM46.9418 45.3228C46.9418 46.854 45.7005 48.0952 44.1693 48.0952C42.6381 48.0952 41.3968 46.854 41.3968 45.3228C41.3968 43.7915 42.6381 42.5503 44.1693 42.5503C45.7005 42.5503 46.9418 43.7915 46.9418 45.3228Z" fill="#FE5000"/>
</svg>
