<svg width="255" height="150" viewBox="0 0 255 150" fill="none" xmlns="http://www.w3.org/2000/svg">
<g filter="url(#filter0_i_1083_8999)">
<rect y="105" width="88" height="45" rx="14" fill="#76BC21" fill-opacity="0.05"/>
<rect y="105" width="88" height="45" rx="14" fill="url(#paint0_linear_1083_8999)" fill-opacity="0.2"/>
</g>
<rect x="0.5" y="105.5" width="87" height="44" rx="13.5" stroke="#76BC21"/>
<rect x="0.5" y="105.5" width="87" height="44" rx="13.5" stroke="url(#paint1_linear_1083_8999)" stroke-opacity="0.2"/>
<rect x="88" width="79" height="79" rx="14" fill="white"/>
<rect x="88.5" y="0.5" width="78" height="78" rx="13.5" stroke="#64728C" stroke-opacity="0.2"/>
<rect x="97" y="105" width="122" height="45" rx="14" fill="white"/>
<rect x="97.5" y="105.5" width="121" height="44" rx="13.5" stroke="#64728C" stroke-opacity="0.2"/>
<rect x="176" y="1" width="79" height="79" rx="14" fill="white"/>
<rect x="176.5" y="1.5" width="78" height="78" rx="13.5" stroke="#64728C" stroke-opacity="0.2"/>
<path d="M128 19.8333C124.011 19.8333 120.112 21.0161 116.796 23.232C113.48 25.448 110.895 28.5976 109.368 32.2825C107.842 35.9675 107.443 40.0224 108.221 43.9343C108.999 47.8463 110.92 51.4396 113.74 54.26C116.56 57.0803 120.154 59.001 124.066 59.7792C127.978 60.5573 132.033 60.1579 135.718 58.6316C139.402 57.1052 142.552 54.5204 144.768 51.204C146.984 47.8876 148.167 43.9886 148.167 40C148.167 34.6514 146.042 29.522 142.26 25.74C138.478 21.958 133.349 19.8333 128 19.8333ZM138.371 50.3711C138.027 50.7148 137.561 50.9079 137.075 50.9079C136.589 50.9079 136.123 50.7148 135.779 50.3711L127.241 41.8333H115.167C114.68 41.8333 114.214 41.6402 113.87 41.2963C113.527 40.9525 113.333 40.4862 113.333 40C113.333 39.5138 113.527 39.0474 113.87 38.7036C114.214 38.3598 114.68 38.1666 115.167 38.1666H126.167V27.1666C126.167 26.6804 126.36 26.2141 126.704 25.8703C127.048 25.5265 127.514 25.3333 128 25.3333C128.486 25.3333 128.953 25.5265 129.296 25.8703C129.64 26.2141 129.833 26.6804 129.833 27.1666V39.241L138.371 47.7788C138.715 48.1226 138.908 48.5888 138.908 49.075C138.908 49.5611 138.715 50.0273 138.371 50.3711Z" fill="#64728C"/>
<path d="M235.62 57.1131H232.205V38.2887C232.205 37.381 231.845 36.5104 231.204 35.8685C230.564 35.2267 229.695 34.8661 228.789 34.8661H225.374C224.468 34.8661 223.6 35.2267 222.959 35.8685C222.319 36.5104 221.959 37.381 221.959 38.2887V57.1131H215.129V24.5982C215.129 23.6905 214.769 22.8199 214.129 22.1781C213.488 21.5362 212.619 21.1756 211.714 21.1756H208.298C207.393 21.1756 206.524 21.5362 205.884 22.1781C205.243 22.8199 204.883 23.6905 204.883 24.5982V57.1131H203.176C202.27 57.1131 201.401 56.7525 200.761 56.1106C200.12 55.4688 199.761 54.5982 199.761 53.6905V21.1756C199.761 20.7217 199.581 20.2865 199.26 19.9655C198.94 19.6446 198.506 19.4643 198.053 19.4643C197.6 19.4643 197.166 19.6446 196.846 19.9655C196.525 20.2865 196.345 20.7217 196.345 21.1756V53.6905C196.345 55.506 197.065 57.2471 198.346 58.5308C199.627 59.8145 201.364 60.5357 203.176 60.5357H235.62C236.073 60.5357 236.507 60.3554 236.827 60.0345C237.147 59.7136 237.327 59.2783 237.327 58.8244C237.327 58.3705 237.147 57.9353 236.827 57.6143C236.507 57.2934 236.073 57.1131 235.62 57.1131Z" fill="#64728C"/>
<path d="M26.896 133.112C26.6293 133.112 26.4213 133.037 26.272 132.888C26.1333 132.739 26.064 132.531 26.064 132.264V123.112H22.672C22.448 123.112 22.272 123.053 22.144 122.936C22.016 122.808 21.952 122.632 21.952 122.408C21.952 122.184 22.016 122.013 22.144 121.896C22.272 121.779 22.448 121.72 22.672 121.72H31.104C31.3387 121.72 31.52 121.779 31.648 121.896C31.776 122.013 31.84 122.184 31.84 122.408C31.84 122.632 31.776 122.808 31.648 122.936C31.52 123.053 31.3387 123.112 31.104 123.112H27.712V132.264C27.712 132.531 27.6427 132.739 27.504 132.888C27.376 133.037 27.1733 133.112 26.896 133.112ZM35.0749 133.144C34.2855 133.144 33.6029 132.979 33.0269 132.648C32.4615 132.317 32.0189 131.848 31.6989 131.24C31.3789 130.632 31.2189 129.917 31.2189 129.096C31.2189 128.467 31.3095 127.907 31.4909 127.416C31.6722 126.925 31.9282 126.504 32.2589 126.152C32.6002 125.789 33.0055 125.517 33.4749 125.336C33.9549 125.144 34.4882 125.048 35.0749 125.048C35.8535 125.048 36.5255 125.213 37.0909 125.544C37.6669 125.875 38.1149 126.344 38.4349 126.952C38.7549 127.549 38.9149 128.264 38.9149 129.096C38.9149 129.715 38.8242 130.275 38.6429 130.776C38.4615 131.277 38.2002 131.704 37.8589 132.056C37.5282 132.408 37.1229 132.68 36.6429 132.872C36.1735 133.053 35.6509 133.144 35.0749 133.144ZM35.0749 131.896C35.5122 131.896 35.8962 131.789 36.2269 131.576C36.5575 131.363 36.8135 131.048 36.9949 130.632C37.1869 130.216 37.2829 129.704 37.2829 129.096C37.2829 128.179 37.0802 127.485 36.6749 127.016C36.2695 126.547 35.7362 126.312 35.0749 126.312C34.6269 126.312 34.2375 126.419 33.9069 126.632C33.5762 126.835 33.3149 127.144 33.1229 127.56C32.9415 127.976 32.8509 128.488 32.8509 129.096C32.8509 130.003 33.0535 130.696 33.4589 131.176C33.8642 131.656 34.4029 131.896 35.0749 131.896ZM43.7057 133.144C43.0231 133.144 42.4204 132.984 41.8978 132.664C41.3858 132.333 40.9858 131.864 40.6978 131.256C40.4098 130.637 40.2658 129.917 40.2658 129.096C40.2658 128.253 40.4098 127.533 40.6978 126.936C40.9858 126.339 41.3858 125.875 41.8978 125.544C42.4204 125.213 43.0231 125.048 43.7057 125.048C44.3884 125.048 44.9751 125.219 45.4658 125.56C45.9671 125.891 46.3031 126.339 46.4738 126.904H46.2978V122.424C46.2978 122.157 46.3671 121.955 46.5058 121.816C46.6444 121.677 46.8418 121.608 47.0978 121.608C47.3538 121.608 47.5511 121.677 47.6898 121.816C47.8391 121.955 47.9138 122.157 47.9138 122.424V132.296C47.9138 132.552 47.8444 132.755 47.7058 132.904C47.5671 133.043 47.3698 133.112 47.1138 133.112C46.8578 133.112 46.6604 133.043 46.5218 132.904C46.3831 132.755 46.3138 132.552 46.3138 132.296V130.888L46.4898 131.24C46.3191 131.816 45.9831 132.28 45.4818 132.632C44.9911 132.973 44.3991 133.144 43.7057 133.144ZM44.1218 131.896C44.5591 131.896 44.9431 131.789 45.2738 131.576C45.6044 131.363 45.8604 131.048 46.0418 130.632C46.2338 130.216 46.3298 129.704 46.3298 129.096C46.3298 128.179 46.1271 127.485 45.7218 127.016C45.3164 126.547 44.7831 126.312 44.1218 126.312C43.6738 126.312 43.2844 126.419 42.9538 126.632C42.6231 126.835 42.3618 127.144 42.1698 127.56C41.9884 127.976 41.8978 128.488 41.8978 129.096C41.8978 130.003 42.1004 130.696 42.5058 131.176C42.9111 131.656 43.4498 131.896 44.1218 131.896ZM52.6789 133.144C52.1349 133.144 51.6442 133.037 51.2069 132.824C50.7802 132.611 50.4442 132.323 50.1989 131.96C49.9535 131.597 49.8309 131.187 49.8309 130.728C49.8309 130.152 49.9749 129.699 50.2629 129.368C50.5615 129.027 51.0469 128.787 51.7189 128.648C52.4015 128.499 53.3189 128.424 54.4709 128.424H55.2229V129.416H54.4869C53.7189 129.416 53.1109 129.453 52.6629 129.528C52.2149 129.603 51.8949 129.731 51.7029 129.912C51.5215 130.083 51.4309 130.323 51.4309 130.632C51.4309 131.037 51.5695 131.368 51.8469 131.624C52.1242 131.869 52.5082 131.992 52.9989 131.992C53.3935 131.992 53.7402 131.901 54.0389 131.72C54.3375 131.528 54.5722 131.272 54.7429 130.952C54.9242 130.632 55.0149 130.264 55.0149 129.848V128.008C55.0149 127.4 54.8869 126.963 54.6309 126.696C54.3749 126.429 53.9535 126.296 53.3669 126.296C53.0255 126.296 52.6682 126.339 52.2949 126.424C51.9322 126.509 51.5535 126.653 51.1589 126.856C50.9775 126.941 50.8229 126.968 50.6949 126.936C50.5669 126.904 50.4655 126.835 50.3909 126.728C50.3162 126.611 50.2735 126.488 50.2629 126.36C50.2629 126.221 50.2949 126.088 50.3589 125.96C50.4335 125.832 50.5562 125.736 50.7269 125.672C51.1962 125.448 51.6602 125.288 52.1189 125.192C52.5775 125.096 53.0095 125.048 53.4149 125.048C54.1295 125.048 54.7162 125.16 55.1749 125.384C55.6442 125.608 55.9909 125.949 56.2149 126.408C56.4389 126.867 56.5509 127.459 56.5509 128.184V132.296C56.5509 132.552 56.4869 132.755 56.3589 132.904C56.2309 133.043 56.0442 133.112 55.7989 133.112C55.5642 133.112 55.3775 133.043 55.2389 132.904C55.1002 132.755 55.0309 132.552 55.0309 132.296V131.256H55.1749C55.0895 131.651 54.9295 131.992 54.6949 132.28C54.4709 132.557 54.1882 132.771 53.8469 132.92C53.5055 133.069 53.1162 133.144 52.6789 133.144ZM60.5385 135.992C60.3465 135.992 60.1865 135.939 60.0585 135.832C59.9412 135.736 59.8718 135.603 59.8505 135.432C59.8398 135.272 59.8718 135.096 59.9465 134.904L61.0345 132.456V133.144L58.0425 126.184C57.9678 125.992 57.9412 125.811 57.9625 125.64C57.9838 125.469 58.0638 125.336 58.2025 125.24C58.3412 125.133 58.5278 125.08 58.7625 125.08C58.9652 125.08 59.1252 125.128 59.2425 125.224C59.3598 125.32 59.4665 125.485 59.5625 125.72L61.9785 131.688H61.5305L63.9785 125.72C64.0745 125.475 64.1865 125.309 64.3145 125.224C64.4425 125.128 64.6185 125.08 64.8425 125.08C65.0345 125.08 65.1838 125.133 65.2905 125.24C65.4078 125.336 65.4772 125.469 65.4985 125.64C65.5305 125.8 65.5038 125.976 65.4185 126.168L61.4185 135.368C61.3118 135.613 61.1892 135.779 61.0505 135.864C60.9225 135.949 60.7518 135.992 60.5385 135.992Z" fill="#76BC21"/>
<path d="M120.896 133.112C120.629 133.112 120.421 133.037 120.272 132.888C120.133 132.739 120.064 132.531 120.064 132.264V123.112H116.672C116.448 123.112 116.272 123.053 116.144 122.936C116.016 122.808 115.952 122.632 115.952 122.408C115.952 122.184 116.016 122.013 116.144 121.896C116.272 121.779 116.448 121.72 116.672 121.72H125.104C125.339 121.72 125.52 121.779 125.648 121.896C125.776 122.013 125.84 122.184 125.84 122.408C125.84 122.632 125.776 122.808 125.648 122.936C125.52 123.053 125.339 123.112 125.104 123.112H121.712V132.264C121.712 132.531 121.643 132.739 121.504 132.888C121.376 133.037 121.173 133.112 120.896 133.112ZM128.342 133.112C128.086 133.112 127.889 133.043 127.75 132.904C127.612 132.755 127.542 132.552 127.542 132.296V122.424C127.542 122.157 127.612 121.955 127.75 121.816C127.889 121.677 128.086 121.608 128.342 121.608C128.598 121.608 128.796 121.677 128.934 121.816C129.084 121.955 129.158 122.157 129.158 122.424V126.856H128.934C129.169 126.259 129.537 125.811 130.038 125.512C130.54 125.203 131.116 125.048 131.766 125.048C132.385 125.048 132.897 125.165 133.302 125.4C133.718 125.624 134.028 125.971 134.23 126.44C134.433 126.899 134.534 127.48 134.534 128.184V132.296C134.534 132.552 134.465 132.755 134.326 132.904C134.188 133.043 133.99 133.112 133.734 133.112C133.468 133.112 133.265 133.043 133.126 132.904C132.988 132.755 132.918 132.552 132.918 132.296V128.28C132.918 127.608 132.785 127.117 132.518 126.808C132.262 126.499 131.857 126.344 131.302 126.344C130.652 126.344 130.129 126.547 129.734 126.952C129.35 127.357 129.158 127.901 129.158 128.584V132.296C129.158 132.84 128.886 133.112 128.342 133.112ZM137.561 133.096C137.305 133.096 137.108 133.021 136.969 132.872C136.83 132.712 136.761 132.493 136.761 132.216V125.976C136.761 125.699 136.83 125.485 136.969 125.336C137.108 125.187 137.305 125.112 137.561 125.112C137.817 125.112 138.014 125.187 138.153 125.336C138.302 125.485 138.377 125.699 138.377 125.976V132.216C138.377 132.493 138.308 132.712 138.169 132.872C138.03 133.021 137.828 133.096 137.561 133.096ZM137.561 123.448C137.241 123.448 136.99 123.368 136.809 123.208C136.638 123.048 136.553 122.824 136.553 122.536C136.553 122.237 136.638 122.013 136.809 121.864C136.99 121.704 137.241 121.624 137.561 121.624C137.881 121.624 138.126 121.704 138.297 121.864C138.478 122.013 138.569 122.237 138.569 122.536C138.569 122.824 138.478 123.048 138.297 123.208C138.126 123.368 137.881 123.448 137.561 123.448ZM143.388 133.144C142.918 133.144 142.433 133.091 141.932 132.984C141.441 132.877 140.988 132.696 140.572 132.44C140.433 132.344 140.337 132.237 140.284 132.12C140.23 132.003 140.209 131.885 140.22 131.768C140.241 131.64 140.289 131.533 140.364 131.448C140.449 131.352 140.55 131.293 140.668 131.272C140.796 131.251 140.929 131.277 141.068 131.352C141.484 131.587 141.884 131.752 142.268 131.848C142.652 131.933 143.03 131.976 143.404 131.976C143.969 131.976 144.396 131.875 144.684 131.672C144.972 131.469 145.116 131.197 145.116 130.856C145.116 130.579 145.02 130.365 144.828 130.216C144.636 130.056 144.348 129.933 143.964 129.848L142.444 129.544C141.782 129.405 141.281 129.16 140.94 128.808C140.598 128.456 140.428 128.008 140.428 127.464C140.428 126.973 140.561 126.547 140.828 126.184C141.094 125.821 141.468 125.544 141.948 125.352C142.428 125.149 142.982 125.048 143.612 125.048C144.081 125.048 144.524 125.107 144.94 125.224C145.356 125.341 145.74 125.517 146.092 125.752C146.23 125.827 146.321 125.928 146.364 126.056C146.406 126.173 146.412 126.291 146.38 126.408C146.358 126.525 146.305 126.632 146.22 126.728C146.134 126.813 146.028 126.867 145.9 126.888C145.782 126.899 145.649 126.867 145.5 126.792C145.18 126.589 144.86 126.445 144.54 126.36C144.23 126.275 143.921 126.232 143.612 126.232C143.046 126.232 142.62 126.339 142.332 126.552C142.054 126.755 141.916 127.032 141.916 127.384C141.916 127.651 142.001 127.869 142.172 128.04C142.342 128.211 142.609 128.333 142.972 128.408L144.492 128.712C145.185 128.851 145.708 129.085 146.06 129.416C146.422 129.747 146.604 130.195 146.604 130.76C146.604 131.496 146.31 132.077 145.724 132.504C145.137 132.931 144.358 133.144 143.388 133.144ZM153.596 133.112C153.351 133.112 153.159 133.043 153.02 132.904C152.892 132.765 152.828 132.573 152.828 132.328V122.392C152.828 122.136 152.898 121.944 153.036 121.816C153.175 121.677 153.362 121.608 153.596 121.608C153.82 121.608 153.991 121.651 154.108 121.736C154.236 121.811 154.354 121.949 154.46 122.152L158.652 129.976H158.156L162.332 122.152C162.439 121.949 162.551 121.811 162.668 121.736C162.786 121.651 162.956 121.608 163.18 121.608C163.415 121.608 163.596 121.677 163.724 121.816C163.852 121.944 163.916 122.136 163.916 122.392V132.328C163.916 132.573 163.852 132.765 163.724 132.904C163.607 133.043 163.426 133.112 163.18 133.112C162.935 133.112 162.748 133.043 162.62 132.904C162.492 132.765 162.428 132.573 162.428 132.328V124.072H162.78L159.068 130.936C158.983 131.096 158.892 131.213 158.796 131.288C158.7 131.363 158.567 131.4 158.396 131.4C158.226 131.4 158.087 131.363 157.98 131.288C157.874 131.203 157.778 131.085 157.692 130.936L153.948 124.056H154.332V132.328C154.332 132.573 154.268 132.765 154.14 132.904C154.023 133.043 153.842 133.112 153.596 133.112ZM169.794 133.144C169.004 133.144 168.322 132.979 167.746 132.648C167.18 132.317 166.738 131.848 166.418 131.24C166.098 130.632 165.938 129.917 165.938 129.096C165.938 128.467 166.028 127.907 166.21 127.416C166.391 126.925 166.647 126.504 166.978 126.152C167.319 125.789 167.724 125.517 168.194 125.336C168.674 125.144 169.207 125.048 169.794 125.048C170.572 125.048 171.244 125.213 171.81 125.544C172.386 125.875 172.834 126.344 173.154 126.952C173.474 127.549 173.634 128.264 173.634 129.096C173.634 129.715 173.543 130.275 173.362 130.776C173.18 131.277 172.919 131.704 172.578 132.056C172.247 132.408 171.842 132.68 171.362 132.872C170.892 133.053 170.37 133.144 169.794 133.144ZM169.794 131.896C170.231 131.896 170.615 131.789 170.946 131.576C171.276 131.363 171.532 131.048 171.714 130.632C171.906 130.216 172.002 129.704 172.002 129.096C172.002 128.179 171.799 127.485 171.394 127.016C170.988 126.547 170.455 126.312 169.794 126.312C169.346 126.312 168.956 126.419 168.626 126.632C168.295 126.835 168.034 127.144 167.842 127.56C167.66 127.976 167.57 128.488 167.57 129.096C167.57 130.003 167.772 130.696 168.178 131.176C168.583 131.656 169.122 131.896 169.794 131.896ZM176.249 133.112C175.993 133.112 175.795 133.043 175.657 132.904C175.518 132.755 175.449 132.552 175.449 132.296V125.896C175.449 125.629 175.518 125.427 175.657 125.288C175.795 125.149 175.987 125.08 176.233 125.08C176.489 125.08 176.681 125.149 176.809 125.288C176.947 125.427 177.017 125.629 177.017 125.896V127.144L176.841 126.856C177.075 126.259 177.443 125.811 177.945 125.512C178.446 125.203 179.022 125.048 179.673 125.048C180.291 125.048 180.803 125.165 181.209 125.4C181.625 125.624 181.934 125.971 182.137 126.44C182.339 126.899 182.441 127.48 182.441 128.184V132.296C182.441 132.552 182.371 132.755 182.233 132.904C182.094 133.043 181.897 133.112 181.641 133.112C181.374 133.112 181.171 133.043 181.033 132.904C180.894 132.755 180.825 132.552 180.825 132.296V128.28C180.825 127.608 180.691 127.117 180.425 126.808C180.169 126.499 179.763 126.344 179.209 126.344C178.558 126.344 178.035 126.547 177.641 126.952C177.257 127.357 177.065 127.901 177.065 128.584V132.296C177.065 132.84 176.793 133.112 176.249 133.112ZM187.995 133.144C187.355 133.144 186.817 133.032 186.379 132.808C185.942 132.584 185.617 132.253 185.403 131.816C185.19 131.379 185.083 130.845 185.083 130.216V126.44H184.123C183.91 126.44 183.745 126.387 183.627 126.28C183.51 126.163 183.451 126.008 183.451 125.816C183.451 125.613 183.51 125.459 183.627 125.352C183.745 125.245 183.91 125.192 184.123 125.192H185.083V123.544C185.083 123.277 185.153 123.075 185.291 122.936C185.441 122.797 185.643 122.728 185.899 122.728C186.155 122.728 186.353 122.797 186.491 122.936C186.63 123.075 186.699 123.277 186.699 123.544V125.192H188.571C188.785 125.192 188.95 125.245 189.067 125.352C189.185 125.459 189.243 125.613 189.243 125.816C189.243 126.008 189.185 126.163 189.067 126.28C188.95 126.387 188.785 126.44 188.571 126.44H186.699V130.088C186.699 130.653 186.817 131.08 187.051 131.368C187.297 131.656 187.691 131.8 188.235 131.8C188.427 131.8 188.593 131.784 188.731 131.752C188.881 131.709 189.003 131.683 189.099 131.672C189.217 131.672 189.313 131.715 189.387 131.8C189.462 131.875 189.499 132.024 189.499 132.248C189.499 132.408 189.467 132.557 189.403 132.696C189.35 132.835 189.249 132.925 189.099 132.968C188.971 133.011 188.795 133.048 188.571 133.08C188.358 133.123 188.166 133.144 187.995 133.144ZM191.452 133.112C191.196 133.112 190.998 133.043 190.86 132.904C190.721 132.755 190.652 132.552 190.652 132.296V122.424C190.652 122.157 190.721 121.955 190.86 121.816C190.998 121.677 191.196 121.608 191.452 121.608C191.708 121.608 191.905 121.677 192.044 121.816C192.193 121.955 192.268 122.157 192.268 122.424V126.856H192.044C192.278 126.259 192.646 125.811 193.148 125.512C193.649 125.203 194.225 125.048 194.876 125.048C195.494 125.048 196.006 125.165 196.412 125.4C196.828 125.624 197.137 125.971 197.34 126.44C197.542 126.899 197.644 127.48 197.644 128.184V132.296C197.644 132.552 197.574 132.755 197.436 132.904C197.297 133.043 197.1 133.112 196.844 133.112C196.577 133.112 196.374 133.043 196.236 132.904C196.097 132.755 196.028 132.552 196.028 132.296V128.28C196.028 127.608 195.894 127.117 195.628 126.808C195.372 126.499 194.966 126.344 194.412 126.344C193.761 126.344 193.238 126.547 192.844 126.952C192.46 127.357 192.268 127.901 192.268 128.584V132.296C192.268 132.84 191.996 133.112 191.452 133.112Z" fill="#64728C"/>
<g filter="url(#filter1_bi_1083_8999)">
<path d="M0 15C0 7.26802 6.26801 1 14 1H65C72.732 1 79 7.26801 79 15V66C79 73.732 72.732 80 65 80H14C6.26802 80 0 73.732 0 66V15Z" fill="#76BC21" fill-opacity="0.05"/>
<path d="M0 15C0 7.26802 6.26801 1 14 1H65C72.732 1 79 7.26801 79 15V66C79 73.732 72.732 80 65 80H14C6.26802 80 0 73.732 0 66V15Z" fill="url(#paint2_linear_1083_8999)" fill-opacity="0.2"/>
<path d="M14 1.5H65C72.4558 1.5 78.5 7.54416 78.5 15V66C78.5 73.4558 72.4558 79.5 65 79.5H14C6.54416 79.5 0.5 73.4558 0.5 66V15C0.5 7.54416 6.54416 1.5 14 1.5Z" stroke="#76BC21"/>
<path d="M14 1.5H65C72.4558 1.5 78.5 7.54416 78.5 15V66C78.5 73.4558 72.4558 79.5 65 79.5H14C6.54416 79.5 0.5 73.4558 0.5 66V15C0.5 7.54416 6.54416 1.5 14 1.5Z" stroke="url(#paint3_linear_1083_8999)" stroke-opacity="0.2"/>
</g>
<path d="M31.8073 43.9883C32.7489 44.9069 34.1755 44.9069 35.0469 43.9883L38.6167 40.2625L42.649 44.4792C43.086 44.9363 43.6623 45.1641 44.2385 45.1641C44.8148 45.1641 45.3896 44.9344 45.8281 44.4751L56.6079 33.2023C57.4856 32.2845 57.4856 30.7956 56.608 29.8771C55.7296 28.9585 54.3058 28.9585 53.4281 29.8769L44.2385 39.4909L40.2049 35.2728C39.3265 34.3542 37.9034 34.3542 37.025 35.2728L31.8073 40.6667C30.9921 41.5779 30.9921 43.0697 31.8073 43.9883ZM57.7309 52.2188H28.4974V26.2854C28.4974 25.0531 27.4904 24 26.2487 24C25.007 24 24 25.0531 24 26.2854V54.5703C24 55.8637 25.0119 56.9219 26.2487 56.9219H57.7309C58.9747 56.9219 59.9796 55.871 59.9796 54.5703C59.9796 53.2696 58.9747 52.2188 57.7309 52.2188Z" fill="#76BC21"/>
<defs>
<filter id="filter0_i_1083_8999" x="0" y="105" width="88" height="49" filterUnits="userSpaceOnUse" color-interpolation-filters="sRGB">
<feFlood flood-opacity="0" result="BackgroundImageFix"/>
<feBlend mode="normal" in="SourceGraphic" in2="BackgroundImageFix" result="shape"/>
<feColorMatrix in="SourceAlpha" type="matrix" values="0 0 0 0 0 0 0 0 0 0 0 0 0 0 0 0 0 0 127 0" result="hardAlpha"/>
<feOffset dy="4"/>
<feGaussianBlur stdDeviation="3"/>
<feComposite in2="hardAlpha" operator="arithmetic" k2="-1" k3="1"/>
<feColorMatrix type="matrix" values="0 0 0 0 0.462745 0 0 0 0 0.737255 0 0 0 0 0.129412 0 0 0 0.15 0"/>
<feBlend mode="normal" in2="shape" result="effect1_innerShadow_1083_8999"/>
</filter>
<filter id="filter1_bi_1083_8999" x="-15" y="-14" width="109" height="109" filterUnits="userSpaceOnUse" color-interpolation-filters="sRGB">
<feFlood flood-opacity="0" result="BackgroundImageFix"/>
<feGaussianBlur in="BackgroundImageFix" stdDeviation="7.5"/>
<feComposite in2="SourceAlpha" operator="in" result="effect1_backgroundBlur_1083_8999"/>
<feBlend mode="normal" in="SourceGraphic" in2="effect1_backgroundBlur_1083_8999" result="shape"/>
<feColorMatrix in="SourceAlpha" type="matrix" values="0 0 0 0 0 0 0 0 0 0 0 0 0 0 0 0 0 0 127 0" result="hardAlpha"/>
<feOffset dy="4"/>
<feGaussianBlur stdDeviation="3"/>
<feComposite in2="hardAlpha" operator="arithmetic" k2="-1" k3="1"/>
<feColorMatrix type="matrix" values="0 0 0 0 0.462745 0 0 0 0 0.737255 0 0 0 0 0.129412 0 0 0 0.15 0"/>
<feBlend mode="normal" in2="shape" result="effect2_innerShadow_1083_8999"/>
</filter>
<linearGradient id="paint0_linear_1083_8999" x1="27.2911" y1="106.709" x2="32.7629" y2="150.402" gradientUnits="userSpaceOnUse">
<stop offset="0.233202" stop-color="#76BC21" stop-opacity="0.1"/>
<stop offset="1" stop-color="#76BC21" stop-opacity="0.5"/>
</linearGradient>
<linearGradient id="paint1_linear_1083_8999" x1="44" y1="105" x2="44" y2="150" gradientUnits="userSpaceOnUse">
<stop offset="0.16" stop-color="#76BC21" stop-opacity="0.08"/>
<stop offset="1" stop-color="#76BC21" stop-opacity="0.48"/>
</linearGradient>
<linearGradient id="paint2_linear_1083_8999" x1="71.5" y1="4" x2="89.5" y2="77.5" gradientUnits="userSpaceOnUse">
<stop offset="0.233202" stop-color="#76BC21" stop-opacity="0.1"/>
<stop offset="1" stop-color="#76BC21" stop-opacity="0.5"/>
</linearGradient>
<linearGradient id="paint3_linear_1083_8999" x1="86.5" y1="1" x2="86.5" y2="80" gradientUnits="userSpaceOnUse">
<stop offset="0.16" stop-color="#76BC21" stop-opacity="0.08"/>
<stop offset="1" stop-color="#76BC21" stop-opacity="0.48"/>
</linearGradient>
</defs>
</svg>
