<svg width="88" height="71" viewBox="0 0 88 71" fill="none" xmlns="http://www.w3.org/2000/svg">
<g filter="url(#filter0_i_1081_8697)">
<rect x="1" width="61" height="24" rx="12" fill="#64728C" fill-opacity="0.07"/>
</g>
<path d="M30.62 16C30.42 16 30.264 15.944 30.152 15.832C30.04 15.72 29.984 15.564 29.984 15.364V8.128C29.984 7.92 30.036 7.764 30.14 7.66C30.252 7.548 30.408 7.492 30.608 7.492C30.808 7.492 30.96 7.548 31.064 7.66C31.176 7.764 31.232 7.92 31.232 8.128V14.932H34.952C35.128 14.932 35.264 14.98 35.36 15.076C35.456 15.164 35.504 15.292 35.504 15.46C35.504 15.628 35.456 15.76 35.36 15.856C35.264 15.952 35.128 16 34.952 16H30.62ZM38.9585 16.108C38.3665 16.108 37.8545 15.984 37.4225 15.736C36.9985 15.488 36.6665 15.136 36.4265 14.68C36.1865 14.224 36.0665 13.688 36.0665 13.072C36.0665 12.6 36.1345 12.18 36.2705 11.812C36.4065 11.444 36.5985 11.128 36.8465 10.864C37.1025 10.592 37.4065 10.388 37.7585 10.252C38.1185 10.108 38.5185 10.036 38.9585 10.036C39.5425 10.036 40.0465 10.16 40.4705 10.408C40.9025 10.656 41.2385 11.008 41.4785 11.464C41.7185 11.912 41.8385 12.448 41.8385 13.072C41.8385 13.536 41.7705 13.956 41.6345 14.332C41.4985 14.708 41.3025 15.028 41.0465 15.292C40.7985 15.556 40.4945 15.76 40.1345 15.904C39.7825 16.04 39.3905 16.108 38.9585 16.108ZM38.9585 15.172C39.2865 15.172 39.5745 15.092 39.8225 14.932C40.0705 14.772 40.2625 14.536 40.3985 14.224C40.5425 13.912 40.6145 13.528 40.6145 13.072C40.6145 12.384 40.4625 11.864 40.1585 11.512C39.8545 11.16 39.4545 10.984 38.9585 10.984C38.6225 10.984 38.3305 11.064 38.0825 11.224C37.8345 11.376 37.6385 11.608 37.4945 11.92C37.3585 12.232 37.2905 12.616 37.2905 13.072C37.2905 13.752 37.4425 14.272 37.7465 14.632C38.0505 14.992 38.4545 15.172 38.9585 15.172ZM45.2302 16.084C45.0622 16.084 44.9142 16.044 44.7862 15.964C44.6662 15.876 44.5702 15.74 44.4982 15.556L42.7342 10.888C42.6702 10.728 42.6502 10.588 42.6742 10.468C42.6982 10.34 42.7582 10.24 42.8542 10.168C42.9582 10.096 43.0902 10.06 43.2502 10.06C43.3942 10.06 43.5102 10.096 43.5982 10.168C43.6942 10.232 43.7742 10.36 43.8382 10.552L45.4102 14.98H45.1222L46.7542 10.504C46.8102 10.352 46.8862 10.24 46.9822 10.168C47.0782 10.096 47.2022 10.06 47.3542 10.06C47.5062 10.06 47.6302 10.096 47.7262 10.168C47.8302 10.24 47.9062 10.352 47.9542 10.504L49.5502 14.98H49.2862L50.8822 10.528C50.9462 10.344 51.0262 10.22 51.1222 10.156C51.2262 10.092 51.3422 10.06 51.4702 10.06C51.6302 10.06 51.7502 10.1 51.8302 10.18C51.9182 10.26 51.9662 10.364 51.9742 10.492C51.9902 10.612 51.9702 10.744 51.9142 10.888L50.1502 15.556C50.0782 15.732 49.9782 15.864 49.8502 15.952C49.7302 16.04 49.5902 16.084 49.4302 16.084C49.2622 16.084 49.1142 16.04 48.9862 15.952C48.8662 15.864 48.7702 15.732 48.6982 15.556L47.0182 11.008H47.6182L45.9502 15.556C45.8862 15.732 45.7902 15.864 45.6622 15.952C45.5422 16.04 45.3982 16.084 45.2302 16.084Z" fill="#64728C"/>
<path d="M30.572 41.084C30.388 41.084 30.244 41.032 30.14 40.928C30.036 40.824 29.984 40.676 29.984 40.484V33.08C29.984 32.88 30.032 32.728 30.128 32.624C30.232 32.512 30.368 32.456 30.536 32.456C30.68 32.456 30.788 32.484 30.86 32.54C30.94 32.588 31.032 32.68 31.136 32.816L36.08 39.332H35.78V33.044C35.78 32.86 35.828 32.716 35.924 32.612C36.028 32.508 36.172 32.456 36.356 32.456C36.548 32.456 36.692 32.508 36.788 32.612C36.884 32.716 36.932 32.86 36.932 33.044V40.496C36.932 40.68 36.884 40.824 36.788 40.928C36.7 41.032 36.58 41.084 36.428 41.084C36.284 41.084 36.164 41.056 36.068 41C35.98 40.944 35.884 40.848 35.78 40.712L30.86 34.208H31.136V40.484C31.136 40.676 31.088 40.824 30.992 40.928C30.896 41.032 30.756 41.084 30.572 41.084ZM41.314 41.108C40.722 41.108 40.21 40.984 39.778 40.736C39.354 40.488 39.022 40.136 38.782 39.68C38.542 39.224 38.422 38.688 38.422 38.072C38.422 37.6 38.49 37.18 38.626 36.812C38.762 36.444 38.954 36.128 39.202 35.864C39.458 35.592 39.762 35.388 40.114 35.252C40.474 35.108 40.874 35.036 41.314 35.036C41.898 35.036 42.402 35.16 42.826 35.408C43.258 35.656 43.594 36.008 43.834 36.464C44.074 36.912 44.194 37.448 44.194 38.072C44.194 38.536 44.126 38.956 43.99 39.332C43.854 39.708 43.658 40.028 43.402 40.292C43.154 40.556 42.85 40.76 42.49 40.904C42.138 41.04 41.746 41.108 41.314 41.108ZM41.314 40.172C41.642 40.172 41.93 40.092 42.178 39.932C42.426 39.772 42.618 39.536 42.754 39.224C42.898 38.912 42.97 38.528 42.97 38.072C42.97 37.384 42.818 36.864 42.514 36.512C42.21 36.16 41.81 35.984 41.314 35.984C40.978 35.984 40.686 36.064 40.438 36.224C40.19 36.376 39.994 36.608 39.85 36.92C39.714 37.232 39.646 37.616 39.646 38.072C39.646 38.752 39.798 39.272 40.102 39.632C40.406 39.992 40.81 40.172 41.314 40.172ZM46.1671 41.084C45.9671 41.084 45.8151 41.032 45.7111 40.928C45.6071 40.816 45.5551 40.664 45.5551 40.472V35.672C45.5551 35.472 45.6071 35.32 45.7111 35.216C45.8151 35.112 45.9591 35.06 46.1431 35.06C46.3351 35.06 46.4791 35.112 46.5751 35.216C46.6791 35.32 46.7311 35.472 46.7311 35.672V36.548H46.6111C46.7391 36.068 46.9751 35.704 47.3191 35.456C47.6631 35.208 48.1031 35.064 48.6391 35.024C48.7831 35.016 48.8951 35.052 48.9751 35.132C49.0631 35.212 49.1111 35.336 49.1191 35.504C49.1351 35.672 49.0991 35.808 49.0111 35.912C48.9231 36.008 48.7871 36.064 48.6031 36.08L48.3751 36.104C47.8551 36.152 47.4591 36.316 47.1871 36.596C46.9151 36.876 46.7791 37.26 46.7791 37.748V40.472C46.7791 40.664 46.7271 40.816 46.6231 40.928C46.5271 41.032 46.3751 41.084 46.1671 41.084ZM50.6557 41.084C50.4637 41.084 50.3157 41.032 50.2117 40.928C50.1077 40.816 50.0557 40.664 50.0557 40.472V35.672C50.0557 35.472 50.1077 35.32 50.2117 35.216C50.3157 35.112 50.4597 35.06 50.6437 35.06C50.8357 35.06 50.9797 35.112 51.0757 35.216C51.1797 35.32 51.2317 35.472 51.2317 35.672V36.656L51.0997 36.392C51.2597 35.968 51.5077 35.636 51.8437 35.396C52.1797 35.156 52.5837 35.036 53.0557 35.036C53.5437 35.036 53.9397 35.152 54.2437 35.384C54.5477 35.616 54.7557 35.972 54.8677 36.452H54.6997C54.8517 36.012 55.1117 35.668 55.4797 35.42C55.8477 35.164 56.2757 35.036 56.7637 35.036C57.2117 35.036 57.5797 35.124 57.8677 35.3C58.1557 35.468 58.3717 35.728 58.5157 36.08C58.6597 36.424 58.7317 36.86 58.7317 37.388V40.472C58.7317 40.664 58.6757 40.816 58.5637 40.928C58.4597 41.032 58.3117 41.084 58.1197 41.084C57.9277 41.084 57.7797 41.032 57.6757 40.928C57.5717 40.816 57.5197 40.664 57.5197 40.472V37.448C57.5197 36.952 57.4317 36.588 57.2557 36.356C57.0877 36.124 56.8077 36.008 56.4157 36.008C55.9757 36.008 55.6277 36.16 55.3717 36.464C55.1157 36.768 54.9877 37.188 54.9877 37.724V40.472C54.9877 40.664 54.9357 40.816 54.8317 40.928C54.7277 41.032 54.5797 41.084 54.3877 41.084C54.1957 41.084 54.0437 41.032 53.9317 40.928C53.8277 40.816 53.7757 40.664 53.7757 40.472V37.448C53.7757 36.952 53.6917 36.588 53.5237 36.356C53.3557 36.124 53.0757 36.008 52.6837 36.008C52.2437 36.008 51.8957 36.16 51.6397 36.464C51.3917 36.768 51.2677 37.188 51.2677 37.724V40.472C51.2677 40.88 51.0637 41.084 50.6557 41.084ZM62.2982 41.108C61.8902 41.108 61.5222 41.028 61.1942 40.868C60.8742 40.708 60.6222 40.492 60.4382 40.22C60.2542 39.948 60.1622 39.64 60.1622 39.296C60.1622 38.864 60.2702 38.524 60.4862 38.276C60.7102 38.02 61.0742 37.84 61.5782 37.736C62.0902 37.624 62.7782 37.568 63.6422 37.568H64.2062V38.312H63.6542C63.0782 38.312 62.6222 38.34 62.2862 38.396C61.9502 38.452 61.7102 38.548 61.5662 38.684C61.4302 38.812 61.3622 38.992 61.3622 39.224C61.3622 39.528 61.4662 39.776 61.6742 39.968C61.8822 40.152 62.1702 40.244 62.5382 40.244C62.8342 40.244 63.0942 40.176 63.3182 40.04C63.5422 39.896 63.7182 39.704 63.8462 39.464C63.9822 39.224 64.0502 38.948 64.0502 38.636V37.256C64.0502 36.8 63.9542 36.472 63.7622 36.272C63.5702 36.072 63.2542 35.972 62.8142 35.972C62.5582 35.972 62.2902 36.004 62.0102 36.068C61.7382 36.132 61.4542 36.24 61.1582 36.392C61.0222 36.456 60.9062 36.476 60.8102 36.452C60.7142 36.428 60.6382 36.376 60.5822 36.296C60.5262 36.208 60.4942 36.116 60.4862 36.02C60.4862 35.916 60.5102 35.816 60.5582 35.72C60.6142 35.624 60.7062 35.552 60.8342 35.504C61.1862 35.336 61.5342 35.216 61.8782 35.144C62.2222 35.072 62.5462 35.036 62.8502 35.036C63.3862 35.036 63.8262 35.12 64.1702 35.288C64.5222 35.456 64.7822 35.712 64.9502 36.056C65.1182 36.4 65.2022 36.844 65.2022 37.388V40.472C65.2022 40.664 65.1542 40.816 65.0582 40.928C64.9622 41.032 64.8222 41.084 64.6382 41.084C64.4622 41.084 64.3222 41.032 64.2182 40.928C64.1142 40.816 64.0622 40.664 64.0622 40.472V39.692H64.1702C64.1062 39.988 63.9862 40.244 63.8102 40.46C63.6422 40.668 63.4302 40.828 63.1742 40.94C62.9182 41.052 62.6262 41.108 62.2982 41.108ZM68.7555 41.108C68.1315 41.108 67.6595 40.928 67.3395 40.568C67.0275 40.2 66.8715 39.672 66.8715 38.984V33.068C66.8715 32.868 66.9235 32.716 67.0275 32.612C67.1315 32.508 67.2795 32.456 67.4715 32.456C67.6635 32.456 67.8115 32.508 67.9155 32.612C68.0275 32.716 68.0835 32.868 68.0835 33.068V38.912C68.0835 39.312 68.1635 39.612 68.3235 39.812C68.4915 40.004 68.7315 40.1 69.0435 40.1C69.1155 40.1 69.1795 40.1 69.2355 40.1C69.2915 40.092 69.3475 40.084 69.4035 40.076C69.4995 40.068 69.5675 40.096 69.6075 40.16C69.6475 40.216 69.6675 40.336 69.6675 40.52C69.6675 40.688 69.6315 40.82 69.5595 40.916C69.4875 41.004 69.3715 41.06 69.2115 41.084C69.1395 41.092 69.0635 41.096 68.9835 41.096C68.9035 41.104 68.8275 41.108 68.7555 41.108Z" fill="#64728C"/>
<path d="M30.608 67.084C30.408 67.084 30.252 67.028 30.14 66.916C30.036 66.804 29.984 66.648 29.984 66.448V59.092C29.984 58.884 30.036 58.728 30.14 58.624C30.252 58.512 30.408 58.456 30.608 58.456C30.808 58.456 30.96 58.512 31.064 58.624C31.176 58.728 31.232 58.884 31.232 59.092V62.188H35.972V59.092C35.972 58.884 36.024 58.728 36.128 58.624C36.24 58.512 36.396 58.456 36.596 58.456C36.796 58.456 36.948 58.512 37.052 58.624C37.156 58.728 37.208 58.884 37.208 59.092V66.448C37.208 66.648 37.156 66.804 37.052 66.916C36.948 67.028 36.796 67.084 36.596 67.084C36.396 67.084 36.24 67.028 36.128 66.916C36.024 66.804 35.972 66.648 35.972 66.448V63.232H31.232V66.448C31.232 66.648 31.18 66.804 31.076 66.916C30.972 67.028 30.816 67.084 30.608 67.084ZM40.9232 67.108C40.5152 67.108 40.1472 67.028 39.8192 66.868C39.4992 66.708 39.2472 66.492 39.0632 66.22C38.8792 65.948 38.7872 65.64 38.7872 65.296C38.7872 64.864 38.8952 64.524 39.1112 64.276C39.3352 64.02 39.6992 63.84 40.2032 63.736C40.7152 63.624 41.4032 63.568 42.2672 63.568H42.8312V64.312H42.2792C41.7032 64.312 41.2472 64.34 40.9112 64.396C40.5752 64.452 40.3352 64.548 40.1912 64.684C40.0552 64.812 39.9872 64.992 39.9872 65.224C39.9872 65.528 40.0912 65.776 40.2992 65.968C40.5072 66.152 40.7952 66.244 41.1632 66.244C41.4592 66.244 41.7192 66.176 41.9432 66.04C42.1672 65.896 42.3432 65.704 42.4712 65.464C42.6072 65.224 42.6752 64.948 42.6752 64.636V63.256C42.6752 62.8 42.5792 62.472 42.3872 62.272C42.1952 62.072 41.8792 61.972 41.4392 61.972C41.1832 61.972 40.9152 62.004 40.6352 62.068C40.3632 62.132 40.0792 62.24 39.7832 62.392C39.6472 62.456 39.5312 62.476 39.4352 62.452C39.3392 62.428 39.2632 62.376 39.2072 62.296C39.1512 62.208 39.1192 62.116 39.1112 62.02C39.1112 61.916 39.1352 61.816 39.1832 61.72C39.2392 61.624 39.3312 61.552 39.4592 61.504C39.8112 61.336 40.1592 61.216 40.5032 61.144C40.8472 61.072 41.1712 61.036 41.4752 61.036C42.0112 61.036 42.4512 61.12 42.7952 61.288C43.1472 61.456 43.4072 61.712 43.5752 62.056C43.7432 62.4 43.8272 62.844 43.8272 63.388V66.472C43.8272 66.664 43.7792 66.816 43.6832 66.928C43.5872 67.032 43.4472 67.084 43.2632 67.084C43.0872 67.084 42.9472 67.032 42.8432 66.928C42.7392 66.816 42.6872 66.664 42.6872 66.472V65.692H42.7952C42.7312 65.988 42.6112 66.244 42.4352 66.46C42.2672 66.668 42.0552 66.828 41.7992 66.94C41.5432 67.052 41.2512 67.108 40.9232 67.108ZM46.1085 67.084C45.9085 67.084 45.7565 67.032 45.6525 66.928C45.5485 66.816 45.4965 66.664 45.4965 66.472V61.672C45.4965 61.472 45.5485 61.32 45.6525 61.216C45.7565 61.112 45.9005 61.06 46.0845 61.06C46.2765 61.06 46.4205 61.112 46.5165 61.216C46.6205 61.32 46.6725 61.472 46.6725 61.672V62.548H46.5525C46.6805 62.068 46.9165 61.704 47.2605 61.456C47.6045 61.208 48.0445 61.064 48.5805 61.024C48.7245 61.016 48.8365 61.052 48.9165 61.132C49.0045 61.212 49.0525 61.336 49.0605 61.504C49.0765 61.672 49.0405 61.808 48.9525 61.912C48.8645 62.008 48.7285 62.064 48.5445 62.08L48.3165 62.104C47.7965 62.152 47.4005 62.316 47.1285 62.596C46.8565 62.876 46.7205 63.26 46.7205 63.748V66.472C46.7205 66.664 46.6685 66.816 46.5645 66.928C46.4685 67.032 46.3165 67.084 46.1085 67.084ZM52.1231 67.108C51.6111 67.108 51.1591 66.988 50.7671 66.748C50.3831 66.5 50.0831 66.148 49.8671 65.692C49.6511 65.228 49.5431 64.688 49.5431 64.072C49.5431 63.44 49.6511 62.9 49.8671 62.452C50.0831 62.004 50.3831 61.656 50.7671 61.408C51.1591 61.16 51.6111 61.036 52.1231 61.036C52.6351 61.036 53.0751 61.164 53.4431 61.42C53.8191 61.668 54.0711 62.004 54.1991 62.428H54.0671V59.068C54.0671 58.868 54.1191 58.716 54.2231 58.612C54.3271 58.508 54.4751 58.456 54.6671 58.456C54.8591 58.456 55.0071 58.508 55.1111 58.612C55.2231 58.716 55.2791 58.868 55.2791 59.068V66.472C55.2791 66.664 55.2271 66.816 55.1231 66.928C55.0191 67.032 54.8711 67.084 54.6791 67.084C54.4871 67.084 54.3391 67.032 54.2351 66.928C54.1311 66.816 54.0791 66.664 54.0791 66.472V65.416L54.2111 65.68C54.0831 66.112 53.8311 66.46 53.4551 66.724C53.0871 66.98 52.6431 67.108 52.1231 67.108ZM52.4351 66.172C52.7631 66.172 53.0511 66.092 53.2991 65.932C53.5471 65.772 53.7391 65.536 53.8751 65.224C54.0191 64.912 54.0911 64.528 54.0911 64.072C54.0911 63.384 53.9391 62.864 53.6351 62.512C53.3311 62.16 52.9311 61.984 52.4351 61.984C52.0991 61.984 51.8071 62.064 51.5591 62.224C51.3111 62.376 51.1151 62.608 50.9711 62.92C50.8351 63.232 50.7671 63.616 50.7671 64.072C50.7671 64.752 50.9191 65.272 51.2231 65.632C51.5271 65.992 51.9311 66.172 52.4351 66.172Z" fill="#64728C"/>
<circle cx="13" cy="37" r="7.5" fill="white" stroke="#E8EAEF"/>
<circle cx="13" cy="12" r="8" fill="#FE5000"/>
<g filter="url(#filter1_d_1081_8697)">
<circle cx="13" cy="12" r="4" fill="white"/>
<circle cx="13" cy="12" r="4" fill="url(#paint0_linear_1081_8697)" fill-opacity="0.2"/>
</g>
<circle cx="13" cy="63" r="7.5" fill="white" stroke="#E8EAEF"/>
<defs>
<filter id="filter0_i_1081_8697" x="1" y="0" width="61" height="26" filterUnits="userSpaceOnUse" color-interpolation-filters="sRGB">
<feFlood flood-opacity="0" result="BackgroundImageFix"/>
<feBlend mode="normal" in="SourceGraphic" in2="BackgroundImageFix" result="shape"/>
<feColorMatrix in="SourceAlpha" type="matrix" values="0 0 0 0 0 0 0 0 0 0 0 0 0 0 0 0 0 0 127 0" result="hardAlpha"/>
<feOffset dy="2"/>
<feGaussianBlur stdDeviation="1.5"/>
<feComposite in2="hardAlpha" operator="arithmetic" k2="-1" k3="1"/>
<feColorMatrix type="matrix" values="0 0 0 0 0 0 0 0 0 0 0 0 0 0 0 0 0 0 0.05 0"/>
<feBlend mode="normal" in2="shape" result="effect1_innerShadow_1081_8697"/>
</filter>
<filter id="filter1_d_1081_8697" x="5" y="6" width="16" height="16" filterUnits="userSpaceOnUse" color-interpolation-filters="sRGB">
<feFlood flood-opacity="0" result="BackgroundImageFix"/>
<feColorMatrix in="SourceAlpha" type="matrix" values="0 0 0 0 0 0 0 0 0 0 0 0 0 0 0 0 0 0 127 0" result="hardAlpha"/>
<feOffset dy="2"/>
<feGaussianBlur stdDeviation="2"/>
<feComposite in2="hardAlpha" operator="out"/>
<feColorMatrix type="matrix" values="0 0 0 0 0 0 0 0 0 0 0 0 0 0 0 0 0 0 0.25 0"/>
<feBlend mode="normal" in2="BackgroundImageFix" result="effect1_dropShadow_1081_8697"/>
<feBlend mode="normal" in="SourceGraphic" in2="effect1_dropShadow_1081_8697" result="shape"/>
</filter>
<linearGradient id="paint0_linear_1081_8697" x1="13" y1="8" x2="13" y2="16" gradientUnits="userSpaceOnUse">
<stop stop-opacity="0"/>
<stop offset="1" stop-opacity="0.38"/>
</linearGradient>
</defs>
</svg>
