<svg width="308" height="313" viewBox="0 0 308 313" fill="none" xmlns="http://www.w3.org/2000/svg">
<g filter="url(#filter0_d_1081_8752)">
<rect x="4" y="44" width="300" height="261" rx="14" fill="#E8EAEF"/>
<rect x="4.5" y="44.5" width="299" height="260" rx="13.5" stroke="#64728C" stroke-opacity="0.16"/>
<rect x="4" y="44" width="300" height="257" rx="14" fill="white"/>
<rect x="12" y="52" width="284" height="36" rx="10" fill="#F6F7F9"/>
<path d="M24.86 74.12C23.98 74.12 23.224 73.944 22.592 73.592C21.968 73.232 21.488 72.728 21.152 72.08C20.816 71.424 20.648 70.652 20.648 69.764C20.648 69.1 20.744 68.504 20.936 67.976C21.128 67.44 21.404 66.984 21.764 66.608C22.124 66.224 22.564 65.932 23.084 65.732C23.612 65.524 24.204 65.42 24.86 65.42C25.3 65.42 25.732 65.476 26.156 65.588C26.58 65.7 26.952 65.86 27.272 66.068C27.44 66.172 27.552 66.3 27.608 66.452C27.664 66.596 27.676 66.74 27.644 66.884C27.612 67.02 27.544 67.136 27.44 67.232C27.344 67.328 27.22 67.384 27.068 67.4C26.924 67.408 26.764 67.356 26.588 67.244C26.34 67.084 26.072 66.968 25.784 66.896C25.496 66.824 25.204 66.788 24.908 66.788C24.34 66.788 23.86 66.904 23.468 67.136C23.076 67.368 22.78 67.704 22.58 68.144C22.38 68.584 22.28 69.124 22.28 69.764C22.28 70.396 22.38 70.936 22.58 71.384C22.78 71.832 23.076 72.172 23.468 72.404C23.86 72.636 24.34 72.752 24.908 72.752C25.212 72.752 25.512 72.716 25.808 72.644C26.104 72.564 26.384 72.444 26.648 72.284C26.824 72.18 26.98 72.136 27.116 72.152C27.26 72.16 27.38 72.208 27.476 72.296C27.572 72.384 27.636 72.496 27.668 72.632C27.7 72.76 27.692 72.896 27.644 73.04C27.596 73.176 27.5 73.296 27.356 73.4C27.036 73.632 26.652 73.812 26.204 73.94C25.764 74.06 25.316 74.12 24.86 74.12Z" fill="#38455D"/>
<path d="M30.9043 74.108C30.5043 74.108 30.1443 74.032 29.8243 73.88C29.5123 73.72 29.2643 73.504 29.0803 73.232C28.8963 72.96 28.8043 72.656 28.8043 72.32C28.8043 71.888 28.9123 71.548 29.1283 71.3C29.3523 71.052 29.7163 70.876 30.2203 70.772C30.7323 70.668 31.4283 70.616 32.3083 70.616H32.8483V71.252H32.3203C31.6723 71.252 31.1603 71.284 30.7843 71.348C30.4163 71.404 30.1563 71.504 30.0043 71.648C29.8603 71.792 29.7883 71.996 29.7883 72.26C29.7883 72.588 29.9003 72.856 30.1243 73.064C30.3563 73.272 30.6683 73.376 31.0603 73.376C31.3803 73.376 31.6603 73.3 31.9003 73.148C32.1483 72.996 32.3403 72.788 32.4763 72.524C32.6203 72.26 32.6923 71.956 32.6923 71.612V70.244C32.6923 69.748 32.5923 69.392 32.3923 69.176C32.1923 68.952 31.8643 68.84 31.4083 68.84C31.1283 68.84 30.8483 68.876 30.5683 68.948C30.2883 69.02 29.9923 69.136 29.6803 69.296C29.5683 69.352 29.4723 69.372 29.3923 69.356C29.3123 69.332 29.2483 69.288 29.2003 69.224C29.1523 69.16 29.1243 69.088 29.1163 69.008C29.1083 68.92 29.1243 68.836 29.1643 68.756C29.2123 68.676 29.2843 68.612 29.3803 68.564C29.7323 68.388 30.0803 68.26 30.4243 68.18C30.7683 68.1 31.0963 68.06 31.4083 68.06C31.9123 68.06 32.3283 68.144 32.6563 68.312C32.9843 68.472 33.2283 68.72 33.3883 69.056C33.5483 69.384 33.6283 69.808 33.6283 70.328V73.58C33.6283 73.74 33.5883 73.864 33.5083 73.952C33.4363 74.04 33.3283 74.084 33.1843 74.084C33.0323 74.084 32.9163 74.04 32.8363 73.952C32.7563 73.864 32.7163 73.74 32.7163 73.58V72.644H32.8243C32.7603 72.948 32.6363 73.208 32.4523 73.424C32.2763 73.64 32.0563 73.808 31.7923 73.928C31.5283 74.048 31.2323 74.108 30.9043 74.108ZM35.9115 74.084C35.7515 74.084 35.6315 74.04 35.5515 73.952C35.4715 73.864 35.4315 73.74 35.4315 73.58V68.576C35.4315 68.416 35.4715 68.296 35.5515 68.216C35.6315 68.128 35.7475 68.084 35.8995 68.084C36.0515 68.084 36.1675 68.128 36.2475 68.216C36.3355 68.296 36.3795 68.416 36.3795 68.576V69.608L36.2475 69.464C36.4155 69 36.6875 68.652 37.0635 68.42C37.4475 68.18 37.8875 68.06 38.3835 68.06C38.8475 68.06 39.2315 68.144 39.5355 68.312C39.8475 68.48 40.0795 68.736 40.2315 69.08C40.3835 69.416 40.4595 69.844 40.4595 70.364V73.58C40.4595 73.74 40.4155 73.864 40.3275 73.952C40.2475 74.04 40.1315 74.084 39.9795 74.084C39.8195 74.084 39.6955 74.04 39.6075 73.952C39.5275 73.864 39.4875 73.74 39.4875 73.58V70.424C39.4875 69.88 39.3795 69.484 39.1635 69.236C38.9555 68.98 38.6195 68.852 38.1555 68.852C37.6195 68.852 37.1915 69.02 36.8715 69.356C36.5595 69.684 36.4035 70.124 36.4035 70.676V73.58C36.4035 73.916 36.2395 74.084 35.9115 74.084ZM44.0878 74.108C43.6878 74.108 43.3278 74.032 43.0078 73.88C42.6958 73.72 42.4478 73.504 42.2638 73.232C42.0798 72.96 41.9878 72.656 41.9878 72.32C41.9878 71.888 42.0958 71.548 42.3118 71.3C42.5358 71.052 42.8998 70.876 43.4038 70.772C43.9158 70.668 44.6118 70.616 45.4918 70.616H46.0318V71.252H45.5038C44.8558 71.252 44.3438 71.284 43.9678 71.348C43.5998 71.404 43.3398 71.504 43.1878 71.648C43.0438 71.792 42.9718 71.996 42.9718 72.26C42.9718 72.588 43.0838 72.856 43.3078 73.064C43.5398 73.272 43.8518 73.376 44.2438 73.376C44.5638 73.376 44.8438 73.3 45.0838 73.148C45.3318 72.996 45.5238 72.788 45.6598 72.524C45.8038 72.26 45.8758 71.956 45.8758 71.612V70.244C45.8758 69.748 45.7758 69.392 45.5758 69.176C45.3758 68.952 45.0478 68.84 44.5918 68.84C44.3118 68.84 44.0318 68.876 43.7518 68.948C43.4718 69.02 43.1758 69.136 42.8638 69.296C42.7518 69.352 42.6558 69.372 42.5758 69.356C42.4958 69.332 42.4318 69.288 42.3838 69.224C42.3358 69.16 42.3078 69.088 42.2998 69.008C42.2918 68.92 42.3078 68.836 42.3478 68.756C42.3958 68.676 42.4678 68.612 42.5638 68.564C42.9158 68.388 43.2638 68.26 43.6078 68.18C43.9518 68.1 44.2798 68.06 44.5918 68.06C45.0958 68.06 45.5118 68.144 45.8398 68.312C46.1678 68.472 46.4118 68.72 46.5718 69.056C46.7318 69.384 46.8118 69.808 46.8118 70.328V73.58C46.8118 73.74 46.7718 73.864 46.6918 73.952C46.6198 74.04 46.5118 74.084 46.3678 74.084C46.2158 74.084 46.0998 74.04 46.0198 73.952C45.9398 73.864 45.8998 73.74 45.8998 73.58V72.644H46.0078C45.9438 72.948 45.8198 73.208 45.6358 73.424C45.4598 73.64 45.2398 73.808 44.9758 73.928C44.7118 74.048 44.4158 74.108 44.0878 74.108ZM50.8351 74.108C50.3151 74.108 49.8591 73.984 49.4671 73.736C49.0831 73.488 48.7831 73.14 48.5671 72.692C48.3591 72.236 48.2551 71.7 48.2551 71.084C48.2551 70.46 48.3591 69.924 48.5671 69.476C48.7831 69.02 49.0831 68.672 49.4671 68.432C49.8591 68.184 50.3151 68.06 50.8351 68.06C51.3631 68.06 51.8151 68.192 52.1911 68.456C52.5671 68.72 52.8191 69.076 52.9471 69.524H52.8151V65.948C52.8151 65.788 52.8551 65.668 52.9351 65.588C53.0231 65.5 53.1471 65.456 53.3071 65.456C53.4591 65.456 53.5751 65.5 53.6551 65.588C53.7431 65.668 53.7871 65.788 53.7871 65.948V73.58C53.7871 73.74 53.7471 73.864 53.6671 73.952C53.5871 74.04 53.4671 74.084 53.3071 74.084C53.1551 74.084 53.0351 74.04 52.9471 73.952C52.8671 73.864 52.8271 73.74 52.8271 73.58V72.44L52.9591 72.608C52.8311 73.064 52.5751 73.428 52.1911 73.7C51.8151 73.972 51.3631 74.108 50.8351 74.108ZM51.0391 73.328C51.3991 73.328 51.7151 73.24 51.9871 73.064C52.2591 72.888 52.4671 72.632 52.6111 72.296C52.7631 71.96 52.8391 71.556 52.8391 71.084C52.8391 70.356 52.6751 69.8 52.3471 69.416C52.0271 69.032 51.5911 68.84 51.0391 68.84C50.6711 68.84 50.3511 68.928 50.0791 69.104C49.8151 69.272 49.6071 69.524 49.4551 69.86C49.3111 70.188 49.2391 70.596 49.2391 71.084C49.2391 71.804 49.4031 72.36 49.7311 72.752C50.0591 73.136 50.4951 73.328 51.0391 73.328ZM57.4472 74.108C57.0472 74.108 56.6872 74.032 56.3672 73.88C56.0552 73.72 55.8072 73.504 55.6232 73.232C55.4392 72.96 55.3472 72.656 55.3472 72.32C55.3472 71.888 55.4552 71.548 55.6712 71.3C55.8952 71.052 56.2592 70.876 56.7632 70.772C57.2752 70.668 57.9712 70.616 58.8512 70.616H59.3912V71.252H58.8632C58.2152 71.252 57.7032 71.284 57.3272 71.348C56.9592 71.404 56.6992 71.504 56.5472 71.648C56.4032 71.792 56.3312 71.996 56.3312 72.26C56.3312 72.588 56.4432 72.856 56.6672 73.064C56.8992 73.272 57.2112 73.376 57.6032 73.376C57.9232 73.376 58.2032 73.3 58.4432 73.148C58.6912 72.996 58.8832 72.788 59.0192 72.524C59.1632 72.26 59.2352 71.956 59.2352 71.612V70.244C59.2352 69.748 59.1352 69.392 58.9352 69.176C58.7352 68.952 58.4072 68.84 57.9512 68.84C57.6712 68.84 57.3912 68.876 57.1112 68.948C56.8312 69.02 56.5352 69.136 56.2232 69.296C56.1112 69.352 56.0152 69.372 55.9352 69.356C55.8552 69.332 55.7912 69.288 55.7432 69.224C55.6952 69.16 55.6672 69.088 55.6592 69.008C55.6512 68.92 55.6672 68.836 55.7072 68.756C55.7552 68.676 55.8272 68.612 55.9232 68.564C56.2752 68.388 56.6232 68.26 56.9672 68.18C57.3112 68.1 57.6392 68.06 57.9512 68.06C58.4552 68.06 58.8712 68.144 59.1992 68.312C59.5272 68.472 59.7712 68.72 59.9312 69.056C60.0912 69.384 60.1712 69.808 60.1712 70.328V73.58C60.1712 73.74 60.1312 73.864 60.0512 73.952C59.9792 74.04 59.8712 74.084 59.7272 74.084C59.5752 74.084 59.4592 74.04 59.3792 73.952C59.2992 73.864 59.2592 73.74 59.2592 73.58V72.644H59.3672C59.3032 72.948 59.1792 73.208 58.9952 73.424C58.8192 73.64 58.5992 73.808 58.3352 73.928C58.0712 74.048 57.7752 74.108 57.4472 74.108ZM68.7523 74.108C67.9683 74.108 67.2843 73.932 66.7003 73.58C66.1243 73.22 65.6763 72.716 65.3563 72.068C65.0443 71.42 64.8883 70.652 64.8883 69.764C64.8883 69.092 64.9763 68.492 65.1523 67.964C65.3363 67.428 65.5963 66.976 65.9323 66.608C66.2683 66.232 66.6723 65.944 67.1443 65.744C67.6243 65.536 68.1603 65.432 68.7523 65.432C69.5523 65.432 70.2403 65.608 70.8163 65.96C71.4003 66.312 71.8483 66.812 72.1603 67.46C72.4803 68.1 72.6403 68.864 72.6403 69.752C72.6403 70.424 72.5483 71.028 72.3643 71.564C72.1803 72.1 71.9203 72.556 71.5843 72.932C71.2483 73.308 70.8403 73.6 70.3603 73.808C69.8883 74.008 69.3523 74.108 68.7523 74.108ZM68.7523 73.232C69.3603 73.232 69.8723 73.096 70.2883 72.824C70.7123 72.552 71.0363 72.156 71.2603 71.636C71.4843 71.116 71.5963 70.492 71.5963 69.764C71.5963 68.668 71.3483 67.82 70.8523 67.22C70.3643 66.612 69.6643 66.308 68.7523 66.308C68.1603 66.308 67.6523 66.444 67.2283 66.716C66.8123 66.988 66.4923 67.384 66.2683 67.904C66.0443 68.416 65.9323 69.036 65.9323 69.764C65.9323 70.852 66.1803 71.704 66.6763 72.32C67.1723 72.928 67.8643 73.232 68.7523 73.232ZM75.0595 74.084C74.9075 74.084 74.7875 74.04 74.6995 73.952C74.6195 73.864 74.5795 73.74 74.5795 73.58V68.924H73.8115C73.6835 68.924 73.5795 68.892 73.4995 68.828C73.4275 68.756 73.3915 68.66 73.3915 68.54C73.3915 68.42 73.4275 68.328 73.4995 68.264C73.5795 68.2 73.6835 68.168 73.8115 68.168H74.8435L74.5795 68.42V67.964C74.5795 67.204 74.7635 66.624 75.1315 66.224C75.5075 65.824 76.0555 65.592 76.7755 65.528L77.1235 65.492C77.2355 65.484 77.3235 65.504 77.3875 65.552C77.4595 65.6 77.5035 65.66 77.5195 65.732C77.5435 65.804 77.5475 65.88 77.5315 65.96C77.5155 66.032 77.4795 66.096 77.4235 66.152C77.3675 66.208 77.2995 66.24 77.2195 66.248L76.9435 66.272C76.4555 66.312 76.0995 66.46 75.8755 66.716C75.6595 66.972 75.5515 67.348 75.5515 67.844V68.348L75.4075 68.168H76.8475C76.9835 68.168 77.0875 68.2 77.1595 68.264C77.2315 68.328 77.2675 68.42 77.2675 68.54C77.2675 68.66 77.2315 68.756 77.1595 68.828C77.0875 68.892 76.9835 68.924 76.8475 68.924H75.5515V73.58C75.5515 73.916 75.3875 74.084 75.0595 74.084ZM78.8681 74.084C78.7161 74.084 78.5961 74.04 78.5081 73.952C78.4281 73.864 78.3881 73.74 78.3881 73.58V68.924H77.6201C77.4921 68.924 77.3881 68.892 77.3081 68.828C77.2361 68.756 77.2001 68.66 77.2001 68.54C77.2001 68.42 77.2361 68.328 77.3081 68.264C77.3881 68.2 77.4921 68.168 77.6201 68.168H78.6521L78.3881 68.42V67.964C78.3881 67.212 78.5681 66.636 78.9281 66.236C79.2961 65.836 79.8361 65.608 80.5481 65.552L80.9081 65.516C81.0281 65.508 81.1241 65.528 81.1961 65.576C81.2681 65.616 81.3121 65.672 81.3281 65.744C81.3521 65.816 81.3561 65.892 81.3401 65.972C81.3241 66.052 81.2881 66.12 81.2321 66.176C81.1841 66.232 81.1241 66.264 81.0521 66.272L80.6921 66.296C80.2201 66.328 79.8801 66.476 79.6721 66.74C79.4641 66.996 79.3601 67.364 79.3601 67.844V68.348L79.2161 68.168H82.4801C82.6321 68.168 82.7481 68.212 82.8281 68.3C82.9161 68.388 82.9601 68.516 82.9601 68.684V73.532C82.9601 73.7 82.9201 73.832 82.8401 73.928C82.7601 74.016 82.6401 74.06 82.4801 74.06C82.3201 74.06 82.1961 74.016 82.1081 73.928C82.0281 73.832 81.9881 73.7 81.9881 73.532V68.924H79.3601V73.58C79.3601 73.916 79.1961 74.084 78.8681 74.084ZM82.4921 66.764C82.2921 66.764 82.1361 66.712 82.0241 66.608C81.9201 66.496 81.8681 66.348 81.8681 66.164C81.8681 65.972 81.9201 65.828 82.0241 65.732C82.1361 65.628 82.2921 65.576 82.4921 65.576C82.6921 65.576 82.8441 65.628 82.9481 65.732C83.0601 65.828 83.1161 65.972 83.1161 66.164C83.1161 66.348 83.0601 66.496 82.9481 66.608C82.8441 66.712 82.6921 66.764 82.4921 66.764ZM87.2512 74.108C86.6672 74.108 86.1632 73.98 85.7392 73.724C85.3152 73.468 84.9872 73.112 84.7552 72.656C84.5312 72.192 84.4192 71.656 84.4192 71.048C84.4192 70.584 84.4832 70.168 84.6112 69.8C84.7392 69.432 84.9272 69.12 85.1752 68.864C85.4232 68.6 85.7192 68.4 86.0632 68.264C86.4152 68.128 86.8112 68.06 87.2512 68.06C87.5392 68.06 87.8392 68.104 88.1512 68.192C88.4632 68.28 88.7472 68.432 89.0032 68.648C89.0832 68.704 89.1352 68.772 89.1592 68.852C89.1832 68.932 89.1832 69.012 89.1592 69.092C89.1352 69.164 89.0952 69.228 89.0392 69.284C88.9832 69.332 88.9112 69.36 88.8232 69.368C88.7432 69.376 88.6592 69.348 88.5712 69.284C88.3632 69.124 88.1512 69.012 87.9352 68.948C87.7192 68.884 87.5112 68.852 87.3112 68.852C86.9992 68.852 86.7272 68.904 86.4952 69.008C86.2632 69.104 86.0672 69.244 85.9072 69.428C85.7472 69.612 85.6232 69.84 85.5352 70.112C85.4552 70.384 85.4152 70.7 85.4152 71.06C85.4152 71.756 85.5792 72.308 85.9072 72.716C86.2352 73.116 86.7032 73.316 87.3112 73.316C87.5112 73.316 87.7152 73.284 87.9232 73.22C88.1392 73.156 88.3552 73.044 88.5712 72.884C88.6592 72.82 88.7432 72.792 88.8232 72.8C88.9032 72.808 88.9712 72.84 89.0272 72.896C89.0832 72.944 89.1192 73.008 89.1352 73.088C89.1592 73.168 89.1592 73.248 89.1352 73.328C89.1112 73.4 89.0592 73.464 88.9792 73.52C88.7232 73.728 88.4432 73.88 88.1392 73.976C87.8352 74.064 87.5392 74.108 87.2512 74.108ZM92.8447 74.108C92.2287 74.108 91.6967 73.988 91.2487 73.748C90.8087 73.5 90.4647 73.152 90.2167 72.704C89.9767 72.256 89.8567 71.72 89.8567 71.096C89.8567 70.488 89.9767 69.96 90.2167 69.512C90.4567 69.056 90.7847 68.7 91.2007 68.444C91.6247 68.188 92.1127 68.06 92.6647 68.06C93.0567 68.06 93.4087 68.128 93.7207 68.264C94.0327 68.392 94.2967 68.58 94.5127 68.828C94.7367 69.076 94.9047 69.376 95.0167 69.728C95.1367 70.08 95.1967 70.476 95.1967 70.916C95.1967 71.044 95.1607 71.14 95.0887 71.204C95.0167 71.26 94.9127 71.288 94.7767 71.288H90.6007V70.652H94.5487L94.3567 70.808C94.3567 70.376 94.2927 70.012 94.1647 69.716C94.0367 69.412 93.8487 69.18 93.6007 69.02C93.3607 68.86 93.0567 68.78 92.6887 68.78C92.2807 68.78 91.9327 68.876 91.6447 69.068C91.3647 69.252 91.1527 69.512 91.0087 69.848C90.8647 70.176 90.7927 70.56 90.7927 71V71.072C90.7927 71.808 90.9687 72.368 91.3207 72.752C91.6807 73.136 92.1887 73.328 92.8447 73.328C93.1167 73.328 93.3847 73.292 93.6487 73.22C93.9207 73.148 94.1847 73.028 94.4407 72.86C94.5527 72.788 94.6527 72.756 94.7407 72.764C94.8367 72.764 94.9127 72.792 94.9687 72.848C95.0247 72.896 95.0607 72.96 95.0767 73.04C95.1007 73.112 95.0927 73.192 95.0527 73.28C95.0207 73.368 94.9527 73.444 94.8487 73.508C94.5847 73.7 94.2727 73.848 93.9127 73.952C93.5527 74.056 93.1967 74.108 92.8447 74.108Z" fill="#64728C"/>
<rect x="12" y="93" width="284" height="36" rx="10" fill="white"/>
<path d="M24.86 115.12C23.98 115.12 23.224 114.944 22.592 114.592C21.968 114.232 21.488 113.728 21.152 113.08C20.816 112.424 20.648 111.652 20.648 110.764C20.648 110.1 20.744 109.504 20.936 108.976C21.128 108.44 21.404 107.984 21.764 107.608C22.124 107.224 22.564 106.932 23.084 106.732C23.612 106.524 24.204 106.42 24.86 106.42C25.3 106.42 25.732 106.476 26.156 106.588C26.58 106.7 26.952 106.86 27.272 107.068C27.44 107.172 27.552 107.3 27.608 107.452C27.664 107.596 27.676 107.74 27.644 107.884C27.612 108.02 27.544 108.136 27.44 108.232C27.344 108.328 27.22 108.384 27.068 108.4C26.924 108.408 26.764 108.356 26.588 108.244C26.34 108.084 26.072 107.968 25.784 107.896C25.496 107.824 25.204 107.788 24.908 107.788C24.34 107.788 23.86 107.904 23.468 108.136C23.076 108.368 22.78 108.704 22.58 109.144C22.38 109.584 22.28 110.124 22.28 110.764C22.28 111.396 22.38 111.936 22.58 112.384C22.78 112.832 23.076 113.172 23.468 113.404C23.86 113.636 24.34 113.752 24.908 113.752C25.212 113.752 25.512 113.716 25.808 113.644C26.104 113.564 26.384 113.444 26.648 113.284C26.824 113.18 26.98 113.136 27.116 113.152C27.26 113.16 27.38 113.208 27.476 113.296C27.572 113.384 27.636 113.496 27.668 113.632C27.7 113.76 27.692 113.896 27.644 114.04C27.596 114.176 27.5 114.296 27.356 114.4C27.036 114.632 26.652 114.812 26.204 114.94C25.764 115.06 25.316 115.12 24.86 115.12Z" fill="#38455D"/>
<path d="M31.4923 115.108C30.9243 115.108 30.4323 114.984 30.0163 114.736C29.6003 114.488 29.2763 114.14 29.0443 113.692C28.8203 113.236 28.7083 112.7 28.7083 112.084C28.7083 111.62 28.7723 111.204 28.9003 110.836C29.0283 110.46 29.2163 110.14 29.4643 109.876C29.7123 109.612 30.0043 109.412 30.3403 109.276C30.6843 109.132 31.0683 109.06 31.4923 109.06C32.0603 109.06 32.5523 109.184 32.9683 109.432C33.3843 109.68 33.7043 110.032 33.9283 110.488C34.1603 110.936 34.2763 111.468 34.2763 112.084C34.2763 112.548 34.2123 112.964 34.0843 113.332C33.9563 113.7 33.7683 114.02 33.5203 114.292C33.2723 114.556 32.9763 114.76 32.6323 114.904C32.2963 115.04 31.9163 115.108 31.4923 115.108ZM31.4923 114.328C31.8523 114.328 32.1683 114.24 32.4403 114.064C32.7123 113.888 32.9203 113.632 33.0643 113.296C33.2163 112.96 33.2923 112.556 33.2923 112.084C33.2923 111.356 33.1283 110.8 32.8003 110.416C32.4803 110.032 32.0443 109.84 31.4923 109.84C31.1243 109.84 30.8043 109.928 30.5323 110.104C30.2683 110.272 30.0603 110.524 29.9083 110.86C29.7643 111.188 29.6923 111.596 29.6923 112.084C29.6923 112.804 29.8563 113.36 30.1843 113.752C30.5123 114.136 30.9483 114.328 31.4923 114.328ZM36.2162 115.084C36.0562 115.084 35.9362 115.04 35.8562 114.952C35.7762 114.864 35.7362 114.74 35.7362 114.58V109.576C35.7362 109.416 35.7762 109.296 35.8562 109.216C35.9362 109.128 36.0522 109.084 36.2042 109.084C36.3562 109.084 36.4722 109.128 36.5522 109.216C36.6402 109.296 36.6842 109.416 36.6842 109.576V110.608L36.5522 110.464C36.7202 110 36.9922 109.652 37.3682 109.42C37.7522 109.18 38.1922 109.06 38.6882 109.06C39.1522 109.06 39.5362 109.144 39.8402 109.312C40.1522 109.48 40.3842 109.736 40.5362 110.08C40.6882 110.416 40.7642 110.844 40.7642 111.364V114.58C40.7642 114.74 40.7202 114.864 40.6322 114.952C40.5522 115.04 40.4362 115.084 40.2842 115.084C40.1242 115.084 40.0002 115.04 39.9122 114.952C39.8322 114.864 39.7922 114.74 39.7922 114.58V111.424C39.7922 110.88 39.6842 110.484 39.4682 110.236C39.2602 109.98 38.9242 109.852 38.4602 109.852C37.9242 109.852 37.4962 110.02 37.1762 110.356C36.8642 110.684 36.7082 111.124 36.7082 111.676V114.58C36.7082 114.916 36.5442 115.084 36.2162 115.084ZM44.8965 115.108C44.4405 115.108 44.0565 115.028 43.7445 114.868C43.4405 114.7 43.2125 114.46 43.0605 114.148C42.9085 113.828 42.8325 113.44 42.8325 112.984V109.924H42.0285C41.8925 109.924 41.7885 109.892 41.7165 109.828C41.6445 109.756 41.6085 109.66 41.6085 109.54C41.6085 109.42 41.6445 109.328 41.7165 109.264C41.7885 109.2 41.8925 109.168 42.0285 109.168H42.8325V107.788C42.8325 107.628 42.8765 107.508 42.9645 107.428C43.0525 107.34 43.1725 107.296 43.3245 107.296C43.4765 107.296 43.5925 107.34 43.6725 107.428C43.7605 107.508 43.8045 107.628 43.8045 107.788V109.168H45.3165C45.4525 109.168 45.5565 109.2 45.6285 109.264C45.7005 109.328 45.7365 109.42 45.7365 109.54C45.7365 109.66 45.7005 109.756 45.6285 109.828C45.5565 109.892 45.4525 109.924 45.3165 109.924H43.8045V112.888C43.8045 113.344 43.9005 113.692 44.0925 113.932C44.2845 114.164 44.5965 114.28 45.0285 114.28C45.1805 114.28 45.3085 114.264 45.4125 114.232C45.5245 114.2 45.6165 114.184 45.6885 114.184C45.7605 114.176 45.8205 114.2 45.8685 114.256C45.9165 114.312 45.9405 114.408 45.9405 114.544C45.9405 114.64 45.9205 114.728 45.8805 114.808C45.8485 114.888 45.7885 114.944 45.7005 114.976C45.6045 115.008 45.4765 115.036 45.3165 115.06C45.1645 115.092 45.0245 115.108 44.8965 115.108ZM48.5878 115.108C48.1878 115.108 47.8278 115.032 47.5078 114.88C47.1958 114.72 46.9478 114.504 46.7638 114.232C46.5798 113.96 46.4878 113.656 46.4878 113.32C46.4878 112.888 46.5958 112.548 46.8118 112.3C47.0358 112.052 47.3998 111.876 47.9038 111.772C48.4158 111.668 49.1118 111.616 49.9918 111.616H50.5318V112.252H50.0038C49.3558 112.252 48.8438 112.284 48.4678 112.348C48.0998 112.404 47.8398 112.504 47.6878 112.648C47.5438 112.792 47.4718 112.996 47.4718 113.26C47.4718 113.588 47.5838 113.856 47.8078 114.064C48.0398 114.272 48.3518 114.376 48.7438 114.376C49.0638 114.376 49.3438 114.3 49.5838 114.148C49.8318 113.996 50.0238 113.788 50.1598 113.524C50.3038 113.26 50.3758 112.956 50.3758 112.612V111.244C50.3758 110.748 50.2758 110.392 50.0758 110.176C49.8758 109.952 49.5478 109.84 49.0918 109.84C48.8118 109.84 48.5318 109.876 48.2518 109.948C47.9718 110.02 47.6758 110.136 47.3638 110.296C47.2518 110.352 47.1558 110.372 47.0758 110.356C46.9958 110.332 46.9318 110.288 46.8838 110.224C46.8358 110.16 46.8078 110.088 46.7998 110.008C46.7918 109.92 46.8078 109.836 46.8478 109.756C46.8958 109.676 46.9678 109.612 47.0638 109.564C47.4158 109.388 47.7638 109.26 48.1078 109.18C48.4518 109.1 48.7798 109.06 49.0918 109.06C49.5958 109.06 50.0118 109.144 50.3398 109.312C50.6678 109.472 50.9118 109.72 51.0718 110.056C51.2318 110.384 51.3118 110.808 51.3118 111.328V114.58C51.3118 114.74 51.2718 114.864 51.1918 114.952C51.1198 115.04 51.0118 115.084 50.8678 115.084C50.7158 115.084 50.5998 115.04 50.5198 114.952C50.4398 114.864 50.3998 114.74 50.3998 114.58V113.644H50.5078C50.4438 113.948 50.3198 114.208 50.1358 114.424C49.9598 114.64 49.7398 114.808 49.4758 114.928C49.2118 115.048 48.9158 115.108 48.5878 115.108ZM55.5871 115.108C55.0031 115.108 54.4991 114.98 54.0751 114.724C53.6511 114.468 53.3231 114.112 53.0911 113.656C52.8671 113.192 52.7551 112.656 52.7551 112.048C52.7551 111.584 52.8191 111.168 52.9471 110.8C53.0751 110.432 53.2631 110.12 53.5111 109.864C53.7591 109.6 54.0551 109.4 54.3991 109.264C54.7511 109.128 55.1471 109.06 55.5871 109.06C55.8751 109.06 56.1751 109.104 56.4871 109.192C56.7991 109.28 57.0831 109.432 57.3391 109.648C57.4191 109.704 57.4711 109.772 57.4951 109.852C57.5191 109.932 57.5191 110.012 57.4951 110.092C57.4711 110.164 57.4311 110.228 57.3751 110.284C57.3191 110.332 57.2471 110.36 57.1591 110.368C57.0791 110.376 56.9951 110.348 56.9071 110.284C56.6991 110.124 56.4871 110.012 56.2711 109.948C56.0551 109.884 55.8471 109.852 55.6471 109.852C55.3351 109.852 55.0631 109.904 54.8311 110.008C54.5991 110.104 54.4031 110.244 54.2431 110.428C54.0831 110.612 53.9591 110.84 53.8711 111.112C53.7911 111.384 53.7511 111.7 53.7511 112.06C53.7511 112.756 53.9151 113.308 54.2431 113.716C54.5711 114.116 55.0391 114.316 55.6471 114.316C55.8471 114.316 56.0511 114.284 56.2591 114.22C56.4751 114.156 56.6911 114.044 56.9071 113.884C56.9951 113.82 57.0791 113.792 57.1591 113.8C57.2391 113.808 57.3071 113.84 57.3631 113.896C57.4191 113.944 57.4551 114.008 57.4711 114.088C57.4951 114.168 57.4951 114.248 57.4711 114.328C57.4471 114.4 57.3951 114.464 57.3151 114.52C57.0591 114.728 56.7791 114.88 56.4751 114.976C56.1711 115.064 55.8751 115.108 55.5871 115.108ZM61.0098 115.108C60.5538 115.108 60.1698 115.028 59.8578 114.868C59.5538 114.7 59.3258 114.46 59.1738 114.148C59.0218 113.828 58.9458 113.44 58.9458 112.984V109.924H58.1418C58.0058 109.924 57.9018 109.892 57.8298 109.828C57.7578 109.756 57.7218 109.66 57.7218 109.54C57.7218 109.42 57.7578 109.328 57.8298 109.264C57.9018 109.2 58.0058 109.168 58.1418 109.168H58.9458V107.788C58.9458 107.628 58.9898 107.508 59.0778 107.428C59.1658 107.34 59.2858 107.296 59.4378 107.296C59.5898 107.296 59.7058 107.34 59.7858 107.428C59.8738 107.508 59.9178 107.628 59.9178 107.788V109.168H61.4298C61.5658 109.168 61.6698 109.2 61.7418 109.264C61.8138 109.328 61.8498 109.42 61.8498 109.54C61.8498 109.66 61.8138 109.756 61.7418 109.828C61.6698 109.892 61.5658 109.924 61.4298 109.924H59.9178V112.888C59.9178 113.344 60.0138 113.692 60.2058 113.932C60.3978 114.164 60.7098 114.28 61.1418 114.28C61.2938 114.28 61.4218 114.264 61.5258 114.232C61.6378 114.2 61.7298 114.184 61.8018 114.184C61.8738 114.176 61.9338 114.2 61.9818 114.256C62.0298 114.312 62.0538 114.408 62.0538 114.544C62.0538 114.64 62.0338 114.728 61.9938 114.808C61.9618 114.888 61.9018 114.944 61.8138 114.976C61.7178 115.008 61.5898 115.036 61.4298 115.06C61.2778 115.092 61.1378 115.108 61.0098 115.108ZM66.5829 115.084C66.4229 115.084 66.2989 115.04 66.2109 114.952C66.1309 114.856 66.0909 114.728 66.0909 114.568V106.972C66.0909 106.804 66.1309 106.676 66.2109 106.588C66.2989 106.5 66.4229 106.456 66.5829 106.456C66.7429 106.456 66.8629 106.5 66.9429 106.588C67.0309 106.676 67.0749 106.804 67.0749 106.972V114.568C67.0749 114.728 67.0349 114.856 66.9549 114.952C66.8749 115.04 66.7509 115.084 66.5829 115.084ZM69.5209 115.084C69.3609 115.084 69.2409 115.04 69.1609 114.952C69.0809 114.864 69.0409 114.74 69.0409 114.58V109.576C69.0409 109.416 69.0809 109.296 69.1609 109.216C69.2409 109.128 69.3569 109.084 69.5089 109.084C69.6609 109.084 69.7769 109.128 69.8569 109.216C69.9449 109.296 69.9889 109.416 69.9889 109.576V110.608L69.8569 110.464C70.0249 110 70.2969 109.652 70.6729 109.42C71.0569 109.18 71.4969 109.06 71.9929 109.06C72.4569 109.06 72.8409 109.144 73.1449 109.312C73.4569 109.48 73.6889 109.736 73.8409 110.08C73.9929 110.416 74.0689 110.844 74.0689 111.364V114.58C74.0689 114.74 74.0249 114.864 73.9369 114.952C73.8569 115.04 73.7409 115.084 73.5889 115.084C73.4289 115.084 73.3049 115.04 73.2169 114.952C73.1369 114.864 73.0969 114.74 73.0969 114.58V111.424C73.0969 110.88 72.9889 110.484 72.7729 110.236C72.5649 109.98 72.2289 109.852 71.7649 109.852C71.2289 109.852 70.8009 110.02 70.4809 110.356C70.1689 110.684 70.0129 111.124 70.0129 111.676V114.58C70.0129 114.916 69.8489 115.084 69.5209 115.084ZM76.6532 115.084C76.5012 115.084 76.3812 115.04 76.2932 114.952C76.2132 114.864 76.1732 114.74 76.1732 114.58V109.924H75.4052C75.2772 109.924 75.1732 109.892 75.0932 109.828C75.0212 109.756 74.9852 109.66 74.9852 109.54C74.9852 109.42 75.0212 109.328 75.0932 109.264C75.1732 109.2 75.2772 109.168 75.4052 109.168H76.4372L76.1732 109.42V108.964C76.1732 108.204 76.3572 107.624 76.7252 107.224C77.1012 106.824 77.6492 106.592 78.3692 106.528L78.7172 106.492C78.8292 106.484 78.9172 106.504 78.9812 106.552C79.0532 106.6 79.0972 106.66 79.1132 106.732C79.1372 106.804 79.1412 106.88 79.1252 106.96C79.1092 107.032 79.0732 107.096 79.0172 107.152C78.9612 107.208 78.8932 107.24 78.8132 107.248L78.5372 107.272C78.0492 107.312 77.6932 107.46 77.4692 107.716C77.2532 107.972 77.1452 108.348 77.1452 108.844V109.348L77.0012 109.168H78.4412C78.5772 109.168 78.6812 109.2 78.7532 109.264C78.8252 109.328 78.8612 109.42 78.8612 109.54C78.8612 109.66 78.8252 109.756 78.7532 109.828C78.6812 109.892 78.5772 109.924 78.4412 109.924H77.1452V114.58C77.1452 114.916 76.9812 115.084 76.6532 115.084ZM82.1173 115.108C81.5493 115.108 81.0573 114.984 80.6413 114.736C80.2253 114.488 79.9013 114.14 79.6693 113.692C79.4453 113.236 79.3333 112.7 79.3333 112.084C79.3333 111.62 79.3973 111.204 79.5253 110.836C79.6533 110.46 79.8413 110.14 80.0893 109.876C80.3373 109.612 80.6293 109.412 80.9653 109.276C81.3093 109.132 81.6933 109.06 82.1173 109.06C82.6853 109.06 83.1773 109.184 83.5933 109.432C84.0093 109.68 84.3293 110.032 84.5533 110.488C84.7853 110.936 84.9013 111.468 84.9013 112.084C84.9013 112.548 84.8373 112.964 84.7093 113.332C84.5813 113.7 84.3933 114.02 84.1453 114.292C83.8973 114.556 83.6013 114.76 83.2573 114.904C82.9213 115.04 82.5413 115.108 82.1173 115.108ZM82.1173 114.328C82.4773 114.328 82.7933 114.24 83.0653 114.064C83.3373 113.888 83.5453 113.632 83.6893 113.296C83.8413 112.96 83.9173 112.556 83.9173 112.084C83.9173 111.356 83.7533 110.8 83.4253 110.416C83.1053 110.032 82.6693 109.84 82.1173 109.84C81.7493 109.84 81.4293 109.928 81.1573 110.104C80.8933 110.272 80.6853 110.524 80.5333 110.86C80.3893 111.188 80.3173 111.596 80.3173 112.084C80.3173 112.804 80.4813 113.36 80.8093 113.752C81.1373 114.136 81.5733 114.328 82.1173 114.328Z" fill="#64728C"/>
<rect x="12" y="134" width="284" height="36" rx="10" fill="white"/>
<path d="M24.86 156.12C23.98 156.12 23.224 155.944 22.592 155.592C21.968 155.232 21.488 154.728 21.152 154.08C20.816 153.424 20.648 152.652 20.648 151.764C20.648 151.1 20.744 150.504 20.936 149.976C21.128 149.44 21.404 148.984 21.764 148.608C22.124 148.224 22.564 147.932 23.084 147.732C23.612 147.524 24.204 147.42 24.86 147.42C25.3 147.42 25.732 147.476 26.156 147.588C26.58 147.7 26.952 147.86 27.272 148.068C27.44 148.172 27.552 148.3 27.608 148.452C27.664 148.596 27.676 148.74 27.644 148.884C27.612 149.02 27.544 149.136 27.44 149.232C27.344 149.328 27.22 149.384 27.068 149.4C26.924 149.408 26.764 149.356 26.588 149.244C26.34 149.084 26.072 148.968 25.784 148.896C25.496 148.824 25.204 148.788 24.908 148.788C24.34 148.788 23.86 148.904 23.468 149.136C23.076 149.368 22.78 149.704 22.58 150.144C22.38 150.584 22.28 151.124 22.28 151.764C22.28 152.396 22.38 152.936 22.58 153.384C22.78 153.832 23.076 154.172 23.468 154.404C23.86 154.636 24.34 154.752 24.908 154.752C25.212 154.752 25.512 154.716 25.808 154.644C26.104 154.564 26.384 154.444 26.648 154.284C26.824 154.18 26.98 154.136 27.116 154.152C27.26 154.16 27.38 154.208 27.476 154.296C27.572 154.384 27.636 154.496 27.668 154.632C27.7 154.76 27.692 154.896 27.644 155.04C27.596 155.176 27.5 155.296 27.356 155.4C27.036 155.632 26.652 155.812 26.204 155.94C25.764 156.06 25.316 156.12 24.86 156.12Z" fill="#38455D"/>
<path d="M31.4923 156.108C30.9243 156.108 30.4323 155.984 30.0163 155.736C29.6003 155.488 29.2763 155.14 29.0443 154.692C28.8203 154.236 28.7083 153.7 28.7083 153.084C28.7083 152.62 28.7723 152.204 28.9003 151.836C29.0283 151.46 29.2163 151.14 29.4643 150.876C29.7123 150.612 30.0043 150.412 30.3403 150.276C30.6843 150.132 31.0683 150.06 31.4923 150.06C32.0603 150.06 32.5523 150.184 32.9683 150.432C33.3843 150.68 33.7043 151.032 33.9283 151.488C34.1603 151.936 34.2763 152.468 34.2763 153.084C34.2763 153.548 34.2123 153.964 34.0843 154.332C33.9563 154.7 33.7683 155.02 33.5203 155.292C33.2723 155.556 32.9763 155.76 32.6323 155.904C32.2963 156.04 31.9163 156.108 31.4923 156.108ZM31.4923 155.328C31.8523 155.328 32.1683 155.24 32.4403 155.064C32.7123 154.888 32.9203 154.632 33.0643 154.296C33.2163 153.96 33.2923 153.556 33.2923 153.084C33.2923 152.356 33.1283 151.8 32.8003 151.416C32.4803 151.032 32.0443 150.84 31.4923 150.84C31.1243 150.84 30.8043 150.928 30.5323 151.104C30.2683 151.272 30.0603 151.524 29.9083 151.86C29.7643 152.188 29.6923 152.596 29.6923 153.084C29.6923 153.804 29.8563 154.36 30.1843 154.752C30.5123 155.136 30.9483 155.328 31.4923 155.328ZM36.2162 156.084C36.0562 156.084 35.9362 156.04 35.8562 155.952C35.7762 155.864 35.7362 155.74 35.7362 155.58V150.576C35.7362 150.416 35.7762 150.296 35.8562 150.216C35.9362 150.128 36.0522 150.084 36.2042 150.084C36.3562 150.084 36.4722 150.128 36.5522 150.216C36.6402 150.296 36.6842 150.416 36.6842 150.576V151.608L36.5522 151.464C36.7202 151 36.9922 150.652 37.3682 150.42C37.7522 150.18 38.1922 150.06 38.6882 150.06C39.1522 150.06 39.5362 150.144 39.8402 150.312C40.1522 150.48 40.3842 150.736 40.5362 151.08C40.6882 151.416 40.7642 151.844 40.7642 152.364V155.58C40.7642 155.74 40.7202 155.864 40.6322 155.952C40.5522 156.04 40.4362 156.084 40.2842 156.084C40.1242 156.084 40.0002 156.04 39.9122 155.952C39.8322 155.864 39.7922 155.74 39.7922 155.58V152.424C39.7922 151.88 39.6842 151.484 39.4682 151.236C39.2602 150.98 38.9242 150.852 38.4602 150.852C37.9242 150.852 37.4962 151.02 37.1762 151.356C36.8642 151.684 36.7082 152.124 36.7082 152.676V155.58C36.7082 155.916 36.5442 156.084 36.2162 156.084ZM44.8965 156.108C44.4405 156.108 44.0565 156.028 43.7445 155.868C43.4405 155.7 43.2125 155.46 43.0605 155.148C42.9085 154.828 42.8325 154.44 42.8325 153.984V150.924H42.0285C41.8925 150.924 41.7885 150.892 41.7165 150.828C41.6445 150.756 41.6085 150.66 41.6085 150.54C41.6085 150.42 41.6445 150.328 41.7165 150.264C41.7885 150.2 41.8925 150.168 42.0285 150.168H42.8325V148.788C42.8325 148.628 42.8765 148.508 42.9645 148.428C43.0525 148.34 43.1725 148.296 43.3245 148.296C43.4765 148.296 43.5925 148.34 43.6725 148.428C43.7605 148.508 43.8045 148.628 43.8045 148.788V150.168H45.3165C45.4525 150.168 45.5565 150.2 45.6285 150.264C45.7005 150.328 45.7365 150.42 45.7365 150.54C45.7365 150.66 45.7005 150.756 45.6285 150.828C45.5565 150.892 45.4525 150.924 45.3165 150.924H43.8045V153.888C43.8045 154.344 43.9005 154.692 44.0925 154.932C44.2845 155.164 44.5965 155.28 45.0285 155.28C45.1805 155.28 45.3085 155.264 45.4125 155.232C45.5245 155.2 45.6165 155.184 45.6885 155.184C45.7605 155.176 45.8205 155.2 45.8685 155.256C45.9165 155.312 45.9405 155.408 45.9405 155.544C45.9405 155.64 45.9205 155.728 45.8805 155.808C45.8485 155.888 45.7885 155.944 45.7005 155.976C45.6045 156.008 45.4765 156.036 45.3165 156.06C45.1645 156.092 45.0245 156.108 44.8965 156.108ZM48.5878 156.108C48.1878 156.108 47.8278 156.032 47.5078 155.88C47.1958 155.72 46.9478 155.504 46.7638 155.232C46.5798 154.96 46.4878 154.656 46.4878 154.32C46.4878 153.888 46.5958 153.548 46.8118 153.3C47.0358 153.052 47.3998 152.876 47.9038 152.772C48.4158 152.668 49.1118 152.616 49.9918 152.616H50.5318V153.252H50.0038C49.3558 153.252 48.8438 153.284 48.4678 153.348C48.0998 153.404 47.8398 153.504 47.6878 153.648C47.5438 153.792 47.4718 153.996 47.4718 154.26C47.4718 154.588 47.5838 154.856 47.8078 155.064C48.0398 155.272 48.3518 155.376 48.7438 155.376C49.0638 155.376 49.3438 155.3 49.5838 155.148C49.8318 154.996 50.0238 154.788 50.1598 154.524C50.3038 154.26 50.3758 153.956 50.3758 153.612V152.244C50.3758 151.748 50.2758 151.392 50.0758 151.176C49.8758 150.952 49.5478 150.84 49.0918 150.84C48.8118 150.84 48.5318 150.876 48.2518 150.948C47.9718 151.02 47.6758 151.136 47.3638 151.296C47.2518 151.352 47.1558 151.372 47.0758 151.356C46.9958 151.332 46.9318 151.288 46.8838 151.224C46.8358 151.16 46.8078 151.088 46.7998 151.008C46.7918 150.92 46.8078 150.836 46.8478 150.756C46.8958 150.676 46.9678 150.612 47.0638 150.564C47.4158 150.388 47.7638 150.26 48.1078 150.18C48.4518 150.1 48.7798 150.06 49.0918 150.06C49.5958 150.06 50.0118 150.144 50.3398 150.312C50.6678 150.472 50.9118 150.72 51.0718 151.056C51.2318 151.384 51.3118 151.808 51.3118 152.328V155.58C51.3118 155.74 51.2718 155.864 51.1918 155.952C51.1198 156.04 51.0118 156.084 50.8678 156.084C50.7158 156.084 50.5998 156.04 50.5198 155.952C50.4398 155.864 50.3998 155.74 50.3998 155.58V154.644H50.5078C50.4438 154.948 50.3198 155.208 50.1358 155.424C49.9598 155.64 49.7398 155.808 49.4758 155.928C49.2118 156.048 48.9158 156.108 48.5878 156.108ZM55.5871 156.108C55.0031 156.108 54.4991 155.98 54.0751 155.724C53.6511 155.468 53.3231 155.112 53.0911 154.656C52.8671 154.192 52.7551 153.656 52.7551 153.048C52.7551 152.584 52.8191 152.168 52.9471 151.8C53.0751 151.432 53.2631 151.12 53.5111 150.864C53.7591 150.6 54.0551 150.4 54.3991 150.264C54.7511 150.128 55.1471 150.06 55.5871 150.06C55.8751 150.06 56.1751 150.104 56.4871 150.192C56.7991 150.28 57.0831 150.432 57.3391 150.648C57.4191 150.704 57.4711 150.772 57.4951 150.852C57.5191 150.932 57.5191 151.012 57.4951 151.092C57.4711 151.164 57.4311 151.228 57.3751 151.284C57.3191 151.332 57.2471 151.36 57.1591 151.368C57.0791 151.376 56.9951 151.348 56.9071 151.284C56.6991 151.124 56.4871 151.012 56.2711 150.948C56.0551 150.884 55.8471 150.852 55.6471 150.852C55.3351 150.852 55.0631 150.904 54.8311 151.008C54.5991 151.104 54.4031 151.244 54.2431 151.428C54.0831 151.612 53.9591 151.84 53.8711 152.112C53.7911 152.384 53.7511 152.7 53.7511 153.06C53.7511 153.756 53.9151 154.308 54.2431 154.716C54.5711 155.116 55.0391 155.316 55.6471 155.316C55.8471 155.316 56.0511 155.284 56.2591 155.22C56.4751 155.156 56.6911 155.044 56.9071 154.884C56.9951 154.82 57.0791 154.792 57.1591 154.8C57.2391 154.808 57.3071 154.84 57.3631 154.896C57.4191 154.944 57.4551 155.008 57.4711 155.088C57.4951 155.168 57.4951 155.248 57.4711 155.328C57.4471 155.4 57.3951 155.464 57.3151 155.52C57.0591 155.728 56.7791 155.88 56.4751 155.976C56.1711 156.064 55.8751 156.108 55.5871 156.108ZM61.0098 156.108C60.5538 156.108 60.1698 156.028 59.8578 155.868C59.5538 155.7 59.3258 155.46 59.1738 155.148C59.0218 154.828 58.9458 154.44 58.9458 153.984V150.924H58.1418C58.0058 150.924 57.9018 150.892 57.8298 150.828C57.7578 150.756 57.7218 150.66 57.7218 150.54C57.7218 150.42 57.7578 150.328 57.8298 150.264C57.9018 150.2 58.0058 150.168 58.1418 150.168H58.9458V148.788C58.9458 148.628 58.9898 148.508 59.0778 148.428C59.1658 148.34 59.2858 148.296 59.4378 148.296C59.5898 148.296 59.7058 148.34 59.7858 148.428C59.8738 148.508 59.9178 148.628 59.9178 148.788V150.168H61.4298C61.5658 150.168 61.6698 150.2 61.7418 150.264C61.8138 150.328 61.8498 150.42 61.8498 150.54C61.8498 150.66 61.8138 150.756 61.7418 150.828C61.6698 150.892 61.5658 150.924 61.4298 150.924H59.9178V153.888C59.9178 154.344 60.0138 154.692 60.2058 154.932C60.3978 155.164 60.7098 155.28 61.1418 155.28C61.2938 155.28 61.4218 155.264 61.5258 155.232C61.6378 155.2 61.7298 155.184 61.8018 155.184C61.8738 155.176 61.9338 155.2 61.9818 155.256C62.0298 155.312 62.0538 155.408 62.0538 155.544C62.0538 155.64 62.0338 155.728 61.9938 155.808C61.9618 155.888 61.9018 155.944 61.8138 155.976C61.7178 156.008 61.5898 156.036 61.4298 156.06C61.2778 156.092 61.1378 156.108 61.0098 156.108ZM66.5589 156.084C66.4069 156.084 66.2909 156.044 66.2109 155.964C66.1309 155.876 66.0909 155.752 66.0909 155.592V147.96C66.0909 147.8 66.1309 147.676 66.2109 147.588C66.2909 147.5 66.3949 147.456 66.5229 147.456C66.6509 147.456 66.7429 147.48 66.7989 147.528C66.8629 147.568 66.9349 147.644 67.0149 147.756L72.2469 154.728H71.9589V147.936C71.9589 147.784 71.9989 147.668 72.0789 147.588C72.1589 147.5 72.2749 147.456 72.4269 147.456C72.5709 147.456 72.6789 147.5 72.7509 147.588C72.8309 147.668 72.8709 147.784 72.8709 147.936V155.604C72.8709 155.756 72.8349 155.876 72.7629 155.964C72.6989 156.044 72.6029 156.084 72.4749 156.084C72.3549 156.084 72.2589 156.06 72.1869 156.012C72.1149 155.964 72.0389 155.888 71.9589 155.784L66.7389 148.812H67.0149V155.592C67.0149 155.752 66.9749 155.876 66.8949 155.964C66.8149 156.044 66.7029 156.084 66.5589 156.084ZM76.9057 156.108C76.4337 156.108 76.0417 156.024 75.7297 155.856C75.4257 155.68 75.1937 155.42 75.0337 155.076C74.8817 154.732 74.8057 154.304 74.8057 153.792V150.576C74.8057 150.408 74.8457 150.284 74.9257 150.204C75.0137 150.124 75.1337 150.084 75.2857 150.084C75.4457 150.084 75.5657 150.124 75.6457 150.204C75.7337 150.284 75.7777 150.408 75.7777 150.576V153.78C75.7777 154.292 75.8817 154.676 76.0897 154.932C76.3057 155.18 76.6417 155.304 77.0977 155.304C77.5937 155.304 77.9977 155.136 78.3097 154.8C78.6217 154.464 78.7777 154.024 78.7777 153.48V150.576C78.7777 150.408 78.8177 150.284 78.8977 150.204C78.9857 150.124 79.1097 150.084 79.2697 150.084C79.4217 150.084 79.5377 150.124 79.6177 150.204C79.7057 150.284 79.7497 150.408 79.7497 150.576V155.58C79.7497 155.916 79.5937 156.084 79.2817 156.084C79.1297 156.084 79.0097 156.04 78.9217 155.952C78.8417 155.864 78.8017 155.74 78.8017 155.58V154.488L78.9577 154.656C78.7977 155.128 78.5337 155.488 78.1657 155.736C77.8057 155.984 77.3857 156.108 76.9057 156.108ZM82.0723 156.084C81.9123 156.084 81.7923 156.04 81.7123 155.952C81.6323 155.864 81.5923 155.74 81.5923 155.58V150.576C81.5923 150.416 81.6323 150.296 81.7123 150.216C81.7923 150.128 81.9083 150.084 82.0603 150.084C82.2123 150.084 82.3283 150.128 82.4083 150.216C82.4963 150.296 82.5403 150.416 82.5403 150.576V151.632L82.4083 151.464C82.5603 151.016 82.8043 150.672 83.1403 150.432C83.4843 150.184 83.8923 150.06 84.3643 150.06C84.8603 150.06 85.2603 150.18 85.5643 150.42C85.8763 150.652 86.0843 151.016 86.1883 151.512H86.0083C86.1523 151.064 86.4083 150.712 86.7763 150.456C87.1523 150.192 87.5883 150.06 88.0843 150.06C88.5243 150.06 88.8843 150.144 89.1643 150.312C89.4523 150.48 89.6683 150.736 89.8123 151.08C89.9563 151.416 90.0283 151.844 90.0283 152.364V155.58C90.0283 155.74 89.9843 155.864 89.8963 155.952C89.8163 156.04 89.6963 156.084 89.5363 156.084C89.3843 156.084 89.2643 156.04 89.1763 155.952C89.0963 155.864 89.0563 155.74 89.0563 155.58V152.412C89.0563 151.876 88.9643 151.484 88.7803 151.236C88.5963 150.98 88.2843 150.852 87.8443 150.852C87.3643 150.852 86.9843 151.02 86.7043 151.356C86.4323 151.684 86.2963 152.132 86.2963 152.7V155.58C86.2963 155.74 86.2523 155.864 86.1643 155.952C86.0843 156.04 85.9643 156.084 85.8043 156.084C85.6523 156.084 85.5323 156.04 85.4443 155.952C85.3643 155.864 85.3243 155.74 85.3243 155.58V152.412C85.3243 151.876 85.2283 151.484 85.0363 151.236C84.8523 150.98 84.5443 150.852 84.1123 150.852C83.6323 150.852 83.2523 151.02 82.9723 151.356C82.7003 151.684 82.5643 152.132 82.5643 152.7V155.58C82.5643 155.916 82.4003 156.084 82.0723 156.084ZM94.7976 156.108C94.2696 156.108 93.8136 155.972 93.4296 155.7C93.0536 155.428 92.8016 155.064 92.6736 154.608L92.8056 154.476V155.58C92.8056 155.74 92.7616 155.864 92.6736 155.952C92.5936 156.04 92.4776 156.084 92.3256 156.084C92.1656 156.084 92.0456 156.04 91.9656 155.952C91.8856 155.864 91.8456 155.74 91.8456 155.58V147.948C91.8456 147.788 91.8856 147.668 91.9656 147.588C92.0456 147.5 92.1656 147.456 92.3256 147.456C92.4776 147.456 92.5976 147.5 92.6856 147.588C92.7736 147.668 92.8176 147.788 92.8176 147.948V151.524H92.6736C92.8096 151.076 93.0656 150.72 93.4416 150.456C93.8176 150.192 94.2696 150.06 94.7976 150.06C95.3256 150.06 95.7816 150.184 96.1656 150.432C96.5496 150.672 96.8456 151.02 97.0536 151.476C97.2696 151.924 97.3776 152.46 97.3776 153.084C97.3776 153.7 97.2696 154.236 97.0536 154.692C96.8456 155.14 96.5456 155.488 96.1536 155.736C95.7696 155.984 95.3176 156.108 94.7976 156.108ZM94.5936 155.328C94.9616 155.328 95.2776 155.24 95.5416 155.064C95.8136 154.888 96.0216 154.632 96.1656 154.296C96.3176 153.96 96.3936 153.556 96.3936 153.084C96.3936 152.356 96.2296 151.8 95.9016 151.416C95.5816 151.032 95.1456 150.84 94.5936 150.84C94.2336 150.84 93.9176 150.928 93.6456 151.104C93.3736 151.272 93.1616 151.524 93.0096 151.86C92.8656 152.188 92.7936 152.596 92.7936 153.084C92.7936 153.804 92.9576 154.36 93.2856 154.752C93.6136 155.136 94.0496 155.328 94.5936 155.328ZM101.47 156.108C100.854 156.108 100.322 155.988 99.8737 155.748C99.4337 155.5 99.0897 155.152 98.8417 154.704C98.6017 154.256 98.4817 153.72 98.4817 153.096C98.4817 152.488 98.6017 151.96 98.8417 151.512C99.0817 151.056 99.4097 150.7 99.8257 150.444C100.25 150.188 100.738 150.06 101.29 150.06C101.682 150.06 102.034 150.128 102.346 150.264C102.658 150.392 102.922 150.58 103.138 150.828C103.362 151.076 103.53 151.376 103.642 151.728C103.762 152.08 103.822 152.476 103.822 152.916C103.822 153.044 103.786 153.14 103.714 153.204C103.642 153.26 103.538 153.288 103.402 153.288H99.2257V152.652H103.174L102.982 152.808C102.982 152.376 102.918 152.012 102.79 151.716C102.662 151.412 102.474 151.18 102.226 151.02C101.986 150.86 101.682 150.78 101.314 150.78C100.906 150.78 100.558 150.876 100.27 151.068C99.9897 151.252 99.7777 151.512 99.6337 151.848C99.4897 152.176 99.4177 152.56 99.4177 153V153.072C99.4177 153.808 99.5937 154.368 99.9457 154.752C100.306 155.136 100.814 155.328 101.47 155.328C101.742 155.328 102.01 155.292 102.274 155.22C102.546 155.148 102.81 155.028 103.066 154.86C103.178 154.788 103.278 154.756 103.366 154.764C103.462 154.764 103.538 154.792 103.594 154.848C103.65 154.896 103.686 154.96 103.702 155.04C103.726 155.112 103.718 155.192 103.678 155.28C103.646 155.368 103.578 155.444 103.474 155.508C103.21 155.7 102.898 155.848 102.538 155.952C102.178 156.056 101.822 156.108 101.47 156.108ZM105.72 156.084C105.56 156.084 105.436 156.04 105.348 155.952C105.268 155.864 105.228 155.74 105.228 155.58V150.576C105.228 150.416 105.268 150.296 105.348 150.216C105.428 150.128 105.544 150.084 105.696 150.084C105.848 150.084 105.964 150.128 106.044 150.216C106.132 150.296 106.176 150.416 106.176 150.576V151.548H106.056C106.184 151.076 106.428 150.712 106.788 150.456C107.148 150.2 107.592 150.064 108.12 150.048C108.24 150.04 108.336 150.068 108.408 150.132C108.48 150.188 108.52 150.288 108.528 150.432C108.536 150.568 108.504 150.676 108.432 150.756C108.36 150.836 108.248 150.884 108.096 150.9L107.904 150.924C107.36 150.972 106.94 151.148 106.644 151.452C106.356 151.748 106.212 152.156 106.212 152.676V155.58C106.212 155.74 106.168 155.864 106.08 155.952C106 156.04 105.88 156.084 105.72 156.084Z" fill="#64728C"/>
<rect x="12" y="175" width="284" height="36" rx="10" fill="white"/>
<path d="M24.86 197.12C23.98 197.12 23.224 196.944 22.592 196.592C21.968 196.232 21.488 195.728 21.152 195.08C20.816 194.424 20.648 193.652 20.648 192.764C20.648 192.1 20.744 191.504 20.936 190.976C21.128 190.44 21.404 189.984 21.764 189.608C22.124 189.224 22.564 188.932 23.084 188.732C23.612 188.524 24.204 188.42 24.86 188.42C25.3 188.42 25.732 188.476 26.156 188.588C26.58 188.7 26.952 188.86 27.272 189.068C27.44 189.172 27.552 189.3 27.608 189.452C27.664 189.596 27.676 189.74 27.644 189.884C27.612 190.02 27.544 190.136 27.44 190.232C27.344 190.328 27.22 190.384 27.068 190.4C26.924 190.408 26.764 190.356 26.588 190.244C26.34 190.084 26.072 189.968 25.784 189.896C25.496 189.824 25.204 189.788 24.908 189.788C24.34 189.788 23.86 189.904 23.468 190.136C23.076 190.368 22.78 190.704 22.58 191.144C22.38 191.584 22.28 192.124 22.28 192.764C22.28 193.396 22.38 193.936 22.58 194.384C22.78 194.832 23.076 195.172 23.468 195.404C23.86 195.636 24.34 195.752 24.908 195.752C25.212 195.752 25.512 195.716 25.808 195.644C26.104 195.564 26.384 195.444 26.648 195.284C26.824 195.18 26.98 195.136 27.116 195.152C27.26 195.16 27.38 195.208 27.476 195.296C27.572 195.384 27.636 195.496 27.668 195.632C27.7 195.76 27.692 195.896 27.644 196.04C27.596 196.176 27.5 196.296 27.356 196.4C27.036 196.632 26.652 196.812 26.204 196.94C25.764 197.06 25.316 197.12 24.86 197.12Z" fill="#38455D"/>
<path d="M31.4923 197.108C30.9243 197.108 30.4323 196.984 30.0163 196.736C29.6003 196.488 29.2763 196.14 29.0443 195.692C28.8203 195.236 28.7083 194.7 28.7083 194.084C28.7083 193.62 28.7723 193.204 28.9003 192.836C29.0283 192.46 29.2163 192.14 29.4643 191.876C29.7123 191.612 30.0043 191.412 30.3403 191.276C30.6843 191.132 31.0683 191.06 31.4923 191.06C32.0603 191.06 32.5523 191.184 32.9683 191.432C33.3843 191.68 33.7043 192.032 33.9283 192.488C34.1603 192.936 34.2763 193.468 34.2763 194.084C34.2763 194.548 34.2123 194.964 34.0843 195.332C33.9563 195.7 33.7683 196.02 33.5203 196.292C33.2723 196.556 32.9763 196.76 32.6323 196.904C32.2963 197.04 31.9163 197.108 31.4923 197.108ZM31.4923 196.328C31.8523 196.328 32.1683 196.24 32.4403 196.064C32.7123 195.888 32.9203 195.632 33.0643 195.296C33.2163 194.96 33.2923 194.556 33.2923 194.084C33.2923 193.356 33.1283 192.8 32.8003 192.416C32.4803 192.032 32.0443 191.84 31.4923 191.84C31.1243 191.84 30.8043 191.928 30.5323 192.104C30.2683 192.272 30.0603 192.524 29.9083 192.86C29.7643 193.188 29.6923 193.596 29.6923 194.084C29.6923 194.804 29.8563 195.36 30.1843 195.752C30.5123 196.136 30.9483 196.328 31.4923 196.328ZM36.2162 197.084C36.0562 197.084 35.9362 197.04 35.8562 196.952C35.7762 196.864 35.7362 196.74 35.7362 196.58V191.576C35.7362 191.416 35.7762 191.296 35.8562 191.216C35.9362 191.128 36.0522 191.084 36.2042 191.084C36.3562 191.084 36.4722 191.128 36.5522 191.216C36.6402 191.296 36.6842 191.416 36.6842 191.576V192.608L36.5522 192.464C36.7202 192 36.9922 191.652 37.3682 191.42C37.7522 191.18 38.1922 191.06 38.6882 191.06C39.1522 191.06 39.5362 191.144 39.8402 191.312C40.1522 191.48 40.3842 191.736 40.5362 192.08C40.6882 192.416 40.7642 192.844 40.7642 193.364V196.58C40.7642 196.74 40.7202 196.864 40.6322 196.952C40.5522 197.04 40.4362 197.084 40.2842 197.084C40.1242 197.084 40.0002 197.04 39.9122 196.952C39.8322 196.864 39.7922 196.74 39.7922 196.58V193.424C39.7922 192.88 39.6842 192.484 39.4682 192.236C39.2602 191.98 38.9242 191.852 38.4602 191.852C37.9242 191.852 37.4962 192.02 37.1762 192.356C36.8642 192.684 36.7082 193.124 36.7082 193.676V196.58C36.7082 196.916 36.5442 197.084 36.2162 197.084ZM44.8965 197.108C44.4405 197.108 44.0565 197.028 43.7445 196.868C43.4405 196.7 43.2125 196.46 43.0605 196.148C42.9085 195.828 42.8325 195.44 42.8325 194.984V191.924H42.0285C41.8925 191.924 41.7885 191.892 41.7165 191.828C41.6445 191.756 41.6085 191.66 41.6085 191.54C41.6085 191.42 41.6445 191.328 41.7165 191.264C41.7885 191.2 41.8925 191.168 42.0285 191.168H42.8325V189.788C42.8325 189.628 42.8765 189.508 42.9645 189.428C43.0525 189.34 43.1725 189.296 43.3245 189.296C43.4765 189.296 43.5925 189.34 43.6725 189.428C43.7605 189.508 43.8045 189.628 43.8045 189.788V191.168H45.3165C45.4525 191.168 45.5565 191.2 45.6285 191.264C45.7005 191.328 45.7365 191.42 45.7365 191.54C45.7365 191.66 45.7005 191.756 45.6285 191.828C45.5565 191.892 45.4525 191.924 45.3165 191.924H43.8045V194.888C43.8045 195.344 43.9005 195.692 44.0925 195.932C44.2845 196.164 44.5965 196.28 45.0285 196.28C45.1805 196.28 45.3085 196.264 45.4125 196.232C45.5245 196.2 45.6165 196.184 45.6885 196.184C45.7605 196.176 45.8205 196.2 45.8685 196.256C45.9165 196.312 45.9405 196.408 45.9405 196.544C45.9405 196.64 45.9205 196.728 45.8805 196.808C45.8485 196.888 45.7885 196.944 45.7005 196.976C45.6045 197.008 45.4765 197.036 45.3165 197.06C45.1645 197.092 45.0245 197.108 44.8965 197.108ZM47.2438 197.084C47.0838 197.084 46.9598 197.04 46.8718 196.952C46.7918 196.864 46.7518 196.74 46.7518 196.58V191.576C46.7518 191.416 46.7918 191.296 46.8718 191.216C46.9518 191.128 47.0678 191.084 47.2198 191.084C47.3718 191.084 47.4878 191.128 47.5678 191.216C47.6558 191.296 47.6998 191.416 47.6998 191.576V192.548H47.5798C47.7078 192.076 47.9518 191.712 48.3118 191.456C48.6718 191.2 49.1158 191.064 49.6438 191.048C49.7638 191.04 49.8598 191.068 49.9318 191.132C50.0038 191.188 50.0438 191.288 50.0518 191.432C50.0598 191.568 50.0278 191.676 49.9558 191.756C49.8838 191.836 49.7718 191.884 49.6198 191.9L49.4278 191.924C48.8838 191.972 48.4638 192.148 48.1678 192.452C47.8798 192.748 47.7358 193.156 47.7358 193.676V196.58C47.7358 196.74 47.6918 196.864 47.6038 196.952C47.5238 197.04 47.4038 197.084 47.2438 197.084ZM52.83 197.108C52.43 197.108 52.07 197.032 51.75 196.88C51.438 196.72 51.19 196.504 51.006 196.232C50.822 195.96 50.73 195.656 50.73 195.32C50.73 194.888 50.838 194.548 51.054 194.3C51.278 194.052 51.642 193.876 52.146 193.772C52.658 193.668 53.354 193.616 54.234 193.616H54.774V194.252H54.246C53.598 194.252 53.086 194.284 52.71 194.348C52.342 194.404 52.082 194.504 51.93 194.648C51.786 194.792 51.714 194.996 51.714 195.26C51.714 195.588 51.826 195.856 52.05 196.064C52.282 196.272 52.594 196.376 52.986 196.376C53.306 196.376 53.586 196.3 53.826 196.148C54.074 195.996 54.266 195.788 54.402 195.524C54.546 195.26 54.618 194.956 54.618 194.612V193.244C54.618 192.748 54.518 192.392 54.318 192.176C54.118 191.952 53.79 191.84 53.334 191.84C53.054 191.84 52.774 191.876 52.494 191.948C52.214 192.02 51.918 192.136 51.606 192.296C51.494 192.352 51.398 192.372 51.318 192.356C51.238 192.332 51.174 192.288 51.126 192.224C51.078 192.16 51.05 192.088 51.042 192.008C51.034 191.92 51.05 191.836 51.09 191.756C51.138 191.676 51.21 191.612 51.306 191.564C51.658 191.388 52.006 191.26 52.35 191.18C52.694 191.1 53.022 191.06 53.334 191.06C53.838 191.06 54.254 191.144 54.582 191.312C54.91 191.472 55.154 191.72 55.314 192.056C55.474 192.384 55.554 192.808 55.554 193.328V196.58C55.554 196.74 55.514 196.864 55.434 196.952C55.362 197.04 55.254 197.084 55.11 197.084C54.958 197.084 54.842 197.04 54.762 196.952C54.682 196.864 54.642 196.74 54.642 196.58V195.644H54.75C54.686 195.948 54.562 196.208 54.378 196.424C54.202 196.64 53.982 196.808 53.718 196.928C53.454 197.048 53.158 197.108 52.83 197.108ZM59.8293 197.108C59.2453 197.108 58.7413 196.98 58.3173 196.724C57.8933 196.468 57.5653 196.112 57.3333 195.656C57.1093 195.192 56.9973 194.656 56.9973 194.048C56.9973 193.584 57.0613 193.168 57.1893 192.8C57.3173 192.432 57.5053 192.12 57.7533 191.864C58.0013 191.6 58.2973 191.4 58.6413 191.264C58.9933 191.128 59.3893 191.06 59.8293 191.06C60.1173 191.06 60.4173 191.104 60.7293 191.192C61.0413 191.28 61.3253 191.432 61.5813 191.648C61.6613 191.704 61.7133 191.772 61.7373 191.852C61.7613 191.932 61.7613 192.012 61.7373 192.092C61.7133 192.164 61.6733 192.228 61.6173 192.284C61.5613 192.332 61.4893 192.36 61.4013 192.368C61.3213 192.376 61.2373 192.348 61.1493 192.284C60.9413 192.124 60.7293 192.012 60.5133 191.948C60.2973 191.884 60.0893 191.852 59.8893 191.852C59.5773 191.852 59.3053 191.904 59.0733 192.008C58.8413 192.104 58.6453 192.244 58.4853 192.428C58.3253 192.612 58.2013 192.84 58.1133 193.112C58.0333 193.384 57.9933 193.7 57.9933 194.06C57.9933 194.756 58.1573 195.308 58.4853 195.716C58.8133 196.116 59.2813 196.316 59.8893 196.316C60.0893 196.316 60.2933 196.284 60.5013 196.22C60.7173 196.156 60.9333 196.044 61.1493 195.884C61.2373 195.82 61.3213 195.792 61.4013 195.8C61.4813 195.808 61.5493 195.84 61.6053 195.896C61.6613 195.944 61.6973 196.008 61.7133 196.088C61.7373 196.168 61.7373 196.248 61.7133 196.328C61.6893 196.4 61.6373 196.464 61.5573 196.52C61.3013 196.728 61.0213 196.88 60.7173 196.976C60.4133 197.064 60.1173 197.108 59.8293 197.108ZM65.252 197.108C64.796 197.108 64.412 197.028 64.1 196.868C63.796 196.7 63.568 196.46 63.416 196.148C63.264 195.828 63.188 195.44 63.188 194.984V191.924H62.384C62.248 191.924 62.144 191.892 62.072 191.828C62 191.756 61.964 191.66 61.964 191.54C61.964 191.42 62 191.328 62.072 191.264C62.144 191.2 62.248 191.168 62.384 191.168H63.188V189.788C63.188 189.628 63.232 189.508 63.32 189.428C63.408 189.34 63.528 189.296 63.68 189.296C63.832 189.296 63.948 189.34 64.028 189.428C64.116 189.508 64.16 189.628 64.16 189.788V191.168H65.672C65.808 191.168 65.912 191.2 65.984 191.264C66.056 191.328 66.092 191.42 66.092 191.54C66.092 191.66 66.056 191.756 65.984 191.828C65.912 191.892 65.808 191.924 65.672 191.924H64.16V194.888C64.16 195.344 64.256 195.692 64.448 195.932C64.64 196.164 64.952 196.28 65.384 196.28C65.536 196.28 65.664 196.264 65.768 196.232C65.88 196.2 65.972 196.184 66.044 196.184C66.116 196.176 66.176 196.2 66.224 196.256C66.272 196.312 66.296 196.408 66.296 196.544C66.296 196.64 66.276 196.728 66.236 196.808C66.204 196.888 66.144 196.944 66.056 196.976C65.96 197.008 65.832 197.036 65.672 197.06C65.52 197.092 65.38 197.108 65.252 197.108ZM69.4727 197.108C68.9047 197.108 68.4127 196.984 67.9967 196.736C67.5807 196.488 67.2567 196.14 67.0247 195.692C66.8007 195.236 66.6887 194.7 66.6887 194.084C66.6887 193.62 66.7527 193.204 66.8807 192.836C67.0087 192.46 67.1967 192.14 67.4447 191.876C67.6927 191.612 67.9847 191.412 68.3207 191.276C68.6647 191.132 69.0487 191.06 69.4727 191.06C70.0407 191.06 70.5327 191.184 70.9487 191.432C71.3647 191.68 71.6847 192.032 71.9087 192.488C72.1407 192.936 72.2567 193.468 72.2567 194.084C72.2567 194.548 72.1927 194.964 72.0647 195.332C71.9367 195.7 71.7487 196.02 71.5007 196.292C71.2527 196.556 70.9567 196.76 70.6127 196.904C70.2767 197.04 69.8967 197.108 69.4727 197.108ZM69.4727 196.328C69.8327 196.328 70.1487 196.24 70.4207 196.064C70.6927 195.888 70.9007 195.632 71.0447 195.296C71.1967 194.96 71.2727 194.556 71.2727 194.084C71.2727 193.356 71.1087 192.8 70.7807 192.416C70.4607 192.032 70.0247 191.84 69.4727 191.84C69.1047 191.84 68.7847 191.928 68.5127 192.104C68.2487 192.272 68.0407 192.524 67.8887 192.86C67.7447 193.188 67.6727 193.596 67.6727 194.084C67.6727 194.804 67.8367 195.36 68.1647 195.752C68.4927 196.136 68.9287 196.328 69.4727 196.328ZM74.2087 197.084C74.0487 197.084 73.9247 197.04 73.8367 196.952C73.7567 196.864 73.7167 196.74 73.7167 196.58V191.576C73.7167 191.416 73.7567 191.296 73.8367 191.216C73.9167 191.128 74.0327 191.084 74.1847 191.084C74.3367 191.084 74.4527 191.128 74.5327 191.216C74.6207 191.296 74.6647 191.416 74.6647 191.576V192.548H74.5447C74.6727 192.076 74.9167 191.712 75.2767 191.456C75.6367 191.2 76.0807 191.064 76.6087 191.048C76.7287 191.04 76.8247 191.068 76.8967 191.132C76.9687 191.188 77.0087 191.288 77.0167 191.432C77.0247 191.568 76.9927 191.676 76.9207 191.756C76.8487 191.836 76.7367 191.884 76.5847 191.9L76.3927 191.924C75.8487 191.972 75.4287 192.148 75.1327 192.452C74.8447 192.748 74.7007 193.156 74.7007 193.676V196.58C74.7007 196.74 74.6567 196.864 74.5687 196.952C74.4887 197.04 74.3687 197.084 74.2087 197.084Z" fill="#64728C"/>
<rect x="12" y="216" width="284" height="36" rx="10" fill="white"/>
<path d="M24.86 238.12C23.98 238.12 23.224 237.944 22.592 237.592C21.968 237.232 21.488 236.728 21.152 236.08C20.816 235.424 20.648 234.652 20.648 233.764C20.648 233.1 20.744 232.504 20.936 231.976C21.128 231.44 21.404 230.984 21.764 230.608C22.124 230.224 22.564 229.932 23.084 229.732C23.612 229.524 24.204 229.42 24.86 229.42C25.3 229.42 25.732 229.476 26.156 229.588C26.58 229.7 26.952 229.86 27.272 230.068C27.44 230.172 27.552 230.3 27.608 230.452C27.664 230.596 27.676 230.74 27.644 230.884C27.612 231.02 27.544 231.136 27.44 231.232C27.344 231.328 27.22 231.384 27.068 231.4C26.924 231.408 26.764 231.356 26.588 231.244C26.34 231.084 26.072 230.968 25.784 230.896C25.496 230.824 25.204 230.788 24.908 230.788C24.34 230.788 23.86 230.904 23.468 231.136C23.076 231.368 22.78 231.704 22.58 232.144C22.38 232.584 22.28 233.124 22.28 233.764C22.28 234.396 22.38 234.936 22.58 235.384C22.78 235.832 23.076 236.172 23.468 236.404C23.86 236.636 24.34 236.752 24.908 236.752C25.212 236.752 25.512 236.716 25.808 236.644C26.104 236.564 26.384 236.444 26.648 236.284C26.824 236.18 26.98 236.136 27.116 236.152C27.26 236.16 27.38 236.208 27.476 236.296C27.572 236.384 27.636 236.496 27.668 236.632C27.7 236.76 27.692 236.896 27.644 237.04C27.596 237.176 27.5 237.296 27.356 237.4C27.036 237.632 26.652 237.812 26.204 237.94C25.764 238.06 25.316 238.12 24.86 238.12Z" fill="#38455D"/>
<path d="M31.4923 238.108C30.9243 238.108 30.4323 237.984 30.0163 237.736C29.6003 237.488 29.2763 237.14 29.0443 236.692C28.8203 236.236 28.7083 235.7 28.7083 235.084C28.7083 234.62 28.7723 234.204 28.9003 233.836C29.0283 233.46 29.2163 233.14 29.4643 232.876C29.7123 232.612 30.0043 232.412 30.3403 232.276C30.6843 232.132 31.0683 232.06 31.4923 232.06C32.0603 232.06 32.5523 232.184 32.9683 232.432C33.3843 232.68 33.7043 233.032 33.9283 233.488C34.1603 233.936 34.2763 234.468 34.2763 235.084C34.2763 235.548 34.2123 235.964 34.0843 236.332C33.9563 236.7 33.7683 237.02 33.5203 237.292C33.2723 237.556 32.9763 237.76 32.6323 237.904C32.2963 238.04 31.9163 238.108 31.4923 238.108ZM31.4923 237.328C31.8523 237.328 32.1683 237.24 32.4403 237.064C32.7123 236.888 32.9203 236.632 33.0643 236.296C33.2163 235.96 33.2923 235.556 33.2923 235.084C33.2923 234.356 33.1283 233.8 32.8003 233.416C32.4803 233.032 32.0443 232.84 31.4923 232.84C31.1243 232.84 30.8043 232.928 30.5323 233.104C30.2683 233.272 30.0603 233.524 29.9083 233.86C29.7643 234.188 29.6923 234.596 29.6923 235.084C29.6923 235.804 29.8563 236.36 30.1843 236.752C30.5123 237.136 30.9483 237.328 31.4923 237.328ZM36.2162 238.084C36.0562 238.084 35.9362 238.04 35.8562 237.952C35.7762 237.864 35.7362 237.74 35.7362 237.58V232.576C35.7362 232.416 35.7762 232.296 35.8562 232.216C35.9362 232.128 36.0522 232.084 36.2042 232.084C36.3562 232.084 36.4722 232.128 36.5522 232.216C36.6402 232.296 36.6842 232.416 36.6842 232.576V233.608L36.5522 233.464C36.7202 233 36.9922 232.652 37.3682 232.42C37.7522 232.18 38.1922 232.06 38.6882 232.06C39.1522 232.06 39.5362 232.144 39.8402 232.312C40.1522 232.48 40.3842 232.736 40.5362 233.08C40.6882 233.416 40.7642 233.844 40.7642 234.364V237.58C40.7642 237.74 40.7202 237.864 40.6322 237.952C40.5522 238.04 40.4362 238.084 40.2842 238.084C40.1242 238.084 40.0002 238.04 39.9122 237.952C39.8322 237.864 39.7922 237.74 39.7922 237.58V234.424C39.7922 233.88 39.6842 233.484 39.4682 233.236C39.2602 232.98 38.9242 232.852 38.4602 232.852C37.9242 232.852 37.4962 233.02 37.1762 233.356C36.8642 233.684 36.7082 234.124 36.7082 234.676V237.58C36.7082 237.916 36.5442 238.084 36.2162 238.084ZM44.8965 238.108C44.4405 238.108 44.0565 238.028 43.7445 237.868C43.4405 237.7 43.2125 237.46 43.0605 237.148C42.9085 236.828 42.8325 236.44 42.8325 235.984V232.924H42.0285C41.8925 232.924 41.7885 232.892 41.7165 232.828C41.6445 232.756 41.6085 232.66 41.6085 232.54C41.6085 232.42 41.6445 232.328 41.7165 232.264C41.7885 232.2 41.8925 232.168 42.0285 232.168H42.8325V230.788C42.8325 230.628 42.8765 230.508 42.9645 230.428C43.0525 230.34 43.1725 230.296 43.3245 230.296C43.4765 230.296 43.5925 230.34 43.6725 230.428C43.7605 230.508 43.8045 230.628 43.8045 230.788V232.168H45.3165C45.4525 232.168 45.5565 232.2 45.6285 232.264C45.7005 232.328 45.7365 232.42 45.7365 232.54C45.7365 232.66 45.7005 232.756 45.6285 232.828C45.5565 232.892 45.4525 232.924 45.3165 232.924H43.8045V235.888C43.8045 236.344 43.9005 236.692 44.0925 236.932C44.2845 237.164 44.5965 237.28 45.0285 237.28C45.1805 237.28 45.3085 237.264 45.4125 237.232C45.5245 237.2 45.6165 237.184 45.6885 237.184C45.7605 237.176 45.8205 237.2 45.8685 237.256C45.9165 237.312 45.9405 237.408 45.9405 237.544C45.9405 237.64 45.9205 237.728 45.8805 237.808C45.8485 237.888 45.7885 237.944 45.7005 237.976C45.6045 238.008 45.4765 238.036 45.3165 238.06C45.1645 238.092 45.0245 238.108 44.8965 238.108ZM48.5878 238.108C48.1878 238.108 47.8278 238.032 47.5078 237.88C47.1958 237.72 46.9478 237.504 46.7638 237.232C46.5798 236.96 46.4878 236.656 46.4878 236.32C46.4878 235.888 46.5958 235.548 46.8118 235.3C47.0358 235.052 47.3998 234.876 47.9038 234.772C48.4158 234.668 49.1118 234.616 49.9918 234.616H50.5318V235.252H50.0038C49.3558 235.252 48.8438 235.284 48.4678 235.348C48.0998 235.404 47.8398 235.504 47.6878 235.648C47.5438 235.792 47.4718 235.996 47.4718 236.26C47.4718 236.588 47.5838 236.856 47.8078 237.064C48.0398 237.272 48.3518 237.376 48.7438 237.376C49.0638 237.376 49.3438 237.3 49.5838 237.148C49.8318 236.996 50.0238 236.788 50.1598 236.524C50.3038 236.26 50.3758 235.956 50.3758 235.612V234.244C50.3758 233.748 50.2758 233.392 50.0758 233.176C49.8758 232.952 49.5478 232.84 49.0918 232.84C48.8118 232.84 48.5318 232.876 48.2518 232.948C47.9718 233.02 47.6758 233.136 47.3638 233.296C47.2518 233.352 47.1558 233.372 47.0758 233.356C46.9958 233.332 46.9318 233.288 46.8838 233.224C46.8358 233.16 46.8078 233.088 46.7998 233.008C46.7918 232.92 46.8078 232.836 46.8478 232.756C46.8958 232.676 46.9678 232.612 47.0638 232.564C47.4158 232.388 47.7638 232.26 48.1078 232.18C48.4518 232.1 48.7798 232.06 49.0918 232.06C49.5958 232.06 50.0118 232.144 50.3398 232.312C50.6678 232.472 50.9118 232.72 51.0718 233.056C51.2318 233.384 51.3118 233.808 51.3118 234.328V237.58C51.3118 237.74 51.2718 237.864 51.1918 237.952C51.1198 238.04 51.0118 238.084 50.8678 238.084C50.7158 238.084 50.5998 238.04 50.5198 237.952C50.4398 237.864 50.3998 237.74 50.3998 237.58V236.644H50.5078C50.4438 236.948 50.3198 237.208 50.1358 237.424C49.9598 237.64 49.7398 237.808 49.4758 237.928C49.2118 238.048 48.9158 238.108 48.5878 238.108ZM55.5871 238.108C55.0031 238.108 54.4991 237.98 54.0751 237.724C53.6511 237.468 53.3231 237.112 53.0911 236.656C52.8671 236.192 52.7551 235.656 52.7551 235.048C52.7551 234.584 52.8191 234.168 52.9471 233.8C53.0751 233.432 53.2631 233.12 53.5111 232.864C53.7591 232.6 54.0551 232.4 54.3991 232.264C54.7511 232.128 55.1471 232.06 55.5871 232.06C55.8751 232.06 56.1751 232.104 56.4871 232.192C56.7991 232.28 57.0831 232.432 57.3391 232.648C57.4191 232.704 57.4711 232.772 57.4951 232.852C57.5191 232.932 57.5191 233.012 57.4951 233.092C57.4711 233.164 57.4311 233.228 57.3751 233.284C57.3191 233.332 57.2471 233.36 57.1591 233.368C57.0791 233.376 56.9951 233.348 56.9071 233.284C56.6991 233.124 56.4871 233.012 56.2711 232.948C56.0551 232.884 55.8471 232.852 55.6471 232.852C55.3351 232.852 55.0631 232.904 54.8311 233.008C54.5991 233.104 54.4031 233.244 54.2431 233.428C54.0831 233.612 53.9591 233.84 53.8711 234.112C53.7911 234.384 53.7511 234.7 53.7511 235.06C53.7511 235.756 53.9151 236.308 54.2431 236.716C54.5711 237.116 55.0391 237.316 55.6471 237.316C55.8471 237.316 56.0511 237.284 56.2591 237.22C56.4751 237.156 56.6911 237.044 56.9071 236.884C56.9951 236.82 57.0791 236.792 57.1591 236.8C57.2391 236.808 57.3071 236.84 57.3631 236.896C57.4191 236.944 57.4551 237.008 57.4711 237.088C57.4951 237.168 57.4951 237.248 57.4711 237.328C57.4471 237.4 57.3951 237.464 57.3151 237.52C57.0591 237.728 56.7791 237.88 56.4751 237.976C56.1711 238.064 55.8751 238.108 55.5871 238.108ZM61.0098 238.108C60.5538 238.108 60.1698 238.028 59.8578 237.868C59.5538 237.7 59.3258 237.46 59.1738 237.148C59.0218 236.828 58.9458 236.44 58.9458 235.984V232.924H58.1418C58.0058 232.924 57.9018 232.892 57.8298 232.828C57.7578 232.756 57.7218 232.66 57.7218 232.54C57.7218 232.42 57.7578 232.328 57.8298 232.264C57.9018 232.2 58.0058 232.168 58.1418 232.168H58.9458V230.788C58.9458 230.628 58.9898 230.508 59.0778 230.428C59.1658 230.34 59.2858 230.296 59.4378 230.296C59.5898 230.296 59.7058 230.34 59.7858 230.428C59.8738 230.508 59.9178 230.628 59.9178 230.788V232.168H61.4298C61.5658 232.168 61.6698 232.2 61.7418 232.264C61.8138 232.328 61.8498 232.42 61.8498 232.54C61.8498 232.66 61.8138 232.756 61.7418 232.828C61.6698 232.892 61.5658 232.924 61.4298 232.924H59.9178V235.888C59.9178 236.344 60.0138 236.692 60.2058 236.932C60.3978 237.164 60.7098 237.28 61.1418 237.28C61.2938 237.28 61.4218 237.264 61.5258 237.232C61.6378 237.2 61.7298 237.184 61.8018 237.184C61.8738 237.176 61.9338 237.2 61.9818 237.256C62.0298 237.312 62.0538 237.408 62.0538 237.544C62.0538 237.64 62.0338 237.728 61.9938 237.808C61.9618 237.888 61.9018 237.944 61.8138 237.976C61.7178 238.008 61.5898 238.036 61.4298 238.06C61.2778 238.092 61.1378 238.108 61.0098 238.108ZM69.6429 238.108C68.8589 238.108 68.1749 237.932 67.5909 237.58C67.0149 237.22 66.5669 236.716 66.2469 236.068C65.9349 235.42 65.7789 234.652 65.7789 233.764C65.7789 233.092 65.8669 232.492 66.0429 231.964C66.2269 231.428 66.4869 230.976 66.8229 230.608C67.1589 230.232 67.5629 229.944 68.0349 229.744C68.5149 229.536 69.0509 229.432 69.6429 229.432C70.4429 229.432 71.1309 229.608 71.7069 229.96C72.2909 230.312 72.7389 230.812 73.0509 231.46C73.3709 232.1 73.5309 232.864 73.5309 233.752C73.5309 234.424 73.4389 235.028 73.2549 235.564C73.0709 236.1 72.8109 236.556 72.4749 236.932C72.1389 237.308 71.7309 237.6 71.2509 237.808C70.7789 238.008 70.2429 238.108 69.6429 238.108ZM69.6429 237.232C70.2509 237.232 70.7629 237.096 71.1789 236.824C71.6029 236.552 71.9269 236.156 72.1509 235.636C72.3749 235.116 72.4869 234.492 72.4869 233.764C72.4869 232.668 72.2389 231.82 71.7429 231.22C71.2549 230.612 70.5549 230.308 69.6429 230.308C69.0509 230.308 68.5429 230.444 68.1189 230.716C67.7029 230.988 67.3829 231.384 67.1589 231.904C66.9349 232.416 66.8229 233.036 66.8229 233.764C66.8229 234.852 67.0709 235.704 67.5669 236.32C68.0629 236.928 68.7549 237.232 69.6429 237.232ZM75.9501 238.084C75.7981 238.084 75.6781 238.04 75.5901 237.952C75.5101 237.864 75.4701 237.74 75.4701 237.58V232.924H74.7021C74.5741 232.924 74.4701 232.892 74.3901 232.828C74.3181 232.756 74.2821 232.66 74.2821 232.54C74.2821 232.42 74.3181 232.328 74.3901 232.264C74.4701 232.2 74.5741 232.168 74.7021 232.168H75.7341L75.4701 232.42V231.964C75.4701 231.204 75.6541 230.624 76.0221 230.224C76.3981 229.824 76.9461 229.592 77.6661 229.528L78.0141 229.492C78.1261 229.484 78.2141 229.504 78.2781 229.552C78.3501 229.6 78.3941 229.66 78.4101 229.732C78.4341 229.804 78.4381 229.88 78.4221 229.96C78.4061 230.032 78.3701 230.096 78.3141 230.152C78.2581 230.208 78.1901 230.24 78.1101 230.248L77.8341 230.272C77.3461 230.312 76.9901 230.46 76.7661 230.716C76.5501 230.972 76.4421 231.348 76.4421 231.844V232.348L76.2981 232.168H77.7381C77.8741 232.168 77.9781 232.2 78.0501 232.264C78.1221 232.328 78.1581 232.42 78.1581 232.54C78.1581 232.66 78.1221 232.756 78.0501 232.828C77.9781 232.892 77.8741 232.924 77.7381 232.924H76.4421V237.58C76.4421 237.916 76.2781 238.084 75.9501 238.084ZM79.7587 238.084C79.6067 238.084 79.4867 238.04 79.3987 237.952C79.3187 237.864 79.2787 237.74 79.2787 237.58V232.924H78.5107C78.3827 232.924 78.2787 232.892 78.1987 232.828C78.1267 232.756 78.0907 232.66 78.0907 232.54C78.0907 232.42 78.1267 232.328 78.1987 232.264C78.2787 232.2 78.3827 232.168 78.5107 232.168H79.5427L79.2787 232.42V231.964C79.2787 231.212 79.4587 230.636 79.8187 230.236C80.1867 229.836 80.7267 229.608 81.4387 229.552L81.7987 229.516C81.9187 229.508 82.0147 229.528 82.0867 229.576C82.1587 229.616 82.2027 229.672 82.2187 229.744C82.2427 229.816 82.2467 229.892 82.2307 229.972C82.2147 230.052 82.1787 230.12 82.1227 230.176C82.0747 230.232 82.0147 230.264 81.9427 230.272L81.5827 230.296C81.1107 230.328 80.7707 230.476 80.5627 230.74C80.3547 230.996 80.2507 231.364 80.2507 231.844V232.348L80.1067 232.168H83.3707C83.5227 232.168 83.6387 232.212 83.7187 232.3C83.8067 232.388 83.8507 232.516 83.8507 232.684V237.532C83.8507 237.7 83.8107 237.832 83.7307 237.928C83.6507 238.016 83.5307 238.06 83.3707 238.06C83.2107 238.06 83.0867 238.016 82.9987 237.928C82.9187 237.832 82.8787 237.7 82.8787 237.532V232.924H80.2507V237.58C80.2507 237.916 80.0867 238.084 79.7587 238.084ZM83.3827 230.764C83.1827 230.764 83.0267 230.712 82.9147 230.608C82.8107 230.496 82.7587 230.348 82.7587 230.164C82.7587 229.972 82.8107 229.828 82.9147 229.732C83.0267 229.628 83.1827 229.576 83.3827 229.576C83.5827 229.576 83.7347 229.628 83.8387 229.732C83.9507 229.828 84.0067 229.972 84.0067 230.164C84.0067 230.348 83.9507 230.496 83.8387 230.608C83.7347 230.712 83.5827 230.764 83.3827 230.764ZM88.1418 238.108C87.5578 238.108 87.0538 237.98 86.6298 237.724C86.2058 237.468 85.8778 237.112 85.6458 236.656C85.4218 236.192 85.3098 235.656 85.3098 235.048C85.3098 234.584 85.3738 234.168 85.5018 233.8C85.6298 233.432 85.8178 233.12 86.0658 232.864C86.3138 232.6 86.6098 232.4 86.9538 232.264C87.3058 232.128 87.7018 232.06 88.1418 232.06C88.4298 232.06 88.7298 232.104 89.0418 232.192C89.3538 232.28 89.6378 232.432 89.8938 232.648C89.9738 232.704 90.0258 232.772 90.0498 232.852C90.0738 232.932 90.0738 233.012 90.0498 233.092C90.0258 233.164 89.9858 233.228 89.9298 233.284C89.8738 233.332 89.8018 233.36 89.7138 233.368C89.6338 233.376 89.5498 233.348 89.4618 233.284C89.2538 233.124 89.0418 233.012 88.8258 232.948C88.6098 232.884 88.4018 232.852 88.2018 232.852C87.8898 232.852 87.6178 232.904 87.3858 233.008C87.1538 233.104 86.9578 233.244 86.7978 233.428C86.6378 233.612 86.5138 233.84 86.4258 234.112C86.3458 234.384 86.3058 234.7 86.3058 235.06C86.3058 235.756 86.4698 236.308 86.7978 236.716C87.1258 237.116 87.5938 237.316 88.2018 237.316C88.4018 237.316 88.6058 237.284 88.8138 237.22C89.0298 237.156 89.2458 237.044 89.4618 236.884C89.5498 236.82 89.6338 236.792 89.7138 236.8C89.7938 236.808 89.8618 236.84 89.9178 236.896C89.9738 236.944 90.0098 237.008 90.0258 237.088C90.0498 237.168 90.0498 237.248 90.0258 237.328C90.0018 237.4 89.9498 237.464 89.8698 237.52C89.6138 237.728 89.3338 237.88 89.0298 237.976C88.7258 238.064 88.4298 238.108 88.1418 238.108ZM93.7353 238.108C93.1193 238.108 92.5873 237.988 92.1393 237.748C91.6993 237.5 91.3553 237.152 91.1073 236.704C90.8673 236.256 90.7473 235.72 90.7473 235.096C90.7473 234.488 90.8673 233.96 91.1073 233.512C91.3473 233.056 91.6753 232.7 92.0913 232.444C92.5153 232.188 93.0033 232.06 93.5553 232.06C93.9473 232.06 94.2993 232.128 94.6113 232.264C94.9233 232.392 95.1873 232.58 95.4033 232.828C95.6273 233.076 95.7953 233.376 95.9073 233.728C96.0273 234.08 96.0873 234.476 96.0873 234.916C96.0873 235.044 96.0513 235.14 95.9793 235.204C95.9073 235.26 95.8033 235.288 95.6673 235.288H91.4913V234.652H95.4393L95.2473 234.808C95.2473 234.376 95.1833 234.012 95.0553 233.716C94.9273 233.412 94.7393 233.18 94.4913 233.02C94.2513 232.86 93.9473 232.78 93.5793 232.78C93.1713 232.78 92.8233 232.876 92.5353 233.068C92.2553 233.252 92.0433 233.512 91.8993 233.848C91.7553 234.176 91.6833 234.56 91.6833 235V235.072C91.6833 235.808 91.8593 236.368 92.2113 236.752C92.5713 237.136 93.0793 237.328 93.7353 237.328C94.0073 237.328 94.2753 237.292 94.5393 237.22C94.8113 237.148 95.0753 237.028 95.3313 236.86C95.4433 236.788 95.5433 236.756 95.6313 236.764C95.7273 236.764 95.8033 236.792 95.8593 236.848C95.9153 236.896 95.9513 236.96 95.9673 237.04C95.9913 237.112 95.9833 237.192 95.9433 237.28C95.9113 237.368 95.8433 237.444 95.7393 237.508C95.4753 237.7 95.1633 237.848 94.8033 237.952C94.4433 238.056 94.0873 238.108 93.7353 238.108Z" fill="#64728C"/>
<rect x="12" y="257" width="284" height="36" rx="10" fill="white"/>
<path d="M24.86 279.12C23.98 279.12 23.224 278.944 22.592 278.592C21.968 278.232 21.488 277.728 21.152 277.08C20.816 276.424 20.648 275.652 20.648 274.764C20.648 274.1 20.744 273.504 20.936 272.976C21.128 272.44 21.404 271.984 21.764 271.608C22.124 271.224 22.564 270.932 23.084 270.732C23.612 270.524 24.204 270.42 24.86 270.42C25.3 270.42 25.732 270.476 26.156 270.588C26.58 270.7 26.952 270.86 27.272 271.068C27.44 271.172 27.552 271.3 27.608 271.452C27.664 271.596 27.676 271.74 27.644 271.884C27.612 272.02 27.544 272.136 27.44 272.232C27.344 272.328 27.22 272.384 27.068 272.4C26.924 272.408 26.764 272.356 26.588 272.244C26.34 272.084 26.072 271.968 25.784 271.896C25.496 271.824 25.204 271.788 24.908 271.788C24.34 271.788 23.86 271.904 23.468 272.136C23.076 272.368 22.78 272.704 22.58 273.144C22.38 273.584 22.28 274.124 22.28 274.764C22.28 275.396 22.38 275.936 22.58 276.384C22.78 276.832 23.076 277.172 23.468 277.404C23.86 277.636 24.34 277.752 24.908 277.752C25.212 277.752 25.512 277.716 25.808 277.644C26.104 277.564 26.384 277.444 26.648 277.284C26.824 277.18 26.98 277.136 27.116 277.152C27.26 277.16 27.38 277.208 27.476 277.296C27.572 277.384 27.636 277.496 27.668 277.632C27.7 277.76 27.692 277.896 27.644 278.04C27.596 278.176 27.5 278.296 27.356 278.4C27.036 278.632 26.652 278.812 26.204 278.94C25.764 279.06 25.316 279.12 24.86 279.12Z" fill="#38455D"/>
<path d="M31.4923 279.108C30.9243 279.108 30.4323 278.984 30.0163 278.736C29.6003 278.488 29.2763 278.14 29.0443 277.692C28.8203 277.236 28.7083 276.7 28.7083 276.084C28.7083 275.62 28.7723 275.204 28.9003 274.836C29.0283 274.46 29.2163 274.14 29.4643 273.876C29.7123 273.612 30.0043 273.412 30.3403 273.276C30.6843 273.132 31.0683 273.06 31.4923 273.06C32.0603 273.06 32.5523 273.184 32.9683 273.432C33.3843 273.68 33.7043 274.032 33.9283 274.488C34.1603 274.936 34.2763 275.468 34.2763 276.084C34.2763 276.548 34.2123 276.964 34.0843 277.332C33.9563 277.7 33.7683 278.02 33.5203 278.292C33.2723 278.556 32.9763 278.76 32.6323 278.904C32.2963 279.04 31.9163 279.108 31.4923 279.108ZM31.4923 278.328C31.8523 278.328 32.1683 278.24 32.4403 278.064C32.7123 277.888 32.9203 277.632 33.0643 277.296C33.2163 276.96 33.2923 276.556 33.2923 276.084C33.2923 275.356 33.1283 274.8 32.8003 274.416C32.4803 274.032 32.0443 273.84 31.4923 273.84C31.1243 273.84 30.8043 273.928 30.5323 274.104C30.2683 274.272 30.0603 274.524 29.9083 274.86C29.7643 275.188 29.6923 275.596 29.6923 276.084C29.6923 276.804 29.8563 277.36 30.1843 277.752C30.5123 278.136 30.9483 278.328 31.4923 278.328ZM36.2162 279.084C36.0562 279.084 35.9362 279.04 35.8562 278.952C35.7762 278.864 35.7362 278.74 35.7362 278.58V273.576C35.7362 273.416 35.7762 273.296 35.8562 273.216C35.9362 273.128 36.0522 273.084 36.2042 273.084C36.3562 273.084 36.4722 273.128 36.5522 273.216C36.6402 273.296 36.6842 273.416 36.6842 273.576V274.608L36.5522 274.464C36.7202 274 36.9922 273.652 37.3682 273.42C37.7522 273.18 38.1922 273.06 38.6882 273.06C39.1522 273.06 39.5362 273.144 39.8402 273.312C40.1522 273.48 40.3842 273.736 40.5362 274.08C40.6882 274.416 40.7642 274.844 40.7642 275.364V278.58C40.7642 278.74 40.7202 278.864 40.6322 278.952C40.5522 279.04 40.4362 279.084 40.2842 279.084C40.1242 279.084 40.0002 279.04 39.9122 278.952C39.8322 278.864 39.7922 278.74 39.7922 278.58V275.424C39.7922 274.88 39.6842 274.484 39.4682 274.236C39.2602 273.98 38.9242 273.852 38.4602 273.852C37.9242 273.852 37.4962 274.02 37.1762 274.356C36.8642 274.684 36.7082 275.124 36.7082 275.676V278.58C36.7082 278.916 36.5442 279.084 36.2162 279.084ZM46.2743 279.084C46.1143 279.084 45.9903 279.04 45.9023 278.952C45.8223 278.856 45.7823 278.728 45.7823 278.568V270.972C45.7823 270.804 45.8223 270.676 45.9023 270.588C45.9903 270.5 46.1143 270.456 46.2743 270.456C46.4343 270.456 46.5543 270.5 46.6343 270.588C46.7223 270.676 46.7663 270.804 46.7663 270.972V278.568C46.7663 278.728 46.7263 278.856 46.6463 278.952C46.5663 279.04 46.4423 279.084 46.2743 279.084ZM49.4043 279C49.2283 279 49.0923 278.956 48.9963 278.868C48.9083 278.772 48.8643 278.636 48.8643 278.46V271.08C48.8643 270.904 48.9083 270.772 48.9963 270.684C49.0923 270.588 49.2283 270.54 49.4043 270.54H51.7203C53.0883 270.54 54.1443 270.9 54.8883 271.62C55.6323 272.34 56.0043 273.388 56.0043 274.764C56.0043 275.452 55.9083 276.06 55.7163 276.588C55.5323 277.108 55.2563 277.548 54.8883 277.908C54.5203 278.268 54.0723 278.54 53.5443 278.724C53.0163 278.908 52.4083 279 51.7203 279H49.4043ZM49.8483 278.16H51.6483C52.2083 278.16 52.6923 278.088 53.1003 277.944C53.5163 277.8 53.8603 277.588 54.1323 277.308C54.4123 277.028 54.6203 276.676 54.7563 276.252C54.8923 275.82 54.9603 275.324 54.9603 274.764C54.9603 273.636 54.6843 272.792 54.1323 272.232C53.5803 271.664 52.7523 271.38 51.6483 271.38H49.8483V278.16Z" fill="#64728C"/>
</g>
<rect x="2.5" y="0.5" width="299" height="37" rx="18.5" fill="white"/>
<rect x="2.5" y="0.5" width="299" height="37" rx="18.5" stroke="#E8EAEF"/>
<path d="M18.776 23.108C17.92 23.108 17.188 22.932 16.58 22.58C15.972 22.228 15.504 21.728 15.176 21.08C14.856 20.424 14.696 19.652 14.696 18.764C14.696 18.1 14.788 17.504 14.972 16.976C15.156 16.44 15.42 15.984 15.764 15.608C16.116 15.224 16.544 14.932 17.048 14.732C17.56 14.532 18.136 14.432 18.776 14.432C19.248 14.432 19.7 14.496 20.132 14.624C20.572 14.752 20.952 14.936 21.272 15.176C21.408 15.264 21.496 15.372 21.536 15.5C21.584 15.62 21.592 15.736 21.56 15.848C21.536 15.96 21.484 16.056 21.404 16.136C21.324 16.208 21.22 16.248 21.092 16.256C20.972 16.264 20.84 16.22 20.696 16.124C20.432 15.924 20.14 15.776 19.82 15.68C19.5 15.584 19.164 15.536 18.812 15.536C18.204 15.536 17.692 15.664 17.276 15.92C16.86 16.168 16.544 16.532 16.328 17.012C16.112 17.492 16.004 18.076 16.004 18.764C16.004 19.452 16.112 20.04 16.328 20.528C16.544 21.008 16.86 21.376 17.276 21.632C17.692 21.88 18.204 22.004 18.812 22.004C19.164 22.004 19.5 21.956 19.82 21.86C20.148 21.756 20.456 21.604 20.744 21.404C20.888 21.316 21.016 21.276 21.128 21.284C21.248 21.292 21.348 21.332 21.428 21.404C21.508 21.476 21.56 21.568 21.584 21.68C21.616 21.784 21.612 21.896 21.572 22.016C21.54 22.128 21.464 22.224 21.344 22.304C21.016 22.568 20.628 22.768 20.18 22.904C19.732 23.04 19.264 23.108 18.776 23.108Z" fill="#38455D"/>
<rect x="268" y="4" width="30" height="30" rx="15" fill="#64728C" fill-opacity="0.12"/>
<path d="M288.752 23.1626C287.883 22.319 287.022 21.4684 286.155 20.6232C286.084 20.5544 286.071 20.5096 286.124 20.4178C286.997 18.896 287.078 17.3372 286.304 15.7574C285.759 14.6431 284.883 13.8471 283.718 13.3828C282.34 12.8332 280.963 12.8741 279.62 13.5138C278.468 14.0618 277.645 14.927 277.171 16.0872C276.62 17.4367 276.671 18.7811 277.326 20.0911C277.88 21.1972 278.746 22.0001 279.908 22.4571C281.516 23.0893 283.071 22.9369 284.541 22.0325C284.656 21.962 284.709 21.9777 284.796 22.064C285.677 22.9343 286.561 23.802 287.449 24.6669C287.875 25.0838 288.439 25.1113 288.88 24.7385C289.069 24.579 289.155 24.3649 289.207 24.1326V23.8953C289.15 23.5944 288.968 23.3722 288.752 23.1626ZM281.799 21.2391C279.923 21.2216 278.406 19.722 278.428 17.9051C278.448 16.0691 279.967 14.5912 281.82 14.6026C283.696 14.614 285.199 16.0787 285.201 17.9258C285.204 19.7643 283.661 21.2556 281.799 21.2391Z" fill="#64728C"/>
<defs>
<filter id="filter0_d_1081_8752" x="0" y="44" width="308" height="269" filterUnits="userSpaceOnUse" color-interpolation-filters="sRGB">
<feFlood flood-opacity="0" result="BackgroundImageFix"/>
<feColorMatrix in="SourceAlpha" type="matrix" values="0 0 0 0 0 0 0 0 0 0 0 0 0 0 0 0 0 0 127 0" result="hardAlpha"/>
<feOffset dy="4"/>
<feGaussianBlur stdDeviation="2"/>
<feComposite in2="hardAlpha" operator="out"/>
<feColorMatrix type="matrix" values="0 0 0 0 0 0 0 0 0 0 0 0 0 0 0 0 0 0 0.05 0"/>
<feBlend mode="normal" in2="BackgroundImageFix" result="effect1_dropShadow_1081_8752"/>
<feBlend mode="normal" in="SourceGraphic" in2="effect1_dropShadow_1081_8752" result="shape"/>
</filter>
</defs>
</svg>
