<svg width="393" height="207" viewBox="0 0 393 207" fill="none" xmlns="http://www.w3.org/2000/svg">
<g filter="url(#filter0_i_1096_9435)">
<rect y="80" width="393" height="51" rx="25.5" fill="#64728C" fill-opacity="0.07"/>
<g filter="url(#filter1_dd_1096_9435)">
<g clip-path="url(#clip0_1096_9435)">
<path d="M21.8325 105.165C21.8325 107.311 23.5188 108.998 25.665 108.998C27.8112 108.998 29.4975 107.311 29.4975 105.165C29.4975 103.019 27.8112 101.333 25.665 101.333C23.5188 101.333 21.8325 103.019 21.8325 105.165ZM25.665 102.866C26.9681 102.866 27.9645 103.862 27.9645 105.165C27.9645 106.468 26.9681 107.465 25.665 107.465C24.362 107.465 23.3655 106.468 23.3655 105.165C23.3655 103.862 24.362 102.866 25.665 102.866Z" fill="#929BAA"/>
<path d="M26.4314 99.7995V98.2665C26.4314 97.8066 26.1248 97.5 25.6649 97.5C25.205 97.5 24.8984 97.8066 24.8984 98.2665V99.7995C24.8984 100.259 25.205 100.566 25.6649 100.566C26.1248 100.566 26.4314 100.259 26.4314 99.7995Z" fill="#929BAA"/>
<path d="M31.1071 99.7229C30.8005 99.4163 30.3406 99.4163 30.034 99.7229L28.9609 100.796C28.6543 101.103 28.6543 101.562 28.9609 101.869C29.1142 102.022 29.3442 102.099 29.4975 102.099C29.6508 102.099 29.8807 102.022 30.034 101.869L31.1071 100.796C31.4137 100.566 31.4137 100.029 31.1071 99.7229Z" fill="#929BAA"/>
<path d="M32.5632 104.398H31.0302C30.5703 104.398 30.2637 104.705 30.2637 105.165C30.2637 105.625 30.5703 105.931 31.0302 105.931H32.5632C33.0231 105.931 33.3297 105.625 33.3297 105.165C33.3297 104.705 33.0231 104.398 32.5632 104.398Z" fill="#929BAA"/>
<path d="M30.034 108.384C29.7274 108.078 29.2675 108.078 28.9609 108.384C28.6543 108.691 28.6543 109.151 28.9609 109.457L30.034 110.53C30.1873 110.684 30.4173 110.76 30.5706 110.76C30.7239 110.76 30.9538 110.684 31.1071 110.53C31.4137 110.224 31.4137 109.764 31.1071 109.457L30.034 108.384Z" fill="#929BAA"/>
<path d="M24.8984 110.53V112.063C24.8984 112.523 25.205 112.83 25.6649 112.83C26.1248 112.83 26.4314 112.523 26.4314 112.063V110.53C26.4314 110.071 26.1248 109.764 25.6649 109.764C25.205 109.764 24.8984 110.071 24.8984 110.53Z" fill="#929BAA"/>
<path d="M20.2231 110.607C20.3764 110.761 20.6064 110.837 20.7597 110.837C20.913 110.837 21.1429 110.761 21.2962 110.607L22.3693 109.534C22.6759 109.228 22.6759 108.768 22.3693 108.461C22.0627 108.155 21.6028 108.155 21.2962 108.461L20.2231 109.534C19.9165 109.764 19.9165 110.301 20.2231 110.607Z" fill="#929BAA"/>
<path d="M18 105.165C18 105.625 18.3066 105.931 18.7665 105.931H20.2995C20.7594 105.931 21.066 105.625 21.066 105.165C21.066 104.705 20.7594 104.398 20.2995 104.398H18.7665C18.3066 104.398 18 104.705 18 105.165Z" fill="#929BAA"/>
<path d="M21.2962 99.7229C20.9896 99.4163 20.5297 99.4163 20.2231 99.7229C19.9165 100.029 19.9165 100.489 20.2231 100.796L21.2962 101.869C21.4495 102.099 21.6795 102.176 21.9094 102.176C22.1394 102.176 22.2927 102.099 22.446 101.946C22.7526 101.639 22.7526 101.179 22.446 100.873L21.2962 99.7229Z" fill="#929BAA"/>
</g>
<g filter="url(#filter2_i_1096_9435)">
<path d="M40.4792 110C40.1712 110 39.9332 109.921 39.7652 109.762C39.6066 109.594 39.5272 109.356 39.5272 109.048V101.082C39.5272 100.774 39.6066 100.541 39.7652 100.382C39.9332 100.214 40.1712 100.13 40.4792 100.13H43.1952C44.8472 100.13 46.1212 100.555 47.0172 101.404C47.9226 102.253 48.3752 103.471 48.3752 105.058C48.3752 105.851 48.2586 106.556 48.0252 107.172C47.8012 107.779 47.4652 108.292 47.0172 108.712C46.5786 109.132 46.0372 109.454 45.3932 109.678C44.7586 109.893 44.0259 110 43.1952 110H40.4792ZM41.3192 108.516H43.0832C43.6619 108.516 44.1612 108.446 44.5812 108.306C45.0106 108.157 45.3652 107.942 45.6452 107.662C45.9346 107.373 46.1492 107.013 46.2892 106.584C46.4292 106.145 46.4992 105.637 46.4992 105.058C46.4992 103.901 46.2146 103.037 45.6452 102.468C45.0759 101.899 44.2219 101.614 43.0832 101.614H41.3192V108.516ZM52.2773 110.14C51.7826 110.14 51.3393 110.047 50.9473 109.86C50.5646 109.664 50.2613 109.403 50.0373 109.076C49.8226 108.749 49.7153 108.381 49.7153 107.97C49.7153 107.466 49.8459 107.069 50.1073 106.78C50.3686 106.481 50.7933 106.267 51.3813 106.136C51.9693 106.005 52.7579 105.94 53.7473 105.94H54.4473V106.948H53.7613C53.1826 106.948 52.7206 106.976 52.3753 107.032C52.0299 107.088 51.7826 107.186 51.6333 107.326C51.4933 107.457 51.4233 107.643 51.4233 107.886C51.4233 108.194 51.5306 108.446 51.7453 108.642C51.9599 108.838 52.2586 108.936 52.6413 108.936C52.9493 108.936 53.2199 108.866 53.4533 108.726C53.6959 108.577 53.8873 108.376 54.0273 108.124C54.1673 107.872 54.2373 107.583 54.2373 107.256V105.646C54.2373 105.179 54.1346 104.843 53.9293 104.638C53.7239 104.433 53.3786 104.33 52.8933 104.33C52.6226 104.33 52.3286 104.363 52.0113 104.428C51.7033 104.493 51.3766 104.605 51.0313 104.764C50.8539 104.848 50.6953 104.871 50.5553 104.834C50.4246 104.797 50.3219 104.722 50.2473 104.61C50.1726 104.489 50.1353 104.358 50.1353 104.218C50.1353 104.078 50.1726 103.943 50.2473 103.812C50.3219 103.672 50.4479 103.569 50.6253 103.504C51.0546 103.327 51.4653 103.201 51.8573 103.126C52.2586 103.051 52.6226 103.014 52.9493 103.014C53.6213 103.014 54.1719 103.117 54.6013 103.322C55.0399 103.527 55.3666 103.84 55.5813 104.26C55.7959 104.671 55.9033 105.203 55.9033 105.856V109.216C55.9033 109.505 55.8333 109.729 55.6933 109.888C55.5533 110.037 55.3526 110.112 55.0913 110.112C54.8299 110.112 54.6246 110.037 54.4753 109.888C54.3353 109.729 54.2653 109.505 54.2653 109.216V108.544H54.3773C54.3119 108.871 54.1813 109.155 53.9853 109.398C53.7986 109.631 53.5606 109.813 53.2713 109.944C52.9819 110.075 52.6506 110.14 52.2773 110.14ZM59.3472 112.632C59.1418 112.632 58.9738 112.576 58.8432 112.464C58.7125 112.361 58.6332 112.221 58.6052 112.044C58.5865 111.867 58.6192 111.68 58.7032 111.484L59.6552 109.37V110.098L57.1072 104.204C57.0232 103.999 56.9952 103.807 57.0232 103.63C57.0512 103.453 57.1352 103.313 57.2752 103.21C57.4245 103.098 57.6252 103.042 57.8772 103.042C58.0918 103.042 58.2645 103.093 58.3952 103.196C58.5258 103.289 58.6425 103.471 58.7452 103.742L60.6352 108.46H60.2152L62.1472 103.728C62.2498 103.467 62.3712 103.289 62.5112 103.196C62.6512 103.093 62.8378 103.042 63.0712 103.042C63.2765 103.042 63.4398 103.098 63.5612 103.21C63.6825 103.313 63.7572 103.453 63.7852 103.63C63.8132 103.798 63.7805 103.985 63.6872 104.19L60.2852 111.96C60.1638 112.221 60.0332 112.399 59.8932 112.492C59.7532 112.585 59.5712 112.632 59.3472 112.632ZM72.3511 110.14C71.9404 110.14 71.5298 110.107 71.1191 110.042C70.7084 109.986 70.3211 109.897 69.9571 109.776C69.5931 109.645 69.2664 109.487 68.9771 109.3C68.8091 109.188 68.6924 109.053 68.6271 108.894C68.5618 108.735 68.5384 108.581 68.5571 108.432C68.5851 108.273 68.6458 108.138 68.7391 108.026C68.8418 107.905 68.9678 107.83 69.1171 107.802C69.2664 107.774 69.4298 107.816 69.6071 107.928C70.0178 108.171 70.4518 108.348 70.9091 108.46C71.3664 108.572 71.8471 108.628 72.3511 108.628C73.0884 108.628 73.6251 108.507 73.9611 108.264C74.2971 108.012 74.4651 107.69 74.4651 107.298C74.4651 106.971 74.3438 106.715 74.1011 106.528C73.8678 106.341 73.4618 106.187 72.8831 106.066L71.3431 105.744C70.4564 105.557 69.7938 105.245 69.3551 104.806C68.9258 104.358 68.7111 103.77 68.7111 103.042C68.7111 102.585 68.8044 102.169 68.9911 101.796C69.1778 101.423 69.4391 101.101 69.7751 100.83C70.1204 100.559 70.5264 100.354 70.9931 100.214C71.4691 100.065 71.9918 99.99 72.5611 99.99C73.1211 99.99 73.6531 100.06 74.1571 100.2C74.6611 100.34 75.1138 100.545 75.5151 100.816C75.6644 100.919 75.7624 101.045 75.8091 101.194C75.8651 101.343 75.8791 101.493 75.8511 101.642C75.8231 101.782 75.7578 101.903 75.6551 102.006C75.5524 102.109 75.4218 102.169 75.2631 102.188C75.1138 102.207 74.9411 102.16 74.7451 102.048C74.3998 101.852 74.0498 101.712 73.6951 101.628C73.3404 101.544 72.9578 101.502 72.5471 101.502C72.1178 101.502 71.7491 101.563 71.4411 101.684C71.1331 101.805 70.8951 101.978 70.7271 102.202C70.5684 102.417 70.4891 102.673 70.4891 102.972C70.4891 103.308 70.6011 103.579 70.8251 103.784C71.0491 103.98 71.4318 104.134 71.9731 104.246L73.4991 104.568C74.4231 104.764 75.1091 105.072 75.5571 105.492C76.0144 105.912 76.2431 106.472 76.2431 107.172C76.2431 107.62 76.1498 108.026 75.9631 108.39C75.7858 108.754 75.5244 109.067 75.1791 109.328C74.8431 109.589 74.4371 109.79 73.9611 109.93C73.4851 110.07 72.9484 110.14 72.3511 110.14ZM78.4811 110.112C78.2011 110.112 77.9865 110.037 77.8371 109.888C77.6878 109.729 77.6131 109.505 77.6131 109.216V100.9C77.6131 100.611 77.6878 100.391 77.8371 100.242C77.9865 100.093 78.2011 100.018 78.4811 100.018C78.7611 100.018 78.9758 100.093 79.1251 100.242C79.2838 100.391 79.3631 100.611 79.3631 100.9V104.526H79.1671C79.3725 104.031 79.6898 103.658 80.1191 103.406C80.5578 103.145 81.0525 103.014 81.6031 103.014C82.1538 103.014 82.6065 103.117 82.9611 103.322C83.3158 103.527 83.5818 103.84 83.7591 104.26C83.9365 104.671 84.0251 105.193 84.0251 105.828V109.216C84.0251 109.505 83.9505 109.729 83.8011 109.888C83.6518 110.037 83.4371 110.112 83.1571 110.112C82.8771 110.112 82.6578 110.037 82.4991 109.888C82.3498 109.729 82.2751 109.505 82.2751 109.216V105.912C82.2751 105.38 82.1725 104.993 81.9671 104.75C81.7711 104.507 81.4631 104.386 81.0431 104.386C80.5298 104.386 80.1191 104.549 79.8111 104.876C79.5125 105.193 79.3631 105.618 79.3631 106.15V109.216C79.3631 109.813 79.0691 110.112 78.4811 110.112ZM86.6706 110.098C86.3906 110.098 86.1759 110.014 86.0266 109.846C85.8772 109.678 85.8026 109.445 85.8026 109.146V104.008C85.8026 103.7 85.8772 103.467 86.0266 103.308C86.1759 103.14 86.3906 103.056 86.6706 103.056C86.9506 103.056 87.1652 103.14 87.3146 103.308C87.4732 103.467 87.5526 103.7 87.5526 104.008V109.146C87.5526 109.445 87.4779 109.678 87.3286 109.846C87.1792 110.014 86.9599 110.098 86.6706 110.098ZM86.6706 101.754C86.3439 101.754 86.0872 101.675 85.9006 101.516C85.7232 101.348 85.6346 101.119 85.6346 100.83C85.6346 100.531 85.7232 100.303 85.9006 100.144C86.0872 99.9853 86.3439 99.906 86.6706 99.906C87.0066 99.906 87.2632 99.9853 87.4406 100.144C87.6179 100.303 87.7066 100.531 87.7066 100.83C87.7066 101.119 87.6179 101.348 87.4406 101.516C87.2632 101.675 87.0066 101.754 86.6706 101.754ZM90.7149 110.112C90.4349 110.112 90.2156 110.037 90.0569 109.888C89.9076 109.729 89.8329 109.505 89.8329 109.216V104.47H89.1889C88.9649 104.47 88.7923 104.414 88.6709 104.302C88.5496 104.181 88.4889 104.017 88.4889 103.812C88.4889 103.597 88.5496 103.434 88.6709 103.322C88.7923 103.21 88.9649 103.154 89.1889 103.154H90.3369L89.8329 103.616V103.14C89.8329 102.179 90.0756 101.46 90.5609 100.984C91.0463 100.499 91.7463 100.214 92.6609 100.13L93.1369 100.088C93.3236 100.069 93.4729 100.102 93.5849 100.186C93.6969 100.261 93.7716 100.363 93.8089 100.494C93.8463 100.615 93.8509 100.741 93.8229 100.872C93.7949 101.003 93.7343 101.119 93.6409 101.222C93.5569 101.315 93.4449 101.367 93.3049 101.376L93.1089 101.39C92.5769 101.427 92.1896 101.563 91.9469 101.796C91.7043 102.029 91.5829 102.384 91.5829 102.86V103.378L91.3589 103.154H92.7729C92.9969 103.154 93.1696 103.21 93.2909 103.322C93.4123 103.434 93.4729 103.597 93.4729 103.812C93.4729 104.017 93.4123 104.181 93.2909 104.302C93.1696 104.414 92.9969 104.47 92.7729 104.47H91.5829V109.216C91.5829 109.813 91.2936 110.112 90.7149 110.112ZM97.2237 110.14C96.6171 110.14 96.1084 110.037 95.6977 109.832C95.2964 109.627 94.9977 109.328 94.8017 108.936C94.6057 108.535 94.5077 108.04 94.5077 107.452V104.47H93.7797C93.5557 104.47 93.3831 104.414 93.2617 104.302C93.1404 104.181 93.0797 104.017 93.0797 103.812C93.0797 103.597 93.1404 103.434 93.2617 103.322C93.3831 103.21 93.5557 103.154 93.7797 103.154H94.5077V101.88C94.5077 101.591 94.5824 101.371 94.7317 101.222C94.8904 101.073 95.1097 100.998 95.3897 100.998C95.6697 100.998 95.8844 101.073 96.0337 101.222C96.1831 101.371 96.2577 101.591 96.2577 101.88V103.154H97.7417C97.9657 103.154 98.1384 103.21 98.2597 103.322C98.3811 103.434 98.4417 103.597 98.4417 103.812C98.4417 104.017 98.3811 104.181 98.2597 104.302C98.1384 104.414 97.9657 104.47 97.7417 104.47H96.2577V107.354C96.2577 107.802 96.3557 108.138 96.5517 108.362C96.7477 108.586 97.0651 108.698 97.5037 108.698C97.6624 108.698 97.8024 108.684 97.9237 108.656C98.0451 108.628 98.1524 108.609 98.2457 108.6C98.3577 108.591 98.4511 108.628 98.5257 108.712C98.6004 108.787 98.6377 108.945 98.6377 109.188C98.6377 109.375 98.6051 109.543 98.5397 109.692C98.4837 109.832 98.3764 109.93 98.2177 109.986C98.0964 110.023 97.9377 110.056 97.7417 110.084C97.5457 110.121 97.3731 110.14 97.2237 110.14Z" fill="#929BAA"/>
</g>
</g>
<g filter="url(#filter3_dd_1096_9435)">
<rect x="117" y="84" width="123" height="43" rx="21.5" fill="white"/>
<rect x="117.5" y="84.5" width="122" height="42" rx="21" stroke="url(#paint0_linear_1096_9435)"/>
<path d="M141 112.167C137.333 112.167 134.333 109.167 134.333 105.5C134.333 102.367 136.6 99.5667 139.667 98.9667C139.933 98.9 140.267 99.0334 140.4 99.3C140.533 99.5667 140.467 99.9 140.267 100.1C139.467 100.9 139 102.033 139 103.167C139 105.567 140.933 107.5 143.333 107.5C144.467 107.5 145.6 107.033 146.4 106.233C146.6 106.033 146.933 105.967 147.2 106.1C147.467 106.233 147.6 106.5 147.533 106.833C146.933 109.9 144.133 112.167 141 112.167ZM138.067 101.033C136.6 102.033 135.667 103.633 135.667 105.5C135.667 108.433 138.067 110.833 141 110.833C142.867 110.833 144.467 109.9 145.467 108.433C144.8 108.7 144.067 108.833 143.333 108.833C140.2 108.833 137.667 106.3 137.667 103.167C137.667 102.433 137.8 101.7 138.067 101.033Z" fill="#64728C"/>
<g filter="url(#filter4_i_1096_9435)">
<path d="M155.151 110.112C154.881 110.112 154.671 110.037 154.521 109.888C154.381 109.739 154.311 109.524 154.311 109.244V100.914C154.311 100.625 154.381 100.405 154.521 100.256C154.671 100.097 154.862 100.018 155.095 100.018C155.31 100.018 155.469 100.06 155.571 100.144C155.683 100.219 155.814 100.349 155.963 100.536L161.325 107.494H160.961V100.872C160.961 100.601 161.031 100.391 161.171 100.242C161.321 100.093 161.531 100.018 161.801 100.018C162.072 100.018 162.277 100.093 162.417 100.242C162.557 100.391 162.627 100.601 162.627 100.872V109.272C162.627 109.533 162.562 109.739 162.431 109.888C162.301 110.037 162.123 110.112 161.899 110.112C161.685 110.112 161.512 110.07 161.381 109.986C161.26 109.902 161.125 109.767 160.975 109.58L155.627 102.622H155.977V109.244C155.977 109.524 155.907 109.739 155.767 109.888C155.627 110.037 155.422 110.112 155.151 110.112ZM165.484 110.098C165.204 110.098 164.989 110.014 164.84 109.846C164.691 109.678 164.616 109.445 164.616 109.146V104.008C164.616 103.7 164.691 103.467 164.84 103.308C164.989 103.14 165.204 103.056 165.484 103.056C165.764 103.056 165.979 103.14 166.128 103.308C166.287 103.467 166.366 103.7 166.366 104.008V109.146C166.366 109.445 166.291 109.678 166.142 109.846C165.993 110.014 165.773 110.098 165.484 110.098ZM165.484 101.754C165.157 101.754 164.901 101.675 164.714 101.516C164.537 101.348 164.448 101.119 164.448 100.83C164.448 100.531 164.537 100.303 164.714 100.144C164.901 99.9853 165.157 99.906 165.484 99.906C165.82 99.906 166.077 99.9853 166.254 100.144C166.431 100.303 166.52 100.531 166.52 100.83C166.52 101.119 166.431 101.348 166.254 101.516C166.077 101.675 165.82 101.754 165.484 101.754ZM171.376 112.66C170.872 112.66 170.382 112.613 169.906 112.52C169.44 112.427 169.015 112.282 168.632 112.086C168.455 111.993 168.334 111.881 168.268 111.75C168.212 111.619 168.194 111.484 168.212 111.344C168.24 111.213 168.296 111.097 168.38 110.994C168.474 110.891 168.586 110.821 168.716 110.784C168.847 110.747 168.982 110.765 169.122 110.84C169.533 111.045 169.92 111.176 170.284 111.232C170.658 111.297 170.975 111.33 171.236 111.33C171.862 111.33 172.328 111.176 172.636 110.868C172.954 110.569 173.112 110.121 173.112 109.524V108.264H173.238C173.098 108.74 172.804 109.123 172.356 109.412C171.918 109.692 171.418 109.832 170.858 109.832C170.242 109.832 169.706 109.692 169.248 109.412C168.791 109.123 168.436 108.721 168.184 108.208C167.932 107.695 167.806 107.097 167.806 106.416C167.806 105.903 167.876 105.441 168.016 105.03C168.166 104.61 168.371 104.251 168.632 103.952C168.903 103.653 169.225 103.425 169.598 103.266C169.981 103.098 170.401 103.014 170.858 103.014C171.437 103.014 171.941 103.159 172.37 103.448C172.809 103.728 173.094 104.101 173.224 104.568L173.084 104.918V103.924C173.084 103.635 173.159 103.415 173.308 103.266C173.467 103.117 173.682 103.042 173.952 103.042C174.232 103.042 174.447 103.117 174.596 103.266C174.746 103.415 174.82 103.635 174.82 103.924V109.314C174.82 110.425 174.526 111.26 173.938 111.82C173.35 112.38 172.496 112.66 171.376 112.66ZM171.334 108.502C171.698 108.502 172.011 108.418 172.272 108.25C172.534 108.082 172.734 107.844 172.874 107.536C173.024 107.219 173.098 106.845 173.098 106.416C173.098 105.772 172.94 105.268 172.622 104.904C172.305 104.531 171.876 104.344 171.334 104.344C170.97 104.344 170.658 104.428 170.396 104.596C170.135 104.764 169.93 105.002 169.78 105.31C169.64 105.618 169.57 105.987 169.57 106.416C169.57 107.06 169.729 107.569 170.046 107.942C170.364 108.315 170.793 108.502 171.334 108.502ZM177.502 110.112C177.222 110.112 177.007 110.037 176.858 109.888C176.708 109.729 176.634 109.505 176.634 109.216V100.9C176.634 100.611 176.708 100.391 176.858 100.242C177.007 100.093 177.222 100.018 177.502 100.018C177.782 100.018 177.996 100.093 178.146 100.242C178.304 100.391 178.384 100.611 178.384 100.9V104.526H178.188C178.393 104.031 178.71 103.658 179.14 103.406C179.578 103.145 180.073 103.014 180.624 103.014C181.174 103.014 181.627 103.117 181.982 103.322C182.336 103.527 182.602 103.84 182.78 104.26C182.957 104.671 183.046 105.193 183.046 105.828V109.216C183.046 109.505 182.971 109.729 182.822 109.888C182.672 110.037 182.458 110.112 182.178 110.112C181.898 110.112 181.678 110.037 181.52 109.888C181.37 109.729 181.296 109.505 181.296 109.216V105.912C181.296 105.38 181.193 104.993 180.988 104.75C180.792 104.507 180.484 104.386 180.064 104.386C179.55 104.386 179.14 104.549 178.832 104.876C178.533 105.193 178.384 105.618 178.384 106.15V109.216C178.384 109.813 178.09 110.112 177.502 110.112ZM187.959 110.14C187.352 110.14 186.844 110.037 186.433 109.832C186.032 109.627 185.733 109.328 185.537 108.936C185.341 108.535 185.243 108.04 185.243 107.452V104.47H184.515C184.291 104.47 184.118 104.414 183.997 104.302C183.876 104.181 183.815 104.017 183.815 103.812C183.815 103.597 183.876 103.434 183.997 103.322C184.118 103.21 184.291 103.154 184.515 103.154H185.243V101.88C185.243 101.591 185.318 101.371 185.467 101.222C185.626 101.073 185.845 100.998 186.125 100.998C186.405 100.998 186.62 101.073 186.769 101.222C186.918 101.371 186.993 101.591 186.993 101.88V103.154H188.477C188.701 103.154 188.874 103.21 188.995 103.322C189.116 103.434 189.177 103.597 189.177 103.812C189.177 104.017 189.116 104.181 188.995 104.302C188.874 104.414 188.701 104.47 188.477 104.47H186.993V107.354C186.993 107.802 187.091 108.138 187.287 108.362C187.483 108.586 187.8 108.698 188.239 108.698C188.398 108.698 188.538 108.684 188.659 108.656C188.78 108.628 188.888 108.609 188.981 108.6C189.093 108.591 189.186 108.628 189.261 108.712C189.336 108.787 189.373 108.945 189.373 109.188C189.373 109.375 189.34 109.543 189.275 109.692C189.219 109.832 189.112 109.93 188.953 109.986C188.832 110.023 188.673 110.056 188.477 110.084C188.281 110.121 188.108 110.14 187.959 110.14ZM197.567 110.14C197.156 110.14 196.746 110.107 196.335 110.042C195.924 109.986 195.537 109.897 195.173 109.776C194.809 109.645 194.482 109.487 194.193 109.3C194.025 109.188 193.908 109.053 193.843 108.894C193.778 108.735 193.754 108.581 193.773 108.432C193.801 108.273 193.862 108.138 193.955 108.026C194.058 107.905 194.184 107.83 194.333 107.802C194.482 107.774 194.646 107.816 194.823 107.928C195.234 108.171 195.668 108.348 196.125 108.46C196.582 108.572 197.063 108.628 197.567 108.628C198.304 108.628 198.841 108.507 199.177 108.264C199.513 108.012 199.681 107.69 199.681 107.298C199.681 106.971 199.56 106.715 199.317 106.528C199.084 106.341 198.678 106.187 198.099 106.066L196.559 105.744C195.672 105.557 195.01 105.245 194.571 104.806C194.142 104.358 193.927 103.77 193.927 103.042C193.927 102.585 194.02 102.169 194.207 101.796C194.394 101.423 194.655 101.101 194.991 100.83C195.336 100.559 195.742 100.354 196.209 100.214C196.685 100.065 197.208 99.99 197.777 99.99C198.337 99.99 198.869 100.06 199.373 100.2C199.877 100.34 200.33 100.545 200.731 100.816C200.88 100.919 200.978 101.045 201.025 101.194C201.081 101.343 201.095 101.493 201.067 101.642C201.039 101.782 200.974 101.903 200.871 102.006C200.768 102.109 200.638 102.169 200.479 102.188C200.33 102.207 200.157 102.16 199.961 102.048C199.616 101.852 199.266 101.712 198.911 101.628C198.556 101.544 198.174 101.502 197.763 101.502C197.334 101.502 196.965 101.563 196.657 101.684C196.349 101.805 196.111 101.978 195.943 102.202C195.784 102.417 195.705 102.673 195.705 102.972C195.705 103.308 195.817 103.579 196.041 103.784C196.265 103.98 196.648 104.134 197.189 104.246L198.715 104.568C199.639 104.764 200.325 105.072 200.773 105.492C201.23 105.912 201.459 106.472 201.459 107.172C201.459 107.62 201.366 108.026 201.179 108.39C201.002 108.754 200.74 109.067 200.395 109.328C200.059 109.589 199.653 109.79 199.177 109.93C198.701 110.07 198.164 110.14 197.567 110.14ZM203.697 110.112C203.417 110.112 203.202 110.037 203.053 109.888C202.904 109.729 202.829 109.505 202.829 109.216V100.9C202.829 100.611 202.904 100.391 203.053 100.242C203.202 100.093 203.417 100.018 203.697 100.018C203.977 100.018 204.192 100.093 204.341 100.242C204.5 100.391 204.579 100.611 204.579 100.9V104.526H204.383C204.588 104.031 204.906 103.658 205.335 103.406C205.774 103.145 206.268 103.014 206.819 103.014C207.37 103.014 207.822 103.117 208.177 103.322C208.532 103.527 208.798 103.84 208.975 104.26C209.152 104.671 209.241 105.193 209.241 105.828V109.216C209.241 109.505 209.166 109.729 209.017 109.888C208.868 110.037 208.653 110.112 208.373 110.112C208.093 110.112 207.874 110.037 207.715 109.888C207.566 109.729 207.491 109.505 207.491 109.216V105.912C207.491 105.38 207.388 104.993 207.183 104.75C206.987 104.507 206.679 104.386 206.259 104.386C205.746 104.386 205.335 104.549 205.027 104.876C204.728 105.193 204.579 105.618 204.579 106.15V109.216C204.579 109.813 204.285 110.112 203.697 110.112ZM211.886 110.098C211.606 110.098 211.392 110.014 211.242 109.846C211.093 109.678 211.018 109.445 211.018 109.146V104.008C211.018 103.7 211.093 103.467 211.242 103.308C211.392 103.14 211.606 103.056 211.886 103.056C212.166 103.056 212.381 103.14 212.53 103.308C212.689 103.467 212.768 103.7 212.768 104.008V109.146C212.768 109.445 212.694 109.678 212.544 109.846C212.395 110.014 212.176 110.098 211.886 110.098ZM211.886 101.754C211.56 101.754 211.303 101.675 211.116 101.516C210.939 101.348 210.85 101.119 210.85 100.83C210.85 100.531 210.939 100.303 211.116 100.144C211.303 99.9853 211.56 99.906 211.886 99.906C212.222 99.906 212.479 99.9853 212.656 100.144C212.834 100.303 212.922 100.531 212.922 100.83C212.922 101.119 212.834 101.348 212.656 101.516C212.479 101.675 212.222 101.754 211.886 101.754ZM215.931 110.112C215.651 110.112 215.431 110.037 215.273 109.888C215.123 109.729 215.049 109.505 215.049 109.216V104.47H214.405C214.181 104.47 214.008 104.414 213.887 104.302C213.765 104.181 213.705 104.017 213.705 103.812C213.705 103.597 213.765 103.434 213.887 103.322C214.008 103.21 214.181 103.154 214.405 103.154H215.553L215.049 103.616V103.14C215.049 102.179 215.291 101.46 215.777 100.984C216.262 100.499 216.962 100.214 217.877 100.13L218.353 100.088C218.539 100.069 218.689 100.102 218.801 100.186C218.913 100.261 218.987 100.363 219.025 100.494C219.062 100.615 219.067 100.741 219.039 100.872C219.011 101.003 218.95 101.119 218.857 101.222C218.773 101.315 218.661 101.367 218.521 101.376L218.325 101.39C217.793 101.427 217.405 101.563 217.163 101.796C216.92 102.029 216.799 102.384 216.799 102.86V103.378L216.575 103.154H217.989C218.213 103.154 218.385 103.21 218.507 103.322C218.628 103.434 218.689 103.597 218.689 103.812C218.689 104.017 218.628 104.181 218.507 104.302C218.385 104.414 218.213 104.47 217.989 104.47H216.799V109.216C216.799 109.813 216.509 110.112 215.931 110.112ZM222.44 110.14C221.833 110.14 221.324 110.037 220.914 109.832C220.512 109.627 220.214 109.328 220.018 108.936C219.822 108.535 219.724 108.04 219.724 107.452V104.47H218.996C218.772 104.47 218.599 104.414 218.478 104.302C218.356 104.181 218.296 104.017 218.296 103.812C218.296 103.597 218.356 103.434 218.478 103.322C218.599 103.21 218.772 103.154 218.996 103.154H219.724V101.88C219.724 101.591 219.798 101.371 219.948 101.222C220.106 101.073 220.326 100.998 220.606 100.998C220.886 100.998 221.1 101.073 221.25 101.222C221.399 101.371 221.474 101.591 221.474 101.88V103.154H222.958C223.182 103.154 223.354 103.21 223.476 103.322C223.597 103.434 223.658 103.597 223.658 103.812C223.658 104.017 223.597 104.181 223.476 104.302C223.354 104.414 223.182 104.47 222.958 104.47H221.474V107.354C221.474 107.802 221.572 108.138 221.768 108.362C221.964 108.586 222.281 108.698 222.72 108.698C222.878 108.698 223.018 108.684 223.14 108.656C223.261 108.628 223.368 108.609 223.462 108.6C223.574 108.591 223.667 108.628 223.742 108.712C223.816 108.787 223.854 108.945 223.854 109.188C223.854 109.375 223.821 109.543 223.756 109.692C223.7 109.832 223.592 109.93 223.434 109.986C223.312 110.023 223.154 110.056 222.958 110.084C222.762 110.121 222.589 110.14 222.44 110.14Z" fill="#64728C"/>
</g>
</g>
<g filter="url(#filter5_dd_1096_9435)">
<g clip-path="url(#clip1_1096_9435)">
<path d="M265.697 100.739C264.123 104.404 266.54 107.932 269.601 108.6C268.866 109.718 266.684 110.822 264.45 110.053C262.281 109.306 260.89 107.072 261.232 104.888C261.598 102.551 263.478 100.791 265.696 100.739H265.697Z" fill="#929BAA"/>
<path d="M266.812 103.089C266.818 101.195 268.205 99.5221 270.079 99.1474C270.455 99.0724 270.809 99.0934 271.051 99.4441C271.277 99.7724 271.211 100.093 271.028 100.426C270.09 102.142 271.171 104.019 273.128 104.073C273.486 104.083 273.762 104.2 273.919 104.53C274.075 104.858 273.994 105.155 273.789 105.439C272.813 106.787 271.048 107.4 269.551 106.905C267.941 106.373 266.807 104.792 266.812 103.088V103.089Z" fill="#929BAA"/>
<path d="M266.822 112.311C266.807 112.497 266.811 112.686 266.775 112.867C266.697 113.245 266.372 113.501 266.001 113.501C265.632 113.501 265.288 113.245 265.235 112.864C265.187 112.523 265.184 112.168 265.213 111.824C265.25 111.382 265.596 111.1 266.022 111.109C266.43 111.118 266.742 111.399 266.796 111.826C266.816 111.985 266.799 112.15 266.799 112.31C266.807 112.31 266.813 112.31 266.82 112.31L266.822 112.311Z" fill="#929BAA"/>
<path d="M259.219 104.677C259.42 104.696 259.621 104.694 259.813 104.741C260.164 104.825 260.383 105.119 260.393 105.472C260.404 105.847 260.194 106.198 259.829 106.247C259.417 106.303 258.987 106.3 258.573 106.247C258.231 106.205 258.005 105.85 258 105.51C257.996 105.155 258.234 104.825 258.591 104.741C258.795 104.693 259.009 104.696 259.219 104.677Z" fill="#929BAA"/>
<path d="M262.26 110.147C262.226 110.224 262.187 110.405 262.082 110.529C261.875 110.775 261.644 111.008 261.398 111.216C261.077 111.487 260.636 111.456 260.345 111.172C260.056 110.891 260.008 110.441 260.273 110.122C260.488 109.864 260.729 109.627 260.984 109.41C261.233 109.198 261.533 109.182 261.824 109.327C262.116 109.474 262.26 109.723 262.26 110.147Z" fill="#929BAA"/>
<path d="M266.826 98.7201C266.807 98.9195 266.808 99.1218 266.762 99.3121C266.673 99.6779 266.367 99.8952 265.993 99.8922C265.637 99.8892 265.3 99.6794 265.255 99.3301C265.201 98.9165 265.202 98.4863 265.255 98.0741C265.298 97.7309 265.651 97.5046 265.993 97.5001C266.346 97.4956 266.678 97.7339 266.762 98.0906C266.81 98.2944 266.807 98.5088 266.826 98.7201Z" fill="#929BAA"/>
<path d="M261.543 101.841C261.29 101.728 261.1 101.683 260.963 101.572C260.731 101.385 260.519 101.169 260.324 100.943C260.042 100.619 260.068 100.149 260.357 99.8578C260.648 99.567 261.119 99.5415 261.443 99.8233C261.677 100.027 261.899 100.252 262.098 100.49C262.308 100.742 262.35 101.064 262.163 101.325C262.011 101.536 261.753 101.671 261.545 101.839L261.543 101.841Z" fill="#929BAA"/>
<path d="M270.461 109.161C270.715 109.275 270.905 109.318 271.041 109.429C271.272 109.617 271.484 109.834 271.68 110.059C271.964 110.385 271.938 110.853 271.647 111.144C271.356 111.435 270.887 111.46 270.562 111.175C270.328 110.97 270.106 110.748 269.906 110.51C269.696 110.258 269.654 109.936 269.843 109.675C269.996 109.464 270.253 109.329 270.461 109.161Z" fill="#929BAA"/>
<path d="M265.697 100.739C264.123 104.404 266.54 107.932 269.601 108.6C268.866 109.718 266.684 110.822 264.45 110.053C262.281 109.306 260.89 107.072 261.232 104.888C261.598 102.551 263.478 100.791 265.696 100.739H265.697Z" fill="#929BAA"/>
<path d="M266.812 103.089C266.818 101.195 268.205 99.5221 270.079 99.1474C270.455 99.0724 270.809 99.0934 271.051 99.4441C271.277 99.7724 271.211 100.093 271.028 100.426C270.09 102.142 271.171 104.019 273.128 104.073C273.486 104.083 273.762 104.2 273.919 104.53C274.075 104.858 273.994 105.155 273.789 105.439C272.813 106.787 271.048 107.4 269.551 106.905C267.941 106.373 266.807 104.792 266.812 103.088V103.089Z" fill="#929BAA"/>
<path d="M266.822 112.311C266.807 112.497 266.811 112.686 266.775 112.867C266.697 113.245 266.372 113.501 266.001 113.501C265.632 113.501 265.288 113.245 265.235 112.864C265.187 112.523 265.184 112.168 265.213 111.824C265.25 111.382 265.596 111.1 266.022 111.109C266.43 111.118 266.742 111.399 266.796 111.826C266.816 111.985 266.799 112.15 266.799 112.31C266.807 112.31 266.813 112.31 266.82 112.31L266.822 112.311Z" fill="#929BAA"/>
<path d="M259.219 104.677C259.42 104.696 259.621 104.694 259.813 104.741C260.164 104.825 260.383 105.119 260.393 105.472C260.404 105.847 260.194 106.198 259.829 106.247C259.417 106.303 258.987 106.3 258.573 106.247C258.231 106.205 258.005 105.85 258 105.51C257.996 105.155 258.234 104.825 258.591 104.741C258.795 104.693 259.009 104.696 259.219 104.677Z" fill="#929BAA"/>
<path d="M262.26 110.147C262.226 110.224 262.187 110.405 262.082 110.529C261.875 110.775 261.644 111.008 261.398 111.216C261.077 111.487 260.636 111.456 260.345 111.172C260.056 110.891 260.008 110.441 260.273 110.122C260.488 109.864 260.729 109.627 260.984 109.41C261.233 109.198 261.533 109.182 261.824 109.327C262.116 109.474 262.26 109.723 262.26 110.147Z" fill="#929BAA"/>
<path d="M266.826 98.7201C266.807 98.9195 266.808 99.1218 266.762 99.3121C266.673 99.6779 266.367 99.8952 265.993 99.8922C265.637 99.8892 265.3 99.6794 265.255 99.3301C265.201 98.9165 265.202 98.4863 265.255 98.0741C265.298 97.7309 265.651 97.5046 265.993 97.5001C266.346 97.4956 266.678 97.7339 266.762 98.0906C266.81 98.2944 266.807 98.5088 266.826 98.7201Z" fill="#929BAA"/>
<path d="M261.543 101.841C261.29 101.728 261.1 101.683 260.963 101.572C260.731 101.385 260.519 101.169 260.324 100.943C260.042 100.619 260.068 100.149 260.357 99.8578C260.648 99.567 261.119 99.5415 261.443 99.8233C261.677 100.027 261.899 100.252 262.098 100.49C262.308 100.742 262.35 101.064 262.163 101.325C262.011 101.536 261.753 101.671 261.545 101.839L261.543 101.841Z" fill="#929BAA"/>
<path d="M270.461 109.161C270.715 109.275 270.905 109.318 271.041 109.429C271.272 109.617 271.484 109.834 271.68 110.059C271.964 110.385 271.938 110.853 271.647 111.144C271.356 111.435 270.887 111.46 270.562 111.175C270.328 110.97 270.106 110.748 269.906 110.51C269.696 110.258 269.654 109.936 269.843 109.675C269.996 109.464 270.253 109.329 270.461 109.161Z" fill="#929BAA"/>
</g>
<g filter="url(#filter6_i_1096_9435)">
<path d="M280.391 110C280.083 110 279.845 109.921 279.677 109.762C279.519 109.594 279.439 109.356 279.439 109.048V101.082C279.439 100.774 279.519 100.541 279.677 100.382C279.845 100.214 280.083 100.13 280.391 100.13H283.107C284.759 100.13 286.033 100.555 286.929 101.404C287.835 102.253 288.287 103.471 288.287 105.058C288.287 105.851 288.171 106.556 287.937 107.172C287.713 107.779 287.377 108.292 286.929 108.712C286.491 109.132 285.949 109.454 285.305 109.678C284.671 109.893 283.938 110 283.107 110H280.391ZM281.231 108.516H282.995C283.574 108.516 284.073 108.446 284.493 108.306C284.923 108.157 285.277 107.942 285.557 107.662C285.847 107.373 286.061 107.013 286.201 106.584C286.341 106.145 286.411 105.637 286.411 105.058C286.411 103.901 286.127 103.037 285.557 102.468C284.988 101.899 284.134 101.614 282.995 101.614H281.231V108.516ZM292.189 110.14C291.695 110.14 291.251 110.047 290.859 109.86C290.477 109.664 290.173 109.403 289.949 109.076C289.735 108.749 289.627 108.381 289.627 107.97C289.627 107.466 289.758 107.069 290.019 106.78C290.281 106.481 290.705 106.267 291.293 106.136C291.881 106.005 292.67 105.94 293.659 105.94H294.359V106.948H293.673C293.095 106.948 292.633 106.976 292.287 107.032C291.942 107.088 291.695 107.186 291.545 107.326C291.405 107.457 291.335 107.643 291.335 107.886C291.335 108.194 291.443 108.446 291.657 108.642C291.872 108.838 292.171 108.936 292.553 108.936C292.861 108.936 293.132 108.866 293.365 108.726C293.608 108.577 293.799 108.376 293.939 108.124C294.079 107.872 294.149 107.583 294.149 107.256V105.646C294.149 105.179 294.047 104.843 293.841 104.638C293.636 104.433 293.291 104.33 292.805 104.33C292.535 104.33 292.241 104.363 291.923 104.428C291.615 104.493 291.289 104.605 290.943 104.764C290.766 104.848 290.607 104.871 290.467 104.834C290.337 104.797 290.234 104.722 290.159 104.61C290.085 104.489 290.047 104.358 290.047 104.218C290.047 104.078 290.085 103.943 290.159 103.812C290.234 103.672 290.36 103.569 290.537 103.504C290.967 103.327 291.377 103.201 291.769 103.126C292.171 103.051 292.535 103.014 292.861 103.014C293.533 103.014 294.084 103.117 294.513 103.322C294.952 103.527 295.279 103.84 295.493 104.26C295.708 104.671 295.815 105.203 295.815 105.856V109.216C295.815 109.505 295.745 109.729 295.605 109.888C295.465 110.037 295.265 110.112 295.003 110.112C294.742 110.112 294.537 110.037 294.387 109.888C294.247 109.729 294.177 109.505 294.177 109.216V108.544H294.289C294.224 108.871 294.093 109.155 293.897 109.398C293.711 109.631 293.473 109.813 293.183 109.944C292.894 110.075 292.563 110.14 292.189 110.14ZM299.259 112.632C299.054 112.632 298.886 112.576 298.755 112.464C298.625 112.361 298.545 112.221 298.517 112.044C298.499 111.867 298.531 111.68 298.615 111.484L299.567 109.37V110.098L297.019 104.204C296.935 103.999 296.907 103.807 296.935 103.63C296.963 103.453 297.047 103.313 297.187 103.21C297.337 103.098 297.537 103.042 297.789 103.042C298.004 103.042 298.177 103.093 298.307 103.196C298.438 103.289 298.555 103.471 298.657 103.742L300.547 108.46H300.127L302.059 103.728C302.162 103.467 302.283 103.289 302.423 103.196C302.563 103.093 302.75 103.042 302.983 103.042C303.189 103.042 303.352 103.098 303.473 103.21C303.595 103.313 303.669 103.453 303.697 103.63C303.725 103.798 303.693 103.985 303.599 104.19L300.197 111.96C300.076 112.221 299.945 112.399 299.805 112.492C299.665 112.585 299.483 112.632 299.259 112.632ZM308.959 110.112C308.735 110.112 308.553 110.061 308.413 109.958C308.283 109.855 308.203 109.72 308.175 109.552C308.147 109.375 308.18 109.179 308.273 108.964L311.969 100.774C312.091 100.503 312.235 100.312 312.403 100.2C312.581 100.079 312.781 100.018 313.005 100.018C313.22 100.018 313.411 100.079 313.579 100.2C313.757 100.312 313.906 100.503 314.027 100.774L317.737 108.964C317.84 109.179 317.877 109.375 317.849 109.552C317.821 109.729 317.742 109.869 317.611 109.972C317.481 110.065 317.308 110.112 317.093 110.112C316.832 110.112 316.627 110.051 316.477 109.93C316.337 109.799 316.211 109.603 316.099 109.342L315.189 107.228L315.945 107.718H310.037L310.793 107.228L309.897 109.342C309.776 109.613 309.65 109.809 309.519 109.93C309.389 110.051 309.202 110.112 308.959 110.112ZM312.977 102.076L311.017 106.738L310.653 106.29H315.329L314.979 106.738L313.005 102.076H312.977ZM319.979 110.112C319.699 110.112 319.485 110.037 319.335 109.888C319.186 109.729 319.111 109.505 319.111 109.216V103.924C319.111 103.635 319.186 103.415 319.335 103.266C319.485 103.117 319.695 103.042 319.965 103.042C320.236 103.042 320.446 103.117 320.595 103.266C320.745 103.415 320.819 103.635 320.819 103.924V104.876L320.665 104.526C320.871 104.031 321.188 103.658 321.617 103.406C322.056 103.145 322.551 103.014 323.101 103.014C323.652 103.014 324.105 103.117 324.459 103.322C324.814 103.527 325.08 103.84 325.257 104.26C325.435 104.671 325.523 105.193 325.523 105.828V109.216C325.523 109.505 325.449 109.729 325.299 109.888C325.15 110.037 324.935 110.112 324.655 110.112C324.375 110.112 324.156 110.037 323.997 109.888C323.848 109.729 323.773 109.505 323.773 109.216V105.912C323.773 105.38 323.671 104.993 323.465 104.75C323.269 104.507 322.961 104.386 322.541 104.386C322.028 104.386 321.617 104.549 321.309 104.876C321.011 105.193 320.861 105.618 320.861 106.15V109.216C320.861 109.813 320.567 110.112 319.979 110.112ZM329.933 110.14C329.335 110.14 328.808 109.995 328.351 109.706C327.903 109.417 327.553 109.006 327.301 108.474C327.049 107.933 326.923 107.298 326.923 106.57C326.923 105.833 327.049 105.203 327.301 104.68C327.553 104.148 327.903 103.737 328.351 103.448C328.808 103.159 329.335 103.014 329.933 103.014C330.502 103.014 330.997 103.154 331.417 103.434C331.846 103.714 332.135 104.083 332.285 104.54H332.131V100.9C332.131 100.611 332.205 100.391 332.355 100.242C332.504 100.093 332.719 100.018 332.999 100.018C333.279 100.018 333.493 100.093 333.643 100.242C333.801 100.391 333.881 100.611 333.881 100.9V109.216C333.881 109.505 333.806 109.729 333.657 109.888C333.507 110.037 333.293 110.112 333.013 110.112C332.733 110.112 332.518 110.037 332.369 109.888C332.219 109.729 332.145 109.505 332.145 109.216V108.124L332.299 108.544C332.159 109.029 331.874 109.417 331.445 109.706C331.015 109.995 330.511 110.14 329.933 110.14ZM330.423 108.81C330.768 108.81 331.071 108.726 331.333 108.558C331.594 108.39 331.795 108.143 331.935 107.816C332.084 107.48 332.159 107.065 332.159 106.57C332.159 105.823 332 105.268 331.683 104.904C331.365 104.531 330.945 104.344 330.423 104.344C330.077 104.344 329.774 104.428 329.513 104.596C329.251 104.755 329.046 105.002 328.897 105.338C328.757 105.665 328.687 106.075 328.687 106.57C328.687 107.307 328.845 107.867 329.163 108.25C329.48 108.623 329.9 108.81 330.423 108.81ZM340.504 110.112C340.233 110.112 340.023 110.037 339.874 109.888C339.734 109.739 339.664 109.524 339.664 109.244V100.914C339.664 100.625 339.734 100.405 339.874 100.256C340.023 100.097 340.215 100.018 340.448 100.018C340.663 100.018 340.821 100.06 340.924 100.144C341.036 100.219 341.167 100.349 341.316 100.536L346.678 107.494H346.314V100.872C346.314 100.601 346.384 100.391 346.524 100.242C346.673 100.093 346.883 100.018 347.154 100.018C347.425 100.018 347.63 100.093 347.77 100.242C347.91 100.391 347.98 100.601 347.98 100.872V109.272C347.98 109.533 347.915 109.739 347.784 109.888C347.653 110.037 347.476 110.112 347.252 110.112C347.037 110.112 346.865 110.07 346.734 109.986C346.613 109.902 346.477 109.767 346.328 109.58L340.98 102.622H341.33V109.244C341.33 109.524 341.26 109.739 341.12 109.888C340.98 110.037 340.775 110.112 340.504 110.112ZM350.837 110.098C350.557 110.098 350.342 110.014 350.193 109.846C350.043 109.678 349.969 109.445 349.969 109.146V104.008C349.969 103.7 350.043 103.467 350.193 103.308C350.342 103.14 350.557 103.056 350.837 103.056C351.117 103.056 351.331 103.14 351.481 103.308C351.639 103.467 351.719 103.7 351.719 104.008V109.146C351.719 109.445 351.644 109.678 351.495 109.846C351.345 110.014 351.126 110.098 350.837 110.098ZM350.837 101.754C350.51 101.754 350.253 101.675 350.067 101.516C349.889 101.348 349.801 101.119 349.801 100.83C349.801 100.531 349.889 100.303 350.067 100.144C350.253 99.9853 350.51 99.906 350.837 99.906C351.173 99.906 351.429 99.9853 351.607 100.144C351.784 100.303 351.873 100.531 351.873 100.83C351.873 101.119 351.784 101.348 351.607 101.516C351.429 101.675 351.173 101.754 350.837 101.754ZM356.729 112.66C356.225 112.66 355.735 112.613 355.259 112.52C354.792 112.427 354.368 112.282 353.985 112.086C353.808 111.993 353.686 111.881 353.621 111.75C353.565 111.619 353.546 111.484 353.565 111.344C353.593 111.213 353.649 111.097 353.733 110.994C353.826 110.891 353.938 110.821 354.069 110.784C354.2 110.747 354.335 110.765 354.475 110.84C354.886 111.045 355.273 111.176 355.637 111.232C356.01 111.297 356.328 111.33 356.589 111.33C357.214 111.33 357.681 111.176 357.989 110.868C358.306 110.569 358.465 110.121 358.465 109.524V108.264H358.591C358.451 108.74 358.157 109.123 357.709 109.412C357.27 109.692 356.771 109.832 356.211 109.832C355.595 109.832 355.058 109.692 354.601 109.412C354.144 109.123 353.789 108.721 353.537 108.208C353.285 107.695 353.159 107.097 353.159 106.416C353.159 105.903 353.229 105.441 353.369 105.03C353.518 104.61 353.724 104.251 353.985 103.952C354.256 103.653 354.578 103.425 354.951 103.266C355.334 103.098 355.754 103.014 356.211 103.014C356.79 103.014 357.294 103.159 357.723 103.448C358.162 103.728 358.446 104.101 358.577 104.568L358.437 104.918V103.924C358.437 103.635 358.512 103.415 358.661 103.266C358.82 103.117 359.034 103.042 359.305 103.042C359.585 103.042 359.8 103.117 359.949 103.266C360.098 103.415 360.173 103.635 360.173 103.924V109.314C360.173 110.425 359.879 111.26 359.291 111.82C358.703 112.38 357.849 112.66 356.729 112.66ZM356.687 108.502C357.051 108.502 357.364 108.418 357.625 108.25C357.886 108.082 358.087 107.844 358.227 107.536C358.376 107.219 358.451 106.845 358.451 106.416C358.451 105.772 358.292 105.268 357.975 104.904C357.658 104.531 357.228 104.344 356.687 104.344C356.323 104.344 356.01 104.428 355.749 104.596C355.488 104.764 355.282 105.002 355.133 105.31C354.993 105.618 354.923 105.987 354.923 106.416C354.923 107.06 355.082 107.569 355.399 107.942C355.716 108.315 356.146 108.502 356.687 108.502ZM362.854 110.112C362.574 110.112 362.36 110.037 362.21 109.888C362.061 109.729 361.986 109.505 361.986 109.216V100.9C361.986 100.611 362.061 100.391 362.21 100.242C362.36 100.093 362.574 100.018 362.854 100.018C363.134 100.018 363.349 100.093 363.498 100.242C363.657 100.391 363.736 100.611 363.736 100.9V104.526H363.54C363.746 104.031 364.063 103.658 364.492 103.406C364.931 103.145 365.426 103.014 365.976 103.014C366.527 103.014 366.98 103.117 367.334 103.322C367.689 103.527 367.955 103.84 368.132 104.26C368.31 104.671 368.398 105.193 368.398 105.828V109.216C368.398 109.505 368.324 109.729 368.174 109.888C368.025 110.037 367.81 110.112 367.53 110.112C367.25 110.112 367.031 110.037 366.872 109.888C366.723 109.729 366.648 109.505 366.648 109.216V105.912C366.648 105.38 366.546 104.993 366.34 104.75C366.144 104.507 365.836 104.386 365.416 104.386C364.903 104.386 364.492 104.549 364.184 104.876C363.886 105.193 363.736 105.618 363.736 106.15V109.216C363.736 109.813 363.442 110.112 362.854 110.112ZM373.312 110.14C372.705 110.14 372.196 110.037 371.786 109.832C371.384 109.627 371.086 109.328 370.89 108.936C370.694 108.535 370.596 108.04 370.596 107.452V104.47H369.868C369.644 104.47 369.471 104.414 369.35 104.302C369.228 104.181 369.168 104.017 369.168 103.812C369.168 103.597 369.228 103.434 369.35 103.322C369.471 103.21 369.644 103.154 369.868 103.154H370.596V101.88C370.596 101.591 370.67 101.371 370.82 101.222C370.978 101.073 371.198 100.998 371.478 100.998C371.758 100.998 371.972 101.073 372.122 101.222C372.271 101.371 372.346 101.591 372.346 101.88V103.154H373.83C374.054 103.154 374.226 103.21 374.348 103.322C374.469 103.434 374.53 103.597 374.53 103.812C374.53 104.017 374.469 104.181 374.348 104.302C374.226 104.414 374.054 104.47 373.83 104.47H372.346V107.354C372.346 107.802 372.444 108.138 372.64 108.362C372.836 108.586 373.153 108.698 373.592 108.698C373.75 108.698 373.89 108.684 374.012 108.656C374.133 108.628 374.24 108.609 374.334 108.6C374.446 108.591 374.539 108.628 374.614 108.712C374.688 108.787 374.726 108.945 374.726 109.188C374.726 109.375 374.693 109.543 374.628 109.692C374.572 109.832 374.464 109.93 374.306 109.986C374.184 110.023 374.026 110.056 373.83 110.084C373.634 110.121 373.461 110.14 373.312 110.14Z" fill="#929BAA"/>
</g>
</g>
</g>
<g filter="url(#filter7_i_1096_9435)">
<g clip-path="url(#clip2_1096_9435)">
<rect width="234" height="51" rx="25.5" fill="#64728C" fill-opacity="0.07"/>
<g filter="url(#filter8_dd_1096_9435)">
<rect x="4" y="4" width="103" height="43" rx="21.5" fill="white"/>
<rect x="4.5" y="4.5" width="102" height="42" rx="21" stroke="url(#paint1_linear_1096_9435)"/>
<g filter="url(#filter9_i_1096_9435)">
<path d="M24.7544 30.14C24.3437 30.14 23.9331 30.1073 23.5224 30.042C23.1117 29.986 22.7244 29.8973 22.3604 29.776C21.9964 29.6453 21.6697 29.4867 21.3804 29.3C21.2124 29.188 21.0957 29.0527 21.0304 28.894C20.9651 28.7353 20.9417 28.5813 20.9604 28.432C20.9884 28.2733 21.0491 28.138 21.1424 28.026C21.2451 27.9047 21.3711 27.83 21.5204 27.802C21.6697 27.774 21.8331 27.816 22.0104 27.928C22.4211 28.1707 22.8551 28.348 23.3124 28.46C23.7697 28.572 24.2504 28.628 24.7544 28.628C25.4917 28.628 26.0284 28.5067 26.3644 28.264C26.7004 28.012 26.8684 27.69 26.8684 27.298C26.8684 26.9713 26.7471 26.7147 26.5044 26.528C26.2711 26.3413 25.8651 26.1873 25.2864 26.066L23.7464 25.744C22.8597 25.5573 22.1971 25.2447 21.7584 24.806C21.3291 24.358 21.1144 23.77 21.1144 23.042C21.1144 22.5847 21.2077 22.1693 21.3944 21.796C21.5811 21.4227 21.8424 21.1007 22.1784 20.83C22.5237 20.5593 22.9297 20.354 23.3964 20.214C23.8724 20.0647 24.3951 19.99 24.9644 19.99C25.5244 19.99 26.0564 20.06 26.5604 20.2C27.0644 20.34 27.5171 20.5453 27.9184 20.816C28.0677 20.9187 28.1657 21.0447 28.2124 21.194C28.2684 21.3433 28.2824 21.4927 28.2544 21.642C28.2264 21.782 28.1611 21.9033 28.0584 22.006C27.9557 22.1087 27.8251 22.1693 27.6664 22.188C27.5171 22.2067 27.3444 22.16 27.1484 22.048C26.8031 21.852 26.4531 21.712 26.0984 21.628C25.7437 21.544 25.3611 21.502 24.9504 21.502C24.5211 21.502 24.1524 21.5627 23.8444 21.684C23.5364 21.8053 23.2984 21.978 23.1304 22.202C22.9717 22.4167 22.8924 22.6733 22.8924 22.972C22.8924 23.308 23.0044 23.5787 23.2284 23.784C23.4524 23.98 23.8351 24.134 24.3764 24.246L25.9024 24.568C26.8264 24.764 27.5124 25.072 27.9604 25.492C28.4177 25.912 28.6464 26.472 28.6464 27.172C28.6464 27.62 28.5531 28.026 28.3664 28.39C28.1891 28.754 27.9277 29.0667 27.5824 29.328C27.2464 29.5893 26.8404 29.79 26.3644 29.93C25.8884 30.07 25.3517 30.14 24.7544 30.14ZM30.8844 30.098C30.6044 30.098 30.3898 30.014 30.2404 29.846C30.0911 29.678 30.0164 29.4447 30.0164 29.146V24.008C30.0164 23.7 30.0911 23.4667 30.2404 23.308C30.3898 23.14 30.6044 23.056 30.8844 23.056C31.1644 23.056 31.3791 23.14 31.5284 23.308C31.6871 23.4667 31.7664 23.7 31.7664 24.008V29.146C31.7664 29.4447 31.6918 29.678 31.5424 29.846C31.3931 30.014 31.1738 30.098 30.8844 30.098ZM30.8844 21.754C30.5578 21.754 30.3011 21.6747 30.1144 21.516C29.9371 21.348 29.8484 21.1193 29.8484 20.83C29.8484 20.5313 29.9371 20.3027 30.1144 20.144C30.3011 19.9853 30.5578 19.906 30.8844 19.906C31.2204 19.906 31.4771 19.9853 31.6544 20.144C31.8318 20.3027 31.9204 20.5313 31.9204 20.83C31.9204 21.1193 31.8318 21.348 31.6544 21.516C31.4771 21.6747 31.2204 21.754 30.8844 21.754ZM34.4528 30.112C34.1728 30.112 33.9581 30.0373 33.8088 29.888C33.6595 29.7293 33.5848 29.5053 33.5848 29.216V23.924C33.5848 23.6347 33.6595 23.4153 33.8088 23.266C33.9581 23.1167 34.1681 23.042 34.4388 23.042C34.7095 23.042 34.9195 23.1167 35.0688 23.266C35.2181 23.4153 35.2928 23.6347 35.2928 23.924V24.876L35.1388 24.526C35.3441 24.0313 35.6615 23.658 36.0908 23.406C36.5295 23.1447 37.0241 23.014 37.5748 23.014C38.1255 23.014 38.5781 23.1167 38.9328 23.322C39.2875 23.5273 39.5535 23.84 39.7308 24.26C39.9081 24.6707 39.9968 25.1933 39.9968 25.828V29.216C39.9968 29.5053 39.9221 29.7293 39.7728 29.888C39.6235 30.0373 39.4088 30.112 39.1288 30.112C38.8488 30.112 38.6295 30.0373 38.4708 29.888C38.3215 29.7293 38.2468 29.5053 38.2468 29.216V25.912C38.2468 25.38 38.1441 24.9927 37.9388 24.75C37.7428 24.5073 37.4348 24.386 37.0148 24.386C36.5015 24.386 36.0908 24.5493 35.7828 24.876C35.4841 25.1933 35.3348 25.618 35.3348 26.15V29.216C35.3348 29.8133 35.0408 30.112 34.4528 30.112ZM44.9663 32.66C44.4623 32.66 43.9723 32.6133 43.4963 32.52C43.0296 32.4267 42.6049 32.282 42.2223 32.086C42.0449 31.9927 41.9236 31.8807 41.8583 31.75C41.8023 31.6193 41.7836 31.484 41.8023 31.344C41.8303 31.2133 41.8863 31.0967 41.9703 30.994C42.0636 30.8913 42.1756 30.8213 42.3063 30.784C42.4369 30.7467 42.5723 30.7653 42.7123 30.84C43.1229 31.0453 43.5103 31.176 43.8743 31.232C44.2476 31.2973 44.5649 31.33 44.8263 31.33C45.4516 31.33 45.9183 31.176 46.2263 30.868C46.5436 30.5693 46.7023 30.1213 46.7023 29.524V28.264H46.8283C46.6883 28.74 46.3943 29.1227 45.9463 29.412C45.5076 29.692 45.0083 29.832 44.4483 29.832C43.8323 29.832 43.2956 29.692 42.8383 29.412C42.3809 29.1227 42.0263 28.7213 41.7743 28.208C41.5223 27.6947 41.3963 27.0973 41.3963 26.416C41.3963 25.9027 41.4663 25.4407 41.6063 25.03C41.7556 24.61 41.9609 24.2507 42.2223 23.952C42.4929 23.6533 42.8149 23.4247 43.1883 23.266C43.5709 23.098 43.9909 23.014 44.4483 23.014C45.0269 23.014 45.5309 23.1587 45.9603 23.448C46.3989 23.728 46.6836 24.1013 46.8143 24.568L46.6743 24.918V23.924C46.6743 23.6347 46.7489 23.4153 46.8983 23.266C47.0569 23.1167 47.2716 23.042 47.5423 23.042C47.8223 23.042 48.0369 23.1167 48.1863 23.266C48.3356 23.4153 48.4103 23.6347 48.4103 23.924V29.314C48.4103 30.4247 48.1163 31.26 47.5283 31.82C46.9403 32.38 46.0863 32.66 44.9663 32.66ZM44.9243 28.502C45.2883 28.502 45.6009 28.418 45.8623 28.25C46.1236 28.082 46.3243 27.844 46.4643 27.536C46.6136 27.2187 46.6883 26.8453 46.6883 26.416C46.6883 25.772 46.5296 25.268 46.2123 24.904C45.8949 24.5307 45.4656 24.344 44.9243 24.344C44.5603 24.344 44.2476 24.428 43.9863 24.596C43.7249 24.764 43.5196 25.002 43.3703 25.31C43.2303 25.618 43.1603 25.9867 43.1603 26.416C43.1603 27.06 43.3189 27.5687 43.6363 27.942C43.9536 28.3153 44.3829 28.502 44.9243 28.502ZM52.5615 30.14C51.7868 30.14 51.2035 29.9207 50.8115 29.482C50.4195 29.034 50.2235 28.3807 50.2235 27.522V20.9C50.2235 20.6107 50.2981 20.3913 50.4475 20.242C50.5968 20.0927 50.8115 20.018 51.0915 20.018C51.3715 20.018 51.5861 20.0927 51.7355 20.242C51.8941 20.3913 51.9735 20.6107 51.9735 20.9V27.438C51.9735 27.8673 52.0621 28.1847 52.2395 28.39C52.4261 28.5953 52.6875 28.698 53.0235 28.698C53.0981 28.698 53.1681 28.698 53.2335 28.698C53.2988 28.6887 53.3641 28.6793 53.4295 28.67C53.5601 28.6513 53.6488 28.6887 53.6955 28.782C53.7421 28.866 53.7655 29.0433 53.7655 29.314C53.7655 29.5473 53.7188 29.7293 53.6255 29.86C53.5321 29.9907 53.3781 30.07 53.1635 30.098C53.0701 30.1073 52.9721 30.1167 52.8695 30.126C52.7668 30.1353 52.6641 30.14 52.5615 30.14ZM57.9998 30.14C57.2252 30.14 56.5578 29.9953 55.9978 29.706C55.4378 29.4167 55.0038 29.006 54.6958 28.474C54.3972 27.942 54.2478 27.312 54.2478 26.584C54.2478 25.8747 54.3925 25.254 54.6818 24.722C54.9805 24.19 55.3865 23.7747 55.8998 23.476C56.4225 23.168 57.0152 23.014 57.6778 23.014C58.1632 23.014 58.5972 23.0933 58.9798 23.252C59.3718 23.4107 59.7032 23.6393 59.9738 23.938C60.2538 24.2367 60.4638 24.6007 60.6038 25.03C60.7532 25.45 60.8278 25.926 60.8278 26.458C60.8278 26.626 60.7672 26.7567 60.6458 26.85C60.5338 26.934 60.3705 26.976 60.1558 26.976H55.6618V25.968H59.5958L59.3718 26.178C59.3718 25.7487 59.3065 25.3893 59.1758 25.1C59.0545 24.8107 58.8725 24.5913 58.6298 24.442C58.3965 24.2833 58.1025 24.204 57.7478 24.204C57.3558 24.204 57.0198 24.2973 56.7398 24.484C56.4692 24.6613 56.2592 24.918 56.1098 25.254C55.9698 25.5807 55.8998 25.9727 55.8998 26.43V26.528C55.8998 27.2933 56.0772 27.8673 56.4318 28.25C56.7958 28.6233 57.3278 28.81 58.0278 28.81C58.2705 28.81 58.5412 28.782 58.8398 28.726C59.1478 28.6607 59.4372 28.5533 59.7078 28.404C59.9038 28.292 60.0765 28.2453 60.2258 28.264C60.3752 28.2733 60.4918 28.3247 60.5758 28.418C60.6692 28.5113 60.7252 28.628 60.7438 28.768C60.7625 28.8987 60.7345 29.034 60.6598 29.174C60.5945 29.314 60.4778 29.4353 60.3098 29.538C59.9832 29.7433 59.6052 29.8973 59.1758 30C58.7558 30.0933 58.3638 30.14 57.9998 30.14ZM67.1345 30C66.8265 30 66.5885 29.9207 66.4205 29.762C66.2618 29.594 66.1825 29.356 66.1825 29.048V21.082C66.1825 20.774 66.2618 20.5407 66.4205 20.382C66.5885 20.214 66.8265 20.13 67.1345 20.13H69.8505C71.5025 20.13 72.7765 20.5547 73.6725 21.404C74.5778 22.2533 75.0305 23.4713 75.0305 25.058C75.0305 25.8513 74.9138 26.556 74.6805 27.172C74.4565 27.7787 74.1205 28.292 73.6725 28.712C73.2338 29.132 72.6925 29.454 72.0485 29.678C71.4138 29.8927 70.6812 30 69.8505 30H67.1345ZM67.9745 28.516H69.7385C70.3172 28.516 70.8165 28.446 71.2365 28.306C71.6658 28.1567 72.0205 27.942 72.3005 27.662C72.5898 27.3727 72.8045 27.0133 72.9445 26.584C73.0845 26.1453 73.1545 25.6367 73.1545 25.058C73.1545 23.9007 72.8698 23.0373 72.3005 22.468C71.7312 21.8987 70.8772 21.614 69.7385 21.614H67.9745V28.516ZM78.9326 30.14C78.4379 30.14 77.9946 30.0467 77.6026 29.86C77.2199 29.664 76.9166 29.4027 76.6926 29.076C76.4779 28.7493 76.3706 28.3807 76.3706 27.97C76.3706 27.466 76.5012 27.0693 76.7626 26.78C77.0239 26.4813 77.4486 26.2667 78.0366 26.136C78.6246 26.0053 79.4132 25.94 80.4026 25.94H81.1026V26.948H80.4166C79.8379 26.948 79.3759 26.976 79.0306 27.032C78.6852 27.088 78.4379 27.186 78.2886 27.326C78.1486 27.4567 78.0786 27.6433 78.0786 27.886C78.0786 28.194 78.1859 28.446 78.4006 28.642C78.6152 28.838 78.9139 28.936 79.2966 28.936C79.6046 28.936 79.8752 28.866 80.1086 28.726C80.3512 28.5767 80.5426 28.376 80.6826 28.124C80.8226 27.872 80.8926 27.5827 80.8926 27.256V25.646C80.8926 25.1793 80.7899 24.8433 80.5846 24.638C80.3792 24.4327 80.0339 24.33 79.5486 24.33C79.2779 24.33 78.9839 24.3627 78.6666 24.428C78.3586 24.4933 78.0319 24.6053 77.6866 24.764C77.5092 24.848 77.3506 24.8713 77.2106 24.834C77.0799 24.7967 76.9772 24.722 76.9026 24.61C76.8279 24.4887 76.7906 24.358 76.7906 24.218C76.7906 24.078 76.8279 23.9427 76.9026 23.812C76.9772 23.672 77.1032 23.5693 77.2806 23.504C77.7099 23.3267 78.1206 23.2007 78.5126 23.126C78.9139 23.0513 79.2779 23.014 79.6046 23.014C80.2766 23.014 80.8272 23.1167 81.2566 23.322C81.6952 23.5273 82.0219 23.84 82.2366 24.26C82.4512 24.6707 82.5586 25.2027 82.5586 25.856V29.216C82.5586 29.5053 82.4886 29.7293 82.3486 29.888C82.2086 30.0373 82.0079 30.112 81.7466 30.112C81.4852 30.112 81.2799 30.0373 81.1306 29.888C80.9906 29.7293 80.9206 29.5053 80.9206 29.216V28.544H81.0326C80.9672 28.8707 80.8366 29.1553 80.6406 29.398C80.4539 29.6313 80.2159 29.8133 79.9266 29.944C79.6372 30.0747 79.3059 30.14 78.9326 30.14ZM86.0024 32.632C85.7971 32.632 85.6291 32.576 85.4984 32.464C85.3678 32.3613 85.2884 32.2213 85.2604 32.044C85.2418 31.8667 85.2744 31.68 85.3584 31.484L86.3104 29.37V30.098L83.7624 24.204C83.6784 23.9987 83.6504 23.8073 83.6784 23.63C83.7064 23.4527 83.7904 23.3127 83.9304 23.21C84.0798 23.098 84.2804 23.042 84.5324 23.042C84.7471 23.042 84.9198 23.0933 85.0504 23.196C85.1811 23.2893 85.2978 23.4713 85.4004 23.742L87.2904 28.46H86.8704L88.8024 23.728C88.9051 23.4667 89.0264 23.2893 89.1664 23.196C89.3064 23.0933 89.4931 23.042 89.7264 23.042C89.9318 23.042 90.0951 23.098 90.2164 23.21C90.3378 23.3127 90.4124 23.4527 90.4404 23.63C90.4684 23.798 90.4358 23.9847 90.3424 24.19L86.9404 31.96C86.8191 32.2213 86.6884 32.3987 86.5484 32.492C86.4084 32.5853 86.2264 32.632 86.0024 32.632Z" fill="#64728C"/>
</g>
</g>
<g filter="url(#filter10_dd_1096_9435)">
<g filter="url(#filter11_i_1096_9435)">
<path d="M127.328 30.112C127.067 30.112 126.866 30.0373 126.726 29.888C126.586 29.7387 126.516 29.5333 126.516 29.272V20.858C126.516 20.5873 126.591 20.382 126.74 20.242C126.889 20.0927 127.095 20.018 127.356 20.018C127.589 20.018 127.771 20.0647 127.902 20.158C128.042 20.242 128.168 20.3913 128.28 20.606L131.738 27.004H131.29L134.748 20.606C134.86 20.3913 134.981 20.242 135.112 20.158C135.243 20.0647 135.425 20.018 135.658 20.018C135.919 20.018 136.12 20.0927 136.26 20.242C136.4 20.382 136.47 20.5873 136.47 20.858V29.272C136.47 29.5333 136.4 29.7387 136.26 29.888C136.129 30.0373 135.929 30.112 135.658 30.112C135.397 30.112 135.196 30.0373 135.056 29.888C134.916 29.7387 134.846 29.5333 134.846 29.272V22.79H135.154L132.214 28.152C132.121 28.3107 132.023 28.4273 131.92 28.502C131.817 28.5767 131.677 28.614 131.5 28.614C131.323 28.614 131.178 28.5767 131.066 28.502C130.954 28.418 130.856 28.3013 130.772 28.152L127.804 22.776H128.14V29.272C128.14 29.5333 128.07 29.7387 127.93 29.888C127.799 30.0373 127.599 30.112 127.328 30.112ZM140.952 30.14C140.383 30.14 139.912 30.0373 139.538 29.832C139.165 29.6173 138.885 29.3 138.698 28.88C138.521 28.46 138.432 27.9373 138.432 27.312V23.924C138.432 23.6253 138.507 23.406 138.656 23.266C138.806 23.1167 139.02 23.042 139.3 23.042C139.58 23.042 139.795 23.1167 139.944 23.266C140.103 23.406 140.182 23.6253 140.182 23.924V27.34C140.182 27.8253 140.28 28.1847 140.476 28.418C140.672 28.6513 140.985 28.768 141.414 28.768C141.881 28.768 142.264 28.6093 142.562 28.292C142.861 27.9653 143.01 27.536 143.01 27.004V23.924C143.01 23.6253 143.085 23.406 143.234 23.266C143.384 23.1167 143.598 23.042 143.878 23.042C144.158 23.042 144.373 23.1167 144.522 23.266C144.681 23.406 144.76 23.6253 144.76 23.924V29.216C144.76 29.8133 144.476 30.112 143.906 30.112C143.636 30.112 143.426 30.0373 143.276 29.888C143.127 29.7293 143.052 29.5053 143.052 29.216V28.152L143.248 28.572C143.052 29.076 142.754 29.4633 142.352 29.734C141.96 30.0047 141.494 30.14 140.952 30.14ZM148.92 30.14C148.145 30.14 147.562 29.9207 147.17 29.482C146.778 29.034 146.582 28.3807 146.582 27.522V20.9C146.582 20.6107 146.657 20.3913 146.806 20.242C146.955 20.0927 147.17 20.018 147.45 20.018C147.73 20.018 147.945 20.0927 148.094 20.242C148.253 20.3913 148.332 20.6107 148.332 20.9V27.438C148.332 27.8673 148.421 28.1847 148.598 28.39C148.785 28.5953 149.046 28.698 149.382 28.698C149.457 28.698 149.527 28.698 149.592 28.698C149.657 28.6887 149.723 28.6793 149.788 28.67C149.919 28.6513 150.007 28.6887 150.054 28.782C150.101 28.866 150.124 29.0433 150.124 29.314C150.124 29.5473 150.077 29.7293 149.984 29.86C149.891 29.9907 149.737 30.07 149.522 30.098C149.429 30.1073 149.331 30.1167 149.228 30.126C149.125 30.1353 149.023 30.14 148.92 30.14ZM154.011 30.14C153.404 30.14 152.896 30.0373 152.485 29.832C152.084 29.6267 151.785 29.328 151.589 28.936C151.393 28.5347 151.295 28.04 151.295 27.452V24.47H150.567C150.343 24.47 150.17 24.414 150.049 24.302C149.928 24.1807 149.867 24.0173 149.867 23.812C149.867 23.5973 149.928 23.434 150.049 23.322C150.17 23.21 150.343 23.154 150.567 23.154H151.295V21.88C151.295 21.5907 151.37 21.3713 151.519 21.222C151.678 21.0727 151.897 20.998 152.177 20.998C152.457 20.998 152.672 21.0727 152.821 21.222C152.97 21.3713 153.045 21.5907 153.045 21.88V23.154H154.529C154.753 23.154 154.926 23.21 155.047 23.322C155.168 23.434 155.229 23.5973 155.229 23.812C155.229 24.0173 155.168 24.1807 155.047 24.302C154.926 24.414 154.753 24.47 154.529 24.47H153.045V27.354C153.045 27.802 153.143 28.138 153.339 28.362C153.535 28.586 153.852 28.698 154.291 28.698C154.45 28.698 154.59 28.684 154.711 28.656C154.832 28.628 154.94 28.6093 155.033 28.6C155.145 28.5907 155.238 28.628 155.313 28.712C155.388 28.7867 155.425 28.9453 155.425 29.188C155.425 29.3747 155.392 29.5427 155.327 29.692C155.271 29.832 155.164 29.93 155.005 29.986C154.884 30.0233 154.725 30.056 154.529 30.084C154.333 30.1213 154.16 30.14 154.011 30.14ZM157.294 30.098C157.014 30.098 156.799 30.014 156.65 29.846C156.5 29.678 156.426 29.4447 156.426 29.146V24.008C156.426 23.7 156.5 23.4667 156.65 23.308C156.799 23.14 157.014 23.056 157.294 23.056C157.574 23.056 157.788 23.14 157.938 23.308C158.096 23.4667 158.176 23.7 158.176 24.008V29.146C158.176 29.4447 158.101 29.678 157.952 29.846C157.802 30.014 157.583 30.098 157.294 30.098ZM157.294 21.754C156.967 21.754 156.71 21.6747 156.524 21.516C156.346 21.348 156.258 21.1193 156.258 20.83C156.258 20.5313 156.346 20.3027 156.524 20.144C156.71 19.9853 156.967 19.906 157.294 19.906C157.63 19.906 157.886 19.9853 158.064 20.144C158.241 20.3027 158.33 20.5313 158.33 20.83C158.33 21.1193 158.241 21.348 158.064 21.516C157.886 21.6747 157.63 21.754 157.294 21.754ZM160.862 32.632C160.582 32.632 160.367 32.5573 160.218 32.408C160.069 32.2587 159.994 32.0393 159.994 31.75V23.924C159.994 23.6347 160.069 23.4153 160.218 23.266C160.367 23.1167 160.577 23.042 160.848 23.042C161.128 23.042 161.343 23.1167 161.492 23.266C161.641 23.4153 161.716 23.6347 161.716 23.924V25.016L161.562 24.596C161.702 24.12 161.987 23.7373 162.416 23.448C162.855 23.1587 163.363 23.014 163.942 23.014C164.539 23.014 165.062 23.1587 165.51 23.448C165.967 23.7373 166.322 24.148 166.574 24.68C166.826 25.2027 166.952 25.8327 166.952 26.57C166.952 27.298 166.826 27.9327 166.574 28.474C166.322 29.006 165.972 29.4167 165.524 29.706C165.076 29.9953 164.549 30.14 163.942 30.14C163.373 30.14 162.873 30 162.444 29.72C162.015 29.4307 161.725 29.0573 161.576 28.6H161.744V31.75C161.744 32.0393 161.665 32.2587 161.506 32.408C161.357 32.5573 161.142 32.632 160.862 32.632ZM163.452 28.81C163.797 28.81 164.101 28.726 164.362 28.558C164.623 28.39 164.824 28.1427 164.964 27.816C165.113 27.48 165.188 27.0647 165.188 26.57C165.188 25.8233 165.029 25.268 164.712 24.904C164.395 24.5307 163.975 24.344 163.452 24.344C163.107 24.344 162.803 24.428 162.542 24.596C162.281 24.7547 162.075 25.002 161.926 25.338C161.786 25.6647 161.716 26.0753 161.716 26.57C161.716 27.3073 161.875 27.8673 162.192 28.25C162.509 28.6233 162.929 28.81 163.452 28.81ZM170.727 30.14C169.952 30.14 169.369 29.9207 168.977 29.482C168.585 29.034 168.389 28.3807 168.389 27.522V20.9C168.389 20.6107 168.463 20.3913 168.613 20.242C168.762 20.0927 168.977 20.018 169.257 20.018C169.537 20.018 169.751 20.0927 169.901 20.242C170.059 20.3913 170.139 20.6107 170.139 20.9V27.438C170.139 27.8673 170.227 28.1847 170.405 28.39C170.591 28.5953 170.853 28.698 171.189 28.698C171.263 28.698 171.333 28.698 171.399 28.698C171.464 28.6887 171.529 28.6793 171.595 28.67C171.725 28.6513 171.814 28.6887 171.861 28.782C171.907 28.866 171.931 29.0433 171.931 29.314C171.931 29.5473 171.884 29.7293 171.791 29.86C171.697 29.9907 171.543 30.07 171.329 30.098C171.235 30.1073 171.137 30.1167 171.035 30.126C170.932 30.1353 170.829 30.14 170.727 30.14ZM176.165 30.14C175.39 30.14 174.723 29.9953 174.163 29.706C173.603 29.4167 173.169 29.006 172.861 28.474C172.562 27.942 172.413 27.312 172.413 26.584C172.413 25.8747 172.558 25.254 172.847 24.722C173.146 24.19 173.552 23.7747 174.065 23.476C174.588 23.168 175.18 23.014 175.843 23.014C176.328 23.014 176.762 23.0933 177.145 23.252C177.537 23.4107 177.868 23.6393 178.139 23.938C178.419 24.2367 178.629 24.6007 178.769 25.03C178.918 25.45 178.993 25.926 178.993 26.458C178.993 26.626 178.932 26.7567 178.811 26.85C178.699 26.934 178.536 26.976 178.321 26.976H173.827V25.968H177.761L177.537 26.178C177.537 25.7487 177.472 25.3893 177.341 25.1C177.22 24.8107 177.038 24.5913 176.795 24.442C176.562 24.2833 176.268 24.204 175.913 24.204C175.521 24.204 175.185 24.2973 174.905 24.484C174.634 24.6613 174.424 24.918 174.275 25.254C174.135 25.5807 174.065 25.9727 174.065 26.43V26.528C174.065 27.2933 174.242 27.8673 174.597 28.25C174.961 28.6233 175.493 28.81 176.193 28.81C176.436 28.81 176.706 28.782 177.005 28.726C177.313 28.6607 177.602 28.5533 177.873 28.404C178.069 28.292 178.242 28.2453 178.391 28.264C178.54 28.2733 178.657 28.3247 178.741 28.418C178.834 28.5113 178.89 28.628 178.909 28.768C178.928 28.8987 178.9 29.034 178.825 29.174C178.76 29.314 178.643 29.4353 178.475 29.538C178.148 29.7433 177.77 29.8973 177.341 30C176.921 30.0933 176.529 30.14 176.165 30.14ZM185.3 30C184.992 30 184.754 29.9207 184.586 29.762C184.427 29.594 184.348 29.356 184.348 29.048V21.082C184.348 20.774 184.427 20.5407 184.586 20.382C184.754 20.214 184.992 20.13 185.3 20.13H188.016C189.668 20.13 190.942 20.5547 191.838 21.404C192.743 22.2533 193.196 23.4713 193.196 25.058C193.196 25.8513 193.079 26.556 192.846 27.172C192.622 27.7787 192.286 28.292 191.838 28.712C191.399 29.132 190.858 29.454 190.214 29.678C189.579 29.8927 188.846 30 188.016 30H185.3ZM186.14 28.516H187.904C188.482 28.516 188.982 28.446 189.402 28.306C189.831 28.1567 190.186 27.942 190.466 27.662C190.755 27.3727 190.97 27.0133 191.11 26.584C191.25 26.1453 191.32 25.6367 191.32 25.058C191.32 23.9007 191.035 23.0373 190.466 22.468C189.896 21.8987 189.042 21.614 187.904 21.614H186.14V28.516ZM197.098 30.14C196.603 30.14 196.16 30.0467 195.768 29.86C195.385 29.664 195.082 29.4027 194.858 29.076C194.643 28.7493 194.536 28.3807 194.536 27.97C194.536 27.466 194.666 27.0693 194.928 26.78C195.189 26.4813 195.614 26.2667 196.202 26.136C196.79 26.0053 197.578 25.94 198.568 25.94H199.268V26.948H198.582C198.003 26.948 197.541 26.976 197.196 27.032C196.85 27.088 196.603 27.186 196.454 27.326C196.314 27.4567 196.244 27.6433 196.244 27.886C196.244 28.194 196.351 28.446 196.566 28.642C196.78 28.838 197.079 28.936 197.462 28.936C197.77 28.936 198.04 28.866 198.274 28.726C198.516 28.5767 198.708 28.376 198.848 28.124C198.988 27.872 199.058 27.5827 199.058 27.256V25.646C199.058 25.1793 198.955 24.8433 198.75 24.638C198.544 24.4327 198.199 24.33 197.714 24.33C197.443 24.33 197.149 24.3627 196.832 24.428C196.524 24.4933 196.197 24.6053 195.852 24.764C195.674 24.848 195.516 24.8713 195.376 24.834C195.245 24.7967 195.142 24.722 195.068 24.61C194.993 24.4887 194.956 24.358 194.956 24.218C194.956 24.078 194.993 23.9427 195.068 23.812C195.142 23.672 195.268 23.5693 195.446 23.504C195.875 23.3267 196.286 23.2007 196.678 23.126C197.079 23.0513 197.443 23.014 197.77 23.014C198.442 23.014 198.992 23.1167 199.422 23.322C199.86 23.5273 200.187 23.84 200.402 24.26C200.616 24.6707 200.724 25.2027 200.724 25.856V29.216C200.724 29.5053 200.654 29.7293 200.514 29.888C200.374 30.0373 200.173 30.112 199.912 30.112C199.65 30.112 199.445 30.0373 199.296 29.888C199.156 29.7293 199.086 29.5053 199.086 29.216V28.544H199.198C199.132 28.8707 199.002 29.1553 198.806 29.398C198.619 29.6313 198.381 29.8133 198.092 29.944C197.802 30.0747 197.471 30.14 197.098 30.14ZM204.167 32.632C203.962 32.632 203.794 32.576 203.663 32.464C203.533 32.3613 203.453 32.2213 203.425 32.044C203.407 31.8667 203.439 31.68 203.523 31.484L204.475 29.37V30.098L201.927 24.204C201.843 23.9987 201.815 23.8073 201.843 23.63C201.871 23.4527 201.955 23.3127 202.095 23.21C202.245 23.098 202.445 23.042 202.697 23.042C202.912 23.042 203.085 23.0933 203.215 23.196C203.346 23.2893 203.463 23.4713 203.565 23.742L205.455 28.46H205.035L206.967 23.728C207.07 23.4667 207.191 23.2893 207.331 23.196C207.471 23.0933 207.658 23.042 207.891 23.042C208.097 23.042 208.26 23.098 208.381 23.21C208.503 23.3127 208.577 23.4527 208.605 23.63C208.633 23.798 208.601 23.9847 208.507 24.19L205.105 31.96C204.984 32.2213 204.853 32.3987 204.713 32.492C204.573 32.5853 204.391 32.632 204.167 32.632ZM212.17 30.14C211.769 30.14 211.344 30.098 210.896 30.014C210.448 29.93 210.047 29.7853 209.692 29.58C209.543 29.4867 209.435 29.3793 209.37 29.258C209.314 29.1273 209.291 29.0013 209.3 28.88C209.319 28.7493 209.365 28.6373 209.44 28.544C209.524 28.4507 209.627 28.39 209.748 28.362C209.879 28.334 210.019 28.3573 210.168 28.432C210.541 28.6093 210.891 28.7353 211.218 28.81C211.545 28.8753 211.867 28.908 212.184 28.908C212.632 28.908 212.963 28.8333 213.178 28.684C213.402 28.5253 213.514 28.32 213.514 28.068C213.514 27.8533 213.439 27.69 213.29 27.578C213.15 27.4567 212.935 27.368 212.646 27.312L211.246 27.046C210.667 26.934 210.224 26.724 209.916 26.416C209.617 26.0987 209.468 25.6927 209.468 25.198C209.468 24.75 209.589 24.3627 209.832 24.036C210.084 23.7093 210.429 23.4573 210.868 23.28C211.307 23.1027 211.811 23.014 212.38 23.014C212.791 23.014 213.173 23.0607 213.528 23.154C213.892 23.238 214.242 23.3733 214.578 23.56C214.718 23.6347 214.811 23.7327 214.858 23.854C214.914 23.9753 214.928 24.1013 214.9 24.232C214.872 24.3533 214.816 24.4653 214.732 24.568C214.648 24.6613 214.541 24.722 214.41 24.75C214.289 24.7687 214.149 24.7407 213.99 24.666C213.701 24.5167 213.421 24.4093 213.15 24.344C212.889 24.2787 212.637 24.246 212.394 24.246C211.937 24.246 211.596 24.3253 211.372 24.484C211.157 24.6427 211.05 24.8527 211.05 25.114C211.05 25.31 211.115 25.4733 211.246 25.604C211.377 25.7347 211.577 25.8233 211.848 25.87L213.248 26.136C213.855 26.248 214.312 26.4533 214.62 26.752C214.937 27.0507 215.096 27.452 215.096 27.956C215.096 28.6373 214.83 29.174 214.298 29.566C213.766 29.9487 213.057 30.14 212.17 30.14Z" fill="#929BAA"/>
</g>
</g>
</g>
</g>
<defs>
<filter id="filter0_i_1096_9435" x="0" y="80" width="393" height="53" filterUnits="userSpaceOnUse" color-interpolation-filters="sRGB">
<feFlood flood-opacity="0" result="BackgroundImageFix"/>
<feBlend mode="normal" in="SourceGraphic" in2="BackgroundImageFix" result="shape"/>
<feColorMatrix in="SourceAlpha" type="matrix" values="0 0 0 0 0 0 0 0 0 0 0 0 0 0 0 0 0 0 127 0" result="hardAlpha"/>
<feOffset dy="2"/>
<feGaussianBlur stdDeviation="2"/>
<feComposite in2="hardAlpha" operator="arithmetic" k2="-1" k3="1"/>
<feColorMatrix type="matrix" values="0 0 0 0 0 0 0 0 0 0 0 0 0 0 0 0 0 0 0.05 0"/>
<feBlend mode="normal" in2="shape" result="effect1_innerShadow_1096_9435"/>
</filter>
<filter id="filter1_dd_1096_9435" x="-10" y="70" width="129" height="65" filterUnits="userSpaceOnUse" color-interpolation-filters="sRGB">
<feFlood flood-opacity="0" result="BackgroundImageFix"/>
<feColorMatrix in="SourceAlpha" type="matrix" values="0 0 0 0 0 0 0 0 0 0 0 0 0 0 0 0 0 0 127 0" result="hardAlpha"/>
<feOffset dy="4"/>
<feGaussianBlur stdDeviation="2"/>
<feComposite in2="hardAlpha" operator="out"/>
<feColorMatrix type="matrix" values="0 0 0 0 0 0 0 0 0 0 0 0 0 0 0 0 0 0 0.05 0"/>
<feBlend mode="normal" in2="BackgroundImageFix" result="effect1_dropShadow_1096_9435"/>
<feColorMatrix in="SourceAlpha" type="matrix" values="0 0 0 0 0 0 0 0 0 0 0 0 0 0 0 0 0 0 127 0" result="hardAlpha"/>
<feOffset dx="-4" dy="-4"/>
<feGaussianBlur stdDeviation="5"/>
<feComposite in2="hardAlpha" operator="out"/>
<feColorMatrix type="matrix" values="0 0 0 0 1 0 0 0 0 1 0 0 0 0 1 0 0 0 0.61 0"/>
<feBlend mode="normal" in2="effect1_dropShadow_1096_9435" result="effect2_dropShadow_1096_9435"/>
<feBlend mode="normal" in="SourceGraphic" in2="effect2_dropShadow_1096_9435" result="shape"/>
</filter>
<filter id="filter2_i_1096_9435" x="39.5273" y="99.906" width="59.1104" height="14.7261" filterUnits="userSpaceOnUse" color-interpolation-filters="sRGB">
<feFlood flood-opacity="0" result="BackgroundImageFix"/>
<feBlend mode="normal" in="SourceGraphic" in2="BackgroundImageFix" result="shape"/>
<feColorMatrix in="SourceAlpha" type="matrix" values="0 0 0 0 0 0 0 0 0 0 0 0 0 0 0 0 0 0 127 0" result="hardAlpha"/>
<feOffset dy="2"/>
<feGaussianBlur stdDeviation="1"/>
<feComposite in2="hardAlpha" operator="arithmetic" k2="-1" k3="1"/>
<feColorMatrix type="matrix" values="0 0 0 0 0 0 0 0 0 0 0 0 0 0 0 0 0 0 0.05 0"/>
<feBlend mode="normal" in2="shape" result="effect1_innerShadow_1096_9435"/>
</filter>
<filter id="filter3_dd_1096_9435" x="103" y="70" width="143" height="65" filterUnits="userSpaceOnUse" color-interpolation-filters="sRGB">
<feFlood flood-opacity="0" result="BackgroundImageFix"/>
<feColorMatrix in="SourceAlpha" type="matrix" values="0 0 0 0 0 0 0 0 0 0 0 0 0 0 0 0 0 0 127 0" result="hardAlpha"/>
<feOffset dy="4"/>
<feGaussianBlur stdDeviation="2"/>
<feComposite in2="hardAlpha" operator="out"/>
<feColorMatrix type="matrix" values="0 0 0 0 0 0 0 0 0 0 0 0 0 0 0 0 0 0 0.05 0"/>
<feBlend mode="normal" in2="BackgroundImageFix" result="effect1_dropShadow_1096_9435"/>
<feColorMatrix in="SourceAlpha" type="matrix" values="0 0 0 0 0 0 0 0 0 0 0 0 0 0 0 0 0 0 127 0" result="hardAlpha"/>
<feOffset dx="-4" dy="-4"/>
<feGaussianBlur stdDeviation="5"/>
<feComposite in2="hardAlpha" operator="out"/>
<feColorMatrix type="matrix" values="0 0 0 0 1 0 0 0 0 1 0 0 0 0 1 0 0 0 0.61 0"/>
<feBlend mode="normal" in2="effect1_dropShadow_1096_9435" result="effect2_dropShadow_1096_9435"/>
<feBlend mode="normal" in="SourceGraphic" in2="effect2_dropShadow_1096_9435" result="shape"/>
</filter>
<filter id="filter4_i_1096_9435" x="154.312" y="99.906" width="69.542" height="14.7539" filterUnits="userSpaceOnUse" color-interpolation-filters="sRGB">
<feFlood flood-opacity="0" result="BackgroundImageFix"/>
<feBlend mode="normal" in="SourceGraphic" in2="BackgroundImageFix" result="shape"/>
<feColorMatrix in="SourceAlpha" type="matrix" values="0 0 0 0 0 0 0 0 0 0 0 0 0 0 0 0 0 0 127 0" result="hardAlpha"/>
<feOffset dy="2"/>
<feGaussianBlur stdDeviation="1"/>
<feComposite in2="hardAlpha" operator="arithmetic" k2="-1" k3="1"/>
<feColorMatrix type="matrix" values="0 0 0 0 0 0 0 0 0 0 0 0 0 0 0 0 0 0 0.05 0"/>
<feBlend mode="normal" in2="shape" result="effect1_innerShadow_1096_9435"/>
</filter>
<filter id="filter5_dd_1096_9435" x="230" y="70" width="165" height="65" filterUnits="userSpaceOnUse" color-interpolation-filters="sRGB">
<feFlood flood-opacity="0" result="BackgroundImageFix"/>
<feColorMatrix in="SourceAlpha" type="matrix" values="0 0 0 0 0 0 0 0 0 0 0 0 0 0 0 0 0 0 127 0" result="hardAlpha"/>
<feOffset dy="4"/>
<feGaussianBlur stdDeviation="2"/>
<feComposite in2="hardAlpha" operator="out"/>
<feColorMatrix type="matrix" values="0 0 0 0 0 0 0 0 0 0 0 0 0 0 0 0 0 0 0.05 0"/>
<feBlend mode="normal" in2="BackgroundImageFix" result="effect1_dropShadow_1096_9435"/>
<feColorMatrix in="SourceAlpha" type="matrix" values="0 0 0 0 0 0 0 0 0 0 0 0 0 0 0 0 0 0 127 0" result="hardAlpha"/>
<feOffset dx="-4" dy="-4"/>
<feGaussianBlur stdDeviation="5"/>
<feComposite in2="hardAlpha" operator="out"/>
<feColorMatrix type="matrix" values="0 0 0 0 1 0 0 0 0 1 0 0 0 0 1 0 0 0 0.61 0"/>
<feBlend mode="normal" in2="effect1_dropShadow_1096_9435" result="effect2_dropShadow_1096_9435"/>
<feBlend mode="normal" in="SourceGraphic" in2="effect2_dropShadow_1096_9435" result="shape"/>
</filter>
<filter id="filter6_i_1096_9435" x="279.439" y="99.906" width="95.2861" height="14.7539" filterUnits="userSpaceOnUse" color-interpolation-filters="sRGB">
<feFlood flood-opacity="0" result="BackgroundImageFix"/>
<feBlend mode="normal" in="SourceGraphic" in2="BackgroundImageFix" result="shape"/>
<feColorMatrix in="SourceAlpha" type="matrix" values="0 0 0 0 0 0 0 0 0 0 0 0 0 0 0 0 0 0 127 0" result="hardAlpha"/>
<feOffset dy="2"/>
<feGaussianBlur stdDeviation="1"/>
<feComposite in2="hardAlpha" operator="arithmetic" k2="-1" k3="1"/>
<feColorMatrix type="matrix" values="0 0 0 0 0 0 0 0 0 0 0 0 0 0 0 0 0 0 0.05 0"/>
<feBlend mode="normal" in2="shape" result="effect1_innerShadow_1096_9435"/>
</filter>
<filter id="filter7_i_1096_9435" x="0" y="0" width="234" height="53" filterUnits="userSpaceOnUse" color-interpolation-filters="sRGB">
<feFlood flood-opacity="0" result="BackgroundImageFix"/>
<feBlend mode="normal" in="SourceGraphic" in2="BackgroundImageFix" result="shape"/>
<feColorMatrix in="SourceAlpha" type="matrix" values="0 0 0 0 0 0 0 0 0 0 0 0 0 0 0 0 0 0 127 0" result="hardAlpha"/>
<feOffset dy="2"/>
<feGaussianBlur stdDeviation="2"/>
<feComposite in2="hardAlpha" operator="arithmetic" k2="-1" k3="1"/>
<feColorMatrix type="matrix" values="0 0 0 0 0 0 0 0 0 0 0 0 0 0 0 0 0 0 0.05 0"/>
<feBlend mode="normal" in2="shape" result="effect1_innerShadow_1096_9435"/>
</filter>
<filter id="filter8_dd_1096_9435" x="-10" y="-10" width="123" height="65" filterUnits="userSpaceOnUse" color-interpolation-filters="sRGB">
<feFlood flood-opacity="0" result="BackgroundImageFix"/>
<feColorMatrix in="SourceAlpha" type="matrix" values="0 0 0 0 0 0 0 0 0 0 0 0 0 0 0 0 0 0 127 0" result="hardAlpha"/>
<feOffset dy="4"/>
<feGaussianBlur stdDeviation="2"/>
<feComposite in2="hardAlpha" operator="out"/>
<feColorMatrix type="matrix" values="0 0 0 0 0 0 0 0 0 0 0 0 0 0 0 0 0 0 0.05 0"/>
<feBlend mode="normal" in2="BackgroundImageFix" result="effect1_dropShadow_1096_9435"/>
<feColorMatrix in="SourceAlpha" type="matrix" values="0 0 0 0 0 0 0 0 0 0 0 0 0 0 0 0 0 0 127 0" result="hardAlpha"/>
<feOffset dx="-4" dy="-4"/>
<feGaussianBlur stdDeviation="5"/>
<feComposite in2="hardAlpha" operator="out"/>
<feColorMatrix type="matrix" values="0 0 0 0 1 0 0 0 0 1 0 0 0 0 1 0 0 0 0.61 0"/>
<feBlend mode="normal" in2="effect1_dropShadow_1096_9435" result="effect2_dropShadow_1096_9435"/>
<feBlend mode="normal" in="SourceGraphic" in2="effect2_dropShadow_1096_9435" result="shape"/>
</filter>
<filter id="filter9_i_1096_9435" x="20.9326" y="19.906" width="69.5498" height="14.7539" filterUnits="userSpaceOnUse" color-interpolation-filters="sRGB">
<feFlood flood-opacity="0" result="BackgroundImageFix"/>
<feBlend mode="normal" in="SourceGraphic" in2="BackgroundImageFix" result="shape"/>
<feColorMatrix in="SourceAlpha" type="matrix" values="0 0 0 0 0 0 0 0 0 0 0 0 0 0 0 0 0 0 127 0" result="hardAlpha"/>
<feOffset dy="2"/>
<feGaussianBlur stdDeviation="1"/>
<feComposite in2="hardAlpha" operator="arithmetic" k2="-1" k3="1"/>
<feColorMatrix type="matrix" values="0 0 0 0 0 0 0 0 0 0 0 0 0 0 0 0 0 0 0.05 0"/>
<feBlend mode="normal" in2="shape" result="effect1_innerShadow_1096_9435"/>
</filter>
<filter id="filter10_dd_1096_9435" x="97" y="-10" width="139" height="65" filterUnits="userSpaceOnUse" color-interpolation-filters="sRGB">
<feFlood flood-opacity="0" result="BackgroundImageFix"/>
<feColorMatrix in="SourceAlpha" type="matrix" values="0 0 0 0 0 0 0 0 0 0 0 0 0 0 0 0 0 0 127 0" result="hardAlpha"/>
<feOffset dy="4"/>
<feGaussianBlur stdDeviation="2"/>
<feComposite in2="hardAlpha" operator="out"/>
<feColorMatrix type="matrix" values="0 0 0 0 0 0 0 0 0 0 0 0 0 0 0 0 0 0 0.05 0"/>
<feBlend mode="normal" in2="BackgroundImageFix" result="effect1_dropShadow_1096_9435"/>
<feColorMatrix in="SourceAlpha" type="matrix" values="0 0 0 0 0 0 0 0 0 0 0 0 0 0 0 0 0 0 127 0" result="hardAlpha"/>
<feOffset dx="-4" dy="-4"/>
<feGaussianBlur stdDeviation="5"/>
<feComposite in2="hardAlpha" operator="out"/>
<feColorMatrix type="matrix" values="0 0 0 0 1 0 0 0 0 1 0 0 0 0 1 0 0 0 0.61 0"/>
<feBlend mode="normal" in2="effect1_dropShadow_1096_9435" result="effect2_dropShadow_1096_9435"/>
<feBlend mode="normal" in="SourceGraphic" in2="effect2_dropShadow_1096_9435" result="shape"/>
</filter>
<filter id="filter11_i_1096_9435" x="126.516" y="19.906" width="88.5796" height="14.7261" filterUnits="userSpaceOnUse" color-interpolation-filters="sRGB">
<feFlood flood-opacity="0" result="BackgroundImageFix"/>
<feBlend mode="normal" in="SourceGraphic" in2="BackgroundImageFix" result="shape"/>
<feColorMatrix in="SourceAlpha" type="matrix" values="0 0 0 0 0 0 0 0 0 0 0 0 0 0 0 0 0 0 127 0" result="hardAlpha"/>
<feOffset dy="2"/>
<feGaussianBlur stdDeviation="1"/>
<feComposite in2="hardAlpha" operator="arithmetic" k2="-1" k3="1"/>
<feColorMatrix type="matrix" values="0 0 0 0 0 0 0 0 0 0 0 0 0 0 0 0 0 0 0.05 0"/>
<feBlend mode="normal" in2="shape" result="effect1_innerShadow_1096_9435"/>
</filter>
<linearGradient id="paint0_linear_1096_9435" x1="185.943" y1="84" x2="185.36" y2="126.997" gradientUnits="userSpaceOnUse">
<stop offset="0.0412653" stop-color="#64728C" stop-opacity="0.08"/>
<stop offset="1" stop-color="#64728C" stop-opacity="0.18"/>
</linearGradient>
<linearGradient id="paint1_linear_1096_9435" x1="61.7325" y1="4" x2="61.0367" y2="46.994" gradientUnits="userSpaceOnUse">
<stop offset="0.0412653" stop-color="#64728C" stop-opacity="0.08"/>
<stop offset="1" stop-color="#64728C" stop-opacity="0.18"/>
</linearGradient>
<clipPath id="clip0_1096_9435">
<rect width="16" height="16" fill="white" transform="translate(18 97.5)"/>
</clipPath>
<clipPath id="clip1_1096_9435">
<rect width="16" height="16" fill="white" transform="translate(258 97.5)"/>
</clipPath>
<clipPath id="clip2_1096_9435">
<rect width="234" height="51" rx="25.5" fill="white"/>
</clipPath>
</defs>
</svg>
