<svg width="355" height="299" viewBox="0 0 355 299" fill="none" xmlns="http://www.w3.org/2000/svg">
<g clip-path="url(#clip0_1098_9441)">
<mask id="path-1-inside-1_1098_9441" fill="white">
<path d="M0 30.5C0 13.6553 13.6553 0 30.5 0H324.5C341.345 0 355 13.6553 355 30.5V30.5C355 47.3447 341.345 61 324.5 61H30.5C13.6553 61 0 47.3447 0 30.5V30.5Z"/>
</mask>
<g filter="url(#filter0_i_1098_9441)">
<path d="M0 30.5C0 13.6553 13.6553 0 30.5 0H324.5C341.345 0 355 13.6553 355 30.5V30.5C355 47.3447 341.345 61 324.5 61H30.5C13.6553 61 0 47.3447 0 30.5V30.5Z" fill="#FE5000"/>
</g>
<path d="M-1 30.5C-1 13.103 13.103 -1 30.5 -1H324.5C341.897 -1 356 13.103 356 30.5H354C354 14.2076 340.792 1 324.5 1H30.5C14.2076 1 1 14.2076 1 30.5H-1ZM356 31.5C356 48.897 341.897 63 324.5 63H30.5C13.103 63 -1 48.897 -1 31.5L1 30.5C1 46.2401 14.2076 59 30.5 59H324.5C340.792 59 354 46.2401 354 30.5L356 31.5ZM30.5 63C13.103 63 -1 48.897 -1 31.5V30.5C-1 13.103 13.103 -1 30.5 -1V1C14.2076 1 1 14.2076 1 30.5C1 46.2401 14.2076 59 30.5 59V63ZM324.5 -1C341.897 -1 356 13.103 356 30.5V31.5C356 48.897 341.897 63 324.5 63V59C340.792 59 354 46.2401 354 30.5C354 14.2076 340.792 1 324.5 1V-1Z" fill="url(#paint0_linear_1098_9441)" mask="url(#path-1-inside-1_1098_9441)"/>
<mask id="path-3-inside-2_1098_9441" fill="white">
<path d="M0 147.5C0 130.655 13.6553 117 30.5 117H324.5C341.345 117 355 130.655 355 147.5V147.5C355 164.345 341.345 178 324.5 178H30.5C13.6553 178 0 164.345 0 147.5V147.5Z"/>
</mask>
<g filter="url(#filter1_i_1098_9441)">
<path d="M0 147.5C0 130.655 13.6553 117 30.5 117H324.5C341.345 117 355 130.655 355 147.5V147.5C355 164.345 341.345 178 324.5 178H30.5C13.6553 178 0 164.345 0 147.5V147.5Z" fill="#FFAA00"/>
</g>
<path d="M-1 147.5C-1 130.103 13.103 116 30.5 116H324.5C341.897 116 356 130.103 356 147.5H354C354 131.208 340.792 118 324.5 118H30.5C14.2076 118 1 131.208 1 147.5H-1ZM356 148.5C356 165.897 341.897 180 324.5 180H30.5C13.103 180 -1 165.897 -1 148.5L1 147.5C1 163.24 14.2076 176 30.5 176H324.5C340.792 176 354 163.24 354 147.5L356 148.5ZM30.5 180C13.103 180 -1 165.897 -1 148.5V147.5C-1 130.103 13.103 116 30.5 116V118C14.2076 118 1 131.208 1 147.5C1 163.24 14.2076 176 30.5 176V180ZM324.5 116C341.897 116 356 130.103 356 147.5V148.5C356 165.897 341.897 180 324.5 180V176C340.792 176 354 163.24 354 147.5C354 131.208 340.792 118 324.5 118V116Z" fill="url(#paint1_linear_1098_9441)" mask="url(#path-3-inside-2_1098_9441)"/>
<mask id="path-5-inside-3_1098_9441" fill="white">
<path d="M0 268.5C0 251.655 13.6553 238 30.5 238H324.5C341.345 238 355 251.655 355 268.5V268.5C355 285.345 341.345 299 324.5 299H30.5C13.6553 299 0 285.345 0 268.5V268.5Z"/>
</mask>
<g filter="url(#filter2_i_1098_9441)">
<path d="M0 268.5C0 251.655 13.6553 238 30.5 238H324.5C341.345 238 355 251.655 355 268.5V268.5C355 285.345 341.345 299 324.5 299H30.5C13.6553 299 0 285.345 0 268.5V268.5Z" fill="#64728C" fill-opacity="0.11"/>
</g>
<path d="M30.5 239H324.5V237H30.5V239ZM324.5 298H30.5V300H324.5V298ZM30.5 298C14.2076 298 1 284.792 1 268.5H-1C-1 285.897 13.103 300 30.5 300V298ZM354 268.5C354 284.792 340.792 298 324.5 298V300C341.897 300 356 285.897 356 268.5H354ZM324.5 239C340.792 239 354 252.208 354 268.5H356C356 251.103 341.897 237 324.5 237V239ZM30.5 237C13.103 237 -1 251.103 -1 268.5H1C1 252.208 14.2076 239 30.5 239V237Z" fill="url(#paint2_linear_1098_9441)" mask="url(#path-5-inside-3_1098_9441)"/>
<rect x="1" y="240" width="201" height="57" rx="28.5" fill="url(#paint3_linear_1098_9441)" fill-opacity="0.8"/>
<g filter="url(#filter3_i_1098_9441)">
<rect x="7" y="5" width="165" height="51" rx="25.5" fill="white"/>
</g>
<rect x="7.5" y="5.5" width="164" height="50" rx="25" stroke="#FF9D6F"/>
<g filter="url(#filter4_d_1098_9441)">
<circle cx="146.5" cy="30.5" r="25.5" fill="url(#paint4_linear_1098_9441)"/>
<circle cx="146.5" cy="30.5" r="25.5" fill="white" fill-opacity="0.4"/>
<circle cx="146.5" cy="30.5" r="25" stroke="url(#paint5_linear_1098_9441)" stroke-opacity="0.5"/>
</g>
<circle cx="180" cy="31" r="2" fill="white"/>
<circle cx="233" cy="31" r="2" fill="white"/>
<circle cx="287" cy="31" r="2" fill="white"/>
<g filter="url(#filter5_d_1098_9441)">
<rect x="4" y="120" width="107" height="55" rx="27.5" fill="url(#paint6_linear_1098_9441)"/>
<rect x="4" y="120" width="107" height="55" rx="27.5" fill="white" fill-opacity="0.4"/>
<rect x="4.5" y="120.5" width="106" height="54" rx="27" stroke="url(#paint7_linear_1098_9441)" stroke-opacity="0.5"/>
</g>
<g filter="url(#filter6_d_1098_9441)">
<rect x="147" y="242" width="53" height="53" rx="26.5" fill="white"/>
<rect x="147.5" y="242.5" width="52" height="52" rx="26" stroke="url(#paint8_linear_1098_9441)" stroke-opacity="0.5"/>
</g>
<g opacity="0.7" filter="url(#filter7_d_1098_9441)">
<rect x="27" y="130" width="5" height="36" rx="2.5" fill="white"/>
<rect x="27" y="130" width="5" height="36" rx="2.5" fill="url(#paint9_linear_1098_9441)" fill-opacity="0.3"/>
<rect x="27.5" y="130.5" width="4" height="35" rx="2" stroke="url(#paint10_linear_1098_9441)"/>
</g>
<g opacity="0.7" filter="url(#filter8_d_1098_9441)">
<rect x="45" y="130" width="5" height="36" rx="2.5" fill="white"/>
<rect x="45" y="130" width="5" height="36" rx="2.5" fill="url(#paint11_linear_1098_9441)" fill-opacity="0.3"/>
<rect x="45.5" y="130.5" width="4" height="35" rx="2" stroke="url(#paint12_linear_1098_9441)"/>
</g>
<g opacity="0.7" filter="url(#filter9_d_1098_9441)">
<rect x="63" y="130" width="5" height="36" rx="2.5" fill="white"/>
<rect x="63" y="130" width="5" height="36" rx="2.5" fill="url(#paint13_linear_1098_9441)" fill-opacity="0.3"/>
<rect x="63.5" y="130.5" width="4" height="35" rx="2" stroke="url(#paint14_linear_1098_9441)"/>
</g>
<g opacity="0.7" filter="url(#filter10_d_1098_9441)">
<rect x="81" y="130" width="5" height="36" rx="2.5" fill="white"/>
<rect x="81" y="130" width="5" height="36" rx="2.5" fill="url(#paint15_linear_1098_9441)" fill-opacity="0.3"/>
<rect x="81.5" y="130.5" width="4" height="35" rx="2" stroke="url(#paint16_linear_1098_9441)"/>
</g>
<line x1="157.5" y1="136" x2="157.5" y2="162" stroke="white"/>
<line x1="220.5" y1="135" x2="220.5" y2="161" stroke="white"/>
<line x1="172.5" y1="141" x2="172.5" y2="155" stroke="white" stroke-opacity="0.6"/>
<line x1="233.5" y1="141" x2="233.5" y2="155" stroke="white" stroke-opacity="0.6"/>
<line x1="294.5" y1="141" x2="294.5" y2="155" stroke="white" stroke-opacity="0.6"/>
<line x1="114.5" y1="141" x2="114.5" y2="155" stroke="white" stroke-opacity="0.6"/>
<line x1="183.5" y1="141" x2="183.5" y2="155" stroke="white" stroke-opacity="0.6"/>
<line x1="244.5" y1="141" x2="244.5" y2="155" stroke="white" stroke-opacity="0.6"/>
<line x1="305.5" y1="141" x2="305.5" y2="155" stroke="white" stroke-opacity="0.6"/>
<line x1="125.5" y1="141" x2="125.5" y2="155" stroke="white" stroke-opacity="0.6"/>
<line x1="194.5" y1="141" x2="194.5" y2="155" stroke="white" stroke-opacity="0.6"/>
<line x1="255.5" y1="141" x2="255.5" y2="155" stroke="white" stroke-opacity="0.6"/>
<line x1="316.5" y1="141" x2="316.5" y2="155" stroke="white" stroke-opacity="0.6"/>
<line x1="136.5" y1="141" x2="136.5" y2="155" stroke="white" stroke-opacity="0.6"/>
<line x1="205.5" y1="141" x2="205.5" y2="155" stroke="white" stroke-opacity="0.6"/>
<line x1="266.5" y1="141" x2="266.5" y2="155" stroke="white" stroke-opacity="0.6"/>
<line x1="327.5" y1="141" x2="327.5" y2="155" stroke="white" stroke-opacity="0.6"/>
<line x1="147.5" y1="141" x2="147.5" y2="155" stroke="white" stroke-opacity="0.6"/>
<line x1="281.5" y1="135" x2="281.5" y2="161" stroke="white"/>
<path d="M145.576 36.16C145 36.16 144.403 36.0853 143.784 35.936C143.165 35.7867 142.627 35.5627 142.168 35.264C141.955 35.1253 141.811 34.9653 141.736 34.784C141.661 34.6027 141.64 34.432 141.672 34.272C141.715 34.1013 141.795 33.9573 141.912 33.84C142.04 33.7227 142.195 33.6533 142.376 33.632C142.568 33.6107 142.776 33.6587 143 33.776C143.437 34.0107 143.859 34.1813 144.264 34.288C144.669 34.384 145.085 34.432 145.512 34.432C145.981 34.432 146.376 34.368 146.696 34.24C147.016 34.112 147.256 33.92 147.416 33.664C147.587 33.408 147.672 33.0987 147.672 32.736C147.672 32.2027 147.491 31.808 147.128 31.552C146.776 31.2853 146.259 31.152 145.576 31.152H144.552C144.253 31.152 144.024 31.0773 143.864 30.928C143.715 30.7787 143.64 30.5707 143.64 30.304C143.64 30.0373 143.715 29.8293 143.864 29.68C144.024 29.5307 144.253 29.456 144.552 29.456H145.384C145.789 29.456 146.136 29.392 146.424 29.264C146.712 29.1253 146.936 28.9333 147.096 28.688C147.256 28.4427 147.336 28.144 147.336 27.792C147.336 27.3013 147.171 26.928 146.84 26.672C146.52 26.416 146.051 26.288 145.432 26.288C145.037 26.288 144.664 26.336 144.312 26.432C143.971 26.5173 143.592 26.6827 143.176 26.928C142.984 27.0453 142.797 27.0933 142.616 27.072C142.445 27.0507 142.301 26.9813 142.184 26.864C142.067 26.7467 141.987 26.608 141.944 26.448C141.901 26.2773 141.912 26.1067 141.976 25.936C142.04 25.7547 142.173 25.6 142.376 25.472C142.835 25.1733 143.341 24.9493 143.896 24.8C144.451 24.64 145.021 24.56 145.608 24.56C146.387 24.56 147.053 24.6827 147.608 24.928C148.163 25.1627 148.584 25.504 148.872 25.952C149.171 26.3893 149.32 26.9227 149.32 27.552C149.32 28 149.235 28.4107 149.064 28.784C148.893 29.1467 148.653 29.456 148.344 29.712C148.035 29.968 147.661 30.1493 147.224 30.256V30.064C147.992 30.192 148.589 30.512 149.016 31.024C149.443 31.5253 149.656 32.1547 149.656 32.912C149.656 33.5733 149.491 34.1493 149.16 34.64C148.829 35.1307 148.36 35.5093 147.752 35.776C147.144 36.032 146.419 36.16 145.576 36.16Z" fill="#FE5000"/>
<g filter="url(#filter11_i_1098_9441)">
<path d="M203.608 36.128C203.288 36.128 203.037 36.0427 202.856 35.872C202.675 35.6907 202.584 35.4347 202.584 35.104V33.856H198.632C198.301 33.856 198.035 33.7867 197.832 33.648C197.64 33.5093 197.544 33.2907 197.544 32.992C197.544 32.8213 197.587 32.6347 197.672 32.432C197.768 32.2293 197.933 31.9627 198.168 31.632L202.552 25.28C202.701 25.056 202.867 24.8853 203.048 24.768C203.229 24.6507 203.437 24.592 203.672 24.592C203.949 24.592 204.179 24.6773 204.36 24.848C204.541 25.008 204.632 25.264 204.632 25.616V32.16H205.416C205.725 32.16 205.955 32.2347 206.104 32.384C206.264 32.5227 206.344 32.7307 206.344 33.008C206.344 33.2853 206.264 33.4987 206.104 33.648C205.955 33.7867 205.725 33.856 205.416 33.856H204.632V35.104C204.632 35.4347 204.541 35.6907 204.36 35.872C204.179 36.0427 203.928 36.128 203.608 36.128ZM202.584 32.16V27.168H203.048L199.272 32.704V32.16H202.584Z" fill="white" fill-opacity="0.8"/>
</g>
<g filter="url(#filter12_i_1098_9441)">
<path d="M257.896 36.16C257.331 36.16 256.755 36.0853 256.168 35.936C255.581 35.7867 255.043 35.5573 254.552 35.248C254.349 35.12 254.211 34.9707 254.136 34.8C254.072 34.6187 254.056 34.4427 254.088 34.272C254.131 34.0907 254.211 33.9413 254.328 33.824C254.456 33.696 254.605 33.6213 254.776 33.6C254.957 33.5787 255.155 33.6267 255.368 33.744C255.763 33.968 256.163 34.1387 256.568 34.256C256.973 34.3733 257.405 34.432 257.864 34.432C258.312 34.432 258.696 34.352 259.016 34.192C259.336 34.032 259.581 33.808 259.752 33.52C259.923 33.232 260.008 32.896 260.008 32.512C260.008 31.9147 259.827 31.4347 259.464 31.072C259.101 30.6987 258.605 30.512 257.976 30.512C257.635 30.512 257.304 30.5707 256.984 30.688C256.664 30.7947 256.349 30.9867 256.04 31.264C255.944 31.3493 255.821 31.4347 255.672 31.52C255.523 31.5947 255.363 31.632 255.192 31.632C254.925 31.632 254.723 31.5627 254.584 31.424C254.445 31.2853 254.376 31.0933 254.376 30.848V25.616C254.376 25.328 254.451 25.1093 254.6 24.96C254.76 24.8 254.984 24.72 255.272 24.72H260.536C260.824 24.72 261.043 24.7947 261.192 24.944C261.352 25.0827 261.432 25.2907 261.432 25.568C261.432 25.8347 261.352 26.0427 261.192 26.192C261.043 26.3413 260.824 26.416 260.536 26.416H256.376V30H255.848C256.125 29.6267 256.493 29.3387 256.952 29.136C257.411 28.9333 257.912 28.832 258.456 28.832C259.171 28.832 259.789 28.9867 260.312 29.296C260.845 29.5947 261.256 30.016 261.544 30.56C261.843 31.0933 261.992 31.7173 261.992 32.432C261.992 33.168 261.827 33.8187 261.496 34.384C261.165 34.9387 260.691 35.376 260.072 35.696C259.464 36.0053 258.739 36.16 257.896 36.16Z" fill="white" fill-opacity="0.8"/>
</g>
<path d="M314.216 36.16C313.288 36.16 312.493 35.9413 311.832 35.504C311.181 35.056 310.685 34.416 310.344 33.584C310.003 32.752 309.832 31.744 309.832 30.56C309.832 29.6 309.939 28.752 310.152 28.016C310.376 27.2693 310.696 26.64 311.112 26.128C311.528 25.616 312.035 25.2267 312.632 24.96C313.24 24.6933 313.923 24.56 314.68 24.56C315.149 24.56 315.624 24.6347 316.104 24.784C316.595 24.9227 317.053 25.136 317.48 25.424C317.651 25.5307 317.763 25.6693 317.816 25.84C317.869 26.0107 317.875 26.1813 317.832 26.352C317.8 26.512 317.725 26.656 317.608 26.784C317.501 26.9013 317.363 26.976 317.192 27.008C317.021 27.0293 316.835 26.9813 316.632 26.864C316.269 26.6507 315.928 26.5013 315.608 26.416C315.288 26.3307 314.968 26.288 314.648 26.288C314.029 26.288 313.507 26.432 313.08 26.72C312.653 27.008 312.328 27.44 312.104 28.016C311.891 28.592 311.784 29.312 311.784 30.176V31.376H311.592C311.677 30.832 311.853 30.368 312.12 29.984C312.397 29.5893 312.749 29.2907 313.176 29.088C313.603 28.8747 314.077 28.768 314.6 28.768C315.251 28.768 315.827 28.9227 316.328 29.232C316.829 29.5413 317.224 29.968 317.512 30.512C317.8 31.056 317.944 31.68 317.944 32.384C317.944 33.1093 317.784 33.76 317.464 34.336C317.155 34.9013 316.717 35.3493 316.152 35.68C315.597 36 314.952 36.16 314.216 36.16ZM314.104 34.528C314.488 34.528 314.824 34.4427 315.112 34.272C315.411 34.1013 315.64 33.8613 315.8 33.552C315.96 33.232 316.04 32.8693 316.04 32.464C316.04 32.048 315.96 31.6853 315.8 31.376C315.64 31.0667 315.411 30.8267 315.112 30.656C314.824 30.4747 314.488 30.384 314.104 30.384C313.72 30.384 313.384 30.4747 313.096 30.656C312.808 30.8267 312.579 31.0667 312.408 31.376C312.248 31.6853 312.168 32.048 312.168 32.464C312.168 32.8693 312.248 33.232 312.408 33.552C312.579 33.8613 312.808 34.1013 313.096 34.272C313.384 34.4427 313.72 34.528 314.104 34.528Z" fill="white" fill-opacity="0.8"/>
<path d="M27.496 36C27.2187 36 27 35.9253 26.84 35.776C26.6907 35.616 26.616 35.4027 26.616 35.136C26.616 34.8587 26.6907 34.6507 26.84 34.512C27 34.3733 27.2187 34.304 27.496 34.304H29.288V26.448H30.28L27.928 27.872C27.7253 27.9893 27.5333 28.0373 27.352 28.016C27.1813 27.984 27.032 27.9093 26.904 27.792C26.7867 27.664 26.7067 27.5147 26.664 27.344C26.6213 27.1733 26.632 27.0027 26.696 26.832C26.7707 26.6507 26.9093 26.5013 27.112 26.384L29.32 25.056C29.5333 24.928 29.7467 24.8213 29.96 24.736C30.1733 24.64 30.3707 24.592 30.552 24.592C30.776 24.592 30.9627 24.656 31.112 24.784C31.2613 24.9013 31.336 25.0987 31.336 25.376V34.304H32.968C33.2453 34.304 33.4587 34.3733 33.608 34.512C33.768 34.6507 33.848 34.8587 33.848 35.136C33.848 35.4133 33.768 35.6267 33.608 35.776C33.4587 35.9253 33.2453 36 32.968 36H27.496Z" fill="#FE5000"/>
<path d="M85.128 36C84.7867 36 84.536 35.9253 84.376 35.776C84.2267 35.616 84.152 35.3867 84.152 35.088C84.152 34.9067 84.2 34.7307 84.296 34.56C84.392 34.3893 84.5307 34.208 84.712 34.016L87.928 30.592C88.4187 30.08 88.7707 29.616 88.984 29.2C89.1973 28.7733 89.304 28.3467 89.304 27.92C89.304 27.3867 89.1333 26.9813 88.792 26.704C88.4613 26.4267 87.976 26.288 87.336 26.288C86.9733 26.288 86.6107 26.3413 86.248 26.448C85.8853 26.544 85.5173 26.7147 85.144 26.96C84.952 27.088 84.7707 27.1413 84.6 27.12C84.44 27.0987 84.296 27.0293 84.168 26.912C84.0507 26.7947 83.9707 26.6507 83.928 26.48C83.8853 26.3093 83.8907 26.1387 83.944 25.968C84.008 25.7867 84.136 25.632 84.328 25.504C84.7867 25.1947 85.2987 24.96 85.864 24.8C86.44 24.64 87.016 24.56 87.592 24.56C88.4027 24.56 89.0853 24.6827 89.64 24.928C90.1947 25.1733 90.616 25.5307 90.904 26C91.192 26.4693 91.336 27.04 91.336 27.712C91.336 28.16 91.2613 28.5973 91.112 29.024C90.9733 29.4507 90.7547 29.8827 90.456 30.32C90.168 30.7573 89.7893 31.2213 89.32 31.712L86.312 34.848V34.304H91.016C91.304 34.304 91.5227 34.3733 91.672 34.512C91.8213 34.6507 91.896 34.8587 91.896 35.136C91.896 35.4133 91.8213 35.6267 91.672 35.776C91.5227 35.9253 91.304 36 91.016 36H85.128Z" fill="#FE5000"/>
</g>
<defs>
<filter id="filter0_i_1098_9441" x="0" y="0" width="355" height="65" filterUnits="userSpaceOnUse" color-interpolation-filters="sRGB">
<feFlood flood-opacity="0" result="BackgroundImageFix"/>
<feBlend mode="normal" in="SourceGraphic" in2="BackgroundImageFix" result="shape"/>
<feColorMatrix in="SourceAlpha" type="matrix" values="0 0 0 0 0 0 0 0 0 0 0 0 0 0 0 0 0 0 127 0" result="hardAlpha"/>
<feOffset dy="4"/>
<feGaussianBlur stdDeviation="5"/>
<feComposite in2="hardAlpha" operator="arithmetic" k2="-1" k3="1"/>
<feColorMatrix type="matrix" values="0 0 0 0 0 0 0 0 0 0 0 0 0 0 0 0 0 0 0.25 0"/>
<feBlend mode="normal" in2="shape" result="effect1_innerShadow_1098_9441"/>
</filter>
<filter id="filter1_i_1098_9441" x="0" y="117" width="355" height="65" filterUnits="userSpaceOnUse" color-interpolation-filters="sRGB">
<feFlood flood-opacity="0" result="BackgroundImageFix"/>
<feBlend mode="normal" in="SourceGraphic" in2="BackgroundImageFix" result="shape"/>
<feColorMatrix in="SourceAlpha" type="matrix" values="0 0 0 0 0 0 0 0 0 0 0 0 0 0 0 0 0 0 127 0" result="hardAlpha"/>
<feOffset dy="4"/>
<feGaussianBlur stdDeviation="2.5"/>
<feComposite in2="hardAlpha" operator="arithmetic" k2="-1" k3="1"/>
<feColorMatrix type="matrix" values="0 0 0 0 0 0 0 0 0 0 0 0 0 0 0 0 0 0 0.15 0"/>
<feBlend mode="normal" in2="shape" result="effect1_innerShadow_1098_9441"/>
</filter>
<filter id="filter2_i_1098_9441" x="0" y="238" width="355" height="63" filterUnits="userSpaceOnUse" color-interpolation-filters="sRGB">
<feFlood flood-opacity="0" result="BackgroundImageFix"/>
<feBlend mode="normal" in="SourceGraphic" in2="BackgroundImageFix" result="shape"/>
<feColorMatrix in="SourceAlpha" type="matrix" values="0 0 0 0 0 0 0 0 0 0 0 0 0 0 0 0 0 0 127 0" result="hardAlpha"/>
<feOffset dy="2"/>
<feGaussianBlur stdDeviation="2.5"/>
<feComposite in2="hardAlpha" operator="arithmetic" k2="-1" k3="1"/>
<feColorMatrix type="matrix" values="0 0 0 0 0 0 0 0 0 0 0 0 0 0 0 0 0 0 0.05 0"/>
<feBlend mode="normal" in2="shape" result="effect1_innerShadow_1098_9441"/>
</filter>
<filter id="filter3_i_1098_9441" x="7" y="5" width="165" height="53" filterUnits="userSpaceOnUse" color-interpolation-filters="sRGB">
<feFlood flood-opacity="0" result="BackgroundImageFix"/>
<feBlend mode="normal" in="SourceGraphic" in2="BackgroundImageFix" result="shape"/>
<feColorMatrix in="SourceAlpha" type="matrix" values="0 0 0 0 0 0 0 0 0 0 0 0 0 0 0 0 0 0 127 0" result="hardAlpha"/>
<feOffset dy="2"/>
<feGaussianBlur stdDeviation="2"/>
<feComposite in2="hardAlpha" operator="arithmetic" k2="-1" k3="1"/>
<feColorMatrix type="matrix" values="0 0 0 0 0 0 0 0 0 0 0 0 0 0 0 0 0 0 0.25 0"/>
<feBlend mode="normal" in2="shape" result="effect1_innerShadow_1098_9441"/>
</filter>
<filter id="filter4_d_1098_9441" x="117" y="5" width="59" height="59" filterUnits="userSpaceOnUse" color-interpolation-filters="sRGB">
<feFlood flood-opacity="0" result="BackgroundImageFix"/>
<feColorMatrix in="SourceAlpha" type="matrix" values="0 0 0 0 0 0 0 0 0 0 0 0 0 0 0 0 0 0 127 0" result="hardAlpha"/>
<feOffset dy="4"/>
<feGaussianBlur stdDeviation="2"/>
<feComposite in2="hardAlpha" operator="out"/>
<feColorMatrix type="matrix" values="0 0 0 0 0 0 0 0 0 0 0 0 0 0 0 0 0 0 0.25 0"/>
<feBlend mode="normal" in2="BackgroundImageFix" result="effect1_dropShadow_1098_9441"/>
<feBlend mode="normal" in="SourceGraphic" in2="effect1_dropShadow_1098_9441" result="shape"/>
</filter>
<filter id="filter5_d_1098_9441" x="0" y="120" width="115" height="63" filterUnits="userSpaceOnUse" color-interpolation-filters="sRGB">
<feFlood flood-opacity="0" result="BackgroundImageFix"/>
<feColorMatrix in="SourceAlpha" type="matrix" values="0 0 0 0 0 0 0 0 0 0 0 0 0 0 0 0 0 0 127 0" result="hardAlpha"/>
<feOffset dy="4"/>
<feGaussianBlur stdDeviation="2"/>
<feComposite in2="hardAlpha" operator="out"/>
<feColorMatrix type="matrix" values="0 0 0 0 0 0 0 0 0 0 0 0 0 0 0 0 0 0 0.25 0"/>
<feBlend mode="normal" in2="BackgroundImageFix" result="effect1_dropShadow_1098_9441"/>
<feBlend mode="normal" in="SourceGraphic" in2="effect1_dropShadow_1098_9441" result="shape"/>
</filter>
<filter id="filter6_d_1098_9441" x="143" y="242" width="61" height="61" filterUnits="userSpaceOnUse" color-interpolation-filters="sRGB">
<feFlood flood-opacity="0" result="BackgroundImageFix"/>
<feColorMatrix in="SourceAlpha" type="matrix" values="0 0 0 0 0 0 0 0 0 0 0 0 0 0 0 0 0 0 127 0" result="hardAlpha"/>
<feOffset dy="4"/>
<feGaussianBlur stdDeviation="2"/>
<feComposite in2="hardAlpha" operator="out"/>
<feColorMatrix type="matrix" values="0 0 0 0 0 0 0 0 0 0 0 0 0 0 0 0 0 0 0.15 0"/>
<feBlend mode="normal" in2="BackgroundImageFix" result="effect1_dropShadow_1098_9441"/>
<feBlend mode="normal" in="SourceGraphic" in2="effect1_dropShadow_1098_9441" result="shape"/>
</filter>
<filter id="filter7_d_1098_9441" x="27" y="128" width="9" height="40" filterUnits="userSpaceOnUse" color-interpolation-filters="sRGB">
<feFlood flood-opacity="0" result="BackgroundImageFix"/>
<feColorMatrix in="SourceAlpha" type="matrix" values="0 0 0 0 0 0 0 0 0 0 0 0 0 0 0 0 0 0 127 0" result="hardAlpha"/>
<feOffset dx="2"/>
<feGaussianBlur stdDeviation="1"/>
<feComposite in2="hardAlpha" operator="out"/>
<feColorMatrix type="matrix" values="0 0 0 0 0 0 0 0 0 0 0 0 0 0 0 0 0 0 0.05 0"/>
<feBlend mode="normal" in2="BackgroundImageFix" result="effect1_dropShadow_1098_9441"/>
<feBlend mode="normal" in="SourceGraphic" in2="effect1_dropShadow_1098_9441" result="shape"/>
</filter>
<filter id="filter8_d_1098_9441" x="45" y="128" width="9" height="40" filterUnits="userSpaceOnUse" color-interpolation-filters="sRGB">
<feFlood flood-opacity="0" result="BackgroundImageFix"/>
<feColorMatrix in="SourceAlpha" type="matrix" values="0 0 0 0 0 0 0 0 0 0 0 0 0 0 0 0 0 0 127 0" result="hardAlpha"/>
<feOffset dx="2"/>
<feGaussianBlur stdDeviation="1"/>
<feComposite in2="hardAlpha" operator="out"/>
<feColorMatrix type="matrix" values="0 0 0 0 0 0 0 0 0 0 0 0 0 0 0 0 0 0 0.05 0"/>
<feBlend mode="normal" in2="BackgroundImageFix" result="effect1_dropShadow_1098_9441"/>
<feBlend mode="normal" in="SourceGraphic" in2="effect1_dropShadow_1098_9441" result="shape"/>
</filter>
<filter id="filter9_d_1098_9441" x="63" y="128" width="9" height="40" filterUnits="userSpaceOnUse" color-interpolation-filters="sRGB">
<feFlood flood-opacity="0" result="BackgroundImageFix"/>
<feColorMatrix in="SourceAlpha" type="matrix" values="0 0 0 0 0 0 0 0 0 0 0 0 0 0 0 0 0 0 127 0" result="hardAlpha"/>
<feOffset dx="2"/>
<feGaussianBlur stdDeviation="1"/>
<feComposite in2="hardAlpha" operator="out"/>
<feColorMatrix type="matrix" values="0 0 0 0 0 0 0 0 0 0 0 0 0 0 0 0 0 0 0.05 0"/>
<feBlend mode="normal" in2="BackgroundImageFix" result="effect1_dropShadow_1098_9441"/>
<feBlend mode="normal" in="SourceGraphic" in2="effect1_dropShadow_1098_9441" result="shape"/>
</filter>
<filter id="filter10_d_1098_9441" x="81" y="128" width="9" height="40" filterUnits="userSpaceOnUse" color-interpolation-filters="sRGB">
<feFlood flood-opacity="0" result="BackgroundImageFix"/>
<feColorMatrix in="SourceAlpha" type="matrix" values="0 0 0 0 0 0 0 0 0 0 0 0 0 0 0 0 0 0 127 0" result="hardAlpha"/>
<feOffset dx="2"/>
<feGaussianBlur stdDeviation="1"/>
<feComposite in2="hardAlpha" operator="out"/>
<feColorMatrix type="matrix" values="0 0 0 0 0 0 0 0 0 0 0 0 0 0 0 0 0 0 0.05 0"/>
<feBlend mode="normal" in2="BackgroundImageFix" result="effect1_dropShadow_1098_9441"/>
<feBlend mode="normal" in="SourceGraphic" in2="effect1_dropShadow_1098_9441" result="shape"/>
</filter>
<filter id="filter11_i_1098_9441" x="197.544" y="24.592" width="8.80005" height="13.536" filterUnits="userSpaceOnUse" color-interpolation-filters="sRGB">
<feFlood flood-opacity="0" result="BackgroundImageFix"/>
<feBlend mode="normal" in="SourceGraphic" in2="BackgroundImageFix" result="shape"/>
<feColorMatrix in="SourceAlpha" type="matrix" values="0 0 0 0 0 0 0 0 0 0 0 0 0 0 0 0 0 0 127 0" result="hardAlpha"/>
<feOffset dy="4"/>
<feGaussianBlur stdDeviation="1"/>
<feComposite in2="hardAlpha" operator="arithmetic" k2="-1" k3="1"/>
<feColorMatrix type="matrix" values="0 0 0 0 0 0 0 0 0 0 0 0 0 0 0 0 0 0 0.05 0"/>
<feBlend mode="normal" in2="shape" result="effect1_innerShadow_1098_9441"/>
</filter>
<filter id="filter12_i_1098_9441" x="254.04" y="24.72" width="7.9519" height="13.44" filterUnits="userSpaceOnUse" color-interpolation-filters="sRGB">
<feFlood flood-opacity="0" result="BackgroundImageFix"/>
<feBlend mode="normal" in="SourceGraphic" in2="BackgroundImageFix" result="shape"/>
<feColorMatrix in="SourceAlpha" type="matrix" values="0 0 0 0 0 0 0 0 0 0 0 0 0 0 0 0 0 0 127 0" result="hardAlpha"/>
<feOffset dy="4"/>
<feGaussianBlur stdDeviation="1"/>
<feComposite in2="hardAlpha" operator="arithmetic" k2="-1" k3="1"/>
<feColorMatrix type="matrix" values="0 0 0 0 0 0 0 0 0 0 0 0 0 0 0 0 0 0 0.05 0"/>
<feBlend mode="normal" in2="shape" result="effect1_innerShadow_1098_9441"/>
</filter>
<linearGradient id="paint0_linear_1098_9441" x1="177.959" y1="65.575" x2="177.959" y2="8.92054e-07" gradientUnits="userSpaceOnUse">
<stop stop-color="#CD4202"/>
<stop offset="1" stop-color="#FE5000" stop-opacity="0.58"/>
</linearGradient>
<linearGradient id="paint1_linear_1098_9441" x1="177.959" y1="182.575" x2="177.959" y2="117" gradientUnits="userSpaceOnUse">
<stop stop-color="#D59006"/>
<stop offset="1" stop-color="#E89B01"/>
</linearGradient>
<linearGradient id="paint2_linear_1098_9441" x1="177.959" y1="303.575" x2="177.959" y2="238" gradientUnits="userSpaceOnUse">
<stop stop-color="#64728C" stop-opacity="0.05"/>
<stop offset="1" stop-color="white" stop-opacity="0.77"/>
</linearGradient>
<linearGradient id="paint3_linear_1098_9441" x1="1" y1="268.5" x2="202" y2="268" gradientUnits="userSpaceOnUse">
<stop stop-color="#64728C"/>
<stop offset="1" stop-color="#64728C"/>
</linearGradient>
<linearGradient id="paint4_linear_1098_9441" x1="147" y1="30" x2="153" y2="56" gradientUnits="userSpaceOnUse">
<stop stop-color="white"/>
<stop offset="1" stop-color="#FFEAE0"/>
</linearGradient>
<linearGradient id="paint5_linear_1098_9441" x1="146.5" y1="5" x2="146.5" y2="56" gradientUnits="userSpaceOnUse">
<stop stop-color="white"/>
<stop offset="1" stop-color="#341101" stop-opacity="0.08"/>
</linearGradient>
<linearGradient id="paint6_linear_1098_9441" x1="58.549" y1="146.961" x2="62.0035" y2="176.083" gradientUnits="userSpaceOnUse">
<stop stop-color="white"/>
<stop offset="1" stop-color="#FFEAE0"/>
</linearGradient>
<linearGradient id="paint7_linear_1098_9441" x1="57.5" y1="120" x2="57.5" y2="175" gradientUnits="userSpaceOnUse">
<stop stop-color="white"/>
<stop offset="1" stop-color="#341101" stop-opacity="0.08"/>
</linearGradient>
<linearGradient id="paint8_linear_1098_9441" x1="173.5" y1="242" x2="173.5" y2="295" gradientUnits="userSpaceOnUse">
<stop stop-color="white"/>
<stop offset="1" stop-color="#341101" stop-opacity="0.08"/>
</linearGradient>
<linearGradient id="paint9_linear_1098_9441" x1="32" y1="148" x2="27" y2="148" gradientUnits="userSpaceOnUse">
<stop stop-color="#64728C" stop-opacity="0.56"/>
<stop offset="1" stop-opacity="0"/>
</linearGradient>
<linearGradient id="paint10_linear_1098_9441" x1="29.5" y1="130" x2="29.5" y2="166" gradientUnits="userSpaceOnUse">
<stop stop-color="#E6E8EC" stop-opacity="0.44"/>
<stop offset="1" stop-color="#838486" stop-opacity="0.13"/>
</linearGradient>
<linearGradient id="paint11_linear_1098_9441" x1="50" y1="148" x2="45" y2="148" gradientUnits="userSpaceOnUse">
<stop stop-color="#64728C" stop-opacity="0.56"/>
<stop offset="1" stop-opacity="0"/>
</linearGradient>
<linearGradient id="paint12_linear_1098_9441" x1="47.5" y1="130" x2="47.5" y2="166" gradientUnits="userSpaceOnUse">
<stop stop-color="#E6E8EC" stop-opacity="0.44"/>
<stop offset="1" stop-color="#838486" stop-opacity="0.13"/>
</linearGradient>
<linearGradient id="paint13_linear_1098_9441" x1="68" y1="148" x2="63" y2="148" gradientUnits="userSpaceOnUse">
<stop stop-color="#64728C" stop-opacity="0.56"/>
<stop offset="1" stop-opacity="0"/>
</linearGradient>
<linearGradient id="paint14_linear_1098_9441" x1="65.5" y1="130" x2="65.5" y2="166" gradientUnits="userSpaceOnUse">
<stop stop-color="#E6E8EC" stop-opacity="0.44"/>
<stop offset="1" stop-color="#838486" stop-opacity="0.13"/>
</linearGradient>
<linearGradient id="paint15_linear_1098_9441" x1="86" y1="148" x2="81" y2="148" gradientUnits="userSpaceOnUse">
<stop stop-color="#64728C" stop-opacity="0.56"/>
<stop offset="1" stop-opacity="0"/>
</linearGradient>
<linearGradient id="paint16_linear_1098_9441" x1="83.5" y1="130" x2="83.5" y2="166" gradientUnits="userSpaceOnUse">
<stop stop-color="#E6E8EC" stop-opacity="0.44"/>
<stop offset="1" stop-color="#838486" stop-opacity="0.13"/>
</linearGradient>
<clipPath id="clip0_1098_9441">
<rect width="355" height="299" fill="white"/>
</clipPath>
</defs>
</svg>
