<svg width="334" height="90" viewBox="0 0 334 90" fill="none" xmlns="http://www.w3.org/2000/svg">
<rect width="334" height="90" rx="14" fill="white"/>
<mask id="path-2-inside-1_1138_10408" fill="white">
<path d="M25 25H309V60H25V25Z"/>
</mask>
<path d="M309 59H25V61H309V59Z" fill="#E8EAEF" mask="url(#path-2-inside-1_1138_10408)"/>
<rect x="25" y="29" width="53" height="27" rx="13.5" fill="white"/>
<path d="M26.918 47.112C26.6567 47.112 26.456 47.0373 26.316 46.888C26.176 46.7387 26.106 46.5333 26.106 46.272V37.858C26.106 37.5873 26.1807 37.382 26.33 37.242C26.4793 37.0927 26.6847 37.018 26.946 37.018C27.1793 37.018 27.3613 37.0647 27.492 37.158C27.632 37.242 27.758 37.3913 27.87 37.606L31.328 44.004H30.88L34.338 37.606C34.45 37.3913 34.5713 37.242 34.702 37.158C34.8327 37.0647 35.0147 37.018 35.248 37.018C35.5093 37.018 35.71 37.0927 35.85 37.242C35.99 37.382 36.06 37.5873 36.06 37.858V46.272C36.06 46.5333 35.99 46.7387 35.85 46.888C35.7193 47.0373 35.5187 47.112 35.248 47.112C34.9867 47.112 34.786 47.0373 34.646 46.888C34.506 46.7387 34.436 46.5333 34.436 46.272V39.79H34.744L31.804 45.152C31.7107 45.3107 31.6127 45.4273 31.51 45.502C31.4073 45.5767 31.2673 45.614 31.09 45.614C30.9127 45.614 30.768 45.5767 30.656 45.502C30.544 45.418 30.446 45.3013 30.362 45.152L27.394 39.776H27.73V46.272C27.73 46.5333 27.66 46.7387 27.52 46.888C27.3893 47.0373 27.1887 47.112 26.918 47.112ZM41.4383 47.14C40.6636 47.14 39.9963 46.9953 39.4363 46.706C38.8763 46.4167 38.4423 46.006 38.1343 45.474C37.8356 44.942 37.6863 44.312 37.6863 43.584C37.6863 42.8747 37.831 42.254 38.1203 41.722C38.419 41.19 38.825 40.7747 39.3383 40.476C39.861 40.168 40.4536 40.014 41.1163 40.014C41.6016 40.014 42.0356 40.0933 42.4183 40.252C42.8103 40.4107 43.1416 40.6393 43.4123 40.938C43.6923 41.2367 43.9023 41.6007 44.0423 42.03C44.1916 42.45 44.2663 42.926 44.2663 43.458C44.2663 43.626 44.2056 43.7567 44.0843 43.85C43.9723 43.934 43.809 43.976 43.5943 43.976H39.1003V42.968H43.0343L42.8103 43.178C42.8103 42.7487 42.745 42.3893 42.6143 42.1C42.493 41.8107 42.311 41.5913 42.0683 41.442C41.835 41.2833 41.541 41.204 41.1863 41.204C40.7943 41.204 40.4583 41.2973 40.1783 41.484C39.9076 41.6613 39.6976 41.918 39.5483 42.254C39.4083 42.5807 39.3383 42.9727 39.3383 43.43V43.528C39.3383 44.2933 39.5156 44.8673 39.8703 45.25C40.2343 45.6233 40.7663 45.81 41.4663 45.81C41.709 45.81 41.9796 45.782 42.2783 45.726C42.5863 45.6607 42.8756 45.5533 43.1463 45.404C43.3423 45.292 43.515 45.2453 43.6643 45.264C43.8136 45.2733 43.9303 45.3247 44.0143 45.418C44.1076 45.5113 44.1636 45.628 44.1823 45.768C44.201 45.8987 44.173 46.034 44.0983 46.174C44.033 46.314 43.9163 46.4353 43.7483 46.538C43.4216 46.7433 43.0436 46.8973 42.6143 47C42.1943 47.0933 41.8023 47.14 41.4383 47.14ZM46.5202 47.112C46.2402 47.112 46.0255 47.0373 45.8762 46.888C45.7269 46.7293 45.6522 46.5053 45.6522 46.216V40.924C45.6522 40.6347 45.7269 40.4153 45.8762 40.266C46.0255 40.1167 46.2355 40.042 46.5062 40.042C46.7769 40.042 46.9869 40.1167 47.1362 40.266C47.2855 40.4153 47.3602 40.6347 47.3602 40.924V41.876L47.2062 41.526C47.4115 41.0313 47.7289 40.658 48.1582 40.406C48.5969 40.1447 49.0915 40.014 49.6422 40.014C50.1929 40.014 50.6455 40.1167 51.0002 40.322C51.3549 40.5273 51.6209 40.84 51.7982 41.26C51.9755 41.6707 52.0642 42.1933 52.0642 42.828V46.216C52.0642 46.5053 51.9895 46.7293 51.8402 46.888C51.6909 47.0373 51.4762 47.112 51.1962 47.112C50.9162 47.112 50.6969 47.0373 50.5382 46.888C50.3889 46.7293 50.3142 46.5053 50.3142 46.216V42.912C50.3142 42.38 50.2115 41.9927 50.0062 41.75C49.8102 41.5073 49.5022 41.386 49.0822 41.386C48.5689 41.386 48.1582 41.5493 47.8502 41.876C47.5515 42.1933 47.4022 42.618 47.4022 43.15V46.216C47.4022 46.8133 47.1082 47.112 46.5202 47.112ZM56.3196 47.14C55.7503 47.14 55.279 47.0373 54.9056 46.832C54.5323 46.6173 54.2523 46.3 54.0656 45.88C53.8883 45.46 53.7996 44.9373 53.7996 44.312V40.924C53.7996 40.6253 53.8743 40.406 54.0236 40.266C54.173 40.1167 54.3876 40.042 54.6676 40.042C54.9476 40.042 55.1623 40.1167 55.3116 40.266C55.4703 40.406 55.5496 40.6253 55.5496 40.924V44.34C55.5496 44.8253 55.6476 45.1847 55.8436 45.418C56.0396 45.6513 56.3523 45.768 56.7816 45.768C57.2483 45.768 57.631 45.6093 57.9296 45.292C58.2283 44.9653 58.3776 44.536 58.3776 44.004V40.924C58.3776 40.6253 58.4523 40.406 58.6016 40.266C58.751 40.1167 58.9656 40.042 59.2456 40.042C59.5256 40.042 59.7403 40.1167 59.8896 40.266C60.0483 40.406 60.1276 40.6253 60.1276 40.924V46.216C60.1276 46.8133 59.843 47.112 59.2736 47.112C59.003 47.112 58.793 47.0373 58.6436 46.888C58.4943 46.7293 58.4196 46.5053 58.4196 46.216V45.152L58.6156 45.572C58.4196 46.076 58.121 46.4633 57.7196 46.734C57.3276 47.0047 56.861 47.14 56.3196 47.14ZM63.2231 47C62.9804 47 62.7891 46.9347 62.6491 46.804C62.5184 46.664 62.4531 46.4773 62.4531 46.244C62.4531 46.0013 62.5184 45.8193 62.6491 45.698C62.7891 45.5767 62.9804 45.516 63.2231 45.516H64.7911V38.642H65.6591L63.6011 39.888C63.4237 39.9907 63.2557 40.0327 63.0971 40.014C62.9477 39.986 62.8171 39.9207 62.7051 39.818C62.6024 39.706 62.5324 39.5753 62.4951 39.426C62.4577 39.2767 62.4671 39.1273 62.5231 38.978C62.5884 38.8193 62.7097 38.6887 62.8871 38.586L64.8191 37.424C65.0057 37.312 65.1924 37.2187 65.3791 37.144C65.5657 37.06 65.7384 37.018 65.8971 37.018C66.0931 37.018 66.2564 37.074 66.3871 37.186C66.5177 37.2887 66.5831 37.4613 66.5831 37.704V45.516H68.0111C68.2537 45.516 68.4404 45.5767 68.5711 45.698C68.7111 45.8193 68.7811 46.0013 68.7811 46.244C68.7811 46.4867 68.7111 46.6733 68.5711 46.804C68.4404 46.9347 68.2537 47 68.0111 47H63.2231Z" fill="#38455D"/>
<rect x="94" y="29" width="61" height="27" rx="13.5" fill="#64728C" fill-opacity="0.07"/>
<path d="M103.918 47.112C103.657 47.112 103.456 47.0373 103.316 46.888C103.176 46.7387 103.106 46.5333 103.106 46.272V37.858C103.106 37.5873 103.181 37.382 103.33 37.242C103.479 37.0927 103.685 37.018 103.946 37.018C104.179 37.018 104.361 37.0647 104.492 37.158C104.632 37.242 104.758 37.3913 104.87 37.606L108.328 44.004H107.88L111.338 37.606C111.45 37.3913 111.571 37.242 111.702 37.158C111.833 37.0647 112.015 37.018 112.248 37.018C112.509 37.018 112.71 37.0927 112.85 37.242C112.99 37.382 113.06 37.5873 113.06 37.858V46.272C113.06 46.5333 112.99 46.7387 112.85 46.888C112.719 47.0373 112.519 47.112 112.248 47.112C111.987 47.112 111.786 47.0373 111.646 46.888C111.506 46.7387 111.436 46.5333 111.436 46.272V39.79H111.744L108.804 45.152C108.711 45.3107 108.613 45.4273 108.51 45.502C108.407 45.5767 108.267 45.614 108.09 45.614C107.913 45.614 107.768 45.5767 107.656 45.502C107.544 45.418 107.446 45.3013 107.362 45.152L104.394 39.776H104.73V46.272C104.73 46.5333 104.66 46.7387 104.52 46.888C104.389 47.0373 104.189 47.112 103.918 47.112ZM118.438 47.14C117.664 47.14 116.996 46.9953 116.436 46.706C115.876 46.4167 115.442 46.006 115.134 45.474C114.836 44.942 114.686 44.312 114.686 43.584C114.686 42.8747 114.831 42.254 115.12 41.722C115.419 41.19 115.825 40.7747 116.338 40.476C116.861 40.168 117.454 40.014 118.116 40.014C118.602 40.014 119.036 40.0933 119.418 40.252C119.81 40.4107 120.142 40.6393 120.412 40.938C120.692 41.2367 120.902 41.6007 121.042 42.03C121.192 42.45 121.266 42.926 121.266 43.458C121.266 43.626 121.206 43.7567 121.084 43.85C120.972 43.934 120.809 43.976 120.594 43.976H116.1V42.968H120.034L119.81 43.178C119.81 42.7487 119.745 42.3893 119.614 42.1C119.493 41.8107 119.311 41.5913 119.068 41.442C118.835 41.2833 118.541 41.204 118.186 41.204C117.794 41.204 117.458 41.2973 117.178 41.484C116.908 41.6613 116.698 41.918 116.548 42.254C116.408 42.5807 116.338 42.9727 116.338 43.43V43.528C116.338 44.2933 116.516 44.8673 116.87 45.25C117.234 45.6233 117.766 45.81 118.466 45.81C118.709 45.81 118.98 45.782 119.278 45.726C119.586 45.6607 119.876 45.5533 120.146 45.404C120.342 45.292 120.515 45.2453 120.664 45.264C120.814 45.2733 120.93 45.3247 121.014 45.418C121.108 45.5113 121.164 45.628 121.182 45.768C121.201 45.8987 121.173 46.034 121.098 46.174C121.033 46.314 120.916 46.4353 120.748 46.538C120.422 46.7433 120.044 46.8973 119.614 47C119.194 47.0933 118.802 47.14 118.438 47.14ZM123.52 47.112C123.24 47.112 123.026 47.0373 122.876 46.888C122.727 46.7293 122.652 46.5053 122.652 46.216V40.924C122.652 40.6347 122.727 40.4153 122.876 40.266C123.026 40.1167 123.236 40.042 123.506 40.042C123.777 40.042 123.987 40.1167 124.136 40.266C124.286 40.4153 124.36 40.6347 124.36 40.924V41.876L124.206 41.526C124.412 41.0313 124.729 40.658 125.158 40.406C125.597 40.1447 126.092 40.014 126.642 40.014C127.193 40.014 127.646 40.1167 128 40.322C128.355 40.5273 128.621 40.84 128.798 41.26C128.976 41.6707 129.064 42.1933 129.064 42.828V46.216C129.064 46.5053 128.99 46.7293 128.84 46.888C128.691 47.0373 128.476 47.112 128.196 47.112C127.916 47.112 127.697 47.0373 127.538 46.888C127.389 46.7293 127.314 46.5053 127.314 46.216V42.912C127.314 42.38 127.212 41.9927 127.006 41.75C126.81 41.5073 126.502 41.386 126.082 41.386C125.569 41.386 125.158 41.5493 124.85 41.876C124.552 42.1933 124.402 42.618 124.402 43.15V46.216C124.402 46.8133 124.108 47.112 123.52 47.112ZM133.32 47.14C132.75 47.14 132.279 47.0373 131.906 46.832C131.532 46.6173 131.252 46.3 131.066 45.88C130.888 45.46 130.8 44.9373 130.8 44.312V40.924C130.8 40.6253 130.874 40.406 131.024 40.266C131.173 40.1167 131.388 40.042 131.668 40.042C131.948 40.042 132.162 40.1167 132.312 40.266C132.47 40.406 132.55 40.6253 132.55 40.924V44.34C132.55 44.8253 132.648 45.1847 132.844 45.418C133.04 45.6513 133.352 45.768 133.782 45.768C134.248 45.768 134.631 45.6093 134.93 45.292C135.228 44.9653 135.378 44.536 135.378 44.004V40.924C135.378 40.6253 135.452 40.406 135.602 40.266C135.751 40.1167 135.966 40.042 136.246 40.042C136.526 40.042 136.74 40.1167 136.89 40.266C137.048 40.406 137.128 40.6253 137.128 40.924V46.216C137.128 46.8133 136.843 47.112 136.274 47.112C136.003 47.112 135.793 47.0373 135.644 46.888C135.494 46.7293 135.42 46.5053 135.42 46.216V45.152L135.616 45.572C135.42 46.076 135.121 46.4633 134.72 46.734C134.328 47.0047 133.861 47.14 133.32 47.14ZM139.901 47C139.602 47 139.383 46.9347 139.243 46.804C139.112 46.664 139.047 46.4633 139.047 46.202C139.047 46.0433 139.089 45.8893 139.173 45.74C139.257 45.5907 139.378 45.432 139.537 45.264L142.351 42.268C142.78 41.82 143.088 41.414 143.275 41.05C143.462 40.6767 143.555 40.3033 143.555 39.93C143.555 39.4633 143.406 39.1087 143.107 38.866C142.818 38.6233 142.393 38.502 141.833 38.502C141.516 38.502 141.198 38.5487 140.881 38.642C140.564 38.726 140.242 38.8753 139.915 39.09C139.747 39.202 139.588 39.2487 139.439 39.23C139.299 39.2113 139.173 39.1507 139.061 39.048C138.958 38.9453 138.888 38.8193 138.851 38.67C138.814 38.5207 138.818 38.3713 138.865 38.222C138.921 38.0633 139.033 37.928 139.201 37.816C139.602 37.5453 140.05 37.34 140.545 37.2C141.049 37.06 141.553 36.99 142.057 36.99C142.766 36.99 143.364 37.0973 143.849 37.312C144.334 37.5267 144.703 37.8393 144.955 38.25C145.207 38.6607 145.333 39.16 145.333 39.748C145.333 40.14 145.268 40.5227 145.137 40.896C145.016 41.2693 144.824 41.6473 144.563 42.03C144.311 42.4127 143.98 42.8187 143.569 43.248L140.937 45.992V45.516H145.053C145.305 45.516 145.496 45.5767 145.627 45.698C145.758 45.8193 145.823 46.0013 145.823 46.244C145.823 46.4867 145.758 46.6733 145.627 46.804C145.496 46.9347 145.305 47 145.053 47H139.901Z" fill="#64728C"/>
<rect x="171" y="29" width="61" height="27" rx="13.5" fill="white"/>
<path d="M180.918 47.112C180.657 47.112 180.456 47.0373 180.316 46.888C180.176 46.7387 180.106 46.5333 180.106 46.272V37.858C180.106 37.5873 180.181 37.382 180.33 37.242C180.479 37.0927 180.685 37.018 180.946 37.018C181.179 37.018 181.361 37.0647 181.492 37.158C181.632 37.242 181.758 37.3913 181.87 37.606L185.328 44.004H184.88L188.338 37.606C188.45 37.3913 188.571 37.242 188.702 37.158C188.833 37.0647 189.015 37.018 189.248 37.018C189.509 37.018 189.71 37.0927 189.85 37.242C189.99 37.382 190.06 37.5873 190.06 37.858V46.272C190.06 46.5333 189.99 46.7387 189.85 46.888C189.719 47.0373 189.519 47.112 189.248 47.112C188.987 47.112 188.786 47.0373 188.646 46.888C188.506 46.7387 188.436 46.5333 188.436 46.272V39.79H188.744L185.804 45.152C185.711 45.3107 185.613 45.4273 185.51 45.502C185.407 45.5767 185.267 45.614 185.09 45.614C184.913 45.614 184.768 45.5767 184.656 45.502C184.544 45.418 184.446 45.3013 184.362 45.152L181.394 39.776H181.73V46.272C181.73 46.5333 181.66 46.7387 181.52 46.888C181.389 47.0373 181.189 47.112 180.918 47.112ZM195.438 47.14C194.664 47.14 193.996 46.9953 193.436 46.706C192.876 46.4167 192.442 46.006 192.134 45.474C191.836 44.942 191.686 44.312 191.686 43.584C191.686 42.8747 191.831 42.254 192.12 41.722C192.419 41.19 192.825 40.7747 193.338 40.476C193.861 40.168 194.454 40.014 195.116 40.014C195.602 40.014 196.036 40.0933 196.418 40.252C196.81 40.4107 197.142 40.6393 197.412 40.938C197.692 41.2367 197.902 41.6007 198.042 42.03C198.192 42.45 198.266 42.926 198.266 43.458C198.266 43.626 198.206 43.7567 198.084 43.85C197.972 43.934 197.809 43.976 197.594 43.976H193.1V42.968H197.034L196.81 43.178C196.81 42.7487 196.745 42.3893 196.614 42.1C196.493 41.8107 196.311 41.5913 196.068 41.442C195.835 41.2833 195.541 41.204 195.186 41.204C194.794 41.204 194.458 41.2973 194.178 41.484C193.908 41.6613 193.698 41.918 193.548 42.254C193.408 42.5807 193.338 42.9727 193.338 43.43V43.528C193.338 44.2933 193.516 44.8673 193.87 45.25C194.234 45.6233 194.766 45.81 195.466 45.81C195.709 45.81 195.98 45.782 196.278 45.726C196.586 45.6607 196.876 45.5533 197.146 45.404C197.342 45.292 197.515 45.2453 197.664 45.264C197.814 45.2733 197.93 45.3247 198.014 45.418C198.108 45.5113 198.164 45.628 198.182 45.768C198.201 45.8987 198.173 46.034 198.098 46.174C198.033 46.314 197.916 46.4353 197.748 46.538C197.422 46.7433 197.044 46.8973 196.614 47C196.194 47.0933 195.802 47.14 195.438 47.14ZM200.52 47.112C200.24 47.112 200.026 47.0373 199.876 46.888C199.727 46.7293 199.652 46.5053 199.652 46.216V40.924C199.652 40.6347 199.727 40.4153 199.876 40.266C200.026 40.1167 200.236 40.042 200.506 40.042C200.777 40.042 200.987 40.1167 201.136 40.266C201.286 40.4153 201.36 40.6347 201.36 40.924V41.876L201.206 41.526C201.412 41.0313 201.729 40.658 202.158 40.406C202.597 40.1447 203.092 40.014 203.642 40.014C204.193 40.014 204.646 40.1167 205 40.322C205.355 40.5273 205.621 40.84 205.798 41.26C205.976 41.6707 206.064 42.1933 206.064 42.828V46.216C206.064 46.5053 205.99 46.7293 205.84 46.888C205.691 47.0373 205.476 47.112 205.196 47.112C204.916 47.112 204.697 47.0373 204.538 46.888C204.389 46.7293 204.314 46.5053 204.314 46.216V42.912C204.314 42.38 204.212 41.9927 204.006 41.75C203.81 41.5073 203.502 41.386 203.082 41.386C202.569 41.386 202.158 41.5493 201.85 41.876C201.552 42.1933 201.402 42.618 201.402 43.15V46.216C201.402 46.8133 201.108 47.112 200.52 47.112ZM210.32 47.14C209.75 47.14 209.279 47.0373 208.906 46.832C208.532 46.6173 208.252 46.3 208.066 45.88C207.888 45.46 207.8 44.9373 207.8 44.312V40.924C207.8 40.6253 207.874 40.406 208.024 40.266C208.173 40.1167 208.388 40.042 208.668 40.042C208.948 40.042 209.162 40.1167 209.312 40.266C209.47 40.406 209.55 40.6253 209.55 40.924V44.34C209.55 44.8253 209.648 45.1847 209.844 45.418C210.04 45.6513 210.352 45.768 210.782 45.768C211.248 45.768 211.631 45.6093 211.93 45.292C212.228 44.9653 212.378 44.536 212.378 44.004V40.924C212.378 40.6253 212.452 40.406 212.602 40.266C212.751 40.1167 212.966 40.042 213.246 40.042C213.526 40.042 213.74 40.1167 213.89 40.266C214.048 40.406 214.128 40.6253 214.128 40.924V46.216C214.128 46.8133 213.843 47.112 213.274 47.112C213.003 47.112 212.793 47.0373 212.644 46.888C212.494 46.7293 212.42 46.5053 212.42 46.216V45.152L212.616 45.572C212.42 46.076 212.121 46.4633 211.72 46.734C211.328 47.0047 210.861 47.14 210.32 47.14ZM219.043 47.14C218.539 47.14 218.016 47.0747 217.475 46.944C216.934 46.8133 216.462 46.6173 216.061 46.356C215.874 46.2347 215.748 46.0947 215.683 45.936C215.618 45.7773 215.599 45.628 215.627 45.488C215.664 45.3387 215.734 45.2127 215.837 45.11C215.949 45.0073 216.084 44.9467 216.243 44.928C216.411 44.9093 216.593 44.9513 216.789 45.054C217.172 45.2593 217.54 45.4087 217.895 45.502C218.25 45.586 218.614 45.628 218.987 45.628C219.398 45.628 219.743 45.572 220.023 45.46C220.303 45.348 220.513 45.18 220.653 44.956C220.802 44.732 220.877 44.4613 220.877 44.144C220.877 43.6773 220.718 43.332 220.401 43.108C220.093 42.8747 219.64 42.758 219.043 42.758H218.147C217.886 42.758 217.685 42.6927 217.545 42.562C217.414 42.4313 217.349 42.2493 217.349 42.016C217.349 41.7827 217.414 41.6007 217.545 41.47C217.685 41.3393 217.886 41.274 218.147 41.274H218.875C219.23 41.274 219.533 41.218 219.785 41.106C220.037 40.9847 220.233 40.8167 220.373 40.602C220.513 40.3873 220.583 40.126 220.583 39.818C220.583 39.3887 220.438 39.062 220.149 38.838C219.869 38.614 219.458 38.502 218.917 38.502C218.572 38.502 218.245 38.544 217.937 38.628C217.638 38.7027 217.307 38.8473 216.943 39.062C216.775 39.1647 216.612 39.2067 216.453 39.188C216.304 39.1693 216.178 39.1087 216.075 39.006C215.972 38.9033 215.902 38.782 215.865 38.642C215.828 38.4927 215.837 38.3433 215.893 38.194C215.949 38.0353 216.066 37.9 216.243 37.788C216.644 37.5267 217.088 37.3307 217.573 37.2C218.058 37.06 218.558 36.99 219.071 36.99C219.752 36.99 220.336 37.0973 220.821 37.312C221.306 37.5173 221.675 37.816 221.927 38.208C222.188 38.5907 222.319 39.0573 222.319 39.608C222.319 40 222.244 40.3593 222.095 40.686C221.946 41.0033 221.736 41.274 221.465 41.498C221.194 41.722 220.868 41.8807 220.485 41.974V41.806C221.157 41.918 221.68 42.198 222.053 42.646C222.426 43.0847 222.613 43.6353 222.613 44.298C222.613 44.8767 222.468 45.3807 222.179 45.81C221.89 46.2393 221.479 46.5707 220.947 46.804C220.415 47.028 219.78 47.14 219.043 47.14Z" fill="#64728C"/>
<rect x="248" y="29" width="61" height="27" rx="13.5" fill="white"/>
<path d="M257.918 47.112C257.657 47.112 257.456 47.0373 257.316 46.888C257.176 46.7387 257.106 46.5333 257.106 46.272V37.858C257.106 37.5873 257.181 37.382 257.33 37.242C257.479 37.0927 257.685 37.018 257.946 37.018C258.179 37.018 258.361 37.0647 258.492 37.158C258.632 37.242 258.758 37.3913 258.87 37.606L262.328 44.004H261.88L265.338 37.606C265.45 37.3913 265.571 37.242 265.702 37.158C265.833 37.0647 266.015 37.018 266.248 37.018C266.509 37.018 266.71 37.0927 266.85 37.242C266.99 37.382 267.06 37.5873 267.06 37.858V46.272C267.06 46.5333 266.99 46.7387 266.85 46.888C266.719 47.0373 266.519 47.112 266.248 47.112C265.987 47.112 265.786 47.0373 265.646 46.888C265.506 46.7387 265.436 46.5333 265.436 46.272V39.79H265.744L262.804 45.152C262.711 45.3107 262.613 45.4273 262.51 45.502C262.407 45.5767 262.267 45.614 262.09 45.614C261.913 45.614 261.768 45.5767 261.656 45.502C261.544 45.418 261.446 45.3013 261.362 45.152L258.394 39.776H258.73V46.272C258.73 46.5333 258.66 46.7387 258.52 46.888C258.389 47.0373 258.189 47.112 257.918 47.112ZM272.438 47.14C271.664 47.14 270.996 46.9953 270.436 46.706C269.876 46.4167 269.442 46.006 269.134 45.474C268.836 44.942 268.686 44.312 268.686 43.584C268.686 42.8747 268.831 42.254 269.12 41.722C269.419 41.19 269.825 40.7747 270.338 40.476C270.861 40.168 271.454 40.014 272.116 40.014C272.602 40.014 273.036 40.0933 273.418 40.252C273.81 40.4107 274.142 40.6393 274.412 40.938C274.692 41.2367 274.902 41.6007 275.042 42.03C275.192 42.45 275.266 42.926 275.266 43.458C275.266 43.626 275.206 43.7567 275.084 43.85C274.972 43.934 274.809 43.976 274.594 43.976H270.1V42.968H274.034L273.81 43.178C273.81 42.7487 273.745 42.3893 273.614 42.1C273.493 41.8107 273.311 41.5913 273.068 41.442C272.835 41.2833 272.541 41.204 272.186 41.204C271.794 41.204 271.458 41.2973 271.178 41.484C270.908 41.6613 270.698 41.918 270.548 42.254C270.408 42.5807 270.338 42.9727 270.338 43.43V43.528C270.338 44.2933 270.516 44.8673 270.87 45.25C271.234 45.6233 271.766 45.81 272.466 45.81C272.709 45.81 272.98 45.782 273.278 45.726C273.586 45.6607 273.876 45.5533 274.146 45.404C274.342 45.292 274.515 45.2453 274.664 45.264C274.814 45.2733 274.93 45.3247 275.014 45.418C275.108 45.5113 275.164 45.628 275.182 45.768C275.201 45.8987 275.173 46.034 275.098 46.174C275.033 46.314 274.916 46.4353 274.748 46.538C274.422 46.7433 274.044 46.8973 273.614 47C273.194 47.0933 272.802 47.14 272.438 47.14ZM277.52 47.112C277.24 47.112 277.026 47.0373 276.876 46.888C276.727 46.7293 276.652 46.5053 276.652 46.216V40.924C276.652 40.6347 276.727 40.4153 276.876 40.266C277.026 40.1167 277.236 40.042 277.506 40.042C277.777 40.042 277.987 40.1167 278.136 40.266C278.286 40.4153 278.36 40.6347 278.36 40.924V41.876L278.206 41.526C278.412 41.0313 278.729 40.658 279.158 40.406C279.597 40.1447 280.092 40.014 280.642 40.014C281.193 40.014 281.646 40.1167 282 40.322C282.355 40.5273 282.621 40.84 282.798 41.26C282.976 41.6707 283.064 42.1933 283.064 42.828V46.216C283.064 46.5053 282.99 46.7293 282.84 46.888C282.691 47.0373 282.476 47.112 282.196 47.112C281.916 47.112 281.697 47.0373 281.538 46.888C281.389 46.7293 281.314 46.5053 281.314 46.216V42.912C281.314 42.38 281.212 41.9927 281.006 41.75C280.81 41.5073 280.502 41.386 280.082 41.386C279.569 41.386 279.158 41.5493 278.85 41.876C278.552 42.1933 278.402 42.618 278.402 43.15V46.216C278.402 46.8133 278.108 47.112 277.52 47.112ZM287.32 47.14C286.75 47.14 286.279 47.0373 285.906 46.832C285.532 46.6173 285.252 46.3 285.066 45.88C284.888 45.46 284.8 44.9373 284.8 44.312V40.924C284.8 40.6253 284.874 40.406 285.024 40.266C285.173 40.1167 285.388 40.042 285.668 40.042C285.948 40.042 286.162 40.1167 286.312 40.266C286.47 40.406 286.55 40.6253 286.55 40.924V44.34C286.55 44.8253 286.648 45.1847 286.844 45.418C287.04 45.6513 287.352 45.768 287.782 45.768C288.248 45.768 288.631 45.6093 288.93 45.292C289.228 44.9653 289.378 44.536 289.378 44.004V40.924C289.378 40.6253 289.452 40.406 289.602 40.266C289.751 40.1167 289.966 40.042 290.246 40.042C290.526 40.042 290.74 40.1167 290.89 40.266C291.048 40.406 291.128 40.6253 291.128 40.924V46.216C291.128 46.8133 290.843 47.112 290.274 47.112C290.003 47.112 289.793 47.0373 289.644 46.888C289.494 46.7293 289.42 46.5053 289.42 46.216V45.152L289.616 45.572C289.42 46.076 289.121 46.4633 288.72 46.734C288.328 47.0047 287.861 47.14 287.32 47.14ZM297.821 47.112C297.541 47.112 297.322 47.0373 297.163 46.888C297.004 46.7293 296.925 46.5053 296.925 46.216V45.124H293.467C293.178 45.124 292.944 45.0633 292.767 44.942C292.599 44.8207 292.515 44.6293 292.515 44.368C292.515 44.2187 292.552 44.0553 292.627 43.878C292.711 43.7007 292.856 43.4673 293.061 43.178L296.897 37.62C297.028 37.424 297.172 37.2747 297.331 37.172C297.49 37.0693 297.672 37.018 297.877 37.018C298.12 37.018 298.32 37.0927 298.479 37.242C298.638 37.382 298.717 37.606 298.717 37.914V43.64H299.403C299.674 43.64 299.874 43.7053 300.005 43.836C300.145 43.9573 300.215 44.1393 300.215 44.382C300.215 44.6247 300.145 44.8113 300.005 44.942C299.874 45.0633 299.674 45.124 299.403 45.124H298.717V46.216C298.717 46.5053 298.638 46.7293 298.479 46.888C298.32 47.0373 298.101 47.112 297.821 47.112ZM296.925 43.64V39.272H297.331L294.027 44.116V43.64H296.925Z" fill="#64728C"/>
<rect x="25" y="57" width="30" height="5" rx="2.5" fill="#FE5000"/>
</svg>
