<svg width="506" height="263" viewBox="0 0 506 263" fill="none" xmlns="http://www.w3.org/2000/svg">
<path d="M7.22 170.16C6.80667 170.16 6.48667 170.047 6.26 169.82C6.04667 169.58 5.94 169.253 5.94 168.84V158.04H2.04C1.69333 158.04 1.42 157.947 1.22 157.76C1.03333 157.56 0.94 157.293 0.94 156.96C0.94 156.613 1.03333 156.353 1.22 156.18C1.42 155.993 1.69333 155.9 2.04 155.9H12.4C12.7467 155.9 13.0133 155.993 13.2 156.18C13.4 156.353 13.5 156.613 13.5 156.96C13.5 157.293 13.4 157.56 13.2 157.76C13.0133 157.947 12.7467 158.04 12.4 158.04H8.5V168.84C8.5 169.253 8.39333 169.58 8.18 169.82C7.96667 170.047 7.64667 170.16 7.22 170.16ZM15.698 173.76C15.4046 173.76 15.1646 173.68 14.978 173.52C14.7913 173.373 14.678 173.173 14.638 172.92C14.6113 172.667 14.658 172.4 14.778 172.12L16.138 169.1V170.14L12.498 161.72C12.378 161.427 12.338 161.153 12.378 160.9C12.418 160.647 12.538 160.447 12.738 160.3C12.9513 160.14 13.238 160.06 13.598 160.06C13.9046 160.06 14.1513 160.133 14.338 160.28C14.5246 160.413 14.6913 160.673 14.838 161.06L17.538 167.8H16.938L19.698 161.04C19.8446 160.667 20.018 160.413 20.218 160.28C20.418 160.133 20.6846 160.06 21.018 160.06C21.3113 160.06 21.5446 160.14 21.718 160.3C21.8913 160.447 21.998 160.647 22.038 160.9C22.078 161.14 22.0313 161.407 21.898 161.7L17.038 172.8C16.8646 173.173 16.678 173.427 16.478 173.56C16.278 173.693 16.018 173.76 15.698 173.76ZM24.9853 173.76C24.5853 173.76 24.2786 173.653 24.0653 173.44C23.852 173.227 23.7453 172.913 23.7453 172.5V161.32C23.7453 160.907 23.852 160.593 24.0653 160.38C24.2786 160.167 24.5786 160.06 24.9653 160.06C25.3653 160.06 25.672 160.167 25.8853 160.38C26.0986 160.593 26.2053 160.907 26.2053 161.32V162.88L25.9853 162.28C26.1853 161.6 26.592 161.053 27.2053 160.64C27.832 160.227 28.5586 160.02 29.3853 160.02C30.2386 160.02 30.9853 160.227 31.6253 160.64C32.2786 161.053 32.7853 161.64 33.1453 162.4C33.5053 163.147 33.6853 164.047 33.6853 165.1C33.6853 166.14 33.5053 167.047 33.1453 167.82C32.7853 168.58 32.2853 169.167 31.6453 169.58C31.0053 169.993 30.252 170.2 29.3853 170.2C28.572 170.2 27.8586 170 27.2453 169.6C26.632 169.187 26.2186 168.653 26.0053 168H26.2453V172.5C26.2453 172.913 26.132 173.227 25.9053 173.44C25.692 173.653 25.3853 173.76 24.9853 173.76ZM28.6853 168.3C29.1786 168.3 29.612 168.18 29.9853 167.94C30.3586 167.7 30.6453 167.347 30.8453 166.88C31.0586 166.4 31.1653 165.807 31.1653 165.1C31.1653 164.033 30.9386 163.24 30.4853 162.72C30.032 162.187 29.432 161.92 28.6853 161.92C28.192 161.92 27.7586 162.04 27.3853 162.28C27.012 162.507 26.7186 162.86 26.5053 163.34C26.3053 163.807 26.2053 164.393 26.2053 165.1C26.2053 166.153 26.432 166.953 26.8853 167.5C27.3386 168.033 27.9386 168.3 28.6853 168.3ZM40.5575 170.2C39.4508 170.2 38.4975 169.993 37.6975 169.58C36.8975 169.167 36.2775 168.58 35.8375 167.82C35.4108 167.06 35.1975 166.16 35.1975 165.12C35.1975 164.107 35.4042 163.22 35.8175 162.46C36.2442 161.7 36.8242 161.107 37.5575 160.68C38.3042 160.24 39.1508 160.02 40.0975 160.02C40.7908 160.02 41.4108 160.133 41.9575 160.36C42.5175 160.587 42.9908 160.913 43.3775 161.34C43.7775 161.767 44.0775 162.287 44.2775 162.9C44.4908 163.5 44.5975 164.18 44.5975 164.94C44.5975 165.18 44.5108 165.367 44.3375 165.5C44.1775 165.62 43.9442 165.68 43.6375 165.68H37.2175V164.24H42.8375L42.5175 164.54C42.5175 163.927 42.4242 163.413 42.2375 163C42.0642 162.587 41.8042 162.273 41.4575 162.06C41.1242 161.833 40.7042 161.72 40.1975 161.72C39.6375 161.72 39.1575 161.853 38.7575 162.12C38.3708 162.373 38.0708 162.74 37.8575 163.22C37.6575 163.687 37.5575 164.247 37.5575 164.9V165.04C37.5575 166.133 37.8108 166.953 38.3175 167.5C38.8375 168.033 39.5975 168.3 40.5975 168.3C40.9442 168.3 41.3308 168.26 41.7575 168.18C42.1975 168.087 42.6108 167.933 42.9975 167.72C43.2775 167.56 43.5242 167.493 43.7375 167.52C43.9508 167.533 44.1175 167.607 44.2375 167.74C44.3708 167.873 44.4508 168.04 44.4775 168.24C44.5042 168.427 44.4642 168.62 44.3575 168.82C44.2642 169.02 44.0975 169.193 43.8575 169.34C43.3908 169.633 42.8508 169.853 42.2375 170C41.6375 170.133 41.0775 170.2 40.5575 170.2ZM56.467 170.2C55.4537 170.2 54.5737 169.993 53.827 169.58C53.0804 169.167 52.5004 168.58 52.087 167.82C51.6737 167.047 51.467 166.14 51.467 165.1C51.467 164.313 51.5804 163.613 51.807 163C52.047 162.373 52.387 161.84 52.827 161.4C53.267 160.947 53.7937 160.607 54.407 160.38C55.0204 160.14 55.707 160.02 56.467 160.02C57.4804 160.02 58.3604 160.227 59.107 160.64C59.8537 161.053 60.4337 161.64 60.847 162.4C61.2604 163.16 61.467 164.06 61.467 165.1C61.467 165.887 61.347 166.593 61.107 167.22C60.8804 167.847 60.547 168.387 60.107 168.84C59.667 169.28 59.1404 169.62 58.527 169.86C57.9137 170.087 57.227 170.2 56.467 170.2ZM56.467 168.3C56.9604 168.3 57.3937 168.18 57.767 167.94C58.1404 167.7 58.427 167.347 58.627 166.88C58.8404 166.4 58.947 165.807 58.947 165.1C58.947 164.033 58.7204 163.24 58.267 162.72C57.8137 162.187 57.2137 161.92 56.467 161.92C55.9737 161.92 55.5404 162.04 55.167 162.28C54.7937 162.507 54.5004 162.86 54.287 163.34C54.087 163.807 53.987 164.393 53.987 165.1C53.987 166.153 54.2137 166.953 54.667 167.5C55.1204 168.033 55.7204 168.3 56.467 168.3ZM65.3528 170.16C64.9528 170.16 64.6395 170.053 64.4128 169.84C64.1995 169.613 64.0928 169.293 64.0928 168.88V162.1H63.1728C62.8528 162.1 62.6061 162.02 62.4328 161.86C62.2595 161.687 62.1728 161.453 62.1728 161.16C62.1728 160.853 62.2595 160.62 62.4328 160.46C62.6061 160.3 62.8528 160.22 63.1728 160.22H64.8128L64.0928 160.88V160.2C64.0928 158.827 64.4395 157.8 65.1328 157.12C65.8261 156.427 66.8261 156.02 68.1328 155.9L68.8128 155.84C69.0795 155.813 69.2928 155.86 69.4528 155.98C69.6128 156.087 69.7195 156.233 69.7728 156.42C69.8261 156.593 69.8328 156.773 69.7928 156.96C69.7528 157.147 69.6661 157.313 69.5328 157.46C69.4128 157.593 69.2528 157.667 69.0528 157.68L68.7728 157.7C68.0128 157.753 67.4595 157.947 67.1128 158.28C66.7661 158.613 66.5928 159.12 66.5928 159.8V160.54L66.2728 160.22H68.2928C68.6128 160.22 68.8595 160.3 69.0328 160.46C69.2061 160.62 69.2928 160.853 69.2928 161.16C69.2928 161.453 69.2061 161.687 69.0328 161.86C68.8595 162.02 68.6128 162.1 68.2928 162.1H66.5928V168.88C66.5928 169.733 66.1795 170.16 65.3528 170.16ZM83.1677 170.2C81.6077 170.2 80.2877 169.907 79.2077 169.32C78.141 168.733 77.3277 167.9 76.7677 166.82C76.2077 165.74 75.9277 164.46 75.9277 162.98C75.9277 161.86 76.0877 160.853 76.4077 159.96C76.741 159.067 77.2143 158.307 77.8277 157.68C78.4543 157.04 79.2143 156.553 80.1077 156.22C81.001 155.873 82.0143 155.7 83.1477 155.7C83.8943 155.7 84.641 155.793 85.3877 155.98C86.1477 156.153 86.861 156.453 87.5277 156.88C87.7543 157.027 87.901 157.207 87.9677 157.42C88.0477 157.633 88.061 157.853 88.0077 158.08C87.9543 158.293 87.8543 158.48 87.7077 158.64C87.561 158.8 87.3743 158.9 87.1477 158.94C86.9343 158.98 86.6943 158.927 86.4277 158.78C85.921 158.487 85.4077 158.273 84.8877 158.14C84.3677 158.007 83.7877 157.94 83.1477 157.94C82.161 157.94 81.3277 158.14 80.6477 158.54C79.9677 158.927 79.4543 159.493 79.1077 160.24C78.7743 160.987 78.6077 161.9 78.6077 162.98C78.6077 164.62 79.001 165.867 79.7877 166.72C80.5743 167.573 81.741 168 83.2877 168C83.821 168 84.361 167.947 84.9077 167.84C85.4543 167.733 85.9877 167.587 86.5077 167.4L86.0077 168.54V164.28H83.8077C83.4743 164.28 83.2143 164.193 83.0277 164.02C82.8543 163.847 82.7677 163.613 82.7677 163.32C82.7677 163.013 82.8543 162.78 83.0277 162.62C83.2143 162.46 83.4743 162.38 83.8077 162.38H87.1077C87.441 162.38 87.6943 162.473 87.8677 162.66C88.0543 162.833 88.1477 163.087 88.1477 163.42V168.28C88.1477 168.573 88.0877 168.82 87.9677 169.02C87.861 169.22 87.681 169.367 87.4277 169.46C86.841 169.673 86.1677 169.853 85.4077 170C84.6477 170.133 83.901 170.2 83.1677 170.2ZM95.3342 170.2C94.3209 170.2 93.4409 169.993 92.6942 169.58C91.9476 169.167 91.3676 168.58 90.9542 167.82C90.5409 167.047 90.3342 166.14 90.3342 165.1C90.3342 164.313 90.4476 163.613 90.6742 163C90.9142 162.373 91.2542 161.84 91.6942 161.4C92.1342 160.947 92.6609 160.607 93.2742 160.38C93.8876 160.14 94.5742 160.02 95.3342 160.02C96.3476 160.02 97.2276 160.227 97.9742 160.64C98.7209 161.053 99.3009 161.64 99.7142 162.4C100.128 163.16 100.334 164.06 100.334 165.1C100.334 165.887 100.214 166.593 99.9742 167.22C99.7476 167.847 99.4142 168.387 98.9742 168.84C98.5342 169.28 98.0076 169.62 97.3942 169.86C96.7809 170.087 96.0942 170.2 95.3342 170.2ZM95.3342 168.3C95.8276 168.3 96.2609 168.18 96.6342 167.94C97.0076 167.7 97.2942 167.347 97.4942 166.88C97.7076 166.4 97.8142 165.807 97.8142 165.1C97.8142 164.033 97.5876 163.24 97.1342 162.72C96.6809 162.187 96.0809 161.92 95.3342 161.92C94.8409 161.92 94.4076 162.04 94.0342 162.28C93.6609 162.507 93.3676 162.86 93.1542 163.34C92.9542 163.807 92.8542 164.393 92.8542 165.1C92.8542 166.153 93.0809 166.953 93.5342 167.5C93.9876 168.033 94.5876 168.3 95.3342 168.3ZM105.618 170.2C104.911 170.2 104.278 170.067 103.718 169.8C103.171 169.52 102.738 169.147 102.418 168.68C102.111 168.213 101.958 167.687 101.958 167.1C101.958 166.38 102.144 165.813 102.518 165.4C102.891 164.973 103.498 164.667 104.338 164.48C105.178 164.293 106.304 164.2 107.718 164.2H108.718V165.64H107.738C106.911 165.64 106.251 165.68 105.758 165.76C105.264 165.84 104.911 165.98 104.698 166.18C104.498 166.367 104.398 166.633 104.398 166.98C104.398 167.42 104.551 167.78 104.858 168.06C105.164 168.34 105.591 168.48 106.138 168.48C106.578 168.48 106.964 168.38 107.298 168.18C107.644 167.967 107.918 167.68 108.118 167.32C108.318 166.96 108.418 166.547 108.418 166.08V163.78C108.418 163.113 108.271 162.633 107.978 162.34C107.684 162.047 107.191 161.9 106.498 161.9C106.111 161.9 105.691 161.947 105.238 162.04C104.798 162.133 104.331 162.293 103.838 162.52C103.584 162.64 103.358 162.673 103.158 162.62C102.971 162.567 102.824 162.46 102.718 162.3C102.611 162.127 102.558 161.94 102.558 161.74C102.558 161.54 102.611 161.347 102.718 161.16C102.824 160.96 103.004 160.813 103.258 160.72C103.871 160.467 104.458 160.287 105.018 160.18C105.591 160.073 106.111 160.02 106.578 160.02C107.538 160.02 108.324 160.167 108.938 160.46C109.564 160.753 110.031 161.2 110.338 161.8C110.644 162.387 110.798 163.147 110.798 164.08V168.88C110.798 169.293 110.698 169.613 110.498 169.84C110.298 170.053 110.011 170.16 109.638 170.16C109.264 170.16 108.971 170.053 108.758 169.84C108.558 169.613 108.458 169.293 108.458 168.88V167.92H108.618C108.524 168.387 108.338 168.793 108.058 169.14C107.791 169.473 107.451 169.733 107.038 169.92C106.624 170.107 106.151 170.2 105.618 170.2ZM116.675 170.2C115.568 170.2 114.735 169.887 114.175 169.26C113.615 168.62 113.335 167.687 113.335 166.46V157C113.335 156.587 113.442 156.273 113.655 156.06C113.868 155.847 114.175 155.74 114.575 155.74C114.975 155.74 115.282 155.847 115.495 156.06C115.722 156.273 115.835 156.587 115.835 157V166.34C115.835 166.953 115.962 167.407 116.215 167.7C116.482 167.993 116.855 168.14 117.335 168.14C117.442 168.14 117.542 168.14 117.635 168.14C117.728 168.127 117.822 168.113 117.915 168.1C118.102 168.073 118.228 168.127 118.295 168.26C118.362 168.38 118.395 168.633 118.395 169.02C118.395 169.353 118.328 169.613 118.195 169.8C118.062 169.987 117.842 170.1 117.535 170.14C117.402 170.153 117.262 170.167 117.115 170.18C116.968 170.193 116.822 170.2 116.675 170.2ZM123.204 170.2C122.631 170.2 122.024 170.14 121.384 170.02C120.744 169.9 120.171 169.693 119.664 169.4C119.451 169.267 119.298 169.113 119.204 168.94C119.124 168.753 119.091 168.573 119.104 168.4C119.131 168.213 119.198 168.053 119.304 167.92C119.424 167.787 119.571 167.7 119.744 167.66C119.931 167.62 120.131 167.653 120.344 167.76C120.878 168.013 121.378 168.193 121.844 168.3C122.311 168.393 122.771 168.44 123.224 168.44C123.864 168.44 124.338 168.333 124.644 168.12C124.964 167.893 125.124 167.6 125.124 167.24C125.124 166.933 125.018 166.7 124.804 166.54C124.604 166.367 124.298 166.24 123.884 166.16L121.884 165.78C121.058 165.62 120.424 165.32 119.984 164.88C119.558 164.427 119.344 163.847 119.344 163.14C119.344 162.5 119.518 161.947 119.864 161.48C120.224 161.013 120.718 160.653 121.344 160.4C121.971 160.147 122.691 160.02 123.504 160.02C124.091 160.02 124.638 160.087 125.144 160.22C125.664 160.34 126.164 160.533 126.644 160.8C126.844 160.907 126.978 161.047 127.044 161.22C127.124 161.393 127.144 161.573 127.104 161.76C127.064 161.933 126.984 162.093 126.864 162.24C126.744 162.373 126.591 162.46 126.404 162.5C126.231 162.527 126.031 162.487 125.804 162.38C125.391 162.167 124.991 162.013 124.604 161.92C124.231 161.827 123.871 161.78 123.524 161.78C122.871 161.78 122.384 161.893 122.064 162.12C121.758 162.347 121.604 162.647 121.604 163.02C121.604 163.3 121.698 163.533 121.884 163.72C122.071 163.907 122.358 164.033 122.744 164.1L124.744 164.48C125.611 164.64 126.264 164.933 126.704 165.36C127.158 165.787 127.384 166.36 127.384 167.08C127.384 168.053 127.004 168.82 126.244 169.38C125.484 169.927 124.471 170.2 123.204 170.2Z" fill="#38455D"/>
<rect x="1" y="191" width="505" height="72" rx="16" fill="white"/>
<rect x="1.5" y="191.5" width="504" height="71" rx="15.5" stroke="#FE5000" stroke-opacity="0.32"/>
<line x1="173.5" y1="192" x2="173.5" y2="263" stroke="#64728C" stroke-opacity="0.3"/>
<line x1="334.5" y1="192" x2="334.5" y2="263" stroke="#64728C" stroke-opacity="0.3"/>
<path d="M385.288 232.16C384.2 232.16 383.245 231.92 382.424 231.44C381.613 230.96 380.984 230.288 380.536 229.424C380.088 228.549 379.864 227.525 379.864 226.352C379.864 225.467 379.992 224.672 380.248 223.968C380.504 223.253 380.867 222.645 381.336 222.144C381.816 221.632 382.387 221.243 383.048 220.976C383.72 220.699 384.467 220.56 385.288 220.56C386.387 220.56 387.341 220.8 388.152 221.28C388.963 221.749 389.592 222.416 390.04 223.28C390.488 224.144 390.712 225.163 390.712 226.336C390.712 227.221 390.584 228.021 390.328 228.736C390.072 229.451 389.704 230.064 389.224 230.576C388.755 231.088 388.184 231.483 387.512 231.76C386.851 232.027 386.109 232.16 385.288 232.16ZM385.288 230.4C385.981 230.4 386.568 230.24 387.048 229.92C387.539 229.6 387.912 229.136 388.168 228.528C388.435 227.92 388.568 227.195 388.568 226.352C388.568 225.072 388.28 224.08 387.704 223.376C387.139 222.672 386.333 222.32 385.288 222.32C384.605 222.32 384.019 222.48 383.528 222.8C383.037 223.109 382.659 223.568 382.392 224.176C382.136 224.773 382.008 225.499 382.008 226.352C382.008 227.621 382.296 228.613 382.872 229.328C383.448 230.043 384.253 230.4 385.288 230.4ZM393.819 232.128C393.488 232.128 393.232 232.037 393.051 231.856C392.88 231.664 392.795 231.403 392.795 231.072V221.632C392.795 221.291 392.88 221.035 393.051 220.864C393.232 220.683 393.488 220.592 393.819 220.592C394.149 220.592 394.4 220.683 394.571 220.864C394.752 221.035 394.843 221.291 394.843 221.632V225.712H394.875L399.467 221.104C399.637 220.933 399.808 220.805 399.979 220.72C400.149 220.635 400.341 220.592 400.555 220.592C400.864 220.592 401.083 220.672 401.211 220.832C401.349 220.992 401.403 221.179 401.371 221.392C401.349 221.605 401.248 221.803 401.067 221.984L396.395 226.608L396.411 225.68L401.291 230.64C401.515 230.853 401.632 231.077 401.643 231.312C401.653 231.547 401.579 231.744 401.419 231.904C401.269 232.053 401.045 232.128 400.747 232.128C400.491 232.128 400.283 232.075 400.123 231.968C399.973 231.861 399.797 231.707 399.595 231.504L394.875 226.784H394.843V231.072C394.843 231.403 394.757 231.664 394.587 231.856C394.416 232.037 394.16 232.128 393.819 232.128ZM404.459 232.128C404.128 232.128 403.872 232.037 403.691 231.856C403.52 231.664 403.435 231.403 403.435 231.072V221.76C403.435 221.419 403.526 221.163 403.707 220.992C403.888 220.811 404.144 220.72 404.475 220.72H408.331C409.568 220.72 410.523 221.019 411.195 221.616C411.867 222.203 412.203 223.029 412.203 224.096C412.203 224.789 412.048 225.387 411.739 225.888C411.44 226.389 411.003 226.773 410.427 227.04C409.851 227.307 409.152 227.44 408.331 227.44L408.475 227.2H409.003C409.44 227.2 409.819 227.307 410.139 227.52C410.47 227.733 410.758 228.069 411.003 228.528L412.203 230.752C412.331 230.976 412.39 231.195 412.379 231.408C412.368 231.621 412.288 231.797 412.139 231.936C411.99 232.064 411.771 232.128 411.483 232.128C411.195 232.128 410.96 232.069 410.779 231.952C410.598 231.824 410.438 231.632 410.299 231.376L408.683 228.4C408.491 228.037 408.262 227.797 407.995 227.68C407.739 227.552 407.408 227.488 407.003 227.488H405.483V231.072C405.483 231.403 405.398 231.664 405.227 231.856C405.056 232.037 404.8 232.128 404.459 232.128ZM405.483 225.968H407.979C408.715 225.968 409.27 225.819 409.643 225.52C410.027 225.211 410.219 224.752 410.219 224.144C410.219 223.547 410.027 223.099 409.643 222.8C409.27 222.491 408.715 222.336 407.979 222.336H405.483V225.968ZM423.804 232.16C422.716 232.16 421.761 231.92 420.94 231.44C420.129 230.96 419.5 230.288 419.052 229.424C418.604 228.549 418.38 227.525 418.38 226.352C418.38 225.467 418.508 224.672 418.764 223.968C419.02 223.253 419.382 222.645 419.852 222.144C420.332 221.632 420.902 221.243 421.564 220.976C422.236 220.699 422.982 220.56 423.804 220.56C424.902 220.56 425.857 220.8 426.668 221.28C427.478 221.749 428.108 222.416 428.556 223.28C429.004 224.144 429.228 225.163 429.228 226.336C429.228 227.221 429.1 228.021 428.844 228.736C428.588 229.451 428.22 230.064 427.74 230.576C427.27 231.088 426.7 231.483 426.028 231.76C425.366 232.027 424.625 232.16 423.804 232.16ZM423.804 230.4C424.497 230.4 425.084 230.24 425.564 229.92C426.054 229.6 426.428 229.136 426.684 228.528C426.95 227.92 427.084 227.195 427.084 226.352C427.084 225.072 426.796 224.08 426.22 223.376C425.654 222.672 424.849 222.32 423.804 222.32C423.121 222.32 422.534 222.48 422.044 222.8C421.553 223.109 421.174 223.568 420.908 224.176C420.652 224.773 420.524 225.499 420.524 226.352C420.524 227.621 420.812 228.613 421.388 229.328C421.964 230.043 422.769 230.4 423.804 230.4ZM432.11 232.128C431.79 232.128 431.545 232.043 431.374 231.872C431.203 231.691 431.118 231.435 431.118 231.104V225.056C431.118 224.725 431.203 224.475 431.374 224.304C431.545 224.133 431.785 224.048 432.094 224.048C432.403 224.048 432.643 224.133 432.814 224.304C432.985 224.475 433.07 224.725 433.07 225.056V226.144L432.894 225.744C433.129 225.179 433.491 224.752 433.982 224.464C434.483 224.165 435.049 224.016 435.678 224.016C436.307 224.016 436.825 224.133 437.23 224.368C437.635 224.603 437.939 224.96 438.142 225.44C438.345 225.909 438.446 226.507 438.446 227.232V231.104C438.446 231.435 438.361 231.691 438.19 231.872C438.019 232.043 437.774 232.128 437.454 232.128C437.134 232.128 436.883 232.043 436.702 231.872C436.531 231.691 436.446 231.435 436.446 231.104V227.328C436.446 226.72 436.329 226.277 436.094 226C435.87 225.723 435.518 225.584 435.038 225.584C434.451 225.584 433.982 225.771 433.63 226.144C433.289 226.507 433.118 226.992 433.118 227.6V231.104C433.118 231.787 432.782 232.128 432.11 232.128ZM443.15 232.16C442.264 232.16 441.598 231.909 441.15 231.408C440.702 230.896 440.478 230.149 440.478 229.168V221.6C440.478 221.269 440.563 221.019 440.734 220.848C440.904 220.677 441.15 220.592 441.47 220.592C441.79 220.592 442.035 220.677 442.206 220.848C442.387 221.019 442.478 221.269 442.478 221.6V229.072C442.478 229.563 442.579 229.925 442.782 230.16C442.995 230.395 443.294 230.512 443.678 230.512C443.763 230.512 443.843 230.512 443.918 230.512C443.992 230.501 444.067 230.491 444.141 230.48C444.291 230.459 444.392 230.501 444.446 230.608C444.499 230.704 444.526 230.907 444.526 231.216C444.526 231.483 444.472 231.691 444.366 231.84C444.259 231.989 444.083 232.08 443.838 232.112C443.731 232.123 443.619 232.133 443.502 232.144C443.384 232.155 443.267 232.16 443.15 232.16ZM447.368 235.008C447.133 235.008 446.941 234.944 446.792 234.816C446.642 234.699 446.552 234.539 446.52 234.336C446.498 234.133 446.536 233.92 446.632 233.696L447.72 231.28V232.112L444.808 225.376C444.712 225.141 444.68 224.923 444.712 224.72C444.744 224.517 444.84 224.357 445 224.24C445.17 224.112 445.4 224.048 445.688 224.048C445.933 224.048 446.13 224.107 446.28 224.224C446.429 224.331 446.562 224.539 446.68 224.848L448.84 230.24H448.36L450.568 224.832C450.685 224.533 450.824 224.331 450.984 224.224C451.144 224.107 451.357 224.048 451.624 224.048C451.858 224.048 452.045 224.112 452.184 224.24C452.322 224.357 452.408 224.517 452.44 224.72C452.472 224.912 452.434 225.125 452.328 225.36L448.44 234.24C448.301 234.539 448.152 234.741 447.992 234.848C447.832 234.955 447.624 235.008 447.368 235.008Z" fill="#38455D"/>
<g filter="url(#filter0_i_1113_9691)">
<rect x="173" y="191" width="161" height="72" fill="#FE5000"/>
<rect x="173" y="191" width="161" height="72" fill="url(#paint0_linear_1113_9691)" fill-opacity="0.15"/>
<rect x="173" y="191" width="161" height="72" fill="url(#paint1_linear_1113_9691)" fill-opacity="0.02"/>
</g>
<path d="M53.344 232.128C53.088 232.128 52.88 232.069 52.72 231.952C52.5707 231.835 52.48 231.68 52.448 231.488C52.416 231.285 52.4533 231.061 52.56 230.816L56.784 221.456C56.9227 221.147 57.088 220.928 57.28 220.8C57.4827 220.661 57.712 220.592 57.968 220.592C58.2133 220.592 58.432 220.661 58.624 220.8C58.8267 220.928 58.9973 221.147 59.136 221.456L63.376 230.816C63.4933 231.061 63.536 231.285 63.504 231.488C63.472 231.691 63.3813 231.851 63.232 231.968C63.0827 232.075 62.8853 232.128 62.64 232.128C62.3413 232.128 62.1067 232.059 61.936 231.92C61.776 231.771 61.632 231.547 61.504 231.248L60.464 228.832L61.328 229.392H54.576L55.44 228.832L54.416 231.248C54.2773 231.557 54.1333 231.781 53.984 231.92C53.8347 232.059 53.6213 232.128 53.344 232.128ZM57.936 222.944L55.696 228.272L55.28 227.76H60.624L60.224 228.272L57.968 222.944H57.936ZM67.6183 232.16C66.7329 232.16 66.0663 231.909 65.6183 231.408C65.1703 230.896 64.9463 230.149 64.9463 229.168V221.6C64.9463 221.269 65.0316 221.019 65.2023 220.848C65.3729 220.677 65.6183 220.592 65.9383 220.592C66.2583 220.592 66.5036 220.677 66.6743 220.848C66.8556 221.019 66.9463 221.269 66.9463 221.6V229.072C66.9463 229.563 67.0476 229.925 67.2503 230.16C67.4636 230.395 67.7623 230.512 68.1463 230.512C68.2316 230.512 68.3116 230.512 68.3863 230.512C68.4609 230.501 68.5356 230.491 68.6102 230.48C68.7596 230.459 68.8609 230.501 68.9143 230.608C68.9676 230.704 68.9943 230.907 68.9943 231.216C68.9943 231.483 68.9409 231.691 68.8343 231.84C68.7276 231.989 68.5516 232.08 68.3063 232.112C68.1996 232.123 68.0876 232.133 67.9703 232.144C67.8529 232.155 67.7356 232.16 67.6183 232.16ZM72.7276 232.16C71.8423 232.16 71.1756 231.909 70.7276 231.408C70.2796 230.896 70.0556 230.149 70.0556 229.168V221.6C70.0556 221.269 70.141 221.019 70.3116 220.848C70.4823 220.677 70.7276 220.592 71.0476 220.592C71.3676 220.592 71.613 220.677 71.7836 220.848C71.965 221.019 72.0556 221.269 72.0556 221.6V229.072C72.0556 229.563 72.157 229.925 72.3596 230.16C72.573 230.395 72.8716 230.512 73.2556 230.512C73.341 230.512 73.421 230.512 73.4956 230.512C73.5703 230.501 73.645 230.491 73.7196 230.48C73.869 230.459 73.9703 230.501 74.0236 230.608C74.077 230.704 74.1036 230.907 74.1036 231.216C74.1036 231.483 74.0503 231.691 73.9436 231.84C73.837 231.989 73.661 232.08 73.4156 232.112C73.309 232.123 73.197 232.133 73.0796 232.144C72.9623 232.155 72.845 232.16 72.7276 232.16ZM85.1248 232.16C83.8768 232.16 82.8208 231.925 81.9568 231.456C81.1034 230.987 80.4528 230.32 80.0048 229.456C79.5568 228.592 79.3328 227.568 79.3328 226.384C79.3328 225.488 79.4608 224.683 79.7168 223.968C79.9834 223.253 80.3621 222.645 80.8528 222.144C81.3541 221.632 81.9621 221.243 82.6768 220.976C83.3914 220.699 84.2021 220.56 85.1088 220.56C85.7061 220.56 86.3034 220.635 86.9008 220.784C87.5088 220.923 88.0794 221.163 88.6128 221.504C88.7941 221.621 88.9114 221.765 88.9648 221.936C89.0288 222.107 89.0394 222.283 88.9968 222.464C88.9541 222.635 88.8741 222.784 88.7568 222.912C88.6394 223.04 88.4901 223.12 88.3088 223.152C88.1381 223.184 87.9461 223.141 87.7328 223.024C87.3274 222.789 86.9168 222.619 86.5008 222.512C86.0848 222.405 85.6208 222.352 85.1088 222.352C84.3194 222.352 83.6528 222.512 83.1088 222.832C82.5648 223.141 82.1541 223.595 81.8768 224.192C81.6101 224.789 81.4768 225.52 81.4768 226.384C81.4768 227.696 81.7914 228.693 82.4208 229.376C83.0501 230.059 83.9834 230.4 85.2208 230.4C85.6474 230.4 86.0794 230.357 86.5168 230.272C86.9541 230.187 87.3808 230.069 87.7968 229.92L87.3968 230.832V227.424H85.6368C85.3701 227.424 85.1621 227.355 85.0128 227.216C84.8741 227.077 84.8048 226.891 84.8048 226.656C84.8048 226.411 84.8741 226.224 85.0128 226.096C85.1621 225.968 85.3701 225.904 85.6368 225.904H88.2768C88.5434 225.904 88.7461 225.979 88.8848 226.128C89.0341 226.267 89.1088 226.469 89.1088 226.736V230.624C89.1088 230.859 89.0608 231.056 88.9648 231.216C88.8794 231.376 88.7354 231.493 88.5328 231.568C88.0634 231.739 87.5248 231.883 86.9167 232C86.3088 232.107 85.7114 232.16 85.1248 232.16ZM94.858 232.16C94.0473 232.16 93.3433 231.995 92.746 231.664C92.1487 231.333 91.6847 230.864 91.354 230.256C91.0233 229.637 90.858 228.912 90.858 228.08C90.858 227.451 90.9487 226.891 91.13 226.4C91.322 225.899 91.594 225.472 91.946 225.12C92.298 224.757 92.7193 224.485 93.21 224.304C93.7007 224.112 94.25 224.016 94.858 224.016C95.6687 224.016 96.3727 224.181 96.97 224.512C97.5673 224.843 98.0313 225.312 98.362 225.92C98.6927 226.528 98.858 227.248 98.858 228.08C98.858 228.709 98.762 229.275 98.57 229.776C98.3887 230.277 98.122 230.709 97.77 231.072C97.418 231.424 96.9967 231.696 96.506 231.888C96.0153 232.069 95.466 232.16 94.858 232.16ZM94.858 230.64C95.2527 230.64 95.5993 230.544 95.898 230.352C96.1967 230.16 96.426 229.877 96.586 229.504C96.7567 229.12 96.842 228.645 96.842 228.08C96.842 227.227 96.6607 226.592 96.298 226.176C95.9353 225.749 95.4553 225.536 94.858 225.536C94.4633 225.536 94.1167 225.632 93.818 225.824C93.5193 226.005 93.2847 226.288 93.114 226.672C92.954 227.045 92.874 227.515 92.874 228.08C92.874 228.923 93.0553 229.563 93.418 230C93.7807 230.427 94.2607 230.64 94.858 230.64ZM103.085 232.16C102.519 232.16 102.013 232.053 101.565 231.84C101.127 231.616 100.781 231.317 100.525 230.944C100.279 230.571 100.157 230.149 100.157 229.68C100.157 229.104 100.306 228.651 100.605 228.32C100.903 227.979 101.389 227.733 102.061 227.584C102.733 227.435 103.634 227.36 104.765 227.36H105.565V228.512H104.781C104.119 228.512 103.591 228.544 103.197 228.608C102.802 228.672 102.519 228.784 102.349 228.944C102.189 229.093 102.109 229.307 102.109 229.584C102.109 229.936 102.231 230.224 102.477 230.448C102.722 230.672 103.063 230.784 103.501 230.784C103.853 230.784 104.162 230.704 104.429 230.544C104.706 230.373 104.925 230.144 105.085 229.856C105.245 229.568 105.325 229.237 105.325 228.864V227.024C105.325 226.491 105.207 226.107 104.973 225.872C104.738 225.637 104.343 225.52 103.789 225.52C103.479 225.52 103.143 225.557 102.781 225.632C102.429 225.707 102.055 225.835 101.661 226.016C101.458 226.112 101.277 226.139 101.117 226.096C100.967 226.053 100.85 225.968 100.765 225.84C100.679 225.701 100.637 225.552 100.637 225.392C100.637 225.232 100.679 225.077 100.765 224.928C100.85 224.768 100.994 224.651 101.197 224.576C101.687 224.373 102.157 224.229 102.605 224.144C103.063 224.059 103.479 224.016 103.853 224.016C104.621 224.016 105.25 224.133 105.741 224.368C106.242 224.603 106.615 224.96 106.861 225.44C107.106 225.909 107.229 226.517 107.229 227.264V231.104C107.229 231.435 107.149 231.691 106.989 231.872C106.829 232.043 106.599 232.128 106.301 232.128C106.002 232.128 105.767 232.043 105.597 231.872C105.437 231.691 105.357 231.435 105.357 231.104V230.336H105.485C105.41 230.709 105.261 231.035 105.037 231.312C104.823 231.579 104.551 231.787 104.221 231.936C103.89 232.085 103.511 232.16 103.085 232.16ZM111.931 232.16C111.045 232.16 110.379 231.909 109.931 231.408C109.483 230.896 109.259 230.149 109.259 229.168V221.6C109.259 221.269 109.344 221.019 109.515 220.848C109.685 220.677 109.931 220.592 110.251 220.592C110.571 220.592 110.816 220.677 110.987 220.848C111.168 221.019 111.259 221.269 111.259 221.6V229.072C111.259 229.563 111.36 229.925 111.563 230.16C111.776 230.395 112.075 230.512 112.459 230.512C112.544 230.512 112.624 230.512 112.699 230.512C112.773 230.501 112.848 230.491 112.923 230.48C113.072 230.459 113.173 230.501 113.227 230.608C113.28 230.704 113.307 230.907 113.307 231.216C113.307 231.483 113.253 231.691 113.147 231.84C113.04 231.989 112.864 232.08 112.619 232.112C112.512 232.123 112.4 232.133 112.283 232.144C112.165 232.155 112.048 232.16 111.931 232.16ZM117.154 232.16C116.695 232.16 116.21 232.112 115.698 232.016C115.186 231.92 114.727 231.755 114.322 231.52C114.151 231.413 114.029 231.291 113.954 231.152C113.89 231.003 113.863 230.859 113.874 230.72C113.895 230.571 113.949 230.443 114.034 230.336C114.13 230.229 114.247 230.16 114.386 230.128C114.535 230.096 114.695 230.123 114.866 230.208C115.293 230.411 115.693 230.555 116.066 230.64C116.439 230.715 116.807 230.752 117.17 230.752C117.682 230.752 118.061 230.667 118.306 230.496C118.562 230.315 118.69 230.08 118.69 229.792C118.69 229.547 118.605 229.36 118.434 229.232C118.274 229.093 118.029 228.992 117.698 228.928L116.098 228.624C115.437 228.496 114.93 228.256 114.578 227.904C114.237 227.541 114.066 227.077 114.066 226.512C114.066 226 114.205 225.557 114.482 225.184C114.77 224.811 115.165 224.523 115.666 224.32C116.167 224.117 116.743 224.016 117.394 224.016C117.863 224.016 118.301 224.069 118.706 224.176C119.122 224.272 119.522 224.427 119.906 224.64C120.066 224.725 120.173 224.837 120.226 224.976C120.29 225.115 120.306 225.259 120.274 225.408C120.242 225.547 120.178 225.675 120.082 225.792C119.986 225.899 119.863 225.968 119.714 226C119.575 226.021 119.415 225.989 119.234 225.904C118.903 225.733 118.583 225.611 118.274 225.536C117.975 225.461 117.687 225.424 117.41 225.424C116.887 225.424 116.498 225.515 116.242 225.696C115.997 225.877 115.874 226.117 115.874 226.416C115.874 226.64 115.949 226.827 116.098 226.976C116.247 227.125 116.477 227.227 116.786 227.28L118.386 227.584C119.079 227.712 119.602 227.947 119.954 228.288C120.317 228.629 120.498 229.088 120.498 229.664C120.498 230.443 120.194 231.056 119.586 231.504C118.978 231.941 118.167 232.16 117.154 232.16Z" fill="#38455D"/>
<path d="M7.22 20.16C6.80667 20.16 6.48667 20.0467 6.26 19.82C6.04667 19.58 5.94 19.2533 5.94 18.84V8.04H2.04C1.69333 8.04 1.42 7.94667 1.22 7.76C1.03333 7.56 0.94 7.29333 0.94 6.96C0.94 6.61333 1.03333 6.35333 1.22 6.18C1.42 5.99333 1.69333 5.9 2.04 5.9H12.4C12.7467 5.9 13.0133 5.99333 13.2 6.18C13.4 6.35333 13.5 6.61333 13.5 6.96C13.5 7.29333 13.4 7.56 13.2 7.76C13.0133 7.94667 12.7467 8.04 12.4 8.04H8.5V18.84C8.5 19.2533 8.39333 19.58 8.18 19.82C7.96667 20.0467 7.64667 20.16 7.22 20.16ZM15.698 23.76C15.4046 23.76 15.1646 23.68 14.978 23.52C14.7913 23.3733 14.678 23.1733 14.638 22.92C14.6113 22.6667 14.658 22.4 14.778 22.12L16.138 19.1V20.14L12.498 11.72C12.378 11.4267 12.338 11.1533 12.378 10.9C12.418 10.6467 12.538 10.4467 12.738 10.3C12.9513 10.14 13.238 10.06 13.598 10.06C13.9046 10.06 14.1513 10.1333 14.338 10.28C14.5246 10.4133 14.6913 10.6733 14.838 11.06L17.538 17.8H16.938L19.698 11.04C19.8446 10.6667 20.018 10.4133 20.218 10.28C20.418 10.1333 20.6846 10.06 21.018 10.06C21.3113 10.06 21.5446 10.14 21.718 10.3C21.8913 10.4467 21.998 10.6467 22.038 10.9C22.078 11.14 22.0313 11.4067 21.898 11.7L17.038 22.8C16.8646 23.1733 16.678 23.4267 16.478 23.56C16.278 23.6933 16.018 23.76 15.698 23.76ZM24.9853 23.76C24.5853 23.76 24.2786 23.6533 24.0653 23.44C23.852 23.2267 23.7453 22.9133 23.7453 22.5V11.32C23.7453 10.9067 23.852 10.5933 24.0653 10.38C24.2786 10.1667 24.5786 10.06 24.9653 10.06C25.3653 10.06 25.672 10.1667 25.8853 10.38C26.0986 10.5933 26.2053 10.9067 26.2053 11.32V12.88L25.9853 12.28C26.1853 11.6 26.592 11.0533 27.2053 10.64C27.832 10.2267 28.5586 10.02 29.3853 10.02C30.2386 10.02 30.9853 10.2267 31.6253 10.64C32.2786 11.0533 32.7853 11.64 33.1453 12.4C33.5053 13.1467 33.6853 14.0467 33.6853 15.1C33.6853 16.14 33.5053 17.0467 33.1453 17.82C32.7853 18.58 32.2853 19.1667 31.6453 19.58C31.0053 19.9933 30.252 20.2 29.3853 20.2C28.572 20.2 27.8586 20 27.2453 19.6C26.632 19.1867 26.2186 18.6533 26.0053 18H26.2453V22.5C26.2453 22.9133 26.132 23.2267 25.9053 23.44C25.692 23.6533 25.3853 23.76 24.9853 23.76ZM28.6853 18.3C29.1786 18.3 29.612 18.18 29.9853 17.94C30.3586 17.7 30.6453 17.3467 30.8453 16.88C31.0586 16.4 31.1653 15.8067 31.1653 15.1C31.1653 14.0333 30.9386 13.24 30.4853 12.72C30.032 12.1867 29.432 11.92 28.6853 11.92C28.192 11.92 27.7586 12.04 27.3853 12.28C27.012 12.5067 26.7186 12.86 26.5053 13.34C26.3053 13.8067 26.2053 14.3933 26.2053 15.1C26.2053 16.1533 26.432 16.9533 26.8853 17.5C27.3386 18.0333 27.9386 18.3 28.6853 18.3ZM40.5575 20.2C39.4508 20.2 38.4975 19.9933 37.6975 19.58C36.8975 19.1667 36.2775 18.58 35.8375 17.82C35.4108 17.06 35.1975 16.16 35.1975 15.12C35.1975 14.1067 35.4042 13.22 35.8175 12.46C36.2442 11.7 36.8242 11.1067 37.5575 10.68C38.3042 10.24 39.1508 10.02 40.0975 10.02C40.7908 10.02 41.4108 10.1333 41.9575 10.36C42.5175 10.5867 42.9908 10.9133 43.3775 11.34C43.7775 11.7667 44.0775 12.2867 44.2775 12.9C44.4908 13.5 44.5975 14.18 44.5975 14.94C44.5975 15.18 44.5108 15.3667 44.3375 15.5C44.1775 15.62 43.9442 15.68 43.6375 15.68H37.2175V14.24H42.8375L42.5175 14.54C42.5175 13.9267 42.4242 13.4133 42.2375 13C42.0642 12.5867 41.8042 12.2733 41.4575 12.06C41.1242 11.8333 40.7042 11.72 40.1975 11.72C39.6375 11.72 39.1575 11.8533 38.7575 12.12C38.3708 12.3733 38.0708 12.74 37.8575 13.22C37.6575 13.6867 37.5575 14.2467 37.5575 14.9V15.04C37.5575 16.1333 37.8108 16.9533 38.3175 17.5C38.8375 18.0333 39.5975 18.3 40.5975 18.3C40.9442 18.3 41.3308 18.26 41.7575 18.18C42.1975 18.0867 42.6108 17.9333 42.9975 17.72C43.2775 17.56 43.5242 17.4933 43.7375 17.52C43.9508 17.5333 44.1175 17.6067 44.2375 17.74C44.3708 17.8733 44.4508 18.04 44.4775 18.24C44.5042 18.4267 44.4642 18.62 44.3575 18.82C44.2642 19.02 44.0975 19.1933 43.8575 19.34C43.3908 19.6333 42.8508 19.8533 42.2375 20C41.6375 20.1333 41.0775 20.2 40.5575 20.2ZM56.467 20.2C55.4537 20.2 54.5737 19.9933 53.827 19.58C53.0804 19.1667 52.5004 18.58 52.087 17.82C51.6737 17.0467 51.467 16.14 51.467 15.1C51.467 14.3133 51.5804 13.6133 51.807 13C52.047 12.3733 52.387 11.84 52.827 11.4C53.267 10.9467 53.7937 10.6067 54.407 10.38C55.0204 10.14 55.707 10.02 56.467 10.02C57.4804 10.02 58.3604 10.2267 59.107 10.64C59.8537 11.0533 60.4337 11.64 60.847 12.4C61.2604 13.16 61.467 14.06 61.467 15.1C61.467 15.8867 61.347 16.5933 61.107 17.22C60.8804 17.8467 60.547 18.3867 60.107 18.84C59.667 19.28 59.1404 19.62 58.527 19.86C57.9137 20.0867 57.227 20.2 56.467 20.2ZM56.467 18.3C56.9604 18.3 57.3937 18.18 57.767 17.94C58.1404 17.7 58.427 17.3467 58.627 16.88C58.8404 16.4 58.947 15.8067 58.947 15.1C58.947 14.0333 58.7204 13.24 58.267 12.72C57.8137 12.1867 57.2137 11.92 56.467 11.92C55.9737 11.92 55.5404 12.04 55.167 12.28C54.7937 12.5067 54.5004 12.86 54.287 13.34C54.087 13.8067 53.987 14.3933 53.987 15.1C53.987 16.1533 54.2137 16.9533 54.667 17.5C55.1204 18.0333 55.7204 18.3 56.467 18.3ZM65.3528 20.16C64.9528 20.16 64.6395 20.0533 64.4128 19.84C64.1995 19.6133 64.0928 19.2933 64.0928 18.88V12.1H63.1728C62.8528 12.1 62.6061 12.02 62.4328 11.86C62.2595 11.6867 62.1728 11.4533 62.1728 11.16C62.1728 10.8533 62.2595 10.62 62.4328 10.46C62.6061 10.3 62.8528 10.22 63.1728 10.22H64.8128L64.0928 10.88V10.2C64.0928 8.82667 64.4395 7.8 65.1328 7.12C65.8261 6.42667 66.8261 6.02 68.1328 5.9L68.8128 5.84C69.0795 5.81333 69.2928 5.86 69.4528 5.98C69.6128 6.08667 69.7195 6.23333 69.7728 6.42C69.8261 6.59333 69.8328 6.77333 69.7928 6.96C69.7528 7.14667 69.6661 7.31333 69.5328 7.46C69.4128 7.59333 69.2528 7.66667 69.0528 7.68L68.7728 7.7C68.0128 7.75333 67.4595 7.94667 67.1128 8.28C66.7661 8.61333 66.5928 9.12 66.5928 9.8V10.54L66.2728 10.22H68.2928C68.6128 10.22 68.8595 10.3 69.0328 10.46C69.2061 10.62 69.2928 10.8533 69.2928 11.16C69.2928 11.4533 69.2061 11.6867 69.0328 11.86C68.8595 12.02 68.6128 12.1 68.2928 12.1H66.5928V18.88C66.5928 19.7333 66.1795 20.16 65.3528 20.16ZM83.1677 20.2C81.6077 20.2 80.2877 19.9067 79.2077 19.32C78.141 18.7333 77.3277 17.9 76.7677 16.82C76.2077 15.74 75.9277 14.46 75.9277 12.98C75.9277 11.86 76.0877 10.8533 76.4077 9.96C76.741 9.06667 77.2143 8.30667 77.8277 7.68C78.4543 7.04 79.2143 6.55333 80.1077 6.22C81.001 5.87333 82.0143 5.7 83.1477 5.7C83.8943 5.7 84.641 5.79333 85.3877 5.98C86.1477 6.15333 86.861 6.45333 87.5277 6.88C87.7543 7.02667 87.901 7.20667 87.9677 7.42C88.0477 7.63333 88.061 7.85333 88.0077 8.08C87.9543 8.29333 87.8543 8.48 87.7077 8.64C87.561 8.8 87.3743 8.9 87.1477 8.94C86.9343 8.98 86.6943 8.92667 86.4277 8.78C85.921 8.48667 85.4077 8.27333 84.8877 8.14C84.3677 8.00667 83.7877 7.94 83.1477 7.94C82.161 7.94 81.3277 8.14 80.6477 8.54C79.9677 8.92667 79.4543 9.49333 79.1077 10.24C78.7743 10.9867 78.6077 11.9 78.6077 12.98C78.6077 14.62 79.001 15.8667 79.7877 16.72C80.5743 17.5733 81.741 18 83.2877 18C83.821 18 84.361 17.9467 84.9077 17.84C85.4543 17.7333 85.9877 17.5867 86.5077 17.4L86.0077 18.54V14.28H83.8077C83.4743 14.28 83.2143 14.1933 83.0277 14.02C82.8543 13.8467 82.7677 13.6133 82.7677 13.32C82.7677 13.0133 82.8543 12.78 83.0277 12.62C83.2143 12.46 83.4743 12.38 83.8077 12.38H87.1077C87.441 12.38 87.6943 12.4733 87.8677 12.66C88.0543 12.8333 88.1477 13.0867 88.1477 13.42V18.28C88.1477 18.5733 88.0877 18.82 87.9677 19.02C87.861 19.22 87.681 19.3667 87.4277 19.46C86.841 19.6733 86.1677 19.8533 85.4077 20C84.6477 20.1333 83.901 20.2 83.1677 20.2ZM95.3342 20.2C94.3209 20.2 93.4409 19.9933 92.6942 19.58C91.9476 19.1667 91.3676 18.58 90.9542 17.82C90.5409 17.0467 90.3342 16.14 90.3342 15.1C90.3342 14.3133 90.4476 13.6133 90.6742 13C90.9142 12.3733 91.2542 11.84 91.6942 11.4C92.1342 10.9467 92.6609 10.6067 93.2742 10.38C93.8876 10.14 94.5742 10.02 95.3342 10.02C96.3476 10.02 97.2276 10.2267 97.9742 10.64C98.7209 11.0533 99.3009 11.64 99.7142 12.4C100.128 13.16 100.334 14.06 100.334 15.1C100.334 15.8867 100.214 16.5933 99.9742 17.22C99.7476 17.8467 99.4142 18.3867 98.9742 18.84C98.5342 19.28 98.0076 19.62 97.3942 19.86C96.7809 20.0867 96.0942 20.2 95.3342 20.2ZM95.3342 18.3C95.8276 18.3 96.2609 18.18 96.6342 17.94C97.0076 17.7 97.2942 17.3467 97.4942 16.88C97.7076 16.4 97.8142 15.8067 97.8142 15.1C97.8142 14.0333 97.5876 13.24 97.1342 12.72C96.6809 12.1867 96.0809 11.92 95.3342 11.92C94.8409 11.92 94.4076 12.04 94.0342 12.28C93.6609 12.5067 93.3676 12.86 93.1542 13.34C92.9542 13.8067 92.8542 14.3933 92.8542 15.1C92.8542 16.1533 93.0809 16.9533 93.5342 17.5C93.9876 18.0333 94.5876 18.3 95.3342 18.3ZM105.618 20.2C104.911 20.2 104.278 20.0667 103.718 19.8C103.171 19.52 102.738 19.1467 102.418 18.68C102.111 18.2133 101.958 17.6867 101.958 17.1C101.958 16.38 102.144 15.8133 102.518 15.4C102.891 14.9733 103.498 14.6667 104.338 14.48C105.178 14.2933 106.304 14.2 107.718 14.2H108.718V15.64H107.738C106.911 15.64 106.251 15.68 105.758 15.76C105.264 15.84 104.911 15.98 104.698 16.18C104.498 16.3667 104.398 16.6333 104.398 16.98C104.398 17.42 104.551 17.78 104.858 18.06C105.164 18.34 105.591 18.48 106.138 18.48C106.578 18.48 106.964 18.38 107.298 18.18C107.644 17.9667 107.918 17.68 108.118 17.32C108.318 16.96 108.418 16.5467 108.418 16.08V13.78C108.418 13.1133 108.271 12.6333 107.978 12.34C107.684 12.0467 107.191 11.9 106.498 11.9C106.111 11.9 105.691 11.9467 105.238 12.04C104.798 12.1333 104.331 12.2933 103.838 12.52C103.584 12.64 103.358 12.6733 103.158 12.62C102.971 12.5667 102.824 12.46 102.718 12.3C102.611 12.1267 102.558 11.94 102.558 11.74C102.558 11.54 102.611 11.3467 102.718 11.16C102.824 10.96 103.004 10.8133 103.258 10.72C103.871 10.4667 104.458 10.2867 105.018 10.18C105.591 10.0733 106.111 10.02 106.578 10.02C107.538 10.02 108.324 10.1667 108.938 10.46C109.564 10.7533 110.031 11.2 110.338 11.8C110.644 12.3867 110.798 13.1467 110.798 14.08V18.88C110.798 19.2933 110.698 19.6133 110.498 19.84C110.298 20.0533 110.011 20.16 109.638 20.16C109.264 20.16 108.971 20.0533 108.758 19.84C108.558 19.6133 108.458 19.2933 108.458 18.88V17.92H108.618C108.524 18.3867 108.338 18.7933 108.058 19.14C107.791 19.4733 107.451 19.7333 107.038 19.92C106.624 20.1067 106.151 20.2 105.618 20.2ZM116.675 20.2C115.568 20.2 114.735 19.8867 114.175 19.26C113.615 18.62 113.335 17.6867 113.335 16.46V7C113.335 6.58667 113.442 6.27333 113.655 6.06C113.868 5.84667 114.175 5.74 114.575 5.74C114.975 5.74 115.282 5.84667 115.495 6.06C115.722 6.27333 115.835 6.58667 115.835 7V16.34C115.835 16.9533 115.962 17.4067 116.215 17.7C116.482 17.9933 116.855 18.14 117.335 18.14C117.442 18.14 117.542 18.14 117.635 18.14C117.728 18.1267 117.822 18.1133 117.915 18.1C118.102 18.0733 118.228 18.1267 118.295 18.26C118.362 18.38 118.395 18.6333 118.395 19.02C118.395 19.3533 118.328 19.6133 118.195 19.8C118.062 19.9867 117.842 20.1 117.535 20.14C117.402 20.1533 117.262 20.1667 117.115 20.18C116.968 20.1933 116.822 20.2 116.675 20.2ZM123.204 20.2C122.631 20.2 122.024 20.14 121.384 20.02C120.744 19.9 120.171 19.6933 119.664 19.4C119.451 19.2667 119.298 19.1133 119.204 18.94C119.124 18.7533 119.091 18.5733 119.104 18.4C119.131 18.2133 119.198 18.0533 119.304 17.92C119.424 17.7867 119.571 17.7 119.744 17.66C119.931 17.62 120.131 17.6533 120.344 17.76C120.878 18.0133 121.378 18.1933 121.844 18.3C122.311 18.3933 122.771 18.44 123.224 18.44C123.864 18.44 124.338 18.3333 124.644 18.12C124.964 17.8933 125.124 17.6 125.124 17.24C125.124 16.9333 125.018 16.7 124.804 16.54C124.604 16.3667 124.298 16.24 123.884 16.16L121.884 15.78C121.058 15.62 120.424 15.32 119.984 14.88C119.558 14.4267 119.344 13.8467 119.344 13.14C119.344 12.5 119.518 11.9467 119.864 11.48C120.224 11.0133 120.718 10.6533 121.344 10.4C121.971 10.1467 122.691 10.02 123.504 10.02C124.091 10.02 124.638 10.0867 125.144 10.22C125.664 10.34 126.164 10.5333 126.644 10.8C126.844 10.9067 126.978 11.0467 127.044 11.22C127.124 11.3933 127.144 11.5733 127.104 11.76C127.064 11.9333 126.984 12.0933 126.864 12.24C126.744 12.3733 126.591 12.46 126.404 12.5C126.231 12.5267 126.031 12.4867 125.804 12.38C125.391 12.1667 124.991 12.0133 124.604 11.92C124.231 11.8267 123.871 11.78 123.524 11.78C122.871 11.78 122.384 11.8933 122.064 12.12C121.758 12.3467 121.604 12.6467 121.604 13.02C121.604 13.3 121.698 13.5333 121.884 13.72C122.071 13.9067 122.358 14.0333 122.744 14.1L124.744 14.48C125.611 14.64 126.264 14.9333 126.704 15.36C127.158 15.7867 127.384 16.36 127.384 17.08C127.384 18.0533 127.004 18.82 126.244 19.38C125.484 19.9267 124.471 20.2 123.204 20.2Z" fill="#38455D"/>
<rect x="1" y="41" width="505" height="72" rx="16" fill="white"/>
<rect x="1.5" y="41.5" width="504" height="71" rx="15.5" stroke="#64728C" stroke-opacity="0.3"/>
<line x1="173.5" y1="42" x2="173.5" y2="113" stroke="#64728C" stroke-opacity="0.3"/>
<line x1="334.5" y1="42" x2="334.5" y2="113" stroke="#64728C" stroke-opacity="0.3"/>
<path d="M385.288 82.16C384.2 82.16 383.245 81.92 382.424 81.44C381.613 80.96 380.984 80.288 380.536 79.424C380.088 78.5493 379.864 77.5253 379.864 76.352C379.864 75.4667 379.992 74.672 380.248 73.968C380.504 73.2533 380.867 72.6453 381.336 72.144C381.816 71.632 382.387 71.2427 383.048 70.976C383.72 70.6987 384.467 70.56 385.288 70.56C386.387 70.56 387.341 70.8 388.152 71.28C388.963 71.7493 389.592 72.416 390.04 73.28C390.488 74.144 390.712 75.1627 390.712 76.336C390.712 77.2213 390.584 78.0213 390.328 78.736C390.072 79.4507 389.704 80.064 389.224 80.576C388.755 81.088 388.184 81.4827 387.512 81.76C386.851 82.0267 386.109 82.16 385.288 82.16ZM385.288 80.4C385.981 80.4 386.568 80.24 387.048 79.92C387.539 79.6 387.912 79.136 388.168 78.528C388.435 77.92 388.568 77.1947 388.568 76.352C388.568 75.072 388.28 74.08 387.704 73.376C387.139 72.672 386.333 72.32 385.288 72.32C384.605 72.32 384.019 72.48 383.528 72.8C383.037 73.1093 382.659 73.568 382.392 74.176C382.136 74.7733 382.008 75.4987 382.008 76.352C382.008 77.6213 382.296 78.6133 382.872 79.328C383.448 80.0427 384.253 80.4 385.288 80.4ZM393.819 82.128C393.488 82.128 393.232 82.0373 393.051 81.856C392.88 81.664 392.795 81.4027 392.795 81.072V71.632C392.795 71.2907 392.88 71.0347 393.051 70.864C393.232 70.6827 393.488 70.592 393.819 70.592C394.149 70.592 394.4 70.6827 394.571 70.864C394.752 71.0347 394.843 71.2907 394.843 71.632V75.712H394.875L399.467 71.104C399.637 70.9333 399.808 70.8053 399.979 70.72C400.149 70.6347 400.341 70.592 400.555 70.592C400.864 70.592 401.083 70.672 401.211 70.832C401.349 70.992 401.403 71.1787 401.371 71.392C401.349 71.6053 401.248 71.8027 401.067 71.984L396.395 76.608L396.411 75.68L401.291 80.64C401.515 80.8533 401.632 81.0773 401.643 81.312C401.653 81.5467 401.579 81.744 401.419 81.904C401.269 82.0533 401.045 82.128 400.747 82.128C400.491 82.128 400.283 82.0747 400.123 81.968C399.973 81.8613 399.797 81.7067 399.595 81.504L394.875 76.784H394.843V81.072C394.843 81.4027 394.757 81.664 394.587 81.856C394.416 82.0373 394.16 82.128 393.819 82.128ZM404.459 82.128C404.128 82.128 403.872 82.0373 403.691 81.856C403.52 81.664 403.435 81.4027 403.435 81.072V71.76C403.435 71.4187 403.526 71.1627 403.707 70.992C403.888 70.8107 404.144 70.72 404.475 70.72H408.331C409.568 70.72 410.523 71.0187 411.195 71.616C411.867 72.2027 412.203 73.0293 412.203 74.096C412.203 74.7893 412.048 75.3867 411.739 75.888C411.44 76.3893 411.003 76.7733 410.427 77.04C409.851 77.3067 409.152 77.44 408.331 77.44L408.475 77.2H409.003C409.44 77.2 409.819 77.3067 410.139 77.52C410.47 77.7333 410.758 78.0693 411.003 78.528L412.203 80.752C412.331 80.976 412.39 81.1947 412.379 81.408C412.368 81.6213 412.288 81.7973 412.139 81.936C411.99 82.064 411.771 82.128 411.483 82.128C411.195 82.128 410.96 82.0693 410.779 81.952C410.598 81.824 410.438 81.632 410.299 81.376L408.683 78.4C408.491 78.0373 408.262 77.7973 407.995 77.68C407.739 77.552 407.408 77.488 407.003 77.488H405.483V81.072C405.483 81.4027 405.398 81.664 405.227 81.856C405.056 82.0373 404.8 82.128 404.459 82.128ZM405.483 75.968H407.979C408.715 75.968 409.27 75.8187 409.643 75.52C410.027 75.2107 410.219 74.752 410.219 74.144C410.219 73.5467 410.027 73.0987 409.643 72.8C409.27 72.4907 408.715 72.336 407.979 72.336H405.483V75.968ZM423.804 82.16C422.716 82.16 421.761 81.92 420.94 81.44C420.129 80.96 419.5 80.288 419.052 79.424C418.604 78.5493 418.38 77.5253 418.38 76.352C418.38 75.4667 418.508 74.672 418.764 73.968C419.02 73.2533 419.382 72.6453 419.852 72.144C420.332 71.632 420.902 71.2427 421.564 70.976C422.236 70.6987 422.982 70.56 423.804 70.56C424.902 70.56 425.857 70.8 426.668 71.28C427.478 71.7493 428.108 72.416 428.556 73.28C429.004 74.144 429.228 75.1627 429.228 76.336C429.228 77.2213 429.1 78.0213 428.844 78.736C428.588 79.4507 428.22 80.064 427.74 80.576C427.27 81.088 426.7 81.4827 426.028 81.76C425.366 82.0267 424.625 82.16 423.804 82.16ZM423.804 80.4C424.497 80.4 425.084 80.24 425.564 79.92C426.054 79.6 426.428 79.136 426.684 78.528C426.95 77.92 427.084 77.1947 427.084 76.352C427.084 75.072 426.796 74.08 426.22 73.376C425.654 72.672 424.849 72.32 423.804 72.32C423.121 72.32 422.534 72.48 422.044 72.8C421.553 73.1093 421.174 73.568 420.908 74.176C420.652 74.7733 420.524 75.4987 420.524 76.352C420.524 77.6213 420.812 78.6133 421.388 79.328C421.964 80.0427 422.769 80.4 423.804 80.4ZM432.11 82.128C431.79 82.128 431.545 82.0427 431.374 81.872C431.203 81.6907 431.118 81.4347 431.118 81.104V75.056C431.118 74.7253 431.203 74.4747 431.374 74.304C431.545 74.1333 431.785 74.048 432.094 74.048C432.403 74.048 432.643 74.1333 432.814 74.304C432.985 74.4747 433.07 74.7253 433.07 75.056V76.144L432.894 75.744C433.129 75.1787 433.491 74.752 433.982 74.464C434.483 74.1653 435.049 74.016 435.678 74.016C436.307 74.016 436.825 74.1333 437.23 74.368C437.635 74.6027 437.939 74.96 438.142 75.44C438.345 75.9093 438.446 76.5067 438.446 77.232V81.104C438.446 81.4347 438.361 81.6907 438.19 81.872C438.019 82.0427 437.774 82.128 437.454 82.128C437.134 82.128 436.883 82.0427 436.702 81.872C436.531 81.6907 436.446 81.4347 436.446 81.104V77.328C436.446 76.72 436.329 76.2773 436.094 76C435.87 75.7227 435.518 75.584 435.038 75.584C434.451 75.584 433.982 75.7707 433.63 76.144C433.289 76.5067 433.118 76.992 433.118 77.6V81.104C433.118 81.7867 432.782 82.128 432.11 82.128ZM443.15 82.16C442.264 82.16 441.598 81.9093 441.15 81.408C440.702 80.896 440.478 80.1493 440.478 79.168V71.6C440.478 71.2693 440.563 71.0187 440.734 70.848C440.904 70.6773 441.15 70.592 441.47 70.592C441.79 70.592 442.035 70.6773 442.206 70.848C442.387 71.0187 442.478 71.2693 442.478 71.6V79.072C442.478 79.5627 442.579 79.9253 442.782 80.16C442.995 80.3947 443.294 80.512 443.678 80.512C443.763 80.512 443.843 80.512 443.918 80.512C443.992 80.5013 444.067 80.4907 444.141 80.48C444.291 80.4587 444.392 80.5013 444.446 80.608C444.499 80.704 444.526 80.9067 444.526 81.216C444.526 81.4827 444.472 81.6907 444.366 81.84C444.259 81.9893 444.083 82.08 443.838 82.112C443.731 82.1227 443.619 82.1333 443.502 82.144C443.384 82.1547 443.267 82.16 443.15 82.16ZM447.368 85.008C447.133 85.008 446.941 84.944 446.792 84.816C446.642 84.6987 446.552 84.5387 446.52 84.336C446.498 84.1333 446.536 83.92 446.632 83.696L447.72 81.28V82.112L444.808 75.376C444.712 75.1413 444.68 74.9227 444.712 74.72C444.744 74.5173 444.84 74.3573 445 74.24C445.17 74.112 445.4 74.048 445.688 74.048C445.933 74.048 446.13 74.1067 446.28 74.224C446.429 74.3307 446.562 74.5387 446.68 74.848L448.84 80.24H448.36L450.568 74.832C450.685 74.5333 450.824 74.3307 450.984 74.224C451.144 74.1067 451.357 74.048 451.624 74.048C451.858 74.048 452.045 74.112 452.184 74.24C452.322 74.3573 452.408 74.5173 452.44 74.72C452.472 74.912 452.434 75.1253 452.328 75.36L448.44 84.24C448.301 84.5387 448.152 84.7413 447.992 84.848C447.832 84.9547 447.624 85.008 447.368 85.008Z" fill="#38455D"/>
<g filter="url(#filter1_i_1113_9691)">
<path d="M1 56C1 47.7157 7.71573 41 16 41H174V113H16C7.71573 113 1 106.284 1 98V56Z" fill="#38455D"/>
<path d="M1 56C1 47.7157 7.71573 41 16 41H174V113H16C7.71573 113 1 106.284 1 98V56Z" fill="url(#paint2_linear_1113_9691)" fill-opacity="0.2"/>
<path d="M1 56C1 47.7157 7.71573 41 16 41H174V113H16C7.71573 113 1 106.284 1 98V56Z" fill="url(#paint3_linear_1113_9691)" fill-opacity="0.05"/>
</g>
<path d="M53.344 82.128C53.088 82.128 52.88 82.0693 52.72 81.952C52.5707 81.8347 52.48 81.68 52.448 81.488C52.416 81.2853 52.4533 81.0613 52.56 80.816L56.784 71.456C56.9227 71.1467 57.088 70.928 57.28 70.8C57.4827 70.6613 57.712 70.592 57.968 70.592C58.2133 70.592 58.432 70.6613 58.624 70.8C58.8267 70.928 58.9973 71.1467 59.136 71.456L63.376 80.816C63.4933 81.0613 63.536 81.2853 63.504 81.488C63.472 81.6907 63.3813 81.8507 63.232 81.968C63.0827 82.0747 62.8853 82.128 62.64 82.128C62.3413 82.128 62.1067 82.0587 61.936 81.92C61.776 81.7707 61.632 81.5467 61.504 81.248L60.464 78.832L61.328 79.392H54.576L55.44 78.832L54.416 81.248C54.2773 81.5573 54.1333 81.7813 53.984 81.92C53.8347 82.0587 53.6213 82.128 53.344 82.128ZM57.936 72.944L55.696 78.272L55.28 77.76H60.624L60.224 78.272L57.968 72.944H57.936ZM67.6183 82.16C66.7329 82.16 66.0663 81.9093 65.6183 81.408C65.1703 80.896 64.9463 80.1493 64.9463 79.168V71.6C64.9463 71.2693 65.0316 71.0187 65.2023 70.848C65.3729 70.6773 65.6183 70.592 65.9383 70.592C66.2583 70.592 66.5036 70.6773 66.6743 70.848C66.8556 71.0187 66.9463 71.2693 66.9463 71.6V79.072C66.9463 79.5627 67.0476 79.9253 67.2503 80.16C67.4636 80.3947 67.7623 80.512 68.1463 80.512C68.2316 80.512 68.3116 80.512 68.3863 80.512C68.4609 80.5013 68.5356 80.4907 68.6102 80.48C68.7596 80.4587 68.8609 80.5013 68.9143 80.608C68.9676 80.704 68.9943 80.9067 68.9943 81.216C68.9943 81.4827 68.9409 81.6907 68.8343 81.84C68.7276 81.9893 68.5516 82.08 68.3063 82.112C68.1996 82.1227 68.0876 82.1333 67.9703 82.144C67.8529 82.1547 67.7356 82.16 67.6183 82.16ZM72.7276 82.16C71.8423 82.16 71.1756 81.9093 70.7276 81.408C70.2796 80.896 70.0556 80.1493 70.0556 79.168V71.6C70.0556 71.2693 70.141 71.0187 70.3116 70.848C70.4823 70.6773 70.7276 70.592 71.0476 70.592C71.3676 70.592 71.613 70.6773 71.7836 70.848C71.965 71.0187 72.0556 71.2693 72.0556 71.6V79.072C72.0556 79.5627 72.157 79.9253 72.3596 80.16C72.573 80.3947 72.8716 80.512 73.2556 80.512C73.341 80.512 73.421 80.512 73.4956 80.512C73.5703 80.5013 73.645 80.4907 73.7196 80.48C73.869 80.4587 73.9703 80.5013 74.0236 80.608C74.077 80.704 74.1036 80.9067 74.1036 81.216C74.1036 81.4827 74.0503 81.6907 73.9436 81.84C73.837 81.9893 73.661 82.08 73.4156 82.112C73.309 82.1227 73.197 82.1333 73.0796 82.144C72.9623 82.1547 72.845 82.16 72.7276 82.16ZM85.1248 82.16C83.8768 82.16 82.8208 81.9253 81.9568 81.456C81.1034 80.9867 80.4528 80.32 80.0048 79.456C79.5568 78.592 79.3328 77.568 79.3328 76.384C79.3328 75.488 79.4608 74.6827 79.7168 73.968C79.9834 73.2533 80.3621 72.6453 80.8528 72.144C81.3541 71.632 81.9621 71.2427 82.6768 70.976C83.3914 70.6987 84.2021 70.56 85.1088 70.56C85.7061 70.56 86.3034 70.6347 86.9008 70.784C87.5088 70.9227 88.0794 71.1627 88.6128 71.504C88.7941 71.6213 88.9114 71.7653 88.9648 71.936C89.0288 72.1067 89.0394 72.2827 88.9968 72.464C88.9541 72.6347 88.8741 72.784 88.7568 72.912C88.6394 73.04 88.4901 73.12 88.3088 73.152C88.1381 73.184 87.9461 73.1413 87.7328 73.024C87.3274 72.7893 86.9168 72.6187 86.5008 72.512C86.0848 72.4053 85.6208 72.352 85.1088 72.352C84.3194 72.352 83.6528 72.512 83.1088 72.832C82.5648 73.1413 82.1541 73.5947 81.8768 74.192C81.6101 74.7893 81.4768 75.52 81.4768 76.384C81.4768 77.696 81.7914 78.6933 82.4208 79.376C83.0501 80.0587 83.9834 80.4 85.2208 80.4C85.6474 80.4 86.0794 80.3573 86.5168 80.272C86.9541 80.1867 87.3808 80.0693 87.7968 79.92L87.3968 80.832V77.424H85.6368C85.3701 77.424 85.1621 77.3547 85.0128 77.216C84.8741 77.0773 84.8048 76.8907 84.8048 76.656C84.8048 76.4107 84.8741 76.224 85.0128 76.096C85.1621 75.968 85.3701 75.904 85.6368 75.904H88.2768C88.5434 75.904 88.7461 75.9787 88.8848 76.128C89.0341 76.2667 89.1088 76.4693 89.1088 76.736V80.624C89.1088 80.8587 89.0608 81.056 88.9648 81.216C88.8794 81.376 88.7354 81.4933 88.5328 81.568C88.0634 81.7387 87.5248 81.8827 86.9167 82C86.3088 82.1067 85.7114 82.16 85.1248 82.16ZM94.858 82.16C94.0473 82.16 93.3433 81.9947 92.746 81.664C92.1487 81.3333 91.6847 80.864 91.354 80.256C91.0233 79.6373 90.858 78.912 90.858 78.08C90.858 77.4507 90.9487 76.8907 91.13 76.4C91.322 75.8987 91.594 75.472 91.946 75.12C92.298 74.7573 92.7193 74.4853 93.21 74.304C93.7007 74.112 94.25 74.016 94.858 74.016C95.6687 74.016 96.3727 74.1813 96.97 74.512C97.5673 74.8427 98.0313 75.312 98.362 75.92C98.6927 76.528 98.858 77.248 98.858 78.08C98.858 78.7093 98.762 79.2747 98.57 79.776C98.3887 80.2773 98.122 80.7093 97.77 81.072C97.418 81.424 96.9967 81.696 96.506 81.888C96.0153 82.0693 95.466 82.16 94.858 82.16ZM94.858 80.64C95.2527 80.64 95.5993 80.544 95.898 80.352C96.1967 80.16 96.426 79.8773 96.586 79.504C96.7567 79.12 96.842 78.6453 96.842 78.08C96.842 77.2267 96.6607 76.592 96.298 76.176C95.9353 75.7493 95.4553 75.536 94.858 75.536C94.4633 75.536 94.1167 75.632 93.818 75.824C93.5193 76.0053 93.2847 76.288 93.114 76.672C92.954 77.0453 92.874 77.5147 92.874 78.08C92.874 78.9227 93.0553 79.5627 93.418 80C93.7807 80.4267 94.2607 80.64 94.858 80.64ZM103.085 82.16C102.519 82.16 102.013 82.0533 101.565 81.84C101.127 81.616 100.781 81.3173 100.525 80.944C100.279 80.5707 100.157 80.1493 100.157 79.68C100.157 79.104 100.306 78.6507 100.605 78.32C100.903 77.9787 101.389 77.7333 102.061 77.584C102.733 77.4347 103.634 77.36 104.765 77.36H105.565V78.512H104.781C104.119 78.512 103.591 78.544 103.197 78.608C102.802 78.672 102.519 78.784 102.349 78.944C102.189 79.0933 102.109 79.3067 102.109 79.584C102.109 79.936 102.231 80.224 102.477 80.448C102.722 80.672 103.063 80.784 103.501 80.784C103.853 80.784 104.162 80.704 104.429 80.544C104.706 80.3733 104.925 80.144 105.085 79.856C105.245 79.568 105.325 79.2373 105.325 78.864V77.024C105.325 76.4907 105.207 76.1067 104.973 75.872C104.738 75.6373 104.343 75.52 103.789 75.52C103.479 75.52 103.143 75.5573 102.781 75.632C102.429 75.7067 102.055 75.8347 101.661 76.016C101.458 76.112 101.277 76.1387 101.117 76.096C100.967 76.0533 100.85 75.968 100.765 75.84C100.679 75.7013 100.637 75.552 100.637 75.392C100.637 75.232 100.679 75.0773 100.765 74.928C100.85 74.768 100.994 74.6507 101.197 74.576C101.687 74.3733 102.157 74.2293 102.605 74.144C103.063 74.0587 103.479 74.016 103.853 74.016C104.621 74.016 105.25 74.1333 105.741 74.368C106.242 74.6027 106.615 74.96 106.861 75.44C107.106 75.9093 107.229 76.5173 107.229 77.264V81.104C107.229 81.4347 107.149 81.6907 106.989 81.872C106.829 82.0427 106.599 82.128 106.301 82.128C106.002 82.128 105.767 82.0427 105.597 81.872C105.437 81.6907 105.357 81.4347 105.357 81.104V80.336H105.485C105.41 80.7093 105.261 81.0347 105.037 81.312C104.823 81.5787 104.551 81.7867 104.221 81.936C103.89 82.0853 103.511 82.16 103.085 82.16ZM111.931 82.16C111.045 82.16 110.379 81.9093 109.931 81.408C109.483 80.896 109.259 80.1493 109.259 79.168V71.6C109.259 71.2693 109.344 71.0187 109.515 70.848C109.685 70.6773 109.931 70.592 110.251 70.592C110.571 70.592 110.816 70.6773 110.987 70.848C111.168 71.0187 111.259 71.2693 111.259 71.6V79.072C111.259 79.5627 111.36 79.9253 111.563 80.16C111.776 80.3947 112.075 80.512 112.459 80.512C112.544 80.512 112.624 80.512 112.699 80.512C112.773 80.5013 112.848 80.4907 112.923 80.48C113.072 80.4587 113.173 80.5013 113.227 80.608C113.28 80.704 113.307 80.9067 113.307 81.216C113.307 81.4827 113.253 81.6907 113.147 81.84C113.04 81.9893 112.864 82.08 112.619 82.112C112.512 82.1227 112.4 82.1333 112.283 82.144C112.165 82.1547 112.048 82.16 111.931 82.16ZM117.154 82.16C116.695 82.16 116.21 82.112 115.698 82.016C115.186 81.92 114.727 81.7547 114.322 81.52C114.151 81.4133 114.029 81.2907 113.954 81.152C113.89 81.0027 113.863 80.8587 113.874 80.72C113.895 80.5707 113.949 80.4427 114.034 80.336C114.13 80.2293 114.247 80.16 114.386 80.128C114.535 80.096 114.695 80.1227 114.866 80.208C115.293 80.4107 115.693 80.5547 116.066 80.64C116.439 80.7147 116.807 80.752 117.17 80.752C117.682 80.752 118.061 80.6667 118.306 80.496C118.562 80.3147 118.69 80.08 118.69 79.792C118.69 79.5467 118.605 79.36 118.434 79.232C118.274 79.0933 118.029 78.992 117.698 78.928L116.098 78.624C115.437 78.496 114.93 78.256 114.578 77.904C114.237 77.5413 114.066 77.0773 114.066 76.512C114.066 76 114.205 75.5573 114.482 75.184C114.77 74.8107 115.165 74.5227 115.666 74.32C116.167 74.1173 116.743 74.016 117.394 74.016C117.863 74.016 118.301 74.0693 118.706 74.176C119.122 74.272 119.522 74.4267 119.906 74.64C120.066 74.7253 120.173 74.8373 120.226 74.976C120.29 75.1147 120.306 75.2587 120.274 75.408C120.242 75.5467 120.178 75.6747 120.082 75.792C119.986 75.8987 119.863 75.968 119.714 76C119.575 76.0213 119.415 75.9893 119.234 75.904C118.903 75.7333 118.583 75.6107 118.274 75.536C117.975 75.4613 117.687 75.424 117.41 75.424C116.887 75.424 116.498 75.5147 116.242 75.696C115.997 75.8773 115.874 76.1173 115.874 76.416C115.874 76.64 115.949 76.8267 116.098 76.976C116.247 77.1253 116.477 77.2267 116.786 77.28L118.386 77.584C119.079 77.712 119.602 77.9467 119.954 78.288C120.317 78.6293 120.498 79.088 120.498 79.664C120.498 80.4427 120.194 81.056 119.586 81.504C118.978 81.9413 118.167 82.16 117.154 82.16Z" fill="white"/>
<path d="M217.656 82.16C216.408 82.16 215.352 81.9253 214.488 81.456C213.635 80.9867 212.984 80.32 212.536 79.456C212.088 78.592 211.864 77.568 211.864 76.384C211.864 75.488 211.992 74.6827 212.248 73.968C212.515 73.2533 212.893 72.6453 213.384 72.144C213.885 71.632 214.493 71.2427 215.208 70.976C215.923 70.6987 216.733 70.56 217.64 70.56C218.237 70.56 218.835 70.6347 219.432 70.784C220.04 70.9227 220.611 71.1627 221.144 71.504C221.325 71.6213 221.443 71.7653 221.496 71.936C221.56 72.1067 221.571 72.2827 221.528 72.464C221.485 72.6347 221.405 72.784 221.288 72.912C221.171 73.04 221.021 73.12 220.84 73.152C220.669 73.184 220.477 73.1413 220.264 73.024C219.859 72.7893 219.448 72.6187 219.032 72.512C218.616 72.4053 218.152 72.352 217.64 72.352C216.851 72.352 216.184 72.512 215.64 72.832C215.096 73.1413 214.685 73.5947 214.408 74.192C214.141 74.7893 214.008 75.52 214.008 76.384C214.008 77.696 214.323 78.6933 214.952 79.376C215.581 80.0587 216.515 80.4 217.752 80.4C218.179 80.4 218.611 80.3573 219.048 80.272C219.485 80.1867 219.912 80.0693 220.328 79.92L219.928 80.832V77.424H218.168C217.901 77.424 217.693 77.3547 217.544 77.216C217.405 77.0773 217.336 76.8907 217.336 76.656C217.336 76.4107 217.405 76.224 217.544 76.096C217.693 75.968 217.901 75.904 218.168 75.904H220.808C221.075 75.904 221.277 75.9787 221.416 76.128C221.565 76.2667 221.64 76.4693 221.64 76.736V80.624C221.64 80.8587 221.592 81.056 221.496 81.216C221.411 81.376 221.267 81.4933 221.064 81.568C220.595 81.7387 220.056 81.8827 219.448 82C218.84 82.1067 218.243 82.16 217.656 82.16ZM227.389 82.16C226.579 82.16 225.875 81.9947 225.277 81.664C224.68 81.3333 224.216 80.864 223.885 80.256C223.555 79.6373 223.389 78.912 223.389 78.08C223.389 77.4507 223.48 76.8907 223.661 76.4C223.853 75.8987 224.125 75.472 224.477 75.12C224.829 74.7573 225.251 74.4853 225.741 74.304C226.232 74.112 226.781 74.016 227.389 74.016C228.2 74.016 228.904 74.1813 229.501 74.512C230.099 74.8427 230.563 75.312 230.893 75.92C231.224 76.528 231.389 77.248 231.389 78.08C231.389 78.7093 231.293 79.2747 231.101 79.776C230.92 80.2773 230.653 80.7093 230.301 81.072C229.949 81.424 229.528 81.696 229.037 81.888C228.547 82.0693 227.997 82.16 227.389 82.16ZM227.389 80.64C227.784 80.64 228.131 80.544 228.429 80.352C228.728 80.16 228.957 79.8773 229.117 79.504C229.288 79.12 229.373 78.6453 229.373 78.08C229.373 77.2267 229.192 76.592 228.829 76.176C228.467 75.7493 227.987 75.536 227.389 75.536C226.995 75.536 226.648 75.632 226.349 75.824C226.051 76.0053 225.816 76.288 225.645 76.672C225.485 77.0453 225.405 77.5147 225.405 78.08C225.405 78.9227 225.587 79.5627 225.949 80C226.312 80.4267 226.792 80.64 227.389 80.64ZM235.616 82.16C235.051 82.16 234.544 82.0533 234.096 81.84C233.659 81.616 233.312 81.3173 233.056 80.944C232.811 80.5707 232.688 80.1493 232.688 79.68C232.688 79.104 232.837 78.6507 233.136 78.32C233.435 77.9787 233.92 77.7333 234.592 77.584C235.264 77.4347 236.165 77.36 237.296 77.36H238.096V78.512H237.312C236.651 78.512 236.123 78.544 235.728 78.608C235.333 78.672 235.051 78.784 234.88 78.944C234.72 79.0933 234.64 79.3067 234.64 79.584C234.64 79.936 234.763 80.224 235.008 80.448C235.253 80.672 235.595 80.784 236.032 80.784C236.384 80.784 236.693 80.704 236.96 80.544C237.237 80.3733 237.456 80.144 237.616 79.856C237.776 79.568 237.856 79.2373 237.856 78.864V77.024C237.856 76.4907 237.739 76.1067 237.504 75.872C237.269 75.6373 236.875 75.52 236.32 75.52C236.011 75.52 235.675 75.5573 235.312 75.632C234.96 75.7067 234.587 75.8347 234.192 76.016C233.989 76.112 233.808 76.1387 233.648 76.096C233.499 76.0533 233.381 75.968 233.296 75.84C233.211 75.7013 233.168 75.552 233.168 75.392C233.168 75.232 233.211 75.0773 233.296 74.928C233.381 74.768 233.525 74.6507 233.728 74.576C234.219 74.3733 234.688 74.2293 235.136 74.144C235.595 74.0587 236.011 74.016 236.384 74.016C237.152 74.016 237.781 74.1333 238.272 74.368C238.773 74.6027 239.147 74.96 239.392 75.44C239.637 75.9093 239.76 76.5173 239.76 77.264V81.104C239.76 81.4347 239.68 81.6907 239.52 81.872C239.36 82.0427 239.131 82.128 238.832 82.128C238.533 82.128 238.299 82.0427 238.128 81.872C237.968 81.6907 237.888 81.4347 237.888 81.104V80.336H238.016C237.941 80.7093 237.792 81.0347 237.568 81.312C237.355 81.5787 237.083 81.7867 236.752 81.936C236.421 82.0853 236.043 82.16 235.616 82.16ZM244.462 82.16C243.577 82.16 242.91 81.9093 242.462 81.408C242.014 80.896 241.79 80.1493 241.79 79.168V71.6C241.79 71.2693 241.875 71.0187 242.046 70.848C242.217 70.6773 242.462 70.592 242.782 70.592C243.102 70.592 243.347 70.6773 243.518 70.848C243.699 71.0187 243.79 71.2693 243.79 71.6V79.072C243.79 79.5627 243.891 79.9253 244.094 80.16C244.307 80.3947 244.606 80.512 244.99 80.512C245.075 80.512 245.155 80.512 245.23 80.512C245.305 80.5013 245.379 80.4907 245.454 80.48C245.603 80.4587 245.705 80.5013 245.758 80.608C245.811 80.704 245.838 80.9067 245.838 81.216C245.838 81.4827 245.785 81.6907 245.678 81.84C245.571 81.9893 245.395 82.08 245.15 82.112C245.043 82.1227 244.931 82.1333 244.814 82.144C244.697 82.1547 244.579 82.16 244.462 82.16ZM249.685 82.16C249.227 82.16 248.741 82.112 248.229 82.016C247.717 81.92 247.259 81.7547 246.853 81.52C246.683 81.4133 246.56 81.2907 246.485 81.152C246.421 81.0027 246.395 80.8587 246.405 80.72C246.427 80.5707 246.48 80.4427 246.565 80.336C246.661 80.2293 246.779 80.16 246.917 80.128C247.067 80.096 247.227 80.1227 247.397 80.208C247.824 80.4107 248.224 80.5547 248.597 80.64C248.971 80.7147 249.339 80.752 249.701 80.752C250.213 80.752 250.592 80.6667 250.837 80.496C251.093 80.3147 251.221 80.08 251.221 79.792C251.221 79.5467 251.136 79.36 250.965 79.232C250.805 79.0933 250.56 78.992 250.229 78.928L248.629 78.624C247.968 78.496 247.461 78.256 247.109 77.904C246.768 77.5413 246.597 77.0773 246.597 76.512C246.597 76 246.736 75.5573 247.013 75.184C247.301 74.8107 247.696 74.5227 248.197 74.32C248.699 74.1173 249.275 74.016 249.925 74.016C250.395 74.016 250.832 74.0693 251.237 74.176C251.653 74.272 252.053 74.4267 252.437 74.64C252.597 74.7253 252.704 74.8373 252.757 74.976C252.821 75.1147 252.837 75.2587 252.805 75.408C252.773 75.5467 252.709 75.6747 252.613 75.792C252.517 75.8987 252.395 75.968 252.245 76C252.107 76.0213 251.947 75.9893 251.765 75.904C251.435 75.7333 251.115 75.6107 250.805 75.536C250.507 75.4613 250.219 75.424 249.941 75.424C249.419 75.424 249.029 75.5147 248.773 75.696C248.528 75.8773 248.405 76.1173 248.405 76.416C248.405 76.64 248.48 76.8267 248.629 76.976C248.779 77.1253 249.008 77.2267 249.317 77.28L250.917 77.584C251.611 77.712 252.133 77.9467 252.485 78.288C252.848 78.6293 253.029 79.088 253.029 79.664C253.029 80.4427 252.725 81.056 252.117 81.504C251.509 81.9413 250.699 82.16 249.685 82.16ZM264.226 82.16C263.138 82.16 262.183 81.92 261.362 81.44C260.551 80.96 259.922 80.288 259.474 79.424C259.026 78.5493 258.802 77.5253 258.802 76.352C258.802 75.4667 258.93 74.672 259.186 73.968C259.442 73.2533 259.804 72.6453 260.274 72.144C260.754 71.632 261.324 71.2427 261.986 70.976C262.658 70.6987 263.404 70.56 264.226 70.56C265.324 70.56 266.279 70.8 267.09 71.28C267.9 71.7493 268.53 72.416 268.978 73.28C269.426 74.144 269.65 75.1627 269.65 76.336C269.65 77.2213 269.522 78.0213 269.266 78.736C269.01 79.4507 268.642 80.064 268.162 80.576C267.692 81.088 267.122 81.4827 266.45 81.76C265.788 82.0267 265.047 82.16 264.226 82.16ZM264.226 80.4C264.919 80.4 265.506 80.24 265.986 79.92C266.476 79.6 266.85 79.136 267.106 78.528C267.372 77.92 267.506 77.1947 267.506 76.352C267.506 75.072 267.218 74.08 266.642 73.376C266.076 72.672 265.271 72.32 264.226 72.32C263.543 72.32 262.956 72.48 262.466 72.8C261.975 73.1093 261.596 73.568 261.33 74.176C261.074 74.7733 260.946 75.4987 260.946 76.352C260.946 77.6213 261.234 78.6133 261.81 79.328C262.386 80.0427 263.191 80.4 264.226 80.4ZM272.532 82.128C272.212 82.128 271.967 82.0427 271.796 81.872C271.625 81.6907 271.54 81.4347 271.54 81.104V75.056C271.54 74.7253 271.625 74.4747 271.796 74.304C271.967 74.1333 272.207 74.048 272.516 74.048C272.825 74.048 273.065 74.1333 273.236 74.304C273.407 74.4747 273.492 74.7253 273.492 75.056V76.144L273.316 75.744C273.551 75.1787 273.913 74.752 274.404 74.464C274.905 74.1653 275.471 74.016 276.1 74.016C276.729 74.016 277.247 74.1333 277.652 74.368C278.057 74.6027 278.361 74.96 278.564 75.44C278.767 75.9093 278.868 76.5067 278.868 77.232V81.104C278.868 81.4347 278.783 81.6907 278.612 81.872C278.441 82.0427 278.196 82.128 277.876 82.128C277.556 82.128 277.305 82.0427 277.124 81.872C276.953 81.6907 276.868 81.4347 276.868 81.104V77.328C276.868 76.72 276.751 76.2773 276.516 76C276.292 75.7227 275.94 75.584 275.46 75.584C274.873 75.584 274.404 75.7707 274.052 76.144C273.711 76.5067 273.54 76.992 273.54 77.6V81.104C273.54 81.7867 273.204 82.128 272.532 82.128ZM283.571 82.16C282.686 82.16 282.019 81.9093 281.571 81.408C281.123 80.896 280.899 80.1493 280.899 79.168V71.6C280.899 71.2693 280.985 71.0187 281.155 70.848C281.326 70.6773 281.571 70.592 281.891 70.592C282.211 70.592 282.457 70.6773 282.627 70.848C282.809 71.0187 282.899 71.2693 282.899 71.6V79.072C282.899 79.5627 283.001 79.9253 283.203 80.16C283.417 80.3947 283.715 80.512 284.099 80.512C284.185 80.512 284.265 80.512 284.339 80.512C284.414 80.5013 284.489 80.4907 284.563 80.48C284.713 80.4587 284.814 80.5013 284.867 80.608C284.921 80.704 284.947 80.9067 284.947 81.216C284.947 81.4827 284.894 81.6907 284.787 81.84C284.681 81.9893 284.505 82.08 284.259 82.112C284.153 82.1227 284.041 82.1333 283.923 82.144C283.806 82.1547 283.689 82.16 283.571 82.16ZM287.79 85.008C287.555 85.008 287.363 84.944 287.214 84.816C287.064 84.6987 286.974 84.5387 286.942 84.336C286.92 84.1333 286.958 83.92 287.054 83.696L288.142 81.28V82.112L285.23 75.376C285.134 75.1413 285.102 74.9227 285.134 74.72C285.166 74.5173 285.262 74.3573 285.422 74.24C285.592 74.112 285.822 74.048 286.11 74.048C286.355 74.048 286.552 74.1067 286.702 74.224C286.851 74.3307 286.984 74.5387 287.102 74.848L289.262 80.24H288.782L290.99 74.832C291.107 74.5333 291.246 74.3307 291.406 74.224C291.566 74.1067 291.779 74.048 292.046 74.048C292.28 74.048 292.467 74.112 292.606 74.24C292.744 74.3573 292.83 74.5173 292.862 74.72C292.894 74.912 292.856 75.1253 292.75 75.36L288.862 84.24C288.723 84.5387 288.574 84.7413 288.414 84.848C288.254 84.9547 288.046 85.008 287.79 85.008Z" fill="#38455D"/>
<path d="M217.656 232.16C216.408 232.16 215.352 231.925 214.488 231.456C213.635 230.987 212.984 230.32 212.536 229.456C212.088 228.592 211.864 227.568 211.864 226.384C211.864 225.488 211.992 224.683 212.248 223.968C212.515 223.253 212.893 222.645 213.384 222.144C213.885 221.632 214.493 221.243 215.208 220.976C215.923 220.699 216.733 220.56 217.64 220.56C218.237 220.56 218.835 220.635 219.432 220.784C220.04 220.923 220.611 221.163 221.144 221.504C221.325 221.621 221.443 221.765 221.496 221.936C221.56 222.107 221.571 222.283 221.528 222.464C221.485 222.635 221.405 222.784 221.288 222.912C221.171 223.04 221.021 223.12 220.84 223.152C220.669 223.184 220.477 223.141 220.264 223.024C219.859 222.789 219.448 222.619 219.032 222.512C218.616 222.405 218.152 222.352 217.64 222.352C216.851 222.352 216.184 222.512 215.64 222.832C215.096 223.141 214.685 223.595 214.408 224.192C214.141 224.789 214.008 225.52 214.008 226.384C214.008 227.696 214.323 228.693 214.952 229.376C215.581 230.059 216.515 230.4 217.752 230.4C218.179 230.4 218.611 230.357 219.048 230.272C219.485 230.187 219.912 230.069 220.328 229.92L219.928 230.832V227.424H218.168C217.901 227.424 217.693 227.355 217.544 227.216C217.405 227.077 217.336 226.891 217.336 226.656C217.336 226.411 217.405 226.224 217.544 226.096C217.693 225.968 217.901 225.904 218.168 225.904H220.808C221.075 225.904 221.277 225.979 221.416 226.128C221.565 226.267 221.64 226.469 221.64 226.736V230.624C221.64 230.859 221.592 231.056 221.496 231.216C221.411 231.376 221.267 231.493 221.064 231.568C220.595 231.739 220.056 231.883 219.448 232C218.84 232.107 218.243 232.16 217.656 232.16ZM227.389 232.16C226.579 232.16 225.875 231.995 225.277 231.664C224.68 231.333 224.216 230.864 223.885 230.256C223.555 229.637 223.389 228.912 223.389 228.08C223.389 227.451 223.48 226.891 223.661 226.4C223.853 225.899 224.125 225.472 224.477 225.12C224.829 224.757 225.251 224.485 225.741 224.304C226.232 224.112 226.781 224.016 227.389 224.016C228.2 224.016 228.904 224.181 229.501 224.512C230.099 224.843 230.563 225.312 230.893 225.92C231.224 226.528 231.389 227.248 231.389 228.08C231.389 228.709 231.293 229.275 231.101 229.776C230.92 230.277 230.653 230.709 230.301 231.072C229.949 231.424 229.528 231.696 229.037 231.888C228.547 232.069 227.997 232.16 227.389 232.16ZM227.389 230.64C227.784 230.64 228.131 230.544 228.429 230.352C228.728 230.16 228.957 229.877 229.117 229.504C229.288 229.12 229.373 228.645 229.373 228.08C229.373 227.227 229.192 226.592 228.829 226.176C228.467 225.749 227.987 225.536 227.389 225.536C226.995 225.536 226.648 225.632 226.349 225.824C226.051 226.005 225.816 226.288 225.645 226.672C225.485 227.045 225.405 227.515 225.405 228.08C225.405 228.923 225.587 229.563 225.949 230C226.312 230.427 226.792 230.64 227.389 230.64ZM235.616 232.16C235.051 232.16 234.544 232.053 234.096 231.84C233.659 231.616 233.312 231.317 233.056 230.944C232.811 230.571 232.688 230.149 232.688 229.68C232.688 229.104 232.837 228.651 233.136 228.32C233.435 227.979 233.92 227.733 234.592 227.584C235.264 227.435 236.165 227.36 237.296 227.36H238.096V228.512H237.312C236.651 228.512 236.123 228.544 235.728 228.608C235.333 228.672 235.051 228.784 234.88 228.944C234.72 229.093 234.64 229.307 234.64 229.584C234.64 229.936 234.763 230.224 235.008 230.448C235.253 230.672 235.595 230.784 236.032 230.784C236.384 230.784 236.693 230.704 236.96 230.544C237.237 230.373 237.456 230.144 237.616 229.856C237.776 229.568 237.856 229.237 237.856 228.864V227.024C237.856 226.491 237.739 226.107 237.504 225.872C237.269 225.637 236.875 225.52 236.32 225.52C236.011 225.52 235.675 225.557 235.312 225.632C234.96 225.707 234.587 225.835 234.192 226.016C233.989 226.112 233.808 226.139 233.648 226.096C233.499 226.053 233.381 225.968 233.296 225.84C233.211 225.701 233.168 225.552 233.168 225.392C233.168 225.232 233.211 225.077 233.296 224.928C233.381 224.768 233.525 224.651 233.728 224.576C234.219 224.373 234.688 224.229 235.136 224.144C235.595 224.059 236.011 224.016 236.384 224.016C237.152 224.016 237.781 224.133 238.272 224.368C238.773 224.603 239.147 224.96 239.392 225.44C239.637 225.909 239.76 226.517 239.76 227.264V231.104C239.76 231.435 239.68 231.691 239.52 231.872C239.36 232.043 239.131 232.128 238.832 232.128C238.533 232.128 238.299 232.043 238.128 231.872C237.968 231.691 237.888 231.435 237.888 231.104V230.336H238.016C237.941 230.709 237.792 231.035 237.568 231.312C237.355 231.579 237.083 231.787 236.752 231.936C236.421 232.085 236.043 232.16 235.616 232.16ZM244.462 232.16C243.577 232.16 242.91 231.909 242.462 231.408C242.014 230.896 241.79 230.149 241.79 229.168V221.6C241.79 221.269 241.875 221.019 242.046 220.848C242.217 220.677 242.462 220.592 242.782 220.592C243.102 220.592 243.347 220.677 243.518 220.848C243.699 221.019 243.79 221.269 243.79 221.6V229.072C243.79 229.563 243.891 229.925 244.094 230.16C244.307 230.395 244.606 230.512 244.99 230.512C245.075 230.512 245.155 230.512 245.23 230.512C245.305 230.501 245.379 230.491 245.454 230.48C245.603 230.459 245.705 230.501 245.758 230.608C245.811 230.704 245.838 230.907 245.838 231.216C245.838 231.483 245.785 231.691 245.678 231.84C245.571 231.989 245.395 232.08 245.15 232.112C245.043 232.123 244.931 232.133 244.814 232.144C244.697 232.155 244.579 232.16 244.462 232.16ZM249.685 232.16C249.227 232.16 248.741 232.112 248.229 232.016C247.717 231.92 247.259 231.755 246.853 231.52C246.683 231.413 246.56 231.291 246.485 231.152C246.421 231.003 246.395 230.859 246.405 230.72C246.427 230.571 246.48 230.443 246.565 230.336C246.661 230.229 246.779 230.16 246.917 230.128C247.067 230.096 247.227 230.123 247.397 230.208C247.824 230.411 248.224 230.555 248.597 230.64C248.971 230.715 249.339 230.752 249.701 230.752C250.213 230.752 250.592 230.667 250.837 230.496C251.093 230.315 251.221 230.08 251.221 229.792C251.221 229.547 251.136 229.36 250.965 229.232C250.805 229.093 250.56 228.992 250.229 228.928L248.629 228.624C247.968 228.496 247.461 228.256 247.109 227.904C246.768 227.541 246.597 227.077 246.597 226.512C246.597 226 246.736 225.557 247.013 225.184C247.301 224.811 247.696 224.523 248.197 224.32C248.699 224.117 249.275 224.016 249.925 224.016C250.395 224.016 250.832 224.069 251.237 224.176C251.653 224.272 252.053 224.427 252.437 224.64C252.597 224.725 252.704 224.837 252.757 224.976C252.821 225.115 252.837 225.259 252.805 225.408C252.773 225.547 252.709 225.675 252.613 225.792C252.517 225.899 252.395 225.968 252.245 226C252.107 226.021 251.947 225.989 251.765 225.904C251.435 225.733 251.115 225.611 250.805 225.536C250.507 225.461 250.219 225.424 249.941 225.424C249.419 225.424 249.029 225.515 248.773 225.696C248.528 225.877 248.405 226.117 248.405 226.416C248.405 226.64 248.48 226.827 248.629 226.976C248.779 227.125 249.008 227.227 249.317 227.28L250.917 227.584C251.611 227.712 252.133 227.947 252.485 228.288C252.848 228.629 253.029 229.088 253.029 229.664C253.029 230.443 252.725 231.056 252.117 231.504C251.509 231.941 250.699 232.16 249.685 232.16ZM264.226 232.16C263.138 232.16 262.183 231.92 261.362 231.44C260.551 230.96 259.922 230.288 259.474 229.424C259.026 228.549 258.802 227.525 258.802 226.352C258.802 225.467 258.93 224.672 259.186 223.968C259.442 223.253 259.804 222.645 260.274 222.144C260.754 221.632 261.324 221.243 261.986 220.976C262.658 220.699 263.404 220.56 264.226 220.56C265.324 220.56 266.279 220.8 267.09 221.28C267.9 221.749 268.53 222.416 268.978 223.28C269.426 224.144 269.65 225.163 269.65 226.336C269.65 227.221 269.522 228.021 269.266 228.736C269.01 229.451 268.642 230.064 268.162 230.576C267.692 231.088 267.122 231.483 266.45 231.76C265.788 232.027 265.047 232.16 264.226 232.16ZM264.226 230.4C264.919 230.4 265.506 230.24 265.986 229.92C266.476 229.6 266.85 229.136 267.106 228.528C267.372 227.92 267.506 227.195 267.506 226.352C267.506 225.072 267.218 224.08 266.642 223.376C266.076 222.672 265.271 222.32 264.226 222.32C263.543 222.32 262.956 222.48 262.466 222.8C261.975 223.109 261.596 223.568 261.33 224.176C261.074 224.773 260.946 225.499 260.946 226.352C260.946 227.621 261.234 228.613 261.81 229.328C262.386 230.043 263.191 230.4 264.226 230.4ZM272.532 232.128C272.212 232.128 271.967 232.043 271.796 231.872C271.625 231.691 271.54 231.435 271.54 231.104V225.056C271.54 224.725 271.625 224.475 271.796 224.304C271.967 224.133 272.207 224.048 272.516 224.048C272.825 224.048 273.065 224.133 273.236 224.304C273.407 224.475 273.492 224.725 273.492 225.056V226.144L273.316 225.744C273.551 225.179 273.913 224.752 274.404 224.464C274.905 224.165 275.471 224.016 276.1 224.016C276.729 224.016 277.247 224.133 277.652 224.368C278.057 224.603 278.361 224.96 278.564 225.44C278.767 225.909 278.868 226.507 278.868 227.232V231.104C278.868 231.435 278.783 231.691 278.612 231.872C278.441 232.043 278.196 232.128 277.876 232.128C277.556 232.128 277.305 232.043 277.124 231.872C276.953 231.691 276.868 231.435 276.868 231.104V227.328C276.868 226.72 276.751 226.277 276.516 226C276.292 225.723 275.94 225.584 275.46 225.584C274.873 225.584 274.404 225.771 274.052 226.144C273.711 226.507 273.54 226.992 273.54 227.6V231.104C273.54 231.787 273.204 232.128 272.532 232.128ZM283.571 232.16C282.686 232.16 282.019 231.909 281.571 231.408C281.123 230.896 280.899 230.149 280.899 229.168V221.6C280.899 221.269 280.985 221.019 281.155 220.848C281.326 220.677 281.571 220.592 281.891 220.592C282.211 220.592 282.457 220.677 282.627 220.848C282.809 221.019 282.899 221.269 282.899 221.6V229.072C282.899 229.563 283.001 229.925 283.203 230.16C283.417 230.395 283.715 230.512 284.099 230.512C284.185 230.512 284.265 230.512 284.339 230.512C284.414 230.501 284.489 230.491 284.563 230.48C284.713 230.459 284.814 230.501 284.867 230.608C284.921 230.704 284.947 230.907 284.947 231.216C284.947 231.483 284.894 231.691 284.787 231.84C284.681 231.989 284.505 232.08 284.259 232.112C284.153 232.123 284.041 232.133 283.923 232.144C283.806 232.155 283.689 232.16 283.571 232.16ZM287.79 235.008C287.555 235.008 287.363 234.944 287.214 234.816C287.064 234.699 286.974 234.539 286.942 234.336C286.92 234.133 286.958 233.92 287.054 233.696L288.142 231.28V232.112L285.23 225.376C285.134 225.141 285.102 224.923 285.134 224.72C285.166 224.517 285.262 224.357 285.422 224.24C285.592 224.112 285.822 224.048 286.11 224.048C286.355 224.048 286.552 224.107 286.702 224.224C286.851 224.331 286.984 224.539 287.102 224.848L289.262 230.24H288.782L290.99 224.832C291.107 224.533 291.246 224.331 291.406 224.224C291.566 224.107 291.779 224.048 292.046 224.048C292.28 224.048 292.467 224.112 292.606 224.24C292.744 224.357 292.83 224.517 292.862 224.72C292.894 224.912 292.856 225.125 292.75 225.36L288.862 234.24C288.723 234.539 288.574 234.741 288.414 234.848C288.254 234.955 288.046 235.008 287.79 235.008Z" fill="white"/>
<defs>
<filter id="filter0_i_1113_9691" x="173" y="191" width="161" height="82" filterUnits="userSpaceOnUse" color-interpolation-filters="sRGB">
<feFlood flood-opacity="0" result="BackgroundImageFix"/>
<feBlend mode="normal" in="SourceGraphic" in2="BackgroundImageFix" result="shape"/>
<feColorMatrix in="SourceAlpha" type="matrix" values="0 0 0 0 0 0 0 0 0 0 0 0 0 0 0 0 0 0 127 0" result="hardAlpha"/>
<feOffset dy="10"/>
<feGaussianBlur stdDeviation="5"/>
<feComposite in2="hardAlpha" operator="arithmetic" k2="-1" k3="1"/>
<feColorMatrix type="matrix" values="0 0 0 0 0 0 0 0 0 0 0 0 0 0 0 0 0 0 0.12 0"/>
<feBlend mode="normal" in2="shape" result="effect1_innerShadow_1113_9691"/>
</filter>
<filter id="filter1_i_1113_9691" x="1" y="41" width="173" height="80" filterUnits="userSpaceOnUse" color-interpolation-filters="sRGB">
<feFlood flood-opacity="0" result="BackgroundImageFix"/>
<feBlend mode="normal" in="SourceGraphic" in2="BackgroundImageFix" result="shape"/>
<feColorMatrix in="SourceAlpha" type="matrix" values="0 0 0 0 0 0 0 0 0 0 0 0 0 0 0 0 0 0 127 0" result="hardAlpha"/>
<feOffset dy="10"/>
<feGaussianBlur stdDeviation="4"/>
<feComposite in2="hardAlpha" operator="arithmetic" k2="-1" k3="1"/>
<feColorMatrix type="matrix" values="0 0 0 0 0 0 0 0 0 0 0 0 0 0 0 0 0 0 0.25 0"/>
<feBlend mode="normal" in2="shape" result="effect1_innerShadow_1113_9691"/>
</filter>
<linearGradient id="paint0_linear_1113_9691" x1="253.035" y1="191" x2="253.572" y2="262.999" gradientUnits="userSpaceOnUse">
<stop offset="0.267259" stop-opacity="0"/>
<stop offset="0.797269"/>
</linearGradient>
<linearGradient id="paint1_linear_1113_9691" x1="253.035" y1="202.5" x2="253.035" y2="235.5" gradientUnits="userSpaceOnUse">
<stop offset="0.17" stop-color="white"/>
<stop offset="1"/>
</linearGradient>
<linearGradient id="paint2_linear_1113_9691" x1="87" y1="41" x2="87.5" y2="113" gradientUnits="userSpaceOnUse">
<stop offset="0.267259" stop-opacity="0"/>
<stop offset="0.797269"/>
</linearGradient>
<linearGradient id="paint3_linear_1113_9691" x1="87" y1="52.5" x2="87" y2="85.5" gradientUnits="userSpaceOnUse">
<stop offset="0.17" stop-color="white"/>
<stop offset="1"/>
</linearGradient>
</defs>
</svg>
