<svg width="240" height="180" viewBox="0 0 240 180" fill="none" xmlns="http://www.w3.org/2000/svg">
<g filter="url(#filter0_d_1147_10719)">
<mask id="path-1-inside-1_1147_10719" fill="white">
<path d="M6 18C6 11.3726 11.3726 6 18 6H91C97.6274 6 103 11.3726 103 18V28C103 34.6274 97.6274 40 91 40H18C11.3726 40 6 34.6274 6 28V18Z"/>
</mask>
<path d="M6 18C6 11.3726 11.3726 6 18 6H91C97.6274 6 103 11.3726 103 18V28C103 34.6274 97.6274 40 91 40H18C11.3726 40 6 34.6274 6 28V18Z" fill="#64728C" shape-rendering="crispEdges"/>
<path d="M6 6H103H6ZM103 28C103 35.732 96.732 42 89 42H20C12.268 42 6 35.732 6 28C6 33.5228 11.3726 38 18 38H91C97.6274 38 103 33.5228 103 28ZM6 40V6V40ZM103 6V40V6Z" fill="#435069" mask="url(#path-1-inside-1_1147_10719)"/>
<path d="M25.672 27.084C25.472 27.084 25.316 27.028 25.204 26.916C25.1 26.804 25.048 26.648 25.048 26.448V19.584H22.504C22.336 19.584 22.204 19.54 22.108 19.452C22.012 19.356 21.964 19.224 21.964 19.056C21.964 18.888 22.012 18.76 22.108 18.672C22.204 18.584 22.336 18.54 22.504 18.54H28.828C29.004 18.54 29.14 18.584 29.236 18.672C29.332 18.76 29.38 18.888 29.38 19.056C29.38 19.224 29.332 19.356 29.236 19.452C29.14 19.54 29.004 19.584 28.828 19.584H26.284V26.448C26.284 26.648 26.232 26.804 26.128 26.916C26.032 27.028 25.88 27.084 25.672 27.084ZM31.8062 27.108C31.2142 27.108 30.7022 26.984 30.2702 26.736C29.8462 26.488 29.5142 26.136 29.2742 25.68C29.0342 25.224 28.9142 24.688 28.9142 24.072C28.9142 23.6 28.9822 23.18 29.1182 22.812C29.2542 22.444 29.4462 22.128 29.6942 21.864C29.9502 21.592 30.2542 21.388 30.6062 21.252C30.9662 21.108 31.3662 21.036 31.8062 21.036C32.3902 21.036 32.8942 21.16 33.3182 21.408C33.7502 21.656 34.0862 22.008 34.3262 22.464C34.5662 22.912 34.6862 23.448 34.6862 24.072C34.6862 24.536 34.6182 24.956 34.4822 25.332C34.3462 25.708 34.1502 26.028 33.8942 26.292C33.6462 26.556 33.3422 26.76 32.9822 26.904C32.6302 27.04 32.2382 27.108 31.8062 27.108ZM31.8062 26.172C32.1342 26.172 32.4222 26.092 32.6702 25.932C32.9182 25.772 33.1102 25.536 33.2462 25.224C33.3902 24.912 33.4622 24.528 33.4622 24.072C33.4622 23.384 33.3102 22.864 33.0062 22.512C32.7022 22.16 32.3022 21.984 31.8062 21.984C31.4702 21.984 31.1782 22.064 30.9302 22.224C30.6822 22.376 30.4862 22.608 30.3422 22.92C30.2062 23.232 30.1382 23.616 30.1382 24.072C30.1382 24.752 30.2902 25.272 30.5942 25.632C30.8982 25.992 31.3022 26.172 31.8062 26.172ZM38.5913 27.108C37.9993 27.108 37.4873 26.984 37.0553 26.736C36.6313 26.488 36.2993 26.136 36.0593 25.68C35.8193 25.224 35.6993 24.688 35.6993 24.072C35.6993 23.6 35.7673 23.18 35.9033 22.812C36.0393 22.444 36.2313 22.128 36.4793 21.864C36.7353 21.592 37.0393 21.388 37.3913 21.252C37.7513 21.108 38.1513 21.036 38.5913 21.036C39.1753 21.036 39.6793 21.16 40.1033 21.408C40.5353 21.656 40.8713 22.008 41.1113 22.464C41.3513 22.912 41.4713 23.448 41.4713 24.072C41.4713 24.536 41.4033 24.956 41.2673 25.332C41.1313 25.708 40.9353 26.028 40.6793 26.292C40.4313 26.556 40.1273 26.76 39.7673 26.904C39.4153 27.04 39.0233 27.108 38.5913 27.108ZM38.5913 26.172C38.9193 26.172 39.2073 26.092 39.4553 25.932C39.7033 25.772 39.8953 25.536 40.0313 25.224C40.1753 24.912 40.2473 24.528 40.2473 24.072C40.2473 23.384 40.0953 22.864 39.7913 22.512C39.4873 22.16 39.0873 21.984 38.5913 21.984C38.2553 21.984 37.9633 22.064 37.7153 22.224C37.4673 22.376 37.2713 22.608 37.1273 22.92C36.9913 23.232 36.9233 23.616 36.9233 24.072C36.9233 24.752 37.0753 25.272 37.3793 25.632C37.6833 25.992 38.0873 26.172 38.5913 26.172ZM44.7165 27.108C44.0925 27.108 43.6205 26.928 43.3005 26.568C42.9885 26.2 42.8325 25.672 42.8325 24.984V19.068C42.8325 18.868 42.8845 18.716 42.9885 18.612C43.0925 18.508 43.2405 18.456 43.4325 18.456C43.6245 18.456 43.7725 18.508 43.8765 18.612C43.9885 18.716 44.0445 18.868 44.0445 19.068V24.912C44.0445 25.312 44.1245 25.612 44.2845 25.812C44.4525 26.004 44.6925 26.1 45.0045 26.1C45.0765 26.1 45.1405 26.1 45.1965 26.1C45.2525 26.092 45.3085 26.084 45.3645 26.076C45.4605 26.068 45.5285 26.096 45.5685 26.16C45.6085 26.216 45.6285 26.336 45.6285 26.52C45.6285 26.688 45.5925 26.82 45.5205 26.916C45.4485 27.004 45.3325 27.06 45.1725 27.084C45.1005 27.092 45.0245 27.096 44.9445 27.096C44.8645 27.104 44.7885 27.108 44.7165 27.108ZM48.8675 27.108C48.3875 27.108 47.9835 27.024 47.6555 26.856C47.3275 26.688 47.0835 26.44 46.9235 26.112C46.7635 25.784 46.6835 25.384 46.6835 24.912V22.08H45.9635C45.8035 22.08 45.6795 22.04 45.5915 21.96C45.5035 21.872 45.4595 21.756 45.4595 21.612C45.4595 21.46 45.5035 21.344 45.5915 21.264C45.6795 21.184 45.8035 21.144 45.9635 21.144H46.6835V19.908C46.6835 19.708 46.7355 19.556 46.8395 19.452C46.9515 19.348 47.1035 19.296 47.2955 19.296C47.4875 19.296 47.6355 19.348 47.7395 19.452C47.8435 19.556 47.8955 19.708 47.8955 19.908V21.144H49.2995C49.4595 21.144 49.5835 21.184 49.6715 21.264C49.7595 21.344 49.8035 21.46 49.8035 21.612C49.8035 21.756 49.7595 21.872 49.6715 21.96C49.5835 22.04 49.4595 22.08 49.2995 22.08H47.8955V24.816C47.8955 25.24 47.9835 25.56 48.1595 25.776C48.3435 25.992 48.6395 26.1 49.0475 26.1C49.1915 26.1 49.3155 26.088 49.4195 26.064C49.5315 26.032 49.6235 26.012 49.6955 26.004C49.7835 26.004 49.8555 26.036 49.9115 26.1C49.9675 26.156 49.9955 26.268 49.9955 26.436C49.9955 26.556 49.9715 26.668 49.9235 26.772C49.8835 26.876 49.8075 26.944 49.6955 26.976C49.5995 27.008 49.4675 27.036 49.2995 27.06C49.1395 27.092 48.9955 27.108 48.8675 27.108ZM51.4598 27.072C51.2678 27.072 51.1198 27.016 51.0158 26.904C50.9118 26.784 50.8598 26.62 50.8598 26.412V21.732C50.8598 21.524 50.9118 21.364 51.0158 21.252C51.1198 21.14 51.2678 21.084 51.4598 21.084C51.6518 21.084 51.7998 21.14 51.9038 21.252C52.0158 21.364 52.0718 21.524 52.0718 21.732V26.412C52.0718 26.62 52.0198 26.784 51.9158 26.904C51.8118 27.016 51.6598 27.072 51.4598 27.072ZM51.4598 19.836C51.2198 19.836 51.0318 19.776 50.8958 19.656C50.7678 19.536 50.7038 19.368 50.7038 19.152C50.7038 18.928 50.7678 18.76 50.8958 18.648C51.0318 18.528 51.2198 18.468 51.4598 18.468C51.6998 18.468 51.8838 18.528 52.0118 18.648C52.1478 18.76 52.2158 18.928 52.2158 19.152C52.2158 19.368 52.1478 19.536 52.0118 19.656C51.8838 19.776 51.6998 19.836 51.4598 19.836ZM54.3778 29.244C54.1858 29.244 54.0378 29.192 53.9338 29.088C53.8298 28.984 53.7778 28.832 53.7778 28.632V21.672C53.7778 21.472 53.8298 21.32 53.9338 21.216C54.0378 21.112 54.1818 21.06 54.3658 21.06C54.5578 21.06 54.7058 21.112 54.8098 21.216C54.9138 21.32 54.9658 21.472 54.9658 21.672V22.716L54.8338 22.464C54.9618 22.032 55.2138 21.688 55.5898 21.432C55.9658 21.168 56.4098 21.036 56.9218 21.036C57.4418 21.036 57.8938 21.16 58.2778 21.408C58.6698 21.656 58.9698 22.004 59.1778 22.452C59.3938 22.9 59.5018 23.44 59.5018 24.072C59.5018 24.688 59.3938 25.228 59.1778 25.692C58.9698 26.148 58.6738 26.5 58.2898 26.748C57.9058 26.988 57.4498 27.108 56.9218 27.108C56.4178 27.108 55.9778 26.98 55.6018 26.724C55.2258 26.468 54.9738 26.128 54.8458 25.704H54.9898V28.632C54.9898 28.832 54.9338 28.984 54.8218 29.088C54.7178 29.192 54.5698 29.244 54.3778 29.244ZM56.6218 26.172C56.9578 26.172 57.2498 26.092 57.4978 25.932C57.7458 25.772 57.9378 25.536 58.0738 25.224C58.2098 24.912 58.2778 24.528 58.2778 24.072C58.2778 23.384 58.1258 22.864 57.8218 22.512C57.5258 22.16 57.1258 21.984 56.6218 21.984C56.2938 21.984 56.0018 22.064 55.7458 22.224C55.4978 22.376 55.3058 22.608 55.1698 22.92C55.0338 23.232 54.9658 23.616 54.9658 24.072C54.9658 24.752 55.1178 25.272 55.4218 25.632C55.7258 25.992 56.1258 26.172 56.6218 26.172ZM66.8517 27.084C66.6517 27.084 66.4957 27.028 66.3837 26.916C66.2797 26.804 66.2277 26.648 66.2277 26.448V19.584H63.6837C63.5157 19.584 63.3837 19.54 63.2877 19.452C63.1917 19.356 63.1437 19.224 63.1437 19.056C63.1437 18.888 63.1917 18.76 63.2877 18.672C63.3837 18.584 63.5157 18.54 63.6837 18.54H70.0077C70.1837 18.54 70.3197 18.584 70.4157 18.672C70.5117 18.76 70.5597 18.888 70.5597 19.056C70.5597 19.224 70.5117 19.356 70.4157 19.452C70.3197 19.54 70.1837 19.584 70.0077 19.584H67.4637V26.448C67.4637 26.648 67.4117 26.804 67.3077 26.916C67.2117 27.028 67.0597 27.084 66.8517 27.084ZM73.1898 27.108C72.5498 27.108 71.9978 26.988 71.5338 26.748C71.0778 26.5 70.7218 26.152 70.4658 25.704C70.2178 25.248 70.0938 24.708 70.0938 24.084C70.0938 23.476 70.2178 22.944 70.4658 22.488C70.7138 22.032 71.0538 21.676 71.4858 21.42C71.9178 21.164 72.4098 21.036 72.9618 21.036C73.3698 21.036 73.7338 21.104 74.0538 21.24C74.3738 21.368 74.6458 21.56 74.8698 21.816C75.1018 22.064 75.2738 22.368 75.3858 22.728C75.5058 23.088 75.5658 23.492 75.5658 23.94C75.5658 24.076 75.5258 24.18 75.4458 24.252C75.3658 24.316 75.2458 24.348 75.0858 24.348H71.0538V23.604H74.7498L74.5458 23.772C74.5458 23.372 74.4858 23.032 74.3658 22.752C74.2538 22.472 74.0818 22.26 73.8498 22.116C73.6258 21.964 73.3458 21.888 73.0098 21.888C72.6338 21.888 72.3138 21.976 72.0498 22.152C71.7938 22.328 71.5978 22.572 71.4618 22.884C71.3258 23.196 71.2578 23.56 71.2578 23.976V24.048C71.2578 24.752 71.4218 25.284 71.7498 25.644C72.0858 25.996 72.5698 26.172 73.2018 26.172C73.4418 26.172 73.6938 26.14 73.9578 26.076C74.2298 26.012 74.4858 25.904 74.7258 25.752C74.8618 25.672 74.9818 25.636 75.0858 25.644C75.1978 25.652 75.2858 25.688 75.3498 25.752C75.4218 25.816 75.4658 25.896 75.4818 25.992C75.4978 26.088 75.4818 26.188 75.4338 26.292C75.3858 26.388 75.3018 26.476 75.1818 26.556C74.9098 26.74 74.5938 26.88 74.2338 26.976C73.8738 27.064 73.5258 27.108 73.1898 27.108ZM77.0443 27.072C76.9003 27.072 76.7803 27.032 76.6843 26.952C76.5963 26.864 76.5483 26.756 76.5403 26.628C76.5403 26.5 76.5963 26.36 76.7083 26.208L78.7363 23.676V24.276L76.8403 21.912C76.7123 21.768 76.6523 21.632 76.6603 21.504C76.6683 21.368 76.7203 21.26 76.8163 21.18C76.9123 21.1 77.0283 21.06 77.1643 21.06C77.3163 21.06 77.4403 21.088 77.5363 21.144C77.6403 21.192 77.7363 21.276 77.8243 21.396L79.4203 23.424H78.9883L80.5963 21.396C80.6843 21.276 80.7763 21.192 80.8723 21.144C80.9763 21.088 81.1003 21.06 81.2443 21.06C81.3883 21.06 81.5043 21.104 81.5923 21.192C81.6883 21.272 81.7363 21.38 81.7363 21.516C81.7443 21.644 81.6883 21.78 81.5683 21.924L79.6723 24.252V23.712L81.7003 26.208C81.8203 26.352 81.8763 26.492 81.8683 26.628C81.8683 26.756 81.8203 26.864 81.7243 26.952C81.6283 27.032 81.5083 27.072 81.3643 27.072C81.2203 27.072 81.0963 27.044 80.9923 26.988C80.8963 26.932 80.8003 26.848 80.7043 26.736L78.9883 24.576H79.3963L77.6923 26.736C77.6043 26.84 77.5083 26.924 77.4043 26.988C77.3083 27.044 77.1883 27.072 77.0443 27.072ZM85.7464 27.108C85.2664 27.108 84.8624 27.024 84.5344 26.856C84.2064 26.688 83.9624 26.44 83.8024 26.112C83.6424 25.784 83.5624 25.384 83.5624 24.912V22.08H82.8424C82.6824 22.08 82.5584 22.04 82.4704 21.96C82.3824 21.872 82.3384 21.756 82.3384 21.612C82.3384 21.46 82.3824 21.344 82.4704 21.264C82.5584 21.184 82.6824 21.144 82.8424 21.144H83.5624V19.908C83.5624 19.708 83.6144 19.556 83.7184 19.452C83.8304 19.348 83.9824 19.296 84.1744 19.296C84.3664 19.296 84.5144 19.348 84.6184 19.452C84.7224 19.556 84.7744 19.708 84.7744 19.908V21.144H86.1784C86.3384 21.144 86.4624 21.184 86.5504 21.264C86.6384 21.344 86.6824 21.46 86.6824 21.612C86.6824 21.756 86.6384 21.872 86.5504 21.96C86.4624 22.04 86.3384 22.08 86.1784 22.08H84.7744V24.816C84.7744 25.24 84.8624 25.56 85.0384 25.776C85.2224 25.992 85.5184 26.1 85.9264 26.1C86.0704 26.1 86.1944 26.088 86.2984 26.064C86.4104 26.032 86.5024 26.012 86.5744 26.004C86.6624 26.004 86.7344 26.036 86.7904 26.1C86.8464 26.156 86.8744 26.268 86.8744 26.436C86.8744 26.556 86.8504 26.668 86.8024 26.772C86.7624 26.876 86.6864 26.944 86.5744 26.976C86.4784 27.008 86.3464 27.036 86.1784 27.06C86.0184 27.092 85.8744 27.108 85.7464 27.108Z" fill="white"/>
</g>
<path d="M55 0L59.3301 7.5H50.6699L55 0Z" fill="#64728C"/>
<g filter="url(#filter1_d_1147_10719)">
<mask id="path-5-inside-2_1147_10719" fill="white">
<path d="M136 18C136 11.3726 141.373 6 148 6H221C227.627 6 233 11.3726 233 18V28C233 34.6274 227.627 40 221 40H148C141.373 40 136 34.6274 136 28V18Z"/>
</mask>
<path d="M136 18C136 11.3726 141.373 6 148 6H221C227.627 6 233 11.3726 233 18V28C233 34.6274 227.627 40 221 40H148C141.373 40 136 34.6274 136 28V18Z" fill="#64728C" shape-rendering="crispEdges"/>
<path d="M136 6H233H136ZM233 28C233 35.732 226.732 42 219 42H150C142.268 42 136 35.732 136 28C136 33.5228 141.373 38 148 38H221C227.627 38 233 33.5228 233 28ZM136 40V6V40ZM233 6V40V6Z" fill="#435069" mask="url(#path-5-inside-2_1147_10719)"/>
<path d="M155.672 27.084C155.472 27.084 155.316 27.028 155.204 26.916C155.1 26.804 155.048 26.648 155.048 26.448V19.584H152.504C152.336 19.584 152.204 19.54 152.108 19.452C152.012 19.356 151.964 19.224 151.964 19.056C151.964 18.888 152.012 18.76 152.108 18.672C152.204 18.584 152.336 18.54 152.504 18.54H158.828C159.004 18.54 159.14 18.584 159.236 18.672C159.332 18.76 159.38 18.888 159.38 19.056C159.38 19.224 159.332 19.356 159.236 19.452C159.14 19.54 159.004 19.584 158.828 19.584H156.284V26.448C156.284 26.648 156.232 26.804 156.128 26.916C156.032 27.028 155.88 27.084 155.672 27.084ZM161.806 27.108C161.214 27.108 160.702 26.984 160.27 26.736C159.846 26.488 159.514 26.136 159.274 25.68C159.034 25.224 158.914 24.688 158.914 24.072C158.914 23.6 158.982 23.18 159.118 22.812C159.254 22.444 159.446 22.128 159.694 21.864C159.95 21.592 160.254 21.388 160.606 21.252C160.966 21.108 161.366 21.036 161.806 21.036C162.39 21.036 162.894 21.16 163.318 21.408C163.75 21.656 164.086 22.008 164.326 22.464C164.566 22.912 164.686 23.448 164.686 24.072C164.686 24.536 164.618 24.956 164.482 25.332C164.346 25.708 164.15 26.028 163.894 26.292C163.646 26.556 163.342 26.76 162.982 26.904C162.63 27.04 162.238 27.108 161.806 27.108ZM161.806 26.172C162.134 26.172 162.422 26.092 162.67 25.932C162.918 25.772 163.11 25.536 163.246 25.224C163.39 24.912 163.462 24.528 163.462 24.072C163.462 23.384 163.31 22.864 163.006 22.512C162.702 22.16 162.302 21.984 161.806 21.984C161.47 21.984 161.178 22.064 160.93 22.224C160.682 22.376 160.486 22.608 160.342 22.92C160.206 23.232 160.138 23.616 160.138 24.072C160.138 24.752 160.29 25.272 160.594 25.632C160.898 25.992 161.302 26.172 161.806 26.172ZM168.591 27.108C167.999 27.108 167.487 26.984 167.055 26.736C166.631 26.488 166.299 26.136 166.059 25.68C165.819 25.224 165.699 24.688 165.699 24.072C165.699 23.6 165.767 23.18 165.903 22.812C166.039 22.444 166.231 22.128 166.479 21.864C166.735 21.592 167.039 21.388 167.391 21.252C167.751 21.108 168.151 21.036 168.591 21.036C169.175 21.036 169.679 21.16 170.103 21.408C170.535 21.656 170.871 22.008 171.111 22.464C171.351 22.912 171.471 23.448 171.471 24.072C171.471 24.536 171.403 24.956 171.267 25.332C171.131 25.708 170.935 26.028 170.679 26.292C170.431 26.556 170.127 26.76 169.767 26.904C169.415 27.04 169.023 27.108 168.591 27.108ZM168.591 26.172C168.919 26.172 169.207 26.092 169.455 25.932C169.703 25.772 169.895 25.536 170.031 25.224C170.175 24.912 170.247 24.528 170.247 24.072C170.247 23.384 170.095 22.864 169.791 22.512C169.487 22.16 169.087 21.984 168.591 21.984C168.255 21.984 167.963 22.064 167.715 22.224C167.467 22.376 167.271 22.608 167.127 22.92C166.991 23.232 166.923 23.616 166.923 24.072C166.923 24.752 167.075 25.272 167.379 25.632C167.683 25.992 168.087 26.172 168.591 26.172ZM174.716 27.108C174.092 27.108 173.62 26.928 173.3 26.568C172.988 26.2 172.832 25.672 172.832 24.984V19.068C172.832 18.868 172.884 18.716 172.988 18.612C173.092 18.508 173.24 18.456 173.432 18.456C173.624 18.456 173.772 18.508 173.876 18.612C173.988 18.716 174.044 18.868 174.044 19.068V24.912C174.044 25.312 174.124 25.612 174.284 25.812C174.452 26.004 174.692 26.1 175.004 26.1C175.076 26.1 175.14 26.1 175.196 26.1C175.252 26.092 175.308 26.084 175.364 26.076C175.46 26.068 175.528 26.096 175.568 26.16C175.608 26.216 175.628 26.336 175.628 26.52C175.628 26.688 175.592 26.82 175.52 26.916C175.448 27.004 175.332 27.06 175.172 27.084C175.1 27.092 175.024 27.096 174.944 27.096C174.864 27.104 174.788 27.108 174.716 27.108ZM178.868 27.108C178.388 27.108 177.984 27.024 177.656 26.856C177.328 26.688 177.084 26.44 176.924 26.112C176.764 25.784 176.684 25.384 176.684 24.912V22.08H175.964C175.804 22.08 175.68 22.04 175.592 21.96C175.504 21.872 175.46 21.756 175.46 21.612C175.46 21.46 175.504 21.344 175.592 21.264C175.68 21.184 175.804 21.144 175.964 21.144H176.684V19.908C176.684 19.708 176.736 19.556 176.84 19.452C176.952 19.348 177.104 19.296 177.296 19.296C177.488 19.296 177.636 19.348 177.74 19.452C177.844 19.556 177.896 19.708 177.896 19.908V21.144H179.3C179.46 21.144 179.584 21.184 179.672 21.264C179.76 21.344 179.804 21.46 179.804 21.612C179.804 21.756 179.76 21.872 179.672 21.96C179.584 22.04 179.46 22.08 179.3 22.08H177.896V24.816C177.896 25.24 177.984 25.56 178.16 25.776C178.344 25.992 178.64 26.1 179.048 26.1C179.192 26.1 179.316 26.088 179.42 26.064C179.532 26.032 179.624 26.012 179.696 26.004C179.784 26.004 179.856 26.036 179.912 26.1C179.968 26.156 179.996 26.268 179.996 26.436C179.996 26.556 179.972 26.668 179.924 26.772C179.884 26.876 179.808 26.944 179.696 26.976C179.6 27.008 179.468 27.036 179.3 27.06C179.14 27.092 178.996 27.108 178.868 27.108ZM181.46 27.072C181.268 27.072 181.12 27.016 181.016 26.904C180.912 26.784 180.86 26.62 180.86 26.412V21.732C180.86 21.524 180.912 21.364 181.016 21.252C181.12 21.14 181.268 21.084 181.46 21.084C181.652 21.084 181.8 21.14 181.904 21.252C182.016 21.364 182.072 21.524 182.072 21.732V26.412C182.072 26.62 182.02 26.784 181.916 26.904C181.812 27.016 181.66 27.072 181.46 27.072ZM181.46 19.836C181.22 19.836 181.032 19.776 180.896 19.656C180.768 19.536 180.704 19.368 180.704 19.152C180.704 18.928 180.768 18.76 180.896 18.648C181.032 18.528 181.22 18.468 181.46 18.468C181.7 18.468 181.884 18.528 182.012 18.648C182.148 18.76 182.216 18.928 182.216 19.152C182.216 19.368 182.148 19.536 182.012 19.656C181.884 19.776 181.7 19.836 181.46 19.836ZM184.378 29.244C184.186 29.244 184.038 29.192 183.934 29.088C183.83 28.984 183.778 28.832 183.778 28.632V21.672C183.778 21.472 183.83 21.32 183.934 21.216C184.038 21.112 184.182 21.06 184.366 21.06C184.558 21.06 184.706 21.112 184.81 21.216C184.914 21.32 184.966 21.472 184.966 21.672V22.716L184.834 22.464C184.962 22.032 185.214 21.688 185.59 21.432C185.966 21.168 186.41 21.036 186.922 21.036C187.442 21.036 187.894 21.16 188.278 21.408C188.67 21.656 188.97 22.004 189.178 22.452C189.394 22.9 189.502 23.44 189.502 24.072C189.502 24.688 189.394 25.228 189.178 25.692C188.97 26.148 188.674 26.5 188.29 26.748C187.906 26.988 187.45 27.108 186.922 27.108C186.418 27.108 185.978 26.98 185.602 26.724C185.226 26.468 184.974 26.128 184.846 25.704H184.99V28.632C184.99 28.832 184.934 28.984 184.822 29.088C184.718 29.192 184.57 29.244 184.378 29.244ZM186.622 26.172C186.958 26.172 187.25 26.092 187.498 25.932C187.746 25.772 187.938 25.536 188.074 25.224C188.21 24.912 188.278 24.528 188.278 24.072C188.278 23.384 188.126 22.864 187.822 22.512C187.526 22.16 187.126 21.984 186.622 21.984C186.294 21.984 186.002 22.064 185.746 22.224C185.498 22.376 185.306 22.608 185.17 22.92C185.034 23.232 184.966 23.616 184.966 24.072C184.966 24.752 185.118 25.272 185.422 25.632C185.726 25.992 186.126 26.172 186.622 26.172ZM196.852 27.084C196.652 27.084 196.496 27.028 196.384 26.916C196.28 26.804 196.228 26.648 196.228 26.448V19.584H193.684C193.516 19.584 193.384 19.54 193.288 19.452C193.192 19.356 193.144 19.224 193.144 19.056C193.144 18.888 193.192 18.76 193.288 18.672C193.384 18.584 193.516 18.54 193.684 18.54H200.008C200.184 18.54 200.32 18.584 200.416 18.672C200.512 18.76 200.56 18.888 200.56 19.056C200.56 19.224 200.512 19.356 200.416 19.452C200.32 19.54 200.184 19.584 200.008 19.584H197.464V26.448C197.464 26.648 197.412 26.804 197.308 26.916C197.212 27.028 197.06 27.084 196.852 27.084ZM203.19 27.108C202.55 27.108 201.998 26.988 201.534 26.748C201.078 26.5 200.722 26.152 200.466 25.704C200.218 25.248 200.094 24.708 200.094 24.084C200.094 23.476 200.218 22.944 200.466 22.488C200.714 22.032 201.054 21.676 201.486 21.42C201.918 21.164 202.41 21.036 202.962 21.036C203.37 21.036 203.734 21.104 204.054 21.24C204.374 21.368 204.646 21.56 204.87 21.816C205.102 22.064 205.274 22.368 205.386 22.728C205.506 23.088 205.566 23.492 205.566 23.94C205.566 24.076 205.526 24.18 205.446 24.252C205.366 24.316 205.246 24.348 205.086 24.348H201.054V23.604H204.75L204.546 23.772C204.546 23.372 204.486 23.032 204.366 22.752C204.254 22.472 204.082 22.26 203.85 22.116C203.626 21.964 203.346 21.888 203.01 21.888C202.634 21.888 202.314 21.976 202.05 22.152C201.794 22.328 201.598 22.572 201.462 22.884C201.326 23.196 201.258 23.56 201.258 23.976V24.048C201.258 24.752 201.422 25.284 201.75 25.644C202.086 25.996 202.57 26.172 203.202 26.172C203.442 26.172 203.694 26.14 203.958 26.076C204.23 26.012 204.486 25.904 204.726 25.752C204.862 25.672 204.982 25.636 205.086 25.644C205.198 25.652 205.286 25.688 205.35 25.752C205.422 25.816 205.466 25.896 205.482 25.992C205.498 26.088 205.482 26.188 205.434 26.292C205.386 26.388 205.302 26.476 205.182 26.556C204.91 26.74 204.594 26.88 204.234 26.976C203.874 27.064 203.526 27.108 203.19 27.108ZM207.044 27.072C206.9 27.072 206.78 27.032 206.684 26.952C206.596 26.864 206.548 26.756 206.54 26.628C206.54 26.5 206.596 26.36 206.708 26.208L208.736 23.676V24.276L206.84 21.912C206.712 21.768 206.652 21.632 206.66 21.504C206.668 21.368 206.72 21.26 206.816 21.18C206.912 21.1 207.028 21.06 207.164 21.06C207.316 21.06 207.44 21.088 207.536 21.144C207.64 21.192 207.736 21.276 207.824 21.396L209.42 23.424H208.988L210.596 21.396C210.684 21.276 210.776 21.192 210.872 21.144C210.976 21.088 211.1 21.06 211.244 21.06C211.388 21.06 211.504 21.104 211.592 21.192C211.688 21.272 211.736 21.38 211.736 21.516C211.744 21.644 211.688 21.78 211.568 21.924L209.672 24.252V23.712L211.7 26.208C211.82 26.352 211.876 26.492 211.868 26.628C211.868 26.756 211.82 26.864 211.724 26.952C211.628 27.032 211.508 27.072 211.364 27.072C211.22 27.072 211.096 27.044 210.992 26.988C210.896 26.932 210.8 26.848 210.704 26.736L208.988 24.576H209.396L207.692 26.736C207.604 26.84 207.508 26.924 207.404 26.988C207.308 27.044 207.188 27.072 207.044 27.072ZM215.746 27.108C215.266 27.108 214.862 27.024 214.534 26.856C214.206 26.688 213.962 26.44 213.802 26.112C213.642 25.784 213.562 25.384 213.562 24.912V22.08H212.842C212.682 22.08 212.558 22.04 212.47 21.96C212.382 21.872 212.338 21.756 212.338 21.612C212.338 21.46 212.382 21.344 212.47 21.264C212.558 21.184 212.682 21.144 212.842 21.144H213.562V19.908C213.562 19.708 213.614 19.556 213.718 19.452C213.83 19.348 213.982 19.296 214.174 19.296C214.366 19.296 214.514 19.348 214.618 19.452C214.722 19.556 214.774 19.708 214.774 19.908V21.144H216.178C216.338 21.144 216.462 21.184 216.55 21.264C216.638 21.344 216.682 21.46 216.682 21.612C216.682 21.756 216.638 21.872 216.55 21.96C216.462 22.04 216.338 22.08 216.178 22.08H214.774V24.816C214.774 25.24 214.862 25.56 215.038 25.776C215.222 25.992 215.518 26.1 215.926 26.1C216.07 26.1 216.194 26.088 216.298 26.064C216.41 26.032 216.502 26.012 216.574 26.004C216.662 26.004 216.734 26.036 216.79 26.1C216.846 26.156 216.874 26.268 216.874 26.436C216.874 26.556 216.85 26.668 216.802 26.772C216.762 26.876 216.686 26.944 216.574 26.976C216.478 27.008 216.346 27.036 216.178 27.06C216.018 27.092 215.874 27.108 215.746 27.108Z" fill="white"/>
</g>
<path d="M184 45L179.67 37.5L188.33 37.5L184 45Z" fill="#64728C"/>
<g filter="url(#filter2_d_1147_10719)">
<mask id="path-9-inside-3_1147_10719" fill="white">
<path d="M136 81C136 74.3726 141.373 69 148 69H221C227.627 69 233 74.3726 233 81V91C233 97.6274 227.627 103 221 103H148C141.373 103 136 97.6274 136 91V81Z"/>
</mask>
<path d="M136 81C136 74.3726 141.373 69 148 69H221C227.627 69 233 74.3726 233 81V91C233 97.6274 227.627 103 221 103H148C141.373 103 136 97.6274 136 91V81Z" fill="#64728C" shape-rendering="crispEdges"/>
<path d="M136 69H233H136ZM233 91C233 98.732 226.732 105 219 105H150C142.268 105 136 98.732 136 91C136 96.5228 141.373 101 148 101H221C227.627 101 233 96.5228 233 91ZM136 103V69V103ZM233 69V103V69Z" fill="#435069" mask="url(#path-9-inside-3_1147_10719)"/>
<path d="M155.672 90.084C155.472 90.084 155.316 90.028 155.204 89.916C155.1 89.804 155.048 89.648 155.048 89.448V82.584H152.504C152.336 82.584 152.204 82.54 152.108 82.452C152.012 82.356 151.964 82.224 151.964 82.056C151.964 81.888 152.012 81.76 152.108 81.672C152.204 81.584 152.336 81.54 152.504 81.54H158.828C159.004 81.54 159.14 81.584 159.236 81.672C159.332 81.76 159.38 81.888 159.38 82.056C159.38 82.224 159.332 82.356 159.236 82.452C159.14 82.54 159.004 82.584 158.828 82.584H156.284V89.448C156.284 89.648 156.232 89.804 156.128 89.916C156.032 90.028 155.88 90.084 155.672 90.084ZM161.806 90.108C161.214 90.108 160.702 89.984 160.27 89.736C159.846 89.488 159.514 89.136 159.274 88.68C159.034 88.224 158.914 87.688 158.914 87.072C158.914 86.6 158.982 86.18 159.118 85.812C159.254 85.444 159.446 85.128 159.694 84.864C159.95 84.592 160.254 84.388 160.606 84.252C160.966 84.108 161.366 84.036 161.806 84.036C162.39 84.036 162.894 84.16 163.318 84.408C163.75 84.656 164.086 85.008 164.326 85.464C164.566 85.912 164.686 86.448 164.686 87.072C164.686 87.536 164.618 87.956 164.482 88.332C164.346 88.708 164.15 89.028 163.894 89.292C163.646 89.556 163.342 89.76 162.982 89.904C162.63 90.04 162.238 90.108 161.806 90.108ZM161.806 89.172C162.134 89.172 162.422 89.092 162.67 88.932C162.918 88.772 163.11 88.536 163.246 88.224C163.39 87.912 163.462 87.528 163.462 87.072C163.462 86.384 163.31 85.864 163.006 85.512C162.702 85.16 162.302 84.984 161.806 84.984C161.47 84.984 161.178 85.064 160.93 85.224C160.682 85.376 160.486 85.608 160.342 85.92C160.206 86.232 160.138 86.616 160.138 87.072C160.138 87.752 160.29 88.272 160.594 88.632C160.898 88.992 161.302 89.172 161.806 89.172ZM168.591 90.108C167.999 90.108 167.487 89.984 167.055 89.736C166.631 89.488 166.299 89.136 166.059 88.68C165.819 88.224 165.699 87.688 165.699 87.072C165.699 86.6 165.767 86.18 165.903 85.812C166.039 85.444 166.231 85.128 166.479 84.864C166.735 84.592 167.039 84.388 167.391 84.252C167.751 84.108 168.151 84.036 168.591 84.036C169.175 84.036 169.679 84.16 170.103 84.408C170.535 84.656 170.871 85.008 171.111 85.464C171.351 85.912 171.471 86.448 171.471 87.072C171.471 87.536 171.403 87.956 171.267 88.332C171.131 88.708 170.935 89.028 170.679 89.292C170.431 89.556 170.127 89.76 169.767 89.904C169.415 90.04 169.023 90.108 168.591 90.108ZM168.591 89.172C168.919 89.172 169.207 89.092 169.455 88.932C169.703 88.772 169.895 88.536 170.031 88.224C170.175 87.912 170.247 87.528 170.247 87.072C170.247 86.384 170.095 85.864 169.791 85.512C169.487 85.16 169.087 84.984 168.591 84.984C168.255 84.984 167.963 85.064 167.715 85.224C167.467 85.376 167.271 85.608 167.127 85.92C166.991 86.232 166.923 86.616 166.923 87.072C166.923 87.752 167.075 88.272 167.379 88.632C167.683 88.992 168.087 89.172 168.591 89.172ZM174.716 90.108C174.092 90.108 173.62 89.928 173.3 89.568C172.988 89.2 172.832 88.672 172.832 87.984V82.068C172.832 81.868 172.884 81.716 172.988 81.612C173.092 81.508 173.24 81.456 173.432 81.456C173.624 81.456 173.772 81.508 173.876 81.612C173.988 81.716 174.044 81.868 174.044 82.068V87.912C174.044 88.312 174.124 88.612 174.284 88.812C174.452 89.004 174.692 89.1 175.004 89.1C175.076 89.1 175.14 89.1 175.196 89.1C175.252 89.092 175.308 89.084 175.364 89.076C175.46 89.068 175.528 89.096 175.568 89.16C175.608 89.216 175.628 89.336 175.628 89.52C175.628 89.688 175.592 89.82 175.52 89.916C175.448 90.004 175.332 90.06 175.172 90.084C175.1 90.092 175.024 90.096 174.944 90.096C174.864 90.104 174.788 90.108 174.716 90.108ZM178.868 90.108C178.388 90.108 177.984 90.024 177.656 89.856C177.328 89.688 177.084 89.44 176.924 89.112C176.764 88.784 176.684 88.384 176.684 87.912V85.08H175.964C175.804 85.08 175.68 85.04 175.592 84.96C175.504 84.872 175.46 84.756 175.46 84.612C175.46 84.46 175.504 84.344 175.592 84.264C175.68 84.184 175.804 84.144 175.964 84.144H176.684V82.908C176.684 82.708 176.736 82.556 176.84 82.452C176.952 82.348 177.104 82.296 177.296 82.296C177.488 82.296 177.636 82.348 177.74 82.452C177.844 82.556 177.896 82.708 177.896 82.908V84.144H179.3C179.46 84.144 179.584 84.184 179.672 84.264C179.76 84.344 179.804 84.46 179.804 84.612C179.804 84.756 179.76 84.872 179.672 84.96C179.584 85.04 179.46 85.08 179.3 85.08H177.896V87.816C177.896 88.24 177.984 88.56 178.16 88.776C178.344 88.992 178.64 89.1 179.048 89.1C179.192 89.1 179.316 89.088 179.42 89.064C179.532 89.032 179.624 89.012 179.696 89.004C179.784 89.004 179.856 89.036 179.912 89.1C179.968 89.156 179.996 89.268 179.996 89.436C179.996 89.556 179.972 89.668 179.924 89.772C179.884 89.876 179.808 89.944 179.696 89.976C179.6 90.008 179.468 90.036 179.3 90.06C179.14 90.092 178.996 90.108 178.868 90.108ZM181.46 90.072C181.268 90.072 181.12 90.016 181.016 89.904C180.912 89.784 180.86 89.62 180.86 89.412V84.732C180.86 84.524 180.912 84.364 181.016 84.252C181.12 84.14 181.268 84.084 181.46 84.084C181.652 84.084 181.8 84.14 181.904 84.252C182.016 84.364 182.072 84.524 182.072 84.732V89.412C182.072 89.62 182.02 89.784 181.916 89.904C181.812 90.016 181.66 90.072 181.46 90.072ZM181.46 82.836C181.22 82.836 181.032 82.776 180.896 82.656C180.768 82.536 180.704 82.368 180.704 82.152C180.704 81.928 180.768 81.76 180.896 81.648C181.032 81.528 181.22 81.468 181.46 81.468C181.7 81.468 181.884 81.528 182.012 81.648C182.148 81.76 182.216 81.928 182.216 82.152C182.216 82.368 182.148 82.536 182.012 82.656C181.884 82.776 181.7 82.836 181.46 82.836ZM184.378 92.244C184.186 92.244 184.038 92.192 183.934 92.088C183.83 91.984 183.778 91.832 183.778 91.632V84.672C183.778 84.472 183.83 84.32 183.934 84.216C184.038 84.112 184.182 84.06 184.366 84.06C184.558 84.06 184.706 84.112 184.81 84.216C184.914 84.32 184.966 84.472 184.966 84.672V85.716L184.834 85.464C184.962 85.032 185.214 84.688 185.59 84.432C185.966 84.168 186.41 84.036 186.922 84.036C187.442 84.036 187.894 84.16 188.278 84.408C188.67 84.656 188.97 85.004 189.178 85.452C189.394 85.9 189.502 86.44 189.502 87.072C189.502 87.688 189.394 88.228 189.178 88.692C188.97 89.148 188.674 89.5 188.29 89.748C187.906 89.988 187.45 90.108 186.922 90.108C186.418 90.108 185.978 89.98 185.602 89.724C185.226 89.468 184.974 89.128 184.846 88.704H184.99V91.632C184.99 91.832 184.934 91.984 184.822 92.088C184.718 92.192 184.57 92.244 184.378 92.244ZM186.622 89.172C186.958 89.172 187.25 89.092 187.498 88.932C187.746 88.772 187.938 88.536 188.074 88.224C188.21 87.912 188.278 87.528 188.278 87.072C188.278 86.384 188.126 85.864 187.822 85.512C187.526 85.16 187.126 84.984 186.622 84.984C186.294 84.984 186.002 85.064 185.746 85.224C185.498 85.376 185.306 85.608 185.17 85.92C185.034 86.232 184.966 86.616 184.966 87.072C184.966 87.752 185.118 88.272 185.422 88.632C185.726 88.992 186.126 89.172 186.622 89.172ZM196.852 90.084C196.652 90.084 196.496 90.028 196.384 89.916C196.28 89.804 196.228 89.648 196.228 89.448V82.584H193.684C193.516 82.584 193.384 82.54 193.288 82.452C193.192 82.356 193.144 82.224 193.144 82.056C193.144 81.888 193.192 81.76 193.288 81.672C193.384 81.584 193.516 81.54 193.684 81.54H200.008C200.184 81.54 200.32 81.584 200.416 81.672C200.512 81.76 200.56 81.888 200.56 82.056C200.56 82.224 200.512 82.356 200.416 82.452C200.32 82.54 200.184 82.584 200.008 82.584H197.464V89.448C197.464 89.648 197.412 89.804 197.308 89.916C197.212 90.028 197.06 90.084 196.852 90.084ZM203.19 90.108C202.55 90.108 201.998 89.988 201.534 89.748C201.078 89.5 200.722 89.152 200.466 88.704C200.218 88.248 200.094 87.708 200.094 87.084C200.094 86.476 200.218 85.944 200.466 85.488C200.714 85.032 201.054 84.676 201.486 84.42C201.918 84.164 202.41 84.036 202.962 84.036C203.37 84.036 203.734 84.104 204.054 84.24C204.374 84.368 204.646 84.56 204.87 84.816C205.102 85.064 205.274 85.368 205.386 85.728C205.506 86.088 205.566 86.492 205.566 86.94C205.566 87.076 205.526 87.18 205.446 87.252C205.366 87.316 205.246 87.348 205.086 87.348H201.054V86.604H204.75L204.546 86.772C204.546 86.372 204.486 86.032 204.366 85.752C204.254 85.472 204.082 85.26 203.85 85.116C203.626 84.964 203.346 84.888 203.01 84.888C202.634 84.888 202.314 84.976 202.05 85.152C201.794 85.328 201.598 85.572 201.462 85.884C201.326 86.196 201.258 86.56 201.258 86.976V87.048C201.258 87.752 201.422 88.284 201.75 88.644C202.086 88.996 202.57 89.172 203.202 89.172C203.442 89.172 203.694 89.14 203.958 89.076C204.23 89.012 204.486 88.904 204.726 88.752C204.862 88.672 204.982 88.636 205.086 88.644C205.198 88.652 205.286 88.688 205.35 88.752C205.422 88.816 205.466 88.896 205.482 88.992C205.498 89.088 205.482 89.188 205.434 89.292C205.386 89.388 205.302 89.476 205.182 89.556C204.91 89.74 204.594 89.88 204.234 89.976C203.874 90.064 203.526 90.108 203.19 90.108ZM207.044 90.072C206.9 90.072 206.78 90.032 206.684 89.952C206.596 89.864 206.548 89.756 206.54 89.628C206.54 89.5 206.596 89.36 206.708 89.208L208.736 86.676V87.276L206.84 84.912C206.712 84.768 206.652 84.632 206.66 84.504C206.668 84.368 206.72 84.26 206.816 84.18C206.912 84.1 207.028 84.06 207.164 84.06C207.316 84.06 207.44 84.088 207.536 84.144C207.64 84.192 207.736 84.276 207.824 84.396L209.42 86.424H208.988L210.596 84.396C210.684 84.276 210.776 84.192 210.872 84.144C210.976 84.088 211.1 84.06 211.244 84.06C211.388 84.06 211.504 84.104 211.592 84.192C211.688 84.272 211.736 84.38 211.736 84.516C211.744 84.644 211.688 84.78 211.568 84.924L209.672 87.252V86.712L211.7 89.208C211.82 89.352 211.876 89.492 211.868 89.628C211.868 89.756 211.82 89.864 211.724 89.952C211.628 90.032 211.508 90.072 211.364 90.072C211.22 90.072 211.096 90.044 210.992 89.988C210.896 89.932 210.8 89.848 210.704 89.736L208.988 87.576H209.396L207.692 89.736C207.604 89.84 207.508 89.924 207.404 89.988C207.308 90.044 207.188 90.072 207.044 90.072ZM215.746 90.108C215.266 90.108 214.862 90.024 214.534 89.856C214.206 89.688 213.962 89.44 213.802 89.112C213.642 88.784 213.562 88.384 213.562 87.912V85.08H212.842C212.682 85.08 212.558 85.04 212.47 84.96C212.382 84.872 212.338 84.756 212.338 84.612C212.338 84.46 212.382 84.344 212.47 84.264C212.558 84.184 212.682 84.144 212.842 84.144H213.562V82.908C213.562 82.708 213.614 82.556 213.718 82.452C213.83 82.348 213.982 82.296 214.174 82.296C214.366 82.296 214.514 82.348 214.618 82.452C214.722 82.556 214.774 82.708 214.774 82.908V84.144H216.178C216.338 84.144 216.462 84.184 216.55 84.264C216.638 84.344 216.682 84.46 216.682 84.612C216.682 84.756 216.638 84.872 216.55 84.96C216.462 85.04 216.338 85.08 216.178 85.08H214.774V87.816C214.774 88.24 214.862 88.56 215.038 88.776C215.222 88.992 215.518 89.1 215.926 89.1C216.07 89.1 216.194 89.088 216.298 89.064C216.41 89.032 216.502 89.012 216.574 89.004C216.662 89.004 216.734 89.036 216.79 89.1C216.846 89.156 216.874 89.268 216.874 89.436C216.874 89.556 216.85 89.668 216.802 89.772C216.762 89.876 216.686 89.944 216.574 89.976C216.478 90.008 216.346 90.036 216.178 90.06C216.018 90.092 215.874 90.108 215.746 90.108Z" fill="white"/>
</g>
<path d="M130 86L137.5 81.6699L137.5 90.3301L130 86Z" fill="#64728C"/>
<g filter="url(#filter3_d_1147_10719)">
<mask id="path-13-inside-4_1147_10719" fill="white">
<path d="M6.13477 150C6.13477 143.373 11.5073 138 18.1348 138H223.135C229.762 138 235.135 143.373 235.135 150V160C235.135 166.627 229.762 172 223.135 172H18.1348C11.5073 172 6.13477 166.627 6.13477 160V150Z"/>
</mask>
<path d="M6.13477 150C6.13477 143.373 11.5073 138 18.1348 138H223.135C229.762 138 235.135 143.373 235.135 150V160C235.135 166.627 229.762 172 223.135 172H18.1348C11.5073 172 6.13477 166.627 6.13477 160V150Z" fill="#64728C" shape-rendering="crispEdges"/>
<path d="M6.13477 138H235.135H6.13477ZM235.135 160C235.135 167.732 228.867 174 221.135 174H20.1348C12.4028 174 6.13477 167.732 6.13477 160C6.13477 165.523 11.5073 170 18.1348 170H223.135C229.762 170 235.135 165.523 235.135 160ZM6.13477 172V138V172ZM235.135 138V172V138Z" fill="#435069" mask="url(#path-13-inside-4_1147_10719)"/>
<path d="M26.3348 159.084C26.1588 159.084 26.0108 159.044 25.8908 158.964C25.7788 158.876 25.6868 158.748 25.6148 158.58L22.3868 151.272C22.3228 151.104 22.3068 150.96 22.3388 150.84C22.3708 150.72 22.4348 150.628 22.5308 150.564C22.6348 150.492 22.7588 150.456 22.9028 150.456C23.0868 150.456 23.2268 150.496 23.3228 150.576C23.4188 150.656 23.4988 150.776 23.5628 150.936L26.5868 157.944H26.1428L29.1428 150.924C29.2148 150.772 29.2988 150.656 29.3948 150.576C29.4988 150.496 29.6388 150.456 29.8148 150.456C29.9588 150.456 30.0748 150.492 30.1628 150.564C30.2588 150.628 30.3188 150.72 30.3428 150.84C30.3668 150.96 30.3428 151.104 30.2708 151.272L27.0548 158.58C26.9828 158.748 26.8908 158.876 26.7788 158.964C26.6668 159.044 26.5188 159.084 26.3348 159.084ZM33.4105 159.108C32.7705 159.108 32.2185 158.988 31.7545 158.748C31.2985 158.5 30.9425 158.152 30.6865 157.704C30.4385 157.248 30.3145 156.708 30.3145 156.084C30.3145 155.476 30.4385 154.944 30.6865 154.488C30.9345 154.032 31.2745 153.676 31.7065 153.42C32.1385 153.164 32.6305 153.036 33.1825 153.036C33.5905 153.036 33.9545 153.104 34.2745 153.24C34.5945 153.368 34.8665 153.56 35.0905 153.816C35.3225 154.064 35.4945 154.368 35.6065 154.728C35.7265 155.088 35.7865 155.492 35.7865 155.94C35.7865 156.076 35.7465 156.18 35.6665 156.252C35.5865 156.316 35.4665 156.348 35.3065 156.348H31.2745V155.604H34.9705L34.7665 155.772C34.7665 155.372 34.7065 155.032 34.5865 154.752C34.4745 154.472 34.3025 154.26 34.0705 154.116C33.8465 153.964 33.5665 153.888 33.2305 153.888C32.8545 153.888 32.5345 153.976 32.2705 154.152C32.0145 154.328 31.8185 154.572 31.6825 154.884C31.5465 155.196 31.4785 155.56 31.4785 155.976V156.048C31.4785 156.752 31.6425 157.284 31.9705 157.644C32.3065 157.996 32.7905 158.172 33.4225 158.172C33.6625 158.172 33.9145 158.14 34.1785 158.076C34.4505 158.012 34.7065 157.904 34.9465 157.752C35.0825 157.672 35.2025 157.636 35.3065 157.644C35.4185 157.652 35.5065 157.688 35.5705 157.752C35.6425 157.816 35.6865 157.896 35.7025 157.992C35.7185 158.088 35.7025 158.188 35.6545 158.292C35.6065 158.388 35.5225 158.476 35.4025 158.556C35.1305 158.74 34.8145 158.88 34.4545 158.976C34.0945 159.064 33.7465 159.108 33.4105 159.108ZM37.7199 159.084C37.5199 159.084 37.3679 159.032 37.2639 158.928C37.1599 158.816 37.1079 158.664 37.1079 158.472V153.672C37.1079 153.472 37.1599 153.32 37.2639 153.216C37.3679 153.112 37.5119 153.06 37.6959 153.06C37.8879 153.06 38.0319 153.112 38.1279 153.216C38.2319 153.32 38.2839 153.472 38.2839 153.672V154.548H38.1639C38.2919 154.068 38.5279 153.704 38.8719 153.456C39.2159 153.208 39.6559 153.064 40.1919 153.024C40.3359 153.016 40.4479 153.052 40.5279 153.132C40.6159 153.212 40.6639 153.336 40.6719 153.504C40.6879 153.672 40.6519 153.808 40.5639 153.912C40.4759 154.008 40.3399 154.064 40.1559 154.08L39.9279 154.104C39.4079 154.152 39.0119 154.316 38.7399 154.596C38.4679 154.876 38.3319 155.26 38.3319 155.748V158.472C38.3319 158.664 38.2799 158.816 38.1759 158.928C38.0799 159.032 37.9279 159.084 37.7199 159.084ZM43.3277 161.244C43.1837 161.244 43.0637 161.204 42.9677 161.124C42.8797 161.052 42.8277 160.952 42.8117 160.824C42.8037 160.704 42.8277 160.572 42.8837 160.428L43.6997 158.592V159.108L41.4557 153.888C41.3997 153.744 41.3797 153.608 41.3957 153.48C41.4117 153.352 41.4717 153.252 41.5757 153.18C41.6797 153.1 41.8197 153.06 41.9957 153.06C42.1477 153.06 42.2677 153.096 42.3557 153.168C42.4437 153.24 42.5237 153.364 42.5957 153.54L44.4077 158.016H44.0717L45.9077 153.54C45.9797 153.356 46.0637 153.232 46.1597 153.168C46.2557 153.096 46.3877 153.06 46.5557 153.06C46.6997 153.06 46.8117 153.1 46.8917 153.18C46.9797 153.252 47.0317 153.352 47.0477 153.48C47.0717 153.6 47.0517 153.732 46.9877 153.876L43.9877 160.776C43.9077 160.96 43.8157 161.084 43.7117 161.148C43.6157 161.212 43.4877 161.244 43.3277 161.244ZM52.1141 159C51.9141 159 51.7581 158.944 51.6461 158.832C51.5341 158.72 51.4781 158.564 51.4781 158.364V151.128C51.4781 150.92 51.5301 150.764 51.6341 150.66C51.7461 150.548 51.9021 150.492 52.1021 150.492C52.3021 150.492 52.4541 150.548 52.5581 150.66C52.6701 150.764 52.7261 150.92 52.7261 151.128V157.932H56.4461C56.6221 157.932 56.7581 157.98 56.8541 158.076C56.9501 158.164 56.9981 158.292 56.9981 158.46C56.9981 158.628 56.9501 158.76 56.8541 158.856C56.7581 158.952 56.6221 159 56.4461 159H52.1141ZM60.4526 159.108C59.8606 159.108 59.3486 158.984 58.9166 158.736C58.4926 158.488 58.1606 158.136 57.9206 157.68C57.6806 157.224 57.5606 156.688 57.5606 156.072C57.5606 155.6 57.6286 155.18 57.7646 154.812C57.9006 154.444 58.0926 154.128 58.3406 153.864C58.5966 153.592 58.9006 153.388 59.2526 153.252C59.6126 153.108 60.0126 153.036 60.4526 153.036C61.0366 153.036 61.5406 153.16 61.9646 153.408C62.3966 153.656 62.7326 154.008 62.9726 154.464C63.2126 154.912 63.3326 155.448 63.3326 156.072C63.3326 156.536 63.2646 156.956 63.1286 157.332C62.9926 157.708 62.7966 158.028 62.5406 158.292C62.2926 158.556 61.9886 158.76 61.6286 158.904C61.2766 159.04 60.8846 159.108 60.4526 159.108ZM60.4526 158.172C60.7806 158.172 61.0686 158.092 61.3166 157.932C61.5646 157.772 61.7566 157.536 61.8926 157.224C62.0366 156.912 62.1086 156.528 62.1086 156.072C62.1086 155.384 61.9566 154.864 61.6526 154.512C61.3486 154.16 60.9486 153.984 60.4526 153.984C60.1166 153.984 59.8246 154.064 59.5766 154.224C59.3286 154.376 59.1326 154.608 58.9886 154.92C58.8526 155.232 58.7846 155.616 58.7846 156.072C58.7846 156.752 58.9366 157.272 59.2406 157.632C59.5446 157.992 59.9486 158.172 60.4526 158.172ZM65.2938 159.084C65.1018 159.084 64.9538 159.032 64.8498 158.928C64.7458 158.816 64.6938 158.664 64.6938 158.472V153.672C64.6938 153.472 64.7458 153.32 64.8498 153.216C64.9538 153.112 65.0978 153.06 65.2818 153.06C65.4738 153.06 65.6178 153.112 65.7138 153.216C65.8178 153.32 65.8698 153.472 65.8698 153.672V154.608L65.7378 154.392C65.9138 153.944 66.1898 153.608 66.5658 153.384C66.9418 153.152 67.3738 153.036 67.8618 153.036C68.3258 153.036 68.7098 153.124 69.0138 153.3C69.3258 153.468 69.5578 153.728 69.7098 154.08C69.8618 154.424 69.9378 154.86 69.9378 155.388V158.472C69.9378 158.664 69.8858 158.816 69.7818 158.928C69.6778 159.032 69.5298 159.084 69.3378 159.084C69.1378 159.084 68.9858 159.032 68.8818 158.928C68.7778 158.816 68.7258 158.664 68.7258 158.472V155.46C68.7258 154.956 68.6258 154.588 68.4258 154.356C68.2338 154.124 67.9298 154.008 67.5138 154.008C67.0258 154.008 66.6338 154.16 66.3378 154.464C66.0498 154.768 65.9058 155.176 65.9058 155.688V158.472C65.9058 158.88 65.7018 159.084 65.2938 159.084ZM74.2599 161.268C73.8279 161.268 73.4079 161.224 72.9999 161.136C72.5999 161.048 72.2359 160.904 71.9079 160.704C71.7879 160.64 71.7079 160.56 71.6679 160.464C71.6279 160.376 71.6159 160.284 71.6319 160.188C71.6559 160.092 71.6999 160.008 71.7639 159.936C71.8279 159.864 71.9039 159.816 71.9919 159.792C72.0879 159.768 72.1879 159.784 72.2919 159.84C72.6439 160.032 72.9759 160.16 73.2879 160.224C73.6079 160.296 73.9039 160.332 74.1759 160.332C74.7359 160.332 75.1559 160.188 75.4359 159.9C75.7159 159.62 75.8559 159.204 75.8559 158.652V157.428H75.9639C75.8439 157.868 75.5919 158.216 75.2079 158.472C74.8239 158.728 74.3799 158.856 73.8759 158.856C73.3479 158.856 72.8879 158.736 72.4959 158.496C72.1039 158.248 71.7999 157.908 71.5839 157.476C71.3679 157.036 71.2599 156.524 71.2599 155.94C71.2599 155.5 71.3199 155.104 71.4399 154.752C71.5679 154.4 71.7439 154.096 71.9679 153.84C72.1999 153.584 72.4759 153.388 72.7959 153.252C73.1239 153.108 73.4839 153.036 73.8759 153.036C74.3879 153.036 74.8319 153.164 75.2079 153.42C75.5919 153.676 75.8399 154.024 75.9519 154.464L75.8319 154.668V153.672C75.8319 153.472 75.8839 153.32 75.9879 153.216C76.0999 153.112 76.2479 153.06 76.4319 153.06C76.6239 153.06 76.7719 153.112 76.8759 153.216C76.9799 153.32 77.0319 153.472 77.0319 153.672V158.508C77.0319 159.42 76.7959 160.108 76.3239 160.572C75.8519 161.036 75.1639 161.268 74.2599 161.268ZM74.1639 157.908C74.5159 157.908 74.8159 157.828 75.0639 157.668C75.3119 157.508 75.5039 157.28 75.6399 156.984C75.7759 156.688 75.8439 156.34 75.8439 155.94C75.8439 155.34 75.6919 154.864 75.3879 154.512C75.0919 154.16 74.6839 153.984 74.1639 153.984C73.8199 153.984 73.5239 154.064 73.2759 154.224C73.0279 154.384 72.8319 154.612 72.6879 154.908C72.5519 155.196 72.4839 155.54 72.4839 155.94C72.4839 156.548 72.6359 157.028 72.9399 157.38C73.2439 157.732 73.6519 157.908 74.1639 157.908ZM84.7169 159.084C84.5169 159.084 84.3609 159.028 84.2489 158.916C84.1449 158.804 84.0929 158.648 84.0929 158.448V151.584H81.5489C81.3809 151.584 81.2489 151.54 81.1529 151.452C81.0569 151.356 81.0089 151.224 81.0089 151.056C81.0089 150.888 81.0569 150.76 81.1529 150.672C81.2489 150.584 81.3809 150.54 81.5489 150.54H87.8729C88.0489 150.54 88.1849 150.584 88.2809 150.672C88.3769 150.76 88.4249 150.888 88.4249 151.056C88.4249 151.224 88.3769 151.356 88.2809 151.452C88.1849 151.54 88.0489 151.584 87.8729 151.584H85.3289V158.448C85.3289 158.648 85.2769 158.804 85.1729 158.916C85.0769 159.028 84.9249 159.084 84.7169 159.084ZM90.8511 159.108C90.2591 159.108 89.7471 158.984 89.3151 158.736C88.8911 158.488 88.5591 158.136 88.3191 157.68C88.0791 157.224 87.9591 156.688 87.9591 156.072C87.9591 155.6 88.0271 155.18 88.1631 154.812C88.2991 154.444 88.4911 154.128 88.7391 153.864C88.9951 153.592 89.2991 153.388 89.6511 153.252C90.0111 153.108 90.4111 153.036 90.8511 153.036C91.4351 153.036 91.9391 153.16 92.3631 153.408C92.7951 153.656 93.1311 154.008 93.3711 154.464C93.6111 154.912 93.7311 155.448 93.7311 156.072C93.7311 156.536 93.6631 156.956 93.5271 157.332C93.3911 157.708 93.1951 158.028 92.9391 158.292C92.6911 158.556 92.3871 158.76 92.0271 158.904C91.6751 159.04 91.2831 159.108 90.8511 159.108ZM90.8511 158.172C91.1791 158.172 91.4671 158.092 91.7151 157.932C91.9631 157.772 92.1551 157.536 92.2911 157.224C92.4351 156.912 92.5071 156.528 92.5071 156.072C92.5071 155.384 92.3551 154.864 92.0511 154.512C91.7471 154.16 91.3471 153.984 90.8511 153.984C90.5151 153.984 90.2231 154.064 89.9751 154.224C89.7271 154.376 89.5311 154.608 89.3871 154.92C89.2511 155.232 89.1831 155.616 89.1831 156.072C89.1831 156.752 89.3351 157.272 89.6391 157.632C89.9431 157.992 90.3471 158.172 90.8511 158.172ZM97.6362 159.108C97.0442 159.108 96.5322 158.984 96.1002 158.736C95.6762 158.488 95.3442 158.136 95.1042 157.68C94.8642 157.224 94.7442 156.688 94.7442 156.072C94.7442 155.6 94.8122 155.18 94.9482 154.812C95.0842 154.444 95.2762 154.128 95.5242 153.864C95.7802 153.592 96.0842 153.388 96.4362 153.252C96.7962 153.108 97.1962 153.036 97.6362 153.036C98.2202 153.036 98.7242 153.16 99.1482 153.408C99.5802 153.656 99.9162 154.008 100.156 154.464C100.396 154.912 100.516 155.448 100.516 156.072C100.516 156.536 100.448 156.956 100.312 157.332C100.176 157.708 99.9802 158.028 99.7242 158.292C99.4762 158.556 99.1722 158.76 98.8122 158.904C98.4602 159.04 98.0682 159.108 97.6362 159.108ZM97.6362 158.172C97.9642 158.172 98.2522 158.092 98.5002 157.932C98.7482 157.772 98.9402 157.536 99.0762 157.224C99.2202 156.912 99.2922 156.528 99.2922 156.072C99.2922 155.384 99.1402 154.864 98.8362 154.512C98.5322 154.16 98.1322 153.984 97.6362 153.984C97.3002 153.984 97.0082 154.064 96.7602 154.224C96.5122 154.376 96.3162 154.608 96.1722 154.92C96.0362 155.232 95.9682 155.616 95.9682 156.072C95.9682 156.752 96.1202 157.272 96.4242 157.632C96.7282 157.992 97.1322 158.172 97.6362 158.172ZM103.761 159.108C103.137 159.108 102.665 158.928 102.345 158.568C102.033 158.2 101.877 157.672 101.877 156.984V151.068C101.877 150.868 101.929 150.716 102.033 150.612C102.137 150.508 102.285 150.456 102.477 150.456C102.669 150.456 102.817 150.508 102.921 150.612C103.033 150.716 103.089 150.868 103.089 151.068V156.912C103.089 157.312 103.169 157.612 103.329 157.812C103.497 158.004 103.737 158.1 104.049 158.1C104.121 158.1 104.185 158.1 104.241 158.1C104.297 158.092 104.353 158.084 104.409 158.076C104.505 158.068 104.573 158.096 104.613 158.16C104.653 158.216 104.673 158.336 104.673 158.52C104.673 158.688 104.637 158.82 104.565 158.916C104.493 159.004 104.377 159.06 104.217 159.084C104.145 159.092 104.069 159.096 103.989 159.096C103.909 159.104 103.833 159.108 103.761 159.108ZM107.912 159.108C107.432 159.108 107.028 159.024 106.7 158.856C106.372 158.688 106.128 158.44 105.968 158.112C105.808 157.784 105.728 157.384 105.728 156.912V154.08H105.008C104.848 154.08 104.724 154.04 104.636 153.96C104.548 153.872 104.504 153.756 104.504 153.612C104.504 153.46 104.548 153.344 104.636 153.264C104.724 153.184 104.848 153.144 105.008 153.144H105.728V151.908C105.728 151.708 105.78 151.556 105.884 151.452C105.996 151.348 106.148 151.296 106.34 151.296C106.532 151.296 106.68 151.348 106.784 151.452C106.888 151.556 106.94 151.708 106.94 151.908V153.144H108.344C108.504 153.144 108.628 153.184 108.716 153.264C108.804 153.344 108.848 153.46 108.848 153.612C108.848 153.756 108.804 153.872 108.716 153.96C108.628 154.04 108.504 154.08 108.344 154.08H106.94V156.816C106.94 157.24 107.028 157.56 107.204 157.776C107.388 157.992 107.684 158.1 108.092 158.1C108.236 158.1 108.36 158.088 108.464 158.064C108.576 158.032 108.668 158.012 108.74 158.004C108.828 158.004 108.9 158.036 108.956 158.1C109.012 158.156 109.04 158.268 109.04 158.436C109.04 158.556 109.016 158.668 108.968 158.772C108.928 158.876 108.852 158.944 108.74 158.976C108.644 159.008 108.512 159.036 108.344 159.06C108.184 159.092 108.04 159.108 107.912 159.108ZM110.505 159.072C110.313 159.072 110.165 159.016 110.061 158.904C109.957 158.784 109.905 158.62 109.905 158.412V153.732C109.905 153.524 109.957 153.364 110.061 153.252C110.165 153.14 110.313 153.084 110.505 153.084C110.697 153.084 110.845 153.14 110.949 153.252C111.061 153.364 111.117 153.524 111.117 153.732V158.412C111.117 158.62 111.065 158.784 110.961 158.904C110.857 159.016 110.705 159.072 110.505 159.072ZM110.505 151.836C110.265 151.836 110.077 151.776 109.941 151.656C109.813 151.536 109.749 151.368 109.749 151.152C109.749 150.928 109.813 150.76 109.941 150.648C110.077 150.528 110.265 150.468 110.505 150.468C110.745 150.468 110.929 150.528 111.057 150.648C111.193 150.76 111.261 150.928 111.261 151.152C111.261 151.368 111.193 151.536 111.057 151.656C110.929 151.776 110.745 151.836 110.505 151.836ZM113.423 161.244C113.231 161.244 113.083 161.192 112.979 161.088C112.875 160.984 112.823 160.832 112.823 160.632V153.672C112.823 153.472 112.875 153.32 112.979 153.216C113.083 153.112 113.227 153.06 113.411 153.06C113.603 153.06 113.751 153.112 113.855 153.216C113.959 153.32 114.011 153.472 114.011 153.672V154.716L113.879 154.464C114.007 154.032 114.259 153.688 114.635 153.432C115.011 153.168 115.455 153.036 115.967 153.036C116.487 153.036 116.939 153.16 117.323 153.408C117.715 153.656 118.015 154.004 118.223 154.452C118.439 154.9 118.547 155.44 118.547 156.072C118.547 156.688 118.439 157.228 118.223 157.692C118.015 158.148 117.719 158.5 117.335 158.748C116.951 158.988 116.495 159.108 115.967 159.108C115.463 159.108 115.023 158.98 114.647 158.724C114.271 158.468 114.019 158.128 113.891 157.704H114.035V160.632C114.035 160.832 113.979 160.984 113.867 161.088C113.763 161.192 113.615 161.244 113.423 161.244ZM115.667 158.172C116.003 158.172 116.295 158.092 116.543 157.932C116.791 157.772 116.983 157.536 117.119 157.224C117.255 156.912 117.323 156.528 117.323 156.072C117.323 155.384 117.171 154.864 116.867 154.512C116.571 154.16 116.171 153.984 115.667 153.984C115.339 153.984 115.047 154.064 114.791 154.224C114.543 154.376 114.351 154.608 114.215 154.92C114.079 155.232 114.011 155.616 114.011 156.072C114.011 156.752 114.163 157.272 114.467 157.632C114.771 157.992 115.171 158.172 115.667 158.172ZM125.897 159.084C125.697 159.084 125.541 159.028 125.429 158.916C125.325 158.804 125.273 158.648 125.273 158.448V151.584H122.729C122.561 151.584 122.429 151.54 122.333 151.452C122.237 151.356 122.189 151.224 122.189 151.056C122.189 150.888 122.237 150.76 122.333 150.672C122.429 150.584 122.561 150.54 122.729 150.54H129.053C129.229 150.54 129.365 150.584 129.461 150.672C129.557 150.76 129.605 150.888 129.605 151.056C129.605 151.224 129.557 151.356 129.461 151.452C129.365 151.54 129.229 151.584 129.053 151.584H126.509V158.448C126.509 158.648 126.457 158.804 126.353 158.916C126.257 159.028 126.105 159.084 125.897 159.084ZM132.235 159.108C131.595 159.108 131.043 158.988 130.579 158.748C130.123 158.5 129.767 158.152 129.511 157.704C129.263 157.248 129.139 156.708 129.139 156.084C129.139 155.476 129.263 154.944 129.511 154.488C129.759 154.032 130.099 153.676 130.531 153.42C130.963 153.164 131.455 153.036 132.007 153.036C132.415 153.036 132.779 153.104 133.099 153.24C133.419 153.368 133.691 153.56 133.915 153.816C134.147 154.064 134.319 154.368 134.431 154.728C134.551 155.088 134.611 155.492 134.611 155.94C134.611 156.076 134.571 156.18 134.491 156.252C134.411 156.316 134.291 156.348 134.131 156.348H130.099V155.604H133.795L133.591 155.772C133.591 155.372 133.531 155.032 133.411 154.752C133.299 154.472 133.127 154.26 132.895 154.116C132.671 153.964 132.391 153.888 132.055 153.888C131.679 153.888 131.359 153.976 131.095 154.152C130.839 154.328 130.643 154.572 130.507 154.884C130.371 155.196 130.303 155.56 130.303 155.976V156.048C130.303 156.752 130.467 157.284 130.795 157.644C131.131 157.996 131.615 158.172 132.247 158.172C132.487 158.172 132.739 158.14 133.003 158.076C133.275 158.012 133.531 157.904 133.771 157.752C133.907 157.672 134.027 157.636 134.131 157.644C134.243 157.652 134.331 157.688 134.395 157.752C134.467 157.816 134.511 157.896 134.527 157.992C134.543 158.088 134.527 158.188 134.479 158.292C134.431 158.388 134.347 158.476 134.227 158.556C133.955 158.74 133.639 158.88 133.279 158.976C132.919 159.064 132.571 159.108 132.235 159.108ZM136.089 159.072C135.945 159.072 135.825 159.032 135.729 158.952C135.641 158.864 135.593 158.756 135.585 158.628C135.585 158.5 135.641 158.36 135.753 158.208L137.781 155.676V156.276L135.885 153.912C135.757 153.768 135.697 153.632 135.705 153.504C135.713 153.368 135.765 153.26 135.861 153.18C135.957 153.1 136.073 153.06 136.209 153.06C136.361 153.06 136.485 153.088 136.581 153.144C136.685 153.192 136.781 153.276 136.869 153.396L138.465 155.424H138.033L139.641 153.396C139.729 153.276 139.821 153.192 139.917 153.144C140.021 153.088 140.145 153.06 140.289 153.06C140.433 153.06 140.549 153.104 140.637 153.192C140.733 153.272 140.781 153.38 140.781 153.516C140.789 153.644 140.733 153.78 140.613 153.924L138.717 156.252V155.712L140.745 158.208C140.865 158.352 140.921 158.492 140.913 158.628C140.913 158.756 140.865 158.864 140.769 158.952C140.673 159.032 140.553 159.072 140.409 159.072C140.265 159.072 140.141 159.044 140.037 158.988C139.941 158.932 139.845 158.848 139.749 158.736L138.033 156.576H138.441L136.737 158.736C136.649 158.84 136.553 158.924 136.449 158.988C136.353 159.044 136.233 159.072 136.089 159.072ZM144.791 159.108C144.311 159.108 143.907 159.024 143.579 158.856C143.251 158.688 143.007 158.44 142.847 158.112C142.687 157.784 142.607 157.384 142.607 156.912V154.08H141.887C141.727 154.08 141.603 154.04 141.515 153.96C141.427 153.872 141.383 153.756 141.383 153.612C141.383 153.46 141.427 153.344 141.515 153.264C141.603 153.184 141.727 153.144 141.887 153.144H142.607V151.908C142.607 151.708 142.659 151.556 142.763 151.452C142.875 151.348 143.027 151.296 143.219 151.296C143.411 151.296 143.559 151.348 143.663 151.452C143.767 151.556 143.819 151.708 143.819 151.908V153.144H145.223C145.383 153.144 145.507 153.184 145.595 153.264C145.683 153.344 145.727 153.46 145.727 153.612C145.727 153.756 145.683 153.872 145.595 153.96C145.507 154.04 145.383 154.08 145.223 154.08H143.819V156.816C143.819 157.24 143.907 157.56 144.083 157.776C144.267 157.992 144.563 158.1 144.971 158.1C145.115 158.1 145.239 158.088 145.343 158.064C145.455 158.032 145.547 158.012 145.619 158.004C145.707 158.004 145.779 158.036 145.835 158.1C145.891 158.156 145.919 158.268 145.919 158.436C145.919 158.556 145.895 158.668 145.847 158.772C145.807 158.876 145.731 158.944 145.619 158.976C145.523 159.008 145.391 159.036 145.223 159.06C145.063 159.092 144.919 159.108 144.791 159.108ZM151.546 160.992C151.082 160.184 150.742 159.348 150.526 158.484C150.31 157.612 150.202 156.732 150.202 155.844C150.202 155.252 150.25 154.664 150.346 154.08C150.442 153.496 150.586 152.92 150.778 152.352C150.978 151.784 151.234 151.232 151.546 150.696C151.618 150.568 151.714 150.492 151.834 150.468C151.962 150.436 152.078 150.444 152.182 150.492C152.294 150.54 152.374 150.624 152.422 150.744C152.478 150.864 152.474 151.016 152.41 151.2C152.202 151.72 152.03 152.236 151.894 152.748C151.766 153.26 151.666 153.772 151.594 154.284C151.53 154.788 151.498 155.308 151.498 155.844C151.498 156.372 151.53 156.892 151.594 157.404C151.666 157.916 151.77 158.428 151.906 158.94C152.05 159.444 152.218 159.96 152.41 160.488C152.474 160.672 152.478 160.824 152.422 160.944C152.374 161.064 152.294 161.148 152.182 161.196C152.078 161.244 151.962 161.252 151.834 161.22C151.714 161.188 151.618 161.112 151.546 160.992ZM154.497 159.084C154.305 159.084 154.157 159.032 154.053 158.928C153.949 158.816 153.897 158.664 153.897 158.472V153.672C153.897 153.472 153.949 153.32 154.053 153.216C154.157 153.112 154.301 153.06 154.485 153.06C154.677 153.06 154.821 153.112 154.917 153.216C155.021 153.32 155.073 153.472 155.073 153.672V154.656L154.941 154.392C155.101 153.968 155.349 153.636 155.685 153.396C156.021 153.156 156.425 153.036 156.897 153.036C157.385 153.036 157.781 153.152 158.085 153.384C158.389 153.616 158.597 153.972 158.709 154.452H158.541C158.693 154.012 158.953 153.668 159.321 153.42C159.689 153.164 160.117 153.036 160.605 153.036C161.053 153.036 161.421 153.124 161.709 153.3C161.997 153.468 162.213 153.728 162.357 154.08C162.501 154.424 162.573 154.86 162.573 155.388V158.472C162.573 158.664 162.517 158.816 162.405 158.928C162.301 159.032 162.153 159.084 161.961 159.084C161.769 159.084 161.621 159.032 161.517 158.928C161.413 158.816 161.361 158.664 161.361 158.472V155.448C161.361 154.952 161.273 154.588 161.097 154.356C160.929 154.124 160.649 154.008 160.257 154.008C159.817 154.008 159.469 154.16 159.213 154.464C158.957 154.768 158.829 155.188 158.829 155.724V158.472C158.829 158.664 158.777 158.816 158.673 158.928C158.569 159.032 158.421 159.084 158.229 159.084C158.037 159.084 157.885 159.032 157.773 158.928C157.669 158.816 157.617 158.664 157.617 158.472V155.448C157.617 154.952 157.533 154.588 157.365 154.356C157.197 154.124 156.917 154.008 156.525 154.008C156.085 154.008 155.737 154.16 155.481 154.464C155.233 154.768 155.109 155.188 155.109 155.724V158.472C155.109 158.88 154.905 159.084 154.497 159.084ZM166.14 159.108C165.732 159.108 165.364 159.028 165.036 158.868C164.716 158.708 164.464 158.492 164.28 158.22C164.096 157.948 164.004 157.64 164.004 157.296C164.004 156.864 164.112 156.524 164.328 156.276C164.552 156.02 164.916 155.84 165.42 155.736C165.932 155.624 166.62 155.568 167.484 155.568H168.048V156.312H167.496C166.92 156.312 166.464 156.34 166.128 156.396C165.792 156.452 165.552 156.548 165.408 156.684C165.272 156.812 165.204 156.992 165.204 157.224C165.204 157.528 165.308 157.776 165.516 157.968C165.724 158.152 166.012 158.244 166.38 158.244C166.676 158.244 166.936 158.176 167.16 158.04C167.384 157.896 167.56 157.704 167.688 157.464C167.824 157.224 167.892 156.948 167.892 156.636V155.256C167.892 154.8 167.796 154.472 167.604 154.272C167.412 154.072 167.096 153.972 166.656 153.972C166.4 153.972 166.132 154.004 165.852 154.068C165.58 154.132 165.296 154.24 165 154.392C164.864 154.456 164.748 154.476 164.652 154.452C164.556 154.428 164.48 154.376 164.424 154.296C164.368 154.208 164.336 154.116 164.328 154.02C164.328 153.916 164.352 153.816 164.4 153.72C164.456 153.624 164.548 153.552 164.676 153.504C165.028 153.336 165.376 153.216 165.72 153.144C166.064 153.072 166.388 153.036 166.692 153.036C167.228 153.036 167.668 153.12 168.012 153.288C168.364 153.456 168.624 153.712 168.792 154.056C168.96 154.4 169.044 154.844 169.044 155.388V158.472C169.044 158.664 168.996 158.816 168.9 158.928C168.804 159.032 168.664 159.084 168.48 159.084C168.304 159.084 168.164 159.032 168.06 158.928C167.956 158.816 167.904 158.664 167.904 158.472V157.692H168.012C167.948 157.988 167.828 158.244 167.652 158.46C167.484 158.668 167.272 158.828 167.016 158.94C166.76 159.052 166.468 159.108 166.14 159.108ZM170.917 159.072C170.773 159.072 170.653 159.032 170.557 158.952C170.469 158.864 170.421 158.756 170.413 158.628C170.413 158.5 170.469 158.36 170.581 158.208L172.609 155.676V156.276L170.713 153.912C170.585 153.768 170.525 153.632 170.533 153.504C170.541 153.368 170.593 153.26 170.689 153.18C170.785 153.1 170.901 153.06 171.037 153.06C171.189 153.06 171.313 153.088 171.409 153.144C171.513 153.192 171.609 153.276 171.697 153.396L173.293 155.424H172.861L174.469 153.396C174.557 153.276 174.649 153.192 174.745 153.144C174.849 153.088 174.973 153.06 175.117 153.06C175.261 153.06 175.377 153.104 175.465 153.192C175.561 153.272 175.609 153.38 175.609 153.516C175.617 153.644 175.561 153.78 175.441 153.924L173.545 156.252V155.712L175.573 158.208C175.693 158.352 175.749 158.492 175.741 158.628C175.741 158.756 175.693 158.864 175.597 158.952C175.501 159.032 175.381 159.072 175.237 159.072C175.093 159.072 174.969 159.044 174.865 158.988C174.769 158.932 174.673 158.848 174.577 158.736L172.861 156.576H173.269L171.565 158.736C171.477 158.84 171.381 158.924 171.277 158.988C171.181 159.044 171.061 159.072 170.917 159.072ZM182.904 159.108C182.456 159.108 182 159.048 181.536 158.928C181.072 158.8 180.668 158.612 180.324 158.364C180.196 158.284 180.108 158.188 180.06 158.076C180.02 157.956 180.012 157.848 180.036 157.752C180.06 157.648 180.108 157.56 180.18 157.488C180.26 157.416 180.356 157.376 180.468 157.368C180.58 157.352 180.704 157.384 180.84 157.464C181.184 157.672 181.52 157.824 181.848 157.92C182.176 158.008 182.516 158.052 182.868 158.052C183.252 158.052 183.576 157.996 183.84 157.884C184.104 157.772 184.3 157.608 184.428 157.392C184.564 157.176 184.632 156.916 184.632 156.612C184.632 156.156 184.48 155.816 184.176 155.592C183.88 155.36 183.448 155.244 182.88 155.244H182.064C181.88 155.244 181.74 155.2 181.644 155.112C181.548 155.016 181.5 154.884 181.5 154.716C181.5 154.556 181.548 154.432 181.644 154.344C181.74 154.248 181.88 154.2 182.064 154.2H182.76C183.104 154.2 183.396 154.144 183.636 154.032C183.876 153.912 184.06 153.748 184.188 153.54C184.324 153.324 184.392 153.064 184.392 152.76C184.392 152.352 184.256 152.04 183.984 151.824C183.72 151.6 183.332 151.488 182.82 151.488C182.492 151.488 182.18 151.532 181.884 151.62C181.596 151.708 181.296 151.864 180.984 152.088C180.864 152.168 180.748 152.204 180.636 152.196C180.532 152.18 180.44 152.14 180.36 152.076C180.288 152.004 180.236 151.916 180.204 151.812C180.18 151.708 180.188 151.6 180.228 151.488C180.268 151.376 180.348 151.28 180.468 151.2C180.804 150.952 181.184 150.764 181.608 150.636C182.032 150.5 182.468 150.432 182.916 150.432C183.476 150.432 183.956 150.52 184.356 150.696C184.764 150.872 185.072 151.124 185.28 151.452C185.496 151.78 185.604 152.172 185.604 152.628C185.604 152.972 185.54 153.284 185.412 153.564C185.284 153.844 185.1 154.084 184.86 154.284C184.628 154.476 184.344 154.612 184.008 154.692V154.56C184.592 154.656 185.044 154.896 185.364 155.28C185.684 155.656 185.844 156.128 185.844 156.696C185.844 157.192 185.724 157.624 185.484 157.992C185.252 158.352 184.916 158.628 184.476 158.82C184.036 159.012 183.512 159.108 182.904 159.108ZM190.363 159.108C189.923 159.108 189.479 159.048 189.031 158.928C188.583 158.8 188.175 158.604 187.807 158.34C187.687 158.268 187.607 158.176 187.567 158.064C187.527 157.952 187.519 157.844 187.543 157.74C187.567 157.628 187.615 157.536 187.687 157.464C187.767 157.392 187.863 157.352 187.975 157.344C188.087 157.328 188.207 157.36 188.335 157.44C188.647 157.64 188.967 157.792 189.295 157.896C189.631 158 189.979 158.052 190.339 158.052C190.707 158.052 191.023 157.984 191.287 157.848C191.551 157.712 191.751 157.524 191.887 157.284C192.031 157.036 192.103 156.748 192.103 156.42C192.103 155.916 191.955 155.504 191.659 155.184C191.363 154.864 190.951 154.704 190.423 154.704C190.119 154.704 189.835 154.76 189.571 154.872C189.307 154.976 189.055 155.152 188.815 155.4C188.759 155.464 188.683 155.524 188.587 155.58C188.499 155.628 188.399 155.652 188.287 155.652C188.119 155.652 187.991 155.608 187.903 155.52C187.815 155.432 187.771 155.312 187.771 155.16V151.092C187.771 150.916 187.819 150.78 187.915 150.684C188.011 150.588 188.147 150.54 188.323 150.54H192.343C192.519 150.54 192.655 150.584 192.751 150.672C192.847 150.76 192.895 150.888 192.895 151.056C192.895 151.224 192.847 151.356 192.751 151.452C192.655 151.54 192.519 151.584 192.343 151.584H188.983V154.632H188.647C188.863 154.328 189.147 154.092 189.499 153.924C189.859 153.756 190.255 153.672 190.687 153.672C191.223 153.672 191.687 153.784 192.079 154.008C192.471 154.232 192.775 154.548 192.991 154.956C193.207 155.356 193.315 155.824 193.315 156.36C193.315 156.904 193.195 157.384 192.955 157.8C192.715 158.208 192.375 158.528 191.935 158.76C191.495 158.992 190.971 159.108 190.363 159.108ZM197.426 159.108C196.442 159.108 195.69 158.736 195.17 157.992C194.658 157.24 194.402 156.164 194.402 154.764C194.402 153.812 194.518 153.016 194.75 152.376C194.982 151.736 195.322 151.252 195.77 150.924C196.218 150.596 196.77 150.432 197.426 150.432C198.418 150.432 199.17 150.8 199.682 151.536C200.194 152.264 200.45 153.336 200.45 154.752C200.45 155.688 200.334 156.48 200.102 157.128C199.87 157.776 199.53 158.268 199.082 158.604C198.634 158.94 198.082 159.108 197.426 159.108ZM197.426 158.076C198.042 158.076 198.494 157.808 198.782 157.272C199.078 156.728 199.226 155.888 199.226 154.752C199.226 153.608 199.078 152.776 198.782 152.256C198.494 151.728 198.042 151.464 197.426 151.464C196.818 151.464 196.366 151.728 196.07 152.256C195.774 152.776 195.626 153.608 195.626 154.752C195.626 155.888 195.774 156.728 196.07 157.272C196.366 157.808 196.818 158.076 197.426 158.076ZM202.473 161.244C202.281 161.244 202.133 161.192 202.029 161.088C201.925 160.984 201.873 160.832 201.873 160.632V153.672C201.873 153.472 201.925 153.32 202.029 153.216C202.133 153.112 202.277 153.06 202.461 153.06C202.653 153.06 202.801 153.112 202.905 153.216C203.009 153.32 203.061 153.472 203.061 153.672V154.716L202.929 154.464C203.057 154.032 203.309 153.688 203.685 153.432C204.061 153.168 204.505 153.036 205.017 153.036C205.537 153.036 205.989 153.16 206.373 153.408C206.765 153.656 207.065 154.004 207.273 154.452C207.489 154.9 207.597 155.44 207.597 156.072C207.597 156.688 207.489 157.228 207.273 157.692C207.065 158.148 206.769 158.5 206.385 158.748C206.001 158.988 205.545 159.108 205.017 159.108C204.513 159.108 204.073 158.98 203.697 158.724C203.321 158.468 203.069 158.128 202.941 157.704H203.085V160.632C203.085 160.832 203.029 160.984 202.917 161.088C202.813 161.192 202.665 161.244 202.473 161.244ZM204.717 158.172C205.053 158.172 205.345 158.092 205.593 157.932C205.841 157.772 206.033 157.536 206.169 157.224C206.305 156.912 206.373 156.528 206.373 156.072C206.373 155.384 206.221 154.864 205.917 154.512C205.621 154.16 205.221 153.984 204.717 153.984C204.389 153.984 204.097 154.064 203.841 154.224C203.593 154.376 203.401 154.608 203.265 154.92C203.129 155.232 203.061 155.616 203.061 156.072C203.061 156.752 203.213 157.272 203.517 157.632C203.821 157.992 204.221 158.172 204.717 158.172ZM209.027 159.072C208.883 159.072 208.763 159.032 208.667 158.952C208.579 158.864 208.531 158.756 208.523 158.628C208.523 158.5 208.579 158.36 208.691 158.208L210.719 155.676V156.276L208.823 153.912C208.695 153.768 208.635 153.632 208.643 153.504C208.651 153.368 208.703 153.26 208.799 153.18C208.895 153.1 209.011 153.06 209.147 153.06C209.299 153.06 209.423 153.088 209.519 153.144C209.623 153.192 209.719 153.276 209.807 153.396L211.403 155.424H210.971L212.579 153.396C212.667 153.276 212.759 153.192 212.855 153.144C212.959 153.088 213.083 153.06 213.227 153.06C213.371 153.06 213.487 153.104 213.575 153.192C213.671 153.272 213.719 153.38 213.719 153.516C213.727 153.644 213.671 153.78 213.551 153.924L211.655 156.252V155.712L213.683 158.208C213.803 158.352 213.859 158.492 213.851 158.628C213.851 158.756 213.803 158.864 213.707 158.952C213.611 159.032 213.491 159.072 213.347 159.072C213.203 159.072 213.079 159.044 212.975 158.988C212.879 158.932 212.783 158.848 212.687 158.736L210.971 156.576H211.379L209.675 158.736C209.587 158.84 209.491 158.924 209.387 158.988C209.291 159.044 209.171 159.072 209.027 159.072ZM215.857 160.992C215.785 161.112 215.685 161.188 215.557 161.22C215.437 161.252 215.321 161.244 215.209 161.196C215.097 161.148 215.017 161.064 214.969 160.944C214.921 160.824 214.929 160.672 214.993 160.488C215.209 159.96 215.381 159.444 215.509 158.94C215.637 158.428 215.733 157.916 215.797 157.404C215.869 156.892 215.905 156.372 215.905 155.844C215.905 155.308 215.869 154.788 215.797 154.284C215.725 153.772 215.621 153.264 215.485 152.76C215.357 152.248 215.193 151.728 214.993 151.2C214.929 151.016 214.921 150.864 214.969 150.744C215.025 150.624 215.109 150.54 215.221 150.492C215.333 150.444 215.449 150.436 215.569 150.468C215.689 150.492 215.785 150.568 215.857 150.696C216.321 151.496 216.661 152.332 216.877 153.204C217.093 154.068 217.201 154.948 217.201 155.844C217.201 156.436 217.149 157.028 217.045 157.62C216.949 158.204 216.805 158.78 216.613 159.348C216.421 159.916 216.169 160.464 215.857 160.992Z" fill="white"/>
</g>
<path d="M1.25631e-06 155L6.75 150.67L6.75 159.33L1.25631e-06 155Z" fill="#64728C"/>
<g filter="url(#filter4_d_1147_10719)">
<mask id="path-17-inside-5_1147_10719" fill="white">
<path d="M6 81C6 74.3726 11.3726 69 18 69H91C97.6274 69 103 74.3726 103 81V91C103 97.6274 97.6274 103 91 103H18C11.3726 103 6 97.6274 6 91V81Z"/>
</mask>
<path d="M6 81C6 74.3726 11.3726 69 18 69H91C97.6274 69 103 74.3726 103 81V91C103 97.6274 97.6274 103 91 103H18C11.3726 103 6 97.6274 6 91V81Z" fill="#64728C" shape-rendering="crispEdges"/>
<path d="M6 69H103H6ZM103 91C103 98.732 96.732 105 89 105H20C12.268 105 6 98.732 6 91C6 96.5228 11.3726 101 18 101H91C97.6274 101 103 96.5228 103 91ZM6 103V69V103ZM103 69V103V69Z" fill="#435069" mask="url(#path-17-inside-5_1147_10719)"/>
<path d="M25.672 90.084C25.472 90.084 25.316 90.028 25.204 89.916C25.1 89.804 25.048 89.648 25.048 89.448V82.584H22.504C22.336 82.584 22.204 82.54 22.108 82.452C22.012 82.356 21.964 82.224 21.964 82.056C21.964 81.888 22.012 81.76 22.108 81.672C22.204 81.584 22.336 81.54 22.504 81.54H28.828C29.004 81.54 29.14 81.584 29.236 81.672C29.332 81.76 29.38 81.888 29.38 82.056C29.38 82.224 29.332 82.356 29.236 82.452C29.14 82.54 29.004 82.584 28.828 82.584H26.284V89.448C26.284 89.648 26.232 89.804 26.128 89.916C26.032 90.028 25.88 90.084 25.672 90.084ZM31.8062 90.108C31.2142 90.108 30.7022 89.984 30.2702 89.736C29.8462 89.488 29.5142 89.136 29.2742 88.68C29.0342 88.224 28.9142 87.688 28.9142 87.072C28.9142 86.6 28.9822 86.18 29.1182 85.812C29.2542 85.444 29.4462 85.128 29.6942 84.864C29.9502 84.592 30.2542 84.388 30.6062 84.252C30.9662 84.108 31.3662 84.036 31.8062 84.036C32.3902 84.036 32.8942 84.16 33.3182 84.408C33.7502 84.656 34.0862 85.008 34.3262 85.464C34.5662 85.912 34.6862 86.448 34.6862 87.072C34.6862 87.536 34.6182 87.956 34.4822 88.332C34.3462 88.708 34.1502 89.028 33.8942 89.292C33.6462 89.556 33.3422 89.76 32.9822 89.904C32.6302 90.04 32.2382 90.108 31.8062 90.108ZM31.8062 89.172C32.1342 89.172 32.4222 89.092 32.6702 88.932C32.9182 88.772 33.1102 88.536 33.2462 88.224C33.3902 87.912 33.4622 87.528 33.4622 87.072C33.4622 86.384 33.3102 85.864 33.0062 85.512C32.7022 85.16 32.3022 84.984 31.8062 84.984C31.4702 84.984 31.1782 85.064 30.9302 85.224C30.6822 85.376 30.4862 85.608 30.3422 85.92C30.2062 86.232 30.1382 86.616 30.1382 87.072C30.1382 87.752 30.2902 88.272 30.5942 88.632C30.8982 88.992 31.3022 89.172 31.8062 89.172ZM38.5913 90.108C37.9993 90.108 37.4873 89.984 37.0553 89.736C36.6313 89.488 36.2993 89.136 36.0593 88.68C35.8193 88.224 35.6993 87.688 35.6993 87.072C35.6993 86.6 35.7673 86.18 35.9033 85.812C36.0393 85.444 36.2313 85.128 36.4793 84.864C36.7353 84.592 37.0393 84.388 37.3913 84.252C37.7513 84.108 38.1513 84.036 38.5913 84.036C39.1753 84.036 39.6793 84.16 40.1033 84.408C40.5353 84.656 40.8713 85.008 41.1113 85.464C41.3513 85.912 41.4713 86.448 41.4713 87.072C41.4713 87.536 41.4033 87.956 41.2673 88.332C41.1313 88.708 40.9353 89.028 40.6793 89.292C40.4313 89.556 40.1273 89.76 39.7673 89.904C39.4153 90.04 39.0233 90.108 38.5913 90.108ZM38.5913 89.172C38.9193 89.172 39.2073 89.092 39.4553 88.932C39.7033 88.772 39.8953 88.536 40.0313 88.224C40.1753 87.912 40.2473 87.528 40.2473 87.072C40.2473 86.384 40.0953 85.864 39.7913 85.512C39.4873 85.16 39.0873 84.984 38.5913 84.984C38.2553 84.984 37.9633 85.064 37.7153 85.224C37.4673 85.376 37.2713 85.608 37.1273 85.92C36.9913 86.232 36.9233 86.616 36.9233 87.072C36.9233 87.752 37.0753 88.272 37.3793 88.632C37.6833 88.992 38.0873 89.172 38.5913 89.172ZM44.7165 90.108C44.0925 90.108 43.6205 89.928 43.3005 89.568C42.9885 89.2 42.8325 88.672 42.8325 87.984V82.068C42.8325 81.868 42.8845 81.716 42.9885 81.612C43.0925 81.508 43.2405 81.456 43.4325 81.456C43.6245 81.456 43.7725 81.508 43.8765 81.612C43.9885 81.716 44.0445 81.868 44.0445 82.068V87.912C44.0445 88.312 44.1245 88.612 44.2845 88.812C44.4525 89.004 44.6925 89.1 45.0045 89.1C45.0765 89.1 45.1405 89.1 45.1965 89.1C45.2525 89.092 45.3085 89.084 45.3645 89.076C45.4605 89.068 45.5285 89.096 45.5685 89.16C45.6085 89.216 45.6285 89.336 45.6285 89.52C45.6285 89.688 45.5925 89.82 45.5205 89.916C45.4485 90.004 45.3325 90.06 45.1725 90.084C45.1005 90.092 45.0245 90.096 44.9445 90.096C44.8645 90.104 44.7885 90.108 44.7165 90.108ZM48.8675 90.108C48.3875 90.108 47.9835 90.024 47.6555 89.856C47.3275 89.688 47.0835 89.44 46.9235 89.112C46.7635 88.784 46.6835 88.384 46.6835 87.912V85.08H45.9635C45.8035 85.08 45.6795 85.04 45.5915 84.96C45.5035 84.872 45.4595 84.756 45.4595 84.612C45.4595 84.46 45.5035 84.344 45.5915 84.264C45.6795 84.184 45.8035 84.144 45.9635 84.144H46.6835V82.908C46.6835 82.708 46.7355 82.556 46.8395 82.452C46.9515 82.348 47.1035 82.296 47.2955 82.296C47.4875 82.296 47.6355 82.348 47.7395 82.452C47.8435 82.556 47.8955 82.708 47.8955 82.908V84.144H49.2995C49.4595 84.144 49.5835 84.184 49.6715 84.264C49.7595 84.344 49.8035 84.46 49.8035 84.612C49.8035 84.756 49.7595 84.872 49.6715 84.96C49.5835 85.04 49.4595 85.08 49.2995 85.08H47.8955V87.816C47.8955 88.24 47.9835 88.56 48.1595 88.776C48.3435 88.992 48.6395 89.1 49.0475 89.1C49.1915 89.1 49.3155 89.088 49.4195 89.064C49.5315 89.032 49.6235 89.012 49.6955 89.004C49.7835 89.004 49.8555 89.036 49.9115 89.1C49.9675 89.156 49.9955 89.268 49.9955 89.436C49.9955 89.556 49.9715 89.668 49.9235 89.772C49.8835 89.876 49.8075 89.944 49.6955 89.976C49.5995 90.008 49.4675 90.036 49.2995 90.06C49.1395 90.092 48.9955 90.108 48.8675 90.108ZM51.4598 90.072C51.2678 90.072 51.1198 90.016 51.0158 89.904C50.9118 89.784 50.8598 89.62 50.8598 89.412V84.732C50.8598 84.524 50.9118 84.364 51.0158 84.252C51.1198 84.14 51.2678 84.084 51.4598 84.084C51.6518 84.084 51.7998 84.14 51.9038 84.252C52.0158 84.364 52.0718 84.524 52.0718 84.732V89.412C52.0718 89.62 52.0198 89.784 51.9158 89.904C51.8118 90.016 51.6598 90.072 51.4598 90.072ZM51.4598 82.836C51.2198 82.836 51.0318 82.776 50.8958 82.656C50.7678 82.536 50.7038 82.368 50.7038 82.152C50.7038 81.928 50.7678 81.76 50.8958 81.648C51.0318 81.528 51.2198 81.468 51.4598 81.468C51.6998 81.468 51.8838 81.528 52.0118 81.648C52.1478 81.76 52.2158 81.928 52.2158 82.152C52.2158 82.368 52.1478 82.536 52.0118 82.656C51.8838 82.776 51.6998 82.836 51.4598 82.836ZM54.3778 92.244C54.1858 92.244 54.0378 92.192 53.9338 92.088C53.8298 91.984 53.7778 91.832 53.7778 91.632V84.672C53.7778 84.472 53.8298 84.32 53.9338 84.216C54.0378 84.112 54.1818 84.06 54.3658 84.06C54.5578 84.06 54.7058 84.112 54.8098 84.216C54.9138 84.32 54.9658 84.472 54.9658 84.672V85.716L54.8338 85.464C54.9618 85.032 55.2138 84.688 55.5898 84.432C55.9658 84.168 56.4098 84.036 56.9218 84.036C57.4418 84.036 57.8938 84.16 58.2778 84.408C58.6698 84.656 58.9698 85.004 59.1778 85.452C59.3938 85.9 59.5018 86.44 59.5018 87.072C59.5018 87.688 59.3938 88.228 59.1778 88.692C58.9698 89.148 58.6738 89.5 58.2898 89.748C57.9058 89.988 57.4498 90.108 56.9218 90.108C56.4178 90.108 55.9778 89.98 55.6018 89.724C55.2258 89.468 54.9738 89.128 54.8458 88.704H54.9898V91.632C54.9898 91.832 54.9338 91.984 54.8218 92.088C54.7178 92.192 54.5698 92.244 54.3778 92.244ZM56.6218 89.172C56.9578 89.172 57.2498 89.092 57.4978 88.932C57.7458 88.772 57.9378 88.536 58.0738 88.224C58.2098 87.912 58.2778 87.528 58.2778 87.072C58.2778 86.384 58.1258 85.864 57.8218 85.512C57.5258 85.16 57.1258 84.984 56.6218 84.984C56.2938 84.984 56.0018 85.064 55.7458 85.224C55.4978 85.376 55.3058 85.608 55.1698 85.92C55.0338 86.232 54.9658 86.616 54.9658 87.072C54.9658 87.752 55.1178 88.272 55.4218 88.632C55.7258 88.992 56.1258 89.172 56.6218 89.172ZM66.8517 90.084C66.6517 90.084 66.4957 90.028 66.3837 89.916C66.2797 89.804 66.2277 89.648 66.2277 89.448V82.584H63.6837C63.5157 82.584 63.3837 82.54 63.2877 82.452C63.1917 82.356 63.1437 82.224 63.1437 82.056C63.1437 81.888 63.1917 81.76 63.2877 81.672C63.3837 81.584 63.5157 81.54 63.6837 81.54H70.0077C70.1837 81.54 70.3197 81.584 70.4157 81.672C70.5117 81.76 70.5597 81.888 70.5597 82.056C70.5597 82.224 70.5117 82.356 70.4157 82.452C70.3197 82.54 70.1837 82.584 70.0077 82.584H67.4637V89.448C67.4637 89.648 67.4117 89.804 67.3077 89.916C67.2117 90.028 67.0597 90.084 66.8517 90.084ZM73.1898 90.108C72.5498 90.108 71.9978 89.988 71.5338 89.748C71.0778 89.5 70.7218 89.152 70.4658 88.704C70.2178 88.248 70.0938 87.708 70.0938 87.084C70.0938 86.476 70.2178 85.944 70.4658 85.488C70.7138 85.032 71.0538 84.676 71.4858 84.42C71.9178 84.164 72.4098 84.036 72.9618 84.036C73.3698 84.036 73.7338 84.104 74.0538 84.24C74.3738 84.368 74.6458 84.56 74.8698 84.816C75.1018 85.064 75.2738 85.368 75.3858 85.728C75.5058 86.088 75.5658 86.492 75.5658 86.94C75.5658 87.076 75.5258 87.18 75.4458 87.252C75.3658 87.316 75.2458 87.348 75.0858 87.348H71.0538V86.604H74.7498L74.5458 86.772C74.5458 86.372 74.4858 86.032 74.3658 85.752C74.2538 85.472 74.0818 85.26 73.8498 85.116C73.6258 84.964 73.3458 84.888 73.0098 84.888C72.6338 84.888 72.3138 84.976 72.0498 85.152C71.7938 85.328 71.5978 85.572 71.4618 85.884C71.3258 86.196 71.2578 86.56 71.2578 86.976V87.048C71.2578 87.752 71.4218 88.284 71.7498 88.644C72.0858 88.996 72.5698 89.172 73.2018 89.172C73.4418 89.172 73.6938 89.14 73.9578 89.076C74.2298 89.012 74.4858 88.904 74.7258 88.752C74.8618 88.672 74.9818 88.636 75.0858 88.644C75.1978 88.652 75.2858 88.688 75.3498 88.752C75.4218 88.816 75.4658 88.896 75.4818 88.992C75.4978 89.088 75.4818 89.188 75.4338 89.292C75.3858 89.388 75.3018 89.476 75.1818 89.556C74.9098 89.74 74.5938 89.88 74.2338 89.976C73.8738 90.064 73.5258 90.108 73.1898 90.108ZM77.0443 90.072C76.9003 90.072 76.7803 90.032 76.6843 89.952C76.5963 89.864 76.5483 89.756 76.5403 89.628C76.5403 89.5 76.5963 89.36 76.7083 89.208L78.7363 86.676V87.276L76.8403 84.912C76.7123 84.768 76.6523 84.632 76.6603 84.504C76.6683 84.368 76.7203 84.26 76.8163 84.18C76.9123 84.1 77.0283 84.06 77.1643 84.06C77.3163 84.06 77.4403 84.088 77.5363 84.144C77.6403 84.192 77.7363 84.276 77.8243 84.396L79.4203 86.424H78.9883L80.5963 84.396C80.6843 84.276 80.7763 84.192 80.8723 84.144C80.9763 84.088 81.1003 84.06 81.2443 84.06C81.3883 84.06 81.5043 84.104 81.5923 84.192C81.6883 84.272 81.7363 84.38 81.7363 84.516C81.7443 84.644 81.6883 84.78 81.5683 84.924L79.6723 87.252V86.712L81.7003 89.208C81.8203 89.352 81.8763 89.492 81.8683 89.628C81.8683 89.756 81.8203 89.864 81.7243 89.952C81.6283 90.032 81.5083 90.072 81.3643 90.072C81.2203 90.072 81.0963 90.044 80.9923 89.988C80.8963 89.932 80.8003 89.848 80.7043 89.736L78.9883 87.576H79.3963L77.6923 89.736C77.6043 89.84 77.5083 89.924 77.4043 89.988C77.3083 90.044 77.1883 90.072 77.0443 90.072ZM85.7464 90.108C85.2664 90.108 84.8624 90.024 84.5344 89.856C84.2064 89.688 83.9624 89.44 83.8024 89.112C83.6424 88.784 83.5624 88.384 83.5624 87.912V85.08H82.8424C82.6824 85.08 82.5584 85.04 82.4704 84.96C82.3824 84.872 82.3384 84.756 82.3384 84.612C82.3384 84.46 82.3824 84.344 82.4704 84.264C82.5584 84.184 82.6824 84.144 82.8424 84.144H83.5624V82.908C83.5624 82.708 83.6144 82.556 83.7184 82.452C83.8304 82.348 83.9824 82.296 84.1744 82.296C84.3664 82.296 84.5144 82.348 84.6184 82.452C84.7224 82.556 84.7744 82.708 84.7744 82.908V84.144H86.1784C86.3384 84.144 86.4624 84.184 86.5504 84.264C86.6384 84.344 86.6824 84.46 86.6824 84.612C86.6824 84.756 86.6384 84.872 86.5504 84.96C86.4624 85.04 86.3384 85.08 86.1784 85.08H84.7744V87.816C84.7744 88.24 84.8624 88.56 85.0384 88.776C85.2224 88.992 85.5184 89.1 85.9264 89.1C86.0704 89.1 86.1944 89.088 86.2984 89.064C86.4104 89.032 86.5024 89.012 86.5744 89.004C86.6624 89.004 86.7344 89.036 86.7904 89.1C86.8464 89.156 86.8744 89.268 86.8744 89.436C86.8744 89.556 86.8504 89.668 86.8024 89.772C86.7624 89.876 86.6864 89.944 86.5744 89.976C86.4784 90.008 86.3464 90.036 86.1784 90.06C86.0184 90.092 85.8744 90.108 85.7464 90.108Z" fill="white"/>
</g>
<path d="M109 86L101.5 90.3301L101.5 81.6699L109 86Z" fill="#64728C"/>
<defs>
<filter id="filter0_d_1147_10719" x="2" y="6" width="105" height="42" filterUnits="userSpaceOnUse" color-interpolation-filters="sRGB">
<feFlood flood-opacity="0" result="BackgroundImageFix"/>
<feColorMatrix in="SourceAlpha" type="matrix" values="0 0 0 0 0 0 0 0 0 0 0 0 0 0 0 0 0 0 127 0" result="hardAlpha"/>
<feOffset dy="4"/>
<feGaussianBlur stdDeviation="2"/>
<feComposite in2="hardAlpha" operator="out"/>
<feColorMatrix type="matrix" values="0 0 0 0 0 0 0 0 0 0 0 0 0 0 0 0 0 0 0.06 0"/>
<feBlend mode="normal" in2="BackgroundImageFix" result="effect1_dropShadow_1147_10719"/>
<feBlend mode="normal" in="SourceGraphic" in2="effect1_dropShadow_1147_10719" result="shape"/>
</filter>
<filter id="filter1_d_1147_10719" x="132" y="6" width="105" height="42" filterUnits="userSpaceOnUse" color-interpolation-filters="sRGB">
<feFlood flood-opacity="0" result="BackgroundImageFix"/>
<feColorMatrix in="SourceAlpha" type="matrix" values="0 0 0 0 0 0 0 0 0 0 0 0 0 0 0 0 0 0 127 0" result="hardAlpha"/>
<feOffset dy="4"/>
<feGaussianBlur stdDeviation="2"/>
<feComposite in2="hardAlpha" operator="out"/>
<feColorMatrix type="matrix" values="0 0 0 0 0 0 0 0 0 0 0 0 0 0 0 0 0 0 0.06 0"/>
<feBlend mode="normal" in2="BackgroundImageFix" result="effect1_dropShadow_1147_10719"/>
<feBlend mode="normal" in="SourceGraphic" in2="effect1_dropShadow_1147_10719" result="shape"/>
</filter>
<filter id="filter2_d_1147_10719" x="132" y="69" width="105" height="42" filterUnits="userSpaceOnUse" color-interpolation-filters="sRGB">
<feFlood flood-opacity="0" result="BackgroundImageFix"/>
<feColorMatrix in="SourceAlpha" type="matrix" values="0 0 0 0 0 0 0 0 0 0 0 0 0 0 0 0 0 0 127 0" result="hardAlpha"/>
<feOffset dy="4"/>
<feGaussianBlur stdDeviation="2"/>
<feComposite in2="hardAlpha" operator="out"/>
<feColorMatrix type="matrix" values="0 0 0 0 0 0 0 0 0 0 0 0 0 0 0 0 0 0 0.06 0"/>
<feBlend mode="normal" in2="BackgroundImageFix" result="effect1_dropShadow_1147_10719"/>
<feBlend mode="normal" in="SourceGraphic" in2="effect1_dropShadow_1147_10719" result="shape"/>
</filter>
<filter id="filter3_d_1147_10719" x="2.13477" y="138" width="237" height="42" filterUnits="userSpaceOnUse" color-interpolation-filters="sRGB">
<feFlood flood-opacity="0" result="BackgroundImageFix"/>
<feColorMatrix in="SourceAlpha" type="matrix" values="0 0 0 0 0 0 0 0 0 0 0 0 0 0 0 0 0 0 127 0" result="hardAlpha"/>
<feOffset dy="4"/>
<feGaussianBlur stdDeviation="2"/>
<feComposite in2="hardAlpha" operator="out"/>
<feColorMatrix type="matrix" values="0 0 0 0 0 0 0 0 0 0 0 0 0 0 0 0 0 0 0.06 0"/>
<feBlend mode="normal" in2="BackgroundImageFix" result="effect1_dropShadow_1147_10719"/>
<feBlend mode="normal" in="SourceGraphic" in2="effect1_dropShadow_1147_10719" result="shape"/>
</filter>
<filter id="filter4_d_1147_10719" x="2" y="69" width="105" height="42" filterUnits="userSpaceOnUse" color-interpolation-filters="sRGB">
<feFlood flood-opacity="0" result="BackgroundImageFix"/>
<feColorMatrix in="SourceAlpha" type="matrix" values="0 0 0 0 0 0 0 0 0 0 0 0 0 0 0 0 0 0 127 0" result="hardAlpha"/>
<feOffset dy="4"/>
<feGaussianBlur stdDeviation="2"/>
<feComposite in2="hardAlpha" operator="out"/>
<feColorMatrix type="matrix" values="0 0 0 0 0 0 0 0 0 0 0 0 0 0 0 0 0 0 0.06 0"/>
<feBlend mode="normal" in2="BackgroundImageFix" result="effect1_dropShadow_1147_10719"/>
<feBlend mode="normal" in="SourceGraphic" in2="effect1_dropShadow_1147_10719" result="shape"/>
</filter>
</defs>
</svg>
