<svg width="171" height="148" viewBox="0 0 171 148" fill="none" xmlns="http://www.w3.org/2000/svg">
<g filter="url(#filter0_b_1083_8998)">
<rect width="151" height="115" transform="translate(5 33)" fill="white" fill-opacity="0.5"/>
<path d="M14 39C14 30.1634 21.1634 23 30 23H131C139.837 23 147 30.1634 147 39V125C147 133.837 139.837 141 131 141H30C21.1634 141 14 133.837 14 125V39Z" fill="#E8EAEF" fill-opacity="0.75"/>
<g clip-path="url(#clip0_1083_8998)" filter="url(#filter1_d_1083_8998)">
<path d="M108.37 29.3507C109.12 25.5583 112.803 23.0923 116.595 23.8428L136.967 27.8743L133.475 45.5225C132.724 49.315 129.042 51.7809 125.249 51.0304L111.744 48.3578C107.952 47.6073 105.486 43.9245 106.236 40.1321L108.37 29.3507Z" fill="#EBF2FF"/>
<path d="M126.247 22.4501L128.044 13.3705L115.559 10.8999C113.679 10.5277 111.853 11.7505 111.48 13.6309L105.641 43.1398C105.269 45.0196 106.491 46.8463 108.372 47.2185L128.801 51.2613C130.682 51.6334 132.508 50.4107 132.88 48.5302L137.147 26.9661L128.131 25.1819C126.812 24.9208 125.998 23.7057 126.247 22.4501ZM128.753 31.202L130.411 31.53C130.959 31.6384 131.263 32.2279 131.034 32.7369L125.439 45.1928C125.278 45.559 124.876 45.7669 124.486 45.6897L122.41 45.2789C122.025 45.2028 121.739 44.8778 121.713 44.4861L121.154 36.2659L117.522 43.5892C117.273 43.9969 116.945 44.1975 116.562 44.1217L114.484 43.7104C114.088 43.6319 113.798 43.2901 113.785 42.8862L113.356 29.2382C113.342 28.6828 113.848 28.2523 114.395 28.3605L116.053 28.6886C116.449 28.767 116.739 29.1088 116.751 29.5124L116.988 37.1295L120.407 30.2063C120.581 29.85 120.972 29.6621 121.355 29.7379L123.455 30.1535C123.84 30.2297 124.126 30.5547 124.153 30.9463L124.677 38.6511L127.8 31.6988C127.961 31.3326 128.299 31.1121 128.753 31.202ZM130.314 13.8197L128.517 22.8993L137.596 24.6961L130.314 13.8197Z" fill="#015AED"/>
</g>
<g clip-path="url(#clip1_1083_8998)">
<path d="M53 42.0689C53 38.2029 56.134 35.0688 60 35.0688H84V55.7438C84 59.6098 80.866 62.7438 77 62.7438H60C56.134 62.7438 53 59.6098 53 55.7438V42.0689Z" fill="#FFE9DF"/>
<path d="M84 32.25H73.6667V22L84 32.25ZM73.6667 34.8125H84V59.1562C84 61.2791 82.2651 63 80.125 63H56.875C54.7349 63 53 61.2783 53 59.1562V25.8438C53 23.7209 54.7349 22 56.875 22H71.0833L71.0836 32.25C71.0833 33.6674 72.2378 34.8125 73.6667 34.8125ZM58.1667 29.0469C58.1667 29.3976 58.4597 29.6875 58.8125 29.6875H65.2708C65.626 29.6875 65.9167 29.3976 65.9167 29.0469V27.7656C65.9167 27.4157 65.626 27.125 65.2708 27.125H58.8125C58.4597 27.125 58.1667 27.4157 58.1667 27.7656V29.0469ZM58.8125 34.8125H65.2708C65.626 34.8125 65.9167 34.5242 65.9167 34.1719V32.8906C65.9167 32.5383 65.626 32.25 65.2708 32.25H58.8125C58.4597 32.25 58.1667 32.5383 58.1667 32.8906V34.1719C58.1667 34.5242 58.4597 34.8125 58.8125 34.8125ZM68.944 47.3687L68.4273 47.2406C66.5867 46.6801 66.6271 46.3518 66.6917 46.0635C66.8027 45.4379 68.031 45.2852 69.1353 45.4529C69.5869 45.5205 70.0823 45.6781 70.5554 45.8408C71.3941 46.1286 72.3177 45.6856 72.6099 44.8526C72.9026 44.0166 72.4573 43.1037 71.6145 42.813C71.0317 42.6141 70.5562 42.4865 70.1162 42.3908V41.8594C70.1162 40.9761 69.3934 40.2578 68.5016 40.2578C67.6098 40.2578 66.887 40.976 66.887 41.8594V42.3392C65.0771 42.7242 63.8016 43.8453 63.5109 45.5189C62.9131 48.9495 66.1903 49.9032 67.5894 50.3108L68.0586 50.446C70.4223 51.1166 70.3836 51.3421 70.3125 51.7497C70.2015 52.3752 68.9732 52.5304 67.8656 52.3603C67.3055 52.2777 66.5893 52.0224 65.9556 51.7972L65.5948 51.6671C64.7544 51.3793 63.8325 51.8122 63.5346 52.6457C63.2382 53.4793 63.6784 54.3946 64.5195 54.6901L64.8639 54.8102C65.4902 55.0335 66.1862 55.2578 66.887 55.4117V55.9531C66.887 56.8364 67.6097 57.5547 68.5015 57.5547C69.3933 57.5547 70.1161 56.8365 70.1161 55.9531V55.4523C71.9212 55.0685 73.2008 53.9685 73.493 52.2948C74.0945 48.8262 70.7443 47.8732 68.944 47.3687Z" fill="#FE5000"/>
</g>
<g clip-path="url(#clip2_1083_8998)" filter="url(#filter2_d_1083_8998)">
<path d="M90.1872 34.077C90.5935 30.2324 94.0395 27.4451 97.8841 27.8514L116.142 29.7808L114.539 44.9493C114.133 48.7939 110.687 51.5812 106.842 51.1749L95.5455 49.9811C91.7009 49.5748 88.9136 46.1288 89.3199 42.2842L90.1872 34.077Z" fill="#FFF8D6"/>
<path d="M108.905 17.8275L108.039 26.0237L116.445 26.912L108.905 17.8275ZM105.937 25.8016L106.803 17.6054L95.2447 16.3839C93.5036 16.1999 91.9469 17.4268 91.7675 19.1244L88.9525 45.762C88.7732 47.4589 90.0391 48.9847 91.7801 49.1687L110.694 51.1675C112.435 51.3515 113.992 50.1246 114.172 48.4271L116.229 28.9611L107.881 28.079C106.66 27.9499 105.818 26.935 105.937 25.8016ZM98.604 34.8683C98.5742 35.1501 98.3134 35.3556 98.0244 35.3251L97.499 35.2695C96.9145 35.2078 96.4002 35.6131 96.34 36.183L96.1234 38.2321C96.0632 38.802 96.4815 39.3059 97.066 39.3677L97.5914 39.4232C97.8803 39.4537 98.0924 39.7092 98.0626 39.991L97.9544 41.0155C97.9246 41.2972 97.6638 41.5028 97.3748 41.4722L96.8494 41.4167C95.1091 41.2328 93.8425 39.7069 94.0218 38.01L94.2384 35.9609C94.4177 34.2641 95.9752 33.0366 97.7156 33.2205L98.241 33.276C98.5299 33.3066 98.742 33.5621 98.7122 33.8438L98.604 34.8683ZM100.81 41.8352L100.002 41.7498C99.7145 41.7195 99.501 41.4622 99.5306 41.182L99.6388 40.1575C99.6686 39.8758 99.9294 39.6702 100.218 39.7008L101.023 39.7858C101.417 39.8274 101.728 39.6337 101.749 39.4336C101.758 39.3536 101.718 39.2603 101.636 39.1707L100.326 37.8183C99.8283 37.2963 99.5755 36.6091 99.6479 35.924C99.7914 34.5665 101.157 33.5842 102.694 33.7466L103.495 33.8312C103.782 33.8616 103.996 34.1189 103.966 34.399L103.858 35.4235C103.828 35.7053 103.567 35.9108 103.278 35.8803L102.477 35.7956C102.083 35.754 101.772 35.9477 101.751 36.1478C101.742 36.2278 101.782 36.3211 101.864 36.4107L103.174 37.7631C103.675 38.2855 103.926 38.9757 103.854 39.6557C103.705 41.0146 102.34 41.9969 100.81 41.8352ZM109.079 36.2861L109.22 34.9542C109.25 34.6725 109.511 34.467 109.8 34.4975L110.851 34.6085C111.139 34.6391 111.352 34.8946 111.322 35.1763L111.181 36.505C110.941 38.7782 109.869 40.8339 108.164 42.2808C107.948 42.4666 107.653 42.5584 107.357 42.5271C107.062 42.4959 106.795 42.3464 106.62 42.1174C105.257 40.3497 104.636 38.1151 104.876 35.8419L105.017 34.5101C105.047 34.2283 105.308 34.0228 105.597 34.0533L106.647 34.1644C106.936 34.1949 107.148 34.4504 107.119 34.7322L106.978 36.0608C106.84 37.3658 107.083 38.6781 107.644 39.8141C108.433 38.8207 108.942 37.586 109.079 36.2861Z" fill="#FFAA00"/>
</g>
<g clip-path="url(#clip3_1083_8998)" filter="url(#filter3_d_1083_8998)">
<path d="M58.4633 29.5552C58.1974 25.6984 61.1085 22.3563 64.9654 22.0904L91.7146 20.2468L93.3127 43.433C93.5785 47.2898 90.6674 50.6319 86.8106 50.8977L67.0448 52.2601C63.188 52.5259 59.8459 49.6148 59.58 45.758L58.4633 29.5552Z" fill="#FFD6EA"/>
<path d="M74.4151 25.3688C74.3886 24.9842 74.0512 24.6922 73.6642 24.7188C73.2771 24.7455 72.9831 25.0816 73.0096 25.4657C73.022 25.6457 73.1759 27.4987 74.1149 29.797C74.2349 29.03 74.5246 26.9576 74.4151 25.3688ZM79.4884 6.77518L80.2586 17.9491L91.5028 17.1741L79.4884 6.77518ZM66.5692 44.7148C66.6273 45.5578 67.5609 45.6964 67.8708 45.1843C68.2589 44.5545 69.0125 43.2834 69.8884 41.5214C68.6872 42.3032 67.5988 43.1975 66.7189 44.223C66.6104 44.3524 66.5565 44.5315 66.5692 44.7148ZM77.4475 18.1429L76.6774 6.96893L61.2166 8.03457C58.8878 8.19508 57.1293 10.2012 57.2888 12.5154L59.7918 48.8307C59.9513 51.1441 61.9685 52.8909 64.2972 52.7303L89.5967 50.9866C91.9255 50.8261 93.684 48.8199 93.5245 46.5057L91.6954 19.9676L80.5302 20.7372C78.8963 20.8498 77.554 19.688 77.4475 18.1429ZM84.5281 33.7937C86.6593 33.6468 88.5121 35.2505 88.6581 37.3683C88.8065 39.5219 87.259 41.3241 85.1341 41.4705C84.6075 41.5068 84.0909 41.4588 83.6045 41.3299C81.8016 40.8614 80.1369 40.169 78.6477 39.2691C76.5807 39.8597 74.7236 40.5501 73.1133 41.3259C72.004 43.71 70.9638 45.5219 70.2698 46.6451C69.602 47.6108 68.6467 48.2204 67.517 48.2983C65.5826 48.4316 63.9007 46.9775 63.7684 45.057C63.6966 44.0164 63.9656 43.1295 64.5729 42.4132C65.8948 40.8731 67.6692 39.4816 69.8499 38.2735C70.7447 36.2094 71.5002 34.1215 72.0982 32.0542C70.423 28.6612 70.2009 25.6943 70.1985 25.6594C70.0658 23.7345 71.5346 22.0589 73.4716 21.9254C75.4095 21.7918 77.0935 23.2501 77.2261 25.175C77.3711 27.2789 76.9267 30.0856 76.8178 30.6965C76.7491 30.9883 76.6783 31.2777 76.6056 31.564C77.3804 32.7789 78.3242 33.8321 79.4207 34.7073C81.9978 34.0909 83.8523 33.849 84.1416 33.8203L84.5281 33.7937ZM72.8814 38.3329C74.4218 37.6567 75.9864 37.1155 77.4388 36.6865C76.2752 35.7089 75.3401 34.6278 74.5914 33.5357C74.0648 35.2692 73.4785 36.8796 72.8814 38.3329ZM84.9442 38.6768C85.48 38.6399 85.8892 38.1732 85.8525 37.6407C85.8073 36.9859 85.3005 36.5472 84.7207 36.5872L84.3693 36.6114C84.3393 36.6162 82.8967 36.7979 80.8006 37.274C81.8328 37.8168 82.9988 38.2794 84.3216 38.6206C84.5113 38.6716 84.7333 38.6914 84.9442 38.6768Z" fill="#EE3939"/>
</g>
<g clip-path="url(#clip4_1083_8998)" filter="url(#filter4_d_1083_8998)">
<path d="M23.1903 30.7916C22.2972 27.0302 24.6225 23.257 28.3839 22.3639L59.1941 15.0484L65.6163 42.0965C66.5094 45.858 64.1842 49.6312 60.4228 50.5243L36.4232 56.2227C32.6618 57.1158 28.8885 54.7905 27.9954 51.0291L23.1903 30.7916Z" fill="#F5FAE5"/>
<path d="M42.7097 15.3633L39.7224 2.78153L22.4795 6.87562C19.8823 7.49229 18.2784 10.1046 18.8971 12.7104L28.6061 53.6013C29.2246 56.2061 31.8318 57.8196 34.429 57.2029L62.6446 50.5035C65.2419 49.8868 66.8457 47.2745 66.227 44.6687L59.132 14.7869L46.6798 17.7435C44.8576 18.1762 43.1228 17.1032 42.7097 15.3633ZM50.6056 27.652L47.7509 36.5952L54.4086 43.2809C55.3056 44.1779 54.871 45.7037 53.6464 45.9944L51.057 46.6092C50.5126 46.7385 49.9404 46.575 49.5439 46.1776L45.8295 42.4509L44.1897 47.4485C44.0167 47.9797 43.5749 48.3857 43.0361 48.5137L40.4399 49.1301C39.2133 49.4214 38.1414 48.2502 38.5353 47.0498L41.4808 38.0839L34.8224 31.3994C33.9261 30.5012 34.3607 28.9754 35.5854 28.6847L38.1748 28.0699C38.7192 27.9406 39.2913 28.1041 39.6878 28.5011L43.4023 32.2282L45.0418 27.2296C45.215 26.6994 45.6568 26.2933 46.1956 26.1654L48.785 25.5506C50.0165 25.2582 51.0906 26.4257 50.6056 27.652ZM42.8574 2.03715L45.8448 14.619L58.3851 11.6415L42.8574 2.03715Z" fill="#35A41C"/>
</g>
<g filter="url(#filter5_bd_1083_8998)">
<g clip-path="url(#clip5_1083_8998)">
<rect x="4" y="33" width="152" height="113" rx="14" fill="#E8EAEF" fill-opacity="0.5" shape-rendering="crispEdges"/>
<g filter="url(#filter6_bdd_1083_8998)">
<rect x="4" y="37" width="152" height="109" rx="14" fill="white" fill-opacity="0.7" shape-rendering="crispEdges"/>
<rect x="4" y="37" width="152" height="109" rx="14" fill="url(#paint0_linear_1083_8998)" fill-opacity="0.1" shape-rendering="crispEdges"/>
<rect x="4.5" y="37.5" width="151" height="108" rx="13.5" stroke="url(#paint1_linear_1083_8998)" stroke-opacity="0.2" shape-rendering="crispEdges"/>
<path d="M78.95 85.55C79.1 85.7 79.25 85.85 79.4 85.85C79.55 86 79.85 86 80 86C80.15 86 80.45 86 80.6 85.85C80.75 85.7 80.9 85.7 81.05 85.55L87.05 79.55C87.65 78.95 87.65 78.05 87.05 77.45C86.45 76.85 85.55 76.85 84.95 77.45L81.5 80.9V69.5C81.5 68.6 80.9 68 80 68C79.1 68 78.5 68.6 78.5 69.5V80.9L75.05 77.45C74.45 76.85 73.55 76.85 72.95 77.45C72.35 78.05 72.35 78.95 72.95 79.55L78.95 85.55Z" fill="#64728C"/>
<path d="M90.5 81.5C89.6 81.5 89 82.1 89 83V86C89 87.65 87.65 89 86 89H74C72.35 89 71 87.65 71 86V83C71 82.1 70.4 81.5 69.5 81.5C68.6 81.5 68 82.1 68 83V86C68 89.3 70.7 92 74 92H86C89.3 92 92 89.3 92 86V83C92 82.1 91.4 81.5 90.5 81.5Z" fill="#64728C"/>
<path d="M30.596 117C30.34 117 30.152 116.944 30.032 116.832C29.92 116.712 29.864 116.54 29.864 116.316C29.864 116.18 29.9 116.048 29.972 115.92C30.044 115.792 30.148 115.656 30.284 115.512L32.696 112.944C33.064 112.56 33.328 112.212 33.488 111.9C33.648 111.58 33.728 111.26 33.728 110.94C33.728 110.54 33.6 110.236 33.344 110.028C33.096 109.82 32.732 109.716 32.252 109.716C31.98 109.716 31.708 109.756 31.436 109.836C31.164 109.908 30.888 110.036 30.608 110.22C30.464 110.316 30.328 110.356 30.2 110.34C30.08 110.324 29.972 110.272 29.876 110.184C29.788 110.096 29.728 109.988 29.696 109.86C29.664 109.732 29.668 109.604 29.708 109.476C29.756 109.34 29.852 109.224 29.996 109.128C30.34 108.896 30.724 108.72 31.148 108.6C31.58 108.48 32.012 108.42 32.444 108.42C33.052 108.42 33.564 108.512 33.98 108.696C34.396 108.88 34.712 109.148 34.928 109.5C35.144 109.852 35.252 110.28 35.252 110.784C35.252 111.12 35.196 111.448 35.084 111.768C34.98 112.088 34.816 112.412 34.592 112.74C34.376 113.068 34.092 113.416 33.74 113.784L31.484 116.136V115.728H35.012C35.228 115.728 35.392 115.78 35.504 115.884C35.616 115.988 35.672 116.144 35.672 116.352C35.672 116.56 35.616 116.72 35.504 116.832C35.392 116.944 35.228 117 35.012 117H30.596ZM39.8673 117.12C39.4433 117.12 39.0113 117.064 38.5713 116.952C38.1313 116.84 37.7273 116.668 37.3593 116.436C37.2073 116.34 37.1033 116.228 37.0473 116.1C36.9993 115.964 36.9873 115.832 37.0113 115.704C37.0433 115.568 37.1033 115.456 37.1913 115.368C37.2873 115.272 37.3993 115.216 37.5273 115.2C37.6633 115.184 37.8113 115.22 37.9713 115.308C38.2673 115.476 38.5673 115.604 38.8713 115.692C39.1753 115.78 39.4993 115.824 39.8433 115.824C40.1793 115.824 40.4673 115.764 40.7073 115.644C40.9473 115.524 41.1313 115.356 41.2593 115.14C41.3873 114.924 41.4513 114.672 41.4513 114.384C41.4513 113.936 41.3153 113.576 41.0433 113.304C40.7713 113.024 40.3993 112.884 39.9273 112.884C39.6713 112.884 39.4233 112.928 39.1833 113.016C38.9433 113.096 38.7073 113.24 38.4753 113.448C38.4033 113.512 38.3113 113.576 38.1993 113.64C38.0873 113.696 37.9673 113.724 37.8393 113.724C37.6393 113.724 37.4873 113.672 37.3833 113.568C37.2793 113.464 37.2273 113.32 37.2273 113.136V109.212C37.2273 108.996 37.2833 108.832 37.3953 108.72C37.5153 108.6 37.6833 108.54 37.8993 108.54H41.8473C42.0633 108.54 42.2273 108.596 42.3393 108.708C42.4593 108.812 42.5193 108.968 42.5193 109.176C42.5193 109.376 42.4593 109.532 42.3393 109.644C42.2273 109.756 42.0633 109.812 41.8473 109.812H38.7273V112.5H38.3313C38.5393 112.22 38.8153 112.004 39.1593 111.852C39.5033 111.7 39.8793 111.624 40.2873 111.624C40.8233 111.624 41.2873 111.74 41.6793 111.972C42.0793 112.196 42.3873 112.512 42.6033 112.92C42.8273 113.32 42.9393 113.788 42.9393 114.324C42.9393 114.876 42.8153 115.364 42.5673 115.788C42.3193 116.204 41.9633 116.532 41.4993 116.772C41.0433 117.004 40.4993 117.12 39.8673 117.12ZM48.3644 117.096C48.1164 117.096 47.9204 117.028 47.7764 116.892C47.6404 116.748 47.5724 116.544 47.5724 116.28V109.356C47.5724 109.092 47.6404 108.892 47.7764 108.756C47.9204 108.612 48.1244 108.54 48.3884 108.54H52.5764C52.7844 108.54 52.9404 108.592 53.0444 108.696C53.1484 108.8 53.2004 108.948 53.2004 109.14C53.2004 109.34 53.1484 109.496 53.0444 109.608C52.9404 109.712 52.7844 109.764 52.5764 109.764H49.1084V112.152H52.3244C52.5244 112.152 52.6764 112.204 52.7804 112.308C52.8924 112.412 52.9484 112.56 52.9484 112.752C52.9484 112.952 52.8924 113.108 52.7804 113.22C52.6764 113.324 52.5244 113.376 52.3244 113.376H49.1084V116.28C49.1084 116.824 48.8604 117.096 48.3644 117.096ZM55.3912 117.084C55.1512 117.084 54.9672 117.012 54.8392 116.868C54.7112 116.724 54.6472 116.524 54.6472 116.268V111.864C54.6472 111.6 54.7112 111.4 54.8392 111.264C54.9672 111.12 55.1512 111.048 55.3912 111.048C55.6312 111.048 55.8152 111.12 55.9432 111.264C56.0792 111.4 56.1472 111.6 56.1472 111.864V116.268C56.1472 116.524 56.0832 116.724 55.9552 116.868C55.8272 117.012 55.6392 117.084 55.3912 117.084ZM55.3912 109.932C55.1112 109.932 54.8912 109.864 54.7312 109.728C54.5792 109.584 54.5032 109.388 54.5032 109.14C54.5032 108.884 54.5792 108.688 54.7312 108.552C54.8912 108.416 55.1112 108.348 55.3912 108.348C55.6792 108.348 55.8992 108.416 56.0512 108.552C56.2032 108.688 56.2792 108.884 56.2792 109.14C56.2792 109.388 56.2032 109.584 56.0512 109.728C55.8992 109.864 55.6792 109.932 55.3912 109.932ZM59.7098 117.12C59.0458 117.12 58.5458 116.932 58.2098 116.556C57.8738 116.172 57.7058 115.612 57.7058 114.876V109.2C57.7058 108.952 57.7698 108.764 57.8978 108.636C58.0258 108.508 58.2098 108.444 58.4498 108.444C58.6898 108.444 58.8738 108.508 59.0018 108.636C59.1378 108.764 59.2058 108.952 59.2058 109.2V114.804C59.2058 115.172 59.2818 115.444 59.4338 115.62C59.5938 115.796 59.8178 115.884 60.1058 115.884C60.1698 115.884 60.2298 115.884 60.2858 115.884C60.3418 115.876 60.3978 115.868 60.4538 115.86C60.5658 115.844 60.6418 115.876 60.6818 115.956C60.7218 116.028 60.7418 116.18 60.7418 116.412C60.7418 116.612 60.7018 116.768 60.6218 116.88C60.5418 116.992 60.4098 117.06 60.2258 117.084C60.1458 117.092 60.0618 117.1 59.9738 117.108C59.8858 117.116 59.7978 117.12 59.7098 117.12ZM64.3712 117.12C63.7072 117.12 63.1352 116.996 62.6552 116.748C62.1752 116.5 61.8032 116.148 61.5392 115.692C61.2832 115.236 61.1552 114.696 61.1552 114.072C61.1552 113.464 61.2792 112.932 61.5272 112.476C61.7832 112.02 62.1312 111.664 62.5712 111.408C63.0192 111.144 63.5272 111.012 64.0952 111.012C64.5112 111.012 64.8832 111.08 65.2112 111.216C65.5472 111.352 65.8312 111.548 66.0632 111.804C66.3032 112.06 66.4832 112.372 66.6032 112.74C66.7312 113.1 66.7952 113.508 66.7952 113.964C66.7952 114.108 66.7432 114.22 66.6392 114.3C66.5432 114.372 66.4032 114.408 66.2192 114.408H62.3672V113.544H65.7392L65.5472 113.724C65.5472 113.356 65.4912 113.048 65.3792 112.8C65.2752 112.552 65.1192 112.364 64.9112 112.236C64.7112 112.1 64.4592 112.032 64.1552 112.032C63.8192 112.032 63.5312 112.112 63.2912 112.272C63.0592 112.424 62.8792 112.644 62.7512 112.932C62.6312 113.212 62.5712 113.548 62.5712 113.94V114.024C62.5712 114.68 62.7232 115.172 63.0272 115.5C63.3392 115.82 63.7952 115.98 64.3952 115.98C64.6032 115.98 64.8352 115.956 65.0912 115.908C65.3552 115.852 65.6032 115.76 65.8352 115.632C66.0032 115.536 66.1512 115.496 66.2792 115.512C66.4072 115.52 66.5072 115.564 66.5792 115.644C66.6592 115.724 66.7072 115.824 66.7232 115.944C66.7392 116.056 66.7152 116.172 66.6512 116.292C66.5952 116.412 66.4952 116.516 66.3512 116.604C66.0712 116.78 65.7472 116.912 65.3792 117C65.0192 117.08 64.6832 117.12 64.3712 117.12ZM70.1311 117.12C69.7871 117.12 69.4231 117.084 69.0391 117.012C68.6551 116.94 68.3111 116.816 68.0071 116.64C67.8791 116.56 67.7871 116.468 67.7311 116.364C67.6831 116.252 67.6631 116.144 67.6711 116.04C67.6871 115.928 67.7271 115.832 67.7911 115.752C67.8631 115.672 67.9511 115.62 68.0551 115.596C68.1671 115.572 68.2871 115.592 68.4151 115.656C68.7351 115.808 69.0351 115.916 69.3151 115.98C69.5951 116.036 69.8711 116.064 70.1431 116.064C70.5271 116.064 70.8111 116 70.9951 115.872C71.1871 115.736 71.2831 115.56 71.2831 115.344C71.2831 115.16 71.2191 115.02 71.0911 114.924C70.9711 114.82 70.7871 114.744 70.5391 114.696L69.3391 114.468C68.8431 114.372 68.4631 114.192 68.1991 113.928C67.9431 113.656 67.8151 113.308 67.8151 112.884C67.8151 112.5 67.9191 112.168 68.1271 111.888C68.3431 111.608 68.6391 111.392 69.0151 111.24C69.3911 111.088 69.8231 111.012 70.3111 111.012C70.6631 111.012 70.9911 111.052 71.2951 111.132C71.6071 111.204 71.9071 111.32 72.1951 111.48C72.3151 111.544 72.3951 111.628 72.4351 111.732C72.4831 111.836 72.4951 111.944 72.4711 112.056C72.4471 112.16 72.3991 112.256 72.3271 112.344C72.2551 112.424 72.1631 112.476 72.0511 112.5C71.9471 112.516 71.8271 112.492 71.6911 112.428C71.4431 112.3 71.2031 112.208 70.9711 112.152C70.7471 112.096 70.5311 112.068 70.3231 112.068C69.9311 112.068 69.6391 112.136 69.4471 112.272C69.2631 112.408 69.1711 112.588 69.1711 112.812C69.1711 112.98 69.2271 113.12 69.3391 113.232C69.4511 113.344 69.6231 113.42 69.8551 113.46L71.0551 113.688C71.5751 113.784 71.9671 113.96 72.2311 114.216C72.5031 114.472 72.6391 114.816 72.6391 115.248C72.6391 115.832 72.4111 116.292 71.9551 116.628C71.4991 116.956 70.8911 117.12 70.1311 117.12ZM80.7603 117.12C80.1763 117.12 79.6603 117.044 79.2123 116.892C78.7723 116.74 78.4003 116.516 78.0963 116.22C77.7923 115.916 77.5643 115.54 77.4123 115.092C77.2603 114.644 77.1843 114.124 77.1843 113.532V109.224C77.1843 108.96 77.2483 108.764 77.3763 108.636C77.5123 108.508 77.7043 108.444 77.9523 108.444C78.2003 108.444 78.3883 108.508 78.5163 108.636C78.6523 108.764 78.7203 108.96 78.7203 109.224V113.52C78.7203 114.28 78.8923 114.852 79.2363 115.236C79.5883 115.612 80.0963 115.8 80.7603 115.8C81.4243 115.8 81.9283 115.612 82.2723 115.236C82.6163 114.852 82.7883 114.28 82.7883 113.52V109.224C82.7883 108.96 82.8523 108.764 82.9803 108.636C83.1163 108.508 83.3083 108.444 83.5563 108.444C83.7963 108.444 83.9803 108.508 84.1083 108.636C84.2443 108.764 84.3123 108.96 84.3123 109.224V113.532C84.3123 114.316 84.1763 114.976 83.9043 115.512C83.6403 116.048 83.2443 116.452 82.7163 116.724C82.1883 116.988 81.5363 117.12 80.7603 117.12ZM86.7037 119.256C86.4637 119.256 86.2797 119.192 86.1517 119.064C86.0237 118.936 85.9597 118.748 85.9597 118.5V111.792C85.9597 111.544 86.0237 111.356 86.1517 111.228C86.2797 111.1 86.4597 111.036 86.6917 111.036C86.9317 111.036 87.1157 111.1 87.2437 111.228C87.3717 111.356 87.4357 111.544 87.4357 111.792V112.728L87.3037 112.368C87.4237 111.96 87.6677 111.632 88.0357 111.384C88.4117 111.136 88.8477 111.012 89.3437 111.012C89.8557 111.012 90.3037 111.136 90.6877 111.384C91.0797 111.632 91.3837 111.984 91.5997 112.44C91.8157 112.888 91.9237 113.428 91.9237 114.06C91.9237 114.684 91.8157 115.228 91.5997 115.692C91.3837 116.148 91.0837 116.5 90.6997 116.748C90.3157 116.996 89.8637 117.12 89.3437 117.12C88.8557 117.12 88.4277 117 88.0597 116.76C87.6917 116.512 87.4437 116.192 87.3157 115.8H87.4597V118.5C87.4597 118.748 87.3917 118.936 87.2557 119.064C87.1277 119.192 86.9437 119.256 86.7037 119.256ZM88.9237 115.98C89.2197 115.98 89.4797 115.908 89.7037 115.764C89.9277 115.62 90.0997 115.408 90.2197 115.128C90.3477 114.84 90.4117 114.484 90.4117 114.06C90.4117 113.42 90.2757 112.944 90.0037 112.632C89.7317 112.312 89.3717 112.152 88.9237 112.152C88.6277 112.152 88.3677 112.224 88.1437 112.368C87.9197 112.504 87.7437 112.716 87.6157 113.004C87.4957 113.284 87.4357 113.636 87.4357 114.06C87.4357 114.692 87.5717 115.172 87.8437 115.5C88.1157 115.82 88.4757 115.98 88.9237 115.98ZM95.159 117.12C94.495 117.12 93.995 116.932 93.659 116.556C93.323 116.172 93.155 115.612 93.155 114.876V109.2C93.155 108.952 93.219 108.764 93.347 108.636C93.475 108.508 93.659 108.444 93.899 108.444C94.139 108.444 94.323 108.508 94.451 108.636C94.587 108.764 94.655 108.952 94.655 109.2V114.804C94.655 115.172 94.731 115.444 94.883 115.62C95.043 115.796 95.267 115.884 95.555 115.884C95.619 115.884 95.679 115.884 95.735 115.884C95.791 115.876 95.847 115.868 95.903 115.86C96.015 115.844 96.091 115.876 96.131 115.956C96.171 116.028 96.191 116.18 96.191 116.412C96.191 116.612 96.151 116.768 96.071 116.88C95.991 116.992 95.859 117.06 95.675 117.084C95.595 117.092 95.511 117.1 95.423 117.108C95.335 117.116 95.247 117.12 95.159 117.12ZM99.6044 117.12C98.9964 117.12 98.4684 116.996 98.0204 116.748C97.5724 116.5 97.2244 116.148 96.9764 115.692C96.7284 115.228 96.6044 114.684 96.6044 114.06C96.6044 113.588 96.6724 113.168 96.8084 112.8C96.9524 112.424 97.1564 112.104 97.4204 111.84C97.6844 111.568 98.0004 111.364 98.3684 111.228C98.7364 111.084 99.1484 111.012 99.6044 111.012C100.212 111.012 100.74 111.136 101.188 111.384C101.636 111.632 101.984 111.984 102.232 112.44C102.48 112.896 102.604 113.436 102.604 114.06C102.604 114.532 102.532 114.956 102.388 115.332C102.252 115.708 102.052 116.032 101.788 116.304C101.524 116.568 101.208 116.772 100.84 116.916C100.472 117.052 100.06 117.12 99.6044 117.12ZM99.6044 115.98C99.9004 115.98 100.16 115.908 100.384 115.764C100.608 115.62 100.78 115.408 100.9 115.128C101.028 114.84 101.092 114.484 101.092 114.06C101.092 113.42 100.956 112.944 100.684 112.632C100.412 112.312 100.052 112.152 99.6044 112.152C99.3084 112.152 99.0484 112.224 98.8244 112.368C98.6004 112.504 98.4244 112.716 98.2964 113.004C98.1764 113.284 98.1164 113.636 98.1164 114.06C98.1164 114.692 98.2524 115.172 98.5244 115.5C98.7964 115.82 99.1564 115.98 99.6044 115.98ZM105.775 117.12C105.351 117.12 104.971 117.04 104.635 116.88C104.307 116.712 104.047 116.488 103.854 116.208C103.671 115.928 103.579 115.612 103.579 115.26C103.579 114.828 103.691 114.488 103.915 114.24C104.139 113.984 104.503 113.8 105.007 113.688C105.511 113.576 106.187 113.52 107.035 113.52H107.635V114.384H107.047C106.551 114.384 106.155 114.408 105.859 114.456C105.563 114.504 105.351 114.588 105.223 114.708C105.103 114.82 105.043 114.98 105.043 115.188C105.043 115.452 105.135 115.668 105.319 115.836C105.503 116.004 105.759 116.088 106.087 116.088C106.351 116.088 106.583 116.028 106.783 115.908C106.991 115.78 107.155 115.608 107.275 115.392C107.395 115.176 107.455 114.928 107.455 114.648V113.268C107.455 112.868 107.367 112.58 107.191 112.404C107.015 112.228 106.719 112.14 106.303 112.14C106.071 112.14 105.819 112.168 105.547 112.224C105.283 112.28 105.003 112.376 104.707 112.512C104.555 112.584 104.419 112.604 104.299 112.572C104.187 112.54 104.099 112.476 104.035 112.38C103.971 112.276 103.939 112.164 103.939 112.044C103.939 111.924 103.971 111.808 104.035 111.696C104.099 111.576 104.207 111.488 104.359 111.432C104.727 111.28 105.079 111.172 105.415 111.108C105.759 111.044 106.071 111.012 106.351 111.012C106.927 111.012 107.399 111.1 107.767 111.276C108.143 111.452 108.423 111.72 108.607 112.08C108.791 112.432 108.883 112.888 108.883 113.448V116.328C108.883 116.576 108.823 116.768 108.703 116.904C108.583 117.032 108.411 117.096 108.187 117.096C107.963 117.096 107.787 117.032 107.659 116.904C107.539 116.768 107.479 116.576 107.479 116.328V115.752H107.575C107.519 116.032 107.407 116.276 107.239 116.484C107.079 116.684 106.875 116.84 106.627 116.952C106.379 117.064 106.095 117.12 105.775 117.12ZM112.661 117.12C112.149 117.12 111.697 116.996 111.305 116.748C110.921 116.5 110.621 116.148 110.405 115.692C110.189 115.228 110.081 114.684 110.081 114.06C110.081 113.428 110.189 112.888 110.405 112.44C110.621 111.984 110.921 111.632 111.305 111.384C111.697 111.136 112.149 111.012 112.661 111.012C113.149 111.012 113.573 111.132 113.933 111.372C114.301 111.612 114.549 111.928 114.677 112.32H114.545V109.2C114.545 108.952 114.609 108.764 114.737 108.636C114.865 108.508 115.049 108.444 115.289 108.444C115.529 108.444 115.713 108.508 115.841 108.636C115.977 108.764 116.045 108.952 116.045 109.2V116.328C116.045 116.576 115.981 116.768 115.853 116.904C115.725 117.032 115.541 117.096 115.301 117.096C115.061 117.096 114.877 117.032 114.749 116.904C114.621 116.768 114.557 116.576 114.557 116.328V115.392L114.689 115.752C114.569 116.168 114.325 116.5 113.957 116.748C113.589 116.996 113.157 117.12 112.661 117.12ZM113.081 115.98C113.377 115.98 113.637 115.908 113.861 115.764C114.085 115.62 114.257 115.408 114.377 115.128C114.505 114.84 114.569 114.484 114.569 114.06C114.569 113.42 114.433 112.944 114.161 112.632C113.889 112.312 113.529 112.152 113.081 112.152C112.785 112.152 112.525 112.224 112.301 112.368C112.077 112.504 111.901 112.716 111.773 113.004C111.653 113.284 111.593 113.636 111.593 114.06C111.593 114.692 111.729 115.172 112.001 115.5C112.273 115.82 112.633 115.98 113.081 115.98ZM120.492 117.12C119.828 117.12 119.256 116.996 118.776 116.748C118.296 116.5 117.924 116.148 117.66 115.692C117.404 115.236 117.276 114.696 117.276 114.072C117.276 113.464 117.4 112.932 117.648 112.476C117.904 112.02 118.252 111.664 118.692 111.408C119.14 111.144 119.648 111.012 120.216 111.012C120.632 111.012 121.004 111.08 121.332 111.216C121.668 111.352 121.952 111.548 122.184 111.804C122.424 112.06 122.604 112.372 122.724 112.74C122.852 113.1 122.916 113.508 122.916 113.964C122.916 114.108 122.864 114.22 122.76 114.3C122.664 114.372 122.524 114.408 122.34 114.408H118.488V113.544H121.86L121.668 113.724C121.668 113.356 121.612 113.048 121.5 112.8C121.396 112.552 121.24 112.364 121.032 112.236C120.832 112.1 120.58 112.032 120.276 112.032C119.94 112.032 119.652 112.112 119.412 112.272C119.18 112.424 119 112.644 118.872 112.932C118.752 113.212 118.692 113.548 118.692 113.94V114.024C118.692 114.68 118.844 115.172 119.148 115.5C119.46 115.82 119.916 115.98 120.516 115.98C120.724 115.98 120.956 115.956 121.212 115.908C121.476 115.852 121.724 115.76 121.956 115.632C122.124 115.536 122.272 115.496 122.4 115.512C122.528 115.52 122.628 115.564 122.7 115.644C122.78 115.724 122.828 115.824 122.844 115.944C122.86 116.056 122.836 116.172 122.772 116.292C122.716 116.412 122.616 116.516 122.472 116.604C122.192 116.78 121.868 116.912 121.5 117C121.14 117.08 120.804 117.12 120.492 117.12ZM126.36 117.12C125.848 117.12 125.396 116.996 125.004 116.748C124.62 116.5 124.32 116.148 124.104 115.692C123.888 115.228 123.78 114.684 123.78 114.06C123.78 113.428 123.888 112.888 124.104 112.44C124.32 111.984 124.62 111.632 125.004 111.384C125.396 111.136 125.848 111.012 126.36 111.012C126.848 111.012 127.272 111.132 127.632 111.372C128 111.612 128.248 111.928 128.376 112.32H128.244V109.2C128.244 108.952 128.308 108.764 128.436 108.636C128.564 108.508 128.748 108.444 128.988 108.444C129.228 108.444 129.412 108.508 129.54 108.636C129.676 108.764 129.744 108.952 129.744 109.2V116.328C129.744 116.576 129.68 116.768 129.552 116.904C129.424 117.032 129.24 117.096 129 117.096C128.76 117.096 128.576 117.032 128.448 116.904C128.32 116.768 128.256 116.576 128.256 116.328V115.392L128.388 115.752C128.268 116.168 128.024 116.5 127.656 116.748C127.288 116.996 126.856 117.12 126.36 117.12ZM126.78 115.98C127.076 115.98 127.336 115.908 127.56 115.764C127.784 115.62 127.956 115.408 128.076 115.128C128.204 114.84 128.268 114.484 128.268 114.06C128.268 113.42 128.132 112.944 127.86 112.632C127.588 112.312 127.228 112.152 126.78 112.152C126.484 112.152 126.224 112.224 126 112.368C125.776 112.504 125.6 112.716 125.472 113.004C125.352 113.284 125.292 113.636 125.292 114.06C125.292 114.692 125.428 115.172 125.7 115.5C125.972 115.82 126.332 115.98 126.78 115.98Z" fill="#64728C"/>
</g>
</g>
<rect x="4.5" y="33.5" width="151" height="112" rx="13.5" stroke="#64728C" stroke-opacity="0.22" shape-rendering="crispEdges"/>
</g>
</g>
<g filter="url(#filter7_b_1083_8998)">
<rect x="139" y="66" width="32" height="51" rx="16" fill="#64728C" fill-opacity="0.11"/>
<path d="M153.833 80.4165C153.483 80.4165 153.25 80.6498 153.25 80.9998V83.3332C153.25 83.6832 153.483 83.9165 153.833 83.9165C154.183 83.9165 154.417 83.6832 154.417 83.3332V80.9998C154.417 80.6498 154.183 80.4165 153.833 80.4165Z" fill="#64728C"/>
<path d="M156.167 80.4165C155.817 80.4165 155.583 80.6498 155.583 80.9998V83.3332C155.583 83.6832 155.817 83.9165 156.167 83.9165C156.517 83.9165 156.75 83.6832 156.75 83.3332V80.9998C156.75 80.6498 156.517 80.4165 156.167 80.4165Z" fill="#64728C"/>
<path d="M155.875 75.1665H154.125C153.308 75.1665 152.667 75.8082 152.667 76.6248V76.9165H150.917C150.567 76.9165 150.333 77.1498 150.333 77.4998C150.333 77.8498 150.567 78.0832 150.917 78.0832H150.975L151.442 84.6165C151.5 85.8998 152.492 86.8332 153.717 86.8332H156.283C157.508 86.8332 158.558 85.8998 158.617 84.6748L159.025 78.0832H159.083C159.433 78.0832 159.667 77.8498 159.667 77.4998C159.667 77.1498 159.433 76.9165 159.083 76.9165H157.333V76.6248C157.333 75.8082 156.692 75.1665 155.875 75.1665ZM153.833 76.6248C153.833 76.4498 153.95 76.3332 154.125 76.3332H155.875C156.05 76.3332 156.167 76.4498 156.167 76.6248V76.9165H153.833V76.6248ZM157.858 78.0832L157.392 84.5582C157.333 85.1998 156.867 85.6665 156.225 85.6665H153.717C153.075 85.6665 152.608 85.1998 152.55 84.5582L152.142 78.0832H153.25H156.75H157.858Z" fill="#64728C"/>
<path d="M155 103.667C155.264 103.667 155.521 103.745 155.741 103.891C155.96 104.038 156.131 104.246 156.232 104.49C156.333 104.733 156.359 105.001 156.308 105.26C156.256 105.519 156.129 105.756 155.943 105.943C155.756 106.129 155.519 106.256 155.26 106.308C155.001 106.359 154.733 106.333 154.49 106.232C154.246 106.131 154.038 105.96 153.891 105.741C153.745 105.521 153.667 105.264 153.667 105C153.667 104.646 153.807 104.307 154.057 104.057C154.307 103.807 154.646 103.667 155 103.667ZM153.667 96.9998C153.667 97.2635 153.745 97.5213 153.891 97.7406C154.038 97.9599 154.246 98.1308 154.49 98.2317C154.733 98.3326 155.001 98.359 155.26 98.3076C155.519 98.2561 155.756 98.1291 155.943 97.9426C156.129 97.7562 156.256 97.5186 156.308 97.26C156.359 97.0013 156.333 96.7332 156.232 96.4896C156.131 96.246 155.96 96.0377 155.741 95.8912C155.521 95.7447 155.264 95.6665 155 95.6665C154.646 95.6665 154.307 95.807 154.057 96.057C153.807 96.3071 153.667 96.6462 153.667 96.9998ZM153.667 101C153.667 101.264 153.745 101.521 153.891 101.741C154.038 101.96 154.246 102.131 154.49 102.232C154.733 102.333 155.001 102.359 155.26 102.308C155.519 102.256 155.756 102.129 155.943 101.943C156.129 101.756 156.256 101.519 156.308 101.26C156.359 101.001 156.333 100.733 156.232 100.49C156.131 100.246 155.96 100.038 155.741 99.8912C155.521 99.7447 155.264 99.6665 155 99.6665C154.646 99.6665 154.307 99.807 154.057 100.057C153.807 100.307 153.667 100.646 153.667 101Z" fill="#64728C"/>
</g>
<defs>
<filter id="filter0_b_1083_8998" x="0" y="-4" width="160" height="156" filterUnits="userSpaceOnUse" color-interpolation-filters="sRGB">
<feFlood flood-opacity="0" result="BackgroundImageFix"/>
<feGaussianBlur in="BackgroundImageFix" stdDeviation="2"/>
<feComposite in2="SourceAlpha" operator="in" result="effect1_backgroundBlur_1083_8998"/>
<feBlend mode="normal" in="SourceGraphic" in2="effect1_backgroundBlur_1083_8998" result="shape"/>
</filter>
<filter id="filter1_d_1083_8998" x="100.833" y="10.9072" width="42.4258" height="49.709" filterUnits="userSpaceOnUse" color-interpolation-filters="sRGB">
<feFlood flood-opacity="0" result="BackgroundImageFix"/>
<feColorMatrix in="SourceAlpha" type="matrix" values="0 0 0 0 0 0 0 0 0 0 0 0 0 0 0 0 0 0 127 0" result="hardAlpha"/>
<feOffset dy="4"/>
<feGaussianBlur stdDeviation="2"/>
<feComposite in2="hardAlpha" operator="out"/>
<feColorMatrix type="matrix" values="0 0 0 0 0 0 0 0 0 0 0 0 0 0 0 0 0 0 0.25 0"/>
<feBlend mode="normal" in2="BackgroundImageFix" result="effect1_dropShadow_1083_8998"/>
<feBlend mode="normal" in="SourceGraphic" in2="effect1_dropShadow_1083_8998" result="shape"/>
</filter>
<filter id="filter2_d_1083_8998" x="84.563" y="16.6655" width="36.6836" height="43.4497" filterUnits="userSpaceOnUse" color-interpolation-filters="sRGB">
<feFlood flood-opacity="0" result="BackgroundImageFix"/>
<feColorMatrix in="SourceAlpha" type="matrix" values="0 0 0 0 0 0 0 0 0 0 0 0 0 0 0 0 0 0 127 0" result="hardAlpha"/>
<feOffset dy="4"/>
<feGaussianBlur stdDeviation="2"/>
<feComposite in2="hardAlpha" operator="out"/>
<feColorMatrix type="matrix" values="0 0 0 0 0 0 0 0 0 0 0 0 0 0 0 0 0 0 0.25 0"/>
<feBlend mode="normal" in2="BackgroundImageFix" result="effect1_dropShadow_1083_8998"/>
<feBlend mode="normal" in="SourceGraphic" in2="effect1_dropShadow_1083_8998" result="shape"/>
</filter>
<filter id="filter3_d_1083_8998" x="53" y="6" width="44.8135" height="55.021" filterUnits="userSpaceOnUse" color-interpolation-filters="sRGB">
<feFlood flood-opacity="0" result="BackgroundImageFix"/>
<feColorMatrix in="SourceAlpha" type="matrix" values="0 0 0 0 0 0 0 0 0 0 0 0 0 0 0 0 0 0 127 0" result="hardAlpha"/>
<feOffset dy="4"/>
<feGaussianBlur stdDeviation="2"/>
<feComposite in2="hardAlpha" operator="out"/>
<feColorMatrix type="matrix" values="0 0 0 0 0 0 0 0 0 0 0 0 0 0 0 0 0 0 0.25 0"/>
<feBlend mode="normal" in2="BackgroundImageFix" result="effect1_dropShadow_1083_8998"/>
<feBlend mode="normal" in="SourceGraphic" in2="effect1_dropShadow_1083_8998" result="shape"/>
</filter>
<filter id="filter4_d_1083_8998" x="14" y="0" width="57.5703" height="67.2598" filterUnits="userSpaceOnUse" color-interpolation-filters="sRGB">
<feFlood flood-opacity="0" result="BackgroundImageFix"/>
<feColorMatrix in="SourceAlpha" type="matrix" values="0 0 0 0 0 0 0 0 0 0 0 0 0 0 0 0 0 0 127 0" result="hardAlpha"/>
<feOffset dy="4"/>
<feGaussianBlur stdDeviation="2"/>
<feComposite in2="hardAlpha" operator="out"/>
<feColorMatrix type="matrix" values="0 0 0 0 0 0 0 0 0 0 0 0 0 0 0 0 0 0 0.25 0"/>
<feBlend mode="normal" in2="BackgroundImageFix" result="effect1_dropShadow_1083_8998"/>
<feBlend mode="normal" in="SourceGraphic" in2="effect1_dropShadow_1083_8998" result="shape"/>
</filter>
<filter id="filter5_bd_1083_8998" x="0" y="25" width="160" height="123" filterUnits="userSpaceOnUse" color-interpolation-filters="sRGB">
<feFlood flood-opacity="0" result="BackgroundImageFix"/>
<feGaussianBlur in="BackgroundImageFix" stdDeviation="1"/>
<feComposite in2="SourceAlpha" operator="in" result="effect1_backgroundBlur_1083_8998"/>
<feColorMatrix in="SourceAlpha" type="matrix" values="0 0 0 0 0 0 0 0 0 0 0 0 0 0 0 0 0 0 127 0" result="hardAlpha"/>
<feOffset dy="-4"/>
<feGaussianBlur stdDeviation="2"/>
<feComposite in2="hardAlpha" operator="out"/>
<feColorMatrix type="matrix" values="0 0 0 0 0 0 0 0 0 0 0 0 0 0 0 0 0 0 0.05 0"/>
<feBlend mode="normal" in2="effect1_backgroundBlur_1083_8998" result="effect2_dropShadow_1083_8998"/>
<feBlend mode="normal" in="SourceGraphic" in2="effect2_dropShadow_1083_8998" result="shape"/>
</filter>
<filter id="filter6_bdd_1083_8998" x="-4" y="18" width="168" height="136" filterUnits="userSpaceOnUse" color-interpolation-filters="sRGB">
<feFlood flood-opacity="0" result="BackgroundImageFix"/>
<feGaussianBlur in="BackgroundImageFix" stdDeviation="4"/>
<feComposite in2="SourceAlpha" operator="in" result="effect1_backgroundBlur_1083_8998"/>
<feColorMatrix in="SourceAlpha" type="matrix" values="0 0 0 0 0 0 0 0 0 0 0 0 0 0 0 0 0 0 127 0" result="hardAlpha"/>
<feOffset dy="-14"/>
<feGaussianBlur stdDeviation="2.5"/>
<feComposite in2="hardAlpha" operator="out"/>
<feColorMatrix type="matrix" values="0 0 0 0 0 0 0 0 0 0 0 0 0 0 0 0 0 0 0.05 0"/>
<feBlend mode="normal" in2="effect1_backgroundBlur_1083_8998" result="effect2_dropShadow_1083_8998"/>
<feColorMatrix in="SourceAlpha" type="matrix" values="0 0 0 0 0 0 0 0 0 0 0 0 0 0 0 0 0 0 127 0" result="hardAlpha"/>
<feOffset dy="4"/>
<feGaussianBlur stdDeviation="2"/>
<feComposite in2="hardAlpha" operator="out"/>
<feColorMatrix type="matrix" values="0 0 0 0 0 0 0 0 0 0 0 0 0 0 0 0 0 0 0.25 0"/>
<feBlend mode="normal" in2="effect2_dropShadow_1083_8998" result="effect3_dropShadow_1083_8998"/>
<feBlend mode="normal" in="SourceGraphic" in2="effect3_dropShadow_1083_8998" result="shape"/>
</filter>
<filter id="filter7_b_1083_8998" x="135" y="62" width="40" height="59" filterUnits="userSpaceOnUse" color-interpolation-filters="sRGB">
<feFlood flood-opacity="0" result="BackgroundImageFix"/>
<feGaussianBlur in="BackgroundImageFix" stdDeviation="2"/>
<feComposite in2="SourceAlpha" operator="in" result="effect1_backgroundBlur_1083_8998"/>
<feBlend mode="normal" in="SourceGraphic" in2="effect1_backgroundBlur_1083_8998" result="shape"/>
</filter>
<linearGradient id="paint0_linear_1083_8998" x1="80" y1="37" x2="80" y2="146" gradientUnits="userSpaceOnUse">
<stop stop-color="#64728C" stop-opacity="0.04"/>
<stop offset="1" stop-color="#64728C" stop-opacity="0.15"/>
</linearGradient>
<linearGradient id="paint1_linear_1083_8998" x1="80" y1="37" x2="80" y2="146" gradientUnits="userSpaceOnUse">
<stop offset="0.345231" stop-color="#64728C" stop-opacity="0.03"/>
<stop offset="1" stop-color="#64728C" stop-opacity="0.37"/>
</linearGradient>
<clipPath id="clip0_1083_8998">
<rect width="27.7672" height="37.0229" fill="white" transform="translate(112.02 10.9072) rotate(11.1939)"/>
</clipPath>
<clipPath id="clip1_1083_8998">
<rect width="31" height="41" fill="white" transform="translate(53 22)"/>
</clipPath>
<clipPath id="clip2_1083_8998">
<rect width="25.3595" height="32.9674" fill="white" transform="translate(92.0273 16.6655) rotate(6.03239)"/>
</clipPath>
<clipPath id="clip3_1083_8998">
<rect width="33.8127" height="44.8018" fill="white" transform="translate(57 8.3252) rotate(-3.94287)"/>
</clipPath>
<clipPath id="clip4_1083_8998">
<rect width="38.6668" height="51.7264" fill="white" transform="translate(18 8.93262) rotate(-13.3568)"/>
</clipPath>
<clipPath id="clip5_1083_8998">
<rect x="4" y="33" width="152" height="113" rx="14" fill="white"/>
</clipPath>
</defs>
</svg>
