<?xml version="1.0" encoding="UTF-8"?>
<svg id="Layer_2" data-name="Layer 2" xmlns="http://www.w3.org/2000/svg" viewBox="0 0 1813.82 1198.63">
  <defs>
    <style>
      .cls-1 {
        fill: #f8a13b;
      }

      .cls-1, .cls-2, .cls-3 {
        stroke-width: 0px;
      }

      .cls-2 {
        fill: #207b50;
      }

      .cls-3 {
        fill: #f36f40;
      }
    </style>
  </defs>
  <g id="Layer_1-2" data-name="Layer 1">
    <g>
      <path class="cls-3" d="M405.16,424.07c2.75.35,3.77.5,7.02,3.37,5.73,4.36,11.74,10.33,16.28,17.37,4.55,7.03,7.58,15.1,7.79,23.44.08,4.17-.46,8.42-1.78,12.69-1.32,4.27-3.47,8.55-6.4,12.82-5.88,8.56-15.02,17.06-27.7,26.03-.95.67-5.17,2.92-7.16,3.13-5.82-.71-11.68-1.25-17.55-1.59-5.87-.35-11.75-.55-17.62-.53-11.74-.03-23.44.71-34.97,2.16-11.54,1.44-22.92,3.6-34.06,6.51-11.13,2.93-22.01,6.59-32.57,10.99-9.34,3.84-18.38,8.38-27.17,13.37-8.79,5-17.29,10.51-25.38,16.55-16.17,12.11-30.87,26.19-43.77,41.93-12.91,15.73-24.03,33.11-33.11,51.6-9.08,18.47-16.13,38.06-20.86,57.99-2.36,9.96-4.14,20.01-5.29,29.99-.31,2.5-.48,4.98-.74,7.47l-.36,7.49-.2,3.74c-.05,1.25-.19,2.49-.13,3.75l.07,7.54c.29,20.12,3.11,40.47,8.19,60.51,10.27,40.11,29.51,78.78,54.92,113.03,25.43,34.29,57.1,64.25,92.75,87.71,35.64,23.49,75.31,40.4,116.52,49.15,41.2,8.84,83.93,9.31,125.44,1.55,41.51-7.71,81.76-23.57,118.13-45.99,36.38-22.4,68.93-51.33,95.25-84.81,13.15-16.74,24.77-34.59,34.46-53.29,9.65-18.72,17.4-38.25,22.95-58.21l2.05-7.49c.38-1.24.61-2.51.9-3.77l.83-3.78c.53-2.53,1.18-5.03,1.63-7.58l1.32-7.64.67-3.82.48-3.85.99-7.69c.31-2.57.44-5.16.68-7.73l.33-3.87c.05-.65.12-1.29.16-1.94l.07-1.94c1.02-20.71.09-41.65-3.21-62.51-6.34-41.71-20.94-83.1-41.38-121.53-5.11-9.59-10.58-19-16.38-28.06-2.89-4.54-5.87-8.95-8.89-13.25-1.49-2.16-3.12-4.26-4.74-6.38l-4.84-6.35c-13.08-16.78-27.66-32.42-43.6-46.68-15.93-14.27-33.19-27.17-51.44-38.66-2.24-1.5-4.6-2.81-6.91-4.21-2.33-1.36-4.61-2.8-6.97-4.12-4.73-2.61-9.42-5.3-14.26-7.73-2.4-1.25-4.79-2.51-7.25-3.68-2.45-1.17-4.85-2.41-7.34-3.54-2.49-1.13-4.93-2.3-7.44-3.42-2.55-1.11-4.99-2.22-7.63-3.33l-3.93-1.67c-1.3-.55-2.52-1.01-3.79-1.52l-5.95-2.37-5.01-2-10.15-3.6c-3.36-1.27-6.81-2.26-10.23-3.35-3.42-1.07-6.83-2.2-10.31-3.09-13.78-4-27.83-7.04-42.05-9.43,0,0-.51-.13-1.5-.38-.99-.23-2.43-.65-4.34-1.06-1.91-.42-4.25-.94-6.98-1.55-1.37-.3-2.83-.65-4.4-.97-1.58-.31-3.25-.63-5-.98-1.76-.35-3.61-.71-5.54-1.1-1.95-.34-3.99-.69-6.1-1.05-2.12-.35-4.31-.77-6.6-1.12-2.3-.34-4.67-.7-7.11-1.06-9.82-1.4-20.84-2.78-33.04-3.9-3.07-.28-6.19-.56-9.36-.84-3.23-.27-6.5-.54-9.81-.82-6.34-.46-12.83-.92-19.43-1.4-3.31-.15-6.64-.29-9.99-.44-3.36-.13-6.75-.38-10.14-.38-3.41-.06-6.83-.13-10.26-.19-1.72-.02-3.45-.11-5.17-.08l-5.17.04c-3.46.02-6.93.03-10.4.05-3.47.1-6.94.21-10.39.31-6.95.11-13.83.6-20.7.92l-2.57.13-2.55.19c-1.7.13-3.4.25-5.09.38-3.38.27-6.77.44-10.1.75-3.34.31-6.65.61-9.93.91-1.64.15-3.28.27-4.9.45-1.62.18-3.23.36-4.83.53-43.28,5.8-71.85,11.77-89.21,13.21-17.35,1.64-23.53-1.05-21.16-7.41,2.42-6.26,13.44-16.27,30.97-27.21,17.5-10.97,41.56-22.74,69.25-32.81-1.54.13,1.44-1.23,7.96-3.4,3.26-1.08,7.37-2.49,12.26-3.96,4.9-1.41,10.53-3.08,16.79-4.76,25.05-6.65,60.33-13.82,96.69-17.23,4.55-.4,9.1-.79,13.64-1.19l3.38-.28,3.25-.23c2.17-.15,4.32-.31,6.48-.46,8.73-.57,17.44-1.09,26.06-1.38,17.19-.65,33.67-.52,47.88.1,3.56.2,6.98.38,10.23.56,3.25.15,6.35.49,9.25.71,2.91.25,5.64.48,8.16.7,2.52.29,4.84.55,6.93.79,4.19.5,7.5.81,9.74,1.18,2.25.33,3.44.5,3.44.5l6.51,1.32c2.17.44,4.34.87,6.49,1.4l12.93,3.08c8.56,2.32,17.15,4.55,25.58,7.31,8.51,2.53,16.81,5.63,25.16,8.58,2.07.77,4.12,1.62,6.18,2.43l6.39,2.54,4.62,1.85c1.56.62,2.95,1.24,4.43,1.86,2.9,1.21,5.9,2.54,8.88,3.85,2.98,1.29,5.97,2.7,8.96,4.07,2.99,1.35,5.97,2.8,8.93,4.26,2.97,1.45,5.95,2.88,8.87,4.43,11.83,5.95,23.3,12.64,34.68,19.49l8.4,5.37c2.79,1.81,5.62,3.55,8.33,5.48l8.21,5.68c1.36.95,2.74,1.88,4.09,2.86l4,2.99c21.44,15.83,41.64,33.51,60.18,52.87l6.87,7.34,3.43,3.68c1.15,1.22,2.19,2.54,3.29,3.81l6.51,7.68,3.25,3.84c1.07,1.29,2.2,2.53,3.19,3.89l12.21,16.02c4.03,5.39,7.87,11.03,11.55,16.59,14.66,22.32,27.34,45.38,38.3,69.45,5.47,12.03,10.5,24.28,15.07,36.75,4.51,12.5,8.53,25.21,12.1,38.1,1.64,6.5,3.42,12.95,4.8,19.53.7,3.29,1.51,6.54,2.12,9.86l1.87,9.93c2.27,13.3,4.16,26.72,5.12,40.29.64,6.76.83,13.58,1.12,20.39l.1,2.55v2.56s.02,5.12.02,5.12v5.12c0,1.71.02,3.41-.07,5.13l-.41,10.26c-.09,1.71-.11,3.42-.25,5.13l-.42,5.12-.86,10.25-1.27,10.21c-.75,6.82-2.04,13.57-3.2,20.34-.53,3.39-1.31,6.74-2.05,10.09l-2.23,10.05c-1.72,6.63-3.53,13.25-5.38,19.84l-3.16,9.75-1.59,4.87c-.53,1.62-1.05,3.25-1.67,4.84-18.45,51.4-47,98.17-82.3,138.45-35.34,40.29-77.53,74.24-124.43,100.15-46.87,25.9-98.62,43.66-152.23,51.11-26.79,3.74-54,4.9-81.06,3.39-27.07-1.49-53.97-5.67-80.17-12.3-52.46-13.26-101.94-36.49-145.73-67.22-43.82-30.75-82.16-68.91-113.07-112.7-15.44-21.9-29.02-45.24-40.33-69.81-11.3-24.57-20.34-50.4-26.56-77.18C3.25,832.02-.11,804.29.02,776.26l-.02-5.25.25-5.27.54-10.53c.36-7.02,1.19-14.01,2.05-20.94,1.82-13.85,4.51-27.45,7.9-40.83,6.8-26.74,16.5-52.58,28.91-77.16,12.41-24.56,27.56-47.87,45.33-69.22,17.78-21.32,38.17-40.64,60.59-57.26,11.19-8.34,22.94-15.9,35.07-22.77,12.13-6.86,24.65-13.1,37.55-18.43,14.84-6.18,30.09-11.32,45.56-15.39,15.48-4.05,31.18-7.03,46.93-9.01,15.76-1.99,31.57-2.97,47.33-2.96,7.89-.03,15.76.23,23.62.7,7.86.45,15.7,1.17,23.54,2.12Z"/>
      <path class="cls-2" d="M1004.31,241.88c1.55-1.85,2.11-2.53,5.98-3.47,24.79-8.1,72.8-9.73,72.95,57.85,0,1.24-.67,6.55-1.81,8.59l-104.45,127.79-12.66,15.04-58.22,71.23s-103.67,110.82-182.57,183.45c-130.35,126.13-101.85,56.44-40.39-37.53-9.05,7.66,154.39-218.73,154.39-218.73l49.95-61.17,12.43-15.23,104.39-127.83Z"/>
      <path class="cls-2" d="M673.16,305.77c-1.83-1.6-2.5-2.18-3.36-6.08-3.82-12.53-5.86-30.8,1.55-45.73,7.4-14.94,24.23-26.52,57.92-25.92,1.23.03,6.51.8,8.51,1.98,41.62,35.53,83.55,70.7,125.77,105.5,25.86,21.4,51.81,42.69,77.91,63.8,11.89,9.56,23.75,19.15,35.7,28.62,11.94,9.49,23.84,19.04,35.84,28.45,0,0,6.97,6.36,18.66,17.02,5.83,5.34,12.84,11.76,20.75,19,7.89,7.27,16.66,15.36,26.05,24.01,37.49,34.71,84.73,78.54,122.68,116.23,8.19,7.8,15.65,14.95,22.36,21.56,6.71,6.61,12.66,12.67,17.92,18.2,10.53,11.04,18.28,19.95,23.52,27.03,10.49,14.16,11.06,20.88,4.41,21.99-6.64,1.1-20.49-3.42-38.78-11.77-9.16-4.15-19.35-9.36-30.34-15.26-10.98-5.9-22.72-12.53-34.81-19.75,4.06,4.35-52.55-31.81-109.56-70.1-14.23-9.6-28.57-19.22-41.98-28.36-13.39-9.18-25.94-17.77-36.72-25.16-21.47-14.9-35.88-24.9-35.88-24.9-20.72-16.46-41.44-32.92-62.03-49.55-26.44-21.26-52.73-42.7-78.93-64.25-42.69-35.16-85.08-70.68-127.16-106.57Z"/>
      <path class="cls-1" d="M1227.44,300.33c-1.69-1.62-2.3-2.19-2.9-6.04-.74-3.1-1.36-6.56-1.75-10.23-.42-3.65-.62-7.52-.48-11.47.28-7.9,1.88-16.14,5.75-23.54,3.85-7.38,10.02-13.94,19.47-18.38,4.73-2.22,10.29-3.9,16.83-4.88,6.54-.98,14.07-1.27,22.62-.57,1.25.1,6.62,1.23,8.64,2.55,20.75,19.51,40.91,39.65,60.48,60.34l7.32,7.78,3.66,3.89,3.59,3.95,14.35,15.82,14.07,16.07,3.51,4.02,3.44,4.08,6.88,8.17c53.59,63.9,101.71,132.42,143.39,204.65,8.15,13.63,15.6,27.65,23.26,41.56l2.86,5.22,2.74,5.29,5.45,10.58,5.45,10.59c1.82,3.53,3.66,7.05,5.35,10.64,0,0,3.65,9.11,9.77,24.38.74,1.91,1.58,3.9,2.35,6.02.78,2.12,1.59,4.33,2.43,6.62,1.67,4.59,3.47,9.52,5.38,14.74,3.91,10.4,7.67,22.21,11.85,34.73,1.01,3.14,2.12,6.3,3.09,9.57.98,3.26,1.98,6.56,2.99,9.91,2,6.69,4.07,13.52,6.07,20.48,1.88,7,3.8,14.11,5.73,21.29.93,3.59,1.96,7.17,2.8,10.82.87,3.64,1.74,7.28,2.61,10.93.86,3.65,1.72,7.3,2.58,10.95l1.27,5.47c.38,1.83.77,3.67,1.15,5.5,1.53,7.32,3.01,14.61,4.45,21.81,1.35,7.23,2.57,14.4,3.77,21.42,1.24,7.01,2.2,13.95,3.13,20.71,7.38,45.52,8.38,75.64,6.92,93.27-1.6,17.66-5.76,22.91-11.42,19.26-11.42-7.32-28.5-50.04-49.36-100.82.13,1.45-1.17-1.32-3.54-7.25-2.45-5.9-6.09-14.94-10.45-26.09-9.02-22.2-21.76-52.58-35.81-82.64-13.96-30.11-29.57-59.72-41.47-81.82-6.17-10.93-11.32-20.07-14.94-26.47-1.77-3.21-3.31-5.67-4.31-7.37-1.01-1.69-1.55-2.6-1.55-2.6-5.86-11.26-11.48-22.64-17.73-33.7l-9.16-16.69c-.77-1.39-1.51-2.79-2.31-4.16l-2.4-4.11-4.8-8.22c-38.89-67.24-83.78-130.99-133.77-190.45l-6.41-7.61-3.21-3.8-3.27-3.74-13.11-14.97-13.38-14.73-3.35-3.68-3.41-3.62-6.82-7.24c-18.24-19.27-37.03-38.02-56.36-56.19Z"/>
      <path class="cls-1" d="M1162.77,221.81c-1.14,1.7-1.56,2.28-5.01,3.27-5.47,2.06-12.37,4.08-19.94,5.23-7.57,1.13-15.79,1.43-23.9-.49-4.06-.93-8.06-2.47-11.89-4.79-3.82-2.32-7.49-5.36-10.78-9.48-6.55-8.2-11.82-20.53-13.02-38.9-.04-.67.04-2.48.26-4.45.24-1.96.65-4.05,1.2-5.28,8.78-13.28,18.46-26,28.92-38.05,10.56-11.97,21.77-23.41,33.77-33.93,23.99-21.06,50.66-38.79,78.78-52.96,20.67-10.34,42.06-18.94,64-25.6,10.97-3.34,22.07-6.25,33.34-8.66,11.29-2.42,22.65-4.39,34.64-5.78,3.01-.35,6.08-.65,9.33-.91l8.81-.51c5.84-.41,11.72-.42,17.58-.51,2.93-.08,5.87.02,8.8.1l8.8.25,8.79.58,4.39.3c1.46.11,2.92.29,4.38.44l8.75.93c2.91.34,5.81.81,8.71,1.21,5.82.76,11.56,1.92,17.32,2.96,11.45,2.38,22.85,5.04,33.97,8.48l4.19,1.24,4.14,1.36c2.75.92,5.53,1.79,8.26,2.77l8.16,2.98c2.73.97,5.38,2.11,8.08,3.16,10.72,4.31,21.23,9.05,31.43,14.26,10.22,5.19,20.2,10.75,29.91,16.68,9.7,5.94,19.13,12.24,28.29,18.83,9.16,6.59,18.07,13.5,26.64,20.64,4.3,3.56,8.5,7.19,12.56,10.76l3,2.65,1.46,1.29.73.65.79.72,6.27,5.79c16.65,15.52,32.18,32.33,46.17,50.3,13.99,17.97,26.57,37,37.66,56.76l4.04,7.47,2.01,3.74,1.91,3.78,3.81,7.57,3.61,7.65,1.8,3.83,1.7,3.87,3.38,7.74c2.12,5.21,4.32,10.39,6.26,15.66,2.05,5.23,3.89,10.53,5.76,15.81,1.77,5.31,3.57,10.62,5.16,15.98,3.28,10.69,6.22,21.46,8.76,32.3,2.56,10.84,4.78,21.73,6.66,32.65,1.89,10.9,3.43,21.9,4.67,32.64l.89,8.02c.3,2.78.56,5.56.82,8.35.49,5.57.91,11.14,1.21,16.71.62,11.14.89,22.27.81,33.39-.14,22.24-1.71,44.44-4.63,66.52-1.51,11.03-3.24,22.04-5.47,32.98-1.02,5.48-2.31,10.92-3.51,16.37-.61,2.72-1.33,5.43-1.99,8.14-.69,2.71-1.31,5.43-2.08,8.12-5.81,21.59-13.02,42.86-21.65,63.57-6.61,15.71-14.04,31.09-22.22,46.06l-3.1,5.59c-1.03,1.87-2.06,3.74-3.17,5.55l-6.56,10.98c-4.58,7.18-9.1,14.41-14.03,21.36,0,0-1.63,2.06-4.62,5.86-1.52,1.88-3.47,4.12-5.71,6.76-2.26,2.63-4.78,5.66-7.71,8.95-11.73,13.1-29,30.79-50.74,48.63-2.75,2.18-5.55,4.39-8.39,6.64-1.42,1.12-2.85,2.24-4.29,3.37-1.47,1.08-2.96,2.18-4.45,3.27-2.99,2.18-6.01,4.38-9.06,6.6-3.12,2.11-6.27,4.25-9.45,6.4-3.15,2.18-6.44,4.21-9.72,6.27-3.3,2.04-6.55,4.17-9.96,6.09-3.38,1.95-6.77,3.91-10.18,5.88-3.46,1.85-6.93,3.7-10.4,5.56-13.96,7.25-28.27,13.76-42.49,19.34-14.21,5.6-28.39,10.17-41.94,13.86-11.4,3.37-21.89,5.99-31.52,7.91-4.79,1.03-9.4,1.78-13.75,2.53-4.38.65-8.49,1.29-12.43,1.71-15.68,1.81-27.82,1.92-36.76,1.12-8.94-.8-14.67-2.47-17.66-4.52-3-2.06-3.33-4.52-1.4-7.29,3.8-5.54,16.19-12.19,33.31-20.87,17.13-8.66,38.99-19.45,61.81-32.56-.68.14-.41-.18.7-.92.55-.37,1.32-.83,2.27-1.41.95-.59,2.08-1.28,3.4-2.06,2.62-1.56,5.98-3.45,9.82-5.81,1.93-1.16,4-2.41,6.21-3.73,2.17-1.36,4.47-2.81,6.89-4.32,9.6-6.12,20.79-13.66,32.37-22.41,11.57-8.75,23.46-18.77,34.75-29.42,11.28-10.66,22-21.9,31.39-33,2.36-2.76,4.56-5.59,6.78-8.28,1.1-1.36,2.19-2.7,3.26-4.02,1.03-1.37,2.04-2.72,3.04-4.05,2-2.66,3.94-5.24,5.83-7.75,1.79-2.57,3.52-5.06,5.18-7.44,3.41-4.7,6.16-9.28,8.75-13.23,2.62-3.92,4.65-7.52,6.39-10.42,1.73-2.92,3.13-5.18,3.97-6.79.87-1.59,1.34-2.44,1.34-2.44l2.86-4.46,1.44-2.23c.47-.75.91-1.51,1.36-2.27l5.42-9.09,5.12-9.26c.88-1.53,1.65-3.12,2.46-4.68l2.41-4.71c1.66-3.11,3.1-6.34,4.63-9.52l2.26-4.79,2.11-4.85,2.12-4.85c.18-.42.35-.77.53-1.25l.7-1.74,1.39-3.48c1.93-4.61,3.6-9.32,5.33-14.01,13.45-37.66,21.25-77.56,23.49-117.92,1.09-20.17.8-40.45-.93-60.42-.23-2.5-.45-4.99-.73-7.48l-.42-3.88-.45-3.93c-.61-5.19-1.27-10.26-2.02-15.3-1.48-10.08-3.26-20.05-5.42-29.92-8.53-39.47-22.6-77.32-42.23-111.52-4.84-8.6-10.21-16.84-15.74-24.95-2.85-3.99-5.64-8.03-8.67-11.89l-2.22-2.93c-.73-.98-1.48-1.95-2.27-2.89l-4.64-5.69c-1.51-1.93-3.17-3.73-4.77-5.58-1.62-1.83-3.2-3.71-4.85-5.52l-5.03-5.35-2.51-2.68-2.61-2.58-5.21-5.18c-1.75-1.72-3.59-3.33-5.38-5.01l-2.7-2.5-1.35-1.25c-.43-.4-1-.89-1.49-1.34l-3.01-2.66-2.93-2.57c-7.73-6.74-15.44-13-23.4-18.97-7.96-5.95-16.1-11.56-24.43-16.78-8.33-5.23-16.83-10.06-25.49-14.49-8.65-4.44-17.47-8.42-26.41-11.92-8.94-3.49-17.98-6.62-27.14-9.16-9.16-2.51-18.39-4.62-27.69-6.19-18.61-3.02-37.45-4.17-56.29-3.02l-3.53.19-1.74.1-1.52.13c-2.07.18-4.32.43-6.58.72-4.55.58-9.24,1.31-13.94,2.17-9.41,1.76-18.88,3.93-28.22,6.61-18.68,5.33-36.87,12.38-54.05,21.01-20.99,10.59-40.45,23.61-57.82,38.84-8.69,7.62-16.74,15.89-24.39,24.53-7.56,8.72-14.57,17.94-20.96,27.61Z"/>
    </g>
  </g>
</svg>