<svg width="2209" height="618" viewBox="0 0 2209 618" fill="none" xmlns="http://www.w3.org/2000/svg">
<rect x="726" y="500" width="14" height="14" rx="5" fill="#FE6B00"/>
<rect x="705.5" y="500.5" width="13" height="13" rx="4.5" stroke="#FE6B00"/>
<rect x="714" y="335" width="30.006" height="17.1463" rx="8.57313" fill="#FE6B00"/>
<g filter="url(#filter0_d_1450_2982)">
<circle cx="735.433" cy="343.573" r="7.50149" fill="white"/>
</g>
<rect x="1907" y="570" width="30.006" height="17.1463" rx="8.57313" fill="#FE6B00"/>
<g filter="url(#filter1_d_1450_2982)">
<circle cx="1928.43" cy="578.573" r="7.50149" fill="white"/>
</g>
<rect x="1420.5" y="420.5" width="144" height="29" rx="14.5" fill="#FE6B00"/>
<rect x="1420.5" y="420.5" width="144" height="29" rx="14.5" stroke="#FE6B00"/>
<rect x="1420.5" y="458.5" width="144" height="31" rx="15.5" stroke="#FE6B00"/>
<path d="M1420 396C1420 387.163 1427.16 380 1436 380H1549C1557.84 380 1565 387.163 1565 396C1565 404.837 1557.84 412 1549 412H1436C1427.16 412 1420 404.837 1420 396Z" fill="#FE5000" fill-opacity="0.13"/>
<rect x="1378" y="380" width="30" height="30" rx="15" fill="#FE6B00" fill-opacity="0.11"/>
<rect x="1378" y="420" width="30" height="30" rx="15" fill="#FE6B00"/>
<rect x="1378.5" y="460.5" width="29" height="29" rx="14.5" stroke="#FE6B00"/>
<rect x="1157.5" y="475.5" width="198" height="123" rx="15.5" fill="white"/>
<rect x="1157.5" y="475.5" width="198" height="123" rx="15.5" stroke="#FE6B00"/>
<g clip-path="url(#clip0_1450_2982)">
<rect x="1183" y="490" width="26" height="26" rx="10" fill="#FE6B00" fill-opacity="0.01"/>
<g filter="url(#filter2_i_1450_2982)">
<rect x="1177" y="518" width="38" height="38" rx="10" fill="white"/>
<rect x="1177.5" y="518.5" width="37" height="37" rx="9.5" stroke="#FE6B00"/>
</g>
<rect x="1183" y="558" width="26" height="26" rx="10" fill="#FE6B00" fill-opacity="0.01"/>
</g>
<g clip-path="url(#clip1_1450_2982)">
<circle cx="1225" cy="532.5" r="2" fill="#FE6B00"/>
<circle cx="1225" cy="541.5" r="2" fill="#FE6B00"/>
</g>
<g clip-path="url(#clip2_1450_2982)">
<rect x="1241" y="490" width="26" height="26" rx="10" fill="#FE6B00" fill-opacity="0.01"/>
<g filter="url(#filter3_i_1450_2982)">
<rect x="1235" y="518" width="38" height="38" rx="10" fill="white"/>
<rect x="1235.5" y="518.5" width="37" height="37" rx="9.5" stroke="#FE6B00"/>
</g>
<rect x="1241" y="558" width="26" height="26" rx="10" fill="#FE6B00" fill-opacity="0.01"/>
</g>
<g clip-path="url(#clip3_1450_2982)">
<g filter="url(#filter4_d_1450_2982)">
<rect x="1286.5" y="491.5" width="49" height="41" rx="9.5" stroke="#FE6B00" shape-rendering="crispEdges"/>
</g>
<g filter="url(#filter5_i_1450_2982)">
<path d="M1286.5 551C1286.5 545.477 1290.98 541 1296.5 541H1325.5C1331.02 541 1335.5 545.477 1335.5 551V573C1335.5 578.523 1331.02 583 1325.5 583H1296.5C1290.98 583 1286.5 578.523 1286.5 573V551Z" fill="#FE6B00"/>
</g>
</g>
<rect x="853.5" y="224.5" width="251" height="35" rx="17.5" fill="white"/>
<rect x="853.5" y="224.5" width="251" height="35" rx="17.5" stroke="#FE6B00"/>
<rect x="1073.5" y="228.5" width="27" height="27" rx="13.5" fill="#FE5000" fill-opacity="0.13"/>
<rect x="1073.5" y="228.5" width="27" height="27" rx="13.5" stroke="#FE6B00"/>
<path d="M523 583C523 575.82 528.82 570 536 570H572C579.18 570 585 575.82 585 583C585 590.18 579.18 596 572 596H536C528.82 596 523 590.18 523 583Z" fill="#FE6B00"/>
<path d="M454 583C454 575.82 459.82 570 467 570H503C510.18 570 516 575.82 516 583C516 590.18 510.18 596 503 596H467C459.82 596 454 590.18 454 583Z" fill="#FE6B00"/>
<rect x="592.5" y="570.5" width="61" height="25" rx="12.5" stroke="#FE6B00"/>
<rect x="661.5" y="570.5" width="61" height="25" rx="12.5" stroke="#FE6B00"/>
<rect x="730.5" y="570.5" width="61" height="25" rx="12.5" stroke="#FE6B00"/>
<rect x="1214.55" y="382.5" width="61.8902" height="61.8902" rx="13.5" fill="white" stroke="#FE6B00"/>
<rect x="1601.5" y="375.5" width="123" height="114" rx="13.5" fill="white" stroke="#FE6B00"/>
<rect x="1284.61" y="383.296" width="61.8902" height="61.8902" rx="13.5" fill="white" stroke="#FE6B00"/>
<path d="M1144.5 396.796C1144.5 389.34 1150.54 383.296 1158 383.296H1192.89C1200.35 383.296 1206.39 389.34 1206.39 396.796V431.686C1206.39 439.142 1200.35 445.186 1192.89 445.186H1158C1150.54 445.186 1144.5 439.142 1144.5 431.686V396.796Z" fill="#FE6B00" fill-opacity="0.05" stroke="#FE6B00"/>
<g clip-path="url(#clip4_1450_2982)">
<rect x="454" y="481" width="234" height="51" rx="25.5" fill="#FE6B00" fill-opacity="0.05"/>
<g filter="url(#filter6_dd_1450_2982)">
<rect x="458" y="485" width="103" height="43" rx="21.5" fill="#FE6B00"/>
</g>
</g>
<rect x="454.5" y="481.5" width="233" height="50" rx="25" stroke="#FE6B00"/>
<rect x="606.5" y="400.5" width="139" height="43" rx="21.5" fill="white" stroke="#FE6B00"/>
<path d="M647.5 421.511C647.5 431.485 639.228 439.589 629 439.589C618.772 439.589 610.5 431.485 610.5 421.511C610.5 411.538 618.772 403.434 629 403.434C639.228 403.434 647.5 411.538 647.5 421.511Z" fill="#FE6B00" fill-opacity="0.1" stroke="#FE6B00"/>
<ellipse cx="723" cy="421.511" rx="19" ry="18.5778" fill="#FE6B00"/>
<g filter="url(#filter7_d_1450_2982)">
<rect x="1154" y="59" width="423" height="271" rx="24" fill="white" shape-rendering="crispEdges"/>
<rect x="1154.5" y="59.5" width="422" height="270" rx="23.5" stroke="#FE6B00" stroke-linejoin="round" shape-rendering="crispEdges"/>
<circle cx="1365.5" cy="169" r="39.5" fill="#FE6B00" fill-opacity="0.09" stroke="#FE6B00"/>
<rect width="239" height="35" transform="translate(1246 225)" fill="white"/>
<rect x="1249.5" y="225.5" width="70" height="33" rx="16.5" stroke="#FE6B00"/>
<path d="M1329 242C1329 233.716 1335.72 227 1344 227H1466C1474.28 227 1481 233.716 1481 242C1481 250.284 1474.28 257 1466 257H1344C1335.72 257 1329 250.284 1329 242Z" fill="#FE6B00"/>
</g>
<path d="M1577 61C1577 70.3888 1569.39 78 1560 78C1550.61 78 1543 70.3888 1543 61C1543 51.6112 1550.61 44 1560 44C1569.39 44 1577 51.6112 1577 61Z" fill="#FE6B00"/>
<path d="M1556.52 66.12C1556.27 66.12 1556.06 66.055 1555.9 65.925C1555.74 65.785 1555.64 65.615 1555.61 65.415C1555.59 65.205 1555.66 64.995 1555.82 64.785L1558.94 60.615L1555.99 56.655C1555.83 56.435 1555.76 56.225 1555.78 56.025C1555.8 55.815 1555.89 55.645 1556.05 55.515C1556.21 55.375 1556.41 55.305 1556.65 55.305C1557.02 55.305 1557.35 55.51 1557.65 55.92L1560.04 59.22L1562.43 55.92C1562.73 55.51 1563.06 55.305 1563.44 55.305C1563.69 55.305 1563.9 55.37 1564.06 55.5C1564.22 55.63 1564.31 55.8 1564.33 56.01C1564.35 56.21 1564.28 56.425 1564.11 56.655L1561.15 60.615L1564.26 64.785C1564.42 64.995 1564.48 65.205 1564.47 65.415C1564.44 65.615 1564.35 65.785 1564.19 65.925C1564.03 66.055 1563.83 66.12 1563.57 66.12C1563.21 66.12 1562.87 65.91 1562.56 65.49L1560.04 62.04L1557.53 65.49C1557.22 65.91 1556.89 66.12 1556.52 66.12Z" fill="#FE6B00"/>
<path d="M1560 78.5C1569.66 78.5 1577.5 70.665 1577.5 61C1577.5 51.335 1569.66 43.5 1560 43.5C1550.34 43.5 1542.5 51.335 1542.5 61C1542.5 70.665 1550.34 78.5 1560 78.5Z" stroke="#FE6B00"/>
<rect x="805.5" y="144.5" width="299" height="44" rx="11.5" stroke="#FE6B00"/>
<rect x="1065.5" y="149" width="35" height="35" rx="9.5" fill="#FE5000" fill-opacity="0.13"/>
<rect x="1065.5" y="149" width="35" height="35" rx="9.5" stroke="#FE6B00"/>
<rect x="1759.5" y="449.5" width="449" height="44" rx="11.5" stroke="#FE6B00"/>
<rect x="2123.5" y="454" width="35" height="35" rx="9.5" fill="#FE5000" fill-opacity="0.13"/>
<rect x="2123.5" y="454" width="35" height="35" rx="9.5" stroke="#FE6B00"/>
<rect x="2169.5" y="454" width="35" height="35" rx="9.5" fill="#FE5000" fill-opacity="0.13"/>
<rect x="2169.5" y="454" width="35" height="35" rx="9.5" stroke="#FE6B00"/>
<rect x="1942.5" y="517.5" width="266" height="44" rx="11.5" stroke="#FE6B00"/>
<rect x="2169.5" y="522" width="35" height="35" rx="9.5" fill="#FE5000" fill-opacity="0.13"/>
<rect x="2169.5" y="522" width="35" height="35" rx="9.5" stroke="#FE6B00"/>
<rect x="805.5" y="73.5" width="300" height="43" rx="9.5" fill="white" stroke="#FE6B00"/>
<rect x="7.5" y="68.5" width="144" height="225" rx="9.5" fill="white" stroke="#FE6B00"/>
<g clip-path="url(#clip5_1450_2982)">
<g filter="url(#filter8_d_1450_2982)">
<rect x="547.5" y="334" width="20" height="20" rx="10" fill="#FE6B00"/>
</g>
</g>
<rect x="454.5" y="330.5" width="206" height="27" rx="13.5" stroke="#FE6B00"/>
<mask id="path-65-inside-1_1450_2982" fill="white">
<path d="M456 421C456 414.373 461.373 409 468 409H541C547.627 409 553 414.373 553 421V431C553 437.627 547.627 443 541 443H468C461.373 443 456 437.627 456 431V421Z"/>
</mask>
<path d="M456 421C456 414.373 461.373 409 468 409H541C547.627 409 553 414.373 553 421V431C553 437.627 547.627 443 541 443H468C461.373 443 456 437.627 456 431V421Z" fill="white"/>
<path d="M468 410H541V408H468V410ZM552 421V431H554V421H552ZM541 442H468V444H541V442ZM457 431V421H455V431H457ZM468 442C461.925 442 457 437.075 457 431H455C455 438.18 460.82 444 468 444V442ZM552 431C552 437.075 547.075 442 541 442V444C548.18 444 554 438.18 554 431H552ZM541 410C547.075 410 552 414.925 552 421H554C554 413.82 548.18 408 541 408V410ZM468 408C460.82 408 455 413.82 455 421H457C457 414.925 461.925 410 468 410V408Z" fill="#FE6B00" mask="url(#path-65-inside-1_1450_2982)"/>
<path d="M475.672 430.084C475.472 430.084 475.316 430.028 475.204 429.916C475.1 429.804 475.048 429.648 475.048 429.448V422.584H472.504C472.336 422.584 472.204 422.54 472.108 422.452C472.012 422.356 471.964 422.224 471.964 422.056C471.964 421.888 472.012 421.76 472.108 421.672C472.204 421.584 472.336 421.54 472.504 421.54H478.828C479.004 421.54 479.14 421.584 479.236 421.672C479.332 421.76 479.38 421.888 479.38 422.056C479.38 422.224 479.332 422.356 479.236 422.452C479.14 422.54 479.004 422.584 478.828 422.584H476.284V429.448C476.284 429.648 476.232 429.804 476.128 429.916C476.032 430.028 475.88 430.084 475.672 430.084ZM481.806 430.108C481.214 430.108 480.702 429.984 480.27 429.736C479.846 429.488 479.514 429.136 479.274 428.68C479.034 428.224 478.914 427.688 478.914 427.072C478.914 426.6 478.982 426.18 479.118 425.812C479.254 425.444 479.446 425.128 479.694 424.864C479.95 424.592 480.254 424.388 480.606 424.252C480.966 424.108 481.366 424.036 481.806 424.036C482.39 424.036 482.894 424.16 483.318 424.408C483.75 424.656 484.086 425.008 484.326 425.464C484.566 425.912 484.686 426.448 484.686 427.072C484.686 427.536 484.618 427.956 484.482 428.332C484.346 428.708 484.15 429.028 483.894 429.292C483.646 429.556 483.342 429.76 482.982 429.904C482.63 430.04 482.238 430.108 481.806 430.108ZM481.806 429.172C482.134 429.172 482.422 429.092 482.67 428.932C482.918 428.772 483.11 428.536 483.246 428.224C483.39 427.912 483.462 427.528 483.462 427.072C483.462 426.384 483.31 425.864 483.006 425.512C482.702 425.16 482.302 424.984 481.806 424.984C481.47 424.984 481.178 425.064 480.93 425.224C480.682 425.376 480.486 425.608 480.342 425.92C480.206 426.232 480.138 426.616 480.138 427.072C480.138 427.752 480.29 428.272 480.594 428.632C480.898 428.992 481.302 429.172 481.806 429.172ZM488.591 430.108C487.999 430.108 487.487 429.984 487.055 429.736C486.631 429.488 486.299 429.136 486.059 428.68C485.819 428.224 485.699 427.688 485.699 427.072C485.699 426.6 485.767 426.18 485.903 425.812C486.039 425.444 486.231 425.128 486.479 424.864C486.735 424.592 487.039 424.388 487.391 424.252C487.751 424.108 488.151 424.036 488.591 424.036C489.175 424.036 489.679 424.16 490.103 424.408C490.535 424.656 490.871 425.008 491.111 425.464C491.351 425.912 491.471 426.448 491.471 427.072C491.471 427.536 491.403 427.956 491.267 428.332C491.131 428.708 490.935 429.028 490.679 429.292C490.431 429.556 490.127 429.76 489.767 429.904C489.415 430.04 489.023 430.108 488.591 430.108ZM488.591 429.172C488.919 429.172 489.207 429.092 489.455 428.932C489.703 428.772 489.895 428.536 490.031 428.224C490.175 427.912 490.247 427.528 490.247 427.072C490.247 426.384 490.095 425.864 489.791 425.512C489.487 425.16 489.087 424.984 488.591 424.984C488.255 424.984 487.963 425.064 487.715 425.224C487.467 425.376 487.271 425.608 487.127 425.92C486.991 426.232 486.923 426.616 486.923 427.072C486.923 427.752 487.075 428.272 487.379 428.632C487.683 428.992 488.087 429.172 488.591 429.172ZM494.716 430.108C494.092 430.108 493.62 429.928 493.3 429.568C492.988 429.2 492.832 428.672 492.832 427.984V422.068C492.832 421.868 492.884 421.716 492.988 421.612C493.092 421.508 493.24 421.456 493.432 421.456C493.624 421.456 493.772 421.508 493.876 421.612C493.988 421.716 494.044 421.868 494.044 422.068V427.912C494.044 428.312 494.124 428.612 494.284 428.812C494.452 429.004 494.692 429.1 495.004 429.1C495.076 429.1 495.14 429.1 495.196 429.1C495.252 429.092 495.308 429.084 495.364 429.076C495.46 429.068 495.528 429.096 495.568 429.16C495.608 429.216 495.628 429.336 495.628 429.52C495.628 429.688 495.592 429.82 495.52 429.916C495.448 430.004 495.332 430.06 495.172 430.084C495.1 430.092 495.024 430.096 494.944 430.096C494.864 430.104 494.788 430.108 494.716 430.108ZM498.868 430.108C498.388 430.108 497.984 430.024 497.656 429.856C497.328 429.688 497.084 429.44 496.924 429.112C496.764 428.784 496.684 428.384 496.684 427.912V425.08H495.964C495.804 425.08 495.68 425.04 495.592 424.96C495.504 424.872 495.46 424.756 495.46 424.612C495.46 424.46 495.504 424.344 495.592 424.264C495.68 424.184 495.804 424.144 495.964 424.144H496.684V422.908C496.684 422.708 496.736 422.556 496.84 422.452C496.952 422.348 497.104 422.296 497.296 422.296C497.488 422.296 497.636 422.348 497.74 422.452C497.844 422.556 497.896 422.708 497.896 422.908V424.144H499.3C499.46 424.144 499.584 424.184 499.672 424.264C499.76 424.344 499.804 424.46 499.804 424.612C499.804 424.756 499.76 424.872 499.672 424.96C499.584 425.04 499.46 425.08 499.3 425.08H497.896V427.816C497.896 428.24 497.984 428.56 498.16 428.776C498.344 428.992 498.64 429.1 499.048 429.1C499.192 429.1 499.316 429.088 499.42 429.064C499.532 429.032 499.624 429.012 499.696 429.004C499.784 429.004 499.856 429.036 499.912 429.1C499.968 429.156 499.996 429.268 499.996 429.436C499.996 429.556 499.972 429.668 499.924 429.772C499.884 429.876 499.808 429.944 499.696 429.976C499.6 430.008 499.468 430.036 499.3 430.06C499.14 430.092 498.996 430.108 498.868 430.108ZM501.46 430.072C501.268 430.072 501.12 430.016 501.016 429.904C500.912 429.784 500.86 429.62 500.86 429.412V424.732C500.86 424.524 500.912 424.364 501.016 424.252C501.12 424.14 501.268 424.084 501.46 424.084C501.652 424.084 501.8 424.14 501.904 424.252C502.016 424.364 502.072 424.524 502.072 424.732V429.412C502.072 429.62 502.02 429.784 501.916 429.904C501.812 430.016 501.66 430.072 501.46 430.072ZM501.46 422.836C501.22 422.836 501.032 422.776 500.896 422.656C500.768 422.536 500.704 422.368 500.704 422.152C500.704 421.928 500.768 421.76 500.896 421.648C501.032 421.528 501.22 421.468 501.46 421.468C501.7 421.468 501.884 421.528 502.012 421.648C502.148 421.76 502.216 421.928 502.216 422.152C502.216 422.368 502.148 422.536 502.012 422.656C501.884 422.776 501.7 422.836 501.46 422.836ZM504.378 432.244C504.186 432.244 504.038 432.192 503.934 432.088C503.83 431.984 503.778 431.832 503.778 431.632V424.672C503.778 424.472 503.83 424.32 503.934 424.216C504.038 424.112 504.182 424.06 504.366 424.06C504.558 424.06 504.706 424.112 504.81 424.216C504.914 424.32 504.966 424.472 504.966 424.672V425.716L504.834 425.464C504.962 425.032 505.214 424.688 505.59 424.432C505.966 424.168 506.41 424.036 506.922 424.036C507.442 424.036 507.894 424.16 508.278 424.408C508.67 424.656 508.97 425.004 509.178 425.452C509.394 425.9 509.502 426.44 509.502 427.072C509.502 427.688 509.394 428.228 509.178 428.692C508.97 429.148 508.674 429.5 508.29 429.748C507.906 429.988 507.45 430.108 506.922 430.108C506.418 430.108 505.978 429.98 505.602 429.724C505.226 429.468 504.974 429.128 504.846 428.704H504.99V431.632C504.99 431.832 504.934 431.984 504.822 432.088C504.718 432.192 504.57 432.244 504.378 432.244ZM506.622 429.172C506.958 429.172 507.25 429.092 507.498 428.932C507.746 428.772 507.938 428.536 508.074 428.224C508.21 427.912 508.278 427.528 508.278 427.072C508.278 426.384 508.126 425.864 507.822 425.512C507.526 425.16 507.126 424.984 506.622 424.984C506.294 424.984 506.002 425.064 505.746 425.224C505.498 425.376 505.306 425.608 505.17 425.92C505.034 426.232 504.966 426.616 504.966 427.072C504.966 427.752 505.118 428.272 505.422 428.632C505.726 428.992 506.126 429.172 506.622 429.172ZM516.852 430.084C516.652 430.084 516.496 430.028 516.384 429.916C516.28 429.804 516.228 429.648 516.228 429.448V422.584H513.684C513.516 422.584 513.384 422.54 513.288 422.452C513.192 422.356 513.144 422.224 513.144 422.056C513.144 421.888 513.192 421.76 513.288 421.672C513.384 421.584 513.516 421.54 513.684 421.54H520.008C520.184 421.54 520.32 421.584 520.416 421.672C520.512 421.76 520.56 421.888 520.56 422.056C520.56 422.224 520.512 422.356 520.416 422.452C520.32 422.54 520.184 422.584 520.008 422.584H517.464V429.448C517.464 429.648 517.412 429.804 517.308 429.916C517.212 430.028 517.06 430.084 516.852 430.084ZM523.19 430.108C522.55 430.108 521.998 429.988 521.534 429.748C521.078 429.5 520.722 429.152 520.466 428.704C520.218 428.248 520.094 427.708 520.094 427.084C520.094 426.476 520.218 425.944 520.466 425.488C520.714 425.032 521.054 424.676 521.486 424.42C521.918 424.164 522.41 424.036 522.962 424.036C523.37 424.036 523.734 424.104 524.054 424.24C524.374 424.368 524.646 424.56 524.87 424.816C525.102 425.064 525.274 425.368 525.386 425.728C525.506 426.088 525.566 426.492 525.566 426.94C525.566 427.076 525.526 427.18 525.446 427.252C525.366 427.316 525.246 427.348 525.086 427.348H521.054V426.604H524.75L524.546 426.772C524.546 426.372 524.486 426.032 524.366 425.752C524.254 425.472 524.082 425.26 523.85 425.116C523.626 424.964 523.346 424.888 523.01 424.888C522.634 424.888 522.314 424.976 522.05 425.152C521.794 425.328 521.598 425.572 521.462 425.884C521.326 426.196 521.258 426.56 521.258 426.976V427.048C521.258 427.752 521.422 428.284 521.75 428.644C522.086 428.996 522.57 429.172 523.202 429.172C523.442 429.172 523.694 429.14 523.958 429.076C524.23 429.012 524.486 428.904 524.726 428.752C524.862 428.672 524.982 428.636 525.086 428.644C525.198 428.652 525.286 428.688 525.35 428.752C525.422 428.816 525.466 428.896 525.482 428.992C525.498 429.088 525.482 429.188 525.434 429.292C525.386 429.388 525.302 429.476 525.182 429.556C524.91 429.74 524.594 429.88 524.234 429.976C523.874 430.064 523.526 430.108 523.19 430.108ZM527.044 430.072C526.9 430.072 526.78 430.032 526.684 429.952C526.596 429.864 526.548 429.756 526.54 429.628C526.54 429.5 526.596 429.36 526.708 429.208L528.736 426.676V427.276L526.84 424.912C526.712 424.768 526.652 424.632 526.66 424.504C526.668 424.368 526.72 424.26 526.816 424.18C526.912 424.1 527.028 424.06 527.164 424.06C527.316 424.06 527.44 424.088 527.536 424.144C527.64 424.192 527.736 424.276 527.824 424.396L529.42 426.424H528.988L530.596 424.396C530.684 424.276 530.776 424.192 530.872 424.144C530.976 424.088 531.1 424.06 531.244 424.06C531.388 424.06 531.504 424.104 531.592 424.192C531.688 424.272 531.736 424.38 531.736 424.516C531.744 424.644 531.688 424.78 531.568 424.924L529.672 427.252V426.712L531.7 429.208C531.82 429.352 531.876 429.492 531.868 429.628C531.868 429.756 531.82 429.864 531.724 429.952C531.628 430.032 531.508 430.072 531.364 430.072C531.22 430.072 531.096 430.044 530.992 429.988C530.896 429.932 530.8 429.848 530.704 429.736L528.988 427.576H529.396L527.692 429.736C527.604 429.84 527.508 429.924 527.404 429.988C527.308 430.044 527.188 430.072 527.044 430.072ZM535.746 430.108C535.266 430.108 534.862 430.024 534.534 429.856C534.206 429.688 533.962 429.44 533.802 429.112C533.642 428.784 533.562 428.384 533.562 427.912V425.08H532.842C532.682 425.08 532.558 425.04 532.47 424.96C532.382 424.872 532.338 424.756 532.338 424.612C532.338 424.46 532.382 424.344 532.47 424.264C532.558 424.184 532.682 424.144 532.842 424.144H533.562V422.908C533.562 422.708 533.614 422.556 533.718 422.452C533.83 422.348 533.982 422.296 534.174 422.296C534.366 422.296 534.514 422.348 534.618 422.452C534.722 422.556 534.774 422.708 534.774 422.908V424.144H536.178C536.338 424.144 536.462 424.184 536.55 424.264C536.638 424.344 536.682 424.46 536.682 424.612C536.682 424.756 536.638 424.872 536.55 424.96C536.462 425.04 536.338 425.08 536.178 425.08H534.774V427.816C534.774 428.24 534.862 428.56 535.038 428.776C535.222 428.992 535.518 429.1 535.926 429.1C536.07 429.1 536.194 429.088 536.298 429.064C536.41 429.032 536.502 429.012 536.574 429.004C536.662 429.004 536.734 429.036 536.79 429.1C536.846 429.156 536.874 429.268 536.874 429.436C536.874 429.556 536.85 429.668 536.802 429.772C536.762 429.876 536.686 429.944 536.574 429.976C536.478 430.008 536.346 430.036 536.178 430.06C536.018 430.092 535.874 430.108 535.746 430.108Z" fill="white"/>
<path d="M504.567 403.75C504.759 403.417 505.241 403.417 505.433 403.75L508.031 408.25C508.224 408.583 507.983 409 507.598 409H502.402C502.017 409 501.776 408.583 501.969 408.25L504.567 403.75Z" stroke="#FE6B00" stroke-linejoin="round"/>
<path d="M1108.5 439C1108.5 523.776 1039.78 592.5 955 592.5C870.224 592.5 801.5 523.776 801.5 439C801.5 354.224 870.224 285.5 955 285.5C1039.78 285.5 1108.5 354.224 1108.5 439Z" fill="#FE6B00" fill-opacity="0.16" stroke="#FE6B00"/>
<circle cx="955" cy="438" r="79.5" fill="white" stroke="#FE6B00"/>
<path d="M1031.39 463.605C1025.29 482.529 1035.69 502.813 1054.61 508.91C1073.54 515.006 1093.82 504.608 1099.92 485.683L1031.39 463.605ZM1065.71 403.076L1100 392.094L1100 392.094L1065.71 403.076ZM1024.08 344.862L1045.56 315.968L1024.08 344.862ZM1099.92 485.683C1109.72 455.261 1109.75 422.533 1100 392.094L1031.43 414.057C1036.59 430.172 1036.58 447.499 1031.39 463.605L1099.92 485.683ZM1100 392.094C1090.25 361.655 1071.21 335.034 1045.56 315.968L1002.61 373.755C1016.19 383.849 1026.27 397.943 1031.43 414.057L1100 392.094ZM1045.56 315.968C1019.9 296.902 988.924 286.349 956.967 285.789L955.707 357.778C972.625 358.074 989.027 363.662 1002.61 373.755L1045.56 315.968Z" fill="#FE6B00"/>
<circle cx="1066" cy="475" r="30.5" fill="white" stroke="#FE6B00"/>
<rect x="454.5" y="224.5" width="354" height="60" rx="30" fill="#FE6B00" fill-opacity="0.16" stroke="#FE6B00" stroke-linejoin="round"/>
<rect x="456" y="226" width="201" height="57" rx="28.5" fill="#FE6B00"/>
<rect x="601" y="228" width="53" height="53" rx="26.5" fill="white"/>
<rect x="456" y="75" width="300" height="97" rx="25" fill="#FE6B00"/>
<rect x="456.5" y="75.5" width="299" height="93" rx="24.5" fill="white"/>
<rect x="456.5" y="75.5" width="299" height="93" rx="24.5" stroke="#FE6B00"/>
<rect x="645.5" y="85.5" width="61" height="31" rx="15.5" stroke="#FE6B00"/>
<circle opacity="0.2" cx="729" cy="101" r="13" stroke="#FE6B00" stroke-width="5"/>
<path d="M730.235 88.0592C731.934 88.2214 733.585 88.7167 735.093 89.5168C736.601 90.317 737.937 91.4063 739.024 92.7227C740.111 94.0391 740.928 95.5566 741.429 97.1888C741.929 98.8209 742.104 100.536 741.941 102.235" stroke="#FE6B00" stroke-width="5" stroke-linecap="round" stroke-linejoin="round"/>
<g filter="url(#filter9_d_1450_2982)">
<rect x="472.901" y="53" width="45" height="45" rx="22.5" fill="#FE6B00"/>
</g>
<rect x="1393.5" y="507.5" width="171" height="88" rx="15.5" fill="#FE6B00" fill-opacity="0.05" stroke="#FE6B00"/>
<g filter="url(#filter10_d_1450_2982)">
<g filter="url(#filter11_d_1450_2982)">
<rect x="182" y="62" width="232" height="262" rx="18" fill="#FE6B00"/>
<rect x="182.5" y="62.5" width="231" height="261" rx="17.5" stroke="#FE6B00" stroke-opacity="0.15"/>
<rect x="182.5" y="62.5" width="231" height="257" rx="17.5" fill="white"/>
<rect x="182.5" y="62.5" width="231" height="257" rx="17.5" stroke="#FE6B00"/>
<rect x="198.5" y="78.5" width="199" height="41" rx="11.5" stroke="#FE6B00"/>
<path d="M265.302 103.096C265.086 103.096 264.91 103.044 264.774 102.94C264.646 102.836 264.542 102.672 264.462 102.448L261.954 95.356C261.866 95.1 261.882 94.884 262.002 94.708C262.13 94.532 262.342 94.444 262.638 94.444C262.854 94.444 263.022 94.496 263.142 94.6C263.262 94.696 263.358 94.852 263.43 95.068L265.59 101.476H265.11L267.366 95.08C267.446 94.864 267.546 94.704 267.666 94.6C267.786 94.496 267.942 94.444 268.134 94.444C268.326 94.444 268.478 94.496 268.59 94.6C268.702 94.704 268.798 94.868 268.878 95.092L271.062 101.476H270.642L272.838 95.068C272.91 94.86 273.006 94.704 273.126 94.6C273.246 94.496 273.41 94.444 273.618 94.444C273.874 94.444 274.062 94.532 274.182 94.708C274.302 94.884 274.318 95.1 274.23 95.356L271.698 102.46C271.618 102.676 271.514 102.836 271.386 102.94C271.258 103.044 271.086 103.096 270.87 103.096C270.654 103.096 270.482 103.044 270.354 102.94C270.226 102.836 270.122 102.672 270.042 102.448L267.954 96.496H268.23L266.118 102.46C266.038 102.676 265.934 102.836 265.806 102.94C265.686 103.044 265.518 103.096 265.302 103.096ZM277.468 103.12C276.86 103.12 276.332 102.996 275.884 102.748C275.436 102.5 275.088 102.148 274.84 101.692C274.592 101.228 274.468 100.684 274.468 100.06C274.468 99.588 274.536 99.168 274.672 98.8C274.816 98.424 275.02 98.104 275.284 97.84C275.548 97.568 275.864 97.364 276.232 97.228C276.6 97.084 277.012 97.012 277.468 97.012C278.076 97.012 278.604 97.136 279.052 97.384C279.5 97.632 279.848 97.984 280.096 98.44C280.344 98.896 280.468 99.436 280.468 100.06C280.468 100.532 280.396 100.956 280.252 101.332C280.116 101.708 279.916 102.032 279.652 102.304C279.388 102.568 279.072 102.772 278.704 102.916C278.336 103.052 277.924 103.12 277.468 103.12ZM277.468 101.98C277.764 101.98 278.024 101.908 278.248 101.764C278.472 101.62 278.644 101.408 278.764 101.128C278.892 100.84 278.956 100.484 278.956 100.06C278.956 99.42 278.82 98.944 278.548 98.632C278.276 98.312 277.916 98.152 277.468 98.152C277.172 98.152 276.912 98.224 276.688 98.368C276.464 98.504 276.288 98.716 276.16 99.004C276.04 99.284 275.98 99.636 275.98 100.06C275.98 100.692 276.116 101.172 276.388 101.5C276.66 101.82 277.02 101.98 277.468 101.98ZM282.474 103.096C282.226 103.096 282.034 103.032 281.898 102.904C281.77 102.768 281.706 102.576 281.706 102.328V97.792C281.706 97.544 281.77 97.356 281.898 97.228C282.026 97.1 282.206 97.036 282.438 97.036C282.67 97.036 282.85 97.1 282.978 97.228C283.106 97.356 283.17 97.544 283.17 97.792V98.548H283.05C283.162 98.068 283.382 97.704 283.71 97.456C284.038 97.208 284.474 97.06 285.018 97.012C285.186 96.996 285.318 97.04 285.414 97.144C285.518 97.24 285.578 97.392 285.594 97.6C285.61 97.8 285.562 97.964 285.45 98.092C285.346 98.212 285.186 98.284 284.97 98.308L284.706 98.332C284.218 98.38 283.85 98.532 283.602 98.788C283.354 99.036 283.23 99.388 283.23 99.844V102.328C283.23 102.576 283.166 102.768 283.038 102.904C282.91 103.032 282.722 103.096 282.474 103.096ZM287.149 103.096C286.909 103.096 286.725 103.032 286.597 102.904C286.469 102.768 286.405 102.576 286.405 102.328V95.2C286.405 94.952 286.469 94.764 286.597 94.636C286.725 94.508 286.909 94.444 287.149 94.444C287.389 94.444 287.573 94.508 287.701 94.636C287.837 94.764 287.905 94.952 287.905 95.2V99.628H287.929L289.909 97.54C290.069 97.38 290.209 97.256 290.329 97.168C290.449 97.08 290.613 97.036 290.821 97.036C291.029 97.036 291.185 97.092 291.289 97.204C291.401 97.308 291.457 97.436 291.457 97.588C291.457 97.74 291.385 97.892 291.241 98.044L289.153 100.252V99.628L291.445 102.1C291.589 102.252 291.653 102.408 291.637 102.568C291.629 102.72 291.565 102.848 291.445 102.952C291.325 103.048 291.173 103.096 290.989 103.096C290.765 103.096 290.585 103.052 290.449 102.964C290.321 102.876 290.177 102.744 290.017 102.568L287.929 100.384H287.905V102.328C287.905 102.84 287.653 103.096 287.149 103.096ZM293.583 103.084C293.343 103.084 293.159 103.012 293.031 102.868C292.903 102.724 292.839 102.524 292.839 102.268V97.864C292.839 97.6 292.903 97.4 293.031 97.264C293.159 97.12 293.343 97.048 293.583 97.048C293.823 97.048 294.007 97.12 294.135 97.264C294.271 97.4 294.339 97.6 294.339 97.864V102.268C294.339 102.524 294.275 102.724 294.147 102.868C294.019 103.012 293.831 103.084 293.583 103.084ZM293.583 95.932C293.303 95.932 293.083 95.864 292.923 95.728C292.771 95.584 292.695 95.388 292.695 95.14C292.695 94.884 292.771 94.688 292.923 94.552C293.083 94.416 293.303 94.348 293.583 94.348C293.871 94.348 294.091 94.416 294.243 94.552C294.395 94.688 294.471 94.884 294.471 95.14C294.471 95.388 294.395 95.584 294.243 95.728C294.091 95.864 293.871 95.932 293.583 95.932ZM296.641 103.096C296.401 103.096 296.217 103.032 296.089 102.904C295.961 102.768 295.897 102.576 295.897 102.328V97.792C295.897 97.544 295.961 97.356 296.089 97.228C296.217 97.1 296.397 97.036 296.629 97.036C296.861 97.036 297.041 97.1 297.169 97.228C297.297 97.356 297.361 97.544 297.361 97.792V98.608L297.229 98.308C297.405 97.884 297.677 97.564 298.045 97.348C298.421 97.124 298.845 97.012 299.317 97.012C299.789 97.012 300.177 97.1 300.481 97.276C300.785 97.452 301.013 97.72 301.165 98.08C301.317 98.432 301.393 98.88 301.393 99.424V102.328C301.393 102.576 301.329 102.768 301.201 102.904C301.073 103.032 300.889 103.096 300.649 103.096C300.409 103.096 300.221 103.032 300.085 102.904C299.957 102.768 299.893 102.576 299.893 102.328V99.496C299.893 99.04 299.805 98.708 299.629 98.5C299.461 98.292 299.197 98.188 298.837 98.188C298.397 98.188 298.045 98.328 297.781 98.608C297.525 98.88 297.397 99.244 297.397 99.7V102.328C297.397 102.84 297.145 103.096 296.641 103.096ZM305.653 105.28C305.221 105.28 304.801 105.24 304.393 105.16C303.993 105.08 303.629 104.956 303.301 104.788C303.149 104.708 303.045 104.612 302.989 104.5C302.941 104.388 302.925 104.272 302.941 104.152C302.965 104.04 303.013 103.94 303.085 103.852C303.165 103.764 303.261 103.704 303.373 103.672C303.485 103.64 303.601 103.656 303.721 103.72C304.073 103.896 304.405 104.008 304.717 104.056C305.037 104.112 305.309 104.14 305.533 104.14C306.069 104.14 306.469 104.008 306.733 103.744C307.005 103.488 307.141 103.104 307.141 102.592V101.512H307.249C307.129 101.92 306.877 102.248 306.493 102.496C306.117 102.736 305.689 102.856 305.209 102.856C304.681 102.856 304.221 102.736 303.829 102.496C303.437 102.248 303.133 101.904 302.917 101.464C302.701 101.024 302.593 100.512 302.593 99.928C302.593 99.488 302.653 99.092 302.773 98.74C302.901 98.38 303.077 98.072 303.301 97.816C303.533 97.56 303.809 97.364 304.129 97.228C304.457 97.084 304.817 97.012 305.209 97.012C305.705 97.012 306.137 97.136 306.505 97.384C306.881 97.624 307.125 97.944 307.237 98.344L307.117 98.644V97.792C307.117 97.544 307.181 97.356 307.309 97.228C307.445 97.1 307.629 97.036 307.861 97.036C308.101 97.036 308.285 97.1 308.413 97.228C308.541 97.356 308.605 97.544 308.605 97.792V102.412C308.605 103.364 308.353 104.08 307.849 104.56C307.345 105.04 306.613 105.28 305.653 105.28ZM305.617 101.716C305.929 101.716 306.197 101.644 306.421 101.5C306.645 101.356 306.817 101.152 306.937 100.888C307.065 100.616 307.129 100.296 307.129 99.928C307.129 99.376 306.993 98.944 306.721 98.632C306.449 98.312 306.081 98.152 305.617 98.152C305.305 98.152 305.037 98.224 304.813 98.368C304.589 98.512 304.413 98.716 304.285 98.98C304.165 99.244 304.105 99.56 304.105 99.928C304.105 100.48 304.241 100.916 304.513 101.236C304.785 101.556 305.153 101.716 305.617 101.716ZM314.377 103C314.113 103 313.909 102.932 313.765 102.796C313.629 102.652 313.561 102.448 313.561 102.184V95.356C313.561 95.092 313.629 94.892 313.765 94.756C313.909 94.612 314.113 94.54 314.377 94.54H316.705C318.121 94.54 319.213 94.904 319.981 95.632C320.757 96.36 321.145 97.404 321.145 98.764C321.145 99.444 321.045 100.048 320.845 100.576C320.653 101.096 320.365 101.536 319.981 101.896C319.605 102.256 319.141 102.532 318.589 102.724C318.045 102.908 317.417 103 316.705 103H314.377ZM315.097 101.728H316.609C317.105 101.728 317.533 101.668 317.893 101.548C318.261 101.42 318.565 101.236 318.805 100.996C319.053 100.748 319.237 100.44 319.357 100.072C319.477 99.696 319.537 99.26 319.537 98.764C319.537 97.772 319.293 97.032 318.805 96.544C318.317 96.056 317.585 95.812 316.609 95.812H315.097V101.728ZM324.489 103.12C324.065 103.12 323.685 103.04 323.349 102.88C323.021 102.712 322.761 102.488 322.569 102.208C322.385 101.928 322.293 101.612 322.293 101.26C322.293 100.828 322.405 100.488 322.629 100.24C322.853 99.984 323.217 99.8 323.721 99.688C324.225 99.576 324.901 99.52 325.749 99.52H326.349V100.384H325.761C325.265 100.384 324.869 100.408 324.573 100.456C324.277 100.504 324.065 100.588 323.937 100.708C323.817 100.82 323.757 100.98 323.757 101.188C323.757 101.452 323.849 101.668 324.033 101.836C324.217 102.004 324.473 102.088 324.801 102.088C325.065 102.088 325.297 102.028 325.497 101.908C325.705 101.78 325.869 101.608 325.989 101.392C326.109 101.176 326.169 100.928 326.169 100.648V99.268C326.169 98.868 326.081 98.58 325.905 98.404C325.729 98.228 325.433 98.14 325.017 98.14C324.785 98.14 324.533 98.168 324.261 98.224C323.997 98.28 323.717 98.376 323.421 98.512C323.269 98.584 323.133 98.604 323.013 98.572C322.901 98.54 322.813 98.476 322.749 98.38C322.685 98.276 322.653 98.164 322.653 98.044C322.653 97.924 322.685 97.808 322.749 97.696C322.813 97.576 322.921 97.488 323.073 97.432C323.441 97.28 323.793 97.172 324.129 97.108C324.473 97.044 324.785 97.012 325.065 97.012C325.641 97.012 326.113 97.1 326.481 97.276C326.857 97.452 327.137 97.72 327.321 98.08C327.505 98.432 327.597 98.888 327.597 99.448V102.328C327.597 102.576 327.537 102.768 327.417 102.904C327.297 103.032 327.125 103.096 326.901 103.096C326.677 103.096 326.501 103.032 326.373 102.904C326.253 102.768 326.193 102.576 326.193 102.328V101.752H326.289C326.233 102.032 326.121 102.276 325.953 102.484C325.793 102.684 325.589 102.84 325.341 102.952C325.093 103.064 324.809 103.12 324.489 103.12ZM330.549 105.256C330.373 105.256 330.229 105.208 330.117 105.112C330.005 105.024 329.937 104.904 329.913 104.752C329.897 104.6 329.925 104.44 329.997 104.272L330.813 102.46V103.084L328.629 98.032C328.557 97.856 328.533 97.692 328.557 97.54C328.581 97.388 328.653 97.268 328.773 97.18C328.901 97.084 329.073 97.036 329.289 97.036C329.473 97.036 329.621 97.08 329.733 97.168C329.845 97.248 329.945 97.404 330.033 97.636L331.653 101.68H331.293L332.949 97.624C333.037 97.4 333.141 97.248 333.261 97.168C333.381 97.08 333.541 97.036 333.741 97.036C333.917 97.036 334.057 97.084 334.161 97.18C334.265 97.268 334.329 97.388 334.353 97.54C334.377 97.684 334.349 97.844 334.269 98.02L331.353 104.68C331.249 104.904 331.137 105.056 331.017 105.136C330.897 105.216 330.741 105.256 330.549 105.256Z" fill="white"/>
<g filter="url(#filter12_d_1450_2982)">
<mask id="path-88-inside-2_1450_2982" fill="white">
<path d="M198 136C198 129.373 203.373 124 210 124H386C392.627 124 398 129.373 398 136V154C398 160.627 392.627 166 386 166H210C203.373 166 198 160.627 198 154V136Z"/>
</mask>
<path d="M197 136C197 128.82 202.82 123 210 123H386C393.18 123 399 128.82 399 136H397C397 129.925 392.075 125 386 125H210C203.925 125 199 129.925 199 136H197ZM399 156C399 163.18 393.18 169 386 169H210C202.82 169 197 163.18 197 156L199 154C199 158.971 203.925 163 210 163H386C392.075 163 397 158.971 397 154L399 156ZM210 169C202.82 169 197 163.18 197 156V136C197 128.82 202.82 123 210 123V125C203.925 125 199 129.925 199 136V154C199 158.971 203.925 163 210 163V169ZM386 123C393.18 123 399 128.82 399 136V156C399 163.18 393.18 169 386 169V163C392.075 163 397 158.971 397 154V136C397 129.925 392.075 125 386 125V123Z" fill="#FE6B00" mask="url(#path-88-inside-2_1450_2982)"/>
</g>
<rect x="198.5" y="170.5" width="199" height="41" rx="11.5" stroke="#FE6B00"/>
<g filter="url(#filter13_i_1450_2982)">
<rect x="198.5" y="216.5" width="199" height="41" rx="11.5" stroke="#FE6B00"/>
</g>
<g filter="url(#filter14_i_1450_2982)">
<rect x="198.5" y="262.5" width="199" height="41" rx="11.5" stroke="#FE6B00"/>
</g>
</g>
<path d="M300.12 48.3317L305.963 57.6743C307.004 59.3394 305.807 61.5 303.843 61.5H292.157C290.193 61.5 288.996 59.3394 290.037 57.6743L295.88 48.3317C296.86 46.7659 299.14 46.7659 300.12 48.3317Z" stroke="#FE6B00"/>
</g>
<path d="M1693.47 202.631C1693.47 221.816 1677.92 237.368 1658.74 237.368C1639.55 237.368 1624 221.816 1624 202.631C1624 183.447 1639.55 167.895 1658.74 167.895C1677.92 167.895 1693.47 183.447 1693.47 202.631ZM1632.26 202.631C1632.26 217.253 1644.12 229.106 1658.74 229.106C1673.36 229.106 1685.21 217.253 1685.21 202.631C1685.21 188.01 1673.36 176.156 1658.74 176.156C1644.12 176.156 1632.26 188.01 1632.26 202.631Z" fill="#FE6B00" fill-opacity="0.19"/>
<path d="M1658.74 171.894C1658.74 169.685 1660.53 167.871 1662.73 168.125C1665.92 168.494 1669.05 169.304 1672.03 170.539C1676.24 172.284 1680.07 174.843 1683.3 178.069C1686.53 181.294 1689.08 185.124 1690.83 189.338C1692.06 192.318 1692.87 195.449 1693.24 198.641C1693.5 200.835 1691.68 202.631 1689.47 202.631V202.631C1687.27 202.631 1685.51 200.831 1685.18 198.647C1684.85 196.506 1684.27 194.408 1683.44 192.399C1682.1 189.155 1680.13 186.208 1677.64 183.725C1675.16 181.242 1672.21 179.273 1668.97 177.929C1666.96 177.097 1664.86 176.515 1662.72 176.192C1660.54 175.863 1658.74 174.103 1658.74 171.894V171.894Z" fill="#FE6B00"/>
<path d="M1693.47 100.737C1693.47 119.921 1677.92 135.474 1658.74 135.474C1639.55 135.474 1624 119.921 1624 100.737C1624 81.5522 1639.55 66 1658.74 66C1677.92 66 1693.47 81.5522 1693.47 100.737ZM1632.26 100.737C1632.26 115.359 1644.12 127.212 1658.74 127.212C1673.36 127.212 1685.21 115.359 1685.21 100.737C1685.21 86.1151 1673.36 74.2618 1658.74 74.2618C1644.12 74.2618 1632.26 86.1151 1632.26 100.737Z" fill="#FE6B00" fill-opacity="0.19"/>
<path d="M1658.74 69.9996C1658.74 67.7907 1660.53 65.9762 1662.73 66.23C1667.77 66.8133 1672.64 68.4975 1676.99 71.1825C1682.48 74.5706 1686.91 79.4186 1689.8 85.1837C1692.68 90.9489 1693.91 97.4038 1693.34 103.826C1692.76 110.248 1690.41 116.384 1686.55 121.546C1682.69 126.709 1677.47 130.695 1671.47 133.057C1665.47 135.42 1658.93 136.066 1652.58 134.924C1646.24 133.782 1640.34 130.896 1635.54 126.59C1631.73 123.178 1628.74 118.979 1626.76 114.305C1625.9 112.272 1627.13 110.036 1629.25 109.413V109.413C1631.37 108.789 1633.57 110.02 1634.5 112.022C1636.02 115.283 1638.18 118.216 1640.88 120.637C1644.57 123.951 1649.12 126.172 1654 127.052C1658.88 127.931 1663.92 127.433 1668.53 125.614C1673.15 123.796 1677.17 120.728 1680.15 116.754C1683.12 112.78 1684.93 108.058 1685.37 103.114C1685.81 98.1713 1684.87 93.2029 1682.64 88.7654C1680.42 84.3278 1677.01 80.5962 1672.79 77.9884C1669.7 76.0841 1666.28 74.8339 1662.72 74.2979C1660.54 73.9687 1658.74 72.2086 1658.74 69.9996V69.9996Z" fill="#FE6B00"/>
<path d="M1696.56 307.614C1696.56 326.798 1681.01 342.351 1661.82 342.351C1642.64 342.351 1627.09 326.798 1627.09 307.614C1627.09 288.429 1642.64 272.877 1661.82 272.877C1681.01 272.877 1696.56 288.429 1696.56 307.614ZM1635.35 307.614C1635.35 322.236 1647.2 334.089 1661.82 334.089C1676.45 334.089 1688.3 322.236 1688.3 307.614C1688.3 292.992 1676.45 281.139 1661.82 281.139C1647.2 281.139 1635.35 292.992 1635.35 307.614Z" fill="#FE6B00" fill-opacity="0.26"/>
<path d="M1661.82 276.877C1661.82 274.668 1663.62 272.853 1665.82 273.107C1670.86 273.69 1675.73 275.374 1680.08 278.059C1685.56 281.448 1690 286.296 1692.88 292.061C1695.77 297.826 1697 304.281 1696.42 310.703C1695.85 317.125 1693.5 323.261 1689.64 328.423C1685.78 333.586 1680.55 337.571 1674.55 339.934C1668.55 342.297 1662.02 342.943 1655.67 341.801C1649.33 340.659 1643.42 337.773 1638.62 333.467C1634.82 330.054 1631.83 325.856 1629.85 321.182C1628.98 319.149 1630.22 316.913 1632.34 316.29V316.29C1634.46 315.666 1636.65 316.897 1637.59 318.899C1639.1 322.16 1641.27 325.093 1643.97 327.514C1647.66 330.828 1652.2 333.049 1657.09 333.928C1661.97 334.808 1667 334.31 1671.62 332.491C1676.24 330.673 1680.26 327.605 1683.23 323.631C1686.21 319.657 1688.01 314.935 1688.46 309.991C1688.9 305.048 1687.95 300.08 1685.73 295.642C1683.51 291.205 1680.1 287.473 1675.87 284.865C1672.79 282.961 1669.37 281.711 1665.81 281.175C1663.62 280.846 1661.82 279.086 1661.82 276.877V276.877Z" fill="#FE6B00"/>
<path d="M1700.56 338.871C1700.64 338.955 1700.74 339.021 1700.85 339.067C1700.96 339.112 1701.07 339.136 1701.19 339.136C1701.31 339.136 1701.43 339.112 1701.54 339.067C1701.65 339.021 1701.75 338.955 1701.83 338.871L1705.65 335.05C1705.74 334.967 1705.8 334.867 1705.85 334.757C1705.9 334.647 1705.92 334.529 1705.93 334.41C1705.93 334.29 1705.9 334.172 1705.86 334.061C1705.81 333.95 1705.75 333.85 1705.66 333.765C1705.58 333.681 1705.48 333.614 1705.37 333.568C1705.25 333.523 1705.14 333.5 1705.02 333.501C1704.9 333.502 1704.78 333.527 1704.67 333.574C1704.56 333.622 1704.46 333.69 1704.38 333.776L1702.09 336.06L1702.09 331.029C1702.09 330.791 1702 330.562 1701.83 330.393C1701.66 330.224 1701.43 330.129 1701.19 330.129C1700.95 330.129 1700.72 330.224 1700.56 330.393C1700.39 330.562 1700.29 330.791 1700.29 331.029L1700.29 336.06L1698.01 333.776C1697.92 333.69 1697.83 333.622 1697.72 333.574C1697.61 333.527 1697.49 333.502 1697.37 333.501C1697.25 333.5 1697.13 333.523 1697.02 333.568C1696.91 333.614 1696.81 333.681 1696.72 333.765C1696.64 333.85 1696.57 333.95 1696.53 334.061C1696.48 334.172 1696.46 334.29 1696.46 334.41C1696.46 334.529 1696.49 334.647 1696.53 334.757C1696.58 334.867 1696.65 334.967 1696.73 335.05L1700.56 338.871ZM1701.19 343.638C1696.22 343.638 1692.19 339.606 1692.19 334.632C1692.19 329.658 1696.22 325.626 1701.19 325.626C1706.17 325.626 1710.2 329.658 1710.2 334.632C1710.2 339.606 1706.17 343.638 1701.19 343.638Z" fill="#FE6B00"/>
<path d="M1701.19 270.046C1696.22 270.046 1692.19 274.08 1692.19 279.052C1692.19 284.024 1696.22 288.058 1701.19 288.058C1706.16 288.058 1710.2 284.024 1710.2 279.052C1710.2 274.08 1706.16 270.046 1701.19 270.046ZM1700.91 284.305C1700.73 284.305 1700.54 284.25 1700.39 284.147C1700.24 284.044 1700.12 283.897 1700.04 283.726C1699.97 283.555 1699.96 283.366 1699.99 283.184C1700.03 283.002 1700.12 282.835 1700.25 282.704C1700.38 282.573 1700.55 282.483 1700.73 282.447C1700.91 282.411 1701.1 282.429 1701.27 282.5C1701.44 282.571 1701.59 282.692 1701.69 282.846C1701.79 283 1701.85 283.182 1701.85 283.367C1701.85 283.616 1701.75 283.854 1701.57 284.03C1701.4 284.206 1701.16 284.305 1700.91 284.305ZM1702.48 279.521C1701.72 280.031 1701.62 280.499 1701.62 280.928C1701.62 281.102 1701.55 281.269 1701.42 281.392C1701.3 281.515 1701.13 281.585 1700.96 281.585C1700.78 281.585 1700.62 281.515 1700.49 281.392C1700.37 281.269 1700.3 281.102 1700.3 280.928C1700.3 279.9 1700.77 279.083 1701.75 278.43C1702.65 277.823 1703.16 277.438 1703.16 276.592C1703.16 276.017 1702.83 275.581 1702.15 275.258C1701.99 275.182 1701.64 275.107 1701.2 275.113C1700.65 275.12 1700.22 275.251 1699.9 275.516C1699.28 276.015 1699.22 276.558 1699.22 276.566C1699.22 276.652 1699.2 276.737 1699.16 276.815C1699.12 276.893 1699.07 276.963 1699.01 277.021C1698.94 277.079 1698.87 277.124 1698.79 277.153C1698.71 277.182 1698.62 277.195 1698.53 277.191C1698.45 277.187 1698.36 277.166 1698.29 277.129C1698.21 277.092 1698.14 277.04 1698.08 276.976C1698.02 276.912 1697.98 276.837 1697.95 276.756C1697.92 276.675 1697.91 276.589 1697.91 276.502C1697.91 276.388 1697.99 275.362 1699.07 274.495C1699.63 274.046 1700.34 273.812 1701.18 273.802C1701.78 273.795 1702.34 273.895 1702.72 274.075C1703.85 274.612 1704.48 275.507 1704.48 276.592C1704.48 278.179 1703.42 278.892 1702.48 279.521Z" fill="#FE6B00"/>
<rect x="1759.5" y="48.5" width="449" height="379" rx="23.5" stroke="#FE6B00"/>
<rect x="2156.5" y="62.5" width="33" height="33" rx="16.5" fill="#FE6B00" fill-opacity="0.11"/>
<rect x="2156.5" y="62.5" width="33" height="33" rx="16.5" stroke="#FE6B00"/>
<rect width="410" height="34.6667" transform="translate(1779 102)" fill="white"/>
<rect x="1779.5" y="102.5" width="409" height="33.6667" rx="7.5" fill="#FE6B00" fill-opacity="0.01"/>
<rect x="1779.5" y="102.5" width="409" height="33.6667" rx="7.5" stroke="#FE6B00"/>
<rect width="410" height="34.6667" transform="translate(1779 140.667)" fill="white"/>
<rect x="1779.5" y="141.167" width="409" height="33.6667" rx="7.5" fill="#FE6B00" fill-opacity="0.01"/>
<rect x="1779.5" y="141.167" width="409" height="33.6667" rx="7.5" stroke="#FE6B00"/>
<rect width="410" height="38.6667" transform="translate(1779 177.333)" fill="white"/>
<rect width="410" height="34.6667" transform="translate(1779 179.333)" fill="white"/>
<rect x="1779.5" y="179.833" width="409" height="33.6667" rx="7.5" fill="#FE6B00" fill-opacity="0.01"/>
<rect x="1779.5" y="179.833" width="409" height="33.6667" rx="7.5" stroke="#FE6B00"/>
<rect width="410" height="34.6667" transform="translate(1779 218)" fill="white"/>
<rect x="1779.5" y="218.5" width="409" height="33.6667" rx="7.5" fill="#FE6B00" fill-opacity="0.01"/>
<rect x="1779.5" y="218.5" width="409" height="33.6667" rx="7.5" stroke="#FE6B00"/>
<rect width="410" height="34.6667" transform="translate(1779 256.667)" fill="white"/>
<rect x="1779.5" y="257.167" width="409" height="33.6667" rx="7.5" fill="#FE6B00" fill-opacity="0.01"/>
<rect x="1779.5" y="257.167" width="409" height="33.6667" rx="7.5" stroke="#FE6B00"/>
<rect width="410" height="34.6667" transform="translate(1779 295.333)" fill="white"/>
<rect x="1779.5" y="295.833" width="409" height="33.6667" rx="7.5" fill="#FE6B00" fill-opacity="0.01"/>
<rect x="1779.5" y="295.833" width="409" height="33.6667" rx="7.5" stroke="#FE6B00"/>
<rect width="410" height="34.6667" transform="translate(1779 334)" fill="white"/>
<rect x="1779.5" y="334.5" width="409" height="33.6667" rx="7.5" fill="#FE6B00" fill-opacity="0.01"/>
<rect x="1779.5" y="334.5" width="409" height="33.6667" rx="7.5" stroke="#FE6B00"/>
<rect width="410" height="34.6667" transform="translate(1779 372.667)" fill="white"/>
<rect x="1779.5" y="373.167" width="409" height="33.6667" rx="7.5" fill="#FE6B00" fill-opacity="0.01"/>
<rect x="1779.5" y="373.167" width="409" height="33.6667" rx="7.5" stroke="#FE6B00"/>
<path d="M10.9761 336C7.10967 336 4.00068 338.546 4.00068 341.688C4.00068 343.044 4.58447 344.285 5.55846 345.261C5.21666 346.639 4.07451 347.866 4.06084 347.88C3.99932 347.942 3.98223 348.037 4.01982 348.119C4.05398 348.201 4.12977 348.249 4.21864 348.249C6.03016 348.249 7.36591 347.381 8.06317 346.844C8.9554 347.179 9.95044 347.374 10.9999 347.374C14.8663 347.374 17.9753 344.828 17.9753 341.711C17.9753 338.595 14.8425 336 10.9761 336ZM7.45147 342.562C6.96611 342.562 6.57647 342.173 6.57647 341.712C6.57647 341.251 6.96611 340.837 7.45147 340.837C7.93682 340.837 8.32647 341.227 8.32647 341.712C8.32647 342.197 7.96006 342.562 7.45147 342.562ZM10.9761 342.562C10.4907 342.562 10.1257 342.173 10.1257 341.712C10.1257 341.251 10.5153 340.837 10.9761 340.837C11.4368 340.837 11.8265 341.227 11.8265 341.712C11.8265 342.197 11.4628 342.562 10.9761 342.562ZM14.4515 342.562C13.9661 342.562 13.5765 342.173 13.5765 341.712C13.5765 341.251 13.9661 340.837 14.4515 340.837C14.9368 340.837 15.3265 341.227 15.3265 341.712C15.3265 342.197 14.9601 342.562 14.4515 342.562Z" fill="#FE6B00"/>
<rect x="4.5" y="353.749" width="409" height="119" rx="11.5" stroke="#FE6B00"/>
<rect x="1601.5" y="517.5" width="299" height="44" rx="11.5" stroke="#FE6B00"/>
<rect x="1601" y="566" width="82" height="24" rx="12" fill="#FE6B00"/>
<rect x="1688.5" y="566.5" width="94" height="23" rx="11.5" fill="#FE6B00" fill-opacity="0.1"/>
<rect x="1688.5" y="566.5" width="94" height="23" rx="11.5" stroke="#FE6B00"/>
<path d="M1702.6 582.048C1702.37 582.048 1702.18 581.976 1702.04 581.832C1701.9 581.688 1701.82 581.504 1701.82 581.28C1701.82 581.056 1701.9 580.876 1702.04 580.74C1702.18 580.596 1702.37 580.524 1702.6 580.524C1702.84 580.524 1703.02 580.596 1703.16 580.74C1703.29 580.876 1703.36 581.056 1703.36 581.28C1703.36 581.504 1703.29 581.688 1703.16 581.832C1703.02 581.976 1702.84 582.048 1702.6 582.048Z" fill="#FE6B00"/>
<path d="M1770 571.333C1766.32 571.333 1763.33 574.324 1763.33 578C1763.33 581.676 1766.32 584.666 1770 584.666C1773.68 584.666 1776.67 581.676 1776.67 578C1776.67 574.324 1773.68 571.333 1770 571.333ZM1772.41 579.688C1772.46 579.736 1772.5 579.792 1772.53 579.855C1772.56 579.918 1772.57 579.985 1772.57 580.054C1772.57 580.122 1772.56 580.19 1772.54 580.253C1772.51 580.317 1772.47 580.374 1772.42 580.423C1772.37 580.471 1772.32 580.509 1772.25 580.535C1772.19 580.561 1772.12 580.574 1772.05 580.573C1771.99 580.572 1771.92 580.558 1771.86 580.53C1771.79 580.503 1771.74 580.463 1771.69 580.413L1770 578.725L1768.31 580.413C1768.21 580.506 1768.09 580.556 1767.95 580.554C1767.82 580.553 1767.69 580.499 1767.6 580.404C1767.5 580.31 1767.45 580.182 1767.45 580.048C1767.44 579.915 1767.49 579.785 1767.59 579.688L1769.27 578L1767.59 576.311C1767.49 576.214 1767.44 576.085 1767.45 575.951C1767.45 575.817 1767.5 575.69 1767.6 575.595C1767.69 575.5 1767.82 575.447 1767.95 575.445C1768.09 575.443 1768.21 575.494 1768.31 575.586L1770 577.274L1771.69 575.586C1771.79 575.494 1771.92 575.443 1772.05 575.445C1772.18 575.447 1772.31 575.5 1772.4 575.595C1772.5 575.69 1772.55 575.817 1772.55 575.951C1772.56 576.085 1772.51 576.214 1772.41 576.311L1770.73 578L1772.41 579.688Z" fill="#FE6B00"/>
<rect x="1788.5" y="566.5" width="64" height="23" rx="11.5" fill="#FE6B00" fill-opacity="0.1"/>
<rect x="1788.5" y="566.5" width="64" height="23" rx="11.5" stroke="#FE6B00"/>
<path d="M1802.6 582.048C1802.37 582.048 1802.18 581.976 1802.04 581.832C1801.9 581.688 1801.82 581.504 1801.82 581.28C1801.82 581.056 1801.9 580.876 1802.04 580.74C1802.18 580.596 1802.37 580.524 1802.6 580.524C1802.84 580.524 1803.02 580.596 1803.16 580.74C1803.29 580.876 1803.36 581.056 1803.36 581.28C1803.36 581.504 1803.29 581.688 1803.16 581.832C1803.02 581.976 1802.84 582.048 1802.6 582.048Z" fill="#FE6B00"/>
<path d="M1840 571.333C1836.32 571.333 1833.33 574.324 1833.33 578C1833.33 581.676 1836.32 584.666 1840 584.666C1843.68 584.666 1846.67 581.676 1846.67 578C1846.67 574.324 1843.68 571.333 1840 571.333ZM1842.41 579.688C1842.46 579.736 1842.5 579.792 1842.53 579.855C1842.56 579.918 1842.57 579.985 1842.57 580.054C1842.57 580.122 1842.56 580.19 1842.54 580.253C1842.51 580.317 1842.47 580.374 1842.42 580.423C1842.37 580.471 1842.32 580.509 1842.25 580.535C1842.19 580.561 1842.12 580.574 1842.05 580.573C1841.99 580.572 1841.92 580.558 1841.86 580.53C1841.79 580.503 1841.74 580.463 1841.69 580.413L1840 578.725L1838.31 580.413C1838.21 580.506 1838.09 580.556 1837.95 580.554C1837.82 580.553 1837.69 580.499 1837.6 580.404C1837.5 580.31 1837.45 580.182 1837.45 580.048C1837.44 579.915 1837.49 579.785 1837.59 579.688L1839.27 578L1837.59 576.311C1837.49 576.214 1837.44 576.085 1837.45 575.951C1837.45 575.817 1837.5 575.69 1837.6 575.595C1837.69 575.5 1837.82 575.447 1837.95 575.445C1838.09 575.443 1838.21 575.494 1838.31 575.586L1840 577.274L1841.69 575.586C1841.79 575.494 1841.92 575.443 1842.05 575.445C1842.18 575.447 1842.31 575.5 1842.4 575.595C1842.5 575.69 1842.55 575.817 1842.55 575.951C1842.56 576.085 1842.51 576.214 1842.41 576.311L1840.73 578L1842.41 579.688Z" fill="#FE6B00"/>
<path d="M2124 571C2118.48 571 2114 575.477 2114 581C2114 586.523 2118.48 591 2124 591C2129.52 591 2134 586.523 2134 581C2134 575.477 2129.52 571 2124 571ZM2127.75 581.938H2124.94V584.75C2124.94 585.266 2124.52 585.688 2124.04 585.688C2123.48 585.688 2123.06 585.266 2123.06 584.75V581.938H2120.25C2119.73 581.938 2119.31 581.516 2119.31 581C2119.31 580.484 2119.73 580.063 2120.25 580.063H2123.06V577.25C2123.06 576.734 2123.48 576.313 2124 576.313C2124.52 576.313 2124.94 576.734 2124.94 577.25V580.063H2127.75C2128.27 580.063 2128.69 580.484 2128.69 581C2128.69 581.516 2128.27 581.938 2127.75 581.938Z" fill="#FE6B00"/>
<path d="M2098.29 585.707C2098.39 585.8 2098.5 585.874 2098.62 585.925C2098.74 585.975 2098.87 586.001 2099 586.001C2099.13 586.001 2099.26 585.975 2099.38 585.925C2099.5 585.874 2099.61 585.8 2099.71 585.707L2103.95 581.464C2104.05 581.372 2104.12 581.261 2104.17 581.139C2104.23 581.017 2104.25 580.886 2104.26 580.753C2104.26 580.621 2104.23 580.489 2104.18 580.366C2104.13 580.243 2104.06 580.131 2103.96 580.038C2103.87 579.944 2103.76 579.869 2103.63 579.819C2103.51 579.769 2103.38 579.744 2103.25 579.745C2103.11 579.746 2102.98 579.773 2102.86 579.826C2102.74 579.878 2102.63 579.954 2102.54 580.05L2100 582.586V577C2100 576.735 2099.89 576.48 2099.71 576.293C2099.52 576.105 2099.27 576 2099 576C2098.73 576 2098.48 576.105 2098.29 576.293C2098.11 576.48 2098 576.735 2098 577V582.586L2095.46 580.05C2095.37 579.954 2095.26 579.878 2095.14 579.826C2095.02 579.773 2094.89 579.746 2094.75 579.745C2094.62 579.744 2094.49 579.769 2094.37 579.819C2094.24 579.869 2094.13 579.944 2094.04 580.038C2093.94 580.131 2093.87 580.243 2093.82 580.366C2093.77 580.489 2093.74 580.621 2093.74 580.753C2093.75 580.886 2093.77 581.017 2093.83 581.139C2093.88 581.261 2093.95 581.372 2094.05 581.464L2098.29 585.707ZM2099 591C2093.48 591 2089 586.523 2089 581C2089 575.477 2093.48 571 2099 571C2104.52 571 2109 575.477 2109 581C2109 586.523 2104.52 591 2099 591Z" fill="#FE6B00"/>
<path d="M2194 571C2188.48 571 2184 575.477 2184 581C2184 586.523 2188.48 591 2194 591C2199.52 591 2204 586.523 2204 581C2204 575.477 2199.52 571 2194 571ZM2198.52 579.273L2193.52 584.273C2193.31 584.488 2193.03 584.594 2192.75 584.594C2192.47 584.594 2192.19 584.488 2191.98 584.274L2189.48 581.774C2189.05 581.347 2189.05 580.653 2189.48 580.226C2189.9 579.799 2190.6 579.799 2191.02 580.226L2192.75 581.953L2196.98 577.727C2197.4 577.299 2198.1 577.299 2198.52 577.727C2198.95 578.152 2198.95 578.848 2198.52 579.273Z" fill="#FE6B00"/>
<path d="M2148 571C2142.49 571 2138 575.486 2138 581C2138 586.514 2142.49 591 2148 591C2153.51 591 2158 586.514 2158 581C2158 575.486 2153.51 571 2148 571ZM2151.62 583.533C2151.7 583.604 2151.75 583.689 2151.8 583.783C2151.84 583.877 2151.86 583.978 2151.86 584.081C2151.86 584.184 2151.84 584.286 2151.8 584.381C2151.76 584.476 2151.71 584.562 2151.63 584.635C2151.56 584.707 2151.48 584.765 2151.38 584.803C2151.29 584.842 2151.18 584.861 2151.08 584.86C2150.98 584.859 2150.88 584.837 2150.78 584.796C2150.69 584.755 2150.6 584.695 2150.53 584.621L2148 582.088L2145.47 584.621C2145.32 584.759 2145.13 584.835 2144.93 584.832C2144.73 584.83 2144.53 584.749 2144.39 584.607C2144.25 584.465 2144.17 584.273 2144.17 584.073C2144.17 583.872 2144.24 583.679 2144.38 583.533L2146.91 581L2144.38 578.467C2144.24 578.321 2144.17 578.128 2144.17 577.927C2144.17 577.727 2144.25 577.535 2144.39 577.393C2144.53 577.251 2144.73 577.17 2144.93 577.168C2145.13 577.165 2145.32 577.241 2145.47 577.379L2148 579.912L2150.53 577.379C2150.68 577.241 2150.87 577.165 2151.07 577.168C2151.27 577.17 2151.47 577.251 2151.61 577.393C2151.75 577.535 2151.83 577.727 2151.83 577.927C2151.83 578.128 2151.76 578.321 2151.62 578.467L2149.09 581L2151.62 583.533Z" fill="#FE6B00"/>
<path d="M2171 571C2165.48 571 2161 575.479 2161 581C2161 586.521 2165.48 591 2171 591C2176.52 591 2181 586.521 2181 581C2181 575.479 2176.52 571 2171 571ZM2170.69 586.833C2170.48 586.833 2170.28 586.772 2170.11 586.658C2169.94 586.543 2169.8 586.381 2169.73 586.19C2169.65 586 2169.63 585.791 2169.67 585.588C2169.71 585.386 2169.81 585.201 2169.95 585.055C2170.1 584.909 2170.28 584.81 2170.48 584.77C2170.69 584.73 2170.9 584.75 2171.09 584.829C2171.28 584.908 2171.44 585.042 2171.55 585.213C2171.67 585.384 2171.73 585.586 2171.73 585.792C2171.73 586.068 2171.62 586.333 2171.42 586.528C2171.23 586.724 2170.96 586.833 2170.69 586.833ZM2172.43 581.521C2171.58 582.087 2171.47 582.607 2171.47 583.083C2171.47 583.277 2171.39 583.462 2171.26 583.599C2171.12 583.736 2170.93 583.812 2170.74 583.812C2170.55 583.812 2170.36 583.736 2170.22 583.599C2170.09 583.462 2170.01 583.277 2170.01 583.083C2170.01 581.942 2170.54 581.035 2171.62 580.309C2172.62 579.635 2173.19 579.208 2173.19 578.269C2173.19 577.631 2172.82 577.146 2172.07 576.787C2171.89 576.703 2171.5 576.62 2171.01 576.626C2170.4 576.634 2169.92 576.78 2169.56 577.073C2168.87 577.628 2168.81 578.231 2168.81 578.24C2168.81 578.335 2168.78 578.429 2168.74 578.516C2168.7 578.603 2168.65 578.68 2168.57 578.745C2168.5 578.809 2168.42 578.859 2168.33 578.892C2168.24 578.924 2168.14 578.938 2168.05 578.934C2167.95 578.929 2167.86 578.906 2167.77 578.865C2167.69 578.824 2167.61 578.766 2167.54 578.695C2167.48 578.624 2167.43 578.541 2167.4 578.451C2167.36 578.361 2167.35 578.265 2167.35 578.169C2167.36 578.043 2167.45 576.903 2168.64 575.94C2169.26 575.441 2170.05 575.182 2170.99 575.17C2171.65 575.163 2172.27 575.274 2172.69 575.473C2173.95 576.07 2174.65 577.064 2174.65 578.269C2174.65 580.031 2173.47 580.822 2172.43 581.521Z" fill="#FE6B00"/>
<path d="M2074.5 572C2069.26 572 2065 576.262 2065 581.5C2065 586.738 2069.26 591 2074.5 591C2079.74 591 2084 586.738 2084 581.5C2084 576.262 2079.74 572 2074.5 572ZM2079.02 586.018C2078.87 586.166 2078.67 586.25 2078.46 586.25C2078.25 586.25 2078.05 586.166 2077.9 586.018L2075.78 583.899C2074.88 584.515 2073.79 584.774 2072.71 584.626C2071.64 584.477 2070.65 583.932 2069.96 583.096C2069.26 582.261 2068.91 581.195 2068.95 580.11C2069 579.024 2069.46 577.996 2070.23 577.227C2071 576.458 2072.02 576.005 2073.11 575.955C2074.2 575.905 2075.26 576.263 2076.1 576.959C2076.93 577.654 2077.48 578.636 2077.63 579.713C2077.77 580.79 2077.51 581.884 2076.9 582.779L2079.02 584.899C2079.17 585.047 2079.25 585.248 2079.25 585.458C2079.25 585.668 2079.17 585.869 2079.02 586.018Z" fill="#FE6B00"/>
<path d="M2073.25 583C2074.77 583 2076 581.769 2076 580.25C2076 578.731 2074.77 577.5 2073.25 577.5C2071.73 577.5 2070.5 578.731 2070.5 580.25C2070.5 581.769 2071.73 583 2073.25 583Z" fill="#FE6B00"/>
<rect y="580" width="414" height="12" rx="6" fill="#FE6B00" fill-opacity="0.12"/>
<rect x="3.34766" y="582" width="314.685" height="8" rx="4" fill="#FE6B00"/>
<path d="M316 599C308.268 599 302 592.732 302 585C302 577.268 308.268 571 316 571C323.732 571 330 577.268 330 585C330 592.732 323.732 599 316 599Z" fill="white" stroke="#FE6B00" stroke-width="2"/>
<rect x="5" y="509" width="409" height="12" rx="6" fill="#FE6B00" fill-opacity="0.17"/>
<rect x="7" y="511" width="181" height="8" rx="4" fill="#FE6B00"/>
<path d="M171 515C171 506.716 177.716 500 186 500V500C194.284 500 201 506.716 201 515V515C201 523.284 194.284 530 186 530V530C177.716 530 171 523.284 171 515V515Z" fill="#FE6B00"/>
<path d="M141.5 264.578C141.5 274.551 133.228 282.656 123 282.656C112.772 282.656 104.5 274.551 104.5 264.578C104.5 254.604 112.772 246.5 123 246.5C133.228 246.5 141.5 254.604 141.5 264.578Z" fill="#FE6B00" fill-opacity="0.1" stroke="#FE6B00"/>
<defs>
<filter id="filter0_d_1450_2982" x="723.932" y="334.071" width="23.0029" height="23.0029" filterUnits="userSpaceOnUse" color-interpolation-filters="sRGB">
<feFlood flood-opacity="0" result="BackgroundImageFix"/>
<feColorMatrix in="SourceAlpha" type="matrix" values="0 0 0 0 0 0 0 0 0 0 0 0 0 0 0 0 0 0 127 0" result="hardAlpha"/>
<feOffset dy="2"/>
<feGaussianBlur stdDeviation="2"/>
<feComposite in2="hardAlpha" operator="out"/>
<feColorMatrix type="matrix" values="0 0 0 0 0 0 0 0 0 0 0 0 0 0 0 0 0 0 0.25 0"/>
<feBlend mode="normal" in2="BackgroundImageFix" result="effect1_dropShadow_1450_2982"/>
<feBlend mode="normal" in="SourceGraphic" in2="effect1_dropShadow_1450_2982" result="shape"/>
</filter>
<filter id="filter1_d_1450_2982" x="1916.93" y="569.071" width="23.0029" height="23.0029" filterUnits="userSpaceOnUse" color-interpolation-filters="sRGB">
<feFlood flood-opacity="0" result="BackgroundImageFix"/>
<feColorMatrix in="SourceAlpha" type="matrix" values="0 0 0 0 0 0 0 0 0 0 0 0 0 0 0 0 0 0 127 0" result="hardAlpha"/>
<feOffset dy="2"/>
<feGaussianBlur stdDeviation="2"/>
<feComposite in2="hardAlpha" operator="out"/>
<feColorMatrix type="matrix" values="0 0 0 0 0 0 0 0 0 0 0 0 0 0 0 0 0 0 0.25 0"/>
<feBlend mode="normal" in2="BackgroundImageFix" result="effect1_dropShadow_1450_2982"/>
<feBlend mode="normal" in="SourceGraphic" in2="effect1_dropShadow_1450_2982" result="shape"/>
</filter>
<filter id="filter2_i_1450_2982" x="1177" y="518" width="38" height="40" filterUnits="userSpaceOnUse" color-interpolation-filters="sRGB">
<feFlood flood-opacity="0" result="BackgroundImageFix"/>
<feBlend mode="normal" in="SourceGraphic" in2="BackgroundImageFix" result="shape"/>
<feColorMatrix in="SourceAlpha" type="matrix" values="0 0 0 0 0 0 0 0 0 0 0 0 0 0 0 0 0 0 127 0" result="hardAlpha"/>
<feOffset dy="2"/>
<feGaussianBlur stdDeviation="1"/>
<feComposite in2="hardAlpha" operator="arithmetic" k2="-1" k3="1"/>
<feColorMatrix type="matrix" values="0 0 0 0 0 0 0 0 0 0 0 0 0 0 0 0 0 0 0.05 0"/>
<feBlend mode="normal" in2="shape" result="effect1_innerShadow_1450_2982"/>
</filter>
<filter id="filter3_i_1450_2982" x="1235" y="518" width="38" height="40" filterUnits="userSpaceOnUse" color-interpolation-filters="sRGB">
<feFlood flood-opacity="0" result="BackgroundImageFix"/>
<feBlend mode="normal" in="SourceGraphic" in2="BackgroundImageFix" result="shape"/>
<feColorMatrix in="SourceAlpha" type="matrix" values="0 0 0 0 0 0 0 0 0 0 0 0 0 0 0 0 0 0 127 0" result="hardAlpha"/>
<feOffset dy="2"/>
<feGaussianBlur stdDeviation="1"/>
<feComposite in2="hardAlpha" operator="arithmetic" k2="-1" k3="1"/>
<feColorMatrix type="matrix" values="0 0 0 0 0 0 0 0 0 0 0 0 0 0 0 0 0 0 0.05 0"/>
<feBlend mode="normal" in2="shape" result="effect1_innerShadow_1450_2982"/>
</filter>
<filter id="filter4_d_1450_2982" x="1282" y="491" width="58" height="50" filterUnits="userSpaceOnUse" color-interpolation-filters="sRGB">
<feFlood flood-opacity="0" result="BackgroundImageFix"/>
<feColorMatrix in="SourceAlpha" type="matrix" values="0 0 0 0 0 0 0 0 0 0 0 0 0 0 0 0 0 0 127 0" result="hardAlpha"/>
<feOffset dy="4"/>
<feGaussianBlur stdDeviation="2"/>
<feComposite in2="hardAlpha" operator="out"/>
<feColorMatrix type="matrix" values="0 0 0 0 0 0 0 0 0 0 0 0 0 0 0 0 0 0 0.05 0"/>
<feBlend mode="normal" in2="BackgroundImageFix" result="effect1_dropShadow_1450_2982"/>
<feBlend mode="normal" in="SourceGraphic" in2="effect1_dropShadow_1450_2982" result="shape"/>
</filter>
<filter id="filter5_i_1450_2982" x="1286.5" y="541" width="49" height="46" filterUnits="userSpaceOnUse" color-interpolation-filters="sRGB">
<feFlood flood-opacity="0" result="BackgroundImageFix"/>
<feBlend mode="normal" in="SourceGraphic" in2="BackgroundImageFix" result="shape"/>
<feColorMatrix in="SourceAlpha" type="matrix" values="0 0 0 0 0 0 0 0 0 0 0 0 0 0 0 0 0 0 127 0" result="hardAlpha"/>
<feOffset dy="4"/>
<feGaussianBlur stdDeviation="2"/>
<feComposite in2="hardAlpha" operator="arithmetic" k2="-1" k3="1"/>
<feColorMatrix type="matrix" values="0 0 0 0 0 0 0 0 0 0 0 0 0 0 0 0 0 0 0.1 0"/>
<feBlend mode="normal" in2="shape" result="effect1_innerShadow_1450_2982"/>
</filter>
<filter id="filter6_dd_1450_2982" x="444" y="471" width="123" height="65" filterUnits="userSpaceOnUse" color-interpolation-filters="sRGB">
<feFlood flood-opacity="0" result="BackgroundImageFix"/>
<feColorMatrix in="SourceAlpha" type="matrix" values="0 0 0 0 0 0 0 0 0 0 0 0 0 0 0 0 0 0 127 0" result="hardAlpha"/>
<feOffset dy="4"/>
<feGaussianBlur stdDeviation="2"/>
<feComposite in2="hardAlpha" operator="out"/>
<feColorMatrix type="matrix" values="0 0 0 0 0 0 0 0 0 0 0 0 0 0 0 0 0 0 0.05 0"/>
<feBlend mode="normal" in2="BackgroundImageFix" result="effect1_dropShadow_1450_2982"/>
<feColorMatrix in="SourceAlpha" type="matrix" values="0 0 0 0 0 0 0 0 0 0 0 0 0 0 0 0 0 0 127 0" result="hardAlpha"/>
<feOffset dx="-4" dy="-4"/>
<feGaussianBlur stdDeviation="5"/>
<feComposite in2="hardAlpha" operator="out"/>
<feColorMatrix type="matrix" values="0 0 0 0 1 0 0 0 0 1 0 0 0 0 1 0 0 0 0.61 0"/>
<feBlend mode="normal" in2="effect1_dropShadow_1450_2982" result="effect2_dropShadow_1450_2982"/>
<feBlend mode="normal" in="SourceGraphic" in2="effect2_dropShadow_1450_2982" result="shape"/>
</filter>
<filter id="filter7_d_1450_2982" x="1144" y="53" width="443" height="291" filterUnits="userSpaceOnUse" color-interpolation-filters="sRGB">
<feFlood flood-opacity="0" result="BackgroundImageFix"/>
<feColorMatrix in="SourceAlpha" type="matrix" values="0 0 0 0 0 0 0 0 0 0 0 0 0 0 0 0 0 0 127 0" result="hardAlpha"/>
<feOffset dy="4"/>
<feGaussianBlur stdDeviation="5"/>
<feComposite in2="hardAlpha" operator="out"/>
<feColorMatrix type="matrix" values="0 0 0 0 0 0 0 0 0 0 0 0 0 0 0 0 0 0 0.06 0"/>
<feBlend mode="normal" in2="BackgroundImageFix" result="effect1_dropShadow_1450_2982"/>
<feBlend mode="normal" in="SourceGraphic" in2="effect1_dropShadow_1450_2982" result="shape"/>
</filter>
<filter id="filter8_d_1450_2982" x="543.5" y="334" width="28" height="28" filterUnits="userSpaceOnUse" color-interpolation-filters="sRGB">
<feFlood flood-opacity="0" result="BackgroundImageFix"/>
<feColorMatrix in="SourceAlpha" type="matrix" values="0 0 0 0 0 0 0 0 0 0 0 0 0 0 0 0 0 0 127 0" result="hardAlpha"/>
<feOffset dy="4"/>
<feGaussianBlur stdDeviation="2"/>
<feComposite in2="hardAlpha" operator="out"/>
<feColorMatrix type="matrix" values="0 0 0 0 0 0 0 0 0 0 0 0 0 0 0 0 0 0 0.05 0"/>
<feBlend mode="normal" in2="BackgroundImageFix" result="effect1_dropShadow_1450_2982"/>
<feBlend mode="normal" in="SourceGraphic" in2="effect1_dropShadow_1450_2982" result="shape"/>
</filter>
<filter id="filter9_d_1450_2982" x="468.901" y="53" width="53" height="53" filterUnits="userSpaceOnUse" color-interpolation-filters="sRGB">
<feFlood flood-opacity="0" result="BackgroundImageFix"/>
<feColorMatrix in="SourceAlpha" type="matrix" values="0 0 0 0 0 0 0 0 0 0 0 0 0 0 0 0 0 0 127 0" result="hardAlpha"/>
<feOffset dy="4"/>
<feGaussianBlur stdDeviation="2"/>
<feComposite in2="hardAlpha" operator="out"/>
<feColorMatrix type="matrix" values="0 0 0 0 0.203922 0 0 0 0 0.737255 0 0 0 0 0.25098 0 0 0 0.1 0"/>
<feBlend mode="normal" in2="BackgroundImageFix" result="effect1_dropShadow_1450_2982"/>
<feBlend mode="normal" in="SourceGraphic" in2="effect1_dropShadow_1450_2982" result="shape"/>
</filter>
<filter id="filter10_d_1450_2982" x="132" y="0.657227" width="332" height="377.343" filterUnits="userSpaceOnUse" color-interpolation-filters="sRGB">
<feFlood flood-opacity="0" result="BackgroundImageFix"/>
<feColorMatrix in="SourceAlpha" type="matrix" values="0 0 0 0 0 0 0 0 0 0 0 0 0 0 0 0 0 0 127 0" result="hardAlpha"/>
<feOffset dy="4"/>
<feGaussianBlur stdDeviation="25"/>
<feComposite in2="hardAlpha" operator="out"/>
<feColorMatrix type="matrix" values="0 0 0 0 0 0 0 0 0 0 0 0 0 0 0 0 0 0 0.05 0"/>
<feBlend mode="normal" in2="BackgroundImageFix" result="effect1_dropShadow_1450_2982"/>
<feBlend mode="normal" in="SourceGraphic" in2="effect1_dropShadow_1450_2982" result="shape"/>
</filter>
<filter id="filter11_d_1450_2982" x="178" y="62" width="240" height="270" filterUnits="userSpaceOnUse" color-interpolation-filters="sRGB">
<feFlood flood-opacity="0" result="BackgroundImageFix"/>
<feColorMatrix in="SourceAlpha" type="matrix" values="0 0 0 0 0 0 0 0 0 0 0 0 0 0 0 0 0 0 127 0" result="hardAlpha"/>
<feOffset dy="4"/>
<feGaussianBlur stdDeviation="2"/>
<feComposite in2="hardAlpha" operator="out"/>
<feColorMatrix type="matrix" values="0 0 0 0 0 0 0 0 0 0 0 0 0 0 0 0 0 0 0.05 0"/>
<feBlend mode="normal" in2="BackgroundImageFix" result="effect1_dropShadow_1450_2982"/>
<feBlend mode="normal" in="SourceGraphic" in2="effect1_dropShadow_1450_2982" result="shape"/>
</filter>
<filter id="filter12_d_1450_2982" x="188" y="118" width="220" height="62" filterUnits="userSpaceOnUse" color-interpolation-filters="sRGB">
<feFlood flood-opacity="0" result="BackgroundImageFix"/>
<feColorMatrix in="SourceAlpha" type="matrix" values="0 0 0 0 0 0 0 0 0 0 0 0 0 0 0 0 0 0 127 0" result="hardAlpha"/>
<feOffset dy="4"/>
<feGaussianBlur stdDeviation="5"/>
<feComposite in2="hardAlpha" operator="out"/>
<feColorMatrix type="matrix" values="0 0 0 0 0 0 0 0 0 0 0 0 0 0 0 0 0 0 0.25 0"/>
<feBlend mode="normal" in2="BackgroundImageFix" result="effect1_dropShadow_1450_2982"/>
<feBlend mode="normal" in="SourceGraphic" in2="effect1_dropShadow_1450_2982" result="shape"/>
</filter>
<filter id="filter13_i_1450_2982" x="198" y="216" width="200" height="44" filterUnits="userSpaceOnUse" color-interpolation-filters="sRGB">
<feFlood flood-opacity="0" result="BackgroundImageFix"/>
<feBlend mode="normal" in="SourceGraphic" in2="BackgroundImageFix" result="shape"/>
<feColorMatrix in="SourceAlpha" type="matrix" values="0 0 0 0 0 0 0 0 0 0 0 0 0 0 0 0 0 0 127 0" result="hardAlpha"/>
<feOffset dy="2"/>
<feGaussianBlur stdDeviation="2"/>
<feComposite in2="hardAlpha" operator="arithmetic" k2="-1" k3="1"/>
<feColorMatrix type="matrix" values="0 0 0 0 0 0 0 0 0 0 0 0 0 0 0 0 0 0 0.05 0"/>
<feBlend mode="normal" in2="shape" result="effect1_innerShadow_1450_2982"/>
</filter>
<filter id="filter14_i_1450_2982" x="198" y="262" width="200" height="44" filterUnits="userSpaceOnUse" color-interpolation-filters="sRGB">
<feFlood flood-opacity="0" result="BackgroundImageFix"/>
<feBlend mode="normal" in="SourceGraphic" in2="BackgroundImageFix" result="shape"/>
<feColorMatrix in="SourceAlpha" type="matrix" values="0 0 0 0 0 0 0 0 0 0 0 0 0 0 0 0 0 0 127 0" result="hardAlpha"/>
<feOffset dy="2"/>
<feGaussianBlur stdDeviation="2"/>
<feComposite in2="hardAlpha" operator="arithmetic" k2="-1" k3="1"/>
<feColorMatrix type="matrix" values="0 0 0 0 0 0 0 0 0 0 0 0 0 0 0 0 0 0 0.05 0"/>
<feBlend mode="normal" in2="shape" result="effect1_innerShadow_1450_2982"/>
</filter>
<clipPath id="clip0_1450_2982">
<rect width="38" height="94" fill="white" transform="translate(1177 490)"/>
</clipPath>
<clipPath id="clip1_1450_2982">
<rect width="4" height="94" fill="white" transform="translate(1223 490)"/>
</clipPath>
<clipPath id="clip2_1450_2982">
<rect width="38" height="94" fill="white" transform="translate(1235 490)"/>
</clipPath>
<clipPath id="clip3_1450_2982">
<rect width="55" height="94" fill="white" transform="translate(1281 490)"/>
</clipPath>
<clipPath id="clip4_1450_2982">
<rect x="454" y="481" width="234" height="51" rx="25.5" fill="white"/>
</clipPath>
<clipPath id="clip5_1450_2982">
<rect x="454" y="330" width="207" height="28" rx="14" fill="white"/>
</clipPath>
</defs>
</svg>
