<svg width="340" height="341" viewBox="0 0 340 341" fill="none" xmlns="http://www.w3.org/2000/svg">
<path fill-rule="evenodd" clip-rule="evenodd" d="M109 76C109 102.359 129.414 122 152.5 122C175.586 122 196 102.359 196 76C196 49.6412 175.586 30 152.5 30C129.414 30 109 49.6412 109 76ZM79 76C79 117.974 111.907 152 152.5 152C193.093 152 226 117.974 226 76C226 34.0264 193.093 0 152.5 0C111.907 0 79 34.0264 79 76ZM210.446 199.92C187.176 197.496 170.936 197.075 149.982 199.869C141.771 200.964 134.226 195.194 133.132 186.983C132.037 178.771 137.806 171.227 146.018 170.132C170.064 166.926 188.824 167.505 213.554 170.081C248.557 173.727 279.299 183.809 301.75 198.751C324.055 213.596 340.003 234.679 340 260.062L339.999 272.991C339.997 297.857 319.835 318 294.979 318H166C157.716 318 151 311.284 151 303C151 294.716 157.716 288 166 288H294.979C303.277 288 309.998 281.277 309.999 272.989L310 260.059C310.001 248.402 302.699 235.419 285.128 223.725C267.703 212.128 241.943 203.2 210.446 199.92Z" fill="black"/>
<path d="M129.652 235.921C124.196 232.838 117.38 235.124 114.426 240.704L99.8793 270.215C99.6067 270.773 99.1307 271.208 98.5478 271.431C97.9648 271.653 97.3186 271.647 96.74 271.414C96.2816 271.232 95.8886 270.918 95.6121 270.511C95.3357 270.105 95.1885 269.625 95.1897 269.134V187.172C95.1897 182.309 90.6722 178.781 85.7787 178.781C80.8851 178.781 76.6383 182.309 76.6383 187.172V241.935C76.6501 242.957 76.2605 243.944 75.5522 244.686C74.8439 245.428 73.8728 245.865 72.8451 245.906C72.3311 245.916 71.8203 245.824 71.3426 245.635C70.8649 245.446 70.4298 245.164 70.0628 244.806C69.6959 244.448 69.4044 244.021 69.2055 243.549C69.0066 243.078 68.9041 242.572 68.9042 242.061V170.391C68.9042 165.528 65.0583 162 60.1647 162C55.2711 162 51.3267 165.528 51.3267 170.391V241.935C51.3385 242.957 50.9489 243.944 50.2406 244.686C49.5323 245.428 48.5611 245.865 47.5335 245.906C47.0195 245.916 46.5087 245.824 46.0309 245.635C45.5532 245.446 45.1182 245.164 44.7512 244.806C44.3843 244.448 44.0928 244.021 43.8939 243.549C43.6949 243.078 43.5925 242.572 43.5926 242.061V181.578C43.5926 176.715 39.3459 173.188 34.4523 173.188C29.5587 173.188 25.312 177.065 25.312 181.928V247.528C25.3238 248.551 24.9341 249.538 24.2258 250.28C23.5175 251.021 22.5464 251.459 21.5187 251.5C21.0047 251.51 20.4939 251.417 20.0162 251.229C19.5385 251.04 19.1034 250.758 18.7365 250.4C18.3695 250.042 18.0781 249.615 17.8791 249.143C17.6802 248.672 17.5778 248.166 17.5779 247.654V203.953C17.5779 199.09 13.6827 195.562 8.7891 195.562C3.89552 195.562 -0.0418502 199.136 0.000335853 203.953V279.469C0.000335853 320.516 25.312 341 56.2484 341H61.8732C92.8097 341 102.551 327.155 109.684 310.234L133.839 251.15C136.166 244.857 135.105 239.001 129.652 235.921Z" fill="black"/>
</svg>
