<svg width="366" height="323" viewBox="0 0 366 323" fill="none" xmlns="http://www.w3.org/2000/svg">
<path fill-rule="evenodd" clip-rule="evenodd" d="M231 76C231 102.359 210.586 122 187.5 122C164.414 122 144 102.359 144 76C144 49.6412 164.414 30 187.5 30C210.586 30 231 49.6412 231 76ZM261 76C261 117.974 228.093 152 187.5 152C146.907 152 114 117.974 114 76C114 34.0264 146.907 0 187.5 0C228.093 0 261 34.0264 261 76ZM129.554 199.919C152.824 197.496 169.064 197.075 190.018 199.869C198.229 200.963 205.774 195.194 206.868 186.982C207.963 178.771 202.194 171.227 193.982 170.132C169.936 166.926 151.176 167.505 126.446 170.081C91.4434 173.727 60.7009 183.809 38.2503 198.751C15.9446 213.596 -0.00285778 234.679 3.84127e-07 260.062L0.00123253 272.991C0.0031065 297.857 20.1655 318 45.0212 318H174C182.284 318 189 311.284 189 303C189 294.716 182.284 288 174 288H45.0212C36.7233 288 30.0019 281.277 30.0012 272.989L30 260.058C29.9987 248.402 37.3013 235.419 54.8716 223.725C72.297 212.128 98.0566 203.2 129.554 199.919Z" fill="black"/>
<path fill-rule="evenodd" clip-rule="evenodd" d="M246.809 267.81L213.808 300.811C208.731 305.887 208.731 314.116 213.808 319.192C218.878 324.27 227.119 324.27 232.19 319.192L265.191 286.191C275.467 293.011 287.772 297.001 300.999 297.001C336.841 297.001 366 267.842 366 232.001C366 196.159 336.841 167 300.999 167C265.158 167 235.999 196.159 235.999 232.001C235.999 245.229 239.99 257.533 246.809 267.81Z" fill="black"/>
</svg>
