<svg width="375" height="355" viewBox="0 0 375 355" fill="none" xmlns="http://www.w3.org/2000/svg">
<path fill-rule="evenodd" clip-rule="evenodd" d="M231 76C231 102.359 210.586 122 187.5 122C164.414 122 144 102.359 144 76C144 49.6412 164.414 30 187.5 30C210.586 30 231 49.6412 231 76ZM261 76C261 117.974 228.093 152 187.5 152C146.907 152 114 117.974 114 76C114 34.0264 146.907 0 187.5 0C228.093 0 261 34.0264 261 76ZM129.554 199.919C152.824 197.496 169.064 197.075 190.018 199.869C198.229 200.963 205.774 195.194 206.868 186.982C207.963 178.771 202.194 171.227 193.982 170.132C169.936 166.926 151.176 167.505 126.446 170.081C91.4434 173.727 60.7009 183.809 38.2503 198.751C15.9446 213.596 -0.00285778 234.679 3.84127e-07 260.062L0.00123253 272.991C0.0031065 297.857 20.1655 318 45.0212 318H174C182.284 318 189 311.284 189 303C189 294.716 182.284 288 174 288H45.0212C36.7233 288 30.0019 281.277 30.0012 272.989L30 260.058C29.9987 248.402 37.3013 235.419 54.8716 223.725C72.297 212.128 98.0566 203.2 129.554 199.919Z" fill="black"/>
<path d="M267.966 285.037C263.583 289.521 263.583 296.246 267.966 300.729C272.35 305.212 278.925 305.212 283.308 300.729L318.375 264.862C323.854 259.258 326.046 252.533 327.141 245.808C327.141 237.962 324.95 231.237 319.471 225.633C313.991 220.029 307.416 217.787 299.746 217.787C293.171 217.787 286.596 221.15 281.116 226.754L230.708 279.433C223.037 287.279 217.558 298.487 217.558 310.816C217.558 323.146 220.846 333.233 229.612 342.2C237.283 350.046 248.241 354.529 258.104 354.529C269.062 354.529 281.116 350.046 289.883 341.079L355.633 273.829C366.591 262.621 373.166 246.929 374.262 231.237C375.358 215.546 368.783 199.854 357.825 188.646C346.866 177.437 332.621 171.833 316.183 171.833C300.841 171.833 285.5 178.558 274.541 190.887L201.121 265.983C196.737 270.466 196.737 277.191 201.121 281.675C205.504 286.158 212.079 286.158 216.462 281.675L289.883 205.458C297.554 197.612 306.321 193.129 316.183 193.129C326.046 193.129 334.812 196.491 341.387 203.216C347.962 209.941 351.25 218.908 351.25 228.996C351.25 239.083 346.866 249.171 339.195 255.896L273.446 323.146C264.679 332.112 251.529 332.112 243.858 324.266C240.571 320.904 238.379 315.3 238.379 309.696C238.379 304.091 240.571 298.487 244.954 294.004L295.362 242.446C296.458 241.325 297.554 240.204 299.746 240.204C300.841 240.204 301.937 240.204 303.033 241.325C304.129 242.446 304.129 243.566 304.129 244.687C304.129 245.808 303.033 248.05 301.937 249.171L267.966 285.037Z" fill="black"/>
</svg>
