<svg width="364" height="348" viewBox="0 0 364 348" fill="none" xmlns="http://www.w3.org/2000/svg">
<path fill-rule="evenodd" clip-rule="evenodd" d="M231 76C231 102.359 210.586 122 187.5 122C164.414 122 144 102.359 144 76C144 49.6412 164.414 30 187.5 30C210.586 30 231 49.6412 231 76ZM261 76C261 117.974 228.093 152 187.5 152C146.907 152 114 117.974 114 76C114 34.0264 146.907 0 187.5 0C228.093 0 261 34.0264 261 76ZM129.554 199.919C152.824 197.496 169.064 197.075 190.018 199.869C198.229 200.963 205.774 195.194 206.868 186.982C207.963 178.771 202.194 171.227 193.982 170.132C169.936 166.926 151.176 167.505 126.446 170.081C91.4434 173.727 60.7009 183.809 38.2503 198.751C15.9446 213.596 -0.00285778 234.679 3.84127e-07 260.062L0.00123253 272.991C0.0031065 297.857 20.1655 318 45.0212 318H128C136.284 318 143 311.284 143 303C143 294.716 136.284 288 128 288H45.0212C36.7233 288 30.0019 281.277 30.0012 272.989L30 260.058C29.9987 248.402 37.3013 235.419 54.8716 223.725C72.297 212.128 98.0566 203.2 129.554 199.919Z" fill="black"/>
<path fill-rule="evenodd" clip-rule="evenodd" d="M235.849 279.5C235.849 293.674 247.337 305.188 261.479 305.188C275.621 305.188 287.109 293.674 287.109 279.5V279.287C284.374 282.07 280.619 283.782 276.43 283.782C268.183 283.782 261.479 277.06 261.479 268.798C261.479 262.848 264.979 257.666 269.98 255.268C267.332 254.327 264.47 253.813 261.479 253.813C247.337 253.813 235.849 265.328 235.849 279.5ZM358.277 264.9C342.383 244.652 303.684 211 261.52 211C219.317 211 180.575 244.652 164.681 264.9C161.094 269.525 159.129 274.534 159 279.5C159.129 284.468 161.094 289.477 164.681 294.1C180.576 314.353 219.275 348 261.479 348C303.683 348 342.383 314.353 358.277 294.1C361.905 289.476 363.871 284.468 364 279.5C363.871 274.534 361.905 269.525 358.277 264.9ZM261.479 322.312C237.901 322.312 218.762 303.132 218.762 279.5C218.762 255.868 237.901 236.688 261.479 236.688C285.056 236.688 304.196 255.868 304.196 279.5C304.195 303.132 285.056 322.312 261.479 322.312Z" fill="#010101"/>
</svg>
