<svg width="327" height="322" viewBox="0 0 327 322" fill="none" xmlns="http://www.w3.org/2000/svg">
<path fill-rule="evenodd" clip-rule="evenodd" d="M231 76C231 102.359 210.586 122 187.5 122C164.414 122 144 102.359 144 76C144 49.6412 164.414 30 187.5 30C210.586 30 231 49.6412 231 76ZM261 76C261 117.974 228.093 152 187.5 152C146.907 152 114 117.974 114 76C114 34.0264 146.907 0 187.5 0C228.093 0 261 34.0264 261 76ZM129.554 199.919C152.824 197.496 169.064 197.075 190.018 199.869C198.229 200.963 205.774 195.194 206.868 186.982C207.963 178.771 202.194 171.227 193.982 170.132C169.936 166.926 151.176 167.505 126.446 170.081C91.4434 173.727 60.7009 183.809 38.2503 198.751C15.9446 213.596 -0.00285778 234.679 3.84127e-07 260.062L0.00123253 272.991C0.0031065 297.857 20.1655 318 45.0212 318H133C141.284 318 148 311.284 148 303C148 294.716 141.284 288 133 288H45.0212C36.7233 288 30.0019 281.277 30.0012 272.989L30 260.058C29.9987 248.402 37.3013 235.419 54.8716 223.725C72.297 212.128 98.0566 203.2 129.554 199.919Z" fill="black"/>
<g clip-path="url(#clip0_1017_117)">
<path fill-rule="evenodd" clip-rule="evenodd" d="M207 302C207 291 198 282 187 282C176 282 167 291 167 302C167 313 176 322 187 322C198 322 207 313 207 302ZM227 302C227 313 236 322 247 322C258 322 267 313 267 302C267 291 258 282 247 282C236 282 227 291 227 302ZM287 302C287 313 296 322 307 322C318 322 327 313 327 302C327 291 318 282 307 282C296 282 287 291 287 302Z" fill="black"/>
</g>
<defs>
<clipPath id="clip0_1017_117">
<rect width="40" height="160" fill="white" transform="translate(167 322) rotate(-90)"/>
</clipPath>
</defs>
</svg>
