<svg width="373" height="346" viewBox="0 0 373 346" fill="none" xmlns="http://www.w3.org/2000/svg">
<path d="M298.876 236.277L316.62 247.029C321.477 249.971 327.06 251.375 332.651 251.06C338.243 250.745 343.589 248.726 348.004 245.262L362.482 233.896C367.884 229.655 371.469 223.439 372.508 216.516C373.547 209.593 371.961 202.483 368.073 196.636C353.763 175.123 326.781 163.494 303.086 176.896C287.502 185.71 268.682 199.193 250.455 219.408C235.085 236.376 222.377 255.689 212.768 276.679C201.325 301.854 214.386 328.792 236.465 341.927C242.384 345.448 249.358 346.546 255.963 344.998C262.569 343.45 268.309 339.373 272.014 333.597L282.151 317.797C285.209 313.035 286.791 307.423 286.695 301.682C286.6 295.942 284.83 290.335 281.613 285.581L269.867 268.233C270.378 267.269 270.996 266.151 271.721 264.902C274.748 259.665 278.293 254.765 282.301 250.279C286.379 245.86 290.894 241.885 295.774 238.415C296.793 237.68 297.828 236.968 298.876 236.277Z" fill="black"/>
<path fill-rule="evenodd" clip-rule="evenodd" d="M261 76C261 117.974 228.093 152 187.5 152C146.907 152 114 117.974 114 76C114 34.0264 146.907 0 187.5 0C228.093 0 261 34.0264 261 76ZM231 76C231 102.359 210.586 122 187.5 122C164.414 122 144 102.359 144 76C144 49.6412 164.414 30 187.5 30C210.586 30 231 49.6412 231 76Z" fill="black"/>
<path d="M129.554 199.919C152.824 197.496 176 197.853 191.5 199.919C195.514 200.455 211.608 206.081 221.5 207C231.844 207.961 235.632 199.919 237 196.5C238.368 193.081 237 184.244 231 180.5C223.5 175.82 195.539 170.619 191.5 170.081C167.453 166.875 151.176 167.505 126.446 170.081C91.4434 173.727 60.7009 183.809 38.2503 198.751C15.9446 213.596 -0.00285778 234.679 3.84126e-07 260.062L0.00128212 272.991C0.00315609 297.857 20.1655 318 45.0212 318H174C182.284 318 189 311.284 189 303C189 294.716 182.284 288 174 288H45.0212C36.7233 288 30.0019 281.277 30.0013 272.989L30 260.058C29.9987 248.402 37.3013 235.419 54.8716 223.725C72.297 212.128 98.0566 203.2 129.554 199.919Z" fill="black"/>
</svg>
