<svg width="363" height="351" viewBox="0 0 363 351" fill="none" xmlns="http://www.w3.org/2000/svg">
<path fill-rule="evenodd" clip-rule="evenodd" d="M261 76C261 117.974 228.093 152 187.5 152C146.907 152 114 117.974 114 76C114 34.0264 146.907 0 187.5 0C228.093 0 261 34.0264 261 76ZM231 76C231 102.359 210.586 122 187.5 122C164.414 122 144 102.359 144 76C144 49.6412 164.414 30 187.5 30C210.586 30 231 49.6412 231 76Z" fill="black"/>
<path d="M129.554 199.919C152.824 197.496 169.064 197.075 190.018 199.869C198.229 200.963 205.774 195.194 206.868 186.982C207.963 178.771 202.194 171.227 193.982 170.132C169.936 166.926 151.176 167.505 126.446 170.081C91.4434 173.727 60.7009 183.809 38.2503 198.751C15.9446 213.596 -0.00285778 234.679 3.84127e-07 260.062L0.00123253 272.991C0.0031065 297.857 20.1655 318 45.0212 318H174C182.284 318 189 311.284 189 303C189 294.716 182.284 288 174 288H45.0212C36.7233 288 30.0019 281.277 30.0012 272.989L30 260.058C29.9987 248.402 37.3013 235.419 54.8716 223.725C72.297 212.128 98.0566 203.2 129.554 199.919Z" fill="black"/>
<path d="M362.178 306.856C361.6 305.805 360.75 304.927 359.716 304.316L352.308 299.877C349.417 298.142 347.025 295.689 345.364 292.758C343.704 289.826 342.831 286.515 342.832 283.147V243.145C342.824 231.542 339.053 220.252 332.083 210.967C325.112 201.682 315.316 194.9 304.162 191.637C303.679 191.5 303.254 191.211 302.95 190.813C302.647 190.415 302.48 189.929 302.476 189.428C302.476 185.867 301.058 182.451 298.536 179.933C296.013 177.415 292.592 176 289.025 176C285.457 176 282.036 177.415 279.513 179.933C276.991 182.451 275.574 185.867 275.574 189.428C275.569 189.929 275.402 190.414 275.098 190.812C274.794 191.21 274.37 191.5 273.888 191.637C262.734 194.9 252.938 201.682 245.967 210.967C238.996 220.252 235.225 231.542 235.218 243.145V283.14C235.218 286.508 234.346 289.819 232.685 292.751C231.024 295.682 228.632 298.135 225.741 299.87L218.333 304.309C217.054 305.072 216.06 306.23 215.5 307.608C214.941 308.987 214.848 310.51 215.235 311.946C215.622 313.382 216.468 314.653 217.644 315.565C218.821 316.477 220.264 316.981 221.753 317H356.275C357.454 316.972 358.607 316.643 359.622 316.042C360.637 315.442 361.48 314.592 362.071 313.573C362.663 312.555 362.983 311.401 362.999 310.224C363.016 309.047 362.73 307.885 362.168 306.849L362.178 306.856Z" fill="black"/>
<path d="M273.612 344.948C277.629 347.892 282.251 349.83 287.114 350.611C291.978 351.392 296.95 350.994 301.639 349.448C306.329 347.903 310.608 345.251 314.141 341.703C317.674 338.155 320.364 333.807 322 329H262C264.19 335.429 268.246 340.999 273.612 344.948Z" fill="black"/>
</svg>
