<svg width="384" height="368" viewBox="0 0 384 368" fill="none" xmlns="http://www.w3.org/2000/svg">
<path fill-rule="evenodd" clip-rule="evenodd" d="M187.5 152C228.093 152 261 117.974 261 76C261 34.0264 228.093 0 187.5 0C146.907 0 114 34.0264 114 76C114 117.974 146.907 152 187.5 152ZM187.5 122C210.586 122 231 102.359 231 76C231 49.6412 210.586 30 187.5 30C164.414 30 144 49.6412 144 76C144 102.359 164.414 122 187.5 122Z" fill="black"/>
<path fill-rule="evenodd" clip-rule="evenodd" d="M384 270.5C384 324.348 341.691 368 289.5 368C237.309 368 195 324.348 195 270.5C195 216.652 237.309 173 289.5 173C341.691 173 384 216.652 384 270.5ZM276 273.5C276 266.044 282.044 260 289.5 260C296.956 260 303 266.044 303 273.5V317.5C303 324.956 296.956 331 289.5 331C282.044 331 276 324.956 276 317.5V273.5ZM289.5 248C296.956 248 303 241.732 303 234C303 226.268 296.956 220 289.5 220C282.044 220 276 226.268 276 234C276 241.732 282.044 248 289.5 248Z" fill="black"/>
<path d="M129.554 199.919C152.824 197.496 169.064 197.075 190.018 199.869C198.229 200.963 205.774 195.194 206.868 186.982C207.963 178.771 202.194 171.227 193.982 170.132C169.936 166.926 151.176 167.505 126.446 170.081C91.4434 173.727 60.7009 183.809 38.2503 198.751C15.9446 213.596 -0.00285721 234.679 3.8397e-07 260.062L0.00123309 272.991C0.00310706 297.857 20.1655 318 45.0212 318H174C182.284 318 189 311.284 189 303C189 294.716 182.284 288 174 288H45.0212C36.7233 288 30.0019 281.277 30.0012 272.989L30 260.058C29.9987 248.402 37.3013 235.419 54.8716 223.725C72.297 212.128 98.0566 203.2 129.554 199.919Z" fill="black"/>
</svg>
