<svg width="325" height="341" viewBox="0 0 325 341" fill="none" xmlns="http://www.w3.org/2000/svg">
<path fill-rule="evenodd" clip-rule="evenodd" d="M231 76C231 102.359 210.586 122 187.5 122C164.414 122 144 102.359 144 76C144 49.6412 164.414 30 187.5 30C210.586 30 231 49.6412 231 76ZM261 76C261 117.974 228.093 152 187.5 152C146.907 152 114 117.974 114 76C114 34.0264 146.907 0 187.5 0C228.093 0 261 34.0264 261 76ZM129.554 199.919C152.824 197.496 169.064 197.075 190.018 199.869C198.229 200.963 205.774 195.194 206.868 186.982C207.963 178.771 202.194 171.227 193.982 170.132C169.936 166.926 151.176 167.505 126.446 170.081C91.4434 173.727 60.7009 183.809 38.2503 198.751C15.9446 213.596 -0.00285778 234.679 3.84127e-07 260.062L0.00123253 272.991C0.0031065 297.857 20.1655 318 45.0212 318H141.5C149.784 318 156.5 311.284 156.5 303C156.5 294.716 149.784 288 141.5 288H45.0212C36.7233 288 30.0019 281.277 30.0012 272.989L30 260.058C29.9987 248.402 37.3013 235.419 54.8716 223.725C72.297 212.128 98.0566 203.2 129.554 199.919Z" fill="black"/>
<path d="M214.95 222.364C224.89 222.364 232.7 213.664 232.7 202.591V174.909C232.7 170.164 235.54 167 239.8 167H296.6C312.22 167 325 181.236 325 198.636V309.364C325 326.764 312.22 341 296.6 341H211.4C195.78 341 183 326.764 183 309.364V230.273C183 225.527 185.84 222.364 190.1 222.364H214.95ZM239.8 293.545H282.4C286.66 293.545 289.5 290.382 289.5 285.636C289.5 280.891 286.66 277.727 282.4 277.727H239.8C235.54 277.727 232.7 280.891 232.7 285.636C232.7 290.382 235.54 293.545 239.8 293.545ZM225.6 261.909H282.4C286.66 261.909 289.5 258.745 289.5 254C289.5 249.255 286.66 246.091 282.4 246.091H225.6C221.34 246.091 218.5 249.255 218.5 254C218.5 258.745 221.34 261.909 225.6 261.909Z" fill="black"/>
</svg>
