<svg width="369" height="348" viewBox="0 0 369 348" fill="none" xmlns="http://www.w3.org/2000/svg">
<path fill-rule="evenodd" clip-rule="evenodd" d="M231 76C231 102.359 210.586 122 187.5 122C164.414 122 144 102.359 144 76C144 49.6412 164.414 30 187.5 30C210.586 30 231 49.6412 231 76ZM261 76C261 117.974 228.093 152 187.5 152C146.907 152 114 117.974 114 76C114 34.0264 146.907 0 187.5 0C228.093 0 261 34.0264 261 76ZM129.554 199.919C152.824 197.496 169.064 197.075 190.018 199.869C198.229 200.963 205.774 195.194 206.868 186.982C207.963 178.771 202.194 171.227 193.982 170.132C169.936 166.926 151.176 167.505 126.446 170.081C91.4434 173.727 60.7009 183.809 38.2503 198.751C15.9446 213.596 -0.00285778 234.679 3.84127e-07 260.062L0.00123253 272.991C0.0031065 297.857 20.1655 318 45.0212 318H174C182.284 318 189 311.284 189 303C189 294.716 182.284 288 174 288H45.0212C36.7233 288 30.0019 281.277 30.0012 272.989L30 260.058C29.9987 248.402 37.3013 235.419 54.8716 223.725C72.297 212.128 98.0566 203.2 129.554 199.919Z" fill="black"/>
<path d="M362.301 284L354.324 279.333C345.683 274 345.683 261.333 354.324 256L362.301 251.333C368.948 247.333 370.942 239.333 366.954 233.333L360.307 222C356.318 215.333 348.342 213.333 342.359 217.333L334.383 222C325.741 227.333 314.441 220.667 314.441 210.667V201.333C314.441 194 308.459 188 301.147 188H287.853C280.541 188 274.559 194 274.559 201.333V210C274.559 220 263.259 226.667 254.617 221.333L246.641 217.333C239.994 213.333 232.017 216 228.693 222L222.046 233.333C218.723 240 220.717 248 226.699 252L234.676 256.667C243.317 261.333 243.317 274.667 234.676 279.333L226.699 284C220.052 288 218.058 296 222.046 302L228.693 313.333C232.682 320 240.658 322 246.641 318L254.617 314C263.259 308.667 274.559 315.333 274.559 325.333V334.667C274.559 342 280.541 348 287.853 348H301.147C308.459 348 314.441 342 314.441 334.667V326C314.441 316 325.741 309.333 334.383 314.667L342.359 319.333C349.006 323.333 356.983 320.667 360.307 314.667L366.954 303.333C370.277 296 368.283 288 362.301 284ZM294.5 294.667C279.876 294.667 267.911 282.667 267.911 268C267.911 253.333 279.876 241.333 294.5 241.333C309.124 241.333 321.088 253.333 321.088 268C321.088 282.667 309.124 294.667 294.5 294.667Z" fill="black"/>
</svg>
