<svg width="348" height="344" viewBox="0 0 348 344" fill="none" xmlns="http://www.w3.org/2000/svg">
<path fill-rule="evenodd" clip-rule="evenodd" d="M231 76C231 102.359 210.586 122 187.5 122C164.414 122 144 102.359 144 76C144 49.6412 164.414 30 187.5 30C210.586 30 231 49.6412 231 76ZM261 76C261 117.974 228.093 152 187.5 152C146.907 152 114 117.974 114 76C114 34.0264 146.907 0 187.5 0C228.093 0 261 34.0264 261 76ZM129.554 199.919C152.824 197.496 169.064 197.075 190.018 199.869C198.229 200.963 205.774 195.194 206.868 186.982C207.963 178.771 202.194 171.227 193.982 170.132C169.936 166.926 151.176 167.505 126.446 170.081C91.4434 173.727 60.7009 183.809 38.2503 198.751C15.9446 213.596 -0.00285778 234.679 3.84127e-07 260.062L0.00123253 272.991C0.0031065 297.857 20.1655 318 45.0212 318H174C182.284 318 189 311.284 189 303C189 294.716 182.284 288 174 288H45.0212C36.7233 288 30.0019 281.277 30.0012 272.989L30 260.058C29.9987 248.402 37.3013 235.419 54.8716 223.725C72.297 212.128 98.0566 203.2 129.554 199.919Z" fill="black"/>
<path fill-rule="evenodd" clip-rule="evenodd" d="M293.633 228.375L309.124 168.944C309.354 168.214 309.471 167.438 309.471 166.633C309.471 162.432 306.081 159 301.878 159C299.493 159 297.37 160.079 295.985 161.815L218.655 262.136C217.616 263.446 217 265.105 217 266.916C217 271.155 220.468 274.625 224.706 274.625H271.362L255.876 334.056C255.642 334.79 255.529 335.562 255.529 336.367C255.529 340.572 258.92 344 263.119 344C265.508 344 267.626 342.924 269.014 341.185L346.341 240.863C347.383 239.554 348 237.898 348 236.083C348 231.845 344.53 228.375 340.295 228.375H293.633Z" fill="#010101"/>
</svg>
