<svg width="348" height="318" viewBox="0 0 348 318" fill="none" xmlns="http://www.w3.org/2000/svg">
<path fill-rule="evenodd" clip-rule="evenodd" d="M231 76C231 102.359 210.586 122 187.5 122C164.414 122 144 102.359 144 76C144 49.6412 164.414 30 187.5 30C210.586 30 231 49.6412 231 76ZM261 76C261 117.974 228.093 152 187.5 152C146.907 152 114 117.974 114 76C114 34.0264 146.907 0 187.5 0C228.093 0 261 34.0264 261 76ZM129.554 199.919C152.824 197.496 169.064 197.075 190.018 199.869C198.229 200.963 205.774 195.194 206.868 186.982C207.963 178.771 202.194 171.227 193.982 170.132C169.936 166.926 151.176 167.505 126.446 170.081C91.4434 173.727 60.7009 183.809 38.2503 198.751C15.9446 213.596 -0.00285778 234.679 3.84127e-07 260.062L0.00123253 272.991C0.0031065 297.857 20.1655 318 45.0212 318H136.5C144.784 318 151.5 311.284 151.5 303C151.5 294.716 144.784 288 136.5 288H45.0212C36.7233 288 30.0019 281.277 30.0012 272.989L30 260.058C29.9987 248.402 37.3013 235.419 54.8716 223.725C72.297 212.128 98.0566 203.2 129.554 199.919Z" fill="black"/>
<path d="M210.4 242H195.2C186.84 242 180 248.84 180 257.2V302.8C180 311.16 186.84 318 195.2 318H210.4C218.76 318 225.6 311.16 225.6 302.8V257.2C225.6 248.84 218.76 242 210.4 242Z" fill="black"/>
<path d="M271.201 166H256.001C247.641 166 240.801 172.84 240.801 181.2V302.8C240.801 311.16 247.641 318 256.001 318H271.201C279.561 318 286.401 311.16 286.401 302.8V181.2C286.401 172.84 279.561 166 271.201 166Z" fill="black"/>
<path d="M332 211.6H316.8C308.44 211.6 301.6 218.44 301.6 226.8V302.8C301.6 311.16 308.44 318 316.8 318H332C340.36 318 347.2 311.16 347.2 302.8V226.8C347.2 218.44 340.36 211.6 332 211.6Z" fill="black"/>
</svg>
