<svg width="396" height="345" viewBox="0 0 396 345" fill="none" xmlns="http://www.w3.org/2000/svg">
<path fill-rule="evenodd" clip-rule="evenodd" d="M231 76C231 102.359 210.586 122 187.5 122C164.414 122 144 102.359 144 76C144 49.6412 164.414 30 187.5 30C210.586 30 231 49.6412 231 76ZM261 76C261 117.974 228.093 152 187.5 152C146.907 152 114 117.974 114 76C114 34.0264 146.907 0 187.5 0C228.093 0 261 34.0264 261 76ZM129.554 199.919C152.824 197.496 169.064 197.075 190.018 199.869C198.229 200.963 205.774 195.194 206.868 186.982C207.963 178.771 202.194 171.227 193.982 170.132C169.936 166.926 151.176 167.505 126.446 170.081C91.4434 173.727 60.7009 183.809 38.2503 198.751C15.9446 213.596 -0.00285778 234.679 3.84127e-07 260.062L0.00123253 272.991C0.0031065 297.857 20.1655 318 45.0212 318H174C182.284 318 189 311.284 189 303C189 294.716 182.284 288 174 288H45.0212C36.7233 288 30.0019 281.277 30.0012 272.989L30 260.058C29.9987 248.402 37.3013 235.419 54.8716 223.725C72.297 212.128 98.0566 203.2 129.554 199.919Z" fill="black"/>
<path d="M276.975 211.696C276.975 207.755 275.581 204.39 272.792 201.601C270.003 198.812 266.638 197.418 262.696 197.418C258.755 197.418 255.39 198.812 252.601 201.601C249.812 204.39 248.418 207.755 248.418 211.696C248.418 215.638 249.812 219.003 252.601 221.792C255.39 224.581 258.755 225.975 262.696 225.975C266.638 225.975 270.003 224.581 272.792 221.792C275.581 219.003 276.975 215.638 276.975 211.696ZM396 275.95C396 279.891 394.624 283.238 391.873 285.989L337.101 340.873C334.201 343.624 330.817 345 326.95 345C323.008 345 319.662 343.624 316.91 340.873L237.151 261.002C234.325 258.25 231.927 254.495 229.956 249.735C227.985 244.976 227 240.625 227 236.684V190.279C227 186.411 228.413 183.065 231.239 180.239C234.065 177.413 237.411 176 241.279 176H287.684C291.625 176 295.976 176.985 300.735 178.956C305.495 180.927 309.288 183.325 312.114 186.151L391.873 265.799C394.624 268.699 396 272.083 396 275.95Z" fill="black"/>
</svg>
