<svg width="390" height="363" viewBox="0 0 390 363" fill="none" xmlns="http://www.w3.org/2000/svg">
<path fill-rule="evenodd" clip-rule="evenodd" d="M231 76C231 102.359 210.586 122 187.5 122C164.414 122 144 102.359 144 76C144 49.6412 164.414 30 187.5 30C210.586 30 231 49.6412 231 76ZM261 76C261 117.974 228.093 152 187.5 152C146.907 152 114 117.974 114 76C114 34.0264 146.907 0 187.5 0C228.093 0 261 34.0264 261 76ZM129.554 199.919C152.824 197.496 169.064 197.075 190.018 199.869C198.229 200.963 205.774 195.194 206.868 186.982C207.963 178.771 202.194 171.227 193.982 170.132C169.936 166.926 151.176 167.505 126.446 170.081C91.4434 173.727 60.7009 183.809 38.2503 198.751C15.9446 213.596 -0.00285778 234.679 3.84127e-07 260.062L0.00123253 272.991C0.0031065 297.857 20.1655 318 45.0212 318H174C182.284 318 189 311.284 189 303C189 294.716 182.284 288 174 288H45.0212C36.7233 288 30.0019 281.277 30.0012 272.989L30 260.058C29.9987 248.402 37.3013 235.419 54.8716 223.725C72.297 212.128 98.0566 203.2 129.554 199.919Z" fill="black"/>
<path d="M299 192.055C248.736 192.055 208.319 225.156 208.319 265.992C208.319 283.631 215.909 299.755 228.57 312.452C224.127 330.357 209.279 346.317 209.101 346.495C208.302 347.295 208.079 348.533 208.568 349.6C209.012 350.666 209.998 351.294 211.153 351.294C234.703 351.294 252.067 340.004 261.132 333.026C272.731 337.381 285.666 339.919 299.309 339.919C349.572 339.919 389.989 306.814 389.989 266.301C389.989 225.789 349.263 192.055 299 192.055ZM253.18 277.367C246.87 277.367 241.805 272.302 241.805 266.312C241.805 260.322 246.87 254.937 253.18 254.937C259.489 254.937 264.555 260.003 264.555 266.312C264.555 272.622 259.791 277.367 253.18 277.367ZM299 277.367C292.69 277.367 287.944 272.302 287.944 266.312C287.944 260.322 293.01 254.937 299 254.937C304.989 254.937 310.055 260.003 310.055 266.312C310.055 272.622 305.327 277.367 299 277.367ZM344.18 277.367C337.87 277.367 332.805 272.302 332.805 266.312C332.805 260.322 337.87 254.937 344.18 254.937C350.489 254.937 355.555 260.003 355.555 266.312C355.555 272.622 350.791 277.367 344.18 277.367Z" fill="black"/>
</svg>
