<svg width="360" height="334" viewBox="0 0 360 334" fill="none" xmlns="http://www.w3.org/2000/svg">
<path fill-rule="evenodd" clip-rule="evenodd" d="M231 76C231 102.359 210.586 122 187.5 122C164.414 122 144 102.359 144 76C144 49.6412 164.414 30 187.5 30C210.586 30 231 49.6412 231 76ZM261 76C261 117.974 228.093 152 187.5 152C146.907 152 114 117.974 114 76C114 34.0264 146.907 0 187.5 0C228.093 0 261 34.0264 261 76ZM129.554 199.919C152.824 197.496 169.064 197.075 190.018 199.869C198.229 200.963 205.774 195.194 206.868 186.982C207.963 178.771 202.194 171.227 193.982 170.132C169.936 166.926 151.176 167.505 126.446 170.081C91.4434 173.727 60.7009 183.809 38.2503 198.751C15.9446 213.596 -0.00285778 234.679 3.84127e-07 260.062L0.00123253 272.991C0.0031065 297.857 20.1655 318 45.0212 318H174C182.284 318 189 311.284 189 303C189 294.716 182.284 288 174 288H45.0212C36.7233 288 30.0019 281.277 30.0012 272.989L30 260.058C29.9987 248.402 37.3013 235.419 54.8716 223.725C72.297 212.128 98.0566 203.2 129.554 199.919Z" fill="black"/>
<path d="M353.088 334C352.169 334 351.263 333.791 350.438 333.388C349.612 332.986 348.889 332.4 348.324 331.677C339.688 320.619 331.676 312.086 320.626 306.366C310.4 301.089 297.556 298.335 280.556 297.821V327.956C280.553 329.136 280.204 330.288 279.553 331.272C278.902 332.256 277.977 333.028 276.893 333.493C275.808 333.958 274.612 334.095 273.45 333.888C272.289 333.68 271.213 333.138 270.356 332.326L203.869 268.862C203.279 268.297 202.808 267.619 202.487 266.868C202.166 266.116 202 265.308 202 264.491C202 263.674 202.166 262.865 202.487 262.114C202.808 261.363 203.279 260.684 203.869 260.12L270.356 196.655C271.213 195.844 272.289 195.301 273.45 195.094C274.612 194.887 275.808 195.024 276.893 195.489C277.977 195.953 278.902 196.725 279.553 197.709C280.204 198.693 280.553 199.846 280.556 201.026V231.383C308.564 232.671 329.432 243.06 342.642 262.311C353.586 278.257 359.132 300.341 359.132 327.956C359.132 329.559 358.495 331.096 357.362 332.23C356.228 333.363 354.691 334 353.088 334Z" fill="black"/>
</svg>
