<svg width="393" height="364" viewBox="0 0 393 364" fill="none" xmlns="http://www.w3.org/2000/svg">
<path fill-rule="evenodd" clip-rule="evenodd" d="M231 76C231 102.359 210.586 122 187.5 122C164.414 122 144 102.359 144 76C144 49.6412 164.414 30 187.5 30C210.586 30 231 49.6412 231 76ZM261 76C261 117.974 228.093 152 187.5 152C146.907 152 114 117.974 114 76C114 34.0264 146.907 0 187.5 0C228.093 0 261 34.0264 261 76ZM129.554 199.919C152.824 197.496 169.064 197.075 190.018 199.869C198.229 200.963 205.774 195.194 206.868 186.982C207.963 178.771 202.194 171.227 193.982 170.132C169.936 166.926 151.176 167.505 126.446 170.081C91.4434 173.727 60.7009 183.809 38.2503 198.751C15.9446 213.596 -0.00285778 234.679 3.84127e-07 260.062L0.00123253 272.991C0.0031065 297.857 20.1655 318 45.0212 318H136.5C144.784 318 151.5 311.284 151.5 303C151.5 294.716 144.784 288 136.5 288H45.0212C36.7233 288 30.0019 281.277 30.0012 272.989L30 260.058C29.9987 248.402 37.3013 235.419 54.8716 223.725C72.297 212.128 98.0566 203.2 129.554 199.919Z" fill="black"/>
<path d="M347.085 278.889H294.368C282.464 278.889 272.261 268.686 272.261 256.782V204.915C273.111 198.113 268.009 193.011 261.207 193.861C214.442 200.663 179.581 244.878 189.784 295.894C195.736 329.055 222.945 355.414 256.106 362.216C306.272 372.419 351.337 337.558 358.139 290.793C358.989 283.991 353.887 278.889 347.085 278.889Z" fill="black"/>
<path d="M392.148 249.98C389.598 227.022 379.394 205.765 362.389 188.76C346.233 172.604 324.126 161.551 301.169 159C295.217 159 290.115 164.102 290.115 170.054V253.381C290.115 258.482 294.367 261.883 298.618 261.883H381.945C387.897 261.883 392.999 256.782 392.148 249.98Z" fill="black"/>
</svg>
