<svg width="405" height="368" viewBox="0 0 405 368" fill="none" xmlns="http://www.w3.org/2000/svg">
<path fill-rule="evenodd" clip-rule="evenodd" d="M231 76C231 102.359 210.586 122 187.5 122C164.414 122 144 102.359 144 76C144 49.6412 164.414 30 187.5 30C210.586 30 231 49.6412 231 76ZM261 76C261 117.974 228.093 152 187.5 152C146.907 152 114 117.974 114 76C114 34.0264 146.907 0 187.5 0C228.093 0 261 34.0264 261 76ZM129.554 199.919C152.824 197.496 169.064 197.075 190.018 199.869C198.229 200.963 205.774 195.194 206.868 186.982C207.963 178.771 202.194 171.227 193.982 170.132C169.936 166.926 151.176 167.505 126.446 170.081C91.4434 173.727 60.7009 183.809 38.2503 198.751C15.9446 213.596 -0.00285778 234.679 3.84127e-07 260.062L0.00123253 272.991C0.0031065 297.857 20.1655 318 45.0212 318H174C182.284 318 189 311.284 189 303C189 294.716 182.284 288 174 288H45.0212C36.7233 288 30.0019 281.277 30.0012 272.989L30 260.058C29.9987 248.402 37.3013 235.419 54.8716 223.725C72.297 212.128 98.0566 203.2 129.554 199.919Z" fill="black"/>
<path d="M271.593 176.417C237.103 176.417 209.688 203.413 209.688 237.375C209.688 271.338 237.103 298.334 271.593 298.334C306.084 298.334 333.499 271.338 333.499 237.375C333.499 203.413 306.084 176.417 271.593 176.417ZM258.328 246.084C245.947 246.084 236.219 236.504 236.219 224.313C236.219 212.121 245.947 202.542 258.328 202.542C270.709 202.542 280.437 212.121 280.437 224.313C280.437 236.504 270.709 246.084 258.328 246.084Z" fill="black"/>
<path d="M324.656 254.792L289.281 289.625L306.969 307.042H324.656V324.459H342.343V341.875L348.534 347.971C350.303 349.713 352.071 350.584 354.725 350.584H377.718C383.024 350.584 386.562 347.1 386.562 341.875V319.234C386.562 316.621 385.678 314.879 383.909 313.138L324.656 254.792Z" fill="black"/>
</svg>
