<svg width="318" height="352" viewBox="0 0 318 352" fill="none" xmlns="http://www.w3.org/2000/svg">
<path fill-rule="evenodd" clip-rule="evenodd" d="M231 76C231 102.359 210.586 122 187.5 122C164.414 122 144 102.359 144 76C144 49.6412 164.414 30 187.5 30C210.586 30 231 49.6412 231 76ZM261 76C261 117.974 228.093 152 187.5 152C146.907 152 114 117.974 114 76C114 34.0264 146.907 0 187.5 0C228.093 0 261 34.0264 261 76ZM129.554 199.919C152.824 197.496 169.064 197.075 190.018 199.869C198.229 200.963 205.774 195.194 206.868 186.982C207.963 178.771 202.194 171.227 193.982 170.132C169.936 166.926 151.176 167.505 126.446 170.081C91.4434 173.727 60.7009 183.809 38.2503 198.751C15.9446 213.596 -0.00285778 234.679 3.84127e-07 260.062L0.00123253 272.991C0.0031065 297.857 20.1655 318 45.0212 318H128C136.284 318 143 311.284 143 303C143 294.716 136.284 288 128 288H45.0212C36.7233 288 30.0019 281.277 30.0012 272.989L30 260.058C29.9987 248.402 37.3013 235.419 54.8716 223.725C72.297 212.128 98.0566 203.2 129.554 199.919Z" fill="black"/>
<path d="M290.261 296.274C282.348 296.274 275.231 299.617 270.178 304.954L211.135 275.917C211.338 274.553 211.478 273.172 211.478 271.751C211.478 270.367 211.345 269.016 211.152 267.688L270.108 238.969C275.165 244.349 282.315 247.726 290.261 247.726C305.58 247.726 318 235.251 318 219.863C318 204.472 305.58 192 290.261 192C274.942 192 262.522 204.472 262.522 219.863C262.522 221.247 262.655 222.595 262.848 223.926L203.892 252.645C198.835 247.265 191.688 243.888 183.739 243.888C168.416 243.888 156 256.363 156 271.751C156 287.142 168.416 299.614 183.739 299.614C191.652 299.614 198.769 296.27 203.822 290.934L262.865 319.971C262.662 321.331 262.522 322.716 262.522 324.137C262.522 339.528 274.942 352 290.261 352C305.58 352 318 339.528 318 324.137C318 308.746 305.58 296.274 290.261 296.274Z" fill="black"/>
</svg>
