<svg width="391" height="369" viewBox="0 0 391 369" fill="none" xmlns="http://www.w3.org/2000/svg">
<path fill-rule="evenodd" clip-rule="evenodd" d="M261 76C261 117.974 228.094 152 187.5 152C146.906 152 114 117.974 114 76C114 34.0264 146.906 0 187.5 0C228.094 0 261 34.0264 261 76ZM231 76C231 102.359 210.586 122 187.5 122C164.414 122 144 102.359 144 76C144 49.6411 164.414 30 187.5 30C210.586 30 231 49.6411 231 76ZM190.018 199.869C169.064 197.075 152.824 197.496 129.555 199.919C98.0566 203.2 72.2969 212.128 54.8711 223.725C37.3008 235.418 29.998 248.402 30 260.059L30.002 272.989C30.002 281.277 36.7227 288 45.0215 288H174C182.285 288 189 294.716 189 303C189 311.284 182.285 318 174 318H45.0215C20.166 318 0.00390643 297.856 0.0019533 272.991L1.79385e-07 260.062C-0.00195295 234.679 15.9453 213.596 38.25 198.75C60.7012 183.809 91.4434 173.727 126.445 170.081C151.176 167.505 169.936 166.926 193.982 170.132C202.193 171.227 207.963 178.771 206.869 186.982C205.773 195.194 198.229 200.963 190.018 199.869ZM391 271C391 325.124 347.123 369 293 369C238.877 369 195 325.124 195 271C195 216.876 238.877 173 293 173C347.123 173 391 216.876 391 271ZM267.645 227.214C262.557 222.125 254.305 222.125 249.217 227.214C244.127 232.303 244.127 240.554 249.217 245.643L274.459 270.885L249.215 296.129C244.127 301.218 244.127 309.468 249.215 314.558C254.305 319.646 262.555 319.646 267.645 314.558L292.887 289.314L317.951 314.377C323.039 319.466 331.289 319.466 336.379 314.377C341.469 309.288 341.469 301.037 336.379 295.948L311.316 270.885L336.377 245.823C341.467 240.734 341.467 232.483 336.379 227.395C331.289 222.306 323.039 222.306 317.949 227.395L292.887 252.457L267.645 227.214Z" fill="black"/>
</svg>
