<svg width="382" height="340" viewBox="0 0 382 340" fill="none" xmlns="http://www.w3.org/2000/svg">
<path fill-rule="evenodd" clip-rule="evenodd" d="M248.633 72.4497C248.633 112.463 217.286 144.899 178.616 144.899C139.946 144.899 108.599 112.463 108.599 72.4497C108.599 32.4368 139.946 0 178.616 0C217.286 0 248.633 32.4368 248.633 72.4497ZM220.055 72.4497C220.055 97.5772 200.609 116.301 178.616 116.301C156.623 116.301 137.177 97.5772 137.177 72.4497C137.177 47.3222 156.623 28.5986 178.616 28.5986C200.609 28.5986 220.055 47.3222 220.055 72.4497Z" fill="black"/>
<path d="M123.415 190.58C145.583 188.27 161.054 187.869 181.014 190.532C188.837 191.575 196.024 186.076 197.067 178.248C198.11 170.42 192.614 163.228 184.791 162.184C161.884 159.128 144.013 159.68 120.455 162.136C87.1107 165.611 57.8248 175.222 36.4379 189.466C15.1891 203.618 -0.00272237 223.716 3.65926e-07 247.913L0.00117413 260.238C0.00295931 283.942 19.21 303.145 42.888 303.145H165.756C173.647 303.145 180.045 296.743 180.045 288.846C180.045 280.948 173.647 274.546 165.756 274.546H42.888C34.9833 274.546 28.5803 268.137 28.5797 260.236L28.5786 247.91C28.5773 236.798 35.5339 224.421 52.2717 213.274C68.8715 202.219 93.4105 193.708 123.415 190.58Z" fill="black"/>
<path d="M239.667 192.564C239.667 171.504 256.727 154.432 277.772 154.432H292.914C313.959 154.432 331.019 171.504 331.019 192.564V198.888H307.242V195.413C307.242 184.883 298.712 176.347 288.19 176.347H282.496C271.973 176.347 263.443 184.883 263.443 195.413V198.888H239.667V192.564Z" fill="black"/>
<path fill-rule="evenodd" clip-rule="evenodd" d="M226.723 199.26C205.679 199.26 188.618 216.332 188.618 237.392V301.869C188.618 322.928 205.679 340 226.723 340H343.895C364.94 340 382 322.928 382 301.869V237.392C382 216.332 364.94 199.26 343.895 199.26H226.723ZM298.458 231.578C291.304 231.578 285.505 237.382 285.505 244.541C285.505 251.7 291.304 257.504 298.458 257.504H336.74C343.895 257.504 349.694 251.7 349.694 244.541C349.694 237.382 343.895 231.578 336.74 231.578H298.458Z" fill="black"/>
</svg>
