<svg width="179" height="51" viewBox="0 0 179 51" fill="none" xmlns="http://www.w3.org/2000/svg">
<path d="M1.452 28.084C1.26 28.084 1.112 28.032 1.008 27.928C0.904 27.816 0.852 27.664 0.852 27.472V20.068C0.852 19.868 0.904 19.716 1.008 19.612C1.112 19.508 1.26 19.456 1.452 19.456C1.644 19.456 1.792 19.508 1.896 19.612C2.008 19.716 2.064 19.868 2.064 20.068V23.392H1.896C2.072 22.944 2.348 22.608 2.724 22.384C3.1 22.152 3.532 22.036 4.02 22.036C4.484 22.036 4.868 22.124 5.172 22.3C5.484 22.468 5.716 22.728 5.868 23.08C6.02 23.424 6.096 23.86 6.096 24.388V27.472C6.096 27.664 6.044 27.816 5.94 27.928C5.836 28.032 5.688 28.084 5.496 28.084C5.296 28.084 5.144 28.032 5.04 27.928C4.936 27.816 4.884 27.664 4.884 27.472V24.46C4.884 23.956 4.784 23.588 4.584 23.356C4.392 23.124 4.088 23.008 3.672 23.008C3.184 23.008 2.792 23.16 2.496 23.464C2.208 23.768 2.064 24.176 2.064 24.688V27.472C2.064 27.88 1.86 28.084 1.452 28.084ZM10.5141 28.108C9.87406 28.108 9.32206 27.988 8.85806 27.748C8.40206 27.5 8.04606 27.152 7.79006 26.704C7.54206 26.248 7.41806 25.708 7.41806 25.084C7.41806 24.476 7.54206 23.944 7.79006 23.488C8.03806 23.032 8.37806 22.676 8.81006 22.42C9.24206 22.164 9.73406 22.036 10.2861 22.036C10.6941 22.036 11.0581 22.104 11.3781 22.24C11.6981 22.368 11.9701 22.56 12.1941 22.816C12.4261 23.064 12.5981 23.368 12.7101 23.728C12.8301 24.088 12.8901 24.492 12.8901 24.94C12.8901 25.076 12.8501 25.18 12.7701 25.252C12.6901 25.316 12.5701 25.348 12.4101 25.348H8.37806V24.604H12.0741L11.8701 24.772C11.8701 24.372 11.8101 24.032 11.6901 23.752C11.5781 23.472 11.4061 23.26 11.1741 23.116C10.9501 22.964 10.6701 22.888 10.3341 22.888C9.95806 22.888 9.63806 22.976 9.37406 23.152C9.11806 23.328 8.92206 23.572 8.78606 23.884C8.65006 24.196 8.58206 24.56 8.58206 24.976V25.048C8.58206 25.752 8.74606 26.284 9.07406 26.644C9.41006 26.996 9.89406 27.172 10.5261 27.172C10.7661 27.172 11.0181 27.14 11.2821 27.076C11.5541 27.012 11.8101 26.904 12.0501 26.752C12.1861 26.672 12.3061 26.636 12.4101 26.644C12.5221 26.652 12.6101 26.688 12.6741 26.752C12.7461 26.816 12.7901 26.896 12.8061 26.992C12.8221 27.088 12.8061 27.188 12.7581 27.292C12.7101 27.388 12.6261 27.476 12.5061 27.556C12.2341 27.74 11.9181 27.88 11.5581 27.976C11.1981 28.064 10.8501 28.108 10.5141 28.108ZM16.0954 28.108C15.4714 28.108 14.9994 27.928 14.6794 27.568C14.3674 27.2 14.2114 26.672 14.2114 25.984V20.068C14.2114 19.868 14.2634 19.716 14.3674 19.612C14.4714 19.508 14.6194 19.456 14.8114 19.456C15.0034 19.456 15.1514 19.508 15.2554 19.612C15.3674 19.716 15.4234 19.868 15.4234 20.068V25.912C15.4234 26.312 15.5034 26.612 15.6634 26.812C15.8314 27.004 16.0714 27.1 16.3834 27.1C16.4554 27.1 16.5194 27.1 16.5754 27.1C16.6314 27.092 16.6874 27.084 16.7434 27.076C16.8394 27.068 16.9074 27.096 16.9474 27.16C16.9874 27.216 17.0074 27.336 17.0074 27.52C17.0074 27.688 16.9714 27.82 16.8994 27.916C16.8274 28.004 16.7114 28.06 16.5514 28.084C16.4794 28.092 16.4034 28.096 16.3234 28.096C16.2434 28.104 16.1674 28.108 16.0954 28.108ZM18.4793 30.244C18.2873 30.244 18.1393 30.192 18.0353 30.088C17.9313 29.984 17.8793 29.832 17.8793 29.632V22.672C17.8793 22.472 17.9313 22.32 18.0353 22.216C18.1393 22.112 18.2833 22.06 18.4673 22.06C18.6593 22.06 18.8073 22.112 18.9113 22.216C19.0153 22.32 19.0673 22.472 19.0673 22.672V23.716L18.9353 23.464C19.0633 23.032 19.3153 22.688 19.6913 22.432C20.0673 22.168 20.5113 22.036 21.0233 22.036C21.5433 22.036 21.9953 22.16 22.3793 22.408C22.7713 22.656 23.0713 23.004 23.2793 23.452C23.4953 23.9 23.6033 24.44 23.6033 25.072C23.6033 25.688 23.4953 26.228 23.2793 26.692C23.0713 27.148 22.7753 27.5 22.3913 27.748C22.0073 27.988 21.5513 28.108 21.0233 28.108C20.5193 28.108 20.0793 27.98 19.7033 27.724C19.3273 27.468 19.0753 27.128 18.9473 26.704H19.0913V29.632C19.0913 29.832 19.0353 29.984 18.9233 30.088C18.8193 30.192 18.6713 30.244 18.4793 30.244ZM20.7233 27.172C21.0593 27.172 21.3513 27.092 21.5993 26.932C21.8473 26.772 22.0393 26.536 22.1753 26.224C22.3113 25.912 22.3793 25.528 22.3793 25.072C22.3793 24.384 22.2273 23.864 21.9233 23.512C21.6273 23.16 21.2273 22.984 20.7233 22.984C20.3953 22.984 20.1033 23.064 19.8473 23.224C19.5993 23.376 19.4073 23.608 19.2713 23.92C19.1353 24.232 19.0673 24.616 19.0673 25.072C19.0673 25.752 19.2193 26.272 19.5233 26.632C19.8273 26.992 20.2273 27.172 20.7233 27.172ZM28.9013 28C28.7013 28 28.5453 27.944 28.4333 27.832C28.3213 27.72 28.2653 27.564 28.2653 27.364V20.128C28.2653 19.92 28.3173 19.764 28.4213 19.66C28.5333 19.548 28.6893 19.492 28.8893 19.492C29.0893 19.492 29.2413 19.548 29.3453 19.66C29.4573 19.764 29.5133 19.92 29.5133 20.128V26.932H33.2333C33.4093 26.932 33.5453 26.98 33.6413 27.076C33.7373 27.164 33.7853 27.292 33.7853 27.46C33.7853 27.628 33.7373 27.76 33.6413 27.856C33.5453 27.952 33.4093 28 33.2333 28H28.9013ZM36.6263 28.108C36.2183 28.108 35.8503 28.028 35.5223 27.868C35.2023 27.708 34.9503 27.492 34.7663 27.22C34.5823 26.948 34.4903 26.64 34.4903 26.296C34.4903 25.864 34.5983 25.524 34.8143 25.276C35.0383 25.02 35.4023 24.84 35.9063 24.736C36.4183 24.624 37.1063 24.568 37.9703 24.568H38.5343V25.312H37.9823C37.4063 25.312 36.9503 25.34 36.6143 25.396C36.2783 25.452 36.0383 25.548 35.8943 25.684C35.7583 25.812 35.6903 25.992 35.6903 26.224C35.6903 26.528 35.7943 26.776 36.0023 26.968C36.2103 27.152 36.4983 27.244 36.8663 27.244C37.1623 27.244 37.4223 27.176 37.6463 27.04C37.8703 26.896 38.0463 26.704 38.1743 26.464C38.3103 26.224 38.3783 25.948 38.3783 25.636V24.256C38.3783 23.8 38.2823 23.472 38.0903 23.272C37.8983 23.072 37.5823 22.972 37.1423 22.972C36.8863 22.972 36.6183 23.004 36.3383 23.068C36.0663 23.132 35.7823 23.24 35.4863 23.392C35.3503 23.456 35.2343 23.476 35.1383 23.452C35.0423 23.428 34.9663 23.376 34.9103 23.296C34.8543 23.208 34.8223 23.116 34.8143 23.02C34.8143 22.916 34.8383 22.816 34.8863 22.72C34.9423 22.624 35.0343 22.552 35.1623 22.504C35.5143 22.336 35.8623 22.216 36.2063 22.144C36.5503 22.072 36.8743 22.036 37.1783 22.036C37.7143 22.036 38.1543 22.12 38.4983 22.288C38.8503 22.456 39.1103 22.712 39.2783 23.056C39.4463 23.4 39.5303 23.844 39.5303 24.388V27.472C39.5303 27.664 39.4823 27.816 39.3863 27.928C39.2903 28.032 39.1503 28.084 38.9663 28.084C38.7903 28.084 38.6503 28.032 38.5463 27.928C38.4423 27.816 38.3903 27.664 38.3903 27.472V26.692H38.4983C38.4343 26.988 38.3143 27.244 38.1383 27.46C37.9703 27.668 37.7583 27.828 37.5023 27.94C37.2463 28.052 36.9543 28.108 36.6263 28.108ZM44.3437 28.108C43.8317 28.108 43.3877 27.98 43.0117 27.724C42.6357 27.46 42.3837 27.112 42.2557 26.68L42.3877 26.464V27.472C42.3877 27.664 42.3357 27.816 42.2317 27.928C42.1277 28.032 41.9837 28.084 41.7997 28.084C41.6077 28.084 41.4597 28.032 41.3557 27.928C41.2517 27.816 41.1997 27.664 41.1997 27.472V20.068C41.1997 19.868 41.2517 19.716 41.3557 19.612C41.4597 19.508 41.6077 19.456 41.7997 19.456C41.9917 19.456 42.1397 19.508 42.2437 19.612C42.3557 19.716 42.4117 19.868 42.4117 20.068V23.428H42.2677C42.3957 23.004 42.6477 22.668 43.0237 22.42C43.3997 22.164 43.8397 22.036 44.3437 22.036C44.8717 22.036 45.3277 22.16 45.7117 22.408C46.0957 22.656 46.3917 23.004 46.5997 23.452C46.8157 23.9 46.9237 24.44 46.9237 25.072C46.9237 25.688 46.8157 26.228 46.5997 26.692C46.3917 27.148 46.0917 27.5 45.6997 27.748C45.3157 27.988 44.8637 28.108 44.3437 28.108ZM44.0437 27.172C44.3797 27.172 44.6717 27.092 44.9197 26.932C45.1677 26.772 45.3597 26.536 45.4957 26.224C45.6317 25.912 45.6997 25.528 45.6997 25.072C45.6997 24.384 45.5477 23.864 45.2437 23.512C44.9477 23.16 44.5477 22.984 44.0437 22.984C43.7157 22.984 43.4237 23.064 43.1677 23.224C42.9197 23.376 42.7277 23.608 42.5917 23.92C42.4557 24.232 42.3877 24.616 42.3877 25.072C42.3877 25.752 42.5397 26.272 42.8437 26.632C43.1477 26.992 43.5477 27.172 44.0437 27.172ZM51.0375 28.108C50.3975 28.108 49.8455 27.988 49.3815 27.748C48.9255 27.5 48.5695 27.152 48.3135 26.704C48.0655 26.248 47.9415 25.708 47.9415 25.084C47.9415 24.476 48.0655 23.944 48.3135 23.488C48.5615 23.032 48.9015 22.676 49.3335 22.42C49.7655 22.164 50.2575 22.036 50.8095 22.036C51.2175 22.036 51.5815 22.104 51.9015 22.24C52.2215 22.368 52.4935 22.56 52.7175 22.816C52.9495 23.064 53.1215 23.368 53.2335 23.728C53.3535 24.088 53.4135 24.492 53.4135 24.94C53.4135 25.076 53.3735 25.18 53.2935 25.252C53.2135 25.316 53.0935 25.348 52.9335 25.348H48.9015V24.604H52.5975L52.3935 24.772C52.3935 24.372 52.3335 24.032 52.2135 23.752C52.1015 23.472 51.9295 23.26 51.6975 23.116C51.4735 22.964 51.1935 22.888 50.8575 22.888C50.4815 22.888 50.1615 22.976 49.8975 23.152C49.6415 23.328 49.4455 23.572 49.3095 23.884C49.1735 24.196 49.1055 24.56 49.1055 24.976V25.048C49.1055 25.752 49.2695 26.284 49.5975 26.644C49.9335 26.996 50.4175 27.172 51.0495 27.172C51.2895 27.172 51.5415 27.14 51.8055 27.076C52.0775 27.012 52.3335 26.904 52.5735 26.752C52.7095 26.672 52.8295 26.636 52.9335 26.644C53.0455 26.652 53.1335 26.688 53.1975 26.752C53.2695 26.816 53.3135 26.896 53.3295 26.992C53.3455 27.088 53.3295 27.188 53.2815 27.292C53.2335 27.388 53.1495 27.476 53.0295 27.556C52.7575 27.74 52.4415 27.88 52.0815 27.976C51.7215 28.064 51.3735 28.108 51.0375 28.108ZM56.6188 28.108C55.9948 28.108 55.5228 27.928 55.2028 27.568C54.8908 27.2 54.7348 26.672 54.7348 25.984V20.068C54.7348 19.868 54.7868 19.716 54.8908 19.612C54.9948 19.508 55.1428 19.456 55.3348 19.456C55.5268 19.456 55.6748 19.508 55.7788 19.612C55.8908 19.716 55.9468 19.868 55.9468 20.068V25.912C55.9468 26.312 56.0268 26.612 56.1868 26.812C56.3548 27.004 56.5948 27.1 56.9068 27.1C56.9788 27.1 57.0428 27.1 57.0988 27.1C57.1548 27.092 57.2108 27.084 57.2668 27.076C57.3628 27.068 57.4308 27.096 57.4708 27.16C57.5108 27.216 57.5308 27.336 57.5308 27.52C57.5308 27.688 57.4948 27.82 57.4228 27.916C57.3508 28.004 57.2348 28.06 57.0748 28.084C57.0028 28.092 56.9268 28.096 56.8468 28.096C56.7668 28.104 56.6908 28.108 56.6188 28.108Z" fill="#929BAA"/>
<path d="M4.2 11.1468C4.024 11.1468 3.876 11.1068 3.756 11.0268C3.644 10.9388 3.552 10.8108 3.48 10.6428L0.252 3.3348C0.188 3.1668 0.172 3.0228 0.204 2.90281C0.236 2.7828 0.3 2.6908 0.396 2.62681C0.5 2.55481 0.624 2.51881 0.768 2.51881C0.952 2.51881 1.092 2.5588 1.188 2.6388C1.284 2.7188 1.364 2.8388 1.428 2.9988L4.452 10.0068H4.008L7.008 2.9868C7.08 2.8348 7.164 2.7188 7.26 2.6388C7.364 2.5588 7.504 2.51881 7.68 2.51881C7.824 2.51881 7.94 2.55481 8.028 2.62681C8.124 2.6908 8.184 2.7828 8.208 2.90281C8.232 3.0228 8.208 3.1668 8.136 3.3348L4.92 10.6428C4.848 10.8108 4.756 10.9388 4.644 11.0268C4.532 11.1068 4.384 11.1468 4.2 11.1468ZM10.4232 11.1708C10.0152 11.1708 9.64722 11.0908 9.31922 10.9308C8.99922 10.7708 8.74722 10.5548 8.56322 10.2828C8.37922 10.0108 8.28722 9.70281 8.28722 9.35881C8.28722 8.92681 8.39522 8.58681 8.61122 8.33881C8.83522 8.08281 9.19922 7.90281 9.70322 7.7988C10.2152 7.68681 10.9032 7.63081 11.7672 7.63081H12.3312V8.37481H11.7792C11.2032 8.37481 10.7472 8.40281 10.4112 8.45881C10.0752 8.51481 9.83522 8.61081 9.69122 8.74681C9.55522 8.87481 9.48722 9.05481 9.48722 9.28681C9.48722 9.59081 9.59122 9.83881 9.79922 10.0308C10.0072 10.2148 10.2952 10.3068 10.6632 10.3068C10.9592 10.3068 11.2192 10.2388 11.4432 10.1028C11.6672 9.95881 11.8432 9.76681 11.9712 9.52681C12.1072 9.28681 12.1752 9.01081 12.1752 8.69881V7.31881C12.1752 6.86281 12.0792 6.5348 11.8872 6.3348C11.6952 6.1348 11.3792 6.0348 10.9392 6.0348C10.6832 6.0348 10.4152 6.0668 10.1352 6.13081C9.86322 6.1948 9.57922 6.3028 9.28322 6.45481C9.14722 6.51881 9.03122 6.53881 8.93522 6.51481C8.83922 6.4908 8.76322 6.4388 8.70722 6.3588C8.65122 6.2708 8.61922 6.1788 8.61122 6.0828C8.61122 5.9788 8.63522 5.8788 8.68322 5.7828C8.73922 5.6868 8.83122 5.6148 8.95922 5.5668C9.31122 5.3988 9.65922 5.2788 10.0032 5.2068C10.3472 5.1348 10.6712 5.09881 10.9752 5.09881C11.5112 5.09881 11.9512 5.18281 12.2952 5.35081C12.6472 5.51881 12.9072 5.7748 13.0752 6.1188C13.2432 6.4628 13.3272 6.9068 13.3272 7.4508V10.5348C13.3272 10.7268 13.2792 10.8788 13.1832 10.9908C13.0872 11.0948 12.9472 11.1468 12.7632 11.1468C12.5872 11.1468 12.4472 11.0948 12.3432 10.9908C12.2392 10.8788 12.1872 10.7268 12.1872 10.5348V9.75481H12.2952C12.2312 10.0508 12.1112 10.3068 11.9352 10.5228C11.7672 10.7308 11.5552 10.8908 11.2992 11.0028C11.0432 11.1148 10.7512 11.1708 10.4232 11.1708ZM16.8805 11.1708C16.2565 11.1708 15.7845 10.9908 15.4645 10.6308C15.1525 10.2628 14.9965 9.73481 14.9965 9.04681V3.13081C14.9965 2.9308 15.0485 2.7788 15.1525 2.6748C15.2565 2.5708 15.4045 2.51881 15.5965 2.51881C15.7885 2.51881 15.9365 2.5708 16.0405 2.6748C16.1525 2.7788 16.2085 2.9308 16.2085 3.13081V8.97481C16.2085 9.37481 16.2885 9.67481 16.4485 9.87481C16.6165 10.0668 16.8565 10.1628 17.1685 10.1628C17.2405 10.1628 17.3045 10.1628 17.3605 10.1628C17.4165 10.1548 17.4725 10.1468 17.5285 10.1388C17.6245 10.1308 17.6925 10.1588 17.7325 10.2228C17.7725 10.2788 17.7925 10.3988 17.7925 10.5828C17.7925 10.7508 17.7565 10.8828 17.6845 10.9788C17.6125 11.0668 17.4965 11.1228 17.3365 11.1468C17.2645 11.1548 17.1885 11.1588 17.1085 11.1588C17.0285 11.1668 16.9525 11.1708 16.8805 11.1708ZM19.2645 11.1348C19.0725 11.1348 18.9245 11.0788 18.8205 10.9668C18.7165 10.8468 18.6645 10.6828 18.6645 10.4748V5.79481C18.6645 5.5868 18.7165 5.4268 18.8205 5.3148C18.9245 5.2028 19.0725 5.1468 19.2645 5.1468C19.4565 5.1468 19.6045 5.2028 19.7085 5.3148C19.8205 5.4268 19.8765 5.5868 19.8765 5.79481V10.4748C19.8765 10.6828 19.8245 10.8468 19.7205 10.9668C19.6165 11.0788 19.4645 11.1348 19.2645 11.1348ZM19.2645 3.89881C19.0245 3.89881 18.8365 3.8388 18.7005 3.7188C18.5725 3.5988 18.5085 3.4308 18.5085 3.2148C18.5085 2.9908 18.5725 2.8228 18.7005 2.7108C18.8365 2.5908 19.0245 2.5308 19.2645 2.5308C19.5045 2.5308 19.6885 2.5908 19.8165 2.7108C19.9525 2.8228 20.0205 2.9908 20.0205 3.2148C20.0205 3.4308 19.9525 3.5988 19.8165 3.7188C19.6885 3.8388 19.5045 3.89881 19.2645 3.89881ZM23.8145 11.1708C23.3025 11.1708 22.8505 11.0508 22.4585 10.8108C22.0745 10.5628 21.7745 10.2108 21.5585 9.75481C21.3425 9.29081 21.2345 8.75081 21.2345 8.1348C21.2345 7.5028 21.3425 6.96281 21.5585 6.51481C21.7745 6.0668 22.0745 5.7188 22.4585 5.4708C22.8505 5.22281 23.3025 5.09881 23.8145 5.09881C24.3265 5.09881 24.7665 5.2268 25.1345 5.4828C25.5105 5.7308 25.7625 6.06681 25.8905 6.49081H25.7585V3.13081C25.7585 2.9308 25.8105 2.7788 25.9145 2.6748C26.0185 2.5708 26.1665 2.51881 26.3585 2.51881C26.5505 2.51881 26.6985 2.5708 26.8025 2.6748C26.9145 2.7788 26.9705 2.9308 26.9705 3.13081V10.5348C26.9705 10.7268 26.9185 10.8788 26.8145 10.9908C26.7105 11.0948 26.5625 11.1468 26.3705 11.1468C26.1785 11.1468 26.0305 11.0948 25.9265 10.9908C25.8225 10.8788 25.7705 10.7268 25.7705 10.5348V9.47881L25.9025 9.74281C25.7745 10.1748 25.5225 10.5228 25.1465 10.7868C24.7785 11.0428 24.3345 11.1708 23.8145 11.1708ZM24.1265 10.2348C24.4545 10.2348 24.7425 10.1548 24.9905 9.99481C25.2385 9.83481 25.4305 9.59881 25.5665 9.28681C25.7105 8.97481 25.7825 8.59081 25.7825 8.1348C25.7825 7.44681 25.6305 6.92681 25.3265 6.57481C25.0225 6.22281 24.6225 6.04681 24.1265 6.04681C23.7905 6.04681 23.4985 6.1268 23.2505 6.2868C23.0025 6.4388 22.8065 6.67081 22.6625 6.98281C22.5265 7.2948 22.4585 7.6788 22.4585 8.1348C22.4585 8.81481 22.6105 9.33481 22.9145 9.69481C23.2185 10.0548 23.6225 10.2348 24.1265 10.2348ZM30.5443 11.1708C30.1363 11.1708 29.7683 11.0908 29.4403 10.9308C29.1203 10.7708 28.8683 10.5548 28.6843 10.2828C28.5003 10.0108 28.4083 9.70281 28.4083 9.35881C28.4083 8.92681 28.5163 8.58681 28.7323 8.33881C28.9563 8.08281 29.3203 7.90281 29.8243 7.7988C30.3363 7.68681 31.0243 7.63081 31.8883 7.63081H32.4523V8.37481H31.9003C31.3243 8.37481 30.8683 8.40281 30.5323 8.45881C30.1963 8.51481 29.9563 8.61081 29.8123 8.74681C29.6763 8.87481 29.6083 9.05481 29.6083 9.28681C29.6083 9.59081 29.7123 9.83881 29.9203 10.0308C30.1283 10.2148 30.4163 10.3068 30.7843 10.3068C31.0803 10.3068 31.3403 10.2388 31.5643 10.1028C31.7883 9.95881 31.9643 9.76681 32.0923 9.52681C32.2283 9.28681 32.2963 9.01081 32.2963 8.69881V7.31881C32.2963 6.86281 32.2003 6.5348 32.0083 6.3348C31.8163 6.1348 31.5003 6.0348 31.0603 6.0348C30.8043 6.0348 30.5363 6.0668 30.2563 6.13081C29.9843 6.1948 29.7003 6.3028 29.4043 6.45481C29.2683 6.51881 29.1523 6.53881 29.0563 6.51481C28.9603 6.4908 28.8843 6.4388 28.8283 6.3588C28.7723 6.2708 28.7403 6.1788 28.7323 6.0828C28.7323 5.9788 28.7563 5.8788 28.8043 5.7828C28.8603 5.6868 28.9523 5.6148 29.0803 5.5668C29.4323 5.3988 29.7803 5.2788 30.1243 5.2068C30.4683 5.1348 30.7923 5.09881 31.0963 5.09881C31.6323 5.09881 32.0723 5.18281 32.4163 5.35081C32.7683 5.51881 33.0283 5.7748 33.1963 6.1188C33.3643 6.4628 33.4483 6.9068 33.4483 7.4508V10.5348C33.4483 10.7268 33.4003 10.8788 33.3043 10.9908C33.2083 11.0948 33.0683 11.1468 32.8843 11.1468C32.7083 11.1468 32.5683 11.0948 32.4643 10.9908C32.3603 10.8788 32.3083 10.7268 32.3083 10.5348V9.75481H32.4163C32.3523 10.0508 32.2323 10.3068 32.0563 10.5228C31.8883 10.7308 31.6763 10.8908 31.4203 11.0028C31.1643 11.1148 30.8723 11.1708 30.5443 11.1708ZM37.6136 11.1708C37.1336 11.1708 36.7296 11.0868 36.4016 10.9188C36.0736 10.7508 35.8296 10.5028 35.6696 10.1748C35.5096 9.84681 35.4296 9.44681 35.4296 8.97481V6.1428H34.7096C34.5496 6.1428 34.4256 6.1028 34.3376 6.0228C34.2496 5.9348 34.2056 5.8188 34.2056 5.6748C34.2056 5.5228 34.2496 5.4068 34.3376 5.3268C34.4256 5.2468 34.5496 5.2068 34.7096 5.2068H35.4296V3.9708C35.4296 3.7708 35.4816 3.6188 35.5856 3.51481C35.6976 3.4108 35.8496 3.3588 36.0416 3.3588C36.2336 3.3588 36.3816 3.4108 36.4856 3.51481C36.5896 3.6188 36.6416 3.7708 36.6416 3.9708V5.2068H38.0456C38.2056 5.2068 38.3296 5.2468 38.4176 5.3268C38.5056 5.4068 38.5496 5.5228 38.5496 5.6748C38.5496 5.8188 38.5056 5.9348 38.4176 6.0228C38.3296 6.1028 38.2056 6.1428 38.0456 6.1428H36.6416V8.87881C36.6416 9.30281 36.7296 9.62281 36.9056 9.83881C37.0896 10.0548 37.3856 10.1628 37.7936 10.1628C37.9376 10.1628 38.0616 10.1508 38.1656 10.1268C38.2776 10.0948 38.3696 10.0748 38.4416 10.0668C38.5296 10.0668 38.6016 10.0988 38.6576 10.1628C38.7136 10.2188 38.7416 10.3308 38.7416 10.4988C38.7416 10.6188 38.7176 10.7308 38.6696 10.8348C38.6296 10.9388 38.5536 11.0068 38.4416 11.0388C38.3456 11.0708 38.2136 11.0988 38.0456 11.1228C37.8856 11.1548 37.7416 11.1708 37.6136 11.1708ZM40.2059 11.1348C40.0139 11.1348 39.8659 11.0788 39.7619 10.9668C39.6579 10.8468 39.6059 10.6828 39.6059 10.4748V5.79481C39.6059 5.5868 39.6579 5.4268 39.7619 5.3148C39.8659 5.2028 40.0139 5.1468 40.2059 5.1468C40.3979 5.1468 40.5459 5.2028 40.6499 5.3148C40.7619 5.4268 40.8179 5.5868 40.8179 5.79481V10.4748C40.8179 10.6828 40.7659 10.8468 40.6619 10.9668C40.5579 11.0788 40.4059 11.1348 40.2059 11.1348ZM40.2059 3.89881C39.9659 3.89881 39.7779 3.8388 39.6419 3.7188C39.5139 3.5988 39.4499 3.4308 39.4499 3.2148C39.4499 2.9908 39.5139 2.8228 39.6419 2.7108C39.7779 2.5908 39.9659 2.5308 40.2059 2.5308C40.4459 2.5308 40.6299 2.5908 40.7579 2.7108C40.8939 2.8228 40.9619 2.9908 40.9619 3.2148C40.9619 3.4308 40.8939 3.5988 40.7579 3.7188C40.6299 3.8388 40.4459 3.89881 40.2059 3.89881ZM45.0679 11.1708C44.4759 11.1708 43.9639 11.0468 43.5319 10.7988C43.1079 10.5508 42.7759 10.1988 42.5359 9.74281C42.2959 9.28681 42.1759 8.75081 42.1759 8.1348C42.1759 7.66281 42.2439 7.24281 42.3799 6.87481C42.5159 6.50681 42.7079 6.1908 42.9559 5.9268C43.2119 5.6548 43.5159 5.4508 43.8679 5.3148C44.2279 5.1708 44.6279 5.09881 45.0679 5.09881C45.6519 5.09881 46.1559 5.22281 46.5799 5.4708C47.0119 5.7188 47.3479 6.0708 47.5879 6.5268C47.8279 6.9748 47.9479 7.5108 47.9479 8.1348C47.9479 8.59881 47.8799 9.01881 47.7439 9.39481C47.6079 9.77081 47.4119 10.0908 47.1559 10.3548C46.9079 10.6188 46.6039 10.8228 46.2439 10.9668C45.8919 11.1028 45.4999 11.1708 45.0679 11.1708ZM45.0679 10.2348C45.3959 10.2348 45.6839 10.1548 45.9319 9.99481C46.1799 9.83481 46.3719 9.59881 46.5079 9.28681C46.6519 8.97481 46.7239 8.59081 46.7239 8.1348C46.7239 7.44681 46.5719 6.92681 46.2679 6.57481C45.9639 6.22281 45.5639 6.04681 45.0679 6.04681C44.7319 6.04681 44.4399 6.1268 44.1919 6.2868C43.9439 6.4388 43.7479 6.67081 43.6039 6.98281C43.4679 7.2948 43.3999 7.6788 43.3999 8.1348C43.3999 8.81481 43.5519 9.33481 43.8559 9.69481C44.1599 10.0548 44.5639 10.2348 45.0679 10.2348ZM49.909 11.1468C49.717 11.1468 49.569 11.0948 49.465 10.9908C49.361 10.8788 49.309 10.7268 49.309 10.5348V5.7348C49.309 5.5348 49.361 5.3828 49.465 5.2788C49.569 5.1748 49.713 5.1228 49.897 5.1228C50.089 5.1228 50.233 5.1748 50.329 5.2788C50.433 5.3828 50.485 5.5348 50.485 5.7348V6.6708L50.353 6.45481C50.529 6.0068 50.805 5.6708 51.181 5.4468C51.557 5.21481 51.989 5.09881 52.477 5.09881C52.941 5.09881 53.325 5.18681 53.629 5.3628C53.941 5.5308 54.173 5.7908 54.325 6.1428C54.477 6.4868 54.553 6.9228 54.553 7.4508V10.5348C54.553 10.7268 54.501 10.8788 54.397 10.9908C54.293 11.0948 54.145 11.1468 53.953 11.1468C53.753 11.1468 53.601 11.0948 53.497 10.9908C53.393 10.8788 53.341 10.7268 53.341 10.5348V7.5228C53.341 7.01881 53.241 6.6508 53.041 6.4188C52.849 6.18681 52.545 6.07081 52.129 6.07081C51.641 6.07081 51.249 6.22281 50.953 6.5268C50.665 6.83081 50.521 7.23881 50.521 7.7508V10.5348C50.521 10.9428 50.317 11.1468 49.909 11.1468ZM61.2712 11.1708C60.6472 11.1708 60.1752 10.9908 59.8552 10.6308C59.5432 10.2628 59.3872 9.73481 59.3872 9.04681V3.13081C59.3872 2.9308 59.4392 2.7788 59.5432 2.6748C59.6472 2.5708 59.7952 2.51881 59.9872 2.51881C60.1792 2.51881 60.3272 2.5708 60.4312 2.6748C60.5432 2.7788 60.5992 2.9308 60.5992 3.13081V8.97481C60.5992 9.37481 60.6792 9.67481 60.8392 9.87481C61.0072 10.0668 61.2472 10.1628 61.5592 10.1628C61.6312 10.1628 61.6952 10.1628 61.7512 10.1628C61.8072 10.1548 61.8632 10.1468 61.9192 10.1388C62.0152 10.1308 62.0832 10.1588 62.1232 10.2228C62.1632 10.2788 62.1832 10.3988 62.1832 10.5828C62.1832 10.7508 62.1472 10.8828 62.0752 10.9788C62.0032 11.0668 61.8872 11.1228 61.7272 11.1468C61.6552 11.1548 61.5792 11.1588 61.4992 11.1588C61.4192 11.1668 61.3432 11.1708 61.2712 11.1708ZM64.9271 11.1708C64.5191 11.1708 64.1511 11.0908 63.8231 10.9308C63.5031 10.7708 63.2511 10.5548 63.0671 10.2828C62.8831 10.0108 62.7911 9.70281 62.7911 9.35881C62.7911 8.92681 62.8991 8.58681 63.1151 8.33881C63.3391 8.08281 63.7031 7.90281 64.2071 7.7988C64.7191 7.68681 65.4071 7.63081 66.2711 7.63081H66.8351V8.37481H66.2831C65.7071 8.37481 65.2511 8.40281 64.9151 8.45881C64.5791 8.51481 64.3391 8.61081 64.1951 8.74681C64.0591 8.87481 63.9911 9.05481 63.9911 9.28681C63.9911 9.59081 64.0951 9.83881 64.3031 10.0308C64.5111 10.2148 64.7991 10.3068 65.1671 10.3068C65.4631 10.3068 65.7231 10.2388 65.9471 10.1028C66.1711 9.95881 66.3471 9.76681 66.4751 9.52681C66.6111 9.28681 66.6791 9.01081 66.6791 8.69881V7.31881C66.6791 6.86281 66.5831 6.5348 66.3911 6.3348C66.1991 6.1348 65.8831 6.0348 65.4431 6.0348C65.1871 6.0348 64.9191 6.0668 64.6391 6.13081C64.3671 6.1948 64.0831 6.3028 63.7871 6.45481C63.6511 6.51881 63.5351 6.53881 63.4391 6.51481C63.3431 6.4908 63.2671 6.4388 63.2111 6.3588C63.1551 6.2708 63.1231 6.1788 63.1151 6.0828C63.1151 5.9788 63.1391 5.8788 63.1871 5.7828C63.2431 5.6868 63.3351 5.6148 63.4631 5.5668C63.8151 5.3988 64.1631 5.2788 64.5071 5.2068C64.8511 5.1348 65.1751 5.09881 65.4791 5.09881C66.0151 5.09881 66.4551 5.18281 66.7991 5.35081C67.1511 5.51881 67.4111 5.7748 67.5791 6.1188C67.7471 6.4628 67.8311 6.9068 67.8311 7.4508V10.5348C67.8311 10.7268 67.7831 10.8788 67.6871 10.9908C67.5911 11.0948 67.4511 11.1468 67.2671 11.1468C67.0911 11.1468 66.9511 11.0948 66.8471 10.9908C66.7431 10.8788 66.6911 10.7268 66.6911 10.5348V9.75481H66.7991C66.7351 10.0508 66.6151 10.3068 66.4391 10.5228C66.2711 10.7308 66.0591 10.8908 65.8031 11.0028C65.5471 11.1148 65.2551 11.1708 64.9271 11.1708ZM72.6444 11.1708C72.1324 11.1708 71.6884 11.0428 71.3124 10.7868C70.9364 10.5228 70.6844 10.1748 70.5564 9.74281L70.6884 9.52681V10.5348C70.6884 10.7268 70.6364 10.8788 70.5324 10.9908C70.4284 11.0948 70.2844 11.1468 70.1004 11.1468C69.9084 11.1468 69.7604 11.0948 69.6564 10.9908C69.5524 10.8788 69.5004 10.7268 69.5004 10.5348V3.13081C69.5004 2.9308 69.5524 2.7788 69.6564 2.6748C69.7604 2.5708 69.9084 2.51881 70.1004 2.51881C70.2924 2.51881 70.4404 2.5708 70.5444 2.6748C70.6564 2.7788 70.7124 2.9308 70.7124 3.13081V6.49081H70.5684C70.6964 6.06681 70.9484 5.7308 71.3244 5.4828C71.7004 5.2268 72.1404 5.09881 72.6444 5.09881C73.1724 5.09881 73.6284 5.22281 74.0124 5.4708C74.3964 5.7188 74.6924 6.0668 74.9004 6.51481C75.1164 6.96281 75.2244 7.5028 75.2244 8.1348C75.2244 8.75081 75.1164 9.29081 74.9004 9.75481C74.6924 10.2108 74.3924 10.5628 74.0004 10.8108C73.6164 11.0508 73.1644 11.1708 72.6444 11.1708ZM72.3444 10.2348C72.6804 10.2348 72.9724 10.1548 73.2204 9.99481C73.4684 9.83481 73.6604 9.59881 73.7964 9.28681C73.9324 8.97481 74.0004 8.59081 74.0004 8.1348C74.0004 7.44681 73.8484 6.92681 73.5444 6.57481C73.2484 6.22281 72.8484 6.04681 72.3444 6.04681C72.0164 6.04681 71.7244 6.1268 71.4684 6.2868C71.2204 6.4388 71.0284 6.67081 70.8924 6.98281C70.7564 7.2948 70.6884 7.6788 70.6884 8.1348C70.6884 8.81481 70.8404 9.33481 71.1444 9.69481C71.4484 10.0548 71.8484 10.2348 72.3444 10.2348ZM79.3383 11.1708C78.6983 11.1708 78.1463 11.0508 77.6823 10.8108C77.2263 10.5628 76.8703 10.2148 76.6143 9.76681C76.3663 9.31081 76.2423 8.77081 76.2423 8.1468C76.2423 7.53881 76.3663 7.00681 76.6143 6.5508C76.8623 6.0948 77.2023 5.7388 77.6343 5.4828C78.0663 5.2268 78.5583 5.09881 79.1103 5.09881C79.5183 5.09881 79.8823 5.16681 80.2023 5.3028C80.5223 5.4308 80.7943 5.6228 81.0183 5.87881C81.2503 6.1268 81.4223 6.4308 81.5343 6.79081C81.6543 7.1508 81.7143 7.5548 81.7143 8.0028C81.7143 8.13881 81.6743 8.24281 81.5943 8.3148C81.5143 8.3788 81.3943 8.4108 81.2343 8.4108H77.2023V7.6668H80.8983L80.6943 7.8348C80.6943 7.43481 80.6343 7.09481 80.5143 6.81481C80.4023 6.5348 80.2303 6.3228 79.9983 6.17881C79.7743 6.0268 79.4943 5.9508 79.1583 5.9508C78.7823 5.9508 78.4623 6.0388 78.1983 6.21481C77.9423 6.3908 77.7463 6.6348 77.6103 6.9468C77.4743 7.2588 77.4063 7.6228 77.4063 8.03881V8.11081C77.4063 8.81481 77.5703 9.34681 77.8983 9.70681C78.2343 10.0588 78.7183 10.2348 79.3503 10.2348C79.5903 10.2348 79.8423 10.2028 80.1063 10.1388C80.3783 10.0748 80.6343 9.96681 80.8743 9.81481C81.0103 9.73481 81.1303 9.69881 81.2343 9.70681C81.3463 9.71481 81.4343 9.75081 81.4983 9.81481C81.5703 9.87881 81.6143 9.95881 81.6303 10.0548C81.6463 10.1508 81.6303 10.2508 81.5823 10.3548C81.5343 10.4508 81.4503 10.5388 81.3303 10.6188C81.0583 10.8028 80.7423 10.9428 80.3823 11.0388C80.0223 11.1268 79.6743 11.1708 79.3383 11.1708ZM84.9196 11.1708C84.2956 11.1708 83.8236 10.9908 83.5036 10.6308C83.1916 10.2628 83.0356 9.73481 83.0356 9.04681V3.13081C83.0356 2.9308 83.0876 2.7788 83.1916 2.6748C83.2956 2.5708 83.4436 2.51881 83.6356 2.51881C83.8276 2.51881 83.9756 2.5708 84.0796 2.6748C84.1916 2.7788 84.2476 2.9308 84.2476 3.13081V8.97481C84.2476 9.37481 84.3276 9.67481 84.4876 9.87481C84.6556 10.0668 84.8956 10.1628 85.2076 10.1628C85.2796 10.1628 85.3436 10.1628 85.3996 10.1628C85.4556 10.1548 85.5116 10.1468 85.5676 10.1388C85.6636 10.1308 85.7316 10.1588 85.7716 10.2228C85.8116 10.2788 85.8316 10.3988 85.8316 10.5828C85.8316 10.7508 85.7956 10.8828 85.7236 10.9788C85.6516 11.0668 85.5356 11.1228 85.3756 11.1468C85.3036 11.1548 85.2276 11.1588 85.1476 11.1588C85.0676 11.1668 84.9916 11.1708 84.9196 11.1708Z" fill="#EB0910"/>
<path d="M30.416 45.06C30.248 45.06 30.116 45.008 30.02 44.904C29.924 44.8 29.876 44.656 29.876 44.472V39.684C29.876 39.492 29.924 39.348 30.02 39.252C30.116 39.148 30.248 39.096 30.416 39.096C30.592 39.096 30.728 39.148 30.824 39.252C30.92 39.348 30.968 39.492 30.968 39.684V44.472C30.968 44.656 30.92 44.8 30.824 44.904C30.736 45.008 30.6 45.06 30.416 45.06ZM30.416 37.8C30.2 37.8 30.028 37.744 29.9 37.632C29.78 37.512 29.72 37.356 29.72 37.164C29.72 36.956 29.78 36.8 29.9 36.696C30.028 36.584 30.2 36.528 30.416 36.528C30.648 36.528 30.82 36.584 30.932 36.696C31.052 36.8 31.112 36.956 31.112 37.164C31.112 37.356 31.052 37.512 30.932 37.632C30.82 37.744 30.648 37.8 30.416 37.8ZM33.2637 45.084C33.0957 45.084 32.9637 45.036 32.8677 44.94C32.7717 44.844 32.7237 44.704 32.7237 44.52V39.624C32.7237 39.44 32.7717 39.304 32.8677 39.216C32.9637 39.12 33.0957 39.072 33.2637 39.072C33.4317 39.072 33.5597 39.12 33.6477 39.216C33.7437 39.304 33.7917 39.44 33.7917 39.624V40.608L33.6597 40.428C33.8277 39.972 34.0997 39.628 34.4757 39.396C34.8597 39.164 35.2957 39.048 35.7837 39.048C36.2557 39.048 36.6437 39.132 36.9477 39.3C37.2517 39.468 37.4797 39.724 37.6317 40.068C37.7837 40.412 37.8597 40.848 37.8597 41.376V44.52C37.8597 44.704 37.8117 44.844 37.7157 44.94C37.6277 45.036 37.4957 45.084 37.3197 45.084C37.1437 45.084 37.0077 45.036 36.9117 44.94C36.8157 44.844 36.7677 44.704 36.7677 44.52V41.436C36.7677 40.916 36.6677 40.536 36.4677 40.296C36.2677 40.056 35.9477 39.936 35.5077 39.936C34.9957 39.936 34.5837 40.096 34.2717 40.416C33.9677 40.728 33.8157 41.152 33.8157 41.688V44.52C33.8157 44.896 33.6317 45.084 33.2637 45.084ZM40.1308 47.244C39.9628 47.244 39.8308 47.196 39.7348 47.1C39.6388 47.004 39.5908 46.868 39.5908 46.692V39.624C39.5908 39.44 39.6388 39.304 39.7348 39.216C39.8308 39.12 39.9628 39.072 40.1308 39.072C40.3068 39.072 40.4388 39.12 40.5268 39.216C40.6228 39.304 40.6708 39.44 40.6708 39.624V40.716L40.5388 40.5C40.6668 40.06 40.9188 39.708 41.2948 39.444C41.6708 39.18 42.1228 39.048 42.6508 39.048C43.1708 39.048 43.6228 39.172 44.0068 39.42C44.3908 39.66 44.6908 40.008 44.9068 40.464C45.1228 40.912 45.2308 41.448 45.2308 42.072C45.2308 42.688 45.1228 43.228 44.9068 43.692C44.6988 44.148 44.3988 44.5 44.0068 44.748C43.6228 44.988 43.1708 45.108 42.6508 45.108C42.1308 45.108 41.6828 44.976 41.3068 44.712C40.9308 44.448 40.6788 44.1 40.5508 43.668H40.6828V46.692C40.6828 46.868 40.6348 47.004 40.5388 47.1C40.4428 47.196 40.3068 47.244 40.1308 47.244ZM42.3988 44.244C42.7428 44.244 43.0428 44.16 43.2988 43.992C43.5628 43.824 43.7668 43.58 43.9108 43.26C44.0548 42.94 44.1268 42.544 44.1268 42.072C44.1268 41.368 43.9708 40.832 43.6588 40.464C43.3468 40.096 42.9268 39.912 42.3988 39.912C42.0468 39.912 41.7388 39.996 41.4748 40.164C41.2188 40.324 41.0188 40.564 40.8748 40.884C40.7388 41.204 40.6708 41.6 40.6708 42.072C40.6708 42.776 40.8268 43.316 41.1388 43.692C41.4508 44.06 41.8708 44.244 42.3988 44.244ZM48.7218 45.108C48.2498 45.108 47.8538 45.02 47.5338 44.844C47.2218 44.668 46.9898 44.408 46.8378 44.064C46.6858 43.72 46.6098 43.288 46.6098 42.768V39.624C46.6098 39.44 46.6538 39.304 46.7418 39.216C46.8378 39.12 46.9738 39.072 47.1498 39.072C47.3258 39.072 47.4618 39.12 47.5578 39.216C47.6538 39.304 47.7018 39.44 47.7018 39.624V42.768C47.7018 43.264 47.8018 43.632 48.0018 43.872C48.2018 44.104 48.5178 44.22 48.9498 44.22C49.4298 44.22 49.8178 44.06 50.1138 43.74C50.4178 43.42 50.5698 42.996 50.5698 42.468V39.624C50.5698 39.44 50.6138 39.304 50.7018 39.216C50.7978 39.12 50.9338 39.072 51.1098 39.072C51.2858 39.072 51.4218 39.12 51.5178 39.216C51.6138 39.304 51.6618 39.44 51.6618 39.624V44.52C51.6618 44.896 51.4858 45.084 51.1338 45.084C50.9578 45.084 50.8218 45.036 50.7258 44.94C50.6378 44.844 50.5938 44.704 50.5938 44.52V43.476L50.7498 43.68C50.5898 44.144 50.3298 44.5 49.9698 44.748C49.6178 44.988 49.2018 45.108 48.7218 45.108ZM55.843 45.108C55.371 45.108 54.975 45.024 54.655 44.856C54.343 44.688 54.107 44.444 53.947 44.124C53.795 43.804 53.719 43.412 53.719 42.948V39.996H52.951C52.807 39.996 52.695 39.96 52.615 39.888C52.535 39.808 52.495 39.704 52.495 39.576C52.495 39.44 52.535 39.336 52.615 39.264C52.695 39.192 52.807 39.156 52.951 39.156H53.719V37.848C53.719 37.664 53.767 37.528 53.863 37.44C53.959 37.344 54.095 37.296 54.271 37.296C54.447 37.296 54.579 37.344 54.667 37.44C54.763 37.528 54.811 37.664 54.811 37.848V39.156H56.263C56.415 39.156 56.531 39.192 56.611 39.264C56.691 39.336 56.731 39.44 56.731 39.576C56.731 39.704 56.691 39.808 56.611 39.888C56.531 39.96 56.415 39.996 56.263 39.996H54.811V42.852C54.811 43.292 54.903 43.624 55.087 43.848C55.271 44.072 55.575 44.184 55.999 44.184C56.151 44.184 56.279 44.172 56.383 44.148C56.487 44.116 56.579 44.1 56.659 44.1C56.731 44.092 56.791 44.116 56.839 44.172C56.895 44.228 56.923 44.332 56.923 44.484C56.923 44.596 56.903 44.7 56.863 44.796C56.831 44.884 56.763 44.944 56.659 44.976C56.563 45.008 56.435 45.036 56.275 45.06C56.115 45.092 55.971 45.108 55.843 45.108ZM62.6847 45.108C62.0847 45.108 61.6287 44.932 61.3167 44.58C61.0047 44.22 60.8487 43.704 60.8487 43.032V37.008C60.8487 36.824 60.8967 36.688 60.9927 36.6C61.0887 36.504 61.2207 36.456 61.3887 36.456C61.5647 36.456 61.7007 36.504 61.7967 36.6C61.8927 36.688 61.9407 36.824 61.9407 37.008V42.948C61.9407 43.364 62.0247 43.676 62.1927 43.884C62.3687 44.084 62.6167 44.184 62.9367 44.184C63.0087 44.184 63.0727 44.184 63.1287 44.184C63.1847 44.176 63.2407 44.168 63.2967 44.16C63.3847 44.152 63.4487 44.176 63.4887 44.232C63.5287 44.288 63.5487 44.4 63.5487 44.568C63.5487 44.72 63.5127 44.84 63.4407 44.928C63.3767 45.008 63.2687 45.06 63.1167 45.084C63.0447 45.092 62.9727 45.096 62.9007 45.096C62.8287 45.104 62.7567 45.108 62.6847 45.108ZM66.318 45.108C65.918 45.108 65.554 45.028 65.226 44.868C64.906 44.708 64.654 44.492 64.47 44.22C64.294 43.948 64.206 43.644 64.206 43.308C64.206 42.876 64.314 42.536 64.53 42.288C64.746 42.04 65.11 41.864 65.622 41.76C66.134 41.648 66.822 41.592 67.686 41.592H68.25V42.288H67.71C67.094 42.288 66.606 42.316 66.246 42.372C65.894 42.428 65.646 42.528 65.502 42.672C65.358 42.808 65.286 43 65.286 43.248C65.286 43.56 65.394 43.816 65.61 44.016C65.834 44.216 66.138 44.316 66.522 44.316C66.826 44.316 67.094 44.244 67.326 44.1C67.558 43.948 67.742 43.748 67.878 43.5C68.014 43.244 68.082 42.952 68.082 42.624V41.244C68.082 40.772 67.986 40.432 67.794 40.224C67.602 40.008 67.278 39.9 66.822 39.9C66.558 39.9 66.286 39.936 66.006 40.008C65.726 40.08 65.434 40.192 65.13 40.344C65.01 40.4 64.906 40.42 64.818 40.404C64.73 40.38 64.658 40.332 64.602 40.26C64.554 40.18 64.526 40.096 64.518 40.008C64.518 39.912 64.538 39.82 64.578 39.732C64.626 39.644 64.706 39.58 64.818 39.54C65.17 39.364 65.518 39.24 65.862 39.168C66.214 39.088 66.542 39.048 66.846 39.048C67.366 39.048 67.794 39.132 68.13 39.3C68.466 39.46 68.718 39.712 68.886 40.056C69.054 40.392 69.138 40.824 69.138 41.352V44.52C69.138 44.704 69.094 44.844 69.006 44.94C68.918 45.036 68.79 45.084 68.622 45.084C68.462 45.084 68.334 45.036 68.238 44.94C68.15 44.844 68.106 44.704 68.106 44.52V43.668H68.214C68.15 43.964 68.03 44.22 67.854 44.436C67.678 44.652 67.458 44.82 67.194 44.94C66.938 45.052 66.646 45.108 66.318 45.108ZM73.9165 45.108C73.3885 45.108 72.9365 44.976 72.5605 44.712C72.1845 44.448 71.9325 44.092 71.8045 43.644L71.9365 43.464V44.52C71.9365 44.704 71.8885 44.844 71.7925 44.94C71.7045 45.036 71.5725 45.084 71.3965 45.084C71.2285 45.084 71.0965 45.036 71.0005 44.94C70.9045 44.844 70.8565 44.704 70.8565 44.52V37.008C70.8565 36.824 70.9045 36.688 71.0005 36.6C71.0965 36.504 71.2285 36.456 71.3965 36.456C71.5725 36.456 71.7085 36.504 71.8045 36.6C71.9005 36.688 71.9485 36.824 71.9485 37.008V40.476H71.8165C71.9445 40.044 72.1965 39.7 72.5725 39.444C72.9485 39.18 73.3965 39.048 73.9165 39.048C74.4365 39.048 74.8885 39.172 75.2725 39.42C75.6645 39.66 75.9645 40.008 76.1725 40.464C76.3885 40.912 76.4965 41.448 76.4965 42.072C76.4965 42.688 76.3885 43.228 76.1725 43.692C75.9565 44.148 75.6565 44.5 75.2725 44.748C74.8885 44.988 74.4365 45.108 73.9165 45.108ZM73.6645 44.244C74.0085 44.244 74.3085 44.16 74.5645 43.992C74.8285 43.824 75.0325 43.58 75.1765 43.26C75.3205 42.94 75.3925 42.544 75.3925 42.072C75.3925 41.368 75.2365 40.832 74.9245 40.464C74.6125 40.096 74.1925 39.912 73.6645 39.912C73.3125 39.912 73.0045 39.996 72.7405 40.164C72.4845 40.324 72.2845 40.564 72.1405 40.884C72.0045 41.204 71.9365 41.6 71.9365 42.072C71.9365 42.776 72.0925 43.316 72.4045 43.692C72.7165 44.06 73.1365 44.244 73.6645 44.244ZM80.5994 45.108C79.9674 45.108 79.4234 44.988 78.9674 44.748C78.5194 44.5 78.1714 44.152 77.9234 43.704C77.6754 43.248 77.5514 42.712 77.5514 42.096C77.5514 41.488 77.6714 40.956 77.9114 40.5C78.1594 40.044 78.4954 39.688 78.9194 39.432C79.3514 39.176 79.8434 39.048 80.3954 39.048C80.7874 39.048 81.1394 39.116 81.4514 39.252C81.7714 39.38 82.0434 39.568 82.2674 39.816C82.4914 40.064 82.6594 40.368 82.7714 40.728C82.8914 41.08 82.9514 41.48 82.9514 41.928C82.9514 42.056 82.9114 42.156 82.8314 42.228C82.7594 42.292 82.6514 42.324 82.5074 42.324H78.4034V41.628H82.2314L82.0274 41.796C82.0274 41.38 81.9634 41.028 81.8354 40.74C81.7154 40.444 81.5354 40.22 81.2954 40.068C81.0634 39.916 80.7714 39.84 80.4194 39.84C80.0354 39.84 79.7074 39.932 79.4354 40.116C79.1634 40.292 78.9554 40.544 78.8114 40.872C78.6674 41.192 78.5954 41.564 78.5954 41.988V42.06C78.5954 42.78 78.7674 43.324 79.1114 43.692C79.4554 44.06 79.9514 44.244 80.5994 44.244C80.8554 44.244 81.1154 44.212 81.3794 44.148C81.6514 44.084 81.9114 43.968 82.1594 43.8C82.2794 43.728 82.3874 43.696 82.4834 43.704C82.5874 43.704 82.6714 43.736 82.7354 43.8C82.7994 43.856 82.8394 43.928 82.8554 44.016C82.8714 44.096 82.8594 44.184 82.8194 44.28C82.7794 44.376 82.7034 44.46 82.5914 44.532C82.3274 44.716 82.0114 44.86 81.6434 44.964C81.2834 45.06 80.9354 45.108 80.5994 45.108ZM86.1456 45.108C85.5456 45.108 85.0896 44.932 84.7776 44.58C84.4656 44.22 84.3096 43.704 84.3096 43.032V37.008C84.3096 36.824 84.3576 36.688 84.4536 36.6C84.5496 36.504 84.6816 36.456 84.8496 36.456C85.0256 36.456 85.1616 36.504 85.2576 36.6C85.3536 36.688 85.4016 36.824 85.4016 37.008V42.948C85.4016 43.364 85.4856 43.676 85.6536 43.884C85.8296 44.084 86.0776 44.184 86.3976 44.184C86.4696 44.184 86.5336 44.184 86.5896 44.184C86.6456 44.176 86.7016 44.168 86.7576 44.16C86.8456 44.152 86.9096 44.176 86.9496 44.232C86.9896 44.288 87.0096 44.4 87.0096 44.568C87.0096 44.72 86.9736 44.84 86.9016 44.928C86.8376 45.008 86.7296 45.06 86.5776 45.084C86.5056 45.092 86.4336 45.096 86.3616 45.096C86.2896 45.104 86.2176 45.108 86.1456 45.108Z" fill="#38455D"/>
<path d="M141.82 27.1321C141.108 27.1321 140.576 26.9361 140.224 26.5441C139.872 26.1441 139.696 25.5521 139.696 24.7681V19.3561C139.696 19.0521 139.772 18.8241 139.924 18.6721C140.084 18.5121 140.312 18.4321 140.608 18.4321C140.896 18.4321 141.116 18.5121 141.268 18.6721C141.428 18.8241 141.508 19.0521 141.508 19.3561V24.6961C141.508 25.0241 141.576 25.2681 141.712 25.4281C141.856 25.5801 142.044 25.6561 142.276 25.6561C142.34 25.6561 142.4 25.6521 142.456 25.6441C142.512 25.6361 142.572 25.6321 142.636 25.6321C142.764 25.6161 142.852 25.6561 142.9 25.7521C142.956 25.8401 142.984 26.0201 142.984 26.2921C142.984 26.5321 142.936 26.7161 142.84 26.8441C142.744 26.9641 142.596 27.0441 142.396 27.0841C142.316 27.0921 142.224 27.1001 142.12 27.1081C142.016 27.1241 141.916 27.1321 141.82 27.1321ZM146.694 27.1321C145.998 27.1321 145.398 27.0081 144.894 26.7601C144.398 26.5041 144.014 26.1481 143.742 25.6921C143.478 25.2281 143.346 24.6841 143.346 24.0601C143.346 23.4521 143.474 22.9201 143.729 22.4641C143.986 22.0001 144.342 21.6401 144.798 21.3841C145.262 21.1201 145.786 20.9881 146.37 20.9881C146.794 20.9881 147.178 21.0601 147.522 21.2041C147.866 21.3401 148.162 21.5401 148.41 21.8041C148.658 22.0601 148.846 22.3761 148.974 22.7521C149.102 23.1201 149.166 23.5321 149.166 23.9881C149.166 24.1401 149.118 24.2561 149.022 24.3361C148.926 24.4081 148.786 24.4441 148.602 24.4441H144.834V23.5081H147.858L147.666 23.6761C147.666 23.3481 147.618 23.0761 147.522 22.8601C147.426 22.6361 147.286 22.4681 147.102 22.3561C146.926 22.2441 146.706 22.1881 146.442 22.1881C146.146 22.1881 145.894 22.2561 145.686 22.3921C145.478 22.5281 145.318 22.7241 145.206 22.9801C145.094 23.2361 145.038 23.5441 145.038 23.9041V24.0001C145.038 24.6081 145.178 25.0561 145.458 25.3441C145.746 25.6321 146.17 25.7761 146.73 25.7761C146.922 25.7761 147.142 25.7521 147.39 25.7041C147.638 25.6561 147.87 25.5801 148.086 25.4761C148.27 25.3881 148.434 25.3601 148.578 25.3921C148.722 25.4161 148.834 25.4801 148.914 25.5841C148.994 25.6881 149.038 25.8081 149.046 25.9441C149.062 26.0801 149.034 26.2161 148.962 26.3521C148.89 26.4801 148.77 26.5881 148.602 26.6761C148.33 26.8281 148.022 26.9401 147.678 27.0121C147.342 27.0921 147.014 27.1321 146.694 27.1321ZM153.051 29.2921C152.619 29.2921 152.203 29.2561 151.803 29.1841C151.411 29.1121 151.063 29.0041 150.759 28.8601C150.575 28.7801 150.443 28.6761 150.363 28.5481C150.291 28.4201 150.259 28.2841 150.267 28.1401C150.283 27.9961 150.331 27.8681 150.411 27.7561C150.499 27.6441 150.607 27.5641 150.735 27.5161C150.863 27.4761 150.999 27.4881 151.143 27.5521C151.495 27.7121 151.819 27.8161 152.115 27.8641C152.419 27.9121 152.679 27.9361 152.895 27.9361C153.407 27.9361 153.791 27.8201 154.047 27.5881C154.303 27.3561 154.431 27.0001 154.431 26.5201V25.6081H154.539C154.419 25.9761 154.171 26.2761 153.795 26.5081C153.419 26.7401 153.003 26.8561 152.547 26.8561C152.019 26.8561 151.559 26.7361 151.167 26.4961C150.775 26.2481 150.471 25.9041 150.255 25.4641C150.039 25.0161 149.931 24.5001 149.931 23.9161C149.931 23.4761 149.991 23.0761 150.111 22.7161C150.239 22.3561 150.415 22.0481 150.639 21.7921C150.871 21.5361 151.147 21.3401 151.467 21.2041C151.795 21.0601 152.155 20.9881 152.547 20.9881C153.019 20.9881 153.435 21.1041 153.795 21.3361C154.163 21.5601 154.407 21.8561 154.527 22.2241L154.407 22.6081V21.9241C154.407 21.6281 154.483 21.4041 154.635 21.2521C154.795 21.0921 155.019 21.0121 155.307 21.0121C155.595 21.0121 155.815 21.0921 155.967 21.2521C156.119 21.4041 156.195 21.6281 156.195 21.9241V26.3161C156.195 27.3001 155.923 28.0401 155.379 28.5361C154.843 29.0401 154.067 29.2921 153.051 29.2921ZM153.087 25.5001C153.359 25.5001 153.591 25.4361 153.783 25.3081C153.983 25.1801 154.139 25.0001 154.251 24.7681C154.363 24.5281 154.419 24.2441 154.419 23.9161C154.419 23.4201 154.295 23.0361 154.047 22.7641C153.807 22.4841 153.487 22.3441 153.087 22.3441C152.815 22.3441 152.579 22.4081 152.379 22.5361C152.179 22.6561 152.023 22.8361 151.911 23.0761C151.807 23.3081 151.755 23.5881 151.755 23.9161C151.755 24.4121 151.875 24.8001 152.115 25.0801C152.355 25.3601 152.679 25.5001 153.087 25.5001ZM160.662 27.1321C159.966 27.1321 159.366 27.0081 158.862 26.7601C158.366 26.5041 157.982 26.1481 157.71 25.6921C157.446 25.2281 157.314 24.6841 157.314 24.0601C157.314 23.4521 157.442 22.9201 157.698 22.4641C157.954 22.0001 158.31 21.6401 158.766 21.3841C159.23 21.1201 159.754 20.9881 160.338 20.9881C160.762 20.9881 161.146 21.0601 161.49 21.2041C161.834 21.3401 162.13 21.5401 162.378 21.8041C162.626 22.0601 162.814 22.3761 162.942 22.7521C163.07 23.1201 163.134 23.5321 163.134 23.9881C163.134 24.1401 163.086 24.2561 162.99 24.3361C162.894 24.4081 162.754 24.4441 162.57 24.4441H158.802V23.5081H161.826L161.634 23.6761C161.634 23.3481 161.586 23.0761 161.49 22.8601C161.394 22.6361 161.254 22.4681 161.07 22.3561C160.894 22.2441 160.674 22.1881 160.41 22.1881C160.114 22.1881 159.862 22.2561 159.654 22.3921C159.446 22.5281 159.286 22.7241 159.174 22.9801C159.062 23.2361 159.006 23.5441 159.006 23.9041V24.0001C159.006 24.6081 159.146 25.0561 159.426 25.3441C159.714 25.6321 160.138 25.7761 160.698 25.7761C160.89 25.7761 161.11 25.7521 161.358 25.7041C161.606 25.6561 161.838 25.5801 162.054 25.4761C162.238 25.3881 162.402 25.3601 162.546 25.3921C162.69 25.4161 162.802 25.4801 162.882 25.5841C162.962 25.6881 163.006 25.8081 163.014 25.9441C163.03 26.0801 163.002 26.2161 162.93 26.3521C162.858 26.4801 162.738 26.5881 162.57 26.6761C162.298 26.8281 161.99 26.9401 161.646 27.0121C161.31 27.0921 160.982 27.1321 160.662 27.1321ZM165.1 27.1081C164.804 27.1081 164.576 27.0281 164.416 26.8681C164.264 26.7081 164.188 26.4801 164.188 26.1841V21.9241C164.188 21.6281 164.264 21.4041 164.416 21.2521C164.576 21.0921 164.796 21.0121 165.076 21.0121C165.364 21.0121 165.584 21.0921 165.736 21.2521C165.888 21.4041 165.964 21.6281 165.964 21.9241V22.6081L165.832 22.2121C166.016 21.8201 166.288 21.5201 166.648 21.3121C167.016 21.0961 167.432 20.9881 167.896 20.9881C168.368 20.9881 168.756 21.0801 169.06 21.2641C169.364 21.4401 169.592 21.7121 169.744 22.0801C169.896 22.4401 169.972 22.9001 169.972 23.4601V26.1841C169.972 26.4801 169.892 26.7081 169.732 26.8681C169.58 27.0281 169.356 27.1081 169.06 27.1081C168.772 27.1081 168.548 27.0281 168.388 26.8681C168.236 26.7081 168.16 26.4801 168.16 26.1841V23.5441C168.16 23.1361 168.084 22.8441 167.932 22.6681C167.788 22.4841 167.564 22.3921 167.26 22.3921C166.876 22.3921 166.568 22.5121 166.336 22.7521C166.112 22.9921 166 23.3121 166 23.7121V26.1841C166 26.8001 165.7 27.1081 165.1 27.1081ZM173.617 27.1321C173.105 27.1321 172.653 27.0081 172.261 26.7601C171.877 26.5121 171.577 26.1561 171.361 25.6921C171.145 25.2281 171.037 24.6801 171.037 24.0481C171.037 23.4161 171.145 22.8721 171.361 22.4161C171.577 21.9601 171.877 21.6081 172.261 21.3601C172.653 21.1121 173.105 20.9881 173.617 20.9881C174.081 20.9881 174.489 21.1001 174.841 21.3241C175.201 21.5481 175.445 21.8401 175.573 22.2001H175.441V19.3561C175.441 19.0521 175.517 18.8241 175.669 18.6721C175.821 18.5121 176.045 18.4321 176.341 18.4321C176.629 18.4321 176.853 18.5121 177.013 18.6721C177.173 18.8241 177.253 19.0521 177.253 19.3561V26.1841C177.253 26.4801 177.173 26.7081 177.013 26.8681C176.861 27.0281 176.641 27.1081 176.353 27.1081C176.065 27.1081 175.841 27.0281 175.681 26.8681C175.529 26.7081 175.453 26.4801 175.453 26.1841V25.3681L175.585 25.8361C175.473 26.2281 175.233 26.5441 174.865 26.7841C174.505 27.0161 174.089 27.1321 173.617 27.1321ZM174.157 25.7761C174.421 25.7761 174.649 25.7121 174.841 25.5841C175.033 25.4561 175.185 25.2681 175.297 25.0201C175.409 24.7641 175.465 24.4401 175.465 24.0481C175.465 23.4641 175.345 23.0361 175.105 22.7641C174.865 22.4841 174.549 22.3441 174.157 22.3441C173.901 22.3441 173.673 22.4041 173.473 22.5241C173.281 22.6441 173.129 22.8321 173.017 23.0881C172.913 23.3361 172.861 23.6561 172.861 24.0481C172.861 24.6321 172.981 25.0681 173.221 25.3561C173.461 25.6361 173.773 25.7761 174.157 25.7761Z" fill="#929BAA"/>
<path d="M69.67 28.14C68.6433 28.14 67.7613 27.9347 67.024 27.524C66.296 27.104 65.736 26.516 65.344 25.76C64.952 24.9947 64.756 24.094 64.756 23.058C64.756 22.2833 64.868 21.588 65.092 20.972C65.316 20.3467 65.638 19.8147 66.058 19.376C66.478 18.928 66.9913 18.5873 67.598 18.354C68.214 18.1113 68.9047 17.99 69.67 17.99C70.1833 17.99 70.6873 18.0553 71.182 18.186C71.6767 18.3167 72.1107 18.5033 72.484 18.746C72.68 18.8673 72.8107 19.0167 72.876 19.194C72.9413 19.362 72.9553 19.53 72.918 19.698C72.8807 19.8567 72.8013 19.992 72.68 20.104C72.568 20.216 72.4233 20.2813 72.246 20.3C72.078 20.3093 71.8913 20.2487 71.686 20.118C71.3967 19.9313 71.084 19.796 70.748 19.712C70.412 19.628 70.0713 19.586 69.726 19.586C69.0633 19.586 68.5033 19.7213 68.046 19.992C67.5887 20.2627 67.2433 20.6547 67.01 21.168C66.7767 21.6813 66.66 22.3113 66.66 23.058C66.66 23.7953 66.7767 24.4253 67.01 24.948C67.2433 25.4707 67.5887 25.8673 68.046 26.138C68.5033 26.4087 69.0633 26.544 69.726 26.544C70.0807 26.544 70.4307 26.502 70.776 26.418C71.1213 26.3247 71.448 26.1847 71.756 25.998C71.9613 25.8767 72.1433 25.8253 72.302 25.844C72.47 25.8533 72.61 25.9093 72.722 26.012C72.834 26.1147 72.9087 26.2453 72.946 26.404C72.9833 26.5533 72.974 26.712 72.918 26.88C72.862 27.0387 72.75 27.1787 72.582 27.3C72.2087 27.5707 71.7607 27.7807 71.238 27.93C70.7247 28.07 70.202 28.14 69.67 28.14ZM76.4335 28.14C75.9389 28.14 75.4955 28.0467 75.1035 27.86C74.7209 27.664 74.4175 27.4027 74.1935 27.076C73.9789 26.7493 73.8715 26.3807 73.8715 25.97C73.8715 25.466 74.0022 25.0693 74.2635 24.78C74.5249 24.4813 74.9495 24.2667 75.5375 24.136C76.1255 24.0053 76.9142 23.94 77.9035 23.94H78.6035V24.948H77.9175C77.3389 24.948 76.8769 24.976 76.5315 25.032C76.1862 25.088 75.9389 25.186 75.7895 25.326C75.6495 25.4567 75.5795 25.6433 75.5795 25.886C75.5795 26.194 75.6869 26.446 75.9015 26.642C76.1162 26.838 76.4149 26.936 76.7975 26.936C77.1055 26.936 77.3762 26.866 77.6095 26.726C77.8522 26.5767 78.0435 26.376 78.1835 26.124C78.3235 25.872 78.3935 25.5827 78.3935 25.256V23.646C78.3935 23.1793 78.2909 22.8433 78.0855 22.638C77.8802 22.4327 77.5349 22.33 77.0495 22.33C76.7789 22.33 76.4849 22.3627 76.1675 22.428C75.8595 22.4933 75.5329 22.6053 75.1875 22.764C75.0102 22.848 74.8515 22.8713 74.7115 22.834C74.5809 22.7967 74.4782 22.722 74.4035 22.61C74.3289 22.4887 74.2915 22.358 74.2915 22.218C74.2915 22.078 74.3289 21.9427 74.4035 21.812C74.4782 21.672 74.6042 21.5693 74.7815 21.504C75.2109 21.3267 75.6215 21.2007 76.0135 21.126C76.4149 21.0513 76.7789 21.014 77.1055 21.014C77.7775 21.014 78.3282 21.1167 78.7575 21.322C79.1962 21.5273 79.5229 21.84 79.7375 22.26C79.9522 22.6707 80.0595 23.2027 80.0595 23.856V27.216C80.0595 27.5053 79.9895 27.7293 79.8495 27.888C79.7095 28.0373 79.5089 28.112 79.2475 28.112C78.9862 28.112 78.7809 28.0373 78.6315 27.888C78.4915 27.7293 78.4215 27.5053 78.4215 27.216V26.544H78.5335C78.4682 26.8707 78.3375 27.1553 78.1415 27.398C77.9549 27.6313 77.7169 27.8133 77.4275 27.944C77.1382 28.0747 76.8069 28.14 76.4335 28.14ZM82.7318 28.112C82.4424 28.112 82.2184 28.0373 82.0598 27.888C81.9104 27.7293 81.8358 27.5053 81.8358 27.216V21.924C81.8358 21.6347 81.9104 21.4153 82.0598 21.266C82.2091 21.1167 82.4191 21.042 82.6898 21.042C82.9604 21.042 83.1704 21.1167 83.3198 21.266C83.4691 21.4153 83.5438 21.6347 83.5438 21.924V22.806H83.4038C83.5344 22.246 83.7911 21.8213 84.1738 21.532C84.5564 21.2427 85.0651 21.07 85.6998 21.014C85.8958 20.9953 86.0498 21.0467 86.1618 21.168C86.2831 21.28 86.3531 21.4573 86.3718 21.7C86.3904 21.9333 86.3344 22.1247 86.2038 22.274C86.0824 22.414 85.8958 22.498 85.6438 22.526L85.3358 22.554C84.7664 22.61 84.3371 22.7873 84.0478 23.086C83.7584 23.3753 83.6138 23.786 83.6138 24.318V27.216C83.6138 27.5053 83.5391 27.7293 83.3898 27.888C83.2404 28.0373 83.0211 28.112 82.7318 28.112ZM89.8408 28.14C89.2435 28.14 88.7162 27.9953 88.2588 27.706C87.8108 27.4167 87.4608 27.006 87.2088 26.474C86.9568 25.9327 86.8308 25.298 86.8308 24.57C86.8308 23.8327 86.9568 23.2027 87.2088 22.68C87.4608 22.148 87.8108 21.7373 88.2588 21.448C88.7162 21.1587 89.2435 21.014 89.8408 21.014C90.4102 21.014 90.9048 21.154 91.3248 21.434C91.7542 21.714 92.0435 22.0827 92.1928 22.54H92.0388V18.9C92.0388 18.6107 92.1135 18.3913 92.2628 18.242C92.4122 18.0927 92.6268 18.018 92.9068 18.018C93.1868 18.018 93.4015 18.0927 93.5508 18.242C93.7095 18.3913 93.7888 18.6107 93.7888 18.9V27.216C93.7888 27.5053 93.7142 27.7293 93.5648 27.888C93.4155 28.0373 93.2008 28.112 92.9208 28.112C92.6408 28.112 92.4262 28.0373 92.2768 27.888C92.1275 27.7293 92.0528 27.5053 92.0528 27.216V26.124L92.2068 26.544C92.0668 27.0293 91.7822 27.4167 91.3528 27.706C90.9235 27.9953 90.4195 28.14 89.8408 28.14ZM90.3308 26.81C90.6762 26.81 90.9795 26.726 91.2408 26.558C91.5022 26.39 91.7028 26.1427 91.8428 25.816C91.9922 25.48 92.0668 25.0647 92.0668 24.57C92.0668 23.8233 91.9082 23.268 91.5908 22.904C91.2735 22.5307 90.8535 22.344 90.3308 22.344C89.9855 22.344 89.6822 22.428 89.4208 22.596C89.1595 22.7547 88.9542 23.002 88.8048 23.338C88.6648 23.6647 88.5948 24.0753 88.5948 24.57C88.5948 25.3073 88.7535 25.8673 89.0708 26.25C89.3882 26.6233 89.8082 26.81 90.3308 26.81ZM102.848 28.112C102.559 28.112 102.335 28.0327 102.176 27.874C102.027 27.706 101.952 27.4773 101.952 27.188V19.628H99.2221C98.9795 19.628 98.7881 19.5627 98.6481 19.432C98.5175 19.292 98.4521 19.1053 98.4521 18.872C98.4521 18.6293 98.5175 18.4473 98.6481 18.326C98.7881 18.1953 98.9795 18.13 99.2221 18.13H106.474C106.717 18.13 106.903 18.1953 107.034 18.326C107.174 18.4473 107.244 18.6293 107.244 18.872C107.244 19.1053 107.174 19.292 107.034 19.432C106.903 19.5627 106.717 19.628 106.474 19.628H103.744V27.188C103.744 27.4773 103.669 27.706 103.52 27.874C103.371 28.0327 103.147 28.112 102.848 28.112ZM109.733 28.098C109.453 28.098 109.238 28.014 109.089 27.846C108.94 27.678 108.865 27.4447 108.865 27.146V22.008C108.865 21.7 108.94 21.4667 109.089 21.308C109.238 21.14 109.453 21.056 109.733 21.056C110.013 21.056 110.228 21.14 110.377 21.308C110.536 21.4667 110.615 21.7 110.615 22.008V27.146C110.615 27.4447 110.54 27.678 110.391 27.846C110.242 28.014 110.022 28.098 109.733 28.098ZM109.733 19.754C109.406 19.754 109.15 19.6747 108.963 19.516C108.786 19.348 108.697 19.1193 108.697 18.83C108.697 18.5313 108.786 18.3027 108.963 18.144C109.15 17.9853 109.406 17.906 109.733 17.906C110.069 17.906 110.326 17.9853 110.503 18.144C110.68 18.3027 110.769 18.5313 110.769 18.83C110.769 19.1193 110.68 19.348 110.503 19.516C110.326 19.6747 110.069 19.754 109.733 19.754ZM115.569 28.14C114.963 28.14 114.454 28.0373 114.043 27.832C113.642 27.6267 113.343 27.328 113.147 26.936C112.951 26.5347 112.853 26.04 112.853 25.452V22.47H112.125C111.901 22.47 111.729 22.414 111.607 22.302C111.486 22.1807 111.425 22.0173 111.425 21.812C111.425 21.5973 111.486 21.434 111.607 21.322C111.729 21.21 111.901 21.154 112.125 21.154H112.853V19.88C112.853 19.5907 112.928 19.3713 113.077 19.222C113.236 19.0727 113.455 18.998 113.735 18.998C114.015 18.998 114.23 19.0727 114.379 19.222C114.529 19.3713 114.603 19.5907 114.603 19.88V21.154H116.087C116.311 21.154 116.484 21.21 116.605 21.322C116.727 21.434 116.787 21.5973 116.787 21.812C116.787 22.0173 116.727 22.1807 116.605 22.302C116.484 22.414 116.311 22.47 116.087 22.47H114.603V25.354C114.603 25.802 114.701 26.138 114.897 26.362C115.093 26.586 115.411 26.698 115.849 26.698C116.008 26.698 116.148 26.684 116.269 26.656C116.391 26.628 116.498 26.6093 116.591 26.6C116.703 26.5907 116.797 26.628 116.871 26.712C116.946 26.7867 116.983 26.9453 116.983 27.188C116.983 27.3747 116.951 27.5427 116.885 27.692C116.829 27.832 116.722 27.93 116.563 27.986C116.442 28.0233 116.283 28.056 116.087 28.084C115.891 28.1213 115.719 28.14 115.569 28.14ZM120.322 28.14C119.548 28.14 118.964 27.9207 118.572 27.482C118.18 27.034 117.984 26.3807 117.984 25.522V18.9C117.984 18.6107 118.059 18.3913 118.208 18.242C118.358 18.0927 118.572 18.018 118.852 18.018C119.132 18.018 119.347 18.0927 119.496 18.242C119.655 18.3913 119.734 18.6107 119.734 18.9V25.438C119.734 25.8673 119.823 26.1847 120 26.39C120.187 26.5953 120.448 26.698 120.784 26.698C120.859 26.698 120.929 26.698 120.994 26.698C121.06 26.6887 121.125 26.6793 121.19 26.67C121.321 26.6513 121.41 26.6887 121.456 26.782C121.503 26.866 121.526 27.0433 121.526 27.314C121.526 27.5473 121.48 27.7293 121.386 27.86C121.293 27.9907 121.139 28.07 120.924 28.098C120.831 28.1073 120.733 28.1167 120.63 28.126C120.528 28.1353 120.425 28.14 120.322 28.14ZM125.761 28.14C124.986 28.14 124.319 27.9953 123.759 27.706C123.199 27.4167 122.765 27.006 122.457 26.474C122.158 25.942 122.009 25.312 122.009 24.584C122.009 23.8747 122.153 23.254 122.443 22.722C122.741 22.19 123.147 21.7747 123.661 21.476C124.183 21.168 124.776 21.014 125.439 21.014C125.924 21.014 126.358 21.0933 126.741 21.252C127.133 21.4107 127.464 21.6393 127.735 21.938C128.015 22.2367 128.225 22.6007 128.365 23.03C128.514 23.45 128.589 23.926 128.589 24.458C128.589 24.626 128.528 24.7567 128.407 24.85C128.295 24.934 128.131 24.976 127.917 24.976H123.423V23.968H127.357L127.133 24.178C127.133 23.7487 127.067 23.3893 126.937 23.1C126.815 22.8107 126.633 22.5913 126.391 22.442C126.157 22.2833 125.863 22.204 125.509 22.204C125.117 22.204 124.781 22.2973 124.501 22.484C124.23 22.6613 124.02 22.918 123.871 23.254C123.731 23.5807 123.661 23.9727 123.661 24.43V24.528C123.661 25.2933 123.838 25.8673 124.193 26.25C124.557 26.6233 125.089 26.81 125.789 26.81C126.031 26.81 126.302 26.782 126.601 26.726C126.909 26.6607 127.198 26.5533 127.469 26.404C127.665 26.292 127.837 26.2453 127.987 26.264C128.136 26.2733 128.253 26.3247 128.337 26.418C128.43 26.5113 128.486 26.628 128.505 26.768C128.523 26.8987 128.495 27.034 128.421 27.174C128.355 27.314 128.239 27.4353 128.071 27.538C127.744 27.7433 127.366 27.8973 126.937 28C126.517 28.0933 126.125 28.14 125.761 28.14Z" fill="#64728C"/>
<path d="M98.612 45.084C98.46 45.084 98.34 45.04 98.252 44.952C98.164 44.856 98.12 44.728 98.12 44.568V37.392H95.42C95.276 37.392 95.164 37.352 95.084 37.272C95.004 37.192 94.964 37.088 94.964 36.96C94.964 36.824 95.004 36.72 95.084 36.648C95.164 36.576 95.276 36.54 95.42 36.54H101.816C101.96 36.54 102.072 36.576 102.152 36.648C102.232 36.72 102.272 36.824 102.272 36.96C102.272 37.096 102.232 37.204 102.152 37.284C102.072 37.356 101.96 37.392 101.816 37.392H99.116V44.568C99.116 44.728 99.072 44.856 98.984 44.952C98.904 45.04 98.78 45.084 98.612 45.084ZM104.845 45.108C104.229 45.108 103.697 44.988 103.249 44.748C102.809 44.5 102.465 44.152 102.217 43.704C101.977 43.256 101.857 42.72 101.857 42.096C101.857 41.488 101.977 40.96 102.217 40.512C102.457 40.056 102.785 39.7 103.201 39.444C103.625 39.188 104.113 39.06 104.665 39.06C105.057 39.06 105.409 39.128 105.721 39.264C106.033 39.392 106.297 39.58 106.513 39.828C106.737 40.076 106.905 40.376 107.017 40.728C107.137 41.08 107.197 41.476 107.197 41.916C107.197 42.044 107.161 42.14 107.089 42.204C107.017 42.26 106.913 42.288 106.777 42.288H102.601V41.652H106.549L106.357 41.808C106.357 41.376 106.293 41.012 106.165 40.716C106.037 40.412 105.849 40.18 105.601 40.02C105.361 39.86 105.057 39.78 104.689 39.78C104.281 39.78 103.933 39.876 103.645 40.068C103.365 40.252 103.153 40.512 103.009 40.848C102.865 41.176 102.793 41.56 102.793 42V42.072C102.793 42.808 102.969 43.368 103.321 43.752C103.681 44.136 104.189 44.328 104.845 44.328C105.117 44.328 105.385 44.292 105.649 44.22C105.921 44.148 106.185 44.028 106.441 43.86C106.553 43.788 106.653 43.756 106.741 43.764C106.837 43.764 106.913 43.792 106.969 43.848C107.025 43.896 107.061 43.96 107.077 44.04C107.101 44.112 107.093 44.192 107.053 44.28C107.021 44.368 106.953 44.444 106.849 44.508C106.585 44.7 106.273 44.848 105.913 44.952C105.553 45.056 105.197 45.108 104.845 45.108ZM108.581 45.072C108.477 45.072 108.385 45.04 108.305 44.976C108.225 44.912 108.181 44.828 108.173 44.724C108.173 44.612 108.225 44.496 108.329 44.376L110.429 41.736V42.24L108.461 39.78C108.357 39.652 108.305 39.536 108.305 39.432C108.313 39.328 108.357 39.244 108.437 39.18C108.517 39.116 108.609 39.084 108.713 39.084C108.833 39.084 108.933 39.108 109.013 39.156C109.101 39.196 109.181 39.264 109.253 39.36L110.969 41.532H110.633L112.361 39.36C112.433 39.264 112.509 39.196 112.589 39.156C112.669 39.108 112.769 39.084 112.889 39.084C113.001 39.084 113.093 39.116 113.165 39.18C113.245 39.244 113.285 39.332 113.285 39.444C113.293 39.548 113.245 39.664 113.141 39.792L111.185 42.216V41.772L113.285 44.376C113.381 44.496 113.425 44.612 113.417 44.724C113.417 44.828 113.377 44.912 113.297 44.976C113.217 45.04 113.121 45.072 113.009 45.072C112.897 45.072 112.797 45.048 112.709 45C112.629 44.96 112.549 44.892 112.469 44.796L110.621 42.468H110.969L109.121 44.796C109.049 44.884 108.969 44.952 108.881 45C108.801 45.048 108.701 45.072 108.581 45.072ZM117.201 45.108C116.745 45.108 116.361 45.028 116.049 44.868C115.745 44.7 115.517 44.46 115.365 44.148C115.213 43.828 115.137 43.44 115.137 42.984V39.924H114.333C114.197 39.924 114.093 39.892 114.021 39.828C113.949 39.756 113.913 39.66 113.913 39.54C113.913 39.42 113.949 39.328 114.021 39.264C114.093 39.2 114.197 39.168 114.333 39.168H115.137V37.788C115.137 37.628 115.181 37.508 115.269 37.428C115.357 37.34 115.477 37.296 115.629 37.296C115.781 37.296 115.897 37.34 115.977 37.428C116.065 37.508 116.109 37.628 116.109 37.788V39.168H117.621C117.757 39.168 117.861 39.2 117.933 39.264C118.005 39.328 118.041 39.42 118.041 39.54C118.041 39.66 118.005 39.756 117.933 39.828C117.861 39.892 117.757 39.924 117.621 39.924H116.109V42.888C116.109 43.344 116.205 43.692 116.397 43.932C116.589 44.164 116.901 44.28 117.333 44.28C117.485 44.28 117.613 44.264 117.717 44.232C117.829 44.2 117.921 44.184 117.993 44.184C118.065 44.176 118.125 44.2 118.173 44.256C118.221 44.312 118.245 44.408 118.245 44.544C118.245 44.64 118.225 44.728 118.185 44.808C118.153 44.888 118.093 44.944 118.005 44.976C117.909 45.008 117.781 45.036 117.621 45.06C117.469 45.092 117.329 45.108 117.201 45.108Z" fill="#64728C"/>
<path d="M129.132 45.108C128.612 45.108 128.156 44.984 127.764 44.736C127.38 44.488 127.08 44.14 126.864 43.692C126.656 43.236 126.552 42.7 126.552 42.084C126.552 41.46 126.656 40.924 126.864 40.476C127.08 40.02 127.38 39.672 127.764 39.432C128.156 39.184 128.612 39.06 129.132 39.06C129.66 39.06 130.112 39.192 130.488 39.456C130.864 39.72 131.116 40.076 131.244 40.524H131.112V36.948C131.112 36.788 131.152 36.668 131.232 36.588C131.32 36.5 131.444 36.456 131.604 36.456C131.756 36.456 131.872 36.5 131.952 36.588C132.04 36.668 132.084 36.788 132.084 36.948V44.58C132.084 44.74 132.044 44.864 131.964 44.952C131.884 45.04 131.764 45.084 131.604 45.084C131.452 45.084 131.332 45.04 131.244 44.952C131.164 44.864 131.124 44.74 131.124 44.58V43.44L131.256 43.608C131.128 44.064 130.872 44.428 130.488 44.7C130.112 44.972 129.66 45.108 129.132 45.108ZM129.336 44.328C129.696 44.328 130.012 44.24 130.284 44.064C130.556 43.888 130.764 43.632 130.908 43.296C131.06 42.96 131.136 42.556 131.136 42.084C131.136 41.356 130.972 40.8 130.644 40.416C130.324 40.032 129.888 39.84 129.336 39.84C128.968 39.84 128.648 39.928 128.376 40.104C128.112 40.272 127.904 40.524 127.752 40.86C127.608 41.188 127.536 41.596 127.536 42.084C127.536 42.804 127.7 43.36 128.028 43.752C128.356 44.136 128.792 44.328 129.336 44.328ZM134.388 45.06C134.228 45.06 134.108 45.016 134.028 44.928C133.948 44.832 133.908 44.7 133.908 44.532V39.624C133.908 39.456 133.948 39.328 134.028 39.24C134.108 39.152 134.228 39.108 134.388 39.108C134.54 39.108 134.66 39.152 134.748 39.24C134.836 39.328 134.88 39.456 134.88 39.624V44.532C134.88 44.7 134.836 44.832 134.748 44.928C134.668 45.016 134.548 45.06 134.388 45.06ZM134.388 37.764C134.188 37.764 134.032 37.712 133.92 37.608C133.808 37.496 133.752 37.348 133.752 37.164C133.752 36.972 133.808 36.828 133.92 36.732C134.032 36.628 134.188 36.576 134.388 36.576C134.596 36.576 134.752 36.628 134.856 36.732C134.968 36.828 135.024 36.972 135.024 37.164C135.024 37.348 134.968 37.496 134.856 37.608C134.752 37.712 134.596 37.764 134.388 37.764ZM138.665 45.108C138.305 45.108 137.941 45.064 137.573 44.976C137.213 44.888 136.877 44.736 136.565 44.52C136.485 44.464 136.429 44.4 136.397 44.328C136.365 44.248 136.353 44.172 136.361 44.1C136.377 44.02 136.409 43.952 136.457 43.896C136.513 43.84 136.577 43.808 136.649 43.8C136.729 43.784 136.817 43.8 136.913 43.848C137.225 44.04 137.525 44.176 137.813 44.256C138.109 44.328 138.401 44.364 138.689 44.364C139.145 44.364 139.489 44.28 139.721 44.112C139.953 43.944 140.069 43.716 140.069 43.428C140.069 43.204 139.993 43.028 139.841 42.9C139.689 42.764 139.449 42.66 139.121 42.588L138.029 42.348C137.525 42.244 137.149 42.064 136.901 41.808C136.661 41.552 136.541 41.22 136.541 40.812C136.541 40.452 136.633 40.144 136.817 39.888C137.009 39.624 137.277 39.42 137.621 39.276C137.965 39.132 138.365 39.06 138.821 39.06C139.173 39.06 139.505 39.108 139.817 39.204C140.137 39.292 140.425 39.436 140.681 39.636C140.761 39.692 140.813 39.76 140.837 39.84C140.869 39.912 140.873 39.988 140.849 40.068C140.833 40.14 140.797 40.204 140.741 40.26C140.685 40.308 140.617 40.336 140.537 40.344C140.457 40.352 140.373 40.328 140.285 40.272C140.045 40.112 139.801 39.996 139.553 39.924C139.305 39.844 139.061 39.804 138.821 39.804C138.373 39.804 138.033 39.892 137.801 40.068C137.569 40.244 137.453 40.476 137.453 40.764C137.453 40.988 137.525 41.172 137.669 41.316C137.813 41.46 138.037 41.564 138.341 41.628L139.433 41.856C139.953 41.968 140.341 42.148 140.597 42.396C140.861 42.636 140.993 42.964 140.993 43.38C140.993 43.908 140.781 44.328 140.357 44.64C139.933 44.952 139.369 45.108 138.665 45.108ZM144.311 45.108C143.911 45.108 143.551 45.032 143.231 44.88C142.919 44.72 142.671 44.504 142.487 44.232C142.303 43.96 142.211 43.656 142.211 43.32C142.211 42.888 142.319 42.548 142.535 42.3C142.759 42.052 143.123 41.876 143.627 41.772C144.139 41.668 144.835 41.616 145.715 41.616H146.255V42.252H145.727C145.079 42.252 144.567 42.284 144.191 42.348C143.823 42.404 143.563 42.504 143.411 42.648C143.267 42.792 143.195 42.996 143.195 43.26C143.195 43.588 143.307 43.856 143.531 44.064C143.763 44.272 144.075 44.376 144.467 44.376C144.787 44.376 145.067 44.3 145.307 44.148C145.555 43.996 145.747 43.788 145.883 43.524C146.027 43.26 146.099 42.956 146.099 42.612V41.244C146.099 40.748 145.999 40.392 145.799 40.176C145.599 39.952 145.271 39.84 144.815 39.84C144.535 39.84 144.255 39.876 143.975 39.948C143.695 40.02 143.399 40.136 143.087 40.296C142.975 40.352 142.879 40.372 142.799 40.356C142.719 40.332 142.655 40.288 142.607 40.224C142.559 40.16 142.531 40.088 142.523 40.008C142.515 39.92 142.531 39.836 142.571 39.756C142.619 39.676 142.691 39.612 142.787 39.564C143.139 39.388 143.487 39.26 143.831 39.18C144.175 39.1 144.503 39.06 144.815 39.06C145.319 39.06 145.735 39.144 146.063 39.312C146.391 39.472 146.635 39.72 146.795 40.056C146.955 40.384 147.035 40.808 147.035 41.328V44.58C147.035 44.74 146.995 44.864 146.915 44.952C146.843 45.04 146.735 45.084 146.591 45.084C146.439 45.084 146.323 45.04 146.243 44.952C146.163 44.864 146.123 44.74 146.123 44.58V43.644H146.231C146.167 43.948 146.043 44.208 145.859 44.424C145.683 44.64 145.463 44.808 145.199 44.928C144.935 45.048 144.639 45.108 144.311 45.108ZM151.79 45.108C151.262 45.108 150.806 44.972 150.422 44.7C150.046 44.428 149.794 44.064 149.666 43.608L149.798 43.476V44.58C149.798 44.74 149.754 44.864 149.666 44.952C149.586 45.04 149.47 45.084 149.318 45.084C149.158 45.084 149.038 45.04 148.958 44.952C148.878 44.864 148.838 44.74 148.838 44.58V36.948C148.838 36.788 148.878 36.668 148.958 36.588C149.038 36.5 149.158 36.456 149.318 36.456C149.47 36.456 149.59 36.5 149.678 36.588C149.766 36.668 149.81 36.788 149.81 36.948V40.524H149.666C149.802 40.076 150.058 39.72 150.434 39.456C150.81 39.192 151.262 39.06 151.79 39.06C152.318 39.06 152.774 39.184 153.158 39.432C153.542 39.672 153.838 40.02 154.046 40.476C154.262 40.924 154.37 41.46 154.37 42.084C154.37 42.7 154.262 43.236 154.046 43.692C153.838 44.14 153.538 44.488 153.146 44.736C152.762 44.984 152.31 45.108 151.79 45.108ZM151.586 44.328C151.954 44.328 152.27 44.24 152.534 44.064C152.806 43.888 153.014 43.632 153.158 43.296C153.31 42.96 153.386 42.556 153.386 42.084C153.386 41.356 153.222 40.8 152.894 40.416C152.574 40.032 152.138 39.84 151.586 39.84C151.226 39.84 150.91 39.928 150.638 40.104C150.366 40.272 150.154 40.524 150.002 40.86C149.858 41.188 149.786 41.596 149.786 42.084C149.786 42.804 149.95 43.36 150.278 43.752C150.606 44.136 151.042 44.328 151.586 44.328ZM157.61 45.108C157.034 45.108 156.594 44.932 156.29 44.58C155.986 44.228 155.834 43.724 155.834 43.068V36.948C155.834 36.788 155.874 36.668 155.954 36.588C156.034 36.5 156.154 36.456 156.314 36.456C156.466 36.456 156.586 36.5 156.674 36.588C156.762 36.668 156.806 36.788 156.806 36.948V42.996C156.806 43.428 156.89 43.752 157.058 43.968C157.234 44.176 157.49 44.28 157.826 44.28C157.898 44.28 157.962 44.276 158.018 44.268C158.074 44.26 158.13 44.256 158.186 44.256C158.274 44.248 158.334 44.268 158.366 44.316C158.406 44.364 158.426 44.46 158.426 44.604C158.426 44.748 158.394 44.856 158.33 44.928C158.266 45 158.162 45.048 158.018 45.072C157.954 45.08 157.886 45.088 157.814 45.096C157.742 45.104 157.674 45.108 157.61 45.108ZM161.954 45.108C161.338 45.108 160.806 44.988 160.358 44.748C159.918 44.5 159.574 44.152 159.326 43.704C159.086 43.256 158.966 42.72 158.966 42.096C158.966 41.488 159.086 40.96 159.326 40.512C159.566 40.056 159.894 39.7 160.31 39.444C160.734 39.188 161.222 39.06 161.774 39.06C162.166 39.06 162.518 39.128 162.83 39.264C163.142 39.392 163.406 39.58 163.622 39.828C163.846 40.076 164.014 40.376 164.126 40.728C164.246 41.08 164.306 41.476 164.306 41.916C164.306 42.044 164.27 42.14 164.198 42.204C164.126 42.26 164.022 42.288 163.886 42.288H159.71V41.652H163.658L163.466 41.808C163.466 41.376 163.402 41.012 163.274 40.716C163.146 40.412 162.958 40.18 162.71 40.02C162.47 39.86 162.166 39.78 161.798 39.78C161.39 39.78 161.042 39.876 160.754 40.068C160.474 40.252 160.262 40.512 160.118 40.848C159.974 41.176 159.902 41.56 159.902 42V42.072C159.902 42.808 160.078 43.368 160.43 43.752C160.79 44.136 161.298 44.328 161.954 44.328C162.226 44.328 162.494 44.292 162.758 44.22C163.03 44.148 163.294 44.028 163.55 43.86C163.662 43.788 163.762 43.756 163.85 43.764C163.946 43.764 164.022 43.792 164.078 43.848C164.134 43.896 164.17 43.96 164.186 44.04C164.21 44.112 164.202 44.192 164.162 44.28C164.13 44.368 164.062 44.444 163.958 44.508C163.694 44.7 163.382 44.848 163.022 44.952C162.662 45.056 162.306 45.108 161.954 45.108Z" fill="#CCCED2"/>
<path d="M172.048 44.112C171.909 44.0373 171.829 43.9307 171.808 43.792C171.797 43.6533 171.84 43.504 171.936 43.344L173.056 41.584L173.232 41.84L171.136 41.92C170.944 41.92 170.789 41.8827 170.672 41.808C170.565 41.7227 170.512 41.6 170.512 41.44C170.512 41.2907 170.565 41.1787 170.672 41.104C170.789 41.0187 170.944 40.9813 171.136 40.992L173.232 41.072L173.056 41.312L171.952 39.536C171.845 39.376 171.803 39.2267 171.824 39.088C171.845 38.9493 171.92 38.8427 172.048 38.768C172.176 38.6933 172.304 38.688 172.432 38.752C172.571 38.816 172.683 38.9333 172.768 39.104L173.68 40.864H173.52L174.432 39.104C174.528 38.9333 174.64 38.816 174.768 38.752C174.907 38.688 175.04 38.6933 175.168 38.768C175.296 38.8533 175.365 38.9653 175.376 39.104C175.397 39.2427 175.355 39.392 175.248 39.552L174.144 41.312L173.968 41.072L176.064 40.992C176.256 40.9813 176.405 41.0187 176.512 41.104C176.629 41.1787 176.688 41.2907 176.688 41.44C176.688 41.6 176.629 41.7227 176.512 41.808C176.405 41.8827 176.256 41.92 176.064 41.92L173.968 41.84L174.144 41.584L175.248 43.344C175.355 43.504 175.397 43.6533 175.376 43.792C175.365 43.92 175.296 44.0213 175.168 44.096C175.029 44.1813 174.891 44.192 174.752 44.128C174.624 44.064 174.517 43.952 174.432 43.792L173.52 42.032H173.68L172.752 43.792C172.667 43.9627 172.56 44.08 172.432 44.144C172.304 44.208 172.176 44.1973 172.048 44.112Z" fill="black"/>
<path d="M2.688 45.1081C2.112 45.1081 1.672 44.9321 1.368 44.5801C1.064 44.2281 0.912 43.7241 0.912 43.0681V36.9481C0.912 36.7881 0.952 36.6681 1.032 36.5881C1.112 36.5001 1.232 36.4561 1.392 36.4561C1.544 36.4561 1.664 36.5001 1.752 36.5881C1.84 36.6681 1.884 36.7881 1.884 36.9481V42.9961C1.884 43.4281 1.968 43.7521 2.136 43.9681C2.312 44.1761 2.568 44.2801 2.904 44.2801C2.976 44.2801 3.04 44.2761 3.096 44.2681C3.152 44.2601 3.208 44.2561 3.264 44.2561C3.352 44.2481 3.412 44.2681 3.444 44.3161C3.484 44.3641 3.504 44.4601 3.504 44.6041C3.504 44.7481 3.472 44.8561 3.408 44.9281C3.344 45.0001 3.24 45.0481 3.096 45.0721C3.032 45.0801 2.964 45.0881 2.892 45.0961C2.82 45.1041 2.752 45.1081 2.688 45.1081ZM4.94278 45.0601C4.78278 45.0601 4.66278 45.0161 4.58278 44.9281C4.50278 44.8321 4.46278 44.7001 4.46278 44.5321V39.6241C4.46278 39.4561 4.50278 39.3281 4.58278 39.2401C4.66278 39.1521 4.78278 39.1081 4.94278 39.1081C5.09478 39.1081 5.21478 39.1521 5.30278 39.2401C5.39078 39.3281 5.43478 39.4561 5.43478 39.6241V44.5321C5.43478 44.7001 5.39078 44.8321 5.30278 44.9281C5.22278 45.0161 5.10278 45.0601 4.94278 45.0601ZM4.94278 37.7641C4.74278 37.7641 4.58678 37.7121 4.47478 37.6081C4.36278 37.4961 4.30678 37.3481 4.30678 37.1641C4.30678 36.9721 4.36278 36.8281 4.47478 36.7321C4.58678 36.6281 4.74278 36.5761 4.94278 36.5761C5.15078 36.5761 5.30678 36.6281 5.41078 36.7321C5.52278 36.8281 5.57878 36.9721 5.57878 37.1641C5.57878 37.3481 5.52278 37.4961 5.41078 37.6081C5.30678 37.7121 5.15078 37.7641 4.94278 37.7641ZM7.73184 45.0841C7.57184 45.0841 7.45184 45.0401 7.37184 44.9521C7.29184 44.8641 7.25184 44.7401 7.25184 44.5801V39.5761C7.25184 39.4161 7.29184 39.2961 7.37184 39.2161C7.45184 39.1281 7.56784 39.0841 7.71984 39.0841C7.87184 39.0841 7.98784 39.1281 8.06784 39.2161C8.15584 39.2961 8.19984 39.4161 8.19984 39.5761V40.6081L8.06784 40.4641C8.23584 40.0001 8.50784 39.6521 8.88384 39.4201C9.26784 39.1801 9.70784 39.0601 10.2038 39.0601C10.6678 39.0601 11.0518 39.1441 11.3558 39.3121C11.6678 39.4801 11.8998 39.7361 12.0518 40.0801C12.2038 40.4161 12.2798 40.8441 12.2798 41.3641V44.5801C12.2798 44.7401 12.2358 44.8641 12.1478 44.9521C12.0678 45.0401 11.9518 45.0841 11.7998 45.0841C11.6398 45.0841 11.5158 45.0401 11.4278 44.9521C11.3478 44.8641 11.3078 44.7401 11.3078 44.5801V41.4241C11.3078 40.8801 11.1998 40.4841 10.9838 40.2361C10.7758 39.9801 10.4398 39.8521 9.97584 39.8521C9.43984 39.8521 9.01184 40.0201 8.69184 40.3561C8.37984 40.6841 8.22384 41.1241 8.22384 41.6761V44.5801C8.22384 44.9161 8.05984 45.0841 7.73184 45.0841ZM14.5522 45.0841C14.3922 45.0841 14.2722 45.0401 14.1922 44.9521C14.1122 44.8641 14.0722 44.7401 14.0722 44.5801V36.9481C14.0722 36.7881 14.1122 36.6681 14.1922 36.5881C14.2722 36.5001 14.3922 36.4561 14.5522 36.4561C14.7042 36.4561 14.8242 36.5001 14.9122 36.5881C15.0002 36.6681 15.0442 36.7881 15.0442 36.9481V41.7601H15.0682L17.5282 39.4081C17.6402 39.3041 17.7362 39.2241 17.8162 39.1681C17.9042 39.1121 18.0202 39.0841 18.1642 39.0841C18.2922 39.0841 18.3922 39.1201 18.4642 39.1921C18.5362 39.2561 18.5682 39.3401 18.5602 39.4441C18.5602 39.5401 18.5122 39.6441 18.4162 39.7561L15.8002 42.2401V41.7121L18.6442 44.3881C18.7562 44.5001 18.8122 44.6081 18.8122 44.7121C18.8122 44.8161 18.7722 44.9041 18.6922 44.9761C18.6202 45.0481 18.5242 45.0841 18.4042 45.0841C18.2602 45.0841 18.1442 45.0561 18.0562 45.0001C17.9682 44.9361 17.8602 44.8441 17.7322 44.7241L15.0682 42.2641H15.0442V44.5801C15.0442 44.9161 14.8802 45.0841 14.5522 45.0841Z" fill="#FE5000"/>
<path d="M96.944 11.108C96.024 11.108 95.248 10.936 94.616 10.592C93.984 10.24 93.504 9.74 93.176 9.092C92.856 8.444 92.696 7.672 92.696 6.776C92.696 6.104 92.788 5.504 92.972 4.976C93.164 4.44 93.436 3.984 93.788 3.608C94.148 3.224 94.584 2.932 95.096 2.732C95.616 2.532 96.204 2.432 96.86 2.432C97.34 2.432 97.812 2.496 98.276 2.624C98.74 2.744 99.164 2.944 99.548 3.224C99.66 3.304 99.732 3.396 99.764 3.5C99.796 3.604 99.796 3.712 99.764 3.824C99.74 3.928 99.688 4.02 99.608 4.1C99.536 4.18 99.444 4.228 99.332 4.244C99.228 4.26 99.112 4.228 98.984 4.148C98.672 3.932 98.344 3.776 98 3.68C97.656 3.576 97.276 3.524 96.86 3.524C96.236 3.524 95.708 3.652 95.276 3.908C94.852 4.164 94.532 4.536 94.316 5.024C94.1 5.504 93.992 6.088 93.992 6.776C93.992 7.84 94.244 8.648 94.748 9.2C95.252 9.752 96 10.028 96.992 10.028C97.352 10.028 97.704 9.996 98.048 9.932C98.4 9.86 98.736 9.76 99.056 9.632L98.804 10.256V7.46H97.256C97.096 7.46 96.968 7.42 96.872 7.34C96.784 7.252 96.74 7.132 96.74 6.98C96.74 6.828 96.784 6.716 96.872 6.644C96.968 6.564 97.096 6.524 97.256 6.524H99.332C99.5 6.524 99.628 6.568 99.716 6.656C99.804 6.744 99.848 6.872 99.848 7.04V10.064C99.848 10.208 99.82 10.332 99.764 10.436C99.716 10.532 99.632 10.604 99.512 10.652C99.168 10.788 98.764 10.9 98.3 10.988C97.836 11.068 97.384 11.108 96.944 11.108ZM104.377 11.108C103.737 11.108 103.185 10.988 102.721 10.748C102.265 10.5 101.909 10.152 101.653 9.704C101.405 9.248 101.281 8.708 101.281 8.084C101.281 7.476 101.405 6.944 101.653 6.488C101.901 6.032 102.241 5.676 102.673 5.42C103.105 5.164 103.597 5.036 104.149 5.036C104.557 5.036 104.921 5.104 105.241 5.24C105.561 5.368 105.833 5.56 106.057 5.816C106.289 6.064 106.461 6.368 106.573 6.728C106.693 7.088 106.753 7.492 106.753 7.94C106.753 8.076 106.713 8.18 106.633 8.252C106.553 8.316 106.433 8.348 106.273 8.348H102.241V7.604H105.937L105.733 7.772C105.733 7.372 105.673 7.032 105.553 6.752C105.441 6.472 105.269 6.26 105.037 6.116C104.813 5.964 104.533 5.888 104.197 5.888C103.821 5.888 103.501 5.976 103.237 6.152C102.981 6.328 102.785 6.572 102.649 6.884C102.513 7.196 102.445 7.56 102.445 7.976V8.048C102.445 8.752 102.609 9.284 102.937 9.644C103.273 9.996 103.757 10.172 104.389 10.172C104.629 10.172 104.881 10.14 105.145 10.076C105.417 10.012 105.673 9.904 105.913 9.752C106.049 9.672 106.169 9.636 106.273 9.644C106.385 9.652 106.473 9.688 106.537 9.752C106.609 9.816 106.653 9.896 106.669 9.992C106.685 10.088 106.669 10.188 106.621 10.292C106.573 10.388 106.489 10.476 106.369 10.556C106.097 10.74 105.781 10.88 105.421 10.976C105.061 11.064 104.713 11.108 104.377 11.108ZM108.675 11.084C108.483 11.084 108.335 11.032 108.231 10.928C108.127 10.816 108.075 10.664 108.075 10.472V5.672C108.075 5.472 108.127 5.32 108.231 5.216C108.335 5.112 108.479 5.06 108.663 5.06C108.855 5.06 108.999 5.112 109.095 5.216C109.199 5.32 109.251 5.472 109.251 5.672V6.608L109.119 6.392C109.295 5.944 109.571 5.608 109.947 5.384C110.323 5.152 110.755 5.036 111.243 5.036C111.707 5.036 112.091 5.124 112.395 5.3C112.707 5.468 112.939 5.728 113.091 6.08C113.243 6.424 113.319 6.86 113.319 7.388V10.472C113.319 10.664 113.267 10.816 113.163 10.928C113.059 11.032 112.911 11.084 112.719 11.084C112.519 11.084 112.367 11.032 112.263 10.928C112.159 10.816 112.107 10.664 112.107 10.472V7.46C112.107 6.956 112.007 6.588 111.807 6.356C111.615 6.124 111.311 6.008 110.895 6.008C110.407 6.008 110.015 6.16 109.719 6.464C109.431 6.768 109.287 7.176 109.287 7.688V10.472C109.287 10.88 109.083 11.084 108.675 11.084ZM117.737 11.108C117.097 11.108 116.545 10.988 116.081 10.748C115.625 10.5 115.269 10.152 115.013 9.704C114.765 9.248 114.641 8.708 114.641 8.084C114.641 7.476 114.765 6.944 115.013 6.488C115.261 6.032 115.601 5.676 116.033 5.42C116.465 5.164 116.957 5.036 117.509 5.036C117.917 5.036 118.281 5.104 118.601 5.24C118.921 5.368 119.193 5.56 119.417 5.816C119.649 6.064 119.821 6.368 119.933 6.728C120.053 7.088 120.113 7.492 120.113 7.94C120.113 8.076 120.073 8.18 119.993 8.252C119.913 8.316 119.793 8.348 119.633 8.348H115.601V7.604H119.297L119.093 7.772C119.093 7.372 119.033 7.032 118.913 6.752C118.801 6.472 118.629 6.26 118.397 6.116C118.173 5.964 117.893 5.888 117.557 5.888C117.181 5.888 116.861 5.976 116.597 6.152C116.341 6.328 116.145 6.572 116.009 6.884C115.873 7.196 115.805 7.56 115.805 7.976V8.048C115.805 8.752 115.969 9.284 116.297 9.644C116.633 9.996 117.117 10.172 117.749 10.172C117.989 10.172 118.241 10.14 118.505 10.076C118.777 10.012 119.033 9.904 119.273 9.752C119.409 9.672 119.529 9.636 119.633 9.644C119.745 9.652 119.833 9.688 119.897 9.752C119.969 9.816 120.013 9.896 120.029 9.992C120.045 10.088 120.029 10.188 119.981 10.292C119.933 10.388 119.849 10.476 119.729 10.556C119.457 10.74 119.141 10.88 118.781 10.976C118.421 11.064 118.073 11.108 117.737 11.108ZM122.046 11.084C121.846 11.084 121.694 11.032 121.59 10.928C121.486 10.816 121.434 10.664 121.434 10.472V5.672C121.434 5.472 121.486 5.32 121.59 5.216C121.694 5.112 121.838 5.06 122.022 5.06C122.214 5.06 122.358 5.112 122.454 5.216C122.558 5.32 122.61 5.472 122.61 5.672V6.548H122.49C122.618 6.068 122.854 5.704 123.198 5.456C123.542 5.208 123.982 5.064 124.518 5.024C124.662 5.016 124.774 5.052 124.854 5.132C124.942 5.212 124.99 5.336 124.998 5.504C125.014 5.672 124.978 5.808 124.89 5.912C124.802 6.008 124.666 6.064 124.482 6.08L124.254 6.104C123.734 6.152 123.338 6.316 123.066 6.596C122.794 6.876 122.658 7.26 122.658 7.748V10.472C122.658 10.664 122.606 10.816 122.502 10.928C122.406 11.032 122.254 11.084 122.046 11.084ZM127.724 11.108C127.316 11.108 126.948 11.028 126.62 10.868C126.3 10.708 126.048 10.492 125.864 10.22C125.68 9.948 125.588 9.64 125.588 9.296C125.588 8.864 125.696 8.524 125.912 8.276C126.136 8.02 126.5 7.84 127.004 7.736C127.516 7.624 128.204 7.568 129.068 7.568H129.632V8.312H129.08C128.504 8.312 128.048 8.34 127.712 8.396C127.376 8.452 127.136 8.548 126.992 8.684C126.856 8.812 126.788 8.992 126.788 9.224C126.788 9.528 126.892 9.776 127.1 9.968C127.308 10.152 127.596 10.244 127.964 10.244C128.26 10.244 128.52 10.176 128.744 10.04C128.968 9.896 129.144 9.704 129.272 9.464C129.408 9.224 129.476 8.948 129.476 8.636V7.256C129.476 6.8 129.38 6.472 129.188 6.272C128.996 6.072 128.68 5.972 128.24 5.972C127.984 5.972 127.716 6.004 127.436 6.068C127.164 6.132 126.88 6.24 126.584 6.392C126.448 6.456 126.332 6.476 126.236 6.452C126.14 6.428 126.064 6.376 126.008 6.296C125.952 6.208 125.92 6.116 125.912 6.02C125.912 5.916 125.936 5.816 125.984 5.72C126.04 5.624 126.132 5.552 126.26 5.504C126.612 5.336 126.96 5.216 127.304 5.144C127.648 5.072 127.972 5.036 128.276 5.036C128.812 5.036 129.252 5.12 129.596 5.288C129.948 5.456 130.208 5.712 130.376 6.056C130.544 6.4 130.628 6.844 130.628 7.388V10.472C130.628 10.664 130.58 10.816 130.484 10.928C130.388 11.032 130.248 11.084 130.064 11.084C129.888 11.084 129.748 11.032 129.644 10.928C129.54 10.816 129.488 10.664 129.488 10.472V9.692H129.596C129.532 9.988 129.412 10.244 129.236 10.46C129.068 10.668 128.856 10.828 128.6 10.94C128.344 11.052 128.052 11.108 127.724 11.108ZM134.793 11.108C134.313 11.108 133.909 11.024 133.581 10.856C133.253 10.688 133.009 10.44 132.849 10.112C132.689 9.784 132.609 9.384 132.609 8.912V6.08H131.889C131.729 6.08 131.605 6.04 131.517 5.96C131.429 5.872 131.385 5.756 131.385 5.612C131.385 5.46 131.429 5.344 131.517 5.264C131.605 5.184 131.729 5.144 131.889 5.144H132.609V3.908C132.609 3.708 132.661 3.556 132.765 3.452C132.877 3.348 133.029 3.296 133.221 3.296C133.413 3.296 133.561 3.348 133.665 3.452C133.769 3.556 133.821 3.708 133.821 3.908V5.144H135.225C135.385 5.144 135.509 5.184 135.597 5.264C135.685 5.344 135.729 5.46 135.729 5.612C135.729 5.756 135.685 5.872 135.597 5.96C135.509 6.04 135.385 6.08 135.225 6.08H133.821V8.816C133.821 9.24 133.909 9.56 134.085 9.776C134.269 9.992 134.565 10.1 134.973 10.1C135.117 10.1 135.241 10.088 135.345 10.064C135.457 10.032 135.549 10.012 135.621 10.004C135.709 10.004 135.781 10.036 135.837 10.1C135.893 10.156 135.921 10.268 135.921 10.436C135.921 10.556 135.897 10.668 135.849 10.772C135.809 10.876 135.733 10.944 135.621 10.976C135.525 11.008 135.393 11.036 135.225 11.06C135.065 11.092 134.921 11.108 134.793 11.108ZM139.37 11.108C138.73 11.108 138.178 10.988 137.714 10.748C137.258 10.5 136.902 10.152 136.646 9.704C136.398 9.248 136.274 8.708 136.274 8.084C136.274 7.476 136.398 6.944 136.646 6.488C136.894 6.032 137.234 5.676 137.666 5.42C138.098 5.164 138.59 5.036 139.142 5.036C139.55 5.036 139.914 5.104 140.234 5.24C140.554 5.368 140.826 5.56 141.05 5.816C141.282 6.064 141.454 6.368 141.566 6.728C141.686 7.088 141.746 7.492 141.746 7.94C141.746 8.076 141.706 8.18 141.626 8.252C141.546 8.316 141.426 8.348 141.266 8.348H137.234V7.604H140.93L140.726 7.772C140.726 7.372 140.666 7.032 140.546 6.752C140.434 6.472 140.262 6.26 140.03 6.116C139.806 5.964 139.526 5.888 139.19 5.888C138.814 5.888 138.494 5.976 138.23 6.152C137.974 6.328 137.778 6.572 137.642 6.884C137.506 7.196 137.438 7.56 137.438 7.976V8.048C137.438 8.752 137.602 9.284 137.93 9.644C138.266 9.996 138.75 10.172 139.382 10.172C139.622 10.172 139.874 10.14 140.138 10.076C140.41 10.012 140.666 9.904 140.906 9.752C141.042 9.672 141.162 9.636 141.266 9.644C141.378 9.652 141.466 9.688 141.53 9.752C141.602 9.816 141.646 9.896 141.662 9.992C141.678 10.088 141.662 10.188 141.614 10.292C141.566 10.388 141.482 10.476 141.362 10.556C141.09 10.74 140.774 10.88 140.414 10.976C140.054 11.064 139.706 11.108 139.37 11.108ZM145.299 11.108C144.787 11.108 144.335 10.988 143.943 10.748C143.559 10.5 143.259 10.148 143.043 9.692C142.827 9.228 142.719 8.688 142.719 8.072C142.719 7.44 142.827 6.9 143.043 6.452C143.259 6.004 143.559 5.656 143.943 5.408C144.335 5.16 144.787 5.036 145.299 5.036C145.811 5.036 146.251 5.164 146.619 5.42C146.995 5.668 147.247 6.004 147.375 6.428H147.243V3.068C147.243 2.868 147.295 2.716 147.399 2.612C147.503 2.508 147.651 2.456 147.843 2.456C148.035 2.456 148.183 2.508 148.287 2.612C148.399 2.716 148.455 2.868 148.455 3.068V10.472C148.455 10.664 148.403 10.816 148.299 10.928C148.195 11.032 148.047 11.084 147.855 11.084C147.663 11.084 147.515 11.032 147.411 10.928C147.307 10.816 147.255 10.664 147.255 10.472V9.416L147.387 9.68C147.259 10.112 147.007 10.46 146.631 10.724C146.263 10.98 145.819 11.108 145.299 11.108ZM145.611 10.172C145.939 10.172 146.227 10.092 146.475 9.932C146.723 9.772 146.915 9.536 147.051 9.224C147.195 8.912 147.267 8.528 147.267 8.072C147.267 7.384 147.115 6.864 146.811 6.512C146.507 6.16 146.107 5.984 145.611 5.984C145.275 5.984 144.983 6.064 144.735 6.224C144.487 6.376 144.291 6.608 144.147 6.92C144.011 7.232 143.943 7.616 143.943 8.072C143.943 8.752 144.095 9.272 144.399 9.632C144.703 9.992 145.107 10.172 145.611 10.172ZM156.141 11.084C155.941 11.084 155.785 11.028 155.673 10.916C155.569 10.804 155.517 10.648 155.517 10.448V3.584H152.973C152.805 3.584 152.673 3.54 152.577 3.452C152.481 3.356 152.433 3.224 152.433 3.056C152.433 2.888 152.481 2.76 152.577 2.672C152.673 2.584 152.805 2.54 152.973 2.54H159.297C159.473 2.54 159.609 2.584 159.705 2.672C159.801 2.76 159.849 2.888 159.849 3.056C159.849 3.224 159.801 3.356 159.705 3.452C159.609 3.54 159.473 3.584 159.297 3.584H156.753V10.448C156.753 10.648 156.701 10.804 156.597 10.916C156.501 11.028 156.349 11.084 156.141 11.084ZM162.479 11.108C161.839 11.108 161.287 10.988 160.823 10.748C160.367 10.5 160.011 10.152 159.755 9.704C159.507 9.248 159.383 8.708 159.383 8.084C159.383 7.476 159.507 6.944 159.755 6.488C160.003 6.032 160.343 5.676 160.775 5.42C161.207 5.164 161.699 5.036 162.251 5.036C162.659 5.036 163.023 5.104 163.343 5.24C163.663 5.368 163.935 5.56 164.159 5.816C164.391 6.064 164.563 6.368 164.675 6.728C164.795 7.088 164.855 7.492 164.855 7.94C164.855 8.076 164.815 8.18 164.735 8.252C164.655 8.316 164.535 8.348 164.375 8.348H160.343V7.604H164.039L163.835 7.772C163.835 7.372 163.775 7.032 163.655 6.752C163.543 6.472 163.371 6.26 163.139 6.116C162.915 5.964 162.635 5.888 162.299 5.888C161.923 5.888 161.603 5.976 161.339 6.152C161.083 6.328 160.887 6.572 160.751 6.884C160.615 7.196 160.547 7.56 160.547 7.976V8.048C160.547 8.752 160.711 9.284 161.039 9.644C161.375 9.996 161.859 10.172 162.491 10.172C162.731 10.172 162.983 10.14 163.247 10.076C163.519 10.012 163.775 9.904 164.015 9.752C164.151 9.672 164.271 9.636 164.375 9.644C164.487 9.652 164.575 9.688 164.639 9.752C164.711 9.816 164.755 9.896 164.771 9.992C164.787 10.088 164.771 10.188 164.723 10.292C164.675 10.388 164.591 10.476 164.471 10.556C164.199 10.74 163.883 10.88 163.523 10.976C163.163 11.064 162.815 11.108 162.479 11.108ZM166.333 11.072C166.189 11.072 166.069 11.032 165.973 10.952C165.885 10.864 165.837 10.756 165.829 10.628C165.829 10.5 165.885 10.36 165.997 10.208L168.025 7.676V8.276L166.129 5.912C166.001 5.768 165.941 5.632 165.949 5.504C165.957 5.368 166.009 5.26 166.105 5.18C166.201 5.1 166.317 5.06 166.453 5.06C166.605 5.06 166.729 5.088 166.825 5.144C166.929 5.192 167.025 5.276 167.113 5.396L168.709 7.424H168.277L169.885 5.396C169.973 5.276 170.065 5.192 170.161 5.144C170.265 5.088 170.389 5.06 170.533 5.06C170.677 5.06 170.793 5.104 170.881 5.192C170.977 5.272 171.025 5.38 171.025 5.516C171.033 5.644 170.977 5.78 170.857 5.924L168.961 8.252V7.712L170.989 10.208C171.109 10.352 171.165 10.492 171.157 10.628C171.157 10.756 171.109 10.864 171.013 10.952C170.917 11.032 170.797 11.072 170.653 11.072C170.509 11.072 170.385 11.044 170.281 10.988C170.185 10.932 170.089 10.848 169.993 10.736L168.277 8.576H168.685L166.981 10.736C166.893 10.84 166.797 10.924 166.693 10.988C166.597 11.044 166.477 11.072 166.333 11.072ZM175.036 11.108C174.556 11.108 174.152 11.024 173.824 10.856C173.496 10.688 173.252 10.44 173.092 10.112C172.932 9.784 172.852 9.384 172.852 8.912V6.08H172.132C171.972 6.08 171.848 6.04 171.76 5.96C171.671 5.872 171.627 5.756 171.627 5.612C171.627 5.46 171.671 5.344 171.76 5.264C171.848 5.184 171.972 5.144 172.132 5.144H172.852V3.908C172.852 3.708 172.904 3.556 173.008 3.452C173.12 3.348 173.272 3.296 173.464 3.296C173.656 3.296 173.804 3.348 173.908 3.452C174.012 3.556 174.064 3.708 174.064 3.908V5.144H175.468C175.628 5.144 175.752 5.184 175.84 5.264C175.928 5.344 175.972 5.46 175.972 5.612C175.972 5.756 175.928 5.872 175.84 5.96C175.752 6.04 175.628 6.08 175.468 6.08H174.064V8.816C174.064 9.24 174.152 9.56 174.328 9.776C174.512 9.992 174.808 10.1 175.215 10.1C175.36 10.1 175.484 10.088 175.588 10.064C175.7 10.032 175.792 10.012 175.864 10.004C175.952 10.004 176.024 10.036 176.08 10.1C176.136 10.156 176.164 10.268 176.164 10.436C176.164 10.556 176.14 10.668 176.092 10.772C176.052 10.876 175.976 10.944 175.864 10.976C175.768 11.008 175.636 11.036 175.468 11.06C175.308 11.092 175.164 11.108 175.036 11.108Z" fill="#1E6CEB"/>
</svg>
