<svg width="429" height="423" viewBox="0 0 429 423" fill="none" xmlns="http://www.w3.org/2000/svg">
<rect x="2" width="427" height="129" rx="16" fill="white"/>
<rect x="2" y="147" width="427" height="129" rx="16" fill="white"/>
<rect y="294" width="427" height="129" rx="16" fill="white"/>
<path d="M36 355.5H153C156.038 355.5 158.5 357.962 158.5 361C158.5 364.038 156.038 366.5 153 366.5H36C32.9624 366.5 30.5 364.038 30.5 361C30.5 357.962 32.9624 355.5 36 355.5Z" fill="#FE5000" stroke="#ED4C02"/>
<g filter="url(#filter0_i_1132_9909)">
<rect x="30" y="355" width="371" height="12" rx="6" fill="#64728C" fill-opacity="0.12"/>
</g>
<rect x="30.5" y="355.5" width="370" height="11" rx="5.5" stroke="#64728C" stroke-opacity="0.01"/>
<g filter="url(#filter1_d_1132_9909)">
<circle cx="150" cy="361" r="18" fill="#FE5000"/>
<circle cx="150" cy="361" r="18" fill="url(#paint0_radial_1132_9909)" fill-opacity="0.5"/>
<circle cx="150" cy="361" r="18" fill="url(#paint1_linear_1132_9909)" fill-opacity="0.2"/>
</g>
<g filter="url(#filter2_i_1132_9909)">
<path d="M145.432 365.12C145 365.12 144.552 365.064 144.088 364.952C143.624 364.84 143.22 364.672 142.876 364.448C142.716 364.344 142.608 364.224 142.552 364.088C142.496 363.952 142.48 363.824 142.504 363.704C142.536 363.576 142.596 363.468 142.684 363.38C142.78 363.292 142.896 363.24 143.032 363.224C143.176 363.208 143.332 363.244 143.5 363.332C143.828 363.508 144.144 363.636 144.448 363.716C144.752 363.788 145.064 363.824 145.384 363.824C145.736 363.824 146.032 363.776 146.272 363.68C146.512 363.584 146.692 363.44 146.812 363.248C146.94 363.056 147.004 362.824 147.004 362.552C147.004 362.152 146.868 361.856 146.596 361.664C146.332 361.464 145.944 361.364 145.432 361.364H144.664C144.44 361.364 144.268 361.308 144.148 361.196C144.036 361.084 143.98 360.928 143.98 360.728C143.98 360.528 144.036 360.372 144.148 360.26C144.268 360.148 144.44 360.092 144.664 360.092H145.288C145.592 360.092 145.852 360.044 146.068 359.948C146.284 359.844 146.452 359.7 146.572 359.516C146.692 359.332 146.752 359.108 146.752 358.844C146.752 358.476 146.628 358.196 146.38 358.004C146.14 357.812 145.788 357.716 145.324 357.716C145.028 357.716 144.748 357.752 144.484 357.824C144.228 357.888 143.944 358.012 143.632 358.196C143.488 358.284 143.348 358.32 143.212 358.304C143.084 358.288 142.976 358.236 142.888 358.148C142.8 358.06 142.74 357.956 142.708 357.836C142.676 357.708 142.684 357.58 142.732 357.452C142.78 357.316 142.88 357.2 143.032 357.104C143.376 356.88 143.756 356.712 144.172 356.6C144.588 356.48 145.016 356.42 145.456 356.42C146.04 356.42 146.54 356.512 146.956 356.696C147.372 356.872 147.688 357.128 147.904 357.464C148.128 357.792 148.24 358.192 148.24 358.664C148.24 359 148.176 359.308 148.048 359.588C147.92 359.86 147.74 360.092 147.508 360.284C147.276 360.476 146.996 360.612 146.668 360.692V360.548C147.244 360.644 147.692 360.884 148.012 361.268C148.332 361.644 148.492 362.116 148.492 362.684C148.492 363.18 148.368 363.612 148.12 363.98C147.872 364.348 147.52 364.632 147.064 364.832C146.608 365.024 146.064 365.12 145.432 365.12ZM152.867 365.12C152.443 365.12 152.011 365.064 151.571 364.952C151.131 364.84 150.727 364.668 150.359 364.436C150.207 364.34 150.103 364.228 150.047 364.1C149.999 363.964 149.987 363.832 150.011 363.704C150.043 363.568 150.103 363.456 150.191 363.368C150.287 363.272 150.399 363.216 150.527 363.2C150.663 363.184 150.811 363.22 150.971 363.308C151.267 363.476 151.567 363.604 151.871 363.692C152.175 363.78 152.499 363.824 152.843 363.824C153.179 363.824 153.467 363.764 153.707 363.644C153.947 363.524 154.131 363.356 154.259 363.14C154.387 362.924 154.451 362.672 154.451 362.384C154.451 361.936 154.315 361.576 154.043 361.304C153.771 361.024 153.399 360.884 152.927 360.884C152.671 360.884 152.423 360.928 152.183 361.016C151.943 361.096 151.707 361.24 151.475 361.448C151.403 361.512 151.311 361.576 151.199 361.64C151.087 361.696 150.967 361.724 150.839 361.724C150.639 361.724 150.487 361.672 150.383 361.568C150.279 361.464 150.227 361.32 150.227 361.136V357.212C150.227 356.996 150.283 356.832 150.395 356.72C150.515 356.6 150.683 356.54 150.899 356.54H154.847C155.063 356.54 155.227 356.596 155.339 356.708C155.459 356.812 155.519 356.968 155.519 357.176C155.519 357.376 155.459 357.532 155.339 357.644C155.227 357.756 155.063 357.812 154.847 357.812H151.727V360.5H151.331C151.539 360.22 151.815 360.004 152.159 359.852C152.503 359.7 152.879 359.624 153.287 359.624C153.823 359.624 154.287 359.74 154.679 359.972C155.079 360.196 155.387 360.512 155.603 360.92C155.827 361.32 155.939 361.788 155.939 362.324C155.939 362.876 155.815 363.364 155.567 363.788C155.319 364.204 154.963 364.532 154.499 364.772C154.043 365.004 153.499 365.12 152.867 365.12ZM158.467 361.922C158.419 362.002 158.361 362.054 158.293 362.078C158.225 362.106 158.157 362.112 158.089 362.096C158.021 362.08 157.963 362.048 157.915 362C157.871 361.948 157.843 361.886 157.831 361.814C157.819 361.742 157.837 361.666 157.885 361.586L160.039 357.854C160.087 357.77 160.145 357.714 160.213 357.686C160.281 357.658 160.347 357.654 160.411 357.674C160.479 357.69 160.537 357.724 160.585 357.776C160.633 357.824 160.663 357.884 160.675 357.956C160.687 358.028 160.669 358.104 160.621 358.184L158.467 361.922ZM157.711 360.29C157.363 360.29 157.093 360.174 156.901 359.942C156.709 359.706 156.613 359.39 156.613 358.994C156.613 358.726 156.655 358.496 156.739 358.304C156.827 358.112 156.953 357.964 157.117 357.86C157.285 357.756 157.483 357.704 157.711 357.704C158.055 357.704 158.323 357.822 158.515 358.058C158.711 358.29 158.809 358.602 158.809 358.994C158.809 359.258 158.765 359.488 158.677 359.684C158.593 359.876 158.469 360.026 158.305 360.134C158.141 360.238 157.943 360.29 157.711 360.29ZM157.711 359.714C157.791 359.714 157.857 359.69 157.909 359.642C157.965 359.59 158.007 359.512 158.035 359.408C158.067 359.3 158.083 359.162 158.083 358.994C158.083 358.742 158.049 358.562 157.981 358.454C157.917 358.342 157.827 358.286 157.711 358.286C157.631 358.286 157.563 358.31 157.507 358.358C157.451 358.406 157.409 358.482 157.381 358.586C157.353 358.686 157.339 358.822 157.339 358.994C157.339 359.25 157.371 359.434 157.435 359.546C157.499 359.658 157.591 359.714 157.711 359.714ZM160.801 362.066C160.453 362.066 160.183 361.948 159.991 361.712C159.799 361.476 159.703 361.16 159.703 360.764C159.703 360.5 159.747 360.272 159.835 360.08C159.923 359.888 160.049 359.74 160.213 359.636C160.377 359.532 160.573 359.48 160.801 359.48C161.145 359.48 161.413 359.596 161.605 359.828C161.801 360.06 161.899 360.372 161.899 360.764C161.899 361.028 161.855 361.258 161.767 361.454C161.683 361.65 161.559 361.802 161.395 361.91C161.231 362.014 161.033 362.066 160.801 362.066ZM160.801 361.484C160.881 361.484 160.947 361.46 160.999 361.412C161.055 361.364 161.097 361.286 161.125 361.178C161.157 361.07 161.173 360.932 161.173 360.764C161.173 360.512 161.139 360.332 161.071 360.224C161.007 360.112 160.917 360.056 160.801 360.056C160.721 360.056 160.653 360.08 160.597 360.128C160.545 360.176 160.503 360.252 160.471 360.356C160.443 360.46 160.429 360.596 160.429 360.764C160.429 361.024 160.461 361.21 160.525 361.322C160.589 361.43 160.681 361.484 160.801 361.484Z" fill="white"/>
</g>
<rect x="28" y="211" width="371" height="12" rx="6" fill="#64728C" fill-opacity="0.12"/>
<rect x="28" y="211" width="187" height="12" rx="6" fill="#76BC21"/>
<g filter="url(#filter3_i_1132_9909)">
<path d="M362.12 204.2C361.413 204.2 360.693 204.107 359.96 203.92C359.227 203.733 358.553 203.447 357.94 203.06C357.687 202.9 357.513 202.713 357.42 202.5C357.34 202.273 357.32 202.053 357.36 201.84C357.413 201.613 357.513 201.427 357.66 201.28C357.82 201.12 358.007 201.027 358.22 201C358.447 200.973 358.693 201.033 358.96 201.18C359.453 201.46 359.953 201.673 360.46 201.82C360.967 201.967 361.507 202.04 362.08 202.04C362.64 202.04 363.12 201.94 363.52 201.74C363.92 201.54 364.227 201.26 364.44 200.9C364.653 200.54 364.76 200.12 364.76 199.64C364.76 198.893 364.533 198.293 364.08 197.84C363.627 197.373 363.007 197.14 362.22 197.14C361.793 197.14 361.38 197.213 360.98 197.36C360.58 197.493 360.187 197.733 359.8 198.08C359.68 198.187 359.527 198.293 359.34 198.4C359.153 198.493 358.953 198.54 358.74 198.54C358.407 198.54 358.153 198.453 357.98 198.28C357.807 198.107 357.72 197.867 357.72 197.56V191.02C357.72 190.66 357.813 190.387 358 190.2C358.2 190 358.48 189.9 358.84 189.9H365.42C365.78 189.9 366.053 189.993 366.24 190.18C366.44 190.353 366.54 190.613 366.54 190.96C366.54 191.293 366.44 191.553 366.24 191.74C366.053 191.927 365.78 192.02 365.42 192.02H360.22V196.5H359.56C359.907 196.033 360.367 195.673 360.94 195.42C361.513 195.167 362.14 195.04 362.82 195.04C363.713 195.04 364.487 195.233 365.14 195.62C365.807 195.993 366.32 196.52 366.68 197.2C367.053 197.867 367.24 198.647 367.24 199.54C367.24 200.46 367.033 201.273 366.62 201.98C366.207 202.673 365.613 203.22 364.84 203.62C364.08 204.007 363.173 204.2 362.12 204.2ZM373.992 204.2C372.326 204.2 371.052 203.573 370.172 202.32C369.292 201.053 368.852 199.253 368.852 196.92C368.852 195.347 369.046 194.027 369.432 192.96C369.832 191.88 370.412 191.067 371.172 190.52C371.946 189.973 372.886 189.7 373.992 189.7C375.672 189.7 376.946 190.313 377.812 191.54C378.692 192.767 379.132 194.553 379.132 196.9C379.132 198.46 378.932 199.787 378.532 200.88C378.146 201.96 377.572 202.787 376.812 203.36C376.052 203.92 375.112 204.2 373.992 204.2ZM373.992 202.1C374.899 202.1 375.566 201.68 375.992 200.84C376.432 200 376.652 198.687 376.652 196.9C376.652 195.113 376.432 193.82 375.992 193.02C375.566 192.207 374.899 191.8 373.992 191.8C373.099 191.8 372.432 192.207 371.992 193.02C371.552 193.82 371.332 195.113 371.332 196.9C371.332 198.687 371.552 200 371.992 200.84C372.432 201.68 373.099 202.1 373.992 202.1ZM386.564 203.84C386.431 204.08 386.264 204.233 386.064 204.3C385.878 204.38 385.684 204.393 385.484 204.34C385.298 204.3 385.138 204.207 385.004 204.06C384.871 203.927 384.791 203.76 384.764 203.56C384.738 203.347 384.791 203.12 384.924 202.88L392.304 190.08C392.438 189.84 392.598 189.68 392.784 189.6C392.984 189.52 393.178 189.507 393.364 189.56C393.551 189.6 393.711 189.693 393.844 189.84C393.978 189.987 394.058 190.167 394.084 190.38C394.124 190.58 394.078 190.793 393.944 191.02L386.564 203.84ZM384.424 198.32C383.304 198.32 382.431 197.933 381.804 197.16C381.178 196.387 380.864 195.333 380.864 194C380.864 193.107 381.004 192.34 381.284 191.7C381.564 191.06 381.971 190.567 382.504 190.22C383.038 189.873 383.678 189.7 384.424 189.7C385.544 189.7 386.418 190.087 387.044 190.86C387.671 191.62 387.984 192.667 387.984 194C387.984 194.893 387.844 195.667 387.564 196.32C387.284 196.96 386.878 197.453 386.344 197.8C385.811 198.147 385.171 198.32 384.424 198.32ZM384.424 196.64C384.744 196.64 385.018 196.547 385.244 196.36C385.471 196.16 385.644 195.867 385.764 195.48C385.884 195.093 385.944 194.6 385.944 194C385.944 193.107 385.811 192.447 385.544 192.02C385.278 191.593 384.904 191.38 384.424 191.38C384.104 191.38 383.831 191.473 383.604 191.66C383.378 191.847 383.204 192.133 383.084 192.52C382.964 192.907 382.904 193.4 382.904 194C382.904 194.907 383.038 195.573 383.304 196C383.571 196.427 383.944 196.64 384.424 196.64ZM394.464 204.2C393.344 204.2 392.471 203.813 391.844 203.04C391.218 202.267 390.904 201.213 390.904 199.88C390.904 198.987 391.044 198.22 391.324 197.58C391.604 196.94 392.011 196.447 392.544 196.1C393.078 195.753 393.718 195.58 394.464 195.58C395.584 195.58 396.458 195.967 397.084 196.74C397.711 197.5 398.024 198.547 398.024 199.88C398.024 200.773 397.884 201.547 397.604 202.2C397.324 202.84 396.918 203.333 396.384 203.68C395.851 204.027 395.211 204.2 394.464 204.2ZM394.464 202.52C394.784 202.52 395.058 202.427 395.284 202.24C395.511 202.053 395.684 201.767 395.804 201.38C395.924 200.98 395.984 200.48 395.984 199.88C395.984 198.987 395.851 198.327 395.584 197.9C395.318 197.473 394.944 197.26 394.464 197.26C394.144 197.26 393.871 197.353 393.644 197.54C393.418 197.727 393.244 198.013 393.124 198.4C393.004 198.787 392.944 199.28 392.944 199.88C392.944 200.787 393.078 201.453 393.344 201.88C393.611 202.307 393.984 202.52 394.464 202.52Z" fill="#64728C"/>
</g>
<rect x="29" y="76" width="371" height="12" rx="6" fill="#64728C" fill-opacity="0.12"/>
<path d="M29 82C29 78.6863 31.6863 76 35 76H304C307.314 76 310 78.6863 310 82V82C310 85.3137 307.314 88 304 88H35C31.6863 88 29 85.3137 29 82V82Z" fill="#76BC21"/>
<path d="M29 82C29 78.6863 31.6863 76 35 76H304C307.314 76 310 78.6863 310 82V82C310 85.3137 307.314 88 304 88H35C31.6863 88 29 85.3137 29 82V82Z" fill="url(#paint2_linear_1132_9909)"/>
<g clip-path="url(#clip0_1132_9909)">
<path d="M214.826 36.8985C215.484 36.6454 216.103 36.4896 216.684 36.3143C218.039 35.9054 219.394 35.9638 220.768 36.2559C222.703 36.6648 224.523 37.5022 226.11 38.7291C227.794 40.0338 228.877 41.7475 229.516 43.7727C230.755 47.8038 229.884 52.6333 227.155 55.8464C224.581 58.8648 221.348 60.6954 217.4 61.2017C213.994 61.6301 210.819 60.9291 207.819 59.3127C205.632 58.1443 203.755 56.4501 202.381 54.3664C201.123 52.4775 200.29 50.4133 200.097 48.1543C199.807 44.9996 200.755 42.2538 202.845 39.8975C203.503 39.1575 204.258 38.5148 205.11 37.9891C206.542 37.0933 208.265 36.8012 209.91 37.1517C211.69 37.5217 213.316 38.1838 214.748 39.3133C215.794 40.1506 216.587 41.1438 216.955 42.468C216.994 42.6433 217.032 42.8185 217.071 42.9938C217.071 43.0912 217.129 43.2275 216.994 43.2664C216.858 43.3054 216.723 43.3638 216.607 43.208C216.51 43.0912 216.432 42.9743 216.336 42.877C214.807 41.0659 212.619 39.917 210.277 39.6638C209.677 39.5859 209.077 39.6054 208.497 39.7027C207.684 39.8391 206.929 40.2285 206.348 40.8322C204.703 42.4875 203.774 44.4738 203.929 46.8496C204.045 48.5048 204.684 49.9848 205.671 51.3091C207.258 53.4317 209.503 54.9506 212.039 55.6517C215.271 56.567 218.426 56.3527 221.426 54.7948C222.974 53.9964 224.271 52.9254 225.142 51.3675C225.781 50.2185 226.187 48.9722 226.361 47.6675C226.497 46.6743 226.497 45.6617 226.381 44.6685C226.226 43.5391 225.742 42.4875 225.026 41.6306C223.865 40.1701 222.336 39.0406 220.613 38.3591C219.2 37.7748 217.71 37.4438 216.219 37.1712C215.794 37.0933 215.368 37.0154 214.845 36.8985H214.826Z" fill="#FF7B1D"/>
<path d="M223.632 27.3368C221.697 28.1547 219.819 29.1089 218.019 30.1994C216.645 30.9978 215.348 31.9326 214.129 32.9452C213.877 33.1594 213.645 33.3736 213.374 33.6268C213.336 33.3541 213.336 33.062 213.374 32.7894C213.452 31.6015 213.723 30.4331 214.207 29.3426C214.826 27.9404 215.968 26.8304 217.4 26.2852C218.987 25.6815 220.652 25.2726 222.355 25.1168C223.574 24.9804 224.794 24.9415 226.013 24.9999C226.69 24.9999 227.348 25.0583 228.007 25.1752C228.045 25.2336 228.045 25.3115 228.007 25.3699C226.884 27.7068 225.684 29.9852 224.136 32.0689C223.942 32.322 223.748 32.5557 223.555 32.8089C222.936 33.5683 222.084 34.1331 221.155 34.4252C219.897 34.8147 218.619 35.0873 217.323 35.2431C216.703 35.321 216.084 35.3989 215.465 35.4768C215.348 35.4962 215.252 35.4962 215.136 35.4768C215.174 35.3015 215.252 35.1457 215.368 35.0094C216.142 33.7241 217.168 32.6336 218.252 31.6404C219.858 30.1604 221.619 28.8947 223.419 27.6678C223.536 27.5899 223.632 27.512 223.729 27.4341C223.845 27.4147 223.942 27.3173 223.981 27.2004C223.845 27.2004 223.729 27.2394 223.632 27.3368Z" fill="#178917"/>
</g>
<defs>
<filter id="filter0_i_1132_9909" x="30" y="355" width="371" height="14" filterUnits="userSpaceOnUse" color-interpolation-filters="sRGB">
<feFlood flood-opacity="0" result="BackgroundImageFix"/>
<feBlend mode="normal" in="SourceGraphic" in2="BackgroundImageFix" result="shape"/>
<feColorMatrix in="SourceAlpha" type="matrix" values="0 0 0 0 0 0 0 0 0 0 0 0 0 0 0 0 0 0 127 0" result="hardAlpha"/>
<feOffset dy="2"/>
<feGaussianBlur stdDeviation="2"/>
<feComposite in2="hardAlpha" operator="arithmetic" k2="-1" k3="1"/>
<feColorMatrix type="matrix" values="0 0 0 0 0 0 0 0 0 0 0 0 0 0 0 0 0 0 0.05 0"/>
<feBlend mode="normal" in2="shape" result="effect1_innerShadow_1132_9909"/>
</filter>
<filter id="filter1_d_1132_9909" x="126" y="341" width="48" height="48" filterUnits="userSpaceOnUse" color-interpolation-filters="sRGB">
<feFlood flood-opacity="0" result="BackgroundImageFix"/>
<feColorMatrix in="SourceAlpha" type="matrix" values="0 0 0 0 0 0 0 0 0 0 0 0 0 0 0 0 0 0 127 0" result="hardAlpha"/>
<feOffset dy="4"/>
<feGaussianBlur stdDeviation="3"/>
<feComposite in2="hardAlpha" operator="out"/>
<feColorMatrix type="matrix" values="0 0 0 0 0 0 0 0 0 0 0 0 0 0 0 0 0 0 0.15 0"/>
<feBlend mode="normal" in2="BackgroundImageFix" result="effect1_dropShadow_1132_9909"/>
<feBlend mode="normal" in="SourceGraphic" in2="effect1_dropShadow_1132_9909" result="shape"/>
</filter>
<filter id="filter2_i_1132_9909" x="142.468" y="356.42" width="19.4307" height="12.7002" filterUnits="userSpaceOnUse" color-interpolation-filters="sRGB">
<feFlood flood-opacity="0" result="BackgroundImageFix"/>
<feBlend mode="normal" in="SourceGraphic" in2="BackgroundImageFix" result="shape"/>
<feColorMatrix in="SourceAlpha" type="matrix" values="0 0 0 0 0 0 0 0 0 0 0 0 0 0 0 0 0 0 127 0" result="hardAlpha"/>
<feOffset dy="4"/>
<feGaussianBlur stdDeviation="5"/>
<feComposite in2="hardAlpha" operator="arithmetic" k2="-1" k3="1"/>
<feColorMatrix type="matrix" values="0 0 0 0 0 0 0 0 0 0 0 0 0 0 0 0 0 0 0.05 0"/>
<feBlend mode="normal" in2="shape" result="effect1_innerShadow_1132_9909"/>
</filter>
<filter id="filter3_i_1132_9909" x="357.3" y="189.48" width="40.7244" height="18.9399" filterUnits="userSpaceOnUse" color-interpolation-filters="sRGB">
<feFlood flood-opacity="0" result="BackgroundImageFix"/>
<feBlend mode="normal" in="SourceGraphic" in2="BackgroundImageFix" result="shape"/>
<feColorMatrix in="SourceAlpha" type="matrix" values="0 0 0 0 0 0 0 0 0 0 0 0 0 0 0 0 0 0 127 0" result="hardAlpha"/>
<feOffset dy="4"/>
<feGaussianBlur stdDeviation="5"/>
<feComposite in2="hardAlpha" operator="arithmetic" k2="-1" k3="1"/>
<feColorMatrix type="matrix" values="0 0 0 0 0 0 0 0 0 0 0 0 0 0 0 0 0 0 0.05 0"/>
<feBlend mode="normal" in2="shape" result="effect1_innerShadow_1132_9909"/>
</filter>
<radialGradient id="paint0_radial_1132_9909" cx="0" cy="0" r="1" gradientUnits="userSpaceOnUse" gradientTransform="translate(147.3 354.7) rotate(55.1755) scale(12.608 15.4087)">
<stop stop-color="white"/>
<stop offset="1" stop-color="#FE5000"/>
</radialGradient>
<linearGradient id="paint1_linear_1132_9909" x1="147.3" y1="364.15" x2="154.05" y2="381.7" gradientUnits="userSpaceOnUse">
<stop stop-opacity="0"/>
<stop offset="1"/>
</linearGradient>
<linearGradient id="paint2_linear_1132_9909" x1="74" y1="82" x2="355" y2="82" gradientUnits="userSpaceOnUse">
<stop stop-color="#10DE10"/>
<stop offset="0.135" stop-color="#76BC21"/>
<stop offset="0.3" stop-color="#FFAA00"/>
<stop offset="0.437145" stop-color="#FF7B1D"/>
<stop offset="0.548731" stop-color="#FE5000"/>
<stop offset="0.666056" stop-color="#FFCFB9"/>
<stop offset="0.766941" stop-color="white"/>
<stop offset="0.876094" stop-color="#D7FDA9"/>
<stop offset="0.981223" stop-color="#1EDE1E"/>
</linearGradient>
<clipPath id="clip0_1132_9909">
<rect width="30" height="37" fill="white" transform="translate(200 25)"/>
</clipPath>
</defs>
</svg>
