<svg width="188" height="243" viewBox="0 0 188 243" fill="none" xmlns="http://www.w3.org/2000/svg">
<rect x="25" width="138" height="243" rx="14" fill="white"/>
<rect x="61.5" y="17.5" width="63" height="25" rx="8.5" stroke="url(#paint0_linear_1150_10751)" stroke-opacity="0.25"/>
<path d="M67.608 34.084C67.408 34.084 67.252 34.028 67.14 33.916C67.036 33.804 66.984 33.648 66.984 33.448V26.092C66.984 25.884 67.036 25.728 67.14 25.624C67.252 25.512 67.408 25.456 67.608 25.456C67.808 25.456 67.96 25.512 68.064 25.624C68.176 25.728 68.232 25.884 68.232 26.092V33.448C68.232 33.648 68.18 33.804 68.076 33.916C67.972 34.028 67.816 34.084 67.608 34.084ZM70.6629 34.084C70.4709 34.084 70.3229 34.032 70.2189 33.928C70.1149 33.816 70.0629 33.664 70.0629 33.472V28.672C70.0629 28.472 70.1149 28.32 70.2189 28.216C70.3229 28.112 70.4669 28.06 70.6509 28.06C70.8429 28.06 70.9869 28.112 71.0829 28.216C71.1869 28.32 71.2389 28.472 71.2389 28.672V29.608L71.1069 29.392C71.2829 28.944 71.5589 28.608 71.9349 28.384C72.3109 28.152 72.7429 28.036 73.2309 28.036C73.6949 28.036 74.0789 28.124 74.3829 28.3C74.6949 28.468 74.9269 28.728 75.0789 29.08C75.2309 29.424 75.3069 29.86 75.3069 30.388V33.472C75.3069 33.664 75.2549 33.816 75.1509 33.928C75.0469 34.032 74.8989 34.084 74.7069 34.084C74.5069 34.084 74.3549 34.032 74.2509 33.928C74.1469 33.816 74.0949 33.664 74.0949 33.472V30.46C74.0949 29.956 73.9949 29.588 73.7949 29.356C73.6029 29.124 73.2989 29.008 72.8829 29.008C72.3949 29.008 72.0029 29.16 71.7069 29.464C71.4189 29.768 71.2749 30.176 71.2749 30.688V33.472C71.2749 33.88 71.0709 34.084 70.6629 34.084ZM80.8971 34.084C80.6971 34.084 80.5411 34.028 80.4291 33.916C80.3251 33.804 80.2731 33.648 80.2731 33.448V26.176C80.2731 25.968 80.3291 25.812 80.4411 25.708C80.5531 25.596 80.7091 25.54 80.9091 25.54H83.7771C84.6891 25.54 85.3931 25.756 85.8891 26.188C86.3851 26.62 86.6331 27.232 86.6331 28.024C86.6331 28.536 86.5211 28.976 86.2971 29.344C86.0731 29.712 85.7451 29.992 85.3131 30.184C84.8891 30.376 84.3771 30.472 83.7771 30.472L83.8851 30.304H84.1971C84.5171 30.304 84.7931 30.384 85.0251 30.544C85.2651 30.704 85.4811 30.96 85.6731 31.312L86.7051 33.232C86.7851 33.376 86.8211 33.516 86.8131 33.652C86.8131 33.78 86.7651 33.884 86.6691 33.964C86.5811 34.044 86.4531 34.084 86.2851 34.084C86.1091 34.084 85.9651 34.048 85.8531 33.976C85.7491 33.896 85.6531 33.78 85.5651 33.628L84.3051 31.3C84.1371 30.988 83.9451 30.78 83.7291 30.676C83.5131 30.564 83.2291 30.508 82.8771 30.508H81.5211V33.448C81.5211 33.648 81.4691 33.804 81.3651 33.916C81.2611 34.028 81.1051 34.084 80.8971 34.084ZM81.5211 29.572H83.5731C84.1811 29.572 84.6411 29.444 84.9531 29.188C85.2651 28.932 85.4211 28.552 85.4211 28.048C85.4211 27.552 85.2651 27.176 84.9531 26.92C84.6411 26.664 84.1811 26.536 83.5731 26.536H81.5211V29.572ZM90.8695 34.108C90.2295 34.108 89.6775 33.988 89.2135 33.748C88.7575 33.5 88.4015 33.152 88.1455 32.704C87.8975 32.248 87.7735 31.708 87.7735 31.084C87.7735 30.476 87.8975 29.944 88.1455 29.488C88.3935 29.032 88.7335 28.676 89.1655 28.42C89.5975 28.164 90.0895 28.036 90.6415 28.036C91.0495 28.036 91.4135 28.104 91.7335 28.24C92.0535 28.368 92.3255 28.56 92.5495 28.816C92.7815 29.064 92.9535 29.368 93.0655 29.728C93.1855 30.088 93.2455 30.492 93.2455 30.94C93.2455 31.076 93.2055 31.18 93.1255 31.252C93.0455 31.316 92.9255 31.348 92.7655 31.348H88.7335V30.604H92.4295L92.2255 30.772C92.2255 30.372 92.1655 30.032 92.0455 29.752C91.9335 29.472 91.7615 29.26 91.5295 29.116C91.3055 28.964 91.0255 28.888 90.6895 28.888C90.3135 28.888 89.9935 28.976 89.7295 29.152C89.4735 29.328 89.2775 29.572 89.1415 29.884C89.0055 30.196 88.9375 30.56 88.9375 30.976V31.048C88.9375 31.752 89.1015 32.284 89.4295 32.644C89.7655 32.996 90.2495 33.172 90.8815 33.172C91.1215 33.172 91.3735 33.14 91.6375 33.076C91.9095 33.012 92.1655 32.904 92.4055 32.752C92.5415 32.672 92.6615 32.636 92.7655 32.644C92.8775 32.652 92.9655 32.688 93.0295 32.752C93.1015 32.816 93.1455 32.896 93.1615 32.992C93.1775 33.088 93.1615 33.188 93.1135 33.292C93.0655 33.388 92.9815 33.476 92.8615 33.556C92.5895 33.74 92.2735 33.88 91.9135 33.976C91.5535 34.064 91.2055 34.108 90.8695 34.108ZM96.7528 34.084C96.5848 34.084 96.4368 34.04 96.3088 33.952C96.1888 33.864 96.0888 33.728 96.0088 33.544L94.0048 28.888C93.9408 28.744 93.9168 28.608 93.9328 28.48C93.9488 28.352 94.0088 28.252 94.1128 28.18C94.2168 28.1 94.3568 28.06 94.5328 28.06C94.6848 28.06 94.8048 28.096 94.8928 28.168C94.9808 28.24 95.0608 28.364 95.1328 28.54L96.9448 33.004H96.6088L98.4568 28.54C98.5288 28.364 98.6088 28.24 98.6968 28.168C98.7928 28.096 98.9248 28.06 99.0928 28.06C99.2368 28.06 99.3488 28.1 99.4288 28.18C99.5168 28.252 99.5688 28.352 99.5848 28.48C99.6088 28.6 99.5888 28.732 99.5248 28.876L97.4968 33.544C97.4248 33.728 97.3248 33.864 97.1968 33.952C97.0688 34.04 96.9208 34.084 96.7528 34.084ZM101.319 34.072C101.127 34.072 100.979 34.016 100.875 33.904C100.771 33.784 100.719 33.62 100.719 33.412V28.732C100.719 28.524 100.771 28.364 100.875 28.252C100.979 28.14 101.127 28.084 101.319 28.084C101.511 28.084 101.659 28.14 101.763 28.252C101.875 28.364 101.931 28.524 101.931 28.732V33.412C101.931 33.62 101.879 33.784 101.775 33.904C101.671 34.016 101.519 34.072 101.319 34.072ZM101.319 26.836C101.079 26.836 100.891 26.776 100.755 26.656C100.627 26.536 100.563 26.368 100.563 26.152C100.563 25.928 100.627 25.76 100.755 25.648C100.891 25.528 101.079 25.468 101.319 25.468C101.559 25.468 101.743 25.528 101.871 25.648C102.007 25.76 102.075 25.928 102.075 26.152C102.075 26.368 102.007 26.536 101.871 26.656C101.743 26.776 101.559 26.836 101.319 26.836ZM106.385 34.108C105.745 34.108 105.193 33.988 104.729 33.748C104.273 33.5 103.917 33.152 103.661 32.704C103.413 32.248 103.289 31.708 103.289 31.084C103.289 30.476 103.413 29.944 103.661 29.488C103.909 29.032 104.249 28.676 104.681 28.42C105.113 28.164 105.605 28.036 106.157 28.036C106.565 28.036 106.929 28.104 107.249 28.24C107.569 28.368 107.841 28.56 108.065 28.816C108.297 29.064 108.469 29.368 108.581 29.728C108.701 30.088 108.761 30.492 108.761 30.94C108.761 31.076 108.721 31.18 108.641 31.252C108.561 31.316 108.441 31.348 108.281 31.348H104.249V30.604H107.945L107.741 30.772C107.741 30.372 107.681 30.032 107.561 29.752C107.449 29.472 107.277 29.26 107.045 29.116C106.821 28.964 106.541 28.888 106.205 28.888C105.829 28.888 105.509 28.976 105.245 29.152C104.989 29.328 104.793 29.572 104.657 29.884C104.521 30.196 104.453 30.56 104.453 30.976V31.048C104.453 31.752 104.617 32.284 104.945 32.644C105.281 32.996 105.765 33.172 106.397 33.172C106.637 33.172 106.889 33.14 107.153 33.076C107.425 33.012 107.681 32.904 107.921 32.752C108.057 32.672 108.177 32.636 108.281 32.644C108.393 32.652 108.481 32.688 108.545 32.752C108.617 32.816 108.661 32.896 108.677 32.992C108.693 33.088 108.677 33.188 108.629 33.292C108.581 33.388 108.497 33.476 108.377 33.556C108.105 33.74 107.789 33.88 107.429 33.976C107.069 34.064 106.721 34.108 106.385 34.108ZM112.136 34.084C111.968 34.084 111.82 34.044 111.692 33.964C111.572 33.876 111.476 33.74 111.404 33.556L109.64 28.888C109.576 28.728 109.556 28.588 109.58 28.468C109.604 28.34 109.664 28.24 109.76 28.168C109.864 28.096 109.996 28.06 110.156 28.06C110.3 28.06 110.416 28.096 110.504 28.168C110.6 28.232 110.68 28.36 110.744 28.552L112.316 32.98H112.028L113.66 28.504C113.716 28.352 113.792 28.24 113.888 28.168C113.984 28.096 114.108 28.06 114.26 28.06C114.412 28.06 114.536 28.096 114.632 28.168C114.736 28.24 114.812 28.352 114.86 28.504L116.456 32.98H116.192L117.788 28.528C117.852 28.344 117.932 28.22 118.028 28.156C118.132 28.092 118.248 28.06 118.376 28.06C118.536 28.06 118.656 28.1 118.736 28.18C118.824 28.26 118.872 28.364 118.88 28.492C118.896 28.612 118.876 28.744 118.82 28.888L117.056 33.556C116.984 33.732 116.884 33.864 116.756 33.952C116.636 34.04 116.496 34.084 116.336 34.084C116.168 34.084 116.02 34.04 115.892 33.952C115.772 33.864 115.676 33.732 115.604 33.556L113.924 29.008H114.524L112.856 33.556C112.792 33.732 112.696 33.864 112.568 33.952C112.448 34.04 112.304 34.084 112.136 34.084Z" fill="#FF8A00"/>
<rect x="61.5" y="50.5" width="64" height="25" rx="8.5" stroke="url(#paint1_linear_1150_10751)" stroke-opacity="0.25"/>
<path d="M70.776 67.108C69.92 67.108 69.188 66.932 68.58 66.58C67.972 66.228 67.504 65.728 67.176 65.08C66.856 64.424 66.696 63.652 66.696 62.764C66.696 62.1 66.788 61.504 66.972 60.976C67.156 60.44 67.42 59.984 67.764 59.608C68.116 59.224 68.544 58.932 69.048 58.732C69.56 58.532 70.136 58.432 70.776 58.432C71.248 58.432 71.7 58.496 72.132 58.624C72.572 58.752 72.952 58.936 73.272 59.176C73.408 59.264 73.496 59.372 73.536 59.5C73.584 59.62 73.592 59.736 73.56 59.848C73.536 59.96 73.484 60.056 73.404 60.136C73.324 60.208 73.22 60.248 73.092 60.256C72.972 60.264 72.84 60.22 72.696 60.124C72.432 59.924 72.14 59.776 71.82 59.68C71.5 59.584 71.164 59.536 70.812 59.536C70.204 59.536 69.692 59.664 69.276 59.92C68.86 60.168 68.544 60.532 68.328 61.012C68.112 61.492 68.004 62.076 68.004 62.764C68.004 63.452 68.112 64.04 68.328 64.528C68.544 65.008 68.86 65.376 69.276 65.632C69.692 65.88 70.204 66.004 70.812 66.004C71.164 66.004 71.5 65.956 71.82 65.86C72.148 65.756 72.456 65.604 72.744 65.404C72.888 65.316 73.016 65.276 73.128 65.284C73.248 65.292 73.348 65.332 73.428 65.404C73.508 65.476 73.56 65.568 73.584 65.68C73.616 65.784 73.612 65.896 73.572 66.016C73.54 66.128 73.464 66.224 73.344 66.304C73.016 66.568 72.628 66.768 72.18 66.904C71.732 67.04 71.264 67.108 70.776 67.108ZM76.6342 67.108C76.2262 67.108 75.8582 67.028 75.5302 66.868C75.2102 66.708 74.9582 66.492 74.7742 66.22C74.5902 65.948 74.4982 65.64 74.4982 65.296C74.4982 64.864 74.6062 64.524 74.8222 64.276C75.0462 64.02 75.4102 63.84 75.9142 63.736C76.4262 63.624 77.1142 63.568 77.9782 63.568H78.5422V64.312H77.9902C77.4142 64.312 76.9582 64.34 76.6222 64.396C76.2862 64.452 76.0462 64.548 75.9022 64.684C75.7662 64.812 75.6982 64.992 75.6982 65.224C75.6982 65.528 75.8022 65.776 76.0102 65.968C76.2182 66.152 76.5062 66.244 76.8742 66.244C77.1702 66.244 77.4302 66.176 77.6542 66.04C77.8782 65.896 78.0542 65.704 78.1822 65.464C78.3182 65.224 78.3862 64.948 78.3862 64.636V63.256C78.3862 62.8 78.2902 62.472 78.0982 62.272C77.9062 62.072 77.5902 61.972 77.1502 61.972C76.8942 61.972 76.6262 62.004 76.3462 62.068C76.0742 62.132 75.7902 62.24 75.4942 62.392C75.3582 62.456 75.2422 62.476 75.1462 62.452C75.0502 62.428 74.9742 62.376 74.9182 62.296C74.8622 62.208 74.8302 62.116 74.8222 62.02C74.8222 61.916 74.8462 61.816 74.8942 61.72C74.9502 61.624 75.0422 61.552 75.1702 61.504C75.5222 61.336 75.8702 61.216 76.2142 61.144C76.5582 61.072 76.8822 61.036 77.1862 61.036C77.7222 61.036 78.1622 61.12 78.5062 61.288C78.8582 61.456 79.1182 61.712 79.2862 62.056C79.4542 62.4 79.5382 62.844 79.5382 63.388V66.472C79.5382 66.664 79.4902 66.816 79.3942 66.928C79.2982 67.032 79.1582 67.084 78.9742 67.084C78.7982 67.084 78.6582 67.032 78.5542 66.928C78.4502 66.816 78.3982 66.664 78.3982 66.472V65.692H78.5062C78.4422 65.988 78.3222 66.244 78.1462 66.46C77.9782 66.668 77.7662 66.828 77.5102 66.94C77.2542 67.052 76.9622 67.108 76.6342 67.108ZM81.8075 67.084C81.6155 67.084 81.4675 67.032 81.3635 66.928C81.2595 66.816 81.2075 66.664 81.2075 66.472V61.672C81.2075 61.472 81.2595 61.32 81.3635 61.216C81.4675 61.112 81.6115 61.06 81.7955 61.06C81.9875 61.06 82.1315 61.112 82.2275 61.216C82.3315 61.32 82.3835 61.472 82.3835 61.672V62.608L82.2515 62.392C82.4275 61.944 82.7035 61.608 83.0795 61.384C83.4555 61.152 83.8875 61.036 84.3755 61.036C84.8395 61.036 85.2235 61.124 85.5275 61.3C85.8395 61.468 86.0715 61.728 86.2235 62.08C86.3755 62.424 86.4515 62.86 86.4515 63.388V66.472C86.4515 66.664 86.3995 66.816 86.2955 66.928C86.1915 67.032 86.0435 67.084 85.8515 67.084C85.6515 67.084 85.4995 67.032 85.3955 66.928C85.2915 66.816 85.2395 66.664 85.2395 66.472V63.46C85.2395 62.956 85.1395 62.588 84.9395 62.356C84.7475 62.124 84.4435 62.008 84.0275 62.008C83.5395 62.008 83.1475 62.16 82.8515 62.464C82.5635 62.768 82.4195 63.176 82.4195 63.688V66.472C82.4195 66.88 82.2155 67.084 81.8075 67.084ZM90.7015 67.108C90.1015 67.108 89.5815 66.984 89.1415 66.736C88.7095 66.48 88.3735 66.124 88.1335 65.668C87.8935 65.204 87.7735 64.66 87.7735 64.036C87.7735 63.572 87.8415 63.156 87.9775 62.788C88.1135 62.412 88.3055 62.096 88.5535 61.84C88.8095 61.584 89.1175 61.388 89.4775 61.252C89.8455 61.108 90.2535 61.036 90.7015 61.036C90.9815 61.036 91.2735 61.08 91.5775 61.168C91.8895 61.248 92.1775 61.384 92.4415 61.576C92.5455 61.64 92.6095 61.72 92.6335 61.816C92.6655 61.904 92.6695 61.996 92.6455 62.092C92.6295 62.188 92.5855 62.272 92.5135 62.344C92.4495 62.408 92.3695 62.448 92.2735 62.464C92.1775 62.472 92.0735 62.444 91.9615 62.38C91.7695 62.244 91.5735 62.148 91.3735 62.092C91.1735 62.028 90.9815 61.996 90.7975 61.996C90.5095 61.996 90.2535 62.044 90.0295 62.14C89.8135 62.228 89.6295 62.36 89.4775 62.536C89.3255 62.704 89.2095 62.916 89.1295 63.172C89.0575 63.428 89.0215 63.72 89.0215 64.048C89.0215 64.704 89.1735 65.22 89.4775 65.596C89.7895 65.964 90.2295 66.148 90.7975 66.148C90.9815 66.148 91.1735 66.12 91.3735 66.064C91.5735 66.008 91.7695 65.912 91.9615 65.776C92.0735 65.712 92.1775 65.688 92.2735 65.704C92.3695 65.72 92.4455 65.764 92.5015 65.836C92.5655 65.9 92.6055 65.98 92.6215 66.076C92.6455 66.164 92.6415 66.256 92.6095 66.352C92.5775 66.448 92.5095 66.528 92.4055 66.592C92.1495 66.776 91.8695 66.908 91.5655 66.988C91.2695 67.068 90.9815 67.108 90.7015 67.108ZM96.3539 67.108C95.7139 67.108 95.1619 66.988 94.6979 66.748C94.2419 66.5 93.8859 66.152 93.6299 65.704C93.3819 65.248 93.2579 64.708 93.2579 64.084C93.2579 63.476 93.3819 62.944 93.6299 62.488C93.8779 62.032 94.2179 61.676 94.6499 61.42C95.0819 61.164 95.5739 61.036 96.1259 61.036C96.5339 61.036 96.8979 61.104 97.2179 61.24C97.5379 61.368 97.8099 61.56 98.0339 61.816C98.2659 62.064 98.4379 62.368 98.5499 62.728C98.6699 63.088 98.7299 63.492 98.7299 63.94C98.7299 64.076 98.6899 64.18 98.6099 64.252C98.5299 64.316 98.4099 64.348 98.2499 64.348H94.2179V63.604H97.9139L97.7099 63.772C97.7099 63.372 97.6499 63.032 97.5299 62.752C97.4179 62.472 97.2459 62.26 97.0139 62.116C96.7899 61.964 96.5099 61.888 96.1739 61.888C95.7979 61.888 95.4779 61.976 95.2139 62.152C94.9579 62.328 94.7619 62.572 94.6259 62.884C94.4899 63.196 94.4219 63.56 94.4219 63.976V64.048C94.4219 64.752 94.5859 65.284 94.9139 65.644C95.2499 65.996 95.7339 66.172 96.3659 66.172C96.6059 66.172 96.8579 66.14 97.1219 66.076C97.3939 66.012 97.6499 65.904 97.8899 65.752C98.0259 65.672 98.1459 65.636 98.2499 65.644C98.3619 65.652 98.4499 65.688 98.5139 65.752C98.5859 65.816 98.6299 65.896 98.6459 65.992C98.6619 66.088 98.6459 66.188 98.5979 66.292C98.5499 66.388 98.4659 66.476 98.3459 66.556C98.0739 66.74 97.7579 66.88 97.3979 66.976C97.0379 67.064 96.6899 67.108 96.3539 67.108ZM101.935 67.108C101.311 67.108 100.839 66.928 100.519 66.568C100.207 66.2 100.051 65.672 100.051 64.984V59.068C100.051 58.868 100.103 58.716 100.207 58.612C100.311 58.508 100.459 58.456 100.651 58.456C100.843 58.456 100.991 58.508 101.095 58.612C101.207 58.716 101.263 58.868 101.263 59.068V64.912C101.263 65.312 101.343 65.612 101.503 65.812C101.671 66.004 101.911 66.1 102.223 66.1C102.295 66.1 102.359 66.1 102.415 66.1C102.471 66.092 102.527 66.084 102.583 66.076C102.679 66.068 102.747 66.096 102.787 66.16C102.827 66.216 102.847 66.336 102.847 66.52C102.847 66.688 102.811 66.82 102.739 66.916C102.667 67.004 102.551 67.06 102.391 67.084C102.319 67.092 102.243 67.096 102.163 67.096C102.083 67.104 102.007 67.108 101.935 67.108ZM105.603 67.108C104.979 67.108 104.507 66.928 104.187 66.568C103.875 66.2 103.719 65.672 103.719 64.984V59.068C103.719 58.868 103.771 58.716 103.875 58.612C103.979 58.508 104.127 58.456 104.319 58.456C104.511 58.456 104.659 58.508 104.763 58.612C104.875 58.716 104.931 58.868 104.931 59.068V64.912C104.931 65.312 105.011 65.612 105.171 65.812C105.339 66.004 105.579 66.1 105.891 66.1C105.963 66.1 106.027 66.1 106.083 66.1C106.139 66.092 106.195 66.084 106.251 66.076C106.347 66.068 106.415 66.096 106.455 66.16C106.495 66.216 106.515 66.336 106.515 66.52C106.515 66.688 106.479 66.82 106.407 66.916C106.335 67.004 106.219 67.06 106.059 67.084C105.987 67.092 105.911 67.096 105.831 67.096C105.751 67.104 105.675 67.108 105.603 67.108ZM110.077 67.108C109.437 67.108 108.885 66.988 108.421 66.748C107.965 66.5 107.609 66.152 107.353 65.704C107.105 65.248 106.981 64.708 106.981 64.084C106.981 63.476 107.105 62.944 107.353 62.488C107.601 62.032 107.941 61.676 108.373 61.42C108.805 61.164 109.297 61.036 109.849 61.036C110.257 61.036 110.621 61.104 110.941 61.24C111.261 61.368 111.533 61.56 111.757 61.816C111.989 62.064 112.161 62.368 112.273 62.728C112.393 63.088 112.453 63.492 112.453 63.94C112.453 64.076 112.413 64.18 112.333 64.252C112.253 64.316 112.133 64.348 111.973 64.348H107.941V63.604H111.637L111.433 63.772C111.433 63.372 111.373 63.032 111.253 62.752C111.141 62.472 110.969 62.26 110.737 62.116C110.513 61.964 110.233 61.888 109.897 61.888C109.521 61.888 109.201 61.976 108.937 62.152C108.681 62.328 108.485 62.572 108.349 62.884C108.213 63.196 108.145 63.56 108.145 63.976V64.048C108.145 64.752 108.309 65.284 108.637 65.644C108.973 65.996 109.457 66.172 110.089 66.172C110.329 66.172 110.581 66.14 110.845 66.076C111.117 66.012 111.373 65.904 111.613 65.752C111.749 65.672 111.869 65.636 111.973 65.644C112.085 65.652 112.173 65.688 112.237 65.752C112.309 65.816 112.353 65.896 112.369 65.992C112.385 66.088 112.369 66.188 112.321 66.292C112.273 66.388 112.189 66.476 112.069 66.556C111.797 66.74 111.481 66.88 111.121 66.976C110.761 67.064 110.413 67.108 110.077 67.108ZM116.006 67.108C115.494 67.108 115.042 66.988 114.65 66.748C114.266 66.5 113.966 66.148 113.75 65.692C113.534 65.228 113.426 64.688 113.426 64.072C113.426 63.44 113.534 62.9 113.75 62.452C113.966 62.004 114.266 61.656 114.65 61.408C115.042 61.16 115.494 61.036 116.006 61.036C116.518 61.036 116.958 61.164 117.326 61.42C117.702 61.668 117.954 62.004 118.082 62.428H117.95V59.068C117.95 58.868 118.002 58.716 118.106 58.612C118.21 58.508 118.358 58.456 118.55 58.456C118.742 58.456 118.89 58.508 118.994 58.612C119.106 58.716 119.162 58.868 119.162 59.068V66.472C119.162 66.664 119.11 66.816 119.006 66.928C118.902 67.032 118.754 67.084 118.562 67.084C118.37 67.084 118.222 67.032 118.118 66.928C118.014 66.816 117.962 66.664 117.962 66.472V65.416L118.094 65.68C117.966 66.112 117.714 66.46 117.338 66.724C116.97 66.98 116.526 67.108 116.006 67.108ZM116.318 66.172C116.646 66.172 116.934 66.092 117.182 65.932C117.43 65.772 117.622 65.536 117.758 65.224C117.902 64.912 117.974 64.528 117.974 64.072C117.974 63.384 117.822 62.864 117.518 62.512C117.214 62.16 116.814 61.984 116.318 61.984C115.982 61.984 115.69 62.064 115.442 62.224C115.194 62.376 114.998 62.608 114.854 62.92C114.718 63.232 114.65 63.616 114.65 64.072C114.65 64.752 114.802 65.272 115.106 65.632C115.41 65.992 115.814 66.172 116.318 66.172Z" fill="#FE5000"/>
<rect x="58.5" y="85.5" width="69" height="25" rx="8.5" stroke="url(#paint2_linear_1150_10751)" stroke-opacity="0.25"/>
<path d="M67.776 102.108C66.92 102.108 66.188 101.932 65.58 101.58C64.972 101.228 64.504 100.728 64.176 100.08C63.856 99.424 63.696 98.652 63.696 97.764C63.696 97.1 63.788 96.504 63.972 95.976C64.156 95.44 64.42 94.984 64.764 94.608C65.116 94.224 65.544 93.932 66.048 93.732C66.56 93.532 67.136 93.432 67.776 93.432C68.248 93.432 68.7 93.496 69.132 93.624C69.572 93.752 69.952 93.936 70.272 94.176C70.408 94.264 70.496 94.372 70.536 94.5C70.584 94.62 70.592 94.736 70.56 94.848C70.536 94.96 70.484 95.056 70.404 95.136C70.324 95.208 70.22 95.248 70.092 95.256C69.972 95.264 69.84 95.22 69.696 95.124C69.432 94.924 69.14 94.776 68.82 94.68C68.5 94.584 68.164 94.536 67.812 94.536C67.204 94.536 66.692 94.664 66.276 94.92C65.86 95.168 65.544 95.532 65.328 96.012C65.112 96.492 65.004 97.076 65.004 97.764C65.004 98.452 65.112 99.04 65.328 99.528C65.544 100.008 65.86 100.376 66.276 100.632C66.692 100.88 67.204 101.004 67.812 101.004C68.164 101.004 68.5 100.956 68.82 100.86C69.148 100.756 69.456 100.604 69.744 100.404C69.888 100.316 70.016 100.276 70.128 100.284C70.248 100.292 70.348 100.332 70.428 100.404C70.508 100.476 70.56 100.568 70.584 100.68C70.616 100.784 70.612 100.896 70.572 101.016C70.54 101.128 70.464 101.224 70.344 101.304C70.016 101.568 69.628 101.768 69.18 101.904C68.732 102.04 68.264 102.108 67.776 102.108ZM74.0835 102.108C73.4915 102.108 72.9795 101.984 72.5475 101.736C72.1235 101.488 71.7915 101.136 71.5515 100.68C71.3115 100.224 71.1915 99.688 71.1915 99.072C71.1915 98.6 71.2595 98.18 71.3955 97.812C71.5315 97.444 71.7235 97.128 71.9715 96.864C72.2275 96.592 72.5315 96.388 72.8835 96.252C73.2435 96.108 73.6435 96.036 74.0835 96.036C74.6675 96.036 75.1715 96.16 75.5955 96.408C76.0275 96.656 76.3635 97.008 76.6035 97.464C76.8435 97.912 76.9635 98.448 76.9635 99.072C76.9635 99.536 76.8955 99.956 76.7595 100.332C76.6235 100.708 76.4275 101.028 76.1715 101.292C75.9235 101.556 75.6195 101.76 75.2595 101.904C74.9075 102.04 74.5155 102.108 74.0835 102.108ZM74.0835 101.172C74.4115 101.172 74.6995 101.092 74.9475 100.932C75.1955 100.772 75.3875 100.536 75.5235 100.224C75.6675 99.912 75.7395 99.528 75.7395 99.072C75.7395 98.384 75.5875 97.864 75.2835 97.512C74.9795 97.16 74.5795 96.984 74.0835 96.984C73.7475 96.984 73.4555 97.064 73.2075 97.224C72.9595 97.376 72.7635 97.608 72.6195 97.92C72.4835 98.232 72.4155 98.616 72.4155 99.072C72.4155 99.752 72.5675 100.272 72.8715 100.632C73.1755 100.992 73.5795 101.172 74.0835 101.172ZM78.9487 102.084C78.7567 102.084 78.6087 102.032 78.5047 101.928C78.4007 101.816 78.3487 101.664 78.3487 101.472V96.672C78.3487 96.472 78.4007 96.32 78.5047 96.216C78.6087 96.112 78.7527 96.06 78.9367 96.06C79.1287 96.06 79.2727 96.112 79.3687 96.216C79.4727 96.32 79.5247 96.472 79.5247 96.672V97.656L79.3927 97.392C79.5527 96.968 79.8007 96.636 80.1367 96.396C80.4727 96.156 80.8767 96.036 81.3487 96.036C81.8367 96.036 82.2327 96.152 82.5367 96.384C82.8407 96.616 83.0487 96.972 83.1607 97.452H82.9927C83.1447 97.012 83.4047 96.668 83.7727 96.42C84.1407 96.164 84.5687 96.036 85.0567 96.036C85.5047 96.036 85.8727 96.124 86.1607 96.3C86.4487 96.468 86.6647 96.728 86.8087 97.08C86.9527 97.424 87.0247 97.86 87.0247 98.388V101.472C87.0247 101.664 86.9687 101.816 86.8567 101.928C86.7527 102.032 86.6047 102.084 86.4127 102.084C86.2207 102.084 86.0727 102.032 85.9687 101.928C85.8647 101.816 85.8127 101.664 85.8127 101.472V98.448C85.8127 97.952 85.7247 97.588 85.5487 97.356C85.3807 97.124 85.1007 97.008 84.7087 97.008C84.2687 97.008 83.9207 97.16 83.6647 97.464C83.4087 97.768 83.2807 98.188 83.2807 98.724V101.472C83.2807 101.664 83.2287 101.816 83.1247 101.928C83.0207 102.032 82.8727 102.084 82.6807 102.084C82.4887 102.084 82.3367 102.032 82.2247 101.928C82.1207 101.816 82.0687 101.664 82.0687 101.472V98.448C82.0687 97.952 81.9847 97.588 81.8167 97.356C81.6487 97.124 81.3687 97.008 80.9767 97.008C80.5367 97.008 80.1887 97.16 79.9327 97.464C79.6847 97.768 79.5607 98.188 79.5607 98.724V101.472C79.5607 101.88 79.3567 102.084 78.9487 102.084ZM89.3192 104.244C89.1272 104.244 88.9792 104.192 88.8752 104.088C88.7712 103.984 88.7192 103.832 88.7192 103.632V96.672C88.7192 96.472 88.7712 96.32 88.8752 96.216C88.9792 96.112 89.1232 96.06 89.3072 96.06C89.4992 96.06 89.6472 96.112 89.7512 96.216C89.8552 96.32 89.9072 96.472 89.9072 96.672V97.716L89.7752 97.464C89.9032 97.032 90.1552 96.688 90.5312 96.432C90.9072 96.168 91.3512 96.036 91.8632 96.036C92.3832 96.036 92.8352 96.16 93.2192 96.408C93.6112 96.656 93.9112 97.004 94.1192 97.452C94.3352 97.9 94.4432 98.44 94.4432 99.072C94.4432 99.688 94.3352 100.228 94.1192 100.692C93.9112 101.148 93.6152 101.5 93.2312 101.748C92.8472 101.988 92.3912 102.108 91.8632 102.108C91.3592 102.108 90.9192 101.98 90.5432 101.724C90.1672 101.468 89.9152 101.128 89.7872 100.704H89.9312V103.632C89.9312 103.832 89.8752 103.984 89.7632 104.088C89.6592 104.192 89.5112 104.244 89.3192 104.244ZM91.5632 101.172C91.8992 101.172 92.1912 101.092 92.4392 100.932C92.6872 100.772 92.8792 100.536 93.0152 100.224C93.1512 99.912 93.2192 99.528 93.2192 99.072C93.2192 98.384 93.0672 97.864 92.7632 97.512C92.4672 97.16 92.0672 96.984 91.5632 96.984C91.2352 96.984 90.9432 97.064 90.6872 97.224C90.4392 97.376 90.2472 97.608 90.1112 97.92C89.9752 98.232 89.9072 98.616 89.9072 99.072C89.9072 99.752 90.0592 100.272 90.3632 100.632C90.6672 100.992 91.0672 101.172 91.5632 101.172ZM97.693 102.108C97.069 102.108 96.597 101.928 96.277 101.568C95.965 101.2 95.809 100.672 95.809 99.984V94.068C95.809 93.868 95.861 93.716 95.965 93.612C96.069 93.508 96.217 93.456 96.409 93.456C96.601 93.456 96.749 93.508 96.853 93.612C96.965 93.716 97.021 93.868 97.021 94.068V99.912C97.021 100.312 97.101 100.612 97.261 100.812C97.429 101.004 97.669 101.1 97.981 101.1C98.053 101.1 98.117 101.1 98.173 101.1C98.229 101.092 98.285 101.084 98.341 101.076C98.437 101.068 98.505 101.096 98.545 101.16C98.585 101.216 98.605 101.336 98.605 101.52C98.605 101.688 98.569 101.82 98.497 101.916C98.425 102.004 98.309 102.06 98.149 102.084C98.077 102.092 98.001 102.096 97.921 102.096C97.841 102.104 97.765 102.108 97.693 102.108ZM102.166 102.108C101.526 102.108 100.974 101.988 100.51 101.748C100.054 101.5 99.6984 101.152 99.4424 100.704C99.1944 100.248 99.0704 99.708 99.0704 99.084C99.0704 98.476 99.1944 97.944 99.4424 97.488C99.6904 97.032 100.03 96.676 100.462 96.42C100.894 96.164 101.386 96.036 101.938 96.036C102.346 96.036 102.71 96.104 103.03 96.24C103.35 96.368 103.622 96.56 103.846 96.816C104.078 97.064 104.25 97.368 104.362 97.728C104.482 98.088 104.542 98.492 104.542 98.94C104.542 99.076 104.502 99.18 104.422 99.252C104.342 99.316 104.222 99.348 104.062 99.348H100.03V98.604H103.726L103.522 98.772C103.522 98.372 103.462 98.032 103.342 97.752C103.23 97.472 103.058 97.26 102.826 97.116C102.602 96.964 102.322 96.888 101.986 96.888C101.61 96.888 101.29 96.976 101.026 97.152C100.77 97.328 100.574 97.572 100.438 97.884C100.302 98.196 100.234 98.56 100.234 98.976V99.048C100.234 99.752 100.398 100.284 100.726 100.644C101.062 100.996 101.546 101.172 102.178 101.172C102.418 101.172 102.67 101.14 102.934 101.076C103.206 101.012 103.462 100.904 103.702 100.752C103.838 100.672 103.958 100.636 104.062 100.644C104.174 100.652 104.262 100.688 104.326 100.752C104.398 100.816 104.442 100.896 104.458 100.992C104.474 101.088 104.458 101.188 104.41 101.292C104.362 101.388 104.278 101.476 104.158 101.556C103.886 101.74 103.57 101.88 103.21 101.976C102.85 102.064 102.502 102.108 102.166 102.108ZM108.348 102.108C107.868 102.108 107.464 102.024 107.136 101.856C106.808 101.688 106.564 101.44 106.404 101.112C106.244 100.784 106.164 100.384 106.164 99.912V97.08H105.444C105.284 97.08 105.16 97.04 105.072 96.96C104.984 96.872 104.94 96.756 104.94 96.612C104.94 96.46 104.984 96.344 105.072 96.264C105.16 96.184 105.284 96.144 105.444 96.144H106.164V94.908C106.164 94.708 106.216 94.556 106.32 94.452C106.432 94.348 106.584 94.296 106.776 94.296C106.968 94.296 107.116 94.348 107.22 94.452C107.324 94.556 107.376 94.708 107.376 94.908V96.144H108.78C108.94 96.144 109.064 96.184 109.152 96.264C109.24 96.344 109.284 96.46 109.284 96.612C109.284 96.756 109.24 96.872 109.152 96.96C109.064 97.04 108.94 97.08 108.78 97.08H107.376V99.816C107.376 100.24 107.464 100.56 107.64 100.776C107.824 100.992 108.12 101.1 108.528 101.1C108.672 101.1 108.796 101.088 108.9 101.064C109.012 101.032 109.104 101.012 109.176 101.004C109.264 101.004 109.336 101.036 109.392 101.1C109.448 101.156 109.476 101.268 109.476 101.436C109.476 101.556 109.452 101.668 109.404 101.772C109.364 101.876 109.288 101.944 109.176 101.976C109.08 102.008 108.948 102.036 108.78 102.06C108.62 102.092 108.476 102.108 108.348 102.108ZM112.924 102.108C112.284 102.108 111.732 101.988 111.268 101.748C110.812 101.5 110.456 101.152 110.2 100.704C109.952 100.248 109.828 99.708 109.828 99.084C109.828 98.476 109.952 97.944 110.2 97.488C110.448 97.032 110.788 96.676 111.22 96.42C111.652 96.164 112.144 96.036 112.696 96.036C113.104 96.036 113.468 96.104 113.788 96.24C114.108 96.368 114.38 96.56 114.604 96.816C114.836 97.064 115.008 97.368 115.12 97.728C115.24 98.088 115.3 98.492 115.3 98.94C115.3 99.076 115.26 99.18 115.18 99.252C115.1 99.316 114.98 99.348 114.82 99.348H110.788V98.604H114.484L114.28 98.772C114.28 98.372 114.22 98.032 114.1 97.752C113.988 97.472 113.816 97.26 113.584 97.116C113.36 96.964 113.08 96.888 112.744 96.888C112.368 96.888 112.048 96.976 111.784 97.152C111.528 97.328 111.332 97.572 111.196 97.884C111.06 98.196 110.992 98.56 110.992 98.976V99.048C110.992 99.752 111.156 100.284 111.484 100.644C111.82 100.996 112.304 101.172 112.936 101.172C113.176 101.172 113.428 101.14 113.692 101.076C113.964 101.012 114.22 100.904 114.46 100.752C114.596 100.672 114.716 100.636 114.82 100.644C114.932 100.652 115.02 100.688 115.084 100.752C115.156 100.816 115.2 100.896 115.216 100.992C115.232 101.088 115.216 101.188 115.168 101.292C115.12 101.388 115.036 101.476 114.916 101.556C114.644 101.74 114.328 101.88 113.968 101.976C113.608 102.064 113.26 102.108 112.924 102.108ZM118.854 102.108C118.342 102.108 117.89 101.988 117.498 101.748C117.114 101.5 116.814 101.148 116.598 100.692C116.382 100.228 116.274 99.688 116.274 99.072C116.274 98.44 116.382 97.9 116.598 97.452C116.814 97.004 117.114 96.656 117.498 96.408C117.89 96.16 118.342 96.036 118.854 96.036C119.366 96.036 119.806 96.164 120.174 96.42C120.55 96.668 120.802 97.004 120.93 97.428H120.798V94.068C120.798 93.868 120.85 93.716 120.954 93.612C121.058 93.508 121.206 93.456 121.398 93.456C121.59 93.456 121.738 93.508 121.842 93.612C121.954 93.716 122.01 93.868 122.01 94.068V101.472C122.01 101.664 121.958 101.816 121.854 101.928C121.75 102.032 121.602 102.084 121.41 102.084C121.218 102.084 121.07 102.032 120.966 101.928C120.862 101.816 120.81 101.664 120.81 101.472V100.416L120.942 100.68C120.814 101.112 120.562 101.46 120.186 101.724C119.818 101.98 119.374 102.108 118.854 102.108ZM119.166 101.172C119.494 101.172 119.782 101.092 120.03 100.932C120.278 100.772 120.47 100.536 120.606 100.224C120.75 99.912 120.822 99.528 120.822 99.072C120.822 98.384 120.67 97.864 120.366 97.512C120.062 97.16 119.662 96.984 119.166 96.984C118.83 96.984 118.538 97.064 118.29 97.224C118.042 97.376 117.846 97.608 117.702 97.92C117.566 98.232 117.498 98.616 117.498 99.072C117.498 99.752 117.65 100.272 117.954 100.632C118.258 100.992 118.662 101.172 119.166 101.172Z" fill="#76BC21"/>
<rect x="56.5" y="121.5" width="74" height="25" rx="8.5" stroke="url(#paint3_linear_1150_10751)" stroke-opacity="0.25"/>
<path d="M62.572 138.084C62.388 138.084 62.244 138.032 62.14 137.928C62.036 137.824 61.984 137.676 61.984 137.484V130.08C61.984 129.88 62.032 129.728 62.128 129.624C62.232 129.512 62.368 129.456 62.536 129.456C62.68 129.456 62.788 129.484 62.86 129.54C62.94 129.588 63.032 129.68 63.136 129.816L68.08 136.332H67.78V130.044C67.78 129.86 67.828 129.716 67.924 129.612C68.028 129.508 68.172 129.456 68.356 129.456C68.548 129.456 68.692 129.508 68.788 129.612C68.884 129.716 68.932 129.86 68.932 130.044V137.496C68.932 137.68 68.884 137.824 68.788 137.928C68.7 138.032 68.58 138.084 68.428 138.084C68.284 138.084 68.164 138.056 68.068 138C67.98 137.944 67.884 137.848 67.78 137.712L62.86 131.208H63.136V137.484C63.136 137.676 63.088 137.824 62.992 137.928C62.896 138.032 62.756 138.084 62.572 138.084ZM73.314 138.108C72.722 138.108 72.21 137.984 71.778 137.736C71.354 137.488 71.022 137.136 70.782 136.68C70.542 136.224 70.422 135.688 70.422 135.072C70.422 134.6 70.49 134.18 70.626 133.812C70.762 133.444 70.954 133.128 71.202 132.864C71.458 132.592 71.762 132.388 72.114 132.252C72.474 132.108 72.874 132.036 73.314 132.036C73.898 132.036 74.402 132.16 74.826 132.408C75.258 132.656 75.594 133.008 75.834 133.464C76.074 133.912 76.194 134.448 76.194 135.072C76.194 135.536 76.126 135.956 75.99 136.332C75.854 136.708 75.658 137.028 75.402 137.292C75.154 137.556 74.85 137.76 74.49 137.904C74.138 138.04 73.746 138.108 73.314 138.108ZM73.314 137.172C73.642 137.172 73.93 137.092 74.178 136.932C74.426 136.772 74.618 136.536 74.754 136.224C74.898 135.912 74.97 135.528 74.97 135.072C74.97 134.384 74.818 133.864 74.514 133.512C74.21 133.16 73.81 132.984 73.314 132.984C72.978 132.984 72.686 133.064 72.438 133.224C72.19 133.376 71.994 133.608 71.85 133.92C71.714 134.232 71.646 134.616 71.646 135.072C71.646 135.752 71.798 136.272 72.102 136.632C72.406 136.992 72.81 137.172 73.314 137.172ZM79.9925 138.108C79.5125 138.108 79.1085 138.024 78.7805 137.856C78.4525 137.688 78.2085 137.44 78.0485 137.112C77.8885 136.784 77.8085 136.384 77.8085 135.912V133.08H77.0885C76.9285 133.08 76.8045 133.04 76.7165 132.96C76.6285 132.872 76.5845 132.756 76.5845 132.612C76.5845 132.46 76.6285 132.344 76.7165 132.264C76.8045 132.184 76.9285 132.144 77.0885 132.144H77.8085V130.908C77.8085 130.708 77.8605 130.556 77.9645 130.452C78.0765 130.348 78.2285 130.296 78.4205 130.296C78.6125 130.296 78.7605 130.348 78.8645 130.452C78.9685 130.556 79.0205 130.708 79.0205 130.908V132.144H80.4245C80.5845 132.144 80.7085 132.184 80.7965 132.264C80.8845 132.344 80.9285 132.46 80.9285 132.612C80.9285 132.756 80.8845 132.872 80.7965 132.96C80.7085 133.04 80.5845 133.08 80.4245 133.08H79.0205V135.816C79.0205 136.24 79.1085 136.56 79.2845 136.776C79.4685 136.992 79.7645 137.1 80.1725 137.1C80.3165 137.1 80.4405 137.088 80.5445 137.064C80.6565 137.032 80.7485 137.012 80.8205 137.004C80.9085 137.004 80.9805 137.036 81.0365 137.1C81.0925 137.156 81.1205 137.268 81.1205 137.436C81.1205 137.556 81.0965 137.668 81.0485 137.772C81.0085 137.876 80.9325 137.944 80.8205 137.976C80.7245 138.008 80.5925 138.036 80.4245 138.06C80.2645 138.092 80.1205 138.108 79.9925 138.108ZM87.9954 138.108C87.6274 138.108 87.2674 138.08 86.9154 138.024C86.5634 137.968 86.2314 137.884 85.9194 137.772C85.6074 137.652 85.3274 137.508 85.0794 137.34C84.9594 137.252 84.8754 137.152 84.8274 137.04C84.7874 136.928 84.7754 136.82 84.7914 136.716C84.8154 136.604 84.8634 136.508 84.9354 136.428C85.0074 136.348 85.0954 136.3 85.1994 136.284C85.3034 136.26 85.4194 136.292 85.5474 136.38C85.9074 136.612 86.2874 136.784 86.6874 136.896C87.0874 137 87.5234 137.052 87.9954 137.052C88.6754 137.052 89.1754 136.932 89.4954 136.692C89.8234 136.444 89.9874 136.124 89.9874 135.732C89.9874 135.412 89.8714 135.16 89.6394 134.976C89.4074 134.784 89.0194 134.632 88.4754 134.52L87.1914 134.256C86.4314 134.096 85.8634 133.832 85.4874 133.464C85.1194 133.096 84.9354 132.6 84.9354 131.976C84.9354 131.6 85.0114 131.256 85.1634 130.944C85.3234 130.632 85.5434 130.364 85.8234 130.14C86.1034 129.908 86.4394 129.732 86.8314 129.612C87.2234 129.492 87.6514 129.432 88.1154 129.432C88.6114 129.432 89.0754 129.496 89.5074 129.624C89.9474 129.752 90.3394 129.948 90.6834 130.212C90.7874 130.284 90.8554 130.376 90.8874 130.488C90.9274 130.592 90.9354 130.696 90.9114 130.8C90.8954 130.904 90.8514 130.992 90.7794 131.064C90.7074 131.136 90.6154 131.18 90.5034 131.196C90.3914 131.204 90.2674 131.164 90.1314 131.076C89.8194 130.868 89.4994 130.72 89.1714 130.632C88.8514 130.536 88.4954 130.488 88.1034 130.488C87.7114 130.488 87.3674 130.548 87.0714 130.668C86.7834 130.788 86.5594 130.956 86.3994 131.172C86.2474 131.388 86.1714 131.644 86.1714 131.94C86.1714 132.276 86.2794 132.544 86.4954 132.744C86.7114 132.944 87.0714 133.096 87.5754 133.2L88.8474 133.464C89.6474 133.632 90.2434 133.892 90.6354 134.244C91.0274 134.596 91.2234 135.064 91.2234 135.648C91.2234 136.024 91.1474 136.364 90.9954 136.668C90.8434 136.964 90.6274 137.22 90.3474 137.436C90.0674 137.652 89.7274 137.82 89.3274 137.94C88.9354 138.052 88.4914 138.108 87.9954 138.108ZM94.9691 138.108C94.4891 138.108 94.0851 138.024 93.7571 137.856C93.4291 137.688 93.1851 137.44 93.0251 137.112C92.8651 136.784 92.7851 136.384 92.7851 135.912V133.08H92.0651C91.9051 133.08 91.7811 133.04 91.6931 132.96C91.6051 132.872 91.5611 132.756 91.5611 132.612C91.5611 132.46 91.6051 132.344 91.6931 132.264C91.7811 132.184 91.9051 132.144 92.0651 132.144H92.7851V130.908C92.7851 130.708 92.8371 130.556 92.9411 130.452C93.0531 130.348 93.2051 130.296 93.3971 130.296C93.5891 130.296 93.7371 130.348 93.8411 130.452C93.9451 130.556 93.9971 130.708 93.9971 130.908V132.144H95.4011C95.5611 132.144 95.6851 132.184 95.7731 132.264C95.8611 132.344 95.9051 132.46 95.9051 132.612C95.9051 132.756 95.8611 132.872 95.7731 132.96C95.6851 133.04 95.5611 133.08 95.4011 133.08H93.9971V135.816C93.9971 136.24 94.0851 136.56 94.2611 136.776C94.4451 136.992 94.7411 137.1 95.1491 137.1C95.2931 137.1 95.4171 137.088 95.5211 137.064C95.6331 137.032 95.7251 137.012 95.7971 137.004C95.8851 137.004 95.9571 137.036 96.0131 137.1C96.0691 137.156 96.0971 137.268 96.0971 137.436C96.0971 137.556 96.0731 137.668 96.0251 137.772C95.9851 137.876 95.9091 137.944 95.7971 137.976C95.7011 138.008 95.5691 138.036 95.4011 138.06C95.2411 138.092 95.0971 138.108 94.9691 138.108ZM98.7279 138.108C98.3199 138.108 97.9519 138.028 97.6239 137.868C97.3039 137.708 97.0519 137.492 96.8679 137.22C96.6839 136.948 96.5919 136.64 96.5919 136.296C96.5919 135.864 96.6999 135.524 96.9159 135.276C97.1399 135.02 97.5039 134.84 98.0079 134.736C98.5199 134.624 99.2079 134.568 100.072 134.568H100.636V135.312H100.084C99.5079 135.312 99.0519 135.34 98.7159 135.396C98.3799 135.452 98.1399 135.548 97.9959 135.684C97.8599 135.812 97.7919 135.992 97.7919 136.224C97.7919 136.528 97.8959 136.776 98.1039 136.968C98.3119 137.152 98.5999 137.244 98.9679 137.244C99.2639 137.244 99.5239 137.176 99.7479 137.04C99.9719 136.896 100.148 136.704 100.276 136.464C100.412 136.224 100.48 135.948 100.48 135.636V134.256C100.48 133.8 100.384 133.472 100.192 133.272C99.9999 133.072 99.6839 132.972 99.2439 132.972C98.9879 132.972 98.7199 133.004 98.4399 133.068C98.1679 133.132 97.8839 133.24 97.5879 133.392C97.4519 133.456 97.3359 133.476 97.2399 133.452C97.1439 133.428 97.0679 133.376 97.0119 133.296C96.9559 133.208 96.9239 133.116 96.9159 133.02C96.9159 132.916 96.9399 132.816 96.9879 132.72C97.0439 132.624 97.1359 132.552 97.2639 132.504C97.6159 132.336 97.9639 132.216 98.3079 132.144C98.6519 132.072 98.9759 132.036 99.2799 132.036C99.8159 132.036 100.256 132.12 100.6 132.288C100.952 132.456 101.212 132.712 101.38 133.056C101.548 133.4 101.632 133.844 101.632 134.388V137.472C101.632 137.664 101.584 137.816 101.488 137.928C101.392 138.032 101.252 138.084 101.068 138.084C100.892 138.084 100.752 138.032 100.648 137.928C100.544 137.816 100.492 137.664 100.492 137.472V136.692H100.6C100.536 136.988 100.416 137.244 100.24 137.46C100.072 137.668 99.8599 137.828 99.6039 137.94C99.3479 138.052 99.0559 138.108 98.7279 138.108ZM103.913 138.084C103.713 138.084 103.561 138.032 103.457 137.928C103.353 137.816 103.301 137.664 103.301 137.472V132.672C103.301 132.472 103.353 132.32 103.457 132.216C103.561 132.112 103.705 132.06 103.889 132.06C104.081 132.06 104.225 132.112 104.321 132.216C104.425 132.32 104.477 132.472 104.477 132.672V133.548H104.357C104.485 133.068 104.721 132.704 105.065 132.456C105.409 132.208 105.849 132.064 106.385 132.024C106.529 132.016 106.641 132.052 106.721 132.132C106.809 132.212 106.857 132.336 106.865 132.504C106.881 132.672 106.845 132.808 106.757 132.912C106.669 133.008 106.533 133.064 106.349 133.08L106.121 133.104C105.601 133.152 105.205 133.316 104.933 133.596C104.661 133.876 104.525 134.26 104.525 134.748V137.472C104.525 137.664 104.473 137.816 104.369 137.928C104.273 138.032 104.121 138.084 103.913 138.084ZM110.602 138.108C110.122 138.108 109.718 138.024 109.39 137.856C109.062 137.688 108.818 137.44 108.658 137.112C108.498 136.784 108.418 136.384 108.418 135.912V133.08H107.698C107.538 133.08 107.414 133.04 107.326 132.96C107.238 132.872 107.194 132.756 107.194 132.612C107.194 132.46 107.238 132.344 107.326 132.264C107.414 132.184 107.538 132.144 107.698 132.144H108.418V130.908C108.418 130.708 108.47 130.556 108.574 130.452C108.686 130.348 108.838 130.296 109.03 130.296C109.222 130.296 109.37 130.348 109.474 130.452C109.578 130.556 109.63 130.708 109.63 130.908V132.144H111.034C111.194 132.144 111.318 132.184 111.406 132.264C111.494 132.344 111.538 132.46 111.538 132.612C111.538 132.756 111.494 132.872 111.406 132.96C111.318 133.04 111.194 133.08 111.034 133.08H109.63V135.816C109.63 136.24 109.718 136.56 109.894 136.776C110.078 136.992 110.374 137.1 110.782 137.1C110.926 137.1 111.05 137.088 111.154 137.064C111.266 137.032 111.358 137.012 111.43 137.004C111.518 137.004 111.59 137.036 111.646 137.1C111.702 137.156 111.73 137.268 111.73 137.436C111.73 137.556 111.706 137.668 111.658 137.772C111.618 137.876 111.542 137.944 111.43 137.976C111.334 138.008 111.202 138.036 111.034 138.06C110.874 138.092 110.73 138.108 110.602 138.108ZM115.178 138.108C114.538 138.108 113.986 137.988 113.522 137.748C113.066 137.5 112.71 137.152 112.454 136.704C112.206 136.248 112.082 135.708 112.082 135.084C112.082 134.476 112.206 133.944 112.454 133.488C112.702 133.032 113.042 132.676 113.474 132.42C113.906 132.164 114.398 132.036 114.95 132.036C115.358 132.036 115.722 132.104 116.042 132.24C116.362 132.368 116.634 132.56 116.858 132.816C117.09 133.064 117.262 133.368 117.374 133.728C117.494 134.088 117.554 134.492 117.554 134.94C117.554 135.076 117.514 135.18 117.434 135.252C117.354 135.316 117.234 135.348 117.074 135.348H113.042V134.604H116.738L116.534 134.772C116.534 134.372 116.474 134.032 116.354 133.752C116.242 133.472 116.07 133.26 115.838 133.116C115.614 132.964 115.334 132.888 114.998 132.888C114.622 132.888 114.302 132.976 114.038 133.152C113.782 133.328 113.586 133.572 113.45 133.884C113.314 134.196 113.246 134.56 113.246 134.976V135.048C113.246 135.752 113.41 136.284 113.738 136.644C114.074 136.996 114.558 137.172 115.19 137.172C115.43 137.172 115.682 137.14 115.946 137.076C116.218 137.012 116.474 136.904 116.714 136.752C116.85 136.672 116.97 136.636 117.074 136.644C117.186 136.652 117.274 136.688 117.338 136.752C117.41 136.816 117.454 136.896 117.47 136.992C117.486 137.088 117.47 137.188 117.422 137.292C117.374 137.388 117.29 137.476 117.17 137.556C116.898 137.74 116.582 137.88 116.222 137.976C115.862 138.064 115.514 138.108 115.178 138.108ZM121.107 138.108C120.595 138.108 120.143 137.988 119.751 137.748C119.367 137.5 119.067 137.148 118.851 136.692C118.635 136.228 118.527 135.688 118.527 135.072C118.527 134.44 118.635 133.9 118.851 133.452C119.067 133.004 119.367 132.656 119.751 132.408C120.143 132.16 120.595 132.036 121.107 132.036C121.619 132.036 122.059 132.164 122.427 132.42C122.803 132.668 123.055 133.004 123.183 133.428H123.051V130.068C123.051 129.868 123.103 129.716 123.207 129.612C123.311 129.508 123.459 129.456 123.651 129.456C123.843 129.456 123.991 129.508 124.095 129.612C124.207 129.716 124.263 129.868 124.263 130.068V137.472C124.263 137.664 124.211 137.816 124.107 137.928C124.003 138.032 123.855 138.084 123.663 138.084C123.471 138.084 123.323 138.032 123.219 137.928C123.115 137.816 123.063 137.664 123.063 137.472V136.416L123.195 136.68C123.067 137.112 122.815 137.46 122.439 137.724C122.071 137.98 121.627 138.108 121.107 138.108ZM121.419 137.172C121.747 137.172 122.035 137.092 122.283 136.932C122.531 136.772 122.723 136.536 122.859 136.224C123.003 135.912 123.075 135.528 123.075 135.072C123.075 134.384 122.923 133.864 122.619 133.512C122.315 133.16 121.915 132.984 121.419 132.984C121.083 132.984 120.791 133.064 120.543 133.224C120.295 133.376 120.099 133.608 119.955 133.92C119.819 134.232 119.751 134.616 119.751 135.072C119.751 135.752 119.903 136.272 120.207 136.632C120.511 136.992 120.915 137.172 121.419 137.172Z" fill="#178917"/>
<rect x="55.5" y="158.5" width="76.8974" height="24.7318" rx="8.5" stroke="#E8EAEF"/>
<path d="M68.7527 174.974C68.3847 174.974 68.0247 174.946 67.6727 174.89C67.3207 174.834 66.9887 174.75 66.6767 174.638C66.3647 174.518 66.0847 174.374 65.8367 174.206C65.7167 174.118 65.6327 174.018 65.5847 173.906C65.5447 173.794 65.5327 173.686 65.5487 173.582C65.5727 173.47 65.6207 173.374 65.6927 173.294C65.7647 173.214 65.8527 173.166 65.9567 173.15C66.0607 173.126 66.1767 173.158 66.3047 173.246C66.6647 173.478 67.0447 173.65 67.4447 173.762C67.8447 173.866 68.2807 173.918 68.7527 173.918C69.4327 173.918 69.9327 173.798 70.2527 173.558C70.5807 173.31 70.7447 172.99 70.7447 172.598C70.7447 172.278 70.6287 172.026 70.3967 171.842C70.1647 171.65 69.7767 171.498 69.2327 171.386L67.9487 171.122C67.1887 170.962 66.6207 170.698 66.2447 170.33C65.8767 169.962 65.6927 169.466 65.6927 168.842C65.6927 168.466 65.7687 168.122 65.9207 167.81C66.0807 167.498 66.3007 167.23 66.5807 167.006C66.8607 166.774 67.1967 166.598 67.5887 166.478C67.9807 166.358 68.4087 166.298 68.8727 166.298C69.3687 166.298 69.8327 166.362 70.2647 166.49C70.7047 166.618 71.0967 166.814 71.4407 167.078C71.5447 167.15 71.6127 167.242 71.6447 167.354C71.6847 167.458 71.6927 167.562 71.6687 167.666C71.6527 167.77 71.6087 167.858 71.5367 167.93C71.4647 168.002 71.3727 168.046 71.2607 168.062C71.1487 168.07 71.0247 168.03 70.8887 167.942C70.5767 167.734 70.2567 167.586 69.9287 167.498C69.6087 167.402 69.2527 167.354 68.8607 167.354C68.4687 167.354 68.1247 167.414 67.8287 167.534C67.5407 167.654 67.3167 167.822 67.1567 168.038C67.0047 168.254 66.9287 168.51 66.9287 168.806C66.9287 169.142 67.0367 169.41 67.2527 169.61C67.4687 169.81 67.8287 169.962 68.3327 170.066L69.6047 170.33C70.4047 170.498 71.0007 170.758 71.3927 171.11C71.7847 171.462 71.9807 171.93 71.9807 172.514C71.9807 172.89 71.9047 173.23 71.7527 173.534C71.6007 173.83 71.3847 174.086 71.1047 174.302C70.8247 174.518 70.4847 174.686 70.0847 174.806C69.6927 174.918 69.2487 174.974 68.7527 174.974ZM75.8456 174.974C75.2456 174.974 74.7256 174.85 74.2856 174.602C73.8536 174.346 73.5176 173.99 73.2776 173.534C73.0376 173.07 72.9176 172.526 72.9176 171.902C72.9176 171.438 72.9856 171.022 73.1216 170.654C73.2576 170.278 73.4496 169.962 73.6976 169.706C73.9536 169.45 74.2616 169.254 74.6216 169.118C74.9896 168.974 75.3976 168.902 75.8456 168.902C76.1256 168.902 76.4176 168.946 76.7216 169.034C77.0336 169.114 77.3216 169.25 77.5856 169.442C77.6896 169.506 77.7536 169.586 77.7776 169.682C77.8096 169.77 77.8136 169.862 77.7896 169.958C77.7736 170.054 77.7296 170.138 77.6576 170.21C77.5936 170.274 77.5136 170.314 77.4176 170.33C77.3216 170.338 77.2176 170.31 77.1056 170.246C76.9136 170.11 76.7176 170.014 76.5176 169.958C76.3176 169.894 76.1256 169.862 75.9416 169.862C75.6536 169.862 75.3976 169.91 75.1736 170.006C74.9576 170.094 74.7736 170.226 74.6216 170.402C74.4696 170.57 74.3536 170.782 74.2736 171.038C74.2016 171.294 74.1656 171.586 74.1656 171.914C74.1656 172.57 74.3176 173.086 74.6216 173.462C74.9336 173.83 75.3736 174.014 75.9416 174.014C76.1256 174.014 76.3176 173.986 76.5176 173.93C76.7176 173.874 76.9136 173.778 77.1056 173.642C77.2176 173.578 77.3216 173.554 77.4176 173.57C77.5136 173.586 77.5896 173.63 77.6456 173.702C77.7096 173.766 77.7496 173.846 77.7656 173.942C77.7896 174.03 77.7856 174.122 77.7536 174.218C77.7216 174.314 77.6536 174.394 77.5496 174.458C77.2936 174.642 77.0136 174.774 76.7096 174.854C76.4136 174.934 76.1256 174.974 75.8456 174.974ZM79.4671 174.95C79.2751 174.95 79.1271 174.898 79.0231 174.794C78.9191 174.682 78.8671 174.53 78.8671 174.338V166.934C78.8671 166.734 78.9191 166.582 79.0231 166.478C79.1271 166.374 79.2751 166.322 79.4671 166.322C79.6591 166.322 79.8071 166.374 79.9111 166.478C80.0231 166.582 80.0791 166.734 80.0791 166.934V170.258H79.9111C80.0871 169.81 80.3631 169.474 80.7391 169.25C81.1151 169.018 81.5471 168.902 82.0351 168.902C82.4991 168.902 82.8831 168.99 83.1871 169.166C83.4991 169.334 83.7311 169.594 83.8831 169.946C84.0351 170.29 84.1111 170.726 84.1111 171.254V174.338C84.1111 174.53 84.0591 174.682 83.9551 174.794C83.8511 174.898 83.7031 174.95 83.5111 174.95C83.3111 174.95 83.1591 174.898 83.0551 174.794C82.9511 174.682 82.8991 174.53 82.8991 174.338V171.326C82.8991 170.822 82.7991 170.454 82.5991 170.222C82.4071 169.99 82.1031 169.874 81.6871 169.874C81.1991 169.874 80.8071 170.026 80.5111 170.33C80.2231 170.634 80.0791 171.042 80.0791 171.554V174.338C80.0791 174.746 79.8751 174.95 79.4671 174.95ZM88.5292 174.974C87.8892 174.974 87.3372 174.854 86.8732 174.614C86.4172 174.366 86.0612 174.018 85.8052 173.57C85.5572 173.114 85.4332 172.574 85.4332 171.95C85.4332 171.342 85.5572 170.81 85.8052 170.354C86.0532 169.898 86.3932 169.542 86.8252 169.286C87.2572 169.03 87.7492 168.902 88.3012 168.902C88.7092 168.902 89.0732 168.97 89.3932 169.106C89.7132 169.234 89.9852 169.426 90.2092 169.682C90.4412 169.93 90.6132 170.234 90.7252 170.594C90.8452 170.954 90.9052 171.358 90.9052 171.806C90.9052 171.942 90.8652 172.046 90.7852 172.118C90.7052 172.182 90.5852 172.214 90.4252 172.214H86.3932V171.47H90.0892L89.8852 171.638C89.8852 171.238 89.8252 170.898 89.7052 170.618C89.5932 170.338 89.4212 170.126 89.1892 169.982C88.9652 169.83 88.6852 169.754 88.3492 169.754C87.9732 169.754 87.6532 169.842 87.3892 170.018C87.1332 170.194 86.9372 170.438 86.8012 170.75C86.6652 171.062 86.5972 171.426 86.5972 171.842V171.914C86.5972 172.618 86.7612 173.15 87.0892 173.51C87.4252 173.862 87.9092 174.038 88.5412 174.038C88.7812 174.038 89.0332 174.006 89.2972 173.942C89.5692 173.878 89.8252 173.77 90.0652 173.618C90.2012 173.538 90.3212 173.502 90.4252 173.51C90.5372 173.518 90.6252 173.554 90.6892 173.618C90.7612 173.682 90.8052 173.762 90.8212 173.858C90.8372 173.954 90.8212 174.054 90.7732 174.158C90.7252 174.254 90.6412 174.342 90.5212 174.422C90.2492 174.606 89.9332 174.746 89.5732 174.842C89.2132 174.93 88.8652 174.974 88.5292 174.974ZM94.4585 174.974C93.9465 174.974 93.4945 174.854 93.1025 174.614C92.7185 174.366 92.4185 174.014 92.2025 173.558C91.9865 173.094 91.8785 172.554 91.8785 171.938C91.8785 171.306 91.9865 170.766 92.2025 170.318C92.4185 169.87 92.7185 169.522 93.1025 169.274C93.4945 169.026 93.9465 168.902 94.4585 168.902C94.9705 168.902 95.4105 169.03 95.7785 169.286C96.1545 169.534 96.4065 169.87 96.5345 170.294H96.4025V166.934C96.4025 166.734 96.4545 166.582 96.5585 166.478C96.6625 166.374 96.8105 166.322 97.0025 166.322C97.1945 166.322 97.3425 166.374 97.4465 166.478C97.5585 166.582 97.6145 166.734 97.6145 166.934V174.338C97.6145 174.53 97.5625 174.682 97.4585 174.794C97.3545 174.898 97.2065 174.95 97.0145 174.95C96.8225 174.95 96.6745 174.898 96.5705 174.794C96.4665 174.682 96.4145 174.53 96.4145 174.338V173.282L96.5465 173.546C96.4185 173.978 96.1665 174.326 95.7905 174.59C95.4225 174.846 94.9785 174.974 94.4585 174.974ZM94.7705 174.038C95.0985 174.038 95.3865 173.958 95.6345 173.798C95.8825 173.638 96.0745 173.402 96.2105 173.09C96.3545 172.778 96.4265 172.394 96.4265 171.938C96.4265 171.25 96.2745 170.73 95.9705 170.378C95.6665 170.026 95.2665 169.85 94.7705 169.85C94.4345 169.85 94.1425 169.93 93.8945 170.09C93.6465 170.242 93.4505 170.474 93.3065 170.786C93.1705 171.098 93.1025 171.482 93.1025 171.938C93.1025 172.618 93.2545 173.138 93.5585 173.498C93.8625 173.858 94.2665 174.038 94.7705 174.038ZM101.404 174.974C100.932 174.974 100.536 174.886 100.216 174.71C99.9044 174.534 99.6684 174.274 99.5084 173.93C99.3564 173.578 99.2804 173.138 99.2804 172.61V169.538C99.2804 169.33 99.3324 169.178 99.4364 169.082C99.5404 168.978 99.6884 168.926 99.8804 168.926C100.072 168.926 100.22 168.978 100.324 169.082C100.436 169.178 100.492 169.33 100.492 169.538V172.622C100.492 173.094 100.588 173.442 100.78 173.666C100.972 173.89 101.276 174.002 101.692 174.002C102.148 174.002 102.516 173.85 102.796 173.546C103.084 173.234 103.228 172.826 103.228 172.322V169.538C103.228 169.33 103.28 169.178 103.384 169.082C103.488 168.978 103.64 168.926 103.84 168.926C104.032 168.926 104.18 168.978 104.284 169.082C104.388 169.178 104.44 169.33 104.44 169.538V174.338C104.44 174.746 104.244 174.95 103.852 174.95C103.668 174.95 103.524 174.898 103.42 174.794C103.316 174.682 103.264 174.53 103.264 174.338V173.318L103.42 173.582C103.26 174.03 103.004 174.374 102.652 174.614C102.3 174.854 101.884 174.974 101.404 174.974ZM108.032 174.974C107.408 174.974 106.936 174.794 106.616 174.434C106.304 174.066 106.148 173.538 106.148 172.85V166.934C106.148 166.734 106.2 166.582 106.304 166.478C106.408 166.374 106.556 166.322 106.748 166.322C106.94 166.322 107.088 166.374 107.192 166.478C107.304 166.582 107.36 166.734 107.36 166.934V172.778C107.36 173.178 107.44 173.478 107.6 173.678C107.768 173.87 108.008 173.966 108.32 173.966C108.392 173.966 108.456 173.966 108.512 173.966C108.568 173.958 108.624 173.95 108.68 173.942C108.776 173.934 108.844 173.962 108.884 174.026C108.924 174.082 108.944 174.202 108.944 174.386C108.944 174.554 108.908 174.686 108.836 174.782C108.764 174.87 108.648 174.926 108.488 174.95C108.416 174.958 108.34 174.962 108.26 174.962C108.18 174.97 108.104 174.974 108.032 174.974ZM112.506 174.974C111.866 174.974 111.314 174.854 110.85 174.614C110.394 174.366 110.038 174.018 109.782 173.57C109.534 173.114 109.41 172.574 109.41 171.95C109.41 171.342 109.534 170.81 109.782 170.354C110.03 169.898 110.37 169.542 110.802 169.286C111.234 169.03 111.726 168.902 112.278 168.902C112.686 168.902 113.05 168.97 113.37 169.106C113.69 169.234 113.962 169.426 114.186 169.682C114.418 169.93 114.59 170.234 114.702 170.594C114.822 170.954 114.882 171.358 114.882 171.806C114.882 171.942 114.842 172.046 114.762 172.118C114.682 172.182 114.562 172.214 114.402 172.214H110.37V171.47H114.066L113.862 171.638C113.862 171.238 113.802 170.898 113.682 170.618C113.57 170.338 113.398 170.126 113.166 169.982C112.942 169.83 112.662 169.754 112.326 169.754C111.95 169.754 111.63 169.842 111.366 170.018C111.11 170.194 110.914 170.438 110.778 170.75C110.642 171.062 110.574 171.426 110.574 171.842V171.914C110.574 172.618 110.738 173.15 111.066 173.51C111.402 173.862 111.886 174.038 112.518 174.038C112.758 174.038 113.01 174.006 113.274 173.942C113.546 173.878 113.802 173.77 114.042 173.618C114.178 173.538 114.298 173.502 114.402 173.51C114.514 173.518 114.602 173.554 114.666 173.618C114.738 173.682 114.782 173.762 114.798 173.858C114.814 173.954 114.798 174.054 114.75 174.158C114.702 174.254 114.618 174.342 114.498 174.422C114.226 174.606 113.91 174.746 113.55 174.842C113.19 174.93 112.842 174.974 112.506 174.974ZM118.435 174.974C117.923 174.974 117.471 174.854 117.079 174.614C116.695 174.366 116.395 174.014 116.179 173.558C115.963 173.094 115.855 172.554 115.855 171.938C115.855 171.306 115.963 170.766 116.179 170.318C116.395 169.87 116.695 169.522 117.079 169.274C117.471 169.026 117.923 168.902 118.435 168.902C118.947 168.902 119.387 169.03 119.755 169.286C120.131 169.534 120.383 169.87 120.511 170.294H120.379V166.934C120.379 166.734 120.431 166.582 120.535 166.478C120.639 166.374 120.787 166.322 120.979 166.322C121.171 166.322 121.319 166.374 121.423 166.478C121.535 166.582 121.591 166.734 121.591 166.934V174.338C121.591 174.53 121.539 174.682 121.435 174.794C121.331 174.898 121.183 174.95 120.991 174.95C120.799 174.95 120.651 174.898 120.547 174.794C120.443 174.682 120.391 174.53 120.391 174.338V173.282L120.523 173.546C120.395 173.978 120.143 174.326 119.767 174.59C119.399 174.846 118.955 174.974 118.435 174.974ZM118.747 174.038C119.075 174.038 119.363 173.958 119.611 173.798C119.859 173.638 120.051 173.402 120.187 173.09C120.331 172.778 120.403 172.394 120.403 171.938C120.403 171.25 120.251 170.73 119.947 170.378C119.643 170.026 119.243 169.85 118.747 169.85C118.411 169.85 118.119 169.93 117.871 170.09C117.623 170.242 117.427 170.474 117.283 170.786C117.147 171.098 117.079 171.482 117.079 171.938C117.079 172.618 117.231 173.138 117.535 173.498C117.839 173.858 118.243 174.038 118.747 174.038Z" fill="#64728C"/>
<rect x="39.5" y="194.5" width="108" height="25" rx="8.5" stroke="url(#paint4_linear_1150_10751)" stroke-opacity="0.25"/>
<path d="M45.608 211.084C45.408 211.084 45.252 211.028 45.14 210.916C45.036 210.804 44.984 210.648 44.984 210.448V203.176C44.984 202.968 45.04 202.812 45.152 202.708C45.264 202.596 45.42 202.54 45.62 202.54H48.488C49.4 202.54 50.104 202.768 50.6 203.224C51.096 203.672 51.344 204.304 51.344 205.12C51.344 205.944 51.096 206.584 50.6 207.04C50.104 207.488 49.4 207.712 48.488 207.712H46.232V210.448C46.232 210.648 46.18 210.804 46.076 210.916C45.972 211.028 45.816 211.084 45.608 211.084ZM46.232 206.716H48.308C48.908 206.716 49.36 206.584 49.664 206.32C49.976 206.048 50.132 205.648 50.132 205.12C50.132 204.6 49.976 204.208 49.664 203.944C49.36 203.672 48.908 203.536 48.308 203.536H46.232V206.716ZM55.018 211.108C54.378 211.108 53.826 210.988 53.362 210.748C52.906 210.5 52.55 210.152 52.294 209.704C52.046 209.248 51.922 208.708 51.922 208.084C51.922 207.476 52.046 206.944 52.294 206.488C52.542 206.032 52.882 205.676 53.314 205.42C53.746 205.164 54.238 205.036 54.79 205.036C55.198 205.036 55.562 205.104 55.882 205.24C56.202 205.368 56.474 205.56 56.698 205.816C56.93 206.064 57.102 206.368 57.214 206.728C57.334 207.088 57.394 207.492 57.394 207.94C57.394 208.076 57.354 208.18 57.274 208.252C57.194 208.316 57.074 208.348 56.914 208.348H52.882V207.604H56.578L56.374 207.772C56.374 207.372 56.314 207.032 56.194 206.752C56.082 206.472 55.91 206.26 55.678 206.116C55.454 205.964 55.174 205.888 54.838 205.888C54.462 205.888 54.142 205.976 53.878 206.152C53.622 206.328 53.426 206.572 53.29 206.884C53.154 207.196 53.086 207.56 53.086 207.976V208.048C53.086 208.752 53.25 209.284 53.578 209.644C53.914 209.996 54.398 210.172 55.03 210.172C55.27 210.172 55.522 210.14 55.786 210.076C56.058 210.012 56.314 209.904 56.554 209.752C56.69 209.672 56.81 209.636 56.914 209.644C57.026 209.652 57.114 209.688 57.178 209.752C57.25 209.816 57.294 209.896 57.31 209.992C57.326 210.088 57.31 210.188 57.262 210.292C57.214 210.388 57.13 210.476 57.01 210.556C56.738 210.74 56.422 210.88 56.062 210.976C55.702 211.064 55.354 211.108 55.018 211.108ZM59.3153 211.084C59.1233 211.084 58.9753 211.032 58.8713 210.928C58.7673 210.816 58.7153 210.664 58.7153 210.472V205.672C58.7153 205.472 58.7673 205.32 58.8713 205.216C58.9753 205.112 59.1193 205.06 59.3033 205.06C59.4953 205.06 59.6393 205.112 59.7353 205.216C59.8393 205.32 59.8913 205.472 59.8913 205.672V206.608L59.7593 206.392C59.9353 205.944 60.2113 205.608 60.5873 205.384C60.9633 205.152 61.3953 205.036 61.8833 205.036C62.3473 205.036 62.7313 205.124 63.0353 205.3C63.3473 205.468 63.5793 205.728 63.7313 206.08C63.8833 206.424 63.9593 206.86 63.9593 207.388V210.472C63.9593 210.664 63.9073 210.816 63.8033 210.928C63.6993 211.032 63.5513 211.084 63.3593 211.084C63.1593 211.084 63.0073 211.032 62.9033 210.928C62.7993 210.816 62.7473 210.664 62.7473 210.472V207.46C62.7473 206.956 62.6473 206.588 62.4473 206.356C62.2553 206.124 61.9513 206.008 61.5353 206.008C61.0473 206.008 60.6553 206.16 60.3593 206.464C60.0713 206.768 59.9273 207.176 59.9273 207.688V210.472C59.9273 210.88 59.7233 211.084 59.3153 211.084ZM67.8613 211.108C67.3493 211.108 66.8973 210.988 66.5053 210.748C66.1213 210.5 65.8213 210.148 65.6053 209.692C65.3893 209.228 65.2813 208.688 65.2813 208.072C65.2813 207.44 65.3893 206.9 65.6053 206.452C65.8213 206.004 66.1213 205.656 66.5053 205.408C66.8973 205.16 67.3493 205.036 67.8613 205.036C68.3733 205.036 68.8133 205.164 69.1813 205.42C69.5573 205.668 69.8093 206.004 69.9373 206.428H69.8053V203.068C69.8053 202.868 69.8573 202.716 69.9613 202.612C70.0653 202.508 70.2133 202.456 70.4053 202.456C70.5973 202.456 70.7453 202.508 70.8493 202.612C70.9613 202.716 71.0173 202.868 71.0173 203.068V210.472C71.0173 210.664 70.9653 210.816 70.8613 210.928C70.7573 211.032 70.6093 211.084 70.4173 211.084C70.2253 211.084 70.0773 211.032 69.9733 210.928C69.8693 210.816 69.8173 210.664 69.8173 210.472V209.416L69.9493 209.68C69.8213 210.112 69.5693 210.46 69.1933 210.724C68.8253 210.98 68.3813 211.108 67.8613 211.108ZM68.1733 210.172C68.5013 210.172 68.7893 210.092 69.0373 209.932C69.2853 209.772 69.4773 209.536 69.6133 209.224C69.7573 208.912 69.8293 208.528 69.8293 208.072C69.8293 207.384 69.6773 206.864 69.3733 206.512C69.0693 206.16 68.6693 205.984 68.1733 205.984C67.8373 205.984 67.5453 206.064 67.2973 206.224C67.0493 206.376 66.8533 206.608 66.7093 206.92C66.5733 207.232 66.5053 207.616 66.5053 208.072C66.5053 208.752 66.6573 209.272 66.9613 209.632C67.2653 209.992 67.6693 210.172 68.1733 210.172ZM73.3192 211.072C73.1272 211.072 72.9792 211.016 72.8752 210.904C72.7712 210.784 72.7192 210.62 72.7192 210.412V205.732C72.7192 205.524 72.7712 205.364 72.8752 205.252C72.9792 205.14 73.1272 205.084 73.3192 205.084C73.5112 205.084 73.6592 205.14 73.7632 205.252C73.8752 205.364 73.9312 205.524 73.9312 205.732V210.412C73.9312 210.62 73.8792 210.784 73.7752 210.904C73.6712 211.016 73.5192 211.072 73.3192 211.072ZM73.3192 203.836C73.0792 203.836 72.8912 203.776 72.7552 203.656C72.6272 203.536 72.5632 203.368 72.5632 203.152C72.5632 202.928 72.6272 202.76 72.7552 202.648C72.8912 202.528 73.0792 202.468 73.3192 202.468C73.5592 202.468 73.7432 202.528 73.8712 202.648C74.0072 202.76 74.0752 202.928 74.0752 203.152C74.0752 203.368 74.0072 203.536 73.8712 203.656C73.7432 203.776 73.5592 203.836 73.3192 203.836ZM76.2372 211.084C76.0452 211.084 75.8972 211.032 75.7932 210.928C75.6892 210.816 75.6372 210.664 75.6372 210.472V205.672C75.6372 205.472 75.6892 205.32 75.7932 205.216C75.8972 205.112 76.0412 205.06 76.2252 205.06C76.4172 205.06 76.5612 205.112 76.6572 205.216C76.7612 205.32 76.8132 205.472 76.8132 205.672V206.608L76.6812 206.392C76.8572 205.944 77.1332 205.608 77.5092 205.384C77.8852 205.152 78.3172 205.036 78.8052 205.036C79.2692 205.036 79.6532 205.124 79.9572 205.3C80.2692 205.468 80.5012 205.728 80.6532 206.08C80.8052 206.424 80.8812 206.86 80.8812 207.388V210.472C80.8812 210.664 80.8292 210.816 80.7252 210.928C80.6212 211.032 80.4732 211.084 80.2812 211.084C80.0812 211.084 79.9292 211.032 79.8252 210.928C79.7212 210.816 79.6692 210.664 79.6692 210.472V207.46C79.6692 206.956 79.5692 206.588 79.3692 206.356C79.1772 206.124 78.8732 206.008 78.4572 206.008C77.9692 206.008 77.5772 206.16 77.2812 206.464C76.9932 206.768 76.8492 207.176 76.8492 207.688V210.472C76.8492 210.88 76.6452 211.084 76.2372 211.084ZM85.2032 213.268C84.7712 213.268 84.3512 213.224 83.9432 213.136C83.5432 213.048 83.1792 212.904 82.8512 212.704C82.7312 212.64 82.6512 212.56 82.6112 212.464C82.5712 212.376 82.5592 212.284 82.5752 212.188C82.5992 212.092 82.6432 212.008 82.7072 211.936C82.7712 211.864 82.8472 211.816 82.9352 211.792C83.0312 211.768 83.1312 211.784 83.2352 211.84C83.5872 212.032 83.9192 212.16 84.2312 212.224C84.5512 212.296 84.8472 212.332 85.1192 212.332C85.6792 212.332 86.0992 212.188 86.3792 211.9C86.6592 211.62 86.7992 211.204 86.7992 210.652V209.428H86.9072C86.7872 209.868 86.5352 210.216 86.1512 210.472C85.7672 210.728 85.3232 210.856 84.8192 210.856C84.2912 210.856 83.8312 210.736 83.4392 210.496C83.0472 210.248 82.7432 209.908 82.5272 209.476C82.3112 209.036 82.2032 208.524 82.2032 207.94C82.2032 207.5 82.2632 207.104 82.3832 206.752C82.5112 206.4 82.6872 206.096 82.9112 205.84C83.1432 205.584 83.4192 205.388 83.7392 205.252C84.0672 205.108 84.4272 205.036 84.8192 205.036C85.3312 205.036 85.7752 205.164 86.1512 205.42C86.5352 205.676 86.7832 206.024 86.8952 206.464L86.7752 206.668V205.672C86.7752 205.472 86.8272 205.32 86.9312 205.216C87.0432 205.112 87.1912 205.06 87.3752 205.06C87.5672 205.06 87.7152 205.112 87.8192 205.216C87.9232 205.32 87.9752 205.472 87.9752 205.672V210.508C87.9752 211.42 87.7392 212.108 87.2672 212.572C86.7952 213.036 86.1072 213.268 85.2032 213.268ZM85.1072 209.908C85.4592 209.908 85.7592 209.828 86.0072 209.668C86.2552 209.508 86.4472 209.28 86.5832 208.984C86.7192 208.688 86.7872 208.34 86.7872 207.94C86.7872 207.34 86.6352 206.864 86.3312 206.512C86.0352 206.16 85.6272 205.984 85.1072 205.984C84.7632 205.984 84.4672 206.064 84.2192 206.224C83.9712 206.384 83.7752 206.612 83.6312 206.908C83.4952 207.196 83.4272 207.54 83.4272 207.94C83.4272 208.548 83.5792 209.028 83.8832 209.38C84.1872 209.732 84.5952 209.908 85.1072 209.908ZM92.9243 211.084C92.7643 211.084 92.6363 211.048 92.5403 210.976C92.4443 210.904 92.3883 210.808 92.3723 210.688C92.3563 210.568 92.3803 210.432 92.4443 210.28L95.6963 202.984C95.7763 202.792 95.8763 202.656 95.9963 202.576C96.1243 202.496 96.2643 202.456 96.4163 202.456C96.5603 202.456 96.6923 202.496 96.8123 202.576C96.9403 202.656 97.0443 202.792 97.1243 202.984L100.376 210.28C100.448 210.432 100.476 210.572 100.46 210.7C100.444 210.82 100.392 210.916 100.304 210.988C100.216 211.052 100.092 211.084 99.9323 211.084C99.7563 211.084 99.6163 211.04 99.5123 210.952C99.4083 210.864 99.3163 210.728 99.2363 210.544L98.3963 208.6L98.9603 208.936H93.8483L94.4003 208.6L93.5723 210.544C93.4923 210.736 93.4043 210.876 93.3083 210.964C93.2123 211.044 93.0843 211.084 92.9243 211.084ZM96.3923 203.92L94.5803 208.216L94.2803 207.928H98.5163L98.2403 208.216L96.4163 203.92H96.3923ZM102.276 213.244C102.084 213.244 101.936 213.192 101.832 213.088C101.728 212.984 101.676 212.832 101.676 212.632V205.672C101.676 205.472 101.728 205.32 101.832 205.216C101.936 205.112 102.08 205.06 102.264 205.06C102.456 205.06 102.604 205.112 102.708 205.216C102.812 205.32 102.864 205.472 102.864 205.672V206.716L102.732 206.464C102.86 206.032 103.112 205.688 103.488 205.432C103.864 205.168 104.308 205.036 104.82 205.036C105.34 205.036 105.792 205.16 106.176 205.408C106.568 205.656 106.868 206.004 107.076 206.452C107.292 206.9 107.4 207.44 107.4 208.072C107.4 208.688 107.292 209.228 107.076 209.692C106.868 210.148 106.572 210.5 106.188 210.748C105.804 210.988 105.348 211.108 104.82 211.108C104.316 211.108 103.876 210.98 103.5 210.724C103.124 210.468 102.872 210.128 102.744 209.704H102.888V212.632C102.888 212.832 102.832 212.984 102.72 213.088C102.616 213.192 102.468 213.244 102.276 213.244ZM104.52 210.172C104.856 210.172 105.148 210.092 105.396 209.932C105.644 209.772 105.836 209.536 105.972 209.224C106.108 208.912 106.176 208.528 106.176 208.072C106.176 207.384 106.024 206.864 105.72 206.512C105.424 206.16 105.024 205.984 104.52 205.984C104.192 205.984 103.9 206.064 103.644 206.224C103.396 206.376 103.204 206.608 103.068 206.92C102.932 207.232 102.864 207.616 102.864 208.072C102.864 208.752 103.016 209.272 103.32 209.632C103.624 209.992 104.024 210.172 104.52 210.172ZM109.366 213.244C109.174 213.244 109.026 213.192 108.922 213.088C108.818 212.984 108.766 212.832 108.766 212.632V205.672C108.766 205.472 108.818 205.32 108.922 205.216C109.026 205.112 109.17 205.06 109.354 205.06C109.546 205.06 109.694 205.112 109.798 205.216C109.902 205.32 109.954 205.472 109.954 205.672V206.716L109.822 206.464C109.95 206.032 110.202 205.688 110.578 205.432C110.954 205.168 111.398 205.036 111.91 205.036C112.43 205.036 112.882 205.16 113.266 205.408C113.658 205.656 113.958 206.004 114.166 206.452C114.382 206.9 114.49 207.44 114.49 208.072C114.49 208.688 114.382 209.228 114.166 209.692C113.958 210.148 113.662 210.5 113.278 210.748C112.894 210.988 112.438 211.108 111.91 211.108C111.406 211.108 110.966 210.98 110.59 210.724C110.214 210.468 109.962 210.128 109.834 209.704H109.978V212.632C109.978 212.832 109.922 212.984 109.81 213.088C109.706 213.192 109.558 213.244 109.366 213.244ZM111.61 210.172C111.946 210.172 112.238 210.092 112.486 209.932C112.734 209.772 112.926 209.536 113.062 209.224C113.198 208.912 113.266 208.528 113.266 208.072C113.266 207.384 113.114 206.864 112.81 206.512C112.514 206.16 112.114 205.984 111.61 205.984C111.282 205.984 110.99 206.064 110.734 206.224C110.486 206.376 110.294 206.608 110.158 206.92C110.022 207.232 109.954 207.616 109.954 208.072C109.954 208.752 110.106 209.272 110.41 209.632C110.714 209.992 111.114 210.172 111.61 210.172ZM116.468 211.084C116.268 211.084 116.116 211.032 116.012 210.928C115.908 210.816 115.856 210.664 115.856 210.472V205.672C115.856 205.472 115.908 205.32 116.012 205.216C116.116 205.112 116.26 205.06 116.444 205.06C116.636 205.06 116.78 205.112 116.876 205.216C116.98 205.32 117.032 205.472 117.032 205.672V206.548H116.912C117.04 206.068 117.276 205.704 117.62 205.456C117.964 205.208 118.404 205.064 118.94 205.024C119.084 205.016 119.196 205.052 119.276 205.132C119.364 205.212 119.412 205.336 119.42 205.504C119.436 205.672 119.4 205.808 119.312 205.912C119.224 206.008 119.088 206.064 118.904 206.08L118.676 206.104C118.156 206.152 117.76 206.316 117.488 206.596C117.216 206.876 117.08 207.26 117.08 207.748V210.472C117.08 210.664 117.028 210.816 116.924 210.928C116.828 211.032 116.676 211.084 116.468 211.084ZM122.794 211.108C122.202 211.108 121.69 210.984 121.258 210.736C120.834 210.488 120.502 210.136 120.262 209.68C120.022 209.224 119.902 208.688 119.902 208.072C119.902 207.6 119.97 207.18 120.106 206.812C120.242 206.444 120.434 206.128 120.682 205.864C120.938 205.592 121.242 205.388 121.594 205.252C121.954 205.108 122.354 205.036 122.794 205.036C123.378 205.036 123.882 205.16 124.306 205.408C124.738 205.656 125.074 206.008 125.314 206.464C125.554 206.912 125.674 207.448 125.674 208.072C125.674 208.536 125.606 208.956 125.47 209.332C125.334 209.708 125.138 210.028 124.882 210.292C124.634 210.556 124.33 210.76 123.97 210.904C123.618 211.04 123.226 211.108 122.794 211.108ZM122.794 210.172C123.122 210.172 123.41 210.092 123.658 209.932C123.906 209.772 124.098 209.536 124.234 209.224C124.378 208.912 124.45 208.528 124.45 208.072C124.45 207.384 124.298 206.864 123.994 206.512C123.69 206.16 123.29 205.984 122.794 205.984C122.458 205.984 122.166 206.064 121.918 206.224C121.67 206.376 121.474 206.608 121.33 206.92C121.194 207.232 121.126 207.616 121.126 208.072C121.126 208.752 121.278 209.272 121.582 209.632C121.886 209.992 122.29 210.172 122.794 210.172ZM129.198 211.084C129.03 211.084 128.882 211.04 128.754 210.952C128.634 210.864 128.534 210.728 128.454 210.544L126.45 205.888C126.386 205.744 126.362 205.608 126.378 205.48C126.394 205.352 126.454 205.252 126.558 205.18C126.662 205.1 126.802 205.06 126.978 205.06C127.13 205.06 127.25 205.096 127.338 205.168C127.426 205.24 127.506 205.364 127.578 205.54L129.39 210.004H129.054L130.902 205.54C130.974 205.364 131.054 205.24 131.142 205.168C131.238 205.096 131.37 205.06 131.538 205.06C131.682 205.06 131.794 205.1 131.874 205.18C131.962 205.252 132.014 205.352 132.03 205.48C132.054 205.6 132.034 205.732 131.97 205.876L129.942 210.544C129.87 210.728 129.77 210.864 129.642 210.952C129.514 211.04 129.366 211.084 129.198 211.084ZM134.919 211.108C134.511 211.108 134.143 211.028 133.815 210.868C133.495 210.708 133.243 210.492 133.059 210.22C132.875 209.948 132.783 209.64 132.783 209.296C132.783 208.864 132.891 208.524 133.107 208.276C133.331 208.02 133.695 207.84 134.199 207.736C134.711 207.624 135.399 207.568 136.263 207.568H136.827V208.312H136.275C135.699 208.312 135.243 208.34 134.907 208.396C134.571 208.452 134.331 208.548 134.187 208.684C134.051 208.812 133.983 208.992 133.983 209.224C133.983 209.528 134.087 209.776 134.295 209.968C134.503 210.152 134.791 210.244 135.159 210.244C135.455 210.244 135.715 210.176 135.939 210.04C136.163 209.896 136.339 209.704 136.467 209.464C136.603 209.224 136.671 208.948 136.671 208.636V207.256C136.671 206.8 136.575 206.472 136.383 206.272C136.191 206.072 135.875 205.972 135.435 205.972C135.179 205.972 134.911 206.004 134.631 206.068C134.359 206.132 134.075 206.24 133.779 206.392C133.643 206.456 133.527 206.476 133.431 206.452C133.335 206.428 133.259 206.376 133.203 206.296C133.147 206.208 133.115 206.116 133.107 206.02C133.107 205.916 133.131 205.816 133.179 205.72C133.235 205.624 133.327 205.552 133.455 205.504C133.807 205.336 134.155 205.216 134.499 205.144C134.843 205.072 135.167 205.036 135.471 205.036C136.007 205.036 136.447 205.12 136.791 205.288C137.143 205.456 137.403 205.712 137.571 206.056C137.739 206.4 137.823 206.844 137.823 207.388V210.472C137.823 210.664 137.775 210.816 137.679 210.928C137.583 211.032 137.443 211.084 137.259 211.084C137.083 211.084 136.943 211.032 136.839 210.928C136.735 210.816 136.683 210.664 136.683 210.472V209.692H136.791C136.727 209.988 136.607 210.244 136.431 210.46C136.263 210.668 136.051 210.828 135.795 210.94C135.539 211.052 135.247 211.108 134.919 211.108ZM141.377 211.108C140.753 211.108 140.281 210.928 139.961 210.568C139.649 210.2 139.493 209.672 139.493 208.984V203.068C139.493 202.868 139.545 202.716 139.649 202.612C139.753 202.508 139.901 202.456 140.093 202.456C140.285 202.456 140.433 202.508 140.537 202.612C140.649 202.716 140.705 202.868 140.705 203.068V208.912C140.705 209.312 140.785 209.612 140.945 209.812C141.113 210.004 141.353 210.1 141.665 210.1C141.737 210.1 141.801 210.1 141.857 210.1C141.913 210.092 141.969 210.084 142.025 210.076C142.121 210.068 142.189 210.096 142.229 210.16C142.269 210.216 142.289 210.336 142.289 210.52C142.289 210.688 142.253 210.82 142.181 210.916C142.109 211.004 141.993 211.06 141.833 211.084C141.761 211.092 141.685 211.096 141.605 211.096C141.525 211.104 141.449 211.108 141.377 211.108Z" fill="#FFAA00"/>
<defs>
<linearGradient id="paint0_linear_1150_10751" x1="98.0776" y1="18" x2="98.0776" y2="42" gradientUnits="userSpaceOnUse">
<stop stop-color="#FF7B1D" stop-opacity="0.75"/>
<stop offset="1" stop-color="#EB711A"/>
</linearGradient>
<linearGradient id="paint1_linear_1150_10751" x1="98.6595" y1="51" x2="98.6595" y2="75" gradientUnits="userSpaceOnUse">
<stop stop-color="#FE5000" stop-opacity="0.74"/>
<stop offset="1" stop-color="#E74A02"/>
</linearGradient>
<linearGradient id="paint2_linear_1150_10751" x1="98.569" y1="86" x2="98.569" y2="110" gradientUnits="userSpaceOnUse">
<stop stop-color="#76BC21" stop-opacity="0.75"/>
<stop offset="1" stop-color="#6EAF20"/>
</linearGradient>
<linearGradient id="paint3_linear_1150_10751" x1="99.4784" y1="122" x2="99.4784" y2="146" gradientUnits="userSpaceOnUse">
<stop stop-color="#006837" stop-opacity="0.75"/>
<stop offset="1" stop-color="#01592F"/>
</linearGradient>
<linearGradient id="paint4_linear_1150_10751" x1="102.263" y1="195" x2="102.263" y2="219" gradientUnits="userSpaceOnUse">
<stop stop-color="#FFAA00" stop-opacity="0.75"/>
<stop offset="1" stop-color="#E89B01"/>
</linearGradient>
</defs>
</svg>
