<svg width="301" height="254" viewBox="0 0 301 254" fill="none" xmlns="http://www.w3.org/2000/svg">
<rect x="1.5" y="21.5" width="299" height="44" rx="11.5" fill="white"/>
<rect x="1.5" y="21.5" width="299" height="44" rx="11.5" stroke="#E8EAEF"/>
<path d="M11.864 47.584C11.736 47.584 11.632 47.556 11.552 47.5C11.48 47.436 11.436 47.356 11.42 47.26C11.412 47.156 11.436 47.04 11.492 46.912L14.792 39.4C14.864 39.24 14.948 39.128 15.044 39.064C15.148 38.992 15.26 38.956 15.38 38.956C15.5 38.956 15.608 38.992 15.704 39.064C15.808 39.128 15.892 39.24 15.956 39.4L19.268 46.912C19.332 47.04 19.356 47.156 19.34 47.26C19.332 47.364 19.292 47.444 19.22 47.5C19.148 47.556 19.048 47.584 18.92 47.584C18.776 47.584 18.66 47.548 18.572 47.476C18.484 47.396 18.412 47.284 18.356 47.14L17.468 45.088L17.948 45.34H12.788L13.28 45.088L12.404 47.14C12.332 47.292 12.256 47.404 12.176 47.476C12.096 47.548 11.992 47.584 11.864 47.584ZM15.368 40.192L13.436 44.74L13.148 44.512H17.588L17.324 44.74L15.392 40.192H15.368ZM22.4302 47.608C21.8542 47.608 21.4142 47.432 21.1102 47.08C20.8062 46.728 20.6542 46.224 20.6542 45.568V39.448C20.6542 39.288 20.6942 39.168 20.7742 39.088C20.8542 39 20.9742 38.956 21.1342 38.956C21.2862 38.956 21.4062 39 21.4942 39.088C21.5822 39.168 21.6262 39.288 21.6262 39.448V45.496C21.6262 45.928 21.7102 46.252 21.8782 46.468C22.0542 46.676 22.3102 46.78 22.6462 46.78C22.7182 46.78 22.7822 46.776 22.8382 46.768C22.8942 46.76 22.9502 46.756 23.0062 46.756C23.0942 46.748 23.1542 46.768 23.1862 46.816C23.2262 46.864 23.2462 46.96 23.2462 47.104C23.2462 47.248 23.2142 47.356 23.1502 47.428C23.0862 47.5 22.9822 47.548 22.8382 47.572C22.7742 47.58 22.7062 47.588 22.6342 47.596C22.5622 47.604 22.4942 47.608 22.4302 47.608ZM27.157 47.608C26.629 47.608 26.173 47.472 25.789 47.2C25.413 46.928 25.161 46.564 25.033 46.108L25.165 45.976V47.08C25.165 47.24 25.121 47.364 25.033 47.452C24.953 47.54 24.837 47.584 24.685 47.584C24.525 47.584 24.405 47.54 24.325 47.452C24.245 47.364 24.205 47.24 24.205 47.08V39.448C24.205 39.288 24.245 39.168 24.325 39.088C24.405 39 24.525 38.956 24.685 38.956C24.837 38.956 24.957 39 25.045 39.088C25.133 39.168 25.177 39.288 25.177 39.448V43.024H25.033C25.169 42.576 25.425 42.22 25.801 41.956C26.177 41.692 26.629 41.56 27.157 41.56C27.685 41.56 28.141 41.684 28.525 41.932C28.909 42.172 29.205 42.52 29.413 42.976C29.629 43.424 29.737 43.96 29.737 44.584C29.737 45.2 29.629 45.736 29.413 46.192C29.205 46.64 28.905 46.988 28.513 47.236C28.129 47.484 27.677 47.608 27.157 47.608ZM26.953 46.828C27.321 46.828 27.637 46.74 27.901 46.564C28.173 46.388 28.381 46.132 28.525 45.796C28.677 45.46 28.753 45.056 28.753 44.584C28.753 43.856 28.589 43.3 28.261 42.916C27.941 42.532 27.505 42.34 26.953 42.34C26.593 42.34 26.277 42.428 26.005 42.604C25.733 42.772 25.521 43.024 25.369 43.36C25.225 43.688 25.153 44.096 25.153 44.584C25.153 45.304 25.317 45.86 25.645 46.252C25.973 46.636 26.409 46.828 26.953 46.828ZM33.2651 47.608C32.7931 47.608 32.4011 47.524 32.0891 47.356C31.7851 47.18 31.5531 46.92 31.3931 46.576C31.2411 46.232 31.1651 45.804 31.1651 45.292V42.076C31.1651 41.908 31.2051 41.784 31.2851 41.704C31.3731 41.624 31.4931 41.584 31.6451 41.584C31.8051 41.584 31.9251 41.624 32.0051 41.704C32.0931 41.784 32.1371 41.908 32.1371 42.076V45.28C32.1371 45.792 32.2411 46.176 32.4491 46.432C32.6651 46.68 33.0011 46.804 33.4571 46.804C33.9531 46.804 34.3571 46.636 34.6691 46.3C34.9811 45.964 35.1371 45.524 35.1371 44.98V42.076C35.1371 41.908 35.1771 41.784 35.2571 41.704C35.3451 41.624 35.4691 41.584 35.6291 41.584C35.7811 41.584 35.8971 41.624 35.9771 41.704C36.0651 41.784 36.1091 41.908 36.1091 42.076V47.08C36.1091 47.416 35.9531 47.584 35.6411 47.584C35.4891 47.584 35.3691 47.54 35.2811 47.452C35.2011 47.364 35.1611 47.24 35.1611 47.08V45.988L35.3171 46.156C35.1571 46.628 34.8931 46.988 34.5251 47.236C34.1651 47.484 33.7451 47.608 33.2651 47.608ZM39.8956 47.608C39.5356 47.608 39.1716 47.564 38.8036 47.476C38.4436 47.388 38.1076 47.236 37.7956 47.02C37.7156 46.964 37.6596 46.9 37.6276 46.828C37.5956 46.748 37.5836 46.672 37.5916 46.6C37.6076 46.52 37.6396 46.452 37.6876 46.396C37.7436 46.34 37.8076 46.308 37.8796 46.3C37.9596 46.284 38.0476 46.3 38.1436 46.348C38.4556 46.54 38.7556 46.676 39.0436 46.756C39.3396 46.828 39.6316 46.864 39.9196 46.864C40.3756 46.864 40.7196 46.78 40.9516 46.612C41.1836 46.444 41.2996 46.216 41.2996 45.928C41.2996 45.704 41.2236 45.528 41.0716 45.4C40.9196 45.264 40.6796 45.16 40.3516 45.088L39.2596 44.848C38.7556 44.744 38.3796 44.564 38.1316 44.308C37.8916 44.052 37.7716 43.72 37.7716 43.312C37.7716 42.952 37.8636 42.644 38.0476 42.388C38.2396 42.124 38.5076 41.92 38.8516 41.776C39.1956 41.632 39.5956 41.56 40.0516 41.56C40.4036 41.56 40.7356 41.608 41.0476 41.704C41.3676 41.792 41.6556 41.936 41.9116 42.136C41.9916 42.192 42.0436 42.26 42.0676 42.34C42.0996 42.412 42.1036 42.488 42.0796 42.568C42.0636 42.64 42.0276 42.704 41.9716 42.76C41.9156 42.808 41.8476 42.836 41.7676 42.844C41.6876 42.852 41.6036 42.828 41.5156 42.772C41.2756 42.612 41.0316 42.496 40.7836 42.424C40.5356 42.344 40.2916 42.304 40.0516 42.304C39.6036 42.304 39.2636 42.392 39.0316 42.568C38.7996 42.744 38.6836 42.976 38.6836 43.264C38.6836 43.488 38.7556 43.672 38.8996 43.816C39.0436 43.96 39.2676 44.064 39.5716 44.128L40.6636 44.356C41.1836 44.468 41.5716 44.648 41.8276 44.896C42.0916 45.136 42.2236 45.464 42.2236 45.88C42.2236 46.408 42.0116 46.828 41.5876 47.14C41.1636 47.452 40.5996 47.608 39.8956 47.608ZM47.4707 47.5C47.2947 47.5 47.1587 47.456 47.0627 47.368C46.9747 47.272 46.9307 47.136 46.9307 46.96V39.58C46.9307 39.404 46.9747 39.272 47.0627 39.184C47.1587 39.088 47.2947 39.04 47.4707 39.04H49.7867C51.1547 39.04 52.2107 39.4 52.9547 40.12C53.6987 40.84 54.0707 41.888 54.0707 43.264C54.0707 43.952 53.9747 44.56 53.7827 45.088C53.5987 45.608 53.3227 46.048 52.9547 46.408C52.5867 46.768 52.1387 47.04 51.6107 47.224C51.0827 47.408 50.4747 47.5 49.7867 47.5H47.4707ZM47.9147 46.66H49.7147C50.2747 46.66 50.7587 46.588 51.1667 46.444C51.5827 46.3 51.9267 46.088 52.1987 45.808C52.4787 45.528 52.6867 45.176 52.8227 44.752C52.9587 44.32 53.0267 43.824 53.0267 43.264C53.0267 42.136 52.7507 41.292 52.1987 40.732C51.6467 40.164 50.8187 39.88 49.7147 39.88H47.9147V46.66ZM57.769 47.608C57.297 47.608 56.905 47.524 56.593 47.356C56.289 47.18 56.057 46.92 55.897 46.576C55.745 46.232 55.669 45.804 55.669 45.292V42.076C55.669 41.908 55.709 41.784 55.789 41.704C55.877 41.624 55.997 41.584 56.149 41.584C56.309 41.584 56.429 41.624 56.509 41.704C56.597 41.784 56.641 41.908 56.641 42.076V45.28C56.641 45.792 56.745 46.176 56.953 46.432C57.169 46.68 57.505 46.804 57.961 46.804C58.457 46.804 58.861 46.636 59.173 46.3C59.485 45.964 59.641 45.524 59.641 44.98V42.076C59.641 41.908 59.681 41.784 59.761 41.704C59.849 41.624 59.973 41.584 60.133 41.584C60.285 41.584 60.401 41.624 60.481 41.704C60.569 41.784 60.613 41.908 60.613 42.076V47.08C60.613 47.416 60.457 47.584 60.145 47.584C59.993 47.584 59.873 47.54 59.785 47.452C59.705 47.364 59.665 47.24 59.665 47.08V45.988L59.821 46.156C59.661 46.628 59.397 46.988 59.029 47.236C58.669 47.484 58.249 47.608 57.769 47.608ZM62.9355 47.584C62.7755 47.584 62.6555 47.54 62.5755 47.452C62.4955 47.364 62.4555 47.24 62.4555 47.08V42.076C62.4555 41.916 62.4955 41.796 62.5755 41.716C62.6555 41.628 62.7715 41.584 62.9235 41.584C63.0755 41.584 63.1915 41.628 63.2715 41.716C63.3595 41.796 63.4035 41.916 63.4035 42.076V43.132L63.2715 42.964C63.4235 42.516 63.6675 42.172 64.0035 41.932C64.3475 41.684 64.7555 41.56 65.2275 41.56C65.7235 41.56 66.1235 41.68 66.4275 41.92C66.7395 42.152 66.9475 42.516 67.0515 43.012H66.8715C67.0155 42.564 67.2715 42.212 67.6395 41.956C68.0155 41.692 68.4515 41.56 68.9475 41.56C69.3875 41.56 69.7475 41.644 70.0275 41.812C70.3155 41.98 70.5315 42.236 70.6755 42.58C70.8195 42.916 70.8915 43.344 70.8915 43.864V47.08C70.8915 47.24 70.8475 47.364 70.7595 47.452C70.6795 47.54 70.5595 47.584 70.3995 47.584C70.2475 47.584 70.1275 47.54 70.0395 47.452C69.9595 47.364 69.9195 47.24 69.9195 47.08V43.912C69.9195 43.376 69.8275 42.984 69.6435 42.736C69.4595 42.48 69.1475 42.352 68.7075 42.352C68.2275 42.352 67.8475 42.52 67.5675 42.856C67.2955 43.184 67.1595 43.632 67.1595 44.2V47.08C67.1595 47.24 67.1155 47.364 67.0275 47.452C66.9475 47.54 66.8275 47.584 66.6675 47.584C66.5155 47.584 66.3955 47.54 66.3075 47.452C66.2275 47.364 66.1875 47.24 66.1875 47.08V43.912C66.1875 43.376 66.0915 42.984 65.8995 42.736C65.7155 42.48 65.4075 42.352 64.9755 42.352C64.4955 42.352 64.1155 42.52 63.8355 42.856C63.5635 43.184 63.4275 43.632 63.4275 44.2V47.08C63.4275 47.416 63.2635 47.584 62.9355 47.584ZM75.6609 47.608C75.1329 47.608 74.6769 47.472 74.2929 47.2C73.9169 46.928 73.6649 46.564 73.5369 46.108L73.6689 45.976V47.08C73.6689 47.24 73.6249 47.364 73.5369 47.452C73.4569 47.54 73.3409 47.584 73.1889 47.584C73.0289 47.584 72.9089 47.54 72.8289 47.452C72.7489 47.364 72.7089 47.24 72.7089 47.08V39.448C72.7089 39.288 72.7489 39.168 72.8289 39.088C72.9089 39 73.0289 38.956 73.1889 38.956C73.3409 38.956 73.4609 39 73.5489 39.088C73.6369 39.168 73.6809 39.288 73.6809 39.448V43.024H73.5369C73.6729 42.576 73.9289 42.22 74.3049 41.956C74.6809 41.692 75.1329 41.56 75.6609 41.56C76.1889 41.56 76.6449 41.684 77.0289 41.932C77.4129 42.172 77.7089 42.52 77.9169 42.976C78.1329 43.424 78.2409 43.96 78.2409 44.584C78.2409 45.2 78.1329 45.736 77.9169 46.192C77.7089 46.64 77.4089 46.988 77.0169 47.236C76.6329 47.484 76.1809 47.608 75.6609 47.608ZM75.4569 46.828C75.8249 46.828 76.1409 46.74 76.4049 46.564C76.6769 46.388 76.8849 46.132 77.0289 45.796C77.1809 45.46 77.2569 45.056 77.2569 44.584C77.2569 43.856 77.0929 43.3 76.7649 42.916C76.4449 42.532 76.0089 42.34 75.4569 42.34C75.0969 42.34 74.7809 42.428 74.5089 42.604C74.2369 42.772 74.0249 43.024 73.8729 43.36C73.7289 43.688 73.6569 44.096 73.6569 44.584C73.6569 45.304 73.8209 45.86 74.1489 46.252C74.4769 46.636 74.9129 46.828 75.4569 46.828ZM81.481 47.608C80.905 47.608 80.465 47.432 80.161 47.08C79.857 46.728 79.705 46.224 79.705 45.568V39.448C79.705 39.288 79.745 39.168 79.825 39.088C79.905 39 80.025 38.956 80.185 38.956C80.337 38.956 80.457 39 80.545 39.088C80.633 39.168 80.677 39.288 80.677 39.448V45.496C80.677 45.928 80.761 46.252 80.929 46.468C81.105 46.676 81.361 46.78 81.697 46.78C81.769 46.78 81.833 46.776 81.889 46.768C81.945 46.76 82.001 46.756 82.057 46.756C82.145 46.748 82.205 46.768 82.237 46.816C82.277 46.864 82.297 46.96 82.297 47.104C82.297 47.248 82.265 47.356 82.201 47.428C82.137 47.5 82.033 47.548 81.889 47.572C81.825 47.58 81.757 47.588 81.685 47.596C81.613 47.604 81.545 47.608 81.481 47.608ZM85.8252 47.608C85.2092 47.608 84.6772 47.488 84.2292 47.248C83.7892 47 83.4452 46.652 83.1972 46.204C82.9572 45.756 82.8372 45.22 82.8372 44.596C82.8372 43.988 82.9572 43.46 83.1972 43.012C83.4372 42.556 83.7652 42.2 84.1812 41.944C84.6052 41.688 85.0932 41.56 85.6452 41.56C86.0372 41.56 86.3892 41.628 86.7012 41.764C87.0132 41.892 87.2772 42.08 87.4932 42.328C87.7172 42.576 87.8852 42.876 87.9972 43.228C88.1172 43.58 88.1772 43.976 88.1772 44.416C88.1772 44.544 88.1412 44.64 88.0692 44.704C87.9972 44.76 87.8932 44.788 87.7572 44.788H83.5812V44.152H87.5292L87.3372 44.308C87.3372 43.876 87.2732 43.512 87.1452 43.216C87.0172 42.912 86.8292 42.68 86.5812 42.52C86.3412 42.36 86.0372 42.28 85.6692 42.28C85.2612 42.28 84.9132 42.376 84.6252 42.568C84.3452 42.752 84.1332 43.012 83.9892 43.348C83.8452 43.676 83.7732 44.06 83.7732 44.5V44.572C83.7732 45.308 83.9492 45.868 84.3012 46.252C84.6612 46.636 85.1692 46.828 85.8252 46.828C86.0972 46.828 86.3652 46.792 86.6292 46.72C86.9012 46.648 87.1652 46.528 87.4212 46.36C87.5332 46.288 87.6332 46.256 87.7212 46.264C87.8172 46.264 87.8932 46.292 87.9492 46.348C88.0052 46.396 88.0412 46.46 88.0572 46.54C88.0812 46.612 88.0732 46.692 88.0332 46.78C88.0012 46.868 87.9332 46.944 87.8292 47.008C87.5652 47.2 87.2532 47.348 86.8932 47.452C86.5332 47.556 86.1772 47.608 85.8252 47.608ZM91.8039 47.608C91.2839 47.608 90.8279 47.484 90.4359 47.236C90.0519 46.988 89.7519 46.64 89.5359 46.192C89.3279 45.736 89.2239 45.2 89.2239 44.584C89.2239 43.96 89.3279 43.424 89.5359 42.976C89.7519 42.52 90.0519 42.172 90.4359 41.932C90.8279 41.684 91.2839 41.56 91.8039 41.56C92.3319 41.56 92.7839 41.692 93.1599 41.956C93.5359 42.22 93.7879 42.576 93.9159 43.024H93.7839V39.448C93.7839 39.288 93.8239 39.168 93.9039 39.088C93.9919 39 94.1159 38.956 94.2759 38.956C94.4279 38.956 94.5439 39 94.6239 39.088C94.7119 39.168 94.7559 39.288 94.7559 39.448V47.08C94.7559 47.24 94.7159 47.364 94.6359 47.452C94.5559 47.54 94.4359 47.584 94.2759 47.584C94.1239 47.584 94.0039 47.54 93.9159 47.452C93.8359 47.364 93.7959 47.24 93.7959 47.08V45.94L93.9279 46.108C93.7999 46.564 93.5439 46.928 93.1599 47.2C92.7839 47.472 92.3319 47.608 91.8039 47.608ZM92.0079 46.828C92.3679 46.828 92.6839 46.74 92.9559 46.564C93.2279 46.388 93.4359 46.132 93.5799 45.796C93.7319 45.46 93.8079 45.056 93.8079 44.584C93.8079 43.856 93.6439 43.3 93.3159 42.916C92.9959 42.532 92.5599 42.34 92.0079 42.34C91.6399 42.34 91.3199 42.428 91.0479 42.604C90.7839 42.772 90.5759 43.024 90.4239 43.36C90.2799 43.688 90.2079 44.096 90.2079 44.584C90.2079 45.304 90.3719 45.86 90.6999 46.252C91.0279 46.636 91.4639 46.828 92.0079 46.828ZM99.004 47.608C98.436 47.608 97.944 47.484 97.528 47.236C97.112 46.988 96.788 46.64 96.556 46.192C96.332 45.736 96.22 45.2 96.22 44.584C96.22 44.12 96.284 43.704 96.412 43.336C96.54 42.96 96.728 42.64 96.976 42.376C97.224 42.112 97.516 41.912 97.852 41.776C98.196 41.632 98.58 41.56 99.004 41.56C99.572 41.56 100.064 41.684 100.48 41.932C100.896 42.18 101.216 42.532 101.44 42.988C101.672 43.436 101.788 43.968 101.788 44.584C101.788 45.048 101.724 45.464 101.596 45.832C101.468 46.2 101.28 46.52 101.032 46.792C100.784 47.056 100.488 47.26 100.144 47.404C99.808 47.54 99.428 47.608 99.004 47.608ZM99.004 46.828C99.364 46.828 99.68 46.74 99.952 46.564C100.224 46.388 100.432 46.132 100.576 45.796C100.728 45.46 100.804 45.056 100.804 44.584C100.804 43.856 100.64 43.3 100.312 42.916C99.992 42.532 99.556 42.34 99.004 42.34C98.636 42.34 98.316 42.428 98.044 42.604C97.78 42.772 97.572 43.024 97.42 43.36C97.276 43.688 97.204 44.096 97.204 44.584C97.204 45.304 97.368 45.86 97.696 46.252C98.024 46.636 98.46 46.828 99.004 46.828ZM103.74 47.584C103.58 47.584 103.456 47.54 103.368 47.452C103.288 47.364 103.248 47.24 103.248 47.08V42.076C103.248 41.916 103.288 41.796 103.368 41.716C103.448 41.628 103.564 41.584 103.716 41.584C103.868 41.584 103.984 41.628 104.064 41.716C104.152 41.796 104.196 41.916 104.196 42.076V43.048H104.076C104.204 42.576 104.448 42.212 104.808 41.956C105.168 41.7 105.612 41.564 106.14 41.548C106.26 41.54 106.356 41.568 106.428 41.632C106.5 41.688 106.54 41.788 106.548 41.932C106.556 42.068 106.524 42.176 106.452 42.256C106.38 42.336 106.268 42.384 106.116 42.4L105.924 42.424C105.38 42.472 104.96 42.648 104.664 42.952C104.376 43.248 104.232 43.656 104.232 44.176V47.08C104.232 47.24 104.188 47.364 104.1 47.452C104.02 47.54 103.9 47.584 103.74 47.584ZM110.106 47.608C109.49 47.608 108.958 47.488 108.51 47.248C108.07 47 107.726 46.652 107.478 46.204C107.238 45.756 107.118 45.22 107.118 44.596C107.118 43.988 107.238 43.46 107.478 43.012C107.718 42.556 108.046 42.2 108.462 41.944C108.886 41.688 109.374 41.56 109.926 41.56C110.318 41.56 110.67 41.628 110.982 41.764C111.294 41.892 111.558 42.08 111.774 42.328C111.998 42.576 112.166 42.876 112.278 43.228C112.398 43.58 112.458 43.976 112.458 44.416C112.458 44.544 112.422 44.64 112.35 44.704C112.278 44.76 112.174 44.788 112.038 44.788H107.862V44.152H111.81L111.618 44.308C111.618 43.876 111.554 43.512 111.426 43.216C111.298 42.912 111.11 42.68 110.862 42.52C110.622 42.36 110.318 42.28 109.95 42.28C109.542 42.28 109.194 42.376 108.906 42.568C108.626 42.752 108.414 43.012 108.27 43.348C108.126 43.676 108.054 44.06 108.054 44.5V44.572C108.054 45.308 108.23 45.868 108.582 46.252C108.942 46.636 109.45 46.828 110.106 46.828C110.378 46.828 110.646 46.792 110.91 46.72C111.182 46.648 111.446 46.528 111.702 46.36C111.814 46.288 111.914 46.256 112.002 46.264C112.098 46.264 112.174 46.292 112.23 46.348C112.286 46.396 112.322 46.46 112.338 46.54C112.362 46.612 112.354 46.692 112.314 46.78C112.282 46.868 112.214 46.944 112.11 47.008C111.846 47.2 111.534 47.348 111.174 47.452C110.814 47.556 110.458 47.608 110.106 47.608Z" fill="#64728C"/>
<path d="M2.656 12C2.44 12 2.272 11.944 2.152 11.832C2.04 11.712 1.984 11.544 1.984 11.328V4.212C1.984 3.996 2.04 3.832 2.152 3.72C2.272 3.6 2.44 3.54 2.656 3.54H7.036C7.204 3.54 7.332 3.584 7.42 3.672C7.508 3.752 7.552 3.872 7.552 4.032C7.552 4.2 7.508 4.328 7.42 4.416C7.332 4.504 7.204 4.548 7.036 4.548H3.184V7.2H6.772C6.948 7.2 7.076 7.244 7.156 7.332C7.244 7.42 7.288 7.544 7.288 7.704C7.288 7.872 7.244 8 7.156 8.088C7.076 8.168 6.948 8.208 6.772 8.208H3.184V10.992H7.036C7.204 10.992 7.332 11.036 7.42 11.124C7.508 11.212 7.552 11.336 7.552 11.496C7.552 11.664 7.508 11.792 7.42 11.88C7.332 11.96 7.204 12 7.036 12H2.656ZM9.54241 12.084C9.35041 12.084 9.20241 12.032 9.09841 11.928C8.99441 11.816 8.94241 11.664 8.94241 11.472V6.672C8.94241 6.472 8.99441 6.32 9.09841 6.216C9.20241 6.112 9.34641 6.06 9.53041 6.06C9.72241 6.06 9.86641 6.112 9.96241 6.216C10.0664 6.32 10.1184 6.472 10.1184 6.672V7.656L9.98641 7.392C10.1464 6.968 10.3944 6.636 10.7304 6.396C11.0664 6.156 11.4704 6.036 11.9424 6.036C12.4304 6.036 12.8264 6.152 13.1304 6.384C13.4344 6.616 13.6424 6.972 13.7544 7.452H13.5864C13.7384 7.012 13.9984 6.668 14.3664 6.42C14.7344 6.164 15.1624 6.036 15.6504 6.036C16.0984 6.036 16.4664 6.124 16.7544 6.3C17.0424 6.468 17.2584 6.728 17.4024 7.08C17.5464 7.424 17.6184 7.86 17.6184 8.388V11.472C17.6184 11.664 17.5624 11.816 17.4504 11.928C17.3464 12.032 17.1984 12.084 17.0064 12.084C16.8144 12.084 16.6664 12.032 16.5624 11.928C16.4584 11.816 16.4064 11.664 16.4064 11.472V8.448C16.4064 7.952 16.3184 7.588 16.1424 7.356C15.9744 7.124 15.6944 7.008 15.3024 7.008C14.8624 7.008 14.5144 7.16 14.2584 7.464C14.0024 7.768 13.8744 8.188 13.8744 8.724V11.472C13.8744 11.664 13.8224 11.816 13.7184 11.928C13.6144 12.032 13.4664 12.084 13.2744 12.084C13.0824 12.084 12.9304 12.032 12.8184 11.928C12.7144 11.816 12.6624 11.664 12.6624 11.472V8.448C12.6624 7.952 12.5784 7.588 12.4104 7.356C12.2424 7.124 11.9624 7.008 11.5704 7.008C11.1304 7.008 10.7824 7.16 10.5264 7.464C10.2784 7.768 10.1544 8.188 10.1544 8.724V11.472C10.1544 11.88 9.95041 12.084 9.54241 12.084ZM19.9129 14.244C19.7209 14.244 19.5729 14.192 19.4689 14.088C19.3649 13.984 19.3129 13.832 19.3129 13.632V6.672C19.3129 6.472 19.3649 6.32 19.4689 6.216C19.5729 6.112 19.7169 6.06 19.9009 6.06C20.0929 6.06 20.2409 6.112 20.3449 6.216C20.4489 6.32 20.5009 6.472 20.5009 6.672V7.716L20.3689 7.464C20.4969 7.032 20.7489 6.688 21.1249 6.432C21.5009 6.168 21.9449 6.036 22.4569 6.036C22.9769 6.036 23.4289 6.16 23.8129 6.408C24.2049 6.656 24.5049 7.004 24.7129 7.452C24.9289 7.9 25.0369 8.44 25.0369 9.072C25.0369 9.688 24.9289 10.228 24.7129 10.692C24.5049 11.148 24.2089 11.5 23.8249 11.748C23.4409 11.988 22.9849 12.108 22.4569 12.108C21.9529 12.108 21.5129 11.98 21.1369 11.724C20.7609 11.468 20.5089 11.128 20.3809 10.704H20.5249V13.632C20.5249 13.832 20.4689 13.984 20.3569 14.088C20.2529 14.192 20.1049 14.244 19.9129 14.244ZM22.1569 11.172C22.4929 11.172 22.7849 11.092 23.0329 10.932C23.2809 10.772 23.4729 10.536 23.6089 10.224C23.7449 9.912 23.8129 9.528 23.8129 9.072C23.8129 8.384 23.6609 7.864 23.3569 7.512C23.0609 7.16 22.6609 6.984 22.1569 6.984C21.8289 6.984 21.5369 7.064 21.2809 7.224C21.0329 7.376 20.8409 7.608 20.7049 7.92C20.5689 8.232 20.5009 8.616 20.5009 9.072C20.5009 9.752 20.6529 10.272 20.9569 10.632C21.2609 10.992 21.6609 11.172 22.1569 11.172ZM28.2868 12.108C27.6628 12.108 27.1908 11.928 26.8708 11.568C26.5588 11.2 26.4028 10.672 26.4028 9.984V4.068C26.4028 3.868 26.4548 3.716 26.5588 3.612C26.6628 3.508 26.8108 3.456 27.0028 3.456C27.1948 3.456 27.3428 3.508 27.4468 3.612C27.5588 3.716 27.6148 3.868 27.6148 4.068V9.912C27.6148 10.312 27.6948 10.612 27.8548 10.812C28.0228 11.004 28.2628 11.1 28.5748 11.1C28.6468 11.1 28.7108 11.1 28.7668 11.1C28.8228 11.092 28.8788 11.084 28.9348 11.076C29.0308 11.068 29.0988 11.096 29.1388 11.16C29.1788 11.216 29.1988 11.336 29.1988 11.52C29.1988 11.688 29.1628 11.82 29.0908 11.916C29.0188 12.004 28.9028 12.06 28.7428 12.084C28.6708 12.092 28.5948 12.096 28.5148 12.096C28.4348 12.104 28.3588 12.108 28.2868 12.108ZM32.5562 12.108C31.9642 12.108 31.4522 11.984 31.0202 11.736C30.5962 11.488 30.2642 11.136 30.0242 10.68C29.7842 10.224 29.6642 9.688 29.6642 9.072C29.6642 8.6 29.7322 8.18 29.8682 7.812C30.0042 7.444 30.1962 7.128 30.4442 6.864C30.7002 6.592 31.0042 6.388 31.3562 6.252C31.7162 6.108 32.1162 6.036 32.5562 6.036C33.1402 6.036 33.6442 6.16 34.0682 6.408C34.5002 6.656 34.8362 7.008 35.0762 7.464C35.3162 7.912 35.4362 8.448 35.4362 9.072C35.4362 9.536 35.3682 9.956 35.2322 10.332C35.0962 10.708 34.9002 11.028 34.6442 11.292C34.3962 11.556 34.0922 11.76 33.7322 11.904C33.3802 12.04 32.9882 12.108 32.5562 12.108ZM32.5562 11.172C32.8842 11.172 33.1722 11.092 33.4202 10.932C33.6682 10.772 33.8602 10.536 33.9962 10.224C34.1402 9.912 34.2122 9.528 34.2122 9.072C34.2122 8.384 34.0602 7.864 33.7562 7.512C33.4522 7.16 33.0522 6.984 32.5562 6.984C32.2202 6.984 31.9282 7.064 31.6802 7.224C31.4322 7.376 31.2362 7.608 31.0922 7.92C30.9562 8.232 30.8882 8.616 30.8882 9.072C30.8882 9.752 31.0402 10.272 31.3442 10.632C31.6482 10.992 32.0522 11.172 32.5562 11.172ZM38.0718 14.244C37.9278 14.244 37.8078 14.204 37.7118 14.124C37.6238 14.052 37.5718 13.952 37.5558 13.824C37.5478 13.704 37.5718 13.572 37.6278 13.428L38.4438 11.592V12.108L36.1998 6.888C36.1438 6.744 36.1238 6.608 36.1398 6.48C36.1558 6.352 36.2158 6.252 36.3198 6.18C36.4238 6.1 36.5638 6.06 36.7398 6.06C36.8918 6.06 37.0118 6.096 37.0998 6.168C37.1878 6.24 37.2678 6.364 37.3398 6.54L39.1518 11.016H38.8158L40.6518 6.54C40.7238 6.356 40.8078 6.232 40.9038 6.168C40.9998 6.096 41.1318 6.06 41.2998 6.06C41.4438 6.06 41.5558 6.1 41.6358 6.18C41.7238 6.252 41.7758 6.352 41.7918 6.48C41.8158 6.6 41.7958 6.732 41.7318 6.876L38.7318 13.776C38.6518 13.96 38.5598 14.084 38.4558 14.148C38.3598 14.212 38.2318 14.244 38.0718 14.244ZM45.5688 12.108C44.9288 12.108 44.3768 11.988 43.9128 11.748C43.4568 11.5 43.1008 11.152 42.8448 10.704C42.5968 10.248 42.4728 9.708 42.4728 9.084C42.4728 8.476 42.5968 7.944 42.8448 7.488C43.0928 7.032 43.4328 6.676 43.8648 6.42C44.2968 6.164 44.7888 6.036 45.3408 6.036C45.7488 6.036 46.1128 6.104 46.4328 6.24C46.7528 6.368 47.0248 6.56 47.2488 6.816C47.4808 7.064 47.6528 7.368 47.7648 7.728C47.8848 8.088 47.9448 8.492 47.9448 8.94C47.9448 9.076 47.9048 9.18 47.8248 9.252C47.7448 9.316 47.6248 9.348 47.4648 9.348H43.4328V8.604H47.1288L46.9248 8.772C46.9248 8.372 46.8648 8.032 46.7448 7.752C46.6328 7.472 46.4608 7.26 46.2288 7.116C46.0048 6.964 45.7248 6.888 45.3888 6.888C45.0128 6.888 44.6928 6.976 44.4288 7.152C44.1728 7.328 43.9768 7.572 43.8408 7.884C43.7048 8.196 43.6368 8.56 43.6368 8.976V9.048C43.6368 9.752 43.8008 10.284 44.1288 10.644C44.4648 10.996 44.9488 11.172 45.5808 11.172C45.8208 11.172 46.0728 11.14 46.3368 11.076C46.6088 11.012 46.8648 10.904 47.1048 10.752C47.2408 10.672 47.3608 10.636 47.4648 10.644C47.5768 10.652 47.6648 10.688 47.7288 10.752C47.8008 10.816 47.8448 10.896 47.8608 10.992C47.8768 11.088 47.8608 11.188 47.8128 11.292C47.7648 11.388 47.6808 11.476 47.5608 11.556C47.2888 11.74 46.9728 11.88 46.6128 11.976C46.2528 12.064 45.9048 12.108 45.5688 12.108ZM52.0141 12.108C51.3741 12.108 50.8221 11.988 50.3581 11.748C49.9021 11.5 49.5461 11.152 49.2901 10.704C49.0421 10.248 48.9181 9.708 48.9181 9.084C48.9181 8.476 49.0421 7.944 49.2901 7.488C49.5381 7.032 49.8781 6.676 50.3101 6.42C50.7421 6.164 51.2341 6.036 51.7861 6.036C52.1941 6.036 52.5581 6.104 52.8781 6.24C53.1981 6.368 53.4701 6.56 53.6941 6.816C53.9261 7.064 54.0981 7.368 54.2101 7.728C54.3301 8.088 54.3901 8.492 54.3901 8.94C54.3901 9.076 54.3501 9.18 54.2701 9.252C54.1901 9.316 54.0701 9.348 53.9101 9.348H49.8781V8.604H53.5741L53.3701 8.772C53.3701 8.372 53.3101 8.032 53.1901 7.752C53.0781 7.472 52.9061 7.26 52.6741 7.116C52.4501 6.964 52.1701 6.888 51.8341 6.888C51.4581 6.888 51.1381 6.976 50.8741 7.152C50.6181 7.328 50.4221 7.572 50.2861 7.884C50.1501 8.196 50.0821 8.56 50.0821 8.976V9.048C50.0821 9.752 50.2461 10.284 50.5741 10.644C50.9101 10.996 51.3941 11.172 52.0261 11.172C52.2661 11.172 52.5181 11.14 52.7821 11.076C53.0541 11.012 53.3101 10.904 53.5501 10.752C53.6861 10.672 53.8061 10.636 53.9101 10.644C54.0221 10.652 54.1101 10.688 54.1741 10.752C54.2461 10.816 54.2901 10.896 54.3061 10.992C54.3221 11.088 54.3061 11.188 54.2581 11.292C54.2101 11.388 54.1261 11.476 54.0061 11.556C53.7341 11.74 53.4181 11.88 53.0581 11.976C52.6981 12.064 52.3501 12.108 52.0141 12.108ZM59.5954 12.084C59.4114 12.084 59.2674 12.032 59.1634 11.928C59.0594 11.824 59.0074 11.676 59.0074 11.484V4.08C59.0074 3.88 59.0554 3.728 59.1514 3.624C59.2554 3.512 59.3914 3.456 59.5594 3.456C59.7034 3.456 59.8114 3.484 59.8834 3.54C59.9634 3.588 60.0554 3.68 60.1594 3.816L65.1034 10.332H64.8034V4.044C64.8034 3.86 64.8514 3.716 64.9474 3.612C65.0514 3.508 65.1954 3.456 65.3794 3.456C65.5714 3.456 65.7154 3.508 65.8114 3.612C65.9074 3.716 65.9554 3.86 65.9554 4.044V11.496C65.9554 11.68 65.9074 11.824 65.8114 11.928C65.7234 12.032 65.6034 12.084 65.4514 12.084C65.3074 12.084 65.1874 12.056 65.0914 12C65.0034 11.944 64.9074 11.848 64.8034 11.712L59.8834 5.208H60.1594V11.484C60.1594 11.676 60.1114 11.824 60.0154 11.928C59.9194 12.032 59.7794 12.084 59.5954 12.084ZM69.6654 12.108C69.2574 12.108 68.8894 12.028 68.5614 11.868C68.2414 11.708 67.9894 11.492 67.8054 11.22C67.6214 10.948 67.5294 10.64 67.5294 10.296C67.5294 9.864 67.6374 9.524 67.8534 9.276C68.0774 9.02 68.4414 8.84 68.9454 8.736C69.4574 8.624 70.1454 8.568 71.0094 8.568H71.5734V9.312H71.0214C70.4454 9.312 69.9894 9.34 69.6534 9.396C69.3174 9.452 69.0774 9.548 68.9334 9.684C68.7974 9.812 68.7294 9.992 68.7294 10.224C68.7294 10.528 68.8334 10.776 69.0414 10.968C69.2494 11.152 69.5374 11.244 69.9054 11.244C70.2014 11.244 70.4614 11.176 70.6854 11.04C70.9094 10.896 71.0854 10.704 71.2134 10.464C71.3494 10.224 71.4174 9.948 71.4174 9.636V8.256C71.4174 7.8 71.3214 7.472 71.1294 7.272C70.9374 7.072 70.6214 6.972 70.1814 6.972C69.9254 6.972 69.6574 7.004 69.3774 7.068C69.1054 7.132 68.8214 7.24 68.5254 7.392C68.3894 7.456 68.2734 7.476 68.1774 7.452C68.0814 7.428 68.0054 7.376 67.9494 7.296C67.8934 7.208 67.8614 7.116 67.8534 7.02C67.8534 6.916 67.8774 6.816 67.9254 6.72C67.9814 6.624 68.0734 6.552 68.2014 6.504C68.5534 6.336 68.9014 6.216 69.2454 6.144C69.5894 6.072 69.9134 6.036 70.2174 6.036C70.7534 6.036 71.1934 6.12 71.5374 6.288C71.8894 6.456 72.1494 6.712 72.3174 7.056C72.4854 7.4 72.5694 7.844 72.5694 8.388V11.472C72.5694 11.664 72.5214 11.816 72.4254 11.928C72.3294 12.032 72.1894 12.084 72.0054 12.084C71.8294 12.084 71.6894 12.032 71.5854 11.928C71.4814 11.816 71.4294 11.664 71.4294 11.472V10.692H71.5374C71.4734 10.988 71.3534 11.244 71.1774 11.46C71.0094 11.668 70.7974 11.828 70.5414 11.94C70.2854 12.052 69.9934 12.108 69.6654 12.108ZM74.8627 12.084C74.6707 12.084 74.5227 12.032 74.4187 11.928C74.3147 11.816 74.2627 11.664 74.2627 11.472V6.672C74.2627 6.472 74.3147 6.32 74.4187 6.216C74.5227 6.112 74.6667 6.06 74.8507 6.06C75.0427 6.06 75.1867 6.112 75.2827 6.216C75.3867 6.32 75.4387 6.472 75.4387 6.672V7.656L75.3067 7.392C75.4667 6.968 75.7147 6.636 76.0507 6.396C76.3867 6.156 76.7907 6.036 77.2627 6.036C77.7507 6.036 78.1467 6.152 78.4507 6.384C78.7547 6.616 78.9627 6.972 79.0747 7.452H78.9067C79.0587 7.012 79.3187 6.668 79.6867 6.42C80.0547 6.164 80.4827 6.036 80.9707 6.036C81.4187 6.036 81.7867 6.124 82.0747 6.3C82.3627 6.468 82.5787 6.728 82.7227 7.08C82.8667 7.424 82.9387 7.86 82.9387 8.388V11.472C82.9387 11.664 82.8827 11.816 82.7707 11.928C82.6667 12.032 82.5187 12.084 82.3267 12.084C82.1347 12.084 81.9867 12.032 81.8827 11.928C81.7787 11.816 81.7267 11.664 81.7267 11.472V8.448C81.7267 7.952 81.6387 7.588 81.4627 7.356C81.2947 7.124 81.0147 7.008 80.6227 7.008C80.1827 7.008 79.8347 7.16 79.5787 7.464C79.3227 7.768 79.1947 8.188 79.1947 8.724V11.472C79.1947 11.664 79.1427 11.816 79.0387 11.928C78.9347 12.032 78.7867 12.084 78.5947 12.084C78.4027 12.084 78.2507 12.032 78.1387 11.928C78.0347 11.816 77.9827 11.664 77.9827 11.472V8.448C77.9827 7.952 77.8987 7.588 77.7307 7.356C77.5627 7.124 77.2827 7.008 76.8907 7.008C76.4507 7.008 76.1027 7.16 75.8467 7.464C75.5987 7.768 75.4747 8.188 75.4747 8.724V11.472C75.4747 11.88 75.2707 12.084 74.8627 12.084ZM87.3813 12.108C86.7413 12.108 86.1893 11.988 85.7253 11.748C85.2693 11.5 84.9133 11.152 84.6573 10.704C84.4093 10.248 84.2853 9.708 84.2853 9.084C84.2853 8.476 84.4093 7.944 84.6573 7.488C84.9053 7.032 85.2453 6.676 85.6773 6.42C86.1093 6.164 86.6013 6.036 87.1533 6.036C87.5613 6.036 87.9253 6.104 88.2453 6.24C88.5653 6.368 88.8373 6.56 89.0613 6.816C89.2933 7.064 89.4653 7.368 89.5773 7.728C89.6973 8.088 89.7573 8.492 89.7573 8.94C89.7573 9.076 89.7173 9.18 89.6373 9.252C89.5573 9.316 89.4373 9.348 89.2773 9.348H85.2453V8.604H88.9413L88.7373 8.772C88.7373 8.372 88.6773 8.032 88.5573 7.752C88.4453 7.472 88.2733 7.26 88.0413 7.116C87.8173 6.964 87.5373 6.888 87.2013 6.888C86.8253 6.888 86.5053 6.976 86.2413 7.152C85.9853 7.328 85.7893 7.572 85.6533 7.884C85.5173 8.196 85.4493 8.56 85.4493 8.976V9.048C85.4493 9.752 85.6133 10.284 85.9413 10.644C86.2773 10.996 86.7613 11.172 87.3933 11.172C87.6333 11.172 87.8853 11.14 88.1493 11.076C88.4213 11.012 88.6773 10.904 88.9173 10.752C89.0533 10.672 89.1733 10.636 89.2773 10.644C89.3893 10.652 89.4773 10.688 89.5413 10.752C89.6133 10.816 89.6573 10.896 89.6733 10.992C89.6893 11.088 89.6733 11.188 89.6253 11.292C89.5773 11.388 89.4933 11.476 89.3733 11.556C89.1013 11.74 88.7853 11.88 88.4253 11.976C88.0653 12.064 87.7173 12.108 87.3813 12.108Z" fill="#64728C"/>
<rect x="1.5" y="115.5" width="299" height="44" rx="11.5" fill="white"/>
<rect x="1.5" y="115.5" width="299" height="44" rx="11.5" stroke="#E8EAEF"/>
<path d="M14.612 141.584C14.46 141.584 14.34 141.54 14.252 141.452C14.164 141.356 14.12 141.228 14.12 141.068V133.892H11.42C11.276 133.892 11.164 133.852 11.084 133.772C11.004 133.692 10.964 133.588 10.964 133.46C10.964 133.324 11.004 133.22 11.084 133.148C11.164 133.076 11.276 133.04 11.42 133.04H17.816C17.96 133.04 18.072 133.076 18.152 133.148C18.232 133.22 18.272 133.324 18.272 133.46C18.272 133.596 18.232 133.704 18.152 133.784C18.072 133.856 17.96 133.892 17.816 133.892H15.116V141.068C15.116 141.228 15.072 141.356 14.984 141.452C14.904 141.54 14.78 141.584 14.612 141.584ZM19.5596 143.744C19.4396 143.744 19.3436 143.712 19.2716 143.648C19.1996 143.584 19.1556 143.496 19.1396 143.384C19.1316 143.28 19.1516 143.172 19.1996 143.06L20.0276 141.2V141.62L17.7236 136.268C17.6756 136.148 17.6596 136.036 17.6756 135.932C17.6916 135.828 17.7396 135.744 17.8196 135.68C17.8996 135.616 18.0116 135.584 18.1556 135.584C18.2836 135.584 18.3836 135.612 18.4556 135.668C18.5276 135.724 18.5916 135.824 18.6476 135.968L20.6156 140.792H20.2916L22.2836 135.968C22.3476 135.824 22.4156 135.724 22.4876 135.668C22.5596 135.612 22.6636 135.584 22.7996 135.584C22.9276 135.584 23.0236 135.616 23.0876 135.68C23.1596 135.744 23.1996 135.828 23.2076 135.932C23.2236 136.028 23.2076 136.136 23.1596 136.256L20.0876 143.36C20.0236 143.504 19.9516 143.604 19.8716 143.66C19.7996 143.716 19.6956 143.744 19.5596 143.744ZM24.9076 143.744C24.7476 143.744 24.6276 143.7 24.5476 143.612C24.4676 143.532 24.4276 143.412 24.4276 143.252V136.076C24.4276 135.916 24.4676 135.796 24.5476 135.716C24.6276 135.628 24.7436 135.584 24.8956 135.584C25.0556 135.584 25.1756 135.628 25.2556 135.716C25.3436 135.796 25.3876 135.916 25.3876 136.076V137.216L25.2556 137.048C25.3836 136.592 25.6356 136.232 26.0116 135.968C26.3956 135.696 26.8516 135.56 27.3796 135.56C27.8996 135.56 28.3516 135.684 28.7356 135.932C29.1276 136.172 29.4276 136.52 29.6356 136.976C29.8516 137.424 29.9596 137.96 29.9596 138.584C29.9596 139.2 29.8516 139.736 29.6356 140.192C29.4276 140.64 29.1316 140.988 28.7476 141.236C28.3636 141.484 27.9076 141.608 27.3796 141.608C26.8516 141.608 26.3996 141.476 26.0236 141.212C25.6476 140.94 25.3916 140.58 25.2556 140.132H25.3996V143.252C25.3996 143.412 25.3556 143.532 25.2676 143.612C25.1796 143.7 25.0596 143.744 24.9076 143.744ZM27.1756 140.828C27.5436 140.828 27.8596 140.74 28.1236 140.564C28.3956 140.388 28.6036 140.132 28.7476 139.796C28.8996 139.46 28.9756 139.056 28.9756 138.584C28.9756 137.856 28.8116 137.3 28.4836 136.916C28.1636 136.532 27.7276 136.34 27.1756 136.34C26.8156 136.34 26.4996 136.428 26.2276 136.604C25.9556 136.772 25.7436 137.024 25.5916 137.36C25.4476 137.688 25.3756 138.096 25.3756 138.584C25.3756 139.304 25.5396 139.86 25.8676 140.252C26.1956 140.636 26.6316 140.828 27.1756 140.828ZM34.0517 141.608C33.4357 141.608 32.9037 141.488 32.4557 141.248C32.0157 141 31.6717 140.652 31.4237 140.204C31.1837 139.756 31.0637 139.22 31.0637 138.596C31.0637 137.988 31.1837 137.46 31.4237 137.012C31.6637 136.556 31.9917 136.2 32.4077 135.944C32.8317 135.688 33.3197 135.56 33.8717 135.56C34.2637 135.56 34.6157 135.628 34.9277 135.764C35.2397 135.892 35.5037 136.08 35.7197 136.328C35.9437 136.576 36.1117 136.876 36.2237 137.228C36.3437 137.58 36.4037 137.976 36.4037 138.416C36.4037 138.544 36.3677 138.64 36.2957 138.704C36.2237 138.76 36.1197 138.788 35.9837 138.788H31.8077V138.152H35.7557L35.5637 138.308C35.5637 137.876 35.4997 137.512 35.3717 137.216C35.2437 136.912 35.0557 136.68 34.8077 136.52C34.5677 136.36 34.2637 136.28 33.8957 136.28C33.4877 136.28 33.1397 136.376 32.8517 136.568C32.5717 136.752 32.3597 137.012 32.2157 137.348C32.0717 137.676 31.9997 138.06 31.9997 138.5V138.572C31.9997 139.308 32.1757 139.868 32.5277 140.252C32.8877 140.636 33.3957 140.828 34.0517 140.828C34.3237 140.828 34.5917 140.792 34.8557 140.72C35.1277 140.648 35.3917 140.528 35.6477 140.36C35.7597 140.288 35.8597 140.256 35.9477 140.264C36.0437 140.264 36.1197 140.292 36.1757 140.348C36.2317 140.396 36.2677 140.46 36.2837 140.54C36.3077 140.612 36.2997 140.692 36.2597 140.78C36.2277 140.868 36.1597 140.944 36.0557 141.008C35.7917 141.2 35.4797 141.348 35.1197 141.452C34.7597 141.556 34.4037 141.608 34.0517 141.608ZM41.3842 141.584C41.2242 141.584 41.1042 141.54 41.0242 141.452C40.9442 141.364 40.9042 141.24 40.9042 141.08V133.448C40.9042 133.288 40.9442 133.168 41.0242 133.088C41.1042 133 41.2242 132.956 41.3842 132.956C41.5362 132.956 41.6562 133 41.7442 133.088C41.8322 133.168 41.8762 133.288 41.8762 133.448V136.964H41.7202C41.8882 136.5 42.1602 136.152 42.5362 135.92C42.9202 135.68 43.3602 135.56 43.8562 135.56C44.3202 135.56 44.7042 135.644 45.0082 135.812C45.3202 135.98 45.5522 136.236 45.7042 136.58C45.8562 136.916 45.9322 137.344 45.9322 137.864V141.08C45.9322 141.24 45.8882 141.364 45.8002 141.452C45.7202 141.54 45.6042 141.584 45.4522 141.584C45.2922 141.584 45.1682 141.54 45.0802 141.452C45.0002 141.364 44.9602 141.24 44.9602 141.08V137.924C44.9602 137.38 44.8522 136.984 44.6362 136.736C44.4282 136.48 44.0922 136.352 43.6282 136.352C43.0922 136.352 42.6642 136.52 42.3442 136.856C42.0322 137.184 41.8762 137.624 41.8762 138.176V141.08C41.8762 141.416 41.7122 141.584 41.3842 141.584ZM50.3525 141.608C49.7365 141.608 49.2045 141.488 48.7565 141.248C48.3165 141 47.9725 140.652 47.7245 140.204C47.4845 139.756 47.3645 139.22 47.3645 138.596C47.3645 137.988 47.4845 137.46 47.7245 137.012C47.9645 136.556 48.2925 136.2 48.7085 135.944C49.1325 135.688 49.6205 135.56 50.1725 135.56C50.5645 135.56 50.9165 135.628 51.2285 135.764C51.5405 135.892 51.8045 136.08 52.0205 136.328C52.2445 136.576 52.4125 136.876 52.5245 137.228C52.6445 137.58 52.7045 137.976 52.7045 138.416C52.7045 138.544 52.6685 138.64 52.5965 138.704C52.5245 138.76 52.4205 138.788 52.2845 138.788H48.1085V138.152H52.0565L51.8645 138.308C51.8645 137.876 51.8005 137.512 51.6725 137.216C51.5445 136.912 51.3565 136.68 51.1085 136.52C50.8685 136.36 50.5645 136.28 50.1965 136.28C49.7885 136.28 49.4405 136.376 49.1525 136.568C48.8725 136.752 48.6605 137.012 48.5165 137.348C48.3725 137.676 48.3005 138.06 48.3005 138.5V138.572C48.3005 139.308 48.4765 139.868 48.8285 140.252C49.1885 140.636 49.6965 140.828 50.3525 140.828C50.6245 140.828 50.8925 140.792 51.1565 140.72C51.4285 140.648 51.6925 140.528 51.9485 140.36C52.0605 140.288 52.1605 140.256 52.2485 140.264C52.3445 140.264 52.4205 140.292 52.4765 140.348C52.5325 140.396 52.5685 140.46 52.5845 140.54C52.6085 140.612 52.6005 140.692 52.5605 140.78C52.5285 140.868 52.4605 140.944 52.3565 141.008C52.0925 141.2 51.7805 141.348 51.4205 141.452C51.0605 141.556 50.7045 141.608 50.3525 141.608ZM54.6032 141.584C54.4432 141.584 54.3192 141.54 54.2312 141.452C54.1512 141.364 54.1112 141.24 54.1112 141.08V136.076C54.1112 135.916 54.1512 135.796 54.2312 135.716C54.3112 135.628 54.4272 135.584 54.5792 135.584C54.7312 135.584 54.8472 135.628 54.9272 135.716C55.0152 135.796 55.0592 135.916 55.0592 136.076V137.048H54.9392C55.0672 136.576 55.3112 136.212 55.6712 135.956C56.0312 135.7 56.4752 135.564 57.0032 135.548C57.1232 135.54 57.2192 135.568 57.2912 135.632C57.3632 135.688 57.4032 135.788 57.4112 135.932C57.4192 136.068 57.3872 136.176 57.3152 136.256C57.2432 136.336 57.1312 136.384 56.9792 136.4L56.7872 136.424C56.2432 136.472 55.8232 136.648 55.5272 136.952C55.2392 137.248 55.0952 137.656 55.0952 138.176V141.08C55.0952 141.24 55.0512 141.364 54.9632 141.452C54.8832 141.54 54.7632 141.584 54.6032 141.584ZM60.9697 141.608C60.3537 141.608 59.8217 141.488 59.3737 141.248C58.9337 141 58.5897 140.652 58.3417 140.204C58.1017 139.756 57.9817 139.22 57.9817 138.596C57.9817 137.988 58.1017 137.46 58.3417 137.012C58.5817 136.556 58.9097 136.2 59.3257 135.944C59.7497 135.688 60.2377 135.56 60.7897 135.56C61.1817 135.56 61.5337 135.628 61.8457 135.764C62.1577 135.892 62.4217 136.08 62.6377 136.328C62.8617 136.576 63.0297 136.876 63.1417 137.228C63.2617 137.58 63.3217 137.976 63.3217 138.416C63.3217 138.544 63.2857 138.64 63.2137 138.704C63.1417 138.76 63.0377 138.788 62.9017 138.788H58.7257V138.152H62.6737L62.4817 138.308C62.4817 137.876 62.4177 137.512 62.2897 137.216C62.1617 136.912 61.9737 136.68 61.7257 136.52C61.4857 136.36 61.1817 136.28 60.8137 136.28C60.4057 136.28 60.0577 136.376 59.7697 136.568C59.4897 136.752 59.2777 137.012 59.1337 137.348C58.9897 137.676 58.9177 138.06 58.9177 138.5V138.572C58.9177 139.308 59.0937 139.868 59.4457 140.252C59.8057 140.636 60.3137 140.828 60.9697 140.828C61.2417 140.828 61.5097 140.792 61.7737 140.72C62.0457 140.648 62.3097 140.528 62.5657 140.36C62.6777 140.288 62.7777 140.256 62.8657 140.264C62.9617 140.264 63.0377 140.292 63.0937 140.348C63.1497 140.396 63.1857 140.46 63.2017 140.54C63.2257 140.612 63.2177 140.692 63.1777 140.78C63.1457 140.868 63.0777 140.944 62.9737 141.008C62.7097 141.2 62.3977 141.348 62.0377 141.452C61.6777 141.556 61.3217 141.608 60.9697 141.608ZM65.1964 141.548C64.9964 141.548 64.8364 141.488 64.7164 141.368C64.5964 141.24 64.5364 141.08 64.5364 140.888C64.5364 140.696 64.5964 140.54 64.7164 140.42C64.8364 140.292 64.9964 140.228 65.1964 140.228C65.3964 140.228 65.5524 140.292 65.6644 140.42C65.7844 140.54 65.8444 140.696 65.8444 140.888C65.8444 141.08 65.7844 141.24 65.6644 141.368C65.5524 141.488 65.3964 141.548 65.1964 141.548Z" fill="#929BAA"/>
<path d="M2.608 106.084C2.408 106.084 2.252 106.028 2.14 105.916C2.036 105.804 1.984 105.648 1.984 105.448V98.176C1.984 97.968 2.04 97.812 2.152 97.708C2.264 97.596 2.42 97.54 2.62 97.54H5.488C6.4 97.54 7.104 97.768 7.6 98.224C8.096 98.672 8.344 99.304 8.344 100.12C8.344 100.944 8.096 101.584 7.6 102.04C7.104 102.488 6.4 102.712 5.488 102.712H3.232V105.448C3.232 105.648 3.18 105.804 3.076 105.916C2.972 106.028 2.816 106.084 2.608 106.084ZM3.232 101.716H5.308C5.908 101.716 6.36 101.584 6.664 101.32C6.976 101.048 7.132 100.648 7.132 100.12C7.132 99.6 6.976 99.208 6.664 98.944C6.36 98.672 5.908 98.536 5.308 98.536H3.232V101.716ZM10.046 106.084C9.84603 106.084 9.69403 106.032 9.59003 105.928C9.48603 105.816 9.43403 105.664 9.43403 105.472V100.672C9.43403 100.472 9.48603 100.32 9.59003 100.216C9.69403 100.112 9.83803 100.06 10.022 100.06C10.214 100.06 10.358 100.112 10.454 100.216C10.558 100.32 10.61 100.472 10.61 100.672V101.548H10.49C10.618 101.068 10.854 100.704 11.198 100.456C11.542 100.208 11.982 100.064 12.518 100.024C12.662 100.016 12.774 100.052 12.854 100.132C12.942 100.212 12.99 100.336 12.998 100.504C13.014 100.672 12.978 100.808 12.89 100.912C12.802 101.008 12.666 101.064 12.482 101.08L12.254 101.104C11.734 101.152 11.338 101.316 11.066 101.596C10.794 101.876 10.658 102.26 10.658 102.748V105.472C10.658 105.664 10.606 105.816 10.502 105.928C10.406 106.032 10.254 106.084 10.046 106.084ZM16.3726 106.108C15.7806 106.108 15.2686 105.984 14.8366 105.736C14.4126 105.488 14.0806 105.136 13.8406 104.68C13.6006 104.224 13.4806 103.688 13.4806 103.072C13.4806 102.6 13.5486 102.18 13.6846 101.812C13.8206 101.444 14.0126 101.128 14.2606 100.864C14.5166 100.592 14.8206 100.388 15.1726 100.252C15.5326 100.108 15.9326 100.036 16.3726 100.036C16.9566 100.036 17.4606 100.16 17.8846 100.408C18.3166 100.656 18.6526 101.008 18.8926 101.464C19.1326 101.912 19.2526 102.448 19.2526 103.072C19.2526 103.536 19.1846 103.956 19.0486 104.332C18.9126 104.708 18.7166 105.028 18.4606 105.292C18.2126 105.556 17.9086 105.76 17.5486 105.904C17.1966 106.04 16.8046 106.108 16.3726 106.108ZM16.3726 105.172C16.7006 105.172 16.9886 105.092 17.2366 104.932C17.4846 104.772 17.6766 104.536 17.8126 104.224C17.9566 103.912 18.0286 103.528 18.0286 103.072C18.0286 102.384 17.8766 101.864 17.5726 101.512C17.2686 101.16 16.8686 100.984 16.3726 100.984C16.0366 100.984 15.7446 101.064 15.4966 101.224C15.2486 101.376 15.0526 101.608 14.9086 101.92C14.7726 102.232 14.7046 102.616 14.7046 103.072C14.7046 103.752 14.8566 104.272 15.1606 104.632C15.4646 104.992 15.8686 105.172 16.3726 105.172ZM19.6777 108.28C19.5337 108.288 19.4177 108.264 19.3297 108.208C19.2337 108.152 19.1697 108.08 19.1377 107.992C19.0977 107.904 19.0857 107.812 19.1017 107.716C19.1097 107.628 19.1497 107.548 19.2217 107.476C19.2857 107.412 19.3737 107.376 19.4857 107.368C19.8857 107.344 20.1777 107.236 20.3617 107.044C20.5537 106.852 20.6497 106.548 20.6497 106.132V100.672C20.6497 100.472 20.7017 100.32 20.8057 100.216C20.9177 100.112 21.0697 100.06 21.2617 100.06C21.4617 100.06 21.6097 100.112 21.7057 100.216C21.8097 100.32 21.8617 100.472 21.8617 100.672V106.036C21.8617 106.532 21.7777 106.94 21.6097 107.26C21.4497 107.588 21.2097 107.832 20.8897 107.992C20.5697 108.152 20.1657 108.248 19.6777 108.28ZM21.2617 98.836C21.0217 98.836 20.8337 98.776 20.6977 98.656C20.5697 98.536 20.5057 98.368 20.5057 98.152C20.5057 97.928 20.5697 97.76 20.6977 97.648C20.8337 97.528 21.0217 97.468 21.2617 97.468C21.5017 97.468 21.6857 97.528 21.8137 97.648C21.9417 97.76 22.0057 97.928 22.0057 98.152C22.0057 98.368 21.9417 98.536 21.8137 98.656C21.6857 98.776 21.5017 98.836 21.2617 98.836ZM26.3148 106.108C25.6748 106.108 25.1228 105.988 24.6588 105.748C24.2028 105.5 23.8468 105.152 23.5908 104.704C23.3428 104.248 23.2188 103.708 23.2188 103.084C23.2188 102.476 23.3428 101.944 23.5908 101.488C23.8388 101.032 24.1788 100.676 24.6108 100.42C25.0428 100.164 25.5348 100.036 26.0868 100.036C26.4948 100.036 26.8588 100.104 27.1788 100.24C27.4988 100.368 27.7708 100.56 27.9948 100.816C28.2268 101.064 28.3988 101.368 28.5108 101.728C28.6308 102.088 28.6908 102.492 28.6908 102.94C28.6908 103.076 28.6508 103.18 28.5708 103.252C28.4908 103.316 28.3708 103.348 28.2108 103.348H24.1788V102.604H27.8748L27.6708 102.772C27.6708 102.372 27.6108 102.032 27.4908 101.752C27.3788 101.472 27.2068 101.26 26.9748 101.116C26.7508 100.964 26.4708 100.888 26.1348 100.888C25.7588 100.888 25.4388 100.976 25.1748 101.152C24.9188 101.328 24.7228 101.572 24.5868 101.884C24.4508 102.196 24.3828 102.56 24.3828 102.976V103.048C24.3828 103.752 24.5468 104.284 24.8748 104.644C25.2108 104.996 25.6948 105.172 26.3268 105.172C26.5668 105.172 26.8188 105.14 27.0828 105.076C27.3548 105.012 27.6108 104.904 27.8508 104.752C27.9868 104.672 28.1068 104.636 28.2108 104.644C28.3228 104.652 28.4108 104.688 28.4748 104.752C28.5468 104.816 28.5908 104.896 28.6068 104.992C28.6228 105.088 28.6068 105.188 28.5588 105.292C28.5108 105.388 28.4268 105.476 28.3068 105.556C28.0348 105.74 27.7188 105.88 27.3588 105.976C26.9988 106.064 26.6508 106.108 26.3148 106.108ZM32.5922 106.108C31.9922 106.108 31.4722 105.984 31.0322 105.736C30.6002 105.48 30.2642 105.124 30.0242 104.668C29.7842 104.204 29.6642 103.66 29.6642 103.036C29.6642 102.572 29.7322 102.156 29.8682 101.788C30.0042 101.412 30.1962 101.096 30.4442 100.84C30.7002 100.584 31.0082 100.388 31.3682 100.252C31.7362 100.108 32.1442 100.036 32.5922 100.036C32.8722 100.036 33.1642 100.08 33.4682 100.168C33.7802 100.248 34.0682 100.384 34.3322 100.576C34.4362 100.64 34.5002 100.72 34.5242 100.816C34.5562 100.904 34.5602 100.996 34.5362 101.092C34.5202 101.188 34.4762 101.272 34.4042 101.344C34.3402 101.408 34.2602 101.448 34.1642 101.464C34.0682 101.472 33.9642 101.444 33.8522 101.38C33.6602 101.244 33.4642 101.148 33.2642 101.092C33.0642 101.028 32.8722 100.996 32.6882 100.996C32.4002 100.996 32.1442 101.044 31.9202 101.14C31.7042 101.228 31.5202 101.36 31.3682 101.536C31.2162 101.704 31.1002 101.916 31.0202 102.172C30.9482 102.428 30.9122 102.72 30.9122 103.048C30.9122 103.704 31.0642 104.22 31.3682 104.596C31.6802 104.964 32.1202 105.148 32.6882 105.148C32.8722 105.148 33.0642 105.12 33.2642 105.064C33.4642 105.008 33.6602 104.912 33.8522 104.776C33.9642 104.712 34.0682 104.688 34.1642 104.704C34.2602 104.72 34.3362 104.764 34.3922 104.836C34.4562 104.9 34.4962 104.98 34.5122 105.076C34.5362 105.164 34.5322 105.256 34.5002 105.352C34.4682 105.448 34.4002 105.528 34.2962 105.592C34.0402 105.776 33.7602 105.908 33.4562 105.988C33.1602 106.068 32.8722 106.108 32.5922 106.108ZM38.1214 106.108C37.6414 106.108 37.2374 106.024 36.9094 105.856C36.5814 105.688 36.3374 105.44 36.1774 105.112C36.0174 104.784 35.9374 104.384 35.9374 103.912V101.08H35.2174C35.0574 101.08 34.9334 101.04 34.8454 100.96C34.7574 100.872 34.7134 100.756 34.7134 100.612C34.7134 100.46 34.7574 100.344 34.8454 100.264C34.9334 100.184 35.0574 100.144 35.2174 100.144H35.9374V98.908C35.9374 98.708 35.9894 98.556 36.0934 98.452C36.2054 98.348 36.3574 98.296 36.5494 98.296C36.7414 98.296 36.8894 98.348 36.9934 98.452C37.0974 98.556 37.1494 98.708 37.1494 98.908V100.144H38.5534C38.7134 100.144 38.8374 100.184 38.9254 100.264C39.0134 100.344 39.0574 100.46 39.0574 100.612C39.0574 100.756 39.0134 100.872 38.9254 100.96C38.8374 101.04 38.7134 101.08 38.5534 101.08H37.1494V103.816C37.1494 104.24 37.2374 104.56 37.4134 104.776C37.5974 104.992 37.8934 105.1 38.3014 105.1C38.4454 105.1 38.5694 105.088 38.6734 105.064C38.7854 105.032 38.8774 105.012 38.9494 105.004C39.0374 105.004 39.1094 105.036 39.1654 105.1C39.2214 105.156 39.2494 105.268 39.2494 105.436C39.2494 105.556 39.2254 105.668 39.1774 105.772C39.1374 105.876 39.0614 105.944 38.9494 105.976C38.8534 106.008 38.7214 106.036 38.5534 106.06C38.3934 106.092 38.2494 106.108 38.1214 106.108ZM43.8923 106.084C43.7083 106.084 43.5643 106.032 43.4603 105.928C43.3563 105.824 43.3043 105.676 43.3043 105.484V98.08C43.3043 97.88 43.3523 97.728 43.4483 97.624C43.5523 97.512 43.6883 97.456 43.8563 97.456C44.0003 97.456 44.1083 97.484 44.1803 97.54C44.2603 97.588 44.3523 97.68 44.4563 97.816L49.4003 104.332H49.1003V98.044C49.1003 97.86 49.1483 97.716 49.2443 97.612C49.3483 97.508 49.4923 97.456 49.6763 97.456C49.8683 97.456 50.0123 97.508 50.1083 97.612C50.2043 97.716 50.2523 97.86 50.2523 98.044V105.496C50.2523 105.68 50.2043 105.824 50.1083 105.928C50.0203 106.032 49.9003 106.084 49.7483 106.084C49.6043 106.084 49.4843 106.056 49.3883 106C49.3003 105.944 49.2043 105.848 49.1003 105.712L44.1803 99.208H44.4563V105.484C44.4563 105.676 44.4083 105.824 44.3123 105.928C44.2163 106.032 44.0763 106.084 43.8923 106.084ZM53.9623 106.108C53.5543 106.108 53.1863 106.028 52.8583 105.868C52.5383 105.708 52.2863 105.492 52.1023 105.22C51.9183 104.948 51.8263 104.64 51.8263 104.296C51.8263 103.864 51.9343 103.524 52.1503 103.276C52.3743 103.02 52.7383 102.84 53.2423 102.736C53.7543 102.624 54.4423 102.568 55.3063 102.568H55.8703V103.312H55.3183C54.7423 103.312 54.2863 103.34 53.9503 103.396C53.6143 103.452 53.3743 103.548 53.2303 103.684C53.0943 103.812 53.0263 103.992 53.0263 104.224C53.0263 104.528 53.1303 104.776 53.3383 104.968C53.5463 105.152 53.8343 105.244 54.2023 105.244C54.4983 105.244 54.7583 105.176 54.9823 105.04C55.2063 104.896 55.3823 104.704 55.5103 104.464C55.6463 104.224 55.7143 103.948 55.7143 103.636V102.256C55.7143 101.8 55.6183 101.472 55.4263 101.272C55.2343 101.072 54.9183 100.972 54.4783 100.972C54.2223 100.972 53.9543 101.004 53.6743 101.068C53.4023 101.132 53.1183 101.24 52.8223 101.392C52.6863 101.456 52.5703 101.476 52.4743 101.452C52.3783 101.428 52.3023 101.376 52.2463 101.296C52.1903 101.208 52.1583 101.116 52.1503 101.02C52.1503 100.916 52.1743 100.816 52.2223 100.72C52.2783 100.624 52.3703 100.552 52.4983 100.504C52.8503 100.336 53.1983 100.216 53.5423 100.144C53.8863 100.072 54.2103 100.036 54.5143 100.036C55.0503 100.036 55.4903 100.12 55.8343 100.288C56.1863 100.456 56.4463 100.712 56.6143 101.056C56.7823 101.4 56.8663 101.844 56.8663 102.388V105.472C56.8663 105.664 56.8183 105.816 56.7223 105.928C56.6263 106.032 56.4863 106.084 56.3023 106.084C56.1263 106.084 55.9863 106.032 55.8823 105.928C55.7783 105.816 55.7263 105.664 55.7263 105.472V104.692H55.8343C55.7703 104.988 55.6503 105.244 55.4743 105.46C55.3063 105.668 55.0943 105.828 54.8383 105.94C54.5823 106.052 54.2903 106.108 53.9623 106.108ZM59.1596 106.084C58.9676 106.084 58.8196 106.032 58.7156 105.928C58.6116 105.816 58.5596 105.664 58.5596 105.472V100.672C58.5596 100.472 58.6116 100.32 58.7156 100.216C58.8196 100.112 58.9636 100.06 59.1476 100.06C59.3396 100.06 59.4836 100.112 59.5796 100.216C59.6836 100.32 59.7356 100.472 59.7356 100.672V101.656L59.6036 101.392C59.7636 100.968 60.0116 100.636 60.3476 100.396C60.6836 100.156 61.0876 100.036 61.5596 100.036C62.0476 100.036 62.4436 100.152 62.7476 100.384C63.0516 100.616 63.2596 100.972 63.3716 101.452H63.2036C63.3556 101.012 63.6156 100.668 63.9836 100.42C64.3516 100.164 64.7796 100.036 65.2676 100.036C65.7156 100.036 66.0836 100.124 66.3716 100.3C66.6596 100.468 66.8756 100.728 67.0196 101.08C67.1636 101.424 67.2356 101.86 67.2356 102.388V105.472C67.2356 105.664 67.1796 105.816 67.0676 105.928C66.9636 106.032 66.8156 106.084 66.6236 106.084C66.4316 106.084 66.2836 106.032 66.1796 105.928C66.0756 105.816 66.0236 105.664 66.0236 105.472V102.448C66.0236 101.952 65.9356 101.588 65.7596 101.356C65.5916 101.124 65.3116 101.008 64.9196 101.008C64.4796 101.008 64.1316 101.16 63.8756 101.464C63.6196 101.768 63.4916 102.188 63.4916 102.724V105.472C63.4916 105.664 63.4396 105.816 63.3356 105.928C63.2316 106.032 63.0836 106.084 62.8916 106.084C62.6996 106.084 62.5476 106.032 62.4356 105.928C62.3316 105.816 62.2796 105.664 62.2796 105.472V102.448C62.2796 101.952 62.1956 101.588 62.0276 101.356C61.8596 101.124 61.5796 101.008 61.1876 101.008C60.7476 101.008 60.3996 101.16 60.1436 101.464C59.8956 101.768 59.7716 102.188 59.7716 102.724V105.472C59.7716 105.88 59.5676 106.084 59.1596 106.084ZM71.6781 106.108C71.0381 106.108 70.4861 105.988 70.0221 105.748C69.5661 105.5 69.2101 105.152 68.9541 104.704C68.7061 104.248 68.5821 103.708 68.5821 103.084C68.5821 102.476 68.7061 101.944 68.9541 101.488C69.2021 101.032 69.5421 100.676 69.9741 100.42C70.4061 100.164 70.8981 100.036 71.4501 100.036C71.8581 100.036 72.2221 100.104 72.5421 100.24C72.8621 100.368 73.1341 100.56 73.3581 100.816C73.5901 101.064 73.7621 101.368 73.8741 101.728C73.9941 102.088 74.0541 102.492 74.0541 102.94C74.0541 103.076 74.0141 103.18 73.9341 103.252C73.8541 103.316 73.7341 103.348 73.5741 103.348H69.5421V102.604H73.2381L73.0341 102.772C73.0341 102.372 72.9741 102.032 72.8541 101.752C72.7421 101.472 72.5701 101.26 72.3381 101.116C72.1141 100.964 71.8341 100.888 71.4981 100.888C71.1221 100.888 70.8021 100.976 70.5381 101.152C70.2821 101.328 70.0861 101.572 69.9501 101.884C69.8141 102.196 69.7461 102.56 69.7461 102.976V103.048C69.7461 103.752 69.9101 104.284 70.2381 104.644C70.5741 104.996 71.0581 105.172 71.6901 105.172C71.9301 105.172 72.1821 105.14 72.4461 105.076C72.7181 105.012 72.9741 104.904 73.2141 104.752C73.3501 104.672 73.4701 104.636 73.5741 104.644C73.6861 104.652 73.7741 104.688 73.8381 104.752C73.9101 104.816 73.9541 104.896 73.9701 104.992C73.9861 105.088 73.9701 105.188 73.9221 105.292C73.8741 105.388 73.7901 105.476 73.6701 105.556C73.3981 105.74 73.0821 105.88 72.7221 105.976C72.3621 106.064 72.0141 106.108 71.6781 106.108Z" fill="#64728C"/>
<rect x="1.5" y="209.5" width="161" height="44" rx="11.5" fill="white"/>
<rect x="1.5" y="209.5" width="161" height="44" rx="11.5" stroke="#E8EAEF"/>
<path d="M14.612 235.584C14.46 235.584 14.34 235.54 14.252 235.452C14.164 235.356 14.12 235.228 14.12 235.068V227.892H11.42C11.276 227.892 11.164 227.852 11.084 227.772C11.004 227.692 10.964 227.588 10.964 227.46C10.964 227.324 11.004 227.22 11.084 227.148C11.164 227.076 11.276 227.04 11.42 227.04H17.816C17.96 227.04 18.072 227.076 18.152 227.148C18.232 227.22 18.272 227.324 18.272 227.46C18.272 227.596 18.232 227.704 18.152 227.784C18.072 227.856 17.96 227.892 17.816 227.892H15.116V235.068C15.116 235.228 15.072 235.356 14.984 235.452C14.904 235.54 14.78 235.584 14.612 235.584ZM19.5596 237.744C19.4396 237.744 19.3436 237.712 19.2716 237.648C19.1996 237.584 19.1556 237.496 19.1396 237.384C19.1316 237.28 19.1516 237.172 19.1996 237.06L20.0276 235.2V235.62L17.7236 230.268C17.6756 230.148 17.6596 230.036 17.6756 229.932C17.6916 229.828 17.7396 229.744 17.8196 229.68C17.8996 229.616 18.0116 229.584 18.1556 229.584C18.2836 229.584 18.3836 229.612 18.4556 229.668C18.5276 229.724 18.5916 229.824 18.6476 229.968L20.6156 234.792H20.2916L22.2836 229.968C22.3476 229.824 22.4156 229.724 22.4876 229.668C22.5596 229.612 22.6636 229.584 22.7996 229.584C22.9276 229.584 23.0236 229.616 23.0876 229.68C23.1596 229.744 23.1996 229.828 23.2076 229.932C23.2236 230.028 23.2076 230.136 23.1596 230.256L20.0876 237.36C20.0236 237.504 19.9516 237.604 19.8716 237.66C19.7996 237.716 19.6956 237.744 19.5596 237.744ZM24.9076 237.744C24.7476 237.744 24.6276 237.7 24.5476 237.612C24.4676 237.532 24.4276 237.412 24.4276 237.252V230.076C24.4276 229.916 24.4676 229.796 24.5476 229.716C24.6276 229.628 24.7436 229.584 24.8956 229.584C25.0556 229.584 25.1756 229.628 25.2556 229.716C25.3436 229.796 25.3876 229.916 25.3876 230.076V231.216L25.2556 231.048C25.3836 230.592 25.6356 230.232 26.0116 229.968C26.3956 229.696 26.8516 229.56 27.3796 229.56C27.8996 229.56 28.3516 229.684 28.7356 229.932C29.1276 230.172 29.4276 230.52 29.6356 230.976C29.8516 231.424 29.9596 231.96 29.9596 232.584C29.9596 233.2 29.8516 233.736 29.6356 234.192C29.4276 234.64 29.1316 234.988 28.7476 235.236C28.3636 235.484 27.9076 235.608 27.3796 235.608C26.8516 235.608 26.3996 235.476 26.0236 235.212C25.6476 234.94 25.3916 234.58 25.2556 234.132H25.3996V237.252C25.3996 237.412 25.3556 237.532 25.2676 237.612C25.1796 237.7 25.0596 237.744 24.9076 237.744ZM27.1756 234.828C27.5436 234.828 27.8596 234.74 28.1236 234.564C28.3956 234.388 28.6036 234.132 28.7476 233.796C28.8996 233.46 28.9756 233.056 28.9756 232.584C28.9756 231.856 28.8116 231.3 28.4836 230.916C28.1636 230.532 27.7276 230.34 27.1756 230.34C26.8156 230.34 26.4996 230.428 26.2276 230.604C25.9556 230.772 25.7436 231.024 25.5916 231.36C25.4476 231.688 25.3756 232.096 25.3756 232.584C25.3756 233.304 25.5396 233.86 25.8676 234.252C26.1956 234.636 26.6316 234.828 27.1756 234.828ZM34.0517 235.608C33.4357 235.608 32.9037 235.488 32.4557 235.248C32.0157 235 31.6717 234.652 31.4237 234.204C31.1837 233.756 31.0637 233.22 31.0637 232.596C31.0637 231.988 31.1837 231.46 31.4237 231.012C31.6637 230.556 31.9917 230.2 32.4077 229.944C32.8317 229.688 33.3197 229.56 33.8717 229.56C34.2637 229.56 34.6157 229.628 34.9277 229.764C35.2397 229.892 35.5037 230.08 35.7197 230.328C35.9437 230.576 36.1117 230.876 36.2237 231.228C36.3437 231.58 36.4037 231.976 36.4037 232.416C36.4037 232.544 36.3677 232.64 36.2957 232.704C36.2237 232.76 36.1197 232.788 35.9837 232.788H31.8077V232.152H35.7557L35.5637 232.308C35.5637 231.876 35.4997 231.512 35.3717 231.216C35.2437 230.912 35.0557 230.68 34.8077 230.52C34.5677 230.36 34.2637 230.28 33.8957 230.28C33.4877 230.28 33.1397 230.376 32.8517 230.568C32.5717 230.752 32.3597 231.012 32.2157 231.348C32.0717 231.676 31.9997 232.06 31.9997 232.5V232.572C31.9997 233.308 32.1757 233.868 32.5277 234.252C32.8877 234.636 33.3957 234.828 34.0517 234.828C34.3237 234.828 34.5917 234.792 34.8557 234.72C35.1277 234.648 35.3917 234.528 35.6477 234.36C35.7597 234.288 35.8597 234.256 35.9477 234.264C36.0437 234.264 36.1197 234.292 36.1757 234.348C36.2317 234.396 36.2677 234.46 36.2837 234.54C36.3077 234.612 36.2997 234.692 36.2597 234.78C36.2277 234.868 36.1597 234.944 36.0557 235.008C35.7917 235.2 35.4797 235.348 35.1197 235.452C34.7597 235.556 34.4037 235.608 34.0517 235.608ZM41.3842 235.584C41.2242 235.584 41.1042 235.54 41.0242 235.452C40.9442 235.364 40.9042 235.24 40.9042 235.08V227.448C40.9042 227.288 40.9442 227.168 41.0242 227.088C41.1042 227 41.2242 226.956 41.3842 226.956C41.5362 226.956 41.6562 227 41.7442 227.088C41.8322 227.168 41.8762 227.288 41.8762 227.448V230.964H41.7202C41.8882 230.5 42.1602 230.152 42.5362 229.92C42.9202 229.68 43.3602 229.56 43.8562 229.56C44.3202 229.56 44.7042 229.644 45.0082 229.812C45.3202 229.98 45.5522 230.236 45.7042 230.58C45.8562 230.916 45.9322 231.344 45.9322 231.864V235.08C45.9322 235.24 45.8882 235.364 45.8002 235.452C45.7202 235.54 45.6042 235.584 45.4522 235.584C45.2922 235.584 45.1682 235.54 45.0802 235.452C45.0002 235.364 44.9602 235.24 44.9602 235.08V231.924C44.9602 231.38 44.8522 230.984 44.6362 230.736C44.4282 230.48 44.0922 230.352 43.6282 230.352C43.0922 230.352 42.6642 230.52 42.3442 230.856C42.0322 231.184 41.8762 231.624 41.8762 232.176V235.08C41.8762 235.416 41.7122 235.584 41.3842 235.584ZM50.3525 235.608C49.7365 235.608 49.2045 235.488 48.7565 235.248C48.3165 235 47.9725 234.652 47.7245 234.204C47.4845 233.756 47.3645 233.22 47.3645 232.596C47.3645 231.988 47.4845 231.46 47.7245 231.012C47.9645 230.556 48.2925 230.2 48.7085 229.944C49.1325 229.688 49.6205 229.56 50.1725 229.56C50.5645 229.56 50.9165 229.628 51.2285 229.764C51.5405 229.892 51.8045 230.08 52.0205 230.328C52.2445 230.576 52.4125 230.876 52.5245 231.228C52.6445 231.58 52.7045 231.976 52.7045 232.416C52.7045 232.544 52.6685 232.64 52.5965 232.704C52.5245 232.76 52.4205 232.788 52.2845 232.788H48.1085V232.152H52.0565L51.8645 232.308C51.8645 231.876 51.8005 231.512 51.6725 231.216C51.5445 230.912 51.3565 230.68 51.1085 230.52C50.8685 230.36 50.5645 230.28 50.1965 230.28C49.7885 230.28 49.4405 230.376 49.1525 230.568C48.8725 230.752 48.6605 231.012 48.5165 231.348C48.3725 231.676 48.3005 232.06 48.3005 232.5V232.572C48.3005 233.308 48.4765 233.868 48.8285 234.252C49.1885 234.636 49.6965 234.828 50.3525 234.828C50.6245 234.828 50.8925 234.792 51.1565 234.72C51.4285 234.648 51.6925 234.528 51.9485 234.36C52.0605 234.288 52.1605 234.256 52.2485 234.264C52.3445 234.264 52.4205 234.292 52.4765 234.348C52.5325 234.396 52.5685 234.46 52.5845 234.54C52.6085 234.612 52.6005 234.692 52.5605 234.78C52.5285 234.868 52.4605 234.944 52.3565 235.008C52.0925 235.2 51.7805 235.348 51.4205 235.452C51.0605 235.556 50.7045 235.608 50.3525 235.608ZM54.6032 235.584C54.4432 235.584 54.3192 235.54 54.2312 235.452C54.1512 235.364 54.1112 235.24 54.1112 235.08V230.076C54.1112 229.916 54.1512 229.796 54.2312 229.716C54.3112 229.628 54.4272 229.584 54.5792 229.584C54.7312 229.584 54.8472 229.628 54.9272 229.716C55.0152 229.796 55.0592 229.916 55.0592 230.076V231.048H54.9392C55.0672 230.576 55.3112 230.212 55.6712 229.956C56.0312 229.7 56.4752 229.564 57.0032 229.548C57.1232 229.54 57.2192 229.568 57.2912 229.632C57.3632 229.688 57.4032 229.788 57.4112 229.932C57.4192 230.068 57.3872 230.176 57.3152 230.256C57.2432 230.336 57.1312 230.384 56.9792 230.4L56.7872 230.424C56.2432 230.472 55.8232 230.648 55.5272 230.952C55.2392 231.248 55.0952 231.656 55.0952 232.176V235.08C55.0952 235.24 55.0512 235.364 54.9632 235.452C54.8832 235.54 54.7632 235.584 54.6032 235.584ZM60.9697 235.608C60.3537 235.608 59.8217 235.488 59.3737 235.248C58.9337 235 58.5897 234.652 58.3417 234.204C58.1017 233.756 57.9817 233.22 57.9817 232.596C57.9817 231.988 58.1017 231.46 58.3417 231.012C58.5817 230.556 58.9097 230.2 59.3257 229.944C59.7497 229.688 60.2377 229.56 60.7897 229.56C61.1817 229.56 61.5337 229.628 61.8457 229.764C62.1577 229.892 62.4217 230.08 62.6377 230.328C62.8617 230.576 63.0297 230.876 63.1417 231.228C63.2617 231.58 63.3217 231.976 63.3217 232.416C63.3217 232.544 63.2857 232.64 63.2137 232.704C63.1417 232.76 63.0377 232.788 62.9017 232.788H58.7257V232.152H62.6737L62.4817 232.308C62.4817 231.876 62.4177 231.512 62.2897 231.216C62.1617 230.912 61.9737 230.68 61.7257 230.52C61.4857 230.36 61.1817 230.28 60.8137 230.28C60.4057 230.28 60.0577 230.376 59.7697 230.568C59.4897 230.752 59.2777 231.012 59.1337 231.348C58.9897 231.676 58.9177 232.06 58.9177 232.5V232.572C58.9177 233.308 59.0937 233.868 59.4457 234.252C59.8057 234.636 60.3137 234.828 60.9697 234.828C61.2417 234.828 61.5097 234.792 61.7737 234.72C62.0457 234.648 62.3097 234.528 62.5657 234.36C62.6777 234.288 62.7777 234.256 62.8657 234.264C62.9617 234.264 63.0377 234.292 63.0937 234.348C63.1497 234.396 63.1857 234.46 63.2017 234.54C63.2257 234.612 63.2177 234.692 63.1777 234.78C63.1457 234.868 63.0777 234.944 62.9737 235.008C62.7097 235.2 62.3977 235.348 62.0377 235.452C61.6777 235.556 61.3217 235.608 60.9697 235.608ZM65.1964 235.548C64.9964 235.548 64.8364 235.488 64.7164 235.368C64.5964 235.24 64.5364 235.08 64.5364 234.888C64.5364 234.696 64.5964 234.54 64.7164 234.42C64.8364 234.292 64.9964 234.228 65.1964 234.228C65.3964 234.228 65.5524 234.292 65.6644 234.42C65.7844 234.54 65.8444 234.696 65.8444 234.888C65.8444 235.08 65.7844 235.24 65.6644 235.368C65.5524 235.488 65.3964 235.548 65.1964 235.548Z" fill="#929BAA"/>
<path d="M4.672 200.084C4.472 200.084 4.316 200.028 4.204 199.916C4.1 199.804 4.048 199.648 4.048 199.448V192.584H1.504C1.336 192.584 1.204 192.54 1.108 192.452C1.012 192.356 0.964 192.224 0.964 192.056C0.964 191.888 1.012 191.76 1.108 191.672C1.204 191.584 1.336 191.54 1.504 191.54H7.828C8.004 191.54 8.14 191.584 8.236 191.672C8.332 191.76 8.38 191.888 8.38 192.056C8.38 192.224 8.332 192.356 8.236 192.452C8.14 192.54 8.004 192.584 7.828 192.584H5.284V199.448C5.284 199.648 5.232 199.804 5.128 199.916C5.032 200.028 4.88 200.084 4.672 200.084ZM11.0102 200.108C10.3702 200.108 9.81816 199.988 9.35416 199.748C8.89816 199.5 8.54216 199.152 8.28616 198.704C8.03816 198.248 7.91416 197.708 7.91416 197.084C7.91416 196.476 8.03816 195.944 8.28616 195.488C8.53416 195.032 8.87416 194.676 9.30616 194.42C9.73816 194.164 10.2302 194.036 10.7822 194.036C11.1902 194.036 11.5542 194.104 11.8742 194.24C12.1942 194.368 12.4662 194.56 12.6902 194.816C12.9222 195.064 13.0942 195.368 13.2062 195.728C13.3262 196.088 13.3862 196.492 13.3862 196.94C13.3862 197.076 13.3462 197.18 13.2662 197.252C13.1862 197.316 13.0662 197.348 12.9062 197.348H8.87416V196.604H12.5702L12.3662 196.772C12.3662 196.372 12.3062 196.032 12.1862 195.752C12.0742 195.472 11.9022 195.26 11.6702 195.116C11.4462 194.964 11.1662 194.888 10.8302 194.888C10.4542 194.888 10.1342 194.976 9.87016 195.152C9.61416 195.328 9.41816 195.572 9.28216 195.884C9.14616 196.196 9.07816 196.56 9.07816 196.976V197.048C9.07816 197.752 9.24216 198.284 9.57016 198.644C9.90616 198.996 10.3902 199.172 11.0222 199.172C11.2622 199.172 11.5142 199.14 11.7782 199.076C12.0502 199.012 12.3062 198.904 12.5462 198.752C12.6822 198.672 12.8022 198.636 12.9062 198.644C13.0182 198.652 13.1062 198.688 13.1702 198.752C13.2422 198.816 13.2862 198.896 13.3022 198.992C13.3182 199.088 13.3022 199.188 13.2542 199.292C13.2062 199.388 13.1222 199.476 13.0022 199.556C12.7302 199.74 12.4142 199.88 12.0542 199.976C11.6942 200.064 11.3462 200.108 11.0102 200.108ZM16.5795 200.108C16.1715 200.108 15.8035 200.028 15.4755 199.868C15.1555 199.708 14.9035 199.492 14.7195 199.22C14.5355 198.948 14.4435 198.64 14.4435 198.296C14.4435 197.864 14.5515 197.524 14.7675 197.276C14.9915 197.02 15.3555 196.84 15.8595 196.736C16.3715 196.624 17.0595 196.568 17.9235 196.568H18.4875V197.312H17.9355C17.3595 197.312 16.9035 197.34 16.5675 197.396C16.2315 197.452 15.9915 197.548 15.8475 197.684C15.7115 197.812 15.6435 197.992 15.6435 198.224C15.6435 198.528 15.7475 198.776 15.9555 198.968C16.1635 199.152 16.4515 199.244 16.8195 199.244C17.1155 199.244 17.3755 199.176 17.5995 199.04C17.8235 198.896 17.9995 198.704 18.1275 198.464C18.2635 198.224 18.3315 197.948 18.3315 197.636V196.256C18.3315 195.8 18.2355 195.472 18.0435 195.272C17.8515 195.072 17.5355 194.972 17.0955 194.972C16.8395 194.972 16.5715 195.004 16.2915 195.068C16.0195 195.132 15.7355 195.24 15.4395 195.392C15.3035 195.456 15.1875 195.476 15.0915 195.452C14.9955 195.428 14.9195 195.376 14.8635 195.296C14.8075 195.208 14.7755 195.116 14.7675 195.02C14.7675 194.916 14.7915 194.816 14.8395 194.72C14.8955 194.624 14.9875 194.552 15.1155 194.504C15.4675 194.336 15.8155 194.216 16.1595 194.144C16.5035 194.072 16.8275 194.036 17.1315 194.036C17.6675 194.036 18.1075 194.12 18.4515 194.288C18.8035 194.456 19.0635 194.712 19.2315 195.056C19.3995 195.4 19.4835 195.844 19.4835 196.388V199.472C19.4835 199.664 19.4355 199.816 19.3395 199.928C19.2435 200.032 19.1035 200.084 18.9195 200.084C18.7435 200.084 18.6035 200.032 18.4995 199.928C18.3955 199.816 18.3435 199.664 18.3435 199.472V198.692H18.4515C18.3875 198.988 18.2675 199.244 18.0915 199.46C17.9235 199.668 17.7115 199.828 17.4555 199.94C17.1995 200.052 16.9075 200.108 16.5795 200.108ZM21.7768 200.084C21.5848 200.084 21.4368 200.032 21.3328 199.928C21.2288 199.816 21.1768 199.664 21.1768 199.472V194.672C21.1768 194.472 21.2288 194.32 21.3328 194.216C21.4368 194.112 21.5808 194.06 21.7648 194.06C21.9568 194.06 22.1008 194.112 22.1968 194.216C22.3008 194.32 22.3528 194.472 22.3528 194.672V195.656L22.2208 195.392C22.3808 194.968 22.6288 194.636 22.9648 194.396C23.3008 194.156 23.7048 194.036 24.1768 194.036C24.6648 194.036 25.0608 194.152 25.3648 194.384C25.6688 194.616 25.8768 194.972 25.9888 195.452H25.8208C25.9728 195.012 26.2328 194.668 26.6008 194.42C26.9688 194.164 27.3968 194.036 27.8848 194.036C28.3328 194.036 28.7008 194.124 28.9888 194.3C29.2768 194.468 29.4928 194.728 29.6368 195.08C29.7808 195.424 29.8528 195.86 29.8528 196.388V199.472C29.8528 199.664 29.7968 199.816 29.6848 199.928C29.5808 200.032 29.4328 200.084 29.2408 200.084C29.0488 200.084 28.9008 200.032 28.7968 199.928C28.6928 199.816 28.6408 199.664 28.6408 199.472V196.448C28.6408 195.952 28.5528 195.588 28.3768 195.356C28.2088 195.124 27.9288 195.008 27.5368 195.008C27.0968 195.008 26.7488 195.16 26.4928 195.464C26.2368 195.768 26.1088 196.188 26.1088 196.724V199.472C26.1088 199.664 26.0568 199.816 25.9528 199.928C25.8488 200.032 25.7008 200.084 25.5088 200.084C25.3168 200.084 25.1648 200.032 25.0528 199.928C24.9488 199.816 24.8968 199.664 24.8968 199.472V196.448C24.8968 195.952 24.8128 195.588 24.6448 195.356C24.4768 195.124 24.1968 195.008 23.8048 195.008C23.3648 195.008 23.0168 195.16 22.7608 195.464C22.5128 195.768 22.3888 196.188 22.3888 196.724V199.472C22.3888 199.88 22.1848 200.084 21.7768 200.084ZM35.4674 200.084C35.2674 200.084 35.1114 200.028 34.9994 199.916C34.8954 199.804 34.8434 199.648 34.8434 199.448V192.092C34.8434 191.884 34.8954 191.728 34.9994 191.624C35.1114 191.512 35.2674 191.456 35.4674 191.456C35.6674 191.456 35.8194 191.512 35.9234 191.624C36.0354 191.728 36.0914 191.884 36.0914 192.092V199.448C36.0914 199.648 36.0394 199.804 35.9354 199.916C35.8314 200.028 35.6754 200.084 35.4674 200.084ZM38.7263 200C38.5103 200 38.3423 199.944 38.2223 199.832C38.1103 199.712 38.0543 199.544 38.0543 199.328V192.212C38.0543 191.996 38.1103 191.832 38.2223 191.72C38.3423 191.6 38.5103 191.54 38.7263 191.54H41.0423C42.4343 191.54 43.5063 191.904 44.2583 192.632C45.0183 193.352 45.3983 194.396 45.3983 195.764C45.3983 196.444 45.3023 197.048 45.1103 197.576C44.9183 198.104 44.6343 198.548 44.2583 198.908C43.8903 199.26 43.4383 199.532 42.9023 199.724C42.3663 199.908 41.7463 200 41.0423 200H38.7263ZM39.3023 198.956H40.9703C41.4983 198.956 41.9543 198.892 42.3383 198.764C42.7303 198.628 43.0583 198.428 43.3223 198.164C43.5863 197.9 43.7823 197.568 43.9103 197.168C44.0383 196.768 44.1023 196.3 44.1023 195.764C44.1023 194.7 43.8383 193.904 43.3103 193.376C42.7903 192.848 42.0103 192.584 40.9703 192.584H39.3023V198.956Z" fill="#64728C"/>
</svg>
