<svg width="397" height="71" viewBox="0 0 397 71" fill="none" xmlns="http://www.w3.org/2000/svg">
<rect width="397" height="71" rx="16" fill="#057FF0" fill-opacity="0.05"/>
<rect x="0.5" y="0.5" width="396" height="70" rx="15.5" stroke="#057FF0" stroke-opacity="0.05"/>
<path fill-rule="evenodd" clip-rule="evenodd" d="M38.1133 33.8043C41.6017 33.8043 44.4297 30.938 44.4297 27.4022C44.4297 23.8664 41.6017 21 38.1133 21C34.6248 21 31.7969 23.8664 31.7969 27.4022C31.7969 30.938 34.6248 33.8043 38.1133 33.8043ZM38.1133 31.2772C40.0973 31.2772 41.8516 29.6226 41.8516 27.4022C41.8516 25.1817 40.0973 23.5272 38.1133 23.5272C36.1293 23.5272 34.375 25.1817 34.375 27.4022C34.375 29.6226 36.1293 31.2772 38.1133 31.2772Z" fill="#057FF0"/>
<path fill-rule="evenodd" clip-rule="evenodd" d="M55 43.7867C55 48.3228 51.3641 52 46.8789 52C42.3938 52 38.7578 48.3228 38.7578 43.7867C38.7578 39.2506 42.3938 35.5734 46.8789 35.5734C51.3641 35.5734 55 39.2506 55 43.7867ZM45.7188 44.0394C45.7188 43.4113 46.2382 42.9022 46.8789 42.9022C47.5196 42.9022 48.0391 43.4113 48.0391 44.0394V47.7459C48.0391 48.374 47.5196 48.8832 46.8789 48.8832C46.2382 48.8832 45.7188 48.374 45.7188 47.7459V44.0394ZM46.8789 41.8913C47.5196 41.8913 48.0391 41.3633 48.0391 40.712C48.0391 40.0606 47.5196 39.5326 46.8789 39.5326C46.2382 39.5326 45.7188 40.0606 45.7188 40.712C45.7188 41.3633 46.2382 41.8913 46.8789 41.8913Z" fill="#057FF0"/>
<path d="M33.1335 37.841C35.1333 37.6369 36.529 37.6014 38.3296 37.8368C39.0353 37.929 39.6837 37.443 39.7778 36.7512C39.8718 36.0595 39.376 35.424 38.6704 35.3317C36.6038 35.0617 34.9917 35.1105 32.8665 35.3275C29.8584 35.6346 27.2165 36.4839 25.2871 37.7426C23.3702 38.9931 21.9998 40.7692 22 42.9074L22.0001 43.9965C22.0003 46.0912 23.733 47.788 25.869 47.788H36.9531C37.6651 47.788 38.2422 47.2223 38.2422 46.5245C38.2422 45.8266 37.6651 45.2609 36.9531 45.2609H25.869C25.1559 45.2609 24.5783 44.6945 24.5782 43.9963L24.5781 42.9071C24.578 41.9252 25.2056 40.8315 26.7155 39.8464C28.213 38.8695 30.4267 38.1174 33.1335 37.841Z" fill="#057FF0"/>
<path d="M75.32 41C74.968 41 74.696 40.9093 74.504 40.728C74.3227 40.536 74.232 40.264 74.232 39.912V30.808C74.232 30.456 74.3227 30.1893 74.504 30.008C74.696 29.816 74.968 29.72 75.32 29.72H81.032C81.2987 29.72 81.5013 29.7893 81.64 29.928C81.7893 30.0667 81.864 30.264 81.864 30.52C81.864 30.7867 81.7893 30.9947 81.64 31.144C81.5013 31.2827 81.2987 31.352 81.032 31.352H76.2V34.456H80.68C80.9573 34.456 81.1653 34.5253 81.304 34.664C81.4427 34.8027 81.512 35.0053 81.512 35.272C81.512 35.5387 81.4427 35.7413 81.304 35.88C81.1653 36.0187 80.9573 36.088 80.68 36.088H76.2V39.368H81.032C81.2987 39.368 81.5013 39.4373 81.64 39.576C81.7893 39.7147 81.864 39.9173 81.864 40.184C81.864 40.4507 81.7893 40.6533 81.64 40.792C81.5013 40.9307 81.2987 41 81.032 41H75.32ZM84.6109 41.128C84.2909 41.128 84.0455 41.0427 83.8749 40.872C83.7042 40.6907 83.6189 40.4347 83.6189 40.104V34.056C83.6189 33.7253 83.7042 33.4747 83.8749 33.304C84.0455 33.1333 84.2855 33.048 84.5949 33.048C84.9042 33.048 85.1442 33.1333 85.3149 33.304C85.4855 33.4747 85.5709 33.7253 85.5709 34.056V35.224L85.3949 34.744C85.6082 34.2107 85.9389 33.7893 86.3869 33.48C86.8349 33.1707 87.3682 33.016 87.9869 33.016C88.6162 33.016 89.1335 33.1653 89.5389 33.464C89.9442 33.7627 90.2269 34.2213 90.3869 34.84H90.1629C90.3762 34.2747 90.7282 33.832 91.2189 33.512C91.7095 33.1813 92.2749 33.016 92.9149 33.016C93.5122 33.016 94.0029 33.1333 94.3869 33.368C94.7815 33.6027 95.0749 33.96 95.2669 34.44C95.4589 34.9093 95.5549 35.5067 95.5549 36.232V40.104C95.5549 40.4347 95.4642 40.6907 95.2829 40.872C95.1122 41.0427 94.8669 41.128 94.5469 41.128C94.2269 41.128 93.9815 41.0427 93.8109 40.872C93.6402 40.6907 93.5549 40.4347 93.5549 40.104V36.312C93.5549 35.7147 93.4535 35.2773 93.2509 35C93.0589 34.7227 92.7282 34.584 92.2589 34.584C91.7362 34.584 91.3255 34.7707 91.0269 35.144C90.7282 35.5067 90.5789 36.0133 90.5789 36.664V40.104C90.5789 40.4347 90.4935 40.6907 90.3229 40.872C90.1522 41.0427 89.9069 41.128 89.5869 41.128C89.2669 41.128 89.0162 41.0427 88.8349 40.872C88.6642 40.6907 88.5789 40.4347 88.5789 40.104V36.312C88.5789 35.7147 88.4775 35.2773 88.2749 35C88.0829 34.7227 87.7575 34.584 87.2989 34.584C86.7762 34.584 86.3655 34.7707 86.0669 35.144C85.7682 35.5067 85.6189 36.0133 85.6189 36.664V40.104C85.6189 40.7867 85.2829 41.128 84.6109 41.128ZM98.6101 44.008C98.2901 44.008 98.0448 43.9227 97.8741 43.752C97.7035 43.5813 97.6181 43.3307 97.6181 43V34.056C97.6181 33.7253 97.7035 33.4747 97.8741 33.304C98.0448 33.1333 98.2848 33.048 98.5941 33.048C98.9141 33.048 99.1595 33.1333 99.3301 33.304C99.5008 33.4747 99.5861 33.7253 99.5861 34.056V35.304L99.4101 34.824C99.5701 34.28 99.8955 33.8427 100.386 33.512C100.887 33.1813 101.469 33.016 102.13 33.016C102.813 33.016 103.41 33.1813 103.922 33.512C104.445 33.8427 104.85 34.312 105.138 34.92C105.426 35.5173 105.57 36.2373 105.57 37.08C105.57 37.912 105.426 38.6373 105.138 39.256C104.85 39.864 104.45 40.3333 103.938 40.664C103.426 40.9947 102.823 41.16 102.13 41.16C101.479 41.16 100.909 41 100.418 40.68C99.9275 40.3493 99.5968 39.9227 99.4261 39.4H99.6181V43C99.6181 43.3307 99.5275 43.5813 99.3461 43.752C99.1755 43.9227 98.9301 44.008 98.6101 44.008ZM101.57 39.64C101.965 39.64 102.311 39.544 102.61 39.352C102.909 39.16 103.138 38.8773 103.298 38.504C103.469 38.12 103.554 37.6453 103.554 37.08C103.554 36.2267 103.373 35.592 103.01 35.176C102.647 34.7493 102.167 34.536 101.57 34.536C101.175 34.536 100.829 34.632 100.53 34.824C100.231 35.0053 99.9968 35.288 99.8261 35.672C99.6661 36.0453 99.5861 36.5147 99.5861 37.08C99.5861 37.9227 99.7675 38.5627 100.13 39C100.493 39.4267 100.973 39.64 101.57 39.64ZM109.884 41.16C108.999 41.16 108.332 40.9093 107.884 40.408C107.436 39.896 107.212 39.1493 107.212 38.168V30.6C107.212 30.2693 107.297 30.0187 107.468 29.848C107.639 29.6773 107.884 29.592 108.204 29.592C108.524 29.592 108.769 29.6773 108.94 29.848C109.121 30.0187 109.212 30.2693 109.212 30.6V38.072C109.212 38.5627 109.313 38.9253 109.516 39.16C109.729 39.3947 110.028 39.512 110.412 39.512C110.497 39.512 110.577 39.512 110.652 39.512C110.727 39.5013 110.801 39.4907 110.876 39.48C111.025 39.4587 111.127 39.5013 111.18 39.608C111.233 39.704 111.26 39.9067 111.26 40.216C111.26 40.4827 111.207 40.6907 111.1 40.84C110.993 40.9893 110.817 41.08 110.572 41.112C110.465 41.1227 110.353 41.1333 110.236 41.144C110.119 41.1547 110.001 41.16 109.884 41.16ZM115.811 41.16C115 41.16 114.296 40.9947 113.699 40.664C113.102 40.3333 112.638 39.864 112.307 39.256C111.976 38.6373 111.811 37.912 111.811 37.08C111.811 36.4507 111.902 35.8907 112.083 35.4C112.275 34.8987 112.547 34.472 112.899 34.12C113.251 33.7573 113.672 33.4853 114.163 33.304C114.654 33.112 115.203 33.016 115.811 33.016C116.622 33.016 117.326 33.1813 117.923 33.512C118.52 33.8427 118.984 34.312 119.315 34.92C119.646 35.528 119.811 36.248 119.811 37.08C119.811 37.7093 119.715 38.2747 119.523 38.776C119.342 39.2773 119.075 39.7093 118.723 40.072C118.371 40.424 117.95 40.696 117.459 40.888C116.968 41.0693 116.419 41.16 115.811 41.16ZM115.811 39.64C116.206 39.64 116.552 39.544 116.851 39.352C117.15 39.16 117.379 38.8773 117.539 38.504C117.71 38.12 117.795 37.6453 117.795 37.08C117.795 36.2267 117.614 35.592 117.251 35.176C116.888 34.7493 116.408 34.536 115.811 34.536C115.416 34.536 115.07 34.632 114.771 34.824C114.472 35.0053 114.238 35.288 114.067 35.672C113.907 36.0453 113.827 36.5147 113.827 37.08C113.827 37.9227 114.008 38.5627 114.371 39C114.734 39.4267 115.214 39.64 115.811 39.64ZM123.29 44.008C123.055 44.008 122.863 43.944 122.714 43.816C122.564 43.6987 122.474 43.5387 122.442 43.336C122.42 43.1333 122.458 42.92 122.554 42.696L123.642 40.28V41.112L120.73 34.376C120.634 34.1413 120.602 33.9227 120.634 33.72C120.666 33.5173 120.762 33.3573 120.922 33.24C121.092 33.112 121.322 33.048 121.61 33.048C121.855 33.048 122.052 33.1067 122.202 33.224C122.351 33.3307 122.484 33.5387 122.602 33.848L124.762 39.24H124.282L126.49 33.832C126.607 33.5333 126.746 33.3307 126.906 33.224C127.066 33.1067 127.279 33.048 127.546 33.048C127.78 33.048 127.967 33.112 128.106 33.24C128.244 33.3573 128.33 33.5173 128.362 33.72C128.394 33.912 128.356 34.1253 128.25 34.36L124.362 43.24C124.223 43.5387 124.074 43.7413 123.914 43.848C123.754 43.9547 123.546 44.008 123.29 44.008ZM133.427 41.16C132.542 41.16 131.779 40.9947 131.139 40.664C130.499 40.3333 130.003 39.864 129.651 39.256C129.31 38.648 129.139 37.928 129.139 37.096C129.139 36.2853 129.305 35.576 129.635 34.968C129.977 34.36 130.441 33.8853 131.027 33.544C131.625 33.192 132.302 33.016 133.059 33.016C133.614 33.016 134.11 33.1067 134.547 33.288C134.995 33.4693 135.374 33.7307 135.683 34.072C136.003 34.4133 136.243 34.8293 136.403 35.32C136.574 35.8 136.659 36.344 136.659 36.952C136.659 37.144 136.59 37.2933 136.451 37.4C136.323 37.496 136.137 37.544 135.891 37.544H130.755V36.392H135.251L134.995 36.632C134.995 36.1413 134.921 35.7307 134.771 35.4C134.633 35.0693 134.425 34.8187 134.147 34.648C133.881 34.4667 133.545 34.376 133.139 34.376C132.691 34.376 132.307 34.4827 131.987 34.696C131.678 34.8987 131.438 35.192 131.267 35.576C131.107 35.9493 131.027 36.3973 131.027 36.92V37.032C131.027 37.9067 131.23 38.5627 131.635 39C132.051 39.4267 132.659 39.64 133.459 39.64C133.737 39.64 134.046 39.608 134.387 39.544C134.739 39.4693 135.07 39.3467 135.379 39.176C135.603 39.048 135.801 38.9947 135.971 39.016C136.142 39.0267 136.275 39.0853 136.371 39.192C136.478 39.2987 136.542 39.432 136.563 39.592C136.585 39.7413 136.553 39.896 136.467 40.056C136.393 40.216 136.259 40.3547 136.067 40.472C135.694 40.7067 135.262 40.8827 134.771 41C134.291 41.1067 133.843 41.16 133.427 41.16ZM142.099 41.16C141.214 41.16 140.451 40.9947 139.811 40.664C139.171 40.3333 138.675 39.864 138.323 39.256C137.982 38.648 137.811 37.928 137.811 37.096C137.811 36.2853 137.976 35.576 138.307 34.968C138.648 34.36 139.112 33.8853 139.699 33.544C140.296 33.192 140.974 33.016 141.731 33.016C142.286 33.016 142.782 33.1067 143.219 33.288C143.667 33.4693 144.046 33.7307 144.355 34.072C144.675 34.4133 144.915 34.8293 145.075 35.32C145.246 35.8 145.331 36.344 145.331 36.952C145.331 37.144 145.262 37.2933 145.123 37.4C144.995 37.496 144.808 37.544 144.563 37.544H139.427V36.392H143.923L143.667 36.632C143.667 36.1413 143.592 35.7307 143.443 35.4C143.304 35.0693 143.096 34.8187 142.819 34.648C142.552 34.4667 142.216 34.376 141.811 34.376C141.363 34.376 140.979 34.4827 140.659 34.696C140.35 34.8987 140.11 35.192 139.939 35.576C139.779 35.9493 139.699 36.3973 139.699 36.92V37.032C139.699 37.9067 139.902 38.5627 140.307 39C140.723 39.4267 141.331 39.64 142.131 39.64C142.408 39.64 142.718 39.608 143.059 39.544C143.411 39.4693 143.742 39.3467 144.051 39.176C144.275 39.048 144.472 38.9947 144.643 39.016C144.814 39.0267 144.947 39.0853 145.043 39.192C145.15 39.2987 145.214 39.432 145.235 39.592C145.256 39.7413 145.224 39.896 145.139 40.056C145.064 40.216 144.931 40.3547 144.739 40.472C144.366 40.7067 143.934 40.8827 143.443 41C142.963 41.1067 142.515 41.16 142.099 41.16ZM154.123 41.16C153.664 41.16 153.179 41.112 152.667 41.016C152.155 40.92 151.696 40.7547 151.291 40.52C151.12 40.4133 150.997 40.2907 150.923 40.152C150.859 40.0027 150.832 39.8587 150.843 39.72C150.864 39.5707 150.917 39.4427 151.003 39.336C151.099 39.2293 151.216 39.16 151.355 39.128C151.504 39.096 151.664 39.1227 151.835 39.208C152.261 39.4107 152.661 39.5547 153.035 39.64C153.408 39.7147 153.776 39.752 154.139 39.752C154.651 39.752 155.029 39.6667 155.275 39.496C155.531 39.3147 155.659 39.08 155.659 38.792C155.659 38.5467 155.573 38.36 155.403 38.232C155.243 38.0933 154.997 37.992 154.667 37.928L153.067 37.624C152.405 37.496 151.899 37.256 151.547 36.904C151.205 36.5413 151.035 36.0773 151.035 35.512C151.035 35 151.173 34.5573 151.451 34.184C151.739 33.8107 152.133 33.5227 152.635 33.32C153.136 33.1173 153.712 33.016 154.363 33.016C154.832 33.016 155.269 33.0693 155.675 33.176C156.091 33.272 156.491 33.4267 156.875 33.64C157.035 33.7253 157.141 33.8373 157.195 33.976C157.259 34.1147 157.275 34.2587 157.243 34.408C157.211 34.5467 157.147 34.6747 157.051 34.792C156.955 34.8987 156.832 34.968 156.683 35C156.544 35.0213 156.384 34.9893 156.203 34.904C155.872 34.7333 155.552 34.6107 155.243 34.536C154.944 34.4613 154.656 34.424 154.379 34.424C153.856 34.424 153.467 34.5147 153.211 34.696C152.965 34.8773 152.843 35.1173 152.843 35.416C152.843 35.64 152.917 35.8267 153.067 35.976C153.216 36.1253 153.445 36.2267 153.755 36.28L155.355 36.584C156.048 36.712 156.571 36.9467 156.923 37.288C157.285 37.6293 157.467 38.088 157.467 38.664C157.467 39.4427 157.163 40.056 156.555 40.504C155.947 40.9413 155.136 41.16 154.123 41.16ZM162.577 41.16C161.884 41.16 161.302 41.0427 160.833 40.808C160.374 40.5733 160.033 40.232 159.809 39.784C159.585 39.3253 159.473 38.76 159.473 38.088V34.68H158.641C158.385 34.68 158.188 34.616 158.049 34.488C157.91 34.3493 157.841 34.1627 157.841 33.928C157.841 33.6827 157.91 33.496 158.049 33.368C158.188 33.24 158.385 33.176 158.641 33.176H159.473V31.72C159.473 31.3893 159.558 31.1387 159.729 30.968C159.91 30.7973 160.161 30.712 160.481 30.712C160.801 30.712 161.046 30.7973 161.217 30.968C161.388 31.1387 161.473 31.3893 161.473 31.72V33.176H163.169C163.425 33.176 163.622 33.24 163.761 33.368C163.9 33.496 163.969 33.6827 163.969 33.928C163.969 34.1627 163.9 34.3493 163.761 34.488C163.622 34.616 163.425 34.68 163.169 34.68H161.473V37.976C161.473 38.488 161.585 38.872 161.809 39.128C162.033 39.384 162.396 39.512 162.897 39.512C163.078 39.512 163.238 39.496 163.377 39.464C163.516 39.432 163.638 39.4107 163.745 39.4C163.873 39.3893 163.98 39.432 164.065 39.528C164.15 39.6133 164.193 39.7947 164.193 40.072C164.193 40.2853 164.156 40.4773 164.081 40.648C164.017 40.808 163.894 40.92 163.713 40.984C163.574 41.0267 163.393 41.064 163.169 41.096C162.945 41.1387 162.748 41.16 162.577 41.16ZM167.71 41.16C167.144 41.16 166.638 41.0533 166.19 40.84C165.752 40.616 165.406 40.3173 165.15 39.944C164.904 39.5707 164.782 39.1493 164.782 38.68C164.782 38.104 164.931 37.6507 165.23 37.32C165.528 36.9787 166.014 36.7333 166.686 36.584C167.358 36.4347 168.259 36.36 169.39 36.36H170.19V37.512H169.406C168.744 37.512 168.216 37.544 167.822 37.608C167.427 37.672 167.144 37.784 166.974 37.944C166.814 38.0933 166.734 38.3067 166.734 38.584C166.734 38.936 166.856 39.224 167.102 39.448C167.347 39.672 167.688 39.784 168.126 39.784C168.478 39.784 168.787 39.704 169.054 39.544C169.331 39.3733 169.55 39.144 169.71 38.856C169.87 38.568 169.95 38.2373 169.95 37.864V36.024C169.95 35.4907 169.832 35.1067 169.598 34.872C169.363 34.6373 168.968 34.52 168.414 34.52C168.104 34.52 167.768 34.5573 167.406 34.632C167.054 34.7067 166.68 34.8347 166.286 35.016C166.083 35.112 165.902 35.1387 165.742 35.096C165.592 35.0533 165.475 34.968 165.39 34.84C165.304 34.7013 165.262 34.552 165.262 34.392C165.262 34.232 165.304 34.0773 165.39 33.928C165.475 33.768 165.619 33.6507 165.822 33.576C166.312 33.3733 166.782 33.2293 167.23 33.144C167.688 33.0587 168.104 33.016 168.478 33.016C169.246 33.016 169.875 33.1333 170.366 33.368C170.867 33.6027 171.24 33.96 171.486 34.44C171.731 34.9093 171.854 35.5173 171.854 36.264V40.104C171.854 40.4347 171.774 40.6907 171.614 40.872C171.454 41.0427 171.224 41.128 170.926 41.128C170.627 41.128 170.392 41.0427 170.222 40.872C170.062 40.6907 169.982 40.4347 169.982 40.104V39.336H170.11C170.035 39.7093 169.886 40.0347 169.662 40.312C169.448 40.5787 169.176 40.7867 168.846 40.936C168.515 41.0853 168.136 41.16 167.71 41.16ZM177.468 41.16C176.774 41.16 176.193 41.0427 175.724 40.808C175.265 40.5733 174.924 40.232 174.7 39.784C174.476 39.3253 174.364 38.76 174.364 38.088V34.68H173.532C173.276 34.68 173.078 34.616 172.94 34.488C172.801 34.3493 172.732 34.1627 172.732 33.928C172.732 33.6827 172.801 33.496 172.94 33.368C173.078 33.24 173.276 33.176 173.532 33.176H174.364V31.72C174.364 31.3893 174.449 31.1387 174.62 30.968C174.801 30.7973 175.052 30.712 175.372 30.712C175.692 30.712 175.937 30.7973 176.108 30.968C176.278 31.1387 176.364 31.3893 176.364 31.72V33.176H178.06C178.316 33.176 178.513 33.24 178.652 33.368C178.79 33.496 178.86 33.6827 178.86 33.928C178.86 34.1627 178.79 34.3493 178.652 34.488C178.513 34.616 178.316 34.68 178.06 34.68H176.364V37.976C176.364 38.488 176.476 38.872 176.7 39.128C176.924 39.384 177.286 39.512 177.788 39.512C177.969 39.512 178.129 39.496 178.268 39.464C178.406 39.432 178.529 39.4107 178.636 39.4C178.764 39.3893 178.87 39.432 178.956 39.528C179.041 39.6133 179.084 39.7947 179.084 40.072C179.084 40.2853 179.046 40.4773 178.972 40.648C178.908 40.808 178.785 40.92 178.604 40.984C178.465 41.0267 178.284 41.064 178.06 41.096C177.836 41.1387 177.638 41.16 177.468 41.16ZM182.856 41.16C182.206 41.16 181.667 41.0427 181.24 40.808C180.814 40.5627 180.494 40.2 180.28 39.72C180.078 39.24 179.976 38.6427 179.976 37.928V34.056C179.976 33.7147 180.062 33.464 180.232 33.304C180.403 33.1333 180.648 33.048 180.968 33.048C181.288 33.048 181.534 33.1333 181.704 33.304C181.886 33.464 181.976 33.7147 181.976 34.056V37.96C181.976 38.5147 182.088 38.9253 182.312 39.192C182.536 39.4587 182.894 39.592 183.384 39.592C183.918 39.592 184.355 39.4107 184.696 39.048C185.038 38.6747 185.208 38.184 185.208 37.576V34.056C185.208 33.7147 185.294 33.464 185.464 33.304C185.635 33.1333 185.88 33.048 186.2 33.048C186.52 33.048 186.766 33.1333 186.936 33.304C187.118 33.464 187.208 33.7147 187.208 34.056V40.104C187.208 40.7867 186.883 41.128 186.232 41.128C185.923 41.128 185.683 41.0427 185.512 40.872C185.342 40.6907 185.256 40.4347 185.256 40.104V38.888L185.48 39.368C185.256 39.944 184.915 40.3867 184.456 40.696C184.008 41.0053 183.475 41.16 182.856 41.16ZM192.154 41.16C191.695 41.16 191.21 41.112 190.698 41.016C190.186 40.92 189.727 40.7547 189.322 40.52C189.151 40.4133 189.029 40.2907 188.954 40.152C188.89 40.0027 188.863 39.8587 188.874 39.72C188.895 39.5707 188.949 39.4427 189.034 39.336C189.13 39.2293 189.247 39.16 189.386 39.128C189.535 39.096 189.695 39.1227 189.866 39.208C190.293 39.4107 190.693 39.5547 191.066 39.64C191.439 39.7147 191.807 39.752 192.17 39.752C192.682 39.752 193.061 39.6667 193.306 39.496C193.562 39.3147 193.69 39.08 193.69 38.792C193.69 38.5467 193.605 38.36 193.434 38.232C193.274 38.0933 193.029 37.992 192.698 37.928L191.098 37.624C190.437 37.496 189.93 37.256 189.578 36.904C189.237 36.5413 189.066 36.0773 189.066 35.512C189.066 35 189.205 34.5573 189.482 34.184C189.77 33.8107 190.165 33.5227 190.666 33.32C191.167 33.1173 191.743 33.016 192.394 33.016C192.863 33.016 193.301 33.0693 193.706 33.176C194.122 33.272 194.522 33.4267 194.906 33.64C195.066 33.7253 195.173 33.8373 195.226 33.976C195.29 34.1147 195.306 34.2587 195.274 34.408C195.242 34.5467 195.178 34.6747 195.082 34.792C194.986 34.8987 194.863 34.968 194.714 35C194.575 35.0213 194.415 34.9893 194.234 34.904C193.903 34.7333 193.583 34.6107 193.274 34.536C192.975 34.4613 192.687 34.424 192.41 34.424C191.887 34.424 191.498 34.5147 191.242 34.696C190.997 34.8773 190.874 35.1173 190.874 35.416C190.874 35.64 190.949 35.8267 191.098 35.976C191.247 36.1253 191.477 36.2267 191.786 36.28L193.386 36.584C194.079 36.712 194.602 36.9467 194.954 37.288C195.317 37.6293 195.498 38.088 195.498 38.664C195.498 39.4427 195.194 40.056 194.586 40.504C193.978 40.9413 193.167 41.16 192.154 41.16ZM204.47 41.128C204.204 41.128 203.974 41.064 203.782 40.936C203.59 40.7973 203.436 40.584 203.318 40.296L200.998 34.376C200.902 34.12 200.87 33.896 200.902 33.704C200.945 33.5013 201.046 33.3413 201.206 33.224C201.366 33.1067 201.58 33.048 201.846 33.048C202.081 33.048 202.273 33.1067 202.422 33.224C202.572 33.3307 202.7 33.5387 202.806 33.848L204.742 39.176H204.374L206.374 33.72C206.46 33.4853 206.572 33.3147 206.71 33.208C206.86 33.1013 207.052 33.048 207.286 33.048C207.521 33.048 207.713 33.1067 207.862 33.224C208.012 33.3307 208.124 33.496 208.198 33.72L210.166 39.176H209.83L211.782 33.8C211.889 33.512 212.022 33.3147 212.182 33.208C212.353 33.1013 212.54 33.048 212.742 33.048C212.998 33.048 213.196 33.112 213.334 33.24C213.473 33.368 213.553 33.5333 213.574 33.736C213.596 33.928 213.558 34.1413 213.462 34.376L211.158 40.296C211.052 40.5733 210.897 40.7813 210.694 40.92C210.502 41.0587 210.273 41.128 210.006 41.128C209.74 41.128 209.505 41.0587 209.302 40.92C209.11 40.7813 208.961 40.5733 208.854 40.296L206.758 34.744H207.67L205.622 40.28C205.516 40.568 205.366 40.7813 205.174 40.92C204.982 41.0587 204.748 41.128 204.47 41.128ZM216.079 41.112C215.759 41.112 215.514 41.016 215.343 40.824C215.172 40.632 215.087 40.3653 215.087 40.024V34.152C215.087 33.8 215.172 33.5333 215.343 33.352C215.514 33.16 215.759 33.064 216.079 33.064C216.399 33.064 216.644 33.16 216.815 33.352C216.996 33.5333 217.087 33.8 217.087 34.152V40.024C217.087 40.3653 217.002 40.632 216.831 40.824C216.66 41.016 216.41 41.112 216.079 41.112ZM216.079 31.576C215.706 31.576 215.412 31.4853 215.199 31.304C214.996 31.112 214.895 30.8507 214.895 30.52C214.895 30.1787 214.996 29.9173 215.199 29.736C215.412 29.5547 215.706 29.464 216.079 29.464C216.463 29.464 216.756 29.5547 216.959 29.736C217.162 29.9173 217.263 30.1787 217.263 30.52C217.263 30.8507 217.162 31.112 216.959 31.304C216.756 31.4853 216.463 31.576 216.079 31.576ZM221.837 41.16C220.952 41.16 220.285 40.9093 219.837 40.408C219.389 39.896 219.165 39.1493 219.165 38.168V30.6C219.165 30.2693 219.25 30.0187 219.421 29.848C219.592 29.6773 219.837 29.592 220.157 29.592C220.477 29.592 220.722 29.6773 220.893 29.848C221.074 30.0187 221.165 30.2693 221.165 30.6V38.072C221.165 38.5627 221.266 38.9253 221.469 39.16C221.682 39.3947 221.981 39.512 222.365 39.512C222.45 39.512 222.53 39.512 222.605 39.512C222.68 39.5013 222.754 39.4907 222.829 39.48C222.978 39.4587 223.08 39.5013 223.133 39.608C223.186 39.704 223.213 39.9067 223.213 40.216C223.213 40.4827 223.16 40.6907 223.053 40.84C222.946 40.9893 222.77 41.08 222.525 41.112C222.418 41.1227 222.306 41.1333 222.189 41.144C222.072 41.1547 221.954 41.16 221.837 41.16ZM226.946 41.16C226.061 41.16 225.394 40.9093 224.946 40.408C224.498 39.896 224.274 39.1493 224.274 38.168V30.6C224.274 30.2693 224.36 30.0187 224.53 29.848C224.701 29.6773 224.946 29.592 225.266 29.592C225.586 29.592 225.832 29.6773 226.002 29.848C226.184 30.0187 226.274 30.2693 226.274 30.6V38.072C226.274 38.5627 226.376 38.9253 226.578 39.16C226.792 39.3947 227.09 39.512 227.474 39.512C227.56 39.512 227.64 39.512 227.714 39.512C227.789 39.5013 227.864 39.4907 227.938 39.48C228.088 39.4587 228.189 39.5013 228.242 39.608C228.296 39.704 228.322 39.9067 228.322 40.216C228.322 40.4827 228.269 40.6907 228.162 40.84C228.056 40.9893 227.88 41.08 227.634 41.112C227.528 41.1227 227.416 41.1333 227.298 41.144C227.181 41.1547 227.064 41.16 226.946 41.16ZM236.592 41.16C236.133 41.16 235.648 41.112 235.136 41.016C234.624 40.92 234.165 40.7547 233.76 40.52C233.589 40.4133 233.466 40.2907 233.392 40.152C233.328 40.0027 233.301 39.8587 233.312 39.72C233.333 39.5707 233.386 39.4427 233.472 39.336C233.568 39.2293 233.685 39.16 233.824 39.128C233.973 39.096 234.133 39.1227 234.304 39.208C234.73 39.4107 235.13 39.5547 235.504 39.64C235.877 39.7147 236.245 39.752 236.608 39.752C237.12 39.752 237.498 39.6667 237.744 39.496C238 39.3147 238.128 39.08 238.128 38.792C238.128 38.5467 238.042 38.36 237.872 38.232C237.712 38.0933 237.466 37.992 237.136 37.928L235.536 37.624C234.874 37.496 234.368 37.256 234.016 36.904C233.674 36.5413 233.504 36.0773 233.504 35.512C233.504 35 233.642 34.5573 233.92 34.184C234.208 33.8107 234.602 33.5227 235.104 33.32C235.605 33.1173 236.181 33.016 236.832 33.016C237.301 33.016 237.738 33.0693 238.144 33.176C238.56 33.272 238.96 33.4267 239.344 33.64C239.504 33.7253 239.61 33.8373 239.664 33.976C239.728 34.1147 239.744 34.2587 239.712 34.408C239.68 34.5467 239.616 34.6747 239.52 34.792C239.424 34.8987 239.301 34.968 239.152 35C239.013 35.0213 238.853 34.9893 238.672 34.904C238.341 34.7333 238.021 34.6107 237.712 34.536C237.413 34.4613 237.125 34.424 236.848 34.424C236.325 34.424 235.936 34.5147 235.68 34.696C235.434 34.8773 235.312 35.1173 235.312 35.416C235.312 35.64 235.386 35.8267 235.536 35.976C235.685 36.1253 235.914 36.2267 236.224 36.28L237.824 36.584C238.517 36.712 239.04 36.9467 239.392 37.288C239.754 37.6293 239.936 38.088 239.936 38.664C239.936 39.4427 239.632 40.056 239.024 40.504C238.416 40.9413 237.605 41.16 236.592 41.16ZM242.532 41.128C242.212 41.128 241.967 41.0427 241.796 40.872C241.625 40.6907 241.54 40.4347 241.54 40.104V30.6C241.54 30.2693 241.625 30.0187 241.796 29.848C241.967 29.6773 242.212 29.592 242.532 29.592C242.852 29.592 243.097 29.6773 243.268 29.848C243.449 30.0187 243.54 30.2693 243.54 30.6V34.744H243.316C243.551 34.1787 243.913 33.752 244.404 33.464C244.905 33.1653 245.471 33.016 246.1 33.016C246.729 33.016 247.247 33.1333 247.652 33.368C248.057 33.6027 248.361 33.96 248.564 34.44C248.767 34.9093 248.868 35.5067 248.868 36.232V40.104C248.868 40.4347 248.783 40.6907 248.612 40.872C248.441 41.0427 248.196 41.128 247.876 41.128C247.556 41.128 247.305 41.0427 247.124 40.872C246.953 40.6907 246.868 40.4347 246.868 40.104V36.328C246.868 35.72 246.751 35.2773 246.516 35C246.292 34.7227 245.94 34.584 245.46 34.584C244.873 34.584 244.404 34.7707 244.052 35.144C243.711 35.5067 243.54 35.992 243.54 36.6V40.104C243.54 40.7867 243.204 41.128 242.532 41.128ZM254.467 41.16C253.657 41.16 252.953 40.9947 252.355 40.664C251.758 40.3333 251.294 39.864 250.963 39.256C250.633 38.6373 250.467 37.912 250.467 37.08C250.467 36.4507 250.558 35.8907 250.739 35.4C250.931 34.8987 251.203 34.472 251.555 34.12C251.907 33.7573 252.329 33.4853 252.819 33.304C253.31 33.112 253.859 33.016 254.467 33.016C255.278 33.016 255.982 33.1813 256.579 33.512C257.177 33.8427 257.641 34.312 257.971 34.92C258.302 35.528 258.467 36.248 258.467 37.08C258.467 37.7093 258.371 38.2747 258.179 38.776C257.998 39.2773 257.731 39.7093 257.379 40.072C257.027 40.424 256.606 40.696 256.115 40.888C255.625 41.0693 255.075 41.16 254.467 41.16ZM254.467 39.64C254.862 39.64 255.209 39.544 255.507 39.352C255.806 39.16 256.035 38.8773 256.195 38.504C256.366 38.12 256.451 37.6453 256.451 37.08C256.451 36.2267 256.27 35.592 255.907 35.176C255.545 34.7493 255.065 34.536 254.467 34.536C254.073 34.536 253.726 34.632 253.427 34.824C253.129 35.0053 252.894 35.288 252.723 35.672C252.563 36.0453 252.483 36.5147 252.483 37.08C252.483 37.9227 252.665 38.5627 253.027 39C253.39 39.4267 253.87 39.64 254.467 39.64ZM262.986 41.128C262.719 41.128 262.49 41.064 262.298 40.936C262.106 40.7973 261.951 40.584 261.834 40.296L259.514 34.376C259.418 34.12 259.386 33.896 259.418 33.704C259.461 33.5013 259.562 33.3413 259.722 33.224C259.882 33.1067 260.095 33.048 260.362 33.048C260.597 33.048 260.789 33.1067 260.938 33.224C261.087 33.3307 261.215 33.5387 261.322 33.848L263.258 39.176H262.89L264.89 33.72C264.975 33.4853 265.087 33.3147 265.226 33.208C265.375 33.1013 265.567 33.048 265.802 33.048C266.037 33.048 266.229 33.1067 266.378 33.224C266.527 33.3307 266.639 33.496 266.714 33.72L268.682 39.176H268.346L270.298 33.8C270.405 33.512 270.538 33.3147 270.698 33.208C270.869 33.1013 271.055 33.048 271.258 33.048C271.514 33.048 271.711 33.112 271.85 33.24C271.989 33.368 272.069 33.5333 272.09 33.736C272.111 33.928 272.074 34.1413 271.978 34.376L269.674 40.296C269.567 40.5733 269.413 40.7813 269.21 40.92C269.018 41.0587 268.789 41.128 268.522 41.128C268.255 41.128 268.021 41.0587 267.818 40.92C267.626 40.7813 267.477 40.5733 267.37 40.296L265.274 34.744H266.186L264.138 40.28C264.031 40.568 263.882 40.7813 263.69 40.92C263.498 41.0587 263.263 41.128 262.986 41.128ZM274.595 41.128C274.275 41.128 274.029 41.0427 273.859 40.872C273.688 40.6907 273.603 40.4347 273.603 40.104V34.056C273.603 33.7253 273.688 33.4747 273.859 33.304C274.029 33.1333 274.269 33.048 274.579 33.048C274.888 33.048 275.128 33.1333 275.299 33.304C275.469 33.4747 275.555 33.7253 275.555 34.056V35.144L275.379 34.744C275.613 34.1787 275.976 33.752 276.467 33.464C276.968 33.1653 277.533 33.016 278.163 33.016C278.792 33.016 279.309 33.1333 279.715 33.368C280.12 33.6027 280.424 33.96 280.627 34.44C280.829 34.9093 280.931 35.5067 280.931 36.232V40.104C280.931 40.4347 280.845 40.6907 280.675 40.872C280.504 41.0427 280.259 41.128 279.939 41.128C279.619 41.128 279.368 41.0427 279.187 40.872C279.016 40.6907 278.931 40.4347 278.931 40.104V36.328C278.931 35.72 278.813 35.2773 278.579 35C278.355 34.7227 278.003 34.584 277.523 34.584C276.936 34.584 276.467 34.7707 276.115 35.144C275.773 35.5067 275.603 35.992 275.603 36.6V40.104C275.603 40.7867 275.267 41.128 274.595 41.128ZM290.874 41.16C290.063 41.16 289.359 40.9947 288.762 40.664C288.164 40.3333 287.7 39.864 287.37 39.256C287.039 38.6373 286.874 37.912 286.874 37.08C286.874 36.4507 286.964 35.8907 287.146 35.4C287.338 34.8987 287.61 34.472 287.962 34.12C288.314 33.7573 288.735 33.4853 289.226 33.304C289.716 33.112 290.266 33.016 290.874 33.016C291.684 33.016 292.388 33.1813 292.986 33.512C293.583 33.8427 294.047 34.312 294.378 34.92C294.708 35.528 294.874 36.248 294.874 37.08C294.874 37.7093 294.778 38.2747 294.586 38.776C294.404 39.2773 294.138 39.7093 293.786 40.072C293.434 40.424 293.012 40.696 292.522 40.888C292.031 41.0693 291.482 41.16 290.874 41.16ZM290.874 39.64C291.268 39.64 291.615 39.544 291.914 39.352C292.212 39.16 292.442 38.8773 292.602 38.504C292.772 38.12 292.858 37.6453 292.858 37.08C292.858 36.2267 292.676 35.592 292.314 35.176C291.951 34.7493 291.471 34.536 290.874 34.536C290.479 34.536 290.132 34.632 289.834 34.824C289.535 35.0053 289.3 35.288 289.13 35.672C288.97 36.0453 288.89 36.5147 288.89 37.08C288.89 37.9227 289.071 38.5627 289.434 39C289.796 39.4267 290.276 39.64 290.874 39.64ZM297.516 41.128C297.196 41.128 296.951 41.0427 296.78 40.872C296.61 40.6907 296.524 40.4347 296.524 40.104V34.056C296.524 33.7253 296.61 33.4747 296.78 33.304C296.951 33.1333 297.191 33.048 297.5 33.048C297.81 33.048 298.05 33.1333 298.22 33.304C298.391 33.4747 298.476 33.7253 298.476 34.056V35.144L298.3 34.744C298.535 34.1787 298.898 33.752 299.388 33.464C299.89 33.1653 300.455 33.016 301.084 33.016C301.714 33.016 302.231 33.1333 302.636 33.368C303.042 33.6027 303.346 33.96 303.548 34.44C303.751 34.9093 303.852 35.5067 303.852 36.232V40.104C303.852 40.4347 303.767 40.6907 303.596 40.872C303.426 41.0427 303.18 41.128 302.86 41.128C302.54 41.128 302.29 41.0427 302.108 40.872C301.938 40.6907 301.852 40.4347 301.852 40.104V36.328C301.852 35.72 301.735 35.2773 301.5 35C301.276 34.7227 300.924 34.584 300.444 34.584C299.858 34.584 299.388 34.7707 299.036 35.144C298.695 35.5067 298.524 35.992 298.524 36.6V40.104C298.524 40.7867 298.188 41.128 297.516 41.128ZM313.812 41.16C313.118 41.16 312.537 41.0427 312.068 40.808C311.609 40.5733 311.268 40.232 311.044 39.784C310.82 39.3253 310.708 38.76 310.708 38.088V34.68H309.876C309.62 34.68 309.422 34.616 309.284 34.488C309.145 34.3493 309.075 34.1627 309.075 33.928C309.075 33.6827 309.145 33.496 309.284 33.368C309.422 33.24 309.62 33.176 309.876 33.176H310.708V31.72C310.708 31.3893 310.793 31.1387 310.964 30.968C311.145 30.7973 311.396 30.712 311.716 30.712C312.036 30.712 312.281 30.7973 312.452 30.968C312.622 31.1387 312.708 31.3893 312.708 31.72V33.176H314.404C314.66 33.176 314.857 33.24 314.996 33.368C315.134 33.496 315.204 33.6827 315.204 33.928C315.204 34.1627 315.134 34.3493 314.996 34.488C314.857 34.616 314.66 34.68 314.404 34.68H312.708V37.976C312.708 38.488 312.82 38.872 313.044 39.128C313.268 39.384 313.63 39.512 314.132 39.512C314.313 39.512 314.473 39.496 314.612 39.464C314.75 39.432 314.873 39.4107 314.98 39.4C315.108 39.3893 315.214 39.432 315.3 39.528C315.385 39.6133 315.428 39.7947 315.428 40.072C315.428 40.2853 315.39 40.4773 315.316 40.648C315.252 40.808 315.129 40.92 314.948 40.984C314.809 41.0267 314.628 41.064 314.404 41.096C314.18 41.1387 313.982 41.16 313.812 41.16ZM317.563 41.128C317.243 41.128 316.998 41.0427 316.827 40.872C316.657 40.6907 316.571 40.4347 316.571 40.104V30.6C316.571 30.2693 316.657 30.0187 316.827 29.848C316.998 29.6773 317.243 29.592 317.563 29.592C317.883 29.592 318.129 29.6773 318.299 29.848C318.481 30.0187 318.571 30.2693 318.571 30.6V34.744H318.347C318.582 34.1787 318.945 33.752 319.435 33.464C319.937 33.1653 320.502 33.016 321.131 33.016C321.761 33.016 322.278 33.1333 322.683 33.368C323.089 33.6027 323.393 33.96 323.595 34.44C323.798 34.9093 323.899 35.5067 323.899 36.232V40.104C323.899 40.4347 323.814 40.6907 323.643 40.872C323.473 41.0427 323.227 41.128 322.907 41.128C322.587 41.128 322.337 41.0427 322.155 40.872C321.985 40.6907 321.899 40.4347 321.899 40.104V36.328C321.899 35.72 321.782 35.2773 321.547 35C321.323 34.7227 320.971 34.584 320.491 34.584C319.905 34.584 319.435 34.7707 319.083 35.144C318.742 35.5067 318.571 35.992 318.571 36.6V40.104C318.571 40.7867 318.235 41.128 317.563 41.128ZM329.787 41.16C328.901 41.16 328.139 40.9947 327.499 40.664C326.859 40.3333 326.363 39.864 326.011 39.256C325.669 38.648 325.499 37.928 325.499 37.096C325.499 36.2853 325.664 35.576 325.995 34.968C326.336 34.36 326.8 33.8853 327.387 33.544C327.984 33.192 328.661 33.016 329.419 33.016C329.973 33.016 330.469 33.1067 330.907 33.288C331.355 33.4693 331.733 33.7307 332.043 34.072C332.363 34.4133 332.603 34.8293 332.763 35.32C332.933 35.8 333.019 36.344 333.019 36.952C333.019 37.144 332.949 37.2933 332.811 37.4C332.683 37.496 332.496 37.544 332.251 37.544H327.115V36.392H331.611L331.355 36.632C331.355 36.1413 331.28 35.7307 331.131 35.4C330.992 35.0693 330.784 34.8187 330.507 34.648C330.24 34.4667 329.904 34.376 329.499 34.376C329.051 34.376 328.667 34.4827 328.347 34.696C328.037 34.8987 327.797 35.192 327.627 35.576C327.467 35.9493 327.387 36.3973 327.387 36.92V37.032C327.387 37.9067 327.589 38.5627 327.995 39C328.411 39.4267 329.019 39.64 329.819 39.64C330.096 39.64 330.405 39.608 330.747 39.544C331.099 39.4693 331.429 39.3467 331.739 39.176C331.963 39.048 332.16 38.9947 332.331 39.016C332.501 39.0267 332.635 39.0853 332.731 39.192C332.837 39.2987 332.901 39.432 332.923 39.592C332.944 39.7413 332.912 39.896 332.827 40.056C332.752 40.216 332.619 40.3547 332.427 40.472C332.053 40.7067 331.621 40.8827 331.131 41C330.651 41.1067 330.203 41.16 329.787 41.16ZM341.618 41.16C340.733 41.16 340.066 40.9093 339.618 40.408C339.17 39.896 338.946 39.1493 338.946 38.168V30.6C338.946 30.2693 339.032 30.0187 339.202 29.848C339.373 29.6773 339.618 29.592 339.938 29.592C340.258 29.592 340.504 29.6773 340.674 29.848C340.856 30.0187 340.946 30.2693 340.946 30.6V38.072C340.946 38.5627 341.048 38.9253 341.25 39.16C341.464 39.3947 341.762 39.512 342.146 39.512C342.232 39.512 342.312 39.512 342.386 39.512C342.461 39.5013 342.536 39.4907 342.61 39.48C342.76 39.4587 342.861 39.5013 342.914 39.608C342.968 39.704 342.994 39.9067 342.994 40.216C342.994 40.4827 342.941 40.6907 342.834 40.84C342.728 40.9893 342.552 41.08 342.306 41.112C342.2 41.1227 342.088 41.1333 341.97 41.144C341.853 41.1547 341.736 41.16 341.618 41.16ZM345.048 41.112C344.728 41.112 344.482 41.016 344.312 40.824C344.141 40.632 344.056 40.3653 344.056 40.024V34.152C344.056 33.8 344.141 33.5333 344.312 33.352C344.482 33.16 344.728 33.064 345.048 33.064C345.368 33.064 345.613 33.16 345.784 33.352C345.965 33.5333 346.056 33.8 346.056 34.152V40.024C346.056 40.3653 345.97 40.632 345.8 40.824C345.629 41.016 345.378 41.112 345.048 41.112ZM345.048 31.576C344.674 31.576 344.381 31.4853 344.168 31.304C343.965 31.112 343.864 30.8507 343.864 30.52C343.864 30.1787 343.965 29.9173 344.168 29.736C344.381 29.5547 344.674 29.464 345.048 29.464C345.432 29.464 345.725 29.5547 345.928 29.736C346.13 29.9173 346.232 30.1787 346.232 30.52C346.232 30.8507 346.13 31.112 345.928 31.304C345.725 31.4853 345.432 31.576 345.048 31.576ZM350.998 41.16C350.539 41.16 350.054 41.112 349.542 41.016C349.03 40.92 348.571 40.7547 348.166 40.52C347.995 40.4133 347.872 40.2907 347.798 40.152C347.734 40.0027 347.707 39.8587 347.718 39.72C347.739 39.5707 347.792 39.4427 347.878 39.336C347.974 39.2293 348.091 39.16 348.23 39.128C348.379 39.096 348.539 39.1227 348.71 39.208C349.136 39.4107 349.536 39.5547 349.91 39.64C350.283 39.7147 350.651 39.752 351.014 39.752C351.526 39.752 351.904 39.6667 352.15 39.496C352.406 39.3147 352.534 39.08 352.534 38.792C352.534 38.5467 352.448 38.36 352.278 38.232C352.118 38.0933 351.872 37.992 351.542 37.928L349.942 37.624C349.28 37.496 348.774 37.256 348.422 36.904C348.08 36.5413 347.91 36.0773 347.91 35.512C347.91 35 348.048 34.5573 348.326 34.184C348.614 33.8107 349.008 33.5227 349.51 33.32C350.011 33.1173 350.587 33.016 351.238 33.016C351.707 33.016 352.144 33.0693 352.55 33.176C352.966 33.272 353.366 33.4267 353.75 33.64C353.91 33.7253 354.016 33.8373 354.07 33.976C354.134 34.1147 354.15 34.2587 354.118 34.408C354.086 34.5467 354.022 34.6747 353.926 34.792C353.83 34.8987 353.707 34.968 353.558 35C353.419 35.0213 353.259 34.9893 353.078 34.904C352.747 34.7333 352.427 34.6107 352.118 34.536C351.819 34.4613 351.531 34.424 351.254 34.424C350.731 34.424 350.342 34.5147 350.086 34.696C349.84 34.8773 349.718 35.1173 349.718 35.416C349.718 35.64 349.792 35.8267 349.942 35.976C350.091 36.1253 350.32 36.2267 350.63 36.28L352.23 36.584C352.923 36.712 353.446 36.9467 353.798 37.288C354.16 37.6293 354.342 38.088 354.342 38.664C354.342 39.4427 354.038 40.056 353.43 40.504C352.822 40.9413 352.011 41.16 350.998 41.16ZM359.452 41.16C358.759 41.16 358.177 41.0427 357.708 40.808C357.249 40.5733 356.908 40.232 356.684 39.784C356.46 39.3253 356.348 38.76 356.348 38.088V34.68H355.516C355.26 34.68 355.063 34.616 354.924 34.488C354.785 34.3493 354.716 34.1627 354.716 33.928C354.716 33.6827 354.785 33.496 354.924 33.368C355.063 33.24 355.26 33.176 355.516 33.176H356.348V31.72C356.348 31.3893 356.433 31.1387 356.604 30.968C356.785 30.7973 357.036 30.712 357.356 30.712C357.676 30.712 357.921 30.7973 358.092 30.968C358.263 31.1387 358.348 31.3893 358.348 31.72V33.176H360.044C360.3 33.176 360.497 33.24 360.636 33.368C360.775 33.496 360.844 33.6827 360.844 33.928C360.844 34.1627 360.775 34.3493 360.636 34.488C360.497 34.616 360.3 34.68 360.044 34.68H358.348V37.976C358.348 38.488 358.46 38.872 358.684 39.128C358.908 39.384 359.271 39.512 359.772 39.512C359.953 39.512 360.113 39.496 360.252 39.464C360.391 39.432 360.513 39.4107 360.62 39.4C360.748 39.3893 360.855 39.432 360.94 39.528C361.025 39.6133 361.068 39.7947 361.068 40.072C361.068 40.2853 361.031 40.4773 360.956 40.648C360.892 40.808 360.769 40.92 360.588 40.984C360.449 41.0267 360.268 41.064 360.044 41.096C359.82 41.1387 359.623 41.16 359.452 41.16Z" fill="#057FF0"/>
</svg>
