<svg width="397" height="71" viewBox="0 0 397 71" fill="none" xmlns="http://www.w3.org/2000/svg">
<path d="M0 16C0 7.16344 7.16345 0 16 0H381C389.837 0 397 7.16344 397 16V55C397 63.8366 389.837 71 381 71H16C7.16345 71 0 63.8366 0 55V16Z" fill="#FFAA00" fill-opacity="0.06"/>
<path d="M16 0.5H381C389.56 0.5 396.5 7.43959 396.5 16V55C396.5 63.5604 389.56 70.5 381 70.5H16C7.43959 70.5 0.5 63.5604 0.5 55V16C0.5 7.43959 7.43959 0.5 16 0.5Z" stroke="#FFAA00" stroke-opacity="0.06"/>
<path d="M75.192 41.128C74.8827 41.128 74.6427 41.0427 74.472 40.872C74.312 40.7013 74.232 40.456 74.232 40.136V30.616C74.232 30.2853 74.312 30.0347 74.472 29.864C74.6427 29.6827 74.8613 29.592 75.128 29.592C75.3733 29.592 75.5547 29.64 75.672 29.736C75.8 29.8213 75.9493 29.9707 76.12 30.184L82.248 38.136H81.832V30.568C81.832 30.2587 81.912 30.0187 82.072 29.848C82.2427 29.6773 82.4827 29.592 82.792 29.592C83.1013 29.592 83.336 29.6773 83.496 29.848C83.656 30.0187 83.736 30.2587 83.736 30.568V40.168C83.736 40.4667 83.6613 40.7013 83.512 40.872C83.3627 41.0427 83.16 41.128 82.904 41.128C82.6587 41.128 82.4613 41.08 82.312 40.984C82.1733 40.888 82.0187 40.7333 81.848 40.52L75.736 32.568H76.136V40.136C76.136 40.456 76.056 40.7013 75.896 40.872C75.736 41.0427 75.5013 41.128 75.192 41.128ZM89.5768 41.16C88.7661 41.16 88.0621 40.9947 87.4648 40.664C86.8674 40.3333 86.4034 39.864 86.0728 39.256C85.7421 38.6373 85.5768 37.912 85.5768 37.08C85.5768 36.4507 85.6674 35.8907 85.8488 35.4C86.0408 34.8987 86.3128 34.472 86.6648 34.12C87.0168 33.7573 87.4381 33.4853 87.9288 33.304C88.4194 33.112 88.9688 33.016 89.5768 33.016C90.3874 33.016 91.0914 33.1813 91.6888 33.512C92.2861 33.8427 92.7501 34.312 93.0808 34.92C93.4114 35.528 93.5768 36.248 93.5768 37.08C93.5768 37.7093 93.4808 38.2747 93.2888 38.776C93.1074 39.2773 92.8408 39.7093 92.4888 40.072C92.1368 40.424 91.7154 40.696 91.2248 40.888C90.7341 41.0693 90.1848 41.16 89.5768 41.16ZM89.5768 39.64C89.9714 39.64 90.3181 39.544 90.6168 39.352C90.9154 39.16 91.1448 38.8773 91.3048 38.504C91.4754 38.12 91.5608 37.6453 91.5608 37.08C91.5608 36.2267 91.3794 35.592 91.0168 35.176C90.6541 34.7493 90.1741 34.536 89.5768 34.536C89.1821 34.536 88.8354 34.632 88.5368 34.824C88.2381 35.0053 88.0034 35.288 87.8328 35.672C87.6728 36.0453 87.5928 36.5147 87.5928 37.08C87.5928 37.9227 87.7741 38.5627 88.1368 39C88.4994 39.4267 88.9794 39.64 89.5768 39.64ZM98.7334 41.16C98.04 41.16 97.4587 41.0427 96.9894 40.808C96.5307 40.5733 96.1894 40.232 95.9654 39.784C95.7414 39.3253 95.6294 38.76 95.6294 38.088V34.68H94.7974C94.5414 34.68 94.344 34.616 94.2054 34.488C94.0667 34.3493 93.9974 34.1627 93.9974 33.928C93.9974 33.6827 94.0667 33.496 94.2054 33.368C94.344 33.24 94.5414 33.176 94.7974 33.176H95.6294V31.72C95.6294 31.3893 95.7147 31.1387 95.8854 30.968C96.0667 30.7973 96.3174 30.712 96.6374 30.712C96.9574 30.712 97.2027 30.7973 97.3734 30.968C97.544 31.1387 97.6294 31.3893 97.6294 31.72V33.176H99.3254C99.5814 33.176 99.7787 33.24 99.9174 33.368C100.056 33.496 100.125 33.6827 100.125 33.928C100.125 34.1627 100.056 34.3493 99.9174 34.488C99.7787 34.616 99.5814 34.68 99.3254 34.68H97.6294V37.976C97.6294 38.488 97.7414 38.872 97.9654 39.128C98.1894 39.384 98.552 39.512 99.0534 39.512C99.2347 39.512 99.3947 39.496 99.5334 39.464C99.672 39.432 99.7947 39.4107 99.9014 39.4C100.029 39.3893 100.136 39.432 100.221 39.528C100.307 39.6133 100.349 39.7947 100.349 40.072C100.349 40.2853 100.312 40.4773 100.237 40.648C100.173 40.808 100.051 40.92 99.8694 40.984C99.7307 41.0267 99.5494 41.064 99.3254 41.096C99.1014 41.1387 98.904 41.16 98.7334 41.16ZM102.485 41.112C102.165 41.112 101.92 41.016 101.749 40.824C101.578 40.632 101.493 40.3653 101.493 40.024V34.152C101.493 33.8 101.578 33.5333 101.749 33.352C101.92 33.16 102.165 33.064 102.485 33.064C102.805 33.064 103.05 33.16 103.221 33.352C103.402 33.5333 103.493 33.8 103.493 34.152V40.024C103.493 40.3653 103.408 40.632 103.237 40.824C103.066 41.016 102.816 41.112 102.485 41.112ZM102.485 31.576C102.112 31.576 101.818 31.4853 101.605 31.304C101.402 31.112 101.301 30.8507 101.301 30.52C101.301 30.1787 101.402 29.9173 101.605 29.736C101.818 29.5547 102.112 29.464 102.485 29.464C102.869 29.464 103.162 29.5547 103.365 29.736C103.568 29.9173 103.669 30.1787 103.669 30.52C103.669 30.8507 103.568 31.112 103.365 31.304C103.162 31.4853 102.869 31.576 102.485 31.576ZM107.107 41.128C106.787 41.128 106.537 41.0427 106.355 40.872C106.185 40.6907 106.099 40.4347 106.099 40.104V34.68H105.363C105.107 34.68 104.91 34.616 104.771 34.488C104.633 34.3493 104.563 34.1627 104.563 33.928C104.563 33.6827 104.633 33.496 104.771 33.368C104.91 33.24 105.107 33.176 105.363 33.176H106.675L106.099 33.704V33.16C106.099 32.0827 106.371 31.2667 106.915 30.712C107.459 30.1573 108.249 29.8267 109.283 29.72L109.763 29.672C110.009 29.6507 110.201 29.6827 110.339 29.768C110.489 29.8533 110.585 29.9707 110.627 30.12C110.681 30.2587 110.691 30.408 110.659 30.568C110.627 30.7173 110.563 30.8507 110.467 30.968C110.371 31.0747 110.249 31.1333 110.099 31.144L109.715 31.176C109.15 31.2187 108.739 31.3733 108.483 31.64C108.227 31.9067 108.099 32.3067 108.099 32.84V33.432L107.843 33.176H112.275C112.595 33.176 112.841 33.272 113.011 33.464C113.182 33.6453 113.267 33.9067 113.267 34.248V40.024C113.267 40.3653 113.182 40.632 113.011 40.824C112.851 41.016 112.606 41.112 112.275 41.112C111.955 41.112 111.705 41.016 111.523 40.824C111.353 40.632 111.267 40.3653 111.267 40.024V34.68H108.099V40.104C108.099 40.7867 107.769 41.128 107.107 41.128ZM112.307 31.576C111.945 31.576 111.662 31.4853 111.459 31.304C111.267 31.112 111.171 30.8507 111.171 30.52C111.171 30.1787 111.267 29.9173 111.459 29.736C111.662 29.5547 111.945 29.464 112.307 29.464C112.681 29.464 112.963 29.5547 113.155 29.736C113.358 29.9173 113.459 30.1787 113.459 30.52C113.459 30.8507 113.358 31.112 113.155 31.304C112.963 31.4853 112.681 31.576 112.307 31.576ZM118.969 41.16C118.147 41.16 117.433 40.9947 116.825 40.664C116.217 40.3227 115.747 39.8427 115.417 39.224C115.086 38.6053 114.921 37.88 114.921 37.048C114.921 36.4187 115.011 35.8587 115.193 35.368C115.385 34.8667 115.657 34.4453 116.009 34.104C116.361 33.752 116.787 33.4853 117.289 33.304C117.79 33.112 118.35 33.016 118.969 33.016C119.321 33.016 119.699 33.064 120.105 33.16C120.521 33.256 120.91 33.416 121.273 33.64C121.443 33.7467 121.555 33.8747 121.609 34.024C121.662 34.1733 121.673 34.328 121.641 34.488C121.609 34.6373 121.539 34.7707 121.433 34.888C121.337 34.9947 121.214 35.064 121.065 35.096C120.915 35.1173 120.75 35.08 120.569 34.984C120.334 34.8453 120.094 34.744 119.849 34.68C119.603 34.6053 119.369 34.568 119.145 34.568C118.793 34.568 118.483 34.6267 118.217 34.744C117.95 34.8507 117.721 35.0107 117.529 35.224C117.347 35.4267 117.209 35.6827 117.113 35.992C117.017 36.3013 116.969 36.6587 116.969 37.064C116.969 37.8533 117.155 38.4773 117.529 38.936C117.913 39.384 118.451 39.608 119.145 39.608C119.369 39.608 119.598 39.576 119.833 39.512C120.078 39.448 120.323 39.3467 120.569 39.208C120.75 39.112 120.91 39.08 121.049 39.112C121.198 39.144 121.321 39.2187 121.417 39.336C121.513 39.4427 121.571 39.576 121.593 39.736C121.614 39.8853 121.593 40.0347 121.529 40.184C121.475 40.3333 121.369 40.456 121.209 40.552C120.857 40.7653 120.483 40.92 120.089 41.016C119.694 41.112 119.321 41.16 118.969 41.16ZM125.429 41.16C124.863 41.16 124.357 41.0533 123.909 40.84C123.471 40.616 123.125 40.3173 122.868 39.944C122.623 39.5707 122.501 39.1493 122.501 38.68C122.501 38.104 122.65 37.6507 122.949 37.32C123.247 36.9787 123.733 36.7333 124.405 36.584C125.077 36.4347 125.978 36.36 127.109 36.36H127.909V37.512H127.125C126.463 37.512 125.935 37.544 125.541 37.608C125.146 37.672 124.863 37.784 124.693 37.944C124.533 38.0933 124.453 38.3067 124.453 38.584C124.453 38.936 124.575 39.224 124.821 39.448C125.066 39.672 125.407 39.784 125.845 39.784C126.197 39.784 126.506 39.704 126.773 39.544C127.05 39.3733 127.269 39.144 127.429 38.856C127.589 38.568 127.669 38.2373 127.669 37.864V36.024C127.669 35.4907 127.551 35.1067 127.317 34.872C127.082 34.6373 126.687 34.52 126.133 34.52C125.823 34.52 125.487 34.5573 125.125 34.632C124.773 34.7067 124.399 34.8347 124.005 35.016C123.802 35.112 123.621 35.1387 123.461 35.096C123.311 35.0533 123.194 34.968 123.109 34.84C123.023 34.7013 122.981 34.552 122.981 34.392C122.981 34.232 123.023 34.0773 123.109 33.928C123.194 33.768 123.338 33.6507 123.541 33.576C124.031 33.3733 124.501 33.2293 124.949 33.144C125.407 33.0587 125.823 33.016 126.197 33.016C126.965 33.016 127.594 33.1333 128.085 33.368C128.586 33.6027 128.959 33.96 129.205 34.44C129.45 34.9093 129.573 35.5173 129.573 36.264V40.104C129.573 40.4347 129.493 40.6907 129.333 40.872C129.173 41.0427 128.943 41.128 128.645 41.128C128.346 41.128 128.111 41.0427 127.941 40.872C127.781 40.6907 127.701 40.4347 127.701 40.104V39.336H127.829C127.754 39.7093 127.605 40.0347 127.381 40.312C127.167 40.5787 126.895 40.7867 126.565 40.936C126.234 41.0853 125.855 41.16 125.429 41.16ZM135.187 41.16C134.493 41.16 133.912 41.0427 133.443 40.808C132.984 40.5733 132.643 40.232 132.419 39.784C132.195 39.3253 132.083 38.76 132.083 38.088V34.68H131.251C130.995 34.68 130.797 34.616 130.659 34.488C130.52 34.3493 130.45 34.1627 130.45 33.928C130.45 33.6827 130.52 33.496 130.659 33.368C130.797 33.24 130.995 33.176 131.251 33.176H132.083V31.72C132.083 31.3893 132.168 31.1387 132.339 30.968C132.52 30.7973 132.771 30.712 133.091 30.712C133.411 30.712 133.656 30.7973 133.827 30.968C133.997 31.1387 134.083 31.3893 134.083 31.72V33.176H135.779C136.035 33.176 136.232 33.24 136.371 33.368C136.509 33.496 136.579 33.6827 136.579 33.928C136.579 34.1627 136.509 34.3493 136.371 34.488C136.232 34.616 136.035 34.68 135.779 34.68H134.083V37.976C134.083 38.488 134.195 38.872 134.419 39.128C134.643 39.384 135.005 39.512 135.507 39.512C135.688 39.512 135.848 39.496 135.987 39.464C136.125 39.432 136.248 39.4107 136.355 39.4C136.483 39.3893 136.589 39.432 136.675 39.528C136.76 39.6133 136.803 39.7947 136.803 40.072C136.803 40.2853 136.765 40.4773 136.691 40.648C136.627 40.808 136.504 40.92 136.323 40.984C136.184 41.0267 136.003 41.064 135.779 41.096C135.555 41.1387 135.357 41.16 135.187 41.16ZM138.938 41.112C138.618 41.112 138.373 41.016 138.202 40.824C138.032 40.632 137.946 40.3653 137.946 40.024V34.152C137.946 33.8 138.032 33.5333 138.202 33.352C138.373 33.16 138.618 33.064 138.938 33.064C139.258 33.064 139.504 33.16 139.674 33.352C139.856 33.5333 139.946 33.8 139.946 34.152V40.024C139.946 40.3653 139.861 40.632 139.69 40.824C139.52 41.016 139.269 41.112 138.938 41.112ZM138.938 31.576C138.565 31.576 138.272 31.4853 138.058 31.304C137.856 31.112 137.754 30.8507 137.754 30.52C137.754 30.1787 137.856 29.9173 138.058 29.736C138.272 29.5547 138.565 29.464 138.938 29.464C139.322 29.464 139.616 29.5547 139.818 29.736C140.021 29.9173 140.122 30.1787 140.122 30.52C140.122 30.8507 140.021 31.112 139.818 31.304C139.616 31.4853 139.322 31.576 138.938 31.576ZM145.592 41.16C144.782 41.16 144.078 40.9947 143.48 40.664C142.883 40.3333 142.419 39.864 142.088 39.256C141.758 38.6373 141.592 37.912 141.592 37.08C141.592 36.4507 141.683 35.8907 141.864 35.4C142.056 34.8987 142.328 34.472 142.68 34.12C143.032 33.7573 143.454 33.4853 143.944 33.304C144.435 33.112 144.984 33.016 145.592 33.016C146.403 33.016 147.107 33.1813 147.704 33.512C148.302 33.8427 148.766 34.312 149.096 34.92C149.427 35.528 149.592 36.248 149.592 37.08C149.592 37.7093 149.496 38.2747 149.304 38.776C149.123 39.2773 148.856 39.7093 148.504 40.072C148.152 40.424 147.731 40.696 147.24 40.888C146.75 41.0693 146.2 41.16 145.592 41.16ZM145.592 39.64C145.987 39.64 146.334 39.544 146.632 39.352C146.931 39.16 147.16 38.8773 147.32 38.504C147.491 38.12 147.576 37.6453 147.576 37.08C147.576 36.2267 147.395 35.592 147.032 35.176C146.67 34.7493 146.19 34.536 145.592 34.536C145.198 34.536 144.851 34.632 144.552 34.824C144.254 35.0053 144.019 35.288 143.848 35.672C143.688 36.0453 143.608 36.5147 143.608 37.08C143.608 37.9227 143.79 38.5627 144.152 39C144.515 39.4267 144.995 39.64 145.592 39.64ZM152.235 41.128C151.915 41.128 151.67 41.0427 151.499 40.872C151.328 40.6907 151.243 40.4347 151.243 40.104V34.056C151.243 33.7253 151.328 33.4747 151.499 33.304C151.67 33.1333 151.91 33.048 152.219 33.048C152.528 33.048 152.768 33.1333 152.939 33.304C153.11 33.4747 153.195 33.7253 153.195 34.056V35.144L153.019 34.744C153.254 34.1787 153.616 33.752 154.107 33.464C154.608 33.1653 155.174 33.016 155.803 33.016C156.432 33.016 156.95 33.1333 157.355 33.368C157.76 33.6027 158.064 33.96 158.267 34.44C158.47 34.9093 158.571 35.5067 158.571 36.232V40.104C158.571 40.4347 158.486 40.6907 158.315 40.872C158.144 41.0427 157.899 41.128 157.579 41.128C157.259 41.128 157.008 41.0427 156.827 40.872C156.656 40.6907 156.571 40.4347 156.571 40.104V36.328C156.571 35.72 156.454 35.2773 156.219 35C155.995 34.7227 155.643 34.584 155.163 34.584C154.576 34.584 154.107 34.7707 153.755 35.144C153.414 35.5067 153.243 35.992 153.243 36.6V40.104C153.243 40.7867 152.907 41.128 152.235 41.128ZM167.97 41.128C167.704 41.128 167.474 41.064 167.282 40.936C167.09 40.7973 166.936 40.584 166.818 40.296L164.498 34.376C164.402 34.12 164.37 33.896 164.402 33.704C164.445 33.5013 164.546 33.3413 164.706 33.224C164.866 33.1067 165.08 33.048 165.346 33.048C165.581 33.048 165.773 33.1067 165.922 33.224C166.072 33.3307 166.2 33.5387 166.306 33.848L168.242 39.176H167.874L169.874 33.72C169.96 33.4853 170.072 33.3147 170.21 33.208C170.36 33.1013 170.552 33.048 170.786 33.048C171.021 33.048 171.213 33.1067 171.362 33.224C171.512 33.3307 171.624 33.496 171.698 33.72L173.666 39.176H173.33L175.282 33.8C175.389 33.512 175.522 33.3147 175.682 33.208C175.853 33.1013 176.04 33.048 176.242 33.048C176.498 33.048 176.696 33.112 176.834 33.24C176.973 33.368 177.053 33.5333 177.074 33.736C177.096 33.928 177.058 34.1413 176.962 34.376L174.658 40.296C174.552 40.5733 174.397 40.7813 174.194 40.92C174.002 41.0587 173.773 41.128 173.506 41.128C173.24 41.128 173.005 41.0587 172.802 40.92C172.61 40.7813 172.461 40.5733 172.354 40.296L170.258 34.744H171.17L169.122 40.28C169.016 40.568 168.866 40.7813 168.674 40.92C168.482 41.0587 168.248 41.128 167.97 41.128ZM179.579 41.112C179.259 41.112 179.014 41.016 178.843 40.824C178.672 40.632 178.587 40.3653 178.587 40.024V34.152C178.587 33.8 178.672 33.5333 178.843 33.352C179.014 33.16 179.259 33.064 179.579 33.064C179.899 33.064 180.144 33.16 180.315 33.352C180.496 33.5333 180.587 33.8 180.587 34.152V40.024C180.587 40.3653 180.502 40.632 180.331 40.824C180.16 41.016 179.91 41.112 179.579 41.112ZM179.579 31.576C179.206 31.576 178.912 31.4853 178.699 31.304C178.496 31.112 178.395 30.8507 178.395 30.52C178.395 30.1787 178.496 29.9173 178.699 29.736C178.912 29.5547 179.206 29.464 179.579 29.464C179.963 29.464 180.256 29.5547 180.459 29.736C180.662 29.9173 180.763 30.1787 180.763 30.52C180.763 30.8507 180.662 31.112 180.459 31.304C180.256 31.4853 179.963 31.576 179.579 31.576ZM185.337 41.16C184.452 41.16 183.785 40.9093 183.337 40.408C182.889 39.896 182.665 39.1493 182.665 38.168V30.6C182.665 30.2693 182.75 30.0187 182.921 29.848C183.092 29.6773 183.337 29.592 183.657 29.592C183.977 29.592 184.222 29.6773 184.393 29.848C184.574 30.0187 184.665 30.2693 184.665 30.6V38.072C184.665 38.5627 184.766 38.9253 184.969 39.16C185.182 39.3947 185.481 39.512 185.865 39.512C185.95 39.512 186.03 39.512 186.105 39.512C186.18 39.5013 186.254 39.4907 186.329 39.48C186.478 39.4587 186.58 39.5013 186.633 39.608C186.686 39.704 186.713 39.9067 186.713 40.216C186.713 40.4827 186.66 40.6907 186.553 40.84C186.446 40.9893 186.27 41.08 186.025 41.112C185.918 41.1227 185.806 41.1333 185.689 41.144C185.572 41.1547 185.454 41.16 185.337 41.16ZM190.446 41.16C189.561 41.16 188.894 40.9093 188.446 40.408C187.998 39.896 187.774 39.1493 187.774 38.168V30.6C187.774 30.2693 187.86 30.0187 188.03 29.848C188.201 29.6773 188.446 29.592 188.766 29.592C189.086 29.592 189.332 29.6773 189.502 29.848C189.684 30.0187 189.774 30.2693 189.774 30.6V38.072C189.774 38.5627 189.876 38.9253 190.078 39.16C190.292 39.3947 190.59 39.512 190.974 39.512C191.06 39.512 191.14 39.512 191.214 39.512C191.289 39.5013 191.364 39.4907 191.438 39.48C191.588 39.4587 191.689 39.5013 191.742 39.608C191.796 39.704 191.822 39.9067 191.822 40.216C191.822 40.4827 191.769 40.6907 191.662 40.84C191.556 40.9893 191.38 41.08 191.134 41.112C191.028 41.1227 190.916 41.1333 190.798 41.144C190.681 41.1547 190.564 41.16 190.446 41.16ZM200.092 41.16C199.633 41.16 199.148 41.112 198.636 41.016C198.124 40.92 197.665 40.7547 197.26 40.52C197.089 40.4133 196.966 40.2907 196.892 40.152C196.828 40.0027 196.801 39.8587 196.812 39.72C196.833 39.5707 196.886 39.4427 196.972 39.336C197.068 39.2293 197.185 39.16 197.324 39.128C197.473 39.096 197.633 39.1227 197.804 39.208C198.23 39.4107 198.63 39.5547 199.004 39.64C199.377 39.7147 199.745 39.752 200.108 39.752C200.62 39.752 200.998 39.6667 201.244 39.496C201.5 39.3147 201.628 39.08 201.628 38.792C201.628 38.5467 201.542 38.36 201.372 38.232C201.212 38.0933 200.966 37.992 200.636 37.928L199.036 37.624C198.374 37.496 197.868 37.256 197.516 36.904C197.174 36.5413 197.004 36.0773 197.004 35.512C197.004 35 197.142 34.5573 197.42 34.184C197.708 33.8107 198.102 33.5227 198.604 33.32C199.105 33.1173 199.681 33.016 200.332 33.016C200.801 33.016 201.238 33.0693 201.644 33.176C202.06 33.272 202.46 33.4267 202.844 33.64C203.004 33.7253 203.11 33.8373 203.164 33.976C203.228 34.1147 203.244 34.2587 203.212 34.408C203.18 34.5467 203.116 34.6747 203.02 34.792C202.924 34.8987 202.801 34.968 202.652 35C202.513 35.0213 202.353 34.9893 202.172 34.904C201.841 34.7333 201.521 34.6107 201.212 34.536C200.913 34.4613 200.625 34.424 200.348 34.424C199.825 34.424 199.436 34.5147 199.18 34.696C198.934 34.8773 198.812 35.1173 198.812 35.416C198.812 35.64 198.886 35.8267 199.036 35.976C199.185 36.1253 199.414 36.2267 199.724 36.28L201.324 36.584C202.017 36.712 202.54 36.9467 202.892 37.288C203.254 37.6293 203.436 38.088 203.436 38.664C203.436 39.4427 203.132 40.056 202.524 40.504C201.916 40.9413 201.105 41.16 200.092 41.16ZM208.896 41.16C208.011 41.16 207.248 40.9947 206.608 40.664C205.968 40.3333 205.472 39.864 205.12 39.256C204.779 38.648 204.608 37.928 204.608 37.096C204.608 36.2853 204.773 35.576 205.104 34.968C205.445 34.36 205.909 33.8853 206.496 33.544C207.093 33.192 207.771 33.016 208.528 33.016C209.083 33.016 209.579 33.1067 210.016 33.288C210.464 33.4693 210.843 33.7307 211.152 34.072C211.472 34.4133 211.712 34.8293 211.872 35.32C212.043 35.8 212.128 36.344 212.128 36.952C212.128 37.144 212.059 37.2933 211.92 37.4C211.792 37.496 211.605 37.544 211.36 37.544H206.224V36.392H210.72L210.464 36.632C210.464 36.1413 210.389 35.7307 210.24 35.4C210.101 35.0693 209.893 34.8187 209.616 34.648C209.349 34.4667 209.013 34.376 208.608 34.376C208.16 34.376 207.776 34.4827 207.456 34.696C207.147 34.8987 206.907 35.192 206.736 35.576C206.576 35.9493 206.496 36.3973 206.496 36.92V37.032C206.496 37.9067 206.699 38.5627 207.104 39C207.52 39.4267 208.128 39.64 208.928 39.64C209.205 39.64 209.515 39.608 209.856 39.544C210.208 39.4693 210.539 39.3467 210.848 39.176C211.072 39.048 211.269 38.9947 211.44 39.016C211.611 39.0267 211.744 39.0853 211.84 39.192C211.947 39.2987 212.011 39.432 212.032 39.592C212.053 39.7413 212.021 39.896 211.936 40.056C211.861 40.216 211.728 40.3547 211.536 40.472C211.163 40.7067 210.731 40.8827 210.24 41C209.76 41.1067 209.312 41.16 208.896 41.16ZM214.704 41.128C214.384 41.128 214.139 41.0427 213.968 40.872C213.797 40.6907 213.712 40.4347 213.712 40.104V34.056C213.712 33.7253 213.797 33.4747 213.968 33.304C214.139 33.1333 214.379 33.048 214.688 33.048C214.997 33.048 215.237 33.1333 215.408 33.304C215.579 33.4747 215.664 33.7253 215.664 34.056V35.144L215.488 34.744C215.723 34.1787 216.085 33.752 216.576 33.464C217.077 33.1653 217.643 33.016 218.272 33.016C218.901 33.016 219.419 33.1333 219.824 33.368C220.229 33.6027 220.533 33.96 220.736 34.44C220.939 34.9093 221.04 35.5067 221.04 36.232V40.104C221.04 40.4347 220.955 40.6907 220.784 40.872C220.613 41.0427 220.368 41.128 220.048 41.128C219.728 41.128 219.477 41.0427 219.296 40.872C219.125 40.6907 219.04 40.4347 219.04 40.104V36.328C219.04 35.72 218.923 35.2773 218.688 35C218.464 34.7227 218.112 34.584 217.632 34.584C217.045 34.584 216.576 34.7707 216.224 35.144C215.883 35.5067 215.712 35.992 215.712 36.6V40.104C215.712 40.7867 215.376 41.128 214.704 41.128ZM226.079 41.16C225.397 41.16 224.794 40.9947 224.271 40.664C223.759 40.3333 223.359 39.864 223.071 39.256C222.783 38.6373 222.639 37.912 222.639 37.08C222.639 36.2373 222.783 35.5173 223.071 34.92C223.359 34.312 223.759 33.8427 224.271 33.512C224.794 33.1813 225.397 33.016 226.079 33.016C226.73 33.016 227.295 33.176 227.775 33.496C228.266 33.816 228.597 34.2373 228.767 34.76H228.591V30.6C228.591 30.2693 228.677 30.0187 228.847 29.848C229.018 29.6773 229.263 29.592 229.583 29.592C229.903 29.592 230.149 29.6773 230.319 29.848C230.501 30.0187 230.591 30.2693 230.591 30.6V40.104C230.591 40.4347 230.506 40.6907 230.335 40.872C230.165 41.0427 229.919 41.128 229.599 41.128C229.279 41.128 229.034 41.0427 228.863 40.872C228.693 40.6907 228.607 40.4347 228.607 40.104V38.856L228.783 39.336C228.623 39.8907 228.298 40.3333 227.807 40.664C227.317 40.9947 226.741 41.16 226.079 41.16ZM226.639 39.64C227.034 39.64 227.381 39.544 227.679 39.352C227.978 39.16 228.207 38.8773 228.367 38.504C228.538 38.12 228.623 37.6453 228.623 37.08C228.623 36.2267 228.442 35.592 228.079 35.176C227.717 34.7493 227.237 34.536 226.639 34.536C226.245 34.536 225.898 34.632 225.599 34.824C225.301 35.0053 225.066 35.288 224.895 35.672C224.735 36.0453 224.655 36.5147 224.655 37.08C224.655 37.9227 224.837 38.5627 225.199 39C225.562 39.4267 226.042 39.64 226.639 39.64ZM240.033 41.128C239.766 41.128 239.537 41.064 239.345 40.936C239.153 40.7973 238.998 40.584 238.881 40.296L236.561 34.376C236.465 34.12 236.433 33.896 236.465 33.704C236.507 33.5013 236.609 33.3413 236.769 33.224C236.929 33.1067 237.142 33.048 237.409 33.048C237.643 33.048 237.835 33.1067 237.985 33.224C238.134 33.3307 238.262 33.5387 238.369 33.848L240.305 39.176H239.937L241.937 33.72C242.022 33.4853 242.134 33.3147 242.273 33.208C242.422 33.1013 242.614 33.048 242.849 33.048C243.083 33.048 243.275 33.1067 243.425 33.224C243.574 33.3307 243.686 33.496 243.761 33.72L245.729 39.176H245.393L247.345 33.8C247.451 33.512 247.585 33.3147 247.745 33.208C247.915 33.1013 248.102 33.048 248.305 33.048C248.561 33.048 248.758 33.112 248.897 33.24C249.035 33.368 249.115 33.5333 249.137 33.736C249.158 33.928 249.121 34.1413 249.025 34.376L246.721 40.296C246.614 40.5733 246.459 40.7813 246.257 40.92C246.065 41.0587 245.835 41.128 245.569 41.128C245.302 41.128 245.067 41.0587 244.865 40.92C244.673 40.7813 244.523 40.5733 244.417 40.296L242.321 34.744H243.233L241.185 40.28C241.078 40.568 240.929 40.7813 240.737 40.92C240.545 41.0587 240.31 41.128 240.033 41.128ZM251.641 41.112C251.321 41.112 251.076 41.016 250.905 40.824C250.735 40.632 250.649 40.3653 250.649 40.024V34.152C250.649 33.8 250.735 33.5333 250.905 33.352C251.076 33.16 251.321 33.064 251.641 33.064C251.961 33.064 252.207 33.16 252.377 33.352C252.559 33.5333 252.649 33.8 252.649 34.152V40.024C252.649 40.3653 252.564 40.632 252.393 40.824C252.223 41.016 251.972 41.112 251.641 41.112ZM251.641 31.576C251.268 31.576 250.975 31.4853 250.761 31.304C250.559 31.112 250.457 30.8507 250.457 30.52C250.457 30.1787 250.559 29.9173 250.761 29.736C250.975 29.5547 251.268 29.464 251.641 29.464C252.025 29.464 252.319 29.5547 252.521 29.736C252.724 29.9173 252.825 30.1787 252.825 30.52C252.825 30.8507 252.724 31.112 252.521 31.304C252.319 31.4853 252.025 31.576 251.641 31.576ZM258.312 41.16C257.618 41.16 257.037 41.0427 256.568 40.808C256.109 40.5733 255.768 40.232 255.544 39.784C255.32 39.3253 255.208 38.76 255.208 38.088V34.68H254.376C254.12 34.68 253.922 34.616 253.784 34.488C253.645 34.3493 253.575 34.1627 253.575 33.928C253.575 33.6827 253.645 33.496 253.784 33.368C253.922 33.24 254.12 33.176 254.376 33.176H255.208V31.72C255.208 31.3893 255.293 31.1387 255.464 30.968C255.645 30.7973 255.896 30.712 256.216 30.712C256.536 30.712 256.781 30.7973 256.952 30.968C257.122 31.1387 257.208 31.3893 257.208 31.72V33.176H258.904C259.16 33.176 259.357 33.24 259.496 33.368C259.634 33.496 259.704 33.6827 259.704 33.928C259.704 34.1627 259.634 34.3493 259.496 34.488C259.357 34.616 259.16 34.68 258.904 34.68H257.208V37.976C257.208 38.488 257.32 38.872 257.544 39.128C257.768 39.384 258.13 39.512 258.632 39.512C258.813 39.512 258.973 39.496 259.112 39.464C259.25 39.432 259.373 39.4107 259.48 39.4C259.608 39.3893 259.714 39.432 259.8 39.528C259.885 39.6133 259.928 39.7947 259.928 40.072C259.928 40.2853 259.89 40.4773 259.816 40.648C259.752 40.808 259.629 40.92 259.448 40.984C259.309 41.0267 259.128 41.064 258.904 41.096C258.68 41.1387 258.482 41.16 258.312 41.16ZM262.063 41.128C261.743 41.128 261.498 41.0427 261.327 40.872C261.157 40.6907 261.071 40.4347 261.071 40.104V30.6C261.071 30.2693 261.157 30.0187 261.327 29.848C261.498 29.6773 261.743 29.592 262.063 29.592C262.383 29.592 262.629 29.6773 262.799 29.848C262.981 30.0187 263.071 30.2693 263.071 30.6V34.744H262.847C263.082 34.1787 263.445 33.752 263.935 33.464C264.437 33.1653 265.002 33.016 265.631 33.016C266.261 33.016 266.778 33.1333 267.183 33.368C267.589 33.6027 267.893 33.96 268.095 34.44C268.298 34.9093 268.399 35.5067 268.399 36.232V40.104C268.399 40.4347 268.314 40.6907 268.143 40.872C267.973 41.0427 267.727 41.128 267.407 41.128C267.087 41.128 266.837 41.0427 266.655 40.872C266.485 40.6907 266.399 40.4347 266.399 40.104V36.328C266.399 35.72 266.282 35.2773 266.047 35C265.823 34.7227 265.471 34.584 264.991 34.584C264.405 34.584 263.935 34.7707 263.583 35.144C263.242 35.5067 263.071 35.992 263.071 36.6V40.104C263.071 40.7867 262.735 41.128 262.063 41.128ZM273.999 41.16C273.188 41.16 272.484 40.9947 271.887 40.664C271.289 40.3333 270.825 39.864 270.495 39.256C270.164 38.6373 269.999 37.912 269.999 37.08C269.999 36.4507 270.089 35.8907 270.271 35.4C270.463 34.8987 270.735 34.472 271.087 34.12C271.439 33.7573 271.86 33.4853 272.351 33.304C272.841 33.112 273.391 33.016 273.999 33.016C274.809 33.016 275.513 33.1813 276.111 33.512C276.708 33.8427 277.172 34.312 277.503 34.92C277.833 35.528 277.999 36.248 277.999 37.08C277.999 37.7093 277.903 38.2747 277.711 38.776C277.529 39.2773 277.263 39.7093 276.911 40.072C276.559 40.424 276.137 40.696 275.647 40.888C275.156 41.0693 274.607 41.16 273.999 41.16ZM273.999 39.64C274.393 39.64 274.74 39.544 275.039 39.352C275.337 39.16 275.567 38.8773 275.727 38.504C275.897 38.12 275.983 37.6453 275.983 37.08C275.983 36.2267 275.801 35.592 275.439 35.176C275.076 34.7493 274.596 34.536 273.999 34.536C273.604 34.536 273.257 34.632 272.959 34.824C272.66 35.0053 272.425 35.288 272.255 35.672C272.095 36.0453 272.015 36.5147 272.015 37.08C272.015 37.9227 272.196 38.5627 272.559 39C272.921 39.4267 273.401 39.64 273.999 39.64ZM282.481 41.16C281.831 41.16 281.292 41.0427 280.865 40.808C280.439 40.5627 280.119 40.2 279.905 39.72C279.703 39.24 279.601 38.6427 279.601 37.928V34.056C279.601 33.7147 279.687 33.464 279.857 33.304C280.028 33.1333 280.273 33.048 280.593 33.048C280.913 33.048 281.159 33.1333 281.329 33.304C281.511 33.464 281.601 33.7147 281.601 34.056V37.96C281.601 38.5147 281.713 38.9253 281.937 39.192C282.161 39.4587 282.519 39.592 283.009 39.592C283.543 39.592 283.98 39.4107 284.321 39.048C284.663 38.6747 284.833 38.184 284.833 37.576V34.056C284.833 33.7147 284.919 33.464 285.089 33.304C285.26 33.1333 285.505 33.048 285.825 33.048C286.145 33.048 286.391 33.1333 286.561 33.304C286.743 33.464 286.833 33.7147 286.833 34.056V40.104C286.833 40.7867 286.508 41.128 285.857 41.128C285.548 41.128 285.308 41.0427 285.137 40.872C284.967 40.6907 284.881 40.4347 284.881 40.104V38.888L285.105 39.368C284.881 39.944 284.54 40.3867 284.081 40.696C283.633 41.0053 283.1 41.16 282.481 41.16ZM292.499 41.16C291.806 41.16 291.224 41.0427 290.755 40.808C290.296 40.5733 289.955 40.232 289.731 39.784C289.507 39.3253 289.395 38.76 289.395 38.088V34.68H288.563C288.307 34.68 288.11 34.616 287.971 34.488C287.832 34.3493 287.763 34.1627 287.763 33.928C287.763 33.6827 287.832 33.496 287.971 33.368C288.11 33.24 288.307 33.176 288.563 33.176H289.395V31.72C289.395 31.3893 289.48 31.1387 289.651 30.968C289.832 30.7973 290.083 30.712 290.403 30.712C290.723 30.712 290.968 30.7973 291.139 30.968C291.31 31.1387 291.395 31.3893 291.395 31.72V33.176H293.091C293.347 33.176 293.544 33.24 293.683 33.368C293.822 33.496 293.891 33.6827 293.891 33.928C293.891 34.1627 293.822 34.3493 293.683 34.488C293.544 34.616 293.347 34.68 293.091 34.68H291.395V37.976C291.395 38.488 291.507 38.872 291.731 39.128C291.955 39.384 292.318 39.512 292.819 39.512C293 39.512 293.16 39.496 293.299 39.464C293.438 39.432 293.56 39.4107 293.667 39.4C293.795 39.3893 293.902 39.432 293.987 39.528C294.072 39.6133 294.115 39.7947 294.115 40.072C294.115 40.2853 294.078 40.4773 294.003 40.648C293.939 40.808 293.816 40.92 293.635 40.984C293.496 41.0267 293.315 41.064 293.091 41.096C292.867 41.1387 292.67 41.16 292.499 41.16ZM300.423 41.128C300.103 41.128 299.858 41.0427 299.687 40.872C299.517 40.6907 299.431 40.4347 299.431 40.104V34.056C299.431 33.7253 299.517 33.4747 299.687 33.304C299.858 33.1333 300.098 33.048 300.407 33.048C300.717 33.048 300.957 33.1333 301.127 33.304C301.298 33.4747 301.383 33.7253 301.383 34.056V35.224L301.207 34.744C301.421 34.2107 301.751 33.7893 302.199 33.48C302.647 33.1707 303.181 33.016 303.799 33.016C304.429 33.016 304.946 33.1653 305.351 33.464C305.757 33.7627 306.039 34.2213 306.199 34.84H305.975C306.189 34.2747 306.541 33.832 307.031 33.512C307.522 33.1813 308.087 33.016 308.727 33.016C309.325 33.016 309.815 33.1333 310.199 33.368C310.594 33.6027 310.887 33.96 311.079 34.44C311.271 34.9093 311.367 35.5067 311.367 36.232V40.104C311.367 40.4347 311.277 40.6907 311.095 40.872C310.925 41.0427 310.679 41.128 310.359 41.128C310.039 41.128 309.794 41.0427 309.623 40.872C309.453 40.6907 309.367 40.4347 309.367 40.104V36.312C309.367 35.7147 309.266 35.2773 309.063 35C308.871 34.7227 308.541 34.584 308.071 34.584C307.549 34.584 307.138 34.7707 306.839 35.144C306.541 35.5067 306.391 36.0133 306.391 36.664V40.104C306.391 40.4347 306.306 40.6907 306.135 40.872C305.965 41.0427 305.719 41.128 305.399 41.128C305.079 41.128 304.829 41.0427 304.647 40.872C304.477 40.6907 304.391 40.4347 304.391 40.104V36.312C304.391 35.7147 304.29 35.2773 304.087 35C303.895 34.7227 303.57 34.584 303.111 34.584C302.589 34.584 302.178 34.7707 301.879 35.144C301.581 35.5067 301.431 36.0133 301.431 36.664V40.104C301.431 40.7867 301.095 41.128 300.423 41.128ZM317.287 41.16C316.401 41.16 315.639 40.9947 314.999 40.664C314.359 40.3333 313.863 39.864 313.511 39.256C313.169 38.648 312.999 37.928 312.999 37.096C312.999 36.2853 313.164 35.576 313.495 34.968C313.836 34.36 314.3 33.8853 314.887 33.544C315.484 33.192 316.161 33.016 316.919 33.016C317.473 33.016 317.969 33.1067 318.407 33.288C318.855 33.4693 319.233 33.7307 319.543 34.072C319.863 34.4133 320.103 34.8293 320.263 35.32C320.433 35.8 320.519 36.344 320.519 36.952C320.519 37.144 320.449 37.2933 320.311 37.4C320.183 37.496 319.996 37.544 319.751 37.544H314.615V36.392H319.111L318.855 36.632C318.855 36.1413 318.78 35.7307 318.631 35.4C318.492 35.0693 318.284 34.8187 318.007 34.648C317.74 34.4667 317.404 34.376 316.999 34.376C316.551 34.376 316.167 34.4827 315.847 34.696C315.537 34.8987 315.297 35.192 315.127 35.576C314.967 35.9493 314.887 36.3973 314.887 36.92V37.032C314.887 37.9067 315.089 38.5627 315.495 39C315.911 39.4267 316.519 39.64 317.319 39.64C317.596 39.64 317.905 39.608 318.247 39.544C318.599 39.4693 318.929 39.3467 319.239 39.176C319.463 39.048 319.66 38.9947 319.831 39.016C320.001 39.0267 320.135 39.0853 320.231 39.192C320.337 39.2987 320.401 39.432 320.423 39.592C320.444 39.7413 320.412 39.896 320.327 40.056C320.252 40.216 320.119 40.3547 319.927 40.472C319.553 40.7067 319.121 40.8827 318.631 41C318.151 41.1067 317.703 41.16 317.287 41.16ZM324.967 41.16C324.508 41.16 324.023 41.112 323.511 41.016C322.999 40.92 322.54 40.7547 322.135 40.52C321.964 40.4133 321.841 40.2907 321.767 40.152C321.703 40.0027 321.676 39.8587 321.687 39.72C321.708 39.5707 321.761 39.4427 321.847 39.336C321.943 39.2293 322.06 39.16 322.199 39.128C322.348 39.096 322.508 39.1227 322.679 39.208C323.105 39.4107 323.505 39.5547 323.879 39.64C324.252 39.7147 324.62 39.752 324.983 39.752C325.495 39.752 325.873 39.6667 326.119 39.496C326.375 39.3147 326.503 39.08 326.503 38.792C326.503 38.5467 326.417 38.36 326.247 38.232C326.087 38.0933 325.841 37.992 325.511 37.928L323.911 37.624C323.249 37.496 322.743 37.256 322.391 36.904C322.049 36.5413 321.879 36.0773 321.879 35.512C321.879 35 322.017 34.5573 322.295 34.184C322.583 33.8107 322.977 33.5227 323.479 33.32C323.98 33.1173 324.556 33.016 325.207 33.016C325.676 33.016 326.113 33.0693 326.519 33.176C326.935 33.272 327.335 33.4267 327.719 33.64C327.879 33.7253 327.985 33.8373 328.039 33.976C328.103 34.1147 328.119 34.2587 328.087 34.408C328.055 34.5467 327.991 34.6747 327.895 34.792C327.799 34.8987 327.676 34.968 327.527 35C327.388 35.0213 327.228 34.9893 327.047 34.904C326.716 34.7333 326.396 34.6107 326.087 34.536C325.788 34.4613 325.5 34.424 325.223 34.424C324.7 34.424 324.311 34.5147 324.055 34.696C323.809 34.8773 323.687 35.1173 323.687 35.416C323.687 35.64 323.761 35.8267 323.911 35.976C324.06 36.1253 324.289 36.2267 324.599 36.28L326.199 36.584C326.892 36.712 327.415 36.9467 327.767 37.288C328.129 37.6293 328.311 38.088 328.311 38.664C328.311 39.4427 328.007 40.056 327.399 40.504C326.791 40.9413 325.98 41.16 324.967 41.16ZM332.779 41.16C332.32 41.16 331.835 41.112 331.323 41.016C330.811 40.92 330.352 40.7547 329.947 40.52C329.776 40.4133 329.654 40.2907 329.579 40.152C329.515 40.0027 329.488 39.8587 329.499 39.72C329.52 39.5707 329.574 39.4427 329.659 39.336C329.755 39.2293 329.872 39.16 330.011 39.128C330.16 39.096 330.32 39.1227 330.491 39.208C330.918 39.4107 331.318 39.5547 331.691 39.64C332.064 39.7147 332.432 39.752 332.795 39.752C333.307 39.752 333.686 39.6667 333.931 39.496C334.187 39.3147 334.315 39.08 334.315 38.792C334.315 38.5467 334.23 38.36 334.059 38.232C333.899 38.0933 333.654 37.992 333.323 37.928L331.723 37.624C331.062 37.496 330.555 37.256 330.203 36.904C329.862 36.5413 329.691 36.0773 329.691 35.512C329.691 35 329.83 34.5573 330.107 34.184C330.395 33.8107 330.79 33.5227 331.291 33.32C331.792 33.1173 332.368 33.016 333.019 33.016C333.488 33.016 333.926 33.0693 334.331 33.176C334.747 33.272 335.147 33.4267 335.531 33.64C335.691 33.7253 335.798 33.8373 335.851 33.976C335.915 34.1147 335.931 34.2587 335.899 34.408C335.867 34.5467 335.803 34.6747 335.707 34.792C335.611 34.8987 335.488 34.968 335.339 35C335.2 35.0213 335.04 34.9893 334.859 34.904C334.528 34.7333 334.208 34.6107 333.899 34.536C333.6 34.4613 333.312 34.424 333.035 34.424C332.512 34.424 332.123 34.5147 331.867 34.696C331.622 34.8773 331.499 35.1173 331.499 35.416C331.499 35.64 331.574 35.8267 331.723 35.976C331.872 36.1253 332.102 36.2267 332.411 36.28L334.011 36.584C334.704 36.712 335.227 36.9467 335.579 37.288C335.942 37.6293 336.123 38.088 336.123 38.664C336.123 39.4427 335.819 40.056 335.211 40.504C334.603 40.9413 333.792 41.16 332.779 41.16ZM340.304 41.16C339.738 41.16 339.232 41.0533 338.784 40.84C338.346 40.616 338 40.3173 337.743 39.944C337.498 39.5707 337.376 39.1493 337.376 38.68C337.376 38.104 337.525 37.6507 337.824 37.32C338.122 36.9787 338.608 36.7333 339.28 36.584C339.952 36.4347 340.853 36.36 341.984 36.36H342.784V37.512H342C341.338 37.512 340.81 37.544 340.416 37.608C340.021 37.672 339.738 37.784 339.568 37.944C339.408 38.0933 339.328 38.3067 339.328 38.584C339.328 38.936 339.45 39.224 339.696 39.448C339.941 39.672 340.282 39.784 340.72 39.784C341.072 39.784 341.381 39.704 341.648 39.544C341.925 39.3733 342.144 39.144 342.304 38.856C342.464 38.568 342.544 38.2373 342.544 37.864V36.024C342.544 35.4907 342.426 35.1067 342.192 34.872C341.957 34.6373 341.562 34.52 341.008 34.52C340.698 34.52 340.362 34.5573 340 34.632C339.648 34.7067 339.274 34.8347 338.88 35.016C338.677 35.112 338.496 35.1387 338.336 35.096C338.186 35.0533 338.069 34.968 337.984 34.84C337.898 34.7013 337.856 34.552 337.856 34.392C337.856 34.232 337.898 34.0773 337.984 33.928C338.069 33.768 338.213 33.6507 338.416 33.576C338.906 33.3733 339.376 33.2293 339.824 33.144C340.282 33.0587 340.698 33.016 341.072 33.016C341.84 33.016 342.469 33.1333 342.96 33.368C343.461 33.6027 343.834 33.96 344.08 34.44C344.325 34.9093 344.448 35.5173 344.448 36.264V40.104C344.448 40.4347 344.368 40.6907 344.208 40.872C344.048 41.0427 343.818 41.128 343.52 41.128C343.221 41.128 342.986 41.0427 342.816 40.872C342.656 40.6907 342.576 40.4347 342.576 40.104V39.336H342.704C342.629 39.7093 342.48 40.0347 342.256 40.312C342.042 40.5787 341.77 40.7867 341.44 40.936C341.109 41.0853 340.73 41.16 340.304 41.16ZM350.126 44.04C349.55 44.04 348.99 43.9867 348.446 43.88C347.912 43.7733 347.427 43.608 346.99 43.384C346.787 43.2773 346.648 43.1493 346.574 43C346.51 42.8507 346.488 42.696 346.51 42.536C346.542 42.3867 346.606 42.2533 346.702 42.136C346.808 42.0187 346.936 41.9387 347.086 41.896C347.235 41.8533 347.39 41.8747 347.549 41.96C348.019 42.1947 348.462 42.344 348.878 42.408C349.304 42.4827 349.667 42.52 349.966 42.52C350.68 42.52 351.214 42.344 351.566 41.992C351.928 41.6507 352.11 41.1387 352.11 40.456V39.016H352.254C352.094 39.56 351.758 39.9973 351.246 40.328C350.744 40.648 350.174 40.808 349.534 40.808C348.83 40.808 348.216 40.648 347.694 40.328C347.171 39.9973 346.766 39.5387 346.478 38.952C346.19 38.3653 346.046 37.6827 346.046 36.904C346.046 36.3173 346.126 35.7893 346.286 35.32C346.456 34.84 346.691 34.4293 346.99 34.088C347.299 33.7467 347.667 33.4853 348.094 33.304C348.531 33.112 349.011 33.016 349.534 33.016C350.195 33.016 350.771 33.1813 351.262 33.512C351.763 33.832 352.088 34.2587 352.238 34.792L352.078 35.192V34.056C352.078 33.7253 352.163 33.4747 352.334 33.304C352.515 33.1333 352.76 33.048 353.07 33.048C353.39 33.048 353.635 33.1333 353.806 33.304C353.976 33.4747 354.062 33.7253 354.062 34.056V40.216C354.062 41.4853 353.726 42.44 353.054 43.08C352.382 43.72 351.406 44.04 350.126 44.04ZM350.078 39.288C350.494 39.288 350.851 39.192 351.15 39C351.448 38.808 351.678 38.536 351.838 38.184C352.008 37.8213 352.094 37.3947 352.094 36.904C352.094 36.168 351.912 35.592 351.55 35.176C351.187 34.7493 350.696 34.536 350.078 34.536C349.662 34.536 349.304 34.632 349.006 34.824C348.707 35.016 348.472 35.288 348.302 35.64C348.142 35.992 348.062 36.4133 348.062 36.904C348.062 37.64 348.243 38.2213 348.606 38.648C348.968 39.0747 349.459 39.288 350.078 39.288ZM359.99 41.16C359.104 41.16 358.342 40.9947 357.702 40.664C357.062 40.3333 356.566 39.864 356.214 39.256C355.872 38.648 355.702 37.928 355.702 37.096C355.702 36.2853 355.867 35.576 356.198 34.968C356.539 34.36 357.003 33.8853 357.59 33.544C358.187 33.192 358.864 33.016 359.622 33.016C360.176 33.016 360.672 33.1067 361.11 33.288C361.558 33.4693 361.936 33.7307 362.246 34.072C362.566 34.4133 362.806 34.8293 362.966 35.32C363.136 35.8 363.222 36.344 363.222 36.952C363.222 37.144 363.152 37.2933 363.014 37.4C362.886 37.496 362.699 37.544 362.454 37.544H357.318V36.392H361.814L361.558 36.632C361.558 36.1413 361.483 35.7307 361.334 35.4C361.195 35.0693 360.987 34.8187 360.71 34.648C360.443 34.4667 360.107 34.376 359.702 34.376C359.254 34.376 358.87 34.4827 358.55 34.696C358.24 34.8987 358 35.192 357.83 35.576C357.67 35.9493 357.59 36.3973 357.59 36.92V37.032C357.59 37.9067 357.792 38.5627 358.198 39C358.614 39.4267 359.222 39.64 360.022 39.64C360.299 39.64 360.608 39.608 360.95 39.544C361.302 39.4693 361.632 39.3467 361.942 39.176C362.166 39.048 362.363 38.9947 362.534 39.016C362.704 39.0267 362.838 39.0853 362.934 39.192C363.04 39.2987 363.104 39.432 363.126 39.592C363.147 39.7413 363.115 39.896 363.03 40.056C362.955 40.216 362.822 40.3547 362.63 40.472C362.256 40.7067 361.824 40.8827 361.334 41C360.854 41.1067 360.406 41.16 359.99 41.16Z" fill="#E89B01"/>
<path fill-rule="evenodd" clip-rule="evenodd" d="M45.0083 27.6997C45.0083 31.3999 42.1074 34.3994 38.5289 34.3994C34.9505 34.3994 32.0496 31.3999 32.0496 27.6997C32.0496 23.9996 34.9505 21 38.5289 21C42.1074 21 45.0083 23.9996 45.0083 27.6997ZM42.3636 27.6997C42.3636 30.0234 40.5641 31.7548 38.5289 31.7548C36.4938 31.7548 34.6942 30.0234 34.6942 27.6997C34.6942 25.3761 36.4938 23.6446 38.5289 23.6446C40.5641 23.6446 42.3636 25.3761 42.3636 27.6997Z" fill="#FFB300"/>
<path d="M33.4207 38.6237C35.4721 38.4101 36.9038 38.373 38.7509 38.6193C39.4748 38.7158 40.1398 38.2072 40.2363 37.4833C40.3329 36.7594 39.8243 36.0944 39.1004 35.9978C36.9805 35.7152 35.3268 35.7663 33.1468 35.9934C30.0611 36.3147 27.351 37.2035 25.3719 38.5207C23.4056 39.8294 21.9997 41.688 22 43.9256L22.0001 45.0653C22.0003 47.2573 23.7777 49.0331 25.9688 49.0331H37.3388C38.0691 49.0331 38.6612 48.441 38.6612 47.7107C38.6612 46.9805 38.0691 46.3884 37.3388 46.3884H25.9688C25.2373 46.3884 24.6448 45.7958 24.6447 45.0651L24.6446 43.9253C24.6445 42.8977 25.2883 41.7532 26.8372 40.7223C28.3733 39.7 30.6441 38.913 33.4207 38.6237Z" fill="#FFB300"/>
<path d="M53.9275 48.0507C53.8766 47.958 53.8016 47.8807 53.7105 47.8267L53.0575 47.4355C52.8026 47.2825 52.5917 47.0662 52.4453 46.8078C52.2989 46.5494 52.222 46.2575 52.2221 45.9606V42.4343C52.2214 41.4114 51.889 40.4162 51.2745 39.5977C50.66 38.7791 49.7964 38.1813 48.8132 37.8937C48.7706 37.8816 48.7332 37.8561 48.7064 37.821C48.6796 37.7859 48.6649 37.7431 48.6645 37.6989C48.6645 37.385 48.5396 37.0839 48.3172 36.8619C48.0948 36.6399 47.7932 36.5152 47.4788 36.5152C47.1643 36.5152 46.8627 36.6399 46.6403 36.8619C46.4179 37.0839 46.293 37.385 46.293 37.6989C46.2926 37.743 46.2779 37.7858 46.2511 37.8209C46.2243 37.856 46.1869 37.8815 46.1444 37.8937C45.1611 38.1813 44.2975 38.7791 43.683 39.5977C43.0685 40.4162 42.7361 41.4114 42.7355 42.4343V45.96C42.7355 46.2569 42.6586 46.5488 42.5122 46.8072C42.3658 47.0656 42.1549 47.2819 41.9 47.4349L41.247 47.8261C41.1343 47.8934 41.0466 47.9955 40.9973 48.117C40.948 48.2385 40.9398 48.3728 40.9739 48.4994C41.008 48.626 41.0826 48.738 41.1863 48.8184C41.29 48.8988 41.4172 48.9432 41.5485 48.9449H53.4072C53.5111 48.9424 53.6127 48.9134 53.7022 48.8605C53.7917 48.8076 53.866 48.7327 53.9181 48.6428C53.9703 48.553 53.9985 48.4513 53.9999 48.3476C54.0014 48.2438 53.9762 48.1413 53.9267 48.0501L53.9275 48.0507Z" fill="#FFB300"/>
<path d="M46.12 51.4087C46.4742 51.6682 46.8816 51.839 47.3104 51.9078C47.7391 51.9767 48.1774 51.9416 48.5908 51.8053C49.0042 51.6691 49.3814 51.4354 49.6929 51.1226C50.0043 50.8098 50.2415 50.4265 50.3857 50.0028H45.0964C45.2895 50.5695 45.647 51.0605 46.12 51.4087Z" fill="#FFB300"/>
</svg>
