<svg width="346" height="344" viewBox="0 0 346 344" fill="none" xmlns="http://www.w3.org/2000/svg">
<rect width="346" height="344" rx="16" fill="white"/>
<mask id="path-2-inside-1_1138_10408" fill="white">
<path d="M25 25H321V63H25V25Z"/>
</mask>
<path d="M321 62H25V64H321V62Z" fill="#E8EAEF" mask="url(#path-2-inside-1_1138_10408)"/>
<rect x="25" y="29" width="83" height="30" rx="15" fill="white"/>
<path d="M31.48 49.16C30.3067 49.16 29.2987 48.9253 28.456 48.456C27.624 47.976 26.984 47.304 26.536 46.44C26.088 45.5653 25.864 44.536 25.864 43.352C25.864 42.4667 25.992 41.672 26.248 40.968C26.504 40.2533 26.872 39.6453 27.352 39.144C27.832 38.632 28.4187 38.2427 29.112 37.976C29.816 37.6987 30.6053 37.56 31.48 37.56C32.0667 37.56 32.6427 37.6347 33.208 37.784C33.7733 37.9333 34.2693 38.1467 34.696 38.424C34.92 38.5627 35.0693 38.7333 35.144 38.936C35.2187 39.128 35.2347 39.32 35.192 39.512C35.1493 39.6933 35.0587 39.848 34.92 39.976C34.792 40.104 34.6267 40.1787 34.424 40.2C34.232 40.2107 34.0187 40.1413 33.784 39.992C33.4533 39.7787 33.096 39.624 32.712 39.528C32.328 39.432 31.9387 39.384 31.544 39.384C30.7867 39.384 30.1467 39.5387 29.624 39.848C29.1013 40.1573 28.7067 40.6053 28.44 41.192C28.1733 41.7787 28.04 42.4987 28.04 43.352C28.04 44.1947 28.1733 44.9147 28.44 45.512C28.7067 46.1093 29.1013 46.5627 29.624 46.872C30.1467 47.1813 30.7867 47.336 31.544 47.336C31.9493 47.336 32.3493 47.288 32.744 47.192C33.1387 47.0853 33.512 46.9253 33.864 46.712C34.0987 46.5733 34.3067 46.5147 34.488 46.536C34.68 46.5467 34.84 46.6107 34.968 46.728C35.096 46.8453 35.1813 46.9947 35.224 47.176C35.2667 47.3467 35.256 47.528 35.192 47.72C35.128 47.9013 35 48.0613 34.808 48.2C34.3813 48.5093 33.8693 48.7493 33.272 48.92C32.6853 49.08 32.088 49.16 31.48 49.16ZM39.2098 49.16C38.6444 49.16 38.1378 49.0533 37.6898 48.84C37.2524 48.616 36.9058 48.3173 36.6497 47.944C36.4044 47.5707 36.2818 47.1493 36.2818 46.68C36.2818 46.104 36.4311 45.6507 36.7298 45.32C37.0284 44.9787 37.5138 44.7333 38.1858 44.584C38.8578 44.4347 39.7591 44.36 40.8898 44.36H41.6898V45.512H40.9058C40.2444 45.512 39.7164 45.544 39.3218 45.608C38.9271 45.672 38.6444 45.784 38.4738 45.944C38.3138 46.0933 38.2338 46.3067 38.2338 46.584C38.2338 46.936 38.3564 47.224 38.6018 47.448C38.8471 47.672 39.1884 47.784 39.6258 47.784C39.9778 47.784 40.2871 47.704 40.5538 47.544C40.8311 47.3733 41.0498 47.144 41.2098 46.856C41.3698 46.568 41.4498 46.2373 41.4498 45.864V44.024C41.4498 43.4907 41.3324 43.1067 41.0978 42.872C40.8631 42.6373 40.4684 42.52 39.9138 42.52C39.6044 42.52 39.2684 42.5573 38.9058 42.632C38.5538 42.7067 38.1804 42.8347 37.7858 43.016C37.5831 43.112 37.4018 43.1387 37.2418 43.096C37.0924 43.0533 36.9751 42.968 36.8898 42.84C36.8044 42.7013 36.7618 42.552 36.7618 42.392C36.7618 42.232 36.8044 42.0773 36.8898 41.928C36.9751 41.768 37.1191 41.6507 37.3218 41.576C37.8124 41.3733 38.2818 41.2293 38.7298 41.144C39.1884 41.0587 39.6044 41.016 39.9778 41.016C40.7458 41.016 41.3751 41.1333 41.8658 41.368C42.3671 41.6027 42.7404 41.96 42.9858 42.44C43.2311 42.9093 43.3538 43.5173 43.3538 44.264V48.104C43.3538 48.4347 43.2738 48.6907 43.1138 48.872C42.9538 49.0427 42.7244 49.128 42.4258 49.128C42.1271 49.128 41.8924 49.0427 41.7218 48.872C41.5618 48.6907 41.4818 48.4347 41.4818 48.104V47.336H41.6098C41.5351 47.7093 41.3858 48.0347 41.1618 48.312C40.9484 48.5787 40.6764 48.7867 40.3458 48.936C40.0151 49.0853 39.6364 49.16 39.2098 49.16ZM46.4078 49.128C46.0771 49.128 45.8211 49.0427 45.6398 48.872C45.4691 48.6907 45.3838 48.4347 45.3838 48.104V42.056C45.3838 41.7253 45.4691 41.4747 45.6398 41.304C45.8104 41.1333 46.0504 41.048 46.3598 41.048C46.6691 41.048 46.9091 41.1333 47.0798 41.304C47.2504 41.4747 47.3358 41.7253 47.3358 42.056V43.064H47.1758C47.3251 42.424 47.6184 41.9387 48.0558 41.608C48.4931 41.2773 49.0744 41.08 49.7998 41.016C50.0238 40.9947 50.1998 41.0533 50.3278 41.192C50.4664 41.32 50.5464 41.5227 50.5678 41.8C50.5891 42.0667 50.5251 42.2853 50.3758 42.456C50.2371 42.616 50.0238 42.712 49.7358 42.744L49.3838 42.776C48.7331 42.84 48.2424 43.0427 47.9118 43.384C47.5811 43.7147 47.4158 44.184 47.4158 44.792V48.104C47.4158 48.4347 47.3304 48.6907 47.1598 48.872C46.9891 49.0427 46.7384 49.128 46.4078 49.128ZM54.5324 49.16C53.8497 49.16 53.247 48.9947 52.7244 48.664C52.2124 48.3333 51.8124 47.864 51.5244 47.256C51.2364 46.6373 51.0924 45.912 51.0924 45.08C51.0924 44.2373 51.2364 43.5173 51.5244 42.92C51.8124 42.312 52.2124 41.8427 52.7244 41.512C53.247 41.1813 53.8497 41.016 54.5324 41.016C55.183 41.016 55.7484 41.176 56.2284 41.496C56.719 41.816 57.0497 42.2373 57.2204 42.76H57.0444V38.6C57.0444 38.2693 57.1297 38.0187 57.3004 37.848C57.471 37.6773 57.7164 37.592 58.0364 37.592C58.3564 37.592 58.6017 37.6773 58.7724 37.848C58.9537 38.0187 59.0444 38.2693 59.0444 38.6V48.104C59.0444 48.4347 58.959 48.6907 58.7884 48.872C58.6177 49.0427 58.3724 49.128 58.0524 49.128C57.7324 49.128 57.487 49.0427 57.3164 48.872C57.1457 48.6907 57.0604 48.4347 57.0604 48.104V46.856L57.2364 47.336C57.0764 47.8907 56.751 48.3333 56.2604 48.664C55.7697 48.9947 55.1937 49.16 54.5324 49.16ZM55.0924 47.64C55.487 47.64 55.8337 47.544 56.1324 47.352C56.431 47.16 56.6604 46.8773 56.8204 46.504C56.991 46.12 57.0764 45.6453 57.0764 45.08C57.0764 44.2267 56.895 43.592 56.5324 43.176C56.1697 42.7493 55.6897 42.536 55.0924 42.536C54.6977 42.536 54.351 42.632 54.0524 42.824C53.7537 43.0053 53.519 43.288 53.3484 43.672C53.1884 44.0453 53.1084 44.5147 53.1084 45.08C53.1084 45.9227 53.2897 46.5627 53.6524 47C54.015 47.4267 54.495 47.64 55.0924 47.64ZM69.3979 49.128C69.0672 49.128 68.8112 49.0373 68.6299 48.856C68.4592 48.664 68.3739 48.4027 68.3739 48.072V39.432H65.2539C64.9765 39.432 64.7579 39.3573 64.5979 39.208C64.4485 39.048 64.3739 38.8347 64.3739 38.568C64.3739 38.2907 64.4485 38.0827 64.5979 37.944C64.7579 37.7947 64.9765 37.72 65.2539 37.72H73.5419C73.8192 37.72 74.0325 37.7947 74.1819 37.944C74.3419 38.0827 74.4219 38.2907 74.4219 38.568C74.4219 38.8347 74.3419 39.048 74.1819 39.208C74.0325 39.3573 73.8192 39.432 73.5419 39.432H70.4219V48.072C70.4219 48.4027 70.3365 48.664 70.1659 48.856C69.9952 49.0373 69.7392 49.128 69.3979 49.128ZM77.2664 49.112C76.9464 49.112 76.701 49.016 76.5304 48.824C76.3597 48.632 76.2744 48.3653 76.2744 48.024V42.152C76.2744 41.8 76.3597 41.5333 76.5304 41.352C76.701 41.16 76.9464 41.064 77.2664 41.064C77.5864 41.064 77.8317 41.16 78.0024 41.352C78.1837 41.5333 78.2744 41.8 78.2744 42.152V48.024C78.2744 48.3653 78.189 48.632 78.0184 48.824C77.8477 49.016 77.597 49.112 77.2664 49.112ZM77.2664 39.576C76.893 39.576 76.5997 39.4853 76.3864 39.304C76.1837 39.112 76.0824 38.8507 76.0824 38.52C76.0824 38.1787 76.1837 37.9173 76.3864 37.736C76.5997 37.5547 76.893 37.464 77.2664 37.464C77.6504 37.464 77.9437 37.5547 78.1464 37.736C78.349 37.9173 78.4504 38.1787 78.4504 38.52C78.4504 38.8507 78.349 39.112 78.1464 39.304C77.9437 39.4853 77.6504 39.576 77.2664 39.576ZM83.9365 49.16C83.2432 49.16 82.6618 49.0427 82.1925 48.808C81.7338 48.5733 81.3925 48.232 81.1685 47.784C80.9445 47.3253 80.8325 46.76 80.8325 46.088V42.68H80.0005C79.7445 42.68 79.5472 42.616 79.4085 42.488C79.2698 42.3493 79.2005 42.1627 79.2005 41.928C79.2005 41.6827 79.2698 41.496 79.4085 41.368C79.5472 41.24 79.7445 41.176 80.0005 41.176H80.8325V39.72C80.8325 39.3893 80.9178 39.1387 81.0885 38.968C81.2698 38.7973 81.5205 38.712 81.8405 38.712C82.1605 38.712 82.4058 38.7973 82.5765 38.968C82.7472 39.1387 82.8325 39.3893 82.8325 39.72V41.176H84.5285C84.7845 41.176 84.9818 41.24 85.1205 41.368C85.2592 41.496 85.3285 41.6827 85.3285 41.928C85.3285 42.1627 85.2592 42.3493 85.1205 42.488C84.9818 42.616 84.7845 42.68 84.5285 42.68H82.8325V45.976C82.8325 46.488 82.9445 46.872 83.1685 47.128C83.3925 47.384 83.7552 47.512 84.2565 47.512C84.4378 47.512 84.5978 47.496 84.7365 47.464C84.8752 47.432 84.9978 47.4107 85.1045 47.4C85.2325 47.3893 85.3392 47.432 85.4245 47.528C85.5098 47.6133 85.5525 47.7947 85.5525 48.072C85.5525 48.2853 85.5152 48.4773 85.4405 48.648C85.3765 48.808 85.2538 48.92 85.0725 48.984C84.9338 49.0267 84.7525 49.064 84.5285 49.096C84.3045 49.1387 84.1072 49.16 83.9365 49.16ZM89.3683 49.16C88.4829 49.16 87.8163 48.9093 87.3683 48.408C86.9203 47.896 86.6963 47.1493 86.6963 46.168V38.6C86.6963 38.2693 86.7816 38.0187 86.9523 37.848C87.1229 37.6773 87.3683 37.592 87.6883 37.592C88.0083 37.592 88.2536 37.6773 88.4243 37.848C88.6056 38.0187 88.6963 38.2693 88.6963 38.6V46.072C88.6963 46.5627 88.7976 46.9253 89.0003 47.16C89.2136 47.3947 89.5123 47.512 89.8963 47.512C89.9816 47.512 90.0616 47.512 90.1363 47.512C90.2109 47.5013 90.2856 47.4907 90.3602 47.48C90.5096 47.4587 90.6109 47.5013 90.6643 47.608C90.7176 47.704 90.7443 47.9067 90.7443 48.216C90.7443 48.4827 90.6909 48.6907 90.5843 48.84C90.4776 48.9893 90.3016 49.08 90.0563 49.112C89.9496 49.1227 89.8376 49.1333 89.7203 49.144C89.6029 49.1547 89.4856 49.16 89.3683 49.16ZM95.5835 49.16C94.6982 49.16 93.9355 48.9947 93.2955 48.664C92.6555 48.3333 92.1595 47.864 91.8075 47.256C91.4662 46.648 91.2955 45.928 91.2955 45.096C91.2955 44.2853 91.4608 43.576 91.7915 42.968C92.1328 42.36 92.5968 41.8853 93.1835 41.544C93.7808 41.192 94.4582 41.016 95.2155 41.016C95.7702 41.016 96.2662 41.1067 96.7035 41.288C97.1515 41.4693 97.5302 41.7307 97.8395 42.072C98.1595 42.4133 98.3995 42.8293 98.5595 43.32C98.7302 43.8 98.8155 44.344 98.8155 44.952C98.8155 45.144 98.7462 45.2933 98.6075 45.4C98.4795 45.496 98.2928 45.544 98.0475 45.544H92.9115V44.392H97.4075L97.1515 44.632C97.1515 44.1413 97.0768 43.7307 96.9275 43.4C96.7888 43.0693 96.5808 42.8187 96.3035 42.648C96.0368 42.4667 95.7008 42.376 95.2955 42.376C94.8475 42.376 94.4635 42.4827 94.1435 42.696C93.8342 42.8987 93.5942 43.192 93.4235 43.576C93.2635 43.9493 93.1835 44.3973 93.1835 44.92V45.032C93.1835 45.9067 93.3862 46.5627 93.7915 47C94.2075 47.4267 94.8155 47.64 95.6155 47.64C95.8928 47.64 96.2022 47.608 96.5435 47.544C96.8955 47.4693 97.2262 47.3467 97.5355 47.176C97.7595 47.048 97.9568 46.9947 98.1275 47.016C98.2982 47.0267 98.4315 47.0853 98.5275 47.192C98.6342 47.2987 98.6982 47.432 98.7195 47.592C98.7408 47.7413 98.7088 47.896 98.6235 48.056C98.5488 48.216 98.4155 48.3547 98.2235 48.472C97.8502 48.7067 97.4182 48.8827 96.9275 49C96.4475 49.1067 95.9995 49.16 95.5835 49.16Z" fill="#64728C"/>
<rect x="124" y="30.5" width="61" height="27" rx="13.5" fill="white"/>
<rect x="25.5" y="99.5" width="300" height="43" rx="9.5" fill="white" stroke="#E8EAEF"/>
<path d="M28.732 91.096C28.484 91.096 28.292 91.028 28.156 90.892C28.028 90.748 27.964 90.552 27.964 90.304V83.824H25.624C25.416 83.824 25.252 83.768 25.132 83.656C25.02 83.536 24.964 83.376 24.964 83.176C24.964 82.968 25.02 82.812 25.132 82.708C25.252 82.596 25.416 82.54 25.624 82.54H31.84C32.048 82.54 32.208 82.596 32.32 82.708C32.44 82.812 32.5 82.968 32.5 83.176C32.5 83.376 32.44 83.536 32.32 83.656C32.208 83.768 32.048 83.824 31.84 83.824H29.5V90.304C29.5 90.552 29.436 90.748 29.308 90.892C29.18 91.028 28.988 91.096 28.732 91.096ZM34.6334 91.084C34.3934 91.084 34.2094 91.012 34.0814 90.868C33.9534 90.724 33.8894 90.524 33.8894 90.268V85.864C33.8894 85.6 33.9534 85.4 34.0814 85.264C34.2094 85.12 34.3934 85.048 34.6334 85.048C34.8734 85.048 35.0574 85.12 35.1854 85.264C35.3214 85.4 35.3894 85.6 35.3894 85.864V90.268C35.3894 90.524 35.3254 90.724 35.1974 90.868C35.0694 91.012 34.8814 91.084 34.6334 91.084ZM34.6334 83.932C34.3534 83.932 34.1334 83.864 33.9734 83.728C33.8214 83.584 33.7454 83.388 33.7454 83.14C33.7454 82.884 33.8214 82.688 33.9734 82.552C34.1334 82.416 34.3534 82.348 34.6334 82.348C34.9214 82.348 35.1414 82.416 35.2934 82.552C35.4454 82.688 35.5214 82.884 35.5214 83.14C35.5214 83.388 35.4454 83.584 35.2934 83.728C35.1414 83.864 34.9214 83.932 34.6334 83.932ZM37.716 91.096C37.476 91.096 37.292 91.032 37.164 90.904C37.036 90.768 36.972 90.576 36.972 90.328V85.792C36.972 85.544 37.036 85.356 37.164 85.228C37.292 85.1 37.472 85.036 37.704 85.036C37.936 85.036 38.116 85.1 38.244 85.228C38.372 85.356 38.436 85.544 38.436 85.792V86.668L38.304 86.308C38.464 85.908 38.712 85.592 39.048 85.36C39.384 85.128 39.784 85.012 40.248 85.012C40.72 85.012 41.108 85.124 41.412 85.348C41.716 85.572 41.928 85.916 42.048 86.38H41.88C42.04 85.956 42.304 85.624 42.672 85.384C43.04 85.136 43.464 85.012 43.944 85.012C44.392 85.012 44.76 85.1 45.048 85.276C45.344 85.452 45.564 85.72 45.708 86.08C45.852 86.432 45.924 86.88 45.924 87.424V90.328C45.924 90.576 45.856 90.768 45.72 90.904C45.592 91.032 45.408 91.096 45.168 91.096C44.928 91.096 44.744 91.032 44.616 90.904C44.488 90.768 44.424 90.576 44.424 90.328V87.484C44.424 87.036 44.348 86.708 44.196 86.5C44.052 86.292 43.804 86.188 43.452 86.188C43.06 86.188 42.752 86.328 42.528 86.608C42.304 86.88 42.192 87.26 42.192 87.748V90.328C42.192 90.576 42.128 90.768 42 90.904C41.872 91.032 41.688 91.096 41.448 91.096C41.208 91.096 41.02 91.032 40.884 90.904C40.756 90.768 40.692 90.576 40.692 90.328V87.484C40.692 87.036 40.616 86.708 40.464 86.5C40.32 86.292 40.076 86.188 39.732 86.188C39.34 86.188 39.032 86.328 38.808 86.608C38.584 86.88 38.472 87.26 38.472 87.748V90.328C38.472 90.84 38.22 91.096 37.716 91.096ZM50.3634 91.12C49.6994 91.12 49.1274 90.996 48.6474 90.748C48.1674 90.5 47.7954 90.148 47.5314 89.692C47.2754 89.236 47.1474 88.696 47.1474 88.072C47.1474 87.464 47.2714 86.932 47.5194 86.476C47.7754 86.02 48.1234 85.664 48.5634 85.408C49.0114 85.144 49.5194 85.012 50.0874 85.012C50.5034 85.012 50.8754 85.08 51.2034 85.216C51.5394 85.352 51.8234 85.548 52.0554 85.804C52.2954 86.06 52.4754 86.372 52.5954 86.74C52.7234 87.1 52.7874 87.508 52.7874 87.964C52.7874 88.108 52.7354 88.22 52.6314 88.3C52.5354 88.372 52.3954 88.408 52.2114 88.408H48.3594V87.544H51.7314L51.5394 87.724C51.5394 87.356 51.4834 87.048 51.3714 86.8C51.2674 86.552 51.1114 86.364 50.9034 86.236C50.7034 86.1 50.4514 86.032 50.1474 86.032C49.8114 86.032 49.5234 86.112 49.2834 86.272C49.0514 86.424 48.8714 86.644 48.7434 86.932C48.6234 87.212 48.5634 87.548 48.5634 87.94V88.024C48.5634 88.68 48.7154 89.172 49.0194 89.5C49.3314 89.82 49.7874 89.98 50.3874 89.98C50.5954 89.98 50.8274 89.956 51.0834 89.908C51.3474 89.852 51.5954 89.76 51.8274 89.632C51.9954 89.536 52.1434 89.496 52.2714 89.512C52.3994 89.52 52.4994 89.564 52.5714 89.644C52.6514 89.724 52.6994 89.824 52.7154 89.944C52.7314 90.056 52.7074 90.172 52.6434 90.292C52.5874 90.412 52.4874 90.516 52.3434 90.604C52.0634 90.78 51.7394 90.912 51.3714 91C51.0114 91.08 50.6754 91.12 50.3634 91.12Z" fill="#64728C"/>
<path d="M40.536 125.084C40.376 125.084 40.252 125.04 40.164 124.952C40.084 124.856 40.044 124.728 40.044 124.568V116.972C40.044 116.804 40.084 116.676 40.164 116.588C40.252 116.5 40.376 116.456 40.536 116.456C40.696 116.456 40.816 116.5 40.896 116.588C40.984 116.676 41.028 116.804 41.028 116.972V120.284H46.104V116.972C46.104 116.804 46.144 116.676 46.224 116.588C46.312 116.5 46.436 116.456 46.596 116.456C46.756 116.456 46.876 116.5 46.956 116.588C47.044 116.676 47.088 116.804 47.088 116.972V124.568C47.088 124.728 47.044 124.856 46.956 124.952C46.876 125.04 46.756 125.084 46.596 125.084C46.436 125.084 46.312 125.04 46.224 124.952C46.144 124.856 46.104 124.728 46.104 124.568V121.136H41.028V124.568C41.028 124.728 40.988 124.856 40.908 124.952C40.828 125.04 40.704 125.084 40.536 125.084ZM49.6649 125.084C49.5049 125.084 49.3809 125.04 49.2929 124.952C49.2129 124.856 49.1729 124.728 49.1729 124.568V116.972C49.1729 116.804 49.2129 116.676 49.2929 116.588C49.3809 116.5 49.5049 116.456 49.6649 116.456C49.8249 116.456 49.9449 116.5 50.0249 116.588C50.1129 116.676 50.1569 116.804 50.1569 116.972V120.284H55.2329V116.972C55.2329 116.804 55.2729 116.676 55.3529 116.588C55.4409 116.5 55.5649 116.456 55.7249 116.456C55.8849 116.456 56.0049 116.5 56.0849 116.588C56.1729 116.676 56.2169 116.804 56.2169 116.972V124.568C56.2169 124.728 56.1729 124.856 56.0849 124.952C56.0049 125.04 55.8849 125.084 55.7249 125.084C55.5649 125.084 55.4409 125.04 55.3529 124.952C55.2729 124.856 55.2329 124.728 55.2329 124.568V121.136H50.1569V124.568C50.1569 124.728 50.1169 124.856 50.0369 124.952C49.9569 125.04 49.8329 125.084 49.6649 125.084ZM58.6378 125.048C58.4378 125.048 58.2778 124.988 58.1578 124.868C58.0378 124.74 57.9778 124.58 57.9778 124.388C57.9778 124.196 58.0378 124.04 58.1578 123.92C58.2778 123.792 58.4378 123.728 58.6378 123.728C58.8378 123.728 58.9938 123.792 59.1058 123.92C59.2258 124.04 59.2858 124.196 59.2858 124.388C59.2858 124.58 59.2258 124.74 59.1058 124.868C58.9938 124.988 58.8378 125.048 58.6378 125.048ZM58.6378 120.44C58.4378 120.44 58.2778 120.376 58.1578 120.248C58.0378 120.12 57.9778 119.964 57.9778 119.78C57.9778 119.58 58.0378 119.42 58.1578 119.3C58.2778 119.18 58.4378 119.12 58.6378 119.12C58.8378 119.12 58.9938 119.18 59.1058 119.3C59.2258 119.42 59.2858 119.58 59.2858 119.78C59.2858 119.964 59.2258 120.12 59.1058 120.248C58.9938 120.376 58.8378 120.44 58.6378 120.44ZM61.5123 125.084C61.3683 125.084 61.2563 125.044 61.1763 124.964C61.0963 124.876 61.0563 124.756 61.0563 124.604V116.936C61.0563 116.776 61.0963 116.656 61.1763 116.576C61.2563 116.496 61.3683 116.456 61.5123 116.456C61.6403 116.456 61.7403 116.484 61.8123 116.54C61.8923 116.588 61.9643 116.672 62.0283 116.792L65.3163 122.984H64.9563L68.2323 116.792C68.2963 116.672 68.3643 116.588 68.4363 116.54C68.5083 116.484 68.6123 116.456 68.7483 116.456C68.8843 116.456 68.9923 116.496 69.0723 116.576C69.1523 116.656 69.1923 116.776 69.1923 116.936V124.604C69.1923 124.756 69.1523 124.876 69.0723 124.964C69.0003 125.044 68.8883 125.084 68.7363 125.084C68.5923 125.084 68.4803 125.044 68.4003 124.964C68.3203 124.876 68.2803 124.756 68.2803 124.604V117.86H68.5683L65.5683 123.488C65.5123 123.592 65.4523 123.668 65.3883 123.716C65.3323 123.756 65.2483 123.776 65.1363 123.776C65.0243 123.776 64.9363 123.752 64.8723 123.704C64.8083 123.656 64.7523 123.584 64.7043 123.488L61.6683 117.848H61.9563V124.604C61.9563 124.756 61.9163 124.876 61.8363 124.964C61.7643 125.044 61.6563 125.084 61.5123 125.084ZM71.7779 125.084C71.6339 125.084 71.5219 125.044 71.4419 124.964C71.3619 124.876 71.3219 124.756 71.3219 124.604V116.936C71.3219 116.776 71.3619 116.656 71.4419 116.576C71.5219 116.496 71.6339 116.456 71.7779 116.456C71.9059 116.456 72.0059 116.484 72.0779 116.54C72.1579 116.588 72.2299 116.672 72.2939 116.792L75.5819 122.984H75.2219L78.4979 116.792C78.5619 116.672 78.6299 116.588 78.7019 116.54C78.7739 116.484 78.8779 116.456 79.0139 116.456C79.1499 116.456 79.2579 116.496 79.3379 116.576C79.4179 116.656 79.4579 116.776 79.4579 116.936V124.604C79.4579 124.756 79.4179 124.876 79.3379 124.964C79.2659 125.044 79.1539 125.084 79.0019 125.084C78.8579 125.084 78.7459 125.044 78.6659 124.964C78.5859 124.876 78.5459 124.756 78.5459 124.604V117.86H78.8339L75.8339 123.488C75.7779 123.592 75.7179 123.668 75.6539 123.716C75.5979 123.756 75.5139 123.776 75.4019 123.776C75.2899 123.776 75.2019 123.752 75.1379 123.704C75.0739 123.656 75.0179 123.584 74.9699 123.488L71.9339 117.848H72.2219V124.604C72.2219 124.756 72.1819 124.876 72.1019 124.964C72.0299 125.044 71.9219 125.084 71.7779 125.084Z" fill="#929BAA"/>
<rect x="25.5" y="179.5" width="299" height="43" rx="9.5" fill="white" stroke="#E8EAEF"/>
<path d="M29.716 171.12C28.9 171.12 28.184 170.94 27.568 170.58C26.96 170.22 26.488 169.716 26.152 169.068C25.816 168.412 25.648 167.644 25.648 166.764C25.648 166.1 25.744 165.504 25.936 164.976C26.128 164.44 26.4 163.984 26.752 163.608C27.112 163.224 27.54 162.932 28.036 162.732C28.54 162.524 29.1 162.42 29.716 162.42C30.54 162.42 31.256 162.6 31.864 162.96C32.472 163.312 32.944 163.812 33.28 164.46C33.616 165.108 33.784 165.872 33.784 166.752C33.784 167.416 33.688 168.016 33.496 168.552C33.304 169.088 33.028 169.548 32.668 169.932C32.316 170.316 31.888 170.612 31.384 170.82C30.888 171.02 30.332 171.12 29.716 171.12ZM29.716 169.8C30.236 169.8 30.676 169.68 31.036 169.44C31.404 169.2 31.684 168.852 31.876 168.396C32.076 167.94 32.176 167.396 32.176 166.764C32.176 165.804 31.96 165.06 31.528 164.532C31.104 164.004 30.5 163.74 29.716 163.74C29.204 163.74 28.764 163.86 28.396 164.1C28.028 164.332 27.744 164.676 27.544 165.132C27.352 165.58 27.256 166.124 27.256 166.764C27.256 167.716 27.472 168.46 27.904 168.996C28.336 169.532 28.94 169.8 29.716 169.8ZM36.3539 171.096C36.1139 171.096 35.9259 171.032 35.7899 170.904C35.6619 170.768 35.5979 170.576 35.5979 170.328V166.26H35.0459C34.8539 166.26 34.7059 166.212 34.6019 166.116C34.4979 166.012 34.4459 165.872 34.4459 165.696C34.4459 165.512 34.4979 165.372 34.6019 165.276C34.7059 165.18 34.8539 165.132 35.0459 165.132H36.0299L35.5979 165.528V165.12C35.5979 164.296 35.8059 163.68 36.2219 163.272C36.6379 162.856 37.2379 162.612 38.0219 162.54L38.4299 162.504C38.5899 162.488 38.7179 162.516 38.8139 162.588C38.9099 162.652 38.9739 162.74 39.0059 162.852C39.0379 162.956 39.0419 163.064 39.0179 163.176C38.9939 163.288 38.9419 163.388 38.8619 163.476C38.7899 163.556 38.6939 163.6 38.5739 163.608L38.4059 163.62C37.9499 163.652 37.6179 163.768 37.4099 163.968C37.2019 164.168 37.0979 164.472 37.0979 164.88V165.324L36.9059 165.132H38.1179C38.3099 165.132 38.4579 165.18 38.5619 165.276C38.6659 165.372 38.7179 165.512 38.7179 165.696C38.7179 165.872 38.6659 166.012 38.5619 166.116C38.4579 166.212 38.3099 166.26 38.1179 166.26H37.0979V170.328C37.0979 170.84 36.8499 171.096 36.3539 171.096ZM40.4554 171.096C40.2154 171.096 40.0274 171.032 39.8914 170.904C39.7634 170.768 39.6994 170.576 39.6994 170.328V166.26H39.1474C38.9554 166.26 38.8074 166.212 38.7034 166.116C38.5994 166.012 38.5474 165.872 38.5474 165.696C38.5474 165.512 38.5994 165.372 38.7034 165.276C38.8074 165.18 38.9554 165.132 39.1474 165.132H40.1314L39.6994 165.528V165.12C39.6994 164.296 39.9074 163.68 40.3234 163.272C40.7394 162.856 41.3394 162.612 42.1234 162.54L42.5314 162.504C42.6914 162.488 42.8194 162.516 42.9154 162.588C43.0114 162.652 43.0754 162.74 43.1074 162.852C43.1394 162.956 43.1434 163.064 43.1194 163.176C43.0954 163.288 43.0434 163.388 42.9634 163.476C42.8914 163.556 42.7954 163.6 42.6754 163.608L42.5074 163.62C42.0514 163.652 41.7194 163.768 41.5114 163.968C41.3034 164.168 41.1994 164.472 41.1994 164.88V165.324L41.0074 165.132H42.2194C42.4114 165.132 42.5594 165.18 42.6634 165.276C42.7674 165.372 42.8194 165.512 42.8194 165.696C42.8194 165.872 42.7674 166.012 42.6634 166.116C42.5594 166.212 42.4114 166.26 42.2194 166.26H41.1994V170.328C41.1994 170.84 40.9514 171.096 40.4554 171.096ZM46.4142 171.12C45.7502 171.12 45.1782 170.996 44.6982 170.748C44.2182 170.5 43.8462 170.148 43.5822 169.692C43.3262 169.236 43.1982 168.696 43.1982 168.072C43.1982 167.464 43.3222 166.932 43.5702 166.476C43.8262 166.02 44.1742 165.664 44.6142 165.408C45.0622 165.144 45.5702 165.012 46.1382 165.012C46.5542 165.012 46.9262 165.08 47.2542 165.216C47.5902 165.352 47.8742 165.548 48.1062 165.804C48.3462 166.06 48.5262 166.372 48.6462 166.74C48.7742 167.1 48.8382 167.508 48.8382 167.964C48.8382 168.108 48.7862 168.22 48.6822 168.3C48.5862 168.372 48.4462 168.408 48.2622 168.408H44.4102V167.544H47.7822L47.5902 167.724C47.5902 167.356 47.5342 167.048 47.4222 166.8C47.3182 166.552 47.1622 166.364 46.9542 166.236C46.7542 166.1 46.5022 166.032 46.1982 166.032C45.8622 166.032 45.5742 166.112 45.3342 166.272C45.1022 166.424 44.9222 166.644 44.7942 166.932C44.6742 167.212 44.6142 167.548 44.6142 167.94V168.024C44.6142 168.68 44.7662 169.172 45.0702 169.5C45.3822 169.82 45.8382 169.98 46.4382 169.98C46.6462 169.98 46.8782 169.956 47.1342 169.908C47.3982 169.852 47.6462 169.76 47.8782 169.632C48.0462 169.536 48.1942 169.496 48.3222 169.512C48.4502 169.52 48.5502 169.564 48.6222 169.644C48.7022 169.724 48.7502 169.824 48.7662 169.944C48.7822 170.056 48.7582 170.172 48.6942 170.292C48.6382 170.412 48.5382 170.516 48.3942 170.604C48.1142 170.78 47.7902 170.912 47.4222 171C47.0622 171.08 46.7262 171.12 46.4142 171.12ZM50.7941 171.096C50.5461 171.096 50.3541 171.032 50.2181 170.904C50.0901 170.768 50.0261 170.576 50.0261 170.328V165.792C50.0261 165.544 50.0901 165.356 50.2181 165.228C50.3461 165.1 50.5261 165.036 50.7581 165.036C50.9901 165.036 51.1701 165.1 51.2981 165.228C51.4261 165.356 51.4901 165.544 51.4901 165.792V166.548H51.3701C51.4821 166.068 51.7021 165.704 52.0301 165.456C52.3581 165.208 52.7941 165.06 53.3381 165.012C53.5061 164.996 53.6381 165.04 53.7341 165.144C53.8381 165.24 53.8981 165.392 53.9141 165.6C53.9301 165.8 53.8821 165.964 53.7701 166.092C53.6661 166.212 53.5061 166.284 53.2901 166.308L53.0261 166.332C52.5381 166.38 52.1701 166.532 51.9221 166.788C51.6741 167.036 51.5501 167.388 51.5501 167.844V170.328C51.5501 170.576 51.4861 170.768 51.3581 170.904C51.2301 171.032 51.0421 171.096 50.7941 171.096ZM58.9431 171C58.6791 171 58.4751 170.932 58.3311 170.796C58.1951 170.652 58.1271 170.448 58.1271 170.184V163.356C58.1271 163.092 58.1951 162.892 58.3311 162.756C58.4751 162.612 58.6791 162.54 58.9431 162.54H63.2271C63.4271 162.54 63.5791 162.592 63.6831 162.696C63.7951 162.8 63.8511 162.948 63.8511 163.14C63.8511 163.34 63.7951 163.496 63.6831 163.608C63.5791 163.712 63.4271 163.764 63.2271 163.764H59.6031V166.092H62.9631C63.1711 166.092 63.3271 166.144 63.4311 166.248C63.5351 166.352 63.5871 166.504 63.5871 166.704C63.5871 166.904 63.5351 167.056 63.4311 167.16C63.3271 167.264 63.1711 167.316 62.9631 167.316H59.6031V169.776H63.2271C63.4271 169.776 63.5791 169.828 63.6831 169.932C63.7951 170.036 63.8511 170.188 63.8511 170.388C63.8511 170.588 63.7951 170.74 63.6831 170.844C63.5791 170.948 63.4271 171 63.2271 171H58.9431ZM65.8873 171.096C65.6473 171.096 65.4633 171.032 65.3353 170.904C65.2073 170.768 65.1433 170.576 65.1433 170.328V165.792C65.1433 165.544 65.2073 165.356 65.3353 165.228C65.4633 165.1 65.6433 165.036 65.8753 165.036C66.1073 165.036 66.2873 165.1 66.4153 165.228C66.5433 165.356 66.6073 165.544 66.6073 165.792V166.608L66.4753 166.308C66.6513 165.884 66.9233 165.564 67.2913 165.348C67.6673 165.124 68.0913 165.012 68.5633 165.012C69.0353 165.012 69.4233 165.1 69.7273 165.276C70.0313 165.452 70.2593 165.72 70.4113 166.08C70.5633 166.432 70.6393 166.88 70.6393 167.424V170.328C70.6393 170.576 70.5753 170.768 70.4473 170.904C70.3193 171.032 70.1353 171.096 69.8953 171.096C69.6553 171.096 69.4673 171.032 69.3313 170.904C69.2033 170.768 69.1393 170.576 69.1393 170.328V167.496C69.1393 167.04 69.0513 166.708 68.8753 166.5C68.7073 166.292 68.4433 166.188 68.0833 166.188C67.6433 166.188 67.2913 166.328 67.0273 166.608C66.7713 166.88 66.6433 167.244 66.6433 167.7V170.328C66.6433 170.84 66.3913 171.096 65.8873 171.096ZM74.4188 171.12C73.9068 171.12 73.4548 170.996 73.0628 170.748C72.6788 170.5 72.3788 170.148 72.1628 169.692C71.9468 169.228 71.8388 168.684 71.8388 168.06C71.8388 167.428 71.9468 166.888 72.1628 166.44C72.3788 165.984 72.6788 165.632 73.0628 165.384C73.4548 165.136 73.9068 165.012 74.4188 165.012C74.9068 165.012 75.3308 165.132 75.6908 165.372C76.0588 165.612 76.3068 165.928 76.4348 166.32H76.3028V163.2C76.3028 162.952 76.3668 162.764 76.4948 162.636C76.6228 162.508 76.8068 162.444 77.0468 162.444C77.2868 162.444 77.4708 162.508 77.5988 162.636C77.7348 162.764 77.8028 162.952 77.8028 163.2V170.328C77.8028 170.576 77.7388 170.768 77.6108 170.904C77.4828 171.032 77.2988 171.096 77.0588 171.096C76.8188 171.096 76.6348 171.032 76.5068 170.904C76.3788 170.768 76.3148 170.576 76.3148 170.328V169.392L76.4468 169.752C76.3268 170.168 76.0828 170.5 75.7148 170.748C75.3468 170.996 74.9148 171.12 74.4188 171.12ZM74.8388 169.98C75.1348 169.98 75.3948 169.908 75.6188 169.764C75.8428 169.62 76.0148 169.408 76.1348 169.128C76.2628 168.84 76.3268 168.484 76.3268 168.06C76.3268 167.42 76.1908 166.944 75.9188 166.632C75.6468 166.312 75.2868 166.152 74.8388 166.152C74.5428 166.152 74.2828 166.224 74.0588 166.368C73.8348 166.504 73.6588 166.716 73.5308 167.004C73.4108 167.284 73.3508 167.636 73.3508 168.06C73.3508 168.692 73.4868 169.172 73.7588 169.5C74.0308 169.82 74.3908 169.98 74.8388 169.98ZM83.5759 171C83.3119 171 83.1079 170.932 82.9639 170.796C82.8279 170.652 82.7599 170.448 82.7599 170.184V163.356C82.7599 163.092 82.8279 162.892 82.9639 162.756C83.1079 162.612 83.3119 162.54 83.5759 162.54H85.9039C87.3199 162.54 88.4119 162.904 89.1799 163.632C89.9559 164.36 90.3439 165.404 90.3439 166.764C90.3439 167.444 90.2439 168.048 90.0439 168.576C89.8519 169.096 89.5639 169.536 89.1799 169.896C88.8039 170.256 88.3399 170.532 87.7879 170.724C87.2439 170.908 86.6159 171 85.9039 171H83.5759ZM84.2959 169.728H85.8079C86.3039 169.728 86.7319 169.668 87.0919 169.548C87.4599 169.42 87.7639 169.236 88.0039 168.996C88.2519 168.748 88.4359 168.44 88.5559 168.072C88.6759 167.696 88.7359 167.26 88.7359 166.764C88.7359 165.772 88.4919 165.032 88.0039 164.544C87.5159 164.056 86.7839 163.812 85.8079 163.812H84.2959V169.728ZM93.6886 171.12C93.2646 171.12 92.8846 171.04 92.5486 170.88C92.2206 170.712 91.9606 170.488 91.7686 170.208C91.5846 169.928 91.4926 169.612 91.4926 169.26C91.4926 168.828 91.6046 168.488 91.8286 168.24C92.0526 167.984 92.4166 167.8 92.9206 167.688C93.4246 167.576 94.1006 167.52 94.9486 167.52H95.5486V168.384H94.9606C94.4646 168.384 94.0686 168.408 93.7726 168.456C93.4766 168.504 93.2646 168.588 93.1366 168.708C93.0166 168.82 92.9566 168.98 92.9566 169.188C92.9566 169.452 93.0486 169.668 93.2326 169.836C93.4166 170.004 93.6726 170.088 94.0006 170.088C94.2646 170.088 94.4966 170.028 94.6966 169.908C94.9046 169.78 95.0686 169.608 95.1886 169.392C95.3086 169.176 95.3686 168.928 95.3686 168.648V167.268C95.3686 166.868 95.2806 166.58 95.1046 166.404C94.9286 166.228 94.6326 166.14 94.2166 166.14C93.9846 166.14 93.7326 166.168 93.4606 166.224C93.1966 166.28 92.9166 166.376 92.6206 166.512C92.4686 166.584 92.3326 166.604 92.2126 166.572C92.1006 166.54 92.0126 166.476 91.9486 166.38C91.8846 166.276 91.8526 166.164 91.8526 166.044C91.8526 165.924 91.8846 165.808 91.9486 165.696C92.0126 165.576 92.1206 165.488 92.2726 165.432C92.6406 165.28 92.9926 165.172 93.3286 165.108C93.6726 165.044 93.9846 165.012 94.2646 165.012C94.8406 165.012 95.3126 165.1 95.6806 165.276C96.0566 165.452 96.3366 165.72 96.5206 166.08C96.7046 166.432 96.7966 166.888 96.7966 167.448V170.328C96.7966 170.576 96.7366 170.768 96.6166 170.904C96.4966 171.032 96.3246 171.096 96.1006 171.096C95.8766 171.096 95.7006 171.032 95.5726 170.904C95.4526 170.768 95.3926 170.576 95.3926 170.328V169.752H95.4886C95.4326 170.032 95.3206 170.276 95.1526 170.484C94.9926 170.684 94.7886 170.84 94.5406 170.952C94.2926 171.064 94.0086 171.12 93.6886 171.12ZM101.007 171.12C100.487 171.12 100.051 171.032 99.6991 170.856C99.3551 170.68 99.0991 170.424 98.9311 170.088C98.7631 169.744 98.6791 169.32 98.6791 168.816V166.26H98.0551C97.8631 166.26 97.7151 166.212 97.6111 166.116C97.5071 166.012 97.4551 165.872 97.4551 165.696C97.4551 165.512 97.5071 165.372 97.6111 165.276C97.7151 165.18 97.8631 165.132 98.0551 165.132H98.6791V164.04C98.6791 163.792 98.7431 163.604 98.8711 163.476C99.0071 163.348 99.1951 163.284 99.4351 163.284C99.6751 163.284 99.8591 163.348 99.9871 163.476C100.115 163.604 100.179 163.792 100.179 164.04V165.132H101.451C101.643 165.132 101.791 165.18 101.895 165.276C101.999 165.372 102.051 165.512 102.051 165.696C102.051 165.872 101.999 166.012 101.895 166.116C101.791 166.212 101.643 166.26 101.451 166.26H100.179V168.732C100.179 169.116 100.263 169.404 100.431 169.596C100.599 169.788 100.871 169.884 101.247 169.884C101.383 169.884 101.503 169.872 101.607 169.848C101.711 169.824 101.803 169.808 101.883 169.8C101.979 169.792 102.059 169.824 102.123 169.896C102.187 169.96 102.219 170.096 102.219 170.304C102.219 170.464 102.191 170.608 102.135 170.736C102.087 170.856 101.995 170.94 101.859 170.988C101.755 171.02 101.619 171.048 101.451 171.072C101.283 171.104 101.135 171.12 101.007 171.12ZM105.758 171.12C105.094 171.12 104.522 170.996 104.042 170.748C103.562 170.5 103.19 170.148 102.926 169.692C102.67 169.236 102.542 168.696 102.542 168.072C102.542 167.464 102.666 166.932 102.914 166.476C103.17 166.02 103.518 165.664 103.958 165.408C104.406 165.144 104.914 165.012 105.482 165.012C105.898 165.012 106.27 165.08 106.598 165.216C106.934 165.352 107.218 165.548 107.45 165.804C107.69 166.06 107.87 166.372 107.99 166.74C108.118 167.1 108.182 167.508 108.182 167.964C108.182 168.108 108.13 168.22 108.026 168.3C107.93 168.372 107.79 168.408 107.606 168.408H103.754V167.544H107.126L106.934 167.724C106.934 167.356 106.878 167.048 106.766 166.8C106.662 166.552 106.506 166.364 106.298 166.236C106.098 166.1 105.846 166.032 105.542 166.032C105.206 166.032 104.918 166.112 104.678 166.272C104.446 166.424 104.266 166.644 104.138 166.932C104.018 167.212 103.958 167.548 103.958 167.94V168.024C103.958 168.68 104.11 169.172 104.414 169.5C104.726 169.82 105.182 169.98 105.782 169.98C105.99 169.98 106.222 169.956 106.478 169.908C106.742 169.852 106.99 169.76 107.222 169.632C107.39 169.536 107.538 169.496 107.666 169.512C107.794 169.52 107.894 169.564 107.966 169.644C108.046 169.724 108.094 169.824 108.11 169.944C108.126 170.056 108.102 170.172 108.038 170.292C107.982 170.412 107.882 170.516 107.738 170.604C107.458 170.78 107.134 170.912 106.766 171C106.406 171.08 106.07 171.12 105.758 171.12Z" fill="#64728C"/>
<path d="M41.208 207.244C41.088 207.244 40.992 207.212 40.92 207.148C40.848 207.084 40.804 206.996 40.788 206.884C40.78 206.78 40.8 206.672 40.848 206.56L41.676 204.7V205.12L39.372 199.768C39.324 199.648 39.308 199.536 39.324 199.432C39.34 199.328 39.388 199.244 39.468 199.18C39.548 199.116 39.66 199.084 39.804 199.084C39.932 199.084 40.032 199.112 40.104 199.168C40.176 199.224 40.24 199.324 40.296 199.468L42.264 204.292H41.94L43.932 199.468C43.996 199.324 44.064 199.224 44.136 199.168C44.208 199.112 44.312 199.084 44.448 199.084C44.576 199.084 44.672 199.116 44.736 199.18C44.808 199.244 44.848 199.328 44.856 199.432C44.872 199.528 44.856 199.636 44.808 199.756L41.736 206.86C41.672 207.004 41.6 207.104 41.52 207.16C41.448 207.216 41.344 207.244 41.208 207.244ZM47.5947 207.244C47.4747 207.244 47.3787 207.212 47.3067 207.148C47.2347 207.084 47.1907 206.996 47.1747 206.884C47.1667 206.78 47.1867 206.672 47.2347 206.56L48.0627 204.7V205.12L45.7587 199.768C45.7107 199.648 45.6947 199.536 45.7107 199.432C45.7267 199.328 45.7747 199.244 45.8547 199.18C45.9347 199.116 46.0467 199.084 46.1907 199.084C46.3187 199.084 46.4187 199.112 46.4907 199.168C46.5627 199.224 46.6267 199.324 46.6827 199.468L48.6507 204.292H48.3267L50.3187 199.468C50.3827 199.324 50.4507 199.224 50.5227 199.168C50.5947 199.112 50.6987 199.084 50.8347 199.084C50.9627 199.084 51.0587 199.116 51.1227 199.18C51.1947 199.244 51.2347 199.328 51.2427 199.432C51.2587 199.528 51.2427 199.636 51.1947 199.756L48.1227 206.86C48.0587 207.004 47.9867 207.104 47.9067 207.16C47.8347 207.216 47.7307 207.244 47.5947 207.244ZM53.9814 207.244C53.8614 207.244 53.7654 207.212 53.6934 207.148C53.6214 207.084 53.5774 206.996 53.5614 206.884C53.5534 206.78 53.5734 206.672 53.6214 206.56L54.4494 204.7V205.12L52.1454 199.768C52.0974 199.648 52.0814 199.536 52.0974 199.432C52.1134 199.328 52.1614 199.244 52.2414 199.18C52.3214 199.116 52.4334 199.084 52.5774 199.084C52.7054 199.084 52.8054 199.112 52.8774 199.168C52.9494 199.224 53.0134 199.324 53.0694 199.468L55.0374 204.292H54.7134L56.7054 199.468C56.7694 199.324 56.8374 199.224 56.9094 199.168C56.9814 199.112 57.0854 199.084 57.2214 199.084C57.3494 199.084 57.4454 199.116 57.5094 199.18C57.5814 199.244 57.6214 199.328 57.6294 199.432C57.6454 199.528 57.6294 199.636 57.5814 199.756L54.5094 206.86C54.4454 207.004 54.3734 207.104 54.2934 207.16C54.2214 207.216 54.1174 207.244 53.9814 207.244ZM60.3682 207.244C60.2482 207.244 60.1522 207.212 60.0802 207.148C60.0082 207.084 59.9642 206.996 59.9482 206.884C59.9402 206.78 59.9602 206.672 60.0082 206.56L60.8362 204.7V205.12L58.5322 199.768C58.4842 199.648 58.4682 199.536 58.4842 199.432C58.5002 199.328 58.5482 199.244 58.6282 199.18C58.7082 199.116 58.8202 199.084 58.9642 199.084C59.0922 199.084 59.1922 199.112 59.2642 199.168C59.3362 199.224 59.4002 199.324 59.4562 199.468L61.4242 204.292H61.1002L63.0922 199.468C63.1562 199.324 63.2242 199.224 63.2962 199.168C63.3682 199.112 63.4722 199.084 63.6082 199.084C63.7362 199.084 63.8322 199.116 63.8962 199.18C63.9682 199.244 64.0082 199.328 64.0162 199.432C64.0322 199.528 64.0162 199.636 63.9682 199.756L60.8962 206.86C60.8322 207.004 60.7602 207.104 60.6802 207.16C60.6082 207.216 60.5042 207.244 60.3682 207.244ZM65.3016 202.204C65.1816 202.204 65.0816 202.168 65.0016 202.096C64.9216 202.016 64.8816 201.92 64.8816 201.808C64.8816 201.688 64.9216 201.592 65.0016 201.52C65.0816 201.44 65.1816 201.4 65.3016 201.4H68.0016C68.1136 201.4 68.2096 201.44 68.2896 201.52C68.3696 201.592 68.4096 201.688 68.4096 201.808C68.4096 201.92 68.3696 202.016 68.2896 202.096C68.2096 202.168 68.1136 202.204 68.0016 202.204H65.3016ZM70.6035 205.084C70.4435 205.084 70.3235 205.04 70.2435 204.952C70.1635 204.864 70.1235 204.74 70.1235 204.58V199.576C70.1235 199.416 70.1635 199.296 70.2435 199.216C70.3235 199.128 70.4395 199.084 70.5915 199.084C70.7435 199.084 70.8595 199.128 70.9395 199.216C71.0275 199.296 71.0715 199.416 71.0715 199.576V200.632L70.9395 200.464C71.0915 200.016 71.3355 199.672 71.6715 199.432C72.0155 199.184 72.4235 199.06 72.8955 199.06C73.3915 199.06 73.7915 199.18 74.0955 199.42C74.4075 199.652 74.6155 200.016 74.7195 200.512H74.5395C74.6835 200.064 74.9395 199.712 75.3075 199.456C75.6835 199.192 76.1195 199.06 76.6155 199.06C77.0555 199.06 77.4155 199.144 77.6955 199.312C77.9835 199.48 78.1995 199.736 78.3435 200.08C78.4875 200.416 78.5595 200.844 78.5595 201.364V204.58C78.5595 204.74 78.5155 204.864 78.4275 204.952C78.3475 205.04 78.2275 205.084 78.0675 205.084C77.9155 205.084 77.7955 205.04 77.7075 204.952C77.6275 204.864 77.5875 204.74 77.5875 204.58V201.412C77.5875 200.876 77.4955 200.484 77.3115 200.236C77.1275 199.98 76.8155 199.852 76.3755 199.852C75.8955 199.852 75.5155 200.02 75.2355 200.356C74.9635 200.684 74.8275 201.132 74.8275 201.7V204.58C74.8275 204.74 74.7835 204.864 74.6955 204.952C74.6155 205.04 74.4955 205.084 74.3355 205.084C74.1835 205.084 74.0635 205.04 73.9755 204.952C73.8955 204.864 73.8555 204.74 73.8555 204.58V201.412C73.8555 200.876 73.7595 200.484 73.5675 200.236C73.3835 199.98 73.0755 199.852 72.6435 199.852C72.1635 199.852 71.7835 200.02 71.5035 200.356C71.2315 200.684 71.0955 201.132 71.0955 201.7V204.58C71.0955 204.916 70.9315 205.084 70.6035 205.084ZM80.8808 205.084C80.7208 205.084 80.6008 205.04 80.5208 204.952C80.4408 204.864 80.4008 204.74 80.4008 204.58V199.576C80.4008 199.416 80.4408 199.296 80.5208 199.216C80.6008 199.128 80.7168 199.084 80.8688 199.084C81.0208 199.084 81.1368 199.128 81.2168 199.216C81.3048 199.296 81.3488 199.416 81.3488 199.576V200.632L81.2168 200.464C81.3688 200.016 81.6128 199.672 81.9488 199.432C82.2928 199.184 82.7008 199.06 83.1728 199.06C83.6688 199.06 84.0688 199.18 84.3728 199.42C84.6848 199.652 84.8928 200.016 84.9968 200.512H84.8168C84.9608 200.064 85.2168 199.712 85.5848 199.456C85.9608 199.192 86.3968 199.06 86.8928 199.06C87.3328 199.06 87.6928 199.144 87.9728 199.312C88.2608 199.48 88.4768 199.736 88.6208 200.08C88.7648 200.416 88.8368 200.844 88.8368 201.364V204.58C88.8368 204.74 88.7928 204.864 88.7048 204.952C88.6248 205.04 88.5048 205.084 88.3448 205.084C88.1928 205.084 88.0728 205.04 87.9848 204.952C87.9048 204.864 87.8648 204.74 87.8648 204.58V201.412C87.8648 200.876 87.7728 200.484 87.5888 200.236C87.4048 199.98 87.0928 199.852 86.6528 199.852C86.1728 199.852 85.7928 200.02 85.5128 200.356C85.2408 200.684 85.1048 201.132 85.1048 201.7V204.58C85.1048 204.74 85.0608 204.864 84.9728 204.952C84.8928 205.04 84.7728 205.084 84.6128 205.084C84.4608 205.084 84.3408 205.04 84.2528 204.952C84.1728 204.864 84.1328 204.74 84.1328 204.58V201.412C84.1328 200.876 84.0368 200.484 83.8448 200.236C83.6608 199.98 83.3528 199.852 82.9208 199.852C82.4408 199.852 82.0608 200.02 81.7808 200.356C81.5088 200.684 81.3728 201.132 81.3728 201.7V204.58C81.3728 204.916 81.2088 205.084 80.8808 205.084ZM90.9422 202.204C90.8222 202.204 90.7222 202.168 90.6422 202.096C90.5622 202.016 90.5222 201.92 90.5222 201.808C90.5222 201.688 90.5622 201.592 90.6422 201.52C90.7222 201.44 90.8222 201.4 90.9422 201.4H93.6422C93.7542 201.4 93.8502 201.44 93.9302 201.52C94.0102 201.592 94.0502 201.688 94.0502 201.808C94.0502 201.92 94.0102 202.016 93.9302 202.096C93.8502 202.168 93.7542 202.204 93.6422 202.204H90.9422ZM98.1359 205.108C97.6159 205.108 97.1599 204.984 96.7679 204.736C96.3839 204.488 96.0839 204.14 95.8679 203.692C95.6599 203.236 95.5559 202.7 95.5559 202.084C95.5559 201.46 95.6599 200.924 95.8679 200.476C96.0839 200.02 96.3839 199.672 96.7679 199.432C97.1599 199.184 97.6159 199.06 98.1359 199.06C98.6639 199.06 99.1159 199.192 99.4919 199.456C99.8679 199.72 100.12 200.076 100.248 200.524H100.116V196.948C100.116 196.788 100.156 196.668 100.236 196.588C100.324 196.5 100.448 196.456 100.608 196.456C100.76 196.456 100.876 196.5 100.956 196.588C101.044 196.668 101.088 196.788 101.088 196.948V204.58C101.088 204.74 101.048 204.864 100.968 204.952C100.888 205.04 100.768 205.084 100.608 205.084C100.456 205.084 100.336 205.04 100.248 204.952C100.168 204.864 100.128 204.74 100.128 204.58V203.44L100.26 203.608C100.132 204.064 99.8759 204.428 99.4919 204.7C99.1159 204.972 98.6639 205.108 98.1359 205.108ZM98.3399 204.328C98.6999 204.328 99.0159 204.24 99.2879 204.064C99.5599 203.888 99.7679 203.632 99.9119 203.296C100.064 202.96 100.14 202.556 100.14 202.084C100.14 201.356 99.9759 200.8 99.6479 200.416C99.3279 200.032 98.8919 199.84 98.3399 199.84C97.9719 199.84 97.6519 199.928 97.3799 200.104C97.1159 200.272 96.9079 200.524 96.7559 200.86C96.6119 201.188 96.5399 201.596 96.5399 202.084C96.5399 202.804 96.7039 203.36 97.0319 203.752C97.3599 204.136 97.7959 204.328 98.3399 204.328ZM105.132 205.108C104.612 205.108 104.156 204.984 103.764 204.736C103.38 204.488 103.08 204.14 102.864 203.692C102.656 203.236 102.552 202.7 102.552 202.084C102.552 201.46 102.656 200.924 102.864 200.476C103.08 200.02 103.38 199.672 103.764 199.432C104.156 199.184 104.612 199.06 105.132 199.06C105.66 199.06 106.112 199.192 106.488 199.456C106.864 199.72 107.116 200.076 107.244 200.524H107.112V196.948C107.112 196.788 107.152 196.668 107.232 196.588C107.32 196.5 107.444 196.456 107.604 196.456C107.756 196.456 107.872 196.5 107.952 196.588C108.04 196.668 108.084 196.788 108.084 196.948V204.58C108.084 204.74 108.044 204.864 107.964 204.952C107.884 205.04 107.764 205.084 107.604 205.084C107.452 205.084 107.332 205.04 107.244 204.952C107.164 204.864 107.124 204.74 107.124 204.58V203.44L107.256 203.608C107.128 204.064 106.872 204.428 106.488 204.7C106.112 204.972 105.66 205.108 105.132 205.108ZM105.336 204.328C105.696 204.328 106.012 204.24 106.284 204.064C106.556 203.888 106.764 203.632 106.908 203.296C107.06 202.96 107.136 202.556 107.136 202.084C107.136 201.356 106.972 200.8 106.644 200.416C106.324 200.032 105.888 199.84 105.336 199.84C104.968 199.84 104.648 199.928 104.376 200.104C104.112 200.272 103.904 200.524 103.752 200.86C103.608 201.188 103.536 201.596 103.536 202.084C103.536 202.804 103.7 203.36 104.028 203.752C104.356 204.136 104.792 204.328 105.336 204.328Z" fill="#929BAA"/>
<rect x="284" y="183" width="36" height="36" rx="10" fill="#F1F2F5"/>
<g clip-path="url(#clip0_1138_10408)">
<path d="M297.638 208C297.677 207.957 297.732 207.975 297.779 207.975C300.589 207.975 303.399 207.975 306.209 207.975C306.257 207.975 306.311 207.957 306.351 208H297.638Z" fill="#222222"/>
<path d="M308.953 197.114C308.822 196.579 308.522 196.095 308.094 195.726C307.71 195.395 307.258 195.156 306.73 195.091C306.522 195.063 306.314 195.048 306.104 195.046C305.791 195.046 305.817 195.071 305.817 194.774C305.817 194.601 305.82 194.429 305.733 194.268C305.621 194.063 305.436 194.004 305.211 194.008C304.992 194.013 304.829 194.094 304.727 194.286C304.631 194.465 304.645 194.655 304.645 194.844C304.645 195.046 304.645 195.047 304.434 195.047C302.814 195.047 301.194 195.047 299.574 195.047C299.561 195.047 299.547 195.047 299.533 195.047C299.384 195.044 299.374 195.035 299.372 194.889C299.372 194.779 299.38 194.672 299.369 194.565C299.35 194.382 299.295 194.214 299.13 194.103C298.938 193.974 298.723 193.977 298.516 194.055C298.304 194.136 298.226 194.32 298.202 194.523C298.187 194.642 298.199 194.764 298.197 194.885C298.195 195.034 298.183 195.049 298.023 195.045C297.783 195.043 297.542 195.057 297.304 195.088C296.975 195.128 296.679 195.253 296.39 195.409C295.953 195.645 295.626 195.975 295.375 196.38C295.108 196.811 295 197.278 295 197.78C295.007 200.303 295.008 202.826 295.002 205.35C295.002 205.699 295.052 206.037 295.194 206.362C295.438 206.913 295.817 207.354 296.357 207.662C296.672 207.844 297.025 207.959 297.391 208H297.637C297.684 207.975 297.735 207.987 297.784 207.987C300.59 207.987 303.396 207.987 306.202 207.987C306.251 207.987 306.302 207.975 306.349 208H306.541C306.725 207.985 306.906 207.951 307.082 207.9C307.834 207.678 308.357 207.211 308.717 206.562C308.881 206.269 308.977 205.946 309 205.614V197.496C308.972 197.37 308.986 197.239 308.953 197.114ZM296.105 198.18C296.114 197.852 296.087 197.524 296.221 197.209C296.351 196.896 296.577 196.626 296.868 196.435C297.193 196.216 297.549 196.179 297.923 196.182C298.239 196.182 298.239 196.182 298.239 196.483C298.239 196.747 298.234 197.01 298.241 197.274C298.247 197.53 298.424 197.733 298.663 197.78C298.78 197.804 298.901 197.791 299.009 197.744C299.118 197.696 299.207 197.617 299.263 197.517C299.31 197.423 299.333 197.32 299.329 197.216C299.329 196.905 299.332 196.596 299.329 196.283C299.329 196.204 299.348 196.18 299.434 196.18C301.149 196.183 302.865 196.183 304.582 196.18C304.665 196.18 304.689 196.2 304.688 196.281C304.683 196.605 304.681 196.929 304.688 197.253C304.697 197.648 305.078 197.898 305.441 197.751C305.672 197.658 305.775 197.481 305.778 197.249C305.781 196.929 305.781 196.61 305.778 196.29C305.778 196.208 305.795 196.178 305.889 196.18C306.196 196.188 306.511 196.154 306.807 196.264C307.439 196.5 307.865 197.023 307.906 197.713C307.917 197.881 307.906 198.05 307.911 198.218C307.914 198.291 307.89 198.312 307.813 198.311C307.508 198.307 307.203 198.311 306.898 198.311H302.009C300.089 198.311 298.169 198.312 296.249 198.313C296.137 198.312 296.102 198.292 296.105 198.18ZM306.7 206.84C306.541 206.882 306.378 206.906 306.214 206.91C303.411 206.91 300.608 206.91 297.805 206.91C297.376 206.915 296.961 206.763 296.647 206.485C296.31 206.193 296.116 205.811 296.114 205.375C296.105 203.413 296.111 201.451 296.107 199.489C296.107 199.369 296.178 199.395 296.246 199.395H302.006C303.926 199.395 305.846 199.394 307.766 199.393C307.879 199.393 307.908 199.418 307.908 199.526C307.904 201.427 307.898 203.329 307.908 205.23C307.915 205.93 307.468 206.654 306.7 206.84Z" fill="#64728C"/>
<path d="M298.752 204.004C298.916 204.004 299.08 203.999 299.244 204.004C299.334 204.009 299.422 204.032 299.502 204.072C299.582 204.112 299.652 204.168 299.707 204.235C299.763 204.303 299.802 204.381 299.823 204.465C299.844 204.548 299.846 204.635 299.828 204.719C299.797 204.888 299.717 205.021 299.577 205.105C299.459 205.178 299.335 205.232 299.186 205.227C298.876 205.214 298.565 205.236 298.256 205.22C297.865 205.2 297.584 204.864 297.68 204.449C297.734 204.213 298.025 204.005 298.231 204.003C298.405 204.003 298.578 204.004 298.752 204.004Z" fill="#64728C"/>
<path d="M305.223 204.004C305.388 204.004 305.552 203.999 305.716 204.004C306.105 204.018 306.385 204.369 306.299 204.757C306.242 205.011 305.964 205.217 305.734 205.221C305.401 205.228 305.068 205.234 304.736 205.221C304.364 205.206 304.083 204.893 304.147 204.496C304.189 204.234 304.48 204.01 304.704 204.005C304.877 204.001 305.05 204.004 305.223 204.004Z" fill="#64728C"/>
<path d="M301.992 204.004C302.152 204.004 302.311 204.001 302.471 204.004C302.835 204.013 303.129 204.335 303.064 204.712C303.036 204.875 302.962 205.007 302.829 205.094C302.708 205.172 302.582 205.231 302.428 205.227C302.114 205.216 301.798 205.227 301.484 205.223C301.244 205.22 300.95 205.001 300.908 204.738C300.862 204.454 300.985 204.199 301.233 204.073C301.336 204.021 301.452 203.997 301.568 204.003C301.709 204.006 301.851 204.004 301.992 204.004Z" fill="#64728C"/>
<path d="M305.264 201.107C305.437 201.107 305.612 201.116 305.785 201.107C306.178 201.084 306.501 201.614 306.281 202.005C306.177 202.192 306.02 202.297 305.812 202.297C305.447 202.302 305.083 202.304 304.715 202.297C304.479 202.292 304.305 202.17 304.219 201.94C304.177 201.837 304.165 201.726 304.183 201.617C304.201 201.508 304.249 201.406 304.321 201.32C304.374 201.248 304.446 201.19 304.529 201.153C304.613 201.115 304.706 201.1 304.798 201.108C304.953 201.114 305.108 201.107 305.264 201.107Z" fill="#64728C"/>
<path d="M298.782 202.299C298.603 202.299 298.425 202.303 298.247 202.299C298.011 202.291 297.835 202.176 297.748 201.948C297.656 201.713 297.699 201.499 297.861 201.303C297.984 201.154 298.133 201.104 298.316 201.107C298.645 201.113 298.975 201.122 299.303 201.105C299.62 201.087 299.885 201.441 299.879 201.713C299.871 202.056 299.642 202.297 299.303 202.3C299.129 202.301 298.955 202.299 298.782 202.299Z" fill="#64728C"/>
<path d="M302.023 201.108C302.206 201.108 302.389 201.115 302.572 201.108C302.851 201.094 303.117 201.44 303.109 201.708C303.103 202.036 302.888 202.291 302.582 202.297C302.212 202.306 301.841 202.304 301.471 202.297C301.246 202.293 301.077 202.178 300.986 201.965C300.94 201.866 300.922 201.757 300.934 201.649C300.946 201.542 300.987 201.439 301.054 201.351C301.175 201.179 301.333 201.095 301.542 201.106C301.703 201.114 301.863 201.107 302.023 201.108Z" fill="#64728C"/>
</g>
<rect x="25.5" y="259.5" width="299" height="43" rx="9.5" fill="white" stroke="#E8EAEF"/>
<path d="M28.84 251.12C28.488 251.12 28.136 251.092 27.784 251.036C27.432 250.988 27.1 250.912 26.788 250.808C26.476 250.696 26.196 250.56 25.948 250.4C25.804 250.304 25.704 250.188 25.648 250.052C25.592 249.916 25.572 249.784 25.588 249.656C25.612 249.52 25.664 249.404 25.744 249.308C25.832 249.204 25.94 249.14 26.068 249.116C26.196 249.092 26.336 249.128 26.488 249.224C26.84 249.432 27.212 249.584 27.604 249.68C27.996 249.776 28.408 249.824 28.84 249.824C29.472 249.824 29.932 249.72 30.22 249.512C30.508 249.296 30.652 249.02 30.652 248.684C30.652 248.404 30.548 248.184 30.34 248.024C30.14 247.864 29.792 247.732 29.296 247.628L27.976 247.352C27.216 247.192 26.648 246.924 26.272 246.548C25.904 246.164 25.72 245.66 25.72 245.036C25.72 244.644 25.8 244.288 25.96 243.968C26.12 243.648 26.344 243.372 26.632 243.14C26.928 242.908 27.276 242.732 27.676 242.612C28.084 242.484 28.532 242.42 29.02 242.42C29.5 242.42 29.956 242.48 30.388 242.6C30.82 242.72 31.208 242.896 31.552 243.128C31.68 243.216 31.764 243.324 31.804 243.452C31.852 243.58 31.864 243.708 31.84 243.836C31.816 243.956 31.76 244.06 31.672 244.148C31.584 244.236 31.472 244.288 31.336 244.304C31.208 244.32 31.06 244.28 30.892 244.184C30.596 244.016 30.296 243.896 29.992 243.824C29.688 243.752 29.36 243.716 29.008 243.716C28.64 243.716 28.324 243.768 28.06 243.872C27.796 243.976 27.592 244.124 27.448 244.316C27.312 244.5 27.244 244.72 27.244 244.976C27.244 245.264 27.34 245.496 27.532 245.672C27.724 245.84 28.052 245.972 28.516 246.068L29.824 246.344C30.616 246.512 31.204 246.776 31.588 247.136C31.98 247.496 32.176 247.976 32.176 248.576C32.176 248.96 32.096 249.308 31.936 249.62C31.784 249.932 31.56 250.2 31.264 250.424C30.976 250.648 30.628 250.82 30.22 250.94C29.812 251.06 29.352 251.12 28.84 251.12ZM35.9797 251.12C35.4597 251.12 35.0237 251.032 34.6717 250.856C34.3277 250.68 34.0717 250.424 33.9037 250.088C33.7357 249.744 33.6517 249.32 33.6517 248.816V246.26H33.0277C32.8357 246.26 32.6877 246.212 32.5837 246.116C32.4797 246.012 32.4277 245.872 32.4277 245.696C32.4277 245.512 32.4797 245.372 32.5837 245.276C32.6877 245.18 32.8357 245.132 33.0277 245.132H33.6517V244.04C33.6517 243.792 33.7157 243.604 33.8437 243.476C33.9797 243.348 34.1677 243.284 34.4077 243.284C34.6477 243.284 34.8317 243.348 34.9597 243.476C35.0877 243.604 35.1517 243.792 35.1517 244.04V245.132H36.4237C36.6157 245.132 36.7637 245.18 36.8677 245.276C36.9717 245.372 37.0237 245.512 37.0237 245.696C37.0237 245.872 36.9717 246.012 36.8677 246.116C36.7637 246.212 36.6157 246.26 36.4237 246.26H35.1517V248.732C35.1517 249.116 35.2357 249.404 35.4037 249.596C35.5717 249.788 35.8437 249.884 36.2197 249.884C36.3557 249.884 36.4757 249.872 36.5797 249.848C36.6837 249.824 36.7757 249.808 36.8557 249.8C36.9517 249.792 37.0317 249.824 37.0957 249.896C37.1597 249.96 37.1917 250.096 37.1917 250.304C37.1917 250.464 37.1637 250.608 37.1077 250.736C37.0597 250.856 36.9677 250.94 36.8317 250.988C36.7277 251.02 36.5917 251.048 36.4237 251.072C36.2557 251.104 36.1077 251.12 35.9797 251.12ZM39.8292 251.12C39.4052 251.12 39.0252 251.04 38.6892 250.88C38.3612 250.712 38.1012 250.488 37.9092 250.208C37.7252 249.928 37.6332 249.612 37.6332 249.26C37.6332 248.828 37.7452 248.488 37.9692 248.24C38.1932 247.984 38.5572 247.8 39.0612 247.688C39.5652 247.576 40.2412 247.52 41.0892 247.52H41.6892V248.384H41.1012C40.6052 248.384 40.2092 248.408 39.9132 248.456C39.6172 248.504 39.4052 248.588 39.2772 248.708C39.1572 248.82 39.0972 248.98 39.0972 249.188C39.0972 249.452 39.1892 249.668 39.3732 249.836C39.5572 250.004 39.8132 250.088 40.1412 250.088C40.4052 250.088 40.6372 250.028 40.8372 249.908C41.0452 249.78 41.2092 249.608 41.3292 249.392C41.4492 249.176 41.5092 248.928 41.5092 248.648V247.268C41.5092 246.868 41.4212 246.58 41.2452 246.404C41.0692 246.228 40.7732 246.14 40.3572 246.14C40.1252 246.14 39.8732 246.168 39.6012 246.224C39.3372 246.28 39.0572 246.376 38.7612 246.512C38.6092 246.584 38.4732 246.604 38.3532 246.572C38.2412 246.54 38.1532 246.476 38.0892 246.38C38.0252 246.276 37.9932 246.164 37.9932 246.044C37.9932 245.924 38.0252 245.808 38.0892 245.696C38.1532 245.576 38.2612 245.488 38.4132 245.432C38.7812 245.28 39.1332 245.172 39.4692 245.108C39.8132 245.044 40.1252 245.012 40.4052 245.012C40.9812 245.012 41.4532 245.1 41.8212 245.276C42.1972 245.452 42.4772 245.72 42.6612 246.08C42.8452 246.432 42.9372 246.888 42.9372 247.448V250.328C42.9372 250.576 42.8772 250.768 42.7572 250.904C42.6372 251.032 42.4652 251.096 42.2412 251.096C42.0172 251.096 41.8412 251.032 41.7132 250.904C41.5932 250.768 41.5332 250.576 41.5332 250.328V249.752H41.6292C41.5732 250.032 41.4612 250.276 41.2932 250.484C41.1332 250.684 40.9292 250.84 40.6812 250.952C40.4332 251.064 40.1492 251.12 39.8292 251.12ZM47.1477 251.12C46.6277 251.12 46.1917 251.032 45.8397 250.856C45.4957 250.68 45.2397 250.424 45.0717 250.088C44.9037 249.744 44.8197 249.32 44.8197 248.816V246.26H44.1957C44.0037 246.26 43.8557 246.212 43.7517 246.116C43.6477 246.012 43.5957 245.872 43.5957 245.696C43.5957 245.512 43.6477 245.372 43.7517 245.276C43.8557 245.18 44.0037 245.132 44.1957 245.132H44.8197V244.04C44.8197 243.792 44.8837 243.604 45.0117 243.476C45.1477 243.348 45.3357 243.284 45.5757 243.284C45.8157 243.284 45.9997 243.348 46.1277 243.476C46.2557 243.604 46.3197 243.792 46.3197 244.04V245.132H47.5917C47.7837 245.132 47.9317 245.18 48.0357 245.276C48.1397 245.372 48.1917 245.512 48.1917 245.696C48.1917 245.872 48.1397 246.012 48.0357 246.116C47.9317 246.212 47.7837 246.26 47.5917 246.26H46.3197V248.732C46.3197 249.116 46.4037 249.404 46.5717 249.596C46.7397 249.788 47.0117 249.884 47.3877 249.884C47.5237 249.884 47.6437 249.872 47.7477 249.848C47.8517 249.824 47.9437 249.808 48.0237 249.8C48.1197 249.792 48.1997 249.824 48.2637 249.896C48.3277 249.96 48.3597 250.096 48.3597 250.304C48.3597 250.464 48.3317 250.608 48.2757 250.736C48.2277 250.856 48.1357 250.94 47.9997 250.988C47.8957 251.02 47.7597 251.048 47.5917 251.072C47.4237 251.104 47.2757 251.12 47.1477 251.12ZM51.1892 251.12C50.7012 251.12 50.2972 251.032 49.9772 250.856C49.6572 250.672 49.4172 250.4 49.2572 250.04C49.1052 249.68 49.0292 249.232 49.0292 248.696V245.792C49.0292 245.536 49.0932 245.348 49.2212 245.228C49.3492 245.1 49.5332 245.036 49.7732 245.036C50.0132 245.036 50.1972 245.1 50.3252 245.228C50.4612 245.348 50.5292 245.536 50.5292 245.792V248.72C50.5292 249.136 50.6132 249.444 50.7812 249.644C50.9492 249.844 51.2172 249.944 51.5852 249.944C51.9852 249.944 52.3132 249.808 52.5692 249.536C52.8252 249.256 52.9532 248.888 52.9532 248.432V245.792C52.9532 245.536 53.0172 245.348 53.1452 245.228C53.2732 245.1 53.4572 245.036 53.6972 245.036C53.9372 245.036 54.1212 245.1 54.2492 245.228C54.3852 245.348 54.4532 245.536 54.4532 245.792V250.328C54.4532 250.84 54.2092 251.096 53.7212 251.096C53.4892 251.096 53.3092 251.032 53.1812 250.904C53.0532 250.768 52.9892 250.576 52.9892 250.328V249.416L53.1572 249.776C52.9892 250.208 52.7332 250.54 52.3892 250.772C52.0532 251.004 51.6532 251.12 51.1892 251.12ZM58.1624 251.12C57.8184 251.12 57.4544 251.084 57.0704 251.012C56.6864 250.94 56.3424 250.816 56.0384 250.64C55.9104 250.56 55.8184 250.468 55.7624 250.364C55.7144 250.252 55.6944 250.144 55.7024 250.04C55.7184 249.928 55.7584 249.832 55.8224 249.752C55.8944 249.672 55.9824 249.62 56.0864 249.596C56.1984 249.572 56.3184 249.592 56.4464 249.656C56.7664 249.808 57.0664 249.916 57.3464 249.98C57.6264 250.036 57.9024 250.064 58.1744 250.064C58.5584 250.064 58.8424 250 59.0264 249.872C59.2184 249.736 59.3144 249.56 59.3144 249.344C59.3144 249.16 59.2504 249.02 59.1224 248.924C59.0024 248.82 58.8184 248.744 58.5704 248.696L57.3704 248.468C56.8744 248.372 56.4944 248.192 56.2304 247.928C55.9744 247.656 55.8464 247.308 55.8464 246.884C55.8464 246.5 55.9504 246.168 56.1584 245.888C56.3744 245.608 56.6704 245.392 57.0464 245.24C57.4224 245.088 57.8544 245.012 58.3424 245.012C58.6944 245.012 59.0224 245.052 59.3264 245.132C59.6384 245.204 59.9384 245.32 60.2264 245.48C60.3464 245.544 60.4264 245.628 60.4664 245.732C60.5144 245.836 60.5264 245.944 60.5024 246.056C60.4784 246.16 60.4304 246.256 60.3584 246.344C60.2864 246.424 60.1944 246.476 60.0824 246.5C59.9784 246.516 59.8584 246.492 59.7224 246.428C59.4744 246.3 59.2344 246.208 59.0024 246.152C58.7784 246.096 58.5624 246.068 58.3544 246.068C57.9624 246.068 57.6704 246.136 57.4784 246.272C57.2944 246.408 57.2024 246.588 57.2024 246.812C57.2024 246.98 57.2584 247.12 57.3704 247.232C57.4824 247.344 57.6544 247.42 57.8864 247.46L59.0864 247.688C59.6064 247.784 59.9984 247.96 60.2624 248.216C60.5344 248.472 60.6704 248.816 60.6704 249.248C60.6704 249.832 60.4424 250.292 59.9864 250.628C59.5304 250.956 58.9224 251.12 58.1624 251.12Z" fill="#64728C"/>
<path d="M40.536 285.084C40.376 285.084 40.252 285.04 40.164 284.952C40.084 284.856 40.044 284.728 40.044 284.568V277.044C40.044 276.876 40.088 276.752 40.176 276.672C40.264 276.584 40.388 276.54 40.548 276.54H43.392C44.296 276.54 44.992 276.764 45.48 277.212C45.968 277.652 46.212 278.276 46.212 279.084C46.212 279.884 45.968 280.508 45.48 280.956C44.992 281.404 44.296 281.628 43.392 281.628H41.028V284.568C41.028 284.728 40.988 284.856 40.908 284.952C40.828 285.04 40.704 285.084 40.536 285.084ZM41.028 280.8H43.272C43.92 280.8 44.408 280.656 44.736 280.368C45.072 280.072 45.24 279.644 45.24 279.084C45.24 278.516 45.072 278.088 44.736 277.8C44.408 277.504 43.92 277.356 43.272 277.356H41.028V280.8ZM49.8759 285.108C49.2599 285.108 48.7279 284.988 48.2799 284.748C47.8399 284.5 47.4959 284.152 47.2479 283.704C47.0079 283.256 46.8879 282.72 46.8879 282.096C46.8879 281.488 47.0079 280.96 47.2479 280.512C47.4879 280.056 47.8159 279.7 48.2319 279.444C48.6559 279.188 49.1439 279.06 49.6959 279.06C50.0879 279.06 50.4399 279.128 50.7519 279.264C51.0639 279.392 51.3279 279.58 51.5439 279.828C51.7679 280.076 51.9359 280.376 52.0479 280.728C52.1679 281.08 52.2279 281.476 52.2279 281.916C52.2279 282.044 52.1919 282.14 52.1199 282.204C52.0479 282.26 51.9439 282.288 51.8079 282.288H47.6319V281.652H51.5799L51.3879 281.808C51.3879 281.376 51.3239 281.012 51.1959 280.716C51.0679 280.412 50.8799 280.18 50.6319 280.02C50.3919 279.86 50.0879 279.78 49.7199 279.78C49.3119 279.78 48.9639 279.876 48.6759 280.068C48.3959 280.252 48.1839 280.512 48.0399 280.848C47.8959 281.176 47.8239 281.56 47.8239 282V282.072C47.8239 282.808 47.9999 283.368 48.3519 283.752C48.7119 284.136 49.2199 284.328 49.8759 284.328C50.1479 284.328 50.4159 284.292 50.6799 284.22C50.9519 284.148 51.2159 284.028 51.4719 283.86C51.5839 283.788 51.6839 283.756 51.7719 283.764C51.8679 283.764 51.9439 283.792 51.9999 283.848C52.0559 283.896 52.0919 283.96 52.1079 284.04C52.1319 284.112 52.1239 284.192 52.0839 284.28C52.0519 284.368 51.9839 284.444 51.8799 284.508C51.6159 284.7 51.3039 284.848 50.9439 284.952C50.5839 285.056 50.2279 285.108 49.8759 285.108ZM54.1147 285.084C53.9547 285.084 53.8347 285.04 53.7547 284.952C53.6747 284.864 53.6347 284.74 53.6347 284.58V279.576C53.6347 279.416 53.6747 279.296 53.7547 279.216C53.8347 279.128 53.9507 279.084 54.1027 279.084C54.2547 279.084 54.3707 279.128 54.4507 279.216C54.5387 279.296 54.5827 279.416 54.5827 279.576V280.608L54.4507 280.464C54.6187 280 54.8907 279.652 55.2667 279.42C55.6507 279.18 56.0907 279.06 56.5867 279.06C57.0507 279.06 57.4347 279.144 57.7387 279.312C58.0507 279.48 58.2827 279.736 58.4347 280.08C58.5867 280.416 58.6627 280.844 58.6627 281.364V284.58C58.6627 284.74 58.6187 284.864 58.5307 284.952C58.4507 285.04 58.3347 285.084 58.1827 285.084C58.0227 285.084 57.8987 285.04 57.8107 284.952C57.7307 284.864 57.6907 284.74 57.6907 284.58V281.424C57.6907 280.88 57.5827 280.484 57.3667 280.236C57.1587 279.98 56.8227 279.852 56.3587 279.852C55.8227 279.852 55.3947 280.02 55.0747 280.356C54.7627 280.684 54.6067 281.124 54.6067 281.676V284.58C54.6067 284.916 54.4427 285.084 54.1147 285.084ZM62.675 285.108C62.155 285.108 61.699 284.984 61.307 284.736C60.923 284.488 60.623 284.14 60.407 283.692C60.199 283.236 60.095 282.7 60.095 282.084C60.095 281.46 60.199 280.924 60.407 280.476C60.623 280.02 60.923 279.672 61.307 279.432C61.699 279.184 62.155 279.06 62.675 279.06C63.203 279.06 63.655 279.192 64.031 279.456C64.407 279.72 64.659 280.076 64.787 280.524H64.655V276.948C64.655 276.788 64.695 276.668 64.775 276.588C64.863 276.5 64.987 276.456 65.147 276.456C65.299 276.456 65.415 276.5 65.495 276.588C65.583 276.668 65.627 276.788 65.627 276.948V284.58C65.627 284.74 65.587 284.864 65.507 284.952C65.427 285.04 65.307 285.084 65.147 285.084C64.995 285.084 64.875 285.04 64.787 284.952C64.707 284.864 64.667 284.74 64.667 284.58V283.44L64.799 283.608C64.671 284.064 64.415 284.428 64.031 284.7C63.655 284.972 63.203 285.108 62.675 285.108ZM62.879 284.328C63.239 284.328 63.555 284.24 63.827 284.064C64.099 283.888 64.307 283.632 64.451 283.296C64.603 282.96 64.679 282.556 64.679 282.084C64.679 281.356 64.515 280.8 64.187 280.416C63.867 280.032 63.431 279.84 62.879 279.84C62.511 279.84 62.191 279.928 61.919 280.104C61.655 280.272 61.447 280.524 61.295 280.86C61.151 281.188 61.079 281.596 61.079 282.084C61.079 282.804 61.243 283.36 61.571 283.752C61.899 284.136 62.335 284.328 62.879 284.328ZM67.9311 285.06C67.7711 285.06 67.6511 285.016 67.5711 284.928C67.4911 284.832 67.4511 284.7 67.4511 284.532V279.624C67.4511 279.456 67.4911 279.328 67.5711 279.24C67.6511 279.152 67.7711 279.108 67.9311 279.108C68.0831 279.108 68.2031 279.152 68.2911 279.24C68.3791 279.328 68.4231 279.456 68.4231 279.624V284.532C68.4231 284.7 68.3791 284.832 68.2911 284.928C68.2111 285.016 68.0911 285.06 67.9311 285.06ZM67.9311 277.764C67.7311 277.764 67.5751 277.712 67.4631 277.608C67.3511 277.496 67.2951 277.348 67.2951 277.164C67.2951 276.972 67.3511 276.828 67.4631 276.732C67.5751 276.628 67.7311 276.576 67.9311 276.576C68.1391 276.576 68.2951 276.628 68.3991 276.732C68.5111 276.828 68.5671 276.972 68.5671 277.164C68.5671 277.348 68.5111 277.496 68.3991 277.608C68.2951 277.712 68.1391 277.764 67.9311 277.764ZM70.7201 285.084C70.5601 285.084 70.4401 285.04 70.3601 284.952C70.2801 284.864 70.2401 284.74 70.2401 284.58V279.576C70.2401 279.416 70.2801 279.296 70.3601 279.216C70.4401 279.128 70.5561 279.084 70.7081 279.084C70.8601 279.084 70.9761 279.128 71.0561 279.216C71.1441 279.296 71.1881 279.416 71.1881 279.576V280.608L71.0561 280.464C71.2241 280 71.4961 279.652 71.8721 279.42C72.2561 279.18 72.6961 279.06 73.1921 279.06C73.6561 279.06 74.0401 279.144 74.3441 279.312C74.6561 279.48 74.8881 279.736 75.0401 280.08C75.1921 280.416 75.2681 280.844 75.2681 281.364V284.58C75.2681 284.74 75.2241 284.864 75.1361 284.952C75.0561 285.04 74.9401 285.084 74.7881 285.084C74.6281 285.084 74.5041 285.04 74.4161 284.952C74.3361 284.864 74.2961 284.74 74.2961 284.58V281.424C74.2961 280.88 74.1881 280.484 73.9721 280.236C73.7641 279.98 73.4281 279.852 72.9641 279.852C72.4281 279.852 72.0001 280.02 71.6801 280.356C71.3681 280.684 71.2121 281.124 71.2121 281.676V284.58C71.2121 284.916 71.0481 285.084 70.7201 285.084ZM79.6404 287.268C79.2164 287.268 78.8004 287.216 78.3924 287.112C77.9924 287.016 77.6284 286.86 77.3004 286.644C77.2044 286.588 77.1404 286.52 77.1084 286.44C77.0844 286.36 77.0804 286.28 77.0964 286.2C77.1124 286.128 77.1484 286.06 77.2044 285.996C77.2604 285.94 77.3244 285.904 77.3964 285.888C77.4764 285.872 77.5564 285.884 77.6364 285.924C77.9884 286.14 78.3244 286.288 78.6444 286.368C78.9644 286.448 79.2804 286.488 79.5924 286.488C80.1604 286.488 80.5884 286.336 80.8764 286.032C81.1724 285.728 81.3204 285.288 81.3204 284.712V283.356H81.4404C81.3204 283.82 81.0644 284.188 80.6724 284.46C80.2884 284.732 79.8364 284.868 79.3164 284.868C78.7804 284.868 78.3164 284.748 77.9244 284.508C77.5324 284.26 77.2284 283.916 77.0124 283.476C76.8044 283.036 76.7004 282.528 76.7004 281.952C76.7004 281.52 76.7604 281.128 76.8804 280.776C77.0004 280.416 77.1724 280.112 77.3964 279.864C77.6284 279.608 77.9044 279.412 78.2244 279.276C78.5524 279.132 78.9164 279.06 79.3164 279.06C79.8444 279.06 80.3004 279.196 80.6844 279.468C81.0684 279.732 81.3164 280.092 81.4284 280.548L81.3084 280.692V279.576C81.3084 279.416 81.3484 279.296 81.4284 279.216C81.5164 279.128 81.6364 279.084 81.7884 279.084C81.9484 279.084 82.0684 279.128 82.1484 279.216C82.2284 279.296 82.2684 279.416 82.2684 279.576V284.58C82.2684 285.468 82.0444 286.136 81.5964 286.584C81.1564 287.04 80.5044 287.268 79.6404 287.268ZM79.4964 284.076C79.8724 284.076 80.1964 283.992 80.4684 283.824C80.7404 283.648 80.9484 283.4 81.0924 283.08C81.2444 282.76 81.3204 282.384 81.3204 281.952C81.3204 281.304 81.1564 280.792 80.8284 280.416C80.5004 280.032 80.0564 279.84 79.4964 279.84C79.1284 279.84 78.8084 279.928 78.5364 280.104C78.2644 280.272 78.0524 280.516 77.9004 280.836C77.7564 281.148 77.6844 281.52 77.6844 281.952C77.6844 282.6 77.8484 283.116 78.1764 283.5C78.5044 283.884 78.9444 284.076 79.4964 284.076Z" fill="#929BAA"/>
<rect x="284" y="263" width="36" height="36" rx="10" fill="#F1F2F5"/>
<path d="M303.039 285.2C302.577 286 301.423 286 300.961 285.2L297.843 279.8C297.381 279 297.959 278 298.882 278L305.118 278C306.041 278 306.619 279 306.157 279.8L303.039 285.2Z" fill="#64728C"/>
<defs>
<clipPath id="clip0_1138_10408">
<rect width="14" height="14" fill="white" transform="translate(295 194)"/>
</clipPath>
</defs>
</svg>
