<svg width="344" height="344" viewBox="0 0 344 344" fill="none" xmlns="http://www.w3.org/2000/svg">
<g clip-path="url(#clip0_1207_13042)">
<rect width="344" height="344" rx="16" fill="white"/>
<mask id="path-2-inside-1_1207_13042" fill="white">
<path d="M25 25H319V75H25V25Z"/>
</mask>
<path d="M319 74H25V76H319V74Z" fill="#E8EAEF" mask="url(#path-2-inside-1_1207_13042)"/>
<rect x="-6" y="1" width="350" height="98" rx="36" fill="white"/>
<g clip-path="url(#clip1_1207_13042)">
<path d="M322 5H16C8.26801 5 2 11.268 2 19V81C2 88.732 8.26801 95 16 95H322C329.732 95 336 88.732 336 81V19C336 11.268 329.732 5 322 5Z" fill="white"/>
<mask id="mask0_1207_13042" style="mask-type:luminance" maskUnits="userSpaceOnUse" x="27" y="30" width="284" height="35">
<path d="M27 30H311V65H27V30Z" fill="white"/>
</mask>
<g mask="url(#mask0_1207_13042)">
<path d="M311 64H27V66H311V64Z" fill="#E8EAEF"/>
</g>
<path d="M66.5 34H40.5C33.0442 34 27 40.0442 27 47.5C27 54.9558 33.0442 61 40.5 61H66.5C73.9558 61 80 54.9558 80 47.5C80 40.0442 73.9558 34 66.5 34Z" fill="white"/>
<path d="M28.918 52.1121C28.6567 52.1121 28.456 52.0374 28.316 51.8881C28.176 51.7388 28.106 51.5334 28.106 51.2721V42.8581C28.106 42.5874 28.1807 42.3821 28.33 42.2421C28.4793 42.0928 28.6847 42.0181 28.946 42.0181C29.1793 42.0181 29.3613 42.0648 29.492 42.1581C29.632 42.2421 29.758 42.3914 29.87 42.6061L33.328 49.0041H32.88L36.338 42.6061C36.45 42.3914 36.5713 42.2421 36.702 42.1581C36.8327 42.0648 37.0147 42.0181 37.248 42.0181C37.5093 42.0181 37.71 42.0928 37.85 42.2421C37.99 42.3821 38.06 42.5874 38.06 42.8581V51.2721C38.06 51.5334 37.99 51.7388 37.85 51.8881C37.7193 52.0374 37.5187 52.1121 37.248 52.1121C36.9867 52.1121 36.786 52.0374 36.646 51.8881C36.506 51.7388 36.436 51.5334 36.436 51.2721V44.7901H36.744L33.804 50.1521C33.7107 50.3108 33.6127 50.4274 33.51 50.5021C33.4073 50.5768 33.2673 50.6141 33.09 50.6141C32.9127 50.6141 32.768 50.5768 32.656 50.5021C32.544 50.4181 32.446 50.3014 32.362 50.1521L29.394 44.7761H29.73V51.2721C29.73 51.5334 29.66 51.7388 29.52 51.8881C29.3893 52.0374 29.1887 52.1121 28.918 52.1121ZM43.4383 52.1401C42.6636 52.1401 41.9963 51.9954 41.4363 51.7061C40.8763 51.4168 40.4423 51.0061 40.1343 50.4741C39.8356 49.9421 39.6863 49.3121 39.6863 48.5841C39.6863 47.8748 39.831 47.2541 40.1203 46.7221C40.419 46.1901 40.825 45.7748 41.3383 45.4761C41.861 45.1681 42.4536 45.0141 43.1163 45.0141C43.6016 45.0141 44.0356 45.0934 44.4183 45.2521C44.8103 45.4108 45.1416 45.6394 45.4123 45.9381C45.6923 46.2368 45.9023 46.6008 46.0423 47.0301C46.1916 47.4501 46.2663 47.9261 46.2663 48.4581C46.2663 48.6261 46.2056 48.7568 46.0843 48.8501C45.9723 48.9341 45.809 48.9761 45.5943 48.9761H41.1003V47.9681H45.0343L44.8103 48.1781C44.8103 47.7488 44.745 47.3894 44.6143 47.1001C44.493 46.8108 44.311 46.5914 44.0683 46.4421C43.835 46.2834 43.541 46.2041 43.1863 46.2041C42.7943 46.2041 42.4583 46.2974 42.1783 46.4841C41.9076 46.6614 41.6976 46.9181 41.5483 47.2541C41.4083 47.5808 41.3383 47.9728 41.3383 48.4301V48.5281C41.3383 49.2934 41.5156 49.8674 41.8703 50.2501C42.2343 50.6234 42.7663 50.8101 43.4663 50.8101C43.709 50.8101 43.9796 50.7821 44.2783 50.7261C44.5863 50.6608 44.8756 50.5534 45.1463 50.4041C45.3423 50.2921 45.515 50.2454 45.6643 50.2641C45.8136 50.2734 45.9303 50.3248 46.0143 50.4181C46.1076 50.5114 46.1636 50.6281 46.1823 50.7681C46.201 50.8988 46.173 51.0341 46.0983 51.1741C46.033 51.3141 45.9163 51.4354 45.7483 51.5381C45.4216 51.7434 45.0436 51.8974 44.6143 52.0001C44.1943 52.0934 43.8023 52.1401 43.4383 52.1401ZM48.5202 52.1121C48.2402 52.1121 48.0255 52.0374 47.8762 51.8881C47.7269 51.7294 47.6522 51.5054 47.6522 51.2161V45.9241C47.6522 45.6348 47.7269 45.4154 47.8762 45.2661C48.0255 45.1168 48.2355 45.0421 48.5062 45.0421C48.7769 45.0421 48.9869 45.1168 49.1362 45.2661C49.2855 45.4154 49.3602 45.6348 49.3602 45.9241V46.8761L49.2062 46.5261C49.4115 46.0314 49.7289 45.6581 50.1582 45.4061C50.5969 45.1448 51.0915 45.0141 51.6422 45.0141C52.1929 45.0141 52.6455 45.1168 53.0002 45.3221C53.3549 45.5274 53.6209 45.8401 53.7982 46.2601C53.9755 46.6708 54.0642 47.1934 54.0642 47.8281V51.2161C54.0642 51.5054 53.9895 51.7294 53.8402 51.8881C53.6909 52.0374 53.4762 52.1121 53.1962 52.1121C52.9162 52.1121 52.6969 52.0374 52.5382 51.8881C52.3889 51.7294 52.3142 51.5054 52.3142 51.2161V47.9121C52.3142 47.3801 52.2115 46.9928 52.0062 46.7501C51.8102 46.5074 51.5022 46.3861 51.0822 46.3861C50.5689 46.3861 50.1582 46.5494 49.8502 46.8761C49.5515 47.1934 49.4022 47.6181 49.4022 48.1501V51.2161C49.4022 51.8134 49.1082 52.1121 48.5202 52.1121ZM58.3196 52.1401C57.7503 52.1401 57.279 52.0374 56.9056 51.8321C56.5323 51.6174 56.2523 51.3001 56.0656 50.8801C55.8883 50.4601 55.7996 49.9374 55.7996 49.3121V45.9241C55.7996 45.6254 55.8743 45.4061 56.0236 45.2661C56.173 45.1168 56.3876 45.0421 56.6676 45.0421C56.9476 45.0421 57.1623 45.1168 57.3116 45.2661C57.4703 45.4061 57.5496 45.6254 57.5496 45.9241V49.3401C57.5496 49.8254 57.6476 50.1848 57.8436 50.4181C58.0396 50.6514 58.3523 50.7681 58.7816 50.7681C59.2483 50.7681 59.631 50.6094 59.9296 50.2921C60.2283 49.9654 60.3776 49.5361 60.3776 49.0041V45.9241C60.3776 45.6254 60.4523 45.4061 60.6016 45.2661C60.751 45.1168 60.9656 45.0421 61.2456 45.0421C61.5256 45.0421 61.7403 45.1168 61.8896 45.2661C62.0483 45.4061 62.1276 45.6254 62.1276 45.9241V51.2161C62.1276 51.8134 61.843 52.1121 61.2736 52.1121C61.003 52.1121 60.793 52.0374 60.6436 51.8881C60.4943 51.7294 60.4196 51.5054 60.4196 51.2161V50.1521L60.6156 50.5721C60.4196 51.0761 60.121 51.4634 59.7196 51.7341C59.3276 52.0048 58.861 52.1401 58.3196 52.1401ZM65.2231 52.0001C64.9804 52.0001 64.7891 51.9348 64.6491 51.8041C64.5184 51.6641 64.4531 51.4774 64.4531 51.2441C64.4531 51.0014 64.5184 50.8194 64.6491 50.6981C64.7891 50.5768 64.9804 50.5161 65.2231 50.5161H66.7911V43.6421H67.6591L65.6011 44.8881C65.4237 44.9908 65.2557 45.0328 65.0971 45.0141C64.9477 44.9861 64.8171 44.9208 64.7051 44.8181C64.6024 44.7061 64.5324 44.5754 64.4951 44.4261C64.4577 44.2768 64.4671 44.1274 64.5231 43.9781C64.5884 43.8194 64.7097 43.6888 64.8871 43.5861L66.8191 42.4241C67.0057 42.3121 67.1924 42.2188 67.3791 42.1441C67.5657 42.0601 67.7384 42.0181 67.8971 42.0181C68.0931 42.0181 68.2564 42.0741 68.3871 42.1861C68.5177 42.2888 68.5831 42.4614 68.5831 42.7041V50.5161H70.0111C70.2537 50.5161 70.4404 50.5768 70.5711 50.6981C70.7111 50.8194 70.7811 51.0014 70.7811 51.2441C70.7811 51.4868 70.7111 51.6734 70.5711 51.8041C70.4404 51.9348 70.2537 52.0001 70.0111 52.0001H65.2231Z" fill="#38455D"/>
<path d="M143.5 34H109.5C102.044 34 96 40.0442 96 47.5C96 54.9558 102.044 61 109.5 61H143.5C150.956 61 157 54.9558 157 47.5C157 40.0442 150.956 34 143.5 34Z" fill="#64728C" fill-opacity="0.07"/>
<path d="M105.918 52.112C105.657 52.112 105.456 52.0373 105.316 51.888C105.176 51.7387 105.106 51.5333 105.106 51.272V42.858C105.106 42.5873 105.181 42.382 105.33 42.242C105.479 42.0927 105.685 42.018 105.946 42.018C106.179 42.018 106.361 42.0647 106.492 42.158C106.632 42.242 106.758 42.3913 106.87 42.606L110.328 49.004H109.88L113.338 42.606C113.45 42.3913 113.571 42.242 113.702 42.158C113.833 42.0647 114.015 42.018 114.248 42.018C114.509 42.018 114.71 42.0927 114.85 42.242C114.99 42.382 115.06 42.5873 115.06 42.858V51.272C115.06 51.5333 114.99 51.7387 114.85 51.888C114.719 52.0373 114.519 52.112 114.248 52.112C113.987 52.112 113.786 52.0373 113.646 51.888C113.506 51.7387 113.436 51.5333 113.436 51.272V44.79H113.744L110.804 50.152C110.711 50.3107 110.613 50.4273 110.51 50.502C110.407 50.5767 110.267 50.614 110.09 50.614C109.913 50.614 109.768 50.5767 109.656 50.502C109.544 50.418 109.446 50.3013 109.362 50.152L106.394 44.776H106.73V51.272C106.73 51.5333 106.66 51.7387 106.52 51.888C106.389 52.0373 106.189 52.112 105.918 52.112ZM120.438 52.14C119.664 52.14 118.996 51.9953 118.436 51.706C117.876 51.4167 117.442 51.006 117.134 50.474C116.836 49.942 116.686 49.312 116.686 48.584C116.686 47.8747 116.831 47.254 117.12 46.722C117.419 46.19 117.825 45.7747 118.338 45.476C118.861 45.168 119.454 45.014 120.116 45.014C120.602 45.014 121.036 45.0933 121.418 45.252C121.81 45.4107 122.142 45.6393 122.412 45.938C122.692 46.2367 122.902 46.6007 123.042 47.03C123.192 47.45 123.266 47.926 123.266 48.458C123.266 48.626 123.206 48.7567 123.084 48.85C122.972 48.934 122.809 48.976 122.594 48.976H118.1V47.968H122.034L121.81 48.178C121.81 47.7487 121.745 47.3893 121.614 47.1C121.493 46.8107 121.311 46.5913 121.068 46.442C120.835 46.2833 120.541 46.204 120.186 46.204C119.794 46.204 119.458 46.2973 119.178 46.484C118.908 46.6613 118.698 46.918 118.548 47.254C118.408 47.5807 118.338 47.9727 118.338 48.43V48.528C118.338 49.2933 118.516 49.8673 118.87 50.25C119.234 50.6233 119.766 50.81 120.466 50.81C120.709 50.81 120.98 50.782 121.278 50.726C121.586 50.6607 121.876 50.5533 122.146 50.404C122.342 50.292 122.515 50.2453 122.664 50.264C122.814 50.2733 122.93 50.3247 123.014 50.418C123.108 50.5113 123.164 50.628 123.182 50.768C123.201 50.8987 123.173 51.034 123.098 51.174C123.033 51.314 122.916 51.4353 122.748 51.538C122.422 51.7433 122.044 51.8973 121.614 52C121.194 52.0933 120.802 52.14 120.438 52.14ZM125.52 52.112C125.24 52.112 125.026 52.0373 124.876 51.888C124.727 51.7293 124.652 51.5053 124.652 51.216V45.924C124.652 45.6347 124.727 45.4153 124.876 45.266C125.026 45.1167 125.236 45.042 125.506 45.042C125.777 45.042 125.987 45.1167 126.136 45.266C126.286 45.4153 126.36 45.6347 126.36 45.924V46.876L126.206 46.526C126.412 46.0313 126.729 45.658 127.158 45.406C127.597 45.1447 128.092 45.014 128.642 45.014C129.193 45.014 129.646 45.1167 130 45.322C130.355 45.5273 130.621 45.84 130.798 46.26C130.976 46.6707 131.064 47.1933 131.064 47.828V51.216C131.064 51.5053 130.99 51.7293 130.84 51.888C130.691 52.0373 130.476 52.112 130.196 52.112C129.916 52.112 129.697 52.0373 129.538 51.888C129.389 51.7293 129.314 51.5053 129.314 51.216V47.912C129.314 47.38 129.212 46.9927 129.006 46.75C128.81 46.5073 128.502 46.386 128.082 46.386C127.569 46.386 127.158 46.5493 126.85 46.876C126.552 47.1933 126.402 47.618 126.402 48.15V51.216C126.402 51.8133 126.108 52.112 125.52 52.112ZM135.32 52.14C134.75 52.14 134.279 52.0373 133.906 51.832C133.532 51.6173 133.252 51.3 133.066 50.88C132.888 50.46 132.8 49.9373 132.8 49.312V45.924C132.8 45.6253 132.874 45.406 133.024 45.266C133.173 45.1167 133.388 45.042 133.668 45.042C133.948 45.042 134.162 45.1167 134.312 45.266C134.47 45.406 134.55 45.6253 134.55 45.924V49.34C134.55 49.8253 134.648 50.1847 134.844 50.418C135.04 50.6513 135.352 50.768 135.782 50.768C136.248 50.768 136.631 50.6093 136.93 50.292C137.228 49.9653 137.378 49.536 137.378 49.004V45.924C137.378 45.6253 137.452 45.406 137.602 45.266C137.751 45.1167 137.966 45.042 138.246 45.042C138.526 45.042 138.74 45.1167 138.89 45.266C139.048 45.406 139.128 45.6253 139.128 45.924V51.216C139.128 51.8133 138.843 52.112 138.274 52.112C138.003 52.112 137.793 52.0373 137.644 51.888C137.494 51.7293 137.42 51.5053 137.42 51.216V50.152L137.616 50.572C137.42 51.076 137.121 51.4633 136.72 51.734C136.328 52.0047 135.861 52.14 135.32 52.14ZM141.901 52C141.602 52 141.383 51.9347 141.243 51.804C141.112 51.664 141.047 51.4633 141.047 51.202C141.047 51.0433 141.089 50.8893 141.173 50.74C141.257 50.5907 141.378 50.432 141.537 50.264L144.351 47.268C144.78 46.82 145.088 46.414 145.275 46.05C145.462 45.6767 145.555 45.3033 145.555 44.93C145.555 44.4633 145.406 44.1087 145.107 43.866C144.818 43.6233 144.393 43.502 143.833 43.502C143.516 43.502 143.198 43.5487 142.881 43.642C142.564 43.726 142.242 43.8753 141.915 44.09C141.747 44.202 141.588 44.2487 141.439 44.23C141.299 44.2113 141.173 44.1507 141.061 44.048C140.958 43.9453 140.888 43.8193 140.851 43.67C140.814 43.5207 140.818 43.3713 140.865 43.222C140.921 43.0633 141.033 42.928 141.201 42.816C141.602 42.5453 142.05 42.34 142.545 42.2C143.049 42.06 143.553 41.99 144.057 41.99C144.766 41.99 145.364 42.0973 145.849 42.312C146.334 42.5267 146.703 42.8393 146.955 43.25C147.207 43.6607 147.333 44.16 147.333 44.748C147.333 45.14 147.268 45.5227 147.137 45.896C147.016 46.2693 146.824 46.6473 146.563 47.03C146.311 47.4127 145.98 47.8187 145.569 48.248L142.937 50.992V50.516H147.053C147.305 50.516 147.496 50.5767 147.627 50.698C147.758 50.8193 147.823 51.0013 147.823 51.244C147.823 51.4867 147.758 51.6733 147.627 51.804C147.496 51.9347 147.305 52 147.053 52H141.901Z" fill="#64728C"/>
<path d="M220.5 34H186.5C179.044 34 173 40.0442 173 47.5C173 54.9558 179.044 61 186.5 61H220.5C227.956 61 234 54.9558 234 47.5C234 40.0442 227.956 34 220.5 34Z" fill="white"/>
<path d="M182.918 52.112C182.657 52.112 182.456 52.0373 182.316 51.888C182.176 51.7387 182.106 51.5333 182.106 51.272V42.858C182.106 42.5873 182.181 42.382 182.33 42.242C182.479 42.0927 182.685 42.018 182.946 42.018C183.179 42.018 183.361 42.0647 183.492 42.158C183.632 42.242 183.758 42.3913 183.87 42.606L187.328 49.004H186.88L190.338 42.606C190.45 42.3913 190.571 42.242 190.702 42.158C190.833 42.0647 191.015 42.018 191.248 42.018C191.509 42.018 191.71 42.0927 191.85 42.242C191.99 42.382 192.06 42.5873 192.06 42.858V51.272C192.06 51.5333 191.99 51.7387 191.85 51.888C191.719 52.0373 191.519 52.112 191.248 52.112C190.987 52.112 190.786 52.0373 190.646 51.888C190.506 51.7387 190.436 51.5333 190.436 51.272V44.79H190.744L187.804 50.152C187.711 50.3107 187.613 50.4273 187.51 50.502C187.407 50.5767 187.267 50.614 187.09 50.614C186.913 50.614 186.768 50.5767 186.656 50.502C186.544 50.418 186.446 50.3013 186.362 50.152L183.394 44.776H183.73V51.272C183.73 51.5333 183.66 51.7387 183.52 51.888C183.389 52.0373 183.189 52.112 182.918 52.112ZM197.438 52.14C196.664 52.14 195.996 51.9953 195.436 51.706C194.876 51.4167 194.442 51.006 194.134 50.474C193.836 49.942 193.686 49.312 193.686 48.584C193.686 47.8747 193.831 47.254 194.12 46.722C194.419 46.19 194.825 45.7747 195.338 45.476C195.861 45.168 196.454 45.014 197.116 45.014C197.602 45.014 198.036 45.0933 198.418 45.252C198.81 45.4107 199.142 45.6393 199.412 45.938C199.692 46.2367 199.902 46.6007 200.042 47.03C200.192 47.45 200.266 47.926 200.266 48.458C200.266 48.626 200.206 48.7567 200.084 48.85C199.972 48.934 199.809 48.976 199.594 48.976H195.1V47.968H199.034L198.81 48.178C198.81 47.7487 198.745 47.3893 198.614 47.1C198.493 46.8107 198.311 46.5913 198.068 46.442C197.835 46.2833 197.541 46.204 197.186 46.204C196.794 46.204 196.458 46.2973 196.178 46.484C195.908 46.6613 195.698 46.918 195.548 47.254C195.408 47.5807 195.338 47.9727 195.338 48.43V48.528C195.338 49.2933 195.516 49.8673 195.87 50.25C196.234 50.6233 196.766 50.81 197.466 50.81C197.709 50.81 197.98 50.782 198.278 50.726C198.586 50.6607 198.876 50.5533 199.146 50.404C199.342 50.292 199.515 50.2453 199.664 50.264C199.814 50.2733 199.93 50.3247 200.014 50.418C200.108 50.5113 200.164 50.628 200.182 50.768C200.201 50.8987 200.173 51.034 200.098 51.174C200.033 51.314 199.916 51.4353 199.748 51.538C199.422 51.7433 199.044 51.8973 198.614 52C198.194 52.0933 197.802 52.14 197.438 52.14ZM202.52 52.112C202.24 52.112 202.026 52.0373 201.876 51.888C201.727 51.7293 201.652 51.5053 201.652 51.216V45.924C201.652 45.6347 201.727 45.4153 201.876 45.266C202.026 45.1167 202.236 45.042 202.506 45.042C202.777 45.042 202.987 45.1167 203.136 45.266C203.286 45.4153 203.36 45.6347 203.36 45.924V46.876L203.206 46.526C203.412 46.0313 203.729 45.658 204.158 45.406C204.597 45.1447 205.092 45.014 205.642 45.014C206.193 45.014 206.646 45.1167 207 45.322C207.355 45.5273 207.621 45.84 207.798 46.26C207.976 46.6707 208.064 47.1933 208.064 47.828V51.216C208.064 51.5053 207.99 51.7293 207.84 51.888C207.691 52.0373 207.476 52.112 207.196 52.112C206.916 52.112 206.697 52.0373 206.538 51.888C206.389 51.7293 206.314 51.5053 206.314 51.216V47.912C206.314 47.38 206.212 46.9927 206.006 46.75C205.81 46.5073 205.502 46.386 205.082 46.386C204.569 46.386 204.158 46.5493 203.85 46.876C203.552 47.1933 203.402 47.618 203.402 48.15V51.216C203.402 51.8133 203.108 52.112 202.52 52.112ZM212.32 52.14C211.75 52.14 211.279 52.0373 210.906 51.832C210.532 51.6173 210.252 51.3 210.066 50.88C209.888 50.46 209.8 49.9373 209.8 49.312V45.924C209.8 45.6253 209.874 45.406 210.024 45.266C210.173 45.1167 210.388 45.042 210.668 45.042C210.948 45.042 211.162 45.1167 211.312 45.266C211.47 45.406 211.55 45.6253 211.55 45.924V49.34C211.55 49.8253 211.648 50.1847 211.844 50.418C212.04 50.6513 212.352 50.768 212.782 50.768C213.248 50.768 213.631 50.6093 213.93 50.292C214.228 49.9653 214.378 49.536 214.378 49.004V45.924C214.378 45.6253 214.452 45.406 214.602 45.266C214.751 45.1167 214.966 45.042 215.246 45.042C215.526 45.042 215.74 45.1167 215.89 45.266C216.048 45.406 216.128 45.6253 216.128 45.924V51.216C216.128 51.8133 215.843 52.112 215.274 52.112C215.003 52.112 214.793 52.0373 214.644 51.888C214.494 51.7293 214.42 51.5053 214.42 51.216V50.152L214.616 50.572C214.42 51.076 214.121 51.4633 213.72 51.734C213.328 52.0047 212.861 52.14 212.32 52.14ZM221.043 52.14C220.539 52.14 220.016 52.0747 219.475 51.944C218.934 51.8133 218.462 51.6173 218.061 51.356C217.874 51.2347 217.748 51.0947 217.683 50.936C217.618 50.7773 217.599 50.628 217.627 50.488C217.664 50.3387 217.734 50.2127 217.837 50.11C217.949 50.0073 218.084 49.9467 218.243 49.928C218.411 49.9093 218.593 49.9513 218.789 50.054C219.172 50.2593 219.54 50.4087 219.895 50.502C220.25 50.586 220.614 50.628 220.987 50.628C221.398 50.628 221.743 50.572 222.023 50.46C222.303 50.348 222.513 50.18 222.653 49.956C222.802 49.732 222.877 49.4613 222.877 49.144C222.877 48.6773 222.718 48.332 222.401 48.108C222.093 47.8747 221.64 47.758 221.043 47.758H220.147C219.886 47.758 219.685 47.6927 219.545 47.562C219.414 47.4313 219.349 47.2493 219.349 47.016C219.349 46.7827 219.414 46.6007 219.545 46.47C219.685 46.3393 219.886 46.274 220.147 46.274H220.875C221.23 46.274 221.533 46.218 221.785 46.106C222.037 45.9847 222.233 45.8167 222.373 45.602C222.513 45.3873 222.583 45.126 222.583 44.818C222.583 44.3887 222.438 44.062 222.149 43.838C221.869 43.614 221.458 43.502 220.917 43.502C220.572 43.502 220.245 43.544 219.937 43.628C219.638 43.7027 219.307 43.8473 218.943 44.062C218.775 44.1647 218.612 44.2067 218.453 44.188C218.304 44.1693 218.178 44.1087 218.075 44.006C217.972 43.9033 217.902 43.782 217.865 43.642C217.828 43.4927 217.837 43.3433 217.893 43.194C217.949 43.0353 218.066 42.9 218.243 42.788C218.644 42.5267 219.088 42.3307 219.573 42.2C220.058 42.06 220.558 41.99 221.071 41.99C221.752 41.99 222.336 42.0973 222.821 42.312C223.306 42.5173 223.675 42.816 223.927 43.208C224.188 43.5907 224.319 44.0573 224.319 44.608C224.319 45 224.244 45.3593 224.095 45.686C223.946 46.0033 223.736 46.274 223.465 46.498C223.194 46.722 222.868 46.8807 222.485 46.974V46.806C223.157 46.918 223.68 47.198 224.053 47.646C224.426 48.0847 224.613 48.6353 224.613 49.298C224.613 49.8767 224.468 50.3807 224.179 50.81C223.89 51.2393 223.479 51.5707 222.947 51.804C222.415 52.028 221.78 52.14 221.043 52.14Z" fill="#64728C"/>
<path d="M297.5 34H263.5C256.044 34 250 40.0442 250 47.5C250 54.9558 256.044 61 263.5 61H297.5C304.956 61 311 54.9558 311 47.5C311 40.0442 304.956 34 297.5 34Z" fill="white"/>
<path d="M259.918 52.1121C259.657 52.1121 259.456 52.0374 259.316 51.8881C259.176 51.7388 259.106 51.5334 259.106 51.2721V42.8581C259.106 42.5874 259.181 42.3821 259.33 42.2421C259.479 42.0928 259.685 42.0181 259.946 42.0181C260.179 42.0181 260.361 42.0648 260.492 42.1581C260.632 42.2421 260.758 42.3914 260.87 42.6061L264.328 49.0041H263.88L267.338 42.6061C267.45 42.3914 267.571 42.2421 267.702 42.1581C267.833 42.0648 268.015 42.0181 268.248 42.0181C268.509 42.0181 268.71 42.0928 268.85 42.2421C268.99 42.3821 269.06 42.5874 269.06 42.8581V51.2721C269.06 51.5334 268.99 51.7388 268.85 51.8881C268.719 52.0374 268.519 52.1121 268.248 52.1121C267.987 52.1121 267.786 52.0374 267.646 51.8881C267.506 51.7388 267.436 51.5334 267.436 51.2721V44.7901H267.744L264.804 50.1521C264.711 50.3108 264.613 50.4274 264.51 50.5021C264.407 50.5768 264.267 50.6141 264.09 50.6141C263.913 50.6141 263.768 50.5768 263.656 50.5021C263.544 50.4181 263.446 50.3014 263.362 50.1521L260.394 44.7761H260.73V51.2721C260.73 51.5334 260.66 51.7388 260.52 51.8881C260.389 52.0374 260.189 52.1121 259.918 52.1121ZM274.438 52.1401C273.664 52.1401 272.996 51.9954 272.436 51.7061C271.876 51.4168 271.442 51.0061 271.134 50.4741C270.836 49.9421 270.686 49.3121 270.686 48.5841C270.686 47.8748 270.831 47.2541 271.12 46.7221C271.419 46.1901 271.825 45.7748 272.338 45.4761C272.861 45.1681 273.454 45.0141 274.116 45.0141C274.602 45.0141 275.036 45.0934 275.418 45.2521C275.81 45.4108 276.142 45.6394 276.412 45.9381C276.692 46.2368 276.902 46.6008 277.042 47.0301C277.192 47.4501 277.266 47.9261 277.266 48.4581C277.266 48.6261 277.206 48.7568 277.084 48.8501C276.972 48.9341 276.809 48.9761 276.594 48.9761H272.1V47.9681H276.034L275.81 48.1781C275.81 47.7488 275.745 47.3894 275.614 47.1001C275.493 46.8108 275.311 46.5914 275.068 46.4421C274.835 46.2834 274.541 46.2041 274.186 46.2041C273.794 46.2041 273.458 46.2974 273.178 46.4841C272.908 46.6614 272.698 46.9181 272.548 47.2541C272.408 47.5808 272.338 47.9728 272.338 48.4301V48.5281C272.338 49.2934 272.516 49.8674 272.87 50.2501C273.234 50.6234 273.766 50.8101 274.466 50.8101C274.709 50.8101 274.98 50.7821 275.278 50.7261C275.586 50.6608 275.876 50.5534 276.146 50.4041C276.342 50.2921 276.515 50.2454 276.664 50.2641C276.814 50.2734 276.93 50.3248 277.014 50.4181C277.108 50.5114 277.164 50.6281 277.182 50.7681C277.201 50.8988 277.173 51.0341 277.098 51.1741C277.033 51.3141 276.916 51.4354 276.748 51.5381C276.422 51.7434 276.044 51.8974 275.614 52.0001C275.194 52.0934 274.802 52.1401 274.438 52.1401ZM279.52 52.1121C279.24 52.1121 279.026 52.0374 278.876 51.8881C278.727 51.7294 278.652 51.5054 278.652 51.2161V45.9241C278.652 45.6348 278.727 45.4154 278.876 45.2661C279.026 45.1168 279.236 45.0421 279.506 45.0421C279.777 45.0421 279.987 45.1168 280.136 45.2661C280.286 45.4154 280.36 45.6348 280.36 45.9241V46.8761L280.206 46.5261C280.412 46.0314 280.729 45.6581 281.158 45.4061C281.597 45.1448 282.092 45.0141 282.642 45.0141C283.193 45.0141 283.646 45.1168 284 45.3221C284.355 45.5274 284.621 45.8401 284.798 46.2601C284.976 46.6708 285.064 47.1934 285.064 47.8281V51.2161C285.064 51.5054 284.99 51.7294 284.84 51.8881C284.691 52.0374 284.476 52.1121 284.196 52.1121C283.916 52.1121 283.697 52.0374 283.538 51.8881C283.389 51.7294 283.314 51.5054 283.314 51.2161V47.9121C283.314 47.3801 283.212 46.9928 283.006 46.7501C282.81 46.5074 282.502 46.3861 282.082 46.3861C281.569 46.3861 281.158 46.5494 280.85 46.8761C280.552 47.1934 280.402 47.6181 280.402 48.1501V51.2161C280.402 51.8134 280.108 52.1121 279.52 52.1121ZM289.32 52.1401C288.75 52.1401 288.279 52.0374 287.906 51.8321C287.532 51.6174 287.252 51.3001 287.066 50.8801C286.888 50.4601 286.8 49.9374 286.8 49.3121V45.9241C286.8 45.6254 286.874 45.4061 287.024 45.2661C287.173 45.1168 287.388 45.0421 287.668 45.0421C287.948 45.0421 288.162 45.1168 288.312 45.2661C288.47 45.4061 288.55 45.6254 288.55 45.9241V49.3401C288.55 49.8254 288.648 50.1848 288.844 50.4181C289.04 50.6514 289.352 50.7681 289.782 50.7681C290.248 50.7681 290.631 50.6094 290.93 50.2921C291.228 49.9654 291.378 49.5361 291.378 49.0041V45.9241C291.378 45.6254 291.452 45.4061 291.602 45.2661C291.751 45.1168 291.966 45.0421 292.246 45.0421C292.526 45.0421 292.74 45.1168 292.89 45.2661C293.048 45.4061 293.128 45.6254 293.128 45.9241V51.2161C293.128 51.8134 292.843 52.1121 292.274 52.1121C292.003 52.1121 291.793 52.0374 291.644 51.8881C291.494 51.7294 291.42 51.5054 291.42 51.2161V50.1521L291.616 50.5721C291.42 51.0761 291.121 51.4634 290.72 51.7341C290.328 52.0048 289.861 52.1401 289.32 52.1401ZM299.821 52.1121C299.541 52.1121 299.322 52.0374 299.163 51.8881C299.004 51.7294 298.925 51.5054 298.925 51.2161V50.1241H295.467C295.178 50.1241 294.944 50.0634 294.767 49.9421C294.599 49.8208 294.515 49.6294 294.515 49.3681C294.515 49.2188 294.552 49.0554 294.627 48.8781C294.711 48.7008 294.856 48.4674 295.061 48.1781L298.897 42.6201C299.028 42.4241 299.172 42.2748 299.331 42.1721C299.49 42.0694 299.672 42.0181 299.877 42.0181C300.12 42.0181 300.32 42.0928 300.479 42.2421C300.638 42.3821 300.717 42.6061 300.717 42.9141V48.6401H301.403C301.674 48.6401 301.874 48.7054 302.005 48.8361C302.145 48.9574 302.215 49.1394 302.215 49.3821C302.215 49.6248 302.145 49.8114 302.005 49.9421C301.874 50.0634 301.674 50.1241 301.403 50.1241H300.717V51.2161C300.717 51.5054 300.638 51.7294 300.479 51.8881C300.32 52.0374 300.101 52.1121 299.821 52.1121ZM298.925 48.6401V44.2721H299.331L296.027 49.1161V48.6401H298.925Z" fill="#64728C"/>
<path d="M54.5 62H29.5C28.1193 62 27 63.1193 27 64.5C27 65.8807 28.1193 67 29.5 67H54.5C55.8807 67 57 65.8807 57 64.5C57 63.1193 55.8807 62 54.5 62Z" fill="#FE5000"/>
</g>
<rect x="25.5" y="111.5" width="300" height="43" rx="9.5" fill="white" stroke="#E8EAEF"/>
<path d="M28.732 103.096C28.484 103.096 28.292 103.028 28.156 102.892C28.028 102.748 27.964 102.552 27.964 102.304V95.824H25.624C25.416 95.824 25.252 95.768 25.132 95.656C25.02 95.536 24.964 95.376 24.964 95.176C24.964 94.968 25.02 94.812 25.132 94.708C25.252 94.596 25.416 94.54 25.624 94.54H31.84C32.048 94.54 32.208 94.596 32.32 94.708C32.44 94.812 32.5 94.968 32.5 95.176C32.5 95.376 32.44 95.536 32.32 95.656C32.208 95.768 32.048 95.824 31.84 95.824H29.5V102.304C29.5 102.552 29.436 102.748 29.308 102.892C29.18 103.028 28.988 103.096 28.732 103.096ZM34.6334 103.084C34.3934 103.084 34.2094 103.012 34.0814 102.868C33.9534 102.724 33.8894 102.524 33.8894 102.268V97.864C33.8894 97.6 33.9534 97.4 34.0814 97.264C34.2094 97.12 34.3934 97.048 34.6334 97.048C34.8734 97.048 35.0574 97.12 35.1854 97.264C35.3214 97.4 35.3894 97.6 35.3894 97.864V102.268C35.3894 102.524 35.3254 102.724 35.1974 102.868C35.0694 103.012 34.8814 103.084 34.6334 103.084ZM34.6334 95.932C34.3534 95.932 34.1334 95.864 33.9734 95.728C33.8214 95.584 33.7454 95.388 33.7454 95.14C33.7454 94.884 33.8214 94.688 33.9734 94.552C34.1334 94.416 34.3534 94.348 34.6334 94.348C34.9214 94.348 35.1414 94.416 35.2934 94.552C35.4454 94.688 35.5214 94.884 35.5214 95.14C35.5214 95.388 35.4454 95.584 35.2934 95.728C35.1414 95.864 34.9214 95.932 34.6334 95.932ZM37.716 103.096C37.476 103.096 37.292 103.032 37.164 102.904C37.036 102.768 36.972 102.576 36.972 102.328V97.792C36.972 97.544 37.036 97.356 37.164 97.228C37.292 97.1 37.472 97.036 37.704 97.036C37.936 97.036 38.116 97.1 38.244 97.228C38.372 97.356 38.436 97.544 38.436 97.792V98.668L38.304 98.308C38.464 97.908 38.712 97.592 39.048 97.36C39.384 97.128 39.784 97.012 40.248 97.012C40.72 97.012 41.108 97.124 41.412 97.348C41.716 97.572 41.928 97.916 42.048 98.38H41.88C42.04 97.956 42.304 97.624 42.672 97.384C43.04 97.136 43.464 97.012 43.944 97.012C44.392 97.012 44.76 97.1 45.048 97.276C45.344 97.452 45.564 97.72 45.708 98.08C45.852 98.432 45.924 98.88 45.924 99.424V102.328C45.924 102.576 45.856 102.768 45.72 102.904C45.592 103.032 45.408 103.096 45.168 103.096C44.928 103.096 44.744 103.032 44.616 102.904C44.488 102.768 44.424 102.576 44.424 102.328V99.484C44.424 99.036 44.348 98.708 44.196 98.5C44.052 98.292 43.804 98.188 43.452 98.188C43.06 98.188 42.752 98.328 42.528 98.608C42.304 98.88 42.192 99.26 42.192 99.748V102.328C42.192 102.576 42.128 102.768 42 102.904C41.872 103.032 41.688 103.096 41.448 103.096C41.208 103.096 41.02 103.032 40.884 102.904C40.756 102.768 40.692 102.576 40.692 102.328V99.484C40.692 99.036 40.616 98.708 40.464 98.5C40.32 98.292 40.076 98.188 39.732 98.188C39.34 98.188 39.032 98.328 38.808 98.608C38.584 98.88 38.472 99.26 38.472 99.748V102.328C38.472 102.84 38.22 103.096 37.716 103.096ZM50.3634 103.12C49.6994 103.12 49.1274 102.996 48.6474 102.748C48.1674 102.5 47.7954 102.148 47.5314 101.692C47.2754 101.236 47.1474 100.696 47.1474 100.072C47.1474 99.464 47.2714 98.932 47.5194 98.476C47.7754 98.02 48.1234 97.664 48.5634 97.408C49.0114 97.144 49.5194 97.012 50.0874 97.012C50.5034 97.012 50.8754 97.08 51.2034 97.216C51.5394 97.352 51.8234 97.548 52.0554 97.804C52.2954 98.06 52.4754 98.372 52.5954 98.74C52.7234 99.1 52.7874 99.508 52.7874 99.964C52.7874 100.108 52.7354 100.22 52.6314 100.3C52.5354 100.372 52.3954 100.408 52.2114 100.408H48.3594V99.544H51.7314L51.5394 99.724C51.5394 99.356 51.4834 99.048 51.3714 98.8C51.2674 98.552 51.1114 98.364 50.9034 98.236C50.7034 98.1 50.4514 98.032 50.1474 98.032C49.8114 98.032 49.5234 98.112 49.2834 98.272C49.0514 98.424 48.8714 98.644 48.7434 98.932C48.6234 99.212 48.5634 99.548 48.5634 99.94V100.024C48.5634 100.68 48.7154 101.172 49.0194 101.5C49.3314 101.82 49.7874 101.98 50.3874 101.98C50.5954 101.98 50.8274 101.956 51.0834 101.908C51.3474 101.852 51.5954 101.76 51.8274 101.632C51.9954 101.536 52.1434 101.496 52.2714 101.512C52.3994 101.52 52.4994 101.564 52.5714 101.644C52.6514 101.724 52.6994 101.824 52.7154 101.944C52.7314 102.056 52.7074 102.172 52.6434 102.292C52.5874 102.412 52.4874 102.516 52.3434 102.604C52.0634 102.78 51.7394 102.912 51.3714 103C51.0114 103.08 50.6754 103.12 50.3634 103.12Z" fill="#64728C"/>
<path d="M40.536 137.084C40.376 137.084 40.252 137.04 40.164 136.952C40.084 136.856 40.044 136.728 40.044 136.568V128.972C40.044 128.804 40.084 128.676 40.164 128.588C40.252 128.5 40.376 128.456 40.536 128.456C40.696 128.456 40.816 128.5 40.896 128.588C40.984 128.676 41.028 128.804 41.028 128.972V132.284H46.104V128.972C46.104 128.804 46.144 128.676 46.224 128.588C46.312 128.5 46.436 128.456 46.596 128.456C46.756 128.456 46.876 128.5 46.956 128.588C47.044 128.676 47.088 128.804 47.088 128.972V136.568C47.088 136.728 47.044 136.856 46.956 136.952C46.876 137.04 46.756 137.084 46.596 137.084C46.436 137.084 46.312 137.04 46.224 136.952C46.144 136.856 46.104 136.728 46.104 136.568V133.136H41.028V136.568C41.028 136.728 40.988 136.856 40.908 136.952C40.828 137.04 40.704 137.084 40.536 137.084ZM49.6649 137.084C49.5049 137.084 49.3809 137.04 49.2929 136.952C49.2129 136.856 49.1729 136.728 49.1729 136.568V128.972C49.1729 128.804 49.2129 128.676 49.2929 128.588C49.3809 128.5 49.5049 128.456 49.6649 128.456C49.8249 128.456 49.9449 128.5 50.0249 128.588C50.1129 128.676 50.1569 128.804 50.1569 128.972V132.284H55.2329V128.972C55.2329 128.804 55.2729 128.676 55.3529 128.588C55.4409 128.5 55.5649 128.456 55.7249 128.456C55.8849 128.456 56.0049 128.5 56.0849 128.588C56.1729 128.676 56.2169 128.804 56.2169 128.972V136.568C56.2169 136.728 56.1729 136.856 56.0849 136.952C56.0049 137.04 55.8849 137.084 55.7249 137.084C55.5649 137.084 55.4409 137.04 55.3529 136.952C55.2729 136.856 55.2329 136.728 55.2329 136.568V133.136H50.1569V136.568C50.1569 136.728 50.1169 136.856 50.0369 136.952C49.9569 137.04 49.8329 137.084 49.6649 137.084ZM58.6378 137.048C58.4378 137.048 58.2778 136.988 58.1578 136.868C58.0378 136.74 57.9778 136.58 57.9778 136.388C57.9778 136.196 58.0378 136.04 58.1578 135.92C58.2778 135.792 58.4378 135.728 58.6378 135.728C58.8378 135.728 58.9938 135.792 59.1058 135.92C59.2258 136.04 59.2858 136.196 59.2858 136.388C59.2858 136.58 59.2258 136.74 59.1058 136.868C58.9938 136.988 58.8378 137.048 58.6378 137.048ZM58.6378 132.44C58.4378 132.44 58.2778 132.376 58.1578 132.248C58.0378 132.12 57.9778 131.964 57.9778 131.78C57.9778 131.58 58.0378 131.42 58.1578 131.3C58.2778 131.18 58.4378 131.12 58.6378 131.12C58.8378 131.12 58.9938 131.18 59.1058 131.3C59.2258 131.42 59.2858 131.58 59.2858 131.78C59.2858 131.964 59.2258 132.12 59.1058 132.248C58.9938 132.376 58.8378 132.44 58.6378 132.44ZM61.5123 137.084C61.3683 137.084 61.2563 137.044 61.1763 136.964C61.0963 136.876 61.0563 136.756 61.0563 136.604V128.936C61.0563 128.776 61.0963 128.656 61.1763 128.576C61.2563 128.496 61.3683 128.456 61.5123 128.456C61.6403 128.456 61.7403 128.484 61.8123 128.54C61.8923 128.588 61.9643 128.672 62.0283 128.792L65.3163 134.984H64.9563L68.2323 128.792C68.2963 128.672 68.3643 128.588 68.4363 128.54C68.5083 128.484 68.6123 128.456 68.7483 128.456C68.8843 128.456 68.9923 128.496 69.0723 128.576C69.1523 128.656 69.1923 128.776 69.1923 128.936V136.604C69.1923 136.756 69.1523 136.876 69.0723 136.964C69.0003 137.044 68.8883 137.084 68.7363 137.084C68.5923 137.084 68.4803 137.044 68.4003 136.964C68.3203 136.876 68.2803 136.756 68.2803 136.604V129.86H68.5683L65.5683 135.488C65.5123 135.592 65.4523 135.668 65.3883 135.716C65.3323 135.756 65.2483 135.776 65.1363 135.776C65.0243 135.776 64.9363 135.752 64.8723 135.704C64.8083 135.656 64.7523 135.584 64.7043 135.488L61.6683 129.848H61.9563V136.604C61.9563 136.756 61.9163 136.876 61.8363 136.964C61.7643 137.044 61.6563 137.084 61.5123 137.084ZM71.7779 137.084C71.6339 137.084 71.5219 137.044 71.4419 136.964C71.3619 136.876 71.3219 136.756 71.3219 136.604V128.936C71.3219 128.776 71.3619 128.656 71.4419 128.576C71.5219 128.496 71.6339 128.456 71.7779 128.456C71.9059 128.456 72.0059 128.484 72.0779 128.54C72.1579 128.588 72.2299 128.672 72.2939 128.792L75.5819 134.984H75.2219L78.4979 128.792C78.5619 128.672 78.6299 128.588 78.7019 128.54C78.7739 128.484 78.8779 128.456 79.0139 128.456C79.1499 128.456 79.2579 128.496 79.3379 128.576C79.4179 128.656 79.4579 128.776 79.4579 128.936V136.604C79.4579 136.756 79.4179 136.876 79.3379 136.964C79.2659 137.044 79.1539 137.084 79.0019 137.084C78.8579 137.084 78.7459 137.044 78.6659 136.964C78.5859 136.876 78.5459 136.756 78.5459 136.604V129.86H78.8339L75.8339 135.488C75.7779 135.592 75.7179 135.668 75.6539 135.716C75.5979 135.756 75.5139 135.776 75.4019 135.776C75.2899 135.776 75.2019 135.752 75.1379 135.704C75.0739 135.656 75.0179 135.584 74.9699 135.488L71.9339 129.848H72.2219V136.604C72.2219 136.756 72.1819 136.876 72.1019 136.964C72.0299 137.044 71.9219 137.084 71.7779 137.084Z" fill="#929BAA"/>
<rect x="25.5" y="191.5" width="299" height="43" rx="9.5" fill="white" stroke="#E8EAEF"/>
<path d="M29.716 183.12C28.9 183.12 28.184 182.94 27.568 182.58C26.96 182.22 26.488 181.716 26.152 181.068C25.816 180.412 25.648 179.644 25.648 178.764C25.648 178.1 25.744 177.504 25.936 176.976C26.128 176.44 26.4 175.984 26.752 175.608C27.112 175.224 27.54 174.932 28.036 174.732C28.54 174.524 29.1 174.42 29.716 174.42C30.54 174.42 31.256 174.6 31.864 174.96C32.472 175.312 32.944 175.812 33.28 176.46C33.616 177.108 33.784 177.872 33.784 178.752C33.784 179.416 33.688 180.016 33.496 180.552C33.304 181.088 33.028 181.548 32.668 181.932C32.316 182.316 31.888 182.612 31.384 182.82C30.888 183.02 30.332 183.12 29.716 183.12ZM29.716 181.8C30.236 181.8 30.676 181.68 31.036 181.44C31.404 181.2 31.684 180.852 31.876 180.396C32.076 179.94 32.176 179.396 32.176 178.764C32.176 177.804 31.96 177.06 31.528 176.532C31.104 176.004 30.5 175.74 29.716 175.74C29.204 175.74 28.764 175.86 28.396 176.1C28.028 176.332 27.744 176.676 27.544 177.132C27.352 177.58 27.256 178.124 27.256 178.764C27.256 179.716 27.472 180.46 27.904 180.996C28.336 181.532 28.94 181.8 29.716 181.8ZM36.3539 183.096C36.1139 183.096 35.9259 183.032 35.7899 182.904C35.6619 182.768 35.5979 182.576 35.5979 182.328V178.26H35.0459C34.8539 178.26 34.7059 178.212 34.6019 178.116C34.4979 178.012 34.4459 177.872 34.4459 177.696C34.4459 177.512 34.4979 177.372 34.6019 177.276C34.7059 177.18 34.8539 177.132 35.0459 177.132H36.0299L35.5979 177.528V177.12C35.5979 176.296 35.8059 175.68 36.2219 175.272C36.6379 174.856 37.2379 174.612 38.0219 174.54L38.4299 174.504C38.5899 174.488 38.7179 174.516 38.8139 174.588C38.9099 174.652 38.9739 174.74 39.0059 174.852C39.0379 174.956 39.0419 175.064 39.0179 175.176C38.9939 175.288 38.9419 175.388 38.8619 175.476C38.7899 175.556 38.6939 175.6 38.5739 175.608L38.4059 175.62C37.9499 175.652 37.6179 175.768 37.4099 175.968C37.2019 176.168 37.0979 176.472 37.0979 176.88V177.324L36.9059 177.132H38.1179C38.3099 177.132 38.4579 177.18 38.5619 177.276C38.6659 177.372 38.7179 177.512 38.7179 177.696C38.7179 177.872 38.6659 178.012 38.5619 178.116C38.4579 178.212 38.3099 178.26 38.1179 178.26H37.0979V182.328C37.0979 182.84 36.8499 183.096 36.3539 183.096ZM40.4554 183.096C40.2154 183.096 40.0274 183.032 39.8914 182.904C39.7634 182.768 39.6994 182.576 39.6994 182.328V178.26H39.1474C38.9554 178.26 38.8074 178.212 38.7034 178.116C38.5994 178.012 38.5474 177.872 38.5474 177.696C38.5474 177.512 38.5994 177.372 38.7034 177.276C38.8074 177.18 38.9554 177.132 39.1474 177.132H40.1314L39.6994 177.528V177.12C39.6994 176.296 39.9074 175.68 40.3234 175.272C40.7394 174.856 41.3394 174.612 42.1234 174.54L42.5314 174.504C42.6914 174.488 42.8194 174.516 42.9154 174.588C43.0114 174.652 43.0754 174.74 43.1074 174.852C43.1394 174.956 43.1434 175.064 43.1194 175.176C43.0954 175.288 43.0434 175.388 42.9634 175.476C42.8914 175.556 42.7954 175.6 42.6754 175.608L42.5074 175.62C42.0514 175.652 41.7194 175.768 41.5114 175.968C41.3034 176.168 41.1994 176.472 41.1994 176.88V177.324L41.0074 177.132H42.2194C42.4114 177.132 42.5594 177.18 42.6634 177.276C42.7674 177.372 42.8194 177.512 42.8194 177.696C42.8194 177.872 42.7674 178.012 42.6634 178.116C42.5594 178.212 42.4114 178.26 42.2194 178.26H41.1994V182.328C41.1994 182.84 40.9514 183.096 40.4554 183.096ZM46.4142 183.12C45.7502 183.12 45.1782 182.996 44.6982 182.748C44.2182 182.5 43.8462 182.148 43.5822 181.692C43.3262 181.236 43.1982 180.696 43.1982 180.072C43.1982 179.464 43.3222 178.932 43.5702 178.476C43.8262 178.02 44.1742 177.664 44.6142 177.408C45.0622 177.144 45.5702 177.012 46.1382 177.012C46.5542 177.012 46.9262 177.08 47.2542 177.216C47.5902 177.352 47.8742 177.548 48.1062 177.804C48.3462 178.06 48.5262 178.372 48.6462 178.74C48.7742 179.1 48.8382 179.508 48.8382 179.964C48.8382 180.108 48.7862 180.22 48.6822 180.3C48.5862 180.372 48.4462 180.408 48.2622 180.408H44.4102V179.544H47.7822L47.5902 179.724C47.5902 179.356 47.5342 179.048 47.4222 178.8C47.3182 178.552 47.1622 178.364 46.9542 178.236C46.7542 178.1 46.5022 178.032 46.1982 178.032C45.8622 178.032 45.5742 178.112 45.3342 178.272C45.1022 178.424 44.9222 178.644 44.7942 178.932C44.6742 179.212 44.6142 179.548 44.6142 179.94V180.024C44.6142 180.68 44.7662 181.172 45.0702 181.5C45.3822 181.82 45.8382 181.98 46.4382 181.98C46.6462 181.98 46.8782 181.956 47.1342 181.908C47.3982 181.852 47.6462 181.76 47.8782 181.632C48.0462 181.536 48.1942 181.496 48.3222 181.512C48.4502 181.52 48.5502 181.564 48.6222 181.644C48.7022 181.724 48.7502 181.824 48.7662 181.944C48.7822 182.056 48.7582 182.172 48.6942 182.292C48.6382 182.412 48.5382 182.516 48.3942 182.604C48.1142 182.78 47.7902 182.912 47.4222 183C47.0622 183.08 46.7262 183.12 46.4142 183.12ZM50.7941 183.096C50.5461 183.096 50.3541 183.032 50.2181 182.904C50.0901 182.768 50.0261 182.576 50.0261 182.328V177.792C50.0261 177.544 50.0901 177.356 50.2181 177.228C50.3461 177.1 50.5261 177.036 50.7581 177.036C50.9901 177.036 51.1701 177.1 51.2981 177.228C51.4261 177.356 51.4901 177.544 51.4901 177.792V178.548H51.3701C51.4821 178.068 51.7021 177.704 52.0301 177.456C52.3581 177.208 52.7941 177.06 53.3381 177.012C53.5061 176.996 53.6381 177.04 53.7341 177.144C53.8381 177.24 53.8981 177.392 53.9141 177.6C53.9301 177.8 53.8821 177.964 53.7701 178.092C53.6661 178.212 53.5061 178.284 53.2901 178.308L53.0261 178.332C52.5381 178.38 52.1701 178.532 51.9221 178.788C51.6741 179.036 51.5501 179.388 51.5501 179.844V182.328C51.5501 182.576 51.4861 182.768 51.3581 182.904C51.2301 183.032 51.0421 183.096 50.7941 183.096ZM58.9431 183C58.6791 183 58.4751 182.932 58.3311 182.796C58.1951 182.652 58.1271 182.448 58.1271 182.184V175.356C58.1271 175.092 58.1951 174.892 58.3311 174.756C58.4751 174.612 58.6791 174.54 58.9431 174.54H63.2271C63.4271 174.54 63.5791 174.592 63.6831 174.696C63.7951 174.8 63.8511 174.948 63.8511 175.14C63.8511 175.34 63.7951 175.496 63.6831 175.608C63.5791 175.712 63.4271 175.764 63.2271 175.764H59.6031V178.092H62.9631C63.1711 178.092 63.3271 178.144 63.4311 178.248C63.5351 178.352 63.5871 178.504 63.5871 178.704C63.5871 178.904 63.5351 179.056 63.4311 179.16C63.3271 179.264 63.1711 179.316 62.9631 179.316H59.6031V181.776H63.2271C63.4271 181.776 63.5791 181.828 63.6831 181.932C63.7951 182.036 63.8511 182.188 63.8511 182.388C63.8511 182.588 63.7951 182.74 63.6831 182.844C63.5791 182.948 63.4271 183 63.2271 183H58.9431ZM65.8873 183.096C65.6473 183.096 65.4633 183.032 65.3353 182.904C65.2073 182.768 65.1433 182.576 65.1433 182.328V177.792C65.1433 177.544 65.2073 177.356 65.3353 177.228C65.4633 177.1 65.6433 177.036 65.8753 177.036C66.1073 177.036 66.2873 177.1 66.4153 177.228C66.5433 177.356 66.6073 177.544 66.6073 177.792V178.608L66.4753 178.308C66.6513 177.884 66.9233 177.564 67.2913 177.348C67.6673 177.124 68.0913 177.012 68.5633 177.012C69.0353 177.012 69.4233 177.1 69.7273 177.276C70.0313 177.452 70.2593 177.72 70.4113 178.08C70.5633 178.432 70.6393 178.88 70.6393 179.424V182.328C70.6393 182.576 70.5753 182.768 70.4473 182.904C70.3193 183.032 70.1353 183.096 69.8953 183.096C69.6553 183.096 69.4673 183.032 69.3313 182.904C69.2033 182.768 69.1393 182.576 69.1393 182.328V179.496C69.1393 179.04 69.0513 178.708 68.8753 178.5C68.7073 178.292 68.4433 178.188 68.0833 178.188C67.6433 178.188 67.2913 178.328 67.0273 178.608C66.7713 178.88 66.6433 179.244 66.6433 179.7V182.328C66.6433 182.84 66.3913 183.096 65.8873 183.096ZM74.4188 183.12C73.9068 183.12 73.4548 182.996 73.0628 182.748C72.6788 182.5 72.3788 182.148 72.1628 181.692C71.9468 181.228 71.8388 180.684 71.8388 180.06C71.8388 179.428 71.9468 178.888 72.1628 178.44C72.3788 177.984 72.6788 177.632 73.0628 177.384C73.4548 177.136 73.9068 177.012 74.4188 177.012C74.9068 177.012 75.3308 177.132 75.6908 177.372C76.0588 177.612 76.3068 177.928 76.4348 178.32H76.3028V175.2C76.3028 174.952 76.3668 174.764 76.4948 174.636C76.6228 174.508 76.8068 174.444 77.0468 174.444C77.2868 174.444 77.4708 174.508 77.5988 174.636C77.7348 174.764 77.8028 174.952 77.8028 175.2V182.328C77.8028 182.576 77.7388 182.768 77.6108 182.904C77.4828 183.032 77.2988 183.096 77.0588 183.096C76.8188 183.096 76.6348 183.032 76.5068 182.904C76.3788 182.768 76.3148 182.576 76.3148 182.328V181.392L76.4468 181.752C76.3268 182.168 76.0828 182.5 75.7148 182.748C75.3468 182.996 74.9148 183.12 74.4188 183.12ZM74.8388 181.98C75.1348 181.98 75.3948 181.908 75.6188 181.764C75.8428 181.62 76.0148 181.408 76.1348 181.128C76.2628 180.84 76.3268 180.484 76.3268 180.06C76.3268 179.42 76.1908 178.944 75.9188 178.632C75.6468 178.312 75.2868 178.152 74.8388 178.152C74.5428 178.152 74.2828 178.224 74.0588 178.368C73.8348 178.504 73.6588 178.716 73.5308 179.004C73.4108 179.284 73.3508 179.636 73.3508 180.06C73.3508 180.692 73.4868 181.172 73.7588 181.5C74.0308 181.82 74.3908 181.98 74.8388 181.98ZM83.5759 183C83.3119 183 83.1079 182.932 82.9639 182.796C82.8279 182.652 82.7599 182.448 82.7599 182.184V175.356C82.7599 175.092 82.8279 174.892 82.9639 174.756C83.1079 174.612 83.3119 174.54 83.5759 174.54H85.9039C87.3199 174.54 88.4119 174.904 89.1799 175.632C89.9559 176.36 90.3439 177.404 90.3439 178.764C90.3439 179.444 90.2439 180.048 90.0439 180.576C89.8519 181.096 89.5639 181.536 89.1799 181.896C88.8039 182.256 88.3399 182.532 87.7879 182.724C87.2439 182.908 86.6159 183 85.9039 183H83.5759ZM84.2959 181.728H85.8079C86.3039 181.728 86.7319 181.668 87.0919 181.548C87.4599 181.42 87.7639 181.236 88.0039 180.996C88.2519 180.748 88.4359 180.44 88.5559 180.072C88.6759 179.696 88.7359 179.26 88.7359 178.764C88.7359 177.772 88.4919 177.032 88.0039 176.544C87.5159 176.056 86.7839 175.812 85.8079 175.812H84.2959V181.728ZM93.6886 183.12C93.2646 183.12 92.8846 183.04 92.5486 182.88C92.2206 182.712 91.9606 182.488 91.7686 182.208C91.5846 181.928 91.4926 181.612 91.4926 181.26C91.4926 180.828 91.6046 180.488 91.8286 180.24C92.0526 179.984 92.4166 179.8 92.9206 179.688C93.4246 179.576 94.1006 179.52 94.9486 179.52H95.5486V180.384H94.9606C94.4646 180.384 94.0686 180.408 93.7726 180.456C93.4766 180.504 93.2646 180.588 93.1366 180.708C93.0166 180.82 92.9566 180.98 92.9566 181.188C92.9566 181.452 93.0486 181.668 93.2326 181.836C93.4166 182.004 93.6726 182.088 94.0006 182.088C94.2646 182.088 94.4966 182.028 94.6966 181.908C94.9046 181.78 95.0686 181.608 95.1886 181.392C95.3086 181.176 95.3686 180.928 95.3686 180.648V179.268C95.3686 178.868 95.2806 178.58 95.1046 178.404C94.9286 178.228 94.6326 178.14 94.2166 178.14C93.9846 178.14 93.7326 178.168 93.4606 178.224C93.1966 178.28 92.9166 178.376 92.6206 178.512C92.4686 178.584 92.3326 178.604 92.2126 178.572C92.1006 178.54 92.0126 178.476 91.9486 178.38C91.8846 178.276 91.8526 178.164 91.8526 178.044C91.8526 177.924 91.8846 177.808 91.9486 177.696C92.0126 177.576 92.1206 177.488 92.2726 177.432C92.6406 177.28 92.9926 177.172 93.3286 177.108C93.6726 177.044 93.9846 177.012 94.2646 177.012C94.8406 177.012 95.3126 177.1 95.6806 177.276C96.0566 177.452 96.3366 177.72 96.5206 178.08C96.7046 178.432 96.7966 178.888 96.7966 179.448V182.328C96.7966 182.576 96.7366 182.768 96.6166 182.904C96.4966 183.032 96.3246 183.096 96.1006 183.096C95.8766 183.096 95.7006 183.032 95.5726 182.904C95.4526 182.768 95.3926 182.576 95.3926 182.328V181.752H95.4886C95.4326 182.032 95.3206 182.276 95.1526 182.484C94.9926 182.684 94.7886 182.84 94.5406 182.952C94.2926 183.064 94.0086 183.12 93.6886 183.12ZM101.007 183.12C100.487 183.12 100.051 183.032 99.6991 182.856C99.3551 182.68 99.0991 182.424 98.9311 182.088C98.7631 181.744 98.6791 181.32 98.6791 180.816V178.26H98.0551C97.8631 178.26 97.7151 178.212 97.6111 178.116C97.5071 178.012 97.4551 177.872 97.4551 177.696C97.4551 177.512 97.5071 177.372 97.6111 177.276C97.7151 177.18 97.8631 177.132 98.0551 177.132H98.6791V176.04C98.6791 175.792 98.7431 175.604 98.8711 175.476C99.0071 175.348 99.1951 175.284 99.4351 175.284C99.6751 175.284 99.8591 175.348 99.9871 175.476C100.115 175.604 100.179 175.792 100.179 176.04V177.132H101.451C101.643 177.132 101.791 177.18 101.895 177.276C101.999 177.372 102.051 177.512 102.051 177.696C102.051 177.872 101.999 178.012 101.895 178.116C101.791 178.212 101.643 178.26 101.451 178.26H100.179V180.732C100.179 181.116 100.263 181.404 100.431 181.596C100.599 181.788 100.871 181.884 101.247 181.884C101.383 181.884 101.503 181.872 101.607 181.848C101.711 181.824 101.803 181.808 101.883 181.8C101.979 181.792 102.059 181.824 102.123 181.896C102.187 181.96 102.219 182.096 102.219 182.304C102.219 182.464 102.191 182.608 102.135 182.736C102.087 182.856 101.995 182.94 101.859 182.988C101.755 183.02 101.619 183.048 101.451 183.072C101.283 183.104 101.135 183.12 101.007 183.12ZM105.758 183.12C105.094 183.12 104.522 182.996 104.042 182.748C103.562 182.5 103.19 182.148 102.926 181.692C102.67 181.236 102.542 180.696 102.542 180.072C102.542 179.464 102.666 178.932 102.914 178.476C103.17 178.02 103.518 177.664 103.958 177.408C104.406 177.144 104.914 177.012 105.482 177.012C105.898 177.012 106.27 177.08 106.598 177.216C106.934 177.352 107.218 177.548 107.45 177.804C107.69 178.06 107.87 178.372 107.99 178.74C108.118 179.1 108.182 179.508 108.182 179.964C108.182 180.108 108.13 180.22 108.026 180.3C107.93 180.372 107.79 180.408 107.606 180.408H103.754V179.544H107.126L106.934 179.724C106.934 179.356 106.878 179.048 106.766 178.8C106.662 178.552 106.506 178.364 106.298 178.236C106.098 178.1 105.846 178.032 105.542 178.032C105.206 178.032 104.918 178.112 104.678 178.272C104.446 178.424 104.266 178.644 104.138 178.932C104.018 179.212 103.958 179.548 103.958 179.94V180.024C103.958 180.68 104.11 181.172 104.414 181.5C104.726 181.82 105.182 181.98 105.782 181.98C105.99 181.98 106.222 181.956 106.478 181.908C106.742 181.852 106.99 181.76 107.222 181.632C107.39 181.536 107.538 181.496 107.666 181.512C107.794 181.52 107.894 181.564 107.966 181.644C108.046 181.724 108.094 181.824 108.11 181.944C108.126 182.056 108.102 182.172 108.038 182.292C107.982 182.412 107.882 182.516 107.738 182.604C107.458 182.78 107.134 182.912 106.766 183C106.406 183.08 106.07 183.12 105.758 183.12Z" fill="#64728C"/>
<path d="M41.208 219.244C41.088 219.244 40.992 219.212 40.92 219.148C40.848 219.084 40.804 218.996 40.788 218.884C40.78 218.78 40.8 218.672 40.848 218.56L41.676 216.7V217.12L39.372 211.768C39.324 211.648 39.308 211.536 39.324 211.432C39.34 211.328 39.388 211.244 39.468 211.18C39.548 211.116 39.66 211.084 39.804 211.084C39.932 211.084 40.032 211.112 40.104 211.168C40.176 211.224 40.24 211.324 40.296 211.468L42.264 216.292H41.94L43.932 211.468C43.996 211.324 44.064 211.224 44.136 211.168C44.208 211.112 44.312 211.084 44.448 211.084C44.576 211.084 44.672 211.116 44.736 211.18C44.808 211.244 44.848 211.328 44.856 211.432C44.872 211.528 44.856 211.636 44.808 211.756L41.736 218.86C41.672 219.004 41.6 219.104 41.52 219.16C41.448 219.216 41.344 219.244 41.208 219.244ZM47.5947 219.244C47.4747 219.244 47.3787 219.212 47.3067 219.148C47.2347 219.084 47.1907 218.996 47.1747 218.884C47.1667 218.78 47.1867 218.672 47.2347 218.56L48.0627 216.7V217.12L45.7587 211.768C45.7107 211.648 45.6947 211.536 45.7107 211.432C45.7267 211.328 45.7747 211.244 45.8547 211.18C45.9347 211.116 46.0467 211.084 46.1907 211.084C46.3187 211.084 46.4187 211.112 46.4907 211.168C46.5627 211.224 46.6267 211.324 46.6827 211.468L48.6507 216.292H48.3267L50.3187 211.468C50.3827 211.324 50.4507 211.224 50.5227 211.168C50.5947 211.112 50.6987 211.084 50.8347 211.084C50.9627 211.084 51.0587 211.116 51.1227 211.18C51.1947 211.244 51.2347 211.328 51.2427 211.432C51.2587 211.528 51.2427 211.636 51.1947 211.756L48.1227 218.86C48.0587 219.004 47.9867 219.104 47.9067 219.16C47.8347 219.216 47.7307 219.244 47.5947 219.244ZM53.9814 219.244C53.8614 219.244 53.7654 219.212 53.6934 219.148C53.6214 219.084 53.5774 218.996 53.5614 218.884C53.5534 218.78 53.5734 218.672 53.6214 218.56L54.4494 216.7V217.12L52.1454 211.768C52.0974 211.648 52.0814 211.536 52.0974 211.432C52.1134 211.328 52.1614 211.244 52.2414 211.18C52.3214 211.116 52.4334 211.084 52.5774 211.084C52.7054 211.084 52.8054 211.112 52.8774 211.168C52.9494 211.224 53.0134 211.324 53.0694 211.468L55.0374 216.292H54.7134L56.7054 211.468C56.7694 211.324 56.8374 211.224 56.9094 211.168C56.9814 211.112 57.0854 211.084 57.2214 211.084C57.3494 211.084 57.4454 211.116 57.5094 211.18C57.5814 211.244 57.6214 211.328 57.6294 211.432C57.6454 211.528 57.6294 211.636 57.5814 211.756L54.5094 218.86C54.4454 219.004 54.3734 219.104 54.2934 219.16C54.2214 219.216 54.1174 219.244 53.9814 219.244ZM60.3682 219.244C60.2482 219.244 60.1522 219.212 60.0802 219.148C60.0082 219.084 59.9642 218.996 59.9482 218.884C59.9402 218.78 59.9602 218.672 60.0082 218.56L60.8362 216.7V217.12L58.5322 211.768C58.4842 211.648 58.4682 211.536 58.4842 211.432C58.5002 211.328 58.5482 211.244 58.6282 211.18C58.7082 211.116 58.8202 211.084 58.9642 211.084C59.0922 211.084 59.1922 211.112 59.2642 211.168C59.3362 211.224 59.4002 211.324 59.4562 211.468L61.4242 216.292H61.1002L63.0922 211.468C63.1562 211.324 63.2242 211.224 63.2962 211.168C63.3682 211.112 63.4722 211.084 63.6082 211.084C63.7362 211.084 63.8322 211.116 63.8962 211.18C63.9682 211.244 64.0082 211.328 64.0162 211.432C64.0322 211.528 64.0162 211.636 63.9682 211.756L60.8962 218.86C60.8322 219.004 60.7602 219.104 60.6802 219.16C60.6082 219.216 60.5042 219.244 60.3682 219.244ZM65.3016 214.204C65.1816 214.204 65.0816 214.168 65.0016 214.096C64.9216 214.016 64.8816 213.92 64.8816 213.808C64.8816 213.688 64.9216 213.592 65.0016 213.52C65.0816 213.44 65.1816 213.4 65.3016 213.4H68.0016C68.1136 213.4 68.2096 213.44 68.2896 213.52C68.3696 213.592 68.4096 213.688 68.4096 213.808C68.4096 213.92 68.3696 214.016 68.2896 214.096C68.2096 214.168 68.1136 214.204 68.0016 214.204H65.3016ZM70.6035 217.084C70.4435 217.084 70.3235 217.04 70.2435 216.952C70.1635 216.864 70.1235 216.74 70.1235 216.58V211.576C70.1235 211.416 70.1635 211.296 70.2435 211.216C70.3235 211.128 70.4395 211.084 70.5915 211.084C70.7435 211.084 70.8595 211.128 70.9395 211.216C71.0275 211.296 71.0715 211.416 71.0715 211.576V212.632L70.9395 212.464C71.0915 212.016 71.3355 211.672 71.6715 211.432C72.0155 211.184 72.4235 211.06 72.8955 211.06C73.3915 211.06 73.7915 211.18 74.0955 211.42C74.4075 211.652 74.6155 212.016 74.7195 212.512H74.5395C74.6835 212.064 74.9395 211.712 75.3075 211.456C75.6835 211.192 76.1195 211.06 76.6155 211.06C77.0555 211.06 77.4155 211.144 77.6955 211.312C77.9835 211.48 78.1995 211.736 78.3435 212.08C78.4875 212.416 78.5595 212.844 78.5595 213.364V216.58C78.5595 216.74 78.5155 216.864 78.4275 216.952C78.3475 217.04 78.2275 217.084 78.0675 217.084C77.9155 217.084 77.7955 217.04 77.7075 216.952C77.6275 216.864 77.5875 216.74 77.5875 216.58V213.412C77.5875 212.876 77.4955 212.484 77.3115 212.236C77.1275 211.98 76.8155 211.852 76.3755 211.852C75.8955 211.852 75.5155 212.02 75.2355 212.356C74.9635 212.684 74.8275 213.132 74.8275 213.7V216.58C74.8275 216.74 74.7835 216.864 74.6955 216.952C74.6155 217.04 74.4955 217.084 74.3355 217.084C74.1835 217.084 74.0635 217.04 73.9755 216.952C73.8955 216.864 73.8555 216.74 73.8555 216.58V213.412C73.8555 212.876 73.7595 212.484 73.5675 212.236C73.3835 211.98 73.0755 211.852 72.6435 211.852C72.1635 211.852 71.7835 212.02 71.5035 212.356C71.2315 212.684 71.0955 213.132 71.0955 213.7V216.58C71.0955 216.916 70.9315 217.084 70.6035 217.084ZM80.8808 217.084C80.7208 217.084 80.6008 217.04 80.5208 216.952C80.4408 216.864 80.4008 216.74 80.4008 216.58V211.576C80.4008 211.416 80.4408 211.296 80.5208 211.216C80.6008 211.128 80.7168 211.084 80.8688 211.084C81.0208 211.084 81.1368 211.128 81.2168 211.216C81.3048 211.296 81.3488 211.416 81.3488 211.576V212.632L81.2168 212.464C81.3688 212.016 81.6128 211.672 81.9488 211.432C82.2928 211.184 82.7008 211.06 83.1728 211.06C83.6688 211.06 84.0688 211.18 84.3728 211.42C84.6848 211.652 84.8928 212.016 84.9968 212.512H84.8168C84.9608 212.064 85.2168 211.712 85.5848 211.456C85.9608 211.192 86.3968 211.06 86.8928 211.06C87.3328 211.06 87.6928 211.144 87.9728 211.312C88.2608 211.48 88.4768 211.736 88.6208 212.08C88.7648 212.416 88.8368 212.844 88.8368 213.364V216.58C88.8368 216.74 88.7928 216.864 88.7048 216.952C88.6248 217.04 88.5048 217.084 88.3448 217.084C88.1928 217.084 88.0728 217.04 87.9848 216.952C87.9048 216.864 87.8648 216.74 87.8648 216.58V213.412C87.8648 212.876 87.7728 212.484 87.5888 212.236C87.4048 211.98 87.0928 211.852 86.6528 211.852C86.1728 211.852 85.7928 212.02 85.5128 212.356C85.2408 212.684 85.1048 213.132 85.1048 213.7V216.58C85.1048 216.74 85.0608 216.864 84.9728 216.952C84.8928 217.04 84.7728 217.084 84.6128 217.084C84.4608 217.084 84.3408 217.04 84.2528 216.952C84.1728 216.864 84.1328 216.74 84.1328 216.58V213.412C84.1328 212.876 84.0368 212.484 83.8448 212.236C83.6608 211.98 83.3528 211.852 82.9208 211.852C82.4408 211.852 82.0608 212.02 81.7808 212.356C81.5088 212.684 81.3728 213.132 81.3728 213.7V216.58C81.3728 216.916 81.2088 217.084 80.8808 217.084ZM90.9422 214.204C90.8222 214.204 90.7222 214.168 90.6422 214.096C90.5622 214.016 90.5222 213.92 90.5222 213.808C90.5222 213.688 90.5622 213.592 90.6422 213.52C90.7222 213.44 90.8222 213.4 90.9422 213.4H93.6422C93.7542 213.4 93.8502 213.44 93.9302 213.52C94.0102 213.592 94.0502 213.688 94.0502 213.808C94.0502 213.92 94.0102 214.016 93.9302 214.096C93.8502 214.168 93.7542 214.204 93.6422 214.204H90.9422ZM98.1359 217.108C97.6159 217.108 97.1599 216.984 96.7679 216.736C96.3839 216.488 96.0839 216.14 95.8679 215.692C95.6599 215.236 95.5559 214.7 95.5559 214.084C95.5559 213.46 95.6599 212.924 95.8679 212.476C96.0839 212.02 96.3839 211.672 96.7679 211.432C97.1599 211.184 97.6159 211.06 98.1359 211.06C98.6639 211.06 99.1159 211.192 99.4919 211.456C99.8679 211.72 100.12 212.076 100.248 212.524H100.116V208.948C100.116 208.788 100.156 208.668 100.236 208.588C100.324 208.5 100.448 208.456 100.608 208.456C100.76 208.456 100.876 208.5 100.956 208.588C101.044 208.668 101.088 208.788 101.088 208.948V216.58C101.088 216.74 101.048 216.864 100.968 216.952C100.888 217.04 100.768 217.084 100.608 217.084C100.456 217.084 100.336 217.04 100.248 216.952C100.168 216.864 100.128 216.74 100.128 216.58V215.44L100.26 215.608C100.132 216.064 99.8759 216.428 99.4919 216.7C99.1159 216.972 98.6639 217.108 98.1359 217.108ZM98.3399 216.328C98.6999 216.328 99.0159 216.24 99.2879 216.064C99.5599 215.888 99.7679 215.632 99.9119 215.296C100.064 214.96 100.14 214.556 100.14 214.084C100.14 213.356 99.9759 212.8 99.6479 212.416C99.3279 212.032 98.8919 211.84 98.3399 211.84C97.9719 211.84 97.6519 211.928 97.3799 212.104C97.1159 212.272 96.9079 212.524 96.7559 212.86C96.6119 213.188 96.5399 213.596 96.5399 214.084C96.5399 214.804 96.7039 215.36 97.0319 215.752C97.3599 216.136 97.7959 216.328 98.3399 216.328ZM105.132 217.108C104.612 217.108 104.156 216.984 103.764 216.736C103.38 216.488 103.08 216.14 102.864 215.692C102.656 215.236 102.552 214.7 102.552 214.084C102.552 213.46 102.656 212.924 102.864 212.476C103.08 212.02 103.38 211.672 103.764 211.432C104.156 211.184 104.612 211.06 105.132 211.06C105.66 211.06 106.112 211.192 106.488 211.456C106.864 211.72 107.116 212.076 107.244 212.524H107.112V208.948C107.112 208.788 107.152 208.668 107.232 208.588C107.32 208.5 107.444 208.456 107.604 208.456C107.756 208.456 107.872 208.5 107.952 208.588C108.04 208.668 108.084 208.788 108.084 208.948V216.58C108.084 216.74 108.044 216.864 107.964 216.952C107.884 217.04 107.764 217.084 107.604 217.084C107.452 217.084 107.332 217.04 107.244 216.952C107.164 216.864 107.124 216.74 107.124 216.58V215.44L107.256 215.608C107.128 216.064 106.872 216.428 106.488 216.7C106.112 216.972 105.66 217.108 105.132 217.108ZM105.336 216.328C105.696 216.328 106.012 216.24 106.284 216.064C106.556 215.888 106.764 215.632 106.908 215.296C107.06 214.96 107.136 214.556 107.136 214.084C107.136 213.356 106.972 212.8 106.644 212.416C106.324 212.032 105.888 211.84 105.336 211.84C104.968 211.84 104.648 211.928 104.376 212.104C104.112 212.272 103.904 212.524 103.752 212.86C103.608 213.188 103.536 213.596 103.536 214.084C103.536 214.804 103.7 215.36 104.028 215.752C104.356 216.136 104.792 216.328 105.336 216.328Z" fill="#929BAA"/>
<rect x="284" y="195" width="36" height="36" rx="10" fill="#F1F2F5"/>
<g clip-path="url(#clip2_1207_13042)">
<path d="M297.638 220C297.677 219.957 297.732 219.975 297.779 219.975C300.589 219.975 303.399 219.975 306.209 219.975C306.257 219.975 306.311 219.957 306.351 220H297.638Z" fill="#222222"/>
<path d="M308.953 209.114C308.822 208.579 308.522 208.095 308.094 207.726C307.71 207.395 307.258 207.156 306.73 207.091C306.522 207.063 306.314 207.048 306.104 207.046C305.791 207.046 305.817 207.071 305.817 206.774C305.817 206.601 305.82 206.429 305.733 206.268C305.621 206.063 305.436 206.004 305.211 206.008C304.992 206.013 304.829 206.094 304.727 206.286C304.631 206.465 304.645 206.655 304.645 206.844C304.645 207.046 304.645 207.047 304.434 207.047C302.814 207.047 301.194 207.047 299.574 207.047C299.561 207.047 299.547 207.047 299.533 207.047C299.384 207.044 299.374 207.035 299.372 206.889C299.372 206.779 299.38 206.672 299.369 206.565C299.35 206.382 299.295 206.214 299.13 206.103C298.938 205.974 298.723 205.977 298.516 206.055C298.304 206.136 298.226 206.32 298.202 206.523C298.187 206.642 298.199 206.764 298.197 206.885C298.195 207.034 298.183 207.049 298.023 207.045C297.783 207.043 297.542 207.057 297.304 207.088C296.975 207.128 296.679 207.253 296.39 207.409C295.953 207.645 295.626 207.975 295.375 208.38C295.108 208.811 295 209.278 295 209.78C295.007 212.303 295.008 214.826 295.002 217.35C295.002 217.699 295.052 218.037 295.194 218.362C295.438 218.913 295.817 219.354 296.357 219.662C296.672 219.844 297.025 219.959 297.391 220H297.637C297.684 219.975 297.735 219.987 297.784 219.987C300.59 219.987 303.396 219.987 306.202 219.987C306.251 219.987 306.302 219.975 306.349 220H306.541C306.725 219.985 306.906 219.951 307.082 219.9C307.834 219.678 308.357 219.211 308.717 218.562C308.881 218.269 308.977 217.946 309 217.614V209.496C308.972 209.37 308.986 209.239 308.953 209.114ZM296.105 210.18C296.114 209.852 296.087 209.524 296.221 209.209C296.351 208.896 296.577 208.626 296.868 208.435C297.193 208.216 297.549 208.179 297.923 208.182C298.239 208.182 298.239 208.182 298.239 208.483C298.239 208.747 298.234 209.01 298.241 209.274C298.247 209.53 298.424 209.733 298.663 209.78C298.78 209.804 298.901 209.791 299.009 209.744C299.118 209.696 299.207 209.617 299.263 209.517C299.31 209.423 299.333 209.32 299.329 209.216C299.329 208.905 299.332 208.596 299.329 208.283C299.329 208.204 299.348 208.18 299.434 208.18C301.149 208.183 302.865 208.183 304.582 208.18C304.665 208.18 304.689 208.2 304.688 208.281C304.683 208.605 304.681 208.929 304.688 209.253C304.697 209.648 305.078 209.898 305.441 209.751C305.672 209.658 305.775 209.481 305.778 209.249C305.781 208.929 305.781 208.61 305.778 208.29C305.778 208.208 305.795 208.178 305.889 208.18C306.196 208.188 306.511 208.154 306.807 208.264C307.439 208.5 307.865 209.023 307.906 209.713C307.917 209.881 307.906 210.05 307.911 210.218C307.914 210.291 307.89 210.312 307.813 210.311C307.508 210.307 307.203 210.311 306.898 210.311H302.009C300.089 210.311 298.169 210.312 296.249 210.313C296.137 210.312 296.102 210.292 296.105 210.18ZM306.7 218.84C306.541 218.882 306.378 218.906 306.214 218.91C303.411 218.91 300.608 218.91 297.805 218.91C297.376 218.915 296.961 218.763 296.647 218.485C296.31 218.193 296.116 217.811 296.114 217.375C296.105 215.413 296.111 213.451 296.107 211.489C296.107 211.369 296.178 211.395 296.246 211.395H302.006C303.926 211.395 305.846 211.394 307.766 211.393C307.879 211.393 307.908 211.418 307.908 211.526C307.904 213.427 307.898 215.329 307.908 217.23C307.915 217.93 307.468 218.654 306.7 218.84Z" fill="#64728C"/>
<path d="M298.752 216.004C298.916 216.004 299.08 215.999 299.244 216.004C299.334 216.009 299.422 216.032 299.502 216.072C299.582 216.112 299.652 216.168 299.707 216.235C299.763 216.303 299.802 216.381 299.823 216.465C299.844 216.548 299.846 216.635 299.828 216.719C299.797 216.888 299.717 217.021 299.577 217.105C299.459 217.178 299.335 217.232 299.186 217.227C298.876 217.214 298.565 217.236 298.256 217.22C297.865 217.2 297.584 216.864 297.68 216.449C297.734 216.213 298.025 216.005 298.231 216.003C298.405 216.003 298.578 216.004 298.752 216.004Z" fill="#64728C"/>
<path d="M305.223 216.004C305.388 216.004 305.552 215.999 305.716 216.004C306.105 216.018 306.385 216.369 306.299 216.757C306.242 217.011 305.964 217.217 305.734 217.221C305.401 217.228 305.068 217.234 304.736 217.221C304.364 217.206 304.083 216.893 304.147 216.496C304.189 216.234 304.48 216.01 304.704 216.005C304.877 216.001 305.05 216.004 305.223 216.004Z" fill="#64728C"/>
<path d="M301.992 216.004C302.152 216.004 302.311 216.001 302.471 216.004C302.835 216.013 303.129 216.335 303.064 216.712C303.036 216.875 302.962 217.007 302.829 217.094C302.708 217.172 302.582 217.231 302.428 217.227C302.114 217.216 301.798 217.227 301.484 217.223C301.244 217.22 300.95 217.001 300.908 216.738C300.862 216.454 300.985 216.199 301.233 216.073C301.336 216.021 301.452 215.997 301.568 216.003C301.709 216.006 301.851 216.004 301.992 216.004Z" fill="#64728C"/>
<path d="M305.264 213.107C305.437 213.107 305.612 213.116 305.785 213.107C306.178 213.084 306.501 213.614 306.281 214.005C306.177 214.192 306.02 214.297 305.812 214.297C305.447 214.302 305.083 214.304 304.715 214.297C304.479 214.292 304.305 214.17 304.219 213.94C304.177 213.837 304.165 213.726 304.183 213.617C304.201 213.508 304.249 213.406 304.321 213.32C304.374 213.248 304.446 213.19 304.529 213.153C304.613 213.115 304.706 213.1 304.798 213.108C304.953 213.114 305.108 213.107 305.264 213.107Z" fill="#64728C"/>
<path d="M298.782 214.299C298.603 214.299 298.425 214.303 298.247 214.299C298.011 214.291 297.835 214.176 297.748 213.948C297.656 213.713 297.699 213.499 297.861 213.303C297.984 213.154 298.133 213.104 298.316 213.107C298.645 213.113 298.975 213.122 299.303 213.105C299.62 213.087 299.885 213.441 299.879 213.713C299.871 214.056 299.642 214.297 299.303 214.3C299.129 214.301 298.955 214.299 298.782 214.299Z" fill="#64728C"/>
<path d="M302.023 213.108C302.206 213.108 302.389 213.115 302.572 213.108C302.851 213.094 303.117 213.44 303.109 213.708C303.103 214.036 302.888 214.291 302.582 214.297C302.212 214.306 301.841 214.304 301.471 214.297C301.246 214.293 301.077 214.178 300.986 213.965C300.94 213.866 300.922 213.757 300.934 213.649C300.946 213.542 300.987 213.439 301.054 213.351C301.175 213.179 301.333 213.095 301.542 213.106C301.703 213.114 301.863 213.107 302.023 213.108Z" fill="#64728C"/>
</g>
<rect x="25.5" y="271.5" width="299" height="43" rx="9.5" fill="white" stroke="#E8EAEF"/>
<path d="M28.84 263.12C28.488 263.12 28.136 263.092 27.784 263.036C27.432 262.988 27.1 262.912 26.788 262.808C26.476 262.696 26.196 262.56 25.948 262.4C25.804 262.304 25.704 262.188 25.648 262.052C25.592 261.916 25.572 261.784 25.588 261.656C25.612 261.52 25.664 261.404 25.744 261.308C25.832 261.204 25.94 261.14 26.068 261.116C26.196 261.092 26.336 261.128 26.488 261.224C26.84 261.432 27.212 261.584 27.604 261.68C27.996 261.776 28.408 261.824 28.84 261.824C29.472 261.824 29.932 261.72 30.22 261.512C30.508 261.296 30.652 261.02 30.652 260.684C30.652 260.404 30.548 260.184 30.34 260.024C30.14 259.864 29.792 259.732 29.296 259.628L27.976 259.352C27.216 259.192 26.648 258.924 26.272 258.548C25.904 258.164 25.72 257.66 25.72 257.036C25.72 256.644 25.8 256.288 25.96 255.968C26.12 255.648 26.344 255.372 26.632 255.14C26.928 254.908 27.276 254.732 27.676 254.612C28.084 254.484 28.532 254.42 29.02 254.42C29.5 254.42 29.956 254.48 30.388 254.6C30.82 254.72 31.208 254.896 31.552 255.128C31.68 255.216 31.764 255.324 31.804 255.452C31.852 255.58 31.864 255.708 31.84 255.836C31.816 255.956 31.76 256.06 31.672 256.148C31.584 256.236 31.472 256.288 31.336 256.304C31.208 256.32 31.06 256.28 30.892 256.184C30.596 256.016 30.296 255.896 29.992 255.824C29.688 255.752 29.36 255.716 29.008 255.716C28.64 255.716 28.324 255.768 28.06 255.872C27.796 255.976 27.592 256.124 27.448 256.316C27.312 256.5 27.244 256.72 27.244 256.976C27.244 257.264 27.34 257.496 27.532 257.672C27.724 257.84 28.052 257.972 28.516 258.068L29.824 258.344C30.616 258.512 31.204 258.776 31.588 259.136C31.98 259.496 32.176 259.976 32.176 260.576C32.176 260.96 32.096 261.308 31.936 261.62C31.784 261.932 31.56 262.2 31.264 262.424C30.976 262.648 30.628 262.82 30.22 262.94C29.812 263.06 29.352 263.12 28.84 263.12ZM35.9797 263.12C35.4597 263.12 35.0237 263.032 34.6717 262.856C34.3277 262.68 34.0717 262.424 33.9037 262.088C33.7357 261.744 33.6517 261.32 33.6517 260.816V258.26H33.0277C32.8357 258.26 32.6877 258.212 32.5837 258.116C32.4797 258.012 32.4277 257.872 32.4277 257.696C32.4277 257.512 32.4797 257.372 32.5837 257.276C32.6877 257.18 32.8357 257.132 33.0277 257.132H33.6517V256.04C33.6517 255.792 33.7157 255.604 33.8437 255.476C33.9797 255.348 34.1677 255.284 34.4077 255.284C34.6477 255.284 34.8317 255.348 34.9597 255.476C35.0877 255.604 35.1517 255.792 35.1517 256.04V257.132H36.4237C36.6157 257.132 36.7637 257.18 36.8677 257.276C36.9717 257.372 37.0237 257.512 37.0237 257.696C37.0237 257.872 36.9717 258.012 36.8677 258.116C36.7637 258.212 36.6157 258.26 36.4237 258.26H35.1517V260.732C35.1517 261.116 35.2357 261.404 35.4037 261.596C35.5717 261.788 35.8437 261.884 36.2197 261.884C36.3557 261.884 36.4757 261.872 36.5797 261.848C36.6837 261.824 36.7757 261.808 36.8557 261.8C36.9517 261.792 37.0317 261.824 37.0957 261.896C37.1597 261.96 37.1917 262.096 37.1917 262.304C37.1917 262.464 37.1637 262.608 37.1077 262.736C37.0597 262.856 36.9677 262.94 36.8317 262.988C36.7277 263.02 36.5917 263.048 36.4237 263.072C36.2557 263.104 36.1077 263.12 35.9797 263.12ZM39.8292 263.12C39.4052 263.12 39.0252 263.04 38.6892 262.88C38.3612 262.712 38.1012 262.488 37.9092 262.208C37.7252 261.928 37.6332 261.612 37.6332 261.26C37.6332 260.828 37.7452 260.488 37.9692 260.24C38.1932 259.984 38.5572 259.8 39.0612 259.688C39.5652 259.576 40.2412 259.52 41.0892 259.52H41.6892V260.384H41.1012C40.6052 260.384 40.2092 260.408 39.9132 260.456C39.6172 260.504 39.4052 260.588 39.2772 260.708C39.1572 260.82 39.0972 260.98 39.0972 261.188C39.0972 261.452 39.1892 261.668 39.3732 261.836C39.5572 262.004 39.8132 262.088 40.1412 262.088C40.4052 262.088 40.6372 262.028 40.8372 261.908C41.0452 261.78 41.2092 261.608 41.3292 261.392C41.4492 261.176 41.5092 260.928 41.5092 260.648V259.268C41.5092 258.868 41.4212 258.58 41.2452 258.404C41.0692 258.228 40.7732 258.14 40.3572 258.14C40.1252 258.14 39.8732 258.168 39.6012 258.224C39.3372 258.28 39.0572 258.376 38.7612 258.512C38.6092 258.584 38.4732 258.604 38.3532 258.572C38.2412 258.54 38.1532 258.476 38.0892 258.38C38.0252 258.276 37.9932 258.164 37.9932 258.044C37.9932 257.924 38.0252 257.808 38.0892 257.696C38.1532 257.576 38.2612 257.488 38.4132 257.432C38.7812 257.28 39.1332 257.172 39.4692 257.108C39.8132 257.044 40.1252 257.012 40.4052 257.012C40.9812 257.012 41.4532 257.1 41.8212 257.276C42.1972 257.452 42.4772 257.72 42.6612 258.08C42.8452 258.432 42.9372 258.888 42.9372 259.448V262.328C42.9372 262.576 42.8772 262.768 42.7572 262.904C42.6372 263.032 42.4652 263.096 42.2412 263.096C42.0172 263.096 41.8412 263.032 41.7132 262.904C41.5932 262.768 41.5332 262.576 41.5332 262.328V261.752H41.6292C41.5732 262.032 41.4612 262.276 41.2932 262.484C41.1332 262.684 40.9292 262.84 40.6812 262.952C40.4332 263.064 40.1492 263.12 39.8292 263.12ZM47.1477 263.12C46.6277 263.12 46.1917 263.032 45.8397 262.856C45.4957 262.68 45.2397 262.424 45.0717 262.088C44.9037 261.744 44.8197 261.32 44.8197 260.816V258.26H44.1957C44.0037 258.26 43.8557 258.212 43.7517 258.116C43.6477 258.012 43.5957 257.872 43.5957 257.696C43.5957 257.512 43.6477 257.372 43.7517 257.276C43.8557 257.18 44.0037 257.132 44.1957 257.132H44.8197V256.04C44.8197 255.792 44.8837 255.604 45.0117 255.476C45.1477 255.348 45.3357 255.284 45.5757 255.284C45.8157 255.284 45.9997 255.348 46.1277 255.476C46.2557 255.604 46.3197 255.792 46.3197 256.04V257.132H47.5917C47.7837 257.132 47.9317 257.18 48.0357 257.276C48.1397 257.372 48.1917 257.512 48.1917 257.696C48.1917 257.872 48.1397 258.012 48.0357 258.116C47.9317 258.212 47.7837 258.26 47.5917 258.26H46.3197V260.732C46.3197 261.116 46.4037 261.404 46.5717 261.596C46.7397 261.788 47.0117 261.884 47.3877 261.884C47.5237 261.884 47.6437 261.872 47.7477 261.848C47.8517 261.824 47.9437 261.808 48.0237 261.8C48.1197 261.792 48.1997 261.824 48.2637 261.896C48.3277 261.96 48.3597 262.096 48.3597 262.304C48.3597 262.464 48.3317 262.608 48.2757 262.736C48.2277 262.856 48.1357 262.94 47.9997 262.988C47.8957 263.02 47.7597 263.048 47.5917 263.072C47.4237 263.104 47.2757 263.12 47.1477 263.12ZM51.1892 263.12C50.7012 263.12 50.2972 263.032 49.9772 262.856C49.6572 262.672 49.4172 262.4 49.2572 262.04C49.1052 261.68 49.0292 261.232 49.0292 260.696V257.792C49.0292 257.536 49.0932 257.348 49.2212 257.228C49.3492 257.1 49.5332 257.036 49.7732 257.036C50.0132 257.036 50.1972 257.1 50.3252 257.228C50.4612 257.348 50.5292 257.536 50.5292 257.792V260.72C50.5292 261.136 50.6132 261.444 50.7812 261.644C50.9492 261.844 51.2172 261.944 51.5852 261.944C51.9852 261.944 52.3132 261.808 52.5692 261.536C52.8252 261.256 52.9532 260.888 52.9532 260.432V257.792C52.9532 257.536 53.0172 257.348 53.1452 257.228C53.2732 257.1 53.4572 257.036 53.6972 257.036C53.9372 257.036 54.1212 257.1 54.2492 257.228C54.3852 257.348 54.4532 257.536 54.4532 257.792V262.328C54.4532 262.84 54.2092 263.096 53.7212 263.096C53.4892 263.096 53.3092 263.032 53.1812 262.904C53.0532 262.768 52.9892 262.576 52.9892 262.328V261.416L53.1572 261.776C52.9892 262.208 52.7332 262.54 52.3892 262.772C52.0532 263.004 51.6532 263.12 51.1892 263.12ZM58.1624 263.12C57.8184 263.12 57.4544 263.084 57.0704 263.012C56.6864 262.94 56.3424 262.816 56.0384 262.64C55.9104 262.56 55.8184 262.468 55.7624 262.364C55.7144 262.252 55.6944 262.144 55.7024 262.04C55.7184 261.928 55.7584 261.832 55.8224 261.752C55.8944 261.672 55.9824 261.62 56.0864 261.596C56.1984 261.572 56.3184 261.592 56.4464 261.656C56.7664 261.808 57.0664 261.916 57.3464 261.98C57.6264 262.036 57.9024 262.064 58.1744 262.064C58.5584 262.064 58.8424 262 59.0264 261.872C59.2184 261.736 59.3144 261.56 59.3144 261.344C59.3144 261.16 59.2504 261.02 59.1224 260.924C59.0024 260.82 58.8184 260.744 58.5704 260.696L57.3704 260.468C56.8744 260.372 56.4944 260.192 56.2304 259.928C55.9744 259.656 55.8464 259.308 55.8464 258.884C55.8464 258.5 55.9504 258.168 56.1584 257.888C56.3744 257.608 56.6704 257.392 57.0464 257.24C57.4224 257.088 57.8544 257.012 58.3424 257.012C58.6944 257.012 59.0224 257.052 59.3264 257.132C59.6384 257.204 59.9384 257.32 60.2264 257.48C60.3464 257.544 60.4264 257.628 60.4664 257.732C60.5144 257.836 60.5264 257.944 60.5024 258.056C60.4784 258.16 60.4304 258.256 60.3584 258.344C60.2864 258.424 60.1944 258.476 60.0824 258.5C59.9784 258.516 59.8584 258.492 59.7224 258.428C59.4744 258.3 59.2344 258.208 59.0024 258.152C58.7784 258.096 58.5624 258.068 58.3544 258.068C57.9624 258.068 57.6704 258.136 57.4784 258.272C57.2944 258.408 57.2024 258.588 57.2024 258.812C57.2024 258.98 57.2584 259.12 57.3704 259.232C57.4824 259.344 57.6544 259.42 57.8864 259.46L59.0864 259.688C59.6064 259.784 59.9984 259.96 60.2624 260.216C60.5344 260.472 60.6704 260.816 60.6704 261.248C60.6704 261.832 60.4424 262.292 59.9864 262.628C59.5304 262.956 58.9224 263.12 58.1624 263.12Z" fill="#64728C"/>
<path d="M40.536 297.084C40.376 297.084 40.252 297.04 40.164 296.952C40.084 296.856 40.044 296.728 40.044 296.568V289.044C40.044 288.876 40.088 288.752 40.176 288.672C40.264 288.584 40.388 288.54 40.548 288.54H43.392C44.296 288.54 44.992 288.764 45.48 289.212C45.968 289.652 46.212 290.276 46.212 291.084C46.212 291.884 45.968 292.508 45.48 292.956C44.992 293.404 44.296 293.628 43.392 293.628H41.028V296.568C41.028 296.728 40.988 296.856 40.908 296.952C40.828 297.04 40.704 297.084 40.536 297.084ZM41.028 292.8H43.272C43.92 292.8 44.408 292.656 44.736 292.368C45.072 292.072 45.24 291.644 45.24 291.084C45.24 290.516 45.072 290.088 44.736 289.8C44.408 289.504 43.92 289.356 43.272 289.356H41.028V292.8ZM49.8759 297.108C49.2599 297.108 48.7279 296.988 48.2799 296.748C47.8399 296.5 47.4959 296.152 47.2479 295.704C47.0079 295.256 46.8879 294.72 46.8879 294.096C46.8879 293.488 47.0079 292.96 47.2479 292.512C47.4879 292.056 47.8159 291.7 48.2319 291.444C48.6559 291.188 49.1439 291.06 49.6959 291.06C50.0879 291.06 50.4399 291.128 50.7519 291.264C51.0639 291.392 51.3279 291.58 51.5439 291.828C51.7679 292.076 51.9359 292.376 52.0479 292.728C52.1679 293.08 52.2279 293.476 52.2279 293.916C52.2279 294.044 52.1919 294.14 52.1199 294.204C52.0479 294.26 51.9439 294.288 51.8079 294.288H47.6319V293.652H51.5799L51.3879 293.808C51.3879 293.376 51.3239 293.012 51.1959 292.716C51.0679 292.412 50.8799 292.18 50.6319 292.02C50.3919 291.86 50.0879 291.78 49.7199 291.78C49.3119 291.78 48.9639 291.876 48.6759 292.068C48.3959 292.252 48.1839 292.512 48.0399 292.848C47.8959 293.176 47.8239 293.56 47.8239 294V294.072C47.8239 294.808 47.9999 295.368 48.3519 295.752C48.7119 296.136 49.2199 296.328 49.8759 296.328C50.1479 296.328 50.4159 296.292 50.6799 296.22C50.9519 296.148 51.2159 296.028 51.4719 295.86C51.5839 295.788 51.6839 295.756 51.7719 295.764C51.8679 295.764 51.9439 295.792 51.9999 295.848C52.0559 295.896 52.0919 295.96 52.1079 296.04C52.1319 296.112 52.1239 296.192 52.0839 296.28C52.0519 296.368 51.9839 296.444 51.8799 296.508C51.6159 296.7 51.3039 296.848 50.9439 296.952C50.5839 297.056 50.2279 297.108 49.8759 297.108ZM54.1147 297.084C53.9547 297.084 53.8347 297.04 53.7547 296.952C53.6747 296.864 53.6347 296.74 53.6347 296.58V291.576C53.6347 291.416 53.6747 291.296 53.7547 291.216C53.8347 291.128 53.9507 291.084 54.1027 291.084C54.2547 291.084 54.3707 291.128 54.4507 291.216C54.5387 291.296 54.5827 291.416 54.5827 291.576V292.608L54.4507 292.464C54.6187 292 54.8907 291.652 55.2667 291.42C55.6507 291.18 56.0907 291.06 56.5867 291.06C57.0507 291.06 57.4347 291.144 57.7387 291.312C58.0507 291.48 58.2827 291.736 58.4347 292.08C58.5867 292.416 58.6627 292.844 58.6627 293.364V296.58C58.6627 296.74 58.6187 296.864 58.5307 296.952C58.4507 297.04 58.3347 297.084 58.1827 297.084C58.0227 297.084 57.8987 297.04 57.8107 296.952C57.7307 296.864 57.6907 296.74 57.6907 296.58V293.424C57.6907 292.88 57.5827 292.484 57.3667 292.236C57.1587 291.98 56.8227 291.852 56.3587 291.852C55.8227 291.852 55.3947 292.02 55.0747 292.356C54.7627 292.684 54.6067 293.124 54.6067 293.676V296.58C54.6067 296.916 54.4427 297.084 54.1147 297.084ZM62.675 297.108C62.155 297.108 61.699 296.984 61.307 296.736C60.923 296.488 60.623 296.14 60.407 295.692C60.199 295.236 60.095 294.7 60.095 294.084C60.095 293.46 60.199 292.924 60.407 292.476C60.623 292.02 60.923 291.672 61.307 291.432C61.699 291.184 62.155 291.06 62.675 291.06C63.203 291.06 63.655 291.192 64.031 291.456C64.407 291.72 64.659 292.076 64.787 292.524H64.655V288.948C64.655 288.788 64.695 288.668 64.775 288.588C64.863 288.5 64.987 288.456 65.147 288.456C65.299 288.456 65.415 288.5 65.495 288.588C65.583 288.668 65.627 288.788 65.627 288.948V296.58C65.627 296.74 65.587 296.864 65.507 296.952C65.427 297.04 65.307 297.084 65.147 297.084C64.995 297.084 64.875 297.04 64.787 296.952C64.707 296.864 64.667 296.74 64.667 296.58V295.44L64.799 295.608C64.671 296.064 64.415 296.428 64.031 296.7C63.655 296.972 63.203 297.108 62.675 297.108ZM62.879 296.328C63.239 296.328 63.555 296.24 63.827 296.064C64.099 295.888 64.307 295.632 64.451 295.296C64.603 294.96 64.679 294.556 64.679 294.084C64.679 293.356 64.515 292.8 64.187 292.416C63.867 292.032 63.431 291.84 62.879 291.84C62.511 291.84 62.191 291.928 61.919 292.104C61.655 292.272 61.447 292.524 61.295 292.86C61.151 293.188 61.079 293.596 61.079 294.084C61.079 294.804 61.243 295.36 61.571 295.752C61.899 296.136 62.335 296.328 62.879 296.328ZM67.9311 297.06C67.7711 297.06 67.6511 297.016 67.5711 296.928C67.4911 296.832 67.4511 296.7 67.4511 296.532V291.624C67.4511 291.456 67.4911 291.328 67.5711 291.24C67.6511 291.152 67.7711 291.108 67.9311 291.108C68.0831 291.108 68.2031 291.152 68.2911 291.24C68.3791 291.328 68.4231 291.456 68.4231 291.624V296.532C68.4231 296.7 68.3791 296.832 68.2911 296.928C68.2111 297.016 68.0911 297.06 67.9311 297.06ZM67.9311 289.764C67.7311 289.764 67.5751 289.712 67.4631 289.608C67.3511 289.496 67.2951 289.348 67.2951 289.164C67.2951 288.972 67.3511 288.828 67.4631 288.732C67.5751 288.628 67.7311 288.576 67.9311 288.576C68.1391 288.576 68.2951 288.628 68.3991 288.732C68.5111 288.828 68.5671 288.972 68.5671 289.164C68.5671 289.348 68.5111 289.496 68.3991 289.608C68.2951 289.712 68.1391 289.764 67.9311 289.764ZM70.7201 297.084C70.5601 297.084 70.4401 297.04 70.3601 296.952C70.2801 296.864 70.2401 296.74 70.2401 296.58V291.576C70.2401 291.416 70.2801 291.296 70.3601 291.216C70.4401 291.128 70.5561 291.084 70.7081 291.084C70.8601 291.084 70.9761 291.128 71.0561 291.216C71.1441 291.296 71.1881 291.416 71.1881 291.576V292.608L71.0561 292.464C71.2241 292 71.4961 291.652 71.8721 291.42C72.2561 291.18 72.6961 291.06 73.1921 291.06C73.6561 291.06 74.0401 291.144 74.3441 291.312C74.6561 291.48 74.8881 291.736 75.0401 292.08C75.1921 292.416 75.2681 292.844 75.2681 293.364V296.58C75.2681 296.74 75.2241 296.864 75.1361 296.952C75.0561 297.04 74.9401 297.084 74.7881 297.084C74.6281 297.084 74.5041 297.04 74.4161 296.952C74.3361 296.864 74.2961 296.74 74.2961 296.58V293.424C74.2961 292.88 74.1881 292.484 73.9721 292.236C73.7641 291.98 73.4281 291.852 72.9641 291.852C72.4281 291.852 72.0001 292.02 71.6801 292.356C71.3681 292.684 71.2121 293.124 71.2121 293.676V296.58C71.2121 296.916 71.0481 297.084 70.7201 297.084ZM79.6404 299.268C79.2164 299.268 78.8004 299.216 78.3924 299.112C77.9924 299.016 77.6284 298.86 77.3004 298.644C77.2044 298.588 77.1404 298.52 77.1084 298.44C77.0844 298.36 77.0804 298.28 77.0964 298.2C77.1124 298.128 77.1484 298.06 77.2044 297.996C77.2604 297.94 77.3244 297.904 77.3964 297.888C77.4764 297.872 77.5564 297.884 77.6364 297.924C77.9884 298.14 78.3244 298.288 78.6444 298.368C78.9644 298.448 79.2804 298.488 79.5924 298.488C80.1604 298.488 80.5884 298.336 80.8764 298.032C81.1724 297.728 81.3204 297.288 81.3204 296.712V295.356H81.4404C81.3204 295.82 81.0644 296.188 80.6724 296.46C80.2884 296.732 79.8364 296.868 79.3164 296.868C78.7804 296.868 78.3164 296.748 77.9244 296.508C77.5324 296.26 77.2284 295.916 77.0124 295.476C76.8044 295.036 76.7004 294.528 76.7004 293.952C76.7004 293.52 76.7604 293.128 76.8804 292.776C77.0004 292.416 77.1724 292.112 77.3964 291.864C77.6284 291.608 77.9044 291.412 78.2244 291.276C78.5524 291.132 78.9164 291.06 79.3164 291.06C79.8444 291.06 80.3004 291.196 80.6844 291.468C81.0684 291.732 81.3164 292.092 81.4284 292.548L81.3084 292.692V291.576C81.3084 291.416 81.3484 291.296 81.4284 291.216C81.5164 291.128 81.6364 291.084 81.7884 291.084C81.9484 291.084 82.0684 291.128 82.1484 291.216C82.2284 291.296 82.2684 291.416 82.2684 291.576V296.58C82.2684 297.468 82.0444 298.136 81.5964 298.584C81.1564 299.04 80.5044 299.268 79.6404 299.268ZM79.4964 296.076C79.8724 296.076 80.1964 295.992 80.4684 295.824C80.7404 295.648 80.9484 295.4 81.0924 295.08C81.2444 294.76 81.3204 294.384 81.3204 293.952C81.3204 293.304 81.1564 292.792 80.8284 292.416C80.5004 292.032 80.0564 291.84 79.4964 291.84C79.1284 291.84 78.8084 291.928 78.5364 292.104C78.2644 292.272 78.0524 292.516 77.9004 292.836C77.7564 293.148 77.6844 293.52 77.6844 293.952C77.6844 294.6 77.8484 295.116 78.1764 295.5C78.5044 295.884 78.9444 296.076 79.4964 296.076Z" fill="#929BAA"/>
<rect x="284" y="275" width="36" height="36" rx="10" fill="#F1F2F5"/>
<path d="M303.039 297.2C302.577 298 301.423 298 300.961 297.2L297.843 291.8C297.381 291 297.959 290 298.882 290L305.118 290C306.041 290 306.619 291 306.157 291.8L303.039 297.2Z" fill="#64728C"/>
</g>
<defs>
<clipPath id="clip0_1207_13042">
<rect width="344" height="344" rx="16" fill="white"/>
</clipPath>
<clipPath id="clip1_1207_13042">
<rect width="334" height="90" fill="white" transform="translate(2 5)"/>
</clipPath>
<clipPath id="clip2_1207_13042">
<rect width="14" height="14" fill="white" transform="translate(295 206)"/>
</clipPath>
</defs>
</svg>
