<svg width="394" height="466" viewBox="0 0 394 466" fill="none" xmlns="http://www.w3.org/2000/svg">
<rect x="144.5" y="21.5" width="199" height="44" rx="11.5" fill="white"/>
<rect x="144.5" y="21.5" width="199" height="44" rx="11.5" stroke="#E8EAEF"/>
<path d="M160.204 48H154.468C154.476 47.304 154.644 46.696 154.972 46.176C155.3 45.656 155.748 45.204 156.316 44.82C156.588 44.62 156.872 44.428 157.168 44.244C157.464 44.052 157.736 43.848 157.984 43.632C158.232 43.416 158.436 43.184 158.596 42.936C158.756 42.68 158.84 42.388 158.848 42.06C158.848 41.908 158.828 41.748 158.788 41.58C158.756 41.404 158.688 41.244 158.584 41.1C158.48 40.948 158.336 40.824 158.152 40.728C157.968 40.624 157.728 40.572 157.432 40.572C157.16 40.572 156.932 40.628 156.748 40.74C156.572 40.844 156.428 40.992 156.316 41.184C156.212 41.368 156.132 41.588 156.076 41.844C156.028 42.1 156 42.376 155.992 42.672H154.624C154.624 42.208 154.684 41.78 154.804 41.388C154.932 40.988 155.12 40.644 155.368 40.356C155.616 40.068 155.916 39.844 156.268 39.684C156.628 39.516 157.044 39.432 157.516 39.432C158.028 39.432 158.456 39.516 158.8 39.684C159.144 39.852 159.42 40.064 159.628 40.32C159.844 40.576 159.996 40.856 160.084 41.16C160.172 41.456 160.216 41.74 160.216 42.012C160.216 42.348 160.164 42.652 160.06 42.924C159.956 43.196 159.816 43.448 159.64 43.68C159.464 43.904 159.264 44.112 159.04 44.304C158.816 44.496 158.584 44.676 158.344 44.844C158.104 45.012 157.864 45.172 157.624 45.324C157.384 45.476 157.16 45.628 156.952 45.78C156.752 45.932 156.576 46.092 156.424 46.26C156.272 46.42 156.168 46.592 156.112 46.776H160.204V48ZM164.004 39.432C164.604 39.432 165.092 39.572 165.468 39.852C165.852 40.124 166.148 40.476 166.356 40.908C166.572 41.332 166.716 41.8 166.788 42.312C166.868 42.824 166.908 43.32 166.908 43.8C166.908 44.28 166.868 44.776 166.788 45.288C166.716 45.8 166.572 46.272 166.356 46.704C166.148 47.128 165.852 47.48 165.468 47.76C165.092 48.032 164.604 48.168 164.004 48.168C163.404 48.168 162.912 48.032 162.528 47.76C162.152 47.48 161.856 47.128 161.64 46.704C161.432 46.272 161.288 45.8 161.208 45.288C161.136 44.776 161.1 44.28 161.1 43.8C161.1 43.32 161.136 42.824 161.208 42.312C161.288 41.8 161.432 41.332 161.64 40.908C161.856 40.476 162.152 40.124 162.528 39.852C162.912 39.572 163.404 39.432 164.004 39.432ZM164.004 47.028C164.3 47.028 164.548 46.944 164.748 46.776C164.948 46.6 165.104 46.368 165.216 46.08C165.336 45.784 165.42 45.44 165.468 45.048C165.516 44.656 165.54 44.24 165.54 43.8C165.54 43.36 165.516 42.948 165.468 42.564C165.42 42.172 165.336 41.828 165.216 41.532C165.104 41.236 164.948 41.004 164.748 40.836C164.548 40.66 164.3 40.572 164.004 40.572C163.7 40.572 163.448 40.66 163.248 40.836C163.056 41.004 162.9 41.236 162.78 41.532C162.668 41.828 162.588 42.172 162.54 42.564C162.492 42.948 162.468 43.36 162.468 43.8C162.468 44.24 162.492 44.656 162.54 45.048C162.588 45.44 162.668 45.784 162.78 46.08C162.9 46.368 163.056 46.6 163.248 46.776C163.448 46.944 163.7 47.028 164.004 47.028ZM173.54 48H167.804C167.812 47.304 167.98 46.696 168.308 46.176C168.636 45.656 169.084 45.204 169.652 44.82C169.924 44.62 170.208 44.428 170.504 44.244C170.8 44.052 171.072 43.848 171.32 43.632C171.568 43.416 171.772 43.184 171.932 42.936C172.092 42.68 172.176 42.388 172.184 42.06C172.184 41.908 172.164 41.748 172.124 41.58C172.092 41.404 172.024 41.244 171.92 41.1C171.816 40.948 171.672 40.824 171.488 40.728C171.304 40.624 171.064 40.572 170.768 40.572C170.496 40.572 170.268 40.628 170.084 40.74C169.908 40.844 169.764 40.992 169.652 41.184C169.548 41.368 169.468 41.588 169.412 41.844C169.364 42.1 169.336 42.376 169.328 42.672H167.96C167.96 42.208 168.02 41.78 168.14 41.388C168.268 40.988 168.456 40.644 168.704 40.356C168.952 40.068 169.252 39.844 169.604 39.684C169.964 39.516 170.38 39.432 170.852 39.432C171.364 39.432 171.792 39.516 172.136 39.684C172.48 39.852 172.756 40.064 172.964 40.32C173.18 40.576 173.332 40.856 173.42 41.16C173.508 41.456 173.552 41.74 173.552 42.012C173.552 42.348 173.5 42.652 173.396 42.924C173.292 43.196 173.152 43.448 172.976 43.68C172.8 43.904 172.6 44.112 172.376 44.304C172.152 44.496 171.92 44.676 171.68 44.844C171.44 45.012 171.2 45.172 170.96 45.324C170.72 45.476 170.496 45.628 170.288 45.78C170.088 45.932 169.912 46.092 169.76 46.26C169.608 46.42 169.504 46.592 169.448 46.776H173.54V48ZM175.348 44.928H177.892V41.232H177.868L175.348 44.928ZM180.268 46.008H179.188V48H177.892V46.008H174.292V44.652L177.892 39.6H179.188V44.928H180.268V46.008ZM184.6 44.088H188.092V45.384H184.6V44.088ZM195.352 39.432C195.952 39.432 196.44 39.572 196.816 39.852C197.2 40.124 197.496 40.476 197.704 40.908C197.92 41.332 198.064 41.8 198.136 42.312C198.216 42.824 198.256 43.32 198.256 43.8C198.256 44.28 198.216 44.776 198.136 45.288C198.064 45.8 197.92 46.272 197.704 46.704C197.496 47.128 197.2 47.48 196.816 47.76C196.44 48.032 195.952 48.168 195.352 48.168C194.752 48.168 194.26 48.032 193.876 47.76C193.5 47.48 193.204 47.128 192.988 46.704C192.78 46.272 192.636 45.8 192.556 45.288C192.484 44.776 192.448 44.28 192.448 43.8C192.448 43.32 192.484 42.824 192.556 42.312C192.636 41.8 192.78 41.332 192.988 40.908C193.204 40.476 193.5 40.124 193.876 39.852C194.26 39.572 194.752 39.432 195.352 39.432ZM195.352 47.028C195.648 47.028 195.896 46.944 196.096 46.776C196.296 46.6 196.452 46.368 196.564 46.08C196.684 45.784 196.768 45.44 196.816 45.048C196.864 44.656 196.888 44.24 196.888 43.8C196.888 43.36 196.864 42.948 196.816 42.564C196.768 42.172 196.684 41.828 196.564 41.532C196.452 41.236 196.296 41.004 196.096 40.836C195.896 40.66 195.648 40.572 195.352 40.572C195.048 40.572 194.796 40.66 194.596 40.836C194.404 41.004 194.248 41.236 194.128 41.532C194.016 41.828 193.936 42.172 193.888 42.564C193.84 42.948 193.816 43.36 193.816 43.8C193.816 44.24 193.84 44.656 193.888 45.048C193.936 45.44 194.016 45.784 194.128 46.08C194.248 46.368 194.404 46.6 194.596 46.776C194.796 46.944 195.048 47.028 195.352 47.028ZM200.616 45.876C200.648 46.22 200.768 46.5 200.976 46.716C201.192 46.924 201.48 47.028 201.84 47.028C202.208 47.028 202.5 46.932 202.716 46.74C202.94 46.54 203.112 46.296 203.232 46.008C203.352 45.712 203.432 45.4 203.472 45.072C203.52 44.736 203.556 44.428 203.58 44.148L203.556 44.124C203.372 44.452 203.12 44.704 202.8 44.88C202.48 45.048 202.128 45.132 201.744 45.132C201.344 45.132 200.98 45.064 200.652 44.928C200.332 44.792 200.056 44.604 199.824 44.364C199.592 44.116 199.412 43.82 199.284 43.476C199.156 43.124 199.092 42.732 199.092 42.3C199.092 41.892 199.156 41.516 199.284 41.172C199.412 40.82 199.6 40.516 199.848 40.26C200.096 39.996 200.4 39.792 200.76 39.648C201.12 39.504 201.528 39.432 201.984 39.432C202.576 39.432 203.064 39.548 203.448 39.78C203.832 40.004 204.132 40.316 204.348 40.716C204.572 41.108 204.728 41.572 204.816 42.108C204.904 42.644 204.948 43.216 204.948 43.824C204.948 44.328 204.892 44.836 204.78 45.348C204.676 45.86 204.5 46.328 204.252 46.752C204.004 47.168 203.676 47.508 203.268 47.772C202.868 48.036 202.372 48.168 201.78 48.168C201.444 48.168 201.128 48.112 200.832 48C200.536 47.888 200.272 47.732 200.04 47.532C199.816 47.332 199.632 47.092 199.488 46.812C199.344 46.532 199.264 46.22 199.248 45.876H200.616ZM201.924 40.572C201.676 40.572 201.46 40.62 201.276 40.716C201.092 40.804 200.94 40.928 200.82 41.088C200.7 41.248 200.608 41.432 200.544 41.64C200.488 41.848 200.46 42.064 200.46 42.288C200.46 42.52 200.488 42.744 200.544 42.96C200.608 43.168 200.7 43.352 200.82 43.512C200.94 43.672 201.092 43.804 201.276 43.908C201.46 44.004 201.676 44.052 201.924 44.052C202.18 44.052 202.404 44.004 202.596 43.908C202.788 43.812 202.944 43.684 203.064 43.524C203.192 43.356 203.288 43.168 203.352 42.96C203.416 42.744 203.448 42.52 203.448 42.288C203.448 42.064 203.416 41.848 203.352 41.64C203.288 41.432 203.192 41.252 203.064 41.1C202.944 40.94 202.788 40.812 202.596 40.716C202.404 40.62 202.18 40.572 201.924 40.572ZM209.279 44.088H212.771V45.384H209.279V44.088ZM217.331 40.992C217.619 40.992 217.899 40.968 218.171 40.92C218.443 40.872 218.687 40.792 218.903 40.68C219.127 40.568 219.315 40.424 219.467 40.248C219.627 40.072 219.731 39.856 219.779 39.6H220.895V48H219.395V42.072H217.331V40.992ZM225.295 45.876C225.327 46.22 225.447 46.5 225.655 46.716C225.871 46.924 226.159 47.028 226.519 47.028C226.887 47.028 227.179 46.932 227.395 46.74C227.619 46.54 227.791 46.296 227.911 46.008C228.031 45.712 228.111 45.4 228.151 45.072C228.199 44.736 228.235 44.428 228.259 44.148L228.235 44.124C228.051 44.452 227.799 44.704 227.479 44.88C227.159 45.048 226.807 45.132 226.423 45.132C226.023 45.132 225.659 45.064 225.331 44.928C225.011 44.792 224.735 44.604 224.503 44.364C224.271 44.116 224.091 43.82 223.963 43.476C223.835 43.124 223.771 42.732 223.771 42.3C223.771 41.892 223.835 41.516 223.963 41.172C224.091 40.82 224.279 40.516 224.527 40.26C224.775 39.996 225.079 39.792 225.439 39.648C225.799 39.504 226.207 39.432 226.663 39.432C227.255 39.432 227.743 39.548 228.127 39.78C228.511 40.004 228.811 40.316 229.027 40.716C229.251 41.108 229.407 41.572 229.495 42.108C229.583 42.644 229.627 43.216 229.627 43.824C229.627 44.328 229.571 44.836 229.459 45.348C229.355 45.86 229.179 46.328 228.931 46.752C228.683 47.168 228.355 47.508 227.947 47.772C227.547 48.036 227.051 48.168 226.459 48.168C226.123 48.168 225.807 48.112 225.511 48C225.215 47.888 224.951 47.732 224.719 47.532C224.495 47.332 224.311 47.092 224.167 46.812C224.023 46.532 223.943 46.22 223.927 45.876H225.295ZM226.603 40.572C226.355 40.572 226.139 40.62 225.955 40.716C225.771 40.804 225.619 40.928 225.499 41.088C225.379 41.248 225.287 41.432 225.223 41.64C225.167 41.848 225.139 42.064 225.139 42.288C225.139 42.52 225.167 42.744 225.223 42.96C225.287 43.168 225.379 43.352 225.499 43.512C225.619 43.672 225.771 43.804 225.955 43.908C226.139 44.004 226.355 44.052 226.603 44.052C226.859 44.052 227.083 44.004 227.275 43.908C227.467 43.812 227.623 43.684 227.743 43.524C227.871 43.356 227.967 43.168 228.031 42.96C228.095 42.744 228.127 42.52 228.127 42.288C228.127 42.064 228.095 41.848 228.031 41.64C227.967 41.432 227.871 41.252 227.743 41.1C227.623 40.94 227.467 40.812 227.275 40.716C227.083 40.62 226.859 40.572 226.603 40.572Z" fill="#64728C"/>
<rect x="304" y="25.5" width="36" height="36" rx="10" fill="#64728C" fill-opacity="0.12"/>
<path fill-rule="evenodd" clip-rule="evenodd" d="M315 40.6563C315 38.8441 316.393 37.375 318.111 37.375H325.889C327.607 37.375 329 38.8441 329 40.6563V47.2188C329 49.0309 327.607 50.5 325.889 50.5H318.111C316.393 50.5 315 49.0309 315 47.2188V40.6563ZM318.111 39.0156C317.252 39.0156 316.556 39.7502 316.556 40.6563V47.2188C316.556 48.1249 317.252 48.8594 318.111 48.8594H325.889C326.748 48.8594 327.444 48.1249 327.444 47.2188V40.6563C327.444 39.7502 326.748 39.0156 325.889 39.0156H318.111Z" fill="#64728C"/>
<path fill-rule="evenodd" clip-rule="evenodd" d="M317.692 36.5C317.99 36.5 318.231 36.7411 318.231 37.0385V38.1154C318.231 38.4128 317.99 38.6538 317.692 38.6538C317.395 38.6538 317.154 38.4128 317.154 38.1154V37.0385C317.154 36.7411 317.395 36.5 317.692 36.5Z" fill="#64728C"/>
<path fill-rule="evenodd" clip-rule="evenodd" d="M326.308 36.5C326.605 36.5 326.846 36.7411 326.846 37.0385V38.1154C326.846 38.4128 326.605 38.6538 326.308 38.6538C326.01 38.6538 325.769 38.4128 325.769 38.1154V37.0385C325.769 36.7411 326.01 36.5 326.308 36.5Z" fill="#64728C"/>
<path d="M319.244 41.75C319.244 42.2333 318.852 42.625 318.369 42.625C317.885 42.625 317.494 42.2333 317.494 41.75C317.494 41.2668 317.885 40.875 318.369 40.875C318.852 40.875 319.244 41.2668 319.244 41.75Z" fill="#64728C"/>
<path d="M322.744 41.75C322.744 42.2333 322.352 42.625 321.869 42.625C321.385 42.625 320.994 42.2333 320.994 41.75C320.994 41.2668 321.385 40.875 321.869 40.875C322.352 40.875 322.744 41.2668 322.744 41.75Z" fill="#64728C"/>
<path d="M326.244 41.75C326.244 42.2333 325.852 42.625 325.369 42.625C324.885 42.625 324.494 42.2333 324.494 41.75C324.494 41.2668 324.885 40.875 325.369 40.875C325.852 40.875 326.244 41.2668 326.244 41.75Z" fill="#64728C"/>
<path d="M319.244 45.25C319.244 45.7333 318.852 46.125 318.369 46.125C317.885 46.125 317.494 45.7333 317.494 45.25C317.494 44.7667 317.885 44.375 318.369 44.375C318.852 44.375 319.244 44.7667 319.244 45.25Z" fill="#64728C"/>
<path d="M145.656 12C145.44 12 145.272 11.944 145.152 11.832C145.04 11.712 144.984 11.544 144.984 11.328V4.212C144.984 3.996 145.04 3.832 145.152 3.72C145.272 3.6 145.44 3.54 145.656 3.54H147.972C149.364 3.54 150.436 3.904 151.188 4.632C151.948 5.352 152.328 6.396 152.328 7.764C152.328 8.444 152.232 9.048 152.04 9.576C151.848 10.104 151.564 10.548 151.188 10.908C150.82 11.26 150.368 11.532 149.832 11.724C149.296 11.908 148.676 12 147.972 12H145.656ZM146.232 10.956H147.9C148.428 10.956 148.884 10.892 149.268 10.764C149.66 10.628 149.988 10.428 150.252 10.164C150.516 9.9 150.712 9.568 150.84 9.168C150.968 8.768 151.032 8.3 151.032 7.764C151.032 6.7 150.768 5.904 150.24 5.376C149.72 4.848 148.94 4.584 147.9 4.584H146.232V10.956ZM155.736 12.108C155.328 12.108 154.96 12.028 154.632 11.868C154.312 11.708 154.06 11.492 153.876 11.22C153.692 10.948 153.6 10.64 153.6 10.296C153.6 9.864 153.708 9.524 153.924 9.276C154.148 9.02 154.512 8.84 155.016 8.736C155.528 8.624 156.216 8.568 157.08 8.568H157.644V9.312H157.092C156.516 9.312 156.06 9.34 155.724 9.396C155.388 9.452 155.148 9.548 155.004 9.684C154.868 9.812 154.8 9.992 154.8 10.224C154.8 10.528 154.904 10.776 155.112 10.968C155.32 11.152 155.608 11.244 155.976 11.244C156.272 11.244 156.532 11.176 156.756 11.04C156.98 10.896 157.156 10.704 157.284 10.464C157.42 10.224 157.488 9.948 157.488 9.636V8.256C157.488 7.8 157.392 7.472 157.2 7.272C157.008 7.072 156.692 6.972 156.252 6.972C155.996 6.972 155.728 7.004 155.448 7.068C155.176 7.132 154.892 7.24 154.596 7.392C154.46 7.456 154.344 7.476 154.248 7.452C154.152 7.428 154.076 7.376 154.02 7.296C153.964 7.208 153.932 7.116 153.924 7.02C153.924 6.916 153.948 6.816 153.996 6.72C154.052 6.624 154.144 6.552 154.272 6.504C154.624 6.336 154.972 6.216 155.316 6.144C155.66 6.072 155.984 6.036 156.288 6.036C156.824 6.036 157.264 6.12 157.608 6.288C157.96 6.456 158.22 6.712 158.388 7.056C158.556 7.4 158.64 7.844 158.64 8.388V11.472C158.64 11.664 158.592 11.816 158.496 11.928C158.4 12.032 158.26 12.084 158.076 12.084C157.9 12.084 157.76 12.032 157.656 11.928C157.552 11.816 157.5 11.664 157.5 11.472V10.692H157.608C157.544 10.988 157.424 11.244 157.248 11.46C157.08 11.668 156.868 11.828 156.612 11.94C156.356 12.052 156.064 12.108 155.736 12.108ZM162.805 12.108C162.325 12.108 161.921 12.024 161.593 11.856C161.265 11.688 161.021 11.44 160.861 11.112C160.701 10.784 160.621 10.384 160.621 9.912V7.08H159.901C159.741 7.08 159.617 7.04 159.529 6.96C159.441 6.872 159.397 6.756 159.397 6.612C159.397 6.46 159.441 6.344 159.529 6.264C159.617 6.184 159.741 6.144 159.901 6.144H160.621V4.908C160.621 4.708 160.673 4.556 160.777 4.452C160.889 4.348 161.041 4.296 161.233 4.296C161.425 4.296 161.573 4.348 161.677 4.452C161.781 4.556 161.833 4.708 161.833 4.908V6.144H163.237C163.397 6.144 163.521 6.184 163.609 6.264C163.697 6.344 163.741 6.46 163.741 6.612C163.741 6.756 163.697 6.872 163.609 6.96C163.521 7.04 163.397 7.08 163.237 7.08H161.833V9.816C161.833 10.24 161.921 10.56 162.097 10.776C162.281 10.992 162.577 11.1 162.985 11.1C163.129 11.1 163.253 11.088 163.357 11.064C163.469 11.032 163.561 11.012 163.633 11.004C163.721 11.004 163.793 11.036 163.849 11.1C163.905 11.156 163.933 11.268 163.933 11.436C163.933 11.556 163.909 11.668 163.861 11.772C163.821 11.876 163.745 11.944 163.633 11.976C163.537 12.008 163.405 12.036 163.237 12.06C163.077 12.092 162.933 12.108 162.805 12.108ZM167.381 12.108C166.741 12.108 166.189 11.988 165.725 11.748C165.269 11.5 164.913 11.152 164.657 10.704C164.409 10.248 164.285 9.708 164.285 9.084C164.285 8.476 164.409 7.944 164.657 7.488C164.905 7.032 165.245 6.676 165.677 6.42C166.109 6.164 166.601 6.036 167.153 6.036C167.561 6.036 167.925 6.104 168.245 6.24C168.565 6.368 168.837 6.56 169.061 6.816C169.293 7.064 169.465 7.368 169.577 7.728C169.697 8.088 169.757 8.492 169.757 8.94C169.757 9.076 169.717 9.18 169.637 9.252C169.557 9.316 169.437 9.348 169.277 9.348H165.245V8.604H168.941L168.737 8.772C168.737 8.372 168.677 8.032 168.557 7.752C168.445 7.472 168.273 7.26 168.041 7.116C167.817 6.964 167.537 6.888 167.201 6.888C166.825 6.888 166.505 6.976 166.241 7.152C165.985 7.328 165.789 7.572 165.653 7.884C165.517 8.196 165.449 8.56 165.449 8.976V9.048C165.449 9.752 165.613 10.284 165.941 10.644C166.277 10.996 166.761 11.172 167.393 11.172C167.633 11.172 167.885 11.14 168.149 11.076C168.421 11.012 168.677 10.904 168.917 10.752C169.053 10.672 169.173 10.636 169.277 10.644C169.389 10.652 169.477 10.688 169.541 10.752C169.613 10.816 169.657 10.896 169.673 10.992C169.689 11.088 169.673 11.188 169.625 11.292C169.577 11.388 169.493 11.476 169.373 11.556C169.101 11.74 168.785 11.88 168.425 11.976C168.065 12.064 167.717 12.108 167.381 12.108Z" fill="#64728C"/>
<g filter="url(#filter0_d_1022_5289)">
<g filter="url(#filter1_d_1022_5289)">
<rect x="50" y="74" width="294" height="338" rx="24" fill="#E8EAEF"/>
<rect x="50.5" y="74.5" width="293" height="337" rx="23.5" stroke="#64728C" stroke-opacity="0.14"/>
<rect x="50" y="74" width="294" height="334" rx="24" fill="white"/>
<rect x="68" y="92" width="258" height="34" rx="17" fill="#FFF8D6"/>
<path d="M80.293 108.293C80.1998 108.386 80.1259 108.496 80.0754 108.617C80.0249 108.738 79.999 108.869 79.999 109C79.999 109.131 80.0249 109.262 80.0754 109.383C80.1259 109.504 80.1998 109.614 80.293 109.707L84.536 113.95C84.6282 114.046 84.7386 114.122 84.8606 114.174C84.9826 114.227 85.1138 114.254 85.2466 114.255C85.3794 114.256 85.5111 114.231 85.634 114.181C85.7569 114.131 85.8685 114.056 85.9624 113.962C86.0563 113.869 86.1305 113.757 86.1808 113.634C86.2311 113.511 86.2564 113.379 86.2553 113.247C86.2541 113.114 86.2265 112.983 86.1741 112.861C86.1217 112.739 86.0455 112.628 85.95 112.536L83.414 110L89 110C89.2652 110 89.5196 109.895 89.7071 109.707C89.8946 109.52 90 109.265 90 109C90 108.735 89.8946 108.48 89.7071 108.293C89.5196 108.105 89.2652 108 89 108L83.414 108L85.95 105.464C86.0455 105.372 86.1217 105.261 86.1741 105.139C86.2265 105.017 86.2541 104.886 86.2553 104.753C86.2564 104.621 86.2311 104.489 86.1808 104.366C86.1305 104.243 86.0563 104.131 85.9624 104.038C85.8685 103.944 85.7569 103.869 85.634 103.819C85.5111 103.769 85.3794 103.744 85.2466 103.745C85.1138 103.746 84.9826 103.773 84.8606 103.826C84.7386 103.878 84.6282 103.954 84.536 104.05L80.293 108.293ZM75 109C75 103.477 79.477 99 85 99C90.523 99 95 103.477 95 109C95 114.523 90.523 119 85 119C79.477 119 75 114.523 75 109Z" fill="#C45500"/>
<path d="M116.854 112.544C117.351 112.544 117.754 112.489 118.064 112.38C118.652 112.17 118.946 111.781 118.946 111.211C118.946 110.878 118.8 110.621 118.508 110.438C118.217 110.261 117.759 110.104 117.134 109.967L116.068 109.728C115.02 109.491 114.295 109.233 113.894 108.955C113.215 108.49 112.875 107.763 112.875 106.774C112.875 105.872 113.204 105.122 113.86 104.525C114.516 103.928 115.48 103.63 116.751 103.63C117.813 103.63 118.718 103.912 119.465 104.478C120.217 105.038 120.611 105.854 120.648 106.925H118.625C118.588 106.319 118.324 105.888 117.832 105.633C117.503 105.464 117.096 105.38 116.608 105.38C116.066 105.38 115.633 105.489 115.309 105.708C114.986 105.927 114.824 106.232 114.824 106.624C114.824 106.984 114.983 107.253 115.302 107.431C115.507 107.549 115.945 107.688 116.615 107.848L118.351 108.265C119.112 108.447 119.686 108.691 120.074 108.996C120.675 109.47 120.976 110.156 120.976 111.054C120.976 111.974 120.623 112.74 119.917 113.351C119.215 113.957 118.221 114.26 116.936 114.26C115.624 114.26 114.591 113.961 113.839 113.364C113.087 112.763 112.711 111.938 112.711 110.89H114.721C114.785 111.35 114.91 111.694 115.097 111.922C115.439 112.337 116.025 112.544 116.854 112.544ZM128.755 111.812C128.705 112.255 128.475 112.703 128.065 113.159C127.427 113.884 126.534 114.246 125.385 114.246C124.437 114.246 123.601 113.941 122.876 113.33C122.152 112.719 121.79 111.726 121.79 110.35C121.79 109.06 122.115 108.071 122.767 107.383C123.423 106.695 124.273 106.351 125.317 106.351C125.937 106.351 126.495 106.467 126.992 106.699C127.488 106.932 127.899 107.299 128.222 107.8C128.514 108.242 128.703 108.755 128.79 109.338C128.84 109.68 128.86 110.172 128.851 110.814H123.751C123.779 111.562 124.014 112.086 124.456 112.387C124.724 112.574 125.048 112.667 125.426 112.667C125.827 112.667 126.153 112.553 126.404 112.325C126.541 112.202 126.661 112.031 126.766 111.812H128.755ZM126.828 109.529C126.796 109.014 126.639 108.625 126.356 108.36C126.078 108.091 125.732 107.957 125.317 107.957C124.866 107.957 124.515 108.098 124.264 108.381C124.018 108.663 123.863 109.046 123.799 109.529H126.828ZM136.412 107.349C137.013 107.991 137.314 108.935 137.314 110.179C137.314 111.491 137.018 112.492 136.425 113.18C135.837 113.868 135.079 114.212 134.149 114.212C133.556 114.212 133.064 114.064 132.672 113.768C132.458 113.604 132.249 113.364 132.043 113.05V116.933H130.116V106.549H131.982V107.649C132.192 107.326 132.415 107.071 132.652 106.884C133.085 106.551 133.6 106.385 134.197 106.385C135.067 106.385 135.806 106.706 136.412 107.349ZM135.304 110.274C135.304 109.7 135.172 109.192 134.908 108.75C134.648 108.308 134.224 108.087 133.636 108.087C132.93 108.087 132.444 108.422 132.18 109.092C132.043 109.447 131.975 109.898 131.975 110.445C131.975 111.311 132.205 111.92 132.666 112.271C132.939 112.476 133.263 112.578 133.636 112.578C134.179 112.578 134.591 112.368 134.874 111.949C135.161 111.53 135.304 110.972 135.304 110.274ZM142.14 112.612V114.068L141.217 114.103C140.297 114.134 139.668 113.975 139.331 113.624C139.112 113.401 139.002 113.057 139.002 112.592V108.005H137.963V106.617H139.002V104.539H140.93V106.617H142.14V108.005H140.93V111.942C140.93 112.248 140.969 112.439 141.046 112.517C141.124 112.59 141.361 112.626 141.757 112.626C141.817 112.626 141.878 112.626 141.942 112.626C142.01 112.621 142.076 112.617 142.14 112.612ZM149.769 111.812C149.719 112.255 149.489 112.703 149.079 113.159C148.441 113.884 147.547 114.246 146.399 114.246C145.451 114.246 144.615 113.941 143.89 113.33C143.166 112.719 142.803 111.726 142.803 110.35C142.803 109.06 143.129 108.071 143.781 107.383C144.437 106.695 145.287 106.351 146.331 106.351C146.95 106.351 147.509 106.467 148.005 106.699C148.502 106.932 148.912 107.299 149.236 107.8C149.528 108.242 149.717 108.755 149.803 109.338C149.853 109.68 149.874 110.172 149.865 110.814H144.765C144.792 111.562 145.027 112.086 145.469 112.387C145.738 112.574 146.062 112.667 146.44 112.667C146.841 112.667 147.167 112.553 147.417 112.325C147.554 112.202 147.675 112.031 147.78 111.812H149.769ZM147.841 109.529C147.809 109.014 147.652 108.625 147.37 108.36C147.092 108.091 146.745 107.957 146.331 107.957C145.879 107.957 145.528 108.098 145.278 108.381C145.032 108.663 144.877 109.046 144.813 109.529H147.841ZM155.368 108.6C155.204 108.24 154.882 108.06 154.404 108.06C153.848 108.06 153.474 108.24 153.283 108.6C153.178 108.805 153.125 109.11 153.125 109.516V114H151.15V106.562H153.043V107.649C153.285 107.262 153.513 106.986 153.727 106.822C154.105 106.531 154.595 106.385 155.197 106.385C155.766 106.385 156.227 106.51 156.578 106.761C156.86 106.993 157.074 107.292 157.22 107.656C157.475 107.219 157.792 106.897 158.17 106.692C158.571 106.487 159.018 106.385 159.51 106.385C159.838 106.385 160.162 106.449 160.481 106.576C160.8 106.704 161.089 106.927 161.349 107.246C161.559 107.506 161.7 107.825 161.773 108.203C161.819 108.454 161.841 108.821 161.841 109.304L161.828 114H159.832V109.256C159.832 108.973 159.786 108.741 159.695 108.559C159.522 108.212 159.203 108.039 158.738 108.039C158.2 108.039 157.829 108.262 157.624 108.709C157.519 108.946 157.466 109.231 157.466 109.563V114H155.504V109.563C155.504 109.121 155.459 108.8 155.368 108.6ZM167.686 114.198C167.071 114.198 166.576 114.075 166.203 113.829C165.979 113.683 165.738 113.428 165.478 113.063V114H163.571V103.938H165.512V107.52C165.758 107.173 166.029 106.909 166.326 106.727C166.677 106.499 167.123 106.385 167.666 106.385C168.645 106.385 169.411 106.738 169.962 107.444C170.518 108.151 170.796 109.062 170.796 110.179C170.796 111.336 170.523 112.296 169.976 113.057C169.429 113.818 168.666 114.198 167.686 114.198ZM168.752 110.384C168.752 109.855 168.684 109.418 168.547 109.071C168.288 108.415 167.809 108.087 167.112 108.087C166.405 108.087 165.92 108.408 165.656 109.051C165.519 109.393 165.451 109.835 165.451 110.377C165.451 111.015 165.592 111.544 165.875 111.963C166.157 112.382 166.588 112.592 167.167 112.592C167.668 112.592 168.057 112.389 168.335 111.983C168.613 111.578 168.752 111.045 168.752 110.384ZM178.576 111.812C178.526 112.255 178.295 112.703 177.885 113.159C177.247 113.884 176.354 114.246 175.206 114.246C174.258 114.246 173.421 113.941 172.697 113.33C171.972 112.719 171.61 111.726 171.61 110.35C171.61 109.06 171.936 108.071 172.587 107.383C173.244 106.695 174.094 106.351 175.137 106.351C175.757 106.351 176.315 106.467 176.812 106.699C177.309 106.932 177.719 107.299 178.042 107.8C178.334 108.242 178.523 108.755 178.61 109.338C178.66 109.68 178.681 110.172 178.671 110.814H173.572C173.599 111.562 173.834 112.086 174.276 112.387C174.545 112.574 174.868 112.667 175.247 112.667C175.648 112.667 175.973 112.553 176.224 112.325C176.361 112.202 176.482 112.031 176.586 111.812H178.576ZM176.648 109.529C176.616 109.014 176.459 108.625 176.176 108.36C175.898 108.091 175.552 107.957 175.137 107.957C174.686 107.957 174.335 108.098 174.084 108.381C173.838 108.663 173.683 109.046 173.62 109.529H176.648ZM183.737 108.347C182.953 108.347 182.427 108.602 182.158 109.112C182.007 109.399 181.932 109.841 181.932 110.438V114H179.97V106.549H181.83V107.848C182.13 107.351 182.392 107.011 182.616 106.829C182.98 106.524 183.454 106.371 184.038 106.371C184.074 106.371 184.104 106.373 184.126 106.378C184.154 106.378 184.211 106.38 184.297 106.385V108.381C184.174 108.367 184.065 108.358 183.969 108.354C183.874 108.349 183.796 108.347 183.737 108.347Z" fill="#C45500"/>
<path d="M199.064 107.173C198.911 107.047 198.714 106.986 198.516 107.004C198.319 107.022 198.136 107.117 198.008 107.269L194.834 111.078L191.659 107.269C191.532 107.117 191.349 107.021 191.151 107.003C190.953 106.985 190.756 107.047 190.603 107.174C190.45 107.302 190.354 107.484 190.337 107.683C190.319 107.881 190.38 108.078 190.508 108.23L194.258 112.731C194.328 112.815 194.416 112.883 194.516 112.929C194.615 112.976 194.724 113 194.834 113C194.943 113 195.052 112.976 195.151 112.929C195.251 112.883 195.339 112.815 195.409 112.731L199.16 108.23C199.287 108.077 199.348 107.88 199.331 107.682C199.313 107.484 199.217 107.301 199.064 107.173Z" fill="#C45500"/>
<path d="M239.448 106.104C239.215 105.826 238.883 105.688 238.45 105.688C237.857 105.688 237.454 105.909 237.24 106.351C237.117 106.606 237.044 107.011 237.021 107.567H235.127C235.159 106.724 235.312 106.043 235.585 105.523C236.105 104.535 237.028 104.04 238.354 104.04C239.402 104.04 240.236 104.332 240.856 104.915C241.476 105.494 241.786 106.262 241.786 107.219C241.786 107.952 241.567 108.604 241.129 109.174C240.842 109.552 240.371 109.974 239.714 110.438L238.935 110.992C238.447 111.339 238.112 111.589 237.93 111.744C237.752 111.899 237.602 112.079 237.479 112.284H241.806V114H235.018C235.036 113.289 235.189 112.64 235.476 112.052C235.754 111.391 236.41 110.691 237.445 109.953C238.343 109.311 238.924 108.85 239.188 108.572C239.594 108.139 239.796 107.665 239.796 107.15C239.796 106.731 239.68 106.382 239.448 106.104ZM246.229 114.246C244.967 114.246 244.08 113.804 243.57 112.92C243.064 112.036 242.811 110.776 242.811 109.14C242.811 107.504 243.064 106.241 243.57 105.353C244.08 104.464 244.967 104.02 246.229 104.02C247.491 104.02 248.378 104.464 248.888 105.353C249.394 106.241 249.647 107.504 249.647 109.14C249.647 110.776 249.392 112.036 248.881 112.92C248.375 113.804 247.491 114.246 246.229 114.246ZM247.371 111.751C247.548 111.149 247.637 110.279 247.637 109.14C247.637 107.946 247.546 107.062 247.364 106.487C247.186 105.913 246.808 105.626 246.229 105.626C245.65 105.626 245.267 105.913 245.081 106.487C244.894 107.062 244.8 107.946 244.8 109.14C244.8 110.279 244.894 111.152 245.081 111.758C245.267 112.359 245.65 112.66 246.229 112.66C246.808 112.66 247.188 112.357 247.371 111.751ZM255.034 106.104C254.801 105.826 254.469 105.688 254.036 105.688C253.443 105.688 253.04 105.909 252.826 106.351C252.703 106.606 252.63 107.011 252.607 107.567H250.713C250.745 106.724 250.898 106.043 251.171 105.523C251.691 104.535 252.614 104.04 253.94 104.04C254.988 104.04 255.822 104.332 256.442 104.915C257.062 105.494 257.372 106.262 257.372 107.219C257.372 107.952 257.153 108.604 256.715 109.174C256.428 109.552 255.957 109.974 255.3 110.438L254.521 110.992C254.033 111.339 253.698 111.589 253.516 111.744C253.338 111.899 253.188 112.079 253.065 112.284H257.392V114H250.604C250.622 113.289 250.775 112.64 251.062 112.052C251.34 111.391 251.996 110.691 253.031 109.953C253.929 109.311 254.51 108.85 254.774 108.572C255.18 108.139 255.382 107.665 255.382 107.15C255.382 106.731 255.266 106.382 255.034 106.104ZM265.281 110.343V111.867H264.16V114H262.252V111.867H258.329V110.165L261.972 104.149H264.16V110.343H265.281ZM259.771 110.343H262.252V106.063L259.771 110.343Z" fill="#C45500"/>
<path d="M280.397 107.173C280.244 107.047 280.047 106.986 279.849 107.004C279.652 107.022 279.469 107.117 279.341 107.269L276.167 111.078L272.992 107.269C272.865 107.117 272.682 107.021 272.484 107.003C272.286 106.985 272.089 107.047 271.936 107.174C271.783 107.302 271.687 107.484 271.67 107.683C271.652 107.881 271.713 108.078 271.841 108.23L275.591 112.731C275.661 112.815 275.749 112.883 275.849 112.929C275.948 112.976 276.057 113 276.167 113C276.276 113 276.385 112.976 276.484 112.929C276.584 112.883 276.672 112.815 276.742 112.731L280.493 108.23C280.62 108.077 280.681 107.88 280.664 107.682C280.646 107.484 280.55 107.301 280.397 107.173Z" fill="#C45500"/>
<path d="M313.707 109.707C313.8 109.614 313.874 109.504 313.925 109.383C313.975 109.262 314.001 109.131 314.001 109C314.001 108.869 313.975 108.738 313.925 108.617C313.874 108.496 313.8 108.386 313.707 108.293L309.464 104.05C309.372 103.954 309.261 103.878 309.139 103.826C309.017 103.773 308.886 103.746 308.753 103.745C308.621 103.744 308.489 103.769 308.366 103.819C308.243 103.869 308.131 103.944 308.038 104.038C307.944 104.131 307.869 104.243 307.819 104.366C307.769 104.489 307.744 104.621 307.745 104.753C307.746 104.886 307.773 105.017 307.826 105.139C307.878 105.261 307.954 105.372 308.05 105.464L310.586 108L305 108C304.735 108 304.48 108.105 304.293 108.293C304.105 108.48 304 108.735 304 109C304 109.265 304.105 109.52 304.293 109.707C304.48 109.895 304.735 110 305 110L310.586 110L308.05 112.536C307.954 112.628 307.878 112.739 307.826 112.861C307.773 112.983 307.746 113.114 307.745 113.247C307.744 113.379 307.769 113.511 307.819 113.634C307.869 113.757 307.944 113.869 308.038 113.962C308.131 114.056 308.243 114.131 308.366 114.181C308.489 114.231 308.621 114.256 308.753 114.255C308.886 114.254 309.017 114.227 309.139 114.174C309.261 114.122 309.372 114.046 309.464 113.95L313.707 109.707ZM319 109C319 114.523 314.523 119 309 119C303.477 119 299 114.523 299 109C299 103.477 303.477 99 309 99C314.523 99 319 103.477 319 109Z" fill="#C45500"/>
<path d="M72.6133 152.686C72.6361 153.092 72.7321 153.423 72.9014 153.677C73.2236 154.152 73.7917 154.39 74.6055 154.39C74.9701 154.39 75.3021 154.338 75.6016 154.233C76.181 154.032 76.4707 153.67 76.4707 153.149C76.4707 152.759 76.3486 152.48 76.1045 152.314C75.8571 152.152 75.4697 152.01 74.9424 151.89L73.9707 151.67C73.3359 151.527 72.8867 151.369 72.623 151.196C72.1673 150.897 71.9395 150.449 71.9395 149.854C71.9395 149.209 72.1624 148.68 72.6084 148.267C73.0544 147.853 73.6859 147.646 74.5029 147.646C75.2549 147.646 75.8929 147.829 76.417 148.193C76.9443 148.555 77.208 149.134 77.208 149.932H76.2949C76.2461 149.548 76.1419 149.253 75.9824 149.048C75.6862 148.674 75.1833 148.486 74.4736 148.486C73.9007 148.486 73.4889 148.607 73.2383 148.848C72.9876 149.089 72.8623 149.368 72.8623 149.688C72.8623 150.039 73.0088 150.296 73.3018 150.459C73.4938 150.563 73.9284 150.693 74.6055 150.85L75.6113 151.079C76.0964 151.19 76.4707 151.341 76.7344 151.533C77.1901 151.868 77.418 152.355 77.418 152.993C77.418 153.787 77.1283 154.355 76.5488 154.697C75.9727 155.039 75.3021 155.21 74.5371 155.21C73.6452 155.21 72.9469 154.982 72.4424 154.526C71.9378 154.074 71.6904 153.46 71.7002 152.686H72.6133ZM83.8301 152.061L82.7412 148.892L81.584 152.061H83.8301ZM82.2334 147.827H83.332L85.9346 155H84.8701L84.1426 152.852H81.3057L80.5293 155H79.5332L82.2334 147.827ZM88.3184 147.827H89.4658L93.0889 153.638V147.827H94.0117V155H92.9229L89.2461 149.194V155H88.3184V147.827Z" fill="#929BAA"/>
<path d="M107.817 147.827H109.209L111.27 153.892L113.315 147.827H114.692V155H113.77V150.767C113.77 150.62 113.773 150.378 113.779 150.039C113.786 149.701 113.789 149.338 113.789 148.95L111.743 155H110.781L108.721 148.95V149.17C108.721 149.346 108.724 149.614 108.73 149.976C108.74 150.334 108.745 150.597 108.745 150.767V155H107.817V147.827ZM120.768 147.632C122.034 147.632 122.971 148.039 123.58 148.853C124.055 149.487 124.293 150.299 124.293 151.289C124.293 152.36 124.021 153.25 123.478 153.96C122.84 154.793 121.93 155.21 120.748 155.21C119.645 155.21 118.777 154.845 118.146 154.116C117.582 153.413 117.301 152.524 117.301 151.45C117.301 150.48 117.542 149.65 118.023 148.96C118.642 148.075 119.557 147.632 120.768 147.632ZM120.865 154.341C121.721 154.341 122.34 154.035 122.721 153.423C123.105 152.808 123.297 152.101 123.297 151.304C123.297 150.461 123.076 149.782 122.633 149.268C122.193 148.753 121.591 148.496 120.826 148.496C120.084 148.496 119.479 148.752 119.01 149.263C118.541 149.771 118.307 150.521 118.307 151.514C118.307 152.308 118.507 152.979 118.907 153.525C119.311 154.069 119.964 154.341 120.865 154.341ZM126.955 147.827H128.103L131.726 153.638V147.827H132.648V155H131.56L127.883 149.194V155H126.955V147.827Z" fill="#929BAA"/>
<path d="M153.477 147.827V148.682H151.06V155H150.073V148.682H147.656V147.827H153.477ZM156.925 147.827V152.261C156.925 152.782 157.022 153.215 157.218 153.56C157.507 154.08 157.996 154.341 158.683 154.341C159.506 154.341 160.066 154.059 160.362 153.496C160.522 153.19 160.602 152.778 160.602 152.261V147.827H161.588V151.855C161.588 152.738 161.469 153.416 161.231 153.892C160.795 154.757 159.972 155.19 158.761 155.19C157.55 155.19 156.728 154.757 156.295 153.892C156.057 153.416 155.938 152.738 155.938 151.855V147.827H156.925ZM164.689 147.827H169.919V148.706H165.637V150.884H169.597V151.714H165.637V154.146H169.992V155H164.689V147.827Z" fill="#929BAA"/>
<path d="M185.065 147.827L186.418 153.662L188.039 147.827H189.094L190.715 153.662L192.067 147.827H193.132L191.247 155H190.227L188.571 149.053L186.906 155H185.886L184.011 147.827H185.065ZM195.628 147.827H200.857V148.706H196.575V150.884H200.535V151.714H196.575V154.146H200.931V155H195.628V147.827ZM206.459 154.17C206.788 154.17 207.058 154.136 207.27 154.067C207.647 153.94 207.956 153.696 208.197 153.335C208.389 153.045 208.528 152.674 208.612 152.222C208.661 151.951 208.686 151.701 208.686 151.47C208.686 150.581 208.508 149.891 208.153 149.399C207.802 148.908 207.234 148.662 206.449 148.662H204.726V154.17H206.459ZM203.749 147.827H206.654C207.641 147.827 208.406 148.177 208.949 148.877C209.434 149.508 209.677 150.317 209.677 151.304C209.677 152.065 209.534 152.754 209.247 153.369C208.743 154.456 207.875 155 206.645 155H203.749V147.827Z" fill="#929BAA"/>
<path d="M229.198 147.827V148.682H226.781V155H225.795V148.682H223.378V147.827H229.198ZM231.616 147.827H232.598V150.791H236.328V147.827H237.31V155H236.328V151.646H232.598V155H231.616V147.827ZM241.373 147.827V152.261C241.373 152.782 241.471 153.215 241.666 153.56C241.956 154.08 242.444 154.341 243.131 154.341C243.954 154.341 244.514 154.059 244.811 153.496C244.97 153.19 245.05 152.778 245.05 152.261V147.827H246.036V151.855C246.036 152.738 245.917 153.416 245.68 153.892C245.243 154.757 244.42 155.19 243.209 155.19C241.998 155.19 241.176 154.757 240.743 153.892C240.506 153.416 240.387 152.738 240.387 151.855V147.827H241.373Z" fill="#929BAA"/>
<path d="M264.293 147.827H269.269V148.706H265.265V150.884H268.785V151.738H265.265V155H264.293V147.827ZM275.148 151.113C275.604 151.113 275.964 151.022 276.228 150.84C276.494 150.658 276.628 150.329 276.628 149.854C276.628 149.342 276.442 148.994 276.071 148.809C275.873 148.711 275.607 148.662 275.275 148.662H272.902V151.113H275.148ZM271.931 147.827H275.251C275.798 147.827 276.249 147.907 276.604 148.066C277.277 148.372 277.614 148.937 277.614 149.761C277.614 150.19 277.525 150.542 277.346 150.815C277.17 151.089 276.923 151.309 276.604 151.475C276.883 151.589 277.093 151.738 277.233 151.924C277.377 152.109 277.456 152.41 277.473 152.827L277.507 153.789C277.517 154.062 277.539 154.266 277.575 154.399C277.634 154.627 277.738 154.774 277.888 154.839V155H276.696C276.664 154.938 276.638 154.858 276.618 154.761C276.599 154.663 276.582 154.474 276.569 154.194L276.511 152.998C276.488 152.529 276.314 152.215 275.988 152.056C275.803 151.968 275.511 151.924 275.114 151.924H272.902V155H271.931V147.827ZM280.76 147.827H281.741V155H280.76V147.827Z" fill="#929BAA"/>
<path d="M301.541 152.686C301.564 153.092 301.66 153.423 301.829 153.677C302.151 154.152 302.719 154.39 303.533 154.39C303.898 154.39 304.23 154.338 304.529 154.233C305.109 154.032 305.398 153.67 305.398 153.149C305.398 152.759 305.276 152.48 305.032 152.314C304.785 152.152 304.397 152.01 303.87 151.89L302.898 151.67C302.264 151.527 301.814 151.369 301.551 151.196C301.095 150.897 300.867 150.449 300.867 149.854C300.867 149.209 301.09 148.68 301.536 148.267C301.982 147.853 302.614 147.646 303.431 147.646C304.183 147.646 304.821 147.829 305.345 148.193C305.872 148.555 306.136 149.134 306.136 149.932H305.223C305.174 149.548 305.07 149.253 304.91 149.048C304.614 148.674 304.111 148.486 303.401 148.486C302.828 148.486 302.417 148.607 302.166 148.848C301.915 149.089 301.79 149.368 301.79 149.688C301.79 150.039 301.937 150.296 302.229 150.459C302.422 150.563 302.856 150.693 303.533 150.85L304.539 151.079C305.024 151.19 305.398 151.341 305.662 151.533C306.118 151.868 306.346 152.355 306.346 152.993C306.346 153.787 306.056 154.355 305.477 154.697C304.9 155.039 304.23 155.21 303.465 155.21C302.573 155.21 301.875 154.982 301.37 154.526C300.866 154.074 300.618 153.46 300.628 152.686H301.541ZM312.758 152.061L311.669 148.892L310.512 152.061H312.758ZM311.161 147.827H312.26L314.862 155H313.798L313.07 152.852H310.233L309.457 155H308.461L311.161 147.827ZM321.724 147.827V148.682H319.307V155H318.32V148.682H315.903V147.827H321.724Z" fill="#929BAA"/>
<path d="M80.4434 190.568V189.625C81.332 189.538 81.9518 189.395 82.3027 189.194C82.6536 188.989 82.9157 188.508 83.0889 187.752H84.0596V197.5H82.7471V190.568H80.4434Z" fill="#64728C"/>
<path d="M117.541 197.5C117.587 196.657 117.76 195.923 118.061 195.299C118.366 194.674 118.958 194.107 119.838 193.597L121.15 192.838C121.738 192.496 122.151 192.204 122.388 191.963C122.761 191.585 122.948 191.152 122.948 190.664C122.948 190.094 122.777 189.643 122.436 189.311C122.094 188.973 121.638 188.805 121.068 188.805C120.225 188.805 119.642 189.124 119.318 189.762C119.145 190.104 119.049 190.577 119.031 191.184H117.78C117.794 190.331 117.951 189.636 118.252 189.099C118.785 188.151 119.726 187.677 121.075 187.677C122.196 187.677 123.014 187.98 123.529 188.586C124.049 189.192 124.309 189.867 124.309 190.609C124.309 191.393 124.033 192.063 123.481 192.619C123.162 192.943 122.59 193.335 121.766 193.795L120.829 194.314C120.382 194.561 120.032 194.795 119.776 195.019C119.321 195.415 119.034 195.855 118.915 196.338H124.261V197.5H117.541Z" fill="#64728C"/>
<path d="M158.74 197.767C157.583 197.767 156.742 197.45 156.218 196.816C155.698 196.178 155.438 195.404 155.438 194.492H156.724C156.778 195.126 156.897 195.586 157.079 195.873C157.398 196.388 157.975 196.646 158.809 196.646C159.456 196.646 159.975 196.472 160.367 196.126C160.759 195.78 160.955 195.333 160.955 194.786C160.955 194.112 160.748 193.64 160.333 193.371C159.923 193.102 159.351 192.968 158.617 192.968C158.535 192.968 158.451 192.97 158.364 192.975C158.282 192.975 158.198 192.977 158.111 192.981V191.895C158.239 191.908 158.346 191.917 158.433 191.922C158.519 191.926 158.613 191.929 158.713 191.929C159.173 191.929 159.551 191.856 159.848 191.71C160.367 191.455 160.627 190.999 160.627 190.343C160.627 189.855 160.454 189.479 160.107 189.215C159.761 188.951 159.358 188.818 158.897 188.818C158.077 188.818 157.51 189.092 157.195 189.639C157.022 189.939 156.924 190.368 156.901 190.924H155.685C155.685 190.195 155.83 189.575 156.122 189.064C156.623 188.153 157.505 187.697 158.768 187.697C159.766 187.697 160.538 187.921 161.085 188.367C161.632 188.809 161.905 189.452 161.905 190.295C161.905 190.896 161.743 191.384 161.42 191.758C161.219 191.99 160.96 192.173 160.641 192.305C161.156 192.446 161.557 192.719 161.844 193.125C162.135 193.526 162.281 194.018 162.281 194.602C162.281 195.536 161.974 196.297 161.358 196.885C160.743 197.473 159.87 197.767 158.74 197.767Z" fill="#64728C"/>
<path d="M197.731 194.034V189.598L194.594 194.034H197.731ZM197.752 197.5V195.107H193.459V193.904L197.943 187.684H198.982V194.034H200.425V195.107H198.982V197.5H197.752Z" fill="#64728C"/>
<path d="M232.833 195.005C232.915 195.707 233.241 196.192 233.811 196.461C234.102 196.598 234.439 196.666 234.822 196.666C235.551 196.666 236.091 196.434 236.442 195.969C236.793 195.504 236.969 194.989 236.969 194.424C236.969 193.74 236.759 193.212 236.34 192.838C235.925 192.464 235.426 192.277 234.843 192.277C234.419 192.277 234.054 192.359 233.749 192.523C233.448 192.688 233.191 192.915 232.977 193.207L231.91 193.146L232.655 187.875H237.741V189.064H233.578L233.161 191.785C233.389 191.612 233.605 191.482 233.811 191.396C234.175 191.245 234.597 191.17 235.075 191.17C235.973 191.17 236.734 191.459 237.358 192.038C237.983 192.617 238.295 193.351 238.295 194.239C238.295 195.164 238.008 195.98 237.434 196.687C236.864 197.393 235.952 197.746 234.699 197.746C233.902 197.746 233.195 197.523 232.58 197.076C231.969 196.625 231.628 195.935 231.555 195.005H232.833Z" fill="#64728C"/>
<path d="M273.198 187.67C274.292 187.67 275.053 187.955 275.481 188.524C275.914 189.09 276.131 189.673 276.131 190.274H274.914C274.841 189.887 274.725 189.584 274.565 189.365C274.269 188.955 273.82 188.75 273.219 188.75C272.531 188.75 271.984 189.069 271.578 189.707C271.173 190.34 270.947 191.25 270.901 192.435C271.184 192.02 271.539 191.71 271.968 191.505C272.36 191.323 272.797 191.231 273.28 191.231C274.101 191.231 274.816 191.493 275.427 192.018C276.037 192.542 276.343 193.323 276.343 194.362C276.343 195.251 276.053 196.039 275.475 196.728C274.896 197.411 274.071 197.753 273 197.753C272.084 197.753 271.293 197.407 270.628 196.714C269.963 196.017 269.63 194.845 269.63 193.2C269.63 191.983 269.778 190.951 270.074 190.104C270.644 188.481 271.685 187.67 273.198 187.67ZM273.109 196.659C273.757 196.659 274.24 196.443 274.559 196.01C274.882 195.572 275.044 195.057 275.044 194.465C275.044 193.964 274.9 193.487 274.613 193.036C274.326 192.58 273.804 192.353 273.048 192.353C272.519 192.353 272.054 192.528 271.653 192.879C271.257 193.23 271.059 193.758 271.059 194.465C271.059 195.085 271.239 195.606 271.599 196.03C271.963 196.45 272.467 196.659 273.109 196.659Z" fill="#64728C"/>
<path d="M314.425 187.875V188.948C314.11 189.254 313.691 189.785 313.167 190.541C312.647 191.298 312.187 192.113 311.786 192.988C311.39 193.84 311.089 194.618 310.884 195.319C310.752 195.771 310.581 196.497 310.371 197.5H309.011C309.321 195.632 310.004 193.772 311.062 191.922C311.686 190.837 312.342 189.901 313.03 189.112H307.616V187.875H314.425Z" fill="#64728C"/>
<path d="M82.9111 229.812C83.4535 229.812 83.8773 229.662 84.1826 229.361C84.488 229.056 84.6406 228.694 84.6406 228.274C84.6406 227.91 84.4948 227.575 84.2031 227.27C83.9115 226.964 83.4671 226.812 82.8701 226.812C82.2777 226.812 81.8493 226.964 81.585 227.27C81.3206 227.575 81.1885 227.933 81.1885 228.343C81.1885 228.803 81.3594 229.163 81.7012 229.423C82.043 229.683 82.4463 229.812 82.9111 229.812ZM82.9863 234.659C83.556 234.659 84.0277 234.507 84.4014 234.201C84.7796 233.891 84.9688 233.431 84.9688 232.82C84.9688 232.187 84.7751 231.706 84.3877 231.378C84.0003 231.05 83.5036 230.886 82.8975 230.886C82.3096 230.886 81.8288 231.054 81.4551 231.392C81.0859 231.724 80.9014 232.187 80.9014 232.779C80.9014 233.29 81.07 233.732 81.4072 234.105C81.749 234.475 82.2754 234.659 82.9863 234.659ZM81.2363 230.284C80.8945 230.138 80.6279 229.967 80.4365 229.771C80.0765 229.407 79.8965 228.933 79.8965 228.35C79.8965 227.62 80.1608 226.994 80.6895 226.47C81.2181 225.946 81.9678 225.684 82.9385 225.684C83.8773 225.684 84.6133 225.932 85.1465 226.429C85.6797 226.921 85.9463 227.497 85.9463 228.158C85.9463 228.769 85.7913 229.263 85.4814 229.642C85.3083 229.856 85.0394 230.065 84.6748 230.271C85.0804 230.457 85.3994 230.672 85.6318 230.913C86.0648 231.369 86.2812 231.961 86.2812 232.69C86.2812 233.552 85.9919 234.283 85.4131 234.885C84.8343 235.482 84.0163 235.78 82.959 235.78C82.0065 235.78 81.1999 235.523 80.5391 235.008C79.8828 234.488 79.5547 233.736 79.5547 232.752C79.5547 232.173 79.696 231.674 79.9785 231.255C80.2611 230.831 80.6803 230.507 81.2363 230.284Z" fill="#64728C"/>
<path d="M118.963 233.135C118.999 233.814 119.261 234.283 119.749 234.543C120 234.68 120.282 234.748 120.597 234.748C121.185 234.748 121.686 234.504 122.101 234.017C122.515 233.524 122.809 232.529 122.982 231.029C122.709 231.462 122.369 231.768 121.964 231.945C121.563 232.118 121.13 232.205 120.665 232.205C119.722 232.205 118.974 231.911 118.423 231.323C117.876 230.735 117.603 229.979 117.603 229.054C117.603 228.165 117.874 227.383 118.416 226.709C118.958 226.035 119.758 225.697 120.815 225.697C122.242 225.697 123.226 226.34 123.769 227.625C124.069 228.331 124.22 229.215 124.22 230.277C124.22 231.476 124.04 232.538 123.68 233.463C123.083 235.003 122.071 235.773 120.645 235.773C119.688 235.773 118.961 235.523 118.464 235.021C117.967 234.52 117.719 233.891 117.719 233.135H118.963ZM120.829 231.125C121.317 231.125 121.761 230.965 122.162 230.646C122.568 230.323 122.771 229.76 122.771 228.958C122.771 228.238 122.588 227.702 122.224 227.352C121.864 226.996 121.403 226.818 120.843 226.818C120.241 226.818 119.763 227.021 119.407 227.427C119.056 227.828 118.881 228.366 118.881 229.04C118.881 229.678 119.036 230.186 119.346 230.564C119.656 230.938 120.15 231.125 120.829 231.125Z" fill="#64728C"/>
<path d="M152.547 228.568V227.625C153.436 227.538 154.055 227.395 154.406 227.194C154.757 226.989 155.019 226.508 155.192 225.752H156.163V235.5H154.851V228.568H152.547ZM162.787 225.711C164.054 225.711 164.97 226.233 165.535 227.276C165.973 228.083 166.191 229.188 166.191 230.592C166.191 231.923 165.993 233.023 165.597 233.894C165.022 235.142 164.084 235.767 162.78 235.767C161.604 235.767 160.729 235.256 160.155 234.235C159.677 233.383 159.438 232.239 159.438 230.804C159.438 229.692 159.581 228.737 159.868 227.939C160.406 226.454 161.379 225.711 162.787 225.711ZM162.773 234.646C163.411 234.646 163.92 234.363 164.298 233.798C164.676 233.233 164.865 232.18 164.865 230.64C164.865 229.528 164.729 228.614 164.455 227.898C164.182 227.178 163.651 226.818 162.862 226.818C162.138 226.818 161.607 227.16 161.27 227.844C160.937 228.523 160.771 229.525 160.771 230.852C160.771 231.85 160.878 232.652 161.092 233.258C161.42 234.183 161.98 234.646 162.773 234.646Z" fill="#64728C"/>
<path d="M191.066 228.568V227.625C191.955 227.538 192.575 227.395 192.926 227.194C193.277 226.989 193.539 226.508 193.712 225.752H194.683V235.5H193.37V228.568H191.066ZM197.82 228.568V227.625C198.709 227.538 199.329 227.395 199.68 227.194C200.031 226.989 200.293 226.508 200.466 225.752H201.437V235.5H200.124V228.568H197.82Z" fill="#64728C"/>
<path d="M228.547 228.568V227.625C229.436 227.538 230.055 227.395 230.406 227.194C230.757 226.989 231.019 226.508 231.192 225.752H232.163V235.5H230.851V228.568H228.547ZM235.438 235.5C235.483 234.657 235.656 233.923 235.957 233.299C236.262 232.674 236.855 232.107 237.734 231.597L239.047 230.838C239.635 230.496 240.047 230.204 240.284 229.963C240.658 229.585 240.845 229.152 240.845 228.664C240.845 228.094 240.674 227.643 240.332 227.311C239.99 226.973 239.535 226.805 238.965 226.805C238.122 226.805 237.538 227.124 237.215 227.762C237.042 228.104 236.946 228.577 236.928 229.184H235.677C235.69 228.331 235.848 227.636 236.148 227.099C236.682 226.151 237.623 225.677 238.972 225.677C240.093 225.677 240.911 225.98 241.426 226.586C241.945 227.192 242.205 227.867 242.205 228.609C242.205 229.393 241.929 230.063 241.378 230.619C241.059 230.943 240.487 231.335 239.662 231.795L238.726 232.314C238.279 232.561 237.928 232.795 237.673 233.019C237.217 233.415 236.93 233.855 236.812 234.338H242.157V235.5H235.438Z" fill="#64728C"/>
<path d="M266.547 228.568V227.625C267.436 227.538 268.055 227.395 268.406 227.194C268.757 226.989 269.019 226.508 269.192 225.752H270.163V235.5H268.851V228.568H266.547ZM276.637 235.767C275.479 235.767 274.638 235.45 274.114 234.816C273.595 234.178 273.335 233.404 273.335 232.492H274.62C274.675 233.126 274.793 233.586 274.976 233.873C275.295 234.388 275.871 234.646 276.705 234.646C277.352 234.646 277.872 234.472 278.264 234.126C278.656 233.78 278.852 233.333 278.852 232.786C278.852 232.112 278.644 231.64 278.229 231.371C277.819 231.102 277.247 230.968 276.514 230.968C276.432 230.968 276.347 230.97 276.261 230.975C276.179 230.975 276.094 230.977 276.008 230.981V229.895C276.135 229.908 276.243 229.917 276.329 229.922C276.416 229.926 276.509 229.929 276.609 229.929C277.07 229.929 277.448 229.856 277.744 229.71C278.264 229.455 278.523 228.999 278.523 228.343C278.523 227.855 278.35 227.479 278.004 227.215C277.658 226.951 277.254 226.818 276.794 226.818C275.974 226.818 275.406 227.092 275.092 227.639C274.919 227.939 274.821 228.368 274.798 228.924H273.581C273.581 228.195 273.727 227.575 274.019 227.064C274.52 226.153 275.402 225.697 276.664 225.697C277.662 225.697 278.435 225.921 278.981 226.367C279.528 226.809 279.802 227.452 279.802 228.295C279.802 228.896 279.64 229.384 279.316 229.758C279.116 229.99 278.856 230.173 278.537 230.305C279.052 230.446 279.453 230.719 279.74 231.125C280.032 231.526 280.178 232.018 280.178 232.602C280.178 233.536 279.87 234.297 279.255 234.885C278.64 235.473 277.767 235.767 276.637 235.767Z" fill="#64728C"/>
<path d="M304.547 228.568V227.625C305.436 227.538 306.055 227.395 306.406 227.194C306.757 226.989 307.019 226.508 307.192 225.752H308.163V235.5H306.851V228.568H304.547ZM315.628 232.034V227.598L312.49 232.034H315.628ZM315.648 235.5V233.107H311.355V231.904L315.84 225.684H316.879V232.034H318.321V233.107H316.879V235.5H315.648Z" fill="#64728C"/>
<path d="M296 186C296 181.582 299.582 178 304 178H318C322.418 178 326 181.582 326 186V314C326 318.418 322.418 322 318 322H304C299.582 322 296 318.418 296 314V186Z" fill="#64728C" fill-opacity="0.06"/>
<path d="M76.5469 266.568V265.625C77.4355 265.538 78.0553 265.395 78.4062 265.194C78.7572 264.989 79.0192 264.508 79.1924 263.752H80.1631V273.5H78.8506V266.568H76.5469ZM84.7295 271.005C84.8115 271.707 85.1374 272.192 85.707 272.461C85.9987 272.598 86.3359 272.666 86.7188 272.666C87.4479 272.666 87.988 272.434 88.3389 271.969C88.6898 271.504 88.8652 270.989 88.8652 270.424C88.8652 269.74 88.6556 269.212 88.2363 268.838C87.8216 268.464 87.3226 268.277 86.7393 268.277C86.3154 268.277 85.9508 268.359 85.6455 268.523C85.3447 268.688 85.0872 268.915 84.873 269.207L83.8066 269.146L84.5518 263.875H89.6377V265.064H85.4746L85.0576 267.785C85.2855 267.612 85.502 267.482 85.707 267.396C86.0716 267.245 86.4932 267.17 86.9717 267.17C87.8695 267.17 88.6305 267.459 89.2549 268.038C89.8792 268.617 90.1914 269.351 90.1914 270.239C90.1914 271.164 89.9043 271.98 89.3301 272.687C88.7604 273.393 87.849 273.746 86.5957 273.746C85.7982 273.746 85.0918 273.523 84.4766 273.076C83.8659 272.625 83.5241 271.935 83.4512 271.005H84.7295Z" fill="#64728C"/>
<path d="M114.547 266.568V265.625C115.436 265.538 116.055 265.395 116.406 265.194C116.757 264.989 117.019 264.508 117.192 263.752H118.163V273.5H116.851V266.568H114.547ZM125.095 263.67C126.188 263.67 126.95 263.955 127.378 264.524C127.811 265.09 128.027 265.673 128.027 266.274H126.811C126.738 265.887 126.621 265.584 126.462 265.365C126.166 264.955 125.717 264.75 125.115 264.75C124.427 264.75 123.88 265.069 123.475 265.707C123.069 266.34 122.843 267.25 122.798 268.435C123.08 268.02 123.436 267.71 123.864 267.505C124.256 267.323 124.694 267.231 125.177 267.231C125.997 267.231 126.713 267.493 127.323 268.018C127.934 268.542 128.239 269.323 128.239 270.362C128.239 271.251 127.95 272.039 127.371 272.728C126.792 273.411 125.967 273.753 124.896 273.753C123.98 273.753 123.19 273.407 122.524 272.714C121.859 272.017 121.526 270.845 121.526 269.2C121.526 267.983 121.674 266.951 121.971 266.104C122.54 264.481 123.582 263.67 125.095 263.67ZM125.006 272.659C125.653 272.659 126.136 272.443 126.455 272.01C126.779 271.572 126.94 271.057 126.94 270.465C126.94 269.964 126.797 269.487 126.51 269.036C126.223 268.58 125.701 268.353 124.944 268.353C124.416 268.353 123.951 268.528 123.55 268.879C123.153 269.23 122.955 269.758 122.955 270.465C122.955 271.085 123.135 271.606 123.495 272.03C123.86 272.45 124.363 272.659 125.006 272.659Z" fill="#64728C"/>
<path d="M152.547 266.568V265.625C153.436 265.538 154.055 265.395 154.406 265.194C154.757 264.989 155.019 264.508 155.192 263.752H156.163V273.5H154.851V266.568H152.547ZM166.321 263.875V264.948C166.007 265.254 165.588 265.785 165.063 266.541C164.544 267.298 164.084 268.113 163.683 268.988C163.286 269.84 162.985 270.618 162.78 271.319C162.648 271.771 162.477 272.497 162.268 273.5H160.907C161.217 271.632 161.901 269.772 162.958 267.922C163.582 266.837 164.239 265.901 164.927 265.112H159.513V263.875H166.321Z" fill="#64728C"/>
<path d="M190.547 266.568V265.625C191.436 265.538 192.055 265.395 192.406 265.194C192.757 264.989 193.019 264.508 193.192 263.752H194.163V273.5H192.851V266.568H190.547ZM200.808 267.812C201.35 267.812 201.774 267.662 202.079 267.361C202.384 267.056 202.537 266.694 202.537 266.274C202.537 265.91 202.391 265.575 202.1 265.27C201.808 264.964 201.364 264.812 200.767 264.812C200.174 264.812 199.746 264.964 199.481 265.27C199.217 265.575 199.085 265.933 199.085 266.343C199.085 266.803 199.256 267.163 199.598 267.423C199.939 267.683 200.343 267.812 200.808 267.812ZM200.883 272.659C201.452 272.659 201.924 272.507 202.298 272.201C202.676 271.891 202.865 271.431 202.865 270.82C202.865 270.187 202.672 269.706 202.284 269.378C201.897 269.05 201.4 268.886 200.794 268.886C200.206 268.886 199.725 269.054 199.352 269.392C198.982 269.724 198.798 270.187 198.798 270.779C198.798 271.29 198.966 271.732 199.304 272.105C199.646 272.475 200.172 272.659 200.883 272.659ZM199.133 268.284C198.791 268.138 198.524 267.967 198.333 267.771C197.973 267.407 197.793 266.933 197.793 266.35C197.793 265.62 198.057 264.994 198.586 264.47C199.115 263.946 199.864 263.684 200.835 263.684C201.774 263.684 202.51 263.932 203.043 264.429C203.576 264.921 203.843 265.497 203.843 266.158C203.843 266.769 203.688 267.263 203.378 267.642C203.205 267.856 202.936 268.065 202.571 268.271C202.977 268.457 203.296 268.672 203.528 268.913C203.961 269.369 204.178 269.961 204.178 270.69C204.178 271.552 203.888 272.283 203.31 272.885C202.731 273.482 201.913 273.78 200.855 273.78C199.903 273.78 199.096 273.523 198.436 273.008C197.779 272.488 197.451 271.736 197.451 270.752C197.451 270.173 197.592 269.674 197.875 269.255C198.158 268.831 198.577 268.507 199.133 268.284Z" fill="#64728C"/>
<g filter="url(#filter2_d_1022_5289)">
<mask id="path-50-inside-1_1022_5289" fill="white">
<path d="M220 264C220 258.477 224.477 254 230 254H240C245.523 254 250 258.477 250 264V274C250 279.523 245.523 284 240 284H230C224.477 284 220 279.523 220 274V264Z"/>
</mask>
<path d="M220 264C220 258.477 224.477 254 230 254H240C245.523 254 250 258.477 250 264V274C250 279.523 245.523 284 240 284H230C224.477 284 220 279.523 220 274V264Z" fill="#C45500"/>
<path d="M220 254H250H220ZM250 274C250 280.627 244.627 286 238 286H232C225.373 286 220 280.627 220 274C220 278.418 224.477 282 230 282H240C245.523 282 250 278.418 250 274ZM220 284V254V284ZM250 254V284V254Z" fill="#AA3E00" mask="url(#path-50-inside-1_1022_5289)"/>
<path d="M232.505 273.5H230.509V266.664H228.178V265.338C228.793 265.311 229.224 265.27 229.47 265.215C229.862 265.128 230.181 264.955 230.427 264.695C230.595 264.518 230.723 264.281 230.81 263.984C230.86 263.807 230.885 263.674 230.885 263.588H232.505V273.5ZM238.637 273.787C237.894 273.787 237.226 273.568 236.634 273.131C236.041 272.689 235.702 272.046 235.615 271.203H237.557C237.602 271.495 237.725 271.732 237.926 271.914C238.126 272.096 238.393 272.188 238.726 272.188C239.368 272.188 239.819 271.832 240.079 271.121C240.22 270.729 240.309 270.157 240.346 269.405C240.168 269.629 239.979 269.799 239.778 269.918C239.414 270.137 238.965 270.246 238.432 270.246C237.643 270.246 236.944 269.975 236.333 269.433C235.722 268.886 235.417 268.1 235.417 267.074C235.417 266.012 235.722 265.153 236.333 264.497C236.948 263.836 237.746 263.506 238.726 263.506C240.234 263.506 241.269 264.174 241.829 265.509C242.148 266.265 242.308 267.261 242.308 268.496C242.308 269.695 242.155 270.695 241.85 271.497C241.266 273.024 240.195 273.787 238.637 273.787ZM237.953 265.413C237.579 265.705 237.393 266.199 237.393 266.896C237.393 267.484 237.511 267.926 237.748 268.223C237.99 268.514 238.359 268.66 238.855 268.66C239.124 268.66 239.377 268.583 239.614 268.428C240.056 268.145 240.277 267.655 240.277 266.958C240.277 266.397 240.145 265.953 239.881 265.625C239.621 265.297 239.263 265.133 238.808 265.133C238.475 265.133 238.19 265.226 237.953 265.413Z" fill="white"/>
</g>
<path d="M265.645 273.5C265.69 272.657 265.863 271.923 266.164 271.299C266.469 270.674 267.062 270.107 267.941 269.597L269.254 268.838C269.842 268.496 270.254 268.204 270.491 267.963C270.865 267.585 271.052 267.152 271.052 266.664C271.052 266.094 270.881 265.643 270.539 265.311C270.197 264.973 269.742 264.805 269.172 264.805C268.329 264.805 267.745 265.124 267.422 265.762C267.249 266.104 267.153 266.577 267.135 267.184H265.884C265.897 266.331 266.055 265.636 266.355 265.099C266.889 264.151 267.83 263.677 269.179 263.677C270.3 263.677 271.118 263.98 271.633 264.586C272.152 265.192 272.412 265.867 272.412 266.609C272.412 267.393 272.136 268.063 271.585 268.619C271.266 268.943 270.694 269.335 269.869 269.795L268.933 270.314C268.486 270.561 268.135 270.795 267.88 271.019C267.424 271.415 267.137 271.855 267.019 272.338H272.364V273.5H265.645ZM276.787 263.711C278.054 263.711 278.97 264.233 279.535 265.276C279.973 266.083 280.191 267.188 280.191 268.592C280.191 269.923 279.993 271.023 279.597 271.894C279.022 273.142 278.084 273.767 276.78 273.767C275.604 273.767 274.729 273.256 274.155 272.235C273.677 271.383 273.438 270.239 273.438 268.804C273.438 267.692 273.581 266.737 273.868 265.939C274.406 264.454 275.379 263.711 276.787 263.711ZM276.773 272.646C277.411 272.646 277.92 272.363 278.298 271.798C278.676 271.233 278.865 270.18 278.865 268.64C278.865 267.528 278.729 266.614 278.455 265.898C278.182 265.178 277.651 264.818 276.862 264.818C276.138 264.818 275.607 265.16 275.27 265.844C274.937 266.523 274.771 267.525 274.771 268.852C274.771 269.85 274.878 270.652 275.092 271.258C275.42 272.183 275.98 272.646 276.773 272.646Z" fill="#64728C"/>
<path d="M303.645 273.5C303.69 272.657 303.863 271.923 304.164 271.299C304.469 270.674 305.062 270.107 305.941 269.597L307.254 268.838C307.842 268.496 308.254 268.204 308.491 267.963C308.865 267.585 309.052 267.152 309.052 266.664C309.052 266.094 308.881 265.643 308.539 265.311C308.197 264.973 307.742 264.805 307.172 264.805C306.329 264.805 305.745 265.124 305.422 265.762C305.249 266.104 305.153 266.577 305.135 267.184H303.884C303.897 266.331 304.055 265.636 304.355 265.099C304.889 264.151 305.83 263.677 307.179 263.677C308.3 263.677 309.118 263.98 309.633 264.586C310.152 265.192 310.412 265.867 310.412 266.609C310.412 267.393 310.136 268.063 309.585 268.619C309.266 268.943 308.694 269.335 307.869 269.795L306.933 270.314C306.486 270.561 306.135 270.795 305.88 271.019C305.424 271.415 305.137 271.855 305.019 272.338H310.364V273.5H303.645ZM312.34 266.568V265.625C313.229 265.538 313.848 265.395 314.199 265.194C314.55 264.989 314.812 264.508 314.985 263.752H315.956V273.5H314.644V266.568H312.34Z" fill="#64728C"/>
<path d="M75.6445 311.5C75.6901 310.657 75.8633 309.923 76.1641 309.299C76.4694 308.674 77.0618 308.107 77.9414 307.597L79.2539 306.838C79.8418 306.496 80.2542 306.204 80.4912 305.963C80.8649 305.585 81.0518 305.152 81.0518 304.664C81.0518 304.094 80.8809 303.643 80.5391 303.311C80.1973 302.973 79.7415 302.805 79.1719 302.805C78.3288 302.805 77.7454 303.124 77.4219 303.762C77.2487 304.104 77.153 304.577 77.1348 305.184H75.8838C75.8975 304.331 76.0547 303.636 76.3555 303.099C76.8887 302.151 77.8298 301.677 79.1787 301.677C80.2998 301.677 81.1178 301.98 81.6328 302.586C82.1523 303.192 82.4121 303.867 82.4121 304.609C82.4121 305.393 82.1364 306.063 81.585 306.619C81.266 306.943 80.694 307.335 79.8691 307.795L78.9326 308.314C78.486 308.561 78.1351 308.795 77.8799 309.019C77.4242 309.415 77.137 309.855 77.0186 310.338H82.3643V311.5H75.6445ZM83.4375 311.5C83.4831 310.657 83.6562 309.923 83.957 309.299C84.2624 308.674 84.8548 308.107 85.7344 307.597L87.0469 306.838C87.6348 306.496 88.0472 306.204 88.2842 305.963C88.6579 305.585 88.8447 305.152 88.8447 304.664C88.8447 304.094 88.6738 303.643 88.332 303.311C87.9902 302.973 87.5345 302.805 86.9648 302.805C86.1217 302.805 85.5384 303.124 85.2148 303.762C85.0417 304.104 84.946 304.577 84.9277 305.184H83.6768C83.6904 304.331 83.8477 303.636 84.1484 303.099C84.6816 302.151 85.6227 301.677 86.9717 301.677C88.0928 301.677 88.9108 301.98 89.4258 302.586C89.9453 303.192 90.2051 303.867 90.2051 304.609C90.2051 305.393 89.9294 306.063 89.3779 306.619C89.0589 306.943 88.487 307.335 87.6621 307.795L86.7256 308.314C86.279 308.561 85.9281 308.795 85.6729 309.019C85.2171 309.415 84.93 309.855 84.8115 310.338H90.1572V311.5H83.4375Z" fill="#64728C"/>
<path d="M113.645 311.5C113.69 310.657 113.863 309.923 114.164 309.299C114.469 308.674 115.062 308.107 115.941 307.597L117.254 306.838C117.842 306.496 118.254 306.204 118.491 305.963C118.865 305.585 119.052 305.152 119.052 304.664C119.052 304.094 118.881 303.643 118.539 303.311C118.197 302.973 117.742 302.805 117.172 302.805C116.329 302.805 115.745 303.124 115.422 303.762C115.249 304.104 115.153 304.577 115.135 305.184H113.884C113.897 304.331 114.055 303.636 114.355 303.099C114.889 302.151 115.83 301.677 117.179 301.677C118.3 301.677 119.118 301.98 119.633 302.586C120.152 303.192 120.412 303.867 120.412 304.609C120.412 305.393 120.136 306.063 119.585 306.619C119.266 306.943 118.694 307.335 117.869 307.795L116.933 308.314C116.486 308.561 116.135 308.795 115.88 309.019C115.424 309.415 115.137 309.855 115.019 310.338H120.364V311.5H113.645ZM124.637 311.767C123.479 311.767 122.638 311.45 122.114 310.816C121.595 310.178 121.335 309.404 121.335 308.492H122.62C122.675 309.126 122.793 309.586 122.976 309.873C123.295 310.388 123.871 310.646 124.705 310.646C125.352 310.646 125.872 310.472 126.264 310.126C126.656 309.78 126.852 309.333 126.852 308.786C126.852 308.112 126.644 307.64 126.229 307.371C125.819 307.102 125.247 306.968 124.514 306.968C124.432 306.968 124.347 306.97 124.261 306.975C124.179 306.975 124.094 306.977 124.008 306.981V305.895C124.135 305.908 124.243 305.917 124.329 305.922C124.416 305.926 124.509 305.929 124.609 305.929C125.07 305.929 125.448 305.856 125.744 305.71C126.264 305.455 126.523 304.999 126.523 304.343C126.523 303.855 126.35 303.479 126.004 303.215C125.658 302.951 125.254 302.818 124.794 302.818C123.974 302.818 123.406 303.092 123.092 303.639C122.919 303.939 122.821 304.368 122.798 304.924H121.581C121.581 304.195 121.727 303.575 122.019 303.064C122.52 302.153 123.402 301.697 124.664 301.697C125.662 301.697 126.435 301.921 126.981 302.367C127.528 302.809 127.802 303.452 127.802 304.295C127.802 304.896 127.64 305.384 127.316 305.758C127.116 305.99 126.856 306.173 126.537 306.305C127.052 306.446 127.453 306.719 127.74 307.125C128.032 307.526 128.178 308.018 128.178 308.602C128.178 309.536 127.87 310.297 127.255 310.885C126.64 311.473 125.767 311.767 124.637 311.767Z" fill="#64728C"/>
<path d="M151.645 311.5C151.69 310.657 151.863 309.923 152.164 309.299C152.469 308.674 153.062 308.107 153.941 307.597L155.254 306.838C155.842 306.496 156.254 306.204 156.491 305.963C156.865 305.585 157.052 305.152 157.052 304.664C157.052 304.094 156.881 303.643 156.539 303.311C156.197 302.973 155.742 302.805 155.172 302.805C154.329 302.805 153.745 303.124 153.422 303.762C153.249 304.104 153.153 304.577 153.135 305.184H151.884C151.897 304.331 152.055 303.636 152.355 303.099C152.889 302.151 153.83 301.677 155.179 301.677C156.3 301.677 157.118 301.98 157.633 302.586C158.152 303.192 158.412 303.867 158.412 304.609C158.412 305.393 158.136 306.063 157.585 306.619C157.266 306.943 156.694 307.335 155.869 307.795L154.933 308.314C154.486 308.561 154.135 308.795 153.88 309.019C153.424 309.415 153.137 309.855 153.019 310.338H158.364V311.5H151.645ZM163.628 308.034V303.598L160.49 308.034H163.628ZM163.648 311.5V309.107H159.355V307.904L163.84 301.684H164.879V308.034H166.321V309.107H164.879V311.5H163.648Z" fill="#64728C"/>
<path d="M189.645 311.5C189.69 310.657 189.863 309.923 190.164 309.299C190.469 308.674 191.062 308.107 191.941 307.597L193.254 306.838C193.842 306.496 194.254 306.204 194.491 305.963C194.865 305.585 195.052 305.152 195.052 304.664C195.052 304.094 194.881 303.643 194.539 303.311C194.197 302.973 193.742 302.805 193.172 302.805C192.329 302.805 191.745 303.124 191.422 303.762C191.249 304.104 191.153 304.577 191.135 305.184H189.884C189.897 304.331 190.055 303.636 190.355 303.099C190.889 302.151 191.83 301.677 193.179 301.677C194.3 301.677 195.118 301.98 195.633 302.586C196.152 303.192 196.412 303.867 196.412 304.609C196.412 305.393 196.136 306.063 195.585 306.619C195.266 306.943 194.694 307.335 193.869 307.795L192.933 308.314C192.486 308.561 192.135 308.795 191.88 309.019C191.424 309.415 191.137 309.855 191.019 310.338H196.364V311.5H189.645ZM198.729 309.005C198.812 309.707 199.137 310.192 199.707 310.461C199.999 310.598 200.336 310.666 200.719 310.666C201.448 310.666 201.988 310.434 202.339 309.969C202.69 309.504 202.865 308.989 202.865 308.424C202.865 307.74 202.656 307.212 202.236 306.838C201.822 306.464 201.323 306.277 200.739 306.277C200.315 306.277 199.951 306.359 199.646 306.523C199.345 306.688 199.087 306.915 198.873 307.207L197.807 307.146L198.552 301.875H203.638V303.064H199.475L199.058 305.785C199.285 305.612 199.502 305.482 199.707 305.396C200.072 305.245 200.493 305.17 200.972 305.17C201.869 305.17 202.631 305.459 203.255 306.038C203.879 306.617 204.191 307.351 204.191 308.239C204.191 309.164 203.904 309.98 203.33 310.687C202.76 311.393 201.849 311.746 200.596 311.746C199.798 311.746 199.092 311.523 198.477 311.076C197.866 310.625 197.524 309.935 197.451 309.005H198.729Z" fill="#64728C"/>
<path d="M227.645 311.5C227.69 310.657 227.863 309.923 228.164 309.299C228.469 308.674 229.062 308.107 229.941 307.597L231.254 306.838C231.842 306.496 232.254 306.204 232.491 305.963C232.865 305.585 233.052 305.152 233.052 304.664C233.052 304.094 232.881 303.643 232.539 303.311C232.197 302.973 231.742 302.805 231.172 302.805C230.329 302.805 229.745 303.124 229.422 303.762C229.249 304.104 229.153 304.577 229.135 305.184H227.884C227.897 304.331 228.055 303.636 228.355 303.099C228.889 302.151 229.83 301.677 231.179 301.677C232.3 301.677 233.118 301.98 233.633 302.586C234.152 303.192 234.412 303.867 234.412 304.609C234.412 305.393 234.136 306.063 233.585 306.619C233.266 306.943 232.694 307.335 231.869 307.795L230.933 308.314C230.486 308.561 230.135 308.795 229.88 309.019C229.424 309.415 229.137 309.855 229.019 310.338H234.364V311.5H227.645ZM239.095 301.67C240.188 301.67 240.95 301.955 241.378 302.524C241.811 303.09 242.027 303.673 242.027 304.274H240.811C240.738 303.887 240.621 303.584 240.462 303.365C240.166 302.955 239.717 302.75 239.115 302.75C238.427 302.75 237.88 303.069 237.475 303.707C237.069 304.34 236.843 305.25 236.798 306.435C237.08 306.02 237.436 305.71 237.864 305.505C238.256 305.323 238.694 305.231 239.177 305.231C239.997 305.231 240.713 305.493 241.323 306.018C241.934 306.542 242.239 307.323 242.239 308.362C242.239 309.251 241.95 310.039 241.371 310.728C240.792 311.411 239.967 311.753 238.896 311.753C237.98 311.753 237.19 311.407 236.524 310.714C235.859 310.017 235.526 308.845 235.526 307.2C235.526 305.983 235.674 304.951 235.971 304.104C236.54 302.481 237.582 301.67 239.095 301.67ZM239.006 310.659C239.653 310.659 240.136 310.443 240.455 310.01C240.779 309.572 240.94 309.057 240.94 308.465C240.94 307.964 240.797 307.487 240.51 307.036C240.223 306.58 239.701 306.353 238.944 306.353C238.416 306.353 237.951 306.528 237.55 306.879C237.153 307.23 236.955 307.758 236.955 308.465C236.955 309.085 237.135 309.606 237.495 310.03C237.86 310.45 238.363 310.659 239.006 310.659Z" fill="#64728C"/>
<path d="M265.645 311.5C265.69 310.657 265.863 309.923 266.164 309.299C266.469 308.674 267.062 308.107 267.941 307.597L269.254 306.838C269.842 306.496 270.254 306.204 270.491 305.963C270.865 305.585 271.052 305.152 271.052 304.664C271.052 304.094 270.881 303.643 270.539 303.311C270.197 302.973 269.742 302.805 269.172 302.805C268.329 302.805 267.745 303.124 267.422 303.762C267.249 304.104 267.153 304.577 267.135 305.184H265.884C265.897 304.331 266.055 303.636 266.355 303.099C266.889 302.151 267.83 301.677 269.179 301.677C270.3 301.677 271.118 301.98 271.633 302.586C272.152 303.192 272.412 303.867 272.412 304.609C272.412 305.393 272.136 306.063 271.585 306.619C271.266 306.943 270.694 307.335 269.869 307.795L268.933 308.314C268.486 308.561 268.135 308.795 267.88 309.019C267.424 309.415 267.137 309.855 267.019 310.338H272.364V311.5H265.645ZM280.321 301.875V302.948C280.007 303.254 279.588 303.785 279.063 304.541C278.544 305.298 278.084 306.113 277.683 306.988C277.286 307.84 276.985 308.618 276.78 309.319C276.648 309.771 276.477 310.497 276.268 311.5H274.907C275.217 309.632 275.901 307.772 276.958 305.922C277.582 304.837 278.239 303.901 278.927 303.112H273.513V301.875H280.321Z" fill="#64728C"/>
<path d="M303.645 311.5C303.69 310.657 303.863 309.923 304.164 309.299C304.469 308.674 305.062 308.107 305.941 307.597L307.254 306.838C307.842 306.496 308.254 306.204 308.491 305.963C308.865 305.585 309.052 305.152 309.052 304.664C309.052 304.094 308.881 303.643 308.539 303.311C308.197 302.973 307.742 302.805 307.172 302.805C306.329 302.805 305.745 303.124 305.422 303.762C305.249 304.104 305.153 304.577 305.135 305.184H303.884C303.897 304.331 304.055 303.636 304.355 303.099C304.889 302.151 305.83 301.677 307.179 301.677C308.3 301.677 309.118 301.98 309.633 302.586C310.152 303.192 310.412 303.867 310.412 304.609C310.412 305.393 310.136 306.063 309.585 306.619C309.266 306.943 308.694 307.335 307.869 307.795L306.933 308.314C306.486 308.561 306.135 308.795 305.88 309.019C305.424 309.415 305.137 309.855 305.019 310.338H310.364V311.5H303.645ZM314.808 305.812C315.35 305.812 315.774 305.662 316.079 305.361C316.384 305.056 316.537 304.694 316.537 304.274C316.537 303.91 316.391 303.575 316.1 303.27C315.808 302.964 315.364 302.812 314.767 302.812C314.174 302.812 313.746 302.964 313.481 303.27C313.217 303.575 313.085 303.933 313.085 304.343C313.085 304.803 313.256 305.163 313.598 305.423C313.939 305.683 314.343 305.812 314.808 305.812ZM314.883 310.659C315.452 310.659 315.924 310.507 316.298 310.201C316.676 309.891 316.865 309.431 316.865 308.82C316.865 308.187 316.672 307.706 316.284 307.378C315.897 307.05 315.4 306.886 314.794 306.886C314.206 306.886 313.725 307.054 313.352 307.392C312.982 307.724 312.798 308.187 312.798 308.779C312.798 309.29 312.966 309.732 313.304 310.105C313.646 310.475 314.172 310.659 314.883 310.659ZM313.133 306.284C312.791 306.138 312.524 305.967 312.333 305.771C311.973 305.407 311.793 304.933 311.793 304.35C311.793 303.62 312.057 302.994 312.586 302.47C313.115 301.946 313.864 301.684 314.835 301.684C315.774 301.684 316.51 301.932 317.043 302.429C317.576 302.921 317.843 303.497 317.843 304.158C317.843 304.769 317.688 305.263 317.378 305.642C317.205 305.856 316.936 306.065 316.571 306.271C316.977 306.457 317.296 306.672 317.528 306.913C317.961 307.369 318.178 307.961 318.178 308.69C318.178 309.552 317.888 310.283 317.31 310.885C316.731 311.482 315.913 311.78 314.855 311.78C313.903 311.78 313.096 311.523 312.436 311.008C311.779 310.488 311.451 309.736 311.451 308.752C311.451 308.173 311.592 307.674 311.875 307.255C312.158 306.831 312.577 306.507 313.133 306.284Z" fill="#64728C"/>
<path d="M75.6445 349.5C75.6901 348.657 75.8633 347.923 76.1641 347.299C76.4694 346.674 77.0618 346.107 77.9414 345.597L79.2539 344.838C79.8418 344.496 80.2542 344.204 80.4912 343.963C80.8649 343.585 81.0518 343.152 81.0518 342.664C81.0518 342.094 80.8809 341.643 80.5391 341.311C80.1973 340.973 79.7415 340.805 79.1719 340.805C78.3288 340.805 77.7454 341.124 77.4219 341.762C77.2487 342.104 77.153 342.577 77.1348 343.184H75.8838C75.8975 342.331 76.0547 341.636 76.3555 341.099C76.8887 340.151 77.8298 339.677 79.1787 339.677C80.2998 339.677 81.1178 339.98 81.6328 340.586C82.1523 341.192 82.4121 341.867 82.4121 342.609C82.4121 343.393 82.1364 344.063 81.585 344.619C81.266 344.943 80.694 345.335 79.8691 345.795L78.9326 346.314C78.486 346.561 78.1351 346.795 77.8799 347.019C77.4242 347.415 77.137 347.855 77.0186 348.338H82.3643V349.5H75.6445ZM84.8594 347.135C84.8958 347.814 85.1579 348.283 85.6455 348.543C85.8962 348.68 86.1787 348.748 86.4932 348.748C87.0811 348.748 87.5824 348.504 87.9971 348.017C88.4118 347.524 88.7057 346.529 88.8789 345.029C88.6055 345.462 88.266 345.768 87.8604 345.945C87.4593 346.118 87.0264 346.205 86.5615 346.205C85.6182 346.205 84.8708 345.911 84.3193 345.323C83.7725 344.735 83.499 343.979 83.499 343.054C83.499 342.165 83.7702 341.383 84.3125 340.709C84.8548 340.035 85.6546 339.697 86.7119 339.697C88.1383 339.697 89.1227 340.34 89.665 341.625C89.9658 342.331 90.1162 343.215 90.1162 344.277C90.1162 345.476 89.9362 346.538 89.5762 347.463C88.9792 349.003 87.9674 349.773 86.541 349.773C85.584 349.773 84.8571 349.523 84.3604 349.021C83.8636 348.52 83.6152 347.891 83.6152 347.135H84.8594ZM86.7256 345.125C87.2132 345.125 87.6576 344.965 88.0586 344.646C88.4642 344.323 88.667 343.76 88.667 342.958C88.667 342.238 88.4847 341.702 88.1201 341.352C87.7601 340.996 87.2998 340.818 86.7393 340.818C86.1377 340.818 85.6592 341.021 85.3037 341.427C84.9528 341.828 84.7773 342.366 84.7773 343.04C84.7773 343.678 84.9323 344.186 85.2422 344.564C85.5521 344.938 86.0465 345.125 86.7256 345.125Z" fill="#64728C"/>
<path d="M116.844 349.767C115.686 349.767 114.845 349.45 114.321 348.816C113.802 348.178 113.542 347.404 113.542 346.492H114.827C114.882 347.126 115 347.586 115.183 347.873C115.502 348.388 116.078 348.646 116.912 348.646C117.559 348.646 118.079 348.472 118.471 348.126C118.863 347.78 119.059 347.333 119.059 346.786C119.059 346.112 118.851 345.64 118.437 345.371C118.026 345.102 117.454 344.968 116.721 344.968C116.639 344.968 116.554 344.97 116.468 344.975C116.386 344.975 116.301 344.977 116.215 344.981V343.895C116.342 343.908 116.45 343.917 116.536 343.922C116.623 343.926 116.716 343.929 116.816 343.929C117.277 343.929 117.655 343.856 117.951 343.71C118.471 343.455 118.73 342.999 118.73 342.343C118.73 341.855 118.557 341.479 118.211 341.215C117.865 340.951 117.461 340.818 117.001 340.818C116.181 340.818 115.613 341.092 115.299 341.639C115.126 341.939 115.028 342.368 115.005 342.924H113.788C113.788 342.195 113.934 341.575 114.226 341.064C114.727 340.153 115.609 339.697 116.871 339.697C117.869 339.697 118.642 339.921 119.188 340.367C119.735 340.809 120.009 341.452 120.009 342.295C120.009 342.896 119.847 343.384 119.523 343.758C119.323 343.99 119.063 344.173 118.744 344.305C119.259 344.446 119.66 344.719 119.947 345.125C120.239 345.526 120.385 346.018 120.385 346.602C120.385 347.536 120.077 348.297 119.462 348.885C118.847 349.473 117.974 349.767 116.844 349.767ZM124.787 339.711C126.054 339.711 126.97 340.233 127.535 341.276C127.973 342.083 128.191 343.188 128.191 344.592C128.191 345.923 127.993 347.023 127.597 347.894C127.022 349.142 126.084 349.767 124.78 349.767C123.604 349.767 122.729 349.256 122.155 348.235C121.677 347.383 121.438 346.239 121.438 344.804C121.438 343.692 121.581 342.737 121.868 341.939C122.406 340.454 123.379 339.711 124.787 339.711ZM124.773 348.646C125.411 348.646 125.92 348.363 126.298 347.798C126.676 347.233 126.865 346.18 126.865 344.64C126.865 343.528 126.729 342.614 126.455 341.898C126.182 341.178 125.651 340.818 124.862 340.818C124.138 340.818 123.607 341.16 123.27 341.844C122.937 342.523 122.771 343.525 122.771 344.852C122.771 345.85 122.878 346.652 123.092 347.258C123.42 348.183 123.98 348.646 124.773 348.646Z" fill="#64728C"/>
<path d="M154.844 349.767C153.686 349.767 152.845 349.45 152.321 348.816C151.802 348.178 151.542 347.404 151.542 346.492H152.827C152.882 347.126 153 347.586 153.183 347.873C153.502 348.388 154.078 348.646 154.912 348.646C155.559 348.646 156.079 348.472 156.471 348.126C156.863 347.78 157.059 347.333 157.059 346.786C157.059 346.112 156.851 345.64 156.437 345.371C156.026 345.102 155.454 344.968 154.721 344.968C154.639 344.968 154.554 344.97 154.468 344.975C154.386 344.975 154.301 344.977 154.215 344.981V343.895C154.342 343.908 154.45 343.917 154.536 343.922C154.623 343.926 154.716 343.929 154.816 343.929C155.277 343.929 155.655 343.856 155.951 343.71C156.471 343.455 156.73 342.999 156.73 342.343C156.73 341.855 156.557 341.479 156.211 341.215C155.865 340.951 155.461 340.818 155.001 340.818C154.181 340.818 153.613 341.092 153.299 341.639C153.126 341.939 153.028 342.368 153.005 342.924H151.788C151.788 342.195 151.934 341.575 152.226 341.064C152.727 340.153 153.609 339.697 154.871 339.697C155.869 339.697 156.642 339.921 157.188 340.367C157.735 340.809 158.009 341.452 158.009 342.295C158.009 342.896 157.847 343.384 157.523 343.758C157.323 343.99 157.063 344.173 156.744 344.305C157.259 344.446 157.66 344.719 157.947 345.125C158.239 345.526 158.385 346.018 158.385 346.602C158.385 347.536 158.077 348.297 157.462 348.885C156.847 349.473 155.974 349.767 154.844 349.767ZM160.34 342.568V341.625C161.229 341.538 161.848 341.395 162.199 341.194C162.55 340.989 162.812 340.508 162.985 339.752H163.956V349.5H162.644V342.568H160.34Z" fill="#64728C"/>
<g clip-path="url(#clip0_1022_5289)">
<path d="M76.2446 388.112C75.9553 388.112 75.7313 388.033 75.5726 387.874C75.4233 387.706 75.3486 387.477 75.3486 387.188V379.628H72.6186C72.376 379.628 72.1846 379.563 72.0446 379.432C71.914 379.292 71.8486 379.105 71.8486 378.872C71.8486 378.629 71.914 378.447 72.0446 378.326C72.1846 378.195 72.376 378.13 72.6186 378.13H79.8706C80.1133 378.13 80.3 378.195 80.4306 378.326C80.5706 378.447 80.6406 378.629 80.6406 378.872C80.6406 379.105 80.5706 379.292 80.4306 379.432C80.3 379.563 80.1133 379.628 79.8706 379.628H77.1406V387.188C77.1406 387.477 77.066 387.706 76.9166 387.874C76.7673 388.033 76.5433 388.112 76.2446 388.112ZM83.5242 388.14C82.8149 388.14 82.1989 387.995 81.6762 387.706C81.1535 387.417 80.7475 387.006 80.4582 386.474C80.1689 385.933 80.0242 385.298 80.0242 384.57C80.0242 384.019 80.1035 383.529 80.2622 383.1C80.4302 382.661 80.6682 382.288 80.9762 381.98C81.2842 381.663 81.6529 381.425 82.0822 381.266C82.5115 381.098 82.9922 381.014 83.5242 381.014C84.2335 381.014 84.8495 381.159 85.3722 381.448C85.8949 381.737 86.3009 382.148 86.5902 382.68C86.8795 383.212 87.0242 383.842 87.0242 384.57C87.0242 385.121 86.9402 385.615 86.7722 386.054C86.6135 386.493 86.3802 386.871 86.0722 387.188C85.7642 387.496 85.3955 387.734 84.9662 387.902C84.5369 388.061 84.0562 388.14 83.5242 388.14ZM83.5242 386.81C83.8695 386.81 84.1729 386.726 84.4342 386.558C84.6955 386.39 84.8962 386.143 85.0362 385.816C85.1855 385.48 85.2602 385.065 85.2602 384.57C85.2602 383.823 85.1015 383.268 84.7842 382.904C84.4669 382.531 84.0469 382.344 83.5242 382.344C83.1789 382.344 82.8755 382.428 82.6142 382.596C82.3529 382.755 82.1475 383.002 81.9982 383.338C81.8582 383.665 81.7882 384.075 81.7882 384.57C81.7882 385.307 81.9469 385.867 82.2642 386.25C82.5815 386.623 83.0015 386.81 83.5242 386.81ZM91.1006 388.14C90.5033 388.14 89.9759 387.995 89.5186 387.706C89.0706 387.417 88.7206 387.006 88.4686 386.474C88.2166 385.933 88.0906 385.298 88.0906 384.57C88.0906 383.833 88.2166 383.203 88.4686 382.68C88.7206 382.148 89.0706 381.737 89.5186 381.448C89.9759 381.159 90.5033 381.014 91.1006 381.014C91.6699 381.014 92.1646 381.154 92.5846 381.434C93.0139 381.714 93.3033 382.083 93.4526 382.54H93.2986V378.9C93.2986 378.611 93.3733 378.391 93.5226 378.242C93.6719 378.093 93.8866 378.018 94.1666 378.018C94.4466 378.018 94.6613 378.093 94.8106 378.242C94.9693 378.391 95.0486 378.611 95.0486 378.9V387.216C95.0486 387.505 94.9739 387.729 94.8246 387.888C94.6753 388.037 94.4606 388.112 94.1806 388.112C93.9006 388.112 93.6859 388.037 93.5366 387.888C93.3873 387.729 93.3126 387.505 93.3126 387.216V386.124L93.4666 386.544C93.3266 387.029 93.0419 387.417 92.6126 387.706C92.1833 387.995 91.6793 388.14 91.1006 388.14ZM91.5906 386.81C91.9359 386.81 92.2393 386.726 92.5006 386.558C92.7619 386.39 92.9626 386.143 93.1026 385.816C93.2519 385.48 93.3266 385.065 93.3266 384.57C93.3266 383.823 93.1679 383.268 92.8506 382.904C92.5333 382.531 92.1133 382.344 91.5906 382.344C91.2453 382.344 90.9419 382.428 90.6806 382.596C90.4193 382.755 90.2139 383.002 90.0646 383.338C89.9246 383.665 89.8546 384.075 89.8546 384.57C89.8546 385.307 90.0133 385.867 90.3306 386.25C90.6479 386.623 91.0679 386.81 91.5906 386.81ZM99.1171 388.14C98.6225 388.14 98.1791 388.047 97.7871 387.86C97.4045 387.664 97.1011 387.403 96.8771 387.076C96.6625 386.749 96.5551 386.381 96.5551 385.97C96.5551 385.466 96.6858 385.069 96.9471 384.78C97.2085 384.481 97.6331 384.267 98.2211 384.136C98.8091 384.005 99.5978 383.94 100.587 383.94H101.287V384.948H100.601C100.022 384.948 99.5605 384.976 99.2151 385.032C98.8698 385.088 98.6225 385.186 98.4731 385.326C98.3331 385.457 98.2631 385.643 98.2631 385.886C98.2631 386.194 98.3705 386.446 98.5851 386.642C98.7998 386.838 99.0985 386.936 99.4811 386.936C99.7891 386.936 100.06 386.866 100.293 386.726C100.536 386.577 100.727 386.376 100.867 386.124C101.007 385.872 101.077 385.583 101.077 385.256V383.646C101.077 383.179 100.974 382.843 100.769 382.638C100.564 382.433 100.218 382.33 99.7331 382.33C99.4625 382.33 99.1685 382.363 98.8511 382.428C98.5431 382.493 98.2165 382.605 97.8711 382.764C97.6938 382.848 97.5351 382.871 97.3951 382.834C97.2645 382.797 97.1618 382.722 97.0871 382.61C97.0125 382.489 96.9751 382.358 96.9751 382.218C96.9751 382.078 97.0125 381.943 97.0871 381.812C97.1618 381.672 97.2878 381.569 97.4651 381.504C97.8945 381.327 98.3051 381.201 98.6971 381.126C99.0985 381.051 99.4625 381.014 99.7891 381.014C100.461 381.014 101.012 381.117 101.441 381.322C101.88 381.527 102.206 381.84 102.421 382.26C102.636 382.671 102.743 383.203 102.743 383.856V387.216C102.743 387.505 102.673 387.729 102.533 387.888C102.393 388.037 102.192 388.112 101.931 388.112C101.67 388.112 101.464 388.037 101.315 387.888C101.175 387.729 101.105 387.505 101.105 387.216V386.544H101.217C101.152 386.871 101.021 387.155 100.825 387.398C100.638 387.631 100.4 387.813 100.111 387.944C99.8218 388.075 99.4905 388.14 99.1171 388.14ZM106.187 390.632C105.982 390.632 105.814 390.576 105.683 390.464C105.552 390.361 105.473 390.221 105.445 390.044C105.426 389.867 105.459 389.68 105.543 389.484L106.495 387.37V388.098L103.947 382.204C103.863 381.999 103.835 381.807 103.863 381.63C103.891 381.453 103.975 381.313 104.115 381.21C104.264 381.098 104.465 381.042 104.717 381.042C104.932 381.042 105.104 381.093 105.235 381.196C105.366 381.289 105.482 381.471 105.585 381.742L107.475 386.46H107.055L108.987 381.728C109.09 381.467 109.211 381.289 109.351 381.196C109.491 381.093 109.678 381.042 109.911 381.042C110.116 381.042 110.28 381.098 110.401 381.21C110.522 381.313 110.597 381.453 110.625 381.63C110.653 381.798 110.62 381.985 110.527 382.19L107.125 389.96C107.004 390.221 106.873 390.399 106.733 390.492C106.593 390.585 106.411 390.632 106.187 390.632Z" fill="#C45500"/>
<path d="M188.348 388.14C187.321 388.14 186.439 387.935 185.702 387.524C184.974 387.104 184.414 386.516 184.022 385.76C183.63 384.995 183.434 384.094 183.434 383.058C183.434 382.283 183.546 381.588 183.77 380.972C183.994 380.347 184.316 379.815 184.736 379.376C185.156 378.928 185.669 378.587 186.276 378.354C186.892 378.111 187.582 377.99 188.348 377.99C188.861 377.99 189.365 378.055 189.86 378.186C190.354 378.317 190.788 378.503 191.162 378.746C191.358 378.867 191.488 379.017 191.554 379.194C191.619 379.362 191.633 379.53 191.596 379.698C191.558 379.857 191.479 379.992 191.358 380.104C191.246 380.216 191.101 380.281 190.924 380.3C190.756 380.309 190.569 380.249 190.364 380.118C190.074 379.931 189.762 379.796 189.426 379.712C189.09 379.628 188.749 379.586 188.404 379.586C187.741 379.586 187.181 379.721 186.724 379.992C186.266 380.263 185.921 380.655 185.688 381.168C185.454 381.681 185.338 382.311 185.338 383.058C185.338 383.795 185.454 384.425 185.688 384.948C185.921 385.471 186.266 385.867 186.724 386.138C187.181 386.409 187.741 386.544 188.404 386.544C188.758 386.544 189.108 386.502 189.454 386.418C189.799 386.325 190.126 386.185 190.434 385.998C190.639 385.877 190.821 385.825 190.98 385.844C191.148 385.853 191.288 385.909 191.4 386.012C191.512 386.115 191.586 386.245 191.624 386.404C191.661 386.553 191.652 386.712 191.596 386.88C191.54 387.039 191.428 387.179 191.26 387.3C190.886 387.571 190.438 387.781 189.916 387.93C189.402 388.07 188.88 388.14 188.348 388.14ZM195.441 388.14C194.667 388.14 194.083 387.921 193.691 387.482C193.299 387.034 193.103 386.381 193.103 385.522V378.9C193.103 378.611 193.178 378.391 193.327 378.242C193.477 378.093 193.691 378.018 193.971 378.018C194.251 378.018 194.466 378.093 194.615 378.242C194.774 378.391 194.853 378.611 194.853 378.9V385.438C194.853 385.867 194.942 386.185 195.119 386.39C195.306 386.595 195.567 386.698 195.903 386.698C195.978 386.698 196.048 386.698 196.113 386.698C196.179 386.689 196.244 386.679 196.309 386.67C196.44 386.651 196.529 386.689 196.575 386.782C196.622 386.866 196.645 387.043 196.645 387.314C196.645 387.547 196.599 387.729 196.505 387.86C196.412 387.991 196.258 388.07 196.043 388.098C195.95 388.107 195.852 388.117 195.749 388.126C195.647 388.135 195.544 388.14 195.441 388.14ZM200.88 388.14C200.105 388.14 199.438 387.995 198.878 387.706C198.318 387.417 197.884 387.006 197.576 386.474C197.277 385.942 197.128 385.312 197.128 384.584C197.128 383.875 197.272 383.254 197.562 382.722C197.86 382.19 198.266 381.775 198.78 381.476C199.302 381.168 199.895 381.014 200.558 381.014C201.043 381.014 201.477 381.093 201.86 381.252C202.252 381.411 202.583 381.639 202.854 381.938C203.134 382.237 203.344 382.601 203.484 383.03C203.633 383.45 203.708 383.926 203.708 384.458C203.708 384.626 203.647 384.757 203.526 384.85C203.414 384.934 203.25 384.976 203.036 384.976H198.542V383.968H202.476L202.252 384.178C202.252 383.749 202.186 383.389 202.056 383.1C201.934 382.811 201.752 382.591 201.51 382.442C201.276 382.283 200.982 382.204 200.628 382.204C200.236 382.204 199.9 382.297 199.62 382.484C199.349 382.661 199.139 382.918 198.99 383.254C198.85 383.581 198.78 383.973 198.78 384.43V384.528C198.78 385.293 198.957 385.867 199.312 386.25C199.676 386.623 200.208 386.81 200.908 386.81C201.15 386.81 201.421 386.782 201.72 386.726C202.028 386.661 202.317 386.553 202.588 386.404C202.784 386.292 202.956 386.245 203.106 386.264C203.255 386.273 203.372 386.325 203.456 386.418C203.549 386.511 203.605 386.628 203.624 386.768C203.642 386.899 203.614 387.034 203.54 387.174C203.474 387.314 203.358 387.435 203.19 387.538C202.863 387.743 202.485 387.897 202.056 388C201.636 388.093 201.244 388.14 200.88 388.14ZM207.348 388.14C206.853 388.14 206.41 388.047 206.018 387.86C205.635 387.664 205.332 387.403 205.108 387.076C204.893 386.749 204.786 386.381 204.786 385.97C204.786 385.466 204.916 385.069 205.178 384.78C205.439 384.481 205.864 384.267 206.452 384.136C207.04 384.005 207.828 383.94 208.818 383.94H209.518V384.948H208.832C208.253 384.948 207.791 384.976 207.446 385.032C207.1 385.088 206.853 385.186 206.704 385.326C206.564 385.457 206.494 385.643 206.494 385.886C206.494 386.194 206.601 386.446 206.816 386.642C207.03 386.838 207.329 386.936 207.712 386.936C208.02 386.936 208.29 386.866 208.524 386.726C208.766 386.577 208.958 386.376 209.098 386.124C209.238 385.872 209.308 385.583 209.308 385.256V383.646C209.308 383.179 209.205 382.843 209 382.638C208.794 382.433 208.449 382.33 207.964 382.33C207.693 382.33 207.399 382.363 207.082 382.428C206.774 382.493 206.447 382.605 206.102 382.764C205.924 382.848 205.766 382.871 205.626 382.834C205.495 382.797 205.392 382.722 205.318 382.61C205.243 382.489 205.206 382.358 205.206 382.218C205.206 382.078 205.243 381.943 205.318 381.812C205.392 381.672 205.518 381.569 205.696 381.504C206.125 381.327 206.536 381.201 206.928 381.126C207.329 381.051 207.693 381.014 208.02 381.014C208.692 381.014 209.242 381.117 209.672 381.322C210.11 381.527 210.437 381.84 210.652 382.26C210.866 382.671 210.974 383.203 210.974 383.856V387.216C210.974 387.505 210.904 387.729 210.764 387.888C210.624 388.037 210.423 388.112 210.162 388.112C209.9 388.112 209.695 388.037 209.546 387.888C209.406 387.729 209.336 387.505 209.336 387.216V386.544H209.448C209.382 386.871 209.252 387.155 209.056 387.398C208.869 387.631 208.631 387.813 208.342 387.944C208.052 388.075 207.721 388.14 207.348 388.14ZM213.646 388.112C213.357 388.112 213.133 388.037 212.974 387.888C212.825 387.729 212.75 387.505 212.75 387.216V381.924C212.75 381.635 212.825 381.415 212.974 381.266C213.123 381.117 213.333 381.042 213.604 381.042C213.875 381.042 214.085 381.117 214.234 381.266C214.383 381.415 214.458 381.635 214.458 381.924V382.806H214.318C214.449 382.246 214.705 381.821 215.088 381.532C215.471 381.243 215.979 381.07 216.614 381.014C216.81 380.995 216.964 381.047 217.076 381.168C217.197 381.28 217.267 381.457 217.286 381.7C217.305 381.933 217.249 382.125 217.118 382.274C216.997 382.414 216.81 382.498 216.558 382.526L216.25 382.554C215.681 382.61 215.251 382.787 214.962 383.086C214.673 383.375 214.528 383.786 214.528 384.318V387.216C214.528 387.505 214.453 387.729 214.304 387.888C214.155 388.037 213.935 388.112 213.646 388.112Z" fill="#64728C"/>
<path d="M294.966 388.14C293.939 388.14 293.057 387.935 292.32 387.524C291.592 387.104 291.032 386.516 290.64 385.76C290.248 384.995 290.052 384.094 290.052 383.058C290.052 382.283 290.164 381.588 290.388 380.972C290.612 380.347 290.934 379.815 291.354 379.376C291.774 378.928 292.287 378.587 292.894 378.354C293.51 378.111 294.201 377.99 294.966 377.99C295.479 377.99 295.983 378.055 296.478 378.186C296.973 378.317 297.407 378.503 297.78 378.746C297.976 378.867 298.107 379.017 298.172 379.194C298.237 379.362 298.251 379.53 298.214 379.698C298.177 379.857 298.097 379.992 297.976 380.104C297.864 380.216 297.719 380.281 297.542 380.3C297.374 380.309 297.187 380.249 296.982 380.118C296.693 379.931 296.38 379.796 296.044 379.712C295.708 379.628 295.367 379.586 295.022 379.586C294.359 379.586 293.799 379.721 293.342 379.992C292.885 380.263 292.539 380.655 292.306 381.168C292.073 381.681 291.956 382.311 291.956 383.058C291.956 383.795 292.073 384.425 292.306 384.948C292.539 385.471 292.885 385.867 293.342 386.138C293.799 386.409 294.359 386.544 295.022 386.544C295.377 386.544 295.727 386.502 296.072 386.418C296.417 386.325 296.744 386.185 297.052 385.998C297.257 385.877 297.439 385.825 297.598 385.844C297.766 385.853 297.906 385.909 298.018 386.012C298.13 386.115 298.205 386.245 298.242 386.404C298.279 386.553 298.27 386.712 298.214 386.88C298.158 387.039 298.046 387.179 297.878 387.3C297.505 387.571 297.057 387.781 296.534 387.93C296.021 388.07 295.498 388.14 294.966 388.14ZM302.06 388.14C301.285 388.14 300.702 387.921 300.31 387.482C299.918 387.034 299.722 386.381 299.722 385.522V378.9C299.722 378.611 299.796 378.391 299.946 378.242C300.095 378.093 300.31 378.018 300.59 378.018C300.87 378.018 301.084 378.093 301.234 378.242C301.392 378.391 301.472 378.611 301.472 378.9V385.438C301.472 385.867 301.56 386.185 301.738 386.39C301.924 386.595 302.186 386.698 302.522 386.698C302.596 386.698 302.666 386.698 302.732 386.698C302.797 386.689 302.862 386.679 302.928 386.67C303.058 386.651 303.147 386.689 303.194 386.782C303.24 386.866 303.264 387.043 303.264 387.314C303.264 387.547 303.217 387.729 303.124 387.86C303.03 387.991 302.876 388.07 302.662 388.098C302.568 388.107 302.47 388.117 302.368 388.126C302.265 388.135 302.162 388.14 302.06 388.14ZM307.246 388.14C306.537 388.14 305.921 387.995 305.398 387.706C304.875 387.417 304.469 387.006 304.18 386.474C303.891 385.933 303.746 385.298 303.746 384.57C303.746 384.019 303.825 383.529 303.984 383.1C304.152 382.661 304.39 382.288 304.698 381.98C305.006 381.663 305.375 381.425 305.804 381.266C306.233 381.098 306.714 381.014 307.246 381.014C307.955 381.014 308.571 381.159 309.094 381.448C309.617 381.737 310.023 382.148 310.312 382.68C310.601 383.212 310.746 383.842 310.746 384.57C310.746 385.121 310.662 385.615 310.494 386.054C310.335 386.493 310.102 386.871 309.794 387.188C309.486 387.496 309.117 387.734 308.688 387.902C308.259 388.061 307.778 388.14 307.246 388.14ZM307.246 386.81C307.591 386.81 307.895 386.726 308.156 386.558C308.417 386.39 308.618 386.143 308.758 385.816C308.907 385.48 308.982 385.065 308.982 384.57C308.982 383.823 308.823 383.268 308.506 382.904C308.189 382.531 307.769 382.344 307.246 382.344C306.901 382.344 306.597 382.428 306.336 382.596C306.075 382.755 305.869 383.002 305.72 383.338C305.58 383.665 305.51 384.075 305.51 384.57C305.51 385.307 305.669 385.867 305.986 386.25C306.303 386.623 306.723 386.81 307.246 386.81ZM314.696 388.14C314.295 388.14 313.87 388.098 313.422 388.014C312.974 387.93 312.573 387.785 312.218 387.58C312.069 387.487 311.962 387.379 311.896 387.258C311.84 387.127 311.817 387.001 311.826 386.88C311.845 386.749 311.892 386.637 311.966 386.544C312.05 386.451 312.153 386.39 312.274 386.362C312.405 386.334 312.545 386.357 312.694 386.432C313.068 386.609 313.418 386.735 313.744 386.81C314.071 386.875 314.393 386.908 314.71 386.908C315.158 386.908 315.49 386.833 315.704 386.684C315.928 386.525 316.04 386.32 316.04 386.068C316.04 385.853 315.966 385.69 315.816 385.578C315.676 385.457 315.462 385.368 315.172 385.312L313.772 385.046C313.194 384.934 312.75 384.724 312.442 384.416C312.144 384.099 311.994 383.693 311.994 383.198C311.994 382.75 312.116 382.363 312.358 382.036C312.61 381.709 312.956 381.457 313.394 381.28C313.833 381.103 314.337 381.014 314.906 381.014C315.317 381.014 315.7 381.061 316.054 381.154C316.418 381.238 316.768 381.373 317.104 381.56C317.244 381.635 317.338 381.733 317.384 381.854C317.44 381.975 317.454 382.101 317.426 382.232C317.398 382.353 317.342 382.465 317.258 382.568C317.174 382.661 317.067 382.722 316.936 382.75C316.815 382.769 316.675 382.741 316.516 382.666C316.227 382.517 315.947 382.409 315.676 382.344C315.415 382.279 315.163 382.246 314.92 382.246C314.463 382.246 314.122 382.325 313.898 382.484C313.684 382.643 313.576 382.853 313.576 383.114C313.576 383.31 313.642 383.473 313.772 383.604C313.903 383.735 314.104 383.823 314.374 383.87L315.774 384.136C316.381 384.248 316.838 384.453 317.146 384.752C317.464 385.051 317.622 385.452 317.622 385.956C317.622 386.637 317.356 387.174 316.824 387.566C316.292 387.949 315.583 388.14 314.696 388.14ZM322.4 388.14C321.626 388.14 320.958 387.995 320.398 387.706C319.838 387.417 319.404 387.006 319.096 386.474C318.798 385.942 318.648 385.312 318.648 384.584C318.648 383.875 318.793 383.254 319.082 382.722C319.381 382.19 319.787 381.775 320.3 381.476C320.823 381.168 321.416 381.014 322.078 381.014C322.564 381.014 322.998 381.093 323.38 381.252C323.772 381.411 324.104 381.639 324.374 381.938C324.654 382.237 324.864 382.601 325.004 383.03C325.154 383.45 325.228 383.926 325.228 384.458C325.228 384.626 325.168 384.757 325.046 384.85C324.934 384.934 324.771 384.976 324.556 384.976H320.062V383.968H323.996L323.772 384.178C323.772 383.749 323.707 383.389 323.576 383.1C323.455 382.811 323.273 382.591 323.03 382.442C322.797 382.283 322.503 382.204 322.148 382.204C321.756 382.204 321.42 382.297 321.14 382.484C320.87 382.661 320.66 382.918 320.51 383.254C320.37 383.581 320.3 383.973 320.3 384.43V384.528C320.3 385.293 320.478 385.867 320.832 386.25C321.196 386.623 321.728 386.81 322.428 386.81C322.671 386.81 322.942 386.782 323.24 386.726C323.548 386.661 323.838 386.553 324.108 386.404C324.304 386.292 324.477 386.245 324.626 386.264C324.776 386.273 324.892 386.325 324.976 386.418C325.07 386.511 325.126 386.628 325.144 386.768C325.163 386.899 325.135 387.034 325.06 387.174C324.995 387.314 324.878 387.435 324.71 387.538C324.384 387.743 324.006 387.897 323.576 388C323.156 388.093 322.764 388.14 322.4 388.14Z" fill="#929BAA"/>
</g>
<path d="M67 186C67 181.582 70.5817 178 75 178H89C93.4183 178 97 181.582 97 186V352C97 356.418 93.4183 360 89 360H75C70.5817 360 67 356.418 67 352V186Z" fill="#64728C" fill-opacity="0.06"/>
</g>
</g>
<defs>
<filter id="filter0_d_1022_5289" x="0" y="28" width="394" height="438" filterUnits="userSpaceOnUse" color-interpolation-filters="sRGB">
<feFlood flood-opacity="0" result="BackgroundImageFix"/>
<feColorMatrix in="SourceAlpha" type="matrix" values="0 0 0 0 0 0 0 0 0 0 0 0 0 0 0 0 0 0 127 0" result="hardAlpha"/>
<feOffset dy="4"/>
<feGaussianBlur stdDeviation="25"/>
<feComposite in2="hardAlpha" operator="out"/>
<feColorMatrix type="matrix" values="0 0 0 0 0 0 0 0 0 0 0 0 0 0 0 0 0 0 0.05 0"/>
<feBlend mode="normal" in2="BackgroundImageFix" result="effect1_dropShadow_1022_5289"/>
<feBlend mode="normal" in="SourceGraphic" in2="effect1_dropShadow_1022_5289" result="shape"/>
</filter>
<filter id="filter1_d_1022_5289" x="46" y="74" width="302" height="346" filterUnits="userSpaceOnUse" color-interpolation-filters="sRGB">
<feFlood flood-opacity="0" result="BackgroundImageFix"/>
<feColorMatrix in="SourceAlpha" type="matrix" values="0 0 0 0 0 0 0 0 0 0 0 0 0 0 0 0 0 0 127 0" result="hardAlpha"/>
<feOffset dy="4"/>
<feGaussianBlur stdDeviation="2"/>
<feComposite in2="hardAlpha" operator="out"/>
<feColorMatrix type="matrix" values="0 0 0 0 0 0 0 0 0 0 0 0 0 0 0 0 0 0 0.05 0"/>
<feBlend mode="normal" in2="BackgroundImageFix" result="effect1_dropShadow_1022_5289"/>
<feBlend mode="normal" in="SourceGraphic" in2="effect1_dropShadow_1022_5289" result="shape"/>
</filter>
<filter id="filter2_d_1022_5289" x="216" y="254" width="38" height="38" filterUnits="userSpaceOnUse" color-interpolation-filters="sRGB">
<feFlood flood-opacity="0" result="BackgroundImageFix"/>
<feColorMatrix in="SourceAlpha" type="matrix" values="0 0 0 0 0 0 0 0 0 0 0 0 0 0 0 0 0 0 127 0" result="hardAlpha"/>
<feOffset dy="4"/>
<feGaussianBlur stdDeviation="2"/>
<feComposite in2="hardAlpha" operator="out"/>
<feColorMatrix type="matrix" values="0 0 0 0 0 0 0 0 0 0 0 0 0 0 0 0 0 0 0.05 0"/>
<feBlend mode="normal" in2="BackgroundImageFix" result="effect1_dropShadow_1022_5289"/>
<feBlend mode="normal" in="SourceGraphic" in2="effect1_dropShadow_1022_5289" result="shape"/>
</filter>
<clipPath id="clip0_1022_5289">
<rect width="258" height="14" fill="white" transform="translate(68 376)"/>
</clipPath>
</defs>
</svg>
