<svg width="240" height="331" viewBox="0 0 240 331" fill="none" xmlns="http://www.w3.org/2000/svg">
<g filter="url(#filter0_d_998_3405)">
<rect x="4" y="61" width="232" height="262" rx="18" fill="#E8EAEF"/>
<rect x="4.5" y="61.5" width="231" height="261" rx="17.5" stroke="#64728C" stroke-opacity="0.21"/>
<rect x="4" y="61" width="232" height="258" rx="18" fill="white"/>
<path d="M20 89C20 82.3726 25.3726 77 32 77H208C214.627 77 220 82.3726 220 89V107C220 113.627 214.627 119 208 119H32C25.3726 119 20 113.627 20 107V89Z" fill="#17AA54"/>
<path d="M87.3023 102.096C87.0863 102.096 86.9103 102.044 86.7743 101.94C86.6463 101.836 86.5423 101.672 86.4623 101.448L83.9543 94.356C83.8663 94.1 83.8823 93.884 84.0023 93.708C84.1303 93.532 84.3423 93.444 84.6383 93.444C84.8543 93.444 85.0223 93.496 85.1423 93.6C85.2623 93.696 85.3583 93.852 85.4303 94.068L87.5903 100.476H87.1103L89.3663 94.08C89.4463 93.864 89.5463 93.704 89.6663 93.6C89.7863 93.496 89.9423 93.444 90.1343 93.444C90.3263 93.444 90.4783 93.496 90.5903 93.6C90.7023 93.704 90.7983 93.868 90.8783 94.092L93.0623 100.476H92.6423L94.8383 94.068C94.9103 93.86 95.0063 93.704 95.1263 93.6C95.2463 93.496 95.4103 93.444 95.6183 93.444C95.8743 93.444 96.0623 93.532 96.1823 93.708C96.3023 93.884 96.3183 94.1 96.2303 94.356L93.6983 101.46C93.6183 101.676 93.5143 101.836 93.3863 101.94C93.2583 102.044 93.0863 102.096 92.8703 102.096C92.6543 102.096 92.4823 102.044 92.3543 101.94C92.2263 101.836 92.1223 101.672 92.0423 101.448L89.9543 95.496H90.2303L88.1183 101.46C88.0383 101.676 87.9343 101.836 87.8063 101.94C87.6863 102.044 87.5183 102.096 87.3023 102.096ZM99.4677 102.12C98.8597 102.12 98.3317 101.996 97.8837 101.748C97.4357 101.5 97.0877 101.148 96.8397 100.692C96.5917 100.228 96.4677 99.684 96.4677 99.06C96.4677 98.588 96.5357 98.168 96.6717 97.8C96.8157 97.424 97.0197 97.104 97.2837 96.84C97.5477 96.568 97.8637 96.364 98.2317 96.228C98.5997 96.084 99.0117 96.012 99.4677 96.012C100.076 96.012 100.604 96.136 101.052 96.384C101.5 96.632 101.848 96.984 102.096 97.44C102.344 97.896 102.468 98.436 102.468 99.06C102.468 99.532 102.396 99.956 102.252 100.332C102.116 100.708 101.916 101.032 101.652 101.304C101.388 101.568 101.072 101.772 100.704 101.916C100.336 102.052 99.9237 102.12 99.4677 102.12ZM99.4677 100.98C99.7637 100.98 100.024 100.908 100.248 100.764C100.472 100.62 100.644 100.408 100.764 100.128C100.892 99.84 100.956 99.484 100.956 99.06C100.956 98.42 100.82 97.944 100.548 97.632C100.276 97.312 99.9157 97.152 99.4677 97.152C99.1717 97.152 98.9117 97.224 98.6877 97.368C98.4637 97.504 98.2877 97.716 98.1597 98.004C98.0397 98.284 97.9797 98.636 97.9797 99.06C97.9797 99.692 98.1157 100.172 98.3877 100.5C98.6597 100.82 99.0197 100.98 99.4677 100.98ZM104.474 102.096C104.226 102.096 104.034 102.032 103.898 101.904C103.77 101.768 103.706 101.576 103.706 101.328V96.792C103.706 96.544 103.77 96.356 103.898 96.228C104.026 96.1 104.206 96.036 104.438 96.036C104.67 96.036 104.85 96.1 104.978 96.228C105.106 96.356 105.17 96.544 105.17 96.792V97.548H105.05C105.162 97.068 105.382 96.704 105.71 96.456C106.038 96.208 106.474 96.06 107.018 96.012C107.186 95.996 107.318 96.04 107.414 96.144C107.518 96.24 107.578 96.392 107.594 96.6C107.61 96.8 107.562 96.964 107.45 97.092C107.346 97.212 107.186 97.284 106.97 97.308L106.706 97.332C106.218 97.38 105.85 97.532 105.602 97.788C105.354 98.036 105.23 98.388 105.23 98.844V101.328C105.23 101.576 105.166 101.768 105.038 101.904C104.91 102.032 104.722 102.096 104.474 102.096ZM109.149 102.096C108.909 102.096 108.725 102.032 108.597 101.904C108.469 101.768 108.405 101.576 108.405 101.328V94.2C108.405 93.952 108.469 93.764 108.597 93.636C108.725 93.508 108.909 93.444 109.149 93.444C109.389 93.444 109.573 93.508 109.701 93.636C109.837 93.764 109.905 93.952 109.905 94.2V98.628H109.929L111.909 96.54C112.069 96.38 112.209 96.256 112.329 96.168C112.449 96.08 112.613 96.036 112.821 96.036C113.029 96.036 113.185 96.092 113.289 96.204C113.401 96.308 113.457 96.436 113.457 96.588C113.457 96.74 113.385 96.892 113.241 97.044L111.153 99.252V98.628L113.445 101.1C113.589 101.252 113.653 101.408 113.637 101.568C113.629 101.72 113.565 101.848 113.445 101.952C113.325 102.048 113.173 102.096 112.989 102.096C112.765 102.096 112.585 102.052 112.449 101.964C112.321 101.876 112.177 101.744 112.017 101.568L109.929 99.384H109.905V101.328C109.905 101.84 109.653 102.096 109.149 102.096ZM115.583 102.084C115.343 102.084 115.159 102.012 115.031 101.868C114.903 101.724 114.839 101.524 114.839 101.268V96.864C114.839 96.6 114.903 96.4 115.031 96.264C115.159 96.12 115.343 96.048 115.583 96.048C115.823 96.048 116.007 96.12 116.135 96.264C116.271 96.4 116.339 96.6 116.339 96.864V101.268C116.339 101.524 116.275 101.724 116.147 101.868C116.019 102.012 115.831 102.084 115.583 102.084ZM115.583 94.932C115.303 94.932 115.083 94.864 114.923 94.728C114.771 94.584 114.695 94.388 114.695 94.14C114.695 93.884 114.771 93.688 114.923 93.552C115.083 93.416 115.303 93.348 115.583 93.348C115.871 93.348 116.091 93.416 116.243 93.552C116.395 93.688 116.471 93.884 116.471 94.14C116.471 94.388 116.395 94.584 116.243 94.728C116.091 94.864 115.871 94.932 115.583 94.932ZM118.641 102.096C118.401 102.096 118.217 102.032 118.089 101.904C117.961 101.768 117.897 101.576 117.897 101.328V96.792C117.897 96.544 117.961 96.356 118.089 96.228C118.217 96.1 118.397 96.036 118.629 96.036C118.861 96.036 119.041 96.1 119.169 96.228C119.297 96.356 119.361 96.544 119.361 96.792V97.608L119.229 97.308C119.405 96.884 119.677 96.564 120.045 96.348C120.421 96.124 120.845 96.012 121.317 96.012C121.789 96.012 122.177 96.1 122.481 96.276C122.785 96.452 123.013 96.72 123.165 97.08C123.317 97.432 123.393 97.88 123.393 98.424V101.328C123.393 101.576 123.329 101.768 123.201 101.904C123.073 102.032 122.889 102.096 122.649 102.096C122.409 102.096 122.221 102.032 122.085 101.904C121.957 101.768 121.893 101.576 121.893 101.328V98.496C121.893 98.04 121.805 97.708 121.629 97.5C121.461 97.292 121.197 97.188 120.837 97.188C120.397 97.188 120.045 97.328 119.781 97.608C119.525 97.88 119.397 98.244 119.397 98.7V101.328C119.397 101.84 119.145 102.096 118.641 102.096ZM127.653 104.28C127.221 104.28 126.801 104.24 126.393 104.16C125.993 104.08 125.629 103.956 125.301 103.788C125.149 103.708 125.045 103.612 124.989 103.5C124.941 103.388 124.925 103.272 124.941 103.152C124.965 103.04 125.013 102.94 125.085 102.852C125.165 102.764 125.261 102.704 125.373 102.672C125.485 102.64 125.601 102.656 125.721 102.72C126.073 102.896 126.405 103.008 126.717 103.056C127.037 103.112 127.309 103.14 127.533 103.14C128.069 103.14 128.469 103.008 128.733 102.744C129.005 102.488 129.141 102.104 129.141 101.592V100.512H129.249C129.129 100.92 128.877 101.248 128.493 101.496C128.117 101.736 127.689 101.856 127.209 101.856C126.681 101.856 126.221 101.736 125.829 101.496C125.437 101.248 125.133 100.904 124.917 100.464C124.701 100.024 124.593 99.512 124.593 98.928C124.593 98.488 124.653 98.092 124.773 97.74C124.901 97.38 125.077 97.072 125.301 96.816C125.533 96.56 125.809 96.364 126.129 96.228C126.457 96.084 126.817 96.012 127.209 96.012C127.705 96.012 128.137 96.136 128.505 96.384C128.881 96.624 129.125 96.944 129.237 97.344L129.117 97.644V96.792C129.117 96.544 129.181 96.356 129.309 96.228C129.445 96.1 129.629 96.036 129.861 96.036C130.101 96.036 130.285 96.1 130.413 96.228C130.541 96.356 130.605 96.544 130.605 96.792V101.412C130.605 102.364 130.353 103.08 129.849 103.56C129.345 104.04 128.613 104.28 127.653 104.28ZM127.617 100.716C127.929 100.716 128.197 100.644 128.421 100.5C128.645 100.356 128.817 100.152 128.937 99.888C129.065 99.616 129.129 99.296 129.129 98.928C129.129 98.376 128.993 97.944 128.721 97.632C128.449 97.312 128.081 97.152 127.617 97.152C127.305 97.152 127.037 97.224 126.813 97.368C126.589 97.512 126.413 97.716 126.285 97.98C126.165 98.244 126.105 98.56 126.105 98.928C126.105 99.48 126.241 99.916 126.513 100.236C126.785 100.556 127.153 100.716 127.617 100.716ZM136.377 102C136.113 102 135.909 101.932 135.765 101.796C135.629 101.652 135.561 101.448 135.561 101.184V94.356C135.561 94.092 135.629 93.892 135.765 93.756C135.909 93.612 136.113 93.54 136.377 93.54H138.705C140.121 93.54 141.213 93.904 141.981 94.632C142.757 95.36 143.145 96.404 143.145 97.764C143.145 98.444 143.045 99.048 142.845 99.576C142.653 100.096 142.365 100.536 141.981 100.896C141.605 101.256 141.141 101.532 140.589 101.724C140.045 101.908 139.417 102 138.705 102H136.377ZM137.097 100.728H138.609C139.105 100.728 139.533 100.668 139.893 100.548C140.261 100.42 140.565 100.236 140.805 99.996C141.053 99.748 141.237 99.44 141.357 99.072C141.477 98.696 141.537 98.26 141.537 97.764C141.537 96.772 141.293 96.032 140.805 95.544C140.317 95.056 139.585 94.812 138.609 94.812H137.097V100.728ZM146.489 102.12C146.065 102.12 145.685 102.04 145.349 101.88C145.021 101.712 144.761 101.488 144.569 101.208C144.385 100.928 144.293 100.612 144.293 100.26C144.293 99.828 144.405 99.488 144.629 99.24C144.853 98.984 145.217 98.8 145.721 98.688C146.225 98.576 146.901 98.52 147.749 98.52H148.349V99.384H147.761C147.265 99.384 146.869 99.408 146.573 99.456C146.277 99.504 146.065 99.588 145.937 99.708C145.817 99.82 145.757 99.98 145.757 100.188C145.757 100.452 145.849 100.668 146.033 100.836C146.217 101.004 146.473 101.088 146.801 101.088C147.065 101.088 147.297 101.028 147.497 100.908C147.705 100.78 147.869 100.608 147.989 100.392C148.109 100.176 148.169 99.928 148.169 99.648V98.268C148.169 97.868 148.081 97.58 147.905 97.404C147.729 97.228 147.433 97.14 147.017 97.14C146.785 97.14 146.533 97.168 146.261 97.224C145.997 97.28 145.717 97.376 145.421 97.512C145.269 97.584 145.133 97.604 145.013 97.572C144.901 97.54 144.813 97.476 144.749 97.38C144.685 97.276 144.653 97.164 144.653 97.044C144.653 96.924 144.685 96.808 144.749 96.696C144.813 96.576 144.921 96.488 145.073 96.432C145.441 96.28 145.793 96.172 146.129 96.108C146.473 96.044 146.785 96.012 147.065 96.012C147.641 96.012 148.113 96.1 148.481 96.276C148.857 96.452 149.137 96.72 149.321 97.08C149.505 97.432 149.597 97.888 149.597 98.448V101.328C149.597 101.576 149.537 101.768 149.417 101.904C149.297 102.032 149.125 102.096 148.901 102.096C148.677 102.096 148.501 102.032 148.373 101.904C148.253 101.768 148.193 101.576 148.193 101.328V100.752H148.289C148.233 101.032 148.121 101.276 147.953 101.484C147.793 101.684 147.589 101.84 147.341 101.952C147.093 102.064 146.809 102.12 146.489 102.12ZM152.549 104.256C152.373 104.256 152.229 104.208 152.117 104.112C152.005 104.024 151.937 103.904 151.913 103.752C151.897 103.6 151.925 103.44 151.997 103.272L152.813 101.46V102.084L150.629 97.032C150.557 96.856 150.533 96.692 150.557 96.54C150.581 96.388 150.653 96.268 150.773 96.18C150.901 96.084 151.073 96.036 151.289 96.036C151.473 96.036 151.621 96.08 151.733 96.168C151.845 96.248 151.945 96.404 152.033 96.636L153.653 100.68H153.293L154.949 96.624C155.037 96.4 155.141 96.248 155.261 96.168C155.381 96.08 155.541 96.036 155.741 96.036C155.917 96.036 156.057 96.084 156.161 96.18C156.265 96.268 156.329 96.388 156.353 96.54C156.377 96.684 156.349 96.844 156.269 97.02L153.353 103.68C153.249 103.904 153.137 104.056 153.017 104.136C152.897 104.216 152.741 104.256 152.549 104.256Z" fill="white"/>
<path d="M20 135C20 128.373 25.3726 123 32 123H208C214.627 123 220 128.373 220 135V153C220 159.627 214.627 165 208 165H32C25.3726 165 20 159.627 20 153V135Z" fill="#76BC21"/>
<path d="M75.0738 148.096C74.8578 148.096 74.6818 148.044 74.5458 147.94C74.4178 147.836 74.3138 147.672 74.2338 147.448L71.7258 140.356C71.6378 140.1 71.6538 139.884 71.7738 139.708C71.9018 139.532 72.1138 139.444 72.4098 139.444C72.6258 139.444 72.7938 139.496 72.9138 139.6C73.0338 139.696 73.1298 139.852 73.2018 140.068L75.3618 146.476H74.8818L77.1378 140.08C77.2178 139.864 77.3178 139.704 77.4378 139.6C77.5578 139.496 77.7138 139.444 77.9058 139.444C78.0978 139.444 78.2498 139.496 78.3618 139.6C78.4738 139.704 78.5698 139.868 78.6498 140.092L80.8338 146.476H80.4138L82.6098 140.068C82.6818 139.86 82.7778 139.704 82.8978 139.6C83.0178 139.496 83.1818 139.444 83.3898 139.444C83.6458 139.444 83.8338 139.532 83.9538 139.708C84.0738 139.884 84.0898 140.1 84.0018 140.356L81.4698 147.46C81.3898 147.676 81.2858 147.836 81.1578 147.94C81.0298 148.044 80.8578 148.096 80.6418 148.096C80.4258 148.096 80.2538 148.044 80.1258 147.94C79.9978 147.836 79.8938 147.672 79.8138 147.448L77.7258 141.496H78.0018L75.8898 147.46C75.8098 147.676 75.7058 147.836 75.5778 147.94C75.4578 148.044 75.2898 148.096 75.0738 148.096ZM87.2392 148.12C86.6312 148.12 86.1032 147.996 85.6552 147.748C85.2072 147.5 84.8592 147.148 84.6112 146.692C84.3632 146.228 84.2392 145.684 84.2392 145.06C84.2392 144.588 84.3072 144.168 84.4432 143.8C84.5872 143.424 84.7912 143.104 85.0552 142.84C85.3192 142.568 85.6352 142.364 86.0032 142.228C86.3712 142.084 86.7832 142.012 87.2392 142.012C87.8472 142.012 88.3752 142.136 88.8232 142.384C89.2712 142.632 89.6192 142.984 89.8672 143.44C90.1152 143.896 90.2392 144.436 90.2392 145.06C90.2392 145.532 90.1672 145.956 90.0232 146.332C89.8872 146.708 89.6872 147.032 89.4232 147.304C89.1592 147.568 88.8432 147.772 88.4752 147.916C88.1072 148.052 87.6952 148.12 87.2392 148.12ZM87.2392 146.98C87.5352 146.98 87.7952 146.908 88.0192 146.764C88.2432 146.62 88.4152 146.408 88.5352 146.128C88.6632 145.84 88.7272 145.484 88.7272 145.06C88.7272 144.42 88.5912 143.944 88.3192 143.632C88.0472 143.312 87.6872 143.152 87.2392 143.152C86.9432 143.152 86.6832 143.224 86.4592 143.368C86.2352 143.504 86.0592 143.716 85.9312 144.004C85.8112 144.284 85.7512 144.636 85.7512 145.06C85.7512 145.692 85.8872 146.172 86.1592 146.5C86.4312 146.82 86.7912 146.98 87.2392 146.98ZM92.2453 148.096C91.9973 148.096 91.8053 148.032 91.6693 147.904C91.5413 147.768 91.4773 147.576 91.4773 147.328V142.792C91.4773 142.544 91.5413 142.356 91.6693 142.228C91.7973 142.1 91.9773 142.036 92.2093 142.036C92.4413 142.036 92.6213 142.1 92.7493 142.228C92.8773 142.356 92.9413 142.544 92.9413 142.792V143.548H92.8213C92.9333 143.068 93.1533 142.704 93.4813 142.456C93.8093 142.208 94.2453 142.06 94.7893 142.012C94.9573 141.996 95.0893 142.04 95.1853 142.144C95.2893 142.24 95.3493 142.392 95.3653 142.6C95.3813 142.8 95.3333 142.964 95.2213 143.092C95.1173 143.212 94.9573 143.284 94.7413 143.308L94.4773 143.332C93.9893 143.38 93.6213 143.532 93.3733 143.788C93.1253 144.036 93.0013 144.388 93.0013 144.844V147.328C93.0013 147.576 92.9373 147.768 92.8093 147.904C92.6813 148.032 92.4933 148.096 92.2453 148.096ZM96.9205 148.096C96.6805 148.096 96.4965 148.032 96.3685 147.904C96.2405 147.768 96.1765 147.576 96.1765 147.328V140.2C96.1765 139.952 96.2405 139.764 96.3685 139.636C96.4965 139.508 96.6805 139.444 96.9205 139.444C97.1605 139.444 97.3445 139.508 97.4725 139.636C97.6085 139.764 97.6765 139.952 97.6765 140.2V144.628H97.7005L99.6805 142.54C99.8405 142.38 99.9805 142.256 100.1 142.168C100.22 142.08 100.384 142.036 100.592 142.036C100.8 142.036 100.956 142.092 101.06 142.204C101.172 142.308 101.228 142.436 101.228 142.588C101.228 142.74 101.156 142.892 101.012 143.044L98.9245 145.252V144.628L101.216 147.1C101.36 147.252 101.424 147.408 101.408 147.568C101.4 147.72 101.336 147.848 101.216 147.952C101.096 148.048 100.944 148.096 100.76 148.096C100.536 148.096 100.356 148.052 100.22 147.964C100.092 147.876 99.9485 147.744 99.7885 147.568L97.7005 145.384H97.6765V147.328C97.6765 147.84 97.4245 148.096 96.9205 148.096ZM103.354 148.084C103.114 148.084 102.93 148.012 102.802 147.868C102.674 147.724 102.61 147.524 102.61 147.268V142.864C102.61 142.6 102.674 142.4 102.802 142.264C102.93 142.12 103.114 142.048 103.354 142.048C103.594 142.048 103.778 142.12 103.906 142.264C104.042 142.4 104.11 142.6 104.11 142.864V147.268C104.11 147.524 104.046 147.724 103.918 147.868C103.79 148.012 103.602 148.084 103.354 148.084ZM103.354 140.932C103.074 140.932 102.854 140.864 102.694 140.728C102.542 140.584 102.466 140.388 102.466 140.14C102.466 139.884 102.542 139.688 102.694 139.552C102.854 139.416 103.074 139.348 103.354 139.348C103.642 139.348 103.862 139.416 104.014 139.552C104.166 139.688 104.242 139.884 104.242 140.14C104.242 140.388 104.166 140.584 104.014 140.728C103.862 140.864 103.642 140.932 103.354 140.932ZM106.413 148.096C106.173 148.096 105.989 148.032 105.861 147.904C105.733 147.768 105.669 147.576 105.669 147.328V142.792C105.669 142.544 105.733 142.356 105.861 142.228C105.989 142.1 106.169 142.036 106.401 142.036C106.633 142.036 106.813 142.1 106.941 142.228C107.069 142.356 107.133 142.544 107.133 142.792V143.608L107.001 143.308C107.177 142.884 107.449 142.564 107.817 142.348C108.193 142.124 108.617 142.012 109.089 142.012C109.561 142.012 109.949 142.1 110.253 142.276C110.557 142.452 110.785 142.72 110.937 143.08C111.089 143.432 111.165 143.88 111.165 144.424V147.328C111.165 147.576 111.101 147.768 110.973 147.904C110.845 148.032 110.661 148.096 110.421 148.096C110.181 148.096 109.993 148.032 109.857 147.904C109.729 147.768 109.665 147.576 109.665 147.328V144.496C109.665 144.04 109.577 143.708 109.401 143.5C109.233 143.292 108.969 143.188 108.609 143.188C108.169 143.188 107.817 143.328 107.553 143.608C107.297 143.88 107.169 144.244 107.169 144.7V147.328C107.169 147.84 106.917 148.096 106.413 148.096ZM115.424 150.28C114.992 150.28 114.572 150.24 114.164 150.16C113.764 150.08 113.4 149.956 113.072 149.788C112.92 149.708 112.816 149.612 112.76 149.5C112.712 149.388 112.696 149.272 112.712 149.152C112.736 149.04 112.784 148.94 112.856 148.852C112.936 148.764 113.032 148.704 113.144 148.672C113.256 148.64 113.372 148.656 113.492 148.72C113.844 148.896 114.176 149.008 114.488 149.056C114.808 149.112 115.08 149.14 115.304 149.14C115.84 149.14 116.24 149.008 116.504 148.744C116.776 148.488 116.912 148.104 116.912 147.592V146.512H117.02C116.9 146.92 116.648 147.248 116.264 147.496C115.888 147.736 115.46 147.856 114.98 147.856C114.452 147.856 113.992 147.736 113.6 147.496C113.208 147.248 112.904 146.904 112.688 146.464C112.472 146.024 112.364 145.512 112.364 144.928C112.364 144.488 112.424 144.092 112.544 143.74C112.672 143.38 112.848 143.072 113.072 142.816C113.304 142.56 113.58 142.364 113.9 142.228C114.228 142.084 114.588 142.012 114.98 142.012C115.476 142.012 115.908 142.136 116.276 142.384C116.652 142.624 116.896 142.944 117.008 143.344L116.888 143.644V142.792C116.888 142.544 116.952 142.356 117.08 142.228C117.216 142.1 117.4 142.036 117.632 142.036C117.872 142.036 118.056 142.1 118.184 142.228C118.312 142.356 118.376 142.544 118.376 142.792V147.412C118.376 148.364 118.124 149.08 117.62 149.56C117.116 150.04 116.384 150.28 115.424 150.28ZM115.388 146.716C115.7 146.716 115.968 146.644 116.192 146.5C116.416 146.356 116.588 146.152 116.708 145.888C116.836 145.616 116.9 145.296 116.9 144.928C116.9 144.376 116.764 143.944 116.492 143.632C116.22 143.312 115.852 143.152 115.388 143.152C115.076 143.152 114.808 143.224 114.584 143.368C114.36 143.512 114.184 143.716 114.056 143.98C113.936 144.244 113.876 144.56 113.876 144.928C113.876 145.48 114.012 145.916 114.284 146.236C114.556 146.556 114.924 146.716 115.388 146.716ZM124.124 148.096C123.876 148.096 123.68 148.028 123.536 147.892C123.4 147.748 123.332 147.544 123.332 147.28V140.356C123.332 140.092 123.4 139.892 123.536 139.756C123.68 139.612 123.884 139.54 124.148 139.54H128.336C128.544 139.54 128.7 139.592 128.804 139.696C128.908 139.8 128.96 139.948 128.96 140.14C128.96 140.34 128.908 140.496 128.804 140.608C128.7 140.712 128.544 140.764 128.336 140.764H124.868V143.152H128.084C128.284 143.152 128.436 143.204 128.54 143.308C128.652 143.412 128.708 143.56 128.708 143.752C128.708 143.952 128.652 144.108 128.54 144.22C128.436 144.324 128.284 144.376 128.084 144.376H124.868V147.28C124.868 147.824 124.62 148.096 124.124 148.096ZM131.898 148.12C131.41 148.12 131.006 148.032 130.686 147.856C130.366 147.672 130.126 147.4 129.966 147.04C129.814 146.68 129.738 146.232 129.738 145.696V142.792C129.738 142.536 129.802 142.348 129.93 142.228C130.058 142.1 130.242 142.036 130.482 142.036C130.722 142.036 130.906 142.1 131.034 142.228C131.17 142.348 131.238 142.536 131.238 142.792V145.72C131.238 146.136 131.322 146.444 131.49 146.644C131.658 146.844 131.926 146.944 132.294 146.944C132.694 146.944 133.022 146.808 133.278 146.536C133.534 146.256 133.662 145.888 133.662 145.432V142.792C133.662 142.536 133.726 142.348 133.854 142.228C133.982 142.1 134.166 142.036 134.406 142.036C134.646 142.036 134.83 142.1 134.958 142.228C135.094 142.348 135.162 142.536 135.162 142.792V147.328C135.162 147.84 134.918 148.096 134.43 148.096C134.198 148.096 134.018 148.032 133.89 147.904C133.762 147.768 133.698 147.576 133.698 147.328V146.416L133.866 146.776C133.698 147.208 133.442 147.54 133.098 147.772C132.762 148.004 132.362 148.12 131.898 148.12ZM138.727 148.12C138.063 148.12 137.563 147.932 137.227 147.556C136.891 147.172 136.723 146.612 136.723 145.876V140.2C136.723 139.952 136.787 139.764 136.915 139.636C137.043 139.508 137.227 139.444 137.467 139.444C137.707 139.444 137.891 139.508 138.019 139.636C138.155 139.764 138.223 139.952 138.223 140.2V145.804C138.223 146.172 138.299 146.444 138.451 146.62C138.611 146.796 138.835 146.884 139.123 146.884C139.187 146.884 139.247 146.884 139.303 146.884C139.359 146.876 139.415 146.868 139.471 146.86C139.583 146.844 139.659 146.876 139.699 146.956C139.739 147.028 139.759 147.18 139.759 147.412C139.759 147.612 139.719 147.768 139.639 147.88C139.559 147.992 139.427 148.06 139.243 148.084C139.163 148.092 139.079 148.1 138.991 148.108C138.903 148.116 138.815 148.12 138.727 148.12ZM142.559 148.12C141.895 148.12 141.395 147.932 141.059 147.556C140.723 147.172 140.555 146.612 140.555 145.876V140.2C140.555 139.952 140.619 139.764 140.747 139.636C140.875 139.508 141.059 139.444 141.299 139.444C141.539 139.444 141.723 139.508 141.851 139.636C141.987 139.764 142.055 139.952 142.055 140.2V145.804C142.055 146.172 142.131 146.444 142.283 146.62C142.443 146.796 142.667 146.884 142.955 146.884C143.019 146.884 143.079 146.884 143.135 146.884C143.191 146.876 143.247 146.868 143.303 146.86C143.415 146.844 143.491 146.876 143.531 146.956C143.571 147.028 143.591 147.18 143.591 147.412C143.591 147.612 143.551 147.768 143.471 147.88C143.391 147.992 143.259 148.06 143.075 148.084C142.995 148.092 142.911 148.1 142.823 148.108C142.735 148.116 142.647 148.12 142.559 148.12ZM148.605 148C148.341 148 148.137 147.932 147.993 147.796C147.857 147.652 147.789 147.448 147.789 147.184V140.356C147.789 140.092 147.857 139.892 147.993 139.756C148.137 139.612 148.341 139.54 148.605 139.54H150.933C152.349 139.54 153.441 139.904 154.209 140.632C154.985 141.36 155.373 142.404 155.373 143.764C155.373 144.444 155.273 145.048 155.073 145.576C154.881 146.096 154.593 146.536 154.209 146.896C153.833 147.256 153.369 147.532 152.817 147.724C152.273 147.908 151.645 148 150.933 148H148.605ZM149.325 146.728H150.837C151.333 146.728 151.761 146.668 152.121 146.548C152.489 146.42 152.793 146.236 153.033 145.996C153.281 145.748 153.465 145.44 153.585 145.072C153.705 144.696 153.765 144.26 153.765 143.764C153.765 142.772 153.521 142.032 153.033 141.544C152.545 141.056 151.813 140.812 150.837 140.812H149.325V146.728ZM158.718 148.12C158.294 148.12 157.914 148.04 157.578 147.88C157.25 147.712 156.99 147.488 156.798 147.208C156.614 146.928 156.522 146.612 156.522 146.26C156.522 145.828 156.634 145.488 156.858 145.24C157.082 144.984 157.446 144.8 157.95 144.688C158.454 144.576 159.13 144.52 159.978 144.52H160.578V145.384H159.99C159.494 145.384 159.098 145.408 158.802 145.456C158.506 145.504 158.294 145.588 158.166 145.708C158.046 145.82 157.986 145.98 157.986 146.188C157.986 146.452 158.078 146.668 158.262 146.836C158.446 147.004 158.702 147.088 159.03 147.088C159.294 147.088 159.526 147.028 159.726 146.908C159.934 146.78 160.098 146.608 160.218 146.392C160.338 146.176 160.398 145.928 160.398 145.648V144.268C160.398 143.868 160.31 143.58 160.134 143.404C159.958 143.228 159.662 143.14 159.246 143.14C159.014 143.14 158.762 143.168 158.49 143.224C158.226 143.28 157.946 143.376 157.65 143.512C157.498 143.584 157.362 143.604 157.242 143.572C157.13 143.54 157.042 143.476 156.978 143.38C156.914 143.276 156.882 143.164 156.882 143.044C156.882 142.924 156.914 142.808 156.978 142.696C157.042 142.576 157.15 142.488 157.302 142.432C157.67 142.28 158.022 142.172 158.358 142.108C158.702 142.044 159.014 142.012 159.294 142.012C159.87 142.012 160.342 142.1 160.71 142.276C161.086 142.452 161.366 142.72 161.55 143.08C161.734 143.432 161.826 143.888 161.826 144.448V147.328C161.826 147.576 161.766 147.768 161.646 147.904C161.526 148.032 161.354 148.096 161.13 148.096C160.906 148.096 160.73 148.032 160.602 147.904C160.482 147.768 160.422 147.576 160.422 147.328V146.752H160.518C160.462 147.032 160.35 147.276 160.182 147.484C160.022 147.684 159.818 147.84 159.57 147.952C159.322 148.064 159.038 148.12 158.718 148.12ZM164.778 150.256C164.602 150.256 164.458 150.208 164.346 150.112C164.234 150.024 164.166 149.904 164.142 149.752C164.126 149.6 164.154 149.44 164.226 149.272L165.042 147.46V148.084L162.858 143.032C162.786 142.856 162.762 142.692 162.786 142.54C162.81 142.388 162.882 142.268 163.002 142.18C163.13 142.084 163.302 142.036 163.518 142.036C163.702 142.036 163.85 142.08 163.962 142.168C164.074 142.248 164.174 142.404 164.262 142.636L165.882 146.68H165.522L167.178 142.624C167.266 142.4 167.37 142.248 167.49 142.168C167.61 142.08 167.77 142.036 167.97 142.036C168.146 142.036 168.286 142.084 168.39 142.18C168.494 142.268 168.558 142.388 168.582 142.54C168.606 142.684 168.578 142.844 168.498 143.02L165.582 149.68C165.478 149.904 165.366 150.056 165.246 150.136C165.126 150.216 164.97 150.256 164.778 150.256Z" fill="white"/>
<g filter="url(#filter1_i_998_3405)">
<path d="M20 181C20 174.373 25.3726 169 32 169H208C214.627 169 220 174.373 220 181V199C220 205.627 214.627 211 208 211H32C25.3726 211 20 205.627 20 199V181Z" fill="#FFAA00"/>
<path d="M74.8395 194.096C74.6235 194.096 74.4475 194.044 74.3115 193.94C74.1835 193.836 74.0795 193.672 73.9995 193.448L71.4915 186.356C71.4035 186.1 71.4195 185.884 71.5395 185.708C71.6675 185.532 71.8795 185.444 72.1755 185.444C72.3915 185.444 72.5595 185.496 72.6795 185.6C72.7995 185.696 72.8955 185.852 72.9675 186.068L75.1275 192.476H74.6475L76.9035 186.08C76.9835 185.864 77.0835 185.704 77.2035 185.6C77.3235 185.496 77.4795 185.444 77.6715 185.444C77.8635 185.444 78.0155 185.496 78.1275 185.6C78.2395 185.704 78.3355 185.868 78.4155 186.092L80.5995 192.476H80.1795L82.3755 186.068C82.4475 185.86 82.5435 185.704 82.6635 185.6C82.7835 185.496 82.9475 185.444 83.1555 185.444C83.4115 185.444 83.5995 185.532 83.7195 185.708C83.8395 185.884 83.8555 186.1 83.7675 186.356L81.2355 193.46C81.1555 193.676 81.0515 193.836 80.9235 193.94C80.7955 194.044 80.6235 194.096 80.4075 194.096C80.1915 194.096 80.0195 194.044 79.8915 193.94C79.7635 193.836 79.6595 193.672 79.5795 193.448L77.4915 187.496H77.7675L75.6555 193.46C75.5755 193.676 75.4715 193.836 75.3435 193.94C75.2235 194.044 75.0555 194.096 74.8395 194.096ZM87.0048 194.12C86.3968 194.12 85.8688 193.996 85.4208 193.748C84.9728 193.5 84.6248 193.148 84.3768 192.692C84.1288 192.228 84.0048 191.684 84.0048 191.06C84.0048 190.588 84.0728 190.168 84.2088 189.8C84.3528 189.424 84.5568 189.104 84.8208 188.84C85.0848 188.568 85.4008 188.364 85.7688 188.228C86.1368 188.084 86.5488 188.012 87.0048 188.012C87.6128 188.012 88.1408 188.136 88.5888 188.384C89.0368 188.632 89.3848 188.984 89.6328 189.44C89.8808 189.896 90.0048 190.436 90.0048 191.06C90.0048 191.532 89.9328 191.956 89.7888 192.332C89.6528 192.708 89.4528 193.032 89.1888 193.304C88.9248 193.568 88.6088 193.772 88.2408 193.916C87.8728 194.052 87.4608 194.12 87.0048 194.12ZM87.0048 192.98C87.3008 192.98 87.5608 192.908 87.7848 192.764C88.0088 192.62 88.1808 192.408 88.3008 192.128C88.4288 191.84 88.4928 191.484 88.4928 191.06C88.4928 190.42 88.3568 189.944 88.0848 189.632C87.8128 189.312 87.4528 189.152 87.0048 189.152C86.7088 189.152 86.4488 189.224 86.2248 189.368C86.0008 189.504 85.8248 189.716 85.6968 190.004C85.5768 190.284 85.5168 190.636 85.5168 191.06C85.5168 191.692 85.6528 192.172 85.9248 192.5C86.1968 192.82 86.5568 192.98 87.0048 192.98ZM92.0109 194.096C91.7629 194.096 91.5709 194.032 91.4349 193.904C91.3069 193.768 91.2429 193.576 91.2429 193.328V188.792C91.2429 188.544 91.3069 188.356 91.4349 188.228C91.5629 188.1 91.7429 188.036 91.9749 188.036C92.2069 188.036 92.3869 188.1 92.5149 188.228C92.6429 188.356 92.7069 188.544 92.7069 188.792V189.548H92.5869C92.6989 189.068 92.9189 188.704 93.2469 188.456C93.5749 188.208 94.0109 188.06 94.5549 188.012C94.7229 187.996 94.8549 188.04 94.9509 188.144C95.0549 188.24 95.1149 188.392 95.1309 188.6C95.1469 188.8 95.0989 188.964 94.9869 189.092C94.8829 189.212 94.7229 189.284 94.5069 189.308L94.2429 189.332C93.7549 189.38 93.3869 189.532 93.1389 189.788C92.8909 190.036 92.7669 190.388 92.7669 190.844V193.328C92.7669 193.576 92.7029 193.768 92.5749 193.904C92.4469 194.032 92.2589 194.096 92.0109 194.096ZM96.6861 194.096C96.4461 194.096 96.2621 194.032 96.1341 193.904C96.0061 193.768 95.9421 193.576 95.9421 193.328V186.2C95.9421 185.952 96.0061 185.764 96.1341 185.636C96.2621 185.508 96.4461 185.444 96.6861 185.444C96.9261 185.444 97.1101 185.508 97.2381 185.636C97.3741 185.764 97.4421 185.952 97.4421 186.2V190.628H97.4661L99.4461 188.54C99.6061 188.38 99.7461 188.256 99.8661 188.168C99.9861 188.08 100.15 188.036 100.358 188.036C100.566 188.036 100.722 188.092 100.826 188.204C100.938 188.308 100.994 188.436 100.994 188.588C100.994 188.74 100.922 188.892 100.778 189.044L98.6901 191.252V190.628L100.982 193.1C101.126 193.252 101.19 193.408 101.174 193.568C101.166 193.72 101.102 193.848 100.982 193.952C100.862 194.048 100.71 194.096 100.526 194.096C100.302 194.096 100.122 194.052 99.9861 193.964C99.8581 193.876 99.7141 193.744 99.5541 193.568L97.4661 191.384H97.4421V193.328C97.4421 193.84 97.1901 194.096 96.6861 194.096ZM103.12 194.084C102.88 194.084 102.696 194.012 102.568 193.868C102.44 193.724 102.376 193.524 102.376 193.268V188.864C102.376 188.6 102.44 188.4 102.568 188.264C102.696 188.12 102.88 188.048 103.12 188.048C103.36 188.048 103.544 188.12 103.672 188.264C103.808 188.4 103.876 188.6 103.876 188.864V193.268C103.876 193.524 103.812 193.724 103.684 193.868C103.556 194.012 103.368 194.084 103.12 194.084ZM103.12 186.932C102.84 186.932 102.62 186.864 102.46 186.728C102.308 186.584 102.232 186.388 102.232 186.14C102.232 185.884 102.308 185.688 102.46 185.552C102.62 185.416 102.84 185.348 103.12 185.348C103.408 185.348 103.628 185.416 103.78 185.552C103.932 185.688 104.008 185.884 104.008 186.14C104.008 186.388 103.932 186.584 103.78 186.728C103.628 186.864 103.408 186.932 103.12 186.932ZM106.178 194.096C105.938 194.096 105.754 194.032 105.626 193.904C105.498 193.768 105.434 193.576 105.434 193.328V188.792C105.434 188.544 105.498 188.356 105.626 188.228C105.754 188.1 105.934 188.036 106.166 188.036C106.398 188.036 106.578 188.1 106.706 188.228C106.834 188.356 106.898 188.544 106.898 188.792V189.608L106.766 189.308C106.942 188.884 107.214 188.564 107.582 188.348C107.958 188.124 108.382 188.012 108.854 188.012C109.326 188.012 109.714 188.1 110.018 188.276C110.322 188.452 110.55 188.72 110.702 189.08C110.854 189.432 110.93 189.88 110.93 190.424V193.328C110.93 193.576 110.866 193.768 110.738 193.904C110.61 194.032 110.426 194.096 110.186 194.096C109.946 194.096 109.758 194.032 109.622 193.904C109.494 193.768 109.43 193.576 109.43 193.328V190.496C109.43 190.04 109.342 189.708 109.166 189.5C108.998 189.292 108.734 189.188 108.374 189.188C107.934 189.188 107.582 189.328 107.318 189.608C107.062 189.88 106.934 190.244 106.934 190.7V193.328C106.934 193.84 106.682 194.096 106.178 194.096ZM115.19 196.28C114.758 196.28 114.338 196.24 113.93 196.16C113.53 196.08 113.166 195.956 112.838 195.788C112.686 195.708 112.582 195.612 112.526 195.5C112.478 195.388 112.462 195.272 112.478 195.152C112.502 195.04 112.55 194.94 112.622 194.852C112.702 194.764 112.798 194.704 112.91 194.672C113.022 194.64 113.138 194.656 113.258 194.72C113.61 194.896 113.942 195.008 114.254 195.056C114.574 195.112 114.846 195.14 115.07 195.14C115.606 195.14 116.006 195.008 116.27 194.744C116.542 194.488 116.678 194.104 116.678 193.592V192.512H116.786C116.666 192.92 116.414 193.248 116.03 193.496C115.654 193.736 115.226 193.856 114.746 193.856C114.218 193.856 113.758 193.736 113.366 193.496C112.974 193.248 112.67 192.904 112.454 192.464C112.238 192.024 112.13 191.512 112.13 190.928C112.13 190.488 112.19 190.092 112.31 189.74C112.438 189.38 112.614 189.072 112.838 188.816C113.07 188.56 113.346 188.364 113.666 188.228C113.994 188.084 114.354 188.012 114.746 188.012C115.242 188.012 115.674 188.136 116.042 188.384C116.418 188.624 116.662 188.944 116.774 189.344L116.654 189.644V188.792C116.654 188.544 116.718 188.356 116.846 188.228C116.982 188.1 117.166 188.036 117.398 188.036C117.638 188.036 117.822 188.1 117.95 188.228C118.078 188.356 118.142 188.544 118.142 188.792V193.412C118.142 194.364 117.89 195.08 117.386 195.56C116.882 196.04 116.15 196.28 115.19 196.28ZM115.154 192.716C115.466 192.716 115.734 192.644 115.958 192.5C116.182 192.356 116.354 192.152 116.474 191.888C116.602 191.616 116.666 191.296 116.666 190.928C116.666 190.376 116.53 189.944 116.258 189.632C115.986 189.312 115.618 189.152 115.154 189.152C114.842 189.152 114.574 189.224 114.35 189.368C114.126 189.512 113.95 189.716 113.822 189.98C113.702 190.244 113.642 190.56 113.642 190.928C113.642 191.48 113.778 191.916 114.05 192.236C114.322 192.556 114.69 192.716 115.154 192.716ZM123.698 194.096C123.458 194.096 123.274 194.032 123.146 193.904C123.018 193.768 122.954 193.576 122.954 193.328V186.2C122.954 185.952 123.018 185.764 123.146 185.636C123.274 185.508 123.458 185.444 123.698 185.444C123.938 185.444 124.122 185.508 124.25 185.636C124.386 185.764 124.454 185.952 124.454 186.2V189.308H124.286C124.462 188.884 124.734 188.564 125.102 188.348C125.478 188.124 125.902 188.012 126.374 188.012C126.846 188.012 127.234 188.1 127.538 188.276C127.842 188.452 128.07 188.72 128.222 189.08C128.374 189.432 128.45 189.88 128.45 190.424V193.328C128.45 193.576 128.386 193.768 128.258 193.904C128.13 194.032 127.946 194.096 127.706 194.096C127.466 194.096 127.278 194.032 127.142 193.904C127.014 193.768 126.95 193.576 126.95 193.328V190.496C126.95 190.04 126.862 189.708 126.686 189.5C126.518 189.292 126.254 189.188 125.894 189.188C125.454 189.188 125.102 189.328 124.838 189.608C124.582 189.88 124.454 190.244 124.454 190.7V193.328C124.454 193.84 124.202 194.096 123.698 194.096ZM131.905 194.12C131.481 194.12 131.101 194.04 130.765 193.88C130.437 193.712 130.177 193.488 129.985 193.208C129.801 192.928 129.709 192.612 129.709 192.26C129.709 191.828 129.821 191.488 130.045 191.24C130.269 190.984 130.633 190.8 131.137 190.688C131.641 190.576 132.317 190.52 133.165 190.52H133.765V191.384H133.177C132.681 191.384 132.285 191.408 131.989 191.456C131.693 191.504 131.481 191.588 131.353 191.708C131.233 191.82 131.173 191.98 131.173 192.188C131.173 192.452 131.265 192.668 131.449 192.836C131.633 193.004 131.889 193.088 132.217 193.088C132.481 193.088 132.713 193.028 132.913 192.908C133.121 192.78 133.285 192.608 133.405 192.392C133.525 192.176 133.585 191.928 133.585 191.648V190.268C133.585 189.868 133.497 189.58 133.321 189.404C133.145 189.228 132.849 189.14 132.433 189.14C132.201 189.14 131.949 189.168 131.677 189.224C131.413 189.28 131.133 189.376 130.837 189.512C130.685 189.584 130.549 189.604 130.429 189.572C130.317 189.54 130.229 189.476 130.165 189.38C130.101 189.276 130.069 189.164 130.069 189.044C130.069 188.924 130.101 188.808 130.165 188.696C130.229 188.576 130.337 188.488 130.489 188.432C130.857 188.28 131.209 188.172 131.545 188.108C131.889 188.044 132.201 188.012 132.481 188.012C133.057 188.012 133.529 188.1 133.897 188.276C134.273 188.452 134.553 188.72 134.737 189.08C134.921 189.432 135.013 189.888 135.013 190.448V193.328C135.013 193.576 134.953 193.768 134.833 193.904C134.713 194.032 134.541 194.096 134.317 194.096C134.093 194.096 133.917 194.032 133.789 193.904C133.669 193.768 133.609 193.576 133.609 193.328V192.752H133.705C133.649 193.032 133.537 193.276 133.369 193.484C133.209 193.684 133.005 193.84 132.757 193.952C132.509 194.064 132.225 194.12 131.905 194.12ZM138.54 194.12C137.876 194.12 137.376 193.932 137.04 193.556C136.704 193.172 136.536 192.612 136.536 191.876V186.2C136.536 185.952 136.6 185.764 136.728 185.636C136.856 185.508 137.04 185.444 137.28 185.444C137.52 185.444 137.704 185.508 137.832 185.636C137.968 185.764 138.036 185.952 138.036 186.2V191.804C138.036 192.172 138.112 192.444 138.264 192.62C138.424 192.796 138.648 192.884 138.936 192.884C139 192.884 139.06 192.884 139.116 192.884C139.172 192.876 139.228 192.868 139.284 192.86C139.396 192.844 139.472 192.876 139.512 192.956C139.552 193.028 139.572 193.18 139.572 193.412C139.572 193.612 139.532 193.768 139.452 193.88C139.372 193.992 139.24 194.06 139.056 194.084C138.976 194.092 138.892 194.1 138.804 194.108C138.716 194.116 138.628 194.12 138.54 194.12ZM141.403 194.096C141.163 194.096 140.975 194.032 140.839 193.904C140.711 193.768 140.647 193.576 140.647 193.328V189.26H140.095C139.903 189.26 139.755 189.212 139.651 189.116C139.547 189.012 139.495 188.872 139.495 188.696C139.495 188.512 139.547 188.372 139.651 188.276C139.755 188.18 139.903 188.132 140.095 188.132H141.079L140.647 188.528V188.12C140.647 187.296 140.855 186.68 141.271 186.272C141.687 185.856 142.287 185.612 143.071 185.54L143.479 185.504C143.639 185.488 143.767 185.516 143.863 185.588C143.959 185.652 144.023 185.74 144.055 185.852C144.087 185.956 144.091 186.064 144.067 186.176C144.043 186.288 143.991 186.388 143.911 186.476C143.839 186.556 143.743 186.6 143.623 186.608L143.455 186.62C142.999 186.652 142.667 186.768 142.459 186.968C142.251 187.168 142.147 187.472 142.147 187.88V188.324L141.955 188.132H143.167C143.359 188.132 143.507 188.18 143.611 188.276C143.715 188.372 143.767 188.512 143.767 188.696C143.767 188.872 143.715 189.012 143.611 189.116C143.507 189.212 143.359 189.26 143.167 189.26H142.147V193.328C142.147 193.84 141.899 194.096 141.403 194.096ZM148.84 194C148.576 194 148.372 193.932 148.228 193.796C148.092 193.652 148.024 193.448 148.024 193.184V186.356C148.024 186.092 148.092 185.892 148.228 185.756C148.372 185.612 148.576 185.54 148.84 185.54H151.168C152.584 185.54 153.676 185.904 154.444 186.632C155.22 187.36 155.608 188.404 155.608 189.764C155.608 190.444 155.508 191.048 155.308 191.576C155.116 192.096 154.828 192.536 154.444 192.896C154.068 193.256 153.604 193.532 153.052 193.724C152.508 193.908 151.88 194 151.168 194H148.84ZM149.56 192.728H151.072C151.568 192.728 151.996 192.668 152.356 192.548C152.724 192.42 153.028 192.236 153.268 191.996C153.516 191.748 153.7 191.44 153.82 191.072C153.94 190.696 154 190.26 154 189.764C154 188.772 153.756 188.032 153.268 187.544C152.78 187.056 152.048 186.812 151.072 186.812H149.56V192.728ZM158.952 194.12C158.528 194.12 158.148 194.04 157.812 193.88C157.484 193.712 157.224 193.488 157.032 193.208C156.848 192.928 156.756 192.612 156.756 192.26C156.756 191.828 156.868 191.488 157.092 191.24C157.316 190.984 157.68 190.8 158.184 190.688C158.688 190.576 159.364 190.52 160.212 190.52H160.812V191.384H160.224C159.728 191.384 159.332 191.408 159.036 191.456C158.74 191.504 158.528 191.588 158.4 191.708C158.28 191.82 158.22 191.98 158.22 192.188C158.22 192.452 158.312 192.668 158.496 192.836C158.68 193.004 158.936 193.088 159.264 193.088C159.528 193.088 159.76 193.028 159.96 192.908C160.168 192.78 160.332 192.608 160.452 192.392C160.572 192.176 160.632 191.928 160.632 191.648V190.268C160.632 189.868 160.544 189.58 160.368 189.404C160.192 189.228 159.896 189.14 159.48 189.14C159.248 189.14 158.996 189.168 158.724 189.224C158.46 189.28 158.18 189.376 157.884 189.512C157.732 189.584 157.596 189.604 157.476 189.572C157.364 189.54 157.276 189.476 157.212 189.38C157.148 189.276 157.116 189.164 157.116 189.044C157.116 188.924 157.148 188.808 157.212 188.696C157.276 188.576 157.384 188.488 157.536 188.432C157.904 188.28 158.256 188.172 158.592 188.108C158.936 188.044 159.248 188.012 159.528 188.012C160.104 188.012 160.576 188.1 160.944 188.276C161.32 188.452 161.6 188.72 161.784 189.08C161.968 189.432 162.06 189.888 162.06 190.448V193.328C162.06 193.576 162 193.768 161.88 193.904C161.76 194.032 161.588 194.096 161.364 194.096C161.14 194.096 160.964 194.032 160.836 193.904C160.716 193.768 160.656 193.576 160.656 193.328V192.752H160.752C160.696 193.032 160.584 193.276 160.416 193.484C160.256 193.684 160.052 193.84 159.804 193.952C159.556 194.064 159.272 194.12 158.952 194.12ZM165.012 196.256C164.836 196.256 164.692 196.208 164.58 196.112C164.468 196.024 164.4 195.904 164.376 195.752C164.36 195.6 164.388 195.44 164.46 195.272L165.276 193.46V194.084L163.092 189.032C163.02 188.856 162.996 188.692 163.02 188.54C163.044 188.388 163.116 188.268 163.236 188.18C163.364 188.084 163.536 188.036 163.752 188.036C163.936 188.036 164.084 188.08 164.196 188.168C164.308 188.248 164.408 188.404 164.496 188.636L166.116 192.68H165.756L167.412 188.624C167.5 188.4 167.604 188.248 167.724 188.168C167.844 188.08 168.004 188.036 168.204 188.036C168.38 188.036 168.52 188.084 168.624 188.18C168.728 188.268 168.792 188.388 168.816 188.54C168.84 188.684 168.812 188.844 168.732 189.02L165.816 195.68C165.712 195.904 165.6 196.056 165.48 196.136C165.36 196.216 165.204 196.256 165.012 196.256Z" fill="white"/>
</g>
<path d="M20 227C20 220.373 25.3726 215 32 215H208C214.627 215 220 220.373 220 227V245C220 251.627 214.627 257 208 257H32C25.3726 257 20 251.627 20 245V227Z" fill="#E8EAEF"/>
<path d="M72.3432 240.096C72.1112 240.096 71.9312 240.032 71.8032 239.904C71.6832 239.776 71.6232 239.592 71.6232 239.352V232.212C71.6232 231.964 71.6832 231.776 71.8032 231.648C71.9312 231.512 72.0952 231.444 72.2952 231.444C72.4792 231.444 72.6152 231.48 72.7032 231.552C72.7992 231.616 72.9112 231.728 73.0392 231.888L77.6352 237.852H77.3232V232.176C77.3232 231.944 77.3832 231.764 77.5032 231.636C77.6312 231.508 77.8112 231.444 78.0432 231.444C78.2752 231.444 78.4512 231.508 78.5712 231.636C78.6912 231.764 78.7512 231.944 78.7512 232.176V239.376C78.7512 239.6 78.6952 239.776 78.5832 239.904C78.4712 240.032 78.3192 240.096 78.1272 240.096C77.9432 240.096 77.7952 240.06 77.6832 239.988C77.5792 239.916 77.4632 239.8 77.3352 239.64L72.7512 233.676H73.0512V239.352C73.0512 239.592 72.9912 239.776 72.8712 239.904C72.7512 240.032 72.5752 240.096 72.3432 240.096ZM83.1318 240.12C82.5238 240.12 81.9958 239.996 81.5478 239.748C81.0998 239.5 80.7518 239.148 80.5038 238.692C80.2558 238.228 80.1318 237.684 80.1318 237.06C80.1318 236.588 80.1998 236.168 80.3358 235.8C80.4798 235.424 80.6838 235.104 80.9478 234.84C81.2118 234.568 81.5278 234.364 81.8958 234.228C82.2638 234.084 82.6758 234.012 83.1318 234.012C83.7398 234.012 84.2678 234.136 84.7158 234.384C85.1638 234.632 85.5118 234.984 85.7598 235.44C86.0078 235.896 86.1318 236.436 86.1318 237.06C86.1318 237.532 86.0598 237.956 85.9158 238.332C85.7798 238.708 85.5798 239.032 85.3158 239.304C85.0518 239.568 84.7358 239.772 84.3678 239.916C83.9998 240.052 83.5878 240.12 83.1318 240.12ZM83.1318 238.98C83.4278 238.98 83.6878 238.908 83.9118 238.764C84.1358 238.62 84.3078 238.408 84.4278 238.128C84.5558 237.84 84.6198 237.484 84.6198 237.06C84.6198 236.42 84.4838 235.944 84.2118 235.632C83.9398 235.312 83.5798 235.152 83.1318 235.152C82.8358 235.152 82.5758 235.224 82.3518 235.368C82.1278 235.504 81.9518 235.716 81.8238 236.004C81.7038 236.284 81.6438 236.636 81.6438 237.06C81.6438 237.692 81.7798 238.172 82.0518 238.5C82.3238 238.82 82.6838 238.98 83.1318 238.98ZM88.1138 240.096C87.8738 240.096 87.6898 240.032 87.5618 239.904C87.4338 239.768 87.3698 239.576 87.3698 239.328V234.792C87.3698 234.544 87.4338 234.356 87.5618 234.228C87.6898 234.1 87.8698 234.036 88.1018 234.036C88.3338 234.036 88.5138 234.1 88.6418 234.228C88.7698 234.356 88.8338 234.544 88.8338 234.792V235.608L88.7018 235.308C88.8778 234.884 89.1498 234.564 89.5178 234.348C89.8938 234.124 90.3178 234.012 90.7898 234.012C91.2618 234.012 91.6498 234.1 91.9538 234.276C92.2578 234.452 92.4858 234.72 92.6378 235.08C92.7898 235.432 92.8658 235.88 92.8658 236.424V239.328C92.8658 239.576 92.8018 239.768 92.6738 239.904C92.5458 240.032 92.3618 240.096 92.1218 240.096C91.8818 240.096 91.6938 240.032 91.5578 239.904C91.4298 239.768 91.3658 239.576 91.3658 239.328V236.496C91.3658 236.04 91.2778 235.708 91.1018 235.5C90.9338 235.292 90.6698 235.188 90.3098 235.188C89.8698 235.188 89.5178 235.328 89.2538 235.608C88.9978 235.88 88.8698 236.244 88.8698 236.7V239.328C88.8698 239.84 88.6178 240.096 88.1138 240.096ZM94.9414 237.384C94.7654 237.384 94.6174 237.328 94.4974 237.216C94.3854 237.096 94.3294 236.952 94.3294 236.784C94.3294 236.608 94.3854 236.464 94.4974 236.352C94.6174 236.24 94.7654 236.184 94.9414 236.184H97.4974C97.6654 236.184 97.8054 236.24 97.9174 236.352C98.0374 236.464 98.0974 236.608 98.0974 236.784C98.0974 236.952 98.0374 237.096 97.9174 237.216C97.8054 237.328 97.6654 237.384 97.4974 237.384H94.9414ZM101.65 240.096C101.45 240.096 101.278 240.048 101.134 239.952C100.99 239.848 100.874 239.688 100.786 239.472L99.0456 235.032C98.9736 234.84 98.9496 234.672 98.9736 234.528C99.0056 234.376 99.0816 234.256 99.2016 234.168C99.3216 234.08 99.4816 234.036 99.6816 234.036C99.8576 234.036 100.002 234.08 100.114 234.168C100.226 234.248 100.322 234.404 100.402 234.636L101.854 238.632H101.578L103.078 234.54C103.142 234.364 103.226 234.236 103.33 234.156C103.442 234.076 103.586 234.036 103.762 234.036C103.938 234.036 104.082 234.08 104.194 234.168C104.306 234.248 104.39 234.372 104.446 234.54L105.922 238.632H105.67L107.134 234.6C107.214 234.384 107.314 234.236 107.434 234.156C107.562 234.076 107.702 234.036 107.854 234.036C108.046 234.036 108.194 234.084 108.298 234.18C108.402 234.276 108.462 234.4 108.478 234.552C108.494 234.696 108.466 234.856 108.394 235.032L106.666 239.472C106.586 239.68 106.47 239.836 106.318 239.94C106.174 240.044 106.002 240.096 105.802 240.096C105.602 240.096 105.426 240.044 105.274 239.94C105.13 239.836 105.018 239.68 104.938 239.472L103.366 235.308H104.05L102.514 239.46C102.434 239.676 102.322 239.836 102.178 239.94C102.034 240.044 101.858 240.096 101.65 240.096ZM112.171 240.12C111.563 240.12 111.035 239.996 110.587 239.748C110.139 239.5 109.791 239.148 109.543 238.692C109.295 238.228 109.171 237.684 109.171 237.06C109.171 236.588 109.239 236.168 109.375 235.8C109.519 235.424 109.723 235.104 109.987 234.84C110.251 234.568 110.567 234.364 110.935 234.228C111.303 234.084 111.715 234.012 112.171 234.012C112.779 234.012 113.307 234.136 113.755 234.384C114.203 234.632 114.551 234.984 114.799 235.44C115.047 235.896 115.171 236.436 115.171 237.06C115.171 237.532 115.099 237.956 114.955 238.332C114.819 238.708 114.619 239.032 114.355 239.304C114.091 239.568 113.775 239.772 113.407 239.916C113.039 240.052 112.627 240.12 112.171 240.12ZM112.171 238.98C112.467 238.98 112.727 238.908 112.951 238.764C113.175 238.62 113.347 238.408 113.467 238.128C113.595 237.84 113.659 237.484 113.659 237.06C113.659 236.42 113.523 235.944 113.251 235.632C112.979 235.312 112.619 235.152 112.171 235.152C111.875 235.152 111.615 235.224 111.391 235.368C111.167 235.504 110.991 235.716 110.863 236.004C110.743 236.284 110.683 236.636 110.683 237.06C110.683 237.692 110.819 238.172 111.091 238.5C111.363 238.82 111.723 238.98 112.171 238.98ZM117.177 240.096C116.929 240.096 116.737 240.032 116.601 239.904C116.473 239.768 116.409 239.576 116.409 239.328V234.792C116.409 234.544 116.473 234.356 116.601 234.228C116.729 234.1 116.909 234.036 117.141 234.036C117.373 234.036 117.553 234.1 117.681 234.228C117.809 234.356 117.873 234.544 117.873 234.792V235.548H117.753C117.865 235.068 118.085 234.704 118.413 234.456C118.741 234.208 119.177 234.06 119.721 234.012C119.889 233.996 120.021 234.04 120.117 234.144C120.221 234.24 120.281 234.392 120.297 234.6C120.313 234.8 120.265 234.964 120.153 235.092C120.049 235.212 119.889 235.284 119.673 235.308L119.409 235.332C118.921 235.38 118.553 235.532 118.305 235.788C118.057 236.036 117.933 236.388 117.933 236.844V239.328C117.933 239.576 117.869 239.768 117.741 239.904C117.613 240.032 117.425 240.096 117.177 240.096ZM121.852 240.096C121.612 240.096 121.428 240.032 121.3 239.904C121.172 239.768 121.108 239.576 121.108 239.328V232.2C121.108 231.952 121.172 231.764 121.3 231.636C121.428 231.508 121.612 231.444 121.852 231.444C122.092 231.444 122.276 231.508 122.404 231.636C122.54 231.764 122.608 231.952 122.608 232.2V236.628H122.632L124.612 234.54C124.772 234.38 124.912 234.256 125.032 234.168C125.152 234.08 125.316 234.036 125.524 234.036C125.732 234.036 125.888 234.092 125.992 234.204C126.104 234.308 126.16 234.436 126.16 234.588C126.16 234.74 126.088 234.892 125.944 235.044L123.856 237.252V236.628L126.148 239.1C126.292 239.252 126.356 239.408 126.34 239.568C126.332 239.72 126.268 239.848 126.148 239.952C126.028 240.048 125.876 240.096 125.692 240.096C125.468 240.096 125.288 240.052 125.152 239.964C125.024 239.876 124.88 239.744 124.72 239.568L122.632 237.384H122.608V239.328C122.608 239.84 122.356 240.096 121.852 240.096ZM128.286 240.084C128.046 240.084 127.862 240.012 127.734 239.868C127.606 239.724 127.542 239.524 127.542 239.268V234.864C127.542 234.6 127.606 234.4 127.734 234.264C127.862 234.12 128.046 234.048 128.286 234.048C128.526 234.048 128.71 234.12 128.838 234.264C128.974 234.4 129.042 234.6 129.042 234.864V239.268C129.042 239.524 128.978 239.724 128.85 239.868C128.722 240.012 128.534 240.084 128.286 240.084ZM128.286 232.932C128.006 232.932 127.786 232.864 127.626 232.728C127.474 232.584 127.398 232.388 127.398 232.14C127.398 231.884 127.474 231.688 127.626 231.552C127.786 231.416 128.006 231.348 128.286 231.348C128.574 231.348 128.794 231.416 128.946 231.552C129.098 231.688 129.174 231.884 129.174 232.14C129.174 232.388 129.098 232.584 128.946 232.728C128.794 232.864 128.574 232.932 128.286 232.932ZM131.344 240.096C131.104 240.096 130.92 240.032 130.792 239.904C130.664 239.768 130.6 239.576 130.6 239.328V234.792C130.6 234.544 130.664 234.356 130.792 234.228C130.92 234.1 131.1 234.036 131.332 234.036C131.564 234.036 131.744 234.1 131.872 234.228C132 234.356 132.064 234.544 132.064 234.792V235.608L131.932 235.308C132.108 234.884 132.38 234.564 132.748 234.348C133.124 234.124 133.548 234.012 134.02 234.012C134.492 234.012 134.88 234.1 135.184 234.276C135.488 234.452 135.716 234.72 135.868 235.08C136.02 235.432 136.096 235.88 136.096 236.424V239.328C136.096 239.576 136.032 239.768 135.904 239.904C135.776 240.032 135.592 240.096 135.352 240.096C135.112 240.096 134.924 240.032 134.788 239.904C134.66 239.768 134.596 239.576 134.596 239.328V236.496C134.596 236.04 134.508 235.708 134.332 235.5C134.164 235.292 133.9 235.188 133.54 235.188C133.1 235.188 132.748 235.328 132.484 235.608C132.228 235.88 132.1 236.244 132.1 236.7V239.328C132.1 239.84 131.848 240.096 131.344 240.096ZM140.356 242.28C139.924 242.28 139.504 242.24 139.096 242.16C138.696 242.08 138.332 241.956 138.004 241.788C137.852 241.708 137.748 241.612 137.692 241.5C137.644 241.388 137.628 241.272 137.644 241.152C137.668 241.04 137.716 240.94 137.788 240.852C137.868 240.764 137.964 240.704 138.076 240.672C138.188 240.64 138.304 240.656 138.424 240.72C138.776 240.896 139.108 241.008 139.42 241.056C139.74 241.112 140.012 241.14 140.236 241.14C140.772 241.14 141.172 241.008 141.436 240.744C141.708 240.488 141.844 240.104 141.844 239.592V238.512H141.952C141.832 238.92 141.58 239.248 141.196 239.496C140.82 239.736 140.392 239.856 139.912 239.856C139.384 239.856 138.924 239.736 138.532 239.496C138.14 239.248 137.836 238.904 137.62 238.464C137.404 238.024 137.296 237.512 137.296 236.928C137.296 236.488 137.356 236.092 137.476 235.74C137.604 235.38 137.78 235.072 138.004 234.816C138.236 234.56 138.512 234.364 138.832 234.228C139.16 234.084 139.52 234.012 139.912 234.012C140.408 234.012 140.84 234.136 141.208 234.384C141.584 234.624 141.828 234.944 141.94 235.344L141.82 235.644V234.792C141.82 234.544 141.884 234.356 142.012 234.228C142.148 234.1 142.332 234.036 142.564 234.036C142.804 234.036 142.988 234.1 143.116 234.228C143.244 234.356 143.308 234.544 143.308 234.792V239.412C143.308 240.364 143.056 241.08 142.552 241.56C142.048 242.04 141.316 242.28 140.356 242.28ZM140.32 238.716C140.632 238.716 140.9 238.644 141.124 238.5C141.348 238.356 141.52 238.152 141.64 237.888C141.768 237.616 141.832 237.296 141.832 236.928C141.832 236.376 141.696 235.944 141.424 235.632C141.152 235.312 140.784 235.152 140.32 235.152C140.008 235.152 139.74 235.224 139.516 235.368C139.292 235.512 139.116 235.716 138.988 235.98C138.868 236.244 138.808 236.56 138.808 236.928C138.808 237.48 138.944 237.916 139.216 238.236C139.488 238.556 139.856 238.716 140.32 238.716ZM149.08 240C148.816 240 148.612 239.932 148.468 239.796C148.332 239.652 148.264 239.448 148.264 239.184V232.356C148.264 232.092 148.332 231.892 148.468 231.756C148.612 231.612 148.816 231.54 149.08 231.54H151.408C152.824 231.54 153.916 231.904 154.684 232.632C155.46 233.36 155.848 234.404 155.848 235.764C155.848 236.444 155.748 237.048 155.548 237.576C155.356 238.096 155.068 238.536 154.684 238.896C154.308 239.256 153.844 239.532 153.292 239.724C152.748 239.908 152.12 240 151.408 240H149.08ZM149.8 238.728H151.312C151.808 238.728 152.236 238.668 152.596 238.548C152.964 238.42 153.268 238.236 153.508 237.996C153.756 237.748 153.94 237.44 154.06 237.072C154.18 236.696 154.24 236.26 154.24 235.764C154.24 234.772 153.996 234.032 153.508 233.544C153.02 233.056 152.288 232.812 151.312 232.812H149.8V238.728ZM159.192 240.12C158.768 240.12 158.388 240.04 158.052 239.88C157.724 239.712 157.464 239.488 157.272 239.208C157.088 238.928 156.996 238.612 156.996 238.26C156.996 237.828 157.108 237.488 157.332 237.24C157.556 236.984 157.92 236.8 158.424 236.688C158.928 236.576 159.604 236.52 160.452 236.52H161.052V237.384H160.464C159.968 237.384 159.572 237.408 159.276 237.456C158.98 237.504 158.768 237.588 158.64 237.708C158.52 237.82 158.46 237.98 158.46 238.188C158.46 238.452 158.552 238.668 158.736 238.836C158.92 239.004 159.176 239.088 159.504 239.088C159.768 239.088 160 239.028 160.2 238.908C160.408 238.78 160.572 238.608 160.692 238.392C160.812 238.176 160.872 237.928 160.872 237.648V236.268C160.872 235.868 160.784 235.58 160.608 235.404C160.432 235.228 160.136 235.14 159.72 235.14C159.488 235.14 159.236 235.168 158.964 235.224C158.7 235.28 158.42 235.376 158.124 235.512C157.972 235.584 157.836 235.604 157.716 235.572C157.604 235.54 157.516 235.476 157.452 235.38C157.388 235.276 157.356 235.164 157.356 235.044C157.356 234.924 157.388 234.808 157.452 234.696C157.516 234.576 157.624 234.488 157.776 234.432C158.144 234.28 158.496 234.172 158.832 234.108C159.176 234.044 159.488 234.012 159.768 234.012C160.344 234.012 160.816 234.1 161.184 234.276C161.56 234.452 161.84 234.72 162.024 235.08C162.208 235.432 162.3 235.888 162.3 236.448V239.328C162.3 239.576 162.24 239.768 162.12 239.904C162 240.032 161.828 240.096 161.604 240.096C161.38 240.096 161.204 240.032 161.076 239.904C160.956 239.768 160.896 239.576 160.896 239.328V238.752H160.992C160.936 239.032 160.824 239.276 160.656 239.484C160.496 239.684 160.292 239.84 160.044 239.952C159.796 240.064 159.512 240.12 159.192 240.12ZM165.252 242.256C165.076 242.256 164.932 242.208 164.82 242.112C164.708 242.024 164.64 241.904 164.616 241.752C164.6 241.6 164.628 241.44 164.7 241.272L165.516 239.46V240.084L163.332 235.032C163.26 234.856 163.236 234.692 163.26 234.54C163.284 234.388 163.356 234.268 163.476 234.18C163.604 234.084 163.776 234.036 163.992 234.036C164.176 234.036 164.324 234.08 164.436 234.168C164.548 234.248 164.648 234.404 164.736 234.636L166.356 238.68H165.996L167.652 234.624C167.74 234.4 167.844 234.248 167.964 234.168C168.084 234.08 168.244 234.036 168.444 234.036C168.62 234.036 168.76 234.084 168.864 234.18C168.968 234.268 169.032 234.388 169.056 234.54C169.08 234.684 169.052 234.844 168.972 235.02L166.056 241.68C165.952 241.904 165.84 242.056 165.72 242.136C165.6 242.216 165.444 242.256 165.252 242.256Z" fill="#64728C"/>
<path d="M20 273C20 266.373 25.3726 261 32 261H208C214.627 261 220 266.373 220 273V291C220 297.627 214.627 303 208 303H32C25.3726 303 20 297.627 20 291V273Z" fill="#EE6909"/>
<path d="M90.267 286.096C90.035 286.096 89.855 286.032 89.727 285.904C89.607 285.776 89.547 285.592 89.547 285.352V278.212C89.547 277.964 89.607 277.776 89.727 277.648C89.855 277.512 90.019 277.444 90.219 277.444C90.403 277.444 90.539 277.48 90.627 277.552C90.723 277.616 90.835 277.728 90.963 277.888L95.559 283.852H95.247V278.176C95.247 277.944 95.307 277.764 95.427 277.636C95.555 277.508 95.735 277.444 95.967 277.444C96.199 277.444 96.375 277.508 96.495 277.636C96.615 277.764 96.675 277.944 96.675 278.176V285.376C96.675 285.6 96.619 285.776 96.507 285.904C96.395 286.032 96.243 286.096 96.051 286.096C95.867 286.096 95.719 286.06 95.607 285.988C95.503 285.916 95.387 285.8 95.259 285.64L90.675 279.676H90.975V285.352C90.975 285.592 90.915 285.776 90.795 285.904C90.675 286.032 90.499 286.096 90.267 286.096ZM101.056 286.12C100.448 286.12 99.9196 285.996 99.4716 285.748C99.0236 285.5 98.6756 285.148 98.4276 284.692C98.1796 284.228 98.0556 283.684 98.0556 283.06C98.0556 282.588 98.1236 282.168 98.2596 281.8C98.4036 281.424 98.6076 281.104 98.8716 280.84C99.1356 280.568 99.4516 280.364 99.8196 280.228C100.188 280.084 100.6 280.012 101.056 280.012C101.664 280.012 102.192 280.136 102.64 280.384C103.088 280.632 103.436 280.984 103.684 281.44C103.932 281.896 104.056 282.436 104.056 283.06C104.056 283.532 103.984 283.956 103.84 284.332C103.704 284.708 103.504 285.032 103.24 285.304C102.976 285.568 102.66 285.772 102.292 285.916C101.924 286.052 101.512 286.12 101.056 286.12ZM101.056 284.98C101.352 284.98 101.612 284.908 101.836 284.764C102.06 284.62 102.232 284.408 102.352 284.128C102.48 283.84 102.544 283.484 102.544 283.06C102.544 282.42 102.408 281.944 102.136 281.632C101.864 281.312 101.504 281.152 101.056 281.152C100.76 281.152 100.5 281.224 100.276 281.368C100.052 281.504 99.8756 281.716 99.7476 282.004C99.6276 282.284 99.5676 282.636 99.5676 283.06C99.5676 283.692 99.7036 284.172 99.9756 284.5C100.248 284.82 100.608 284.98 101.056 284.98ZM107.923 286.12C107.403 286.12 106.967 286.032 106.615 285.856C106.271 285.68 106.015 285.424 105.847 285.088C105.679 284.744 105.595 284.32 105.595 283.816V281.26H104.971C104.779 281.26 104.631 281.212 104.527 281.116C104.423 281.012 104.371 280.872 104.371 280.696C104.371 280.512 104.423 280.372 104.527 280.276C104.631 280.18 104.779 280.132 104.971 280.132H105.595V279.04C105.595 278.792 105.659 278.604 105.787 278.476C105.923 278.348 106.111 278.284 106.351 278.284C106.591 278.284 106.775 278.348 106.903 278.476C107.031 278.604 107.095 278.792 107.095 279.04V280.132H108.367C108.559 280.132 108.707 280.18 108.811 280.276C108.915 280.372 108.967 280.512 108.967 280.696C108.967 280.872 108.915 281.012 108.811 281.116C108.707 281.212 108.559 281.26 108.367 281.26H107.095V283.732C107.095 284.116 107.179 284.404 107.347 284.596C107.515 284.788 107.787 284.884 108.163 284.884C108.299 284.884 108.419 284.872 108.523 284.848C108.627 284.824 108.719 284.808 108.799 284.8C108.895 284.792 108.975 284.824 109.039 284.896C109.103 284.96 109.135 285.096 109.135 285.304C109.135 285.464 109.107 285.608 109.051 285.736C109.003 285.856 108.911 285.94 108.775 285.988C108.671 286.02 108.535 286.048 108.367 286.072C108.199 286.104 108.051 286.12 107.923 286.12ZM110.334 283.384C110.158 283.384 110.01 283.328 109.89 283.216C109.778 283.096 109.722 282.952 109.722 282.784C109.722 282.608 109.778 282.464 109.89 282.352C110.01 282.24 110.158 282.184 110.334 282.184H112.89C113.058 282.184 113.198 282.24 113.31 282.352C113.43 282.464 113.49 282.608 113.49 282.784C113.49 282.952 113.43 283.096 113.31 283.216C113.198 283.328 113.058 283.384 112.89 283.384H110.334ZM115.945 286C115.681 286 115.477 285.932 115.333 285.796C115.197 285.652 115.129 285.448 115.129 285.184V278.356C115.129 278.092 115.197 277.892 115.333 277.756C115.477 277.612 115.681 277.54 115.945 277.54H118.273C119.689 277.54 120.781 277.904 121.549 278.632C122.325 279.36 122.713 280.404 122.713 281.764C122.713 282.444 122.613 283.048 122.413 283.576C122.221 284.096 121.933 284.536 121.549 284.896C121.173 285.256 120.709 285.532 120.157 285.724C119.613 285.908 118.985 286 118.273 286H115.945ZM116.665 284.728H118.177C118.673 284.728 119.101 284.668 119.461 284.548C119.829 284.42 120.133 284.236 120.373 283.996C120.621 283.748 120.805 283.44 120.925 283.072C121.045 282.696 121.105 282.26 121.105 281.764C121.105 280.772 120.861 280.032 120.373 279.544C119.885 279.056 119.153 278.812 118.177 278.812H116.665V284.728ZM127.018 286.12C126.354 286.12 125.782 285.996 125.302 285.748C124.822 285.5 124.45 285.148 124.186 284.692C123.93 284.236 123.802 283.696 123.802 283.072C123.802 282.464 123.926 281.932 124.174 281.476C124.43 281.02 124.778 280.664 125.218 280.408C125.666 280.144 126.174 280.012 126.742 280.012C127.158 280.012 127.53 280.08 127.858 280.216C128.194 280.352 128.478 280.548 128.71 280.804C128.95 281.06 129.13 281.372 129.25 281.74C129.378 282.1 129.442 282.508 129.442 282.964C129.442 283.108 129.39 283.22 129.286 283.3C129.19 283.372 129.05 283.408 128.866 283.408H125.014V282.544H128.386L128.194 282.724C128.194 282.356 128.138 282.048 128.026 281.8C127.922 281.552 127.766 281.364 127.558 281.236C127.358 281.1 127.106 281.032 126.802 281.032C126.466 281.032 126.178 281.112 125.938 281.272C125.706 281.424 125.526 281.644 125.398 281.932C125.278 282.212 125.218 282.548 125.218 282.94V283.024C125.218 283.68 125.37 284.172 125.674 284.5C125.986 284.82 126.442 284.98 127.042 284.98C127.25 284.98 127.482 284.956 127.738 284.908C128.002 284.852 128.25 284.76 128.482 284.632C128.65 284.536 128.798 284.496 128.926 284.512C129.054 284.52 129.154 284.564 129.226 284.644C129.306 284.724 129.354 284.824 129.37 284.944C129.386 285.056 129.362 285.172 129.298 285.292C129.242 285.412 129.142 285.516 128.998 285.604C128.718 285.78 128.394 285.912 128.026 286C127.666 286.08 127.33 286.12 127.018 286.12ZM131.758 286.096C131.518 286.096 131.33 286.032 131.194 285.904C131.066 285.768 131.002 285.576 131.002 285.328V281.26H130.45C130.258 281.26 130.11 281.212 130.006 281.116C129.902 281.012 129.85 280.872 129.85 280.696C129.85 280.512 129.902 280.372 130.006 280.276C130.11 280.18 130.258 280.132 130.45 280.132H131.434L131.002 280.528V280.12C131.002 279.312 131.206 278.7 131.614 278.284C132.022 277.868 132.614 277.62 133.39 277.54L133.75 277.504C133.934 277.488 134.078 277.512 134.182 277.576C134.294 277.64 134.366 277.728 134.398 277.84C134.438 277.944 134.446 278.056 134.422 278.176C134.398 278.288 134.35 278.388 134.278 278.476C134.206 278.556 134.114 278.6 134.002 278.608L133.714 278.632C133.29 278.664 132.982 278.78 132.79 278.98C132.598 279.18 132.502 279.48 132.502 279.88V280.324L132.31 280.132H135.634C135.874 280.132 136.058 280.204 136.186 280.348C136.314 280.484 136.378 280.68 136.378 280.936V285.268C136.378 285.524 136.314 285.724 136.186 285.868C136.066 286.012 135.882 286.084 135.634 286.084C135.394 286.084 135.206 286.012 135.07 285.868C134.942 285.724 134.878 285.524 134.878 285.268V281.26H132.502V285.328C132.502 285.84 132.254 286.096 131.758 286.096ZM135.658 278.932C135.386 278.932 135.174 278.864 135.022 278.728C134.878 278.584 134.806 278.388 134.806 278.14C134.806 277.884 134.878 277.688 135.022 277.552C135.174 277.416 135.386 277.348 135.658 277.348C135.938 277.348 136.15 277.416 136.294 277.552C136.446 277.688 136.522 277.884 136.522 278.14C136.522 278.388 136.446 278.584 136.294 278.728C136.15 278.864 135.938 278.932 135.658 278.932ZM138.686 286.096C138.446 286.096 138.262 286.032 138.134 285.904C138.006 285.768 137.942 285.576 137.942 285.328V280.792C137.942 280.544 138.006 280.356 138.134 280.228C138.262 280.1 138.442 280.036 138.674 280.036C138.906 280.036 139.086 280.1 139.214 280.228C139.342 280.356 139.406 280.544 139.406 280.792V281.608L139.274 281.308C139.45 280.884 139.722 280.564 140.09 280.348C140.466 280.124 140.89 280.012 141.362 280.012C141.834 280.012 142.222 280.1 142.526 280.276C142.83 280.452 143.058 280.72 143.21 281.08C143.362 281.432 143.438 281.88 143.438 282.424V285.328C143.438 285.576 143.374 285.768 143.246 285.904C143.118 286.032 142.934 286.096 142.694 286.096C142.454 286.096 142.266 286.032 142.13 285.904C142.002 285.768 141.938 285.576 141.938 285.328V282.496C141.938 282.04 141.85 281.708 141.674 281.5C141.506 281.292 141.242 281.188 140.882 281.188C140.442 281.188 140.09 281.328 139.826 281.608C139.57 281.88 139.442 282.244 139.442 282.7V285.328C139.442 285.84 139.19 286.096 138.686 286.096ZM147.218 286.12C146.706 286.12 146.254 285.996 145.862 285.748C145.478 285.5 145.178 285.148 144.962 284.692C144.746 284.228 144.638 283.684 144.638 283.06C144.638 282.428 144.746 281.888 144.962 281.44C145.178 280.984 145.478 280.632 145.862 280.384C146.254 280.136 146.706 280.012 147.218 280.012C147.706 280.012 148.13 280.132 148.49 280.372C148.858 280.612 149.106 280.928 149.234 281.32H149.102V278.2C149.102 277.952 149.166 277.764 149.294 277.636C149.422 277.508 149.606 277.444 149.846 277.444C150.086 277.444 150.27 277.508 150.398 277.636C150.534 277.764 150.602 277.952 150.602 278.2V285.328C150.602 285.576 150.538 285.768 150.41 285.904C150.282 286.032 150.098 286.096 149.858 286.096C149.618 286.096 149.434 286.032 149.306 285.904C149.178 285.768 149.114 285.576 149.114 285.328V284.392L149.246 284.752C149.126 285.168 148.882 285.5 148.514 285.748C148.146 285.996 147.714 286.12 147.218 286.12ZM147.638 284.98C147.934 284.98 148.194 284.908 148.418 284.764C148.642 284.62 148.814 284.408 148.934 284.128C149.062 283.84 149.126 283.484 149.126 283.06C149.126 282.42 148.99 281.944 148.718 281.632C148.446 281.312 148.086 281.152 147.638 281.152C147.342 281.152 147.082 281.224 146.858 281.368C146.634 281.504 146.458 281.716 146.33 282.004C146.21 282.284 146.15 282.636 146.15 283.06C146.15 283.692 146.286 284.172 146.558 284.5C146.83 284.82 147.19 284.98 147.638 284.98Z" fill="white"/>
</g>
<path d="M117.457 53.0665C118.632 51.1877 121.368 51.1877 122.543 53.0665L128.387 62.4092C129.637 64.4073 128.2 67 125.843 67H114.157C111.8 67 110.363 64.4073 111.613 62.4092L117.457 53.0665Z" fill="white"/>
<path d="M20 12C20 5.37258 25.3726 0 32 0H208C214.627 0 220 5.37258 220 12V30C220 36.6274 214.627 42 208 42H32C25.3726 42 20 36.6274 20 30V12Z" fill="#64728C" fill-opacity="0.12"/>
<path d="M68.2931 25.12C67.9411 25.12 67.5891 25.092 67.2371 25.036C66.8851 24.988 66.5531 24.912 66.2411 24.808C65.9291 24.696 65.6491 24.56 65.4011 24.4C65.2571 24.304 65.1571 24.188 65.1011 24.052C65.0451 23.916 65.0251 23.784 65.0411 23.656C65.0651 23.52 65.1171 23.404 65.1971 23.308C65.2851 23.204 65.3931 23.14 65.5211 23.116C65.6491 23.092 65.7891 23.128 65.9411 23.224C66.2931 23.432 66.6651 23.584 67.0571 23.68C67.4491 23.776 67.8611 23.824 68.2931 23.824C68.9251 23.824 69.3851 23.72 69.6731 23.512C69.9611 23.296 70.1051 23.02 70.1051 22.684C70.1051 22.404 70.0011 22.184 69.7931 22.024C69.5931 21.864 69.2451 21.732 68.7491 21.628L67.4291 21.352C66.6691 21.192 66.1011 20.924 65.7251 20.548C65.3571 20.164 65.1731 19.66 65.1731 19.036C65.1731 18.644 65.2531 18.288 65.4131 17.968C65.5731 17.648 65.7971 17.372 66.0851 17.14C66.3811 16.908 66.7291 16.732 67.1291 16.612C67.5371 16.484 67.9851 16.42 68.4731 16.42C68.9531 16.42 69.4091 16.48 69.8411 16.6C70.2731 16.72 70.6611 16.896 71.0051 17.128C71.1331 17.216 71.2171 17.324 71.2571 17.452C71.3051 17.58 71.3171 17.708 71.2931 17.836C71.2691 17.956 71.2131 18.06 71.1251 18.148C71.0371 18.236 70.9251 18.288 70.7891 18.304C70.6611 18.32 70.5131 18.28 70.3451 18.184C70.0491 18.016 69.7491 17.896 69.4451 17.824C69.1411 17.752 68.8131 17.716 68.4611 17.716C68.0931 17.716 67.7771 17.768 67.5131 17.872C67.2491 17.976 67.0451 18.124 66.9011 18.316C66.7651 18.5 66.6971 18.72 66.6971 18.976C66.6971 19.264 66.7931 19.496 66.9851 19.672C67.1771 19.84 67.5051 19.972 67.9691 20.068L69.2771 20.344C70.0691 20.512 70.6571 20.776 71.0411 21.136C71.4331 21.496 71.6291 21.976 71.6291 22.576C71.6291 22.96 71.5491 23.308 71.3891 23.62C71.2371 23.932 71.0131 24.2 70.7171 24.424C70.4291 24.648 70.0811 24.82 69.6731 24.94C69.2651 25.06 68.8051 25.12 68.2931 25.12ZM75.6954 25.12C75.0314 25.12 74.4594 24.996 73.9794 24.748C73.4994 24.5 73.1274 24.148 72.8634 23.692C72.6074 23.236 72.4794 22.696 72.4794 22.072C72.4794 21.464 72.6034 20.932 72.8514 20.476C73.1074 20.02 73.4554 19.664 73.8954 19.408C74.3434 19.144 74.8514 19.012 75.4194 19.012C75.8354 19.012 76.2074 19.08 76.5354 19.216C76.8714 19.352 77.1554 19.548 77.3874 19.804C77.6274 20.06 77.8074 20.372 77.9274 20.74C78.0554 21.1 78.1194 21.508 78.1194 21.964C78.1194 22.108 78.0674 22.22 77.9634 22.3C77.8674 22.372 77.7274 22.408 77.5434 22.408H73.6914V21.544H77.0634L76.8714 21.724C76.8714 21.356 76.8154 21.048 76.7034 20.8C76.5994 20.552 76.4434 20.364 76.2354 20.236C76.0354 20.1 75.7834 20.032 75.4794 20.032C75.1434 20.032 74.8554 20.112 74.6154 20.272C74.3834 20.424 74.2034 20.644 74.0754 20.932C73.9554 21.212 73.8954 21.548 73.8954 21.94V22.024C73.8954 22.68 74.0474 23.172 74.3514 23.5C74.6634 23.82 75.1194 23.98 75.7194 23.98C75.9274 23.98 76.1594 23.956 76.4154 23.908C76.6794 23.852 76.9274 23.76 77.1594 23.632C77.3274 23.536 77.4754 23.496 77.6034 23.512C77.7314 23.52 77.8314 23.564 77.9034 23.644C77.9834 23.724 78.0314 23.824 78.0474 23.944C78.0634 24.056 78.0394 24.172 77.9754 24.292C77.9194 24.412 77.8194 24.516 77.6754 24.604C77.3954 24.78 77.0714 24.912 76.7034 25C76.3434 25.08 76.0074 25.12 75.6954 25.12ZM81.3113 25.12C80.6473 25.12 80.1473 24.932 79.8113 24.556C79.4753 24.172 79.3073 23.612 79.3073 22.876V17.2C79.3073 16.952 79.3713 16.764 79.4993 16.636C79.6273 16.508 79.8113 16.444 80.0513 16.444C80.2913 16.444 80.4753 16.508 80.6033 16.636C80.7393 16.764 80.8073 16.952 80.8073 17.2V22.804C80.8073 23.172 80.8833 23.444 81.0353 23.62C81.1953 23.796 81.4193 23.884 81.7073 23.884C81.7713 23.884 81.8313 23.884 81.8873 23.884C81.9433 23.876 81.9993 23.868 82.0553 23.86C82.1673 23.844 82.2433 23.876 82.2833 23.956C82.3233 24.028 82.3433 24.18 82.3433 24.412C82.3433 24.612 82.3033 24.768 82.2233 24.88C82.1433 24.992 82.0113 25.06 81.8273 25.084C81.7473 25.092 81.6633 25.1 81.5753 25.108C81.4873 25.116 81.3993 25.12 81.3113 25.12ZM85.9728 25.12C85.3088 25.12 84.7368 24.996 84.2568 24.748C83.7768 24.5 83.4048 24.148 83.1408 23.692C82.8848 23.236 82.7568 22.696 82.7568 22.072C82.7568 21.464 82.8808 20.932 83.1288 20.476C83.3848 20.02 83.7328 19.664 84.1728 19.408C84.6208 19.144 85.1288 19.012 85.6968 19.012C86.1128 19.012 86.4848 19.08 86.8128 19.216C87.1488 19.352 87.4328 19.548 87.6648 19.804C87.9048 20.06 88.0848 20.372 88.2048 20.74C88.3328 21.1 88.3968 21.508 88.3968 21.964C88.3968 22.108 88.3448 22.22 88.2408 22.3C88.1448 22.372 88.0048 22.408 87.8208 22.408H83.9688V21.544H87.3408L87.1488 21.724C87.1488 21.356 87.0928 21.048 86.9808 20.8C86.8768 20.552 86.7208 20.364 86.5128 20.236C86.3128 20.1 86.0608 20.032 85.7568 20.032C85.4208 20.032 85.1328 20.112 84.8928 20.272C84.6608 20.424 84.4808 20.644 84.3528 20.932C84.2328 21.212 84.1728 21.548 84.1728 21.94V22.024C84.1728 22.68 84.3248 23.172 84.6288 23.5C84.9408 23.82 85.3968 23.98 85.9968 23.98C86.2048 23.98 86.4368 23.956 86.6928 23.908C86.9568 23.852 87.2048 23.76 87.4368 23.632C87.6048 23.536 87.7528 23.496 87.8808 23.512C88.0088 23.52 88.1088 23.564 88.1808 23.644C88.2608 23.724 88.3088 23.824 88.3248 23.944C88.3408 24.056 88.3168 24.172 88.2528 24.292C88.1968 24.412 88.0968 24.516 87.9528 24.604C87.6728 24.78 87.3488 24.912 86.9808 25C86.6208 25.08 86.2848 25.12 85.9728 25.12ZM92.2967 25.12C91.6807 25.12 91.1447 24.996 90.6887 24.748C90.2327 24.492 89.8807 24.132 89.6327 23.668C89.3847 23.204 89.2607 22.66 89.2607 22.036C89.2607 21.564 89.3287 21.144 89.4647 20.776C89.6087 20.4 89.8127 20.084 90.0767 19.828C90.3407 19.564 90.6607 19.364 91.0367 19.228C91.4127 19.084 91.8327 19.012 92.2967 19.012C92.5607 19.012 92.8447 19.048 93.1487 19.12C93.4607 19.192 93.7527 19.312 94.0247 19.48C94.1527 19.56 94.2367 19.656 94.2767 19.768C94.3167 19.88 94.3247 19.996 94.3007 20.116C94.2767 20.228 94.2247 20.328 94.1447 20.416C94.0727 20.496 93.9807 20.548 93.8687 20.572C93.7567 20.588 93.6327 20.56 93.4967 20.488C93.3207 20.384 93.1407 20.308 92.9567 20.26C92.7727 20.204 92.5967 20.176 92.4287 20.176C92.1647 20.176 91.9327 20.22 91.7327 20.308C91.5327 20.388 91.3607 20.508 91.2167 20.668C91.0807 20.82 90.9767 21.012 90.9047 21.244C90.8327 21.476 90.7967 21.744 90.7967 22.048C90.7967 22.64 90.9367 23.108 91.2167 23.452C91.5047 23.788 91.9087 23.956 92.4287 23.956C92.5967 23.956 92.7687 23.932 92.9447 23.884C93.1287 23.836 93.3127 23.76 93.4967 23.656C93.6327 23.584 93.7527 23.56 93.8567 23.584C93.9687 23.608 94.0607 23.664 94.1327 23.752C94.2047 23.832 94.2487 23.932 94.2647 24.052C94.2807 24.164 94.2647 24.276 94.2167 24.388C94.1767 24.5 94.0967 24.592 93.9767 24.664C93.7127 24.824 93.4327 24.94 93.1367 25.012C92.8407 25.084 92.5607 25.12 92.2967 25.12ZM97.9563 25.12C97.4363 25.12 97.0003 25.032 96.6483 24.856C96.3043 24.68 96.0483 24.424 95.8803 24.088C95.7123 23.744 95.6283 23.32 95.6283 22.816V20.26H95.0043C94.8123 20.26 94.6643 20.212 94.5603 20.116C94.4563 20.012 94.4043 19.872 94.4043 19.696C94.4043 19.512 94.4563 19.372 94.5603 19.276C94.6643 19.18 94.8123 19.132 95.0043 19.132H95.6283V18.04C95.6283 17.792 95.6923 17.604 95.8203 17.476C95.9563 17.348 96.1443 17.284 96.3843 17.284C96.6243 17.284 96.8083 17.348 96.9363 17.476C97.0643 17.604 97.1283 17.792 97.1283 18.04V19.132H98.4003C98.5923 19.132 98.7403 19.18 98.8443 19.276C98.9483 19.372 99.0003 19.512 99.0003 19.696C99.0003 19.872 98.9483 20.012 98.8443 20.116C98.7403 20.212 98.5923 20.26 98.4003 20.26H97.1283V22.732C97.1283 23.116 97.2123 23.404 97.3803 23.596C97.5483 23.788 97.8203 23.884 98.1963 23.884C98.3323 23.884 98.4523 23.872 98.5563 23.848C98.6603 23.824 98.7523 23.808 98.8323 23.8C98.9283 23.792 99.0083 23.824 99.0723 23.896C99.1363 23.96 99.1683 24.096 99.1683 24.304C99.1683 24.464 99.1403 24.608 99.0843 24.736C99.0363 24.856 98.9443 24.94 98.8083 24.988C98.7043 25.02 98.5683 25.048 98.4003 25.072C98.2323 25.104 98.0843 25.12 97.9563 25.12ZM106.252 25.096C106.036 25.096 105.86 25.044 105.724 24.94C105.596 24.836 105.492 24.672 105.412 24.448L102.904 17.356C102.816 17.1 102.832 16.884 102.952 16.708C103.08 16.532 103.292 16.444 103.588 16.444C103.804 16.444 103.972 16.496 104.092 16.6C104.212 16.696 104.308 16.852 104.38 17.068L106.54 23.476H106.06L108.316 17.08C108.396 16.864 108.496 16.704 108.616 16.6C108.736 16.496 108.892 16.444 109.084 16.444C109.276 16.444 109.428 16.496 109.54 16.6C109.652 16.704 109.748 16.868 109.828 17.092L112.012 23.476H111.592L113.788 17.068C113.86 16.86 113.956 16.704 114.076 16.6C114.196 16.496 114.36 16.444 114.568 16.444C114.824 16.444 115.012 16.532 115.132 16.708C115.252 16.884 115.268 17.1 115.18 17.356L112.648 24.46C112.568 24.676 112.464 24.836 112.336 24.94C112.208 25.044 112.036 25.096 111.82 25.096C111.604 25.096 111.432 25.044 111.304 24.94C111.176 24.836 111.072 24.672 110.992 24.448L108.904 18.496H109.18L107.068 24.46C106.988 24.676 106.884 24.836 106.756 24.94C106.636 25.044 106.468 25.096 106.252 25.096ZM118.417 25.12C117.809 25.12 117.281 24.996 116.833 24.748C116.385 24.5 116.037 24.148 115.789 23.692C115.541 23.228 115.417 22.684 115.417 22.06C115.417 21.588 115.485 21.168 115.621 20.8C115.765 20.424 115.969 20.104 116.233 19.84C116.497 19.568 116.813 19.364 117.181 19.228C117.549 19.084 117.961 19.012 118.417 19.012C119.025 19.012 119.553 19.136 120.001 19.384C120.449 19.632 120.797 19.984 121.045 20.44C121.293 20.896 121.417 21.436 121.417 22.06C121.417 22.532 121.345 22.956 121.201 23.332C121.065 23.708 120.865 24.032 120.601 24.304C120.337 24.568 120.021 24.772 119.653 24.916C119.285 25.052 118.873 25.12 118.417 25.12ZM118.417 23.98C118.713 23.98 118.973 23.908 119.197 23.764C119.421 23.62 119.593 23.408 119.713 23.128C119.841 22.84 119.905 22.484 119.905 22.06C119.905 21.42 119.769 20.944 119.497 20.632C119.225 20.312 118.865 20.152 118.417 20.152C118.121 20.152 117.861 20.224 117.637 20.368C117.413 20.504 117.237 20.716 117.109 21.004C116.989 21.284 116.929 21.636 116.929 22.06C116.929 22.692 117.065 23.172 117.337 23.5C117.609 23.82 117.969 23.98 118.417 23.98ZM123.423 25.096C123.175 25.096 122.983 25.032 122.847 24.904C122.719 24.768 122.655 24.576 122.655 24.328V19.792C122.655 19.544 122.719 19.356 122.847 19.228C122.975 19.1 123.155 19.036 123.387 19.036C123.619 19.036 123.799 19.1 123.927 19.228C124.055 19.356 124.119 19.544 124.119 19.792V20.548H123.999C124.111 20.068 124.331 19.704 124.659 19.456C124.987 19.208 125.423 19.06 125.967 19.012C126.135 18.996 126.267 19.04 126.363 19.144C126.467 19.24 126.527 19.392 126.543 19.6C126.559 19.8 126.511 19.964 126.399 20.092C126.295 20.212 126.135 20.284 125.919 20.308L125.655 20.332C125.167 20.38 124.799 20.532 124.551 20.788C124.303 21.036 124.179 21.388 124.179 21.844V24.328C124.179 24.576 124.115 24.768 123.987 24.904C123.859 25.032 123.671 25.096 123.423 25.096ZM128.098 25.096C127.858 25.096 127.674 25.032 127.546 24.904C127.418 24.768 127.354 24.576 127.354 24.328V17.2C127.354 16.952 127.418 16.764 127.546 16.636C127.674 16.508 127.858 16.444 128.098 16.444C128.338 16.444 128.522 16.508 128.65 16.636C128.786 16.764 128.854 16.952 128.854 17.2V21.628H128.878L130.858 19.54C131.018 19.38 131.158 19.256 131.278 19.168C131.398 19.08 131.562 19.036 131.77 19.036C131.978 19.036 132.134 19.092 132.238 19.204C132.35 19.308 132.406 19.436 132.406 19.588C132.406 19.74 132.334 19.892 132.19 20.044L130.102 22.252V21.628L132.394 24.1C132.538 24.252 132.602 24.408 132.586 24.568C132.578 24.72 132.514 24.848 132.394 24.952C132.274 25.048 132.122 25.096 131.938 25.096C131.714 25.096 131.534 25.052 131.398 24.964C131.27 24.876 131.126 24.744 130.966 24.568L128.878 22.384H128.854V24.328C128.854 24.84 128.602 25.096 128.098 25.096ZM134.532 25.084C134.292 25.084 134.108 25.012 133.98 24.868C133.852 24.724 133.788 24.524 133.788 24.268V19.864C133.788 19.6 133.852 19.4 133.98 19.264C134.108 19.12 134.292 19.048 134.532 19.048C134.772 19.048 134.956 19.12 135.084 19.264C135.22 19.4 135.288 19.6 135.288 19.864V24.268C135.288 24.524 135.224 24.724 135.096 24.868C134.968 25.012 134.78 25.084 134.532 25.084ZM134.532 17.932C134.252 17.932 134.032 17.864 133.872 17.728C133.72 17.584 133.644 17.388 133.644 17.14C133.644 16.884 133.72 16.688 133.872 16.552C134.032 16.416 134.252 16.348 134.532 16.348C134.82 16.348 135.04 16.416 135.192 16.552C135.344 16.688 135.42 16.884 135.42 17.14C135.42 17.388 135.344 17.584 135.192 17.728C135.04 17.864 134.82 17.932 134.532 17.932ZM137.59 25.096C137.35 25.096 137.166 25.032 137.038 24.904C136.91 24.768 136.846 24.576 136.846 24.328V19.792C136.846 19.544 136.91 19.356 137.038 19.228C137.166 19.1 137.346 19.036 137.578 19.036C137.81 19.036 137.99 19.1 138.118 19.228C138.246 19.356 138.31 19.544 138.31 19.792V20.608L138.178 20.308C138.354 19.884 138.626 19.564 138.994 19.348C139.37 19.124 139.794 19.012 140.266 19.012C140.738 19.012 141.126 19.1 141.43 19.276C141.734 19.452 141.962 19.72 142.114 20.08C142.266 20.432 142.342 20.88 142.342 21.424V24.328C142.342 24.576 142.278 24.768 142.15 24.904C142.022 25.032 141.838 25.096 141.598 25.096C141.358 25.096 141.17 25.032 141.034 24.904C140.906 24.768 140.842 24.576 140.842 24.328V21.496C140.842 21.04 140.754 20.708 140.578 20.5C140.41 20.292 140.146 20.188 139.786 20.188C139.346 20.188 138.994 20.328 138.73 20.608C138.474 20.88 138.346 21.244 138.346 21.7V24.328C138.346 24.84 138.094 25.096 137.59 25.096ZM146.602 27.28C146.17 27.28 145.75 27.24 145.342 27.16C144.942 27.08 144.578 26.956 144.25 26.788C144.098 26.708 143.994 26.612 143.938 26.5C143.89 26.388 143.874 26.272 143.89 26.152C143.914 26.04 143.962 25.94 144.034 25.852C144.114 25.764 144.21 25.704 144.322 25.672C144.434 25.64 144.55 25.656 144.67 25.72C145.022 25.896 145.354 26.008 145.666 26.056C145.986 26.112 146.258 26.14 146.482 26.14C147.018 26.14 147.418 26.008 147.682 25.744C147.954 25.488 148.09 25.104 148.09 24.592V23.512H148.198C148.078 23.92 147.826 24.248 147.442 24.496C147.066 24.736 146.638 24.856 146.158 24.856C145.63 24.856 145.17 24.736 144.778 24.496C144.386 24.248 144.082 23.904 143.866 23.464C143.65 23.024 143.542 22.512 143.542 21.928C143.542 21.488 143.602 21.092 143.722 20.74C143.85 20.38 144.026 20.072 144.25 19.816C144.482 19.56 144.758 19.364 145.078 19.228C145.406 19.084 145.766 19.012 146.158 19.012C146.654 19.012 147.086 19.136 147.454 19.384C147.83 19.624 148.074 19.944 148.186 20.344L148.066 20.644V19.792C148.066 19.544 148.13 19.356 148.258 19.228C148.394 19.1 148.578 19.036 148.81 19.036C149.05 19.036 149.234 19.1 149.362 19.228C149.49 19.356 149.554 19.544 149.554 19.792V24.412C149.554 25.364 149.302 26.08 148.798 26.56C148.294 27.04 147.562 27.28 146.602 27.28ZM146.566 23.716C146.878 23.716 147.146 23.644 147.37 23.5C147.594 23.356 147.766 23.152 147.886 22.888C148.014 22.616 148.078 22.296 148.078 21.928C148.078 21.376 147.942 20.944 147.67 20.632C147.398 20.312 147.03 20.152 146.566 20.152C146.254 20.152 145.986 20.224 145.762 20.368C145.538 20.512 145.362 20.716 145.234 20.98C145.114 21.244 145.054 21.56 145.054 21.928C145.054 22.48 145.19 22.916 145.462 23.236C145.734 23.556 146.102 23.716 146.566 23.716ZM155.326 25C155.062 25 154.858 24.932 154.714 24.796C154.578 24.652 154.51 24.448 154.51 24.184V17.356C154.51 17.092 154.578 16.892 154.714 16.756C154.858 16.612 155.062 16.54 155.326 16.54H157.654C159.07 16.54 160.162 16.904 160.93 17.632C161.706 18.36 162.094 19.404 162.094 20.764C162.094 21.444 161.994 22.048 161.794 22.576C161.602 23.096 161.314 23.536 160.93 23.896C160.554 24.256 160.09 24.532 159.538 24.724C158.994 24.908 158.366 25 157.654 25H155.326ZM156.046 23.728H157.558C158.054 23.728 158.482 23.668 158.842 23.548C159.21 23.42 159.514 23.236 159.754 22.996C160.002 22.748 160.186 22.44 160.306 22.072C160.426 21.696 160.486 21.26 160.486 20.764C160.486 19.772 160.242 19.032 159.754 18.544C159.266 18.056 158.534 17.812 157.558 17.812H156.046V23.728ZM165.439 25.12C165.015 25.12 164.635 25.04 164.299 24.88C163.971 24.712 163.711 24.488 163.519 24.208C163.335 23.928 163.243 23.612 163.243 23.26C163.243 22.828 163.355 22.488 163.579 22.24C163.803 21.984 164.167 21.8 164.671 21.688C165.175 21.576 165.851 21.52 166.699 21.52H167.299V22.384H166.711C166.215 22.384 165.819 22.408 165.523 22.456C165.227 22.504 165.015 22.588 164.887 22.708C164.767 22.82 164.707 22.98 164.707 23.188C164.707 23.452 164.799 23.668 164.983 23.836C165.167 24.004 165.423 24.088 165.751 24.088C166.015 24.088 166.247 24.028 166.447 23.908C166.655 23.78 166.819 23.608 166.939 23.392C167.059 23.176 167.119 22.928 167.119 22.648V21.268C167.119 20.868 167.031 20.58 166.855 20.404C166.679 20.228 166.383 20.14 165.967 20.14C165.735 20.14 165.483 20.168 165.211 20.224C164.947 20.28 164.667 20.376 164.371 20.512C164.219 20.584 164.083 20.604 163.963 20.572C163.851 20.54 163.763 20.476 163.699 20.38C163.635 20.276 163.603 20.164 163.603 20.044C163.603 19.924 163.635 19.808 163.699 19.696C163.763 19.576 163.871 19.488 164.023 19.432C164.391 19.28 164.743 19.172 165.079 19.108C165.423 19.044 165.735 19.012 166.015 19.012C166.591 19.012 167.063 19.1 167.431 19.276C167.807 19.452 168.087 19.72 168.271 20.08C168.455 20.432 168.547 20.888 168.547 21.448V24.328C168.547 24.576 168.487 24.768 168.367 24.904C168.247 25.032 168.075 25.096 167.851 25.096C167.627 25.096 167.451 25.032 167.323 24.904C167.203 24.768 167.143 24.576 167.143 24.328V23.752H167.239C167.183 24.032 167.071 24.276 166.903 24.484C166.743 24.684 166.539 24.84 166.291 24.952C166.043 25.064 165.759 25.12 165.439 25.12ZM171.498 27.256C171.322 27.256 171.178 27.208 171.066 27.112C170.954 27.024 170.886 26.904 170.862 26.752C170.846 26.6 170.874 26.44 170.946 26.272L171.762 24.46V25.084L169.578 20.032C169.506 19.856 169.482 19.692 169.506 19.54C169.53 19.388 169.602 19.268 169.722 19.18C169.85 19.084 170.022 19.036 170.238 19.036C170.422 19.036 170.57 19.08 170.682 19.168C170.794 19.248 170.894 19.404 170.982 19.636L172.602 23.68H172.242L173.898 19.624C173.986 19.4 174.09 19.248 174.21 19.168C174.33 19.08 174.49 19.036 174.69 19.036C174.866 19.036 175.006 19.084 175.11 19.18C175.214 19.268 175.278 19.388 175.302 19.54C175.326 19.684 175.298 19.844 175.218 20.02L172.302 26.68C172.198 26.904 172.086 27.056 171.966 27.136C171.846 27.216 171.69 27.256 171.498 27.256Z" fill="#64728C"/>
<defs>
<filter id="filter0_d_998_3405" x="0" y="61" width="240" height="270" filterUnits="userSpaceOnUse" color-interpolation-filters="sRGB">
<feFlood flood-opacity="0" result="BackgroundImageFix"/>
<feColorMatrix in="SourceAlpha" type="matrix" values="0 0 0 0 0 0 0 0 0 0 0 0 0 0 0 0 0 0 127 0" result="hardAlpha"/>
<feOffset dy="4"/>
<feGaussianBlur stdDeviation="2"/>
<feComposite in2="hardAlpha" operator="out"/>
<feColorMatrix type="matrix" values="0 0 0 0 0 0 0 0 0 0 0 0 0 0 0 0 0 0 0.05 0"/>
<feBlend mode="normal" in2="BackgroundImageFix" result="effect1_dropShadow_998_3405"/>
<feBlend mode="normal" in="SourceGraphic" in2="effect1_dropShadow_998_3405" result="shape"/>
</filter>
<filter id="filter1_i_998_3405" x="20" y="169" width="200" height="44" filterUnits="userSpaceOnUse" color-interpolation-filters="sRGB">
<feFlood flood-opacity="0" result="BackgroundImageFix"/>
<feBlend mode="normal" in="SourceGraphic" in2="BackgroundImageFix" result="shape"/>
<feColorMatrix in="SourceAlpha" type="matrix" values="0 0 0 0 0 0 0 0 0 0 0 0 0 0 0 0 0 0 127 0" result="hardAlpha"/>
<feOffset dy="2"/>
<feGaussianBlur stdDeviation="2"/>
<feComposite in2="hardAlpha" operator="arithmetic" k2="-1" k3="1"/>
<feColorMatrix type="matrix" values="0 0 0 0 0 0 0 0 0 0 0 0 0 0 0 0 0 0 0.05 0"/>
<feBlend mode="normal" in2="shape" result="effect1_innerShadow_998_3405"/>
</filter>
</defs>
</svg>
