<svg width="332" height="379" viewBox="0 0 332 379" fill="none" xmlns="http://www.w3.org/2000/svg">
<g filter="url(#filter0_d_998_3406)">
<g filter="url(#filter1_d_998_3406)">
<rect x="50" y="63" width="232" height="262" rx="18" fill="#E8EAEF"/>
<rect x="50.5" y="63.5" width="231" height="261" rx="17.5" stroke="#64728C" stroke-opacity="0.21"/>
<rect x="50" y="63" width="232" height="258" rx="18" fill="white"/>
<path d="M66 91C66 84.3726 71.3726 79 78 79H254C260.627 79 266 84.3726 266 91V109C266 115.627 260.627 121 254 121H78C71.3726 121 66 115.627 66 109V91Z" fill="#17AA54"/>
<path d="M133.302 104.096C133.086 104.096 132.91 104.044 132.774 103.94C132.646 103.836 132.542 103.672 132.462 103.448L129.954 96.356C129.866 96.1 129.882 95.884 130.002 95.708C130.13 95.532 130.342 95.444 130.638 95.444C130.854 95.444 131.022 95.496 131.142 95.6C131.262 95.696 131.358 95.852 131.43 96.068L133.59 102.476H133.11L135.366 96.08C135.446 95.864 135.546 95.704 135.666 95.6C135.786 95.496 135.942 95.444 136.134 95.444C136.326 95.444 136.478 95.496 136.59 95.6C136.702 95.704 136.798 95.868 136.878 96.092L139.062 102.476H138.642L140.838 96.068C140.91 95.86 141.006 95.704 141.126 95.6C141.246 95.496 141.41 95.444 141.618 95.444C141.874 95.444 142.062 95.532 142.182 95.708C142.302 95.884 142.318 96.1 142.23 96.356L139.698 103.46C139.618 103.676 139.514 103.836 139.386 103.94C139.258 104.044 139.086 104.096 138.87 104.096C138.654 104.096 138.482 104.044 138.354 103.94C138.226 103.836 138.122 103.672 138.042 103.448L135.954 97.496H136.23L134.118 103.46C134.038 103.676 133.934 103.836 133.806 103.94C133.686 104.044 133.518 104.096 133.302 104.096ZM145.468 104.12C144.86 104.12 144.332 103.996 143.884 103.748C143.436 103.5 143.088 103.148 142.84 102.692C142.592 102.228 142.468 101.684 142.468 101.06C142.468 100.588 142.536 100.168 142.672 99.8C142.816 99.424 143.02 99.104 143.284 98.84C143.548 98.568 143.864 98.364 144.232 98.228C144.6 98.084 145.012 98.012 145.468 98.012C146.076 98.012 146.604 98.136 147.052 98.384C147.5 98.632 147.848 98.984 148.096 99.44C148.344 99.896 148.468 100.436 148.468 101.06C148.468 101.532 148.396 101.956 148.252 102.332C148.116 102.708 147.916 103.032 147.652 103.304C147.388 103.568 147.072 103.772 146.704 103.916C146.336 104.052 145.924 104.12 145.468 104.12ZM145.468 102.98C145.764 102.98 146.024 102.908 146.248 102.764C146.472 102.62 146.644 102.408 146.764 102.128C146.892 101.84 146.956 101.484 146.956 101.06C146.956 100.42 146.82 99.944 146.548 99.632C146.276 99.312 145.916 99.152 145.468 99.152C145.172 99.152 144.912 99.224 144.688 99.368C144.464 99.504 144.288 99.716 144.16 100.004C144.04 100.284 143.98 100.636 143.98 101.06C143.98 101.692 144.116 102.172 144.388 102.5C144.66 102.82 145.02 102.98 145.468 102.98ZM150.474 104.096C150.226 104.096 150.034 104.032 149.898 103.904C149.77 103.768 149.706 103.576 149.706 103.328V98.792C149.706 98.544 149.77 98.356 149.898 98.228C150.026 98.1 150.206 98.036 150.438 98.036C150.67 98.036 150.85 98.1 150.978 98.228C151.106 98.356 151.17 98.544 151.17 98.792V99.548H151.05C151.162 99.068 151.382 98.704 151.71 98.456C152.038 98.208 152.474 98.06 153.018 98.012C153.186 97.996 153.318 98.04 153.414 98.144C153.518 98.24 153.578 98.392 153.594 98.6C153.61 98.8 153.562 98.964 153.45 99.092C153.346 99.212 153.186 99.284 152.97 99.308L152.706 99.332C152.218 99.38 151.85 99.532 151.602 99.788C151.354 100.036 151.23 100.388 151.23 100.844V103.328C151.23 103.576 151.166 103.768 151.038 103.904C150.91 104.032 150.722 104.096 150.474 104.096ZM155.149 104.096C154.909 104.096 154.725 104.032 154.597 103.904C154.469 103.768 154.405 103.576 154.405 103.328V96.2C154.405 95.952 154.469 95.764 154.597 95.636C154.725 95.508 154.909 95.444 155.149 95.444C155.389 95.444 155.573 95.508 155.701 95.636C155.837 95.764 155.905 95.952 155.905 96.2V100.628H155.929L157.909 98.54C158.069 98.38 158.209 98.256 158.329 98.168C158.449 98.08 158.613 98.036 158.821 98.036C159.029 98.036 159.185 98.092 159.289 98.204C159.401 98.308 159.457 98.436 159.457 98.588C159.457 98.74 159.385 98.892 159.241 99.044L157.153 101.252V100.628L159.445 103.1C159.589 103.252 159.653 103.408 159.637 103.568C159.629 103.72 159.565 103.848 159.445 103.952C159.325 104.048 159.173 104.096 158.989 104.096C158.765 104.096 158.585 104.052 158.449 103.964C158.321 103.876 158.177 103.744 158.017 103.568L155.929 101.384H155.905V103.328C155.905 103.84 155.653 104.096 155.149 104.096ZM161.583 104.084C161.343 104.084 161.159 104.012 161.031 103.868C160.903 103.724 160.839 103.524 160.839 103.268V98.864C160.839 98.6 160.903 98.4 161.031 98.264C161.159 98.12 161.343 98.048 161.583 98.048C161.823 98.048 162.007 98.12 162.135 98.264C162.271 98.4 162.339 98.6 162.339 98.864V103.268C162.339 103.524 162.275 103.724 162.147 103.868C162.019 104.012 161.831 104.084 161.583 104.084ZM161.583 96.932C161.303 96.932 161.083 96.864 160.923 96.728C160.771 96.584 160.695 96.388 160.695 96.14C160.695 95.884 160.771 95.688 160.923 95.552C161.083 95.416 161.303 95.348 161.583 95.348C161.871 95.348 162.091 95.416 162.243 95.552C162.395 95.688 162.471 95.884 162.471 96.14C162.471 96.388 162.395 96.584 162.243 96.728C162.091 96.864 161.871 96.932 161.583 96.932ZM164.641 104.096C164.401 104.096 164.217 104.032 164.089 103.904C163.961 103.768 163.897 103.576 163.897 103.328V98.792C163.897 98.544 163.961 98.356 164.089 98.228C164.217 98.1 164.397 98.036 164.629 98.036C164.861 98.036 165.041 98.1 165.169 98.228C165.297 98.356 165.361 98.544 165.361 98.792V99.608L165.229 99.308C165.405 98.884 165.677 98.564 166.045 98.348C166.421 98.124 166.845 98.012 167.317 98.012C167.789 98.012 168.177 98.1 168.481 98.276C168.785 98.452 169.013 98.72 169.165 99.08C169.317 99.432 169.393 99.88 169.393 100.424V103.328C169.393 103.576 169.329 103.768 169.201 103.904C169.073 104.032 168.889 104.096 168.649 104.096C168.409 104.096 168.221 104.032 168.085 103.904C167.957 103.768 167.893 103.576 167.893 103.328V100.496C167.893 100.04 167.805 99.708 167.629 99.5C167.461 99.292 167.197 99.188 166.837 99.188C166.397 99.188 166.045 99.328 165.781 99.608C165.525 99.88 165.397 100.244 165.397 100.7V103.328C165.397 103.84 165.145 104.096 164.641 104.096ZM173.653 106.28C173.221 106.28 172.801 106.24 172.393 106.16C171.993 106.08 171.629 105.956 171.301 105.788C171.149 105.708 171.045 105.612 170.989 105.5C170.941 105.388 170.925 105.272 170.941 105.152C170.965 105.04 171.013 104.94 171.085 104.852C171.165 104.764 171.261 104.704 171.373 104.672C171.485 104.64 171.601 104.656 171.721 104.72C172.073 104.896 172.405 105.008 172.717 105.056C173.037 105.112 173.309 105.14 173.533 105.14C174.069 105.14 174.469 105.008 174.733 104.744C175.005 104.488 175.141 104.104 175.141 103.592V102.512H175.249C175.129 102.92 174.877 103.248 174.493 103.496C174.117 103.736 173.689 103.856 173.209 103.856C172.681 103.856 172.221 103.736 171.829 103.496C171.437 103.248 171.133 102.904 170.917 102.464C170.701 102.024 170.593 101.512 170.593 100.928C170.593 100.488 170.653 100.092 170.773 99.74C170.901 99.38 171.077 99.072 171.301 98.816C171.533 98.56 171.809 98.364 172.129 98.228C172.457 98.084 172.817 98.012 173.209 98.012C173.705 98.012 174.137 98.136 174.505 98.384C174.881 98.624 175.125 98.944 175.237 99.344L175.117 99.644V98.792C175.117 98.544 175.181 98.356 175.309 98.228C175.445 98.1 175.629 98.036 175.861 98.036C176.101 98.036 176.285 98.1 176.413 98.228C176.541 98.356 176.605 98.544 176.605 98.792V103.412C176.605 104.364 176.353 105.08 175.849 105.56C175.345 106.04 174.613 106.28 173.653 106.28ZM173.617 102.716C173.929 102.716 174.197 102.644 174.421 102.5C174.645 102.356 174.817 102.152 174.937 101.888C175.065 101.616 175.129 101.296 175.129 100.928C175.129 100.376 174.993 99.944 174.721 99.632C174.449 99.312 174.081 99.152 173.617 99.152C173.305 99.152 173.037 99.224 172.813 99.368C172.589 99.512 172.413 99.716 172.285 99.98C172.165 100.244 172.105 100.56 172.105 100.928C172.105 101.48 172.241 101.916 172.513 102.236C172.785 102.556 173.153 102.716 173.617 102.716ZM182.377 104C182.113 104 181.909 103.932 181.765 103.796C181.629 103.652 181.561 103.448 181.561 103.184V96.356C181.561 96.092 181.629 95.892 181.765 95.756C181.909 95.612 182.113 95.54 182.377 95.54H184.705C186.121 95.54 187.213 95.904 187.981 96.632C188.757 97.36 189.145 98.404 189.145 99.764C189.145 100.444 189.045 101.048 188.845 101.576C188.653 102.096 188.365 102.536 187.981 102.896C187.605 103.256 187.141 103.532 186.589 103.724C186.045 103.908 185.417 104 184.705 104H182.377ZM183.097 102.728H184.609C185.105 102.728 185.533 102.668 185.893 102.548C186.261 102.42 186.565 102.236 186.805 101.996C187.053 101.748 187.237 101.44 187.357 101.072C187.477 100.696 187.537 100.26 187.537 99.764C187.537 98.772 187.293 98.032 186.805 97.544C186.317 97.056 185.585 96.812 184.609 96.812H183.097V102.728ZM192.489 104.12C192.065 104.12 191.685 104.04 191.349 103.88C191.021 103.712 190.761 103.488 190.569 103.208C190.385 102.928 190.293 102.612 190.293 102.26C190.293 101.828 190.405 101.488 190.629 101.24C190.853 100.984 191.217 100.8 191.721 100.688C192.225 100.576 192.901 100.52 193.749 100.52H194.349V101.384H193.761C193.265 101.384 192.869 101.408 192.573 101.456C192.277 101.504 192.065 101.588 191.937 101.708C191.817 101.82 191.757 101.98 191.757 102.188C191.757 102.452 191.849 102.668 192.033 102.836C192.217 103.004 192.473 103.088 192.801 103.088C193.065 103.088 193.297 103.028 193.497 102.908C193.705 102.78 193.869 102.608 193.989 102.392C194.109 102.176 194.169 101.928 194.169 101.648V100.268C194.169 99.868 194.081 99.58 193.905 99.404C193.729 99.228 193.433 99.14 193.017 99.14C192.785 99.14 192.533 99.168 192.261 99.224C191.997 99.28 191.717 99.376 191.421 99.512C191.269 99.584 191.133 99.604 191.013 99.572C190.901 99.54 190.813 99.476 190.749 99.38C190.685 99.276 190.653 99.164 190.653 99.044C190.653 98.924 190.685 98.808 190.749 98.696C190.813 98.576 190.921 98.488 191.073 98.432C191.441 98.28 191.793 98.172 192.129 98.108C192.473 98.044 192.785 98.012 193.065 98.012C193.641 98.012 194.113 98.1 194.481 98.276C194.857 98.452 195.137 98.72 195.321 99.08C195.505 99.432 195.597 99.888 195.597 100.448V103.328C195.597 103.576 195.537 103.768 195.417 103.904C195.297 104.032 195.125 104.096 194.901 104.096C194.677 104.096 194.501 104.032 194.373 103.904C194.253 103.768 194.193 103.576 194.193 103.328V102.752H194.289C194.233 103.032 194.121 103.276 193.953 103.484C193.793 103.684 193.589 103.84 193.341 103.952C193.093 104.064 192.809 104.12 192.489 104.12ZM198.549 106.256C198.373 106.256 198.229 106.208 198.117 106.112C198.005 106.024 197.937 105.904 197.913 105.752C197.897 105.6 197.925 105.44 197.997 105.272L198.813 103.46V104.084L196.629 99.032C196.557 98.856 196.533 98.692 196.557 98.54C196.581 98.388 196.653 98.268 196.773 98.18C196.901 98.084 197.073 98.036 197.289 98.036C197.473 98.036 197.621 98.08 197.733 98.168C197.845 98.248 197.945 98.404 198.033 98.636L199.653 102.68H199.293L200.949 98.624C201.037 98.4 201.141 98.248 201.261 98.168C201.381 98.08 201.541 98.036 201.741 98.036C201.917 98.036 202.057 98.084 202.161 98.18C202.265 98.268 202.329 98.388 202.353 98.54C202.377 98.684 202.349 98.844 202.269 99.02L199.353 105.68C199.249 105.904 199.137 106.056 199.017 106.136C198.897 106.216 198.741 106.256 198.549 106.256Z" fill="white"/>
<g filter="url(#filter2_d_998_3406)">
<mask id="path-6-inside-1_998_3406" fill="white">
<path d="M66 137C66 130.373 71.3726 125 78 125H254C260.627 125 266 130.373 266 137V155C266 161.627 260.627 167 254 167H78C71.3726 167 66 161.627 66 155V137Z"/>
</mask>
<path d="M66 137C66 130.373 71.3726 125 78 125H254C260.627 125 266 130.373 266 137V155C266 161.627 260.627 167 254 167H78C71.3726 167 66 161.627 66 155V137Z" fill="#76BC21" shape-rendering="crispEdges"/>
<path d="M66 125H266H66ZM266 155C266 163.284 259.284 170 251 170H81C72.7157 170 66 163.284 66 155C66 159.971 71.3726 164 78 164H254C260.627 164 266 159.971 266 155ZM66 167V125V167ZM266 125V167V125Z" fill="#68A51D" mask="url(#path-6-inside-1_998_3406)"/>
<path d="M121.074 150.096C120.858 150.096 120.682 150.044 120.546 149.94C120.418 149.836 120.314 149.672 120.234 149.448L117.726 142.356C117.638 142.1 117.654 141.884 117.774 141.708C117.902 141.532 118.114 141.444 118.41 141.444C118.626 141.444 118.794 141.496 118.914 141.6C119.034 141.696 119.13 141.852 119.202 142.068L121.362 148.476H120.882L123.138 142.08C123.218 141.864 123.318 141.704 123.438 141.6C123.558 141.496 123.714 141.444 123.906 141.444C124.098 141.444 124.25 141.496 124.362 141.6C124.474 141.704 124.57 141.868 124.65 142.092L126.834 148.476H126.414L128.61 142.068C128.682 141.86 128.778 141.704 128.898 141.6C129.018 141.496 129.182 141.444 129.39 141.444C129.646 141.444 129.834 141.532 129.954 141.708C130.074 141.884 130.09 142.1 130.002 142.356L127.47 149.46C127.39 149.676 127.286 149.836 127.158 149.94C127.03 150.044 126.858 150.096 126.642 150.096C126.426 150.096 126.254 150.044 126.126 149.94C125.998 149.836 125.894 149.672 125.814 149.448L123.726 143.496H124.002L121.89 149.46C121.81 149.676 121.706 149.836 121.578 149.94C121.458 150.044 121.29 150.096 121.074 150.096ZM133.239 150.12C132.631 150.12 132.103 149.996 131.655 149.748C131.207 149.5 130.859 149.148 130.611 148.692C130.363 148.228 130.239 147.684 130.239 147.06C130.239 146.588 130.307 146.168 130.443 145.8C130.587 145.424 130.791 145.104 131.055 144.84C131.319 144.568 131.635 144.364 132.003 144.228C132.371 144.084 132.783 144.012 133.239 144.012C133.847 144.012 134.375 144.136 134.823 144.384C135.271 144.632 135.619 144.984 135.867 145.44C136.115 145.896 136.239 146.436 136.239 147.06C136.239 147.532 136.167 147.956 136.023 148.332C135.887 148.708 135.687 149.032 135.423 149.304C135.159 149.568 134.843 149.772 134.475 149.916C134.107 150.052 133.695 150.12 133.239 150.12ZM133.239 148.98C133.535 148.98 133.795 148.908 134.019 148.764C134.243 148.62 134.415 148.408 134.535 148.128C134.663 147.84 134.727 147.484 134.727 147.06C134.727 146.42 134.591 145.944 134.319 145.632C134.047 145.312 133.687 145.152 133.239 145.152C132.943 145.152 132.683 145.224 132.459 145.368C132.235 145.504 132.059 145.716 131.931 146.004C131.811 146.284 131.751 146.636 131.751 147.06C131.751 147.692 131.887 148.172 132.159 148.5C132.431 148.82 132.791 148.98 133.239 148.98ZM138.245 150.096C137.997 150.096 137.805 150.032 137.669 149.904C137.541 149.768 137.477 149.576 137.477 149.328V144.792C137.477 144.544 137.541 144.356 137.669 144.228C137.797 144.1 137.977 144.036 138.209 144.036C138.441 144.036 138.621 144.1 138.749 144.228C138.877 144.356 138.941 144.544 138.941 144.792V145.548H138.821C138.933 145.068 139.153 144.704 139.481 144.456C139.809 144.208 140.245 144.06 140.789 144.012C140.957 143.996 141.089 144.04 141.185 144.144C141.289 144.24 141.349 144.392 141.365 144.6C141.381 144.8 141.333 144.964 141.221 145.092C141.117 145.212 140.957 145.284 140.741 145.308L140.477 145.332C139.989 145.38 139.621 145.532 139.373 145.788C139.125 146.036 139.001 146.388 139.001 146.844V149.328C139.001 149.576 138.937 149.768 138.809 149.904C138.681 150.032 138.493 150.096 138.245 150.096ZM142.92 150.096C142.68 150.096 142.496 150.032 142.368 149.904C142.24 149.768 142.176 149.576 142.176 149.328V142.2C142.176 141.952 142.24 141.764 142.368 141.636C142.496 141.508 142.68 141.444 142.92 141.444C143.16 141.444 143.344 141.508 143.472 141.636C143.608 141.764 143.676 141.952 143.676 142.2V146.628H143.7L145.68 144.54C145.84 144.38 145.98 144.256 146.1 144.168C146.22 144.08 146.384 144.036 146.592 144.036C146.8 144.036 146.956 144.092 147.06 144.204C147.172 144.308 147.228 144.436 147.228 144.588C147.228 144.74 147.156 144.892 147.012 145.044L144.924 147.252V146.628L147.216 149.1C147.36 149.252 147.424 149.408 147.408 149.568C147.4 149.72 147.336 149.848 147.216 149.952C147.096 150.048 146.944 150.096 146.76 150.096C146.536 150.096 146.356 150.052 146.22 149.964C146.092 149.876 145.948 149.744 145.788 149.568L143.7 147.384H143.676V149.328C143.676 149.84 143.424 150.096 142.92 150.096ZM149.354 150.084C149.114 150.084 148.93 150.012 148.802 149.868C148.674 149.724 148.61 149.524 148.61 149.268V144.864C148.61 144.6 148.674 144.4 148.802 144.264C148.93 144.12 149.114 144.048 149.354 144.048C149.594 144.048 149.778 144.12 149.906 144.264C150.042 144.4 150.11 144.6 150.11 144.864V149.268C150.11 149.524 150.046 149.724 149.918 149.868C149.79 150.012 149.602 150.084 149.354 150.084ZM149.354 142.932C149.074 142.932 148.854 142.864 148.694 142.728C148.542 142.584 148.466 142.388 148.466 142.14C148.466 141.884 148.542 141.688 148.694 141.552C148.854 141.416 149.074 141.348 149.354 141.348C149.642 141.348 149.862 141.416 150.014 141.552C150.166 141.688 150.242 141.884 150.242 142.14C150.242 142.388 150.166 142.584 150.014 142.728C149.862 142.864 149.642 142.932 149.354 142.932ZM152.413 150.096C152.173 150.096 151.989 150.032 151.861 149.904C151.733 149.768 151.669 149.576 151.669 149.328V144.792C151.669 144.544 151.733 144.356 151.861 144.228C151.989 144.1 152.169 144.036 152.401 144.036C152.633 144.036 152.813 144.1 152.941 144.228C153.069 144.356 153.133 144.544 153.133 144.792V145.608L153.001 145.308C153.177 144.884 153.449 144.564 153.817 144.348C154.193 144.124 154.617 144.012 155.089 144.012C155.561 144.012 155.949 144.1 156.253 144.276C156.557 144.452 156.785 144.72 156.937 145.08C157.089 145.432 157.165 145.88 157.165 146.424V149.328C157.165 149.576 157.101 149.768 156.973 149.904C156.845 150.032 156.661 150.096 156.421 150.096C156.181 150.096 155.993 150.032 155.857 149.904C155.729 149.768 155.665 149.576 155.665 149.328V146.496C155.665 146.04 155.577 145.708 155.401 145.5C155.233 145.292 154.969 145.188 154.609 145.188C154.169 145.188 153.817 145.328 153.553 145.608C153.297 145.88 153.169 146.244 153.169 146.7V149.328C153.169 149.84 152.917 150.096 152.413 150.096ZM161.424 152.28C160.992 152.28 160.572 152.24 160.164 152.16C159.764 152.08 159.4 151.956 159.072 151.788C158.92 151.708 158.816 151.612 158.76 151.5C158.712 151.388 158.696 151.272 158.712 151.152C158.736 151.04 158.784 150.94 158.856 150.852C158.936 150.764 159.032 150.704 159.144 150.672C159.256 150.64 159.372 150.656 159.492 150.72C159.844 150.896 160.176 151.008 160.488 151.056C160.808 151.112 161.08 151.14 161.304 151.14C161.84 151.14 162.24 151.008 162.504 150.744C162.776 150.488 162.912 150.104 162.912 149.592V148.512H163.02C162.9 148.92 162.648 149.248 162.264 149.496C161.888 149.736 161.46 149.856 160.98 149.856C160.452 149.856 159.992 149.736 159.6 149.496C159.208 149.248 158.904 148.904 158.688 148.464C158.472 148.024 158.364 147.512 158.364 146.928C158.364 146.488 158.424 146.092 158.544 145.74C158.672 145.38 158.848 145.072 159.072 144.816C159.304 144.56 159.58 144.364 159.9 144.228C160.228 144.084 160.588 144.012 160.98 144.012C161.476 144.012 161.908 144.136 162.276 144.384C162.652 144.624 162.896 144.944 163.008 145.344L162.888 145.644V144.792C162.888 144.544 162.952 144.356 163.08 144.228C163.216 144.1 163.4 144.036 163.632 144.036C163.872 144.036 164.056 144.1 164.184 144.228C164.312 144.356 164.376 144.544 164.376 144.792V149.412C164.376 150.364 164.124 151.08 163.62 151.56C163.116 152.04 162.384 152.28 161.424 152.28ZM161.388 148.716C161.7 148.716 161.968 148.644 162.192 148.5C162.416 148.356 162.588 148.152 162.708 147.888C162.836 147.616 162.9 147.296 162.9 146.928C162.9 146.376 162.764 145.944 162.492 145.632C162.22 145.312 161.852 145.152 161.388 145.152C161.076 145.152 160.808 145.224 160.584 145.368C160.36 145.512 160.184 145.716 160.056 145.98C159.936 146.244 159.876 146.56 159.876 146.928C159.876 147.48 160.012 147.916 160.284 148.236C160.556 148.556 160.924 148.716 161.388 148.716ZM170.124 150.096C169.876 150.096 169.68 150.028 169.536 149.892C169.4 149.748 169.332 149.544 169.332 149.28V142.356C169.332 142.092 169.4 141.892 169.536 141.756C169.68 141.612 169.884 141.54 170.148 141.54H174.336C174.544 141.54 174.7 141.592 174.804 141.696C174.908 141.8 174.96 141.948 174.96 142.14C174.96 142.34 174.908 142.496 174.804 142.608C174.7 142.712 174.544 142.764 174.336 142.764H170.868V145.152H174.084C174.284 145.152 174.436 145.204 174.54 145.308C174.652 145.412 174.708 145.56 174.708 145.752C174.708 145.952 174.652 146.108 174.54 146.22C174.436 146.324 174.284 146.376 174.084 146.376H170.868V149.28C170.868 149.824 170.62 150.096 170.124 150.096ZM177.898 150.12C177.41 150.12 177.006 150.032 176.686 149.856C176.366 149.672 176.126 149.4 175.966 149.04C175.814 148.68 175.738 148.232 175.738 147.696V144.792C175.738 144.536 175.802 144.348 175.93 144.228C176.058 144.1 176.242 144.036 176.482 144.036C176.722 144.036 176.906 144.1 177.034 144.228C177.17 144.348 177.238 144.536 177.238 144.792V147.72C177.238 148.136 177.322 148.444 177.49 148.644C177.658 148.844 177.926 148.944 178.294 148.944C178.694 148.944 179.022 148.808 179.278 148.536C179.534 148.256 179.662 147.888 179.662 147.432V144.792C179.662 144.536 179.726 144.348 179.854 144.228C179.982 144.1 180.166 144.036 180.406 144.036C180.646 144.036 180.83 144.1 180.958 144.228C181.094 144.348 181.162 144.536 181.162 144.792V149.328C181.162 149.84 180.918 150.096 180.43 150.096C180.198 150.096 180.018 150.032 179.89 149.904C179.762 149.768 179.698 149.576 179.698 149.328V148.416L179.866 148.776C179.698 149.208 179.442 149.54 179.098 149.772C178.762 150.004 178.362 150.12 177.898 150.12ZM184.727 150.12C184.063 150.12 183.563 149.932 183.227 149.556C182.891 149.172 182.723 148.612 182.723 147.876V142.2C182.723 141.952 182.787 141.764 182.915 141.636C183.043 141.508 183.227 141.444 183.467 141.444C183.707 141.444 183.891 141.508 184.019 141.636C184.155 141.764 184.223 141.952 184.223 142.2V147.804C184.223 148.172 184.299 148.444 184.451 148.62C184.611 148.796 184.835 148.884 185.123 148.884C185.187 148.884 185.247 148.884 185.303 148.884C185.359 148.876 185.415 148.868 185.471 148.86C185.583 148.844 185.659 148.876 185.699 148.956C185.739 149.028 185.759 149.18 185.759 149.412C185.759 149.612 185.719 149.768 185.639 149.88C185.559 149.992 185.427 150.06 185.243 150.084C185.163 150.092 185.079 150.1 184.991 150.108C184.903 150.116 184.815 150.12 184.727 150.12ZM188.559 150.12C187.895 150.12 187.395 149.932 187.059 149.556C186.723 149.172 186.555 148.612 186.555 147.876V142.2C186.555 141.952 186.619 141.764 186.747 141.636C186.875 141.508 187.059 141.444 187.299 141.444C187.539 141.444 187.723 141.508 187.851 141.636C187.987 141.764 188.055 141.952 188.055 142.2V147.804C188.055 148.172 188.131 148.444 188.283 148.62C188.443 148.796 188.667 148.884 188.955 148.884C189.019 148.884 189.079 148.884 189.135 148.884C189.191 148.876 189.247 148.868 189.303 148.86C189.415 148.844 189.491 148.876 189.531 148.956C189.571 149.028 189.591 149.18 189.591 149.412C189.591 149.612 189.551 149.768 189.471 149.88C189.391 149.992 189.259 150.06 189.075 150.084C188.995 150.092 188.911 150.1 188.823 150.108C188.735 150.116 188.647 150.12 188.559 150.12ZM194.605 150C194.341 150 194.137 149.932 193.993 149.796C193.857 149.652 193.789 149.448 193.789 149.184V142.356C193.789 142.092 193.857 141.892 193.993 141.756C194.137 141.612 194.341 141.54 194.605 141.54H196.933C198.349 141.54 199.441 141.904 200.209 142.632C200.985 143.36 201.373 144.404 201.373 145.764C201.373 146.444 201.273 147.048 201.073 147.576C200.881 148.096 200.593 148.536 200.209 148.896C199.833 149.256 199.369 149.532 198.817 149.724C198.273 149.908 197.645 150 196.933 150H194.605ZM195.325 148.728H196.837C197.333 148.728 197.761 148.668 198.121 148.548C198.489 148.42 198.793 148.236 199.033 147.996C199.281 147.748 199.465 147.44 199.585 147.072C199.705 146.696 199.765 146.26 199.765 145.764C199.765 144.772 199.521 144.032 199.033 143.544C198.545 143.056 197.813 142.812 196.837 142.812H195.325V148.728ZM204.718 150.12C204.294 150.12 203.914 150.04 203.578 149.88C203.25 149.712 202.99 149.488 202.798 149.208C202.614 148.928 202.522 148.612 202.522 148.26C202.522 147.828 202.634 147.488 202.858 147.24C203.082 146.984 203.446 146.8 203.95 146.688C204.454 146.576 205.13 146.52 205.978 146.52H206.578V147.384H205.99C205.494 147.384 205.098 147.408 204.802 147.456C204.506 147.504 204.294 147.588 204.166 147.708C204.046 147.82 203.986 147.98 203.986 148.188C203.986 148.452 204.078 148.668 204.262 148.836C204.446 149.004 204.702 149.088 205.03 149.088C205.294 149.088 205.526 149.028 205.726 148.908C205.934 148.78 206.098 148.608 206.218 148.392C206.338 148.176 206.398 147.928 206.398 147.648V146.268C206.398 145.868 206.31 145.58 206.134 145.404C205.958 145.228 205.662 145.14 205.246 145.14C205.014 145.14 204.762 145.168 204.49 145.224C204.226 145.28 203.946 145.376 203.65 145.512C203.498 145.584 203.362 145.604 203.242 145.572C203.13 145.54 203.042 145.476 202.978 145.38C202.914 145.276 202.882 145.164 202.882 145.044C202.882 144.924 202.914 144.808 202.978 144.696C203.042 144.576 203.15 144.488 203.302 144.432C203.67 144.28 204.022 144.172 204.358 144.108C204.702 144.044 205.014 144.012 205.294 144.012C205.87 144.012 206.342 144.1 206.71 144.276C207.086 144.452 207.366 144.72 207.55 145.08C207.734 145.432 207.826 145.888 207.826 146.448V149.328C207.826 149.576 207.766 149.768 207.646 149.904C207.526 150.032 207.354 150.096 207.13 150.096C206.906 150.096 206.73 150.032 206.602 149.904C206.482 149.768 206.422 149.576 206.422 149.328V148.752H206.518C206.462 149.032 206.35 149.276 206.182 149.484C206.022 149.684 205.818 149.84 205.57 149.952C205.322 150.064 205.038 150.12 204.718 150.12ZM210.778 152.256C210.602 152.256 210.458 152.208 210.346 152.112C210.234 152.024 210.166 151.904 210.142 151.752C210.126 151.6 210.154 151.44 210.226 151.272L211.042 149.46V150.084L208.858 145.032C208.786 144.856 208.762 144.692 208.786 144.54C208.81 144.388 208.882 144.268 209.002 144.18C209.13 144.084 209.302 144.036 209.518 144.036C209.702 144.036 209.85 144.08 209.962 144.168C210.074 144.248 210.174 144.404 210.262 144.636L211.882 148.68H211.522L213.178 144.624C213.266 144.4 213.37 144.248 213.49 144.168C213.61 144.08 213.77 144.036 213.97 144.036C214.146 144.036 214.286 144.084 214.39 144.18C214.494 144.268 214.558 144.388 214.582 144.54C214.606 144.684 214.578 144.844 214.498 145.02L211.582 151.68C211.478 151.904 211.366 152.056 211.246 152.136C211.126 152.216 210.97 152.256 210.778 152.256Z" fill="white"/>
</g>
<path d="M66 183C66 176.373 71.3726 171 78 171H254C260.627 171 266 176.373 266 183V201C266 207.627 260.627 213 254 213H78C71.3726 213 66 207.627 66 201V183Z" fill="#E8EAEF"/>
<path d="M118.343 196.096C118.111 196.096 117.931 196.032 117.803 195.904C117.683 195.776 117.623 195.592 117.623 195.352V188.212C117.623 187.964 117.683 187.776 117.803 187.648C117.931 187.512 118.095 187.444 118.295 187.444C118.479 187.444 118.615 187.48 118.703 187.552C118.799 187.616 118.911 187.728 119.039 187.888L123.635 193.852H123.323V188.176C123.323 187.944 123.383 187.764 123.503 187.636C123.631 187.508 123.811 187.444 124.043 187.444C124.275 187.444 124.451 187.508 124.571 187.636C124.691 187.764 124.751 187.944 124.751 188.176V195.376C124.751 195.6 124.695 195.776 124.583 195.904C124.471 196.032 124.319 196.096 124.127 196.096C123.943 196.096 123.795 196.06 123.683 195.988C123.579 195.916 123.463 195.8 123.335 195.64L118.751 189.676H119.051V195.352C119.051 195.592 118.991 195.776 118.871 195.904C118.751 196.032 118.575 196.096 118.343 196.096ZM129.132 196.12C128.524 196.12 127.996 195.996 127.548 195.748C127.1 195.5 126.752 195.148 126.504 194.692C126.256 194.228 126.132 193.684 126.132 193.06C126.132 192.588 126.2 192.168 126.336 191.8C126.48 191.424 126.684 191.104 126.948 190.84C127.212 190.568 127.528 190.364 127.896 190.228C128.264 190.084 128.676 190.012 129.132 190.012C129.74 190.012 130.268 190.136 130.716 190.384C131.164 190.632 131.512 190.984 131.76 191.44C132.008 191.896 132.132 192.436 132.132 193.06C132.132 193.532 132.06 193.956 131.916 194.332C131.78 194.708 131.58 195.032 131.316 195.304C131.052 195.568 130.736 195.772 130.368 195.916C130 196.052 129.588 196.12 129.132 196.12ZM129.132 194.98C129.428 194.98 129.688 194.908 129.912 194.764C130.136 194.62 130.308 194.408 130.428 194.128C130.556 193.84 130.62 193.484 130.62 193.06C130.62 192.42 130.484 191.944 130.212 191.632C129.94 191.312 129.58 191.152 129.132 191.152C128.836 191.152 128.576 191.224 128.352 191.368C128.128 191.504 127.952 191.716 127.824 192.004C127.704 192.284 127.644 192.636 127.644 193.06C127.644 193.692 127.78 194.172 128.052 194.5C128.324 194.82 128.684 194.98 129.132 194.98ZM134.114 196.096C133.874 196.096 133.69 196.032 133.562 195.904C133.434 195.768 133.37 195.576 133.37 195.328V190.792C133.37 190.544 133.434 190.356 133.562 190.228C133.69 190.1 133.87 190.036 134.102 190.036C134.334 190.036 134.514 190.1 134.642 190.228C134.77 190.356 134.834 190.544 134.834 190.792V191.608L134.702 191.308C134.878 190.884 135.15 190.564 135.518 190.348C135.894 190.124 136.318 190.012 136.79 190.012C137.262 190.012 137.65 190.1 137.954 190.276C138.258 190.452 138.486 190.72 138.638 191.08C138.79 191.432 138.866 191.88 138.866 192.424V195.328C138.866 195.576 138.802 195.768 138.674 195.904C138.546 196.032 138.362 196.096 138.122 196.096C137.882 196.096 137.694 196.032 137.558 195.904C137.43 195.768 137.366 195.576 137.366 195.328V192.496C137.366 192.04 137.278 191.708 137.102 191.5C136.934 191.292 136.67 191.188 136.31 191.188C135.87 191.188 135.518 191.328 135.254 191.608C134.998 191.88 134.87 192.244 134.87 192.7V195.328C134.87 195.84 134.618 196.096 134.114 196.096ZM140.941 193.384C140.765 193.384 140.617 193.328 140.497 193.216C140.385 193.096 140.329 192.952 140.329 192.784C140.329 192.608 140.385 192.464 140.497 192.352C140.617 192.24 140.765 192.184 140.941 192.184H143.497C143.665 192.184 143.805 192.24 143.917 192.352C144.037 192.464 144.097 192.608 144.097 192.784C144.097 192.952 144.037 193.096 143.917 193.216C143.805 193.328 143.665 193.384 143.497 193.384H140.941ZM147.65 196.096C147.45 196.096 147.278 196.048 147.134 195.952C146.99 195.848 146.874 195.688 146.786 195.472L145.046 191.032C144.974 190.84 144.95 190.672 144.974 190.528C145.006 190.376 145.082 190.256 145.202 190.168C145.322 190.08 145.482 190.036 145.682 190.036C145.858 190.036 146.002 190.08 146.114 190.168C146.226 190.248 146.322 190.404 146.402 190.636L147.854 194.632H147.578L149.078 190.54C149.142 190.364 149.226 190.236 149.33 190.156C149.442 190.076 149.586 190.036 149.762 190.036C149.938 190.036 150.082 190.08 150.194 190.168C150.306 190.248 150.39 190.372 150.446 190.54L151.922 194.632H151.67L153.134 190.6C153.214 190.384 153.314 190.236 153.434 190.156C153.562 190.076 153.702 190.036 153.854 190.036C154.046 190.036 154.194 190.084 154.298 190.18C154.402 190.276 154.462 190.4 154.478 190.552C154.494 190.696 154.466 190.856 154.394 191.032L152.666 195.472C152.586 195.68 152.47 195.836 152.318 195.94C152.174 196.044 152.002 196.096 151.802 196.096C151.602 196.096 151.426 196.044 151.274 195.94C151.13 195.836 151.018 195.68 150.938 195.472L149.366 191.308H150.05L148.514 195.46C148.434 195.676 148.322 195.836 148.178 195.94C148.034 196.044 147.858 196.096 147.65 196.096ZM158.171 196.12C157.563 196.12 157.035 195.996 156.587 195.748C156.139 195.5 155.791 195.148 155.543 194.692C155.295 194.228 155.171 193.684 155.171 193.06C155.171 192.588 155.239 192.168 155.375 191.8C155.519 191.424 155.723 191.104 155.987 190.84C156.251 190.568 156.567 190.364 156.935 190.228C157.303 190.084 157.715 190.012 158.171 190.012C158.779 190.012 159.307 190.136 159.755 190.384C160.203 190.632 160.551 190.984 160.799 191.44C161.047 191.896 161.171 192.436 161.171 193.06C161.171 193.532 161.099 193.956 160.955 194.332C160.819 194.708 160.619 195.032 160.355 195.304C160.091 195.568 159.775 195.772 159.407 195.916C159.039 196.052 158.627 196.12 158.171 196.12ZM158.171 194.98C158.467 194.98 158.727 194.908 158.951 194.764C159.175 194.62 159.347 194.408 159.467 194.128C159.595 193.84 159.659 193.484 159.659 193.06C159.659 192.42 159.523 191.944 159.251 191.632C158.979 191.312 158.619 191.152 158.171 191.152C157.875 191.152 157.615 191.224 157.391 191.368C157.167 191.504 156.991 191.716 156.863 192.004C156.743 192.284 156.683 192.636 156.683 193.06C156.683 193.692 156.819 194.172 157.091 194.5C157.363 194.82 157.723 194.98 158.171 194.98ZM163.177 196.096C162.929 196.096 162.737 196.032 162.601 195.904C162.473 195.768 162.409 195.576 162.409 195.328V190.792C162.409 190.544 162.473 190.356 162.601 190.228C162.729 190.1 162.909 190.036 163.141 190.036C163.373 190.036 163.553 190.1 163.681 190.228C163.809 190.356 163.873 190.544 163.873 190.792V191.548H163.753C163.865 191.068 164.085 190.704 164.413 190.456C164.741 190.208 165.177 190.06 165.721 190.012C165.889 189.996 166.021 190.04 166.117 190.144C166.221 190.24 166.281 190.392 166.297 190.6C166.313 190.8 166.265 190.964 166.153 191.092C166.049 191.212 165.889 191.284 165.673 191.308L165.409 191.332C164.921 191.38 164.553 191.532 164.305 191.788C164.057 192.036 163.933 192.388 163.933 192.844V195.328C163.933 195.576 163.869 195.768 163.741 195.904C163.613 196.032 163.425 196.096 163.177 196.096ZM167.852 196.096C167.612 196.096 167.428 196.032 167.3 195.904C167.172 195.768 167.108 195.576 167.108 195.328V188.2C167.108 187.952 167.172 187.764 167.3 187.636C167.428 187.508 167.612 187.444 167.852 187.444C168.092 187.444 168.276 187.508 168.404 187.636C168.54 187.764 168.608 187.952 168.608 188.2V192.628H168.632L170.612 190.54C170.772 190.38 170.912 190.256 171.032 190.168C171.152 190.08 171.316 190.036 171.524 190.036C171.732 190.036 171.888 190.092 171.992 190.204C172.104 190.308 172.16 190.436 172.16 190.588C172.16 190.74 172.088 190.892 171.944 191.044L169.856 193.252V192.628L172.148 195.1C172.292 195.252 172.356 195.408 172.34 195.568C172.332 195.72 172.268 195.848 172.148 195.952C172.028 196.048 171.876 196.096 171.692 196.096C171.468 196.096 171.288 196.052 171.152 195.964C171.024 195.876 170.88 195.744 170.72 195.568L168.632 193.384H168.608V195.328C168.608 195.84 168.356 196.096 167.852 196.096ZM174.286 196.084C174.046 196.084 173.862 196.012 173.734 195.868C173.606 195.724 173.542 195.524 173.542 195.268V190.864C173.542 190.6 173.606 190.4 173.734 190.264C173.862 190.12 174.046 190.048 174.286 190.048C174.526 190.048 174.71 190.12 174.838 190.264C174.974 190.4 175.042 190.6 175.042 190.864V195.268C175.042 195.524 174.978 195.724 174.85 195.868C174.722 196.012 174.534 196.084 174.286 196.084ZM174.286 188.932C174.006 188.932 173.786 188.864 173.626 188.728C173.474 188.584 173.398 188.388 173.398 188.14C173.398 187.884 173.474 187.688 173.626 187.552C173.786 187.416 174.006 187.348 174.286 187.348C174.574 187.348 174.794 187.416 174.946 187.552C175.098 187.688 175.174 187.884 175.174 188.14C175.174 188.388 175.098 188.584 174.946 188.728C174.794 188.864 174.574 188.932 174.286 188.932ZM177.344 196.096C177.104 196.096 176.92 196.032 176.792 195.904C176.664 195.768 176.6 195.576 176.6 195.328V190.792C176.6 190.544 176.664 190.356 176.792 190.228C176.92 190.1 177.1 190.036 177.332 190.036C177.564 190.036 177.744 190.1 177.872 190.228C178 190.356 178.064 190.544 178.064 190.792V191.608L177.932 191.308C178.108 190.884 178.38 190.564 178.748 190.348C179.124 190.124 179.548 190.012 180.02 190.012C180.492 190.012 180.88 190.1 181.184 190.276C181.488 190.452 181.716 190.72 181.868 191.08C182.02 191.432 182.096 191.88 182.096 192.424V195.328C182.096 195.576 182.032 195.768 181.904 195.904C181.776 196.032 181.592 196.096 181.352 196.096C181.112 196.096 180.924 196.032 180.788 195.904C180.66 195.768 180.596 195.576 180.596 195.328V192.496C180.596 192.04 180.508 191.708 180.332 191.5C180.164 191.292 179.9 191.188 179.54 191.188C179.1 191.188 178.748 191.328 178.484 191.608C178.228 191.88 178.1 192.244 178.1 192.7V195.328C178.1 195.84 177.848 196.096 177.344 196.096ZM186.356 198.28C185.924 198.28 185.504 198.24 185.096 198.16C184.696 198.08 184.332 197.956 184.004 197.788C183.852 197.708 183.748 197.612 183.692 197.5C183.644 197.388 183.628 197.272 183.644 197.152C183.668 197.04 183.716 196.94 183.788 196.852C183.868 196.764 183.964 196.704 184.076 196.672C184.188 196.64 184.304 196.656 184.424 196.72C184.776 196.896 185.108 197.008 185.42 197.056C185.74 197.112 186.012 197.14 186.236 197.14C186.772 197.14 187.172 197.008 187.436 196.744C187.708 196.488 187.844 196.104 187.844 195.592V194.512H187.952C187.832 194.92 187.58 195.248 187.196 195.496C186.82 195.736 186.392 195.856 185.912 195.856C185.384 195.856 184.924 195.736 184.532 195.496C184.14 195.248 183.836 194.904 183.62 194.464C183.404 194.024 183.296 193.512 183.296 192.928C183.296 192.488 183.356 192.092 183.476 191.74C183.604 191.38 183.78 191.072 184.004 190.816C184.236 190.56 184.512 190.364 184.832 190.228C185.16 190.084 185.52 190.012 185.912 190.012C186.408 190.012 186.84 190.136 187.208 190.384C187.584 190.624 187.828 190.944 187.94 191.344L187.82 191.644V190.792C187.82 190.544 187.884 190.356 188.012 190.228C188.148 190.1 188.332 190.036 188.564 190.036C188.804 190.036 188.988 190.1 189.116 190.228C189.244 190.356 189.308 190.544 189.308 190.792V195.412C189.308 196.364 189.056 197.08 188.552 197.56C188.048 198.04 187.316 198.28 186.356 198.28ZM186.32 194.716C186.632 194.716 186.9 194.644 187.124 194.5C187.348 194.356 187.52 194.152 187.64 193.888C187.768 193.616 187.832 193.296 187.832 192.928C187.832 192.376 187.696 191.944 187.424 191.632C187.152 191.312 186.784 191.152 186.32 191.152C186.008 191.152 185.74 191.224 185.516 191.368C185.292 191.512 185.116 191.716 184.988 191.98C184.868 192.244 184.808 192.56 184.808 192.928C184.808 193.48 184.944 193.916 185.216 194.236C185.488 194.556 185.856 194.716 186.32 194.716ZM195.08 196C194.816 196 194.612 195.932 194.468 195.796C194.332 195.652 194.264 195.448 194.264 195.184V188.356C194.264 188.092 194.332 187.892 194.468 187.756C194.612 187.612 194.816 187.54 195.08 187.54H197.408C198.824 187.54 199.916 187.904 200.684 188.632C201.46 189.36 201.848 190.404 201.848 191.764C201.848 192.444 201.748 193.048 201.548 193.576C201.356 194.096 201.068 194.536 200.684 194.896C200.308 195.256 199.844 195.532 199.292 195.724C198.748 195.908 198.12 196 197.408 196H195.08ZM195.8 194.728H197.312C197.808 194.728 198.236 194.668 198.596 194.548C198.964 194.42 199.268 194.236 199.508 193.996C199.756 193.748 199.94 193.44 200.06 193.072C200.18 192.696 200.24 192.26 200.24 191.764C200.24 190.772 199.996 190.032 199.508 189.544C199.02 189.056 198.288 188.812 197.312 188.812H195.8V194.728ZM205.192 196.12C204.768 196.12 204.388 196.04 204.052 195.88C203.724 195.712 203.464 195.488 203.272 195.208C203.088 194.928 202.996 194.612 202.996 194.26C202.996 193.828 203.108 193.488 203.332 193.24C203.556 192.984 203.92 192.8 204.424 192.688C204.928 192.576 205.604 192.52 206.452 192.52H207.052V193.384H206.464C205.968 193.384 205.572 193.408 205.276 193.456C204.98 193.504 204.768 193.588 204.64 193.708C204.52 193.82 204.46 193.98 204.46 194.188C204.46 194.452 204.552 194.668 204.736 194.836C204.92 195.004 205.176 195.088 205.504 195.088C205.768 195.088 206 195.028 206.2 194.908C206.408 194.78 206.572 194.608 206.692 194.392C206.812 194.176 206.872 193.928 206.872 193.648V192.268C206.872 191.868 206.784 191.58 206.608 191.404C206.432 191.228 206.136 191.14 205.72 191.14C205.488 191.14 205.236 191.168 204.964 191.224C204.7 191.28 204.42 191.376 204.124 191.512C203.972 191.584 203.836 191.604 203.716 191.572C203.604 191.54 203.516 191.476 203.452 191.38C203.388 191.276 203.356 191.164 203.356 191.044C203.356 190.924 203.388 190.808 203.452 190.696C203.516 190.576 203.624 190.488 203.776 190.432C204.144 190.28 204.496 190.172 204.832 190.108C205.176 190.044 205.488 190.012 205.768 190.012C206.344 190.012 206.816 190.1 207.184 190.276C207.56 190.452 207.84 190.72 208.024 191.08C208.208 191.432 208.3 191.888 208.3 192.448V195.328C208.3 195.576 208.24 195.768 208.12 195.904C208 196.032 207.828 196.096 207.604 196.096C207.38 196.096 207.204 196.032 207.076 195.904C206.956 195.768 206.896 195.576 206.896 195.328V194.752H206.992C206.936 195.032 206.824 195.276 206.656 195.484C206.496 195.684 206.292 195.84 206.044 195.952C205.796 196.064 205.512 196.12 205.192 196.12ZM211.252 198.256C211.076 198.256 210.932 198.208 210.82 198.112C210.708 198.024 210.64 197.904 210.616 197.752C210.6 197.6 210.628 197.44 210.7 197.272L211.516 195.46V196.084L209.332 191.032C209.26 190.856 209.236 190.692 209.26 190.54C209.284 190.388 209.356 190.268 209.476 190.18C209.604 190.084 209.776 190.036 209.992 190.036C210.176 190.036 210.324 190.08 210.436 190.168C210.548 190.248 210.648 190.404 210.736 190.636L212.356 194.68H211.996L213.652 190.624C213.74 190.4 213.844 190.248 213.964 190.168C214.084 190.08 214.244 190.036 214.444 190.036C214.62 190.036 214.76 190.084 214.864 190.18C214.968 190.268 215.032 190.388 215.056 190.54C215.08 190.684 215.052 190.844 214.972 191.02L212.056 197.68C211.952 197.904 211.84 198.056 211.72 198.136C211.6 198.216 211.444 198.256 211.252 198.256Z" fill="#64728C"/>
<g filter="url(#filter3_i_998_3406)">
<path d="M66 229C66 222.373 71.3726 217 78 217H254C260.627 217 266 222.373 266 229V247C266 253.627 260.627 259 254 259H78C71.3726 259 66 253.627 66 247V229Z" fill="#FFAA00"/>
<path d="M120.839 242.096C120.623 242.096 120.447 242.044 120.311 241.94C120.183 241.836 120.079 241.672 119.999 241.448L117.491 234.356C117.403 234.1 117.419 233.884 117.539 233.708C117.667 233.532 117.879 233.444 118.175 233.444C118.391 233.444 118.559 233.496 118.679 233.6C118.799 233.696 118.895 233.852 118.967 234.068L121.127 240.476H120.647L122.903 234.08C122.983 233.864 123.083 233.704 123.203 233.6C123.323 233.496 123.479 233.444 123.671 233.444C123.863 233.444 124.015 233.496 124.127 233.6C124.239 233.704 124.335 233.868 124.415 234.092L126.599 240.476H126.179L128.375 234.068C128.447 233.86 128.543 233.704 128.663 233.6C128.783 233.496 128.947 233.444 129.155 233.444C129.411 233.444 129.599 233.532 129.719 233.708C129.839 233.884 129.855 234.1 129.767 234.356L127.235 241.46C127.155 241.676 127.051 241.836 126.923 241.94C126.795 242.044 126.623 242.096 126.407 242.096C126.191 242.096 126.019 242.044 125.891 241.94C125.763 241.836 125.659 241.672 125.579 241.448L123.491 235.496H123.767L121.655 241.46C121.575 241.676 121.471 241.836 121.343 241.94C121.223 242.044 121.055 242.096 120.839 242.096ZM133.005 242.12C132.397 242.12 131.869 241.996 131.421 241.748C130.973 241.5 130.625 241.148 130.377 240.692C130.129 240.228 130.005 239.684 130.005 239.06C130.005 238.588 130.073 238.168 130.209 237.8C130.353 237.424 130.557 237.104 130.821 236.84C131.085 236.568 131.401 236.364 131.769 236.228C132.137 236.084 132.549 236.012 133.005 236.012C133.613 236.012 134.141 236.136 134.589 236.384C135.037 236.632 135.385 236.984 135.633 237.44C135.881 237.896 136.005 238.436 136.005 239.06C136.005 239.532 135.933 239.956 135.789 240.332C135.653 240.708 135.453 241.032 135.189 241.304C134.925 241.568 134.609 241.772 134.241 241.916C133.873 242.052 133.461 242.12 133.005 242.12ZM133.005 240.98C133.301 240.98 133.561 240.908 133.785 240.764C134.009 240.62 134.181 240.408 134.301 240.128C134.429 239.84 134.493 239.484 134.493 239.06C134.493 238.42 134.357 237.944 134.085 237.632C133.813 237.312 133.453 237.152 133.005 237.152C132.709 237.152 132.449 237.224 132.225 237.368C132.001 237.504 131.825 237.716 131.697 238.004C131.577 238.284 131.517 238.636 131.517 239.06C131.517 239.692 131.653 240.172 131.925 240.5C132.197 240.82 132.557 240.98 133.005 240.98ZM138.011 242.096C137.763 242.096 137.571 242.032 137.435 241.904C137.307 241.768 137.243 241.576 137.243 241.328V236.792C137.243 236.544 137.307 236.356 137.435 236.228C137.563 236.1 137.743 236.036 137.975 236.036C138.207 236.036 138.387 236.1 138.515 236.228C138.643 236.356 138.707 236.544 138.707 236.792V237.548H138.587C138.699 237.068 138.919 236.704 139.247 236.456C139.575 236.208 140.011 236.06 140.555 236.012C140.723 235.996 140.855 236.04 140.951 236.144C141.055 236.24 141.115 236.392 141.131 236.6C141.147 236.8 141.099 236.964 140.987 237.092C140.883 237.212 140.723 237.284 140.507 237.308L140.243 237.332C139.755 237.38 139.387 237.532 139.139 237.788C138.891 238.036 138.767 238.388 138.767 238.844V241.328C138.767 241.576 138.703 241.768 138.575 241.904C138.447 242.032 138.259 242.096 138.011 242.096ZM142.686 242.096C142.446 242.096 142.262 242.032 142.134 241.904C142.006 241.768 141.942 241.576 141.942 241.328V234.2C141.942 233.952 142.006 233.764 142.134 233.636C142.262 233.508 142.446 233.444 142.686 233.444C142.926 233.444 143.11 233.508 143.238 233.636C143.374 233.764 143.442 233.952 143.442 234.2V238.628H143.466L145.446 236.54C145.606 236.38 145.746 236.256 145.866 236.168C145.986 236.08 146.15 236.036 146.358 236.036C146.566 236.036 146.722 236.092 146.826 236.204C146.938 236.308 146.994 236.436 146.994 236.588C146.994 236.74 146.922 236.892 146.778 237.044L144.69 239.252V238.628L146.982 241.1C147.126 241.252 147.19 241.408 147.174 241.568C147.166 241.72 147.102 241.848 146.982 241.952C146.862 242.048 146.71 242.096 146.526 242.096C146.302 242.096 146.122 242.052 145.986 241.964C145.858 241.876 145.714 241.744 145.554 241.568L143.466 239.384H143.442V241.328C143.442 241.84 143.19 242.096 142.686 242.096ZM149.12 242.084C148.88 242.084 148.696 242.012 148.568 241.868C148.44 241.724 148.376 241.524 148.376 241.268V236.864C148.376 236.6 148.44 236.4 148.568 236.264C148.696 236.12 148.88 236.048 149.12 236.048C149.36 236.048 149.544 236.12 149.672 236.264C149.808 236.4 149.876 236.6 149.876 236.864V241.268C149.876 241.524 149.812 241.724 149.684 241.868C149.556 242.012 149.368 242.084 149.12 242.084ZM149.12 234.932C148.84 234.932 148.62 234.864 148.46 234.728C148.308 234.584 148.232 234.388 148.232 234.14C148.232 233.884 148.308 233.688 148.46 233.552C148.62 233.416 148.84 233.348 149.12 233.348C149.408 233.348 149.628 233.416 149.78 233.552C149.932 233.688 150.008 233.884 150.008 234.14C150.008 234.388 149.932 234.584 149.78 234.728C149.628 234.864 149.408 234.932 149.12 234.932ZM152.178 242.096C151.938 242.096 151.754 242.032 151.626 241.904C151.498 241.768 151.434 241.576 151.434 241.328V236.792C151.434 236.544 151.498 236.356 151.626 236.228C151.754 236.1 151.934 236.036 152.166 236.036C152.398 236.036 152.578 236.1 152.706 236.228C152.834 236.356 152.898 236.544 152.898 236.792V237.608L152.766 237.308C152.942 236.884 153.214 236.564 153.582 236.348C153.958 236.124 154.382 236.012 154.854 236.012C155.326 236.012 155.714 236.1 156.018 236.276C156.322 236.452 156.55 236.72 156.702 237.08C156.854 237.432 156.93 237.88 156.93 238.424V241.328C156.93 241.576 156.866 241.768 156.738 241.904C156.61 242.032 156.426 242.096 156.186 242.096C155.946 242.096 155.758 242.032 155.622 241.904C155.494 241.768 155.43 241.576 155.43 241.328V238.496C155.43 238.04 155.342 237.708 155.166 237.5C154.998 237.292 154.734 237.188 154.374 237.188C153.934 237.188 153.582 237.328 153.318 237.608C153.062 237.88 152.934 238.244 152.934 238.7V241.328C152.934 241.84 152.682 242.096 152.178 242.096ZM161.19 244.28C160.758 244.28 160.338 244.24 159.93 244.16C159.53 244.08 159.166 243.956 158.838 243.788C158.686 243.708 158.582 243.612 158.526 243.5C158.478 243.388 158.462 243.272 158.478 243.152C158.502 243.04 158.55 242.94 158.622 242.852C158.702 242.764 158.798 242.704 158.91 242.672C159.022 242.64 159.138 242.656 159.258 242.72C159.61 242.896 159.942 243.008 160.254 243.056C160.574 243.112 160.846 243.14 161.07 243.14C161.606 243.14 162.006 243.008 162.27 242.744C162.542 242.488 162.678 242.104 162.678 241.592V240.512H162.786C162.666 240.92 162.414 241.248 162.03 241.496C161.654 241.736 161.226 241.856 160.746 241.856C160.218 241.856 159.758 241.736 159.366 241.496C158.974 241.248 158.67 240.904 158.454 240.464C158.238 240.024 158.13 239.512 158.13 238.928C158.13 238.488 158.19 238.092 158.31 237.74C158.438 237.38 158.614 237.072 158.838 236.816C159.07 236.56 159.346 236.364 159.666 236.228C159.994 236.084 160.354 236.012 160.746 236.012C161.242 236.012 161.674 236.136 162.042 236.384C162.418 236.624 162.662 236.944 162.774 237.344L162.654 237.644V236.792C162.654 236.544 162.718 236.356 162.846 236.228C162.982 236.1 163.166 236.036 163.398 236.036C163.638 236.036 163.822 236.1 163.95 236.228C164.078 236.356 164.142 236.544 164.142 236.792V241.412C164.142 242.364 163.89 243.08 163.386 243.56C162.882 244.04 162.15 244.28 161.19 244.28ZM161.154 240.716C161.466 240.716 161.734 240.644 161.958 240.5C162.182 240.356 162.354 240.152 162.474 239.888C162.602 239.616 162.666 239.296 162.666 238.928C162.666 238.376 162.53 237.944 162.258 237.632C161.986 237.312 161.618 237.152 161.154 237.152C160.842 237.152 160.574 237.224 160.35 237.368C160.126 237.512 159.95 237.716 159.822 237.98C159.702 238.244 159.642 238.56 159.642 238.928C159.642 239.48 159.778 239.916 160.05 240.236C160.322 240.556 160.69 240.716 161.154 240.716ZM169.698 242.096C169.458 242.096 169.274 242.032 169.146 241.904C169.018 241.768 168.954 241.576 168.954 241.328V234.2C168.954 233.952 169.018 233.764 169.146 233.636C169.274 233.508 169.458 233.444 169.698 233.444C169.938 233.444 170.122 233.508 170.25 233.636C170.386 233.764 170.454 233.952 170.454 234.2V237.308H170.286C170.462 236.884 170.734 236.564 171.102 236.348C171.478 236.124 171.902 236.012 172.374 236.012C172.846 236.012 173.234 236.1 173.538 236.276C173.842 236.452 174.07 236.72 174.222 237.08C174.374 237.432 174.45 237.88 174.45 238.424V241.328C174.45 241.576 174.386 241.768 174.258 241.904C174.13 242.032 173.946 242.096 173.706 242.096C173.466 242.096 173.278 242.032 173.142 241.904C173.014 241.768 172.95 241.576 172.95 241.328V238.496C172.95 238.04 172.862 237.708 172.686 237.5C172.518 237.292 172.254 237.188 171.894 237.188C171.454 237.188 171.102 237.328 170.838 237.608C170.582 237.88 170.454 238.244 170.454 238.7V241.328C170.454 241.84 170.202 242.096 169.698 242.096ZM177.905 242.12C177.481 242.12 177.101 242.04 176.765 241.88C176.437 241.712 176.177 241.488 175.985 241.208C175.801 240.928 175.709 240.612 175.709 240.26C175.709 239.828 175.821 239.488 176.045 239.24C176.269 238.984 176.633 238.8 177.137 238.688C177.641 238.576 178.317 238.52 179.165 238.52H179.765V239.384H179.177C178.681 239.384 178.285 239.408 177.989 239.456C177.693 239.504 177.481 239.588 177.353 239.708C177.233 239.82 177.173 239.98 177.173 240.188C177.173 240.452 177.265 240.668 177.449 240.836C177.633 241.004 177.889 241.088 178.217 241.088C178.481 241.088 178.713 241.028 178.913 240.908C179.121 240.78 179.285 240.608 179.405 240.392C179.525 240.176 179.585 239.928 179.585 239.648V238.268C179.585 237.868 179.497 237.58 179.321 237.404C179.145 237.228 178.849 237.14 178.433 237.14C178.201 237.14 177.949 237.168 177.677 237.224C177.413 237.28 177.133 237.376 176.837 237.512C176.685 237.584 176.549 237.604 176.429 237.572C176.317 237.54 176.229 237.476 176.165 237.38C176.101 237.276 176.069 237.164 176.069 237.044C176.069 236.924 176.101 236.808 176.165 236.696C176.229 236.576 176.337 236.488 176.489 236.432C176.857 236.28 177.209 236.172 177.545 236.108C177.889 236.044 178.201 236.012 178.481 236.012C179.057 236.012 179.529 236.1 179.897 236.276C180.273 236.452 180.553 236.72 180.737 237.08C180.921 237.432 181.013 237.888 181.013 238.448V241.328C181.013 241.576 180.953 241.768 180.833 241.904C180.713 242.032 180.541 242.096 180.317 242.096C180.093 242.096 179.917 242.032 179.789 241.904C179.669 241.768 179.609 241.576 179.609 241.328V240.752H179.705C179.649 241.032 179.537 241.276 179.369 241.484C179.209 241.684 179.005 241.84 178.757 241.952C178.509 242.064 178.225 242.12 177.905 242.12ZM184.54 242.12C183.876 242.12 183.376 241.932 183.04 241.556C182.704 241.172 182.536 240.612 182.536 239.876V234.2C182.536 233.952 182.6 233.764 182.728 233.636C182.856 233.508 183.04 233.444 183.28 233.444C183.52 233.444 183.704 233.508 183.832 233.636C183.968 233.764 184.036 233.952 184.036 234.2V239.804C184.036 240.172 184.112 240.444 184.264 240.62C184.424 240.796 184.648 240.884 184.936 240.884C185 240.884 185.06 240.884 185.116 240.884C185.172 240.876 185.228 240.868 185.284 240.86C185.396 240.844 185.472 240.876 185.512 240.956C185.552 241.028 185.572 241.18 185.572 241.412C185.572 241.612 185.532 241.768 185.452 241.88C185.372 241.992 185.24 242.06 185.056 242.084C184.976 242.092 184.892 242.1 184.804 242.108C184.716 242.116 184.628 242.12 184.54 242.12ZM187.403 242.096C187.163 242.096 186.975 242.032 186.839 241.904C186.711 241.768 186.647 241.576 186.647 241.328V237.26H186.095C185.903 237.26 185.755 237.212 185.651 237.116C185.547 237.012 185.495 236.872 185.495 236.696C185.495 236.512 185.547 236.372 185.651 236.276C185.755 236.18 185.903 236.132 186.095 236.132H187.079L186.647 236.528V236.12C186.647 235.296 186.855 234.68 187.271 234.272C187.687 233.856 188.287 233.612 189.071 233.54L189.479 233.504C189.639 233.488 189.767 233.516 189.863 233.588C189.959 233.652 190.023 233.74 190.055 233.852C190.087 233.956 190.091 234.064 190.067 234.176C190.043 234.288 189.991 234.388 189.911 234.476C189.839 234.556 189.743 234.6 189.623 234.608L189.455 234.62C188.999 234.652 188.667 234.768 188.459 234.968C188.251 235.168 188.147 235.472 188.147 235.88V236.324L187.955 236.132H189.167C189.359 236.132 189.507 236.18 189.611 236.276C189.715 236.372 189.767 236.512 189.767 236.696C189.767 236.872 189.715 237.012 189.611 237.116C189.507 237.212 189.359 237.26 189.167 237.26H188.147V241.328C188.147 241.84 187.899 242.096 187.403 242.096ZM194.84 242C194.576 242 194.372 241.932 194.228 241.796C194.092 241.652 194.024 241.448 194.024 241.184V234.356C194.024 234.092 194.092 233.892 194.228 233.756C194.372 233.612 194.576 233.54 194.84 233.54H197.168C198.584 233.54 199.676 233.904 200.444 234.632C201.22 235.36 201.608 236.404 201.608 237.764C201.608 238.444 201.508 239.048 201.308 239.576C201.116 240.096 200.828 240.536 200.444 240.896C200.068 241.256 199.604 241.532 199.052 241.724C198.508 241.908 197.88 242 197.168 242H194.84ZM195.56 240.728H197.072C197.568 240.728 197.996 240.668 198.356 240.548C198.724 240.42 199.028 240.236 199.268 239.996C199.516 239.748 199.7 239.44 199.82 239.072C199.94 238.696 200 238.26 200 237.764C200 236.772 199.756 236.032 199.268 235.544C198.78 235.056 198.048 234.812 197.072 234.812H195.56V240.728ZM204.952 242.12C204.528 242.12 204.148 242.04 203.812 241.88C203.484 241.712 203.224 241.488 203.032 241.208C202.848 240.928 202.756 240.612 202.756 240.26C202.756 239.828 202.868 239.488 203.092 239.24C203.316 238.984 203.68 238.8 204.184 238.688C204.688 238.576 205.364 238.52 206.212 238.52H206.812V239.384H206.224C205.728 239.384 205.332 239.408 205.036 239.456C204.74 239.504 204.528 239.588 204.4 239.708C204.28 239.82 204.22 239.98 204.22 240.188C204.22 240.452 204.312 240.668 204.496 240.836C204.68 241.004 204.936 241.088 205.264 241.088C205.528 241.088 205.76 241.028 205.96 240.908C206.168 240.78 206.332 240.608 206.452 240.392C206.572 240.176 206.632 239.928 206.632 239.648V238.268C206.632 237.868 206.544 237.58 206.368 237.404C206.192 237.228 205.896 237.14 205.48 237.14C205.248 237.14 204.996 237.168 204.724 237.224C204.46 237.28 204.18 237.376 203.884 237.512C203.732 237.584 203.596 237.604 203.476 237.572C203.364 237.54 203.276 237.476 203.212 237.38C203.148 237.276 203.116 237.164 203.116 237.044C203.116 236.924 203.148 236.808 203.212 236.696C203.276 236.576 203.384 236.488 203.536 236.432C203.904 236.28 204.256 236.172 204.592 236.108C204.936 236.044 205.248 236.012 205.528 236.012C206.104 236.012 206.576 236.1 206.944 236.276C207.32 236.452 207.6 236.72 207.784 237.08C207.968 237.432 208.06 237.888 208.06 238.448V241.328C208.06 241.576 208 241.768 207.88 241.904C207.76 242.032 207.588 242.096 207.364 242.096C207.14 242.096 206.964 242.032 206.836 241.904C206.716 241.768 206.656 241.576 206.656 241.328V240.752H206.752C206.696 241.032 206.584 241.276 206.416 241.484C206.256 241.684 206.052 241.84 205.804 241.952C205.556 242.064 205.272 242.12 204.952 242.12ZM211.012 244.256C210.836 244.256 210.692 244.208 210.58 244.112C210.468 244.024 210.4 243.904 210.376 243.752C210.36 243.6 210.388 243.44 210.46 243.272L211.276 241.46V242.084L209.092 237.032C209.02 236.856 208.996 236.692 209.02 236.54C209.044 236.388 209.116 236.268 209.236 236.18C209.364 236.084 209.536 236.036 209.752 236.036C209.936 236.036 210.084 236.08 210.196 236.168C210.308 236.248 210.408 236.404 210.496 236.636L212.116 240.68H211.756L213.412 236.624C213.5 236.4 213.604 236.248 213.724 236.168C213.844 236.08 214.004 236.036 214.204 236.036C214.38 236.036 214.52 236.084 214.624 236.18C214.728 236.268 214.792 236.388 214.816 236.54C214.84 236.684 214.812 236.844 214.732 237.02L211.816 243.68C211.712 243.904 211.6 244.056 211.48 244.136C211.36 244.216 211.204 244.256 211.012 244.256Z" fill="white"/>
</g>
<path d="M66 275C66 268.373 71.3726 263 78 263H254C260.627 263 266 268.373 266 275V293C266 299.627 260.627 305 254 305H78C71.3726 305 66 299.627 66 293V275Z" fill="#EE6909"/>
<path d="M136.267 288.096C136.035 288.096 135.855 288.032 135.727 287.904C135.607 287.776 135.547 287.592 135.547 287.352V280.212C135.547 279.964 135.607 279.776 135.727 279.648C135.855 279.512 136.019 279.444 136.219 279.444C136.403 279.444 136.539 279.48 136.627 279.552C136.723 279.616 136.835 279.728 136.963 279.888L141.559 285.852H141.247V280.176C141.247 279.944 141.307 279.764 141.427 279.636C141.555 279.508 141.735 279.444 141.967 279.444C142.199 279.444 142.375 279.508 142.495 279.636C142.615 279.764 142.675 279.944 142.675 280.176V287.376C142.675 287.6 142.619 287.776 142.507 287.904C142.395 288.032 142.243 288.096 142.051 288.096C141.867 288.096 141.719 288.06 141.607 287.988C141.503 287.916 141.387 287.8 141.259 287.64L136.675 281.676H136.975V287.352C136.975 287.592 136.915 287.776 136.795 287.904C136.675 288.032 136.499 288.096 136.267 288.096ZM147.056 288.12C146.448 288.12 145.92 287.996 145.472 287.748C145.024 287.5 144.676 287.148 144.428 286.692C144.18 286.228 144.056 285.684 144.056 285.06C144.056 284.588 144.124 284.168 144.26 283.8C144.404 283.424 144.608 283.104 144.872 282.84C145.136 282.568 145.452 282.364 145.82 282.228C146.188 282.084 146.6 282.012 147.056 282.012C147.664 282.012 148.192 282.136 148.64 282.384C149.088 282.632 149.436 282.984 149.684 283.44C149.932 283.896 150.056 284.436 150.056 285.06C150.056 285.532 149.984 285.956 149.84 286.332C149.704 286.708 149.504 287.032 149.24 287.304C148.976 287.568 148.66 287.772 148.292 287.916C147.924 288.052 147.512 288.12 147.056 288.12ZM147.056 286.98C147.352 286.98 147.612 286.908 147.836 286.764C148.06 286.62 148.232 286.408 148.352 286.128C148.48 285.84 148.544 285.484 148.544 285.06C148.544 284.42 148.408 283.944 148.136 283.632C147.864 283.312 147.504 283.152 147.056 283.152C146.76 283.152 146.5 283.224 146.276 283.368C146.052 283.504 145.876 283.716 145.748 284.004C145.628 284.284 145.568 284.636 145.568 285.06C145.568 285.692 145.704 286.172 145.976 286.5C146.248 286.82 146.608 286.98 147.056 286.98ZM153.923 288.12C153.403 288.12 152.967 288.032 152.615 287.856C152.271 287.68 152.015 287.424 151.847 287.088C151.679 286.744 151.595 286.32 151.595 285.816V283.26H150.971C150.779 283.26 150.631 283.212 150.527 283.116C150.423 283.012 150.371 282.872 150.371 282.696C150.371 282.512 150.423 282.372 150.527 282.276C150.631 282.18 150.779 282.132 150.971 282.132H151.595V281.04C151.595 280.792 151.659 280.604 151.787 280.476C151.923 280.348 152.111 280.284 152.351 280.284C152.591 280.284 152.775 280.348 152.903 280.476C153.031 280.604 153.095 280.792 153.095 281.04V282.132H154.367C154.559 282.132 154.707 282.18 154.811 282.276C154.915 282.372 154.967 282.512 154.967 282.696C154.967 282.872 154.915 283.012 154.811 283.116C154.707 283.212 154.559 283.26 154.367 283.26H153.095V285.732C153.095 286.116 153.179 286.404 153.347 286.596C153.515 286.788 153.787 286.884 154.163 286.884C154.299 286.884 154.419 286.872 154.523 286.848C154.627 286.824 154.719 286.808 154.799 286.8C154.895 286.792 154.975 286.824 155.039 286.896C155.103 286.96 155.135 287.096 155.135 287.304C155.135 287.464 155.107 287.608 155.051 287.736C155.003 287.856 154.911 287.94 154.775 287.988C154.671 288.02 154.535 288.048 154.367 288.072C154.199 288.104 154.051 288.12 153.923 288.12ZM156.334 285.384C156.158 285.384 156.01 285.328 155.89 285.216C155.778 285.096 155.722 284.952 155.722 284.784C155.722 284.608 155.778 284.464 155.89 284.352C156.01 284.24 156.158 284.184 156.334 284.184H158.89C159.058 284.184 159.198 284.24 159.31 284.352C159.43 284.464 159.49 284.608 159.49 284.784C159.49 284.952 159.43 285.096 159.31 285.216C159.198 285.328 159.058 285.384 158.89 285.384H156.334ZM161.945 288C161.681 288 161.477 287.932 161.333 287.796C161.197 287.652 161.129 287.448 161.129 287.184V280.356C161.129 280.092 161.197 279.892 161.333 279.756C161.477 279.612 161.681 279.54 161.945 279.54H164.273C165.689 279.54 166.781 279.904 167.549 280.632C168.325 281.36 168.713 282.404 168.713 283.764C168.713 284.444 168.613 285.048 168.413 285.576C168.221 286.096 167.933 286.536 167.549 286.896C167.173 287.256 166.709 287.532 166.157 287.724C165.613 287.908 164.985 288 164.273 288H161.945ZM162.665 286.728H164.177C164.673 286.728 165.101 286.668 165.461 286.548C165.829 286.42 166.133 286.236 166.373 285.996C166.621 285.748 166.805 285.44 166.925 285.072C167.045 284.696 167.105 284.26 167.105 283.764C167.105 282.772 166.861 282.032 166.373 281.544C165.885 281.056 165.153 280.812 164.177 280.812H162.665V286.728ZM173.018 288.12C172.354 288.12 171.782 287.996 171.302 287.748C170.822 287.5 170.45 287.148 170.186 286.692C169.93 286.236 169.802 285.696 169.802 285.072C169.802 284.464 169.926 283.932 170.174 283.476C170.43 283.02 170.778 282.664 171.218 282.408C171.666 282.144 172.174 282.012 172.742 282.012C173.158 282.012 173.53 282.08 173.858 282.216C174.194 282.352 174.478 282.548 174.71 282.804C174.95 283.06 175.13 283.372 175.25 283.74C175.378 284.1 175.442 284.508 175.442 284.964C175.442 285.108 175.39 285.22 175.286 285.3C175.19 285.372 175.05 285.408 174.866 285.408H171.014V284.544H174.386L174.194 284.724C174.194 284.356 174.138 284.048 174.026 283.8C173.922 283.552 173.766 283.364 173.558 283.236C173.358 283.1 173.106 283.032 172.802 283.032C172.466 283.032 172.178 283.112 171.938 283.272C171.706 283.424 171.526 283.644 171.398 283.932C171.278 284.212 171.218 284.548 171.218 284.94V285.024C171.218 285.68 171.37 286.172 171.674 286.5C171.986 286.82 172.442 286.98 173.042 286.98C173.25 286.98 173.482 286.956 173.738 286.908C174.002 286.852 174.25 286.76 174.482 286.632C174.65 286.536 174.798 286.496 174.926 286.512C175.054 286.52 175.154 286.564 175.226 286.644C175.306 286.724 175.354 286.824 175.37 286.944C175.386 287.056 175.362 287.172 175.298 287.292C175.242 287.412 175.142 287.516 174.998 287.604C174.718 287.78 174.394 287.912 174.026 288C173.666 288.08 173.33 288.12 173.018 288.12ZM177.758 288.096C177.518 288.096 177.33 288.032 177.194 287.904C177.066 287.768 177.002 287.576 177.002 287.328V283.26H176.45C176.258 283.26 176.11 283.212 176.006 283.116C175.902 283.012 175.85 282.872 175.85 282.696C175.85 282.512 175.902 282.372 176.006 282.276C176.11 282.18 176.258 282.132 176.45 282.132H177.434L177.002 282.528V282.12C177.002 281.312 177.206 280.7 177.614 280.284C178.022 279.868 178.614 279.62 179.39 279.54L179.75 279.504C179.934 279.488 180.078 279.512 180.182 279.576C180.294 279.64 180.366 279.728 180.398 279.84C180.438 279.944 180.446 280.056 180.422 280.176C180.398 280.288 180.35 280.388 180.278 280.476C180.206 280.556 180.114 280.6 180.002 280.608L179.714 280.632C179.29 280.664 178.982 280.78 178.79 280.98C178.598 281.18 178.502 281.48 178.502 281.88V282.324L178.31 282.132H181.634C181.874 282.132 182.058 282.204 182.186 282.348C182.314 282.484 182.378 282.68 182.378 282.936V287.268C182.378 287.524 182.314 287.724 182.186 287.868C182.066 288.012 181.882 288.084 181.634 288.084C181.394 288.084 181.206 288.012 181.07 287.868C180.942 287.724 180.878 287.524 180.878 287.268V283.26H178.502V287.328C178.502 287.84 178.254 288.096 177.758 288.096ZM181.658 280.932C181.386 280.932 181.174 280.864 181.022 280.728C180.878 280.584 180.806 280.388 180.806 280.14C180.806 279.884 180.878 279.688 181.022 279.552C181.174 279.416 181.386 279.348 181.658 279.348C181.938 279.348 182.15 279.416 182.294 279.552C182.446 279.688 182.522 279.884 182.522 280.14C182.522 280.388 182.446 280.584 182.294 280.728C182.15 280.864 181.938 280.932 181.658 280.932ZM184.686 288.096C184.446 288.096 184.262 288.032 184.134 287.904C184.006 287.768 183.942 287.576 183.942 287.328V282.792C183.942 282.544 184.006 282.356 184.134 282.228C184.262 282.1 184.442 282.036 184.674 282.036C184.906 282.036 185.086 282.1 185.214 282.228C185.342 282.356 185.406 282.544 185.406 282.792V283.608L185.274 283.308C185.45 282.884 185.722 282.564 186.09 282.348C186.466 282.124 186.89 282.012 187.362 282.012C187.834 282.012 188.222 282.1 188.526 282.276C188.83 282.452 189.058 282.72 189.21 283.08C189.362 283.432 189.438 283.88 189.438 284.424V287.328C189.438 287.576 189.374 287.768 189.246 287.904C189.118 288.032 188.934 288.096 188.694 288.096C188.454 288.096 188.266 288.032 188.13 287.904C188.002 287.768 187.938 287.576 187.938 287.328V284.496C187.938 284.04 187.85 283.708 187.674 283.5C187.506 283.292 187.242 283.188 186.882 283.188C186.442 283.188 186.09 283.328 185.826 283.608C185.57 283.88 185.442 284.244 185.442 284.7V287.328C185.442 287.84 185.19 288.096 184.686 288.096ZM193.218 288.12C192.706 288.12 192.254 287.996 191.862 287.748C191.478 287.5 191.178 287.148 190.962 286.692C190.746 286.228 190.638 285.684 190.638 285.06C190.638 284.428 190.746 283.888 190.962 283.44C191.178 282.984 191.478 282.632 191.862 282.384C192.254 282.136 192.706 282.012 193.218 282.012C193.706 282.012 194.13 282.132 194.49 282.372C194.858 282.612 195.106 282.928 195.234 283.32H195.102V280.2C195.102 279.952 195.166 279.764 195.294 279.636C195.422 279.508 195.606 279.444 195.846 279.444C196.086 279.444 196.27 279.508 196.398 279.636C196.534 279.764 196.602 279.952 196.602 280.2V287.328C196.602 287.576 196.538 287.768 196.41 287.904C196.282 288.032 196.098 288.096 195.858 288.096C195.618 288.096 195.434 288.032 195.306 287.904C195.178 287.768 195.114 287.576 195.114 287.328V286.392L195.246 286.752C195.126 287.168 194.882 287.5 194.514 287.748C194.146 287.996 193.714 288.12 193.218 288.12ZM193.638 286.98C193.934 286.98 194.194 286.908 194.418 286.764C194.642 286.62 194.814 286.408 194.934 286.128C195.062 285.84 195.126 285.484 195.126 285.06C195.126 284.42 194.99 283.944 194.718 283.632C194.446 283.312 194.086 283.152 193.638 283.152C193.342 283.152 193.082 283.224 192.858 283.368C192.634 283.504 192.458 283.716 192.33 284.004C192.21 284.284 192.15 284.636 192.15 285.06C192.15 285.692 192.286 286.172 192.558 286.5C192.83 286.82 193.19 286.98 193.638 286.98Z" fill="white"/>
</g>
<path d="M163.457 53.0665C164.632 51.1877 167.368 51.1877 168.543 53.0665L174.387 62.4092C175.637 64.4073 174.2 67 171.843 67H160.157C157.8 67 156.363 64.4073 157.613 62.4092L163.457 53.0665Z" fill="white"/>
</g>
<path d="M66 12C66 5.37258 71.3726 0 78 0H254C260.627 0 266 5.37258 266 12V30C266 36.6274 260.627 42 254 42H78C71.3726 42 66 36.6274 66 30V12Z" fill="#76BC21"/>
<path d="M121.074 25.096C120.858 25.096 120.682 25.044 120.546 24.94C120.418 24.836 120.314 24.672 120.234 24.448L117.726 17.356C117.638 17.1 117.654 16.884 117.774 16.708C117.902 16.532 118.114 16.444 118.41 16.444C118.626 16.444 118.794 16.496 118.914 16.6C119.034 16.696 119.13 16.852 119.202 17.068L121.362 23.476H120.882L123.138 17.08C123.218 16.864 123.318 16.704 123.438 16.6C123.558 16.496 123.714 16.444 123.906 16.444C124.098 16.444 124.25 16.496 124.362 16.6C124.474 16.704 124.57 16.868 124.65 17.092L126.834 23.476H126.414L128.61 17.068C128.682 16.86 128.778 16.704 128.898 16.6C129.018 16.496 129.182 16.444 129.39 16.444C129.646 16.444 129.834 16.532 129.954 16.708C130.074 16.884 130.09 17.1 130.002 17.356L127.47 24.46C127.39 24.676 127.286 24.836 127.158 24.94C127.03 25.044 126.858 25.096 126.642 25.096C126.426 25.096 126.254 25.044 126.126 24.94C125.998 24.836 125.894 24.672 125.814 24.448L123.726 18.496H124.002L121.89 24.46C121.81 24.676 121.706 24.836 121.578 24.94C121.458 25.044 121.29 25.096 121.074 25.096ZM133.239 25.12C132.631 25.12 132.103 24.996 131.655 24.748C131.207 24.5 130.859 24.148 130.611 23.692C130.363 23.228 130.239 22.684 130.239 22.06C130.239 21.588 130.307 21.168 130.443 20.8C130.587 20.424 130.791 20.104 131.055 19.84C131.319 19.568 131.635 19.364 132.003 19.228C132.371 19.084 132.783 19.012 133.239 19.012C133.847 19.012 134.375 19.136 134.823 19.384C135.271 19.632 135.619 19.984 135.867 20.44C136.115 20.896 136.239 21.436 136.239 22.06C136.239 22.532 136.167 22.956 136.023 23.332C135.887 23.708 135.687 24.032 135.423 24.304C135.159 24.568 134.843 24.772 134.475 24.916C134.107 25.052 133.695 25.12 133.239 25.12ZM133.239 23.98C133.535 23.98 133.795 23.908 134.019 23.764C134.243 23.62 134.415 23.408 134.535 23.128C134.663 22.84 134.727 22.484 134.727 22.06C134.727 21.42 134.591 20.944 134.319 20.632C134.047 20.312 133.687 20.152 133.239 20.152C132.943 20.152 132.683 20.224 132.459 20.368C132.235 20.504 132.059 20.716 131.931 21.004C131.811 21.284 131.751 21.636 131.751 22.06C131.751 22.692 131.887 23.172 132.159 23.5C132.431 23.82 132.791 23.98 133.239 23.98ZM138.245 25.096C137.997 25.096 137.805 25.032 137.669 24.904C137.541 24.768 137.477 24.576 137.477 24.328V19.792C137.477 19.544 137.541 19.356 137.669 19.228C137.797 19.1 137.977 19.036 138.209 19.036C138.441 19.036 138.621 19.1 138.749 19.228C138.877 19.356 138.941 19.544 138.941 19.792V20.548H138.821C138.933 20.068 139.153 19.704 139.481 19.456C139.809 19.208 140.245 19.06 140.789 19.012C140.957 18.996 141.089 19.04 141.185 19.144C141.289 19.24 141.349 19.392 141.365 19.6C141.381 19.8 141.333 19.964 141.221 20.092C141.117 20.212 140.957 20.284 140.741 20.308L140.477 20.332C139.989 20.38 139.621 20.532 139.373 20.788C139.125 21.036 139.001 21.388 139.001 21.844V24.328C139.001 24.576 138.937 24.768 138.809 24.904C138.681 25.032 138.493 25.096 138.245 25.096ZM142.92 25.096C142.68 25.096 142.496 25.032 142.368 24.904C142.24 24.768 142.176 24.576 142.176 24.328V17.2C142.176 16.952 142.24 16.764 142.368 16.636C142.496 16.508 142.68 16.444 142.92 16.444C143.16 16.444 143.344 16.508 143.472 16.636C143.608 16.764 143.676 16.952 143.676 17.2V21.628H143.7L145.68 19.54C145.84 19.38 145.98 19.256 146.1 19.168C146.22 19.08 146.384 19.036 146.592 19.036C146.8 19.036 146.956 19.092 147.06 19.204C147.172 19.308 147.228 19.436 147.228 19.588C147.228 19.74 147.156 19.892 147.012 20.044L144.924 22.252V21.628L147.216 24.1C147.36 24.252 147.424 24.408 147.408 24.568C147.4 24.72 147.336 24.848 147.216 24.952C147.096 25.048 146.944 25.096 146.76 25.096C146.536 25.096 146.356 25.052 146.22 24.964C146.092 24.876 145.948 24.744 145.788 24.568L143.7 22.384H143.676V24.328C143.676 24.84 143.424 25.096 142.92 25.096ZM149.354 25.084C149.114 25.084 148.93 25.012 148.802 24.868C148.674 24.724 148.61 24.524 148.61 24.268V19.864C148.61 19.6 148.674 19.4 148.802 19.264C148.93 19.12 149.114 19.048 149.354 19.048C149.594 19.048 149.778 19.12 149.906 19.264C150.042 19.4 150.11 19.6 150.11 19.864V24.268C150.11 24.524 150.046 24.724 149.918 24.868C149.79 25.012 149.602 25.084 149.354 25.084ZM149.354 17.932C149.074 17.932 148.854 17.864 148.694 17.728C148.542 17.584 148.466 17.388 148.466 17.14C148.466 16.884 148.542 16.688 148.694 16.552C148.854 16.416 149.074 16.348 149.354 16.348C149.642 16.348 149.862 16.416 150.014 16.552C150.166 16.688 150.242 16.884 150.242 17.14C150.242 17.388 150.166 17.584 150.014 17.728C149.862 17.864 149.642 17.932 149.354 17.932ZM152.413 25.096C152.173 25.096 151.989 25.032 151.861 24.904C151.733 24.768 151.669 24.576 151.669 24.328V19.792C151.669 19.544 151.733 19.356 151.861 19.228C151.989 19.1 152.169 19.036 152.401 19.036C152.633 19.036 152.813 19.1 152.941 19.228C153.069 19.356 153.133 19.544 153.133 19.792V20.608L153.001 20.308C153.177 19.884 153.449 19.564 153.817 19.348C154.193 19.124 154.617 19.012 155.089 19.012C155.561 19.012 155.949 19.1 156.253 19.276C156.557 19.452 156.785 19.72 156.937 20.08C157.089 20.432 157.165 20.88 157.165 21.424V24.328C157.165 24.576 157.101 24.768 156.973 24.904C156.845 25.032 156.661 25.096 156.421 25.096C156.181 25.096 155.993 25.032 155.857 24.904C155.729 24.768 155.665 24.576 155.665 24.328V21.496C155.665 21.04 155.577 20.708 155.401 20.5C155.233 20.292 154.969 20.188 154.609 20.188C154.169 20.188 153.817 20.328 153.553 20.608C153.297 20.88 153.169 21.244 153.169 21.7V24.328C153.169 24.84 152.917 25.096 152.413 25.096ZM161.424 27.28C160.992 27.28 160.572 27.24 160.164 27.16C159.764 27.08 159.4 26.956 159.072 26.788C158.92 26.708 158.816 26.612 158.76 26.5C158.712 26.388 158.696 26.272 158.712 26.152C158.736 26.04 158.784 25.94 158.856 25.852C158.936 25.764 159.032 25.704 159.144 25.672C159.256 25.64 159.372 25.656 159.492 25.72C159.844 25.896 160.176 26.008 160.488 26.056C160.808 26.112 161.08 26.14 161.304 26.14C161.84 26.14 162.24 26.008 162.504 25.744C162.776 25.488 162.912 25.104 162.912 24.592V23.512H163.02C162.9 23.92 162.648 24.248 162.264 24.496C161.888 24.736 161.46 24.856 160.98 24.856C160.452 24.856 159.992 24.736 159.6 24.496C159.208 24.248 158.904 23.904 158.688 23.464C158.472 23.024 158.364 22.512 158.364 21.928C158.364 21.488 158.424 21.092 158.544 20.74C158.672 20.38 158.848 20.072 159.072 19.816C159.304 19.56 159.58 19.364 159.9 19.228C160.228 19.084 160.588 19.012 160.98 19.012C161.476 19.012 161.908 19.136 162.276 19.384C162.652 19.624 162.896 19.944 163.008 20.344L162.888 20.644V19.792C162.888 19.544 162.952 19.356 163.08 19.228C163.216 19.1 163.4 19.036 163.632 19.036C163.872 19.036 164.056 19.1 164.184 19.228C164.312 19.356 164.376 19.544 164.376 19.792V24.412C164.376 25.364 164.124 26.08 163.62 26.56C163.116 27.04 162.384 27.28 161.424 27.28ZM161.388 23.716C161.7 23.716 161.968 23.644 162.192 23.5C162.416 23.356 162.588 23.152 162.708 22.888C162.836 22.616 162.9 22.296 162.9 21.928C162.9 21.376 162.764 20.944 162.492 20.632C162.22 20.312 161.852 20.152 161.388 20.152C161.076 20.152 160.808 20.224 160.584 20.368C160.36 20.512 160.184 20.716 160.056 20.98C159.936 21.244 159.876 21.56 159.876 21.928C159.876 22.48 160.012 22.916 160.284 23.236C160.556 23.556 160.924 23.716 161.388 23.716ZM170.124 25.096C169.876 25.096 169.68 25.028 169.536 24.892C169.4 24.748 169.332 24.544 169.332 24.28V17.356C169.332 17.092 169.4 16.892 169.536 16.756C169.68 16.612 169.884 16.54 170.148 16.54H174.336C174.544 16.54 174.7 16.592 174.804 16.696C174.908 16.8 174.96 16.948 174.96 17.14C174.96 17.34 174.908 17.496 174.804 17.608C174.7 17.712 174.544 17.764 174.336 17.764H170.868V20.152H174.084C174.284 20.152 174.436 20.204 174.54 20.308C174.652 20.412 174.708 20.56 174.708 20.752C174.708 20.952 174.652 21.108 174.54 21.22C174.436 21.324 174.284 21.376 174.084 21.376H170.868V24.28C170.868 24.824 170.62 25.096 170.124 25.096ZM177.898 25.12C177.41 25.12 177.006 25.032 176.686 24.856C176.366 24.672 176.126 24.4 175.966 24.04C175.814 23.68 175.738 23.232 175.738 22.696V19.792C175.738 19.536 175.802 19.348 175.93 19.228C176.058 19.1 176.242 19.036 176.482 19.036C176.722 19.036 176.906 19.1 177.034 19.228C177.17 19.348 177.238 19.536 177.238 19.792V22.72C177.238 23.136 177.322 23.444 177.49 23.644C177.658 23.844 177.926 23.944 178.294 23.944C178.694 23.944 179.022 23.808 179.278 23.536C179.534 23.256 179.662 22.888 179.662 22.432V19.792C179.662 19.536 179.726 19.348 179.854 19.228C179.982 19.1 180.166 19.036 180.406 19.036C180.646 19.036 180.83 19.1 180.958 19.228C181.094 19.348 181.162 19.536 181.162 19.792V24.328C181.162 24.84 180.918 25.096 180.43 25.096C180.198 25.096 180.018 25.032 179.89 24.904C179.762 24.768 179.698 24.576 179.698 24.328V23.416L179.866 23.776C179.698 24.208 179.442 24.54 179.098 24.772C178.762 25.004 178.362 25.12 177.898 25.12ZM184.727 25.12C184.063 25.12 183.563 24.932 183.227 24.556C182.891 24.172 182.723 23.612 182.723 22.876V17.2C182.723 16.952 182.787 16.764 182.915 16.636C183.043 16.508 183.227 16.444 183.467 16.444C183.707 16.444 183.891 16.508 184.019 16.636C184.155 16.764 184.223 16.952 184.223 17.2V22.804C184.223 23.172 184.299 23.444 184.451 23.62C184.611 23.796 184.835 23.884 185.123 23.884C185.187 23.884 185.247 23.884 185.303 23.884C185.359 23.876 185.415 23.868 185.471 23.86C185.583 23.844 185.659 23.876 185.699 23.956C185.739 24.028 185.759 24.18 185.759 24.412C185.759 24.612 185.719 24.768 185.639 24.88C185.559 24.992 185.427 25.06 185.243 25.084C185.163 25.092 185.079 25.1 184.991 25.108C184.903 25.116 184.815 25.12 184.727 25.12ZM188.559 25.12C187.895 25.12 187.395 24.932 187.059 24.556C186.723 24.172 186.555 23.612 186.555 22.876V17.2C186.555 16.952 186.619 16.764 186.747 16.636C186.875 16.508 187.059 16.444 187.299 16.444C187.539 16.444 187.723 16.508 187.851 16.636C187.987 16.764 188.055 16.952 188.055 17.2V22.804C188.055 23.172 188.131 23.444 188.283 23.62C188.443 23.796 188.667 23.884 188.955 23.884C189.019 23.884 189.079 23.884 189.135 23.884C189.191 23.876 189.247 23.868 189.303 23.86C189.415 23.844 189.491 23.876 189.531 23.956C189.571 24.028 189.591 24.18 189.591 24.412C189.591 24.612 189.551 24.768 189.471 24.88C189.391 24.992 189.259 25.06 189.075 25.084C188.995 25.092 188.911 25.1 188.823 25.108C188.735 25.116 188.647 25.12 188.559 25.12ZM194.605 25C194.341 25 194.137 24.932 193.993 24.796C193.857 24.652 193.789 24.448 193.789 24.184V17.356C193.789 17.092 193.857 16.892 193.993 16.756C194.137 16.612 194.341 16.54 194.605 16.54H196.933C198.349 16.54 199.441 16.904 200.209 17.632C200.985 18.36 201.373 19.404 201.373 20.764C201.373 21.444 201.273 22.048 201.073 22.576C200.881 23.096 200.593 23.536 200.209 23.896C199.833 24.256 199.369 24.532 198.817 24.724C198.273 24.908 197.645 25 196.933 25H194.605ZM195.325 23.728H196.837C197.333 23.728 197.761 23.668 198.121 23.548C198.489 23.42 198.793 23.236 199.033 22.996C199.281 22.748 199.465 22.44 199.585 22.072C199.705 21.696 199.765 21.26 199.765 20.764C199.765 19.772 199.521 19.032 199.033 18.544C198.545 18.056 197.813 17.812 196.837 17.812H195.325V23.728ZM204.718 25.12C204.294 25.12 203.914 25.04 203.578 24.88C203.25 24.712 202.99 24.488 202.798 24.208C202.614 23.928 202.522 23.612 202.522 23.26C202.522 22.828 202.634 22.488 202.858 22.24C203.082 21.984 203.446 21.8 203.95 21.688C204.454 21.576 205.13 21.52 205.978 21.52H206.578V22.384H205.99C205.494 22.384 205.098 22.408 204.802 22.456C204.506 22.504 204.294 22.588 204.166 22.708C204.046 22.82 203.986 22.98 203.986 23.188C203.986 23.452 204.078 23.668 204.262 23.836C204.446 24.004 204.702 24.088 205.03 24.088C205.294 24.088 205.526 24.028 205.726 23.908C205.934 23.78 206.098 23.608 206.218 23.392C206.338 23.176 206.398 22.928 206.398 22.648V21.268C206.398 20.868 206.31 20.58 206.134 20.404C205.958 20.228 205.662 20.14 205.246 20.14C205.014 20.14 204.762 20.168 204.49 20.224C204.226 20.28 203.946 20.376 203.65 20.512C203.498 20.584 203.362 20.604 203.242 20.572C203.13 20.54 203.042 20.476 202.978 20.38C202.914 20.276 202.882 20.164 202.882 20.044C202.882 19.924 202.914 19.808 202.978 19.696C203.042 19.576 203.15 19.488 203.302 19.432C203.67 19.28 204.022 19.172 204.358 19.108C204.702 19.044 205.014 19.012 205.294 19.012C205.87 19.012 206.342 19.1 206.71 19.276C207.086 19.452 207.366 19.72 207.55 20.08C207.734 20.432 207.826 20.888 207.826 21.448V24.328C207.826 24.576 207.766 24.768 207.646 24.904C207.526 25.032 207.354 25.096 207.13 25.096C206.906 25.096 206.73 25.032 206.602 24.904C206.482 24.768 206.422 24.576 206.422 24.328V23.752H206.518C206.462 24.032 206.35 24.276 206.182 24.484C206.022 24.684 205.818 24.84 205.57 24.952C205.322 25.064 205.038 25.12 204.718 25.12ZM210.778 27.256C210.602 27.256 210.458 27.208 210.346 27.112C210.234 27.024 210.166 26.904 210.142 26.752C210.126 26.6 210.154 26.44 210.226 26.272L211.042 24.46V25.084L208.858 20.032C208.786 19.856 208.762 19.692 208.786 19.54C208.81 19.388 208.882 19.268 209.002 19.18C209.13 19.084 209.302 19.036 209.518 19.036C209.702 19.036 209.85 19.08 209.962 19.168C210.074 19.248 210.174 19.404 210.262 19.636L211.882 23.68H211.522L213.178 19.624C213.266 19.4 213.37 19.248 213.49 19.168C213.61 19.08 213.77 19.036 213.97 19.036C214.146 19.036 214.286 19.084 214.39 19.18C214.494 19.268 214.558 19.388 214.582 19.54C214.606 19.684 214.578 19.844 214.498 20.02L211.582 26.68C211.478 26.904 211.366 27.056 211.246 27.136C211.126 27.216 210.97 27.256 210.778 27.256Z" fill="white"/>
<defs>
<filter id="filter0_d_998_3406" x="0" y="5.65723" width="332" height="373.343" filterUnits="userSpaceOnUse" color-interpolation-filters="sRGB">
<feFlood flood-opacity="0" result="BackgroundImageFix"/>
<feColorMatrix in="SourceAlpha" type="matrix" values="0 0 0 0 0 0 0 0 0 0 0 0 0 0 0 0 0 0 127 0" result="hardAlpha"/>
<feOffset dy="4"/>
<feGaussianBlur stdDeviation="25"/>
<feComposite in2="hardAlpha" operator="out"/>
<feColorMatrix type="matrix" values="0 0 0 0 0 0 0 0 0 0 0 0 0 0 0 0 0 0 0.05 0"/>
<feBlend mode="normal" in2="BackgroundImageFix" result="effect1_dropShadow_998_3406"/>
<feBlend mode="normal" in="SourceGraphic" in2="effect1_dropShadow_998_3406" result="shape"/>
</filter>
<filter id="filter1_d_998_3406" x="46" y="63" width="240" height="270" filterUnits="userSpaceOnUse" color-interpolation-filters="sRGB">
<feFlood flood-opacity="0" result="BackgroundImageFix"/>
<feColorMatrix in="SourceAlpha" type="matrix" values="0 0 0 0 0 0 0 0 0 0 0 0 0 0 0 0 0 0 127 0" result="hardAlpha"/>
<feOffset dy="4"/>
<feGaussianBlur stdDeviation="2"/>
<feComposite in2="hardAlpha" operator="out"/>
<feColorMatrix type="matrix" values="0 0 0 0 0 0 0 0 0 0 0 0 0 0 0 0 0 0 0.05 0"/>
<feBlend mode="normal" in2="BackgroundImageFix" result="effect1_dropShadow_998_3406"/>
<feBlend mode="normal" in="SourceGraphic" in2="effect1_dropShadow_998_3406" result="shape"/>
</filter>
<filter id="filter2_d_998_3406" x="56" y="119" width="220" height="62" filterUnits="userSpaceOnUse" color-interpolation-filters="sRGB">
<feFlood flood-opacity="0" result="BackgroundImageFix"/>
<feColorMatrix in="SourceAlpha" type="matrix" values="0 0 0 0 0 0 0 0 0 0 0 0 0 0 0 0 0 0 127 0" result="hardAlpha"/>
<feOffset dy="4"/>
<feGaussianBlur stdDeviation="5"/>
<feComposite in2="hardAlpha" operator="out"/>
<feColorMatrix type="matrix" values="0 0 0 0 0 0 0 0 0 0 0 0 0 0 0 0 0 0 0.25 0"/>
<feBlend mode="normal" in2="BackgroundImageFix" result="effect1_dropShadow_998_3406"/>
<feBlend mode="normal" in="SourceGraphic" in2="effect1_dropShadow_998_3406" result="shape"/>
</filter>
<filter id="filter3_i_998_3406" x="66" y="217" width="200" height="44" filterUnits="userSpaceOnUse" color-interpolation-filters="sRGB">
<feFlood flood-opacity="0" result="BackgroundImageFix"/>
<feBlend mode="normal" in="SourceGraphic" in2="BackgroundImageFix" result="shape"/>
<feColorMatrix in="SourceAlpha" type="matrix" values="0 0 0 0 0 0 0 0 0 0 0 0 0 0 0 0 0 0 127 0" result="hardAlpha"/>
<feOffset dy="2"/>
<feGaussianBlur stdDeviation="2"/>
<feComposite in2="hardAlpha" operator="arithmetic" k2="-1" k3="1"/>
<feColorMatrix type="matrix" values="0 0 0 0 0 0 0 0 0 0 0 0 0 0 0 0 0 0 0.05 0"/>
<feBlend mode="normal" in2="shape" result="effect1_innerShadow_998_3406"/>
</filter>
</defs>
</svg>
