<svg width="332" height="329" viewBox="0 0 332 329" fill="none" xmlns="http://www.w3.org/2000/svg">
<g filter="url(#filter0_d_998_3406)">
<g filter="url(#filter1_d_998_3406)">
<rect x="50" y="59" width="232" height="216" rx="18" fill="#E8EAEF"/>
<rect x="50.5" y="59.5" width="231" height="215" rx="17.5" stroke="#64728C" stroke-opacity="0.21"/>
<rect x="50" y="59" width="232" height="212" rx="18" fill="white"/>
<path d="M66 87C66 80.3726 71.3726 75 78 75H254C260.627 75 266 80.3726 266 87V105C266 111.627 260.627 117 254 117H78C71.3726 117 66 111.627 66 105V87Z" fill="#E8EAEF"/>
<path d="M133.302 100.096C133.086 100.096 132.91 100.044 132.774 99.94C132.646 99.836 132.542 99.672 132.462 99.448L129.954 92.356C129.866 92.1 129.882 91.884 130.002 91.708C130.13 91.532 130.342 91.444 130.638 91.444C130.854 91.444 131.022 91.496 131.142 91.6C131.262 91.696 131.358 91.852 131.43 92.068L133.59 98.476H133.11L135.366 92.08C135.446 91.864 135.546 91.704 135.666 91.6C135.786 91.496 135.942 91.444 136.134 91.444C136.326 91.444 136.478 91.496 136.59 91.6C136.702 91.704 136.798 91.868 136.878 92.092L139.062 98.476H138.642L140.838 92.068C140.91 91.86 141.006 91.704 141.126 91.6C141.246 91.496 141.41 91.444 141.618 91.444C141.874 91.444 142.062 91.532 142.182 91.708C142.302 91.884 142.318 92.1 142.23 92.356L139.698 99.46C139.618 99.676 139.514 99.836 139.386 99.94C139.258 100.044 139.086 100.096 138.87 100.096C138.654 100.096 138.482 100.044 138.354 99.94C138.226 99.836 138.122 99.672 138.042 99.448L135.954 93.496H136.23L134.118 99.46C134.038 99.676 133.934 99.836 133.806 99.94C133.686 100.044 133.518 100.096 133.302 100.096ZM145.468 100.12C144.86 100.12 144.332 99.996 143.884 99.748C143.436 99.5 143.088 99.148 142.84 98.692C142.592 98.228 142.468 97.684 142.468 97.06C142.468 96.588 142.536 96.168 142.672 95.8C142.816 95.424 143.02 95.104 143.284 94.84C143.548 94.568 143.864 94.364 144.232 94.228C144.6 94.084 145.012 94.012 145.468 94.012C146.076 94.012 146.604 94.136 147.052 94.384C147.5 94.632 147.848 94.984 148.096 95.44C148.344 95.896 148.468 96.436 148.468 97.06C148.468 97.532 148.396 97.956 148.252 98.332C148.116 98.708 147.916 99.032 147.652 99.304C147.388 99.568 147.072 99.772 146.704 99.916C146.336 100.052 145.924 100.12 145.468 100.12ZM145.468 98.98C145.764 98.98 146.024 98.908 146.248 98.764C146.472 98.62 146.644 98.408 146.764 98.128C146.892 97.84 146.956 97.484 146.956 97.06C146.956 96.42 146.82 95.944 146.548 95.632C146.276 95.312 145.916 95.152 145.468 95.152C145.172 95.152 144.912 95.224 144.688 95.368C144.464 95.504 144.288 95.716 144.16 96.004C144.04 96.284 143.98 96.636 143.98 97.06C143.98 97.692 144.116 98.172 144.388 98.5C144.66 98.82 145.02 98.98 145.468 98.98ZM150.474 100.096C150.226 100.096 150.034 100.032 149.898 99.904C149.77 99.768 149.706 99.576 149.706 99.328V94.792C149.706 94.544 149.77 94.356 149.898 94.228C150.026 94.1 150.206 94.036 150.438 94.036C150.67 94.036 150.85 94.1 150.978 94.228C151.106 94.356 151.17 94.544 151.17 94.792V95.548H151.05C151.162 95.068 151.382 94.704 151.71 94.456C152.038 94.208 152.474 94.06 153.018 94.012C153.186 93.996 153.318 94.04 153.414 94.144C153.518 94.24 153.578 94.392 153.594 94.6C153.61 94.8 153.562 94.964 153.45 95.092C153.346 95.212 153.186 95.284 152.97 95.308L152.706 95.332C152.218 95.38 151.85 95.532 151.602 95.788C151.354 96.036 151.23 96.388 151.23 96.844V99.328C151.23 99.576 151.166 99.768 151.038 99.904C150.91 100.032 150.722 100.096 150.474 100.096ZM155.149 100.096C154.909 100.096 154.725 100.032 154.597 99.904C154.469 99.768 154.405 99.576 154.405 99.328V92.2C154.405 91.952 154.469 91.764 154.597 91.636C154.725 91.508 154.909 91.444 155.149 91.444C155.389 91.444 155.573 91.508 155.701 91.636C155.837 91.764 155.905 91.952 155.905 92.2V96.628H155.929L157.909 94.54C158.069 94.38 158.209 94.256 158.329 94.168C158.449 94.08 158.613 94.036 158.821 94.036C159.029 94.036 159.185 94.092 159.289 94.204C159.401 94.308 159.457 94.436 159.457 94.588C159.457 94.74 159.385 94.892 159.241 95.044L157.153 97.252V96.628L159.445 99.1C159.589 99.252 159.653 99.408 159.637 99.568C159.629 99.72 159.565 99.848 159.445 99.952C159.325 100.048 159.173 100.096 158.989 100.096C158.765 100.096 158.585 100.052 158.449 99.964C158.321 99.876 158.177 99.744 158.017 99.568L155.929 97.384H155.905V99.328C155.905 99.84 155.653 100.096 155.149 100.096ZM161.583 100.084C161.343 100.084 161.159 100.012 161.031 99.868C160.903 99.724 160.839 99.524 160.839 99.268V94.864C160.839 94.6 160.903 94.4 161.031 94.264C161.159 94.12 161.343 94.048 161.583 94.048C161.823 94.048 162.007 94.12 162.135 94.264C162.271 94.4 162.339 94.6 162.339 94.864V99.268C162.339 99.524 162.275 99.724 162.147 99.868C162.019 100.012 161.831 100.084 161.583 100.084ZM161.583 92.932C161.303 92.932 161.083 92.864 160.923 92.728C160.771 92.584 160.695 92.388 160.695 92.14C160.695 91.884 160.771 91.688 160.923 91.552C161.083 91.416 161.303 91.348 161.583 91.348C161.871 91.348 162.091 91.416 162.243 91.552C162.395 91.688 162.471 91.884 162.471 92.14C162.471 92.388 162.395 92.584 162.243 92.728C162.091 92.864 161.871 92.932 161.583 92.932ZM164.641 100.096C164.401 100.096 164.217 100.032 164.089 99.904C163.961 99.768 163.897 99.576 163.897 99.328V94.792C163.897 94.544 163.961 94.356 164.089 94.228C164.217 94.1 164.397 94.036 164.629 94.036C164.861 94.036 165.041 94.1 165.169 94.228C165.297 94.356 165.361 94.544 165.361 94.792V95.608L165.229 95.308C165.405 94.884 165.677 94.564 166.045 94.348C166.421 94.124 166.845 94.012 167.317 94.012C167.789 94.012 168.177 94.1 168.481 94.276C168.785 94.452 169.013 94.72 169.165 95.08C169.317 95.432 169.393 95.88 169.393 96.424V99.328C169.393 99.576 169.329 99.768 169.201 99.904C169.073 100.032 168.889 100.096 168.649 100.096C168.409 100.096 168.221 100.032 168.085 99.904C167.957 99.768 167.893 99.576 167.893 99.328V96.496C167.893 96.04 167.805 95.708 167.629 95.5C167.461 95.292 167.197 95.188 166.837 95.188C166.397 95.188 166.045 95.328 165.781 95.608C165.525 95.88 165.397 96.244 165.397 96.7V99.328C165.397 99.84 165.145 100.096 164.641 100.096ZM173.653 102.28C173.221 102.28 172.801 102.24 172.393 102.16C171.993 102.08 171.629 101.956 171.301 101.788C171.149 101.708 171.045 101.612 170.989 101.5C170.941 101.388 170.925 101.272 170.941 101.152C170.965 101.04 171.013 100.94 171.085 100.852C171.165 100.764 171.261 100.704 171.373 100.672C171.485 100.64 171.601 100.656 171.721 100.72C172.073 100.896 172.405 101.008 172.717 101.056C173.037 101.112 173.309 101.14 173.533 101.14C174.069 101.14 174.469 101.008 174.733 100.744C175.005 100.488 175.141 100.104 175.141 99.592V98.512H175.249C175.129 98.92 174.877 99.248 174.493 99.496C174.117 99.736 173.689 99.856 173.209 99.856C172.681 99.856 172.221 99.736 171.829 99.496C171.437 99.248 171.133 98.904 170.917 98.464C170.701 98.024 170.593 97.512 170.593 96.928C170.593 96.488 170.653 96.092 170.773 95.74C170.901 95.38 171.077 95.072 171.301 94.816C171.533 94.56 171.809 94.364 172.129 94.228C172.457 94.084 172.817 94.012 173.209 94.012C173.705 94.012 174.137 94.136 174.505 94.384C174.881 94.624 175.125 94.944 175.237 95.344L175.117 95.644V94.792C175.117 94.544 175.181 94.356 175.309 94.228C175.445 94.1 175.629 94.036 175.861 94.036C176.101 94.036 176.285 94.1 176.413 94.228C176.541 94.356 176.605 94.544 176.605 94.792V99.412C176.605 100.364 176.353 101.08 175.849 101.56C175.345 102.04 174.613 102.28 173.653 102.28ZM173.617 98.716C173.929 98.716 174.197 98.644 174.421 98.5C174.645 98.356 174.817 98.152 174.937 97.888C175.065 97.616 175.129 97.296 175.129 96.928C175.129 96.376 174.993 95.944 174.721 95.632C174.449 95.312 174.081 95.152 173.617 95.152C173.305 95.152 173.037 95.224 172.813 95.368C172.589 95.512 172.413 95.716 172.285 95.98C172.165 96.244 172.105 96.56 172.105 96.928C172.105 97.48 172.241 97.916 172.513 98.236C172.785 98.556 173.153 98.716 173.617 98.716ZM182.377 100C182.113 100 181.909 99.932 181.765 99.796C181.629 99.652 181.561 99.448 181.561 99.184V92.356C181.561 92.092 181.629 91.892 181.765 91.756C181.909 91.612 182.113 91.54 182.377 91.54H184.705C186.121 91.54 187.213 91.904 187.981 92.632C188.757 93.36 189.145 94.404 189.145 95.764C189.145 96.444 189.045 97.048 188.845 97.576C188.653 98.096 188.365 98.536 187.981 98.896C187.605 99.256 187.141 99.532 186.589 99.724C186.045 99.908 185.417 100 184.705 100H182.377ZM183.097 98.728H184.609C185.105 98.728 185.533 98.668 185.893 98.548C186.261 98.42 186.565 98.236 186.805 97.996C187.053 97.748 187.237 97.44 187.357 97.072C187.477 96.696 187.537 96.26 187.537 95.764C187.537 94.772 187.293 94.032 186.805 93.544C186.317 93.056 185.585 92.812 184.609 92.812H183.097V98.728ZM192.489 100.12C192.065 100.12 191.685 100.04 191.349 99.88C191.021 99.712 190.761 99.488 190.569 99.208C190.385 98.928 190.293 98.612 190.293 98.26C190.293 97.828 190.405 97.488 190.629 97.24C190.853 96.984 191.217 96.8 191.721 96.688C192.225 96.576 192.901 96.52 193.749 96.52H194.349V97.384H193.761C193.265 97.384 192.869 97.408 192.573 97.456C192.277 97.504 192.065 97.588 191.937 97.708C191.817 97.82 191.757 97.98 191.757 98.188C191.757 98.452 191.849 98.668 192.033 98.836C192.217 99.004 192.473 99.088 192.801 99.088C193.065 99.088 193.297 99.028 193.497 98.908C193.705 98.78 193.869 98.608 193.989 98.392C194.109 98.176 194.169 97.928 194.169 97.648V96.268C194.169 95.868 194.081 95.58 193.905 95.404C193.729 95.228 193.433 95.14 193.017 95.14C192.785 95.14 192.533 95.168 192.261 95.224C191.997 95.28 191.717 95.376 191.421 95.512C191.269 95.584 191.133 95.604 191.013 95.572C190.901 95.54 190.813 95.476 190.749 95.38C190.685 95.276 190.653 95.164 190.653 95.044C190.653 94.924 190.685 94.808 190.749 94.696C190.813 94.576 190.921 94.488 191.073 94.432C191.441 94.28 191.793 94.172 192.129 94.108C192.473 94.044 192.785 94.012 193.065 94.012C193.641 94.012 194.113 94.1 194.481 94.276C194.857 94.452 195.137 94.72 195.321 95.08C195.505 95.432 195.597 95.888 195.597 96.448V99.328C195.597 99.576 195.537 99.768 195.417 99.904C195.297 100.032 195.125 100.096 194.901 100.096C194.677 100.096 194.501 100.032 194.373 99.904C194.253 99.768 194.193 99.576 194.193 99.328V98.752H194.289C194.233 99.032 194.121 99.276 193.953 99.484C193.793 99.684 193.589 99.84 193.341 99.952C193.093 100.064 192.809 100.12 192.489 100.12ZM198.549 102.256C198.373 102.256 198.229 102.208 198.117 102.112C198.005 102.024 197.937 101.904 197.913 101.752C197.897 101.6 197.925 101.44 197.997 101.272L198.813 99.46V100.084L196.629 95.032C196.557 94.856 196.533 94.692 196.557 94.54C196.581 94.388 196.653 94.268 196.773 94.18C196.901 94.084 197.073 94.036 197.289 94.036C197.473 94.036 197.621 94.08 197.733 94.168C197.845 94.248 197.945 94.404 198.033 94.636L199.653 98.68H199.293L200.949 94.624C201.037 94.4 201.141 94.248 201.261 94.168C201.381 94.08 201.541 94.036 201.741 94.036C201.917 94.036 202.057 94.084 202.161 94.18C202.265 94.268 202.329 94.388 202.353 94.54C202.377 94.684 202.349 94.844 202.269 95.02L199.353 101.68C199.249 101.904 199.137 102.056 199.017 102.136C198.897 102.216 198.741 102.256 198.549 102.256Z" fill="#D9D9D9"/>
<g filter="url(#filter2_d_998_3406)">
<mask id="path-6-inside-1_998_3406" fill="white">
<path d="M66 133C66 126.373 71.3726 121 78 121H254C260.627 121 266 126.373 266 133V151C266 157.627 260.627 163 254 163H78C71.3726 163 66 157.627 66 151V133Z"/>
</mask>
<path d="M66 133C66 126.373 71.3726 121 78 121H254C260.627 121 266 126.373 266 133V151C266 157.627 260.627 163 254 163H78C71.3726 163 66 157.627 66 151V133Z" fill="#76BC21" shape-rendering="crispEdges"/>
<path d="M66 121H266H66ZM266 151C266 159.284 259.284 166 251 166H81C72.7157 166 66 159.284 66 151C66 155.971 71.3726 160 78 160H254C260.627 160 266 155.971 266 151ZM66 163V121V163ZM266 121V163V121Z" fill="#68A51D" mask="url(#path-6-inside-1_998_3406)"/>
<path d="M121.074 146.096C120.858 146.096 120.682 146.044 120.546 145.94C120.418 145.836 120.314 145.672 120.234 145.448L117.726 138.356C117.638 138.1 117.654 137.884 117.774 137.708C117.902 137.532 118.114 137.444 118.41 137.444C118.626 137.444 118.794 137.496 118.914 137.6C119.034 137.696 119.13 137.852 119.202 138.068L121.362 144.476H120.882L123.138 138.08C123.218 137.864 123.318 137.704 123.438 137.6C123.558 137.496 123.714 137.444 123.906 137.444C124.098 137.444 124.25 137.496 124.362 137.6C124.474 137.704 124.57 137.868 124.65 138.092L126.834 144.476H126.414L128.61 138.068C128.682 137.86 128.778 137.704 128.898 137.6C129.018 137.496 129.182 137.444 129.39 137.444C129.646 137.444 129.834 137.532 129.954 137.708C130.074 137.884 130.09 138.1 130.002 138.356L127.47 145.46C127.39 145.676 127.286 145.836 127.158 145.94C127.03 146.044 126.858 146.096 126.642 146.096C126.426 146.096 126.254 146.044 126.126 145.94C125.998 145.836 125.894 145.672 125.814 145.448L123.726 139.496H124.002L121.89 145.46C121.81 145.676 121.706 145.836 121.578 145.94C121.458 146.044 121.29 146.096 121.074 146.096ZM133.239 146.12C132.631 146.12 132.103 145.996 131.655 145.748C131.207 145.5 130.859 145.148 130.611 144.692C130.363 144.228 130.239 143.684 130.239 143.06C130.239 142.588 130.307 142.168 130.443 141.8C130.587 141.424 130.791 141.104 131.055 140.84C131.319 140.568 131.635 140.364 132.003 140.228C132.371 140.084 132.783 140.012 133.239 140.012C133.847 140.012 134.375 140.136 134.823 140.384C135.271 140.632 135.619 140.984 135.867 141.44C136.115 141.896 136.239 142.436 136.239 143.06C136.239 143.532 136.167 143.956 136.023 144.332C135.887 144.708 135.687 145.032 135.423 145.304C135.159 145.568 134.843 145.772 134.475 145.916C134.107 146.052 133.695 146.12 133.239 146.12ZM133.239 144.98C133.535 144.98 133.795 144.908 134.019 144.764C134.243 144.62 134.415 144.408 134.535 144.128C134.663 143.84 134.727 143.484 134.727 143.06C134.727 142.42 134.591 141.944 134.319 141.632C134.047 141.312 133.687 141.152 133.239 141.152C132.943 141.152 132.683 141.224 132.459 141.368C132.235 141.504 132.059 141.716 131.931 142.004C131.811 142.284 131.751 142.636 131.751 143.06C131.751 143.692 131.887 144.172 132.159 144.5C132.431 144.82 132.791 144.98 133.239 144.98ZM138.245 146.096C137.997 146.096 137.805 146.032 137.669 145.904C137.541 145.768 137.477 145.576 137.477 145.328V140.792C137.477 140.544 137.541 140.356 137.669 140.228C137.797 140.1 137.977 140.036 138.209 140.036C138.441 140.036 138.621 140.1 138.749 140.228C138.877 140.356 138.941 140.544 138.941 140.792V141.548H138.821C138.933 141.068 139.153 140.704 139.481 140.456C139.809 140.208 140.245 140.06 140.789 140.012C140.957 139.996 141.089 140.04 141.185 140.144C141.289 140.24 141.349 140.392 141.365 140.6C141.381 140.8 141.333 140.964 141.221 141.092C141.117 141.212 140.957 141.284 140.741 141.308L140.477 141.332C139.989 141.38 139.621 141.532 139.373 141.788C139.125 142.036 139.001 142.388 139.001 142.844V145.328C139.001 145.576 138.937 145.768 138.809 145.904C138.681 146.032 138.493 146.096 138.245 146.096ZM142.92 146.096C142.68 146.096 142.496 146.032 142.368 145.904C142.24 145.768 142.176 145.576 142.176 145.328V138.2C142.176 137.952 142.24 137.764 142.368 137.636C142.496 137.508 142.68 137.444 142.92 137.444C143.16 137.444 143.344 137.508 143.472 137.636C143.608 137.764 143.676 137.952 143.676 138.2V142.628H143.7L145.68 140.54C145.84 140.38 145.98 140.256 146.1 140.168C146.22 140.08 146.384 140.036 146.592 140.036C146.8 140.036 146.956 140.092 147.06 140.204C147.172 140.308 147.228 140.436 147.228 140.588C147.228 140.74 147.156 140.892 147.012 141.044L144.924 143.252V142.628L147.216 145.1C147.36 145.252 147.424 145.408 147.408 145.568C147.4 145.72 147.336 145.848 147.216 145.952C147.096 146.048 146.944 146.096 146.76 146.096C146.536 146.096 146.356 146.052 146.22 145.964C146.092 145.876 145.948 145.744 145.788 145.568L143.7 143.384H143.676V145.328C143.676 145.84 143.424 146.096 142.92 146.096ZM149.354 146.084C149.114 146.084 148.93 146.012 148.802 145.868C148.674 145.724 148.61 145.524 148.61 145.268V140.864C148.61 140.6 148.674 140.4 148.802 140.264C148.93 140.12 149.114 140.048 149.354 140.048C149.594 140.048 149.778 140.12 149.906 140.264C150.042 140.4 150.11 140.6 150.11 140.864V145.268C150.11 145.524 150.046 145.724 149.918 145.868C149.79 146.012 149.602 146.084 149.354 146.084ZM149.354 138.932C149.074 138.932 148.854 138.864 148.694 138.728C148.542 138.584 148.466 138.388 148.466 138.14C148.466 137.884 148.542 137.688 148.694 137.552C148.854 137.416 149.074 137.348 149.354 137.348C149.642 137.348 149.862 137.416 150.014 137.552C150.166 137.688 150.242 137.884 150.242 138.14C150.242 138.388 150.166 138.584 150.014 138.728C149.862 138.864 149.642 138.932 149.354 138.932ZM152.413 146.096C152.173 146.096 151.989 146.032 151.861 145.904C151.733 145.768 151.669 145.576 151.669 145.328V140.792C151.669 140.544 151.733 140.356 151.861 140.228C151.989 140.1 152.169 140.036 152.401 140.036C152.633 140.036 152.813 140.1 152.941 140.228C153.069 140.356 153.133 140.544 153.133 140.792V141.608L153.001 141.308C153.177 140.884 153.449 140.564 153.817 140.348C154.193 140.124 154.617 140.012 155.089 140.012C155.561 140.012 155.949 140.1 156.253 140.276C156.557 140.452 156.785 140.72 156.937 141.08C157.089 141.432 157.165 141.88 157.165 142.424V145.328C157.165 145.576 157.101 145.768 156.973 145.904C156.845 146.032 156.661 146.096 156.421 146.096C156.181 146.096 155.993 146.032 155.857 145.904C155.729 145.768 155.665 145.576 155.665 145.328V142.496C155.665 142.04 155.577 141.708 155.401 141.5C155.233 141.292 154.969 141.188 154.609 141.188C154.169 141.188 153.817 141.328 153.553 141.608C153.297 141.88 153.169 142.244 153.169 142.7V145.328C153.169 145.84 152.917 146.096 152.413 146.096ZM161.424 148.28C160.992 148.28 160.572 148.24 160.164 148.16C159.764 148.08 159.4 147.956 159.072 147.788C158.92 147.708 158.816 147.612 158.76 147.5C158.712 147.388 158.696 147.272 158.712 147.152C158.736 147.04 158.784 146.94 158.856 146.852C158.936 146.764 159.032 146.704 159.144 146.672C159.256 146.64 159.372 146.656 159.492 146.72C159.844 146.896 160.176 147.008 160.488 147.056C160.808 147.112 161.08 147.14 161.304 147.14C161.84 147.14 162.24 147.008 162.504 146.744C162.776 146.488 162.912 146.104 162.912 145.592V144.512H163.02C162.9 144.92 162.648 145.248 162.264 145.496C161.888 145.736 161.46 145.856 160.98 145.856C160.452 145.856 159.992 145.736 159.6 145.496C159.208 145.248 158.904 144.904 158.688 144.464C158.472 144.024 158.364 143.512 158.364 142.928C158.364 142.488 158.424 142.092 158.544 141.74C158.672 141.38 158.848 141.072 159.072 140.816C159.304 140.56 159.58 140.364 159.9 140.228C160.228 140.084 160.588 140.012 160.98 140.012C161.476 140.012 161.908 140.136 162.276 140.384C162.652 140.624 162.896 140.944 163.008 141.344L162.888 141.644V140.792C162.888 140.544 162.952 140.356 163.08 140.228C163.216 140.1 163.4 140.036 163.632 140.036C163.872 140.036 164.056 140.1 164.184 140.228C164.312 140.356 164.376 140.544 164.376 140.792V145.412C164.376 146.364 164.124 147.08 163.62 147.56C163.116 148.04 162.384 148.28 161.424 148.28ZM161.388 144.716C161.7 144.716 161.968 144.644 162.192 144.5C162.416 144.356 162.588 144.152 162.708 143.888C162.836 143.616 162.9 143.296 162.9 142.928C162.9 142.376 162.764 141.944 162.492 141.632C162.22 141.312 161.852 141.152 161.388 141.152C161.076 141.152 160.808 141.224 160.584 141.368C160.36 141.512 160.184 141.716 160.056 141.98C159.936 142.244 159.876 142.56 159.876 142.928C159.876 143.48 160.012 143.916 160.284 144.236C160.556 144.556 160.924 144.716 161.388 144.716ZM170.124 146.096C169.876 146.096 169.68 146.028 169.536 145.892C169.4 145.748 169.332 145.544 169.332 145.28V138.356C169.332 138.092 169.4 137.892 169.536 137.756C169.68 137.612 169.884 137.54 170.148 137.54H174.336C174.544 137.54 174.7 137.592 174.804 137.696C174.908 137.8 174.96 137.948 174.96 138.14C174.96 138.34 174.908 138.496 174.804 138.608C174.7 138.712 174.544 138.764 174.336 138.764H170.868V141.152H174.084C174.284 141.152 174.436 141.204 174.54 141.308C174.652 141.412 174.708 141.56 174.708 141.752C174.708 141.952 174.652 142.108 174.54 142.22C174.436 142.324 174.284 142.376 174.084 142.376H170.868V145.28C170.868 145.824 170.62 146.096 170.124 146.096ZM177.898 146.12C177.41 146.12 177.006 146.032 176.686 145.856C176.366 145.672 176.126 145.4 175.966 145.04C175.814 144.68 175.738 144.232 175.738 143.696V140.792C175.738 140.536 175.802 140.348 175.93 140.228C176.058 140.1 176.242 140.036 176.482 140.036C176.722 140.036 176.906 140.1 177.034 140.228C177.17 140.348 177.238 140.536 177.238 140.792V143.72C177.238 144.136 177.322 144.444 177.49 144.644C177.658 144.844 177.926 144.944 178.294 144.944C178.694 144.944 179.022 144.808 179.278 144.536C179.534 144.256 179.662 143.888 179.662 143.432V140.792C179.662 140.536 179.726 140.348 179.854 140.228C179.982 140.1 180.166 140.036 180.406 140.036C180.646 140.036 180.83 140.1 180.958 140.228C181.094 140.348 181.162 140.536 181.162 140.792V145.328C181.162 145.84 180.918 146.096 180.43 146.096C180.198 146.096 180.018 146.032 179.89 145.904C179.762 145.768 179.698 145.576 179.698 145.328V144.416L179.866 144.776C179.698 145.208 179.442 145.54 179.098 145.772C178.762 146.004 178.362 146.12 177.898 146.12ZM184.727 146.12C184.063 146.12 183.563 145.932 183.227 145.556C182.891 145.172 182.723 144.612 182.723 143.876V138.2C182.723 137.952 182.787 137.764 182.915 137.636C183.043 137.508 183.227 137.444 183.467 137.444C183.707 137.444 183.891 137.508 184.019 137.636C184.155 137.764 184.223 137.952 184.223 138.2V143.804C184.223 144.172 184.299 144.444 184.451 144.62C184.611 144.796 184.835 144.884 185.123 144.884C185.187 144.884 185.247 144.884 185.303 144.884C185.359 144.876 185.415 144.868 185.471 144.86C185.583 144.844 185.659 144.876 185.699 144.956C185.739 145.028 185.759 145.18 185.759 145.412C185.759 145.612 185.719 145.768 185.639 145.88C185.559 145.992 185.427 146.06 185.243 146.084C185.163 146.092 185.079 146.1 184.991 146.108C184.903 146.116 184.815 146.12 184.727 146.12ZM188.559 146.12C187.895 146.12 187.395 145.932 187.059 145.556C186.723 145.172 186.555 144.612 186.555 143.876V138.2C186.555 137.952 186.619 137.764 186.747 137.636C186.875 137.508 187.059 137.444 187.299 137.444C187.539 137.444 187.723 137.508 187.851 137.636C187.987 137.764 188.055 137.952 188.055 138.2V143.804C188.055 144.172 188.131 144.444 188.283 144.62C188.443 144.796 188.667 144.884 188.955 144.884C189.019 144.884 189.079 144.884 189.135 144.884C189.191 144.876 189.247 144.868 189.303 144.86C189.415 144.844 189.491 144.876 189.531 144.956C189.571 145.028 189.591 145.18 189.591 145.412C189.591 145.612 189.551 145.768 189.471 145.88C189.391 145.992 189.259 146.06 189.075 146.084C188.995 146.092 188.911 146.1 188.823 146.108C188.735 146.116 188.647 146.12 188.559 146.12ZM194.605 146C194.341 146 194.137 145.932 193.993 145.796C193.857 145.652 193.789 145.448 193.789 145.184V138.356C193.789 138.092 193.857 137.892 193.993 137.756C194.137 137.612 194.341 137.54 194.605 137.54H196.933C198.349 137.54 199.441 137.904 200.209 138.632C200.985 139.36 201.373 140.404 201.373 141.764C201.373 142.444 201.273 143.048 201.073 143.576C200.881 144.096 200.593 144.536 200.209 144.896C199.833 145.256 199.369 145.532 198.817 145.724C198.273 145.908 197.645 146 196.933 146H194.605ZM195.325 144.728H196.837C197.333 144.728 197.761 144.668 198.121 144.548C198.489 144.42 198.793 144.236 199.033 143.996C199.281 143.748 199.465 143.44 199.585 143.072C199.705 142.696 199.765 142.26 199.765 141.764C199.765 140.772 199.521 140.032 199.033 139.544C198.545 139.056 197.813 138.812 196.837 138.812H195.325V144.728ZM204.718 146.12C204.294 146.12 203.914 146.04 203.578 145.88C203.25 145.712 202.99 145.488 202.798 145.208C202.614 144.928 202.522 144.612 202.522 144.26C202.522 143.828 202.634 143.488 202.858 143.24C203.082 142.984 203.446 142.8 203.95 142.688C204.454 142.576 205.13 142.52 205.978 142.52H206.578V143.384H205.99C205.494 143.384 205.098 143.408 204.802 143.456C204.506 143.504 204.294 143.588 204.166 143.708C204.046 143.82 203.986 143.98 203.986 144.188C203.986 144.452 204.078 144.668 204.262 144.836C204.446 145.004 204.702 145.088 205.03 145.088C205.294 145.088 205.526 145.028 205.726 144.908C205.934 144.78 206.098 144.608 206.218 144.392C206.338 144.176 206.398 143.928 206.398 143.648V142.268C206.398 141.868 206.31 141.58 206.134 141.404C205.958 141.228 205.662 141.14 205.246 141.14C205.014 141.14 204.762 141.168 204.49 141.224C204.226 141.28 203.946 141.376 203.65 141.512C203.498 141.584 203.362 141.604 203.242 141.572C203.13 141.54 203.042 141.476 202.978 141.38C202.914 141.276 202.882 141.164 202.882 141.044C202.882 140.924 202.914 140.808 202.978 140.696C203.042 140.576 203.15 140.488 203.302 140.432C203.67 140.28 204.022 140.172 204.358 140.108C204.702 140.044 205.014 140.012 205.294 140.012C205.87 140.012 206.342 140.1 206.71 140.276C207.086 140.452 207.366 140.72 207.55 141.08C207.734 141.432 207.826 141.888 207.826 142.448V145.328C207.826 145.576 207.766 145.768 207.646 145.904C207.526 146.032 207.354 146.096 207.13 146.096C206.906 146.096 206.73 146.032 206.602 145.904C206.482 145.768 206.422 145.576 206.422 145.328V144.752H206.518C206.462 145.032 206.35 145.276 206.182 145.484C206.022 145.684 205.818 145.84 205.57 145.952C205.322 146.064 205.038 146.12 204.718 146.12ZM210.778 148.256C210.602 148.256 210.458 148.208 210.346 148.112C210.234 148.024 210.166 147.904 210.142 147.752C210.126 147.6 210.154 147.44 210.226 147.272L211.042 145.46V146.084L208.858 141.032C208.786 140.856 208.762 140.692 208.786 140.54C208.81 140.388 208.882 140.268 209.002 140.18C209.13 140.084 209.302 140.036 209.518 140.036C209.702 140.036 209.85 140.08 209.962 140.168C210.074 140.248 210.174 140.404 210.262 140.636L211.882 144.68H211.522L213.178 140.624C213.266 140.4 213.37 140.248 213.49 140.168C213.61 140.08 213.77 140.036 213.97 140.036C214.146 140.036 214.286 140.084 214.39 140.18C214.494 140.268 214.558 140.388 214.582 140.54C214.606 140.684 214.578 140.844 214.498 141.02L211.582 147.68C211.478 147.904 211.366 148.056 211.246 148.136C211.126 148.216 210.97 148.256 210.778 148.256Z" fill="white"/>
</g>
<g filter="url(#filter3_i_998_3406)">
<path d="M66 179C66 172.373 71.3726 167 78 167H254C260.627 167 266 172.373 266 179V197C266 203.627 260.627 209 254 209H78C71.3726 209 66 203.627 66 197V179Z" fill="#FFAA00"/>
<path d="M120.839 192.096C120.623 192.096 120.447 192.044 120.311 191.94C120.183 191.836 120.079 191.672 119.999 191.448L117.491 184.356C117.403 184.1 117.419 183.884 117.539 183.708C117.667 183.532 117.879 183.444 118.175 183.444C118.391 183.444 118.559 183.496 118.679 183.6C118.799 183.696 118.895 183.852 118.967 184.068L121.127 190.476H120.647L122.903 184.08C122.983 183.864 123.083 183.704 123.203 183.6C123.323 183.496 123.479 183.444 123.671 183.444C123.863 183.444 124.015 183.496 124.127 183.6C124.239 183.704 124.335 183.868 124.415 184.092L126.599 190.476H126.179L128.375 184.068C128.447 183.86 128.543 183.704 128.663 183.6C128.783 183.496 128.947 183.444 129.155 183.444C129.411 183.444 129.599 183.532 129.719 183.708C129.839 183.884 129.855 184.1 129.767 184.356L127.235 191.46C127.155 191.676 127.051 191.836 126.923 191.94C126.795 192.044 126.623 192.096 126.407 192.096C126.191 192.096 126.019 192.044 125.891 191.94C125.763 191.836 125.659 191.672 125.579 191.448L123.491 185.496H123.767L121.655 191.46C121.575 191.676 121.471 191.836 121.343 191.94C121.223 192.044 121.055 192.096 120.839 192.096ZM133.005 192.12C132.397 192.12 131.869 191.996 131.421 191.748C130.973 191.5 130.625 191.148 130.377 190.692C130.129 190.228 130.005 189.684 130.005 189.06C130.005 188.588 130.073 188.168 130.209 187.8C130.353 187.424 130.557 187.104 130.821 186.84C131.085 186.568 131.401 186.364 131.769 186.228C132.137 186.084 132.549 186.012 133.005 186.012C133.613 186.012 134.141 186.136 134.589 186.384C135.037 186.632 135.385 186.984 135.633 187.44C135.881 187.896 136.005 188.436 136.005 189.06C136.005 189.532 135.933 189.956 135.789 190.332C135.653 190.708 135.453 191.032 135.189 191.304C134.925 191.568 134.609 191.772 134.241 191.916C133.873 192.052 133.461 192.12 133.005 192.12ZM133.005 190.98C133.301 190.98 133.561 190.908 133.785 190.764C134.009 190.62 134.181 190.408 134.301 190.128C134.429 189.84 134.493 189.484 134.493 189.06C134.493 188.42 134.357 187.944 134.085 187.632C133.813 187.312 133.453 187.152 133.005 187.152C132.709 187.152 132.449 187.224 132.225 187.368C132.001 187.504 131.825 187.716 131.697 188.004C131.577 188.284 131.517 188.636 131.517 189.06C131.517 189.692 131.653 190.172 131.925 190.5C132.197 190.82 132.557 190.98 133.005 190.98ZM138.011 192.096C137.763 192.096 137.571 192.032 137.435 191.904C137.307 191.768 137.243 191.576 137.243 191.328V186.792C137.243 186.544 137.307 186.356 137.435 186.228C137.563 186.1 137.743 186.036 137.975 186.036C138.207 186.036 138.387 186.1 138.515 186.228C138.643 186.356 138.707 186.544 138.707 186.792V187.548H138.587C138.699 187.068 138.919 186.704 139.247 186.456C139.575 186.208 140.011 186.06 140.555 186.012C140.723 185.996 140.855 186.04 140.951 186.144C141.055 186.24 141.115 186.392 141.131 186.6C141.147 186.8 141.099 186.964 140.987 187.092C140.883 187.212 140.723 187.284 140.507 187.308L140.243 187.332C139.755 187.38 139.387 187.532 139.139 187.788C138.891 188.036 138.767 188.388 138.767 188.844V191.328C138.767 191.576 138.703 191.768 138.575 191.904C138.447 192.032 138.259 192.096 138.011 192.096ZM142.686 192.096C142.446 192.096 142.262 192.032 142.134 191.904C142.006 191.768 141.942 191.576 141.942 191.328V184.2C141.942 183.952 142.006 183.764 142.134 183.636C142.262 183.508 142.446 183.444 142.686 183.444C142.926 183.444 143.11 183.508 143.238 183.636C143.374 183.764 143.442 183.952 143.442 184.2V188.628H143.466L145.446 186.54C145.606 186.38 145.746 186.256 145.866 186.168C145.986 186.08 146.15 186.036 146.358 186.036C146.566 186.036 146.722 186.092 146.826 186.204C146.938 186.308 146.994 186.436 146.994 186.588C146.994 186.74 146.922 186.892 146.778 187.044L144.69 189.252V188.628L146.982 191.1C147.126 191.252 147.19 191.408 147.174 191.568C147.166 191.72 147.102 191.848 146.982 191.952C146.862 192.048 146.71 192.096 146.526 192.096C146.302 192.096 146.122 192.052 145.986 191.964C145.858 191.876 145.714 191.744 145.554 191.568L143.466 189.384H143.442V191.328C143.442 191.84 143.19 192.096 142.686 192.096ZM149.12 192.084C148.88 192.084 148.696 192.012 148.568 191.868C148.44 191.724 148.376 191.524 148.376 191.268V186.864C148.376 186.6 148.44 186.4 148.568 186.264C148.696 186.12 148.88 186.048 149.12 186.048C149.36 186.048 149.544 186.12 149.672 186.264C149.808 186.4 149.876 186.6 149.876 186.864V191.268C149.876 191.524 149.812 191.724 149.684 191.868C149.556 192.012 149.368 192.084 149.12 192.084ZM149.12 184.932C148.84 184.932 148.62 184.864 148.46 184.728C148.308 184.584 148.232 184.388 148.232 184.14C148.232 183.884 148.308 183.688 148.46 183.552C148.62 183.416 148.84 183.348 149.12 183.348C149.408 183.348 149.628 183.416 149.78 183.552C149.932 183.688 150.008 183.884 150.008 184.14C150.008 184.388 149.932 184.584 149.78 184.728C149.628 184.864 149.408 184.932 149.12 184.932ZM152.178 192.096C151.938 192.096 151.754 192.032 151.626 191.904C151.498 191.768 151.434 191.576 151.434 191.328V186.792C151.434 186.544 151.498 186.356 151.626 186.228C151.754 186.1 151.934 186.036 152.166 186.036C152.398 186.036 152.578 186.1 152.706 186.228C152.834 186.356 152.898 186.544 152.898 186.792V187.608L152.766 187.308C152.942 186.884 153.214 186.564 153.582 186.348C153.958 186.124 154.382 186.012 154.854 186.012C155.326 186.012 155.714 186.1 156.018 186.276C156.322 186.452 156.55 186.72 156.702 187.08C156.854 187.432 156.93 187.88 156.93 188.424V191.328C156.93 191.576 156.866 191.768 156.738 191.904C156.61 192.032 156.426 192.096 156.186 192.096C155.946 192.096 155.758 192.032 155.622 191.904C155.494 191.768 155.43 191.576 155.43 191.328V188.496C155.43 188.04 155.342 187.708 155.166 187.5C154.998 187.292 154.734 187.188 154.374 187.188C153.934 187.188 153.582 187.328 153.318 187.608C153.062 187.88 152.934 188.244 152.934 188.7V191.328C152.934 191.84 152.682 192.096 152.178 192.096ZM161.19 194.28C160.758 194.28 160.338 194.24 159.93 194.16C159.53 194.08 159.166 193.956 158.838 193.788C158.686 193.708 158.582 193.612 158.526 193.5C158.478 193.388 158.462 193.272 158.478 193.152C158.502 193.04 158.55 192.94 158.622 192.852C158.702 192.764 158.798 192.704 158.91 192.672C159.022 192.64 159.138 192.656 159.258 192.72C159.61 192.896 159.942 193.008 160.254 193.056C160.574 193.112 160.846 193.14 161.07 193.14C161.606 193.14 162.006 193.008 162.27 192.744C162.542 192.488 162.678 192.104 162.678 191.592V190.512H162.786C162.666 190.92 162.414 191.248 162.03 191.496C161.654 191.736 161.226 191.856 160.746 191.856C160.218 191.856 159.758 191.736 159.366 191.496C158.974 191.248 158.67 190.904 158.454 190.464C158.238 190.024 158.13 189.512 158.13 188.928C158.13 188.488 158.19 188.092 158.31 187.74C158.438 187.38 158.614 187.072 158.838 186.816C159.07 186.56 159.346 186.364 159.666 186.228C159.994 186.084 160.354 186.012 160.746 186.012C161.242 186.012 161.674 186.136 162.042 186.384C162.418 186.624 162.662 186.944 162.774 187.344L162.654 187.644V186.792C162.654 186.544 162.718 186.356 162.846 186.228C162.982 186.1 163.166 186.036 163.398 186.036C163.638 186.036 163.822 186.1 163.95 186.228C164.078 186.356 164.142 186.544 164.142 186.792V191.412C164.142 192.364 163.89 193.08 163.386 193.56C162.882 194.04 162.15 194.28 161.19 194.28ZM161.154 190.716C161.466 190.716 161.734 190.644 161.958 190.5C162.182 190.356 162.354 190.152 162.474 189.888C162.602 189.616 162.666 189.296 162.666 188.928C162.666 188.376 162.53 187.944 162.258 187.632C161.986 187.312 161.618 187.152 161.154 187.152C160.842 187.152 160.574 187.224 160.35 187.368C160.126 187.512 159.95 187.716 159.822 187.98C159.702 188.244 159.642 188.56 159.642 188.928C159.642 189.48 159.778 189.916 160.05 190.236C160.322 190.556 160.69 190.716 161.154 190.716ZM169.698 192.096C169.458 192.096 169.274 192.032 169.146 191.904C169.018 191.768 168.954 191.576 168.954 191.328V184.2C168.954 183.952 169.018 183.764 169.146 183.636C169.274 183.508 169.458 183.444 169.698 183.444C169.938 183.444 170.122 183.508 170.25 183.636C170.386 183.764 170.454 183.952 170.454 184.2V187.308H170.286C170.462 186.884 170.734 186.564 171.102 186.348C171.478 186.124 171.902 186.012 172.374 186.012C172.846 186.012 173.234 186.1 173.538 186.276C173.842 186.452 174.07 186.72 174.222 187.08C174.374 187.432 174.45 187.88 174.45 188.424V191.328C174.45 191.576 174.386 191.768 174.258 191.904C174.13 192.032 173.946 192.096 173.706 192.096C173.466 192.096 173.278 192.032 173.142 191.904C173.014 191.768 172.95 191.576 172.95 191.328V188.496C172.95 188.04 172.862 187.708 172.686 187.5C172.518 187.292 172.254 187.188 171.894 187.188C171.454 187.188 171.102 187.328 170.838 187.608C170.582 187.88 170.454 188.244 170.454 188.7V191.328C170.454 191.84 170.202 192.096 169.698 192.096ZM177.905 192.12C177.481 192.12 177.101 192.04 176.765 191.88C176.437 191.712 176.177 191.488 175.985 191.208C175.801 190.928 175.709 190.612 175.709 190.26C175.709 189.828 175.821 189.488 176.045 189.24C176.269 188.984 176.633 188.8 177.137 188.688C177.641 188.576 178.317 188.52 179.165 188.52H179.765V189.384H179.177C178.681 189.384 178.285 189.408 177.989 189.456C177.693 189.504 177.481 189.588 177.353 189.708C177.233 189.82 177.173 189.98 177.173 190.188C177.173 190.452 177.265 190.668 177.449 190.836C177.633 191.004 177.889 191.088 178.217 191.088C178.481 191.088 178.713 191.028 178.913 190.908C179.121 190.78 179.285 190.608 179.405 190.392C179.525 190.176 179.585 189.928 179.585 189.648V188.268C179.585 187.868 179.497 187.58 179.321 187.404C179.145 187.228 178.849 187.14 178.433 187.14C178.201 187.14 177.949 187.168 177.677 187.224C177.413 187.28 177.133 187.376 176.837 187.512C176.685 187.584 176.549 187.604 176.429 187.572C176.317 187.54 176.229 187.476 176.165 187.38C176.101 187.276 176.069 187.164 176.069 187.044C176.069 186.924 176.101 186.808 176.165 186.696C176.229 186.576 176.337 186.488 176.489 186.432C176.857 186.28 177.209 186.172 177.545 186.108C177.889 186.044 178.201 186.012 178.481 186.012C179.057 186.012 179.529 186.1 179.897 186.276C180.273 186.452 180.553 186.72 180.737 187.08C180.921 187.432 181.013 187.888 181.013 188.448V191.328C181.013 191.576 180.953 191.768 180.833 191.904C180.713 192.032 180.541 192.096 180.317 192.096C180.093 192.096 179.917 192.032 179.789 191.904C179.669 191.768 179.609 191.576 179.609 191.328V190.752H179.705C179.649 191.032 179.537 191.276 179.369 191.484C179.209 191.684 179.005 191.84 178.757 191.952C178.509 192.064 178.225 192.12 177.905 192.12ZM184.54 192.12C183.876 192.12 183.376 191.932 183.04 191.556C182.704 191.172 182.536 190.612 182.536 189.876V184.2C182.536 183.952 182.6 183.764 182.728 183.636C182.856 183.508 183.04 183.444 183.28 183.444C183.52 183.444 183.704 183.508 183.832 183.636C183.968 183.764 184.036 183.952 184.036 184.2V189.804C184.036 190.172 184.112 190.444 184.264 190.62C184.424 190.796 184.648 190.884 184.936 190.884C185 190.884 185.06 190.884 185.116 190.884C185.172 190.876 185.228 190.868 185.284 190.86C185.396 190.844 185.472 190.876 185.512 190.956C185.552 191.028 185.572 191.18 185.572 191.412C185.572 191.612 185.532 191.768 185.452 191.88C185.372 191.992 185.24 192.06 185.056 192.084C184.976 192.092 184.892 192.1 184.804 192.108C184.716 192.116 184.628 192.12 184.54 192.12ZM187.403 192.096C187.163 192.096 186.975 192.032 186.839 191.904C186.711 191.768 186.647 191.576 186.647 191.328V187.26H186.095C185.903 187.26 185.755 187.212 185.651 187.116C185.547 187.012 185.495 186.872 185.495 186.696C185.495 186.512 185.547 186.372 185.651 186.276C185.755 186.18 185.903 186.132 186.095 186.132H187.079L186.647 186.528V186.12C186.647 185.296 186.855 184.68 187.271 184.272C187.687 183.856 188.287 183.612 189.071 183.54L189.479 183.504C189.639 183.488 189.767 183.516 189.863 183.588C189.959 183.652 190.023 183.74 190.055 183.852C190.087 183.956 190.091 184.064 190.067 184.176C190.043 184.288 189.991 184.388 189.911 184.476C189.839 184.556 189.743 184.6 189.623 184.608L189.455 184.62C188.999 184.652 188.667 184.768 188.459 184.968C188.251 185.168 188.147 185.472 188.147 185.88V186.324L187.955 186.132H189.167C189.359 186.132 189.507 186.18 189.611 186.276C189.715 186.372 189.767 186.512 189.767 186.696C189.767 186.872 189.715 187.012 189.611 187.116C189.507 187.212 189.359 187.26 189.167 187.26H188.147V191.328C188.147 191.84 187.899 192.096 187.403 192.096ZM194.84 192C194.576 192 194.372 191.932 194.228 191.796C194.092 191.652 194.024 191.448 194.024 191.184V184.356C194.024 184.092 194.092 183.892 194.228 183.756C194.372 183.612 194.576 183.54 194.84 183.54H197.168C198.584 183.54 199.676 183.904 200.444 184.632C201.22 185.36 201.608 186.404 201.608 187.764C201.608 188.444 201.508 189.048 201.308 189.576C201.116 190.096 200.828 190.536 200.444 190.896C200.068 191.256 199.604 191.532 199.052 191.724C198.508 191.908 197.88 192 197.168 192H194.84ZM195.56 190.728H197.072C197.568 190.728 197.996 190.668 198.356 190.548C198.724 190.42 199.028 190.236 199.268 189.996C199.516 189.748 199.7 189.44 199.82 189.072C199.94 188.696 200 188.26 200 187.764C200 186.772 199.756 186.032 199.268 185.544C198.78 185.056 198.048 184.812 197.072 184.812H195.56V190.728ZM204.952 192.12C204.528 192.12 204.148 192.04 203.812 191.88C203.484 191.712 203.224 191.488 203.032 191.208C202.848 190.928 202.756 190.612 202.756 190.26C202.756 189.828 202.868 189.488 203.092 189.24C203.316 188.984 203.68 188.8 204.184 188.688C204.688 188.576 205.364 188.52 206.212 188.52H206.812V189.384H206.224C205.728 189.384 205.332 189.408 205.036 189.456C204.74 189.504 204.528 189.588 204.4 189.708C204.28 189.82 204.22 189.98 204.22 190.188C204.22 190.452 204.312 190.668 204.496 190.836C204.68 191.004 204.936 191.088 205.264 191.088C205.528 191.088 205.76 191.028 205.96 190.908C206.168 190.78 206.332 190.608 206.452 190.392C206.572 190.176 206.632 189.928 206.632 189.648V188.268C206.632 187.868 206.544 187.58 206.368 187.404C206.192 187.228 205.896 187.14 205.48 187.14C205.248 187.14 204.996 187.168 204.724 187.224C204.46 187.28 204.18 187.376 203.884 187.512C203.732 187.584 203.596 187.604 203.476 187.572C203.364 187.54 203.276 187.476 203.212 187.38C203.148 187.276 203.116 187.164 203.116 187.044C203.116 186.924 203.148 186.808 203.212 186.696C203.276 186.576 203.384 186.488 203.536 186.432C203.904 186.28 204.256 186.172 204.592 186.108C204.936 186.044 205.248 186.012 205.528 186.012C206.104 186.012 206.576 186.1 206.944 186.276C207.32 186.452 207.6 186.72 207.784 187.08C207.968 187.432 208.06 187.888 208.06 188.448V191.328C208.06 191.576 208 191.768 207.88 191.904C207.76 192.032 207.588 192.096 207.364 192.096C207.14 192.096 206.964 192.032 206.836 191.904C206.716 191.768 206.656 191.576 206.656 191.328V190.752H206.752C206.696 191.032 206.584 191.276 206.416 191.484C206.256 191.684 206.052 191.84 205.804 191.952C205.556 192.064 205.272 192.12 204.952 192.12ZM211.012 194.256C210.836 194.256 210.692 194.208 210.58 194.112C210.468 194.024 210.4 193.904 210.376 193.752C210.36 193.6 210.388 193.44 210.46 193.272L211.276 191.46V192.084L209.092 187.032C209.02 186.856 208.996 186.692 209.02 186.54C209.044 186.388 209.116 186.268 209.236 186.18C209.364 186.084 209.536 186.036 209.752 186.036C209.936 186.036 210.084 186.08 210.196 186.168C210.308 186.248 210.408 186.404 210.496 186.636L212.116 190.68H211.756L213.412 186.624C213.5 186.4 213.604 186.248 213.724 186.168C213.844 186.08 214.004 186.036 214.204 186.036C214.38 186.036 214.52 186.084 214.624 186.18C214.728 186.268 214.792 186.388 214.816 186.54C214.84 186.684 214.812 186.844 214.732 187.02L211.816 193.68C211.712 193.904 211.6 194.056 211.48 194.136C211.36 194.216 211.204 194.256 211.012 194.256Z" fill="white"/>
</g>
<path d="M66 225C66 218.373 71.3726 213 78 213H254C260.627 213 266 218.373 266 225V243C266 249.627 260.627 255 254 255H78C71.3726 255 66 249.627 66 243V225Z" fill="#EE6909"/>
<path d="M136.267 238.096C136.035 238.096 135.855 238.032 135.727 237.904C135.607 237.776 135.547 237.592 135.547 237.352V230.212C135.547 229.964 135.607 229.776 135.727 229.648C135.855 229.512 136.019 229.444 136.219 229.444C136.403 229.444 136.539 229.48 136.627 229.552C136.723 229.616 136.835 229.728 136.963 229.888L141.559 235.852H141.247V230.176C141.247 229.944 141.307 229.764 141.427 229.636C141.555 229.508 141.735 229.444 141.967 229.444C142.199 229.444 142.375 229.508 142.495 229.636C142.615 229.764 142.675 229.944 142.675 230.176V237.376C142.675 237.6 142.619 237.776 142.507 237.904C142.395 238.032 142.243 238.096 142.051 238.096C141.867 238.096 141.719 238.06 141.607 237.988C141.503 237.916 141.387 237.8 141.259 237.64L136.675 231.676H136.975V237.352C136.975 237.592 136.915 237.776 136.795 237.904C136.675 238.032 136.499 238.096 136.267 238.096ZM147.056 238.12C146.448 238.12 145.92 237.996 145.472 237.748C145.024 237.5 144.676 237.148 144.428 236.692C144.18 236.228 144.056 235.684 144.056 235.06C144.056 234.588 144.124 234.168 144.26 233.8C144.404 233.424 144.608 233.104 144.872 232.84C145.136 232.568 145.452 232.364 145.82 232.228C146.188 232.084 146.6 232.012 147.056 232.012C147.664 232.012 148.192 232.136 148.64 232.384C149.088 232.632 149.436 232.984 149.684 233.44C149.932 233.896 150.056 234.436 150.056 235.06C150.056 235.532 149.984 235.956 149.84 236.332C149.704 236.708 149.504 237.032 149.24 237.304C148.976 237.568 148.66 237.772 148.292 237.916C147.924 238.052 147.512 238.12 147.056 238.12ZM147.056 236.98C147.352 236.98 147.612 236.908 147.836 236.764C148.06 236.62 148.232 236.408 148.352 236.128C148.48 235.84 148.544 235.484 148.544 235.06C148.544 234.42 148.408 233.944 148.136 233.632C147.864 233.312 147.504 233.152 147.056 233.152C146.76 233.152 146.5 233.224 146.276 233.368C146.052 233.504 145.876 233.716 145.748 234.004C145.628 234.284 145.568 234.636 145.568 235.06C145.568 235.692 145.704 236.172 145.976 236.5C146.248 236.82 146.608 236.98 147.056 236.98ZM153.923 238.12C153.403 238.12 152.967 238.032 152.615 237.856C152.271 237.68 152.015 237.424 151.847 237.088C151.679 236.744 151.595 236.32 151.595 235.816V233.26H150.971C150.779 233.26 150.631 233.212 150.527 233.116C150.423 233.012 150.371 232.872 150.371 232.696C150.371 232.512 150.423 232.372 150.527 232.276C150.631 232.18 150.779 232.132 150.971 232.132H151.595V231.04C151.595 230.792 151.659 230.604 151.787 230.476C151.923 230.348 152.111 230.284 152.351 230.284C152.591 230.284 152.775 230.348 152.903 230.476C153.031 230.604 153.095 230.792 153.095 231.04V232.132H154.367C154.559 232.132 154.707 232.18 154.811 232.276C154.915 232.372 154.967 232.512 154.967 232.696C154.967 232.872 154.915 233.012 154.811 233.116C154.707 233.212 154.559 233.26 154.367 233.26H153.095V235.732C153.095 236.116 153.179 236.404 153.347 236.596C153.515 236.788 153.787 236.884 154.163 236.884C154.299 236.884 154.419 236.872 154.523 236.848C154.627 236.824 154.719 236.808 154.799 236.8C154.895 236.792 154.975 236.824 155.039 236.896C155.103 236.96 155.135 237.096 155.135 237.304C155.135 237.464 155.107 237.608 155.051 237.736C155.003 237.856 154.911 237.94 154.775 237.988C154.671 238.02 154.535 238.048 154.367 238.072C154.199 238.104 154.051 238.12 153.923 238.12ZM156.334 235.384C156.158 235.384 156.01 235.328 155.89 235.216C155.778 235.096 155.722 234.952 155.722 234.784C155.722 234.608 155.778 234.464 155.89 234.352C156.01 234.24 156.158 234.184 156.334 234.184H158.89C159.058 234.184 159.198 234.24 159.31 234.352C159.43 234.464 159.49 234.608 159.49 234.784C159.49 234.952 159.43 235.096 159.31 235.216C159.198 235.328 159.058 235.384 158.89 235.384H156.334ZM161.945 238C161.681 238 161.477 237.932 161.333 237.796C161.197 237.652 161.129 237.448 161.129 237.184V230.356C161.129 230.092 161.197 229.892 161.333 229.756C161.477 229.612 161.681 229.54 161.945 229.54H164.273C165.689 229.54 166.781 229.904 167.549 230.632C168.325 231.36 168.713 232.404 168.713 233.764C168.713 234.444 168.613 235.048 168.413 235.576C168.221 236.096 167.933 236.536 167.549 236.896C167.173 237.256 166.709 237.532 166.157 237.724C165.613 237.908 164.985 238 164.273 238H161.945ZM162.665 236.728H164.177C164.673 236.728 165.101 236.668 165.461 236.548C165.829 236.42 166.133 236.236 166.373 235.996C166.621 235.748 166.805 235.44 166.925 235.072C167.045 234.696 167.105 234.26 167.105 233.764C167.105 232.772 166.861 232.032 166.373 231.544C165.885 231.056 165.153 230.812 164.177 230.812H162.665V236.728ZM173.018 238.12C172.354 238.12 171.782 237.996 171.302 237.748C170.822 237.5 170.45 237.148 170.186 236.692C169.93 236.236 169.802 235.696 169.802 235.072C169.802 234.464 169.926 233.932 170.174 233.476C170.43 233.02 170.778 232.664 171.218 232.408C171.666 232.144 172.174 232.012 172.742 232.012C173.158 232.012 173.53 232.08 173.858 232.216C174.194 232.352 174.478 232.548 174.71 232.804C174.95 233.06 175.13 233.372 175.25 233.74C175.378 234.1 175.442 234.508 175.442 234.964C175.442 235.108 175.39 235.22 175.286 235.3C175.19 235.372 175.05 235.408 174.866 235.408H171.014V234.544H174.386L174.194 234.724C174.194 234.356 174.138 234.048 174.026 233.8C173.922 233.552 173.766 233.364 173.558 233.236C173.358 233.1 173.106 233.032 172.802 233.032C172.466 233.032 172.178 233.112 171.938 233.272C171.706 233.424 171.526 233.644 171.398 233.932C171.278 234.212 171.218 234.548 171.218 234.94V235.024C171.218 235.68 171.37 236.172 171.674 236.5C171.986 236.82 172.442 236.98 173.042 236.98C173.25 236.98 173.482 236.956 173.738 236.908C174.002 236.852 174.25 236.76 174.482 236.632C174.65 236.536 174.798 236.496 174.926 236.512C175.054 236.52 175.154 236.564 175.226 236.644C175.306 236.724 175.354 236.824 175.37 236.944C175.386 237.056 175.362 237.172 175.298 237.292C175.242 237.412 175.142 237.516 174.998 237.604C174.718 237.78 174.394 237.912 174.026 238C173.666 238.08 173.33 238.12 173.018 238.12ZM177.758 238.096C177.518 238.096 177.33 238.032 177.194 237.904C177.066 237.768 177.002 237.576 177.002 237.328V233.26H176.45C176.258 233.26 176.11 233.212 176.006 233.116C175.902 233.012 175.85 232.872 175.85 232.696C175.85 232.512 175.902 232.372 176.006 232.276C176.11 232.18 176.258 232.132 176.45 232.132H177.434L177.002 232.528V232.12C177.002 231.312 177.206 230.7 177.614 230.284C178.022 229.868 178.614 229.62 179.39 229.54L179.75 229.504C179.934 229.488 180.078 229.512 180.182 229.576C180.294 229.64 180.366 229.728 180.398 229.84C180.438 229.944 180.446 230.056 180.422 230.176C180.398 230.288 180.35 230.388 180.278 230.476C180.206 230.556 180.114 230.6 180.002 230.608L179.714 230.632C179.29 230.664 178.982 230.78 178.79 230.98C178.598 231.18 178.502 231.48 178.502 231.88V232.324L178.31 232.132H181.634C181.874 232.132 182.058 232.204 182.186 232.348C182.314 232.484 182.378 232.68 182.378 232.936V237.268C182.378 237.524 182.314 237.724 182.186 237.868C182.066 238.012 181.882 238.084 181.634 238.084C181.394 238.084 181.206 238.012 181.07 237.868C180.942 237.724 180.878 237.524 180.878 237.268V233.26H178.502V237.328C178.502 237.84 178.254 238.096 177.758 238.096ZM181.658 230.932C181.386 230.932 181.174 230.864 181.022 230.728C180.878 230.584 180.806 230.388 180.806 230.14C180.806 229.884 180.878 229.688 181.022 229.552C181.174 229.416 181.386 229.348 181.658 229.348C181.938 229.348 182.15 229.416 182.294 229.552C182.446 229.688 182.522 229.884 182.522 230.14C182.522 230.388 182.446 230.584 182.294 230.728C182.15 230.864 181.938 230.932 181.658 230.932ZM184.686 238.096C184.446 238.096 184.262 238.032 184.134 237.904C184.006 237.768 183.942 237.576 183.942 237.328V232.792C183.942 232.544 184.006 232.356 184.134 232.228C184.262 232.1 184.442 232.036 184.674 232.036C184.906 232.036 185.086 232.1 185.214 232.228C185.342 232.356 185.406 232.544 185.406 232.792V233.608L185.274 233.308C185.45 232.884 185.722 232.564 186.09 232.348C186.466 232.124 186.89 232.012 187.362 232.012C187.834 232.012 188.222 232.1 188.526 232.276C188.83 232.452 189.058 232.72 189.21 233.08C189.362 233.432 189.438 233.88 189.438 234.424V237.328C189.438 237.576 189.374 237.768 189.246 237.904C189.118 238.032 188.934 238.096 188.694 238.096C188.454 238.096 188.266 238.032 188.13 237.904C188.002 237.768 187.938 237.576 187.938 237.328V234.496C187.938 234.04 187.85 233.708 187.674 233.5C187.506 233.292 187.242 233.188 186.882 233.188C186.442 233.188 186.09 233.328 185.826 233.608C185.57 233.88 185.442 234.244 185.442 234.7V237.328C185.442 237.84 185.19 238.096 184.686 238.096ZM193.218 238.12C192.706 238.12 192.254 237.996 191.862 237.748C191.478 237.5 191.178 237.148 190.962 236.692C190.746 236.228 190.638 235.684 190.638 235.06C190.638 234.428 190.746 233.888 190.962 233.44C191.178 232.984 191.478 232.632 191.862 232.384C192.254 232.136 192.706 232.012 193.218 232.012C193.706 232.012 194.13 232.132 194.49 232.372C194.858 232.612 195.106 232.928 195.234 233.32H195.102V230.2C195.102 229.952 195.166 229.764 195.294 229.636C195.422 229.508 195.606 229.444 195.846 229.444C196.086 229.444 196.27 229.508 196.398 229.636C196.534 229.764 196.602 229.952 196.602 230.2V237.328C196.602 237.576 196.538 237.768 196.41 237.904C196.282 238.032 196.098 238.096 195.858 238.096C195.618 238.096 195.434 238.032 195.306 237.904C195.178 237.768 195.114 237.576 195.114 237.328V236.392L195.246 236.752C195.126 237.168 194.882 237.5 194.514 237.748C194.146 237.996 193.714 238.12 193.218 238.12ZM193.638 236.98C193.934 236.98 194.194 236.908 194.418 236.764C194.642 236.62 194.814 236.408 194.934 236.128C195.062 235.84 195.126 235.484 195.126 235.06C195.126 234.42 194.99 233.944 194.718 233.632C194.446 233.312 194.086 233.152 193.638 233.152C193.342 233.152 193.082 233.224 192.858 233.368C192.634 233.504 192.458 233.716 192.33 234.004C192.21 234.284 192.15 234.636 192.15 235.06C192.15 235.692 192.286 236.172 192.558 236.5C192.83 236.82 193.19 236.98 193.638 236.98Z" fill="white"/>
</g>
<path d="M163.457 53.0665C164.632 51.1877 167.368 51.1877 168.543 53.0665L174.387 62.4092C175.637 64.4073 174.2 67 171.843 67H160.157C157.8 67 156.363 64.4073 157.613 62.4092L163.457 53.0665Z" fill="white"/>
</g>
<path d="M66 12C66 5.37258 71.3726 0 78 0H254C260.627 0 266 5.37258 266 12V30C266 36.6274 260.627 42 254 42H78C71.3726 42 66 36.6274 66 30V12Z" fill="#76BC21"/>
<path d="M121.074 25.096C120.858 25.096 120.682 25.044 120.546 24.94C120.418 24.836 120.314 24.672 120.234 24.448L117.726 17.356C117.638 17.1 117.654 16.884 117.774 16.708C117.902 16.532 118.114 16.444 118.41 16.444C118.626 16.444 118.794 16.496 118.914 16.6C119.034 16.696 119.13 16.852 119.202 17.068L121.362 23.476H120.882L123.138 17.08C123.218 16.864 123.318 16.704 123.438 16.6C123.558 16.496 123.714 16.444 123.906 16.444C124.098 16.444 124.25 16.496 124.362 16.6C124.474 16.704 124.57 16.868 124.65 17.092L126.834 23.476H126.414L128.61 17.068C128.682 16.86 128.778 16.704 128.898 16.6C129.018 16.496 129.182 16.444 129.39 16.444C129.646 16.444 129.834 16.532 129.954 16.708C130.074 16.884 130.09 17.1 130.002 17.356L127.47 24.46C127.39 24.676 127.286 24.836 127.158 24.94C127.03 25.044 126.858 25.096 126.642 25.096C126.426 25.096 126.254 25.044 126.126 24.94C125.998 24.836 125.894 24.672 125.814 24.448L123.726 18.496H124.002L121.89 24.46C121.81 24.676 121.706 24.836 121.578 24.94C121.458 25.044 121.29 25.096 121.074 25.096ZM133.239 25.12C132.631 25.12 132.103 24.996 131.655 24.748C131.207 24.5 130.859 24.148 130.611 23.692C130.363 23.228 130.239 22.684 130.239 22.06C130.239 21.588 130.307 21.168 130.443 20.8C130.587 20.424 130.791 20.104 131.055 19.84C131.319 19.568 131.635 19.364 132.003 19.228C132.371 19.084 132.783 19.012 133.239 19.012C133.847 19.012 134.375 19.136 134.823 19.384C135.271 19.632 135.619 19.984 135.867 20.44C136.115 20.896 136.239 21.436 136.239 22.06C136.239 22.532 136.167 22.956 136.023 23.332C135.887 23.708 135.687 24.032 135.423 24.304C135.159 24.568 134.843 24.772 134.475 24.916C134.107 25.052 133.695 25.12 133.239 25.12ZM133.239 23.98C133.535 23.98 133.795 23.908 134.019 23.764C134.243 23.62 134.415 23.408 134.535 23.128C134.663 22.84 134.727 22.484 134.727 22.06C134.727 21.42 134.591 20.944 134.319 20.632C134.047 20.312 133.687 20.152 133.239 20.152C132.943 20.152 132.683 20.224 132.459 20.368C132.235 20.504 132.059 20.716 131.931 21.004C131.811 21.284 131.751 21.636 131.751 22.06C131.751 22.692 131.887 23.172 132.159 23.5C132.431 23.82 132.791 23.98 133.239 23.98ZM138.245 25.096C137.997 25.096 137.805 25.032 137.669 24.904C137.541 24.768 137.477 24.576 137.477 24.328V19.792C137.477 19.544 137.541 19.356 137.669 19.228C137.797 19.1 137.977 19.036 138.209 19.036C138.441 19.036 138.621 19.1 138.749 19.228C138.877 19.356 138.941 19.544 138.941 19.792V20.548H138.821C138.933 20.068 139.153 19.704 139.481 19.456C139.809 19.208 140.245 19.06 140.789 19.012C140.957 18.996 141.089 19.04 141.185 19.144C141.289 19.24 141.349 19.392 141.365 19.6C141.381 19.8 141.333 19.964 141.221 20.092C141.117 20.212 140.957 20.284 140.741 20.308L140.477 20.332C139.989 20.38 139.621 20.532 139.373 20.788C139.125 21.036 139.001 21.388 139.001 21.844V24.328C139.001 24.576 138.937 24.768 138.809 24.904C138.681 25.032 138.493 25.096 138.245 25.096ZM142.92 25.096C142.68 25.096 142.496 25.032 142.368 24.904C142.24 24.768 142.176 24.576 142.176 24.328V17.2C142.176 16.952 142.24 16.764 142.368 16.636C142.496 16.508 142.68 16.444 142.92 16.444C143.16 16.444 143.344 16.508 143.472 16.636C143.608 16.764 143.676 16.952 143.676 17.2V21.628H143.7L145.68 19.54C145.84 19.38 145.98 19.256 146.1 19.168C146.22 19.08 146.384 19.036 146.592 19.036C146.8 19.036 146.956 19.092 147.06 19.204C147.172 19.308 147.228 19.436 147.228 19.588C147.228 19.74 147.156 19.892 147.012 20.044L144.924 22.252V21.628L147.216 24.1C147.36 24.252 147.424 24.408 147.408 24.568C147.4 24.72 147.336 24.848 147.216 24.952C147.096 25.048 146.944 25.096 146.76 25.096C146.536 25.096 146.356 25.052 146.22 24.964C146.092 24.876 145.948 24.744 145.788 24.568L143.7 22.384H143.676V24.328C143.676 24.84 143.424 25.096 142.92 25.096ZM149.354 25.084C149.114 25.084 148.93 25.012 148.802 24.868C148.674 24.724 148.61 24.524 148.61 24.268V19.864C148.61 19.6 148.674 19.4 148.802 19.264C148.93 19.12 149.114 19.048 149.354 19.048C149.594 19.048 149.778 19.12 149.906 19.264C150.042 19.4 150.11 19.6 150.11 19.864V24.268C150.11 24.524 150.046 24.724 149.918 24.868C149.79 25.012 149.602 25.084 149.354 25.084ZM149.354 17.932C149.074 17.932 148.854 17.864 148.694 17.728C148.542 17.584 148.466 17.388 148.466 17.14C148.466 16.884 148.542 16.688 148.694 16.552C148.854 16.416 149.074 16.348 149.354 16.348C149.642 16.348 149.862 16.416 150.014 16.552C150.166 16.688 150.242 16.884 150.242 17.14C150.242 17.388 150.166 17.584 150.014 17.728C149.862 17.864 149.642 17.932 149.354 17.932ZM152.413 25.096C152.173 25.096 151.989 25.032 151.861 24.904C151.733 24.768 151.669 24.576 151.669 24.328V19.792C151.669 19.544 151.733 19.356 151.861 19.228C151.989 19.1 152.169 19.036 152.401 19.036C152.633 19.036 152.813 19.1 152.941 19.228C153.069 19.356 153.133 19.544 153.133 19.792V20.608L153.001 20.308C153.177 19.884 153.449 19.564 153.817 19.348C154.193 19.124 154.617 19.012 155.089 19.012C155.561 19.012 155.949 19.1 156.253 19.276C156.557 19.452 156.785 19.72 156.937 20.08C157.089 20.432 157.165 20.88 157.165 21.424V24.328C157.165 24.576 157.101 24.768 156.973 24.904C156.845 25.032 156.661 25.096 156.421 25.096C156.181 25.096 155.993 25.032 155.857 24.904C155.729 24.768 155.665 24.576 155.665 24.328V21.496C155.665 21.04 155.577 20.708 155.401 20.5C155.233 20.292 154.969 20.188 154.609 20.188C154.169 20.188 153.817 20.328 153.553 20.608C153.297 20.88 153.169 21.244 153.169 21.7V24.328C153.169 24.84 152.917 25.096 152.413 25.096ZM161.424 27.28C160.992 27.28 160.572 27.24 160.164 27.16C159.764 27.08 159.4 26.956 159.072 26.788C158.92 26.708 158.816 26.612 158.76 26.5C158.712 26.388 158.696 26.272 158.712 26.152C158.736 26.04 158.784 25.94 158.856 25.852C158.936 25.764 159.032 25.704 159.144 25.672C159.256 25.64 159.372 25.656 159.492 25.72C159.844 25.896 160.176 26.008 160.488 26.056C160.808 26.112 161.08 26.14 161.304 26.14C161.84 26.14 162.24 26.008 162.504 25.744C162.776 25.488 162.912 25.104 162.912 24.592V23.512H163.02C162.9 23.92 162.648 24.248 162.264 24.496C161.888 24.736 161.46 24.856 160.98 24.856C160.452 24.856 159.992 24.736 159.6 24.496C159.208 24.248 158.904 23.904 158.688 23.464C158.472 23.024 158.364 22.512 158.364 21.928C158.364 21.488 158.424 21.092 158.544 20.74C158.672 20.38 158.848 20.072 159.072 19.816C159.304 19.56 159.58 19.364 159.9 19.228C160.228 19.084 160.588 19.012 160.98 19.012C161.476 19.012 161.908 19.136 162.276 19.384C162.652 19.624 162.896 19.944 163.008 20.344L162.888 20.644V19.792C162.888 19.544 162.952 19.356 163.08 19.228C163.216 19.1 163.4 19.036 163.632 19.036C163.872 19.036 164.056 19.1 164.184 19.228C164.312 19.356 164.376 19.544 164.376 19.792V24.412C164.376 25.364 164.124 26.08 163.62 26.56C163.116 27.04 162.384 27.28 161.424 27.28ZM161.388 23.716C161.7 23.716 161.968 23.644 162.192 23.5C162.416 23.356 162.588 23.152 162.708 22.888C162.836 22.616 162.9 22.296 162.9 21.928C162.9 21.376 162.764 20.944 162.492 20.632C162.22 20.312 161.852 20.152 161.388 20.152C161.076 20.152 160.808 20.224 160.584 20.368C160.36 20.512 160.184 20.716 160.056 20.98C159.936 21.244 159.876 21.56 159.876 21.928C159.876 22.48 160.012 22.916 160.284 23.236C160.556 23.556 160.924 23.716 161.388 23.716ZM170.124 25.096C169.876 25.096 169.68 25.028 169.536 24.892C169.4 24.748 169.332 24.544 169.332 24.28V17.356C169.332 17.092 169.4 16.892 169.536 16.756C169.68 16.612 169.884 16.54 170.148 16.54H174.336C174.544 16.54 174.7 16.592 174.804 16.696C174.908 16.8 174.96 16.948 174.96 17.14C174.96 17.34 174.908 17.496 174.804 17.608C174.7 17.712 174.544 17.764 174.336 17.764H170.868V20.152H174.084C174.284 20.152 174.436 20.204 174.54 20.308C174.652 20.412 174.708 20.56 174.708 20.752C174.708 20.952 174.652 21.108 174.54 21.22C174.436 21.324 174.284 21.376 174.084 21.376H170.868V24.28C170.868 24.824 170.62 25.096 170.124 25.096ZM177.898 25.12C177.41 25.12 177.006 25.032 176.686 24.856C176.366 24.672 176.126 24.4 175.966 24.04C175.814 23.68 175.738 23.232 175.738 22.696V19.792C175.738 19.536 175.802 19.348 175.93 19.228C176.058 19.1 176.242 19.036 176.482 19.036C176.722 19.036 176.906 19.1 177.034 19.228C177.17 19.348 177.238 19.536 177.238 19.792V22.72C177.238 23.136 177.322 23.444 177.49 23.644C177.658 23.844 177.926 23.944 178.294 23.944C178.694 23.944 179.022 23.808 179.278 23.536C179.534 23.256 179.662 22.888 179.662 22.432V19.792C179.662 19.536 179.726 19.348 179.854 19.228C179.982 19.1 180.166 19.036 180.406 19.036C180.646 19.036 180.83 19.1 180.958 19.228C181.094 19.348 181.162 19.536 181.162 19.792V24.328C181.162 24.84 180.918 25.096 180.43 25.096C180.198 25.096 180.018 25.032 179.89 24.904C179.762 24.768 179.698 24.576 179.698 24.328V23.416L179.866 23.776C179.698 24.208 179.442 24.54 179.098 24.772C178.762 25.004 178.362 25.12 177.898 25.12ZM184.727 25.12C184.063 25.12 183.563 24.932 183.227 24.556C182.891 24.172 182.723 23.612 182.723 22.876V17.2C182.723 16.952 182.787 16.764 182.915 16.636C183.043 16.508 183.227 16.444 183.467 16.444C183.707 16.444 183.891 16.508 184.019 16.636C184.155 16.764 184.223 16.952 184.223 17.2V22.804C184.223 23.172 184.299 23.444 184.451 23.62C184.611 23.796 184.835 23.884 185.123 23.884C185.187 23.884 185.247 23.884 185.303 23.884C185.359 23.876 185.415 23.868 185.471 23.86C185.583 23.844 185.659 23.876 185.699 23.956C185.739 24.028 185.759 24.18 185.759 24.412C185.759 24.612 185.719 24.768 185.639 24.88C185.559 24.992 185.427 25.06 185.243 25.084C185.163 25.092 185.079 25.1 184.991 25.108C184.903 25.116 184.815 25.12 184.727 25.12ZM188.559 25.12C187.895 25.12 187.395 24.932 187.059 24.556C186.723 24.172 186.555 23.612 186.555 22.876V17.2C186.555 16.952 186.619 16.764 186.747 16.636C186.875 16.508 187.059 16.444 187.299 16.444C187.539 16.444 187.723 16.508 187.851 16.636C187.987 16.764 188.055 16.952 188.055 17.2V22.804C188.055 23.172 188.131 23.444 188.283 23.62C188.443 23.796 188.667 23.884 188.955 23.884C189.019 23.884 189.079 23.884 189.135 23.884C189.191 23.876 189.247 23.868 189.303 23.86C189.415 23.844 189.491 23.876 189.531 23.956C189.571 24.028 189.591 24.18 189.591 24.412C189.591 24.612 189.551 24.768 189.471 24.88C189.391 24.992 189.259 25.06 189.075 25.084C188.995 25.092 188.911 25.1 188.823 25.108C188.735 25.116 188.647 25.12 188.559 25.12ZM194.605 25C194.341 25 194.137 24.932 193.993 24.796C193.857 24.652 193.789 24.448 193.789 24.184V17.356C193.789 17.092 193.857 16.892 193.993 16.756C194.137 16.612 194.341 16.54 194.605 16.54H196.933C198.349 16.54 199.441 16.904 200.209 17.632C200.985 18.36 201.373 19.404 201.373 20.764C201.373 21.444 201.273 22.048 201.073 22.576C200.881 23.096 200.593 23.536 200.209 23.896C199.833 24.256 199.369 24.532 198.817 24.724C198.273 24.908 197.645 25 196.933 25H194.605ZM195.325 23.728H196.837C197.333 23.728 197.761 23.668 198.121 23.548C198.489 23.42 198.793 23.236 199.033 22.996C199.281 22.748 199.465 22.44 199.585 22.072C199.705 21.696 199.765 21.26 199.765 20.764C199.765 19.772 199.521 19.032 199.033 18.544C198.545 18.056 197.813 17.812 196.837 17.812H195.325V23.728ZM204.718 25.12C204.294 25.12 203.914 25.04 203.578 24.88C203.25 24.712 202.99 24.488 202.798 24.208C202.614 23.928 202.522 23.612 202.522 23.26C202.522 22.828 202.634 22.488 202.858 22.24C203.082 21.984 203.446 21.8 203.95 21.688C204.454 21.576 205.13 21.52 205.978 21.52H206.578V22.384H205.99C205.494 22.384 205.098 22.408 204.802 22.456C204.506 22.504 204.294 22.588 204.166 22.708C204.046 22.82 203.986 22.98 203.986 23.188C203.986 23.452 204.078 23.668 204.262 23.836C204.446 24.004 204.702 24.088 205.03 24.088C205.294 24.088 205.526 24.028 205.726 23.908C205.934 23.78 206.098 23.608 206.218 23.392C206.338 23.176 206.398 22.928 206.398 22.648V21.268C206.398 20.868 206.31 20.58 206.134 20.404C205.958 20.228 205.662 20.14 205.246 20.14C205.014 20.14 204.762 20.168 204.49 20.224C204.226 20.28 203.946 20.376 203.65 20.512C203.498 20.584 203.362 20.604 203.242 20.572C203.13 20.54 203.042 20.476 202.978 20.38C202.914 20.276 202.882 20.164 202.882 20.044C202.882 19.924 202.914 19.808 202.978 19.696C203.042 19.576 203.15 19.488 203.302 19.432C203.67 19.28 204.022 19.172 204.358 19.108C204.702 19.044 205.014 19.012 205.294 19.012C205.87 19.012 206.342 19.1 206.71 19.276C207.086 19.452 207.366 19.72 207.55 20.08C207.734 20.432 207.826 20.888 207.826 21.448V24.328C207.826 24.576 207.766 24.768 207.646 24.904C207.526 25.032 207.354 25.096 207.13 25.096C206.906 25.096 206.73 25.032 206.602 24.904C206.482 24.768 206.422 24.576 206.422 24.328V23.752H206.518C206.462 24.032 206.35 24.276 206.182 24.484C206.022 24.684 205.818 24.84 205.57 24.952C205.322 25.064 205.038 25.12 204.718 25.12ZM210.778 27.256C210.602 27.256 210.458 27.208 210.346 27.112C210.234 27.024 210.166 26.904 210.142 26.752C210.126 26.6 210.154 26.44 210.226 26.272L211.042 24.46V25.084L208.858 20.032C208.786 19.856 208.762 19.692 208.786 19.54C208.81 19.388 208.882 19.268 209.002 19.18C209.13 19.084 209.302 19.036 209.518 19.036C209.702 19.036 209.85 19.08 209.962 19.168C210.074 19.248 210.174 19.404 210.262 19.636L211.882 23.68H211.522L213.178 19.624C213.266 19.4 213.37 19.248 213.49 19.168C213.61 19.08 213.77 19.036 213.97 19.036C214.146 19.036 214.286 19.084 214.39 19.18C214.494 19.268 214.558 19.388 214.582 19.54C214.606 19.684 214.578 19.844 214.498 20.02L211.582 26.68C211.478 26.904 211.366 27.056 211.246 27.136C211.126 27.216 210.97 27.256 210.778 27.256Z" fill="white"/>
<defs>
<filter id="filter0_d_998_3406" x="0" y="5.65723" width="332" height="323.343" filterUnits="userSpaceOnUse" color-interpolation-filters="sRGB">
<feFlood flood-opacity="0" result="BackgroundImageFix"/>
<feColorMatrix in="SourceAlpha" type="matrix" values="0 0 0 0 0 0 0 0 0 0 0 0 0 0 0 0 0 0 127 0" result="hardAlpha"/>
<feOffset dy="4"/>
<feGaussianBlur stdDeviation="25"/>
<feComposite in2="hardAlpha" operator="out"/>
<feColorMatrix type="matrix" values="0 0 0 0 0 0 0 0 0 0 0 0 0 0 0 0 0 0 0.05 0"/>
<feBlend mode="normal" in2="BackgroundImageFix" result="effect1_dropShadow_998_3406"/>
<feBlend mode="normal" in="SourceGraphic" in2="effect1_dropShadow_998_3406" result="shape"/>
</filter>
<filter id="filter1_d_998_3406" x="46" y="59" width="240" height="224" filterUnits="userSpaceOnUse" color-interpolation-filters="sRGB">
<feFlood flood-opacity="0" result="BackgroundImageFix"/>
<feColorMatrix in="SourceAlpha" type="matrix" values="0 0 0 0 0 0 0 0 0 0 0 0 0 0 0 0 0 0 127 0" result="hardAlpha"/>
<feOffset dy="4"/>
<feGaussianBlur stdDeviation="2"/>
<feComposite in2="hardAlpha" operator="out"/>
<feColorMatrix type="matrix" values="0 0 0 0 0 0 0 0 0 0 0 0 0 0 0 0 0 0 0.05 0"/>
<feBlend mode="normal" in2="BackgroundImageFix" result="effect1_dropShadow_998_3406"/>
<feBlend mode="normal" in="SourceGraphic" in2="effect1_dropShadow_998_3406" result="shape"/>
</filter>
<filter id="filter2_d_998_3406" x="56" y="115" width="220" height="62" filterUnits="userSpaceOnUse" color-interpolation-filters="sRGB">
<feFlood flood-opacity="0" result="BackgroundImageFix"/>
<feColorMatrix in="SourceAlpha" type="matrix" values="0 0 0 0 0 0 0 0 0 0 0 0 0 0 0 0 0 0 127 0" result="hardAlpha"/>
<feOffset dy="4"/>
<feGaussianBlur stdDeviation="5"/>
<feComposite in2="hardAlpha" operator="out"/>
<feColorMatrix type="matrix" values="0 0 0 0 0 0 0 0 0 0 0 0 0 0 0 0 0 0 0.25 0"/>
<feBlend mode="normal" in2="BackgroundImageFix" result="effect1_dropShadow_998_3406"/>
<feBlend mode="normal" in="SourceGraphic" in2="effect1_dropShadow_998_3406" result="shape"/>
</filter>
<filter id="filter3_i_998_3406" x="66" y="167" width="200" height="44" filterUnits="userSpaceOnUse" color-interpolation-filters="sRGB">
<feFlood flood-opacity="0" result="BackgroundImageFix"/>
<feBlend mode="normal" in="SourceGraphic" in2="BackgroundImageFix" result="shape"/>
<feColorMatrix in="SourceAlpha" type="matrix" values="0 0 0 0 0 0 0 0 0 0 0 0 0 0 0 0 0 0 127 0" result="hardAlpha"/>
<feOffset dy="2"/>
<feGaussianBlur stdDeviation="2"/>
<feComposite in2="hardAlpha" operator="arithmetic" k2="-1" k3="1"/>
<feColorMatrix type="matrix" values="0 0 0 0 0 0 0 0 0 0 0 0 0 0 0 0 0 0 0.05 0"/>
<feBlend mode="normal" in2="shape" result="effect1_innerShadow_998_3406"/>
</filter>
</defs>
</svg>
