<svg width="321" height="287" viewBox="0 0 321 287" fill="none" xmlns="http://www.w3.org/2000/svg">
<g filter="url(#filter0_d_1268_16632)">
<g filter="url(#filter1_d_1268_16632)">
<rect x="50" y="63" width="221" height="170" rx="18" fill="#E8EAEF"/>
<rect x="50.5" y="63.5" width="220" height="169" rx="17.5" stroke="#64728C" stroke-opacity="0.21"/>
<rect x="50" y="63" width="221" height="166" rx="18" fill="white"/>
<path d="M66 91C66 84.3726 71.3726 79 78 79H243C249.627 79 255 84.3726 255 91V109C255 115.627 249.627 121 243 121H78C71.3726 121 66 115.627 66 109V91Z" fill="#76BC21"/>
<path d="M94.0002 106.667C90.3335 106.667 87.3335 103.667 87.3335 100C87.3335 96.8667 89.6002 94.0667 92.6668 93.4667C92.9335 93.4 93.2668 93.5334 93.4002 93.8C93.5335 94.0667 93.4668 94.4 93.2668 94.6C92.4668 95.4 92.0002 96.5334 92.0002 97.6667C92.0002 100.067 93.9335 102 96.3335 102C97.4668 102 98.6002 101.533 99.4002 100.733C99.6002 100.533 99.9335 100.467 100.2 100.6C100.467 100.733 100.6 101 100.533 101.333C99.9335 104.4 97.1335 106.667 94.0002 106.667ZM91.0668 95.5334C89.6002 96.5334 88.6668 98.1334 88.6668 100C88.6668 102.933 91.0668 105.333 94.0002 105.333C95.8668 105.333 97.4668 104.4 98.4668 102.933C97.8002 103.2 97.0668 103.333 96.3335 103.333C93.2002 103.333 90.6668 100.8 90.6668 97.6667C90.6668 96.9334 90.8002 96.2 91.0668 95.5334Z" fill="white"/>
<path d="M111.644 104.096C111.412 104.096 111.232 104.032 111.104 103.904C110.984 103.776 110.924 103.592 110.924 103.352V96.212C110.924 95.964 110.984 95.776 111.104 95.648C111.232 95.512 111.396 95.444 111.596 95.444C111.78 95.444 111.916 95.48 112.004 95.552C112.1 95.616 112.212 95.728 112.34 95.888L116.936 101.852H116.624V96.176C116.624 95.944 116.684 95.764 116.804 95.636C116.932 95.508 117.112 95.444 117.344 95.444C117.576 95.444 117.752 95.508 117.872 95.636C117.992 95.764 118.052 95.944 118.052 96.176V103.376C118.052 103.6 117.996 103.776 117.884 103.904C117.772 104.032 117.62 104.096 117.428 104.096C117.244 104.096 117.096 104.06 116.984 103.988C116.88 103.916 116.764 103.8 116.636 103.64L112.052 97.676H112.352V103.352C112.352 103.592 112.292 103.776 112.172 103.904C112.052 104.032 111.876 104.096 111.644 104.096ZM120.501 104.084C120.261 104.084 120.077 104.012 119.949 103.868C119.821 103.724 119.757 103.524 119.757 103.268V98.864C119.757 98.6 119.821 98.4 119.949 98.264C120.077 98.12 120.261 98.048 120.501 98.048C120.741 98.048 120.925 98.12 121.053 98.264C121.189 98.4 121.257 98.6 121.257 98.864V103.268C121.257 103.524 121.193 103.724 121.065 103.868C120.937 104.012 120.749 104.084 120.501 104.084ZM120.501 96.932C120.221 96.932 120.001 96.864 119.841 96.728C119.689 96.584 119.613 96.388 119.613 96.14C119.613 95.884 119.689 95.688 119.841 95.552C120.001 95.416 120.221 95.348 120.501 95.348C120.789 95.348 121.009 95.416 121.161 95.552C121.313 95.688 121.389 95.884 121.389 96.14C121.389 96.388 121.313 96.584 121.161 96.728C121.009 96.864 120.789 96.932 120.501 96.932ZM125.551 106.28C125.119 106.28 124.699 106.24 124.291 106.16C123.891 106.08 123.527 105.956 123.199 105.788C123.047 105.708 122.943 105.612 122.887 105.5C122.839 105.388 122.823 105.272 122.839 105.152C122.863 105.04 122.911 104.94 122.983 104.852C123.063 104.764 123.159 104.704 123.271 104.672C123.383 104.64 123.499 104.656 123.619 104.72C123.971 104.896 124.303 105.008 124.615 105.056C124.935 105.112 125.207 105.14 125.431 105.14C125.967 105.14 126.367 105.008 126.631 104.744C126.903 104.488 127.039 104.104 127.039 103.592V102.512H127.147C127.027 102.92 126.775 103.248 126.391 103.496C126.015 103.736 125.587 103.856 125.107 103.856C124.579 103.856 124.119 103.736 123.727 103.496C123.335 103.248 123.031 102.904 122.815 102.464C122.599 102.024 122.491 101.512 122.491 100.928C122.491 100.488 122.551 100.092 122.671 99.74C122.799 99.38 122.975 99.072 123.199 98.816C123.431 98.56 123.707 98.364 124.027 98.228C124.355 98.084 124.715 98.012 125.107 98.012C125.603 98.012 126.035 98.136 126.403 98.384C126.779 98.624 127.023 98.944 127.135 99.344L127.015 99.644V98.792C127.015 98.544 127.079 98.356 127.207 98.228C127.343 98.1 127.527 98.036 127.759 98.036C127.999 98.036 128.183 98.1 128.311 98.228C128.439 98.356 128.503 98.544 128.503 98.792V103.412C128.503 104.364 128.251 105.08 127.747 105.56C127.243 106.04 126.511 106.28 125.551 106.28ZM125.515 102.716C125.827 102.716 126.095 102.644 126.319 102.5C126.543 102.356 126.715 102.152 126.835 101.888C126.963 101.616 127.027 101.296 127.027 100.928C127.027 100.376 126.891 99.944 126.619 99.632C126.347 99.312 125.979 99.152 125.515 99.152C125.203 99.152 124.935 99.224 124.711 99.368C124.487 99.512 124.311 99.716 124.183 99.98C124.063 100.244 124.003 100.56 124.003 100.928C124.003 101.48 124.139 101.916 124.411 102.236C124.683 102.556 125.051 102.716 125.515 102.716ZM130.801 104.096C130.561 104.096 130.377 104.032 130.249 103.904C130.121 103.768 130.057 103.576 130.057 103.328V96.2C130.057 95.952 130.121 95.764 130.249 95.636C130.377 95.508 130.561 95.444 130.801 95.444C131.041 95.444 131.225 95.508 131.353 95.636C131.489 95.764 131.557 95.952 131.557 96.2V99.308H131.389C131.565 98.884 131.837 98.564 132.205 98.348C132.581 98.124 133.005 98.012 133.477 98.012C133.949 98.012 134.337 98.1 134.641 98.276C134.945 98.452 135.173 98.72 135.325 99.08C135.477 99.432 135.553 99.88 135.553 100.424V103.328C135.553 103.576 135.489 103.768 135.361 103.904C135.233 104.032 135.049 104.096 134.809 104.096C134.569 104.096 134.381 104.032 134.245 103.904C134.117 103.768 134.053 103.576 134.053 103.328V100.496C134.053 100.04 133.965 99.708 133.789 99.5C133.621 99.292 133.357 99.188 132.997 99.188C132.557 99.188 132.205 99.328 131.941 99.608C131.685 99.88 131.557 100.244 131.557 100.7V103.328C131.557 103.84 131.305 104.096 130.801 104.096ZM139.765 104.12C139.245 104.12 138.809 104.032 138.457 103.856C138.113 103.68 137.857 103.424 137.689 103.088C137.521 102.744 137.437 102.32 137.437 101.816V99.26H136.813C136.621 99.26 136.473 99.212 136.369 99.116C136.265 99.012 136.213 98.872 136.213 98.696C136.213 98.512 136.265 98.372 136.369 98.276C136.473 98.18 136.621 98.132 136.813 98.132H137.437V97.04C137.437 96.792 137.501 96.604 137.629 96.476C137.765 96.348 137.953 96.284 138.193 96.284C138.433 96.284 138.617 96.348 138.745 96.476C138.873 96.604 138.937 96.792 138.937 97.04V98.132H140.209C140.401 98.132 140.549 98.18 140.653 98.276C140.757 98.372 140.809 98.512 140.809 98.696C140.809 98.872 140.757 99.012 140.653 99.116C140.549 99.212 140.401 99.26 140.209 99.26H138.937V101.732C138.937 102.116 139.021 102.404 139.189 102.596C139.357 102.788 139.629 102.884 140.005 102.884C140.141 102.884 140.261 102.872 140.365 102.848C140.469 102.824 140.561 102.808 140.641 102.8C140.737 102.792 140.817 102.824 140.881 102.896C140.945 102.96 140.977 103.096 140.977 103.304C140.977 103.464 140.949 103.608 140.893 103.736C140.845 103.856 140.753 103.94 140.617 103.988C140.513 104.02 140.377 104.048 140.209 104.072C140.041 104.104 139.893 104.12 139.765 104.12ZM148 104.12C147.648 104.12 147.296 104.092 146.944 104.036C146.592 103.988 146.26 103.912 145.948 103.808C145.636 103.696 145.356 103.56 145.108 103.4C144.964 103.304 144.864 103.188 144.808 103.052C144.752 102.916 144.732 102.784 144.748 102.656C144.772 102.52 144.824 102.404 144.904 102.308C144.992 102.204 145.1 102.14 145.228 102.116C145.356 102.092 145.496 102.128 145.648 102.224C146 102.432 146.372 102.584 146.764 102.68C147.156 102.776 147.568 102.824 148 102.824C148.632 102.824 149.092 102.72 149.38 102.512C149.668 102.296 149.812 102.02 149.812 101.684C149.812 101.404 149.708 101.184 149.5 101.024C149.3 100.864 148.952 100.732 148.456 100.628L147.136 100.352C146.376 100.192 145.808 99.924 145.432 99.548C145.064 99.164 144.88 98.66 144.88 98.036C144.88 97.644 144.96 97.288 145.12 96.968C145.28 96.648 145.504 96.372 145.792 96.14C146.088 95.908 146.436 95.732 146.836 95.612C147.244 95.484 147.692 95.42 148.18 95.42C148.66 95.42 149.116 95.48 149.548 95.6C149.98 95.72 150.368 95.896 150.712 96.128C150.84 96.216 150.924 96.324 150.964 96.452C151.012 96.58 151.024 96.708 151 96.836C150.976 96.956 150.92 97.06 150.832 97.148C150.744 97.236 150.632 97.288 150.496 97.304C150.368 97.32 150.22 97.28 150.052 97.184C149.756 97.016 149.456 96.896 149.152 96.824C148.848 96.752 148.52 96.716 148.168 96.716C147.8 96.716 147.484 96.768 147.22 96.872C146.956 96.976 146.752 97.124 146.608 97.316C146.472 97.5 146.404 97.72 146.404 97.976C146.404 98.264 146.5 98.496 146.692 98.672C146.884 98.84 147.212 98.972 147.676 99.068L148.984 99.344C149.776 99.512 150.364 99.776 150.748 100.136C151.14 100.496 151.336 100.976 151.336 101.576C151.336 101.96 151.256 102.308 151.096 102.62C150.944 102.932 150.72 103.2 150.424 103.424C150.136 103.648 149.788 103.82 149.38 103.94C148.972 104.06 148.512 104.12 148 104.12ZM153.254 104.096C153.014 104.096 152.83 104.032 152.702 103.904C152.574 103.768 152.51 103.576 152.51 103.328V96.2C152.51 95.952 152.574 95.764 152.702 95.636C152.83 95.508 153.014 95.444 153.254 95.444C153.494 95.444 153.678 95.508 153.806 95.636C153.942 95.764 154.01 95.952 154.01 96.2V99.308H153.842C154.018 98.884 154.29 98.564 154.658 98.348C155.034 98.124 155.458 98.012 155.93 98.012C156.402 98.012 156.79 98.1 157.094 98.276C157.398 98.452 157.626 98.72 157.778 99.08C157.93 99.432 158.006 99.88 158.006 100.424V103.328C158.006 103.576 157.942 103.768 157.814 103.904C157.686 104.032 157.502 104.096 157.262 104.096C157.022 104.096 156.834 104.032 156.698 103.904C156.57 103.768 156.506 103.576 156.506 103.328V100.496C156.506 100.04 156.418 99.708 156.242 99.5C156.074 99.292 155.81 99.188 155.45 99.188C155.01 99.188 154.658 99.328 154.394 99.608C154.138 99.88 154.01 100.244 154.01 100.7V103.328C154.01 103.84 153.758 104.096 153.254 104.096ZM160.274 104.084C160.034 104.084 159.85 104.012 159.722 103.868C159.594 103.724 159.53 103.524 159.53 103.268V98.864C159.53 98.6 159.594 98.4 159.722 98.264C159.85 98.12 160.034 98.048 160.274 98.048C160.514 98.048 160.698 98.12 160.826 98.264C160.962 98.4 161.03 98.6 161.03 98.864V103.268C161.03 103.524 160.966 103.724 160.838 103.868C160.71 104.012 160.522 104.084 160.274 104.084ZM160.274 96.932C159.994 96.932 159.774 96.864 159.614 96.728C159.462 96.584 159.386 96.388 159.386 96.14C159.386 95.884 159.462 95.688 159.614 95.552C159.774 95.416 159.994 95.348 160.274 95.348C160.562 95.348 160.782 95.416 160.934 95.552C161.086 95.688 161.162 95.884 161.162 96.14C161.162 96.388 161.086 96.584 160.934 96.728C160.782 96.864 160.562 96.932 160.274 96.932ZM163.741 104.096C163.501 104.096 163.313 104.032 163.177 103.904C163.049 103.768 162.985 103.576 162.985 103.328V99.26H162.433C162.241 99.26 162.093 99.212 161.989 99.116C161.885 99.012 161.833 98.872 161.833 98.696C161.833 98.512 161.885 98.372 161.989 98.276C162.093 98.18 162.241 98.132 162.433 98.132H163.417L162.985 98.528V98.12C162.985 97.296 163.193 96.68 163.609 96.272C164.025 95.856 164.625 95.612 165.409 95.54L165.817 95.504C165.977 95.488 166.105 95.516 166.201 95.588C166.297 95.652 166.361 95.74 166.393 95.852C166.425 95.956 166.429 96.064 166.405 96.176C166.381 96.288 166.329 96.388 166.249 96.476C166.177 96.556 166.081 96.6 165.961 96.608L165.793 96.62C165.337 96.652 165.005 96.768 164.797 96.968C164.589 97.168 164.485 97.472 164.485 97.88V98.324L164.293 98.132H165.505C165.697 98.132 165.845 98.18 165.949 98.276C166.053 98.372 166.105 98.512 166.105 98.696C166.105 98.872 166.053 99.012 165.949 99.116C165.845 99.212 165.697 99.26 165.505 99.26H164.485V103.328C164.485 103.84 164.237 104.096 163.741 104.096ZM169.32 104.12C168.8 104.12 168.364 104.032 168.012 103.856C167.668 103.68 167.412 103.424 167.244 103.088C167.076 102.744 166.992 102.32 166.992 101.816V99.26H166.368C166.176 99.26 166.028 99.212 165.924 99.116C165.82 99.012 165.768 98.872 165.768 98.696C165.768 98.512 165.82 98.372 165.924 98.276C166.028 98.18 166.176 98.132 166.368 98.132H166.992V97.04C166.992 96.792 167.056 96.604 167.184 96.476C167.32 96.348 167.508 96.284 167.748 96.284C167.988 96.284 168.172 96.348 168.3 96.476C168.428 96.604 168.492 96.792 168.492 97.04V98.132H169.764C169.956 98.132 170.104 98.18 170.208 98.276C170.312 98.372 170.364 98.512 170.364 98.696C170.364 98.872 170.312 99.012 170.208 99.116C170.104 99.212 169.956 99.26 169.764 99.26H168.492V101.732C168.492 102.116 168.576 102.404 168.744 102.596C168.912 102.788 169.184 102.884 169.56 102.884C169.696 102.884 169.816 102.872 169.92 102.848C170.024 102.824 170.116 102.808 170.196 102.8C170.292 102.792 170.372 102.824 170.436 102.896C170.5 102.96 170.532 103.096 170.532 103.304C170.532 103.464 170.504 103.608 170.448 103.736C170.4 103.856 170.308 103.94 170.172 103.988C170.068 104.02 169.932 104.048 169.764 104.072C169.596 104.104 169.448 104.12 169.32 104.12ZM175.431 104.096C175.183 104.096 174.987 104.028 174.843 103.892C174.707 103.748 174.639 103.544 174.639 103.28V96.356C174.639 96.092 174.707 95.892 174.843 95.756C174.987 95.612 175.191 95.54 175.455 95.54H179.643C179.851 95.54 180.007 95.592 180.111 95.696C180.215 95.8 180.267 95.948 180.267 96.14C180.267 96.34 180.215 96.496 180.111 96.608C180.007 96.712 179.851 96.764 179.643 96.764H176.175V99.152H179.391C179.591 99.152 179.743 99.204 179.847 99.308C179.959 99.412 180.015 99.56 180.015 99.752C180.015 99.952 179.959 100.108 179.847 100.22C179.743 100.324 179.591 100.376 179.391 100.376H176.175V103.28C176.175 103.824 175.927 104.096 175.431 104.096ZM183.205 104.12C182.717 104.12 182.313 104.032 181.993 103.856C181.673 103.672 181.433 103.4 181.273 103.04C181.121 102.68 181.045 102.232 181.045 101.696V98.792C181.045 98.536 181.109 98.348 181.237 98.228C181.365 98.1 181.549 98.036 181.789 98.036C182.029 98.036 182.213 98.1 182.341 98.228C182.477 98.348 182.545 98.536 182.545 98.792V101.72C182.545 102.136 182.629 102.444 182.797 102.644C182.965 102.844 183.233 102.944 183.601 102.944C184.001 102.944 184.329 102.808 184.585 102.536C184.841 102.256 184.969 101.888 184.969 101.432V98.792C184.969 98.536 185.033 98.348 185.161 98.228C185.289 98.1 185.473 98.036 185.713 98.036C185.953 98.036 186.137 98.1 186.265 98.228C186.401 98.348 186.469 98.536 186.469 98.792V103.328C186.469 103.84 186.225 104.096 185.737 104.096C185.505 104.096 185.325 104.032 185.197 103.904C185.069 103.768 185.005 103.576 185.005 103.328V102.416L185.173 102.776C185.005 103.208 184.749 103.54 184.405 103.772C184.069 104.004 183.669 104.12 183.205 104.12ZM190.034 104.12C189.37 104.12 188.87 103.932 188.534 103.556C188.198 103.172 188.03 102.612 188.03 101.876V96.2C188.03 95.952 188.094 95.764 188.222 95.636C188.35 95.508 188.534 95.444 188.774 95.444C189.014 95.444 189.198 95.508 189.326 95.636C189.462 95.764 189.53 95.952 189.53 96.2V101.804C189.53 102.172 189.606 102.444 189.758 102.62C189.918 102.796 190.142 102.884 190.43 102.884C190.494 102.884 190.554 102.884 190.61 102.884C190.666 102.876 190.722 102.868 190.778 102.86C190.89 102.844 190.966 102.876 191.006 102.956C191.046 103.028 191.066 103.18 191.066 103.412C191.066 103.612 191.026 103.768 190.946 103.88C190.866 103.992 190.734 104.06 190.55 104.084C190.47 104.092 190.386 104.1 190.298 104.108C190.21 104.116 190.122 104.12 190.034 104.12ZM193.866 104.12C193.202 104.12 192.702 103.932 192.366 103.556C192.03 103.172 191.862 102.612 191.862 101.876V96.2C191.862 95.952 191.926 95.764 192.054 95.636C192.182 95.508 192.366 95.444 192.606 95.444C192.846 95.444 193.03 95.508 193.158 95.636C193.294 95.764 193.362 95.952 193.362 96.2V101.804C193.362 102.172 193.438 102.444 193.59 102.62C193.75 102.796 193.974 102.884 194.262 102.884C194.326 102.884 194.386 102.884 194.442 102.884C194.498 102.876 194.554 102.868 194.61 102.86C194.722 102.844 194.798 102.876 194.838 102.956C194.878 103.028 194.898 103.18 194.898 103.412C194.898 103.612 194.858 103.768 194.778 103.88C194.698 103.992 194.566 104.06 194.382 104.084C194.302 104.092 194.218 104.1 194.13 104.108C194.042 104.116 193.954 104.12 193.866 104.12ZM199.912 104C199.648 104 199.444 103.932 199.3 103.796C199.164 103.652 199.096 103.448 199.096 103.184V96.356C199.096 96.092 199.164 95.892 199.3 95.756C199.444 95.612 199.648 95.54 199.912 95.54H202.24C203.656 95.54 204.748 95.904 205.516 96.632C206.292 97.36 206.68 98.404 206.68 99.764C206.68 100.444 206.58 101.048 206.38 101.576C206.188 102.096 205.9 102.536 205.516 102.896C205.14 103.256 204.676 103.532 204.124 103.724C203.58 103.908 202.952 104 202.24 104H199.912ZM200.632 102.728H202.144C202.64 102.728 203.068 102.668 203.428 102.548C203.796 102.42 204.1 102.236 204.34 101.996C204.588 101.748 204.772 101.44 204.892 101.072C205.012 100.696 205.072 100.26 205.072 99.764C205.072 98.772 204.828 98.032 204.34 97.544C203.852 97.056 203.12 96.812 202.144 96.812H200.632V102.728ZM210.025 104.12C209.601 104.12 209.221 104.04 208.885 103.88C208.557 103.712 208.297 103.488 208.104 103.208C207.921 102.928 207.829 102.612 207.829 102.26C207.829 101.828 207.941 101.488 208.165 101.24C208.389 100.984 208.753 100.8 209.257 100.688C209.761 100.576 210.437 100.52 211.285 100.52H211.885V101.384H211.297C210.801 101.384 210.405 101.408 210.109 101.456C209.813 101.504 209.601 101.588 209.473 101.708C209.353 101.82 209.293 101.98 209.293 102.188C209.293 102.452 209.385 102.668 209.569 102.836C209.753 103.004 210.009 103.088 210.337 103.088C210.601 103.088 210.833 103.028 211.033 102.908C211.241 102.78 211.405 102.608 211.525 102.392C211.645 102.176 211.705 101.928 211.705 101.648V100.268C211.705 99.868 211.617 99.58 211.441 99.404C211.265 99.228 210.969 99.14 210.553 99.14C210.321 99.14 210.069 99.168 209.797 99.224C209.533 99.28 209.253 99.376 208.957 99.512C208.805 99.584 208.669 99.604 208.549 99.572C208.437 99.54 208.349 99.476 208.285 99.38C208.221 99.276 208.189 99.164 208.189 99.044C208.189 98.924 208.221 98.808 208.285 98.696C208.349 98.576 208.457 98.488 208.609 98.432C208.977 98.28 209.329 98.172 209.665 98.108C210.009 98.044 210.321 98.012 210.601 98.012C211.177 98.012 211.649 98.1 212.017 98.276C212.393 98.452 212.673 98.72 212.857 99.08C213.041 99.432 213.133 99.888 213.133 100.448V103.328C213.133 103.576 213.073 103.768 212.953 103.904C212.833 104.032 212.661 104.096 212.437 104.096C212.213 104.096 212.037 104.032 211.909 103.904C211.789 103.768 211.729 103.576 211.729 103.328V102.752H211.825C211.769 103.032 211.657 103.276 211.489 103.484C211.329 103.684 211.125 103.84 210.877 103.952C210.629 104.064 210.345 104.12 210.025 104.12ZM216.084 106.256C215.908 106.256 215.764 106.208 215.652 106.112C215.54 106.024 215.472 105.904 215.448 105.752C215.432 105.6 215.46 105.44 215.532 105.272L216.348 103.46V104.084L214.164 99.032C214.092 98.856 214.068 98.692 214.092 98.54C214.116 98.388 214.188 98.268 214.308 98.18C214.436 98.084 214.608 98.036 214.824 98.036C215.008 98.036 215.156 98.08 215.268 98.168C215.38 98.248 215.48 98.404 215.568 98.636L217.188 102.68H216.828L218.484 98.624C218.572 98.4 218.676 98.248 218.796 98.168C218.916 98.08 219.076 98.036 219.276 98.036C219.452 98.036 219.592 98.084 219.696 98.18C219.8 98.268 219.864 98.388 219.888 98.54C219.912 98.684 219.884 98.844 219.804 99.02L216.888 105.68C216.784 105.904 216.672 106.056 216.552 106.136C216.432 106.216 216.276 106.256 216.084 106.256Z" fill="white"/>
<path d="M66 137C66 130.373 71.3726 125 78 125H243C249.627 125 255 130.373 255 137V155C255 161.627 249.627 167 243 167H78C71.3726 167 66 161.627 66 155V137Z" fill="#178917"/>
<g clip-path="url(#clip0_1268_16632)">
<path d="M89.8325 145.665C89.8325 147.811 91.5188 149.498 93.665 149.498C95.8112 149.498 97.4975 147.811 97.4975 145.665C97.4975 143.519 95.8112 141.833 93.665 141.833C91.5188 141.833 89.8325 143.519 89.8325 145.665ZM93.665 143.366C94.9681 143.366 95.9645 144.362 95.9645 145.665C95.9645 146.968 94.9681 147.965 93.665 147.965C92.362 147.965 91.3655 146.968 91.3655 145.665C91.3655 144.362 92.362 143.366 93.665 143.366Z" fill="white"/>
<path d="M94.4314 140.3V138.767C94.4314 138.307 94.1248 138 93.6649 138C93.205 138 92.8984 138.307 92.8984 138.767V140.3C92.8984 140.759 93.205 141.066 93.6649 141.066C94.1248 141.066 94.4314 140.759 94.4314 140.3Z" fill="white"/>
<path d="M99.1071 140.223C98.8005 139.917 98.3406 139.917 98.034 140.223L96.9609 141.296C96.6543 141.603 96.6543 142.063 96.9609 142.369C97.1142 142.523 97.3442 142.599 97.4975 142.599C97.6508 142.599 97.8807 142.523 98.034 142.369L99.1071 141.296C99.4137 141.066 99.4137 140.53 99.1071 140.223Z" fill="white"/>
<path d="M100.563 144.898H99.0302C98.5703 144.898 98.2637 145.205 98.2637 145.665C98.2637 146.125 98.5703 146.431 99.0302 146.431H100.563C101.023 146.431 101.33 146.125 101.33 145.665C101.33 145.205 101.023 144.898 100.563 144.898Z" fill="white"/>
<path d="M98.034 148.884C97.7274 148.578 97.2675 148.578 96.9609 148.884C96.6543 149.191 96.6543 149.651 96.9609 149.957L98.034 151.03C98.1873 151.184 98.4173 151.26 98.5706 151.26C98.7239 151.26 98.9538 151.184 99.1071 151.03C99.4137 150.724 99.4137 150.264 99.1071 149.957L98.034 148.884Z" fill="white"/>
<path d="M92.8984 151.03V152.563C92.8984 153.023 93.205 153.33 93.6649 153.33C94.1248 153.33 94.4314 153.023 94.4314 152.563V151.03C94.4314 150.57 94.1248 150.264 93.6649 150.264C93.205 150.264 92.8984 150.57 92.8984 151.03Z" fill="white"/>
<path d="M88.2231 151.107C88.3764 151.26 88.6064 151.337 88.7597 151.337C88.913 151.337 89.1429 151.26 89.2962 151.107L90.3693 150.034C90.6759 149.727 90.6759 149.268 90.3693 148.961C90.0627 148.654 89.6028 148.654 89.2962 148.961L88.2231 150.034C87.9165 150.264 87.9165 150.801 88.2231 151.107Z" fill="white"/>
<path d="M86 145.665C86 146.125 86.3066 146.431 86.7665 146.431H88.2995C88.7594 146.431 89.066 146.125 89.066 145.665C89.066 145.205 88.7594 144.898 88.2995 144.898H86.7665C86.3066 144.898 86 145.205 86 145.665Z" fill="white"/>
<path d="M89.2962 140.223C88.9896 139.917 88.5297 139.917 88.2231 140.223C87.9165 140.53 87.9165 140.99 88.2231 141.296L89.2962 142.369C89.4495 142.599 89.6795 142.676 89.9094 142.676C90.1394 142.676 90.2927 142.599 90.446 142.446C90.7526 142.139 90.7526 141.679 90.446 141.373L89.2962 140.223Z" fill="white"/>
</g>
<path d="M111.74 150C111.476 150 111.272 149.932 111.128 149.796C110.992 149.652 110.924 149.448 110.924 149.184V142.356C110.924 142.092 110.992 141.892 111.128 141.756C111.272 141.612 111.476 141.54 111.74 141.54H114.068C115.484 141.54 116.576 141.904 117.344 142.632C118.12 143.36 118.508 144.404 118.508 145.764C118.508 146.444 118.408 147.048 118.208 147.576C118.016 148.096 117.728 148.536 117.344 148.896C116.968 149.256 116.504 149.532 115.952 149.724C115.408 149.908 114.78 150 114.068 150H111.74ZM112.46 148.728H113.972C114.468 148.728 114.896 148.668 115.256 148.548C115.624 148.42 115.928 148.236 116.168 147.996C116.416 147.748 116.6 147.44 116.72 147.072C116.84 146.696 116.9 146.26 116.9 145.764C116.9 144.772 116.656 144.032 116.168 143.544C115.68 143.056 114.948 142.812 113.972 142.812H112.46V148.728ZM121.853 150.12C121.429 150.12 121.049 150.04 120.713 149.88C120.385 149.712 120.125 149.488 119.933 149.208C119.749 148.928 119.657 148.612 119.657 148.26C119.657 147.828 119.769 147.488 119.993 147.24C120.217 146.984 120.581 146.8 121.085 146.688C121.589 146.576 122.265 146.52 123.113 146.52H123.713V147.384H123.125C122.629 147.384 122.233 147.408 121.937 147.456C121.641 147.504 121.429 147.588 121.301 147.708C121.181 147.82 121.121 147.98 121.121 148.188C121.121 148.452 121.213 148.668 121.397 148.836C121.581 149.004 121.837 149.088 122.165 149.088C122.429 149.088 122.661 149.028 122.861 148.908C123.069 148.78 123.233 148.608 123.353 148.392C123.473 148.176 123.533 147.928 123.533 147.648V146.268C123.533 145.868 123.445 145.58 123.269 145.404C123.093 145.228 122.797 145.14 122.381 145.14C122.149 145.14 121.897 145.168 121.625 145.224C121.361 145.28 121.081 145.376 120.785 145.512C120.633 145.584 120.497 145.604 120.377 145.572C120.265 145.54 120.177 145.476 120.113 145.38C120.049 145.276 120.017 145.164 120.017 145.044C120.017 144.924 120.049 144.808 120.113 144.696C120.177 144.576 120.285 144.488 120.437 144.432C120.805 144.28 121.157 144.172 121.493 144.108C121.837 144.044 122.149 144.012 122.429 144.012C123.005 144.012 123.477 144.1 123.845 144.276C124.221 144.452 124.501 144.72 124.685 145.08C124.869 145.432 124.961 145.888 124.961 146.448V149.328C124.961 149.576 124.901 149.768 124.781 149.904C124.661 150.032 124.489 150.096 124.265 150.096C124.041 150.096 123.865 150.032 123.737 149.904C123.617 149.768 123.557 149.576 123.557 149.328V148.752H123.653C123.597 149.032 123.485 149.276 123.317 149.484C123.157 149.684 122.953 149.84 122.705 149.952C122.457 150.064 122.173 150.12 121.853 150.12ZM127.913 152.256C127.737 152.256 127.593 152.208 127.481 152.112C127.369 152.024 127.301 151.904 127.277 151.752C127.261 151.6 127.289 151.44 127.361 151.272L128.177 149.46V150.084L125.993 145.032C125.921 144.856 125.897 144.692 125.921 144.54C125.945 144.388 126.017 144.268 126.137 144.18C126.265 144.084 126.437 144.036 126.653 144.036C126.837 144.036 126.985 144.08 127.097 144.168C127.209 144.248 127.309 144.404 127.397 144.636L129.017 148.68H128.657L130.313 144.624C130.401 144.4 130.505 144.248 130.625 144.168C130.745 144.08 130.905 144.036 131.105 144.036C131.281 144.036 131.421 144.084 131.525 144.18C131.629 144.268 131.693 144.388 131.717 144.54C131.741 144.684 131.713 144.844 131.633 145.02L128.717 151.68C128.613 151.904 128.501 152.056 128.381 152.136C128.261 152.216 128.105 152.256 127.913 152.256ZM139.059 150.12C138.707 150.12 138.355 150.092 138.003 150.036C137.651 149.988 137.319 149.912 137.007 149.808C136.695 149.696 136.415 149.56 136.167 149.4C136.023 149.304 135.923 149.188 135.867 149.052C135.811 148.916 135.791 148.784 135.807 148.656C135.831 148.52 135.883 148.404 135.963 148.308C136.051 148.204 136.159 148.14 136.287 148.116C136.415 148.092 136.555 148.128 136.707 148.224C137.059 148.432 137.431 148.584 137.823 148.68C138.215 148.776 138.627 148.824 139.059 148.824C139.691 148.824 140.151 148.72 140.439 148.512C140.727 148.296 140.871 148.02 140.871 147.684C140.871 147.404 140.767 147.184 140.559 147.024C140.359 146.864 140.011 146.732 139.515 146.628L138.195 146.352C137.435 146.192 136.867 145.924 136.491 145.548C136.123 145.164 135.939 144.66 135.939 144.036C135.939 143.644 136.019 143.288 136.179 142.968C136.339 142.648 136.563 142.372 136.851 142.14C137.147 141.908 137.495 141.732 137.895 141.612C138.303 141.484 138.751 141.42 139.239 141.42C139.719 141.42 140.175 141.48 140.607 141.6C141.039 141.72 141.427 141.896 141.771 142.128C141.899 142.216 141.983 142.324 142.023 142.452C142.071 142.58 142.083 142.708 142.059 142.836C142.035 142.956 141.979 143.06 141.891 143.148C141.803 143.236 141.691 143.288 141.555 143.304C141.427 143.32 141.279 143.28 141.111 143.184C140.815 143.016 140.515 142.896 140.211 142.824C139.907 142.752 139.579 142.716 139.227 142.716C138.859 142.716 138.543 142.768 138.279 142.872C138.015 142.976 137.811 143.124 137.667 143.316C137.531 143.5 137.463 143.72 137.463 143.976C137.463 144.264 137.559 144.496 137.751 144.672C137.943 144.84 138.271 144.972 138.735 145.068L140.043 145.344C140.835 145.512 141.423 145.776 141.807 146.136C142.199 146.496 142.395 146.976 142.395 147.576C142.395 147.96 142.315 148.308 142.155 148.62C142.003 148.932 141.779 149.2 141.483 149.424C141.195 149.648 140.847 149.82 140.439 149.94C140.031 150.06 139.571 150.12 139.059 150.12ZM144.313 150.096C144.073 150.096 143.889 150.032 143.761 149.904C143.633 149.768 143.569 149.576 143.569 149.328V142.2C143.569 141.952 143.633 141.764 143.761 141.636C143.889 141.508 144.073 141.444 144.313 141.444C144.553 141.444 144.737 141.508 144.865 141.636C145.001 141.764 145.069 141.952 145.069 142.2V145.308H144.901C145.077 144.884 145.349 144.564 145.717 144.348C146.093 144.124 146.517 144.012 146.989 144.012C147.461 144.012 147.849 144.1 148.153 144.276C148.457 144.452 148.685 144.72 148.837 145.08C148.989 145.432 149.065 145.88 149.065 146.424V149.328C149.065 149.576 149.001 149.768 148.873 149.904C148.745 150.032 148.561 150.096 148.321 150.096C148.081 150.096 147.893 150.032 147.757 149.904C147.629 149.768 147.565 149.576 147.565 149.328V146.496C147.565 146.04 147.477 145.708 147.301 145.5C147.133 145.292 146.869 145.188 146.509 145.188C146.069 145.188 145.717 145.328 145.453 145.608C145.197 145.88 145.069 146.244 145.069 146.7V149.328C145.069 149.84 144.817 150.096 144.313 150.096ZM151.333 150.084C151.093 150.084 150.909 150.012 150.781 149.868C150.653 149.724 150.589 149.524 150.589 149.268V144.864C150.589 144.6 150.653 144.4 150.781 144.264C150.909 144.12 151.093 144.048 151.333 144.048C151.573 144.048 151.757 144.12 151.885 144.264C152.021 144.4 152.089 144.6 152.089 144.864V149.268C152.089 149.524 152.025 149.724 151.897 149.868C151.769 150.012 151.581 150.084 151.333 150.084ZM151.333 142.932C151.053 142.932 150.833 142.864 150.673 142.728C150.521 142.584 150.445 142.388 150.445 142.14C150.445 141.884 150.521 141.688 150.673 141.552C150.833 141.416 151.053 141.348 151.333 141.348C151.621 141.348 151.841 141.416 151.993 141.552C152.145 141.688 152.221 141.884 152.221 142.14C152.221 142.388 152.145 142.584 151.993 142.728C151.841 142.864 151.621 142.932 151.333 142.932ZM154.799 150.096C154.559 150.096 154.371 150.032 154.235 149.904C154.107 149.768 154.043 149.576 154.043 149.328V145.26H153.491C153.299 145.26 153.151 145.212 153.047 145.116C152.943 145.012 152.891 144.872 152.891 144.696C152.891 144.512 152.943 144.372 153.047 144.276C153.151 144.18 153.299 144.132 153.491 144.132H154.475L154.043 144.528V144.12C154.043 143.296 154.251 142.68 154.667 142.272C155.083 141.856 155.683 141.612 156.467 141.54L156.875 141.504C157.035 141.488 157.163 141.516 157.259 141.588C157.355 141.652 157.419 141.74 157.451 141.852C157.483 141.956 157.487 142.064 157.463 142.176C157.439 142.288 157.387 142.388 157.307 142.476C157.235 142.556 157.139 142.6 157.019 142.608L156.851 142.62C156.395 142.652 156.063 142.768 155.855 142.968C155.647 143.168 155.543 143.472 155.543 143.88V144.324L155.351 144.132H156.563C156.755 144.132 156.903 144.18 157.007 144.276C157.111 144.372 157.163 144.512 157.163 144.696C157.163 144.872 157.111 145.012 157.007 145.116C156.903 145.212 156.755 145.26 156.563 145.26H155.543V149.328C155.543 149.84 155.295 150.096 154.799 150.096ZM160.378 150.12C159.858 150.12 159.422 150.032 159.07 149.856C158.726 149.68 158.47 149.424 158.302 149.088C158.134 148.744 158.05 148.32 158.05 147.816V145.26H157.426C157.234 145.26 157.086 145.212 156.982 145.116C156.878 145.012 156.826 144.872 156.826 144.696C156.826 144.512 156.878 144.372 156.982 144.276C157.086 144.18 157.234 144.132 157.426 144.132H158.05V143.04C158.05 142.792 158.114 142.604 158.242 142.476C158.378 142.348 158.566 142.284 158.806 142.284C159.046 142.284 159.23 142.348 159.358 142.476C159.486 142.604 159.55 142.792 159.55 143.04V144.132H160.822C161.014 144.132 161.162 144.18 161.266 144.276C161.37 144.372 161.422 144.512 161.422 144.696C161.422 144.872 161.37 145.012 161.266 145.116C161.162 145.212 161.014 145.26 160.822 145.26H159.55V147.732C159.55 148.116 159.634 148.404 159.802 148.596C159.97 148.788 160.242 148.884 160.618 148.884C160.754 148.884 160.874 148.872 160.978 148.848C161.082 148.824 161.174 148.808 161.254 148.8C161.35 148.792 161.43 148.824 161.494 148.896C161.558 148.96 161.59 149.096 161.59 149.304C161.59 149.464 161.562 149.608 161.506 149.736C161.458 149.856 161.366 149.94 161.23 149.988C161.126 150.02 160.99 150.048 160.822 150.072C160.654 150.104 160.506 150.12 160.378 150.12ZM166.489 150.096C166.241 150.096 166.045 150.028 165.901 149.892C165.765 149.748 165.697 149.544 165.697 149.28V142.356C165.697 142.092 165.765 141.892 165.901 141.756C166.045 141.612 166.249 141.54 166.513 141.54H170.701C170.909 141.54 171.065 141.592 171.169 141.696C171.273 141.8 171.325 141.948 171.325 142.14C171.325 142.34 171.273 142.496 171.169 142.608C171.065 142.712 170.909 142.764 170.701 142.764H167.233V145.152H170.449C170.649 145.152 170.801 145.204 170.905 145.308C171.017 145.412 171.073 145.56 171.073 145.752C171.073 145.952 171.017 146.108 170.905 146.22C170.801 146.324 170.649 146.376 170.449 146.376H167.233V149.28C167.233 149.824 166.985 150.096 166.489 150.096ZM174.263 150.12C173.775 150.12 173.371 150.032 173.051 149.856C172.731 149.672 172.491 149.4 172.331 149.04C172.179 148.68 172.103 148.232 172.103 147.696V144.792C172.103 144.536 172.167 144.348 172.295 144.228C172.423 144.1 172.607 144.036 172.847 144.036C173.087 144.036 173.271 144.1 173.399 144.228C173.535 144.348 173.603 144.536 173.603 144.792V147.72C173.603 148.136 173.687 148.444 173.855 148.644C174.023 148.844 174.291 148.944 174.659 148.944C175.059 148.944 175.387 148.808 175.643 148.536C175.899 148.256 176.027 147.888 176.027 147.432V144.792C176.027 144.536 176.091 144.348 176.219 144.228C176.347 144.1 176.531 144.036 176.771 144.036C177.011 144.036 177.195 144.1 177.323 144.228C177.459 144.348 177.527 144.536 177.527 144.792V149.328C177.527 149.84 177.283 150.096 176.795 150.096C176.563 150.096 176.383 150.032 176.255 149.904C176.127 149.768 176.063 149.576 176.063 149.328V148.416L176.231 148.776C176.063 149.208 175.807 149.54 175.463 149.772C175.127 150.004 174.727 150.12 174.263 150.12ZM181.093 150.12C180.429 150.12 179.929 149.932 179.593 149.556C179.257 149.172 179.089 148.612 179.089 147.876V142.2C179.089 141.952 179.153 141.764 179.281 141.636C179.409 141.508 179.593 141.444 179.833 141.444C180.073 141.444 180.257 141.508 180.385 141.636C180.521 141.764 180.589 141.952 180.589 142.2V147.804C180.589 148.172 180.665 148.444 180.817 148.62C180.977 148.796 181.201 148.884 181.489 148.884C181.553 148.884 181.613 148.884 181.669 148.884C181.725 148.876 181.781 148.868 181.837 148.86C181.949 148.844 182.025 148.876 182.065 148.956C182.105 149.028 182.125 149.18 182.125 149.412C182.125 149.612 182.085 149.768 182.005 149.88C181.925 149.992 181.793 150.06 181.609 150.084C181.529 150.092 181.445 150.1 181.357 150.108C181.269 150.116 181.181 150.12 181.093 150.12ZM184.925 150.12C184.261 150.12 183.761 149.932 183.425 149.556C183.089 149.172 182.921 148.612 182.921 147.876V142.2C182.921 141.952 182.985 141.764 183.113 141.636C183.241 141.508 183.425 141.444 183.665 141.444C183.905 141.444 184.089 141.508 184.217 141.636C184.353 141.764 184.421 141.952 184.421 142.2V147.804C184.421 148.172 184.497 148.444 184.649 148.62C184.809 148.796 185.033 148.884 185.321 148.884C185.385 148.884 185.445 148.884 185.501 148.884C185.557 148.876 185.613 148.868 185.669 148.86C185.781 148.844 185.857 148.876 185.897 148.956C185.937 149.028 185.957 149.18 185.957 149.412C185.957 149.612 185.917 149.768 185.837 149.88C185.757 149.992 185.625 150.06 185.441 150.084C185.361 150.092 185.277 150.1 185.189 150.108C185.101 150.116 185.013 150.12 184.925 150.12ZM190.97 150C190.706 150 190.502 149.932 190.358 149.796C190.222 149.652 190.154 149.448 190.154 149.184V142.356C190.154 142.092 190.222 141.892 190.358 141.756C190.502 141.612 190.706 141.54 190.97 141.54H193.298C194.714 141.54 195.806 141.904 196.574 142.632C197.35 143.36 197.738 144.404 197.738 145.764C197.738 146.444 197.638 147.048 197.438 147.576C197.246 148.096 196.958 148.536 196.574 148.896C196.198 149.256 195.734 149.532 195.182 149.724C194.638 149.908 194.01 150 193.298 150H190.97ZM191.69 148.728H193.202C193.698 148.728 194.126 148.668 194.486 148.548C194.854 148.42 195.158 148.236 195.398 147.996C195.646 147.748 195.83 147.44 195.95 147.072C196.07 146.696 196.13 146.26 196.13 145.764C196.13 144.772 195.886 144.032 195.398 143.544C194.91 143.056 194.178 142.812 193.202 142.812H191.69V148.728ZM201.083 150.12C200.659 150.12 200.279 150.04 199.943 149.88C199.615 149.712 199.355 149.488 199.163 149.208C198.979 148.928 198.887 148.612 198.887 148.26C198.887 147.828 198.999 147.488 199.223 147.24C199.447 146.984 199.811 146.8 200.315 146.688C200.819 146.576 201.495 146.52 202.343 146.52H202.943V147.384H202.355C201.859 147.384 201.463 147.408 201.167 147.456C200.871 147.504 200.659 147.588 200.531 147.708C200.411 147.82 200.351 147.98 200.351 148.188C200.351 148.452 200.443 148.668 200.627 148.836C200.811 149.004 201.067 149.088 201.395 149.088C201.659 149.088 201.891 149.028 202.091 148.908C202.299 148.78 202.463 148.608 202.583 148.392C202.703 148.176 202.763 147.928 202.763 147.648V146.268C202.763 145.868 202.675 145.58 202.499 145.404C202.323 145.228 202.027 145.14 201.611 145.14C201.379 145.14 201.127 145.168 200.855 145.224C200.591 145.28 200.311 145.376 200.015 145.512C199.863 145.584 199.727 145.604 199.607 145.572C199.495 145.54 199.407 145.476 199.343 145.38C199.279 145.276 199.247 145.164 199.247 145.044C199.247 144.924 199.279 144.808 199.343 144.696C199.407 144.576 199.515 144.488 199.667 144.432C200.035 144.28 200.387 144.172 200.723 144.108C201.067 144.044 201.379 144.012 201.659 144.012C202.235 144.012 202.707 144.1 203.075 144.276C203.451 144.452 203.731 144.72 203.915 145.08C204.099 145.432 204.191 145.888 204.191 146.448V149.328C204.191 149.576 204.131 149.768 204.011 149.904C203.891 150.032 203.719 150.096 203.495 150.096C203.271 150.096 203.095 150.032 202.967 149.904C202.847 149.768 202.787 149.576 202.787 149.328V148.752H202.883C202.827 149.032 202.715 149.276 202.547 149.484C202.387 149.684 202.183 149.84 201.935 149.952C201.687 150.064 201.403 150.12 201.083 150.12ZM207.143 152.256C206.967 152.256 206.823 152.208 206.711 152.112C206.599 152.024 206.531 151.904 206.507 151.752C206.491 151.6 206.519 151.44 206.591 151.272L207.407 149.46V150.084L205.223 145.032C205.151 144.856 205.127 144.692 205.151 144.54C205.175 144.388 205.247 144.268 205.367 144.18C205.495 144.084 205.667 144.036 205.883 144.036C206.067 144.036 206.215 144.08 206.327 144.168C206.439 144.248 206.539 144.404 206.627 144.636L208.247 148.68H207.887L209.543 144.624C209.631 144.4 209.735 144.248 209.855 144.168C209.975 144.08 210.135 144.036 210.335 144.036C210.511 144.036 210.651 144.084 210.755 144.18C210.859 144.268 210.923 144.388 210.947 144.54C210.971 144.684 210.943 144.844 210.863 145.02L207.947 151.68C207.843 151.904 207.731 152.056 207.611 152.136C207.491 152.216 207.335 152.256 207.143 152.256Z" fill="white"/>
<path d="M66 183C66 176.373 71.3726 171 78 171H243C249.627 171 255 176.373 255 183V201C255 207.627 249.627 213 243 213H78C71.3726 213 66 207.627 66 201V183Z" fill="#EE6909"/>
<g clip-path="url(#clip1_1268_16632)">
<path d="M93.6973 187.239C92.1228 190.904 94.54 194.432 97.6006 195.101C96.8658 196.219 94.684 197.322 92.4497 196.553C90.2814 195.807 88.8898 193.572 89.2317 191.388C89.5976 189.051 91.478 187.292 93.6958 187.239H93.6973Z" fill="white"/>
<path d="M94.8115 189.589C94.8175 187.695 96.2046 186.022 98.079 185.647C98.4554 185.572 98.8093 185.593 99.0507 185.944C99.2771 186.272 99.2112 186.593 99.0282 186.926C98.0895 188.642 99.1707 190.518 101.128 190.572C101.486 190.583 101.762 190.7 101.919 191.029C102.075 191.358 101.994 191.654 101.789 191.939C100.813 193.287 99.0477 193.9 97.5512 193.405C95.9407 192.873 94.807 191.292 94.8115 189.588V189.589Z" fill="white"/>
<path d="M94.8216 198.812C94.8066 198.997 94.8111 199.186 94.7751 199.368C94.6971 199.745 94.3717 200.002 94.0013 200.002C93.6324 200.002 93.2875 199.745 93.2351 199.365C93.1871 199.023 93.1841 198.668 93.2126 198.325C93.2501 197.882 93.5965 197.601 94.0223 197.61C94.4302 197.619 94.7421 197.899 94.7961 198.326C94.8156 198.485 94.7991 198.65 94.7991 198.81C94.8066 198.81 94.8126 198.81 94.8201 198.81L94.8216 198.812Z" fill="white"/>
<path d="M87.2192 191.176C87.4201 191.196 87.6211 191.194 87.813 191.241C88.1639 191.325 88.3828 191.618 88.3933 191.972C88.4038 192.347 88.1939 192.698 87.8295 192.747C87.4171 192.802 86.9868 192.8 86.5729 192.747C86.231 192.705 86.0046 192.35 86.0001 192.01C85.9956 191.654 86.234 191.325 86.5909 191.241C86.7948 191.193 87.0092 191.196 87.2192 191.176Z" fill="white"/>
<path d="M90.26 196.647C90.2255 196.724 90.1865 196.905 90.0816 197.03C89.8746 197.275 89.6437 197.508 89.3978 197.716C89.0769 197.987 88.636 197.956 88.3451 197.673C88.0557 197.391 88.0077 196.941 88.2731 196.622C88.4876 196.364 88.729 196.127 88.9839 195.91C89.2328 195.699 89.5327 195.682 89.8236 195.828C90.116 195.974 90.26 196.223 90.26 196.647Z" fill="white"/>
<path d="M94.8263 185.22C94.8068 185.419 94.8083 185.622 94.7618 185.812C94.6733 186.178 94.3674 186.395 93.9925 186.392C93.6372 186.389 93.2998 186.179 93.2548 185.83C93.2008 185.416 93.2023 184.986 93.2548 184.574C93.2983 184.231 93.6506 184.005 93.9925 184C94.3464 183.996 94.6778 184.234 94.7618 184.591C94.8098 184.794 94.8068 185.009 94.8263 185.22Z" fill="white"/>
<path d="M89.5434 188.34C89.29 188.228 89.0995 188.183 88.9631 188.072C88.7307 187.885 88.5192 187.669 88.3243 187.443C88.0424 187.119 88.0679 186.648 88.3573 186.358C88.6482 186.067 89.119 186.041 89.4429 186.323C89.6769 186.527 89.8988 186.752 90.0982 186.99C90.3082 187.242 90.3502 187.564 90.1627 187.825C90.0113 188.036 89.7533 188.171 89.5449 188.339L89.5434 188.34Z" fill="white"/>
<path d="M98.4611 195.661C98.7145 195.775 98.905 195.819 99.0414 195.929C99.2724 196.117 99.4838 196.334 99.6802 196.559C99.9637 196.886 99.9382 197.353 99.6473 197.644C99.3563 197.935 98.887 197.96 98.5616 197.676C98.3277 197.47 98.1057 197.248 97.9063 197.01C97.6964 196.758 97.6544 196.436 97.8433 196.175C97.9963 195.964 98.2527 195.829 98.4611 195.661Z" fill="white"/>
</g>
<path d="M111.74 196C111.476 196 111.272 195.932 111.128 195.796C110.992 195.652 110.924 195.448 110.924 195.184V188.356C110.924 188.092 110.992 187.892 111.128 187.756C111.272 187.612 111.476 187.54 111.74 187.54H114.068C115.484 187.54 116.576 187.904 117.344 188.632C118.12 189.36 118.508 190.404 118.508 191.764C118.508 192.444 118.408 193.048 118.208 193.576C118.016 194.096 117.728 194.536 117.344 194.896C116.968 195.256 116.504 195.532 115.952 195.724C115.408 195.908 114.78 196 114.068 196H111.74ZM112.46 194.728H113.972C114.468 194.728 114.896 194.668 115.256 194.548C115.624 194.42 115.928 194.236 116.168 193.996C116.416 193.748 116.6 193.44 116.72 193.072C116.84 192.696 116.9 192.26 116.9 191.764C116.9 190.772 116.656 190.032 116.168 189.544C115.68 189.056 114.948 188.812 113.972 188.812H112.46V194.728ZM121.853 196.12C121.429 196.12 121.049 196.04 120.713 195.88C120.385 195.712 120.125 195.488 119.933 195.208C119.749 194.928 119.657 194.612 119.657 194.26C119.657 193.828 119.769 193.488 119.993 193.24C120.217 192.984 120.581 192.8 121.085 192.688C121.589 192.576 122.265 192.52 123.113 192.52H123.713V193.384H123.125C122.629 193.384 122.233 193.408 121.937 193.456C121.641 193.504 121.429 193.588 121.301 193.708C121.181 193.82 121.121 193.98 121.121 194.188C121.121 194.452 121.213 194.668 121.397 194.836C121.581 195.004 121.837 195.088 122.165 195.088C122.429 195.088 122.661 195.028 122.861 194.908C123.069 194.78 123.233 194.608 123.353 194.392C123.473 194.176 123.533 193.928 123.533 193.648V192.268C123.533 191.868 123.445 191.58 123.269 191.404C123.093 191.228 122.797 191.14 122.381 191.14C122.149 191.14 121.897 191.168 121.625 191.224C121.361 191.28 121.081 191.376 120.785 191.512C120.633 191.584 120.497 191.604 120.377 191.572C120.265 191.54 120.177 191.476 120.113 191.38C120.049 191.276 120.017 191.164 120.017 191.044C120.017 190.924 120.049 190.808 120.113 190.696C120.177 190.576 120.285 190.488 120.437 190.432C120.805 190.28 121.157 190.172 121.493 190.108C121.837 190.044 122.149 190.012 122.429 190.012C123.005 190.012 123.477 190.1 123.845 190.276C124.221 190.452 124.501 190.72 124.685 191.08C124.869 191.432 124.961 191.888 124.961 192.448V195.328C124.961 195.576 124.901 195.768 124.781 195.904C124.661 196.032 124.489 196.096 124.265 196.096C124.041 196.096 123.865 196.032 123.737 195.904C123.617 195.768 123.557 195.576 123.557 195.328V194.752H123.653C123.597 195.032 123.485 195.276 123.317 195.484C123.157 195.684 122.953 195.84 122.705 195.952C122.457 196.064 122.173 196.12 121.853 196.12ZM127.913 198.256C127.737 198.256 127.593 198.208 127.481 198.112C127.369 198.024 127.301 197.904 127.277 197.752C127.261 197.6 127.289 197.44 127.361 197.272L128.177 195.46V196.084L125.993 191.032C125.921 190.856 125.897 190.692 125.921 190.54C125.945 190.388 126.017 190.268 126.137 190.18C126.265 190.084 126.437 190.036 126.653 190.036C126.837 190.036 126.985 190.08 127.097 190.168C127.209 190.248 127.309 190.404 127.397 190.636L129.017 194.68H128.657L130.313 190.624C130.401 190.4 130.505 190.248 130.625 190.168C130.745 190.08 130.905 190.036 131.105 190.036C131.281 190.036 131.421 190.084 131.525 190.18C131.629 190.268 131.693 190.388 131.717 190.54C131.741 190.684 131.713 190.844 131.633 191.02L128.717 197.68C128.613 197.904 128.501 198.056 128.381 198.136C128.261 198.216 128.105 198.256 127.913 198.256ZM136.227 196.096C136.035 196.096 135.879 196.052 135.759 195.964C135.647 195.876 135.579 195.76 135.555 195.616C135.531 195.464 135.559 195.296 135.639 195.112L138.807 188.092C138.911 187.86 139.035 187.696 139.179 187.6C139.331 187.496 139.503 187.444 139.695 187.444C139.879 187.444 140.043 187.496 140.187 187.6C140.339 187.696 140.467 187.86 140.571 188.092L143.751 195.112C143.839 195.296 143.871 195.464 143.847 195.616C143.823 195.768 143.755 195.888 143.643 195.976C143.531 196.056 143.383 196.096 143.199 196.096C142.975 196.096 142.799 196.044 142.671 195.94C142.551 195.828 142.443 195.66 142.347 195.436L141.567 193.624L142.215 194.044H137.151L137.799 193.624L137.031 195.436C136.927 195.668 136.819 195.836 136.707 195.94C136.595 196.044 136.435 196.096 136.227 196.096ZM139.671 189.208L137.991 193.204L137.679 192.82H141.687L141.387 193.204L139.695 189.208H139.671ZM145.672 196.096C145.432 196.096 145.248 196.032 145.12 195.904C144.992 195.768 144.928 195.576 144.928 195.328V190.792C144.928 190.544 144.992 190.356 145.12 190.228C145.248 190.1 145.428 190.036 145.66 190.036C145.892 190.036 146.072 190.1 146.2 190.228C146.328 190.356 146.392 190.544 146.392 190.792V191.608L146.26 191.308C146.436 190.884 146.708 190.564 147.076 190.348C147.452 190.124 147.876 190.012 148.348 190.012C148.82 190.012 149.208 190.1 149.512 190.276C149.816 190.452 150.044 190.72 150.196 191.08C150.348 191.432 150.424 191.88 150.424 192.424V195.328C150.424 195.576 150.36 195.768 150.232 195.904C150.104 196.032 149.92 196.096 149.68 196.096C149.44 196.096 149.252 196.032 149.116 195.904C148.988 195.768 148.924 195.576 148.924 195.328V192.496C148.924 192.04 148.836 191.708 148.66 191.5C148.492 191.292 148.228 191.188 147.868 191.188C147.428 191.188 147.076 191.328 146.812 191.608C146.556 191.88 146.428 192.244 146.428 192.7V195.328C146.428 195.84 146.176 196.096 145.672 196.096ZM154.204 196.12C153.692 196.12 153.24 195.996 152.848 195.748C152.464 195.5 152.164 195.148 151.948 194.692C151.732 194.228 151.624 193.684 151.624 193.06C151.624 192.428 151.732 191.888 151.948 191.44C152.164 190.984 152.464 190.632 152.848 190.384C153.24 190.136 153.692 190.012 154.204 190.012C154.692 190.012 155.116 190.132 155.476 190.372C155.844 190.612 156.092 190.928 156.22 191.32H156.088V188.2C156.088 187.952 156.152 187.764 156.28 187.636C156.408 187.508 156.592 187.444 156.832 187.444C157.072 187.444 157.256 187.508 157.384 187.636C157.52 187.764 157.588 187.952 157.588 188.2V195.328C157.588 195.576 157.524 195.768 157.396 195.904C157.268 196.032 157.084 196.096 156.844 196.096C156.604 196.096 156.42 196.032 156.292 195.904C156.164 195.768 156.1 195.576 156.1 195.328V194.392L156.232 194.752C156.112 195.168 155.868 195.5 155.5 195.748C155.132 195.996 154.7 196.12 154.204 196.12ZM154.624 194.98C154.92 194.98 155.18 194.908 155.404 194.764C155.628 194.62 155.8 194.408 155.92 194.128C156.048 193.84 156.112 193.484 156.112 193.06C156.112 192.42 155.976 191.944 155.704 191.632C155.432 191.312 155.072 191.152 154.624 191.152C154.328 191.152 154.068 191.224 153.844 191.368C153.62 191.504 153.444 191.716 153.316 192.004C153.196 192.284 153.136 192.636 153.136 193.06C153.136 193.692 153.272 194.172 153.544 194.5C153.816 194.82 154.176 194.98 154.624 194.98ZM163.265 196.096C163.033 196.096 162.853 196.032 162.725 195.904C162.605 195.776 162.545 195.592 162.545 195.352V188.212C162.545 187.964 162.605 187.776 162.725 187.648C162.853 187.512 163.017 187.444 163.217 187.444C163.401 187.444 163.537 187.48 163.625 187.552C163.721 187.616 163.833 187.728 163.961 187.888L168.557 193.852H168.245V188.176C168.245 187.944 168.305 187.764 168.425 187.636C168.553 187.508 168.733 187.444 168.965 187.444C169.197 187.444 169.373 187.508 169.493 187.636C169.613 187.764 169.673 187.944 169.673 188.176V195.376C169.673 195.6 169.617 195.776 169.505 195.904C169.393 196.032 169.241 196.096 169.049 196.096C168.865 196.096 168.717 196.06 168.605 195.988C168.501 195.916 168.385 195.8 168.257 195.64L163.673 189.676H163.973V195.352C163.973 195.592 163.913 195.776 163.793 195.904C163.673 196.032 163.497 196.096 163.265 196.096ZM172.122 196.084C171.882 196.084 171.698 196.012 171.57 195.868C171.442 195.724 171.378 195.524 171.378 195.268V190.864C171.378 190.6 171.442 190.4 171.57 190.264C171.698 190.12 171.882 190.048 172.122 190.048C172.362 190.048 172.546 190.12 172.674 190.264C172.81 190.4 172.878 190.6 172.878 190.864V195.268C172.878 195.524 172.814 195.724 172.686 195.868C172.558 196.012 172.37 196.084 172.122 196.084ZM172.122 188.932C171.842 188.932 171.622 188.864 171.462 188.728C171.31 188.584 171.234 188.388 171.234 188.14C171.234 187.884 171.31 187.688 171.462 187.552C171.622 187.416 171.842 187.348 172.122 187.348C172.41 187.348 172.63 187.416 172.782 187.552C172.934 187.688 173.01 187.884 173.01 188.14C173.01 188.388 172.934 188.584 172.782 188.728C172.63 188.864 172.41 188.932 172.122 188.932ZM177.172 198.28C176.74 198.28 176.32 198.24 175.912 198.16C175.512 198.08 175.148 197.956 174.82 197.788C174.668 197.708 174.564 197.612 174.508 197.5C174.46 197.388 174.444 197.272 174.46 197.152C174.484 197.04 174.532 196.94 174.604 196.852C174.684 196.764 174.78 196.704 174.892 196.672C175.004 196.64 175.12 196.656 175.24 196.72C175.592 196.896 175.924 197.008 176.236 197.056C176.556 197.112 176.828 197.14 177.052 197.14C177.588 197.14 177.988 197.008 178.252 196.744C178.524 196.488 178.66 196.104 178.66 195.592V194.512H178.768C178.648 194.92 178.396 195.248 178.012 195.496C177.636 195.736 177.208 195.856 176.728 195.856C176.2 195.856 175.74 195.736 175.348 195.496C174.956 195.248 174.652 194.904 174.436 194.464C174.22 194.024 174.112 193.512 174.112 192.928C174.112 192.488 174.172 192.092 174.292 191.74C174.42 191.38 174.596 191.072 174.82 190.816C175.052 190.56 175.328 190.364 175.648 190.228C175.976 190.084 176.336 190.012 176.728 190.012C177.224 190.012 177.656 190.136 178.024 190.384C178.4 190.624 178.644 190.944 178.756 191.344L178.636 191.644V190.792C178.636 190.544 178.7 190.356 178.828 190.228C178.964 190.1 179.148 190.036 179.38 190.036C179.62 190.036 179.804 190.1 179.932 190.228C180.06 190.356 180.124 190.544 180.124 190.792V195.412C180.124 196.364 179.872 197.08 179.368 197.56C178.864 198.04 178.132 198.28 177.172 198.28ZM177.136 194.716C177.448 194.716 177.716 194.644 177.94 194.5C178.164 194.356 178.336 194.152 178.456 193.888C178.584 193.616 178.648 193.296 178.648 192.928C178.648 192.376 178.512 191.944 178.24 191.632C177.968 191.312 177.6 191.152 177.136 191.152C176.824 191.152 176.556 191.224 176.332 191.368C176.108 191.512 175.932 191.716 175.804 191.98C175.684 192.244 175.624 192.56 175.624 192.928C175.624 193.48 175.76 193.916 176.032 194.236C176.304 194.556 176.672 194.716 177.136 194.716ZM182.422 196.096C182.182 196.096 181.998 196.032 181.87 195.904C181.742 195.768 181.678 195.576 181.678 195.328V188.2C181.678 187.952 181.742 187.764 181.87 187.636C181.998 187.508 182.182 187.444 182.422 187.444C182.662 187.444 182.846 187.508 182.974 187.636C183.11 187.764 183.178 187.952 183.178 188.2V191.308H183.01C183.186 190.884 183.458 190.564 183.826 190.348C184.202 190.124 184.626 190.012 185.098 190.012C185.57 190.012 185.958 190.1 186.262 190.276C186.566 190.452 186.794 190.72 186.946 191.08C187.098 191.432 187.174 191.88 187.174 192.424V195.328C187.174 195.576 187.11 195.768 186.982 195.904C186.854 196.032 186.67 196.096 186.43 196.096C186.19 196.096 186.002 196.032 185.866 195.904C185.738 195.768 185.674 195.576 185.674 195.328V192.496C185.674 192.04 185.586 191.708 185.41 191.5C185.242 191.292 184.978 191.188 184.618 191.188C184.178 191.188 183.826 191.328 183.562 191.608C183.306 191.88 183.178 192.244 183.178 192.7V195.328C183.178 195.84 182.926 196.096 182.422 196.096ZM191.386 196.12C190.866 196.12 190.43 196.032 190.078 195.856C189.734 195.68 189.478 195.424 189.31 195.088C189.142 194.744 189.058 194.32 189.058 193.816V191.26H188.434C188.242 191.26 188.094 191.212 187.99 191.116C187.886 191.012 187.834 190.872 187.834 190.696C187.834 190.512 187.886 190.372 187.99 190.276C188.094 190.18 188.242 190.132 188.434 190.132H189.058V189.04C189.058 188.792 189.122 188.604 189.25 188.476C189.386 188.348 189.574 188.284 189.814 188.284C190.054 188.284 190.238 188.348 190.366 188.476C190.494 188.604 190.558 188.792 190.558 189.04V190.132H191.83C192.022 190.132 192.17 190.18 192.274 190.276C192.378 190.372 192.43 190.512 192.43 190.696C192.43 190.872 192.378 191.012 192.274 191.116C192.17 191.212 192.022 191.26 191.83 191.26H190.558V193.732C190.558 194.116 190.642 194.404 190.81 194.596C190.978 194.788 191.25 194.884 191.626 194.884C191.762 194.884 191.882 194.872 191.986 194.848C192.09 194.824 192.182 194.808 192.262 194.8C192.358 194.792 192.438 194.824 192.502 194.896C192.566 194.96 192.598 195.096 192.598 195.304C192.598 195.464 192.57 195.608 192.514 195.736C192.466 195.856 192.374 195.94 192.238 195.988C192.134 196.02 191.998 196.048 191.83 196.072C191.662 196.104 191.514 196.12 191.386 196.12ZM197.521 196C197.257 196 197.053 195.932 196.909 195.796C196.773 195.652 196.705 195.448 196.705 195.184V188.356C196.705 188.092 196.773 187.892 196.909 187.756C197.053 187.612 197.257 187.54 197.521 187.54H199.849C201.265 187.54 202.357 187.904 203.125 188.632C203.901 189.36 204.289 190.404 204.289 191.764C204.289 192.444 204.189 193.048 203.989 193.576C203.797 194.096 203.509 194.536 203.125 194.896C202.749 195.256 202.285 195.532 201.733 195.724C201.189 195.908 200.561 196 199.849 196H197.521ZM198.241 194.728H199.753C200.249 194.728 200.677 194.668 201.037 194.548C201.405 194.42 201.709 194.236 201.949 193.996C202.197 193.748 202.381 193.44 202.501 193.072C202.621 192.696 202.681 192.26 202.681 191.764C202.681 190.772 202.437 190.032 201.949 189.544C201.461 189.056 200.729 188.812 199.753 188.812H198.241V194.728ZM207.634 196.12C207.21 196.12 206.83 196.04 206.494 195.88C206.166 195.712 205.906 195.488 205.714 195.208C205.53 194.928 205.438 194.612 205.438 194.26C205.438 193.828 205.55 193.488 205.774 193.24C205.998 192.984 206.362 192.8 206.866 192.688C207.37 192.576 208.046 192.52 208.894 192.52H209.494V193.384H208.906C208.41 193.384 208.014 193.408 207.718 193.456C207.422 193.504 207.21 193.588 207.082 193.708C206.962 193.82 206.902 193.98 206.902 194.188C206.902 194.452 206.994 194.668 207.178 194.836C207.362 195.004 207.618 195.088 207.946 195.088C208.21 195.088 208.442 195.028 208.642 194.908C208.85 194.78 209.014 194.608 209.134 194.392C209.254 194.176 209.314 193.928 209.314 193.648V192.268C209.314 191.868 209.226 191.58 209.05 191.404C208.874 191.228 208.578 191.14 208.162 191.14C207.93 191.14 207.678 191.168 207.406 191.224C207.142 191.28 206.862 191.376 206.566 191.512C206.414 191.584 206.278 191.604 206.158 191.572C206.046 191.54 205.958 191.476 205.894 191.38C205.83 191.276 205.798 191.164 205.798 191.044C205.798 190.924 205.83 190.808 205.894 190.696C205.958 190.576 206.066 190.488 206.218 190.432C206.586 190.28 206.938 190.172 207.274 190.108C207.618 190.044 207.93 190.012 208.21 190.012C208.786 190.012 209.258 190.1 209.626 190.276C210.002 190.452 210.282 190.72 210.466 191.08C210.65 191.432 210.742 191.888 210.742 192.448V195.328C210.742 195.576 210.682 195.768 210.562 195.904C210.442 196.032 210.27 196.096 210.046 196.096C209.822 196.096 209.646 196.032 209.518 195.904C209.398 195.768 209.338 195.576 209.338 195.328V194.752H209.434C209.378 195.032 209.266 195.276 209.098 195.484C208.938 195.684 208.734 195.84 208.486 195.952C208.238 196.064 207.954 196.12 207.634 196.12ZM213.694 198.256C213.518 198.256 213.374 198.208 213.262 198.112C213.15 198.024 213.082 197.904 213.058 197.752C213.042 197.6 213.07 197.44 213.142 197.272L213.958 195.46V196.084L211.774 191.032C211.702 190.856 211.678 190.692 211.702 190.54C211.726 190.388 211.798 190.268 211.918 190.18C212.046 190.084 212.218 190.036 212.434 190.036C212.618 190.036 212.766 190.08 212.878 190.168C212.99 190.248 213.09 190.404 213.178 190.636L214.798 194.68H214.438L216.094 190.624C216.182 190.4 216.286 190.248 216.406 190.168C216.526 190.08 216.686 190.036 216.886 190.036C217.062 190.036 217.202 190.084 217.306 190.18C217.41 190.268 217.474 190.388 217.498 190.54C217.522 190.684 217.494 190.844 217.414 191.02L214.498 197.68C214.394 197.904 214.282 198.056 214.162 198.136C214.042 198.216 213.886 198.256 213.694 198.256Z" fill="white"/>
</g>
<path d="M157.957 53.0665C159.132 51.1877 161.868 51.1877 163.043 53.0665L168.887 62.4092C170.137 64.4073 168.7 67 166.343 67H154.657C152.3 67 150.863 64.4073 152.113 62.4092L157.957 53.0665Z" fill="white"/>
</g>
<path d="M60.5 12C60.5 5.37258 65.8726 0 72.5 0H248.5C255.127 0 260.5 5.37258 260.5 12V30C260.5 36.6274 255.127 42 248.5 42H72.5C65.8726 42 60.5 36.6274 60.5 30V12Z" fill="#64728C" fill-opacity="0.12"/>
<path d="M108.793 25.12C108.441 25.12 108.089 25.092 107.737 25.036C107.385 24.988 107.053 24.912 106.741 24.808C106.429 24.696 106.149 24.56 105.901 24.4C105.757 24.304 105.657 24.188 105.601 24.052C105.545 23.916 105.525 23.784 105.541 23.656C105.565 23.52 105.617 23.404 105.697 23.308C105.785 23.204 105.893 23.14 106.021 23.116C106.149 23.092 106.289 23.128 106.441 23.224C106.793 23.432 107.165 23.584 107.557 23.68C107.949 23.776 108.361 23.824 108.793 23.824C109.425 23.824 109.885 23.72 110.173 23.512C110.461 23.296 110.605 23.02 110.605 22.684C110.605 22.404 110.501 22.184 110.293 22.024C110.093 21.864 109.745 21.732 109.249 21.628L107.929 21.352C107.169 21.192 106.601 20.924 106.225 20.548C105.857 20.164 105.673 19.66 105.673 19.036C105.673 18.644 105.753 18.288 105.913 17.968C106.073 17.648 106.297 17.372 106.585 17.14C106.881 16.908 107.229 16.732 107.629 16.612C108.037 16.484 108.485 16.42 108.973 16.42C109.453 16.42 109.909 16.48 110.341 16.6C110.773 16.72 111.161 16.896 111.505 17.128C111.633 17.216 111.717 17.324 111.757 17.452C111.805 17.58 111.817 17.708 111.793 17.836C111.769 17.956 111.713 18.06 111.625 18.148C111.537 18.236 111.425 18.288 111.289 18.304C111.161 18.32 111.013 18.28 110.845 18.184C110.549 18.016 110.249 17.896 109.945 17.824C109.641 17.752 109.313 17.716 108.961 17.716C108.593 17.716 108.277 17.768 108.013 17.872C107.749 17.976 107.545 18.124 107.401 18.316C107.265 18.5 107.197 18.72 107.197 18.976C107.197 19.264 107.293 19.496 107.485 19.672C107.677 19.84 108.005 19.972 108.469 20.068L109.777 20.344C110.569 20.512 111.157 20.776 111.541 21.136C111.933 21.496 112.129 21.976 112.129 22.576C112.129 22.96 112.049 23.308 111.889 23.62C111.737 23.932 111.513 24.2 111.217 24.424C110.929 24.648 110.581 24.82 110.173 24.94C109.765 25.06 109.305 25.12 108.793 25.12ZM116.195 25.12C115.531 25.12 114.959 24.996 114.479 24.748C113.999 24.5 113.627 24.148 113.363 23.692C113.107 23.236 112.979 22.696 112.979 22.072C112.979 21.464 113.103 20.932 113.351 20.476C113.607 20.02 113.955 19.664 114.395 19.408C114.843 19.144 115.351 19.012 115.919 19.012C116.335 19.012 116.707 19.08 117.035 19.216C117.371 19.352 117.655 19.548 117.887 19.804C118.127 20.06 118.307 20.372 118.427 20.74C118.555 21.1 118.619 21.508 118.619 21.964C118.619 22.108 118.567 22.22 118.463 22.3C118.367 22.372 118.227 22.408 118.043 22.408H114.191V21.544H117.563L117.371 21.724C117.371 21.356 117.315 21.048 117.203 20.8C117.099 20.552 116.943 20.364 116.735 20.236C116.535 20.1 116.283 20.032 115.979 20.032C115.643 20.032 115.355 20.112 115.115 20.272C114.883 20.424 114.703 20.644 114.575 20.932C114.455 21.212 114.395 21.548 114.395 21.94V22.024C114.395 22.68 114.547 23.172 114.851 23.5C115.163 23.82 115.619 23.98 116.219 23.98C116.427 23.98 116.659 23.956 116.915 23.908C117.179 23.852 117.427 23.76 117.659 23.632C117.827 23.536 117.975 23.496 118.103 23.512C118.231 23.52 118.331 23.564 118.403 23.644C118.483 23.724 118.531 23.824 118.547 23.944C118.563 24.056 118.539 24.172 118.475 24.292C118.419 24.412 118.319 24.516 118.175 24.604C117.895 24.78 117.571 24.912 117.203 25C116.843 25.08 116.507 25.12 116.195 25.12ZM121.811 25.12C121.147 25.12 120.647 24.932 120.311 24.556C119.975 24.172 119.807 23.612 119.807 22.876V17.2C119.807 16.952 119.871 16.764 119.999 16.636C120.127 16.508 120.311 16.444 120.551 16.444C120.791 16.444 120.975 16.508 121.103 16.636C121.239 16.764 121.307 16.952 121.307 17.2V22.804C121.307 23.172 121.383 23.444 121.535 23.62C121.695 23.796 121.919 23.884 122.207 23.884C122.271 23.884 122.331 23.884 122.387 23.884C122.443 23.876 122.499 23.868 122.555 23.86C122.667 23.844 122.743 23.876 122.783 23.956C122.823 24.028 122.843 24.18 122.843 24.412C122.843 24.612 122.803 24.768 122.723 24.88C122.643 24.992 122.511 25.06 122.327 25.084C122.247 25.092 122.163 25.1 122.075 25.108C121.987 25.116 121.899 25.12 121.811 25.12ZM126.473 25.12C125.809 25.12 125.237 24.996 124.757 24.748C124.277 24.5 123.905 24.148 123.641 23.692C123.385 23.236 123.257 22.696 123.257 22.072C123.257 21.464 123.381 20.932 123.629 20.476C123.885 20.02 124.233 19.664 124.673 19.408C125.121 19.144 125.629 19.012 126.197 19.012C126.613 19.012 126.985 19.08 127.313 19.216C127.649 19.352 127.933 19.548 128.165 19.804C128.405 20.06 128.585 20.372 128.705 20.74C128.833 21.1 128.897 21.508 128.897 21.964C128.897 22.108 128.845 22.22 128.741 22.3C128.645 22.372 128.505 22.408 128.321 22.408H124.469V21.544H127.841L127.649 21.724C127.649 21.356 127.593 21.048 127.481 20.8C127.377 20.552 127.221 20.364 127.013 20.236C126.813 20.1 126.561 20.032 126.257 20.032C125.921 20.032 125.633 20.112 125.393 20.272C125.161 20.424 124.981 20.644 124.853 20.932C124.733 21.212 124.673 21.548 124.673 21.94V22.024C124.673 22.68 124.825 23.172 125.129 23.5C125.441 23.82 125.897 23.98 126.497 23.98C126.705 23.98 126.937 23.956 127.193 23.908C127.457 23.852 127.705 23.76 127.937 23.632C128.105 23.536 128.253 23.496 128.381 23.512C128.509 23.52 128.609 23.564 128.681 23.644C128.761 23.724 128.809 23.824 128.825 23.944C128.841 24.056 128.817 24.172 128.753 24.292C128.697 24.412 128.597 24.516 128.453 24.604C128.173 24.78 127.849 24.912 127.481 25C127.121 25.08 126.785 25.12 126.473 25.12ZM132.797 25.12C132.181 25.12 131.645 24.996 131.189 24.748C130.733 24.492 130.381 24.132 130.133 23.668C129.885 23.204 129.761 22.66 129.761 22.036C129.761 21.564 129.829 21.144 129.965 20.776C130.109 20.4 130.313 20.084 130.577 19.828C130.841 19.564 131.161 19.364 131.537 19.228C131.913 19.084 132.333 19.012 132.797 19.012C133.061 19.012 133.345 19.048 133.649 19.12C133.961 19.192 134.253 19.312 134.525 19.48C134.653 19.56 134.737 19.656 134.777 19.768C134.817 19.88 134.825 19.996 134.801 20.116C134.777 20.228 134.725 20.328 134.645 20.416C134.573 20.496 134.481 20.548 134.369 20.572C134.257 20.588 134.133 20.56 133.997 20.488C133.821 20.384 133.641 20.308 133.457 20.26C133.273 20.204 133.097 20.176 132.929 20.176C132.665 20.176 132.433 20.22 132.233 20.308C132.033 20.388 131.861 20.508 131.717 20.668C131.581 20.82 131.477 21.012 131.405 21.244C131.333 21.476 131.297 21.744 131.297 22.048C131.297 22.64 131.437 23.108 131.717 23.452C132.005 23.788 132.409 23.956 132.929 23.956C133.097 23.956 133.269 23.932 133.445 23.884C133.629 23.836 133.813 23.76 133.997 23.656C134.133 23.584 134.253 23.56 134.357 23.584C134.469 23.608 134.561 23.664 134.633 23.752C134.705 23.832 134.749 23.932 134.765 24.052C134.781 24.164 134.765 24.276 134.717 24.388C134.677 24.5 134.597 24.592 134.477 24.664C134.213 24.824 133.933 24.94 133.637 25.012C133.341 25.084 133.061 25.12 132.797 25.12ZM138.456 25.12C137.936 25.12 137.5 25.032 137.148 24.856C136.804 24.68 136.548 24.424 136.38 24.088C136.212 23.744 136.128 23.32 136.128 22.816V20.26H135.504C135.312 20.26 135.164 20.212 135.06 20.116C134.956 20.012 134.904 19.872 134.904 19.696C134.904 19.512 134.956 19.372 135.06 19.276C135.164 19.18 135.312 19.132 135.504 19.132H136.128V18.04C136.128 17.792 136.192 17.604 136.32 17.476C136.456 17.348 136.644 17.284 136.884 17.284C137.124 17.284 137.308 17.348 137.436 17.476C137.564 17.604 137.628 17.792 137.628 18.04V19.132H138.9C139.092 19.132 139.24 19.18 139.344 19.276C139.448 19.372 139.5 19.512 139.5 19.696C139.5 19.872 139.448 20.012 139.344 20.116C139.24 20.212 139.092 20.26 138.9 20.26H137.628V22.732C137.628 23.116 137.712 23.404 137.88 23.596C138.048 23.788 138.32 23.884 138.696 23.884C138.832 23.884 138.952 23.872 139.056 23.848C139.16 23.824 139.252 23.808 139.332 23.8C139.428 23.792 139.508 23.824 139.572 23.896C139.636 23.96 139.668 24.096 139.668 24.304C139.668 24.464 139.64 24.608 139.584 24.736C139.536 24.856 139.444 24.94 139.308 24.988C139.204 25.02 139.068 25.048 138.9 25.072C138.732 25.104 138.584 25.12 138.456 25.12ZM146.752 25.096C146.536 25.096 146.36 25.044 146.224 24.94C146.096 24.836 145.992 24.672 145.912 24.448L143.404 17.356C143.316 17.1 143.332 16.884 143.452 16.708C143.58 16.532 143.792 16.444 144.088 16.444C144.304 16.444 144.472 16.496 144.592 16.6C144.712 16.696 144.808 16.852 144.88 17.068L147.04 23.476H146.56L148.816 17.08C148.896 16.864 148.996 16.704 149.116 16.6C149.236 16.496 149.392 16.444 149.584 16.444C149.776 16.444 149.928 16.496 150.04 16.6C150.152 16.704 150.248 16.868 150.328 17.092L152.512 23.476H152.092L154.288 17.068C154.36 16.86 154.456 16.704 154.576 16.6C154.696 16.496 154.86 16.444 155.068 16.444C155.324 16.444 155.512 16.532 155.632 16.708C155.752 16.884 155.768 17.1 155.68 17.356L153.148 24.46C153.068 24.676 152.964 24.836 152.836 24.94C152.708 25.044 152.536 25.096 152.32 25.096C152.104 25.096 151.932 25.044 151.804 24.94C151.676 24.836 151.572 24.672 151.492 24.448L149.404 18.496H149.68L147.568 24.46C147.488 24.676 147.384 24.836 147.256 24.94C147.136 25.044 146.968 25.096 146.752 25.096ZM158.917 25.12C158.309 25.12 157.781 24.996 157.333 24.748C156.885 24.5 156.537 24.148 156.289 23.692C156.041 23.228 155.917 22.684 155.917 22.06C155.917 21.588 155.985 21.168 156.121 20.8C156.265 20.424 156.469 20.104 156.733 19.84C156.997 19.568 157.313 19.364 157.681 19.228C158.049 19.084 158.461 19.012 158.917 19.012C159.525 19.012 160.053 19.136 160.501 19.384C160.949 19.632 161.297 19.984 161.545 20.44C161.793 20.896 161.917 21.436 161.917 22.06C161.917 22.532 161.845 22.956 161.701 23.332C161.565 23.708 161.365 24.032 161.101 24.304C160.837 24.568 160.521 24.772 160.153 24.916C159.785 25.052 159.373 25.12 158.917 25.12ZM158.917 23.98C159.213 23.98 159.473 23.908 159.697 23.764C159.921 23.62 160.093 23.408 160.213 23.128C160.341 22.84 160.405 22.484 160.405 22.06C160.405 21.42 160.269 20.944 159.997 20.632C159.725 20.312 159.365 20.152 158.917 20.152C158.621 20.152 158.361 20.224 158.137 20.368C157.913 20.504 157.737 20.716 157.609 21.004C157.489 21.284 157.429 21.636 157.429 22.06C157.429 22.692 157.565 23.172 157.837 23.5C158.109 23.82 158.469 23.98 158.917 23.98ZM163.923 25.096C163.675 25.096 163.483 25.032 163.347 24.904C163.219 24.768 163.155 24.576 163.155 24.328V19.792C163.155 19.544 163.219 19.356 163.347 19.228C163.475 19.1 163.655 19.036 163.887 19.036C164.119 19.036 164.299 19.1 164.427 19.228C164.555 19.356 164.619 19.544 164.619 19.792V20.548H164.499C164.611 20.068 164.831 19.704 165.159 19.456C165.487 19.208 165.923 19.06 166.467 19.012C166.635 18.996 166.767 19.04 166.863 19.144C166.967 19.24 167.027 19.392 167.043 19.6C167.059 19.8 167.011 19.964 166.899 20.092C166.795 20.212 166.635 20.284 166.419 20.308L166.155 20.332C165.667 20.38 165.299 20.532 165.051 20.788C164.803 21.036 164.679 21.388 164.679 21.844V24.328C164.679 24.576 164.615 24.768 164.487 24.904C164.359 25.032 164.171 25.096 163.923 25.096ZM168.598 25.096C168.358 25.096 168.174 25.032 168.046 24.904C167.918 24.768 167.854 24.576 167.854 24.328V17.2C167.854 16.952 167.918 16.764 168.046 16.636C168.174 16.508 168.358 16.444 168.598 16.444C168.838 16.444 169.022 16.508 169.15 16.636C169.286 16.764 169.354 16.952 169.354 17.2V21.628H169.378L171.358 19.54C171.518 19.38 171.658 19.256 171.778 19.168C171.898 19.08 172.062 19.036 172.27 19.036C172.478 19.036 172.634 19.092 172.738 19.204C172.85 19.308 172.906 19.436 172.906 19.588C172.906 19.74 172.834 19.892 172.69 20.044L170.602 22.252V21.628L172.894 24.1C173.038 24.252 173.102 24.408 173.086 24.568C173.078 24.72 173.014 24.848 172.894 24.952C172.774 25.048 172.622 25.096 172.438 25.096C172.214 25.096 172.034 25.052 171.898 24.964C171.77 24.876 171.626 24.744 171.466 24.568L169.378 22.384H169.354V24.328C169.354 24.84 169.102 25.096 168.598 25.096ZM175.032 25.084C174.792 25.084 174.608 25.012 174.48 24.868C174.352 24.724 174.288 24.524 174.288 24.268V19.864C174.288 19.6 174.352 19.4 174.48 19.264C174.608 19.12 174.792 19.048 175.032 19.048C175.272 19.048 175.456 19.12 175.584 19.264C175.72 19.4 175.788 19.6 175.788 19.864V24.268C175.788 24.524 175.724 24.724 175.596 24.868C175.468 25.012 175.28 25.084 175.032 25.084ZM175.032 17.932C174.752 17.932 174.532 17.864 174.372 17.728C174.22 17.584 174.144 17.388 174.144 17.14C174.144 16.884 174.22 16.688 174.372 16.552C174.532 16.416 174.752 16.348 175.032 16.348C175.32 16.348 175.54 16.416 175.692 16.552C175.844 16.688 175.92 16.884 175.92 17.14C175.92 17.388 175.844 17.584 175.692 17.728C175.54 17.864 175.32 17.932 175.032 17.932ZM178.09 25.096C177.85 25.096 177.666 25.032 177.538 24.904C177.41 24.768 177.346 24.576 177.346 24.328V19.792C177.346 19.544 177.41 19.356 177.538 19.228C177.666 19.1 177.846 19.036 178.078 19.036C178.31 19.036 178.49 19.1 178.618 19.228C178.746 19.356 178.81 19.544 178.81 19.792V20.608L178.678 20.308C178.854 19.884 179.126 19.564 179.494 19.348C179.87 19.124 180.294 19.012 180.766 19.012C181.238 19.012 181.626 19.1 181.93 19.276C182.234 19.452 182.462 19.72 182.614 20.08C182.766 20.432 182.842 20.88 182.842 21.424V24.328C182.842 24.576 182.778 24.768 182.65 24.904C182.522 25.032 182.338 25.096 182.098 25.096C181.858 25.096 181.67 25.032 181.534 24.904C181.406 24.768 181.342 24.576 181.342 24.328V21.496C181.342 21.04 181.254 20.708 181.078 20.5C180.91 20.292 180.646 20.188 180.286 20.188C179.846 20.188 179.494 20.328 179.23 20.608C178.974 20.88 178.846 21.244 178.846 21.7V24.328C178.846 24.84 178.594 25.096 178.09 25.096ZM187.102 27.28C186.67 27.28 186.25 27.24 185.842 27.16C185.442 27.08 185.078 26.956 184.75 26.788C184.598 26.708 184.494 26.612 184.438 26.5C184.39 26.388 184.374 26.272 184.39 26.152C184.414 26.04 184.462 25.94 184.534 25.852C184.614 25.764 184.71 25.704 184.822 25.672C184.934 25.64 185.05 25.656 185.17 25.72C185.522 25.896 185.854 26.008 186.166 26.056C186.486 26.112 186.758 26.14 186.982 26.14C187.518 26.14 187.918 26.008 188.182 25.744C188.454 25.488 188.59 25.104 188.59 24.592V23.512H188.698C188.578 23.92 188.326 24.248 187.942 24.496C187.566 24.736 187.138 24.856 186.658 24.856C186.13 24.856 185.67 24.736 185.278 24.496C184.886 24.248 184.582 23.904 184.366 23.464C184.15 23.024 184.042 22.512 184.042 21.928C184.042 21.488 184.102 21.092 184.222 20.74C184.35 20.38 184.526 20.072 184.75 19.816C184.982 19.56 185.258 19.364 185.578 19.228C185.906 19.084 186.266 19.012 186.658 19.012C187.154 19.012 187.586 19.136 187.954 19.384C188.33 19.624 188.574 19.944 188.686 20.344L188.566 20.644V19.792C188.566 19.544 188.63 19.356 188.758 19.228C188.894 19.1 189.078 19.036 189.31 19.036C189.55 19.036 189.734 19.1 189.862 19.228C189.99 19.356 190.054 19.544 190.054 19.792V24.412C190.054 25.364 189.802 26.08 189.298 26.56C188.794 27.04 188.062 27.28 187.102 27.28ZM187.066 23.716C187.378 23.716 187.646 23.644 187.87 23.5C188.094 23.356 188.266 23.152 188.386 22.888C188.514 22.616 188.578 22.296 188.578 21.928C188.578 21.376 188.442 20.944 188.17 20.632C187.898 20.312 187.53 20.152 187.066 20.152C186.754 20.152 186.486 20.224 186.262 20.368C186.038 20.512 185.862 20.716 185.734 20.98C185.614 21.244 185.554 21.56 185.554 21.928C185.554 22.48 185.69 22.916 185.962 23.236C186.234 23.556 186.602 23.716 187.066 23.716ZM195.826 25C195.562 25 195.358 24.932 195.214 24.796C195.078 24.652 195.01 24.448 195.01 24.184V17.356C195.01 17.092 195.078 16.892 195.214 16.756C195.358 16.612 195.562 16.54 195.826 16.54H198.154C199.57 16.54 200.662 16.904 201.43 17.632C202.206 18.36 202.594 19.404 202.594 20.764C202.594 21.444 202.494 22.048 202.294 22.576C202.102 23.096 201.814 23.536 201.43 23.896C201.054 24.256 200.59 24.532 200.038 24.724C199.494 24.908 198.866 25 198.154 25H195.826ZM196.546 23.728H198.058C198.554 23.728 198.982 23.668 199.342 23.548C199.71 23.42 200.014 23.236 200.254 22.996C200.502 22.748 200.686 22.44 200.806 22.072C200.926 21.696 200.986 21.26 200.986 20.764C200.986 19.772 200.742 19.032 200.254 18.544C199.766 18.056 199.034 17.812 198.058 17.812H196.546V23.728ZM205.939 25.12C205.515 25.12 205.135 25.04 204.799 24.88C204.471 24.712 204.211 24.488 204.019 24.208C203.835 23.928 203.743 23.612 203.743 23.26C203.743 22.828 203.855 22.488 204.079 22.24C204.303 21.984 204.667 21.8 205.171 21.688C205.675 21.576 206.351 21.52 207.199 21.52H207.799V22.384H207.211C206.715 22.384 206.319 22.408 206.023 22.456C205.727 22.504 205.515 22.588 205.387 22.708C205.267 22.82 205.207 22.98 205.207 23.188C205.207 23.452 205.299 23.668 205.483 23.836C205.667 24.004 205.923 24.088 206.251 24.088C206.515 24.088 206.747 24.028 206.947 23.908C207.155 23.78 207.319 23.608 207.439 23.392C207.559 23.176 207.619 22.928 207.619 22.648V21.268C207.619 20.868 207.531 20.58 207.355 20.404C207.179 20.228 206.883 20.14 206.467 20.14C206.235 20.14 205.983 20.168 205.711 20.224C205.447 20.28 205.167 20.376 204.871 20.512C204.719 20.584 204.583 20.604 204.463 20.572C204.351 20.54 204.263 20.476 204.199 20.38C204.135 20.276 204.103 20.164 204.103 20.044C204.103 19.924 204.135 19.808 204.199 19.696C204.263 19.576 204.371 19.488 204.523 19.432C204.891 19.28 205.243 19.172 205.579 19.108C205.923 19.044 206.235 19.012 206.515 19.012C207.091 19.012 207.563 19.1 207.931 19.276C208.307 19.452 208.587 19.72 208.771 20.08C208.955 20.432 209.047 20.888 209.047 21.448V24.328C209.047 24.576 208.987 24.768 208.867 24.904C208.747 25.032 208.575 25.096 208.351 25.096C208.127 25.096 207.951 25.032 207.823 24.904C207.703 24.768 207.643 24.576 207.643 24.328V23.752H207.739C207.683 24.032 207.571 24.276 207.403 24.484C207.243 24.684 207.039 24.84 206.791 24.952C206.543 25.064 206.259 25.12 205.939 25.12ZM211.998 27.256C211.822 27.256 211.678 27.208 211.566 27.112C211.454 27.024 211.386 26.904 211.362 26.752C211.346 26.6 211.374 26.44 211.446 26.272L212.262 24.46V25.084L210.078 20.032C210.006 19.856 209.982 19.692 210.006 19.54C210.03 19.388 210.102 19.268 210.222 19.18C210.35 19.084 210.522 19.036 210.738 19.036C210.922 19.036 211.07 19.08 211.182 19.168C211.294 19.248 211.394 19.404 211.482 19.636L213.102 23.68H212.742L214.398 19.624C214.486 19.4 214.59 19.248 214.71 19.168C214.83 19.08 214.99 19.036 215.19 19.036C215.366 19.036 215.506 19.084 215.61 19.18C215.714 19.268 215.778 19.388 215.802 19.54C215.826 19.684 215.798 19.844 215.718 20.02L212.802 26.68C212.698 26.904 212.586 27.056 212.466 27.136C212.346 27.216 212.19 27.256 211.998 27.256Z" fill="#64728C"/>
<defs>
<filter id="filter0_d_1268_16632" x="0" y="5.65723" width="321" height="281.343" filterUnits="userSpaceOnUse" color-interpolation-filters="sRGB">
<feFlood flood-opacity="0" result="BackgroundImageFix"/>
<feColorMatrix in="SourceAlpha" type="matrix" values="0 0 0 0 0 0 0 0 0 0 0 0 0 0 0 0 0 0 127 0" result="hardAlpha"/>
<feOffset dy="4"/>
<feGaussianBlur stdDeviation="25"/>
<feComposite in2="hardAlpha" operator="out"/>
<feColorMatrix type="matrix" values="0 0 0 0 0 0 0 0 0 0 0 0 0 0 0 0 0 0 0.05 0"/>
<feBlend mode="normal" in2="BackgroundImageFix" result="effect1_dropShadow_1268_16632"/>
<feBlend mode="normal" in="SourceGraphic" in2="effect1_dropShadow_1268_16632" result="shape"/>
</filter>
<filter id="filter1_d_1268_16632" x="46" y="63" width="229" height="178" filterUnits="userSpaceOnUse" color-interpolation-filters="sRGB">
<feFlood flood-opacity="0" result="BackgroundImageFix"/>
<feColorMatrix in="SourceAlpha" type="matrix" values="0 0 0 0 0 0 0 0 0 0 0 0 0 0 0 0 0 0 127 0" result="hardAlpha"/>
<feOffset dy="4"/>
<feGaussianBlur stdDeviation="2"/>
<feComposite in2="hardAlpha" operator="out"/>
<feColorMatrix type="matrix" values="0 0 0 0 0 0 0 0 0 0 0 0 0 0 0 0 0 0 0.05 0"/>
<feBlend mode="normal" in2="BackgroundImageFix" result="effect1_dropShadow_1268_16632"/>
<feBlend mode="normal" in="SourceGraphic" in2="effect1_dropShadow_1268_16632" result="shape"/>
</filter>
<clipPath id="clip0_1268_16632">
<rect width="16" height="16" fill="white" transform="translate(86 138)"/>
</clipPath>
<clipPath id="clip1_1268_16632">
<rect width="16" height="16" fill="white" transform="translate(86 184)"/>
</clipPath>
</defs>
</svg>
