<svg width="321" height="287" viewBox="0 0 321 287" fill="none" xmlns="http://www.w3.org/2000/svg">
<g filter="url(#filter0_d_999_3466)">
<g filter="url(#filter1_d_999_3466)">
<rect x="50" y="63" width="221" height="170" rx="18" fill="#E8EAEF"/>
<rect x="50.5" y="63.5" width="220" height="169" rx="17.5" stroke="#64728C" stroke-opacity="0.21"/>
<rect x="50" y="63" width="221" height="166" rx="18" fill="white"/>
<path d="M66 91C66 84.3726 71.3726 79 78 79H243C249.627 79 255 84.3726 255 91V109C255 115.627 249.627 121 243 121H78C71.3726 121 66 115.627 66 109V91Z" fill="#F5FAE5"/>
<g clip-path="url(#clip0_999_3466)">
<path d="M89.8325 99.665C89.8325 101.811 91.5188 103.498 93.665 103.498C95.8112 103.498 97.4975 101.811 97.4975 99.665C97.4975 97.5188 95.8112 95.8325 93.665 95.8325C91.5188 95.8325 89.8325 97.5188 89.8325 99.665ZM93.665 97.3655C94.9681 97.3655 95.9645 98.362 95.9645 99.665C95.9645 100.968 94.9681 101.965 93.665 101.965C92.362 101.965 91.3655 100.968 91.3655 99.665C91.3655 98.362 92.362 97.3655 93.665 97.3655Z" fill="#178917"/>
<path d="M94.4314 94.2995V92.7665C94.4314 92.3066 94.1248 92 93.6649 92C93.205 92 92.8984 92.3066 92.8984 92.7665V94.2995C92.8984 94.7594 93.205 95.066 93.6649 95.066C94.1248 95.066 94.4314 94.7594 94.4314 94.2995Z" fill="#178917"/>
<path d="M99.1071 94.2231C98.8005 93.9165 98.3406 93.9165 98.034 94.2231L96.9609 95.2962C96.6543 95.6028 96.6543 96.0627 96.9609 96.3693C97.1142 96.5226 97.3442 96.5993 97.4975 96.5993C97.6508 96.5993 97.8807 96.5226 98.034 96.3693L99.1071 95.2962C99.4137 95.0663 99.4137 94.5297 99.1071 94.2231Z" fill="#178917"/>
<path d="M100.563 98.8984H99.0302C98.5703 98.8984 98.2637 99.205 98.2637 99.6649C98.2637 100.125 98.5703 100.431 99.0302 100.431H100.563C101.023 100.431 101.33 100.125 101.33 99.6649C101.33 99.205 101.023 98.8984 100.563 98.8984Z" fill="#178917"/>
<path d="M98.034 102.884C97.7274 102.578 97.2675 102.578 96.9609 102.884C96.6543 103.191 96.6543 103.651 96.9609 103.957L98.034 105.03C98.1873 105.184 98.4173 105.26 98.5706 105.26C98.7239 105.26 98.9538 105.184 99.1071 105.03C99.4137 104.724 99.4137 104.264 99.1071 103.957L98.034 102.884Z" fill="#178917"/>
<path d="M92.8984 105.03V106.563C92.8984 107.023 93.205 107.33 93.6649 107.33C94.1248 107.33 94.4314 107.023 94.4314 106.563V105.03C94.4314 104.57 94.1248 104.264 93.6649 104.264C93.205 104.264 92.8984 104.57 92.8984 105.03Z" fill="#178917"/>
<path d="M88.2231 105.107C88.3764 105.26 88.6064 105.337 88.7597 105.337C88.913 105.337 89.1429 105.26 89.2962 105.107L90.3693 104.034C90.6759 103.727 90.6759 103.268 90.3693 102.961C90.0627 102.654 89.6028 102.654 89.2962 102.961L88.2231 104.034C87.9165 104.264 87.9165 104.801 88.2231 105.107Z" fill="#178917"/>
<path d="M86 99.6649C86 100.125 86.3066 100.431 86.7665 100.431H88.2995C88.7594 100.431 89.066 100.125 89.066 99.6649C89.066 99.205 88.7594 98.8984 88.2995 98.8984H86.7665C86.3066 98.8984 86 99.205 86 99.6649Z" fill="#178917"/>
<path d="M89.2962 94.2231C88.9896 93.9165 88.5297 93.9165 88.2231 94.2231C87.9165 94.5297 87.9165 94.9896 88.2231 95.2962L89.2962 96.3693C89.4495 96.5993 89.6795 96.6759 89.9094 96.6759C90.1394 96.6759 90.2927 96.5993 90.446 96.446C90.7526 96.1394 90.7526 95.6795 90.446 95.3729L89.2962 94.2231Z" fill="#178917"/>
</g>
<path d="M111.74 104C111.476 104 111.272 103.932 111.128 103.796C110.992 103.652 110.924 103.448 110.924 103.184V96.356C110.924 96.092 110.992 95.892 111.128 95.756C111.272 95.612 111.476 95.54 111.74 95.54H114.068C115.484 95.54 116.576 95.904 117.344 96.632C118.12 97.36 118.508 98.404 118.508 99.764C118.508 100.444 118.408 101.048 118.208 101.576C118.016 102.096 117.728 102.536 117.344 102.896C116.968 103.256 116.504 103.532 115.952 103.724C115.408 103.908 114.78 104 114.068 104H111.74ZM112.46 102.728H113.972C114.468 102.728 114.896 102.668 115.256 102.548C115.624 102.42 115.928 102.236 116.168 101.996C116.416 101.748 116.6 101.44 116.72 101.072C116.84 100.696 116.9 100.26 116.9 99.764C116.9 98.772 116.656 98.032 116.168 97.544C115.68 97.056 114.948 96.812 113.972 96.812H112.46V102.728ZM121.853 104.12C121.429 104.12 121.049 104.04 120.713 103.88C120.385 103.712 120.125 103.488 119.933 103.208C119.749 102.928 119.657 102.612 119.657 102.26C119.657 101.828 119.769 101.488 119.993 101.24C120.217 100.984 120.581 100.8 121.085 100.688C121.589 100.576 122.265 100.52 123.113 100.52H123.713V101.384H123.125C122.629 101.384 122.233 101.408 121.937 101.456C121.641 101.504 121.429 101.588 121.301 101.708C121.181 101.82 121.121 101.98 121.121 102.188C121.121 102.452 121.213 102.668 121.397 102.836C121.581 103.004 121.837 103.088 122.165 103.088C122.429 103.088 122.661 103.028 122.861 102.908C123.069 102.78 123.233 102.608 123.353 102.392C123.473 102.176 123.533 101.928 123.533 101.648V100.268C123.533 99.868 123.445 99.58 123.269 99.404C123.093 99.228 122.797 99.14 122.381 99.14C122.149 99.14 121.897 99.168 121.625 99.224C121.361 99.28 121.081 99.376 120.785 99.512C120.633 99.584 120.497 99.604 120.377 99.572C120.265 99.54 120.177 99.476 120.113 99.38C120.049 99.276 120.017 99.164 120.017 99.044C120.017 98.924 120.049 98.808 120.113 98.696C120.177 98.576 120.285 98.488 120.437 98.432C120.805 98.28 121.157 98.172 121.493 98.108C121.837 98.044 122.149 98.012 122.429 98.012C123.005 98.012 123.477 98.1 123.845 98.276C124.221 98.452 124.501 98.72 124.685 99.08C124.869 99.432 124.961 99.888 124.961 100.448V103.328C124.961 103.576 124.901 103.768 124.781 103.904C124.661 104.032 124.489 104.096 124.265 104.096C124.041 104.096 123.865 104.032 123.737 103.904C123.617 103.768 123.557 103.576 123.557 103.328V102.752H123.653C123.597 103.032 123.485 103.276 123.317 103.484C123.157 103.684 122.953 103.84 122.705 103.952C122.457 104.064 122.173 104.12 121.853 104.12ZM127.913 106.256C127.737 106.256 127.593 106.208 127.481 106.112C127.369 106.024 127.301 105.904 127.277 105.752C127.261 105.6 127.289 105.44 127.361 105.272L128.177 103.46V104.084L125.993 99.032C125.921 98.856 125.897 98.692 125.921 98.54C125.945 98.388 126.017 98.268 126.137 98.18C126.265 98.084 126.437 98.036 126.653 98.036C126.837 98.036 126.985 98.08 127.097 98.168C127.209 98.248 127.309 98.404 127.397 98.636L129.017 102.68H128.657L130.313 98.624C130.401 98.4 130.505 98.248 130.625 98.168C130.745 98.08 130.905 98.036 131.105 98.036C131.281 98.036 131.421 98.084 131.525 98.18C131.629 98.268 131.693 98.388 131.717 98.54C131.741 98.684 131.713 98.844 131.633 99.02L128.717 105.68C128.613 105.904 128.501 106.056 128.381 106.136C128.261 106.216 128.105 106.256 127.913 106.256ZM139.059 104.12C138.707 104.12 138.355 104.092 138.003 104.036C137.651 103.988 137.319 103.912 137.007 103.808C136.695 103.696 136.415 103.56 136.167 103.4C136.023 103.304 135.923 103.188 135.867 103.052C135.811 102.916 135.791 102.784 135.807 102.656C135.831 102.52 135.883 102.404 135.963 102.308C136.051 102.204 136.159 102.14 136.287 102.116C136.415 102.092 136.555 102.128 136.707 102.224C137.059 102.432 137.431 102.584 137.823 102.68C138.215 102.776 138.627 102.824 139.059 102.824C139.691 102.824 140.151 102.72 140.439 102.512C140.727 102.296 140.871 102.02 140.871 101.684C140.871 101.404 140.767 101.184 140.559 101.024C140.359 100.864 140.011 100.732 139.515 100.628L138.195 100.352C137.435 100.192 136.867 99.924 136.491 99.548C136.123 99.164 135.939 98.66 135.939 98.036C135.939 97.644 136.019 97.288 136.179 96.968C136.339 96.648 136.563 96.372 136.851 96.14C137.147 95.908 137.495 95.732 137.895 95.612C138.303 95.484 138.751 95.42 139.239 95.42C139.719 95.42 140.175 95.48 140.607 95.6C141.039 95.72 141.427 95.896 141.771 96.128C141.899 96.216 141.983 96.324 142.023 96.452C142.071 96.58 142.083 96.708 142.059 96.836C142.035 96.956 141.979 97.06 141.891 97.148C141.803 97.236 141.691 97.288 141.555 97.304C141.427 97.32 141.279 97.28 141.111 97.184C140.815 97.016 140.515 96.896 140.211 96.824C139.907 96.752 139.579 96.716 139.227 96.716C138.859 96.716 138.543 96.768 138.279 96.872C138.015 96.976 137.811 97.124 137.667 97.316C137.531 97.5 137.463 97.72 137.463 97.976C137.463 98.264 137.559 98.496 137.751 98.672C137.943 98.84 138.271 98.972 138.735 99.068L140.043 99.344C140.835 99.512 141.423 99.776 141.807 100.136C142.199 100.496 142.395 100.976 142.395 101.576C142.395 101.96 142.315 102.308 142.155 102.62C142.003 102.932 141.779 103.2 141.483 103.424C141.195 103.648 140.847 103.82 140.439 103.94C140.031 104.06 139.571 104.12 139.059 104.12ZM144.313 104.096C144.073 104.096 143.889 104.032 143.761 103.904C143.633 103.768 143.569 103.576 143.569 103.328V96.2C143.569 95.952 143.633 95.764 143.761 95.636C143.889 95.508 144.073 95.444 144.313 95.444C144.553 95.444 144.737 95.508 144.865 95.636C145.001 95.764 145.069 95.952 145.069 96.2V99.308H144.901C145.077 98.884 145.349 98.564 145.717 98.348C146.093 98.124 146.517 98.012 146.989 98.012C147.461 98.012 147.849 98.1 148.153 98.276C148.457 98.452 148.685 98.72 148.837 99.08C148.989 99.432 149.065 99.88 149.065 100.424V103.328C149.065 103.576 149.001 103.768 148.873 103.904C148.745 104.032 148.561 104.096 148.321 104.096C148.081 104.096 147.893 104.032 147.757 103.904C147.629 103.768 147.565 103.576 147.565 103.328V100.496C147.565 100.04 147.477 99.708 147.301 99.5C147.133 99.292 146.869 99.188 146.509 99.188C146.069 99.188 145.717 99.328 145.453 99.608C145.197 99.88 145.069 100.244 145.069 100.7V103.328C145.069 103.84 144.817 104.096 144.313 104.096ZM151.333 104.084C151.093 104.084 150.909 104.012 150.781 103.868C150.653 103.724 150.589 103.524 150.589 103.268V98.864C150.589 98.6 150.653 98.4 150.781 98.264C150.909 98.12 151.093 98.048 151.333 98.048C151.573 98.048 151.757 98.12 151.885 98.264C152.021 98.4 152.089 98.6 152.089 98.864V103.268C152.089 103.524 152.025 103.724 151.897 103.868C151.769 104.012 151.581 104.084 151.333 104.084ZM151.333 96.932C151.053 96.932 150.833 96.864 150.673 96.728C150.521 96.584 150.445 96.388 150.445 96.14C150.445 95.884 150.521 95.688 150.673 95.552C150.833 95.416 151.053 95.348 151.333 95.348C151.621 95.348 151.841 95.416 151.993 95.552C152.145 95.688 152.221 95.884 152.221 96.14C152.221 96.388 152.145 96.584 151.993 96.728C151.841 96.864 151.621 96.932 151.333 96.932ZM154.799 104.096C154.559 104.096 154.371 104.032 154.235 103.904C154.107 103.768 154.043 103.576 154.043 103.328V99.26H153.491C153.299 99.26 153.151 99.212 153.047 99.116C152.943 99.012 152.891 98.872 152.891 98.696C152.891 98.512 152.943 98.372 153.047 98.276C153.151 98.18 153.299 98.132 153.491 98.132H154.475L154.043 98.528V98.12C154.043 97.296 154.251 96.68 154.667 96.272C155.083 95.856 155.683 95.612 156.467 95.54L156.875 95.504C157.035 95.488 157.163 95.516 157.259 95.588C157.355 95.652 157.419 95.74 157.451 95.852C157.483 95.956 157.487 96.064 157.463 96.176C157.439 96.288 157.387 96.388 157.307 96.476C157.235 96.556 157.139 96.6 157.019 96.608L156.851 96.62C156.395 96.652 156.063 96.768 155.855 96.968C155.647 97.168 155.543 97.472 155.543 97.88V98.324L155.351 98.132H156.563C156.755 98.132 156.903 98.18 157.007 98.276C157.111 98.372 157.163 98.512 157.163 98.696C157.163 98.872 157.111 99.012 157.007 99.116C156.903 99.212 156.755 99.26 156.563 99.26H155.543V103.328C155.543 103.84 155.295 104.096 154.799 104.096ZM160.378 104.12C159.858 104.12 159.422 104.032 159.07 103.856C158.726 103.68 158.47 103.424 158.302 103.088C158.134 102.744 158.05 102.32 158.05 101.816V99.26H157.426C157.234 99.26 157.086 99.212 156.982 99.116C156.878 99.012 156.826 98.872 156.826 98.696C156.826 98.512 156.878 98.372 156.982 98.276C157.086 98.18 157.234 98.132 157.426 98.132H158.05V97.04C158.05 96.792 158.114 96.604 158.242 96.476C158.378 96.348 158.566 96.284 158.806 96.284C159.046 96.284 159.23 96.348 159.358 96.476C159.486 96.604 159.55 96.792 159.55 97.04V98.132H160.822C161.014 98.132 161.162 98.18 161.266 98.276C161.37 98.372 161.422 98.512 161.422 98.696C161.422 98.872 161.37 99.012 161.266 99.116C161.162 99.212 161.014 99.26 160.822 99.26H159.55V101.732C159.55 102.116 159.634 102.404 159.802 102.596C159.97 102.788 160.242 102.884 160.618 102.884C160.754 102.884 160.874 102.872 160.978 102.848C161.082 102.824 161.174 102.808 161.254 102.8C161.35 102.792 161.43 102.824 161.494 102.896C161.558 102.96 161.59 103.096 161.59 103.304C161.59 103.464 161.562 103.608 161.506 103.736C161.458 103.856 161.366 103.94 161.23 103.988C161.126 104.02 160.99 104.048 160.822 104.072C160.654 104.104 160.506 104.12 160.378 104.12ZM166.489 104.096C166.241 104.096 166.045 104.028 165.901 103.892C165.765 103.748 165.697 103.544 165.697 103.28V96.356C165.697 96.092 165.765 95.892 165.901 95.756C166.045 95.612 166.249 95.54 166.513 95.54H170.701C170.909 95.54 171.065 95.592 171.169 95.696C171.273 95.8 171.325 95.948 171.325 96.14C171.325 96.34 171.273 96.496 171.169 96.608C171.065 96.712 170.909 96.764 170.701 96.764H167.233V99.152H170.449C170.649 99.152 170.801 99.204 170.905 99.308C171.017 99.412 171.073 99.56 171.073 99.752C171.073 99.952 171.017 100.108 170.905 100.22C170.801 100.324 170.649 100.376 170.449 100.376H167.233V103.28C167.233 103.824 166.985 104.096 166.489 104.096ZM174.263 104.12C173.775 104.12 173.371 104.032 173.051 103.856C172.731 103.672 172.491 103.4 172.331 103.04C172.179 102.68 172.103 102.232 172.103 101.696V98.792C172.103 98.536 172.167 98.348 172.295 98.228C172.423 98.1 172.607 98.036 172.847 98.036C173.087 98.036 173.271 98.1 173.399 98.228C173.535 98.348 173.603 98.536 173.603 98.792V101.72C173.603 102.136 173.687 102.444 173.855 102.644C174.023 102.844 174.291 102.944 174.659 102.944C175.059 102.944 175.387 102.808 175.643 102.536C175.899 102.256 176.027 101.888 176.027 101.432V98.792C176.027 98.536 176.091 98.348 176.219 98.228C176.347 98.1 176.531 98.036 176.771 98.036C177.011 98.036 177.195 98.1 177.323 98.228C177.459 98.348 177.527 98.536 177.527 98.792V103.328C177.527 103.84 177.283 104.096 176.795 104.096C176.563 104.096 176.383 104.032 176.255 103.904C176.127 103.768 176.063 103.576 176.063 103.328V102.416L176.231 102.776C176.063 103.208 175.807 103.54 175.463 103.772C175.127 104.004 174.727 104.12 174.263 104.12ZM181.093 104.12C180.429 104.12 179.929 103.932 179.593 103.556C179.257 103.172 179.089 102.612 179.089 101.876V96.2C179.089 95.952 179.153 95.764 179.281 95.636C179.409 95.508 179.593 95.444 179.833 95.444C180.073 95.444 180.257 95.508 180.385 95.636C180.521 95.764 180.589 95.952 180.589 96.2V101.804C180.589 102.172 180.665 102.444 180.817 102.62C180.977 102.796 181.201 102.884 181.489 102.884C181.553 102.884 181.613 102.884 181.669 102.884C181.725 102.876 181.781 102.868 181.837 102.86C181.949 102.844 182.025 102.876 182.065 102.956C182.105 103.028 182.125 103.18 182.125 103.412C182.125 103.612 182.085 103.768 182.005 103.88C181.925 103.992 181.793 104.06 181.609 104.084C181.529 104.092 181.445 104.1 181.357 104.108C181.269 104.116 181.181 104.12 181.093 104.12ZM184.925 104.12C184.261 104.12 183.761 103.932 183.425 103.556C183.089 103.172 182.921 102.612 182.921 101.876V96.2C182.921 95.952 182.985 95.764 183.113 95.636C183.241 95.508 183.425 95.444 183.665 95.444C183.905 95.444 184.089 95.508 184.217 95.636C184.353 95.764 184.421 95.952 184.421 96.2V101.804C184.421 102.172 184.497 102.444 184.649 102.62C184.809 102.796 185.033 102.884 185.321 102.884C185.385 102.884 185.445 102.884 185.501 102.884C185.557 102.876 185.613 102.868 185.669 102.86C185.781 102.844 185.857 102.876 185.897 102.956C185.937 103.028 185.957 103.18 185.957 103.412C185.957 103.612 185.917 103.768 185.837 103.88C185.757 103.992 185.625 104.06 185.441 104.084C185.361 104.092 185.277 104.1 185.189 104.108C185.101 104.116 185.013 104.12 184.925 104.12ZM190.97 104C190.706 104 190.502 103.932 190.358 103.796C190.222 103.652 190.154 103.448 190.154 103.184V96.356C190.154 96.092 190.222 95.892 190.358 95.756C190.502 95.612 190.706 95.54 190.97 95.54H193.298C194.714 95.54 195.806 95.904 196.574 96.632C197.35 97.36 197.738 98.404 197.738 99.764C197.738 100.444 197.638 101.048 197.438 101.576C197.246 102.096 196.958 102.536 196.574 102.896C196.198 103.256 195.734 103.532 195.182 103.724C194.638 103.908 194.01 104 193.298 104H190.97ZM191.69 102.728H193.202C193.698 102.728 194.126 102.668 194.486 102.548C194.854 102.42 195.158 102.236 195.398 101.996C195.646 101.748 195.83 101.44 195.95 101.072C196.07 100.696 196.13 100.26 196.13 99.764C196.13 98.772 195.886 98.032 195.398 97.544C194.91 97.056 194.178 96.812 193.202 96.812H191.69V102.728ZM201.083 104.12C200.659 104.12 200.279 104.04 199.943 103.88C199.615 103.712 199.355 103.488 199.163 103.208C198.979 102.928 198.887 102.612 198.887 102.26C198.887 101.828 198.999 101.488 199.223 101.24C199.447 100.984 199.811 100.8 200.315 100.688C200.819 100.576 201.495 100.52 202.343 100.52H202.943V101.384H202.355C201.859 101.384 201.463 101.408 201.167 101.456C200.871 101.504 200.659 101.588 200.531 101.708C200.411 101.82 200.351 101.98 200.351 102.188C200.351 102.452 200.443 102.668 200.627 102.836C200.811 103.004 201.067 103.088 201.395 103.088C201.659 103.088 201.891 103.028 202.091 102.908C202.299 102.78 202.463 102.608 202.583 102.392C202.703 102.176 202.763 101.928 202.763 101.648V100.268C202.763 99.868 202.675 99.58 202.499 99.404C202.323 99.228 202.027 99.14 201.611 99.14C201.379 99.14 201.127 99.168 200.855 99.224C200.591 99.28 200.311 99.376 200.015 99.512C199.863 99.584 199.727 99.604 199.607 99.572C199.495 99.54 199.407 99.476 199.343 99.38C199.279 99.276 199.247 99.164 199.247 99.044C199.247 98.924 199.279 98.808 199.343 98.696C199.407 98.576 199.515 98.488 199.667 98.432C200.035 98.28 200.387 98.172 200.723 98.108C201.067 98.044 201.379 98.012 201.659 98.012C202.235 98.012 202.707 98.1 203.075 98.276C203.451 98.452 203.731 98.72 203.915 99.08C204.099 99.432 204.191 99.888 204.191 100.448V103.328C204.191 103.576 204.131 103.768 204.011 103.904C203.891 104.032 203.719 104.096 203.495 104.096C203.271 104.096 203.095 104.032 202.967 103.904C202.847 103.768 202.787 103.576 202.787 103.328V102.752H202.883C202.827 103.032 202.715 103.276 202.547 103.484C202.387 103.684 202.183 103.84 201.935 103.952C201.687 104.064 201.403 104.12 201.083 104.12ZM207.143 106.256C206.967 106.256 206.823 106.208 206.711 106.112C206.599 106.024 206.531 105.904 206.507 105.752C206.491 105.6 206.519 105.44 206.591 105.272L207.407 103.46V104.084L205.223 99.032C205.151 98.856 205.127 98.692 205.151 98.54C205.175 98.388 205.247 98.268 205.367 98.18C205.495 98.084 205.667 98.036 205.883 98.036C206.067 98.036 206.215 98.08 206.327 98.168C206.439 98.248 206.539 98.404 206.627 98.636L208.247 102.68H207.887L209.543 98.624C209.631 98.4 209.735 98.248 209.855 98.168C209.975 98.08 210.135 98.036 210.335 98.036C210.511 98.036 210.651 98.084 210.755 98.18C210.859 98.268 210.923 98.388 210.947 98.54C210.971 98.684 210.943 98.844 210.863 99.02L207.947 105.68C207.843 105.904 207.731 106.056 207.611 106.136C207.491 106.216 207.335 106.256 207.143 106.256Z" fill="#178917"/>
<g filter="url(#filter2_d_999_3466)">
<mask id="path-15-inside-1_999_3466" fill="white">
<path d="M66 137C66 130.373 71.3726 125 78 125H243C249.627 125 255 130.373 255 137V155C255 161.627 249.627 167 243 167H78C71.3726 167 66 161.627 66 155V137Z"/>
</mask>
<path d="M66 137C66 130.373 71.3726 125 78 125H243C249.627 125 255 130.373 255 137V155C255 161.627 249.627 167 243 167H78C71.3726 167 66 161.627 66 155V137Z" fill="#DAFDF5" shape-rendering="crispEdges"/>
<path d="M66 125H255H66ZM255 155C255 163.284 248.284 170 240 170H81C72.7157 170 66 163.284 66 155C66 159.971 71.3726 164 78 164H243C249.627 164 255 159.971 255 155ZM66 167V125V167ZM255 125V167V125Z" fill="#9AD1C4" mask="url(#path-15-inside-1_999_3466)"/>
<path d="M94.0002 152.667C90.3335 152.667 87.3335 149.667 87.3335 146C87.3335 142.867 89.6002 140.067 92.6668 139.467C92.9335 139.4 93.2668 139.533 93.4002 139.8C93.5335 140.067 93.4668 140.4 93.2668 140.6C92.4668 141.4 92.0002 142.533 92.0002 143.667C92.0002 146.067 93.9335 148 96.3335 148C97.4668 148 98.6002 147.533 99.4002 146.733C99.6002 146.533 99.9335 146.467 100.2 146.6C100.467 146.733 100.6 147 100.533 147.333C99.9335 150.4 97.1335 152.667 94.0002 152.667ZM91.0668 141.533C89.6002 142.533 88.6668 144.133 88.6668 146C88.6668 148.933 91.0668 151.333 94.0002 151.333C95.8668 151.333 97.4668 150.4 98.4668 148.933C97.8002 149.2 97.0668 149.333 96.3335 149.333C93.2002 149.333 90.6668 146.8 90.6668 143.667C90.6668 142.933 90.8002 142.2 91.0668 141.533Z" fill="#2F99A2"/>
<path d="M111.644 150.096C111.412 150.096 111.232 150.032 111.104 149.904C110.984 149.776 110.924 149.592 110.924 149.352V142.212C110.924 141.964 110.984 141.776 111.104 141.648C111.232 141.512 111.396 141.444 111.596 141.444C111.78 141.444 111.916 141.48 112.004 141.552C112.1 141.616 112.212 141.728 112.34 141.888L116.936 147.852H116.624V142.176C116.624 141.944 116.684 141.764 116.804 141.636C116.932 141.508 117.112 141.444 117.344 141.444C117.576 141.444 117.752 141.508 117.872 141.636C117.992 141.764 118.052 141.944 118.052 142.176V149.376C118.052 149.6 117.996 149.776 117.884 149.904C117.772 150.032 117.62 150.096 117.428 150.096C117.244 150.096 117.096 150.06 116.984 149.988C116.88 149.916 116.764 149.8 116.636 149.64L112.052 143.676H112.352V149.352C112.352 149.592 112.292 149.776 112.172 149.904C112.052 150.032 111.876 150.096 111.644 150.096ZM120.501 150.084C120.261 150.084 120.077 150.012 119.949 149.868C119.821 149.724 119.757 149.524 119.757 149.268V144.864C119.757 144.6 119.821 144.4 119.949 144.264C120.077 144.12 120.261 144.048 120.501 144.048C120.741 144.048 120.925 144.12 121.053 144.264C121.189 144.4 121.257 144.6 121.257 144.864V149.268C121.257 149.524 121.193 149.724 121.065 149.868C120.937 150.012 120.749 150.084 120.501 150.084ZM120.501 142.932C120.221 142.932 120.001 142.864 119.841 142.728C119.689 142.584 119.613 142.388 119.613 142.14C119.613 141.884 119.689 141.688 119.841 141.552C120.001 141.416 120.221 141.348 120.501 141.348C120.789 141.348 121.009 141.416 121.161 141.552C121.313 141.688 121.389 141.884 121.389 142.14C121.389 142.388 121.313 142.584 121.161 142.728C121.009 142.864 120.789 142.932 120.501 142.932ZM125.551 152.28C125.119 152.28 124.699 152.24 124.291 152.16C123.891 152.08 123.527 151.956 123.199 151.788C123.047 151.708 122.943 151.612 122.887 151.5C122.839 151.388 122.823 151.272 122.839 151.152C122.863 151.04 122.911 150.94 122.983 150.852C123.063 150.764 123.159 150.704 123.271 150.672C123.383 150.64 123.499 150.656 123.619 150.72C123.971 150.896 124.303 151.008 124.615 151.056C124.935 151.112 125.207 151.14 125.431 151.14C125.967 151.14 126.367 151.008 126.631 150.744C126.903 150.488 127.039 150.104 127.039 149.592V148.512H127.147C127.027 148.92 126.775 149.248 126.391 149.496C126.015 149.736 125.587 149.856 125.107 149.856C124.579 149.856 124.119 149.736 123.727 149.496C123.335 149.248 123.031 148.904 122.815 148.464C122.599 148.024 122.491 147.512 122.491 146.928C122.491 146.488 122.551 146.092 122.671 145.74C122.799 145.38 122.975 145.072 123.199 144.816C123.431 144.56 123.707 144.364 124.027 144.228C124.355 144.084 124.715 144.012 125.107 144.012C125.603 144.012 126.035 144.136 126.403 144.384C126.779 144.624 127.023 144.944 127.135 145.344L127.015 145.644V144.792C127.015 144.544 127.079 144.356 127.207 144.228C127.343 144.1 127.527 144.036 127.759 144.036C127.999 144.036 128.183 144.1 128.311 144.228C128.439 144.356 128.503 144.544 128.503 144.792V149.412C128.503 150.364 128.251 151.08 127.747 151.56C127.243 152.04 126.511 152.28 125.551 152.28ZM125.515 148.716C125.827 148.716 126.095 148.644 126.319 148.5C126.543 148.356 126.715 148.152 126.835 147.888C126.963 147.616 127.027 147.296 127.027 146.928C127.027 146.376 126.891 145.944 126.619 145.632C126.347 145.312 125.979 145.152 125.515 145.152C125.203 145.152 124.935 145.224 124.711 145.368C124.487 145.512 124.311 145.716 124.183 145.98C124.063 146.244 124.003 146.56 124.003 146.928C124.003 147.48 124.139 147.916 124.411 148.236C124.683 148.556 125.051 148.716 125.515 148.716ZM130.801 150.096C130.561 150.096 130.377 150.032 130.249 149.904C130.121 149.768 130.057 149.576 130.057 149.328V142.2C130.057 141.952 130.121 141.764 130.249 141.636C130.377 141.508 130.561 141.444 130.801 141.444C131.041 141.444 131.225 141.508 131.353 141.636C131.489 141.764 131.557 141.952 131.557 142.2V145.308H131.389C131.565 144.884 131.837 144.564 132.205 144.348C132.581 144.124 133.005 144.012 133.477 144.012C133.949 144.012 134.337 144.1 134.641 144.276C134.945 144.452 135.173 144.72 135.325 145.08C135.477 145.432 135.553 145.88 135.553 146.424V149.328C135.553 149.576 135.489 149.768 135.361 149.904C135.233 150.032 135.049 150.096 134.809 150.096C134.569 150.096 134.381 150.032 134.245 149.904C134.117 149.768 134.053 149.576 134.053 149.328V146.496C134.053 146.04 133.965 145.708 133.789 145.5C133.621 145.292 133.357 145.188 132.997 145.188C132.557 145.188 132.205 145.328 131.941 145.608C131.685 145.88 131.557 146.244 131.557 146.7V149.328C131.557 149.84 131.305 150.096 130.801 150.096ZM139.765 150.12C139.245 150.12 138.809 150.032 138.457 149.856C138.113 149.68 137.857 149.424 137.689 149.088C137.521 148.744 137.437 148.32 137.437 147.816V145.26H136.813C136.621 145.26 136.473 145.212 136.369 145.116C136.265 145.012 136.213 144.872 136.213 144.696C136.213 144.512 136.265 144.372 136.369 144.276C136.473 144.18 136.621 144.132 136.813 144.132H137.437V143.04C137.437 142.792 137.501 142.604 137.629 142.476C137.765 142.348 137.953 142.284 138.193 142.284C138.433 142.284 138.617 142.348 138.745 142.476C138.873 142.604 138.937 142.792 138.937 143.04V144.132H140.209C140.401 144.132 140.549 144.18 140.653 144.276C140.757 144.372 140.809 144.512 140.809 144.696C140.809 144.872 140.757 145.012 140.653 145.116C140.549 145.212 140.401 145.26 140.209 145.26H138.937V147.732C138.937 148.116 139.021 148.404 139.189 148.596C139.357 148.788 139.629 148.884 140.005 148.884C140.141 148.884 140.261 148.872 140.365 148.848C140.469 148.824 140.561 148.808 140.641 148.8C140.737 148.792 140.817 148.824 140.881 148.896C140.945 148.96 140.977 149.096 140.977 149.304C140.977 149.464 140.949 149.608 140.893 149.736C140.845 149.856 140.753 149.94 140.617 149.988C140.513 150.02 140.377 150.048 140.209 150.072C140.041 150.104 139.893 150.12 139.765 150.12ZM148 150.12C147.648 150.12 147.296 150.092 146.944 150.036C146.592 149.988 146.26 149.912 145.948 149.808C145.636 149.696 145.356 149.56 145.108 149.4C144.964 149.304 144.864 149.188 144.808 149.052C144.752 148.916 144.732 148.784 144.748 148.656C144.772 148.52 144.824 148.404 144.904 148.308C144.992 148.204 145.1 148.14 145.228 148.116C145.356 148.092 145.496 148.128 145.648 148.224C146 148.432 146.372 148.584 146.764 148.68C147.156 148.776 147.568 148.824 148 148.824C148.632 148.824 149.092 148.72 149.38 148.512C149.668 148.296 149.812 148.02 149.812 147.684C149.812 147.404 149.708 147.184 149.5 147.024C149.3 146.864 148.952 146.732 148.456 146.628L147.136 146.352C146.376 146.192 145.808 145.924 145.432 145.548C145.064 145.164 144.88 144.66 144.88 144.036C144.88 143.644 144.96 143.288 145.12 142.968C145.28 142.648 145.504 142.372 145.792 142.14C146.088 141.908 146.436 141.732 146.836 141.612C147.244 141.484 147.692 141.42 148.18 141.42C148.66 141.42 149.116 141.48 149.548 141.6C149.98 141.72 150.368 141.896 150.712 142.128C150.84 142.216 150.924 142.324 150.964 142.452C151.012 142.58 151.024 142.708 151 142.836C150.976 142.956 150.92 143.06 150.832 143.148C150.744 143.236 150.632 143.288 150.496 143.304C150.368 143.32 150.22 143.28 150.052 143.184C149.756 143.016 149.456 142.896 149.152 142.824C148.848 142.752 148.52 142.716 148.168 142.716C147.8 142.716 147.484 142.768 147.22 142.872C146.956 142.976 146.752 143.124 146.608 143.316C146.472 143.5 146.404 143.72 146.404 143.976C146.404 144.264 146.5 144.496 146.692 144.672C146.884 144.84 147.212 144.972 147.676 145.068L148.984 145.344C149.776 145.512 150.364 145.776 150.748 146.136C151.14 146.496 151.336 146.976 151.336 147.576C151.336 147.96 151.256 148.308 151.096 148.62C150.944 148.932 150.72 149.2 150.424 149.424C150.136 149.648 149.788 149.82 149.38 149.94C148.972 150.06 148.512 150.12 148 150.12ZM153.254 150.096C153.014 150.096 152.83 150.032 152.702 149.904C152.574 149.768 152.51 149.576 152.51 149.328V142.2C152.51 141.952 152.574 141.764 152.702 141.636C152.83 141.508 153.014 141.444 153.254 141.444C153.494 141.444 153.678 141.508 153.806 141.636C153.942 141.764 154.01 141.952 154.01 142.2V145.308H153.842C154.018 144.884 154.29 144.564 154.658 144.348C155.034 144.124 155.458 144.012 155.93 144.012C156.402 144.012 156.79 144.1 157.094 144.276C157.398 144.452 157.626 144.72 157.778 145.08C157.93 145.432 158.006 145.88 158.006 146.424V149.328C158.006 149.576 157.942 149.768 157.814 149.904C157.686 150.032 157.502 150.096 157.262 150.096C157.022 150.096 156.834 150.032 156.698 149.904C156.57 149.768 156.506 149.576 156.506 149.328V146.496C156.506 146.04 156.418 145.708 156.242 145.5C156.074 145.292 155.81 145.188 155.45 145.188C155.01 145.188 154.658 145.328 154.394 145.608C154.138 145.88 154.01 146.244 154.01 146.7V149.328C154.01 149.84 153.758 150.096 153.254 150.096ZM160.274 150.084C160.034 150.084 159.85 150.012 159.722 149.868C159.594 149.724 159.53 149.524 159.53 149.268V144.864C159.53 144.6 159.594 144.4 159.722 144.264C159.85 144.12 160.034 144.048 160.274 144.048C160.514 144.048 160.698 144.12 160.826 144.264C160.962 144.4 161.03 144.6 161.03 144.864V149.268C161.03 149.524 160.966 149.724 160.838 149.868C160.71 150.012 160.522 150.084 160.274 150.084ZM160.274 142.932C159.994 142.932 159.774 142.864 159.614 142.728C159.462 142.584 159.386 142.388 159.386 142.14C159.386 141.884 159.462 141.688 159.614 141.552C159.774 141.416 159.994 141.348 160.274 141.348C160.562 141.348 160.782 141.416 160.934 141.552C161.086 141.688 161.162 141.884 161.162 142.14C161.162 142.388 161.086 142.584 160.934 142.728C160.782 142.864 160.562 142.932 160.274 142.932ZM163.741 150.096C163.501 150.096 163.313 150.032 163.177 149.904C163.049 149.768 162.985 149.576 162.985 149.328V145.26H162.433C162.241 145.26 162.093 145.212 161.989 145.116C161.885 145.012 161.833 144.872 161.833 144.696C161.833 144.512 161.885 144.372 161.989 144.276C162.093 144.18 162.241 144.132 162.433 144.132H163.417L162.985 144.528V144.12C162.985 143.296 163.193 142.68 163.609 142.272C164.025 141.856 164.625 141.612 165.409 141.54L165.817 141.504C165.977 141.488 166.105 141.516 166.201 141.588C166.297 141.652 166.361 141.74 166.393 141.852C166.425 141.956 166.429 142.064 166.405 142.176C166.381 142.288 166.329 142.388 166.249 142.476C166.177 142.556 166.081 142.6 165.961 142.608L165.793 142.62C165.337 142.652 165.005 142.768 164.797 142.968C164.589 143.168 164.485 143.472 164.485 143.88V144.324L164.293 144.132H165.505C165.697 144.132 165.845 144.18 165.949 144.276C166.053 144.372 166.105 144.512 166.105 144.696C166.105 144.872 166.053 145.012 165.949 145.116C165.845 145.212 165.697 145.26 165.505 145.26H164.485V149.328C164.485 149.84 164.237 150.096 163.741 150.096ZM169.32 150.12C168.8 150.12 168.364 150.032 168.012 149.856C167.668 149.68 167.412 149.424 167.244 149.088C167.076 148.744 166.992 148.32 166.992 147.816V145.26H166.368C166.176 145.26 166.028 145.212 165.924 145.116C165.82 145.012 165.768 144.872 165.768 144.696C165.768 144.512 165.82 144.372 165.924 144.276C166.028 144.18 166.176 144.132 166.368 144.132H166.992V143.04C166.992 142.792 167.056 142.604 167.184 142.476C167.32 142.348 167.508 142.284 167.748 142.284C167.988 142.284 168.172 142.348 168.3 142.476C168.428 142.604 168.492 142.792 168.492 143.04V144.132H169.764C169.956 144.132 170.104 144.18 170.208 144.276C170.312 144.372 170.364 144.512 170.364 144.696C170.364 144.872 170.312 145.012 170.208 145.116C170.104 145.212 169.956 145.26 169.764 145.26H168.492V147.732C168.492 148.116 168.576 148.404 168.744 148.596C168.912 148.788 169.184 148.884 169.56 148.884C169.696 148.884 169.816 148.872 169.92 148.848C170.024 148.824 170.116 148.808 170.196 148.8C170.292 148.792 170.372 148.824 170.436 148.896C170.5 148.96 170.532 149.096 170.532 149.304C170.532 149.464 170.504 149.608 170.448 149.736C170.4 149.856 170.308 149.94 170.172 149.988C170.068 150.02 169.932 150.048 169.764 150.072C169.596 150.104 169.448 150.12 169.32 150.12ZM175.431 150.096C175.183 150.096 174.987 150.028 174.843 149.892C174.707 149.748 174.639 149.544 174.639 149.28V142.356C174.639 142.092 174.707 141.892 174.843 141.756C174.987 141.612 175.191 141.54 175.455 141.54H179.643C179.851 141.54 180.007 141.592 180.111 141.696C180.215 141.8 180.267 141.948 180.267 142.14C180.267 142.34 180.215 142.496 180.111 142.608C180.007 142.712 179.851 142.764 179.643 142.764H176.175V145.152H179.391C179.591 145.152 179.743 145.204 179.847 145.308C179.959 145.412 180.015 145.56 180.015 145.752C180.015 145.952 179.959 146.108 179.847 146.22C179.743 146.324 179.591 146.376 179.391 146.376H176.175V149.28C176.175 149.824 175.927 150.096 175.431 150.096ZM183.205 150.12C182.717 150.12 182.313 150.032 181.993 149.856C181.673 149.672 181.433 149.4 181.273 149.04C181.121 148.68 181.045 148.232 181.045 147.696V144.792C181.045 144.536 181.109 144.348 181.237 144.228C181.365 144.1 181.549 144.036 181.789 144.036C182.029 144.036 182.213 144.1 182.341 144.228C182.477 144.348 182.545 144.536 182.545 144.792V147.72C182.545 148.136 182.629 148.444 182.797 148.644C182.965 148.844 183.233 148.944 183.601 148.944C184.001 148.944 184.329 148.808 184.585 148.536C184.841 148.256 184.969 147.888 184.969 147.432V144.792C184.969 144.536 185.033 144.348 185.161 144.228C185.289 144.1 185.473 144.036 185.713 144.036C185.953 144.036 186.137 144.1 186.265 144.228C186.401 144.348 186.469 144.536 186.469 144.792V149.328C186.469 149.84 186.225 150.096 185.737 150.096C185.505 150.096 185.325 150.032 185.197 149.904C185.069 149.768 185.005 149.576 185.005 149.328V148.416L185.173 148.776C185.005 149.208 184.749 149.54 184.405 149.772C184.069 150.004 183.669 150.12 183.205 150.12ZM190.034 150.12C189.37 150.12 188.87 149.932 188.534 149.556C188.198 149.172 188.03 148.612 188.03 147.876V142.2C188.03 141.952 188.094 141.764 188.222 141.636C188.35 141.508 188.534 141.444 188.774 141.444C189.014 141.444 189.198 141.508 189.326 141.636C189.462 141.764 189.53 141.952 189.53 142.2V147.804C189.53 148.172 189.606 148.444 189.758 148.62C189.918 148.796 190.142 148.884 190.43 148.884C190.494 148.884 190.554 148.884 190.61 148.884C190.666 148.876 190.722 148.868 190.778 148.86C190.89 148.844 190.966 148.876 191.006 148.956C191.046 149.028 191.066 149.18 191.066 149.412C191.066 149.612 191.026 149.768 190.946 149.88C190.866 149.992 190.734 150.06 190.55 150.084C190.47 150.092 190.386 150.1 190.298 150.108C190.21 150.116 190.122 150.12 190.034 150.12ZM193.866 150.12C193.202 150.12 192.702 149.932 192.366 149.556C192.03 149.172 191.862 148.612 191.862 147.876V142.2C191.862 141.952 191.926 141.764 192.054 141.636C192.182 141.508 192.366 141.444 192.606 141.444C192.846 141.444 193.03 141.508 193.158 141.636C193.294 141.764 193.362 141.952 193.362 142.2V147.804C193.362 148.172 193.438 148.444 193.59 148.62C193.75 148.796 193.974 148.884 194.262 148.884C194.326 148.884 194.386 148.884 194.442 148.884C194.498 148.876 194.554 148.868 194.61 148.86C194.722 148.844 194.798 148.876 194.838 148.956C194.878 149.028 194.898 149.18 194.898 149.412C194.898 149.612 194.858 149.768 194.778 149.88C194.698 149.992 194.566 150.06 194.382 150.084C194.302 150.092 194.218 150.1 194.13 150.108C194.042 150.116 193.954 150.12 193.866 150.12ZM199.912 150C199.648 150 199.444 149.932 199.3 149.796C199.164 149.652 199.096 149.448 199.096 149.184V142.356C199.096 142.092 199.164 141.892 199.3 141.756C199.444 141.612 199.648 141.54 199.912 141.54H202.24C203.656 141.54 204.748 141.904 205.516 142.632C206.292 143.36 206.68 144.404 206.68 145.764C206.68 146.444 206.58 147.048 206.38 147.576C206.188 148.096 205.9 148.536 205.516 148.896C205.14 149.256 204.676 149.532 204.124 149.724C203.58 149.908 202.952 150 202.24 150H199.912ZM200.632 148.728H202.144C202.64 148.728 203.068 148.668 203.428 148.548C203.796 148.42 204.1 148.236 204.34 147.996C204.588 147.748 204.772 147.44 204.892 147.072C205.012 146.696 205.072 146.26 205.072 145.764C205.072 144.772 204.828 144.032 204.34 143.544C203.852 143.056 203.12 142.812 202.144 142.812H200.632V148.728ZM210.025 150.12C209.601 150.12 209.221 150.04 208.885 149.88C208.557 149.712 208.297 149.488 208.104 149.208C207.921 148.928 207.829 148.612 207.829 148.26C207.829 147.828 207.941 147.488 208.165 147.24C208.389 146.984 208.753 146.8 209.257 146.688C209.761 146.576 210.437 146.52 211.285 146.52H211.885V147.384H211.297C210.801 147.384 210.405 147.408 210.109 147.456C209.813 147.504 209.601 147.588 209.473 147.708C209.353 147.82 209.293 147.98 209.293 148.188C209.293 148.452 209.385 148.668 209.569 148.836C209.753 149.004 210.009 149.088 210.337 149.088C210.601 149.088 210.833 149.028 211.033 148.908C211.241 148.78 211.405 148.608 211.525 148.392C211.645 148.176 211.705 147.928 211.705 147.648V146.268C211.705 145.868 211.617 145.58 211.441 145.404C211.265 145.228 210.969 145.14 210.553 145.14C210.321 145.14 210.069 145.168 209.797 145.224C209.533 145.28 209.253 145.376 208.957 145.512C208.805 145.584 208.669 145.604 208.549 145.572C208.437 145.54 208.349 145.476 208.285 145.38C208.221 145.276 208.189 145.164 208.189 145.044C208.189 144.924 208.221 144.808 208.285 144.696C208.349 144.576 208.457 144.488 208.609 144.432C208.977 144.28 209.329 144.172 209.665 144.108C210.009 144.044 210.321 144.012 210.601 144.012C211.177 144.012 211.649 144.1 212.017 144.276C212.393 144.452 212.673 144.72 212.857 145.08C213.041 145.432 213.133 145.888 213.133 146.448V149.328C213.133 149.576 213.073 149.768 212.953 149.904C212.833 150.032 212.661 150.096 212.437 150.096C212.213 150.096 212.037 150.032 211.909 149.904C211.789 149.768 211.729 149.576 211.729 149.328V148.752H211.825C211.769 149.032 211.657 149.276 211.489 149.484C211.329 149.684 211.125 149.84 210.877 149.952C210.629 150.064 210.345 150.12 210.025 150.12ZM216.084 152.256C215.908 152.256 215.764 152.208 215.652 152.112C215.54 152.024 215.472 151.904 215.448 151.752C215.432 151.6 215.46 151.44 215.532 151.272L216.348 149.46V150.084L214.164 145.032C214.092 144.856 214.068 144.692 214.092 144.54C214.116 144.388 214.188 144.268 214.308 144.18C214.436 144.084 214.608 144.036 214.824 144.036C215.008 144.036 215.156 144.08 215.268 144.168C215.38 144.248 215.48 144.404 215.568 144.636L217.188 148.68H216.828L218.484 144.624C218.572 144.4 218.676 144.248 218.796 144.168C218.916 144.08 219.076 144.036 219.276 144.036C219.452 144.036 219.592 144.084 219.696 144.18C219.8 144.268 219.864 144.388 219.888 144.54C219.912 144.684 219.884 144.844 219.804 145.02L216.888 151.68C216.784 151.904 216.672 152.056 216.552 152.136C216.432 152.216 216.276 152.256 216.084 152.256Z" fill="#178B96"/>
</g>
<g filter="url(#filter3_i_999_3466)">
<path d="M66 183C66 176.373 71.3726 171 78 171H243C249.627 171 255 176.373 255 183V201C255 207.627 249.627 213 243 213H78C71.3726 213 66 207.627 66 201V183Z" fill="#FFEAF4"/>
<g clip-path="url(#clip1_999_3466)">
<path d="M93.6973 187.239C92.1228 190.904 94.54 194.432 97.6006 195.101C96.8658 196.219 94.684 197.322 92.4497 196.553C90.2814 195.807 88.8898 193.572 89.2317 191.388C89.5976 189.051 91.478 187.292 93.6958 187.239H93.6973Z" fill="#D20909"/>
<path d="M94.8115 189.589C94.8175 187.695 96.2046 186.022 98.079 185.647C98.4554 185.572 98.8093 185.593 99.0507 185.944C99.2771 186.272 99.2112 186.593 99.0282 186.926C98.0895 188.642 99.1707 190.518 101.128 190.572C101.486 190.583 101.762 190.7 101.919 191.029C102.075 191.358 101.994 191.654 101.789 191.939C100.813 193.287 99.0477 193.9 97.5512 193.405C95.9407 192.873 94.807 191.292 94.8115 189.588V189.589Z" fill="#D20909"/>
<path d="M94.8216 198.812C94.8066 198.997 94.8111 199.186 94.7751 199.368C94.6971 199.745 94.3717 200.002 94.0013 200.002C93.6324 200.002 93.2875 199.745 93.2351 199.365C93.1871 199.023 93.1841 198.668 93.2126 198.325C93.2501 197.882 93.5965 197.601 94.0223 197.61C94.4302 197.619 94.7421 197.899 94.7961 198.326C94.8156 198.485 94.7991 198.65 94.7991 198.81C94.8066 198.81 94.8126 198.81 94.8201 198.81L94.8216 198.812Z" fill="#D20909"/>
<path d="M87.2192 191.176C87.4201 191.196 87.6211 191.194 87.813 191.241C88.1639 191.325 88.3828 191.618 88.3933 191.972C88.4038 192.347 88.1939 192.698 87.8295 192.747C87.4171 192.802 86.9868 192.8 86.5729 192.747C86.231 192.705 86.0046 192.35 86.0001 192.01C85.9956 191.654 86.234 191.325 86.5909 191.241C86.7948 191.193 87.0092 191.196 87.2192 191.176Z" fill="#D20909"/>
<path d="M90.26 196.647C90.2255 196.724 90.1865 196.905 90.0816 197.03C89.8746 197.275 89.6437 197.508 89.3978 197.716C89.0769 197.987 88.636 197.956 88.3451 197.673C88.0557 197.391 88.0077 196.941 88.2731 196.622C88.4876 196.364 88.729 196.127 88.9839 195.91C89.2328 195.699 89.5327 195.682 89.8236 195.828C90.116 195.974 90.26 196.223 90.26 196.647Z" fill="#D20909"/>
<path d="M94.8263 185.22C94.8068 185.419 94.8083 185.622 94.7618 185.812C94.6733 186.178 94.3674 186.395 93.9925 186.392C93.6372 186.389 93.2998 186.179 93.2548 185.83C93.2008 185.416 93.2023 184.986 93.2548 184.574C93.2983 184.231 93.6506 184.005 93.9925 184C94.3464 183.996 94.6778 184.234 94.7618 184.591C94.8098 184.794 94.8068 185.009 94.8263 185.22Z" fill="#D20909"/>
<path d="M89.5434 188.34C89.29 188.228 89.0995 188.183 88.9631 188.072C88.7307 187.885 88.5192 187.669 88.3243 187.443C88.0424 187.119 88.0679 186.648 88.3573 186.358C88.6482 186.067 89.119 186.041 89.4429 186.323C89.6769 186.527 89.8988 186.752 90.0982 186.99C90.3082 187.242 90.3502 187.564 90.1627 187.825C90.0113 188.036 89.7533 188.171 89.5449 188.339L89.5434 188.34Z" fill="#D20909"/>
<path d="M98.4611 195.661C98.7145 195.775 98.905 195.819 99.0414 195.929C99.2724 196.117 99.4838 196.334 99.6802 196.559C99.9637 196.886 99.9382 197.353 99.6473 197.644C99.3563 197.935 98.887 197.96 98.5616 197.676C98.3277 197.47 98.1057 197.248 97.9063 197.01C97.6964 196.758 97.6544 196.436 97.8433 196.175C97.9963 195.964 98.2527 195.829 98.4611 195.661Z" fill="#D20909"/>
</g>
<path d="M111.74 196C111.476 196 111.272 195.932 111.128 195.796C110.992 195.652 110.924 195.448 110.924 195.184V188.356C110.924 188.092 110.992 187.892 111.128 187.756C111.272 187.612 111.476 187.54 111.74 187.54H114.068C115.484 187.54 116.576 187.904 117.344 188.632C118.12 189.36 118.508 190.404 118.508 191.764C118.508 192.444 118.408 193.048 118.208 193.576C118.016 194.096 117.728 194.536 117.344 194.896C116.968 195.256 116.504 195.532 115.952 195.724C115.408 195.908 114.78 196 114.068 196H111.74ZM112.46 194.728H113.972C114.468 194.728 114.896 194.668 115.256 194.548C115.624 194.42 115.928 194.236 116.168 193.996C116.416 193.748 116.6 193.44 116.72 193.072C116.84 192.696 116.9 192.26 116.9 191.764C116.9 190.772 116.656 190.032 116.168 189.544C115.68 189.056 114.948 188.812 113.972 188.812H112.46V194.728ZM121.853 196.12C121.429 196.12 121.049 196.04 120.713 195.88C120.385 195.712 120.125 195.488 119.933 195.208C119.749 194.928 119.657 194.612 119.657 194.26C119.657 193.828 119.769 193.488 119.993 193.24C120.217 192.984 120.581 192.8 121.085 192.688C121.589 192.576 122.265 192.52 123.113 192.52H123.713V193.384H123.125C122.629 193.384 122.233 193.408 121.937 193.456C121.641 193.504 121.429 193.588 121.301 193.708C121.181 193.82 121.121 193.98 121.121 194.188C121.121 194.452 121.213 194.668 121.397 194.836C121.581 195.004 121.837 195.088 122.165 195.088C122.429 195.088 122.661 195.028 122.861 194.908C123.069 194.78 123.233 194.608 123.353 194.392C123.473 194.176 123.533 193.928 123.533 193.648V192.268C123.533 191.868 123.445 191.58 123.269 191.404C123.093 191.228 122.797 191.14 122.381 191.14C122.149 191.14 121.897 191.168 121.625 191.224C121.361 191.28 121.081 191.376 120.785 191.512C120.633 191.584 120.497 191.604 120.377 191.572C120.265 191.54 120.177 191.476 120.113 191.38C120.049 191.276 120.017 191.164 120.017 191.044C120.017 190.924 120.049 190.808 120.113 190.696C120.177 190.576 120.285 190.488 120.437 190.432C120.805 190.28 121.157 190.172 121.493 190.108C121.837 190.044 122.149 190.012 122.429 190.012C123.005 190.012 123.477 190.1 123.845 190.276C124.221 190.452 124.501 190.72 124.685 191.08C124.869 191.432 124.961 191.888 124.961 192.448V195.328C124.961 195.576 124.901 195.768 124.781 195.904C124.661 196.032 124.489 196.096 124.265 196.096C124.041 196.096 123.865 196.032 123.737 195.904C123.617 195.768 123.557 195.576 123.557 195.328V194.752H123.653C123.597 195.032 123.485 195.276 123.317 195.484C123.157 195.684 122.953 195.84 122.705 195.952C122.457 196.064 122.173 196.12 121.853 196.12ZM127.913 198.256C127.737 198.256 127.593 198.208 127.481 198.112C127.369 198.024 127.301 197.904 127.277 197.752C127.261 197.6 127.289 197.44 127.361 197.272L128.177 195.46V196.084L125.993 191.032C125.921 190.856 125.897 190.692 125.921 190.54C125.945 190.388 126.017 190.268 126.137 190.18C126.265 190.084 126.437 190.036 126.653 190.036C126.837 190.036 126.985 190.08 127.097 190.168C127.209 190.248 127.309 190.404 127.397 190.636L129.017 194.68H128.657L130.313 190.624C130.401 190.4 130.505 190.248 130.625 190.168C130.745 190.08 130.905 190.036 131.105 190.036C131.281 190.036 131.421 190.084 131.525 190.18C131.629 190.268 131.693 190.388 131.717 190.54C131.741 190.684 131.713 190.844 131.633 191.02L128.717 197.68C128.613 197.904 128.501 198.056 128.381 198.136C128.261 198.216 128.105 198.256 127.913 198.256ZM136.227 196.096C136.035 196.096 135.879 196.052 135.759 195.964C135.647 195.876 135.579 195.76 135.555 195.616C135.531 195.464 135.559 195.296 135.639 195.112L138.807 188.092C138.911 187.86 139.035 187.696 139.179 187.6C139.331 187.496 139.503 187.444 139.695 187.444C139.879 187.444 140.043 187.496 140.187 187.6C140.339 187.696 140.467 187.86 140.571 188.092L143.751 195.112C143.839 195.296 143.871 195.464 143.847 195.616C143.823 195.768 143.755 195.888 143.643 195.976C143.531 196.056 143.383 196.096 143.199 196.096C142.975 196.096 142.799 196.044 142.671 195.94C142.551 195.828 142.443 195.66 142.347 195.436L141.567 193.624L142.215 194.044H137.151L137.799 193.624L137.031 195.436C136.927 195.668 136.819 195.836 136.707 195.94C136.595 196.044 136.435 196.096 136.227 196.096ZM139.671 189.208L137.991 193.204L137.679 192.82H141.687L141.387 193.204L139.695 189.208H139.671ZM145.672 196.096C145.432 196.096 145.248 196.032 145.12 195.904C144.992 195.768 144.928 195.576 144.928 195.328V190.792C144.928 190.544 144.992 190.356 145.12 190.228C145.248 190.1 145.428 190.036 145.66 190.036C145.892 190.036 146.072 190.1 146.2 190.228C146.328 190.356 146.392 190.544 146.392 190.792V191.608L146.26 191.308C146.436 190.884 146.708 190.564 147.076 190.348C147.452 190.124 147.876 190.012 148.348 190.012C148.82 190.012 149.208 190.1 149.512 190.276C149.816 190.452 150.044 190.72 150.196 191.08C150.348 191.432 150.424 191.88 150.424 192.424V195.328C150.424 195.576 150.36 195.768 150.232 195.904C150.104 196.032 149.92 196.096 149.68 196.096C149.44 196.096 149.252 196.032 149.116 195.904C148.988 195.768 148.924 195.576 148.924 195.328V192.496C148.924 192.04 148.836 191.708 148.66 191.5C148.492 191.292 148.228 191.188 147.868 191.188C147.428 191.188 147.076 191.328 146.812 191.608C146.556 191.88 146.428 192.244 146.428 192.7V195.328C146.428 195.84 146.176 196.096 145.672 196.096ZM154.204 196.12C153.692 196.12 153.24 195.996 152.848 195.748C152.464 195.5 152.164 195.148 151.948 194.692C151.732 194.228 151.624 193.684 151.624 193.06C151.624 192.428 151.732 191.888 151.948 191.44C152.164 190.984 152.464 190.632 152.848 190.384C153.24 190.136 153.692 190.012 154.204 190.012C154.692 190.012 155.116 190.132 155.476 190.372C155.844 190.612 156.092 190.928 156.22 191.32H156.088V188.2C156.088 187.952 156.152 187.764 156.28 187.636C156.408 187.508 156.592 187.444 156.832 187.444C157.072 187.444 157.256 187.508 157.384 187.636C157.52 187.764 157.588 187.952 157.588 188.2V195.328C157.588 195.576 157.524 195.768 157.396 195.904C157.268 196.032 157.084 196.096 156.844 196.096C156.604 196.096 156.42 196.032 156.292 195.904C156.164 195.768 156.1 195.576 156.1 195.328V194.392L156.232 194.752C156.112 195.168 155.868 195.5 155.5 195.748C155.132 195.996 154.7 196.12 154.204 196.12ZM154.624 194.98C154.92 194.98 155.18 194.908 155.404 194.764C155.628 194.62 155.8 194.408 155.92 194.128C156.048 193.84 156.112 193.484 156.112 193.06C156.112 192.42 155.976 191.944 155.704 191.632C155.432 191.312 155.072 191.152 154.624 191.152C154.328 191.152 154.068 191.224 153.844 191.368C153.62 191.504 153.444 191.716 153.316 192.004C153.196 192.284 153.136 192.636 153.136 193.06C153.136 193.692 153.272 194.172 153.544 194.5C153.816 194.82 154.176 194.98 154.624 194.98ZM163.265 196.096C163.033 196.096 162.853 196.032 162.725 195.904C162.605 195.776 162.545 195.592 162.545 195.352V188.212C162.545 187.964 162.605 187.776 162.725 187.648C162.853 187.512 163.017 187.444 163.217 187.444C163.401 187.444 163.537 187.48 163.625 187.552C163.721 187.616 163.833 187.728 163.961 187.888L168.557 193.852H168.245V188.176C168.245 187.944 168.305 187.764 168.425 187.636C168.553 187.508 168.733 187.444 168.965 187.444C169.197 187.444 169.373 187.508 169.493 187.636C169.613 187.764 169.673 187.944 169.673 188.176V195.376C169.673 195.6 169.617 195.776 169.505 195.904C169.393 196.032 169.241 196.096 169.049 196.096C168.865 196.096 168.717 196.06 168.605 195.988C168.501 195.916 168.385 195.8 168.257 195.64L163.673 189.676H163.973V195.352C163.973 195.592 163.913 195.776 163.793 195.904C163.673 196.032 163.497 196.096 163.265 196.096ZM172.122 196.084C171.882 196.084 171.698 196.012 171.57 195.868C171.442 195.724 171.378 195.524 171.378 195.268V190.864C171.378 190.6 171.442 190.4 171.57 190.264C171.698 190.12 171.882 190.048 172.122 190.048C172.362 190.048 172.546 190.12 172.674 190.264C172.81 190.4 172.878 190.6 172.878 190.864V195.268C172.878 195.524 172.814 195.724 172.686 195.868C172.558 196.012 172.37 196.084 172.122 196.084ZM172.122 188.932C171.842 188.932 171.622 188.864 171.462 188.728C171.31 188.584 171.234 188.388 171.234 188.14C171.234 187.884 171.31 187.688 171.462 187.552C171.622 187.416 171.842 187.348 172.122 187.348C172.41 187.348 172.63 187.416 172.782 187.552C172.934 187.688 173.01 187.884 173.01 188.14C173.01 188.388 172.934 188.584 172.782 188.728C172.63 188.864 172.41 188.932 172.122 188.932ZM177.172 198.28C176.74 198.28 176.32 198.24 175.912 198.16C175.512 198.08 175.148 197.956 174.82 197.788C174.668 197.708 174.564 197.612 174.508 197.5C174.46 197.388 174.444 197.272 174.46 197.152C174.484 197.04 174.532 196.94 174.604 196.852C174.684 196.764 174.78 196.704 174.892 196.672C175.004 196.64 175.12 196.656 175.24 196.72C175.592 196.896 175.924 197.008 176.236 197.056C176.556 197.112 176.828 197.14 177.052 197.14C177.588 197.14 177.988 197.008 178.252 196.744C178.524 196.488 178.66 196.104 178.66 195.592V194.512H178.768C178.648 194.92 178.396 195.248 178.012 195.496C177.636 195.736 177.208 195.856 176.728 195.856C176.2 195.856 175.74 195.736 175.348 195.496C174.956 195.248 174.652 194.904 174.436 194.464C174.22 194.024 174.112 193.512 174.112 192.928C174.112 192.488 174.172 192.092 174.292 191.74C174.42 191.38 174.596 191.072 174.82 190.816C175.052 190.56 175.328 190.364 175.648 190.228C175.976 190.084 176.336 190.012 176.728 190.012C177.224 190.012 177.656 190.136 178.024 190.384C178.4 190.624 178.644 190.944 178.756 191.344L178.636 191.644V190.792C178.636 190.544 178.7 190.356 178.828 190.228C178.964 190.1 179.148 190.036 179.38 190.036C179.62 190.036 179.804 190.1 179.932 190.228C180.06 190.356 180.124 190.544 180.124 190.792V195.412C180.124 196.364 179.872 197.08 179.368 197.56C178.864 198.04 178.132 198.28 177.172 198.28ZM177.136 194.716C177.448 194.716 177.716 194.644 177.94 194.5C178.164 194.356 178.336 194.152 178.456 193.888C178.584 193.616 178.648 193.296 178.648 192.928C178.648 192.376 178.512 191.944 178.24 191.632C177.968 191.312 177.6 191.152 177.136 191.152C176.824 191.152 176.556 191.224 176.332 191.368C176.108 191.512 175.932 191.716 175.804 191.98C175.684 192.244 175.624 192.56 175.624 192.928C175.624 193.48 175.76 193.916 176.032 194.236C176.304 194.556 176.672 194.716 177.136 194.716ZM182.422 196.096C182.182 196.096 181.998 196.032 181.87 195.904C181.742 195.768 181.678 195.576 181.678 195.328V188.2C181.678 187.952 181.742 187.764 181.87 187.636C181.998 187.508 182.182 187.444 182.422 187.444C182.662 187.444 182.846 187.508 182.974 187.636C183.11 187.764 183.178 187.952 183.178 188.2V191.308H183.01C183.186 190.884 183.458 190.564 183.826 190.348C184.202 190.124 184.626 190.012 185.098 190.012C185.57 190.012 185.958 190.1 186.262 190.276C186.566 190.452 186.794 190.72 186.946 191.08C187.098 191.432 187.174 191.88 187.174 192.424V195.328C187.174 195.576 187.11 195.768 186.982 195.904C186.854 196.032 186.67 196.096 186.43 196.096C186.19 196.096 186.002 196.032 185.866 195.904C185.738 195.768 185.674 195.576 185.674 195.328V192.496C185.674 192.04 185.586 191.708 185.41 191.5C185.242 191.292 184.978 191.188 184.618 191.188C184.178 191.188 183.826 191.328 183.562 191.608C183.306 191.88 183.178 192.244 183.178 192.7V195.328C183.178 195.84 182.926 196.096 182.422 196.096ZM191.386 196.12C190.866 196.12 190.43 196.032 190.078 195.856C189.734 195.68 189.478 195.424 189.31 195.088C189.142 194.744 189.058 194.32 189.058 193.816V191.26H188.434C188.242 191.26 188.094 191.212 187.99 191.116C187.886 191.012 187.834 190.872 187.834 190.696C187.834 190.512 187.886 190.372 187.99 190.276C188.094 190.18 188.242 190.132 188.434 190.132H189.058V189.04C189.058 188.792 189.122 188.604 189.25 188.476C189.386 188.348 189.574 188.284 189.814 188.284C190.054 188.284 190.238 188.348 190.366 188.476C190.494 188.604 190.558 188.792 190.558 189.04V190.132H191.83C192.022 190.132 192.17 190.18 192.274 190.276C192.378 190.372 192.43 190.512 192.43 190.696C192.43 190.872 192.378 191.012 192.274 191.116C192.17 191.212 192.022 191.26 191.83 191.26H190.558V193.732C190.558 194.116 190.642 194.404 190.81 194.596C190.978 194.788 191.25 194.884 191.626 194.884C191.762 194.884 191.882 194.872 191.986 194.848C192.09 194.824 192.182 194.808 192.262 194.8C192.358 194.792 192.438 194.824 192.502 194.896C192.566 194.96 192.598 195.096 192.598 195.304C192.598 195.464 192.57 195.608 192.514 195.736C192.466 195.856 192.374 195.94 192.238 195.988C192.134 196.02 191.998 196.048 191.83 196.072C191.662 196.104 191.514 196.12 191.386 196.12ZM197.521 196C197.257 196 197.053 195.932 196.909 195.796C196.773 195.652 196.705 195.448 196.705 195.184V188.356C196.705 188.092 196.773 187.892 196.909 187.756C197.053 187.612 197.257 187.54 197.521 187.54H199.849C201.265 187.54 202.357 187.904 203.125 188.632C203.901 189.36 204.289 190.404 204.289 191.764C204.289 192.444 204.189 193.048 203.989 193.576C203.797 194.096 203.509 194.536 203.125 194.896C202.749 195.256 202.285 195.532 201.733 195.724C201.189 195.908 200.561 196 199.849 196H197.521ZM198.241 194.728H199.753C200.249 194.728 200.677 194.668 201.037 194.548C201.405 194.42 201.709 194.236 201.949 193.996C202.197 193.748 202.381 193.44 202.501 193.072C202.621 192.696 202.681 192.26 202.681 191.764C202.681 190.772 202.437 190.032 201.949 189.544C201.461 189.056 200.729 188.812 199.753 188.812H198.241V194.728ZM207.634 196.12C207.21 196.12 206.83 196.04 206.494 195.88C206.166 195.712 205.906 195.488 205.714 195.208C205.53 194.928 205.438 194.612 205.438 194.26C205.438 193.828 205.55 193.488 205.774 193.24C205.998 192.984 206.362 192.8 206.866 192.688C207.37 192.576 208.046 192.52 208.894 192.52H209.494V193.384H208.906C208.41 193.384 208.014 193.408 207.718 193.456C207.422 193.504 207.21 193.588 207.082 193.708C206.962 193.82 206.902 193.98 206.902 194.188C206.902 194.452 206.994 194.668 207.178 194.836C207.362 195.004 207.618 195.088 207.946 195.088C208.21 195.088 208.442 195.028 208.642 194.908C208.85 194.78 209.014 194.608 209.134 194.392C209.254 194.176 209.314 193.928 209.314 193.648V192.268C209.314 191.868 209.226 191.58 209.05 191.404C208.874 191.228 208.578 191.14 208.162 191.14C207.93 191.14 207.678 191.168 207.406 191.224C207.142 191.28 206.862 191.376 206.566 191.512C206.414 191.584 206.278 191.604 206.158 191.572C206.046 191.54 205.958 191.476 205.894 191.38C205.83 191.276 205.798 191.164 205.798 191.044C205.798 190.924 205.83 190.808 205.894 190.696C205.958 190.576 206.066 190.488 206.218 190.432C206.586 190.28 206.938 190.172 207.274 190.108C207.618 190.044 207.93 190.012 208.21 190.012C208.786 190.012 209.258 190.1 209.626 190.276C210.002 190.452 210.282 190.72 210.466 191.08C210.65 191.432 210.742 191.888 210.742 192.448V195.328C210.742 195.576 210.682 195.768 210.562 195.904C210.442 196.032 210.27 196.096 210.046 196.096C209.822 196.096 209.646 196.032 209.518 195.904C209.398 195.768 209.338 195.576 209.338 195.328V194.752H209.434C209.378 195.032 209.266 195.276 209.098 195.484C208.938 195.684 208.734 195.84 208.486 195.952C208.238 196.064 207.954 196.12 207.634 196.12ZM213.694 198.256C213.518 198.256 213.374 198.208 213.262 198.112C213.15 198.024 213.082 197.904 213.058 197.752C213.042 197.6 213.07 197.44 213.142 197.272L213.958 195.46V196.084L211.774 191.032C211.702 190.856 211.678 190.692 211.702 190.54C211.726 190.388 211.798 190.268 211.918 190.18C212.046 190.084 212.218 190.036 212.434 190.036C212.618 190.036 212.766 190.08 212.878 190.168C212.99 190.248 213.09 190.404 213.178 190.636L214.798 194.68H214.438L216.094 190.624C216.182 190.4 216.286 190.248 216.406 190.168C216.526 190.08 216.686 190.036 216.886 190.036C217.062 190.036 217.202 190.084 217.306 190.18C217.41 190.268 217.474 190.388 217.498 190.54C217.522 190.684 217.494 190.844 217.414 191.02L214.498 197.68C214.394 197.904 214.282 198.056 214.162 198.136C214.042 198.216 213.886 198.256 213.694 198.256Z" fill="#D20909"/>
</g>
</g>
<path d="M157.957 53.0665C159.132 51.1877 161.868 51.1877 163.043 53.0665L168.887 62.4092C170.137 64.4073 168.7 67 166.343 67H154.657C152.3 67 150.863 64.4073 152.113 62.4092L157.957 53.0665Z" fill="white"/>
</g>
<path d="M60 5C60 2.23858 62.2386 0 65 0H255C257.761 0 260 2.23858 260 5V37C260 39.7614 257.761 42 255 42H65C62.2386 42 60 39.7614 60 37V5Z" fill="#DAFDF5"/>
<path d="M100.5 27.6667C96.8335 27.6667 93.8335 24.6667 93.8335 21C93.8335 17.8667 96.1002 15.0667 99.1668 14.4667C99.4335 14.4 99.7668 14.5334 99.9002 14.8C100.033 15.0667 99.9668 15.4 99.7668 15.6C98.9668 16.4 98.5002 17.5334 98.5002 18.6667C98.5002 21.0667 100.433 23 102.833 23C103.967 23 105.1 22.5334 105.9 21.7334C106.1 21.5334 106.433 21.4667 106.7 21.6C106.967 21.7334 107.1 22 107.033 22.3334C106.433 25.4 103.633 27.6667 100.5 27.6667ZM97.5668 16.5334C96.1002 17.5334 95.1668 19.1334 95.1668 21C95.1668 23.9334 97.5668 26.3334 100.5 26.3334C102.367 26.3334 103.967 25.4 104.967 23.9334C104.3 24.2 103.567 24.3334 102.833 24.3334C99.7002 24.3334 97.1668 21.8 97.1668 18.6667C97.1668 17.9334 97.3002 17.2 97.5668 16.5334Z" fill="#2F99A2"/>
<path d="M118.578 25.096C118.346 25.096 118.166 25.032 118.038 24.904C117.918 24.776 117.858 24.592 117.858 24.352V17.212C117.858 16.964 117.918 16.776 118.038 16.648C118.166 16.512 118.33 16.444 118.53 16.444C118.714 16.444 118.85 16.48 118.938 16.552C119.034 16.616 119.146 16.728 119.274 16.888L123.87 22.852H123.558V17.176C123.558 16.944 123.618 16.764 123.738 16.636C123.866 16.508 124.046 16.444 124.278 16.444C124.51 16.444 124.686 16.508 124.806 16.636C124.926 16.764 124.986 16.944 124.986 17.176V24.376C124.986 24.6 124.93 24.776 124.818 24.904C124.706 25.032 124.554 25.096 124.362 25.096C124.178 25.096 124.03 25.06 123.918 24.988C123.814 24.916 123.698 24.8 123.57 24.64L118.986 18.676H119.286V24.352C119.286 24.592 119.226 24.776 119.106 24.904C118.986 25.032 118.81 25.096 118.578 25.096ZM127.434 25.084C127.194 25.084 127.01 25.012 126.882 24.868C126.754 24.724 126.69 24.524 126.69 24.268V19.864C126.69 19.6 126.754 19.4 126.882 19.264C127.01 19.12 127.194 19.048 127.434 19.048C127.674 19.048 127.858 19.12 127.986 19.264C128.122 19.4 128.19 19.6 128.19 19.864V24.268C128.19 24.524 128.126 24.724 127.998 24.868C127.87 25.012 127.682 25.084 127.434 25.084ZM127.434 17.932C127.154 17.932 126.934 17.864 126.774 17.728C126.622 17.584 126.546 17.388 126.546 17.14C126.546 16.884 126.622 16.688 126.774 16.552C126.934 16.416 127.154 16.348 127.434 16.348C127.722 16.348 127.942 16.416 128.094 16.552C128.246 16.688 128.322 16.884 128.322 17.14C128.322 17.388 128.246 17.584 128.094 17.728C127.942 17.864 127.722 17.932 127.434 17.932ZM132.485 27.28C132.053 27.28 131.633 27.24 131.225 27.16C130.825 27.08 130.461 26.956 130.133 26.788C129.981 26.708 129.877 26.612 129.821 26.5C129.773 26.388 129.757 26.272 129.773 26.152C129.797 26.04 129.845 25.94 129.917 25.852C129.997 25.764 130.093 25.704 130.205 25.672C130.317 25.64 130.433 25.656 130.553 25.72C130.905 25.896 131.237 26.008 131.549 26.056C131.869 26.112 132.141 26.14 132.365 26.14C132.901 26.14 133.301 26.008 133.565 25.744C133.837 25.488 133.973 25.104 133.973 24.592V23.512H134.081C133.961 23.92 133.709 24.248 133.325 24.496C132.949 24.736 132.521 24.856 132.041 24.856C131.513 24.856 131.053 24.736 130.661 24.496C130.269 24.248 129.965 23.904 129.749 23.464C129.533 23.024 129.425 22.512 129.425 21.928C129.425 21.488 129.485 21.092 129.605 20.74C129.733 20.38 129.909 20.072 130.133 19.816C130.365 19.56 130.641 19.364 130.961 19.228C131.289 19.084 131.649 19.012 132.041 19.012C132.537 19.012 132.969 19.136 133.337 19.384C133.713 19.624 133.957 19.944 134.069 20.344L133.949 20.644V19.792C133.949 19.544 134.013 19.356 134.141 19.228C134.277 19.1 134.461 19.036 134.693 19.036C134.933 19.036 135.117 19.1 135.245 19.228C135.373 19.356 135.437 19.544 135.437 19.792V24.412C135.437 25.364 135.185 26.08 134.681 26.56C134.177 27.04 133.445 27.28 132.485 27.28ZM132.449 23.716C132.761 23.716 133.029 23.644 133.253 23.5C133.477 23.356 133.649 23.152 133.769 22.888C133.897 22.616 133.961 22.296 133.961 21.928C133.961 21.376 133.825 20.944 133.553 20.632C133.281 20.312 132.913 20.152 132.449 20.152C132.137 20.152 131.869 20.224 131.645 20.368C131.421 20.512 131.245 20.716 131.117 20.98C130.997 21.244 130.937 21.56 130.937 21.928C130.937 22.48 131.073 22.916 131.345 23.236C131.617 23.556 131.985 23.716 132.449 23.716ZM137.735 25.096C137.495 25.096 137.311 25.032 137.183 24.904C137.055 24.768 136.991 24.576 136.991 24.328V17.2C136.991 16.952 137.055 16.764 137.183 16.636C137.311 16.508 137.495 16.444 137.735 16.444C137.975 16.444 138.159 16.508 138.287 16.636C138.423 16.764 138.491 16.952 138.491 17.2V20.308H138.323C138.499 19.884 138.771 19.564 139.139 19.348C139.515 19.124 139.939 19.012 140.411 19.012C140.883 19.012 141.271 19.1 141.575 19.276C141.879 19.452 142.107 19.72 142.259 20.08C142.411 20.432 142.487 20.88 142.487 21.424V24.328C142.487 24.576 142.423 24.768 142.295 24.904C142.167 25.032 141.983 25.096 141.743 25.096C141.503 25.096 141.315 25.032 141.179 24.904C141.051 24.768 140.987 24.576 140.987 24.328V21.496C140.987 21.04 140.899 20.708 140.723 20.5C140.555 20.292 140.291 20.188 139.931 20.188C139.491 20.188 139.139 20.328 138.875 20.608C138.619 20.88 138.491 21.244 138.491 21.7V24.328C138.491 24.84 138.239 25.096 137.735 25.096ZM146.698 25.12C146.178 25.12 145.742 25.032 145.39 24.856C145.046 24.68 144.79 24.424 144.622 24.088C144.454 23.744 144.37 23.32 144.37 22.816V20.26H143.746C143.554 20.26 143.406 20.212 143.302 20.116C143.198 20.012 143.146 19.872 143.146 19.696C143.146 19.512 143.198 19.372 143.302 19.276C143.406 19.18 143.554 19.132 143.746 19.132H144.37V18.04C144.37 17.792 144.434 17.604 144.562 17.476C144.698 17.348 144.886 17.284 145.126 17.284C145.366 17.284 145.55 17.348 145.678 17.476C145.806 17.604 145.87 17.792 145.87 18.04V19.132H147.142C147.334 19.132 147.482 19.18 147.586 19.276C147.69 19.372 147.742 19.512 147.742 19.696C147.742 19.872 147.69 20.012 147.586 20.116C147.482 20.212 147.334 20.26 147.142 20.26H145.87V22.732C145.87 23.116 145.954 23.404 146.122 23.596C146.29 23.788 146.562 23.884 146.938 23.884C147.074 23.884 147.194 23.872 147.298 23.848C147.402 23.824 147.494 23.808 147.574 23.8C147.67 23.792 147.75 23.824 147.814 23.896C147.878 23.96 147.91 24.096 147.91 24.304C147.91 24.464 147.882 24.608 147.826 24.736C147.778 24.856 147.686 24.94 147.55 24.988C147.446 25.02 147.31 25.048 147.142 25.072C146.974 25.104 146.826 25.12 146.698 25.12ZM154.934 25.12C154.582 25.12 154.23 25.092 153.878 25.036C153.526 24.988 153.194 24.912 152.882 24.808C152.57 24.696 152.29 24.56 152.042 24.4C151.898 24.304 151.798 24.188 151.742 24.052C151.686 23.916 151.666 23.784 151.682 23.656C151.706 23.52 151.758 23.404 151.838 23.308C151.926 23.204 152.034 23.14 152.162 23.116C152.29 23.092 152.43 23.128 152.582 23.224C152.934 23.432 153.306 23.584 153.698 23.68C154.09 23.776 154.502 23.824 154.934 23.824C155.566 23.824 156.026 23.72 156.314 23.512C156.602 23.296 156.746 23.02 156.746 22.684C156.746 22.404 156.642 22.184 156.434 22.024C156.234 21.864 155.886 21.732 155.39 21.628L154.07 21.352C153.31 21.192 152.742 20.924 152.366 20.548C151.998 20.164 151.814 19.66 151.814 19.036C151.814 18.644 151.894 18.288 152.054 17.968C152.214 17.648 152.438 17.372 152.726 17.14C153.022 16.908 153.37 16.732 153.77 16.612C154.178 16.484 154.626 16.42 155.114 16.42C155.594 16.42 156.05 16.48 156.482 16.6C156.914 16.72 157.302 16.896 157.646 17.128C157.774 17.216 157.858 17.324 157.898 17.452C157.946 17.58 157.958 17.708 157.934 17.836C157.91 17.956 157.854 18.06 157.766 18.148C157.678 18.236 157.566 18.288 157.43 18.304C157.302 18.32 157.154 18.28 156.986 18.184C156.69 18.016 156.39 17.896 156.086 17.824C155.782 17.752 155.454 17.716 155.102 17.716C154.734 17.716 154.418 17.768 154.154 17.872C153.89 17.976 153.686 18.124 153.542 18.316C153.406 18.5 153.338 18.72 153.338 18.976C153.338 19.264 153.434 19.496 153.626 19.672C153.818 19.84 154.146 19.972 154.61 20.068L155.918 20.344C156.71 20.512 157.298 20.776 157.682 21.136C158.074 21.496 158.27 21.976 158.27 22.576C158.27 22.96 158.19 23.308 158.03 23.62C157.878 23.932 157.654 24.2 157.358 24.424C157.07 24.648 156.722 24.82 156.314 24.94C155.906 25.06 155.446 25.12 154.934 25.12ZM160.188 25.096C159.948 25.096 159.764 25.032 159.636 24.904C159.508 24.768 159.444 24.576 159.444 24.328V17.2C159.444 16.952 159.508 16.764 159.636 16.636C159.764 16.508 159.948 16.444 160.188 16.444C160.428 16.444 160.612 16.508 160.74 16.636C160.876 16.764 160.944 16.952 160.944 17.2V20.308H160.776C160.952 19.884 161.224 19.564 161.592 19.348C161.968 19.124 162.392 19.012 162.864 19.012C163.336 19.012 163.724 19.1 164.028 19.276C164.332 19.452 164.56 19.72 164.712 20.08C164.864 20.432 164.94 20.88 164.94 21.424V24.328C164.94 24.576 164.876 24.768 164.748 24.904C164.62 25.032 164.436 25.096 164.196 25.096C163.956 25.096 163.768 25.032 163.632 24.904C163.504 24.768 163.44 24.576 163.44 24.328V21.496C163.44 21.04 163.352 20.708 163.176 20.5C163.008 20.292 162.744 20.188 162.384 20.188C161.944 20.188 161.592 20.328 161.328 20.608C161.072 20.88 160.944 21.244 160.944 21.7V24.328C160.944 24.84 160.692 25.096 160.188 25.096ZM167.208 25.084C166.968 25.084 166.784 25.012 166.656 24.868C166.528 24.724 166.464 24.524 166.464 24.268V19.864C166.464 19.6 166.528 19.4 166.656 19.264C166.784 19.12 166.968 19.048 167.208 19.048C167.448 19.048 167.632 19.12 167.76 19.264C167.896 19.4 167.964 19.6 167.964 19.864V24.268C167.964 24.524 167.9 24.724 167.772 24.868C167.644 25.012 167.456 25.084 167.208 25.084ZM167.208 17.932C166.928 17.932 166.708 17.864 166.548 17.728C166.396 17.584 166.32 17.388 166.32 17.14C166.32 16.884 166.396 16.688 166.548 16.552C166.708 16.416 166.928 16.348 167.208 16.348C167.496 16.348 167.716 16.416 167.868 16.552C168.02 16.688 168.096 16.884 168.096 17.14C168.096 17.388 168.02 17.584 167.868 17.728C167.716 17.864 167.496 17.932 167.208 17.932ZM170.674 25.096C170.434 25.096 170.246 25.032 170.11 24.904C169.982 24.768 169.918 24.576 169.918 24.328V20.26H169.366C169.174 20.26 169.026 20.212 168.922 20.116C168.818 20.012 168.766 19.872 168.766 19.696C168.766 19.512 168.818 19.372 168.922 19.276C169.026 19.18 169.174 19.132 169.366 19.132H170.35L169.918 19.528V19.12C169.918 18.296 170.126 17.68 170.542 17.272C170.958 16.856 171.558 16.612 172.342 16.54L172.75 16.504C172.91 16.488 173.038 16.516 173.134 16.588C173.23 16.652 173.294 16.74 173.326 16.852C173.358 16.956 173.362 17.064 173.338 17.176C173.314 17.288 173.262 17.388 173.182 17.476C173.11 17.556 173.014 17.6 172.894 17.608L172.726 17.62C172.27 17.652 171.938 17.768 171.73 17.968C171.522 18.168 171.418 18.472 171.418 18.88V19.324L171.226 19.132H172.438C172.63 19.132 172.778 19.18 172.882 19.276C172.986 19.372 173.038 19.512 173.038 19.696C173.038 19.872 172.986 20.012 172.882 20.116C172.778 20.212 172.63 20.26 172.438 20.26H171.418V24.328C171.418 24.84 171.17 25.096 170.674 25.096ZM176.253 25.12C175.733 25.12 175.297 25.032 174.945 24.856C174.601 24.68 174.345 24.424 174.177 24.088C174.009 23.744 173.925 23.32 173.925 22.816V20.26H173.301C173.109 20.26 172.961 20.212 172.857 20.116C172.753 20.012 172.701 19.872 172.701 19.696C172.701 19.512 172.753 19.372 172.857 19.276C172.961 19.18 173.109 19.132 173.301 19.132H173.925V18.04C173.925 17.792 173.989 17.604 174.117 17.476C174.253 17.348 174.441 17.284 174.681 17.284C174.921 17.284 175.105 17.348 175.233 17.476C175.361 17.604 175.425 17.792 175.425 18.04V19.132H176.697C176.889 19.132 177.037 19.18 177.141 19.276C177.245 19.372 177.297 19.512 177.297 19.696C177.297 19.872 177.245 20.012 177.141 20.116C177.037 20.212 176.889 20.26 176.697 20.26H175.425V22.732C175.425 23.116 175.509 23.404 175.677 23.596C175.845 23.788 176.117 23.884 176.493 23.884C176.629 23.884 176.749 23.872 176.853 23.848C176.957 23.824 177.049 23.808 177.129 23.8C177.225 23.792 177.305 23.824 177.369 23.896C177.433 23.96 177.465 24.096 177.465 24.304C177.465 24.464 177.437 24.608 177.381 24.736C177.333 24.856 177.241 24.94 177.105 24.988C177.001 25.02 176.865 25.048 176.697 25.072C176.529 25.104 176.381 25.12 176.253 25.12ZM182.364 25.096C182.116 25.096 181.92 25.028 181.776 24.892C181.64 24.748 181.572 24.544 181.572 24.28V17.356C181.572 17.092 181.64 16.892 181.776 16.756C181.92 16.612 182.124 16.54 182.388 16.54H186.576C186.784 16.54 186.94 16.592 187.044 16.696C187.148 16.8 187.2 16.948 187.2 17.14C187.2 17.34 187.148 17.496 187.044 17.608C186.94 17.712 186.784 17.764 186.576 17.764H183.108V20.152H186.324C186.524 20.152 186.676 20.204 186.78 20.308C186.892 20.412 186.948 20.56 186.948 20.752C186.948 20.952 186.892 21.108 186.78 21.22C186.676 21.324 186.524 21.376 186.324 21.376H183.108V24.28C183.108 24.824 182.86 25.096 182.364 25.096ZM190.138 25.12C189.65 25.12 189.246 25.032 188.926 24.856C188.606 24.672 188.366 24.4 188.206 24.04C188.054 23.68 187.978 23.232 187.978 22.696V19.792C187.978 19.536 188.042 19.348 188.17 19.228C188.298 19.1 188.482 19.036 188.722 19.036C188.962 19.036 189.146 19.1 189.274 19.228C189.41 19.348 189.478 19.536 189.478 19.792V22.72C189.478 23.136 189.562 23.444 189.73 23.644C189.898 23.844 190.166 23.944 190.534 23.944C190.934 23.944 191.262 23.808 191.518 23.536C191.774 23.256 191.902 22.888 191.902 22.432V19.792C191.902 19.536 191.966 19.348 192.094 19.228C192.222 19.1 192.406 19.036 192.646 19.036C192.886 19.036 193.07 19.1 193.198 19.228C193.334 19.348 193.402 19.536 193.402 19.792V24.328C193.402 24.84 193.158 25.096 192.67 25.096C192.438 25.096 192.258 25.032 192.13 24.904C192.002 24.768 191.938 24.576 191.938 24.328V23.416L192.106 23.776C191.938 24.208 191.682 24.54 191.338 24.772C191.002 25.004 190.602 25.12 190.138 25.12ZM196.968 25.12C196.304 25.12 195.804 24.932 195.468 24.556C195.132 24.172 194.964 23.612 194.964 22.876V17.2C194.964 16.952 195.028 16.764 195.156 16.636C195.284 16.508 195.468 16.444 195.708 16.444C195.948 16.444 196.132 16.508 196.26 16.636C196.396 16.764 196.464 16.952 196.464 17.2V22.804C196.464 23.172 196.54 23.444 196.692 23.62C196.852 23.796 197.076 23.884 197.364 23.884C197.428 23.884 197.488 23.884 197.544 23.884C197.6 23.876 197.656 23.868 197.712 23.86C197.824 23.844 197.9 23.876 197.94 23.956C197.98 24.028 198 24.18 198 24.412C198 24.612 197.96 24.768 197.88 24.88C197.8 24.992 197.668 25.06 197.484 25.084C197.404 25.092 197.32 25.1 197.232 25.108C197.144 25.116 197.056 25.12 196.968 25.12ZM200.8 25.12C200.136 25.12 199.636 24.932 199.3 24.556C198.964 24.172 198.796 23.612 198.796 22.876V17.2C198.796 16.952 198.86 16.764 198.988 16.636C199.116 16.508 199.3 16.444 199.54 16.444C199.78 16.444 199.964 16.508 200.092 16.636C200.228 16.764 200.296 16.952 200.296 17.2V22.804C200.296 23.172 200.372 23.444 200.524 23.62C200.684 23.796 200.908 23.884 201.196 23.884C201.26 23.884 201.32 23.884 201.376 23.884C201.432 23.876 201.488 23.868 201.544 23.86C201.656 23.844 201.732 23.876 201.772 23.956C201.812 24.028 201.832 24.18 201.832 24.412C201.832 24.612 201.792 24.768 201.712 24.88C201.632 24.992 201.5 25.06 201.316 25.084C201.236 25.092 201.152 25.1 201.064 25.108C200.976 25.116 200.888 25.12 200.8 25.12ZM206.845 25C206.581 25 206.377 24.932 206.233 24.796C206.097 24.652 206.029 24.448 206.029 24.184V17.356C206.029 17.092 206.097 16.892 206.233 16.756C206.377 16.612 206.581 16.54 206.845 16.54H209.173C210.589 16.54 211.681 16.904 212.449 17.632C213.225 18.36 213.613 19.404 213.613 20.764C213.613 21.444 213.513 22.048 213.313 22.576C213.121 23.096 212.833 23.536 212.449 23.896C212.073 24.256 211.609 24.532 211.057 24.724C210.513 24.908 209.885 25 209.173 25H206.845ZM207.565 23.728H209.077C209.573 23.728 210.001 23.668 210.361 23.548C210.729 23.42 211.033 23.236 211.273 22.996C211.521 22.748 211.705 22.44 211.825 22.072C211.945 21.696 212.005 21.26 212.005 20.764C212.005 19.772 211.761 19.032 211.273 18.544C210.785 18.056 210.053 17.812 209.077 17.812H207.565V23.728ZM216.958 25.12C216.534 25.12 216.154 25.04 215.818 24.88C215.49 24.712 215.23 24.488 215.038 24.208C214.854 23.928 214.762 23.612 214.762 23.26C214.762 22.828 214.874 22.488 215.098 22.24C215.322 21.984 215.686 21.8 216.19 21.688C216.694 21.576 217.37 21.52 218.218 21.52H218.818V22.384H218.23C217.734 22.384 217.338 22.408 217.042 22.456C216.746 22.504 216.534 22.588 216.406 22.708C216.286 22.82 216.226 22.98 216.226 23.188C216.226 23.452 216.318 23.668 216.502 23.836C216.686 24.004 216.942 24.088 217.27 24.088C217.534 24.088 217.766 24.028 217.966 23.908C218.174 23.78 218.338 23.608 218.458 23.392C218.578 23.176 218.638 22.928 218.638 22.648V21.268C218.638 20.868 218.55 20.58 218.374 20.404C218.198 20.228 217.902 20.14 217.486 20.14C217.254 20.14 217.002 20.168 216.73 20.224C216.466 20.28 216.186 20.376 215.89 20.512C215.738 20.584 215.602 20.604 215.482 20.572C215.37 20.54 215.282 20.476 215.218 20.38C215.154 20.276 215.122 20.164 215.122 20.044C215.122 19.924 215.154 19.808 215.218 19.696C215.282 19.576 215.39 19.488 215.542 19.432C215.91 19.28 216.262 19.172 216.598 19.108C216.942 19.044 217.254 19.012 217.534 19.012C218.11 19.012 218.582 19.1 218.95 19.276C219.326 19.452 219.606 19.72 219.79 20.08C219.974 20.432 220.066 20.888 220.066 21.448V24.328C220.066 24.576 220.006 24.768 219.886 24.904C219.766 25.032 219.594 25.096 219.37 25.096C219.146 25.096 218.97 25.032 218.842 24.904C218.722 24.768 218.662 24.576 218.662 24.328V23.752H218.758C218.702 24.032 218.59 24.276 218.422 24.484C218.262 24.684 218.058 24.84 217.81 24.952C217.562 25.064 217.278 25.12 216.958 25.12ZM223.018 27.256C222.842 27.256 222.698 27.208 222.586 27.112C222.474 27.024 222.406 26.904 222.382 26.752C222.366 26.6 222.394 26.44 222.466 26.272L223.282 24.46V25.084L221.098 20.032C221.026 19.856 221.002 19.692 221.026 19.54C221.05 19.388 221.122 19.268 221.242 19.18C221.37 19.084 221.542 19.036 221.758 19.036C221.942 19.036 222.09 19.08 222.202 19.168C222.314 19.248 222.414 19.404 222.502 19.636L224.122 23.68H223.762L225.418 19.624C225.506 19.4 225.61 19.248 225.73 19.168C225.85 19.08 226.01 19.036 226.21 19.036C226.386 19.036 226.526 19.084 226.63 19.18C226.734 19.268 226.798 19.388 226.822 19.54C226.846 19.684 226.818 19.844 226.738 20.02L223.822 26.68C223.718 26.904 223.606 27.056 223.486 27.136C223.366 27.216 223.21 27.256 223.018 27.256Z" fill="#178B96"/>
<defs>
<filter id="filter0_d_999_3466" x="0" y="5.65723" width="321" height="281.343" filterUnits="userSpaceOnUse" color-interpolation-filters="sRGB">
<feFlood flood-opacity="0" result="BackgroundImageFix"/>
<feColorMatrix in="SourceAlpha" type="matrix" values="0 0 0 0 0 0 0 0 0 0 0 0 0 0 0 0 0 0 127 0" result="hardAlpha"/>
<feOffset dy="4"/>
<feGaussianBlur stdDeviation="25"/>
<feComposite in2="hardAlpha" operator="out"/>
<feColorMatrix type="matrix" values="0 0 0 0 0 0 0 0 0 0 0 0 0 0 0 0 0 0 0.05 0"/>
<feBlend mode="normal" in2="BackgroundImageFix" result="effect1_dropShadow_999_3466"/>
<feBlend mode="normal" in="SourceGraphic" in2="effect1_dropShadow_999_3466" result="shape"/>
</filter>
<filter id="filter1_d_999_3466" x="46" y="63" width="229" height="178" filterUnits="userSpaceOnUse" color-interpolation-filters="sRGB">
<feFlood flood-opacity="0" result="BackgroundImageFix"/>
<feColorMatrix in="SourceAlpha" type="matrix" values="0 0 0 0 0 0 0 0 0 0 0 0 0 0 0 0 0 0 127 0" result="hardAlpha"/>
<feOffset dy="4"/>
<feGaussianBlur stdDeviation="2"/>
<feComposite in2="hardAlpha" operator="out"/>
<feColorMatrix type="matrix" values="0 0 0 0 0 0 0 0 0 0 0 0 0 0 0 0 0 0 0.05 0"/>
<feBlend mode="normal" in2="BackgroundImageFix" result="effect1_dropShadow_999_3466"/>
<feBlend mode="normal" in="SourceGraphic" in2="effect1_dropShadow_999_3466" result="shape"/>
</filter>
<filter id="filter2_d_999_3466" x="62" y="125" width="197" height="50" filterUnits="userSpaceOnUse" color-interpolation-filters="sRGB">
<feFlood flood-opacity="0" result="BackgroundImageFix"/>
<feColorMatrix in="SourceAlpha" type="matrix" values="0 0 0 0 0 0 0 0 0 0 0 0 0 0 0 0 0 0 127 0" result="hardAlpha"/>
<feOffset dy="4"/>
<feGaussianBlur stdDeviation="2"/>
<feComposite in2="hardAlpha" operator="out"/>
<feColorMatrix type="matrix" values="0 0 0 0 0 0 0 0 0 0 0 0 0 0 0 0 0 0 0.05 0"/>
<feBlend mode="normal" in2="BackgroundImageFix" result="effect1_dropShadow_999_3466"/>
<feBlend mode="normal" in="SourceGraphic" in2="effect1_dropShadow_999_3466" result="shape"/>
</filter>
<filter id="filter3_i_999_3466" x="66" y="171" width="189" height="44" filterUnits="userSpaceOnUse" color-interpolation-filters="sRGB">
<feFlood flood-opacity="0" result="BackgroundImageFix"/>
<feBlend mode="normal" in="SourceGraphic" in2="BackgroundImageFix" result="shape"/>
<feColorMatrix in="SourceAlpha" type="matrix" values="0 0 0 0 0 0 0 0 0 0 0 0 0 0 0 0 0 0 127 0" result="hardAlpha"/>
<feOffset dy="2"/>
<feGaussianBlur stdDeviation="2"/>
<feComposite in2="hardAlpha" operator="arithmetic" k2="-1" k3="1"/>
<feColorMatrix type="matrix" values="0 0 0 0 0 0 0 0 0 0 0 0 0 0 0 0 0 0 0.05 0"/>
<feBlend mode="normal" in2="shape" result="effect1_innerShadow_999_3466"/>
</filter>
<clipPath id="clip0_999_3466">
<rect width="16" height="16" fill="white" transform="translate(86 92)"/>
</clipPath>
<clipPath id="clip1_999_3466">
<rect width="16" height="16" fill="white" transform="translate(86 184)"/>
</clipPath>
</defs>
</svg>
