<svg width="250" height="130" viewBox="0 0 250 130" fill="none" xmlns="http://www.w3.org/2000/svg">
<rect x="0.5" y="0.5" width="249" height="129" rx="15.5" stroke="#38455D" stroke-opacity="0.16"/>
<path fill-rule="evenodd" clip-rule="evenodd" d="M43.2893 22.9497C43.2893 27.8924 39.5965 31.8993 35.0411 31.8993C30.4858 31.8993 26.793 27.8924 26.793 22.9497C26.793 18.0069 30.4858 14 35.0411 14C39.5965 14 43.2893 18.0069 43.2893 22.9497ZM39.9227 22.9497C39.9227 26.0537 37.6319 28.3666 35.0411 28.3666C32.4504 28.3666 30.1596 26.0537 30.1596 22.9497C30.1596 19.8457 32.4504 17.5328 35.0411 17.5328C37.6319 17.5328 39.9227 19.8457 39.9227 22.9497Z" fill="#38455D"/>
<path d="M28.5385 37.5423C31.1498 37.2569 32.9723 37.2073 35.3237 37.5363C36.2452 37.6652 37.0918 36.9858 37.2147 36.0188C37.3375 35.0518 36.6901 34.1634 35.7686 34.0345C33.0701 33.657 30.9649 33.7252 28.1897 34.0285C24.2617 34.4578 20.8118 35.6451 18.2924 37.4046C15.7893 39.1528 13.9997 41.6355 14 44.6246L14.0001 46.1471C14.0003 49.0752 16.263 51.4473 19.0523 51.4473H33.5262C34.4558 51.4473 35.2095 50.6565 35.2095 49.6809C35.2095 48.7054 34.4558 47.9145 33.5262 47.9145H19.0523C18.1211 47.9145 17.3668 47.1228 17.3667 46.1468L17.3666 44.6242C17.3664 43.2515 18.1859 41.7226 20.1577 40.3456C22.1131 38.9799 25.0039 37.9286 28.5385 37.5423Z" fill="#38455D"/>
<path d="M42.2331 37.7873C42.2331 35.1858 44.2427 33.0769 46.7218 33.0769H48.5056C50.9847 33.0769 52.9944 35.1858 52.9944 37.7873V38.5685H50.1934V38.1392C50.1934 36.8385 49.1886 35.784 47.949 35.784H47.2783C46.0387 35.784 45.0339 36.8385 45.0339 38.1392V38.5685H42.2331V37.7873Z" fill="#38455D"/>
<path fill-rule="evenodd" clip-rule="evenodd" d="M40.7082 38.6145C38.2291 38.6145 36.2195 40.7234 36.2195 43.3249V51.2896C36.2195 53.8911 38.2291 56 40.7082 56H54.5112C56.9903 56 59 53.8911 59 51.2896V43.3249C59 40.7234 56.9903 38.6145 54.5112 38.6145H40.7082ZM49.1587 42.6067C48.3159 42.6067 47.6327 43.3237 47.6327 44.208C47.6327 45.0924 48.3159 45.8093 49.1587 45.8093H53.6684C54.5111 45.8093 55.1943 45.0924 55.1943 44.208C55.1943 43.3237 54.5111 42.6067 53.6684 42.6067H49.1587Z" fill="#38455D"/>
<path d="M23.2344 83.9688H17.6406V86.9297H24.0156V89H15.2891V77.4844H23.7344V79.5234H17.6406V81.9688H23.2344V83.9688ZM30.4922 82.8281C30.3047 82.4167 29.9375 82.2109 29.3906 82.2109C28.7552 82.2109 28.3281 82.4167 28.1094 82.8281C27.9896 83.0625 27.9297 83.4115 27.9297 83.875V89H25.6719V80.5H27.8359V81.7422C28.112 81.2995 28.3724 80.9844 28.6172 80.7969C29.0495 80.4635 29.6094 80.2969 30.2969 80.2969C30.9479 80.2969 31.474 80.4401 31.875 80.7266C32.1979 80.9922 32.4427 81.3333 32.6094 81.75C32.901 81.25 33.263 80.8828 33.6953 80.6484C34.1536 80.4141 34.6641 80.2969 35.2266 80.2969C35.6016 80.2969 35.9714 80.3698 36.3359 80.5156C36.7005 80.6615 37.0312 80.9167 37.3281 81.2812C37.5677 81.5781 37.7292 81.9427 37.8125 82.375C37.8646 82.6615 37.8906 83.0807 37.8906 83.6328L37.875 89H35.5938V83.5781C35.5938 83.2552 35.5417 82.9896 35.4375 82.7812C35.2396 82.3854 34.875 82.1875 34.3438 82.1875C33.7292 82.1875 33.3047 82.4427 33.0703 82.9531C32.9505 83.224 32.8906 83.5495 32.8906 83.9297V89H30.6484V83.9297C30.6484 83.4245 30.5964 83.0573 30.4922 82.8281ZM47.0781 81.3984C47.7656 82.1328 48.1094 83.2109 48.1094 84.6328C48.1094 86.1328 47.7708 87.276 47.0938 88.0625C46.4219 88.849 45.5547 89.2422 44.4922 89.2422C43.8151 89.2422 43.2526 89.0729 42.8047 88.7344C42.5599 88.5469 42.3203 88.2734 42.0859 87.9141V92.3516H39.8828V80.4844H42.0156V81.7422C42.2552 81.3724 42.5104 81.0807 42.7812 80.8672C43.276 80.487 43.8646 80.2969 44.5469 80.2969C45.5417 80.2969 46.3854 80.6641 47.0781 81.3984ZM45.8125 84.7422C45.8125 84.0859 45.6615 83.5052 45.3594 83C45.0625 82.4948 44.5781 82.2422 43.9062 82.2422C43.099 82.2422 42.5443 82.625 42.2422 83.3906C42.0859 83.7969 42.0078 84.3125 42.0078 84.9375C42.0078 85.9271 42.2708 86.6224 42.7969 87.0234C43.1094 87.2578 43.4792 87.375 43.9062 87.375C44.526 87.375 44.9974 87.1354 45.3203 86.6562C45.6484 86.1771 45.8125 85.5391 45.8125 84.7422ZM49.7734 77.4844H52V89H49.7734V77.4844ZM61.2812 81.5625C62 82.4635 62.3594 83.5286 62.3594 84.7578C62.3594 86.0078 62 87.0781 61.2812 87.9688C60.5625 88.8542 59.4714 89.2969 58.0078 89.2969C56.5443 89.2969 55.4531 88.8542 54.7344 87.9688C54.0156 87.0781 53.6562 86.0078 53.6562 84.7578C53.6562 83.5286 54.0156 82.4635 54.7344 81.5625C55.4531 80.6615 56.5443 80.2109 58.0078 80.2109C59.4714 80.2109 60.5625 80.6615 61.2812 81.5625ZM58 82.0938C57.349 82.0938 56.8464 82.3255 56.4922 82.7891C56.1432 83.2474 55.9688 83.9036 55.9688 84.7578C55.9688 85.612 56.1432 86.2708 56.4922 86.7344C56.8464 87.1979 57.349 87.4297 58 87.4297C58.651 87.4297 59.151 87.1979 59.5 86.7344C59.849 86.2708 60.0234 85.612 60.0234 84.7578C60.0234 83.9036 59.849 83.2474 59.5 82.7891C59.151 82.3255 58.651 82.0938 58 82.0938ZM67.4219 86.7656L69.1797 80.4844H71.5469L68.625 88.8594C68.0625 90.474 67.6172 91.474 67.2891 91.8594C66.9609 92.25 66.3047 92.4453 65.3203 92.4453C65.1224 92.4453 64.9635 92.4427 64.8438 92.4375C64.724 92.4375 64.5443 92.4297 64.3047 92.4141V90.6328L64.5859 90.6484C64.8047 90.6589 65.013 90.651 65.2109 90.625C65.4089 90.599 65.5755 90.5391 65.7109 90.4453C65.8411 90.3568 65.9609 90.1719 66.0703 89.8906C66.1849 89.6094 66.2318 89.4375 66.2109 89.375L63.0859 80.4844H65.5625L67.4219 86.7656ZM80.1562 86.5C80.099 87.0052 79.8359 87.5182 79.3672 88.0391C78.638 88.8672 77.6172 89.2812 76.3047 89.2812C75.2214 89.2812 74.2656 88.9323 73.4375 88.2344C72.6094 87.5365 72.1953 86.401 72.1953 84.8281C72.1953 83.3542 72.5677 82.224 73.3125 81.4375C74.0625 80.651 75.0339 80.2578 76.2266 80.2578C76.9349 80.2578 77.5729 80.3906 78.1406 80.6562C78.7083 80.9219 79.1771 81.3411 79.5469 81.9141C79.8802 82.4193 80.0964 83.0052 80.1953 83.6719C80.2526 84.0625 80.276 84.625 80.2656 85.3594H74.4375C74.4688 86.2135 74.737 86.8125 75.2422 87.1562C75.5495 87.3698 75.9193 87.4766 76.3516 87.4766C76.8099 87.4766 77.1823 87.3464 77.4688 87.0859C77.625 86.9453 77.763 86.75 77.8828 86.5H80.1562ZM77.9531 83.8906C77.9167 83.3021 77.737 82.8568 77.4141 82.5547C77.0964 82.2474 76.7005 82.0938 76.2266 82.0938C75.7109 82.0938 75.3099 82.2552 75.0234 82.5781C74.7422 82.901 74.5651 83.3385 74.4922 83.8906H77.9531ZM89.0625 86.5C89.0052 87.0052 88.7422 87.5182 88.2734 88.0391C87.5443 88.8672 86.5234 89.2812 85.2109 89.2812C84.1276 89.2812 83.1719 88.9323 82.3438 88.2344C81.5156 87.5365 81.1016 86.401 81.1016 84.8281C81.1016 83.3542 81.474 82.224 82.2188 81.4375C82.9688 80.651 83.9401 80.2578 85.1328 80.2578C85.8411 80.2578 86.4792 80.3906 87.0469 80.6562C87.6146 80.9219 88.0833 81.3411 88.4531 81.9141C88.7865 82.4193 89.0026 83.0052 89.1016 83.6719C89.1589 84.0625 89.1823 84.625 89.1719 85.3594H83.3438C83.375 86.2135 83.6432 86.8125 84.1484 87.1562C84.4557 87.3698 84.8255 87.4766 85.2578 87.4766C85.7161 87.4766 86.0885 87.3464 86.375 87.0859C86.5312 86.9453 86.6693 86.75 86.7891 86.5H89.0625ZM86.8594 83.8906C86.8229 83.3021 86.6432 82.8568 86.3203 82.5547C86.0026 82.2474 85.6068 82.0938 85.1328 82.0938C84.6172 82.0938 84.2161 82.2552 83.9297 82.5781C83.6484 82.901 83.4714 83.3385 83.3984 83.8906H86.8594ZM99.4922 87.3359C100.06 87.3359 100.521 87.2734 100.875 87.1484C101.547 86.9089 101.883 86.4635 101.883 85.8125C101.883 85.4323 101.716 85.138 101.383 84.9297C101.049 84.7266 100.526 84.5469 99.8125 84.3906L98.5938 84.1172C97.3958 83.8464 96.5677 83.5521 96.1094 83.2344C95.3333 82.7031 94.9453 81.8724 94.9453 80.7422C94.9453 79.7109 95.3203 78.8542 96.0703 78.1719C96.8203 77.4896 97.9219 77.1484 99.375 77.1484C100.589 77.1484 101.622 77.4714 102.477 78.1172C103.336 78.7578 103.786 79.6901 103.828 80.9141H101.516C101.474 80.2214 101.172 79.7292 100.609 79.4375C100.234 79.2448 99.7682 79.1484 99.2109 79.1484C98.5911 79.1484 98.0964 79.2734 97.7266 79.5234C97.3568 79.7734 97.1719 80.1224 97.1719 80.5703C97.1719 80.9818 97.3542 81.2891 97.7188 81.4922C97.9531 81.6276 98.4531 81.7865 99.2188 81.9688L101.203 82.4453C102.073 82.6536 102.729 82.9323 103.172 83.2812C103.859 83.8229 104.203 84.6068 104.203 85.6328C104.203 86.6849 103.799 87.5599 102.992 88.2578C102.19 88.9505 101.055 89.2969 99.5859 89.2969C98.0859 89.2969 96.9062 88.9557 96.0469 88.2734C95.1875 87.5859 94.7578 86.6432 94.7578 85.4453H97.0547C97.1276 85.9714 97.2708 86.3646 97.4844 86.625C97.875 87.099 98.5443 87.3359 99.4922 87.3359ZM109.703 87.4141V89.0781L108.648 89.1172C107.596 89.1536 106.878 88.9714 106.492 88.5703C106.242 88.3151 106.117 87.9219 106.117 87.3906V82.1484H104.93V80.5625H106.117V78.1875H108.32V80.5625H109.703V82.1484H108.32V86.6484C108.32 86.9974 108.365 87.2161 108.453 87.3047C108.542 87.388 108.812 87.4297 109.266 87.4297C109.333 87.4297 109.404 87.4297 109.477 87.4297C109.555 87.4245 109.63 87.4193 109.703 87.4141ZM111.453 81.4062C112.042 80.6562 113.052 80.2812 114.484 80.2812C115.417 80.2812 116.245 80.4661 116.969 80.8359C117.693 81.2057 118.055 81.9036 118.055 82.9297V86.8359C118.055 87.1068 118.06 87.4349 118.07 87.8203C118.086 88.112 118.13 88.3099 118.203 88.4141C118.276 88.5182 118.385 88.6042 118.531 88.6719V89H116.109C116.042 88.8281 115.995 88.6667 115.969 88.5156C115.943 88.3646 115.922 88.1927 115.906 88C115.599 88.3333 115.245 88.6172 114.844 88.8516C114.365 89.1276 113.823 89.2656 113.219 89.2656C112.448 89.2656 111.81 89.0469 111.305 88.6094C110.805 88.1667 110.555 87.5417 110.555 86.7344C110.555 85.6875 110.958 84.9297 111.766 84.4609C112.208 84.2057 112.859 84.0234 113.719 83.9141L114.477 83.8203C114.888 83.7682 115.182 83.7031 115.359 83.625C115.677 83.4896 115.836 83.2786 115.836 82.9922C115.836 82.6432 115.714 82.4036 115.469 82.2734C115.229 82.138 114.875 82.0703 114.406 82.0703C113.88 82.0703 113.508 82.2005 113.289 82.4609C113.133 82.6536 113.029 82.9141 112.977 83.2422H110.828C110.875 82.4974 111.083 81.8854 111.453 81.4062ZM113.109 87.3906C113.318 87.5625 113.573 87.6484 113.875 87.6484C114.354 87.6484 114.794 87.5078 115.195 87.2266C115.602 86.9453 115.812 86.4323 115.828 85.6875V84.8594C115.688 84.9479 115.544 85.0208 115.398 85.0781C115.258 85.1302 115.062 85.1797 114.812 85.2266L114.312 85.3203C113.844 85.4036 113.508 85.5052 113.305 85.625C112.961 85.8281 112.789 86.1432 112.789 86.5703C112.789 86.9505 112.896 87.224 113.109 87.3906ZM123.938 87.4141V89.0781L122.883 89.1172C121.831 89.1536 121.112 88.9714 120.727 88.5703C120.477 88.3151 120.352 87.9219 120.352 87.3906V82.1484H119.164V80.5625H120.352V78.1875H122.555V80.5625H123.938V82.1484H122.555V86.6484C122.555 86.9974 122.599 87.2161 122.688 87.3047C122.776 87.388 123.047 87.4297 123.5 87.4297C123.568 87.4297 123.638 87.4297 123.711 87.4297C123.789 87.4245 123.865 87.4193 123.938 87.4141ZM130.828 87.7969C130.807 87.8229 130.755 87.901 130.672 88.0312C130.589 88.1615 130.49 88.276 130.375 88.375C130.026 88.6875 129.688 88.901 129.359 89.0156C129.036 89.1302 128.656 89.1875 128.219 89.1875C126.958 89.1875 126.109 88.7344 125.672 87.8281C125.427 87.3281 125.305 86.5911 125.305 85.6172V80.4844H127.586V85.6172C127.586 86.1016 127.643 86.4661 127.758 86.7109C127.961 87.1432 128.359 87.3594 128.953 87.3594C129.714 87.3594 130.234 87.0521 130.516 86.4375C130.661 86.1042 130.734 85.6641 130.734 85.1172V80.4844H132.992V89H130.828V87.7969ZM141.016 80.875C141.682 81.3021 142.065 82.0365 142.164 83.0781H139.938C139.906 82.7917 139.826 82.5651 139.695 82.3984C139.451 82.0964 139.034 81.9453 138.445 81.9453C137.961 81.9453 137.615 82.0208 137.406 82.1719C137.203 82.3229 137.102 82.5 137.102 82.7031C137.102 82.9583 137.211 83.1432 137.43 83.2578C137.648 83.3776 138.422 83.5833 139.75 83.875C140.635 84.0833 141.299 84.3984 141.742 84.8203C142.18 85.2474 142.398 85.7812 142.398 86.4219C142.398 87.2656 142.083 87.9557 141.453 88.4922C140.828 89.0234 139.859 89.2891 138.547 89.2891C137.208 89.2891 136.219 89.0078 135.578 88.4453C134.943 87.8776 134.625 87.1562 134.625 86.2812H136.883C136.93 86.6771 137.031 86.9583 137.188 87.125C137.464 87.4219 137.974 87.5703 138.719 87.5703C139.156 87.5703 139.503 87.5052 139.758 87.375C140.018 87.2448 140.148 87.0495 140.148 86.7891C140.148 86.5391 140.044 86.349 139.836 86.2188C139.628 86.0885 138.854 85.8646 137.516 85.5469C136.552 85.3073 135.872 85.0078 135.477 84.6484C135.081 84.2943 134.883 83.7839 134.883 83.1172C134.883 82.3307 135.19 81.6562 135.805 81.0938C136.424 80.526 137.294 80.2422 138.414 80.2422C139.477 80.2422 140.344 80.4531 141.016 80.875Z" fill="#38455D"/>
<path d="M16.096 113.112C15.8613 113.112 15.68 113.048 15.552 112.92C15.424 112.781 15.36 112.589 15.36 112.344V102.376C15.36 102.12 15.424 101.928 15.552 101.8C15.68 101.672 15.8613 101.608 16.096 101.608C16.3413 101.608 16.528 101.672 16.656 101.8C16.784 101.928 16.848 102.12 16.848 102.376V112.344C16.848 112.589 16.784 112.781 16.656 112.92C16.5387 113.048 16.352 113.112 16.096 113.112ZM20.0755 113.112C19.8515 113.112 19.6755 113.048 19.5475 112.92C19.4195 112.792 19.3555 112.605 19.3555 112.36V105.832C19.3555 105.587 19.4195 105.405 19.5475 105.288C19.6755 105.16 19.8515 105.096 20.0755 105.096C20.2995 105.096 20.4702 105.16 20.5875 105.288C20.7155 105.405 20.7795 105.587 20.7795 105.832V107.144L20.6035 106.904C20.8275 106.296 21.1902 105.837 21.6915 105.528C22.2035 105.219 22.7848 105.064 23.4355 105.064C24.0648 105.064 24.5822 105.176 24.9875 105.4C25.3928 105.624 25.6968 105.965 25.8995 106.424C26.1022 106.883 26.2035 107.464 26.2035 108.168V112.36C26.2035 112.605 26.1395 112.792 26.0115 112.92C25.8942 113.048 25.7182 113.112 25.4835 113.112C25.2488 113.112 25.0675 113.048 24.9395 112.92C24.8115 112.792 24.7475 112.605 24.7475 112.36V108.248C24.7475 107.555 24.6142 107.048 24.3475 106.728C24.0808 106.408 23.6542 106.248 23.0675 106.248C22.3848 106.248 21.8355 106.461 21.4195 106.888C21.0142 107.304 20.8115 107.869 20.8115 108.584V112.36C20.8115 112.861 20.5662 113.112 20.0755 113.112ZM31.7438 113.144C31.1144 113.144 30.5864 113.032 30.1598 112.808C29.7438 112.584 29.4291 112.259 29.2158 111.832C29.0131 111.405 28.9118 110.883 28.9118 110.264V106.328H27.8878C27.6958 106.328 27.5464 106.28 27.4398 106.184C27.3331 106.077 27.2797 105.939 27.2797 105.768C27.2797 105.587 27.3331 105.448 27.4398 105.352C27.5464 105.256 27.6958 105.208 27.8878 105.208H28.9118V103.464C28.9118 103.219 28.9758 103.037 29.1038 102.92C29.2318 102.792 29.4131 102.728 29.6478 102.728C29.8824 102.728 30.0584 102.792 30.1758 102.92C30.3038 103.037 30.3678 103.219 30.3678 103.464V105.208H32.3038C32.5064 105.208 32.6611 105.256 32.7678 105.352C32.8744 105.448 32.9278 105.587 32.9278 105.768C32.9278 105.939 32.8744 106.077 32.7678 106.184C32.6611 106.28 32.5064 106.328 32.3038 106.328H30.3678V110.136C30.3678 110.723 30.4904 111.165 30.7358 111.464C30.9811 111.763 31.3864 111.912 31.9518 111.912C32.1544 111.912 32.3251 111.896 32.4638 111.864C32.6024 111.821 32.7251 111.8 32.8318 111.8C32.9278 111.789 33.0078 111.821 33.0718 111.896C33.1464 111.971 33.1838 112.109 33.1838 112.312C33.1838 112.461 33.1571 112.6 33.1038 112.728C33.0611 112.845 32.9704 112.925 32.8318 112.968C32.7038 113.011 32.5331 113.048 32.3198 113.08C32.1064 113.123 31.9144 113.144 31.7438 113.144ZM37.768 113.144C36.9253 113.144 36.2 112.984 35.592 112.664C34.9947 112.333 34.5307 111.869 34.2 111.272C33.8693 110.664 33.704 109.949 33.704 109.128C33.704 108.317 33.864 107.608 34.184 107C34.5147 106.392 34.9627 105.917 35.528 105.576C36.104 105.235 36.76 105.064 37.496 105.064C38.0187 105.064 38.488 105.155 38.904 105.336C39.3307 105.507 39.6933 105.757 39.992 106.088C40.2907 106.419 40.5147 106.824 40.664 107.304C40.824 107.773 40.904 108.307 40.904 108.904C40.904 109.075 40.8507 109.208 40.744 109.304C40.648 109.389 40.504 109.432 40.312 109.432H34.84V108.504H39.944L39.672 108.728C39.672 108.173 39.5867 107.704 39.416 107.32C39.256 106.925 39.016 106.627 38.696 106.424C38.3867 106.221 37.9973 106.12 37.528 106.12C37.016 106.12 36.5787 106.243 36.216 106.488C35.8533 106.723 35.576 107.059 35.384 107.496C35.192 107.923 35.096 108.419 35.096 108.984V109.08C35.096 110.04 35.3253 110.765 35.784 111.256C36.2427 111.747 36.904 111.992 37.768 111.992C38.1093 111.992 38.456 111.949 38.808 111.864C39.1707 111.779 39.5173 111.624 39.848 111.4C40.008 111.304 40.152 111.261 40.28 111.272C40.4187 111.272 40.5307 111.315 40.616 111.4C40.7013 111.475 40.7547 111.571 40.776 111.688C40.7973 111.795 40.7813 111.912 40.728 112.04C40.6747 112.168 40.5733 112.28 40.424 112.376C40.072 112.621 39.6507 112.813 39.16 112.952C38.68 113.08 38.216 113.144 37.768 113.144ZM43.4669 113.112C43.2215 113.112 43.0349 113.048 42.9069 112.92C42.7789 112.792 42.7149 112.605 42.7149 112.36V105.832C42.7149 105.587 42.7789 105.405 42.9069 105.288C43.0349 105.16 43.2109 105.096 43.4349 105.096C43.6589 105.096 43.8295 105.16 43.9469 105.288C44.0749 105.405 44.1389 105.587 44.1389 105.832V107.064H43.9789C44.1495 106.424 44.4695 105.939 44.9389 105.608C45.4082 105.277 46.0002 105.091 46.7149 105.048C46.8855 105.037 47.0242 105.08 47.1309 105.176C47.2375 105.261 47.2962 105.411 47.3069 105.624C47.3175 105.827 47.2695 105.992 47.1629 106.12C47.0562 106.237 46.8909 106.307 46.6669 106.328L46.3789 106.344C45.6749 106.419 45.1309 106.648 44.7469 107.032C44.3735 107.416 44.1869 107.944 44.1869 108.616V112.36C44.1869 112.605 44.1229 112.792 43.9949 112.92C43.8775 113.048 43.7015 113.112 43.4669 113.112ZM52.003 113.112C51.8003 113.112 51.6243 113.059 51.475 112.952C51.3257 112.845 51.1977 112.675 51.091 112.44L48.371 106.104C48.2963 105.923 48.2697 105.757 48.291 105.608C48.3123 105.459 48.3817 105.336 48.499 105.24C48.627 105.144 48.7977 105.096 49.011 105.096C49.1923 105.096 49.3363 105.139 49.443 105.224C49.5497 105.309 49.651 105.459 49.747 105.672L52.259 111.864H51.811L54.387 105.672C54.4723 105.459 54.5683 105.309 54.675 105.224C54.7923 105.139 54.9523 105.096 55.155 105.096C55.3363 105.096 55.475 105.144 55.571 105.24C55.6777 105.336 55.7417 105.459 55.763 105.608C55.7843 105.757 55.7523 105.917 55.667 106.088L52.931 112.44C52.835 112.675 52.707 112.845 52.547 112.952C52.3977 113.059 52.2163 113.112 52.003 113.112ZM58.0443 113.08C57.8203 113.08 57.6443 113.011 57.5163 112.872C57.3883 112.733 57.3243 112.541 57.3243 112.296V105.912C57.3243 105.656 57.3883 105.464 57.5163 105.336C57.6443 105.197 57.8203 105.128 58.0443 105.128C58.2789 105.128 58.4603 105.197 58.5883 105.336C58.7163 105.464 58.7803 105.656 58.7803 105.912V112.296C58.7803 112.541 58.7163 112.733 58.5883 112.872C58.4709 113.011 58.2896 113.08 58.0443 113.08ZM58.0443 103.4C57.7563 103.4 57.5269 103.325 57.3563 103.176C57.1963 103.016 57.1163 102.808 57.1163 102.552C57.1163 102.275 57.1963 102.067 57.3563 101.928C57.5269 101.779 57.7563 101.704 58.0443 101.704C58.3536 101.704 58.5829 101.779 58.7323 101.928C58.8923 102.067 58.9723 102.275 58.9723 102.552C58.9723 102.808 58.8923 103.016 58.7323 103.176C58.5829 103.325 58.3536 103.4 58.0443 103.4ZM64.7211 113.144C63.8785 113.144 63.1531 112.984 62.5451 112.664C61.9478 112.333 61.4838 111.869 61.1531 111.272C60.8225 110.664 60.6571 109.949 60.6571 109.128C60.6571 108.317 60.8171 107.608 61.1371 107C61.4678 106.392 61.9158 105.917 62.4811 105.576C63.0571 105.235 63.7131 105.064 64.4491 105.064C64.9718 105.064 65.4411 105.155 65.8571 105.336C66.2838 105.507 66.6465 105.757 66.9451 106.088C67.2438 106.419 67.4678 106.824 67.6171 107.304C67.7771 107.773 67.8571 108.307 67.8571 108.904C67.8571 109.075 67.8038 109.208 67.6971 109.304C67.6011 109.389 67.4571 109.432 67.2651 109.432H61.7931V108.504H66.8971L66.6251 108.728C66.6251 108.173 66.5398 107.704 66.3691 107.32C66.2091 106.925 65.9691 106.627 65.6491 106.424C65.3398 106.221 64.9505 106.12 64.4811 106.12C63.9691 106.12 63.5318 106.243 63.1691 106.488C62.8065 106.723 62.5291 107.059 62.3371 107.496C62.1451 107.923 62.0491 108.419 62.0491 108.984V109.08C62.0491 110.04 62.2785 110.765 62.7371 111.256C63.1958 111.747 63.8571 111.992 64.7211 111.992C65.0625 111.992 65.4091 111.949 65.7611 111.864C66.1238 111.779 66.4705 111.624 66.8011 111.4C66.9611 111.304 67.1051 111.261 67.2331 111.272C67.3718 111.272 67.4838 111.315 67.5691 111.4C67.6545 111.475 67.7078 111.571 67.7291 111.688C67.7505 111.795 67.7345 111.912 67.6811 112.04C67.6278 112.168 67.5265 112.28 67.3771 112.376C67.0251 112.621 66.6038 112.813 66.1131 112.952C65.6331 113.08 65.1691 113.144 64.7211 113.144ZM72.3266 113.112C72.124 113.112 71.948 113.064 71.7986 112.968C71.6493 112.861 71.532 112.691 71.4466 112.456L69.0626 106.104C68.988 105.901 68.9666 105.725 68.9986 105.576C69.0306 105.427 69.1053 105.309 69.2226 105.224C69.34 105.139 69.4946 105.096 69.6866 105.096C69.868 105.096 70.012 105.139 70.1186 105.224C70.2253 105.309 70.316 105.464 70.3906 105.688L72.5666 111.832H72.1826L74.4226 105.656C74.4973 105.464 74.5933 105.325 74.7106 105.24C74.8386 105.144 74.9933 105.096 75.1746 105.096C75.3666 105.096 75.5266 105.144 75.6546 105.24C75.7826 105.325 75.8733 105.464 75.9266 105.656L78.1346 111.832H77.7666L79.9746 105.656C80.0493 105.443 80.1453 105.299 80.2626 105.224C80.38 105.139 80.524 105.096 80.6946 105.096C80.8866 105.096 81.0306 105.144 81.1266 105.24C81.2226 105.336 81.276 105.464 81.2866 105.624C81.308 105.773 81.2866 105.933 81.2226 106.104L78.8386 112.456C78.764 112.68 78.6466 112.845 78.4866 112.952C78.3373 113.059 78.1613 113.112 77.9586 113.112C77.756 113.112 77.5746 113.059 77.4146 112.952C77.2653 112.845 77.148 112.68 77.0626 112.456L74.7746 106.184H75.5106L73.2226 112.456C73.1373 112.68 73.02 112.845 72.8706 112.952C72.7213 113.059 72.54 113.112 72.3266 113.112ZM86.5336 113.144C85.691 113.144 84.9656 112.984 84.3576 112.664C83.7603 112.333 83.2963 111.869 82.9656 111.272C82.635 110.664 82.4696 109.949 82.4696 109.128C82.4696 108.317 82.6296 107.608 82.9496 107C83.2803 106.392 83.7283 105.917 84.2936 105.576C84.8696 105.235 85.5256 105.064 86.2616 105.064C86.7843 105.064 87.2536 105.155 87.6696 105.336C88.0963 105.507 88.459 105.757 88.7576 106.088C89.0563 106.419 89.2803 106.824 89.4296 107.304C89.5896 107.773 89.6696 108.307 89.6696 108.904C89.6696 109.075 89.6163 109.208 89.5096 109.304C89.4136 109.389 89.2696 109.432 89.0776 109.432H83.6056V108.504H88.7096L88.4376 108.728C88.4376 108.173 88.3523 107.704 88.1816 107.32C88.0216 106.925 87.7816 106.627 87.4616 106.424C87.1523 106.221 86.763 106.12 86.2936 106.12C85.7816 106.12 85.3443 106.243 84.9816 106.488C84.619 106.723 84.3416 107.059 84.1496 107.496C83.9576 107.923 83.8616 108.419 83.8616 108.984V109.08C83.8616 110.04 84.091 110.765 84.5496 111.256C85.0083 111.747 85.6696 111.992 86.5336 111.992C86.875 111.992 87.2216 111.949 87.5736 111.864C87.9363 111.779 88.283 111.624 88.6136 111.4C88.7736 111.304 88.9176 111.261 89.0456 111.272C89.1843 111.272 89.2963 111.315 89.3816 111.4C89.467 111.475 89.5203 111.571 89.5416 111.688C89.563 111.795 89.547 111.912 89.4936 112.04C89.4403 112.168 89.339 112.28 89.1896 112.376C88.8376 112.621 88.4163 112.813 87.9256 112.952C87.4456 113.08 86.9816 113.144 86.5336 113.144ZM94.4565 113.144C93.7738 113.144 93.1712 112.984 92.6485 112.664C92.1365 112.333 91.7365 111.864 91.4485 111.256C91.1605 110.637 91.0165 109.917 91.0165 109.096C91.0165 108.264 91.1552 107.549 91.4325 106.952C91.7205 106.344 92.1205 105.88 92.6325 105.56C93.1552 105.229 93.7632 105.064 94.4565 105.064C95.1498 105.064 95.7472 105.24 96.2485 105.592C96.7498 105.933 97.0858 106.392 97.2565 106.968H97.0805V102.344C97.0805 102.099 97.1392 101.917 97.2565 101.8C97.3845 101.672 97.5658 101.608 97.8005 101.608C98.0352 101.608 98.2165 101.672 98.3445 101.8C98.4725 101.917 98.5365 102.099 98.5365 102.344V112.36C98.5365 112.605 98.4725 112.792 98.3445 112.92C98.2165 113.048 98.0352 113.112 97.8005 113.112C97.5765 113.112 97.4005 113.048 97.2725 112.92C97.1445 112.792 97.0805 112.605 97.0805 112.36V110.904L97.2565 111.192C97.0965 111.789 96.7605 112.264 96.2485 112.616C95.7472 112.968 95.1498 113.144 94.4565 113.144ZM94.7925 111.992C95.2618 111.992 95.6672 111.88 96.0085 111.656C96.3605 111.432 96.6272 111.107 96.8085 110.68C97.0005 110.253 97.0965 109.725 97.0965 109.096C97.0965 108.157 96.8885 107.443 96.4725 106.952C96.0565 106.461 95.4965 106.216 94.7925 106.216C94.3338 106.216 93.9285 106.328 93.5765 106.552C93.2352 106.765 92.9685 107.085 92.7765 107.512C92.5845 107.939 92.4885 108.467 92.4885 109.096C92.4885 110.035 92.6965 110.755 93.1125 111.256C93.5392 111.747 94.0992 111.992 94.7925 111.992Z" fill="#64728C"/>
<rect width="24" height="24" transform="translate(212 92)" fill="white"/>
</svg>
