<svg width="250" height="130" viewBox="0 0 250 130" fill="none" xmlns="http://www.w3.org/2000/svg">
<rect width="250" height="130" rx="16" fill="#DAFDF5" fill-opacity="0.25"/>
<rect x="0.5" y="0.5" width="249" height="129" rx="15.5" stroke="#08838F" stroke-opacity="0.16"/>
<path d="M84 49C84 68.33 68.33 84 49 84C29.67 84 14 68.33 14 49C14 29.67 29.67 14 49 14C68.33 14 84 29.67 84 49ZM22.3244 49C22.3244 63.7325 34.2675 75.6756 49 75.6756C63.7325 75.6756 75.6756 63.7325 75.6756 49C75.6756 34.2675 63.7325 22.3244 49 22.3244C34.2675 22.3244 22.3244 34.2675 22.3244 49Z" fill="#DAFDF5"/>
<path d="M49 18.0299C49 15.8043 50.8102 13.976 53.0212 14.2317C58.5202 14.8677 63.8104 16.8018 68.445 19.8986C74.2007 23.7444 78.6867 29.2107 81.3358 35.6061C83.9849 42.0015 84.678 49.0388 83.3275 55.8282C82.2401 61.295 79.867 66.4034 76.4283 70.7415C75.0457 72.4857 72.4729 72.4729 70.8991 70.8991V70.8991C69.3253 69.3253 69.3542 66.7885 70.6758 64.9978C73.019 61.8229 74.6463 58.158 75.4225 54.2558C76.4619 49.0299 75.9284 43.6131 73.8894 38.6905C71.8504 33.7678 68.3974 29.5603 63.9671 26.6001C60.659 24.3897 56.9169 22.9488 53.015 22.3607C50.8142 22.029 49 20.2556 49 18.0299V18.0299Z" fill="#08838F"/>
<path d="M41.26 56.16C40.86 56.16 40.5467 56.0533 40.32 55.84C40.0933 55.6133 39.98 55.2933 39.98 54.88V53.32H35.04C34.6267 53.32 34.2933 53.2333 34.04 53.06C33.8 52.8867 33.68 52.6133 33.68 52.24C33.68 52.0267 33.7333 51.7933 33.84 51.54C33.96 51.2867 34.1667 50.9533 34.46 50.54L39.94 42.6C40.1267 42.32 40.3333 42.1067 40.56 41.96C40.7867 41.8133 41.0467 41.74 41.34 41.74C41.6867 41.74 41.9733 41.8467 42.2 42.06C42.4267 42.26 42.54 42.58 42.54 43.02V51.2H43.52C43.9067 51.2 44.1933 51.2933 44.38 51.48C44.58 51.6533 44.68 51.9133 44.68 52.26C44.68 52.6067 44.58 52.8733 44.38 53.06C44.1933 53.2333 43.9067 53.32 43.52 53.32H42.54V54.88C42.54 55.2933 42.4267 55.6133 42.2 55.84C41.9733 56.0533 41.66 56.16 41.26 56.16ZM39.98 51.2V44.96H40.56L35.84 51.88V51.2H39.98ZM51.5122 56.2C50.3522 56.2 49.3589 55.9267 48.5322 55.38C47.7189 54.82 47.0989 54.02 46.6722 52.98C46.2455 51.94 46.0322 50.68 46.0322 49.2C46.0322 48 46.1655 46.94 46.4322 46.02C46.7122 45.0867 47.1122 44.3 47.6322 43.66C48.1522 43.02 48.7855 42.5333 49.5322 42.2C50.2922 41.8667 51.1455 41.7 52.0922 41.7C52.6789 41.7 53.2722 41.7933 53.8722 41.98C54.4855 42.1533 55.0589 42.42 55.5922 42.78C55.8055 42.9133 55.9455 43.0867 56.0122 43.3C56.0789 43.5133 56.0855 43.7267 56.0322 43.94C55.9922 44.14 55.8989 44.32 55.7522 44.48C55.6189 44.6267 55.4455 44.72 55.2322 44.76C55.0189 44.7867 54.7855 44.7267 54.5322 44.58C54.0789 44.3133 53.6522 44.1267 53.2522 44.02C52.8522 43.9133 52.4522 43.86 52.0522 43.86C51.2789 43.86 50.6255 44.04 50.0922 44.4C49.5589 44.76 49.1522 45.3 48.8722 46.02C48.6055 46.74 48.4722 47.64 48.4722 48.72V50.22H48.2322C48.3389 49.54 48.5589 48.96 48.8922 48.48C49.2389 47.9867 49.6789 47.6133 50.2122 47.36C50.7455 47.0933 51.3389 46.96 51.9922 46.96C52.8055 46.96 53.5255 47.1533 54.1522 47.54C54.7789 47.9267 55.2722 48.46 55.6322 49.14C55.9922 49.82 56.1722 50.6 56.1722 51.48C56.1722 52.3867 55.9722 53.2 55.5722 53.92C55.1855 54.6267 54.6389 55.1867 53.9322 55.6C53.2389 56 52.4322 56.2 51.5122 56.2ZM51.3722 54.16C51.8522 54.16 52.2722 54.0533 52.6322 53.84C53.0055 53.6267 53.2922 53.3267 53.4922 52.94C53.6922 52.54 53.7922 52.0867 53.7922 51.58C53.7922 51.06 53.6922 50.6067 53.4922 50.22C53.2922 49.8333 53.0055 49.5333 52.6322 49.32C52.2722 49.0933 51.8522 48.98 51.3722 48.98C50.8922 48.98 50.4722 49.0933 50.1122 49.32C49.7522 49.5333 49.4655 49.8333 49.2522 50.22C49.0522 50.6067 48.9522 51.06 48.9522 51.58C48.9522 52.0867 49.0522 52.54 49.2522 52.94C49.4655 53.3267 49.7522 53.6267 50.1122 53.84C50.4722 54.0533 50.8922 54.16 51.3722 54.16ZM61.1364 48.844C61.0404 49.004 60.9244 49.108 60.7884 49.156C60.6524 49.212 60.5164 49.224 60.3804 49.192C60.2444 49.16 60.1284 49.096 60.0324 49C59.9444 48.896 59.8884 48.772 59.8644 48.628C59.8404 48.484 59.8764 48.332 59.9724 48.172L64.2804 40.708C64.3764 40.54 64.4924 40.428 64.6284 40.372C64.7644 40.316 64.8964 40.308 65.0244 40.348C65.1604 40.38 65.2764 40.448 65.3724 40.552C65.4684 40.648 65.5284 40.768 65.5524 40.912C65.5764 41.056 65.5404 41.208 65.4444 41.368L61.1364 48.844ZM59.6244 45.58C58.9284 45.58 58.3884 45.348 58.0044 44.884C57.6204 44.412 57.4284 43.78 57.4284 42.988C57.4284 42.452 57.5124 41.992 57.6804 41.608C57.8564 41.224 58.1084 40.928 58.4364 40.72C58.7724 40.512 59.1684 40.408 59.6244 40.408C60.3124 40.408 60.8484 40.644 61.2324 41.116C61.6244 41.58 61.8204 42.204 61.8204 42.988C61.8204 43.516 61.7324 43.976 61.5564 44.368C61.3884 44.752 61.1404 45.052 60.8124 45.268C60.4844 45.476 60.0884 45.58 59.6244 45.58ZM59.6244 44.428C59.7844 44.428 59.9164 44.38 60.0204 44.284C60.1324 44.18 60.2164 44.024 60.2724 43.816C60.3364 43.6 60.3684 43.324 60.3684 42.988C60.3684 42.484 60.3004 42.124 60.1644 41.908C60.0364 41.684 59.8564 41.572 59.6244 41.572C59.4644 41.572 59.3284 41.62 59.2164 41.716C59.1044 41.812 59.0204 41.964 58.9644 42.172C58.9084 42.372 58.8804 42.644 58.8804 42.988C58.8804 43.5 58.9444 43.868 59.0724 44.092C59.2004 44.316 59.3844 44.428 59.6244 44.428ZM65.8044 49.132C65.1084 49.132 64.5684 48.896 64.1844 48.424C63.8004 47.952 63.6084 47.32 63.6084 46.528C63.6084 46 63.6964 45.544 63.8724 45.16C64.0484 44.776 64.3004 44.48 64.6284 44.272C64.9564 44.064 65.3484 43.96 65.8044 43.96C66.4924 43.96 67.0284 44.192 67.4124 44.656C67.8044 45.12 68.0004 45.744 68.0004 46.528C68.0004 47.056 67.9124 47.516 67.7364 47.908C67.5684 48.3 67.3204 48.604 66.9924 48.82C66.6644 49.028 66.2684 49.132 65.8044 49.132ZM65.8044 47.968C65.9644 47.968 66.0964 47.92 66.2004 47.824C66.3124 47.728 66.3964 47.572 66.4524 47.356C66.5164 47.14 66.5484 46.864 66.5484 46.528C66.5484 46.024 66.4804 45.664 66.3444 45.448C66.2164 45.224 66.0364 45.112 65.8044 45.112C65.6444 45.112 65.5084 45.16 65.3964 45.256C65.2924 45.352 65.2084 45.504 65.1444 45.712C65.0884 45.92 65.0604 46.192 65.0604 46.528C65.0604 47.048 65.1244 47.42 65.2524 47.644C65.3804 47.86 65.5644 47.968 65.8044 47.968Z" fill="#08838F"/>
<path d="M22.2812 112.719C21.6458 113.109 20.8646 113.305 19.9375 113.305C18.4115 113.305 17.1615 112.776 16.1875 111.719C15.1719 110.656 14.6641 109.203 14.6641 107.359C14.6641 105.495 15.1771 104 16.2031 102.875C17.2292 101.75 18.5859 101.188 20.2734 101.188C21.737 101.188 22.9115 101.56 23.7969 102.305C24.6875 103.044 25.1979 103.969 25.3281 105.078H22.9609C22.7786 104.292 22.3333 103.742 21.625 103.43C21.2292 103.258 20.7891 103.172 20.3047 103.172C19.3776 103.172 18.6146 103.523 18.0156 104.227C17.4219 104.924 17.125 105.977 17.125 107.383C17.125 108.799 17.4479 109.802 18.0938 110.391C18.7396 110.979 19.474 111.273 20.2969 111.273C21.1042 111.273 21.7656 111.042 22.2812 110.578C22.7969 110.109 23.1146 109.497 23.2344 108.742H20.5703V106.82H25.3672V113H23.7734L23.5312 111.562C23.0677 112.109 22.651 112.495 22.2812 112.719ZM34.5938 105.562C35.3125 106.464 35.6719 107.529 35.6719 108.758C35.6719 110.008 35.3125 111.078 34.5938 111.969C33.875 112.854 32.7839 113.297 31.3203 113.297C29.8568 113.297 28.7656 112.854 28.0469 111.969C27.3281 111.078 26.9688 110.008 26.9688 108.758C26.9688 107.529 27.3281 106.464 28.0469 105.562C28.7656 104.661 29.8568 104.211 31.3203 104.211C32.7839 104.211 33.875 104.661 34.5938 105.562ZM31.3125 106.094C30.6615 106.094 30.1589 106.326 29.8047 106.789C29.4557 107.247 29.2812 107.904 29.2812 108.758C29.2812 109.612 29.4557 110.271 29.8047 110.734C30.1589 111.198 30.6615 111.43 31.3125 111.43C31.9635 111.43 32.4635 111.198 32.8125 110.734C33.1615 110.271 33.3359 109.612 33.3359 108.758C33.3359 107.904 33.1615 107.247 32.8125 106.789C32.4635 106.326 31.9635 106.094 31.3125 106.094ZM37.5938 105.406C38.1823 104.656 39.1927 104.281 40.625 104.281C41.5573 104.281 42.3854 104.466 43.1094 104.836C43.8333 105.206 44.1953 105.904 44.1953 106.93V110.836C44.1953 111.107 44.2005 111.435 44.2109 111.82C44.2266 112.112 44.2708 112.31 44.3438 112.414C44.4167 112.518 44.526 112.604 44.6719 112.672V113H42.25C42.1823 112.828 42.1354 112.667 42.1094 112.516C42.0833 112.365 42.0625 112.193 42.0469 112C41.7396 112.333 41.3854 112.617 40.9844 112.852C40.5052 113.128 39.9635 113.266 39.3594 113.266C38.5885 113.266 37.9505 113.047 37.4453 112.609C36.9453 112.167 36.6953 111.542 36.6953 110.734C36.6953 109.688 37.099 108.93 37.9062 108.461C38.349 108.206 39 108.023 39.8594 107.914L40.6172 107.82C41.0286 107.768 41.3229 107.703 41.5 107.625C41.8177 107.49 41.9766 107.279 41.9766 106.992C41.9766 106.643 41.8542 106.404 41.6094 106.273C41.3698 106.138 41.0156 106.07 40.5469 106.07C40.0208 106.07 39.6484 106.201 39.4297 106.461C39.2734 106.654 39.1693 106.914 39.1172 107.242H36.9688C37.0156 106.497 37.224 105.885 37.5938 105.406ZM39.25 111.391C39.4583 111.562 39.7135 111.648 40.0156 111.648C40.4948 111.648 40.9349 111.508 41.3359 111.227C41.7422 110.945 41.9531 110.432 41.9688 109.688V108.859C41.8281 108.948 41.6849 109.021 41.5391 109.078C41.3984 109.13 41.2031 109.18 40.9531 109.227L40.4531 109.32C39.9844 109.404 39.6484 109.505 39.4453 109.625C39.1016 109.828 38.9297 110.143 38.9297 110.57C38.9297 110.951 39.0365 111.224 39.25 111.391ZM46.2266 101.484H48.4531V113H46.2266V101.484ZM60.1562 108.859H57.7109V113H55.3203V101.484H60.3359C61.4922 101.484 62.4141 101.781 63.1016 102.375C63.7891 102.969 64.1328 103.888 64.1328 105.133C64.1328 106.492 63.7891 107.453 63.1016 108.016C62.4141 108.578 61.4323 108.859 60.1562 108.859ZM61.2812 106.461C61.5938 106.185 61.75 105.747 61.75 105.148C61.75 104.549 61.5911 104.122 61.2734 103.867C60.9609 103.612 60.5208 103.484 59.9531 103.484H57.7109V106.875H59.9531C60.5208 106.875 60.9635 106.737 61.2812 106.461ZM70.0391 106.539C69.1432 106.539 68.5417 106.831 68.2344 107.414C68.0625 107.742 67.9766 108.247 67.9766 108.93V113H65.7344V104.484H67.8594V105.969C68.2031 105.401 68.5026 105.013 68.7578 104.805C69.1745 104.456 69.7161 104.281 70.3828 104.281C70.4245 104.281 70.4583 104.284 70.4844 104.289C70.5156 104.289 70.5807 104.292 70.6797 104.297V106.578C70.5391 106.562 70.4141 106.552 70.3047 106.547C70.1953 106.542 70.1068 106.539 70.0391 106.539ZM79.0938 105.562C79.8125 106.464 80.1719 107.529 80.1719 108.758C80.1719 110.008 79.8125 111.078 79.0938 111.969C78.375 112.854 77.2839 113.297 75.8203 113.297C74.3568 113.297 73.2656 112.854 72.5469 111.969C71.8281 111.078 71.4688 110.008 71.4688 108.758C71.4688 107.529 71.8281 106.464 72.5469 105.562C73.2656 104.661 74.3568 104.211 75.8203 104.211C77.2839 104.211 78.375 104.661 79.0938 105.562ZM75.8125 106.094C75.1615 106.094 74.6589 106.326 74.3047 106.789C73.9557 107.247 73.7812 107.904 73.7812 108.758C73.7812 109.612 73.9557 110.271 74.3047 110.734C74.6589 111.198 75.1615 111.43 75.8125 111.43C76.4635 111.43 76.9635 111.198 77.3125 110.734C77.6615 110.271 77.8359 109.612 77.8359 108.758C77.8359 107.904 77.6615 107.247 77.3125 106.789C76.9635 106.326 76.4635 106.094 75.8125 106.094ZM84.1797 114.492C84.4193 114.695 84.8229 114.797 85.3906 114.797C86.1927 114.797 86.7292 114.529 87 113.992C87.1771 113.648 87.2656 113.07 87.2656 112.258V111.711C87.0521 112.076 86.8229 112.349 86.5781 112.531C86.1354 112.87 85.5599 113.039 84.8516 113.039C83.7578 113.039 82.8828 112.656 82.2266 111.891C81.5755 111.12 81.25 110.078 81.25 108.766C81.25 107.5 81.5651 106.438 82.1953 105.578C82.8255 104.714 83.7188 104.281 84.875 104.281C85.3021 104.281 85.6745 104.346 85.9922 104.477C86.5339 104.701 86.9714 105.112 87.3047 105.711V104.484H89.4688V112.562C89.4688 113.661 89.2839 114.49 88.9141 115.047C88.2786 116.005 87.0599 116.484 85.2578 116.484C84.1693 116.484 83.2812 116.271 82.5938 115.844C81.9062 115.417 81.526 114.779 81.4531 113.93H83.875C83.9375 114.19 84.0391 114.378 84.1797 114.492ZM83.8047 110.094C84.1068 110.812 84.6484 111.172 85.4297 111.172C85.9505 111.172 86.3906 110.977 86.75 110.586C87.1094 110.19 87.2891 109.562 87.2891 108.703C87.2891 107.896 87.1172 107.281 86.7734 106.859C86.4349 106.438 85.9792 106.227 85.4062 106.227C84.625 106.227 84.0859 106.594 83.7891 107.328C83.6328 107.719 83.5547 108.201 83.5547 108.773C83.5547 109.268 83.638 109.708 83.8047 110.094ZM95.8359 106.539C94.9401 106.539 94.3385 106.831 94.0312 107.414C93.8594 107.742 93.7734 108.247 93.7734 108.93V113H91.5312V104.484H93.6562V105.969C94 105.401 94.2995 105.013 94.5547 104.805C94.9714 104.456 95.513 104.281 96.1797 104.281C96.2214 104.281 96.2552 104.284 96.2812 104.289C96.3125 104.289 96.3776 104.292 96.4766 104.297V106.578C96.3359 106.562 96.2109 106.552 96.1016 106.547C95.9922 106.542 95.9036 106.539 95.8359 106.539ZM105.078 110.5C105.021 111.005 104.758 111.518 104.289 112.039C103.56 112.867 102.539 113.281 101.227 113.281C100.143 113.281 99.1875 112.932 98.3594 112.234C97.5312 111.536 97.1172 110.401 97.1172 108.828C97.1172 107.354 97.4896 106.224 98.2344 105.438C98.9844 104.651 99.9557 104.258 101.148 104.258C101.857 104.258 102.495 104.391 103.062 104.656C103.63 104.922 104.099 105.341 104.469 105.914C104.802 106.419 105.018 107.005 105.117 107.672C105.174 108.062 105.198 108.625 105.188 109.359H99.3594C99.3906 110.214 99.6589 110.812 100.164 111.156C100.471 111.37 100.841 111.477 101.273 111.477C101.732 111.477 102.104 111.346 102.391 111.086C102.547 110.945 102.685 110.75 102.805 110.5H105.078ZM102.875 107.891C102.839 107.302 102.659 106.857 102.336 106.555C102.018 106.247 101.622 106.094 101.148 106.094C100.633 106.094 100.232 106.255 99.9453 106.578C99.6641 106.901 99.487 107.339 99.4141 107.891H102.875ZM112.562 104.875C113.229 105.302 113.612 106.036 113.711 107.078H111.484C111.453 106.792 111.372 106.565 111.242 106.398C110.997 106.096 110.581 105.945 109.992 105.945C109.508 105.945 109.161 106.021 108.953 106.172C108.75 106.323 108.648 106.5 108.648 106.703C108.648 106.958 108.758 107.143 108.977 107.258C109.195 107.378 109.969 107.583 111.297 107.875C112.182 108.083 112.846 108.398 113.289 108.82C113.727 109.247 113.945 109.781 113.945 110.422C113.945 111.266 113.63 111.956 113 112.492C112.375 113.023 111.406 113.289 110.094 113.289C108.755 113.289 107.766 113.008 107.125 112.445C106.49 111.878 106.172 111.156 106.172 110.281H108.43C108.477 110.677 108.578 110.958 108.734 111.125C109.01 111.422 109.521 111.57 110.266 111.57C110.703 111.57 111.049 111.505 111.305 111.375C111.565 111.245 111.695 111.049 111.695 110.789C111.695 110.539 111.591 110.349 111.383 110.219C111.174 110.089 110.401 109.865 109.062 109.547C108.099 109.307 107.419 109.008 107.023 108.648C106.628 108.294 106.43 107.784 106.43 107.117C106.43 106.331 106.737 105.656 107.352 105.094C107.971 104.526 108.841 104.242 109.961 104.242C111.023 104.242 111.891 104.453 112.562 104.875ZM121.469 104.875C122.135 105.302 122.518 106.036 122.617 107.078H120.391C120.359 106.792 120.279 106.565 120.148 106.398C119.904 106.096 119.487 105.945 118.898 105.945C118.414 105.945 118.068 106.021 117.859 106.172C117.656 106.323 117.555 106.5 117.555 106.703C117.555 106.958 117.664 107.143 117.883 107.258C118.102 107.378 118.875 107.583 120.203 107.875C121.089 108.083 121.753 108.398 122.195 108.82C122.633 109.247 122.852 109.781 122.852 110.422C122.852 111.266 122.536 111.956 121.906 112.492C121.281 113.023 120.312 113.289 119 113.289C117.661 113.289 116.672 113.008 116.031 112.445C115.396 111.878 115.078 111.156 115.078 110.281H117.336C117.383 110.677 117.484 110.958 117.641 111.125C117.917 111.422 118.427 111.57 119.172 111.57C119.609 111.57 119.956 111.505 120.211 111.375C120.471 111.245 120.602 111.049 120.602 110.789C120.602 110.539 120.497 110.349 120.289 110.219C120.081 110.089 119.307 109.865 117.969 109.547C117.005 109.307 116.326 109.008 115.93 108.648C115.534 108.294 115.336 107.784 115.336 107.117C115.336 106.331 115.643 105.656 116.258 105.094C116.878 104.526 117.747 104.242 118.867 104.242C119.93 104.242 120.797 104.453 121.469 104.875Z" fill="#08838F"/>
<path d="M223.293 108.707C223.386 108.8 223.496 108.874 223.617 108.925C223.738 108.975 223.869 109.001 224 109.001C224.131 109.001 224.262 108.975 224.383 108.925C224.504 108.874 224.614 108.8 224.707 108.707L228.95 104.464C229.046 104.372 229.122 104.261 229.174 104.139C229.227 104.017 229.254 103.886 229.255 103.753C229.256 103.621 229.231 103.489 229.181 103.366C229.131 103.243 229.056 103.131 228.962 103.038C228.869 102.944 228.757 102.869 228.634 102.819C228.511 102.769 228.379 102.744 228.247 102.745C228.114 102.746 227.983 102.773 227.861 102.826C227.739 102.878 227.628 102.954 227.536 103.05L225 105.586V100C225 99.7348 224.895 99.4804 224.707 99.2929C224.52 99.1054 224.265 99 224 99C223.735 99 223.48 99.1054 223.293 99.2929C223.105 99.4804 223 99.7348 223 100V105.586L220.464 103.05C220.372 102.954 220.261 102.878 220.139 102.826C220.017 102.773 219.886 102.746 219.753 102.745C219.621 102.744 219.489 102.769 219.366 102.819C219.243 102.869 219.131 102.944 219.038 103.038C218.944 103.131 218.869 103.243 218.819 103.366C218.769 103.489 218.744 103.621 218.745 103.753C218.746 103.886 218.773 104.017 218.826 104.139C218.878 104.261 218.954 104.372 219.05 104.464L223.293 108.707ZM224 114C218.477 114 214 109.523 214 104C214 98.477 218.477 94 224 94C229.523 94 234 98.477 234 104C234 109.523 229.523 114 224 114Z" fill="#08838F"/>
</svg>
