<svg width="250" height="129" viewBox="0 0 250 129" fill="none" xmlns="http://www.w3.org/2000/svg">
<rect width="250" height="129" rx="16" fill="#FAFEF0"/>
<rect x="0.5" y="0.5" width="249" height="128" rx="15.5" stroke="#178917" stroke-opacity="0.12"/>
<rect x="15.5" y="83" width="69" height="12" rx="6" transform="rotate(-90 15.5 83)" fill="#EBF5CB"/>
<rect x="15.5" y="83" width="40.3385" height="12" rx="6" transform="rotate(-90 15.5 83)" fill="url(#paint0_linear_1049_8203)"/>
<rect x="39.5" y="83" width="69" height="12" rx="6" transform="rotate(-90 39.5 83)" fill="#EBF5CB"/>
<rect x="39.5" y="83" width="21.2308" height="12" rx="6" transform="rotate(-90 39.5 83)" fill="url(#paint1_linear_1049_8203)"/>
<rect x="63.5" y="83" width="69" height="12" rx="6" transform="rotate(-90 63.5 83)" fill="#EBF5CB"/>
<rect x="63.5" y="83" width="42.4615" height="12" rx="6" transform="rotate(-90 63.5 83)" fill="url(#paint2_linear_1049_8203)"/>
<rect x="87.5" y="83" width="69" height="12" rx="6" transform="rotate(-90 87.5 83)" fill="#EBF5CB"/>
<rect x="87.5" y="83" width="35.0308" height="12" rx="6" transform="rotate(-90 87.5 83)" fill="url(#paint3_linear_1049_8203)"/>
<rect x="111.5" y="83" width="69" height="12" rx="6" transform="rotate(-90 111.5 83)" fill="#EBF5CB"/>
<rect x="111.5" y="83" width="45.6462" height="12" rx="6" transform="rotate(-90 111.5 83)" fill="url(#paint4_linear_1049_8203)"/>
<rect x="135.5" y="83" width="69" height="12" rx="6" transform="rotate(-90 135.5 83)" fill="#EBF5CB"/>
<rect x="135.5" y="83" width="60.5077" height="12" rx="6" transform="rotate(-90 135.5 83)" fill="url(#paint5_linear_1049_8203)"/>
<rect x="159.5" y="83" width="69" height="12" rx="6" transform="rotate(-90 159.5 83)" fill="#EBF5CB"/>
<rect x="159.5" y="83" width="38.2154" height="12" rx="6" transform="rotate(-90 159.5 83)" fill="url(#paint6_linear_1049_8203)"/>
<path d="M189.92 49.14C189.547 49.1533 189.253 49.0533 189.04 48.84C188.827 48.6267 188.72 48.3533 188.72 48.02C188.72 47.7667 188.8 47.5467 188.96 47.36C189.107 47.16 189.327 47.0533 189.62 47.04L190.22 47C190.807 46.96 191.247 46.78 191.54 46.46C191.847 46.1267 192 45.6533 192 45.04V36.04C192 35.6133 192.107 35.2933 192.32 35.08C192.547 34.8533 192.867 34.74 193.28 34.74C193.693 34.74 194.007 34.8533 194.22 35.08C194.447 35.2933 194.56 35.6133 194.56 36.04V45.02C194.56 45.86 194.407 46.5733 194.1 47.16C193.807 47.7467 193.367 48.2067 192.78 48.54C192.193 48.86 191.467 49.0467 190.6 49.1L189.92 49.14ZM200.91 49.2C200.097 49.2 199.424 49.0533 198.89 48.76C198.357 48.4533 197.957 48 197.69 47.4C197.437 46.8 197.31 46.0533 197.31 45.16V40.32C197.31 39.8933 197.417 39.58 197.63 39.38C197.844 39.1667 198.15 39.06 198.55 39.06C198.95 39.06 199.257 39.1667 199.47 39.38C199.697 39.58 199.81 39.8933 199.81 40.32V45.2C199.81 45.8933 199.95 46.4067 200.23 46.74C200.51 47.0733 200.957 47.24 201.57 47.24C202.237 47.24 202.784 47.0133 203.21 46.56C203.637 46.0933 203.85 45.48 203.85 44.72V40.32C203.85 39.8933 203.957 39.58 204.17 39.38C204.384 39.1667 204.69 39.06 205.09 39.06C205.49 39.06 205.797 39.1667 206.01 39.38C206.237 39.58 206.35 39.8933 206.35 40.32V47.88C206.35 48.7333 205.944 49.16 205.13 49.16C204.744 49.16 204.444 49.0533 204.23 48.84C204.017 48.6133 203.91 48.2933 203.91 47.88V46.36L204.19 46.96C203.91 47.68 203.484 48.2333 202.91 48.62C202.35 49.0067 201.684 49.2 200.91 49.2ZM210.192 49.16C209.792 49.16 209.486 49.0533 209.272 48.84C209.059 48.6133 208.952 48.2933 208.952 47.88V40.32C208.952 39.9067 209.059 39.5933 209.272 39.38C209.486 39.1667 209.786 39.06 210.172 39.06C210.559 39.06 210.859 39.1667 211.072 39.38C211.286 39.5933 211.392 39.9067 211.392 40.32V41.68L211.172 41.18C211.466 40.4733 211.919 39.94 212.532 39.58C213.159 39.2067 213.866 39.02 214.652 39.02C215.439 39.02 216.086 39.1667 216.592 39.46C217.099 39.7533 217.479 40.2 217.732 40.8C217.986 41.3867 218.112 42.1333 218.112 43.04V47.88C218.112 48.2933 218.006 48.6133 217.792 48.84C217.579 49.0533 217.272 49.16 216.872 49.16C216.472 49.16 216.159 49.0533 215.932 48.84C215.719 48.6133 215.612 48.2933 215.612 47.88V43.16C215.612 42.4 215.466 41.8467 215.172 41.5C214.892 41.1533 214.452 40.98 213.852 40.98C213.119 40.98 212.532 41.2133 212.092 41.68C211.666 42.1333 211.452 42.74 211.452 43.5V47.88C211.452 48.7333 211.032 49.16 210.192 49.16ZM225.472 49.2C224.365 49.2 223.412 48.9933 222.612 48.58C221.812 48.1667 221.192 47.58 220.752 46.82C220.325 46.06 220.112 45.16 220.112 44.12C220.112 43.1067 220.318 42.22 220.732 41.46C221.158 40.7 221.738 40.1067 222.472 39.68C223.218 39.24 224.065 39.02 225.012 39.02C225.705 39.02 226.325 39.1333 226.872 39.36C227.432 39.5867 227.905 39.9133 228.292 40.34C228.692 40.7667 228.992 41.2867 229.192 41.9C229.405 42.5 229.512 43.18 229.512 43.94C229.512 44.18 229.425 44.3667 229.252 44.5C229.092 44.62 228.858 44.68 228.552 44.68H222.132V43.24H227.752L227.432 43.54C227.432 42.9267 227.338 42.4133 227.152 42C226.978 41.5867 226.718 41.2733 226.372 41.06C226.038 40.8333 225.618 40.72 225.112 40.72C224.552 40.72 224.072 40.8533 223.672 41.12C223.285 41.3733 222.985 41.74 222.772 42.22C222.572 42.6867 222.472 43.2467 222.472 43.9V44.04C222.472 45.1333 222.725 45.9533 223.232 46.5C223.752 47.0333 224.512 47.3 225.512 47.3C225.858 47.3 226.245 47.26 226.672 47.18C227.112 47.0867 227.525 46.9333 227.912 46.72C228.192 46.56 228.438 46.4933 228.652 46.52C228.865 46.5333 229.032 46.6067 229.152 46.74C229.285 46.8733 229.365 47.04 229.392 47.24C229.418 47.4267 229.378 47.62 229.272 47.82C229.178 48.02 229.012 48.1933 228.772 48.34C228.305 48.6333 227.765 48.8533 227.152 49C226.552 49.1333 225.992 49.2 225.472 49.2Z" fill="#178917"/>
<g clip-path="url(#clip0_1049_8203)">
<path d="M188.596 64C188.34 64 188.152 63.944 188.032 63.832C187.92 63.712 187.864 63.54 187.864 63.316C187.864 63.18 187.9 63.048 187.972 62.92C188.044 62.792 188.148 62.656 188.284 62.512L190.696 59.944C191.064 59.56 191.328 59.212 191.488 58.9C191.648 58.58 191.728 58.26 191.728 57.94C191.728 57.54 191.6 57.236 191.344 57.028C191.096 56.82 190.732 56.716 190.252 56.716C189.98 56.716 189.708 56.756 189.436 56.836C189.164 56.908 188.888 57.036 188.608 57.22C188.464 57.316 188.328 57.356 188.2 57.34C188.08 57.324 187.972 57.272 187.876 57.184C187.788 57.096 187.728 56.988 187.696 56.86C187.664 56.732 187.668 56.604 187.708 56.476C187.756 56.34 187.852 56.224 187.996 56.128C188.34 55.896 188.724 55.72 189.148 55.6C189.58 55.48 190.012 55.42 190.444 55.42C191.052 55.42 191.564 55.512 191.98 55.696C192.396 55.88 192.712 56.148 192.928 56.5C193.144 56.852 193.252 57.28 193.252 57.784C193.252 58.12 193.196 58.448 193.084 58.768C192.98 59.088 192.816 59.412 192.592 59.74C192.376 60.068 192.092 60.416 191.74 60.784L189.484 63.136V62.728H193.012C193.228 62.728 193.392 62.78 193.504 62.884C193.616 62.988 193.672 63.144 193.672 63.352C193.672 63.56 193.616 63.72 193.504 63.832C193.392 63.944 193.228 64 193.012 64H188.596ZM197.795 64.12C196.795 64.12 196.031 63.744 195.503 62.992C194.975 62.232 194.711 61.152 194.711 59.752C194.711 58.808 194.827 58.016 195.059 57.376C195.299 56.728 195.647 56.24 196.103 55.912C196.567 55.584 197.131 55.42 197.795 55.42C198.803 55.42 199.567 55.788 200.087 56.524C200.615 57.26 200.879 58.332 200.879 59.74C200.879 60.676 200.759 61.472 200.519 62.128C200.287 62.776 199.943 63.272 199.487 63.616C199.031 63.952 198.467 64.12 197.795 64.12ZM197.795 62.86C198.339 62.86 198.739 62.608 198.995 62.104C199.259 61.6 199.391 60.812 199.391 59.74C199.391 58.668 199.259 57.892 198.995 57.412C198.739 56.924 198.339 56.68 197.795 56.68C197.259 56.68 196.859 56.924 196.595 57.412C196.331 57.892 196.199 58.668 196.199 59.74C196.199 60.812 196.331 61.6 196.595 62.104C196.859 62.608 197.259 62.86 197.795 62.86Z" fill="#178917"/>
<path d="M212.084 56.0125L215.219 59.2937C215.406 59.475 215.5 59.7218 215.5 59.9937C215.5 60.2656 215.406 60.5093 215.219 60.6937L212.084 63.9875C211.713 64.3781 211.106 64.3781 210.734 63.9875C210.363 63.5968 210.363 62.9656 210.734 62.575L212.241 61H205.459C204.928 61 204.5 60.5531 204.5 60C204.5 59.4468 204.928 59 205.456 59H212.238L210.731 57.425C210.359 57.0343 210.359 56.4031 210.731 56.0125C211.106 55.6218 211.709 55.6218 212.084 56.0125Z" fill="#178917"/>
<path d="M219.596 64C219.34 64 219.152 63.944 219.032 63.832C218.92 63.712 218.864 63.54 218.864 63.316C218.864 63.18 218.9 63.048 218.972 62.92C219.044 62.792 219.148 62.656 219.284 62.512L221.696 59.944C222.064 59.56 222.328 59.212 222.488 58.9C222.648 58.58 222.728 58.26 222.728 57.94C222.728 57.54 222.6 57.236 222.344 57.028C222.096 56.82 221.732 56.716 221.252 56.716C220.98 56.716 220.708 56.756 220.436 56.836C220.164 56.908 219.888 57.036 219.608 57.22C219.464 57.316 219.328 57.356 219.2 57.34C219.08 57.324 218.972 57.272 218.876 57.184C218.788 57.096 218.728 56.988 218.696 56.86C218.664 56.732 218.668 56.604 218.708 56.476C218.756 56.34 218.852 56.224 218.996 56.128C219.34 55.896 219.724 55.72 220.148 55.6C220.58 55.48 221.012 55.42 221.444 55.42C222.052 55.42 222.564 55.512 222.98 55.696C223.396 55.88 223.712 56.148 223.928 56.5C224.144 56.852 224.252 57.28 224.252 57.784C224.252 58.12 224.196 58.448 224.084 58.768C223.98 59.088 223.816 59.412 223.592 59.74C223.376 60.068 223.092 60.416 222.74 60.784L220.484 63.136V62.728H224.012C224.228 62.728 224.392 62.78 224.504 62.884C224.616 62.988 224.672 63.144 224.672 63.352C224.672 63.56 224.616 63.72 224.504 63.832C224.392 63.944 224.228 64 224.012 64H219.596ZM227.259 64.096C227.075 64.096 226.923 64.052 226.803 63.964C226.683 63.876 226.611 63.76 226.587 63.616C226.563 63.464 226.599 63.296 226.695 63.112L230.319 56.296V56.824H226.431C226.215 56.824 226.047 56.768 225.927 56.656C225.815 56.544 225.759 56.388 225.759 56.188C225.759 55.98 225.815 55.82 225.927 55.708C226.047 55.596 226.215 55.54 226.431 55.54H231.075C231.291 55.54 231.467 55.596 231.603 55.708C231.739 55.82 231.807 55.98 231.807 56.188C231.807 56.364 231.783 56.52 231.735 56.656C231.687 56.784 231.623 56.924 231.543 57.076L228.135 63.592C228.047 63.768 227.931 63.896 227.787 63.976C227.651 64.056 227.475 64.096 227.259 64.096Z" fill="#178917"/>
</g>
<path d="M26.4219 100.484H28.8672L25.625 112H23.3281L21.9375 105.266L21.5312 103.039L21.125 105.266L19.7344 112H17.5L14.2344 100.484H16.7891L18.3125 107.078L18.6406 108.914L18.9766 107.117L20.2734 100.484H22.8125L24.1797 107.078L24.5312 108.914L24.8828 107.148L26.4219 100.484ZM37.1562 109.5C37.099 110.005 36.8359 110.518 36.3672 111.039C35.638 111.867 34.6172 112.281 33.3047 112.281C32.2214 112.281 31.2656 111.932 30.4375 111.234C29.6094 110.536 29.1953 109.401 29.1953 107.828C29.1953 106.354 29.5677 105.224 30.3125 104.438C31.0625 103.651 32.0339 103.258 33.2266 103.258C33.9349 103.258 34.5729 103.391 35.1406 103.656C35.7083 103.922 36.1771 104.341 36.5469 104.914C36.8802 105.419 37.0964 106.005 37.1953 106.672C37.2526 107.062 37.276 107.625 37.2656 108.359H31.4375C31.4688 109.214 31.737 109.812 32.2422 110.156C32.5495 110.37 32.9193 110.477 33.3516 110.477C33.8099 110.477 34.1823 110.346 34.4688 110.086C34.625 109.945 34.763 109.75 34.8828 109.5H37.1562ZM34.9531 106.891C34.9167 106.302 34.737 105.857 34.4141 105.555C34.0964 105.247 33.7005 105.094 33.2266 105.094C32.7109 105.094 32.3099 105.255 32.0234 105.578C31.7422 105.901 31.5651 106.339 31.4922 106.891H34.9531ZM46.0625 109.5C46.0052 110.005 45.7422 110.518 45.2734 111.039C44.5443 111.867 43.5234 112.281 42.2109 112.281C41.1276 112.281 40.1719 111.932 39.3438 111.234C38.5156 110.536 38.1016 109.401 38.1016 107.828C38.1016 106.354 38.474 105.224 39.2188 104.438C39.9688 103.651 40.9401 103.258 42.1328 103.258C42.8411 103.258 43.4792 103.391 44.0469 103.656C44.6146 103.922 45.0833 104.341 45.4531 104.914C45.7865 105.419 46.0026 106.005 46.1016 106.672C46.1589 107.062 46.1823 107.625 46.1719 108.359H40.3438C40.375 109.214 40.6432 109.812 41.1484 110.156C41.4557 110.37 41.8255 110.477 42.2578 110.477C42.7161 110.477 43.0885 110.346 43.375 110.086C43.5312 109.945 43.6693 109.75 43.7891 109.5H46.0625ZM43.8594 106.891C43.8229 106.302 43.6432 105.857 43.3203 105.555C43.0026 105.247 42.6068 105.094 42.1328 105.094C41.6172 105.094 41.2161 105.255 40.9297 105.578C40.6484 105.901 40.4714 106.339 40.3984 106.891H43.8594ZM55.4922 112H52.8047L50.7656 108.359L49.8438 109.32V112H47.6562V100.523H49.8438V106.727L52.6172 103.523H55.375L52.3984 106.781L55.4922 112ZM56.6328 100.484H58.8594V112H56.6328V100.484ZM64.5 109.766L66.2578 103.484H68.625L65.7031 111.859C65.1406 113.474 64.6953 114.474 64.3672 114.859C64.0391 115.25 63.3828 115.445 62.3984 115.445C62.2005 115.445 62.0417 115.443 61.9219 115.438C61.8021 115.438 61.6224 115.43 61.3828 115.414V113.633L61.6641 113.648C61.8828 113.659 62.0911 113.651 62.2891 113.625C62.487 113.599 62.6536 113.539 62.7891 113.445C62.9193 113.357 63.0391 113.172 63.1484 112.891C63.263 112.609 63.3099 112.438 63.2891 112.375L60.1641 103.484H62.6406L64.5 109.766ZM79.4688 107.859H77.0234V112H74.6328V100.484H79.6484C80.8047 100.484 81.7266 100.781 82.4141 101.375C83.1016 101.969 83.4453 102.888 83.4453 104.133C83.4453 105.492 83.1016 106.453 82.4141 107.016C81.7266 107.578 80.7448 107.859 79.4688 107.859ZM80.5938 105.461C80.9062 105.185 81.0625 104.747 81.0625 104.148C81.0625 103.549 80.9036 103.122 80.5859 102.867C80.2734 102.612 79.8333 102.484 79.2656 102.484H77.0234V105.875H79.2656C79.8333 105.875 80.276 105.737 80.5938 105.461ZM89.3516 105.539C88.4557 105.539 87.8542 105.831 87.5469 106.414C87.375 106.742 87.2891 107.247 87.2891 107.93V112H85.0469V103.484H87.1719V104.969C87.5156 104.401 87.8151 104.013 88.0703 103.805C88.487 103.456 89.0286 103.281 89.6953 103.281C89.737 103.281 89.7708 103.284 89.7969 103.289C89.8281 103.289 89.8932 103.292 89.9922 103.297V105.578C89.8516 105.562 89.7266 105.552 89.6172 105.547C89.5078 105.542 89.4193 105.539 89.3516 105.539ZM98.4062 104.562C99.125 105.464 99.4844 106.529 99.4844 107.758C99.4844 109.008 99.125 110.078 98.4062 110.969C97.6875 111.854 96.5964 112.297 95.1328 112.297C93.6693 112.297 92.5781 111.854 91.8594 110.969C91.1406 110.078 90.7812 109.008 90.7812 107.758C90.7812 106.529 91.1406 105.464 91.8594 104.562C92.5781 103.661 93.6693 103.211 95.1328 103.211C96.5964 103.211 97.6875 103.661 98.4062 104.562ZM95.125 105.094C94.474 105.094 93.9714 105.326 93.6172 105.789C93.2682 106.247 93.0938 106.904 93.0938 107.758C93.0938 108.612 93.2682 109.271 93.6172 109.734C93.9714 110.198 94.474 110.43 95.125 110.43C95.776 110.43 96.276 110.198 96.625 109.734C96.974 109.271 97.1484 108.612 97.1484 107.758C97.1484 106.904 96.974 106.247 96.625 105.789C96.276 105.326 95.776 105.094 95.125 105.094ZM103.492 113.492C103.732 113.695 104.135 113.797 104.703 113.797C105.505 113.797 106.042 113.529 106.312 112.992C106.49 112.648 106.578 112.07 106.578 111.258V110.711C106.365 111.076 106.135 111.349 105.891 111.531C105.448 111.87 104.872 112.039 104.164 112.039C103.07 112.039 102.195 111.656 101.539 110.891C100.888 110.12 100.562 109.078 100.562 107.766C100.562 106.5 100.878 105.438 101.508 104.578C102.138 103.714 103.031 103.281 104.188 103.281C104.615 103.281 104.987 103.346 105.305 103.477C105.846 103.701 106.284 104.112 106.617 104.711V103.484H108.781V111.562C108.781 112.661 108.596 113.49 108.227 114.047C107.591 115.005 106.372 115.484 104.57 115.484C103.482 115.484 102.594 115.271 101.906 114.844C101.219 114.417 100.839 113.779 100.766 112.93H103.188C103.25 113.19 103.352 113.378 103.492 113.492ZM103.117 109.094C103.419 109.812 103.961 110.172 104.742 110.172C105.263 110.172 105.703 109.977 106.062 109.586C106.422 109.19 106.602 108.562 106.602 107.703C106.602 106.896 106.43 106.281 106.086 105.859C105.747 105.438 105.292 105.227 104.719 105.227C103.938 105.227 103.398 105.594 103.102 106.328C102.945 106.719 102.867 107.201 102.867 107.773C102.867 108.268 102.951 108.708 103.117 109.094ZM115.148 105.539C114.253 105.539 113.651 105.831 113.344 106.414C113.172 106.742 113.086 107.247 113.086 107.93V112H110.844V103.484H112.969V104.969C113.312 104.401 113.612 104.013 113.867 103.805C114.284 103.456 114.826 103.281 115.492 103.281C115.534 103.281 115.568 103.284 115.594 103.289C115.625 103.289 115.69 103.292 115.789 103.297V105.578C115.648 105.562 115.523 105.552 115.414 105.547C115.305 105.542 115.216 105.539 115.148 105.539ZM124.391 109.5C124.333 110.005 124.07 110.518 123.602 111.039C122.872 111.867 121.852 112.281 120.539 112.281C119.456 112.281 118.5 111.932 117.672 111.234C116.844 110.536 116.43 109.401 116.43 107.828C116.43 106.354 116.802 105.224 117.547 104.438C118.297 103.651 119.268 103.258 120.461 103.258C121.169 103.258 121.807 103.391 122.375 103.656C122.943 103.922 123.411 104.341 123.781 104.914C124.115 105.419 124.331 106.005 124.43 106.672C124.487 107.062 124.51 107.625 124.5 108.359H118.672C118.703 109.214 118.971 109.812 119.477 110.156C119.784 110.37 120.154 110.477 120.586 110.477C121.044 110.477 121.417 110.346 121.703 110.086C121.859 109.945 121.997 109.75 122.117 109.5H124.391ZM122.188 106.891C122.151 106.302 121.971 105.857 121.648 105.555C121.331 105.247 120.935 105.094 120.461 105.094C119.945 105.094 119.544 105.255 119.258 105.578C118.977 105.901 118.799 106.339 118.727 106.891H122.188ZM131.875 103.875C132.542 104.302 132.924 105.036 133.023 106.078H130.797C130.766 105.792 130.685 105.565 130.555 105.398C130.31 105.096 129.893 104.945 129.305 104.945C128.82 104.945 128.474 105.021 128.266 105.172C128.062 105.323 127.961 105.5 127.961 105.703C127.961 105.958 128.07 106.143 128.289 106.258C128.508 106.378 129.281 106.583 130.609 106.875C131.495 107.083 132.159 107.398 132.602 107.82C133.039 108.247 133.258 108.781 133.258 109.422C133.258 110.266 132.943 110.956 132.312 111.492C131.688 112.023 130.719 112.289 129.406 112.289C128.068 112.289 127.078 112.008 126.438 111.445C125.802 110.878 125.484 110.156 125.484 109.281H127.742C127.789 109.677 127.891 109.958 128.047 110.125C128.323 110.422 128.833 110.57 129.578 110.57C130.016 110.57 130.362 110.505 130.617 110.375C130.878 110.245 131.008 110.049 131.008 109.789C131.008 109.539 130.904 109.349 130.695 109.219C130.487 109.089 129.714 108.865 128.375 108.547C127.411 108.307 126.732 108.008 126.336 107.648C125.94 107.294 125.742 106.784 125.742 106.117C125.742 105.331 126.049 104.656 126.664 104.094C127.284 103.526 128.154 103.242 129.273 103.242C130.336 103.242 131.203 103.453 131.875 103.875ZM140.781 103.875C141.448 104.302 141.831 105.036 141.93 106.078H139.703C139.672 105.792 139.591 105.565 139.461 105.398C139.216 105.096 138.799 104.945 138.211 104.945C137.727 104.945 137.38 105.021 137.172 105.172C136.969 105.323 136.867 105.5 136.867 105.703C136.867 105.958 136.977 106.143 137.195 106.258C137.414 106.378 138.188 106.583 139.516 106.875C140.401 107.083 141.065 107.398 141.508 107.82C141.945 108.247 142.164 108.781 142.164 109.422C142.164 110.266 141.849 110.956 141.219 111.492C140.594 112.023 139.625 112.289 138.312 112.289C136.974 112.289 135.984 112.008 135.344 111.445C134.708 110.878 134.391 110.156 134.391 109.281H136.648C136.695 109.677 136.797 109.958 136.953 110.125C137.229 110.422 137.74 110.57 138.484 110.57C138.922 110.57 139.268 110.505 139.523 110.375C139.784 110.245 139.914 110.049 139.914 109.789C139.914 109.539 139.81 109.349 139.602 109.219C139.393 109.089 138.62 108.865 137.281 108.547C136.318 108.307 135.638 108.008 135.242 107.648C134.846 107.294 134.648 106.784 134.648 106.117C134.648 105.331 134.956 104.656 135.57 104.094C136.19 103.526 137.06 103.242 138.18 103.242C139.242 103.242 140.109 103.453 140.781 103.875Z" fill="#178917"/>
<path d="M223.293 107.707C223.386 107.8 223.496 107.874 223.617 107.925C223.738 107.975 223.869 108.001 224 108.001C224.131 108.001 224.262 107.975 224.383 107.925C224.504 107.874 224.614 107.8 224.707 107.707L228.95 103.464C229.046 103.372 229.122 103.261 229.174 103.139C229.227 103.017 229.254 102.886 229.255 102.753C229.256 102.621 229.231 102.489 229.181 102.366C229.131 102.243 229.056 102.131 228.962 102.038C228.869 101.944 228.757 101.869 228.634 101.819C228.511 101.769 228.379 101.744 228.247 101.745C228.114 101.746 227.983 101.773 227.861 101.826C227.739 101.878 227.628 101.954 227.536 102.05L225 104.586V99C225 98.7348 224.895 98.4804 224.707 98.2929C224.52 98.1054 224.265 98 224 98C223.735 98 223.48 98.1054 223.293 98.2929C223.105 98.4804 223 98.7348 223 99V104.586L220.464 102.05C220.372 101.954 220.261 101.878 220.139 101.826C220.017 101.773 219.886 101.746 219.753 101.745C219.621 101.744 219.489 101.769 219.366 101.819C219.243 101.869 219.131 101.944 219.038 102.038C218.944 102.131 218.869 102.243 218.819 102.366C218.769 102.489 218.744 102.621 218.745 102.753C218.746 102.886 218.773 103.017 218.826 103.139C218.878 103.261 218.954 103.372 219.05 103.464L223.293 107.707ZM224 113C218.477 113 214 108.523 214 103C214 97.477 218.477 93 224 93C229.523 93 234 97.477 234 103C234 108.523 229.523 113 224 113Z" fill="#178917"/>
<defs>
<linearGradient id="paint0_linear_1049_8203" x1="15.5" y1="89" x2="55.8385" y2="89" gradientUnits="userSpaceOnUse">
<stop stop-color="#178917"/>
<stop offset="1" stop-color="#5DC121"/>
</linearGradient>
<linearGradient id="paint1_linear_1049_8203" x1="39.5" y1="89" x2="60.7308" y2="89" gradientUnits="userSpaceOnUse">
<stop stop-color="#178917"/>
<stop offset="1" stop-color="#5DC121"/>
</linearGradient>
<linearGradient id="paint2_linear_1049_8203" x1="63.5" y1="89" x2="105.962" y2="89" gradientUnits="userSpaceOnUse">
<stop stop-color="#178917"/>
<stop offset="1" stop-color="#5DC121"/>
</linearGradient>
<linearGradient id="paint3_linear_1049_8203" x1="87.5" y1="89" x2="122.531" y2="89" gradientUnits="userSpaceOnUse">
<stop stop-color="#178917"/>
<stop offset="1" stop-color="#5DC121"/>
</linearGradient>
<linearGradient id="paint4_linear_1049_8203" x1="111.5" y1="89" x2="157.146" y2="89" gradientUnits="userSpaceOnUse">
<stop stop-color="#178917"/>
<stop offset="1" stop-color="#5DC121"/>
</linearGradient>
<linearGradient id="paint5_linear_1049_8203" x1="135.5" y1="89" x2="196.008" y2="89" gradientUnits="userSpaceOnUse">
<stop stop-color="#178917"/>
<stop offset="1" stop-color="#5DC121"/>
</linearGradient>
<linearGradient id="paint6_linear_1049_8203" x1="159.5" y1="89" x2="197.715" y2="89" gradientUnits="userSpaceOnUse">
<stop stop-color="#178917"/>
<stop offset="1" stop-color="#5DC121"/>
</linearGradient>
<clipPath id="clip0_1049_8203">
<rect width="46" height="16" fill="white" transform="translate(187 52)"/>
</clipPath>
</defs>
</svg>
