<svg width="250" height="129" viewBox="0 0 250 129" fill="none" xmlns="http://www.w3.org/2000/svg">
<rect width="250" height="129" rx="16" fill="#DD00A9" fill-opacity="0.06"/>
<rect x="0.5" y="0.5" width="249" height="128" rx="15.5" stroke="#DD00A9" stroke-opacity="0.2"/>
<rect x="14" y="83" width="69" height="12" rx="6" transform="rotate(-90 14 83)" fill="#D0E6F2"/>
<rect x="14" y="83" width="40.3385" height="12" rx="6" transform="rotate(-90 14 83)" fill="url(#paint0_linear_1257_16087)"/>
<rect x="38" y="83" width="69" height="12" rx="6" transform="rotate(-90 38 83)" fill="#D0E6F2"/>
<rect x="38" y="83" width="21.2308" height="12" rx="6" transform="rotate(-90 38 83)" fill="url(#paint1_linear_1257_16087)"/>
<rect x="62" y="83" width="69" height="12" rx="6" transform="rotate(-90 62 83)" fill="#D0E6F2"/>
<rect x="62" y="83" width="42.4615" height="12" rx="6" transform="rotate(-90 62 83)" fill="url(#paint2_linear_1257_16087)"/>
<rect x="86" y="83" width="69" height="12" rx="6" transform="rotate(-90 86 83)" fill="#D0E6F2"/>
<rect x="86" y="83" width="35.0308" height="12" rx="6" transform="rotate(-90 86 83)" fill="url(#paint3_linear_1257_16087)"/>
<rect x="110" y="83" width="69" height="12" rx="6" transform="rotate(-90 110 83)" fill="#D0E6F2"/>
<rect x="110" y="83" width="45.6462" height="12" rx="6" transform="rotate(-90 110 83)" fill="url(#paint4_linear_1257_16087)"/>
<rect x="134" y="83" width="69" height="12" rx="6" transform="rotate(-90 134 83)" fill="#D0E6F2"/>
<rect x="134" y="83" width="60.5077" height="12" rx="6" transform="rotate(-90 134 83)" fill="url(#paint5_linear_1257_16087)"/>
<rect x="158" y="83" width="69" height="12" rx="6" transform="rotate(-90 158 83)" fill="#D0E6F2"/>
<rect x="158" y="83" width="38.2154" height="12" rx="6" transform="rotate(-90 158 83)" fill="url(#paint6_linear_1257_16087)"/>
<path d="M26.4219 100.484H28.8672L25.625 112H23.3281L21.9375 105.266L21.5312 103.039L21.125 105.266L19.7344 112H17.5L14.2344 100.484H16.7891L18.3125 107.078L18.6406 108.914L18.9766 107.117L20.2734 100.484H22.8125L24.1797 107.078L24.5312 108.914L24.8828 107.148L26.4219 100.484ZM37.1562 109.5C37.099 110.005 36.8359 110.518 36.3672 111.039C35.638 111.867 34.6172 112.281 33.3047 112.281C32.2214 112.281 31.2656 111.932 30.4375 111.234C29.6094 110.536 29.1953 109.401 29.1953 107.828C29.1953 106.354 29.5677 105.224 30.3125 104.438C31.0625 103.651 32.0339 103.258 33.2266 103.258C33.9349 103.258 34.5729 103.391 35.1406 103.656C35.7083 103.922 36.1771 104.341 36.5469 104.914C36.8802 105.419 37.0964 106.005 37.1953 106.672C37.2526 107.062 37.276 107.625 37.2656 108.359H31.4375C31.4688 109.214 31.737 109.812 32.2422 110.156C32.5495 110.37 32.9193 110.477 33.3516 110.477C33.8099 110.477 34.1823 110.346 34.4688 110.086C34.625 109.945 34.763 109.75 34.8828 109.5H37.1562ZM34.9531 106.891C34.9167 106.302 34.737 105.857 34.4141 105.555C34.0964 105.247 33.7005 105.094 33.2266 105.094C32.7109 105.094 32.3099 105.255 32.0234 105.578C31.7422 105.901 31.5651 106.339 31.4922 106.891H34.9531ZM46.0625 109.5C46.0052 110.005 45.7422 110.518 45.2734 111.039C44.5443 111.867 43.5234 112.281 42.2109 112.281C41.1276 112.281 40.1719 111.932 39.3438 111.234C38.5156 110.536 38.1016 109.401 38.1016 107.828C38.1016 106.354 38.474 105.224 39.2188 104.438C39.9688 103.651 40.9401 103.258 42.1328 103.258C42.8411 103.258 43.4792 103.391 44.0469 103.656C44.6146 103.922 45.0833 104.341 45.4531 104.914C45.7865 105.419 46.0026 106.005 46.1016 106.672C46.1589 107.062 46.1823 107.625 46.1719 108.359H40.3438C40.375 109.214 40.6432 109.812 41.1484 110.156C41.4557 110.37 41.8255 110.477 42.2578 110.477C42.7161 110.477 43.0885 110.346 43.375 110.086C43.5312 109.945 43.6693 109.75 43.7891 109.5H46.0625ZM43.8594 106.891C43.8229 106.302 43.6432 105.857 43.3203 105.555C43.0026 105.247 42.6068 105.094 42.1328 105.094C41.6172 105.094 41.2161 105.255 40.9297 105.578C40.6484 105.901 40.4714 106.339 40.3984 106.891H43.8594ZM55.4922 112H52.8047L50.7656 108.359L49.8438 109.32V112H47.6562V100.523H49.8438V106.727L52.6172 103.523H55.375L52.3984 106.781L55.4922 112ZM56.6328 100.484H58.8594V112H56.6328V100.484ZM64.5 109.766L66.2578 103.484H68.625L65.7031 111.859C65.1406 113.474 64.6953 114.474 64.3672 114.859C64.0391 115.25 63.3828 115.445 62.3984 115.445C62.2005 115.445 62.0417 115.443 61.9219 115.438C61.8021 115.438 61.6224 115.43 61.3828 115.414V113.633L61.6641 113.648C61.8828 113.659 62.0911 113.651 62.2891 113.625C62.487 113.599 62.6536 113.539 62.7891 113.445C62.9193 113.357 63.0391 113.172 63.1484 112.891C63.263 112.609 63.3099 112.438 63.2891 112.375L60.1641 103.484H62.6406L64.5 109.766ZM79.4688 107.859H77.0234V112H74.6328V100.484H79.6484C80.8047 100.484 81.7266 100.781 82.4141 101.375C83.1016 101.969 83.4453 102.888 83.4453 104.133C83.4453 105.492 83.1016 106.453 82.4141 107.016C81.7266 107.578 80.7448 107.859 79.4688 107.859ZM80.5938 105.461C80.9062 105.185 81.0625 104.747 81.0625 104.148C81.0625 103.549 80.9036 103.122 80.5859 102.867C80.2734 102.612 79.8333 102.484 79.2656 102.484H77.0234V105.875H79.2656C79.8333 105.875 80.276 105.737 80.5938 105.461ZM89.3516 105.539C88.4557 105.539 87.8542 105.831 87.5469 106.414C87.375 106.742 87.2891 107.247 87.2891 107.93V112H85.0469V103.484H87.1719V104.969C87.5156 104.401 87.8151 104.013 88.0703 103.805C88.487 103.456 89.0286 103.281 89.6953 103.281C89.737 103.281 89.7708 103.284 89.7969 103.289C89.8281 103.289 89.8932 103.292 89.9922 103.297V105.578C89.8516 105.562 89.7266 105.552 89.6172 105.547C89.5078 105.542 89.4193 105.539 89.3516 105.539ZM98.4062 104.562C99.125 105.464 99.4844 106.529 99.4844 107.758C99.4844 109.008 99.125 110.078 98.4062 110.969C97.6875 111.854 96.5964 112.297 95.1328 112.297C93.6693 112.297 92.5781 111.854 91.8594 110.969C91.1406 110.078 90.7812 109.008 90.7812 107.758C90.7812 106.529 91.1406 105.464 91.8594 104.562C92.5781 103.661 93.6693 103.211 95.1328 103.211C96.5964 103.211 97.6875 103.661 98.4062 104.562ZM95.125 105.094C94.474 105.094 93.9714 105.326 93.6172 105.789C93.2682 106.247 93.0938 106.904 93.0938 107.758C93.0938 108.612 93.2682 109.271 93.6172 109.734C93.9714 110.198 94.474 110.43 95.125 110.43C95.776 110.43 96.276 110.198 96.625 109.734C96.974 109.271 97.1484 108.612 97.1484 107.758C97.1484 106.904 96.974 106.247 96.625 105.789C96.276 105.326 95.776 105.094 95.125 105.094ZM103.492 113.492C103.732 113.695 104.135 113.797 104.703 113.797C105.505 113.797 106.042 113.529 106.312 112.992C106.49 112.648 106.578 112.07 106.578 111.258V110.711C106.365 111.076 106.135 111.349 105.891 111.531C105.448 111.87 104.872 112.039 104.164 112.039C103.07 112.039 102.195 111.656 101.539 110.891C100.888 110.12 100.562 109.078 100.562 107.766C100.562 106.5 100.878 105.438 101.508 104.578C102.138 103.714 103.031 103.281 104.188 103.281C104.615 103.281 104.987 103.346 105.305 103.477C105.846 103.701 106.284 104.112 106.617 104.711V103.484H108.781V111.562C108.781 112.661 108.596 113.49 108.227 114.047C107.591 115.005 106.372 115.484 104.57 115.484C103.482 115.484 102.594 115.271 101.906 114.844C101.219 114.417 100.839 113.779 100.766 112.93H103.188C103.25 113.19 103.352 113.378 103.492 113.492ZM103.117 109.094C103.419 109.812 103.961 110.172 104.742 110.172C105.263 110.172 105.703 109.977 106.062 109.586C106.422 109.19 106.602 108.562 106.602 107.703C106.602 106.896 106.43 106.281 106.086 105.859C105.747 105.438 105.292 105.227 104.719 105.227C103.938 105.227 103.398 105.594 103.102 106.328C102.945 106.719 102.867 107.201 102.867 107.773C102.867 108.268 102.951 108.708 103.117 109.094ZM115.148 105.539C114.253 105.539 113.651 105.831 113.344 106.414C113.172 106.742 113.086 107.247 113.086 107.93V112H110.844V103.484H112.969V104.969C113.312 104.401 113.612 104.013 113.867 103.805C114.284 103.456 114.826 103.281 115.492 103.281C115.534 103.281 115.568 103.284 115.594 103.289C115.625 103.289 115.69 103.292 115.789 103.297V105.578C115.648 105.562 115.523 105.552 115.414 105.547C115.305 105.542 115.216 105.539 115.148 105.539ZM124.391 109.5C124.333 110.005 124.07 110.518 123.602 111.039C122.872 111.867 121.852 112.281 120.539 112.281C119.456 112.281 118.5 111.932 117.672 111.234C116.844 110.536 116.43 109.401 116.43 107.828C116.43 106.354 116.802 105.224 117.547 104.438C118.297 103.651 119.268 103.258 120.461 103.258C121.169 103.258 121.807 103.391 122.375 103.656C122.943 103.922 123.411 104.341 123.781 104.914C124.115 105.419 124.331 106.005 124.43 106.672C124.487 107.062 124.51 107.625 124.5 108.359H118.672C118.703 109.214 118.971 109.812 119.477 110.156C119.784 110.37 120.154 110.477 120.586 110.477C121.044 110.477 121.417 110.346 121.703 110.086C121.859 109.945 121.997 109.75 122.117 109.5H124.391ZM122.188 106.891C122.151 106.302 121.971 105.857 121.648 105.555C121.331 105.247 120.935 105.094 120.461 105.094C119.945 105.094 119.544 105.255 119.258 105.578C118.977 105.901 118.799 106.339 118.727 106.891H122.188ZM131.875 103.875C132.542 104.302 132.924 105.036 133.023 106.078H130.797C130.766 105.792 130.685 105.565 130.555 105.398C130.31 105.096 129.893 104.945 129.305 104.945C128.82 104.945 128.474 105.021 128.266 105.172C128.062 105.323 127.961 105.5 127.961 105.703C127.961 105.958 128.07 106.143 128.289 106.258C128.508 106.378 129.281 106.583 130.609 106.875C131.495 107.083 132.159 107.398 132.602 107.82C133.039 108.247 133.258 108.781 133.258 109.422C133.258 110.266 132.943 110.956 132.312 111.492C131.688 112.023 130.719 112.289 129.406 112.289C128.068 112.289 127.078 112.008 126.438 111.445C125.802 110.878 125.484 110.156 125.484 109.281H127.742C127.789 109.677 127.891 109.958 128.047 110.125C128.323 110.422 128.833 110.57 129.578 110.57C130.016 110.57 130.362 110.505 130.617 110.375C130.878 110.245 131.008 110.049 131.008 109.789C131.008 109.539 130.904 109.349 130.695 109.219C130.487 109.089 129.714 108.865 128.375 108.547C127.411 108.307 126.732 108.008 126.336 107.648C125.94 107.294 125.742 106.784 125.742 106.117C125.742 105.331 126.049 104.656 126.664 104.094C127.284 103.526 128.154 103.242 129.273 103.242C130.336 103.242 131.203 103.453 131.875 103.875ZM140.781 103.875C141.448 104.302 141.831 105.036 141.93 106.078H139.703C139.672 105.792 139.591 105.565 139.461 105.398C139.216 105.096 138.799 104.945 138.211 104.945C137.727 104.945 137.38 105.021 137.172 105.172C136.969 105.323 136.867 105.5 136.867 105.703C136.867 105.958 136.977 106.143 137.195 106.258C137.414 106.378 138.188 106.583 139.516 106.875C140.401 107.083 141.065 107.398 141.508 107.82C141.945 108.247 142.164 108.781 142.164 109.422C142.164 110.266 141.849 110.956 141.219 111.492C140.594 112.023 139.625 112.289 138.312 112.289C136.974 112.289 135.984 112.008 135.344 111.445C134.708 110.878 134.391 110.156 134.391 109.281H136.648C136.695 109.677 136.797 109.958 136.953 110.125C137.229 110.422 137.74 110.57 138.484 110.57C138.922 110.57 139.268 110.505 139.523 110.375C139.784 110.245 139.914 110.049 139.914 109.789C139.914 109.539 139.81 109.349 139.602 109.219C139.393 109.089 138.62 108.865 137.281 108.547C136.318 108.307 135.638 108.008 135.242 107.648C134.846 107.294 134.648 106.784 134.648 106.117C134.648 105.331 134.956 104.656 135.57 104.094C136.19 103.526 137.06 103.242 138.18 103.242C139.242 103.242 140.109 103.453 140.781 103.875Z" fill="#DD00A9"/>
<path d="M223.293 107.707C223.386 107.8 223.496 107.874 223.617 107.925C223.738 107.975 223.869 108.001 224 108.001C224.131 108.001 224.262 107.975 224.383 107.925C224.504 107.874 224.614 107.8 224.707 107.707L228.95 103.464C229.046 103.372 229.122 103.261 229.174 103.139C229.227 103.017 229.254 102.886 229.255 102.753C229.256 102.621 229.231 102.489 229.181 102.366C229.131 102.243 229.056 102.131 228.962 102.038C228.869 101.944 228.757 101.869 228.634 101.819C228.511 101.769 228.379 101.744 228.247 101.745C228.114 101.746 227.983 101.773 227.861 101.826C227.739 101.878 227.628 101.954 227.536 102.05L225 104.586V99C225 98.7348 224.895 98.4804 224.707 98.2929C224.52 98.1054 224.265 98 224 98C223.735 98 223.48 98.1054 223.293 98.2929C223.105 98.4804 223 98.7348 223 99V104.586L220.464 102.05C220.372 101.954 220.261 101.878 220.139 101.826C220.017 101.773 219.886 101.746 219.753 101.745C219.621 101.744 219.489 101.769 219.366 101.819C219.243 101.869 219.131 101.944 219.038 102.038C218.944 102.131 218.869 102.243 218.819 102.366C218.769 102.489 218.744 102.621 218.745 102.753C218.746 102.886 218.773 103.017 218.826 103.139C218.878 103.261 218.954 103.372 219.05 103.464L223.293 107.707ZM224 113C218.477 113 214 108.523 214 103C214 97.477 218.477 93 224 93C229.523 93 234 97.477 234 103C234 108.523 229.523 113 224 113Z" fill="#DD00A9"/>
<path d="M224 66C218.477 66 214 70.4766 214 76C214 81.5234 218.477 86 224 86C229.523 86 234 81.5234 234 76C234 70.4766 229.523 66 224 66ZM227.75 76.9375H224.938V79.75C224.938 80.2656 224.516 80.6875 224.035 80.6875C223.484 80.6875 223.062 80.2656 223.062 79.75V76.9375H220.25C219.734 76.9375 219.312 76.5156 219.312 76C219.312 75.4844 219.734 75.0625 220.25 75.0625H223.062V72.25C223.062 71.7344 223.484 71.3125 224 71.3125C224.516 71.3125 224.938 71.7344 224.938 72.25V75.0625H227.75C228.266 75.0625 228.688 75.4844 228.688 76C228.688 76.5156 228.266 76.9375 227.75 76.9375Z" fill="#FE5000"/>
<path d="M224 38C218.477 38 214 42.4766 214 48C214 53.5234 218.477 58 224 58C229.523 58 234 53.5234 234 48C234 42.4766 229.523 38 224 38ZM228.523 46.2734L223.523 51.2734C223.309 51.4883 223.031 51.5938 222.75 51.5938C222.469 51.5938 222.19 51.4875 221.976 51.2739L219.476 48.7739C219.05 48.3466 219.05 47.6532 219.476 47.2259C219.904 46.7985 220.597 46.7985 221.024 47.2259L222.75 48.9531L226.977 44.7266C227.404 44.2992 228.097 44.2992 228.525 44.7266C228.949 45.1523 228.949 45.8477 228.523 46.2734Z" fill="#34BC40"/>
<defs>
<linearGradient id="paint0_linear_1257_16087" x1="14" y1="89" x2="54.3385" y2="89" gradientUnits="userSpaceOnUse">
<stop stop-color="#DD00A9"/>
<stop offset="1" stop-color="#82D2FF"/>
</linearGradient>
<linearGradient id="paint1_linear_1257_16087" x1="38" y1="89" x2="59.2308" y2="89" gradientUnits="userSpaceOnUse">
<stop stop-color="#DD00A9"/>
<stop offset="1" stop-color="#82D2FF"/>
</linearGradient>
<linearGradient id="paint2_linear_1257_16087" x1="62" y1="89" x2="104.462" y2="89" gradientUnits="userSpaceOnUse">
<stop stop-color="#DD00A9"/>
<stop offset="1" stop-color="#82D2FF"/>
</linearGradient>
<linearGradient id="paint3_linear_1257_16087" x1="86" y1="89" x2="121.031" y2="89" gradientUnits="userSpaceOnUse">
<stop stop-color="#DD00A9"/>
<stop offset="1" stop-color="#82D2FF"/>
</linearGradient>
<linearGradient id="paint4_linear_1257_16087" x1="110" y1="89" x2="155.646" y2="89" gradientUnits="userSpaceOnUse">
<stop stop-color="#DD00A9"/>
<stop offset="1" stop-color="#82D2FF"/>
</linearGradient>
<linearGradient id="paint5_linear_1257_16087" x1="134" y1="89" x2="194.508" y2="89" gradientUnits="userSpaceOnUse">
<stop stop-color="#DD00A9"/>
<stop offset="1" stop-color="#82D2FF"/>
</linearGradient>
<linearGradient id="paint6_linear_1257_16087" x1="158" y1="89" x2="196.215" y2="89" gradientUnits="userSpaceOnUse">
<stop stop-color="#DD00A9"/>
<stop offset="1" stop-color="#82D2FF"/>
</linearGradient>
</defs>
</svg>
