<svg width="208" height="28" viewBox="0 0 208 28" fill="none" xmlns="http://www.w3.org/2000/svg">
<rect x="156.5" y="0.5" width="51" height="27" rx="13.5" stroke="#E8EAEF"/>
<path d="M166.438 19C166.483 18.1569 166.656 17.4232 166.957 16.7988C167.262 16.1745 167.855 15.6071 168.734 15.0967L170.047 14.3379C170.635 13.9961 171.047 13.7044 171.284 13.4629C171.658 13.0846 171.845 12.6517 171.845 12.1641C171.845 11.5944 171.674 11.1432 171.332 10.8105C170.99 10.4733 170.535 10.3047 169.965 10.3047C169.122 10.3047 168.538 10.6237 168.215 11.2617C168.042 11.6035 167.946 12.0775 167.928 12.6836H166.677C166.69 11.8314 166.848 11.1364 167.148 10.5986C167.682 9.65072 168.623 9.17676 169.972 9.17676C171.093 9.17676 171.911 9.47982 172.426 10.0859C172.945 10.6921 173.205 11.3665 173.205 12.1094C173.205 12.8932 172.929 13.5632 172.378 14.1191C172.059 14.4427 171.487 14.8346 170.662 15.2949L169.726 15.8145C169.279 16.0605 168.928 16.2952 168.673 16.5186C168.217 16.915 167.93 17.3548 167.812 17.8379H173.157V19H166.438ZM175.522 16.5049C175.604 17.2067 175.93 17.6921 176.5 17.9609C176.792 18.0977 177.129 18.166 177.512 18.166C178.241 18.166 178.781 17.9336 179.132 17.4688C179.483 17.0039 179.658 16.4889 179.658 15.9238C179.658 15.2402 179.449 14.7116 179.029 14.3379C178.615 13.9642 178.116 13.7773 177.532 13.7773C177.108 13.7773 176.744 13.8594 176.438 14.0234C176.138 14.1875 175.88 14.4154 175.666 14.707L174.6 14.6455L175.345 9.375H180.431V10.5645H176.268L175.851 13.2852C176.078 13.112 176.295 12.9821 176.5 12.8955C176.865 12.7451 177.286 12.6699 177.765 12.6699C178.662 12.6699 179.424 12.9593 180.048 13.5381C180.672 14.1169 180.984 14.8506 180.984 15.7393C180.984 16.6644 180.697 17.4801 180.123 18.1865C179.553 18.8929 178.642 19.2461 177.389 19.2461C176.591 19.2461 175.885 19.0228 175.27 18.5762C174.659 18.125 174.317 17.4346 174.244 16.5049H175.522Z" fill="#38455D"/>
<path d="M193.293 18.707C193.386 18.8002 193.496 18.8741 193.617 18.9246C193.738 18.9751 193.869 19.001 194 19.001C194.131 19.001 194.262 18.9751 194.383 18.9246C194.504 18.8741 194.614 18.8002 194.707 18.707L198.95 14.464C199.046 14.3718 199.122 14.2614 199.174 14.1394C199.227 14.0174 199.254 13.8862 199.255 13.7534C199.256 13.6206 199.231 13.4889 199.181 13.366C199.131 13.2431 199.056 13.1315 198.962 13.0376C198.869 12.9437 198.757 12.8695 198.634 12.8192C198.511 12.7689 198.379 12.7436 198.247 12.7448C198.114 12.7459 197.983 12.7735 197.861 12.8259C197.739 12.8783 197.628 12.9545 197.536 13.05L195 15.586V10C195 9.73478 194.895 9.48043 194.707 9.29289C194.52 9.10536 194.265 9 194 9C193.735 9 193.48 9.10536 193.293 9.29289C193.105 9.48043 193 9.73478 193 10V15.586L190.464 13.05C190.372 12.9545 190.261 12.8783 190.139 12.8259C190.017 12.7735 189.886 12.7459 189.753 12.7448C189.621 12.7436 189.489 12.7689 189.366 12.8192C189.243 12.8695 189.131 12.9437 189.038 13.0376C188.944 13.1315 188.869 13.2431 188.819 13.366C188.769 13.4889 188.744 13.6206 188.745 13.7534C188.746 13.8862 188.773 14.0174 188.826 14.1394C188.878 14.2614 188.954 14.3718 189.05 14.464L193.293 18.707ZM194 24C188.477 24 184 19.523 184 14C184 8.477 188.477 4 194 4C199.523 4 204 8.477 204 14C204 19.523 199.523 24 194 24Z" fill="#64728C"/>
<g clip-path="url(#clip0_1091_9159)">
<path d="M9.293 13.293C9.19982 13.3857 9.12587 13.4958 9.0754 13.6171C9.02494 13.7385 8.99897 13.8686 8.99897 14C8.99897 14.1314 9.02494 14.2615 9.0754 14.3829C9.12587 14.5042 9.19982 14.6143 9.293 14.707L13.536 18.95C13.6282 19.0455 13.7386 19.1217 13.8606 19.1741C13.9826 19.2265 14.1138 19.2541 14.2466 19.2553C14.3794 19.2564 14.5111 19.2311 14.634 19.1808C14.7569 19.1305 14.8685 19.0563 14.9624 18.9624C15.0563 18.8685 15.1305 18.7569 15.1808 18.634C15.2311 18.5111 15.2564 18.3794 15.2553 18.2466C15.2541 18.1138 15.2265 17.9826 15.1741 17.8606C15.1217 17.7386 15.0455 17.6282 14.95 17.536L12.414 15L18 15C18.2652 15 18.5196 14.8946 18.7071 14.7071C18.8946 14.5196 19 14.2652 19 14C19 13.7348 18.8946 13.4804 18.7071 13.2929C18.5196 13.1054 18.2652 13 18 13L12.414 13L14.95 10.464C15.0455 10.3718 15.1217 10.2614 15.1741 10.1394C15.2265 10.0174 15.2541 9.88618 15.2553 9.7534C15.2564 9.62062 15.2311 9.48894 15.1808 9.36605C15.1305 9.24315 15.0563 9.1315 14.9624 9.0376C14.8685 8.94371 14.7569 8.86946 14.634 8.81918C14.5111 8.7689 14.3794 8.7436 14.2466 8.74475C14.1138 8.7459 13.9826 8.77349 13.8606 8.8259C13.7386 8.87831 13.6282 8.95449 13.536 9.05L9.293 13.293ZM4 14C4 8.477 8.477 4 14 4C19.523 4 24 8.477 24 14C24 19.523 19.523 24 14 24C8.477 24 4 19.523 4 14Z" fill="#64728C"/>
<g filter="url(#filter0_d_1091_9159)">
<rect x="30" y="4" width="20" height="20" rx="10" fill="#38455D" shape-rendering="crispEdges"/>
<path d="M41.2979 19H39.3018V12.1641H36.9707V10.8379C37.5859 10.8105 38.0166 10.7695 38.2627 10.7148C38.6546 10.6283 38.9736 10.4551 39.2197 10.1953C39.3883 10.0176 39.516 9.7806 39.6025 9.48438C39.6527 9.30664 39.6777 9.17448 39.6777 9.08789H41.2979V19Z" fill="white"/>
</g>
<path d="M55.966 12.364C55.966 11.8787 56.0407 11.44 56.19 11.048C56.3393 10.6467 56.554 10.306 56.834 10.026C57.114 9.73667 57.45 9.51733 57.842 9.368C58.2433 9.20933 58.6867 9.13 59.172 9.13C59.6667 9.13 60.1007 9.20467 60.474 9.354C60.8567 9.494 61.174 9.68533 61.426 9.928C61.6873 10.1707 61.8833 10.46 62.014 10.796C62.1447 11.132 62.21 11.4867 62.21 11.86C62.21 12.2987 62.1353 12.686 61.986 13.022C61.846 13.358 61.6547 13.6567 61.412 13.918C61.1787 14.1793 60.908 14.4127 60.6 14.618C60.3013 14.8233 59.9933 15.0193 59.676 15.206C59.3587 15.3833 59.046 15.556 58.738 15.724C58.43 15.892 58.1547 16.0693 57.912 16.256C57.7533 16.3773 57.5993 16.508 57.45 16.648C57.3007 16.7787 57.1653 16.9233 57.044 17.082C56.9227 17.2407 56.8247 17.418 56.75 17.614C56.6753 17.8007 56.6333 18.0107 56.624 18.244H62.126V19H55.672C55.6813 18.524 55.7327 18.0947 55.826 17.712C55.9193 17.3293 56.1247 16.956 56.442 16.592C56.7873 16.2 57.142 15.864 57.506 15.584C57.8793 15.304 58.2433 15.0567 58.598 14.842C58.9527 14.618 59.2887 14.4173 59.606 14.24C59.9233 14.0533 60.2033 13.8527 60.446 13.638C60.6887 13.4233 60.88 13.1807 61.02 12.91C61.16 12.6393 61.23 12.308 61.23 11.916C61.23 11.5987 61.174 11.314 61.062 11.062C60.95 10.81 60.796 10.5953 60.6 10.418C60.404 10.2407 60.1753 10.11 59.914 10.026C59.6527 9.93267 59.368 9.886 59.06 9.886C58.7333 9.886 58.4347 9.956 58.164 10.096C57.9027 10.2267 57.674 10.404 57.478 10.628C57.2913 10.852 57.1467 11.1133 57.044 11.412C56.9413 11.7107 56.8993 12.028 56.918 12.364H55.966Z" fill="#64728C"/>
<path d="M76.094 13.512C76.514 13.512 76.8967 13.4887 77.242 13.442C77.5873 13.386 77.8813 13.288 78.124 13.148C78.376 12.9987 78.572 12.8027 78.712 12.56C78.852 12.3173 78.922 12.0047 78.922 11.622C78.922 11.314 78.866 11.0527 78.754 10.838C78.642 10.614 78.488 10.432 78.292 10.292C78.1053 10.152 77.8813 10.0493 77.62 9.984C77.368 9.91867 77.102 9.886 76.822 9.886C76.5047 9.886 76.2153 9.93733 75.954 10.04C75.702 10.1427 75.4827 10.292 75.296 10.488C75.1093 10.6747 74.9647 10.8987 74.862 11.16C74.7593 11.412 74.708 11.692 74.708 12H73.812C73.812 11.552 73.8867 11.1507 74.036 10.796C74.1947 10.432 74.4373 10.096 74.764 9.788C75.072 9.508 75.4173 9.33067 75.8 9.256C76.192 9.172 76.5933 9.13 77.004 9.13C77.396 9.13 77.76 9.18133 78.096 9.284C78.4413 9.37733 78.74 9.52667 78.992 9.732C79.244 9.928 79.4447 10.18 79.594 10.488C79.7433 10.796 79.818 11.1553 79.818 11.566C79.818 12.0793 79.7013 12.5227 79.468 12.896C79.244 13.2693 78.894 13.5587 78.418 13.764C78.7727 13.876 79.062 14.0253 79.286 14.212C79.5193 14.3893 79.7013 14.59 79.832 14.814C79.9627 15.0287 80.0513 15.2573 80.098 15.5C80.1447 15.7427 80.168 15.976 80.168 16.2C80.168 16.6107 80.098 16.9933 79.958 17.348C79.818 17.7027 79.6127 18.0153 79.342 18.286C79.0713 18.5567 78.7353 18.776 78.334 18.944C77.942 19.1027 77.494 19.1867 76.99 19.196C76.4207 19.196 75.926 19.1447 75.506 19.042C75.086 18.9393 74.736 18.7713 74.456 18.538C74.176 18.2953 73.9567 17.9827 73.798 17.6C73.6393 17.208 73.532 16.7227 73.476 16.144H74.372C74.372 16.9 74.596 17.474 75.044 17.866C75.5013 18.2487 76.094 18.44 76.822 18.44C77.1767 18.44 77.508 18.3793 77.816 18.258C78.124 18.1367 78.3853 17.9733 78.6 17.768C78.824 17.5627 78.992 17.3247 79.104 17.054C79.2253 16.7833 79.2813 16.5033 79.272 16.214C79.2533 15.8127 79.16 15.4813 78.992 15.22C78.824 14.9493 78.5953 14.7393 78.306 14.59C78.026 14.4313 77.6947 14.3287 77.312 14.282C76.9293 14.226 76.5233 14.212 76.094 14.24V13.512Z" fill="#64728C"/>
<path d="M96.012 16.564H91.504V15.794L96.096 9.228H96.908V15.808H98.28V16.564H96.908V19H96.012V16.564ZM92.386 15.808H96.012V10.572L92.386 15.808Z" fill="#64728C"/>
<path d="M110.386 16.438C110.479 17.11 110.745 17.614 111.184 17.95C111.632 18.2767 112.178 18.44 112.822 18.44C113.186 18.44 113.513 18.3747 113.802 18.244C114.101 18.1133 114.353 17.936 114.558 17.712C114.763 17.4787 114.917 17.2127 115.02 16.914C115.132 16.606 115.188 16.2747 115.188 15.92C115.188 15.556 115.127 15.22 115.006 14.912C114.894 14.604 114.731 14.338 114.516 14.114C114.311 13.89 114.054 13.7173 113.746 13.596C113.447 13.4747 113.111 13.414 112.738 13.414C112.29 13.414 111.889 13.498 111.534 13.666C111.179 13.8247 110.867 14.0813 110.596 14.436L109.854 14.338L110.652 9.228H115.552V9.984H111.408L110.792 13.302C110.988 13.1807 111.165 13.078 111.324 12.994C111.492 12.91 111.66 12.8447 111.828 12.798C111.996 12.742 112.169 12.7047 112.346 12.686C112.533 12.6673 112.738 12.658 112.962 12.658C113.41 12.658 113.825 12.7327 114.208 12.882C114.591 13.0313 114.922 13.246 115.202 13.526C115.482 13.806 115.697 14.1513 115.846 14.562C116.005 14.9633 116.084 15.416 116.084 15.92C116.084 16.4427 115.995 16.9093 115.818 17.32C115.65 17.7213 115.421 18.062 115.132 18.342C114.843 18.622 114.507 18.8367 114.124 18.986C113.751 19.126 113.363 19.196 112.962 19.196C112.495 19.196 112.057 19.1493 111.646 19.056C111.245 18.9627 110.89 18.8087 110.582 18.594C110.274 18.37 110.022 18.0853 109.826 17.74C109.639 17.3853 109.527 16.9513 109.49 16.438H110.386Z" fill="#64728C"/>
<path d="M142.707 14.707C142.8 14.6143 142.874 14.5042 142.925 14.3829C142.975 14.2615 143.001 14.1314 143.001 14C143.001 13.8686 142.975 13.7385 142.925 13.6171C142.874 13.4958 142.8 13.3857 142.707 13.293L138.464 9.05C138.372 8.95449 138.261 8.87831 138.139 8.8259C138.017 8.77349 137.886 8.7459 137.753 8.74475C137.621 8.7436 137.489 8.7689 137.366 8.81918C137.243 8.86946 137.131 8.94371 137.038 9.0376C136.944 9.1315 136.869 9.24315 136.819 9.36605C136.769 9.48894 136.744 9.62062 136.745 9.7534C136.746 9.88618 136.773 10.0174 136.826 10.1394C136.878 10.2614 136.954 10.3718 137.05 10.464L139.586 13L134 13C133.735 13 133.48 13.1054 133.293 13.2929C133.105 13.4804 133 13.7348 133 14C133 14.2652 133.105 14.5196 133.293 14.7071C133.48 14.8946 133.735 15 134 15L139.586 15L137.05 17.536C136.954 17.6282 136.878 17.7386 136.826 17.8606C136.773 17.9826 136.746 18.1138 136.745 18.2466C136.744 18.3794 136.769 18.5111 136.819 18.634C136.869 18.7569 136.944 18.8685 137.038 18.9624C137.131 19.0563 137.243 19.1305 137.366 19.1808C137.489 19.2311 137.621 19.2564 137.753 19.2553C137.886 19.2541 138.017 19.2265 138.139 19.1741C138.261 19.1217 138.372 19.0455 138.464 18.95L142.707 14.707ZM148 14C148 19.523 143.523 24 138 24C132.477 24 128 19.523 128 14C128 8.477 132.477 4 138 4C143.523 4 148 8.477 148 14Z" fill="#64728C"/>
</g>
<rect x="0.5" y="0.5" width="151" height="27" rx="13.5" stroke="#E8EAEF"/>
<defs>
<filter id="filter0_d_1091_9159" x="26" y="4" width="28" height="28" filterUnits="userSpaceOnUse" color-interpolation-filters="sRGB">
<feFlood flood-opacity="0" result="BackgroundImageFix"/>
<feColorMatrix in="SourceAlpha" type="matrix" values="0 0 0 0 0 0 0 0 0 0 0 0 0 0 0 0 0 0 127 0" result="hardAlpha"/>
<feOffset dy="4"/>
<feGaussianBlur stdDeviation="2"/>
<feComposite in2="hardAlpha" operator="out"/>
<feColorMatrix type="matrix" values="0 0 0 0 0 0 0 0 0 0 0 0 0 0 0 0 0 0 0.05 0"/>
<feBlend mode="normal" in2="BackgroundImageFix" result="effect1_dropShadow_1091_9159"/>
<feBlend mode="normal" in="SourceGraphic" in2="effect1_dropShadow_1091_9159" result="shape"/>
</filter>
<clipPath id="clip0_1091_9159">
<rect width="152" height="28" rx="14" fill="white"/>
</clipPath>
</defs>
</svg>
