<svg width="371" height="48" viewBox="0 0 371 48" fill="none" xmlns="http://www.w3.org/2000/svg">
<path d="M0.5 20C0.5 16.9624 2.96243 14.5 6 14.5H123C126.038 14.5 128.5 16.9624 128.5 20C128.5 23.0376 126.038 25.5 123 25.5H6C2.96244 25.5 0.5 23.0376 0.5 20Z" fill="#FE5000" stroke="#ED4C02"/>
<g filter="url(#filter0_i_1132_9905)">
<rect y="14" width="371" height="12" rx="6" fill="#64728C" fill-opacity="0.12"/>
</g>
<rect x="0.5" y="14.5" width="370" height="11" rx="5.5" stroke="#64728C" stroke-opacity="0.01"/>
<g filter="url(#filter1_d_1132_9905)">
<circle cx="120" cy="20" r="18" fill="#FE5000"/>
<circle cx="120" cy="20" r="18" fill="url(#paint0_radial_1132_9905)" fill-opacity="0.5"/>
<circle cx="120" cy="20" r="18" fill="url(#paint1_linear_1132_9905)" fill-opacity="0.2"/>
</g>
<g filter="url(#filter2_i_1132_9905)">
<path d="M115.432 24.12C115 24.12 114.552 24.064 114.088 23.952C113.624 23.84 113.22 23.672 112.876 23.448C112.716 23.344 112.608 23.224 112.552 23.088C112.496 22.952 112.48 22.824 112.504 22.704C112.536 22.576 112.596 22.468 112.684 22.38C112.78 22.292 112.896 22.24 113.032 22.224C113.176 22.208 113.332 22.244 113.5 22.332C113.828 22.508 114.144 22.636 114.448 22.716C114.752 22.788 115.064 22.824 115.384 22.824C115.736 22.824 116.032 22.776 116.272 22.68C116.512 22.584 116.692 22.44 116.812 22.248C116.94 22.056 117.004 21.824 117.004 21.552C117.004 21.152 116.868 20.856 116.596 20.664C116.332 20.464 115.944 20.364 115.432 20.364H114.664C114.44 20.364 114.268 20.308 114.148 20.196C114.036 20.084 113.98 19.928 113.98 19.728C113.98 19.528 114.036 19.372 114.148 19.26C114.268 19.148 114.44 19.092 114.664 19.092H115.288C115.592 19.092 115.852 19.044 116.068 18.948C116.284 18.844 116.452 18.7 116.572 18.516C116.692 18.332 116.752 18.108 116.752 17.844C116.752 17.476 116.628 17.196 116.38 17.004C116.14 16.812 115.788 16.716 115.324 16.716C115.028 16.716 114.748 16.752 114.484 16.824C114.228 16.888 113.944 17.012 113.632 17.196C113.488 17.284 113.348 17.32 113.212 17.304C113.084 17.288 112.976 17.236 112.888 17.148C112.8 17.06 112.74 16.956 112.708 16.836C112.676 16.708 112.684 16.58 112.732 16.452C112.78 16.316 112.88 16.2 113.032 16.104C113.376 15.88 113.756 15.712 114.172 15.6C114.588 15.48 115.016 15.42 115.456 15.42C116.04 15.42 116.54 15.512 116.956 15.696C117.372 15.872 117.688 16.128 117.904 16.464C118.128 16.792 118.24 17.192 118.24 17.664C118.24 18 118.176 18.308 118.048 18.588C117.92 18.86 117.74 19.092 117.508 19.284C117.276 19.476 116.996 19.612 116.668 19.692V19.548C117.244 19.644 117.692 19.884 118.012 20.268C118.332 20.644 118.492 21.116 118.492 21.684C118.492 22.18 118.368 22.612 118.12 22.98C117.872 23.348 117.52 23.632 117.064 23.832C116.608 24.024 116.064 24.12 115.432 24.12ZM122.867 24.12C122.443 24.12 122.011 24.064 121.571 23.952C121.131 23.84 120.727 23.668 120.359 23.436C120.207 23.34 120.103 23.228 120.047 23.1C119.999 22.964 119.987 22.832 120.011 22.704C120.043 22.568 120.103 22.456 120.191 22.368C120.287 22.272 120.399 22.216 120.527 22.2C120.663 22.184 120.811 22.22 120.971 22.308C121.267 22.476 121.567 22.604 121.871 22.692C122.175 22.78 122.499 22.824 122.843 22.824C123.179 22.824 123.467 22.764 123.707 22.644C123.947 22.524 124.131 22.356 124.259 22.14C124.387 21.924 124.451 21.672 124.451 21.384C124.451 20.936 124.315 20.576 124.043 20.304C123.771 20.024 123.399 19.884 122.927 19.884C122.671 19.884 122.423 19.928 122.183 20.016C121.943 20.096 121.707 20.24 121.475 20.448C121.403 20.512 121.311 20.576 121.199 20.64C121.087 20.696 120.967 20.724 120.839 20.724C120.639 20.724 120.487 20.672 120.383 20.568C120.279 20.464 120.227 20.32 120.227 20.136V16.212C120.227 15.996 120.283 15.832 120.395 15.72C120.515 15.6 120.683 15.54 120.899 15.54H124.847C125.063 15.54 125.227 15.596 125.339 15.708C125.459 15.812 125.519 15.968 125.519 16.176C125.519 16.376 125.459 16.532 125.339 16.644C125.227 16.756 125.063 16.812 124.847 16.812H121.727V19.5H121.331C121.539 19.22 121.815 19.004 122.159 18.852C122.503 18.7 122.879 18.624 123.287 18.624C123.823 18.624 124.287 18.74 124.679 18.972C125.079 19.196 125.387 19.512 125.603 19.92C125.827 20.32 125.939 20.788 125.939 21.324C125.939 21.876 125.815 22.364 125.567 22.788C125.319 23.204 124.963 23.532 124.499 23.772C124.043 24.004 123.499 24.12 122.867 24.12ZM128.467 20.922C128.419 21.002 128.361 21.054 128.293 21.078C128.225 21.106 128.157 21.112 128.089 21.096C128.021 21.08 127.963 21.048 127.915 21C127.871 20.948 127.843 20.886 127.831 20.814C127.819 20.742 127.837 20.666 127.885 20.586L130.039 16.854C130.087 16.77 130.145 16.714 130.213 16.686C130.281 16.658 130.347 16.654 130.411 16.674C130.479 16.69 130.537 16.724 130.585 16.776C130.633 16.824 130.663 16.884 130.675 16.956C130.687 17.028 130.669 17.104 130.621 17.184L128.467 20.922ZM127.711 19.29C127.363 19.29 127.093 19.174 126.901 18.942C126.709 18.706 126.613 18.39 126.613 17.994C126.613 17.726 126.655 17.496 126.739 17.304C126.827 17.112 126.953 16.964 127.117 16.86C127.285 16.756 127.483 16.704 127.711 16.704C128.055 16.704 128.323 16.822 128.515 17.058C128.711 17.29 128.809 17.602 128.809 17.994C128.809 18.258 128.765 18.488 128.677 18.684C128.593 18.876 128.469 19.026 128.305 19.134C128.141 19.238 127.943 19.29 127.711 19.29ZM127.711 18.714C127.791 18.714 127.857 18.69 127.909 18.642C127.965 18.59 128.007 18.512 128.035 18.408C128.067 18.3 128.083 18.162 128.083 17.994C128.083 17.742 128.049 17.562 127.981 17.454C127.917 17.342 127.827 17.286 127.711 17.286C127.631 17.286 127.563 17.31 127.507 17.358C127.451 17.406 127.409 17.482 127.381 17.586C127.353 17.686 127.339 17.822 127.339 17.994C127.339 18.25 127.371 18.434 127.435 18.546C127.499 18.658 127.591 18.714 127.711 18.714ZM130.801 21.066C130.453 21.066 130.183 20.948 129.991 20.712C129.799 20.476 129.703 20.16 129.703 19.764C129.703 19.5 129.747 19.272 129.835 19.08C129.923 18.888 130.049 18.74 130.213 18.636C130.377 18.532 130.573 18.48 130.801 18.48C131.145 18.48 131.413 18.596 131.605 18.828C131.801 19.06 131.899 19.372 131.899 19.764C131.899 20.028 131.855 20.258 131.767 20.454C131.683 20.65 131.559 20.802 131.395 20.91C131.231 21.014 131.033 21.066 130.801 21.066ZM130.801 20.484C130.881 20.484 130.947 20.46 130.999 20.412C131.055 20.364 131.097 20.286 131.125 20.178C131.157 20.07 131.173 19.932 131.173 19.764C131.173 19.512 131.139 19.332 131.071 19.224C131.007 19.112 130.917 19.056 130.801 19.056C130.721 19.056 130.653 19.08 130.597 19.128C130.545 19.176 130.503 19.252 130.471 19.356C130.443 19.46 130.429 19.596 130.429 19.764C130.429 20.024 130.461 20.21 130.525 20.322C130.589 20.43 130.681 20.484 130.801 20.484Z" fill="white"/>
</g>
<defs>
<filter id="filter0_i_1132_9905" x="0" y="14" width="371" height="14" filterUnits="userSpaceOnUse" color-interpolation-filters="sRGB">
<feFlood flood-opacity="0" result="BackgroundImageFix"/>
<feBlend mode="normal" in="SourceGraphic" in2="BackgroundImageFix" result="shape"/>
<feColorMatrix in="SourceAlpha" type="matrix" values="0 0 0 0 0 0 0 0 0 0 0 0 0 0 0 0 0 0 127 0" result="hardAlpha"/>
<feOffset dy="2"/>
<feGaussianBlur stdDeviation="2"/>
<feComposite in2="hardAlpha" operator="arithmetic" k2="-1" k3="1"/>
<feColorMatrix type="matrix" values="0 0 0 0 0 0 0 0 0 0 0 0 0 0 0 0 0 0 0.05 0"/>
<feBlend mode="normal" in2="shape" result="effect1_innerShadow_1132_9905"/>
</filter>
<filter id="filter1_d_1132_9905" x="96" y="0" width="48" height="48" filterUnits="userSpaceOnUse" color-interpolation-filters="sRGB">
<feFlood flood-opacity="0" result="BackgroundImageFix"/>
<feColorMatrix in="SourceAlpha" type="matrix" values="0 0 0 0 0 0 0 0 0 0 0 0 0 0 0 0 0 0 127 0" result="hardAlpha"/>
<feOffset dy="4"/>
<feGaussianBlur stdDeviation="3"/>
<feComposite in2="hardAlpha" operator="out"/>
<feColorMatrix type="matrix" values="0 0 0 0 0 0 0 0 0 0 0 0 0 0 0 0 0 0 0.15 0"/>
<feBlend mode="normal" in2="BackgroundImageFix" result="effect1_dropShadow_1132_9905"/>
<feBlend mode="normal" in="SourceGraphic" in2="effect1_dropShadow_1132_9905" result="shape"/>
</filter>
<filter id="filter2_i_1132_9905" x="112.468" y="15.4199" width="19.4307" height="12.7002" filterUnits="userSpaceOnUse" color-interpolation-filters="sRGB">
<feFlood flood-opacity="0" result="BackgroundImageFix"/>
<feBlend mode="normal" in="SourceGraphic" in2="BackgroundImageFix" result="shape"/>
<feColorMatrix in="SourceAlpha" type="matrix" values="0 0 0 0 0 0 0 0 0 0 0 0 0 0 0 0 0 0 127 0" result="hardAlpha"/>
<feOffset dy="4"/>
<feGaussianBlur stdDeviation="5"/>
<feComposite in2="hardAlpha" operator="arithmetic" k2="-1" k3="1"/>
<feColorMatrix type="matrix" values="0 0 0 0 0 0 0 0 0 0 0 0 0 0 0 0 0 0 0.05 0"/>
<feBlend mode="normal" in2="shape" result="effect1_innerShadow_1132_9905"/>
</filter>
<radialGradient id="paint0_radial_1132_9905" cx="0" cy="0" r="1" gradientUnits="userSpaceOnUse" gradientTransform="translate(117.3 13.7) rotate(55.1755) scale(12.608 15.4087)">
<stop stop-color="white"/>
<stop offset="1" stop-color="#FE5000"/>
</radialGradient>
<linearGradient id="paint1_linear_1132_9905" x1="117.3" y1="23.15" x2="124.05" y2="40.7" gradientUnits="userSpaceOnUse">
<stop stop-opacity="0"/>
<stop offset="1"/>
</linearGradient>
</defs>
</svg>
