<svg width="385" height="65" viewBox="0 0 385 65" fill="none" xmlns="http://www.w3.org/2000/svg">
<rect y="27" width="371" height="12" rx="6" fill="#0072DC" fill-opacity="0.13"/>
<rect y="27" width="168" height="12" rx="6" fill="#0072DC"/>
<g filter="url(#filter0_i_1301_2258)">
<path d="M336.26 20.16C335.86 20.16 335.547 20.0533 335.32 19.84C335.093 19.6133 334.98 19.2933 334.98 18.88V17.32H330.04C329.627 17.32 329.293 17.2333 329.04 17.06C328.8 16.8867 328.68 16.6133 328.68 16.24C328.68 16.0267 328.733 15.7933 328.84 15.54C328.96 15.2867 329.167 14.9533 329.46 14.54L334.94 6.6C335.127 6.32 335.333 6.10667 335.56 5.96C335.787 5.81333 336.047 5.74 336.34 5.74C336.687 5.74 336.973 5.84667 337.2 6.06C337.427 6.26 337.54 6.58 337.54 7.02V15.2H338.52C338.907 15.2 339.193 15.2933 339.38 15.48C339.58 15.6533 339.68 15.9133 339.68 16.26C339.68 16.6067 339.58 16.8733 339.38 17.06C339.193 17.2333 338.907 17.32 338.52 17.32H337.54V18.88C337.54 19.2933 337.427 19.6133 337.2 19.84C336.973 20.0533 336.66 20.16 336.26 20.16ZM334.98 15.2V8.96H335.56L330.84 15.88V15.2H334.98ZM346.112 20.2C345.406 20.2 344.686 20.1067 343.952 19.92C343.219 19.7333 342.546 19.4467 341.932 19.06C341.679 18.9 341.506 18.7133 341.412 18.5C341.332 18.2733 341.312 18.0533 341.352 17.84C341.406 17.6133 341.506 17.4267 341.652 17.28C341.812 17.12 341.999 17.0267 342.212 17C342.439 16.9733 342.686 17.0333 342.952 17.18C343.446 17.46 343.946 17.6733 344.452 17.82C344.959 17.9667 345.499 18.04 346.072 18.04C346.632 18.04 347.112 17.94 347.512 17.74C347.912 17.54 348.219 17.26 348.432 16.9C348.646 16.54 348.752 16.12 348.752 15.64C348.752 14.8933 348.526 14.2933 348.072 13.84C347.619 13.3733 346.999 13.14 346.212 13.14C345.786 13.14 345.372 13.2133 344.972 13.36C344.572 13.4933 344.179 13.7333 343.792 14.08C343.672 14.1867 343.519 14.2933 343.332 14.4C343.146 14.4933 342.946 14.54 342.732 14.54C342.399 14.54 342.146 14.4533 341.972 14.28C341.799 14.1067 341.712 13.8667 341.712 13.56V7.02C341.712 6.66 341.806 6.38667 341.992 6.2C342.192 6 342.472 5.9 342.832 5.9H349.412C349.772 5.9 350.046 5.99333 350.232 6.18C350.432 6.35333 350.532 6.61333 350.532 6.96C350.532 7.29333 350.432 7.55333 350.232 7.74C350.046 7.92667 349.772 8.02 349.412 8.02H344.212V12.5H343.552C343.899 12.0333 344.359 11.6733 344.932 11.42C345.506 11.1667 346.132 11.04 346.812 11.04C347.706 11.04 348.479 11.2333 349.132 11.62C349.799 11.9933 350.312 12.52 350.672 13.2C351.046 13.8667 351.232 14.6467 351.232 15.54C351.232 16.46 351.026 17.2733 350.612 17.98C350.199 18.6733 349.606 19.22 348.832 19.62C348.072 20.0067 347.166 20.2 346.112 20.2ZM358.564 19.84C358.431 20.08 358.264 20.2333 358.064 20.3C357.878 20.38 357.684 20.3933 357.484 20.34C357.298 20.3 357.138 20.2067 357.004 20.06C356.871 19.9267 356.791 19.76 356.764 19.56C356.738 19.3467 356.791 19.12 356.924 18.88L364.304 6.08C364.438 5.84 364.598 5.68 364.784 5.6C364.984 5.52 365.178 5.50667 365.364 5.56C365.551 5.6 365.711 5.69333 365.844 5.84C365.978 5.98667 366.058 6.16667 366.084 6.38C366.124 6.58 366.078 6.79333 365.944 7.02L358.564 19.84ZM356.424 14.32C355.304 14.32 354.431 13.9333 353.804 13.16C353.178 12.3867 352.864 11.3333 352.864 10C352.864 9.10667 353.004 8.34 353.284 7.7C353.564 7.06 353.971 6.56667 354.504 6.22C355.038 5.87333 355.678 5.7 356.424 5.7C357.544 5.7 358.418 6.08667 359.044 6.86C359.671 7.62 359.984 8.66667 359.984 10C359.984 10.8933 359.844 11.6667 359.564 12.32C359.284 12.96 358.878 13.4533 358.344 13.8C357.811 14.1467 357.171 14.32 356.424 14.32ZM356.424 12.64C356.744 12.64 357.018 12.5467 357.244 12.36C357.471 12.16 357.644 11.8667 357.764 11.48C357.884 11.0933 357.944 10.6 357.944 10C357.944 9.10667 357.811 8.44667 357.544 8.02C357.278 7.59333 356.904 7.38 356.424 7.38C356.104 7.38 355.831 7.47333 355.604 7.66C355.378 7.84667 355.204 8.13333 355.084 8.52C354.964 8.90667 354.904 9.4 354.904 10C354.904 10.9067 355.038 11.5733 355.304 12C355.571 12.4267 355.944 12.64 356.424 12.64ZM366.464 20.2C365.344 20.2 364.471 19.8133 363.844 19.04C363.218 18.2667 362.904 17.2133 362.904 15.88C362.904 14.9867 363.044 14.22 363.324 13.58C363.604 12.94 364.011 12.4467 364.544 12.1C365.078 11.7533 365.718 11.58 366.464 11.58C367.584 11.58 368.458 11.9667 369.084 12.74C369.711 13.5 370.024 14.5467 370.024 15.88C370.024 16.7733 369.884 17.5467 369.604 18.2C369.324 18.84 368.918 19.3333 368.384 19.68C367.851 20.0267 367.211 20.2 366.464 20.2ZM366.464 18.52C366.784 18.52 367.058 18.4267 367.284 18.24C367.511 18.0533 367.684 17.7667 367.804 17.38C367.924 16.98 367.984 16.48 367.984 15.88C367.984 14.9867 367.851 14.3267 367.584 13.9C367.318 13.4733 366.944 13.26 366.464 13.26C366.144 13.26 365.871 13.3533 365.644 13.54C365.418 13.7267 365.244 14.0133 365.124 14.4C365.004 14.7867 364.944 15.28 364.944 15.88C364.944 16.7867 365.078 17.4533 365.344 17.88C365.611 18.3067 365.984 18.52 366.464 18.52Z" fill="#0072DC"/>
</g>
<defs>
<filter id="filter0_i_1301_2258" x="328.68" y="5.47998" width="41.3445" height="18.9399" filterUnits="userSpaceOnUse" color-interpolation-filters="sRGB">
<feFlood flood-opacity="0" result="BackgroundImageFix"/>
<feBlend mode="normal" in="SourceGraphic" in2="BackgroundImageFix" result="shape"/>
<feColorMatrix in="SourceAlpha" type="matrix" values="0 0 0 0 0 0 0 0 0 0 0 0 0 0 0 0 0 0 127 0" result="hardAlpha"/>
<feOffset dy="4"/>
<feGaussianBlur stdDeviation="5"/>
<feComposite in2="hardAlpha" operator="arithmetic" k2="-1" k3="1"/>
<feColorMatrix type="matrix" values="0 0 0 0 0 0 0 0 0 0 0 0 0 0 0 0 0 0 0.05 0"/>
<feBlend mode="normal" in2="shape" result="effect1_innerShadow_1301_2258"/>
</filter>
</defs>
</svg>
