<svg width="326" height="376" viewBox="0 0 326 376" fill="none" xmlns="http://www.w3.org/2000/svg">
<path d="M119.016 367.192C118.632 367.192 118.32 367.104 118.08 366.928C117.856 366.752 117.72 366.52 117.672 366.232C117.624 365.928 117.68 365.592 117.84 365.224L124.176 351.184C124.384 350.72 124.632 350.392 124.92 350.2C125.224 349.992 125.568 349.888 125.952 349.888C126.32 349.888 126.648 349.992 126.936 350.2C127.24 350.392 127.496 350.72 127.704 351.184L134.064 365.224C134.24 365.592 134.304 365.928 134.256 366.232C134.208 366.536 134.072 366.776 133.848 366.952C133.624 367.112 133.328 367.192 132.96 367.192C132.512 367.192 132.16 367.088 131.904 366.88C131.664 366.656 131.448 366.32 131.256 365.872L129.696 362.248L130.992 363.088H120.864L122.16 362.248L120.624 365.872C120.416 366.336 120.2 366.672 119.976 366.88C119.752 367.088 119.432 367.192 119.016 367.192ZM125.904 353.416L122.544 361.408L121.92 360.64H129.936L129.336 361.408L125.952 353.416H125.904ZM140.814 367.24C139.79 367.24 138.886 366.992 138.102 366.496C137.334 366 136.734 365.296 136.302 364.384C135.87 363.456 135.654 362.368 135.654 361.12C135.654 359.856 135.87 358.776 136.302 357.88C136.734 356.968 137.334 356.264 138.102 355.768C138.886 355.272 139.79 355.024 140.814 355.024C141.79 355.024 142.638 355.264 143.358 355.744C144.094 356.224 144.59 356.856 144.846 357.64H144.582V351.4C144.582 350.904 144.71 350.528 144.966 350.272C145.222 350.016 145.59 349.888 146.07 349.888C146.55 349.888 146.918 350.016 147.174 350.272C147.446 350.528 147.582 350.904 147.582 351.4V365.656C147.582 366.152 147.454 366.536 147.198 366.808C146.942 367.064 146.574 367.192 146.094 367.192C145.614 367.192 145.246 367.064 144.99 366.808C144.734 366.536 144.606 366.152 144.606 365.656V363.784L144.87 364.504C144.63 365.336 144.142 366 143.406 366.496C142.67 366.992 141.806 367.24 140.814 367.24ZM141.654 364.96C142.246 364.96 142.766 364.816 143.214 364.528C143.662 364.24 144.006 363.816 144.246 363.256C144.502 362.68 144.63 361.968 144.63 361.12C144.63 359.84 144.358 358.888 143.814 358.264C143.27 357.624 142.55 357.304 141.654 357.304C141.062 357.304 140.542 357.448 140.094 357.736C139.646 358.008 139.294 358.432 139.038 359.008C138.798 359.568 138.678 360.272 138.678 361.12C138.678 362.384 138.95 363.344 139.494 364C140.038 364.64 140.758 364.96 141.654 364.96ZM155.205 367.24C154.181 367.24 153.277 366.992 152.493 366.496C151.725 366 151.125 365.296 150.693 364.384C150.261 363.456 150.045 362.368 150.045 361.12C150.045 359.856 150.261 358.776 150.693 357.88C151.125 356.968 151.725 356.264 152.493 355.768C153.277 355.272 154.181 355.024 155.205 355.024C156.181 355.024 157.029 355.264 157.749 355.744C158.485 356.224 158.981 356.856 159.237 357.64H158.973V351.4C158.973 350.904 159.101 350.528 159.357 350.272C159.613 350.016 159.981 349.888 160.461 349.888C160.941 349.888 161.309 350.016 161.565 350.272C161.837 350.528 161.973 350.904 161.973 351.4V365.656C161.973 366.152 161.845 366.536 161.589 366.808C161.333 367.064 160.965 367.192 160.485 367.192C160.005 367.192 159.637 367.064 159.381 366.808C159.125 366.536 158.997 366.152 158.997 365.656V363.784L159.261 364.504C159.021 365.336 158.533 366 157.797 366.496C157.061 366.992 156.197 367.24 155.205 367.24ZM156.045 364.96C156.637 364.96 157.157 364.816 157.605 364.528C158.053 364.24 158.397 363.816 158.637 363.256C158.893 362.68 159.021 361.968 159.021 361.12C159.021 359.84 158.749 358.888 158.205 358.264C157.661 357.624 156.941 357.304 156.045 357.304C155.453 357.304 154.933 357.448 154.485 357.736C154.037 358.008 153.685 358.432 153.429 359.008C153.189 359.568 153.069 360.272 153.069 361.12C153.069 362.384 153.341 363.344 153.885 364C154.429 364.64 155.149 364.96 156.045 364.96ZM173.519 367C172.991 367 172.583 366.864 172.295 366.592C172.023 366.304 171.887 365.896 171.887 365.368V351.712C171.887 351.184 172.023 350.784 172.295 350.512C172.583 350.224 172.991 350.08 173.519 350.08H178.175C181.007 350.08 183.191 350.808 184.727 352.264C186.279 353.72 187.055 355.808 187.055 358.528C187.055 359.888 186.855 361.096 186.455 362.152C186.071 363.192 185.495 364.072 184.727 364.792C183.975 365.512 183.047 366.064 181.943 366.448C180.855 366.816 179.599 367 178.175 367H173.519ZM174.959 364.456H177.983C178.975 364.456 179.831 364.336 180.551 364.096C181.287 363.84 181.895 363.472 182.375 362.992C182.871 362.496 183.239 361.88 183.479 361.144C183.719 360.392 183.839 359.52 183.839 358.528C183.839 356.544 183.351 355.064 182.375 354.088C181.399 353.112 179.935 352.624 177.983 352.624H174.959V364.456ZM193.744 367.24C192.896 367.24 192.136 367.08 191.464 366.76C190.808 366.424 190.288 365.976 189.904 365.416C189.536 364.856 189.352 364.224 189.352 363.52C189.352 362.656 189.576 361.976 190.024 361.48C190.472 360.968 191.2 360.6 192.208 360.376C193.216 360.152 194.568 360.04 196.264 360.04H197.464V361.768H196.288C195.296 361.768 194.504 361.816 193.912 361.912C193.32 362.008 192.896 362.176 192.64 362.416C192.4 362.64 192.28 362.96 192.28 363.376C192.28 363.904 192.464 364.336 192.832 364.672C193.2 365.008 193.712 365.176 194.368 365.176C194.896 365.176 195.36 365.056 195.76 364.816C196.176 364.56 196.504 364.216 196.744 363.784C196.984 363.352 197.104 362.856 197.104 362.296V359.536C197.104 358.736 196.928 358.16 196.576 357.808C196.224 357.456 195.632 357.28 194.8 357.28C194.336 357.28 193.832 357.336 193.288 357.448C192.76 357.56 192.2 357.752 191.608 358.024C191.304 358.168 191.032 358.208 190.792 358.144C190.568 358.08 190.392 357.952 190.264 357.76C190.136 357.552 190.072 357.328 190.072 357.088C190.072 356.848 190.136 356.616 190.264 356.392C190.392 356.152 190.608 355.976 190.912 355.864C191.648 355.56 192.352 355.344 193.024 355.216C193.712 355.088 194.336 355.024 194.896 355.024C196.048 355.024 196.992 355.2 197.728 355.552C198.48 355.904 199.04 356.44 199.408 357.16C199.776 357.864 199.96 358.776 199.96 359.896V365.656C199.96 366.152 199.84 366.536 199.6 366.808C199.36 367.064 199.016 367.192 198.568 367.192C198.12 367.192 197.768 367.064 197.512 366.808C197.272 366.536 197.152 366.152 197.152 365.656V364.504H197.344C197.232 365.064 197.008 365.552 196.672 365.968C196.352 366.368 195.944 366.68 195.448 366.904C194.952 367.128 194.384 367.24 193.744 367.24ZM205.864 371.512C205.512 371.512 205.224 371.416 205 371.224C204.776 371.048 204.64 370.808 204.592 370.504C204.56 370.2 204.616 369.88 204.76 369.544L206.392 365.92V367.168L202.024 357.064C201.88 356.712 201.832 356.384 201.88 356.08C201.928 355.776 202.072 355.536 202.312 355.36C202.568 355.168 202.912 355.072 203.344 355.072C203.712 355.072 204.008 355.16 204.232 355.336C204.456 355.496 204.656 355.808 204.832 356.272L208.072 364.36H207.352L210.664 356.248C210.84 355.8 211.048 355.496 211.288 355.336C211.528 355.16 211.848 355.072 212.248 355.072C212.6 355.072 212.88 355.168 213.088 355.36C213.296 355.536 213.424 355.776 213.472 356.08C213.52 356.368 213.464 356.688 213.304 357.04L207.472 370.36C207.264 370.808 207.04 371.112 206.8 371.272C206.56 371.432 206.248 371.512 205.864 371.512ZM219.583 367.24C218.895 367.24 218.167 367.168 217.399 367.024C216.631 366.88 215.943 366.632 215.335 366.28C215.079 366.12 214.895 365.936 214.783 365.728C214.687 365.504 214.647 365.288 214.663 365.08C214.695 364.856 214.775 364.664 214.903 364.504C215.047 364.344 215.223 364.24 215.431 364.192C215.655 364.144 215.895 364.184 216.151 364.312C216.791 364.616 217.391 364.832 217.951 364.96C218.511 365.072 219.063 365.128 219.607 365.128C220.375 365.128 220.943 365 221.311 364.744C221.695 364.472 221.887 364.12 221.887 363.688C221.887 363.32 221.759 363.04 221.503 362.848C221.263 362.64 220.895 362.488 220.399 362.392L217.999 361.936C217.007 361.744 216.247 361.384 215.719 360.856C215.207 360.312 214.951 359.616 214.951 358.768C214.951 358 215.159 357.336 215.575 356.776C216.007 356.216 216.599 355.784 217.351 355.48C218.103 355.176 218.967 355.024 219.943 355.024C220.647 355.024 221.303 355.104 221.911 355.264C222.535 355.408 223.135 355.64 223.711 355.96C223.951 356.088 224.111 356.256 224.191 356.464C224.287 356.672 224.311 356.888 224.263 357.112C224.215 357.32 224.119 357.512 223.975 357.688C223.831 357.848 223.647 357.952 223.423 358C223.215 358.032 222.975 357.984 222.703 357.856C222.207 357.6 221.727 357.416 221.263 357.304C220.815 357.192 220.383 357.136 219.967 357.136C219.183 357.136 218.599 357.272 218.215 357.544C217.847 357.816 217.663 358.176 217.663 358.624C217.663 358.96 217.775 359.24 217.999 359.464C218.223 359.688 218.567 359.84 219.031 359.92L221.431 360.376C222.471 360.568 223.255 360.92 223.783 361.432C224.327 361.944 224.599 362.632 224.599 363.496C224.599 364.664 224.143 365.584 223.231 366.256C222.319 366.912 221.103 367.24 219.583 367.24Z" fill="#64728C"/>
<g filter="url(#filter0_i_1302_2426)">
<path d="M308 170C308 255.052 239.052 324 154 324C68.9482 324 0 255.052 0 170C0 84.9482 68.9482 16 154 16C239.052 16 308 84.9482 308 170Z" fill="#64728C" fill-opacity="0.11"/>
</g>
<path d="M307.5 170C307.5 254.776 238.776 323.5 154 323.5C69.2243 323.5 0.5 254.776 0.5 170C0.5 85.2243 69.2243 16.5 154 16.5C238.776 16.5 307.5 85.2243 307.5 170Z" stroke="url(#paint0_linear_1302_2426)"/>
<g filter="url(#filter1_d_1302_2426)">
<circle cx="154" cy="170" r="80" fill="white"/>
<circle cx="154" cy="170" r="80" fill="url(#paint1_linear_1302_2426)" fill-opacity="0.2"/>
<circle cx="154" cy="170" r="79" stroke="url(#paint2_linear_1302_2426)" stroke-width="2"/>
</g>
<path d="M124.048 191C122.469 191 121.253 190.595 120.4 189.784C119.589 188.931 119.184 187.736 119.184 186.2C119.184 184.664 119.589 183.491 120.4 182.68C121.253 181.869 122.469 181.464 124.048 181.464H129.808V155.288H135.184L125.904 160.984C124.795 161.667 123.749 161.944 122.768 161.816C121.787 161.645 120.955 161.219 120.272 160.536C119.589 159.853 119.141 159.021 118.928 158.04C118.715 157.059 118.8 156.077 119.184 155.096C119.568 154.115 120.336 153.283 121.488 152.6L130.32 147.096C131.259 146.499 132.219 146.051 133.2 145.752C134.224 145.453 135.291 145.304 136.4 145.304C138.021 145.304 139.28 145.731 140.176 146.584C141.072 147.395 141.52 148.589 141.52 150.168V181.464H146.64C148.219 181.464 149.413 181.869 150.224 182.68C151.077 183.491 151.504 184.664 151.504 186.2C151.504 187.736 151.077 188.931 150.224 189.784C149.413 190.595 148.219 191 146.64 191H124.048ZM161.591 191C159.714 191 158.348 190.573 157.495 189.72C156.684 188.824 156.279 187.523 156.279 185.816C156.279 184.621 156.535 183.555 157.047 182.616C157.602 181.677 158.306 180.76 159.159 179.864L170.359 168.152C172.023 166.36 173.196 164.824 173.879 163.544C174.604 162.264 174.967 160.984 174.967 159.704C174.967 158.083 174.434 156.867 173.367 156.056C172.3 155.245 170.764 154.84 168.759 154.84C167.735 154.84 166.647 154.989 165.495 155.288C164.343 155.544 163.106 156.013 161.783 156.696C160.631 157.208 159.586 157.357 158.647 157.144C157.751 156.931 156.983 156.461 156.343 155.736C155.746 155.011 155.362 154.179 155.191 153.24C155.063 152.301 155.212 151.384 155.639 150.488C156.066 149.549 156.834 148.781 157.943 148.184C159.906 147.117 161.932 146.349 164.023 145.88C166.156 145.411 168.29 145.176 170.423 145.176C173.922 145.176 176.844 145.688 179.191 146.712C181.58 147.736 183.394 149.229 184.631 151.192C185.868 153.112 186.487 155.501 186.487 158.36C186.487 160.152 186.21 161.901 185.655 163.608C185.143 165.315 184.29 167.021 183.095 168.728C181.943 170.435 180.386 172.248 178.423 174.168L168.055 184.408V181.464H183.863C185.442 181.464 186.636 181.869 187.447 182.68C188.3 183.491 188.727 184.664 188.727 186.2C188.727 187.736 188.3 188.931 187.447 189.784C186.636 190.595 185.442 191 183.863 191H161.591Z" fill="#4B5C7A"/>
<circle cx="156" cy="170" r="116.5" stroke="#64728C" stroke-opacity="0.3" stroke-width="5" stroke-linejoin="round" stroke-dasharray="2 20"/>
<g filter="url(#filter2_d_1302_2426)">
<path d="M180.934 245.539C163.006 254.136 155.442 275.638 164.039 293.566C172.636 311.494 194.138 319.058 212.066 310.461L180.934 245.539ZM264.713 134.076L299.718 125.669L299.406 124.368L298.997 123.094L264.713 134.076ZM223.082 75.8617L244.557 46.968L244.557 46.968L223.082 75.8617ZM212.066 310.461C263.657 285.721 290.053 249.792 300.311 212.329C310.05 176.761 304.097 143.905 299.718 125.669L229.708 142.482C233.116 156.67 235.806 175.277 230.867 193.314C226.447 209.458 214.843 229.279 180.934 245.539L212.066 310.461ZM298.997 123.094C289.247 92.6551 270.21 66.034 244.557 46.968L201.607 104.755C215.188 114.849 225.267 128.943 230.429 145.057L298.997 123.094ZM244.557 46.968C218.904 27.902 187.924 17.3486 155.967 16.7894L154.707 88.7784C171.625 89.0745 188.027 94.6616 201.607 104.755L244.557 46.968Z" fill="#FFAA00"/>
<path d="M180.934 245.539C163.006 254.136 155.442 275.638 164.039 293.566C172.636 311.494 194.138 319.058 212.066 310.461L180.934 245.539ZM264.713 134.076L299.718 125.669L299.406 124.368L298.997 123.094L264.713 134.076ZM223.082 75.8617L244.557 46.968L244.557 46.968L223.082 75.8617ZM212.066 310.461C263.657 285.721 290.053 249.792 300.311 212.329C310.05 176.761 304.097 143.905 299.718 125.669L229.708 142.482C233.116 156.67 235.806 175.277 230.867 193.314C226.447 209.458 214.843 229.279 180.934 245.539L212.066 310.461ZM298.997 123.094C289.247 92.6551 270.21 66.034 244.557 46.968L201.607 104.755C215.188 114.849 225.267 128.943 230.429 145.057L298.997 123.094ZM244.557 46.968C218.904 27.902 187.924 17.3486 155.967 16.7894L154.707 88.7784C171.625 89.0745 188.027 94.6616 201.607 104.755L244.557 46.968Z" fill="url(#paint3_radial_1302_2426)" fill-opacity="0.26"/>
</g>
<g filter="url(#filter3_d_1302_2426)">
<circle cx="195" cy="278" r="31" fill="white"/>
<circle cx="195" cy="278" r="31" fill="url(#paint4_linear_1302_2426)" fill-opacity="0.2"/>
<circle cx="195" cy="278" r="30" stroke="url(#paint5_linear_1302_2426)" stroke-width="2"/>
</g>
<defs>
<filter id="filter0_i_1302_2426" x="0" y="16" width="308" height="318" filterUnits="userSpaceOnUse" color-interpolation-filters="sRGB">
<feFlood flood-opacity="0" result="BackgroundImageFix"/>
<feBlend mode="normal" in="SourceGraphic" in2="BackgroundImageFix" result="shape"/>
<feColorMatrix in="SourceAlpha" type="matrix" values="0 0 0 0 0 0 0 0 0 0 0 0 0 0 0 0 0 0 127 0" result="hardAlpha"/>
<feOffset dy="10"/>
<feGaussianBlur stdDeviation="10"/>
<feComposite in2="hardAlpha" operator="arithmetic" k2="-1" k3="1"/>
<feColorMatrix type="matrix" values="0 0 0 0 0 0 0 0 0 0 0 0 0 0 0 0 0 0 0.15 0"/>
<feBlend mode="normal" in2="shape" result="effect1_innerShadow_1302_2426"/>
</filter>
<filter id="filter1_d_1302_2426" x="54" y="74" width="200" height="200" filterUnits="userSpaceOnUse" color-interpolation-filters="sRGB">
<feFlood flood-opacity="0" result="BackgroundImageFix"/>
<feColorMatrix in="SourceAlpha" type="matrix" values="0 0 0 0 0 0 0 0 0 0 0 0 0 0 0 0 0 0 127 0" result="hardAlpha"/>
<feOffset dy="4"/>
<feGaussianBlur stdDeviation="10"/>
<feComposite in2="hardAlpha" operator="out"/>
<feColorMatrix type="matrix" values="0 0 0 0 0 0 0 0 0 0 0 0 0 0 0 0 0 0 0.15 0"/>
<feBlend mode="normal" in2="BackgroundImageFix" result="effect1_dropShadow_1302_2426"/>
<feBlend mode="normal" in="SourceGraphic" in2="effect1_dropShadow_1302_2426" result="shape"/>
</filter>
<filter id="filter2_d_1302_2426" x="134.707" y="0.789551" width="190.864" height="337.219" filterUnits="userSpaceOnUse" color-interpolation-filters="sRGB">
<feFlood flood-opacity="0" result="BackgroundImageFix"/>
<feColorMatrix in="SourceAlpha" type="matrix" values="0 0 0 0 0 0 0 0 0 0 0 0 0 0 0 0 0 0 127 0" result="hardAlpha"/>
<feOffset dy="4"/>
<feGaussianBlur stdDeviation="10"/>
<feComposite in2="hardAlpha" operator="out"/>
<feColorMatrix type="matrix" values="0 0 0 0 1 0 0 0 0 0.666667 0 0 0 0 0 0 0 0 0.5 0"/>
<feBlend mode="normal" in2="BackgroundImageFix" result="effect1_dropShadow_1302_2426"/>
<feBlend mode="normal" in="SourceGraphic" in2="effect1_dropShadow_1302_2426" result="shape"/>
</filter>
<filter id="filter3_d_1302_2426" x="149" y="236" width="92" height="92" filterUnits="userSpaceOnUse" color-interpolation-filters="sRGB">
<feFlood flood-opacity="0" result="BackgroundImageFix"/>
<feColorMatrix in="SourceAlpha" type="matrix" values="0 0 0 0 0 0 0 0 0 0 0 0 0 0 0 0 0 0 127 0" result="hardAlpha"/>
<feOffset dy="4"/>
<feGaussianBlur stdDeviation="7.5"/>
<feComposite in2="hardAlpha" operator="out"/>
<feColorMatrix type="matrix" values="0 0 0 0 0 0 0 0 0 0 0 0 0 0 0 0 0 0 0.15 0"/>
<feBlend mode="normal" in2="BackgroundImageFix" result="effect1_dropShadow_1302_2426"/>
<feBlend mode="normal" in="SourceGraphic" in2="effect1_dropShadow_1302_2426" result="shape"/>
</filter>
<linearGradient id="paint0_linear_1302_2426" x1="154" y1="16" x2="154" y2="324" gradientUnits="userSpaceOnUse">
<stop stop-color="white"/>
<stop offset="1" stop-color="#64728C" stop-opacity="0.03"/>
</linearGradient>
<linearGradient id="paint1_linear_1302_2426" x1="120.5" y1="154" x2="154" y2="250" gradientUnits="userSpaceOnUse">
<stop stop-color="white"/>
<stop offset="1" stop-color="#64728C" stop-opacity="0.46"/>
</linearGradient>
<linearGradient id="paint2_linear_1302_2426" x1="134.5" y1="90" x2="154" y2="250" gradientUnits="userSpaceOnUse">
<stop stop-color="#F6F6F6"/>
<stop offset="1" stop-color="#64728C" stop-opacity="0.13"/>
</linearGradient>
<radialGradient id="paint3_radial_1302_2426" cx="0" cy="0" r="1" gradientUnits="userSpaceOnUse" gradientTransform="translate(201.934 122.95) rotate(158.045) scale(84.7113 108.362)">
<stop stop-opacity="0"/>
<stop offset="1" stop-color="white"/>
</radialGradient>
<linearGradient id="paint4_linear_1302_2426" x1="210.953" y1="309" x2="173.991" y2="247" gradientUnits="userSpaceOnUse">
<stop offset="0.351922" stop-opacity="0"/>
<stop offset="1"/>
</linearGradient>
<linearGradient id="paint5_linear_1302_2426" x1="187.444" y1="247" x2="195" y2="309" gradientUnits="userSpaceOnUse">
<stop stop-color="white"/>
<stop offset="1" stop-color="#64728C" stop-opacity="0.13"/>
</linearGradient>
</defs>
</svg>
