<svg width="45" height="45" viewBox="0 0 45 45" fill="none" xmlns="http://www.w3.org/2000/svg">
<path d="M45 22.5C45 34.9264 34.9264 45 22.5 45C10.0736 45 0 34.9264 0 22.5C0 10.0736 10.0736 0 22.5 0C34.9264 0 45 10.0736 45 22.5ZM5.3514 22.5C5.3514 31.9709 13.0291 39.6486 22.5 39.6486C31.9709 39.6486 39.6486 31.9709 39.6486 22.5C39.6486 13.0291 31.9709 5.3514 22.5 5.3514C13.0291 5.3514 5.3514 13.0291 5.3514 22.5Z" fill="#38455D" fill-opacity="0.15"/>
<path d="M22.5 2.59068C22.5 1.15989 23.6637 -0.0154083 25.085 0.148974C28.6201 0.557823 32.021 1.80118 35.0003 3.79193C38.7004 6.26427 41.5843 9.77829 43.2873 13.8896C44.9903 18.001 45.4358 22.525 44.5677 26.8895C43.8686 30.4039 42.343 33.6879 40.1325 36.4767C39.2437 37.5979 37.5897 37.5897 36.578 36.578C35.5663 35.5663 35.5848 33.9355 36.4345 32.7843C37.9408 30.7433 38.9869 28.3873 39.4859 25.8787C40.1541 22.5192 39.8111 19.037 38.5003 15.8724C37.1895 12.7079 34.9698 10.0031 32.1217 8.10008C29.9951 6.67909 27.5894 5.75282 25.0811 5.37476C23.6663 5.16152 22.5 4.02148 22.5 2.59068Z" fill="#38455D"/>
<path d="M19.956 26.096C19.716 26.096 19.528 26.032 19.392 25.904C19.256 25.768 19.188 25.576 19.188 25.328V24.392H16.224C15.976 24.392 15.776 24.34 15.624 24.236C15.48 24.132 15.408 23.968 15.408 23.744C15.408 23.616 15.44 23.476 15.504 23.324C15.576 23.172 15.7 22.972 15.876 22.724L19.164 17.96C19.276 17.792 19.4 17.664 19.536 17.576C19.672 17.488 19.828 17.444 20.004 17.444C20.212 17.444 20.384 17.508 20.52 17.636C20.656 17.756 20.724 17.948 20.724 18.212V23.12H21.312C21.544 23.12 21.716 23.176 21.828 23.288C21.948 23.392 22.008 23.548 22.008 23.756C22.008 23.964 21.948 24.124 21.828 24.236C21.716 24.34 21.544 24.392 21.312 24.392H20.724V25.328C20.724 25.576 20.656 25.768 20.52 25.904C20.384 26.032 20.196 26.096 19.956 26.096ZM19.188 23.12V19.376H19.536L16.704 23.528V23.12H19.188ZM25.8673 26.12C25.4433 26.12 25.0113 26.064 24.5713 25.952C24.1313 25.84 23.7273 25.668 23.3593 25.436C23.2073 25.34 23.1033 25.228 23.0473 25.1C22.9993 24.964 22.9873 24.832 23.0113 24.704C23.0433 24.568 23.1033 24.456 23.1913 24.368C23.2873 24.272 23.3993 24.216 23.5273 24.2C23.6633 24.184 23.8113 24.22 23.9713 24.308C24.2673 24.476 24.5673 24.604 24.8713 24.692C25.1753 24.78 25.4993 24.824 25.8433 24.824C26.1793 24.824 26.4673 24.764 26.7073 24.644C26.9473 24.524 27.1313 24.356 27.2593 24.14C27.3873 23.924 27.4513 23.672 27.4513 23.384C27.4513 22.936 27.3153 22.576 27.0433 22.304C26.7713 22.024 26.3993 21.884 25.9273 21.884C25.6713 21.884 25.4233 21.928 25.1833 22.016C24.9433 22.096 24.7073 22.24 24.4753 22.448C24.4033 22.512 24.3113 22.576 24.1993 22.64C24.0873 22.696 23.9673 22.724 23.8393 22.724C23.6393 22.724 23.4873 22.672 23.3833 22.568C23.2793 22.464 23.2273 22.32 23.2273 22.136V18.212C23.2273 17.996 23.2833 17.832 23.3953 17.72C23.5153 17.6 23.6833 17.54 23.8993 17.54H27.8473C28.0633 17.54 28.2273 17.596 28.3393 17.708C28.4593 17.812 28.5193 17.968 28.5193 18.176C28.5193 18.376 28.4593 18.532 28.3393 18.644C28.2273 18.756 28.0633 18.812 27.8473 18.812H24.7273V21.5H24.3313C24.5393 21.22 24.8153 21.004 25.1593 20.852C25.5033 20.7 25.8793 20.624 26.2873 20.624C26.8233 20.624 27.2873 20.74 27.6793 20.972C28.0793 21.196 28.3873 21.512 28.6033 21.92C28.8273 22.32 28.9393 22.788 28.9393 23.324C28.9393 23.876 28.8153 24.364 28.5673 24.788C28.3193 25.204 27.9633 25.532 27.4993 25.772C27.0433 26.004 26.4993 26.12 25.8673 26.12Z" fill="#38455D"/>
</svg>
