<svg width="45" height="45" viewBox="0 0 45 45" fill="none" xmlns="http://www.w3.org/2000/svg">
<path d="M45 22.5C45 34.9264 34.9264 45 22.5 45C10.0736 45 0 34.9264 0 22.5C0 10.0736 10.0736 0 22.5 0C34.9264 0 45 10.0736 45 22.5ZM5.3514 22.5C5.3514 31.9709 13.0291 39.6486 22.5 39.6486C31.9709 39.6486 39.6486 31.9709 39.6486 22.5C39.6486 13.0291 31.9709 5.3514 22.5 5.3514C13.0291 5.3514 5.3514 13.0291 5.3514 22.5Z" fill="#FFF3B9"/>
<path d="M22.5 2.59068C22.5 1.15989 23.6637 -0.0153982 25.085 0.148984C27.1521 0.388052 29.1802 0.913209 31.1104 1.71271C33.8402 2.84344 36.3206 4.50078 38.4099 6.5901C40.4992 8.67942 42.1566 11.1598 43.2873 13.8896C44.0868 15.8198 44.6119 17.8479 44.851 19.915C45.0154 21.3363 43.8401 22.5 42.4093 22.5C40.9785 22.5 39.8385 21.3338 39.6252 19.919C39.4163 18.5326 39.0393 17.1736 38.5003 15.8724C37.63 13.7713 36.3543 11.8621 34.7461 10.2539C33.1379 8.64569 31.2288 7.37001 29.1276 6.49967C27.8264 5.9607 26.4674 5.58372 25.081 5.37477C23.6662 5.16154 22.5 4.02148 22.5 2.59068Z" fill="#FFB300"/>
<path d="M16.432 26.12C16 26.12 15.552 26.064 15.088 25.952C14.624 25.84 14.22 25.672 13.876 25.448C13.716 25.344 13.608 25.224 13.552 25.088C13.496 24.952 13.48 24.824 13.504 24.704C13.536 24.576 13.596 24.468 13.684 24.38C13.78 24.292 13.896 24.24 14.032 24.224C14.176 24.208 14.332 24.244 14.5 24.332C14.828 24.508 15.144 24.636 15.448 24.716C15.752 24.788 16.064 24.824 16.384 24.824C16.736 24.824 17.032 24.776 17.272 24.68C17.512 24.584 17.692 24.44 17.812 24.248C17.94 24.056 18.004 23.824 18.004 23.552C18.004 23.152 17.868 22.856 17.596 22.664C17.332 22.464 16.944 22.364 16.432 22.364H15.664C15.44 22.364 15.268 22.308 15.148 22.196C15.036 22.084 14.98 21.928 14.98 21.728C14.98 21.528 15.036 21.372 15.148 21.26C15.268 21.148 15.44 21.092 15.664 21.092H16.288C16.592 21.092 16.852 21.044 17.068 20.948C17.284 20.844 17.452 20.7 17.572 20.516C17.692 20.332 17.752 20.108 17.752 19.844C17.752 19.476 17.628 19.196 17.38 19.004C17.14 18.812 16.788 18.716 16.324 18.716C16.028 18.716 15.748 18.752 15.484 18.824C15.228 18.888 14.944 19.012 14.632 19.196C14.488 19.284 14.348 19.32 14.212 19.304C14.084 19.288 13.976 19.236 13.888 19.148C13.8 19.06 13.74 18.956 13.708 18.836C13.676 18.708 13.684 18.58 13.732 18.452C13.78 18.316 13.88 18.2 14.032 18.104C14.376 17.88 14.756 17.712 15.172 17.6C15.588 17.48 16.016 17.42 16.456 17.42C17.04 17.42 17.54 17.512 17.956 17.696C18.372 17.872 18.688 18.128 18.904 18.464C19.128 18.792 19.24 19.192 19.24 19.664C19.24 20 19.176 20.308 19.048 20.588C18.92 20.86 18.74 21.092 18.508 21.284C18.276 21.476 17.996 21.612 17.668 21.692V21.548C18.244 21.644 18.692 21.884 19.012 22.268C19.332 22.644 19.492 23.116 19.492 23.684C19.492 24.18 19.368 24.612 19.12 24.98C18.872 25.348 18.52 25.632 18.064 25.832C17.608 26.024 17.064 26.12 16.432 26.12ZM23.8673 26.12C23.4433 26.12 23.0113 26.064 22.5713 25.952C22.1313 25.84 21.7273 25.668 21.3593 25.436C21.2073 25.34 21.1033 25.228 21.0473 25.1C20.9993 24.964 20.9873 24.832 21.0113 24.704C21.0433 24.568 21.1033 24.456 21.1913 24.368C21.2873 24.272 21.3993 24.216 21.5273 24.2C21.6633 24.184 21.8113 24.22 21.9713 24.308C22.2673 24.476 22.5673 24.604 22.8713 24.692C23.1753 24.78 23.4993 24.824 23.8433 24.824C24.1793 24.824 24.4673 24.764 24.7073 24.644C24.9473 24.524 25.1313 24.356 25.2593 24.14C25.3873 23.924 25.4513 23.672 25.4513 23.384C25.4513 22.936 25.3153 22.576 25.0433 22.304C24.7713 22.024 24.3993 21.884 23.9273 21.884C23.6713 21.884 23.4233 21.928 23.1833 22.016C22.9433 22.096 22.7073 22.24 22.4753 22.448C22.4033 22.512 22.3113 22.576 22.1993 22.64C22.0873 22.696 21.9673 22.724 21.8393 22.724C21.6393 22.724 21.4873 22.672 21.3833 22.568C21.2793 22.464 21.2273 22.32 21.2273 22.136V18.212C21.2273 17.996 21.2833 17.832 21.3953 17.72C21.5153 17.6 21.6833 17.54 21.8993 17.54H25.8473C26.0633 17.54 26.2273 17.596 26.3393 17.708C26.4593 17.812 26.5193 17.968 26.5193 18.176C26.5193 18.376 26.4593 18.532 26.3393 18.644C26.2273 18.756 26.0633 18.812 25.8473 18.812H22.7273V21.5H22.3313C22.5393 21.22 22.8153 21.004 23.1593 20.852C23.5033 20.7 23.8793 20.624 24.2873 20.624C24.8233 20.624 25.2873 20.74 25.6793 20.972C26.0793 21.196 26.3873 21.512 26.6033 21.92C26.8273 22.32 26.9393 22.788 26.9393 23.324C26.9393 23.876 26.8153 24.364 26.5673 24.788C26.3193 25.204 25.9633 25.532 25.4993 25.772C25.0433 26.004 24.4993 26.12 23.8673 26.12ZM29.8818 21.9064C29.8242 22.0024 29.7546 22.0648 29.673 22.0936C29.5914 22.1272 29.5098 22.1344 29.4282 22.1152C29.3466 22.096 29.277 22.0576 29.2194 22C29.1666 21.9376 29.133 21.8632 29.1186 21.7768C29.1042 21.6904 29.1258 21.5992 29.1834 21.5032L31.7682 17.0248C31.8258 16.924 31.8954 16.8568 31.977 16.8232C32.0586 16.7896 32.1378 16.7848 32.2146 16.8088C32.2962 16.828 32.3658 16.8688 32.4234 16.9312C32.481 16.9888 32.517 17.0608 32.5314 17.1472C32.5458 17.2336 32.5242 17.3248 32.4666 17.4208L29.8818 21.9064ZM28.9746 19.948C28.557 19.948 28.233 19.8088 28.0026 19.5304C27.7722 19.2472 27.657 18.868 27.657 18.3928C27.657 18.0712 27.7074 17.7952 27.8082 17.5648C27.9138 17.3344 28.065 17.1568 28.2618 17.032C28.4634 16.9072 28.701 16.8448 28.9746 16.8448C29.3874 16.8448 29.709 16.9864 29.9394 17.2696C30.1746 17.548 30.2922 17.9224 30.2922 18.3928C30.2922 18.7096 30.2394 18.9856 30.1338 19.2208C30.033 19.4512 29.8842 19.6312 29.6874 19.7608C29.4906 19.8856 29.253 19.948 28.9746 19.948ZM28.9746 19.2568C29.0706 19.2568 29.1498 19.228 29.2122 19.1704C29.2794 19.108 29.3298 19.0144 29.3634 18.8896C29.4018 18.76 29.421 18.5944 29.421 18.3928C29.421 18.0904 29.3802 17.8744 29.2986 17.7448C29.2218 17.6104 29.1138 17.5432 28.9746 17.5432C28.8786 17.5432 28.797 17.572 28.7298 17.6296C28.6626 17.6872 28.6122 17.7784 28.5786 17.9032C28.545 18.0232 28.5282 18.1864 28.5282 18.3928C28.5282 18.7 28.5666 18.9208 28.6434 19.0552C28.7202 19.1896 28.8306 19.2568 28.9746 19.2568ZM32.6826 22.0792C32.265 22.0792 31.941 21.9376 31.7106 21.6544C31.4802 21.3712 31.365 20.992 31.365 20.5168C31.365 20.2 31.4178 19.9264 31.5234 19.696C31.629 19.4656 31.7802 19.288 31.977 19.1632C32.1738 19.0384 32.409 18.976 32.6826 18.976C33.0954 18.976 33.417 19.1152 33.6474 19.3936C33.8826 19.672 34.0002 20.0464 34.0002 20.5168C34.0002 20.8336 33.9474 21.1096 33.8418 21.3448C33.741 21.58 33.5922 21.7624 33.3954 21.892C33.1986 22.0168 32.961 22.0792 32.6826 22.0792ZM32.6826 21.3808C32.7786 21.3808 32.8578 21.352 32.9202 21.2944C32.9874 21.2368 33.0378 21.1432 33.0714 21.0136C33.1098 20.884 33.129 20.7184 33.129 20.5168C33.129 20.2144 33.0882 19.9984 33.0066 19.8688C32.9298 19.7344 32.8218 19.6672 32.6826 19.6672C32.5866 19.6672 32.505 19.696 32.4378 19.7536C32.3754 19.8112 32.325 19.9024 32.2866 20.0272C32.253 20.152 32.2362 20.3152 32.2362 20.5168C32.2362 20.8288 32.2746 21.052 32.3514 21.1864C32.4282 21.316 32.5386 21.3808 32.6826 21.3808Z" fill="#FFB300"/>
</svg>
