<svg width="55" height="50" viewBox="0 0 55 50" fill="none" xmlns="http://www.w3.org/2000/svg">
<path d="M45 25.5C45 37.9264 34.9264 48 22.5 48C10.0736 48 0 37.9264 0 25.5C0 13.0736 10.0736 3 22.5 3C34.9264 3 45 13.0736 45 25.5ZM5.3514 25.5C5.3514 34.9709 13.0291 42.6486 22.5 42.6486C31.9709 42.6486 39.6486 34.9709 39.6486 25.5C39.6486 16.0291 31.9709 8.3514 22.5 8.3514C13.0291 8.3514 5.3514 16.0291 5.3514 25.5Z" fill="#F5FAE5"/>
<path d="M22.5 5.59068C22.5 4.15989 23.6637 2.98459 25.085 3.14898C28.352 3.52682 31.5074 4.6177 34.3233 6.35687C37.8765 8.55142 40.7488 11.6916 42.6187 15.4258C44.4886 19.1601 45.2822 23.3411 44.9109 27.5008C44.5395 31.6605 43.0177 35.6348 40.5159 38.9788C38.0141 42.3227 34.631 44.9044 30.7452 46.4348C26.8595 47.9652 22.6244 48.384 18.5142 47.6442C14.404 46.9044 10.5808 45.0352 7.47256 42.2459C5.00929 40.0354 3.0721 37.3162 1.78749 34.2888C1.22861 32.9716 2.02764 31.5235 3.40025 31.1197C4.77286 30.7158 6.19575 31.5128 6.79967 32.8099C7.78294 34.9218 9.18615 36.8219 10.9331 38.3896C13.3256 40.5366 16.2684 41.9753 19.4321 42.5447C22.5958 43.1142 25.8555 42.7919 28.8465 41.6139C31.8374 40.4359 34.4415 38.4487 36.3671 35.8748C38.2928 33.3009 39.4642 30.2419 39.75 27.0401C40.0359 23.8383 39.425 20.6201 37.9857 17.7457C36.5464 14.8714 34.3356 12.4544 31.6006 10.7652C29.6035 9.53177 27.3846 8.72196 25.0811 8.37477C23.6663 8.16153 22.5 7.02148 22.5 5.59068Z" fill="#178917"/>
<path d="M17.064 29.096C16.88 29.096 16.728 29.052 16.608 28.964C16.488 28.876 16.416 28.76 16.392 28.616C16.368 28.464 16.404 28.296 16.5 28.112L20.124 21.296V21.824H16.236C16.02 21.824 15.852 21.768 15.732 21.656C15.62 21.544 15.564 21.388 15.564 21.188C15.564 20.98 15.62 20.82 15.732 20.708C15.852 20.596 16.02 20.54 16.236 20.54H20.88C21.096 20.54 21.272 20.596 21.408 20.708C21.544 20.82 21.612 20.98 21.612 21.188C21.612 21.364 21.588 21.52 21.54 21.656C21.492 21.784 21.428 21.924 21.348 22.076L17.94 28.592C17.852 28.768 17.736 28.896 17.592 28.976C17.456 29.056 17.28 29.096 17.064 29.096ZM25.8673 29.12C25.4433 29.12 25.0113 29.064 24.5713 28.952C24.1313 28.84 23.7273 28.668 23.3593 28.436C23.2073 28.34 23.1033 28.228 23.0473 28.1C22.9993 27.964 22.9873 27.832 23.0113 27.704C23.0433 27.568 23.1033 27.456 23.1913 27.368C23.2873 27.272 23.3993 27.216 23.5273 27.2C23.6633 27.184 23.8113 27.22 23.9713 27.308C24.2673 27.476 24.5673 27.604 24.8713 27.692C25.1753 27.78 25.4993 27.824 25.8433 27.824C26.1793 27.824 26.4673 27.764 26.7073 27.644C26.9473 27.524 27.1313 27.356 27.2593 27.14C27.3873 26.924 27.4513 26.672 27.4513 26.384C27.4513 25.936 27.3153 25.576 27.0433 25.304C26.7713 25.024 26.3993 24.884 25.9273 24.884C25.6713 24.884 25.4233 24.928 25.1833 25.016C24.9433 25.096 24.7073 25.24 24.4753 25.448C24.4033 25.512 24.3113 25.576 24.1993 25.64C24.0873 25.696 23.9673 25.724 23.8393 25.724C23.6393 25.724 23.4873 25.672 23.3833 25.568C23.2793 25.464 23.2273 25.32 23.2273 25.136V21.212C23.2273 20.996 23.2833 20.832 23.3953 20.72C23.5153 20.6 23.6833 20.54 23.8993 20.54H27.8473C28.0633 20.54 28.2273 20.596 28.3393 20.708C28.4593 20.812 28.5193 20.968 28.5193 21.176C28.5193 21.376 28.4593 21.532 28.3393 21.644C28.2273 21.756 28.0633 21.812 27.8473 21.812H24.7273V24.5H24.3313C24.5393 24.22 24.8153 24.004 25.1593 23.852C25.5033 23.7 25.8793 23.624 26.2873 23.624C26.8233 23.624 27.2873 23.74 27.6793 23.972C28.0793 24.196 28.3873 24.512 28.6033 24.92C28.8273 25.32 28.9393 25.788 28.9393 26.324C28.9393 26.876 28.8153 27.364 28.5673 27.788C28.3193 28.204 27.9633 28.532 27.4993 28.772C27.0433 29.004 26.4993 29.12 25.8673 29.12Z" fill="#178917"/>
<path d="M47.5879 45.7456C47.642 45.7999 47.7062 45.8431 47.777 45.8725C47.8478 45.902 47.9237 45.9171 48.0003 45.9171C48.077 45.9171 48.1529 45.902 48.2237 45.8725C48.2944 45.8431 48.3587 45.7999 48.4127 45.7456L50.8878 43.2705C50.9435 43.2167 50.988 43.1523 51.0186 43.0812C51.0491 43.01 51.0652 42.9334 51.0659 42.856C51.0666 42.7785 51.0518 42.7017 51.0225 42.63C50.9931 42.5583 50.9498 42.4932 50.8951 42.4384C50.8403 42.3837 50.7752 42.3404 50.7035 42.311C50.6318 42.2817 50.555 42.2669 50.4775 42.2676C50.4001 42.2683 50.3235 42.2844 50.2523 42.3149C50.1812 42.3455 50.1168 42.39 50.063 42.4457L48.5837 43.925L48.5837 40.6665C48.5837 40.5118 48.5222 40.3634 48.4128 40.254C48.3034 40.1446 48.155 40.0832 48.0003 40.0832C47.8456 40.0832 47.6972 40.1446 47.5878 40.254C47.4785 40.3634 47.417 40.5118 47.417 40.6665L47.417 43.925L45.9377 42.4457C45.8838 42.39 45.8195 42.3455 45.7483 42.3149C45.6771 42.2844 45.6006 42.2683 45.5231 42.2676C45.4457 42.2669 45.3689 42.2817 45.2972 42.311C45.2255 42.3404 45.1604 42.3837 45.1056 42.4384C45.0508 42.4932 45.0075 42.5583 44.9782 42.63C44.9488 42.7017 44.9341 42.7785 44.9348 42.856C44.9354 42.9334 44.9515 43.01 44.9821 43.0812C45.0127 43.1523 45.0571 43.2167 45.1128 43.2705L47.5879 45.7456ZM48.0003 48.8332C44.7786 48.8332 42.167 46.2216 42.167 42.9998C42.167 39.7781 44.7786 37.1665 48.0003 37.1665C51.2221 37.1665 53.8337 39.7781 53.8337 42.9998C53.8337 46.2216 51.2221 48.8332 48.0003 48.8332Z" fill="#178917"/>
<path d="M48.0003 1.1665C44.7798 1.1665 42.167 3.77935 42.167 6.99984C42.167 10.2203 44.7798 12.8332 48.0003 12.8332C51.2208 12.8332 53.8337 10.2203 53.8337 6.99984C53.8337 3.77935 51.2208 1.1665 48.0003 1.1665ZM47.818 10.4026C47.6979 10.4026 47.5804 10.367 47.4804 10.3002C47.3805 10.2334 47.3026 10.1385 47.2566 10.0275C47.2107 9.91648 47.1986 9.7943 47.2221 9.67643C47.2455 9.55856 47.3034 9.45029 47.3884 9.36531C47.4733 9.28033 47.5816 9.22246 47.6995 9.19901C47.8174 9.17557 47.9395 9.1876 48.0506 9.23359C48.1616 9.27958 48.2565 9.35746 48.3233 9.45739C48.39 9.55732 48.4257 9.6748 48.4257 9.79498C48.4257 9.95613 48.3617 10.1107 48.2477 10.2246C48.1337 10.3386 47.9792 10.4026 47.818 10.4026ZM48.834 7.30366C48.3415 7.63421 48.2738 7.93712 48.2738 8.21512C48.2738 8.32792 48.229 8.43611 48.1492 8.51588C48.0694 8.59565 47.9612 8.64046 47.8484 8.64046C47.7356 8.64046 47.6274 8.59565 47.5477 8.51588C47.4679 8.43611 47.4231 8.32792 47.4231 8.21512C47.4231 7.54945 47.7293 7.02019 48.3594 6.59697C48.9452 6.20383 49.2764 5.9547 49.2764 5.40691C49.2764 5.03443 49.0637 4.75157 48.6235 4.54224C48.5199 4.49302 48.2893 4.44502 48.0055 4.44836C47.6494 4.45292 47.3729 4.53799 47.16 4.70934C46.7583 5.03261 46.7243 5.38443 46.7243 5.38959C46.7216 5.44545 46.7079 5.50023 46.6841 5.55081C46.6602 5.60138 46.6266 5.64676 46.5852 5.68435C46.5438 5.72195 46.4954 5.75102 46.4428 5.7699C46.3901 5.78879 46.3343 5.79713 46.2784 5.79443C46.2226 5.79174 46.1678 5.77807 46.1172 5.75421C46.0666 5.73034 46.0213 5.69675 45.9837 5.65535C45.9461 5.61395 45.917 5.56555 45.8981 5.51291C45.8792 5.46028 45.8709 5.40444 45.8736 5.34858C45.8769 5.27475 45.9283 4.60969 46.6262 4.04823C46.988 3.75717 47.4483 3.60587 47.9933 3.59919C48.3792 3.59463 48.7416 3.65995 48.9874 3.77601C49.723 4.12388 50.1271 4.70387 50.1271 5.40691C50.1271 6.43473 49.4401 6.89623 48.834 7.30366Z" fill="#178917"/>
</svg>
