<svg width="46" height="46" viewBox="0 0 46 46" fill="none" xmlns="http://www.w3.org/2000/svg">
<path d="M46 23C46 35.7025 35.7025 46 23 46C10.2975 46 0 35.7025 0 23C0 10.2975 10.2975 0 23 0C35.7025 0 46 10.2975 46 23ZM5.47032 23C5.47032 32.6814 13.3186 40.5297 23 40.5297C32.6814 40.5297 40.5297 32.6814 40.5297 23C40.5297 13.3186 32.6814 5.47032 23 5.47032C13.3186 5.47032 5.47032 13.3186 5.47032 23Z" fill="#FE5000" fill-opacity="0.15"/>
<path d="M23 2.64825C23 1.18566 24.1895 -0.015747 25.6425 0.152289C28.8433 0.522478 31.9409 1.56242 34.7295 3.21566C38.2799 5.3206 41.1985 8.34219 43.1791 11.9635C45.1597 15.5848 46.1293 19.6723 45.9862 23.7974C45.8431 27.9224 44.5926 31.9329 42.3658 35.4083C40.1391 38.8836 37.0181 41.6957 33.3303 43.5496C29.6426 45.4034 25.5239 46.2307 21.4062 45.9447C17.2886 45.6587 13.3239 44.2699 9.92782 41.924C7.26051 40.0815 5.02123 37.7019 3.3473 34.9487C2.58747 33.699 3.18183 32.1162 4.51058 31.505C5.83934 30.8938 7.39629 31.4899 8.19871 32.7127C9.44637 34.614 11.0534 36.2642 12.9381 37.5661C15.5521 39.3718 18.6039 40.4408 21.7733 40.6609C24.9427 40.8811 28.1129 40.2443 30.9514 38.8173C33.79 37.3904 36.1922 35.2259 37.9062 32.5509C39.6202 29.8758 40.5827 26.7889 40.6929 23.6137C40.803 20.4386 40.0567 17.2924 38.5322 14.505C37.0077 11.7176 34.7612 9.39186 32.0284 7.77165C30.058 6.60349 27.8871 5.83314 25.6384 5.49421C24.1922 5.27623 23 4.11084 23 2.64825Z" fill="#FE5000"/>
<path d="M40 23C40 32.3888 32.3888 40 23 40C13.6112 40 6 32.3888 6 23C6 13.6112 13.6112 6 23 6C32.3888 6 40 13.6112 40 23ZM10.5655 23C10.5655 29.8674 16.1326 35.4345 23 35.4345C29.8674 35.4345 35.4345 29.8674 35.4345 23C35.4345 16.1326 29.8674 10.5655 23 10.5655C16.1326 10.5655 10.5655 16.1326 10.5655 23Z" fill="#FFAA00" fill-opacity="0.15"/>
<path d="M23 8.31484C23 7.03639 24.0411 5.98381 25.3077 6.15736C26.9268 6.3792 28.5094 6.83389 30.0057 7.51066C32.2071 8.50633 34.171 9.95979 35.7664 11.7742C37.3618 13.5885 38.5522 15.7222 39.2581 18.0328C39.9641 20.3434 40.1694 22.778 39.8604 25.1742C39.5514 27.5704 38.7352 29.8733 37.4661 31.9292C36.1971 33.9851 34.5044 35.747 32.5009 37.0973C30.4974 38.4475 28.2291 39.3553 25.8471 39.7599C24.2281 40.0349 22.5818 40.0732 20.9595 39.8771C19.6903 39.7236 18.9502 38.4414 19.2746 37.2048C19.5989 35.9681 20.8673 35.252 22.1427 35.3406C23.1186 35.4084 24.1019 35.3604 25.0717 35.1956C26.805 34.9012 28.4556 34.2407 29.9135 33.2581C31.3714 32.2756 32.6031 30.9935 33.5265 29.4975C34.45 28.0014 35.0439 26.3257 35.2687 24.5821C35.4936 22.8384 35.3442 21.0669 34.8305 19.3855C34.3168 17.7042 33.4506 16.1516 32.2897 14.8313C31.1287 13.5111 29.6997 12.4534 28.0978 11.7289C27.2015 11.3235 26.2626 11.0276 25.3014 10.8456C24.0452 10.6078 23 9.59328 23 8.31484Z" fill="#FFAA00"/>
<path d="M34.3337 22.9998C34.3337 29.2591 29.2596 34.3332 23.0003 34.3332C16.7411 34.3332 11.667 29.2591 11.667 22.9998C11.667 16.7406 16.7411 11.6665 23.0003 11.6665C29.2596 11.6665 34.3337 16.7406 34.3337 22.9998ZM15.0878 22.9998C15.0878 27.3698 18.6303 30.9124 23.0003 30.9124C27.3703 30.9124 30.9129 27.3698 30.9129 22.9998C30.9129 18.6299 27.3703 15.0873 23.0003 15.0873C18.6303 15.0873 15.0878 18.6299 15.0878 22.9998Z" fill="#76BC21" fill-opacity="0.15"/>
<path d="M23.0003 13.3452C23.0003 12.4181 23.756 11.6538 24.673 11.7906C26.4106 12.0499 28.0721 12.7109 29.5215 13.7306C31.4308 15.0738 32.8787 16.9739 33.6673 19.1711C34.456 21.3682 34.5469 23.7553 33.9277 26.0062C33.4576 27.7148 32.5957 29.2816 31.4196 30.5867C30.7989 31.2755 29.7297 31.1662 29.1401 30.4506C28.5505 29.7351 28.6701 28.6856 29.2466 27.9595C29.9109 27.1229 30.404 26.1566 30.6905 25.1155C31.1263 23.5315 31.0623 21.8516 30.5073 20.3053C29.9522 18.759 28.9333 17.4219 27.5896 16.4766C26.7065 15.8553 25.7115 15.4232 24.6667 15.2C23.76 15.0063 23.0003 14.2724 23.0003 13.3452Z" fill="#76BC21"/>
</svg>
