<svg width="219" height="45" viewBox="0 0 219 45" fill="none" xmlns="http://www.w3.org/2000/svg">
<g filter="url(#filter0_i_1307_3014)">
<rect width="88" height="45" rx="14" fill="#76BC21" fill-opacity="0.05"/>
<rect width="88" height="45" rx="14" fill="url(#paint0_linear_1307_3014)" fill-opacity="0.2"/>
</g>
<rect x="0.5" y="0.5" width="87" height="44" rx="13.5" stroke="#76BC21"/>
<rect x="0.5" y="0.5" width="87" height="44" rx="13.5" stroke="url(#paint1_linear_1307_3014)" stroke-opacity="0.2"/>
<rect x="97" width="122" height="45" rx="14" fill="white"/>
<rect x="97.5" y="0.5" width="121" height="44" rx="13.5" stroke="#64728C" stroke-opacity="0.2"/>
<path d="M26.896 28.112C26.6293 28.112 26.4213 28.0373 26.272 27.888C26.1333 27.7387 26.064 27.5307 26.064 27.264V18.112H22.672C22.448 18.112 22.272 18.0533 22.144 17.936C22.016 17.808 21.952 17.632 21.952 17.408C21.952 17.184 22.016 17.0133 22.144 16.896C22.272 16.7787 22.448 16.72 22.672 16.72H31.104C31.3387 16.72 31.52 16.7787 31.648 16.896C31.776 17.0133 31.84 17.184 31.84 17.408C31.84 17.632 31.776 17.808 31.648 17.936C31.52 18.0533 31.3387 18.112 31.104 18.112H27.712V27.264C27.712 27.5307 27.6427 27.7387 27.504 27.888C27.376 28.0373 27.1733 28.112 26.896 28.112ZM35.0749 28.144C34.2855 28.144 33.6029 27.9787 33.0269 27.648C32.4615 27.3173 32.0189 26.848 31.6989 26.24C31.3789 25.632 31.2189 24.9173 31.2189 24.096C31.2189 23.4667 31.3095 22.9067 31.4909 22.416C31.6722 21.9253 31.9282 21.504 32.2589 21.152C32.6002 20.7893 33.0055 20.5173 33.4749 20.336C33.9549 20.144 34.4882 20.048 35.0749 20.048C35.8535 20.048 36.5255 20.2133 37.0909 20.544C37.6669 20.8747 38.1149 21.344 38.4349 21.952C38.7549 22.5493 38.9149 23.264 38.9149 24.096C38.9149 24.7147 38.8242 25.2747 38.6429 25.776C38.4615 26.2773 38.2002 26.704 37.8589 27.056C37.5282 27.408 37.1229 27.68 36.6429 27.872C36.1735 28.0533 35.6509 28.144 35.0749 28.144ZM35.0749 26.896C35.5122 26.896 35.8962 26.7893 36.2269 26.576C36.5575 26.3627 36.8135 26.048 36.9949 25.632C37.1869 25.216 37.2829 24.704 37.2829 24.096C37.2829 23.1787 37.0802 22.4853 36.6749 22.016C36.2695 21.5467 35.7362 21.312 35.0749 21.312C34.6269 21.312 34.2375 21.4187 33.9069 21.632C33.5762 21.8347 33.3149 22.144 33.1229 22.56C32.9415 22.976 32.8509 23.488 32.8509 24.096C32.8509 25.0027 33.0535 25.696 33.4589 26.176C33.8642 26.656 34.4029 26.896 35.0749 26.896ZM43.7057 28.144C43.0231 28.144 42.4204 27.984 41.8978 27.664C41.3858 27.3333 40.9858 26.864 40.6978 26.256C40.4098 25.6373 40.2658 24.9173 40.2658 24.096C40.2658 23.2533 40.4098 22.5333 40.6978 21.936C40.9858 21.3387 41.3858 20.8747 41.8978 20.544C42.4204 20.2133 43.0231 20.048 43.7057 20.048C44.3884 20.048 44.9751 20.2187 45.4658 20.56C45.9671 20.8907 46.3031 21.3387 46.4738 21.904H46.2978V17.424C46.2978 17.1573 46.3671 16.9547 46.5058 16.816C46.6444 16.6773 46.8418 16.608 47.0978 16.608C47.3538 16.608 47.5511 16.6773 47.6898 16.816C47.8391 16.9547 47.9138 17.1573 47.9138 17.424V27.296C47.9138 27.552 47.8444 27.7547 47.7058 27.904C47.5671 28.0427 47.3698 28.112 47.1138 28.112C46.8578 28.112 46.6604 28.0427 46.5218 27.904C46.3831 27.7547 46.3138 27.552 46.3138 27.296V25.888L46.4898 26.24C46.3191 26.816 45.9831 27.28 45.4818 27.632C44.9911 27.9733 44.3991 28.144 43.7057 28.144ZM44.1218 26.896C44.5591 26.896 44.9431 26.7893 45.2738 26.576C45.6044 26.3627 45.8604 26.048 46.0418 25.632C46.2338 25.216 46.3298 24.704 46.3298 24.096C46.3298 23.1787 46.1271 22.4853 45.7218 22.016C45.3164 21.5467 44.7831 21.312 44.1218 21.312C43.6738 21.312 43.2844 21.4187 42.9538 21.632C42.6231 21.8347 42.3618 22.144 42.1698 22.56C41.9884 22.976 41.8978 23.488 41.8978 24.096C41.8978 25.0027 42.1004 25.696 42.5058 26.176C42.9111 26.656 43.4498 26.896 44.1218 26.896ZM52.6789 28.144C52.1349 28.144 51.6442 28.0373 51.2069 27.824C50.7802 27.6107 50.4442 27.3227 50.1989 26.96C49.9535 26.5973 49.8309 26.1867 49.8309 25.728C49.8309 25.152 49.9749 24.6987 50.2629 24.368C50.5615 24.0267 51.0469 23.7867 51.7189 23.648C52.4015 23.4987 53.3189 23.424 54.4709 23.424H55.2229V24.416H54.4869C53.7189 24.416 53.1109 24.4533 52.6629 24.528C52.2149 24.6027 51.8949 24.7307 51.7029 24.912C51.5215 25.0827 51.4309 25.3227 51.4309 25.632C51.4309 26.0373 51.5695 26.368 51.8469 26.624C52.1242 26.8693 52.5082 26.992 52.9989 26.992C53.3935 26.992 53.7402 26.9013 54.0389 26.72C54.3375 26.528 54.5722 26.272 54.7429 25.952C54.9242 25.632 55.0149 25.264 55.0149 24.848V23.008C55.0149 22.4 54.8869 21.9627 54.6309 21.696C54.3749 21.4293 53.9535 21.296 53.3669 21.296C53.0255 21.296 52.6682 21.3387 52.2949 21.424C51.9322 21.5093 51.5535 21.6533 51.1589 21.856C50.9775 21.9413 50.8229 21.968 50.6949 21.936C50.5669 21.904 50.4655 21.8347 50.3909 21.728C50.3162 21.6107 50.2735 21.488 50.2629 21.36C50.2629 21.2213 50.2949 21.088 50.3589 20.96C50.4335 20.832 50.5562 20.736 50.7269 20.672C51.1962 20.448 51.6602 20.288 52.1189 20.192C52.5775 20.096 53.0095 20.048 53.4149 20.048C54.1295 20.048 54.7162 20.16 55.1749 20.384C55.6442 20.608 55.9909 20.9493 56.2149 21.408C56.4389 21.8667 56.5509 22.4587 56.5509 23.184V27.296C56.5509 27.552 56.4869 27.7547 56.3589 27.904C56.2309 28.0427 56.0442 28.112 55.7989 28.112C55.5642 28.112 55.3775 28.0427 55.2389 27.904C55.1002 27.7547 55.0309 27.552 55.0309 27.296V26.256H55.1749C55.0895 26.6507 54.9295 26.992 54.6949 27.28C54.4709 27.5573 54.1882 27.7707 53.8469 27.92C53.5055 28.0693 53.1162 28.144 52.6789 28.144ZM60.5385 30.992C60.3465 30.992 60.1865 30.9387 60.0585 30.832C59.9412 30.736 59.8718 30.6027 59.8505 30.432C59.8398 30.272 59.8718 30.096 59.9465 29.904L61.0345 27.456V28.144L58.0425 21.184C57.9678 20.992 57.9412 20.8107 57.9625 20.64C57.9838 20.4693 58.0638 20.336 58.2025 20.24C58.3412 20.1333 58.5278 20.08 58.7625 20.08C58.9652 20.08 59.1252 20.128 59.2425 20.224C59.3598 20.32 59.4665 20.4853 59.5625 20.72L61.9785 26.688H61.5305L63.9785 20.72C64.0745 20.4747 64.1865 20.3093 64.3145 20.224C64.4425 20.128 64.6185 20.08 64.8425 20.08C65.0345 20.08 65.1838 20.1333 65.2905 20.24C65.4078 20.336 65.4772 20.4693 65.4985 20.64C65.5305 20.8 65.5038 20.976 65.4185 21.168L61.4185 30.368C61.3118 30.6133 61.1892 30.7787 61.0505 30.864C60.9225 30.9493 60.7518 30.992 60.5385 30.992Z" fill="#76BC21"/>
<path d="M120.896 28.112C120.629 28.112 120.421 28.0373 120.272 27.888C120.133 27.7387 120.064 27.5307 120.064 27.264V18.112H116.672C116.448 18.112 116.272 18.0533 116.144 17.936C116.016 17.808 115.952 17.632 115.952 17.408C115.952 17.184 116.016 17.0133 116.144 16.896C116.272 16.7787 116.448 16.72 116.672 16.72H125.104C125.339 16.72 125.52 16.7787 125.648 16.896C125.776 17.0133 125.84 17.184 125.84 17.408C125.84 17.632 125.776 17.808 125.648 17.936C125.52 18.0533 125.339 18.112 125.104 18.112H121.712V27.264C121.712 27.5307 121.643 27.7387 121.504 27.888C121.376 28.0373 121.173 28.112 120.896 28.112ZM128.342 28.112C128.086 28.112 127.889 28.0427 127.75 27.904C127.612 27.7547 127.542 27.552 127.542 27.296V17.424C127.542 17.1573 127.612 16.9547 127.75 16.816C127.889 16.6773 128.086 16.608 128.342 16.608C128.598 16.608 128.796 16.6773 128.934 16.816C129.084 16.9547 129.158 17.1573 129.158 17.424V21.856H128.934C129.169 21.2587 129.537 20.8107 130.038 20.512C130.54 20.2027 131.116 20.048 131.766 20.048C132.385 20.048 132.897 20.1653 133.302 20.4C133.718 20.624 134.028 20.9707 134.23 21.44C134.433 21.8987 134.534 22.48 134.534 23.184V27.296C134.534 27.552 134.465 27.7547 134.326 27.904C134.188 28.0427 133.99 28.112 133.734 28.112C133.468 28.112 133.265 28.0427 133.126 27.904C132.988 27.7547 132.918 27.552 132.918 27.296V23.28C132.918 22.608 132.785 22.1173 132.518 21.808C132.262 21.4987 131.857 21.344 131.302 21.344C130.652 21.344 130.129 21.5467 129.734 21.952C129.35 22.3573 129.158 22.9013 129.158 23.584V27.296C129.158 27.84 128.886 28.112 128.342 28.112ZM137.561 28.096C137.305 28.096 137.108 28.0213 136.969 27.872C136.83 27.712 136.761 27.4933 136.761 27.216V20.976C136.761 20.6987 136.83 20.4853 136.969 20.336C137.108 20.1867 137.305 20.112 137.561 20.112C137.817 20.112 138.014 20.1867 138.153 20.336C138.302 20.4853 138.377 20.6987 138.377 20.976V27.216C138.377 27.4933 138.308 27.712 138.169 27.872C138.03 28.0213 137.828 28.096 137.561 28.096ZM137.561 18.448C137.241 18.448 136.99 18.368 136.809 18.208C136.638 18.048 136.553 17.824 136.553 17.536C136.553 17.2373 136.638 17.0133 136.809 16.864C136.99 16.704 137.241 16.624 137.561 16.624C137.881 16.624 138.126 16.704 138.297 16.864C138.478 17.0133 138.569 17.2373 138.569 17.536C138.569 17.824 138.478 18.048 138.297 18.208C138.126 18.368 137.881 18.448 137.561 18.448ZM143.388 28.144C142.918 28.144 142.433 28.0907 141.932 27.984C141.441 27.8773 140.988 27.696 140.572 27.44C140.433 27.344 140.337 27.2373 140.284 27.12C140.23 27.0027 140.209 26.8853 140.22 26.768C140.241 26.64 140.289 26.5333 140.364 26.448C140.449 26.352 140.55 26.2933 140.668 26.272C140.796 26.2507 140.929 26.2773 141.068 26.352C141.484 26.5867 141.884 26.752 142.268 26.848C142.652 26.9333 143.03 26.976 143.404 26.976C143.969 26.976 144.396 26.8747 144.684 26.672C144.972 26.4693 145.116 26.1973 145.116 25.856C145.116 25.5787 145.02 25.3653 144.828 25.216C144.636 25.056 144.348 24.9333 143.964 24.848L142.444 24.544C141.782 24.4053 141.281 24.16 140.94 23.808C140.598 23.456 140.428 23.008 140.428 22.464C140.428 21.9733 140.561 21.5467 140.828 21.184C141.094 20.8213 141.468 20.544 141.948 20.352C142.428 20.1493 142.982 20.048 143.612 20.048C144.081 20.048 144.524 20.1067 144.94 20.224C145.356 20.3413 145.74 20.5173 146.092 20.752C146.23 20.8267 146.321 20.928 146.364 21.056C146.406 21.1733 146.412 21.2907 146.38 21.408C146.358 21.5253 146.305 21.632 146.22 21.728C146.134 21.8133 146.028 21.8667 145.9 21.888C145.782 21.8987 145.649 21.8667 145.5 21.792C145.18 21.5893 144.86 21.4453 144.54 21.36C144.23 21.2747 143.921 21.232 143.612 21.232C143.046 21.232 142.62 21.3387 142.332 21.552C142.054 21.7547 141.916 22.032 141.916 22.384C141.916 22.6507 142.001 22.8693 142.172 23.04C142.342 23.2107 142.609 23.3333 142.972 23.408L144.492 23.712C145.185 23.8507 145.708 24.0853 146.06 24.416C146.422 24.7467 146.604 25.1947 146.604 25.76C146.604 26.496 146.31 27.0773 145.724 27.504C145.137 27.9307 144.358 28.144 143.388 28.144ZM153.596 28.112C153.351 28.112 153.159 28.0427 153.02 27.904C152.892 27.7653 152.828 27.5733 152.828 27.328V17.392C152.828 17.136 152.898 16.944 153.036 16.816C153.175 16.6773 153.362 16.608 153.596 16.608C153.82 16.608 153.991 16.6507 154.108 16.736C154.236 16.8107 154.354 16.9493 154.46 17.152L158.652 24.976H158.156L162.332 17.152C162.439 16.9493 162.551 16.8107 162.668 16.736C162.786 16.6507 162.956 16.608 163.18 16.608C163.415 16.608 163.596 16.6773 163.724 16.816C163.852 16.944 163.916 17.136 163.916 17.392V27.328C163.916 27.5733 163.852 27.7653 163.724 27.904C163.607 28.0427 163.426 28.112 163.18 28.112C162.935 28.112 162.748 28.0427 162.62 27.904C162.492 27.7653 162.428 27.5733 162.428 27.328V19.072H162.78L159.068 25.936C158.983 26.096 158.892 26.2133 158.796 26.288C158.7 26.3627 158.567 26.4 158.396 26.4C158.226 26.4 158.087 26.3627 157.98 26.288C157.874 26.2027 157.778 26.0853 157.692 25.936L153.948 19.056H154.332V27.328C154.332 27.5733 154.268 27.7653 154.14 27.904C154.023 28.0427 153.842 28.112 153.596 28.112ZM169.794 28.144C169.004 28.144 168.322 27.9787 167.746 27.648C167.18 27.3173 166.738 26.848 166.418 26.24C166.098 25.632 165.938 24.9173 165.938 24.096C165.938 23.4667 166.028 22.9067 166.21 22.416C166.391 21.9253 166.647 21.504 166.978 21.152C167.319 20.7893 167.724 20.5173 168.194 20.336C168.674 20.144 169.207 20.048 169.794 20.048C170.572 20.048 171.244 20.2133 171.81 20.544C172.386 20.8747 172.834 21.344 173.154 21.952C173.474 22.5493 173.634 23.264 173.634 24.096C173.634 24.7147 173.543 25.2747 173.362 25.776C173.18 26.2773 172.919 26.704 172.578 27.056C172.247 27.408 171.842 27.68 171.362 27.872C170.892 28.0533 170.37 28.144 169.794 28.144ZM169.794 26.896C170.231 26.896 170.615 26.7893 170.946 26.576C171.276 26.3627 171.532 26.048 171.714 25.632C171.906 25.216 172.002 24.704 172.002 24.096C172.002 23.1787 171.799 22.4853 171.394 22.016C170.988 21.5467 170.455 21.312 169.794 21.312C169.346 21.312 168.956 21.4187 168.626 21.632C168.295 21.8347 168.034 22.144 167.842 22.56C167.66 22.976 167.57 23.488 167.57 24.096C167.57 25.0027 167.772 25.696 168.178 26.176C168.583 26.656 169.122 26.896 169.794 26.896ZM176.249 28.112C175.993 28.112 175.795 28.0427 175.657 27.904C175.518 27.7547 175.449 27.552 175.449 27.296V20.896C175.449 20.6293 175.518 20.4267 175.657 20.288C175.795 20.1493 175.987 20.08 176.233 20.08C176.489 20.08 176.681 20.1493 176.809 20.288C176.947 20.4267 177.017 20.6293 177.017 20.896V22.144L176.841 21.856C177.075 21.2587 177.443 20.8107 177.945 20.512C178.446 20.2027 179.022 20.048 179.673 20.048C180.291 20.048 180.803 20.1653 181.209 20.4C181.625 20.624 181.934 20.9707 182.137 21.44C182.339 21.8987 182.441 22.48 182.441 23.184V27.296C182.441 27.552 182.371 27.7547 182.233 27.904C182.094 28.0427 181.897 28.112 181.641 28.112C181.374 28.112 181.171 28.0427 181.033 27.904C180.894 27.7547 180.825 27.552 180.825 27.296V23.28C180.825 22.608 180.691 22.1173 180.425 21.808C180.169 21.4987 179.763 21.344 179.209 21.344C178.558 21.344 178.035 21.5467 177.641 21.952C177.257 22.3573 177.065 22.9013 177.065 23.584V27.296C177.065 27.84 176.793 28.112 176.249 28.112ZM187.995 28.144C187.355 28.144 186.817 28.032 186.379 27.808C185.942 27.584 185.617 27.2533 185.403 26.816C185.19 26.3787 185.083 25.8453 185.083 25.216V21.44H184.123C183.91 21.44 183.745 21.3867 183.627 21.28C183.51 21.1627 183.451 21.008 183.451 20.816C183.451 20.6133 183.51 20.4587 183.627 20.352C183.745 20.2453 183.91 20.192 184.123 20.192H185.083V18.544C185.083 18.2773 185.153 18.0747 185.291 17.936C185.441 17.7973 185.643 17.728 185.899 17.728C186.155 17.728 186.353 17.7973 186.491 17.936C186.63 18.0747 186.699 18.2773 186.699 18.544V20.192H188.571C188.785 20.192 188.95 20.2453 189.067 20.352C189.185 20.4587 189.243 20.6133 189.243 20.816C189.243 21.008 189.185 21.1627 189.067 21.28C188.95 21.3867 188.785 21.44 188.571 21.44H186.699V25.088C186.699 25.6533 186.817 26.08 187.051 26.368C187.297 26.656 187.691 26.8 188.235 26.8C188.427 26.8 188.593 26.784 188.731 26.752C188.881 26.7093 189.003 26.6827 189.099 26.672C189.217 26.672 189.313 26.7147 189.387 26.8C189.462 26.8747 189.499 27.024 189.499 27.248C189.499 27.408 189.467 27.5573 189.403 27.696C189.35 27.8347 189.249 27.9253 189.099 27.968C188.971 28.0107 188.795 28.048 188.571 28.08C188.358 28.1227 188.166 28.144 187.995 28.144ZM191.452 28.112C191.196 28.112 190.998 28.0427 190.86 27.904C190.721 27.7547 190.652 27.552 190.652 27.296V17.424C190.652 17.1573 190.721 16.9547 190.86 16.816C190.998 16.6773 191.196 16.608 191.452 16.608C191.708 16.608 191.905 16.6773 192.044 16.816C192.193 16.9547 192.268 17.1573 192.268 17.424V21.856H192.044C192.278 21.2587 192.646 20.8107 193.148 20.512C193.649 20.2027 194.225 20.048 194.876 20.048C195.494 20.048 196.006 20.1653 196.412 20.4C196.828 20.624 197.137 20.9707 197.34 21.44C197.542 21.8987 197.644 22.48 197.644 23.184V27.296C197.644 27.552 197.574 27.7547 197.436 27.904C197.297 28.0427 197.1 28.112 196.844 28.112C196.577 28.112 196.374 28.0427 196.236 27.904C196.097 27.7547 196.028 27.552 196.028 27.296V23.28C196.028 22.608 195.894 22.1173 195.628 21.808C195.372 21.4987 194.966 21.344 194.412 21.344C193.761 21.344 193.238 21.5467 192.844 21.952C192.46 22.3573 192.268 22.9013 192.268 23.584V27.296C192.268 27.84 191.996 28.112 191.452 28.112Z" fill="#64728C"/>
<defs>
<filter id="filter0_i_1307_3014" x="0" y="0" width="88" height="49" filterUnits="userSpaceOnUse" color-interpolation-filters="sRGB">
<feFlood flood-opacity="0" result="BackgroundImageFix"/>
<feBlend mode="normal" in="SourceGraphic" in2="BackgroundImageFix" result="shape"/>
<feColorMatrix in="SourceAlpha" type="matrix" values="0 0 0 0 0 0 0 0 0 0 0 0 0 0 0 0 0 0 127 0" result="hardAlpha"/>
<feOffset dy="4"/>
<feGaussianBlur stdDeviation="3"/>
<feComposite in2="hardAlpha" operator="arithmetic" k2="-1" k3="1"/>
<feColorMatrix type="matrix" values="0 0 0 0 0.462745 0 0 0 0 0.737255 0 0 0 0 0.129412 0 0 0 0.15 0"/>
<feBlend mode="normal" in2="shape" result="effect1_innerShadow_1307_3014"/>
</filter>
<linearGradient id="paint0_linear_1307_3014" x1="27.2911" y1="1.70886" x2="32.7629" y2="45.4017" gradientUnits="userSpaceOnUse">
<stop offset="0.233202" stop-color="#76BC21" stop-opacity="0.1"/>
<stop offset="1" stop-color="#76BC21" stop-opacity="0.5"/>
</linearGradient>
<linearGradient id="paint1_linear_1307_3014" x1="44" y1="0" x2="44" y2="45" gradientUnits="userSpaceOnUse">
<stop offset="0.16" stop-color="#76BC21" stop-opacity="0.08"/>
<stop offset="1" stop-color="#76BC21" stop-opacity="0.48"/>
</linearGradient>
</defs>
</svg>
