<svg width="342" height="163" viewBox="0 0 342 163" fill="none" xmlns="http://www.w3.org/2000/svg">
<g filter="url(#filter0_i_1307_3033)">
<rect x="2" y="118" width="88" height="45" rx="14" fill="#76BC21" fill-opacity="0.05"/>
<rect x="2" y="118" width="88" height="45" rx="14" fill="url(#paint0_linear_1307_3033)" fill-opacity="0.2"/>
</g>
<rect x="2.5" y="118.5" width="87" height="44" rx="13.5" stroke="#76BC21"/>
<rect x="2.5" y="118.5" width="87" height="44" rx="13.5" stroke="url(#paint1_linear_1307_3033)" stroke-opacity="0.2"/>
<rect x="99.5" y="118.5" width="121" height="44" rx="13.5" fill="white" stroke="#E8EAEF"/>
<rect x="230" y="118" width="112" height="45" rx="14" fill="white"/>
<rect x="230.5" y="118.5" width="111" height="44" rx="13.5" stroke="#64728C" stroke-opacity="0.2"/>
<path d="M28.896 146.112C28.6293 146.112 28.4213 146.037 28.272 145.888C28.1333 145.739 28.064 145.531 28.064 145.264V136.112H24.672C24.448 136.112 24.272 136.053 24.144 135.936C24.016 135.808 23.952 135.632 23.952 135.408C23.952 135.184 24.016 135.013 24.144 134.896C24.272 134.779 24.448 134.72 24.672 134.72H33.104C33.3387 134.72 33.52 134.779 33.648 134.896C33.776 135.013 33.84 135.184 33.84 135.408C33.84 135.632 33.776 135.808 33.648 135.936C33.52 136.053 33.3387 136.112 33.104 136.112H29.712V145.264C29.712 145.531 29.6427 145.739 29.504 145.888C29.376 146.037 29.1733 146.112 28.896 146.112ZM37.0749 146.144C36.2855 146.144 35.6029 145.979 35.0269 145.648C34.4615 145.317 34.0189 144.848 33.6989 144.24C33.3789 143.632 33.2189 142.917 33.2189 142.096C33.2189 141.467 33.3095 140.907 33.4909 140.416C33.6722 139.925 33.9282 139.504 34.2589 139.152C34.6002 138.789 35.0055 138.517 35.4749 138.336C35.9549 138.144 36.4882 138.048 37.0749 138.048C37.8535 138.048 38.5255 138.213 39.0909 138.544C39.6669 138.875 40.1149 139.344 40.4349 139.952C40.7549 140.549 40.9149 141.264 40.9149 142.096C40.9149 142.715 40.8242 143.275 40.6429 143.776C40.4615 144.277 40.2002 144.704 39.8589 145.056C39.5282 145.408 39.1229 145.68 38.6429 145.872C38.1735 146.053 37.6509 146.144 37.0749 146.144ZM37.0749 144.896C37.5122 144.896 37.8962 144.789 38.2269 144.576C38.5575 144.363 38.8135 144.048 38.9949 143.632C39.1869 143.216 39.2829 142.704 39.2829 142.096C39.2829 141.179 39.0802 140.485 38.6749 140.016C38.2695 139.547 37.7362 139.312 37.0749 139.312C36.6269 139.312 36.2375 139.419 35.9069 139.632C35.5762 139.835 35.3149 140.144 35.1229 140.56C34.9415 140.976 34.8509 141.488 34.8509 142.096C34.8509 143.003 35.0535 143.696 35.4589 144.176C35.8642 144.656 36.4029 144.896 37.0749 144.896ZM45.7057 146.144C45.0231 146.144 44.4204 145.984 43.8978 145.664C43.3858 145.333 42.9858 144.864 42.6978 144.256C42.4098 143.637 42.2658 142.917 42.2658 142.096C42.2658 141.253 42.4098 140.533 42.6978 139.936C42.9858 139.339 43.3858 138.875 43.8978 138.544C44.4204 138.213 45.0231 138.048 45.7057 138.048C46.3884 138.048 46.9751 138.219 47.4658 138.56C47.9671 138.891 48.3031 139.339 48.4738 139.904H48.2978V135.424C48.2978 135.157 48.3671 134.955 48.5058 134.816C48.6444 134.677 48.8418 134.608 49.0978 134.608C49.3538 134.608 49.5511 134.677 49.6898 134.816C49.8391 134.955 49.9138 135.157 49.9138 135.424V145.296C49.9138 145.552 49.8444 145.755 49.7058 145.904C49.5671 146.043 49.3698 146.112 49.1138 146.112C48.8578 146.112 48.6604 146.043 48.5218 145.904C48.3831 145.755 48.3138 145.552 48.3138 145.296V143.888L48.4898 144.24C48.3191 144.816 47.9831 145.28 47.4818 145.632C46.9911 145.973 46.3991 146.144 45.7057 146.144ZM46.1218 144.896C46.5591 144.896 46.9431 144.789 47.2738 144.576C47.6044 144.363 47.8604 144.048 48.0418 143.632C48.2338 143.216 48.3298 142.704 48.3298 142.096C48.3298 141.179 48.1271 140.485 47.7218 140.016C47.3164 139.547 46.7831 139.312 46.1218 139.312C45.6738 139.312 45.2844 139.419 44.9538 139.632C44.6231 139.835 44.3618 140.144 44.1698 140.56C43.9884 140.976 43.8978 141.488 43.8978 142.096C43.8978 143.003 44.1004 143.696 44.5058 144.176C44.9111 144.656 45.4498 144.896 46.1218 144.896ZM54.6789 146.144C54.1349 146.144 53.6442 146.037 53.2069 145.824C52.7802 145.611 52.4442 145.323 52.1989 144.96C51.9535 144.597 51.8309 144.187 51.8309 143.728C51.8309 143.152 51.9749 142.699 52.2629 142.368C52.5615 142.027 53.0469 141.787 53.7189 141.648C54.4015 141.499 55.3189 141.424 56.4709 141.424H57.2229V142.416H56.4869C55.7189 142.416 55.1109 142.453 54.6629 142.528C54.2149 142.603 53.8949 142.731 53.7029 142.912C53.5215 143.083 53.4309 143.323 53.4309 143.632C53.4309 144.037 53.5695 144.368 53.8469 144.624C54.1242 144.869 54.5082 144.992 54.9989 144.992C55.3935 144.992 55.7402 144.901 56.0389 144.72C56.3375 144.528 56.5722 144.272 56.7429 143.952C56.9242 143.632 57.0149 143.264 57.0149 142.848V141.008C57.0149 140.4 56.8869 139.963 56.6309 139.696C56.3749 139.429 55.9535 139.296 55.3669 139.296C55.0255 139.296 54.6682 139.339 54.2949 139.424C53.9322 139.509 53.5535 139.653 53.1589 139.856C52.9775 139.941 52.8229 139.968 52.6949 139.936C52.5669 139.904 52.4655 139.835 52.3909 139.728C52.3162 139.611 52.2735 139.488 52.2629 139.36C52.2629 139.221 52.2949 139.088 52.3589 138.96C52.4335 138.832 52.5562 138.736 52.7269 138.672C53.1962 138.448 53.6602 138.288 54.1189 138.192C54.5775 138.096 55.0095 138.048 55.4149 138.048C56.1295 138.048 56.7162 138.16 57.1749 138.384C57.6442 138.608 57.9909 138.949 58.2149 139.408C58.4389 139.867 58.5509 140.459 58.5509 141.184V145.296C58.5509 145.552 58.4869 145.755 58.3589 145.904C58.2309 146.043 58.0442 146.112 57.7989 146.112C57.5642 146.112 57.3775 146.043 57.2389 145.904C57.1002 145.755 57.0309 145.552 57.0309 145.296V144.256H57.1749C57.0895 144.651 56.9295 144.992 56.6949 145.28C56.4709 145.557 56.1882 145.771 55.8469 145.92C55.5055 146.069 55.1162 146.144 54.6789 146.144ZM62.5385 148.992C62.3465 148.992 62.1865 148.939 62.0585 148.832C61.9412 148.736 61.8718 148.603 61.8505 148.432C61.8398 148.272 61.8718 148.096 61.9465 147.904L63.0345 145.456V146.144L60.0425 139.184C59.9678 138.992 59.9412 138.811 59.9625 138.64C59.9838 138.469 60.0638 138.336 60.2025 138.24C60.3412 138.133 60.5278 138.08 60.7625 138.08C60.9652 138.08 61.1252 138.128 61.2425 138.224C61.3598 138.32 61.4665 138.485 61.5625 138.72L63.9785 144.688H63.5305L65.9785 138.72C66.0745 138.475 66.1865 138.309 66.3145 138.224C66.4425 138.128 66.6185 138.08 66.8425 138.08C67.0345 138.08 67.1838 138.133 67.2905 138.24C67.4078 138.336 67.4772 138.469 67.4985 138.64C67.5305 138.8 67.5038 138.976 67.4185 139.168L63.4185 148.368C63.3118 148.613 63.1892 148.779 63.0505 148.864C62.9225 148.949 62.7518 148.992 62.5385 148.992Z" fill="#76BC21"/>
<path d="M122.896 146.112C122.629 146.112 122.421 146.037 122.272 145.888C122.133 145.739 122.064 145.531 122.064 145.264V136.112H118.672C118.448 136.112 118.272 136.053 118.144 135.936C118.016 135.808 117.952 135.632 117.952 135.408C117.952 135.184 118.016 135.013 118.144 134.896C118.272 134.779 118.448 134.72 118.672 134.72H127.104C127.339 134.72 127.52 134.779 127.648 134.896C127.776 135.013 127.84 135.184 127.84 135.408C127.84 135.632 127.776 135.808 127.648 135.936C127.52 136.053 127.339 136.112 127.104 136.112H123.712V145.264C123.712 145.531 123.643 145.739 123.504 145.888C123.376 146.037 123.173 146.112 122.896 146.112ZM130.342 146.112C130.086 146.112 129.889 146.043 129.75 145.904C129.612 145.755 129.542 145.552 129.542 145.296V135.424C129.542 135.157 129.612 134.955 129.75 134.816C129.889 134.677 130.086 134.608 130.342 134.608C130.598 134.608 130.796 134.677 130.934 134.816C131.084 134.955 131.158 135.157 131.158 135.424V139.856H130.934C131.169 139.259 131.537 138.811 132.038 138.512C132.54 138.203 133.116 138.048 133.766 138.048C134.385 138.048 134.897 138.165 135.302 138.4C135.718 138.624 136.028 138.971 136.23 139.44C136.433 139.899 136.534 140.48 136.534 141.184V145.296C136.534 145.552 136.465 145.755 136.326 145.904C136.188 146.043 135.99 146.112 135.734 146.112C135.468 146.112 135.265 146.043 135.126 145.904C134.988 145.755 134.918 145.552 134.918 145.296V141.28C134.918 140.608 134.785 140.117 134.518 139.808C134.262 139.499 133.857 139.344 133.302 139.344C132.652 139.344 132.129 139.547 131.734 139.952C131.35 140.357 131.158 140.901 131.158 141.584V145.296C131.158 145.84 130.886 146.112 130.342 146.112ZM139.561 146.096C139.305 146.096 139.108 146.021 138.969 145.872C138.83 145.712 138.761 145.493 138.761 145.216V138.976C138.761 138.699 138.83 138.485 138.969 138.336C139.108 138.187 139.305 138.112 139.561 138.112C139.817 138.112 140.014 138.187 140.153 138.336C140.302 138.485 140.377 138.699 140.377 138.976V145.216C140.377 145.493 140.308 145.712 140.169 145.872C140.03 146.021 139.828 146.096 139.561 146.096ZM139.561 136.448C139.241 136.448 138.99 136.368 138.809 136.208C138.638 136.048 138.553 135.824 138.553 135.536C138.553 135.237 138.638 135.013 138.809 134.864C138.99 134.704 139.241 134.624 139.561 134.624C139.881 134.624 140.126 134.704 140.297 134.864C140.478 135.013 140.569 135.237 140.569 135.536C140.569 135.824 140.478 136.048 140.297 136.208C140.126 136.368 139.881 136.448 139.561 136.448ZM145.388 146.144C144.918 146.144 144.433 146.091 143.932 145.984C143.441 145.877 142.988 145.696 142.572 145.44C142.433 145.344 142.337 145.237 142.284 145.12C142.23 145.003 142.209 144.885 142.22 144.768C142.241 144.64 142.289 144.533 142.364 144.448C142.449 144.352 142.55 144.293 142.668 144.272C142.796 144.251 142.929 144.277 143.068 144.352C143.484 144.587 143.884 144.752 144.268 144.848C144.652 144.933 145.03 144.976 145.404 144.976C145.969 144.976 146.396 144.875 146.684 144.672C146.972 144.469 147.116 144.197 147.116 143.856C147.116 143.579 147.02 143.365 146.828 143.216C146.636 143.056 146.348 142.933 145.964 142.848L144.444 142.544C143.782 142.405 143.281 142.16 142.94 141.808C142.598 141.456 142.428 141.008 142.428 140.464C142.428 139.973 142.561 139.547 142.828 139.184C143.094 138.821 143.468 138.544 143.948 138.352C144.428 138.149 144.982 138.048 145.612 138.048C146.081 138.048 146.524 138.107 146.94 138.224C147.356 138.341 147.74 138.517 148.092 138.752C148.23 138.827 148.321 138.928 148.364 139.056C148.406 139.173 148.412 139.291 148.38 139.408C148.358 139.525 148.305 139.632 148.22 139.728C148.134 139.813 148.028 139.867 147.9 139.888C147.782 139.899 147.649 139.867 147.5 139.792C147.18 139.589 146.86 139.445 146.54 139.36C146.23 139.275 145.921 139.232 145.612 139.232C145.046 139.232 144.62 139.339 144.332 139.552C144.054 139.755 143.916 140.032 143.916 140.384C143.916 140.651 144.001 140.869 144.172 141.04C144.342 141.211 144.609 141.333 144.972 141.408L146.492 141.712C147.185 141.851 147.708 142.085 148.06 142.416C148.422 142.747 148.604 143.195 148.604 143.76C148.604 144.496 148.31 145.077 147.724 145.504C147.137 145.931 146.358 146.144 145.388 146.144ZM155.596 146.112C155.351 146.112 155.159 146.043 155.02 145.904C154.892 145.765 154.828 145.573 154.828 145.328V135.392C154.828 135.136 154.898 134.944 155.036 134.816C155.175 134.677 155.362 134.608 155.596 134.608C155.82 134.608 155.991 134.651 156.108 134.736C156.236 134.811 156.354 134.949 156.46 135.152L160.652 142.976H160.156L164.332 135.152C164.439 134.949 164.551 134.811 164.668 134.736C164.786 134.651 164.956 134.608 165.18 134.608C165.415 134.608 165.596 134.677 165.724 134.816C165.852 134.944 165.916 135.136 165.916 135.392V145.328C165.916 145.573 165.852 145.765 165.724 145.904C165.607 146.043 165.426 146.112 165.18 146.112C164.935 146.112 164.748 146.043 164.62 145.904C164.492 145.765 164.428 145.573 164.428 145.328V137.072H164.78L161.068 143.936C160.983 144.096 160.892 144.213 160.796 144.288C160.7 144.363 160.567 144.4 160.396 144.4C160.226 144.4 160.087 144.363 159.98 144.288C159.874 144.203 159.778 144.085 159.692 143.936L155.948 137.056H156.332V145.328C156.332 145.573 156.268 145.765 156.14 145.904C156.023 146.043 155.842 146.112 155.596 146.112ZM171.794 146.144C171.004 146.144 170.322 145.979 169.746 145.648C169.18 145.317 168.738 144.848 168.418 144.24C168.098 143.632 167.938 142.917 167.938 142.096C167.938 141.467 168.028 140.907 168.21 140.416C168.391 139.925 168.647 139.504 168.978 139.152C169.319 138.789 169.724 138.517 170.194 138.336C170.674 138.144 171.207 138.048 171.794 138.048C172.572 138.048 173.244 138.213 173.81 138.544C174.386 138.875 174.834 139.344 175.154 139.952C175.474 140.549 175.634 141.264 175.634 142.096C175.634 142.715 175.543 143.275 175.362 143.776C175.18 144.277 174.919 144.704 174.578 145.056C174.247 145.408 173.842 145.68 173.362 145.872C172.892 146.053 172.37 146.144 171.794 146.144ZM171.794 144.896C172.231 144.896 172.615 144.789 172.946 144.576C173.276 144.363 173.532 144.048 173.714 143.632C173.906 143.216 174.002 142.704 174.002 142.096C174.002 141.179 173.799 140.485 173.394 140.016C172.988 139.547 172.455 139.312 171.794 139.312C171.346 139.312 170.956 139.419 170.626 139.632C170.295 139.835 170.034 140.144 169.842 140.56C169.66 140.976 169.57 141.488 169.57 142.096C169.57 143.003 169.772 143.696 170.178 144.176C170.583 144.656 171.122 144.896 171.794 144.896ZM178.249 146.112C177.993 146.112 177.795 146.043 177.657 145.904C177.518 145.755 177.449 145.552 177.449 145.296V138.896C177.449 138.629 177.518 138.427 177.657 138.288C177.795 138.149 177.987 138.08 178.233 138.08C178.489 138.08 178.681 138.149 178.809 138.288C178.947 138.427 179.017 138.629 179.017 138.896V140.144L178.841 139.856C179.075 139.259 179.443 138.811 179.945 138.512C180.446 138.203 181.022 138.048 181.673 138.048C182.291 138.048 182.803 138.165 183.209 138.4C183.625 138.624 183.934 138.971 184.137 139.44C184.339 139.899 184.441 140.48 184.441 141.184V145.296C184.441 145.552 184.371 145.755 184.233 145.904C184.094 146.043 183.897 146.112 183.641 146.112C183.374 146.112 183.171 146.043 183.033 145.904C182.894 145.755 182.825 145.552 182.825 145.296V141.28C182.825 140.608 182.691 140.117 182.425 139.808C182.169 139.499 181.763 139.344 181.209 139.344C180.558 139.344 180.035 139.547 179.641 139.952C179.257 140.357 179.065 140.901 179.065 141.584V145.296C179.065 145.84 178.793 146.112 178.249 146.112ZM189.995 146.144C189.355 146.144 188.817 146.032 188.379 145.808C187.942 145.584 187.617 145.253 187.403 144.816C187.19 144.379 187.083 143.845 187.083 143.216V139.44H186.123C185.91 139.44 185.745 139.387 185.627 139.28C185.51 139.163 185.451 139.008 185.451 138.816C185.451 138.613 185.51 138.459 185.627 138.352C185.745 138.245 185.91 138.192 186.123 138.192H187.083V136.544C187.083 136.277 187.153 136.075 187.291 135.936C187.441 135.797 187.643 135.728 187.899 135.728C188.155 135.728 188.353 135.797 188.491 135.936C188.63 136.075 188.699 136.277 188.699 136.544V138.192H190.571C190.785 138.192 190.95 138.245 191.067 138.352C191.185 138.459 191.243 138.613 191.243 138.816C191.243 139.008 191.185 139.163 191.067 139.28C190.95 139.387 190.785 139.44 190.571 139.44H188.699V143.088C188.699 143.653 188.817 144.08 189.051 144.368C189.297 144.656 189.691 144.8 190.235 144.8C190.427 144.8 190.593 144.784 190.731 144.752C190.881 144.709 191.003 144.683 191.099 144.672C191.217 144.672 191.313 144.715 191.387 144.8C191.462 144.875 191.499 145.024 191.499 145.248C191.499 145.408 191.467 145.557 191.403 145.696C191.35 145.835 191.249 145.925 191.099 145.968C190.971 146.011 190.795 146.048 190.571 146.08C190.358 146.123 190.166 146.144 189.995 146.144ZM193.452 146.112C193.196 146.112 192.998 146.043 192.86 145.904C192.721 145.755 192.652 145.552 192.652 145.296V135.424C192.652 135.157 192.721 134.955 192.86 134.816C192.998 134.677 193.196 134.608 193.452 134.608C193.708 134.608 193.905 134.677 194.044 134.816C194.193 134.955 194.268 135.157 194.268 135.424V139.856H194.044C194.278 139.259 194.646 138.811 195.148 138.512C195.649 138.203 196.225 138.048 196.876 138.048C197.494 138.048 198.006 138.165 198.412 138.4C198.828 138.624 199.137 138.971 199.34 139.44C199.542 139.899 199.644 140.48 199.644 141.184V145.296C199.644 145.552 199.574 145.755 199.436 145.904C199.297 146.043 199.1 146.112 198.844 146.112C198.577 146.112 198.374 146.043 198.236 145.904C198.097 145.755 198.028 145.552 198.028 145.296V141.28C198.028 140.608 197.894 140.117 197.628 139.808C197.372 139.499 196.966 139.344 196.412 139.344C195.761 139.344 195.238 139.547 194.844 139.952C194.46 140.357 194.268 140.901 194.268 141.584V145.296C194.268 145.84 193.996 146.112 193.452 146.112Z" fill="#E8EAEF"/>
<path d="M253.896 146.112C253.629 146.112 253.421 146.037 253.272 145.888C253.133 145.739 253.064 145.531 253.064 145.264V136.112H249.672C249.448 136.112 249.272 136.053 249.144 135.936C249.016 135.808 248.952 135.632 248.952 135.408C248.952 135.184 249.016 135.013 249.144 134.896C249.272 134.779 249.448 134.72 249.672 134.72H258.104C258.339 134.72 258.52 134.779 258.648 134.896C258.776 135.013 258.84 135.184 258.84 135.408C258.84 135.632 258.776 135.808 258.648 135.936C258.52 136.053 258.339 136.112 258.104 136.112H254.712V145.264C254.712 145.531 254.643 145.739 254.504 145.888C254.376 146.037 254.173 146.112 253.896 146.112ZM261.342 146.112C261.086 146.112 260.889 146.043 260.75 145.904C260.612 145.755 260.542 145.552 260.542 145.296V135.424C260.542 135.157 260.612 134.955 260.75 134.816C260.889 134.677 261.086 134.608 261.342 134.608C261.598 134.608 261.796 134.677 261.934 134.816C262.084 134.955 262.158 135.157 262.158 135.424V139.856H261.934C262.169 139.259 262.537 138.811 263.038 138.512C263.54 138.203 264.116 138.048 264.766 138.048C265.385 138.048 265.897 138.165 266.302 138.4C266.718 138.624 267.028 138.971 267.23 139.44C267.433 139.899 267.534 140.48 267.534 141.184V145.296C267.534 145.552 267.465 145.755 267.326 145.904C267.188 146.043 266.99 146.112 266.734 146.112C266.468 146.112 266.265 146.043 266.126 145.904C265.988 145.755 265.918 145.552 265.918 145.296V141.28C265.918 140.608 265.785 140.117 265.518 139.808C265.262 139.499 264.857 139.344 264.302 139.344C263.652 139.344 263.129 139.547 262.734 139.952C262.35 140.357 262.158 140.901 262.158 141.584V145.296C262.158 145.84 261.886 146.112 261.342 146.112ZM270.561 146.096C270.305 146.096 270.108 146.021 269.969 145.872C269.83 145.712 269.761 145.493 269.761 145.216V138.976C269.761 138.699 269.83 138.485 269.969 138.336C270.108 138.187 270.305 138.112 270.561 138.112C270.817 138.112 271.014 138.187 271.153 138.336C271.302 138.485 271.377 138.699 271.377 138.976V145.216C271.377 145.493 271.308 145.712 271.169 145.872C271.03 146.021 270.828 146.096 270.561 146.096ZM270.561 136.448C270.241 136.448 269.99 136.368 269.809 136.208C269.638 136.048 269.553 135.824 269.553 135.536C269.553 135.237 269.638 135.013 269.809 134.864C269.99 134.704 270.241 134.624 270.561 134.624C270.881 134.624 271.126 134.704 271.297 134.864C271.478 135.013 271.569 135.237 271.569 135.536C271.569 135.824 271.478 136.048 271.297 136.208C271.126 136.368 270.881 136.448 270.561 136.448ZM276.388 146.144C275.918 146.144 275.433 146.091 274.932 145.984C274.441 145.877 273.988 145.696 273.572 145.44C273.433 145.344 273.337 145.237 273.284 145.12C273.23 145.003 273.209 144.885 273.22 144.768C273.241 144.64 273.289 144.533 273.364 144.448C273.449 144.352 273.55 144.293 273.668 144.272C273.796 144.251 273.929 144.277 274.068 144.352C274.484 144.587 274.884 144.752 275.268 144.848C275.652 144.933 276.03 144.976 276.404 144.976C276.969 144.976 277.396 144.875 277.684 144.672C277.972 144.469 278.116 144.197 278.116 143.856C278.116 143.579 278.02 143.365 277.828 143.216C277.636 143.056 277.348 142.933 276.964 142.848L275.444 142.544C274.782 142.405 274.281 142.16 273.94 141.808C273.598 141.456 273.428 141.008 273.428 140.464C273.428 139.973 273.561 139.547 273.828 139.184C274.094 138.821 274.468 138.544 274.948 138.352C275.428 138.149 275.982 138.048 276.612 138.048C277.081 138.048 277.524 138.107 277.94 138.224C278.356 138.341 278.74 138.517 279.092 138.752C279.23 138.827 279.321 138.928 279.364 139.056C279.406 139.173 279.412 139.291 279.38 139.408C279.358 139.525 279.305 139.632 279.22 139.728C279.134 139.813 279.028 139.867 278.9 139.888C278.782 139.899 278.649 139.867 278.5 139.792C278.18 139.589 277.86 139.445 277.54 139.36C277.23 139.275 276.921 139.232 276.612 139.232C276.046 139.232 275.62 139.339 275.332 139.552C275.054 139.755 274.916 140.032 274.916 140.384C274.916 140.651 275.001 140.869 275.172 141.04C275.342 141.211 275.609 141.333 275.972 141.408L277.492 141.712C278.185 141.851 278.708 142.085 279.06 142.416C279.422 142.747 279.604 143.195 279.604 143.76C279.604 144.496 279.31 145.077 278.724 145.504C278.137 145.931 277.358 146.144 276.388 146.144ZM289.588 146.112C289.354 146.112 289.162 146.053 289.012 145.936C288.874 145.819 288.756 145.637 288.66 145.392L285.22 135.584C285.124 135.307 285.14 135.077 285.268 134.896C285.407 134.704 285.631 134.608 285.94 134.608C286.175 134.608 286.356 134.661 286.484 134.768C286.623 134.875 286.73 135.045 286.804 135.28L289.924 144.464H289.332L292.532 135.312C292.628 135.077 292.74 134.901 292.868 134.784C292.996 134.667 293.167 134.608 293.38 134.608C293.594 134.608 293.759 134.667 293.876 134.784C294.004 134.901 294.116 135.083 294.212 135.328L297.348 144.464H296.82L299.972 135.28C300.047 135.056 300.148 134.891 300.276 134.784C300.415 134.667 300.596 134.608 300.82 134.608C301.098 134.608 301.3 134.704 301.428 134.896C301.567 135.077 301.583 135.307 301.476 135.584L298.02 145.408C297.924 145.643 297.807 145.819 297.668 145.936C297.53 146.053 297.343 146.112 297.108 146.112C296.863 146.112 296.671 146.053 296.532 145.936C296.394 145.819 296.282 145.637 296.196 145.392L293.172 136.736H293.524L290.468 145.408C290.383 145.643 290.271 145.819 290.132 145.936C290.004 146.053 289.823 146.112 289.588 146.112ZM306.034 146.144C305.181 146.144 304.445 145.984 303.826 145.664C303.218 145.333 302.744 144.869 302.402 144.272C302.072 143.664 301.906 142.944 301.906 142.112C301.906 141.301 302.072 140.592 302.402 139.984C302.733 139.376 303.186 138.901 303.762 138.56C304.338 138.219 304.994 138.048 305.73 138.048C306.274 138.048 306.76 138.139 307.186 138.32C307.613 138.491 307.976 138.747 308.274 139.088C308.584 139.419 308.813 139.824 308.962 140.304C309.122 140.784 309.202 141.323 309.202 141.92C309.202 142.101 309.149 142.24 309.042 142.336C308.936 142.421 308.776 142.464 308.562 142.464H303.186V141.472H308.114L307.842 141.696C307.842 141.163 307.762 140.709 307.602 140.336C307.453 139.963 307.224 139.68 306.914 139.488C306.616 139.285 306.242 139.184 305.794 139.184C305.293 139.184 304.866 139.301 304.514 139.536C304.173 139.771 303.912 140.096 303.73 140.512C303.549 140.928 303.458 141.413 303.458 141.968V142.064C303.458 143.003 303.677 143.712 304.114 144.192C304.562 144.661 305.208 144.896 306.05 144.896C306.37 144.896 306.706 144.853 307.058 144.768C307.421 144.683 307.762 144.539 308.082 144.336C308.264 144.229 308.424 144.181 308.562 144.192C308.712 144.203 308.829 144.251 308.914 144.336C309.01 144.421 309.069 144.528 309.09 144.656C309.112 144.784 309.09 144.917 309.026 145.056C308.962 145.184 308.85 145.301 308.69 145.408C308.328 145.653 307.906 145.84 307.426 145.968C306.946 146.085 306.482 146.144 306.034 146.144ZM314.628 146.144C313.775 146.144 313.039 145.984 312.42 145.664C311.812 145.333 311.337 144.869 310.996 144.272C310.665 143.664 310.5 142.944 310.5 142.112C310.5 141.301 310.665 140.592 310.996 139.984C311.327 139.376 311.78 138.901 312.356 138.56C312.932 138.219 313.588 138.048 314.324 138.048C314.868 138.048 315.353 138.139 315.78 138.32C316.207 138.491 316.569 138.747 316.868 139.088C317.177 139.419 317.407 139.824 317.556 140.304C317.716 140.784 317.796 141.323 317.796 141.92C317.796 142.101 317.743 142.24 317.636 142.336C317.529 142.421 317.369 142.464 317.156 142.464H311.78V141.472H316.708L316.436 141.696C316.436 141.163 316.356 140.709 316.196 140.336C316.047 139.963 315.817 139.68 315.508 139.488C315.209 139.285 314.836 139.184 314.388 139.184C313.887 139.184 313.46 139.301 313.108 139.536C312.767 139.771 312.505 140.096 312.324 140.512C312.143 140.928 312.052 141.413 312.052 141.968V142.064C312.052 143.003 312.271 143.712 312.708 144.192C313.156 144.661 313.801 144.896 314.644 144.896C314.964 144.896 315.3 144.853 315.652 144.768C316.015 144.683 316.356 144.539 316.676 144.336C316.857 144.229 317.017 144.181 317.156 144.192C317.305 144.203 317.423 144.251 317.508 144.336C317.604 144.421 317.663 144.528 317.684 144.656C317.705 144.784 317.684 144.917 317.62 145.056C317.556 145.184 317.444 145.301 317.284 145.408C316.921 145.653 316.5 145.84 316.02 145.968C315.54 146.085 315.076 146.144 314.628 146.144ZM320.358 146.112C320.102 146.112 319.905 146.043 319.766 145.904C319.627 145.755 319.558 145.552 319.558 145.296V135.424C319.558 135.157 319.627 134.955 319.766 134.816C319.905 134.677 320.102 134.608 320.358 134.608C320.614 134.608 320.811 134.677 320.95 134.816C321.099 134.955 321.174 135.157 321.174 135.424V141.6H321.206L324.198 138.624C324.369 138.453 324.523 138.32 324.662 138.224C324.801 138.128 324.982 138.08 325.206 138.08C325.43 138.08 325.601 138.139 325.718 138.256C325.835 138.373 325.894 138.517 325.894 138.688C325.894 138.848 325.814 139.013 325.654 139.184L322.486 142.32V141.568L325.942 145.008C326.113 145.179 326.193 145.349 326.182 145.52C326.171 145.691 326.102 145.835 325.974 145.952C325.846 146.059 325.686 146.112 325.494 146.112C325.249 146.112 325.051 146.064 324.902 145.968C324.763 145.872 324.598 145.728 324.406 145.536L321.206 142.432H321.174V145.296C321.174 145.84 320.902 146.112 320.358 146.112Z" fill="#64728C"/>
<rect x="88" width="79" height="79" rx="14" fill="white"/>
<rect x="88.5" y="0.5" width="78" height="78" rx="13.5" stroke="#64728C" stroke-opacity="0.2"/>
<rect x="176" y="1" width="79" height="79" rx="14" fill="white"/>
<rect x="176.5" y="1.5" width="78" height="78" rx="13.5" stroke="#64728C" stroke-opacity="0.2"/>
<path d="M128 19.8333C124.011 19.8333 120.112 21.0161 116.796 23.232C113.48 25.448 110.895 28.5976 109.368 32.2825C107.842 35.9675 107.443 40.0224 108.221 43.9343C108.999 47.8463 110.92 51.4396 113.74 54.26C116.56 57.0803 120.154 59.001 124.066 59.7792C127.978 60.5573 132.033 60.1579 135.718 58.6316C139.402 57.1052 142.552 54.5204 144.768 51.204C146.984 47.8876 148.167 43.9886 148.167 40C148.167 34.6514 146.042 29.522 142.26 25.74C138.478 21.958 133.349 19.8333 128 19.8333ZM138.371 50.3711C138.027 50.7148 137.561 50.9079 137.075 50.9079C136.589 50.9079 136.123 50.7148 135.779 50.3711L127.241 41.8333H115.167C114.68 41.8333 114.214 41.6402 113.87 41.2963C113.527 40.9525 113.333 40.4862 113.333 40C113.333 39.5138 113.527 39.0474 113.87 38.7036C114.214 38.3598 114.68 38.1666 115.167 38.1666H126.167V27.1666C126.167 26.6804 126.36 26.2141 126.704 25.8703C127.048 25.5265 127.514 25.3333 128 25.3333C128.486 25.3333 128.953 25.5265 129.296 25.8703C129.64 26.2141 129.833 26.6804 129.833 27.1666V39.241L138.371 47.7788C138.715 48.1226 138.908 48.5888 138.908 49.075C138.908 49.5611 138.715 50.0273 138.371 50.3711Z" fill="#E8EAEF"/>
<path d="M235.62 57.1131H232.205V38.2887C232.205 37.381 231.845 36.5104 231.204 35.8685C230.564 35.2267 229.695 34.8661 228.789 34.8661H225.374C224.468 34.8661 223.6 35.2267 222.959 35.8685C222.319 36.5104 221.959 37.381 221.959 38.2887V57.1131H215.129V24.5982C215.129 23.6905 214.769 22.8199 214.129 22.1781C213.488 21.5362 212.619 21.1756 211.714 21.1756H208.298C207.393 21.1756 206.524 21.5362 205.884 22.1781C205.243 22.8199 204.883 23.6905 204.883 24.5982V57.1131H203.176C202.27 57.1131 201.401 56.7525 200.761 56.1106C200.12 55.4688 199.761 54.5982 199.761 53.6905V21.1756C199.761 20.7217 199.581 20.2865 199.26 19.9655C198.94 19.6446 198.506 19.4643 198.053 19.4643C197.6 19.4643 197.166 19.6446 196.846 19.9655C196.525 20.2865 196.345 20.7217 196.345 21.1756V53.6905C196.345 55.506 197.065 57.2471 198.346 58.5308C199.627 59.8145 201.364 60.5357 203.176 60.5357H235.62C236.073 60.5357 236.507 60.3554 236.827 60.0345C237.147 59.7136 237.327 59.2783 237.327 58.8244C237.327 58.3705 237.147 57.9353 236.827 57.6143C236.507 57.2934 236.073 57.1131 235.62 57.1131Z" fill="#64728C"/>
<g filter="url(#filter1_bi_1307_3033)">
<path d="M0 15C0 7.26802 6.26801 1 14 1H65C72.732 1 79 7.26801 79 15V66C79 73.732 72.732 80 65 80H14C6.26802 80 0 73.732 0 66V15Z" fill="#76BC21" fill-opacity="0.05"/>
<path d="M0 15C0 7.26802 6.26801 1 14 1H65C72.732 1 79 7.26801 79 15V66C79 73.732 72.732 80 65 80H14C6.26802 80 0 73.732 0 66V15Z" fill="url(#paint2_linear_1307_3033)" fill-opacity="0.2"/>
<path d="M14 1.5H65C72.4558 1.5 78.5 7.54416 78.5 15V66C78.5 73.4558 72.4558 79.5 65 79.5H14C6.54416 79.5 0.5 73.4558 0.5 66V15C0.5 7.54416 6.54416 1.5 14 1.5Z" stroke="#76BC21"/>
<path d="M14 1.5H65C72.4558 1.5 78.5 7.54416 78.5 15V66C78.5 73.4558 72.4558 79.5 65 79.5H14C6.54416 79.5 0.5 73.4558 0.5 66V15C0.5 7.54416 6.54416 1.5 14 1.5Z" stroke="url(#paint3_linear_1307_3033)" stroke-opacity="0.2"/>
</g>
<path d="M31.8073 43.9883C32.7489 44.9069 34.1755 44.9069 35.0469 43.9883L38.6167 40.2625L42.649 44.4792C43.086 44.9363 43.6623 45.1641 44.2385 45.1641C44.8148 45.1641 45.3896 44.9344 45.8281 44.4751L56.6079 33.2023C57.4856 32.2845 57.4856 30.7956 56.608 29.8771C55.7296 28.9585 54.3058 28.9585 53.4281 29.8769L44.2385 39.4909L40.2049 35.2728C39.3265 34.3542 37.9034 34.3542 37.025 35.2728L31.8073 40.6667C30.9921 41.5779 30.9921 43.0697 31.8073 43.9883ZM57.7309 52.2188H28.4974V26.2854C28.4974 25.0531 27.4904 24 26.2487 24C25.007 24 24 25.0531 24 26.2854V54.5703C24 55.8637 25.0119 56.9219 26.2487 56.9219H57.7309C58.9747 56.9219 59.9796 55.871 59.9796 54.5703C59.9796 53.2696 58.9747 52.2188 57.7309 52.2188Z" fill="#76BC21"/>
<defs>
<filter id="filter0_i_1307_3033" x="2" y="118" width="88" height="49" filterUnits="userSpaceOnUse" color-interpolation-filters="sRGB">
<feFlood flood-opacity="0" result="BackgroundImageFix"/>
<feBlend mode="normal" in="SourceGraphic" in2="BackgroundImageFix" result="shape"/>
<feColorMatrix in="SourceAlpha" type="matrix" values="0 0 0 0 0 0 0 0 0 0 0 0 0 0 0 0 0 0 127 0" result="hardAlpha"/>
<feOffset dy="4"/>
<feGaussianBlur stdDeviation="3"/>
<feComposite in2="hardAlpha" operator="arithmetic" k2="-1" k3="1"/>
<feColorMatrix type="matrix" values="0 0 0 0 0.462745 0 0 0 0 0.737255 0 0 0 0 0.129412 0 0 0 0.15 0"/>
<feBlend mode="normal" in2="shape" result="effect1_innerShadow_1307_3033"/>
</filter>
<filter id="filter1_bi_1307_3033" x="-15" y="-14" width="109" height="109" filterUnits="userSpaceOnUse" color-interpolation-filters="sRGB">
<feFlood flood-opacity="0" result="BackgroundImageFix"/>
<feGaussianBlur in="BackgroundImageFix" stdDeviation="7.5"/>
<feComposite in2="SourceAlpha" operator="in" result="effect1_backgroundBlur_1307_3033"/>
<feBlend mode="normal" in="SourceGraphic" in2="effect1_backgroundBlur_1307_3033" result="shape"/>
<feColorMatrix in="SourceAlpha" type="matrix" values="0 0 0 0 0 0 0 0 0 0 0 0 0 0 0 0 0 0 127 0" result="hardAlpha"/>
<feOffset dy="4"/>
<feGaussianBlur stdDeviation="3"/>
<feComposite in2="hardAlpha" operator="arithmetic" k2="-1" k3="1"/>
<feColorMatrix type="matrix" values="0 0 0 0 0.462745 0 0 0 0 0.737255 0 0 0 0 0.129412 0 0 0 0.15 0"/>
<feBlend mode="normal" in2="shape" result="effect2_innerShadow_1307_3033"/>
</filter>
<linearGradient id="paint0_linear_1307_3033" x1="29.2911" y1="119.709" x2="34.7629" y2="163.402" gradientUnits="userSpaceOnUse">
<stop offset="0.233202" stop-color="#76BC21" stop-opacity="0.1"/>
<stop offset="1" stop-color="#76BC21" stop-opacity="0.5"/>
</linearGradient>
<linearGradient id="paint1_linear_1307_3033" x1="46" y1="118" x2="46" y2="163" gradientUnits="userSpaceOnUse">
<stop offset="0.16" stop-color="#76BC21" stop-opacity="0.08"/>
<stop offset="1" stop-color="#76BC21" stop-opacity="0.48"/>
</linearGradient>
<linearGradient id="paint2_linear_1307_3033" x1="71.5" y1="4" x2="89.5" y2="77.5" gradientUnits="userSpaceOnUse">
<stop offset="0.233202" stop-color="#76BC21" stop-opacity="0.1"/>
<stop offset="1" stop-color="#76BC21" stop-opacity="0.5"/>
</linearGradient>
<linearGradient id="paint3_linear_1307_3033" x1="86.5" y1="1" x2="86.5" y2="80" gradientUnits="userSpaceOnUse">
<stop offset="0.16" stop-color="#76BC21" stop-opacity="0.08"/>
<stop offset="1" stop-color="#76BC21" stop-opacity="0.48"/>
</linearGradient>
</defs>
</svg>
