<svg width="393" height="65" viewBox="0 0 393 65" fill="none" xmlns="http://www.w3.org/2000/svg">
<g filter="url(#filter0_i_1095_9296)">
<rect y="10" width="393" height="51" rx="25.5" fill="#64728C" fill-opacity="0.07"/>
<g filter="url(#filter1_dd_1095_9296)">
<g clip-path="url(#clip0_1095_9296)">
<path d="M21.8325 35.1653C21.8325 37.3115 23.5188 38.9978 25.665 38.9978C27.8112 38.9978 29.4975 37.3115 29.4975 35.1653C29.4975 33.0191 27.8112 31.3328 25.665 31.3328C23.5188 31.3328 21.8325 33.0191 21.8325 35.1653ZM25.665 32.8658C26.9681 32.8658 27.9645 33.8622 27.9645 35.1653C27.9645 36.4683 26.9681 37.4648 25.665 37.4648C24.362 37.4648 23.3655 36.4683 23.3655 35.1653C23.3655 33.8622 24.362 32.8658 25.665 32.8658Z" fill="#929BAA"/>
<path d="M26.4314 29.7995V28.2665C26.4314 27.8066 26.1248 27.5 25.6649 27.5C25.205 27.5 24.8984 27.8066 24.8984 28.2665V29.7995C24.8984 30.2594 25.205 30.566 25.6649 30.566C26.1248 30.566 26.4314 30.2594 26.4314 29.7995Z" fill="#929BAA"/>
<path d="M31.1071 29.7229C30.8005 29.4163 30.3406 29.4163 30.034 29.7229L28.9609 30.796C28.6543 31.1026 28.6543 31.5625 28.9609 31.8691C29.1142 32.0224 29.3442 32.099 29.4975 32.099C29.6508 32.099 29.8807 32.0224 30.034 31.8691L31.1071 30.796C31.4137 30.566 31.4137 30.0295 31.1071 29.7229Z" fill="#929BAA"/>
<path d="M32.5632 34.3984H31.0302C30.5703 34.3984 30.2637 34.705 30.2637 35.1649C30.2637 35.6248 30.5703 35.9314 31.0302 35.9314H32.5632C33.0231 35.9314 33.3297 35.6248 33.3297 35.1649C33.3297 34.705 33.0231 34.3984 32.5632 34.3984Z" fill="#929BAA"/>
<path d="M30.034 38.3842C29.7274 38.0776 29.2675 38.0776 28.9609 38.3842C28.6543 38.6908 28.6543 39.1507 28.9609 39.4573L30.034 40.5304C30.1873 40.6837 30.4173 40.7604 30.5706 40.7604C30.7239 40.7604 30.9538 40.6837 31.1071 40.5304C31.4137 40.2238 31.4137 39.7639 31.1071 39.4573L30.034 38.3842Z" fill="#929BAA"/>
<path d="M24.8984 40.5304V42.0634C24.8984 42.5233 25.205 42.8299 25.6649 42.8299C26.1248 42.8299 26.4314 42.5233 26.4314 42.0634V40.5304C26.4314 40.0705 26.1248 39.7639 25.6649 39.7639C25.205 39.7639 24.8984 40.0705 24.8984 40.5304Z" fill="#929BAA"/>
<path d="M20.2231 40.6074C20.3764 40.7607 20.6064 40.8373 20.7597 40.8373C20.913 40.8373 21.1429 40.7607 21.2962 40.6074L22.3693 39.5343C22.6759 39.2277 22.6759 38.7678 22.3693 38.4612C22.0627 38.1546 21.6028 38.1546 21.2962 38.4612L20.2231 39.5343C19.9165 39.7642 19.9165 40.3008 20.2231 40.6074Z" fill="#929BAA"/>
<path d="M18 35.1649C18 35.6248 18.3066 35.9314 18.7665 35.9314H20.2995C20.7594 35.9314 21.066 35.6248 21.066 35.1649C21.066 34.705 20.7594 34.3984 20.2995 34.3984H18.7665C18.3066 34.3984 18 34.705 18 35.1649Z" fill="#929BAA"/>
<path d="M21.2962 29.7229C20.9896 29.4163 20.5297 29.4163 20.2231 29.7229C19.9165 30.0295 19.9165 30.4894 20.2231 30.796L21.2962 31.8691C21.4495 32.099 21.6795 32.1757 21.9094 32.1757C22.1394 32.1757 22.2927 32.099 22.446 31.9457C22.7526 31.6391 22.7526 31.1792 22.446 30.8726L21.2962 29.7229Z" fill="#929BAA"/>
</g>
<g filter="url(#filter2_i_1095_9296)">
<path d="M40.4792 40C40.1712 40 39.9332 39.9207 39.7652 39.762C39.6066 39.594 39.5272 39.356 39.5272 39.048V31.082C39.5272 30.774 39.6066 30.5407 39.7652 30.382C39.9332 30.214 40.1712 30.13 40.4792 30.13H43.1952C44.8472 30.13 46.1212 30.5547 47.0172 31.404C47.9226 32.2533 48.3752 33.4713 48.3752 35.058C48.3752 35.8513 48.2586 36.556 48.0252 37.172C47.8012 37.7787 47.4652 38.292 47.0172 38.712C46.5786 39.132 46.0372 39.454 45.3932 39.678C44.7586 39.8927 44.0259 40 43.1952 40H40.4792ZM41.3192 38.516H43.0832C43.6619 38.516 44.1612 38.446 44.5812 38.306C45.0106 38.1567 45.3652 37.942 45.6452 37.662C45.9346 37.3727 46.1492 37.0133 46.2892 36.584C46.4292 36.1453 46.4992 35.6367 46.4992 35.058C46.4992 33.9007 46.2146 33.0373 45.6452 32.468C45.0759 31.8987 44.2219 31.614 43.0832 31.614H41.3192V38.516ZM52.2773 40.14C51.7826 40.14 51.3393 40.0467 50.9473 39.86C50.5646 39.664 50.2613 39.4027 50.0373 39.076C49.8226 38.7493 49.7153 38.3807 49.7153 37.97C49.7153 37.466 49.8459 37.0693 50.1073 36.78C50.3686 36.4813 50.7933 36.2667 51.3813 36.136C51.9693 36.0053 52.7579 35.94 53.7473 35.94H54.4473V36.948H53.7613C53.1826 36.948 52.7206 36.976 52.3753 37.032C52.0299 37.088 51.7826 37.186 51.6333 37.326C51.4933 37.4567 51.4233 37.6433 51.4233 37.886C51.4233 38.194 51.5306 38.446 51.7453 38.642C51.9599 38.838 52.2586 38.936 52.6413 38.936C52.9493 38.936 53.2199 38.866 53.4533 38.726C53.6959 38.5767 53.8873 38.376 54.0273 38.124C54.1673 37.872 54.2373 37.5827 54.2373 37.256V35.646C54.2373 35.1793 54.1346 34.8433 53.9293 34.638C53.7239 34.4327 53.3786 34.33 52.8933 34.33C52.6226 34.33 52.3286 34.3627 52.0113 34.428C51.7033 34.4933 51.3766 34.6053 51.0313 34.764C50.8539 34.848 50.6953 34.8713 50.5553 34.834C50.4246 34.7967 50.3219 34.722 50.2473 34.61C50.1726 34.4887 50.1353 34.358 50.1353 34.218C50.1353 34.078 50.1726 33.9427 50.2473 33.812C50.3219 33.672 50.4479 33.5693 50.6253 33.504C51.0546 33.3267 51.4653 33.2007 51.8573 33.126C52.2586 33.0513 52.6226 33.014 52.9493 33.014C53.6213 33.014 54.1719 33.1167 54.6013 33.322C55.0399 33.5273 55.3666 33.84 55.5813 34.26C55.7959 34.6707 55.9033 35.2027 55.9033 35.856V39.216C55.9033 39.5053 55.8333 39.7293 55.6933 39.888C55.5533 40.0373 55.3526 40.112 55.0913 40.112C54.8299 40.112 54.6246 40.0373 54.4753 39.888C54.3353 39.7293 54.2653 39.5053 54.2653 39.216V38.544H54.3773C54.3119 38.8707 54.1813 39.1553 53.9853 39.398C53.7986 39.6313 53.5606 39.8133 53.2713 39.944C52.9819 40.0747 52.6506 40.14 52.2773 40.14ZM59.3472 42.632C59.1418 42.632 58.9738 42.576 58.8432 42.464C58.7125 42.3613 58.6332 42.2213 58.6052 42.044C58.5865 41.8667 58.6192 41.68 58.7032 41.484L59.6552 39.37V40.098L57.1072 34.204C57.0232 33.9987 56.9952 33.8073 57.0232 33.63C57.0512 33.4527 57.1352 33.3127 57.2752 33.21C57.4245 33.098 57.6252 33.042 57.8772 33.042C58.0918 33.042 58.2645 33.0933 58.3952 33.196C58.5258 33.2893 58.6425 33.4713 58.7452 33.742L60.6352 38.46H60.2152L62.1472 33.728C62.2498 33.4667 62.3712 33.2893 62.5112 33.196C62.6512 33.0933 62.8378 33.042 63.0712 33.042C63.2765 33.042 63.4398 33.098 63.5612 33.21C63.6825 33.3127 63.7572 33.4527 63.7852 33.63C63.8132 33.798 63.7805 33.9847 63.6872 34.19L60.2852 41.96C60.1638 42.2213 60.0332 42.3987 59.8932 42.492C59.7532 42.5853 59.5712 42.632 59.3472 42.632ZM72.3511 40.14C71.9404 40.14 71.5298 40.1073 71.1191 40.042C70.7084 39.986 70.3211 39.8973 69.9571 39.776C69.5931 39.6453 69.2664 39.4867 68.9771 39.3C68.8091 39.188 68.6924 39.0527 68.6271 38.894C68.5618 38.7353 68.5384 38.5813 68.5571 38.432C68.5851 38.2733 68.6458 38.138 68.7391 38.026C68.8418 37.9047 68.9678 37.83 69.1171 37.802C69.2664 37.774 69.4298 37.816 69.6071 37.928C70.0178 38.1707 70.4518 38.348 70.9091 38.46C71.3664 38.572 71.8471 38.628 72.3511 38.628C73.0884 38.628 73.6251 38.5067 73.9611 38.264C74.2971 38.012 74.4651 37.69 74.4651 37.298C74.4651 36.9713 74.3438 36.7147 74.1011 36.528C73.8678 36.3413 73.4618 36.1873 72.8831 36.066L71.3431 35.744C70.4564 35.5573 69.7938 35.2447 69.3551 34.806C68.9258 34.358 68.7111 33.77 68.7111 33.042C68.7111 32.5847 68.8044 32.1693 68.9911 31.796C69.1778 31.4227 69.4391 31.1007 69.7751 30.83C70.1204 30.5593 70.5264 30.354 70.9931 30.214C71.4691 30.0647 71.9918 29.99 72.5611 29.99C73.1211 29.99 73.6531 30.06 74.1571 30.2C74.6611 30.34 75.1138 30.5453 75.5151 30.816C75.6644 30.9187 75.7624 31.0447 75.8091 31.194C75.8651 31.3433 75.8791 31.4927 75.8511 31.642C75.8231 31.782 75.7578 31.9033 75.6551 32.006C75.5524 32.1087 75.4218 32.1693 75.2631 32.188C75.1138 32.2067 74.9411 32.16 74.7451 32.048C74.3998 31.852 74.0498 31.712 73.6951 31.628C73.3404 31.544 72.9578 31.502 72.5471 31.502C72.1178 31.502 71.7491 31.5627 71.4411 31.684C71.1331 31.8053 70.8951 31.978 70.7271 32.202C70.5684 32.4167 70.4891 32.6733 70.4891 32.972C70.4891 33.308 70.6011 33.5787 70.8251 33.784C71.0491 33.98 71.4318 34.134 71.9731 34.246L73.4991 34.568C74.4231 34.764 75.1091 35.072 75.5571 35.492C76.0144 35.912 76.2431 36.472 76.2431 37.172C76.2431 37.62 76.1498 38.026 75.9631 38.39C75.7858 38.754 75.5244 39.0667 75.1791 39.328C74.8431 39.5893 74.4371 39.79 73.9611 39.93C73.4851 40.07 72.9484 40.14 72.3511 40.14ZM78.4811 40.112C78.2011 40.112 77.9865 40.0373 77.8371 39.888C77.6878 39.7293 77.6131 39.5053 77.6131 39.216V30.9C77.6131 30.6107 77.6878 30.3913 77.8371 30.242C77.9865 30.0927 78.2011 30.018 78.4811 30.018C78.7611 30.018 78.9758 30.0927 79.1251 30.242C79.2838 30.3913 79.3631 30.6107 79.3631 30.9V34.526H79.1671C79.3725 34.0313 79.6898 33.658 80.1191 33.406C80.5578 33.1447 81.0525 33.014 81.6031 33.014C82.1538 33.014 82.6065 33.1167 82.9611 33.322C83.3158 33.5273 83.5818 33.84 83.7591 34.26C83.9365 34.6707 84.0251 35.1933 84.0251 35.828V39.216C84.0251 39.5053 83.9505 39.7293 83.8011 39.888C83.6518 40.0373 83.4371 40.112 83.1571 40.112C82.8771 40.112 82.6578 40.0373 82.4991 39.888C82.3498 39.7293 82.2751 39.5053 82.2751 39.216V35.912C82.2751 35.38 82.1725 34.9927 81.9671 34.75C81.7711 34.5073 81.4631 34.386 81.0431 34.386C80.5298 34.386 80.1191 34.5493 79.8111 34.876C79.5125 35.1933 79.3631 35.618 79.3631 36.15V39.216C79.3631 39.8133 79.0691 40.112 78.4811 40.112ZM86.6706 40.098C86.3906 40.098 86.1759 40.014 86.0266 39.846C85.8772 39.678 85.8026 39.4447 85.8026 39.146V34.008C85.8026 33.7 85.8772 33.4667 86.0266 33.308C86.1759 33.14 86.3906 33.056 86.6706 33.056C86.9506 33.056 87.1652 33.14 87.3146 33.308C87.4732 33.4667 87.5526 33.7 87.5526 34.008V39.146C87.5526 39.4447 87.4779 39.678 87.3286 39.846C87.1792 40.014 86.9599 40.098 86.6706 40.098ZM86.6706 31.754C86.3439 31.754 86.0872 31.6747 85.9006 31.516C85.7232 31.348 85.6346 31.1193 85.6346 30.83C85.6346 30.5313 85.7232 30.3027 85.9006 30.144C86.0872 29.9853 86.3439 29.906 86.6706 29.906C87.0066 29.906 87.2632 29.9853 87.4406 30.144C87.6179 30.3027 87.7066 30.5313 87.7066 30.83C87.7066 31.1193 87.6179 31.348 87.4406 31.516C87.2632 31.6747 87.0066 31.754 86.6706 31.754ZM90.7149 40.112C90.4349 40.112 90.2156 40.0373 90.0569 39.888C89.9076 39.7293 89.8329 39.5053 89.8329 39.216V34.47H89.1889C88.9649 34.47 88.7923 34.414 88.6709 34.302C88.5496 34.1807 88.4889 34.0173 88.4889 33.812C88.4889 33.5973 88.5496 33.434 88.6709 33.322C88.7923 33.21 88.9649 33.154 89.1889 33.154H90.3369L89.8329 33.616V33.14C89.8329 32.1787 90.0756 31.46 90.5609 30.984C91.0463 30.4987 91.7463 30.214 92.6609 30.13L93.1369 30.088C93.3236 30.0693 93.4729 30.102 93.5849 30.186C93.6969 30.2607 93.7716 30.3633 93.8089 30.494C93.8463 30.6153 93.8509 30.7413 93.8229 30.872C93.7949 31.0027 93.7343 31.1193 93.6409 31.222C93.5569 31.3153 93.4449 31.3667 93.3049 31.376L93.1089 31.39C92.5769 31.4273 92.1896 31.5627 91.9469 31.796C91.7043 32.0293 91.5829 32.384 91.5829 32.86V33.378L91.3589 33.154H92.7729C92.9969 33.154 93.1696 33.21 93.2909 33.322C93.4123 33.434 93.4729 33.5973 93.4729 33.812C93.4729 34.0173 93.4123 34.1807 93.2909 34.302C93.1696 34.414 92.9969 34.47 92.7729 34.47H91.5829V39.216C91.5829 39.8133 91.2936 40.112 90.7149 40.112ZM97.2237 40.14C96.6171 40.14 96.1084 40.0373 95.6977 39.832C95.2964 39.6267 94.9977 39.328 94.8017 38.936C94.6057 38.5347 94.5077 38.04 94.5077 37.452V34.47H93.7797C93.5557 34.47 93.3831 34.414 93.2617 34.302C93.1404 34.1807 93.0797 34.0173 93.0797 33.812C93.0797 33.5973 93.1404 33.434 93.2617 33.322C93.3831 33.21 93.5557 33.154 93.7797 33.154H94.5077V31.88C94.5077 31.5907 94.5824 31.3713 94.7317 31.222C94.8904 31.0727 95.1097 30.998 95.3897 30.998C95.6697 30.998 95.8844 31.0727 96.0337 31.222C96.1831 31.3713 96.2577 31.5907 96.2577 31.88V33.154H97.7417C97.9657 33.154 98.1384 33.21 98.2597 33.322C98.3811 33.434 98.4417 33.5973 98.4417 33.812C98.4417 34.0173 98.3811 34.1807 98.2597 34.302C98.1384 34.414 97.9657 34.47 97.7417 34.47H96.2577V37.354C96.2577 37.802 96.3557 38.138 96.5517 38.362C96.7477 38.586 97.0651 38.698 97.5037 38.698C97.6624 38.698 97.8024 38.684 97.9237 38.656C98.0451 38.628 98.1524 38.6093 98.2457 38.6C98.3577 38.5907 98.4511 38.628 98.5257 38.712C98.6004 38.7867 98.6377 38.9453 98.6377 39.188C98.6377 39.3747 98.6051 39.5427 98.5397 39.692C98.4837 39.832 98.3764 39.93 98.2177 39.986C98.0964 40.0233 97.9377 40.056 97.7417 40.084C97.5457 40.1213 97.3731 40.14 97.2237 40.14Z" fill="#929BAA"/>
</g>
</g>
<g filter="url(#filter3_dd_1095_9296)">
<rect x="117" y="14" width="123" height="43" rx="21.5" fill="white"/>
<rect x="117.5" y="14.5" width="122" height="42" rx="21" stroke="url(#paint0_linear_1095_9296)"/>
<path d="M141 42.1667C137.333 42.1667 134.333 39.1667 134.333 35.5C134.333 32.3667 136.6 29.5667 139.667 28.9667C139.933 28.9 140.267 29.0334 140.4 29.3C140.533 29.5667 140.467 29.9 140.267 30.1C139.467 30.9 139 32.0334 139 33.1667C139 35.5667 140.933 37.5 143.333 37.5C144.467 37.5 145.6 37.0334 146.4 36.2334C146.6 36.0334 146.933 35.9667 147.2 36.1C147.467 36.2334 147.6 36.5 147.533 36.8334C146.933 39.9 144.133 42.1667 141 42.1667ZM138.067 31.0334C136.6 32.0334 135.667 33.6334 135.667 35.5C135.667 38.4334 138.067 40.8334 141 40.8334C142.867 40.8334 144.467 39.9 145.467 38.4334C144.8 38.7 144.067 38.8334 143.333 38.8334C140.2 38.8334 137.667 36.3 137.667 33.1667C137.667 32.4334 137.8 31.7 138.067 31.0334Z" fill="#64728C"/>
<g filter="url(#filter4_i_1095_9296)">
<path d="M155.151 40.112C154.881 40.112 154.671 40.0373 154.521 39.888C154.381 39.7387 154.311 39.524 154.311 39.244V30.914C154.311 30.6247 154.381 30.4053 154.521 30.256C154.671 30.0973 154.862 30.018 155.095 30.018C155.31 30.018 155.469 30.06 155.571 30.144C155.683 30.2187 155.814 30.3493 155.963 30.536L161.325 37.494H160.961V30.872C160.961 30.6013 161.031 30.3913 161.171 30.242C161.321 30.0927 161.531 30.018 161.801 30.018C162.072 30.018 162.277 30.0927 162.417 30.242C162.557 30.3913 162.627 30.6013 162.627 30.872V39.272C162.627 39.5333 162.562 39.7387 162.431 39.888C162.301 40.0373 162.123 40.112 161.899 40.112C161.685 40.112 161.512 40.07 161.381 39.986C161.26 39.902 161.125 39.7667 160.975 39.58L155.627 32.622H155.977V39.244C155.977 39.524 155.907 39.7387 155.767 39.888C155.627 40.0373 155.422 40.112 155.151 40.112ZM165.484 40.098C165.204 40.098 164.989 40.014 164.84 39.846C164.691 39.678 164.616 39.4447 164.616 39.146V34.008C164.616 33.7 164.691 33.4667 164.84 33.308C164.989 33.14 165.204 33.056 165.484 33.056C165.764 33.056 165.979 33.14 166.128 33.308C166.287 33.4667 166.366 33.7 166.366 34.008V39.146C166.366 39.4447 166.291 39.678 166.142 39.846C165.993 40.014 165.773 40.098 165.484 40.098ZM165.484 31.754C165.157 31.754 164.901 31.6747 164.714 31.516C164.537 31.348 164.448 31.1193 164.448 30.83C164.448 30.5313 164.537 30.3027 164.714 30.144C164.901 29.9853 165.157 29.906 165.484 29.906C165.82 29.906 166.077 29.9853 166.254 30.144C166.431 30.3027 166.52 30.5313 166.52 30.83C166.52 31.1193 166.431 31.348 166.254 31.516C166.077 31.6747 165.82 31.754 165.484 31.754ZM171.376 42.66C170.872 42.66 170.382 42.6133 169.906 42.52C169.44 42.4267 169.015 42.282 168.632 42.086C168.455 41.9927 168.334 41.8807 168.268 41.75C168.212 41.6193 168.194 41.484 168.212 41.344C168.24 41.2133 168.296 41.0967 168.38 40.994C168.474 40.8913 168.586 40.8213 168.716 40.784C168.847 40.7467 168.982 40.7653 169.122 40.84C169.533 41.0453 169.92 41.176 170.284 41.232C170.658 41.2973 170.975 41.33 171.236 41.33C171.862 41.33 172.328 41.176 172.636 40.868C172.954 40.5693 173.112 40.1213 173.112 39.524V38.264H173.238C173.098 38.74 172.804 39.1227 172.356 39.412C171.918 39.692 171.418 39.832 170.858 39.832C170.242 39.832 169.706 39.692 169.248 39.412C168.791 39.1227 168.436 38.7213 168.184 38.208C167.932 37.6947 167.806 37.0973 167.806 36.416C167.806 35.9027 167.876 35.4407 168.016 35.03C168.166 34.61 168.371 34.2507 168.632 33.952C168.903 33.6533 169.225 33.4247 169.598 33.266C169.981 33.098 170.401 33.014 170.858 33.014C171.437 33.014 171.941 33.1587 172.37 33.448C172.809 33.728 173.094 34.1013 173.224 34.568L173.084 34.918V33.924C173.084 33.6347 173.159 33.4153 173.308 33.266C173.467 33.1167 173.682 33.042 173.952 33.042C174.232 33.042 174.447 33.1167 174.596 33.266C174.746 33.4153 174.82 33.6347 174.82 33.924V39.314C174.82 40.4247 174.526 41.26 173.938 41.82C173.35 42.38 172.496 42.66 171.376 42.66ZM171.334 38.502C171.698 38.502 172.011 38.418 172.272 38.25C172.534 38.082 172.734 37.844 172.874 37.536C173.024 37.2187 173.098 36.8453 173.098 36.416C173.098 35.772 172.94 35.268 172.622 34.904C172.305 34.5307 171.876 34.344 171.334 34.344C170.97 34.344 170.658 34.428 170.396 34.596C170.135 34.764 169.93 35.002 169.78 35.31C169.64 35.618 169.57 35.9867 169.57 36.416C169.57 37.06 169.729 37.5687 170.046 37.942C170.364 38.3153 170.793 38.502 171.334 38.502ZM177.502 40.112C177.222 40.112 177.007 40.0373 176.858 39.888C176.708 39.7293 176.634 39.5053 176.634 39.216V30.9C176.634 30.6107 176.708 30.3913 176.858 30.242C177.007 30.0927 177.222 30.018 177.502 30.018C177.782 30.018 177.996 30.0927 178.146 30.242C178.304 30.3913 178.384 30.6107 178.384 30.9V34.526H178.188C178.393 34.0313 178.71 33.658 179.14 33.406C179.578 33.1447 180.073 33.014 180.624 33.014C181.174 33.014 181.627 33.1167 181.982 33.322C182.336 33.5273 182.602 33.84 182.78 34.26C182.957 34.6707 183.046 35.1933 183.046 35.828V39.216C183.046 39.5053 182.971 39.7293 182.822 39.888C182.672 40.0373 182.458 40.112 182.178 40.112C181.898 40.112 181.678 40.0373 181.52 39.888C181.37 39.7293 181.296 39.5053 181.296 39.216V35.912C181.296 35.38 181.193 34.9927 180.988 34.75C180.792 34.5073 180.484 34.386 180.064 34.386C179.55 34.386 179.14 34.5493 178.832 34.876C178.533 35.1933 178.384 35.618 178.384 36.15V39.216C178.384 39.8133 178.09 40.112 177.502 40.112ZM187.959 40.14C187.352 40.14 186.844 40.0373 186.433 39.832C186.032 39.6267 185.733 39.328 185.537 38.936C185.341 38.5347 185.243 38.04 185.243 37.452V34.47H184.515C184.291 34.47 184.118 34.414 183.997 34.302C183.876 34.1807 183.815 34.0173 183.815 33.812C183.815 33.5973 183.876 33.434 183.997 33.322C184.118 33.21 184.291 33.154 184.515 33.154H185.243V31.88C185.243 31.5907 185.318 31.3713 185.467 31.222C185.626 31.0727 185.845 30.998 186.125 30.998C186.405 30.998 186.62 31.0727 186.769 31.222C186.918 31.3713 186.993 31.5907 186.993 31.88V33.154H188.477C188.701 33.154 188.874 33.21 188.995 33.322C189.116 33.434 189.177 33.5973 189.177 33.812C189.177 34.0173 189.116 34.1807 188.995 34.302C188.874 34.414 188.701 34.47 188.477 34.47H186.993V37.354C186.993 37.802 187.091 38.138 187.287 38.362C187.483 38.586 187.8 38.698 188.239 38.698C188.398 38.698 188.538 38.684 188.659 38.656C188.78 38.628 188.888 38.6093 188.981 38.6C189.093 38.5907 189.186 38.628 189.261 38.712C189.336 38.7867 189.373 38.9453 189.373 39.188C189.373 39.3747 189.34 39.5427 189.275 39.692C189.219 39.832 189.112 39.93 188.953 39.986C188.832 40.0233 188.673 40.056 188.477 40.084C188.281 40.1213 188.108 40.14 187.959 40.14ZM197.567 40.14C197.156 40.14 196.746 40.1073 196.335 40.042C195.924 39.986 195.537 39.8973 195.173 39.776C194.809 39.6453 194.482 39.4867 194.193 39.3C194.025 39.188 193.908 39.0527 193.843 38.894C193.778 38.7353 193.754 38.5813 193.773 38.432C193.801 38.2733 193.862 38.138 193.955 38.026C194.058 37.9047 194.184 37.83 194.333 37.802C194.482 37.774 194.646 37.816 194.823 37.928C195.234 38.1707 195.668 38.348 196.125 38.46C196.582 38.572 197.063 38.628 197.567 38.628C198.304 38.628 198.841 38.5067 199.177 38.264C199.513 38.012 199.681 37.69 199.681 37.298C199.681 36.9713 199.56 36.7147 199.317 36.528C199.084 36.3413 198.678 36.1873 198.099 36.066L196.559 35.744C195.672 35.5573 195.01 35.2447 194.571 34.806C194.142 34.358 193.927 33.77 193.927 33.042C193.927 32.5847 194.02 32.1693 194.207 31.796C194.394 31.4227 194.655 31.1007 194.991 30.83C195.336 30.5593 195.742 30.354 196.209 30.214C196.685 30.0647 197.208 29.99 197.777 29.99C198.337 29.99 198.869 30.06 199.373 30.2C199.877 30.34 200.33 30.5453 200.731 30.816C200.88 30.9187 200.978 31.0447 201.025 31.194C201.081 31.3433 201.095 31.4927 201.067 31.642C201.039 31.782 200.974 31.9033 200.871 32.006C200.768 32.1087 200.638 32.1693 200.479 32.188C200.33 32.2067 200.157 32.16 199.961 32.048C199.616 31.852 199.266 31.712 198.911 31.628C198.556 31.544 198.174 31.502 197.763 31.502C197.334 31.502 196.965 31.5627 196.657 31.684C196.349 31.8053 196.111 31.978 195.943 32.202C195.784 32.4167 195.705 32.6733 195.705 32.972C195.705 33.308 195.817 33.5787 196.041 33.784C196.265 33.98 196.648 34.134 197.189 34.246L198.715 34.568C199.639 34.764 200.325 35.072 200.773 35.492C201.23 35.912 201.459 36.472 201.459 37.172C201.459 37.62 201.366 38.026 201.179 38.39C201.002 38.754 200.74 39.0667 200.395 39.328C200.059 39.5893 199.653 39.79 199.177 39.93C198.701 40.07 198.164 40.14 197.567 40.14ZM203.697 40.112C203.417 40.112 203.202 40.0373 203.053 39.888C202.904 39.7293 202.829 39.5053 202.829 39.216V30.9C202.829 30.6107 202.904 30.3913 203.053 30.242C203.202 30.0927 203.417 30.018 203.697 30.018C203.977 30.018 204.192 30.0927 204.341 30.242C204.5 30.3913 204.579 30.6107 204.579 30.9V34.526H204.383C204.588 34.0313 204.906 33.658 205.335 33.406C205.774 33.1447 206.268 33.014 206.819 33.014C207.37 33.014 207.822 33.1167 208.177 33.322C208.532 33.5273 208.798 33.84 208.975 34.26C209.152 34.6707 209.241 35.1933 209.241 35.828V39.216C209.241 39.5053 209.166 39.7293 209.017 39.888C208.868 40.0373 208.653 40.112 208.373 40.112C208.093 40.112 207.874 40.0373 207.715 39.888C207.566 39.7293 207.491 39.5053 207.491 39.216V35.912C207.491 35.38 207.388 34.9927 207.183 34.75C206.987 34.5073 206.679 34.386 206.259 34.386C205.746 34.386 205.335 34.5493 205.027 34.876C204.728 35.1933 204.579 35.618 204.579 36.15V39.216C204.579 39.8133 204.285 40.112 203.697 40.112ZM211.886 40.098C211.606 40.098 211.392 40.014 211.242 39.846C211.093 39.678 211.018 39.4447 211.018 39.146V34.008C211.018 33.7 211.093 33.4667 211.242 33.308C211.392 33.14 211.606 33.056 211.886 33.056C212.166 33.056 212.381 33.14 212.53 33.308C212.689 33.4667 212.768 33.7 212.768 34.008V39.146C212.768 39.4447 212.694 39.678 212.544 39.846C212.395 40.014 212.176 40.098 211.886 40.098ZM211.886 31.754C211.56 31.754 211.303 31.6747 211.116 31.516C210.939 31.348 210.85 31.1193 210.85 30.83C210.85 30.5313 210.939 30.3027 211.116 30.144C211.303 29.9853 211.56 29.906 211.886 29.906C212.222 29.906 212.479 29.9853 212.656 30.144C212.834 30.3027 212.922 30.5313 212.922 30.83C212.922 31.1193 212.834 31.348 212.656 31.516C212.479 31.6747 212.222 31.754 211.886 31.754ZM215.931 40.112C215.651 40.112 215.431 40.0373 215.273 39.888C215.123 39.7293 215.049 39.5053 215.049 39.216V34.47H214.405C214.181 34.47 214.008 34.414 213.887 34.302C213.765 34.1807 213.705 34.0173 213.705 33.812C213.705 33.5973 213.765 33.434 213.887 33.322C214.008 33.21 214.181 33.154 214.405 33.154H215.553L215.049 33.616V33.14C215.049 32.1787 215.291 31.46 215.777 30.984C216.262 30.4987 216.962 30.214 217.877 30.13L218.353 30.088C218.539 30.0693 218.689 30.102 218.801 30.186C218.913 30.2607 218.987 30.3633 219.025 30.494C219.062 30.6153 219.067 30.7413 219.039 30.872C219.011 31.0027 218.95 31.1193 218.857 31.222C218.773 31.3153 218.661 31.3667 218.521 31.376L218.325 31.39C217.793 31.4273 217.405 31.5627 217.163 31.796C216.92 32.0293 216.799 32.384 216.799 32.86V33.378L216.575 33.154H217.989C218.213 33.154 218.385 33.21 218.507 33.322C218.628 33.434 218.689 33.5973 218.689 33.812C218.689 34.0173 218.628 34.1807 218.507 34.302C218.385 34.414 218.213 34.47 217.989 34.47H216.799V39.216C216.799 39.8133 216.509 40.112 215.931 40.112ZM222.44 40.14C221.833 40.14 221.324 40.0373 220.914 39.832C220.512 39.6267 220.214 39.328 220.018 38.936C219.822 38.5347 219.724 38.04 219.724 37.452V34.47H218.996C218.772 34.47 218.599 34.414 218.478 34.302C218.356 34.1807 218.296 34.0173 218.296 33.812C218.296 33.5973 218.356 33.434 218.478 33.322C218.599 33.21 218.772 33.154 218.996 33.154H219.724V31.88C219.724 31.5907 219.798 31.3713 219.948 31.222C220.106 31.0727 220.326 30.998 220.606 30.998C220.886 30.998 221.1 31.0727 221.25 31.222C221.399 31.3713 221.474 31.5907 221.474 31.88V33.154H222.958C223.182 33.154 223.354 33.21 223.476 33.322C223.597 33.434 223.658 33.5973 223.658 33.812C223.658 34.0173 223.597 34.1807 223.476 34.302C223.354 34.414 223.182 34.47 222.958 34.47H221.474V37.354C221.474 37.802 221.572 38.138 221.768 38.362C221.964 38.586 222.281 38.698 222.72 38.698C222.878 38.698 223.018 38.684 223.14 38.656C223.261 38.628 223.368 38.6093 223.462 38.6C223.574 38.5907 223.667 38.628 223.742 38.712C223.816 38.7867 223.854 38.9453 223.854 39.188C223.854 39.3747 223.821 39.5427 223.756 39.692C223.7 39.832 223.592 39.93 223.434 39.986C223.312 40.0233 223.154 40.056 222.958 40.084C222.762 40.1213 222.589 40.14 222.44 40.14Z" fill="#64728C"/>
</g>
</g>
<g filter="url(#filter5_dd_1095_9296)">
<g clip-path="url(#clip1_1095_9296)">
<path d="M265.697 30.739C264.123 34.4037 266.54 37.9319 269.601 38.6004C268.866 39.7185 266.684 40.8216 264.45 40.0527C262.281 39.3063 260.89 37.0716 261.232 34.8878C261.598 32.5511 263.478 30.7915 265.696 30.739H265.697Z" fill="#929BAA"/>
<path d="M266.812 33.0893C266.818 31.1948 268.205 29.5221 270.079 29.1474C270.455 29.0724 270.809 29.0934 271.051 29.4441C271.277 29.7724 271.211 30.0931 271.028 30.4259C270.09 32.142 271.171 34.0185 273.128 34.0725C273.486 34.083 273.762 34.1999 273.919 34.5297C274.075 34.8579 273.994 35.1547 273.789 35.4394C272.813 36.7869 271.048 37.3999 269.551 36.9053C267.941 36.3732 266.807 34.7919 266.812 33.0878V33.0893Z" fill="#929BAA"/>
<path d="M266.822 42.3114C266.807 42.4973 266.811 42.6861 266.775 42.8675C266.697 43.2452 266.372 43.5015 266.001 43.5015C265.632 43.5015 265.288 43.2452 265.235 42.8645C265.187 42.5227 265.184 42.1675 265.213 41.8243C265.25 41.3821 265.596 41.1003 266.022 41.1093C266.43 41.1183 266.742 41.3986 266.796 41.8258C266.816 41.9847 266.799 42.1495 266.799 42.3099C266.807 42.3099 266.813 42.3099 266.82 42.3099L266.822 42.3114Z" fill="#929BAA"/>
<path d="M259.219 34.6765C259.42 34.696 259.621 34.6945 259.813 34.741C260.164 34.8249 260.383 35.1187 260.393 35.4724C260.404 35.8471 260.194 36.1978 259.829 36.2473C259.417 36.3027 258.987 36.2997 258.573 36.2473C258.231 36.2053 258.005 35.8501 258 35.5099C257.996 35.1546 258.234 34.8249 258.591 34.741C258.795 34.693 259.009 34.696 259.219 34.6765Z" fill="#929BAA"/>
<path d="M262.26 40.1472C262.226 40.2236 262.187 40.405 262.082 40.5294C261.875 40.7752 261.644 41.0075 261.398 41.2158C261.077 41.4871 260.636 41.4557 260.345 41.1724C260.056 40.8906 260.008 40.4409 260.273 40.1217C260.488 39.8639 260.729 39.6271 260.984 39.4097C261.233 39.1984 261.533 39.1819 261.824 39.3273C262.116 39.4742 262.26 39.723 262.26 40.1472Z" fill="#929BAA"/>
<path d="M266.826 28.7201C266.807 28.9195 266.808 29.1218 266.762 29.3121C266.673 29.6779 266.367 29.8952 265.993 29.8922C265.637 29.8892 265.3 29.6794 265.255 29.3301C265.201 28.9165 265.202 28.4863 265.255 28.0741C265.298 27.7309 265.651 27.5046 265.993 27.5001C266.346 27.4956 266.678 27.7339 266.762 28.0906C266.81 28.2944 266.807 28.5088 266.826 28.7201Z" fill="#929BAA"/>
<path d="M261.543 31.8407C261.29 31.7283 261.1 31.6833 260.963 31.5724C260.731 31.3851 260.519 31.1693 260.324 30.9429C260.042 30.6192 260.068 30.1485 260.357 29.8578C260.648 29.567 261.119 29.5415 261.443 29.8233C261.677 30.0271 261.899 30.252 262.098 30.4903C262.308 30.7421 262.35 31.0643 262.163 31.3251C262.011 31.5365 261.753 31.6714 261.545 31.8392L261.543 31.8407Z" fill="#929BAA"/>
<path d="M270.461 39.1609C270.715 39.2748 270.905 39.3183 271.041 39.4292C271.272 39.6165 271.484 39.8339 271.68 40.0587C271.964 40.3854 271.938 40.8531 271.647 41.1438C271.356 41.4346 270.887 41.4601 270.562 41.1753C270.328 40.97 270.106 40.7481 269.906 40.5098C269.696 40.258 269.654 39.9358 269.843 39.675C269.996 39.4637 270.253 39.3288 270.461 39.1609Z" fill="#929BAA"/>
<path d="M265.697 30.739C264.123 34.4037 266.54 37.9319 269.601 38.6004C268.866 39.7185 266.684 40.8216 264.45 40.0527C262.281 39.3063 260.89 37.0716 261.232 34.8878C261.598 32.5511 263.478 30.7915 265.696 30.739H265.697Z" fill="#929BAA"/>
<path d="M266.812 33.0893C266.818 31.1948 268.205 29.5221 270.079 29.1474C270.455 29.0724 270.809 29.0934 271.051 29.4441C271.277 29.7724 271.211 30.0931 271.028 30.4259C270.09 32.142 271.171 34.0185 273.128 34.0725C273.486 34.083 273.762 34.1999 273.919 34.5297C274.075 34.8579 273.994 35.1547 273.789 35.4394C272.813 36.7869 271.048 37.3999 269.551 36.9053C267.941 36.3732 266.807 34.7919 266.812 33.0878V33.0893Z" fill="#929BAA"/>
<path d="M266.822 42.3114C266.807 42.4973 266.811 42.6861 266.775 42.8675C266.697 43.2452 266.372 43.5015 266.001 43.5015C265.632 43.5015 265.288 43.2452 265.235 42.8645C265.187 42.5227 265.184 42.1675 265.213 41.8243C265.25 41.3821 265.596 41.1003 266.022 41.1093C266.43 41.1183 266.742 41.3986 266.796 41.8258C266.816 41.9847 266.799 42.1495 266.799 42.3099C266.807 42.3099 266.813 42.3099 266.82 42.3099L266.822 42.3114Z" fill="#929BAA"/>
<path d="M259.219 34.6765C259.42 34.696 259.621 34.6945 259.813 34.741C260.164 34.8249 260.383 35.1187 260.393 35.4724C260.404 35.8471 260.194 36.1978 259.829 36.2473C259.417 36.3027 258.987 36.2997 258.573 36.2473C258.231 36.2053 258.005 35.8501 258 35.5099C257.996 35.1546 258.234 34.8249 258.591 34.741C258.795 34.693 259.009 34.696 259.219 34.6765Z" fill="#929BAA"/>
<path d="M262.26 40.1472C262.226 40.2236 262.187 40.405 262.082 40.5294C261.875 40.7752 261.644 41.0075 261.398 41.2158C261.077 41.4871 260.636 41.4557 260.345 41.1724C260.056 40.8906 260.008 40.4409 260.273 40.1217C260.488 39.8639 260.729 39.6271 260.984 39.4097C261.233 39.1984 261.533 39.1819 261.824 39.3273C262.116 39.4742 262.26 39.723 262.26 40.1472Z" fill="#929BAA"/>
<path d="M266.826 28.7201C266.807 28.9195 266.808 29.1218 266.762 29.3121C266.673 29.6779 266.367 29.8952 265.993 29.8922C265.637 29.8892 265.3 29.6794 265.255 29.3301C265.201 28.9165 265.202 28.4863 265.255 28.0741C265.298 27.7309 265.651 27.5046 265.993 27.5001C266.346 27.4956 266.678 27.7339 266.762 28.0906C266.81 28.2944 266.807 28.5088 266.826 28.7201Z" fill="#929BAA"/>
<path d="M261.543 31.8407C261.29 31.7283 261.1 31.6833 260.963 31.5724C260.731 31.3851 260.519 31.1693 260.324 30.9429C260.042 30.6192 260.068 30.1485 260.357 29.8578C260.648 29.567 261.119 29.5415 261.443 29.8233C261.677 30.0271 261.899 30.252 262.098 30.4903C262.308 30.7421 262.35 31.0643 262.163 31.3251C262.011 31.5365 261.753 31.6714 261.545 31.8392L261.543 31.8407Z" fill="#929BAA"/>
<path d="M270.461 39.1609C270.715 39.2748 270.905 39.3183 271.041 39.4292C271.272 39.6165 271.484 39.8339 271.68 40.0587C271.964 40.3854 271.938 40.8531 271.647 41.1438C271.356 41.4346 270.887 41.4601 270.562 41.1753C270.328 40.97 270.106 40.7481 269.906 40.5098C269.696 40.258 269.654 39.9358 269.843 39.675C269.996 39.4637 270.253 39.3288 270.461 39.1609Z" fill="#929BAA"/>
</g>
<g filter="url(#filter6_i_1095_9296)">
<path d="M280.391 40C280.083 40 279.845 39.9207 279.677 39.762C279.519 39.594 279.439 39.356 279.439 39.048V31.082C279.439 30.774 279.519 30.5407 279.677 30.382C279.845 30.214 280.083 30.13 280.391 30.13H283.107C284.759 30.13 286.033 30.5547 286.929 31.404C287.835 32.2533 288.287 33.4713 288.287 35.058C288.287 35.8513 288.171 36.556 287.937 37.172C287.713 37.7787 287.377 38.292 286.929 38.712C286.491 39.132 285.949 39.454 285.305 39.678C284.671 39.8927 283.938 40 283.107 40H280.391ZM281.231 38.516H282.995C283.574 38.516 284.073 38.446 284.493 38.306C284.923 38.1567 285.277 37.942 285.557 37.662C285.847 37.3727 286.061 37.0133 286.201 36.584C286.341 36.1453 286.411 35.6367 286.411 35.058C286.411 33.9007 286.127 33.0373 285.557 32.468C284.988 31.8987 284.134 31.614 282.995 31.614H281.231V38.516ZM292.189 40.14C291.695 40.14 291.251 40.0467 290.859 39.86C290.477 39.664 290.173 39.4027 289.949 39.076C289.735 38.7493 289.627 38.3807 289.627 37.97C289.627 37.466 289.758 37.0693 290.019 36.78C290.281 36.4813 290.705 36.2667 291.293 36.136C291.881 36.0053 292.67 35.94 293.659 35.94H294.359V36.948H293.673C293.095 36.948 292.633 36.976 292.287 37.032C291.942 37.088 291.695 37.186 291.545 37.326C291.405 37.4567 291.335 37.6433 291.335 37.886C291.335 38.194 291.443 38.446 291.657 38.642C291.872 38.838 292.171 38.936 292.553 38.936C292.861 38.936 293.132 38.866 293.365 38.726C293.608 38.5767 293.799 38.376 293.939 38.124C294.079 37.872 294.149 37.5827 294.149 37.256V35.646C294.149 35.1793 294.047 34.8433 293.841 34.638C293.636 34.4327 293.291 34.33 292.805 34.33C292.535 34.33 292.241 34.3627 291.923 34.428C291.615 34.4933 291.289 34.6053 290.943 34.764C290.766 34.848 290.607 34.8713 290.467 34.834C290.337 34.7967 290.234 34.722 290.159 34.61C290.085 34.4887 290.047 34.358 290.047 34.218C290.047 34.078 290.085 33.9427 290.159 33.812C290.234 33.672 290.36 33.5693 290.537 33.504C290.967 33.3267 291.377 33.2007 291.769 33.126C292.171 33.0513 292.535 33.014 292.861 33.014C293.533 33.014 294.084 33.1167 294.513 33.322C294.952 33.5273 295.279 33.84 295.493 34.26C295.708 34.6707 295.815 35.2027 295.815 35.856V39.216C295.815 39.5053 295.745 39.7293 295.605 39.888C295.465 40.0373 295.265 40.112 295.003 40.112C294.742 40.112 294.537 40.0373 294.387 39.888C294.247 39.7293 294.177 39.5053 294.177 39.216V38.544H294.289C294.224 38.8707 294.093 39.1553 293.897 39.398C293.711 39.6313 293.473 39.8133 293.183 39.944C292.894 40.0747 292.563 40.14 292.189 40.14ZM299.259 42.632C299.054 42.632 298.886 42.576 298.755 42.464C298.625 42.3613 298.545 42.2213 298.517 42.044C298.499 41.8667 298.531 41.68 298.615 41.484L299.567 39.37V40.098L297.019 34.204C296.935 33.9987 296.907 33.8073 296.935 33.63C296.963 33.4527 297.047 33.3127 297.187 33.21C297.337 33.098 297.537 33.042 297.789 33.042C298.004 33.042 298.177 33.0933 298.307 33.196C298.438 33.2893 298.555 33.4713 298.657 33.742L300.547 38.46H300.127L302.059 33.728C302.162 33.4667 302.283 33.2893 302.423 33.196C302.563 33.0933 302.75 33.042 302.983 33.042C303.189 33.042 303.352 33.098 303.473 33.21C303.595 33.3127 303.669 33.4527 303.697 33.63C303.725 33.798 303.693 33.9847 303.599 34.19L300.197 41.96C300.076 42.2213 299.945 42.3987 299.805 42.492C299.665 42.5853 299.483 42.632 299.259 42.632ZM308.959 40.112C308.735 40.112 308.553 40.0607 308.413 39.958C308.283 39.8553 308.203 39.72 308.175 39.552C308.147 39.3747 308.18 39.1787 308.273 38.964L311.969 30.774C312.091 30.5033 312.235 30.312 312.403 30.2C312.581 30.0787 312.781 30.018 313.005 30.018C313.22 30.018 313.411 30.0787 313.579 30.2C313.757 30.312 313.906 30.5033 314.027 30.774L317.737 38.964C317.84 39.1787 317.877 39.3747 317.849 39.552C317.821 39.7293 317.742 39.8693 317.611 39.972C317.481 40.0653 317.308 40.112 317.093 40.112C316.832 40.112 316.627 40.0513 316.477 39.93C316.337 39.7993 316.211 39.6033 316.099 39.342L315.189 37.228L315.945 37.718H310.037L310.793 37.228L309.897 39.342C309.776 39.6127 309.65 39.8087 309.519 39.93C309.389 40.0513 309.202 40.112 308.959 40.112ZM312.977 32.076L311.017 36.738L310.653 36.29H315.329L314.979 36.738L313.005 32.076H312.977ZM319.979 40.112C319.699 40.112 319.485 40.0373 319.335 39.888C319.186 39.7293 319.111 39.5053 319.111 39.216V33.924C319.111 33.6347 319.186 33.4153 319.335 33.266C319.485 33.1167 319.695 33.042 319.965 33.042C320.236 33.042 320.446 33.1167 320.595 33.266C320.745 33.4153 320.819 33.6347 320.819 33.924V34.876L320.665 34.526C320.871 34.0313 321.188 33.658 321.617 33.406C322.056 33.1447 322.551 33.014 323.101 33.014C323.652 33.014 324.105 33.1167 324.459 33.322C324.814 33.5273 325.08 33.84 325.257 34.26C325.435 34.6707 325.523 35.1933 325.523 35.828V39.216C325.523 39.5053 325.449 39.7293 325.299 39.888C325.15 40.0373 324.935 40.112 324.655 40.112C324.375 40.112 324.156 40.0373 323.997 39.888C323.848 39.7293 323.773 39.5053 323.773 39.216V35.912C323.773 35.38 323.671 34.9927 323.465 34.75C323.269 34.5073 322.961 34.386 322.541 34.386C322.028 34.386 321.617 34.5493 321.309 34.876C321.011 35.1933 320.861 35.618 320.861 36.15V39.216C320.861 39.8133 320.567 40.112 319.979 40.112ZM329.933 40.14C329.335 40.14 328.808 39.9953 328.351 39.706C327.903 39.4167 327.553 39.006 327.301 38.474C327.049 37.9327 326.923 37.298 326.923 36.57C326.923 35.8327 327.049 35.2027 327.301 34.68C327.553 34.148 327.903 33.7373 328.351 33.448C328.808 33.1587 329.335 33.014 329.933 33.014C330.502 33.014 330.997 33.154 331.417 33.434C331.846 33.714 332.135 34.0827 332.285 34.54H332.131V30.9C332.131 30.6107 332.205 30.3913 332.355 30.242C332.504 30.0927 332.719 30.018 332.999 30.018C333.279 30.018 333.493 30.0927 333.643 30.242C333.801 30.3913 333.881 30.6107 333.881 30.9V39.216C333.881 39.5053 333.806 39.7293 333.657 39.888C333.507 40.0373 333.293 40.112 333.013 40.112C332.733 40.112 332.518 40.0373 332.369 39.888C332.219 39.7293 332.145 39.5053 332.145 39.216V38.124L332.299 38.544C332.159 39.0293 331.874 39.4167 331.445 39.706C331.015 39.9953 330.511 40.14 329.933 40.14ZM330.423 38.81C330.768 38.81 331.071 38.726 331.333 38.558C331.594 38.39 331.795 38.1427 331.935 37.816C332.084 37.48 332.159 37.0647 332.159 36.57C332.159 35.8233 332 35.268 331.683 34.904C331.365 34.5307 330.945 34.344 330.423 34.344C330.077 34.344 329.774 34.428 329.513 34.596C329.251 34.7547 329.046 35.002 328.897 35.338C328.757 35.6647 328.687 36.0753 328.687 36.57C328.687 37.3073 328.845 37.8673 329.163 38.25C329.48 38.6233 329.9 38.81 330.423 38.81ZM340.504 40.112C340.233 40.112 340.023 40.0373 339.874 39.888C339.734 39.7387 339.664 39.524 339.664 39.244V30.914C339.664 30.6247 339.734 30.4053 339.874 30.256C340.023 30.0973 340.215 30.018 340.448 30.018C340.663 30.018 340.821 30.06 340.924 30.144C341.036 30.2187 341.167 30.3493 341.316 30.536L346.678 37.494H346.314V30.872C346.314 30.6013 346.384 30.3913 346.524 30.242C346.673 30.0927 346.883 30.018 347.154 30.018C347.425 30.018 347.63 30.0927 347.77 30.242C347.91 30.3913 347.98 30.6013 347.98 30.872V39.272C347.98 39.5333 347.915 39.7387 347.784 39.888C347.653 40.0373 347.476 40.112 347.252 40.112C347.037 40.112 346.865 40.07 346.734 39.986C346.613 39.902 346.477 39.7667 346.328 39.58L340.98 32.622H341.33V39.244C341.33 39.524 341.26 39.7387 341.12 39.888C340.98 40.0373 340.775 40.112 340.504 40.112ZM350.837 40.098C350.557 40.098 350.342 40.014 350.193 39.846C350.043 39.678 349.969 39.4447 349.969 39.146V34.008C349.969 33.7 350.043 33.4667 350.193 33.308C350.342 33.14 350.557 33.056 350.837 33.056C351.117 33.056 351.331 33.14 351.481 33.308C351.639 33.4667 351.719 33.7 351.719 34.008V39.146C351.719 39.4447 351.644 39.678 351.495 39.846C351.345 40.014 351.126 40.098 350.837 40.098ZM350.837 31.754C350.51 31.754 350.253 31.6747 350.067 31.516C349.889 31.348 349.801 31.1193 349.801 30.83C349.801 30.5313 349.889 30.3027 350.067 30.144C350.253 29.9853 350.51 29.906 350.837 29.906C351.173 29.906 351.429 29.9853 351.607 30.144C351.784 30.3027 351.873 30.5313 351.873 30.83C351.873 31.1193 351.784 31.348 351.607 31.516C351.429 31.6747 351.173 31.754 350.837 31.754ZM356.729 42.66C356.225 42.66 355.735 42.6133 355.259 42.52C354.792 42.4267 354.368 42.282 353.985 42.086C353.808 41.9927 353.686 41.8807 353.621 41.75C353.565 41.6193 353.546 41.484 353.565 41.344C353.593 41.2133 353.649 41.0967 353.733 40.994C353.826 40.8913 353.938 40.8213 354.069 40.784C354.2 40.7467 354.335 40.7653 354.475 40.84C354.886 41.0453 355.273 41.176 355.637 41.232C356.01 41.2973 356.328 41.33 356.589 41.33C357.214 41.33 357.681 41.176 357.989 40.868C358.306 40.5693 358.465 40.1213 358.465 39.524V38.264H358.591C358.451 38.74 358.157 39.1227 357.709 39.412C357.27 39.692 356.771 39.832 356.211 39.832C355.595 39.832 355.058 39.692 354.601 39.412C354.144 39.1227 353.789 38.7213 353.537 38.208C353.285 37.6947 353.159 37.0973 353.159 36.416C353.159 35.9027 353.229 35.4407 353.369 35.03C353.518 34.61 353.724 34.2507 353.985 33.952C354.256 33.6533 354.578 33.4247 354.951 33.266C355.334 33.098 355.754 33.014 356.211 33.014C356.79 33.014 357.294 33.1587 357.723 33.448C358.162 33.728 358.446 34.1013 358.577 34.568L358.437 34.918V33.924C358.437 33.6347 358.512 33.4153 358.661 33.266C358.82 33.1167 359.034 33.042 359.305 33.042C359.585 33.042 359.8 33.1167 359.949 33.266C360.098 33.4153 360.173 33.6347 360.173 33.924V39.314C360.173 40.4247 359.879 41.26 359.291 41.82C358.703 42.38 357.849 42.66 356.729 42.66ZM356.687 38.502C357.051 38.502 357.364 38.418 357.625 38.25C357.886 38.082 358.087 37.844 358.227 37.536C358.376 37.2187 358.451 36.8453 358.451 36.416C358.451 35.772 358.292 35.268 357.975 34.904C357.658 34.5307 357.228 34.344 356.687 34.344C356.323 34.344 356.01 34.428 355.749 34.596C355.488 34.764 355.282 35.002 355.133 35.31C354.993 35.618 354.923 35.9867 354.923 36.416C354.923 37.06 355.082 37.5687 355.399 37.942C355.716 38.3153 356.146 38.502 356.687 38.502ZM362.854 40.112C362.574 40.112 362.36 40.0373 362.21 39.888C362.061 39.7293 361.986 39.5053 361.986 39.216V30.9C361.986 30.6107 362.061 30.3913 362.21 30.242C362.36 30.0927 362.574 30.018 362.854 30.018C363.134 30.018 363.349 30.0927 363.498 30.242C363.657 30.3913 363.736 30.6107 363.736 30.9V34.526H363.54C363.746 34.0313 364.063 33.658 364.492 33.406C364.931 33.1447 365.426 33.014 365.976 33.014C366.527 33.014 366.98 33.1167 367.334 33.322C367.689 33.5273 367.955 33.84 368.132 34.26C368.31 34.6707 368.398 35.1933 368.398 35.828V39.216C368.398 39.5053 368.324 39.7293 368.174 39.888C368.025 40.0373 367.81 40.112 367.53 40.112C367.25 40.112 367.031 40.0373 366.872 39.888C366.723 39.7293 366.648 39.5053 366.648 39.216V35.912C366.648 35.38 366.546 34.9927 366.34 34.75C366.144 34.5073 365.836 34.386 365.416 34.386C364.903 34.386 364.492 34.5493 364.184 34.876C363.886 35.1933 363.736 35.618 363.736 36.15V39.216C363.736 39.8133 363.442 40.112 362.854 40.112ZM373.312 40.14C372.705 40.14 372.196 40.0373 371.786 39.832C371.384 39.6267 371.086 39.328 370.89 38.936C370.694 38.5347 370.596 38.04 370.596 37.452V34.47H369.868C369.644 34.47 369.471 34.414 369.35 34.302C369.228 34.1807 369.168 34.0173 369.168 33.812C369.168 33.5973 369.228 33.434 369.35 33.322C369.471 33.21 369.644 33.154 369.868 33.154H370.596V31.88C370.596 31.5907 370.67 31.3713 370.82 31.222C370.978 31.0727 371.198 30.998 371.478 30.998C371.758 30.998 371.972 31.0727 372.122 31.222C372.271 31.3713 372.346 31.5907 372.346 31.88V33.154H373.83C374.054 33.154 374.226 33.21 374.348 33.322C374.469 33.434 374.53 33.5973 374.53 33.812C374.53 34.0173 374.469 34.1807 374.348 34.302C374.226 34.414 374.054 34.47 373.83 34.47H372.346V37.354C372.346 37.802 372.444 38.138 372.64 38.362C372.836 38.586 373.153 38.698 373.592 38.698C373.75 38.698 373.89 38.684 374.012 38.656C374.133 38.628 374.24 38.6093 374.334 38.6C374.446 38.5907 374.539 38.628 374.614 38.712C374.688 38.7867 374.726 38.9453 374.726 39.188C374.726 39.3747 374.693 39.5427 374.628 39.692C374.572 39.832 374.464 39.93 374.306 39.986C374.184 40.0233 374.026 40.056 373.83 40.084C373.634 40.1213 373.461 40.14 373.312 40.14Z" fill="#929BAA"/>
</g>
</g>
</g>
<defs>
<filter id="filter0_i_1095_9296" x="0" y="10" width="393" height="53" filterUnits="userSpaceOnUse" color-interpolation-filters="sRGB">
<feFlood flood-opacity="0" result="BackgroundImageFix"/>
<feBlend mode="normal" in="SourceGraphic" in2="BackgroundImageFix" result="shape"/>
<feColorMatrix in="SourceAlpha" type="matrix" values="0 0 0 0 0 0 0 0 0 0 0 0 0 0 0 0 0 0 127 0" result="hardAlpha"/>
<feOffset dy="2"/>
<feGaussianBlur stdDeviation="2"/>
<feComposite in2="hardAlpha" operator="arithmetic" k2="-1" k3="1"/>
<feColorMatrix type="matrix" values="0 0 0 0 0 0 0 0 0 0 0 0 0 0 0 0 0 0 0.05 0"/>
<feBlend mode="normal" in2="shape" result="effect1_innerShadow_1095_9296"/>
</filter>
<filter id="filter1_dd_1095_9296" x="-10" y="0" width="129" height="65" filterUnits="userSpaceOnUse" color-interpolation-filters="sRGB">
<feFlood flood-opacity="0" result="BackgroundImageFix"/>
<feColorMatrix in="SourceAlpha" type="matrix" values="0 0 0 0 0 0 0 0 0 0 0 0 0 0 0 0 0 0 127 0" result="hardAlpha"/>
<feOffset dy="4"/>
<feGaussianBlur stdDeviation="2"/>
<feComposite in2="hardAlpha" operator="out"/>
<feColorMatrix type="matrix" values="0 0 0 0 0 0 0 0 0 0 0 0 0 0 0 0 0 0 0.05 0"/>
<feBlend mode="normal" in2="BackgroundImageFix" result="effect1_dropShadow_1095_9296"/>
<feColorMatrix in="SourceAlpha" type="matrix" values="0 0 0 0 0 0 0 0 0 0 0 0 0 0 0 0 0 0 127 0" result="hardAlpha"/>
<feOffset dx="-4" dy="-4"/>
<feGaussianBlur stdDeviation="5"/>
<feComposite in2="hardAlpha" operator="out"/>
<feColorMatrix type="matrix" values="0 0 0 0 1 0 0 0 0 1 0 0 0 0 1 0 0 0 0.61 0"/>
<feBlend mode="normal" in2="effect1_dropShadow_1095_9296" result="effect2_dropShadow_1095_9296"/>
<feBlend mode="normal" in="SourceGraphic" in2="effect2_dropShadow_1095_9296" result="shape"/>
</filter>
<filter id="filter2_i_1095_9296" x="39.5273" y="29.906" width="59.1104" height="14.7261" filterUnits="userSpaceOnUse" color-interpolation-filters="sRGB">
<feFlood flood-opacity="0" result="BackgroundImageFix"/>
<feBlend mode="normal" in="SourceGraphic" in2="BackgroundImageFix" result="shape"/>
<feColorMatrix in="SourceAlpha" type="matrix" values="0 0 0 0 0 0 0 0 0 0 0 0 0 0 0 0 0 0 127 0" result="hardAlpha"/>
<feOffset dy="2"/>
<feGaussianBlur stdDeviation="1"/>
<feComposite in2="hardAlpha" operator="arithmetic" k2="-1" k3="1"/>
<feColorMatrix type="matrix" values="0 0 0 0 0 0 0 0 0 0 0 0 0 0 0 0 0 0 0.05 0"/>
<feBlend mode="normal" in2="shape" result="effect1_innerShadow_1095_9296"/>
</filter>
<filter id="filter3_dd_1095_9296" x="103" y="0" width="143" height="65" filterUnits="userSpaceOnUse" color-interpolation-filters="sRGB">
<feFlood flood-opacity="0" result="BackgroundImageFix"/>
<feColorMatrix in="SourceAlpha" type="matrix" values="0 0 0 0 0 0 0 0 0 0 0 0 0 0 0 0 0 0 127 0" result="hardAlpha"/>
<feOffset dy="4"/>
<feGaussianBlur stdDeviation="2"/>
<feComposite in2="hardAlpha" operator="out"/>
<feColorMatrix type="matrix" values="0 0 0 0 0 0 0 0 0 0 0 0 0 0 0 0 0 0 0.05 0"/>
<feBlend mode="normal" in2="BackgroundImageFix" result="effect1_dropShadow_1095_9296"/>
<feColorMatrix in="SourceAlpha" type="matrix" values="0 0 0 0 0 0 0 0 0 0 0 0 0 0 0 0 0 0 127 0" result="hardAlpha"/>
<feOffset dx="-4" dy="-4"/>
<feGaussianBlur stdDeviation="5"/>
<feComposite in2="hardAlpha" operator="out"/>
<feColorMatrix type="matrix" values="0 0 0 0 1 0 0 0 0 1 0 0 0 0 1 0 0 0 0.61 0"/>
<feBlend mode="normal" in2="effect1_dropShadow_1095_9296" result="effect2_dropShadow_1095_9296"/>
<feBlend mode="normal" in="SourceGraphic" in2="effect2_dropShadow_1095_9296" result="shape"/>
</filter>
<filter id="filter4_i_1095_9296" x="154.312" y="29.906" width="69.542" height="14.7539" filterUnits="userSpaceOnUse" color-interpolation-filters="sRGB">
<feFlood flood-opacity="0" result="BackgroundImageFix"/>
<feBlend mode="normal" in="SourceGraphic" in2="BackgroundImageFix" result="shape"/>
<feColorMatrix in="SourceAlpha" type="matrix" values="0 0 0 0 0 0 0 0 0 0 0 0 0 0 0 0 0 0 127 0" result="hardAlpha"/>
<feOffset dy="2"/>
<feGaussianBlur stdDeviation="1"/>
<feComposite in2="hardAlpha" operator="arithmetic" k2="-1" k3="1"/>
<feColorMatrix type="matrix" values="0 0 0 0 0 0 0 0 0 0 0 0 0 0 0 0 0 0 0.05 0"/>
<feBlend mode="normal" in2="shape" result="effect1_innerShadow_1095_9296"/>
</filter>
<filter id="filter5_dd_1095_9296" x="230" y="0" width="165" height="65" filterUnits="userSpaceOnUse" color-interpolation-filters="sRGB">
<feFlood flood-opacity="0" result="BackgroundImageFix"/>
<feColorMatrix in="SourceAlpha" type="matrix" values="0 0 0 0 0 0 0 0 0 0 0 0 0 0 0 0 0 0 127 0" result="hardAlpha"/>
<feOffset dy="4"/>
<feGaussianBlur stdDeviation="2"/>
<feComposite in2="hardAlpha" operator="out"/>
<feColorMatrix type="matrix" values="0 0 0 0 0 0 0 0 0 0 0 0 0 0 0 0 0 0 0.05 0"/>
<feBlend mode="normal" in2="BackgroundImageFix" result="effect1_dropShadow_1095_9296"/>
<feColorMatrix in="SourceAlpha" type="matrix" values="0 0 0 0 0 0 0 0 0 0 0 0 0 0 0 0 0 0 127 0" result="hardAlpha"/>
<feOffset dx="-4" dy="-4"/>
<feGaussianBlur stdDeviation="5"/>
<feComposite in2="hardAlpha" operator="out"/>
<feColorMatrix type="matrix" values="0 0 0 0 1 0 0 0 0 1 0 0 0 0 1 0 0 0 0.61 0"/>
<feBlend mode="normal" in2="effect1_dropShadow_1095_9296" result="effect2_dropShadow_1095_9296"/>
<feBlend mode="normal" in="SourceGraphic" in2="effect2_dropShadow_1095_9296" result="shape"/>
</filter>
<filter id="filter6_i_1095_9296" x="279.439" y="29.906" width="95.2861" height="14.7539" filterUnits="userSpaceOnUse" color-interpolation-filters="sRGB">
<feFlood flood-opacity="0" result="BackgroundImageFix"/>
<feBlend mode="normal" in="SourceGraphic" in2="BackgroundImageFix" result="shape"/>
<feColorMatrix in="SourceAlpha" type="matrix" values="0 0 0 0 0 0 0 0 0 0 0 0 0 0 0 0 0 0 127 0" result="hardAlpha"/>
<feOffset dy="2"/>
<feGaussianBlur stdDeviation="1"/>
<feComposite in2="hardAlpha" operator="arithmetic" k2="-1" k3="1"/>
<feColorMatrix type="matrix" values="0 0 0 0 0 0 0 0 0 0 0 0 0 0 0 0 0 0 0.05 0"/>
<feBlend mode="normal" in2="shape" result="effect1_innerShadow_1095_9296"/>
</filter>
<linearGradient id="paint0_linear_1095_9296" x1="185.943" y1="14" x2="185.36" y2="56.9974" gradientUnits="userSpaceOnUse">
<stop offset="0.0412653" stop-color="#64728C" stop-opacity="0.08"/>
<stop offset="1" stop-color="#64728C" stop-opacity="0.18"/>
</linearGradient>
<clipPath id="clip0_1095_9296">
<rect width="16" height="16" fill="white" transform="translate(18 27.5)"/>
</clipPath>
<clipPath id="clip1_1095_9296">
<rect width="16" height="16" fill="white" transform="translate(258 27.5)"/>
</clipPath>
</defs>
</svg>
