<svg width="400" height="361" viewBox="0 0 400 361" fill="none" xmlns="http://www.w3.org/2000/svg">
<g filter="url(#filter0_d_1081_8752)">
<g filter="url(#filter1_d_1081_8752)">
<rect x="50" y="46" width="300" height="261" rx="14" fill="#E8EAEF"/>
<rect x="50.5" y="46.5" width="299" height="260" rx="13.5" stroke="#64728C" stroke-opacity="0.2"/>
<rect x="50" y="46" width="300" height="257" rx="14" fill="white"/>
<rect x="58" y="54" width="284" height="36" rx="10" fill="#F6F7F9"/>
<path d="M70.86 76.12C69.98 76.12 69.224 75.944 68.592 75.592C67.968 75.232 67.488 74.728 67.152 74.08C66.816 73.424 66.648 72.652 66.648 71.764C66.648 71.1 66.744 70.504 66.936 69.976C67.128 69.44 67.404 68.984 67.764 68.608C68.124 68.224 68.564 67.932 69.084 67.732C69.612 67.524 70.204 67.42 70.86 67.42C71.3 67.42 71.732 67.476 72.156 67.588C72.58 67.7 72.952 67.86 73.272 68.068C73.44 68.172 73.552 68.3 73.608 68.452C73.664 68.596 73.676 68.74 73.644 68.884C73.612 69.02 73.544 69.136 73.44 69.232C73.344 69.328 73.22 69.384 73.068 69.4C72.924 69.408 72.764 69.356 72.588 69.244C72.34 69.084 72.072 68.968 71.784 68.896C71.496 68.824 71.204 68.788 70.908 68.788C70.34 68.788 69.86 68.904 69.468 69.136C69.076 69.368 68.78 69.704 68.58 70.144C68.38 70.584 68.28 71.124 68.28 71.764C68.28 72.396 68.38 72.936 68.58 73.384C68.78 73.832 69.076 74.172 69.468 74.404C69.86 74.636 70.34 74.752 70.908 74.752C71.212 74.752 71.512 74.716 71.808 74.644C72.104 74.564 72.384 74.444 72.648 74.284C72.824 74.18 72.98 74.136 73.116 74.152C73.26 74.16 73.38 74.208 73.476 74.296C73.572 74.384 73.636 74.496 73.668 74.632C73.7 74.76 73.692 74.896 73.644 75.04C73.596 75.176 73.5 75.296 73.356 75.4C73.036 75.632 72.652 75.812 72.204 75.94C71.764 76.06 71.316 76.12 70.86 76.12Z" fill="#38455D"/>
<path d="M76.9043 76.108C76.5043 76.108 76.1443 76.032 75.8243 75.88C75.5123 75.72 75.2643 75.504 75.0803 75.232C74.8963 74.96 74.8043 74.656 74.8043 74.32C74.8043 73.888 74.9123 73.548 75.1283 73.3C75.3523 73.052 75.7163 72.876 76.2203 72.772C76.7323 72.668 77.4283 72.616 78.3083 72.616H78.8483V73.252H78.3203C77.6723 73.252 77.1603 73.284 76.7843 73.348C76.4163 73.404 76.1563 73.504 76.0043 73.648C75.8603 73.792 75.7883 73.996 75.7883 74.26C75.7883 74.588 75.9003 74.856 76.1243 75.064C76.3563 75.272 76.6683 75.376 77.0603 75.376C77.3803 75.376 77.6603 75.3 77.9003 75.148C78.1483 74.996 78.3403 74.788 78.4763 74.524C78.6203 74.26 78.6923 73.956 78.6923 73.612V72.244C78.6923 71.748 78.5923 71.392 78.3923 71.176C78.1923 70.952 77.8643 70.84 77.4083 70.84C77.1283 70.84 76.8483 70.876 76.5683 70.948C76.2883 71.02 75.9923 71.136 75.6803 71.296C75.5683 71.352 75.4723 71.372 75.3923 71.356C75.3123 71.332 75.2483 71.288 75.2003 71.224C75.1523 71.16 75.1243 71.088 75.1163 71.008C75.1083 70.92 75.1243 70.836 75.1643 70.756C75.2123 70.676 75.2843 70.612 75.3803 70.564C75.7323 70.388 76.0803 70.26 76.4243 70.18C76.7683 70.1 77.0963 70.06 77.4083 70.06C77.9123 70.06 78.3283 70.144 78.6563 70.312C78.9843 70.472 79.2283 70.72 79.3883 71.056C79.5483 71.384 79.6283 71.808 79.6283 72.328V75.58C79.6283 75.74 79.5883 75.864 79.5083 75.952C79.4363 76.04 79.3283 76.084 79.1843 76.084C79.0323 76.084 78.9163 76.04 78.8363 75.952C78.7563 75.864 78.7163 75.74 78.7163 75.58V74.644H78.8243C78.7603 74.948 78.6363 75.208 78.4523 75.424C78.2763 75.64 78.0563 75.808 77.7923 75.928C77.5283 76.048 77.2323 76.108 76.9043 76.108ZM81.9115 76.084C81.7515 76.084 81.6315 76.04 81.5515 75.952C81.4715 75.864 81.4315 75.74 81.4315 75.58V70.576C81.4315 70.416 81.4715 70.296 81.5515 70.216C81.6315 70.128 81.7475 70.084 81.8995 70.084C82.0515 70.084 82.1675 70.128 82.2475 70.216C82.3355 70.296 82.3795 70.416 82.3795 70.576V71.608L82.2475 71.464C82.4155 71 82.6875 70.652 83.0635 70.42C83.4475 70.18 83.8875 70.06 84.3835 70.06C84.8475 70.06 85.2315 70.144 85.5355 70.312C85.8475 70.48 86.0795 70.736 86.2315 71.08C86.3835 71.416 86.4595 71.844 86.4595 72.364V75.58C86.4595 75.74 86.4155 75.864 86.3275 75.952C86.2475 76.04 86.1315 76.084 85.9795 76.084C85.8195 76.084 85.6955 76.04 85.6075 75.952C85.5275 75.864 85.4875 75.74 85.4875 75.58V72.424C85.4875 71.88 85.3795 71.484 85.1635 71.236C84.9555 70.98 84.6195 70.852 84.1555 70.852C83.6195 70.852 83.1915 71.02 82.8715 71.356C82.5595 71.684 82.4035 72.124 82.4035 72.676V75.58C82.4035 75.916 82.2395 76.084 81.9115 76.084ZM90.0878 76.108C89.6878 76.108 89.3278 76.032 89.0078 75.88C88.6958 75.72 88.4478 75.504 88.2638 75.232C88.0798 74.96 87.9878 74.656 87.9878 74.32C87.9878 73.888 88.0958 73.548 88.3118 73.3C88.5358 73.052 88.8998 72.876 89.4038 72.772C89.9158 72.668 90.6118 72.616 91.4918 72.616H92.0318V73.252H91.5038C90.8558 73.252 90.3438 73.284 89.9678 73.348C89.5998 73.404 89.3398 73.504 89.1878 73.648C89.0438 73.792 88.9718 73.996 88.9718 74.26C88.9718 74.588 89.0838 74.856 89.3078 75.064C89.5398 75.272 89.8518 75.376 90.2438 75.376C90.5638 75.376 90.8438 75.3 91.0838 75.148C91.3318 74.996 91.5238 74.788 91.6598 74.524C91.8038 74.26 91.8758 73.956 91.8758 73.612V72.244C91.8758 71.748 91.7758 71.392 91.5758 71.176C91.3758 70.952 91.0478 70.84 90.5918 70.84C90.3118 70.84 90.0318 70.876 89.7518 70.948C89.4718 71.02 89.1758 71.136 88.8638 71.296C88.7518 71.352 88.6558 71.372 88.5758 71.356C88.4958 71.332 88.4318 71.288 88.3838 71.224C88.3358 71.16 88.3078 71.088 88.2998 71.008C88.2918 70.92 88.3078 70.836 88.3478 70.756C88.3958 70.676 88.4678 70.612 88.5638 70.564C88.9158 70.388 89.2638 70.26 89.6078 70.18C89.9518 70.1 90.2798 70.06 90.5918 70.06C91.0958 70.06 91.5118 70.144 91.8398 70.312C92.1678 70.472 92.4118 70.72 92.5718 71.056C92.7318 71.384 92.8118 71.808 92.8118 72.328V75.58C92.8118 75.74 92.7718 75.864 92.6918 75.952C92.6198 76.04 92.5118 76.084 92.3678 76.084C92.2158 76.084 92.0998 76.04 92.0198 75.952C91.9398 75.864 91.8998 75.74 91.8998 75.58V74.644H92.0078C91.9438 74.948 91.8198 75.208 91.6358 75.424C91.4598 75.64 91.2398 75.808 90.9758 75.928C90.7118 76.048 90.4158 76.108 90.0878 76.108ZM96.8351 76.108C96.3151 76.108 95.8591 75.984 95.4671 75.736C95.0831 75.488 94.7831 75.14 94.5671 74.692C94.3591 74.236 94.2551 73.7 94.2551 73.084C94.2551 72.46 94.3591 71.924 94.5671 71.476C94.7831 71.02 95.0831 70.672 95.4671 70.432C95.8591 70.184 96.3151 70.06 96.8351 70.06C97.3631 70.06 97.8151 70.192 98.1911 70.456C98.5671 70.72 98.8191 71.076 98.9471 71.524H98.8151V67.948C98.8151 67.788 98.8551 67.668 98.9351 67.588C99.0231 67.5 99.1471 67.456 99.3071 67.456C99.4591 67.456 99.5751 67.5 99.6551 67.588C99.7431 67.668 99.7871 67.788 99.7871 67.948V75.58C99.7871 75.74 99.7471 75.864 99.6671 75.952C99.5871 76.04 99.4671 76.084 99.3071 76.084C99.1551 76.084 99.0351 76.04 98.9471 75.952C98.8671 75.864 98.8271 75.74 98.8271 75.58V74.44L98.9591 74.608C98.8311 75.064 98.5751 75.428 98.1911 75.7C97.8151 75.972 97.3631 76.108 96.8351 76.108ZM97.0391 75.328C97.3991 75.328 97.7151 75.24 97.9871 75.064C98.2591 74.888 98.4671 74.632 98.6111 74.296C98.7631 73.96 98.8391 73.556 98.8391 73.084C98.8391 72.356 98.6751 71.8 98.3471 71.416C98.0271 71.032 97.5911 70.84 97.0391 70.84C96.6711 70.84 96.3511 70.928 96.0791 71.104C95.8151 71.272 95.6071 71.524 95.4551 71.86C95.3111 72.188 95.2391 72.596 95.2391 73.084C95.2391 73.804 95.4031 74.36 95.7311 74.752C96.0591 75.136 96.4951 75.328 97.0391 75.328ZM103.447 76.108C103.047 76.108 102.687 76.032 102.367 75.88C102.055 75.72 101.807 75.504 101.623 75.232C101.439 74.96 101.347 74.656 101.347 74.32C101.347 73.888 101.455 73.548 101.671 73.3C101.895 73.052 102.259 72.876 102.763 72.772C103.275 72.668 103.971 72.616 104.851 72.616H105.391V73.252H104.863C104.215 73.252 103.703 73.284 103.327 73.348C102.959 73.404 102.699 73.504 102.547 73.648C102.403 73.792 102.331 73.996 102.331 74.26C102.331 74.588 102.443 74.856 102.667 75.064C102.899 75.272 103.211 75.376 103.603 75.376C103.923 75.376 104.203 75.3 104.443 75.148C104.691 74.996 104.883 74.788 105.019 74.524C105.163 74.26 105.235 73.956 105.235 73.612V72.244C105.235 71.748 105.135 71.392 104.935 71.176C104.735 70.952 104.407 70.84 103.951 70.84C103.671 70.84 103.391 70.876 103.111 70.948C102.831 71.02 102.535 71.136 102.223 71.296C102.111 71.352 102.015 71.372 101.935 71.356C101.855 71.332 101.791 71.288 101.743 71.224C101.695 71.16 101.667 71.088 101.659 71.008C101.651 70.92 101.667 70.836 101.707 70.756C101.755 70.676 101.827 70.612 101.923 70.564C102.275 70.388 102.623 70.26 102.967 70.18C103.311 70.1 103.639 70.06 103.951 70.06C104.455 70.06 104.871 70.144 105.199 70.312C105.527 70.472 105.771 70.72 105.931 71.056C106.091 71.384 106.171 71.808 106.171 72.328V75.58C106.171 75.74 106.131 75.864 106.051 75.952C105.979 76.04 105.871 76.084 105.727 76.084C105.575 76.084 105.459 76.04 105.379 75.952C105.299 75.864 105.259 75.74 105.259 75.58V74.644H105.367C105.303 74.948 105.179 75.208 104.995 75.424C104.819 75.64 104.599 75.808 104.335 75.928C104.071 76.048 103.775 76.108 103.447 76.108ZM114.752 76.108C113.968 76.108 113.284 75.932 112.7 75.58C112.124 75.22 111.676 74.716 111.356 74.068C111.044 73.42 110.888 72.652 110.888 71.764C110.888 71.092 110.976 70.492 111.152 69.964C111.336 69.428 111.596 68.976 111.932 68.608C112.268 68.232 112.672 67.944 113.144 67.744C113.624 67.536 114.16 67.432 114.752 67.432C115.552 67.432 116.24 67.608 116.816 67.96C117.4 68.312 117.848 68.812 118.16 69.46C118.48 70.1 118.64 70.864 118.64 71.752C118.64 72.424 118.548 73.028 118.364 73.564C118.18 74.1 117.92 74.556 117.584 74.932C117.248 75.308 116.84 75.6 116.36 75.808C115.888 76.008 115.352 76.108 114.752 76.108ZM114.752 75.232C115.36 75.232 115.872 75.096 116.288 74.824C116.712 74.552 117.036 74.156 117.26 73.636C117.484 73.116 117.596 72.492 117.596 71.764C117.596 70.668 117.348 69.82 116.852 69.22C116.364 68.612 115.664 68.308 114.752 68.308C114.16 68.308 113.652 68.444 113.228 68.716C112.812 68.988 112.492 69.384 112.268 69.904C112.044 70.416 111.932 71.036 111.932 71.764C111.932 72.852 112.18 73.704 112.676 74.32C113.172 74.928 113.864 75.232 114.752 75.232ZM121.059 76.084C120.907 76.084 120.787 76.04 120.699 75.952C120.619 75.864 120.579 75.74 120.579 75.58V70.924H119.811C119.683 70.924 119.579 70.892 119.499 70.828C119.427 70.756 119.391 70.66 119.391 70.54C119.391 70.42 119.427 70.328 119.499 70.264C119.579 70.2 119.683 70.168 119.811 70.168H120.843L120.579 70.42V69.964C120.579 69.204 120.763 68.624 121.131 68.224C121.507 67.824 122.055 67.592 122.775 67.528L123.123 67.492C123.235 67.484 123.323 67.504 123.387 67.552C123.459 67.6 123.503 67.66 123.519 67.732C123.543 67.804 123.547 67.88 123.531 67.96C123.515 68.032 123.479 68.096 123.423 68.152C123.367 68.208 123.299 68.24 123.219 68.248L122.943 68.272C122.455 68.312 122.099 68.46 121.875 68.716C121.659 68.972 121.551 69.348 121.551 69.844V70.348L121.407 70.168H122.847C122.983 70.168 123.087 70.2 123.159 70.264C123.231 70.328 123.267 70.42 123.267 70.54C123.267 70.66 123.231 70.756 123.159 70.828C123.087 70.892 122.983 70.924 122.847 70.924H121.551V75.58C121.551 75.916 121.387 76.084 121.059 76.084ZM124.868 76.084C124.716 76.084 124.596 76.04 124.508 75.952C124.428 75.864 124.388 75.74 124.388 75.58V70.924H123.62C123.492 70.924 123.388 70.892 123.308 70.828C123.236 70.756 123.2 70.66 123.2 70.54C123.2 70.42 123.236 70.328 123.308 70.264C123.388 70.2 123.492 70.168 123.62 70.168H124.652L124.388 70.42V69.964C124.388 69.212 124.568 68.636 124.928 68.236C125.296 67.836 125.836 67.608 126.548 67.552L126.908 67.516C127.028 67.508 127.124 67.528 127.196 67.576C127.268 67.616 127.312 67.672 127.328 67.744C127.352 67.816 127.356 67.892 127.34 67.972C127.324 68.052 127.288 68.12 127.232 68.176C127.184 68.232 127.124 68.264 127.052 68.272L126.692 68.296C126.22 68.328 125.88 68.476 125.672 68.74C125.464 68.996 125.36 69.364 125.36 69.844V70.348L125.216 70.168H128.48C128.632 70.168 128.748 70.212 128.828 70.3C128.916 70.388 128.96 70.516 128.96 70.684V75.532C128.96 75.7 128.92 75.832 128.84 75.928C128.76 76.016 128.64 76.06 128.48 76.06C128.32 76.06 128.196 76.016 128.108 75.928C128.028 75.832 127.988 75.7 127.988 75.532V70.924H125.36V75.58C125.36 75.916 125.196 76.084 124.868 76.084ZM128.492 68.764C128.292 68.764 128.136 68.712 128.024 68.608C127.92 68.496 127.868 68.348 127.868 68.164C127.868 67.972 127.92 67.828 128.024 67.732C128.136 67.628 128.292 67.576 128.492 67.576C128.692 67.576 128.844 67.628 128.948 67.732C129.06 67.828 129.116 67.972 129.116 68.164C129.116 68.348 129.06 68.496 128.948 68.608C128.844 68.712 128.692 68.764 128.492 68.764ZM133.251 76.108C132.667 76.108 132.163 75.98 131.739 75.724C131.315 75.468 130.987 75.112 130.755 74.656C130.531 74.192 130.419 73.656 130.419 73.048C130.419 72.584 130.483 72.168 130.611 71.8C130.739 71.432 130.927 71.12 131.175 70.864C131.423 70.6 131.719 70.4 132.063 70.264C132.415 70.128 132.811 70.06 133.251 70.06C133.539 70.06 133.839 70.104 134.151 70.192C134.463 70.28 134.747 70.432 135.003 70.648C135.083 70.704 135.135 70.772 135.159 70.852C135.183 70.932 135.183 71.012 135.159 71.092C135.135 71.164 135.095 71.228 135.039 71.284C134.983 71.332 134.911 71.36 134.823 71.368C134.743 71.376 134.659 71.348 134.571 71.284C134.363 71.124 134.151 71.012 133.935 70.948C133.719 70.884 133.511 70.852 133.311 70.852C132.999 70.852 132.727 70.904 132.495 71.008C132.263 71.104 132.067 71.244 131.907 71.428C131.747 71.612 131.623 71.84 131.535 72.112C131.455 72.384 131.415 72.7 131.415 73.06C131.415 73.756 131.579 74.308 131.907 74.716C132.235 75.116 132.703 75.316 133.311 75.316C133.511 75.316 133.715 75.284 133.923 75.22C134.139 75.156 134.355 75.044 134.571 74.884C134.659 74.82 134.743 74.792 134.823 74.8C134.903 74.808 134.971 74.84 135.027 74.896C135.083 74.944 135.119 75.008 135.135 75.088C135.159 75.168 135.159 75.248 135.135 75.328C135.111 75.4 135.059 75.464 134.979 75.52C134.723 75.728 134.443 75.88 134.139 75.976C133.835 76.064 133.539 76.108 133.251 76.108ZM138.845 76.108C138.229 76.108 137.697 75.988 137.249 75.748C136.809 75.5 136.465 75.152 136.217 74.704C135.977 74.256 135.857 73.72 135.857 73.096C135.857 72.488 135.977 71.96 136.217 71.512C136.457 71.056 136.785 70.7 137.201 70.444C137.625 70.188 138.113 70.06 138.665 70.06C139.057 70.06 139.409 70.128 139.721 70.264C140.033 70.392 140.297 70.58 140.513 70.828C140.737 71.076 140.905 71.376 141.017 71.728C141.137 72.08 141.197 72.476 141.197 72.916C141.197 73.044 141.161 73.14 141.089 73.204C141.017 73.26 140.913 73.288 140.777 73.288H136.601V72.652H140.549L140.357 72.808C140.357 72.376 140.293 72.012 140.165 71.716C140.037 71.412 139.849 71.18 139.601 71.02C139.361 70.86 139.057 70.78 138.689 70.78C138.281 70.78 137.933 70.876 137.645 71.068C137.365 71.252 137.153 71.512 137.009 71.848C136.865 72.176 136.793 72.56 136.793 73V73.072C136.793 73.808 136.969 74.368 137.321 74.752C137.681 75.136 138.189 75.328 138.845 75.328C139.117 75.328 139.385 75.292 139.649 75.22C139.921 75.148 140.185 75.028 140.441 74.86C140.553 74.788 140.653 74.756 140.741 74.764C140.837 74.764 140.913 74.792 140.969 74.848C141.025 74.896 141.061 74.96 141.077 75.04C141.101 75.112 141.093 75.192 141.053 75.28C141.021 75.368 140.953 75.444 140.849 75.508C140.585 75.7 140.273 75.848 139.913 75.952C139.553 76.056 139.197 76.108 138.845 76.108Z" fill="#64728C"/>
<rect x="58" y="95" width="284" height="36" rx="10" fill="white"/>
<path d="M70.86 117.12C69.98 117.12 69.224 116.944 68.592 116.592C67.968 116.232 67.488 115.728 67.152 115.08C66.816 114.424 66.648 113.652 66.648 112.764C66.648 112.1 66.744 111.504 66.936 110.976C67.128 110.44 67.404 109.984 67.764 109.608C68.124 109.224 68.564 108.932 69.084 108.732C69.612 108.524 70.204 108.42 70.86 108.42C71.3 108.42 71.732 108.476 72.156 108.588C72.58 108.7 72.952 108.86 73.272 109.068C73.44 109.172 73.552 109.3 73.608 109.452C73.664 109.596 73.676 109.74 73.644 109.884C73.612 110.02 73.544 110.136 73.44 110.232C73.344 110.328 73.22 110.384 73.068 110.4C72.924 110.408 72.764 110.356 72.588 110.244C72.34 110.084 72.072 109.968 71.784 109.896C71.496 109.824 71.204 109.788 70.908 109.788C70.34 109.788 69.86 109.904 69.468 110.136C69.076 110.368 68.78 110.704 68.58 111.144C68.38 111.584 68.28 112.124 68.28 112.764C68.28 113.396 68.38 113.936 68.58 114.384C68.78 114.832 69.076 115.172 69.468 115.404C69.86 115.636 70.34 115.752 70.908 115.752C71.212 115.752 71.512 115.716 71.808 115.644C72.104 115.564 72.384 115.444 72.648 115.284C72.824 115.18 72.98 115.136 73.116 115.152C73.26 115.16 73.38 115.208 73.476 115.296C73.572 115.384 73.636 115.496 73.668 115.632C73.7 115.76 73.692 115.896 73.644 116.04C73.596 116.176 73.5 116.296 73.356 116.4C73.036 116.632 72.652 116.812 72.204 116.94C71.764 117.06 71.316 117.12 70.86 117.12Z" fill="#38455D"/>
<path d="M77.4923 117.108C76.9243 117.108 76.4323 116.984 76.0163 116.736C75.6003 116.488 75.2763 116.14 75.0443 115.692C74.8203 115.236 74.7083 114.7 74.7083 114.084C74.7083 113.62 74.7723 113.204 74.9003 112.836C75.0283 112.46 75.2163 112.14 75.4643 111.876C75.7123 111.612 76.0043 111.412 76.3403 111.276C76.6843 111.132 77.0683 111.06 77.4923 111.06C78.0603 111.06 78.5523 111.184 78.9683 111.432C79.3843 111.68 79.7043 112.032 79.9283 112.488C80.1603 112.936 80.2763 113.468 80.2763 114.084C80.2763 114.548 80.2123 114.964 80.0843 115.332C79.9563 115.7 79.7683 116.02 79.5203 116.292C79.2723 116.556 78.9763 116.76 78.6323 116.904C78.2963 117.04 77.9163 117.108 77.4923 117.108ZM77.4923 116.328C77.8523 116.328 78.1683 116.24 78.4403 116.064C78.7123 115.888 78.9203 115.632 79.0643 115.296C79.2163 114.96 79.2923 114.556 79.2923 114.084C79.2923 113.356 79.1283 112.8 78.8003 112.416C78.4803 112.032 78.0443 111.84 77.4923 111.84C77.1243 111.84 76.8043 111.928 76.5323 112.104C76.2683 112.272 76.0603 112.524 75.9083 112.86C75.7643 113.188 75.6923 113.596 75.6923 114.084C75.6923 114.804 75.8563 115.36 76.1843 115.752C76.5123 116.136 76.9483 116.328 77.4923 116.328ZM82.2162 117.084C82.0562 117.084 81.9362 117.04 81.8562 116.952C81.7762 116.864 81.7362 116.74 81.7362 116.58V111.576C81.7362 111.416 81.7762 111.296 81.8562 111.216C81.9362 111.128 82.0522 111.084 82.2042 111.084C82.3562 111.084 82.4722 111.128 82.5522 111.216C82.6402 111.296 82.6842 111.416 82.6842 111.576V112.608L82.5522 112.464C82.7202 112 82.9922 111.652 83.3682 111.42C83.7522 111.18 84.1922 111.06 84.6882 111.06C85.1522 111.06 85.5362 111.144 85.8402 111.312C86.1522 111.48 86.3842 111.736 86.5362 112.08C86.6882 112.416 86.7642 112.844 86.7642 113.364V116.58C86.7642 116.74 86.7202 116.864 86.6322 116.952C86.5522 117.04 86.4362 117.084 86.2842 117.084C86.1242 117.084 86.0002 117.04 85.9122 116.952C85.8322 116.864 85.7922 116.74 85.7922 116.58V113.424C85.7922 112.88 85.6842 112.484 85.4682 112.236C85.2602 111.98 84.9242 111.852 84.4602 111.852C83.9242 111.852 83.4962 112.02 83.1762 112.356C82.8642 112.684 82.7082 113.124 82.7082 113.676V116.58C82.7082 116.916 82.5442 117.084 82.2162 117.084ZM90.8965 117.108C90.4405 117.108 90.0565 117.028 89.7445 116.868C89.4405 116.7 89.2125 116.46 89.0605 116.148C88.9085 115.828 88.8325 115.44 88.8325 114.984V111.924H88.0285C87.8925 111.924 87.7885 111.892 87.7165 111.828C87.6445 111.756 87.6085 111.66 87.6085 111.54C87.6085 111.42 87.6445 111.328 87.7165 111.264C87.7885 111.2 87.8925 111.168 88.0285 111.168H88.8325V109.788C88.8325 109.628 88.8765 109.508 88.9645 109.428C89.0525 109.34 89.1725 109.296 89.3245 109.296C89.4765 109.296 89.5925 109.34 89.6725 109.428C89.7605 109.508 89.8045 109.628 89.8045 109.788V111.168H91.3165C91.4525 111.168 91.5565 111.2 91.6285 111.264C91.7005 111.328 91.7365 111.42 91.7365 111.54C91.7365 111.66 91.7005 111.756 91.6285 111.828C91.5565 111.892 91.4525 111.924 91.3165 111.924H89.8045V114.888C89.8045 115.344 89.9005 115.692 90.0925 115.932C90.2845 116.164 90.5965 116.28 91.0285 116.28C91.1805 116.28 91.3085 116.264 91.4125 116.232C91.5245 116.2 91.6165 116.184 91.6885 116.184C91.7605 116.176 91.8205 116.2 91.8685 116.256C91.9165 116.312 91.9405 116.408 91.9405 116.544C91.9405 116.64 91.9205 116.728 91.8805 116.808C91.8485 116.888 91.7885 116.944 91.7005 116.976C91.6045 117.008 91.4765 117.036 91.3165 117.06C91.1645 117.092 91.0245 117.108 90.8965 117.108ZM94.5878 117.108C94.1878 117.108 93.8278 117.032 93.5078 116.88C93.1958 116.72 92.9478 116.504 92.7638 116.232C92.5798 115.96 92.4878 115.656 92.4878 115.32C92.4878 114.888 92.5958 114.548 92.8118 114.3C93.0358 114.052 93.3998 113.876 93.9038 113.772C94.4158 113.668 95.1118 113.616 95.9918 113.616H96.5318V114.252H96.0038C95.3558 114.252 94.8438 114.284 94.4678 114.348C94.0998 114.404 93.8398 114.504 93.6878 114.648C93.5438 114.792 93.4718 114.996 93.4718 115.26C93.4718 115.588 93.5838 115.856 93.8078 116.064C94.0398 116.272 94.3518 116.376 94.7438 116.376C95.0638 116.376 95.3438 116.3 95.5838 116.148C95.8318 115.996 96.0238 115.788 96.1598 115.524C96.3038 115.26 96.3758 114.956 96.3758 114.612V113.244C96.3758 112.748 96.2758 112.392 96.0758 112.176C95.8758 111.952 95.5478 111.84 95.0918 111.84C94.8118 111.84 94.5318 111.876 94.2518 111.948C93.9718 112.02 93.6758 112.136 93.3638 112.296C93.2518 112.352 93.1558 112.372 93.0758 112.356C92.9958 112.332 92.9318 112.288 92.8838 112.224C92.8358 112.16 92.8078 112.088 92.7998 112.008C92.7918 111.92 92.8078 111.836 92.8478 111.756C92.8958 111.676 92.9678 111.612 93.0638 111.564C93.4158 111.388 93.7638 111.26 94.1078 111.18C94.4518 111.1 94.7798 111.06 95.0918 111.06C95.5958 111.06 96.0118 111.144 96.3398 111.312C96.6678 111.472 96.9118 111.72 97.0718 112.056C97.2318 112.384 97.3118 112.808 97.3118 113.328V116.58C97.3118 116.74 97.2718 116.864 97.1918 116.952C97.1198 117.04 97.0118 117.084 96.8678 117.084C96.7158 117.084 96.5998 117.04 96.5198 116.952C96.4398 116.864 96.3998 116.74 96.3998 116.58V115.644H96.5078C96.4438 115.948 96.3198 116.208 96.1358 116.424C95.9598 116.64 95.7398 116.808 95.4758 116.928C95.2118 117.048 94.9158 117.108 94.5878 117.108ZM101.587 117.108C101.003 117.108 100.499 116.98 100.075 116.724C99.6511 116.468 99.3231 116.112 99.0911 115.656C98.8671 115.192 98.7551 114.656 98.7551 114.048C98.7551 113.584 98.8191 113.168 98.9471 112.8C99.0751 112.432 99.2631 112.12 99.5111 111.864C99.7591 111.6 100.055 111.4 100.399 111.264C100.751 111.128 101.147 111.06 101.587 111.06C101.875 111.06 102.175 111.104 102.487 111.192C102.799 111.28 103.083 111.432 103.339 111.648C103.419 111.704 103.471 111.772 103.495 111.852C103.519 111.932 103.519 112.012 103.495 112.092C103.471 112.164 103.431 112.228 103.375 112.284C103.319 112.332 103.247 112.36 103.159 112.368C103.079 112.376 102.995 112.348 102.907 112.284C102.699 112.124 102.487 112.012 102.271 111.948C102.055 111.884 101.847 111.852 101.647 111.852C101.335 111.852 101.063 111.904 100.831 112.008C100.599 112.104 100.403 112.244 100.243 112.428C100.083 112.612 99.9591 112.84 99.8711 113.112C99.7911 113.384 99.7511 113.7 99.7511 114.06C99.7511 114.756 99.9151 115.308 100.243 115.716C100.571 116.116 101.039 116.316 101.647 116.316C101.847 116.316 102.051 116.284 102.259 116.22C102.475 116.156 102.691 116.044 102.907 115.884C102.995 115.82 103.079 115.792 103.159 115.8C103.239 115.808 103.307 115.84 103.363 115.896C103.419 115.944 103.455 116.008 103.471 116.088C103.495 116.168 103.495 116.248 103.471 116.328C103.447 116.4 103.395 116.464 103.315 116.52C103.059 116.728 102.779 116.88 102.475 116.976C102.171 117.064 101.875 117.108 101.587 117.108ZM107.01 117.108C106.554 117.108 106.17 117.028 105.858 116.868C105.554 116.7 105.326 116.46 105.174 116.148C105.022 115.828 104.946 115.44 104.946 114.984V111.924H104.142C104.006 111.924 103.902 111.892 103.83 111.828C103.758 111.756 103.722 111.66 103.722 111.54C103.722 111.42 103.758 111.328 103.83 111.264C103.902 111.2 104.006 111.168 104.142 111.168H104.946V109.788C104.946 109.628 104.99 109.508 105.078 109.428C105.166 109.34 105.286 109.296 105.438 109.296C105.59 109.296 105.706 109.34 105.786 109.428C105.874 109.508 105.918 109.628 105.918 109.788V111.168H107.43C107.566 111.168 107.67 111.2 107.742 111.264C107.814 111.328 107.85 111.42 107.85 111.54C107.85 111.66 107.814 111.756 107.742 111.828C107.67 111.892 107.566 111.924 107.43 111.924H105.918V114.888C105.918 115.344 106.014 115.692 106.206 115.932C106.398 116.164 106.71 116.28 107.142 116.28C107.294 116.28 107.422 116.264 107.526 116.232C107.638 116.2 107.73 116.184 107.802 116.184C107.874 116.176 107.934 116.2 107.982 116.256C108.03 116.312 108.054 116.408 108.054 116.544C108.054 116.64 108.034 116.728 107.994 116.808C107.962 116.888 107.902 116.944 107.814 116.976C107.718 117.008 107.59 117.036 107.43 117.06C107.278 117.092 107.138 117.108 107.01 117.108ZM112.583 117.084C112.423 117.084 112.299 117.04 112.211 116.952C112.131 116.856 112.091 116.728 112.091 116.568V108.972C112.091 108.804 112.131 108.676 112.211 108.588C112.299 108.5 112.423 108.456 112.583 108.456C112.743 108.456 112.863 108.5 112.943 108.588C113.031 108.676 113.075 108.804 113.075 108.972V116.568C113.075 116.728 113.035 116.856 112.955 116.952C112.875 117.04 112.751 117.084 112.583 117.084ZM115.521 117.084C115.361 117.084 115.241 117.04 115.161 116.952C115.081 116.864 115.041 116.74 115.041 116.58V111.576C115.041 111.416 115.081 111.296 115.161 111.216C115.241 111.128 115.357 111.084 115.509 111.084C115.661 111.084 115.777 111.128 115.857 111.216C115.945 111.296 115.989 111.416 115.989 111.576V112.608L115.857 112.464C116.025 112 116.297 111.652 116.673 111.42C117.057 111.18 117.497 111.06 117.993 111.06C118.457 111.06 118.841 111.144 119.145 111.312C119.457 111.48 119.689 111.736 119.841 112.08C119.993 112.416 120.069 112.844 120.069 113.364V116.58C120.069 116.74 120.025 116.864 119.937 116.952C119.857 117.04 119.741 117.084 119.589 117.084C119.429 117.084 119.305 117.04 119.217 116.952C119.137 116.864 119.097 116.74 119.097 116.58V113.424C119.097 112.88 118.989 112.484 118.773 112.236C118.565 111.98 118.229 111.852 117.765 111.852C117.229 111.852 116.801 112.02 116.481 112.356C116.169 112.684 116.013 113.124 116.013 113.676V116.58C116.013 116.916 115.849 117.084 115.521 117.084ZM122.653 117.084C122.501 117.084 122.381 117.04 122.293 116.952C122.213 116.864 122.173 116.74 122.173 116.58V111.924H121.405C121.277 111.924 121.173 111.892 121.093 111.828C121.021 111.756 120.985 111.66 120.985 111.54C120.985 111.42 121.021 111.328 121.093 111.264C121.173 111.2 121.277 111.168 121.405 111.168H122.437L122.173 111.42V110.964C122.173 110.204 122.357 109.624 122.725 109.224C123.101 108.824 123.649 108.592 124.369 108.528L124.717 108.492C124.829 108.484 124.917 108.504 124.981 108.552C125.053 108.6 125.097 108.66 125.113 108.732C125.137 108.804 125.141 108.88 125.125 108.96C125.109 109.032 125.073 109.096 125.017 109.152C124.961 109.208 124.893 109.24 124.813 109.248L124.537 109.272C124.049 109.312 123.693 109.46 123.469 109.716C123.253 109.972 123.145 110.348 123.145 110.844V111.348L123.001 111.168H124.441C124.577 111.168 124.681 111.2 124.753 111.264C124.825 111.328 124.861 111.42 124.861 111.54C124.861 111.66 124.825 111.756 124.753 111.828C124.681 111.892 124.577 111.924 124.441 111.924H123.145V116.58C123.145 116.916 122.981 117.084 122.653 117.084ZM128.117 117.108C127.549 117.108 127.057 116.984 126.641 116.736C126.225 116.488 125.901 116.14 125.669 115.692C125.445 115.236 125.333 114.7 125.333 114.084C125.333 113.62 125.397 113.204 125.525 112.836C125.653 112.46 125.841 112.14 126.089 111.876C126.337 111.612 126.629 111.412 126.965 111.276C127.309 111.132 127.693 111.06 128.117 111.06C128.685 111.06 129.177 111.184 129.593 111.432C130.009 111.68 130.329 112.032 130.553 112.488C130.785 112.936 130.901 113.468 130.901 114.084C130.901 114.548 130.837 114.964 130.709 115.332C130.581 115.7 130.393 116.02 130.145 116.292C129.897 116.556 129.601 116.76 129.257 116.904C128.921 117.04 128.541 117.108 128.117 117.108ZM128.117 116.328C128.477 116.328 128.793 116.24 129.065 116.064C129.337 115.888 129.545 115.632 129.689 115.296C129.841 114.96 129.917 114.556 129.917 114.084C129.917 113.356 129.753 112.8 129.425 112.416C129.105 112.032 128.669 111.84 128.117 111.84C127.749 111.84 127.429 111.928 127.157 112.104C126.893 112.272 126.685 112.524 126.533 112.86C126.389 113.188 126.317 113.596 126.317 114.084C126.317 114.804 126.481 115.36 126.809 115.752C127.137 116.136 127.573 116.328 128.117 116.328Z" fill="#64728C"/>
<rect x="58" y="136" width="284" height="36" rx="10" fill="white"/>
<path d="M70.86 158.12C69.98 158.12 69.224 157.944 68.592 157.592C67.968 157.232 67.488 156.728 67.152 156.08C66.816 155.424 66.648 154.652 66.648 153.764C66.648 153.1 66.744 152.504 66.936 151.976C67.128 151.44 67.404 150.984 67.764 150.608C68.124 150.224 68.564 149.932 69.084 149.732C69.612 149.524 70.204 149.42 70.86 149.42C71.3 149.42 71.732 149.476 72.156 149.588C72.58 149.7 72.952 149.86 73.272 150.068C73.44 150.172 73.552 150.3 73.608 150.452C73.664 150.596 73.676 150.74 73.644 150.884C73.612 151.02 73.544 151.136 73.44 151.232C73.344 151.328 73.22 151.384 73.068 151.4C72.924 151.408 72.764 151.356 72.588 151.244C72.34 151.084 72.072 150.968 71.784 150.896C71.496 150.824 71.204 150.788 70.908 150.788C70.34 150.788 69.86 150.904 69.468 151.136C69.076 151.368 68.78 151.704 68.58 152.144C68.38 152.584 68.28 153.124 68.28 153.764C68.28 154.396 68.38 154.936 68.58 155.384C68.78 155.832 69.076 156.172 69.468 156.404C69.86 156.636 70.34 156.752 70.908 156.752C71.212 156.752 71.512 156.716 71.808 156.644C72.104 156.564 72.384 156.444 72.648 156.284C72.824 156.18 72.98 156.136 73.116 156.152C73.26 156.16 73.38 156.208 73.476 156.296C73.572 156.384 73.636 156.496 73.668 156.632C73.7 156.76 73.692 156.896 73.644 157.04C73.596 157.176 73.5 157.296 73.356 157.4C73.036 157.632 72.652 157.812 72.204 157.94C71.764 158.06 71.316 158.12 70.86 158.12Z" fill="#38455D"/>
<path d="M77.4923 158.108C76.9243 158.108 76.4323 157.984 76.0163 157.736C75.6003 157.488 75.2763 157.14 75.0443 156.692C74.8203 156.236 74.7083 155.7 74.7083 155.084C74.7083 154.62 74.7723 154.204 74.9003 153.836C75.0283 153.46 75.2163 153.14 75.4643 152.876C75.7123 152.612 76.0043 152.412 76.3403 152.276C76.6843 152.132 77.0683 152.06 77.4923 152.06C78.0603 152.06 78.5523 152.184 78.9683 152.432C79.3843 152.68 79.7043 153.032 79.9283 153.488C80.1603 153.936 80.2763 154.468 80.2763 155.084C80.2763 155.548 80.2123 155.964 80.0843 156.332C79.9563 156.7 79.7683 157.02 79.5203 157.292C79.2723 157.556 78.9763 157.76 78.6323 157.904C78.2963 158.04 77.9163 158.108 77.4923 158.108ZM77.4923 157.328C77.8523 157.328 78.1683 157.24 78.4403 157.064C78.7123 156.888 78.9203 156.632 79.0643 156.296C79.2163 155.96 79.2923 155.556 79.2923 155.084C79.2923 154.356 79.1283 153.8 78.8003 153.416C78.4803 153.032 78.0443 152.84 77.4923 152.84C77.1243 152.84 76.8043 152.928 76.5323 153.104C76.2683 153.272 76.0603 153.524 75.9083 153.86C75.7643 154.188 75.6923 154.596 75.6923 155.084C75.6923 155.804 75.8563 156.36 76.1843 156.752C76.5123 157.136 76.9483 157.328 77.4923 157.328ZM82.2162 158.084C82.0562 158.084 81.9362 158.04 81.8562 157.952C81.7762 157.864 81.7362 157.74 81.7362 157.58V152.576C81.7362 152.416 81.7762 152.296 81.8562 152.216C81.9362 152.128 82.0522 152.084 82.2042 152.084C82.3562 152.084 82.4722 152.128 82.5522 152.216C82.6402 152.296 82.6842 152.416 82.6842 152.576V153.608L82.5522 153.464C82.7202 153 82.9922 152.652 83.3682 152.42C83.7522 152.18 84.1922 152.06 84.6882 152.06C85.1522 152.06 85.5362 152.144 85.8402 152.312C86.1522 152.48 86.3842 152.736 86.5362 153.08C86.6882 153.416 86.7642 153.844 86.7642 154.364V157.58C86.7642 157.74 86.7202 157.864 86.6322 157.952C86.5522 158.04 86.4362 158.084 86.2842 158.084C86.1242 158.084 86.0002 158.04 85.9122 157.952C85.8322 157.864 85.7922 157.74 85.7922 157.58V154.424C85.7922 153.88 85.6842 153.484 85.4682 153.236C85.2602 152.98 84.9242 152.852 84.4602 152.852C83.9242 152.852 83.4962 153.02 83.1762 153.356C82.8642 153.684 82.7082 154.124 82.7082 154.676V157.58C82.7082 157.916 82.5442 158.084 82.2162 158.084ZM90.8965 158.108C90.4405 158.108 90.0565 158.028 89.7445 157.868C89.4405 157.7 89.2125 157.46 89.0605 157.148C88.9085 156.828 88.8325 156.44 88.8325 155.984V152.924H88.0285C87.8925 152.924 87.7885 152.892 87.7165 152.828C87.6445 152.756 87.6085 152.66 87.6085 152.54C87.6085 152.42 87.6445 152.328 87.7165 152.264C87.7885 152.2 87.8925 152.168 88.0285 152.168H88.8325V150.788C88.8325 150.628 88.8765 150.508 88.9645 150.428C89.0525 150.34 89.1725 150.296 89.3245 150.296C89.4765 150.296 89.5925 150.34 89.6725 150.428C89.7605 150.508 89.8045 150.628 89.8045 150.788V152.168H91.3165C91.4525 152.168 91.5565 152.2 91.6285 152.264C91.7005 152.328 91.7365 152.42 91.7365 152.54C91.7365 152.66 91.7005 152.756 91.6285 152.828C91.5565 152.892 91.4525 152.924 91.3165 152.924H89.8045V155.888C89.8045 156.344 89.9005 156.692 90.0925 156.932C90.2845 157.164 90.5965 157.28 91.0285 157.28C91.1805 157.28 91.3085 157.264 91.4125 157.232C91.5245 157.2 91.6165 157.184 91.6885 157.184C91.7605 157.176 91.8205 157.2 91.8685 157.256C91.9165 157.312 91.9405 157.408 91.9405 157.544C91.9405 157.64 91.9205 157.728 91.8805 157.808C91.8485 157.888 91.7885 157.944 91.7005 157.976C91.6045 158.008 91.4765 158.036 91.3165 158.06C91.1645 158.092 91.0245 158.108 90.8965 158.108ZM94.5878 158.108C94.1878 158.108 93.8278 158.032 93.5078 157.88C93.1958 157.72 92.9478 157.504 92.7638 157.232C92.5798 156.96 92.4878 156.656 92.4878 156.32C92.4878 155.888 92.5958 155.548 92.8118 155.3C93.0358 155.052 93.3998 154.876 93.9038 154.772C94.4158 154.668 95.1118 154.616 95.9918 154.616H96.5318V155.252H96.0038C95.3558 155.252 94.8438 155.284 94.4678 155.348C94.0998 155.404 93.8398 155.504 93.6878 155.648C93.5438 155.792 93.4718 155.996 93.4718 156.26C93.4718 156.588 93.5838 156.856 93.8078 157.064C94.0398 157.272 94.3518 157.376 94.7438 157.376C95.0638 157.376 95.3438 157.3 95.5838 157.148C95.8318 156.996 96.0238 156.788 96.1598 156.524C96.3038 156.26 96.3758 155.956 96.3758 155.612V154.244C96.3758 153.748 96.2758 153.392 96.0758 153.176C95.8758 152.952 95.5478 152.84 95.0918 152.84C94.8118 152.84 94.5318 152.876 94.2518 152.948C93.9718 153.02 93.6758 153.136 93.3638 153.296C93.2518 153.352 93.1558 153.372 93.0758 153.356C92.9958 153.332 92.9318 153.288 92.8838 153.224C92.8358 153.16 92.8078 153.088 92.7998 153.008C92.7918 152.92 92.8078 152.836 92.8478 152.756C92.8958 152.676 92.9678 152.612 93.0638 152.564C93.4158 152.388 93.7638 152.26 94.1078 152.18C94.4518 152.1 94.7798 152.06 95.0918 152.06C95.5958 152.06 96.0118 152.144 96.3398 152.312C96.6678 152.472 96.9118 152.72 97.0718 153.056C97.2318 153.384 97.3118 153.808 97.3118 154.328V157.58C97.3118 157.74 97.2718 157.864 97.1918 157.952C97.1198 158.04 97.0118 158.084 96.8678 158.084C96.7158 158.084 96.5998 158.04 96.5198 157.952C96.4398 157.864 96.3998 157.74 96.3998 157.58V156.644H96.5078C96.4438 156.948 96.3198 157.208 96.1358 157.424C95.9598 157.64 95.7398 157.808 95.4758 157.928C95.2118 158.048 94.9158 158.108 94.5878 158.108ZM101.587 158.108C101.003 158.108 100.499 157.98 100.075 157.724C99.6511 157.468 99.3231 157.112 99.0911 156.656C98.8671 156.192 98.7551 155.656 98.7551 155.048C98.7551 154.584 98.8191 154.168 98.9471 153.8C99.0751 153.432 99.2631 153.12 99.5111 152.864C99.7591 152.6 100.055 152.4 100.399 152.264C100.751 152.128 101.147 152.06 101.587 152.06C101.875 152.06 102.175 152.104 102.487 152.192C102.799 152.28 103.083 152.432 103.339 152.648C103.419 152.704 103.471 152.772 103.495 152.852C103.519 152.932 103.519 153.012 103.495 153.092C103.471 153.164 103.431 153.228 103.375 153.284C103.319 153.332 103.247 153.36 103.159 153.368C103.079 153.376 102.995 153.348 102.907 153.284C102.699 153.124 102.487 153.012 102.271 152.948C102.055 152.884 101.847 152.852 101.647 152.852C101.335 152.852 101.063 152.904 100.831 153.008C100.599 153.104 100.403 153.244 100.243 153.428C100.083 153.612 99.9591 153.84 99.8711 154.112C99.7911 154.384 99.7511 154.7 99.7511 155.06C99.7511 155.756 99.9151 156.308 100.243 156.716C100.571 157.116 101.039 157.316 101.647 157.316C101.847 157.316 102.051 157.284 102.259 157.22C102.475 157.156 102.691 157.044 102.907 156.884C102.995 156.82 103.079 156.792 103.159 156.8C103.239 156.808 103.307 156.84 103.363 156.896C103.419 156.944 103.455 157.008 103.471 157.088C103.495 157.168 103.495 157.248 103.471 157.328C103.447 157.4 103.395 157.464 103.315 157.52C103.059 157.728 102.779 157.88 102.475 157.976C102.171 158.064 101.875 158.108 101.587 158.108ZM107.01 158.108C106.554 158.108 106.17 158.028 105.858 157.868C105.554 157.7 105.326 157.46 105.174 157.148C105.022 156.828 104.946 156.44 104.946 155.984V152.924H104.142C104.006 152.924 103.902 152.892 103.83 152.828C103.758 152.756 103.722 152.66 103.722 152.54C103.722 152.42 103.758 152.328 103.83 152.264C103.902 152.2 104.006 152.168 104.142 152.168H104.946V150.788C104.946 150.628 104.99 150.508 105.078 150.428C105.166 150.34 105.286 150.296 105.438 150.296C105.59 150.296 105.706 150.34 105.786 150.428C105.874 150.508 105.918 150.628 105.918 150.788V152.168H107.43C107.566 152.168 107.67 152.2 107.742 152.264C107.814 152.328 107.85 152.42 107.85 152.54C107.85 152.66 107.814 152.756 107.742 152.828C107.67 152.892 107.566 152.924 107.43 152.924H105.918V155.888C105.918 156.344 106.014 156.692 106.206 156.932C106.398 157.164 106.71 157.28 107.142 157.28C107.294 157.28 107.422 157.264 107.526 157.232C107.638 157.2 107.73 157.184 107.802 157.184C107.874 157.176 107.934 157.2 107.982 157.256C108.03 157.312 108.054 157.408 108.054 157.544C108.054 157.64 108.034 157.728 107.994 157.808C107.962 157.888 107.902 157.944 107.814 157.976C107.718 158.008 107.59 158.036 107.43 158.06C107.278 158.092 107.138 158.108 107.01 158.108ZM112.559 158.084C112.407 158.084 112.291 158.044 112.211 157.964C112.131 157.876 112.091 157.752 112.091 157.592V149.96C112.091 149.8 112.131 149.676 112.211 149.588C112.291 149.5 112.395 149.456 112.523 149.456C112.651 149.456 112.743 149.48 112.799 149.528C112.863 149.568 112.935 149.644 113.015 149.756L118.247 156.728H117.959V149.936C117.959 149.784 117.999 149.668 118.079 149.588C118.159 149.5 118.275 149.456 118.427 149.456C118.571 149.456 118.679 149.5 118.751 149.588C118.831 149.668 118.871 149.784 118.871 149.936V157.604C118.871 157.756 118.835 157.876 118.763 157.964C118.699 158.044 118.603 158.084 118.475 158.084C118.355 158.084 118.259 158.06 118.187 158.012C118.115 157.964 118.039 157.888 117.959 157.784L112.739 150.812H113.015V157.592C113.015 157.752 112.975 157.876 112.895 157.964C112.815 158.044 112.703 158.084 112.559 158.084ZM122.906 158.108C122.434 158.108 122.042 158.024 121.73 157.856C121.426 157.68 121.194 157.42 121.034 157.076C120.882 156.732 120.806 156.304 120.806 155.792V152.576C120.806 152.408 120.846 152.284 120.926 152.204C121.014 152.124 121.134 152.084 121.286 152.084C121.446 152.084 121.566 152.124 121.646 152.204C121.734 152.284 121.778 152.408 121.778 152.576V155.78C121.778 156.292 121.882 156.676 122.09 156.932C122.306 157.18 122.642 157.304 123.098 157.304C123.594 157.304 123.998 157.136 124.31 156.8C124.622 156.464 124.778 156.024 124.778 155.48V152.576C124.778 152.408 124.818 152.284 124.898 152.204C124.986 152.124 125.11 152.084 125.27 152.084C125.422 152.084 125.538 152.124 125.618 152.204C125.706 152.284 125.75 152.408 125.75 152.576V157.58C125.75 157.916 125.594 158.084 125.282 158.084C125.13 158.084 125.01 158.04 124.922 157.952C124.842 157.864 124.802 157.74 124.802 157.58V156.488L124.958 156.656C124.798 157.128 124.534 157.488 124.166 157.736C123.806 157.984 123.386 158.108 122.906 158.108ZM128.072 158.084C127.912 158.084 127.792 158.04 127.712 157.952C127.632 157.864 127.592 157.74 127.592 157.58V152.576C127.592 152.416 127.632 152.296 127.712 152.216C127.792 152.128 127.908 152.084 128.06 152.084C128.212 152.084 128.328 152.128 128.408 152.216C128.496 152.296 128.54 152.416 128.54 152.576V153.632L128.408 153.464C128.56 153.016 128.804 152.672 129.14 152.432C129.484 152.184 129.892 152.06 130.364 152.06C130.86 152.06 131.26 152.18 131.564 152.42C131.876 152.652 132.084 153.016 132.188 153.512H132.008C132.152 153.064 132.408 152.712 132.776 152.456C133.152 152.192 133.588 152.06 134.084 152.06C134.524 152.06 134.884 152.144 135.164 152.312C135.452 152.48 135.668 152.736 135.812 153.08C135.956 153.416 136.028 153.844 136.028 154.364V157.58C136.028 157.74 135.984 157.864 135.896 157.952C135.816 158.04 135.696 158.084 135.536 158.084C135.384 158.084 135.264 158.04 135.176 157.952C135.096 157.864 135.056 157.74 135.056 157.58V154.412C135.056 153.876 134.964 153.484 134.78 153.236C134.596 152.98 134.284 152.852 133.844 152.852C133.364 152.852 132.984 153.02 132.704 153.356C132.432 153.684 132.296 154.132 132.296 154.7V157.58C132.296 157.74 132.252 157.864 132.164 157.952C132.084 158.04 131.964 158.084 131.804 158.084C131.652 158.084 131.532 158.04 131.444 157.952C131.364 157.864 131.324 157.74 131.324 157.58V154.412C131.324 153.876 131.228 153.484 131.036 153.236C130.852 152.98 130.544 152.852 130.112 152.852C129.632 152.852 129.252 153.02 128.972 153.356C128.7 153.684 128.564 154.132 128.564 154.7V157.58C128.564 157.916 128.4 158.084 128.072 158.084ZM140.798 158.108C140.27 158.108 139.814 157.972 139.43 157.7C139.054 157.428 138.802 157.064 138.674 156.608L138.806 156.476V157.58C138.806 157.74 138.762 157.864 138.674 157.952C138.594 158.04 138.478 158.084 138.326 158.084C138.166 158.084 138.046 158.04 137.966 157.952C137.886 157.864 137.846 157.74 137.846 157.58V149.948C137.846 149.788 137.886 149.668 137.966 149.588C138.046 149.5 138.166 149.456 138.326 149.456C138.478 149.456 138.598 149.5 138.686 149.588C138.774 149.668 138.818 149.788 138.818 149.948V153.524H138.674C138.81 153.076 139.066 152.72 139.442 152.456C139.818 152.192 140.27 152.06 140.798 152.06C141.326 152.06 141.782 152.184 142.166 152.432C142.55 152.672 142.846 153.02 143.054 153.476C143.27 153.924 143.378 154.46 143.378 155.084C143.378 155.7 143.27 156.236 143.054 156.692C142.846 157.14 142.546 157.488 142.154 157.736C141.77 157.984 141.318 158.108 140.798 158.108ZM140.594 157.328C140.962 157.328 141.278 157.24 141.542 157.064C141.814 156.888 142.022 156.632 142.166 156.296C142.318 155.96 142.394 155.556 142.394 155.084C142.394 154.356 142.23 153.8 141.902 153.416C141.582 153.032 141.146 152.84 140.594 152.84C140.234 152.84 139.918 152.928 139.646 153.104C139.374 153.272 139.162 153.524 139.01 153.86C138.866 154.188 138.794 154.596 138.794 155.084C138.794 155.804 138.958 156.36 139.286 156.752C139.614 157.136 140.05 157.328 140.594 157.328ZM147.47 158.108C146.854 158.108 146.322 157.988 145.874 157.748C145.434 157.5 145.09 157.152 144.842 156.704C144.602 156.256 144.482 155.72 144.482 155.096C144.482 154.488 144.602 153.96 144.842 153.512C145.082 153.056 145.41 152.7 145.826 152.444C146.25 152.188 146.738 152.06 147.29 152.06C147.682 152.06 148.034 152.128 148.346 152.264C148.658 152.392 148.922 152.58 149.138 152.828C149.362 153.076 149.53 153.376 149.642 153.728C149.762 154.08 149.822 154.476 149.822 154.916C149.822 155.044 149.786 155.14 149.714 155.204C149.642 155.26 149.538 155.288 149.402 155.288H145.226V154.652H149.174L148.982 154.808C148.982 154.376 148.918 154.012 148.79 153.716C148.662 153.412 148.474 153.18 148.226 153.02C147.986 152.86 147.682 152.78 147.314 152.78C146.906 152.78 146.558 152.876 146.27 153.068C145.99 153.252 145.778 153.512 145.634 153.848C145.49 154.176 145.418 154.56 145.418 155V155.072C145.418 155.808 145.594 156.368 145.946 156.752C146.306 157.136 146.814 157.328 147.47 157.328C147.742 157.328 148.01 157.292 148.274 157.22C148.546 157.148 148.81 157.028 149.066 156.86C149.178 156.788 149.278 156.756 149.366 156.764C149.462 156.764 149.538 156.792 149.594 156.848C149.65 156.896 149.686 156.96 149.702 157.04C149.726 157.112 149.718 157.192 149.678 157.28C149.646 157.368 149.578 157.444 149.474 157.508C149.21 157.7 148.898 157.848 148.538 157.952C148.178 158.056 147.822 158.108 147.47 158.108ZM151.72 158.084C151.56 158.084 151.436 158.04 151.348 157.952C151.268 157.864 151.228 157.74 151.228 157.58V152.576C151.228 152.416 151.268 152.296 151.348 152.216C151.428 152.128 151.544 152.084 151.696 152.084C151.848 152.084 151.964 152.128 152.044 152.216C152.132 152.296 152.176 152.416 152.176 152.576V153.548H152.056C152.184 153.076 152.428 152.712 152.788 152.456C153.148 152.2 153.592 152.064 154.12 152.048C154.24 152.04 154.336 152.068 154.408 152.132C154.48 152.188 154.52 152.288 154.528 152.432C154.536 152.568 154.504 152.676 154.432 152.756C154.36 152.836 154.248 152.884 154.096 152.9L153.904 152.924C153.36 152.972 152.94 153.148 152.644 153.452C152.356 153.748 152.212 154.156 152.212 154.676V157.58C152.212 157.74 152.168 157.864 152.08 157.952C152 158.04 151.88 158.084 151.72 158.084Z" fill="#64728C"/>
<rect x="58" y="177" width="284" height="36" rx="10" fill="white"/>
<path d="M70.86 199.12C69.98 199.12 69.224 198.944 68.592 198.592C67.968 198.232 67.488 197.728 67.152 197.08C66.816 196.424 66.648 195.652 66.648 194.764C66.648 194.1 66.744 193.504 66.936 192.976C67.128 192.44 67.404 191.984 67.764 191.608C68.124 191.224 68.564 190.932 69.084 190.732C69.612 190.524 70.204 190.42 70.86 190.42C71.3 190.42 71.732 190.476 72.156 190.588C72.58 190.7 72.952 190.86 73.272 191.068C73.44 191.172 73.552 191.3 73.608 191.452C73.664 191.596 73.676 191.74 73.644 191.884C73.612 192.02 73.544 192.136 73.44 192.232C73.344 192.328 73.22 192.384 73.068 192.4C72.924 192.408 72.764 192.356 72.588 192.244C72.34 192.084 72.072 191.968 71.784 191.896C71.496 191.824 71.204 191.788 70.908 191.788C70.34 191.788 69.86 191.904 69.468 192.136C69.076 192.368 68.78 192.704 68.58 193.144C68.38 193.584 68.28 194.124 68.28 194.764C68.28 195.396 68.38 195.936 68.58 196.384C68.78 196.832 69.076 197.172 69.468 197.404C69.86 197.636 70.34 197.752 70.908 197.752C71.212 197.752 71.512 197.716 71.808 197.644C72.104 197.564 72.384 197.444 72.648 197.284C72.824 197.18 72.98 197.136 73.116 197.152C73.26 197.16 73.38 197.208 73.476 197.296C73.572 197.384 73.636 197.496 73.668 197.632C73.7 197.76 73.692 197.896 73.644 198.04C73.596 198.176 73.5 198.296 73.356 198.4C73.036 198.632 72.652 198.812 72.204 198.94C71.764 199.06 71.316 199.12 70.86 199.12Z" fill="#38455D"/>
<path d="M77.4923 199.108C76.9243 199.108 76.4323 198.984 76.0163 198.736C75.6003 198.488 75.2763 198.14 75.0443 197.692C74.8203 197.236 74.7083 196.7 74.7083 196.084C74.7083 195.62 74.7723 195.204 74.9003 194.836C75.0283 194.46 75.2163 194.14 75.4643 193.876C75.7123 193.612 76.0043 193.412 76.3403 193.276C76.6843 193.132 77.0683 193.06 77.4923 193.06C78.0603 193.06 78.5523 193.184 78.9683 193.432C79.3843 193.68 79.7043 194.032 79.9283 194.488C80.1603 194.936 80.2763 195.468 80.2763 196.084C80.2763 196.548 80.2123 196.964 80.0843 197.332C79.9563 197.7 79.7683 198.02 79.5203 198.292C79.2723 198.556 78.9763 198.76 78.6323 198.904C78.2963 199.04 77.9163 199.108 77.4923 199.108ZM77.4923 198.328C77.8523 198.328 78.1683 198.24 78.4403 198.064C78.7123 197.888 78.9203 197.632 79.0643 197.296C79.2163 196.96 79.2923 196.556 79.2923 196.084C79.2923 195.356 79.1283 194.8 78.8003 194.416C78.4803 194.032 78.0443 193.84 77.4923 193.84C77.1243 193.84 76.8043 193.928 76.5323 194.104C76.2683 194.272 76.0603 194.524 75.9083 194.86C75.7643 195.188 75.6923 195.596 75.6923 196.084C75.6923 196.804 75.8563 197.36 76.1843 197.752C76.5123 198.136 76.9483 198.328 77.4923 198.328ZM82.2162 199.084C82.0562 199.084 81.9362 199.04 81.8562 198.952C81.7762 198.864 81.7362 198.74 81.7362 198.58V193.576C81.7362 193.416 81.7762 193.296 81.8562 193.216C81.9362 193.128 82.0522 193.084 82.2042 193.084C82.3562 193.084 82.4722 193.128 82.5522 193.216C82.6402 193.296 82.6842 193.416 82.6842 193.576V194.608L82.5522 194.464C82.7202 194 82.9922 193.652 83.3682 193.42C83.7522 193.18 84.1922 193.06 84.6882 193.06C85.1522 193.06 85.5362 193.144 85.8402 193.312C86.1522 193.48 86.3842 193.736 86.5362 194.08C86.6882 194.416 86.7642 194.844 86.7642 195.364V198.58C86.7642 198.74 86.7202 198.864 86.6322 198.952C86.5522 199.04 86.4362 199.084 86.2842 199.084C86.1242 199.084 86.0002 199.04 85.9122 198.952C85.8322 198.864 85.7922 198.74 85.7922 198.58V195.424C85.7922 194.88 85.6842 194.484 85.4682 194.236C85.2602 193.98 84.9242 193.852 84.4602 193.852C83.9242 193.852 83.4962 194.02 83.1762 194.356C82.8642 194.684 82.7082 195.124 82.7082 195.676V198.58C82.7082 198.916 82.5442 199.084 82.2162 199.084ZM90.8965 199.108C90.4405 199.108 90.0565 199.028 89.7445 198.868C89.4405 198.7 89.2125 198.46 89.0605 198.148C88.9085 197.828 88.8325 197.44 88.8325 196.984V193.924H88.0285C87.8925 193.924 87.7885 193.892 87.7165 193.828C87.6445 193.756 87.6085 193.66 87.6085 193.54C87.6085 193.42 87.6445 193.328 87.7165 193.264C87.7885 193.2 87.8925 193.168 88.0285 193.168H88.8325V191.788C88.8325 191.628 88.8765 191.508 88.9645 191.428C89.0525 191.34 89.1725 191.296 89.3245 191.296C89.4765 191.296 89.5925 191.34 89.6725 191.428C89.7605 191.508 89.8045 191.628 89.8045 191.788V193.168H91.3165C91.4525 193.168 91.5565 193.2 91.6285 193.264C91.7005 193.328 91.7365 193.42 91.7365 193.54C91.7365 193.66 91.7005 193.756 91.6285 193.828C91.5565 193.892 91.4525 193.924 91.3165 193.924H89.8045V196.888C89.8045 197.344 89.9005 197.692 90.0925 197.932C90.2845 198.164 90.5965 198.28 91.0285 198.28C91.1805 198.28 91.3085 198.264 91.4125 198.232C91.5245 198.2 91.6165 198.184 91.6885 198.184C91.7605 198.176 91.8205 198.2 91.8685 198.256C91.9165 198.312 91.9405 198.408 91.9405 198.544C91.9405 198.64 91.9205 198.728 91.8805 198.808C91.8485 198.888 91.7885 198.944 91.7005 198.976C91.6045 199.008 91.4765 199.036 91.3165 199.06C91.1645 199.092 91.0245 199.108 90.8965 199.108ZM93.2438 199.084C93.0838 199.084 92.9598 199.04 92.8718 198.952C92.7918 198.864 92.7518 198.74 92.7518 198.58V193.576C92.7518 193.416 92.7918 193.296 92.8718 193.216C92.9518 193.128 93.0678 193.084 93.2198 193.084C93.3718 193.084 93.4878 193.128 93.5678 193.216C93.6558 193.296 93.6998 193.416 93.6998 193.576V194.548H93.5798C93.7078 194.076 93.9518 193.712 94.3118 193.456C94.6718 193.2 95.1158 193.064 95.6438 193.048C95.7638 193.04 95.8598 193.068 95.9318 193.132C96.0038 193.188 96.0438 193.288 96.0518 193.432C96.0598 193.568 96.0278 193.676 95.9558 193.756C95.8838 193.836 95.7718 193.884 95.6198 193.9L95.4278 193.924C94.8838 193.972 94.4638 194.148 94.1678 194.452C93.8798 194.748 93.7358 195.156 93.7358 195.676V198.58C93.7358 198.74 93.6918 198.864 93.6038 198.952C93.5238 199.04 93.4038 199.084 93.2438 199.084ZM98.83 199.108C98.43 199.108 98.07 199.032 97.75 198.88C97.438 198.72 97.19 198.504 97.006 198.232C96.822 197.96 96.73 197.656 96.73 197.32C96.73 196.888 96.838 196.548 97.054 196.3C97.278 196.052 97.642 195.876 98.146 195.772C98.658 195.668 99.354 195.616 100.234 195.616H100.774V196.252H100.246C99.598 196.252 99.086 196.284 98.71 196.348C98.342 196.404 98.082 196.504 97.93 196.648C97.786 196.792 97.714 196.996 97.714 197.26C97.714 197.588 97.826 197.856 98.05 198.064C98.282 198.272 98.594 198.376 98.986 198.376C99.306 198.376 99.586 198.3 99.826 198.148C100.074 197.996 100.266 197.788 100.402 197.524C100.546 197.26 100.618 196.956 100.618 196.612V195.244C100.618 194.748 100.518 194.392 100.318 194.176C100.118 193.952 99.79 193.84 99.334 193.84C99.054 193.84 98.774 193.876 98.494 193.948C98.214 194.02 97.918 194.136 97.606 194.296C97.494 194.352 97.398 194.372 97.318 194.356C97.238 194.332 97.174 194.288 97.126 194.224C97.078 194.16 97.05 194.088 97.042 194.008C97.034 193.92 97.05 193.836 97.09 193.756C97.138 193.676 97.21 193.612 97.306 193.564C97.658 193.388 98.006 193.26 98.35 193.18C98.694 193.1 99.022 193.06 99.334 193.06C99.838 193.06 100.254 193.144 100.582 193.312C100.91 193.472 101.154 193.72 101.314 194.056C101.474 194.384 101.554 194.808 101.554 195.328V198.58C101.554 198.74 101.514 198.864 101.434 198.952C101.362 199.04 101.254 199.084 101.11 199.084C100.958 199.084 100.842 199.04 100.762 198.952C100.682 198.864 100.642 198.74 100.642 198.58V197.644H100.75C100.686 197.948 100.562 198.208 100.378 198.424C100.202 198.64 99.982 198.808 99.718 198.928C99.454 199.048 99.158 199.108 98.83 199.108ZM105.829 199.108C105.245 199.108 104.741 198.98 104.317 198.724C103.893 198.468 103.565 198.112 103.333 197.656C103.109 197.192 102.997 196.656 102.997 196.048C102.997 195.584 103.061 195.168 103.189 194.8C103.317 194.432 103.505 194.12 103.753 193.864C104.001 193.6 104.297 193.4 104.641 193.264C104.993 193.128 105.389 193.06 105.829 193.06C106.117 193.06 106.417 193.104 106.729 193.192C107.041 193.28 107.325 193.432 107.581 193.648C107.661 193.704 107.713 193.772 107.737 193.852C107.761 193.932 107.761 194.012 107.737 194.092C107.713 194.164 107.673 194.228 107.617 194.284C107.561 194.332 107.489 194.36 107.401 194.368C107.321 194.376 107.237 194.348 107.149 194.284C106.941 194.124 106.729 194.012 106.513 193.948C106.297 193.884 106.089 193.852 105.889 193.852C105.577 193.852 105.305 193.904 105.073 194.008C104.841 194.104 104.645 194.244 104.485 194.428C104.325 194.612 104.201 194.84 104.113 195.112C104.033 195.384 103.993 195.7 103.993 196.06C103.993 196.756 104.157 197.308 104.485 197.716C104.813 198.116 105.281 198.316 105.889 198.316C106.089 198.316 106.293 198.284 106.501 198.22C106.717 198.156 106.933 198.044 107.149 197.884C107.237 197.82 107.321 197.792 107.401 197.8C107.481 197.808 107.549 197.84 107.605 197.896C107.661 197.944 107.697 198.008 107.713 198.088C107.737 198.168 107.737 198.248 107.713 198.328C107.689 198.4 107.637 198.464 107.557 198.52C107.301 198.728 107.021 198.88 106.717 198.976C106.413 199.064 106.117 199.108 105.829 199.108ZM111.252 199.108C110.796 199.108 110.412 199.028 110.1 198.868C109.796 198.7 109.568 198.46 109.416 198.148C109.264 197.828 109.188 197.44 109.188 196.984V193.924H108.384C108.248 193.924 108.144 193.892 108.072 193.828C108 193.756 107.964 193.66 107.964 193.54C107.964 193.42 108 193.328 108.072 193.264C108.144 193.2 108.248 193.168 108.384 193.168H109.188V191.788C109.188 191.628 109.232 191.508 109.32 191.428C109.408 191.34 109.528 191.296 109.68 191.296C109.832 191.296 109.948 191.34 110.028 191.428C110.116 191.508 110.16 191.628 110.16 191.788V193.168H111.672C111.808 193.168 111.912 193.2 111.984 193.264C112.056 193.328 112.092 193.42 112.092 193.54C112.092 193.66 112.056 193.756 111.984 193.828C111.912 193.892 111.808 193.924 111.672 193.924H110.16V196.888C110.16 197.344 110.256 197.692 110.448 197.932C110.64 198.164 110.952 198.28 111.384 198.28C111.536 198.28 111.664 198.264 111.768 198.232C111.88 198.2 111.972 198.184 112.044 198.184C112.116 198.176 112.176 198.2 112.224 198.256C112.272 198.312 112.296 198.408 112.296 198.544C112.296 198.64 112.276 198.728 112.236 198.808C112.204 198.888 112.144 198.944 112.056 198.976C111.96 199.008 111.832 199.036 111.672 199.06C111.52 199.092 111.38 199.108 111.252 199.108ZM115.473 199.108C114.905 199.108 114.413 198.984 113.997 198.736C113.581 198.488 113.257 198.14 113.025 197.692C112.801 197.236 112.689 196.7 112.689 196.084C112.689 195.62 112.753 195.204 112.881 194.836C113.009 194.46 113.197 194.14 113.445 193.876C113.693 193.612 113.985 193.412 114.321 193.276C114.665 193.132 115.049 193.06 115.473 193.06C116.041 193.06 116.533 193.184 116.949 193.432C117.365 193.68 117.685 194.032 117.909 194.488C118.141 194.936 118.257 195.468 118.257 196.084C118.257 196.548 118.193 196.964 118.065 197.332C117.937 197.7 117.749 198.02 117.501 198.292C117.253 198.556 116.957 198.76 116.613 198.904C116.277 199.04 115.897 199.108 115.473 199.108ZM115.473 198.328C115.833 198.328 116.149 198.24 116.421 198.064C116.693 197.888 116.901 197.632 117.045 197.296C117.197 196.96 117.273 196.556 117.273 196.084C117.273 195.356 117.109 194.8 116.781 194.416C116.461 194.032 116.025 193.84 115.473 193.84C115.105 193.84 114.785 193.928 114.513 194.104C114.249 194.272 114.041 194.524 113.889 194.86C113.745 195.188 113.673 195.596 113.673 196.084C113.673 196.804 113.837 197.36 114.165 197.752C114.493 198.136 114.929 198.328 115.473 198.328ZM120.209 199.084C120.049 199.084 119.925 199.04 119.837 198.952C119.757 198.864 119.717 198.74 119.717 198.58V193.576C119.717 193.416 119.757 193.296 119.837 193.216C119.917 193.128 120.033 193.084 120.185 193.084C120.337 193.084 120.453 193.128 120.533 193.216C120.621 193.296 120.665 193.416 120.665 193.576V194.548H120.545C120.673 194.076 120.917 193.712 121.277 193.456C121.637 193.2 122.081 193.064 122.609 193.048C122.729 193.04 122.825 193.068 122.897 193.132C122.969 193.188 123.009 193.288 123.017 193.432C123.025 193.568 122.993 193.676 122.921 193.756C122.849 193.836 122.737 193.884 122.585 193.9L122.393 193.924C121.849 193.972 121.429 194.148 121.133 194.452C120.845 194.748 120.701 195.156 120.701 195.676V198.58C120.701 198.74 120.657 198.864 120.569 198.952C120.489 199.04 120.369 199.084 120.209 199.084Z" fill="#64728C"/>
<rect x="58" y="218" width="284" height="36" rx="10" fill="white"/>
<path d="M70.86 240.12C69.98 240.12 69.224 239.944 68.592 239.592C67.968 239.232 67.488 238.728 67.152 238.08C66.816 237.424 66.648 236.652 66.648 235.764C66.648 235.1 66.744 234.504 66.936 233.976C67.128 233.44 67.404 232.984 67.764 232.608C68.124 232.224 68.564 231.932 69.084 231.732C69.612 231.524 70.204 231.42 70.86 231.42C71.3 231.42 71.732 231.476 72.156 231.588C72.58 231.7 72.952 231.86 73.272 232.068C73.44 232.172 73.552 232.3 73.608 232.452C73.664 232.596 73.676 232.74 73.644 232.884C73.612 233.02 73.544 233.136 73.44 233.232C73.344 233.328 73.22 233.384 73.068 233.4C72.924 233.408 72.764 233.356 72.588 233.244C72.34 233.084 72.072 232.968 71.784 232.896C71.496 232.824 71.204 232.788 70.908 232.788C70.34 232.788 69.86 232.904 69.468 233.136C69.076 233.368 68.78 233.704 68.58 234.144C68.38 234.584 68.28 235.124 68.28 235.764C68.28 236.396 68.38 236.936 68.58 237.384C68.78 237.832 69.076 238.172 69.468 238.404C69.86 238.636 70.34 238.752 70.908 238.752C71.212 238.752 71.512 238.716 71.808 238.644C72.104 238.564 72.384 238.444 72.648 238.284C72.824 238.18 72.98 238.136 73.116 238.152C73.26 238.16 73.38 238.208 73.476 238.296C73.572 238.384 73.636 238.496 73.668 238.632C73.7 238.76 73.692 238.896 73.644 239.04C73.596 239.176 73.5 239.296 73.356 239.4C73.036 239.632 72.652 239.812 72.204 239.94C71.764 240.06 71.316 240.12 70.86 240.12Z" fill="#38455D"/>
<path d="M77.4923 240.108C76.9243 240.108 76.4323 239.984 76.0163 239.736C75.6003 239.488 75.2763 239.14 75.0443 238.692C74.8203 238.236 74.7083 237.7 74.7083 237.084C74.7083 236.62 74.7723 236.204 74.9003 235.836C75.0283 235.46 75.2163 235.14 75.4643 234.876C75.7123 234.612 76.0043 234.412 76.3403 234.276C76.6843 234.132 77.0683 234.06 77.4923 234.06C78.0603 234.06 78.5523 234.184 78.9683 234.432C79.3843 234.68 79.7043 235.032 79.9283 235.488C80.1603 235.936 80.2763 236.468 80.2763 237.084C80.2763 237.548 80.2123 237.964 80.0843 238.332C79.9563 238.7 79.7683 239.02 79.5203 239.292C79.2723 239.556 78.9763 239.76 78.6323 239.904C78.2963 240.04 77.9163 240.108 77.4923 240.108ZM77.4923 239.328C77.8523 239.328 78.1683 239.24 78.4403 239.064C78.7123 238.888 78.9203 238.632 79.0643 238.296C79.2163 237.96 79.2923 237.556 79.2923 237.084C79.2923 236.356 79.1283 235.8 78.8003 235.416C78.4803 235.032 78.0443 234.84 77.4923 234.84C77.1243 234.84 76.8043 234.928 76.5323 235.104C76.2683 235.272 76.0603 235.524 75.9083 235.86C75.7643 236.188 75.6923 236.596 75.6923 237.084C75.6923 237.804 75.8563 238.36 76.1843 238.752C76.5123 239.136 76.9483 239.328 77.4923 239.328ZM82.2162 240.084C82.0562 240.084 81.9362 240.04 81.8562 239.952C81.7762 239.864 81.7362 239.74 81.7362 239.58V234.576C81.7362 234.416 81.7762 234.296 81.8562 234.216C81.9362 234.128 82.0522 234.084 82.2042 234.084C82.3562 234.084 82.4722 234.128 82.5522 234.216C82.6402 234.296 82.6842 234.416 82.6842 234.576V235.608L82.5522 235.464C82.7202 235 82.9922 234.652 83.3682 234.42C83.7522 234.18 84.1922 234.06 84.6882 234.06C85.1522 234.06 85.5362 234.144 85.8402 234.312C86.1522 234.48 86.3842 234.736 86.5362 235.08C86.6882 235.416 86.7642 235.844 86.7642 236.364V239.58C86.7642 239.74 86.7202 239.864 86.6322 239.952C86.5522 240.04 86.4362 240.084 86.2842 240.084C86.1242 240.084 86.0002 240.04 85.9122 239.952C85.8322 239.864 85.7922 239.74 85.7922 239.58V236.424C85.7922 235.88 85.6842 235.484 85.4682 235.236C85.2602 234.98 84.9242 234.852 84.4602 234.852C83.9242 234.852 83.4962 235.02 83.1762 235.356C82.8642 235.684 82.7082 236.124 82.7082 236.676V239.58C82.7082 239.916 82.5442 240.084 82.2162 240.084ZM90.8965 240.108C90.4405 240.108 90.0565 240.028 89.7445 239.868C89.4405 239.7 89.2125 239.46 89.0605 239.148C88.9085 238.828 88.8325 238.44 88.8325 237.984V234.924H88.0285C87.8925 234.924 87.7885 234.892 87.7165 234.828C87.6445 234.756 87.6085 234.66 87.6085 234.54C87.6085 234.42 87.6445 234.328 87.7165 234.264C87.7885 234.2 87.8925 234.168 88.0285 234.168H88.8325V232.788C88.8325 232.628 88.8765 232.508 88.9645 232.428C89.0525 232.34 89.1725 232.296 89.3245 232.296C89.4765 232.296 89.5925 232.34 89.6725 232.428C89.7605 232.508 89.8045 232.628 89.8045 232.788V234.168H91.3165C91.4525 234.168 91.5565 234.2 91.6285 234.264C91.7005 234.328 91.7365 234.42 91.7365 234.54C91.7365 234.66 91.7005 234.756 91.6285 234.828C91.5565 234.892 91.4525 234.924 91.3165 234.924H89.8045V237.888C89.8045 238.344 89.9005 238.692 90.0925 238.932C90.2845 239.164 90.5965 239.28 91.0285 239.28C91.1805 239.28 91.3085 239.264 91.4125 239.232C91.5245 239.2 91.6165 239.184 91.6885 239.184C91.7605 239.176 91.8205 239.2 91.8685 239.256C91.9165 239.312 91.9405 239.408 91.9405 239.544C91.9405 239.64 91.9205 239.728 91.8805 239.808C91.8485 239.888 91.7885 239.944 91.7005 239.976C91.6045 240.008 91.4765 240.036 91.3165 240.06C91.1645 240.092 91.0245 240.108 90.8965 240.108ZM94.5878 240.108C94.1878 240.108 93.8278 240.032 93.5078 239.88C93.1958 239.72 92.9478 239.504 92.7638 239.232C92.5798 238.96 92.4878 238.656 92.4878 238.32C92.4878 237.888 92.5958 237.548 92.8118 237.3C93.0358 237.052 93.3998 236.876 93.9038 236.772C94.4158 236.668 95.1118 236.616 95.9918 236.616H96.5318V237.252H96.0038C95.3558 237.252 94.8438 237.284 94.4678 237.348C94.0998 237.404 93.8398 237.504 93.6878 237.648C93.5438 237.792 93.4718 237.996 93.4718 238.26C93.4718 238.588 93.5838 238.856 93.8078 239.064C94.0398 239.272 94.3518 239.376 94.7438 239.376C95.0638 239.376 95.3438 239.3 95.5838 239.148C95.8318 238.996 96.0238 238.788 96.1598 238.524C96.3038 238.26 96.3758 237.956 96.3758 237.612V236.244C96.3758 235.748 96.2758 235.392 96.0758 235.176C95.8758 234.952 95.5478 234.84 95.0918 234.84C94.8118 234.84 94.5318 234.876 94.2518 234.948C93.9718 235.02 93.6758 235.136 93.3638 235.296C93.2518 235.352 93.1558 235.372 93.0758 235.356C92.9958 235.332 92.9318 235.288 92.8838 235.224C92.8358 235.16 92.8078 235.088 92.7998 235.008C92.7918 234.92 92.8078 234.836 92.8478 234.756C92.8958 234.676 92.9678 234.612 93.0638 234.564C93.4158 234.388 93.7638 234.26 94.1078 234.18C94.4518 234.1 94.7798 234.06 95.0918 234.06C95.5958 234.06 96.0118 234.144 96.3398 234.312C96.6678 234.472 96.9118 234.72 97.0718 235.056C97.2318 235.384 97.3118 235.808 97.3118 236.328V239.58C97.3118 239.74 97.2718 239.864 97.1918 239.952C97.1198 240.04 97.0118 240.084 96.8678 240.084C96.7158 240.084 96.5998 240.04 96.5198 239.952C96.4398 239.864 96.3998 239.74 96.3998 239.58V238.644H96.5078C96.4438 238.948 96.3198 239.208 96.1358 239.424C95.9598 239.64 95.7398 239.808 95.4758 239.928C95.2118 240.048 94.9158 240.108 94.5878 240.108ZM101.587 240.108C101.003 240.108 100.499 239.98 100.075 239.724C99.6511 239.468 99.3231 239.112 99.0911 238.656C98.8671 238.192 98.7551 237.656 98.7551 237.048C98.7551 236.584 98.8191 236.168 98.9471 235.8C99.0751 235.432 99.2631 235.12 99.5111 234.864C99.7591 234.6 100.055 234.4 100.399 234.264C100.751 234.128 101.147 234.06 101.587 234.06C101.875 234.06 102.175 234.104 102.487 234.192C102.799 234.28 103.083 234.432 103.339 234.648C103.419 234.704 103.471 234.772 103.495 234.852C103.519 234.932 103.519 235.012 103.495 235.092C103.471 235.164 103.431 235.228 103.375 235.284C103.319 235.332 103.247 235.36 103.159 235.368C103.079 235.376 102.995 235.348 102.907 235.284C102.699 235.124 102.487 235.012 102.271 234.948C102.055 234.884 101.847 234.852 101.647 234.852C101.335 234.852 101.063 234.904 100.831 235.008C100.599 235.104 100.403 235.244 100.243 235.428C100.083 235.612 99.9591 235.84 99.8711 236.112C99.7911 236.384 99.7511 236.7 99.7511 237.06C99.7511 237.756 99.9151 238.308 100.243 238.716C100.571 239.116 101.039 239.316 101.647 239.316C101.847 239.316 102.051 239.284 102.259 239.22C102.475 239.156 102.691 239.044 102.907 238.884C102.995 238.82 103.079 238.792 103.159 238.8C103.239 238.808 103.307 238.84 103.363 238.896C103.419 238.944 103.455 239.008 103.471 239.088C103.495 239.168 103.495 239.248 103.471 239.328C103.447 239.4 103.395 239.464 103.315 239.52C103.059 239.728 102.779 239.88 102.475 239.976C102.171 240.064 101.875 240.108 101.587 240.108ZM107.01 240.108C106.554 240.108 106.17 240.028 105.858 239.868C105.554 239.7 105.326 239.46 105.174 239.148C105.022 238.828 104.946 238.44 104.946 237.984V234.924H104.142C104.006 234.924 103.902 234.892 103.83 234.828C103.758 234.756 103.722 234.66 103.722 234.54C103.722 234.42 103.758 234.328 103.83 234.264C103.902 234.2 104.006 234.168 104.142 234.168H104.946V232.788C104.946 232.628 104.99 232.508 105.078 232.428C105.166 232.34 105.286 232.296 105.438 232.296C105.59 232.296 105.706 232.34 105.786 232.428C105.874 232.508 105.918 232.628 105.918 232.788V234.168H107.43C107.566 234.168 107.67 234.2 107.742 234.264C107.814 234.328 107.85 234.42 107.85 234.54C107.85 234.66 107.814 234.756 107.742 234.828C107.67 234.892 107.566 234.924 107.43 234.924H105.918V237.888C105.918 238.344 106.014 238.692 106.206 238.932C106.398 239.164 106.71 239.28 107.142 239.28C107.294 239.28 107.422 239.264 107.526 239.232C107.638 239.2 107.73 239.184 107.802 239.184C107.874 239.176 107.934 239.2 107.982 239.256C108.03 239.312 108.054 239.408 108.054 239.544C108.054 239.64 108.034 239.728 107.994 239.808C107.962 239.888 107.902 239.944 107.814 239.976C107.718 240.008 107.59 240.036 107.43 240.06C107.278 240.092 107.138 240.108 107.01 240.108ZM115.643 240.108C114.859 240.108 114.175 239.932 113.591 239.58C113.015 239.22 112.567 238.716 112.247 238.068C111.935 237.42 111.779 236.652 111.779 235.764C111.779 235.092 111.867 234.492 112.043 233.964C112.227 233.428 112.487 232.976 112.823 232.608C113.159 232.232 113.563 231.944 114.035 231.744C114.515 231.536 115.051 231.432 115.643 231.432C116.443 231.432 117.131 231.608 117.707 231.96C118.291 232.312 118.739 232.812 119.051 233.46C119.371 234.1 119.531 234.864 119.531 235.752C119.531 236.424 119.439 237.028 119.255 237.564C119.071 238.1 118.811 238.556 118.475 238.932C118.139 239.308 117.731 239.6 117.251 239.808C116.779 240.008 116.243 240.108 115.643 240.108ZM115.643 239.232C116.251 239.232 116.763 239.096 117.179 238.824C117.603 238.552 117.927 238.156 118.151 237.636C118.375 237.116 118.487 236.492 118.487 235.764C118.487 234.668 118.239 233.82 117.743 233.22C117.255 232.612 116.555 232.308 115.643 232.308C115.051 232.308 114.543 232.444 114.119 232.716C113.703 232.988 113.383 233.384 113.159 233.904C112.935 234.416 112.823 235.036 112.823 235.764C112.823 236.852 113.071 237.704 113.567 238.32C114.063 238.928 114.755 239.232 115.643 239.232ZM121.95 240.084C121.798 240.084 121.678 240.04 121.59 239.952C121.51 239.864 121.47 239.74 121.47 239.58V234.924H120.702C120.574 234.924 120.47 234.892 120.39 234.828C120.318 234.756 120.282 234.66 120.282 234.54C120.282 234.42 120.318 234.328 120.39 234.264C120.47 234.2 120.574 234.168 120.702 234.168H121.734L121.47 234.42V233.964C121.47 233.204 121.654 232.624 122.022 232.224C122.398 231.824 122.946 231.592 123.666 231.528L124.014 231.492C124.126 231.484 124.214 231.504 124.278 231.552C124.35 231.6 124.394 231.66 124.41 231.732C124.434 231.804 124.438 231.88 124.422 231.96C124.406 232.032 124.37 232.096 124.314 232.152C124.258 232.208 124.19 232.24 124.11 232.248L123.834 232.272C123.346 232.312 122.99 232.46 122.766 232.716C122.55 232.972 122.442 233.348 122.442 233.844V234.348L122.298 234.168H123.738C123.874 234.168 123.978 234.2 124.05 234.264C124.122 234.328 124.158 234.42 124.158 234.54C124.158 234.66 124.122 234.756 124.05 234.828C123.978 234.892 123.874 234.924 123.738 234.924H122.442V239.58C122.442 239.916 122.278 240.084 121.95 240.084ZM125.759 240.084C125.607 240.084 125.487 240.04 125.399 239.952C125.319 239.864 125.279 239.74 125.279 239.58V234.924H124.511C124.383 234.924 124.279 234.892 124.199 234.828C124.127 234.756 124.091 234.66 124.091 234.54C124.091 234.42 124.127 234.328 124.199 234.264C124.279 234.2 124.383 234.168 124.511 234.168H125.543L125.279 234.42V233.964C125.279 233.212 125.459 232.636 125.819 232.236C126.187 231.836 126.727 231.608 127.439 231.552L127.799 231.516C127.919 231.508 128.015 231.528 128.087 231.576C128.159 231.616 128.203 231.672 128.219 231.744C128.243 231.816 128.247 231.892 128.231 231.972C128.215 232.052 128.179 232.12 128.123 232.176C128.075 232.232 128.015 232.264 127.943 232.272L127.583 232.296C127.111 232.328 126.771 232.476 126.563 232.74C126.355 232.996 126.251 233.364 126.251 233.844V234.348L126.107 234.168H129.371C129.523 234.168 129.639 234.212 129.719 234.3C129.807 234.388 129.851 234.516 129.851 234.684V239.532C129.851 239.7 129.811 239.832 129.731 239.928C129.651 240.016 129.531 240.06 129.371 240.06C129.211 240.06 129.087 240.016 128.999 239.928C128.919 239.832 128.879 239.7 128.879 239.532V234.924H126.251V239.58C126.251 239.916 126.087 240.084 125.759 240.084ZM129.383 232.764C129.183 232.764 129.027 232.712 128.915 232.608C128.811 232.496 128.759 232.348 128.759 232.164C128.759 231.972 128.811 231.828 128.915 231.732C129.027 231.628 129.183 231.576 129.383 231.576C129.583 231.576 129.735 231.628 129.839 231.732C129.951 231.828 130.007 231.972 130.007 232.164C130.007 232.348 129.951 232.496 129.839 232.608C129.735 232.712 129.583 232.764 129.383 232.764ZM134.142 240.108C133.558 240.108 133.054 239.98 132.63 239.724C132.206 239.468 131.878 239.112 131.646 238.656C131.422 238.192 131.31 237.656 131.31 237.048C131.31 236.584 131.374 236.168 131.502 235.8C131.63 235.432 131.818 235.12 132.066 234.864C132.314 234.6 132.61 234.4 132.954 234.264C133.306 234.128 133.702 234.06 134.142 234.06C134.43 234.06 134.73 234.104 135.042 234.192C135.354 234.28 135.638 234.432 135.894 234.648C135.974 234.704 136.026 234.772 136.05 234.852C136.074 234.932 136.074 235.012 136.05 235.092C136.026 235.164 135.986 235.228 135.93 235.284C135.874 235.332 135.802 235.36 135.714 235.368C135.634 235.376 135.55 235.348 135.462 235.284C135.254 235.124 135.042 235.012 134.826 234.948C134.61 234.884 134.402 234.852 134.202 234.852C133.89 234.852 133.618 234.904 133.386 235.008C133.154 235.104 132.958 235.244 132.798 235.428C132.638 235.612 132.514 235.84 132.426 236.112C132.346 236.384 132.306 236.7 132.306 237.06C132.306 237.756 132.47 238.308 132.798 238.716C133.126 239.116 133.594 239.316 134.202 239.316C134.402 239.316 134.606 239.284 134.814 239.22C135.03 239.156 135.246 239.044 135.462 238.884C135.55 238.82 135.634 238.792 135.714 238.8C135.794 238.808 135.862 238.84 135.918 238.896C135.974 238.944 136.01 239.008 136.026 239.088C136.05 239.168 136.05 239.248 136.026 239.328C136.002 239.4 135.95 239.464 135.87 239.52C135.614 239.728 135.334 239.88 135.03 239.976C134.726 240.064 134.43 240.108 134.142 240.108ZM139.735 240.108C139.119 240.108 138.587 239.988 138.139 239.748C137.699 239.5 137.355 239.152 137.107 238.704C136.867 238.256 136.747 237.72 136.747 237.096C136.747 236.488 136.867 235.96 137.107 235.512C137.347 235.056 137.675 234.7 138.091 234.444C138.515 234.188 139.003 234.06 139.555 234.06C139.947 234.06 140.299 234.128 140.611 234.264C140.923 234.392 141.187 234.58 141.403 234.828C141.627 235.076 141.795 235.376 141.907 235.728C142.027 236.08 142.087 236.476 142.087 236.916C142.087 237.044 142.051 237.14 141.979 237.204C141.907 237.26 141.803 237.288 141.667 237.288H137.491V236.652H141.439L141.247 236.808C141.247 236.376 141.183 236.012 141.055 235.716C140.927 235.412 140.739 235.18 140.491 235.02C140.251 234.86 139.947 234.78 139.579 234.78C139.171 234.78 138.823 234.876 138.535 235.068C138.255 235.252 138.043 235.512 137.899 235.848C137.755 236.176 137.683 236.56 137.683 237V237.072C137.683 237.808 137.859 238.368 138.211 238.752C138.571 239.136 139.079 239.328 139.735 239.328C140.007 239.328 140.275 239.292 140.539 239.22C140.811 239.148 141.075 239.028 141.331 238.86C141.443 238.788 141.543 238.756 141.631 238.764C141.727 238.764 141.803 238.792 141.859 238.848C141.915 238.896 141.951 238.96 141.967 239.04C141.991 239.112 141.983 239.192 141.943 239.28C141.911 239.368 141.843 239.444 141.739 239.508C141.475 239.7 141.163 239.848 140.803 239.952C140.443 240.056 140.087 240.108 139.735 240.108Z" fill="#64728C"/>
<rect x="58" y="259" width="284" height="36" rx="10" fill="white"/>
<path d="M70.86 281.12C69.98 281.12 69.224 280.944 68.592 280.592C67.968 280.232 67.488 279.728 67.152 279.08C66.816 278.424 66.648 277.652 66.648 276.764C66.648 276.1 66.744 275.504 66.936 274.976C67.128 274.44 67.404 273.984 67.764 273.608C68.124 273.224 68.564 272.932 69.084 272.732C69.612 272.524 70.204 272.42 70.86 272.42C71.3 272.42 71.732 272.476 72.156 272.588C72.58 272.7 72.952 272.86 73.272 273.068C73.44 273.172 73.552 273.3 73.608 273.452C73.664 273.596 73.676 273.74 73.644 273.884C73.612 274.02 73.544 274.136 73.44 274.232C73.344 274.328 73.22 274.384 73.068 274.4C72.924 274.408 72.764 274.356 72.588 274.244C72.34 274.084 72.072 273.968 71.784 273.896C71.496 273.824 71.204 273.788 70.908 273.788C70.34 273.788 69.86 273.904 69.468 274.136C69.076 274.368 68.78 274.704 68.58 275.144C68.38 275.584 68.28 276.124 68.28 276.764C68.28 277.396 68.38 277.936 68.58 278.384C68.78 278.832 69.076 279.172 69.468 279.404C69.86 279.636 70.34 279.752 70.908 279.752C71.212 279.752 71.512 279.716 71.808 279.644C72.104 279.564 72.384 279.444 72.648 279.284C72.824 279.18 72.98 279.136 73.116 279.152C73.26 279.16 73.38 279.208 73.476 279.296C73.572 279.384 73.636 279.496 73.668 279.632C73.7 279.76 73.692 279.896 73.644 280.04C73.596 280.176 73.5 280.296 73.356 280.4C73.036 280.632 72.652 280.812 72.204 280.94C71.764 281.06 71.316 281.12 70.86 281.12Z" fill="#38455D"/>
<path d="M77.4923 281.108C76.9243 281.108 76.4323 280.984 76.0163 280.736C75.6003 280.488 75.2763 280.14 75.0443 279.692C74.8203 279.236 74.7083 278.7 74.7083 278.084C74.7083 277.62 74.7723 277.204 74.9003 276.836C75.0283 276.46 75.2163 276.14 75.4643 275.876C75.7123 275.612 76.0043 275.412 76.3403 275.276C76.6843 275.132 77.0683 275.06 77.4923 275.06C78.0603 275.06 78.5523 275.184 78.9683 275.432C79.3843 275.68 79.7043 276.032 79.9283 276.488C80.1603 276.936 80.2763 277.468 80.2763 278.084C80.2763 278.548 80.2123 278.964 80.0843 279.332C79.9563 279.7 79.7683 280.02 79.5203 280.292C79.2723 280.556 78.9763 280.76 78.6323 280.904C78.2963 281.04 77.9163 281.108 77.4923 281.108ZM77.4923 280.328C77.8523 280.328 78.1683 280.24 78.4403 280.064C78.7123 279.888 78.9203 279.632 79.0643 279.296C79.2163 278.96 79.2923 278.556 79.2923 278.084C79.2923 277.356 79.1283 276.8 78.8003 276.416C78.4803 276.032 78.0443 275.84 77.4923 275.84C77.1243 275.84 76.8043 275.928 76.5323 276.104C76.2683 276.272 76.0603 276.524 75.9083 276.86C75.7643 277.188 75.6923 277.596 75.6923 278.084C75.6923 278.804 75.8563 279.36 76.1843 279.752C76.5123 280.136 76.9483 280.328 77.4923 280.328ZM82.2162 281.084C82.0562 281.084 81.9362 281.04 81.8562 280.952C81.7762 280.864 81.7362 280.74 81.7362 280.58V275.576C81.7362 275.416 81.7762 275.296 81.8562 275.216C81.9362 275.128 82.0522 275.084 82.2042 275.084C82.3562 275.084 82.4722 275.128 82.5522 275.216C82.6402 275.296 82.6842 275.416 82.6842 275.576V276.608L82.5522 276.464C82.7202 276 82.9922 275.652 83.3682 275.42C83.7522 275.18 84.1922 275.06 84.6882 275.06C85.1522 275.06 85.5362 275.144 85.8402 275.312C86.1522 275.48 86.3842 275.736 86.5362 276.08C86.6882 276.416 86.7642 276.844 86.7642 277.364V280.58C86.7642 280.74 86.7202 280.864 86.6322 280.952C86.5522 281.04 86.4362 281.084 86.2842 281.084C86.1242 281.084 86.0002 281.04 85.9122 280.952C85.8322 280.864 85.7922 280.74 85.7922 280.58V277.424C85.7922 276.88 85.6842 276.484 85.4682 276.236C85.2602 275.98 84.9242 275.852 84.4602 275.852C83.9242 275.852 83.4962 276.02 83.1762 276.356C82.8642 276.684 82.7082 277.124 82.7082 277.676V280.58C82.7082 280.916 82.5442 281.084 82.2162 281.084ZM92.2743 281.084C92.1143 281.084 91.9903 281.04 91.9023 280.952C91.8223 280.856 91.7823 280.728 91.7823 280.568V272.972C91.7823 272.804 91.8223 272.676 91.9023 272.588C91.9903 272.5 92.1143 272.456 92.2743 272.456C92.4343 272.456 92.5543 272.5 92.6343 272.588C92.7223 272.676 92.7663 272.804 92.7663 272.972V280.568C92.7663 280.728 92.7263 280.856 92.6463 280.952C92.5663 281.04 92.4423 281.084 92.2743 281.084ZM95.4043 281C95.2283 281 95.0923 280.956 94.9963 280.868C94.9083 280.772 94.8643 280.636 94.8643 280.46V273.08C94.8643 272.904 94.9083 272.772 94.9963 272.684C95.0923 272.588 95.2283 272.54 95.4043 272.54H97.7203C99.0883 272.54 100.144 272.9 100.888 273.62C101.632 274.34 102.004 275.388 102.004 276.764C102.004 277.452 101.908 278.06 101.716 278.588C101.532 279.108 101.256 279.548 100.888 279.908C100.52 280.268 100.072 280.54 99.5443 280.724C99.0163 280.908 98.4083 281 97.7203 281H95.4043ZM95.8483 280.16H97.6483C98.2083 280.16 98.6923 280.088 99.1003 279.944C99.5163 279.8 99.8603 279.588 100.132 279.308C100.412 279.028 100.62 278.676 100.756 278.252C100.892 277.82 100.96 277.324 100.96 276.764C100.96 275.636 100.684 274.792 100.132 274.232C99.5803 273.664 98.7523 273.38 97.6483 273.38H95.8483V280.16Z" fill="#64728C"/>
</g>
</g>
<rect x="48.5" y="2.5" width="299" height="37" rx="18.5" fill="white"/>
<rect x="48.5" y="2.5" width="299" height="37" rx="18.5" stroke="#E8EAEF"/>
<path d="M64.776 25.108C63.92 25.108 63.188 24.932 62.58 24.58C61.972 24.228 61.504 23.728 61.176 23.08C60.856 22.424 60.696 21.652 60.696 20.764C60.696 20.1 60.788 19.504 60.972 18.976C61.156 18.44 61.42 17.984 61.764 17.608C62.116 17.224 62.544 16.932 63.048 16.732C63.56 16.532 64.136 16.432 64.776 16.432C65.248 16.432 65.7 16.496 66.132 16.624C66.572 16.752 66.952 16.936 67.272 17.176C67.408 17.264 67.496 17.372 67.536 17.5C67.584 17.62 67.592 17.736 67.56 17.848C67.536 17.96 67.484 18.056 67.404 18.136C67.324 18.208 67.22 18.248 67.092 18.256C66.972 18.264 66.84 18.22 66.696 18.124C66.432 17.924 66.14 17.776 65.82 17.68C65.5 17.584 65.164 17.536 64.812 17.536C64.204 17.536 63.692 17.664 63.276 17.92C62.86 18.168 62.544 18.532 62.328 19.012C62.112 19.492 62.004 20.076 62.004 20.764C62.004 21.452 62.112 22.04 62.328 22.528C62.544 23.008 62.86 23.376 63.276 23.632C63.692 23.88 64.204 24.004 64.812 24.004C65.164 24.004 65.5 23.956 65.82 23.86C66.148 23.756 66.456 23.604 66.744 23.404C66.888 23.316 67.016 23.276 67.128 23.284C67.248 23.292 67.348 23.332 67.428 23.404C67.508 23.476 67.56 23.568 67.584 23.68C67.616 23.784 67.612 23.896 67.572 24.016C67.54 24.128 67.464 24.224 67.344 24.304C67.016 24.568 66.628 24.768 66.18 24.904C65.732 25.04 65.264 25.108 64.776 25.108Z" fill="#38455D"/>
<rect x="314" y="6" width="30" height="30" rx="15" fill="#64728C" fill-opacity="0.12"/>
<path d="M334.752 25.1626C333.883 24.319 333.022 23.4684 332.155 22.6232C332.084 22.5544 332.071 22.5096 332.124 22.4178C332.997 20.896 333.078 19.3372 332.304 17.7574C331.759 16.6431 330.883 15.8471 329.718 15.3828C328.34 14.8332 326.963 14.8741 325.62 15.5138C324.468 16.0618 323.645 16.927 323.171 18.0872C322.62 19.4367 322.671 20.7811 323.326 22.0911C323.88 23.1972 324.746 24.0001 325.908 24.4571C327.516 25.0893 329.071 24.9369 330.541 24.0325C330.656 23.962 330.709 23.9777 330.796 24.064C331.677 24.9343 332.561 25.802 333.449 26.6669C333.875 27.0838 334.439 27.1113 334.88 26.7385C335.069 26.579 335.155 26.3649 335.207 26.1326V25.8953C335.15 25.5944 334.968 25.3722 334.752 25.1626ZM327.799 23.2391C325.923 23.2216 324.406 21.722 324.428 19.9051C324.448 18.0691 325.967 16.5912 327.82 16.6026C329.696 16.614 331.199 18.0787 331.201 19.9258C331.204 21.7643 329.661 23.2556 327.799 23.2391Z" fill="#64728C"/>
<defs>
<filter id="filter0_d_1081_8752" x="0" y="0" width="400" height="361" filterUnits="userSpaceOnUse" color-interpolation-filters="sRGB">
<feFlood flood-opacity="0" result="BackgroundImageFix"/>
<feColorMatrix in="SourceAlpha" type="matrix" values="0 0 0 0 0 0 0 0 0 0 0 0 0 0 0 0 0 0 127 0" result="hardAlpha"/>
<feOffset dy="4"/>
<feGaussianBlur stdDeviation="25"/>
<feComposite in2="hardAlpha" operator="out"/>
<feColorMatrix type="matrix" values="0 0 0 0 0 0 0 0 0 0 0 0 0 0 0 0 0 0 0.05 0"/>
<feBlend mode="normal" in2="BackgroundImageFix" result="effect1_dropShadow_1081_8752"/>
<feBlend mode="normal" in="SourceGraphic" in2="effect1_dropShadow_1081_8752" result="shape"/>
</filter>
<filter id="filter1_d_1081_8752" x="46" y="46" width="308" height="269" filterUnits="userSpaceOnUse" color-interpolation-filters="sRGB">
<feFlood flood-opacity="0" result="BackgroundImageFix"/>
<feColorMatrix in="SourceAlpha" type="matrix" values="0 0 0 0 0 0 0 0 0 0 0 0 0 0 0 0 0 0 127 0" result="hardAlpha"/>
<feOffset dy="4"/>
<feGaussianBlur stdDeviation="2"/>
<feComposite in2="hardAlpha" operator="out"/>
<feColorMatrix type="matrix" values="0 0 0 0 0 0 0 0 0 0 0 0 0 0 0 0 0 0 0.05 0"/>
<feBlend mode="normal" in2="BackgroundImageFix" result="effect1_dropShadow_1081_8752"/>
<feBlend mode="normal" in="SourceGraphic" in2="effect1_dropShadow_1081_8752" result="shape"/>
</filter>
</defs>
</svg>
