<svg width="310" height="46" viewBox="0 0 310 46" fill="none" xmlns="http://www.w3.org/2000/svg">
<g filter="url(#filter0_d_554_4009)">
<rect x="5.5" y="1.5" width="299" height="35" rx="17.5" fill="white"/>
<rect x="5.5" y="1.5" width="299" height="35" rx="17.5" stroke="#64728C"/>
<path d="M20.612 23.084C20.46 23.084 20.34 23.04 20.252 22.952C20.164 22.856 20.12 22.728 20.12 22.568V15.392H17.42C17.276 15.392 17.164 15.352 17.084 15.272C17.004 15.192 16.964 15.088 16.964 14.96C16.964 14.824 17.004 14.72 17.084 14.648C17.164 14.576 17.276 14.54 17.42 14.54H23.816C23.96 14.54 24.072 14.576 24.152 14.648C24.232 14.72 24.272 14.824 24.272 14.96C24.272 15.096 24.232 15.204 24.152 15.284C24.072 15.356 23.96 15.392 23.816 15.392H21.116V22.568C21.116 22.728 21.072 22.856 20.984 22.952C20.904 23.04 20.78 23.084 20.612 23.084ZM25.5596 25.244C25.4396 25.244 25.3436 25.212 25.2716 25.148C25.1996 25.084 25.1556 24.996 25.1396 24.884C25.1316 24.78 25.1516 24.672 25.1996 24.56L26.0276 22.7V23.12L23.7236 17.768C23.6756 17.648 23.6596 17.536 23.6756 17.432C23.6916 17.328 23.7396 17.244 23.8196 17.18C23.8996 17.116 24.0116 17.084 24.1556 17.084C24.2836 17.084 24.3836 17.112 24.4556 17.168C24.5276 17.224 24.5916 17.324 24.6476 17.468L26.6156 22.292H26.2916L28.2836 17.468C28.3476 17.324 28.4156 17.224 28.4876 17.168C28.5596 17.112 28.6636 17.084 28.7996 17.084C28.9276 17.084 29.0236 17.116 29.0876 17.18C29.1596 17.244 29.1996 17.328 29.2076 17.432C29.2236 17.528 29.2076 17.636 29.1596 17.756L26.0876 24.86C26.0236 25.004 25.9516 25.104 25.8716 25.16C25.7996 25.216 25.6956 25.244 25.5596 25.244ZM30.9076 25.244C30.7476 25.244 30.6276 25.2 30.5476 25.112C30.4676 25.032 30.4276 24.912 30.4276 24.752V17.576C30.4276 17.416 30.4676 17.296 30.5476 17.216C30.6276 17.128 30.7436 17.084 30.8956 17.084C31.0556 17.084 31.1756 17.128 31.2556 17.216C31.3436 17.296 31.3876 17.416 31.3876 17.576V18.716L31.2556 18.548C31.3836 18.092 31.6356 17.732 32.0116 17.468C32.3956 17.196 32.8516 17.06 33.3796 17.06C33.8996 17.06 34.3516 17.184 34.7356 17.432C35.1276 17.672 35.4276 18.02 35.6356 18.476C35.8516 18.924 35.9596 19.46 35.9596 20.084C35.9596 20.7 35.8516 21.236 35.6356 21.692C35.4276 22.14 35.1316 22.488 34.7476 22.736C34.3636 22.984 33.9076 23.108 33.3796 23.108C32.8516 23.108 32.3996 22.976 32.0236 22.712C31.6476 22.44 31.3916 22.08 31.2556 21.632H31.3996V24.752C31.3996 24.912 31.3556 25.032 31.2676 25.112C31.1796 25.2 31.0596 25.244 30.9076 25.244ZM33.1756 22.328C33.5436 22.328 33.8596 22.24 34.1236 22.064C34.3956 21.888 34.6036 21.632 34.7476 21.296C34.8996 20.96 34.9756 20.556 34.9756 20.084C34.9756 19.356 34.8116 18.8 34.4836 18.416C34.1636 18.032 33.7276 17.84 33.1756 17.84C32.8156 17.84 32.4996 17.928 32.2276 18.104C31.9556 18.272 31.7436 18.524 31.5916 18.86C31.4476 19.188 31.3756 19.596 31.3756 20.084C31.3756 20.804 31.5396 21.36 31.8676 21.752C32.1956 22.136 32.6316 22.328 33.1756 22.328ZM40.0517 23.108C39.4357 23.108 38.9037 22.988 38.4557 22.748C38.0157 22.5 37.6717 22.152 37.4237 21.704C37.1837 21.256 37.0637 20.72 37.0637 20.096C37.0637 19.488 37.1837 18.96 37.4237 18.512C37.6637 18.056 37.9917 17.7 38.4077 17.444C38.8317 17.188 39.3197 17.06 39.8717 17.06C40.2637 17.06 40.6157 17.128 40.9277 17.264C41.2397 17.392 41.5037 17.58 41.7197 17.828C41.9437 18.076 42.1117 18.376 42.2237 18.728C42.3437 19.08 42.4037 19.476 42.4037 19.916C42.4037 20.044 42.3677 20.14 42.2957 20.204C42.2237 20.26 42.1197 20.288 41.9837 20.288H37.8077V19.652H41.7557L41.5637 19.808C41.5637 19.376 41.4997 19.012 41.3717 18.716C41.2437 18.412 41.0557 18.18 40.8077 18.02C40.5677 17.86 40.2637 17.78 39.8957 17.78C39.4877 17.78 39.1397 17.876 38.8517 18.068C38.5717 18.252 38.3597 18.512 38.2157 18.848C38.0717 19.176 37.9997 19.56 37.9997 20V20.072C37.9997 20.808 38.1757 21.368 38.5277 21.752C38.8877 22.136 39.3957 22.328 40.0517 22.328C40.3237 22.328 40.5917 22.292 40.8557 22.22C41.1277 22.148 41.3917 22.028 41.6477 21.86C41.7597 21.788 41.8597 21.756 41.9477 21.764C42.0437 21.764 42.1197 21.792 42.1757 21.848C42.2317 21.896 42.2677 21.96 42.2837 22.04C42.3077 22.112 42.2997 22.192 42.2597 22.28C42.2277 22.368 42.1597 22.444 42.0557 22.508C41.7917 22.7 41.4797 22.848 41.1197 22.952C40.7597 23.056 40.4037 23.108 40.0517 23.108ZM49.2442 23.108C48.7882 23.108 48.4042 23.028 48.0922 22.868C47.7882 22.7 47.5602 22.46 47.4082 22.148C47.2562 21.828 47.1802 21.44 47.1802 20.984V17.924H46.3762C46.2402 17.924 46.1362 17.892 46.0642 17.828C45.9922 17.756 45.9562 17.66 45.9562 17.54C45.9562 17.42 45.9922 17.328 46.0642 17.264C46.1362 17.2 46.2402 17.168 46.3762 17.168H47.1802V15.788C47.1802 15.628 47.2242 15.508 47.3122 15.428C47.4002 15.34 47.5202 15.296 47.6722 15.296C47.8242 15.296 47.9402 15.34 48.0202 15.428C48.1082 15.508 48.1522 15.628 48.1522 15.788V17.168H49.6642C49.8002 17.168 49.9042 17.2 49.9762 17.264C50.0482 17.328 50.0842 17.42 50.0842 17.54C50.0842 17.66 50.0482 17.756 49.9762 17.828C49.9042 17.892 49.8002 17.924 49.6642 17.924H48.1522V20.888C48.1522 21.344 48.2482 21.692 48.4402 21.932C48.6322 22.164 48.9442 22.28 49.3762 22.28C49.5282 22.28 49.6562 22.264 49.7602 22.232C49.8722 22.2 49.9642 22.184 50.0362 22.184C50.1082 22.176 50.1682 22.2 50.2162 22.256C50.2642 22.312 50.2882 22.408 50.2882 22.544C50.2882 22.64 50.2682 22.728 50.2282 22.808C50.1962 22.888 50.1362 22.944 50.0482 22.976C49.9522 23.008 49.8242 23.036 49.6642 23.06C49.5122 23.092 49.3722 23.108 49.2442 23.108ZM53.4649 23.108C52.8969 23.108 52.4049 22.984 51.9889 22.736C51.5729 22.488 51.2489 22.14 51.0169 21.692C50.7929 21.236 50.6809 20.7 50.6809 20.084C50.6809 19.62 50.7449 19.204 50.8729 18.836C51.0009 18.46 51.1889 18.14 51.4369 17.876C51.6849 17.612 51.9769 17.412 52.3129 17.276C52.6569 17.132 53.0409 17.06 53.4649 17.06C54.0329 17.06 54.5249 17.184 54.9409 17.432C55.3569 17.68 55.6769 18.032 55.9009 18.488C56.1329 18.936 56.2489 19.468 56.2489 20.084C56.2489 20.548 56.1849 20.964 56.0569 21.332C55.9289 21.7 55.7409 22.02 55.4929 22.292C55.2449 22.556 54.9489 22.76 54.6049 22.904C54.2689 23.04 53.8889 23.108 53.4649 23.108ZM53.4649 22.328C53.8249 22.328 54.1409 22.24 54.4129 22.064C54.6849 21.888 54.8929 21.632 55.0369 21.296C55.1889 20.96 55.2649 20.556 55.2649 20.084C55.2649 19.356 55.1009 18.8 54.7729 18.416C54.4529 18.032 54.0169 17.84 53.4649 17.84C53.0969 17.84 52.7769 17.928 52.5049 18.104C52.2409 18.272 52.0329 18.524 51.8809 18.86C51.7369 19.188 51.6649 19.596 51.6649 20.084C51.6649 20.804 51.8289 21.36 52.1569 21.752C52.4849 22.136 52.9209 22.328 53.4649 22.328ZM63.6706 23.108C63.2946 23.108 62.9266 23.076 62.5666 23.012C62.2066 22.948 61.8706 22.856 61.5586 22.736C61.2546 22.616 60.9786 22.464 60.7306 22.28C60.6346 22.208 60.5666 22.128 60.5266 22.04C60.4946 21.944 60.4866 21.852 60.5026 21.764C60.5266 21.668 60.5666 21.588 60.6226 21.524C60.6866 21.46 60.7626 21.424 60.8506 21.416C60.9386 21.408 61.0346 21.436 61.1386 21.5C61.4986 21.756 61.8826 21.944 62.2906 22.064C62.6986 22.176 63.1586 22.232 63.6706 22.232C64.3906 22.232 64.9226 22.1 65.2666 21.836C65.6186 21.564 65.7946 21.208 65.7946 20.768C65.7946 20.408 65.6666 20.128 65.4106 19.928C65.1626 19.72 64.7426 19.556 64.1506 19.436L62.9026 19.184C62.1506 19.024 61.5866 18.764 61.2106 18.404C60.8426 18.036 60.6586 17.548 60.6586 16.94C60.6586 16.564 60.7346 16.224 60.8866 15.92C61.0386 15.608 61.2506 15.344 61.5226 15.128C61.7946 14.904 62.1186 14.732 62.4946 14.612C62.8706 14.492 63.2866 14.432 63.7426 14.432C64.2466 14.432 64.7146 14.504 65.1466 14.648C65.5866 14.784 65.9826 14.992 66.3346 15.272C66.4226 15.344 66.4826 15.428 66.5146 15.524C66.5466 15.612 66.5506 15.7 66.5266 15.788C66.5026 15.868 66.4586 15.936 66.3946 15.992C66.3386 16.048 66.2626 16.08 66.1666 16.088C66.0786 16.096 65.9786 16.064 65.8666 15.992C65.5466 15.752 65.2146 15.58 64.8706 15.476C64.5266 15.364 64.1466 15.308 63.7306 15.308C63.3066 15.308 62.9386 15.372 62.6266 15.5C62.3226 15.628 62.0826 15.816 61.9066 16.064C61.7386 16.304 61.6546 16.584 61.6546 16.904C61.6546 17.288 61.7706 17.592 62.0026 17.816C62.2426 18.04 62.6306 18.204 63.1666 18.308L64.4146 18.572C65.2226 18.74 65.8186 18.996 66.2026 19.34C66.5946 19.676 66.7906 20.136 66.7906 20.72C66.7906 21.072 66.7186 21.396 66.5746 21.692C66.4306 21.988 66.2226 22.244 65.9506 22.46C65.6786 22.668 65.3506 22.828 64.9666 22.94C64.5826 23.052 64.1506 23.108 63.6706 23.108ZM70.8134 23.108C70.1974 23.108 69.6654 22.988 69.2174 22.748C68.7774 22.5 68.4334 22.152 68.1854 21.704C67.9454 21.256 67.8254 20.72 67.8254 20.096C67.8254 19.488 67.9454 18.96 68.1854 18.512C68.4254 18.056 68.7534 17.7 69.1694 17.444C69.5934 17.188 70.0814 17.06 70.6334 17.06C71.0254 17.06 71.3774 17.128 71.6894 17.264C72.0014 17.392 72.2654 17.58 72.4814 17.828C72.7054 18.076 72.8734 18.376 72.9854 18.728C73.1054 19.08 73.1654 19.476 73.1654 19.916C73.1654 20.044 73.1294 20.14 73.0574 20.204C72.9854 20.26 72.8814 20.288 72.7454 20.288H68.5694V19.652H72.5174L72.3254 19.808C72.3254 19.376 72.2614 19.012 72.1334 18.716C72.0054 18.412 71.8174 18.18 71.5694 18.02C71.3294 17.86 71.0254 17.78 70.6574 17.78C70.2494 17.78 69.9014 17.876 69.6134 18.068C69.3334 18.252 69.1214 18.512 68.9774 18.848C68.8334 19.176 68.7614 19.56 68.7614 20V20.072C68.7614 20.808 68.9374 21.368 69.2894 21.752C69.6494 22.136 70.1574 22.328 70.8134 22.328C71.0854 22.328 71.3534 22.292 71.6174 22.22C71.8894 22.148 72.1534 22.028 72.4094 21.86C72.5214 21.788 72.6214 21.756 72.7094 21.764C72.8054 21.764 72.8814 21.792 72.9374 21.848C72.9934 21.896 73.0294 21.96 73.0454 22.04C73.0694 22.112 73.0614 22.192 73.0214 22.28C72.9894 22.368 72.9214 22.444 72.8174 22.508C72.5534 22.7 72.2414 22.848 71.8814 22.952C71.5214 23.056 71.1654 23.108 70.8134 23.108ZM76.4082 23.108C76.0082 23.108 75.6482 23.032 75.3282 22.88C75.0162 22.72 74.7682 22.504 74.5842 22.232C74.4002 21.96 74.3082 21.656 74.3082 21.32C74.3082 20.888 74.4162 20.548 74.6322 20.3C74.8562 20.052 75.2202 19.876 75.7242 19.772C76.2362 19.668 76.9322 19.616 77.8122 19.616H78.3522V20.252H77.8242C77.1762 20.252 76.6642 20.284 76.2882 20.348C75.9202 20.404 75.6602 20.504 75.5082 20.648C75.3642 20.792 75.2922 20.996 75.2922 21.26C75.2922 21.588 75.4042 21.856 75.6282 22.064C75.8602 22.272 76.1722 22.376 76.5642 22.376C76.8842 22.376 77.1642 22.3 77.4042 22.148C77.6522 21.996 77.8442 21.788 77.9802 21.524C78.1242 21.26 78.1962 20.956 78.1962 20.612V19.244C78.1962 18.748 78.0962 18.392 77.8962 18.176C77.6962 17.952 77.3682 17.84 76.9122 17.84C76.6322 17.84 76.3522 17.876 76.0722 17.948C75.7922 18.02 75.4962 18.136 75.1842 18.296C75.0722 18.352 74.9762 18.372 74.8962 18.356C74.8162 18.332 74.7522 18.288 74.7042 18.224C74.6562 18.16 74.6282 18.088 74.6202 18.008C74.6122 17.92 74.6282 17.836 74.6682 17.756C74.7162 17.676 74.7882 17.612 74.8842 17.564C75.2362 17.388 75.5842 17.26 75.9282 17.18C76.2722 17.1 76.6002 17.06 76.9122 17.06C77.4162 17.06 77.8322 17.144 78.1602 17.312C78.4882 17.472 78.7322 17.72 78.8922 18.056C79.0522 18.384 79.1322 18.808 79.1322 19.328V22.58C79.1322 22.74 79.0922 22.864 79.0122 22.952C78.9402 23.04 78.8322 23.084 78.6882 23.084C78.5362 23.084 78.4202 23.04 78.3402 22.952C78.2602 22.864 78.2202 22.74 78.2202 22.58V21.644H78.3282C78.2642 21.948 78.1402 22.208 77.9562 22.424C77.7802 22.64 77.5602 22.808 77.2962 22.928C77.0322 23.048 76.7362 23.108 76.4082 23.108ZM81.4274 23.084C81.2674 23.084 81.1434 23.04 81.0554 22.952C80.9754 22.864 80.9354 22.74 80.9354 22.58V17.576C80.9354 17.416 80.9754 17.296 81.0554 17.216C81.1354 17.128 81.2514 17.084 81.4034 17.084C81.5554 17.084 81.6714 17.128 81.7514 17.216C81.8394 17.296 81.8834 17.416 81.8834 17.576V18.548H81.7634C81.8914 18.076 82.1354 17.712 82.4954 17.456C82.8554 17.2 83.2994 17.064 83.8274 17.048C83.9474 17.04 84.0434 17.068 84.1154 17.132C84.1874 17.188 84.2274 17.288 84.2354 17.432C84.2434 17.568 84.2114 17.676 84.1394 17.756C84.0674 17.836 83.9554 17.884 83.8034 17.9L83.6114 17.924C83.0674 17.972 82.6474 18.148 82.3514 18.452C82.0634 18.748 81.9194 19.156 81.9194 19.676V22.58C81.9194 22.74 81.8754 22.864 81.7874 22.952C81.7074 23.04 81.5874 23.084 81.4274 23.084ZM87.6379 23.108C87.0539 23.108 86.5499 22.98 86.1259 22.724C85.7019 22.468 85.3739 22.112 85.1419 21.656C84.9179 21.192 84.8059 20.656 84.8059 20.048C84.8059 19.584 84.8699 19.168 84.9979 18.8C85.1259 18.432 85.3139 18.12 85.5619 17.864C85.8099 17.6 86.1059 17.4 86.4499 17.264C86.8019 17.128 87.1979 17.06 87.6379 17.06C87.9259 17.06 88.2259 17.104 88.5379 17.192C88.8499 17.28 89.1339 17.432 89.3899 17.648C89.4699 17.704 89.5219 17.772 89.5459 17.852C89.5699 17.932 89.5699 18.012 89.5459 18.092C89.5219 18.164 89.4819 18.228 89.4259 18.284C89.3699 18.332 89.2979 18.36 89.2099 18.368C89.1299 18.376 89.0459 18.348 88.9579 18.284C88.7499 18.124 88.5379 18.012 88.3219 17.948C88.1059 17.884 87.8979 17.852 87.6979 17.852C87.3859 17.852 87.1139 17.904 86.8819 18.008C86.6499 18.104 86.4539 18.244 86.2939 18.428C86.1339 18.612 86.0099 18.84 85.9219 19.112C85.8419 19.384 85.8019 19.7 85.8019 20.06C85.8019 20.756 85.9659 21.308 86.2939 21.716C86.6219 22.116 87.0899 22.316 87.6979 22.316C87.8979 22.316 88.1019 22.284 88.3099 22.22C88.5259 22.156 88.7419 22.044 88.9579 21.884C89.0459 21.82 89.1299 21.792 89.2099 21.8C89.2899 21.808 89.3579 21.84 89.4139 21.896C89.4699 21.944 89.5059 22.008 89.5219 22.088C89.5459 22.168 89.5459 22.248 89.5219 22.328C89.4979 22.4 89.4459 22.464 89.3659 22.52C89.1099 22.728 88.8299 22.88 88.5259 22.976C88.2219 23.064 87.9259 23.108 87.6379 23.108ZM91.2006 23.084C91.0406 23.084 90.9206 23.04 90.8406 22.952C90.7606 22.864 90.7206 22.74 90.7206 22.58V14.948C90.7206 14.788 90.7606 14.668 90.8406 14.588C90.9206 14.5 91.0406 14.456 91.2006 14.456C91.3526 14.456 91.4726 14.5 91.5606 14.588C91.6486 14.668 91.6926 14.788 91.6926 14.948V18.464H91.5366C91.7046 18 91.9766 17.652 92.3526 17.42C92.7366 17.18 93.1766 17.06 93.6726 17.06C94.1366 17.06 94.5206 17.144 94.8246 17.312C95.1366 17.48 95.3686 17.736 95.5206 18.08C95.6726 18.416 95.7486 18.844 95.7486 19.364V22.58C95.7486 22.74 95.7046 22.864 95.6166 22.952C95.5366 23.04 95.4206 23.084 95.2686 23.084C95.1086 23.084 94.9846 23.04 94.8966 22.952C94.8166 22.864 94.7766 22.74 94.7766 22.58V19.424C94.7766 18.88 94.6686 18.484 94.4526 18.236C94.2446 17.98 93.9086 17.852 93.4446 17.852C92.9086 17.852 92.4806 18.02 92.1606 18.356C91.8486 18.684 91.6926 19.124 91.6926 19.676V22.58C91.6926 22.916 91.5286 23.084 91.2006 23.084Z" fill="#929BAA"/>
<rect x="273" y="5" width="28" height="28" rx="14" fill="#64728C" fill-opacity="0.12"/>
<path d="M292.752 23.1626C291.883 22.319 291.022 21.4684 290.155 20.6232C290.084 20.5544 290.071 20.5096 290.124 20.4178C290.997 18.896 291.078 17.3372 290.304 15.7574C289.759 14.6431 288.883 13.8471 287.718 13.3828C286.34 12.8332 284.963 12.8741 283.62 13.5138C282.468 14.0618 281.645 14.927 281.171 16.0872C280.62 17.4367 280.671 18.7811 281.326 20.0911C281.88 21.1972 282.746 22.0001 283.908 22.4571C285.516 23.0893 287.071 22.9369 288.541 22.0325C288.656 21.962 288.709 21.9777 288.796 22.064C289.677 22.9343 290.561 23.802 291.449 24.6669C291.875 25.0838 292.439 25.1113 292.88 24.7385C293.069 24.579 293.155 24.3649 293.207 24.1326V23.8953C293.15 23.5944 292.968 23.3722 292.752 23.1626ZM285.799 21.2391C283.923 21.2216 282.406 19.722 282.428 17.9051C282.448 16.0691 283.967 14.5912 285.82 14.6026C287.696 14.614 289.199 16.0787 289.201 17.9258C289.204 19.7643 287.661 21.2556 285.799 21.2391Z" fill="#64728C"/>
</g>
<defs>
<filter id="filter0_d_554_4009" x="0" y="0" width="310" height="46" filterUnits="userSpaceOnUse" color-interpolation-filters="sRGB">
<feFlood flood-opacity="0" result="BackgroundImageFix"/>
<feColorMatrix in="SourceAlpha" type="matrix" values="0 0 0 0 0 0 0 0 0 0 0 0 0 0 0 0 0 0 127 0" result="hardAlpha"/>
<feOffset dy="4"/>
<feGaussianBlur stdDeviation="2.5"/>
<feComposite in2="hardAlpha" operator="out"/>
<feColorMatrix type="matrix" values="0 0 0 0 0.392157 0 0 0 0 0.447059 0 0 0 0 0.54902 0 0 0 0.1 0"/>
<feBlend mode="normal" in2="BackgroundImageFix" result="effect1_dropShadow_554_4009"/>
<feBlend mode="normal" in="SourceGraphic" in2="effect1_dropShadow_554_4009" result="shape"/>
</filter>
</defs>
</svg>
