<svg width="355" height="65" viewBox="0 0 355 65" fill="none" xmlns="http://www.w3.org/2000/svg">
<mask id="path-1-inside-1_1313_3779" fill="white">
<path d="M0 30.5C0 13.6553 13.6553 0 30.5 0H324.5C341.345 0 355 13.6553 355 30.5V30.5C355 47.3447 341.345 61 324.5 61H30.5C13.6553 61 0 47.3447 0 30.5V30.5Z"/>
</mask>
<g filter="url(#filter0_i_1313_3779)">
<path d="M0 30.5C0 13.6553 13.6553 0 30.5 0H324.5C341.345 0 355 13.6553 355 30.5V30.5C355 47.3447 341.345 61 324.5 61H30.5C13.6553 61 0 47.3447 0 30.5V30.5Z" fill="#64728C" fill-opacity="0.11"/>
</g>
<path d="M30.5 1H324.5V-1H30.5V1ZM324.5 60H30.5V62H324.5V60ZM30.5 60C14.2076 60 1 46.7924 1 30.5H-1C-1 47.897 13.103 62 30.5 62V60ZM354 30.5C354 46.7924 340.792 60 324.5 60V62C341.897 62 356 47.897 356 30.5H354ZM324.5 1C340.792 1 354 14.2076 354 30.5H356C356 13.103 341.897 -1 324.5 -1V1ZM30.5 -1C13.103 -1 -1 13.103 -1 30.5H1C1 14.2076 14.2076 1 30.5 1V-1Z" fill="url(#paint0_linear_1313_3779)" mask="url(#path-1-inside-1_1313_3779)"/>
<rect x="1" y="2" width="201" height="57" rx="28.5" fill="url(#paint1_linear_1313_3779)" fill-opacity="0.8"/>
<rect x="1" y="2" width="201" height="57" rx="28.5" fill="url(#paint2_radial_1313_3779)" fill-opacity="0.2"/>
<g filter="url(#filter1_d_1313_3779)">
<rect x="147" y="4" width="53" height="53" rx="26.5" fill="white"/>
<rect x="147.5" y="4.5" width="52" height="52" rx="26" stroke="url(#paint3_linear_1313_3779)" stroke-opacity="0.5"/>
</g>
<defs>
<filter id="filter0_i_1313_3779" x="0" y="0" width="355" height="63" filterUnits="userSpaceOnUse" color-interpolation-filters="sRGB">
<feFlood flood-opacity="0" result="BackgroundImageFix"/>
<feBlend mode="normal" in="SourceGraphic" in2="BackgroundImageFix" result="shape"/>
<feColorMatrix in="SourceAlpha" type="matrix" values="0 0 0 0 0 0 0 0 0 0 0 0 0 0 0 0 0 0 127 0" result="hardAlpha"/>
<feOffset dy="2"/>
<feGaussianBlur stdDeviation="2.5"/>
<feComposite in2="hardAlpha" operator="arithmetic" k2="-1" k3="1"/>
<feColorMatrix type="matrix" values="0 0 0 0 0 0 0 0 0 0 0 0 0 0 0 0 0 0 0.05 0"/>
<feBlend mode="normal" in2="shape" result="effect1_innerShadow_1313_3779"/>
</filter>
<filter id="filter1_d_1313_3779" x="143" y="4" width="61" height="61" filterUnits="userSpaceOnUse" color-interpolation-filters="sRGB">
<feFlood flood-opacity="0" result="BackgroundImageFix"/>
<feColorMatrix in="SourceAlpha" type="matrix" values="0 0 0 0 0 0 0 0 0 0 0 0 0 0 0 0 0 0 127 0" result="hardAlpha"/>
<feOffset dy="4"/>
<feGaussianBlur stdDeviation="2"/>
<feComposite in2="hardAlpha" operator="out"/>
<feColorMatrix type="matrix" values="0 0 0 0 0 0 0 0 0 0 0 0 0 0 0 0 0 0 0.15 0"/>
<feBlend mode="normal" in2="BackgroundImageFix" result="effect1_dropShadow_1313_3779"/>
<feBlend mode="normal" in="SourceGraphic" in2="effect1_dropShadow_1313_3779" result="shape"/>
</filter>
<linearGradient id="paint0_linear_1313_3779" x1="177.959" y1="65.575" x2="177.959" y2="8.92054e-07" gradientUnits="userSpaceOnUse">
<stop stop-color="#64728C" stop-opacity="0.05"/>
<stop offset="1" stop-color="white" stop-opacity="0.77"/>
</linearGradient>
<linearGradient id="paint1_linear_1313_3779" x1="1" y1="30.5" x2="202" y2="30" gradientUnits="userSpaceOnUse">
<stop stop-color="#64728C"/>
<stop offset="1" stop-color="#64728C"/>
</linearGradient>
<radialGradient id="paint2_radial_1313_3779" cx="0" cy="0" r="1" gradientUnits="userSpaceOnUse" gradientTransform="translate(101.5 30.5) scale(100.5 28.5)">
<stop stop-opacity="0"/>
<stop offset="1" stop-color="white" stop-opacity="0.6"/>
</radialGradient>
<linearGradient id="paint3_linear_1313_3779" x1="173.5" y1="4" x2="173.5" y2="57" gradientUnits="userSpaceOnUse">
<stop stop-color="white"/>
<stop offset="1" stop-color="#341101" stop-opacity="0.08"/>
</linearGradient>
</defs>
</svg>
