<svg width="371" height="48" viewBox="0 0 371 48" fill="none" xmlns="http://www.w3.org/2000/svg">
<rect y="10" width="371" height="12" rx="6" fill="#057FF0" fill-opacity="0.16"/>
<rect x="3" y="12" width="282" height="8" rx="4" fill="#057FF0"/>
<g filter="url(#filter0_d_1313_3785)">
<path d="M261 15C261 6.71573 267.716 0 276 0V0C284.284 0 291 6.71573 291 15V15C291 23.2843 284.284 30 276 30V30C267.716 30 261 23.2843 261 15V15Z" fill="white"/>
<path d="M276 29C268.268 29 262 22.732 262 15C262 7.26801 268.268 1 276 1C283.732 1 290 7.26801 290 15C290 22.732 283.732 29 276 29Z" stroke="#057FF0" stroke-width="2"/>
</g>
<defs>
<filter id="filter0_d_1313_3785" x="257" y="0" width="38" height="38" filterUnits="userSpaceOnUse" color-interpolation-filters="sRGB">
<feFlood flood-opacity="0" result="BackgroundImageFix"/>
<feColorMatrix in="SourceAlpha" type="matrix" values="0 0 0 0 0 0 0 0 0 0 0 0 0 0 0 0 0 0 127 0" result="hardAlpha"/>
<feOffset dy="4"/>
<feGaussianBlur stdDeviation="2"/>
<feComposite in2="hardAlpha" operator="out"/>
<feColorMatrix type="matrix" values="0 0 0 0 0 0 0 0 0 0 0 0 0 0 0 0 0 0 0.15 0"/>
<feBlend mode="normal" in2="BackgroundImageFix" result="effect1_dropShadow_1313_3785"/>
<feBlend mode="normal" in="SourceGraphic" in2="effect1_dropShadow_1313_3785" result="shape"/>
</filter>
</defs>
</svg>
