<svg width="419" height="48" viewBox="0 0 419 48" fill="none" xmlns="http://www.w3.org/2000/svg">
<path d="M394.34 21C394.08 21 393.875 20.93 393.725 20.79C393.585 20.64 393.515 20.44 393.515 20.19C393.515 19.93 393.585 19.735 393.725 19.605C393.875 19.475 394.08 19.41 394.34 19.41H396.02V12.045H396.95L394.745 13.38C394.555 13.49 394.375 13.535 394.205 13.515C394.045 13.485 393.905 13.415 393.785 13.305C393.675 13.185 393.6 13.045 393.56 12.885C393.52 12.725 393.53 12.565 393.59 12.405C393.66 12.235 393.79 12.095 393.98 11.985L396.05 10.74C396.25 10.62 396.45 10.52 396.65 10.44C396.85 10.35 397.035 10.305 397.205 10.305C397.415 10.305 397.59 10.365 397.73 10.485C397.87 10.595 397.94 10.78 397.94 11.04V19.41H399.47C399.73 19.41 399.93 19.475 400.07 19.605C400.22 19.735 400.295 19.93 400.295 20.19C400.295 20.45 400.22 20.65 400.07 20.79C399.93 20.93 399.73 21 399.47 21H394.34ZM405.494 21.15C404.244 21.15 403.289 20.68 402.629 19.74C401.969 18.79 401.639 17.44 401.639 15.69C401.639 14.51 401.784 13.52 402.074 12.72C402.374 11.91 402.809 11.3 403.379 10.89C403.959 10.48 404.664 10.275 405.494 10.275C406.754 10.275 407.709 10.735 408.359 11.655C409.019 12.575 409.349 13.915 409.349 15.675C409.349 16.845 409.199 17.84 408.899 18.66C408.609 19.47 408.179 20.09 407.609 20.52C407.039 20.94 406.334 21.15 405.494 21.15ZM405.494 19.575C406.174 19.575 406.674 19.26 406.994 18.63C407.324 18 407.489 17.015 407.489 15.675C407.489 14.335 407.324 13.365 406.994 12.765C406.674 12.155 406.174 11.85 405.494 11.85C404.824 11.85 404.324 12.155 403.994 12.765C403.664 13.365 403.499 14.335 403.499 15.675C403.499 17.015 403.664 18 403.994 18.63C404.324 19.26 404.824 19.575 405.494 19.575ZM414.488 21.15C413.238 21.15 412.283 20.68 411.623 19.74C410.963 18.79 410.633 17.44 410.633 15.69C410.633 14.51 410.778 13.52 411.068 12.72C411.368 11.91 411.803 11.3 412.373 10.89C412.953 10.48 413.658 10.275 414.488 10.275C415.748 10.275 416.703 10.735 417.353 11.655C418.013 12.575 418.343 13.915 418.343 15.675C418.343 16.845 418.193 17.84 417.893 18.66C417.603 19.47 417.173 20.09 416.603 20.52C416.033 20.94 415.328 21.15 414.488 21.15ZM414.488 19.575C415.168 19.575 415.668 19.26 415.988 18.63C416.318 18 416.483 17.015 416.483 15.675C416.483 14.335 416.318 13.365 415.988 12.765C415.668 12.155 415.168 11.85 414.488 11.85C413.818 11.85 413.318 12.155 412.988 12.765C412.658 13.365 412.493 14.335 412.493 15.675C412.493 17.015 412.658 18 412.988 18.63C413.318 19.26 413.818 19.575 414.488 19.575Z" fill="#64728C"/>
<path d="M4.5 21.15C3.25 21.15 2.295 20.68 1.635 19.74C0.975 18.79 0.645 17.44 0.645 15.69C0.645 14.51 0.79 13.52 1.08 12.72C1.38 11.91 1.815 11.3 2.385 10.89C2.965 10.48 3.67 10.275 4.5 10.275C5.76 10.275 6.715 10.735 7.365 11.655C8.025 12.575 8.355 13.915 8.355 15.675C8.355 16.845 8.205 17.84 7.905 18.66C7.615 19.47 7.185 20.09 6.615 20.52C6.045 20.94 5.34 21.15 4.5 21.15ZM4.5 19.575C5.18 19.575 5.68 19.26 6 18.63C6.33 18 6.495 17.015 6.495 15.675C6.495 14.335 6.33 13.365 6 12.765C5.68 12.155 5.18 11.85 4.5 11.85C3.83 11.85 3.33 12.155 3 12.765C2.67 13.365 2.505 14.335 2.505 15.675C2.505 17.015 2.67 18 3 18.63C3.33 19.26 3.83 19.575 4.5 19.575Z" fill="#64728C"/>
<rect x="15" y="10" width="371" height="12" rx="6" fill="#34BC40" fill-opacity="0.17"/>
<rect x="17" y="12" width="185" height="8" rx="4" fill="#34BC40"/>
<g filter="url(#filter0_d_1315_3795)">
<path d="M183 15C183 6.71573 189.716 0 198 0V0C206.284 0 213 6.71573 213 15V15C213 23.2843 206.284 30 198 30V30C189.716 30 183 23.2843 183 15V15Z" fill="white"/>
<path d="M198 29C190.268 29 184 22.732 184 15C184 7.26801 190.268 1 198 1C205.732 1 212 7.26801 212 15C212 22.732 205.732 29 198 29Z" stroke="#34BC40" stroke-width="2"/>
</g>
<defs>
<filter id="filter0_d_1315_3795" x="179" y="0" width="38" height="38" filterUnits="userSpaceOnUse" color-interpolation-filters="sRGB">
<feFlood flood-opacity="0" result="BackgroundImageFix"/>
<feColorMatrix in="SourceAlpha" type="matrix" values="0 0 0 0 0 0 0 0 0 0 0 0 0 0 0 0 0 0 127 0" result="hardAlpha"/>
<feOffset dy="4"/>
<feGaussianBlur stdDeviation="2"/>
<feComposite in2="hardAlpha" operator="out"/>
<feColorMatrix type="matrix" values="0 0 0 0 0 0 0 0 0 0 0 0 0 0 0 0 0 0 0.15 0"/>
<feBlend mode="normal" in2="BackgroundImageFix" result="effect1_dropShadow_1315_3795"/>
<feBlend mode="normal" in="SourceGraphic" in2="effect1_dropShadow_1315_3795" result="shape"/>
</filter>
</defs>
</svg>
