<svg width="371" height="54" viewBox="0 0 371 54" fill="none" xmlns="http://www.w3.org/2000/svg">
<path d="M176.995 49C176.675 49 176.44 48.93 176.29 48.79C176.15 48.64 176.08 48.425 176.08 48.145C176.08 47.975 176.125 47.81 176.215 47.65C176.305 47.49 176.435 47.32 176.605 47.14L179.62 43.93C180.08 43.45 180.41 43.015 180.61 42.625C180.81 42.225 180.91 41.825 180.91 41.425C180.91 40.925 180.75 40.545 180.43 40.285C180.12 40.025 179.665 39.895 179.065 39.895C178.725 39.895 178.385 39.945 178.045 40.045C177.705 40.135 177.36 40.295 177.01 40.525C176.83 40.645 176.66 40.695 176.5 40.675C176.35 40.655 176.215 40.59 176.095 40.48C175.985 40.37 175.91 40.235 175.87 40.075C175.83 39.915 175.835 39.755 175.885 39.595C175.945 39.425 176.065 39.28 176.245 39.16C176.675 38.87 177.155 38.65 177.685 38.5C178.225 38.35 178.765 38.275 179.305 38.275C180.065 38.275 180.705 38.39 181.225 38.62C181.745 38.85 182.14 39.185 182.41 39.625C182.68 40.065 182.815 40.6 182.815 41.23C182.815 41.65 182.745 42.06 182.605 42.46C182.475 42.86 182.27 43.265 181.99 43.675C181.72 44.085 181.365 44.52 180.925 44.98L178.105 47.92V47.41H182.515C182.785 47.41 182.99 47.475 183.13 47.605C183.27 47.735 183.34 47.93 183.34 48.19C183.34 48.45 183.27 48.65 183.13 48.79C182.99 48.93 182.785 49 182.515 49H176.995ZM188.584 49.15C188.054 49.15 187.514 49.08 186.964 48.94C186.414 48.8 185.909 48.585 185.449 48.295C185.259 48.175 185.129 48.035 185.059 47.875C184.999 47.705 184.984 47.54 185.014 47.38C185.054 47.21 185.129 47.07 185.239 46.96C185.359 46.84 185.499 46.77 185.659 46.75C185.829 46.73 186.014 46.775 186.214 46.885C186.584 47.095 186.959 47.255 187.339 47.365C187.719 47.475 188.124 47.53 188.554 47.53C188.974 47.53 189.334 47.455 189.634 47.305C189.934 47.155 190.164 46.945 190.324 46.675C190.484 46.405 190.564 46.09 190.564 45.73C190.564 45.17 190.394 44.72 190.054 44.38C189.714 44.03 189.249 43.855 188.659 43.855C188.339 43.855 188.029 43.91 187.729 44.02C187.429 44.12 187.134 44.3 186.844 44.56C186.754 44.64 186.639 44.72 186.499 44.8C186.359 44.87 186.209 44.905 186.049 44.905C185.799 44.905 185.609 44.84 185.479 44.71C185.349 44.58 185.284 44.4 185.284 44.17V39.265C185.284 38.995 185.354 38.79 185.494 38.65C185.644 38.5 185.854 38.425 186.124 38.425H191.059C191.329 38.425 191.534 38.495 191.674 38.635C191.824 38.765 191.899 38.96 191.899 39.22C191.899 39.47 191.824 39.665 191.674 39.805C191.534 39.945 191.329 40.015 191.059 40.015H187.159V43.375H186.664C186.924 43.025 187.269 42.755 187.699 42.565C188.129 42.375 188.599 42.28 189.109 42.28C189.779 42.28 190.359 42.425 190.849 42.715C191.349 42.995 191.734 43.39 192.004 43.9C192.284 44.4 192.424 44.985 192.424 45.655C192.424 46.345 192.269 46.955 191.959 47.485C191.649 48.005 191.204 48.415 190.624 48.715C190.054 49.005 189.374 49.15 188.584 49.15Z" fill="#64728C"/>
<path d="M92.34 49C92.08 49 91.875 48.93 91.725 48.79C91.585 48.64 91.515 48.44 91.515 48.19C91.515 47.93 91.585 47.735 91.725 47.605C91.875 47.475 92.08 47.41 92.34 47.41H94.02V40.045H94.95L92.745 41.38C92.555 41.49 92.375 41.535 92.205 41.515C92.045 41.485 91.905 41.415 91.785 41.305C91.675 41.185 91.6 41.045 91.56 40.885C91.52 40.725 91.53 40.565 91.59 40.405C91.66 40.235 91.79 40.095 91.98 39.985L94.05 38.74C94.25 38.62 94.45 38.52 94.65 38.44C94.85 38.35 95.035 38.305 95.205 38.305C95.415 38.305 95.59 38.365 95.73 38.485C95.87 38.595 95.94 38.78 95.94 39.04V47.41H97.47C97.73 47.41 97.93 47.475 98.07 47.605C98.22 47.735 98.295 47.93 98.295 48.19C98.295 48.45 98.22 48.65 98.07 48.79C97.93 48.93 97.73 49 97.47 49H92.34ZM100.989 49C100.669 49 100.434 48.93 100.284 48.79C100.144 48.64 100.074 48.425 100.074 48.145C100.074 47.975 100.119 47.81 100.209 47.65C100.299 47.49 100.429 47.32 100.599 47.14L103.614 43.93C104.074 43.45 104.404 43.015 104.604 42.625C104.804 42.225 104.904 41.825 104.904 41.425C104.904 40.925 104.744 40.545 104.424 40.285C104.114 40.025 103.659 39.895 103.059 39.895C102.719 39.895 102.379 39.945 102.039 40.045C101.699 40.135 101.354 40.295 101.004 40.525C100.824 40.645 100.654 40.695 100.494 40.675C100.344 40.655 100.209 40.59 100.089 40.48C99.9791 40.37 99.9041 40.235 99.8641 40.075C99.8241 39.915 99.8291 39.755 99.8791 39.595C99.9391 39.425 100.059 39.28 100.239 39.16C100.669 38.87 101.149 38.65 101.679 38.5C102.219 38.35 102.759 38.275 103.299 38.275C104.059 38.275 104.699 38.39 105.219 38.62C105.739 38.85 106.134 39.185 106.404 39.625C106.674 40.065 106.809 40.6 106.809 41.23C106.809 41.65 106.739 42.06 106.599 42.46C106.469 42.86 106.264 43.265 105.984 43.675C105.714 44.085 105.359 44.52 104.919 44.98L102.099 47.92V47.41H106.509C106.779 47.41 106.984 47.475 107.124 47.605C107.264 47.735 107.334 47.93 107.334 48.19C107.334 48.45 107.264 48.65 107.124 48.79C106.984 48.93 106.779 49 106.509 49H100.989Z" fill="#64728C"/>
<rect y="9" width="371" height="12" rx="6" fill="#38455D" fill-opacity="0.1"/>
<rect x="96" y="11" width="91" height="8" rx="4" fill="#38455D"/>
<g filter="url(#filter0_d_1315_3815)">
<path d="M169 15C169 6.71573 175.716 0 184 0V0C192.284 0 199 6.71573 199 15V15C199 23.2843 192.284 30 184 30V30C175.716 30 169 23.2843 169 15V15Z" fill="white"/>
<path d="M184 29C176.268 29 170 22.732 170 15C170 7.26801 176.268 1 184 1C191.732 1 198 7.26801 198 15C198 22.732 191.732 29 184 29Z" stroke="#38455D" stroke-width="2"/>
</g>
<g filter="url(#filter1_d_1315_3815)">
<path d="M84 15C84 6.71573 90.7157 0 99 0V0C107.284 0 114 6.71573 114 15V15C114 23.2843 107.284 30 99 30V30C90.7157 30 84 23.2843 84 15V15Z" fill="white"/>
<path d="M99 29C91.268 29 85 22.732 85 15C85 7.26801 91.268 1 99 1C106.732 1 113 7.26801 113 15C113 22.732 106.732 29 99 29Z" stroke="#38455D" stroke-width="2"/>
</g>
<defs>
<filter id="filter0_d_1315_3815" x="165" y="0" width="38" height="38" filterUnits="userSpaceOnUse" color-interpolation-filters="sRGB">
<feFlood flood-opacity="0" result="BackgroundImageFix"/>
<feColorMatrix in="SourceAlpha" type="matrix" values="0 0 0 0 0 0 0 0 0 0 0 0 0 0 0 0 0 0 127 0" result="hardAlpha"/>
<feOffset dy="4"/>
<feGaussianBlur stdDeviation="2"/>
<feComposite in2="hardAlpha" operator="out"/>
<feColorMatrix type="matrix" values="0 0 0 0 0 0 0 0 0 0 0 0 0 0 0 0 0 0 0.15 0"/>
<feBlend mode="normal" in2="BackgroundImageFix" result="effect1_dropShadow_1315_3815"/>
<feBlend mode="normal" in="SourceGraphic" in2="effect1_dropShadow_1315_3815" result="shape"/>
</filter>
<filter id="filter1_d_1315_3815" x="80" y="0" width="38" height="38" filterUnits="userSpaceOnUse" color-interpolation-filters="sRGB">
<feFlood flood-opacity="0" result="BackgroundImageFix"/>
<feColorMatrix in="SourceAlpha" type="matrix" values="0 0 0 0 0 0 0 0 0 0 0 0 0 0 0 0 0 0 127 0" result="hardAlpha"/>
<feOffset dy="4"/>
<feGaussianBlur stdDeviation="2"/>
<feComposite in2="hardAlpha" operator="out"/>
<feColorMatrix type="matrix" values="0 0 0 0 0 0 0 0 0 0 0 0 0 0 0 0 0 0 0.15 0"/>
<feBlend mode="normal" in2="BackgroundImageFix" result="effect1_dropShadow_1315_3815"/>
<feBlend mode="normal" in="SourceGraphic" in2="effect1_dropShadow_1315_3815" result="shape"/>
</filter>
</defs>
</svg>
