<svg width="70" height="26" viewBox="0 0 70 26" fill="none" xmlns="http://www.w3.org/2000/svg">
<rect x="0.5" y="0.5" width="69" height="25" rx="8.5" stroke="url(#paint0_linear_1316_3918)" stroke-opacity="0.25"/>
<path d="M9.776 17.108C8.92 17.108 8.188 16.932 7.58 16.58C6.972 16.228 6.504 15.728 6.176 15.08C5.856 14.424 5.696 13.652 5.696 12.764C5.696 12.1 5.788 11.504 5.972 10.976C6.156 10.44 6.42 9.984 6.764 9.608C7.116 9.224 7.544 8.932 8.048 8.732C8.56 8.532 9.136 8.432 9.776 8.432C10.248 8.432 10.7 8.496 11.132 8.624C11.572 8.752 11.952 8.936 12.272 9.176C12.408 9.264 12.496 9.372 12.536 9.5C12.584 9.62 12.592 9.736 12.56 9.848C12.536 9.96 12.484 10.056 12.404 10.136C12.324 10.208 12.22 10.248 12.092 10.256C11.972 10.264 11.84 10.22 11.696 10.124C11.432 9.924 11.14 9.776 10.82 9.68C10.5 9.584 10.164 9.536 9.812 9.536C9.204 9.536 8.692 9.664 8.276 9.92C7.86 10.168 7.544 10.532 7.328 11.012C7.112 11.492 7.004 12.076 7.004 12.764C7.004 13.452 7.112 14.04 7.328 14.528C7.544 15.008 7.86 15.376 8.276 15.632C8.692 15.88 9.204 16.004 9.812 16.004C10.164 16.004 10.5 15.956 10.82 15.86C11.148 15.756 11.456 15.604 11.744 15.404C11.888 15.316 12.016 15.276 12.128 15.284C12.248 15.292 12.348 15.332 12.428 15.404C12.508 15.476 12.56 15.568 12.584 15.68C12.616 15.784 12.612 15.896 12.572 16.016C12.54 16.128 12.464 16.224 12.344 16.304C12.016 16.568 11.628 16.768 11.18 16.904C10.732 17.04 10.264 17.108 9.776 17.108ZM16.0835 17.108C15.4915 17.108 14.9795 16.984 14.5475 16.736C14.1235 16.488 13.7915 16.136 13.5515 15.68C13.3115 15.224 13.1915 14.688 13.1915 14.072C13.1915 13.6 13.2595 13.18 13.3955 12.812C13.5315 12.444 13.7235 12.128 13.9715 11.864C14.2275 11.592 14.5315 11.388 14.8835 11.252C15.2435 11.108 15.6435 11.036 16.0835 11.036C16.6675 11.036 17.1715 11.16 17.5955 11.408C18.0275 11.656 18.3635 12.008 18.6035 12.464C18.8435 12.912 18.9635 13.448 18.9635 14.072C18.9635 14.536 18.8955 14.956 18.7595 15.332C18.6235 15.708 18.4275 16.028 18.1715 16.292C17.9235 16.556 17.6195 16.76 17.2595 16.904C16.9075 17.04 16.5155 17.108 16.0835 17.108ZM16.0835 16.172C16.4115 16.172 16.6995 16.092 16.9475 15.932C17.1955 15.772 17.3875 15.536 17.5235 15.224C17.6675 14.912 17.7395 14.528 17.7395 14.072C17.7395 13.384 17.5875 12.864 17.2835 12.512C16.9795 12.16 16.5795 11.984 16.0835 11.984C15.7475 11.984 15.4555 12.064 15.2075 12.224C14.9595 12.376 14.7635 12.608 14.6195 12.92C14.4835 13.232 14.4155 13.616 14.4155 14.072C14.4155 14.752 14.5675 15.272 14.8715 15.632C15.1755 15.992 15.5795 16.172 16.0835 16.172ZM20.9487 17.084C20.7567 17.084 20.6087 17.032 20.5047 16.928C20.4007 16.816 20.3487 16.664 20.3487 16.472V11.672C20.3487 11.472 20.4007 11.32 20.5047 11.216C20.6087 11.112 20.7527 11.06 20.9367 11.06C21.1287 11.06 21.2727 11.112 21.3687 11.216C21.4727 11.32 21.5247 11.472 21.5247 11.672V12.656L21.3927 12.392C21.5527 11.968 21.8007 11.636 22.1367 11.396C22.4727 11.156 22.8767 11.036 23.3487 11.036C23.8367 11.036 24.2327 11.152 24.5367 11.384C24.8407 11.616 25.0487 11.972 25.1607 12.452H24.9927C25.1447 12.012 25.4047 11.668 25.7727 11.42C26.1407 11.164 26.5687 11.036 27.0567 11.036C27.5047 11.036 27.8727 11.124 28.1607 11.3C28.4487 11.468 28.6647 11.728 28.8087 12.08C28.9527 12.424 29.0247 12.86 29.0247 13.388V16.472C29.0247 16.664 28.9687 16.816 28.8567 16.928C28.7527 17.032 28.6047 17.084 28.4127 17.084C28.2207 17.084 28.0727 17.032 27.9687 16.928C27.8647 16.816 27.8127 16.664 27.8127 16.472V13.448C27.8127 12.952 27.7247 12.588 27.5487 12.356C27.3807 12.124 27.1007 12.008 26.7087 12.008C26.2687 12.008 25.9207 12.16 25.6647 12.464C25.4087 12.768 25.2807 13.188 25.2807 13.724V16.472C25.2807 16.664 25.2287 16.816 25.1247 16.928C25.0207 17.032 24.8727 17.084 24.6807 17.084C24.4887 17.084 24.3367 17.032 24.2247 16.928C24.1207 16.816 24.0687 16.664 24.0687 16.472V13.448C24.0687 12.952 23.9847 12.588 23.8167 12.356C23.6487 12.124 23.3687 12.008 22.9767 12.008C22.5367 12.008 22.1887 12.16 21.9327 12.464C21.6847 12.768 21.5607 13.188 21.5607 13.724V16.472C21.5607 16.88 21.3567 17.084 20.9487 17.084ZM31.3192 19.244C31.1272 19.244 30.9792 19.192 30.8752 19.088C30.7712 18.984 30.7192 18.832 30.7192 18.632V11.672C30.7192 11.472 30.7712 11.32 30.8752 11.216C30.9792 11.112 31.1232 11.06 31.3072 11.06C31.4992 11.06 31.6472 11.112 31.7512 11.216C31.8552 11.32 31.9072 11.472 31.9072 11.672V12.716L31.7752 12.464C31.9032 12.032 32.1552 11.688 32.5312 11.432C32.9072 11.168 33.3512 11.036 33.8632 11.036C34.3832 11.036 34.8352 11.16 35.2192 11.408C35.6112 11.656 35.9112 12.004 36.1192 12.452C36.3352 12.9 36.4432 13.44 36.4432 14.072C36.4432 14.688 36.3352 15.228 36.1192 15.692C35.9112 16.148 35.6152 16.5 35.2312 16.748C34.8472 16.988 34.3912 17.108 33.8632 17.108C33.3592 17.108 32.9192 16.98 32.5432 16.724C32.1672 16.468 31.9152 16.128 31.7872 15.704H31.9312V18.632C31.9312 18.832 31.8752 18.984 31.7632 19.088C31.6592 19.192 31.5112 19.244 31.3192 19.244ZM33.5632 16.172C33.8992 16.172 34.1912 16.092 34.4392 15.932C34.6872 15.772 34.8792 15.536 35.0152 15.224C35.1512 14.912 35.2192 14.528 35.2192 14.072C35.2192 13.384 35.0672 12.864 34.7632 12.512C34.4672 12.16 34.0672 11.984 33.5632 11.984C33.2352 11.984 32.9432 12.064 32.6872 12.224C32.4392 12.376 32.2472 12.608 32.1112 12.92C31.9752 13.232 31.9072 13.616 31.9072 14.072C31.9072 14.752 32.0592 15.272 32.3632 15.632C32.6672 15.992 33.0672 16.172 33.5632 16.172ZM39.693 17.108C39.069 17.108 38.597 16.928 38.277 16.568C37.965 16.2 37.809 15.672 37.809 14.984V9.068C37.809 8.868 37.861 8.716 37.965 8.612C38.069 8.508 38.217 8.456 38.409 8.456C38.601 8.456 38.749 8.508 38.853 8.612C38.965 8.716 39.021 8.868 39.021 9.068V14.912C39.021 15.312 39.101 15.612 39.261 15.812C39.429 16.004 39.669 16.1 39.981 16.1C40.053 16.1 40.117 16.1 40.173 16.1C40.229 16.092 40.285 16.084 40.341 16.076C40.437 16.068 40.505 16.096 40.545 16.16C40.585 16.216 40.605 16.336 40.605 16.52C40.605 16.688 40.569 16.82 40.497 16.916C40.425 17.004 40.309 17.06 40.149 17.084C40.077 17.092 40.001 17.096 39.921 17.096C39.841 17.104 39.765 17.108 39.693 17.108ZM44.1664 17.108C43.5264 17.108 42.9744 16.988 42.5104 16.748C42.0544 16.5 41.6984 16.152 41.4424 15.704C41.1944 15.248 41.0704 14.708 41.0704 14.084C41.0704 13.476 41.1944 12.944 41.4424 12.488C41.6904 12.032 42.0304 11.676 42.4624 11.42C42.8944 11.164 43.3864 11.036 43.9384 11.036C44.3464 11.036 44.7104 11.104 45.0304 11.24C45.3504 11.368 45.6224 11.56 45.8464 11.816C46.0784 12.064 46.2504 12.368 46.3624 12.728C46.4824 13.088 46.5424 13.492 46.5424 13.94C46.5424 14.076 46.5024 14.18 46.4224 14.252C46.3424 14.316 46.2224 14.348 46.0624 14.348H42.0304V13.604H45.7264L45.5224 13.772C45.5224 13.372 45.4624 13.032 45.3424 12.752C45.2304 12.472 45.0584 12.26 44.8264 12.116C44.6024 11.964 44.3224 11.888 43.9864 11.888C43.6104 11.888 43.2904 11.976 43.0264 12.152C42.7704 12.328 42.5744 12.572 42.4384 12.884C42.3024 13.196 42.2344 13.56 42.2344 13.976V14.048C42.2344 14.752 42.3984 15.284 42.7264 15.644C43.0624 15.996 43.5464 16.172 44.1784 16.172C44.4184 16.172 44.6704 16.14 44.9344 16.076C45.2064 16.012 45.4624 15.904 45.7024 15.752C45.8384 15.672 45.9584 15.636 46.0624 15.644C46.1744 15.652 46.2624 15.688 46.3264 15.752C46.3984 15.816 46.4424 15.896 46.4584 15.992C46.4744 16.088 46.4584 16.188 46.4104 16.292C46.3624 16.388 46.2784 16.476 46.1584 16.556C45.8864 16.74 45.5704 16.88 45.2104 16.976C44.8504 17.064 44.5024 17.108 44.1664 17.108ZM50.348 17.108C49.868 17.108 49.464 17.024 49.136 16.856C48.808 16.688 48.564 16.44 48.404 16.112C48.244 15.784 48.164 15.384 48.164 14.912V12.08H47.444C47.284 12.08 47.16 12.04 47.072 11.96C46.984 11.872 46.94 11.756 46.94 11.612C46.94 11.46 46.984 11.344 47.072 11.264C47.16 11.184 47.284 11.144 47.444 11.144H48.164V9.908C48.164 9.708 48.216 9.556 48.32 9.452C48.432 9.348 48.584 9.296 48.776 9.296C48.968 9.296 49.116 9.348 49.22 9.452C49.324 9.556 49.376 9.708 49.376 9.908V11.144H50.78C50.94 11.144 51.064 11.184 51.152 11.264C51.24 11.344 51.284 11.46 51.284 11.612C51.284 11.756 51.24 11.872 51.152 11.96C51.064 12.04 50.94 12.08 50.78 12.08H49.376V14.816C49.376 15.24 49.464 15.56 49.64 15.776C49.824 15.992 50.12 16.1 50.528 16.1C50.672 16.1 50.796 16.088 50.9 16.064C51.012 16.032 51.104 16.012 51.176 16.004C51.264 16.004 51.336 16.036 51.392 16.1C51.448 16.156 51.476 16.268 51.476 16.436C51.476 16.556 51.452 16.668 51.404 16.772C51.364 16.876 51.288 16.944 51.176 16.976C51.08 17.008 50.948 17.036 50.78 17.06C50.62 17.092 50.476 17.108 50.348 17.108ZM54.9242 17.108C54.2842 17.108 53.7322 16.988 53.2682 16.748C52.8122 16.5 52.4562 16.152 52.2002 15.704C51.9522 15.248 51.8282 14.708 51.8282 14.084C51.8282 13.476 51.9522 12.944 52.2002 12.488C52.4482 12.032 52.7882 11.676 53.2202 11.42C53.6522 11.164 54.1442 11.036 54.6962 11.036C55.1042 11.036 55.4682 11.104 55.7882 11.24C56.1082 11.368 56.3802 11.56 56.6042 11.816C56.8362 12.064 57.0082 12.368 57.1202 12.728C57.2402 13.088 57.3002 13.492 57.3002 13.94C57.3002 14.076 57.2602 14.18 57.1802 14.252C57.1002 14.316 56.9802 14.348 56.8202 14.348H52.7882V13.604H56.4842L56.2802 13.772C56.2802 13.372 56.2202 13.032 56.1002 12.752C55.9882 12.472 55.8162 12.26 55.5842 12.116C55.3602 11.964 55.0802 11.888 54.7442 11.888C54.3682 11.888 54.0482 11.976 53.7842 12.152C53.5282 12.328 53.3322 12.572 53.1962 12.884C53.0602 13.196 52.9922 13.56 52.9922 13.976V14.048C52.9922 14.752 53.1562 15.284 53.4842 15.644C53.8202 15.996 54.3042 16.172 54.9362 16.172C55.1762 16.172 55.4282 16.14 55.6922 16.076C55.9642 16.012 56.2202 15.904 56.4602 15.752C56.5962 15.672 56.7162 15.636 56.8202 15.644C56.9322 15.652 57.0202 15.688 57.0842 15.752C57.1562 15.816 57.2002 15.896 57.2162 15.992C57.2322 16.088 57.2162 16.188 57.1682 16.292C57.1202 16.388 57.0362 16.476 56.9162 16.556C56.6442 16.74 56.3282 16.88 55.9682 16.976C55.6082 17.064 55.2602 17.108 54.9242 17.108ZM60.8535 17.108C60.3415 17.108 59.8895 16.988 59.4975 16.748C59.1135 16.5 58.8135 16.148 58.5975 15.692C58.3815 15.228 58.2735 14.688 58.2735 14.072C58.2735 13.44 58.3815 12.9 58.5975 12.452C58.8135 12.004 59.1135 11.656 59.4975 11.408C59.8895 11.16 60.3415 11.036 60.8535 11.036C61.3655 11.036 61.8055 11.164 62.1735 11.42C62.5495 11.668 62.8015 12.004 62.9295 12.428H62.7975V9.068C62.7975 8.868 62.8495 8.716 62.9535 8.612C63.0575 8.508 63.2055 8.456 63.3975 8.456C63.5895 8.456 63.7375 8.508 63.8415 8.612C63.9535 8.716 64.0095 8.868 64.0095 9.068V16.472C64.0095 16.664 63.9575 16.816 63.8535 16.928C63.7495 17.032 63.6015 17.084 63.4095 17.084C63.2175 17.084 63.0695 17.032 62.9655 16.928C62.8615 16.816 62.8095 16.664 62.8095 16.472V15.416L62.9415 15.68C62.8135 16.112 62.5615 16.46 62.1855 16.724C61.8175 16.98 61.3735 17.108 60.8535 17.108ZM61.1655 16.172C61.4935 16.172 61.7815 16.092 62.0295 15.932C62.2775 15.772 62.4695 15.536 62.6055 15.224C62.7495 14.912 62.8215 14.528 62.8215 14.072C62.8215 13.384 62.6695 12.864 62.3655 12.512C62.0615 12.16 61.6615 11.984 61.1655 11.984C60.8295 11.984 60.5375 12.064 60.2895 12.224C60.0415 12.376 59.8455 12.608 59.7015 12.92C59.5655 13.232 59.4975 13.616 59.4975 14.072C59.4975 14.752 59.6495 15.272 59.9535 15.632C60.2575 15.992 60.6615 16.172 61.1655 16.172Z" fill="#76BC21"/>
<defs>
<linearGradient id="paint0_linear_1316_3918" x1="40.569" y1="1" x2="40.569" y2="25" gradientUnits="userSpaceOnUse">
<stop stop-color="#76BC21" stop-opacity="0.75"/>
<stop offset="1" stop-color="#6EAF20"/>
</linearGradient>
</defs>
</svg>
