<svg width="65" height="26" viewBox="0 0 65 26" fill="none" xmlns="http://www.w3.org/2000/svg">
<rect x="0.5" y="0.5" width="64" height="25" rx="8.5" stroke="url(#paint0_linear_1088_9091)" stroke-opacity="0.25"/>
<path d="M9.776 17.108C8.92 17.108 8.188 16.932 7.58 16.58C6.972 16.228 6.504 15.728 6.176 15.08C5.856 14.424 5.696 13.652 5.696 12.764C5.696 12.1 5.788 11.504 5.972 10.976C6.156 10.44 6.42 9.984 6.764 9.608C7.116 9.224 7.544 8.932 8.048 8.732C8.56 8.532 9.136 8.432 9.776 8.432C10.248 8.432 10.7 8.496 11.132 8.624C11.572 8.752 11.952 8.936 12.272 9.176C12.408 9.264 12.496 9.372 12.536 9.5C12.584 9.62 12.592 9.736 12.56 9.848C12.536 9.96 12.484 10.056 12.404 10.136C12.324 10.208 12.22 10.248 12.092 10.256C11.972 10.264 11.84 10.22 11.696 10.124C11.432 9.924 11.14 9.776 10.82 9.68C10.5 9.584 10.164 9.536 9.812 9.536C9.204 9.536 8.692 9.664 8.276 9.92C7.86 10.168 7.544 10.532 7.328 11.012C7.112 11.492 7.004 12.076 7.004 12.764C7.004 13.452 7.112 14.04 7.328 14.528C7.544 15.008 7.86 15.376 8.276 15.632C8.692 15.88 9.204 16.004 9.812 16.004C10.164 16.004 10.5 15.956 10.82 15.86C11.148 15.756 11.456 15.604 11.744 15.404C11.888 15.316 12.016 15.276 12.128 15.284C12.248 15.292 12.348 15.332 12.428 15.404C12.508 15.476 12.56 15.568 12.584 15.68C12.616 15.784 12.612 15.896 12.572 16.016C12.54 16.128 12.464 16.224 12.344 16.304C12.016 16.568 11.628 16.768 11.18 16.904C10.732 17.04 10.264 17.108 9.776 17.108ZM15.6342 17.108C15.2262 17.108 14.8582 17.028 14.5302 16.868C14.2102 16.708 13.9582 16.492 13.7742 16.22C13.5902 15.948 13.4982 15.64 13.4982 15.296C13.4982 14.864 13.6062 14.524 13.8222 14.276C14.0462 14.02 14.4102 13.84 14.9142 13.736C15.4262 13.624 16.1142 13.568 16.9782 13.568H17.5422V14.312H16.9902C16.4142 14.312 15.9582 14.34 15.6222 14.396C15.2862 14.452 15.0462 14.548 14.9022 14.684C14.7662 14.812 14.6982 14.992 14.6982 15.224C14.6982 15.528 14.8022 15.776 15.0102 15.968C15.2182 16.152 15.5062 16.244 15.8742 16.244C16.1702 16.244 16.4302 16.176 16.6542 16.04C16.8782 15.896 17.0542 15.704 17.1822 15.464C17.3182 15.224 17.3862 14.948 17.3862 14.636V13.256C17.3862 12.8 17.2902 12.472 17.0982 12.272C16.9062 12.072 16.5902 11.972 16.1502 11.972C15.8942 11.972 15.6262 12.004 15.3462 12.068C15.0742 12.132 14.7902 12.24 14.4942 12.392C14.3582 12.456 14.2422 12.476 14.1462 12.452C14.0502 12.428 13.9742 12.376 13.9182 12.296C13.8622 12.208 13.8302 12.116 13.8222 12.02C13.8222 11.916 13.8462 11.816 13.8942 11.72C13.9502 11.624 14.0422 11.552 14.1702 11.504C14.5222 11.336 14.8702 11.216 15.2142 11.144C15.5582 11.072 15.8822 11.036 16.1862 11.036C16.7222 11.036 17.1622 11.12 17.5062 11.288C17.8582 11.456 18.1182 11.712 18.2862 12.056C18.4542 12.4 18.5382 12.844 18.5382 13.388V16.472C18.5382 16.664 18.4902 16.816 18.3942 16.928C18.2982 17.032 18.1582 17.084 17.9742 17.084C17.7982 17.084 17.6582 17.032 17.5542 16.928C17.4502 16.816 17.3982 16.664 17.3982 16.472V15.692H17.5062C17.4422 15.988 17.3222 16.244 17.1462 16.46C16.9782 16.668 16.7662 16.828 16.5102 16.94C16.2542 17.052 15.9622 17.108 15.6342 17.108ZM20.8075 17.084C20.6155 17.084 20.4675 17.032 20.3635 16.928C20.2595 16.816 20.2075 16.664 20.2075 16.472V11.672C20.2075 11.472 20.2595 11.32 20.3635 11.216C20.4675 11.112 20.6115 11.06 20.7955 11.06C20.9875 11.06 21.1315 11.112 21.2275 11.216C21.3315 11.32 21.3835 11.472 21.3835 11.672V12.608L21.2515 12.392C21.4275 11.944 21.7035 11.608 22.0795 11.384C22.4555 11.152 22.8875 11.036 23.3755 11.036C23.8395 11.036 24.2235 11.124 24.5275 11.3C24.8395 11.468 25.0715 11.728 25.2235 12.08C25.3755 12.424 25.4515 12.86 25.4515 13.388V16.472C25.4515 16.664 25.3995 16.816 25.2955 16.928C25.1915 17.032 25.0435 17.084 24.8515 17.084C24.6515 17.084 24.4995 17.032 24.3955 16.928C24.2915 16.816 24.2395 16.664 24.2395 16.472V13.46C24.2395 12.956 24.1395 12.588 23.9395 12.356C23.7475 12.124 23.4435 12.008 23.0275 12.008C22.5395 12.008 22.1475 12.16 21.8515 12.464C21.5635 12.768 21.4195 13.176 21.4195 13.688V16.472C21.4195 16.88 21.2155 17.084 20.8075 17.084ZM29.7015 17.108C29.1015 17.108 28.5815 16.984 28.1415 16.736C27.7095 16.48 27.3735 16.124 27.1335 15.668C26.8935 15.204 26.7735 14.66 26.7735 14.036C26.7735 13.572 26.8415 13.156 26.9775 12.788C27.1135 12.412 27.3055 12.096 27.5535 11.84C27.8095 11.584 28.1175 11.388 28.4775 11.252C28.8455 11.108 29.2535 11.036 29.7015 11.036C29.9815 11.036 30.2735 11.08 30.5775 11.168C30.8895 11.248 31.1775 11.384 31.4415 11.576C31.5455 11.64 31.6095 11.72 31.6335 11.816C31.6655 11.904 31.6695 11.996 31.6455 12.092C31.6295 12.188 31.5855 12.272 31.5135 12.344C31.4495 12.408 31.3695 12.448 31.2735 12.464C31.1775 12.472 31.0735 12.444 30.9615 12.38C30.7695 12.244 30.5735 12.148 30.3735 12.092C30.1735 12.028 29.9815 11.996 29.7975 11.996C29.5095 11.996 29.2535 12.044 29.0295 12.14C28.8135 12.228 28.6295 12.36 28.4775 12.536C28.3255 12.704 28.2095 12.916 28.1295 13.172C28.0575 13.428 28.0215 13.72 28.0215 14.048C28.0215 14.704 28.1735 15.22 28.4775 15.596C28.7895 15.964 29.2295 16.148 29.7975 16.148C29.9815 16.148 30.1735 16.12 30.3735 16.064C30.5735 16.008 30.7695 15.912 30.9615 15.776C31.0735 15.712 31.1775 15.688 31.2735 15.704C31.3695 15.72 31.4455 15.764 31.5015 15.836C31.5655 15.9 31.6055 15.98 31.6215 16.076C31.6455 16.164 31.6415 16.256 31.6095 16.352C31.5775 16.448 31.5095 16.528 31.4055 16.592C31.1495 16.776 30.8695 16.908 30.5655 16.988C30.2695 17.068 29.9815 17.108 29.7015 17.108ZM35.3539 17.108C34.7139 17.108 34.1619 16.988 33.6979 16.748C33.2419 16.5 32.8859 16.152 32.6299 15.704C32.3819 15.248 32.2579 14.708 32.2579 14.084C32.2579 13.476 32.3819 12.944 32.6299 12.488C32.8779 12.032 33.2179 11.676 33.6499 11.42C34.0819 11.164 34.5739 11.036 35.1259 11.036C35.5339 11.036 35.8979 11.104 36.2179 11.24C36.5379 11.368 36.8099 11.56 37.0339 11.816C37.2659 12.064 37.4379 12.368 37.5499 12.728C37.6699 13.088 37.7299 13.492 37.7299 13.94C37.7299 14.076 37.6899 14.18 37.6099 14.252C37.5299 14.316 37.4099 14.348 37.2499 14.348H33.2179V13.604H36.9139L36.7099 13.772C36.7099 13.372 36.6499 13.032 36.5299 12.752C36.4179 12.472 36.2459 12.26 36.0139 12.116C35.7899 11.964 35.5099 11.888 35.1739 11.888C34.7979 11.888 34.4779 11.976 34.2139 12.152C33.9579 12.328 33.7619 12.572 33.6259 12.884C33.4899 13.196 33.4219 13.56 33.4219 13.976V14.048C33.4219 14.752 33.5859 15.284 33.9139 15.644C34.2499 15.996 34.7339 16.172 35.3659 16.172C35.6059 16.172 35.8579 16.14 36.1219 16.076C36.3939 16.012 36.6499 15.904 36.8899 15.752C37.0259 15.672 37.1459 15.636 37.2499 15.644C37.3619 15.652 37.4499 15.688 37.5139 15.752C37.5859 15.816 37.6299 15.896 37.6459 15.992C37.6619 16.088 37.6459 16.188 37.5979 16.292C37.5499 16.388 37.4659 16.476 37.3459 16.556C37.0739 16.74 36.7579 16.88 36.3979 16.976C36.0379 17.064 35.6899 17.108 35.3539 17.108ZM40.9352 17.108C40.3112 17.108 39.8392 16.928 39.5192 16.568C39.2072 16.2 39.0512 15.672 39.0512 14.984V9.068C39.0512 8.868 39.1032 8.716 39.2072 8.612C39.3112 8.508 39.4592 8.456 39.6512 8.456C39.8432 8.456 39.9912 8.508 40.0952 8.612C40.2072 8.716 40.2632 8.868 40.2632 9.068V14.912C40.2632 15.312 40.3432 15.612 40.5032 15.812C40.6712 16.004 40.9112 16.1 41.2232 16.1C41.2952 16.1 41.3592 16.1 41.4152 16.1C41.4712 16.092 41.5272 16.084 41.5832 16.076C41.6792 16.068 41.7472 16.096 41.7872 16.16C41.8272 16.216 41.8472 16.336 41.8472 16.52C41.8472 16.688 41.8112 16.82 41.7392 16.916C41.6672 17.004 41.5512 17.06 41.3912 17.084C41.3192 17.092 41.2432 17.096 41.1632 17.096C41.0832 17.104 41.0072 17.108 40.9352 17.108ZM44.6032 17.108C43.9792 17.108 43.5072 16.928 43.1872 16.568C42.8752 16.2 42.7192 15.672 42.7192 14.984V9.068C42.7192 8.868 42.7712 8.716 42.8752 8.612C42.9792 8.508 43.1272 8.456 43.3192 8.456C43.5112 8.456 43.6592 8.508 43.7632 8.612C43.8752 8.716 43.9312 8.868 43.9312 9.068V14.912C43.9312 15.312 44.0112 15.612 44.1712 15.812C44.3392 16.004 44.5792 16.1 44.8912 16.1C44.9632 16.1 45.0272 16.1 45.0832 16.1C45.1392 16.092 45.1952 16.084 45.2512 16.076C45.3472 16.068 45.4152 16.096 45.4552 16.16C45.4952 16.216 45.5152 16.336 45.5152 16.52C45.5152 16.688 45.4792 16.82 45.4072 16.916C45.3352 17.004 45.2192 17.06 45.0592 17.084C44.9872 17.092 44.9112 17.096 44.8312 17.096C44.7512 17.104 44.6752 17.108 44.6032 17.108ZM49.0766 17.108C48.4366 17.108 47.8846 16.988 47.4206 16.748C46.9646 16.5 46.6086 16.152 46.3526 15.704C46.1046 15.248 45.9806 14.708 45.9806 14.084C45.9806 13.476 46.1046 12.944 46.3526 12.488C46.6006 12.032 46.9406 11.676 47.3726 11.42C47.8046 11.164 48.2966 11.036 48.8486 11.036C49.2566 11.036 49.6206 11.104 49.9406 11.24C50.2606 11.368 50.5326 11.56 50.7566 11.816C50.9886 12.064 51.1606 12.368 51.2726 12.728C51.3926 13.088 51.4526 13.492 51.4526 13.94C51.4526 14.076 51.4126 14.18 51.3326 14.252C51.2526 14.316 51.1326 14.348 50.9726 14.348H46.9406V13.604H50.6366L50.4326 13.772C50.4326 13.372 50.3726 13.032 50.2526 12.752C50.1406 12.472 49.9686 12.26 49.7366 12.116C49.5126 11.964 49.2326 11.888 48.8966 11.888C48.5206 11.888 48.2006 11.976 47.9366 12.152C47.6806 12.328 47.4846 12.572 47.3486 12.884C47.2126 13.196 47.1446 13.56 47.1446 13.976V14.048C47.1446 14.752 47.3086 15.284 47.6366 15.644C47.9726 15.996 48.4566 16.172 49.0886 16.172C49.3286 16.172 49.5806 16.14 49.8446 16.076C50.1166 16.012 50.3726 15.904 50.6126 15.752C50.7486 15.672 50.8686 15.636 50.9726 15.644C51.0846 15.652 51.1726 15.688 51.2366 15.752C51.3086 15.816 51.3526 15.896 51.3686 15.992C51.3846 16.088 51.3686 16.188 51.3206 16.292C51.2726 16.388 51.1886 16.476 51.0686 16.556C50.7966 16.74 50.4806 16.88 50.1206 16.976C49.7606 17.064 49.4126 17.108 49.0766 17.108ZM55.0059 17.108C54.4939 17.108 54.0419 16.988 53.6499 16.748C53.2659 16.5 52.9659 16.148 52.7499 15.692C52.5339 15.228 52.4259 14.688 52.4259 14.072C52.4259 13.44 52.5339 12.9 52.7499 12.452C52.9659 12.004 53.2659 11.656 53.6499 11.408C54.0419 11.16 54.4939 11.036 55.0059 11.036C55.5179 11.036 55.9579 11.164 56.3259 11.42C56.7019 11.668 56.9539 12.004 57.0819 12.428H56.9499V9.068C56.9499 8.868 57.0019 8.716 57.1059 8.612C57.2099 8.508 57.3579 8.456 57.5499 8.456C57.7419 8.456 57.8899 8.508 57.9939 8.612C58.1059 8.716 58.1619 8.868 58.1619 9.068V16.472C58.1619 16.664 58.1099 16.816 58.0059 16.928C57.9019 17.032 57.7539 17.084 57.5619 17.084C57.3699 17.084 57.2219 17.032 57.1179 16.928C57.0139 16.816 56.9619 16.664 56.9619 16.472V15.416L57.0939 15.68C56.9659 16.112 56.7139 16.46 56.3379 16.724C55.9699 16.98 55.5259 17.108 55.0059 17.108ZM55.3179 16.172C55.6459 16.172 55.9339 16.092 56.1819 15.932C56.4299 15.772 56.6219 15.536 56.7579 15.224C56.9019 14.912 56.9739 14.528 56.9739 14.072C56.9739 13.384 56.8219 12.864 56.5179 12.512C56.2139 12.16 55.8139 11.984 55.3179 11.984C54.9819 11.984 54.6899 12.064 54.4419 12.224C54.1939 12.376 53.9979 12.608 53.8539 12.92C53.7179 13.232 53.6499 13.616 53.6499 14.072C53.6499 14.752 53.8019 15.272 54.1059 15.632C54.4099 15.992 54.8139 16.172 55.3179 16.172Z" fill="#FE5000"/>
<defs>
<linearGradient id="paint0_linear_1088_9091" x1="37.6595" y1="1" x2="37.6595" y2="25" gradientUnits="userSpaceOnUse">
<stop stop-color="#FE5000" stop-opacity="0.74"/>
<stop offset="1" stop-color="#E74A02"/>
</linearGradient>
</defs>
</svg>
