<svg width="109" height="26" viewBox="0 0 109 26" fill="none" xmlns="http://www.w3.org/2000/svg">
<rect x="0.5" y="0.5" width="108" height="25" rx="8.5" stroke="url(#paint0_linear_1088_9089)" stroke-opacity="0.25"/>
<path d="M6.608 17.084C6.408 17.084 6.252 17.028 6.14 16.916C6.036 16.804 5.984 16.648 5.984 16.448V9.176C5.984 8.968 6.04 8.812 6.152 8.708C6.264 8.596 6.42 8.54 6.62 8.54H9.488C10.4 8.54 11.104 8.768 11.6 9.224C12.096 9.672 12.344 10.304 12.344 11.12C12.344 11.944 12.096 12.584 11.6 13.04C11.104 13.488 10.4 13.712 9.488 13.712H7.232V16.448C7.232 16.648 7.18 16.804 7.076 16.916C6.972 17.028 6.816 17.084 6.608 17.084ZM7.232 12.716H9.308C9.908 12.716 10.36 12.584 10.664 12.32C10.976 12.048 11.132 11.648 11.132 11.12C11.132 10.6 10.976 10.208 10.664 9.944C10.36 9.672 9.908 9.536 9.308 9.536H7.232V12.716ZM16.018 17.108C15.378 17.108 14.826 16.988 14.362 16.748C13.906 16.5 13.55 16.152 13.294 15.704C13.046 15.248 12.922 14.708 12.922 14.084C12.922 13.476 13.046 12.944 13.294 12.488C13.542 12.032 13.882 11.676 14.314 11.42C14.746 11.164 15.238 11.036 15.79 11.036C16.198 11.036 16.562 11.104 16.882 11.24C17.202 11.368 17.474 11.56 17.698 11.816C17.93 12.064 18.102 12.368 18.214 12.728C18.334 13.088 18.394 13.492 18.394 13.94C18.394 14.076 18.354 14.18 18.274 14.252C18.194 14.316 18.074 14.348 17.914 14.348H13.882V13.604H17.578L17.374 13.772C17.374 13.372 17.314 13.032 17.194 12.752C17.082 12.472 16.91 12.26 16.678 12.116C16.454 11.964 16.174 11.888 15.838 11.888C15.462 11.888 15.142 11.976 14.878 12.152C14.622 12.328 14.426 12.572 14.29 12.884C14.154 13.196 14.086 13.56 14.086 13.976V14.048C14.086 14.752 14.25 15.284 14.578 15.644C14.914 15.996 15.398 16.172 16.03 16.172C16.27 16.172 16.522 16.14 16.786 16.076C17.058 16.012 17.314 15.904 17.554 15.752C17.69 15.672 17.81 15.636 17.914 15.644C18.026 15.652 18.114 15.688 18.178 15.752C18.25 15.816 18.294 15.896 18.31 15.992C18.326 16.088 18.31 16.188 18.262 16.292C18.214 16.388 18.13 16.476 18.01 16.556C17.738 16.74 17.422 16.88 17.062 16.976C16.702 17.064 16.354 17.108 16.018 17.108ZM20.3153 17.084C20.1233 17.084 19.9753 17.032 19.8713 16.928C19.7673 16.816 19.7153 16.664 19.7153 16.472V11.672C19.7153 11.472 19.7673 11.32 19.8713 11.216C19.9753 11.112 20.1193 11.06 20.3033 11.06C20.4953 11.06 20.6393 11.112 20.7353 11.216C20.8393 11.32 20.8913 11.472 20.8913 11.672V12.608L20.7593 12.392C20.9353 11.944 21.2113 11.608 21.5873 11.384C21.9633 11.152 22.3953 11.036 22.8833 11.036C23.3473 11.036 23.7313 11.124 24.0353 11.3C24.3473 11.468 24.5793 11.728 24.7313 12.08C24.8833 12.424 24.9593 12.86 24.9593 13.388V16.472C24.9593 16.664 24.9073 16.816 24.8033 16.928C24.6993 17.032 24.5513 17.084 24.3593 17.084C24.1593 17.084 24.0073 17.032 23.9033 16.928C23.7993 16.816 23.7473 16.664 23.7473 16.472V13.46C23.7473 12.956 23.6473 12.588 23.4473 12.356C23.2553 12.124 22.9513 12.008 22.5353 12.008C22.0473 12.008 21.6553 12.16 21.3593 12.464C21.0713 12.768 20.9273 13.176 20.9273 13.688V16.472C20.9273 16.88 20.7233 17.084 20.3153 17.084ZM28.8613 17.108C28.3493 17.108 27.8973 16.988 27.5053 16.748C27.1213 16.5 26.8213 16.148 26.6053 15.692C26.3893 15.228 26.2813 14.688 26.2813 14.072C26.2813 13.44 26.3893 12.9 26.6053 12.452C26.8213 12.004 27.1213 11.656 27.5053 11.408C27.8973 11.16 28.3493 11.036 28.8613 11.036C29.3733 11.036 29.8133 11.164 30.1813 11.42C30.5573 11.668 30.8093 12.004 30.9373 12.428H30.8053V9.068C30.8053 8.868 30.8573 8.716 30.9613 8.612C31.0653 8.508 31.2133 8.456 31.4053 8.456C31.5973 8.456 31.7453 8.508 31.8493 8.612C31.9613 8.716 32.0173 8.868 32.0173 9.068V16.472C32.0173 16.664 31.9653 16.816 31.8613 16.928C31.7573 17.032 31.6093 17.084 31.4173 17.084C31.2253 17.084 31.0773 17.032 30.9733 16.928C30.8693 16.816 30.8173 16.664 30.8173 16.472V15.416L30.9493 15.68C30.8213 16.112 30.5693 16.46 30.1933 16.724C29.8253 16.98 29.3813 17.108 28.8613 17.108ZM29.1733 16.172C29.5013 16.172 29.7893 16.092 30.0373 15.932C30.2853 15.772 30.4773 15.536 30.6133 15.224C30.7573 14.912 30.8293 14.528 30.8293 14.072C30.8293 13.384 30.6773 12.864 30.3733 12.512C30.0693 12.16 29.6693 11.984 29.1733 11.984C28.8373 11.984 28.5453 12.064 28.2973 12.224C28.0493 12.376 27.8533 12.608 27.7093 12.92C27.5733 13.232 27.5053 13.616 27.5053 14.072C27.5053 14.752 27.6573 15.272 27.9613 15.632C28.2653 15.992 28.6693 16.172 29.1733 16.172ZM34.3192 17.072C34.1272 17.072 33.9792 17.016 33.8752 16.904C33.7712 16.784 33.7192 16.62 33.7192 16.412V11.732C33.7192 11.524 33.7712 11.364 33.8752 11.252C33.9792 11.14 34.1272 11.084 34.3192 11.084C34.5112 11.084 34.6592 11.14 34.7632 11.252C34.8752 11.364 34.9312 11.524 34.9312 11.732V16.412C34.9312 16.62 34.8792 16.784 34.7752 16.904C34.6712 17.016 34.5192 17.072 34.3192 17.072ZM34.3192 9.836C34.0792 9.836 33.8912 9.776 33.7552 9.656C33.6272 9.536 33.5632 9.368 33.5632 9.152C33.5632 8.928 33.6272 8.76 33.7552 8.648C33.8912 8.528 34.0792 8.468 34.3192 8.468C34.5592 8.468 34.7432 8.528 34.8712 8.648C35.0072 8.76 35.0752 8.928 35.0752 9.152C35.0752 9.368 35.0072 9.536 34.8712 9.656C34.7432 9.776 34.5592 9.836 34.3192 9.836ZM37.2372 17.084C37.0452 17.084 36.8972 17.032 36.7932 16.928C36.6892 16.816 36.6372 16.664 36.6372 16.472V11.672C36.6372 11.472 36.6892 11.32 36.7932 11.216C36.8972 11.112 37.0412 11.06 37.2252 11.06C37.4172 11.06 37.5612 11.112 37.6572 11.216C37.7612 11.32 37.8132 11.472 37.8132 11.672V12.608L37.6812 12.392C37.8572 11.944 38.1332 11.608 38.5092 11.384C38.8852 11.152 39.3172 11.036 39.8052 11.036C40.2692 11.036 40.6532 11.124 40.9572 11.3C41.2692 11.468 41.5012 11.728 41.6532 12.08C41.8052 12.424 41.8812 12.86 41.8812 13.388V16.472C41.8812 16.664 41.8292 16.816 41.7252 16.928C41.6212 17.032 41.4732 17.084 41.2812 17.084C41.0812 17.084 40.9292 17.032 40.8252 16.928C40.7212 16.816 40.6692 16.664 40.6692 16.472V13.46C40.6692 12.956 40.5692 12.588 40.3692 12.356C40.1772 12.124 39.8732 12.008 39.4572 12.008C38.9692 12.008 38.5772 12.16 38.2812 12.464C37.9932 12.768 37.8492 13.176 37.8492 13.688V16.472C37.8492 16.88 37.6452 17.084 37.2372 17.084ZM46.2032 19.268C45.7712 19.268 45.3512 19.224 44.9432 19.136C44.5432 19.048 44.1792 18.904 43.8512 18.704C43.7312 18.64 43.6512 18.56 43.6112 18.464C43.5712 18.376 43.5592 18.284 43.5752 18.188C43.5992 18.092 43.6432 18.008 43.7072 17.936C43.7712 17.864 43.8472 17.816 43.9352 17.792C44.0312 17.768 44.1312 17.784 44.2352 17.84C44.5872 18.032 44.9192 18.16 45.2312 18.224C45.5512 18.296 45.8472 18.332 46.1192 18.332C46.6792 18.332 47.0992 18.188 47.3792 17.9C47.6592 17.62 47.7992 17.204 47.7992 16.652V15.428H47.9072C47.7872 15.868 47.5352 16.216 47.1512 16.472C46.7672 16.728 46.3232 16.856 45.8192 16.856C45.2912 16.856 44.8312 16.736 44.4392 16.496C44.0472 16.248 43.7432 15.908 43.5272 15.476C43.3112 15.036 43.2032 14.524 43.2032 13.94C43.2032 13.5 43.2632 13.104 43.3832 12.752C43.5112 12.4 43.6872 12.096 43.9112 11.84C44.1432 11.584 44.4192 11.388 44.7392 11.252C45.0672 11.108 45.4272 11.036 45.8192 11.036C46.3312 11.036 46.7752 11.164 47.1512 11.42C47.5352 11.676 47.7832 12.024 47.8952 12.464L47.7752 12.668V11.672C47.7752 11.472 47.8272 11.32 47.9312 11.216C48.0432 11.112 48.1912 11.06 48.3752 11.06C48.5672 11.06 48.7152 11.112 48.8192 11.216C48.9232 11.32 48.9752 11.472 48.9752 11.672V16.508C48.9752 17.42 48.7392 18.108 48.2672 18.572C47.7952 19.036 47.1072 19.268 46.2032 19.268ZM46.1072 15.908C46.4592 15.908 46.7592 15.828 47.0072 15.668C47.2552 15.508 47.4472 15.28 47.5832 14.984C47.7192 14.688 47.7872 14.34 47.7872 13.94C47.7872 13.34 47.6352 12.864 47.3312 12.512C47.0352 12.16 46.6272 11.984 46.1072 11.984C45.7632 11.984 45.4672 12.064 45.2192 12.224C44.9712 12.384 44.7752 12.612 44.6312 12.908C44.4952 13.196 44.4272 13.54 44.4272 13.94C44.4272 14.548 44.5792 15.028 44.8832 15.38C45.1872 15.732 45.5952 15.908 46.1072 15.908ZM53.9243 17.084C53.7643 17.084 53.6363 17.048 53.5403 16.976C53.4443 16.904 53.3883 16.808 53.3723 16.688C53.3563 16.568 53.3803 16.432 53.4443 16.28L56.6963 8.984C56.7763 8.792 56.8763 8.656 56.9963 8.576C57.1243 8.496 57.2643 8.456 57.4163 8.456C57.5603 8.456 57.6923 8.496 57.8123 8.576C57.9403 8.656 58.0443 8.792 58.1243 8.984L61.3763 16.28C61.4483 16.432 61.4763 16.572 61.4603 16.7C61.4443 16.82 61.3923 16.916 61.3043 16.988C61.2163 17.052 61.0923 17.084 60.9323 17.084C60.7563 17.084 60.6163 17.04 60.5123 16.952C60.4083 16.864 60.3163 16.728 60.2363 16.544L59.3963 14.6L59.9603 14.936H54.8483L55.4003 14.6L54.5723 16.544C54.4923 16.736 54.4043 16.876 54.3083 16.964C54.2123 17.044 54.0843 17.084 53.9243 17.084ZM57.3923 9.92L55.5803 14.216L55.2803 13.928H59.5163L59.2403 14.216L57.4163 9.92H57.3923ZM63.2762 19.244C63.0842 19.244 62.9362 19.192 62.8322 19.088C62.7282 18.984 62.6762 18.832 62.6762 18.632V11.672C62.6762 11.472 62.7282 11.32 62.8322 11.216C62.9362 11.112 63.0802 11.06 63.2642 11.06C63.4562 11.06 63.6042 11.112 63.7082 11.216C63.8122 11.32 63.8642 11.472 63.8642 11.672V12.716L63.7322 12.464C63.8602 12.032 64.1122 11.688 64.4882 11.432C64.8642 11.168 65.3082 11.036 65.8202 11.036C66.3402 11.036 66.7922 11.16 67.1762 11.408C67.5682 11.656 67.8682 12.004 68.0762 12.452C68.2922 12.9 68.4002 13.44 68.4002 14.072C68.4002 14.688 68.2922 15.228 68.0762 15.692C67.8682 16.148 67.5722 16.5 67.1882 16.748C66.8042 16.988 66.3482 17.108 65.8202 17.108C65.3162 17.108 64.8762 16.98 64.5002 16.724C64.1242 16.468 63.8722 16.128 63.7442 15.704H63.8882V18.632C63.8882 18.832 63.8322 18.984 63.7202 19.088C63.6162 19.192 63.4682 19.244 63.2762 19.244ZM65.5202 16.172C65.8562 16.172 66.1482 16.092 66.3962 15.932C66.6442 15.772 66.8362 15.536 66.9722 15.224C67.1082 14.912 67.1762 14.528 67.1762 14.072C67.1762 13.384 67.0242 12.864 66.7202 12.512C66.4242 12.16 66.0242 11.984 65.5202 11.984C65.1922 11.984 64.9002 12.064 64.6442 12.224C64.3962 12.376 64.2042 12.608 64.0682 12.92C63.9322 13.232 63.8642 13.616 63.8642 14.072C63.8642 14.752 64.0162 15.272 64.3202 15.632C64.6242 15.992 65.0242 16.172 65.5202 16.172ZM70.3661 19.244C70.1741 19.244 70.0261 19.192 69.9221 19.088C69.8181 18.984 69.7661 18.832 69.7661 18.632V11.672C69.7661 11.472 69.8181 11.32 69.9221 11.216C70.0261 11.112 70.1701 11.06 70.3541 11.06C70.5461 11.06 70.6941 11.112 70.7981 11.216C70.9021 11.32 70.9541 11.472 70.9541 11.672V12.716L70.8221 12.464C70.9501 12.032 71.2021 11.688 71.5781 11.432C71.9541 11.168 72.3981 11.036 72.9101 11.036C73.4301 11.036 73.8821 11.16 74.2661 11.408C74.6581 11.656 74.9581 12.004 75.1661 12.452C75.3821 12.9 75.4901 13.44 75.4901 14.072C75.4901 14.688 75.3821 15.228 75.1661 15.692C74.9581 16.148 74.6621 16.5 74.2781 16.748C73.8941 16.988 73.4381 17.108 72.9101 17.108C72.4061 17.108 71.9661 16.98 71.5901 16.724C71.2141 16.468 70.9621 16.128 70.8341 15.704H70.9781V18.632C70.9781 18.832 70.9221 18.984 70.8101 19.088C70.7061 19.192 70.5581 19.244 70.3661 19.244ZM72.6101 16.172C72.9461 16.172 73.2381 16.092 73.4861 15.932C73.7341 15.772 73.9261 15.536 74.0621 15.224C74.1981 14.912 74.2661 14.528 74.2661 14.072C74.2661 13.384 74.1141 12.864 73.8101 12.512C73.5141 12.16 73.1141 11.984 72.6101 11.984C72.2821 11.984 71.9901 12.064 71.7341 12.224C71.4861 12.376 71.2941 12.608 71.1581 12.92C71.0221 13.232 70.9541 13.616 70.9541 14.072C70.9541 14.752 71.1061 15.272 71.4101 15.632C71.7141 15.992 72.1141 16.172 72.6101 16.172ZM77.4679 17.084C77.2679 17.084 77.1159 17.032 77.0119 16.928C76.9079 16.816 76.8559 16.664 76.8559 16.472V11.672C76.8559 11.472 76.9079 11.32 77.0119 11.216C77.1159 11.112 77.2599 11.06 77.4439 11.06C77.6359 11.06 77.7799 11.112 77.8759 11.216C77.9799 11.32 78.0319 11.472 78.0319 11.672V12.548H77.9119C78.0399 12.068 78.2759 11.704 78.6199 11.456C78.9639 11.208 79.4039 11.064 79.9399 11.024C80.0839 11.016 80.1959 11.052 80.2759 11.132C80.3639 11.212 80.4119 11.336 80.4199 11.504C80.4359 11.672 80.3999 11.808 80.3119 11.912C80.2239 12.008 80.0879 12.064 79.9039 12.08L79.6759 12.104C79.1559 12.152 78.7599 12.316 78.4879 12.596C78.2159 12.876 78.0799 13.26 78.0799 13.748V16.472C78.0799 16.664 78.0279 16.816 77.9239 16.928C77.8279 17.032 77.6759 17.084 77.4679 17.084ZM83.7944 17.108C83.2024 17.108 82.6904 16.984 82.2584 16.736C81.8344 16.488 81.5024 16.136 81.2624 15.68C81.0224 15.224 80.9024 14.688 80.9024 14.072C80.9024 13.6 80.9704 13.18 81.1064 12.812C81.2424 12.444 81.4344 12.128 81.6824 11.864C81.9384 11.592 82.2424 11.388 82.5944 11.252C82.9544 11.108 83.3544 11.036 83.7944 11.036C84.3784 11.036 84.8824 11.16 85.3064 11.408C85.7384 11.656 86.0744 12.008 86.3144 12.464C86.5544 12.912 86.6744 13.448 86.6744 14.072C86.6744 14.536 86.6064 14.956 86.4704 15.332C86.3344 15.708 86.1384 16.028 85.8824 16.292C85.6344 16.556 85.3304 16.76 84.9704 16.904C84.6184 17.04 84.2264 17.108 83.7944 17.108ZM83.7944 16.172C84.1224 16.172 84.4104 16.092 84.6584 15.932C84.9064 15.772 85.0984 15.536 85.2344 15.224C85.3784 14.912 85.4504 14.528 85.4504 14.072C85.4504 13.384 85.2984 12.864 84.9944 12.512C84.6904 12.16 84.2904 11.984 83.7944 11.984C83.4584 11.984 83.1664 12.064 82.9184 12.224C82.6704 12.376 82.4744 12.608 82.3304 12.92C82.1944 13.232 82.1264 13.616 82.1264 14.072C82.1264 14.752 82.2784 15.272 82.5824 15.632C82.8864 15.992 83.2904 16.172 83.7944 16.172ZM90.1981 17.084C90.0301 17.084 89.8821 17.04 89.7541 16.952C89.6341 16.864 89.5341 16.728 89.4541 16.544L87.4501 11.888C87.3861 11.744 87.3621 11.608 87.3781 11.48C87.3941 11.352 87.4541 11.252 87.5581 11.18C87.6621 11.1 87.8021 11.06 87.9781 11.06C88.1301 11.06 88.2501 11.096 88.3381 11.168C88.4261 11.24 88.5061 11.364 88.5781 11.54L90.3901 16.004H90.0541L91.9021 11.54C91.9741 11.364 92.0541 11.24 92.1421 11.168C92.2381 11.096 92.3701 11.06 92.5381 11.06C92.6821 11.06 92.7941 11.1 92.8741 11.18C92.9621 11.252 93.0141 11.352 93.0301 11.48C93.0541 11.6 93.0341 11.732 92.9701 11.876L90.9421 16.544C90.8701 16.728 90.7701 16.864 90.6421 16.952C90.5141 17.04 90.3661 17.084 90.1981 17.084ZM95.9193 17.108C95.5113 17.108 95.1433 17.028 94.8153 16.868C94.4953 16.708 94.2433 16.492 94.0593 16.22C93.8753 15.948 93.7833 15.64 93.7833 15.296C93.7833 14.864 93.8913 14.524 94.1073 14.276C94.3313 14.02 94.6953 13.84 95.1993 13.736C95.7113 13.624 96.3993 13.568 97.2633 13.568H97.8273V14.312H97.2753C96.6993 14.312 96.2433 14.34 95.9073 14.396C95.5713 14.452 95.3313 14.548 95.1873 14.684C95.0513 14.812 94.9833 14.992 94.9833 15.224C94.9833 15.528 95.0873 15.776 95.2953 15.968C95.5033 16.152 95.7913 16.244 96.1593 16.244C96.4553 16.244 96.7153 16.176 96.9393 16.04C97.1633 15.896 97.3393 15.704 97.4673 15.464C97.6033 15.224 97.6713 14.948 97.6713 14.636V13.256C97.6713 12.8 97.5753 12.472 97.3833 12.272C97.1913 12.072 96.8753 11.972 96.4353 11.972C96.1793 11.972 95.9113 12.004 95.6313 12.068C95.3593 12.132 95.0753 12.24 94.7793 12.392C94.6433 12.456 94.5273 12.476 94.4313 12.452C94.3353 12.428 94.2593 12.376 94.2033 12.296C94.1473 12.208 94.1153 12.116 94.1073 12.02C94.1073 11.916 94.1313 11.816 94.1793 11.72C94.2353 11.624 94.3273 11.552 94.4553 11.504C94.8073 11.336 95.1553 11.216 95.4993 11.144C95.8433 11.072 96.1673 11.036 96.4713 11.036C97.0073 11.036 97.4473 11.12 97.7913 11.288C98.1433 11.456 98.4033 11.712 98.5713 12.056C98.7393 12.4 98.8233 12.844 98.8233 13.388V16.472C98.8233 16.664 98.7753 16.816 98.6793 16.928C98.5833 17.032 98.4433 17.084 98.2593 17.084C98.0833 17.084 97.9433 17.032 97.8393 16.928C97.7353 16.816 97.6833 16.664 97.6833 16.472V15.692H97.7913C97.7273 15.988 97.6073 16.244 97.4313 16.46C97.2633 16.668 97.0513 16.828 96.7953 16.94C96.5393 17.052 96.2473 17.108 95.9193 17.108ZM102.377 17.108C101.753 17.108 101.281 16.928 100.961 16.568C100.649 16.2 100.493 15.672 100.493 14.984V9.068C100.493 8.868 100.545 8.716 100.649 8.612C100.753 8.508 100.901 8.456 101.093 8.456C101.285 8.456 101.433 8.508 101.537 8.612C101.649 8.716 101.705 8.868 101.705 9.068V14.912C101.705 15.312 101.785 15.612 101.945 15.812C102.113 16.004 102.353 16.1 102.665 16.1C102.737 16.1 102.801 16.1 102.857 16.1C102.913 16.092 102.969 16.084 103.025 16.076C103.121 16.068 103.189 16.096 103.229 16.16C103.269 16.216 103.289 16.336 103.289 16.52C103.289 16.688 103.253 16.82 103.181 16.916C103.109 17.004 102.993 17.06 102.833 17.084C102.761 17.092 102.685 17.096 102.605 17.096C102.525 17.104 102.449 17.108 102.377 17.108Z" fill="#FFAA00"/>
<defs>
<linearGradient id="paint0_linear_1088_9089" x1="63.2629" y1="1" x2="63.2629" y2="25" gradientUnits="userSpaceOnUse">
<stop stop-color="#FFAA00" stop-opacity="0.75"/>
<stop offset="1" stop-color="#E89B01"/>
</linearGradient>
</defs>
</svg>
