<svg width="420" height="150" viewBox="0 0 420 150" fill="none" xmlns="http://www.w3.org/2000/svg">
<path d="M8.672 12.084C8.472 12.084 8.316 12.028 8.204 11.916C8.1 11.804 8.048 11.648 8.048 11.448V4.584H5.504C5.336 4.584 5.204 4.54 5.108 4.452C5.012 4.356 4.964 4.224 4.964 4.056C4.964 3.888 5.012 3.76 5.108 3.672C5.204 3.584 5.336 3.54 5.504 3.54H11.828C12.004 3.54 12.14 3.584 12.236 3.672C12.332 3.76 12.38 3.888 12.38 4.056C12.38 4.224 12.332 4.356 12.236 4.452C12.14 4.54 12.004 4.584 11.828 4.584H9.284V11.448C9.284 11.648 9.232 11.804 9.128 11.916C9.032 12.028 8.88 12.084 8.672 12.084ZM15.0102 12.108C14.3702 12.108 13.8182 11.988 13.3542 11.748C12.8982 11.5 12.5422 11.152 12.2862 10.704C12.0382 10.248 11.9142 9.708 11.9142 9.084C11.9142 8.476 12.0382 7.944 12.2862 7.488C12.5342 7.032 12.8742 6.676 13.3062 6.42C13.7382 6.164 14.2302 6.036 14.7822 6.036C15.1902 6.036 15.5542 6.104 15.8742 6.24C16.1942 6.368 16.4662 6.56 16.6902 6.816C16.9222 7.064 17.0942 7.368 17.2062 7.728C17.3262 8.088 17.3862 8.492 17.3862 8.94C17.3862 9.076 17.3462 9.18 17.2662 9.252C17.1862 9.316 17.0662 9.348 16.9062 9.348H12.8742V8.604H16.5702L16.3662 8.772C16.3662 8.372 16.3062 8.032 16.1862 7.752C16.0742 7.472 15.9022 7.26 15.6702 7.116C15.4462 6.964 15.1662 6.888 14.8302 6.888C14.4542 6.888 14.1342 6.976 13.8702 7.152C13.6142 7.328 13.4182 7.572 13.2822 7.884C13.1462 8.196 13.0782 8.56 13.0782 8.976V9.048C13.0782 9.752 13.2422 10.284 13.5702 10.644C13.9062 10.996 14.3902 11.172 15.0222 11.172C15.2622 11.172 15.5142 11.14 15.7782 11.076C16.0502 11.012 16.3062 10.904 16.5462 10.752C16.6822 10.672 16.8022 10.636 16.9062 10.644C17.0182 10.652 17.1062 10.688 17.1702 10.752C17.2422 10.816 17.2862 10.896 17.3022 10.992C17.3182 11.088 17.3022 11.188 17.2542 11.292C17.2062 11.388 17.1222 11.476 17.0022 11.556C16.7302 11.74 16.4142 11.88 16.0542 11.976C15.6942 12.064 15.3462 12.108 15.0102 12.108ZM18.8646 12.072C18.7206 12.072 18.6006 12.032 18.5046 11.952C18.4166 11.864 18.3686 11.756 18.3606 11.628C18.3606 11.5 18.4166 11.36 18.5286 11.208L20.5566 8.676V9.276L18.6606 6.912C18.5326 6.768 18.4726 6.632 18.4806 6.504C18.4886 6.368 18.5406 6.26 18.6366 6.18C18.7326 6.1 18.8486 6.06 18.9846 6.06C19.1366 6.06 19.2606 6.088 19.3566 6.144C19.4606 6.192 19.5566 6.276 19.6446 6.396L21.2406 8.424H20.8086L22.4166 6.396C22.5046 6.276 22.5966 6.192 22.6926 6.144C22.7966 6.088 22.9206 6.06 23.0646 6.06C23.2086 6.06 23.3246 6.104 23.4126 6.192C23.5086 6.272 23.5566 6.38 23.5566 6.516C23.5646 6.644 23.5086 6.78 23.3886 6.924L21.4926 9.252V8.712L23.5206 11.208C23.6406 11.352 23.6966 11.492 23.6886 11.628C23.6886 11.756 23.6406 11.864 23.5446 11.952C23.4486 12.032 23.3286 12.072 23.1846 12.072C23.0406 12.072 22.9166 12.044 22.8126 11.988C22.7166 11.932 22.6206 11.848 22.5246 11.736L20.8086 9.576H21.2166L19.5126 11.736C19.4246 11.84 19.3286 11.924 19.2246 11.988C19.1286 12.044 19.0086 12.072 18.8646 12.072ZM27.5668 12.108C27.0868 12.108 26.6828 12.024 26.3548 11.856C26.0268 11.688 25.7828 11.44 25.6228 11.112C25.4628 10.784 25.3828 10.384 25.3828 9.912V7.08H24.6628C24.5028 7.08 24.3788 7.04 24.2908 6.96C24.2027 6.872 24.1587 6.756 24.1587 6.612C24.1587 6.46 24.2027 6.344 24.2908 6.264C24.3788 6.184 24.5028 6.144 24.6628 6.144H25.3828V4.908C25.3828 4.708 25.4348 4.556 25.5388 4.452C25.6508 4.348 25.8028 4.296 25.9948 4.296C26.1868 4.296 26.3348 4.348 26.4388 4.452C26.5428 4.556 26.5948 4.708 26.5948 4.908V6.144H27.9988C28.1588 6.144 28.2828 6.184 28.3708 6.264C28.4588 6.344 28.5028 6.46 28.5028 6.612C28.5028 6.756 28.4588 6.872 28.3708 6.96C28.2828 7.04 28.1588 7.08 27.9988 7.08H26.5948V9.816C26.5948 10.24 26.6828 10.56 26.8588 10.776C27.0428 10.992 27.3388 11.1 27.7467 11.1C27.8908 11.1 28.0148 11.088 28.1188 11.064C28.2308 11.032 28.3228 11.012 28.3948 11.004C28.4828 11.004 28.5548 11.036 28.6108 11.1C28.6668 11.156 28.6948 11.268 28.6948 11.436C28.6948 11.556 28.6708 11.668 28.6228 11.772C28.5828 11.876 28.5068 11.944 28.3948 11.976C28.2988 12.008 28.1668 12.036 27.9988 12.06C27.8388 12.092 27.6948 12.108 27.5668 12.108ZM29.7678 9.288C29.6238 9.288 29.5038 9.24 29.4078 9.144C29.3118 9.048 29.2638 8.932 29.2638 8.796C29.2638 8.652 29.3118 8.536 29.4078 8.448C29.5038 8.352 29.6238 8.304 29.7678 8.304H32.4078C32.5438 8.304 32.6598 8.352 32.7558 8.448C32.8518 8.536 32.8998 8.652 32.8998 8.796C32.8998 8.932 32.8518 9.048 32.7558 9.144C32.6598 9.24 32.5438 9.288 32.4078 9.288H29.7678ZM36.3763 12.108C35.9683 12.108 35.6003 12.028 35.2723 11.868C34.9523 11.708 34.7003 11.492 34.5163 11.22C34.3323 10.948 34.2403 10.64 34.2403 10.296C34.2403 9.864 34.3483 9.524 34.5643 9.276C34.7883 9.02 35.1523 8.84 35.6563 8.736C36.1683 8.624 36.8563 8.568 37.7203 8.568H38.2843V9.312H37.7323C37.1563 9.312 36.7003 9.34 36.3643 9.396C36.0283 9.452 35.7883 9.548 35.6443 9.684C35.5083 9.812 35.4403 9.992 35.4403 10.224C35.4403 10.528 35.5443 10.776 35.7523 10.968C35.9603 11.152 36.2483 11.244 36.6163 11.244C36.9123 11.244 37.1723 11.176 37.3963 11.04C37.6203 10.896 37.7963 10.704 37.9243 10.464C38.0603 10.224 38.1283 9.948 38.1283 9.636V8.256C38.1283 7.8 38.0323 7.472 37.8403 7.272C37.6483 7.072 37.3323 6.972 36.8923 6.972C36.6363 6.972 36.3683 7.004 36.0883 7.068C35.8163 7.132 35.5323 7.24 35.2363 7.392C35.1003 7.456 34.9843 7.476 34.8883 7.452C34.7923 7.428 34.7163 7.376 34.6603 7.296C34.6043 7.208 34.5723 7.116 34.5643 7.02C34.5643 6.916 34.5883 6.816 34.6363 6.72C34.6923 6.624 34.7843 6.552 34.9123 6.504C35.2643 6.336 35.6123 6.216 35.9563 6.144C36.3003 6.072 36.6243 6.036 36.9283 6.036C37.4643 6.036 37.9043 6.12 38.2483 6.288C38.6003 6.456 38.8603 6.712 39.0283 7.056C39.1963 7.4 39.2803 7.844 39.2803 8.388V11.472C39.2803 11.664 39.2323 11.816 39.1363 11.928C39.0403 12.032 38.9003 12.084 38.7163 12.084C38.5403 12.084 38.4003 12.032 38.2963 11.928C38.1923 11.816 38.1403 11.664 38.1403 11.472V10.692H38.2483C38.1843 10.988 38.0643 11.244 37.8883 11.46C37.7203 11.668 37.5083 11.828 37.2523 11.94C36.9963 12.052 36.7043 12.108 36.3763 12.108ZM41.5617 12.084C41.3617 12.084 41.2097 12.032 41.1057 11.928C41.0017 11.816 40.9497 11.664 40.9497 11.472V6.672C40.9497 6.472 41.0017 6.32 41.1057 6.216C41.2097 6.112 41.3537 6.06 41.5377 6.06C41.7297 6.06 41.8737 6.112 41.9697 6.216C42.0737 6.32 42.1257 6.472 42.1257 6.672V7.548H42.0057C42.1337 7.068 42.3697 6.704 42.7137 6.456C43.0577 6.208 43.4977 6.064 44.0337 6.024C44.1777 6.016 44.2897 6.052 44.3697 6.132C44.4577 6.212 44.5057 6.336 44.5137 6.504C44.5297 6.672 44.4937 6.808 44.4057 6.912C44.3177 7.008 44.1817 7.064 43.9977 7.08L43.7697 7.104C43.2497 7.152 42.8537 7.316 42.5817 7.596C42.3097 7.876 42.1737 8.26 42.1737 8.748V11.472C42.1737 11.664 42.1217 11.816 42.0177 11.928C41.9217 12.032 41.7697 12.084 41.5617 12.084ZM46.0262 12.072C45.8342 12.072 45.6862 12.016 45.5822 11.904C45.4782 11.784 45.4262 11.62 45.4262 11.412V6.732C45.4262 6.524 45.4782 6.364 45.5822 6.252C45.6862 6.14 45.8342 6.084 46.0262 6.084C46.2182 6.084 46.3662 6.14 46.4702 6.252C46.5822 6.364 46.6382 6.524 46.6382 6.732V11.412C46.6382 11.62 46.5862 11.784 46.4822 11.904C46.3782 12.016 46.2262 12.072 46.0262 12.072ZM46.0262 4.836C45.7862 4.836 45.5982 4.776 45.4622 4.656C45.3342 4.536 45.2702 4.368 45.2702 4.152C45.2702 3.928 45.3342 3.76 45.4622 3.648C45.5982 3.528 45.7862 3.468 46.0262 3.468C46.2662 3.468 46.4502 3.528 46.5782 3.648C46.7142 3.76 46.7822 3.928 46.7822 4.152C46.7822 4.368 46.7142 4.536 46.5782 4.656C46.4502 4.776 46.2662 4.836 46.0262 4.836ZM50.2162 12.108C49.8082 12.108 49.4402 12.028 49.1122 11.868C48.7922 11.708 48.5402 11.492 48.3562 11.22C48.1722 10.948 48.0802 10.64 48.0802 10.296C48.0802 9.864 48.1882 9.524 48.4042 9.276C48.6282 9.02 48.9922 8.84 49.4962 8.736C50.0082 8.624 50.6962 8.568 51.5602 8.568H52.1242V9.312H51.5722C50.9962 9.312 50.5402 9.34 50.2042 9.396C49.8682 9.452 49.6282 9.548 49.4842 9.684C49.3482 9.812 49.2802 9.992 49.2802 10.224C49.2802 10.528 49.3842 10.776 49.5922 10.968C49.8002 11.152 50.0882 11.244 50.4562 11.244C50.7522 11.244 51.0122 11.176 51.2362 11.04C51.4602 10.896 51.6362 10.704 51.7642 10.464C51.9002 10.224 51.9682 9.948 51.9682 9.636V8.256C51.9682 7.8 51.8722 7.472 51.6802 7.272C51.4882 7.072 51.1722 6.972 50.7322 6.972C50.4762 6.972 50.2082 7.004 49.9282 7.068C49.6562 7.132 49.3722 7.24 49.0762 7.392C48.9402 7.456 48.8242 7.476 48.7282 7.452C48.6322 7.428 48.5562 7.376 48.5002 7.296C48.4442 7.208 48.4122 7.116 48.4042 7.02C48.4042 6.916 48.4282 6.816 48.4762 6.72C48.5322 6.624 48.6242 6.552 48.7522 6.504C49.1042 6.336 49.4522 6.216 49.7962 6.144C50.1402 6.072 50.4642 6.036 50.7682 6.036C51.3042 6.036 51.7442 6.12 52.0882 6.288C52.4402 6.456 52.7002 6.712 52.8682 7.056C53.0362 7.4 53.1202 7.844 53.1202 8.388V11.472C53.1202 11.664 53.0722 11.816 52.9762 11.928C52.8802 12.032 52.7402 12.084 52.5562 12.084C52.3802 12.084 52.2402 12.032 52.1362 11.928C52.0322 11.816 51.9802 11.664 51.9802 11.472V10.692H52.0882C52.0242 10.988 51.9042 11.244 51.7282 11.46C51.5602 11.668 51.3482 11.828 51.0922 11.94C50.8362 12.052 50.5442 12.108 50.2162 12.108Z" fill="#64728C"/>
<g filter="url(#filter0_d_1002_3593)">
<rect x="5" y="21" width="410" height="120" rx="12" fill="white" shape-rendering="crispEdges"/>
<rect x="5.5" y="21.5" width="409" height="119" rx="11.5" stroke="#EB0910" shape-rendering="crispEdges"/>
<path d="M18.612 37.084C18.46 37.084 18.34 37.04 18.252 36.952C18.164 36.856 18.12 36.728 18.12 36.568V29.392H15.42C15.276 29.392 15.164 29.352 15.084 29.272C15.004 29.192 14.964 29.088 14.964 28.96C14.964 28.824 15.004 28.72 15.084 28.648C15.164 28.576 15.276 28.54 15.42 28.54H21.816C21.96 28.54 22.072 28.576 22.152 28.648C22.232 28.72 22.272 28.824 22.272 28.96C22.272 29.096 22.232 29.204 22.152 29.284C22.072 29.356 21.96 29.392 21.816 29.392H19.116V36.568C19.116 36.728 19.072 36.856 18.984 36.952C18.904 37.04 18.78 37.084 18.612 37.084ZM23.5596 39.244C23.4396 39.244 23.3436 39.212 23.2716 39.148C23.1996 39.084 23.1556 38.996 23.1396 38.884C23.1316 38.78 23.1516 38.672 23.1996 38.56L24.0276 36.7V37.12L21.7236 31.768C21.6756 31.648 21.6596 31.536 21.6756 31.432C21.6916 31.328 21.7396 31.244 21.8196 31.18C21.8996 31.116 22.0116 31.084 22.1556 31.084C22.2836 31.084 22.3836 31.112 22.4556 31.168C22.5276 31.224 22.5916 31.324 22.6476 31.468L24.6156 36.292H24.2916L26.2836 31.468C26.3476 31.324 26.4156 31.224 26.4876 31.168C26.5596 31.112 26.6636 31.084 26.7996 31.084C26.9276 31.084 27.0236 31.116 27.0876 31.18C27.1596 31.244 27.1996 31.328 27.2076 31.432C27.2236 31.528 27.2076 31.636 27.1596 31.756L24.0876 38.86C24.0236 39.004 23.9516 39.104 23.8716 39.16C23.7996 39.216 23.6956 39.244 23.5596 39.244ZM28.9076 39.244C28.7476 39.244 28.6276 39.2 28.5476 39.112C28.4676 39.032 28.4276 38.912 28.4276 38.752V31.576C28.4276 31.416 28.4676 31.296 28.5476 31.216C28.6276 31.128 28.7436 31.084 28.8956 31.084C29.0556 31.084 29.1756 31.128 29.2556 31.216C29.3436 31.296 29.3876 31.416 29.3876 31.576V32.716L29.2556 32.548C29.3836 32.092 29.6356 31.732 30.0116 31.468C30.3956 31.196 30.8516 31.06 31.3796 31.06C31.8996 31.06 32.3516 31.184 32.7356 31.432C33.1276 31.672 33.4276 32.02 33.6356 32.476C33.8516 32.924 33.9596 33.46 33.9596 34.084C33.9596 34.7 33.8516 35.236 33.6356 35.692C33.4276 36.14 33.1316 36.488 32.7476 36.736C32.3636 36.984 31.9076 37.108 31.3796 37.108C30.8516 37.108 30.3996 36.976 30.0236 36.712C29.6476 36.44 29.3916 36.08 29.2556 35.632H29.3996V38.752C29.3996 38.912 29.3556 39.032 29.2676 39.112C29.1796 39.2 29.0596 39.244 28.9076 39.244ZM31.1756 36.328C31.5436 36.328 31.8596 36.24 32.1236 36.064C32.3956 35.888 32.6036 35.632 32.7476 35.296C32.8996 34.96 32.9756 34.556 32.9756 34.084C32.9756 33.356 32.8116 32.8 32.4836 32.416C32.1636 32.032 31.7276 31.84 31.1756 31.84C30.8156 31.84 30.4996 31.928 30.2276 32.104C29.9556 32.272 29.7436 32.524 29.5916 32.86C29.4476 33.188 29.3756 33.596 29.3756 34.084C29.3756 34.804 29.5396 35.36 29.8676 35.752C30.1956 36.136 30.6316 36.328 31.1756 36.328ZM38.0517 37.108C37.4357 37.108 36.9037 36.988 36.4557 36.748C36.0157 36.5 35.6717 36.152 35.4237 35.704C35.1837 35.256 35.0637 34.72 35.0637 34.096C35.0637 33.488 35.1837 32.96 35.4237 32.512C35.6637 32.056 35.9917 31.7 36.4077 31.444C36.8317 31.188 37.3197 31.06 37.8717 31.06C38.2637 31.06 38.6157 31.128 38.9277 31.264C39.2397 31.392 39.5037 31.58 39.7197 31.828C39.9437 32.076 40.1117 32.376 40.2237 32.728C40.3437 33.08 40.4037 33.476 40.4037 33.916C40.4037 34.044 40.3677 34.14 40.2957 34.204C40.2237 34.26 40.1197 34.288 39.9837 34.288H35.8077V33.652H39.7557L39.5637 33.808C39.5637 33.376 39.4997 33.012 39.3717 32.716C39.2437 32.412 39.0557 32.18 38.8077 32.02C38.5677 31.86 38.2637 31.78 37.8957 31.78C37.4877 31.78 37.1397 31.876 36.8517 32.068C36.5717 32.252 36.3597 32.512 36.2157 32.848C36.0717 33.176 35.9997 33.56 35.9997 34V34.072C35.9997 34.808 36.1757 35.368 36.5277 35.752C36.8877 36.136 37.3957 36.328 38.0517 36.328C38.3237 36.328 38.5917 36.292 38.8557 36.22C39.1277 36.148 39.3917 36.028 39.6477 35.86C39.7597 35.788 39.8597 35.756 39.9477 35.764C40.0437 35.764 40.1197 35.792 40.1757 35.848C40.2317 35.896 40.2677 35.96 40.2837 36.04C40.3077 36.112 40.2997 36.192 40.2597 36.28C40.2277 36.368 40.1597 36.444 40.0557 36.508C39.7917 36.7 39.4797 36.848 39.1197 36.952C38.7597 37.056 38.4037 37.108 38.0517 37.108ZM46.2002 39.244C46.0802 39.244 45.9842 39.212 45.9122 39.148C45.8402 39.084 45.7962 38.996 45.7802 38.884C45.7722 38.78 45.7922 38.672 45.8402 38.56L46.6682 36.7V37.12L44.3642 31.768C44.3162 31.648 44.3002 31.536 44.3162 31.432C44.3322 31.328 44.3802 31.244 44.4602 31.18C44.5402 31.116 44.6522 31.084 44.7962 31.084C44.9242 31.084 45.0242 31.112 45.0962 31.168C45.1682 31.224 45.2322 31.324 45.2882 31.468L47.2562 36.292H46.9322L48.9242 31.468C48.9882 31.324 49.0562 31.224 49.1282 31.168C49.2002 31.112 49.3042 31.084 49.4402 31.084C49.5682 31.084 49.6642 31.116 49.7282 31.18C49.8002 31.244 49.8402 31.328 49.8482 31.432C49.8642 31.528 49.8482 31.636 49.8002 31.756L46.7282 38.86C46.6642 39.004 46.5922 39.104 46.5122 39.16C46.4402 39.216 46.3362 39.244 46.2002 39.244ZM53.4102 37.108C52.8422 37.108 52.3502 36.984 51.9342 36.736C51.5182 36.488 51.1942 36.14 50.9622 35.692C50.7382 35.236 50.6262 34.7 50.6262 34.084C50.6262 33.62 50.6902 33.204 50.8182 32.836C50.9462 32.46 51.1342 32.14 51.3822 31.876C51.6302 31.612 51.9222 31.412 52.2582 31.276C52.6022 31.132 52.9862 31.06 53.4102 31.06C53.9782 31.06 54.4702 31.184 54.8862 31.432C55.3022 31.68 55.6222 32.032 55.8462 32.488C56.0782 32.936 56.1942 33.468 56.1942 34.084C56.1942 34.548 56.1302 34.964 56.0022 35.332C55.8742 35.7 55.6862 36.02 55.4382 36.292C55.1902 36.556 54.8942 36.76 54.5502 36.904C54.2142 37.04 53.8342 37.108 53.4102 37.108ZM53.4102 36.328C53.7702 36.328 54.0862 36.24 54.3582 36.064C54.6302 35.888 54.8382 35.632 54.9822 35.296C55.1342 34.96 55.2102 34.556 55.2102 34.084C55.2102 33.356 55.0462 32.8 54.7182 32.416C54.3982 32.032 53.9622 31.84 53.4102 31.84C53.0422 31.84 52.7222 31.928 52.4502 32.104C52.1862 32.272 51.9782 32.524 51.8262 32.86C51.6822 33.188 51.6102 33.596 51.6102 34.084C51.6102 34.804 51.7742 35.36 52.1022 35.752C52.4302 36.136 52.8662 36.328 53.4102 36.328ZM59.7182 37.108C59.2462 37.108 58.8542 37.024 58.5422 36.856C58.2382 36.68 58.0062 36.42 57.8462 36.076C57.6942 35.732 57.6182 35.304 57.6182 34.792V31.576C57.6182 31.408 57.6582 31.284 57.7382 31.204C57.8262 31.124 57.9462 31.084 58.0982 31.084C58.2582 31.084 58.3782 31.124 58.4582 31.204C58.5462 31.284 58.5902 31.408 58.5902 31.576V34.78C58.5902 35.292 58.6942 35.676 58.9022 35.932C59.1182 36.18 59.4542 36.304 59.9102 36.304C60.4062 36.304 60.8102 36.136 61.1222 35.8C61.4342 35.464 61.5902 35.024 61.5902 34.48V31.576C61.5902 31.408 61.6302 31.284 61.7102 31.204C61.7982 31.124 61.9222 31.084 62.0822 31.084C62.2342 31.084 62.3502 31.124 62.4302 31.204C62.5182 31.284 62.5622 31.408 62.5622 31.576V36.58C62.5622 36.916 62.4062 37.084 62.0942 37.084C61.9422 37.084 61.8222 37.04 61.7342 36.952C61.6542 36.864 61.6142 36.74 61.6142 36.58V35.488L61.7702 35.656C61.6102 36.128 61.3462 36.488 60.9782 36.736C60.6182 36.984 60.1982 37.108 59.7182 37.108ZM64.8728 37.084C64.7128 37.084 64.5888 37.04 64.5008 36.952C64.4208 36.864 64.3808 36.74 64.3808 36.58V31.576C64.3808 31.416 64.4208 31.296 64.5008 31.216C64.5808 31.128 64.6968 31.084 64.8488 31.084C65.0008 31.084 65.1168 31.128 65.1968 31.216C65.2848 31.296 65.3288 31.416 65.3288 31.576V32.548H65.2088C65.3368 32.076 65.5808 31.712 65.9408 31.456C66.3008 31.2 66.7448 31.064 67.2728 31.048C67.3928 31.04 67.4888 31.068 67.5608 31.132C67.6328 31.188 67.6728 31.288 67.6808 31.432C67.6888 31.568 67.6568 31.676 67.5848 31.756C67.5128 31.836 67.4008 31.884 67.2488 31.9L67.0568 31.924C66.5128 31.972 66.0928 32.148 65.7968 32.452C65.5088 32.748 65.3648 33.156 65.3648 33.676V36.58C65.3648 36.74 65.3208 36.864 65.2327 36.952C65.1528 37.04 65.0328 37.084 64.8728 37.084ZM75.5673 37.108C74.7353 37.108 74.0233 36.932 73.4313 36.58C72.8393 36.228 72.3833 35.728 72.0633 35.08C71.7513 34.432 71.5953 33.66 71.5953 32.764C71.5953 32.092 71.6833 31.492 71.8593 30.964C72.0433 30.428 72.3033 29.976 72.6393 29.608C72.9833 29.232 73.4033 28.944 73.8993 28.744C74.3953 28.536 74.9513 28.432 75.5673 28.432C76.0633 28.432 76.5353 28.504 76.9833 28.648C77.4313 28.784 77.8193 28.988 78.1473 29.26C78.2513 29.34 78.3193 29.432 78.3513 29.536C78.3913 29.632 78.3953 29.728 78.3633 29.824C78.3393 29.912 78.2913 29.988 78.2193 30.052C78.1553 30.108 78.0753 30.136 77.9793 30.136C77.8833 30.136 77.7753 30.096 77.6553 30.016C77.3673 29.784 77.0513 29.612 76.7073 29.5C76.3633 29.388 75.9913 29.332 75.5913 29.332C74.9593 29.332 74.4233 29.468 73.9833 29.74C73.5433 30.004 73.2113 30.392 72.9873 30.904C72.7633 31.416 72.6513 32.036 72.6513 32.764C72.6513 33.492 72.7633 34.116 72.9873 34.636C73.2113 35.148 73.5433 35.54 73.9833 35.812C74.4233 36.076 74.9593 36.208 75.5913 36.208C75.9833 36.208 76.3553 36.152 76.7073 36.04C77.0593 35.92 77.3833 35.744 77.6793 35.512C77.7993 35.432 77.9073 35.396 78.0033 35.404C78.0993 35.404 78.1793 35.432 78.2433 35.488C78.3073 35.544 78.3513 35.616 78.3753 35.704C78.4073 35.792 78.4073 35.884 78.3753 35.98C78.3513 36.076 78.2913 36.16 78.1953 36.232C77.8593 36.52 77.4633 36.74 77.0073 36.892C76.5593 37.036 76.0793 37.108 75.5673 37.108ZM81.8516 37.108C81.2836 37.108 80.7916 36.984 80.3756 36.736C79.9596 36.488 79.6356 36.14 79.4036 35.692C79.1796 35.236 79.0676 34.7 79.0676 34.084C79.0676 33.62 79.1316 33.204 79.2596 32.836C79.3876 32.46 79.5756 32.14 79.8236 31.876C80.0716 31.612 80.3636 31.412 80.6996 31.276C81.0436 31.132 81.4276 31.06 81.8516 31.06C82.4196 31.06 82.9116 31.184 83.3276 31.432C83.7436 31.68 84.0636 32.032 84.2876 32.488C84.5196 32.936 84.6356 33.468 84.6356 34.084C84.6356 34.548 84.5716 34.964 84.4436 35.332C84.3156 35.7 84.1276 36.02 83.8796 36.292C83.6316 36.556 83.3356 36.76 82.9916 36.904C82.6556 37.04 82.2756 37.108 81.8516 37.108ZM81.8516 36.328C82.2116 36.328 82.5276 36.24 82.7996 36.064C83.0716 35.888 83.2796 35.632 83.4236 35.296C83.5756 34.96 83.6516 34.556 83.6516 34.084C83.6516 33.356 83.4876 32.8 83.1596 32.416C82.8396 32.032 82.4036 31.84 81.8516 31.84C81.4836 31.84 81.1636 31.928 80.8916 32.104C80.6276 32.272 80.4196 32.524 80.2676 32.86C80.1236 33.188 80.0516 33.596 80.0516 34.084C80.0516 34.804 80.2156 35.36 80.5436 35.752C80.8716 36.136 81.3076 36.328 81.8516 36.328ZM86.5996 37.084C86.4396 37.084 86.3196 37.04 86.2396 36.952C86.1596 36.864 86.1196 36.74 86.1196 36.58V31.576C86.1196 31.416 86.1596 31.296 86.2396 31.216C86.3196 31.128 86.4356 31.084 86.5876 31.084C86.7396 31.084 86.8556 31.128 86.9356 31.216C87.0236 31.296 87.0676 31.416 87.0676 31.576V32.632L86.9356 32.464C87.0876 32.016 87.3316 31.672 87.6676 31.432C88.0116 31.184 88.4196 31.06 88.8916 31.06C89.3876 31.06 89.7876 31.18 90.0916 31.42C90.4036 31.652 90.6116 32.016 90.7156 32.512H90.5356C90.6796 32.064 90.9356 31.712 91.3036 31.456C91.6796 31.192 92.1156 31.06 92.6116 31.06C93.0516 31.06 93.4116 31.144 93.6916 31.312C93.9796 31.48 94.1956 31.736 94.3396 32.08C94.4836 32.416 94.5556 32.844 94.5556 33.364V36.58C94.5556 36.74 94.5116 36.864 94.4236 36.952C94.3436 37.04 94.2236 37.084 94.0636 37.084C93.9116 37.084 93.7916 37.04 93.7036 36.952C93.6236 36.864 93.5836 36.74 93.5836 36.58V33.412C93.5836 32.876 93.4916 32.484 93.3076 32.236C93.1236 31.98 92.8116 31.852 92.3716 31.852C91.8916 31.852 91.5116 32.02 91.2316 32.356C90.9596 32.684 90.8236 33.132 90.8236 33.7V36.58C90.8236 36.74 90.7796 36.864 90.6916 36.952C90.6116 37.04 90.4916 37.084 90.3316 37.084C90.1796 37.084 90.0596 37.04 89.9716 36.952C89.8916 36.864 89.8516 36.74 89.8516 36.58V33.412C89.8516 32.876 89.7556 32.484 89.5636 32.236C89.3796 31.98 89.0716 31.852 88.6396 31.852C88.1596 31.852 87.7796 32.02 87.4996 32.356C87.2276 32.684 87.0916 33.132 87.0916 33.7V36.58C87.0916 36.916 86.9276 37.084 86.5996 37.084ZM96.8769 37.084C96.7169 37.084 96.5969 37.04 96.5169 36.952C96.4369 36.864 96.3969 36.74 96.3969 36.58V31.576C96.3969 31.416 96.4369 31.296 96.5169 31.216C96.5969 31.128 96.7129 31.084 96.8649 31.084C97.0169 31.084 97.1329 31.128 97.2129 31.216C97.3009 31.296 97.3449 31.416 97.3449 31.576V32.632L97.2129 32.464C97.3649 32.016 97.6089 31.672 97.9449 31.432C98.2889 31.184 98.6969 31.06 99.1689 31.06C99.6649 31.06 100.065 31.18 100.369 31.42C100.681 31.652 100.889 32.016 100.993 32.512H100.813C100.957 32.064 101.213 31.712 101.581 31.456C101.957 31.192 102.393 31.06 102.889 31.06C103.329 31.06 103.689 31.144 103.969 31.312C104.257 31.48 104.473 31.736 104.617 32.08C104.761 32.416 104.833 32.844 104.833 33.364V36.58C104.833 36.74 104.789 36.864 104.701 36.952C104.621 37.04 104.501 37.084 104.341 37.084C104.189 37.084 104.069 37.04 103.981 36.952C103.901 36.864 103.861 36.74 103.861 36.58V33.412C103.861 32.876 103.769 32.484 103.585 32.236C103.401 31.98 103.089 31.852 102.649 31.852C102.169 31.852 101.789 32.02 101.509 32.356C101.237 32.684 101.101 33.132 101.101 33.7V36.58C101.101 36.74 101.057 36.864 100.969 36.952C100.889 37.04 100.769 37.084 100.609 37.084C100.457 37.084 100.337 37.04 100.249 36.952C100.169 36.864 100.129 36.74 100.129 36.58V33.412C100.129 32.876 100.033 32.484 99.8409 32.236C99.6569 31.98 99.3489 31.852 98.9169 31.852C98.4369 31.852 98.0569 32.02 97.7769 32.356C97.5049 32.684 97.3689 33.132 97.3689 33.7V36.58C97.3689 36.916 97.2049 37.084 96.8769 37.084ZM109.278 37.108C108.662 37.108 108.13 36.988 107.682 36.748C107.242 36.5 106.898 36.152 106.65 35.704C106.41 35.256 106.29 34.72 106.29 34.096C106.29 33.488 106.41 32.96 106.65 32.512C106.89 32.056 107.218 31.7 107.634 31.444C108.058 31.188 108.546 31.06 109.098 31.06C109.49 31.06 109.842 31.128 110.154 31.264C110.466 31.392 110.73 31.58 110.946 31.828C111.17 32.076 111.338 32.376 111.45 32.728C111.57 33.08 111.63 33.476 111.63 33.916C111.63 34.044 111.594 34.14 111.522 34.204C111.45 34.26 111.346 34.288 111.21 34.288H107.034V33.652H110.982L110.79 33.808C110.79 33.376 110.726 33.012 110.598 32.716C110.47 32.412 110.282 32.18 110.034 32.02C109.794 31.86 109.49 31.78 109.122 31.78C108.714 31.78 108.366 31.876 108.078 32.068C107.798 32.252 107.586 32.512 107.442 32.848C107.298 33.176 107.226 33.56 107.226 34V34.072C107.226 34.808 107.402 35.368 107.754 35.752C108.114 36.136 108.622 36.328 109.278 36.328C109.55 36.328 109.818 36.292 110.082 36.22C110.354 36.148 110.618 36.028 110.874 35.86C110.986 35.788 111.086 35.756 111.174 35.764C111.27 35.764 111.346 35.792 111.402 35.848C111.458 35.896 111.494 35.96 111.51 36.04C111.534 36.112 111.526 36.192 111.486 36.28C111.454 36.368 111.386 36.444 111.282 36.508C111.018 36.7 110.706 36.848 110.346 36.952C109.986 37.056 109.63 37.108 109.278 37.108ZM113.517 37.084C113.357 37.084 113.237 37.04 113.157 36.952C113.077 36.864 113.037 36.74 113.037 36.58V31.576C113.037 31.416 113.077 31.296 113.157 31.216C113.237 31.128 113.353 31.084 113.505 31.084C113.657 31.084 113.773 31.128 113.853 31.216C113.941 31.296 113.985 31.416 113.985 31.576V32.608L113.853 32.464C114.021 32 114.293 31.652 114.669 31.42C115.053 31.18 115.493 31.06 115.989 31.06C116.453 31.06 116.837 31.144 117.141 31.312C117.453 31.48 117.685 31.736 117.837 32.08C117.989 32.416 118.065 32.844 118.065 33.364V36.58C118.065 36.74 118.021 36.864 117.933 36.952C117.853 37.04 117.737 37.084 117.585 37.084C117.425 37.084 117.301 37.04 117.213 36.952C117.133 36.864 117.093 36.74 117.093 36.58V33.424C117.093 32.88 116.985 32.484 116.769 32.236C116.561 31.98 116.225 31.852 115.761 31.852C115.225 31.852 114.797 32.02 114.477 32.356C114.165 32.684 114.009 33.124 114.009 33.676V36.58C114.009 36.916 113.845 37.084 113.517 37.084ZM122.197 37.108C121.741 37.108 121.357 37.028 121.045 36.868C120.741 36.7 120.513 36.46 120.361 36.148C120.209 35.828 120.133 35.44 120.133 34.984V31.924H119.329C119.193 31.924 119.089 31.892 119.017 31.828C118.945 31.756 118.909 31.66 118.909 31.54C118.909 31.42 118.945 31.328 119.017 31.264C119.089 31.2 119.193 31.168 119.329 31.168H120.133V29.788C120.133 29.628 120.177 29.508 120.265 29.428C120.353 29.34 120.473 29.296 120.625 29.296C120.777 29.296 120.893 29.34 120.973 29.428C121.061 29.508 121.105 29.628 121.105 29.788V31.168H122.617C122.753 31.168 122.857 31.2 122.929 31.264C123.001 31.328 123.037 31.42 123.037 31.54C123.037 31.66 123.001 31.756 122.929 31.828C122.857 31.892 122.753 31.924 122.617 31.924H121.105V34.888C121.105 35.344 121.201 35.692 121.393 35.932C121.585 36.164 121.897 36.28 122.329 36.28C122.481 36.28 122.609 36.264 122.713 36.232C122.825 36.2 122.917 36.184 122.989 36.184C123.061 36.176 123.121 36.2 123.169 36.256C123.217 36.312 123.241 36.408 123.241 36.544C123.241 36.64 123.221 36.728 123.181 36.808C123.149 36.888 123.089 36.944 123.001 36.976C122.905 37.008 122.777 37.036 122.617 37.06C122.465 37.092 122.325 37.108 122.197 37.108ZM127.77 37.084C127.61 37.084 127.486 37.04 127.398 36.952C127.318 36.856 127.278 36.728 127.278 36.568V28.972C127.278 28.804 127.318 28.676 127.398 28.588C127.486 28.5 127.61 28.456 127.77 28.456C127.93 28.456 128.05 28.5 128.13 28.588C128.218 28.676 128.262 28.804 128.262 28.972V32.284H133.338V28.972C133.338 28.804 133.378 28.676 133.458 28.588C133.546 28.5 133.67 28.456 133.83 28.456C133.99 28.456 134.11 28.5 134.19 28.588C134.278 28.676 134.322 28.804 134.322 28.972V36.568C134.322 36.728 134.278 36.856 134.19 36.952C134.11 37.04 133.99 37.084 133.83 37.084C133.67 37.084 133.546 37.04 133.458 36.952C133.378 36.856 133.338 36.728 133.338 36.568V33.136H128.262V36.568C128.262 36.728 128.222 36.856 128.142 36.952C128.062 37.04 127.938 37.084 127.77 37.084ZM138.903 37.108C138.287 37.108 137.755 36.988 137.307 36.748C136.867 36.5 136.523 36.152 136.275 35.704C136.035 35.256 135.915 34.72 135.915 34.096C135.915 33.488 136.035 32.96 136.275 32.512C136.515 32.056 136.843 31.7 137.259 31.444C137.683 31.188 138.171 31.06 138.723 31.06C139.115 31.06 139.467 31.128 139.779 31.264C140.091 31.392 140.355 31.58 140.571 31.828C140.795 32.076 140.963 32.376 141.075 32.728C141.195 33.08 141.255 33.476 141.255 33.916C141.255 34.044 141.219 34.14 141.147 34.204C141.075 34.26 140.971 34.288 140.835 34.288H136.659V33.652H140.607L140.415 33.808C140.415 33.376 140.351 33.012 140.223 32.716C140.095 32.412 139.907 32.18 139.659 32.02C139.419 31.86 139.115 31.78 138.747 31.78C138.339 31.78 137.991 31.876 137.703 32.068C137.423 32.252 137.211 32.512 137.067 32.848C136.923 33.176 136.851 33.56 136.851 34V34.072C136.851 34.808 137.027 35.368 137.379 35.752C137.739 36.136 138.247 36.328 138.903 36.328C139.175 36.328 139.443 36.292 139.707 36.22C139.979 36.148 140.243 36.028 140.499 35.86C140.611 35.788 140.711 35.756 140.799 35.764C140.895 35.764 140.971 35.792 141.027 35.848C141.083 35.896 141.119 35.96 141.135 36.04C141.159 36.112 141.151 36.192 141.111 36.28C141.079 36.368 141.011 36.444 140.907 36.508C140.643 36.7 140.331 36.848 139.971 36.952C139.611 37.056 139.255 37.108 138.903 37.108ZM143.154 37.084C142.994 37.084 142.87 37.04 142.782 36.952C142.702 36.864 142.662 36.74 142.662 36.58V31.576C142.662 31.416 142.702 31.296 142.782 31.216C142.862 31.128 142.978 31.084 143.13 31.084C143.282 31.084 143.398 31.128 143.478 31.216C143.566 31.296 143.61 31.416 143.61 31.576V32.548H143.49C143.618 32.076 143.862 31.712 144.222 31.456C144.582 31.2 145.026 31.064 145.554 31.048C145.674 31.04 145.77 31.068 145.842 31.132C145.914 31.188 145.954 31.288 145.962 31.432C145.97 31.568 145.938 31.676 145.866 31.756C145.794 31.836 145.682 31.884 145.53 31.9L145.338 31.924C144.794 31.972 144.374 32.148 144.078 32.452C143.79 32.748 143.646 33.156 143.646 33.676V36.58C143.646 36.74 143.602 36.864 143.514 36.952C143.434 37.04 143.314 37.084 143.154 37.084ZM149.52 37.108C148.904 37.108 148.372 36.988 147.924 36.748C147.484 36.5 147.14 36.152 146.892 35.704C146.652 35.256 146.532 34.72 146.532 34.096C146.532 33.488 146.652 32.96 146.892 32.512C147.132 32.056 147.46 31.7 147.876 31.444C148.3 31.188 148.788 31.06 149.34 31.06C149.732 31.06 150.084 31.128 150.396 31.264C150.708 31.392 150.972 31.58 151.188 31.828C151.412 32.076 151.58 32.376 151.692 32.728C151.812 33.08 151.872 33.476 151.872 33.916C151.872 34.044 151.836 34.14 151.764 34.204C151.692 34.26 151.588 34.288 151.452 34.288H147.276V33.652H151.224L151.032 33.808C151.032 33.376 150.968 33.012 150.84 32.716C150.712 32.412 150.524 32.18 150.276 32.02C150.036 31.86 149.732 31.78 149.364 31.78C148.956 31.78 148.608 31.876 148.32 32.068C148.04 32.252 147.828 32.512 147.684 32.848C147.54 33.176 147.468 33.56 147.468 34V34.072C147.468 34.808 147.644 35.368 147.996 35.752C148.356 36.136 148.864 36.328 149.52 36.328C149.792 36.328 150.06 36.292 150.324 36.22C150.596 36.148 150.86 36.028 151.116 35.86C151.228 35.788 151.328 35.756 151.416 35.764C151.512 35.764 151.588 35.792 151.644 35.848C151.7 35.896 151.736 35.96 151.752 36.04C151.776 36.112 151.768 36.192 151.728 36.28C151.696 36.368 151.628 36.444 151.524 36.508C151.26 36.7 150.948 36.848 150.588 36.952C150.228 37.056 149.872 37.108 149.52 37.108ZM153.747 37.048C153.547 37.048 153.387 36.988 153.267 36.868C153.147 36.74 153.087 36.58 153.087 36.388C153.087 36.196 153.147 36.04 153.267 35.92C153.387 35.792 153.547 35.728 153.747 35.728C153.947 35.728 154.103 35.792 154.215 35.92C154.335 36.04 154.395 36.196 154.395 36.388C154.395 36.58 154.335 36.74 154.215 36.868C154.103 36.988 153.947 37.048 153.747 37.048ZM156.478 37.048C156.278 37.048 156.118 36.988 155.998 36.868C155.878 36.74 155.818 36.58 155.818 36.388C155.818 36.196 155.878 36.04 155.998 35.92C156.118 35.792 156.278 35.728 156.478 35.728C156.678 35.728 156.834 35.792 156.946 35.92C157.066 36.04 157.126 36.196 157.126 36.388C157.126 36.58 157.066 36.74 156.946 36.868C156.834 36.988 156.678 37.048 156.478 37.048ZM159.208 37.048C159.008 37.048 158.848 36.988 158.728 36.868C158.608 36.74 158.548 36.58 158.548 36.388C158.548 36.196 158.608 36.04 158.728 35.92C158.848 35.792 159.008 35.728 159.208 35.728C159.408 35.728 159.564 35.792 159.676 35.92C159.796 36.04 159.856 36.196 159.856 36.388C159.856 36.58 159.796 36.74 159.676 36.868C159.564 36.988 159.408 37.048 159.208 37.048Z" fill="#929BAA"/>
</g>
<defs>
<filter id="filter0_d_1002_3593" x="0" y="20" width="420" height="130" filterUnits="userSpaceOnUse" color-interpolation-filters="sRGB">
<feFlood flood-opacity="0" result="BackgroundImageFix"/>
<feColorMatrix in="SourceAlpha" type="matrix" values="0 0 0 0 0 0 0 0 0 0 0 0 0 0 0 0 0 0 127 0" result="hardAlpha"/>
<feOffset dy="4"/>
<feGaussianBlur stdDeviation="2.5"/>
<feComposite in2="hardAlpha" operator="out"/>
<feColorMatrix type="matrix" values="0 0 0 0 0.921569 0 0 0 0 0.0352941 0 0 0 0 0.0627451 0 0 0 0.1 0"/>
<feBlend mode="normal" in2="BackgroundImageFix" result="effect1_dropShadow_1002_3593"/>
<feBlend mode="normal" in="SourceGraphic" in2="effect1_dropShadow_1002_3593" result="shape"/>
</filter>
</defs>
</svg>
