<svg width="400" height="219" viewBox="0 0 400 219" fill="none" xmlns="http://www.w3.org/2000/svg">
<g filter="url(#filter0_d_1338_4634)">
<g filter="url(#filter1_d_1338_4634)">
<g clip-path="url(#clip0_1338_4634)">
<rect x="50" y="71" width="300" height="94" rx="25" fill="#34BC40"/>
<g filter="url(#filter2_d_1338_4634)">
<rect x="50" y="71" width="300" height="91" rx="25" fill="white" shape-rendering="crispEdges"/>
<rect x="50" y="71" width="300" height="91" rx="25" fill="url(#paint0_linear_1338_4634)" fill-opacity="0.2" shape-rendering="crispEdges"/>
<path d="M70.522 110.154C70.13 110.154 69.7287 110.121 69.318 110.056C68.9167 110 68.5293 109.916 68.156 109.804C67.792 109.692 67.4653 109.552 67.176 109.384C66.9707 109.272 66.826 109.127 66.742 108.95C66.658 108.763 66.6253 108.577 66.644 108.39C66.672 108.203 66.742 108.04 66.854 107.9C66.9753 107.751 67.1247 107.657 67.302 107.62C67.4887 107.573 67.694 107.606 67.918 107.718C68.3007 107.933 68.716 108.091 69.164 108.194C69.6213 108.297 70.074 108.348 70.522 108.348C71.2033 108.348 71.6887 108.245 71.978 108.04C72.2673 107.825 72.412 107.559 72.412 107.242C72.412 106.971 72.3093 106.757 72.104 106.598C71.8987 106.439 71.5393 106.304 71.026 106.192L69.444 105.856C68.548 105.669 67.8807 105.352 67.442 104.904C67.0127 104.447 66.798 103.849 66.798 103.112C66.798 102.645 66.896 102.221 67.092 101.838C67.288 101.455 67.5633 101.124 67.918 100.844C68.2727 100.564 68.6927 100.349 69.178 100.2C69.6727 100.051 70.214 99.976 70.802 99.976C71.3247 99.976 71.838 100.041 72.342 100.172C72.846 100.293 73.2893 100.475 73.672 100.718C73.8587 100.83 73.9847 100.975 74.05 101.152C74.1247 101.32 74.148 101.493 74.12 101.67C74.1013 101.838 74.0313 101.987 73.91 102.118C73.798 102.249 73.6533 102.333 73.476 102.37C73.2987 102.407 73.084 102.365 72.832 102.244C72.524 102.085 72.1973 101.969 71.852 101.894C71.5067 101.819 71.152 101.782 70.788 101.782C70.396 101.782 70.06 101.833 69.78 101.936C69.5093 102.039 69.2993 102.183 69.15 102.37C69.01 102.557 68.94 102.771 68.94 103.014C68.94 103.285 69.038 103.504 69.234 103.672C69.43 103.84 69.7707 103.975 70.256 104.078L71.838 104.414C72.7527 104.61 73.434 104.927 73.882 105.366C74.33 105.795 74.554 106.365 74.554 107.074C74.554 107.541 74.4607 107.965 74.274 108.348C74.0873 108.721 73.8167 109.043 73.462 109.314C73.1073 109.585 72.6827 109.795 72.188 109.944C71.6933 110.084 71.138 110.154 70.522 110.154ZM78.3148 110.154C77.7361 110.154 77.2554 110.047 76.8728 109.832C76.4901 109.617 76.2054 109.295 76.0188 108.866C75.8414 108.427 75.7528 107.886 75.7528 107.242V104.078C75.7528 103.723 75.8414 103.457 76.0188 103.28C76.2054 103.103 76.4668 103.014 76.8028 103.014C77.1388 103.014 77.4001 103.103 77.5868 103.28C77.7734 103.457 77.8668 103.723 77.8668 104.078V107.298C77.8668 107.709 77.9508 108.017 78.1188 108.222C78.2868 108.418 78.5528 108.516 78.9168 108.516C79.3181 108.516 79.6448 108.376 79.8968 108.096C80.1581 107.807 80.2888 107.429 80.2888 106.962V104.078C80.2888 103.723 80.3774 103.457 80.5548 103.28C80.7414 103.103 81.0028 103.014 81.3388 103.014C81.6841 103.014 81.9454 103.103 82.1228 103.28C82.3094 103.457 82.4028 103.723 82.4028 104.078V109.048C82.4028 109.767 82.0621 110.126 81.3808 110.126C81.0448 110.126 80.7881 110.033 80.6108 109.846C80.4334 109.659 80.3448 109.393 80.3448 109.048V108.11L80.5548 108.656C80.3494 109.132 80.0554 109.501 79.6728 109.762C79.2901 110.023 78.8374 110.154 78.3148 110.154ZM87.3846 110.154C86.6379 110.154 85.9846 110.009 85.4246 109.72C84.8739 109.421 84.4492 109.001 84.1506 108.46C83.8519 107.919 83.7026 107.279 83.7026 106.542C83.7026 105.991 83.7866 105.497 83.9546 105.058C84.1226 104.619 84.3652 104.246 84.6826 103.938C85.0092 103.63 85.4012 103.397 85.8586 103.238C86.3159 103.07 86.8246 102.986 87.3846 102.986C87.6739 102.986 87.9819 103.023 88.3086 103.098C88.6352 103.163 88.9572 103.28 89.2746 103.448C89.4612 103.532 89.5872 103.653 89.6526 103.812C89.7272 103.961 89.7552 104.12 89.7366 104.288C89.7179 104.447 89.6572 104.591 89.5546 104.722C89.4612 104.843 89.3399 104.927 89.1906 104.974C89.0412 105.011 88.8732 104.983 88.6866 104.89C88.5092 104.787 88.3226 104.713 88.1266 104.666C87.9399 104.619 87.7626 104.596 87.5946 104.596C87.3146 104.596 87.0672 104.643 86.8526 104.736C86.6379 104.82 86.4559 104.946 86.3066 105.114C86.1666 105.273 86.0546 105.473 85.9706 105.716C85.8959 105.959 85.8586 106.239 85.8586 106.556C85.8586 107.172 86.0079 107.657 86.3066 108.012C86.6146 108.357 87.0439 108.53 87.5946 108.53C87.7626 108.53 87.9399 108.511 88.1266 108.474C88.3132 108.427 88.4999 108.353 88.6866 108.25C88.8732 108.157 89.0412 108.133 89.1906 108.18C89.3399 108.227 89.4566 108.315 89.5406 108.446C89.6339 108.567 89.6852 108.712 89.6946 108.88C89.7132 109.039 89.6852 109.197 89.6106 109.356C89.5452 109.505 89.4239 109.622 89.2466 109.706C88.9292 109.865 88.6119 109.977 88.2946 110.042C87.9772 110.117 87.6739 110.154 87.3846 110.154ZM93.9334 110.154C93.1867 110.154 92.5334 110.009 91.9734 109.72C91.4227 109.421 90.9981 109.001 90.6994 108.46C90.4007 107.919 90.2514 107.279 90.2514 106.542C90.2514 105.991 90.3354 105.497 90.5034 105.058C90.6714 104.619 90.9141 104.246 91.2314 103.938C91.5581 103.63 91.9501 103.397 92.4074 103.238C92.8647 103.07 93.3734 102.986 93.9334 102.986C94.2227 102.986 94.5307 103.023 94.8574 103.098C95.1841 103.163 95.5061 103.28 95.8234 103.448C96.0101 103.532 96.1361 103.653 96.2014 103.812C96.2761 103.961 96.3041 104.12 96.2854 104.288C96.2667 104.447 96.2061 104.591 96.1034 104.722C96.0101 104.843 95.8887 104.927 95.7394 104.974C95.5901 105.011 95.4221 104.983 95.2354 104.89C95.0581 104.787 94.8714 104.713 94.6754 104.666C94.4887 104.619 94.3114 104.596 94.1434 104.596C93.8634 104.596 93.6161 104.643 93.4014 104.736C93.1867 104.82 93.0047 104.946 92.8554 105.114C92.7154 105.273 92.6034 105.473 92.5194 105.716C92.4447 105.959 92.4074 106.239 92.4074 106.556C92.4074 107.172 92.5567 107.657 92.8554 108.012C93.1634 108.357 93.5927 108.53 94.1434 108.53C94.3114 108.53 94.4887 108.511 94.6754 108.474C94.8621 108.427 95.0487 108.353 95.2354 108.25C95.4221 108.157 95.5901 108.133 95.7394 108.18C95.8887 108.227 96.0054 108.315 96.0894 108.446C96.1827 108.567 96.2341 108.712 96.2434 108.88C96.2621 109.039 96.2341 109.197 96.1594 109.356C96.0941 109.505 95.9727 109.622 95.7954 109.706C95.4781 109.865 95.1607 109.977 94.8434 110.042C94.5261 110.117 94.2227 110.154 93.9334 110.154ZM100.706 110.154C99.8942 110.154 99.1942 110.009 98.6062 109.72C98.0276 109.421 97.5796 109.006 97.2622 108.474C96.9542 107.933 96.8002 107.298 96.8002 106.57C96.8002 105.861 96.9496 105.24 97.2482 104.708C97.5469 104.167 97.9622 103.747 98.4942 103.448C99.0356 103.14 99.6469 102.986 100.328 102.986C100.823 102.986 101.271 103.07 101.672 103.238C102.074 103.397 102.419 103.63 102.708 103.938C102.998 104.237 103.217 104.605 103.366 105.044C103.516 105.473 103.59 105.954 103.59 106.486C103.59 106.663 103.534 106.799 103.422 106.892C103.31 106.976 103.147 107.018 102.932 107.018H98.5362V105.926H102.064L101.84 106.122C101.84 105.739 101.784 105.422 101.672 105.17C101.56 104.909 101.397 104.713 101.182 104.582C100.977 104.451 100.72 104.386 100.412 104.386C100.067 104.386 99.7729 104.465 99.5302 104.624C99.2876 104.783 99.1009 105.011 98.9702 105.31C98.8396 105.609 98.7742 105.968 98.7742 106.388V106.5C98.7742 107.209 98.9376 107.732 99.2642 108.068C99.6002 108.404 100.095 108.572 100.748 108.572C100.972 108.572 101.229 108.544 101.518 108.488C101.808 108.432 102.078 108.343 102.33 108.222C102.545 108.119 102.736 108.087 102.904 108.124C103.072 108.152 103.203 108.227 103.296 108.348C103.39 108.469 103.441 108.609 103.45 108.768C103.469 108.927 103.436 109.085 103.352 109.244C103.268 109.393 103.128 109.519 102.932 109.622C102.615 109.799 102.256 109.93 101.854 110.014C101.462 110.107 101.08 110.154 100.706 110.154ZM107.452 110.154C107.041 110.154 106.616 110.117 106.178 110.042C105.748 109.967 105.356 109.841 105.002 109.664C104.815 109.571 104.68 109.454 104.596 109.314C104.521 109.165 104.488 109.015 104.498 108.866C104.507 108.717 104.554 108.581 104.638 108.46C104.731 108.339 104.848 108.259 104.988 108.222C105.137 108.175 105.3 108.189 105.478 108.264C105.86 108.423 106.21 108.535 106.528 108.6C106.845 108.665 107.158 108.698 107.466 108.698C107.867 108.698 108.156 108.637 108.334 108.516C108.52 108.385 108.614 108.217 108.614 108.012C108.614 107.825 108.553 107.685 108.432 107.592C108.31 107.499 108.133 107.433 107.9 107.396L106.43 107.13C105.851 107.027 105.403 106.817 105.086 106.5C104.778 106.173 104.624 105.758 104.624 105.254C104.624 104.787 104.754 104.386 105.016 104.05C105.277 103.705 105.636 103.443 106.094 103.266C106.56 103.079 107.088 102.986 107.676 102.986C108.096 102.986 108.483 103.023 108.838 103.098C109.192 103.173 109.533 103.294 109.86 103.462C110.028 103.546 110.144 103.658 110.21 103.798C110.284 103.938 110.308 104.083 110.28 104.232C110.261 104.381 110.205 104.517 110.112 104.638C110.018 104.759 109.897 104.839 109.748 104.876C109.608 104.913 109.444 104.895 109.258 104.82C108.959 104.68 108.684 104.582 108.432 104.526C108.18 104.461 107.937 104.428 107.704 104.428C107.284 104.428 106.98 104.498 106.794 104.638C106.607 104.769 106.514 104.937 106.514 105.142C106.514 105.301 106.565 105.436 106.668 105.548C106.78 105.651 106.948 105.721 107.172 105.758L108.642 106.024C109.248 106.127 109.71 106.332 110.028 106.64C110.345 106.939 110.504 107.349 110.504 107.872C110.504 108.581 110.224 109.141 109.664 109.552C109.113 109.953 108.376 110.154 107.452 110.154ZM114.342 110.154C113.932 110.154 113.507 110.117 113.068 110.042C112.639 109.967 112.247 109.841 111.892 109.664C111.706 109.571 111.57 109.454 111.486 109.314C111.412 109.165 111.379 109.015 111.388 108.866C111.398 108.717 111.444 108.581 111.528 108.46C111.622 108.339 111.738 108.259 111.878 108.222C112.028 108.175 112.191 108.189 112.368 108.264C112.751 108.423 113.101 108.535 113.418 108.6C113.736 108.665 114.048 108.698 114.356 108.698C114.758 108.698 115.047 108.637 115.224 108.516C115.411 108.385 115.504 108.217 115.504 108.012C115.504 107.825 115.444 107.685 115.322 107.592C115.201 107.499 115.024 107.433 114.79 107.396L113.32 107.13C112.742 107.027 112.294 106.817 111.976 106.5C111.668 106.173 111.514 105.758 111.514 105.254C111.514 104.787 111.645 104.386 111.906 104.05C112.168 103.705 112.527 103.443 112.984 103.266C113.451 103.079 113.978 102.986 114.566 102.986C114.986 102.986 115.374 103.023 115.728 103.098C116.083 103.173 116.424 103.294 116.75 103.462C116.918 103.546 117.035 103.658 117.1 103.798C117.175 103.938 117.198 104.083 117.17 104.232C117.152 104.381 117.096 104.517 117.002 104.638C116.909 104.759 116.788 104.839 116.638 104.876C116.498 104.913 116.335 104.895 116.148 104.82C115.85 104.68 115.574 104.582 115.322 104.526C115.07 104.461 114.828 104.428 114.594 104.428C114.174 104.428 113.871 104.498 113.684 104.638C113.498 104.769 113.404 104.937 113.404 105.142C113.404 105.301 113.456 105.436 113.558 105.548C113.67 105.651 113.838 105.721 114.062 105.758L115.532 106.024C116.139 106.127 116.601 106.332 116.918 106.64C117.236 106.939 117.394 107.349 117.394 107.872C117.394 108.581 117.114 109.141 116.554 109.552C116.004 109.953 115.266 110.154 114.342 110.154ZM120.197 110.126C119.852 110.126 119.586 110.033 119.399 109.846C119.222 109.659 119.133 109.393 119.133 109.048V104.708H118.629C118.368 104.708 118.162 104.638 118.013 104.498C117.873 104.358 117.803 104.167 117.803 103.924C117.803 103.663 117.873 103.467 118.013 103.336C118.162 103.196 118.368 103.126 118.629 103.126H119.749L119.133 103.686V103.252C119.133 102.253 119.38 101.507 119.875 101.012C120.379 100.517 121.116 100.219 122.087 100.116L122.535 100.074C122.778 100.055 122.969 100.093 123.109 100.186C123.258 100.279 123.356 100.401 123.403 100.55C123.45 100.699 123.459 100.853 123.431 101.012C123.403 101.161 123.338 101.297 123.235 101.418C123.142 101.53 123.011 101.591 122.843 101.6L122.647 101.614C122.143 101.651 121.784 101.773 121.569 101.978C121.354 102.174 121.247 102.477 121.247 102.888V103.364L120.981 103.126H122.241C122.512 103.126 122.717 103.196 122.857 103.336C122.997 103.467 123.067 103.663 123.067 103.924C123.067 104.167 122.997 104.358 122.857 104.498C122.717 104.638 122.512 104.708 122.241 104.708H121.247V109.048C121.247 109.767 120.897 110.126 120.197 110.126ZM126.481 110.154C125.902 110.154 125.421 110.047 125.039 109.832C124.656 109.617 124.371 109.295 124.185 108.866C124.007 108.427 123.919 107.886 123.919 107.242V104.078C123.919 103.723 124.007 103.457 124.185 103.28C124.371 103.103 124.633 103.014 124.969 103.014C125.305 103.014 125.566 103.103 125.753 103.28C125.939 103.457 126.033 103.723 126.033 104.078V107.298C126.033 107.709 126.117 108.017 126.285 108.222C126.453 108.418 126.719 108.516 127.083 108.516C127.484 108.516 127.811 108.376 128.063 108.096C128.324 107.807 128.455 107.429 128.455 106.962V104.078C128.455 103.723 128.543 103.457 128.721 103.28C128.907 103.103 129.169 103.014 129.505 103.014C129.85 103.014 130.111 103.103 130.289 103.28C130.475 103.457 130.569 103.723 130.569 104.078V109.048C130.569 109.767 130.228 110.126 129.547 110.126C129.211 110.126 128.954 110.033 128.777 109.846C128.599 109.659 128.511 109.393 128.511 109.048V108.11L128.721 108.656C128.515 109.132 128.221 109.501 127.839 109.762C127.456 110.023 127.003 110.154 126.481 110.154ZM134.683 110.154C133.852 110.154 133.231 109.925 132.821 109.468C132.41 109.001 132.205 108.311 132.205 107.396V101.082C132.205 100.727 132.293 100.461 132.471 100.284C132.657 100.097 132.923 100.004 133.269 100.004C133.605 100.004 133.861 100.097 134.039 100.284C134.225 100.461 134.319 100.727 134.319 101.082V107.312C134.319 107.695 134.398 107.979 134.557 108.166C134.725 108.343 134.944 108.432 135.215 108.432C135.289 108.432 135.359 108.427 135.425 108.418C135.49 108.409 135.56 108.404 135.635 108.404C135.784 108.385 135.887 108.432 135.943 108.544C136.008 108.647 136.041 108.857 136.041 109.174C136.041 109.454 135.985 109.669 135.873 109.818C135.761 109.958 135.588 110.051 135.355 110.098C135.261 110.107 135.154 110.117 135.033 110.126C134.911 110.145 134.795 110.154 134.683 110.154Z" fill="#34BC40"/>
<path d="M70.776 126.108C69.92 126.108 69.188 125.932 68.58 125.58C67.972 125.228 67.504 124.728 67.176 124.08C66.856 123.424 66.696 122.652 66.696 121.764C66.696 121.1 66.788 120.504 66.972 119.976C67.156 119.44 67.42 118.984 67.764 118.608C68.116 118.224 68.544 117.932 69.048 117.732C69.56 117.532 70.136 117.432 70.776 117.432C71.248 117.432 71.7 117.496 72.132 117.624C72.572 117.752 72.952 117.936 73.272 118.176C73.408 118.264 73.496 118.372 73.536 118.5C73.584 118.62 73.592 118.736 73.56 118.848C73.536 118.96 73.484 119.056 73.404 119.136C73.324 119.208 73.22 119.248 73.092 119.256C72.972 119.264 72.84 119.22 72.696 119.124C72.432 118.924 72.14 118.776 71.82 118.68C71.5 118.584 71.164 118.536 70.812 118.536C70.204 118.536 69.692 118.664 69.276 118.92C68.86 119.168 68.544 119.532 68.328 120.012C68.112 120.492 68.004 121.076 68.004 121.764C68.004 122.452 68.112 123.04 68.328 123.528C68.544 124.008 68.86 124.376 69.276 124.632C69.692 124.88 70.204 125.004 70.812 125.004C71.164 125.004 71.5 124.956 71.82 124.86C72.148 124.756 72.456 124.604 72.744 124.404C72.888 124.316 73.016 124.276 73.128 124.284C73.248 124.292 73.348 124.332 73.428 124.404C73.508 124.476 73.56 124.568 73.584 124.68C73.616 124.784 73.612 124.896 73.572 125.016C73.54 125.128 73.464 125.224 73.344 125.304C73.016 125.568 72.628 125.768 72.18 125.904C71.732 126.04 71.264 126.108 70.776 126.108ZM75.5614 126.084C75.3694 126.084 75.2214 126.032 75.1174 125.928C75.0134 125.816 74.9614 125.664 74.9614 125.472V118.068C74.9614 117.868 75.0134 117.716 75.1174 117.612C75.2214 117.508 75.3694 117.456 75.5614 117.456C75.7534 117.456 75.9014 117.508 76.0054 117.612C76.1174 117.716 76.1734 117.868 76.1734 118.068V121.392H76.0054C76.1814 120.944 76.4574 120.608 76.8334 120.384C77.2094 120.152 77.6414 120.036 78.1294 120.036C78.5934 120.036 78.9774 120.124 79.2814 120.3C79.5934 120.468 79.8254 120.728 79.9774 121.08C80.1294 121.424 80.2054 121.86 80.2054 122.388V125.472C80.2054 125.664 80.1534 125.816 80.0494 125.928C79.9454 126.032 79.7974 126.084 79.6054 126.084C79.4054 126.084 79.2534 126.032 79.1494 125.928C79.0454 125.816 78.9934 125.664 78.9934 125.472V122.46C78.9934 121.956 78.8934 121.588 78.6934 121.356C78.5014 121.124 78.1974 121.008 77.7814 121.008C77.2934 121.008 76.9014 121.16 76.6054 121.464C76.3174 121.768 76.1734 122.176 76.1734 122.688V125.472C76.1734 125.88 75.9694 126.084 75.5614 126.084ZM83.7474 126.108C83.3394 126.108 82.9714 126.028 82.6434 125.868C82.3234 125.708 82.0714 125.492 81.8874 125.22C81.7034 124.948 81.6114 124.64 81.6114 124.296C81.6114 123.864 81.7194 123.524 81.9354 123.276C82.1594 123.02 82.5234 122.84 83.0274 122.736C83.5394 122.624 84.2274 122.568 85.0914 122.568H85.6554V123.312H85.1034C84.5274 123.312 84.0714 123.34 83.7354 123.396C83.3994 123.452 83.1594 123.548 83.0154 123.684C82.8794 123.812 82.8114 123.992 82.8114 124.224C82.8114 124.528 82.9154 124.776 83.1234 124.968C83.3314 125.152 83.6194 125.244 83.9874 125.244C84.2834 125.244 84.5434 125.176 84.7674 125.04C84.9914 124.896 85.1674 124.704 85.2954 124.464C85.4314 124.224 85.4994 123.948 85.4994 123.636V122.256C85.4994 121.8 85.4034 121.472 85.2114 121.272C85.0194 121.072 84.7034 120.972 84.2634 120.972C84.0074 120.972 83.7394 121.004 83.4594 121.068C83.1874 121.132 82.9034 121.24 82.6074 121.392C82.4714 121.456 82.3554 121.476 82.2594 121.452C82.1634 121.428 82.0874 121.376 82.0314 121.296C81.9754 121.208 81.9434 121.116 81.9354 121.02C81.9354 120.916 81.9594 120.816 82.0074 120.72C82.0634 120.624 82.1554 120.552 82.2834 120.504C82.6354 120.336 82.9834 120.216 83.3274 120.144C83.6714 120.072 83.9954 120.036 84.2994 120.036C84.8354 120.036 85.2754 120.12 85.6194 120.288C85.9714 120.456 86.2314 120.712 86.3994 121.056C86.5674 121.4 86.6514 121.844 86.6514 122.388V125.472C86.6514 125.664 86.6034 125.816 86.5074 125.928C86.4114 126.032 86.2714 126.084 86.0874 126.084C85.9114 126.084 85.7714 126.032 85.6674 125.928C85.5634 125.816 85.5114 125.664 85.5114 125.472V124.692H85.6194C85.5554 124.988 85.4354 125.244 85.2594 125.46C85.0914 125.668 84.8794 125.828 84.6234 125.94C84.3674 126.052 84.0754 126.108 83.7474 126.108ZM88.9208 126.084C88.7288 126.084 88.5808 126.032 88.4768 125.928C88.3728 125.816 88.3208 125.664 88.3208 125.472V120.672C88.3208 120.472 88.3728 120.32 88.4768 120.216C88.5808 120.112 88.7248 120.06 88.9088 120.06C89.1008 120.06 89.2448 120.112 89.3408 120.216C89.4448 120.32 89.4968 120.472 89.4968 120.672V121.608L89.3648 121.392C89.5408 120.944 89.8168 120.608 90.1928 120.384C90.5688 120.152 91.0008 120.036 91.4888 120.036C91.9528 120.036 92.3368 120.124 92.6408 120.3C92.9528 120.468 93.1848 120.728 93.3368 121.08C93.4888 121.424 93.5648 121.86 93.5648 122.388V125.472C93.5648 125.664 93.5128 125.816 93.4088 125.928C93.3048 126.032 93.1568 126.084 92.9648 126.084C92.7648 126.084 92.6128 126.032 92.5088 125.928C92.4048 125.816 92.3528 125.664 92.3528 125.472V122.46C92.3528 121.956 92.2528 121.588 92.0528 121.356C91.8608 121.124 91.5568 121.008 91.1408 121.008C90.6528 121.008 90.2608 121.16 89.9648 121.464C89.6768 121.768 89.5328 122.176 89.5328 122.688V125.472C89.5328 125.88 89.3288 126.084 88.9208 126.084ZM97.8868 128.268C97.4548 128.268 97.0348 128.224 96.6268 128.136C96.2268 128.048 95.8628 127.904 95.5348 127.704C95.4148 127.64 95.3348 127.56 95.2948 127.464C95.2548 127.376 95.2428 127.284 95.2588 127.188C95.2828 127.092 95.3268 127.008 95.3908 126.936C95.4548 126.864 95.5308 126.816 95.6188 126.792C95.7148 126.768 95.8148 126.784 95.9188 126.84C96.2708 127.032 96.6028 127.16 96.9148 127.224C97.2348 127.296 97.5308 127.332 97.8028 127.332C98.3628 127.332 98.7828 127.188 99.0628 126.9C99.3428 126.62 99.4828 126.204 99.4828 125.652V124.428H99.5908C99.4708 124.868 99.2188 125.216 98.8348 125.472C98.4508 125.728 98.0068 125.856 97.5028 125.856C96.9748 125.856 96.5148 125.736 96.1228 125.496C95.7308 125.248 95.4268 124.908 95.2108 124.476C94.9948 124.036 94.8868 123.524 94.8868 122.94C94.8868 122.5 94.9468 122.104 95.0668 121.752C95.1948 121.4 95.3708 121.096 95.5948 120.84C95.8268 120.584 96.1028 120.388 96.4228 120.252C96.7508 120.108 97.1108 120.036 97.5028 120.036C98.0148 120.036 98.4588 120.164 98.8348 120.42C99.2188 120.676 99.4668 121.024 99.5788 121.464L99.4588 121.668V120.672C99.4588 120.472 99.5108 120.32 99.6148 120.216C99.7268 120.112 99.8748 120.06 100.059 120.06C100.251 120.06 100.399 120.112 100.503 120.216C100.607 120.32 100.659 120.472 100.659 120.672V125.508C100.659 126.42 100.423 127.108 99.9508 127.572C99.4788 128.036 98.7908 128.268 97.8868 128.268ZM97.7908 124.908C98.1428 124.908 98.4428 124.828 98.6908 124.668C98.9388 124.508 99.1308 124.28 99.2668 123.984C99.4028 123.688 99.4708 123.34 99.4708 122.94C99.4708 122.34 99.3188 121.864 99.0148 121.512C98.7188 121.16 98.3108 120.984 97.7908 120.984C97.4468 120.984 97.1508 121.064 96.9028 121.224C96.6548 121.384 96.4588 121.612 96.3148 121.908C96.1788 122.196 96.1108 122.54 96.1108 122.94C96.1108 123.548 96.2628 124.028 96.5668 124.38C96.8708 124.732 97.2788 124.908 97.7908 124.908ZM105.108 126.108C104.468 126.108 103.916 125.988 103.452 125.748C102.996 125.5 102.64 125.152 102.384 124.704C102.136 124.248 102.012 123.708 102.012 123.084C102.012 122.476 102.136 121.944 102.384 121.488C102.632 121.032 102.972 120.676 103.404 120.42C103.836 120.164 104.328 120.036 104.88 120.036C105.288 120.036 105.652 120.104 105.972 120.24C106.292 120.368 106.564 120.56 106.788 120.816C107.02 121.064 107.192 121.368 107.304 121.728C107.424 122.088 107.484 122.492 107.484 122.94C107.484 123.076 107.444 123.18 107.364 123.252C107.284 123.316 107.164 123.348 107.004 123.348H102.972V122.604H106.668L106.464 122.772C106.464 122.372 106.404 122.032 106.284 121.752C106.172 121.472 106 121.26 105.768 121.116C105.544 120.964 105.264 120.888 104.928 120.888C104.552 120.888 104.232 120.976 103.968 121.152C103.712 121.328 103.516 121.572 103.38 121.884C103.244 122.196 103.176 122.56 103.176 122.976V123.048C103.176 123.752 103.34 124.284 103.668 124.644C104.004 124.996 104.488 125.172 105.12 125.172C105.36 125.172 105.612 125.14 105.876 125.076C106.148 125.012 106.404 124.904 106.644 124.752C106.78 124.672 106.9 124.636 107.004 124.644C107.116 124.652 107.204 124.688 107.268 124.752C107.34 124.816 107.384 124.896 107.4 124.992C107.416 125.088 107.4 125.188 107.352 125.292C107.304 125.388 107.22 125.476 107.1 125.556C106.828 125.74 106.512 125.88 106.152 125.976C105.792 126.064 105.444 126.108 105.108 126.108ZM110.857 126.108C110.505 126.108 110.141 126.068 109.765 125.988C109.397 125.908 109.057 125.772 108.745 125.58C108.641 125.508 108.569 125.428 108.529 125.34C108.489 125.252 108.473 125.164 108.481 125.076C108.497 124.98 108.533 124.9 108.589 124.836C108.653 124.764 108.729 124.72 108.817 124.704C108.913 124.688 109.013 124.708 109.117 124.764C109.429 124.94 109.729 125.064 110.017 125.136C110.305 125.2 110.589 125.232 110.869 125.232C111.293 125.232 111.613 125.156 111.829 125.004C112.045 124.852 112.153 124.648 112.153 124.392C112.153 124.184 112.081 124.024 111.937 123.912C111.793 123.792 111.577 123.7 111.289 123.636L110.149 123.408C109.653 123.304 109.277 123.12 109.021 122.856C108.765 122.592 108.637 122.256 108.637 121.848C108.637 121.48 108.737 121.16 108.937 120.888C109.137 120.616 109.417 120.408 109.777 120.264C110.137 120.112 110.553 120.036 111.025 120.036C111.377 120.036 111.709 120.08 112.021 120.168C112.333 120.256 112.621 120.388 112.885 120.564C112.989 120.62 113.057 120.696 113.089 120.792C113.121 120.88 113.125 120.968 113.101 121.056C113.085 121.144 113.045 121.224 112.981 121.296C112.917 121.36 112.837 121.4 112.741 121.416C112.653 121.424 112.553 121.4 112.441 121.344C112.201 121.192 111.961 121.084 111.721 121.02C111.489 120.956 111.257 120.924 111.025 120.924C110.601 120.924 110.281 121.004 110.065 121.164C109.857 121.316 109.753 121.524 109.753 121.788C109.753 121.988 109.817 122.152 109.945 122.28C110.073 122.408 110.273 122.5 110.545 122.556L111.685 122.784C112.205 122.888 112.597 123.064 112.861 123.312C113.133 123.56 113.269 123.896 113.269 124.32C113.269 124.872 113.049 125.308 112.609 125.628C112.169 125.948 111.585 126.108 110.857 126.108ZM117.866 126.084C117.706 126.084 117.578 126.048 117.482 125.976C117.386 125.904 117.33 125.808 117.314 125.688C117.298 125.568 117.322 125.432 117.386 125.28L120.638 117.984C120.718 117.792 120.818 117.656 120.938 117.576C121.066 117.496 121.206 117.456 121.358 117.456C121.502 117.456 121.634 117.496 121.754 117.576C121.882 117.656 121.986 117.792 122.066 117.984L125.318 125.28C125.39 125.432 125.418 125.572 125.402 125.7C125.386 125.82 125.334 125.916 125.246 125.988C125.158 126.052 125.034 126.084 124.874 126.084C124.698 126.084 124.558 126.04 124.454 125.952C124.35 125.864 124.258 125.728 124.178 125.544L123.338 123.6L123.902 123.936H118.79L119.342 123.6L118.514 125.544C118.434 125.736 118.346 125.876 118.25 125.964C118.154 126.044 118.026 126.084 117.866 126.084ZM121.334 118.92L119.522 123.216L119.222 122.928H123.458L123.182 123.216L121.358 118.92H121.334ZM127.218 128.244C127.026 128.244 126.878 128.192 126.774 128.088C126.67 127.984 126.618 127.832 126.618 127.632V120.672C126.618 120.472 126.67 120.32 126.774 120.216C126.878 120.112 127.022 120.06 127.206 120.06C127.398 120.06 127.546 120.112 127.65 120.216C127.754 120.32 127.806 120.472 127.806 120.672V121.716L127.674 121.464C127.802 121.032 128.054 120.688 128.43 120.432C128.806 120.168 129.25 120.036 129.762 120.036C130.282 120.036 130.734 120.16 131.118 120.408C131.51 120.656 131.81 121.004 132.018 121.452C132.234 121.9 132.342 122.44 132.342 123.072C132.342 123.688 132.234 124.228 132.018 124.692C131.81 125.148 131.514 125.5 131.13 125.748C130.746 125.988 130.29 126.108 129.762 126.108C129.258 126.108 128.818 125.98 128.442 125.724C128.066 125.468 127.814 125.128 127.686 124.704H127.83V127.632C127.83 127.832 127.774 127.984 127.662 128.088C127.558 128.192 127.41 128.244 127.218 128.244ZM129.462 125.172C129.798 125.172 130.09 125.092 130.338 124.932C130.586 124.772 130.778 124.536 130.914 124.224C131.05 123.912 131.118 123.528 131.118 123.072C131.118 122.384 130.966 121.864 130.662 121.512C130.366 121.16 129.966 120.984 129.462 120.984C129.134 120.984 128.842 121.064 128.586 121.224C128.338 121.376 128.146 121.608 128.01 121.92C127.874 122.232 127.806 122.616 127.806 123.072C127.806 123.752 127.958 124.272 128.262 124.632C128.566 124.992 128.966 125.172 129.462 125.172ZM134.307 128.244C134.115 128.244 133.967 128.192 133.863 128.088C133.759 127.984 133.707 127.832 133.707 127.632V120.672C133.707 120.472 133.759 120.32 133.863 120.216C133.967 120.112 134.111 120.06 134.295 120.06C134.487 120.06 134.635 120.112 134.739 120.216C134.843 120.32 134.895 120.472 134.895 120.672V121.716L134.763 121.464C134.891 121.032 135.143 120.688 135.519 120.432C135.895 120.168 136.339 120.036 136.851 120.036C137.371 120.036 137.823 120.16 138.207 120.408C138.599 120.656 138.899 121.004 139.107 121.452C139.323 121.9 139.431 122.44 139.431 123.072C139.431 123.688 139.323 124.228 139.107 124.692C138.899 125.148 138.603 125.5 138.219 125.748C137.835 125.988 137.379 126.108 136.851 126.108C136.347 126.108 135.907 125.98 135.531 125.724C135.155 125.468 134.903 125.128 134.775 124.704H134.919V127.632C134.919 127.832 134.863 127.984 134.751 128.088C134.647 128.192 134.499 128.244 134.307 128.244ZM136.551 125.172C136.887 125.172 137.179 125.092 137.427 124.932C137.675 124.772 137.867 124.536 138.003 124.224C138.139 123.912 138.207 123.528 138.207 123.072C138.207 122.384 138.055 121.864 137.751 121.512C137.455 121.16 137.055 120.984 136.551 120.984C136.223 120.984 135.931 121.064 135.675 121.224C135.427 121.376 135.235 121.608 135.099 121.92C134.963 122.232 134.895 122.616 134.895 123.072C134.895 123.752 135.047 124.272 135.351 124.632C135.655 124.992 136.055 125.172 136.551 125.172ZM142.681 126.108C142.057 126.108 141.585 125.928 141.265 125.568C140.953 125.2 140.797 124.672 140.797 123.984V118.068C140.797 117.868 140.849 117.716 140.953 117.612C141.057 117.508 141.205 117.456 141.397 117.456C141.589 117.456 141.737 117.508 141.841 117.612C141.953 117.716 142.009 117.868 142.009 118.068V123.912C142.009 124.312 142.089 124.612 142.249 124.812C142.417 125.004 142.657 125.1 142.969 125.1C143.041 125.1 143.105 125.1 143.161 125.1C143.217 125.092 143.273 125.084 143.329 125.076C143.425 125.068 143.493 125.096 143.533 125.16C143.573 125.216 143.593 125.336 143.593 125.52C143.593 125.688 143.557 125.82 143.485 125.916C143.413 126.004 143.297 126.06 143.137 126.084C143.065 126.092 142.989 126.096 142.909 126.096C142.829 126.104 142.753 126.108 142.681 126.108ZM145.065 126.072C144.873 126.072 144.725 126.016 144.621 125.904C144.517 125.784 144.465 125.62 144.465 125.412V120.732C144.465 120.524 144.517 120.364 144.621 120.252C144.725 120.14 144.873 120.084 145.065 120.084C145.257 120.084 145.405 120.14 145.509 120.252C145.621 120.364 145.677 120.524 145.677 120.732V125.412C145.677 125.62 145.625 125.784 145.521 125.904C145.417 126.016 145.265 126.072 145.065 126.072ZM145.065 118.836C144.825 118.836 144.637 118.776 144.501 118.656C144.373 118.536 144.309 118.368 144.309 118.152C144.309 117.928 144.373 117.76 144.501 117.648C144.637 117.528 144.825 117.468 145.065 117.468C145.305 117.468 145.489 117.528 145.617 117.648C145.753 117.76 145.821 117.928 145.821 118.152C145.821 118.368 145.753 118.536 145.617 118.656C145.489 118.776 145.305 118.836 145.065 118.836ZM150.131 126.108C149.491 126.108 148.939 125.988 148.475 125.748C148.019 125.5 147.663 125.152 147.407 124.704C147.159 124.248 147.035 123.708 147.035 123.084C147.035 122.476 147.159 121.944 147.407 121.488C147.655 121.032 147.995 120.676 148.427 120.42C148.859 120.164 149.351 120.036 149.903 120.036C150.311 120.036 150.675 120.104 150.995 120.24C151.315 120.368 151.587 120.56 151.811 120.816C152.043 121.064 152.215 121.368 152.327 121.728C152.447 122.088 152.507 122.492 152.507 122.94C152.507 123.076 152.467 123.18 152.387 123.252C152.307 123.316 152.187 123.348 152.027 123.348H147.995V122.604H151.691L151.487 122.772C151.487 122.372 151.427 122.032 151.307 121.752C151.195 121.472 151.023 121.26 150.791 121.116C150.567 120.964 150.287 120.888 149.951 120.888C149.575 120.888 149.255 120.976 148.991 121.152C148.735 121.328 148.539 121.572 148.403 121.884C148.267 122.196 148.199 122.56 148.199 122.976V123.048C148.199 123.752 148.363 124.284 148.691 124.644C149.027 124.996 149.511 125.172 150.143 125.172C150.383 125.172 150.635 125.14 150.899 125.076C151.171 125.012 151.427 124.904 151.667 124.752C151.803 124.672 151.923 124.636 152.027 124.644C152.139 124.652 152.227 124.688 152.291 124.752C152.363 124.816 152.407 124.896 152.423 124.992C152.439 125.088 152.423 125.188 152.375 125.292C152.327 125.388 152.243 125.476 152.123 125.556C151.851 125.74 151.535 125.88 151.175 125.976C150.815 126.064 150.467 126.108 150.131 126.108ZM156.061 126.108C155.549 126.108 155.097 125.988 154.705 125.748C154.321 125.5 154.021 125.148 153.805 124.692C153.589 124.228 153.481 123.688 153.481 123.072C153.481 122.44 153.589 121.9 153.805 121.452C154.021 121.004 154.321 120.656 154.705 120.408C155.097 120.16 155.549 120.036 156.061 120.036C156.573 120.036 157.013 120.164 157.381 120.42C157.757 120.668 158.009 121.004 158.137 121.428H158.005V118.068C158.005 117.868 158.057 117.716 158.161 117.612C158.265 117.508 158.413 117.456 158.605 117.456C158.797 117.456 158.945 117.508 159.049 117.612C159.161 117.716 159.217 117.868 159.217 118.068V125.472C159.217 125.664 159.165 125.816 159.061 125.928C158.957 126.032 158.809 126.084 158.617 126.084C158.425 126.084 158.277 126.032 158.173 125.928C158.069 125.816 158.017 125.664 158.017 125.472V124.416L158.149 124.68C158.021 125.112 157.769 125.46 157.393 125.724C157.025 125.98 156.581 126.108 156.061 126.108ZM156.373 125.172C156.701 125.172 156.989 125.092 157.237 124.932C157.485 124.772 157.677 124.536 157.813 124.224C157.957 123.912 158.029 123.528 158.029 123.072C158.029 122.384 157.877 121.864 157.573 121.512C157.269 121.16 156.869 120.984 156.373 120.984C156.037 120.984 155.745 121.064 155.497 121.224C155.249 121.376 155.053 121.608 154.909 121.92C154.773 122.232 154.705 122.616 154.705 123.072C154.705 123.752 154.857 124.272 155.161 124.632C155.465 124.992 155.869 125.172 156.373 125.172ZM161.506 126.048C161.274 126.048 161.086 125.976 160.942 125.832C160.798 125.688 160.726 125.504 160.726 125.28C160.726 125.056 160.798 124.876 160.942 124.74C161.086 124.596 161.274 124.524 161.506 124.524C161.738 124.524 161.922 124.596 162.058 124.74C162.194 124.876 162.262 125.056 162.262 125.28C162.262 125.504 162.194 125.688 162.058 125.832C161.922 125.976 161.738 126.048 161.506 126.048ZM161.506 121.62C161.274 121.62 161.086 121.548 160.942 121.404C160.798 121.26 160.726 121.08 160.726 120.864C160.726 120.632 160.798 120.448 160.942 120.312C161.086 120.168 161.274 120.096 161.506 120.096C161.738 120.096 161.922 120.168 162.058 120.312C162.194 120.448 162.262 120.632 162.262 120.864C162.262 121.08 162.194 121.26 162.058 121.404C161.922 121.548 161.738 121.62 161.506 121.62ZM169.75 126.084C169.55 126.084 169.394 126.028 169.282 125.916C169.178 125.804 169.126 125.648 169.126 125.448V118.584H166.582C166.414 118.584 166.282 118.54 166.186 118.452C166.09 118.356 166.042 118.224 166.042 118.056C166.042 117.888 166.09 117.76 166.186 117.672C166.282 117.584 166.414 117.54 166.582 117.54H172.906C173.082 117.54 173.218 117.584 173.314 117.672C173.41 117.76 173.458 117.888 173.458 118.056C173.458 118.224 173.41 118.356 173.314 118.452C173.218 118.54 173.082 118.584 172.906 118.584H170.362V125.448C170.362 125.648 170.31 125.804 170.206 125.916C170.11 126.028 169.958 126.084 169.75 126.084ZM175.335 126.084C175.143 126.084 174.995 126.032 174.891 125.928C174.787 125.816 174.735 125.664 174.735 125.472V118.068C174.735 117.868 174.787 117.716 174.891 117.612C174.995 117.508 175.143 117.456 175.335 117.456C175.527 117.456 175.675 117.508 175.779 117.612C175.891 117.716 175.947 117.868 175.947 118.068V121.392H175.779C175.955 120.944 176.231 120.608 176.607 120.384C176.983 120.152 177.415 120.036 177.903 120.036C178.367 120.036 178.751 120.124 179.055 120.3C179.367 120.468 179.599 120.728 179.751 121.08C179.903 121.424 179.979 121.86 179.979 122.388V125.472C179.979 125.664 179.927 125.816 179.823 125.928C179.719 126.032 179.571 126.084 179.379 126.084C179.179 126.084 179.027 126.032 178.923 125.928C178.819 125.816 178.767 125.664 178.767 125.472V122.46C178.767 121.956 178.667 121.588 178.467 121.356C178.275 121.124 177.971 121.008 177.555 121.008C177.067 121.008 176.675 121.16 176.379 121.464C176.091 121.768 175.947 122.176 175.947 122.688V125.472C175.947 125.88 175.743 126.084 175.335 126.084ZM184.397 126.108C183.757 126.108 183.205 125.988 182.741 125.748C182.285 125.5 181.929 125.152 181.673 124.704C181.425 124.248 181.301 123.708 181.301 123.084C181.301 122.476 181.425 121.944 181.673 121.488C181.921 121.032 182.261 120.676 182.693 120.42C183.125 120.164 183.617 120.036 184.169 120.036C184.577 120.036 184.941 120.104 185.261 120.24C185.581 120.368 185.853 120.56 186.077 120.816C186.309 121.064 186.481 121.368 186.593 121.728C186.713 122.088 186.773 122.492 186.773 122.94C186.773 123.076 186.733 123.18 186.653 123.252C186.573 123.316 186.453 123.348 186.293 123.348H182.261V122.604H185.957L185.753 122.772C185.753 122.372 185.693 122.032 185.573 121.752C185.461 121.472 185.289 121.26 185.057 121.116C184.833 120.964 184.553 120.888 184.217 120.888C183.841 120.888 183.521 120.976 183.257 121.152C183.001 121.328 182.805 121.572 182.669 121.884C182.533 122.196 182.465 122.56 182.465 122.976V123.048C182.465 123.752 182.629 124.284 182.957 124.644C183.293 124.996 183.777 125.172 184.409 125.172C184.649 125.172 184.901 125.14 185.165 125.076C185.437 125.012 185.693 124.904 185.933 124.752C186.069 124.672 186.189 124.636 186.293 124.644C186.405 124.652 186.493 124.688 186.557 124.752C186.629 124.816 186.673 124.896 186.689 124.992C186.705 125.088 186.689 125.188 186.641 125.292C186.593 125.388 186.509 125.476 186.389 125.556C186.117 125.74 185.801 125.88 185.441 125.976C185.081 126.064 184.733 126.108 184.397 126.108ZM193.31 126.108C192.958 126.108 192.594 126.068 192.218 125.988C191.85 125.908 191.51 125.772 191.198 125.58C191.094 125.508 191.022 125.428 190.982 125.34C190.942 125.252 190.926 125.164 190.934 125.076C190.95 124.98 190.986 124.9 191.042 124.836C191.106 124.764 191.182 124.72 191.27 124.704C191.366 124.688 191.466 124.708 191.57 124.764C191.882 124.94 192.182 125.064 192.47 125.136C192.758 125.2 193.042 125.232 193.322 125.232C193.746 125.232 194.066 125.156 194.282 125.004C194.498 124.852 194.606 124.648 194.606 124.392C194.606 124.184 194.534 124.024 194.39 123.912C194.246 123.792 194.03 123.7 193.742 123.636L192.602 123.408C192.106 123.304 191.73 123.12 191.474 122.856C191.218 122.592 191.09 122.256 191.09 121.848C191.09 121.48 191.19 121.16 191.39 120.888C191.59 120.616 191.87 120.408 192.23 120.264C192.59 120.112 193.006 120.036 193.478 120.036C193.83 120.036 194.162 120.08 194.474 120.168C194.786 120.256 195.074 120.388 195.338 120.564C195.442 120.62 195.51 120.696 195.542 120.792C195.574 120.88 195.578 120.968 195.554 121.056C195.538 121.144 195.498 121.224 195.434 121.296C195.37 121.36 195.29 121.4 195.194 121.416C195.106 121.424 195.006 121.4 194.894 121.344C194.654 121.192 194.414 121.084 194.174 121.02C193.942 120.956 193.71 120.924 193.478 120.924C193.054 120.924 192.734 121.004 192.518 121.164C192.31 121.316 192.206 121.524 192.206 121.788C192.206 121.988 192.27 122.152 192.398 122.28C192.526 122.408 192.726 122.5 192.998 122.556L194.138 122.784C194.658 122.888 195.05 123.064 195.314 123.312C195.586 123.56 195.722 123.896 195.722 124.32C195.722 124.872 195.502 125.308 195.062 125.628C194.622 125.948 194.038 126.108 193.31 126.108ZM199.819 126.108C199.179 126.108 198.627 125.988 198.163 125.748C197.707 125.5 197.351 125.152 197.095 124.704C196.847 124.248 196.723 123.708 196.723 123.084C196.723 122.476 196.847 121.944 197.095 121.488C197.343 121.032 197.683 120.676 198.115 120.42C198.547 120.164 199.039 120.036 199.591 120.036C199.999 120.036 200.363 120.104 200.683 120.24C201.003 120.368 201.275 120.56 201.499 120.816C201.731 121.064 201.903 121.368 202.015 121.728C202.135 122.088 202.195 122.492 202.195 122.94C202.195 123.076 202.155 123.18 202.075 123.252C201.995 123.316 201.875 123.348 201.715 123.348H197.683V122.604H201.379L201.175 122.772C201.175 122.372 201.115 122.032 200.995 121.752C200.883 121.472 200.711 121.26 200.479 121.116C200.255 120.964 199.975 120.888 199.639 120.888C199.263 120.888 198.943 120.976 198.679 121.152C198.423 121.328 198.227 121.572 198.091 121.884C197.955 122.196 197.887 122.56 197.887 122.976V123.048C197.887 123.752 198.051 124.284 198.379 124.644C198.715 124.996 199.199 125.172 199.831 125.172C200.071 125.172 200.323 125.14 200.587 125.076C200.859 125.012 201.115 124.904 201.355 124.752C201.491 124.672 201.611 124.636 201.715 124.644C201.827 124.652 201.915 124.688 201.979 124.752C202.051 124.816 202.095 124.896 202.111 124.992C202.127 125.088 202.111 125.188 202.063 125.292C202.015 125.388 201.931 125.476 201.811 125.556C201.539 125.74 201.223 125.88 200.863 125.976C200.503 126.064 200.155 126.108 199.819 126.108ZM206 126.108C205.52 126.108 205.116 126.024 204.788 125.856C204.46 125.688 204.216 125.44 204.056 125.112C203.896 124.784 203.816 124.384 203.816 123.912V121.08H203.096C202.936 121.08 202.812 121.04 202.724 120.96C202.636 120.872 202.592 120.756 202.592 120.612C202.592 120.46 202.636 120.344 202.724 120.264C202.812 120.184 202.936 120.144 203.096 120.144H203.816V118.908C203.816 118.708 203.868 118.556 203.972 118.452C204.084 118.348 204.236 118.296 204.428 118.296C204.62 118.296 204.768 118.348 204.872 118.452C204.976 118.556 205.028 118.708 205.028 118.908V120.144H206.432C206.592 120.144 206.716 120.184 206.804 120.264C206.892 120.344 206.936 120.46 206.936 120.612C206.936 120.756 206.892 120.872 206.804 120.96C206.716 121.04 206.592 121.08 206.432 121.08H205.028V123.816C205.028 124.24 205.116 124.56 205.292 124.776C205.476 124.992 205.772 125.1 206.18 125.1C206.324 125.1 206.448 125.088 206.552 125.064C206.664 125.032 206.756 125.012 206.828 125.004C206.916 125.004 206.988 125.036 207.044 125.1C207.1 125.156 207.128 125.268 207.128 125.436C207.128 125.556 207.104 125.668 207.056 125.772C207.016 125.876 206.94 125.944 206.828 125.976C206.732 126.008 206.6 126.036 206.432 126.06C206.272 126.092 206.128 126.108 206 126.108ZM210.149 126.108C209.669 126.108 209.265 126.024 208.937 125.856C208.609 125.688 208.365 125.44 208.205 125.112C208.045 124.784 207.965 124.384 207.965 123.912V121.08H207.245C207.085 121.08 206.961 121.04 206.873 120.96C206.785 120.872 206.741 120.756 206.741 120.612C206.741 120.46 206.785 120.344 206.873 120.264C206.961 120.184 207.085 120.144 207.245 120.144H207.965V118.908C207.965 118.708 208.017 118.556 208.121 118.452C208.233 118.348 208.385 118.296 208.577 118.296C208.769 118.296 208.917 118.348 209.021 118.452C209.125 118.556 209.177 118.708 209.177 118.908V120.144H210.581C210.741 120.144 210.865 120.184 210.953 120.264C211.041 120.344 211.085 120.46 211.085 120.612C211.085 120.756 211.041 120.872 210.953 120.96C210.865 121.04 210.741 121.08 210.581 121.08H209.177V123.816C209.177 124.24 209.265 124.56 209.441 124.776C209.625 124.992 209.921 125.1 210.329 125.1C210.473 125.1 210.597 125.088 210.701 125.064C210.813 125.032 210.905 125.012 210.977 125.004C211.065 125.004 211.137 125.036 211.193 125.1C211.249 125.156 211.277 125.268 211.277 125.436C211.277 125.556 211.253 125.668 211.205 125.772C211.165 125.876 211.089 125.944 210.977 125.976C210.881 126.008 210.749 126.036 210.581 126.06C210.421 126.092 210.277 126.108 210.149 126.108ZM212.741 126.072C212.549 126.072 212.401 126.016 212.297 125.904C212.193 125.784 212.141 125.62 212.141 125.412V120.732C212.141 120.524 212.193 120.364 212.297 120.252C212.401 120.14 212.549 120.084 212.741 120.084C212.933 120.084 213.081 120.14 213.185 120.252C213.297 120.364 213.353 120.524 213.353 120.732V125.412C213.353 125.62 213.301 125.784 213.197 125.904C213.093 126.016 212.941 126.072 212.741 126.072ZM212.741 118.836C212.501 118.836 212.313 118.776 212.177 118.656C212.049 118.536 211.985 118.368 211.985 118.152C211.985 117.928 212.049 117.76 212.177 117.648C212.313 117.528 212.501 117.468 212.741 117.468C212.981 117.468 213.165 117.528 213.293 117.648C213.429 117.76 213.497 117.928 213.497 118.152C213.497 118.368 213.429 118.536 213.293 118.656C213.165 118.776 212.981 118.836 212.741 118.836ZM215.659 126.084C215.467 126.084 215.319 126.032 215.215 125.928C215.111 125.816 215.059 125.664 215.059 125.472V120.672C215.059 120.472 215.111 120.32 215.215 120.216C215.319 120.112 215.463 120.06 215.647 120.06C215.839 120.06 215.983 120.112 216.079 120.216C216.183 120.32 216.235 120.472 216.235 120.672V121.608L216.103 121.392C216.279 120.944 216.555 120.608 216.931 120.384C217.307 120.152 217.739 120.036 218.227 120.036C218.691 120.036 219.075 120.124 219.379 120.3C219.691 120.468 219.923 120.728 220.075 121.08C220.227 121.424 220.303 121.86 220.303 122.388V125.472C220.303 125.664 220.251 125.816 220.147 125.928C220.043 126.032 219.895 126.084 219.703 126.084C219.503 126.084 219.351 126.032 219.247 125.928C219.143 125.816 219.091 125.664 219.091 125.472V122.46C219.091 121.956 218.991 121.588 218.791 121.356C218.599 121.124 218.295 121.008 217.879 121.008C217.391 121.008 216.999 121.16 216.703 121.464C216.415 121.768 216.271 122.176 216.271 122.688V125.472C216.271 125.88 216.067 126.084 215.659 126.084ZM224.625 128.268C224.193 128.268 223.773 128.224 223.365 128.136C222.965 128.048 222.601 127.904 222.273 127.704C222.153 127.64 222.073 127.56 222.033 127.464C221.993 127.376 221.981 127.284 221.997 127.188C222.021 127.092 222.065 127.008 222.129 126.936C222.193 126.864 222.269 126.816 222.357 126.792C222.453 126.768 222.553 126.784 222.657 126.84C223.009 127.032 223.341 127.16 223.653 127.224C223.973 127.296 224.269 127.332 224.541 127.332C225.101 127.332 225.521 127.188 225.801 126.9C226.081 126.62 226.221 126.204 226.221 125.652V124.428H226.329C226.209 124.868 225.957 125.216 225.573 125.472C225.189 125.728 224.745 125.856 224.241 125.856C223.713 125.856 223.253 125.736 222.861 125.496C222.469 125.248 222.165 124.908 221.949 124.476C221.733 124.036 221.625 123.524 221.625 122.94C221.625 122.5 221.685 122.104 221.805 121.752C221.933 121.4 222.109 121.096 222.333 120.84C222.565 120.584 222.841 120.388 223.161 120.252C223.489 120.108 223.849 120.036 224.241 120.036C224.753 120.036 225.197 120.164 225.573 120.42C225.957 120.676 226.205 121.024 226.317 121.464L226.197 121.668V120.672C226.197 120.472 226.249 120.32 226.353 120.216C226.465 120.112 226.613 120.06 226.797 120.06C226.989 120.06 227.137 120.112 227.241 120.216C227.345 120.32 227.397 120.472 227.397 120.672V125.508C227.397 126.42 227.161 127.108 226.689 127.572C226.217 128.036 225.529 128.268 224.625 128.268ZM224.529 124.908C224.881 124.908 225.181 124.828 225.429 124.668C225.677 124.508 225.869 124.28 226.005 123.984C226.141 123.688 226.209 123.34 226.209 122.94C226.209 122.34 226.057 121.864 225.753 121.512C225.457 121.16 225.049 120.984 224.529 120.984C224.185 120.984 223.889 121.064 223.641 121.224C223.393 121.384 223.197 121.612 223.053 121.908C222.917 122.196 222.849 122.54 222.849 122.94C222.849 123.548 223.001 124.028 223.305 124.38C223.609 124.732 224.017 124.908 224.529 124.908ZM231.15 126.108C230.798 126.108 230.434 126.068 230.058 125.988C229.69 125.908 229.35 125.772 229.038 125.58C228.934 125.508 228.862 125.428 228.822 125.34C228.782 125.252 228.766 125.164 228.774 125.076C228.79 124.98 228.826 124.9 228.882 124.836C228.946 124.764 229.022 124.72 229.11 124.704C229.206 124.688 229.306 124.708 229.41 124.764C229.722 124.94 230.022 125.064 230.31 125.136C230.598 125.2 230.882 125.232 231.162 125.232C231.586 125.232 231.906 125.156 232.122 125.004C232.338 124.852 232.446 124.648 232.446 124.392C232.446 124.184 232.374 124.024 232.23 123.912C232.086 123.792 231.87 123.7 231.582 123.636L230.442 123.408C229.946 123.304 229.57 123.12 229.314 122.856C229.058 122.592 228.93 122.256 228.93 121.848C228.93 121.48 229.03 121.16 229.23 120.888C229.43 120.616 229.71 120.408 230.07 120.264C230.43 120.112 230.846 120.036 231.318 120.036C231.67 120.036 232.002 120.08 232.314 120.168C232.626 120.256 232.914 120.388 233.178 120.564C233.282 120.62 233.35 120.696 233.382 120.792C233.414 120.88 233.418 120.968 233.394 121.056C233.378 121.144 233.338 121.224 233.274 121.296C233.21 121.36 233.13 121.4 233.034 121.416C232.946 121.424 232.846 121.4 232.734 121.344C232.494 121.192 232.254 121.084 232.014 121.02C231.782 120.956 231.55 120.924 231.318 120.924C230.894 120.924 230.574 121.004 230.358 121.164C230.15 121.316 230.046 121.524 230.046 121.788C230.046 121.988 230.11 122.152 230.238 122.28C230.366 122.408 230.566 122.5 230.838 122.556L231.978 122.784C232.498 122.888 232.89 123.064 233.154 123.312C233.426 123.56 233.562 123.896 233.562 124.32C233.562 124.872 233.342 125.308 232.902 125.628C232.462 125.948 231.878 126.108 231.15 126.108ZM238.675 126.084C238.483 126.084 238.335 126.032 238.231 125.928C238.127 125.816 238.075 125.664 238.075 125.472V118.068C238.075 117.868 238.127 117.716 238.231 117.612C238.335 117.508 238.483 117.456 238.675 117.456C238.867 117.456 239.015 117.508 239.119 117.612C239.231 117.716 239.287 117.868 239.287 118.068V121.392H239.119C239.295 120.944 239.571 120.608 239.947 120.384C240.323 120.152 240.755 120.036 241.243 120.036C241.707 120.036 242.091 120.124 242.395 120.3C242.707 120.468 242.939 120.728 243.091 121.08C243.243 121.424 243.319 121.86 243.319 122.388V125.472C243.319 125.664 243.267 125.816 243.163 125.928C243.059 126.032 242.911 126.084 242.719 126.084C242.519 126.084 242.367 126.032 242.263 125.928C242.159 125.816 242.107 125.664 242.107 125.472V122.46C242.107 121.956 242.007 121.588 241.807 121.356C241.615 121.124 241.311 121.008 240.895 121.008C240.407 121.008 240.015 121.16 239.719 121.464C239.431 121.768 239.287 122.176 239.287 122.688V125.472C239.287 125.88 239.083 126.084 238.675 126.084ZM246.861 126.108C246.453 126.108 246.085 126.028 245.757 125.868C245.437 125.708 245.185 125.492 245.001 125.22C244.817 124.948 244.725 124.64 244.725 124.296C244.725 123.864 244.833 123.524 245.049 123.276C245.273 123.02 245.637 122.84 246.141 122.736C246.653 122.624 247.341 122.568 248.205 122.568H248.769V123.312H248.217C247.641 123.312 247.185 123.34 246.849 123.396C246.513 123.452 246.273 123.548 246.129 123.684C245.993 123.812 245.925 123.992 245.925 124.224C245.925 124.528 246.029 124.776 246.237 124.968C246.445 125.152 246.733 125.244 247.101 125.244C247.397 125.244 247.657 125.176 247.881 125.04C248.105 124.896 248.281 124.704 248.409 124.464C248.545 124.224 248.613 123.948 248.613 123.636V122.256C248.613 121.8 248.517 121.472 248.325 121.272C248.133 121.072 247.817 120.972 247.377 120.972C247.121 120.972 246.853 121.004 246.573 121.068C246.301 121.132 246.017 121.24 245.721 121.392C245.585 121.456 245.469 121.476 245.373 121.452C245.277 121.428 245.201 121.376 245.145 121.296C245.089 121.208 245.057 121.116 245.049 121.02C245.049 120.916 245.073 120.816 245.121 120.72C245.177 120.624 245.269 120.552 245.397 120.504C245.749 120.336 246.097 120.216 246.441 120.144C246.785 120.072 247.109 120.036 247.413 120.036C247.949 120.036 248.389 120.12 248.733 120.288C249.085 120.456 249.345 120.712 249.513 121.056C249.681 121.4 249.765 121.844 249.765 122.388V125.472C249.765 125.664 249.717 125.816 249.621 125.928C249.525 126.032 249.385 126.084 249.201 126.084C249.025 126.084 248.885 126.032 248.781 125.928C248.677 125.816 248.625 125.664 248.625 125.472V124.692H248.733C248.669 124.988 248.549 125.244 248.373 125.46C248.205 125.668 247.993 125.828 247.737 125.94C247.481 126.052 247.189 126.108 246.861 126.108ZM253.643 126.084C253.475 126.084 253.327 126.04 253.199 125.952C253.079 125.864 252.979 125.728 252.899 125.544L250.895 120.888C250.831 120.744 250.807 120.608 250.823 120.48C250.839 120.352 250.899 120.252 251.003 120.18C251.107 120.1 251.247 120.06 251.423 120.06C251.575 120.06 251.695 120.096 251.783 120.168C251.871 120.24 251.951 120.364 252.023 120.54L253.835 125.004H253.499L255.347 120.54C255.419 120.364 255.499 120.24 255.587 120.168C255.683 120.096 255.815 120.06 255.983 120.06C256.127 120.06 256.239 120.1 256.319 120.18C256.407 120.252 256.459 120.352 256.475 120.48C256.499 120.6 256.479 120.732 256.415 120.876L254.387 125.544C254.315 125.728 254.215 125.864 254.087 125.952C253.959 126.04 253.811 126.084 253.643 126.084ZM260.252 126.108C259.612 126.108 259.06 125.988 258.596 125.748C258.14 125.5 257.784 125.152 257.528 124.704C257.28 124.248 257.156 123.708 257.156 123.084C257.156 122.476 257.28 121.944 257.528 121.488C257.776 121.032 258.116 120.676 258.548 120.42C258.98 120.164 259.472 120.036 260.024 120.036C260.432 120.036 260.796 120.104 261.116 120.24C261.436 120.368 261.708 120.56 261.932 120.816C262.164 121.064 262.336 121.368 262.448 121.728C262.568 122.088 262.628 122.492 262.628 122.94C262.628 123.076 262.588 123.18 262.508 123.252C262.428 123.316 262.308 123.348 262.148 123.348H258.116V122.604H261.812L261.608 122.772C261.608 122.372 261.548 122.032 261.428 121.752C261.316 121.472 261.144 121.26 260.912 121.116C260.688 120.964 260.408 120.888 260.072 120.888C259.696 120.888 259.376 120.976 259.112 121.152C258.856 121.328 258.66 121.572 258.524 121.884C258.388 122.196 258.32 122.56 258.32 122.976V123.048C258.32 123.752 258.484 124.284 258.812 124.644C259.148 124.996 259.632 125.172 260.264 125.172C260.504 125.172 260.756 125.14 261.02 125.076C261.292 125.012 261.548 124.904 261.788 124.752C261.924 124.672 262.044 124.636 262.148 124.644C262.26 124.652 262.348 124.688 262.412 124.752C262.484 124.816 262.528 124.896 262.544 124.992C262.56 125.088 262.544 125.188 262.496 125.292C262.448 125.388 262.364 125.476 262.244 125.556C261.972 125.74 261.656 125.88 261.296 125.976C260.936 126.064 260.588 126.108 260.252 126.108ZM270.258 126.108C269.746 126.108 269.302 125.98 268.926 125.724C268.55 125.46 268.298 125.112 268.17 124.68L268.302 124.464V125.472C268.302 125.664 268.25 125.816 268.146 125.928C268.042 126.032 267.898 126.084 267.714 126.084C267.522 126.084 267.374 126.032 267.27 125.928C267.166 125.816 267.114 125.664 267.114 125.472V118.068C267.114 117.868 267.166 117.716 267.27 117.612C267.374 117.508 267.522 117.456 267.714 117.456C267.906 117.456 268.054 117.508 268.158 117.612C268.27 117.716 268.326 117.868 268.326 118.068V121.428H268.182C268.31 121.004 268.562 120.668 268.938 120.42C269.314 120.164 269.754 120.036 270.258 120.036C270.786 120.036 271.242 120.16 271.626 120.408C272.01 120.656 272.306 121.004 272.514 121.452C272.73 121.9 272.838 122.44 272.838 123.072C272.838 123.688 272.73 124.228 272.514 124.692C272.306 125.148 272.006 125.5 271.614 125.748C271.23 125.988 270.778 126.108 270.258 126.108ZM269.958 125.172C270.294 125.172 270.586 125.092 270.834 124.932C271.082 124.772 271.274 124.536 271.41 124.224C271.546 123.912 271.614 123.528 271.614 123.072C271.614 122.384 271.462 121.864 271.158 121.512C270.862 121.16 270.462 120.984 269.958 120.984C269.63 120.984 269.338 121.064 269.082 121.224C268.834 121.376 268.642 121.608 268.506 121.92C268.37 122.232 268.302 122.616 268.302 123.072C268.302 123.752 268.454 124.272 268.758 124.632C269.062 124.992 269.462 125.172 269.958 125.172ZM276.952 126.108C276.312 126.108 275.76 125.988 275.296 125.748C274.84 125.5 274.484 125.152 274.228 124.704C273.98 124.248 273.856 123.708 273.856 123.084C273.856 122.476 273.98 121.944 274.228 121.488C274.476 121.032 274.816 120.676 275.248 120.42C275.68 120.164 276.172 120.036 276.724 120.036C277.132 120.036 277.496 120.104 277.816 120.24C278.136 120.368 278.408 120.56 278.632 120.816C278.864 121.064 279.036 121.368 279.148 121.728C279.268 122.088 279.328 122.492 279.328 122.94C279.328 123.076 279.288 123.18 279.208 123.252C279.128 123.316 279.008 123.348 278.848 123.348H274.816V122.604H278.512L278.308 122.772C278.308 122.372 278.248 122.032 278.128 121.752C278.016 121.472 277.844 121.26 277.612 121.116C277.388 120.964 277.108 120.888 276.772 120.888C276.396 120.888 276.076 120.976 275.812 121.152C275.556 121.328 275.36 121.572 275.224 121.884C275.088 122.196 275.02 122.56 275.02 122.976V123.048C275.02 123.752 275.184 124.284 275.512 124.644C275.848 124.996 276.332 125.172 276.964 125.172C277.204 125.172 277.456 125.14 277.72 125.076C277.992 125.012 278.248 124.904 278.488 124.752C278.624 124.672 278.744 124.636 278.848 124.644C278.96 124.652 279.048 124.688 279.112 124.752C279.184 124.816 279.228 124.896 279.244 124.992C279.26 125.088 279.244 125.188 279.196 125.292C279.148 125.388 279.064 125.476 278.944 125.556C278.672 125.74 278.356 125.88 277.996 125.976C277.636 126.064 277.288 126.108 276.952 126.108ZM283.397 126.108C282.757 126.108 282.205 125.988 281.741 125.748C281.285 125.5 280.929 125.152 280.673 124.704C280.425 124.248 280.301 123.708 280.301 123.084C280.301 122.476 280.425 121.944 280.673 121.488C280.921 121.032 281.261 120.676 281.693 120.42C282.125 120.164 282.617 120.036 283.169 120.036C283.577 120.036 283.941 120.104 284.261 120.24C284.581 120.368 284.853 120.56 285.077 120.816C285.309 121.064 285.481 121.368 285.593 121.728C285.713 122.088 285.773 122.492 285.773 122.94C285.773 123.076 285.733 123.18 285.653 123.252C285.573 123.316 285.453 123.348 285.293 123.348H281.261V122.604H284.957L284.753 122.772C284.753 122.372 284.693 122.032 284.573 121.752C284.461 121.472 284.289 121.26 284.057 121.116C283.833 120.964 283.553 120.888 283.217 120.888C282.841 120.888 282.521 120.976 282.257 121.152C282.001 121.328 281.805 121.572 281.669 121.884C281.533 122.196 281.465 122.56 281.465 122.976V123.048C281.465 123.752 281.629 124.284 281.957 124.644C282.293 124.996 282.777 125.172 283.409 125.172C283.649 125.172 283.901 125.14 284.165 125.076C284.437 125.012 284.693 124.904 284.933 124.752C285.069 124.672 285.189 124.636 285.293 124.644C285.405 124.652 285.493 124.688 285.557 124.752C285.629 124.816 285.673 124.896 285.689 124.992C285.705 125.088 285.689 125.188 285.641 125.292C285.593 125.388 285.509 125.476 285.389 125.556C285.117 125.74 284.801 125.88 284.441 125.976C284.081 126.064 283.733 126.108 283.397 126.108ZM287.694 126.084C287.502 126.084 287.354 126.032 287.25 125.928C287.146 125.816 287.094 125.664 287.094 125.472V120.672C287.094 120.472 287.146 120.32 287.25 120.216C287.354 120.112 287.498 120.06 287.682 120.06C287.874 120.06 288.018 120.112 288.114 120.216C288.218 120.32 288.27 120.472 288.27 120.672V121.608L288.138 121.392C288.314 120.944 288.59 120.608 288.966 120.384C289.342 120.152 289.774 120.036 290.262 120.036C290.726 120.036 291.11 120.124 291.414 120.3C291.726 120.468 291.958 120.728 292.11 121.08C292.262 121.424 292.338 121.86 292.338 122.388V125.472C292.338 125.664 292.286 125.816 292.182 125.928C292.078 126.032 291.93 126.084 291.738 126.084C291.538 126.084 291.386 126.032 291.282 125.928C291.178 125.816 291.126 125.664 291.126 125.472V122.46C291.126 121.956 291.026 121.588 290.826 121.356C290.634 121.124 290.33 121.008 289.914 121.008C289.426 121.008 289.034 121.16 288.738 121.464C288.45 121.768 288.306 122.176 288.306 122.688V125.472C288.306 125.88 288.102 126.084 287.694 126.084ZM68.94 142.108C68.468 142.108 68.072 142.02 67.752 141.844C67.44 141.668 67.204 141.408 67.044 141.064C66.892 140.712 66.816 140.272 66.816 139.744V136.672C66.816 136.464 66.868 136.312 66.972 136.216C67.076 136.112 67.224 136.06 67.416 136.06C67.608 136.06 67.756 136.112 67.86 136.216C67.972 136.312 68.028 136.464 68.028 136.672V139.756C68.028 140.228 68.124 140.576 68.316 140.8C68.508 141.024 68.812 141.136 69.228 141.136C69.684 141.136 70.052 140.984 70.332 140.68C70.62 140.368 70.764 139.96 70.764 139.456V136.672C70.764 136.464 70.816 136.312 70.92 136.216C71.024 136.112 71.176 136.06 71.376 136.06C71.568 136.06 71.716 136.112 71.82 136.216C71.924 136.312 71.976 136.464 71.976 136.672V141.472C71.976 141.88 71.78 142.084 71.388 142.084C71.204 142.084 71.06 142.032 70.956 141.928C70.852 141.816 70.8 141.664 70.8 141.472V140.452L70.956 140.716C70.796 141.164 70.54 141.508 70.188 141.748C69.836 141.988 69.42 142.108 68.94 142.108ZM74.284 144.244C74.092 144.244 73.944 144.192 73.84 144.088C73.736 143.984 73.684 143.832 73.684 143.632V136.672C73.684 136.472 73.736 136.32 73.84 136.216C73.944 136.112 74.088 136.06 74.272 136.06C74.464 136.06 74.612 136.112 74.716 136.216C74.82 136.32 74.872 136.472 74.872 136.672V137.716L74.74 137.464C74.868 137.032 75.12 136.688 75.496 136.432C75.872 136.168 76.316 136.036 76.828 136.036C77.348 136.036 77.8 136.16 78.184 136.408C78.576 136.656 78.876 137.004 79.084 137.452C79.3 137.9 79.408 138.44 79.408 139.072C79.408 139.688 79.3 140.228 79.084 140.692C78.876 141.148 78.58 141.5 78.196 141.748C77.812 141.988 77.356 142.108 76.828 142.108C76.324 142.108 75.884 141.98 75.508 141.724C75.132 141.468 74.88 141.128 74.752 140.704H74.896V143.632C74.896 143.832 74.84 143.984 74.728 144.088C74.624 144.192 74.476 144.244 74.284 144.244ZM76.528 141.172C76.864 141.172 77.156 141.092 77.404 140.932C77.652 140.772 77.844 140.536 77.98 140.224C78.116 139.912 78.184 139.528 78.184 139.072C78.184 138.384 78.032 137.864 77.728 137.512C77.432 137.16 77.032 136.984 76.528 136.984C76.2 136.984 75.908 137.064 75.652 137.224C75.404 137.376 75.212 137.608 75.076 137.92C74.94 138.232 74.872 138.616 74.872 139.072C74.872 139.752 75.024 140.272 75.328 140.632C75.632 140.992 76.032 141.172 76.528 141.172ZM83.0059 142.108C82.4939 142.108 82.0419 141.988 81.6499 141.748C81.2659 141.5 80.9659 141.148 80.7499 140.692C80.5339 140.228 80.4259 139.688 80.4259 139.072C80.4259 138.44 80.5339 137.9 80.7499 137.452C80.9659 137.004 81.2659 136.656 81.6499 136.408C82.0419 136.16 82.4939 136.036 83.0059 136.036C83.5179 136.036 83.9579 136.164 84.3259 136.42C84.7019 136.668 84.9539 137.004 85.0819 137.428H84.9499V134.068C84.9499 133.868 85.0019 133.716 85.1059 133.612C85.2099 133.508 85.3579 133.456 85.5499 133.456C85.7419 133.456 85.8899 133.508 85.9939 133.612C86.1059 133.716 86.1619 133.868 86.1619 134.068V141.472C86.1619 141.664 86.1099 141.816 86.0059 141.928C85.9019 142.032 85.7539 142.084 85.5619 142.084C85.3699 142.084 85.2219 142.032 85.1179 141.928C85.0139 141.816 84.9619 141.664 84.9619 141.472V140.416L85.0939 140.68C84.9659 141.112 84.7139 141.46 84.3379 141.724C83.9699 141.98 83.5259 142.108 83.0059 142.108ZM83.3179 141.172C83.6459 141.172 83.9339 141.092 84.1819 140.932C84.4299 140.772 84.6219 140.536 84.7579 140.224C84.9019 139.912 84.9739 139.528 84.9739 139.072C84.9739 138.384 84.8219 137.864 84.5179 137.512C84.2139 137.16 83.8139 136.984 83.3179 136.984C82.9819 136.984 82.6899 137.064 82.4419 137.224C82.1939 137.376 81.9979 137.608 81.8539 137.92C81.7179 138.232 81.6499 138.616 81.6499 139.072C81.6499 139.752 81.8019 140.272 82.1059 140.632C82.4099 140.992 82.8139 141.172 83.3179 141.172ZM89.7357 142.108C89.3277 142.108 88.9597 142.028 88.6317 141.868C88.3117 141.708 88.0597 141.492 87.8757 141.22C87.6917 140.948 87.5997 140.64 87.5997 140.296C87.5997 139.864 87.7077 139.524 87.9237 139.276C88.1477 139.02 88.5117 138.84 89.0157 138.736C89.5277 138.624 90.2157 138.568 91.0797 138.568H91.6437V139.312H91.0917C90.5157 139.312 90.0597 139.34 89.7237 139.396C89.3877 139.452 89.1477 139.548 89.0037 139.684C88.8677 139.812 88.7997 139.992 88.7997 140.224C88.7997 140.528 88.9037 140.776 89.1117 140.968C89.3197 141.152 89.6077 141.244 89.9757 141.244C90.2717 141.244 90.5317 141.176 90.7557 141.04C90.9797 140.896 91.1557 140.704 91.2837 140.464C91.4197 140.224 91.4877 139.948 91.4877 139.636V138.256C91.4877 137.8 91.3917 137.472 91.1997 137.272C91.0077 137.072 90.6917 136.972 90.2517 136.972C89.9957 136.972 89.7277 137.004 89.4477 137.068C89.1757 137.132 88.8917 137.24 88.5957 137.392C88.4597 137.456 88.3437 137.476 88.2477 137.452C88.1517 137.428 88.0757 137.376 88.0197 137.296C87.9637 137.208 87.9317 137.116 87.9237 137.02C87.9237 136.916 87.9477 136.816 87.9957 136.72C88.0517 136.624 88.1437 136.552 88.2717 136.504C88.6237 136.336 88.9717 136.216 89.3157 136.144C89.6597 136.072 89.9837 136.036 90.2877 136.036C90.8237 136.036 91.2637 136.12 91.6077 136.288C91.9597 136.456 92.2197 136.712 92.3877 137.056C92.5557 137.4 92.6397 137.844 92.6397 138.388V141.472C92.6397 141.664 92.5917 141.816 92.4957 141.928C92.3997 142.032 92.2597 142.084 92.0757 142.084C91.8997 142.084 91.7597 142.032 91.6557 141.928C91.5517 141.816 91.4997 141.664 91.4997 141.472V140.692H91.6077C91.5437 140.988 91.4237 141.244 91.2477 141.46C91.0797 141.668 90.8677 141.828 90.6117 141.94C90.3557 142.052 90.0637 142.108 89.7357 142.108ZM96.805 142.108C96.325 142.108 95.921 142.024 95.593 141.856C95.265 141.688 95.021 141.44 94.861 141.112C94.701 140.784 94.621 140.384 94.621 139.912V137.08H93.901C93.741 137.08 93.617 137.04 93.529 136.96C93.441 136.872 93.397 136.756 93.397 136.612C93.397 136.46 93.441 136.344 93.529 136.264C93.617 136.184 93.741 136.144 93.901 136.144H94.621V134.908C94.621 134.708 94.673 134.556 94.777 134.452C94.889 134.348 95.041 134.296 95.233 134.296C95.425 134.296 95.573 134.348 95.677 134.452C95.781 134.556 95.833 134.708 95.833 134.908V136.144H97.237C97.397 136.144 97.521 136.184 97.609 136.264C97.697 136.344 97.741 136.46 97.741 136.612C97.741 136.756 97.697 136.872 97.609 136.96C97.521 137.04 97.397 137.08 97.237 137.08H95.833V139.816C95.833 140.24 95.921 140.56 96.097 140.776C96.281 140.992 96.577 141.1 96.985 141.1C97.129 141.1 97.253 141.088 97.357 141.064C97.469 141.032 97.561 141.012 97.633 141.004C97.721 141.004 97.793 141.036 97.849 141.1C97.905 141.156 97.933 141.268 97.933 141.436C97.933 141.556 97.909 141.668 97.861 141.772C97.821 141.876 97.745 141.944 97.633 141.976C97.537 142.008 97.405 142.036 97.237 142.06C97.077 142.092 96.933 142.108 96.805 142.108ZM101.381 142.108C100.741 142.108 100.189 141.988 99.7253 141.748C99.2693 141.5 98.9133 141.152 98.6573 140.704C98.4093 140.248 98.2853 139.708 98.2853 139.084C98.2853 138.476 98.4093 137.944 98.6573 137.488C98.9053 137.032 99.2453 136.676 99.6773 136.42C100.109 136.164 100.601 136.036 101.153 136.036C101.561 136.036 101.925 136.104 102.245 136.24C102.565 136.368 102.837 136.56 103.061 136.816C103.293 137.064 103.465 137.368 103.577 137.728C103.697 138.088 103.757 138.492 103.757 138.94C103.757 139.076 103.717 139.18 103.637 139.252C103.557 139.316 103.437 139.348 103.277 139.348H99.2453V138.604H102.941L102.737 138.772C102.737 138.372 102.677 138.032 102.557 137.752C102.445 137.472 102.273 137.26 102.041 137.116C101.817 136.964 101.537 136.888 101.201 136.888C100.825 136.888 100.505 136.976 100.241 137.152C99.9853 137.328 99.7893 137.572 99.6533 137.884C99.5173 138.196 99.4493 138.56 99.4493 138.976V139.048C99.4493 139.752 99.6133 140.284 99.9413 140.644C100.277 140.996 100.761 141.172 101.393 141.172C101.633 141.172 101.885 141.14 102.149 141.076C102.421 141.012 102.677 140.904 102.917 140.752C103.053 140.672 103.173 140.636 103.277 140.644C103.389 140.652 103.477 140.688 103.541 140.752C103.613 140.816 103.657 140.896 103.673 140.992C103.689 141.088 103.673 141.188 103.625 141.292C103.577 141.388 103.493 141.476 103.373 141.556C103.101 141.74 102.785 141.88 102.425 141.976C102.065 142.064 101.717 142.108 101.381 142.108ZM107.311 142.108C106.799 142.108 106.347 141.988 105.955 141.748C105.571 141.5 105.271 141.148 105.055 140.692C104.839 140.228 104.731 139.688 104.731 139.072C104.731 138.44 104.839 137.9 105.055 137.452C105.271 137.004 105.571 136.656 105.955 136.408C106.347 136.16 106.799 136.036 107.311 136.036C107.823 136.036 108.263 136.164 108.631 136.42C109.007 136.668 109.259 137.004 109.387 137.428H109.255V134.068C109.255 133.868 109.307 133.716 109.411 133.612C109.515 133.508 109.663 133.456 109.855 133.456C110.047 133.456 110.195 133.508 110.299 133.612C110.411 133.716 110.467 133.868 110.467 134.068V141.472C110.467 141.664 110.415 141.816 110.311 141.928C110.207 142.032 110.059 142.084 109.867 142.084C109.675 142.084 109.527 142.032 109.423 141.928C109.319 141.816 109.267 141.664 109.267 141.472V140.416L109.399 140.68C109.271 141.112 109.019 141.46 108.643 141.724C108.275 141.98 107.831 142.108 107.311 142.108ZM107.623 141.172C107.951 141.172 108.239 141.092 108.487 140.932C108.735 140.772 108.927 140.536 109.063 140.224C109.207 139.912 109.279 139.528 109.279 139.072C109.279 138.384 109.127 137.864 108.823 137.512C108.519 137.16 108.119 136.984 107.623 136.984C107.287 136.984 106.995 137.064 106.747 137.224C106.499 137.376 106.303 137.608 106.159 137.92C106.023 138.232 105.955 138.616 105.955 139.072C105.955 139.752 106.107 140.272 106.411 140.632C106.715 140.992 107.119 141.172 107.623 141.172ZM117.204 142.108C116.796 142.108 116.428 142.028 116.1 141.868C115.78 141.708 115.528 141.492 115.344 141.22C115.16 140.948 115.068 140.64 115.068 140.296C115.068 139.864 115.176 139.524 115.392 139.276C115.616 139.02 115.98 138.84 116.484 138.736C116.996 138.624 117.684 138.568 118.548 138.568H119.112V139.312H118.56C117.984 139.312 117.528 139.34 117.192 139.396C116.856 139.452 116.616 139.548 116.472 139.684C116.336 139.812 116.268 139.992 116.268 140.224C116.268 140.528 116.372 140.776 116.58 140.968C116.788 141.152 117.076 141.244 117.444 141.244C117.74 141.244 118 141.176 118.224 141.04C118.448 140.896 118.624 140.704 118.752 140.464C118.888 140.224 118.956 139.948 118.956 139.636V138.256C118.956 137.8 118.86 137.472 118.668 137.272C118.476 137.072 118.16 136.972 117.72 136.972C117.464 136.972 117.196 137.004 116.916 137.068C116.644 137.132 116.36 137.24 116.064 137.392C115.928 137.456 115.812 137.476 115.716 137.452C115.62 137.428 115.544 137.376 115.488 137.296C115.432 137.208 115.4 137.116 115.392 137.02C115.392 136.916 115.416 136.816 115.464 136.72C115.52 136.624 115.612 136.552 115.74 136.504C116.092 136.336 116.44 136.216 116.784 136.144C117.128 136.072 117.452 136.036 117.756 136.036C118.292 136.036 118.732 136.12 119.076 136.288C119.428 136.456 119.688 136.712 119.856 137.056C120.024 137.4 120.108 137.844 120.108 138.388V141.472C120.108 141.664 120.06 141.816 119.964 141.928C119.868 142.032 119.728 142.084 119.544 142.084C119.368 142.084 119.228 142.032 119.124 141.928C119.02 141.816 118.968 141.664 118.968 141.472V140.692H119.076C119.012 140.988 118.892 141.244 118.716 141.46C118.548 141.668 118.336 141.828 118.08 141.94C117.824 142.052 117.532 142.108 117.204 142.108ZM122.378 142.084C122.186 142.084 122.038 142.032 121.934 141.928C121.83 141.816 121.778 141.664 121.778 141.472V136.672C121.778 136.472 121.83 136.32 121.934 136.216C122.038 136.112 122.182 136.06 122.366 136.06C122.558 136.06 122.702 136.112 122.798 136.216C122.902 136.32 122.954 136.472 122.954 136.672V137.608L122.822 137.392C122.998 136.944 123.274 136.608 123.65 136.384C124.026 136.152 124.458 136.036 124.946 136.036C125.41 136.036 125.794 136.124 126.098 136.3C126.41 136.468 126.642 136.728 126.794 137.08C126.946 137.424 127.022 137.86 127.022 138.388V141.472C127.022 141.664 126.97 141.816 126.866 141.928C126.762 142.032 126.614 142.084 126.422 142.084C126.222 142.084 126.07 142.032 125.966 141.928C125.862 141.816 125.81 141.664 125.81 141.472V138.46C125.81 137.956 125.71 137.588 125.51 137.356C125.318 137.124 125.014 137.008 124.598 137.008C124.11 137.008 123.718 137.16 123.422 137.464C123.134 137.768 122.99 138.176 122.99 138.688V141.472C122.99 141.88 122.786 142.084 122.378 142.084ZM130.924 142.108C130.412 142.108 129.96 141.988 129.568 141.748C129.184 141.5 128.884 141.148 128.668 140.692C128.452 140.228 128.344 139.688 128.344 139.072C128.344 138.44 128.452 137.9 128.668 137.452C128.884 137.004 129.184 136.656 129.568 136.408C129.96 136.16 130.412 136.036 130.924 136.036C131.436 136.036 131.876 136.164 132.244 136.42C132.62 136.668 132.872 137.004 133 137.428H132.868V134.068C132.868 133.868 132.92 133.716 133.024 133.612C133.128 133.508 133.276 133.456 133.468 133.456C133.66 133.456 133.808 133.508 133.912 133.612C134.024 133.716 134.08 133.868 134.08 134.068V141.472C134.08 141.664 134.028 141.816 133.924 141.928C133.82 142.032 133.672 142.084 133.48 142.084C133.288 142.084 133.14 142.032 133.036 141.928C132.932 141.816 132.88 141.664 132.88 141.472V140.416L133.012 140.68C132.884 141.112 132.632 141.46 132.256 141.724C131.888 141.98 131.444 142.108 130.924 142.108ZM131.236 141.172C131.564 141.172 131.852 141.092 132.1 140.932C132.348 140.772 132.54 140.536 132.676 140.224C132.82 139.912 132.892 139.528 132.892 139.072C132.892 138.384 132.74 137.864 132.436 137.512C132.132 137.16 131.732 136.984 131.236 136.984C130.9 136.984 130.608 137.064 130.36 137.224C130.112 137.376 129.916 137.608 129.772 137.92C129.636 138.232 129.568 138.616 129.568 139.072C129.568 139.752 129.72 140.272 130.024 140.632C130.328 140.992 130.732 141.172 131.236 141.172ZM140.998 142.108C140.646 142.108 140.282 142.068 139.906 141.988C139.538 141.908 139.198 141.772 138.886 141.58C138.782 141.508 138.71 141.428 138.67 141.34C138.63 141.252 138.614 141.164 138.622 141.076C138.638 140.98 138.674 140.9 138.73 140.836C138.794 140.764 138.87 140.72 138.958 140.704C139.054 140.688 139.154 140.708 139.258 140.764C139.57 140.94 139.87 141.064 140.158 141.136C140.446 141.2 140.73 141.232 141.01 141.232C141.434 141.232 141.754 141.156 141.97 141.004C142.186 140.852 142.294 140.648 142.294 140.392C142.294 140.184 142.222 140.024 142.078 139.912C141.934 139.792 141.718 139.7 141.43 139.636L140.29 139.408C139.794 139.304 139.418 139.12 139.162 138.856C138.906 138.592 138.778 138.256 138.778 137.848C138.778 137.48 138.878 137.16 139.078 136.888C139.278 136.616 139.558 136.408 139.918 136.264C140.278 136.112 140.694 136.036 141.166 136.036C141.518 136.036 141.85 136.08 142.162 136.168C142.474 136.256 142.762 136.388 143.026 136.564C143.13 136.62 143.198 136.696 143.23 136.792C143.262 136.88 143.266 136.968 143.242 137.056C143.226 137.144 143.186 137.224 143.122 137.296C143.058 137.36 142.978 137.4 142.882 137.416C142.794 137.424 142.694 137.4 142.582 137.344C142.342 137.192 142.102 137.084 141.862 137.02C141.63 136.956 141.398 136.924 141.166 136.924C140.742 136.924 140.422 137.004 140.206 137.164C139.998 137.316 139.894 137.524 139.894 137.788C139.894 137.988 139.958 138.152 140.086 138.28C140.214 138.408 140.414 138.5 140.686 138.556L141.826 138.784C142.346 138.888 142.738 139.064 143.002 139.312C143.274 139.56 143.41 139.896 143.41 140.32C143.41 140.872 143.19 141.308 142.75 141.628C142.31 141.948 141.726 142.108 140.998 142.108ZM146.63 142.108C146.222 142.108 145.854 142.028 145.526 141.868C145.206 141.708 144.954 141.492 144.77 141.22C144.586 140.948 144.494 140.64 144.494 140.296C144.494 139.864 144.602 139.524 144.818 139.276C145.042 139.02 145.406 138.84 145.91 138.736C146.422 138.624 147.11 138.568 147.974 138.568H148.538V139.312H147.986C147.41 139.312 146.954 139.34 146.618 139.396C146.282 139.452 146.042 139.548 145.898 139.684C145.762 139.812 145.694 139.992 145.694 140.224C145.694 140.528 145.798 140.776 146.006 140.968C146.214 141.152 146.502 141.244 146.87 141.244C147.166 141.244 147.426 141.176 147.65 141.04C147.874 140.896 148.05 140.704 148.178 140.464C148.314 140.224 148.382 139.948 148.382 139.636V138.256C148.382 137.8 148.286 137.472 148.094 137.272C147.902 137.072 147.586 136.972 147.146 136.972C146.89 136.972 146.622 137.004 146.342 137.068C146.07 137.132 145.786 137.24 145.49 137.392C145.354 137.456 145.238 137.476 145.142 137.452C145.046 137.428 144.97 137.376 144.914 137.296C144.858 137.208 144.826 137.116 144.818 137.02C144.818 136.916 144.842 136.816 144.89 136.72C144.946 136.624 145.038 136.552 145.166 136.504C145.518 136.336 145.866 136.216 146.21 136.144C146.554 136.072 146.878 136.036 147.182 136.036C147.718 136.036 148.158 136.12 148.502 136.288C148.854 136.456 149.114 136.712 149.282 137.056C149.45 137.4 149.534 137.844 149.534 138.388V141.472C149.534 141.664 149.486 141.816 149.39 141.928C149.294 142.032 149.154 142.084 148.97 142.084C148.794 142.084 148.654 142.032 148.55 141.928C148.446 141.816 148.394 141.664 148.394 141.472V140.692H148.502C148.438 140.988 148.318 141.244 148.142 141.46C147.974 141.668 147.762 141.828 147.506 141.94C147.25 142.052 146.958 142.108 146.63 142.108ZM153.413 142.084C153.245 142.084 153.097 142.04 152.969 141.952C152.849 141.864 152.749 141.728 152.669 141.544L150.665 136.888C150.601 136.744 150.577 136.608 150.593 136.48C150.609 136.352 150.669 136.252 150.773 136.18C150.877 136.1 151.017 136.06 151.193 136.06C151.345 136.06 151.465 136.096 151.553 136.168C151.641 136.24 151.721 136.364 151.793 136.54L153.605 141.004H153.269L155.117 136.54C155.189 136.364 155.269 136.24 155.357 136.168C155.453 136.096 155.585 136.06 155.753 136.06C155.897 136.06 156.009 136.1 156.089 136.18C156.177 136.252 156.229 136.352 156.245 136.48C156.269 136.6 156.249 136.732 156.185 136.876L154.157 141.544C154.085 141.728 153.985 141.864 153.857 141.952C153.729 142.04 153.581 142.084 153.413 142.084ZM160.022 142.108C159.382 142.108 158.83 141.988 158.366 141.748C157.91 141.5 157.554 141.152 157.298 140.704C157.05 140.248 156.926 139.708 156.926 139.084C156.926 138.476 157.05 137.944 157.298 137.488C157.546 137.032 157.886 136.676 158.318 136.42C158.75 136.164 159.242 136.036 159.794 136.036C160.202 136.036 160.566 136.104 160.886 136.24C161.206 136.368 161.478 136.56 161.702 136.816C161.934 137.064 162.106 137.368 162.218 137.728C162.338 138.088 162.398 138.492 162.398 138.94C162.398 139.076 162.358 139.18 162.278 139.252C162.198 139.316 162.078 139.348 161.918 139.348H157.886V138.604H161.582L161.378 138.772C161.378 138.372 161.318 138.032 161.198 137.752C161.086 137.472 160.914 137.26 160.682 137.116C160.458 136.964 160.178 136.888 159.842 136.888C159.466 136.888 159.146 136.976 158.882 137.152C158.626 137.328 158.43 137.572 158.294 137.884C158.158 138.196 158.09 138.56 158.09 138.976V139.048C158.09 139.752 158.254 140.284 158.582 140.644C158.918 140.996 159.402 141.172 160.034 141.172C160.274 141.172 160.526 141.14 160.79 141.076C161.062 141.012 161.318 140.904 161.558 140.752C161.694 140.672 161.814 140.636 161.918 140.644C162.03 140.652 162.118 140.688 162.182 140.752C162.254 140.816 162.298 140.896 162.314 140.992C162.33 141.088 162.314 141.188 162.266 141.292C162.218 141.388 162.134 141.476 162.014 141.556C161.742 141.74 161.426 141.88 161.066 141.976C160.706 142.064 160.358 142.108 160.022 142.108ZM165.951 142.108C165.439 142.108 164.987 141.988 164.595 141.748C164.211 141.5 163.911 141.148 163.695 140.692C163.479 140.228 163.371 139.688 163.371 139.072C163.371 138.44 163.479 137.9 163.695 137.452C163.911 137.004 164.211 136.656 164.595 136.408C164.987 136.16 165.439 136.036 165.951 136.036C166.463 136.036 166.903 136.164 167.271 136.42C167.647 136.668 167.899 137.004 168.027 137.428H167.895V134.068C167.895 133.868 167.947 133.716 168.051 133.612C168.155 133.508 168.303 133.456 168.495 133.456C168.687 133.456 168.835 133.508 168.939 133.612C169.051 133.716 169.107 133.868 169.107 134.068V141.472C169.107 141.664 169.055 141.816 168.951 141.928C168.847 142.032 168.699 142.084 168.507 142.084C168.315 142.084 168.167 142.032 168.063 141.928C167.959 141.816 167.907 141.664 167.907 141.472V140.416L168.039 140.68C167.911 141.112 167.659 141.46 167.283 141.724C166.915 141.98 166.471 142.108 165.951 142.108ZM166.263 141.172C166.591 141.172 166.879 141.092 167.127 140.932C167.375 140.772 167.567 140.536 167.703 140.224C167.847 139.912 167.919 139.528 167.919 139.072C167.919 138.384 167.767 137.864 167.463 137.512C167.159 137.16 166.759 136.984 166.263 136.984C165.927 136.984 165.635 137.064 165.387 137.224C165.139 137.376 164.943 137.608 164.799 137.92C164.663 138.232 164.595 138.616 164.595 139.072C164.595 139.752 164.747 140.272 165.051 140.632C165.355 140.992 165.759 141.172 166.263 141.172ZM171.397 142.048C171.165 142.048 170.977 141.976 170.833 141.832C170.689 141.688 170.617 141.504 170.617 141.28C170.617 141.056 170.689 140.876 170.833 140.74C170.977 140.596 171.165 140.524 171.397 140.524C171.629 140.524 171.813 140.596 171.949 140.74C172.085 140.876 172.153 141.056 172.153 141.28C172.153 141.504 172.085 141.688 171.949 141.832C171.813 141.976 171.629 142.048 171.397 142.048Z" fill="#64728C"/>
</g>
<circle opacity="0.2" cx="323" cy="97" r="13" stroke="#34BC40" stroke-width="5"/>
<circle opacity="0.2" cx="1.3" cy="1.3" r="1.3" transform="matrix(1 0 0 -1 321.7 98.2998)" fill="#6FCF97"/>
<path d="M324.235 84.0588C325.934 84.2209 327.585 84.7162 329.093 85.5163C330.601 86.3165 331.937 87.4059 333.024 88.7222C334.111 90.0386 334.928 91.5561 335.429 93.1883C335.929 94.8204 336.104 96.5352 335.941 98.2347" stroke="#34BC40" stroke-width="5" stroke-linecap="round" stroke-linejoin="round"/>
<path d="M324.857 96.9998L327.245 94.612C327.776 94.0814 327.776 93.2855 327.245 92.7549C326.715 92.2243 325.919 92.2243 325.388 92.7549L323 95.1426L320.613 92.7549C320.082 92.2243 319.286 92.2243 318.755 92.7549C318.225 93.2855 318.225 94.0814 318.755 94.612L321.143 96.9998L318.755 99.3875C318.225 99.9182 318.225 100.714 318.755 101.245C319.021 101.51 319.352 101.643 319.684 101.643C320.016 101.643 320.347 101.51 320.613 101.245L323 98.8569L325.388 101.245C325.653 101.51 325.985 101.643 326.317 101.643C326.648 101.643 326.98 101.51 327.245 101.245C327.776 100.714 327.776 99.9182 327.245 99.3875L324.857 96.9998Z" fill="#34BC40"/>
</g>
<rect x="50.5" y="71.5" width="299" height="93" rx="24.5" stroke="url(#paint1_linear_1338_4634)" stroke-opacity="0.4"/>
</g>
<g filter="url(#filter3_d_1338_4634)">
<path d="M65.8447 68.5C65.8447 56.0736 75.9183 46 88.3447 46V46C100.771 46 110.845 56.0736 110.845 68.5V68.5C110.845 80.9264 100.771 91 88.3447 91V91C75.9183 91 65.8447 80.9264 65.8447 68.5V68.5Z" fill="#34BC40" shape-rendering="crispEdges"/>
<path d="M65.8447 68.5C65.8447 56.0736 75.9183 46 88.3447 46V46C100.771 46 110.845 56.0736 110.845 68.5V68.5C110.845 80.9264 100.771 91 88.3447 91V91C75.9183 91 65.8447 80.9264 65.8447 68.5V68.5Z" fill="url(#paint2_radial_1338_4634)" fill-opacity="0.2" shape-rendering="crispEdges"/>
<path d="M89.5445 66.7002L87.8445 69.2002L87.3445 68.7002C86.9445 68.3002 86.3445 68.3002 85.9445 68.7002C85.5445 69.1002 85.5445 69.7002 85.9445 70.1002L87.3445 71.5002C87.5445 71.7002 87.7445 71.8002 88.0445 71.8002H88.1445C88.4445 71.8002 88.7445 71.6002 88.8445 71.4002L91.2445 67.8002C91.5445 67.3002 91.4445 66.7002 90.9445 66.4002C90.4445 66.1002 89.8445 66.2002 89.5445 66.7002Z" fill="white"/>
<path d="M97.1447 65.7C96.7447 65.3 96.5447 64.8 96.5447 64.3C96.5447 62.1 94.7447 60.3 92.5447 60.3C92.0447 60.3 91.5447 60.1 91.1447 59.7C89.5447 58.1 87.0447 58.1 85.4447 59.7C85.1447 60.1 84.6447 60.3 84.1447 60.3C81.9447 60.3 80.1447 62.1 80.1447 64.3C80.1447 64.8 79.9447 65.3 79.5447 65.7C77.9447 67.3 77.9447 69.8 79.5447 71.4C79.9447 71.8 80.1447 72.3 80.1447 72.8C80.1447 75 81.9447 76.8 84.1447 76.8C84.6447 76.8 85.1447 77 85.5447 77.4C86.3447 78.1 87.3447 78.5 88.3447 78.5C89.3447 78.5 90.4447 78.1 91.1447 77.3C91.5447 76.9 92.0447 76.7 92.5447 76.7C94.7447 76.7 96.5447 74.9 96.5447 72.7C96.5447 72.2 96.7447 71.7 97.0447 71.3C98.7447 69.8 98.7447 67.2 97.1447 65.7ZM95.7447 69.9C94.9447 70.7 94.5447 71.7 94.5447 72.7C94.5447 73.8 93.6447 74.7 92.5447 74.7C91.4447 74.7 90.4447 75.1 89.7447 75.9C88.9447 76.7 87.6447 76.7 86.9447 75.9C86.1447 75.1 85.1447 74.7 84.1447 74.7C83.0447 74.7 82.1447 73.8 82.1447 72.7C82.1447 71.6 81.7447 70.6 80.9447 69.9C80.1447 69.1 80.1447 67.9 80.9447 67.1C81.7447 66.3 82.1447 65.3 82.1447 64.3C82.1447 63.2 83.0447 62.3 84.1447 62.3C85.2447 62.3 86.2447 61.9 86.9447 61.1C87.3447 60.7 87.8447 60.5 88.3447 60.5C88.8447 60.5 89.3447 60.7 89.7447 61.1C90.5447 61.9 91.5447 62.3 92.5447 62.3C93.6447 62.3 94.5447 63.2 94.5447 64.3C94.5447 65.4 94.9447 66.4 95.7447 67.1C96.5447 67.9 96.5447 69.1 95.7447 69.9Z" fill="white"/>
</g>
</g>
<defs>
<filter id="filter0_d_1338_4634" x="0" y="0" width="400" height="219" filterUnits="userSpaceOnUse" color-interpolation-filters="sRGB">
<feFlood flood-opacity="0" result="BackgroundImageFix"/>
<feColorMatrix in="SourceAlpha" type="matrix" values="0 0 0 0 0 0 0 0 0 0 0 0 0 0 0 0 0 0 127 0" result="hardAlpha"/>
<feOffset dy="4"/>
<feGaussianBlur stdDeviation="25"/>
<feComposite in2="hardAlpha" operator="out"/>
<feColorMatrix type="matrix" values="0 0 0 0 0 0 0 0 0 0 0 0 0 0 0 0 0 0 0.06 0"/>
<feBlend mode="normal" in2="BackgroundImageFix" result="effect1_dropShadow_1338_4634"/>
<feBlend mode="normal" in="SourceGraphic" in2="effect1_dropShadow_1338_4634" result="shape"/>
</filter>
<filter id="filter1_d_1338_4634" x="46" y="71" width="308" height="102" filterUnits="userSpaceOnUse" color-interpolation-filters="sRGB">
<feFlood flood-opacity="0" result="BackgroundImageFix"/>
<feColorMatrix in="SourceAlpha" type="matrix" values="0 0 0 0 0 0 0 0 0 0 0 0 0 0 0 0 0 0 127 0" result="hardAlpha"/>
<feOffset dy="4"/>
<feGaussianBlur stdDeviation="2"/>
<feComposite in2="hardAlpha" operator="out"/>
<feColorMatrix type="matrix" values="0 0 0 0 0.203922 0 0 0 0 0.737255 0 0 0 0 0.25098 0 0 0 0.25 0"/>
<feBlend mode="normal" in2="BackgroundImageFix" result="effect1_dropShadow_1338_4634"/>
<feBlend mode="normal" in="SourceGraphic" in2="effect1_dropShadow_1338_4634" result="shape"/>
</filter>
<filter id="filter2_d_1338_4634" x="20" y="45" width="360" height="151" filterUnits="userSpaceOnUse" color-interpolation-filters="sRGB">
<feFlood flood-opacity="0" result="BackgroundImageFix"/>
<feColorMatrix in="SourceAlpha" type="matrix" values="0 0 0 0 0 0 0 0 0 0 0 0 0 0 0 0 0 0 127 0" result="hardAlpha"/>
<feOffset dy="4"/>
<feGaussianBlur stdDeviation="15"/>
<feComposite in2="hardAlpha" operator="out"/>
<feColorMatrix type="matrix" values="0 0 0 0 0 0 0 0 0 0 0 0 0 0 0 0 0 0 0.1 0"/>
<feBlend mode="normal" in2="BackgroundImageFix" result="effect1_dropShadow_1338_4634"/>
<feBlend mode="normal" in="SourceGraphic" in2="effect1_dropShadow_1338_4634" result="shape"/>
</filter>
<filter id="filter3_d_1338_4634" x="61.8447" y="46" width="53" height="53" filterUnits="userSpaceOnUse" color-interpolation-filters="sRGB">
<feFlood flood-opacity="0" result="BackgroundImageFix"/>
<feColorMatrix in="SourceAlpha" type="matrix" values="0 0 0 0 0 0 0 0 0 0 0 0 0 0 0 0 0 0 127 0" result="hardAlpha"/>
<feOffset dy="4"/>
<feGaussianBlur stdDeviation="2"/>
<feComposite in2="hardAlpha" operator="out"/>
<feColorMatrix type="matrix" values="0 0 0 0 0.203922 0 0 0 0 0.737255 0 0 0 0 0.25098 0 0 0 0.1 0"/>
<feBlend mode="normal" in2="BackgroundImageFix" result="effect1_dropShadow_1338_4634"/>
<feBlend mode="normal" in="SourceGraphic" in2="effect1_dropShadow_1338_4634" result="shape"/>
</filter>
<linearGradient id="paint0_linear_1338_4634" x1="50" y1="71" x2="348.674" y2="156.346" gradientUnits="userSpaceOnUse">
<stop offset="0.468122" stop-color="white" stop-opacity="0"/>
<stop offset="1" stop-color="white"/>
</linearGradient>
<linearGradient id="paint1_linear_1338_4634" x1="200" y1="71" x2="200" y2="165" gradientUnits="userSpaceOnUse">
<stop stop-color="#34BC40"/>
<stop offset="1" stop-color="#34BC40"/>
</linearGradient>
<radialGradient id="paint2_radial_1338_4634" cx="0" cy="0" r="1" gradientUnits="userSpaceOnUse" gradientTransform="translate(88.3447 68.5) rotate(90) scale(22.5)">
<stop stop-opacity="0"/>
<stop offset="1" stop-color="white"/>
</radialGradient>
<clipPath id="clip0_1338_4634">
<rect x="50" y="71" width="300" height="94" rx="25" fill="white"/>
</clipPath>
</defs>
</svg>
