<svg width="420" height="241" viewBox="0 0 420 241" fill="none" xmlns="http://www.w3.org/2000/svg">
<g filter="url(#filter0_d_978_2418)">
<g filter="url(#filter1_d_978_2418)">
<g clip-path="url(#clip0_978_2418)">
<rect x="60" y="78" width="300" height="99" rx="25" fill="#EB0A11"/>
<g filter="url(#filter2_d_978_2418)">
<rect x="60" y="78" width="300" height="96" rx="25" fill="white" shape-rendering="crispEdges"/>
<rect x="60" y="78" width="300" height="96" rx="25" fill="url(#paint0_linear_978_2418)" fill-opacity="0.2" shape-rendering="crispEdges"/>
<path d="M81.222 117.154C80.522 117.154 79.9013 117.065 79.36 116.888C78.828 116.701 78.38 116.431 78.016 116.076C77.652 115.721 77.3767 115.278 77.19 114.746C77.0127 114.205 76.924 113.579 76.924 112.87V108.11C76.924 107.746 77.0173 107.471 77.204 107.284C77.3907 107.097 77.6613 107.004 78.016 107.004C78.3613 107.004 78.6273 107.097 78.814 107.284C79.0007 107.471 79.094 107.746 79.094 108.11V112.884C79.094 113.687 79.276 114.293 79.64 114.704C80.004 115.105 80.5313 115.306 81.222 115.306C81.9127 115.306 82.4353 115.105 82.79 114.704C83.154 114.293 83.336 113.687 83.336 112.884V108.11C83.336 107.746 83.4293 107.471 83.616 107.284C83.8027 107.097 84.0687 107.004 84.414 107.004C84.7593 107.004 85.0207 107.097 85.198 107.284C85.3847 107.471 85.478 107.746 85.478 108.11V112.87C85.478 113.813 85.3147 114.606 84.988 115.25C84.6707 115.885 84.1947 116.361 83.56 116.678C82.9347 116.995 82.1553 117.154 81.222 117.154ZM88.2803 117.126C87.935 117.126 87.669 117.033 87.4823 116.846C87.305 116.659 87.2163 116.393 87.2163 116.048V111.078C87.2163 110.733 87.305 110.471 87.4823 110.294C87.669 110.107 87.9256 110.014 88.2523 110.014C88.5883 110.014 88.845 110.107 89.0223 110.294C89.1996 110.471 89.2883 110.733 89.2883 111.078V111.876L89.1343 111.414C89.349 110.957 89.6663 110.607 90.0863 110.364C90.5156 110.112 91.001 109.986 91.5423 109.986C92.093 109.986 92.5456 110.093 92.9003 110.308C93.255 110.513 93.521 110.831 93.6983 111.26C93.8756 111.68 93.9643 112.217 93.9643 112.87V116.048C93.9643 116.393 93.871 116.659 93.6843 116.846C93.507 117.033 93.2456 117.126 92.9003 117.126C92.5643 117.126 92.303 117.033 92.1163 116.846C91.939 116.659 91.8503 116.393 91.8503 116.048V112.968C91.8503 112.492 91.7616 112.151 91.5843 111.946C91.4163 111.731 91.155 111.624 90.8003 111.624C90.3523 111.624 89.993 111.764 89.7223 112.044C89.461 112.324 89.3303 112.697 89.3303 113.164V116.048C89.3303 116.767 88.9803 117.126 88.2803 117.126ZM98.1745 117.154C97.7638 117.154 97.3391 117.117 96.9005 117.042C96.4711 116.967 96.0791 116.841 95.7245 116.664C95.5378 116.571 95.4025 116.454 95.3185 116.314C95.2438 116.165 95.2111 116.015 95.2205 115.866C95.2298 115.717 95.2765 115.581 95.3605 115.46C95.4538 115.339 95.5705 115.259 95.7105 115.222C95.8598 115.175 96.0231 115.189 96.2005 115.264C96.5831 115.423 96.9331 115.535 97.2505 115.6C97.5678 115.665 97.8805 115.698 98.1885 115.698C98.5898 115.698 98.8791 115.637 99.0565 115.516C99.2431 115.385 99.3365 115.217 99.3365 115.012C99.3365 114.825 99.2758 114.685 99.1545 114.592C99.0331 114.499 98.8558 114.433 98.6225 114.396L97.1525 114.13C96.5738 114.027 96.1258 113.817 95.8085 113.5C95.5005 113.173 95.3465 112.758 95.3465 112.254C95.3465 111.787 95.4771 111.386 95.7385 111.05C95.9998 110.705 96.3591 110.443 96.8165 110.266C97.2831 110.079 97.8105 109.986 98.3985 109.986C98.8185 109.986 99.2058 110.023 99.5605 110.098C99.9151 110.173 100.256 110.294 100.582 110.462C100.75 110.546 100.867 110.658 100.932 110.798C101.007 110.938 101.03 111.083 101.002 111.232C100.984 111.381 100.928 111.517 100.834 111.638C100.741 111.759 100.62 111.839 100.47 111.876C100.33 111.913 100.167 111.895 99.9805 111.82C99.6818 111.68 99.4065 111.582 99.1545 111.526C98.9025 111.461 98.6598 111.428 98.4265 111.428C98.0065 111.428 97.7031 111.498 97.5165 111.638C97.3298 111.769 97.2365 111.937 97.2365 112.142C97.2365 112.301 97.2878 112.436 97.3905 112.548C97.5025 112.651 97.6705 112.721 97.8945 112.758L99.3645 113.024C99.9711 113.127 100.433 113.332 100.75 113.64C101.068 113.939 101.226 114.349 101.226 114.872C101.226 115.581 100.946 116.141 100.386 116.552C99.8358 116.953 99.0985 117.154 98.1745 117.154ZM104.967 117.154C104.388 117.154 103.908 117.047 103.525 116.832C103.142 116.617 102.858 116.295 102.671 115.866C102.494 115.427 102.405 114.886 102.405 114.242V111.078C102.405 110.723 102.494 110.457 102.671 110.28C102.858 110.103 103.119 110.014 103.455 110.014C103.791 110.014 104.052 110.103 104.239 110.28C104.426 110.457 104.519 110.723 104.519 111.078V114.298C104.519 114.709 104.603 115.017 104.771 115.222C104.939 115.418 105.205 115.516 105.569 115.516C105.97 115.516 106.297 115.376 106.549 115.096C106.81 114.807 106.941 114.429 106.941 113.962V111.078C106.941 110.723 107.03 110.457 107.207 110.28C107.394 110.103 107.655 110.014 107.991 110.014C108.336 110.014 108.598 110.103 108.775 110.28C108.962 110.457 109.055 110.723 109.055 111.078V116.048C109.055 116.767 108.714 117.126 108.033 117.126C107.697 117.126 107.44 117.033 107.263 116.846C107.086 116.659 106.997 116.393 106.997 116.048V115.11L107.207 115.656C107.002 116.132 106.708 116.501 106.325 116.762C105.942 117.023 105.49 117.154 104.967 117.154ZM114.037 117.154C113.29 117.154 112.637 117.009 112.077 116.72C111.526 116.421 111.102 116.001 110.803 115.46C110.504 114.919 110.355 114.279 110.355 113.542C110.355 112.991 110.439 112.497 110.607 112.058C110.775 111.619 111.018 111.246 111.335 110.938C111.662 110.63 112.054 110.397 112.511 110.238C112.968 110.07 113.477 109.986 114.037 109.986C114.326 109.986 114.634 110.023 114.961 110.098C115.288 110.163 115.61 110.28 115.927 110.448C116.114 110.532 116.24 110.653 116.305 110.812C116.38 110.961 116.408 111.12 116.389 111.288C116.37 111.447 116.31 111.591 116.207 111.722C116.114 111.843 115.992 111.927 115.843 111.974C115.694 112.011 115.526 111.983 115.339 111.89C115.162 111.787 114.975 111.713 114.779 111.666C114.592 111.619 114.415 111.596 114.247 111.596C113.967 111.596 113.72 111.643 113.505 111.736C113.29 111.82 113.108 111.946 112.959 112.114C112.819 112.273 112.707 112.473 112.623 112.716C112.548 112.959 112.511 113.239 112.511 113.556C112.511 114.172 112.66 114.657 112.959 115.012C113.267 115.357 113.696 115.53 114.247 115.53C114.415 115.53 114.592 115.511 114.779 115.474C114.966 115.427 115.152 115.353 115.339 115.25C115.526 115.157 115.694 115.133 115.843 115.18C115.992 115.227 116.109 115.315 116.193 115.446C116.286 115.567 116.338 115.712 116.347 115.88C116.366 116.039 116.338 116.197 116.263 116.356C116.198 116.505 116.076 116.622 115.899 116.706C115.582 116.865 115.264 116.977 114.947 117.042C114.63 117.117 114.326 117.154 114.037 117.154ZM120.586 117.154C119.839 117.154 119.186 117.009 118.626 116.72C118.075 116.421 117.65 116.001 117.352 115.46C117.053 114.919 116.904 114.279 116.904 113.542C116.904 112.991 116.988 112.497 117.156 112.058C117.324 111.619 117.566 111.246 117.884 110.938C118.21 110.63 118.602 110.397 119.06 110.238C119.517 110.07 120.026 109.986 120.586 109.986C120.875 109.986 121.183 110.023 121.51 110.098C121.836 110.163 122.158 110.28 122.476 110.448C122.662 110.532 122.788 110.653 122.854 110.812C122.928 110.961 122.956 111.12 122.938 111.288C122.919 111.447 122.858 111.591 122.756 111.722C122.662 111.843 122.541 111.927 122.392 111.974C122.242 112.011 122.074 111.983 121.888 111.89C121.71 111.787 121.524 111.713 121.328 111.666C121.141 111.619 120.964 111.596 120.796 111.596C120.516 111.596 120.268 111.643 120.054 111.736C119.839 111.82 119.657 111.946 119.508 112.114C119.368 112.273 119.256 112.473 119.172 112.716C119.097 112.959 119.06 113.239 119.06 113.556C119.06 114.172 119.209 114.657 119.508 115.012C119.816 115.357 120.245 115.53 120.796 115.53C120.964 115.53 121.141 115.511 121.328 115.474C121.514 115.427 121.701 115.353 121.888 115.25C122.074 115.157 122.242 115.133 122.392 115.18C122.541 115.227 122.658 115.315 122.742 115.446C122.835 115.567 122.886 115.712 122.896 115.88C122.914 116.039 122.886 116.197 122.812 116.356C122.746 116.505 122.625 116.622 122.448 116.706C122.13 116.865 121.813 116.977 121.496 117.042C121.178 117.117 120.875 117.154 120.586 117.154ZM127.359 117.154C126.547 117.154 125.847 117.009 125.259 116.72C124.68 116.421 124.232 116.006 123.915 115.474C123.607 114.933 123.453 114.298 123.453 113.57C123.453 112.861 123.602 112.24 123.901 111.708C124.199 111.167 124.615 110.747 125.147 110.448C125.688 110.14 126.299 109.986 126.981 109.986C127.475 109.986 127.923 110.07 128.325 110.238C128.726 110.397 129.071 110.63 129.361 110.938C129.65 111.237 129.869 111.605 130.019 112.044C130.168 112.473 130.243 112.954 130.243 113.486C130.243 113.663 130.187 113.799 130.075 113.892C129.963 113.976 129.799 114.018 129.585 114.018H125.189V112.926H128.717L128.493 113.122C128.493 112.739 128.437 112.422 128.325 112.17C128.213 111.909 128.049 111.713 127.835 111.582C127.629 111.451 127.373 111.386 127.065 111.386C126.719 111.386 126.425 111.465 126.183 111.624C125.94 111.783 125.753 112.011 125.623 112.31C125.492 112.609 125.427 112.968 125.427 113.388V113.5C125.427 114.209 125.59 114.732 125.917 115.068C126.253 115.404 126.747 115.572 127.401 115.572C127.625 115.572 127.881 115.544 128.171 115.488C128.46 115.432 128.731 115.343 128.983 115.222C129.197 115.119 129.389 115.087 129.557 115.124C129.725 115.152 129.855 115.227 129.949 115.348C130.042 115.469 130.093 115.609 130.103 115.768C130.121 115.927 130.089 116.085 130.005 116.244C129.921 116.393 129.781 116.519 129.585 116.622C129.267 116.799 128.908 116.93 128.507 117.014C128.115 117.107 127.732 117.154 127.359 117.154ZM134.104 117.154C133.693 117.154 133.269 117.117 132.83 117.042C132.401 116.967 132.009 116.841 131.654 116.664C131.467 116.571 131.332 116.454 131.248 116.314C131.173 116.165 131.141 116.015 131.15 115.866C131.159 115.717 131.206 115.581 131.29 115.46C131.383 115.339 131.5 115.259 131.64 115.222C131.789 115.175 131.953 115.189 132.13 115.264C132.513 115.423 132.863 115.535 133.18 115.6C133.497 115.665 133.81 115.698 134.118 115.698C134.519 115.698 134.809 115.637 134.986 115.516C135.173 115.385 135.266 115.217 135.266 115.012C135.266 114.825 135.205 114.685 135.084 114.592C134.963 114.499 134.785 114.433 134.552 114.396L133.082 114.13C132.503 114.027 132.055 113.817 131.738 113.5C131.43 113.173 131.276 112.758 131.276 112.254C131.276 111.787 131.407 111.386 131.668 111.05C131.929 110.705 132.289 110.443 132.746 110.266C133.213 110.079 133.74 109.986 134.328 109.986C134.748 109.986 135.135 110.023 135.49 110.098C135.845 110.173 136.185 110.294 136.512 110.462C136.68 110.546 136.797 110.658 136.862 110.798C136.937 110.938 136.96 111.083 136.932 111.232C136.913 111.381 136.857 111.517 136.764 111.638C136.671 111.759 136.549 111.839 136.4 111.876C136.26 111.913 136.097 111.895 135.91 111.82C135.611 111.68 135.336 111.582 135.084 111.526C134.832 111.461 134.589 111.428 134.356 111.428C133.936 111.428 133.633 111.498 133.446 111.638C133.259 111.769 133.166 111.937 133.166 112.142C133.166 112.301 133.217 112.436 133.32 112.548C133.432 112.651 133.6 112.721 133.824 112.758L135.294 113.024C135.901 113.127 136.363 113.332 136.68 113.64C136.997 113.939 137.156 114.349 137.156 114.872C137.156 115.581 136.876 116.141 136.316 116.552C135.765 116.953 135.028 117.154 134.104 117.154ZM140.995 117.154C140.584 117.154 140.159 117.117 139.721 117.042C139.291 116.967 138.899 116.841 138.545 116.664C138.358 116.571 138.223 116.454 138.139 116.314C138.064 116.165 138.031 116.015 138.041 115.866C138.05 115.717 138.097 115.581 138.181 115.46C138.274 115.339 138.391 115.259 138.531 115.222C138.68 115.175 138.843 115.189 139.021 115.264C139.403 115.423 139.753 115.535 140.071 115.6C140.388 115.665 140.701 115.698 141.009 115.698C141.41 115.698 141.699 115.637 141.877 115.516C142.063 115.385 142.157 115.217 142.157 115.012C142.157 114.825 142.096 114.685 141.975 114.592C141.853 114.499 141.676 114.433 141.443 114.396L139.973 114.13C139.394 114.027 138.946 113.817 138.629 113.5C138.321 113.173 138.167 112.758 138.167 112.254C138.167 111.787 138.297 111.386 138.559 111.05C138.82 110.705 139.179 110.443 139.637 110.266C140.103 110.079 140.631 109.986 141.219 109.986C141.639 109.986 142.026 110.023 142.381 110.098C142.735 110.173 143.076 110.294 143.403 110.462C143.571 110.546 143.687 110.658 143.753 110.798C143.827 110.938 143.851 111.083 143.823 111.232C143.804 111.381 143.748 111.517 143.655 111.638C143.561 111.759 143.44 111.839 143.291 111.876C143.151 111.913 142.987 111.895 142.801 111.82C142.502 111.68 142.227 111.582 141.975 111.526C141.723 111.461 141.48 111.428 141.247 111.428C140.827 111.428 140.523 111.498 140.337 111.638C140.15 111.769 140.057 111.937 140.057 112.142C140.057 112.301 140.108 112.436 140.211 112.548C140.323 112.651 140.491 112.721 140.715 112.758L142.185 113.024C142.791 113.127 143.253 113.332 143.571 113.64C143.888 113.939 144.047 114.349 144.047 114.872C144.047 115.581 143.767 116.141 143.207 116.552C142.656 116.953 141.919 117.154 140.995 117.154ZM146.849 117.126C146.504 117.126 146.238 117.033 146.051 116.846C145.874 116.659 145.785 116.393 145.785 116.048V111.708H145.281C145.02 111.708 144.815 111.638 144.665 111.498C144.525 111.358 144.455 111.167 144.455 110.924C144.455 110.663 144.525 110.467 144.665 110.336C144.815 110.196 145.02 110.126 145.281 110.126H146.401L145.785 110.686V110.252C145.785 109.253 146.033 108.507 146.527 108.012C147.031 107.517 147.769 107.219 148.739 107.116L149.187 107.074C149.43 107.055 149.621 107.093 149.761 107.186C149.911 107.279 150.009 107.401 150.055 107.55C150.102 107.699 150.111 107.853 150.083 108.012C150.055 108.161 149.99 108.297 149.887 108.418C149.794 108.53 149.663 108.591 149.495 108.6L149.299 108.614C148.795 108.651 148.436 108.773 148.221 108.978C148.007 109.174 147.899 109.477 147.899 109.888V110.364L147.633 110.126H148.893C149.164 110.126 149.369 110.196 149.509 110.336C149.649 110.467 149.719 110.663 149.719 110.924C149.719 111.167 149.649 111.358 149.509 111.498C149.369 111.638 149.164 111.708 148.893 111.708H147.899V116.048C147.899 116.767 147.549 117.126 146.849 117.126ZM153.133 117.154C152.554 117.154 152.074 117.047 151.691 116.832C151.308 116.617 151.024 116.295 150.837 115.866C150.66 115.427 150.571 114.886 150.571 114.242V111.078C150.571 110.723 150.66 110.457 150.837 110.28C151.024 110.103 151.285 110.014 151.621 110.014C151.957 110.014 152.218 110.103 152.405 110.28C152.592 110.457 152.685 110.723 152.685 111.078V114.298C152.685 114.709 152.769 115.017 152.937 115.222C153.105 115.418 153.371 115.516 153.735 115.516C154.136 115.516 154.463 115.376 154.715 115.096C154.976 114.807 155.107 114.429 155.107 113.962V111.078C155.107 110.723 155.196 110.457 155.373 110.28C155.56 110.103 155.821 110.014 156.157 110.014C156.502 110.014 156.764 110.103 156.941 110.28C157.128 110.457 157.221 110.723 157.221 111.078V116.048C157.221 116.767 156.88 117.126 156.199 117.126C155.863 117.126 155.606 117.033 155.429 116.846C155.252 116.659 155.163 116.393 155.163 116.048V115.11L155.373 115.656C155.168 116.132 154.874 116.501 154.491 116.762C154.108 117.023 153.656 117.154 153.133 117.154ZM161.335 117.154C160.504 117.154 159.884 116.925 159.473 116.468C159.062 116.001 158.857 115.311 158.857 114.396V108.082C158.857 107.727 158.946 107.461 159.123 107.284C159.31 107.097 159.576 107.004 159.921 107.004C160.257 107.004 160.514 107.097 160.691 107.284C160.878 107.461 160.971 107.727 160.971 108.082V114.312C160.971 114.695 161.05 114.979 161.209 115.166C161.377 115.343 161.596 115.432 161.867 115.432C161.942 115.432 162.012 115.427 162.077 115.418C162.142 115.409 162.212 115.404 162.287 115.404C162.436 115.385 162.539 115.432 162.595 115.544C162.66 115.647 162.693 115.857 162.693 116.174C162.693 116.454 162.637 116.669 162.525 116.818C162.413 116.958 162.24 117.051 162.007 117.098C161.914 117.107 161.806 117.117 161.685 117.126C161.564 117.145 161.447 117.154 161.335 117.154Z" fill="#EB0A11"/>
<path d="M80.404 135.108C79.836 135.108 79.336 135.036 78.904 134.892C78.472 134.74 78.108 134.516 77.812 134.22C77.524 133.924 77.304 133.556 77.152 133.116C77 132.676 76.924 132.168 76.924 131.592V127.08C76.924 126.872 76.976 126.716 77.08 126.612C77.192 126.508 77.348 126.456 77.548 126.456C77.748 126.456 77.9 126.508 78.004 126.612C78.116 126.716 78.172 126.872 78.172 127.08V131.568C78.172 132.392 78.36 133.008 78.736 133.416C79.12 133.824 79.676 134.028 80.404 134.028C81.14 134.028 81.696 133.824 82.072 133.416C82.448 133.008 82.636 132.392 82.636 131.568V127.08C82.636 126.872 82.688 126.716 82.792 126.612C82.904 126.508 83.056 126.456 83.248 126.456C83.448 126.456 83.6 126.508 83.704 126.612C83.808 126.716 83.86 126.872 83.86 127.08V131.592C83.86 132.36 83.728 133.008 83.464 133.536C83.208 134.056 82.824 134.448 82.312 134.712C81.8 134.976 81.164 135.108 80.404 135.108ZM86.2528 137.244C86.0608 137.244 85.9128 137.192 85.8088 137.088C85.7048 136.984 85.6528 136.832 85.6528 136.632V129.672C85.6528 129.472 85.7048 129.32 85.8088 129.216C85.9128 129.112 86.0568 129.06 86.2408 129.06C86.4328 129.06 86.5808 129.112 86.6848 129.216C86.7888 129.32 86.8408 129.472 86.8408 129.672V130.716L86.7088 130.464C86.8368 130.032 87.0888 129.688 87.4648 129.432C87.8408 129.168 88.2848 129.036 88.7968 129.036C89.3168 129.036 89.7688 129.16 90.1528 129.408C90.5448 129.656 90.8448 130.004 91.0528 130.452C91.2688 130.9 91.3768 131.44 91.3768 132.072C91.3768 132.688 91.2688 133.228 91.0528 133.692C90.8448 134.148 90.5488 134.5 90.1648 134.748C89.7808 134.988 89.3248 135.108 88.7968 135.108C88.2928 135.108 87.8528 134.98 87.4768 134.724C87.1008 134.468 86.8488 134.128 86.7208 133.704H86.8648V136.632C86.8648 136.832 86.8088 136.984 86.6968 137.088C86.5928 137.192 86.4448 137.244 86.2528 137.244ZM88.4968 134.172C88.8328 134.172 89.1248 134.092 89.3728 133.932C89.6208 133.772 89.8128 133.536 89.9488 133.224C90.0848 132.912 90.1528 132.528 90.1528 132.072C90.1528 131.384 90.0008 130.864 89.6968 130.512C89.4008 130.16 89.0008 129.984 88.4968 129.984C88.1688 129.984 87.8768 130.064 87.6208 130.224C87.3728 130.376 87.1808 130.608 87.0448 130.92C86.9088 131.232 86.8408 131.616 86.8408 132.072C86.8408 132.752 86.9928 133.272 87.2968 133.632C87.6008 133.992 88.0008 134.172 88.4968 134.172ZM94.6266 135.108C94.0026 135.108 93.5306 134.928 93.2106 134.568C92.8986 134.2 92.7426 133.672 92.7426 132.984V127.068C92.7426 126.868 92.7946 126.716 92.8986 126.612C93.0026 126.508 93.1506 126.456 93.3426 126.456C93.5346 126.456 93.6826 126.508 93.7866 126.612C93.8986 126.716 93.9546 126.868 93.9546 127.068V132.912C93.9546 133.312 94.0346 133.612 94.1946 133.812C94.3626 134.004 94.6026 134.1 94.9146 134.1C94.9866 134.1 95.0506 134.1 95.1066 134.1C95.1626 134.092 95.2186 134.084 95.2746 134.076C95.3706 134.068 95.4386 134.096 95.4786 134.16C95.5186 134.216 95.5386 134.336 95.5386 134.52C95.5386 134.688 95.5026 134.82 95.4306 134.916C95.3586 135.004 95.2426 135.06 95.0826 135.084C95.0106 135.092 94.9346 135.096 94.8546 135.096C94.7746 135.104 94.6986 135.108 94.6266 135.108ZM98.896 135.108C98.304 135.108 97.792 134.984 97.36 134.736C96.936 134.488 96.604 134.136 96.364 133.68C96.124 133.224 96.004 132.688 96.004 132.072C96.004 131.6 96.072 131.18 96.208 130.812C96.344 130.444 96.536 130.128 96.784 129.864C97.04 129.592 97.344 129.388 97.696 129.252C98.056 129.108 98.456 129.036 98.896 129.036C99.48 129.036 99.984 129.16 100.408 129.408C100.84 129.656 101.176 130.008 101.416 130.464C101.656 130.912 101.776 131.448 101.776 132.072C101.776 132.536 101.708 132.956 101.572 133.332C101.436 133.708 101.24 134.028 100.984 134.292C100.736 134.556 100.432 134.76 100.072 134.904C99.72 135.04 99.328 135.108 98.896 135.108ZM98.896 134.172C99.224 134.172 99.512 134.092 99.76 133.932C100.008 133.772 100.2 133.536 100.336 133.224C100.48 132.912 100.552 132.528 100.552 132.072C100.552 131.384 100.4 130.864 100.096 130.512C99.792 130.16 99.392 129.984 98.896 129.984C98.56 129.984 98.268 130.064 98.02 130.224C97.772 130.376 97.576 130.608 97.432 130.92C97.296 131.232 97.228 131.616 97.228 132.072C97.228 132.752 97.38 133.272 97.684 133.632C97.988 133.992 98.392 134.172 98.896 134.172ZM105.009 135.108C104.601 135.108 104.233 135.028 103.905 134.868C103.585 134.708 103.333 134.492 103.149 134.22C102.965 133.948 102.873 133.64 102.873 133.296C102.873 132.864 102.981 132.524 103.197 132.276C103.421 132.02 103.785 131.84 104.289 131.736C104.801 131.624 105.489 131.568 106.353 131.568H106.917V132.312H106.365C105.789 132.312 105.333 132.34 104.997 132.396C104.661 132.452 104.421 132.548 104.277 132.684C104.141 132.812 104.073 132.992 104.073 133.224C104.073 133.528 104.177 133.776 104.385 133.968C104.593 134.152 104.881 134.244 105.249 134.244C105.545 134.244 105.805 134.176 106.029 134.04C106.253 133.896 106.429 133.704 106.557 133.464C106.693 133.224 106.761 132.948 106.761 132.636V131.256C106.761 130.8 106.665 130.472 106.473 130.272C106.281 130.072 105.965 129.972 105.525 129.972C105.269 129.972 105.001 130.004 104.721 130.068C104.449 130.132 104.165 130.24 103.869 130.392C103.733 130.456 103.617 130.476 103.521 130.452C103.425 130.428 103.349 130.376 103.293 130.296C103.237 130.208 103.205 130.116 103.197 130.02C103.197 129.916 103.221 129.816 103.269 129.72C103.325 129.624 103.417 129.552 103.545 129.504C103.897 129.336 104.245 129.216 104.589 129.144C104.933 129.072 105.257 129.036 105.561 129.036C106.097 129.036 106.537 129.12 106.881 129.288C107.233 129.456 107.493 129.712 107.661 130.056C107.829 130.4 107.913 130.844 107.913 131.388V134.472C107.913 134.664 107.865 134.816 107.769 134.928C107.673 135.032 107.533 135.084 107.349 135.084C107.173 135.084 107.033 135.032 106.929 134.928C106.825 134.816 106.773 134.664 106.773 134.472V133.692H106.881C106.817 133.988 106.697 134.244 106.521 134.46C106.353 134.668 106.141 134.828 105.885 134.94C105.629 135.052 105.337 135.108 105.009 135.108ZM111.814 135.108C111.302 135.108 110.85 134.988 110.458 134.748C110.074 134.5 109.774 134.148 109.558 133.692C109.342 133.228 109.234 132.688 109.234 132.072C109.234 131.44 109.342 130.9 109.558 130.452C109.774 130.004 110.074 129.656 110.458 129.408C110.85 129.16 111.302 129.036 111.814 129.036C112.326 129.036 112.766 129.164 113.134 129.42C113.51 129.668 113.762 130.004 113.89 130.428H113.758V127.068C113.758 126.868 113.81 126.716 113.914 126.612C114.018 126.508 114.166 126.456 114.358 126.456C114.55 126.456 114.698 126.508 114.802 126.612C114.914 126.716 114.97 126.868 114.97 127.068V134.472C114.97 134.664 114.918 134.816 114.814 134.928C114.71 135.032 114.562 135.084 114.37 135.084C114.178 135.084 114.03 135.032 113.926 134.928C113.822 134.816 113.77 134.664 113.77 134.472V133.416L113.902 133.68C113.774 134.112 113.522 134.46 113.146 134.724C112.778 134.98 112.334 135.108 111.814 135.108ZM112.126 134.172C112.454 134.172 112.742 134.092 112.99 133.932C113.238 133.772 113.43 133.536 113.566 133.224C113.71 132.912 113.782 132.528 113.782 132.072C113.782 131.384 113.63 130.864 113.326 130.512C113.022 130.16 112.622 129.984 112.126 129.984C111.79 129.984 111.498 130.064 111.25 130.224C111.002 130.376 110.806 130.608 110.662 130.92C110.526 131.232 110.458 131.616 110.458 132.072C110.458 132.752 110.61 133.272 110.914 133.632C111.218 133.992 111.622 134.172 112.126 134.172ZM120.628 135.084C120.42 135.084 120.256 135.028 120.136 134.916C120.024 134.804 119.968 134.64 119.968 134.424V127.212C119.968 126.996 120.024 126.832 120.136 126.72C120.256 126.6 120.424 126.54 120.64 126.54H124.912C125.088 126.54 125.216 126.584 125.296 126.672C125.384 126.752 125.428 126.872 125.428 127.032C125.428 127.2 125.384 127.328 125.296 127.416C125.216 127.504 125.088 127.548 124.912 127.548H121.216V130.248H124.672C124.832 130.248 124.956 130.292 125.044 130.38C125.14 130.46 125.188 130.58 125.188 130.74C125.188 130.908 125.14 131.036 125.044 131.124C124.956 131.212 124.832 131.256 124.672 131.256H121.216V134.424C121.216 134.864 121.02 135.084 120.628 135.084ZM128.119 135.108C127.711 135.108 127.343 135.028 127.015 134.868C126.695 134.708 126.443 134.492 126.259 134.22C126.075 133.948 125.983 133.64 125.983 133.296C125.983 132.864 126.091 132.524 126.307 132.276C126.531 132.02 126.895 131.84 127.399 131.736C127.911 131.624 128.599 131.568 129.463 131.568H130.027V132.312H129.475C128.899 132.312 128.443 132.34 128.107 132.396C127.771 132.452 127.531 132.548 127.387 132.684C127.251 132.812 127.183 132.992 127.183 133.224C127.183 133.528 127.287 133.776 127.495 133.968C127.703 134.152 127.991 134.244 128.359 134.244C128.655 134.244 128.915 134.176 129.139 134.04C129.363 133.896 129.539 133.704 129.667 133.464C129.803 133.224 129.871 132.948 129.871 132.636V131.256C129.871 130.8 129.775 130.472 129.583 130.272C129.391 130.072 129.075 129.972 128.635 129.972C128.379 129.972 128.111 130.004 127.831 130.068C127.559 130.132 127.275 130.24 126.979 130.392C126.843 130.456 126.727 130.476 126.631 130.452C126.535 130.428 126.459 130.376 126.403 130.296C126.347 130.208 126.315 130.116 126.307 130.02C126.307 129.916 126.331 129.816 126.379 129.72C126.435 129.624 126.527 129.552 126.655 129.504C127.007 129.336 127.355 129.216 127.699 129.144C128.043 129.072 128.367 129.036 128.671 129.036C129.207 129.036 129.647 129.12 129.991 129.288C130.343 129.456 130.603 129.712 130.771 130.056C130.939 130.4 131.023 130.844 131.023 131.388V134.472C131.023 134.664 130.975 134.816 130.879 134.928C130.783 135.032 130.643 135.084 130.459 135.084C130.283 135.084 130.143 135.032 130.039 134.928C129.935 134.816 129.883 134.664 129.883 134.472V133.692H129.991C129.927 133.988 129.807 134.244 129.631 134.46C129.463 134.668 129.251 134.828 128.995 134.94C128.739 135.052 128.447 135.108 128.119 135.108ZM133.292 135.072C133.1 135.072 132.952 135.016 132.848 134.904C132.744 134.784 132.692 134.62 132.692 134.412V129.732C132.692 129.524 132.744 129.364 132.848 129.252C132.952 129.14 133.1 129.084 133.292 129.084C133.484 129.084 133.632 129.14 133.736 129.252C133.848 129.364 133.904 129.524 133.904 129.732V134.412C133.904 134.62 133.852 134.784 133.748 134.904C133.644 135.016 133.492 135.072 133.292 135.072ZM133.292 127.836C133.052 127.836 132.864 127.776 132.728 127.656C132.6 127.536 132.536 127.368 132.536 127.152C132.536 126.928 132.6 126.76 132.728 126.648C132.864 126.528 133.052 126.468 133.292 126.468C133.532 126.468 133.716 126.528 133.844 126.648C133.98 126.76 134.048 126.928 134.048 127.152C134.048 127.368 133.98 127.536 133.844 127.656C133.716 127.776 133.532 127.836 133.292 127.836ZM137.494 135.108C136.87 135.108 136.398 134.928 136.078 134.568C135.766 134.2 135.61 133.672 135.61 132.984V127.068C135.61 126.868 135.662 126.716 135.766 126.612C135.87 126.508 136.018 126.456 136.21 126.456C136.402 126.456 136.55 126.508 136.654 126.612C136.766 126.716 136.822 126.868 136.822 127.068V132.912C136.822 133.312 136.902 133.612 137.062 133.812C137.23 134.004 137.47 134.1 137.782 134.1C137.854 134.1 137.918 134.1 137.974 134.1C138.03 134.092 138.086 134.084 138.142 134.076C138.238 134.068 138.306 134.096 138.346 134.16C138.386 134.216 138.406 134.336 138.406 134.52C138.406 134.688 138.37 134.82 138.298 134.916C138.226 135.004 138.11 135.06 137.95 135.084C137.878 135.092 137.802 135.096 137.722 135.096C137.642 135.104 137.566 135.108 137.494 135.108ZM141.967 135.108C141.327 135.108 140.775 134.988 140.311 134.748C139.855 134.5 139.499 134.152 139.243 133.704C138.995 133.248 138.871 132.708 138.871 132.084C138.871 131.476 138.995 130.944 139.243 130.488C139.491 130.032 139.831 129.676 140.263 129.42C140.695 129.164 141.187 129.036 141.739 129.036C142.147 129.036 142.511 129.104 142.831 129.24C143.151 129.368 143.423 129.56 143.647 129.816C143.879 130.064 144.051 130.368 144.163 130.728C144.283 131.088 144.343 131.492 144.343 131.94C144.343 132.076 144.303 132.18 144.223 132.252C144.143 132.316 144.023 132.348 143.863 132.348H139.831V131.604H143.527L143.323 131.772C143.323 131.372 143.263 131.032 143.143 130.752C143.031 130.472 142.859 130.26 142.627 130.116C142.403 129.964 142.123 129.888 141.787 129.888C141.411 129.888 141.091 129.976 140.827 130.152C140.571 130.328 140.375 130.572 140.239 130.884C140.103 131.196 140.035 131.56 140.035 131.976V132.048C140.035 132.752 140.199 133.284 140.527 133.644C140.863 133.996 141.347 134.172 141.979 134.172C142.219 134.172 142.471 134.14 142.735 134.076C143.007 134.012 143.263 133.904 143.503 133.752C143.639 133.672 143.759 133.636 143.863 133.644C143.975 133.652 144.063 133.688 144.127 133.752C144.199 133.816 144.243 133.896 144.259 133.992C144.275 134.088 144.259 134.188 144.211 134.292C144.163 134.388 144.079 134.476 143.959 134.556C143.687 134.74 143.371 134.88 143.011 134.976C142.651 135.064 142.303 135.108 141.967 135.108ZM147.896 135.108C147.385 135.108 146.933 134.988 146.541 134.748C146.157 134.5 145.857 134.148 145.641 133.692C145.425 133.228 145.317 132.688 145.317 132.072C145.317 131.44 145.425 130.9 145.641 130.452C145.857 130.004 146.157 129.656 146.541 129.408C146.933 129.16 147.385 129.036 147.896 129.036C148.409 129.036 148.849 129.164 149.217 129.42C149.593 129.668 149.845 130.004 149.973 130.428H149.841V127.068C149.841 126.868 149.893 126.716 149.997 126.612C150.101 126.508 150.249 126.456 150.441 126.456C150.633 126.456 150.781 126.508 150.885 126.612C150.997 126.716 151.053 126.868 151.053 127.068V134.472C151.053 134.664 151.001 134.816 150.897 134.928C150.793 135.032 150.645 135.084 150.453 135.084C150.261 135.084 150.113 135.032 150.009 134.928C149.905 134.816 149.853 134.664 149.853 134.472V133.416L149.985 133.68C149.857 134.112 149.605 134.46 149.229 134.724C148.861 134.98 148.417 135.108 147.896 135.108ZM148.209 134.172C148.537 134.172 148.825 134.092 149.073 133.932C149.321 133.772 149.513 133.536 149.649 133.224C149.793 132.912 149.865 132.528 149.865 132.072C149.865 131.384 149.713 130.864 149.409 130.512C149.105 130.16 148.705 129.984 148.209 129.984C147.873 129.984 147.581 130.064 147.333 130.224C147.085 130.376 146.889 130.608 146.745 130.92C146.609 131.232 146.541 131.616 146.541 132.072C146.541 132.752 146.693 133.272 146.997 133.632C147.301 133.992 147.705 134.172 148.209 134.172ZM153.342 135.048C153.11 135.048 152.922 134.976 152.778 134.832C152.634 134.688 152.562 134.504 152.562 134.28C152.562 134.056 152.634 133.876 152.778 133.74C152.922 133.596 153.11 133.524 153.342 133.524C153.574 133.524 153.758 133.596 153.894 133.74C154.03 133.876 154.098 134.056 154.098 134.28C154.098 134.504 154.03 134.688 153.894 134.832C153.758 134.976 153.574 135.048 153.342 135.048ZM153.342 130.62C153.11 130.62 152.922 130.548 152.778 130.404C152.634 130.26 152.562 130.08 152.562 129.864C152.562 129.632 152.634 129.448 152.778 129.312C152.922 129.168 153.11 129.096 153.342 129.096C153.574 129.096 153.758 129.168 153.894 129.312C154.03 129.448 154.098 129.632 154.098 129.864C154.098 130.08 154.03 130.26 153.894 130.404C153.758 130.548 153.574 130.62 153.342 130.62ZM161.586 135.084C161.386 135.084 161.23 135.028 161.118 134.916C161.014 134.804 160.962 134.648 160.962 134.448V127.584H158.418C158.25 127.584 158.118 127.54 158.022 127.452C157.926 127.356 157.878 127.224 157.878 127.056C157.878 126.888 157.926 126.76 158.022 126.672C158.118 126.584 158.25 126.54 158.418 126.54H164.742C164.918 126.54 165.054 126.584 165.15 126.672C165.246 126.76 165.294 126.888 165.294 127.056C165.294 127.224 165.246 127.356 165.15 127.452C165.054 127.54 164.918 127.584 164.742 127.584H162.198V134.448C162.198 134.648 162.146 134.804 162.042 134.916C161.946 135.028 161.794 135.084 161.586 135.084ZM167.171 135.084C166.979 135.084 166.831 135.032 166.727 134.928C166.623 134.816 166.571 134.664 166.571 134.472V127.068C166.571 126.868 166.623 126.716 166.727 126.612C166.831 126.508 166.979 126.456 167.171 126.456C167.363 126.456 167.511 126.508 167.615 126.612C167.727 126.716 167.783 126.868 167.783 127.068V130.392H167.615C167.791 129.944 168.067 129.608 168.443 129.384C168.819 129.152 169.251 129.036 169.739 129.036C170.203 129.036 170.587 129.124 170.891 129.3C171.203 129.468 171.435 129.728 171.587 130.08C171.739 130.424 171.815 130.86 171.815 131.388V134.472C171.815 134.664 171.763 134.816 171.659 134.928C171.555 135.032 171.407 135.084 171.215 135.084C171.015 135.084 170.863 135.032 170.759 134.928C170.655 134.816 170.603 134.664 170.603 134.472V131.46C170.603 130.956 170.503 130.588 170.303 130.356C170.111 130.124 169.807 130.008 169.391 130.008C168.903 130.008 168.511 130.16 168.215 130.464C167.927 130.768 167.783 131.176 167.783 131.688V134.472C167.783 134.88 167.579 135.084 167.171 135.084ZM176.233 135.108C175.593 135.108 175.041 134.988 174.577 134.748C174.121 134.5 173.765 134.152 173.509 133.704C173.261 133.248 173.137 132.708 173.137 132.084C173.137 131.476 173.261 130.944 173.509 130.488C173.757 130.032 174.097 129.676 174.529 129.42C174.961 129.164 175.453 129.036 176.005 129.036C176.413 129.036 176.777 129.104 177.097 129.24C177.417 129.368 177.689 129.56 177.913 129.816C178.145 130.064 178.317 130.368 178.429 130.728C178.549 131.088 178.609 131.492 178.609 131.94C178.609 132.076 178.569 132.18 178.489 132.252C178.409 132.316 178.289 132.348 178.129 132.348H174.097V131.604H177.793L177.589 131.772C177.589 131.372 177.529 131.032 177.409 130.752C177.297 130.472 177.125 130.26 176.893 130.116C176.669 129.964 176.389 129.888 176.053 129.888C175.677 129.888 175.357 129.976 175.093 130.152C174.837 130.328 174.641 130.572 174.505 130.884C174.369 131.196 174.301 131.56 174.301 131.976V132.048C174.301 132.752 174.465 133.284 174.793 133.644C175.129 133.996 175.613 134.172 176.245 134.172C176.485 134.172 176.737 134.14 177.001 134.076C177.273 134.012 177.529 133.904 177.769 133.752C177.905 133.672 178.025 133.636 178.129 133.644C178.241 133.652 178.329 133.688 178.393 133.752C178.465 133.816 178.509 133.896 178.525 133.992C178.541 134.088 178.525 134.188 178.477 134.292C178.429 134.388 178.345 134.476 178.225 134.556C177.953 134.74 177.637 134.88 177.277 134.976C176.917 135.064 176.569 135.108 176.233 135.108ZM184.054 135.084C183.862 135.084 183.71 135.032 183.598 134.928C183.494 134.816 183.442 134.664 183.442 134.472V130.08H182.77C182.618 130.08 182.498 130.04 182.41 129.96C182.322 129.872 182.278 129.756 182.278 129.612C182.278 129.46 182.322 129.344 182.41 129.264C182.498 129.184 182.618 129.144 182.77 129.144H183.79L183.442 129.468V129.036C183.442 128.26 183.634 127.668 184.018 127.26C184.402 126.852 184.966 126.612 185.71 126.54L186.07 126.516C186.214 126.5 186.33 126.52 186.418 126.576C186.506 126.624 186.566 126.696 186.598 126.792C186.63 126.88 186.634 126.972 186.61 127.068C186.586 127.164 186.542 127.248 186.478 127.32C186.422 127.384 186.35 127.42 186.262 127.428L185.938 127.452C185.49 127.484 185.162 127.616 184.954 127.848C184.754 128.08 184.654 128.42 184.654 128.868V129.336L184.486 129.144H187.774C187.974 129.144 188.126 129.204 188.23 129.324C188.334 129.436 188.386 129.592 188.386 129.792V134.412C188.386 134.62 188.334 134.784 188.23 134.904C188.134 135.016 187.982 135.072 187.774 135.072C187.582 135.072 187.434 135.016 187.33 134.904C187.226 134.784 187.174 134.62 187.174 134.412V130.08H184.654V134.472C184.654 134.88 184.454 135.084 184.054 135.084ZM187.798 127.836C187.566 127.836 187.386 127.776 187.258 127.656C187.13 127.536 187.066 127.368 187.066 127.152C187.066 126.928 187.13 126.76 187.258 126.648C187.386 126.528 187.566 126.468 187.798 126.468C188.038 126.468 188.218 126.528 188.338 126.648C188.466 126.76 188.53 126.928 188.53 127.152C188.53 127.368 188.466 127.536 188.338 127.656C188.218 127.776 188.038 127.836 187.798 127.836ZM191.963 135.108C191.339 135.108 190.867 134.928 190.547 134.568C190.235 134.2 190.079 133.672 190.079 132.984V127.068C190.079 126.868 190.131 126.716 190.235 126.612C190.339 126.508 190.487 126.456 190.679 126.456C190.871 126.456 191.019 126.508 191.123 126.612C191.235 126.716 191.291 126.868 191.291 127.068V132.912C191.291 133.312 191.371 133.612 191.531 133.812C191.699 134.004 191.939 134.1 192.251 134.1C192.323 134.1 192.387 134.1 192.443 134.1C192.499 134.092 192.555 134.084 192.611 134.076C192.707 134.068 192.775 134.096 192.815 134.16C192.855 134.216 192.875 134.336 192.875 134.52C192.875 134.688 192.839 134.82 192.767 134.916C192.695 135.004 192.579 135.06 192.419 135.084C192.347 135.092 192.271 135.096 192.191 135.096C192.111 135.104 192.035 135.108 191.963 135.108ZM196.436 135.108C195.796 135.108 195.244 134.988 194.78 134.748C194.324 134.5 193.968 134.152 193.712 133.704C193.464 133.248 193.34 132.708 193.34 132.084C193.34 131.476 193.464 130.944 193.712 130.488C193.96 130.032 194.3 129.676 194.732 129.42C195.164 129.164 195.656 129.036 196.208 129.036C196.616 129.036 196.98 129.104 197.3 129.24C197.62 129.368 197.892 129.56 198.116 129.816C198.348 130.064 198.52 130.368 198.632 130.728C198.752 131.088 198.812 131.492 198.812 131.94C198.812 132.076 198.772 132.18 198.692 132.252C198.612 132.316 198.492 132.348 198.332 132.348H194.3V131.604H197.996L197.792 131.772C197.792 131.372 197.732 131.032 197.612 130.752C197.5 130.472 197.328 130.26 197.096 130.116C196.872 129.964 196.592 129.888 196.256 129.888C195.88 129.888 195.56 129.976 195.296 130.152C195.04 130.328 194.844 130.572 194.708 130.884C194.572 131.196 194.504 131.56 194.504 131.976V132.048C194.504 132.752 194.668 133.284 194.996 133.644C195.332 133.996 195.816 134.172 196.448 134.172C196.688 134.172 196.94 134.14 197.204 134.076C197.476 134.012 197.732 133.904 197.972 133.752C198.108 133.672 198.228 133.636 198.332 133.644C198.444 133.652 198.532 133.688 198.596 133.752C198.668 133.816 198.712 133.896 198.728 133.992C198.744 134.088 198.728 134.188 198.68 134.292C198.632 134.388 198.548 134.476 198.428 134.556C198.156 134.74 197.84 134.88 197.48 134.976C197.12 135.064 196.772 135.108 196.436 135.108ZM205.877 135.108C205.277 135.108 204.757 134.984 204.317 134.736C203.885 134.48 203.549 134.124 203.309 133.668C203.069 133.204 202.949 132.66 202.949 132.036C202.949 131.572 203.017 131.156 203.153 130.788C203.289 130.412 203.481 130.096 203.729 129.84C203.985 129.584 204.293 129.388 204.653 129.252C205.021 129.108 205.429 129.036 205.877 129.036C206.157 129.036 206.449 129.08 206.753 129.168C207.065 129.248 207.353 129.384 207.617 129.576C207.721 129.64 207.785 129.72 207.809 129.816C207.841 129.904 207.845 129.996 207.821 130.092C207.805 130.188 207.761 130.272 207.689 130.344C207.625 130.408 207.545 130.448 207.449 130.464C207.353 130.472 207.249 130.444 207.137 130.38C206.945 130.244 206.749 130.148 206.549 130.092C206.349 130.028 206.157 129.996 205.973 129.996C205.685 129.996 205.429 130.044 205.205 130.14C204.989 130.228 204.805 130.36 204.653 130.536C204.501 130.704 204.385 130.916 204.305 131.172C204.233 131.428 204.197 131.72 204.197 132.048C204.197 132.704 204.349 133.22 204.653 133.596C204.965 133.964 205.405 134.148 205.973 134.148C206.157 134.148 206.349 134.12 206.549 134.064C206.749 134.008 206.945 133.912 207.137 133.776C207.249 133.712 207.353 133.688 207.449 133.704C207.545 133.72 207.621 133.764 207.677 133.836C207.741 133.9 207.781 133.98 207.797 134.076C207.821 134.164 207.817 134.256 207.785 134.352C207.753 134.448 207.685 134.528 207.581 134.592C207.325 134.776 207.045 134.908 206.741 134.988C206.445 135.068 206.157 135.108 205.877 135.108ZM211.326 135.108C210.734 135.108 210.222 134.984 209.79 134.736C209.366 134.488 209.034 134.136 208.794 133.68C208.554 133.224 208.434 132.688 208.434 132.072C208.434 131.6 208.502 131.18 208.638 130.812C208.774 130.444 208.966 130.128 209.214 129.864C209.47 129.592 209.774 129.388 210.126 129.252C210.486 129.108 210.886 129.036 211.326 129.036C211.91 129.036 212.414 129.16 212.838 129.408C213.27 129.656 213.606 130.008 213.846 130.464C214.086 130.912 214.206 131.448 214.206 132.072C214.206 132.536 214.138 132.956 214.002 133.332C213.866 133.708 213.67 134.028 213.414 134.292C213.166 134.556 212.862 134.76 212.502 134.904C212.15 135.04 211.758 135.108 211.326 135.108ZM211.326 134.172C211.654 134.172 211.942 134.092 212.19 133.932C212.438 133.772 212.63 133.536 212.766 133.224C212.91 132.912 212.982 132.528 212.982 132.072C212.982 131.384 212.83 130.864 212.526 130.512C212.222 130.16 211.822 129.984 211.326 129.984C210.99 129.984 210.698 130.064 210.45 130.224C210.202 130.376 210.006 130.608 209.862 130.92C209.726 131.232 209.658 131.616 209.658 132.072C209.658 132.752 209.81 133.272 210.114 133.632C210.418 133.992 210.822 134.172 211.326 134.172ZM217.655 135.108C217.183 135.108 216.787 135.02 216.467 134.844C216.155 134.668 215.919 134.408 215.759 134.064C215.607 133.712 215.531 133.272 215.531 132.744V129.672C215.531 129.464 215.583 129.312 215.687 129.216C215.791 129.112 215.939 129.06 216.131 129.06C216.323 129.06 216.471 129.112 216.575 129.216C216.687 129.312 216.743 129.464 216.743 129.672V132.756C216.743 133.228 216.839 133.576 217.031 133.8C217.223 134.024 217.527 134.136 217.943 134.136C218.399 134.136 218.767 133.984 219.047 133.68C219.335 133.368 219.479 132.96 219.479 132.456V129.672C219.479 129.464 219.531 129.312 219.635 129.216C219.739 129.112 219.891 129.06 220.091 129.06C220.283 129.06 220.431 129.112 220.535 129.216C220.639 129.312 220.691 129.464 220.691 129.672V134.472C220.691 134.88 220.495 135.084 220.103 135.084C219.919 135.084 219.775 135.032 219.671 134.928C219.567 134.816 219.515 134.664 219.515 134.472V133.452L219.671 133.716C219.511 134.164 219.255 134.508 218.903 134.748C218.551 134.988 218.135 135.108 217.655 135.108ZM224.283 135.108C223.659 135.108 223.187 134.928 222.867 134.568C222.555 134.2 222.399 133.672 222.399 132.984V127.068C222.399 126.868 222.451 126.716 222.555 126.612C222.659 126.508 222.807 126.456 222.999 126.456C223.191 126.456 223.339 126.508 223.443 126.612C223.555 126.716 223.611 126.868 223.611 127.068V132.912C223.611 133.312 223.691 133.612 223.851 133.812C224.019 134.004 224.259 134.1 224.571 134.1C224.643 134.1 224.707 134.1 224.763 134.1C224.819 134.092 224.875 134.084 224.931 134.076C225.027 134.068 225.095 134.096 225.135 134.16C225.175 134.216 225.195 134.336 225.195 134.52C225.195 134.688 225.159 134.82 225.087 134.916C225.015 135.004 224.899 135.06 224.739 135.084C224.667 135.092 224.591 135.096 224.511 135.096C224.431 135.104 224.355 135.108 224.283 135.108ZM228.24 135.108C227.728 135.108 227.276 134.988 226.884 134.748C226.5 134.5 226.2 134.148 225.984 133.692C225.768 133.228 225.66 132.688 225.66 132.072C225.66 131.44 225.768 130.9 225.984 130.452C226.2 130.004 226.5 129.656 226.884 129.408C227.276 129.16 227.728 129.036 228.24 129.036C228.752 129.036 229.192 129.164 229.56 129.42C229.936 129.668 230.188 130.004 230.316 130.428H230.184V127.068C230.184 126.868 230.236 126.716 230.34 126.612C230.444 126.508 230.592 126.456 230.784 126.456C230.976 126.456 231.124 126.508 231.228 126.612C231.34 126.716 231.396 126.868 231.396 127.068V134.472C231.396 134.664 231.344 134.816 231.24 134.928C231.136 135.032 230.988 135.084 230.796 135.084C230.604 135.084 230.456 135.032 230.352 134.928C230.248 134.816 230.196 134.664 230.196 134.472V133.416L230.328 133.68C230.2 134.112 229.948 134.46 229.572 134.724C229.204 134.98 228.76 135.108 228.24 135.108ZM228.552 134.172C228.88 134.172 229.168 134.092 229.416 133.932C229.664 133.772 229.856 133.536 229.992 133.224C230.136 132.912 230.208 132.528 230.208 132.072C230.208 131.384 230.056 130.864 229.752 130.512C229.448 130.16 229.048 129.984 228.552 129.984C228.216 129.984 227.924 130.064 227.676 130.224C227.428 130.376 227.232 130.608 227.088 130.92C226.952 131.232 226.884 131.616 226.884 132.072C226.884 132.752 227.036 133.272 227.34 133.632C227.644 133.992 228.048 134.172 228.552 134.172ZM236.862 135.084C236.67 135.084 236.522 135.032 236.418 134.928C236.314 134.816 236.262 134.664 236.262 134.472V129.672C236.262 129.472 236.314 129.32 236.418 129.216C236.522 129.112 236.666 129.06 236.85 129.06C237.042 129.06 237.186 129.112 237.282 129.216C237.386 129.32 237.438 129.472 237.438 129.672V130.608L237.306 130.392C237.482 129.944 237.758 129.608 238.134 129.384C238.51 129.152 238.942 129.036 239.43 129.036C239.894 129.036 240.278 129.124 240.582 129.3C240.894 129.468 241.126 129.728 241.278 130.08C241.43 130.424 241.506 130.86 241.506 131.388V134.472C241.506 134.664 241.454 134.816 241.35 134.928C241.246 135.032 241.098 135.084 240.906 135.084C240.706 135.084 240.554 135.032 240.45 134.928C240.346 134.816 240.294 134.664 240.294 134.472V131.46C240.294 130.956 240.194 130.588 239.994 130.356C239.802 130.124 239.498 130.008 239.082 130.008C238.594 130.008 238.202 130.16 237.906 130.464C237.618 130.768 237.474 131.176 237.474 131.688V134.472C237.474 134.88 237.27 135.084 236.862 135.084ZM245.72 135.108C245.128 135.108 244.616 134.984 244.184 134.736C243.76 134.488 243.428 134.136 243.188 133.68C242.948 133.224 242.828 132.688 242.828 132.072C242.828 131.6 242.896 131.18 243.032 130.812C243.168 130.444 243.36 130.128 243.608 129.864C243.864 129.592 244.168 129.388 244.52 129.252C244.88 129.108 245.28 129.036 245.72 129.036C246.304 129.036 246.808 129.16 247.232 129.408C247.664 129.656 248 130.008 248.24 130.464C248.48 130.912 248.6 131.448 248.6 132.072C248.6 132.536 248.532 132.956 248.396 133.332C248.26 133.708 248.064 134.028 247.808 134.292C247.56 134.556 247.256 134.76 246.896 134.904C246.544 135.04 246.152 135.108 245.72 135.108ZM245.72 134.172C246.048 134.172 246.336 134.092 246.584 133.932C246.832 133.772 247.024 133.536 247.16 133.224C247.304 132.912 247.376 132.528 247.376 132.072C247.376 131.384 247.224 130.864 246.92 130.512C246.616 130.16 246.216 129.984 245.72 129.984C245.384 129.984 245.092 130.064 244.844 130.224C244.596 130.376 244.4 130.608 244.256 130.92C244.12 131.232 244.052 131.616 244.052 132.072C244.052 132.752 244.204 133.272 244.508 133.632C244.812 133.992 245.216 134.172 245.72 134.172ZM252.399 135.108C251.919 135.108 251.515 135.024 251.187 134.856C250.859 134.688 250.615 134.44 250.455 134.112C250.295 133.784 250.215 133.384 250.215 132.912V130.08H249.495C249.335 130.08 249.211 130.04 249.123 129.96C249.035 129.872 248.991 129.756 248.991 129.612C248.991 129.46 249.035 129.344 249.123 129.264C249.211 129.184 249.335 129.144 249.495 129.144H250.215V127.908C250.215 127.708 250.267 127.556 250.371 127.452C250.483 127.348 250.635 127.296 250.827 127.296C251.019 127.296 251.167 127.348 251.271 127.452C251.375 127.556 251.427 127.708 251.427 127.908V129.144H252.831C252.991 129.144 253.115 129.184 253.203 129.264C253.291 129.344 253.335 129.46 253.335 129.612C253.335 129.756 253.291 129.872 253.203 129.96C253.115 130.04 252.991 130.08 252.831 130.08H251.427V132.816C251.427 133.24 251.515 133.56 251.691 133.776C251.875 133.992 252.171 134.1 252.579 134.1C252.723 134.1 252.847 134.088 252.951 134.064C253.063 134.032 253.155 134.012 253.227 134.004C253.315 134.004 253.387 134.036 253.443 134.1C253.499 134.156 253.527 134.268 253.527 134.436C253.527 134.556 253.503 134.668 253.455 134.772C253.415 134.876 253.339 134.944 253.227 134.976C253.131 135.008 252.999 135.036 252.831 135.06C252.671 135.092 252.527 135.108 252.399 135.108ZM260.594 135.108C260.082 135.108 259.638 134.98 259.262 134.724C258.886 134.46 258.634 134.112 258.506 133.68L258.638 133.464V134.472C258.638 134.664 258.586 134.816 258.482 134.928C258.378 135.032 258.234 135.084 258.05 135.084C257.858 135.084 257.71 135.032 257.606 134.928C257.502 134.816 257.45 134.664 257.45 134.472V127.068C257.45 126.868 257.502 126.716 257.606 126.612C257.71 126.508 257.858 126.456 258.05 126.456C258.242 126.456 258.39 126.508 258.494 126.612C258.606 126.716 258.662 126.868 258.662 127.068V130.428H258.518C258.646 130.004 258.898 129.668 259.274 129.42C259.65 129.164 260.09 129.036 260.594 129.036C261.122 129.036 261.578 129.16 261.962 129.408C262.346 129.656 262.642 130.004 262.85 130.452C263.066 130.9 263.174 131.44 263.174 132.072C263.174 132.688 263.066 133.228 262.85 133.692C262.642 134.148 262.342 134.5 261.95 134.748C261.566 134.988 261.114 135.108 260.594 135.108ZM260.294 134.172C260.63 134.172 260.922 134.092 261.17 133.932C261.418 133.772 261.61 133.536 261.746 133.224C261.882 132.912 261.95 132.528 261.95 132.072C261.95 131.384 261.798 130.864 261.494 130.512C261.198 130.16 260.798 129.984 260.294 129.984C259.966 129.984 259.674 130.064 259.418 130.224C259.17 130.376 258.978 130.608 258.842 130.92C258.706 131.232 258.638 131.616 258.638 132.072C258.638 132.752 258.79 133.272 259.094 133.632C259.398 133.992 259.798 134.172 260.294 134.172ZM267.288 135.108C266.648 135.108 266.096 134.988 265.632 134.748C265.176 134.5 264.82 134.152 264.564 133.704C264.316 133.248 264.192 132.708 264.192 132.084C264.192 131.476 264.316 130.944 264.564 130.488C264.812 130.032 265.152 129.676 265.584 129.42C266.016 129.164 266.508 129.036 267.06 129.036C267.468 129.036 267.832 129.104 268.152 129.24C268.472 129.368 268.744 129.56 268.968 129.816C269.2 130.064 269.372 130.368 269.484 130.728C269.604 131.088 269.664 131.492 269.664 131.94C269.664 132.076 269.624 132.18 269.544 132.252C269.464 132.316 269.344 132.348 269.184 132.348H265.152V131.604H268.848L268.644 131.772C268.644 131.372 268.584 131.032 268.464 130.752C268.352 130.472 268.18 130.26 267.948 130.116C267.724 129.964 267.444 129.888 267.108 129.888C266.732 129.888 266.412 129.976 266.148 130.152C265.892 130.328 265.696 130.572 265.56 130.884C265.424 131.196 265.356 131.56 265.356 131.976V132.048C265.356 132.752 265.52 133.284 265.848 133.644C266.184 133.996 266.668 134.172 267.3 134.172C267.54 134.172 267.792 134.14 268.056 134.076C268.328 134.012 268.584 133.904 268.824 133.752C268.96 133.672 269.08 133.636 269.184 133.644C269.296 133.652 269.384 133.688 269.448 133.752C269.52 133.816 269.564 133.896 269.58 133.992C269.596 134.088 269.58 134.188 269.532 134.292C269.484 134.388 269.4 134.476 269.28 134.556C269.008 134.74 268.692 134.88 268.332 134.976C267.972 135.064 267.624 135.108 267.288 135.108ZM276.237 135.108C275.765 135.108 275.369 135.02 275.049 134.844C274.737 134.668 274.501 134.408 274.341 134.064C274.189 133.712 274.113 133.272 274.113 132.744V129.672C274.113 129.464 274.165 129.312 274.269 129.216C274.373 129.112 274.521 129.06 274.713 129.06C274.905 129.06 275.053 129.112 275.157 129.216C275.269 129.312 275.325 129.464 275.325 129.672V132.756C275.325 133.228 275.421 133.576 275.613 133.8C275.805 134.024 276.109 134.136 276.525 134.136C276.981 134.136 277.349 133.984 277.629 133.68C277.917 133.368 278.061 132.96 278.061 132.456V129.672C278.061 129.464 278.113 129.312 278.217 129.216C278.321 129.112 278.473 129.06 278.673 129.06C278.865 129.06 279.013 129.112 279.117 129.216C279.221 129.312 279.273 129.464 279.273 129.672V134.472C279.273 134.88 279.077 135.084 278.685 135.084C278.501 135.084 278.357 135.032 278.253 134.928C278.149 134.816 278.097 134.664 278.097 134.472V133.452L278.253 133.716C278.093 134.164 277.837 134.508 277.485 134.748C277.133 134.988 276.717 135.108 276.237 135.108ZM281.581 137.244C281.389 137.244 281.241 137.192 281.137 137.088C281.033 136.984 280.981 136.832 280.981 136.632V129.672C280.981 129.472 281.033 129.32 281.137 129.216C281.241 129.112 281.385 129.06 281.569 129.06C281.761 129.06 281.909 129.112 282.013 129.216C282.117 129.32 282.169 129.472 282.169 129.672V130.716L282.037 130.464C282.165 130.032 282.417 129.688 282.793 129.432C283.169 129.168 283.613 129.036 284.125 129.036C284.645 129.036 285.097 129.16 285.481 129.408C285.873 129.656 286.173 130.004 286.381 130.452C286.597 130.9 286.705 131.44 286.705 132.072C286.705 132.688 286.597 133.228 286.381 133.692C286.173 134.148 285.877 134.5 285.493 134.748C285.109 134.988 284.653 135.108 284.125 135.108C283.621 135.108 283.181 134.98 282.805 134.724C282.429 134.468 282.177 134.128 282.049 133.704H282.193V136.632C282.193 136.832 282.137 136.984 282.025 137.088C281.921 137.192 281.773 137.244 281.581 137.244ZM283.825 134.172C284.161 134.172 284.453 134.092 284.701 133.932C284.949 133.772 285.141 133.536 285.277 133.224C285.413 132.912 285.481 132.528 285.481 132.072C285.481 131.384 285.329 130.864 285.025 130.512C284.729 130.16 284.329 129.984 283.825 129.984C283.497 129.984 283.205 130.064 282.949 130.224C282.701 130.376 282.509 130.608 282.373 130.92C282.237 131.232 282.169 131.616 282.169 132.072C282.169 132.752 282.321 133.272 282.625 133.632C282.929 133.992 283.329 134.172 283.825 134.172ZM289.955 135.108C289.331 135.108 288.859 134.928 288.539 134.568C288.227 134.2 288.071 133.672 288.071 132.984V127.068C288.071 126.868 288.123 126.716 288.227 126.612C288.331 126.508 288.479 126.456 288.671 126.456C288.863 126.456 289.011 126.508 289.115 126.612C289.227 126.716 289.283 126.868 289.283 127.068V132.912C289.283 133.312 289.363 133.612 289.523 133.812C289.691 134.004 289.931 134.1 290.243 134.1C290.315 134.1 290.379 134.1 290.435 134.1C290.491 134.092 290.547 134.084 290.603 134.076C290.699 134.068 290.767 134.096 290.807 134.16C290.847 134.216 290.867 134.336 290.867 134.52C290.867 134.688 290.831 134.82 290.759 134.916C290.687 135.004 290.571 135.06 290.411 135.084C290.339 135.092 290.263 135.096 290.183 135.096C290.103 135.104 290.027 135.108 289.955 135.108ZM294.224 135.108C293.632 135.108 293.12 134.984 292.688 134.736C292.264 134.488 291.932 134.136 291.692 133.68C291.452 133.224 291.332 132.688 291.332 132.072C291.332 131.6 291.4 131.18 291.536 130.812C291.672 130.444 291.864 130.128 292.112 129.864C292.368 129.592 292.672 129.388 293.024 129.252C293.384 129.108 293.784 129.036 294.224 129.036C294.808 129.036 295.312 129.16 295.736 129.408C296.168 129.656 296.504 130.008 296.744 130.464C296.984 130.912 297.104 131.448 297.104 132.072C297.104 132.536 297.036 132.956 296.9 133.332C296.764 133.708 296.568 134.028 296.312 134.292C296.064 134.556 295.76 134.76 295.4 134.904C295.048 135.04 294.656 135.108 294.224 135.108ZM294.224 134.172C294.552 134.172 294.84 134.092 295.088 133.932C295.336 133.772 295.528 133.536 295.664 133.224C295.808 132.912 295.88 132.528 295.88 132.072C295.88 131.384 295.728 130.864 295.424 130.512C295.12 130.16 294.72 129.984 294.224 129.984C293.888 129.984 293.596 130.064 293.348 130.224C293.1 130.376 292.904 130.608 292.76 130.92C292.624 131.232 292.556 131.616 292.556 132.072C292.556 132.752 292.708 133.272 293.012 133.632C293.316 133.992 293.72 134.172 294.224 134.172ZM300.337 135.108C299.929 135.108 299.561 135.028 299.233 134.868C298.913 134.708 298.661 134.492 298.477 134.22C298.293 133.948 298.201 133.64 298.201 133.296C298.201 132.864 298.309 132.524 298.525 132.276C298.749 132.02 299.113 131.84 299.617 131.736C300.129 131.624 300.817 131.568 301.681 131.568H302.245V132.312H301.693C301.117 132.312 300.661 132.34 300.325 132.396C299.989 132.452 299.749 132.548 299.605 132.684C299.469 132.812 299.401 132.992 299.401 133.224C299.401 133.528 299.505 133.776 299.713 133.968C299.921 134.152 300.209 134.244 300.577 134.244C300.873 134.244 301.133 134.176 301.357 134.04C301.581 133.896 301.757 133.704 301.885 133.464C302.021 133.224 302.089 132.948 302.089 132.636V131.256C302.089 130.8 301.993 130.472 301.801 130.272C301.609 130.072 301.293 129.972 300.853 129.972C300.597 129.972 300.329 130.004 300.049 130.068C299.777 130.132 299.493 130.24 299.197 130.392C299.061 130.456 298.945 130.476 298.849 130.452C298.753 130.428 298.677 130.376 298.621 130.296C298.565 130.208 298.533 130.116 298.525 130.02C298.525 129.916 298.549 129.816 298.597 129.72C298.653 129.624 298.745 129.552 298.873 129.504C299.225 129.336 299.573 129.216 299.917 129.144C300.261 129.072 300.585 129.036 300.889 129.036C301.425 129.036 301.865 129.12 302.209 129.288C302.561 129.456 302.821 129.712 302.989 130.056C303.157 130.4 303.241 130.844 303.241 131.388V134.472C303.241 134.664 303.193 134.816 303.097 134.928C303.001 135.032 302.861 135.084 302.677 135.084C302.501 135.084 302.361 135.032 302.257 134.928C302.153 134.816 302.101 134.664 302.101 134.472V133.692H302.209C302.145 133.988 302.025 134.244 301.849 134.46C301.681 134.668 301.469 134.828 301.213 134.94C300.957 135.052 300.665 135.108 300.337 135.108ZM307.143 135.108C306.631 135.108 306.179 134.988 305.787 134.748C305.403 134.5 305.103 134.148 304.887 133.692C304.671 133.228 304.563 132.688 304.563 132.072C304.563 131.44 304.671 130.9 304.887 130.452C305.103 130.004 305.403 129.656 305.787 129.408C306.179 129.16 306.631 129.036 307.143 129.036C307.655 129.036 308.095 129.164 308.463 129.42C308.839 129.668 309.091 130.004 309.219 130.428H309.087V127.068C309.087 126.868 309.139 126.716 309.243 126.612C309.347 126.508 309.495 126.456 309.687 126.456C309.879 126.456 310.027 126.508 310.131 126.612C310.243 126.716 310.299 126.868 310.299 127.068V134.472C310.299 134.664 310.247 134.816 310.143 134.928C310.039 135.032 309.891 135.084 309.699 135.084C309.507 135.084 309.359 135.032 309.255 134.928C309.151 134.816 309.099 134.664 309.099 134.472V133.416L309.231 133.68C309.103 134.112 308.851 134.46 308.475 134.724C308.107 134.98 307.663 135.108 307.143 135.108ZM307.455 134.172C307.783 134.172 308.071 134.092 308.319 133.932C308.567 133.772 308.759 133.536 308.895 133.224C309.039 132.912 309.111 132.528 309.111 132.072C309.111 131.384 308.959 130.864 308.655 130.512C308.351 130.16 307.951 129.984 307.455 129.984C307.119 129.984 306.827 130.064 306.579 130.224C306.331 130.376 306.135 130.608 305.991 130.92C305.855 131.232 305.787 131.616 305.787 132.072C305.787 132.752 305.939 133.272 306.243 133.632C306.547 133.992 306.951 134.172 307.455 134.172ZM314.748 135.108C314.108 135.108 313.556 134.988 313.092 134.748C312.636 134.5 312.28 134.152 312.024 133.704C311.776 133.248 311.652 132.708 311.652 132.084C311.652 131.476 311.776 130.944 312.024 130.488C312.272 130.032 312.612 129.676 313.044 129.42C313.476 129.164 313.968 129.036 314.52 129.036C314.928 129.036 315.292 129.104 315.612 129.24C315.932 129.368 316.204 129.56 316.428 129.816C316.66 130.064 316.832 130.368 316.944 130.728C317.064 131.088 317.124 131.492 317.124 131.94C317.124 132.076 317.084 132.18 317.004 132.252C316.924 132.316 316.804 132.348 316.644 132.348H312.612V131.604H316.308L316.104 131.772C316.104 131.372 316.044 131.032 315.924 130.752C315.812 130.472 315.64 130.26 315.408 130.116C315.184 129.964 314.904 129.888 314.568 129.888C314.192 129.888 313.872 129.976 313.608 130.152C313.352 130.328 313.156 130.572 313.02 130.884C312.884 131.196 312.816 131.56 312.816 131.976V132.048C312.816 132.752 312.98 133.284 313.308 133.644C313.644 133.996 314.128 134.172 314.76 134.172C315 134.172 315.252 134.14 315.516 134.076C315.788 134.012 316.044 133.904 316.284 133.752C316.42 133.672 316.54 133.636 316.644 133.644C316.756 133.652 316.844 133.688 316.908 133.752C316.98 133.816 317.024 133.896 317.04 133.992C317.056 134.088 317.04 134.188 316.992 134.292C316.944 134.388 316.86 134.476 316.74 134.556C316.468 134.74 316.152 134.88 315.792 134.976C315.432 135.064 315.084 135.108 314.748 135.108ZM320.678 135.108C320.166 135.108 319.714 134.988 319.322 134.748C318.938 134.5 318.638 134.148 318.422 133.692C318.206 133.228 318.098 132.688 318.098 132.072C318.098 131.44 318.206 130.9 318.422 130.452C318.638 130.004 318.938 129.656 319.322 129.408C319.714 129.16 320.166 129.036 320.678 129.036C321.19 129.036 321.63 129.164 321.998 129.42C322.374 129.668 322.626 130.004 322.754 130.428H322.622V127.068C322.622 126.868 322.674 126.716 322.778 126.612C322.882 126.508 323.03 126.456 323.222 126.456C323.414 126.456 323.562 126.508 323.666 126.612C323.778 126.716 323.834 126.868 323.834 127.068V134.472C323.834 134.664 323.782 134.816 323.678 134.928C323.574 135.032 323.426 135.084 323.234 135.084C323.042 135.084 322.894 135.032 322.79 134.928C322.686 134.816 322.634 134.664 322.634 134.472V133.416L322.766 133.68C322.638 134.112 322.386 134.46 322.01 134.724C321.642 134.98 321.198 135.108 320.678 135.108ZM320.99 134.172C321.318 134.172 321.606 134.092 321.854 133.932C322.102 133.772 322.294 133.536 322.43 133.224C322.574 132.912 322.646 132.528 322.646 132.072C322.646 131.384 322.494 130.864 322.19 130.512C321.886 130.16 321.486 129.984 320.99 129.984C320.654 129.984 320.362 130.064 320.114 130.224C319.866 130.376 319.67 130.608 319.526 130.92C319.39 131.232 319.322 131.616 319.322 132.072C319.322 132.752 319.474 133.272 319.778 133.632C320.082 133.992 320.486 134.172 320.99 134.172ZM326.124 135.048C325.892 135.048 325.704 134.976 325.56 134.832C325.416 134.688 325.344 134.504 325.344 134.28C325.344 134.056 325.416 133.876 325.56 133.74C325.704 133.596 325.892 133.524 326.124 133.524C326.356 133.524 326.54 133.596 326.676 133.74C326.812 133.876 326.88 134.056 326.88 134.28C326.88 134.504 326.812 134.688 326.676 134.832C326.54 134.976 326.356 135.048 326.124 135.048ZM77.608 153.084C77.408 153.084 77.252 153.028 77.14 152.916C77.036 152.804 76.984 152.648 76.984 152.448V145.176C76.984 144.968 77.04 144.812 77.152 144.708C77.264 144.596 77.42 144.54 77.62 144.54H80.488C81.4 144.54 82.104 144.768 82.6 145.224C83.096 145.672 83.344 146.304 83.344 147.12C83.344 147.944 83.096 148.584 82.6 149.04C82.104 149.488 81.4 149.712 80.488 149.712H78.232V152.448C78.232 152.648 78.18 152.804 78.076 152.916C77.972 153.028 77.816 153.084 77.608 153.084ZM78.232 148.716H80.308C80.908 148.716 81.36 148.584 81.664 148.32C81.976 148.048 82.132 147.648 82.132 147.12C82.132 146.6 81.976 146.208 81.664 145.944C81.36 145.672 80.908 145.536 80.308 145.536H78.232V148.716ZM86.4352 153.108C85.8112 153.108 85.3392 152.928 85.0192 152.568C84.7072 152.2 84.5512 151.672 84.5512 150.984V145.068C84.5512 144.868 84.6032 144.716 84.7072 144.612C84.8112 144.508 84.9592 144.456 85.1512 144.456C85.3432 144.456 85.4912 144.508 85.5952 144.612C85.7072 144.716 85.7632 144.868 85.7632 145.068V150.912C85.7632 151.312 85.8432 151.612 86.0032 151.812C86.1712 152.004 86.4112 152.1 86.7232 152.1C86.7952 152.1 86.8592 152.1 86.9152 152.1C86.9712 152.092 87.0272 152.084 87.0832 152.076C87.1792 152.068 87.2472 152.096 87.2872 152.16C87.3272 152.216 87.3472 152.336 87.3472 152.52C87.3472 152.688 87.3112 152.82 87.2392 152.916C87.1672 153.004 87.0512 153.06 86.8912 153.084C86.8192 153.092 86.7432 153.096 86.6632 153.096C86.5832 153.104 86.5072 153.108 86.4352 153.108ZM90.9086 153.108C90.2686 153.108 89.7166 152.988 89.2526 152.748C88.7966 152.5 88.4406 152.152 88.1846 151.704C87.9366 151.248 87.8126 150.708 87.8126 150.084C87.8126 149.476 87.9366 148.944 88.1846 148.488C88.4326 148.032 88.7726 147.676 89.2046 147.42C89.6366 147.164 90.1286 147.036 90.6806 147.036C91.0886 147.036 91.4526 147.104 91.7726 147.24C92.0926 147.368 92.3646 147.56 92.5886 147.816C92.8206 148.064 92.9926 148.368 93.1046 148.728C93.2246 149.088 93.2846 149.492 93.2846 149.94C93.2846 150.076 93.2446 150.18 93.1646 150.252C93.0846 150.316 92.9646 150.348 92.8046 150.348H88.7726V149.604H92.4686L92.2646 149.772C92.2646 149.372 92.2046 149.032 92.0846 148.752C91.9726 148.472 91.8006 148.26 91.5686 148.116C91.3446 147.964 91.0646 147.888 90.7286 147.888C90.3526 147.888 90.0326 147.976 89.7686 148.152C89.5126 148.328 89.3166 148.572 89.1806 148.884C89.0446 149.196 88.9766 149.56 88.9766 149.976V150.048C88.9766 150.752 89.1406 151.284 89.4686 151.644C89.8046 151.996 90.2886 152.172 90.9206 152.172C91.1606 152.172 91.4126 152.14 91.6766 152.076C91.9486 152.012 92.2046 151.904 92.4446 151.752C92.5806 151.672 92.7006 151.636 92.8046 151.644C92.9166 151.652 93.0046 151.688 93.0686 151.752C93.1406 151.816 93.1846 151.896 93.2006 151.992C93.2166 152.088 93.2006 152.188 93.1526 152.292C93.1046 152.388 93.0206 152.476 92.9006 152.556C92.6286 152.74 92.3126 152.88 91.9526 152.976C91.5926 153.064 91.2446 153.108 90.9086 153.108ZM96.4779 153.108C96.0699 153.108 95.7019 153.028 95.3739 152.868C95.0539 152.708 94.8019 152.492 94.6179 152.22C94.4339 151.948 94.3419 151.64 94.3419 151.296C94.3419 150.864 94.4499 150.524 94.6659 150.276C94.8899 150.02 95.2539 149.84 95.7579 149.736C96.2699 149.624 96.9579 149.568 97.8219 149.568H98.3859V150.312H97.8339C97.2579 150.312 96.8019 150.34 96.4659 150.396C96.1299 150.452 95.8899 150.548 95.7459 150.684C95.6099 150.812 95.5419 150.992 95.5419 151.224C95.5419 151.528 95.6459 151.776 95.8539 151.968C96.0619 152.152 96.3499 152.244 96.7179 152.244C97.0139 152.244 97.2739 152.176 97.4979 152.04C97.7219 151.896 97.8979 151.704 98.0259 151.464C98.1619 151.224 98.2299 150.948 98.2299 150.636V149.256C98.2299 148.8 98.1339 148.472 97.9419 148.272C97.7499 148.072 97.4339 147.972 96.9939 147.972C96.7379 147.972 96.4699 148.004 96.1899 148.068C95.9179 148.132 95.6339 148.24 95.3379 148.392C95.2019 148.456 95.0859 148.476 94.9899 148.452C94.8939 148.428 94.8179 148.376 94.7619 148.296C94.7059 148.208 94.6739 148.116 94.6659 148.02C94.6659 147.916 94.6899 147.816 94.7379 147.72C94.7939 147.624 94.8859 147.552 95.0139 147.504C95.3659 147.336 95.7139 147.216 96.0579 147.144C96.4019 147.072 96.7259 147.036 97.0299 147.036C97.5659 147.036 98.0059 147.12 98.3499 147.288C98.7019 147.456 98.9619 147.712 99.1299 148.056C99.2979 148.4 99.3819 148.844 99.3819 149.388V152.472C99.3819 152.664 99.3339 152.816 99.2379 152.928C99.1419 153.032 99.0019 153.084 98.8179 153.084C98.6419 153.084 98.5019 153.032 98.3979 152.928C98.2939 152.816 98.2419 152.664 98.2419 152.472V151.692H98.3499C98.2859 151.988 98.1659 152.244 97.9899 152.46C97.8219 152.668 97.6099 152.828 97.3539 152.94C97.0979 153.052 96.8059 153.108 96.4779 153.108ZM103.103 153.108C102.751 153.108 102.387 153.068 102.011 152.988C101.643 152.908 101.303 152.772 100.991 152.58C100.887 152.508 100.815 152.428 100.775 152.34C100.735 152.252 100.719 152.164 100.727 152.076C100.743 151.98 100.779 151.9 100.835 151.836C100.899 151.764 100.975 151.72 101.063 151.704C101.159 151.688 101.259 151.708 101.363 151.764C101.675 151.94 101.975 152.064 102.263 152.136C102.551 152.2 102.835 152.232 103.115 152.232C103.539 152.232 103.859 152.156 104.075 152.004C104.291 151.852 104.399 151.648 104.399 151.392C104.399 151.184 104.327 151.024 104.183 150.912C104.039 150.792 103.823 150.7 103.535 150.636L102.395 150.408C101.899 150.304 101.523 150.12 101.267 149.856C101.011 149.592 100.883 149.256 100.883 148.848C100.883 148.48 100.983 148.16 101.183 147.888C101.383 147.616 101.663 147.408 102.023 147.264C102.383 147.112 102.799 147.036 103.271 147.036C103.623 147.036 103.955 147.08 104.267 147.168C104.579 147.256 104.867 147.388 105.131 147.564C105.235 147.62 105.303 147.696 105.335 147.792C105.367 147.88 105.371 147.968 105.347 148.056C105.331 148.144 105.291 148.224 105.227 148.296C105.163 148.36 105.083 148.4 104.987 148.416C104.899 148.424 104.799 148.4 104.687 148.344C104.447 148.192 104.207 148.084 103.967 148.02C103.735 147.956 103.503 147.924 103.271 147.924C102.847 147.924 102.527 148.004 102.311 148.164C102.103 148.316 101.999 148.524 101.999 148.788C101.999 148.988 102.063 149.152 102.191 149.28C102.319 149.408 102.519 149.5 102.791 149.556L103.931 149.784C104.451 149.888 104.843 150.064 105.107 150.312C105.379 150.56 105.515 150.896 105.515 151.32C105.515 151.872 105.295 152.308 104.855 152.628C104.415 152.948 103.831 153.108 103.103 153.108ZM109.612 153.108C108.972 153.108 108.42 152.988 107.956 152.748C107.5 152.5 107.144 152.152 106.888 151.704C106.64 151.248 106.516 150.708 106.516 150.084C106.516 149.476 106.64 148.944 106.888 148.488C107.136 148.032 107.476 147.676 107.908 147.42C108.34 147.164 108.832 147.036 109.384 147.036C109.792 147.036 110.156 147.104 110.476 147.24C110.796 147.368 111.068 147.56 111.292 147.816C111.524 148.064 111.696 148.368 111.808 148.728C111.928 149.088 111.988 149.492 111.988 149.94C111.988 150.076 111.948 150.18 111.868 150.252C111.788 150.316 111.668 150.348 111.508 150.348H107.476V149.604H111.172L110.968 149.772C110.968 149.372 110.908 149.032 110.788 148.752C110.676 148.472 110.504 148.26 110.272 148.116C110.048 147.964 109.768 147.888 109.432 147.888C109.056 147.888 108.736 147.976 108.472 148.152C108.216 148.328 108.02 148.572 107.884 148.884C107.748 149.196 107.68 149.56 107.68 149.976V150.048C107.68 150.752 107.844 151.284 108.172 151.644C108.508 151.996 108.992 152.172 109.624 152.172C109.864 152.172 110.116 152.14 110.38 152.076C110.652 152.012 110.908 151.904 111.148 151.752C111.284 151.672 111.404 151.636 111.508 151.644C111.62 151.652 111.708 151.688 111.772 151.752C111.844 151.816 111.888 151.896 111.904 151.992C111.92 152.088 111.904 152.188 111.856 152.292C111.808 152.388 111.724 152.476 111.604 152.556C111.332 152.74 111.016 152.88 110.656 152.976C110.296 153.064 109.948 153.108 109.612 153.108ZM118.969 153.108C118.489 153.108 118.085 153.024 117.757 152.856C117.429 152.688 117.185 152.44 117.025 152.112C116.865 151.784 116.785 151.384 116.785 150.912V148.08H116.065C115.905 148.08 115.781 148.04 115.693 147.96C115.605 147.872 115.561 147.756 115.561 147.612C115.561 147.46 115.605 147.344 115.693 147.264C115.781 147.184 115.905 147.144 116.065 147.144H116.785V145.908C116.785 145.708 116.837 145.556 116.941 145.452C117.053 145.348 117.205 145.296 117.397 145.296C117.589 145.296 117.737 145.348 117.841 145.452C117.945 145.556 117.997 145.708 117.997 145.908V147.144H119.401C119.561 147.144 119.685 147.184 119.773 147.264C119.861 147.344 119.905 147.46 119.905 147.612C119.905 147.756 119.861 147.872 119.773 147.96C119.685 148.04 119.561 148.08 119.401 148.08H117.997V150.816C117.997 151.24 118.085 151.56 118.261 151.776C118.445 151.992 118.741 152.1 119.149 152.1C119.293 152.1 119.417 152.088 119.521 152.064C119.633 152.032 119.725 152.012 119.797 152.004C119.885 152.004 119.957 152.036 120.013 152.1C120.069 152.156 120.097 152.268 120.097 152.436C120.097 152.556 120.073 152.668 120.025 152.772C119.985 152.876 119.909 152.944 119.797 152.976C119.701 153.008 119.569 153.036 119.401 153.06C119.241 153.092 119.097 153.108 118.969 153.108ZM121.468 153.084C121.268 153.084 121.116 153.032 121.012 152.928C120.908 152.816 120.856 152.664 120.856 152.472V147.672C120.856 147.472 120.908 147.32 121.012 147.216C121.116 147.112 121.26 147.06 121.444 147.06C121.636 147.06 121.78 147.112 121.876 147.216C121.98 147.32 122.032 147.472 122.032 147.672V148.548H121.912C122.04 148.068 122.276 147.704 122.62 147.456C122.964 147.208 123.404 147.064 123.94 147.024C124.084 147.016 124.196 147.052 124.276 147.132C124.364 147.212 124.412 147.336 124.42 147.504C124.436 147.672 124.4 147.808 124.312 147.912C124.224 148.008 124.088 148.064 123.904 148.08L123.676 148.104C123.156 148.152 122.76 148.316 122.488 148.596C122.216 148.876 122.08 149.26 122.08 149.748V152.472C122.08 152.664 122.028 152.816 121.924 152.928C121.828 153.032 121.676 153.084 121.468 153.084ZM127.076 155.244C126.932 155.244 126.812 155.204 126.716 155.124C126.628 155.052 126.576 154.952 126.56 154.824C126.552 154.704 126.576 154.572 126.632 154.428L127.448 152.592V153.108L125.204 147.888C125.148 147.744 125.128 147.608 125.144 147.48C125.16 147.352 125.22 147.252 125.324 147.18C125.428 147.1 125.568 147.06 125.744 147.06C125.896 147.06 126.016 147.096 126.104 147.168C126.192 147.24 126.272 147.364 126.344 147.54L128.156 152.016H127.82L129.656 147.54C129.728 147.356 129.812 147.232 129.908 147.168C130.004 147.096 130.136 147.06 130.304 147.06C130.448 147.06 130.56 147.1 130.64 147.18C130.728 147.252 130.78 147.352 130.796 147.48C130.82 147.6 130.8 147.732 130.736 147.876L127.736 154.776C127.656 154.96 127.564 155.084 127.46 155.148C127.364 155.212 127.236 155.244 127.076 155.244ZM136.966 153.108C136.558 153.108 136.19 153.028 135.862 152.868C135.542 152.708 135.29 152.492 135.106 152.22C134.922 151.948 134.83 151.64 134.83 151.296C134.83 150.864 134.938 150.524 135.154 150.276C135.378 150.02 135.742 149.84 136.246 149.736C136.758 149.624 137.446 149.568 138.31 149.568H138.874V150.312H138.322C137.746 150.312 137.29 150.34 136.954 150.396C136.618 150.452 136.378 150.548 136.234 150.684C136.098 150.812 136.03 150.992 136.03 151.224C136.03 151.528 136.134 151.776 136.342 151.968C136.55 152.152 136.838 152.244 137.206 152.244C137.502 152.244 137.762 152.176 137.986 152.04C138.21 151.896 138.386 151.704 138.514 151.464C138.65 151.224 138.718 150.948 138.718 150.636V149.256C138.718 148.8 138.622 148.472 138.43 148.272C138.238 148.072 137.922 147.972 137.482 147.972C137.226 147.972 136.958 148.004 136.678 148.068C136.406 148.132 136.122 148.24 135.826 148.392C135.69 148.456 135.574 148.476 135.478 148.452C135.382 148.428 135.306 148.376 135.25 148.296C135.194 148.208 135.162 148.116 135.154 148.02C135.154 147.916 135.178 147.816 135.226 147.72C135.282 147.624 135.374 147.552 135.502 147.504C135.854 147.336 136.202 147.216 136.546 147.144C136.89 147.072 137.214 147.036 137.518 147.036C138.054 147.036 138.494 147.12 138.838 147.288C139.19 147.456 139.45 147.712 139.618 148.056C139.786 148.4 139.87 148.844 139.87 149.388V152.472C139.87 152.664 139.822 152.816 139.726 152.928C139.63 153.032 139.49 153.084 139.306 153.084C139.13 153.084 138.99 153.032 138.886 152.928C138.782 152.816 138.73 152.664 138.73 152.472V151.692H138.838C138.774 151.988 138.654 152.244 138.478 152.46C138.31 152.668 138.098 152.828 137.842 152.94C137.586 153.052 137.294 153.108 136.966 153.108ZM144.192 155.268C143.76 155.268 143.34 155.224 142.932 155.136C142.532 155.048 142.168 154.904 141.84 154.704C141.72 154.64 141.64 154.56 141.6 154.464C141.56 154.376 141.548 154.284 141.564 154.188C141.588 154.092 141.632 154.008 141.696 153.936C141.76 153.864 141.836 153.816 141.924 153.792C142.02 153.768 142.12 153.784 142.224 153.84C142.576 154.032 142.908 154.16 143.22 154.224C143.54 154.296 143.836 154.332 144.108 154.332C144.668 154.332 145.088 154.188 145.368 153.9C145.648 153.62 145.788 153.204 145.788 152.652V151.428H145.896C145.776 151.868 145.524 152.216 145.14 152.472C144.756 152.728 144.312 152.856 143.808 152.856C143.28 152.856 142.82 152.736 142.428 152.496C142.036 152.248 141.732 151.908 141.516 151.476C141.3 151.036 141.192 150.524 141.192 149.94C141.192 149.5 141.252 149.104 141.372 148.752C141.5 148.4 141.676 148.096 141.9 147.84C142.132 147.584 142.408 147.388 142.728 147.252C143.056 147.108 143.416 147.036 143.808 147.036C144.32 147.036 144.764 147.164 145.14 147.42C145.524 147.676 145.772 148.024 145.884 148.464L145.764 148.668V147.672C145.764 147.472 145.816 147.32 145.92 147.216C146.032 147.112 146.18 147.06 146.364 147.06C146.556 147.06 146.704 147.112 146.808 147.216C146.912 147.32 146.964 147.472 146.964 147.672V152.508C146.964 153.42 146.728 154.108 146.256 154.572C145.784 155.036 145.096 155.268 144.192 155.268ZM144.096 151.908C144.448 151.908 144.748 151.828 144.996 151.668C145.244 151.508 145.436 151.28 145.572 150.984C145.708 150.688 145.776 150.34 145.776 149.94C145.776 149.34 145.624 148.864 145.32 148.512C145.024 148.16 144.616 147.984 144.096 147.984C143.752 147.984 143.456 148.064 143.208 148.224C142.96 148.384 142.764 148.612 142.62 148.908C142.484 149.196 142.416 149.54 142.416 149.94C142.416 150.548 142.568 151.028 142.872 151.38C143.176 151.732 143.584 151.908 144.096 151.908ZM150.537 153.108C150.129 153.108 149.761 153.028 149.433 152.868C149.113 152.708 148.861 152.492 148.677 152.22C148.493 151.948 148.401 151.64 148.401 151.296C148.401 150.864 148.509 150.524 148.725 150.276C148.949 150.02 149.313 149.84 149.817 149.736C150.329 149.624 151.017 149.568 151.881 149.568H152.445V150.312H151.893C151.317 150.312 150.861 150.34 150.525 150.396C150.189 150.452 149.949 150.548 149.805 150.684C149.669 150.812 149.601 150.992 149.601 151.224C149.601 151.528 149.705 151.776 149.913 151.968C150.121 152.152 150.409 152.244 150.777 152.244C151.073 152.244 151.333 152.176 151.557 152.04C151.781 151.896 151.957 151.704 152.085 151.464C152.221 151.224 152.289 150.948 152.289 150.636V149.256C152.289 148.8 152.193 148.472 152.001 148.272C151.809 148.072 151.493 147.972 151.053 147.972C150.797 147.972 150.529 148.004 150.249 148.068C149.977 148.132 149.693 148.24 149.396 148.392C149.261 148.456 149.145 148.476 149.049 148.452C148.953 148.428 148.877 148.376 148.821 148.296C148.765 148.208 148.733 148.116 148.725 148.02C148.725 147.916 148.749 147.816 148.797 147.72C148.853 147.624 148.945 147.552 149.073 147.504C149.425 147.336 149.773 147.216 150.117 147.144C150.461 147.072 150.785 147.036 151.089 147.036C151.625 147.036 152.065 147.12 152.409 147.288C152.761 147.456 153.021 147.712 153.189 148.056C153.357 148.4 153.441 148.844 153.441 149.388V152.472C153.441 152.664 153.393 152.816 153.297 152.928C153.201 153.032 153.061 153.084 152.877 153.084C152.701 153.084 152.561 153.032 152.457 152.928C152.353 152.816 152.301 152.664 152.301 152.472V151.692H152.409C152.345 151.988 152.225 152.244 152.049 152.46C151.881 152.668 151.669 152.828 151.413 152.94C151.157 153.052 150.865 153.108 150.537 153.108ZM155.71 153.072C155.518 153.072 155.37 153.016 155.266 152.904C155.162 152.784 155.11 152.62 155.11 152.412V147.732C155.11 147.524 155.162 147.364 155.266 147.252C155.37 147.14 155.518 147.084 155.71 147.084C155.902 147.084 156.05 147.14 156.154 147.252C156.266 147.364 156.322 147.524 156.322 147.732V152.412C156.322 152.62 156.27 152.784 156.166 152.904C156.062 153.016 155.91 153.072 155.71 153.072ZM155.71 145.836C155.47 145.836 155.282 145.776 155.146 145.656C155.018 145.536 154.954 145.368 154.954 145.152C154.954 144.928 155.018 144.76 155.146 144.648C155.282 144.528 155.47 144.468 155.71 144.468C155.95 144.468 156.134 144.528 156.262 144.648C156.398 144.76 156.466 144.928 156.466 145.152C156.466 145.368 156.398 145.536 156.262 145.656C156.134 145.776 155.95 145.836 155.71 145.836ZM158.628 153.084C158.436 153.084 158.288 153.032 158.184 152.928C158.08 152.816 158.028 152.664 158.028 152.472V147.672C158.028 147.472 158.08 147.32 158.184 147.216C158.288 147.112 158.432 147.06 158.616 147.06C158.808 147.06 158.952 147.112 159.048 147.216C159.152 147.32 159.204 147.472 159.204 147.672V148.608L159.072 148.392C159.248 147.944 159.524 147.608 159.9 147.384C160.276 147.152 160.708 147.036 161.196 147.036C161.66 147.036 162.044 147.124 162.348 147.3C162.66 147.468 162.892 147.728 163.044 148.08C163.196 148.424 163.272 148.86 163.272 149.388V152.472C163.272 152.664 163.22 152.816 163.116 152.928C163.012 153.032 162.864 153.084 162.672 153.084C162.472 153.084 162.32 153.032 162.216 152.928C162.112 152.816 162.06 152.664 162.06 152.472V149.46C162.06 148.956 161.96 148.588 161.76 148.356C161.568 148.124 161.264 148.008 160.848 148.008C160.36 148.008 159.968 148.16 159.672 148.464C159.384 148.768 159.24 149.176 159.24 149.688V152.472C159.24 152.88 159.036 153.084 158.628 153.084ZM165.53 153.048C165.298 153.048 165.11 152.976 164.966 152.832C164.822 152.688 164.75 152.504 164.75 152.28C164.75 152.056 164.822 151.876 164.966 151.74C165.11 151.596 165.298 151.524 165.53 151.524C165.762 151.524 165.946 151.596 166.082 151.74C166.218 151.876 166.286 152.056 166.286 152.28C166.286 152.504 166.218 152.688 166.082 152.832C165.946 152.976 165.762 153.048 165.53 153.048Z" fill="#64728C"/>
</g>
<circle opacity="0.2" cx="333" cy="104" r="13" stroke="#EB0A11" stroke-width="5"/>
<circle opacity="0.2" cx="1.3" cy="1.3" r="1.3" transform="matrix(1 0 0 -1 331.7 105.3)" fill="#EB0910"/>
<path d="M334.235 91.0588C335.934 91.2209 337.585 91.7162 339.093 92.5163C340.601 93.3165 341.937 94.4059 343.024 95.7222C344.111 97.0386 344.928 98.5561 345.429 100.188C345.929 101.82 346.104 103.535 345.941 105.235" stroke="#EB0A11" stroke-width="5" stroke-linecap="round" stroke-linejoin="round"/>
<path d="M334.857 104L337.245 101.612C337.776 101.081 337.776 100.286 337.245 99.7549C336.715 99.2243 335.919 99.2243 335.388 99.7549L333 102.143L330.613 99.7549C330.082 99.2243 329.286 99.2243 328.755 99.7549C328.225 100.286 328.225 101.081 328.755 101.612L331.143 104L328.755 106.388C328.225 106.918 328.225 107.714 328.755 108.245C329.021 108.51 329.352 108.643 329.684 108.643C330.016 108.643 330.347 108.51 330.613 108.245L333 105.857L335.388 108.245C335.653 108.51 335.985 108.643 336.317 108.643C336.648 108.643 336.98 108.51 337.245 108.245C337.776 107.714 337.776 106.918 337.245 106.388L334.857 104Z" fill="#EB0A11"/>
</g>
<rect x="60.5" y="78.5" width="299" height="98" rx="24.5" stroke="url(#paint1_linear_978_2418)"/>
</g>
<g filter="url(#filter3_d_978_2418)">
<rect x="76.9014" y="56" width="45" height="45" rx="22.5" fill="#EB0A11" shape-rendering="crispEdges"/>
<rect x="76.9014" y="56" width="45" height="45" rx="22.5" fill="url(#paint2_radial_978_2418)" fill-opacity="0.3" shape-rendering="crispEdges"/>
<path d="M108.401 76.5L105.601 71.5C104.901 70.2 103.601 69.5 102.101 69.5H96.701C95.201 69.5 93.901 70.3 93.201 71.5L90.401 76.5C89.701 77.7 89.701 79.2 90.401 80.4L93.201 85.4C93.901 86.7 95.201 87.4 96.701 87.4H102.201C103.601 87.4 105.001 86.6 105.701 85.4L108.501 80.4C109.101 79.3 109.101 77.7 108.401 76.5ZM106.701 79.5L103.901 84.5C103.501 85.1 102.901 85.5 102.201 85.5H96.701C96.001 85.5 95.301 85.1 95.001 84.5L92.201 79.5C91.901 78.9 91.901 78.1 92.201 77.5L95.001 72.5C95.401 71.9 96.001 71.5 96.701 71.5H102.201C102.901 71.5 103.601 71.9 103.901 72.5L106.701 77.5C107.001 78.1 107.001 78.9 106.701 79.5Z" fill="white"/>
<path d="M99.4014 73.5C98.8014 73.5 98.4014 73.9 98.4014 74.5V79.5C98.4014 80.1 98.8014 80.5 99.4014 80.5C100.001 80.5 100.401 80.1 100.401 79.5V74.5C100.401 73.9 100.001 73.5 99.4014 73.5Z" fill="white"/>
<path d="M99.4014 83.5C99.9537 83.5 100.401 83.0523 100.401 82.5C100.401 81.9477 99.9537 81.5 99.4014 81.5C98.8491 81.5 98.4014 81.9477 98.4014 82.5C98.4014 83.0523 98.8491 83.5 99.4014 83.5Z" fill="white"/>
</g>
</g>
<defs>
<filter id="filter0_d_978_2418" x="0" y="0" width="420" height="241" filterUnits="userSpaceOnUse" color-interpolation-filters="sRGB">
<feFlood flood-opacity="0" result="BackgroundImageFix"/>
<feColorMatrix in="SourceAlpha" type="matrix" values="0 0 0 0 0 0 0 0 0 0 0 0 0 0 0 0 0 0 127 0" result="hardAlpha"/>
<feOffset dy="4"/>
<feGaussianBlur stdDeviation="30"/>
<feComposite in2="hardAlpha" operator="out"/>
<feColorMatrix type="matrix" values="0 0 0 0 0 0 0 0 0 0 0 0 0 0 0 0 0 0 0.06 0"/>
<feBlend mode="normal" in2="BackgroundImageFix" result="effect1_dropShadow_978_2418"/>
<feBlend mode="normal" in="SourceGraphic" in2="effect1_dropShadow_978_2418" result="shape"/>
</filter>
<filter id="filter1_d_978_2418" x="56" y="78" width="308" height="107" filterUnits="userSpaceOnUse" color-interpolation-filters="sRGB">
<feFlood flood-opacity="0" result="BackgroundImageFix"/>
<feColorMatrix in="SourceAlpha" type="matrix" values="0 0 0 0 0 0 0 0 0 0 0 0 0 0 0 0 0 0 127 0" result="hardAlpha"/>
<feOffset dy="4"/>
<feGaussianBlur stdDeviation="2"/>
<feComposite in2="hardAlpha" operator="out"/>
<feColorMatrix type="matrix" values="0 0 0 0 0.921569 0 0 0 0 0.0352941 0 0 0 0 0.0627451 0 0 0 0.25 0"/>
<feBlend mode="normal" in2="BackgroundImageFix" result="effect1_dropShadow_978_2418"/>
<feBlend mode="normal" in="SourceGraphic" in2="effect1_dropShadow_978_2418" result="shape"/>
</filter>
<filter id="filter2_d_978_2418" x="30" y="52" width="360" height="156" filterUnits="userSpaceOnUse" color-interpolation-filters="sRGB">
<feFlood flood-opacity="0" result="BackgroundImageFix"/>
<feColorMatrix in="SourceAlpha" type="matrix" values="0 0 0 0 0 0 0 0 0 0 0 0 0 0 0 0 0 0 127 0" result="hardAlpha"/>
<feOffset dy="4"/>
<feGaussianBlur stdDeviation="15"/>
<feComposite in2="hardAlpha" operator="out"/>
<feColorMatrix type="matrix" values="0 0 0 0 0 0 0 0 0 0 0 0 0 0 0 0 0 0 0.1 0"/>
<feBlend mode="normal" in2="BackgroundImageFix" result="effect1_dropShadow_978_2418"/>
<feBlend mode="normal" in="SourceGraphic" in2="effect1_dropShadow_978_2418" result="shape"/>
</filter>
<filter id="filter3_d_978_2418" x="72.9014" y="56" width="53" height="53" filterUnits="userSpaceOnUse" color-interpolation-filters="sRGB">
<feFlood flood-opacity="0" result="BackgroundImageFix"/>
<feColorMatrix in="SourceAlpha" type="matrix" values="0 0 0 0 0 0 0 0 0 0 0 0 0 0 0 0 0 0 127 0" result="hardAlpha"/>
<feOffset dy="4"/>
<feGaussianBlur stdDeviation="2"/>
<feComposite in2="hardAlpha" operator="out"/>
<feColorMatrix type="matrix" values="0 0 0 0 0.921569 0 0 0 0 0.0352941 0 0 0 0 0.0627451 0 0 0 0.1 0"/>
<feBlend mode="normal" in2="BackgroundImageFix" result="effect1_dropShadow_978_2418"/>
<feBlend mode="normal" in="SourceGraphic" in2="effect1_dropShadow_978_2418" result="shape"/>
</filter>
<linearGradient id="paint0_linear_978_2418" x1="60" y1="78" x2="360.979" y2="159.526" gradientUnits="userSpaceOnUse">
<stop offset="0.468122" stop-color="white" stop-opacity="0"/>
<stop offset="1" stop-color="white"/>
</linearGradient>
<linearGradient id="paint1_linear_978_2418" x1="210" y1="78" x2="210" y2="177" gradientUnits="userSpaceOnUse">
<stop stop-color="#EB0910"/>
<stop offset="1" stop-color="#EB0910"/>
</linearGradient>
<radialGradient id="paint2_radial_978_2418" cx="0" cy="0" r="1" gradientUnits="userSpaceOnUse" gradientTransform="translate(99.4014 78.5) rotate(90) scale(22.5)">
<stop stop-opacity="0"/>
<stop offset="1" stop-color="white"/>
</radialGradient>
<clipPath id="clip0_978_2418">
<rect x="60" y="78" width="300" height="99" rx="25" fill="white"/>
</clipPath>
</defs>
</svg>
