<svg width="420" height="236" viewBox="0 0 420 236" fill="none" xmlns="http://www.w3.org/2000/svg">
<g filter="url(#filter0_d_978_2517)">
<g filter="url(#filter1_d_978_2517)">
<g clip-path="url(#clip0_978_2517)">
<rect x="60" y="77.5" width="300" height="94" rx="25" fill="#FF7B1D"/>
<g filter="url(#filter2_d_978_2517)">
<rect x="60" y="77.5" width="300" height="91" rx="25" fill="white" shape-rendering="crispEdges"/>
<rect x="60" y="77.5" width="300" height="91" rx="25" fill="url(#paint0_linear_978_2517)" fill-opacity="0.2" shape-rendering="crispEdges"/>
<path d="M78.086 116.626C77.7313 116.626 77.4607 116.528 77.274 116.332C77.0873 116.136 76.994 115.861 76.994 115.506V107.736C76.994 107.372 77.0873 107.097 77.274 106.91C77.47 106.723 77.7453 106.63 78.1 106.63H81.502C82.6033 106.63 83.4527 106.896 84.05 107.428C84.6473 107.96 84.946 108.702 84.946 109.654C84.946 110.27 84.8107 110.802 84.54 111.25C84.2693 111.698 83.8773 112.043 83.364 112.286C82.86 112.529 82.2393 112.65 81.502 112.65L81.614 112.412H82.188C82.58 112.412 82.9207 112.51 83.21 112.706C83.5087 112.893 83.7653 113.182 83.98 113.574L84.848 115.184C84.9787 115.417 85.0393 115.646 85.03 115.87C85.0207 116.094 84.9367 116.276 84.778 116.416C84.6193 116.556 84.386 116.626 84.078 116.626C83.77 116.626 83.518 116.561 83.322 116.43C83.1353 116.299 82.9673 116.099 82.818 115.828L81.474 113.35C81.334 113.089 81.1613 112.911 80.956 112.818C80.76 112.725 80.5173 112.678 80.228 112.678H79.164V115.506C79.164 115.861 79.0707 116.136 78.884 116.332C78.7067 116.528 78.4407 116.626 78.086 116.626ZM79.164 111.11H81.11C81.6887 111.11 82.1227 110.993 82.412 110.76C82.7107 110.527 82.86 110.177 82.86 109.71C82.86 109.253 82.7107 108.907 82.412 108.674C82.1227 108.441 81.6887 108.324 81.11 108.324H79.164V111.11ZM89.9386 116.654C89.1266 116.654 88.4266 116.509 87.8386 116.22C87.26 115.921 86.812 115.506 86.4946 114.974C86.1866 114.433 86.0326 113.798 86.0326 113.07C86.0326 112.361 86.182 111.74 86.4806 111.208C86.7793 110.667 87.1946 110.247 87.7266 109.948C88.268 109.64 88.8793 109.486 89.5606 109.486C90.0553 109.486 90.5033 109.57 90.9046 109.738C91.306 109.897 91.6513 110.13 91.9406 110.438C92.23 110.737 92.4493 111.105 92.5986 111.544C92.748 111.973 92.8226 112.454 92.8226 112.986C92.8226 113.163 92.7666 113.299 92.6546 113.392C92.5426 113.476 92.3793 113.518 92.1646 113.518H87.7686V112.426H91.2966L91.0726 112.622C91.0726 112.239 91.0166 111.922 90.9046 111.67C90.7926 111.409 90.6293 111.213 90.4146 111.082C90.2093 110.951 89.9526 110.886 89.6446 110.886C89.2993 110.886 89.0053 110.965 88.7626 111.124C88.52 111.283 88.3333 111.511 88.2026 111.81C88.072 112.109 88.0066 112.468 88.0066 112.888V113C88.0066 113.709 88.17 114.232 88.4966 114.568C88.8326 114.904 89.3273 115.072 89.9806 115.072C90.2046 115.072 90.4613 115.044 90.7506 114.988C91.04 114.932 91.3106 114.843 91.5626 114.722C91.7773 114.619 91.9686 114.587 92.1366 114.624C92.3046 114.652 92.4353 114.727 92.5286 114.848C92.622 114.969 92.6733 115.109 92.6826 115.268C92.7013 115.427 92.6686 115.585 92.5846 115.744C92.5006 115.893 92.3606 116.019 92.1646 116.122C91.8473 116.299 91.488 116.43 91.0866 116.514C90.6946 116.607 90.312 116.654 89.9386 116.654ZM95.1442 116.626C94.7989 116.626 94.5329 116.533 94.3462 116.346C94.1689 116.159 94.0802 115.893 94.0802 115.548V110.578C94.0802 110.233 94.1689 109.971 94.3462 109.794C94.5329 109.607 94.7896 109.514 95.1162 109.514C95.4522 109.514 95.7089 109.607 95.8862 109.794C96.0636 109.971 96.1522 110.233 96.1522 110.578V111.474L95.9982 110.914C96.1849 110.485 96.4742 110.139 96.8662 109.878C97.2582 109.617 97.7202 109.486 98.2522 109.486C98.7842 109.486 99.2276 109.612 99.5822 109.864C99.9369 110.116 100.189 110.503 100.338 111.026H100.142C100.348 110.55 100.66 110.177 101.08 109.906C101.51 109.626 102 109.486 102.55 109.486C103.082 109.486 103.516 109.593 103.852 109.808C104.198 110.013 104.454 110.331 104.622 110.76C104.79 111.18 104.874 111.717 104.874 112.37V115.548C104.874 115.893 104.781 116.159 104.594 116.346C104.417 116.533 104.16 116.626 103.824 116.626C103.479 116.626 103.213 116.533 103.026 116.346C102.849 116.159 102.76 115.893 102.76 115.548V112.44C102.76 111.983 102.686 111.651 102.536 111.446C102.396 111.231 102.154 111.124 101.808 111.124C101.407 111.124 101.094 111.264 100.87 111.544C100.646 111.824 100.534 112.221 100.534 112.734V115.548C100.534 115.893 100.441 116.159 100.254 116.346C100.077 116.533 99.8202 116.626 99.4842 116.626C99.1482 116.626 98.8869 116.533 98.7002 116.346C98.5136 116.159 98.4202 115.893 98.4202 115.548V112.44C98.4202 111.983 98.3456 111.651 98.1962 111.446C98.0562 111.231 97.8136 111.124 97.4682 111.124C97.0669 111.124 96.7542 111.264 96.5302 111.544C96.3062 111.824 96.1942 112.221 96.1942 112.734V115.548C96.1942 116.267 95.8442 116.626 95.1442 116.626ZM107.558 116.612C107.212 116.612 106.946 116.514 106.76 116.318C106.582 116.113 106.494 115.828 106.494 115.464V110.676C106.494 110.303 106.582 110.018 106.76 109.822C106.946 109.617 107.212 109.514 107.558 109.514C107.894 109.514 108.15 109.617 108.328 109.822C108.514 110.018 108.608 110.303 108.608 110.676V115.464C108.608 115.828 108.519 116.113 108.342 116.318C108.164 116.514 107.903 116.612 107.558 116.612ZM107.558 108.366C107.166 108.366 106.862 108.277 106.648 108.1C106.442 107.913 106.34 107.652 106.34 107.316C106.34 106.971 106.442 106.709 106.648 106.532C106.862 106.345 107.166 106.252 107.558 106.252C107.95 106.252 108.248 106.345 108.454 106.532C108.659 106.709 108.762 106.971 108.762 107.316C108.762 107.652 108.659 107.913 108.454 108.1C108.248 108.277 107.95 108.366 107.558 108.366ZM111.304 116.626C110.958 116.626 110.692 116.533 110.506 116.346C110.328 116.159 110.24 115.893 110.24 115.548V110.578C110.24 110.233 110.328 109.971 110.506 109.794C110.692 109.607 110.949 109.514 111.276 109.514C111.612 109.514 111.868 109.607 112.046 109.794C112.223 109.971 112.312 110.233 112.312 110.578V111.376L112.158 110.914C112.372 110.457 112.69 110.107 113.11 109.864C113.539 109.612 114.024 109.486 114.566 109.486C115.116 109.486 115.569 109.593 115.924 109.808C116.278 110.013 116.544 110.331 116.722 110.76C116.899 111.18 116.988 111.717 116.988 112.37V115.548C116.988 115.893 116.894 116.159 116.708 116.346C116.53 116.533 116.269 116.626 115.924 116.626C115.588 116.626 115.326 116.533 115.14 116.346C114.962 116.159 114.874 115.893 114.874 115.548V112.468C114.874 111.992 114.785 111.651 114.608 111.446C114.44 111.231 114.178 111.124 113.824 111.124C113.376 111.124 113.016 111.264 112.746 111.544C112.484 111.824 112.354 112.197 112.354 112.664V115.548C112.354 116.267 112.004 116.626 111.304 116.626ZM121.24 116.654C120.643 116.654 120.115 116.509 119.658 116.22C119.21 115.931 118.86 115.515 118.608 114.974C118.356 114.433 118.23 113.793 118.23 113.056C118.23 112.319 118.356 111.684 118.608 111.152C118.86 110.62 119.21 110.209 119.658 109.92C120.115 109.631 120.643 109.486 121.24 109.486C121.781 109.486 122.257 109.617 122.668 109.878C123.088 110.139 123.373 110.48 123.522 110.9H123.368V107.582C123.368 107.227 123.457 106.961 123.634 106.784C123.811 106.597 124.073 106.504 124.418 106.504C124.754 106.504 125.015 106.597 125.202 106.784C125.389 106.961 125.482 107.227 125.482 107.582V115.548C125.482 115.893 125.389 116.159 125.202 116.346C125.025 116.533 124.768 116.626 124.432 116.626C124.096 116.626 123.835 116.533 123.648 116.346C123.471 116.159 123.382 115.893 123.382 115.548V114.596L123.536 115.142C123.405 115.599 123.125 115.968 122.696 116.248C122.276 116.519 121.791 116.654 121.24 116.654ZM121.87 115.072C122.178 115.072 122.444 114.997 122.668 114.848C122.892 114.699 123.069 114.479 123.2 114.19C123.331 113.891 123.396 113.513 123.396 113.056C123.396 112.375 123.256 111.875 122.976 111.558C122.696 111.231 122.327 111.068 121.87 111.068C121.571 111.068 121.305 111.138 121.072 111.278C120.848 111.418 120.671 111.637 120.54 111.936C120.419 112.225 120.358 112.599 120.358 113.056C120.358 113.737 120.498 114.246 120.778 114.582C121.058 114.909 121.422 115.072 121.87 115.072ZM130.681 116.654C129.869 116.654 129.169 116.509 128.581 116.22C128.002 115.921 127.554 115.506 127.237 114.974C126.929 114.433 126.775 113.798 126.775 113.07C126.775 112.361 126.924 111.74 127.223 111.208C127.521 110.667 127.937 110.247 128.469 109.948C129.01 109.64 129.621 109.486 130.303 109.486C130.797 109.486 131.245 109.57 131.647 109.738C132.048 109.897 132.393 110.13 132.683 110.438C132.972 110.737 133.191 111.105 133.341 111.544C133.49 111.973 133.565 112.454 133.565 112.986C133.565 113.163 133.509 113.299 133.397 113.392C133.285 113.476 133.121 113.518 132.907 113.518H128.511V112.426H132.039L131.815 112.622C131.815 112.239 131.759 111.922 131.647 111.67C131.535 111.409 131.371 111.213 131.157 111.082C130.951 110.951 130.695 110.886 130.387 110.886C130.041 110.886 129.747 110.965 129.505 111.124C129.262 111.283 129.075 111.511 128.945 111.81C128.814 112.109 128.749 112.468 128.749 112.888V113C128.749 113.709 128.912 114.232 129.239 114.568C129.575 114.904 130.069 115.072 130.723 115.072C130.947 115.072 131.203 115.044 131.493 114.988C131.782 114.932 132.053 114.843 132.305 114.722C132.519 114.619 132.711 114.587 132.879 114.624C133.047 114.652 133.177 114.727 133.271 114.848C133.364 114.969 133.415 115.109 133.425 115.268C133.443 115.427 133.411 115.585 133.327 115.744C133.243 115.893 133.103 116.019 132.907 116.122C132.589 116.299 132.23 116.43 131.829 116.514C131.437 116.607 131.054 116.654 130.681 116.654ZM135.886 116.626C135.532 116.626 135.261 116.533 135.074 116.346C134.888 116.159 134.794 115.893 134.794 115.548V110.578C134.794 110.233 134.883 109.971 135.06 109.794C135.247 109.607 135.504 109.514 135.83 109.514C136.166 109.514 136.423 109.607 136.6 109.794C136.778 109.971 136.866 110.233 136.866 110.578V111.306H136.726C136.838 110.746 137.086 110.312 137.468 110.004C137.851 109.696 138.346 109.523 138.952 109.486C139.186 109.467 139.363 109.528 139.484 109.668C139.615 109.799 139.685 110.018 139.694 110.326C139.713 110.615 139.652 110.844 139.512 111.012C139.382 111.18 139.158 111.283 138.84 111.32L138.518 111.348C137.986 111.395 137.59 111.549 137.328 111.81C137.076 112.071 136.95 112.449 136.95 112.944V115.548C136.95 115.893 136.857 116.159 136.67 116.346C136.493 116.533 136.232 116.626 135.886 116.626Z" fill="#FF7B1D"/>
<path d="M77.608 132.584C77.408 132.584 77.252 132.528 77.14 132.416C77.036 132.304 76.984 132.148 76.984 131.948V124.676C76.984 124.468 77.04 124.312 77.152 124.208C77.264 124.096 77.42 124.04 77.62 124.04H80.488C81.4 124.04 82.104 124.256 82.6 124.688C83.096 125.12 83.344 125.732 83.344 126.524C83.344 127.036 83.232 127.476 83.008 127.844C82.784 128.212 82.456 128.492 82.024 128.684C81.6 128.876 81.088 128.972 80.488 128.972L80.596 128.804H80.908C81.228 128.804 81.504 128.884 81.736 129.044C81.976 129.204 82.192 129.46 82.384 129.812L83.416 131.732C83.496 131.876 83.532 132.016 83.524 132.152C83.524 132.28 83.476 132.384 83.38 132.464C83.292 132.544 83.164 132.584 82.996 132.584C82.82 132.584 82.676 132.548 82.564 132.476C82.46 132.396 82.364 132.28 82.276 132.128L81.016 129.8C80.848 129.488 80.656 129.28 80.44 129.176C80.224 129.064 79.94 129.008 79.588 129.008H78.232V131.948C78.232 132.148 78.18 132.304 78.076 132.416C77.972 132.528 77.816 132.584 77.608 132.584ZM78.232 128.072H80.284C80.892 128.072 81.352 127.944 81.664 127.688C81.976 127.432 82.132 127.052 82.132 126.548C82.132 126.052 81.976 125.676 81.664 125.42C81.352 125.164 80.892 125.036 80.284 125.036H78.232V128.072ZM87.5805 132.608C86.9405 132.608 86.3885 132.488 85.9245 132.248C85.4685 132 85.1125 131.652 84.8565 131.204C84.6085 130.748 84.4845 130.208 84.4845 129.584C84.4845 128.976 84.6085 128.444 84.8565 127.988C85.1045 127.532 85.4445 127.176 85.8765 126.92C86.3085 126.664 86.8005 126.536 87.3525 126.536C87.7605 126.536 88.1245 126.604 88.4445 126.74C88.7645 126.868 89.0365 127.06 89.2605 127.316C89.4925 127.564 89.6645 127.868 89.7765 128.228C89.8965 128.588 89.9565 128.992 89.9565 129.44C89.9565 129.576 89.9165 129.68 89.8365 129.752C89.7565 129.816 89.6365 129.848 89.4765 129.848H85.4445V129.104H89.1405L88.9365 129.272C88.9365 128.872 88.8765 128.532 88.7565 128.252C88.6445 127.972 88.4725 127.76 88.2405 127.616C88.0165 127.464 87.7365 127.388 87.4005 127.388C87.0245 127.388 86.7045 127.476 86.4405 127.652C86.1845 127.828 85.9885 128.072 85.8525 128.384C85.7165 128.696 85.6485 129.06 85.6485 129.476V129.548C85.6485 130.252 85.8125 130.784 86.1405 131.144C86.4765 131.496 86.9605 131.672 87.5925 131.672C87.8325 131.672 88.0845 131.64 88.3485 131.576C88.6205 131.512 88.8765 131.404 89.1165 131.252C89.2525 131.172 89.3725 131.136 89.4765 131.144C89.5885 131.152 89.6765 131.188 89.7405 131.252C89.8125 131.316 89.8565 131.396 89.8725 131.492C89.8885 131.588 89.8725 131.688 89.8245 131.792C89.7765 131.888 89.6925 131.976 89.5725 132.056C89.3005 132.24 88.9845 132.38 88.6245 132.476C88.2645 132.564 87.9165 132.608 87.5805 132.608ZM91.9018 132.584C91.7098 132.584 91.5618 132.532 91.4578 132.428C91.3538 132.316 91.3018 132.164 91.3018 131.972V127.172C91.3018 126.972 91.3538 126.82 91.4578 126.716C91.5618 126.612 91.7058 126.56 91.8898 126.56C92.0818 126.56 92.2258 126.612 92.3218 126.716C92.4258 126.82 92.4778 126.972 92.4778 127.172V128.156L92.3458 127.892C92.5058 127.468 92.7538 127.136 93.0898 126.896C93.4258 126.656 93.8298 126.536 94.3018 126.536C94.7898 126.536 95.1858 126.652 95.4898 126.884C95.7938 127.116 96.0018 127.472 96.1138 127.952H95.9458C96.0978 127.512 96.3578 127.168 96.7258 126.92C97.0938 126.664 97.5218 126.536 98.0098 126.536C98.4578 126.536 98.8258 126.624 99.1138 126.8C99.4018 126.968 99.6178 127.228 99.7618 127.58C99.9058 127.924 99.9778 128.36 99.9778 128.888V131.972C99.9778 132.164 99.9218 132.316 99.8098 132.428C99.7058 132.532 99.5578 132.584 99.3658 132.584C99.1738 132.584 99.0258 132.532 98.9218 132.428C98.8178 132.316 98.7658 132.164 98.7658 131.972V128.948C98.7658 128.452 98.6778 128.088 98.5018 127.856C98.3338 127.624 98.0538 127.508 97.6618 127.508C97.2218 127.508 96.8738 127.66 96.6178 127.964C96.3618 128.268 96.2338 128.688 96.2338 129.224V131.972C96.2338 132.164 96.1818 132.316 96.0778 132.428C95.9738 132.532 95.8258 132.584 95.6338 132.584C95.4418 132.584 95.2898 132.532 95.1778 132.428C95.0738 132.316 95.0218 132.164 95.0218 131.972V128.948C95.0218 128.452 94.9378 128.088 94.7698 127.856C94.6018 127.624 94.3218 127.508 93.9298 127.508C93.4898 127.508 93.1418 127.66 92.8858 127.964C92.6378 128.268 92.5138 128.688 92.5138 129.224V131.972C92.5138 132.38 92.3098 132.584 91.9018 132.584ZM102.272 132.572C102.08 132.572 101.932 132.516 101.828 132.404C101.724 132.284 101.672 132.12 101.672 131.912V127.232C101.672 127.024 101.724 126.864 101.828 126.752C101.932 126.64 102.08 126.584 102.272 126.584C102.464 126.584 102.612 126.64 102.716 126.752C102.828 126.864 102.884 127.024 102.884 127.232V131.912C102.884 132.12 102.832 132.284 102.728 132.404C102.624 132.516 102.472 132.572 102.272 132.572ZM102.272 125.336C102.032 125.336 101.844 125.276 101.708 125.156C101.58 125.036 101.516 124.868 101.516 124.652C101.516 124.428 101.58 124.26 101.708 124.148C101.844 124.028 102.032 123.968 102.272 123.968C102.512 123.968 102.696 124.028 102.824 124.148C102.96 124.26 103.028 124.428 103.028 124.652C103.028 124.868 102.96 125.036 102.824 125.156C102.696 125.276 102.512 125.336 102.272 125.336ZM105.19 132.584C104.998 132.584 104.85 132.532 104.746 132.428C104.642 132.316 104.59 132.164 104.59 131.972V127.172C104.59 126.972 104.642 126.82 104.746 126.716C104.85 126.612 104.994 126.56 105.178 126.56C105.37 126.56 105.514 126.612 105.61 126.716C105.714 126.82 105.766 126.972 105.766 127.172V128.108L105.634 127.892C105.81 127.444 106.086 127.108 106.462 126.884C106.838 126.652 107.27 126.536 107.758 126.536C108.222 126.536 108.606 126.624 108.91 126.8C109.222 126.968 109.454 127.228 109.606 127.58C109.758 127.924 109.834 128.36 109.834 128.888V131.972C109.834 132.164 109.782 132.316 109.678 132.428C109.574 132.532 109.426 132.584 109.234 132.584C109.034 132.584 108.882 132.532 108.778 132.428C108.674 132.316 108.622 132.164 108.622 131.972V128.96C108.622 128.456 108.522 128.088 108.322 127.856C108.13 127.624 107.826 127.508 107.41 127.508C106.922 127.508 106.53 127.66 106.234 127.964C105.946 128.268 105.802 128.676 105.802 129.188V131.972C105.802 132.38 105.598 132.584 105.19 132.584ZM113.736 132.608C113.224 132.608 112.772 132.488 112.38 132.248C111.996 132 111.696 131.648 111.48 131.192C111.264 130.728 111.156 130.188 111.156 129.572C111.156 128.94 111.264 128.4 111.48 127.952C111.696 127.504 111.996 127.156 112.38 126.908C112.772 126.66 113.224 126.536 113.736 126.536C114.248 126.536 114.688 126.664 115.056 126.92C115.432 127.168 115.684 127.504 115.812 127.928H115.68V124.568C115.68 124.368 115.732 124.216 115.836 124.112C115.94 124.008 116.088 123.956 116.28 123.956C116.472 123.956 116.62 124.008 116.724 124.112C116.836 124.216 116.892 124.368 116.892 124.568V131.972C116.892 132.164 116.84 132.316 116.736 132.428C116.632 132.532 116.484 132.584 116.292 132.584C116.1 132.584 115.952 132.532 115.848 132.428C115.744 132.316 115.692 132.164 115.692 131.972V130.916L115.824 131.18C115.696 131.612 115.444 131.96 115.068 132.224C114.7 132.48 114.256 132.608 113.736 132.608ZM114.048 131.672C114.376 131.672 114.664 131.592 114.912 131.432C115.16 131.272 115.352 131.036 115.488 130.724C115.632 130.412 115.704 130.028 115.704 129.572C115.704 128.884 115.552 128.364 115.248 128.012C114.944 127.66 114.544 127.484 114.048 127.484C113.712 127.484 113.42 127.564 113.172 127.724C112.924 127.876 112.728 128.108 112.584 128.42C112.448 128.732 112.38 129.116 112.38 129.572C112.38 130.252 112.532 130.772 112.836 131.132C113.14 131.492 113.544 131.672 114.048 131.672ZM121.342 132.608C120.702 132.608 120.15 132.488 119.686 132.248C119.23 132 118.874 131.652 118.618 131.204C118.37 130.748 118.246 130.208 118.246 129.584C118.246 128.976 118.37 128.444 118.618 127.988C118.866 127.532 119.206 127.176 119.638 126.92C120.07 126.664 120.562 126.536 121.114 126.536C121.522 126.536 121.886 126.604 122.206 126.74C122.526 126.868 122.798 127.06 123.022 127.316C123.254 127.564 123.426 127.868 123.538 128.228C123.658 128.588 123.718 128.992 123.718 129.44C123.718 129.576 123.678 129.68 123.598 129.752C123.518 129.816 123.398 129.848 123.238 129.848H119.206V129.104H122.902L122.698 129.272C122.698 128.872 122.638 128.532 122.518 128.252C122.406 127.972 122.234 127.76 122.002 127.616C121.778 127.464 121.498 127.388 121.162 127.388C120.786 127.388 120.466 127.476 120.202 127.652C119.946 127.828 119.75 128.072 119.614 128.384C119.478 128.696 119.41 129.06 119.41 129.476V129.548C119.41 130.252 119.574 130.784 119.902 131.144C120.238 131.496 120.722 131.672 121.354 131.672C121.594 131.672 121.846 131.64 122.11 131.576C122.382 131.512 122.638 131.404 122.878 131.252C123.014 131.172 123.134 131.136 123.238 131.144C123.35 131.152 123.438 131.188 123.502 131.252C123.574 131.316 123.618 131.396 123.634 131.492C123.65 131.588 123.634 131.688 123.586 131.792C123.538 131.888 123.454 131.976 123.334 132.056C123.062 132.24 122.746 132.38 122.386 132.476C122.026 132.564 121.678 132.608 121.342 132.608ZM125.652 132.584C125.452 132.584 125.3 132.532 125.196 132.428C125.092 132.316 125.04 132.164 125.04 131.972V127.172C125.04 126.972 125.092 126.82 125.196 126.716C125.3 126.612 125.444 126.56 125.628 126.56C125.82 126.56 125.964 126.612 126.06 126.716C126.164 126.82 126.216 126.972 126.216 127.172V128.048H126.096C126.224 127.568 126.46 127.204 126.804 126.956C127.148 126.708 127.588 126.564 128.124 126.524C128.268 126.516 128.38 126.552 128.46 126.632C128.548 126.712 128.596 126.836 128.604 127.004C128.62 127.172 128.584 127.308 128.496 127.412C128.408 127.508 128.272 127.564 128.088 127.58L127.86 127.604C127.34 127.652 126.944 127.816 126.672 128.096C126.4 128.376 126.264 128.76 126.264 129.248V131.972C126.264 132.164 126.212 132.316 126.108 132.428C126.012 132.532 125.86 132.584 125.652 132.584ZM130.268 132.548C130.036 132.548 129.848 132.476 129.704 132.332C129.56 132.188 129.488 132.004 129.488 131.78C129.488 131.556 129.56 131.376 129.704 131.24C129.848 131.096 130.036 131.024 130.268 131.024C130.5 131.024 130.684 131.096 130.82 131.24C130.956 131.376 131.024 131.556 131.024 131.78C131.024 132.004 130.956 132.188 130.82 132.332C130.684 132.476 130.5 132.548 130.268 132.548ZM130.268 128.12C130.036 128.12 129.848 128.048 129.704 127.904C129.56 127.76 129.488 127.58 129.488 127.364C129.488 127.132 129.56 126.948 129.704 126.812C129.848 126.668 130.036 126.596 130.268 126.596C130.5 126.596 130.684 126.668 130.82 126.812C130.956 126.948 131.024 127.132 131.024 127.364C131.024 127.58 130.956 127.76 130.82 127.904C130.684 128.048 130.5 128.12 130.268 128.12ZM138.476 132.584C138.276 132.584 138.12 132.528 138.008 132.416C137.904 132.304 137.852 132.144 137.852 131.936V128.132L138.128 128.924L135.164 124.808C135.076 124.688 135.036 124.564 135.044 124.436C135.052 124.3 135.104 124.188 135.2 124.1C135.304 124.004 135.44 123.956 135.608 123.956C135.736 123.956 135.852 123.988 135.956 124.052C136.068 124.116 136.172 124.216 136.268 124.352L138.644 127.652H138.356L140.732 124.352C140.836 124.208 140.936 124.108 141.032 124.052C141.128 123.988 141.248 123.956 141.392 123.956C141.56 123.956 141.688 124 141.776 124.088C141.872 124.168 141.92 124.276 141.92 124.412C141.928 124.54 141.88 124.676 141.776 124.82L138.836 128.924L139.088 128.132V131.936C139.088 132.368 138.884 132.584 138.476 132.584ZM144.541 132.608C143.949 132.608 143.437 132.484 143.005 132.236C142.581 131.988 142.249 131.636 142.009 131.18C141.769 130.724 141.649 130.188 141.649 129.572C141.649 129.1 141.717 128.68 141.853 128.312C141.989 127.944 142.181 127.628 142.429 127.364C142.685 127.092 142.989 126.888 143.341 126.752C143.701 126.608 144.101 126.536 144.541 126.536C145.125 126.536 145.629 126.66 146.053 126.908C146.485 127.156 146.821 127.508 147.061 127.964C147.301 128.412 147.421 128.948 147.421 129.572C147.421 130.036 147.353 130.456 147.217 130.832C147.081 131.208 146.885 131.528 146.629 131.792C146.381 132.056 146.077 132.26 145.717 132.404C145.365 132.54 144.973 132.608 144.541 132.608ZM144.541 131.672C144.869 131.672 145.157 131.592 145.405 131.432C145.653 131.272 145.845 131.036 145.981 130.724C146.125 130.412 146.197 130.028 146.197 129.572C146.197 128.884 146.045 128.364 145.741 128.012C145.437 127.66 145.037 127.484 144.541 127.484C144.205 127.484 143.913 127.564 143.665 127.724C143.417 127.876 143.221 128.108 143.077 128.42C142.941 128.732 142.873 129.116 142.873 129.572C142.873 130.252 143.025 130.772 143.329 131.132C143.633 131.492 144.037 131.672 144.541 131.672ZM150.87 132.608C150.398 132.608 150.002 132.52 149.682 132.344C149.37 132.168 149.134 131.908 148.974 131.564C148.822 131.212 148.746 130.772 148.746 130.244V127.172C148.746 126.964 148.798 126.812 148.902 126.716C149.006 126.612 149.154 126.56 149.346 126.56C149.538 126.56 149.686 126.612 149.79 126.716C149.902 126.812 149.958 126.964 149.958 127.172V130.256C149.958 130.728 150.054 131.076 150.246 131.3C150.438 131.524 150.742 131.636 151.158 131.636C151.614 131.636 151.982 131.484 152.262 131.18C152.55 130.868 152.694 130.46 152.694 129.956V127.172C152.694 126.964 152.746 126.812 152.85 126.716C152.954 126.612 153.106 126.56 153.306 126.56C153.498 126.56 153.646 126.612 153.75 126.716C153.854 126.812 153.906 126.964 153.906 127.172V131.972C153.906 132.38 153.71 132.584 153.318 132.584C153.134 132.584 152.99 132.532 152.886 132.428C152.782 132.316 152.73 132.164 152.73 131.972V130.952L152.886 131.216C152.726 131.664 152.47 132.008 152.118 132.248C151.766 132.488 151.35 132.608 150.87 132.608ZM156.226 132.584C156.026 132.584 155.874 132.532 155.77 132.428C155.666 132.316 155.614 132.164 155.614 131.972V127.172C155.614 126.972 155.666 126.82 155.77 126.716C155.874 126.612 156.018 126.56 156.202 126.56C156.394 126.56 156.538 126.612 156.634 126.716C156.738 126.82 156.79 126.972 156.79 127.172V128.048H156.67C156.798 127.568 157.034 127.204 157.378 126.956C157.722 126.708 158.162 126.564 158.698 126.524C158.842 126.516 158.954 126.552 159.034 126.632C159.122 126.712 159.17 126.836 159.178 127.004C159.194 127.172 159.158 127.308 159.07 127.412C158.982 127.508 158.846 127.564 158.662 127.58L158.434 127.604C157.914 127.652 157.518 127.816 157.246 128.096C156.974 128.376 156.838 128.76 156.838 129.248V131.972C156.838 132.164 156.786 132.316 156.682 132.428C156.586 132.532 156.434 132.584 156.226 132.584ZM165.306 132.608C164.954 132.608 164.59 132.568 164.214 132.488C163.846 132.408 163.506 132.272 163.194 132.08C163.09 132.008 163.018 131.928 162.978 131.84C162.938 131.752 162.922 131.664 162.93 131.576C162.946 131.48 162.982 131.4 163.038 131.336C163.102 131.264 163.178 131.22 163.266 131.204C163.362 131.188 163.462 131.208 163.566 131.264C163.878 131.44 164.178 131.564 164.466 131.636C164.754 131.7 165.038 131.732 165.318 131.732C165.742 131.732 166.062 131.656 166.278 131.504C166.494 131.352 166.602 131.148 166.602 130.892C166.602 130.684 166.53 130.524 166.386 130.412C166.242 130.292 166.026 130.2 165.738 130.136L164.598 129.908C164.102 129.804 163.726 129.62 163.47 129.356C163.214 129.092 163.086 128.756 163.086 128.348C163.086 127.98 163.186 127.66 163.386 127.388C163.586 127.116 163.866 126.908 164.226 126.764C164.586 126.612 165.002 126.536 165.474 126.536C165.826 126.536 166.158 126.58 166.47 126.668C166.782 126.756 167.07 126.888 167.334 127.064C167.438 127.12 167.506 127.196 167.538 127.292C167.57 127.38 167.574 127.468 167.55 127.556C167.534 127.644 167.494 127.724 167.43 127.796C167.366 127.86 167.286 127.9 167.19 127.916C167.102 127.924 167.002 127.9 166.89 127.844C166.65 127.692 166.41 127.584 166.17 127.52C165.938 127.456 165.706 127.424 165.474 127.424C165.05 127.424 164.73 127.504 164.514 127.664C164.306 127.816 164.202 128.024 164.202 128.288C164.202 128.488 164.266 128.652 164.394 128.78C164.522 128.908 164.722 129 164.994 129.056L166.134 129.284C166.654 129.388 167.046 129.564 167.31 129.812C167.582 130.06 167.718 130.396 167.718 130.82C167.718 131.372 167.498 131.808 167.058 132.128C166.618 132.448 166.034 132.608 165.306 132.608ZM171.815 132.608C171.175 132.608 170.623 132.488 170.159 132.248C169.703 132 169.347 131.652 169.091 131.204C168.843 130.748 168.719 130.208 168.719 129.584C168.719 128.976 168.843 128.444 169.091 127.988C169.339 127.532 169.679 127.176 170.111 126.92C170.543 126.664 171.035 126.536 171.587 126.536C171.995 126.536 172.359 126.604 172.679 126.74C172.999 126.868 173.271 127.06 173.495 127.316C173.727 127.564 173.899 127.868 174.011 128.228C174.131 128.588 174.191 128.992 174.191 129.44C174.191 129.576 174.151 129.68 174.071 129.752C173.991 129.816 173.871 129.848 173.711 129.848H169.679V129.104H173.375L173.171 129.272C173.171 128.872 173.111 128.532 172.991 128.252C172.879 127.972 172.707 127.76 172.475 127.616C172.251 127.464 171.971 127.388 171.635 127.388C171.259 127.388 170.939 127.476 170.675 127.652C170.419 127.828 170.223 128.072 170.087 128.384C169.951 128.696 169.883 129.06 169.883 129.476V129.548C169.883 130.252 170.047 130.784 170.375 131.144C170.711 131.496 171.195 131.672 171.827 131.672C172.067 131.672 172.319 131.64 172.583 131.576C172.855 131.512 173.111 131.404 173.351 131.252C173.487 131.172 173.607 131.136 173.711 131.144C173.823 131.152 173.911 131.188 173.975 131.252C174.047 131.316 174.091 131.396 174.107 131.492C174.123 131.588 174.107 131.688 174.059 131.792C174.011 131.888 173.927 131.976 173.807 132.056C173.535 132.24 173.219 132.38 172.859 132.476C172.499 132.564 172.151 132.608 171.815 132.608ZM177.564 132.608C177.212 132.608 176.848 132.568 176.472 132.488C176.104 132.408 175.764 132.272 175.452 132.08C175.348 132.008 175.276 131.928 175.236 131.84C175.196 131.752 175.18 131.664 175.188 131.576C175.204 131.48 175.24 131.4 175.296 131.336C175.36 131.264 175.436 131.22 175.524 131.204C175.62 131.188 175.72 131.208 175.824 131.264C176.136 131.44 176.436 131.564 176.724 131.636C177.012 131.7 177.296 131.732 177.576 131.732C178 131.732 178.32 131.656 178.536 131.504C178.752 131.352 178.86 131.148 178.86 130.892C178.86 130.684 178.788 130.524 178.644 130.412C178.5 130.292 178.284 130.2 177.996 130.136L176.856 129.908C176.36 129.804 175.984 129.62 175.728 129.356C175.472 129.092 175.344 128.756 175.344 128.348C175.344 127.98 175.444 127.66 175.644 127.388C175.844 127.116 176.124 126.908 176.484 126.764C176.844 126.612 177.26 126.536 177.732 126.536C178.084 126.536 178.416 126.58 178.728 126.668C179.04 126.756 179.328 126.888 179.592 127.064C179.696 127.12 179.764 127.196 179.796 127.292C179.828 127.38 179.832 127.468 179.808 127.556C179.792 127.644 179.752 127.724 179.688 127.796C179.624 127.86 179.544 127.9 179.448 127.916C179.36 127.924 179.26 127.9 179.148 127.844C178.908 127.692 178.668 127.584 178.428 127.52C178.196 127.456 177.964 127.424 177.732 127.424C177.308 127.424 176.988 127.504 176.772 127.664C176.564 127.816 176.46 128.024 176.46 128.288C176.46 128.488 176.524 128.652 176.652 128.78C176.78 128.908 176.98 129 177.252 129.056L178.392 129.284C178.912 129.388 179.304 129.564 179.568 129.812C179.84 130.06 179.976 130.396 179.976 130.82C179.976 131.372 179.756 131.808 179.316 132.128C178.876 132.448 178.292 132.608 177.564 132.608ZM183.377 132.608C183.025 132.608 182.661 132.568 182.285 132.488C181.917 132.408 181.577 132.272 181.265 132.08C181.161 132.008 181.089 131.928 181.049 131.84C181.009 131.752 180.993 131.664 181.001 131.576C181.017 131.48 181.053 131.4 181.109 131.336C181.173 131.264 181.249 131.22 181.337 131.204C181.433 131.188 181.533 131.208 181.637 131.264C181.949 131.44 182.249 131.564 182.537 131.636C182.825 131.7 183.109 131.732 183.389 131.732C183.813 131.732 184.133 131.656 184.349 131.504C184.565 131.352 184.673 131.148 184.673 130.892C184.673 130.684 184.601 130.524 184.457 130.412C184.313 130.292 184.097 130.2 183.809 130.136L182.669 129.908C182.173 129.804 181.797 129.62 181.541 129.356C181.285 129.092 181.157 128.756 181.157 128.348C181.157 127.98 181.257 127.66 181.457 127.388C181.657 127.116 181.937 126.908 182.297 126.764C182.657 126.612 183.073 126.536 183.545 126.536C183.897 126.536 184.229 126.58 184.541 126.668C184.853 126.756 185.141 126.888 185.405 127.064C185.509 127.12 185.577 127.196 185.609 127.292C185.641 127.38 185.645 127.468 185.621 127.556C185.605 127.644 185.565 127.724 185.501 127.796C185.437 127.86 185.357 127.9 185.261 127.916C185.173 127.924 185.073 127.9 184.961 127.844C184.721 127.692 184.481 127.584 184.241 127.52C184.009 127.456 183.777 127.424 183.545 127.424C183.121 127.424 182.801 127.504 182.585 127.664C182.377 127.816 182.273 128.024 182.273 128.288C182.273 128.488 182.337 128.652 182.465 128.78C182.593 128.908 182.793 129 183.065 129.056L184.205 129.284C184.725 129.388 185.117 129.564 185.381 129.812C185.653 130.06 185.789 130.396 185.789 130.82C185.789 131.372 185.569 131.808 185.129 132.128C184.689 132.448 184.105 132.608 183.377 132.608ZM187.737 132.572C187.545 132.572 187.397 132.516 187.293 132.404C187.189 132.284 187.137 132.12 187.137 131.912V127.232C187.137 127.024 187.189 126.864 187.293 126.752C187.397 126.64 187.545 126.584 187.737 126.584C187.929 126.584 188.077 126.64 188.181 126.752C188.293 126.864 188.349 127.024 188.349 127.232V131.912C188.349 132.12 188.297 132.284 188.193 132.404C188.089 132.516 187.937 132.572 187.737 132.572ZM187.737 125.336C187.497 125.336 187.309 125.276 187.173 125.156C187.045 125.036 186.981 124.868 186.981 124.652C186.981 124.428 187.045 124.26 187.173 124.148C187.309 124.028 187.497 123.968 187.737 123.968C187.977 123.968 188.161 124.028 188.289 124.148C188.425 124.26 188.493 124.428 188.493 124.652C188.493 124.868 188.425 125.036 188.289 125.156C188.161 125.276 187.977 125.336 187.737 125.336ZM192.599 132.608C192.007 132.608 191.495 132.484 191.063 132.236C190.639 131.988 190.307 131.636 190.067 131.18C189.827 130.724 189.707 130.188 189.707 129.572C189.707 129.1 189.775 128.68 189.911 128.312C190.047 127.944 190.239 127.628 190.487 127.364C190.743 127.092 191.047 126.888 191.399 126.752C191.759 126.608 192.159 126.536 192.599 126.536C193.183 126.536 193.687 126.66 194.111 126.908C194.543 127.156 194.879 127.508 195.119 127.964C195.359 128.412 195.479 128.948 195.479 129.572C195.479 130.036 195.411 130.456 195.275 130.832C195.139 131.208 194.943 131.528 194.687 131.792C194.439 132.056 194.135 132.26 193.775 132.404C193.423 132.54 193.031 132.608 192.599 132.608ZM192.599 131.672C192.927 131.672 193.215 131.592 193.463 131.432C193.711 131.272 193.903 131.036 194.039 130.724C194.183 130.412 194.255 130.028 194.255 129.572C194.255 128.884 194.103 128.364 193.799 128.012C193.495 127.66 193.095 127.484 192.599 127.484C192.263 127.484 191.971 127.564 191.723 127.724C191.475 127.876 191.279 128.108 191.135 128.42C190.999 128.732 190.931 129.116 190.931 129.572C190.931 130.252 191.083 130.772 191.387 131.132C191.691 131.492 192.095 131.672 192.599 131.672ZM197.44 132.584C197.248 132.584 197.1 132.532 196.996 132.428C196.892 132.316 196.84 132.164 196.84 131.972V127.172C196.84 126.972 196.892 126.82 196.996 126.716C197.1 126.612 197.244 126.56 197.428 126.56C197.62 126.56 197.764 126.612 197.86 126.716C197.964 126.82 198.016 126.972 198.016 127.172V128.108L197.884 127.892C198.06 127.444 198.336 127.108 198.712 126.884C199.088 126.652 199.52 126.536 200.008 126.536C200.472 126.536 200.856 126.624 201.16 126.8C201.472 126.968 201.704 127.228 201.856 127.58C202.008 127.924 202.084 128.36 202.084 128.888V131.972C202.084 132.164 202.032 132.316 201.928 132.428C201.824 132.532 201.676 132.584 201.484 132.584C201.284 132.584 201.132 132.532 201.028 132.428C200.924 132.316 200.872 132.164 200.872 131.972V128.96C200.872 128.456 200.772 128.088 200.572 127.856C200.38 127.624 200.076 127.508 199.66 127.508C199.172 127.508 198.78 127.66 198.484 127.964C198.196 128.268 198.052 128.676 198.052 129.188V131.972C198.052 132.38 197.848 132.584 197.44 132.584ZM209.054 132.584C208.886 132.584 208.738 132.544 208.61 132.464C208.49 132.376 208.394 132.24 208.322 132.056L206.558 127.388C206.494 127.228 206.474 127.088 206.498 126.968C206.522 126.84 206.582 126.74 206.678 126.668C206.782 126.596 206.914 126.56 207.074 126.56C207.218 126.56 207.334 126.596 207.422 126.668C207.518 126.732 207.598 126.86 207.662 127.052L209.234 131.48H208.946L210.578 127.004C210.634 126.852 210.71 126.74 210.806 126.668C210.902 126.596 211.026 126.56 211.178 126.56C211.33 126.56 211.454 126.596 211.55 126.668C211.654 126.74 211.73 126.852 211.778 127.004L213.374 131.48H213.11L214.706 127.028C214.77 126.844 214.85 126.72 214.946 126.656C215.05 126.592 215.166 126.56 215.294 126.56C215.454 126.56 215.574 126.6 215.654 126.68C215.742 126.76 215.79 126.864 215.798 126.992C215.814 127.112 215.794 127.244 215.738 127.388L213.974 132.056C213.902 132.232 213.802 132.364 213.674 132.452C213.554 132.54 213.414 132.584 213.254 132.584C213.086 132.584 212.938 132.54 212.81 132.452C212.69 132.364 212.594 132.232 212.522 132.056L210.842 127.508H211.442L209.774 132.056C209.71 132.232 209.614 132.364 209.486 132.452C209.366 132.54 209.222 132.584 209.054 132.584ZM217.667 132.572C217.475 132.572 217.327 132.516 217.223 132.404C217.119 132.284 217.067 132.12 217.067 131.912V127.232C217.067 127.024 217.119 126.864 217.223 126.752C217.327 126.64 217.475 126.584 217.667 126.584C217.859 126.584 218.007 126.64 218.111 126.752C218.223 126.864 218.279 127.024 218.279 127.232V131.912C218.279 132.12 218.227 132.284 218.123 132.404C218.019 132.516 217.867 132.572 217.667 132.572ZM217.667 125.336C217.427 125.336 217.239 125.276 217.103 125.156C216.975 125.036 216.911 124.868 216.911 124.652C216.911 124.428 216.975 124.26 217.103 124.148C217.239 124.028 217.427 123.968 217.667 123.968C217.907 123.968 218.091 124.028 218.219 124.148C218.355 124.26 218.423 124.428 218.423 124.652C218.423 124.868 218.355 125.036 218.219 125.156C218.091 125.276 217.907 125.336 217.667 125.336ZM221.869 132.608C221.245 132.608 220.773 132.428 220.453 132.068C220.141 131.7 219.985 131.172 219.985 130.484V124.568C219.985 124.368 220.037 124.216 220.141 124.112C220.245 124.008 220.393 123.956 220.585 123.956C220.777 123.956 220.925 124.008 221.029 124.112C221.141 124.216 221.197 124.368 221.197 124.568V130.412C221.197 130.812 221.277 131.112 221.437 131.312C221.605 131.504 221.845 131.6 222.157 131.6C222.229 131.6 222.293 131.6 222.349 131.6C222.405 131.592 222.461 131.584 222.517 131.576C222.613 131.568 222.681 131.596 222.721 131.66C222.761 131.716 222.781 131.836 222.781 132.02C222.781 132.188 222.745 132.32 222.673 132.416C222.601 132.504 222.485 132.56 222.325 132.584C222.253 132.592 222.177 132.596 222.097 132.596C222.017 132.604 221.941 132.608 221.869 132.608ZM225.537 132.608C224.913 132.608 224.441 132.428 224.121 132.068C223.809 131.7 223.653 131.172 223.653 130.484V124.568C223.653 124.368 223.705 124.216 223.809 124.112C223.913 124.008 224.061 123.956 224.253 123.956C224.445 123.956 224.593 124.008 224.697 124.112C224.809 124.216 224.865 124.368 224.865 124.568V130.412C224.865 130.812 224.945 131.112 225.105 131.312C225.273 131.504 225.513 131.6 225.825 131.6C225.897 131.6 225.961 131.6 226.017 131.6C226.073 131.592 226.129 131.584 226.185 131.576C226.281 131.568 226.349 131.596 226.389 131.66C226.429 131.716 226.449 131.836 226.449 132.02C226.449 132.188 226.413 132.32 226.341 132.416C226.269 132.504 226.153 132.56 225.993 132.584C225.921 132.592 225.845 132.596 225.765 132.596C225.685 132.604 225.609 132.608 225.537 132.608ZM233.233 132.608C232.593 132.608 232.041 132.488 231.577 132.248C231.121 132 230.765 131.652 230.509 131.204C230.261 130.748 230.137 130.208 230.137 129.584C230.137 128.976 230.261 128.444 230.509 127.988C230.757 127.532 231.097 127.176 231.529 126.92C231.961 126.664 232.453 126.536 233.005 126.536C233.413 126.536 233.777 126.604 234.097 126.74C234.417 126.868 234.689 127.06 234.913 127.316C235.145 127.564 235.317 127.868 235.429 128.228C235.549 128.588 235.609 128.992 235.609 129.44C235.609 129.576 235.569 129.68 235.489 129.752C235.409 129.816 235.289 129.848 235.129 129.848H231.097V129.104H234.793L234.589 129.272C234.589 128.872 234.529 128.532 234.409 128.252C234.297 127.972 234.125 127.76 233.893 127.616C233.669 127.464 233.389 127.388 233.053 127.388C232.677 127.388 232.357 127.476 232.093 127.652C231.837 127.828 231.641 128.072 231.505 128.384C231.369 128.696 231.301 129.06 231.301 129.476V129.548C231.301 130.252 231.465 130.784 231.793 131.144C232.129 131.496 232.613 131.672 233.245 131.672C233.485 131.672 233.737 131.64 234.001 131.576C234.273 131.512 234.529 131.404 234.769 131.252C234.905 131.172 235.025 131.136 235.129 131.144C235.241 131.152 235.329 131.188 235.393 131.252C235.465 131.316 235.509 131.396 235.525 131.492C235.541 131.588 235.525 131.688 235.477 131.792C235.429 131.888 235.345 131.976 235.225 132.056C234.953 132.24 234.637 132.38 234.277 132.476C233.917 132.564 233.569 132.608 233.233 132.608ZM237.087 132.572C236.943 132.572 236.823 132.532 236.727 132.452C236.639 132.364 236.591 132.256 236.583 132.128C236.583 132 236.639 131.86 236.751 131.708L238.779 129.176V129.776L236.883 127.412C236.755 127.268 236.695 127.132 236.703 127.004C236.711 126.868 236.763 126.76 236.859 126.68C236.955 126.6 237.071 126.56 237.207 126.56C237.359 126.56 237.483 126.588 237.579 126.644C237.683 126.692 237.779 126.776 237.867 126.896L239.463 128.924H239.031L240.639 126.896C240.727 126.776 240.819 126.692 240.915 126.644C241.019 126.588 241.143 126.56 241.287 126.56C241.431 126.56 241.547 126.604 241.635 126.692C241.731 126.772 241.779 126.88 241.779 127.016C241.787 127.144 241.731 127.28 241.611 127.424L239.715 129.752V129.212L241.743 131.708C241.863 131.852 241.919 131.992 241.911 132.128C241.911 132.256 241.863 132.364 241.767 132.452C241.671 132.532 241.551 132.572 241.407 132.572C241.263 132.572 241.139 132.544 241.035 132.488C240.939 132.432 240.843 132.348 240.747 132.236L239.031 130.076H239.439L237.735 132.236C237.647 132.34 237.551 132.424 237.447 132.488C237.351 132.544 237.231 132.572 237.087 132.572ZM243.893 134.744C243.701 134.744 243.553 134.692 243.449 134.588C243.345 134.484 243.293 134.332 243.293 134.132V127.172C243.293 126.972 243.345 126.82 243.449 126.716C243.553 126.612 243.697 126.56 243.881 126.56C244.073 126.56 244.221 126.612 244.325 126.716C244.429 126.82 244.481 126.972 244.481 127.172V128.216L244.349 127.964C244.477 127.532 244.729 127.188 245.105 126.932C245.481 126.668 245.925 126.536 246.437 126.536C246.957 126.536 247.409 126.66 247.793 126.908C248.185 127.156 248.485 127.504 248.693 127.952C248.909 128.4 249.017 128.94 249.017 129.572C249.017 130.188 248.909 130.728 248.693 131.192C248.485 131.648 248.189 132 247.805 132.248C247.421 132.488 246.965 132.608 246.437 132.608C245.933 132.608 245.493 132.48 245.117 132.224C244.741 131.968 244.489 131.628 244.361 131.204H244.505V134.132C244.505 134.332 244.449 134.484 244.337 134.588C244.233 134.692 244.085 134.744 243.893 134.744ZM246.137 131.672C246.473 131.672 246.765 131.592 247.013 131.432C247.261 131.272 247.453 131.036 247.589 130.724C247.725 130.412 247.793 130.028 247.793 129.572C247.793 128.884 247.641 128.364 247.337 128.012C247.041 127.66 246.641 127.484 246.137 127.484C245.809 127.484 245.517 127.564 245.261 127.724C245.013 127.876 244.821 128.108 244.685 128.42C244.549 128.732 244.481 129.116 244.481 129.572C244.481 130.252 244.633 130.772 244.937 131.132C245.241 131.492 245.641 131.672 246.137 131.672ZM250.983 132.572C250.791 132.572 250.643 132.516 250.539 132.404C250.435 132.284 250.383 132.12 250.383 131.912V127.232C250.383 127.024 250.435 126.864 250.539 126.752C250.643 126.64 250.791 126.584 250.983 126.584C251.175 126.584 251.323 126.64 251.427 126.752C251.539 126.864 251.595 127.024 251.595 127.232V131.912C251.595 132.12 251.543 132.284 251.439 132.404C251.335 132.516 251.183 132.572 250.983 132.572ZM250.983 125.336C250.743 125.336 250.555 125.276 250.419 125.156C250.291 125.036 250.227 124.868 250.227 124.652C250.227 124.428 250.291 124.26 250.419 124.148C250.555 124.028 250.743 123.968 250.983 123.968C251.223 123.968 251.407 124.028 251.535 124.148C251.671 124.26 251.739 124.428 251.739 124.652C251.739 124.868 251.671 125.036 251.535 125.156C251.407 125.276 251.223 125.336 250.983 125.336ZM253.913 132.584C253.713 132.584 253.561 132.532 253.457 132.428C253.353 132.316 253.301 132.164 253.301 131.972V127.172C253.301 126.972 253.353 126.82 253.457 126.716C253.561 126.612 253.705 126.56 253.889 126.56C254.081 126.56 254.225 126.612 254.321 126.716C254.425 126.82 254.477 126.972 254.477 127.172V128.048H254.357C254.485 127.568 254.721 127.204 255.065 126.956C255.409 126.708 255.849 126.564 256.385 126.524C256.529 126.516 256.641 126.552 256.721 126.632C256.809 126.712 256.857 126.836 256.865 127.004C256.881 127.172 256.845 127.308 256.757 127.412C256.669 127.508 256.533 127.564 256.349 127.58L256.121 127.604C255.601 127.652 255.205 127.816 254.933 128.096C254.661 128.376 254.525 128.76 254.525 129.248V131.972C254.525 132.164 254.473 132.316 254.369 132.428C254.273 132.532 254.121 132.584 253.913 132.584ZM260.444 132.608C259.804 132.608 259.252 132.488 258.788 132.248C258.332 132 257.976 131.652 257.72 131.204C257.472 130.748 257.348 130.208 257.348 129.584C257.348 128.976 257.472 128.444 257.72 127.988C257.968 127.532 258.308 127.176 258.74 126.92C259.172 126.664 259.664 126.536 260.216 126.536C260.624 126.536 260.988 126.604 261.308 126.74C261.628 126.868 261.9 127.06 262.124 127.316C262.356 127.564 262.528 127.868 262.64 128.228C262.76 128.588 262.82 128.992 262.82 129.44C262.82 129.576 262.78 129.68 262.7 129.752C262.62 129.816 262.5 129.848 262.34 129.848H258.308V129.104H262.004L261.8 129.272C261.8 128.872 261.74 128.532 261.62 128.252C261.508 127.972 261.336 127.76 261.104 127.616C260.88 127.464 260.6 127.388 260.264 127.388C259.888 127.388 259.568 127.476 259.304 127.652C259.048 127.828 258.852 128.072 258.716 128.384C258.58 128.696 258.512 129.06 258.512 129.476V129.548C258.512 130.252 258.676 130.784 259.004 131.144C259.34 131.496 259.824 131.672 260.456 131.672C260.696 131.672 260.948 131.64 261.212 131.576C261.484 131.512 261.74 131.404 261.98 131.252C262.116 131.172 262.236 131.136 262.34 131.144C262.452 131.152 262.54 131.188 262.604 131.252C262.676 131.316 262.72 131.396 262.736 131.492C262.752 131.588 262.736 131.688 262.688 131.792C262.64 131.888 262.556 131.976 262.436 132.056C262.164 132.24 261.848 132.38 261.488 132.476C261.128 132.564 260.78 132.608 260.444 132.608ZM267.905 132.572C267.713 132.572 267.565 132.516 267.461 132.404C267.357 132.284 267.305 132.12 267.305 131.912V127.232C267.305 127.024 267.357 126.864 267.461 126.752C267.565 126.64 267.713 126.584 267.905 126.584C268.097 126.584 268.245 126.64 268.349 126.752C268.461 126.864 268.517 127.024 268.517 127.232V131.912C268.517 132.12 268.465 132.284 268.361 132.404C268.257 132.516 268.105 132.572 267.905 132.572ZM267.905 125.336C267.665 125.336 267.477 125.276 267.341 125.156C267.213 125.036 267.149 124.868 267.149 124.652C267.149 124.428 267.213 124.26 267.341 124.148C267.477 124.028 267.665 123.968 267.905 123.968C268.145 123.968 268.329 124.028 268.457 124.148C268.593 124.26 268.661 124.428 268.661 124.652C268.661 124.868 268.593 125.036 268.457 125.156C268.329 125.276 268.145 125.336 267.905 125.336ZM270.823 132.584C270.631 132.584 270.483 132.532 270.379 132.428C270.275 132.316 270.223 132.164 270.223 131.972V127.172C270.223 126.972 270.275 126.82 270.379 126.716C270.483 126.612 270.627 126.56 270.811 126.56C271.003 126.56 271.147 126.612 271.243 126.716C271.347 126.82 271.399 126.972 271.399 127.172V128.108L271.267 127.892C271.443 127.444 271.719 127.108 272.095 126.884C272.471 126.652 272.903 126.536 273.391 126.536C273.855 126.536 274.239 126.624 274.543 126.8C274.855 126.968 275.087 127.228 275.239 127.58C275.391 127.924 275.467 128.36 275.467 128.888V131.972C275.467 132.164 275.415 132.316 275.311 132.428C275.207 132.532 275.059 132.584 274.867 132.584C274.667 132.584 274.515 132.532 274.411 132.428C274.307 132.316 274.255 132.164 274.255 131.972V128.96C274.255 128.456 274.155 128.088 273.955 127.856C273.763 127.624 273.459 127.508 273.043 127.508C272.555 127.508 272.163 127.66 271.867 127.964C271.579 128.268 271.435 128.676 271.435 129.188V131.972C271.435 132.38 271.231 132.584 270.823 132.584ZM283.181 132.608C282.741 132.608 282.297 132.548 281.849 132.428C281.401 132.3 280.993 132.104 280.625 131.84C280.505 131.768 280.425 131.676 280.385 131.564C280.345 131.452 280.337 131.344 280.361 131.24C280.385 131.128 280.433 131.036 280.505 130.964C280.585 130.892 280.681 130.852 280.793 130.844C280.905 130.828 281.025 130.86 281.153 130.94C281.465 131.14 281.785 131.292 282.113 131.396C282.449 131.5 282.797 131.552 283.157 131.552C283.525 131.552 283.841 131.484 284.105 131.348C284.369 131.212 284.569 131.024 284.705 130.784C284.849 130.536 284.921 130.248 284.921 129.92C284.921 129.416 284.773 129.004 284.477 128.684C284.181 128.364 283.769 128.204 283.241 128.204C282.937 128.204 282.653 128.26 282.389 128.372C282.125 128.476 281.873 128.652 281.633 128.9C281.577 128.964 281.501 129.024 281.405 129.08C281.317 129.128 281.217 129.152 281.105 129.152C280.937 129.152 280.809 129.108 280.721 129.02C280.633 128.932 280.589 128.812 280.589 128.66V124.592C280.589 124.416 280.637 124.28 280.733 124.184C280.829 124.088 280.965 124.04 281.141 124.04H285.161C285.337 124.04 285.473 124.084 285.569 124.172C285.665 124.26 285.713 124.388 285.713 124.556C285.713 124.724 285.665 124.856 285.569 124.952C285.473 125.04 285.337 125.084 285.161 125.084H281.801V128.132H281.465C281.681 127.828 281.965 127.592 282.317 127.424C282.677 127.256 283.073 127.172 283.505 127.172C284.041 127.172 284.505 127.284 284.897 127.508C285.289 127.732 285.593 128.048 285.809 128.456C286.025 128.856 286.133 129.324 286.133 129.86C286.133 130.404 286.013 130.884 285.773 131.3C285.533 131.708 285.193 132.028 284.753 132.26C284.313 132.492 283.789 132.608 283.181 132.608ZM291.285 132.584C291.093 132.584 290.945 132.532 290.841 132.428C290.737 132.316 290.685 132.164 290.685 131.972V127.172C290.685 126.972 290.737 126.82 290.841 126.716C290.945 126.612 291.089 126.56 291.273 126.56C291.465 126.56 291.609 126.612 291.705 126.716C291.809 126.82 291.861 126.972 291.861 127.172V128.156L291.729 127.892C291.889 127.468 292.137 127.136 292.473 126.896C292.809 126.656 293.213 126.536 293.685 126.536C294.173 126.536 294.569 126.652 294.873 126.884C295.177 127.116 295.385 127.472 295.497 127.952H295.329C295.481 127.512 295.741 127.168 296.109 126.92C296.477 126.664 296.905 126.536 297.393 126.536C297.841 126.536 298.209 126.624 298.497 126.8C298.785 126.968 299.001 127.228 299.145 127.58C299.289 127.924 299.361 128.36 299.361 128.888V131.972C299.361 132.164 299.305 132.316 299.193 132.428C299.089 132.532 298.941 132.584 298.749 132.584C298.557 132.584 298.409 132.532 298.305 132.428C298.201 132.316 298.149 132.164 298.149 131.972V128.948C298.149 128.452 298.061 128.088 297.885 127.856C297.717 127.624 297.437 127.508 297.045 127.508C296.605 127.508 296.257 127.66 296.001 127.964C295.745 128.268 295.617 128.688 295.617 129.224V131.972C295.617 132.164 295.565 132.316 295.461 132.428C295.357 132.532 295.209 132.584 295.017 132.584C294.825 132.584 294.673 132.532 294.561 132.428C294.457 132.316 294.405 132.164 294.405 131.972V128.948C294.405 128.452 294.321 128.088 294.153 127.856C293.985 127.624 293.705 127.508 293.313 127.508C292.873 127.508 292.525 127.66 292.269 127.964C292.021 128.268 291.897 128.688 291.897 129.224V131.972C291.897 132.38 291.693 132.584 291.285 132.584ZM301.655 132.572C301.463 132.572 301.315 132.516 301.211 132.404C301.107 132.284 301.055 132.12 301.055 131.912V127.232C301.055 127.024 301.107 126.864 301.211 126.752C301.315 126.64 301.463 126.584 301.655 126.584C301.847 126.584 301.995 126.64 302.099 126.752C302.211 126.864 302.267 127.024 302.267 127.232V131.912C302.267 132.12 302.215 132.284 302.111 132.404C302.007 132.516 301.855 132.572 301.655 132.572ZM301.655 125.336C301.415 125.336 301.227 125.276 301.091 125.156C300.963 125.036 300.899 124.868 300.899 124.652C300.899 124.428 300.963 124.26 301.091 124.148C301.227 124.028 301.415 123.968 301.655 123.968C301.895 123.968 302.079 124.028 302.207 124.148C302.343 124.26 302.411 124.428 302.411 124.652C302.411 124.868 302.343 125.036 302.207 125.156C302.079 125.276 301.895 125.336 301.655 125.336ZM304.573 132.584C304.381 132.584 304.233 132.532 304.129 132.428C304.025 132.316 303.973 132.164 303.973 131.972V127.172C303.973 126.972 304.025 126.82 304.129 126.716C304.233 126.612 304.377 126.56 304.561 126.56C304.753 126.56 304.897 126.612 304.993 126.716C305.097 126.82 305.149 126.972 305.149 127.172V128.108L305.017 127.892C305.193 127.444 305.469 127.108 305.845 126.884C306.221 126.652 306.653 126.536 307.141 126.536C307.605 126.536 307.989 126.624 308.293 126.8C308.605 126.968 308.837 127.228 308.989 127.58C309.141 127.924 309.217 128.36 309.217 128.888V131.972C309.217 132.164 309.165 132.316 309.061 132.428C308.957 132.532 308.809 132.584 308.617 132.584C308.417 132.584 308.265 132.532 308.161 132.428C308.057 132.316 308.005 132.164 308.005 131.972V128.96C308.005 128.456 307.905 128.088 307.705 127.856C307.513 127.624 307.209 127.508 306.793 127.508C306.305 127.508 305.913 127.66 305.617 127.964C305.329 128.268 305.185 128.676 305.185 129.188V131.972C305.185 132.38 304.981 132.584 304.573 132.584ZM312.975 132.608C312.503 132.608 312.107 132.52 311.787 132.344C311.475 132.168 311.239 131.908 311.079 131.564C310.927 131.212 310.851 130.772 310.851 130.244V127.172C310.851 126.964 310.903 126.812 311.007 126.716C311.111 126.612 311.259 126.56 311.451 126.56C311.643 126.56 311.791 126.612 311.895 126.716C312.007 126.812 312.063 126.964 312.063 127.172V130.256C312.063 130.728 312.159 131.076 312.351 131.3C312.543 131.524 312.847 131.636 313.263 131.636C313.719 131.636 314.087 131.484 314.367 131.18C314.655 130.868 314.799 130.46 314.799 129.956V127.172C314.799 126.964 314.851 126.812 314.955 126.716C315.059 126.612 315.211 126.56 315.411 126.56C315.603 126.56 315.751 126.612 315.855 126.716C315.959 126.812 316.011 126.964 316.011 127.172V131.972C316.011 132.38 315.815 132.584 315.423 132.584C315.239 132.584 315.095 132.532 314.991 132.428C314.887 132.316 314.835 132.164 314.835 131.972V130.952L314.991 131.216C314.831 131.664 314.575 132.008 314.223 132.248C313.871 132.488 313.455 132.608 312.975 132.608ZM320.215 132.608C319.735 132.608 319.331 132.524 319.003 132.356C318.675 132.188 318.431 131.94 318.271 131.612C318.111 131.284 318.031 130.884 318.031 130.412V127.58H317.311C317.151 127.58 317.027 127.54 316.939 127.46C316.851 127.372 316.807 127.256 316.807 127.112C316.807 126.96 316.851 126.844 316.939 126.764C317.027 126.684 317.151 126.644 317.311 126.644H318.031V125.408C318.031 125.208 318.083 125.056 318.187 124.952C318.299 124.848 318.451 124.796 318.643 124.796C318.835 124.796 318.983 124.848 319.087 124.952C319.191 125.056 319.243 125.208 319.243 125.408V126.644H320.647C320.807 126.644 320.931 126.684 321.019 126.764C321.107 126.844 321.151 126.96 321.151 127.112C321.151 127.256 321.107 127.372 321.019 127.46C320.931 127.54 320.807 127.58 320.647 127.58H319.243V130.316C319.243 130.74 319.331 131.06 319.507 131.276C319.691 131.492 319.987 131.6 320.395 131.6C320.539 131.6 320.663 131.588 320.767 131.564C320.879 131.532 320.971 131.512 321.043 131.504C321.131 131.504 321.203 131.536 321.259 131.6C321.315 131.656 321.343 131.768 321.343 131.936C321.343 132.056 321.319 132.168 321.271 132.272C321.231 132.376 321.155 132.444 321.043 132.476C320.947 132.508 320.815 132.536 320.647 132.56C320.487 132.592 320.343 132.608 320.215 132.608ZM324.791 132.608C324.151 132.608 323.599 132.488 323.135 132.248C322.679 132 322.323 131.652 322.067 131.204C321.819 130.748 321.695 130.208 321.695 129.584C321.695 128.976 321.819 128.444 322.067 127.988C322.315 127.532 322.655 127.176 323.087 126.92C323.519 126.664 324.011 126.536 324.563 126.536C324.971 126.536 325.335 126.604 325.655 126.74C325.975 126.868 326.247 127.06 326.471 127.316C326.703 127.564 326.875 127.868 326.987 128.228C327.107 128.588 327.167 128.992 327.167 129.44C327.167 129.576 327.127 129.68 327.047 129.752C326.967 129.816 326.847 129.848 326.687 129.848H322.655V129.104H326.351L326.147 129.272C326.147 128.872 326.087 128.532 325.967 128.252C325.855 127.972 325.683 127.76 325.451 127.616C325.227 127.464 324.947 127.388 324.611 127.388C324.235 127.388 323.915 127.476 323.651 127.652C323.395 127.828 323.199 128.072 323.063 128.384C322.927 128.696 322.859 129.06 322.859 129.476V129.548C322.859 130.252 323.023 130.784 323.351 131.144C323.687 131.496 324.171 131.672 324.803 131.672C325.043 131.672 325.295 131.64 325.559 131.576C325.831 131.512 326.087 131.404 326.327 131.252C326.463 131.172 326.583 131.136 326.687 131.144C326.799 131.152 326.887 131.188 326.951 131.252C327.023 131.316 327.067 131.396 327.083 131.492C327.099 131.588 327.083 131.688 327.035 131.792C326.987 131.888 326.903 131.976 326.783 132.056C326.511 132.24 326.195 132.38 325.835 132.476C325.475 132.564 325.127 132.608 324.791 132.608ZM330.541 132.608C330.189 132.608 329.825 132.568 329.449 132.488C329.081 132.408 328.741 132.272 328.429 132.08C328.325 132.008 328.253 131.928 328.213 131.84C328.173 131.752 328.157 131.664 328.165 131.576C328.181 131.48 328.217 131.4 328.273 131.336C328.337 131.264 328.413 131.22 328.501 131.204C328.597 131.188 328.697 131.208 328.801 131.264C329.113 131.44 329.413 131.564 329.701 131.636C329.989 131.7 330.273 131.732 330.553 131.732C330.977 131.732 331.297 131.656 331.513 131.504C331.729 131.352 331.837 131.148 331.837 130.892C331.837 130.684 331.765 130.524 331.621 130.412C331.477 130.292 331.261 130.2 330.973 130.136L329.833 129.908C329.337 129.804 328.961 129.62 328.705 129.356C328.449 129.092 328.321 128.756 328.321 128.348C328.321 127.98 328.421 127.66 328.621 127.388C328.821 127.116 329.101 126.908 329.461 126.764C329.821 126.612 330.237 126.536 330.709 126.536C331.061 126.536 331.393 126.58 331.705 126.668C332.017 126.756 332.305 126.888 332.569 127.064C332.673 127.12 332.741 127.196 332.773 127.292C332.805 127.38 332.809 127.468 332.785 127.556C332.769 127.644 332.729 127.724 332.665 127.796C332.601 127.86 332.521 127.9 332.425 127.916C332.337 127.924 332.237 127.9 332.125 127.844C331.885 127.692 331.645 127.584 331.405 127.52C331.173 127.456 330.941 127.424 330.709 127.424C330.285 127.424 329.965 127.504 329.749 127.664C329.541 127.816 329.437 128.024 329.437 128.288C329.437 128.488 329.501 128.652 329.629 128.78C329.757 128.908 329.957 129 330.229 129.056L331.369 129.284C331.889 129.388 332.281 129.564 332.545 129.812C332.817 130.06 332.953 130.396 332.953 130.82C332.953 131.372 332.733 131.808 332.293 132.128C331.853 132.448 331.269 132.608 330.541 132.608ZM334.831 132.548C334.599 132.548 334.411 132.476 334.267 132.332C334.123 132.188 334.051 132.004 334.051 131.78C334.051 131.556 334.123 131.376 334.267 131.24C334.411 131.096 334.599 131.024 334.831 131.024C335.063 131.024 335.247 131.096 335.383 131.24C335.519 131.376 335.587 131.556 335.587 131.78C335.587 132.004 335.519 132.188 335.383 132.332C335.247 132.476 335.063 132.548 334.831 132.548ZM78.988 148.584C78.82 148.584 78.672 148.544 78.544 148.464C78.424 148.376 78.328 148.24 78.256 148.056L76.492 143.388C76.428 143.228 76.408 143.088 76.432 142.968C76.456 142.84 76.516 142.74 76.612 142.668C76.716 142.596 76.848 142.56 77.008 142.56C77.152 142.56 77.268 142.596 77.356 142.668C77.452 142.732 77.532 142.86 77.596 143.052L79.168 147.48H78.88L80.512 143.004C80.568 142.852 80.644 142.74 80.74 142.668C80.836 142.596 80.96 142.56 81.112 142.56C81.264 142.56 81.388 142.596 81.484 142.668C81.588 142.74 81.664 142.852 81.712 143.004L83.308 147.48H83.044L84.64 143.028C84.704 142.844 84.784 142.72 84.88 142.656C84.984 142.592 85.1 142.56 85.228 142.56C85.388 142.56 85.508 142.6 85.588 142.68C85.676 142.76 85.724 142.864 85.732 142.992C85.748 143.112 85.728 143.244 85.672 143.388L83.908 148.056C83.836 148.232 83.736 148.364 83.608 148.452C83.488 148.54 83.348 148.584 83.188 148.584C83.02 148.584 82.872 148.54 82.744 148.452C82.624 148.364 82.528 148.232 82.456 148.056L80.776 143.508H81.376L79.708 148.056C79.644 148.232 79.548 148.364 79.42 148.452C79.3 148.54 79.156 148.584 78.988 148.584ZM87.6004 148.572C87.4084 148.572 87.2604 148.516 87.1564 148.404C87.0524 148.284 87.0004 148.12 87.0004 147.912V143.232C87.0004 143.024 87.0524 142.864 87.1564 142.752C87.2604 142.64 87.4084 142.584 87.6004 142.584C87.7924 142.584 87.9404 142.64 88.0444 142.752C88.1564 142.864 88.2124 143.024 88.2124 143.232V147.912C88.2124 148.12 88.1604 148.284 88.0564 148.404C87.9524 148.516 87.8004 148.572 87.6004 148.572ZM87.6004 141.336C87.3604 141.336 87.1724 141.276 87.0364 141.156C86.9084 141.036 86.8444 140.868 86.8444 140.652C86.8444 140.428 86.9084 140.26 87.0364 140.148C87.1724 140.028 87.3604 139.968 87.6004 139.968C87.8404 139.968 88.0244 140.028 88.1524 140.148C88.2884 140.26 88.3564 140.428 88.3564 140.652C88.3564 140.868 88.2884 141.036 88.1524 141.156C88.0244 141.276 87.8404 141.336 87.6004 141.336ZM91.8024 148.608C91.1784 148.608 90.7064 148.428 90.3864 148.068C90.0744 147.7 89.9184 147.172 89.9184 146.484V140.568C89.9184 140.368 89.9704 140.216 90.0744 140.112C90.1784 140.008 90.3264 139.956 90.5184 139.956C90.7104 139.956 90.8584 140.008 90.9624 140.112C91.0744 140.216 91.1304 140.368 91.1304 140.568V146.412C91.1304 146.812 91.2104 147.112 91.3704 147.312C91.5384 147.504 91.7784 147.6 92.0904 147.6C92.1624 147.6 92.2264 147.6 92.2824 147.6C92.3384 147.592 92.3944 147.584 92.4504 147.576C92.5464 147.568 92.6144 147.596 92.6544 147.66C92.6944 147.716 92.7144 147.836 92.7144 148.02C92.7144 148.188 92.6784 148.32 92.6064 148.416C92.5344 148.504 92.4184 148.56 92.2584 148.584C92.1864 148.592 92.1104 148.596 92.0304 148.596C91.9504 148.604 91.8744 148.608 91.8024 148.608ZM95.4704 148.608C94.8464 148.608 94.3744 148.428 94.0544 148.068C93.7424 147.7 93.5864 147.172 93.5864 146.484V140.568C93.5864 140.368 93.6384 140.216 93.7424 140.112C93.8464 140.008 93.9944 139.956 94.1864 139.956C94.3784 139.956 94.5264 140.008 94.6304 140.112C94.7424 140.216 94.7984 140.368 94.7984 140.568V146.412C94.7984 146.812 94.8784 147.112 95.0384 147.312C95.2064 147.504 95.4464 147.6 95.7584 147.6C95.8304 147.6 95.8944 147.6 95.9504 147.6C96.0064 147.592 96.0624 147.584 96.1184 147.576C96.2144 147.568 96.2824 147.596 96.3224 147.66C96.3624 147.716 96.3824 147.836 96.3824 148.02C96.3824 148.188 96.3464 148.32 96.2744 148.416C96.2024 148.504 96.0864 148.56 95.9264 148.584C95.8544 148.592 95.7784 148.596 95.6984 148.596C95.6184 148.604 95.5424 148.608 95.4704 148.608ZM101.03 148.584C100.83 148.584 100.678 148.532 100.574 148.428C100.47 148.316 100.418 148.164 100.418 147.972V143.172C100.418 142.972 100.47 142.82 100.574 142.716C100.678 142.612 100.822 142.56 101.006 142.56C101.198 142.56 101.342 142.612 101.438 142.716C101.542 142.82 101.594 142.972 101.594 143.172V144.048H101.474C101.602 143.568 101.838 143.204 102.182 142.956C102.526 142.708 102.966 142.564 103.502 142.524C103.646 142.516 103.758 142.552 103.838 142.632C103.926 142.712 103.974 142.836 103.982 143.004C103.998 143.172 103.962 143.308 103.874 143.412C103.786 143.508 103.65 143.564 103.466 143.58L103.238 143.604C102.718 143.652 102.322 143.816 102.05 144.096C101.778 144.376 101.642 144.76 101.642 145.248V147.972C101.642 148.164 101.59 148.316 101.486 148.428C101.39 148.532 101.238 148.584 101.03 148.584ZM107.561 148.608C106.921 148.608 106.369 148.488 105.905 148.248C105.449 148 105.093 147.652 104.837 147.204C104.589 146.748 104.465 146.208 104.465 145.584C104.465 144.976 104.589 144.444 104.837 143.988C105.085 143.532 105.425 143.176 105.857 142.92C106.289 142.664 106.781 142.536 107.333 142.536C107.741 142.536 108.105 142.604 108.425 142.74C108.745 142.868 109.017 143.06 109.241 143.316C109.473 143.564 109.645 143.868 109.757 144.228C109.877 144.588 109.937 144.992 109.937 145.44C109.937 145.576 109.897 145.68 109.817 145.752C109.737 145.816 109.617 145.848 109.457 145.848H105.425V145.104H109.121L108.917 145.272C108.917 144.872 108.857 144.532 108.737 144.252C108.625 143.972 108.453 143.76 108.221 143.616C107.997 143.464 107.717 143.388 107.381 143.388C107.005 143.388 106.685 143.476 106.421 143.652C106.165 143.828 105.969 144.072 105.833 144.384C105.697 144.696 105.629 145.06 105.629 145.476V145.548C105.629 146.252 105.793 146.784 106.121 147.144C106.457 147.496 106.941 147.672 107.573 147.672C107.813 147.672 108.065 147.64 108.329 147.576C108.601 147.512 108.857 147.404 109.097 147.252C109.233 147.172 109.353 147.136 109.457 147.144C109.569 147.152 109.657 147.188 109.721 147.252C109.793 147.316 109.837 147.396 109.853 147.492C109.869 147.588 109.853 147.688 109.805 147.792C109.757 147.888 109.673 147.976 109.553 148.056C109.281 148.24 108.965 148.38 108.605 148.476C108.245 148.564 107.897 148.608 107.561 148.608ZM113.49 148.608C112.978 148.608 112.526 148.488 112.134 148.248C111.75 148 111.45 147.648 111.234 147.192C111.018 146.728 110.91 146.188 110.91 145.572C110.91 144.94 111.018 144.4 111.234 143.952C111.45 143.504 111.75 143.156 112.134 142.908C112.526 142.66 112.978 142.536 113.49 142.536C114.002 142.536 114.442 142.664 114.81 142.92C115.186 143.168 115.438 143.504 115.566 143.928H115.434V140.568C115.434 140.368 115.486 140.216 115.59 140.112C115.694 140.008 115.842 139.956 116.034 139.956C116.226 139.956 116.374 140.008 116.478 140.112C116.59 140.216 116.646 140.368 116.646 140.568V147.972C116.646 148.164 116.594 148.316 116.49 148.428C116.386 148.532 116.238 148.584 116.046 148.584C115.854 148.584 115.706 148.532 115.602 148.428C115.498 148.316 115.446 148.164 115.446 147.972V146.916L115.578 147.18C115.45 147.612 115.198 147.96 114.822 148.224C114.454 148.48 114.01 148.608 113.49 148.608ZM113.802 147.672C114.13 147.672 114.418 147.592 114.666 147.432C114.914 147.272 115.106 147.036 115.242 146.724C115.386 146.412 115.458 146.028 115.458 145.572C115.458 144.884 115.306 144.364 115.002 144.012C114.698 143.66 114.298 143.484 113.802 143.484C113.466 143.484 113.174 143.564 112.926 143.724C112.678 143.876 112.482 144.108 112.338 144.42C112.202 144.732 112.134 145.116 112.134 145.572C112.134 146.252 112.286 146.772 112.59 147.132C112.894 147.492 113.298 147.672 113.802 147.672ZM118.948 148.572C118.756 148.572 118.608 148.516 118.504 148.404C118.4 148.284 118.348 148.12 118.348 147.912V143.232C118.348 143.024 118.4 142.864 118.504 142.752C118.608 142.64 118.756 142.584 118.948 142.584C119.14 142.584 119.288 142.64 119.392 142.752C119.504 142.864 119.56 143.024 119.56 143.232V147.912C119.56 148.12 119.508 148.284 119.404 148.404C119.3 148.516 119.148 148.572 118.948 148.572ZM118.948 141.336C118.708 141.336 118.52 141.276 118.384 141.156C118.256 141.036 118.192 140.868 118.192 140.652C118.192 140.428 118.256 140.26 118.384 140.148C118.52 140.028 118.708 139.968 118.948 139.968C119.188 139.968 119.372 140.028 119.5 140.148C119.636 140.26 119.704 140.428 119.704 140.652C119.704 140.868 119.636 141.036 119.5 141.156C119.372 141.276 119.188 141.336 118.948 141.336ZM121.878 148.584C121.678 148.584 121.526 148.532 121.422 148.428C121.318 148.316 121.266 148.164 121.266 147.972V143.172C121.266 142.972 121.318 142.82 121.422 142.716C121.526 142.612 121.67 142.56 121.854 142.56C122.046 142.56 122.19 142.612 122.286 142.716C122.39 142.82 122.442 142.972 122.442 143.172V144.048H122.322C122.45 143.568 122.686 143.204 123.03 142.956C123.374 142.708 123.814 142.564 124.35 142.524C124.494 142.516 124.606 142.552 124.686 142.632C124.774 142.712 124.822 142.836 124.83 143.004C124.846 143.172 124.81 143.308 124.722 143.412C124.634 143.508 124.498 143.564 124.314 143.58L124.086 143.604C123.566 143.652 123.17 143.816 122.898 144.096C122.626 144.376 122.49 144.76 122.49 145.248V147.972C122.49 148.164 122.438 148.316 122.334 148.428C122.238 148.532 122.086 148.584 121.878 148.584ZM128.409 148.608C127.769 148.608 127.217 148.488 126.753 148.248C126.297 148 125.941 147.652 125.685 147.204C125.437 146.748 125.313 146.208 125.313 145.584C125.313 144.976 125.437 144.444 125.685 143.988C125.933 143.532 126.273 143.176 126.705 142.92C127.137 142.664 127.629 142.536 128.181 142.536C128.589 142.536 128.953 142.604 129.273 142.74C129.593 142.868 129.865 143.06 130.089 143.316C130.321 143.564 130.493 143.868 130.605 144.228C130.725 144.588 130.785 144.992 130.785 145.44C130.785 145.576 130.745 145.68 130.665 145.752C130.585 145.816 130.465 145.848 130.305 145.848H126.273V145.104H129.969L129.765 145.272C129.765 144.872 129.705 144.532 129.585 144.252C129.473 143.972 129.301 143.76 129.069 143.616C128.845 143.464 128.565 143.388 128.229 143.388C127.853 143.388 127.533 143.476 127.269 143.652C127.013 143.828 126.817 144.072 126.681 144.384C126.545 144.696 126.477 145.06 126.477 145.476V145.548C126.477 146.252 126.641 146.784 126.969 147.144C127.305 147.496 127.789 147.672 128.421 147.672C128.661 147.672 128.913 147.64 129.177 147.576C129.449 147.512 129.705 147.404 129.945 147.252C130.081 147.172 130.201 147.136 130.305 147.144C130.417 147.152 130.505 147.188 130.569 147.252C130.641 147.316 130.685 147.396 130.701 147.492C130.717 147.588 130.701 147.688 130.653 147.792C130.605 147.888 130.521 147.976 130.401 148.056C130.129 148.24 129.813 148.38 129.453 148.476C129.093 148.564 128.745 148.608 128.409 148.608ZM134.686 148.608C134.086 148.608 133.566 148.484 133.126 148.236C132.694 147.98 132.358 147.624 132.118 147.168C131.878 146.704 131.758 146.16 131.758 145.536C131.758 145.072 131.826 144.656 131.962 144.288C132.098 143.912 132.29 143.596 132.538 143.34C132.794 143.084 133.102 142.888 133.462 142.752C133.83 142.608 134.238 142.536 134.686 142.536C134.966 142.536 135.258 142.58 135.562 142.668C135.874 142.748 136.162 142.884 136.426 143.076C136.53 143.14 136.594 143.22 136.618 143.316C136.65 143.404 136.654 143.496 136.63 143.592C136.614 143.688 136.57 143.772 136.498 143.844C136.434 143.908 136.354 143.948 136.258 143.964C136.162 143.972 136.058 143.944 135.946 143.88C135.754 143.744 135.558 143.648 135.358 143.592C135.158 143.528 134.966 143.496 134.782 143.496C134.494 143.496 134.238 143.544 134.014 143.64C133.798 143.728 133.614 143.86 133.462 144.036C133.31 144.204 133.194 144.416 133.114 144.672C133.042 144.928 133.006 145.22 133.006 145.548C133.006 146.204 133.158 146.72 133.462 147.096C133.774 147.464 134.214 147.648 134.782 147.648C134.966 147.648 135.158 147.62 135.358 147.564C135.558 147.508 135.754 147.412 135.946 147.276C136.058 147.212 136.162 147.188 136.258 147.204C136.354 147.22 136.43 147.264 136.486 147.336C136.55 147.4 136.59 147.48 136.606 147.576C136.63 147.664 136.626 147.756 136.594 147.852C136.562 147.948 136.494 148.028 136.39 148.092C136.134 148.276 135.854 148.408 135.55 148.488C135.254 148.568 134.966 148.608 134.686 148.608ZM140.215 148.608C139.735 148.608 139.331 148.524 139.003 148.356C138.675 148.188 138.431 147.94 138.271 147.612C138.111 147.284 138.031 146.884 138.031 146.412V143.58H137.311C137.151 143.58 137.027 143.54 136.939 143.46C136.851 143.372 136.807 143.256 136.807 143.112C136.807 142.96 136.851 142.844 136.939 142.764C137.027 142.684 137.151 142.644 137.311 142.644H138.031V141.408C138.031 141.208 138.083 141.056 138.187 140.952C138.299 140.848 138.451 140.796 138.643 140.796C138.835 140.796 138.983 140.848 139.087 140.952C139.191 141.056 139.243 141.208 139.243 141.408V142.644H140.647C140.807 142.644 140.931 142.684 141.019 142.764C141.107 142.844 141.151 142.96 141.151 143.112C141.151 143.256 141.107 143.372 141.019 143.46C140.931 143.54 140.807 143.58 140.647 143.58H139.243V146.316C139.243 146.74 139.331 147.06 139.507 147.276C139.691 147.492 139.987 147.6 140.395 147.6C140.539 147.6 140.663 147.588 140.767 147.564C140.879 147.532 140.971 147.512 141.043 147.504C141.131 147.504 141.203 147.536 141.259 147.6C141.315 147.656 141.343 147.768 141.343 147.936C141.343 148.056 141.319 148.168 141.271 148.272C141.231 148.376 141.155 148.444 141.043 148.476C140.947 148.508 140.815 148.536 140.647 148.56C140.487 148.592 140.343 148.608 140.215 148.608ZM147.762 148.608C147.282 148.608 146.878 148.524 146.55 148.356C146.222 148.188 145.978 147.94 145.818 147.612C145.658 147.284 145.578 146.884 145.578 146.412V143.58H144.858C144.698 143.58 144.574 143.54 144.486 143.46C144.398 143.372 144.354 143.256 144.354 143.112C144.354 142.96 144.398 142.844 144.486 142.764C144.574 142.684 144.698 142.644 144.858 142.644H145.578V141.408C145.578 141.208 145.63 141.056 145.734 140.952C145.846 140.848 145.998 140.796 146.19 140.796C146.382 140.796 146.53 140.848 146.634 140.952C146.738 141.056 146.79 141.208 146.79 141.408V142.644H148.194C148.354 142.644 148.478 142.684 148.566 142.764C148.654 142.844 148.698 142.96 148.698 143.112C148.698 143.256 148.654 143.372 148.566 143.46C148.478 143.54 148.354 143.58 148.194 143.58H146.79V146.316C146.79 146.74 146.878 147.06 147.054 147.276C147.238 147.492 147.534 147.6 147.942 147.6C148.086 147.6 148.21 147.588 148.314 147.564C148.426 147.532 148.518 147.512 148.59 147.504C148.678 147.504 148.75 147.536 148.806 147.6C148.862 147.656 148.89 147.768 148.89 147.936C148.89 148.056 148.866 148.168 148.818 148.272C148.778 148.376 148.702 148.444 148.59 148.476C148.494 148.508 148.362 148.536 148.194 148.56C148.034 148.592 147.89 148.608 147.762 148.608ZM152.134 148.608C151.542 148.608 151.03 148.484 150.598 148.236C150.174 147.988 149.842 147.636 149.602 147.18C149.362 146.724 149.242 146.188 149.242 145.572C149.242 145.1 149.31 144.68 149.446 144.312C149.582 143.944 149.774 143.628 150.022 143.364C150.278 143.092 150.582 142.888 150.934 142.752C151.294 142.608 151.694 142.536 152.134 142.536C152.718 142.536 153.222 142.66 153.646 142.908C154.078 143.156 154.414 143.508 154.654 143.964C154.894 144.412 155.014 144.948 155.014 145.572C155.014 146.036 154.946 146.456 154.81 146.832C154.674 147.208 154.478 147.528 154.222 147.792C153.974 148.056 153.67 148.26 153.31 148.404C152.958 148.54 152.566 148.608 152.134 148.608ZM152.134 147.672C152.462 147.672 152.75 147.592 152.998 147.432C153.246 147.272 153.438 147.036 153.574 146.724C153.718 146.412 153.79 146.028 153.79 145.572C153.79 144.884 153.638 144.364 153.334 144.012C153.03 143.66 152.63 143.484 152.134 143.484C151.798 143.484 151.506 143.564 151.258 143.724C151.01 143.876 150.814 144.108 150.67 144.42C150.534 144.732 150.466 145.116 150.466 145.572C150.466 146.252 150.618 146.772 150.922 147.132C151.226 147.492 151.63 147.672 152.134 147.672ZM161.424 148.608C160.8 148.608 160.328 148.428 160.008 148.068C159.696 147.7 159.54 147.172 159.54 146.484V140.568C159.54 140.368 159.592 140.216 159.696 140.112C159.8 140.008 159.948 139.956 160.14 139.956C160.332 139.956 160.48 140.008 160.584 140.112C160.696 140.216 160.752 140.368 160.752 140.568V146.412C160.752 146.812 160.832 147.112 160.992 147.312C161.16 147.504 161.4 147.6 161.712 147.6C161.784 147.6 161.848 147.6 161.904 147.6C161.96 147.592 162.016 147.584 162.072 147.576C162.168 147.568 162.236 147.596 162.276 147.66C162.316 147.716 162.336 147.836 162.336 148.02C162.336 148.188 162.3 148.32 162.228 148.416C162.156 148.504 162.04 148.56 161.88 148.584C161.808 148.592 161.732 148.596 161.652 148.596C161.572 148.604 161.496 148.608 161.424 148.608ZM165.693 148.608C165.101 148.608 164.589 148.484 164.157 148.236C163.733 147.988 163.401 147.636 163.161 147.18C162.921 146.724 162.801 146.188 162.801 145.572C162.801 145.1 162.869 144.68 163.005 144.312C163.141 143.944 163.333 143.628 163.581 143.364C163.837 143.092 164.141 142.888 164.493 142.752C164.853 142.608 165.253 142.536 165.693 142.536C166.277 142.536 166.781 142.66 167.205 142.908C167.637 143.156 167.973 143.508 168.213 143.964C168.453 144.412 168.573 144.948 168.573 145.572C168.573 146.036 168.505 146.456 168.369 146.832C168.233 147.208 168.037 147.528 167.781 147.792C167.533 148.056 167.229 148.26 166.869 148.404C166.517 148.54 166.125 148.608 165.693 148.608ZM165.693 147.672C166.021 147.672 166.309 147.592 166.557 147.432C166.805 147.272 166.997 147.036 167.133 146.724C167.277 146.412 167.349 146.028 167.349 145.572C167.349 144.884 167.197 144.364 166.893 144.012C166.589 143.66 166.189 143.484 165.693 143.484C165.357 143.484 165.065 143.564 164.817 143.724C164.569 143.876 164.373 144.108 164.229 144.42C164.093 144.732 164.025 145.116 164.025 145.572C164.025 146.252 164.177 146.772 164.481 147.132C164.785 147.492 165.189 147.672 165.693 147.672ZM172.586 150.768C172.154 150.768 171.734 150.724 171.326 150.636C170.926 150.548 170.562 150.404 170.234 150.204C170.114 150.14 170.034 150.06 169.994 149.964C169.954 149.876 169.942 149.784 169.958 149.688C169.982 149.592 170.026 149.508 170.09 149.436C170.154 149.364 170.23 149.316 170.318 149.292C170.414 149.268 170.514 149.284 170.618 149.34C170.97 149.532 171.302 149.66 171.614 149.724C171.934 149.796 172.23 149.832 172.502 149.832C173.062 149.832 173.482 149.688 173.762 149.4C174.042 149.12 174.182 148.704 174.182 148.152V146.928H174.29C174.17 147.368 173.918 147.716 173.534 147.972C173.15 148.228 172.706 148.356 172.202 148.356C171.674 148.356 171.214 148.236 170.822 147.996C170.43 147.748 170.126 147.408 169.91 146.976C169.694 146.536 169.586 146.024 169.586 145.44C169.586 145 169.646 144.604 169.766 144.252C169.894 143.9 170.07 143.596 170.294 143.34C170.526 143.084 170.802 142.888 171.122 142.752C171.45 142.608 171.81 142.536 172.202 142.536C172.714 142.536 173.158 142.664 173.534 142.92C173.918 143.176 174.166 143.524 174.278 143.964L174.158 144.168V143.172C174.158 142.972 174.21 142.82 174.314 142.716C174.426 142.612 174.574 142.56 174.758 142.56C174.95 142.56 175.098 142.612 175.202 142.716C175.306 142.82 175.358 142.972 175.358 143.172V148.008C175.358 148.92 175.122 149.608 174.65 150.072C174.178 150.536 173.49 150.768 172.586 150.768ZM172.49 147.408C172.842 147.408 173.142 147.328 173.39 147.168C173.638 147.008 173.83 146.78 173.966 146.484C174.102 146.188 174.17 145.84 174.17 145.44C174.17 144.84 174.018 144.364 173.714 144.012C173.418 143.66 173.01 143.484 172.49 143.484C172.146 143.484 171.85 143.564 171.602 143.724C171.354 143.884 171.158 144.112 171.014 144.408C170.878 144.696 170.81 145.04 170.81 145.44C170.81 146.048 170.962 146.528 171.266 146.88C171.57 147.232 171.978 147.408 172.49 147.408ZM177.659 148.572C177.467 148.572 177.319 148.516 177.215 148.404C177.111 148.284 177.059 148.12 177.059 147.912V143.232C177.059 143.024 177.111 142.864 177.215 142.752C177.319 142.64 177.467 142.584 177.659 142.584C177.851 142.584 177.999 142.64 178.103 142.752C178.215 142.864 178.271 143.024 178.271 143.232V147.912C178.271 148.12 178.219 148.284 178.115 148.404C178.011 148.516 177.859 148.572 177.659 148.572ZM177.659 141.336C177.419 141.336 177.231 141.276 177.095 141.156C176.967 141.036 176.903 140.868 176.903 140.652C176.903 140.428 176.967 140.26 177.095 140.148C177.231 140.028 177.419 139.968 177.659 139.968C177.899 139.968 178.083 140.028 178.211 140.148C178.347 140.26 178.415 140.428 178.415 140.652C178.415 140.868 178.347 141.036 178.211 141.156C178.083 141.276 177.899 141.336 177.659 141.336ZM180.577 148.584C180.385 148.584 180.237 148.532 180.133 148.428C180.029 148.316 179.977 148.164 179.977 147.972V143.172C179.977 142.972 180.029 142.82 180.133 142.716C180.237 142.612 180.381 142.56 180.565 142.56C180.757 142.56 180.901 142.612 180.997 142.716C181.101 142.82 181.153 142.972 181.153 143.172V144.108L181.021 143.892C181.197 143.444 181.473 143.108 181.849 142.884C182.225 142.652 182.657 142.536 183.145 142.536C183.609 142.536 183.993 142.624 184.297 142.8C184.609 142.968 184.841 143.228 184.993 143.58C185.145 143.924 185.221 144.36 185.221 144.888V147.972C185.221 148.164 185.169 148.316 185.065 148.428C184.961 148.532 184.813 148.584 184.621 148.584C184.421 148.584 184.269 148.532 184.165 148.428C184.061 148.316 184.009 148.164 184.009 147.972V144.96C184.009 144.456 183.909 144.088 183.709 143.856C183.517 143.624 183.213 143.508 182.797 143.508C182.309 143.508 181.917 143.66 181.621 143.964C181.333 144.268 181.189 144.676 181.189 145.188V147.972C181.189 148.38 180.985 148.584 180.577 148.584ZM192.107 148.608C191.755 148.608 191.391 148.568 191.015 148.488C190.647 148.408 190.307 148.272 189.995 148.08C189.891 148.008 189.819 147.928 189.779 147.84C189.739 147.752 189.723 147.664 189.731 147.576C189.747 147.48 189.783 147.4 189.839 147.336C189.903 147.264 189.979 147.22 190.067 147.204C190.163 147.188 190.263 147.208 190.367 147.264C190.679 147.44 190.979 147.564 191.267 147.636C191.555 147.7 191.839 147.732 192.119 147.732C192.543 147.732 192.863 147.656 193.079 147.504C193.295 147.352 193.403 147.148 193.403 146.892C193.403 146.684 193.331 146.524 193.187 146.412C193.043 146.292 192.827 146.2 192.539 146.136L191.399 145.908C190.903 145.804 190.527 145.62 190.271 145.356C190.015 145.092 189.887 144.756 189.887 144.348C189.887 143.98 189.987 143.66 190.187 143.388C190.387 143.116 190.667 142.908 191.027 142.764C191.387 142.612 191.803 142.536 192.275 142.536C192.627 142.536 192.959 142.58 193.271 142.668C193.583 142.756 193.871 142.888 194.135 143.064C194.239 143.12 194.307 143.196 194.339 143.292C194.371 143.38 194.375 143.468 194.351 143.556C194.335 143.644 194.295 143.724 194.231 143.796C194.167 143.86 194.087 143.9 193.991 143.916C193.903 143.924 193.803 143.9 193.691 143.844C193.451 143.692 193.211 143.584 192.971 143.52C192.739 143.456 192.507 143.424 192.275 143.424C191.851 143.424 191.531 143.504 191.315 143.664C191.107 143.816 191.003 144.024 191.003 144.288C191.003 144.488 191.067 144.652 191.195 144.78C191.323 144.908 191.523 145 191.795 145.056L192.935 145.284C193.455 145.388 193.847 145.564 194.111 145.812C194.383 146.06 194.519 146.396 194.519 146.82C194.519 147.372 194.299 147.808 193.859 148.128C193.419 148.448 192.835 148.608 192.107 148.608ZM198.448 148.608C197.848 148.608 197.328 148.484 196.888 148.236C196.456 147.98 196.12 147.624 195.88 147.168C195.64 146.704 195.52 146.16 195.52 145.536C195.52 145.072 195.588 144.656 195.724 144.288C195.86 143.912 196.052 143.596 196.3 143.34C196.556 143.084 196.864 142.888 197.224 142.752C197.592 142.608 198 142.536 198.448 142.536C198.728 142.536 199.02 142.58 199.324 142.668C199.636 142.748 199.924 142.884 200.188 143.076C200.292 143.14 200.356 143.22 200.38 143.316C200.412 143.404 200.416 143.496 200.392 143.592C200.376 143.688 200.332 143.772 200.26 143.844C200.196 143.908 200.116 143.948 200.02 143.964C199.924 143.972 199.82 143.944 199.708 143.88C199.516 143.744 199.32 143.648 199.12 143.592C198.92 143.528 198.728 143.496 198.544 143.496C198.256 143.496 198 143.544 197.776 143.64C197.56 143.728 197.376 143.86 197.224 144.036C197.072 144.204 196.956 144.416 196.876 144.672C196.804 144.928 196.768 145.22 196.768 145.548C196.768 146.204 196.92 146.72 197.224 147.096C197.536 147.464 197.976 147.648 198.544 147.648C198.728 147.648 198.92 147.62 199.12 147.564C199.32 147.508 199.516 147.412 199.708 147.276C199.82 147.212 199.924 147.188 200.02 147.204C200.116 147.22 200.192 147.264 200.248 147.336C200.312 147.4 200.352 147.48 200.368 147.576C200.392 147.664 200.388 147.756 200.356 147.852C200.324 147.948 200.256 148.028 200.152 148.092C199.896 148.276 199.616 148.408 199.312 148.488C199.016 148.568 198.728 148.608 198.448 148.608ZM202.081 148.584C201.881 148.584 201.729 148.532 201.625 148.428C201.521 148.316 201.469 148.164 201.469 147.972V143.172C201.469 142.972 201.521 142.82 201.625 142.716C201.729 142.612 201.873 142.56 202.057 142.56C202.249 142.56 202.393 142.612 202.489 142.716C202.593 142.82 202.645 142.972 202.645 143.172V144.048H202.525C202.653 143.568 202.889 143.204 203.233 142.956C203.577 142.708 204.017 142.564 204.553 142.524C204.697 142.516 204.809 142.552 204.889 142.632C204.977 142.712 205.025 142.836 205.033 143.004C205.049 143.172 205.013 143.308 204.925 143.412C204.837 143.508 204.701 143.564 204.517 143.58L204.289 143.604C203.769 143.652 203.373 143.816 203.101 144.096C202.829 144.376 202.693 144.76 202.693 145.248V147.972C202.693 148.164 202.641 148.316 202.537 148.428C202.441 148.532 202.289 148.584 202.081 148.584ZM208.612 148.608C207.972 148.608 207.42 148.488 206.956 148.248C206.5 148 206.144 147.652 205.888 147.204C205.64 146.748 205.516 146.208 205.516 145.584C205.516 144.976 205.64 144.444 205.888 143.988C206.136 143.532 206.476 143.176 206.908 142.92C207.34 142.664 207.832 142.536 208.384 142.536C208.792 142.536 209.156 142.604 209.476 142.74C209.796 142.868 210.068 143.06 210.292 143.316C210.524 143.564 210.696 143.868 210.808 144.228C210.928 144.588 210.988 144.992 210.988 145.44C210.988 145.576 210.948 145.68 210.868 145.752C210.788 145.816 210.668 145.848 210.508 145.848H206.476V145.104H210.172L209.968 145.272C209.968 144.872 209.908 144.532 209.788 144.252C209.676 143.972 209.504 143.76 209.272 143.616C209.048 143.464 208.768 143.388 208.432 143.388C208.056 143.388 207.736 143.476 207.472 143.652C207.216 143.828 207.02 144.072 206.884 144.384C206.748 144.696 206.68 145.06 206.68 145.476V145.548C206.68 146.252 206.844 146.784 207.172 147.144C207.508 147.496 207.992 147.672 208.624 147.672C208.864 147.672 209.116 147.64 209.38 147.576C209.652 147.512 209.908 147.404 210.148 147.252C210.284 147.172 210.404 147.136 210.508 147.144C210.62 147.152 210.708 147.188 210.772 147.252C210.844 147.316 210.888 147.396 210.904 147.492C210.92 147.588 210.904 147.688 210.856 147.792C210.808 147.888 210.724 147.976 210.604 148.056C210.332 148.24 210.016 148.38 209.656 148.476C209.296 148.564 208.948 148.608 208.612 148.608ZM215.057 148.608C214.417 148.608 213.865 148.488 213.401 148.248C212.945 148 212.589 147.652 212.333 147.204C212.085 146.748 211.961 146.208 211.961 145.584C211.961 144.976 212.085 144.444 212.333 143.988C212.581 143.532 212.921 143.176 213.353 142.92C213.785 142.664 214.277 142.536 214.829 142.536C215.237 142.536 215.601 142.604 215.921 142.74C216.241 142.868 216.513 143.06 216.737 143.316C216.969 143.564 217.141 143.868 217.253 144.228C217.373 144.588 217.433 144.992 217.433 145.44C217.433 145.576 217.393 145.68 217.313 145.752C217.233 145.816 217.113 145.848 216.953 145.848H212.921V145.104H216.617L216.413 145.272C216.413 144.872 216.353 144.532 216.233 144.252C216.121 143.972 215.949 143.76 215.717 143.616C215.493 143.464 215.213 143.388 214.877 143.388C214.501 143.388 214.181 143.476 213.917 143.652C213.661 143.828 213.465 144.072 213.329 144.384C213.193 144.696 213.125 145.06 213.125 145.476V145.548C213.125 146.252 213.289 146.784 213.617 147.144C213.953 147.496 214.437 147.672 215.069 147.672C215.309 147.672 215.561 147.64 215.825 147.576C216.097 147.512 216.353 147.404 216.593 147.252C216.729 147.172 216.849 147.136 216.953 147.144C217.065 147.152 217.153 147.188 217.217 147.252C217.289 147.316 217.333 147.396 217.349 147.492C217.365 147.588 217.349 147.688 217.301 147.792C217.253 147.888 217.169 147.976 217.049 148.056C216.777 148.24 216.461 148.38 216.101 148.476C215.741 148.564 215.393 148.608 215.057 148.608ZM219.354 148.584C219.162 148.584 219.014 148.532 218.91 148.428C218.806 148.316 218.754 148.164 218.754 147.972V143.172C218.754 142.972 218.806 142.82 218.91 142.716C219.014 142.612 219.158 142.56 219.342 142.56C219.534 142.56 219.678 142.612 219.774 142.716C219.878 142.82 219.93 142.972 219.93 143.172V144.108L219.798 143.892C219.974 143.444 220.25 143.108 220.626 142.884C221.002 142.652 221.434 142.536 221.922 142.536C222.386 142.536 222.77 142.624 223.074 142.8C223.386 142.968 223.618 143.228 223.77 143.58C223.922 143.924 223.998 144.36 223.998 144.888V147.972C223.998 148.164 223.946 148.316 223.842 148.428C223.738 148.532 223.59 148.584 223.398 148.584C223.198 148.584 223.046 148.532 222.942 148.428C222.838 148.316 222.786 148.164 222.786 147.972V144.96C222.786 144.456 222.686 144.088 222.486 143.856C222.294 143.624 221.99 143.508 221.574 143.508C221.086 143.508 220.694 143.66 220.398 143.964C220.11 144.268 219.966 144.676 219.966 145.188V147.972C219.966 148.38 219.762 148.584 219.354 148.584Z" fill="#64728C"/>
</g>
<circle opacity="0.2" cx="333" cy="103.5" r="13" stroke="#FF7B1D" stroke-width="5"/>
<circle opacity="0.2" cx="1.3" cy="1.3" r="1.3" transform="matrix(1 0 0 -1 331.7 104.8)" fill="#FF7B1D"/>
<path d="M334.235 90.5588C335.934 90.7209 337.585 91.2162 339.093 92.0163C340.601 92.8165 341.937 93.9059 343.024 95.2222C344.111 96.5386 344.928 98.0561 345.429 99.6883C345.929 101.32 346.104 103.035 345.941 104.735" stroke="#FF7B1D" stroke-width="5" stroke-linecap="round" stroke-linejoin="round"/>
<path d="M334.857 103.5L337.245 101.112C337.776 100.581 337.776 99.7855 337.245 99.2549C336.715 98.7243 335.919 98.7243 335.388 99.2549L333 101.643L330.613 99.2549C330.082 98.7243 329.286 98.7243 328.755 99.2549C328.225 99.7855 328.225 100.581 328.755 101.112L331.143 103.5L328.755 105.888C328.225 106.418 328.225 107.214 328.755 107.745C329.021 108.01 329.352 108.143 329.684 108.143C330.016 108.143 330.347 108.01 330.613 107.745L333 105.357L335.388 107.745C335.653 108.01 335.985 108.143 336.317 108.143C336.648 108.143 336.98 108.01 337.245 107.745C337.776 107.214 337.776 106.418 337.245 105.888L334.857 103.5Z" fill="#FF7B1D"/>
</g>
<rect x="60.5" y="78" width="299" height="93" rx="24.5" stroke="#FF7B1D"/>
</g>
<g filter="url(#filter3_d_978_2517)">
<rect x="76.9014" y="56" width="45" height="45" rx="22.5" fill="#FF7B1D" shape-rendering="crispEdges"/>
<rect x="76.9014" y="56" width="45" height="45" rx="22.5" fill="url(#paint1_radial_978_2517)" fill-opacity="0.2" shape-rendering="crispEdges"/>
<path d="M92.4014 76.5001V82.0001C91.8014 82.5001 91.4014 83.2001 91.4014 84.0001C91.4014 85.4001 92.5014 86.5001 93.9014 86.5001H96.6014C97.0014 87.7001 98.1014 88.5001 99.4014 88.5001C100.701 88.5001 101.801 87.7001 102.201 86.5001H104.901C106.301 86.5001 107.401 85.4001 107.401 84.0001C107.401 83.2001 107.001 82.5001 106.401 82.0001V76.5001C106.401 74.6001 105.701 72.9001 104.301 71.6001C103.901 71.2001 103.401 70.8001 102.901 70.5001C100.801 69.3001 98.0014 69.3001 95.9014 70.5001C93.7014 71.7001 92.4014 74.0001 92.4014 76.5001ZM104.901 84.5001H101.401H97.4014H93.9014C93.6014 84.5001 93.4014 84.3001 93.4014 84.0001C93.4014 83.7001 93.6014 83.5001 93.9014 83.5001H104.901C105.201 83.5001 105.401 83.7001 105.401 84.0001C105.401 84.3001 105.201 84.5001 104.901 84.5001ZM101.901 72.2001C102.301 72.4001 102.601 72.7001 102.901 73.0001C103.901 73.9001 104.401 75.2001 104.401 76.5001V81.5001H94.4014V76.5001C94.4014 74.7001 95.4014 73.1001 96.9014 72.2001C98.4014 71.3001 100.401 71.3001 101.901 72.2001Z" fill="white"/>
</g>
</g>
<defs>
<filter id="filter0_d_978_2517" x="0" y="0" width="420" height="235.5" filterUnits="userSpaceOnUse" color-interpolation-filters="sRGB">
<feFlood flood-opacity="0" result="BackgroundImageFix"/>
<feColorMatrix in="SourceAlpha" type="matrix" values="0 0 0 0 0 0 0 0 0 0 0 0 0 0 0 0 0 0 127 0" result="hardAlpha"/>
<feOffset dy="4"/>
<feGaussianBlur stdDeviation="30"/>
<feComposite in2="hardAlpha" operator="out"/>
<feColorMatrix type="matrix" values="0 0 0 0 0 0 0 0 0 0 0 0 0 0 0 0 0 0 0.06 0"/>
<feBlend mode="normal" in2="BackgroundImageFix" result="effect1_dropShadow_978_2517"/>
<feBlend mode="normal" in="SourceGraphic" in2="effect1_dropShadow_978_2517" result="shape"/>
</filter>
<filter id="filter1_d_978_2517" x="56" y="77.5" width="308" height="102" filterUnits="userSpaceOnUse" color-interpolation-filters="sRGB">
<feFlood flood-opacity="0" result="BackgroundImageFix"/>
<feColorMatrix in="SourceAlpha" type="matrix" values="0 0 0 0 0 0 0 0 0 0 0 0 0 0 0 0 0 0 127 0" result="hardAlpha"/>
<feOffset dy="4"/>
<feGaussianBlur stdDeviation="2"/>
<feComposite in2="hardAlpha" operator="out"/>
<feColorMatrix type="matrix" values="0 0 0 0 1 0 0 0 0 0.482353 0 0 0 0 0.113725 0 0 0 0.25 0"/>
<feBlend mode="normal" in2="BackgroundImageFix" result="effect1_dropShadow_978_2517"/>
<feBlend mode="normal" in="SourceGraphic" in2="effect1_dropShadow_978_2517" result="shape"/>
</filter>
<filter id="filter2_d_978_2517" x="30" y="51.5" width="360" height="151" filterUnits="userSpaceOnUse" color-interpolation-filters="sRGB">
<feFlood flood-opacity="0" result="BackgroundImageFix"/>
<feColorMatrix in="SourceAlpha" type="matrix" values="0 0 0 0 0 0 0 0 0 0 0 0 0 0 0 0 0 0 127 0" result="hardAlpha"/>
<feOffset dy="4"/>
<feGaussianBlur stdDeviation="15"/>
<feComposite in2="hardAlpha" operator="out"/>
<feColorMatrix type="matrix" values="0 0 0 0 0 0 0 0 0 0 0 0 0 0 0 0 0 0 0.1 0"/>
<feBlend mode="normal" in2="BackgroundImageFix" result="effect1_dropShadow_978_2517"/>
<feBlend mode="normal" in="SourceGraphic" in2="effect1_dropShadow_978_2517" result="shape"/>
</filter>
<filter id="filter3_d_978_2517" x="72.9014" y="56" width="53" height="53" filterUnits="userSpaceOnUse" color-interpolation-filters="sRGB">
<feFlood flood-opacity="0" result="BackgroundImageFix"/>
<feColorMatrix in="SourceAlpha" type="matrix" values="0 0 0 0 0 0 0 0 0 0 0 0 0 0 0 0 0 0 127 0" result="hardAlpha"/>
<feOffset dy="4"/>
<feGaussianBlur stdDeviation="2"/>
<feComposite in2="hardAlpha" operator="out"/>
<feColorMatrix type="matrix" values="0 0 0 0 1 0 0 0 0 0.482353 0 0 0 0 0.113725 0 0 0 0.1 0"/>
<feBlend mode="normal" in2="BackgroundImageFix" result="effect1_dropShadow_978_2517"/>
<feBlend mode="normal" in="SourceGraphic" in2="effect1_dropShadow_978_2517" result="shape"/>
</filter>
<linearGradient id="paint0_linear_978_2517" x1="60" y1="77.5" x2="358.674" y2="162.846" gradientUnits="userSpaceOnUse">
<stop offset="0.468122" stop-color="white" stop-opacity="0"/>
<stop offset="1" stop-color="white"/>
</linearGradient>
<radialGradient id="paint1_radial_978_2517" cx="0" cy="0" r="1" gradientUnits="userSpaceOnUse" gradientTransform="translate(99.4014 78.5) rotate(90) scale(22.5)">
<stop stop-opacity="0"/>
<stop offset="1" stop-color="white"/>
</radialGradient>
<clipPath id="clip0_978_2517">
<rect x="60" y="77.5" width="300" height="94" rx="25" fill="white"/>
</clipPath>
</defs>
</svg>
