<svg width="420" height="238" viewBox="0 0 420 238" fill="none" xmlns="http://www.w3.org/2000/svg">
<g filter="url(#filter0_d_978_2992)">
<g filter="url(#filter1_d_978_2992)">
<g clip-path="url(#clip0_978_2992)">
<rect x="60" y="77" width="300" height="97" rx="25" fill="#1E6CEB"/>
<g filter="url(#filter2_d_978_2992)">
<rect x="60" y="77" width="300" height="94" rx="25" fill="white" shape-rendering="crispEdges"/>
<rect x="60" y="77" width="300" height="94" rx="25" fill="url(#paint0_linear_978_2992)" fill-opacity="0.2" shape-rendering="crispEdges"/>
<path d="M78.086 119.126C77.7313 119.126 77.4607 119.028 77.274 118.832C77.0873 118.636 76.994 118.361 76.994 118.006V110.124C76.994 109.769 77.0873 109.494 77.274 109.298C77.4607 109.102 77.7313 109.004 78.086 109.004C78.4313 109.004 78.6973 109.102 78.884 109.298C79.0707 109.494 79.164 109.769 79.164 110.124V118.006C79.164 118.361 79.0707 118.636 78.884 118.832C78.7067 119.028 78.4407 119.126 78.086 119.126ZM82.0323 119.126C81.6869 119.126 81.4209 119.033 81.2343 118.846C81.0569 118.659 80.9683 118.393 80.9683 118.048V113.078C80.9683 112.733 81.0569 112.471 81.2343 112.294C81.4209 112.107 81.6776 112.014 82.0042 112.014C82.3403 112.014 82.5969 112.107 82.7743 112.294C82.9516 112.471 83.0403 112.733 83.0403 113.078V113.876L82.8863 113.414C83.1009 112.957 83.4183 112.607 83.8383 112.364C84.2676 112.112 84.7529 111.986 85.2943 111.986C85.8449 111.986 86.2976 112.093 86.6523 112.308C87.0069 112.513 87.2729 112.831 87.4503 113.26C87.6276 113.68 87.7163 114.217 87.7163 114.87V118.048C87.7163 118.393 87.6229 118.659 87.4363 118.846C87.2589 119.033 86.9976 119.126 86.6523 119.126C86.3163 119.126 86.0549 119.033 85.8683 118.846C85.6909 118.659 85.6023 118.393 85.6023 118.048V114.968C85.6023 114.492 85.5136 114.151 85.3363 113.946C85.1683 113.731 84.9069 113.624 84.5523 113.624C84.1043 113.624 83.7449 113.764 83.4743 114.044C83.2129 114.324 83.0823 114.697 83.0823 115.164V118.048C83.0823 118.767 82.7323 119.126 82.0323 119.126ZM90.8904 119.126C90.5451 119.126 90.2791 119.033 90.0924 118.846C89.9151 118.659 89.8264 118.393 89.8264 118.048V113.708H89.3224C89.0611 113.708 88.8558 113.638 88.7064 113.498C88.5664 113.358 88.4964 113.167 88.4964 112.924C88.4964 112.663 88.5664 112.467 88.7064 112.336C88.8558 112.196 89.0611 112.126 89.3224 112.126H90.4424L89.8264 112.686V112.252C89.8264 111.253 90.0738 110.507 90.5684 110.012C91.0724 109.517 91.8098 109.219 92.7804 109.116L93.2284 109.074C93.4711 109.055 93.6624 109.093 93.8024 109.186C93.9518 109.279 94.0498 109.401 94.0964 109.55C94.1431 109.699 94.1524 109.853 94.1244 110.012C94.0964 110.161 94.0311 110.297 93.9284 110.418C93.8351 110.53 93.7044 110.591 93.5364 110.6L93.3404 110.614C92.8364 110.651 92.4771 110.773 92.2624 110.978C92.0478 111.174 91.9404 111.477 91.9404 111.888V112.364L91.6744 112.126H92.9344C93.2051 112.126 93.4104 112.196 93.5504 112.336C93.6904 112.467 93.7604 112.663 93.7604 112.924C93.7604 113.167 93.6904 113.358 93.5504 113.498C93.4104 113.638 93.2051 113.708 92.9344 113.708H91.9404V118.048C91.9404 118.767 91.5904 119.126 90.8904 119.126ZM97.7801 119.154C97.0427 119.154 96.3987 119.009 95.8481 118.72C95.3067 118.431 94.8867 118.015 94.5881 117.474C94.2894 116.933 94.1401 116.293 94.1401 115.556C94.1401 115.005 94.2241 114.511 94.3921 114.072C94.5601 113.633 94.8027 113.26 95.1201 112.952C95.4467 112.635 95.8341 112.397 96.2821 112.238C96.7301 112.07 97.2294 111.986 97.7801 111.986C98.5174 111.986 99.1567 112.131 99.6981 112.42C100.249 112.709 100.673 113.12 100.972 113.652C101.28 114.184 101.434 114.819 101.434 115.556C101.434 116.116 101.345 116.615 101.168 117.054C101 117.493 100.757 117.871 100.44 118.188C100.123 118.505 99.7354 118.748 99.2781 118.916C98.8301 119.075 98.3307 119.154 97.7801 119.154ZM97.7801 117.572C98.0881 117.572 98.3541 117.497 98.5781 117.348C98.8021 117.199 98.9794 116.979 99.1101 116.69C99.2407 116.391 99.3061 116.013 99.3061 115.556C99.3061 114.875 99.1661 114.375 98.8861 114.058C98.6061 113.731 98.2374 113.568 97.7801 113.568C97.4814 113.568 97.2154 113.638 96.9821 113.778C96.7581 113.918 96.5807 114.137 96.4501 114.436C96.3287 114.725 96.2681 115.099 96.2681 115.556C96.2681 116.237 96.4081 116.746 96.6881 117.082C96.9681 117.409 97.3321 117.572 97.7801 117.572Z" fill="#1E6CEB"/>
<path d="M77.572 135.084C77.388 135.084 77.244 135.032 77.14 134.928C77.036 134.824 76.984 134.676 76.984 134.484V127.08C76.984 126.88 77.032 126.728 77.128 126.624C77.232 126.512 77.368 126.456 77.536 126.456C77.68 126.456 77.788 126.484 77.86 126.54C77.94 126.588 78.032 126.68 78.136 126.816L83.08 133.332H82.78V127.044C82.78 126.86 82.828 126.716 82.924 126.612C83.028 126.508 83.172 126.456 83.356 126.456C83.548 126.456 83.692 126.508 83.788 126.612C83.884 126.716 83.932 126.86 83.932 127.044V134.496C83.932 134.68 83.884 134.824 83.788 134.928C83.7 135.032 83.58 135.084 83.428 135.084C83.284 135.084 83.164 135.056 83.068 135C82.98 134.944 82.884 134.848 82.78 134.712L77.86 128.208H78.136V134.484C78.136 134.676 78.088 134.824 77.992 134.928C77.896 135.032 77.756 135.084 77.572 135.084ZM88.518 135.108C87.878 135.108 87.326 134.988 86.862 134.748C86.406 134.5 86.05 134.152 85.794 133.704C85.546 133.248 85.422 132.708 85.422 132.084C85.422 131.476 85.546 130.944 85.794 130.488C86.042 130.032 86.382 129.676 86.814 129.42C87.246 129.164 87.738 129.036 88.29 129.036C88.698 129.036 89.062 129.104 89.382 129.24C89.702 129.368 89.974 129.56 90.198 129.816C90.43 130.064 90.602 130.368 90.714 130.728C90.834 131.088 90.894 131.492 90.894 131.94C90.894 132.076 90.854 132.18 90.774 132.252C90.694 132.316 90.574 132.348 90.414 132.348H86.382V131.604H90.078L89.874 131.772C89.874 131.372 89.814 131.032 89.694 130.752C89.582 130.472 89.41 130.26 89.178 130.116C88.954 129.964 88.674 129.888 88.338 129.888C87.962 129.888 87.642 129.976 87.378 130.152C87.122 130.328 86.926 130.572 86.79 130.884C86.654 131.196 86.586 131.56 86.586 131.976V132.048C86.586 132.752 86.75 133.284 87.078 133.644C87.414 133.996 87.898 134.172 88.53 134.172C88.77 134.172 89.022 134.14 89.286 134.076C89.558 134.012 89.814 133.904 90.054 133.752C90.19 133.672 90.31 133.636 90.414 133.644C90.526 133.652 90.614 133.688 90.678 133.752C90.75 133.816 90.794 133.896 90.81 133.992C90.826 134.088 90.81 134.188 90.762 134.292C90.714 134.388 90.63 134.476 90.51 134.556C90.238 134.74 89.922 134.88 89.562 134.976C89.202 135.064 88.854 135.108 88.518 135.108ZM94.2693 135.084C94.1013 135.084 93.9533 135.044 93.8253 134.964C93.7053 134.876 93.6093 134.74 93.5373 134.556L91.7733 129.888C91.7093 129.728 91.6893 129.588 91.7133 129.468C91.7373 129.34 91.7973 129.24 91.8933 129.168C91.9973 129.096 92.1293 129.06 92.2893 129.06C92.4333 129.06 92.5493 129.096 92.6373 129.168C92.7333 129.232 92.8133 129.36 92.8773 129.552L94.4492 133.98H94.1613L95.7933 129.504C95.8493 129.352 95.9253 129.24 96.0213 129.168C96.1173 129.096 96.2413 129.06 96.3933 129.06C96.5453 129.06 96.6693 129.096 96.7653 129.168C96.8693 129.24 96.9453 129.352 96.9933 129.504L98.5893 133.98H98.3253L99.9213 129.528C99.9853 129.344 100.065 129.22 100.161 129.156C100.265 129.092 100.381 129.06 100.509 129.06C100.669 129.06 100.789 129.1 100.869 129.18C100.957 129.26 101.005 129.364 101.013 129.492C101.029 129.612 101.009 129.744 100.953 129.888L99.1893 134.556C99.1173 134.732 99.0173 134.864 98.8893 134.952C98.7693 135.04 98.6293 135.084 98.4693 135.084C98.3013 135.084 98.1533 135.04 98.0253 134.952C97.9053 134.864 97.8093 134.732 97.7373 134.556L96.0573 130.008H96.6573L94.9893 134.556C94.9253 134.732 94.8293 134.864 94.7013 134.952C94.5813 135.04 94.4373 135.084 94.2693 135.084ZM106.238 135.084C106.03 135.084 105.866 135.028 105.746 134.916C105.634 134.804 105.578 134.64 105.578 134.424V127.212C105.578 126.996 105.634 126.832 105.746 126.72C105.866 126.6 106.034 126.54 106.25 126.54H110.522C110.698 126.54 110.826 126.584 110.906 126.672C110.994 126.752 111.038 126.872 111.038 127.032C111.038 127.2 110.994 127.328 110.906 127.416C110.826 127.504 110.698 127.548 110.522 127.548H106.826V130.248H110.282C110.442 130.248 110.566 130.292 110.654 130.38C110.75 130.46 110.798 130.58 110.798 130.74C110.798 130.908 110.75 131.036 110.654 131.124C110.566 131.212 110.442 131.256 110.282 131.256H106.826V134.424C106.826 134.864 106.63 135.084 106.238 135.084ZM114.616 135.108C113.976 135.108 113.424 134.988 112.96 134.748C112.504 134.5 112.148 134.152 111.892 133.704C111.644 133.248 111.52 132.708 111.52 132.084C111.52 131.476 111.644 130.944 111.892 130.488C112.14 130.032 112.48 129.676 112.912 129.42C113.344 129.164 113.836 129.036 114.388 129.036C114.796 129.036 115.16 129.104 115.48 129.24C115.8 129.368 116.072 129.56 116.296 129.816C116.528 130.064 116.7 130.368 116.812 130.728C116.932 131.088 116.992 131.492 116.992 131.94C116.992 132.076 116.952 132.18 116.872 132.252C116.792 132.316 116.672 132.348 116.512 132.348H112.48V131.604H116.176L115.972 131.772C115.972 131.372 115.912 131.032 115.792 130.752C115.68 130.472 115.508 130.26 115.276 130.116C115.052 129.964 114.772 129.888 114.436 129.888C114.06 129.888 113.74 129.976 113.476 130.152C113.22 130.328 113.024 130.572 112.888 130.884C112.752 131.196 112.684 131.56 112.684 131.976V132.048C112.684 132.752 112.848 133.284 113.176 133.644C113.512 133.996 113.996 134.172 114.628 134.172C114.868 134.172 115.12 134.14 115.384 134.076C115.656 134.012 115.912 133.904 116.152 133.752C116.288 133.672 116.408 133.636 116.512 133.644C116.624 133.652 116.712 133.688 116.776 133.752C116.848 133.816 116.892 133.896 116.908 133.992C116.924 134.088 116.908 134.188 116.86 134.292C116.812 134.388 116.728 134.476 116.608 134.556C116.336 134.74 116.02 134.88 115.66 134.976C115.3 135.064 114.952 135.108 114.616 135.108ZM120.185 135.108C119.777 135.108 119.409 135.028 119.081 134.868C118.761 134.708 118.509 134.492 118.325 134.22C118.141 133.948 118.049 133.64 118.049 133.296C118.049 132.864 118.157 132.524 118.373 132.276C118.597 132.02 118.961 131.84 119.465 131.736C119.977 131.624 120.665 131.568 121.529 131.568H122.093V132.312H121.541C120.965 132.312 120.509 132.34 120.173 132.396C119.837 132.452 119.597 132.548 119.453 132.684C119.317 132.812 119.249 132.992 119.249 133.224C119.249 133.528 119.353 133.776 119.561 133.968C119.769 134.152 120.057 134.244 120.425 134.244C120.721 134.244 120.981 134.176 121.205 134.04C121.429 133.896 121.605 133.704 121.733 133.464C121.869 133.224 121.937 132.948 121.937 132.636V131.256C121.937 130.8 121.841 130.472 121.649 130.272C121.457 130.072 121.141 129.972 120.701 129.972C120.445 129.972 120.177 130.004 119.897 130.068C119.625 130.132 119.341 130.24 119.045 130.392C118.909 130.456 118.793 130.476 118.697 130.452C118.601 130.428 118.525 130.376 118.469 130.296C118.413 130.208 118.381 130.116 118.373 130.02C118.373 129.916 118.397 129.816 118.445 129.72C118.501 129.624 118.593 129.552 118.721 129.504C119.073 129.336 119.421 129.216 119.765 129.144C120.109 129.072 120.433 129.036 120.737 129.036C121.273 129.036 121.713 129.12 122.057 129.288C122.409 129.456 122.669 129.712 122.837 130.056C123.005 130.4 123.089 130.844 123.089 131.388V134.472C123.089 134.664 123.041 134.816 122.945 134.928C122.849 135.032 122.709 135.084 122.525 135.084C122.349 135.084 122.209 135.032 122.105 134.928C122.001 134.816 121.949 134.664 121.949 134.472V133.692H122.057C121.993 133.988 121.873 134.244 121.697 134.46C121.529 134.668 121.317 134.828 121.061 134.94C120.805 135.052 120.513 135.108 120.185 135.108ZM127.254 135.108C126.774 135.108 126.37 135.024 126.042 134.856C125.714 134.688 125.47 134.44 125.31 134.112C125.15 133.784 125.07 133.384 125.07 132.912V130.08H124.35C124.19 130.08 124.066 130.04 123.978 129.96C123.89 129.872 123.846 129.756 123.846 129.612C123.846 129.46 123.89 129.344 123.978 129.264C124.066 129.184 124.19 129.144 124.35 129.144H125.07V127.908C125.07 127.708 125.122 127.556 125.226 127.452C125.338 127.348 125.49 127.296 125.682 127.296C125.874 127.296 126.022 127.348 126.126 127.452C126.23 127.556 126.282 127.708 126.282 127.908V129.144H127.686C127.846 129.144 127.97 129.184 128.058 129.264C128.146 129.344 128.19 129.46 128.19 129.612C128.19 129.756 128.146 129.872 128.058 129.96C127.97 130.04 127.846 130.08 127.686 130.08H126.282V132.816C126.282 133.24 126.37 133.56 126.546 133.776C126.73 133.992 127.026 134.1 127.434 134.1C127.578 134.1 127.702 134.088 127.806 134.064C127.918 134.032 128.01 134.012 128.082 134.004C128.17 134.004 128.242 134.036 128.298 134.1C128.354 134.156 128.382 134.268 128.382 134.436C128.382 134.556 128.358 134.668 128.31 134.772C128.27 134.876 128.194 134.944 128.082 134.976C127.986 135.008 127.854 135.036 127.686 135.06C127.526 135.092 127.382 135.108 127.254 135.108ZM131.229 135.108C130.757 135.108 130.361 135.02 130.041 134.844C129.729 134.668 129.493 134.408 129.333 134.064C129.181 133.712 129.105 133.272 129.105 132.744V129.672C129.105 129.464 129.157 129.312 129.261 129.216C129.365 129.112 129.513 129.06 129.705 129.06C129.897 129.06 130.045 129.112 130.149 129.216C130.261 129.312 130.317 129.464 130.317 129.672V132.756C130.317 133.228 130.413 133.576 130.605 133.8C130.797 134.024 131.101 134.136 131.517 134.136C131.973 134.136 132.341 133.984 132.621 133.68C132.909 133.368 133.053 132.96 133.053 132.456V129.672C133.053 129.464 133.105 129.312 133.209 129.216C133.313 129.112 133.465 129.06 133.665 129.06C133.857 129.06 134.005 129.112 134.109 129.216C134.213 129.312 134.265 129.464 134.265 129.672V134.472C134.265 134.88 134.069 135.084 133.677 135.084C133.493 135.084 133.349 135.032 133.245 134.928C133.141 134.816 133.089 134.664 133.089 134.472V133.452L133.245 133.716C133.085 134.164 132.829 134.508 132.477 134.748C132.125 134.988 131.709 135.108 131.229 135.108ZM136.585 135.084C136.385 135.084 136.233 135.032 136.129 134.928C136.025 134.816 135.973 134.664 135.973 134.472V129.672C135.973 129.472 136.025 129.32 136.129 129.216C136.233 129.112 136.377 129.06 136.561 129.06C136.753 129.06 136.897 129.112 136.993 129.216C137.097 129.32 137.149 129.472 137.149 129.672V130.548H137.029C137.157 130.068 137.393 129.704 137.737 129.456C138.081 129.208 138.521 129.064 139.057 129.024C139.201 129.016 139.313 129.052 139.393 129.132C139.481 129.212 139.529 129.336 139.537 129.504C139.553 129.672 139.517 129.808 139.429 129.912C139.341 130.008 139.205 130.064 139.021 130.08L138.793 130.104C138.273 130.152 137.877 130.316 137.605 130.596C137.333 130.876 137.197 131.26 137.197 131.748V134.472C137.197 134.664 137.145 134.816 137.041 134.928C136.945 135.032 136.793 135.084 136.585 135.084ZM143.116 135.108C142.476 135.108 141.924 134.988 141.46 134.748C141.004 134.5 140.648 134.152 140.392 133.704C140.144 133.248 140.02 132.708 140.02 132.084C140.02 131.476 140.144 130.944 140.392 130.488C140.64 130.032 140.98 129.676 141.412 129.42C141.844 129.164 142.336 129.036 142.888 129.036C143.296 129.036 143.66 129.104 143.98 129.24C144.3 129.368 144.572 129.56 144.796 129.816C145.028 130.064 145.2 130.368 145.312 130.728C145.432 131.088 145.492 131.492 145.492 131.94C145.492 132.076 145.452 132.18 145.372 132.252C145.292 132.316 145.172 132.348 145.012 132.348H140.98V131.604H144.676L144.472 131.772C144.472 131.372 144.412 131.032 144.292 130.752C144.18 130.472 144.008 130.26 143.776 130.116C143.552 129.964 143.272 129.888 142.936 129.888C142.56 129.888 142.24 129.976 141.976 130.152C141.72 130.328 141.524 130.572 141.388 130.884C141.252 131.196 141.184 131.56 141.184 131.976V132.048C141.184 132.752 141.348 133.284 141.676 133.644C142.012 133.996 142.496 134.172 143.128 134.172C143.368 134.172 143.62 134.14 143.884 134.076C144.156 134.012 144.412 133.904 144.652 133.752C144.788 133.672 144.908 133.636 145.012 133.644C145.124 133.652 145.212 133.688 145.276 133.752C145.348 133.816 145.392 133.896 145.408 133.992C145.424 134.088 145.408 134.188 145.36 134.292C145.312 134.388 145.228 134.476 145.108 134.556C144.836 134.74 144.52 134.88 144.16 134.976C143.8 135.064 143.452 135.108 143.116 135.108ZM147.401 135.048C147.169 135.048 146.981 134.976 146.837 134.832C146.693 134.688 146.621 134.504 146.621 134.28C146.621 134.056 146.693 133.876 146.837 133.74C146.981 133.596 147.169 133.524 147.401 133.524C147.633 133.524 147.817 133.596 147.953 133.74C148.089 133.876 148.157 134.056 148.157 134.28C148.157 134.504 148.089 134.688 147.953 134.832C147.817 134.976 147.633 135.048 147.401 135.048ZM147.401 130.62C147.169 130.62 146.981 130.548 146.837 130.404C146.693 130.26 146.621 130.08 146.621 129.864C146.621 129.632 146.693 129.448 146.837 129.312C146.981 129.168 147.169 129.096 147.401 129.096C147.633 129.096 147.817 129.168 147.953 129.312C148.089 129.448 148.157 129.632 148.157 129.864C148.157 130.08 148.089 130.26 147.953 130.404C147.817 130.548 147.633 130.62 147.401 130.62ZM156.749 135.108C155.893 135.108 155.161 134.932 154.553 134.58C153.945 134.228 153.477 133.728 153.149 133.08C152.829 132.424 152.669 131.652 152.669 130.764C152.669 130.1 152.761 129.504 152.945 128.976C153.129 128.44 153.393 127.984 153.737 127.608C154.089 127.224 154.517 126.932 155.021 126.732C155.533 126.532 156.109 126.432 156.749 126.432C157.221 126.432 157.673 126.496 158.105 126.624C158.545 126.752 158.925 126.936 159.245 127.176C159.381 127.264 159.469 127.372 159.509 127.5C159.557 127.62 159.565 127.736 159.533 127.848C159.509 127.96 159.457 128.056 159.377 128.136C159.297 128.208 159.193 128.248 159.065 128.256C158.945 128.264 158.813 128.22 158.669 128.124C158.405 127.924 158.113 127.776 157.793 127.68C157.473 127.584 157.137 127.536 156.785 127.536C156.177 127.536 155.665 127.664 155.249 127.92C154.833 128.168 154.517 128.532 154.301 129.012C154.085 129.492 153.977 130.076 153.977 130.764C153.977 131.452 154.085 132.04 154.301 132.528C154.517 133.008 154.833 133.376 155.249 133.632C155.665 133.88 156.177 134.004 156.785 134.004C157.137 134.004 157.473 133.956 157.793 133.86C158.121 133.756 158.429 133.604 158.717 133.404C158.861 133.316 158.989 133.276 159.101 133.284C159.221 133.292 159.321 133.332 159.401 133.404C159.481 133.476 159.533 133.568 159.557 133.68C159.589 133.784 159.585 133.896 159.545 134.016C159.513 134.128 159.437 134.224 159.317 134.304C158.989 134.568 158.601 134.768 158.153 134.904C157.705 135.04 157.237 135.108 156.749 135.108ZM161.534 135.084C161.342 135.084 161.194 135.032 161.09 134.928C160.986 134.816 160.934 134.664 160.934 134.472V127.068C160.934 126.868 160.986 126.716 161.09 126.612C161.194 126.508 161.342 126.456 161.534 126.456C161.726 126.456 161.874 126.508 161.978 126.612C162.09 126.716 162.146 126.868 162.146 127.068V130.392H161.978C162.154 129.944 162.43 129.608 162.806 129.384C163.182 129.152 163.614 129.036 164.102 129.036C164.566 129.036 164.95 129.124 165.254 129.3C165.566 129.468 165.798 129.728 165.95 130.08C166.102 130.424 166.178 130.86 166.178 131.388V134.472C166.178 134.664 166.126 134.816 166.022 134.928C165.918 135.032 165.77 135.084 165.578 135.084C165.378 135.084 165.226 135.032 165.122 134.928C165.018 134.816 164.966 134.664 164.966 134.472V131.46C164.966 130.956 164.866 130.588 164.666 130.356C164.474 130.124 164.17 130.008 163.754 130.008C163.266 130.008 162.874 130.16 162.578 130.464C162.29 130.768 162.146 131.176 162.146 131.688V134.472C162.146 134.88 161.942 135.084 161.534 135.084ZM170.596 135.108C169.956 135.108 169.404 134.988 168.94 134.748C168.484 134.5 168.128 134.152 167.872 133.704C167.624 133.248 167.5 132.708 167.5 132.084C167.5 131.476 167.624 130.944 167.872 130.488C168.12 130.032 168.46 129.676 168.892 129.42C169.324 129.164 169.816 129.036 170.368 129.036C170.776 129.036 171.14 129.104 171.46 129.24C171.78 129.368 172.052 129.56 172.276 129.816C172.508 130.064 172.68 130.368 172.792 130.728C172.912 131.088 172.972 131.492 172.972 131.94C172.972 132.076 172.932 132.18 172.852 132.252C172.772 132.316 172.652 132.348 172.492 132.348H168.46V131.604H172.156L171.952 131.772C171.952 131.372 171.892 131.032 171.772 130.752C171.66 130.472 171.488 130.26 171.256 130.116C171.032 129.964 170.752 129.888 170.416 129.888C170.04 129.888 169.72 129.976 169.456 130.152C169.2 130.328 169.004 130.572 168.868 130.884C168.732 131.196 168.664 131.56 168.664 131.976V132.048C168.664 132.752 168.828 133.284 169.156 133.644C169.492 133.996 169.976 134.172 170.608 134.172C170.848 134.172 171.1 134.14 171.364 134.076C171.636 134.012 171.892 133.904 172.132 133.752C172.268 133.672 172.388 133.636 172.492 133.644C172.604 133.652 172.692 133.688 172.756 133.752C172.828 133.816 172.872 133.896 172.888 133.992C172.904 134.088 172.888 134.188 172.84 134.292C172.792 134.388 172.708 134.476 172.588 134.556C172.316 134.74 172 134.88 171.64 134.976C171.28 135.064 170.932 135.108 170.596 135.108ZM176.873 135.108C176.273 135.108 175.753 134.984 175.313 134.736C174.881 134.48 174.545 134.124 174.305 133.668C174.065 133.204 173.945 132.66 173.945 132.036C173.945 131.572 174.013 131.156 174.149 130.788C174.285 130.412 174.477 130.096 174.725 129.84C174.981 129.584 175.289 129.388 175.649 129.252C176.017 129.108 176.425 129.036 176.873 129.036C177.153 129.036 177.445 129.08 177.749 129.168C178.061 129.248 178.349 129.384 178.613 129.576C178.717 129.64 178.781 129.72 178.805 129.816C178.837 129.904 178.841 129.996 178.817 130.092C178.801 130.188 178.757 130.272 178.685 130.344C178.621 130.408 178.541 130.448 178.445 130.464C178.349 130.472 178.245 130.444 178.133 130.38C177.941 130.244 177.745 130.148 177.545 130.092C177.345 130.028 177.153 129.996 176.969 129.996C176.681 129.996 176.425 130.044 176.201 130.14C175.985 130.228 175.801 130.36 175.649 130.536C175.497 130.704 175.381 130.916 175.301 131.172C175.229 131.428 175.193 131.72 175.193 132.048C175.193 132.704 175.345 133.22 175.649 133.596C175.961 133.964 176.401 134.148 176.969 134.148C177.153 134.148 177.345 134.12 177.545 134.064C177.745 134.008 177.941 133.912 178.133 133.776C178.245 133.712 178.349 133.688 178.445 133.704C178.541 133.72 178.617 133.764 178.673 133.836C178.737 133.9 178.777 133.98 178.793 134.076C178.817 134.164 178.813 134.256 178.781 134.352C178.749 134.448 178.681 134.528 178.577 134.592C178.321 134.776 178.041 134.908 177.737 134.988C177.441 135.068 177.153 135.108 176.873 135.108ZM180.495 135.084C180.303 135.084 180.155 135.032 180.051 134.928C179.947 134.816 179.895 134.664 179.895 134.472V127.068C179.895 126.868 179.947 126.716 180.051 126.612C180.155 126.508 180.303 126.456 180.495 126.456C180.687 126.456 180.835 126.508 180.939 126.612C181.051 126.716 181.107 126.868 181.107 127.068V131.7H181.131L183.375 129.468C183.503 129.34 183.619 129.24 183.723 129.168C183.827 129.096 183.963 129.06 184.131 129.06C184.299 129.06 184.427 129.104 184.515 129.192C184.603 129.28 184.647 129.388 184.647 129.516C184.647 129.636 184.587 129.76 184.467 129.888L182.091 132.24V131.676L184.683 134.256C184.811 134.384 184.871 134.512 184.863 134.64C184.855 134.768 184.803 134.876 184.707 134.964C184.611 135.044 184.491 135.084 184.347 135.084C184.163 135.084 184.015 135.048 183.903 134.976C183.799 134.904 183.675 134.796 183.531 134.652L181.131 132.324H181.107V134.472C181.107 134.88 180.903 135.084 180.495 135.084ZM191.791 135.108C191.199 135.108 190.687 134.984 190.255 134.736C189.831 134.488 189.499 134.136 189.259 133.68C189.019 133.224 188.899 132.688 188.899 132.072C188.899 131.6 188.967 131.18 189.103 130.812C189.239 130.444 189.431 130.128 189.679 129.864C189.935 129.592 190.239 129.388 190.591 129.252C190.951 129.108 191.351 129.036 191.791 129.036C192.375 129.036 192.879 129.16 193.303 129.408C193.735 129.656 194.071 130.008 194.311 130.464C194.551 130.912 194.671 131.448 194.671 132.072C194.671 132.536 194.603 132.956 194.467 133.332C194.331 133.708 194.135 134.028 193.879 134.292C193.631 134.556 193.327 134.76 192.967 134.904C192.615 135.04 192.223 135.108 191.791 135.108ZM191.791 134.172C192.119 134.172 192.407 134.092 192.655 133.932C192.903 133.772 193.095 133.536 193.231 133.224C193.375 132.912 193.447 132.528 193.447 132.072C193.447 131.384 193.295 130.864 192.991 130.512C192.687 130.16 192.287 129.984 191.791 129.984C191.455 129.984 191.163 130.064 190.915 130.224C190.667 130.376 190.471 130.608 190.327 130.92C190.191 131.232 190.123 131.616 190.123 132.072C190.123 132.752 190.275 133.272 190.579 133.632C190.883 133.992 191.287 134.172 191.791 134.172ZM198.12 135.108C197.648 135.108 197.252 135.02 196.932 134.844C196.62 134.668 196.384 134.408 196.224 134.064C196.072 133.712 195.996 133.272 195.996 132.744V129.672C195.996 129.464 196.048 129.312 196.152 129.216C196.256 129.112 196.404 129.06 196.596 129.06C196.788 129.06 196.936 129.112 197.04 129.216C197.152 129.312 197.208 129.464 197.208 129.672V132.756C197.208 133.228 197.304 133.576 197.496 133.8C197.688 134.024 197.992 134.136 198.408 134.136C198.864 134.136 199.232 133.984 199.512 133.68C199.8 133.368 199.944 132.96 199.944 132.456V129.672C199.944 129.464 199.996 129.312 200.1 129.216C200.204 129.112 200.356 129.06 200.556 129.06C200.748 129.06 200.896 129.112 201 129.216C201.104 129.312 201.156 129.464 201.156 129.672V134.472C201.156 134.88 200.96 135.084 200.568 135.084C200.384 135.084 200.24 135.032 200.136 134.928C200.032 134.816 199.98 134.664 199.98 134.472V133.452L200.136 133.716C199.976 134.164 199.72 134.508 199.368 134.748C199.016 134.988 198.6 135.108 198.12 135.108ZM205.36 135.108C204.88 135.108 204.476 135.024 204.148 134.856C203.82 134.688 203.576 134.44 203.416 134.112C203.256 133.784 203.176 133.384 203.176 132.912V130.08H202.456C202.296 130.08 202.172 130.04 202.084 129.96C201.996 129.872 201.952 129.756 201.952 129.612C201.952 129.46 201.996 129.344 202.084 129.264C202.172 129.184 202.296 129.144 202.456 129.144H203.176V127.908C203.176 127.708 203.228 127.556 203.332 127.452C203.444 127.348 203.596 127.296 203.788 127.296C203.98 127.296 204.128 127.348 204.232 127.452C204.336 127.556 204.388 127.708 204.388 127.908V129.144H205.792C205.952 129.144 206.076 129.184 206.164 129.264C206.252 129.344 206.296 129.46 206.296 129.612C206.296 129.756 206.252 129.872 206.164 129.96C206.076 130.04 205.952 130.08 205.792 130.08H204.388V132.816C204.388 133.24 204.476 133.56 204.652 133.776C204.836 133.992 205.132 134.1 205.54 134.1C205.684 134.1 205.808 134.088 205.912 134.064C206.024 134.032 206.116 134.012 206.188 134.004C206.276 134.004 206.348 134.036 206.404 134.1C206.46 134.156 206.488 134.268 206.488 134.436C206.488 134.556 206.464 134.668 206.416 134.772C206.376 134.876 206.3 134.944 206.188 134.976C206.092 135.008 205.96 135.036 205.792 135.06C205.632 135.092 205.488 135.108 205.36 135.108ZM212.907 135.108C212.427 135.108 212.023 135.024 211.695 134.856C211.367 134.688 211.123 134.44 210.963 134.112C210.803 133.784 210.723 133.384 210.723 132.912V130.08H210.003C209.843 130.08 209.719 130.04 209.631 129.96C209.543 129.872 209.499 129.756 209.499 129.612C209.499 129.46 209.543 129.344 209.631 129.264C209.719 129.184 209.843 129.144 210.003 129.144H210.723V127.908C210.723 127.708 210.775 127.556 210.879 127.452C210.991 127.348 211.143 127.296 211.335 127.296C211.527 127.296 211.675 127.348 211.779 127.452C211.883 127.556 211.935 127.708 211.935 127.908V129.144H213.339C213.499 129.144 213.623 129.184 213.711 129.264C213.799 129.344 213.843 129.46 213.843 129.612C213.843 129.756 213.799 129.872 213.711 129.96C213.623 130.04 213.499 130.08 213.339 130.08H211.935V132.816C211.935 133.24 212.023 133.56 212.199 133.776C212.383 133.992 212.679 134.1 213.087 134.1C213.231 134.1 213.355 134.088 213.459 134.064C213.571 134.032 213.663 134.012 213.735 134.004C213.823 134.004 213.895 134.036 213.951 134.1C214.007 134.156 214.035 134.268 214.035 134.436C214.035 134.556 214.011 134.668 213.963 134.772C213.923 134.876 213.847 134.944 213.735 134.976C213.639 135.008 213.507 135.036 213.339 135.06C213.179 135.092 213.035 135.108 212.907 135.108ZM215.499 135.084C215.307 135.084 215.159 135.032 215.055 134.928C214.951 134.816 214.899 134.664 214.899 134.472V127.068C214.899 126.868 214.951 126.716 215.055 126.612C215.159 126.508 215.307 126.456 215.499 126.456C215.691 126.456 215.839 126.508 215.943 126.612C216.055 126.716 216.111 126.868 216.111 127.068V130.392H215.943C216.119 129.944 216.395 129.608 216.771 129.384C217.147 129.152 217.579 129.036 218.067 129.036C218.531 129.036 218.915 129.124 219.219 129.3C219.531 129.468 219.763 129.728 219.915 130.08C220.067 130.424 220.143 130.86 220.143 131.388V134.472C220.143 134.664 220.091 134.816 219.987 134.928C219.883 135.032 219.735 135.084 219.543 135.084C219.343 135.084 219.191 135.032 219.087 134.928C218.983 134.816 218.931 134.664 218.931 134.472V131.46C218.931 130.956 218.831 130.588 218.631 130.356C218.439 130.124 218.135 130.008 217.719 130.008C217.231 130.008 216.839 130.16 216.543 130.464C216.255 130.768 216.111 131.176 216.111 131.688V134.472C216.111 134.88 215.907 135.084 215.499 135.084ZM224.561 135.108C223.921 135.108 223.369 134.988 222.905 134.748C222.449 134.5 222.093 134.152 221.837 133.704C221.589 133.248 221.465 132.708 221.465 132.084C221.465 131.476 221.589 130.944 221.837 130.488C222.085 130.032 222.425 129.676 222.857 129.42C223.289 129.164 223.781 129.036 224.333 129.036C224.741 129.036 225.105 129.104 225.425 129.24C225.745 129.368 226.017 129.56 226.241 129.816C226.473 130.064 226.645 130.368 226.757 130.728C226.877 131.088 226.937 131.492 226.937 131.94C226.937 132.076 226.897 132.18 226.817 132.252C226.737 132.316 226.617 132.348 226.457 132.348H222.425V131.604H226.121L225.917 131.772C225.917 131.372 225.857 131.032 225.737 130.752C225.625 130.472 225.453 130.26 225.221 130.116C224.997 129.964 224.717 129.888 224.381 129.888C224.005 129.888 223.685 129.976 223.421 130.152C223.165 130.328 222.969 130.572 222.833 130.884C222.697 131.196 222.629 131.56 222.629 131.976V132.048C222.629 132.752 222.793 133.284 223.121 133.644C223.457 133.996 223.941 134.172 224.573 134.172C224.813 134.172 225.065 134.14 225.329 134.076C225.601 134.012 225.857 133.904 226.097 133.752C226.233 133.672 226.353 133.636 226.457 133.644C226.569 133.652 226.657 133.688 226.721 133.752C226.793 133.816 226.837 133.896 226.853 133.992C226.869 134.088 226.853 134.188 226.805 134.292C226.757 134.388 226.673 134.476 226.553 134.556C226.281 134.74 225.965 134.88 225.605 134.976C225.245 135.064 224.897 135.108 224.561 135.108ZM232.022 135.084C231.83 135.084 231.682 135.032 231.578 134.928C231.474 134.816 231.422 134.664 231.422 134.472V129.672C231.422 129.472 231.474 129.32 231.578 129.216C231.682 129.112 231.826 129.06 232.01 129.06C232.202 129.06 232.346 129.112 232.442 129.216C232.546 129.32 232.598 129.472 232.598 129.672V130.608L232.466 130.392C232.642 129.944 232.918 129.608 233.294 129.384C233.67 129.152 234.102 129.036 234.59 129.036C235.054 129.036 235.438 129.124 235.742 129.3C236.054 129.468 236.286 129.728 236.438 130.08C236.59 130.424 236.666 130.86 236.666 131.388V134.472C236.666 134.664 236.614 134.816 236.51 134.928C236.406 135.032 236.258 135.084 236.066 135.084C235.866 135.084 235.714 135.032 235.61 134.928C235.506 134.816 235.454 134.664 235.454 134.472V131.46C235.454 130.956 235.354 130.588 235.154 130.356C234.962 130.124 234.658 130.008 234.242 130.008C233.754 130.008 233.362 130.16 233.066 130.464C232.778 130.768 232.634 131.176 232.634 131.688V134.472C232.634 134.88 232.43 135.084 232.022 135.084ZM241.084 135.108C240.444 135.108 239.892 134.988 239.428 134.748C238.972 134.5 238.616 134.152 238.36 133.704C238.112 133.248 237.988 132.708 237.988 132.084C237.988 131.476 238.112 130.944 238.36 130.488C238.608 130.032 238.948 129.676 239.38 129.42C239.812 129.164 240.304 129.036 240.856 129.036C241.264 129.036 241.628 129.104 241.948 129.24C242.268 129.368 242.54 129.56 242.764 129.816C242.996 130.064 243.168 130.368 243.28 130.728C243.4 131.088 243.46 131.492 243.46 131.94C243.46 132.076 243.42 132.18 243.34 132.252C243.26 132.316 243.14 132.348 242.98 132.348H238.948V131.604H242.644L242.44 131.772C242.44 131.372 242.38 131.032 242.26 130.752C242.148 130.472 241.976 130.26 241.744 130.116C241.52 129.964 241.24 129.888 240.904 129.888C240.528 129.888 240.208 129.976 239.944 130.152C239.688 130.328 239.492 130.572 239.356 130.884C239.22 131.196 239.152 131.56 239.152 131.976V132.048C239.152 132.752 239.316 133.284 239.644 133.644C239.98 133.996 240.464 134.172 241.096 134.172C241.336 134.172 241.588 134.14 241.852 134.076C242.124 134.012 242.38 133.904 242.62 133.752C242.756 133.672 242.876 133.636 242.98 133.644C243.092 133.652 243.18 133.688 243.244 133.752C243.316 133.816 243.36 133.896 243.376 133.992C243.392 134.088 243.376 134.188 243.328 134.292C243.28 134.388 243.196 134.476 243.076 134.556C242.804 134.74 242.488 134.88 242.128 134.976C241.768 135.064 241.42 135.108 241.084 135.108ZM246.836 135.084C246.668 135.084 246.52 135.044 246.392 134.964C246.272 134.876 246.176 134.74 246.104 134.556L244.34 129.888C244.276 129.728 244.256 129.588 244.28 129.468C244.304 129.34 244.364 129.24 244.46 129.168C244.564 129.096 244.696 129.06 244.856 129.06C245 129.06 245.116 129.096 245.204 129.168C245.3 129.232 245.38 129.36 245.444 129.552L247.016 133.98H246.728L248.36 129.504C248.416 129.352 248.492 129.24 248.588 129.168C248.684 129.096 248.808 129.06 248.96 129.06C249.112 129.06 249.236 129.096 249.332 129.168C249.436 129.24 249.512 129.352 249.56 129.504L251.156 133.98H250.892L252.488 129.528C252.552 129.344 252.632 129.22 252.728 129.156C252.832 129.092 252.948 129.06 253.076 129.06C253.236 129.06 253.356 129.1 253.436 129.18C253.524 129.26 253.572 129.364 253.58 129.492C253.596 129.612 253.576 129.744 253.52 129.888L251.756 134.556C251.684 134.732 251.584 134.864 251.456 134.952C251.336 135.04 251.196 135.084 251.036 135.084C250.868 135.084 250.72 135.04 250.592 134.952C250.472 134.864 250.376 134.732 250.304 134.556L248.624 130.008H249.224L247.556 134.556C247.492 134.732 247.396 134.864 247.268 134.952C247.148 135.04 247.004 135.084 246.836 135.084ZM258.972 135.084C258.78 135.084 258.628 135.032 258.516 134.928C258.412 134.816 258.36 134.664 258.36 134.472V130.08H257.688C257.536 130.08 257.416 130.04 257.328 129.96C257.24 129.872 257.196 129.756 257.196 129.612C257.196 129.46 257.24 129.344 257.328 129.264C257.416 129.184 257.536 129.144 257.688 129.144H258.708L258.36 129.468V129.036C258.36 128.244 258.556 127.648 258.948 127.248C259.34 126.84 259.912 126.6 260.664 126.528L261.036 126.504C261.172 126.488 261.28 126.508 261.36 126.564C261.44 126.62 261.492 126.692 261.516 126.78C261.54 126.868 261.54 126.96 261.516 127.056C261.5 127.144 261.46 127.224 261.396 127.296C261.332 127.368 261.252 127.408 261.156 127.416L260.928 127.428C260.456 127.468 260.112 127.604 259.896 127.836C259.68 128.06 259.572 128.404 259.572 128.868V129.336L259.404 129.144H260.736C260.904 129.144 261.028 129.184 261.108 129.264C261.196 129.344 261.24 129.46 261.24 129.612C261.24 129.756 261.196 129.872 261.108 129.96C261.028 130.04 260.904 130.08 260.736 130.08H259.572V134.472C259.572 134.88 259.372 135.084 258.972 135.084ZM264.756 135.108C264.116 135.108 263.564 134.988 263.1 134.748C262.644 134.5 262.288 134.152 262.032 133.704C261.784 133.248 261.66 132.708 261.66 132.084C261.66 131.476 261.784 130.944 262.032 130.488C262.28 130.032 262.62 129.676 263.052 129.42C263.484 129.164 263.976 129.036 264.528 129.036C264.936 129.036 265.3 129.104 265.62 129.24C265.94 129.368 266.212 129.56 266.436 129.816C266.668 130.064 266.84 130.368 266.952 130.728C267.072 131.088 267.132 131.492 267.132 131.94C267.132 132.076 267.092 132.18 267.012 132.252C266.932 132.316 266.812 132.348 266.652 132.348H262.62V131.604H266.316L266.112 131.772C266.112 131.372 266.052 131.032 265.932 130.752C265.82 130.472 265.648 130.26 265.416 130.116C265.192 129.964 264.912 129.888 264.576 129.888C264.2 129.888 263.88 129.976 263.616 130.152C263.36 130.328 263.164 130.572 263.028 130.884C262.892 131.196 262.824 131.56 262.824 131.976V132.048C262.824 132.752 262.988 133.284 263.316 133.644C263.652 133.996 264.136 134.172 264.768 134.172C265.008 134.172 265.26 134.14 265.524 134.076C265.796 134.012 266.052 133.904 266.292 133.752C266.428 133.672 266.548 133.636 266.652 133.644C266.764 133.652 266.852 133.688 266.916 133.752C266.988 133.816 267.032 133.896 267.048 133.992C267.064 134.088 267.048 134.188 267 134.292C266.952 134.388 266.868 134.476 266.748 134.556C266.476 134.74 266.16 134.88 265.8 134.976C265.44 135.064 265.092 135.108 264.756 135.108ZM270.326 135.108C269.918 135.108 269.55 135.028 269.222 134.868C268.902 134.708 268.65 134.492 268.466 134.22C268.282 133.948 268.19 133.64 268.19 133.296C268.19 132.864 268.298 132.524 268.514 132.276C268.738 132.02 269.102 131.84 269.606 131.736C270.118 131.624 270.806 131.568 271.67 131.568H272.234V132.312H271.682C271.106 132.312 270.65 132.34 270.314 132.396C269.978 132.452 269.738 132.548 269.594 132.684C269.458 132.812 269.39 132.992 269.39 133.224C269.39 133.528 269.494 133.776 269.702 133.968C269.91 134.152 270.198 134.244 270.566 134.244C270.862 134.244 271.122 134.176 271.346 134.04C271.57 133.896 271.746 133.704 271.874 133.464C272.01 133.224 272.078 132.948 272.078 132.636V131.256C272.078 130.8 271.982 130.472 271.79 130.272C271.598 130.072 271.282 129.972 270.842 129.972C270.586 129.972 270.318 130.004 270.038 130.068C269.766 130.132 269.482 130.24 269.186 130.392C269.05 130.456 268.934 130.476 268.838 130.452C268.742 130.428 268.666 130.376 268.61 130.296C268.554 130.208 268.522 130.116 268.514 130.02C268.514 129.916 268.538 129.816 268.586 129.72C268.642 129.624 268.734 129.552 268.862 129.504C269.214 129.336 269.562 129.216 269.906 129.144C270.25 129.072 270.574 129.036 270.878 129.036C271.414 129.036 271.854 129.12 272.198 129.288C272.55 129.456 272.81 129.712 272.978 130.056C273.146 130.4 273.23 130.844 273.23 131.388V134.472C273.23 134.664 273.182 134.816 273.086 134.928C272.99 135.032 272.85 135.084 272.666 135.084C272.49 135.084 272.35 135.032 272.246 134.928C272.142 134.816 272.09 134.664 272.09 134.472V133.692H272.198C272.134 133.988 272.014 134.244 271.838 134.46C271.67 134.668 271.458 134.828 271.202 134.94C270.946 135.052 270.654 135.108 270.326 135.108ZM277.395 135.108C276.915 135.108 276.511 135.024 276.183 134.856C275.855 134.688 275.611 134.44 275.451 134.112C275.291 133.784 275.211 133.384 275.211 132.912V130.08H274.491C274.331 130.08 274.207 130.04 274.119 129.96C274.031 129.872 273.987 129.756 273.987 129.612C273.987 129.46 274.031 129.344 274.119 129.264C274.207 129.184 274.331 129.144 274.491 129.144H275.211V127.908C275.211 127.708 275.263 127.556 275.367 127.452C275.479 127.348 275.631 127.296 275.823 127.296C276.015 127.296 276.163 127.348 276.267 127.452C276.371 127.556 276.423 127.708 276.423 127.908V129.144H277.827C277.987 129.144 278.111 129.184 278.199 129.264C278.287 129.344 278.331 129.46 278.331 129.612C278.331 129.756 278.287 129.872 278.199 129.96C278.111 130.04 277.987 130.08 277.827 130.08H276.423V132.816C276.423 133.24 276.511 133.56 276.687 133.776C276.871 133.992 277.167 134.1 277.575 134.1C277.719 134.1 277.843 134.088 277.947 134.064C278.059 134.032 278.151 134.012 278.223 134.004C278.311 134.004 278.383 134.036 278.439 134.1C278.495 134.156 278.523 134.268 278.523 134.436C278.523 134.556 278.499 134.668 278.451 134.772C278.411 134.876 278.335 134.944 278.223 134.976C278.127 135.008 277.995 135.036 277.827 135.06C277.667 135.092 277.523 135.108 277.395 135.108ZM281.37 135.108C280.898 135.108 280.502 135.02 280.182 134.844C279.87 134.668 279.634 134.408 279.474 134.064C279.322 133.712 279.246 133.272 279.246 132.744V129.672C279.246 129.464 279.298 129.312 279.402 129.216C279.506 129.112 279.654 129.06 279.846 129.06C280.038 129.06 280.186 129.112 280.29 129.216C280.402 129.312 280.458 129.464 280.458 129.672V132.756C280.458 133.228 280.554 133.576 280.746 133.8C280.938 134.024 281.242 134.136 281.658 134.136C282.114 134.136 282.482 133.984 282.762 133.68C283.05 133.368 283.194 132.96 283.194 132.456V129.672C283.194 129.464 283.246 129.312 283.35 129.216C283.454 129.112 283.606 129.06 283.806 129.06C283.998 129.06 284.146 129.112 284.25 129.216C284.354 129.312 284.406 129.464 284.406 129.672V134.472C284.406 134.88 284.21 135.084 283.818 135.084C283.634 135.084 283.49 135.032 283.386 134.928C283.282 134.816 283.23 134.664 283.23 134.472V133.452L283.386 133.716C283.226 134.164 282.97 134.508 282.618 134.748C282.266 134.988 281.85 135.108 281.37 135.108ZM286.726 135.084C286.526 135.084 286.374 135.032 286.27 134.928C286.166 134.816 286.114 134.664 286.114 134.472V129.672C286.114 129.472 286.166 129.32 286.27 129.216C286.374 129.112 286.518 129.06 286.702 129.06C286.894 129.06 287.038 129.112 287.134 129.216C287.238 129.32 287.29 129.472 287.29 129.672V130.548H287.17C287.298 130.068 287.534 129.704 287.878 129.456C288.222 129.208 288.662 129.064 289.198 129.024C289.342 129.016 289.454 129.052 289.534 129.132C289.622 129.212 289.67 129.336 289.678 129.504C289.694 129.672 289.658 129.808 289.57 129.912C289.482 130.008 289.346 130.064 289.162 130.08L288.934 130.104C288.414 130.152 288.018 130.316 287.746 130.596C287.474 130.876 287.338 131.26 287.338 131.748V134.472C287.338 134.664 287.286 134.816 287.182 134.928C287.086 135.032 286.934 135.084 286.726 135.084ZM293.256 135.108C292.616 135.108 292.064 134.988 291.6 134.748C291.144 134.5 290.788 134.152 290.532 133.704C290.284 133.248 290.16 132.708 290.16 132.084C290.16 131.476 290.284 130.944 290.532 130.488C290.78 130.032 291.12 129.676 291.552 129.42C291.984 129.164 292.476 129.036 293.028 129.036C293.436 129.036 293.8 129.104 294.12 129.24C294.44 129.368 294.712 129.56 294.936 129.816C295.168 130.064 295.34 130.368 295.452 130.728C295.572 131.088 295.632 131.492 295.632 131.94C295.632 132.076 295.592 132.18 295.512 132.252C295.432 132.316 295.312 132.348 295.152 132.348H291.12V131.604H294.816L294.612 131.772C294.612 131.372 294.552 131.032 294.432 130.752C294.32 130.472 294.148 130.26 293.916 130.116C293.692 129.964 293.412 129.888 293.076 129.888C292.7 129.888 292.38 129.976 292.116 130.152C291.86 130.328 291.664 130.572 291.528 130.884C291.392 131.196 291.324 131.56 291.324 131.976V132.048C291.324 132.752 291.488 133.284 291.816 133.644C292.152 133.996 292.636 134.172 293.268 134.172C293.508 134.172 293.76 134.14 294.024 134.076C294.296 134.012 294.552 133.904 294.792 133.752C294.928 133.672 295.048 133.636 295.152 133.644C295.264 133.652 295.352 133.688 295.416 133.752C295.488 133.816 295.532 133.896 295.548 133.992C295.564 134.088 295.548 134.188 295.5 134.292C295.452 134.388 295.368 134.476 295.248 134.556C294.976 134.74 294.66 134.88 294.3 134.976C293.94 135.064 293.592 135.108 293.256 135.108ZM78.724 151.108C78.316 151.108 77.948 151.028 77.62 150.868C77.3 150.708 77.048 150.492 76.864 150.22C76.68 149.948 76.588 149.64 76.588 149.296C76.588 148.864 76.696 148.524 76.912 148.276C77.136 148.02 77.5 147.84 78.004 147.736C78.516 147.624 79.204 147.568 80.068 147.568H80.632V148.312H80.08C79.504 148.312 79.048 148.34 78.712 148.396C78.376 148.452 78.136 148.548 77.992 148.684C77.856 148.812 77.788 148.992 77.788 149.224C77.788 149.528 77.892 149.776 78.1 149.968C78.308 150.152 78.596 150.244 78.964 150.244C79.26 150.244 79.52 150.176 79.744 150.04C79.968 149.896 80.144 149.704 80.272 149.464C80.408 149.224 80.476 148.948 80.476 148.636V147.256C80.476 146.8 80.38 146.472 80.188 146.272C79.996 146.072 79.68 145.972 79.24 145.972C78.984 145.972 78.716 146.004 78.436 146.068C78.164 146.132 77.88 146.24 77.584 146.392C77.448 146.456 77.332 146.476 77.236 146.452C77.14 146.428 77.064 146.376 77.008 146.296C76.952 146.208 76.92 146.116 76.912 146.02C76.912 145.916 76.936 145.816 76.984 145.72C77.04 145.624 77.132 145.552 77.26 145.504C77.612 145.336 77.96 145.216 78.304 145.144C78.648 145.072 78.972 145.036 79.276 145.036C79.812 145.036 80.252 145.12 80.596 145.288C80.948 145.456 81.208 145.712 81.376 146.056C81.544 146.4 81.628 146.844 81.628 147.388V150.472C81.628 150.664 81.58 150.816 81.484 150.928C81.388 151.032 81.248 151.084 81.064 151.084C80.888 151.084 80.748 151.032 80.644 150.928C80.54 150.816 80.488 150.664 80.488 150.472V149.692H80.596C80.532 149.988 80.412 150.244 80.236 150.46C80.068 150.668 79.856 150.828 79.6 150.94C79.344 151.052 79.052 151.108 78.724 151.108ZM85.5067 151.084C85.3387 151.084 85.1907 151.04 85.0627 150.952C84.9427 150.864 84.8427 150.728 84.7627 150.544L82.7587 145.888C82.6947 145.744 82.6707 145.608 82.6867 145.48C82.7027 145.352 82.7627 145.252 82.8667 145.18C82.9707 145.1 83.1107 145.06 83.2867 145.06C83.4387 145.06 83.5587 145.096 83.6467 145.168C83.7347 145.24 83.8147 145.364 83.8867 145.54L85.6987 150.004H85.3627L87.2107 145.54C87.2827 145.364 87.3627 145.24 87.4507 145.168C87.5467 145.096 87.6787 145.06 87.8467 145.06C87.9907 145.06 88.1027 145.1 88.1827 145.18C88.2707 145.252 88.3227 145.352 88.3387 145.48C88.3627 145.6 88.3427 145.732 88.2787 145.876L86.2507 150.544C86.1787 150.728 86.0787 150.864 85.9507 150.952C85.8227 151.04 85.6747 151.084 85.5067 151.084ZM91.2279 151.108C90.8199 151.108 90.4519 151.028 90.1239 150.868C89.8039 150.708 89.5519 150.492 89.3679 150.22C89.1839 149.948 89.0919 149.64 89.0919 149.296C89.0919 148.864 89.1999 148.524 89.4159 148.276C89.6399 148.02 90.0039 147.84 90.5079 147.736C91.0199 147.624 91.7079 147.568 92.5719 147.568H93.1359V148.312H92.5839C92.0079 148.312 91.5519 148.34 91.2159 148.396C90.8799 148.452 90.6399 148.548 90.4959 148.684C90.3599 148.812 90.2919 148.992 90.2919 149.224C90.2919 149.528 90.3959 149.776 90.6039 149.968C90.8119 150.152 91.0999 150.244 91.4679 150.244C91.7639 150.244 92.0239 150.176 92.2479 150.04C92.4719 149.896 92.6479 149.704 92.7759 149.464C92.9119 149.224 92.9799 148.948 92.9799 148.636V147.256C92.9799 146.8 92.8839 146.472 92.6919 146.272C92.4999 146.072 92.1839 145.972 91.7439 145.972C91.4879 145.972 91.2199 146.004 90.9399 146.068C90.6679 146.132 90.3839 146.24 90.0879 146.392C89.9519 146.456 89.8359 146.476 89.7399 146.452C89.6439 146.428 89.5679 146.376 89.5119 146.296C89.4559 146.208 89.4239 146.116 89.4159 146.02C89.4159 145.916 89.4399 145.816 89.4879 145.72C89.5439 145.624 89.6359 145.552 89.7639 145.504C90.1159 145.336 90.4639 145.216 90.8079 145.144C91.1519 145.072 91.4759 145.036 91.7799 145.036C92.3159 145.036 92.7559 145.12 93.0999 145.288C93.4519 145.456 93.7119 145.712 93.8799 146.056C94.0479 146.4 94.1319 146.844 94.1319 147.388V150.472C94.1319 150.664 94.0839 150.816 93.9879 150.928C93.8919 151.032 93.7519 151.084 93.5679 151.084C93.3919 151.084 93.2519 151.032 93.1479 150.928C93.0439 150.816 92.9919 150.664 92.9919 150.472V149.692H93.0999C93.0359 149.988 92.9159 150.244 92.7399 150.46C92.5719 150.668 92.3599 150.828 92.1039 150.94C91.8479 151.052 91.5559 151.108 91.2279 151.108ZM96.4012 151.072C96.2092 151.072 96.0612 151.016 95.9572 150.904C95.8532 150.784 95.8012 150.62 95.8012 150.412V145.732C95.8012 145.524 95.8532 145.364 95.9572 145.252C96.0612 145.14 96.2092 145.084 96.4012 145.084C96.5932 145.084 96.7412 145.14 96.8452 145.252C96.9572 145.364 97.0132 145.524 97.0132 145.732V150.412C97.0132 150.62 96.9612 150.784 96.8572 150.904C96.7532 151.016 96.6012 151.072 96.4012 151.072ZM96.4012 143.836C96.1612 143.836 95.9732 143.776 95.8372 143.656C95.7092 143.536 95.6452 143.368 95.6452 143.152C95.6452 142.928 95.7092 142.76 95.8372 142.648C95.9732 142.528 96.1612 142.468 96.4012 142.468C96.6412 142.468 96.8252 142.528 96.9532 142.648C97.0892 142.76 97.1572 142.928 97.1572 143.152C97.1572 143.368 97.0892 143.536 96.9532 143.656C96.8252 143.776 96.6412 143.836 96.4012 143.836ZM100.603 151.108C99.9792 151.108 99.5072 150.928 99.1872 150.568C98.8752 150.2 98.7192 149.672 98.7192 148.984V143.068C98.7192 142.868 98.7712 142.716 98.8752 142.612C98.9792 142.508 99.1272 142.456 99.3192 142.456C99.5112 142.456 99.6592 142.508 99.7632 142.612C99.8752 142.716 99.9312 142.868 99.9312 143.068V148.912C99.9312 149.312 100.011 149.612 100.171 149.812C100.339 150.004 100.579 150.1 100.891 150.1C100.963 150.1 101.027 150.1 101.083 150.1C101.139 150.092 101.195 150.084 101.251 150.076C101.347 150.068 101.415 150.096 101.455 150.16C101.495 150.216 101.515 150.336 101.515 150.52C101.515 150.688 101.479 150.82 101.407 150.916C101.335 151.004 101.219 151.06 101.059 151.084C100.987 151.092 100.911 151.096 100.831 151.096C100.751 151.104 100.675 151.108 100.603 151.108ZM104.259 151.108C103.851 151.108 103.483 151.028 103.155 150.868C102.835 150.708 102.583 150.492 102.399 150.22C102.215 149.948 102.123 149.64 102.123 149.296C102.123 148.864 102.231 148.524 102.447 148.276C102.671 148.02 103.035 147.84 103.539 147.736C104.051 147.624 104.739 147.568 105.603 147.568H106.167V148.312H105.615C105.039 148.312 104.583 148.34 104.247 148.396C103.911 148.452 103.671 148.548 103.527 148.684C103.391 148.812 103.323 148.992 103.323 149.224C103.323 149.528 103.427 149.776 103.635 149.968C103.843 150.152 104.131 150.244 104.499 150.244C104.795 150.244 105.055 150.176 105.279 150.04C105.503 149.896 105.679 149.704 105.807 149.464C105.943 149.224 106.011 148.948 106.011 148.636V147.256C106.011 146.8 105.915 146.472 105.723 146.272C105.531 146.072 105.215 145.972 104.775 145.972C104.519 145.972 104.251 146.004 103.971 146.068C103.699 146.132 103.415 146.24 103.119 146.392C102.983 146.456 102.867 146.476 102.771 146.452C102.675 146.428 102.599 146.376 102.543 146.296C102.487 146.208 102.455 146.116 102.447 146.02C102.447 145.916 102.471 145.816 102.519 145.72C102.575 145.624 102.667 145.552 102.795 145.504C103.147 145.336 103.495 145.216 103.839 145.144C104.183 145.072 104.507 145.036 104.811 145.036C105.347 145.036 105.787 145.12 106.131 145.288C106.483 145.456 106.743 145.712 106.911 146.056C107.079 146.4 107.163 146.844 107.163 147.388V150.472C107.163 150.664 107.115 150.816 107.019 150.928C106.923 151.032 106.783 151.084 106.599 151.084C106.423 151.084 106.283 151.032 106.179 150.928C106.075 150.816 106.023 150.664 106.023 150.472V149.692H106.131C106.067 149.988 105.947 150.244 105.771 150.46C105.603 150.668 105.391 150.828 105.135 150.94C104.879 151.052 104.587 151.108 104.259 151.108ZM111.976 151.108C111.464 151.108 111.02 150.98 110.644 150.724C110.268 150.46 110.016 150.112 109.888 149.68L110.02 149.464V150.472C110.02 150.664 109.968 150.816 109.864 150.928C109.76 151.032 109.616 151.084 109.432 151.084C109.24 151.084 109.092 151.032 108.988 150.928C108.884 150.816 108.832 150.664 108.832 150.472V143.068C108.832 142.868 108.884 142.716 108.988 142.612C109.092 142.508 109.24 142.456 109.432 142.456C109.624 142.456 109.772 142.508 109.876 142.612C109.988 142.716 110.044 142.868 110.044 143.068V146.428H109.9C110.028 146.004 110.28 145.668 110.656 145.42C111.032 145.164 111.472 145.036 111.976 145.036C112.504 145.036 112.96 145.16 113.344 145.408C113.728 145.656 114.024 146.004 114.232 146.452C114.448 146.9 114.556 147.44 114.556 148.072C114.556 148.688 114.448 149.228 114.232 149.692C114.024 150.148 113.724 150.5 113.332 150.748C112.948 150.988 112.496 151.108 111.976 151.108ZM111.676 150.172C112.012 150.172 112.304 150.092 112.552 149.932C112.8 149.772 112.992 149.536 113.128 149.224C113.264 148.912 113.332 148.528 113.332 148.072C113.332 147.384 113.18 146.864 112.876 146.512C112.58 146.16 112.18 145.984 111.676 145.984C111.348 145.984 111.056 146.064 110.8 146.224C110.552 146.376 110.36 146.608 110.224 146.92C110.088 147.232 110.02 147.616 110.02 148.072C110.02 148.752 110.172 149.272 110.476 149.632C110.78 149.992 111.18 150.172 111.676 150.172ZM117.806 151.108C117.182 151.108 116.71 150.928 116.39 150.568C116.078 150.2 115.922 149.672 115.922 148.984V143.068C115.922 142.868 115.974 142.716 116.078 142.612C116.182 142.508 116.33 142.456 116.522 142.456C116.714 142.456 116.862 142.508 116.966 142.612C117.078 142.716 117.134 142.868 117.134 143.068V148.912C117.134 149.312 117.214 149.612 117.374 149.812C117.542 150.004 117.782 150.1 118.094 150.1C118.166 150.1 118.23 150.1 118.286 150.1C118.342 150.092 118.398 150.084 118.454 150.076C118.55 150.068 118.618 150.096 118.658 150.16C118.698 150.216 118.718 150.336 118.718 150.52C118.718 150.688 118.682 150.82 118.61 150.916C118.538 151.004 118.422 151.06 118.262 151.084C118.19 151.092 118.114 151.096 118.034 151.096C117.954 151.104 117.878 151.108 117.806 151.108ZM122.28 151.108C121.64 151.108 121.088 150.988 120.624 150.748C120.168 150.5 119.812 150.152 119.556 149.704C119.308 149.248 119.184 148.708 119.184 148.084C119.184 147.476 119.308 146.944 119.556 146.488C119.804 146.032 120.144 145.676 120.576 145.42C121.008 145.164 121.5 145.036 122.052 145.036C122.46 145.036 122.824 145.104 123.144 145.24C123.464 145.368 123.736 145.56 123.96 145.816C124.192 146.064 124.364 146.368 124.476 146.728C124.596 147.088 124.656 147.492 124.656 147.94C124.656 148.076 124.616 148.18 124.536 148.252C124.456 148.316 124.336 148.348 124.176 148.348H120.144V147.604H123.84L123.636 147.772C123.636 147.372 123.576 147.032 123.456 146.752C123.344 146.472 123.172 146.26 122.94 146.116C122.716 145.964 122.436 145.888 122.1 145.888C121.724 145.888 121.404 145.976 121.14 146.152C120.884 146.328 120.688 146.572 120.552 146.884C120.416 147.196 120.348 147.56 120.348 147.976V148.048C120.348 148.752 120.512 149.284 120.84 149.644C121.176 149.996 121.66 150.172 122.292 150.172C122.532 150.172 122.784 150.14 123.048 150.076C123.32 150.012 123.576 149.904 123.816 149.752C123.952 149.672 124.072 149.636 124.176 149.644C124.288 149.652 124.376 149.688 124.44 149.752C124.512 149.816 124.556 149.896 124.572 149.992C124.588 150.088 124.572 150.188 124.524 150.292C124.476 150.388 124.392 150.476 124.272 150.556C124 150.74 123.684 150.88 123.324 150.976C122.964 151.064 122.616 151.108 122.28 151.108ZM129.741 151.072C129.549 151.072 129.401 151.016 129.297 150.904C129.193 150.784 129.141 150.62 129.141 150.412V145.732C129.141 145.524 129.193 145.364 129.297 145.252C129.401 145.14 129.549 145.084 129.741 145.084C129.933 145.084 130.081 145.14 130.185 145.252C130.297 145.364 130.353 145.524 130.353 145.732V150.412C130.353 150.62 130.301 150.784 130.197 150.904C130.093 151.016 129.941 151.072 129.741 151.072ZM129.741 143.836C129.501 143.836 129.313 143.776 129.177 143.656C129.049 143.536 128.985 143.368 128.985 143.152C128.985 142.928 129.049 142.76 129.177 142.648C129.313 142.528 129.501 142.468 129.741 142.468C129.981 142.468 130.165 142.528 130.293 142.648C130.429 142.76 130.497 142.928 130.497 143.152C130.497 143.368 130.429 143.536 130.293 143.656C130.165 143.776 129.981 143.836 129.741 143.836ZM132.659 151.084C132.467 151.084 132.319 151.032 132.215 150.928C132.111 150.816 132.059 150.664 132.059 150.472V145.672C132.059 145.472 132.111 145.32 132.215 145.216C132.319 145.112 132.463 145.06 132.647 145.06C132.839 145.06 132.983 145.112 133.079 145.216C133.183 145.32 133.235 145.472 133.235 145.672V146.608L133.103 146.392C133.279 145.944 133.555 145.608 133.931 145.384C134.307 145.152 134.739 145.036 135.227 145.036C135.691 145.036 136.075 145.124 136.379 145.3C136.691 145.468 136.923 145.728 137.075 146.08C137.227 146.424 137.303 146.86 137.303 147.388V150.472C137.303 150.664 137.251 150.816 137.147 150.928C137.043 151.032 136.895 151.084 136.703 151.084C136.503 151.084 136.351 151.032 136.247 150.928C136.143 150.816 136.091 150.664 136.091 150.472V147.46C136.091 146.956 135.991 146.588 135.791 146.356C135.599 146.124 135.295 146.008 134.879 146.008C134.391 146.008 133.999 146.16 133.703 146.464C133.415 146.768 133.271 147.176 133.271 147.688V150.472C133.271 150.88 133.067 151.084 132.659 151.084ZM143.517 153.244C143.373 153.244 143.253 153.204 143.157 153.124C143.069 153.052 143.017 152.952 143.001 152.824C142.993 152.704 143.017 152.572 143.073 152.428L143.889 150.592V151.108L141.645 145.888C141.589 145.744 141.569 145.608 141.585 145.48C141.601 145.352 141.661 145.252 141.765 145.18C141.869 145.1 142.009 145.06 142.185 145.06C142.337 145.06 142.457 145.096 142.545 145.168C142.633 145.24 142.713 145.364 142.785 145.54L144.597 150.016H144.261L146.097 145.54C146.169 145.356 146.253 145.232 146.349 145.168C146.445 145.096 146.577 145.06 146.745 145.06C146.889 145.06 147.001 145.1 147.081 145.18C147.169 145.252 147.221 145.352 147.237 145.48C147.261 145.6 147.241 145.732 147.177 145.876L144.177 152.776C144.097 152.96 144.005 153.084 143.901 153.148C143.805 153.212 143.677 153.244 143.517 153.244ZM150.81 151.108C150.218 151.108 149.706 150.984 149.274 150.736C148.85 150.488 148.518 150.136 148.278 149.68C148.038 149.224 147.918 148.688 147.918 148.072C147.918 147.6 147.986 147.18 148.122 146.812C148.258 146.444 148.45 146.128 148.698 145.864C148.954 145.592 149.258 145.388 149.61 145.252C149.97 145.108 150.37 145.036 150.81 145.036C151.394 145.036 151.898 145.16 152.322 145.408C152.754 145.656 153.09 146.008 153.33 146.464C153.57 146.912 153.69 147.448 153.69 148.072C153.69 148.536 153.622 148.956 153.486 149.332C153.35 149.708 153.154 150.028 152.898 150.292C152.65 150.556 152.346 150.76 151.986 150.904C151.634 151.04 151.242 151.108 150.81 151.108ZM150.81 150.172C151.138 150.172 151.426 150.092 151.674 149.932C151.922 149.772 152.114 149.536 152.25 149.224C152.394 148.912 152.466 148.528 152.466 148.072C152.466 147.384 152.314 146.864 152.01 146.512C151.706 146.16 151.306 145.984 150.81 145.984C150.474 145.984 150.182 146.064 149.934 146.224C149.686 146.376 149.49 146.608 149.346 146.92C149.21 147.232 149.142 147.616 149.142 148.072C149.142 148.752 149.294 149.272 149.598 149.632C149.902 149.992 150.306 150.172 150.81 150.172ZM157.139 151.108C156.667 151.108 156.271 151.02 155.951 150.844C155.639 150.668 155.403 150.408 155.243 150.064C155.091 149.712 155.015 149.272 155.015 148.744V145.672C155.015 145.464 155.067 145.312 155.171 145.216C155.275 145.112 155.423 145.06 155.615 145.06C155.807 145.06 155.955 145.112 156.059 145.216C156.171 145.312 156.227 145.464 156.227 145.672V148.756C156.227 149.228 156.323 149.576 156.515 149.8C156.707 150.024 157.011 150.136 157.427 150.136C157.883 150.136 158.251 149.984 158.531 149.68C158.819 149.368 158.963 148.96 158.963 148.456V145.672C158.963 145.464 159.015 145.312 159.119 145.216C159.223 145.112 159.375 145.06 159.575 145.06C159.767 145.06 159.915 145.112 160.019 145.216C160.123 145.312 160.175 145.464 160.175 145.672V150.472C160.175 150.88 159.979 151.084 159.587 151.084C159.403 151.084 159.259 151.032 159.155 150.928C159.051 150.816 158.999 150.664 158.999 150.472V149.452L159.155 149.716C158.995 150.164 158.739 150.508 158.387 150.748C158.035 150.988 157.619 151.108 157.139 151.108ZM162.495 151.084C162.295 151.084 162.143 151.032 162.039 150.928C161.935 150.816 161.883 150.664 161.883 150.472V145.672C161.883 145.472 161.935 145.32 162.039 145.216C162.143 145.112 162.287 145.06 162.471 145.06C162.663 145.06 162.807 145.112 162.903 145.216C163.007 145.32 163.059 145.472 163.059 145.672V146.548H162.939C163.067 146.068 163.303 145.704 163.647 145.456C163.991 145.208 164.431 145.064 164.967 145.024C165.111 145.016 165.223 145.052 165.303 145.132C165.391 145.212 165.439 145.336 165.447 145.504C165.463 145.672 165.427 145.808 165.339 145.912C165.251 146.008 165.115 146.064 164.931 146.08L164.703 146.104C164.183 146.152 163.787 146.316 163.515 146.596C163.243 146.876 163.107 147.26 163.107 147.748V150.472C163.107 150.664 163.055 150.816 162.951 150.928C162.855 151.032 162.703 151.084 162.495 151.084ZM171.576 151.108C171.224 151.108 170.86 151.068 170.484 150.988C170.116 150.908 169.776 150.772 169.464 150.58C169.36 150.508 169.288 150.428 169.248 150.34C169.208 150.252 169.192 150.164 169.2 150.076C169.216 149.98 169.252 149.9 169.308 149.836C169.372 149.764 169.448 149.72 169.536 149.704C169.632 149.688 169.732 149.708 169.836 149.764C170.148 149.94 170.448 150.064 170.736 150.136C171.024 150.2 171.308 150.232 171.588 150.232C172.012 150.232 172.332 150.156 172.548 150.004C172.764 149.852 172.872 149.648 172.872 149.392C172.872 149.184 172.8 149.024 172.656 148.912C172.512 148.792 172.296 148.7 172.008 148.636L170.868 148.408C170.372 148.304 169.996 148.12 169.74 147.856C169.484 147.592 169.356 147.256 169.356 146.848C169.356 146.48 169.456 146.16 169.656 145.888C169.856 145.616 170.136 145.408 170.496 145.264C170.856 145.112 171.272 145.036 171.744 145.036C172.096 145.036 172.428 145.08 172.74 145.168C173.052 145.256 173.34 145.388 173.604 145.564C173.708 145.62 173.776 145.696 173.808 145.792C173.84 145.88 173.844 145.968 173.82 146.056C173.804 146.144 173.764 146.224 173.7 146.296C173.636 146.36 173.556 146.4 173.46 146.416C173.372 146.424 173.272 146.4 173.16 146.344C172.92 146.192 172.68 146.084 172.44 146.02C172.208 145.956 171.976 145.924 171.744 145.924C171.32 145.924 171 146.004 170.784 146.164C170.576 146.316 170.472 146.524 170.472 146.788C170.472 146.988 170.536 147.152 170.664 147.28C170.792 147.408 170.992 147.5 171.264 147.556L172.404 147.784C172.924 147.888 173.316 148.064 173.58 148.312C173.852 148.56 173.988 148.896 173.988 149.32C173.988 149.872 173.768 150.308 173.328 150.628C172.888 150.948 172.304 151.108 171.576 151.108ZM178.084 151.108C177.444 151.108 176.892 150.988 176.428 150.748C175.972 150.5 175.616 150.152 175.36 149.704C175.112 149.248 174.988 148.708 174.988 148.084C174.988 147.476 175.112 146.944 175.36 146.488C175.608 146.032 175.948 145.676 176.38 145.42C176.812 145.164 177.304 145.036 177.856 145.036C178.264 145.036 178.628 145.104 178.948 145.24C179.268 145.368 179.54 145.56 179.764 145.816C179.996 146.064 180.168 146.368 180.28 146.728C180.4 147.088 180.46 147.492 180.46 147.94C180.46 148.076 180.42 148.18 180.34 148.252C180.26 148.316 180.14 148.348 179.98 148.348H175.948V147.604H179.644L179.44 147.772C179.44 147.372 179.38 147.032 179.26 146.752C179.148 146.472 178.976 146.26 178.744 146.116C178.52 145.964 178.24 145.888 177.904 145.888C177.528 145.888 177.208 145.976 176.944 146.152C176.688 146.328 176.492 146.572 176.356 146.884C176.22 147.196 176.152 147.56 176.152 147.976V148.048C176.152 148.752 176.316 149.284 176.644 149.644C176.98 149.996 177.464 150.172 178.096 150.172C178.336 150.172 178.588 150.14 178.852 150.076C179.124 150.012 179.38 149.904 179.62 149.752C179.756 149.672 179.876 149.636 179.98 149.644C180.092 149.652 180.18 149.688 180.244 149.752C180.316 149.816 180.36 149.896 180.376 149.992C180.392 150.088 180.376 150.188 180.328 150.292C180.28 150.388 180.196 150.476 180.076 150.556C179.804 150.74 179.488 150.88 179.128 150.976C178.768 151.064 178.42 151.108 178.084 151.108ZM184.266 151.108C183.786 151.108 183.382 151.024 183.054 150.856C182.726 150.688 182.482 150.44 182.322 150.112C182.162 149.784 182.082 149.384 182.082 148.912V146.08H181.362C181.202 146.08 181.078 146.04 180.99 145.96C180.902 145.872 180.858 145.756 180.858 145.612C180.858 145.46 180.902 145.344 180.99 145.264C181.078 145.184 181.202 145.144 181.362 145.144H182.082V143.908C182.082 143.708 182.134 143.556 182.238 143.452C182.35 143.348 182.502 143.296 182.694 143.296C182.886 143.296 183.034 143.348 183.138 143.452C183.242 143.556 183.294 143.708 183.294 143.908V145.144H184.698C184.858 145.144 184.982 145.184 185.07 145.264C185.158 145.344 185.202 145.46 185.202 145.612C185.202 145.756 185.158 145.872 185.07 145.96C184.982 146.04 184.858 146.08 184.698 146.08H183.294V148.816C183.294 149.24 183.382 149.56 183.558 149.776C183.742 149.992 184.038 150.1 184.446 150.1C184.59 150.1 184.714 150.088 184.818 150.064C184.93 150.032 185.022 150.012 185.094 150.004C185.182 150.004 185.254 150.036 185.31 150.1C185.366 150.156 185.394 150.268 185.394 150.436C185.394 150.556 185.37 150.668 185.322 150.772C185.282 150.876 185.206 150.944 185.094 150.976C184.998 151.008 184.866 151.036 184.698 151.06C184.538 151.092 184.394 151.108 184.266 151.108ZM188.414 151.108C187.934 151.108 187.53 151.024 187.202 150.856C186.874 150.688 186.63 150.44 186.47 150.112C186.31 149.784 186.23 149.384 186.23 148.912V146.08H185.51C185.35 146.08 185.226 146.04 185.138 145.96C185.05 145.872 185.006 145.756 185.006 145.612C185.006 145.46 185.05 145.344 185.138 145.264C185.226 145.184 185.35 145.144 185.51 145.144H186.23V143.908C186.23 143.708 186.282 143.556 186.386 143.452C186.498 143.348 186.65 143.296 186.842 143.296C187.034 143.296 187.182 143.348 187.286 143.452C187.39 143.556 187.442 143.708 187.442 143.908V145.144H188.846C189.006 145.144 189.13 145.184 189.218 145.264C189.306 145.344 189.35 145.46 189.35 145.612C189.35 145.756 189.306 145.872 189.218 145.96C189.13 146.04 189.006 146.08 188.846 146.08H187.442V148.816C187.442 149.24 187.53 149.56 187.706 149.776C187.89 149.992 188.186 150.1 188.594 150.1C188.738 150.1 188.862 150.088 188.966 150.064C189.078 150.032 189.17 150.012 189.242 150.004C189.33 150.004 189.402 150.036 189.458 150.1C189.514 150.156 189.542 150.268 189.542 150.436C189.542 150.556 189.518 150.668 189.47 150.772C189.43 150.876 189.354 150.944 189.242 150.976C189.146 151.008 189.014 151.036 188.846 151.06C188.686 151.092 188.542 151.108 188.414 151.108ZM191.007 151.072C190.815 151.072 190.667 151.016 190.563 150.904C190.459 150.784 190.407 150.62 190.407 150.412V145.732C190.407 145.524 190.459 145.364 190.563 145.252C190.667 145.14 190.815 145.084 191.007 145.084C191.199 145.084 191.347 145.14 191.451 145.252C191.563 145.364 191.619 145.524 191.619 145.732V150.412C191.619 150.62 191.567 150.784 191.463 150.904C191.359 151.016 191.207 151.072 191.007 151.072ZM191.007 143.836C190.767 143.836 190.579 143.776 190.443 143.656C190.315 143.536 190.251 143.368 190.251 143.152C190.251 142.928 190.315 142.76 190.443 142.648C190.579 142.528 190.767 142.468 191.007 142.468C191.247 142.468 191.431 142.528 191.559 142.648C191.695 142.76 191.763 142.928 191.763 143.152C191.763 143.368 191.695 143.536 191.559 143.656C191.431 143.776 191.247 143.836 191.007 143.836ZM193.925 151.084C193.733 151.084 193.585 151.032 193.481 150.928C193.377 150.816 193.325 150.664 193.325 150.472V145.672C193.325 145.472 193.377 145.32 193.481 145.216C193.585 145.112 193.729 145.06 193.913 145.06C194.105 145.06 194.249 145.112 194.345 145.216C194.449 145.32 194.501 145.472 194.501 145.672V146.608L194.369 146.392C194.545 145.944 194.821 145.608 195.197 145.384C195.573 145.152 196.005 145.036 196.493 145.036C196.957 145.036 197.341 145.124 197.645 145.3C197.957 145.468 198.189 145.728 198.341 146.08C198.493 146.424 198.569 146.86 198.569 147.388V150.472C198.569 150.664 198.517 150.816 198.413 150.928C198.309 151.032 198.161 151.084 197.969 151.084C197.769 151.084 197.617 151.032 197.513 150.928C197.409 150.816 197.357 150.664 197.357 150.472V147.46C197.357 146.956 197.257 146.588 197.057 146.356C196.865 146.124 196.561 146.008 196.145 146.008C195.657 146.008 195.265 146.16 194.969 146.464C194.681 146.768 194.537 147.176 194.537 147.688V150.472C194.537 150.88 194.333 151.084 193.925 151.084ZM202.891 153.268C202.459 153.268 202.039 153.224 201.631 153.136C201.231 153.048 200.867 152.904 200.539 152.704C200.419 152.64 200.339 152.56 200.299 152.464C200.259 152.376 200.247 152.284 200.263 152.188C200.287 152.092 200.331 152.008 200.395 151.936C200.459 151.864 200.535 151.816 200.623 151.792C200.719 151.768 200.819 151.784 200.923 151.84C201.275 152.032 201.607 152.16 201.919 152.224C202.239 152.296 202.535 152.332 202.807 152.332C203.367 152.332 203.787 152.188 204.067 151.9C204.347 151.62 204.487 151.204 204.487 150.652V149.428H204.595C204.475 149.868 204.223 150.216 203.839 150.472C203.455 150.728 203.011 150.856 202.507 150.856C201.979 150.856 201.519 150.736 201.127 150.496C200.735 150.248 200.431 149.908 200.215 149.476C199.999 149.036 199.891 148.524 199.891 147.94C199.891 147.5 199.951 147.104 200.071 146.752C200.199 146.4 200.375 146.096 200.599 145.84C200.831 145.584 201.107 145.388 201.427 145.252C201.755 145.108 202.115 145.036 202.507 145.036C203.019 145.036 203.463 145.164 203.839 145.42C204.223 145.676 204.471 146.024 204.583 146.464L204.463 146.668V145.672C204.463 145.472 204.515 145.32 204.619 145.216C204.731 145.112 204.879 145.06 205.063 145.06C205.255 145.06 205.403 145.112 205.507 145.216C205.611 145.32 205.663 145.472 205.663 145.672V150.508C205.663 151.42 205.427 152.108 204.955 152.572C204.483 153.036 203.795 153.268 202.891 153.268ZM202.795 149.908C203.147 149.908 203.447 149.828 203.695 149.668C203.943 149.508 204.135 149.28 204.271 148.984C204.407 148.688 204.475 148.34 204.475 147.94C204.475 147.34 204.323 146.864 204.019 146.512C203.723 146.16 203.315 145.984 202.795 145.984C202.451 145.984 202.155 146.064 201.907 146.224C201.659 146.384 201.463 146.612 201.319 146.908C201.183 147.196 201.115 147.54 201.115 147.94C201.115 148.548 201.267 149.028 201.571 149.38C201.875 149.732 202.283 149.908 202.795 149.908ZM209.416 151.108C209.064 151.108 208.7 151.068 208.324 150.988C207.956 150.908 207.616 150.772 207.304 150.58C207.2 150.508 207.128 150.428 207.088 150.34C207.048 150.252 207.032 150.164 207.04 150.076C207.056 149.98 207.092 149.9 207.148 149.836C207.212 149.764 207.288 149.72 207.376 149.704C207.472 149.688 207.572 149.708 207.676 149.764C207.988 149.94 208.288 150.064 208.576 150.136C208.864 150.2 209.148 150.232 209.428 150.232C209.852 150.232 210.172 150.156 210.388 150.004C210.604 149.852 210.712 149.648 210.712 149.392C210.712 149.184 210.64 149.024 210.496 148.912C210.352 148.792 210.136 148.7 209.848 148.636L208.708 148.408C208.212 148.304 207.836 148.12 207.58 147.856C207.324 147.592 207.196 147.256 207.196 146.848C207.196 146.48 207.296 146.16 207.496 145.888C207.696 145.616 207.976 145.408 208.336 145.264C208.696 145.112 209.112 145.036 209.584 145.036C209.936 145.036 210.268 145.08 210.58 145.168C210.892 145.256 211.18 145.388 211.444 145.564C211.548 145.62 211.616 145.696 211.648 145.792C211.68 145.88 211.684 145.968 211.66 146.056C211.644 146.144 211.604 146.224 211.54 146.296C211.476 146.36 211.396 146.4 211.3 146.416C211.212 146.424 211.112 146.4 211 146.344C210.76 146.192 210.52 146.084 210.28 146.02C210.048 145.956 209.816 145.924 209.584 145.924C209.16 145.924 208.84 146.004 208.624 146.164C208.416 146.316 208.312 146.524 208.312 146.788C208.312 146.988 208.376 147.152 208.504 147.28C208.632 147.408 208.832 147.5 209.104 147.556L210.244 147.784C210.764 147.888 211.156 148.064 211.42 148.312C211.692 148.56 211.828 148.896 211.828 149.32C211.828 149.872 211.608 150.308 211.168 150.628C210.728 150.948 210.144 151.108 209.416 151.108ZM213.706 151.048C213.474 151.048 213.286 150.976 213.142 150.832C212.998 150.688 212.926 150.504 212.926 150.28C212.926 150.056 212.998 149.876 213.142 149.74C213.286 149.596 213.474 149.524 213.706 149.524C213.938 149.524 214.122 149.596 214.258 149.74C214.394 149.876 214.462 150.056 214.462 150.28C214.462 150.504 214.394 150.688 214.258 150.832C214.122 150.976 213.938 151.048 213.706 151.048Z" fill="#64728C"/>
<rect x="233" y="86.5" width="79" height="32" rx="16" fill="#1E6CEB" fill-opacity="0.13"/>
<path d="M250.644 106.596C250.42 106.596 250.248 106.532 250.128 106.404C250.008 106.276 249.948 106.1 249.948 105.876V98.664C249.948 98.432 250.012 98.256 250.14 98.136C250.268 98.008 250.444 97.944 250.668 97.944C250.868 97.944 251.024 97.984 251.136 98.064C251.256 98.136 251.364 98.264 251.46 98.448L254.424 103.932H254.04L257.004 98.448C257.1 98.264 257.204 98.136 257.316 98.064C257.428 97.984 257.584 97.944 257.784 97.944C258.008 97.944 258.18 98.008 258.3 98.136C258.42 98.256 258.48 98.432 258.48 98.664V105.876C258.48 106.1 258.42 106.276 258.3 106.404C258.188 106.532 258.016 106.596 257.784 106.596C257.56 106.596 257.388 106.532 257.268 106.404C257.148 106.276 257.088 106.1 257.088 105.876V100.32H257.352L254.832 104.916C254.752 105.052 254.668 105.152 254.58 105.216C254.492 105.28 254.372 105.312 254.22 105.312C254.068 105.312 253.944 105.28 253.848 105.216C253.752 105.144 253.668 105.044 253.596 104.916L251.052 100.308H251.34V105.876C251.34 106.1 251.28 106.276 251.16 106.404C251.048 106.532 250.876 106.596 250.644 106.596ZM262.874 106.62C262.266 106.62 261.738 106.496 261.29 106.248C260.842 106 260.494 105.648 260.246 105.192C259.998 104.728 259.874 104.184 259.874 103.56C259.874 103.088 259.942 102.668 260.078 102.3C260.222 101.924 260.426 101.604 260.69 101.34C260.954 101.068 261.27 100.864 261.638 100.728C262.006 100.584 262.418 100.512 262.874 100.512C263.482 100.512 264.01 100.636 264.458 100.884C264.906 101.132 265.254 101.484 265.502 101.94C265.75 102.396 265.874 102.936 265.874 103.56C265.874 104.032 265.802 104.456 265.658 104.832C265.522 105.208 265.322 105.532 265.058 105.804C264.794 106.068 264.478 106.272 264.11 106.416C263.742 106.552 263.33 106.62 262.874 106.62ZM262.874 105.48C263.17 105.48 263.43 105.408 263.654 105.264C263.878 105.12 264.05 104.908 264.17 104.628C264.298 104.34 264.362 103.984 264.362 103.56C264.362 102.92 264.226 102.444 263.954 102.132C263.682 101.812 263.322 101.652 262.874 101.652C262.578 101.652 262.318 101.724 262.094 101.868C261.87 102.004 261.694 102.216 261.566 102.504C261.446 102.784 261.386 103.136 261.386 103.56C261.386 104.192 261.522 104.672 261.794 105C262.066 105.32 262.426 105.48 262.874 105.48ZM267.88 106.596C267.632 106.596 267.44 106.532 267.304 106.404C267.176 106.268 267.112 106.076 267.112 105.828V101.292C267.112 101.044 267.176 100.856 267.304 100.728C267.432 100.6 267.612 100.536 267.844 100.536C268.076 100.536 268.256 100.6 268.384 100.728C268.512 100.856 268.576 101.044 268.576 101.292V102.048H268.456C268.568 101.568 268.788 101.204 269.116 100.956C269.444 100.708 269.88 100.56 270.424 100.512C270.592 100.496 270.724 100.54 270.82 100.644C270.924 100.74 270.984 100.892 271 101.1C271.016 101.3 270.968 101.464 270.856 101.592C270.752 101.712 270.592 101.784 270.376 101.808L270.112 101.832C269.624 101.88 269.256 102.032 269.008 102.288C268.76 102.536 268.636 102.888 268.636 103.344V105.828C268.636 106.076 268.572 106.268 268.444 106.404C268.316 106.532 268.128 106.596 267.88 106.596ZM274.61 106.62C273.946 106.62 273.374 106.496 272.894 106.248C272.414 106 272.042 105.648 271.778 105.192C271.522 104.736 271.394 104.196 271.394 103.572C271.394 102.964 271.518 102.432 271.766 101.976C272.022 101.52 272.37 101.164 272.81 100.908C273.258 100.644 273.766 100.512 274.334 100.512C274.75 100.512 275.122 100.58 275.45 100.716C275.786 100.852 276.07 101.048 276.302 101.304C276.542 101.56 276.722 101.872 276.842 102.24C276.97 102.6 277.034 103.008 277.034 103.464C277.034 103.608 276.982 103.72 276.878 103.8C276.782 103.872 276.642 103.908 276.458 103.908H272.606V103.044H275.978L275.786 103.224C275.786 102.856 275.73 102.548 275.618 102.3C275.514 102.052 275.358 101.864 275.15 101.736C274.95 101.6 274.698 101.532 274.394 101.532C274.058 101.532 273.77 101.612 273.53 101.772C273.298 101.924 273.118 102.144 272.99 102.432C272.87 102.712 272.81 103.048 272.81 103.44V103.524C272.81 104.18 272.962 104.672 273.266 105C273.578 105.32 274.034 105.48 274.634 105.48C274.842 105.48 275.074 105.456 275.33 105.408C275.594 105.352 275.842 105.26 276.074 105.132C276.242 105.036 276.39 104.996 276.518 105.012C276.646 105.02 276.746 105.064 276.818 105.144C276.898 105.224 276.946 105.324 276.962 105.444C276.978 105.556 276.954 105.672 276.89 105.792C276.834 105.912 276.734 106.016 276.59 106.104C276.31 106.28 275.986 106.412 275.618 106.5C275.258 106.58 274.922 106.62 274.61 106.62ZM282.391 106.596C282.143 106.596 281.951 106.528 281.815 106.392C281.687 106.248 281.623 106.052 281.623 105.804V98.736C281.623 98.48 281.687 98.284 281.815 98.148C281.951 98.012 282.143 97.944 282.391 97.944C282.639 97.944 282.827 98.012 282.955 98.148C283.091 98.284 283.159 98.48 283.159 98.736V105.804C283.159 106.052 283.095 106.248 282.967 106.392C282.839 106.528 282.647 106.596 282.391 106.596ZM286.018 106.596C285.778 106.596 285.59 106.532 285.454 106.404C285.326 106.268 285.262 106.076 285.262 105.828V101.76H284.71C284.518 101.76 284.37 101.712 284.266 101.616C284.162 101.512 284.11 101.372 284.11 101.196C284.11 101.012 284.162 100.872 284.266 100.776C284.37 100.68 284.518 100.632 284.71 100.632H285.694L285.262 101.028V100.62C285.262 99.796 285.47 99.18 285.886 98.772C286.302 98.356 286.902 98.112 287.686 98.04L288.094 98.004C288.254 97.988 288.382 98.016 288.478 98.088C288.574 98.152 288.638 98.24 288.67 98.352C288.702 98.456 288.706 98.564 288.682 98.676C288.658 98.788 288.606 98.888 288.526 98.976C288.454 99.056 288.358 99.1 288.238 99.108L288.07 99.12C287.614 99.152 287.282 99.268 287.074 99.468C286.866 99.668 286.762 99.972 286.762 100.38V100.824L286.57 100.632H287.782C287.974 100.632 288.122 100.68 288.226 100.776C288.33 100.872 288.382 101.012 288.382 101.196C288.382 101.372 288.33 101.512 288.226 101.616C288.122 101.712 287.974 101.76 287.782 101.76H286.762V105.828C286.762 106.34 286.514 106.596 286.018 106.596ZM291.761 106.62C291.153 106.62 290.625 106.496 290.177 106.248C289.729 106 289.381 105.648 289.133 105.192C288.885 104.728 288.761 104.184 288.761 103.56C288.761 103.088 288.829 102.668 288.965 102.3C289.109 101.924 289.313 101.604 289.577 101.34C289.841 101.068 290.157 100.864 290.525 100.728C290.893 100.584 291.305 100.512 291.761 100.512C292.369 100.512 292.897 100.636 293.345 100.884C293.793 101.132 294.141 101.484 294.389 101.94C294.637 102.396 294.761 102.936 294.761 103.56C294.761 104.032 294.689 104.456 294.545 104.832C294.409 105.208 294.209 105.532 293.945 105.804C293.681 106.068 293.365 106.272 292.997 106.416C292.629 106.552 292.217 106.62 291.761 106.62ZM291.761 105.48C292.057 105.48 292.317 105.408 292.541 105.264C292.765 105.12 292.937 104.908 293.057 104.628C293.185 104.34 293.249 103.984 293.249 103.56C293.249 102.92 293.113 102.444 292.841 102.132C292.569 101.812 292.209 101.652 291.761 101.652C291.465 101.652 291.205 101.724 290.981 101.868C290.757 102.004 290.581 102.216 290.453 102.504C290.333 102.784 290.273 103.136 290.273 103.56C290.273 104.192 290.409 104.672 290.681 105C290.953 105.32 291.313 105.48 291.761 105.48Z" fill="#1E6CEB"/>
</g>
<circle opacity="0.2" cx="333" cy="103" r="13" stroke="#1E6CEB" stroke-width="5"/>
<circle opacity="0.2" cx="1.3" cy="1.3" r="1.3" transform="matrix(1 0 0 -1 331.7 104.3)" fill="#1E6CEB"/>
<path d="M334.235 90.0588C335.934 90.2209 337.585 90.7162 339.093 91.5163C340.601 92.3165 341.937 93.4059 343.024 94.7222C344.111 96.0386 344.928 97.5561 345.429 99.1883C345.929 100.82 346.104 102.535 345.941 104.235" stroke="#1E6CEB" stroke-width="5" stroke-linecap="round" stroke-linejoin="round"/>
<path d="M334.857 103L337.245 100.612C337.776 100.081 337.776 99.2855 337.245 98.7549C336.715 98.2243 335.919 98.2243 335.388 98.7549L333 101.143L330.613 98.7549C330.082 98.2243 329.286 98.2243 328.755 98.7549C328.225 99.2855 328.225 100.081 328.755 100.612L331.143 103L328.755 105.388C328.225 105.918 328.225 106.714 328.755 107.245C329.021 107.51 329.352 107.643 329.684 107.643C330.016 107.643 330.347 107.51 330.613 107.245L333 104.857L335.388 107.245C335.653 107.51 335.985 107.643 336.317 107.643C336.648 107.643 336.98 107.51 337.245 107.245C337.776 106.714 337.776 105.918 337.245 105.388L334.857 103Z" fill="#1E6CEB"/>
</g>
<rect x="60.5" y="77.5" width="299" height="96" rx="24.5" stroke="#1E6CEB"/>
</g>
<g filter="url(#filter3_d_978_2992)">
<path d="M76.9014 78.5C76.9014 66.0736 86.975 56 99.4014 56V56C111.828 56 121.901 66.0736 121.901 78.5V78.5C121.901 90.9264 111.828 101 99.4014 101V101C86.975 101 76.9014 90.9264 76.9014 78.5V78.5Z" fill="#0072DC" shape-rendering="crispEdges"/>
<path d="M76.9014 78.5C76.9014 66.0736 86.975 56 99.4014 56V56C111.828 56 121.901 66.0736 121.901 78.5V78.5C121.901 90.9264 111.828 101 99.4014 101V101C86.975 101 76.9014 90.9264 76.9014 78.5V78.5Z" fill="url(#paint1_radial_978_2992)" fill-opacity="0.2" shape-rendering="crispEdges"/>
<path d="M99.4014 76.5C98.8014 76.5 98.4014 76.9 98.4014 77.5V82.5C98.4014 83.1 98.8014 83.5 99.4014 83.5C100.001 83.5 100.401 83.1 100.401 82.5V77.5C100.401 76.9 100.001 76.5 99.4014 76.5Z" fill="white"/>
<path d="M99.4014 75.5C99.9537 75.5 100.401 75.0523 100.401 74.5C100.401 73.9477 99.9537 73.5 99.4014 73.5C98.8491 73.5 98.4014 73.9477 98.4014 74.5C98.4014 75.0523 98.8491 75.5 99.4014 75.5Z" fill="white"/>
<path d="M99.4014 68.5C93.9014 68.5 89.4014 73 89.4014 78.5C89.4014 84 93.9014 88.5 99.4014 88.5C104.901 88.5 109.401 84 109.401 78.5C109.401 73 104.901 68.5 99.4014 68.5ZM99.4014 86.5C95.0014 86.5 91.4014 82.9 91.4014 78.5C91.4014 74.1 95.0014 70.5 99.4014 70.5C103.801 70.5 107.401 74.1 107.401 78.5C107.401 82.9 103.801 86.5 99.4014 86.5Z" fill="white"/>
</g>
</g>
<defs>
<filter id="filter0_d_978_2992" x="0" y="0" width="420" height="238" filterUnits="userSpaceOnUse" color-interpolation-filters="sRGB">
<feFlood flood-opacity="0" result="BackgroundImageFix"/>
<feColorMatrix in="SourceAlpha" type="matrix" values="0 0 0 0 0 0 0 0 0 0 0 0 0 0 0 0 0 0 127 0" result="hardAlpha"/>
<feOffset dy="4"/>
<feGaussianBlur stdDeviation="30"/>
<feComposite in2="hardAlpha" operator="out"/>
<feColorMatrix type="matrix" values="0 0 0 0 0 0 0 0 0 0 0 0 0 0 0 0 0 0 0.06 0"/>
<feBlend mode="normal" in2="BackgroundImageFix" result="effect1_dropShadow_978_2992"/>
<feBlend mode="normal" in="SourceGraphic" in2="effect1_dropShadow_978_2992" result="shape"/>
</filter>
<filter id="filter1_d_978_2992" x="56" y="77" width="308" height="105" filterUnits="userSpaceOnUse" color-interpolation-filters="sRGB">
<feFlood flood-opacity="0" result="BackgroundImageFix"/>
<feColorMatrix in="SourceAlpha" type="matrix" values="0 0 0 0 0 0 0 0 0 0 0 0 0 0 0 0 0 0 127 0" result="hardAlpha"/>
<feOffset dy="4"/>
<feGaussianBlur stdDeviation="2"/>
<feComposite in2="hardAlpha" operator="out"/>
<feColorMatrix type="matrix" values="0 0 0 0 0.117647 0 0 0 0 0.423529 0 0 0 0 0.921569 0 0 0 0.25 0"/>
<feBlend mode="normal" in2="BackgroundImageFix" result="effect1_dropShadow_978_2992"/>
<feBlend mode="normal" in="SourceGraphic" in2="effect1_dropShadow_978_2992" result="shape"/>
</filter>
<filter id="filter2_d_978_2992" x="30" y="51" width="360" height="154" filterUnits="userSpaceOnUse" color-interpolation-filters="sRGB">
<feFlood flood-opacity="0" result="BackgroundImageFix"/>
<feColorMatrix in="SourceAlpha" type="matrix" values="0 0 0 0 0 0 0 0 0 0 0 0 0 0 0 0 0 0 127 0" result="hardAlpha"/>
<feOffset dy="4"/>
<feGaussianBlur stdDeviation="15"/>
<feComposite in2="hardAlpha" operator="out"/>
<feColorMatrix type="matrix" values="0 0 0 0 0 0 0 0 0 0 0 0 0 0 0 0 0 0 0.1 0"/>
<feBlend mode="normal" in2="BackgroundImageFix" result="effect1_dropShadow_978_2992"/>
<feBlend mode="normal" in="SourceGraphic" in2="effect1_dropShadow_978_2992" result="shape"/>
</filter>
<filter id="filter3_d_978_2992" x="72.9014" y="56" width="53" height="53" filterUnits="userSpaceOnUse" color-interpolation-filters="sRGB">
<feFlood flood-opacity="0" result="BackgroundImageFix"/>
<feColorMatrix in="SourceAlpha" type="matrix" values="0 0 0 0 0 0 0 0 0 0 0 0 0 0 0 0 0 0 127 0" result="hardAlpha"/>
<feOffset dy="4"/>
<feGaussianBlur stdDeviation="2"/>
<feComposite in2="hardAlpha" operator="out"/>
<feColorMatrix type="matrix" values="0 0 0 0 0.203922 0 0 0 0 0.737255 0 0 0 0 0.25098 0 0 0 0.1 0"/>
<feBlend mode="normal" in2="BackgroundImageFix" result="effect1_dropShadow_978_2992"/>
<feBlend mode="normal" in="SourceGraphic" in2="effect1_dropShadow_978_2992" result="shape"/>
</filter>
<linearGradient id="paint0_linear_978_2992" x1="60" y1="77" x2="360.097" y2="160.016" gradientUnits="userSpaceOnUse">
<stop offset="0.468122" stop-color="white" stop-opacity="0"/>
<stop offset="1" stop-color="white"/>
</linearGradient>
<radialGradient id="paint1_radial_978_2992" cx="0" cy="0" r="1" gradientUnits="userSpaceOnUse" gradientTransform="translate(99.4014 78.5) rotate(90) scale(22.5)">
<stop stop-opacity="0"/>
<stop offset="1" stop-color="white"/>
</radialGradient>
<clipPath id="clip0_978_2992">
<rect x="60" y="77" width="300" height="97" rx="25" fill="white"/>
</clipPath>
</defs>
</svg>
