<svg width="319" height="205" viewBox="0 0 319 205" fill="none" xmlns="http://www.w3.org/2000/svg">
<g filter="url(#filter0_d_1007_3943)">
<g filter="url(#filter1_d_1007_3943)">
<rect x="50" y="70" width="219" height="81" rx="14" fill="#E8EAEF"/>
<rect x="50.5" y="70.5" width="218" height="80" rx="13.5" stroke="#64728C" stroke-opacity="0.2"/>
<rect x="50" y="70" width="219" height="77" rx="14" fill="white"/>
<rect x="65" y="85" width="22" height="22" rx="10" fill="#64728C" fill-opacity="0.06"/>
<path d="M76.4123 93.2541C76.3582 93.1997 76.2939 93.1566 76.2232 93.1272C76.1524 93.0977 76.0765 93.0826 75.9998 93.0826C75.9232 93.0826 75.8473 93.0977 75.7765 93.1272C75.7057 93.1566 75.6415 93.1997 75.5874 93.2541L73.1123 95.7292C73.0061 95.8392 72.9473 95.9865 72.9486 96.1395C72.9499 96.2924 73.0113 96.4387 73.1194 96.5469C73.2276 96.6551 73.3739 96.7164 73.5269 96.7177C73.6798 96.7191 73.8272 96.6603 73.9372 96.554L75.4165 95.0747V98.3332C75.4165 98.4879 75.478 98.6363 75.5874 98.7457C75.6968 98.855 75.8451 98.9165 75.9998 98.9165C76.1545 98.9165 76.3029 98.855 76.4123 98.7457C76.5217 98.6363 76.5832 98.4879 76.5832 98.3332V95.0747L78.0625 96.554C78.1725 96.6603 78.3199 96.7191 78.4728 96.7177C78.6258 96.7164 78.7721 96.6551 78.8802 96.5469C78.9884 96.4387 79.0497 96.2924 79.0511 96.1395C79.0524 95.9865 78.9936 95.8392 78.8873 95.7292L76.4123 93.2541ZM75.9998 101.833C72.7781 101.833 70.1665 99.2216 70.1665 95.9998C70.1665 92.7781 72.7781 90.1665 75.9998 90.1665C79.2216 90.1665 81.8332 92.7781 81.8332 95.9998C81.8332 99.2216 79.2216 101.833 75.9998 101.833Z" fill="#929BAA"/>
<rect x="65" y="109" width="22" height="22" rx="10" fill="#64728C" fill-opacity="0.06"/>
<path d="M75.5874 122.746C75.6415 122.8 75.7057 122.843 75.7765 122.873C75.8473 122.902 75.9232 122.917 75.9998 122.917C76.0765 122.917 76.1524 122.902 76.2232 122.873C76.2939 122.843 76.3582 122.8 76.4123 122.746L78.8873 120.271C78.9431 120.217 78.9875 120.152 79.0181 120.081C79.0486 120.01 79.0647 119.933 79.0654 119.856C79.0661 119.779 79.0513 119.702 79.022 119.63C78.9927 119.558 78.9493 119.493 78.8946 119.438C78.8398 119.384 78.7747 119.34 78.703 119.311C78.6313 119.282 78.5545 119.267 78.477 119.268C78.3996 119.268 78.323 119.284 78.2519 119.315C78.1807 119.346 78.1163 119.39 78.0625 119.446L76.5832 120.925V117.667C76.5832 117.512 76.5217 117.363 76.4123 117.254C76.3029 117.145 76.1545 117.083 75.9998 117.083C75.8451 117.083 75.6968 117.145 75.5874 117.254C75.478 117.363 75.4165 117.512 75.4165 117.667V120.925L73.9372 119.446C73.8834 119.39 73.819 119.346 73.7478 119.315C73.6767 119.284 73.6001 119.268 73.5227 119.268C73.4452 119.267 73.3684 119.282 73.2967 119.311C73.225 119.34 73.1599 119.384 73.1051 119.438C73.0503 119.493 73.007 119.558 72.9777 119.63C72.9484 119.702 72.9336 119.779 72.9343 119.856C72.9349 119.933 72.951 120.01 72.9816 120.081C73.0122 120.152 73.0566 120.217 73.1123 120.271L75.5874 122.746ZM75.9998 125.833C72.7781 125.833 70.1665 123.222 70.1665 120C70.1665 116.778 72.7781 114.167 75.9998 114.167C79.2216 114.167 81.8332 116.778 81.8332 120C81.8332 123.222 79.2216 125.833 75.9998 125.833Z" fill="#929BAA"/>
<g clip-path="url(#clip0_1007_3943)">
<g filter="url(#filter2_i_1007_3943)">
<rect x="91" y="85" width="38" height="47" rx="10" fill="white"/>
<rect x="91.5" y="85.5" width="37" height="46" rx="9.5" stroke="#E8EAEF"/>
<path d="M105.406 114.781C103.964 114.781 102.951 114.276 102.367 113.266C101.789 112.255 101.5 110.815 101.5 108.945C101.5 107.076 101.789 105.633 102.367 104.617C102.951 103.602 103.964 103.094 105.406 103.094C106.849 103.094 107.862 103.602 108.445 104.617C109.023 105.633 109.312 107.076 109.312 108.945C109.312 110.815 109.021 112.255 108.438 113.266C107.859 114.276 106.849 114.781 105.406 114.781ZM106.711 111.93C106.914 111.242 107.016 110.247 107.016 108.945C107.016 107.581 106.911 106.57 106.703 105.914C106.5 105.258 106.068 104.93 105.406 104.93C104.745 104.93 104.307 105.258 104.094 105.914C103.88 106.57 103.773 107.581 103.773 108.945C103.773 110.247 103.88 111.245 104.094 111.938C104.307 112.625 104.745 112.969 105.406 112.969C106.068 112.969 106.503 112.622 106.711 111.93ZM114.062 114.828C113.214 114.828 112.451 114.578 111.773 114.078C111.096 113.573 110.708 112.839 110.609 111.875H112.828C112.88 112.208 113.021 112.479 113.25 112.688C113.479 112.896 113.784 113 114.164 113C114.898 113 115.414 112.594 115.711 111.781C115.872 111.333 115.974 110.68 116.016 109.82C115.812 110.076 115.596 110.271 115.367 110.406C114.951 110.656 114.438 110.781 113.828 110.781C112.927 110.781 112.128 110.471 111.43 109.852C110.732 109.227 110.383 108.328 110.383 107.156C110.383 105.943 110.732 104.961 111.43 104.211C112.133 103.456 113.044 103.078 114.164 103.078C115.888 103.078 117.07 103.841 117.711 105.367C118.076 106.232 118.258 107.37 118.258 108.781C118.258 110.151 118.083 111.294 117.734 112.211C117.068 113.956 115.844 114.828 114.062 114.828ZM113.281 105.258C112.854 105.591 112.641 106.156 112.641 106.953C112.641 107.625 112.776 108.13 113.047 108.469C113.323 108.802 113.745 108.969 114.312 108.969C114.62 108.969 114.909 108.88 115.18 108.703C115.685 108.38 115.938 107.82 115.938 107.023C115.938 106.383 115.786 105.875 115.484 105.5C115.188 105.125 114.779 104.938 114.258 104.938C113.878 104.938 113.552 105.044 113.281 105.258Z" fill="#64728C"/>
</g>
</g>
<g clip-path="url(#clip1_1007_3943)">
<circle cx="135" cy="102.5" r="2" fill="#64728C"/>
<circle cx="135" cy="111.5" r="2" fill="#64728C"/>
</g>
<g clip-path="url(#clip2_1007_3943)">
<g filter="url(#filter3_i_1007_3943)">
<rect x="141" y="85" width="38" height="47" rx="10" fill="white"/>
<rect x="141.5" y="85.5" width="37" height="46" rx="9.5" stroke="#E8EAEF"/>
<path d="M157.055 114.5H154.773V106.688H152.109V105.172C152.812 105.141 153.305 105.094 153.586 105.031C154.034 104.932 154.398 104.734 154.68 104.438C154.872 104.234 155.018 103.964 155.117 103.625C155.174 103.422 155.203 103.271 155.203 103.172H157.055V114.5ZM164.172 108.875C163.901 108.875 163.667 108.909 163.469 108.977C163.12 109.102 162.857 109.333 162.68 109.672L160.68 109.578L161.477 103.32H167.719V105.211H163.086L162.68 107.688C163.023 107.464 163.292 107.315 163.484 107.242C163.807 107.122 164.201 107.062 164.664 107.062C165.602 107.062 166.419 107.378 167.117 108.008C167.815 108.638 168.164 109.555 168.164 110.758C168.164 111.805 167.828 112.74 167.156 113.562C166.484 114.385 165.479 114.797 164.141 114.797C163.062 114.797 162.177 114.508 161.484 113.93C160.792 113.352 160.406 112.531 160.328 111.469H162.547C162.635 111.953 162.805 112.328 163.055 112.594C163.305 112.854 163.669 112.984 164.148 112.984C164.701 112.984 165.12 112.792 165.406 112.406C165.698 112.016 165.844 111.526 165.844 110.938C165.844 110.359 165.708 109.872 165.438 109.477C165.167 109.076 164.745 108.875 164.172 108.875Z" fill="#64728C"/>
</g>
</g>
<rect x="183" y="85" width="22" height="22" rx="10" fill="#64728C" fill-opacity="0.06"/>
<path d="M194.412 93.2541C194.358 93.1997 194.294 93.1566 194.223 93.1272C194.152 93.0977 194.076 93.0826 194 93.0826C193.923 93.0826 193.847 93.0977 193.777 93.1272C193.706 93.1566 193.641 93.1997 193.587 93.2541L191.112 95.7292C191.006 95.8392 190.947 95.9865 190.949 96.1395C190.95 96.2924 191.011 96.4387 191.119 96.5469C191.228 96.6551 191.374 96.7164 191.527 96.7177C191.68 96.7191 191.827 96.6603 191.937 96.554L193.417 95.0747V98.3332C193.417 98.4879 193.478 98.6363 193.587 98.7457C193.697 98.855 193.845 98.9165 194 98.9165C194.155 98.9165 194.303 98.855 194.412 98.7457C194.522 98.6363 194.583 98.4879 194.583 98.3332V95.0747L196.063 96.554C196.173 96.6603 196.32 96.7191 196.473 96.7177C196.626 96.7164 196.772 96.6551 196.88 96.5469C196.988 96.4387 197.05 96.2924 197.051 96.1395C197.052 95.9865 196.994 95.8392 196.887 95.7292L194.412 93.2541ZM194 101.833C190.778 101.833 188.167 99.2216 188.167 95.9998C188.167 92.7781 190.778 90.1665 194 90.1665C197.222 90.1665 199.833 92.7781 199.833 95.9998C199.833 99.2216 197.222 101.833 194 101.833Z" fill="#929BAA"/>
<rect x="183" y="109" width="22" height="22" rx="10" fill="#64728C" fill-opacity="0.06"/>
<path d="M193.587 122.746C193.641 122.8 193.706 122.843 193.777 122.873C193.847 122.902 193.923 122.917 194 122.917C194.076 122.917 194.152 122.902 194.223 122.873C194.294 122.843 194.358 122.8 194.412 122.746L196.887 120.271C196.943 120.217 196.987 120.152 197.018 120.081C197.049 120.01 197.065 119.933 197.065 119.856C197.066 119.779 197.051 119.702 197.022 119.63C196.993 119.558 196.949 119.493 196.895 119.438C196.84 119.384 196.775 119.34 196.703 119.311C196.631 119.282 196.554 119.267 196.477 119.268C196.4 119.268 196.323 119.284 196.252 119.315C196.181 119.346 196.116 119.39 196.063 119.446L194.583 120.925V117.667C194.583 117.512 194.522 117.363 194.412 117.254C194.303 117.145 194.155 117.083 194 117.083C193.845 117.083 193.697 117.145 193.587 117.254C193.478 117.363 193.417 117.512 193.417 117.667V120.925L191.937 119.446C191.883 119.39 191.819 119.346 191.748 119.315C191.677 119.284 191.6 119.268 191.523 119.268C191.445 119.267 191.368 119.282 191.297 119.311C191.225 119.34 191.16 119.384 191.105 119.438C191.05 119.493 191.007 119.558 190.978 119.63C190.948 119.702 190.934 119.779 190.934 119.856C190.935 119.933 190.951 120.01 190.982 120.081C191.012 120.152 191.057 120.217 191.112 120.271L193.587 122.746ZM194 125.833C190.778 125.833 188.167 123.222 188.167 120C188.167 116.778 190.778 114.167 194 114.167C197.222 114.167 199.833 116.778 199.833 120C199.833 123.222 197.222 125.833 194 125.833Z" fill="#929BAA"/>
<g filter="url(#filter4_i_1007_3943)">
<path d="M214 91C214 87.6863 216.686 85 220 85H248C251.314 85 254 87.6863 254 91V99C254 102.314 251.314 105 248 105H220C216.686 105 214 102.314 214 99V91Z" fill="#FE5000"/>
<path d="M225.008 99.096C224.816 99.096 224.66 99.052 224.54 98.964C224.428 98.876 224.36 98.76 224.336 98.616C224.312 98.464 224.34 98.296 224.42 98.112L227.588 91.092C227.692 90.86 227.816 90.696 227.96 90.6C228.112 90.496 228.284 90.444 228.476 90.444C228.66 90.444 228.824 90.496 228.968 90.6C229.12 90.696 229.248 90.86 229.352 91.092L232.532 98.112C232.62 98.296 232.652 98.464 232.628 98.616C232.604 98.768 232.536 98.888 232.424 98.976C232.312 99.056 232.164 99.096 231.98 99.096C231.756 99.096 231.58 99.044 231.452 98.94C231.332 98.828 231.224 98.66 231.128 98.436L230.348 96.624L230.996 97.044H225.932L226.58 96.624L225.812 98.436C225.708 98.668 225.6 98.836 225.488 98.94C225.376 99.044 225.216 99.096 225.008 99.096ZM228.452 92.208L226.772 96.204L226.46 95.82H230.468L230.168 96.204L228.476 92.208H228.452ZM234.574 99.096C234.35 99.096 234.178 99.032 234.058 98.904C233.938 98.776 233.878 98.6 233.878 98.376V91.164C233.878 90.932 233.942 90.756 234.07 90.636C234.198 90.508 234.374 90.444 234.598 90.444C234.798 90.444 234.954 90.484 235.066 90.564C235.186 90.636 235.294 90.764 235.39 90.948L238.354 96.432H237.97L240.934 90.948C241.03 90.764 241.134 90.636 241.246 90.564C241.358 90.484 241.514 90.444 241.714 90.444C241.938 90.444 242.11 90.508 242.23 90.636C242.35 90.756 242.41 90.932 242.41 91.164V98.376C242.41 98.6 242.35 98.776 242.23 98.904C242.118 99.032 241.946 99.096 241.714 99.096C241.49 99.096 241.318 99.032 241.198 98.904C241.078 98.776 241.018 98.6 241.018 98.376V92.82H241.282L238.762 97.416C238.682 97.552 238.598 97.652 238.51 97.716C238.422 97.78 238.302 97.812 238.15 97.812C237.998 97.812 237.874 97.78 237.778 97.716C237.682 97.644 237.598 97.544 237.526 97.416L234.982 92.808H235.27V98.376C235.27 98.6 235.21 98.776 235.09 98.904C234.978 99.032 234.806 99.096 234.574 99.096Z" fill="white"/>
</g>
<g filter="url(#filter5_d_1007_3943)">
<mask id="path-23-inside-1_1007_3943" fill="white">
<path d="M214.5 115C214.5 111.686 217.186 109 220.5 109H247.5C250.814 109 253.5 111.686 253.5 115V123C253.5 126.314 250.814 129 247.5 129H220.5C217.186 129 214.5 126.314 214.5 123V115Z"/>
</mask>
<path d="M214.5 115C214.5 111.686 217.186 109 220.5 109H247.5C250.814 109 253.5 111.686 253.5 115V123C253.5 126.314 250.814 129 247.5 129H220.5C217.186 129 214.5 126.314 214.5 123V115Z" fill="#64728C" fill-opacity="0.12" shape-rendering="crispEdges"/>
<path d="M214.5 115C214.5 111.686 217.186 109 220.5 109H247.5C250.814 109 253.5 111.686 253.5 115V123C253.5 126.314 250.814 129 247.5 129H220.5C217.186 129 214.5 126.314 214.5 123V115Z" fill="url(#paint0_linear_1007_3943)" fill-opacity="0.5" shape-rendering="crispEdges"/>
<path d="M214.5 109H253.5H214.5ZM253.5 123C253.5 127.142 250.142 130.5 246 130.5H222C217.858 130.5 214.5 127.142 214.5 123C214.5 125.485 217.186 127.5 220.5 127.5H247.5C250.814 127.5 253.5 125.485 253.5 123ZM214.5 129V109V129ZM253.5 109V129V109Z" fill="#64728C" fill-opacity="0.45" mask="url(#path-23-inside-1_1007_3943)"/>
<path d="M226.192 123.096C225.944 123.096 225.752 123.028 225.616 122.892C225.488 122.748 225.424 122.552 225.424 122.304V115.32C225.424 115.064 225.492 114.872 225.628 114.744C225.764 114.608 225.956 114.54 226.204 114.54H229.096C230.024 114.54 230.74 114.772 231.244 115.236C231.748 115.7 232 116.348 232 117.18C232 118.012 231.748 118.664 231.244 119.136C230.74 119.6 230.024 119.832 229.096 119.832H226.96V122.304C226.96 122.552 226.896 122.748 226.768 122.892C226.64 123.028 226.448 123.096 226.192 123.096ZM226.96 118.62H228.856C229.4 118.62 229.812 118.5 230.092 118.26C230.372 118.012 230.512 117.652 230.512 117.18C230.512 116.708 230.372 116.352 230.092 116.112C229.812 115.872 229.4 115.752 228.856 115.752H226.96V118.62ZM233.972 123.096C233.748 123.096 233.576 123.032 233.456 122.904C233.336 122.776 233.276 122.6 233.276 122.376V115.164C233.276 114.932 233.34 114.756 233.468 114.636C233.596 114.508 233.772 114.444 233.996 114.444C234.196 114.444 234.352 114.484 234.464 114.564C234.584 114.636 234.692 114.764 234.788 114.948L237.752 120.432H237.368L240.332 114.948C240.428 114.764 240.532 114.636 240.644 114.564C240.756 114.484 240.912 114.444 241.112 114.444C241.336 114.444 241.508 114.508 241.628 114.636C241.748 114.756 241.808 114.932 241.808 115.164V122.376C241.808 122.6 241.748 122.776 241.628 122.904C241.516 123.032 241.344 123.096 241.112 123.096C240.888 123.096 240.716 123.032 240.596 122.904C240.476 122.776 240.416 122.6 240.416 122.376V116.82H240.68L238.16 121.416C238.08 121.552 237.996 121.652 237.908 121.716C237.82 121.78 237.7 121.812 237.548 121.812C237.396 121.812 237.272 121.78 237.176 121.716C237.08 121.644 236.996 121.544 236.924 121.416L234.38 116.808H234.668V122.376C234.668 122.6 234.608 122.776 234.488 122.904C234.376 123.032 234.204 123.096 233.972 123.096Z" fill="#64728C"/>
</g>
</g>
</g>
<rect x="69.5" y="21.5" width="199" height="44" rx="11.5" fill="white"/>
<rect x="69.5" y="21.5" width="199" height="44" rx="11.5" stroke="#E8EAEF"/>
<path d="M116.085 43.852C116.085 44.172 116.095 44.5613 116.117 45.02C116.138 45.468 116.202 45.9053 116.309 46.332C116.426 46.748 116.607 47.1053 116.853 47.404C117.098 47.7027 117.45 47.852 117.909 47.852C118.378 47.852 118.735 47.7027 118.981 47.404C119.237 47.1053 119.418 46.748 119.525 46.332C119.642 45.9053 119.711 45.468 119.733 45.02C119.754 44.5613 119.765 44.172 119.765 43.852C119.765 43.66 119.759 43.4307 119.749 43.164C119.749 42.8867 119.727 42.604 119.685 42.316C119.653 42.028 119.599 41.7453 119.525 41.468C119.461 41.18 119.359 40.924 119.221 40.7C119.082 40.476 118.906 40.2947 118.693 40.156C118.479 40.0173 118.218 39.948 117.909 39.948C117.599 39.948 117.338 40.0173 117.125 40.156C116.922 40.2947 116.751 40.476 116.613 40.7C116.485 40.924 116.383 41.18 116.309 41.468C116.234 41.7453 116.181 42.028 116.149 42.316C116.117 42.604 116.095 42.8867 116.085 43.164C116.085 43.4307 116.085 43.66 116.085 43.852ZM113.813 43.852C113.813 42.764 113.919 41.852 114.133 41.116C114.357 40.3693 114.655 39.772 115.029 39.324C115.402 38.876 115.834 38.556 116.325 38.364C116.826 38.172 117.354 38.076 117.909 38.076C118.474 38.076 119.002 38.172 119.493 38.364C119.994 38.556 120.431 38.876 120.805 39.324C121.189 39.772 121.487 40.3693 121.701 41.116C121.925 41.852 122.037 42.764 122.037 43.852C122.037 44.972 121.925 45.9107 121.701 46.668C121.487 47.4147 121.189 48.012 120.805 48.46C120.431 48.908 119.994 49.228 119.493 49.42C119.002 49.612 118.474 49.708 117.909 49.708C117.354 49.708 116.826 49.612 116.325 49.42C115.834 49.228 115.402 48.908 115.029 48.46C114.655 48.012 114.357 47.4147 114.133 46.668C113.919 45.9107 113.813 44.972 113.813 43.852ZM126.687 44.108C126.997 44.108 127.263 44.0547 127.487 43.948C127.711 43.8307 127.898 43.676 128.047 43.484C128.197 43.292 128.309 43.0733 128.383 42.828C128.458 42.572 128.495 42.3053 128.495 42.028C128.495 41.772 128.453 41.5213 128.367 41.276C128.293 41.02 128.175 40.796 128.015 40.604C127.866 40.4013 127.679 40.2413 127.455 40.124C127.231 40.0067 126.975 39.948 126.687 39.948C126.421 39.948 126.181 40.0067 125.967 40.124C125.754 40.2413 125.573 40.396 125.423 40.588C125.274 40.78 125.162 40.9987 125.087 41.244C125.013 41.4893 124.975 41.74 124.975 41.996C124.975 42.2627 125.007 42.524 125.071 42.78C125.146 43.0253 125.253 43.2493 125.391 43.452C125.53 43.644 125.706 43.804 125.919 43.932C126.143 44.0493 126.399 44.108 126.687 44.108ZM125.055 46.62C125.13 46.9933 125.301 47.3187 125.567 47.596C125.834 47.8733 126.165 48.012 126.559 48.012C126.975 48.012 127.317 47.8947 127.583 47.66C127.85 47.4147 128.063 47.1213 128.223 46.78C128.383 46.428 128.495 46.0547 128.559 45.66C128.634 45.2653 128.682 44.9133 128.703 44.604L128.671 44.572C128.362 45.02 127.999 45.34 127.583 45.532C127.167 45.724 126.687 45.82 126.143 45.82C125.663 45.82 125.194 45.7187 124.735 45.516C124.277 45.3027 123.887 45.02 123.567 44.668C123.269 44.3267 123.05 43.9373 122.911 43.5C122.773 43.0627 122.703 42.62 122.703 42.172C122.703 41.596 122.794 41.0627 122.975 40.572C123.167 40.0707 123.434 39.6387 123.775 39.276C124.127 38.9027 124.543 38.6093 125.023 38.396C125.503 38.1827 126.037 38.076 126.623 38.076C127.477 38.076 128.175 38.2467 128.719 38.588C129.274 38.9187 129.717 39.3613 130.047 39.916C130.378 40.46 130.607 41.0787 130.735 41.772C130.863 42.4653 130.927 43.164 130.927 43.868C130.927 44.5613 130.847 45.2547 130.687 45.948C130.527 46.6413 130.271 47.2707 129.919 47.836C129.567 48.3907 129.114 48.844 128.559 49.196C128.005 49.5373 127.327 49.708 126.527 49.708C126.047 49.708 125.599 49.6387 125.183 49.5C124.767 49.372 124.399 49.1747 124.079 48.908C123.759 48.6413 123.498 48.316 123.295 47.932C123.093 47.548 122.959 47.1107 122.895 46.62H125.055ZM139.199 43.836H136.687V41.372H139.199V43.836ZM136.687 47.036H139.199V49.5H136.687V47.036ZM145.209 42.604C145.188 41.964 145.263 41.372 145.433 40.828C145.604 40.2733 145.86 39.7933 146.201 39.388C146.543 38.972 146.969 38.652 147.481 38.428C148.004 38.1933 148.601 38.076 149.273 38.076C149.785 38.076 150.271 38.156 150.729 38.316C151.199 38.476 151.609 38.7053 151.961 39.004C152.313 39.3027 152.591 39.6707 152.793 40.108C153.007 40.5453 153.113 41.036 153.113 41.58C153.113 42.1453 153.023 42.6307 152.841 43.036C152.66 43.4413 152.42 43.804 152.121 44.124C151.823 44.4333 151.481 44.716 151.097 44.972C150.724 45.228 150.345 45.484 149.961 45.74C149.577 45.9853 149.204 46.252 148.841 46.54C148.479 46.828 148.159 47.164 147.881 47.548H153.177V49.5H144.953C144.953 48.8493 145.044 48.284 145.225 47.804C145.417 47.324 145.673 46.8973 145.993 46.524C146.313 46.14 146.687 45.788 147.113 45.468C147.551 45.148 148.009 44.8227 148.489 44.492C148.735 44.3213 148.996 44.1507 149.273 43.98C149.551 43.7987 149.801 43.6013 150.025 43.388C150.26 43.1747 150.452 42.9347 150.601 42.668C150.761 42.4013 150.841 42.0973 150.841 41.756C150.841 41.212 150.681 40.7907 150.361 40.492C150.052 40.1827 149.652 40.028 149.161 40.028C148.831 40.028 148.548 40.108 148.313 40.268C148.089 40.4173 147.908 40.62 147.769 40.876C147.631 41.1213 147.529 41.3987 147.465 41.708C147.412 42.0067 147.385 42.3053 147.385 42.604H145.209ZM161.508 40.172H156.884L156.436 42.716L156.468 42.748C156.777 42.4387 157.108 42.22 157.46 42.092C157.812 41.9533 158.212 41.884 158.66 41.884C159.214 41.884 159.705 41.9853 160.132 42.188C160.558 42.3907 160.916 42.6627 161.204 43.004C161.502 43.3453 161.726 43.7507 161.876 44.22C162.036 44.6787 162.116 45.1693 162.116 45.692C162.116 46.268 162.004 46.8067 161.78 47.308C161.556 47.7987 161.252 48.2253 160.868 48.588C160.494 48.9507 160.057 49.2333 159.556 49.436C159.054 49.628 158.521 49.7187 157.956 49.708C157.412 49.708 156.889 49.6387 156.388 49.5C155.897 49.3507 155.46 49.1267 155.076 48.828C154.692 48.5293 154.382 48.1613 154.148 47.724C153.924 47.276 153.806 46.7587 153.796 46.172H156.068C156.121 46.684 156.313 47.0947 156.644 47.404C156.974 47.7027 157.396 47.852 157.908 47.852C158.206 47.852 158.473 47.7933 158.708 47.676C158.953 47.548 159.156 47.388 159.316 47.196C159.486 46.9933 159.614 46.764 159.7 46.508C159.796 46.2413 159.844 45.9693 159.844 45.692C159.844 45.404 159.801 45.132 159.716 44.876C159.63 44.62 159.502 44.396 159.332 44.204C159.161 44.012 158.958 43.8627 158.724 43.756C158.489 43.6493 158.217 43.596 157.908 43.596C157.502 43.596 157.172 43.6707 156.916 43.82C156.66 43.9587 156.42 44.1827 156.196 44.492H154.148L155.252 38.3H161.508V40.172ZM173.545 43.676H177.289C178.046 43.676 178.659 43.484 179.129 43.1C179.598 42.716 179.833 42.1293 179.833 41.34C179.833 40.5507 179.598 39.964 179.129 39.58C178.659 39.196 178.046 39.004 177.289 39.004H173.545V43.676ZM172.457 38.076H177.529C178.041 38.076 178.505 38.1507 178.921 38.3C179.337 38.4387 179.694 38.652 179.993 38.94C180.291 39.2173 180.521 39.5587 180.681 39.964C180.841 40.3693 180.921 40.828 180.921 41.34C180.921 41.852 180.841 42.3107 180.681 42.716C180.521 43.1213 180.291 43.468 179.993 43.756C179.694 44.0333 179.337 44.2467 178.921 44.396C178.505 44.5347 178.041 44.604 177.529 44.604H173.545V49.5H172.457V38.076ZM184.103 38.076L187.895 48.092L191.831 38.076H193.431V49.5H192.343V39.628H192.311L188.407 49.5H187.383L183.623 39.628H183.591V49.5H182.503V38.076H184.103Z" fill="#64728C"/>
<rect x="229" y="25.5" width="36" height="36" rx="10" fill="#64728C" fill-opacity="0.12"/>
<path d="M247 50.5C250.866 50.5 254 47.366 254 43.5C254 39.634 250.866 36.5 247 36.5C243.134 36.5 240 39.634 240 43.5C240 47.366 243.134 50.5 247 50.5Z" stroke="#64728C" stroke-width="2" stroke-linecap="round" stroke-linejoin="round"/>
<path d="M247 39.876V44.9403L249.8 46.6285" stroke="#64728C" stroke-width="2" stroke-linecap="round" stroke-linejoin="round"/>
<path d="M72.804 12.108C72.436 12.108 72.076 12.08 71.724 12.024C71.372 11.968 71.04 11.884 70.728 11.772C70.416 11.652 70.136 11.508 69.888 11.34C69.768 11.252 69.684 11.152 69.636 11.04C69.596 10.928 69.584 10.82 69.6 10.716C69.624 10.604 69.672 10.508 69.744 10.428C69.816 10.348 69.904 10.3 70.008 10.284C70.112 10.26 70.228 10.292 70.356 10.38C70.716 10.612 71.096 10.784 71.496 10.896C71.896 11 72.332 11.052 72.804 11.052C73.484 11.052 73.984 10.932 74.304 10.692C74.632 10.444 74.796 10.124 74.796 9.732C74.796 9.412 74.68 9.16 74.448 8.976C74.216 8.784 73.828 8.632 73.284 8.52L72 8.256C71.24 8.096 70.672 7.832 70.296 7.464C69.928 7.096 69.744 6.6 69.744 5.976C69.744 5.6 69.82 5.256 69.972 4.944C70.132 4.632 70.352 4.364 70.632 4.14C70.912 3.908 71.248 3.732 71.64 3.612C72.032 3.492 72.46 3.432 72.924 3.432C73.42 3.432 73.884 3.496 74.316 3.624C74.756 3.752 75.148 3.948 75.492 4.212C75.596 4.284 75.664 4.376 75.696 4.488C75.736 4.592 75.744 4.696 75.72 4.8C75.704 4.904 75.66 4.992 75.588 5.064C75.516 5.136 75.424 5.18 75.312 5.196C75.2 5.204 75.076 5.164 74.94 5.076C74.628 4.868 74.308 4.72 73.98 4.632C73.66 4.536 73.304 4.488 72.912 4.488C72.52 4.488 72.176 4.548 71.88 4.668C71.592 4.788 71.368 4.956 71.208 5.172C71.056 5.388 70.98 5.644 70.98 5.94C70.98 6.276 71.088 6.544 71.304 6.744C71.52 6.944 71.88 7.096 72.384 7.2L73.656 7.464C74.456 7.632 75.052 7.892 75.444 8.244C75.836 8.596 76.032 9.064 76.032 9.648C76.032 10.024 75.956 10.364 75.804 10.668C75.652 10.964 75.436 11.22 75.156 11.436C74.876 11.652 74.536 11.82 74.136 11.94C73.744 12.052 73.3 12.108 72.804 12.108ZM80.0648 12.108C79.4248 12.108 78.8728 11.988 78.4088 11.748C77.9528 11.5 77.5968 11.152 77.3408 10.704C77.0928 10.248 76.9688 9.708 76.9688 9.084C76.9688 8.476 77.0928 7.944 77.3408 7.488C77.5888 7.032 77.9288 6.676 78.3608 6.42C78.7928 6.164 79.2848 6.036 79.8368 6.036C80.2448 6.036 80.6088 6.104 80.9288 6.24C81.2488 6.368 81.5208 6.56 81.7448 6.816C81.9768 7.064 82.1488 7.368 82.2608 7.728C82.3808 8.088 82.4408 8.492 82.4408 8.94C82.4408 9.076 82.4008 9.18 82.3208 9.252C82.2408 9.316 82.1208 9.348 81.9608 9.348H77.9288V8.604H81.6248L81.4208 8.772C81.4208 8.372 81.3608 8.032 81.2408 7.752C81.1288 7.472 80.9568 7.26 80.7248 7.116C80.5008 6.964 80.2208 6.888 79.8848 6.888C79.5088 6.888 79.1888 6.976 78.9248 7.152C78.6688 7.328 78.4728 7.572 78.3368 7.884C78.2008 8.196 78.1328 8.56 78.1328 8.976V9.048C78.1328 9.752 78.2968 10.284 78.6248 10.644C78.9608 10.996 79.4448 11.172 80.0768 11.172C80.3168 11.172 80.5688 11.14 80.8328 11.076C81.1048 11.012 81.3608 10.904 81.6008 10.752C81.7368 10.672 81.8568 10.636 81.9608 10.644C82.0728 10.652 82.1608 10.688 82.2248 10.752C82.2968 10.816 82.3408 10.896 82.3568 10.992C82.3728 11.088 82.3568 11.188 82.3088 11.292C82.2608 11.388 82.1768 11.476 82.0568 11.556C81.7848 11.74 81.4688 11.88 81.1088 11.976C80.7488 12.064 80.4008 12.108 80.0648 12.108ZM86.2464 12.108C85.7664 12.108 85.3624 12.024 85.0344 11.856C84.7064 11.688 84.4624 11.44 84.3024 11.112C84.1424 10.784 84.0624 10.384 84.0624 9.912V7.08H83.3424C83.1824 7.08 83.0584 7.04 82.9704 6.96C82.8824 6.872 82.8384 6.756 82.8384 6.612C82.8384 6.46 82.8824 6.344 82.9704 6.264C83.0584 6.184 83.1824 6.144 83.3424 6.144H84.0624V4.908C84.0624 4.708 84.1144 4.556 84.2184 4.452C84.3304 4.348 84.4824 4.296 84.6744 4.296C84.8664 4.296 85.0144 4.348 85.1184 4.452C85.2224 4.556 85.2744 4.708 85.2744 4.908V6.144H86.6784C86.8384 6.144 86.9624 6.184 87.0504 6.264C87.1384 6.344 87.1824 6.46 87.1824 6.612C87.1824 6.756 87.1384 6.872 87.0504 6.96C86.9624 7.04 86.8384 7.08 86.6784 7.08H85.2744V9.816C85.2744 10.24 85.3624 10.56 85.5384 10.776C85.7224 10.992 86.0184 11.1 86.4264 11.1C86.5704 11.1 86.6944 11.088 86.7984 11.064C86.9104 11.032 87.0024 11.012 87.0744 11.004C87.1624 11.004 87.2344 11.036 87.2904 11.1C87.3464 11.156 87.3744 11.268 87.3744 11.436C87.3744 11.556 87.3504 11.668 87.3024 11.772C87.2624 11.876 87.1864 11.944 87.0744 11.976C86.9784 12.008 86.8464 12.036 86.6784 12.06C86.5184 12.092 86.3744 12.108 86.2464 12.108ZM94.1173 12.084C93.9173 12.084 93.7613 12.028 93.6493 11.916C93.5453 11.804 93.4933 11.648 93.4933 11.448V4.584H90.9493C90.7813 4.584 90.6493 4.54 90.5533 4.452C90.4573 4.356 90.4093 4.224 90.4093 4.056C90.4093 3.888 90.4573 3.76 90.5533 3.672C90.6493 3.584 90.7813 3.54 90.9493 3.54H97.2733C97.4493 3.54 97.5853 3.584 97.6813 3.672C97.7773 3.76 97.8253 3.888 97.8253 4.056C97.8253 4.224 97.7773 4.356 97.6813 4.452C97.5853 4.54 97.4493 4.584 97.2733 4.584H94.7293V11.448C94.7293 11.648 94.6773 11.804 94.5733 11.916C94.4773 12.028 94.3253 12.084 94.1173 12.084ZM99.702 12.072C99.51 12.072 99.362 12.016 99.258 11.904C99.154 11.784 99.102 11.62 99.102 11.412V6.732C99.102 6.524 99.154 6.364 99.258 6.252C99.362 6.14 99.51 6.084 99.702 6.084C99.894 6.084 100.042 6.14 100.146 6.252C100.258 6.364 100.314 6.524 100.314 6.732V11.412C100.314 11.62 100.262 11.784 100.158 11.904C100.054 12.016 99.902 12.072 99.702 12.072ZM99.702 4.836C99.462 4.836 99.274 4.776 99.138 4.656C99.01 4.536 98.946 4.368 98.946 4.152C98.946 3.928 99.01 3.76 99.138 3.648C99.274 3.528 99.462 3.468 99.702 3.468C99.942 3.468 100.126 3.528 100.254 3.648C100.39 3.76 100.458 3.928 100.458 4.152C100.458 4.368 100.39 4.536 100.254 4.656C100.126 4.776 99.942 4.836 99.702 4.836ZM102.644 12.084C102.452 12.084 102.304 12.032 102.2 11.928C102.096 11.816 102.044 11.664 102.044 11.472V6.672C102.044 6.472 102.096 6.32 102.2 6.216C102.304 6.112 102.448 6.06 102.632 6.06C102.824 6.06 102.968 6.112 103.064 6.216C103.168 6.32 103.22 6.472 103.22 6.672V7.656L103.088 7.392C103.248 6.968 103.496 6.636 103.832 6.396C104.168 6.156 104.572 6.036 105.044 6.036C105.532 6.036 105.928 6.152 106.232 6.384C106.536 6.616 106.744 6.972 106.856 7.452H106.688C106.84 7.012 107.1 6.668 107.468 6.42C107.836 6.164 108.264 6.036 108.752 6.036C109.2 6.036 109.568 6.124 109.856 6.3C110.144 6.468 110.36 6.728 110.504 7.08C110.648 7.424 110.72 7.86 110.72 8.388V11.472C110.72 11.664 110.664 11.816 110.552 11.928C110.448 12.032 110.3 12.084 110.108 12.084C109.916 12.084 109.768 12.032 109.664 11.928C109.56 11.816 109.508 11.664 109.508 11.472V8.448C109.508 7.952 109.42 7.588 109.244 7.356C109.076 7.124 108.796 7.008 108.404 7.008C107.964 7.008 107.616 7.16 107.36 7.464C107.104 7.768 106.976 8.188 106.976 8.724V11.472C106.976 11.664 106.924 11.816 106.82 11.928C106.716 12.032 106.568 12.084 106.376 12.084C106.184 12.084 106.032 12.032 105.92 11.928C105.816 11.816 105.764 11.664 105.764 11.472V8.448C105.764 7.952 105.68 7.588 105.512 7.356C105.344 7.124 105.064 7.008 104.672 7.008C104.232 7.008 103.884 7.16 103.628 7.464C103.38 7.768 103.256 8.188 103.256 8.724V11.472C103.256 11.88 103.052 12.084 102.644 12.084ZM115.163 12.108C114.523 12.108 113.971 11.988 113.507 11.748C113.051 11.5 112.695 11.152 112.439 10.704C112.191 10.248 112.067 9.708 112.067 9.084C112.067 8.476 112.191 7.944 112.439 7.488C112.687 7.032 113.027 6.676 113.459 6.42C113.891 6.164 114.383 6.036 114.935 6.036C115.343 6.036 115.707 6.104 116.027 6.24C116.347 6.368 116.619 6.56 116.843 6.816C117.075 7.064 117.247 7.368 117.359 7.728C117.479 8.088 117.539 8.492 117.539 8.94C117.539 9.076 117.499 9.18 117.419 9.252C117.339 9.316 117.219 9.348 117.059 9.348H113.027V8.604H116.723L116.519 8.772C116.519 8.372 116.459 8.032 116.339 7.752C116.227 7.472 116.055 7.26 115.823 7.116C115.599 6.964 115.319 6.888 114.983 6.888C114.607 6.888 114.287 6.976 114.023 7.152C113.767 7.328 113.571 7.572 113.435 7.884C113.299 8.196 113.231 8.56 113.231 8.976V9.048C113.231 9.752 113.395 10.284 113.723 10.644C114.059 10.996 114.543 11.172 115.175 11.172C115.415 11.172 115.667 11.14 115.931 11.076C116.203 11.012 116.459 10.904 116.699 10.752C116.835 10.672 116.955 10.636 117.059 10.644C117.171 10.652 117.259 10.688 117.323 10.752C117.395 10.816 117.439 10.896 117.455 10.992C117.471 11.088 117.455 11.188 117.407 11.292C117.359 11.388 117.275 11.476 117.155 11.556C116.883 11.74 116.567 11.88 116.207 11.976C115.847 12.064 115.499 12.108 115.163 12.108Z" fill="#64728C"/>
<defs>
<filter id="filter0_d_1007_3943" x="0" y="24" width="319" height="181" filterUnits="userSpaceOnUse" color-interpolation-filters="sRGB">
<feFlood flood-opacity="0" result="BackgroundImageFix"/>
<feColorMatrix in="SourceAlpha" type="matrix" values="0 0 0 0 0 0 0 0 0 0 0 0 0 0 0 0 0 0 127 0" result="hardAlpha"/>
<feOffset dy="4"/>
<feGaussianBlur stdDeviation="25"/>
<feComposite in2="hardAlpha" operator="out"/>
<feColorMatrix type="matrix" values="0 0 0 0 0 0 0 0 0 0 0 0 0 0 0 0 0 0 0.05 0"/>
<feBlend mode="normal" in2="BackgroundImageFix" result="effect1_dropShadow_1007_3943"/>
<feBlend mode="normal" in="SourceGraphic" in2="effect1_dropShadow_1007_3943" result="shape"/>
</filter>
<filter id="filter1_d_1007_3943" x="46" y="70" width="227" height="89" filterUnits="userSpaceOnUse" color-interpolation-filters="sRGB">
<feFlood flood-opacity="0" result="BackgroundImageFix"/>
<feColorMatrix in="SourceAlpha" type="matrix" values="0 0 0 0 0 0 0 0 0 0 0 0 0 0 0 0 0 0 127 0" result="hardAlpha"/>
<feOffset dy="4"/>
<feGaussianBlur stdDeviation="2"/>
<feComposite in2="hardAlpha" operator="out"/>
<feColorMatrix type="matrix" values="0 0 0 0 0 0 0 0 0 0 0 0 0 0 0 0 0 0 0.05 0"/>
<feBlend mode="normal" in2="BackgroundImageFix" result="effect1_dropShadow_1007_3943"/>
<feBlend mode="normal" in="SourceGraphic" in2="effect1_dropShadow_1007_3943" result="shape"/>
</filter>
<filter id="filter2_i_1007_3943" x="91" y="85" width="38" height="49" filterUnits="userSpaceOnUse" color-interpolation-filters="sRGB">
<feFlood flood-opacity="0" result="BackgroundImageFix"/>
<feBlend mode="normal" in="SourceGraphic" in2="BackgroundImageFix" result="shape"/>
<feColorMatrix in="SourceAlpha" type="matrix" values="0 0 0 0 0 0 0 0 0 0 0 0 0 0 0 0 0 0 127 0" result="hardAlpha"/>
<feOffset dy="2"/>
<feGaussianBlur stdDeviation="1"/>
<feComposite in2="hardAlpha" operator="arithmetic" k2="-1" k3="1"/>
<feColorMatrix type="matrix" values="0 0 0 0 0 0 0 0 0 0 0 0 0 0 0 0 0 0 0.05 0"/>
<feBlend mode="normal" in2="shape" result="effect1_innerShadow_1007_3943"/>
</filter>
<filter id="filter3_i_1007_3943" x="141" y="85" width="38" height="49" filterUnits="userSpaceOnUse" color-interpolation-filters="sRGB">
<feFlood flood-opacity="0" result="BackgroundImageFix"/>
<feBlend mode="normal" in="SourceGraphic" in2="BackgroundImageFix" result="shape"/>
<feColorMatrix in="SourceAlpha" type="matrix" values="0 0 0 0 0 0 0 0 0 0 0 0 0 0 0 0 0 0 127 0" result="hardAlpha"/>
<feOffset dy="2"/>
<feGaussianBlur stdDeviation="1"/>
<feComposite in2="hardAlpha" operator="arithmetic" k2="-1" k3="1"/>
<feColorMatrix type="matrix" values="0 0 0 0 0 0 0 0 0 0 0 0 0 0 0 0 0 0 0.05 0"/>
<feBlend mode="normal" in2="shape" result="effect1_innerShadow_1007_3943"/>
</filter>
<filter id="filter4_i_1007_3943" x="214" y="85" width="40" height="22" filterUnits="userSpaceOnUse" color-interpolation-filters="sRGB">
<feFlood flood-opacity="0" result="BackgroundImageFix"/>
<feBlend mode="normal" in="SourceGraphic" in2="BackgroundImageFix" result="shape"/>
<feColorMatrix in="SourceAlpha" type="matrix" values="0 0 0 0 0 0 0 0 0 0 0 0 0 0 0 0 0 0 127 0" result="hardAlpha"/>
<feOffset dy="2"/>
<feGaussianBlur stdDeviation="2"/>
<feComposite in2="hardAlpha" operator="arithmetic" k2="-1" k3="1"/>
<feColorMatrix type="matrix" values="0 0 0 0 0 0 0 0 0 0 0 0 0 0 0 0 0 0 0.1 0"/>
<feBlend mode="normal" in2="shape" result="effect1_innerShadow_1007_3943"/>
</filter>
<filter id="filter5_d_1007_3943" x="210.5" y="109" width="47" height="28" filterUnits="userSpaceOnUse" color-interpolation-filters="sRGB">
<feFlood flood-opacity="0" result="BackgroundImageFix"/>
<feColorMatrix in="SourceAlpha" type="matrix" values="0 0 0 0 0 0 0 0 0 0 0 0 0 0 0 0 0 0 127 0" result="hardAlpha"/>
<feOffset dy="4"/>
<feGaussianBlur stdDeviation="2"/>
<feComposite in2="hardAlpha" operator="out"/>
<feColorMatrix type="matrix" values="0 0 0 0 0 0 0 0 0 0 0 0 0 0 0 0 0 0 0.05 0"/>
<feBlend mode="normal" in2="BackgroundImageFix" result="effect1_dropShadow_1007_3943"/>
<feBlend mode="normal" in="SourceGraphic" in2="effect1_dropShadow_1007_3943" result="shape"/>
</filter>
<linearGradient id="paint0_linear_1007_3943" x1="234" y1="127.5" x2="216.969" y2="109.43" gradientUnits="userSpaceOnUse">
<stop stop-color="white" stop-opacity="0"/>
<stop offset="1" stop-color="white"/>
</linearGradient>
<clipPath id="clip0_1007_3943">
<rect width="38" height="47" fill="white" transform="translate(91 85)"/>
</clipPath>
<clipPath id="clip1_1007_3943">
<rect width="4" height="44" fill="white" transform="translate(133 85)"/>
</clipPath>
<clipPath id="clip2_1007_3943">
<rect width="38" height="47" fill="white" transform="translate(141 85)"/>
</clipPath>
</defs>
</svg>
