<svg width="263" height="205" viewBox="0 0 263 205" fill="none" xmlns="http://www.w3.org/2000/svg">
<g filter="url(#filter0_d_1005_3822)">
<g filter="url(#filter1_d_1005_3822)">
<rect x="50" y="70" width="163" height="81" rx="14" fill="#E8EAEF"/>
<rect x="50.5" y="70.5" width="162" height="80" rx="13.5" stroke="#64728C" stroke-opacity="0.2"/>
<rect x="50" y="70" width="163" height="77" rx="14" fill="white"/>
<rect x="61.5" y="85.5" width="22" height="22" rx="10" fill="#64728C" fill-opacity="0.06"/>
<path d="M72.9123 93.7541C72.8582 93.6997 72.7939 93.6566 72.7232 93.6272C72.6524 93.5977 72.5765 93.5826 72.4998 93.5826C72.4232 93.5826 72.3473 93.5977 72.2765 93.6272C72.2057 93.6566 72.1415 93.6997 72.0874 93.7541L69.6123 96.2292C69.5061 96.3392 69.4473 96.4865 69.4486 96.6395C69.4499 96.7924 69.5113 96.9387 69.6194 97.0469C69.7276 97.1551 69.8739 97.2164 70.0269 97.2177C70.1798 97.2191 70.3272 97.1603 70.4372 97.054L71.9165 95.5747V98.8332C71.9165 98.9879 71.978 99.1363 72.0874 99.2457C72.1968 99.355 72.3451 99.4165 72.4998 99.4165C72.6545 99.4165 72.8029 99.355 72.9123 99.2457C73.0217 99.1363 73.0832 98.9879 73.0832 98.8332V95.5747L74.5625 97.054C74.6725 97.1603 74.8199 97.2191 74.9728 97.2177C75.1258 97.2164 75.2721 97.1551 75.3802 97.0469C75.4884 96.9387 75.5497 96.7924 75.5511 96.6395C75.5524 96.4865 75.4936 96.3392 75.3873 96.2292L72.9123 93.7541ZM72.4998 102.333C69.2781 102.333 66.6665 99.7216 66.6665 96.4998C66.6665 93.2781 69.2781 90.6665 72.4998 90.6665C75.7216 90.6665 78.3332 93.2781 78.3332 96.4998C78.3332 99.7216 75.7216 102.333 72.4998 102.333Z" fill="#929BAA"/>
<rect x="61.5" y="109.5" width="22" height="22" rx="10" fill="#64728C" fill-opacity="0.06"/>
<path d="M72.0874 123.246C72.1415 123.3 72.2057 123.343 72.2765 123.373C72.3473 123.402 72.4232 123.417 72.4998 123.417C72.5765 123.417 72.6524 123.402 72.7232 123.373C72.7939 123.343 72.8582 123.3 72.9123 123.246L75.3873 120.771C75.4431 120.717 75.4875 120.652 75.5181 120.581C75.5486 120.51 75.5647 120.433 75.5654 120.356C75.5661 120.279 75.5513 120.202 75.522 120.13C75.4927 120.058 75.4493 119.993 75.3946 119.938C75.3398 119.884 75.2747 119.84 75.203 119.811C75.1313 119.782 75.0545 119.767 74.977 119.768C74.8996 119.768 74.823 119.784 74.7519 119.815C74.6807 119.846 74.6163 119.89 74.5625 119.946L73.0832 121.425V118.167C73.0832 118.012 73.0217 117.863 72.9123 117.754C72.8029 117.645 72.6545 117.583 72.4998 117.583C72.3451 117.583 72.1968 117.645 72.0874 117.754C71.978 117.863 71.9165 118.012 71.9165 118.167V121.425L70.4372 119.946C70.3834 119.89 70.319 119.846 70.2478 119.815C70.1767 119.784 70.1001 119.768 70.0227 119.768C69.9452 119.767 69.8684 119.782 69.7967 119.811C69.725 119.84 69.6599 119.884 69.6051 119.938C69.5503 119.993 69.507 120.058 69.4777 120.13C69.4484 120.202 69.4336 120.279 69.4343 120.356C69.4349 120.433 69.451 120.51 69.4816 120.581C69.5122 120.652 69.5566 120.717 69.6123 120.771L72.0874 123.246ZM72.4998 126.333C69.2781 126.333 66.6665 123.722 66.6665 120.5C66.6665 117.278 69.2781 114.667 72.4998 114.667C75.7216 114.667 78.3332 117.278 78.3332 120.5C78.3332 123.722 75.7216 126.333 72.4998 126.333Z" fill="#929BAA"/>
<g clip-path="url(#clip0_1005_3822)">
<g filter="url(#filter2_i_1005_3822)">
<rect x="87.5" y="85" width="38" height="47" rx="10" fill="white"/>
<rect x="88" y="85.5" width="37" height="46" rx="9.5" stroke="#E8EAEF"/>
<path d="M103.062 105.477C102.797 105.159 102.417 105 101.922 105C101.245 105 100.784 105.253 100.539 105.758C100.398 106.049 100.315 106.513 100.289 107.148H98.125C98.1615 106.185 98.3359 105.406 98.6484 104.812C99.2422 103.682 100.297 103.117 101.812 103.117C103.01 103.117 103.964 103.451 104.672 104.117C105.38 104.779 105.734 105.656 105.734 106.75C105.734 107.589 105.484 108.333 104.984 108.984C104.656 109.417 104.117 109.898 103.367 110.43L102.477 111.062C101.919 111.458 101.536 111.745 101.328 111.922C101.125 112.099 100.953 112.305 100.812 112.539H105.758V114.5H98C98.0208 113.688 98.1953 112.945 98.5234 112.273C98.8411 111.518 99.5911 110.719 100.773 109.875C101.799 109.141 102.464 108.615 102.766 108.297C103.229 107.802 103.461 107.26 103.461 106.672C103.461 106.193 103.328 105.794 103.062 105.477ZM112.461 114.5H110.18V106.688H107.516V105.172C108.219 105.141 108.711 105.094 108.992 105.031C109.44 104.932 109.805 104.734 110.086 104.438C110.279 104.234 110.424 103.964 110.523 103.625C110.581 103.422 110.609 103.271 110.609 103.172H112.461V114.5Z" fill="#64728C"/>
</g>
</g>
<g clip-path="url(#clip1_1005_3822)">
<g clip-path="url(#clip2_1005_3822)">
<circle cx="131.5" cy="104" r="2" fill="#64728C"/>
<circle cx="131.5" cy="113" r="2" fill="#64728C"/>
</g>
</g>
<g clip-path="url(#clip3_1005_3822)">
<g filter="url(#filter3_i_1005_3822)">
<rect x="137.5" y="85" width="38" height="47" rx="10" fill="white"/>
<rect x="138" y="85.5" width="37" height="46" rx="9.5" stroke="#E8EAEF"/>
<path d="M153.555 114.5H151.273V106.688H148.609V105.172C149.312 105.141 149.805 105.094 150.086 105.031C150.534 104.932 150.898 104.734 151.18 104.438C151.372 104.234 151.518 103.964 151.617 103.625C151.674 103.422 151.703 103.271 151.703 103.172H153.555V114.5ZM160.812 114.781C159.37 114.781 158.357 114.276 157.773 113.266C157.195 112.255 156.906 110.815 156.906 108.945C156.906 107.076 157.195 105.633 157.773 104.617C158.357 103.602 159.37 103.094 160.812 103.094C162.255 103.094 163.268 103.602 163.852 104.617C164.43 105.633 164.719 107.076 164.719 108.945C164.719 110.815 164.427 112.255 163.844 113.266C163.266 114.276 162.255 114.781 160.812 114.781ZM162.117 111.93C162.32 111.242 162.422 110.247 162.422 108.945C162.422 107.581 162.318 106.57 162.109 105.914C161.906 105.258 161.474 104.93 160.812 104.93C160.151 104.93 159.714 105.258 159.5 105.914C159.286 106.57 159.18 107.581 159.18 108.945C159.18 110.247 159.286 111.245 159.5 111.938C159.714 112.625 160.151 112.969 160.812 112.969C161.474 112.969 161.909 112.622 162.117 111.93Z" fill="#64728C"/>
</g>
</g>
<rect x="179.5" y="85.5" width="22" height="22" rx="10" fill="#64728C" fill-opacity="0.06"/>
<path d="M190.912 93.7541C190.858 93.6997 190.794 93.6566 190.723 93.6272C190.652 93.5977 190.576 93.5826 190.5 93.5826C190.423 93.5826 190.347 93.5977 190.277 93.6272C190.206 93.6566 190.141 93.6997 190.087 93.7541L187.612 96.2292C187.506 96.3392 187.447 96.4865 187.449 96.6395C187.45 96.7924 187.511 96.9387 187.619 97.0469C187.728 97.1551 187.874 97.2164 188.027 97.2177C188.18 97.2191 188.327 97.1603 188.437 97.054L189.917 95.5747V98.8332C189.917 98.9879 189.978 99.1363 190.087 99.2457C190.197 99.355 190.345 99.4165 190.5 99.4165C190.655 99.4165 190.803 99.355 190.912 99.2457C191.022 99.1363 191.083 98.9879 191.083 98.8332V95.5747L192.563 97.054C192.673 97.1603 192.82 97.2191 192.973 97.2177C193.126 97.2164 193.272 97.1551 193.38 97.0469C193.488 96.9387 193.55 96.7924 193.551 96.6395C193.552 96.4865 193.494 96.3392 193.387 96.2292L190.912 93.7541ZM190.5 102.333C187.278 102.333 184.667 99.7216 184.667 96.4998C184.667 93.2781 187.278 90.6665 190.5 90.6665C193.722 90.6665 196.333 93.2781 196.333 96.4998C196.333 99.7216 193.722 102.333 190.5 102.333Z" fill="#929BAA"/>
<rect x="179.5" y="109.5" width="22" height="22" rx="10" fill="#64728C" fill-opacity="0.06"/>
<path d="M190.087 123.246C190.141 123.3 190.206 123.343 190.277 123.373C190.347 123.402 190.423 123.417 190.5 123.417C190.576 123.417 190.652 123.402 190.723 123.373C190.794 123.343 190.858 123.3 190.912 123.246L193.387 120.771C193.443 120.717 193.487 120.652 193.518 120.581C193.549 120.51 193.565 120.433 193.565 120.356C193.566 120.279 193.551 120.202 193.522 120.13C193.493 120.058 193.449 119.993 193.395 119.938C193.34 119.884 193.275 119.84 193.203 119.811C193.131 119.782 193.054 119.767 192.977 119.768C192.9 119.768 192.823 119.784 192.752 119.815C192.681 119.846 192.616 119.89 192.563 119.946L191.083 121.425V118.167C191.083 118.012 191.022 117.863 190.912 117.754C190.803 117.645 190.655 117.583 190.5 117.583C190.345 117.583 190.197 117.645 190.087 117.754C189.978 117.863 189.917 118.012 189.917 118.167V121.425L188.437 119.946C188.383 119.89 188.319 119.846 188.248 119.815C188.177 119.784 188.1 119.768 188.023 119.768C187.945 119.767 187.868 119.782 187.797 119.811C187.725 119.84 187.66 119.884 187.605 119.938C187.55 119.993 187.507 120.058 187.478 120.13C187.448 120.202 187.434 120.279 187.434 120.356C187.435 120.433 187.451 120.51 187.482 120.581C187.512 120.652 187.557 120.717 187.612 120.771L190.087 123.246ZM190.5 126.333C187.278 126.333 184.667 123.722 184.667 120.5C184.667 117.278 187.278 114.667 190.5 114.667C193.722 114.667 196.333 117.278 196.333 120.5C196.333 123.722 193.722 126.333 190.5 126.333Z" fill="#929BAA"/>
</g>
</g>
<rect x="50.5" y="21.5" width="163" height="44" rx="11.5" fill="white"/>
<rect x="50.5" y="21.5" width="163" height="44" rx="11.5" stroke="#E8EAEF"/>
<path d="M93.1311 42.604C93.1097 41.964 93.1844 41.372 93.3551 40.828C93.5257 40.2733 93.7817 39.7933 94.1231 39.388C94.4644 38.972 94.8911 38.652 95.4031 38.428C95.9257 38.1933 96.5231 38.076 97.1951 38.076C97.7071 38.076 98.1924 38.156 98.6511 38.316C99.1204 38.476 99.5311 38.7053 99.8831 39.004C100.235 39.3027 100.512 39.6707 100.715 40.108C100.928 40.5453 101.035 41.036 101.035 41.58C101.035 42.1453 100.944 42.6307 100.763 43.036C100.582 43.4413 100.342 43.804 100.043 44.124C99.7444 44.4333 99.4031 44.716 99.0191 44.972C98.6457 45.228 98.2671 45.484 97.8831 45.74C97.4991 45.9853 97.1257 46.252 96.7631 46.54C96.4004 46.828 96.0804 47.164 95.8031 47.548H101.099V49.5H92.8751C92.8751 48.8493 92.9657 48.284 93.1471 47.804C93.3391 47.324 93.5951 46.8973 93.9151 46.524C94.2351 46.14 94.6084 45.788 95.0351 45.468C95.4724 45.148 95.9311 44.8227 96.4111 44.492C96.6564 44.3213 96.9177 44.1507 97.1951 43.98C97.4724 43.7987 97.7231 43.6013 97.9471 43.388C98.1817 43.1747 98.3737 42.9347 98.5231 42.668C98.6831 42.4013 98.7631 42.0973 98.7631 41.756C98.7631 41.212 98.6031 40.7907 98.2831 40.492C97.9737 40.1827 97.5737 40.028 97.0831 40.028C96.7524 40.028 96.4697 40.108 96.2351 40.268C96.0111 40.4173 95.8297 40.62 95.6911 40.876C95.5524 41.1213 95.4511 41.3987 95.3871 41.708C95.3337 42.0067 95.3071 42.3053 95.3071 42.604H93.1311ZM107.702 49.5H105.43V42.236H102.614V40.524C103.008 40.5347 103.387 40.508 103.75 40.444C104.123 40.3693 104.454 40.2467 104.742 40.076C105.04 39.8947 105.291 39.66 105.494 39.372C105.696 39.084 105.83 38.7267 105.894 38.3H107.702V49.5ZM118.261 43.836H115.749V41.372H118.261V43.836ZM115.749 47.036H118.261V49.5H115.749V47.036ZM129.952 49.5H127.68V42.236H124.864V40.524C125.258 40.5347 125.637 40.508 126 40.444C126.373 40.3693 126.704 40.2467 126.992 40.076C127.29 39.8947 127.541 39.66 127.744 39.372C127.946 39.084 128.08 38.7267 128.144 38.3H129.952V49.5ZM135.178 43.852C135.178 44.172 135.189 44.5613 135.21 45.02C135.232 45.468 135.296 45.9053 135.402 46.332C135.52 46.748 135.701 47.1053 135.946 47.404C136.192 47.7027 136.544 47.852 137.002 47.852C137.472 47.852 137.829 47.7027 138.074 47.404C138.33 47.1053 138.512 46.748 138.618 46.332C138.736 45.9053 138.805 45.468 138.826 45.02C138.848 44.5613 138.858 44.172 138.858 43.852C138.858 43.66 138.853 43.4307 138.842 43.164C138.842 42.8867 138.821 42.604 138.778 42.316C138.746 42.028 138.693 41.7453 138.618 41.468C138.554 41.18 138.453 40.924 138.314 40.7C138.176 40.476 138 40.2947 137.786 40.156C137.573 40.0173 137.312 39.948 137.002 39.948C136.693 39.948 136.432 40.0173 136.218 40.156C136.016 40.2947 135.845 40.476 135.706 40.7C135.578 40.924 135.477 41.18 135.402 41.468C135.328 41.7453 135.274 42.028 135.242 42.316C135.21 42.604 135.189 42.8867 135.178 43.164C135.178 43.4307 135.178 43.66 135.178 43.852ZM132.906 43.852C132.906 42.764 133.013 41.852 133.226 41.116C133.45 40.3693 133.749 39.772 134.122 39.324C134.496 38.876 134.928 38.556 135.418 38.364C135.92 38.172 136.448 38.076 137.002 38.076C137.568 38.076 138.096 38.172 138.586 38.364C139.088 38.556 139.525 38.876 139.898 39.324C140.282 39.772 140.581 40.3693 140.794 41.116C141.018 41.852 141.13 42.764 141.13 43.852C141.13 44.972 141.018 45.9107 140.794 46.668C140.581 47.4147 140.282 48.012 139.898 48.46C139.525 48.908 139.088 49.228 138.586 49.42C138.096 49.612 137.568 49.708 137.002 49.708C136.448 49.708 135.92 49.612 135.418 49.42C134.928 49.228 134.496 48.908 134.122 48.46C133.749 48.012 133.45 47.4147 133.226 46.668C133.013 45.9107 132.906 44.972 132.906 43.852Z" fill="#64728C"/>
<rect x="174" y="25.5" width="36" height="36" rx="10" fill="#64728C" fill-opacity="0.12"/>
<path d="M192 50.5C195.866 50.5 199 47.366 199 43.5C199 39.634 195.866 36.5 192 36.5C188.134 36.5 185 39.634 185 43.5C185 47.366 188.134 50.5 192 50.5Z" stroke="#64728C" stroke-width="2" stroke-linecap="round" stroke-linejoin="round"/>
<path d="M192 39.876V44.9403L194.8 46.6285" stroke="#64728C" stroke-width="2" stroke-linecap="round" stroke-linejoin="round"/>
<path d="M53.804 12.108C53.436 12.108 53.076 12.08 52.724 12.024C52.372 11.968 52.04 11.884 51.728 11.772C51.416 11.652 51.136 11.508 50.888 11.34C50.768 11.252 50.684 11.152 50.636 11.04C50.596 10.928 50.584 10.82 50.6 10.716C50.624 10.604 50.672 10.508 50.744 10.428C50.816 10.348 50.904 10.3 51.008 10.284C51.112 10.26 51.228 10.292 51.356 10.38C51.716 10.612 52.096 10.784 52.496 10.896C52.896 11 53.332 11.052 53.804 11.052C54.484 11.052 54.984 10.932 55.304 10.692C55.632 10.444 55.796 10.124 55.796 9.732C55.796 9.412 55.68 9.16 55.448 8.976C55.216 8.784 54.828 8.632 54.284 8.52L53 8.256C52.24 8.096 51.672 7.832 51.296 7.464C50.928 7.096 50.744 6.6 50.744 5.976C50.744 5.6 50.82 5.256 50.972 4.944C51.132 4.632 51.352 4.364 51.632 4.14C51.912 3.908 52.248 3.732 52.64 3.612C53.032 3.492 53.46 3.432 53.924 3.432C54.42 3.432 54.884 3.496 55.316 3.624C55.756 3.752 56.148 3.948 56.492 4.212C56.596 4.284 56.664 4.376 56.696 4.488C56.736 4.592 56.744 4.696 56.72 4.8C56.704 4.904 56.66 4.992 56.588 5.064C56.516 5.136 56.424 5.18 56.312 5.196C56.2 5.204 56.076 5.164 55.94 5.076C55.628 4.868 55.308 4.72 54.98 4.632C54.66 4.536 54.304 4.488 53.912 4.488C53.52 4.488 53.176 4.548 52.88 4.668C52.592 4.788 52.368 4.956 52.208 5.172C52.056 5.388 51.98 5.644 51.98 5.94C51.98 6.276 52.088 6.544 52.304 6.744C52.52 6.944 52.88 7.096 53.384 7.2L54.656 7.464C55.456 7.632 56.052 7.892 56.444 8.244C56.836 8.596 57.032 9.064 57.032 9.648C57.032 10.024 56.956 10.364 56.804 10.668C56.652 10.964 56.436 11.22 56.156 11.436C55.876 11.652 55.536 11.82 55.136 11.94C54.744 12.052 54.3 12.108 53.804 12.108ZM61.0648 12.108C60.4248 12.108 59.8728 11.988 59.4088 11.748C58.9528 11.5 58.5968 11.152 58.3408 10.704C58.0928 10.248 57.9688 9.708 57.9688 9.084C57.9688 8.476 58.0928 7.944 58.3408 7.488C58.5888 7.032 58.9288 6.676 59.3608 6.42C59.7928 6.164 60.2848 6.036 60.8368 6.036C61.2448 6.036 61.6088 6.104 61.9288 6.24C62.2488 6.368 62.5208 6.56 62.7448 6.816C62.9768 7.064 63.1488 7.368 63.2608 7.728C63.3808 8.088 63.4408 8.492 63.4408 8.94C63.4408 9.076 63.4008 9.18 63.3208 9.252C63.2408 9.316 63.1208 9.348 62.9608 9.348H58.9288V8.604H62.6248L62.4208 8.772C62.4208 8.372 62.3608 8.032 62.2408 7.752C62.1288 7.472 61.9568 7.26 61.7248 7.116C61.5008 6.964 61.2208 6.888 60.8848 6.888C60.5088 6.888 60.1888 6.976 59.9248 7.152C59.6688 7.328 59.4728 7.572 59.3368 7.884C59.2008 8.196 59.1328 8.56 59.1328 8.976V9.048C59.1328 9.752 59.2968 10.284 59.6248 10.644C59.9608 10.996 60.4448 11.172 61.0768 11.172C61.3168 11.172 61.5688 11.14 61.8328 11.076C62.1048 11.012 62.3608 10.904 62.6008 10.752C62.7368 10.672 62.8568 10.636 62.9608 10.644C63.0728 10.652 63.1608 10.688 63.2248 10.752C63.2968 10.816 63.3408 10.896 63.3568 10.992C63.3728 11.088 63.3568 11.188 63.3088 11.292C63.2608 11.388 63.1768 11.476 63.0568 11.556C62.7848 11.74 62.4688 11.88 62.1088 11.976C61.7488 12.064 61.4008 12.108 61.0648 12.108ZM67.2464 12.108C66.7664 12.108 66.3624 12.024 66.0344 11.856C65.7064 11.688 65.4624 11.44 65.3024 11.112C65.1424 10.784 65.0624 10.384 65.0624 9.912V7.08H64.3424C64.1824 7.08 64.0584 7.04 63.9704 6.96C63.8824 6.872 63.8384 6.756 63.8384 6.612C63.8384 6.46 63.8824 6.344 63.9704 6.264C64.0584 6.184 64.1824 6.144 64.3424 6.144H65.0624V4.908C65.0624 4.708 65.1144 4.556 65.2184 4.452C65.3304 4.348 65.4824 4.296 65.6744 4.296C65.8664 4.296 66.0144 4.348 66.1184 4.452C66.2224 4.556 66.2744 4.708 66.2744 4.908V6.144H67.6784C67.8384 6.144 67.9624 6.184 68.0504 6.264C68.1384 6.344 68.1824 6.46 68.1824 6.612C68.1824 6.756 68.1384 6.872 68.0504 6.96C67.9624 7.04 67.8384 7.08 67.6784 7.08H66.2744V9.816C66.2744 10.24 66.3624 10.56 66.5384 10.776C66.7224 10.992 67.0184 11.1 67.4264 11.1C67.5704 11.1 67.6944 11.088 67.7984 11.064C67.9104 11.032 68.0024 11.012 68.0744 11.004C68.1624 11.004 68.2344 11.036 68.2904 11.1C68.3464 11.156 68.3744 11.268 68.3744 11.436C68.3744 11.556 68.3504 11.668 68.3024 11.772C68.2624 11.876 68.1864 11.944 68.0744 11.976C67.9784 12.008 67.8464 12.036 67.6784 12.06C67.5184 12.092 67.3744 12.108 67.2464 12.108ZM75.1173 12.084C74.9173 12.084 74.7613 12.028 74.6493 11.916C74.5453 11.804 74.4933 11.648 74.4933 11.448V4.584H71.9493C71.7813 4.584 71.6493 4.54 71.5533 4.452C71.4573 4.356 71.4093 4.224 71.4093 4.056C71.4093 3.888 71.4573 3.76 71.5533 3.672C71.6493 3.584 71.7813 3.54 71.9493 3.54H78.2733C78.4493 3.54 78.5853 3.584 78.6813 3.672C78.7773 3.76 78.8253 3.888 78.8253 4.056C78.8253 4.224 78.7773 4.356 78.6813 4.452C78.5853 4.54 78.4493 4.584 78.2733 4.584H75.7293V11.448C75.7293 11.648 75.6773 11.804 75.5733 11.916C75.4773 12.028 75.3253 12.084 75.1173 12.084ZM80.702 12.072C80.51 12.072 80.362 12.016 80.258 11.904C80.154 11.784 80.102 11.62 80.102 11.412V6.732C80.102 6.524 80.154 6.364 80.258 6.252C80.362 6.14 80.51 6.084 80.702 6.084C80.894 6.084 81.042 6.14 81.146 6.252C81.258 6.364 81.314 6.524 81.314 6.732V11.412C81.314 11.62 81.262 11.784 81.158 11.904C81.054 12.016 80.902 12.072 80.702 12.072ZM80.702 4.836C80.462 4.836 80.274 4.776 80.138 4.656C80.01 4.536 79.946 4.368 79.946 4.152C79.946 3.928 80.01 3.76 80.138 3.648C80.274 3.528 80.462 3.468 80.702 3.468C80.942 3.468 81.126 3.528 81.254 3.648C81.39 3.76 81.458 3.928 81.458 4.152C81.458 4.368 81.39 4.536 81.254 4.656C81.126 4.776 80.942 4.836 80.702 4.836ZM83.644 12.084C83.452 12.084 83.304 12.032 83.2 11.928C83.096 11.816 83.044 11.664 83.044 11.472V6.672C83.044 6.472 83.096 6.32 83.2 6.216C83.304 6.112 83.448 6.06 83.632 6.06C83.824 6.06 83.968 6.112 84.064 6.216C84.168 6.32 84.22 6.472 84.22 6.672V7.656L84.088 7.392C84.248 6.968 84.496 6.636 84.832 6.396C85.168 6.156 85.572 6.036 86.044 6.036C86.532 6.036 86.928 6.152 87.232 6.384C87.536 6.616 87.744 6.972 87.856 7.452H87.688C87.84 7.012 88.1 6.668 88.468 6.42C88.836 6.164 89.264 6.036 89.752 6.036C90.2 6.036 90.568 6.124 90.856 6.3C91.144 6.468 91.36 6.728 91.504 7.08C91.648 7.424 91.72 7.86 91.72 8.388V11.472C91.72 11.664 91.664 11.816 91.552 11.928C91.448 12.032 91.3 12.084 91.108 12.084C90.916 12.084 90.768 12.032 90.664 11.928C90.56 11.816 90.508 11.664 90.508 11.472V8.448C90.508 7.952 90.42 7.588 90.244 7.356C90.076 7.124 89.796 7.008 89.404 7.008C88.964 7.008 88.616 7.16 88.36 7.464C88.104 7.768 87.976 8.188 87.976 8.724V11.472C87.976 11.664 87.924 11.816 87.82 11.928C87.716 12.032 87.568 12.084 87.376 12.084C87.184 12.084 87.032 12.032 86.92 11.928C86.816 11.816 86.764 11.664 86.764 11.472V8.448C86.764 7.952 86.68 7.588 86.512 7.356C86.344 7.124 86.064 7.008 85.672 7.008C85.232 7.008 84.884 7.16 84.628 7.464C84.38 7.768 84.256 8.188 84.256 8.724V11.472C84.256 11.88 84.052 12.084 83.644 12.084ZM96.1625 12.108C95.5225 12.108 94.9705 11.988 94.5065 11.748C94.0505 11.5 93.6945 11.152 93.4385 10.704C93.1905 10.248 93.0665 9.708 93.0665 9.084C93.0665 8.476 93.1905 7.944 93.4385 7.488C93.6865 7.032 94.0265 6.676 94.4585 6.42C94.8905 6.164 95.3825 6.036 95.9345 6.036C96.3425 6.036 96.7065 6.104 97.0265 6.24C97.3465 6.368 97.6185 6.56 97.8425 6.816C98.0745 7.064 98.2465 7.368 98.3585 7.728C98.4785 8.088 98.5385 8.492 98.5385 8.94C98.5385 9.076 98.4985 9.18 98.4185 9.252C98.3385 9.316 98.2185 9.348 98.0585 9.348H94.0265V8.604H97.7225L97.5185 8.772C97.5185 8.372 97.4585 8.032 97.3385 7.752C97.2265 7.472 97.0545 7.26 96.8225 7.116C96.5985 6.964 96.3185 6.888 95.9825 6.888C95.6065 6.888 95.2865 6.976 95.0225 7.152C94.7665 7.328 94.5705 7.572 94.4345 7.884C94.2985 8.196 94.2305 8.56 94.2305 8.976V9.048C94.2305 9.752 94.3945 10.284 94.7225 10.644C95.0585 10.996 95.5425 11.172 96.1745 11.172C96.4145 11.172 96.6665 11.14 96.9305 11.076C97.2025 11.012 97.4585 10.904 97.6985 10.752C97.8345 10.672 97.9545 10.636 98.0585 10.644C98.1705 10.652 98.2585 10.688 98.3225 10.752C98.3945 10.816 98.4385 10.896 98.4545 10.992C98.4705 11.088 98.4545 11.188 98.4065 11.292C98.3585 11.388 98.2745 11.476 98.1545 11.556C97.8825 11.74 97.5665 11.88 97.2065 11.976C96.8465 12.064 96.4985 12.108 96.1625 12.108Z" fill="#64728C"/>
<defs>
<filter id="filter0_d_1005_3822" x="0" y="24" width="263" height="181" filterUnits="userSpaceOnUse" color-interpolation-filters="sRGB">
<feFlood flood-opacity="0" result="BackgroundImageFix"/>
<feColorMatrix in="SourceAlpha" type="matrix" values="0 0 0 0 0 0 0 0 0 0 0 0 0 0 0 0 0 0 127 0" result="hardAlpha"/>
<feOffset dy="4"/>
<feGaussianBlur stdDeviation="25"/>
<feComposite in2="hardAlpha" operator="out"/>
<feColorMatrix type="matrix" values="0 0 0 0 0 0 0 0 0 0 0 0 0 0 0 0 0 0 0.05 0"/>
<feBlend mode="normal" in2="BackgroundImageFix" result="effect1_dropShadow_1005_3822"/>
<feBlend mode="normal" in="SourceGraphic" in2="effect1_dropShadow_1005_3822" result="shape"/>
</filter>
<filter id="filter1_d_1005_3822" x="46" y="70" width="171" height="89" filterUnits="userSpaceOnUse" color-interpolation-filters="sRGB">
<feFlood flood-opacity="0" result="BackgroundImageFix"/>
<feColorMatrix in="SourceAlpha" type="matrix" values="0 0 0 0 0 0 0 0 0 0 0 0 0 0 0 0 0 0 127 0" result="hardAlpha"/>
<feOffset dy="4"/>
<feGaussianBlur stdDeviation="2"/>
<feComposite in2="hardAlpha" operator="out"/>
<feColorMatrix type="matrix" values="0 0 0 0 0 0 0 0 0 0 0 0 0 0 0 0 0 0 0.05 0"/>
<feBlend mode="normal" in2="BackgroundImageFix" result="effect1_dropShadow_1005_3822"/>
<feBlend mode="normal" in="SourceGraphic" in2="effect1_dropShadow_1005_3822" result="shape"/>
</filter>
<filter id="filter2_i_1005_3822" x="87.5" y="85" width="38" height="49" filterUnits="userSpaceOnUse" color-interpolation-filters="sRGB">
<feFlood flood-opacity="0" result="BackgroundImageFix"/>
<feBlend mode="normal" in="SourceGraphic" in2="BackgroundImageFix" result="shape"/>
<feColorMatrix in="SourceAlpha" type="matrix" values="0 0 0 0 0 0 0 0 0 0 0 0 0 0 0 0 0 0 127 0" result="hardAlpha"/>
<feOffset dy="2"/>
<feGaussianBlur stdDeviation="1"/>
<feComposite in2="hardAlpha" operator="arithmetic" k2="-1" k3="1"/>
<feColorMatrix type="matrix" values="0 0 0 0 0 0 0 0 0 0 0 0 0 0 0 0 0 0 0.05 0"/>
<feBlend mode="normal" in2="shape" result="effect1_innerShadow_1005_3822"/>
</filter>
<filter id="filter3_i_1005_3822" x="137.5" y="85" width="38" height="49" filterUnits="userSpaceOnUse" color-interpolation-filters="sRGB">
<feFlood flood-opacity="0" result="BackgroundImageFix"/>
<feBlend mode="normal" in="SourceGraphic" in2="BackgroundImageFix" result="shape"/>
<feColorMatrix in="SourceAlpha" type="matrix" values="0 0 0 0 0 0 0 0 0 0 0 0 0 0 0 0 0 0 127 0" result="hardAlpha"/>
<feOffset dy="2"/>
<feGaussianBlur stdDeviation="1"/>
<feComposite in2="hardAlpha" operator="arithmetic" k2="-1" k3="1"/>
<feColorMatrix type="matrix" values="0 0 0 0 0 0 0 0 0 0 0 0 0 0 0 0 0 0 0.05 0"/>
<feBlend mode="normal" in2="shape" result="effect1_innerShadow_1005_3822"/>
</filter>
<clipPath id="clip0_1005_3822">
<rect width="38" height="47" fill="white" transform="translate(87.5 85)"/>
</clipPath>
<clipPath id="clip1_1005_3822">
<rect width="4" height="44" fill="white" transform="translate(129.5 86.5)"/>
</clipPath>
<clipPath id="clip2_1005_3822">
<rect x="129.5" y="86.5" width="4" height="44" rx="2" fill="white"/>
</clipPath>
<clipPath id="clip3_1005_3822">
<rect width="38" height="47" fill="white" transform="translate(137.5 85)"/>
</clipPath>
</defs>
</svg>
