<svg width="235" height="111" viewBox="0 0 235 111" fill="none" xmlns="http://www.w3.org/2000/svg">
<g filter="url(#filter0_d_1345_5031)">
<mask id="path-1-inside-1_1345_5031" fill="white">
<path d="M4 18C4 11.3726 9.37258 6 16 6H89C95.6274 6 101 11.3726 101 18V28C101 34.6274 95.6274 40 89 40H16C9.37258 40 4 34.6274 4 28V18Z"/>
</mask>
<path d="M4 18C4 11.3726 9.37258 6 16 6H89C95.6274 6 101 11.3726 101 18V28C101 34.6274 95.6274 40 89 40H16C9.37258 40 4 34.6274 4 28V18Z" fill="#64728C" shape-rendering="crispEdges"/>
<path d="M4 6H101H4ZM101 28C101 35.732 94.732 42 87 42H18C10.268 42 4 35.732 4 28C4 33.5228 9.37258 38 16 38H89C95.6274 38 101 33.5228 101 28ZM4 40V6V40ZM101 6V40V6Z" fill="#435069" mask="url(#path-1-inside-1_1345_5031)"/>
<path d="M23.672 27.084C23.472 27.084 23.316 27.028 23.204 26.916C23.1 26.804 23.048 26.648 23.048 26.448V19.584H20.504C20.336 19.584 20.204 19.54 20.108 19.452C20.012 19.356 19.964 19.224 19.964 19.056C19.964 18.888 20.012 18.76 20.108 18.672C20.204 18.584 20.336 18.54 20.504 18.54H26.828C27.004 18.54 27.14 18.584 27.236 18.672C27.332 18.76 27.38 18.888 27.38 19.056C27.38 19.224 27.332 19.356 27.236 19.452C27.14 19.54 27.004 19.584 26.828 19.584H24.284V26.448C24.284 26.648 24.232 26.804 24.128 26.916C24.032 27.028 23.88 27.084 23.672 27.084ZM29.8062 27.108C29.2142 27.108 28.7022 26.984 28.2702 26.736C27.8462 26.488 27.5142 26.136 27.2742 25.68C27.0342 25.224 26.9142 24.688 26.9142 24.072C26.9142 23.6 26.9822 23.18 27.1182 22.812C27.2542 22.444 27.4462 22.128 27.6942 21.864C27.9502 21.592 28.2542 21.388 28.6062 21.252C28.9662 21.108 29.3662 21.036 29.8062 21.036C30.3902 21.036 30.8942 21.16 31.3182 21.408C31.7502 21.656 32.0862 22.008 32.3262 22.464C32.5662 22.912 32.6862 23.448 32.6862 24.072C32.6862 24.536 32.6182 24.956 32.4822 25.332C32.3462 25.708 32.1502 26.028 31.8942 26.292C31.6462 26.556 31.3422 26.76 30.9822 26.904C30.6302 27.04 30.2382 27.108 29.8062 27.108ZM29.8062 26.172C30.1342 26.172 30.4222 26.092 30.6702 25.932C30.9182 25.772 31.1102 25.536 31.2462 25.224C31.3902 24.912 31.4622 24.528 31.4622 24.072C31.4622 23.384 31.3102 22.864 31.0062 22.512C30.7022 22.16 30.3022 21.984 29.8062 21.984C29.4702 21.984 29.1782 22.064 28.9302 22.224C28.6822 22.376 28.4862 22.608 28.3422 22.92C28.2062 23.232 28.1382 23.616 28.1382 24.072C28.1382 24.752 28.2902 25.272 28.5942 25.632C28.8982 25.992 29.3022 26.172 29.8062 26.172ZM36.5913 27.108C35.9993 27.108 35.4873 26.984 35.0553 26.736C34.6313 26.488 34.2993 26.136 34.0593 25.68C33.8193 25.224 33.6993 24.688 33.6993 24.072C33.6993 23.6 33.7673 23.18 33.9033 22.812C34.0393 22.444 34.2313 22.128 34.4793 21.864C34.7353 21.592 35.0393 21.388 35.3913 21.252C35.7513 21.108 36.1513 21.036 36.5913 21.036C37.1753 21.036 37.6793 21.16 38.1033 21.408C38.5353 21.656 38.8713 22.008 39.1113 22.464C39.3513 22.912 39.4713 23.448 39.4713 24.072C39.4713 24.536 39.4033 24.956 39.2673 25.332C39.1313 25.708 38.9353 26.028 38.6793 26.292C38.4313 26.556 38.1273 26.76 37.7673 26.904C37.4153 27.04 37.0233 27.108 36.5913 27.108ZM36.5913 26.172C36.9193 26.172 37.2073 26.092 37.4553 25.932C37.7033 25.772 37.8953 25.536 38.0313 25.224C38.1753 24.912 38.2473 24.528 38.2473 24.072C38.2473 23.384 38.0953 22.864 37.7913 22.512C37.4873 22.16 37.0873 21.984 36.5913 21.984C36.2553 21.984 35.9633 22.064 35.7153 22.224C35.4673 22.376 35.2713 22.608 35.1273 22.92C34.9913 23.232 34.9233 23.616 34.9233 24.072C34.9233 24.752 35.0753 25.272 35.3793 25.632C35.6833 25.992 36.0873 26.172 36.5913 26.172ZM42.7165 27.108C42.0925 27.108 41.6205 26.928 41.3005 26.568C40.9885 26.2 40.8325 25.672 40.8325 24.984V19.068C40.8325 18.868 40.8845 18.716 40.9885 18.612C41.0925 18.508 41.2405 18.456 41.4325 18.456C41.6245 18.456 41.7725 18.508 41.8765 18.612C41.9885 18.716 42.0445 18.868 42.0445 19.068V24.912C42.0445 25.312 42.1245 25.612 42.2845 25.812C42.4525 26.004 42.6925 26.1 43.0045 26.1C43.0765 26.1 43.1405 26.1 43.1965 26.1C43.2525 26.092 43.3085 26.084 43.3645 26.076C43.4605 26.068 43.5285 26.096 43.5685 26.16C43.6085 26.216 43.6285 26.336 43.6285 26.52C43.6285 26.688 43.5925 26.82 43.5205 26.916C43.4485 27.004 43.3325 27.06 43.1725 27.084C43.1005 27.092 43.0245 27.096 42.9445 27.096C42.8645 27.104 42.7885 27.108 42.7165 27.108ZM46.8675 27.108C46.3875 27.108 45.9835 27.024 45.6555 26.856C45.3275 26.688 45.0835 26.44 44.9235 26.112C44.7635 25.784 44.6835 25.384 44.6835 24.912V22.08H43.9635C43.8035 22.08 43.6795 22.04 43.5915 21.96C43.5035 21.872 43.4595 21.756 43.4595 21.612C43.4595 21.46 43.5035 21.344 43.5915 21.264C43.6795 21.184 43.8035 21.144 43.9635 21.144H44.6835V19.908C44.6835 19.708 44.7355 19.556 44.8395 19.452C44.9515 19.348 45.1035 19.296 45.2955 19.296C45.4875 19.296 45.6355 19.348 45.7395 19.452C45.8435 19.556 45.8955 19.708 45.8955 19.908V21.144H47.2995C47.4595 21.144 47.5835 21.184 47.6715 21.264C47.7595 21.344 47.8035 21.46 47.8035 21.612C47.8035 21.756 47.7595 21.872 47.6715 21.96C47.5835 22.04 47.4595 22.08 47.2995 22.08H45.8955V24.816C45.8955 25.24 45.9835 25.56 46.1595 25.776C46.3435 25.992 46.6395 26.1 47.0475 26.1C47.1915 26.1 47.3155 26.088 47.4195 26.064C47.5315 26.032 47.6235 26.012 47.6955 26.004C47.7835 26.004 47.8555 26.036 47.9115 26.1C47.9675 26.156 47.9955 26.268 47.9955 26.436C47.9955 26.556 47.9715 26.668 47.9235 26.772C47.8835 26.876 47.8075 26.944 47.6955 26.976C47.5995 27.008 47.4675 27.036 47.2995 27.06C47.1395 27.092 46.9955 27.108 46.8675 27.108ZM49.4598 27.072C49.2678 27.072 49.1198 27.016 49.0158 26.904C48.9118 26.784 48.8598 26.62 48.8598 26.412V21.732C48.8598 21.524 48.9118 21.364 49.0158 21.252C49.1198 21.14 49.2678 21.084 49.4598 21.084C49.6518 21.084 49.7998 21.14 49.9038 21.252C50.0158 21.364 50.0718 21.524 50.0718 21.732V26.412C50.0718 26.62 50.0198 26.784 49.9158 26.904C49.8118 27.016 49.6598 27.072 49.4598 27.072ZM49.4598 19.836C49.2198 19.836 49.0318 19.776 48.8958 19.656C48.7678 19.536 48.7038 19.368 48.7038 19.152C48.7038 18.928 48.7678 18.76 48.8958 18.648C49.0318 18.528 49.2198 18.468 49.4598 18.468C49.6998 18.468 49.8838 18.528 50.0118 18.648C50.1478 18.76 50.2158 18.928 50.2158 19.152C50.2158 19.368 50.1478 19.536 50.0118 19.656C49.8838 19.776 49.6998 19.836 49.4598 19.836ZM52.3778 29.244C52.1858 29.244 52.0378 29.192 51.9338 29.088C51.8298 28.984 51.7778 28.832 51.7778 28.632V21.672C51.7778 21.472 51.8298 21.32 51.9338 21.216C52.0378 21.112 52.1818 21.06 52.3658 21.06C52.5578 21.06 52.7058 21.112 52.8098 21.216C52.9138 21.32 52.9658 21.472 52.9658 21.672V22.716L52.8338 22.464C52.9618 22.032 53.2138 21.688 53.5898 21.432C53.9658 21.168 54.4098 21.036 54.9218 21.036C55.4418 21.036 55.8938 21.16 56.2778 21.408C56.6698 21.656 56.9698 22.004 57.1778 22.452C57.3938 22.9 57.5018 23.44 57.5018 24.072C57.5018 24.688 57.3938 25.228 57.1778 25.692C56.9698 26.148 56.6738 26.5 56.2898 26.748C55.9058 26.988 55.4498 27.108 54.9218 27.108C54.4178 27.108 53.9778 26.98 53.6018 26.724C53.2258 26.468 52.9738 26.128 52.8458 25.704H52.9898V28.632C52.9898 28.832 52.9338 28.984 52.8218 29.088C52.7178 29.192 52.5698 29.244 52.3778 29.244ZM54.6218 26.172C54.9578 26.172 55.2498 26.092 55.4978 25.932C55.7458 25.772 55.9378 25.536 56.0738 25.224C56.2098 24.912 56.2778 24.528 56.2778 24.072C56.2778 23.384 56.1258 22.864 55.8218 22.512C55.5258 22.16 55.1258 21.984 54.6218 21.984C54.2938 21.984 54.0018 22.064 53.7458 22.224C53.4978 22.376 53.3058 22.608 53.1698 22.92C53.0338 23.232 52.9658 23.616 52.9658 24.072C52.9658 24.752 53.1178 25.272 53.4218 25.632C53.7258 25.992 54.1258 26.172 54.6218 26.172ZM64.8517 27.084C64.6517 27.084 64.4957 27.028 64.3837 26.916C64.2797 26.804 64.2277 26.648 64.2277 26.448V19.584H61.6837C61.5157 19.584 61.3837 19.54 61.2877 19.452C61.1917 19.356 61.1437 19.224 61.1437 19.056C61.1437 18.888 61.1917 18.76 61.2877 18.672C61.3837 18.584 61.5157 18.54 61.6837 18.54H68.0077C68.1837 18.54 68.3197 18.584 68.4157 18.672C68.5117 18.76 68.5597 18.888 68.5597 19.056C68.5597 19.224 68.5117 19.356 68.4157 19.452C68.3197 19.54 68.1837 19.584 68.0077 19.584H65.4637V26.448C65.4637 26.648 65.4117 26.804 65.3077 26.916C65.2117 27.028 65.0597 27.084 64.8517 27.084ZM71.1898 27.108C70.5498 27.108 69.9978 26.988 69.5338 26.748C69.0778 26.5 68.7218 26.152 68.4658 25.704C68.2178 25.248 68.0938 24.708 68.0938 24.084C68.0938 23.476 68.2178 22.944 68.4658 22.488C68.7138 22.032 69.0538 21.676 69.4858 21.42C69.9178 21.164 70.4098 21.036 70.9618 21.036C71.3698 21.036 71.7338 21.104 72.0538 21.24C72.3738 21.368 72.6458 21.56 72.8698 21.816C73.1018 22.064 73.2738 22.368 73.3858 22.728C73.5058 23.088 73.5658 23.492 73.5658 23.94C73.5658 24.076 73.5258 24.18 73.4458 24.252C73.3658 24.316 73.2458 24.348 73.0858 24.348H69.0538V23.604H72.7498L72.5458 23.772C72.5458 23.372 72.4858 23.032 72.3658 22.752C72.2538 22.472 72.0818 22.26 71.8498 22.116C71.6258 21.964 71.3458 21.888 71.0098 21.888C70.6338 21.888 70.3138 21.976 70.0498 22.152C69.7938 22.328 69.5978 22.572 69.4618 22.884C69.3258 23.196 69.2578 23.56 69.2578 23.976V24.048C69.2578 24.752 69.4218 25.284 69.7498 25.644C70.0858 25.996 70.5698 26.172 71.2018 26.172C71.4418 26.172 71.6938 26.14 71.9578 26.076C72.2298 26.012 72.4858 25.904 72.7258 25.752C72.8618 25.672 72.9818 25.636 73.0858 25.644C73.1978 25.652 73.2858 25.688 73.3498 25.752C73.4218 25.816 73.4658 25.896 73.4818 25.992C73.4978 26.088 73.4818 26.188 73.4338 26.292C73.3858 26.388 73.3018 26.476 73.1818 26.556C72.9098 26.74 72.5938 26.88 72.2338 26.976C71.8738 27.064 71.5258 27.108 71.1898 27.108ZM75.0443 27.072C74.9003 27.072 74.7803 27.032 74.6843 26.952C74.5963 26.864 74.5483 26.756 74.5403 26.628C74.5403 26.5 74.5963 26.36 74.7083 26.208L76.7363 23.676V24.276L74.8403 21.912C74.7123 21.768 74.6523 21.632 74.6603 21.504C74.6683 21.368 74.7203 21.26 74.8163 21.18C74.9123 21.1 75.0283 21.06 75.1643 21.06C75.3163 21.06 75.4403 21.088 75.5363 21.144C75.6403 21.192 75.7363 21.276 75.8243 21.396L77.4203 23.424H76.9883L78.5963 21.396C78.6843 21.276 78.7763 21.192 78.8723 21.144C78.9763 21.088 79.1003 21.06 79.2443 21.06C79.3883 21.06 79.5043 21.104 79.5923 21.192C79.6883 21.272 79.7363 21.38 79.7363 21.516C79.7443 21.644 79.6883 21.78 79.5683 21.924L77.6723 24.252V23.712L79.7003 26.208C79.8203 26.352 79.8763 26.492 79.8683 26.628C79.8683 26.756 79.8203 26.864 79.7243 26.952C79.6283 27.032 79.5083 27.072 79.3643 27.072C79.2203 27.072 79.0963 27.044 78.9923 26.988C78.8963 26.932 78.8003 26.848 78.7043 26.736L76.9883 24.576H77.3963L75.6923 26.736C75.6043 26.84 75.5083 26.924 75.4043 26.988C75.3083 27.044 75.1883 27.072 75.0443 27.072ZM83.7464 27.108C83.2664 27.108 82.8624 27.024 82.5344 26.856C82.2064 26.688 81.9624 26.44 81.8024 26.112C81.6424 25.784 81.5624 25.384 81.5624 24.912V22.08H80.8424C80.6824 22.08 80.5584 22.04 80.4704 21.96C80.3824 21.872 80.3384 21.756 80.3384 21.612C80.3384 21.46 80.3824 21.344 80.4704 21.264C80.5584 21.184 80.6824 21.144 80.8424 21.144H81.5624V19.908C81.5624 19.708 81.6144 19.556 81.7184 19.452C81.8304 19.348 81.9824 19.296 82.1744 19.296C82.3664 19.296 82.5144 19.348 82.6184 19.452C82.7224 19.556 82.7744 19.708 82.7744 19.908V21.144H84.1784C84.3384 21.144 84.4624 21.184 84.5504 21.264C84.6384 21.344 84.6824 21.46 84.6824 21.612C84.6824 21.756 84.6384 21.872 84.5504 21.96C84.4624 22.04 84.3384 22.08 84.1784 22.08H82.7744V24.816C82.7744 25.24 82.8624 25.56 83.0384 25.776C83.2224 25.992 83.5184 26.1 83.9264 26.1C84.0704 26.1 84.1944 26.088 84.2984 26.064C84.4104 26.032 84.5024 26.012 84.5744 26.004C84.6624 26.004 84.7344 26.036 84.7904 26.1C84.8464 26.156 84.8744 26.268 84.8744 26.436C84.8744 26.556 84.8504 26.668 84.8024 26.772C84.7624 26.876 84.6864 26.944 84.5744 26.976C84.4784 27.008 84.3464 27.036 84.1784 27.06C84.0184 27.092 83.8744 27.108 83.7464 27.108Z" fill="white"/>
</g>
<path d="M53 0L57.3301 7.5H48.6699L53 0Z" fill="#64728C"/>
<g filter="url(#filter1_d_1345_5031)">
<mask id="path-5-inside-2_1345_5031" fill="white">
<path d="M134 18C134 11.3726 139.373 6 146 6H219C225.627 6 231 11.3726 231 18V28C231 34.6274 225.627 40 219 40H146C139.373 40 134 34.6274 134 28V18Z"/>
</mask>
<path d="M134 18C134 11.3726 139.373 6 146 6H219C225.627 6 231 11.3726 231 18V28C231 34.6274 225.627 40 219 40H146C139.373 40 134 34.6274 134 28V18Z" fill="#64728C" shape-rendering="crispEdges"/>
<path d="M134 6H231H134ZM231 28C231 35.732 224.732 42 217 42H148C140.268 42 134 35.732 134 28C134 33.5228 139.373 38 146 38H219C225.627 38 231 33.5228 231 28ZM134 40V6V40ZM231 6V40V6Z" fill="#435069" mask="url(#path-5-inside-2_1345_5031)"/>
<path d="M153.672 27.084C153.472 27.084 153.316 27.028 153.204 26.916C153.1 26.804 153.048 26.648 153.048 26.448V19.584H150.504C150.336 19.584 150.204 19.54 150.108 19.452C150.012 19.356 149.964 19.224 149.964 19.056C149.964 18.888 150.012 18.76 150.108 18.672C150.204 18.584 150.336 18.54 150.504 18.54H156.828C157.004 18.54 157.14 18.584 157.236 18.672C157.332 18.76 157.38 18.888 157.38 19.056C157.38 19.224 157.332 19.356 157.236 19.452C157.14 19.54 157.004 19.584 156.828 19.584H154.284V26.448C154.284 26.648 154.232 26.804 154.128 26.916C154.032 27.028 153.88 27.084 153.672 27.084ZM159.806 27.108C159.214 27.108 158.702 26.984 158.27 26.736C157.846 26.488 157.514 26.136 157.274 25.68C157.034 25.224 156.914 24.688 156.914 24.072C156.914 23.6 156.982 23.18 157.118 22.812C157.254 22.444 157.446 22.128 157.694 21.864C157.95 21.592 158.254 21.388 158.606 21.252C158.966 21.108 159.366 21.036 159.806 21.036C160.39 21.036 160.894 21.16 161.318 21.408C161.75 21.656 162.086 22.008 162.326 22.464C162.566 22.912 162.686 23.448 162.686 24.072C162.686 24.536 162.618 24.956 162.482 25.332C162.346 25.708 162.15 26.028 161.894 26.292C161.646 26.556 161.342 26.76 160.982 26.904C160.63 27.04 160.238 27.108 159.806 27.108ZM159.806 26.172C160.134 26.172 160.422 26.092 160.67 25.932C160.918 25.772 161.11 25.536 161.246 25.224C161.39 24.912 161.462 24.528 161.462 24.072C161.462 23.384 161.31 22.864 161.006 22.512C160.702 22.16 160.302 21.984 159.806 21.984C159.47 21.984 159.178 22.064 158.93 22.224C158.682 22.376 158.486 22.608 158.342 22.92C158.206 23.232 158.138 23.616 158.138 24.072C158.138 24.752 158.29 25.272 158.594 25.632C158.898 25.992 159.302 26.172 159.806 26.172ZM166.591 27.108C165.999 27.108 165.487 26.984 165.055 26.736C164.631 26.488 164.299 26.136 164.059 25.68C163.819 25.224 163.699 24.688 163.699 24.072C163.699 23.6 163.767 23.18 163.903 22.812C164.039 22.444 164.231 22.128 164.479 21.864C164.735 21.592 165.039 21.388 165.391 21.252C165.751 21.108 166.151 21.036 166.591 21.036C167.175 21.036 167.679 21.16 168.103 21.408C168.535 21.656 168.871 22.008 169.111 22.464C169.351 22.912 169.471 23.448 169.471 24.072C169.471 24.536 169.403 24.956 169.267 25.332C169.131 25.708 168.935 26.028 168.679 26.292C168.431 26.556 168.127 26.76 167.767 26.904C167.415 27.04 167.023 27.108 166.591 27.108ZM166.591 26.172C166.919 26.172 167.207 26.092 167.455 25.932C167.703 25.772 167.895 25.536 168.031 25.224C168.175 24.912 168.247 24.528 168.247 24.072C168.247 23.384 168.095 22.864 167.791 22.512C167.487 22.16 167.087 21.984 166.591 21.984C166.255 21.984 165.963 22.064 165.715 22.224C165.467 22.376 165.271 22.608 165.127 22.92C164.991 23.232 164.923 23.616 164.923 24.072C164.923 24.752 165.075 25.272 165.379 25.632C165.683 25.992 166.087 26.172 166.591 26.172ZM172.716 27.108C172.092 27.108 171.62 26.928 171.3 26.568C170.988 26.2 170.832 25.672 170.832 24.984V19.068C170.832 18.868 170.884 18.716 170.988 18.612C171.092 18.508 171.24 18.456 171.432 18.456C171.624 18.456 171.772 18.508 171.876 18.612C171.988 18.716 172.044 18.868 172.044 19.068V24.912C172.044 25.312 172.124 25.612 172.284 25.812C172.452 26.004 172.692 26.1 173.004 26.1C173.076 26.1 173.14 26.1 173.196 26.1C173.252 26.092 173.308 26.084 173.364 26.076C173.46 26.068 173.528 26.096 173.568 26.16C173.608 26.216 173.628 26.336 173.628 26.52C173.628 26.688 173.592 26.82 173.52 26.916C173.448 27.004 173.332 27.06 173.172 27.084C173.1 27.092 173.024 27.096 172.944 27.096C172.864 27.104 172.788 27.108 172.716 27.108ZM176.868 27.108C176.388 27.108 175.984 27.024 175.656 26.856C175.328 26.688 175.084 26.44 174.924 26.112C174.764 25.784 174.684 25.384 174.684 24.912V22.08H173.964C173.804 22.08 173.68 22.04 173.592 21.96C173.504 21.872 173.46 21.756 173.46 21.612C173.46 21.46 173.504 21.344 173.592 21.264C173.68 21.184 173.804 21.144 173.964 21.144H174.684V19.908C174.684 19.708 174.736 19.556 174.84 19.452C174.952 19.348 175.104 19.296 175.296 19.296C175.488 19.296 175.636 19.348 175.74 19.452C175.844 19.556 175.896 19.708 175.896 19.908V21.144H177.3C177.46 21.144 177.584 21.184 177.672 21.264C177.76 21.344 177.804 21.46 177.804 21.612C177.804 21.756 177.76 21.872 177.672 21.96C177.584 22.04 177.46 22.08 177.3 22.08H175.896V24.816C175.896 25.24 175.984 25.56 176.16 25.776C176.344 25.992 176.64 26.1 177.048 26.1C177.192 26.1 177.316 26.088 177.42 26.064C177.532 26.032 177.624 26.012 177.696 26.004C177.784 26.004 177.856 26.036 177.912 26.1C177.968 26.156 177.996 26.268 177.996 26.436C177.996 26.556 177.972 26.668 177.924 26.772C177.884 26.876 177.808 26.944 177.696 26.976C177.6 27.008 177.468 27.036 177.3 27.06C177.14 27.092 176.996 27.108 176.868 27.108ZM179.46 27.072C179.268 27.072 179.12 27.016 179.016 26.904C178.912 26.784 178.86 26.62 178.86 26.412V21.732C178.86 21.524 178.912 21.364 179.016 21.252C179.12 21.14 179.268 21.084 179.46 21.084C179.652 21.084 179.8 21.14 179.904 21.252C180.016 21.364 180.072 21.524 180.072 21.732V26.412C180.072 26.62 180.02 26.784 179.916 26.904C179.812 27.016 179.66 27.072 179.46 27.072ZM179.46 19.836C179.22 19.836 179.032 19.776 178.896 19.656C178.768 19.536 178.704 19.368 178.704 19.152C178.704 18.928 178.768 18.76 178.896 18.648C179.032 18.528 179.22 18.468 179.46 18.468C179.7 18.468 179.884 18.528 180.012 18.648C180.148 18.76 180.216 18.928 180.216 19.152C180.216 19.368 180.148 19.536 180.012 19.656C179.884 19.776 179.7 19.836 179.46 19.836ZM182.378 29.244C182.186 29.244 182.038 29.192 181.934 29.088C181.83 28.984 181.778 28.832 181.778 28.632V21.672C181.778 21.472 181.83 21.32 181.934 21.216C182.038 21.112 182.182 21.06 182.366 21.06C182.558 21.06 182.706 21.112 182.81 21.216C182.914 21.32 182.966 21.472 182.966 21.672V22.716L182.834 22.464C182.962 22.032 183.214 21.688 183.59 21.432C183.966 21.168 184.41 21.036 184.922 21.036C185.442 21.036 185.894 21.16 186.278 21.408C186.67 21.656 186.97 22.004 187.178 22.452C187.394 22.9 187.502 23.44 187.502 24.072C187.502 24.688 187.394 25.228 187.178 25.692C186.97 26.148 186.674 26.5 186.29 26.748C185.906 26.988 185.45 27.108 184.922 27.108C184.418 27.108 183.978 26.98 183.602 26.724C183.226 26.468 182.974 26.128 182.846 25.704H182.99V28.632C182.99 28.832 182.934 28.984 182.822 29.088C182.718 29.192 182.57 29.244 182.378 29.244ZM184.622 26.172C184.958 26.172 185.25 26.092 185.498 25.932C185.746 25.772 185.938 25.536 186.074 25.224C186.21 24.912 186.278 24.528 186.278 24.072C186.278 23.384 186.126 22.864 185.822 22.512C185.526 22.16 185.126 21.984 184.622 21.984C184.294 21.984 184.002 22.064 183.746 22.224C183.498 22.376 183.306 22.608 183.17 22.92C183.034 23.232 182.966 23.616 182.966 24.072C182.966 24.752 183.118 25.272 183.422 25.632C183.726 25.992 184.126 26.172 184.622 26.172ZM194.852 27.084C194.652 27.084 194.496 27.028 194.384 26.916C194.28 26.804 194.228 26.648 194.228 26.448V19.584H191.684C191.516 19.584 191.384 19.54 191.288 19.452C191.192 19.356 191.144 19.224 191.144 19.056C191.144 18.888 191.192 18.76 191.288 18.672C191.384 18.584 191.516 18.54 191.684 18.54H198.008C198.184 18.54 198.32 18.584 198.416 18.672C198.512 18.76 198.56 18.888 198.56 19.056C198.56 19.224 198.512 19.356 198.416 19.452C198.32 19.54 198.184 19.584 198.008 19.584H195.464V26.448C195.464 26.648 195.412 26.804 195.308 26.916C195.212 27.028 195.06 27.084 194.852 27.084ZM201.19 27.108C200.55 27.108 199.998 26.988 199.534 26.748C199.078 26.5 198.722 26.152 198.466 25.704C198.218 25.248 198.094 24.708 198.094 24.084C198.094 23.476 198.218 22.944 198.466 22.488C198.714 22.032 199.054 21.676 199.486 21.42C199.918 21.164 200.41 21.036 200.962 21.036C201.37 21.036 201.734 21.104 202.054 21.24C202.374 21.368 202.646 21.56 202.87 21.816C203.102 22.064 203.274 22.368 203.386 22.728C203.506 23.088 203.566 23.492 203.566 23.94C203.566 24.076 203.526 24.18 203.446 24.252C203.366 24.316 203.246 24.348 203.086 24.348H199.054V23.604H202.75L202.546 23.772C202.546 23.372 202.486 23.032 202.366 22.752C202.254 22.472 202.082 22.26 201.85 22.116C201.626 21.964 201.346 21.888 201.01 21.888C200.634 21.888 200.314 21.976 200.05 22.152C199.794 22.328 199.598 22.572 199.462 22.884C199.326 23.196 199.258 23.56 199.258 23.976V24.048C199.258 24.752 199.422 25.284 199.75 25.644C200.086 25.996 200.57 26.172 201.202 26.172C201.442 26.172 201.694 26.14 201.958 26.076C202.23 26.012 202.486 25.904 202.726 25.752C202.862 25.672 202.982 25.636 203.086 25.644C203.198 25.652 203.286 25.688 203.35 25.752C203.422 25.816 203.466 25.896 203.482 25.992C203.498 26.088 203.482 26.188 203.434 26.292C203.386 26.388 203.302 26.476 203.182 26.556C202.91 26.74 202.594 26.88 202.234 26.976C201.874 27.064 201.526 27.108 201.19 27.108ZM205.044 27.072C204.9 27.072 204.78 27.032 204.684 26.952C204.596 26.864 204.548 26.756 204.54 26.628C204.54 26.5 204.596 26.36 204.708 26.208L206.736 23.676V24.276L204.84 21.912C204.712 21.768 204.652 21.632 204.66 21.504C204.668 21.368 204.72 21.26 204.816 21.18C204.912 21.1 205.028 21.06 205.164 21.06C205.316 21.06 205.44 21.088 205.536 21.144C205.64 21.192 205.736 21.276 205.824 21.396L207.42 23.424H206.988L208.596 21.396C208.684 21.276 208.776 21.192 208.872 21.144C208.976 21.088 209.1 21.06 209.244 21.06C209.388 21.06 209.504 21.104 209.592 21.192C209.688 21.272 209.736 21.38 209.736 21.516C209.744 21.644 209.688 21.78 209.568 21.924L207.672 24.252V23.712L209.7 26.208C209.82 26.352 209.876 26.492 209.868 26.628C209.868 26.756 209.82 26.864 209.724 26.952C209.628 27.032 209.508 27.072 209.364 27.072C209.22 27.072 209.096 27.044 208.992 26.988C208.896 26.932 208.8 26.848 208.704 26.736L206.988 24.576H207.396L205.692 26.736C205.604 26.84 205.508 26.924 205.404 26.988C205.308 27.044 205.188 27.072 205.044 27.072ZM213.746 27.108C213.266 27.108 212.862 27.024 212.534 26.856C212.206 26.688 211.962 26.44 211.802 26.112C211.642 25.784 211.562 25.384 211.562 24.912V22.08H210.842C210.682 22.08 210.558 22.04 210.47 21.96C210.382 21.872 210.338 21.756 210.338 21.612C210.338 21.46 210.382 21.344 210.47 21.264C210.558 21.184 210.682 21.144 210.842 21.144H211.562V19.908C211.562 19.708 211.614 19.556 211.718 19.452C211.83 19.348 211.982 19.296 212.174 19.296C212.366 19.296 212.514 19.348 212.618 19.452C212.722 19.556 212.774 19.708 212.774 19.908V21.144H214.178C214.338 21.144 214.462 21.184 214.55 21.264C214.638 21.344 214.682 21.46 214.682 21.612C214.682 21.756 214.638 21.872 214.55 21.96C214.462 22.04 214.338 22.08 214.178 22.08H212.774V24.816C212.774 25.24 212.862 25.56 213.038 25.776C213.222 25.992 213.518 26.1 213.926 26.1C214.07 26.1 214.194 26.088 214.298 26.064C214.41 26.032 214.502 26.012 214.574 26.004C214.662 26.004 214.734 26.036 214.79 26.1C214.846 26.156 214.874 26.268 214.874 26.436C214.874 26.556 214.85 26.668 214.802 26.772C214.762 26.876 214.686 26.944 214.574 26.976C214.478 27.008 214.346 27.036 214.178 27.06C214.018 27.092 213.874 27.108 213.746 27.108Z" fill="white"/>
</g>
<path d="M182 45L177.67 37.5L186.33 37.5L182 45Z" fill="#64728C"/>
<g filter="url(#filter2_d_1345_5031)">
<mask id="path-9-inside-3_1345_5031" fill="white">
<path d="M134 81C134 74.3726 139.373 69 146 69H219C225.627 69 231 74.3726 231 81V91C231 97.6274 225.627 103 219 103H146C139.373 103 134 97.6274 134 91V81Z"/>
</mask>
<path d="M134 81C134 74.3726 139.373 69 146 69H219C225.627 69 231 74.3726 231 81V91C231 97.6274 225.627 103 219 103H146C139.373 103 134 97.6274 134 91V81Z" fill="#64728C" shape-rendering="crispEdges"/>
<path d="M134 69H231H134ZM231 91C231 98.732 224.732 105 217 105H148C140.268 105 134 98.732 134 91C134 96.5228 139.373 101 146 101H219C225.627 101 231 96.5228 231 91ZM134 103V69V103ZM231 69V103V69Z" fill="#435069" mask="url(#path-9-inside-3_1345_5031)"/>
<path d="M153.672 90.084C153.472 90.084 153.316 90.028 153.204 89.916C153.1 89.804 153.048 89.648 153.048 89.448V82.584H150.504C150.336 82.584 150.204 82.54 150.108 82.452C150.012 82.356 149.964 82.224 149.964 82.056C149.964 81.888 150.012 81.76 150.108 81.672C150.204 81.584 150.336 81.54 150.504 81.54H156.828C157.004 81.54 157.14 81.584 157.236 81.672C157.332 81.76 157.38 81.888 157.38 82.056C157.38 82.224 157.332 82.356 157.236 82.452C157.14 82.54 157.004 82.584 156.828 82.584H154.284V89.448C154.284 89.648 154.232 89.804 154.128 89.916C154.032 90.028 153.88 90.084 153.672 90.084ZM159.806 90.108C159.214 90.108 158.702 89.984 158.27 89.736C157.846 89.488 157.514 89.136 157.274 88.68C157.034 88.224 156.914 87.688 156.914 87.072C156.914 86.6 156.982 86.18 157.118 85.812C157.254 85.444 157.446 85.128 157.694 84.864C157.95 84.592 158.254 84.388 158.606 84.252C158.966 84.108 159.366 84.036 159.806 84.036C160.39 84.036 160.894 84.16 161.318 84.408C161.75 84.656 162.086 85.008 162.326 85.464C162.566 85.912 162.686 86.448 162.686 87.072C162.686 87.536 162.618 87.956 162.482 88.332C162.346 88.708 162.15 89.028 161.894 89.292C161.646 89.556 161.342 89.76 160.982 89.904C160.63 90.04 160.238 90.108 159.806 90.108ZM159.806 89.172C160.134 89.172 160.422 89.092 160.67 88.932C160.918 88.772 161.11 88.536 161.246 88.224C161.39 87.912 161.462 87.528 161.462 87.072C161.462 86.384 161.31 85.864 161.006 85.512C160.702 85.16 160.302 84.984 159.806 84.984C159.47 84.984 159.178 85.064 158.93 85.224C158.682 85.376 158.486 85.608 158.342 85.92C158.206 86.232 158.138 86.616 158.138 87.072C158.138 87.752 158.29 88.272 158.594 88.632C158.898 88.992 159.302 89.172 159.806 89.172ZM166.591 90.108C165.999 90.108 165.487 89.984 165.055 89.736C164.631 89.488 164.299 89.136 164.059 88.68C163.819 88.224 163.699 87.688 163.699 87.072C163.699 86.6 163.767 86.18 163.903 85.812C164.039 85.444 164.231 85.128 164.479 84.864C164.735 84.592 165.039 84.388 165.391 84.252C165.751 84.108 166.151 84.036 166.591 84.036C167.175 84.036 167.679 84.16 168.103 84.408C168.535 84.656 168.871 85.008 169.111 85.464C169.351 85.912 169.471 86.448 169.471 87.072C169.471 87.536 169.403 87.956 169.267 88.332C169.131 88.708 168.935 89.028 168.679 89.292C168.431 89.556 168.127 89.76 167.767 89.904C167.415 90.04 167.023 90.108 166.591 90.108ZM166.591 89.172C166.919 89.172 167.207 89.092 167.455 88.932C167.703 88.772 167.895 88.536 168.031 88.224C168.175 87.912 168.247 87.528 168.247 87.072C168.247 86.384 168.095 85.864 167.791 85.512C167.487 85.16 167.087 84.984 166.591 84.984C166.255 84.984 165.963 85.064 165.715 85.224C165.467 85.376 165.271 85.608 165.127 85.92C164.991 86.232 164.923 86.616 164.923 87.072C164.923 87.752 165.075 88.272 165.379 88.632C165.683 88.992 166.087 89.172 166.591 89.172ZM172.716 90.108C172.092 90.108 171.62 89.928 171.3 89.568C170.988 89.2 170.832 88.672 170.832 87.984V82.068C170.832 81.868 170.884 81.716 170.988 81.612C171.092 81.508 171.24 81.456 171.432 81.456C171.624 81.456 171.772 81.508 171.876 81.612C171.988 81.716 172.044 81.868 172.044 82.068V87.912C172.044 88.312 172.124 88.612 172.284 88.812C172.452 89.004 172.692 89.1 173.004 89.1C173.076 89.1 173.14 89.1 173.196 89.1C173.252 89.092 173.308 89.084 173.364 89.076C173.46 89.068 173.528 89.096 173.568 89.16C173.608 89.216 173.628 89.336 173.628 89.52C173.628 89.688 173.592 89.82 173.52 89.916C173.448 90.004 173.332 90.06 173.172 90.084C173.1 90.092 173.024 90.096 172.944 90.096C172.864 90.104 172.788 90.108 172.716 90.108ZM176.868 90.108C176.388 90.108 175.984 90.024 175.656 89.856C175.328 89.688 175.084 89.44 174.924 89.112C174.764 88.784 174.684 88.384 174.684 87.912V85.08H173.964C173.804 85.08 173.68 85.04 173.592 84.96C173.504 84.872 173.46 84.756 173.46 84.612C173.46 84.46 173.504 84.344 173.592 84.264C173.68 84.184 173.804 84.144 173.964 84.144H174.684V82.908C174.684 82.708 174.736 82.556 174.84 82.452C174.952 82.348 175.104 82.296 175.296 82.296C175.488 82.296 175.636 82.348 175.74 82.452C175.844 82.556 175.896 82.708 175.896 82.908V84.144H177.3C177.46 84.144 177.584 84.184 177.672 84.264C177.76 84.344 177.804 84.46 177.804 84.612C177.804 84.756 177.76 84.872 177.672 84.96C177.584 85.04 177.46 85.08 177.3 85.08H175.896V87.816C175.896 88.24 175.984 88.56 176.16 88.776C176.344 88.992 176.64 89.1 177.048 89.1C177.192 89.1 177.316 89.088 177.42 89.064C177.532 89.032 177.624 89.012 177.696 89.004C177.784 89.004 177.856 89.036 177.912 89.1C177.968 89.156 177.996 89.268 177.996 89.436C177.996 89.556 177.972 89.668 177.924 89.772C177.884 89.876 177.808 89.944 177.696 89.976C177.6 90.008 177.468 90.036 177.3 90.06C177.14 90.092 176.996 90.108 176.868 90.108ZM179.46 90.072C179.268 90.072 179.12 90.016 179.016 89.904C178.912 89.784 178.86 89.62 178.86 89.412V84.732C178.86 84.524 178.912 84.364 179.016 84.252C179.12 84.14 179.268 84.084 179.46 84.084C179.652 84.084 179.8 84.14 179.904 84.252C180.016 84.364 180.072 84.524 180.072 84.732V89.412C180.072 89.62 180.02 89.784 179.916 89.904C179.812 90.016 179.66 90.072 179.46 90.072ZM179.46 82.836C179.22 82.836 179.032 82.776 178.896 82.656C178.768 82.536 178.704 82.368 178.704 82.152C178.704 81.928 178.768 81.76 178.896 81.648C179.032 81.528 179.22 81.468 179.46 81.468C179.7 81.468 179.884 81.528 180.012 81.648C180.148 81.76 180.216 81.928 180.216 82.152C180.216 82.368 180.148 82.536 180.012 82.656C179.884 82.776 179.7 82.836 179.46 82.836ZM182.378 92.244C182.186 92.244 182.038 92.192 181.934 92.088C181.83 91.984 181.778 91.832 181.778 91.632V84.672C181.778 84.472 181.83 84.32 181.934 84.216C182.038 84.112 182.182 84.06 182.366 84.06C182.558 84.06 182.706 84.112 182.81 84.216C182.914 84.32 182.966 84.472 182.966 84.672V85.716L182.834 85.464C182.962 85.032 183.214 84.688 183.59 84.432C183.966 84.168 184.41 84.036 184.922 84.036C185.442 84.036 185.894 84.16 186.278 84.408C186.67 84.656 186.97 85.004 187.178 85.452C187.394 85.9 187.502 86.44 187.502 87.072C187.502 87.688 187.394 88.228 187.178 88.692C186.97 89.148 186.674 89.5 186.29 89.748C185.906 89.988 185.45 90.108 184.922 90.108C184.418 90.108 183.978 89.98 183.602 89.724C183.226 89.468 182.974 89.128 182.846 88.704H182.99V91.632C182.99 91.832 182.934 91.984 182.822 92.088C182.718 92.192 182.57 92.244 182.378 92.244ZM184.622 89.172C184.958 89.172 185.25 89.092 185.498 88.932C185.746 88.772 185.938 88.536 186.074 88.224C186.21 87.912 186.278 87.528 186.278 87.072C186.278 86.384 186.126 85.864 185.822 85.512C185.526 85.16 185.126 84.984 184.622 84.984C184.294 84.984 184.002 85.064 183.746 85.224C183.498 85.376 183.306 85.608 183.17 85.92C183.034 86.232 182.966 86.616 182.966 87.072C182.966 87.752 183.118 88.272 183.422 88.632C183.726 88.992 184.126 89.172 184.622 89.172ZM194.852 90.084C194.652 90.084 194.496 90.028 194.384 89.916C194.28 89.804 194.228 89.648 194.228 89.448V82.584H191.684C191.516 82.584 191.384 82.54 191.288 82.452C191.192 82.356 191.144 82.224 191.144 82.056C191.144 81.888 191.192 81.76 191.288 81.672C191.384 81.584 191.516 81.54 191.684 81.54H198.008C198.184 81.54 198.32 81.584 198.416 81.672C198.512 81.76 198.56 81.888 198.56 82.056C198.56 82.224 198.512 82.356 198.416 82.452C198.32 82.54 198.184 82.584 198.008 82.584H195.464V89.448C195.464 89.648 195.412 89.804 195.308 89.916C195.212 90.028 195.06 90.084 194.852 90.084ZM201.19 90.108C200.55 90.108 199.998 89.988 199.534 89.748C199.078 89.5 198.722 89.152 198.466 88.704C198.218 88.248 198.094 87.708 198.094 87.084C198.094 86.476 198.218 85.944 198.466 85.488C198.714 85.032 199.054 84.676 199.486 84.42C199.918 84.164 200.41 84.036 200.962 84.036C201.37 84.036 201.734 84.104 202.054 84.24C202.374 84.368 202.646 84.56 202.87 84.816C203.102 85.064 203.274 85.368 203.386 85.728C203.506 86.088 203.566 86.492 203.566 86.94C203.566 87.076 203.526 87.18 203.446 87.252C203.366 87.316 203.246 87.348 203.086 87.348H199.054V86.604H202.75L202.546 86.772C202.546 86.372 202.486 86.032 202.366 85.752C202.254 85.472 202.082 85.26 201.85 85.116C201.626 84.964 201.346 84.888 201.01 84.888C200.634 84.888 200.314 84.976 200.05 85.152C199.794 85.328 199.598 85.572 199.462 85.884C199.326 86.196 199.258 86.56 199.258 86.976V87.048C199.258 87.752 199.422 88.284 199.75 88.644C200.086 88.996 200.57 89.172 201.202 89.172C201.442 89.172 201.694 89.14 201.958 89.076C202.23 89.012 202.486 88.904 202.726 88.752C202.862 88.672 202.982 88.636 203.086 88.644C203.198 88.652 203.286 88.688 203.35 88.752C203.422 88.816 203.466 88.896 203.482 88.992C203.498 89.088 203.482 89.188 203.434 89.292C203.386 89.388 203.302 89.476 203.182 89.556C202.91 89.74 202.594 89.88 202.234 89.976C201.874 90.064 201.526 90.108 201.19 90.108ZM205.044 90.072C204.9 90.072 204.78 90.032 204.684 89.952C204.596 89.864 204.548 89.756 204.54 89.628C204.54 89.5 204.596 89.36 204.708 89.208L206.736 86.676V87.276L204.84 84.912C204.712 84.768 204.652 84.632 204.66 84.504C204.668 84.368 204.72 84.26 204.816 84.18C204.912 84.1 205.028 84.06 205.164 84.06C205.316 84.06 205.44 84.088 205.536 84.144C205.64 84.192 205.736 84.276 205.824 84.396L207.42 86.424H206.988L208.596 84.396C208.684 84.276 208.776 84.192 208.872 84.144C208.976 84.088 209.1 84.06 209.244 84.06C209.388 84.06 209.504 84.104 209.592 84.192C209.688 84.272 209.736 84.38 209.736 84.516C209.744 84.644 209.688 84.78 209.568 84.924L207.672 87.252V86.712L209.7 89.208C209.82 89.352 209.876 89.492 209.868 89.628C209.868 89.756 209.82 89.864 209.724 89.952C209.628 90.032 209.508 90.072 209.364 90.072C209.22 90.072 209.096 90.044 208.992 89.988C208.896 89.932 208.8 89.848 208.704 89.736L206.988 87.576H207.396L205.692 89.736C205.604 89.84 205.508 89.924 205.404 89.988C205.308 90.044 205.188 90.072 205.044 90.072ZM213.746 90.108C213.266 90.108 212.862 90.024 212.534 89.856C212.206 89.688 211.962 89.44 211.802 89.112C211.642 88.784 211.562 88.384 211.562 87.912V85.08H210.842C210.682 85.08 210.558 85.04 210.47 84.96C210.382 84.872 210.338 84.756 210.338 84.612C210.338 84.46 210.382 84.344 210.47 84.264C210.558 84.184 210.682 84.144 210.842 84.144H211.562V82.908C211.562 82.708 211.614 82.556 211.718 82.452C211.83 82.348 211.982 82.296 212.174 82.296C212.366 82.296 212.514 82.348 212.618 82.452C212.722 82.556 212.774 82.708 212.774 82.908V84.144H214.178C214.338 84.144 214.462 84.184 214.55 84.264C214.638 84.344 214.682 84.46 214.682 84.612C214.682 84.756 214.638 84.872 214.55 84.96C214.462 85.04 214.338 85.08 214.178 85.08H212.774V87.816C212.774 88.24 212.862 88.56 213.038 88.776C213.222 88.992 213.518 89.1 213.926 89.1C214.07 89.1 214.194 89.088 214.298 89.064C214.41 89.032 214.502 89.012 214.574 89.004C214.662 89.004 214.734 89.036 214.79 89.1C214.846 89.156 214.874 89.268 214.874 89.436C214.874 89.556 214.85 89.668 214.802 89.772C214.762 89.876 214.686 89.944 214.574 89.976C214.478 90.008 214.346 90.036 214.178 90.06C214.018 90.092 213.874 90.108 213.746 90.108Z" fill="white"/>
</g>
<path d="M128 86L135.5 81.6699L135.5 90.3301L128 86Z" fill="#64728C"/>
<g filter="url(#filter3_d_1345_5031)">
<mask id="path-13-inside-4_1345_5031" fill="white">
<path d="M4 81C4 74.3726 9.37258 69 16 69H89C95.6274 69 101 74.3726 101 81V91C101 97.6274 95.6274 103 89 103H16C9.37258 103 4 97.6274 4 91V81Z"/>
</mask>
<path d="M4 81C4 74.3726 9.37258 69 16 69H89C95.6274 69 101 74.3726 101 81V91C101 97.6274 95.6274 103 89 103H16C9.37258 103 4 97.6274 4 91V81Z" fill="#64728C" shape-rendering="crispEdges"/>
<path d="M4 69H101H4ZM101 91C101 98.732 94.732 105 87 105H18C10.268 105 4 98.732 4 91C4 96.5228 9.37258 101 16 101H89C95.6274 101 101 96.5228 101 91ZM4 103V69V103ZM101 69V103V69Z" fill="#435069" mask="url(#path-13-inside-4_1345_5031)"/>
<path d="M23.672 90.084C23.472 90.084 23.316 90.028 23.204 89.916C23.1 89.804 23.048 89.648 23.048 89.448V82.584H20.504C20.336 82.584 20.204 82.54 20.108 82.452C20.012 82.356 19.964 82.224 19.964 82.056C19.964 81.888 20.012 81.76 20.108 81.672C20.204 81.584 20.336 81.54 20.504 81.54H26.828C27.004 81.54 27.14 81.584 27.236 81.672C27.332 81.76 27.38 81.888 27.38 82.056C27.38 82.224 27.332 82.356 27.236 82.452C27.14 82.54 27.004 82.584 26.828 82.584H24.284V89.448C24.284 89.648 24.232 89.804 24.128 89.916C24.032 90.028 23.88 90.084 23.672 90.084ZM29.8062 90.108C29.2142 90.108 28.7022 89.984 28.2702 89.736C27.8462 89.488 27.5142 89.136 27.2742 88.68C27.0342 88.224 26.9142 87.688 26.9142 87.072C26.9142 86.6 26.9822 86.18 27.1182 85.812C27.2542 85.444 27.4462 85.128 27.6942 84.864C27.9502 84.592 28.2542 84.388 28.6062 84.252C28.9662 84.108 29.3662 84.036 29.8062 84.036C30.3902 84.036 30.8942 84.16 31.3182 84.408C31.7502 84.656 32.0862 85.008 32.3262 85.464C32.5662 85.912 32.6862 86.448 32.6862 87.072C32.6862 87.536 32.6182 87.956 32.4822 88.332C32.3462 88.708 32.1502 89.028 31.8942 89.292C31.6462 89.556 31.3422 89.76 30.9822 89.904C30.6302 90.04 30.2382 90.108 29.8062 90.108ZM29.8062 89.172C30.1342 89.172 30.4222 89.092 30.6702 88.932C30.9182 88.772 31.1102 88.536 31.2462 88.224C31.3902 87.912 31.4622 87.528 31.4622 87.072C31.4622 86.384 31.3102 85.864 31.0062 85.512C30.7022 85.16 30.3022 84.984 29.8062 84.984C29.4702 84.984 29.1782 85.064 28.9302 85.224C28.6822 85.376 28.4862 85.608 28.3422 85.92C28.2062 86.232 28.1382 86.616 28.1382 87.072C28.1382 87.752 28.2902 88.272 28.5942 88.632C28.8982 88.992 29.3022 89.172 29.8062 89.172ZM36.5913 90.108C35.9993 90.108 35.4873 89.984 35.0553 89.736C34.6313 89.488 34.2993 89.136 34.0593 88.68C33.8193 88.224 33.6993 87.688 33.6993 87.072C33.6993 86.6 33.7673 86.18 33.9033 85.812C34.0393 85.444 34.2313 85.128 34.4793 84.864C34.7353 84.592 35.0393 84.388 35.3913 84.252C35.7513 84.108 36.1513 84.036 36.5913 84.036C37.1753 84.036 37.6793 84.16 38.1033 84.408C38.5353 84.656 38.8713 85.008 39.1113 85.464C39.3513 85.912 39.4713 86.448 39.4713 87.072C39.4713 87.536 39.4033 87.956 39.2673 88.332C39.1313 88.708 38.9353 89.028 38.6793 89.292C38.4313 89.556 38.1273 89.76 37.7673 89.904C37.4153 90.04 37.0233 90.108 36.5913 90.108ZM36.5913 89.172C36.9193 89.172 37.2073 89.092 37.4553 88.932C37.7033 88.772 37.8953 88.536 38.0313 88.224C38.1753 87.912 38.2473 87.528 38.2473 87.072C38.2473 86.384 38.0953 85.864 37.7913 85.512C37.4873 85.16 37.0873 84.984 36.5913 84.984C36.2553 84.984 35.9633 85.064 35.7153 85.224C35.4673 85.376 35.2713 85.608 35.1273 85.92C34.9913 86.232 34.9233 86.616 34.9233 87.072C34.9233 87.752 35.0753 88.272 35.3793 88.632C35.6833 88.992 36.0873 89.172 36.5913 89.172ZM42.7165 90.108C42.0925 90.108 41.6205 89.928 41.3005 89.568C40.9885 89.2 40.8325 88.672 40.8325 87.984V82.068C40.8325 81.868 40.8845 81.716 40.9885 81.612C41.0925 81.508 41.2405 81.456 41.4325 81.456C41.6245 81.456 41.7725 81.508 41.8765 81.612C41.9885 81.716 42.0445 81.868 42.0445 82.068V87.912C42.0445 88.312 42.1245 88.612 42.2845 88.812C42.4525 89.004 42.6925 89.1 43.0045 89.1C43.0765 89.1 43.1405 89.1 43.1965 89.1C43.2525 89.092 43.3085 89.084 43.3645 89.076C43.4605 89.068 43.5285 89.096 43.5685 89.16C43.6085 89.216 43.6285 89.336 43.6285 89.52C43.6285 89.688 43.5925 89.82 43.5205 89.916C43.4485 90.004 43.3325 90.06 43.1725 90.084C43.1005 90.092 43.0245 90.096 42.9445 90.096C42.8645 90.104 42.7885 90.108 42.7165 90.108ZM46.8675 90.108C46.3875 90.108 45.9835 90.024 45.6555 89.856C45.3275 89.688 45.0835 89.44 44.9235 89.112C44.7635 88.784 44.6835 88.384 44.6835 87.912V85.08H43.9635C43.8035 85.08 43.6795 85.04 43.5915 84.96C43.5035 84.872 43.4595 84.756 43.4595 84.612C43.4595 84.46 43.5035 84.344 43.5915 84.264C43.6795 84.184 43.8035 84.144 43.9635 84.144H44.6835V82.908C44.6835 82.708 44.7355 82.556 44.8395 82.452C44.9515 82.348 45.1035 82.296 45.2955 82.296C45.4875 82.296 45.6355 82.348 45.7395 82.452C45.8435 82.556 45.8955 82.708 45.8955 82.908V84.144H47.2995C47.4595 84.144 47.5835 84.184 47.6715 84.264C47.7595 84.344 47.8035 84.46 47.8035 84.612C47.8035 84.756 47.7595 84.872 47.6715 84.96C47.5835 85.04 47.4595 85.08 47.2995 85.08H45.8955V87.816C45.8955 88.24 45.9835 88.56 46.1595 88.776C46.3435 88.992 46.6395 89.1 47.0475 89.1C47.1915 89.1 47.3155 89.088 47.4195 89.064C47.5315 89.032 47.6235 89.012 47.6955 89.004C47.7835 89.004 47.8555 89.036 47.9115 89.1C47.9675 89.156 47.9955 89.268 47.9955 89.436C47.9955 89.556 47.9715 89.668 47.9235 89.772C47.8835 89.876 47.8075 89.944 47.6955 89.976C47.5995 90.008 47.4675 90.036 47.2995 90.06C47.1395 90.092 46.9955 90.108 46.8675 90.108ZM49.4598 90.072C49.2678 90.072 49.1198 90.016 49.0158 89.904C48.9118 89.784 48.8598 89.62 48.8598 89.412V84.732C48.8598 84.524 48.9118 84.364 49.0158 84.252C49.1198 84.14 49.2678 84.084 49.4598 84.084C49.6518 84.084 49.7998 84.14 49.9038 84.252C50.0158 84.364 50.0718 84.524 50.0718 84.732V89.412C50.0718 89.62 50.0198 89.784 49.9158 89.904C49.8118 90.016 49.6598 90.072 49.4598 90.072ZM49.4598 82.836C49.2198 82.836 49.0318 82.776 48.8958 82.656C48.7678 82.536 48.7038 82.368 48.7038 82.152C48.7038 81.928 48.7678 81.76 48.8958 81.648C49.0318 81.528 49.2198 81.468 49.4598 81.468C49.6998 81.468 49.8838 81.528 50.0118 81.648C50.1478 81.76 50.2158 81.928 50.2158 82.152C50.2158 82.368 50.1478 82.536 50.0118 82.656C49.8838 82.776 49.6998 82.836 49.4598 82.836ZM52.3778 92.244C52.1858 92.244 52.0378 92.192 51.9338 92.088C51.8298 91.984 51.7778 91.832 51.7778 91.632V84.672C51.7778 84.472 51.8298 84.32 51.9338 84.216C52.0378 84.112 52.1818 84.06 52.3658 84.06C52.5578 84.06 52.7058 84.112 52.8098 84.216C52.9138 84.32 52.9658 84.472 52.9658 84.672V85.716L52.8338 85.464C52.9618 85.032 53.2138 84.688 53.5898 84.432C53.9658 84.168 54.4098 84.036 54.9218 84.036C55.4418 84.036 55.8938 84.16 56.2778 84.408C56.6698 84.656 56.9698 85.004 57.1778 85.452C57.3938 85.9 57.5018 86.44 57.5018 87.072C57.5018 87.688 57.3938 88.228 57.1778 88.692C56.9698 89.148 56.6738 89.5 56.2898 89.748C55.9058 89.988 55.4498 90.108 54.9218 90.108C54.4178 90.108 53.9778 89.98 53.6018 89.724C53.2258 89.468 52.9738 89.128 52.8458 88.704H52.9898V91.632C52.9898 91.832 52.9338 91.984 52.8218 92.088C52.7178 92.192 52.5698 92.244 52.3778 92.244ZM54.6218 89.172C54.9578 89.172 55.2498 89.092 55.4978 88.932C55.7458 88.772 55.9378 88.536 56.0738 88.224C56.2098 87.912 56.2778 87.528 56.2778 87.072C56.2778 86.384 56.1258 85.864 55.8218 85.512C55.5258 85.16 55.1258 84.984 54.6218 84.984C54.2938 84.984 54.0018 85.064 53.7458 85.224C53.4978 85.376 53.3058 85.608 53.1698 85.92C53.0338 86.232 52.9658 86.616 52.9658 87.072C52.9658 87.752 53.1178 88.272 53.4218 88.632C53.7258 88.992 54.1258 89.172 54.6218 89.172ZM64.8517 90.084C64.6517 90.084 64.4957 90.028 64.3837 89.916C64.2797 89.804 64.2277 89.648 64.2277 89.448V82.584H61.6837C61.5157 82.584 61.3837 82.54 61.2877 82.452C61.1917 82.356 61.1437 82.224 61.1437 82.056C61.1437 81.888 61.1917 81.76 61.2877 81.672C61.3837 81.584 61.5157 81.54 61.6837 81.54H68.0077C68.1837 81.54 68.3197 81.584 68.4157 81.672C68.5117 81.76 68.5597 81.888 68.5597 82.056C68.5597 82.224 68.5117 82.356 68.4157 82.452C68.3197 82.54 68.1837 82.584 68.0077 82.584H65.4637V89.448C65.4637 89.648 65.4117 89.804 65.3077 89.916C65.2117 90.028 65.0597 90.084 64.8517 90.084ZM71.1898 90.108C70.5498 90.108 69.9978 89.988 69.5338 89.748C69.0778 89.5 68.7218 89.152 68.4658 88.704C68.2178 88.248 68.0938 87.708 68.0938 87.084C68.0938 86.476 68.2178 85.944 68.4658 85.488C68.7138 85.032 69.0538 84.676 69.4858 84.42C69.9178 84.164 70.4098 84.036 70.9618 84.036C71.3698 84.036 71.7338 84.104 72.0538 84.24C72.3738 84.368 72.6458 84.56 72.8698 84.816C73.1018 85.064 73.2738 85.368 73.3858 85.728C73.5058 86.088 73.5658 86.492 73.5658 86.94C73.5658 87.076 73.5258 87.18 73.4458 87.252C73.3658 87.316 73.2458 87.348 73.0858 87.348H69.0538V86.604H72.7498L72.5458 86.772C72.5458 86.372 72.4858 86.032 72.3658 85.752C72.2538 85.472 72.0818 85.26 71.8498 85.116C71.6258 84.964 71.3458 84.888 71.0098 84.888C70.6338 84.888 70.3138 84.976 70.0498 85.152C69.7938 85.328 69.5978 85.572 69.4618 85.884C69.3258 86.196 69.2578 86.56 69.2578 86.976V87.048C69.2578 87.752 69.4218 88.284 69.7498 88.644C70.0858 88.996 70.5698 89.172 71.2018 89.172C71.4418 89.172 71.6938 89.14 71.9578 89.076C72.2298 89.012 72.4858 88.904 72.7258 88.752C72.8618 88.672 72.9818 88.636 73.0858 88.644C73.1978 88.652 73.2858 88.688 73.3498 88.752C73.4218 88.816 73.4658 88.896 73.4818 88.992C73.4978 89.088 73.4818 89.188 73.4338 89.292C73.3858 89.388 73.3018 89.476 73.1818 89.556C72.9098 89.74 72.5938 89.88 72.2338 89.976C71.8738 90.064 71.5258 90.108 71.1898 90.108ZM75.0443 90.072C74.9003 90.072 74.7803 90.032 74.6843 89.952C74.5963 89.864 74.5483 89.756 74.5403 89.628C74.5403 89.5 74.5963 89.36 74.7083 89.208L76.7363 86.676V87.276L74.8403 84.912C74.7123 84.768 74.6523 84.632 74.6603 84.504C74.6683 84.368 74.7203 84.26 74.8163 84.18C74.9123 84.1 75.0283 84.06 75.1643 84.06C75.3163 84.06 75.4403 84.088 75.5363 84.144C75.6403 84.192 75.7363 84.276 75.8243 84.396L77.4203 86.424H76.9883L78.5963 84.396C78.6843 84.276 78.7763 84.192 78.8723 84.144C78.9763 84.088 79.1003 84.06 79.2443 84.06C79.3883 84.06 79.5043 84.104 79.5923 84.192C79.6883 84.272 79.7363 84.38 79.7363 84.516C79.7443 84.644 79.6883 84.78 79.5683 84.924L77.6723 87.252V86.712L79.7003 89.208C79.8203 89.352 79.8763 89.492 79.8683 89.628C79.8683 89.756 79.8203 89.864 79.7243 89.952C79.6283 90.032 79.5083 90.072 79.3643 90.072C79.2203 90.072 79.0963 90.044 78.9923 89.988C78.8963 89.932 78.8003 89.848 78.7043 89.736L76.9883 87.576H77.3963L75.6923 89.736C75.6043 89.84 75.5083 89.924 75.4043 89.988C75.3083 90.044 75.1883 90.072 75.0443 90.072ZM83.7464 90.108C83.2664 90.108 82.8624 90.024 82.5344 89.856C82.2064 89.688 81.9624 89.44 81.8024 89.112C81.6424 88.784 81.5624 88.384 81.5624 87.912V85.08H80.8424C80.6824 85.08 80.5584 85.04 80.4704 84.96C80.3824 84.872 80.3384 84.756 80.3384 84.612C80.3384 84.46 80.3824 84.344 80.4704 84.264C80.5584 84.184 80.6824 84.144 80.8424 84.144H81.5624V82.908C81.5624 82.708 81.6144 82.556 81.7184 82.452C81.8304 82.348 81.9824 82.296 82.1744 82.296C82.3664 82.296 82.5144 82.348 82.6184 82.452C82.7224 82.556 82.7744 82.708 82.7744 82.908V84.144H84.1784C84.3384 84.144 84.4624 84.184 84.5504 84.264C84.6384 84.344 84.6824 84.46 84.6824 84.612C84.6824 84.756 84.6384 84.872 84.5504 84.96C84.4624 85.04 84.3384 85.08 84.1784 85.08H82.7744V87.816C82.7744 88.24 82.8624 88.56 83.0384 88.776C83.2224 88.992 83.5184 89.1 83.9264 89.1C84.0704 89.1 84.1944 89.088 84.2984 89.064C84.4104 89.032 84.5024 89.012 84.5744 89.004C84.6624 89.004 84.7344 89.036 84.7904 89.1C84.8464 89.156 84.8744 89.268 84.8744 89.436C84.8744 89.556 84.8504 89.668 84.8024 89.772C84.7624 89.876 84.6864 89.944 84.5744 89.976C84.4784 90.008 84.3464 90.036 84.1784 90.06C84.0184 90.092 83.8744 90.108 83.7464 90.108Z" fill="white"/>
</g>
<path d="M107 86L99.5 90.3301L99.5 81.6699L107 86Z" fill="#64728C"/>
<defs>
<filter id="filter0_d_1345_5031" x="0" y="6" width="105" height="42" filterUnits="userSpaceOnUse" color-interpolation-filters="sRGB">
<feFlood flood-opacity="0" result="BackgroundImageFix"/>
<feColorMatrix in="SourceAlpha" type="matrix" values="0 0 0 0 0 0 0 0 0 0 0 0 0 0 0 0 0 0 127 0" result="hardAlpha"/>
<feOffset dy="4"/>
<feGaussianBlur stdDeviation="2"/>
<feComposite in2="hardAlpha" operator="out"/>
<feColorMatrix type="matrix" values="0 0 0 0 0 0 0 0 0 0 0 0 0 0 0 0 0 0 0.06 0"/>
<feBlend mode="normal" in2="BackgroundImageFix" result="effect1_dropShadow_1345_5031"/>
<feBlend mode="normal" in="SourceGraphic" in2="effect1_dropShadow_1345_5031" result="shape"/>
</filter>
<filter id="filter1_d_1345_5031" x="130" y="6" width="105" height="42" filterUnits="userSpaceOnUse" color-interpolation-filters="sRGB">
<feFlood flood-opacity="0" result="BackgroundImageFix"/>
<feColorMatrix in="SourceAlpha" type="matrix" values="0 0 0 0 0 0 0 0 0 0 0 0 0 0 0 0 0 0 127 0" result="hardAlpha"/>
<feOffset dy="4"/>
<feGaussianBlur stdDeviation="2"/>
<feComposite in2="hardAlpha" operator="out"/>
<feColorMatrix type="matrix" values="0 0 0 0 0 0 0 0 0 0 0 0 0 0 0 0 0 0 0.06 0"/>
<feBlend mode="normal" in2="BackgroundImageFix" result="effect1_dropShadow_1345_5031"/>
<feBlend mode="normal" in="SourceGraphic" in2="effect1_dropShadow_1345_5031" result="shape"/>
</filter>
<filter id="filter2_d_1345_5031" x="130" y="69" width="105" height="42" filterUnits="userSpaceOnUse" color-interpolation-filters="sRGB">
<feFlood flood-opacity="0" result="BackgroundImageFix"/>
<feColorMatrix in="SourceAlpha" type="matrix" values="0 0 0 0 0 0 0 0 0 0 0 0 0 0 0 0 0 0 127 0" result="hardAlpha"/>
<feOffset dy="4"/>
<feGaussianBlur stdDeviation="2"/>
<feComposite in2="hardAlpha" operator="out"/>
<feColorMatrix type="matrix" values="0 0 0 0 0 0 0 0 0 0 0 0 0 0 0 0 0 0 0.06 0"/>
<feBlend mode="normal" in2="BackgroundImageFix" result="effect1_dropShadow_1345_5031"/>
<feBlend mode="normal" in="SourceGraphic" in2="effect1_dropShadow_1345_5031" result="shape"/>
</filter>
<filter id="filter3_d_1345_5031" x="0" y="69" width="105" height="42" filterUnits="userSpaceOnUse" color-interpolation-filters="sRGB">
<feFlood flood-opacity="0" result="BackgroundImageFix"/>
<feColorMatrix in="SourceAlpha" type="matrix" values="0 0 0 0 0 0 0 0 0 0 0 0 0 0 0 0 0 0 127 0" result="hardAlpha"/>
<feOffset dy="4"/>
<feGaussianBlur stdDeviation="2"/>
<feComposite in2="hardAlpha" operator="out"/>
<feColorMatrix type="matrix" values="0 0 0 0 0 0 0 0 0 0 0 0 0 0 0 0 0 0 0.06 0"/>
<feBlend mode="normal" in2="BackgroundImageFix" result="effect1_dropShadow_1345_5031"/>
<feBlend mode="normal" in="SourceGraphic" in2="effect1_dropShadow_1345_5031" result="shape"/>
</filter>
</defs>
</svg>
