<svg width="240" height="42" viewBox="0 0 240 42" fill="none" xmlns="http://www.w3.org/2000/svg">
<g filter="url(#filter0_d_943_1080)">
<mask id="path-1-inside-1_943_1080" fill="white">
<path d="M6.13477 12C6.13477 5.37258 11.5073 0 18.1348 0H223.135C229.762 0 235.135 5.37258 235.135 12V22C235.135 28.6274 229.762 34 223.135 34H18.1348C11.5073 34 6.13477 28.6274 6.13477 22V12Z"/>
</mask>
<path d="M6.13477 12C6.13477 5.37258 11.5073 0 18.1348 0H223.135C229.762 0 235.135 5.37258 235.135 12V22C235.135 28.6274 229.762 34 223.135 34H18.1348C11.5073 34 6.13477 28.6274 6.13477 22V12Z" fill="#64728C" shape-rendering="crispEdges"/>
<path d="M6.13477 0H235.135H6.13477ZM235.135 22C235.135 29.732 228.867 36 221.135 36H20.1348C12.4028 36 6.13477 29.732 6.13477 22C6.13477 27.5228 11.5073 32 18.1348 32H223.135C229.762 32 235.135 27.5228 235.135 22ZM6.13477 34V0V34ZM235.135 0V34V0Z" fill="#435069" mask="url(#path-1-inside-1_943_1080)"/>
<path d="M26.3348 21.084C26.1588 21.084 26.0108 21.044 25.8908 20.964C25.7788 20.876 25.6868 20.748 25.6148 20.58L22.3868 13.272C22.3228 13.104 22.3068 12.96 22.3388 12.84C22.3708 12.72 22.4348 12.628 22.5308 12.564C22.6348 12.492 22.7588 12.456 22.9028 12.456C23.0868 12.456 23.2268 12.496 23.3228 12.576C23.4188 12.656 23.4988 12.776 23.5628 12.936L26.5868 19.944H26.1428L29.1428 12.924C29.2148 12.772 29.2988 12.656 29.3948 12.576C29.4988 12.496 29.6388 12.456 29.8148 12.456C29.9588 12.456 30.0748 12.492 30.1628 12.564C30.2588 12.628 30.3188 12.72 30.3428 12.84C30.3668 12.96 30.3428 13.104 30.2708 13.272L27.0548 20.58C26.9828 20.748 26.8908 20.876 26.7788 20.964C26.6668 21.044 26.5188 21.084 26.3348 21.084ZM33.4105 21.108C32.7705 21.108 32.2185 20.988 31.7545 20.748C31.2985 20.5 30.9425 20.152 30.6865 19.704C30.4385 19.248 30.3145 18.708 30.3145 18.084C30.3145 17.476 30.4385 16.944 30.6865 16.488C30.9345 16.032 31.2745 15.676 31.7065 15.42C32.1385 15.164 32.6305 15.036 33.1825 15.036C33.5905 15.036 33.9545 15.104 34.2745 15.24C34.5945 15.368 34.8665 15.56 35.0905 15.816C35.3225 16.064 35.4945 16.368 35.6065 16.728C35.7265 17.088 35.7865 17.492 35.7865 17.94C35.7865 18.076 35.7465 18.18 35.6665 18.252C35.5865 18.316 35.4665 18.348 35.3065 18.348H31.2745V17.604H34.9705L34.7665 17.772C34.7665 17.372 34.7065 17.032 34.5865 16.752C34.4745 16.472 34.3025 16.26 34.0705 16.116C33.8465 15.964 33.5665 15.888 33.2305 15.888C32.8545 15.888 32.5345 15.976 32.2705 16.152C32.0145 16.328 31.8185 16.572 31.6825 16.884C31.5465 17.196 31.4785 17.56 31.4785 17.976V18.048C31.4785 18.752 31.6425 19.284 31.9705 19.644C32.3065 19.996 32.7905 20.172 33.4225 20.172C33.6625 20.172 33.9145 20.14 34.1785 20.076C34.4505 20.012 34.7065 19.904 34.9465 19.752C35.0825 19.672 35.2025 19.636 35.3065 19.644C35.4185 19.652 35.5065 19.688 35.5705 19.752C35.6425 19.816 35.6865 19.896 35.7025 19.992C35.7185 20.088 35.7025 20.188 35.6545 20.292C35.6065 20.388 35.5225 20.476 35.4025 20.556C35.1305 20.74 34.8145 20.88 34.4545 20.976C34.0945 21.064 33.7465 21.108 33.4105 21.108ZM37.7199 21.084C37.5199 21.084 37.3679 21.032 37.2639 20.928C37.1599 20.816 37.1079 20.664 37.1079 20.472V15.672C37.1079 15.472 37.1599 15.32 37.2639 15.216C37.3679 15.112 37.5119 15.06 37.6959 15.06C37.8879 15.06 38.0319 15.112 38.1279 15.216C38.2319 15.32 38.2839 15.472 38.2839 15.672V16.548H38.1639C38.2919 16.068 38.5279 15.704 38.8719 15.456C39.2159 15.208 39.6559 15.064 40.1919 15.024C40.3359 15.016 40.4479 15.052 40.5279 15.132C40.6159 15.212 40.6639 15.336 40.6719 15.504C40.6879 15.672 40.6519 15.808 40.5639 15.912C40.4759 16.008 40.3399 16.064 40.1559 16.08L39.9279 16.104C39.4079 16.152 39.0119 16.316 38.7399 16.596C38.4679 16.876 38.3319 17.26 38.3319 17.748V20.472C38.3319 20.664 38.2799 20.816 38.1759 20.928C38.0799 21.032 37.9279 21.084 37.7199 21.084ZM43.3277 23.244C43.1837 23.244 43.0637 23.204 42.9677 23.124C42.8797 23.052 42.8277 22.952 42.8117 22.824C42.8037 22.704 42.8277 22.572 42.8837 22.428L43.6997 20.592V21.108L41.4557 15.888C41.3997 15.744 41.3797 15.608 41.3957 15.48C41.4117 15.352 41.4717 15.252 41.5757 15.18C41.6797 15.1 41.8197 15.06 41.9957 15.06C42.1477 15.06 42.2677 15.096 42.3557 15.168C42.4437 15.24 42.5237 15.364 42.5957 15.54L44.4077 20.016H44.0717L45.9077 15.54C45.9797 15.356 46.0637 15.232 46.1597 15.168C46.2557 15.096 46.3877 15.06 46.5557 15.06C46.6997 15.06 46.8117 15.1 46.8917 15.18C46.9797 15.252 47.0317 15.352 47.0477 15.48C47.0717 15.6 47.0517 15.732 46.9877 15.876L43.9877 22.776C43.9077 22.96 43.8157 23.084 43.7117 23.148C43.6157 23.212 43.4877 23.244 43.3277 23.244ZM52.1141 21C51.9141 21 51.7581 20.944 51.6461 20.832C51.5341 20.72 51.4781 20.564 51.4781 20.364V13.128C51.4781 12.92 51.5301 12.764 51.6341 12.66C51.7461 12.548 51.9021 12.492 52.1021 12.492C52.3021 12.492 52.4541 12.548 52.5581 12.66C52.6701 12.764 52.7261 12.92 52.7261 13.128V19.932H56.4461C56.6221 19.932 56.7581 19.98 56.8541 20.076C56.9501 20.164 56.9981 20.292 56.9981 20.46C56.9981 20.628 56.9501 20.76 56.8541 20.856C56.7581 20.952 56.6221 21 56.4461 21H52.1141ZM60.4526 21.108C59.8606 21.108 59.3486 20.984 58.9166 20.736C58.4926 20.488 58.1606 20.136 57.9206 19.68C57.6806 19.224 57.5606 18.688 57.5606 18.072C57.5606 17.6 57.6286 17.18 57.7646 16.812C57.9006 16.444 58.0926 16.128 58.3406 15.864C58.5966 15.592 58.9006 15.388 59.2526 15.252C59.6126 15.108 60.0126 15.036 60.4526 15.036C61.0366 15.036 61.5406 15.16 61.9646 15.408C62.3966 15.656 62.7326 16.008 62.9726 16.464C63.2126 16.912 63.3326 17.448 63.3326 18.072C63.3326 18.536 63.2646 18.956 63.1286 19.332C62.9926 19.708 62.7966 20.028 62.5406 20.292C62.2926 20.556 61.9886 20.76 61.6286 20.904C61.2766 21.04 60.8846 21.108 60.4526 21.108ZM60.4526 20.172C60.7806 20.172 61.0686 20.092 61.3166 19.932C61.5646 19.772 61.7566 19.536 61.8926 19.224C62.0366 18.912 62.1086 18.528 62.1086 18.072C62.1086 17.384 61.9566 16.864 61.6526 16.512C61.3486 16.16 60.9486 15.984 60.4526 15.984C60.1166 15.984 59.8246 16.064 59.5766 16.224C59.3286 16.376 59.1326 16.608 58.9886 16.92C58.8526 17.232 58.7846 17.616 58.7846 18.072C58.7846 18.752 58.9366 19.272 59.2406 19.632C59.5446 19.992 59.9486 20.172 60.4526 20.172ZM65.2938 21.084C65.1018 21.084 64.9538 21.032 64.8498 20.928C64.7458 20.816 64.6938 20.664 64.6938 20.472V15.672C64.6938 15.472 64.7458 15.32 64.8498 15.216C64.9538 15.112 65.0978 15.06 65.2818 15.06C65.4738 15.06 65.6178 15.112 65.7138 15.216C65.8178 15.32 65.8698 15.472 65.8698 15.672V16.608L65.7378 16.392C65.9138 15.944 66.1898 15.608 66.5658 15.384C66.9418 15.152 67.3738 15.036 67.8618 15.036C68.3258 15.036 68.7098 15.124 69.0138 15.3C69.3258 15.468 69.5578 15.728 69.7098 16.08C69.8618 16.424 69.9378 16.86 69.9378 17.388V20.472C69.9378 20.664 69.8858 20.816 69.7818 20.928C69.6778 21.032 69.5298 21.084 69.3378 21.084C69.1378 21.084 68.9858 21.032 68.8818 20.928C68.7778 20.816 68.7258 20.664 68.7258 20.472V17.46C68.7258 16.956 68.6258 16.588 68.4258 16.356C68.2338 16.124 67.9298 16.008 67.5138 16.008C67.0258 16.008 66.6338 16.16 66.3378 16.464C66.0498 16.768 65.9058 17.176 65.9058 17.688V20.472C65.9058 20.88 65.7018 21.084 65.2938 21.084ZM74.2599 23.268C73.8279 23.268 73.4079 23.224 72.9999 23.136C72.5999 23.048 72.2359 22.904 71.9079 22.704C71.7879 22.64 71.7079 22.56 71.6679 22.464C71.6279 22.376 71.6159 22.284 71.6319 22.188C71.6559 22.092 71.6999 22.008 71.7639 21.936C71.8279 21.864 71.9039 21.816 71.9919 21.792C72.0879 21.768 72.1879 21.784 72.2919 21.84C72.6439 22.032 72.9759 22.16 73.2879 22.224C73.6079 22.296 73.9039 22.332 74.1759 22.332C74.7359 22.332 75.1559 22.188 75.4359 21.9C75.7159 21.62 75.8559 21.204 75.8559 20.652V19.428H75.9639C75.8439 19.868 75.5919 20.216 75.2079 20.472C74.8239 20.728 74.3799 20.856 73.8759 20.856C73.3479 20.856 72.8879 20.736 72.4959 20.496C72.1039 20.248 71.7999 19.908 71.5839 19.476C71.3679 19.036 71.2599 18.524 71.2599 17.94C71.2599 17.5 71.3199 17.104 71.4399 16.752C71.5679 16.4 71.7439 16.096 71.9679 15.84C72.1999 15.584 72.4759 15.388 72.7959 15.252C73.1239 15.108 73.4839 15.036 73.8759 15.036C74.3879 15.036 74.8319 15.164 75.2079 15.42C75.5919 15.676 75.8399 16.024 75.9519 16.464L75.8319 16.668V15.672C75.8319 15.472 75.8839 15.32 75.9879 15.216C76.0999 15.112 76.2479 15.06 76.4319 15.06C76.6239 15.06 76.7719 15.112 76.8759 15.216C76.9799 15.32 77.0319 15.472 77.0319 15.672V20.508C77.0319 21.42 76.7959 22.108 76.3239 22.572C75.8519 23.036 75.1639 23.268 74.2599 23.268ZM74.1639 19.908C74.5159 19.908 74.8159 19.828 75.0639 19.668C75.3119 19.508 75.5039 19.28 75.6399 18.984C75.7759 18.688 75.8439 18.34 75.8439 17.94C75.8439 17.34 75.6919 16.864 75.3879 16.512C75.0919 16.16 74.6839 15.984 74.1639 15.984C73.8199 15.984 73.5239 16.064 73.2759 16.224C73.0279 16.384 72.8319 16.612 72.6879 16.908C72.5519 17.196 72.4839 17.54 72.4839 17.94C72.4839 18.548 72.6359 19.028 72.9399 19.38C73.2439 19.732 73.6519 19.908 74.1639 19.908ZM84.7169 21.084C84.5169 21.084 84.3609 21.028 84.2489 20.916C84.1449 20.804 84.0929 20.648 84.0929 20.448V13.584H81.5489C81.3809 13.584 81.2489 13.54 81.1529 13.452C81.0569 13.356 81.0089 13.224 81.0089 13.056C81.0089 12.888 81.0569 12.76 81.1529 12.672C81.2489 12.584 81.3809 12.54 81.5489 12.54H87.8729C88.0489 12.54 88.1849 12.584 88.2809 12.672C88.3769 12.76 88.4249 12.888 88.4249 13.056C88.4249 13.224 88.3769 13.356 88.2809 13.452C88.1849 13.54 88.0489 13.584 87.8729 13.584H85.3289V20.448C85.3289 20.648 85.2769 20.804 85.1729 20.916C85.0769 21.028 84.9249 21.084 84.7169 21.084ZM90.8511 21.108C90.2591 21.108 89.7471 20.984 89.3151 20.736C88.8911 20.488 88.5591 20.136 88.3191 19.68C88.0791 19.224 87.9591 18.688 87.9591 18.072C87.9591 17.6 88.0271 17.18 88.1631 16.812C88.2991 16.444 88.4911 16.128 88.7391 15.864C88.9951 15.592 89.2991 15.388 89.6511 15.252C90.0111 15.108 90.4111 15.036 90.8511 15.036C91.4351 15.036 91.9391 15.16 92.3631 15.408C92.7951 15.656 93.1311 16.008 93.3711 16.464C93.6111 16.912 93.7311 17.448 93.7311 18.072C93.7311 18.536 93.6631 18.956 93.5271 19.332C93.3911 19.708 93.1951 20.028 92.9391 20.292C92.6911 20.556 92.3871 20.76 92.0271 20.904C91.6751 21.04 91.2831 21.108 90.8511 21.108ZM90.8511 20.172C91.1791 20.172 91.4671 20.092 91.7151 19.932C91.9631 19.772 92.1551 19.536 92.2911 19.224C92.4351 18.912 92.5071 18.528 92.5071 18.072C92.5071 17.384 92.3551 16.864 92.0511 16.512C91.7471 16.16 91.3471 15.984 90.8511 15.984C90.5151 15.984 90.2231 16.064 89.9751 16.224C89.7271 16.376 89.5311 16.608 89.3871 16.92C89.2511 17.232 89.1831 17.616 89.1831 18.072C89.1831 18.752 89.3351 19.272 89.6391 19.632C89.9431 19.992 90.3471 20.172 90.8511 20.172ZM97.6362 21.108C97.0442 21.108 96.5322 20.984 96.1002 20.736C95.6762 20.488 95.3442 20.136 95.1042 19.68C94.8642 19.224 94.7442 18.688 94.7442 18.072C94.7442 17.6 94.8122 17.18 94.9482 16.812C95.0842 16.444 95.2762 16.128 95.5242 15.864C95.7802 15.592 96.0842 15.388 96.4362 15.252C96.7962 15.108 97.1962 15.036 97.6362 15.036C98.2202 15.036 98.7242 15.16 99.1482 15.408C99.5802 15.656 99.9162 16.008 100.156 16.464C100.396 16.912 100.516 17.448 100.516 18.072C100.516 18.536 100.448 18.956 100.312 19.332C100.176 19.708 99.9802 20.028 99.7242 20.292C99.4762 20.556 99.1722 20.76 98.8122 20.904C98.4602 21.04 98.0682 21.108 97.6362 21.108ZM97.6362 20.172C97.9642 20.172 98.2522 20.092 98.5002 19.932C98.7482 19.772 98.9402 19.536 99.0762 19.224C99.2202 18.912 99.2922 18.528 99.2922 18.072C99.2922 17.384 99.1402 16.864 98.8362 16.512C98.5322 16.16 98.1322 15.984 97.6362 15.984C97.3002 15.984 97.0082 16.064 96.7602 16.224C96.5122 16.376 96.3162 16.608 96.1722 16.92C96.0362 17.232 95.9682 17.616 95.9682 18.072C95.9682 18.752 96.1202 19.272 96.4242 19.632C96.7282 19.992 97.1322 20.172 97.6362 20.172ZM103.761 21.108C103.137 21.108 102.665 20.928 102.345 20.568C102.033 20.2 101.877 19.672 101.877 18.984V13.068C101.877 12.868 101.929 12.716 102.033 12.612C102.137 12.508 102.285 12.456 102.477 12.456C102.669 12.456 102.817 12.508 102.921 12.612C103.033 12.716 103.089 12.868 103.089 13.068V18.912C103.089 19.312 103.169 19.612 103.329 19.812C103.497 20.004 103.737 20.1 104.049 20.1C104.121 20.1 104.185 20.1 104.241 20.1C104.297 20.092 104.353 20.084 104.409 20.076C104.505 20.068 104.573 20.096 104.613 20.16C104.653 20.216 104.673 20.336 104.673 20.52C104.673 20.688 104.637 20.82 104.565 20.916C104.493 21.004 104.377 21.06 104.217 21.084C104.145 21.092 104.069 21.096 103.989 21.096C103.909 21.104 103.833 21.108 103.761 21.108ZM107.912 21.108C107.432 21.108 107.028 21.024 106.7 20.856C106.372 20.688 106.128 20.44 105.968 20.112C105.808 19.784 105.728 19.384 105.728 18.912V16.08H105.008C104.848 16.08 104.724 16.04 104.636 15.96C104.548 15.872 104.504 15.756 104.504 15.612C104.504 15.46 104.548 15.344 104.636 15.264C104.724 15.184 104.848 15.144 105.008 15.144H105.728V13.908C105.728 13.708 105.78 13.556 105.884 13.452C105.996 13.348 106.148 13.296 106.34 13.296C106.532 13.296 106.68 13.348 106.784 13.452C106.888 13.556 106.94 13.708 106.94 13.908V15.144H108.344C108.504 15.144 108.628 15.184 108.716 15.264C108.804 15.344 108.848 15.46 108.848 15.612C108.848 15.756 108.804 15.872 108.716 15.96C108.628 16.04 108.504 16.08 108.344 16.08H106.94V18.816C106.94 19.24 107.028 19.56 107.204 19.776C107.388 19.992 107.684 20.1 108.092 20.1C108.236 20.1 108.36 20.088 108.464 20.064C108.576 20.032 108.668 20.012 108.74 20.004C108.828 20.004 108.9 20.036 108.956 20.1C109.012 20.156 109.04 20.268 109.04 20.436C109.04 20.556 109.016 20.668 108.968 20.772C108.928 20.876 108.852 20.944 108.74 20.976C108.644 21.008 108.512 21.036 108.344 21.06C108.184 21.092 108.04 21.108 107.912 21.108ZM110.505 21.072C110.313 21.072 110.165 21.016 110.061 20.904C109.957 20.784 109.905 20.62 109.905 20.412V15.732C109.905 15.524 109.957 15.364 110.061 15.252C110.165 15.14 110.313 15.084 110.505 15.084C110.697 15.084 110.845 15.14 110.949 15.252C111.061 15.364 111.117 15.524 111.117 15.732V20.412C111.117 20.62 111.065 20.784 110.961 20.904C110.857 21.016 110.705 21.072 110.505 21.072ZM110.505 13.836C110.265 13.836 110.077 13.776 109.941 13.656C109.813 13.536 109.749 13.368 109.749 13.152C109.749 12.928 109.813 12.76 109.941 12.648C110.077 12.528 110.265 12.468 110.505 12.468C110.745 12.468 110.929 12.528 111.057 12.648C111.193 12.76 111.261 12.928 111.261 13.152C111.261 13.368 111.193 13.536 111.057 13.656C110.929 13.776 110.745 13.836 110.505 13.836ZM113.423 23.244C113.231 23.244 113.083 23.192 112.979 23.088C112.875 22.984 112.823 22.832 112.823 22.632V15.672C112.823 15.472 112.875 15.32 112.979 15.216C113.083 15.112 113.227 15.06 113.411 15.06C113.603 15.06 113.751 15.112 113.855 15.216C113.959 15.32 114.011 15.472 114.011 15.672V16.716L113.879 16.464C114.007 16.032 114.259 15.688 114.635 15.432C115.011 15.168 115.455 15.036 115.967 15.036C116.487 15.036 116.939 15.16 117.323 15.408C117.715 15.656 118.015 16.004 118.223 16.452C118.439 16.9 118.547 17.44 118.547 18.072C118.547 18.688 118.439 19.228 118.223 19.692C118.015 20.148 117.719 20.5 117.335 20.748C116.951 20.988 116.495 21.108 115.967 21.108C115.463 21.108 115.023 20.98 114.647 20.724C114.271 20.468 114.019 20.128 113.891 19.704H114.035V22.632C114.035 22.832 113.979 22.984 113.867 23.088C113.763 23.192 113.615 23.244 113.423 23.244ZM115.667 20.172C116.003 20.172 116.295 20.092 116.543 19.932C116.791 19.772 116.983 19.536 117.119 19.224C117.255 18.912 117.323 18.528 117.323 18.072C117.323 17.384 117.171 16.864 116.867 16.512C116.571 16.16 116.171 15.984 115.667 15.984C115.339 15.984 115.047 16.064 114.791 16.224C114.543 16.376 114.351 16.608 114.215 16.92C114.079 17.232 114.011 17.616 114.011 18.072C114.011 18.752 114.163 19.272 114.467 19.632C114.771 19.992 115.171 20.172 115.667 20.172ZM125.897 21.084C125.697 21.084 125.541 21.028 125.429 20.916C125.325 20.804 125.273 20.648 125.273 20.448V13.584H122.729C122.561 13.584 122.429 13.54 122.333 13.452C122.237 13.356 122.189 13.224 122.189 13.056C122.189 12.888 122.237 12.76 122.333 12.672C122.429 12.584 122.561 12.54 122.729 12.54H129.053C129.229 12.54 129.365 12.584 129.461 12.672C129.557 12.76 129.605 12.888 129.605 13.056C129.605 13.224 129.557 13.356 129.461 13.452C129.365 13.54 129.229 13.584 129.053 13.584H126.509V20.448C126.509 20.648 126.457 20.804 126.353 20.916C126.257 21.028 126.105 21.084 125.897 21.084ZM132.235 21.108C131.595 21.108 131.043 20.988 130.579 20.748C130.123 20.5 129.767 20.152 129.511 19.704C129.263 19.248 129.139 18.708 129.139 18.084C129.139 17.476 129.263 16.944 129.511 16.488C129.759 16.032 130.099 15.676 130.531 15.42C130.963 15.164 131.455 15.036 132.007 15.036C132.415 15.036 132.779 15.104 133.099 15.24C133.419 15.368 133.691 15.56 133.915 15.816C134.147 16.064 134.319 16.368 134.431 16.728C134.551 17.088 134.611 17.492 134.611 17.94C134.611 18.076 134.571 18.18 134.491 18.252C134.411 18.316 134.291 18.348 134.131 18.348H130.099V17.604H133.795L133.591 17.772C133.591 17.372 133.531 17.032 133.411 16.752C133.299 16.472 133.127 16.26 132.895 16.116C132.671 15.964 132.391 15.888 132.055 15.888C131.679 15.888 131.359 15.976 131.095 16.152C130.839 16.328 130.643 16.572 130.507 16.884C130.371 17.196 130.303 17.56 130.303 17.976V18.048C130.303 18.752 130.467 19.284 130.795 19.644C131.131 19.996 131.615 20.172 132.247 20.172C132.487 20.172 132.739 20.14 133.003 20.076C133.275 20.012 133.531 19.904 133.771 19.752C133.907 19.672 134.027 19.636 134.131 19.644C134.243 19.652 134.331 19.688 134.395 19.752C134.467 19.816 134.511 19.896 134.527 19.992C134.543 20.088 134.527 20.188 134.479 20.292C134.431 20.388 134.347 20.476 134.227 20.556C133.955 20.74 133.639 20.88 133.279 20.976C132.919 21.064 132.571 21.108 132.235 21.108ZM136.089 21.072C135.945 21.072 135.825 21.032 135.729 20.952C135.641 20.864 135.593 20.756 135.585 20.628C135.585 20.5 135.641 20.36 135.753 20.208L137.781 17.676V18.276L135.885 15.912C135.757 15.768 135.697 15.632 135.705 15.504C135.713 15.368 135.765 15.26 135.861 15.18C135.957 15.1 136.073 15.06 136.209 15.06C136.361 15.06 136.485 15.088 136.581 15.144C136.685 15.192 136.781 15.276 136.869 15.396L138.465 17.424H138.033L139.641 15.396C139.729 15.276 139.821 15.192 139.917 15.144C140.021 15.088 140.145 15.06 140.289 15.06C140.433 15.06 140.549 15.104 140.637 15.192C140.733 15.272 140.781 15.38 140.781 15.516C140.789 15.644 140.733 15.78 140.613 15.924L138.717 18.252V17.712L140.745 20.208C140.865 20.352 140.921 20.492 140.913 20.628C140.913 20.756 140.865 20.864 140.769 20.952C140.673 21.032 140.553 21.072 140.409 21.072C140.265 21.072 140.141 21.044 140.037 20.988C139.941 20.932 139.845 20.848 139.749 20.736L138.033 18.576H138.441L136.737 20.736C136.649 20.84 136.553 20.924 136.449 20.988C136.353 21.044 136.233 21.072 136.089 21.072ZM144.791 21.108C144.311 21.108 143.907 21.024 143.579 20.856C143.251 20.688 143.007 20.44 142.847 20.112C142.687 19.784 142.607 19.384 142.607 18.912V16.08H141.887C141.727 16.08 141.603 16.04 141.515 15.96C141.427 15.872 141.383 15.756 141.383 15.612C141.383 15.46 141.427 15.344 141.515 15.264C141.603 15.184 141.727 15.144 141.887 15.144H142.607V13.908C142.607 13.708 142.659 13.556 142.763 13.452C142.875 13.348 143.027 13.296 143.219 13.296C143.411 13.296 143.559 13.348 143.663 13.452C143.767 13.556 143.819 13.708 143.819 13.908V15.144H145.223C145.383 15.144 145.507 15.184 145.595 15.264C145.683 15.344 145.727 15.46 145.727 15.612C145.727 15.756 145.683 15.872 145.595 15.96C145.507 16.04 145.383 16.08 145.223 16.08H143.819V18.816C143.819 19.24 143.907 19.56 144.083 19.776C144.267 19.992 144.563 20.1 144.971 20.1C145.115 20.1 145.239 20.088 145.343 20.064C145.455 20.032 145.547 20.012 145.619 20.004C145.707 20.004 145.779 20.036 145.835 20.1C145.891 20.156 145.919 20.268 145.919 20.436C145.919 20.556 145.895 20.668 145.847 20.772C145.807 20.876 145.731 20.944 145.619 20.976C145.523 21.008 145.391 21.036 145.223 21.06C145.063 21.092 144.919 21.108 144.791 21.108ZM151.546 22.992C151.082 22.184 150.742 21.348 150.526 20.484C150.31 19.612 150.202 18.732 150.202 17.844C150.202 17.252 150.25 16.664 150.346 16.08C150.442 15.496 150.586 14.92 150.778 14.352C150.978 13.784 151.234 13.232 151.546 12.696C151.618 12.568 151.714 12.492 151.834 12.468C151.962 12.436 152.078 12.444 152.182 12.492C152.294 12.54 152.374 12.624 152.422 12.744C152.478 12.864 152.474 13.016 152.41 13.2C152.202 13.72 152.03 14.236 151.894 14.748C151.766 15.26 151.666 15.772 151.594 16.284C151.53 16.788 151.498 17.308 151.498 17.844C151.498 18.372 151.53 18.892 151.594 19.404C151.666 19.916 151.77 20.428 151.906 20.94C152.05 21.444 152.218 21.96 152.41 22.488C152.474 22.672 152.478 22.824 152.422 22.944C152.374 23.064 152.294 23.148 152.182 23.196C152.078 23.244 151.962 23.252 151.834 23.22C151.714 23.188 151.618 23.112 151.546 22.992ZM154.497 21.084C154.305 21.084 154.157 21.032 154.053 20.928C153.949 20.816 153.897 20.664 153.897 20.472V15.672C153.897 15.472 153.949 15.32 154.053 15.216C154.157 15.112 154.301 15.06 154.485 15.06C154.677 15.06 154.821 15.112 154.917 15.216C155.021 15.32 155.073 15.472 155.073 15.672V16.656L154.941 16.392C155.101 15.968 155.349 15.636 155.685 15.396C156.021 15.156 156.425 15.036 156.897 15.036C157.385 15.036 157.781 15.152 158.085 15.384C158.389 15.616 158.597 15.972 158.709 16.452H158.541C158.693 16.012 158.953 15.668 159.321 15.42C159.689 15.164 160.117 15.036 160.605 15.036C161.053 15.036 161.421 15.124 161.709 15.3C161.997 15.468 162.213 15.728 162.357 16.08C162.501 16.424 162.573 16.86 162.573 17.388V20.472C162.573 20.664 162.517 20.816 162.405 20.928C162.301 21.032 162.153 21.084 161.961 21.084C161.769 21.084 161.621 21.032 161.517 20.928C161.413 20.816 161.361 20.664 161.361 20.472V17.448C161.361 16.952 161.273 16.588 161.097 16.356C160.929 16.124 160.649 16.008 160.257 16.008C159.817 16.008 159.469 16.16 159.213 16.464C158.957 16.768 158.829 17.188 158.829 17.724V20.472C158.829 20.664 158.777 20.816 158.673 20.928C158.569 21.032 158.421 21.084 158.229 21.084C158.037 21.084 157.885 21.032 157.773 20.928C157.669 20.816 157.617 20.664 157.617 20.472V17.448C157.617 16.952 157.533 16.588 157.365 16.356C157.197 16.124 156.917 16.008 156.525 16.008C156.085 16.008 155.737 16.16 155.481 16.464C155.233 16.768 155.109 17.188 155.109 17.724V20.472C155.109 20.88 154.905 21.084 154.497 21.084ZM166.14 21.108C165.732 21.108 165.364 21.028 165.036 20.868C164.716 20.708 164.464 20.492 164.28 20.22C164.096 19.948 164.004 19.64 164.004 19.296C164.004 18.864 164.112 18.524 164.328 18.276C164.552 18.02 164.916 17.84 165.42 17.736C165.932 17.624 166.62 17.568 167.484 17.568H168.048V18.312H167.496C166.92 18.312 166.464 18.34 166.128 18.396C165.792 18.452 165.552 18.548 165.408 18.684C165.272 18.812 165.204 18.992 165.204 19.224C165.204 19.528 165.308 19.776 165.516 19.968C165.724 20.152 166.012 20.244 166.38 20.244C166.676 20.244 166.936 20.176 167.16 20.04C167.384 19.896 167.56 19.704 167.688 19.464C167.824 19.224 167.892 18.948 167.892 18.636V17.256C167.892 16.8 167.796 16.472 167.604 16.272C167.412 16.072 167.096 15.972 166.656 15.972C166.4 15.972 166.132 16.004 165.852 16.068C165.58 16.132 165.296 16.24 165 16.392C164.864 16.456 164.748 16.476 164.652 16.452C164.556 16.428 164.48 16.376 164.424 16.296C164.368 16.208 164.336 16.116 164.328 16.02C164.328 15.916 164.352 15.816 164.4 15.72C164.456 15.624 164.548 15.552 164.676 15.504C165.028 15.336 165.376 15.216 165.72 15.144C166.064 15.072 166.388 15.036 166.692 15.036C167.228 15.036 167.668 15.12 168.012 15.288C168.364 15.456 168.624 15.712 168.792 16.056C168.96 16.4 169.044 16.844 169.044 17.388V20.472C169.044 20.664 168.996 20.816 168.9 20.928C168.804 21.032 168.664 21.084 168.48 21.084C168.304 21.084 168.164 21.032 168.06 20.928C167.956 20.816 167.904 20.664 167.904 20.472V19.692H168.012C167.948 19.988 167.828 20.244 167.652 20.46C167.484 20.668 167.272 20.828 167.016 20.94C166.76 21.052 166.468 21.108 166.14 21.108ZM170.917 21.072C170.773 21.072 170.653 21.032 170.557 20.952C170.469 20.864 170.421 20.756 170.413 20.628C170.413 20.5 170.469 20.36 170.581 20.208L172.609 17.676V18.276L170.713 15.912C170.585 15.768 170.525 15.632 170.533 15.504C170.541 15.368 170.593 15.26 170.689 15.18C170.785 15.1 170.901 15.06 171.037 15.06C171.189 15.06 171.313 15.088 171.409 15.144C171.513 15.192 171.609 15.276 171.697 15.396L173.293 17.424H172.861L174.469 15.396C174.557 15.276 174.649 15.192 174.745 15.144C174.849 15.088 174.973 15.06 175.117 15.06C175.261 15.06 175.377 15.104 175.465 15.192C175.561 15.272 175.609 15.38 175.609 15.516C175.617 15.644 175.561 15.78 175.441 15.924L173.545 18.252V17.712L175.573 20.208C175.693 20.352 175.749 20.492 175.741 20.628C175.741 20.756 175.693 20.864 175.597 20.952C175.501 21.032 175.381 21.072 175.237 21.072C175.093 21.072 174.969 21.044 174.865 20.988C174.769 20.932 174.673 20.848 174.577 20.736L172.861 18.576H173.269L171.565 20.736C171.477 20.84 171.381 20.924 171.277 20.988C171.181 21.044 171.061 21.072 170.917 21.072ZM182.904 21.108C182.456 21.108 182 21.048 181.536 20.928C181.072 20.8 180.668 20.612 180.324 20.364C180.196 20.284 180.108 20.188 180.06 20.076C180.02 19.956 180.012 19.848 180.036 19.752C180.06 19.648 180.108 19.56 180.18 19.488C180.26 19.416 180.356 19.376 180.468 19.368C180.58 19.352 180.704 19.384 180.84 19.464C181.184 19.672 181.52 19.824 181.848 19.92C182.176 20.008 182.516 20.052 182.868 20.052C183.252 20.052 183.576 19.996 183.84 19.884C184.104 19.772 184.3 19.608 184.428 19.392C184.564 19.176 184.632 18.916 184.632 18.612C184.632 18.156 184.48 17.816 184.176 17.592C183.88 17.36 183.448 17.244 182.88 17.244H182.064C181.88 17.244 181.74 17.2 181.644 17.112C181.548 17.016 181.5 16.884 181.5 16.716C181.5 16.556 181.548 16.432 181.644 16.344C181.74 16.248 181.88 16.2 182.064 16.2H182.76C183.104 16.2 183.396 16.144 183.636 16.032C183.876 15.912 184.06 15.748 184.188 15.54C184.324 15.324 184.392 15.064 184.392 14.76C184.392 14.352 184.256 14.04 183.984 13.824C183.72 13.6 183.332 13.488 182.82 13.488C182.492 13.488 182.18 13.532 181.884 13.62C181.596 13.708 181.296 13.864 180.984 14.088C180.864 14.168 180.748 14.204 180.636 14.196C180.532 14.18 180.44 14.14 180.36 14.076C180.288 14.004 180.236 13.916 180.204 13.812C180.18 13.708 180.188 13.6 180.228 13.488C180.268 13.376 180.348 13.28 180.468 13.2C180.804 12.952 181.184 12.764 181.608 12.636C182.032 12.5 182.468 12.432 182.916 12.432C183.476 12.432 183.956 12.52 184.356 12.696C184.764 12.872 185.072 13.124 185.28 13.452C185.496 13.78 185.604 14.172 185.604 14.628C185.604 14.972 185.54 15.284 185.412 15.564C185.284 15.844 185.1 16.084 184.86 16.284C184.628 16.476 184.344 16.612 184.008 16.692V16.56C184.592 16.656 185.044 16.896 185.364 17.28C185.684 17.656 185.844 18.128 185.844 18.696C185.844 19.192 185.724 19.624 185.484 19.992C185.252 20.352 184.916 20.628 184.476 20.82C184.036 21.012 183.512 21.108 182.904 21.108ZM190.363 21.108C189.923 21.108 189.479 21.048 189.031 20.928C188.583 20.8 188.175 20.604 187.807 20.34C187.687 20.268 187.607 20.176 187.567 20.064C187.527 19.952 187.519 19.844 187.543 19.74C187.567 19.628 187.615 19.536 187.687 19.464C187.767 19.392 187.863 19.352 187.975 19.344C188.087 19.328 188.207 19.36 188.335 19.44C188.647 19.64 188.967 19.792 189.295 19.896C189.631 20 189.979 20.052 190.339 20.052C190.707 20.052 191.023 19.984 191.287 19.848C191.551 19.712 191.751 19.524 191.887 19.284C192.031 19.036 192.103 18.748 192.103 18.42C192.103 17.916 191.955 17.504 191.659 17.184C191.363 16.864 190.951 16.704 190.423 16.704C190.119 16.704 189.835 16.76 189.571 16.872C189.307 16.976 189.055 17.152 188.815 17.4C188.759 17.464 188.683 17.524 188.587 17.58C188.499 17.628 188.399 17.652 188.287 17.652C188.119 17.652 187.991 17.608 187.903 17.52C187.815 17.432 187.771 17.312 187.771 17.16V13.092C187.771 12.916 187.819 12.78 187.915 12.684C188.011 12.588 188.147 12.54 188.323 12.54H192.343C192.519 12.54 192.655 12.584 192.751 12.672C192.847 12.76 192.895 12.888 192.895 13.056C192.895 13.224 192.847 13.356 192.751 13.452C192.655 13.54 192.519 13.584 192.343 13.584H188.983V16.632H188.647C188.863 16.328 189.147 16.092 189.499 15.924C189.859 15.756 190.255 15.672 190.687 15.672C191.223 15.672 191.687 15.784 192.079 16.008C192.471 16.232 192.775 16.548 192.991 16.956C193.207 17.356 193.315 17.824 193.315 18.36C193.315 18.904 193.195 19.384 192.955 19.8C192.715 20.208 192.375 20.528 191.935 20.76C191.495 20.992 190.971 21.108 190.363 21.108ZM197.426 21.108C196.442 21.108 195.69 20.736 195.17 19.992C194.658 19.24 194.402 18.164 194.402 16.764C194.402 15.812 194.518 15.016 194.75 14.376C194.982 13.736 195.322 13.252 195.77 12.924C196.218 12.596 196.77 12.432 197.426 12.432C198.418 12.432 199.17 12.8 199.682 13.536C200.194 14.264 200.45 15.336 200.45 16.752C200.45 17.688 200.334 18.48 200.102 19.128C199.87 19.776 199.53 20.268 199.082 20.604C198.634 20.94 198.082 21.108 197.426 21.108ZM197.426 20.076C198.042 20.076 198.494 19.808 198.782 19.272C199.078 18.728 199.226 17.888 199.226 16.752C199.226 15.608 199.078 14.776 198.782 14.256C198.494 13.728 198.042 13.464 197.426 13.464C196.818 13.464 196.366 13.728 196.07 14.256C195.774 14.776 195.626 15.608 195.626 16.752C195.626 17.888 195.774 18.728 196.07 19.272C196.366 19.808 196.818 20.076 197.426 20.076ZM202.473 23.244C202.281 23.244 202.133 23.192 202.029 23.088C201.925 22.984 201.873 22.832 201.873 22.632V15.672C201.873 15.472 201.925 15.32 202.029 15.216C202.133 15.112 202.277 15.06 202.461 15.06C202.653 15.06 202.801 15.112 202.905 15.216C203.009 15.32 203.061 15.472 203.061 15.672V16.716L202.929 16.464C203.057 16.032 203.309 15.688 203.685 15.432C204.061 15.168 204.505 15.036 205.017 15.036C205.537 15.036 205.989 15.16 206.373 15.408C206.765 15.656 207.065 16.004 207.273 16.452C207.489 16.9 207.597 17.44 207.597 18.072C207.597 18.688 207.489 19.228 207.273 19.692C207.065 20.148 206.769 20.5 206.385 20.748C206.001 20.988 205.545 21.108 205.017 21.108C204.513 21.108 204.073 20.98 203.697 20.724C203.321 20.468 203.069 20.128 202.941 19.704H203.085V22.632C203.085 22.832 203.029 22.984 202.917 23.088C202.813 23.192 202.665 23.244 202.473 23.244ZM204.717 20.172C205.053 20.172 205.345 20.092 205.593 19.932C205.841 19.772 206.033 19.536 206.169 19.224C206.305 18.912 206.373 18.528 206.373 18.072C206.373 17.384 206.221 16.864 205.917 16.512C205.621 16.16 205.221 15.984 204.717 15.984C204.389 15.984 204.097 16.064 203.841 16.224C203.593 16.376 203.401 16.608 203.265 16.92C203.129 17.232 203.061 17.616 203.061 18.072C203.061 18.752 203.213 19.272 203.517 19.632C203.821 19.992 204.221 20.172 204.717 20.172ZM209.027 21.072C208.883 21.072 208.763 21.032 208.667 20.952C208.579 20.864 208.531 20.756 208.523 20.628C208.523 20.5 208.579 20.36 208.691 20.208L210.719 17.676V18.276L208.823 15.912C208.695 15.768 208.635 15.632 208.643 15.504C208.651 15.368 208.703 15.26 208.799 15.18C208.895 15.1 209.011 15.06 209.147 15.06C209.299 15.06 209.423 15.088 209.519 15.144C209.623 15.192 209.719 15.276 209.807 15.396L211.403 17.424H210.971L212.579 15.396C212.667 15.276 212.759 15.192 212.855 15.144C212.959 15.088 213.083 15.06 213.227 15.06C213.371 15.06 213.487 15.104 213.575 15.192C213.671 15.272 213.719 15.38 213.719 15.516C213.727 15.644 213.671 15.78 213.551 15.924L211.655 18.252V17.712L213.683 20.208C213.803 20.352 213.859 20.492 213.851 20.628C213.851 20.756 213.803 20.864 213.707 20.952C213.611 21.032 213.491 21.072 213.347 21.072C213.203 21.072 213.079 21.044 212.975 20.988C212.879 20.932 212.783 20.848 212.687 20.736L210.971 18.576H211.379L209.675 20.736C209.587 20.84 209.491 20.924 209.387 20.988C209.291 21.044 209.171 21.072 209.027 21.072ZM215.857 22.992C215.785 23.112 215.685 23.188 215.557 23.22C215.437 23.252 215.321 23.244 215.209 23.196C215.097 23.148 215.017 23.064 214.969 22.944C214.921 22.824 214.929 22.672 214.993 22.488C215.209 21.96 215.381 21.444 215.509 20.94C215.637 20.428 215.733 19.916 215.797 19.404C215.869 18.892 215.905 18.372 215.905 17.844C215.905 17.308 215.869 16.788 215.797 16.284C215.725 15.772 215.621 15.264 215.485 14.76C215.357 14.248 215.193 13.728 214.993 13.2C214.929 13.016 214.921 12.864 214.969 12.744C215.025 12.624 215.109 12.54 215.221 12.492C215.333 12.444 215.449 12.436 215.569 12.468C215.689 12.492 215.785 12.568 215.857 12.696C216.321 13.496 216.661 14.332 216.877 15.204C217.093 16.068 217.201 16.948 217.201 17.844C217.201 18.436 217.149 19.028 217.045 19.62C216.949 20.204 216.805 20.78 216.613 21.348C216.421 21.916 216.169 22.464 215.857 22.992Z" fill="white"/>
</g>
<path d="M1.25631e-06 17L6.75 12.6699L6.75 21.3301L1.25631e-06 17Z" fill="#64728C"/>
<defs>
<filter id="filter0_d_943_1080" x="2.13477" y="0" width="237" height="42" filterUnits="userSpaceOnUse" color-interpolation-filters="sRGB">
<feFlood flood-opacity="0" result="BackgroundImageFix"/>
<feColorMatrix in="SourceAlpha" type="matrix" values="0 0 0 0 0 0 0 0 0 0 0 0 0 0 0 0 0 0 127 0" result="hardAlpha"/>
<feOffset dy="4"/>
<feGaussianBlur stdDeviation="2"/>
<feComposite in2="hardAlpha" operator="out"/>
<feColorMatrix type="matrix" values="0 0 0 0 0 0 0 0 0 0 0 0 0 0 0 0 0 0 0.06 0"/>
<feBlend mode="normal" in2="BackgroundImageFix" result="effect1_dropShadow_943_1080"/>
<feBlend mode="normal" in="SourceGraphic" in2="effect1_dropShadow_943_1080" result="shape"/>
</filter>
</defs>
</svg>
