<svg width="144" height="121" viewBox="0 0 144 121" fill="none" xmlns="http://www.w3.org/2000/svg">
<g filter="url(#filter0_d_1032_6160)">
<rect x="4" width="136" height="113" rx="14" fill="#E8EAEF"/>
<rect x="4.5" y="0.5" width="135" height="112" rx="13.5" stroke="#64728C" stroke-opacity="0.22"/>
<g filter="url(#filter1_i_1032_6160)">
<rect x="4" width="136" height="109" rx="14" fill="white"/>
<rect x="4" width="136" height="109" rx="14" fill="url(#paint0_linear_1032_6160)" fill-opacity="0.1"/>
<rect x="4.5" y="0.5" width="135" height="108" rx="13.5" stroke="url(#paint1_linear_1032_6160)" stroke-opacity="0.2"/>
<path d="M67.05 39.5501L70.5 36.1001V47.5001C70.5 48.4001 71.1 49.0001 72 49.0001C72.9 49.0001 73.5 48.4001 73.5 47.5001V36.1001L76.95 39.5501C77.25 39.8501 77.55 40.0001 78 40.0001C78.45 40.0001 78.75 39.8501 79.05 39.5501C79.65 38.9501 79.65 38.0501 79.05 37.4501L73.05 31.4501C72.9 31.3001 72.75 31.1501 72.6 31.1501C72.3 31.0001 71.85 31.0001 71.4 31.1501C71.25 31.3001 71.1 31.3001 70.95 31.4501L64.95 37.4501C64.35 38.0501 64.35 38.9501 64.95 39.5501C65.55 40.1501 66.45 40.1501 67.05 39.5501Z" fill="#64728C"/>
<path d="M82.5 44.5C81.6 44.5 81 45.1 81 46V49C81 50.65 79.65 52 78 52H66C64.35 52 63 50.65 63 49V46C63 45.1 62.4 44.5 61.5 44.5C60.6 44.5 60 45.1 60 46V49C60 52.3 62.7 55 66 55H78C81.3 55 84 52.3 84 49V46C84 45.1 83.4 44.5 82.5 44.5Z" fill="#64728C"/>
<path d="M33.776 80.108C32.92 80.108 32.188 79.932 31.58 79.58C30.972 79.228 30.504 78.728 30.176 78.08C29.856 77.424 29.696 76.652 29.696 75.764C29.696 75.1 29.788 74.504 29.972 73.976C30.156 73.44 30.42 72.984 30.764 72.608C31.116 72.224 31.544 71.932 32.048 71.732C32.56 71.532 33.136 71.432 33.776 71.432C34.248 71.432 34.7 71.496 35.132 71.624C35.572 71.752 35.952 71.936 36.272 72.176C36.408 72.264 36.496 72.372 36.536 72.5C36.584 72.62 36.592 72.736 36.56 72.848C36.536 72.96 36.484 73.056 36.404 73.136C36.324 73.208 36.22 73.248 36.092 73.256C35.972 73.264 35.84 73.22 35.696 73.124C35.432 72.924 35.14 72.776 34.82 72.68C34.5 72.584 34.164 72.536 33.812 72.536C33.204 72.536 32.692 72.664 32.276 72.92C31.86 73.168 31.544 73.532 31.328 74.012C31.112 74.492 31.004 75.076 31.004 75.764C31.004 76.452 31.112 77.04 31.328 77.528C31.544 78.008 31.86 78.376 32.276 78.632C32.692 78.88 33.204 79.004 33.812 79.004C34.164 79.004 34.5 78.956 34.82 78.86C35.148 78.756 35.456 78.604 35.744 78.404C35.888 78.316 36.016 78.276 36.128 78.284C36.248 78.292 36.348 78.332 36.428 78.404C36.508 78.476 36.56 78.568 36.584 78.68C36.616 78.784 36.612 78.896 36.572 79.016C36.54 79.128 36.464 79.224 36.344 79.304C36.016 79.568 35.628 79.768 35.18 79.904C34.732 80.04 34.264 80.108 33.776 80.108ZM39.8454 80.108C39.2214 80.108 38.7494 79.928 38.4294 79.568C38.1174 79.2 37.9614 78.672 37.9614 77.984V72.068C37.9614 71.868 38.0134 71.716 38.1174 71.612C38.2214 71.508 38.3694 71.456 38.5614 71.456C38.7534 71.456 38.9014 71.508 39.0054 71.612C39.1174 71.716 39.1734 71.868 39.1734 72.068V77.912C39.1734 78.312 39.2534 78.612 39.4134 78.812C39.5814 79.004 39.8214 79.1 40.1334 79.1C40.2054 79.1 40.2694 79.1 40.3254 79.1C40.3814 79.092 40.4374 79.084 40.4934 79.076C40.5894 79.068 40.6574 79.096 40.6974 79.16C40.7374 79.216 40.7574 79.336 40.7574 79.52C40.7574 79.688 40.7214 79.82 40.6494 79.916C40.5774 80.004 40.4614 80.06 40.3014 80.084C40.2294 80.092 40.1534 80.096 40.0734 80.096C39.9934 80.104 39.9174 80.108 39.8454 80.108ZM42.2293 80.072C42.0373 80.072 41.8893 80.016 41.7853 79.904C41.6813 79.784 41.6293 79.62 41.6293 79.412V74.732C41.6293 74.524 41.6813 74.364 41.7853 74.252C41.8893 74.14 42.0373 74.084 42.2293 74.084C42.4213 74.084 42.5693 74.14 42.6733 74.252C42.7853 74.364 42.8413 74.524 42.8413 74.732V79.412C42.8413 79.62 42.7893 79.784 42.6853 79.904C42.5813 80.016 42.4293 80.072 42.2293 80.072ZM42.2293 72.836C41.9893 72.836 41.8013 72.776 41.6653 72.656C41.5373 72.536 41.4733 72.368 41.4733 72.152C41.4733 71.928 41.5373 71.76 41.6653 71.648C41.8013 71.528 41.9893 71.468 42.2293 71.468C42.4693 71.468 42.6533 71.528 42.7813 71.648C42.9173 71.76 42.9853 71.928 42.9853 72.152C42.9853 72.368 42.9173 72.536 42.7813 72.656C42.6533 72.776 42.4693 72.836 42.2293 72.836ZM47.1273 80.108C46.5273 80.108 46.0073 79.984 45.5673 79.736C45.1353 79.48 44.7993 79.124 44.5593 78.668C44.3193 78.204 44.1993 77.66 44.1993 77.036C44.1993 76.572 44.2673 76.156 44.4033 75.788C44.5393 75.412 44.7313 75.096 44.9793 74.84C45.2353 74.584 45.5433 74.388 45.9033 74.252C46.2713 74.108 46.6793 74.036 47.1273 74.036C47.4073 74.036 47.6993 74.08 48.0033 74.168C48.3153 74.248 48.6033 74.384 48.8673 74.576C48.9713 74.64 49.0353 74.72 49.0593 74.816C49.0913 74.904 49.0953 74.996 49.0713 75.092C49.0553 75.188 49.0113 75.272 48.9393 75.344C48.8753 75.408 48.7953 75.448 48.6993 75.464C48.6033 75.472 48.4993 75.444 48.3873 75.38C48.1953 75.244 47.9993 75.148 47.7993 75.092C47.5993 75.028 47.4073 74.996 47.2233 74.996C46.9353 74.996 46.6793 75.044 46.4553 75.14C46.2393 75.228 46.0553 75.36 45.9033 75.536C45.7513 75.704 45.6353 75.916 45.5553 76.172C45.4833 76.428 45.4473 76.72 45.4473 77.048C45.4473 77.704 45.5993 78.22 45.9033 78.596C46.2153 78.964 46.6553 79.148 47.2233 79.148C47.4073 79.148 47.5993 79.12 47.7993 79.064C47.9993 79.008 48.1953 78.912 48.3873 78.776C48.4993 78.712 48.6033 78.688 48.6993 78.704C48.7953 78.72 48.8713 78.764 48.9273 78.836C48.9913 78.9 49.0313 78.98 49.0473 79.076C49.0713 79.164 49.0673 79.256 49.0353 79.352C49.0033 79.448 48.9353 79.528 48.8313 79.592C48.5753 79.776 48.2953 79.908 47.9913 79.988C47.6953 80.068 47.4073 80.108 47.1273 80.108ZM50.7489 80.084C50.5569 80.084 50.4089 80.032 50.3049 79.928C50.2009 79.816 50.1489 79.664 50.1489 79.472V72.068C50.1489 71.868 50.2009 71.716 50.3049 71.612C50.4089 71.508 50.5569 71.456 50.7489 71.456C50.9409 71.456 51.0889 71.508 51.1929 71.612C51.3049 71.716 51.3609 71.868 51.3609 72.068V76.7H51.3849L53.6289 74.468C53.7569 74.34 53.8729 74.24 53.9769 74.168C54.0809 74.096 54.2169 74.06 54.3849 74.06C54.5529 74.06 54.6809 74.104 54.7689 74.192C54.8569 74.28 54.9009 74.388 54.9009 74.516C54.9009 74.636 54.8409 74.76 54.7209 74.888L52.3449 77.24V76.676L54.9369 79.256C55.0649 79.384 55.1249 79.512 55.1169 79.64C55.1089 79.768 55.0569 79.876 54.9609 79.964C54.8649 80.044 54.7449 80.084 54.6009 80.084C54.4169 80.084 54.2689 80.048 54.1569 79.976C54.0529 79.904 53.9289 79.796 53.7849 79.652L51.3849 77.324H51.3609V79.472C51.3609 79.88 51.1569 80.084 50.7489 80.084ZM62.3204 80.084C62.1204 80.084 61.9644 80.028 61.8524 79.916C61.7484 79.804 61.6964 79.648 61.6964 79.448V72.584H59.1524C58.9844 72.584 58.8524 72.54 58.7564 72.452C58.6604 72.356 58.6124 72.224 58.6124 72.056C58.6124 71.888 58.6604 71.76 58.7564 71.672C58.8524 71.584 58.9844 71.54 59.1524 71.54H65.4764C65.6524 71.54 65.7884 71.584 65.8844 71.672C65.9804 71.76 66.0284 71.888 66.0284 72.056C66.0284 72.224 65.9804 72.356 65.8844 72.452C65.7884 72.54 65.6524 72.584 65.4764 72.584H62.9324V79.448C62.9324 79.648 62.8804 79.804 62.7764 79.916C62.6804 80.028 62.5284 80.084 62.3204 80.084ZM68.4546 80.108C67.8626 80.108 67.3506 79.984 66.9186 79.736C66.4946 79.488 66.1626 79.136 65.9226 78.68C65.6826 78.224 65.5626 77.688 65.5626 77.072C65.5626 76.6 65.6306 76.18 65.7666 75.812C65.9026 75.444 66.0946 75.128 66.3426 74.864C66.5986 74.592 66.9026 74.388 67.2546 74.252C67.6146 74.108 68.0146 74.036 68.4546 74.036C69.0386 74.036 69.5426 74.16 69.9666 74.408C70.3986 74.656 70.7346 75.008 70.9746 75.464C71.2146 75.912 71.3346 76.448 71.3346 77.072C71.3346 77.536 71.2666 77.956 71.1306 78.332C70.9946 78.708 70.7986 79.028 70.5426 79.292C70.2946 79.556 69.9906 79.76 69.6306 79.904C69.2786 80.04 68.8866 80.108 68.4546 80.108ZM68.4546 79.172C68.7826 79.172 69.0706 79.092 69.3186 78.932C69.5666 78.772 69.7586 78.536 69.8946 78.224C70.0386 77.912 70.1106 77.528 70.1106 77.072C70.1106 76.384 69.9586 75.864 69.6546 75.512C69.3506 75.16 68.9506 74.984 68.4546 74.984C68.1186 74.984 67.8266 75.064 67.5786 75.224C67.3306 75.376 67.1346 75.608 66.9906 75.92C66.8546 76.232 66.7866 76.616 66.7866 77.072C66.7866 77.752 66.9386 78.272 67.2426 78.632C67.5466 78.992 67.9506 79.172 68.4546 79.172ZM79.4118 80.108C78.8438 80.108 78.3438 80.036 77.9118 79.892C77.4798 79.74 77.1158 79.516 76.8198 79.22C76.5318 78.924 76.3118 78.556 76.1598 78.116C76.0078 77.676 75.9318 77.168 75.9318 76.592V72.08C75.9318 71.872 75.9838 71.716 76.0878 71.612C76.1998 71.508 76.3558 71.456 76.5558 71.456C76.7558 71.456 76.9078 71.508 77.0118 71.612C77.1238 71.716 77.1798 71.872 77.1798 72.08V76.568C77.1798 77.392 77.3678 78.008 77.7438 78.416C78.1278 78.824 78.6838 79.028 79.4118 79.028C80.1478 79.028 80.7038 78.824 81.0798 78.416C81.4558 78.008 81.6438 77.392 81.6438 76.568V72.08C81.6438 71.872 81.6958 71.716 81.7998 71.612C81.9118 71.508 82.0638 71.456 82.2558 71.456C82.4558 71.456 82.6078 71.508 82.7118 71.612C82.8158 71.716 82.8678 71.872 82.8678 72.08V76.592C82.8678 77.36 82.7358 78.008 82.4718 78.536C82.2158 79.056 81.8318 79.448 81.3198 79.712C80.8078 79.976 80.1718 80.108 79.4118 80.108ZM85.2606 82.244C85.0686 82.244 84.9206 82.192 84.8166 82.088C84.7126 81.984 84.6606 81.832 84.6606 81.632V74.672C84.6606 74.472 84.7126 74.32 84.8166 74.216C84.9206 74.112 85.0646 74.06 85.2486 74.06C85.4406 74.06 85.5886 74.112 85.6926 74.216C85.7966 74.32 85.8486 74.472 85.8486 74.672V75.716L85.7166 75.464C85.8446 75.032 86.0966 74.688 86.4726 74.432C86.8486 74.168 87.2926 74.036 87.8046 74.036C88.3246 74.036 88.7766 74.16 89.1606 74.408C89.5526 74.656 89.8526 75.004 90.0606 75.452C90.2766 75.9 90.3846 76.44 90.3846 77.072C90.3846 77.688 90.2766 78.228 90.0606 78.692C89.8526 79.148 89.5566 79.5 89.1726 79.748C88.7886 79.988 88.3326 80.108 87.8046 80.108C87.3006 80.108 86.8606 79.98 86.4846 79.724C86.1086 79.468 85.8566 79.128 85.7286 78.704H85.8726V81.632C85.8726 81.832 85.8166 81.984 85.7046 82.088C85.6006 82.192 85.4526 82.244 85.2606 82.244ZM87.5046 79.172C87.8406 79.172 88.1326 79.092 88.3806 78.932C88.6286 78.772 88.8206 78.536 88.9566 78.224C89.0926 77.912 89.1606 77.528 89.1606 77.072C89.1606 76.384 89.0086 75.864 88.7046 75.512C88.4086 75.16 88.0086 74.984 87.5046 74.984C87.1766 74.984 86.8846 75.064 86.6286 75.224C86.3806 75.376 86.1886 75.608 86.0526 75.92C85.9166 76.232 85.8486 76.616 85.8486 77.072C85.8486 77.752 86.0006 78.272 86.3046 78.632C86.6086 78.992 87.0086 79.172 87.5046 79.172ZM93.6344 80.108C93.0104 80.108 92.5384 79.928 92.2184 79.568C91.9064 79.2 91.7504 78.672 91.7504 77.984V72.068C91.7504 71.868 91.8024 71.716 91.9064 71.612C92.0104 71.508 92.1584 71.456 92.3504 71.456C92.5424 71.456 92.6904 71.508 92.7944 71.612C92.9064 71.716 92.9624 71.868 92.9624 72.068V77.912C92.9624 78.312 93.0424 78.612 93.2024 78.812C93.3704 79.004 93.6104 79.1 93.9224 79.1C93.9944 79.1 94.0584 79.1 94.1144 79.1C94.1704 79.092 94.2264 79.084 94.2824 79.076C94.3784 79.068 94.4464 79.096 94.4864 79.16C94.5264 79.216 94.5464 79.336 94.5464 79.52C94.5464 79.688 94.5104 79.82 94.4384 79.916C94.3664 80.004 94.2504 80.06 94.0904 80.084C94.0184 80.092 93.9424 80.096 93.8624 80.096C93.7824 80.104 93.7064 80.108 93.6344 80.108ZM97.9038 80.108C97.3118 80.108 96.7998 79.984 96.3678 79.736C95.9438 79.488 95.6118 79.136 95.3718 78.68C95.1318 78.224 95.0118 77.688 95.0118 77.072C95.0118 76.6 95.0798 76.18 95.2158 75.812C95.3518 75.444 95.5438 75.128 95.7918 74.864C96.0478 74.592 96.3518 74.388 96.7038 74.252C97.0638 74.108 97.4638 74.036 97.9038 74.036C98.4878 74.036 98.9918 74.16 99.4158 74.408C99.8478 74.656 100.184 75.008 100.424 75.464C100.664 75.912 100.784 76.448 100.784 77.072C100.784 77.536 100.716 77.956 100.58 78.332C100.444 78.708 100.248 79.028 99.9918 79.292C99.7438 79.556 99.4398 79.76 99.0798 79.904C98.7278 80.04 98.3358 80.108 97.9038 80.108ZM97.9038 79.172C98.2318 79.172 98.5198 79.092 98.7678 78.932C99.0158 78.772 99.2078 78.536 99.3438 78.224C99.4878 77.912 99.5598 77.528 99.5598 77.072C99.5598 76.384 99.4078 75.864 99.1038 75.512C98.7998 75.16 98.3998 74.984 97.9038 74.984C97.5678 74.984 97.2758 75.064 97.0278 75.224C96.7798 75.376 96.5838 75.608 96.4398 75.92C96.3038 76.232 96.2358 76.616 96.2358 77.072C96.2358 77.752 96.3878 78.272 96.6918 78.632C96.9958 78.992 97.3998 79.172 97.9038 79.172ZM104.017 80.108C103.609 80.108 103.241 80.028 102.913 79.868C102.593 79.708 102.341 79.492 102.157 79.22C101.973 78.948 101.881 78.64 101.881 78.296C101.881 77.864 101.989 77.524 102.205 77.276C102.429 77.02 102.793 76.84 103.297 76.736C103.809 76.624 104.497 76.568 105.361 76.568H105.925V77.312H105.373C104.797 77.312 104.341 77.34 104.005 77.396C103.669 77.452 103.429 77.548 103.285 77.684C103.149 77.812 103.081 77.992 103.081 78.224C103.081 78.528 103.185 78.776 103.393 78.968C103.601 79.152 103.889 79.244 104.257 79.244C104.553 79.244 104.813 79.176 105.037 79.04C105.261 78.896 105.437 78.704 105.565 78.464C105.701 78.224 105.769 77.948 105.769 77.636V76.256C105.769 75.8 105.673 75.472 105.481 75.272C105.289 75.072 104.973 74.972 104.533 74.972C104.277 74.972 104.009 75.004 103.729 75.068C103.457 75.132 103.173 75.24 102.877 75.392C102.741 75.456 102.625 75.476 102.529 75.452C102.433 75.428 102.357 75.376 102.301 75.296C102.245 75.208 102.213 75.116 102.205 75.02C102.205 74.916 102.229 74.816 102.277 74.72C102.333 74.624 102.425 74.552 102.553 74.504C102.905 74.336 103.253 74.216 103.597 74.144C103.941 74.072 104.265 74.036 104.569 74.036C105.105 74.036 105.545 74.12 105.889 74.288C106.241 74.456 106.501 74.712 106.669 75.056C106.837 75.4 106.921 75.844 106.921 76.388V79.472C106.921 79.664 106.873 79.816 106.777 79.928C106.681 80.032 106.541 80.084 106.357 80.084C106.181 80.084 106.041 80.032 105.937 79.928C105.833 79.816 105.781 79.664 105.781 79.472V78.692H105.889C105.825 78.988 105.705 79.244 105.529 79.46C105.361 79.668 105.149 79.828 104.893 79.94C104.637 80.052 104.345 80.108 104.017 80.108ZM110.822 80.108C110.31 80.108 109.858 79.988 109.466 79.748C109.082 79.5 108.782 79.148 108.566 78.692C108.35 78.228 108.242 77.688 108.242 77.072C108.242 76.44 108.35 75.9 108.566 75.452C108.782 75.004 109.082 74.656 109.466 74.408C109.858 74.16 110.31 74.036 110.822 74.036C111.334 74.036 111.774 74.164 112.142 74.42C112.518 74.668 112.77 75.004 112.898 75.428H112.766V72.068C112.766 71.868 112.818 71.716 112.922 71.612C113.026 71.508 113.174 71.456 113.366 71.456C113.558 71.456 113.706 71.508 113.81 71.612C113.922 71.716 113.978 71.868 113.978 72.068V79.472C113.978 79.664 113.926 79.816 113.822 79.928C113.718 80.032 113.57 80.084 113.378 80.084C113.186 80.084 113.038 80.032 112.934 79.928C112.83 79.816 112.778 79.664 112.778 79.472V78.416L112.91 78.68C112.782 79.112 112.53 79.46 112.154 79.724C111.786 79.98 111.342 80.108 110.822 80.108ZM111.134 79.172C111.462 79.172 111.75 79.092 111.998 78.932C112.246 78.772 112.438 78.536 112.574 78.224C112.718 77.912 112.79 77.528 112.79 77.072C112.79 76.384 112.638 75.864 112.334 75.512C112.03 75.16 111.63 74.984 111.134 74.984C110.798 74.984 110.506 75.064 110.258 75.224C110.01 75.376 109.814 75.608 109.67 75.92C109.534 76.232 109.466 76.616 109.466 77.072C109.466 77.752 109.618 78.272 109.922 78.632C110.226 78.992 110.63 79.172 111.134 79.172Z" fill="#64728C"/>
</g>
</g>
<defs>
<filter id="filter0_d_1032_6160" x="0" y="0" width="144" height="121" filterUnits="userSpaceOnUse" color-interpolation-filters="sRGB">
<feFlood flood-opacity="0" result="BackgroundImageFix"/>
<feColorMatrix in="SourceAlpha" type="matrix" values="0 0 0 0 0 0 0 0 0 0 0 0 0 0 0 0 0 0 127 0" result="hardAlpha"/>
<feOffset dy="4"/>
<feGaussianBlur stdDeviation="2"/>
<feComposite in2="hardAlpha" operator="out"/>
<feColorMatrix type="matrix" values="0 0 0 0 0 0 0 0 0 0 0 0 0 0 0 0 0 0 0.05 0"/>
<feBlend mode="normal" in2="BackgroundImageFix" result="effect1_dropShadow_1032_6160"/>
<feBlend mode="normal" in="SourceGraphic" in2="effect1_dropShadow_1032_6160" result="shape"/>
</filter>
<filter id="filter1_i_1032_6160" x="4" y="-4" width="136" height="113" filterUnits="userSpaceOnUse" color-interpolation-filters="sRGB">
<feFlood flood-opacity="0" result="BackgroundImageFix"/>
<feBlend mode="normal" in="SourceGraphic" in2="BackgroundImageFix" result="shape"/>
<feColorMatrix in="SourceAlpha" type="matrix" values="0 0 0 0 0 0 0 0 0 0 0 0 0 0 0 0 0 0 127 0" result="hardAlpha"/>
<feOffset dy="-10"/>
<feGaussianBlur stdDeviation="2"/>
<feComposite in2="hardAlpha" operator="arithmetic" k2="-1" k3="1"/>
<feColorMatrix type="matrix" values="0 0 0 0 1 0 0 0 0 1 0 0 0 0 1 0 0 0 0.15 0"/>
<feBlend mode="normal" in2="shape" result="effect1_innerShadow_1032_6160"/>
</filter>
<linearGradient id="paint0_linear_1032_6160" x1="72" y1="0" x2="72" y2="109" gradientUnits="userSpaceOnUse">
<stop stop-color="#64728C" stop-opacity="0.04"/>
<stop offset="1" stop-color="#64728C" stop-opacity="0.15"/>
</linearGradient>
<linearGradient id="paint1_linear_1032_6160" x1="72" y1="0" x2="72" y2="109" gradientUnits="userSpaceOnUse">
<stop offset="0.345231" stop-color="#64728C" stop-opacity="0.03"/>
<stop offset="1" stop-color="#64728C" stop-opacity="0.37"/>
</linearGradient>
</defs>
</svg>
