<svg width="148" height="139" viewBox="0 0 148 139" fill="none" xmlns="http://www.w3.org/2000/svg">
<rect width="140" height="130" transform="translate(4 8.5)" fill="white"/>
<g filter="url(#filter0_d_1037_6824)">
<g clip-path="url(#clip0_1037_6824)">
<rect x="4" y="8.5" width="140" height="130" rx="14" fill="#E8EAEF"/>
<g filter="url(#filter1_di_1037_6824)">
<rect x="4" y="12.5" width="140" height="126" rx="14" fill="white"/>
<rect x="4" y="12.5" width="140" height="126" rx="14" fill="url(#paint0_linear_1037_6824)" fill-opacity="0.1"/>
<rect x="4.5" y="13" width="139" height="125" rx="13.5" stroke="url(#paint1_linear_1037_6824)" stroke-opacity="0.2"/>
<path d="M69.05 52.0501L72.5 48.6001V60.0001C72.5 60.9001 73.1 61.5001 74 61.5001C74.9 61.5001 75.5 60.9001 75.5 60.0001V48.6001L78.95 52.0501C79.25 52.3501 79.55 52.5001 80 52.5001C80.45 52.5001 80.75 52.3501 81.05 52.0501C81.65 51.4501 81.65 50.5501 81.05 49.9501L75.05 43.9501C74.9 43.8001 74.75 43.6501 74.6 43.6501C74.3 43.5001 73.85 43.5001 73.4 43.6501C73.25 43.8001 73.1 43.8001 72.95 43.9501L66.95 49.9501C66.35 50.5501 66.35 51.4501 66.95 52.0501C67.55 52.6501 68.45 52.6501 69.05 52.0501Z" fill="#64728C"/>
<path d="M84.5 57C83.6 57 83 57.6 83 58.5V61.5C83 63.15 81.65 64.5 80 64.5H68C66.35 64.5 65 63.15 65 61.5V58.5C65 57.6 64.4 57 63.5 57C62.6 57 62 57.6 62 58.5V61.5C62 64.8 64.7 67.5 68 67.5H80C83.3 67.5 86 64.8 86 61.5V58.5C86 57.6 85.4 57 84.5 57Z" fill="#64728C"/>
<rect x="29" y="80.5" width="90" height="10" rx="5" fill="#DAFDF5"/>
<rect x="29" y="80.5" width="46" height="10" rx="5" fill="#08838F"/>
<path d="M35.0338 109.62C34.4498 109.62 33.9338 109.544 33.4858 109.392C33.0458 109.24 32.6738 109.016 32.3698 108.72C32.0658 108.416 31.8378 108.04 31.6858 107.592C31.5338 107.144 31.4578 106.624 31.4578 106.032V101.724C31.4578 101.46 31.5218 101.264 31.6498 101.136C31.7858 101.008 31.9778 100.944 32.2258 100.944C32.4738 100.944 32.6618 101.008 32.7898 101.136C32.9258 101.264 32.9938 101.46 32.9938 101.724V106.02C32.9938 106.78 33.1658 107.352 33.5098 107.736C33.8618 108.112 34.3698 108.3 35.0338 108.3C35.6978 108.3 36.2018 108.112 36.5458 107.736C36.8898 107.352 37.0618 106.78 37.0618 106.02V101.724C37.0618 101.46 37.1258 101.264 37.2538 101.136C37.3898 101.008 37.5818 100.944 37.8298 100.944C38.0698 100.944 38.2538 101.008 38.3818 101.136C38.5178 101.264 38.5858 101.46 38.5858 101.724V106.032C38.5858 106.816 38.4498 107.476 38.1778 108.012C37.9138 108.548 37.5178 108.952 36.9898 109.224C36.4618 109.488 35.8098 109.62 35.0338 109.62ZM40.9771 111.756C40.7371 111.756 40.5531 111.692 40.4251 111.564C40.2971 111.436 40.2331 111.248 40.2331 111V104.292C40.2331 104.044 40.2971 103.856 40.4251 103.728C40.5531 103.6 40.7331 103.536 40.9651 103.536C41.2051 103.536 41.3891 103.6 41.5171 103.728C41.6451 103.856 41.7091 104.044 41.7091 104.292V105.228L41.5771 104.868C41.6971 104.46 41.9411 104.132 42.3091 103.884C42.6851 103.636 43.1211 103.512 43.6171 103.512C44.1291 103.512 44.5771 103.636 44.9611 103.884C45.3531 104.132 45.6571 104.484 45.8731 104.94C46.0891 105.388 46.1971 105.928 46.1971 106.56C46.1971 107.184 46.0891 107.728 45.8731 108.192C45.6571 108.648 45.3571 109 44.9731 109.248C44.5891 109.496 44.1371 109.62 43.6171 109.62C43.1291 109.62 42.7011 109.5 42.3331 109.26C41.9651 109.012 41.7171 108.692 41.5891 108.3H41.7331V111C41.7331 111.248 41.6651 111.436 41.5291 111.564C41.4011 111.692 41.2171 111.756 40.9771 111.756ZM43.1971 108.48C43.4931 108.48 43.7531 108.408 43.9771 108.264C44.2011 108.12 44.3731 107.908 44.4931 107.628C44.6211 107.34 44.6851 106.984 44.6851 106.56C44.6851 105.92 44.5491 105.444 44.2771 105.132C44.0051 104.812 43.6451 104.652 43.1971 104.652C42.9011 104.652 42.6411 104.724 42.4171 104.868C42.1931 105.004 42.0171 105.216 41.8891 105.504C41.7691 105.784 41.7091 106.136 41.7091 106.56C41.7091 107.192 41.8451 107.672 42.1171 108C42.3891 108.32 42.7491 108.48 43.1971 108.48ZM49.4324 109.62C48.7684 109.62 48.2684 109.432 47.9324 109.056C47.5964 108.672 47.4284 108.112 47.4284 107.376V101.7C47.4284 101.452 47.4924 101.264 47.6204 101.136C47.7484 101.008 47.9324 100.944 48.1724 100.944C48.4124 100.944 48.5964 101.008 48.7244 101.136C48.8604 101.264 48.9284 101.452 48.9284 101.7V107.304C48.9284 107.672 49.0044 107.944 49.1564 108.12C49.3164 108.296 49.5404 108.384 49.8284 108.384C49.8924 108.384 49.9524 108.384 50.0084 108.384C50.0644 108.376 50.1204 108.368 50.1764 108.36C50.2884 108.344 50.3644 108.376 50.4044 108.456C50.4444 108.528 50.4644 108.68 50.4644 108.912C50.4644 109.112 50.4244 109.268 50.3444 109.38C50.2644 109.492 50.1324 109.56 49.9484 109.584C49.8684 109.592 49.7844 109.6 49.6964 109.608C49.6084 109.616 49.5204 109.62 49.4324 109.62ZM53.8779 109.62C53.2699 109.62 52.7419 109.496 52.2939 109.248C51.8459 109 51.4979 108.648 51.2499 108.192C51.0019 107.728 50.8779 107.184 50.8779 106.56C50.8779 106.088 50.9459 105.668 51.0819 105.3C51.2259 104.924 51.4299 104.604 51.6939 104.34C51.9579 104.068 52.2739 103.864 52.6419 103.728C53.0099 103.584 53.4219 103.512 53.8779 103.512C54.4859 103.512 55.0139 103.636 55.4619 103.884C55.9099 104.132 56.2579 104.484 56.5059 104.94C56.7539 105.396 56.8779 105.936 56.8779 106.56C56.8779 107.032 56.8059 107.456 56.6619 107.832C56.5259 108.208 56.3259 108.532 56.0619 108.804C55.7979 109.068 55.4819 109.272 55.1139 109.416C54.7459 109.552 54.3339 109.62 53.8779 109.62ZM53.8779 108.48C54.1739 108.48 54.4339 108.408 54.6579 108.264C54.8819 108.12 55.0539 107.908 55.1739 107.628C55.3019 107.34 55.3659 106.984 55.3659 106.56C55.3659 105.92 55.2299 105.444 54.9579 105.132C54.6859 104.812 54.3259 104.652 53.8779 104.652C53.5819 104.652 53.3219 104.724 53.0979 104.868C52.8739 105.004 52.6979 105.216 52.5699 105.504C52.4499 105.784 52.3899 106.136 52.3899 106.56C52.3899 107.192 52.5259 107.672 52.7979 108C53.0699 108.32 53.4299 108.48 53.8779 108.48ZM60.0479 109.62C59.6239 109.62 59.2439 109.54 58.9079 109.38C58.5799 109.212 58.3199 108.988 58.1279 108.708C57.9439 108.428 57.8519 108.112 57.8519 107.76C57.8519 107.328 57.9639 106.988 58.1879 106.74C58.4119 106.484 58.7759 106.3 59.2799 106.188C59.7839 106.076 60.4599 106.02 61.3079 106.02H61.9079V106.884H61.3199C60.8239 106.884 60.4279 106.908 60.1319 106.956C59.8359 107.004 59.6239 107.088 59.4959 107.208C59.3759 107.32 59.3159 107.48 59.3159 107.688C59.3159 107.952 59.4079 108.168 59.5919 108.336C59.7759 108.504 60.0319 108.588 60.3599 108.588C60.6239 108.588 60.8559 108.528 61.0559 108.408C61.2639 108.28 61.4279 108.108 61.5479 107.892C61.6679 107.676 61.7279 107.428 61.7279 107.148V105.768C61.7279 105.368 61.6399 105.08 61.4639 104.904C61.2879 104.728 60.9919 104.64 60.5759 104.64C60.3439 104.64 60.0919 104.668 59.8199 104.724C59.5559 104.78 59.2759 104.876 58.9799 105.012C58.8279 105.084 58.6919 105.104 58.5719 105.072C58.4599 105.04 58.3719 104.976 58.3079 104.88C58.2439 104.776 58.2119 104.664 58.2119 104.544C58.2119 104.424 58.2439 104.308 58.3079 104.196C58.3719 104.076 58.4799 103.988 58.6319 103.932C58.9999 103.78 59.3519 103.672 59.6879 103.608C60.0319 103.544 60.3439 103.512 60.6239 103.512C61.1999 103.512 61.6719 103.6 62.0399 103.776C62.4159 103.952 62.6959 104.22 62.8799 104.58C63.0639 104.932 63.1559 105.388 63.1559 105.948V108.828C63.1559 109.076 63.0959 109.268 62.9759 109.404C62.8559 109.532 62.6839 109.596 62.4599 109.596C62.2359 109.596 62.0599 109.532 61.9319 109.404C61.8119 109.268 61.7519 109.076 61.7519 108.828V108.252H61.8479C61.7919 108.532 61.6799 108.776 61.5119 108.984C61.3519 109.184 61.1479 109.34 60.8999 109.452C60.6519 109.564 60.3679 109.62 60.0479 109.62ZM66.9344 109.62C66.4224 109.62 65.9704 109.496 65.5784 109.248C65.1944 109 64.8944 108.648 64.6784 108.192C64.4624 107.728 64.3544 107.184 64.3544 106.56C64.3544 105.928 64.4624 105.388 64.6784 104.94C64.8944 104.484 65.1944 104.132 65.5784 103.884C65.9704 103.636 66.4224 103.512 66.9344 103.512C67.4224 103.512 67.8464 103.632 68.2064 103.872C68.5744 104.112 68.8224 104.428 68.9504 104.82H68.8184V101.7C68.8184 101.452 68.8824 101.264 69.0104 101.136C69.1384 101.008 69.3224 100.944 69.5624 100.944C69.8024 100.944 69.9864 101.008 70.1144 101.136C70.2504 101.264 70.3184 101.452 70.3184 101.7V108.828C70.3184 109.076 70.2544 109.268 70.1264 109.404C69.9984 109.532 69.8144 109.596 69.5744 109.596C69.3344 109.596 69.1504 109.532 69.0224 109.404C68.8944 109.268 68.8304 109.076 68.8304 108.828V107.892L68.9624 108.252C68.8424 108.668 68.5984 109 68.2304 109.248C67.8624 109.496 67.4304 109.62 66.9344 109.62ZM67.3544 108.48C67.6504 108.48 67.9104 108.408 68.1344 108.264C68.3584 108.12 68.5304 107.908 68.6504 107.628C68.7784 107.34 68.8424 106.984 68.8424 106.56C68.8424 105.92 68.7064 105.444 68.4344 105.132C68.1624 104.812 67.8024 104.652 67.3544 104.652C67.0584 104.652 66.7984 104.724 66.5744 104.868C66.3504 105.004 66.1744 105.216 66.0464 105.504C65.9264 105.784 65.8664 106.136 65.8664 106.56C65.8664 107.192 66.0024 107.672 66.2744 108C66.5464 108.32 66.9064 108.48 67.3544 108.48ZM72.6178 109.584C72.3778 109.584 72.1938 109.512 72.0658 109.368C71.9378 109.224 71.8738 109.024 71.8738 108.768V104.364C71.8738 104.1 71.9378 103.9 72.0658 103.764C72.1938 103.62 72.3778 103.548 72.6178 103.548C72.8578 103.548 73.0418 103.62 73.1698 103.764C73.3058 103.9 73.3738 104.1 73.3738 104.364V108.768C73.3738 109.024 73.3098 109.224 73.1818 109.368C73.0538 109.512 72.8658 109.584 72.6178 109.584ZM72.6178 102.432C72.3378 102.432 72.1178 102.364 71.9578 102.228C71.8058 102.084 71.7298 101.888 71.7298 101.64C71.7298 101.384 71.8058 101.188 71.9578 101.052C72.1178 100.916 72.3378 100.848 72.6178 100.848C72.9058 100.848 73.1258 100.916 73.2778 101.052C73.4298 101.188 73.5058 101.384 73.5058 101.64C73.5058 101.888 73.4298 102.084 73.2778 102.228C73.1258 102.364 72.9058 102.432 72.6178 102.432ZM75.6763 109.596C75.4363 109.596 75.2523 109.532 75.1243 109.404C74.9963 109.268 74.9323 109.076 74.9323 108.828V104.292C74.9323 104.044 74.9963 103.856 75.1243 103.728C75.2523 103.6 75.4323 103.536 75.6643 103.536C75.8963 103.536 76.0763 103.6 76.2043 103.728C76.3323 103.856 76.3963 104.044 76.3963 104.292V105.108L76.2643 104.808C76.4403 104.384 76.7123 104.064 77.0803 103.848C77.4563 103.624 77.8803 103.512 78.3523 103.512C78.8243 103.512 79.2123 103.6 79.5163 103.776C79.8203 103.952 80.0483 104.22 80.2003 104.58C80.3523 104.932 80.4283 105.38 80.4283 105.924V108.828C80.4283 109.076 80.3643 109.268 80.2363 109.404C80.1083 109.532 79.9243 109.596 79.6843 109.596C79.4443 109.596 79.2563 109.532 79.1203 109.404C78.9923 109.268 78.9283 109.076 78.9283 108.828V105.996C78.9283 105.54 78.8403 105.208 78.6643 105C78.4963 104.792 78.2323 104.688 77.8723 104.688C77.4323 104.688 77.0803 104.828 76.8163 105.108C76.5603 105.38 76.4323 105.744 76.4323 106.2V108.828C76.4323 109.34 76.1803 109.596 75.6763 109.596ZM84.6879 111.78C84.2559 111.78 83.8359 111.74 83.4279 111.66C83.0279 111.58 82.6639 111.456 82.3359 111.288C82.1839 111.208 82.0799 111.112 82.0239 111C81.9759 110.888 81.9599 110.772 81.9759 110.652C81.9999 110.54 82.0479 110.44 82.1199 110.352C82.1999 110.264 82.2959 110.204 82.4079 110.172C82.5199 110.14 82.6359 110.156 82.7559 110.22C83.1079 110.396 83.4399 110.508 83.7519 110.556C84.0719 110.612 84.3439 110.64 84.5679 110.64C85.1039 110.64 85.5039 110.508 85.7679 110.244C86.0399 109.988 86.1759 109.604 86.1759 109.092V108.012H86.2839C86.1639 108.42 85.9119 108.748 85.5279 108.996C85.1519 109.236 84.7239 109.356 84.2439 109.356C83.7159 109.356 83.2559 109.236 82.8639 108.996C82.4719 108.748 82.1679 108.404 81.9519 107.964C81.7359 107.524 81.6279 107.012 81.6279 106.428C81.6279 105.988 81.6879 105.592 81.8079 105.24C81.9359 104.88 82.1119 104.572 82.3359 104.316C82.5679 104.06 82.8439 103.864 83.1639 103.728C83.4919 103.584 83.8519 103.512 84.2439 103.512C84.7399 103.512 85.1719 103.636 85.5399 103.884C85.9159 104.124 86.1599 104.444 86.2719 104.844L86.1519 105.144V104.292C86.1519 104.044 86.2159 103.856 86.3439 103.728C86.4799 103.6 86.6639 103.536 86.8959 103.536C87.1359 103.536 87.3199 103.6 87.4479 103.728C87.5759 103.856 87.6399 104.044 87.6399 104.292V108.912C87.6399 109.864 87.3879 110.58 86.8839 111.06C86.3799 111.54 85.6479 111.78 84.6879 111.78ZM84.6519 108.216C84.9639 108.216 85.2319 108.144 85.4559 108C85.6799 107.856 85.8519 107.652 85.9719 107.388C86.0999 107.116 86.1639 106.796 86.1639 106.428C86.1639 105.876 86.0279 105.444 85.7559 105.132C85.4839 104.812 85.1159 104.652 84.6519 104.652C84.3399 104.652 84.0719 104.724 83.8479 104.868C83.6239 105.012 83.4479 105.216 83.3199 105.48C83.1999 105.744 83.1399 106.06 83.1399 106.428C83.1399 106.98 83.2759 107.416 83.5479 107.736C83.8199 108.056 84.1879 108.216 84.6519 108.216Z" fill="#64728C"/>
<path d="M96.6279 109.596C96.3879 109.596 96.1999 109.532 96.0639 109.404C95.9279 109.268 95.8599 109.076 95.8599 108.828V107.892H92.8959C92.6479 107.892 92.4479 107.84 92.2959 107.736C92.1519 107.632 92.0799 107.468 92.0799 107.244C92.0799 107.116 92.1119 106.976 92.1759 106.824C92.2479 106.672 92.3719 106.472 92.5479 106.224L95.8359 101.46C95.9479 101.292 96.0719 101.164 96.2079 101.076C96.3439 100.988 96.4999 100.944 96.6759 100.944C96.8839 100.944 97.0559 101.008 97.1919 101.136C97.3279 101.256 97.3959 101.448 97.3959 101.712V106.62H97.9839C98.2159 106.62 98.3879 106.676 98.4999 106.788C98.6199 106.892 98.6799 107.048 98.6799 107.256C98.6799 107.464 98.6199 107.624 98.4999 107.736C98.3879 107.84 98.2159 107.892 97.9839 107.892H97.3959V108.828C97.3959 109.076 97.3279 109.268 97.1919 109.404C97.0559 109.532 96.8679 109.596 96.6279 109.596ZM95.8599 106.62V102.876H96.2079L93.3759 107.028V106.62H95.8599ZM102.539 109.62C102.115 109.62 101.683 109.564 101.243 109.452C100.803 109.34 100.399 109.168 100.031 108.936C99.8792 108.84 99.7752 108.728 99.7192 108.6C99.6712 108.464 99.6592 108.332 99.6832 108.204C99.7152 108.068 99.7752 107.956 99.8632 107.868C99.9592 107.772 100.071 107.716 100.199 107.7C100.335 107.684 100.483 107.72 100.643 107.808C100.939 107.976 101.239 108.104 101.543 108.192C101.847 108.28 102.171 108.324 102.515 108.324C102.851 108.324 103.139 108.264 103.379 108.144C103.619 108.024 103.803 107.856 103.931 107.64C104.059 107.424 104.123 107.172 104.123 106.884C104.123 106.436 103.987 106.076 103.715 105.804C103.443 105.524 103.071 105.384 102.599 105.384C102.343 105.384 102.095 105.428 101.855 105.516C101.615 105.596 101.379 105.74 101.147 105.948C101.075 106.012 100.983 106.076 100.871 106.14C100.759 106.196 100.639 106.224 100.511 106.224C100.311 106.224 100.159 106.172 100.055 106.068C99.9512 105.964 99.8992 105.82 99.8992 105.636V101.712C99.8992 101.496 99.9552 101.332 100.067 101.22C100.187 101.1 100.355 101.04 100.571 101.04H104.519C104.735 101.04 104.899 101.096 105.011 101.208C105.131 101.312 105.191 101.468 105.191 101.676C105.191 101.876 105.131 102.032 105.011 102.144C104.899 102.256 104.735 102.312 104.519 102.312H101.399V105H101.003C101.211 104.72 101.487 104.504 101.831 104.352C102.175 104.2 102.551 104.124 102.959 104.124C103.495 104.124 103.959 104.24 104.351 104.472C104.751 104.696 105.059 105.012 105.275 105.42C105.499 105.82 105.611 106.288 105.611 106.824C105.611 107.376 105.487 107.864 105.239 108.288C104.991 108.704 104.635 109.032 104.171 109.272C103.715 109.504 103.171 109.62 102.539 109.62ZM110.011 109.404C109.931 109.548 109.831 109.64 109.711 109.68C109.599 109.728 109.483 109.736 109.363 109.704C109.251 109.68 109.155 109.624 109.075 109.536C108.995 109.456 108.947 109.356 108.931 109.236C108.915 109.108 108.947 108.972 109.027 108.828L113.455 101.148C113.535 101.004 113.631 100.908 113.743 100.86C113.863 100.812 113.979 100.804 114.091 100.836C114.203 100.86 114.299 100.916 114.379 101.004C114.459 101.092 114.507 101.2 114.523 101.328C114.547 101.448 114.519 101.576 114.439 101.712L110.011 109.404ZM108.727 106.092C108.055 106.092 107.531 105.86 107.155 105.396C106.779 104.932 106.591 104.3 106.591 103.5C106.591 102.964 106.675 102.504 106.843 102.12C107.011 101.736 107.255 101.44 107.575 101.232C107.895 101.024 108.279 100.92 108.727 100.92C109.399 100.92 109.923 101.152 110.299 101.616C110.675 102.072 110.863 102.7 110.863 103.5C110.863 104.036 110.779 104.5 110.611 104.892C110.443 105.276 110.199 105.572 109.879 105.78C109.559 105.988 109.175 106.092 108.727 106.092ZM108.727 105.084C108.919 105.084 109.083 105.028 109.219 104.916C109.355 104.796 109.459 104.62 109.531 104.388C109.603 104.156 109.639 103.86 109.639 103.5C109.639 102.964 109.559 102.568 109.399 102.312C109.239 102.056 109.015 101.928 108.727 101.928C108.535 101.928 108.371 101.984 108.235 102.096C108.099 102.208 107.995 102.38 107.923 102.612C107.851 102.844 107.815 103.14 107.815 103.5C107.815 104.044 107.895 104.444 108.055 104.7C108.215 104.956 108.439 105.084 108.727 105.084ZM114.751 109.62C114.079 109.62 113.555 109.388 113.179 108.924C112.803 108.46 112.615 107.828 112.615 107.028C112.615 106.492 112.699 106.032 112.867 105.648C113.035 105.264 113.279 104.968 113.599 104.76C113.919 104.552 114.303 104.448 114.751 104.448C115.423 104.448 115.947 104.68 116.323 105.144C116.699 105.6 116.887 106.228 116.887 107.028C116.887 107.564 116.803 108.028 116.635 108.42C116.467 108.804 116.223 109.1 115.903 109.308C115.583 109.516 115.199 109.62 114.751 109.62ZM114.751 108.612C114.943 108.612 115.107 108.556 115.243 108.444C115.379 108.332 115.483 108.16 115.555 107.928C115.627 107.688 115.663 107.388 115.663 107.028C115.663 106.492 115.583 106.096 115.423 105.84C115.263 105.584 115.039 105.456 114.751 105.456C114.559 105.456 114.395 105.512 114.259 105.624C114.123 105.736 114.019 105.908 113.947 106.14C113.875 106.372 113.839 106.668 113.839 107.028C113.839 107.572 113.919 107.972 114.079 108.228C114.239 108.484 114.463 108.612 114.751 108.612Z" fill="#08838F"/>
</g>
</g>
<rect x="4.5" y="9" width="139" height="129" rx="13.5" stroke="#64728C" stroke-opacity="0.22"/>
</g>
<defs>
<filter id="filter0_d_1037_6824" x="0" y="0.5" width="148" height="138" filterUnits="userSpaceOnUse" color-interpolation-filters="sRGB">
<feFlood flood-opacity="0" result="BackgroundImageFix"/>
<feColorMatrix in="SourceAlpha" type="matrix" values="0 0 0 0 0 0 0 0 0 0 0 0 0 0 0 0 0 0 127 0" result="hardAlpha"/>
<feOffset dy="-4"/>
<feGaussianBlur stdDeviation="2"/>
<feComposite in2="hardAlpha" operator="out"/>
<feColorMatrix type="matrix" values="0 0 0 0 0 0 0 0 0 0 0 0 0 0 0 0 0 0 0.05 0"/>
<feBlend mode="normal" in2="BackgroundImageFix" result="effect1_dropShadow_1037_6824"/>
<feBlend mode="normal" in="SourceGraphic" in2="effect1_dropShadow_1037_6824" result="shape"/>
</filter>
<filter id="filter1_di_1037_6824" x="-1" y="-6.5" width="150" height="145" filterUnits="userSpaceOnUse" color-interpolation-filters="sRGB">
<feFlood flood-opacity="0" result="BackgroundImageFix"/>
<feColorMatrix in="SourceAlpha" type="matrix" values="0 0 0 0 0 0 0 0 0 0 0 0 0 0 0 0 0 0 127 0" result="hardAlpha"/>
<feOffset dy="-14"/>
<feGaussianBlur stdDeviation="2.5"/>
<feComposite in2="hardAlpha" operator="out"/>
<feColorMatrix type="matrix" values="0 0 0 0 0 0 0 0 0 0 0 0 0 0 0 0 0 0 0.05 0"/>
<feBlend mode="normal" in2="BackgroundImageFix" result="effect1_dropShadow_1037_6824"/>
<feBlend mode="normal" in="SourceGraphic" in2="effect1_dropShadow_1037_6824" result="shape"/>
<feColorMatrix in="SourceAlpha" type="matrix" values="0 0 0 0 0 0 0 0 0 0 0 0 0 0 0 0 0 0 127 0" result="hardAlpha"/>
<feOffset dy="-10"/>
<feGaussianBlur stdDeviation="2"/>
<feComposite in2="hardAlpha" operator="arithmetic" k2="-1" k3="1"/>
<feColorMatrix type="matrix" values="0 0 0 0 1 0 0 0 0 1 0 0 0 0 1 0 0 0 0.15 0"/>
<feBlend mode="normal" in2="shape" result="effect2_innerShadow_1037_6824"/>
</filter>
<linearGradient id="paint0_linear_1037_6824" x1="74" y1="12.5" x2="74" y2="138.5" gradientUnits="userSpaceOnUse">
<stop stop-color="#64728C" stop-opacity="0.04"/>
<stop offset="1" stop-color="#64728C" stop-opacity="0.15"/>
</linearGradient>
<linearGradient id="paint1_linear_1037_6824" x1="74" y1="12.5" x2="74" y2="138.5" gradientUnits="userSpaceOnUse">
<stop offset="0.345231" stop-color="#64728C" stop-opacity="0.03"/>
<stop offset="1" stop-color="#64728C" stop-opacity="0.37"/>
</linearGradient>
<clipPath id="clip0_1037_6824">
<rect x="4" y="8.5" width="140" height="130" rx="14" fill="white"/>
</clipPath>
</defs>
</svg>
