<svg width="171" height="145" viewBox="0 0 171 145" fill="none" xmlns="http://www.w3.org/2000/svg">
<path d="M65.0063 19.7483C65.0063 17.7389 66.6198 16.1099 68.6102 16.1099H80.3225L92.0349 27.9349V48.856C92.0349 50.8654 90.4214 52.4944 88.4311 52.4944H68.6102C66.6198 52.4944 65.0063 50.8654 65.0063 48.856V19.7483Z" fill="#FF5C00"/>
<path d="M65.0063 19.7483C65.0063 17.7389 66.6198 16.1099 68.6102 16.1099H80.3225L92.0349 27.9349V48.856C92.0349 50.8654 90.4214 52.4944 88.4311 52.4944H68.6102C66.6198 52.4944 65.0063 50.8654 65.0063 48.856V19.7483Z" fill="url(#paint0_linear_1347_5034)" fill-opacity="0.2"/>
<path d="M83.0254 27.9349H92.0349L80.3225 16.1099V25.206C80.3225 26.7131 81.5326 27.9349 83.0254 27.9349Z" fill="white" fill-opacity="0.5"/>
<path d="M70.6532 45.6723V39.057H73.2383C73.7353 39.057 74.1587 39.1528 74.5085 39.3444C74.8583 39.5339 75.1249 39.7977 75.3083 40.1358C75.4939 40.4718 75.5867 40.8594 75.5867 41.2987C75.5867 41.738 75.4928 42.1256 75.3051 42.4615C75.1174 42.7975 74.8455 43.0591 74.4893 43.2465C74.1352 43.4338 73.7065 43.5275 73.2031 43.5275H71.5554V42.4066H72.9792C73.2458 42.4066 73.4655 42.3603 73.6382 42.2677C73.8131 42.173 73.9432 42.0427 74.0286 41.8769C74.116 41.7089 74.1597 41.5162 74.1597 41.2987C74.1597 41.079 74.116 40.8874 74.0286 40.7237C73.9432 40.5579 73.8131 40.4298 73.6382 40.3393C73.4633 40.2467 73.2415 40.2004 72.9728 40.2004H72.0385V45.6723H70.6532Z" fill="white"/>
<path d="M76.3063 45.6723V39.057H78.8914C79.3884 39.057 79.8118 39.1528 80.1616 39.3444C80.5114 39.5339 80.778 39.7977 80.9614 40.1358C81.147 40.4718 81.2398 40.8594 81.2398 41.2987C81.2398 41.738 81.1459 42.1256 80.9582 42.4615C80.7705 42.7975 80.4986 43.0591 80.1424 43.2465C79.7883 43.4338 79.3596 43.5275 78.8562 43.5275H77.2085V42.4066H78.6323C78.8989 42.4066 79.1186 42.3603 79.2914 42.2677C79.4663 42.173 79.5964 42.0427 79.6817 41.8769C79.7691 41.7089 79.8129 41.5162 79.8129 41.2987C79.8129 41.079 79.7691 40.8874 79.6817 40.7237C79.5964 40.5579 79.4663 40.4298 79.2914 40.3393C79.1165 40.2467 78.8946 40.2004 78.6259 40.2004H77.6917V45.6723H76.3063Z" fill="white"/>
<path d="M81.7099 40.2101V39.057H87.0913V40.2101H85.0852V45.6723H83.7159V40.2101H81.7099Z" fill="white"/>
<path d="M108.603 13.54C109.046 11.5145 111.046 10.2313 113.072 10.6739L124.991 13.2782L134.306 27.8017L129.698 48.8894C129.255 50.9149 127.255 52.1981 125.229 51.7555L105.058 47.3481C103.033 46.9056 101.75 44.9048 102.192 42.8794L108.603 13.54Z" fill="#057FF0"/>
<path d="M108.603 13.54C109.046 11.5145 111.046 10.2313 113.072 10.6739L124.991 13.2782L134.306 27.8017L129.698 48.8894C129.255 50.9149 127.255 52.1981 125.229 51.7555L105.058 47.3481C103.033 46.9056 101.75 44.9048 102.192 42.8794L108.603 13.54Z" fill="url(#paint1_linear_1347_5034)" fill-opacity="0.2"/>
<path d="M125.137 25.7984L134.306 27.8017L124.991 13.2782L122.988 22.4468C122.656 23.9659 123.618 25.4665 125.137 25.7984Z" fill="white" fill-opacity="0.5"/>
<path d="M109.634 41.1432L107.27 40.6267L108.727 33.9586L111.11 34.4794C111.781 34.6259 112.329 34.8856 112.755 35.2583C113.181 35.6289 113.47 36.0912 113.622 36.6452C113.776 37.1996 113.777 37.8231 113.626 38.5155C113.474 39.2101 113.213 39.7783 112.841 40.2201C112.471 40.6624 112.013 40.9637 111.466 41.124C110.922 41.2847 110.311 41.2911 109.634 41.1432ZM108.944 39.7268L109.839 39.9224C110.256 40.0135 110.623 40.0163 110.939 39.9308C111.258 39.8436 111.524 39.6594 111.735 39.3782C111.95 39.0952 112.111 38.7052 112.22 38.2081C112.327 37.7154 112.342 37.2969 112.265 36.9525C112.19 36.6087 112.027 36.3319 111.775 36.1221C111.523 35.9124 111.188 35.762 110.772 35.671L109.873 35.4746L108.944 39.7268Z" fill="white"/>
<path d="M120.613 40.049C120.454 40.7761 120.181 41.3646 119.794 41.8145C119.409 42.2648 118.951 42.5729 118.419 42.7386C117.889 42.9027 117.331 42.9204 116.742 42.7919C116.15 42.6624 115.647 42.4117 115.235 42.0396C114.823 41.6675 114.536 41.1966 114.374 40.6267C114.212 40.0569 114.21 39.4095 114.368 38.6845C114.527 37.9573 114.799 37.3686 115.184 36.9183C115.569 36.4679 116.026 36.1607 116.556 35.9967C117.085 35.8304 117.647 35.8121 118.239 35.9415C118.827 36.0701 119.328 36.3204 119.74 36.6924C120.155 37.0628 120.443 37.5329 120.605 38.1028C120.769 38.6731 120.772 39.3218 120.613 40.049ZM119.184 39.7367C119.287 39.2657 119.303 38.853 119.233 38.4988C119.164 38.145 119.022 37.8568 118.804 37.6342C118.587 37.4116 118.308 37.263 117.967 37.1886C117.626 37.1141 117.31 37.1327 117.02 37.2443C116.729 37.356 116.478 37.5581 116.267 37.8507C116.057 38.1437 115.901 38.5258 115.798 38.9968C115.695 39.4678 115.678 39.8802 115.746 40.234C115.816 40.5882 115.96 40.8767 116.178 41.0993C116.395 41.3219 116.674 41.4705 117.015 41.5449C117.356 41.6194 117.671 41.6008 117.962 41.4891C118.252 41.3775 118.502 41.1751 118.712 40.8821C118.924 40.5895 119.081 40.2077 119.184 39.7367Z" fill="white"/>
<path d="M127.576 40.5231L126.15 40.2115C126.164 40.0213 126.147 39.8458 126.098 39.685C126.049 39.522 125.973 39.3757 125.87 39.2462C125.766 39.1167 125.638 39.0068 125.484 38.9165C125.334 38.8266 125.163 38.7608 124.972 38.7191C124.626 38.6437 124.307 38.6638 124.013 38.7793C123.72 38.8926 123.468 39.0967 123.255 39.3914C123.044 39.684 122.887 40.0615 122.786 40.5238C122.682 40.9992 122.666 41.414 122.736 41.7682C122.809 42.1229 122.955 42.4108 123.175 42.6317C123.395 42.8526 123.673 42.9998 124.01 43.0733C124.199 43.1146 124.379 43.1278 124.55 43.113C124.724 43.0986 124.884 43.0575 125.031 42.9895C125.178 42.9193 125.308 42.8238 125.421 42.7029C125.536 42.5825 125.63 42.4368 125.701 42.2659L127.126 42.584C127.022 42.882 126.865 43.1571 126.655 43.4092C126.448 43.6596 126.197 43.8695 125.9 44.039C125.607 44.2068 125.275 44.3186 124.906 44.3744C124.539 44.4285 124.142 44.4088 123.715 44.3154C123.12 44.1854 122.618 43.9346 122.207 43.563C121.8 43.1919 121.516 42.7217 121.356 42.1523C121.198 41.5834 121.199 40.9365 121.357 40.2115C121.516 39.4843 121.788 38.8956 122.173 38.4453C122.558 37.9949 123.014 37.6875 123.541 37.523C124.069 37.3563 124.625 37.3369 125.211 37.465C125.598 37.5494 125.944 37.6819 126.25 37.8626C126.559 38.0436 126.818 38.2664 127.029 38.5307C127.24 38.7929 127.393 39.0913 127.488 39.4259C127.586 39.761 127.615 40.1267 127.576 40.5231Z" fill="white"/>
<path d="M55.8147 5.51161C55.724 3.43359 57.335 1.67546 59.413 1.58471L71.6414 1.05067L84.4038 12.7451L85.3487 34.3799C85.4394 36.458 83.8284 38.2161 81.7504 38.3069L61.0562 39.2106C58.9781 39.3014 57.22 37.6904 57.1292 35.6123L55.8147 5.51161Z" fill="#EB0910"/>
<path d="M55.8147 5.51161C55.724 3.43359 57.335 1.67546 59.413 1.58471L71.6414 1.05067L84.4038 12.7451L85.3487 34.3799C85.4394 36.458 83.8284 38.2161 81.7504 38.3069L61.0562 39.2106C58.9781 39.3014 57.22 37.6904 57.1292 35.6123L55.8147 5.51161Z" fill="url(#paint2_linear_1347_5034)" fill-opacity="0.2"/>
<path d="M74.9974 13.1559L84.4038 12.7451L71.6414 1.05067L72.0522 10.4571C72.1203 12.0157 73.4389 13.2239 74.9974 13.1559Z" fill="white" fill-opacity="0.5"/>
<path d="M62.8949 32.062L62.5961 25.2209L65.2952 25.1031C65.814 25.0804 66.2604 25.1602 66.6343 25.3424C67.008 25.5224 67.2983 25.7831 67.5051 26.1243C67.714 26.4633 67.8284 26.8599 67.8482 27.3142C67.8681 27.7685 67.7876 28.1736 67.6068 28.5296C67.426 28.8855 67.1539 29.1685 66.7904 29.3785C66.4292 29.5884 65.9859 29.7048 65.4603 29.7277L63.74 29.8029L63.6894 28.6437L65.1759 28.5788C65.4542 28.5667 65.6815 28.5088 65.8577 28.4051C66.036 28.2992 66.166 28.1585 66.2476 27.9832C66.3313 27.8055 66.3682 27.6042 66.3584 27.3793C66.3485 27.1521 66.2942 26.9559 66.1955 26.7906C66.0989 26.6231 65.9573 26.4965 65.7706 26.4109C65.5838 26.3232 65.3501 26.2854 65.0695 26.2976L64.0942 26.3402L64.3413 31.9988L62.8949 32.062Z" fill="white"/>
<path d="M71.2222 31.6983L68.7971 31.8042L68.4983 24.9632L70.9435 24.8564C71.6316 24.8263 72.2299 24.9374 72.7385 25.1896C73.247 25.4396 73.646 25.8138 73.9355 26.3121C74.2272 26.8103 74.3886 27.4146 74.4196 28.1249C74.4507 28.8376 74.3427 29.4558 74.0956 29.9798C73.8508 30.5037 73.4838 30.9135 72.9947 31.2093C72.5078 31.505 71.917 31.668 71.2222 31.6983ZM70.1894 30.5018L71.108 30.4617C71.5355 30.443 71.8919 30.3516 72.177 30.1874C72.4642 30.0209 72.6743 29.7741 72.8073 29.447C72.9424 29.1176 72.9988 28.6979 72.9765 28.188C72.9545 27.6825 72.8618 27.2726 72.6986 26.9585C72.5376 26.6442 72.308 26.4177 72.0096 26.279C71.7113 26.1403 71.3483 26.0803 70.9208 26.099L69.9988 26.1393L70.1894 30.5018Z" fill="white"/>
<path d="M75.4525 31.5136L75.1538 24.6725L79.6833 24.4747L79.7354 25.6672L76.6522 25.8019L76.7234 27.432L79.506 27.3104L79.558 28.503L76.7755 28.6245L76.8989 31.4504L75.4525 31.5136Z" fill="white"/>
<path d="M27.7929 10.3001C27.355 7.87048 28.9543 5.54864 31.3651 5.11413L45.5518 2.55718L62.3153 14.2977L66.8745 39.5932C67.3124 42.0228 65.7131 44.3447 63.3023 44.7792L39.2941 49.1063C36.8833 49.5409 34.574 47.9235 34.1361 45.4939L27.7929 10.3001Z" fill="#0DB664"/>
<path d="M27.7929 10.3001C27.355 7.87048 28.9543 5.54864 31.3651 5.11413L45.5518 2.55718L62.3153 14.2977L66.8745 39.5932C67.3124 42.0228 65.7131 44.3447 63.3023 44.7792L39.2941 49.1063C36.8833 49.5409 34.574 47.9235 34.1361 45.4939L27.7929 10.3001Z" fill="url(#paint3_linear_1347_5034)" fill-opacity="0.2"/>
<path d="M51.4025 16.2646L62.3153 14.2977L45.5518 2.55718L47.534 13.5552C47.8624 15.3774 49.5944 16.5905 51.4025 16.2646Z" fill="white" fill-opacity="0.5"/>
<path d="M41.9329 31.8558L43.5915 31.5569L44.5967 37.134C44.6897 37.6495 44.6554 38.1181 44.494 38.5397C44.3351 38.9608 44.0715 39.3108 43.7029 39.5896C43.3344 39.8684 42.8814 40.0562 42.3441 40.153C41.8661 40.2392 41.4168 40.2328 40.9962 40.1339C40.5777 40.0319 40.2233 39.8269 39.9331 39.519C39.6424 39.2085 39.4505 38.7874 39.3573 38.2558L41.0276 37.9547C41.0707 38.1647 41.146 38.338 41.2533 38.4746C41.3627 38.6081 41.4958 38.7024 41.6524 38.7575C41.8111 38.8095 41.9887 38.8178 42.185 38.7824C42.3917 38.7452 42.5581 38.6695 42.6843 38.5554C42.8125 38.4382 42.8984 38.2856 42.9419 38.0976C42.9854 37.9097 42.9841 37.6881 42.9381 37.433L41.9329 31.8558Z" fill="white"/>
<path d="M46.2023 39.3447L44.7606 31.3462L47.8919 30.7818C48.4938 30.6733 49.0275 30.6967 49.493 30.8521C49.958 31.0049 50.3384 31.2656 50.6343 31.6343C50.9322 32 51.1291 32.4484 51.2248 32.9796C51.3206 33.5107 51.2914 33.9999 51.1372 34.447C50.9831 34.8942 50.7107 35.2699 50.3201 35.5742C49.932 35.878 49.4332 36.0849 48.8235 36.1948L46.8277 36.5545L46.5834 35.1993L48.3079 34.8884C48.6309 34.8302 48.8869 34.7263 49.076 34.5766C49.2672 34.4239 49.3964 34.2379 49.4636 34.0188C49.5329 33.7967 49.5439 33.5541 49.4965 33.2911C49.4486 33.0255 49.3539 32.8033 49.2123 32.6245C49.0728 32.4427 48.8873 32.3162 48.6557 32.245C48.4237 32.1712 48.1449 32.1637 47.8194 32.2223L46.6878 32.4263L47.8803 39.0423L46.2023 39.3447Z" fill="white"/>
<path d="M57.3366 31.749C57.2481 31.5687 57.1416 31.4145 57.0172 31.2864C56.8922 31.1557 56.7496 31.0523 56.5892 30.9764C56.4309 30.8974 56.2564 30.8469 56.0657 30.8248C55.8776 30.8022 55.675 30.8105 55.458 30.8496C55.0524 30.9227 54.7142 31.0885 54.4433 31.347C54.1751 31.6051 53.9907 31.9434 53.8901 32.3621C53.789 32.7782 53.7887 33.2648 53.8891 33.822C53.9896 34.3792 54.1589 34.838 54.3973 35.1982C54.6356 35.5585 54.927 35.8138 55.2715 35.9641C55.6155 36.1118 55.9968 36.1479 56.4154 36.0725C56.7951 36.004 57.1072 35.8779 57.3515 35.6941C57.5979 35.5072 57.7696 35.2759 57.8666 35.0004C57.9662 34.7243 57.9853 34.4158 57.9238 34.0747L58.274 34.064L56.2279 34.4328L55.9984 33.1596L59.3195 32.561L59.5011 33.5686C59.6278 34.2716 59.5894 34.9022 59.386 35.4604C59.182 36.016 58.8463 36.4771 58.3789 36.8436C57.911 37.2075 57.3438 37.4495 56.6772 37.5697C55.9332 37.7038 55.2497 37.6563 54.6269 37.4271C54.0036 37.1953 53.4793 36.8019 53.0538 36.2469C52.6304 35.6887 52.3427 34.9879 52.1907 34.1443C52.0738 33.4959 52.0627 32.9012 52.1572 32.3599C52.2538 31.8156 52.4394 31.3359 52.714 30.9208C52.9886 30.5057 53.3341 30.1652 53.7503 29.8993C54.1665 29.6334 54.6368 29.4532 55.1613 29.3587C55.6108 29.2777 56.0413 29.2686 56.4528 29.3316C56.8638 29.3919 57.2407 29.5148 57.5836 29.7004C57.929 29.8854 58.2271 30.1261 58.4779 30.4223C58.7282 30.7159 58.9162 31.0557 59.0417 31.4417L57.3366 31.749Z" fill="white"/>
<path d="M86.6736 13.4678C86.9825 11.4822 88.8272 10.1206 90.7939 10.4266L102.367 12.2272L112.122 25.7122L108.906 46.3846C108.597 48.3702 106.752 49.7318 104.786 49.4258L85.2003 46.3786C83.2337 46.0727 81.8898 44.215 82.1987 42.2294L86.6736 13.4678Z" fill="#FFBA35"/>
<path d="M86.6736 13.4678C86.9825 11.4822 88.8272 10.1206 90.7939 10.4266L102.367 12.2272L112.122 25.7122L108.906 46.3846C108.597 48.3702 106.752 49.7318 104.786 49.4258L85.2003 46.3786C83.2337 46.0727 81.8898 44.215 82.1987 42.2294L86.6736 13.4678Z" fill="url(#paint4_linear_1347_5034)" fill-opacity="0.2"/>
<path d="M103.22 24.3271L112.122 25.7122L102.367 12.2272L100.969 21.2152C100.737 22.7044 101.745 24.0976 103.22 24.3271Z" fill="white" fill-opacity="0.5"/>
<path d="M93.7851 36.459L92.4004 36.2436C92.4033 36.0588 92.3766 35.8901 92.3205 35.7375C92.2647 35.5828 92.1834 35.446 92.0768 35.3269C91.9701 35.2079 91.8408 35.1093 91.6889 35.0312C91.5391 34.9534 91.3715 34.9001 91.186 34.8713C90.8509 34.8191 90.5459 34.8578 90.2711 34.9872C89.9966 35.1144 89.766 35.327 89.5793 35.6249C89.393 35.9206 89.2646 36.2951 89.1941 36.7483C89.1216 37.2143 89.1292 37.6165 89.2168 37.9549C89.3066 38.2936 89.4632 38.5631 89.6868 38.7635C89.9103 38.9639 90.1854 39.0895 90.5121 39.1404C90.6955 39.1689 90.8689 39.1708 91.0325 39.1461C91.1982 39.1218 91.3494 39.0723 91.4862 38.9977C91.6234 38.921 91.7426 38.8208 91.8438 38.697C91.9472 38.5736 92.0283 38.4272 92.0871 38.2576L93.4707 38.4794C93.3882 38.7739 93.2536 39.0493 93.067 39.3058C92.8827 39.5604 92.6534 39.7786 92.379 39.9604C92.1071 40.1404 91.7958 40.2685 91.445 40.3447C91.0967 40.4191 90.715 40.424 90.2998 40.3594C89.7223 40.2695 89.2265 40.0573 88.8123 39.7226C88.4002 39.3882 88.1013 38.9505 87.9157 38.4095C87.7321 37.8688 87.6957 37.2431 87.8062 36.5324C87.9171 35.8196 88.1443 35.2338 88.4876 34.7751C88.831 34.3163 89.2506 33.9915 89.7466 33.8006C90.2429 33.6076 90.7755 33.5554 91.3446 33.6439C91.7197 33.7023 92.0592 33.8096 92.363 33.9658C92.6689 34.1224 92.9303 34.3221 93.1472 34.5651C93.3645 34.8059 93.5282 35.0853 93.6385 35.4032C93.7509 35.7214 93.7998 36.0734 93.7851 36.459Z" fill="white"/>
<path d="M96.1144 34.4775L96.9066 39.6874L96.9667 39.6967L99.3074 34.9743L100.825 35.2104L97.5759 41.3999L95.8119 41.1254L94.5938 34.241L96.1144 34.4775Z" fill="white"/>
<path d="M104.646 37.7303C104.661 37.4689 104.583 37.252 104.414 37.0796C104.244 36.9072 103.995 36.7954 103.666 36.7443C103.443 36.7095 103.249 36.7121 103.085 36.752C102.922 36.7898 102.79 36.8576 102.691 36.9555C102.594 37.0536 102.534 37.173 102.512 37.3134C102.49 37.4298 102.498 37.5357 102.537 37.6311C102.578 37.7269 102.642 37.8141 102.726 37.8926C102.812 37.9691 102.913 38.0404 103.03 38.1066C103.147 38.1706 103.274 38.2296 103.41 38.2835L103.97 38.5144C104.243 38.6222 104.489 38.7476 104.708 38.8907C104.928 39.0339 105.112 39.1965 105.26 39.3787C105.409 39.561 105.514 39.7648 105.576 39.9902C105.641 40.2159 105.653 40.4652 105.612 40.7378C105.548 41.1375 105.393 41.4686 105.147 41.7311C104.903 41.9918 104.582 42.1738 104.181 42.2772C103.783 42.3787 103.321 42.3885 102.794 42.3066C102.271 42.2252 101.829 42.0736 101.466 41.8515C101.106 41.6298 100.842 41.3435 100.674 40.9927C100.508 40.6401 100.457 40.2278 100.52 39.7559L101.844 39.962C101.825 40.1835 101.859 40.3761 101.945 40.54C102.035 40.7021 102.166 40.8348 102.34 40.9381C102.516 41.0396 102.723 41.1088 102.959 41.1455C103.19 41.1816 103.397 41.1788 103.578 41.1373C103.762 41.0961 103.91 41.0222 104.024 40.9157C104.138 40.8092 104.207 40.6772 104.231 40.5197C104.254 40.3729 104.23 40.2428 104.159 40.1293C104.091 40.0162 103.979 39.9117 103.826 39.8159C103.675 39.7204 103.485 39.6256 103.258 39.5314L102.581 39.243C102.056 39.024 101.658 38.7474 101.386 38.4131C101.114 38.0788 101.017 37.6703 101.094 37.1876C101.154 36.7915 101.312 36.4619 101.569 36.1989C101.827 35.9363 102.155 35.7508 102.552 35.6426C102.949 35.5343 103.383 35.5169 103.855 35.5904C104.336 35.6651 104.742 35.8134 105.075 36.0351C105.409 36.2571 105.654 36.5316 105.808 36.8585C105.962 37.1854 106.012 37.5441 105.958 37.9345L104.646 37.7303Z" fill="white"/>
<g filter="url(#filter0_bd_1347_5034)">
<g clip-path="url(#clip0_1347_5034)">
<rect x="4" y="32" width="152" height="113" rx="14" fill="#E8EAEF" fill-opacity="0.5" shape-rendering="crispEdges"/>
<g filter="url(#filter1_bdd_1347_5034)">
<rect x="4" y="36" width="152" height="109" rx="14" fill="white" fill-opacity="0.7" shape-rendering="crispEdges"/>
<rect x="4" y="36" width="152" height="109" rx="14" fill="url(#paint5_linear_1347_5034)" fill-opacity="0.1" shape-rendering="crispEdges"/>
<rect x="4.5" y="36.5" width="151" height="108" rx="13.5" stroke="url(#paint6_linear_1347_5034)" stroke-opacity="0.2" shape-rendering="crispEdges"/>
<path d="M78.95 84.55C79.1 84.7 79.25 84.85 79.4 84.85C79.55 85 79.85 85 80 85C80.15 85 80.45 85 80.6 84.85C80.75 84.7 80.9 84.7 81.05 84.55L87.05 78.55C87.65 77.95 87.65 77.05 87.05 76.45C86.45 75.85 85.55 75.85 84.95 76.45L81.5 79.9V68.5C81.5 67.6 80.9 67 80 67C79.1 67 78.5 67.6 78.5 68.5V79.9L75.05 76.45C74.45 75.85 73.55 75.85 72.95 76.45C72.35 77.05 72.35 77.95 72.95 78.55L78.95 84.55Z" fill="#64728C"/>
<path d="M90.5 80.5C89.6 80.5 89 81.1 89 82V85C89 86.65 87.65 88 86 88H74C72.35 88 71 86.65 71 85V82C71 81.1 70.4 80.5 69.5 80.5C68.6 80.5 68 81.1 68 82V85C68 88.3 70.7 91 74 91H86C89.3 91 92 88.3 92 85V82C92 81.1 91.4 80.5 90.5 80.5Z" fill="#64728C"/>
<path d="M30.596 116C30.34 116 30.152 115.944 30.032 115.832C29.92 115.712 29.864 115.54 29.864 115.316C29.864 115.18 29.9 115.048 29.972 114.92C30.044 114.792 30.148 114.656 30.284 114.512L32.696 111.944C33.064 111.56 33.328 111.212 33.488 110.9C33.648 110.58 33.728 110.26 33.728 109.94C33.728 109.54 33.6 109.236 33.344 109.028C33.096 108.82 32.732 108.716 32.252 108.716C31.98 108.716 31.708 108.756 31.436 108.836C31.164 108.908 30.888 109.036 30.608 109.22C30.464 109.316 30.328 109.356 30.2 109.34C30.08 109.324 29.972 109.272 29.876 109.184C29.788 109.096 29.728 108.988 29.696 108.86C29.664 108.732 29.668 108.604 29.708 108.476C29.756 108.34 29.852 108.224 29.996 108.128C30.34 107.896 30.724 107.72 31.148 107.6C31.58 107.48 32.012 107.42 32.444 107.42C33.052 107.42 33.564 107.512 33.98 107.696C34.396 107.88 34.712 108.148 34.928 108.5C35.144 108.852 35.252 109.28 35.252 109.784C35.252 110.12 35.196 110.448 35.084 110.768C34.98 111.088 34.816 111.412 34.592 111.74C34.376 112.068 34.092 112.416 33.74 112.784L31.484 115.136V114.728H35.012C35.228 114.728 35.392 114.78 35.504 114.884C35.616 114.988 35.672 115.144 35.672 115.352C35.672 115.56 35.616 115.72 35.504 115.832C35.392 115.944 35.228 116 35.012 116H30.596ZM39.8673 116.12C39.4433 116.12 39.0113 116.064 38.5713 115.952C38.1313 115.84 37.7273 115.668 37.3593 115.436C37.2073 115.34 37.1033 115.228 37.0473 115.1C36.9993 114.964 36.9873 114.832 37.0113 114.704C37.0433 114.568 37.1033 114.456 37.1913 114.368C37.2873 114.272 37.3993 114.216 37.5273 114.2C37.6633 114.184 37.8113 114.22 37.9713 114.308C38.2673 114.476 38.5673 114.604 38.8713 114.692C39.1753 114.78 39.4993 114.824 39.8433 114.824C40.1793 114.824 40.4673 114.764 40.7073 114.644C40.9473 114.524 41.1313 114.356 41.2593 114.14C41.3873 113.924 41.4513 113.672 41.4513 113.384C41.4513 112.936 41.3153 112.576 41.0433 112.304C40.7713 112.024 40.3993 111.884 39.9273 111.884C39.6713 111.884 39.4233 111.928 39.1833 112.016C38.9433 112.096 38.7073 112.24 38.4753 112.448C38.4033 112.512 38.3113 112.576 38.1993 112.64C38.0873 112.696 37.9673 112.724 37.8393 112.724C37.6393 112.724 37.4873 112.672 37.3833 112.568C37.2793 112.464 37.2273 112.32 37.2273 112.136V108.212C37.2273 107.996 37.2833 107.832 37.3953 107.72C37.5153 107.6 37.6833 107.54 37.8993 107.54H41.8473C42.0633 107.54 42.2273 107.596 42.3393 107.708C42.4593 107.812 42.5193 107.968 42.5193 108.176C42.5193 108.376 42.4593 108.532 42.3393 108.644C42.2273 108.756 42.0633 108.812 41.8473 108.812H38.7273V111.5H38.3313C38.5393 111.22 38.8153 111.004 39.1593 110.852C39.5033 110.7 39.8793 110.624 40.2873 110.624C40.8233 110.624 41.2873 110.74 41.6793 110.972C42.0793 111.196 42.3873 111.512 42.6033 111.92C42.8273 112.32 42.9393 112.788 42.9393 113.324C42.9393 113.876 42.8153 114.364 42.5673 114.788C42.3193 115.204 41.9633 115.532 41.4993 115.772C41.0433 116.004 40.4993 116.12 39.8673 116.12ZM48.3644 116.096C48.1164 116.096 47.9204 116.028 47.7764 115.892C47.6404 115.748 47.5724 115.544 47.5724 115.28V108.356C47.5724 108.092 47.6404 107.892 47.7764 107.756C47.9204 107.612 48.1244 107.54 48.3884 107.54H52.5764C52.7844 107.54 52.9404 107.592 53.0444 107.696C53.1484 107.8 53.2004 107.948 53.2004 108.14C53.2004 108.34 53.1484 108.496 53.0444 108.608C52.9404 108.712 52.7844 108.764 52.5764 108.764H49.1084V111.152H52.3244C52.5244 111.152 52.6764 111.204 52.7804 111.308C52.8924 111.412 52.9484 111.56 52.9484 111.752C52.9484 111.952 52.8924 112.108 52.7804 112.22C52.6764 112.324 52.5244 112.376 52.3244 112.376H49.1084V115.28C49.1084 115.824 48.8604 116.096 48.3644 116.096ZM55.3912 116.084C55.1512 116.084 54.9672 116.012 54.8392 115.868C54.7112 115.724 54.6472 115.524 54.6472 115.268V110.864C54.6472 110.6 54.7112 110.4 54.8392 110.264C54.9672 110.12 55.1512 110.048 55.3912 110.048C55.6312 110.048 55.8152 110.12 55.9432 110.264C56.0792 110.4 56.1472 110.6 56.1472 110.864V115.268C56.1472 115.524 56.0832 115.724 55.9552 115.868C55.8272 116.012 55.6392 116.084 55.3912 116.084ZM55.3912 108.932C55.1112 108.932 54.8912 108.864 54.7312 108.728C54.5792 108.584 54.5032 108.388 54.5032 108.14C54.5032 107.884 54.5792 107.688 54.7312 107.552C54.8912 107.416 55.1112 107.348 55.3912 107.348C55.6792 107.348 55.8992 107.416 56.0512 107.552C56.2032 107.688 56.2792 107.884 56.2792 108.14C56.2792 108.388 56.2032 108.584 56.0512 108.728C55.8992 108.864 55.6792 108.932 55.3912 108.932ZM59.7098 116.12C59.0458 116.12 58.5458 115.932 58.2098 115.556C57.8738 115.172 57.7058 114.612 57.7058 113.876V108.2C57.7058 107.952 57.7698 107.764 57.8978 107.636C58.0258 107.508 58.2098 107.444 58.4498 107.444C58.6898 107.444 58.8738 107.508 59.0018 107.636C59.1378 107.764 59.2058 107.952 59.2058 108.2V113.804C59.2058 114.172 59.2818 114.444 59.4338 114.62C59.5938 114.796 59.8178 114.884 60.1058 114.884C60.1698 114.884 60.2298 114.884 60.2858 114.884C60.3418 114.876 60.3978 114.868 60.4538 114.86C60.5658 114.844 60.6418 114.876 60.6818 114.956C60.7218 115.028 60.7418 115.18 60.7418 115.412C60.7418 115.612 60.7018 115.768 60.6218 115.88C60.5418 115.992 60.4098 116.06 60.2258 116.084C60.1458 116.092 60.0618 116.1 59.9738 116.108C59.8858 116.116 59.7978 116.12 59.7098 116.12ZM64.3712 116.12C63.7072 116.12 63.1352 115.996 62.6552 115.748C62.1752 115.5 61.8032 115.148 61.5392 114.692C61.2832 114.236 61.1552 113.696 61.1552 113.072C61.1552 112.464 61.2792 111.932 61.5272 111.476C61.7832 111.02 62.1312 110.664 62.5712 110.408C63.0192 110.144 63.5272 110.012 64.0952 110.012C64.5112 110.012 64.8832 110.08 65.2112 110.216C65.5472 110.352 65.8312 110.548 66.0632 110.804C66.3032 111.06 66.4832 111.372 66.6032 111.74C66.7312 112.1 66.7952 112.508 66.7952 112.964C66.7952 113.108 66.7432 113.22 66.6392 113.3C66.5432 113.372 66.4032 113.408 66.2192 113.408H62.3672V112.544H65.7392L65.5472 112.724C65.5472 112.356 65.4912 112.048 65.3792 111.8C65.2752 111.552 65.1192 111.364 64.9112 111.236C64.7112 111.1 64.4592 111.032 64.1552 111.032C63.8192 111.032 63.5312 111.112 63.2912 111.272C63.0592 111.424 62.8792 111.644 62.7512 111.932C62.6312 112.212 62.5712 112.548 62.5712 112.94V113.024C62.5712 113.68 62.7232 114.172 63.0272 114.5C63.3392 114.82 63.7952 114.98 64.3952 114.98C64.6032 114.98 64.8352 114.956 65.0912 114.908C65.3552 114.852 65.6032 114.76 65.8352 114.632C66.0032 114.536 66.1512 114.496 66.2792 114.512C66.4072 114.52 66.5072 114.564 66.5792 114.644C66.6592 114.724 66.7072 114.824 66.7232 114.944C66.7392 115.056 66.7152 115.172 66.6512 115.292C66.5952 115.412 66.4952 115.516 66.3512 115.604C66.0712 115.78 65.7472 115.912 65.3792 116C65.0192 116.08 64.6832 116.12 64.3712 116.12ZM70.1311 116.12C69.7871 116.12 69.4231 116.084 69.0391 116.012C68.6551 115.94 68.3111 115.816 68.0071 115.64C67.8791 115.56 67.7871 115.468 67.7311 115.364C67.6831 115.252 67.6631 115.144 67.6711 115.04C67.6871 114.928 67.7271 114.832 67.7911 114.752C67.8631 114.672 67.9511 114.62 68.0551 114.596C68.1671 114.572 68.2871 114.592 68.4151 114.656C68.7351 114.808 69.0351 114.916 69.3151 114.98C69.5951 115.036 69.8711 115.064 70.1431 115.064C70.5271 115.064 70.8111 115 70.9951 114.872C71.1871 114.736 71.2831 114.56 71.2831 114.344C71.2831 114.16 71.2191 114.02 71.0911 113.924C70.9711 113.82 70.7871 113.744 70.5391 113.696L69.3391 113.468C68.8431 113.372 68.4631 113.192 68.1991 112.928C67.9431 112.656 67.8151 112.308 67.8151 111.884C67.8151 111.5 67.9191 111.168 68.1271 110.888C68.3431 110.608 68.6391 110.392 69.0151 110.24C69.3911 110.088 69.8231 110.012 70.3111 110.012C70.6631 110.012 70.9911 110.052 71.2951 110.132C71.6071 110.204 71.9071 110.32 72.1951 110.48C72.3151 110.544 72.3951 110.628 72.4351 110.732C72.4831 110.836 72.4951 110.944 72.4711 111.056C72.4471 111.16 72.3991 111.256 72.3271 111.344C72.2551 111.424 72.1631 111.476 72.0511 111.5C71.9471 111.516 71.8271 111.492 71.6911 111.428C71.4431 111.3 71.2031 111.208 70.9711 111.152C70.7471 111.096 70.5311 111.068 70.3231 111.068C69.9311 111.068 69.6391 111.136 69.4471 111.272C69.2631 111.408 69.1711 111.588 69.1711 111.812C69.1711 111.98 69.2271 112.12 69.3391 112.232C69.4511 112.344 69.6231 112.42 69.8551 112.46L71.0551 112.688C71.5751 112.784 71.9671 112.96 72.2311 113.216C72.5031 113.472 72.6391 113.816 72.6391 114.248C72.6391 114.832 72.4111 115.292 71.9551 115.628C71.4991 115.956 70.8911 116.12 70.1311 116.12ZM80.7603 116.12C80.1763 116.12 79.6603 116.044 79.2123 115.892C78.7723 115.74 78.4003 115.516 78.0963 115.22C77.7923 114.916 77.5643 114.54 77.4123 114.092C77.2603 113.644 77.1843 113.124 77.1843 112.532V108.224C77.1843 107.96 77.2483 107.764 77.3763 107.636C77.5123 107.508 77.7043 107.444 77.9523 107.444C78.2003 107.444 78.3883 107.508 78.5163 107.636C78.6523 107.764 78.7203 107.96 78.7203 108.224V112.52C78.7203 113.28 78.8923 113.852 79.2363 114.236C79.5883 114.612 80.0963 114.8 80.7603 114.8C81.4243 114.8 81.9283 114.612 82.2723 114.236C82.6163 113.852 82.7883 113.28 82.7883 112.52V108.224C82.7883 107.96 82.8523 107.764 82.9803 107.636C83.1163 107.508 83.3083 107.444 83.5563 107.444C83.7963 107.444 83.9803 107.508 84.1083 107.636C84.2443 107.764 84.3123 107.96 84.3123 108.224V112.532C84.3123 113.316 84.1763 113.976 83.9043 114.512C83.6403 115.048 83.2443 115.452 82.7163 115.724C82.1883 115.988 81.5363 116.12 80.7603 116.12ZM86.7037 118.256C86.4637 118.256 86.2797 118.192 86.1517 118.064C86.0237 117.936 85.9597 117.748 85.9597 117.5V110.792C85.9597 110.544 86.0237 110.356 86.1517 110.228C86.2797 110.1 86.4597 110.036 86.6917 110.036C86.9317 110.036 87.1157 110.1 87.2437 110.228C87.3717 110.356 87.4357 110.544 87.4357 110.792V111.728L87.3037 111.368C87.4237 110.96 87.6677 110.632 88.0357 110.384C88.4117 110.136 88.8477 110.012 89.3437 110.012C89.8557 110.012 90.3037 110.136 90.6877 110.384C91.0797 110.632 91.3837 110.984 91.5997 111.44C91.8157 111.888 91.9237 112.428 91.9237 113.06C91.9237 113.684 91.8157 114.228 91.5997 114.692C91.3837 115.148 91.0837 115.5 90.6997 115.748C90.3157 115.996 89.8637 116.12 89.3437 116.12C88.8557 116.12 88.4277 116 88.0597 115.76C87.6917 115.512 87.4437 115.192 87.3157 114.8H87.4597V117.5C87.4597 117.748 87.3917 117.936 87.2557 118.064C87.1277 118.192 86.9437 118.256 86.7037 118.256ZM88.9237 114.98C89.2197 114.98 89.4797 114.908 89.7037 114.764C89.9277 114.62 90.0997 114.408 90.2197 114.128C90.3477 113.84 90.4117 113.484 90.4117 113.06C90.4117 112.42 90.2757 111.944 90.0037 111.632C89.7317 111.312 89.3717 111.152 88.9237 111.152C88.6277 111.152 88.3677 111.224 88.1437 111.368C87.9197 111.504 87.7437 111.716 87.6157 112.004C87.4957 112.284 87.4357 112.636 87.4357 113.06C87.4357 113.692 87.5717 114.172 87.8437 114.5C88.1157 114.82 88.4757 114.98 88.9237 114.98ZM95.159 116.12C94.495 116.12 93.995 115.932 93.659 115.556C93.323 115.172 93.155 114.612 93.155 113.876V108.2C93.155 107.952 93.219 107.764 93.347 107.636C93.475 107.508 93.659 107.444 93.899 107.444C94.139 107.444 94.323 107.508 94.451 107.636C94.587 107.764 94.655 107.952 94.655 108.2V113.804C94.655 114.172 94.731 114.444 94.883 114.62C95.043 114.796 95.267 114.884 95.555 114.884C95.619 114.884 95.679 114.884 95.735 114.884C95.791 114.876 95.847 114.868 95.903 114.86C96.015 114.844 96.091 114.876 96.131 114.956C96.171 115.028 96.191 115.18 96.191 115.412C96.191 115.612 96.151 115.768 96.071 115.88C95.991 115.992 95.859 116.06 95.675 116.084C95.595 116.092 95.511 116.1 95.423 116.108C95.335 116.116 95.247 116.12 95.159 116.12ZM99.6044 116.12C98.9964 116.12 98.4684 115.996 98.0204 115.748C97.5724 115.5 97.2244 115.148 96.9764 114.692C96.7284 114.228 96.6044 113.684 96.6044 113.06C96.6044 112.588 96.6724 112.168 96.8084 111.8C96.9524 111.424 97.1564 111.104 97.4204 110.84C97.6844 110.568 98.0004 110.364 98.3684 110.228C98.7364 110.084 99.1484 110.012 99.6044 110.012C100.212 110.012 100.74 110.136 101.188 110.384C101.636 110.632 101.984 110.984 102.232 111.44C102.48 111.896 102.604 112.436 102.604 113.06C102.604 113.532 102.532 113.956 102.388 114.332C102.252 114.708 102.052 115.032 101.788 115.304C101.524 115.568 101.208 115.772 100.84 115.916C100.472 116.052 100.06 116.12 99.6044 116.12ZM99.6044 114.98C99.9004 114.98 100.16 114.908 100.384 114.764C100.608 114.62 100.78 114.408 100.9 114.128C101.028 113.84 101.092 113.484 101.092 113.06C101.092 112.42 100.956 111.944 100.684 111.632C100.412 111.312 100.052 111.152 99.6044 111.152C99.3084 111.152 99.0484 111.224 98.8244 111.368C98.6004 111.504 98.4244 111.716 98.2964 112.004C98.1764 112.284 98.1164 112.636 98.1164 113.06C98.1164 113.692 98.2524 114.172 98.5244 114.5C98.7964 114.82 99.1564 114.98 99.6044 114.98ZM105.775 116.12C105.351 116.12 104.971 116.04 104.635 115.88C104.307 115.712 104.047 115.488 103.854 115.208C103.671 114.928 103.579 114.612 103.579 114.26C103.579 113.828 103.691 113.488 103.915 113.24C104.139 112.984 104.503 112.8 105.007 112.688C105.511 112.576 106.187 112.52 107.035 112.52H107.635V113.384H107.047C106.551 113.384 106.155 113.408 105.859 113.456C105.563 113.504 105.351 113.588 105.223 113.708C105.103 113.82 105.043 113.98 105.043 114.188C105.043 114.452 105.135 114.668 105.319 114.836C105.503 115.004 105.759 115.088 106.087 115.088C106.351 115.088 106.583 115.028 106.783 114.908C106.991 114.78 107.155 114.608 107.275 114.392C107.395 114.176 107.455 113.928 107.455 113.648V112.268C107.455 111.868 107.367 111.58 107.191 111.404C107.015 111.228 106.719 111.14 106.303 111.14C106.071 111.14 105.819 111.168 105.547 111.224C105.283 111.28 105.003 111.376 104.707 111.512C104.555 111.584 104.419 111.604 104.299 111.572C104.187 111.54 104.099 111.476 104.035 111.38C103.971 111.276 103.939 111.164 103.939 111.044C103.939 110.924 103.971 110.808 104.035 110.696C104.099 110.576 104.207 110.488 104.359 110.432C104.727 110.28 105.079 110.172 105.415 110.108C105.759 110.044 106.071 110.012 106.351 110.012C106.927 110.012 107.399 110.1 107.767 110.276C108.143 110.452 108.423 110.72 108.607 111.08C108.791 111.432 108.883 111.888 108.883 112.448V115.328C108.883 115.576 108.823 115.768 108.703 115.904C108.583 116.032 108.411 116.096 108.187 116.096C107.963 116.096 107.787 116.032 107.659 115.904C107.539 115.768 107.479 115.576 107.479 115.328V114.752H107.575C107.519 115.032 107.407 115.276 107.239 115.484C107.079 115.684 106.875 115.84 106.627 115.952C106.379 116.064 106.095 116.12 105.775 116.12ZM112.661 116.12C112.149 116.12 111.697 115.996 111.305 115.748C110.921 115.5 110.621 115.148 110.405 114.692C110.189 114.228 110.081 113.684 110.081 113.06C110.081 112.428 110.189 111.888 110.405 111.44C110.621 110.984 110.921 110.632 111.305 110.384C111.697 110.136 112.149 110.012 112.661 110.012C113.149 110.012 113.573 110.132 113.933 110.372C114.301 110.612 114.549 110.928 114.677 111.32H114.545V108.2C114.545 107.952 114.609 107.764 114.737 107.636C114.865 107.508 115.049 107.444 115.289 107.444C115.529 107.444 115.713 107.508 115.841 107.636C115.977 107.764 116.045 107.952 116.045 108.2V115.328C116.045 115.576 115.981 115.768 115.853 115.904C115.725 116.032 115.541 116.096 115.301 116.096C115.061 116.096 114.877 116.032 114.749 115.904C114.621 115.768 114.557 115.576 114.557 115.328V114.392L114.689 114.752C114.569 115.168 114.325 115.5 113.957 115.748C113.589 115.996 113.157 116.12 112.661 116.12ZM113.081 114.98C113.377 114.98 113.637 114.908 113.861 114.764C114.085 114.62 114.257 114.408 114.377 114.128C114.505 113.84 114.569 113.484 114.569 113.06C114.569 112.42 114.433 111.944 114.161 111.632C113.889 111.312 113.529 111.152 113.081 111.152C112.785 111.152 112.525 111.224 112.301 111.368C112.077 111.504 111.901 111.716 111.773 112.004C111.653 112.284 111.593 112.636 111.593 113.06C111.593 113.692 111.729 114.172 112.001 114.5C112.273 114.82 112.633 114.98 113.081 114.98ZM120.492 116.12C119.828 116.12 119.256 115.996 118.776 115.748C118.296 115.5 117.924 115.148 117.66 114.692C117.404 114.236 117.276 113.696 117.276 113.072C117.276 112.464 117.4 111.932 117.648 111.476C117.904 111.02 118.252 110.664 118.692 110.408C119.14 110.144 119.648 110.012 120.216 110.012C120.632 110.012 121.004 110.08 121.332 110.216C121.668 110.352 121.952 110.548 122.184 110.804C122.424 111.06 122.604 111.372 122.724 111.74C122.852 112.1 122.916 112.508 122.916 112.964C122.916 113.108 122.864 113.22 122.76 113.3C122.664 113.372 122.524 113.408 122.34 113.408H118.488V112.544H121.86L121.668 112.724C121.668 112.356 121.612 112.048 121.5 111.8C121.396 111.552 121.24 111.364 121.032 111.236C120.832 111.1 120.58 111.032 120.276 111.032C119.94 111.032 119.652 111.112 119.412 111.272C119.18 111.424 119 111.644 118.872 111.932C118.752 112.212 118.692 112.548 118.692 112.94V113.024C118.692 113.68 118.844 114.172 119.148 114.5C119.46 114.82 119.916 114.98 120.516 114.98C120.724 114.98 120.956 114.956 121.212 114.908C121.476 114.852 121.724 114.76 121.956 114.632C122.124 114.536 122.272 114.496 122.4 114.512C122.528 114.52 122.628 114.564 122.7 114.644C122.78 114.724 122.828 114.824 122.844 114.944C122.86 115.056 122.836 115.172 122.772 115.292C122.716 115.412 122.616 115.516 122.472 115.604C122.192 115.78 121.868 115.912 121.5 116C121.14 116.08 120.804 116.12 120.492 116.12ZM126.36 116.12C125.848 116.12 125.396 115.996 125.004 115.748C124.62 115.5 124.32 115.148 124.104 114.692C123.888 114.228 123.78 113.684 123.78 113.06C123.78 112.428 123.888 111.888 124.104 111.44C124.32 110.984 124.62 110.632 125.004 110.384C125.396 110.136 125.848 110.012 126.36 110.012C126.848 110.012 127.272 110.132 127.632 110.372C128 110.612 128.248 110.928 128.376 111.32H128.244V108.2C128.244 107.952 128.308 107.764 128.436 107.636C128.564 107.508 128.748 107.444 128.988 107.444C129.228 107.444 129.412 107.508 129.54 107.636C129.676 107.764 129.744 107.952 129.744 108.2V115.328C129.744 115.576 129.68 115.768 129.552 115.904C129.424 116.032 129.24 116.096 129 116.096C128.76 116.096 128.576 116.032 128.448 115.904C128.32 115.768 128.256 115.576 128.256 115.328V114.392L128.388 114.752C128.268 115.168 128.024 115.5 127.656 115.748C127.288 115.996 126.856 116.12 126.36 116.12ZM126.78 114.98C127.076 114.98 127.336 114.908 127.56 114.764C127.784 114.62 127.956 114.408 128.076 114.128C128.204 113.84 128.268 113.484 128.268 113.06C128.268 112.42 128.132 111.944 127.86 111.632C127.588 111.312 127.228 111.152 126.78 111.152C126.484 111.152 126.224 111.224 126 111.368C125.776 111.504 125.6 111.716 125.472 112.004C125.352 112.284 125.292 112.636 125.292 113.06C125.292 113.692 125.428 114.172 125.7 114.5C125.972 114.82 126.332 114.98 126.78 114.98Z" fill="#64728C"/>
</g>
</g>
<rect x="4.5" y="32.5" width="151" height="112" rx="13.5" stroke="#64728C" stroke-opacity="0.22" shape-rendering="crispEdges"/>
</g>
<g filter="url(#filter2_b_1347_5034)">
<rect x="139" y="65" width="32" height="51" rx="16" fill="#64728C" fill-opacity="0.11"/>
<path d="M153.833 79.4165C153.483 79.4165 153.25 79.6498 153.25 79.9998V82.3332C153.25 82.6832 153.483 82.9165 153.833 82.9165C154.183 82.9165 154.417 82.6832 154.417 82.3332V79.9998C154.417 79.6498 154.183 79.4165 153.833 79.4165Z" fill="#64728C"/>
<path d="M156.167 79.4165C155.817 79.4165 155.583 79.6498 155.583 79.9998V82.3332C155.583 82.6832 155.817 82.9165 156.167 82.9165C156.517 82.9165 156.75 82.6832 156.75 82.3332V79.9998C156.75 79.6498 156.517 79.4165 156.167 79.4165Z" fill="#64728C"/>
<path d="M155.875 74.1665H154.125C153.308 74.1665 152.667 74.8082 152.667 75.6248V75.9165H150.917C150.567 75.9165 150.333 76.1498 150.333 76.4998C150.333 76.8498 150.567 77.0832 150.917 77.0832H150.975L151.442 83.6165C151.5 84.8998 152.492 85.8332 153.717 85.8332H156.283C157.508 85.8332 158.558 84.8998 158.617 83.6748L159.025 77.0832H159.083C159.433 77.0832 159.667 76.8498 159.667 76.4998C159.667 76.1498 159.433 75.9165 159.083 75.9165H157.333V75.6248C157.333 74.8082 156.692 74.1665 155.875 74.1665ZM153.833 75.6248C153.833 75.4498 153.95 75.3332 154.125 75.3332H155.875C156.05 75.3332 156.167 75.4498 156.167 75.6248V75.9165H153.833V75.6248ZM157.858 77.0832L157.392 83.5582C157.333 84.1998 156.867 84.6665 156.225 84.6665H153.717C153.075 84.6665 152.608 84.1998 152.55 83.5582L152.142 77.0832H153.25H156.75H157.858Z" fill="#64728C"/>
<path d="M155 102.667C155.264 102.667 155.521 102.745 155.741 102.891C155.96 103.038 156.131 103.246 156.232 103.49C156.333 103.733 156.359 104.001 156.308 104.26C156.256 104.519 156.129 104.756 155.943 104.943C155.756 105.129 155.519 105.256 155.26 105.308C155.001 105.359 154.733 105.333 154.49 105.232C154.246 105.131 154.038 104.96 153.891 104.741C153.745 104.521 153.667 104.264 153.667 104C153.667 103.646 153.807 103.307 154.057 103.057C154.307 102.807 154.646 102.667 155 102.667ZM153.667 95.9998C153.667 96.2635 153.745 96.5213 153.891 96.7406C154.038 96.9599 154.246 97.1308 154.49 97.2317C154.733 97.3326 155.001 97.359 155.26 97.3076C155.519 97.2561 155.756 97.1291 155.943 96.9426C156.129 96.7562 156.256 96.5186 156.308 96.26C156.359 96.0013 156.333 95.7332 156.232 95.4896C156.131 95.246 155.96 95.0377 155.741 94.8912C155.521 94.7447 155.264 94.6665 155 94.6665C154.646 94.6665 154.307 94.807 154.057 95.057C153.807 95.3071 153.667 95.6462 153.667 95.9998ZM153.667 99.9998C153.667 100.264 153.745 100.521 153.891 100.741C154.038 100.96 154.246 101.131 154.49 101.232C154.733 101.333 155.001 101.359 155.26 101.308C155.519 101.256 155.756 101.129 155.943 100.943C156.129 100.756 156.256 100.519 156.308 100.26C156.359 100.001 156.333 99.7332 156.232 99.4896C156.131 99.246 155.96 99.0377 155.741 98.8912C155.521 98.7447 155.264 98.6665 155 98.6665C154.646 98.6665 154.307 98.807 154.057 99.057C153.807 99.3071 153.667 99.6462 153.667 99.9998Z" fill="#64728C"/>
</g>
<defs>
<filter id="filter0_bd_1347_5034" x="0" y="24" width="160" height="123" filterUnits="userSpaceOnUse" color-interpolation-filters="sRGB">
<feFlood flood-opacity="0" result="BackgroundImageFix"/>
<feGaussianBlur in="BackgroundImageFix" stdDeviation="1"/>
<feComposite in2="SourceAlpha" operator="in" result="effect1_backgroundBlur_1347_5034"/>
<feColorMatrix in="SourceAlpha" type="matrix" values="0 0 0 0 0 0 0 0 0 0 0 0 0 0 0 0 0 0 127 0" result="hardAlpha"/>
<feOffset dy="-4"/>
<feGaussianBlur stdDeviation="2"/>
<feComposite in2="hardAlpha" operator="out"/>
<feColorMatrix type="matrix" values="0 0 0 0 0 0 0 0 0 0 0 0 0 0 0 0 0 0 0.05 0"/>
<feBlend mode="normal" in2="effect1_backgroundBlur_1347_5034" result="effect2_dropShadow_1347_5034"/>
<feBlend mode="normal" in="SourceGraphic" in2="effect2_dropShadow_1347_5034" result="shape"/>
</filter>
<filter id="filter1_bdd_1347_5034" x="-4" y="17" width="168" height="136" filterUnits="userSpaceOnUse" color-interpolation-filters="sRGB">
<feFlood flood-opacity="0" result="BackgroundImageFix"/>
<feGaussianBlur in="BackgroundImageFix" stdDeviation="4"/>
<feComposite in2="SourceAlpha" operator="in" result="effect1_backgroundBlur_1347_5034"/>
<feColorMatrix in="SourceAlpha" type="matrix" values="0 0 0 0 0 0 0 0 0 0 0 0 0 0 0 0 0 0 127 0" result="hardAlpha"/>
<feOffset dy="-14"/>
<feGaussianBlur stdDeviation="2.5"/>
<feComposite in2="hardAlpha" operator="out"/>
<feColorMatrix type="matrix" values="0 0 0 0 0 0 0 0 0 0 0 0 0 0 0 0 0 0 0.05 0"/>
<feBlend mode="normal" in2="effect1_backgroundBlur_1347_5034" result="effect2_dropShadow_1347_5034"/>
<feColorMatrix in="SourceAlpha" type="matrix" values="0 0 0 0 0 0 0 0 0 0 0 0 0 0 0 0 0 0 127 0" result="hardAlpha"/>
<feOffset dy="4"/>
<feGaussianBlur stdDeviation="2"/>
<feComposite in2="hardAlpha" operator="out"/>
<feColorMatrix type="matrix" values="0 0 0 0 0 0 0 0 0 0 0 0 0 0 0 0 0 0 0.25 0"/>
<feBlend mode="normal" in2="effect2_dropShadow_1347_5034" result="effect3_dropShadow_1347_5034"/>
<feBlend mode="normal" in="SourceGraphic" in2="effect3_dropShadow_1347_5034" result="shape"/>
</filter>
<filter id="filter2_b_1347_5034" x="135" y="61" width="40" height="59" filterUnits="userSpaceOnUse" color-interpolation-filters="sRGB">
<feFlood flood-opacity="0" result="BackgroundImageFix"/>
<feGaussianBlur in="BackgroundImageFix" stdDeviation="2"/>
<feComposite in2="SourceAlpha" operator="in" result="effect1_backgroundBlur_1347_5034"/>
<feBlend mode="normal" in="SourceGraphic" in2="effect1_backgroundBlur_1347_5034" result="shape"/>
</filter>
<linearGradient id="paint0_linear_1347_5034" x1="78.5206" y1="31.1185" x2="78.5206" y2="52.4944" gradientUnits="userSpaceOnUse">
<stop stop-opacity="0"/>
<stop offset="1"/>
</linearGradient>
<linearGradient id="paint1_linear_1347_5034" x1="119.601" y1="29.1518" x2="115.144" y2="49.5518" gradientUnits="userSpaceOnUse">
<stop stop-opacity="0"/>
<stop offset="1"/>
</linearGradient>
<linearGradient id="paint2_linear_1347_5034" x1="70.4995" y1="18.0645" x2="71.4033" y2="38.7587" gradientUnits="userSpaceOnUse">
<stop stop-opacity="0"/>
<stop offset="1"/>
</linearGradient>
<linearGradient id="paint3_linear_1347_5034" x1="46.5408" y1="20.5474" x2="51.2982" y2="46.9428" gradientUnits="userSpaceOnUse">
<stop stop-opacity="0"/>
<stop offset="1"/>
</linearGradient>
<linearGradient id="paint4_linear_1347_5034" x1="97.7898" y1="29.9262" x2="94.993" y2="47.9022" gradientUnits="userSpaceOnUse">
<stop stop-opacity="0"/>
<stop offset="1"/>
</linearGradient>
<linearGradient id="paint5_linear_1347_5034" x1="80" y1="36" x2="80" y2="145" gradientUnits="userSpaceOnUse">
<stop stop-color="#64728C" stop-opacity="0.04"/>
<stop offset="1" stop-color="#64728C" stop-opacity="0.15"/>
</linearGradient>
<linearGradient id="paint6_linear_1347_5034" x1="80" y1="36" x2="80" y2="145" gradientUnits="userSpaceOnUse">
<stop offset="0.345231" stop-color="#64728C" stop-opacity="0.03"/>
<stop offset="1" stop-color="#64728C" stop-opacity="0.37"/>
</linearGradient>
<clipPath id="clip0_1347_5034">
<rect x="4" y="32" width="152" height="113" rx="14" fill="white"/>
</clipPath>
</defs>
</svg>
