<svg width="155" height="165" viewBox="0 0 155 165" fill="none" xmlns="http://www.w3.org/2000/svg">
<g filter="url(#filter0_d_1033_6506)">
<rect x="12" y="45" width="134" height="112" rx="14" fill="#E8EAEF"/>
<rect x="12.5" y="45.5" width="133" height="111" rx="13.5" stroke="#64728C" stroke-opacity="0.22"/>
<g filter="url(#filter1_i_1033_6506)">
<rect x="12" y="45" width="134" height="108" rx="14" fill="white"/>
<rect x="12" y="45" width="134" height="108" rx="14" fill="url(#paint0_linear_1033_6506)" fill-opacity="0.1"/>
<rect x="12.5" y="45.5" width="133" height="107" rx="13.5" stroke="url(#paint1_linear_1033_6506)" stroke-opacity="0.2"/>
<path d="M35 66.5C35 67.3284 34.3284 68 33.5 68C32.6716 68 32 67.3284 32 66.5C32 65.6716 32.6716 65 33.5 65C34.3284 65 35 65.6716 35 66.5Z" fill="#E8EAEF"/>
<path d="M35 79.5C35 80.3284 34.3284 81 33.5 81C32.6716 81 32 80.3284 32 79.5C32 78.6716 32.6716 78 33.5 78C34.3284 78 35 78.6716 35 79.5Z" fill="#E8EAEF"/>
<path d="M35 92.5C35 93.3284 34.3284 94 33.5 94C32.6716 94 32 93.3284 32 92.5C32 91.6716 32.6716 91 33.5 91C34.3284 91 35 91.6716 35 92.5Z" fill="#E8EAEF"/>
<path d="M35 105.5C35 106.328 34.3284 107 33.5 107C32.6716 107 32 106.328 32 105.5C32 104.672 32.6716 104 33.5 104C34.3284 104 35 104.672 35 105.5Z" fill="#E8EAEF"/>
<path d="M35 118.5C35 119.328 34.3284 120 33.5 120C32.6716 120 32 119.328 32 118.5C32 117.672 32.6716 117 33.5 117C34.3284 117 35 117.672 35 118.5Z" fill="#E8EAEF"/>
<path d="M35 131.5C35 132.328 34.3284 133 33.5 133C32.6716 133 32 132.328 32 131.5C32 130.672 32.6716 130 33.5 130C34.3284 130 35 130.672 35 131.5Z" fill="#E8EAEF"/>
<path d="M87 66.5C87 67.3284 86.3284 68 85.5 68C84.6716 68 84 67.3284 84 66.5C84 65.6716 84.6716 65 85.5 65C86.3284 65 87 65.6716 87 66.5Z" fill="#E8EAEF"/>
<path d="M87 79.5C87 80.3284 86.3284 81 85.5 81C84.6716 81 84 80.3284 84 79.5C84 78.6716 84.6716 78 85.5 78C86.3284 78 87 78.6716 87 79.5Z" fill="#E8EAEF"/>
<path d="M87 92.5C87 93.3284 86.3284 94 85.5 94C84.6716 94 84 93.3284 84 92.5C84 91.6716 84.6716 91 85.5 91C86.3284 91 87 91.6716 87 92.5Z" fill="#E8EAEF"/>
<path d="M87 105.5C87 106.328 86.3284 107 85.5 107C84.6716 107 84 106.328 84 105.5C84 104.672 84.6716 104 85.5 104C86.3284 104 87 104.672 87 105.5Z" fill="#E8EAEF"/>
<path d="M87 118.5C87 119.328 86.3284 120 85.5 120C84.6716 120 84 119.328 84 118.5C84 117.672 84.6716 117 85.5 117C86.3284 117 87 117.672 87 118.5Z" fill="#E8EAEF"/>
<path d="M87 131.5C87 132.328 86.3284 133 85.5 133C84.6716 133 84 132.328 84 131.5C84 130.672 84.6716 130 85.5 130C86.3284 130 87 130.672 87 131.5Z" fill="#E8EAEF"/>
<path d="M48 66.5C48 67.3284 47.3284 68 46.5 68C45.6716 68 45 67.3284 45 66.5C45 65.6716 45.6716 65 46.5 65C47.3284 65 48 65.6716 48 66.5Z" fill="#E8EAEF"/>
<path d="M48 79.5C48 80.3284 47.3284 81 46.5 81C45.6716 81 45 80.3284 45 79.5C45 78.6716 45.6716 78 46.5 78C47.3284 78 48 78.6716 48 79.5Z" fill="#E8EAEF"/>
<path d="M48 92.5C48 93.3284 47.3284 94 46.5 94C45.6716 94 45 93.3284 45 92.5C45 91.6716 45.6716 91 46.5 91C47.3284 91 48 91.6716 48 92.5Z" fill="#E8EAEF"/>
<path d="M48 105.5C48 106.328 47.3284 107 46.5 107C45.6716 107 45 106.328 45 105.5C45 104.672 45.6716 104 46.5 104C47.3284 104 48 104.672 48 105.5Z" fill="#E8EAEF"/>
<path d="M48 118.5C48 119.328 47.3284 120 46.5 120C45.6716 120 45 119.328 45 118.5C45 117.672 45.6716 117 46.5 117C47.3284 117 48 117.672 48 118.5Z" fill="#E8EAEF"/>
<path d="M48 131.5C48 132.328 47.3284 133 46.5 133C45.6716 133 45 132.328 45 131.5C45 130.672 45.6716 130 46.5 130C47.3284 130 48 130.672 48 131.5Z" fill="#E8EAEF"/>
<path d="M100 66.5C100 67.3284 99.3284 68 98.5 68C97.6716 68 97 67.3284 97 66.5C97 65.6716 97.6716 65 98.5 65C99.3284 65 100 65.6716 100 66.5Z" fill="#E8EAEF"/>
<path d="M100 79.5C100 80.3284 99.3284 81 98.5 81C97.6716 81 97 80.3284 97 79.5C97 78.6716 97.6716 78 98.5 78C99.3284 78 100 78.6716 100 79.5Z" fill="#E8EAEF"/>
<path d="M100 92.5C100 93.3284 99.3284 94 98.5 94C97.6716 94 97 93.3284 97 92.5C97 91.6716 97.6716 91 98.5 91C99.3284 91 100 91.6716 100 92.5Z" fill="#E8EAEF"/>
<path d="M100 105.5C100 106.328 99.3284 107 98.5 107C97.6716 107 97 106.328 97 105.5C97 104.672 97.6716 104 98.5 104C99.3284 104 100 104.672 100 105.5Z" fill="#E8EAEF"/>
<path d="M100 118.5C100 119.328 99.3284 120 98.5 120C97.6716 120 97 119.328 97 118.5C97 117.672 97.6716 117 98.5 117C99.3284 117 100 117.672 100 118.5Z" fill="#E8EAEF"/>
<path d="M100 131.5C100 132.328 99.3284 133 98.5 133C97.6716 133 97 132.328 97 131.5C97 130.672 97.6716 130 98.5 130C99.3284 130 100 130.672 100 131.5Z" fill="#E8EAEF"/>
<path d="M61 66.5C61 67.3284 60.3284 68 59.5 68C58.6716 68 58 67.3284 58 66.5C58 65.6716 58.6716 65 59.5 65C60.3284 65 61 65.6716 61 66.5Z" fill="#E8EAEF"/>
<path d="M61 79.5C61 80.3284 60.3284 81 59.5 81C58.6716 81 58 80.3284 58 79.5C58 78.6716 58.6716 78 59.5 78C60.3284 78 61 78.6716 61 79.5Z" fill="#E8EAEF"/>
<path d="M61 92.5C61 93.3284 60.3284 94 59.5 94C58.6716 94 58 93.3284 58 92.5C58 91.6716 58.6716 91 59.5 91C60.3284 91 61 91.6716 61 92.5Z" fill="#E8EAEF"/>
<path d="M61 105.5C61 106.328 60.3284 107 59.5 107C58.6716 107 58 106.328 58 105.5C58 104.672 58.6716 104 59.5 104C60.3284 104 61 104.672 61 105.5Z" fill="#E8EAEF"/>
<path d="M61 118.5C61 119.328 60.3284 120 59.5 120C58.6716 120 58 119.328 58 118.5C58 117.672 58.6716 117 59.5 117C60.3284 117 61 117.672 61 118.5Z" fill="#E8EAEF"/>
<path d="M61 131.5C61 132.328 60.3284 133 59.5 133C58.6716 133 58 132.328 58 131.5C58 130.672 58.6716 130 59.5 130C60.3284 130 61 130.672 61 131.5Z" fill="#E8EAEF"/>
<path d="M113 66.5C113 67.3284 112.328 68 111.5 68C110.672 68 110 67.3284 110 66.5C110 65.6716 110.672 65 111.5 65C112.328 65 113 65.6716 113 66.5Z" fill="#E8EAEF"/>
<path d="M113 79.5C113 80.3284 112.328 81 111.5 81C110.672 81 110 80.3284 110 79.5C110 78.6716 110.672 78 111.5 78C112.328 78 113 78.6716 113 79.5Z" fill="#E8EAEF"/>
<path d="M113 92.5C113 93.3284 112.328 94 111.5 94C110.672 94 110 93.3284 110 92.5C110 91.6716 110.672 91 111.5 91C112.328 91 113 91.6716 113 92.5Z" fill="#E8EAEF"/>
<path d="M113 105.5C113 106.328 112.328 107 111.5 107C110.672 107 110 106.328 110 105.5C110 104.672 110.672 104 111.5 104C112.328 104 113 104.672 113 105.5Z" fill="#E8EAEF"/>
<path d="M113 118.5C113 119.328 112.328 120 111.5 120C110.672 120 110 119.328 110 118.5C110 117.672 110.672 117 111.5 117C112.328 117 113 117.672 113 118.5Z" fill="#E8EAEF"/>
<path d="M113 131.5C113 132.328 112.328 133 111.5 133C110.672 133 110 132.328 110 131.5C110 130.672 110.672 130 111.5 130C112.328 130 113 130.672 113 131.5Z" fill="#E8EAEF"/>
<path d="M74 66.5C74 67.3284 73.3284 68 72.5 68C71.6716 68 71 67.3284 71 66.5C71 65.6716 71.6716 65 72.5 65C73.3284 65 74 65.6716 74 66.5Z" fill="#E8EAEF"/>
<path d="M74 79.5C74 80.3284 73.3284 81 72.5 81C71.6716 81 71 80.3284 71 79.5C71 78.6716 71.6716 78 72.5 78C73.3284 78 74 78.6716 74 79.5Z" fill="#E8EAEF"/>
<path d="M74 92.5C74 93.3284 73.3284 94 72.5 94C71.6716 94 71 93.3284 71 92.5C71 91.6716 71.6716 91 72.5 91C73.3284 91 74 91.6716 74 92.5Z" fill="#E8EAEF"/>
<path d="M74 105.5C74 106.328 73.3284 107 72.5 107C71.6716 107 71 106.328 71 105.5C71 104.672 71.6716 104 72.5 104C73.3284 104 74 104.672 74 105.5Z" fill="#E8EAEF"/>
<path d="M74 118.5C74 119.328 73.3284 120 72.5 120C71.6716 120 71 119.328 71 118.5C71 117.672 71.6716 117 72.5 117C73.3284 117 74 117.672 74 118.5Z" fill="#E8EAEF"/>
<path d="M74 131.5C74 132.328 73.3284 133 72.5 133C71.6716 133 71 132.328 71 131.5C71 130.672 71.6716 130 72.5 130C73.3284 130 74 130.672 74 131.5Z" fill="#E8EAEF"/>
<path d="M126 66.5C126 67.3284 125.328 68 124.5 68C123.672 68 123 67.3284 123 66.5C123 65.6716 123.672 65 124.5 65C125.328 65 126 65.6716 126 66.5Z" fill="#E8EAEF"/>
<path d="M126 79.5C126 80.3284 125.328 81 124.5 81C123.672 81 123 80.3284 123 79.5C123 78.6716 123.672 78 124.5 78C125.328 78 126 78.6716 126 79.5Z" fill="#E8EAEF"/>
<path d="M126 92.5C126 93.3284 125.328 94 124.5 94C123.672 94 123 93.3284 123 92.5C123 91.6716 123.672 91 124.5 91C125.328 91 126 91.6716 126 92.5Z" fill="#E8EAEF"/>
<path d="M126 105.5C126 106.328 125.328 107 124.5 107C123.672 107 123 106.328 123 105.5C123 104.672 123.672 104 124.5 104C125.328 104 126 104.672 126 105.5Z" fill="#E8EAEF"/>
<path d="M126 118.5C126 119.328 125.328 120 124.5 120C123.672 120 123 119.328 123 118.5C123 117.672 123.672 117 124.5 117C125.328 117 126 117.672 126 118.5Z" fill="#E8EAEF"/>
<path d="M126 131.5C126 132.328 125.328 133 124.5 133C123.672 133 123 132.328 123 131.5C123 130.672 123.672 130 124.5 130C125.328 130 126 130.672 126 131.5Z" fill="#E8EAEF"/>
<rect x="61" y="81" width="36" height="36" rx="4" fill="white"/>
<path d="M74.05 95.5501L77.5 92.1001V103.5C77.5 104.4 78.1 105 79 105C79.9 105 80.5 104.4 80.5 103.5V92.1001L83.95 95.5501C84.25 95.8501 84.55 96.0001 85 96.0001C85.45 96.0001 85.75 95.8501 86.05 95.5501C86.65 94.9501 86.65 94.0501 86.05 93.4501L80.05 87.4501C79.9 87.3001 79.75 87.1501 79.6 87.1501C79.3 87.0001 78.85 87.0001 78.4 87.1501C78.25 87.3001 78.1 87.3001 77.95 87.4501L71.95 93.4501C71.35 94.0501 71.35 94.9501 71.95 95.5501C72.55 96.1501 73.45 96.1501 74.05 95.5501Z" fill="#929BAA"/>
<path d="M89.5 100.5C88.6 100.5 88 101.1 88 102V105C88 106.65 86.65 108 85 108H73C71.35 108 70 106.65 70 105V102C70 101.1 69.4 100.5 68.5 100.5C67.6 100.5 67 101.1 67 102V105C67 108.3 69.7 111 73 111H85C88.3 111 91 108.3 91 105V102C91 101.1 90.4 100.5 89.5 100.5Z" fill="#929BAA"/>
</g>
</g>
<g filter="url(#filter2_d_1033_6506)">
<mask id="path-9-inside-1_1033_6506" fill="white">
<path d="M4 12C4 5.37258 9.37258 0 16 0H139C145.627 0 151 5.37258 151 12V22C151 28.6274 145.627 34 139 34H16C9.37259 34 4 28.6274 4 22V12Z"/>
</mask>
<path d="M4 12C4 5.37258 9.37258 0 16 0H139C145.627 0 151 5.37258 151 12V22C151 28.6274 145.627 34 139 34H16C9.37259 34 4 28.6274 4 22V12Z" fill="#64728C" shape-rendering="crispEdges"/>
<path d="M4 0H151H4ZM151 22C151 29.732 144.732 36 137 36H18C10.268 36 4 29.732 4 22C4 27.5228 9.37258 32 16 32H139C145.627 32 151 27.5228 151 22ZM4 34V0V34ZM151 0V34V0Z" fill="#435069" mask="url(#path-9-inside-1_1033_6506)"/>
<path d="M21.656 21C21.44 21 21.272 20.944 21.152 20.832C21.04 20.712 20.984 20.544 20.984 20.328V13.212C20.984 12.996 21.04 12.832 21.152 12.72C21.272 12.6 21.44 12.54 21.656 12.54H23.972C25.364 12.54 26.436 12.904 27.188 13.632C27.948 14.352 28.328 15.396 28.328 16.764C28.328 17.444 28.232 18.048 28.04 18.576C27.848 19.104 27.564 19.548 27.188 19.908C26.82 20.26 26.368 20.532 25.832 20.724C25.296 20.908 24.676 21 23.972 21H21.656ZM22.232 19.956H23.9C24.428 19.956 24.884 19.892 25.268 19.764C25.66 19.628 25.988 19.428 26.252 19.164C26.516 18.9 26.712 18.568 26.84 18.168C26.968 17.768 27.032 17.3 27.032 16.764C27.032 15.7 26.768 14.904 26.24 14.376C25.72 13.848 24.94 13.584 23.9 13.584H22.232V19.956ZM30.4757 21.084C30.2757 21.084 30.1237 21.032 30.0197 20.928C29.9157 20.816 29.8637 20.664 29.8637 20.472V15.672C29.8637 15.472 29.9157 15.32 30.0197 15.216C30.1237 15.112 30.2677 15.06 30.4517 15.06C30.6437 15.06 30.7877 15.112 30.8837 15.216C30.9877 15.32 31.0397 15.472 31.0397 15.672V16.548H30.9197C31.0477 16.068 31.2837 15.704 31.6277 15.456C31.9717 15.208 32.4117 15.064 32.9477 15.024C33.0917 15.016 33.2037 15.052 33.2837 15.132C33.3717 15.212 33.4197 15.336 33.4277 15.504C33.4437 15.672 33.4077 15.808 33.3197 15.912C33.2317 16.008 33.0957 16.064 32.9117 16.08L32.6837 16.104C32.1637 16.152 31.7677 16.316 31.4957 16.596C31.2237 16.876 31.0877 17.26 31.0877 17.748V20.472C31.0877 20.664 31.0357 20.816 30.9317 20.928C30.8357 21.032 30.6837 21.084 30.4757 21.084ZM36.8023 21.108C36.2103 21.108 35.6983 20.984 35.2663 20.736C34.8423 20.488 34.5103 20.136 34.2703 19.68C34.0303 19.224 33.9103 18.688 33.9103 18.072C33.9103 17.6 33.9783 17.18 34.1143 16.812C34.2503 16.444 34.4423 16.128 34.6903 15.864C34.9463 15.592 35.2503 15.388 35.6023 15.252C35.9623 15.108 36.3623 15.036 36.8023 15.036C37.3863 15.036 37.8903 15.16 38.3143 15.408C38.7463 15.656 39.0823 16.008 39.3223 16.464C39.5623 16.912 39.6823 17.448 39.6823 18.072C39.6823 18.536 39.6143 18.956 39.4783 19.332C39.3423 19.708 39.1463 20.028 38.8903 20.292C38.6423 20.556 38.3383 20.76 37.9783 20.904C37.6263 21.04 37.2343 21.108 36.8023 21.108ZM36.8023 20.172C37.1303 20.172 37.4183 20.092 37.6663 19.932C37.9143 19.772 38.1063 19.536 38.2423 19.224C38.3863 18.912 38.4583 18.528 38.4583 18.072C38.4583 17.384 38.3063 16.864 38.0023 16.512C37.6983 16.16 37.2983 15.984 36.8023 15.984C36.4663 15.984 36.1743 16.064 35.9263 16.224C35.6783 16.376 35.4823 16.608 35.3383 16.92C35.2023 17.232 35.1343 17.616 35.1343 18.072C35.1343 18.752 35.2863 19.272 35.5903 19.632C35.8943 19.992 36.2983 20.172 36.8023 20.172ZM41.6434 23.244C41.4514 23.244 41.3034 23.192 41.1994 23.088C41.0954 22.984 41.0434 22.832 41.0434 22.632V15.672C41.0434 15.472 41.0954 15.32 41.1994 15.216C41.3034 15.112 41.4474 15.06 41.6314 15.06C41.8234 15.06 41.9714 15.112 42.0754 15.216C42.1794 15.32 42.2314 15.472 42.2314 15.672V16.716L42.0994 16.464C42.2274 16.032 42.4794 15.688 42.8554 15.432C43.2314 15.168 43.6754 15.036 44.1874 15.036C44.7074 15.036 45.1594 15.16 45.5434 15.408C45.9354 15.656 46.2354 16.004 46.4434 16.452C46.6594 16.9 46.7674 17.44 46.7674 18.072C46.7674 18.688 46.6594 19.228 46.4434 19.692C46.2354 20.148 45.9394 20.5 45.5554 20.748C45.1714 20.988 44.7154 21.108 44.1874 21.108C43.6834 21.108 43.2434 20.98 42.8674 20.724C42.4914 20.468 42.2394 20.128 42.1114 19.704H42.2554V22.632C42.2554 22.832 42.1994 22.984 42.0874 23.088C41.9834 23.192 41.8354 23.244 41.6434 23.244ZM43.8874 20.172C44.2234 20.172 44.5154 20.092 44.7634 19.932C45.0114 19.772 45.2034 19.536 45.3394 19.224C45.4754 18.912 45.5434 18.528 45.5434 18.072C45.5434 17.384 45.3914 16.864 45.0874 16.512C44.7914 16.16 44.3914 15.984 43.8874 15.984C43.5594 15.984 43.2674 16.064 43.0114 16.224C42.7634 16.376 42.5714 16.608 42.4354 16.92C42.2994 17.232 42.2314 17.616 42.2314 18.072C42.2314 18.752 42.3834 19.272 42.6874 19.632C42.9914 19.992 43.3914 20.172 43.8874 20.172ZM52.0533 21.084C51.8533 21.084 51.6973 21.028 51.5853 20.916C51.4813 20.804 51.4293 20.648 51.4293 20.448V13.092C51.4293 12.884 51.4813 12.728 51.5853 12.624C51.6973 12.512 51.8533 12.456 52.0533 12.456C52.2533 12.456 52.4053 12.512 52.5093 12.624C52.6213 12.728 52.6773 12.884 52.6773 13.092V16.188H57.4173V13.092C57.4173 12.884 57.4693 12.728 57.5733 12.624C57.6853 12.512 57.8413 12.456 58.0413 12.456C58.2413 12.456 58.3933 12.512 58.4973 12.624C58.6013 12.728 58.6533 12.884 58.6533 13.092V20.448C58.6533 20.648 58.6013 20.804 58.4973 20.916C58.3933 21.028 58.2413 21.084 58.0413 21.084C57.8413 21.084 57.6853 21.028 57.5733 20.916C57.4693 20.804 57.4173 20.648 57.4173 20.448V17.232H52.6773V20.448C52.6773 20.648 52.6253 20.804 52.5213 20.916C52.4173 21.028 52.2613 21.084 52.0533 21.084ZM63.2445 21.108C62.6045 21.108 62.0525 20.988 61.5885 20.748C61.1325 20.5 60.7765 20.152 60.5205 19.704C60.2725 19.248 60.1485 18.708 60.1485 18.084C60.1485 17.476 60.2725 16.944 60.5205 16.488C60.7685 16.032 61.1085 15.676 61.5405 15.42C61.9725 15.164 62.4645 15.036 63.0165 15.036C63.4245 15.036 63.7885 15.104 64.1085 15.24C64.4285 15.368 64.7005 15.56 64.9245 15.816C65.1565 16.064 65.3285 16.368 65.4405 16.728C65.5605 17.088 65.6205 17.492 65.6205 17.94C65.6205 18.076 65.5805 18.18 65.5005 18.252C65.4205 18.316 65.3005 18.348 65.1405 18.348H61.1085V17.604H64.8045L64.6005 17.772C64.6005 17.372 64.5405 17.032 64.4205 16.752C64.3085 16.472 64.1365 16.26 63.9045 16.116C63.6805 15.964 63.4005 15.888 63.0645 15.888C62.6885 15.888 62.3685 15.976 62.1045 16.152C61.8485 16.328 61.6525 16.572 61.5165 16.884C61.3805 17.196 61.3125 17.56 61.3125 17.976V18.048C61.3125 18.752 61.4765 19.284 61.8045 19.644C62.1405 19.996 62.6245 20.172 63.2565 20.172C63.4965 20.172 63.7485 20.14 64.0125 20.076C64.2845 20.012 64.5405 19.904 64.7805 19.752C64.9165 19.672 65.0365 19.636 65.1405 19.644C65.2525 19.652 65.3405 19.688 65.4045 19.752C65.4765 19.816 65.5205 19.896 65.5365 19.992C65.5525 20.088 65.5365 20.188 65.4885 20.292C65.4405 20.388 65.3565 20.476 65.2365 20.556C64.9645 20.74 64.6485 20.88 64.2885 20.976C63.9285 21.064 63.5805 21.108 63.2445 21.108ZM67.5538 21.084C67.3538 21.084 67.2018 21.032 67.0978 20.928C66.9938 20.816 66.9418 20.664 66.9418 20.472V15.672C66.9418 15.472 66.9938 15.32 67.0978 15.216C67.2018 15.112 67.3458 15.06 67.5298 15.06C67.7218 15.06 67.8658 15.112 67.9618 15.216C68.0658 15.32 68.1178 15.472 68.1178 15.672V16.548H67.9978C68.1258 16.068 68.3618 15.704 68.7058 15.456C69.0498 15.208 69.4898 15.064 70.0258 15.024C70.1698 15.016 70.2818 15.052 70.3618 15.132C70.4498 15.212 70.4978 15.336 70.5058 15.504C70.5218 15.672 70.4858 15.808 70.3978 15.912C70.3098 16.008 70.1738 16.064 69.9898 16.08L69.7618 16.104C69.2418 16.152 68.8458 16.316 68.5738 16.596C68.3018 16.876 68.1658 17.26 68.1658 17.748V20.472C68.1658 20.664 68.1138 20.816 68.0098 20.928C67.9138 21.032 67.7618 21.084 67.5538 21.084ZM74.0844 21.108C73.4444 21.108 72.8924 20.988 72.4284 20.748C71.9724 20.5 71.6164 20.152 71.3604 19.704C71.1124 19.248 70.9884 18.708 70.9884 18.084C70.9884 17.476 71.1124 16.944 71.3604 16.488C71.6084 16.032 71.9484 15.676 72.3804 15.42C72.8124 15.164 73.3044 15.036 73.8564 15.036C74.2644 15.036 74.6284 15.104 74.9484 15.24C75.2684 15.368 75.5404 15.56 75.7644 15.816C75.9964 16.064 76.1684 16.368 76.2804 16.728C76.4004 17.088 76.4604 17.492 76.4604 17.94C76.4604 18.076 76.4204 18.18 76.3404 18.252C76.2604 18.316 76.1404 18.348 75.9804 18.348H71.9484V17.604H75.6444L75.4404 17.772C75.4404 17.372 75.3804 17.032 75.2604 16.752C75.1484 16.472 74.9764 16.26 74.7444 16.116C74.5204 15.964 74.2404 15.888 73.9044 15.888C73.5284 15.888 73.2084 15.976 72.9444 16.152C72.6884 16.328 72.4924 16.572 72.3564 16.884C72.2204 17.196 72.1524 17.56 72.1524 17.976V18.048C72.1524 18.752 72.3164 19.284 72.6444 19.644C72.9804 19.996 73.4644 20.172 74.0964 20.172C74.3364 20.172 74.5884 20.14 74.8524 20.076C75.1244 20.012 75.3804 19.904 75.6204 19.752C75.7564 19.672 75.8764 19.636 75.9804 19.644C76.0924 19.652 76.1804 19.688 76.2444 19.752C76.3164 19.816 76.3604 19.896 76.3764 19.992C76.3924 20.088 76.3764 20.188 76.3284 20.292C76.2804 20.388 76.1964 20.476 76.0764 20.556C75.8044 20.74 75.4884 20.88 75.1284 20.976C74.7684 21.064 74.4204 21.108 74.0844 21.108ZM83.4418 21.108C82.9618 21.108 82.5578 21.024 82.2298 20.856C81.9018 20.688 81.6578 20.44 81.4978 20.112C81.3378 19.784 81.2578 19.384 81.2578 18.912V16.08H80.5378C80.3778 16.08 80.2538 16.04 80.1658 15.96C80.0777 15.872 80.0337 15.756 80.0337 15.612C80.0337 15.46 80.0777 15.344 80.1658 15.264C80.2538 15.184 80.3778 15.144 80.5378 15.144H81.2578V13.908C81.2578 13.708 81.3098 13.556 81.4138 13.452C81.5258 13.348 81.6778 13.296 81.8698 13.296C82.0618 13.296 82.2098 13.348 82.3138 13.452C82.4178 13.556 82.4698 13.708 82.4698 13.908V15.144H83.8738C84.0338 15.144 84.1578 15.184 84.2458 15.264C84.3338 15.344 84.3778 15.46 84.3778 15.612C84.3778 15.756 84.3338 15.872 84.2458 15.96C84.1578 16.04 84.0338 16.08 83.8738 16.08H82.4698V18.816C82.4698 19.24 82.5578 19.56 82.7338 19.776C82.9178 19.992 83.2138 20.1 83.6217 20.1C83.7658 20.1 83.8898 20.088 83.9938 20.064C84.1058 20.032 84.1978 20.012 84.2698 20.004C84.3578 20.004 84.4298 20.036 84.4858 20.1C84.5418 20.156 84.5698 20.268 84.5698 20.436C84.5698 20.556 84.5458 20.668 84.4978 20.772C84.4578 20.876 84.3818 20.944 84.2698 20.976C84.1738 21.008 84.0418 21.036 83.8738 21.06C83.7138 21.092 83.5698 21.108 83.4418 21.108ZM87.814 21.108C87.222 21.108 86.71 20.984 86.278 20.736C85.854 20.488 85.522 20.136 85.282 19.68C85.042 19.224 84.922 18.688 84.922 18.072C84.922 17.6 84.99 17.18 85.126 16.812C85.262 16.444 85.454 16.128 85.702 15.864C85.958 15.592 86.262 15.388 86.614 15.252C86.974 15.108 87.374 15.036 87.814 15.036C88.398 15.036 88.902 15.16 89.326 15.408C89.758 15.656 90.094 16.008 90.334 16.464C90.574 16.912 90.694 17.448 90.694 18.072C90.694 18.536 90.626 18.956 90.49 19.332C90.354 19.708 90.158 20.028 89.902 20.292C89.654 20.556 89.35 20.76 88.99 20.904C88.638 21.04 88.246 21.108 87.814 21.108ZM87.814 20.172C88.142 20.172 88.43 20.092 88.678 19.932C88.926 19.772 89.118 19.536 89.254 19.224C89.398 18.912 89.47 18.528 89.47 18.072C89.47 17.384 89.318 16.864 89.014 16.512C88.71 16.16 88.31 15.984 87.814 15.984C87.478 15.984 87.186 16.064 86.938 16.224C86.69 16.376 86.494 16.608 86.35 16.92C86.214 17.232 86.146 17.616 86.146 18.072C86.146 18.752 86.298 19.272 86.602 19.632C86.906 19.992 87.31 20.172 87.814 20.172ZM98.7712 21.108C98.2032 21.108 97.7032 21.036 97.2712 20.892C96.8392 20.74 96.4752 20.516 96.1792 20.22C95.8912 19.924 95.6712 19.556 95.5192 19.116C95.3672 18.676 95.2912 18.168 95.2912 17.592V13.08C95.2912 12.872 95.3432 12.716 95.4472 12.612C95.5592 12.508 95.7152 12.456 95.9152 12.456C96.1152 12.456 96.2672 12.508 96.3712 12.612C96.4832 12.716 96.5392 12.872 96.5392 13.08V17.568C96.5392 18.392 96.7272 19.008 97.1032 19.416C97.4872 19.824 98.0432 20.028 98.7712 20.028C99.5072 20.028 100.063 19.824 100.439 19.416C100.815 19.008 101.003 18.392 101.003 17.568V13.08C101.003 12.872 101.055 12.716 101.159 12.612C101.271 12.508 101.423 12.456 101.615 12.456C101.815 12.456 101.967 12.508 102.071 12.612C102.175 12.716 102.227 12.872 102.227 13.08V17.592C102.227 18.36 102.095 19.008 101.831 19.536C101.575 20.056 101.191 20.448 100.679 20.712C100.167 20.976 99.5312 21.108 98.7712 21.108ZM104.62 23.244C104.428 23.244 104.28 23.192 104.176 23.088C104.072 22.984 104.02 22.832 104.02 22.632V15.672C104.02 15.472 104.072 15.32 104.176 15.216C104.28 15.112 104.424 15.06 104.608 15.06C104.8 15.06 104.948 15.112 105.052 15.216C105.156 15.32 105.208 15.472 105.208 15.672V16.716L105.076 16.464C105.204 16.032 105.456 15.688 105.832 15.432C106.208 15.168 106.652 15.036 107.164 15.036C107.684 15.036 108.136 15.16 108.52 15.408C108.912 15.656 109.212 16.004 109.42 16.452C109.636 16.9 109.744 17.44 109.744 18.072C109.744 18.688 109.636 19.228 109.42 19.692C109.212 20.148 108.916 20.5 108.532 20.748C108.148 20.988 107.692 21.108 107.164 21.108C106.66 21.108 106.22 20.98 105.844 20.724C105.468 20.468 105.216 20.128 105.088 19.704H105.232V22.632C105.232 22.832 105.176 22.984 105.064 23.088C104.96 23.192 104.812 23.244 104.62 23.244ZM106.864 20.172C107.2 20.172 107.492 20.092 107.74 19.932C107.988 19.772 108.18 19.536 108.316 19.224C108.452 18.912 108.52 18.528 108.52 18.072C108.52 17.384 108.368 16.864 108.064 16.512C107.768 16.16 107.368 15.984 106.864 15.984C106.536 15.984 106.244 16.064 105.988 16.224C105.74 16.376 105.548 16.608 105.412 16.92C105.276 17.232 105.208 17.616 105.208 18.072C105.208 18.752 105.36 19.272 105.664 19.632C105.968 19.992 106.368 20.172 106.864 20.172ZM112.994 21.108C112.37 21.108 111.898 20.928 111.578 20.568C111.266 20.2 111.11 19.672 111.11 18.984V13.068C111.11 12.868 111.162 12.716 111.266 12.612C111.37 12.508 111.518 12.456 111.71 12.456C111.902 12.456 112.05 12.508 112.154 12.612C112.266 12.716 112.322 12.868 112.322 13.068V18.912C112.322 19.312 112.402 19.612 112.562 19.812C112.73 20.004 112.97 20.1 113.282 20.1C113.354 20.1 113.418 20.1 113.474 20.1C113.53 20.092 113.586 20.084 113.642 20.076C113.738 20.068 113.806 20.096 113.846 20.16C113.886 20.216 113.906 20.336 113.906 20.52C113.906 20.688 113.87 20.82 113.798 20.916C113.726 21.004 113.61 21.06 113.45 21.084C113.378 21.092 113.302 21.096 113.222 21.096C113.142 21.104 113.066 21.108 112.994 21.108ZM117.263 21.108C116.671 21.108 116.159 20.984 115.727 20.736C115.303 20.488 114.971 20.136 114.731 19.68C114.491 19.224 114.371 18.688 114.371 18.072C114.371 17.6 114.439 17.18 114.575 16.812C114.711 16.444 114.903 16.128 115.151 15.864C115.407 15.592 115.711 15.388 116.063 15.252C116.423 15.108 116.823 15.036 117.263 15.036C117.847 15.036 118.351 15.16 118.775 15.408C119.207 15.656 119.543 16.008 119.783 16.464C120.023 16.912 120.143 17.448 120.143 18.072C120.143 18.536 120.075 18.956 119.939 19.332C119.803 19.708 119.607 20.028 119.351 20.292C119.103 20.556 118.799 20.76 118.439 20.904C118.087 21.04 117.695 21.108 117.263 21.108ZM117.263 20.172C117.591 20.172 117.879 20.092 118.127 19.932C118.375 19.772 118.567 19.536 118.703 19.224C118.847 18.912 118.919 18.528 118.919 18.072C118.919 17.384 118.767 16.864 118.463 16.512C118.159 16.16 117.759 15.984 117.263 15.984C116.927 15.984 116.635 16.064 116.387 16.224C116.139 16.376 115.943 16.608 115.799 16.92C115.663 17.232 115.595 17.616 115.595 18.072C115.595 18.752 115.747 19.272 116.051 19.632C116.355 19.992 116.759 20.172 117.263 20.172ZM123.376 21.108C122.968 21.108 122.6 21.028 122.272 20.868C121.952 20.708 121.7 20.492 121.516 20.22C121.332 19.948 121.24 19.64 121.24 19.296C121.24 18.864 121.348 18.524 121.564 18.276C121.788 18.02 122.152 17.84 122.656 17.736C123.168 17.624 123.856 17.568 124.72 17.568H125.284V18.312H124.732C124.156 18.312 123.7 18.34 123.364 18.396C123.028 18.452 122.788 18.548 122.644 18.684C122.508 18.812 122.44 18.992 122.44 19.224C122.44 19.528 122.544 19.776 122.752 19.968C122.96 20.152 123.248 20.244 123.616 20.244C123.912 20.244 124.172 20.176 124.396 20.04C124.62 19.896 124.796 19.704 124.924 19.464C125.06 19.224 125.128 18.948 125.128 18.636V17.256C125.128 16.8 125.032 16.472 124.84 16.272C124.648 16.072 124.332 15.972 123.892 15.972C123.636 15.972 123.368 16.004 123.088 16.068C122.816 16.132 122.532 16.24 122.236 16.392C122.1 16.456 121.984 16.476 121.888 16.452C121.792 16.428 121.716 16.376 121.66 16.296C121.604 16.208 121.572 16.116 121.564 16.02C121.564 15.916 121.588 15.816 121.636 15.72C121.692 15.624 121.784 15.552 121.912 15.504C122.264 15.336 122.612 15.216 122.956 15.144C123.3 15.072 123.624 15.036 123.928 15.036C124.464 15.036 124.904 15.12 125.248 15.288C125.6 15.456 125.86 15.712 126.028 16.056C126.196 16.4 126.28 16.844 126.28 17.388V20.472C126.28 20.664 126.232 20.816 126.136 20.928C126.04 21.032 125.9 21.084 125.716 21.084C125.54 21.084 125.4 21.032 125.296 20.928C125.192 20.816 125.14 20.664 125.14 20.472V19.692H125.248C125.184 19.988 125.064 20.244 124.888 20.46C124.72 20.668 124.508 20.828 124.252 20.94C123.996 21.052 123.704 21.108 123.376 21.108ZM130.182 21.108C129.67 21.108 129.218 20.988 128.826 20.748C128.442 20.5 128.142 20.148 127.926 19.692C127.71 19.228 127.602 18.688 127.602 18.072C127.602 17.44 127.71 16.9 127.926 16.452C128.142 16.004 128.442 15.656 128.826 15.408C129.218 15.16 129.67 15.036 130.182 15.036C130.694 15.036 131.134 15.164 131.502 15.42C131.878 15.668 132.13 16.004 132.258 16.428H132.126V13.068C132.126 12.868 132.178 12.716 132.282 12.612C132.386 12.508 132.534 12.456 132.726 12.456C132.918 12.456 133.066 12.508 133.17 12.612C133.282 12.716 133.338 12.868 133.338 13.068V20.472C133.338 20.664 133.286 20.816 133.182 20.928C133.078 21.032 132.93 21.084 132.738 21.084C132.546 21.084 132.398 21.032 132.294 20.928C132.19 20.816 132.138 20.664 132.138 20.472V19.416L132.27 19.68C132.142 20.112 131.89 20.46 131.514 20.724C131.146 20.98 130.702 21.108 130.182 21.108ZM130.494 20.172C130.822 20.172 131.11 20.092 131.358 19.932C131.606 19.772 131.798 19.536 131.934 19.224C132.078 18.912 132.15 18.528 132.15 18.072C132.15 17.384 131.998 16.864 131.694 16.512C131.39 16.16 130.99 15.984 130.494 15.984C130.158 15.984 129.866 16.064 129.618 16.224C129.37 16.376 129.174 16.608 129.03 16.92C128.894 17.232 128.826 17.616 128.826 18.072C128.826 18.752 128.978 19.272 129.282 19.632C129.586 19.992 129.99 20.172 130.494 20.172Z" fill="white"/>
</g>
<path d="M76 39L71.6699 31.5L80.3301 31.5L76 39Z" fill="#64728C"/>
<defs>
<filter id="filter0_d_1033_6506" x="8" y="45" width="142" height="120" filterUnits="userSpaceOnUse" color-interpolation-filters="sRGB">
<feFlood flood-opacity="0" result="BackgroundImageFix"/>
<feColorMatrix in="SourceAlpha" type="matrix" values="0 0 0 0 0 0 0 0 0 0 0 0 0 0 0 0 0 0 127 0" result="hardAlpha"/>
<feOffset dy="4"/>
<feGaussianBlur stdDeviation="2"/>
<feComposite in2="hardAlpha" operator="out"/>
<feColorMatrix type="matrix" values="0 0 0 0 0 0 0 0 0 0 0 0 0 0 0 0 0 0 0.05 0"/>
<feBlend mode="normal" in2="BackgroundImageFix" result="effect1_dropShadow_1033_6506"/>
<feBlend mode="normal" in="SourceGraphic" in2="effect1_dropShadow_1033_6506" result="shape"/>
</filter>
<filter id="filter1_i_1033_6506" x="12" y="41" width="134" height="112" filterUnits="userSpaceOnUse" color-interpolation-filters="sRGB">
<feFlood flood-opacity="0" result="BackgroundImageFix"/>
<feBlend mode="normal" in="SourceGraphic" in2="BackgroundImageFix" result="shape"/>
<feColorMatrix in="SourceAlpha" type="matrix" values="0 0 0 0 0 0 0 0 0 0 0 0 0 0 0 0 0 0 127 0" result="hardAlpha"/>
<feOffset dy="-10"/>
<feGaussianBlur stdDeviation="2"/>
<feComposite in2="hardAlpha" operator="arithmetic" k2="-1" k3="1"/>
<feColorMatrix type="matrix" values="0 0 0 0 1 0 0 0 0 1 0 0 0 0 1 0 0 0 0.15 0"/>
<feBlend mode="normal" in2="shape" result="effect1_innerShadow_1033_6506"/>
</filter>
<filter id="filter2_d_1033_6506" x="0" y="0" width="155" height="42" filterUnits="userSpaceOnUse" color-interpolation-filters="sRGB">
<feFlood flood-opacity="0" result="BackgroundImageFix"/>
<feColorMatrix in="SourceAlpha" type="matrix" values="0 0 0 0 0 0 0 0 0 0 0 0 0 0 0 0 0 0 127 0" result="hardAlpha"/>
<feOffset dy="4"/>
<feGaussianBlur stdDeviation="2"/>
<feComposite in2="hardAlpha" operator="out"/>
<feColorMatrix type="matrix" values="0 0 0 0 0 0 0 0 0 0 0 0 0 0 0 0 0 0 0.06 0"/>
<feBlend mode="normal" in2="BackgroundImageFix" result="effect1_dropShadow_1033_6506"/>
<feBlend mode="normal" in="SourceGraphic" in2="effect1_dropShadow_1033_6506" result="shape"/>
</filter>
<linearGradient id="paint0_linear_1033_6506" x1="79" y1="45" x2="79" y2="153" gradientUnits="userSpaceOnUse">
<stop stop-color="#64728C" stop-opacity="0.04"/>
<stop offset="1" stop-color="#64728C" stop-opacity="0.15"/>
</linearGradient>
<linearGradient id="paint1_linear_1033_6506" x1="79" y1="45" x2="79" y2="153" gradientUnits="userSpaceOnUse">
<stop offset="0.345231" stop-color="#64728C" stop-opacity="0.03"/>
<stop offset="1" stop-color="#64728C" stop-opacity="0.37"/>
</linearGradient>
</defs>
</svg>
