<svg width="148" height="125" viewBox="0 0 148 125" fill="none" xmlns="http://www.w3.org/2000/svg">
<rect width="135" height="115" transform="translate(5 10)" fill="white"/>
<rect x="17" width="116" height="118" rx="16" fill="#E8EAEF" fill-opacity="0.75"/>
<g filter="url(#filter0_d_1037_6889)">
<g clip-path="url(#clip0_1037_6889)">
<rect x="4" y="10" width="140" height="113" rx="14" fill="#E8EAEF"/>
<g filter="url(#filter1_di_1037_6889)">
<rect x="4" y="14" width="140" height="109" rx="14" fill="white"/>
<rect x="4" y="14" width="140" height="109" rx="14" fill="url(#paint0_linear_1037_6889)" fill-opacity="0.1"/>
<rect x="4.5" y="14.5" width="139" height="108" rx="13.5" stroke="url(#paint1_linear_1037_6889)" stroke-opacity="0.2"/>
<path d="M75.8002 54.2998L73.2502 58.0498L72.5002 57.2998C71.9002 56.6998 71.0002 56.6998 70.4002 57.2998C69.8002 57.8998 69.8002 58.7998 70.4002 59.3998L72.5002 61.4998C72.8002 61.7998 73.1002 61.9498 73.5502 61.9498H73.7002C74.1502 61.9498 74.6002 61.6498 74.7502 61.3498L78.3502 55.9498C78.8002 55.1998 78.6502 54.2998 77.9002 53.8498C77.1502 53.3998 76.2502 53.5498 75.8002 54.2998Z" fill="#34BC40"/>
<path d="M87.2 52.8C86.6 52.2 86.3 51.45 86.3 50.7C86.3 47.4 83.6 44.7 80.3 44.7C79.55 44.7 78.8 44.4 78.2 43.8C75.8 41.4 72.05 41.4 69.65 43.8C69.2 44.4 68.45 44.7 67.7 44.7C64.4 44.7 61.7 47.4 61.7 50.7C61.7 51.45 61.4 52.2 60.8 52.8C58.4 55.2 58.4 58.95 60.8 61.35C61.4 61.95 61.7 62.7 61.7 63.45C61.7 66.75 64.4 69.45 67.7 69.45C68.45 69.45 69.2 69.75 69.8 70.35C71 71.4 72.5 72 74 72C75.5 72 77.15 71.4 78.2 70.2C78.8 69.6 79.55 69.3 80.3 69.3C83.6 69.3 86.3 66.6 86.3 63.3C86.3 62.55 86.6 61.8 87.05 61.2C89.6 58.95 89.6 55.05 87.2 52.8ZM85.1 59.1C83.9 60.3 83.3 61.8 83.3 63.3C83.3 64.95 81.95 66.3 80.3 66.3C78.65 66.3 77.15 66.9 76.1 68.1C74.9 69.3 72.95 69.3 71.9 68.1C70.7 66.9 69.2 66.3 67.7 66.3C66.05 66.3 64.7 64.95 64.7 63.3C64.7 61.65 64.1 60.15 62.9 59.1C61.7 57.9 61.7 56.1 62.9 54.9C64.1 53.7 64.7 52.2 64.7 50.7C64.7 49.05 66.05 47.7 67.7 47.7C69.35 47.7 70.85 47.1 71.9 45.9C72.5 45.3 73.25 45 74 45C74.75 45 75.5 45.3 76.1 45.9C77.3 47.1 78.8 47.7 80.3 47.7C81.95 47.7 83.3 49.05 83.3 50.7C83.3 52.35 83.9 53.85 85.1 54.9C86.3 56.1 86.3 57.9 85.1 59.1Z" fill="#34BC40"/>
<path d="M52.0241 94.12C51.1441 94.12 50.3881 93.944 49.7561 93.592C49.1321 93.232 48.6521 92.728 48.3161 92.08C47.9801 91.424 47.8121 90.652 47.8121 89.764C47.8121 89.1 47.9081 88.504 48.1001 87.976C48.2921 87.44 48.5681 86.984 48.9281 86.608C49.2881 86.224 49.7281 85.932 50.2481 85.732C50.7761 85.524 51.3681 85.42 52.0241 85.42C52.4641 85.42 52.8961 85.476 53.3201 85.588C53.7441 85.7 54.1161 85.86 54.4361 86.068C54.6041 86.172 54.7161 86.3 54.7721 86.452C54.8281 86.596 54.8401 86.74 54.8081 86.884C54.7761 87.02 54.7081 87.136 54.6041 87.232C54.5081 87.328 54.3841 87.384 54.2321 87.4C54.0881 87.408 53.9281 87.356 53.7521 87.244C53.5041 87.084 53.2361 86.968 52.9481 86.896C52.6601 86.824 52.3681 86.788 52.0721 86.788C51.5041 86.788 51.0241 86.904 50.6321 87.136C50.2401 87.368 49.9441 87.704 49.7441 88.144C49.5441 88.584 49.4441 89.124 49.4441 89.764C49.4441 90.396 49.5441 90.936 49.7441 91.384C49.9441 91.832 50.2401 92.172 50.6321 92.404C51.0241 92.636 51.5041 92.752 52.0721 92.752C52.3761 92.752 52.6761 92.716 52.9721 92.644C53.2681 92.564 53.5481 92.444 53.8121 92.284C53.9881 92.18 54.1441 92.136 54.2801 92.152C54.4241 92.16 54.5441 92.208 54.6401 92.296C54.7361 92.384 54.8001 92.496 54.8321 92.632C54.8641 92.76 54.8561 92.896 54.8081 93.04C54.7601 93.176 54.6641 93.296 54.5201 93.4C54.2001 93.632 53.8161 93.812 53.3681 93.94C52.9281 94.06 52.4801 94.12 52.0241 94.12ZM58.3544 94.12C57.7464 94.12 57.2184 93.996 56.7704 93.748C56.3224 93.5 55.9744 93.148 55.7264 92.692C55.4784 92.228 55.3544 91.684 55.3544 91.06C55.3544 90.588 55.4224 90.168 55.5584 89.8C55.7024 89.424 55.9064 89.104 56.1704 88.84C56.4344 88.568 56.7504 88.364 57.1184 88.228C57.4864 88.084 57.8984 88.012 58.3544 88.012C58.9624 88.012 59.4904 88.136 59.9384 88.384C60.3864 88.632 60.7344 88.984 60.9824 89.44C61.2304 89.896 61.3544 90.436 61.3544 91.06C61.3544 91.532 61.2824 91.956 61.1384 92.332C61.0024 92.708 60.8024 93.032 60.5384 93.304C60.2744 93.568 59.9584 93.772 59.5904 93.916C59.2224 94.052 58.8104 94.12 58.3544 94.12ZM58.3544 92.98C58.6504 92.98 58.9104 92.908 59.1344 92.764C59.3584 92.62 59.5304 92.408 59.6504 92.128C59.7784 91.84 59.8424 91.484 59.8424 91.06C59.8424 90.42 59.7064 89.944 59.4344 89.632C59.1624 89.312 58.8024 89.152 58.3544 89.152C58.0584 89.152 57.7984 89.224 57.5744 89.368C57.3504 89.504 57.1744 89.716 57.0464 90.004C56.9264 90.284 56.8664 90.636 56.8664 91.06C56.8664 91.692 57.0024 92.172 57.2744 92.5C57.5464 92.82 57.9064 92.98 58.3544 92.98ZM63.3605 94.096C63.1205 94.096 62.9365 94.032 62.8085 93.904C62.6805 93.768 62.6165 93.576 62.6165 93.328V88.792C62.6165 88.544 62.6805 88.356 62.8085 88.228C62.9365 88.1 63.1165 88.036 63.3485 88.036C63.5805 88.036 63.7605 88.1 63.8885 88.228C64.0165 88.356 64.0805 88.544 64.0805 88.792V89.668L63.9485 89.308C64.1085 88.908 64.3565 88.592 64.6925 88.36C65.0285 88.128 65.4285 88.012 65.8925 88.012C66.3645 88.012 66.7525 88.124 67.0565 88.348C67.3605 88.572 67.5725 88.916 67.6925 89.38H67.5245C67.6845 88.956 67.9485 88.624 68.3165 88.384C68.6845 88.136 69.1085 88.012 69.5885 88.012C70.0365 88.012 70.4045 88.1 70.6925 88.276C70.9885 88.452 71.2085 88.72 71.3525 89.08C71.4965 89.432 71.5685 89.88 71.5685 90.424V93.328C71.5685 93.576 71.5005 93.768 71.3645 93.904C71.2365 94.032 71.0525 94.096 70.8125 94.096C70.5725 94.096 70.3885 94.032 70.2605 93.904C70.1325 93.768 70.0685 93.576 70.0685 93.328V90.484C70.0685 90.036 69.9925 89.708 69.8405 89.5C69.6965 89.292 69.4485 89.188 69.0965 89.188C68.7045 89.188 68.3965 89.328 68.1725 89.608C67.9485 89.88 67.8365 90.26 67.8365 90.748V93.328C67.8365 93.576 67.7725 93.768 67.6445 93.904C67.5165 94.032 67.3325 94.096 67.0925 94.096C66.8525 94.096 66.6645 94.032 66.5285 93.904C66.4005 93.768 66.3365 93.576 66.3365 93.328V90.484C66.3365 90.036 66.2605 89.708 66.1085 89.5C65.9645 89.292 65.7205 89.188 65.3765 89.188C64.9845 89.188 64.6765 89.328 64.4525 89.608C64.2285 89.88 64.1165 90.26 64.1165 90.748V93.328C64.1165 93.84 63.8645 94.096 63.3605 94.096ZM73.8599 96.256C73.6199 96.256 73.4359 96.192 73.3079 96.064C73.1799 95.936 73.1159 95.748 73.1159 95.5V88.792C73.1159 88.544 73.1799 88.356 73.3079 88.228C73.4359 88.1 73.6159 88.036 73.8479 88.036C74.0879 88.036 74.2719 88.1 74.3999 88.228C74.5279 88.356 74.5919 88.544 74.5919 88.792V89.728L74.4599 89.368C74.5799 88.96 74.8239 88.632 75.1919 88.384C75.5679 88.136 76.0039 88.012 76.4999 88.012C77.0119 88.012 77.4599 88.136 77.8439 88.384C78.2359 88.632 78.5399 88.984 78.7559 89.44C78.9719 89.888 79.0799 90.428 79.0799 91.06C79.0799 91.684 78.9719 92.228 78.7559 92.692C78.5399 93.148 78.2399 93.5 77.8559 93.748C77.4719 93.996 77.0199 94.12 76.4999 94.12C76.0119 94.12 75.5839 94 75.2159 93.76C74.8479 93.512 74.5999 93.192 74.4719 92.8H74.6159V95.5C74.6159 95.748 74.5479 95.936 74.4119 96.064C74.2839 96.192 74.0999 96.256 73.8599 96.256ZM76.0799 92.98C76.3759 92.98 76.6359 92.908 76.8599 92.764C77.0839 92.62 77.2559 92.408 77.3759 92.128C77.5039 91.84 77.5679 91.484 77.5679 91.06C77.5679 90.42 77.4319 89.944 77.1599 89.632C76.8879 89.312 76.5279 89.152 76.0799 89.152C75.7839 89.152 75.5239 89.224 75.2999 89.368C75.0759 89.504 74.8999 89.716 74.7719 90.004C74.6519 90.284 74.5919 90.636 74.5919 91.06C74.5919 91.692 74.7279 92.172 74.9999 92.5C75.2719 92.82 75.6319 92.98 76.0799 92.98ZM82.3153 94.12C81.6513 94.12 81.1513 93.932 80.8153 93.556C80.4793 93.172 80.3113 92.612 80.3113 91.876V86.2C80.3113 85.952 80.3753 85.764 80.5033 85.636C80.6313 85.508 80.8153 85.444 81.0553 85.444C81.2953 85.444 81.4793 85.508 81.6073 85.636C81.7433 85.764 81.8113 85.952 81.8113 86.2V91.804C81.8113 92.172 81.8873 92.444 82.0393 92.62C82.1993 92.796 82.4233 92.884 82.7113 92.884C82.7753 92.884 82.8353 92.884 82.8913 92.884C82.9473 92.876 83.0033 92.868 83.0592 92.86C83.1713 92.844 83.2473 92.876 83.2873 92.956C83.3273 93.028 83.3473 93.18 83.3473 93.412C83.3473 93.612 83.3073 93.768 83.2273 93.88C83.1473 93.992 83.0153 94.06 82.8313 94.084C82.7513 94.092 82.6673 94.1 82.5793 94.108C82.4913 94.116 82.4033 94.12 82.3153 94.12ZM86.9767 94.12C86.3127 94.12 85.7407 93.996 85.2607 93.748C84.7807 93.5 84.4087 93.148 84.1447 92.692C83.8887 92.236 83.7607 91.696 83.7607 91.072C83.7607 90.464 83.8847 89.932 84.1327 89.476C84.3887 89.02 84.7367 88.664 85.1767 88.408C85.6247 88.144 86.1327 88.012 86.7007 88.012C87.1167 88.012 87.4887 88.08 87.8167 88.216C88.1527 88.352 88.4367 88.548 88.6687 88.804C88.9087 89.06 89.0887 89.372 89.2087 89.74C89.3367 90.1 89.4007 90.508 89.4007 90.964C89.4007 91.108 89.3487 91.22 89.2447 91.3C89.1487 91.372 89.0087 91.408 88.8247 91.408H84.9727V90.544H88.3447L88.1527 90.724C88.1527 90.356 88.0967 90.048 87.9847 89.8C87.8807 89.552 87.7247 89.364 87.5167 89.236C87.3167 89.1 87.0647 89.032 86.7607 89.032C86.4247 89.032 86.1367 89.112 85.8967 89.272C85.6647 89.424 85.4847 89.644 85.3567 89.932C85.2367 90.212 85.1767 90.548 85.1767 90.94V91.024C85.1767 91.68 85.3287 92.172 85.6327 92.5C85.9447 92.82 86.4007 92.98 87.0007 92.98C87.2087 92.98 87.4407 92.956 87.6967 92.908C87.9607 92.852 88.2087 92.76 88.4407 92.632C88.6087 92.536 88.7567 92.496 88.8847 92.512C89.0127 92.52 89.1127 92.564 89.1847 92.644C89.2647 92.724 89.3127 92.824 89.3287 92.944C89.3447 93.056 89.3207 93.172 89.2567 93.292C89.2007 93.412 89.1007 93.516 88.9567 93.604C88.6767 93.78 88.3527 93.912 87.9847 94C87.6247 94.08 87.2887 94.12 86.9767 94.12ZM93.2532 94.12C92.7332 94.12 92.2972 94.032 91.9452 93.856C91.6012 93.68 91.3452 93.424 91.1772 93.088C91.0092 92.744 90.9252 92.32 90.9252 91.816V89.26H90.3012C90.1092 89.26 89.9612 89.212 89.8572 89.116C89.7532 89.012 89.7012 88.872 89.7012 88.696C89.7012 88.512 89.7532 88.372 89.8572 88.276C89.9612 88.18 90.1092 88.132 90.3012 88.132H90.9252V87.04C90.9252 86.792 90.9892 86.604 91.1172 86.476C91.2532 86.348 91.4412 86.284 91.6812 86.284C91.9212 86.284 92.1052 86.348 92.2332 86.476C92.3612 86.604 92.4252 86.792 92.4252 87.04V88.132H93.6972C93.8892 88.132 94.0372 88.18 94.1412 88.276C94.2452 88.372 94.2972 88.512 94.2972 88.696C94.2972 88.872 94.2452 89.012 94.1412 89.116C94.0372 89.212 93.8892 89.26 93.6972 89.26H92.4252V91.732C92.4252 92.116 92.5092 92.404 92.6772 92.596C92.8452 92.788 93.1172 92.884 93.4932 92.884C93.6292 92.884 93.7492 92.872 93.8532 92.848C93.9572 92.824 94.0492 92.808 94.1292 92.8C94.2252 92.792 94.3052 92.824 94.3692 92.896C94.4332 92.96 94.4652 93.096 94.4652 93.304C94.4652 93.464 94.4372 93.608 94.3812 93.736C94.3332 93.856 94.2412 93.94 94.1052 93.988C94.0012 94.02 93.8652 94.048 93.6972 94.072C93.5292 94.104 93.3812 94.12 93.2532 94.12ZM98.004 94.12C97.34 94.12 96.768 93.996 96.288 93.748C95.808 93.5 95.436 93.148 95.172 92.692C94.916 92.236 94.788 91.696 94.788 91.072C94.788 90.464 94.912 89.932 95.16 89.476C95.416 89.02 95.764 88.664 96.204 88.408C96.652 88.144 97.16 88.012 97.728 88.012C98.144 88.012 98.516 88.08 98.844 88.216C99.18 88.352 99.464 88.548 99.696 88.804C99.936 89.06 100.116 89.372 100.236 89.74C100.364 90.1 100.428 90.508 100.428 90.964C100.428 91.108 100.376 91.22 100.272 91.3C100.176 91.372 100.036 91.408 99.852 91.408H96V90.544H99.372L99.18 90.724C99.18 90.356 99.124 90.048 99.012 89.8C98.908 89.552 98.752 89.364 98.544 89.236C98.344 89.1 98.092 89.032 97.788 89.032C97.452 89.032 97.164 89.112 96.924 89.272C96.692 89.424 96.512 89.644 96.384 89.932C96.264 90.212 96.204 90.548 96.204 90.94V91.024C96.204 91.68 96.356 92.172 96.66 92.5C96.972 92.82 97.428 92.98 98.028 92.98C98.236 92.98 98.468 92.956 98.724 92.908C98.988 92.852 99.236 92.76 99.468 92.632C99.636 92.536 99.784 92.496 99.912 92.512C100.04 92.52 100.14 92.564 100.212 92.644C100.292 92.724 100.34 92.824 100.356 92.944C100.372 93.056 100.348 93.172 100.284 93.292C100.228 93.412 100.128 93.516 99.984 93.604C99.704 93.78 99.38 93.912 99.012 94C98.652 94.08 98.316 94.12 98.004 94.12Z" fill="#64728C"/>
</g>
</g>
<rect x="4.5" y="10.5" width="139" height="112" rx="13.5" stroke="#64728C" stroke-opacity="0.22"/>
</g>
<defs>
<filter id="filter0_d_1037_6889" x="0" y="2" width="148" height="121" filterUnits="userSpaceOnUse" color-interpolation-filters="sRGB">
<feFlood flood-opacity="0" result="BackgroundImageFix"/>
<feColorMatrix in="SourceAlpha" type="matrix" values="0 0 0 0 0 0 0 0 0 0 0 0 0 0 0 0 0 0 127 0" result="hardAlpha"/>
<feOffset dy="-4"/>
<feGaussianBlur stdDeviation="2"/>
<feComposite in2="hardAlpha" operator="out"/>
<feColorMatrix type="matrix" values="0 0 0 0 0 0 0 0 0 0 0 0 0 0 0 0 0 0 0.05 0"/>
<feBlend mode="normal" in2="BackgroundImageFix" result="effect1_dropShadow_1037_6889"/>
<feBlend mode="normal" in="SourceGraphic" in2="effect1_dropShadow_1037_6889" result="shape"/>
</filter>
<filter id="filter1_di_1037_6889" x="-1" y="-5" width="150" height="128" filterUnits="userSpaceOnUse" color-interpolation-filters="sRGB">
<feFlood flood-opacity="0" result="BackgroundImageFix"/>
<feColorMatrix in="SourceAlpha" type="matrix" values="0 0 0 0 0 0 0 0 0 0 0 0 0 0 0 0 0 0 127 0" result="hardAlpha"/>
<feOffset dy="-14"/>
<feGaussianBlur stdDeviation="2.5"/>
<feComposite in2="hardAlpha" operator="out"/>
<feColorMatrix type="matrix" values="0 0 0 0 0 0 0 0 0 0 0 0 0 0 0 0 0 0 0.05 0"/>
<feBlend mode="normal" in2="BackgroundImageFix" result="effect1_dropShadow_1037_6889"/>
<feBlend mode="normal" in="SourceGraphic" in2="effect1_dropShadow_1037_6889" result="shape"/>
<feColorMatrix in="SourceAlpha" type="matrix" values="0 0 0 0 0 0 0 0 0 0 0 0 0 0 0 0 0 0 127 0" result="hardAlpha"/>
<feOffset dy="-10"/>
<feGaussianBlur stdDeviation="2"/>
<feComposite in2="hardAlpha" operator="arithmetic" k2="-1" k3="1"/>
<feColorMatrix type="matrix" values="0 0 0 0 1 0 0 0 0 1 0 0 0 0 1 0 0 0 0.15 0"/>
<feBlend mode="normal" in2="shape" result="effect2_innerShadow_1037_6889"/>
</filter>
<linearGradient id="paint0_linear_1037_6889" x1="74" y1="14" x2="74" y2="123" gradientUnits="userSpaceOnUse">
<stop stop-color="#64728C" stop-opacity="0.04"/>
<stop offset="1" stop-color="#64728C" stop-opacity="0.15"/>
</linearGradient>
<linearGradient id="paint1_linear_1037_6889" x1="74" y1="14" x2="74" y2="123" gradientUnits="userSpaceOnUse">
<stop offset="0.345231" stop-color="#64728C" stop-opacity="0.03"/>
<stop offset="1" stop-color="#64728C" stop-opacity="0.37"/>
</linearGradient>
<clipPath id="clip0_1037_6889">
<rect x="4" y="10" width="140" height="113" rx="14" fill="white"/>
</clipPath>
</defs>
</svg>
