<svg width="148" height="173" viewBox="0 0 148 173" fill="none" xmlns="http://www.w3.org/2000/svg">
<rect width="135" height="115" transform="translate(5 10)" fill="white"/>
<rect x="16" width="116" height="118" rx="16" fill="#E8EAEF" fill-opacity="0.75"/>
<g filter="url(#filter0_d_1348_5065)">
<g clip-path="url(#clip0_1348_5065)">
<rect x="4" y="10" width="140" height="110.803" rx="14" fill="#E8EAEF"/>
<g filter="url(#filter1_di_1348_5065)">
<rect x="4" y="14" width="140" height="106.803" rx="14" fill="white"/>
<rect x="4" y="14" width="140" height="106.803" rx="14" fill="url(#paint0_linear_1348_5065)" fill-opacity="0.1"/>
<rect x="4.5" y="14.5" width="139" height="105.803" rx="13.5" stroke="url(#paint1_linear_1348_5065)" stroke-opacity="0.2"/>
<path d="M90.9836 52.2192L85.6959 42.7769C84.374 40.3219 81.919 39 79.0863 39H68.8887C66.056 39 63.601 40.5108 62.2791 42.7769L56.9914 52.2192C55.6695 54.4853 55.6695 57.318 56.9914 59.5841L62.2791 69.0264C63.601 71.4814 66.056 72.8033 68.8887 72.8033H79.2752C81.919 72.8033 84.5628 71.2925 85.8848 69.0264L91.1724 59.5841C92.3055 57.5068 92.3055 54.4853 90.9836 52.2192ZM87.7732 57.8845L82.4856 67.3268C81.7302 68.4599 80.5971 69.2152 79.2752 69.2152H68.8887C67.5668 69.2152 66.2449 68.4599 65.6783 67.3268L60.3907 57.8845C59.8241 56.7515 59.8241 55.2407 60.3907 54.1076L65.6783 44.6654C66.4337 43.5323 67.5668 42.7769 68.8887 42.7769H79.2752C80.5971 42.7769 81.919 43.5323 82.4856 44.6654L87.7732 54.1076C88.3398 55.2407 88.3398 56.7515 87.7732 57.8845Z" fill="#EB0910"/>
<path d="M73.9871 46.5542C72.854 46.5542 72.0986 47.3096 72.0986 48.4427V57.8849C72.0986 59.018 72.854 59.7734 73.9871 59.7734C75.1202 59.7734 75.8755 59.018 75.8755 57.8849V48.4427C75.8755 47.3096 75.1202 46.5542 73.9871 46.5542Z" fill="#EB0910"/>
<path d="M73.9871 65.4385C75.03 65.4385 75.8755 64.593 75.8755 63.5501C75.8755 62.5071 75.03 61.6616 73.9871 61.6616C72.9441 61.6616 72.0986 62.5071 72.0986 63.5501C72.0986 64.593 72.9441 65.4385 73.9871 65.4385Z" fill="#EB0910"/>
<path d="M44.7486 91.8992C44.5006 91.8992 44.3086 91.8312 44.1726 91.6952C44.0446 91.5512 43.9806 91.3552 43.9806 91.1072V84.0392C43.9806 83.7832 44.0446 83.5872 44.1726 83.4512C44.3086 83.3152 44.5006 83.2472 44.7486 83.2472C44.9966 83.2472 45.1846 83.3152 45.3126 83.4512C45.4486 83.5872 45.5166 83.7832 45.5166 84.0392V91.1072C45.5166 91.3552 45.4526 91.5512 45.3246 91.6952C45.1966 91.8312 45.0046 91.8992 44.7486 91.8992ZM47.9674 91.8992C47.7274 91.8992 47.5434 91.8352 47.4154 91.7072C47.2874 91.5712 47.2234 91.3792 47.2234 91.1312V86.5952C47.2234 86.3472 47.2874 86.1592 47.4154 86.0312C47.5434 85.9032 47.7234 85.8392 47.9554 85.8392C48.1874 85.8392 48.3674 85.9032 48.4954 86.0312C48.6234 86.1592 48.6874 86.3472 48.6874 86.5952V87.4112L48.5554 87.1112C48.7314 86.6872 49.0034 86.3672 49.3714 86.1512C49.7474 85.9272 50.1714 85.8152 50.6434 85.8152C51.1154 85.8152 51.5034 85.9032 51.8074 86.0792C52.1114 86.2552 52.3394 86.5232 52.4914 86.8832C52.6434 87.2352 52.7194 87.6832 52.7194 88.2272V91.1312C52.7194 91.3792 52.6554 91.5712 52.5274 91.7072C52.3994 91.8352 52.2154 91.8992 51.9754 91.8992C51.7354 91.8992 51.5474 91.8352 51.4114 91.7072C51.2834 91.5712 51.2194 91.3792 51.2194 91.1312V88.2992C51.2194 87.8432 51.1314 87.5112 50.9554 87.3032C50.7874 87.0952 50.5234 86.9912 50.1634 86.9912C49.7234 86.9912 49.3714 87.1312 49.1074 87.4112C48.8514 87.6832 48.7234 88.0472 48.7234 88.5032V91.1312C48.7234 91.6432 48.4714 91.8992 47.9674 91.8992ZM56.9549 91.9232C56.3389 91.9232 55.8029 91.7992 55.3469 91.5512C54.8909 91.2952 54.5389 90.9352 54.2909 90.4712C54.0429 90.0072 53.9189 89.4632 53.9189 88.8392C53.9189 88.3672 53.9869 87.9472 54.1229 87.5792C54.2669 87.2032 54.4709 86.8872 54.7349 86.6312C54.9989 86.3672 55.3189 86.1672 55.6949 86.0312C56.0709 85.8872 56.4909 85.8152 56.9549 85.8152C57.2189 85.8152 57.5029 85.8512 57.8069 85.9232C58.1189 85.9952 58.4109 86.1152 58.6829 86.2832C58.8109 86.3632 58.8949 86.4592 58.9349 86.5712C58.9749 86.6832 58.9829 86.7992 58.9589 86.9192C58.9349 87.0312 58.8829 87.1312 58.8029 87.2192C58.7309 87.2992 58.6389 87.3512 58.5269 87.3752C58.4149 87.3912 58.2909 87.3632 58.1549 87.2912C57.9789 87.1872 57.7989 87.1112 57.6149 87.0632C57.4309 87.0072 57.2549 86.9792 57.0869 86.9792C56.8229 86.9792 56.5909 87.0232 56.3909 87.1112C56.1909 87.1912 56.0189 87.3112 55.8749 87.4712C55.7389 87.6232 55.6349 87.8152 55.5629 88.0472C55.4909 88.2792 55.4549 88.5472 55.4549 88.8512C55.4549 89.4432 55.5949 89.9112 55.8749 90.2552C56.1629 90.5912 56.5669 90.7592 57.0869 90.7592C57.2549 90.7592 57.4269 90.7352 57.6029 90.6872C57.7869 90.6392 57.9709 90.5632 58.1549 90.4592C58.2909 90.3872 58.4109 90.3632 58.5149 90.3872C58.6269 90.4112 58.7189 90.4672 58.7909 90.5552C58.8629 90.6352 58.9069 90.7352 58.9229 90.8552C58.9389 90.9672 58.9229 91.0792 58.8749 91.1912C58.8349 91.3032 58.7549 91.3952 58.6349 91.4672C58.3709 91.6272 58.0909 91.7432 57.7949 91.8152C57.4989 91.8872 57.2189 91.9232 56.9549 91.9232ZM62.4619 91.9232C61.8539 91.9232 61.3259 91.7992 60.8779 91.5512C60.4299 91.3032 60.0819 90.9512 59.8339 90.4952C59.5859 90.0312 59.4619 89.4872 59.4619 88.8632C59.4619 88.3912 59.5299 87.9712 59.6659 87.6032C59.8099 87.2272 60.0139 86.9072 60.2779 86.6432C60.5419 86.3712 60.8579 86.1672 61.2259 86.0312C61.5939 85.8872 62.0059 85.8152 62.4619 85.8152C63.0699 85.8152 63.5979 85.9392 64.0459 86.1872C64.4939 86.4352 64.8419 86.7872 65.0899 87.2432C65.3379 87.6992 65.4619 88.2392 65.4619 88.8632C65.4619 89.3352 65.3899 89.7592 65.2459 90.1352C65.1099 90.5112 64.9099 90.8352 64.6459 91.1072C64.3819 91.3712 64.0659 91.5752 63.6979 91.7192C63.3299 91.8552 62.9179 91.9232 62.4619 91.9232ZM62.4619 90.7832C62.7579 90.7832 63.0179 90.7112 63.2419 90.5672C63.4659 90.4232 63.6379 90.2112 63.7579 89.9312C63.8859 89.6432 63.9499 89.2872 63.9499 88.8632C63.9499 88.2232 63.8139 87.7472 63.5419 87.4352C63.2699 87.1152 62.9099 86.9552 62.4619 86.9552C62.1659 86.9552 61.9059 87.0272 61.6819 87.1712C61.4579 87.3072 61.2819 87.5192 61.1539 87.8072C61.0339 88.0872 60.9739 88.4392 60.9739 88.8632C60.9739 89.4952 61.1099 89.9752 61.3819 90.3032C61.6539 90.6232 62.0139 90.7832 62.4619 90.7832ZM67.4679 91.8992C67.2279 91.8992 67.0439 91.8352 66.9159 91.7072C66.7879 91.5712 66.7239 91.3792 66.7239 91.1312V86.5952C66.7239 86.3472 66.7879 86.1592 66.9159 86.0312C67.0439 85.9032 67.2239 85.8392 67.4559 85.8392C67.6879 85.8392 67.8679 85.9032 67.9959 86.0312C68.1239 86.1592 68.1879 86.3472 68.1879 86.5952V87.4712L68.0559 87.1112C68.2159 86.7112 68.4639 86.3952 68.7999 86.1632C69.1359 85.9312 69.5359 85.8152 69.9999 85.8152C70.4719 85.8152 70.8599 85.9272 71.1639 86.1512C71.4679 86.3752 71.6799 86.7192 71.7999 87.1832H71.6319C71.7919 86.7592 72.0559 86.4272 72.4239 86.1872C72.7919 85.9392 73.2159 85.8152 73.6959 85.8152C74.1439 85.8152 74.5119 85.9032 74.7999 86.0792C75.0959 86.2552 75.3159 86.5232 75.4599 86.8832C75.6039 87.2352 75.6759 87.6832 75.6759 88.2272V91.1312C75.6759 91.3792 75.6079 91.5712 75.4719 91.7072C75.3439 91.8352 75.1599 91.8992 74.9199 91.8992C74.6799 91.8992 74.4959 91.8352 74.3679 91.7072C74.2399 91.5712 74.1759 91.3792 74.1759 91.1312V88.2872C74.1759 87.8392 74.0999 87.5112 73.9479 87.3032C73.8039 87.0952 73.5559 86.9912 73.2039 86.9912C72.8119 86.9912 72.5039 87.1312 72.2799 87.4112C72.0559 87.6832 71.9439 88.0632 71.9439 88.5512V91.1312C71.9439 91.3792 71.8799 91.5712 71.7519 91.7072C71.6239 91.8352 71.4399 91.8992 71.1999 91.8992C70.9599 91.8992 70.7719 91.8352 70.6359 91.7072C70.5079 91.5712 70.4439 91.3792 70.4439 91.1312V88.2872C70.4439 87.8392 70.3679 87.5112 70.2159 87.3032C70.0719 87.0952 69.8279 86.9912 69.4839 86.9912C69.0919 86.9912 68.7839 87.1312 68.5599 87.4112C68.3359 87.6832 68.2239 88.0632 68.2239 88.5512V91.1312C68.2239 91.6432 67.9719 91.8992 67.4679 91.8992ZM77.9674 94.0592C77.7274 94.0592 77.5434 93.9952 77.4154 93.8672C77.2874 93.7392 77.2234 93.5512 77.2234 93.3032V86.5952C77.2234 86.3472 77.2874 86.1592 77.4154 86.0312C77.5434 85.9032 77.7234 85.8392 77.9554 85.8392C78.1954 85.8392 78.3794 85.9032 78.5074 86.0312C78.6354 86.1592 78.6994 86.3472 78.6994 86.5952V87.5312L78.5674 87.1712C78.6874 86.7632 78.9314 86.4352 79.2994 86.1872C79.6754 85.9392 80.1114 85.8152 80.6074 85.8152C81.1194 85.8152 81.5674 85.9392 81.9514 86.1872C82.3434 86.4352 82.6474 86.7872 82.8634 87.2432C83.0794 87.6912 83.1874 88.2312 83.1874 88.8632C83.1874 89.4872 83.0794 90.0312 82.8634 90.4952C82.6474 90.9512 82.3474 91.3032 81.9634 91.5512C81.5794 91.7992 81.1274 91.9232 80.6074 91.9232C80.1194 91.9232 79.6914 91.8032 79.3234 91.5632C78.9554 91.3152 78.7074 90.9952 78.5794 90.6032H78.7234V93.3032C78.7234 93.5512 78.6554 93.7392 78.5194 93.8672C78.3914 93.9952 78.2074 94.0592 77.9674 94.0592ZM80.1874 90.7832C80.4834 90.7832 80.7434 90.7112 80.9674 90.5672C81.1914 90.4232 81.3634 90.2112 81.4834 89.9312C81.6114 89.6432 81.6754 89.2872 81.6754 88.8632C81.6754 88.2232 81.5394 87.7472 81.2674 87.4352C80.9954 87.1152 80.6354 86.9552 80.1874 86.9552C79.8914 86.9552 79.6314 87.0272 79.4074 87.1712C79.1834 87.3072 79.0074 87.5192 78.8794 87.8072C78.7594 88.0872 78.6994 88.4392 78.6994 88.8632C78.6994 89.4952 78.8354 89.9752 79.1074 90.3032C79.3794 90.6232 79.7394 90.7832 80.1874 90.7832ZM86.4227 91.9232C85.7587 91.9232 85.2587 91.7352 84.9227 91.3592C84.5867 90.9752 84.4187 90.4152 84.4187 89.6792V84.0032C84.4187 83.7552 84.4827 83.5672 84.6107 83.4392C84.7387 83.3112 84.9227 83.2472 85.1627 83.2472C85.4027 83.2472 85.5867 83.3112 85.7147 83.4392C85.8507 83.5672 85.9187 83.7552 85.9187 84.0032V89.6072C85.9187 89.9752 85.9947 90.2472 86.1467 90.4232C86.3067 90.5992 86.5307 90.6872 86.8187 90.6872C86.8827 90.6872 86.9427 90.6872 86.9987 90.6872C87.0547 90.6792 87.1107 90.6712 87.1667 90.6632C87.2787 90.6472 87.3547 90.6792 87.3947 90.7592C87.4347 90.8312 87.4547 90.9832 87.4547 91.2152C87.4547 91.4152 87.4147 91.5712 87.3347 91.6832C87.2547 91.7952 87.1227 91.8632 86.9387 91.8872C86.8587 91.8952 86.7747 91.9032 86.6867 91.9112C86.5987 91.9192 86.5107 91.9232 86.4227 91.9232ZM91.0841 91.9232C90.4201 91.9232 89.8481 91.7992 89.3681 91.5512C88.8881 91.3032 88.5161 90.9512 88.2521 90.4952C87.9961 90.0392 87.8681 89.4992 87.8681 88.8752C87.8681 88.2672 87.9921 87.7352 88.2401 87.2792C88.4961 86.8232 88.8441 86.4672 89.2841 86.2112C89.7321 85.9472 90.2401 85.8152 90.8081 85.8152C91.2241 85.8152 91.5961 85.8832 91.9241 86.0192C92.2601 86.1552 92.5441 86.3512 92.7761 86.6072C93.0161 86.8632 93.1961 87.1752 93.3161 87.5432C93.4441 87.9032 93.5081 88.3112 93.5081 88.7672C93.5081 88.9112 93.4561 89.0232 93.3521 89.1032C93.2561 89.1752 93.1161 89.2112 92.9321 89.2112H89.0801V88.3472H92.4521L92.2601 88.5272C92.2601 88.1592 92.2041 87.8512 92.0921 87.6032C91.9881 87.3552 91.8321 87.1672 91.6241 87.0392C91.4241 86.9032 91.1721 86.8352 90.8681 86.8352C90.5321 86.8352 90.2441 86.9152 90.0041 87.0752C89.7721 87.2272 89.5921 87.4472 89.4641 87.7352C89.3441 88.0152 89.2841 88.3512 89.2841 88.7432V88.8272C89.2841 89.4832 89.4361 89.9752 89.7401 90.3032C90.0521 90.6232 90.5081 90.7832 91.1081 90.7832C91.3161 90.7832 91.5481 90.7592 91.8041 90.7112C92.0681 90.6552 92.3161 90.5632 92.5481 90.4352C92.7161 90.3392 92.8641 90.2992 92.9921 90.3152C93.1201 90.3232 93.2201 90.3672 93.2921 90.4472C93.3721 90.5272 93.4201 90.6272 93.4361 90.7472C93.4521 90.8592 93.4281 90.9752 93.3641 91.0952C93.3081 91.2152 93.2081 91.3192 93.0641 91.4072C92.7841 91.5832 92.4601 91.7152 92.0921 91.8032C91.7321 91.8832 91.3961 91.9232 91.0841 91.9232ZM97.3606 91.9232C96.8406 91.9232 96.4046 91.8352 96.0526 91.6592C95.7086 91.4832 95.4526 91.2272 95.2846 90.8912C95.1166 90.5472 95.0326 90.1232 95.0326 89.6192V87.0632H94.4086C94.2166 87.0632 94.0686 87.0152 93.9646 86.9192C93.8606 86.8152 93.8086 86.6752 93.8086 86.4992C93.8086 86.3152 93.8606 86.1752 93.9646 86.0792C94.0686 85.9832 94.2166 85.9352 94.4086 85.9352H95.0326V84.8432C95.0326 84.5952 95.0966 84.4072 95.2246 84.2792C95.3606 84.1512 95.5486 84.0872 95.7886 84.0872C96.0286 84.0872 96.2126 84.1512 96.3406 84.2792C96.4686 84.4072 96.5326 84.5952 96.5326 84.8432V85.9352H97.8046C97.9966 85.9352 98.1446 85.9832 98.2486 86.0792C98.3526 86.1752 98.4046 86.3152 98.4046 86.4992C98.4046 86.6752 98.3526 86.8152 98.2486 86.9192C98.1446 87.0152 97.9966 87.0632 97.8046 87.0632H96.5326V89.5352C96.5326 89.9192 96.6166 90.2072 96.7846 90.3992C96.9526 90.5912 97.2246 90.6872 97.6006 90.6872C97.7366 90.6872 97.8566 90.6752 97.9606 90.6512C98.0646 90.6272 98.1566 90.6112 98.2366 90.6032C98.3326 90.5952 98.4126 90.6272 98.4766 90.6992C98.5406 90.7632 98.5726 90.8992 98.5726 91.1072C98.5726 91.2672 98.5446 91.4112 98.4886 91.5392C98.4406 91.6592 98.3486 91.7432 98.2126 91.7912C98.1086 91.8232 97.9726 91.8512 97.8046 91.8752C97.6366 91.9072 97.4886 91.9232 97.3606 91.9232ZM102.111 91.9232C101.447 91.9232 100.875 91.7992 100.395 91.5512C99.9155 91.3032 99.5435 90.9512 99.2795 90.4952C99.0235 90.0392 98.8955 89.4992 98.8955 88.8752C98.8955 88.2672 99.0195 87.7352 99.2675 87.2792C99.5235 86.8232 99.8715 86.4672 100.311 86.2112C100.759 85.9472 101.267 85.8152 101.835 85.8152C102.251 85.8152 102.623 85.8832 102.951 86.0192C103.287 86.1552 103.571 86.3512 103.803 86.6072C104.043 86.8632 104.223 87.1752 104.343 87.5432C104.471 87.9032 104.535 88.3112 104.535 88.7672C104.535 88.9112 104.483 89.0232 104.379 89.1032C104.283 89.1752 104.143 89.2112 103.959 89.2112H100.107V88.3472H103.479L103.287 88.5272C103.287 88.1592 103.231 87.8512 103.119 87.6032C103.015 87.3552 102.859 87.1672 102.651 87.0392C102.451 86.9032 102.199 86.8352 101.895 86.8352C101.559 86.8352 101.271 86.9152 101.031 87.0752C100.799 87.2272 100.619 87.4472 100.491 87.7352C100.371 88.0152 100.311 88.3512 100.311 88.7432V88.8272C100.311 89.4832 100.463 89.9752 100.767 90.3032C101.079 90.6232 101.535 90.7832 102.135 90.7832C102.343 90.7832 102.575 90.7592 102.831 90.7112C103.095 90.6552 103.343 90.5632 103.575 90.4352C103.743 90.3392 103.891 90.2992 104.019 90.3152C104.147 90.3232 104.247 90.3672 104.319 90.4472C104.399 90.5272 104.447 90.6272 104.463 90.7472C104.479 90.8592 104.455 90.9752 104.391 91.0952C104.335 91.2152 104.235 91.3192 104.091 91.4072C103.811 91.5832 103.487 91.7152 103.119 91.8032C102.759 91.8832 102.423 91.9232 102.111 91.9232Z" fill="#64728C"/>
</g>
</g>
<rect x="4.5" y="10.5" width="139" height="109.803" rx="13.5" stroke="#64728C" stroke-opacity="0.22"/>
</g>
<g filter="url(#filter2_b_1348_5065)">
<rect x="6" y="125" width="136" height="48" rx="14" fill="#EB0910" fill-opacity="0.07"/>
<path d="M30.8493 145.108C30.2813 145.108 29.7813 145.036 29.3493 144.892C28.9173 144.74 28.5533 144.516 28.2573 144.22C27.9693 143.924 27.7493 143.556 27.5973 143.116C27.4453 142.676 27.3693 142.168 27.3693 141.592V137.08C27.3693 136.872 27.4213 136.716 27.5253 136.612C27.6373 136.508 27.7933 136.456 27.9933 136.456C28.1933 136.456 28.3453 136.508 28.4493 136.612C28.5613 136.716 28.6173 136.872 28.6173 137.08V141.568C28.6173 142.392 28.8053 143.008 29.1813 143.416C29.5653 143.824 30.1213 144.028 30.8493 144.028C31.5853 144.028 32.1413 143.824 32.5173 143.416C32.8933 143.008 33.0813 142.392 33.0813 141.568V137.08C33.0813 136.872 33.1333 136.716 33.2373 136.612C33.3493 136.508 33.5013 136.456 33.6933 136.456C33.8933 136.456 34.0453 136.508 34.1493 136.612C34.2533 136.716 34.3053 136.872 34.3053 137.08V141.592C34.3053 142.36 34.1733 143.008 33.9093 143.536C33.6533 144.056 33.2693 144.448 32.7573 144.712C32.2453 144.976 31.6093 145.108 30.8493 145.108ZM36.6981 145.084C36.5061 145.084 36.3581 145.032 36.2541 144.928C36.1501 144.816 36.0981 144.664 36.0981 144.472V139.672C36.0981 139.472 36.1501 139.32 36.2541 139.216C36.3581 139.112 36.5021 139.06 36.6861 139.06C36.8781 139.06 37.0221 139.112 37.1181 139.216C37.2221 139.32 37.2741 139.472 37.2741 139.672V140.608L37.1421 140.392C37.3181 139.944 37.5941 139.608 37.9701 139.384C38.3461 139.152 38.7781 139.036 39.2661 139.036C39.7301 139.036 40.1141 139.124 40.4181 139.3C40.7301 139.468 40.9621 139.728 41.1141 140.08C41.2661 140.424 41.3421 140.86 41.3421 141.388V144.472C41.3421 144.664 41.2901 144.816 41.1861 144.928C41.0821 145.032 40.9341 145.084 40.7421 145.084C40.5421 145.084 40.3901 145.032 40.2861 144.928C40.1821 144.816 40.1301 144.664 40.1301 144.472V141.46C40.1301 140.956 40.0301 140.588 39.8301 140.356C39.6381 140.124 39.3341 140.008 38.9181 140.008C38.4301 140.008 38.0381 140.16 37.7421 140.464C37.4541 140.768 37.3101 141.176 37.3101 141.688V144.472C37.3101 144.88 37.1061 145.084 36.6981 145.084ZM45.0642 145.108C44.7122 145.108 44.3482 145.068 43.9722 144.988C43.6042 144.908 43.2642 144.772 42.9522 144.58C42.8482 144.508 42.7762 144.428 42.7362 144.34C42.6962 144.252 42.6802 144.164 42.6882 144.076C42.7042 143.98 42.7402 143.9 42.7962 143.836C42.8602 143.764 42.9362 143.72 43.0242 143.704C43.1202 143.688 43.2202 143.708 43.3242 143.764C43.6362 143.94 43.9362 144.064 44.2242 144.136C44.5122 144.2 44.7962 144.232 45.0762 144.232C45.5002 144.232 45.8202 144.156 46.0362 144.004C46.2522 143.852 46.3602 143.648 46.3602 143.392C46.3602 143.184 46.2882 143.024 46.1442 142.912C46.0002 142.792 45.7842 142.7 45.4962 142.636L44.3562 142.408C43.8602 142.304 43.4842 142.12 43.2282 141.856C42.9722 141.592 42.8442 141.256 42.8442 140.848C42.8442 140.48 42.9442 140.16 43.1442 139.888C43.3442 139.616 43.6242 139.408 43.9842 139.264C44.3442 139.112 44.7602 139.036 45.2322 139.036C45.5842 139.036 45.9162 139.08 46.2282 139.168C46.5402 139.256 46.8282 139.388 47.0922 139.564C47.1962 139.62 47.2642 139.696 47.2962 139.792C47.3282 139.88 47.3322 139.968 47.3082 140.056C47.2922 140.144 47.2522 140.224 47.1882 140.296C47.1242 140.36 47.0442 140.4 46.9482 140.416C46.8602 140.424 46.7602 140.4 46.6482 140.344C46.4082 140.192 46.1682 140.084 45.9282 140.02C45.6962 139.956 45.4642 139.924 45.2322 139.924C44.8082 139.924 44.4882 140.004 44.2722 140.164C44.0642 140.316 43.9602 140.524 43.9602 140.788C43.9602 140.988 44.0242 141.152 44.1522 141.28C44.2802 141.408 44.4802 141.5 44.7522 141.556L45.8922 141.784C46.4122 141.888 46.8042 142.064 47.0682 142.312C47.3402 142.56 47.4762 142.896 47.4762 143.32C47.4762 143.872 47.2562 144.308 46.8162 144.628C46.3762 144.948 45.7922 145.108 45.0642 145.108ZM50.9127 145.108C50.4407 145.108 50.0447 145.02 49.7247 144.844C49.4127 144.668 49.1767 144.408 49.0167 144.064C48.8647 143.712 48.7887 143.272 48.7887 142.744V139.672C48.7887 139.464 48.8407 139.312 48.9447 139.216C49.0487 139.112 49.1967 139.06 49.3887 139.06C49.5807 139.06 49.7287 139.112 49.8327 139.216C49.9447 139.312 50.0007 139.464 50.0007 139.672V142.756C50.0007 143.228 50.0967 143.576 50.2887 143.8C50.4807 144.024 50.7847 144.136 51.2007 144.136C51.6567 144.136 52.0247 143.984 52.3047 143.68C52.5927 143.368 52.7367 142.96 52.7367 142.456V139.672C52.7367 139.464 52.7887 139.312 52.8927 139.216C52.9967 139.112 53.1487 139.06 53.3487 139.06C53.5407 139.06 53.6887 139.112 53.7927 139.216C53.8967 139.312 53.9487 139.464 53.9487 139.672V144.472C53.9487 144.88 53.7527 145.084 53.3607 145.084C53.1767 145.084 53.0327 145.032 52.9287 144.928C52.8247 144.816 52.7727 144.664 52.7727 144.472V143.452L52.9287 143.716C52.7687 144.164 52.5127 144.508 52.1607 144.748C51.8087 144.988 51.3927 145.108 50.9127 145.108ZM56.2567 147.244C56.0647 147.244 55.9167 147.192 55.8127 147.088C55.7087 146.984 55.6567 146.832 55.6567 146.632V139.672C55.6567 139.472 55.7087 139.32 55.8127 139.216C55.9167 139.112 56.0607 139.06 56.2447 139.06C56.4367 139.06 56.5847 139.112 56.6887 139.216C56.7927 139.32 56.8447 139.472 56.8447 139.672V140.716L56.7127 140.464C56.8407 140.032 57.0927 139.688 57.4687 139.432C57.8447 139.168 58.2887 139.036 58.8007 139.036C59.3207 139.036 59.7727 139.16 60.1567 139.408C60.5487 139.656 60.8487 140.004 61.0567 140.452C61.2727 140.9 61.3807 141.44 61.3807 142.072C61.3807 142.688 61.2727 143.228 61.0567 143.692C60.8487 144.148 60.5527 144.5 60.1687 144.748C59.7847 144.988 59.3287 145.108 58.8007 145.108C58.2967 145.108 57.8567 144.98 57.4807 144.724C57.1047 144.468 56.8527 144.128 56.7247 143.704H56.8687V146.632C56.8687 146.832 56.8127 146.984 56.7007 147.088C56.5967 147.192 56.4487 147.244 56.2567 147.244ZM58.5007 144.172C58.8367 144.172 59.1287 144.092 59.3767 143.932C59.6247 143.772 59.8167 143.536 59.9527 143.224C60.0887 142.912 60.1567 142.528 60.1567 142.072C60.1567 141.384 60.0047 140.864 59.7007 140.512C59.4047 140.16 59.0047 139.984 58.5007 139.984C58.1727 139.984 57.8807 140.064 57.6247 140.224C57.3767 140.376 57.1847 140.608 57.0487 140.92C56.9127 141.232 56.8447 141.616 56.8447 142.072C56.8447 142.752 56.9967 143.272 57.3007 143.632C57.6047 143.992 58.0047 144.172 58.5007 144.172ZM63.3465 147.244C63.1545 147.244 63.0065 147.192 62.9025 147.088C62.7985 146.984 62.7465 146.832 62.7465 146.632V139.672C62.7465 139.472 62.7985 139.32 62.9025 139.216C63.0065 139.112 63.1505 139.06 63.3345 139.06C63.5265 139.06 63.6745 139.112 63.7785 139.216C63.8825 139.32 63.9345 139.472 63.9345 139.672V140.716L63.8025 140.464C63.9305 140.032 64.1825 139.688 64.5585 139.432C64.9345 139.168 65.3785 139.036 65.8905 139.036C66.4105 139.036 66.8625 139.16 67.2465 139.408C67.6385 139.656 67.9385 140.004 68.1465 140.452C68.3625 140.9 68.4705 141.44 68.4705 142.072C68.4705 142.688 68.3625 143.228 68.1465 143.692C67.9385 144.148 67.6425 144.5 67.2585 144.748C66.8745 144.988 66.4185 145.108 65.8905 145.108C65.3865 145.108 64.9465 144.98 64.5705 144.724C64.1945 144.468 63.9425 144.128 63.8145 143.704H63.9585V146.632C63.9585 146.832 63.9025 146.984 63.7905 147.088C63.6865 147.192 63.5385 147.244 63.3465 147.244ZM65.5905 144.172C65.9265 144.172 66.2185 144.092 66.4665 143.932C66.7145 143.772 66.9065 143.536 67.0425 143.224C67.1785 142.912 67.2465 142.528 67.2465 142.072C67.2465 141.384 67.0945 140.864 66.7905 140.512C66.4945 140.16 66.0945 139.984 65.5905 139.984C65.2625 139.984 64.9705 140.064 64.7145 140.224C64.4665 140.376 64.2745 140.608 64.1385 140.92C64.0025 141.232 63.9345 141.616 63.9345 142.072C63.9345 142.752 64.0865 143.272 64.3905 143.632C64.6945 143.992 65.0945 144.172 65.5905 144.172ZM72.3804 145.108C71.7884 145.108 71.2764 144.984 70.8444 144.736C70.4204 144.488 70.0884 144.136 69.8484 143.68C69.6084 143.224 69.4884 142.688 69.4884 142.072C69.4884 141.6 69.5564 141.18 69.6924 140.812C69.8284 140.444 70.0204 140.128 70.2684 139.864C70.5244 139.592 70.8284 139.388 71.1804 139.252C71.5404 139.108 71.9404 139.036 72.3804 139.036C72.9644 139.036 73.4684 139.16 73.8924 139.408C74.3244 139.656 74.6604 140.008 74.9004 140.464C75.1404 140.912 75.2604 141.448 75.2604 142.072C75.2604 142.536 75.1924 142.956 75.0564 143.332C74.9204 143.708 74.7244 144.028 74.4684 144.292C74.2204 144.556 73.9164 144.76 73.5564 144.904C73.2044 145.04 72.8124 145.108 72.3804 145.108ZM72.3804 144.172C72.7084 144.172 72.9964 144.092 73.2444 143.932C73.4924 143.772 73.6844 143.536 73.8204 143.224C73.9644 142.912 74.0364 142.528 74.0364 142.072C74.0364 141.384 73.8844 140.864 73.5804 140.512C73.2764 140.16 72.8764 139.984 72.3804 139.984C72.0444 139.984 71.7524 140.064 71.5044 140.224C71.2564 140.376 71.0604 140.608 70.9164 140.92C70.7804 141.232 70.7124 141.616 70.7124 142.072C70.7124 142.752 70.8644 143.272 71.1684 143.632C71.4724 143.992 71.8764 144.172 72.3804 144.172ZM77.2335 145.084C77.0335 145.084 76.8815 145.032 76.7775 144.928C76.6735 144.816 76.6215 144.664 76.6215 144.472V139.672C76.6215 139.472 76.6735 139.32 76.7775 139.216C76.8815 139.112 77.0255 139.06 77.2095 139.06C77.4015 139.06 77.5455 139.112 77.6415 139.216C77.7455 139.32 77.7975 139.472 77.7975 139.672V140.548H77.6775C77.8055 140.068 78.0415 139.704 78.3855 139.456C78.7295 139.208 79.1695 139.064 79.7055 139.024C79.8495 139.016 79.9615 139.052 80.0415 139.132C80.1295 139.212 80.1775 139.336 80.1855 139.504C80.2015 139.672 80.1655 139.808 80.0775 139.912C79.9895 140.008 79.8535 140.064 79.6695 140.08L79.4415 140.104C78.9215 140.152 78.5255 140.316 78.2535 140.596C77.9815 140.876 77.8455 141.26 77.8455 141.748V144.472C77.8455 144.664 77.7935 144.816 77.6895 144.928C77.5935 145.032 77.4415 145.084 77.2335 145.084ZM83.9222 145.108C83.4422 145.108 83.0382 145.024 82.7102 144.856C82.3822 144.688 82.1382 144.44 81.9782 144.112C81.8182 143.784 81.7382 143.384 81.7382 142.912V140.08H81.0182C80.8582 140.08 80.7342 140.04 80.6462 139.96C80.5582 139.872 80.5142 139.756 80.5142 139.612C80.5142 139.46 80.5582 139.344 80.6462 139.264C80.7342 139.184 80.8582 139.144 81.0182 139.144H81.7382V137.908C81.7382 137.708 81.7902 137.556 81.8942 137.452C82.0062 137.348 82.1582 137.296 82.3502 137.296C82.5422 137.296 82.6902 137.348 82.7942 137.452C82.8982 137.556 82.9502 137.708 82.9502 137.908V139.144H84.3542C84.5142 139.144 84.6382 139.184 84.7262 139.264C84.8142 139.344 84.8582 139.46 84.8582 139.612C84.8582 139.756 84.8142 139.872 84.7262 139.96C84.6382 140.04 84.5142 140.08 84.3542 140.08H82.9502V142.816C82.9502 143.24 83.0382 143.56 83.2142 143.776C83.3982 143.992 83.6942 144.1 84.1022 144.1C84.2462 144.1 84.3702 144.088 84.4742 144.064C84.5862 144.032 84.6782 144.012 84.7502 144.004C84.8382 144.004 84.9102 144.036 84.9662 144.1C85.0222 144.156 85.0502 144.268 85.0502 144.436C85.0502 144.556 85.0262 144.668 84.9782 144.772C84.9382 144.876 84.8622 144.944 84.7502 144.976C84.6542 145.008 84.5222 145.036 84.3542 145.06C84.1942 145.092 84.0502 145.108 83.9222 145.108ZM88.4984 145.108C87.8584 145.108 87.3064 144.988 86.8424 144.748C86.3864 144.5 86.0304 144.152 85.7744 143.704C85.5264 143.248 85.4024 142.708 85.4024 142.084C85.4024 141.476 85.5264 140.944 85.7744 140.488C86.0224 140.032 86.3624 139.676 86.7944 139.42C87.2264 139.164 87.7184 139.036 88.2704 139.036C88.6784 139.036 89.0424 139.104 89.3624 139.24C89.6824 139.368 89.9544 139.56 90.1784 139.816C90.4104 140.064 90.5824 140.368 90.6944 140.728C90.8144 141.088 90.8744 141.492 90.8744 141.94C90.8744 142.076 90.8344 142.18 90.7544 142.252C90.6744 142.316 90.5544 142.348 90.3944 142.348H86.3624V141.604H90.0584L89.8544 141.772C89.8544 141.372 89.7944 141.032 89.6744 140.752C89.5624 140.472 89.3904 140.26 89.1584 140.116C88.9344 139.964 88.6544 139.888 88.3184 139.888C87.9424 139.888 87.6224 139.976 87.3584 140.152C87.1024 140.328 86.9064 140.572 86.7704 140.884C86.6344 141.196 86.5664 141.56 86.5664 141.976V142.048C86.5664 142.752 86.7304 143.284 87.0584 143.644C87.3944 143.996 87.8784 144.172 88.5104 144.172C88.7504 144.172 89.0024 144.14 89.2664 144.076C89.5384 144.012 89.7944 143.904 90.0344 143.752C90.1704 143.672 90.2904 143.636 90.3944 143.644C90.5064 143.652 90.5944 143.688 90.6584 143.752C90.7304 143.816 90.7744 143.896 90.7904 143.992C90.8064 144.088 90.7904 144.188 90.7424 144.292C90.6944 144.388 90.6104 144.476 90.4904 144.556C90.2184 144.74 89.9024 144.88 89.5424 144.976C89.1824 145.064 88.8344 145.108 88.4984 145.108ZM94.4277 145.108C93.9158 145.108 93.4638 144.988 93.0718 144.748C92.6878 144.5 92.3878 144.148 92.1718 143.692C91.9558 143.228 91.8478 142.688 91.8478 142.072C91.8478 141.44 91.9558 140.9 92.1718 140.452C92.3878 140.004 92.6878 139.656 93.0718 139.408C93.4638 139.16 93.9158 139.036 94.4277 139.036C94.9398 139.036 95.3798 139.164 95.7478 139.42C96.1238 139.668 96.3758 140.004 96.5038 140.428H96.3718V137.068C96.3718 136.868 96.4238 136.716 96.5278 136.612C96.6318 136.508 96.7798 136.456 96.9718 136.456C97.1638 136.456 97.3118 136.508 97.4158 136.612C97.5278 136.716 97.5838 136.868 97.5838 137.068V144.472C97.5838 144.664 97.5318 144.816 97.4278 144.928C97.3238 145.032 97.1758 145.084 96.9838 145.084C96.7918 145.084 96.6438 145.032 96.5398 144.928C96.4358 144.816 96.3838 144.664 96.3838 144.472V143.416L96.5158 143.68C96.3878 144.112 96.1358 144.46 95.7598 144.724C95.3918 144.98 94.9478 145.108 94.4277 145.108ZM94.7398 144.172C95.0678 144.172 95.3558 144.092 95.6038 143.932C95.8518 143.772 96.0438 143.536 96.1798 143.224C96.3238 142.912 96.3958 142.528 96.3958 142.072C96.3958 141.384 96.2438 140.864 95.9398 140.512C95.6358 140.16 95.2358 139.984 94.7398 139.984C94.4038 139.984 94.1118 140.064 93.8638 140.224C93.6158 140.376 93.4198 140.608 93.2758 140.92C93.1398 141.232 93.0718 141.616 93.0718 142.072C93.0718 142.752 93.2238 143.272 93.5278 143.632C93.8318 143.992 94.2358 144.172 94.7398 144.172ZM103.242 145.084C103.034 145.084 102.87 145.028 102.75 144.916C102.638 144.804 102.582 144.64 102.582 144.424V137.212C102.582 136.996 102.638 136.832 102.75 136.72C102.87 136.6 103.038 136.54 103.254 136.54H107.526C107.702 136.54 107.83 136.584 107.91 136.672C107.998 136.752 108.042 136.872 108.042 137.032C108.042 137.2 107.998 137.328 107.91 137.416C107.83 137.504 107.702 137.548 107.526 137.548H103.83V140.248H107.286C107.446 140.248 107.57 140.292 107.658 140.38C107.754 140.46 107.802 140.58 107.802 140.74C107.802 140.908 107.754 141.036 107.658 141.124C107.57 141.212 107.446 141.256 107.286 141.256H103.83V144.424C103.83 144.864 103.634 145.084 103.242 145.084ZM110.034 145.072C109.842 145.072 109.694 145.016 109.59 144.904C109.486 144.784 109.434 144.62 109.434 144.412V139.732C109.434 139.524 109.486 139.364 109.59 139.252C109.694 139.14 109.842 139.084 110.034 139.084C110.226 139.084 110.374 139.14 110.478 139.252C110.59 139.364 110.646 139.524 110.646 139.732V144.412C110.646 144.62 110.594 144.784 110.49 144.904C110.386 145.016 110.234 145.072 110.034 145.072ZM110.034 137.836C109.794 137.836 109.606 137.776 109.47 137.656C109.342 137.536 109.278 137.368 109.278 137.152C109.278 136.928 109.342 136.76 109.47 136.648C109.606 136.528 109.794 136.468 110.034 136.468C110.274 136.468 110.458 136.528 110.586 136.648C110.722 136.76 110.79 136.928 110.79 137.152C110.79 137.368 110.722 137.536 110.586 137.656C110.458 137.776 110.274 137.836 110.034 137.836ZM114.236 145.108C113.612 145.108 113.14 144.928 112.82 144.568C112.508 144.2 112.352 143.672 112.352 142.984V137.068C112.352 136.868 112.404 136.716 112.508 136.612C112.612 136.508 112.76 136.456 112.952 136.456C113.144 136.456 113.292 136.508 113.396 136.612C113.508 136.716 113.564 136.868 113.564 137.068V142.912C113.564 143.312 113.644 143.612 113.804 143.812C113.972 144.004 114.212 144.1 114.524 144.1C114.596 144.1 114.66 144.1 114.716 144.1C114.772 144.092 114.828 144.084 114.884 144.076C114.98 144.068 115.048 144.096 115.088 144.16C115.128 144.216 115.148 144.336 115.148 144.52C115.148 144.688 115.112 144.82 115.04 144.916C114.968 145.004 114.852 145.06 114.692 145.084C114.62 145.092 114.544 145.096 114.464 145.096C114.384 145.104 114.308 145.108 114.236 145.108ZM118.709 145.108C118.069 145.108 117.517 144.988 117.053 144.748C116.597 144.5 116.241 144.152 115.985 143.704C115.737 143.248 115.613 142.708 115.613 142.084C115.613 141.476 115.737 140.944 115.985 140.488C116.233 140.032 116.573 139.676 117.005 139.42C117.437 139.164 117.929 139.036 118.481 139.036C118.889 139.036 119.253 139.104 119.573 139.24C119.893 139.368 120.165 139.56 120.389 139.816C120.621 140.064 120.793 140.368 120.905 140.728C121.025 141.088 121.085 141.492 121.085 141.94C121.085 142.076 121.045 142.18 120.965 142.252C120.885 142.316 120.765 142.348 120.605 142.348H116.573V141.604H120.269L120.065 141.772C120.065 141.372 120.005 141.032 119.885 140.752C119.773 140.472 119.601 140.26 119.369 140.116C119.145 139.964 118.865 139.888 118.529 139.888C118.153 139.888 117.833 139.976 117.569 140.152C117.313 140.328 117.117 140.572 116.981 140.884C116.845 141.196 116.777 141.56 116.777 141.976V142.048C116.777 142.752 116.941 143.284 117.269 143.644C117.605 143.996 118.089 144.172 118.721 144.172C118.961 144.172 119.213 144.14 119.477 144.076C119.749 144.012 120.005 143.904 120.245 143.752C120.381 143.672 120.501 143.636 120.605 143.644C120.717 143.652 120.805 143.688 120.869 143.752C120.941 143.816 120.985 143.896 121.001 143.992C121.017 144.088 121.001 144.188 120.953 144.292C120.905 144.388 120.821 144.476 120.701 144.556C120.429 144.74 120.113 144.88 119.753 144.976C119.393 145.064 119.045 145.108 118.709 145.108ZM40.7562 161.108C40.2762 161.108 39.8722 161.024 39.5442 160.856C39.2162 160.688 38.9722 160.44 38.8122 160.112C38.6522 159.784 38.5722 159.384 38.5722 158.912V156.08H37.8522C37.6922 156.08 37.5682 156.04 37.4802 155.96C37.3922 155.872 37.3482 155.756 37.3482 155.612C37.3482 155.46 37.3922 155.344 37.4802 155.264C37.5682 155.184 37.6922 155.144 37.8522 155.144H38.5722V153.908C38.5722 153.708 38.6242 153.556 38.7282 153.452C38.8402 153.348 38.9922 153.296 39.1842 153.296C39.3762 153.296 39.5242 153.348 39.6282 153.452C39.7322 153.556 39.7842 153.708 39.7842 153.908V155.144H41.1882C41.3482 155.144 41.4722 155.184 41.5602 155.264C41.6482 155.344 41.6922 155.46 41.6922 155.612C41.6922 155.756 41.6482 155.872 41.5602 155.96C41.4722 156.04 41.3482 156.08 41.1882 156.08H39.7842V158.816C39.7842 159.24 39.8722 159.56 40.0482 159.776C40.2322 159.992 40.5282 160.1 40.9362 160.1C41.0802 160.1 41.2042 160.088 41.3082 160.064C41.4202 160.032 41.5122 160.012 41.5842 160.004C41.6722 160.004 41.7442 160.036 41.8002 160.1C41.8562 160.156 41.8842 160.268 41.8842 160.436C41.8842 160.556 41.8602 160.668 41.8122 160.772C41.7722 160.876 41.6962 160.944 41.5842 160.976C41.4882 161.008 41.3562 161.036 41.1882 161.06C41.0282 161.092 40.8842 161.108 40.7562 161.108ZM44.105 163.244C43.961 163.244 43.841 163.204 43.745 163.124C43.657 163.052 43.605 162.952 43.589 162.824C43.581 162.704 43.605 162.572 43.661 162.428L44.477 160.592V161.108L42.233 155.888C42.177 155.744 42.157 155.608 42.173 155.48C42.189 155.352 42.249 155.252 42.353 155.18C42.457 155.1 42.597 155.06 42.773 155.06C42.925 155.06 43.045 155.096 43.133 155.168C43.221 155.24 43.301 155.364 43.373 155.54L45.185 160.016H44.849L46.685 155.54C46.757 155.356 46.841 155.232 46.937 155.168C47.033 155.096 47.165 155.06 47.333 155.06C47.477 155.06 47.589 155.1 47.669 155.18C47.757 155.252 47.809 155.352 47.825 155.48C47.849 155.6 47.829 155.732 47.765 155.876L44.765 162.776C44.685 162.96 44.593 163.084 44.489 163.148C44.393 163.212 44.265 163.244 44.105 163.244ZM49.5594 163.244C49.3674 163.244 49.2194 163.192 49.1154 163.088C49.0114 162.984 48.9594 162.832 48.9594 162.632V155.672C48.9594 155.472 49.0114 155.32 49.1154 155.216C49.2194 155.112 49.3634 155.06 49.5474 155.06C49.7394 155.06 49.8874 155.112 49.9914 155.216C50.0954 155.32 50.1474 155.472 50.1474 155.672V156.716L50.0154 156.464C50.1434 156.032 50.3954 155.688 50.7714 155.432C51.1474 155.168 51.5914 155.036 52.1034 155.036C52.6234 155.036 53.0754 155.16 53.4594 155.408C53.8514 155.656 54.1514 156.004 54.3594 156.452C54.5754 156.9 54.6834 157.44 54.6834 158.072C54.6834 158.688 54.5754 159.228 54.3594 159.692C54.1514 160.148 53.8554 160.5 53.4714 160.748C53.0874 160.988 52.6314 161.108 52.1034 161.108C51.5994 161.108 51.1594 160.98 50.7834 160.724C50.4074 160.468 50.1554 160.128 50.0274 159.704H50.1714V162.632C50.1714 162.832 50.1154 162.984 50.0034 163.088C49.8994 163.192 49.7514 163.244 49.5594 163.244ZM51.8034 160.172C52.1394 160.172 52.4314 160.092 52.6794 159.932C52.9274 159.772 53.1194 159.536 53.2554 159.224C53.3914 158.912 53.4594 158.528 53.4594 158.072C53.4594 157.384 53.3074 156.864 53.0034 156.512C52.7074 156.16 52.3074 155.984 51.8034 155.984C51.4754 155.984 51.1834 156.064 50.9274 156.224C50.6794 156.376 50.4874 156.608 50.3514 156.92C50.2154 157.232 50.1474 157.616 50.1474 158.072C50.1474 158.752 50.2994 159.272 50.6034 159.632C50.9074 159.992 51.3074 160.172 51.8034 160.172ZM58.7973 161.108C58.1573 161.108 57.6053 160.988 57.1413 160.748C56.6853 160.5 56.3293 160.152 56.0733 159.704C55.8253 159.248 55.7013 158.708 55.7013 158.084C55.7013 157.476 55.8253 156.944 56.0733 156.488C56.3213 156.032 56.6613 155.676 57.0933 155.42C57.5253 155.164 58.0173 155.036 58.5693 155.036C58.9773 155.036 59.3413 155.104 59.6613 155.24C59.9813 155.368 60.2533 155.56 60.4773 155.816C60.7093 156.064 60.8813 156.368 60.9933 156.728C61.1133 157.088 61.1733 157.492 61.1733 157.94C61.1733 158.076 61.1333 158.18 61.0533 158.252C60.9733 158.316 60.8533 158.348 60.6933 158.348H56.6613V157.604H60.3573L60.1533 157.772C60.1533 157.372 60.0933 157.032 59.9733 156.752C59.8613 156.472 59.6893 156.26 59.4573 156.116C59.2333 155.964 58.9533 155.888 58.6173 155.888C58.2413 155.888 57.9213 155.976 57.6573 156.152C57.4013 156.328 57.2053 156.572 57.0693 156.884C56.9333 157.196 56.8653 157.56 56.8653 157.976V158.048C56.8653 158.752 57.0293 159.284 57.3573 159.644C57.6933 159.996 58.1773 160.172 58.8093 160.172C59.0493 160.172 59.3013 160.14 59.5653 160.076C59.8373 160.012 60.0933 159.904 60.3333 159.752C60.4693 159.672 60.5893 159.636 60.6933 159.644C60.8053 159.652 60.8933 159.688 60.9573 159.752C61.0293 159.816 61.0733 159.896 61.0893 159.992C61.1053 160.088 61.0893 160.188 61.0413 160.292C60.9933 160.388 60.9093 160.476 60.7893 160.556C60.5173 160.74 60.2013 160.88 59.8413 160.976C59.4813 161.064 59.1333 161.108 58.7973 161.108ZM67.7106 161.108C67.3586 161.108 66.9946 161.068 66.6186 160.988C66.2506 160.908 65.9106 160.772 65.5986 160.58C65.4946 160.508 65.4226 160.428 65.3826 160.34C65.3426 160.252 65.3266 160.164 65.3346 160.076C65.3506 159.98 65.3866 159.9 65.4426 159.836C65.5066 159.764 65.5826 159.72 65.6706 159.704C65.7666 159.688 65.8666 159.708 65.9706 159.764C66.2826 159.94 66.5826 160.064 66.8706 160.136C67.1586 160.2 67.4426 160.232 67.7226 160.232C68.1466 160.232 68.4666 160.156 68.6826 160.004C68.8986 159.852 69.0066 159.648 69.0066 159.392C69.0066 159.184 68.9346 159.024 68.7906 158.912C68.6466 158.792 68.4306 158.7 68.1426 158.636L67.0026 158.408C66.5066 158.304 66.1306 158.12 65.8746 157.856C65.6186 157.592 65.4906 157.256 65.4906 156.848C65.4906 156.48 65.5906 156.16 65.7906 155.888C65.9906 155.616 66.2706 155.408 66.6306 155.264C66.9906 155.112 67.4066 155.036 67.8786 155.036C68.2306 155.036 68.5626 155.08 68.8746 155.168C69.1866 155.256 69.4746 155.388 69.7386 155.564C69.8426 155.62 69.9106 155.696 69.9426 155.792C69.9746 155.88 69.9786 155.968 69.9546 156.056C69.9386 156.144 69.8986 156.224 69.8346 156.296C69.7706 156.36 69.6906 156.4 69.5946 156.416C69.5066 156.424 69.4066 156.4 69.2946 156.344C69.0546 156.192 68.8146 156.084 68.5746 156.02C68.3426 155.956 68.1106 155.924 67.8786 155.924C67.4546 155.924 67.1346 156.004 66.9186 156.164C66.7106 156.316 66.6066 156.524 66.6066 156.788C66.6066 156.988 66.6706 157.152 66.7986 157.28C66.9266 157.408 67.1266 157.5 67.3986 157.556L68.5386 157.784C69.0586 157.888 69.4506 158.064 69.7146 158.312C69.9866 158.56 70.1226 158.896 70.1226 159.32C70.1226 159.872 69.9026 160.308 69.4626 160.628C69.0226 160.948 68.4386 161.108 67.7106 161.108ZM74.2191 161.108C73.5791 161.108 73.0271 160.988 72.5631 160.748C72.1071 160.5 71.7511 160.152 71.4951 159.704C71.2471 159.248 71.1231 158.708 71.1231 158.084C71.1231 157.476 71.2471 156.944 71.4951 156.488C71.7431 156.032 72.0831 155.676 72.5151 155.42C72.9471 155.164 73.4391 155.036 73.9911 155.036C74.3991 155.036 74.7631 155.104 75.0831 155.24C75.4031 155.368 75.6751 155.56 75.8991 155.816C76.1311 156.064 76.3031 156.368 76.4151 156.728C76.5351 157.088 76.5951 157.492 76.5951 157.94C76.5951 158.076 76.5551 158.18 76.4751 158.252C76.3951 158.316 76.2751 158.348 76.1151 158.348H72.0831V157.604H75.7791L75.5751 157.772C75.5751 157.372 75.5151 157.032 75.3951 156.752C75.2831 156.472 75.1111 156.26 74.8791 156.116C74.6551 155.964 74.3751 155.888 74.0391 155.888C73.6631 155.888 73.3431 155.976 73.0791 156.152C72.8231 156.328 72.6271 156.572 72.4911 156.884C72.3551 157.196 72.2871 157.56 72.2871 157.976V158.048C72.2871 158.752 72.4511 159.284 72.7791 159.644C73.1151 159.996 73.5991 160.172 74.2311 160.172C74.4711 160.172 74.7231 160.14 74.9871 160.076C75.2591 160.012 75.5151 159.904 75.7551 159.752C75.8911 159.672 76.0111 159.636 76.1151 159.644C76.2271 159.652 76.3151 159.688 76.3791 159.752C76.4511 159.816 76.4951 159.896 76.5111 159.992C76.5271 160.088 76.5111 160.188 76.4631 160.292C76.4151 160.388 76.3311 160.476 76.2111 160.556C75.9391 160.74 75.6231 160.88 75.2631 160.976C74.9031 161.064 74.5551 161.108 74.2191 161.108ZM79.8005 161.108C79.1765 161.108 78.7045 160.928 78.3845 160.568C78.0725 160.2 77.9165 159.672 77.9165 158.984V153.068C77.9165 152.868 77.9685 152.716 78.0725 152.612C78.1765 152.508 78.3245 152.456 78.5165 152.456C78.7085 152.456 78.8565 152.508 78.9605 152.612C79.0725 152.716 79.1285 152.868 79.1285 153.068V158.912C79.1285 159.312 79.2085 159.612 79.3685 159.812C79.5365 160.004 79.7765 160.1 80.0885 160.1C80.1605 160.1 80.2245 160.1 80.2805 160.1C80.3365 160.092 80.3925 160.084 80.4485 160.076C80.5445 160.068 80.6125 160.096 80.6525 160.16C80.6925 160.216 80.7125 160.336 80.7125 160.52C80.7125 160.688 80.6765 160.82 80.6045 160.916C80.5325 161.004 80.4165 161.06 80.2565 161.084C80.1845 161.092 80.1085 161.096 80.0285 161.096C79.9485 161.104 79.8725 161.108 79.8005 161.108ZM84.2738 161.108C83.6338 161.108 83.0818 160.988 82.6178 160.748C82.1618 160.5 81.8058 160.152 81.5498 159.704C81.3018 159.248 81.1778 158.708 81.1778 158.084C81.1778 157.476 81.3018 156.944 81.5498 156.488C81.7978 156.032 82.1378 155.676 82.5698 155.42C83.0018 155.164 83.4938 155.036 84.0458 155.036C84.4538 155.036 84.8178 155.104 85.1378 155.24C85.4578 155.368 85.7298 155.56 85.9538 155.816C86.1858 156.064 86.3578 156.368 86.4698 156.728C86.5898 157.088 86.6498 157.492 86.6498 157.94C86.6498 158.076 86.6098 158.18 86.5298 158.252C86.4498 158.316 86.3298 158.348 86.1698 158.348H82.1378V157.604H85.8338L85.6298 157.772C85.6298 157.372 85.5698 157.032 85.4498 156.752C85.3378 156.472 85.1658 156.26 84.9338 156.116C84.7098 155.964 84.4298 155.888 84.0938 155.888C83.7178 155.888 83.3978 155.976 83.1338 156.152C82.8778 156.328 82.6818 156.572 82.5458 156.884C82.4098 157.196 82.3418 157.56 82.3418 157.976V158.048C82.3418 158.752 82.5058 159.284 82.8338 159.644C83.1698 159.996 83.6538 160.172 84.2858 160.172C84.5258 160.172 84.7778 160.14 85.0418 160.076C85.3138 160.012 85.5698 159.904 85.8098 159.752C85.9458 159.672 86.0658 159.636 86.1698 159.644C86.2818 159.652 86.3698 159.688 86.4338 159.752C86.5058 159.816 86.5498 159.896 86.5658 159.992C86.5818 160.088 86.5658 160.188 86.5178 160.292C86.4698 160.388 86.3858 160.476 86.2658 160.556C85.9938 160.74 85.6778 160.88 85.3178 160.976C84.9578 161.064 84.6098 161.108 84.2738 161.108ZM90.5511 161.108C89.9511 161.108 89.4311 160.984 88.9911 160.736C88.5591 160.48 88.2231 160.124 87.9831 159.668C87.7431 159.204 87.6231 158.66 87.6231 158.036C87.6231 157.572 87.6911 157.156 87.8271 156.788C87.9631 156.412 88.1551 156.096 88.4031 155.84C88.6591 155.584 88.9671 155.388 89.3271 155.252C89.6951 155.108 90.1031 155.036 90.5511 155.036C90.8311 155.036 91.1231 155.08 91.4271 155.168C91.7391 155.248 92.0271 155.384 92.2911 155.576C92.3951 155.64 92.4591 155.72 92.4831 155.816C92.5151 155.904 92.5191 155.996 92.4951 156.092C92.4791 156.188 92.4351 156.272 92.3631 156.344C92.2991 156.408 92.2191 156.448 92.1231 156.464C92.0271 156.472 91.9231 156.444 91.8111 156.38C91.6191 156.244 91.4231 156.148 91.2231 156.092C91.0231 156.028 90.8311 155.996 90.6471 155.996C90.3591 155.996 90.1031 156.044 89.8791 156.14C89.6631 156.228 89.4791 156.36 89.3271 156.536C89.1751 156.704 89.0591 156.916 88.9791 157.172C88.9071 157.428 88.8711 157.72 88.8711 158.048C88.8711 158.704 89.0231 159.22 89.3271 159.596C89.6391 159.964 90.0791 160.148 90.6471 160.148C90.8311 160.148 91.0231 160.12 91.2231 160.064C91.4231 160.008 91.6191 159.912 91.8111 159.776C91.9231 159.712 92.0271 159.688 92.1231 159.704C92.2191 159.72 92.2951 159.764 92.3511 159.836C92.4151 159.9 92.4551 159.98 92.4711 160.076C92.4951 160.164 92.4911 160.256 92.4591 160.352C92.4271 160.448 92.3591 160.528 92.2551 160.592C91.9991 160.776 91.7191 160.908 91.4151 160.988C91.1191 161.068 90.8311 161.108 90.5511 161.108ZM96.0804 161.108C95.6004 161.108 95.1964 161.024 94.8684 160.856C94.5404 160.688 94.2964 160.44 94.1364 160.112C93.9764 159.784 93.8964 159.384 93.8964 158.912V156.08H93.1764C93.0164 156.08 92.8924 156.04 92.8044 155.96C92.7164 155.872 92.6724 155.756 92.6724 155.612C92.6724 155.46 92.7164 155.344 92.8044 155.264C92.8924 155.184 93.0164 155.144 93.1764 155.144H93.8964V153.908C93.8964 153.708 93.9484 153.556 94.0524 153.452C94.1644 153.348 94.3164 153.296 94.5084 153.296C94.7004 153.296 94.8484 153.348 94.9524 153.452C95.0564 153.556 95.1084 153.708 95.1084 153.908V155.144H96.5124C96.6724 155.144 96.7964 155.184 96.8844 155.264C96.9724 155.344 97.0164 155.46 97.0164 155.612C97.0164 155.756 96.9724 155.872 96.8844 155.96C96.7964 156.04 96.6724 156.08 96.5124 156.08H95.1084V158.816C95.1084 159.24 95.1964 159.56 95.3724 159.776C95.5564 159.992 95.8524 160.1 96.2604 160.1C96.4044 160.1 96.5284 160.088 96.6324 160.064C96.7444 160.032 96.8364 160.012 96.9084 160.004C96.9964 160.004 97.0684 160.036 97.1244 160.1C97.1804 160.156 97.2084 160.268 97.2084 160.436C97.2084 160.556 97.1844 160.668 97.1364 160.772C97.0964 160.876 97.0204 160.944 96.9084 160.976C96.8124 161.008 96.6804 161.036 96.5124 161.06C96.3524 161.092 96.2084 161.108 96.0804 161.108ZM100.657 161.108C100.017 161.108 99.4646 160.988 99.0006 160.748C98.5446 160.5 98.1886 160.152 97.9326 159.704C97.6846 159.248 97.5606 158.708 97.5606 158.084C97.5606 157.476 97.6846 156.944 97.9326 156.488C98.1806 156.032 98.5206 155.676 98.9526 155.42C99.3846 155.164 99.8766 155.036 100.429 155.036C100.837 155.036 101.201 155.104 101.521 155.24C101.841 155.368 102.113 155.56 102.337 155.816C102.569 156.064 102.741 156.368 102.853 156.728C102.973 157.088 103.033 157.492 103.033 157.94C103.033 158.076 102.993 158.18 102.913 158.252C102.833 158.316 102.713 158.348 102.553 158.348H98.5206V157.604H102.217L102.013 157.772C102.013 157.372 101.953 157.032 101.833 156.752C101.721 156.472 101.549 156.26 101.317 156.116C101.093 155.964 100.813 155.888 100.477 155.888C100.101 155.888 99.7806 155.976 99.5166 156.152C99.2606 156.328 99.0646 156.572 98.9286 156.884C98.7926 157.196 98.7246 157.56 98.7246 157.976V158.048C98.7246 158.752 98.8886 159.284 99.2166 159.644C99.5526 159.996 100.037 160.172 100.669 160.172C100.909 160.172 101.161 160.14 101.425 160.076C101.697 160.012 101.953 159.904 102.193 159.752C102.329 159.672 102.449 159.636 102.553 159.644C102.665 159.652 102.753 159.688 102.817 159.752C102.889 159.816 102.933 159.896 102.949 159.992C102.965 160.088 102.949 160.188 102.901 160.292C102.853 160.388 102.769 160.476 102.649 160.556C102.377 160.74 102.061 160.88 101.701 160.976C101.341 161.064 100.993 161.108 100.657 161.108ZM106.586 161.108C106.074 161.108 105.622 160.988 105.23 160.748C104.846 160.5 104.546 160.148 104.33 159.692C104.114 159.228 104.006 158.688 104.006 158.072C104.006 157.44 104.114 156.9 104.33 156.452C104.546 156.004 104.846 155.656 105.23 155.408C105.622 155.16 106.074 155.036 106.586 155.036C107.098 155.036 107.538 155.164 107.906 155.42C108.282 155.668 108.534 156.004 108.662 156.428H108.53V153.068C108.53 152.868 108.582 152.716 108.686 152.612C108.79 152.508 108.938 152.456 109.13 152.456C109.322 152.456 109.47 152.508 109.574 152.612C109.686 152.716 109.742 152.868 109.742 153.068V160.472C109.742 160.664 109.69 160.816 109.586 160.928C109.482 161.032 109.334 161.084 109.142 161.084C108.95 161.084 108.802 161.032 108.698 160.928C108.594 160.816 108.542 160.664 108.542 160.472V159.416L108.674 159.68C108.546 160.112 108.294 160.46 107.918 160.724C107.55 160.98 107.106 161.108 106.586 161.108ZM106.898 160.172C107.226 160.172 107.514 160.092 107.762 159.932C108.01 159.772 108.202 159.536 108.338 159.224C108.482 158.912 108.554 158.528 108.554 158.072C108.554 157.384 108.402 156.864 108.098 156.512C107.794 156.16 107.394 155.984 106.898 155.984C106.562 155.984 106.27 156.064 106.022 156.224C105.774 156.376 105.578 156.608 105.434 156.92C105.298 157.232 105.23 157.616 105.23 158.072C105.23 158.752 105.382 159.272 105.686 159.632C105.99 159.992 106.394 160.172 106.898 160.172Z" fill="#EB0910"/>
</g>
<defs>
<filter id="filter0_d_1348_5065" x="0" y="2" width="148" height="118.803" filterUnits="userSpaceOnUse" color-interpolation-filters="sRGB">
<feFlood flood-opacity="0" result="BackgroundImageFix"/>
<feColorMatrix in="SourceAlpha" type="matrix" values="0 0 0 0 0 0 0 0 0 0 0 0 0 0 0 0 0 0 127 0" result="hardAlpha"/>
<feOffset dy="-4"/>
<feGaussianBlur stdDeviation="2"/>
<feComposite in2="hardAlpha" operator="out"/>
<feColorMatrix type="matrix" values="0 0 0 0 0 0 0 0 0 0 0 0 0 0 0 0 0 0 0.05 0"/>
<feBlend mode="normal" in2="BackgroundImageFix" result="effect1_dropShadow_1348_5065"/>
<feBlend mode="normal" in="SourceGraphic" in2="effect1_dropShadow_1348_5065" result="shape"/>
</filter>
<filter id="filter1_di_1348_5065" x="-1" y="-5" width="150" height="125.803" filterUnits="userSpaceOnUse" color-interpolation-filters="sRGB">
<feFlood flood-opacity="0" result="BackgroundImageFix"/>
<feColorMatrix in="SourceAlpha" type="matrix" values="0 0 0 0 0 0 0 0 0 0 0 0 0 0 0 0 0 0 127 0" result="hardAlpha"/>
<feOffset dy="-14"/>
<feGaussianBlur stdDeviation="2.5"/>
<feComposite in2="hardAlpha" operator="out"/>
<feColorMatrix type="matrix" values="0 0 0 0 0 0 0 0 0 0 0 0 0 0 0 0 0 0 0.05 0"/>
<feBlend mode="normal" in2="BackgroundImageFix" result="effect1_dropShadow_1348_5065"/>
<feBlend mode="normal" in="SourceGraphic" in2="effect1_dropShadow_1348_5065" result="shape"/>
<feColorMatrix in="SourceAlpha" type="matrix" values="0 0 0 0 0 0 0 0 0 0 0 0 0 0 0 0 0 0 127 0" result="hardAlpha"/>
<feOffset dy="-10"/>
<feGaussianBlur stdDeviation="2"/>
<feComposite in2="hardAlpha" operator="arithmetic" k2="-1" k3="1"/>
<feColorMatrix type="matrix" values="0 0 0 0 1 0 0 0 0 1 0 0 0 0 1 0 0 0 0.15 0"/>
<feBlend mode="normal" in2="shape" result="effect2_innerShadow_1348_5065"/>
</filter>
<filter id="filter2_b_1348_5065" x="-2" y="117" width="152" height="64" filterUnits="userSpaceOnUse" color-interpolation-filters="sRGB">
<feFlood flood-opacity="0" result="BackgroundImageFix"/>
<feGaussianBlur in="BackgroundImageFix" stdDeviation="4"/>
<feComposite in2="SourceAlpha" operator="in" result="effect1_backgroundBlur_1348_5065"/>
<feBlend mode="normal" in="SourceGraphic" in2="effect1_backgroundBlur_1348_5065" result="shape"/>
</filter>
<linearGradient id="paint0_linear_1348_5065" x1="74" y1="14" x2="74" y2="120.803" gradientUnits="userSpaceOnUse">
<stop stop-color="#64728C" stop-opacity="0.04"/>
<stop offset="1" stop-color="#64728C" stop-opacity="0.15"/>
</linearGradient>
<linearGradient id="paint1_linear_1348_5065" x1="74" y1="14" x2="74" y2="120.803" gradientUnits="userSpaceOnUse">
<stop offset="0.345231" stop-color="#64728C" stop-opacity="0.03"/>
<stop offset="1" stop-color="#64728C" stop-opacity="0.37"/>
</linearGradient>
<clipPath id="clip0_1348_5065">
<rect x="4" y="10" width="140" height="110.803" rx="14" fill="white"/>
</clipPath>
</defs>
</svg>
