<svg width="369" height="318" viewBox="0 0 369 318" fill="none" xmlns="http://www.w3.org/2000/svg">
<path fill-rule="evenodd" clip-rule="evenodd" d="M231 76C231 102.359 210.586 122 187.5 122C164.414 122 144 102.359 144 76C144 49.6412 164.414 30 187.5 30C210.586 30 231 49.6412 231 76ZM261 76C261 117.974 228.093 152 187.5 152C146.907 152 114 117.974 114 76C114 34.0264 146.907 0 187.5 0C228.093 0 261 34.0264 261 76ZM129.554 199.919C152.824 197.496 169.064 197.075 190.018 199.869C198.229 200.963 205.774 195.194 206.868 186.982C207.963 178.771 202.194 171.227 193.982 170.132C169.936 166.926 151.176 167.505 126.446 170.081C91.4434 173.727 60.7009 183.809 38.2503 198.751C15.9446 213.596 -0.00285778 234.679 3.84127e-07 260.062L0.00123253 272.991C0.0031065 297.857 20.1655 318 45.0212 318H174C182.284 318 189 311.284 189 303C189 294.716 182.284 288 174 288H45.0212C36.7233 288 30.0019 281.277 30.0012 272.989L30 260.058C29.9987 248.402 37.3013 235.419 54.8716 223.725C72.297 212.128 98.0566 203.2 129.554 199.919Z" fill="black"/>
<path d="M280.5 159C280.5 159 225.754 206.17 195.159 231.716C193.363 233.341 192 235.709 192 238.5C192 243.385 195.956 247.333 200.85 247.333H218.55V309.167C218.55 314.051 222.506 318 227.4 318H253.95C258.844 318 262.8 314.043 262.8 309.167V273.833H298.2V309.167C298.2 314.043 302.156 318 307.05 318H333.6C338.494 318 342.45 314.051 342.45 309.167V247.333H360.15C365.044 247.333 369 243.385 369 238.5C369 235.709 367.637 233.341 365.61 231.716C335.228 206.17 280.5 159 280.5 159Z" fill="black"/>
</svg>
