<svg width="358" height="319" viewBox="0 0 358 319" fill="none" xmlns="http://www.w3.org/2000/svg">
<path fill-rule="evenodd" clip-rule="evenodd" d="M182.5 122C205.586 122 226 102.359 226 76C226 49.6412 205.586 30 182.5 30C159.414 30 139 49.6412 139 76C139 102.359 159.414 122 182.5 122ZM182.5 152C223.093 152 256 117.974 256 76C256 34.0264 223.093 0 182.5 0C141.907 0 109 34.0264 109 76C109 117.974 141.907 152 182.5 152ZM178.225 197.519C161.708 197.596 148.16 197.981 129.554 199.919C98.0566 203.2 72.297 212.128 54.8716 223.725C37.3013 235.419 29.9987 248.402 30 260.058L30.0012 272.989C30.0019 281.277 36.7233 288 45.0212 288H174C174.481 288 174.958 288.023 175.428 288.067H312.979C321.277 288.067 327.998 281.344 327.999 273.056L328 260.125C328.001 248.469 320.699 235.486 303.128 223.792C285.703 212.195 259.943 203.267 228.446 199.986C209.355 197.998 195.579 197.598 178.225 197.519ZM193.527 167.712C205.419 167.992 217.103 168.643 231.554 170.148C266.557 173.794 297.299 183.876 319.75 198.818C342.055 213.663 358.003 234.746 358 260.129L357.999 273.058C357.997 297.924 337.835 318.067 312.979 318.067H148.5C148.019 318.067 147.542 318.044 147.072 318H45.0212C20.1655 318 0.0031065 297.857 0.00123253 272.991L3.84127e-07 260.062C-0.00285778 234.679 15.9446 213.596 38.2503 198.751C60.7009 183.809 91.4434 173.727 126.446 170.081C140.781 168.588 152.398 167.958 164.086 167.693C164.872 167.566 165.678 167.5 166.5 167.5C170.582 167.5 174.457 167.502 178.203 167.518C182.247 167.5 186.421 167.5 190.826 167.5H191C191.861 167.5 192.706 167.573 193.527 167.712Z" fill="black"/>
</svg>
