<svg width="345" height="351" viewBox="0 0 345 351" fill="none" xmlns="http://www.w3.org/2000/svg">
<path fill-rule="evenodd" clip-rule="evenodd" d="M231 76C231 102.359 210.586 122 187.5 122C164.414 122 144 102.359 144 76C144 49.6412 164.414 30 187.5 30C210.586 30 231 49.6412 231 76ZM261 76C261 117.974 228.093 152 187.5 152C146.907 152 114 117.974 114 76C114 34.0264 146.907 0 187.5 0C228.093 0 261 34.0264 261 76ZM129.554 199.919C152.824 197.496 169.064 197.075 190.018 199.869C198.229 200.963 205.774 195.194 206.868 186.982C207.963 178.771 202.194 171.227 193.982 170.132C169.936 166.926 151.176 167.505 126.446 170.081C91.4434 173.727 60.7009 183.809 38.2503 198.751C15.9446 213.596 -0.00285778 234.679 3.84127e-07 260.062L0.00123253 272.991C0.0031065 297.857 20.1655 318 45.0212 318H174C182.284 318 189 311.284 189 303C189 294.716 182.284 288 174 288H45.0212C36.7233 288 30.0019 281.277 30.0012 272.989L30 260.058C29.9987 248.402 37.3013 235.419 54.8716 223.725C72.297 212.128 98.0566 203.2 129.554 199.919Z" fill="black"/>
<path fill-rule="evenodd" clip-rule="evenodd" d="M232.264 192C232.264 192 232.263 192 232.263 192C224.936 192 219 197.93 219 205.249V337.751C219 345.071 224.936 351 232.264 351H331.738C339.065 351 345 345.071 345 337.751V238.11C345 233.671 343.245 229.73 340.425 226.881L310.317 196.868C307.335 193.855 303.154 192 298.579 192H232.264C232.264 192 232.264 192 232.264 192V192ZM278.684 215.188C278.684 211.543 281.668 208.562 285.316 208.562C288.962 208.562 291.948 211.543 291.948 215.188V240.031C291.948 242.781 294.17 245 296.921 245H321.79C325.436 245 328.422 247.981 328.422 251.625C328.422 255.27 325.436 258.25 321.79 258.25H291.948C284.62 258.25 278.684 252.32 278.684 245V215.188Z" fill="#010101"/>
</svg>
