<svg width="394" height="362" viewBox="0 0 394 362" fill="none" xmlns="http://www.w3.org/2000/svg">
<path fill-rule="evenodd" clip-rule="evenodd" d="M231 76C231 102.359 210.586 122 187.5 122C164.414 122 144 102.359 144 76C144 49.6412 164.414 30 187.5 30C210.586 30 231 49.6412 231 76ZM261 76C261 117.974 228.093 152 187.5 152C146.907 152 114 117.974 114 76C114 34.0264 146.907 0 187.5 0C228.093 0 261 34.0264 261 76ZM129.554 199.919C152.824 197.496 169.064 197.075 190.018 199.869C198.229 200.963 205.774 195.194 206.868 186.982C207.963 178.771 202.194 171.227 193.982 170.132C169.936 166.926 151.176 167.505 126.446 170.081C91.4434 173.727 60.7009 183.809 38.2503 198.751C15.9446 213.596 -0.00285778 234.679 3.84127e-07 260.062L0.00123253 272.991C0.0031065 297.857 20.1655 318 45.0212 318H174C182.284 318 189 311.284 189 303C189 294.716 182.284 288 174 288H45.0212C36.7233 288 30.0019 281.277 30.0012 272.989L30 260.058C29.9987 248.402 37.3013 235.419 54.8716 223.725C72.297 212.128 98.0566 203.2 129.554 199.919Z" fill="black"/>
<path d="M302.081 183C294.796 183 288.807 190.202 288.807 197.982V272.573L271.185 253.765C265.067 247.417 257.208 249.032 252.639 253.909C248.064 258.786 246.548 267.152 252.536 273.751L292.633 316.559C295.021 319.197 298.292 320.668 301.848 320.699C301.887 320.699 301.919 320.699 301.957 320.699C305.506 320.699 308.933 319.207 311.365 316.604L351.547 273.71C357.483 267.149 355.967 258.779 351.405 253.902C346.843 249.029 339.003 247.424 332.821 253.802L315.237 272.573V197.981C315.237 190.201 309.366 183 302.081 183Z" fill="black"/>
<path d="M220.215 274.524C212.93 274.524 207 280.852 207 288.632V304.241C207 335.649 230.933 361.201 260.358 361.201H340.643C370.067 361.201 394 335.649 394 304.241V288.632C394 280.852 388.07 274.524 380.785 274.524C373.5 274.524 367.57 280.852 367.57 288.632V304.241C367.57 320.091 355.49 332.986 340.643 332.986H260.358C245.51 332.986 233.43 320.091 233.43 304.241V288.632C233.43 280.851 227.5 274.524 220.215 274.524Z" fill="black"/>
</svg>
