<svg width="351" height="366" viewBox="0 0 351 366" fill="none" xmlns="http://www.w3.org/2000/svg">
<path fill-rule="evenodd" clip-rule="evenodd" d="M231 76C231 102.359 210.586 122 187.5 122C164.414 122 144 102.359 144 76C144 49.6412 164.414 30 187.5 30C210.586 30 231 49.6412 231 76ZM261 76C261 117.974 228.093 152 187.5 152C146.907 152 114 117.974 114 76C114 34.0264 146.907 0 187.5 0C228.093 0 261 34.0264 261 76ZM129.554 199.919C152.824 197.496 169.064 197.075 190.018 199.869C198.229 200.963 205.774 195.194 206.868 186.982C207.963 178.771 202.194 171.227 193.982 170.132C169.936 166.926 151.176 167.505 126.446 170.081C91.4434 173.727 60.7009 183.809 38.2503 198.751C15.9446 213.596 -0.00285778 234.679 3.84127e-07 260.062L0.00123253 272.991C0.0031065 297.857 20.1655 318 45.0212 318H174C182.284 318 189 311.284 189 303C189 294.716 182.284 288 174 288H45.0212C36.7233 288 30.0019 281.277 30.0012 272.989L30 260.058C29.9987 248.402 37.3013 235.419 54.8716 223.725C72.297 212.128 98.0566 203.2 129.554 199.919Z" fill="black"/>
<path d="M279.5 184C260.537 184 242.351 191.844 228.942 205.807C215.533 219.77 208 238.708 208 258.455C208 324.636 279.5 366 279.5 366C279.5 366 351 324.636 351 258.455C351 238.708 343.467 219.77 330.058 205.807C316.649 191.844 298.463 184 279.5 184ZM279.5 291.545C273.215 291.545 267.071 289.605 261.845 285.969C256.619 282.333 252.546 277.164 250.141 271.118C247.736 265.071 247.107 258.418 248.333 251.999C249.559 245.58 252.586 239.684 257.03 235.056C261.474 230.428 267.136 227.276 273.3 225.999C279.465 224.723 285.854 225.378 291.661 227.883C297.467 230.387 302.43 234.628 305.922 240.07C309.414 245.512 311.278 251.91 311.278 258.455C311.278 267.231 307.93 275.648 301.97 281.853C296.011 288.059 287.928 291.545 279.5 291.545Z" fill="#232323"/>
</svg>
