<svg width="361" height="339" viewBox="0 0 361 339" fill="none" xmlns="http://www.w3.org/2000/svg">
<path fill-rule="evenodd" clip-rule="evenodd" d="M231 76C231 102.359 210.586 122 187.5 122C164.414 122 144 102.359 144 76C144 49.6412 164.414 30 187.5 30C210.586 30 231 49.6412 231 76ZM261 76C261 117.974 228.093 152 187.5 152C146.907 152 114 117.974 114 76C114 34.0264 146.907 0 187.5 0C228.093 0 261 34.0264 261 76ZM129.554 199.919C152.824 197.496 169.064 197.075 190.018 199.869C198.229 200.963 205.774 195.194 206.868 186.982C207.963 178.771 202.194 171.227 193.982 170.132C169.936 166.926 151.176 167.505 126.446 170.081C91.4434 173.727 60.7009 183.809 38.2503 198.751C15.9446 213.596 -0.00285778 234.679 3.84127e-07 260.062L0.00123253 272.991C0.0031065 297.857 20.1655 318 45.0212 318H174C182.284 318 189 311.284 189 303C189 294.716 182.284 288 174 288H45.0212C36.7233 288 30.0019 281.277 30.0012 272.989L30 260.058C29.9987 248.402 37.3013 235.419 54.8716 223.725C72.297 212.128 98.0566 203.2 129.554 199.919Z" fill="black"/>
<path d="M247.246 290.453C249.499 292.048 252.194 292.901 254.955 292.891V292.854C257.558 292.86 260.105 292.101 262.282 290.671C264.457 289.242 266.165 287.205 267.193 284.813L272.846 267.623C274.152 263.729 276.346 260.192 279.253 257.292C282.162 254.392 285.705 252.208 289.602 250.913L305.999 245.583C308.64 244.655 310.922 242.918 312.518 240.619C314.115 238.319 314.946 235.575 314.893 232.776C314.84 229.977 313.905 227.266 312.223 225.029C310.54 222.792 308.194 221.143 305.519 220.316L289.335 215.059C285.42 213.756 281.862 211.559 278.946 208.64C276.029 205.722 273.832 202.164 272.532 198.248L267.202 181.861C266.272 179.251 264.553 176.995 262.283 175.407C260.011 173.819 257.303 172.978 254.533 173C251.762 173.023 249.067 173.907 246.822 175.532C244.578 177.156 242.895 179.439 242.007 182.064L236.631 198.589C235.334 202.391 233.192 205.849 230.364 208.702C227.537 211.555 224.098 213.729 220.308 215.059L203.92 220.325C201.971 221.007 200.207 222.132 198.768 223.613C197.328 225.094 196.253 226.889 195.627 228.857C195.001 230.825 194.841 232.911 195.16 234.952C195.479 236.992 196.268 238.93 197.465 240.613C199.096 242.909 201.41 244.632 204.077 245.537L220.253 250.784C224.178 252.097 227.743 254.308 230.664 257.24C231.449 258.018 232.182 258.847 232.859 259.72C234.696 262.098 236.115 264.77 237.055 267.623L242.386 283.992C243.294 286.599 244.993 288.858 247.246 290.453ZM317.948 336.999C316.191 335.747 314.869 333.977 314.167 331.936L311.142 322.65C310.554 320.884 309.566 319.277 308.256 317.956C306.941 316.638 305.337 315.647 303.571 315.06L294.432 312.082C292.307 311.369 290.464 309.999 289.166 308.172C287.9 306.399 287.223 304.273 287.229 302.094C287.232 299.901 287.919 297.765 289.194 295.98C290.46 294.187 292.261 292.84 294.34 292.135L303.617 289.129C305.341 288.516 306.903 287.517 308.182 286.208C309.461 284.899 310.423 283.314 310.995 281.576L313.982 272.428C314.685 270.36 316.013 268.562 317.783 267.281C319.553 266.001 321.675 265.301 323.86 265.28C326.044 265.259 328.181 265.917 329.974 267.162C331.769 268.408 333.131 270.18 333.874 272.234L336.908 281.585C337.502 283.338 338.495 284.93 339.806 286.236C341.118 287.541 342.715 288.524 344.47 289.11L353.619 292.089C355.728 292.748 357.575 294.055 358.9 295.824C360.224 297.592 360.959 299.733 360.998 301.941C361.039 304.151 360.382 306.317 359.122 308.132C357.862 309.947 356.063 311.319 353.978 312.054L344.627 315.088C342.874 315.685 341.282 316.676 339.97 317.984C338.658 319.3 337.669 320.904 337.084 322.668L334.114 331.789C333.399 333.912 332.026 335.754 330.195 337.045C328.424 338.319 326.298 339.002 324.117 339C321.901 339 319.743 338.299 317.948 336.999Z" fill="#212121"/>
</svg>
