<svg width="382" height="370" viewBox="0 0 382 370" fill="none" xmlns="http://www.w3.org/2000/svg">
<path fill-rule="evenodd" clip-rule="evenodd" d="M231 76C231 102.359 210.586 122 187.5 122C164.414 122 144 102.359 144 76C144 49.6412 164.414 30 187.5 30C210.586 30 231 49.6412 231 76ZM261 76C261 117.974 228.093 152 187.5 152C146.907 152 114 117.974 114 76C114 34.0264 146.907 0 187.5 0C228.093 0 261 34.0264 261 76ZM129.554 199.919C152.824 197.496 169.064 197.075 190.018 199.869C198.229 200.963 205.774 195.194 206.868 186.982C207.963 178.771 202.194 171.227 193.982 170.132C169.936 166.926 151.176 167.505 126.446 170.081C91.4434 173.727 60.7009 183.809 38.2503 198.751C15.9446 213.596 -0.00285778 234.679 3.84127e-07 260.062L0.00123253 272.991C0.0031065 297.857 20.1655 318 45.0212 318H174C182.284 318 189 311.284 189 303C189 294.716 182.284 288 174 288H45.0212C36.7233 288 30.0019 281.277 30.0012 272.989L30 260.058C29.9987 248.402 37.3013 235.419 54.8716 223.725C72.297 212.128 98.0566 203.2 129.554 199.919Z" fill="black"/>
<path d="M376.312 233.518C376.318 229.135 375.058 224.844 372.684 221.16C370.309 217.476 366.921 214.556 362.927 212.752C358.932 210.948 354.502 210.336 350.168 210.99C345.834 211.644 341.782 213.536 338.497 216.438C336.719 218.006 335.195 219.841 333.979 221.877V221.898C333.787 222.218 333.606 222.545 333.428 222.872L333.343 223.046C333.194 223.327 333.055 223.611 332.92 223.899C332.877 223.988 332.838 224.077 332.799 224.166C332.682 224.425 332.568 224.688 332.461 224.955C332.415 225.065 332.372 225.175 332.33 225.286C332.234 225.534 332.141 225.783 332.053 226.036L331.925 226.412C331.846 226.654 331.772 226.899 331.701 227.145C331.658 227.283 331.619 227.418 331.583 227.557C331.516 227.795 331.459 228.037 331.402 228.268C331.367 228.414 331.331 228.559 331.299 228.705C331.249 228.947 331.203 229.192 331.16 229.416C331.132 229.565 331.103 229.715 331.079 229.864C331.039 230.113 331.007 230.365 330.976 230.618C330.958 230.763 330.936 230.909 330.919 231.058C330.89 231.332 330.872 231.606 330.851 231.883C330.851 232.011 330.83 232.139 330.823 232.267C330.801 232.672 330.787 233.077 330.787 233.49C330.787 233.845 330.787 234.201 330.816 234.535V234.762C330.835 235.096 330.859 235.431 330.89 235.765L330.912 235.935C330.944 236.238 330.979 236.536 331.025 236.831C331.025 236.892 331.025 236.956 331.05 237.016C331.1 237.34 331.16 237.659 331.224 237.979C331.224 238.058 331.256 238.132 331.271 238.21C331.335 238.516 331.406 238.822 331.484 239.124C331.484 239.149 331.484 239.17 331.484 239.191C331.566 239.508 331.654 239.817 331.75 240.126L331.825 240.368C331.921 240.67 332.021 240.965 332.127 241.26C332.149 241.324 332.173 241.388 332.198 241.452C332.294 241.705 332.394 241.957 332.497 242.206C332.525 242.281 332.554 242.352 332.586 242.423C332.707 242.704 332.831 242.984 332.963 243.262L333.08 243.5C333.204 243.749 333.329 243.997 333.46 244.243C335.316 247.691 338.026 250.605 341.33 252.706C342.198 253.261 343.103 253.754 344.039 254.182L344.178 254.246C344.808 254.53 345.451 254.786 346.108 255.013L346.446 255.127L346.979 255.294C347.139 255.344 347.299 255.387 347.462 255.433L348.145 255.611L348.76 255.753L349.168 255.835L349.819 255.952L350.153 256.005C350.473 256.051 350.796 256.094 351.12 256.13L351.394 256.154C351.653 256.176 351.916 256.197 352.179 256.211L352.485 256.229C352.84 256.229 353.175 256.258 353.523 256.258C353.935 256.258 354.34 256.258 354.746 256.222L355.13 256.194C355.407 256.172 355.681 256.154 355.954 256.126L356.399 256.069C356.647 256.037 356.9 256.005 357.149 255.966L357.597 255.884C357.838 255.842 358.084 255.795 358.308 255.746L358.745 255.643C358.986 255.586 359.228 255.529 359.456 255.461C359.594 255.426 359.729 255.387 359.868 255.344C360.113 255.273 360.359 255.198 360.6 255.12L360.977 254.992C361.229 254.903 361.478 254.811 361.727 254.715L362.058 254.583C362.324 254.477 362.587 254.363 362.847 254.246L363.113 254.125C363.401 253.99 363.686 253.851 363.967 253.702L364.141 253.616C364.468 253.439 364.795 253.261 365.115 253.065H365.136C367.188 251.859 369.04 250.341 370.624 248.565C374.295 244.413 376.318 239.06 376.312 233.518Z" fill="black"/>
<path d="M332.014 259.993L294.491 289.177C293.493 289.953 292.264 290.374 291 290.374C289.736 290.374 288.507 289.953 287.509 289.177L236.322 249.365C235.72 248.91 235.215 248.341 234.836 247.69C234.456 247.039 234.21 246.319 234.111 245.572C234.012 244.825 234.063 244.066 234.26 243.338C234.457 242.611 234.797 241.93 235.259 241.335C235.722 240.74 236.298 240.243 236.954 239.872C237.611 239.502 238.334 239.266 239.083 239.178C239.831 239.089 240.59 239.151 241.314 239.358C242.039 239.565 242.715 239.915 243.303 240.385L291 277.482L324.492 251.433C321.252 246.191 319.494 240.167 319.405 234.005C319.317 227.842 320.902 221.771 323.991 216.438H231.281C226.004 216.443 220.944 218.542 217.212 222.274C213.48 226.006 211.381 231.066 211.375 236.344V321.656C211.381 326.934 213.48 331.994 217.212 335.726C220.944 339.458 226.004 341.557 231.281 341.562H350.719C355.996 341.557 361.056 339.458 364.788 335.726C368.52 331.994 370.619 326.934 370.625 321.656V263.071C364.638 266.539 357.737 268.102 350.84 267.553C343.942 267.003 337.376 264.366 332.014 259.993Z" fill="black"/>
</svg>
