<svg width="386" height="358" viewBox="0 0 386 358" fill="none" xmlns="http://www.w3.org/2000/svg">
<path fill-rule="evenodd" clip-rule="evenodd" d="M231 76C231 102.359 210.586 122 187.5 122C164.414 122 144 102.359 144 76C144 49.6412 164.414 30 187.5 30C210.586 30 231 49.6412 231 76ZM261 76C261 117.974 228.093 152 187.5 152C146.907 152 114 117.974 114 76C114 34.0264 146.907 0 187.5 0C228.093 0 261 34.0264 261 76ZM129.554 199.919C152.824 197.496 169.064 197.075 190.018 199.869C198.229 200.963 205.774 195.194 206.868 186.982C207.963 178.771 202.194 171.227 193.982 170.132C169.936 166.926 151.176 167.505 126.446 170.081C91.4434 173.727 60.7009 183.809 38.2503 198.751C15.9446 213.596 -0.00285778 234.679 3.84127e-07 260.062L0.00123253 272.991C0.0031065 297.857 20.1655 318 45.0212 318H174C182.284 318 189 311.284 189 303C189 294.716 182.284 288 174 288H45.0212C36.7233 288 30.0019 281.277 30.0012 272.989L30 260.058C29.9987 248.402 37.3013 235.419 54.8716 223.725C72.297 212.128 98.0566 203.2 129.554 199.919Z" fill="black"/>
<path d="M383.168 289.125C383.168 289.503 383.13 289.767 383.055 289.918C378.221 310.158 368.102 326.564 352.695 339.139C337.289 351.713 319.24 358 298.547 358C287.521 358 276.854 355.923 266.545 351.77C256.236 347.616 247.042 341.688 238.961 333.984L224.348 348.598C222.913 350.033 221.214 350.75 219.25 350.75C217.286 350.75 215.587 350.033 214.152 348.598C212.717 347.163 212 345.464 212 343.5V292.75C212 290.786 212.717 289.087 214.152 287.652C215.587 286.217 217.286 285.5 219.25 285.5H270C271.964 285.5 273.663 286.217 275.098 287.652C276.533 289.087 277.25 290.786 277.25 292.75C277.25 294.714 276.533 296.413 275.098 297.848L259.578 313.367C264.94 318.352 271.02 322.203 277.816 324.922C284.613 327.641 291.674 329 299 329C309.12 329 318.56 326.546 327.32 321.637C336.081 316.728 343.104 309.969 348.391 301.359C349.221 300.076 351.223 295.658 354.395 288.105C354.999 286.369 356.131 285.5 357.793 285.5H379.543C380.525 285.5 381.374 285.859 382.092 286.576C382.809 287.294 383.168 288.143 383.168 289.125ZM386 198.5V249.25C386 251.214 385.283 252.913 383.848 254.348C382.413 255.783 380.714 256.5 378.75 256.5H328C326.036 256.5 324.337 255.783 322.902 254.348C321.467 252.913 320.75 251.214 320.75 249.25C320.75 247.286 321.467 245.587 322.902 244.152L338.535 228.52C327.358 218.173 314.18 213 299 213C288.88 213 279.44 215.454 270.68 220.363C261.919 225.272 254.896 232.031 249.609 240.641C248.779 241.924 246.777 246.342 243.605 253.895C243.001 255.631 241.869 256.5 240.207 256.5H217.664C216.682 256.5 215.833 256.141 215.115 255.424C214.398 254.706 214.039 253.857 214.039 252.875V252.082C218.948 231.842 229.143 215.436 244.625 202.861C260.107 190.287 278.232 184 299 184C310.026 184 320.75 186.096 331.172 190.287C341.594 194.479 350.845 200.388 358.926 208.016L373.652 193.402C375.087 191.967 376.786 191.25 378.75 191.25C380.714 191.25 382.413 191.967 383.848 193.402C385.283 194.837 386 196.536 386 198.5Z" fill="black"/>
</svg>
