<svg width="355" height="330" viewBox="0 0 355 330" fill="none" xmlns="http://www.w3.org/2000/svg">
<path fill-rule="evenodd" clip-rule="evenodd" d="M261 76C261 117.974 228.093 152 187.5 152C146.907 152 114 117.974 114 76C114 34.0264 146.907 0 187.5 0C228.093 0 261 34.0264 261 76ZM231 76C231 102.359 210.586 122 187.5 122C164.414 122 144 102.359 144 76C144 49.6412 164.414 30 187.5 30C210.586 30 231 49.6412 231 76Z" fill="black"/>
<path d="M129.554 199.919C152.824 197.496 176 197.853 191.5 199.919C195.514 200.455 211.608 206.081 221.5 207C231.844 207.961 235.632 199.919 237 196.5C238.368 193.081 237 184.244 231 180.5C223.5 175.82 195.539 170.619 191.5 170.081C167.453 166.875 151.176 167.505 126.446 170.081C91.4434 173.727 60.7009 183.809 38.2503 198.751C15.9446 213.596 -0.00285778 234.679 3.84125e-07 260.062L0.00128212 272.991C0.00315609 297.857 20.1655 318 45.0212 318H146.5C154.784 318 162 311.784 162 303.5C162 295.216 154.784 288 146.5 288H45.0212C36.7233 288 30.0019 281.277 30.0013 272.989L30 260.058C29.9987 248.402 37.3013 235.419 54.8716 223.725C72.297 212.128 98.0566 203.2 129.554 199.919Z" fill="black"/>
<path d="M218.387 322.93C209.882 314.405 209.882 300.582 218.387 292.056L317.201 193C325.706 184.474 339.495 184.474 348 193C356.505 201.526 356.505 215.349 348 223.875L249.186 322.93C240.681 331.456 226.892 331.456 218.387 322.93Z" fill="black"/>
<path d="M174.757 248.583C183.262 240.057 197.052 240.057 205.557 248.583L249.204 292.337C257.709 300.863 257.709 314.686 249.204 323.211C240.699 331.737 226.909 331.737 218.404 323.211L174.757 279.458C166.252 270.932 166.252 257.109 174.757 248.583Z" fill="black"/>
</svg>
