<svg width="416" height="364" viewBox="0 0 416 364" fill="none" xmlns="http://www.w3.org/2000/svg">
<path fill-rule="evenodd" clip-rule="evenodd" d="M261 76C261 117.974 228.093 152 187.5 152C146.907 152 114 117.974 114 76C114 34.0264 146.907 0 187.5 0C228.093 0 261 34.0264 261 76ZM231 76C231 102.359 210.586 122 187.5 122C164.414 122 144 102.359 144 76C144 49.6412 164.414 30 187.5 30C210.586 30 231 49.6412 231 76Z" fill="black"/>
<path d="M129.554 199.919C152.824 197.496 169.064 197.075 190.018 199.869C198.229 200.963 205.774 195.194 206.868 186.982C207.963 178.771 202.194 171.227 193.982 170.132C169.936 166.926 151.176 167.505 126.446 170.081C91.4434 173.727 60.7009 183.809 38.2503 198.751C15.9446 213.596 -0.00285778 234.679 3.84127e-07 260.062L0.00123253 272.991C0.0031065 297.857 20.1655 318 45.0212 318H174C182.284 318 189 311.284 189 303C189 294.716 182.284 288 174 288H45.0212C36.7233 288 30.0019 281.277 30.0012 272.989L30 260.058C29.9987 248.402 37.3013 235.419 54.8716 223.725C72.297 212.128 98.0566 203.2 129.554 199.919Z" fill="black"/>
<path d="M182.541 244.377L233.884 285.224L217.916 346.641C214.78 358.097 228.249 367.5 239.202 361.039L296.5 327.826L353.796 361.033C364.444 367.198 377.903 358.095 375.084 346.633L359.114 285.221L410.463 244.373C420.162 236.735 415.156 221.749 402.323 220.867L335.005 216.162L309.647 157.692C304.952 146.821 288.357 146.821 283.344 157.692L257.986 216.164L190.671 220.869C177.844 222.049 172.831 236.739 182.541 244.377Z" fill="black"/>
</svg>
