<svg width="374" height="331" viewBox="0 0 374 331" fill="none" xmlns="http://www.w3.org/2000/svg">
<path fill-rule="evenodd" clip-rule="evenodd" d="M261 76C261 117.974 228.093 152 187.5 152C146.907 152 114 117.974 114 76C114 34.0264 146.907 0 187.5 0C228.093 0 261 34.0264 261 76ZM231 76C231 102.359 210.586 122 187.5 122C164.414 122 144 102.359 144 76C144 49.6412 164.414 30 187.5 30C210.586 30 231 49.6412 231 76Z" fill="black"/>
<path d="M129.554 199.919C152.824 197.496 176 197.853 191.5 199.919C195.514 200.455 211.608 206.081 221.5 207C231.844 207.961 235.632 199.919 237 196.5C238.368 193.081 237 184.244 231 180.5C223.5 175.82 195.539 170.619 191.5 170.081C167.453 166.875 151.176 167.505 126.446 170.081C91.4434 173.727 60.7009 183.809 38.2503 198.751C15.9446 213.596 -0.00285778 234.679 3.84127e-07 260.062L0.00128212 272.991C0.00315609 297.857 20.1655 318 45.0212 318H174C182.284 318 189 311.284 189 303C189 294.716 182.284 288 174 288H45.0212C36.7233 288 30.0019 281.277 30.0013 272.989L30 260.058C29.9987 248.402 37.3013 235.419 54.8716 223.725C72.297 212.128 98.0566 203.2 129.554 199.919Z" fill="black"/>
<path d="M278 185C278 176.716 284.716 170 293 170C301.284 170 308 176.716 308 185V316C308 324.284 301.284 331 293 331C284.716 331 278 324.284 278 316V185Z" fill="black"/>
<path d="M228 265C219.716 265 213 258.284 213 250C213 241.716 219.716 235 228 235H359C367.284 235 374 241.716 374 250C374 258.284 367.284 265 359 265H228Z" fill="black"/>
</svg>
