<svg width="378" height="358" viewBox="0 0 378 358" fill="none" xmlns="http://www.w3.org/2000/svg">
<path fill-rule="evenodd" clip-rule="evenodd" d="M187.5 152C228.093 152 261 117.974 261 76C261 34.0264 228.093 0 187.5 0C146.907 0 114 34.0264 114 76C114 117.974 146.907 152 187.5 152ZM187.5 122C210.586 122 231 102.359 231 76C231 49.6412 210.586 30 187.5 30C164.414 30 144 49.6412 144 76C144 102.359 164.414 122 187.5 122Z" fill="black"/>
<path d="M190.018 199.869C169.064 197.075 152.824 197.496 129.554 199.919C98.0566 203.2 72.297 212.128 54.8716 223.725C37.3013 235.419 29.9987 248.402 30 260.058L30.0012 272.989C30.0019 281.277 36.7233 288 45.0212 288H174C182.284 288 189 294.716 189 303C189 311.284 182.284 318 174 318H45.0212C20.1655 318 0.00310689 297.857 0.00123292 272.991L3.84023e-07 260.062C-0.00285739 234.679 15.9446 213.596 38.2503 198.751C60.7009 183.809 91.4434 173.727 126.446 170.081C151.176 167.505 169.936 166.926 193.982 170.132C202.194 171.227 207.963 178.771 206.868 186.982C205.774 195.194 198.229 200.963 190.018 199.869Z" fill="black"/>
<path d="M286 215C281.029 215 277 219.029 277 224V275C277 278.69 279.22 281.861 282.398 283.25L304.147 295.807C308.452 298.292 313.956 296.818 316.441 292.513C318.927 288.208 317.452 282.704 313.147 280.219L295 269.741V224C295 219.029 290.971 215 286 215Z" fill="black"/>
<path fill-rule="evenodd" clip-rule="evenodd" d="M378 267.5C378 317.482 337.482 358 287.5 358C237.518 358 197 317.482 197 267.5C197 217.518 237.518 177 287.5 177C337.482 177 378 217.518 378 267.5ZM353 267.5C353 303.675 323.675 333 287.5 333C251.325 333 222 303.675 222 267.5C222 231.325 251.325 202 287.5 202C323.675 202 353 231.325 353 267.5Z" fill="black"/>
</svg>
