<svg width="374" height="359" viewBox="0 0 374 359" fill="none" xmlns="http://www.w3.org/2000/svg">
<path fill-rule="evenodd" clip-rule="evenodd" d="M231 76C231 102.359 210.586 122 187.5 122C164.414 122 144 102.359 144 76C144 49.6412 164.414 30 187.5 30C210.586 30 231 49.6412 231 76ZM261 76C261 117.974 228.093 152 187.5 152C146.907 152 114 117.974 114 76C114 34.0264 146.907 0 187.5 0C228.093 0 261 34.0264 261 76ZM129.554 199.919C152.824 197.496 169.064 197.075 190.018 199.869C198.229 200.963 205.774 195.194 206.868 186.982C207.963 178.771 202.194 171.227 193.982 170.132C169.936 166.926 151.176 167.505 126.446 170.081C91.4434 173.727 60.7009 183.809 38.2503 198.751C15.9446 213.596 -0.00285778 234.679 3.84127e-07 260.062L0.00123253 272.991C0.0031065 297.857 20.1655 318 45.0212 318H174C182.284 318 189 311.284 189 303C189 294.716 182.284 288 174 288H45.0212C36.7233 288 30.0019 281.277 30.0012 272.989L30 260.058C29.9987 248.402 37.3013 235.419 54.8716 223.725C72.297 212.128 98.0566 203.2 129.554 199.919Z" fill="black"/>
<path fill-rule="evenodd" clip-rule="evenodd" d="M355 225.5H345.5V206.5C345.5 179.9 324.6 159 298 159C271.4 159 250.5 179.9 250.5 206.5V225.5H241C230.55 225.5 222 234.05 222 244.5V339.5C222 349.95 230.55 358.5 241 358.5H355C365.45 358.5 374 349.95 374 339.5V244.5C374 234.05 365.45 225.5 355 225.5ZM298 311C287.55 311 279 302.45 279 292C279 281.55 287.55 273 298 273C308.45 273 317 281.55 317 292C317 302.45 308.45 311 298 311ZM327.45 225.5H268.55V206.5C268.55 190.35 281.85 177.05 298 177.05C314.15 177.05 327.45 190.35 327.45 206.5V225.5Z" fill="black"/>
</svg>
