<svg width="408" height="379" viewBox="0 0 408 379" fill="none" xmlns="http://www.w3.org/2000/svg">
<path fill-rule="evenodd" clip-rule="evenodd" d="M231 76C231 102.359 210.586 122 187.5 122C164.414 122 144 102.359 144 76C144 49.6412 164.414 30 187.5 30C210.586 30 231 49.6412 231 76ZM261 76C261 117.974 228.093 152 187.5 152C146.907 152 114 117.974 114 76C114 34.0264 146.907 0 187.5 0C228.093 0 261 34.0264 261 76ZM129.554 199.919C152.824 197.496 169.064 197.075 190.018 199.869C198.229 200.963 205.774 195.194 206.868 186.982C207.963 178.771 202.194 171.227 193.982 170.132C169.936 166.926 151.176 167.505 126.446 170.081C91.4434 173.727 60.7009 183.809 38.2503 198.751C15.9446 213.596 -0.00285778 234.679 3.84127e-07 260.062L0.00123253 272.991C0.0031065 297.857 20.1655 318 45.0212 318H174C182.284 318 189 311.284 189 303C189 294.716 182.284 288 174 288H45.0212C36.7233 288 30.0019 281.277 30.0012 272.989L30 260.058C29.9987 248.402 37.3013 235.419 54.8716 223.725C72.297 212.128 98.0566 203.2 129.554 199.919Z" fill="black"/>
<path d="M286.667 233.249C291.333 232.333 295.067 226.833 293.2 222.249C292.267 217.666 286.667 213.999 282 215.833C256.8 221.333 240 243.333 240 268.999C240 299.249 265.2 323.999 296 323.999C324.933 323.999 349.2 301.999 352 273.583C352.933 268.999 348.267 264.416 343.6 263.499C338.933 262.583 334.267 267.166 333.333 271.749C331.467 290.083 314.667 305.666 296 305.666C275.467 305.666 258.667 289.166 258.667 268.999C258.667 251.583 269.867 236.916 286.667 233.249Z" fill="black"/>
<path d="M379.999 259.833C374.399 259.833 370.666 263.499 370.666 268.999C370.666 309.333 337.066 342.333 295.999 342.333C254.933 342.333 221.333 309.333 221.333 268.999C221.333 230.499 252.133 198.416 291.333 195.666C296.933 195.666 300.666 191.083 299.733 185.583C299.733 180.083 295.066 176.416 289.466 177.333C240.933 180.999 202.666 220.416 202.666 268.999C202.666 319.416 244.666 360.666 295.999 360.666C347.333 360.666 389.333 319.416 389.333 268.999C389.333 263.499 384.666 259.833 379.999 259.833Z" fill="black"/>
<path d="M313.733 238.75L289.466 262.583C285.733 266.25 285.733 271.75 289.466 275.416C291.333 277.25 294.133 278.166 295.999 278.166C297.866 278.166 300.666 277.25 302.533 275.416L326.799 251.583L342.666 256.166C343.599 256.166 344.533 256.166 345.466 256.166C348.266 256.166 350.133 255.25 351.999 253.416L388.399 216.75C390.266 214.916 391.199 211.25 391.199 208.5C391.199 205.75 388.399 203 385.599 202.083L368.799 196.583L363.199 180.083C362.266 177.333 359.466 174.583 356.666 174.583C353.866 173.666 350.133 174.583 348.266 177.333L311.866 214C309.066 216.75 308.133 220.416 309.999 223.166L313.733 238.75ZM350.133 201.166L352.933 207.583C353.866 210.333 355.733 212.166 358.533 213.083L365.066 215.833L342.666 237.833L331.466 234.166L327.733 223.166L350.133 201.166Z" fill="black"/>
</svg>
