<svg width="376" height="362" viewBox="0 0 376 362" fill="none" xmlns="http://www.w3.org/2000/svg">
<path fill-rule="evenodd" clip-rule="evenodd" d="M231 76C231 102.359 210.586 122 187.5 122C164.414 122 144 102.359 144 76C144 49.6412 164.414 30 187.5 30C210.586 30 231 49.6412 231 76ZM261 76C261 117.974 228.093 152 187.5 152C146.907 152 114 117.974 114 76C114 34.0264 146.907 0 187.5 0C228.093 0 261 34.0264 261 76ZM129.554 199.919C152.824 197.496 169.064 197.075 190.018 199.869C198.229 200.963 205.774 195.194 206.868 186.982C207.963 178.771 202.194 171.227 193.982 170.132C169.936 166.926 151.176 167.505 126.446 170.081C91.4434 173.727 60.7009 183.809 38.2503 198.751C15.9446 213.596 -0.00285778 234.679 3.84127e-07 260.062L0.00123253 272.991C0.0031065 297.857 20.1655 318 45.0212 318H174C182.284 318 189 311.284 189 303C189 294.716 182.284 288 174 288H45.0212C36.7233 288 30.0019 281.277 30.0012 272.989L30 260.058C29.9987 248.402 37.3013 235.419 54.8716 223.725C72.297 212.128 98.0566 203.2 129.554 199.919Z" fill="black"/>
<path d="M280.5 171C285.397 171 289.434 174.687 289.986 179.436L290.05 180.55L290.053 193.098C323.293 197.382 349.624 223.716 353.903 256.957L366.45 256.95C371.724 256.95 376 261.226 376 266.5C376 271.397 372.314 275.434 367.564 275.986L366.45 276.05L353.901 276.053C349.618 309.289 323.289 335.618 290.053 339.901L290.05 352.45C290.05 357.724 285.774 362 280.5 362C275.603 362 271.566 358.314 271.014 353.564L270.95 352.45L270.957 339.903C237.716 335.624 211.382 309.293 207.098 276.053L194.55 276.05C189.276 276.05 185 271.774 185 266.5C185 261.603 188.687 257.566 193.436 257.014L194.55 256.95L207.097 256.957C211.377 223.713 237.713 197.377 270.957 193.097L270.95 180.55C270.95 175.276 275.226 171 280.5 171ZM280.5 211.588C250.173 211.588 225.588 236.173 225.588 266.5C225.588 296.827 250.173 321.413 280.5 321.413C310.827 321.413 335.413 296.827 335.413 266.5C335.413 236.173 310.827 211.588 280.5 211.588ZM280.5 228.3C301.597 228.3 318.7 245.403 318.7 266.5C318.7 287.597 301.597 304.7 280.5 304.7C259.403 304.7 242.3 287.597 242.3 266.5C242.3 245.403 259.403 228.3 280.5 228.3Z" fill="#212121"/>
</svg>
