<svg width="383" height="345" viewBox="0 0 383 345" fill="none" xmlns="http://www.w3.org/2000/svg">
<path fill-rule="evenodd" clip-rule="evenodd" d="M231 76C231 102.359 210.586 122 187.5 122C164.414 122 144 102.359 144 76C144 49.6412 164.414 30 187.5 30C210.586 30 231 49.6412 231 76ZM261 76C261 117.974 228.093 152 187.5 152C146.907 152 114 117.974 114 76C114 34.0264 146.907 0 187.5 0C228.093 0 261 34.0264 261 76ZM129.554 199.919C152.824 197.496 169.064 197.075 190.018 199.869C198.229 200.963 205.774 195.194 206.868 186.982C207.963 178.771 202.194 171.227 193.982 170.132C169.936 166.926 151.176 167.505 126.446 170.081C91.4434 173.727 60.7009 183.809 38.2503 198.751C15.9446 213.596 -0.00285778 234.679 3.84127e-07 260.062L0.00123253 272.991C0.0031065 297.857 20.1655 318 45.0212 318H174C182.284 318 189 311.284 189 303C189 294.716 182.284 288 174 288H45.0212C36.7233 288 30.0019 281.277 30.0012 272.989L30 260.058C29.9987 248.402 37.3013 235.419 54.8716 223.725C72.297 212.128 98.0566 203.2 129.554 199.919Z" fill="black"/>
<path d="M355.537 226.693C370.181 226.693 382.148 238.155 382.957 252.598L383 254.157V317.536C383 332.181 371.538 344.149 357.096 344.957L355.537 345H292.162C277.518 345 265.551 333.538 264.744 319.095L264.7 317.536V254.157C264.7 239.512 276.162 227.544 290.604 226.736L292.162 226.693H355.537ZM330.187 201.352C341.605 201.352 351.395 208.32 355.538 218.236L292.162 218.242C272.329 218.242 256.25 234.322 256.25 254.157L256.251 317.554C246.78 313.605 239.995 304.505 239.393 293.753L239.35 292.195V228.816C239.35 214.171 250.812 202.203 265.254 201.395L266.812 201.352H330.187ZM304.837 176C315.821 176 325.297 182.448 329.691 191.765L330.187 192.901H266.812L265.018 192.948C245.812 194.019 230.9 209.738 230.9 228.816L230.901 292.203C221.43 288.254 214.645 279.153 214.043 268.402L214 266.843V203.464C214 188.819 225.462 176.851 239.904 176.043L241.462 176H304.837Z" fill="#212121"/>
</svg>
