<svg width="390" height="359" viewBox="0 0 390 359" fill="none" xmlns="http://www.w3.org/2000/svg">
<path fill-rule="evenodd" clip-rule="evenodd" d="M231 76C231 102.359 210.586 122 187.5 122C164.414 122 144 102.359 144 76C144 49.6412 164.414 30 187.5 30C210.586 30 231 49.6412 231 76ZM261 76C261 117.974 228.093 152 187.5 152C146.907 152 114 117.974 114 76C114 34.0264 146.907 0 187.5 0C228.093 0 261 34.0264 261 76ZM129.554 199.919C152.824 197.496 169.064 197.075 190.018 199.869C198.229 200.963 205.774 195.194 206.868 186.982C207.963 178.771 202.194 171.227 193.982 170.132C169.936 166.926 151.176 167.505 126.446 170.081C91.4434 173.727 60.7009 183.809 38.2503 198.751C15.9446 213.596 -0.00285778 234.679 3.84127e-07 260.062L0.00123253 272.991C0.0031065 297.857 20.1655 318 45.0212 318H174C182.284 318 189 311.284 189 303C189 294.716 182.284 288 174 288H45.0212C36.7233 288 30.0019 281.277 30.0012 272.989L30 260.058C29.9987 248.402 37.3013 235.419 54.8716 223.725C72.297 212.128 98.0566 203.2 129.554 199.919Z" fill="black"/>
<path d="M220.663 275.212C211.925 283.95 202.5 330.287 202.5 334C202.5 340.512 207.575 346.5 215 346.5C218.712 346.5 265.05 337.075 273.788 328.337L345.313 256.812L292.188 203.688L220.663 275.212ZM340 171.5C332.475 171.5 321.887 173.988 313.237 182.637L309.687 186.187L362.812 239.313L366.362 235.762C374.325 227.8 377.5 217.687 377.5 209C377.5 188.288 360.7 171.5 340 171.5Z" fill="black"/>
</svg>
