<svg width="384" height="354" viewBox="0 0 384 354" fill="none" xmlns="http://www.w3.org/2000/svg">
<path fill-rule="evenodd" clip-rule="evenodd" d="M231 76C231 102.359 210.586 122 187.5 122C164.414 122 144 102.359 144 76C144 49.6412 164.414 30 187.5 30C210.586 30 231 49.6412 231 76ZM261 76C261 117.974 228.093 152 187.5 152C146.907 152 114 117.974 114 76C114 34.0264 146.907 0 187.5 0C228.093 0 261 34.0264 261 76ZM129.554 199.919C152.824 197.496 169.064 197.075 190.018 199.869C198.229 200.963 205.774 195.194 206.868 186.982C207.963 178.771 202.194 171.227 193.982 170.132C169.936 166.926 151.176 167.505 126.446 170.081C91.4434 173.727 60.7009 183.809 38.2503 198.751C15.9446 213.596 -0.00285778 234.679 3.84127e-07 260.062L0.00123253 272.991C0.0031065 297.857 20.1655 318 45.0212 318H174C182.284 318 189 311.284 189 303C189 294.716 182.284 288 174 288H45.0212C36.7233 288 30.0019 281.277 30.0012 272.989L30 260.058C29.9987 248.402 37.3013 235.419 54.8716 223.725C72.297 212.128 98.0566 203.2 129.554 199.919Z" fill="black"/>
<path d="M320.207 202.457C316.399 206.264 310.226 206.264 306.418 202.457L296.25 192.289V219.938C296.25 225.322 291.885 229.688 286.5 229.688C281.115 229.688 276.75 225.322 276.75 219.938V192.289L266.582 202.457C262.774 206.264 256.601 206.264 252.793 202.457C248.986 198.649 248.986 192.476 252.793 188.668L279.606 161.856C281.434 160.027 283.914 159 286.5 159C289.086 159 291.566 160.027 293.394 161.856L320.207 188.668C324.014 192.476 324.014 198.649 320.207 202.457Z" fill="#212121"/>
<path d="M232.457 276.418C236.264 280.226 236.264 286.399 232.457 290.207C228.649 294.014 222.476 294.014 218.668 290.207L191.856 263.394C190.027 261.566 189 259.086 189 256.5C189 253.914 190.027 251.434 191.856 249.606L218.668 222.793C222.476 218.986 228.649 218.986 232.457 222.793C236.264 226.601 236.264 232.774 232.457 236.582L222.289 246.75H249.938C255.322 246.75 259.688 251.115 259.688 256.5C259.688 261.885 255.322 266.25 249.938 266.25H222.289L232.457 276.418Z" fill="#212121"/>
<path d="M354.332 290.207C350.524 294.014 344.351 294.014 340.543 290.207C336.736 286.399 336.736 280.226 340.543 276.418L350.712 266.25H323.062C317.678 266.25 313.312 261.885 313.312 256.5C313.312 251.115 317.678 246.75 323.062 246.75H350.712L340.543 236.582C336.736 232.774 336.736 226.601 340.543 222.793C344.351 218.986 350.524 218.986 354.332 222.793L381.144 249.606C382.972 251.434 384 253.914 384 256.5C384 259.086 382.972 261.566 381.144 263.394L354.332 290.207Z" fill="#212121"/>
<path d="M276.75 320.712V293.062C276.75 287.678 281.115 283.312 286.5 283.312C291.885 283.312 296.25 287.678 296.25 293.062V320.712L306.418 310.543C310.226 306.736 316.399 306.736 320.207 310.543C324.014 314.351 324.014 320.524 320.207 324.332L293.394 351.144C291.566 352.972 289.086 354 286.5 354C283.914 354 281.434 352.972 279.606 351.144L252.793 324.332C248.986 320.524 248.986 314.351 252.793 310.543C256.601 306.736 262.774 306.736 266.582 310.543L276.75 320.712Z" fill="#212121"/>
</svg>
