<svg width="350" height="349" viewBox="0 0 350 349" fill="none" xmlns="http://www.w3.org/2000/svg">
<path fill-rule="evenodd" clip-rule="evenodd" d="M231 76C231 102.359 210.586 122 187.5 122C164.414 122 144 102.359 144 76C144 49.6412 164.414 30 187.5 30C210.586 30 231 49.6412 231 76ZM261 76C261 117.974 228.093 152 187.5 152C146.907 152 114 117.974 114 76C114 34.0264 146.907 0 187.5 0C228.093 0 261 34.0264 261 76ZM129.554 199.919C152.871 197.491 159.097 197.079 180.018 199.869C188.229 200.964 195.774 195.194 196.868 186.983C197.963 178.771 192.194 171.227 183.982 170.132C159.903 166.921 151.129 167.51 126.446 170.081C91.4434 173.727 60.7009 183.809 38.2503 198.75C15.9446 213.596 -0.00285778 234.679 3.84127e-07 260.062L0.00123253 272.991C0.0031065 297.857 20.1655 318 45.0212 318H182C190.284 318 197 311.284 197 303C197 294.716 190.284 288 182 288H45.0212C36.7233 288 30.0019 281.277 30.0012 272.989L30 260.058C29.9987 248.402 37.3013 235.419 54.8716 223.725C72.297 212.128 98.0566 203.2 129.554 199.919Z" fill="black"/>
<path d="M333.63 335.473C340.151 340.861 350 336.223 350 327.764V203.428C350 199.071 348.164 194.892 344.895 191.812C341.627 188.731 337.194 187 332.571 187H245.429C240.806 187 236.373 188.731 233.105 191.812C229.836 194.892 228 199.071 228 203.428V328.155C228 336.547 237.713 341.207 244.258 335.955L283.546 304.431C287.244 301.464 292.519 301.502 296.174 304.522L333.63 335.473Z" fill="black"/>
</svg>
