<?xml version="1.0" encoding="UTF-8"?>
<svg id="Layer_1" data-name="Layer 1" xmlns="http://www.w3.org/2000/svg" version="1.1" viewBox="0 0 507 523">
  <defs>
    <style>
      .cls-1 {
        stroke: #ff5a08;
      }

      .cls-1, .cls-2, .cls-3, .cls-4, .cls-5 {
        stroke-width: 5px;
      }

      .cls-1, .cls-3, .cls-5 {
        fill: #fff;
      }

      .cls-2, .cls-3 {
        stroke: #79ba2d;
      }

      .cls-2, .cls-4 {
        fill: none;
      }

      .cls-6, .cls-7, .cls-8, .cls-9 {
        stroke-width: 0px;
      }

      .cls-6, .cls-8 {
        fill: #191919;
      }

      .cls-7, .cls-9 {
        fill: #000;
      }

      .cls-8, .cls-9 {
        fill-rule: evenodd;
      }

      .cls-4, .cls-5 {
        stroke: #efad0a;
      }
    </style>
  </defs>
  <rect class="cls-3" x="265.9" y="346.5" width="156.2" height="156.2"/>
  <path class="cls-3" d="M268.4,330.5h0c10.2,0,18.5,8.3,18.5,18.5h0c0,10.2-8.3,18.5-18.5,18.5h0c-10.2,0-18.5-8.3-18.5-18.5h0c0-10.2,8.3-18.5,18.5-18.5Z"/>
  <rect class="cls-3" x="401.5" y="330.5" width="37" height="37" rx="18.5" ry="18.5"/>
  <path class="cls-3" d="M268,483.3h0c10.2,0,18.5,8.3,18.5,18.5h0c0,10.2-8.3,18.5-18.5,18.5h0c-10.2,0-18.5-8.3-18.5-18.5h0c0-10.2,8.3-18.5,18.5-18.5Z"/>
  <rect class="cls-3" x="401.5" y="482.5" width="37" height="37" rx="18.5" ry="18.5"/>
  <rect class="cls-2" x="18.9" y="99.5" width="156.2" height="156.2"/>
  <path class="cls-3" d="M21.4,83.5h0c10.2,0,18.5,8.3,18.5,18.5h0c0,10.2-8.3,18.5-18.5,18.5h0c-10.2,0-18.5-8.3-18.5-18.5h0c0-10.2,8.3-18.5,18.5-18.5Z"/>
  <path class="cls-3" d="M173,83.5h0c10.2,0,18.5,8.3,18.5,18.5h0c0,10.2-8.3,18.5-18.5,18.5h0c-10.2,0-18.5-8.3-18.5-18.5h0c0-10.2,8.3-18.5,18.5-18.5Z"/>
  <path class="cls-3" d="M21,236.3h0c10.2,0,18.5,8.3,18.5,18.5h0c0,10.2-8.3,18.5-18.5,18.5h0c-10.2,0-18.5-8.3-18.5-18.5h0c0-10.2,8.3-18.5,18.5-18.5Z"/>
  <path class="cls-3" d="M173,235.5h0c10.2,0,18.5,8.3,18.5,18.5h0c0,10.2-8.3,18.5-18.5,18.5h0c-10.2,0-18.5-8.3-18.5-18.5h0c0-10.2,8.3-18.5,18.5-18.5Z"/>
  <rect class="cls-1" x="18.9" y="346.5" width="156.2" height="156.2"/>
  <path class="cls-1" d="M21.4,330.5h0c10.2,0,18.5,8.3,18.5,18.5h0c0,10.2-8.3,18.5-18.5,18.5h0c-10.2,0-18.5-8.3-18.5-18.5h0c0-10.2,8.3-18.5,18.5-18.5Z"/>
  <path class="cls-1" d="M173,330.5h0c10.2,0,18.5,8.3,18.5,18.5h0c0,10.2-8.3,18.5-18.5,18.5h0c-10.2,0-18.5-8.3-18.5-18.5h0c0-10.2,8.3-18.5,18.5-18.5Z"/>
  <path class="cls-1" d="M21,483.3h0c10.2,0,18.5,8.3,18.5,18.5h0c0,10.2-8.3,18.5-18.5,18.5h0c-10.2,0-18.5-8.3-18.5-18.5h0c0-10.2,8.3-18.5,18.5-18.5Z"/>
  <path class="cls-1" d="M173,482.5h0c10.2,0,18.5,8.3,18.5,18.5h0c0,10.2-8.3,18.5-18.5,18.5h0c-10.2,0-18.5-8.3-18.5-18.5h0c0-10.2,8.3-18.5,18.5-18.5Z"/>
  <rect class="cls-4" x="247.6" y="26.4" width="232.7" height="232.7"/>
  <rect class="cls-5" x="224.1" y="2.9" width="56.9" height="56.9" rx="22.5" ry="22.5"/>
  <rect class="cls-5" x="447.6" y="2.9" width="56.9" height="56.9" rx="22.5" ry="22.5"/>
  <rect class="cls-5" x="223.5" y="228.2" width="56.9" height="56.9" rx="22.5" ry="22.5"/>
  <rect class="cls-5" x="447.6" y="227" width="56.9" height="56.9" rx="22.5" ry="22.5"/>
  <path class="cls-8" d="M385.1,106.2c0,15.6-11.7,28.2-26.2,28.2s-26.2-12.6-26.2-28.2,11.7-28.2,26.2-28.2,26.2,12.6,26.2,28.2ZM374.4,106.2c0,9.8-7.3,17.1-15.5,17.1s-15.5-7.3-15.5-17.1,7.3-17.1,15.5-17.1,15.5,7.3,15.5,17.1Z"/>
  <path class="cls-6" d="M338.2,152.2c8.3-.9,14.1-1.1,21.6,0,2.9.4,5.6-1.7,6-4.8.4-3-1.7-5.8-4.6-6.3-8.6-1.2-15.3-1-24.1,0-12.5,1.4-23.4,5.1-31.5,10.6-8,5.5-13.6,13.3-13.6,22.8v4.8c0,9.2,7.2,16.7,16.1,16.7h46c3,0,5.3-2.5,5.3-5.6s-2.4-5.6-5.3-5.6h-46c-3,0-5.4-2.5-5.4-5.6v-4.8c0-4.3,2.6-9.1,8.9-13.5,6.2-4.3,15.4-7.6,26.6-8.8Z"/>
  <path class="cls-6" d="M381.7,153c0-8.2,6.4-14.8,14.3-14.8h5.7c7.9,0,14.3,6.6,14.3,14.8v2.5h-8.9v-1.4c0-4.1-3.2-7.4-7.1-7.4h-2.1c-3.9,0-7.1,3.3-7.1,7.4v1.4h-8.9v-2.5Z"/>
  <path class="cls-8" d="M376.9,155.6c-7.9,0-14.3,6.6-14.3,14.8v25.1c0,8.2,6.4,14.8,14.3,14.8h43.9c7.9,0,14.3-6.6,14.3-14.8v-25.1c0-8.2-6.4-14.8-14.3-14.8h-43.9ZM403.7,168.1c-2.7,0-4.8,2.3-4.8,5s2.2,5,4.8,5h14.3c2.7,0,4.8-2.3,4.8-5s-2.2-5-4.8-5h-14.3Z"/>
  <path class="cls-9" d="M362.1,399.3c0,10.6-8.3,19.3-18.6,19.3s-18.6-8.6-18.6-19.3,8.3-19.3,18.6-19.3,18.6,8.6,18.6,19.3ZM354.5,399.3c0,6.7-5.2,11.7-11,11.7s-11-5-11-11.7,5.2-11.7,11-11.7,11,5,11,11.7Z"/>
  <path class="cls-7" d="M328.8,430.7c5.9-.6,10-.7,15.3,0,2.1.3,4-1.2,4.3-3.3.3-2.1-1.2-4-3.3-4.3-6.1-.8-10.8-.7-17.1,0-8.9.9-16.7,3.5-22.4,7.3-5.7,3.8-9.7,9.1-9.7,15.5v3.3c0,6.3,5.1,11.4,11.4,11.4h32.7c2.1,0,3.8-1.7,3.8-3.8s-1.7-3.8-3.8-3.8h-32.7c-2.1,0-3.8-1.7-3.8-3.8v-3.3c0-3,1.9-6.2,6.3-9.2,4.4-2.9,10.9-5.2,18.9-6Z"/>
  <path class="cls-7" d="M387.8,457.8c-.1-.3-.4-.5-.6-.6l-1.9-1.1c-.7-.4-1.3-1.1-1.8-1.8-.4-.7-.6-1.6-.6-2.4v-10.1c0-2.9-1-5.8-2.7-8.2-1.8-2.4-4.2-4.1-7.1-4.9-.1,0-.2-.1-.3-.2,0-.1-.1-.2-.1-.4,0-.9-.4-1.8-1-2.4-.6-.6-1.5-1-2.4-1s-1.8.4-2.4,1c-.6.6-1,1.5-1,2.4,0,.1,0,.2-.1.4,0,.1-.2.2-.3.2-2.8.8-5.3,2.5-7.1,4.9-1.8,2.4-2.7,5.2-2.7,8.2v10.1c0,.9-.2,1.7-.6,2.4-.4.7-1,1.4-1.8,1.8l-1.9,1.1c-.3.2-.6.5-.7.8-.1.3-.2.7,0,1.1,0,.4.3.7.6.9.3.2.7.4,1,.4h34.1c.3,0,.6,0,.8-.2.3-.2.5-.4.6-.6.1-.3.2-.6.2-.8,0-.3,0-.6-.2-.9h0Z"/>
  <path class="cls-7" d="M365.3,467.5c1,.7,2.2,1.2,3.4,1.4,1.2.2,2.5,0,3.7-.3,1.2-.4,2.3-1.1,3.2-2,.9-.9,1.6-2,2-3.2h-15.2c.6,1.6,1.6,3,2.9,4Z"/>
  <path class="cls-9" d="M118.5,400.1c0,11.1-8.6,20.1-19.3,20.1s-19.3-9-19.3-20.1,8.6-20.1,19.3-20.1,19.3,9,19.3,20.1ZM110.6,400.1c0,7-5.4,12.1-11.4,12.1s-11.4-5.2-11.4-12.1,5.4-12.1,11.4-12.1,11.4,5.2,11.4,12.1Z"/>
  <path class="cls-7" d="M84,432.8c6.1-.6,12.2-.5,16.3,0,1.1.1,5.3,1.6,7.9,1.9,2.7.3,3.7-1.9,4.1-2.8.4-.9,0-3.2-1.6-4.2-2-1.2-9.3-2.6-10.4-2.8-6.3-.8-10.6-.7-17.1,0-9.2,1-17.3,3.6-23.1,7.6-5.9,3.9-10,9.5-10,16.2v3.4c0,6.6,5.3,11.9,11.8,11.9h26.6c2.2,0,4.1-1.6,4.1-3.8s-1.9-4.1-4.1-4.1h-26.6c-2.2,0-3.9-1.8-3.9-4v-3.4c0-3.1,1.9-6.5,6.5-9.6,4.6-3.1,11.3-5.4,19.6-6.3Z"/>
  <path class="cls-7" d="M107.3,465.2c-2.2-2.2-2.2-5.9,0-8.1l25.9-26.1c2.2-2.3,5.9-2.3,8.1,0,2.2,2.2,2.2,5.9,0,8.1l-25.9,26.1c-2.2,2.2-5.9,2.2-8.1,0Z"/>
  <path class="cls-7" d="M95.9,445.6c2.2-2.2,5.9-2.2,8.1,0l11.5,11.5c2.2,2.2,2.2,5.9,0,8.1-2.2,2.3-5.9,2.3-8.1,0l-11.5-11.5c-2.2-2.2-2.2-5.9,0-8.1Z"/>
  <path class="cls-9" d="M94.9,173.3c9.7,0,17.6-8.1,17.6-18.2s-7.9-18.2-17.6-18.2-17.6,8.1-17.6,18.2,7.9,18.2,17.6,18.2ZM94.9,166.2c5.5,0,10.4-4.7,10.4-11s-4.9-11-10.4-11-10.4,4.7-10.4,11,4.9,11,10.4,11Z"/>
  <path class="cls-9" d="M142,201.7c0,12.9-10.1,23.3-22.6,23.3s-22.6-10.4-22.6-23.3,10.1-23.3,22.6-23.3,22.6,10.4,22.6,23.3ZM116.1,202.4c0-1.8,1.4-3.2,3.2-3.2s3.2,1.4,3.2,3.2v10.5c0,1.8-1.4,3.2-3.2,3.2s-3.2-1.4-3.2-3.2v-10.5ZM119.4,196.3c1.8,0,3.2-1.5,3.2-3.3s-1.4-3.3-3.2-3.3-3.2,1.5-3.2,3.3,1.4,3.3,3.2,3.3Z"/>
  <path class="cls-7" d="M81,184.8c5.6-.6,9.5-.7,14.5,0,2,.3,3.8-1.1,4-3.1.3-2-1.1-3.8-3.1-4-5.8-.8-10.3-.6-16.2,0-8.4.9-15.8,3.3-21.1,6.9-5.3,3.6-9.2,8.6-9.2,14.7v3.1c0,5.9,4.8,10.8,10.8,10.8h30.9c2,0,3.6-1.6,3.6-3.6s-1.6-3.6-3.6-3.6h-30.9c-2,0-3.6-1.6-3.6-3.6v-3.1c0-2.8,1.7-5.9,6-8.7,4.2-2.8,10.3-4.9,17.9-5.7Z"/>
</svg>