<?xml version="1.0" encoding="UTF-8"?>
<svg xmlns="http://www.w3.org/2000/svg" version="1.1" viewBox="0 0 1851.2 1154.7">
  <defs>
    <style>
      .cls-1 {
        fill: #60a51e;
      }

      .cls-2, .cls-3 {
        isolation: isolate;
      }

      .cls-3 {
        fill: #f15a24;
        mix-blend-mode: overlay;
      }

      .cls-4 {
        fill: #528c15;
      }

      .cls-5 {
        stroke-width: 8px;
      }

      .cls-5, .cls-6 {
        fill: none;
        stroke: #000;
        stroke-miterlimit: 10;
      }

      .cls-6 {
        stroke-width: 5px;
      }
    </style>
  </defs>
  <!-- Generator: Adobe Illustrator 28.6.0, SVG Export Plug-In . SVG Version: 1.2.0 Build 709)  -->
  <g>
    <g id="Layer_1">
      <g class="cls-2">
        <g id="Layer_2">
          <g>
            <g>
              <path class="cls-1" d="M454.1,415.9c2.8.4,3.8.5,7.1,3.3,5.8,4.3,12,10.2,16.6,17.2,4.7,7,7.7,15.1,8,23.4,0,4.2-.4,8.4-1.7,12.7-1.3,4.3-3.4,8.6-6.3,12.8-5.8,8.6-14.9,17.1-27.3,26.3-.9.6-5.1,3-7,3.2-23-2.5-46.4-1.9-68.9,1.7-22.5,3.8-44.1,10.5-64.1,20.6l-5.7,2.9-5.6,3.1c-1.9,1-3.7,2.2-5.5,3.3l-2.7,1.7-2.7,1.8c-7.1,4.7-14,9.7-20.5,15.2-13,11-24.8,23.4-35.1,37.2-10.2,13.8-19,28.8-26,44.6s-12.4,32.5-15.8,49.2c-3.4,16.8-4.6,33.3-3.7,50.2.9,16.9,3.8,33.9,8.6,50.7,9.5,33.6,26.4,65.9,48.4,94.6,44,57.4,108.2,100.4,178.1,116.2,17.4,4,35.2,6.4,53,7.2s35.7,0,53.5-2.7c35.5-5.1,70.2-16.7,102.1-33.9,31.9-17.2,61-39.9,85.3-66.7,24.3-26.7,43.9-57.5,56.5-90.4,6.3-16.4,10.9-33.2,13.6-50.4,2.7-17.1,3.4-34.6,2.5-52.2-2-35.1-11.1-70.6-25.8-104.3-7.3-16.8-16-33.3-25.8-48.8-2.4-3.9-5-7.7-7.5-11.3-1.3-1.8-2.6-3.7-3.9-5.5-1.3-1.8-2.8-3.6-4.1-5.3l-4.1-5.3-2.1-2.7-2.2-2.6-4.4-5.1-2.2-2.6c-.7-.9-1.4-1.7-2.2-2.5l-9.3-9.8-9.8-9.4c-.8-.8-1.7-1.5-2.5-2.3l-2.6-2.2-5.1-4.5c-1.7-1.5-3.5-2.9-5.3-4.3l-5.3-4.3c-1.7-1.5-3.6-2.7-5.5-4.1l-5.5-4.1c-3.7-2.6-7.5-5.2-11.3-7.8l-5.8-3.7c-1.9-1.2-3.8-2.5-5.8-3.6-4-2.3-7.9-4.7-12-6.8-2-1.1-4-2.2-6.1-3.3l-5-2.5-2.4-1.2-2.4-1.2-4.8-2.3-4.9-2.2c-1.6-.7-3.3-1.5-5-2.2s-3.3-1.4-5-2.2c-1.7-.7-3.5-1.5-5.2-2.1l-5-1.9c-13.2-5.2-26.7-9.7-40.4-13.2,0,0-1.9-.7-5.6-1.9-1.8-.6-4.1-1.3-6.7-2.2-2.6-.8-5.7-1.6-9-2.6-6.8-1.9-15-4-24.4-6.1-9.5-2-20.1-4-31.8-5.6-11.7-1.7-24.4-3-38.1-4.2-1.7-.2-3.5-.3-5.2-.5-1.7-.1-3.3-.3-5-.4-3.3-.3-6.7-.5-10.1-.8s-6.8-.4-10.2-.6c-3.4-.2-6.8-.4-10.3-.5-3.4,0-6.9-.2-10.3-.3h-10.4c-6.9-.1-13.8.1-20.6.3-13.6.5-27.1,1.1-39.9,2.3-21.6,2.3-39.6,5-54.3,7.2s-26.2,3.8-34.9,4.5c-2.2.2-4.2.3-6,.3h-5c-3-.1-5.3-.5-7-1.2-3.4-1.3-4.3-3.6-3.1-6.7,2.5-6.2,13.6-16.2,31.3-26.9,2.2-1.3,4.5-2.7,6.9-4.1s4.9-2.7,7.5-4.1c5.2-2.8,10.8-5.5,16.7-8.2,11.8-5.3,24.9-10.7,38.9-15.3-.8,0-.4-.2,1-.8,1.4-.5,3.8-1.5,7.1-2.4,3.3-1,7.5-2.2,12.4-3.7,5-1.3,10.7-2.8,17-4.3,3.2-.7,6.5-1.4,10-2.2,1.7-.4,3.5-.8,5.3-1.2,1.8-.4,3.7-.7,5.5-1,3.8-.7,7.6-1.4,11.6-2.1,4-.6,8.1-1.2,12.2-1.9,2.1-.3,4.2-.7,6.3-.9,2.1-.3,4.3-.5,6.4-.8,2.2-.3,4.4-.5,6.5-.8,2.2-.3,4.4-.6,6.6-.7,4.5-.4,9-.8,13.5-1.2l3.4-.3,3.3-.2c2.2-.2,4.4-.3,6.5-.5,17.7-1.2,36.2-1.9,53.9-1.5,17.7.3,34.4,1.6,48.8,3.4s26.4,4,34.7,5.7c4.2.9,7.5,1.6,9.7,2.1,1.1.2,2,.4,2.6.6.6.1.9.2.9.2l12.8,4c4.2,1.4,8.5,2.9,12.7,4.4,4.3,1.4,8.4,3.2,12.5,4.8l6.2,2.5c2.1.8,4,1.6,5.9,2.5,2,.8,4,1.7,6,2.6s4,1.8,6,2.7l6,2.8,6,2.9c2,1,4,1.9,6,3l5.5,2.8c2.6,1.3,5.1,2.7,7.6,4.1s5.1,2.7,7.6,4.2l7.5,4.4,3.7,2.2,3.7,2.3,7.3,4.6c19.5,12.6,38,26.7,55.3,42.5,17.3,15.7,33.3,33,47.7,51.4l5.4,7c1.8,2.3,3.6,4.7,5.3,7.1,3.4,4.8,6.7,9.7,9.9,14.6,6.3,9.8,12.2,19.7,17.7,29.8,5.5,10.1,10.6,20.4,15.4,30.9,4.8,10.5,9.1,21.3,13.1,32.2l2.9,8.2,2.7,8.3c.9,2.8,1.7,5.6,2.5,8.4.8,2.8,1.7,5.6,2.4,8.4l2.2,8.5c.8,2.8,1.3,5.7,2,8.6,1.4,5.7,2.4,11.5,3.5,17.3,4.1,23.3,6.1,47.2,5.7,71.1-.6,24-3.6,48.1-9.1,71.5-5.5,23.5-13.5,46.2-23.5,67.7-20,43.2-47.9,81.8-81.1,114.6-33.2,32.9-71.7,60.1-113.8,80.4-42.1,20.3-87.9,33.5-134.8,38.2-46.9,4.7-94.8.7-140.3-11.5-45.5-12.3-88.4-32.8-126.6-59.4-38.3-26.7-72.1-59.5-99.7-97.3-13.8-18.9-26-39.1-36.4-60.3-10.4-21.3-18.8-43.6-24.9-66.9-6.1-23.3-9.8-47.5-10.5-72.1v-9.2c0-3.1-.2-6.2,0-9.3l.5-9.3.3-4.6c0-1.5.3-3.1.4-4.6,1.2-12.3,3.1-24.4,5.7-36.3,5.1-23.8,12.9-46.7,22.9-68.6,10.1-21.9,22.5-42.8,37.1-62.2,14.6-19.4,31.6-37.1,50.3-52.8,2.4-1.9,4.7-3.9,7.1-5.8l7.3-5.6,7.5-5.3c1.2-.9,2.5-1.7,3.8-2.6l3.8-2.5c1.3-.8,2.5-1.7,3.8-2.5l3.9-2.4c2.6-1.6,5.2-3.2,7.9-4.7l8-4.5,8.1-4.2c29.2-14.7,60.6-24.5,92.4-29.8,31.9-5.2,64-5.9,95.6-2.5l.6-.2Z"/>
              <path class="cls-4" d="M1003.8,244.5c.7-.8,1-1.1,3.7-.7,17.1,1.4,54.1,13.5,72,59,.3.8,1.2,4.2.9,5.3-3.7,4.4-271.1,326.2-271.1,326.2,0,0-51.4,46-93.6,73.1-68.1,48.9-64.3,9.9-41.3-36.3-5,2.7,62.3-104.5,62.3-104.5,0,0,263.3-317.4,267-321.9v-.2Z"/>
              <path class="cls-1" d="M699,323.9c-1.8-1.6-2.5-2.2-3.4-6.1-3.9-12.5-6.1-30.8,1.2-45.7,7.3-15,24-26.7,57.7-26.4,1.2,0,6.5.7,8.5,1.9,41.9,35.2,84.1,69.9,126.7,104.3,5.6,4.7,11.3,9.4,17,14,23.8,19.1,47.6,38,71.6,56.9,0,0,7,6.3,18.7,17,11.7,10.6,28.1,25.6,46.9,42.8,37.6,34.5,85.1,78.1,123.2,115.6,33,30.9,53.6,52.3,64.2,66.4,10.6,14.1,11.2,20.8,4.6,22s-20.5-3.3-38.9-11.5c-18.3-8.3-41.1-20.3-65.4-34.6,4.1,4.4-52.7-31.5-110-69.6-14.3-9.5-28.6-19.1-42.1-28.2-13.5-9.1-26-17.7-36.8-25-21.5-14.8-36-24.8-36-24.8l-31.2-24.6-31-24.8c-5.8-4.6-11.6-9.3-17.3-14-43.1-34.7-85.8-69.9-128.2-105.5h0Z"/>
              <path class="cls-1" d="M1198.1,318.9c-1.7-1.6-2.3-2.2-2.9-6-2.9-12.4-4.4-30.3,3.3-45.2,3.8-7.4,9.9-14,19.3-18.5,4.7-2.3,10.3-4,16.8-5,3.3-.5,6.8-.9,10.6-1,3.8-.1,7.8,0,12.1.3,1.3,0,6.7,1.2,8.7,2.5,41.9,38.9,81.1,80.7,117.5,124.9,31.7,38.4,60.8,78.7,87.9,120.5l1.6,2.5,1.6,2.5,3.2,5.1,6.4,10.1c4.3,6.7,8.3,13.6,12.4,20.5l6.1,10.3c2,3.4,4.1,6.8,6,10.4l11.6,20.9s.3.6.8,1.6c.5,1.1,1.3,2.6,2.2,4.7,1.8,4.2,4.5,10.2,7.8,17.8,1.6,3.8,3.5,7.9,5.4,12.5,1.8,4.6,3.8,9.4,5.9,14.6,1,2.6,2.1,5.3,3.2,8s2.2,5.5,3.3,8.4c2.1,5.8,4.3,11.8,6.6,18.1,1.1,3.1,2.3,6.3,3.4,9.5s2.2,6.5,3.3,9.9c1.1,3.3,2.2,6.7,3.3,10.1,1.1,3.4,2.3,6.8,3.3,10.3,2.1,7,4.2,14,6.3,21.2,1.1,3.6,2,7.2,3,10.8s1.9,7.3,2.9,10.9c7.6,29.1,13.9,58.8,18,85.8,3.9,22.8,6.3,41.7,7.4,57.1.3,3.9.5,7.5.7,10.9s.2,6.7.2,9.7c0,6,0,11.2-.5,15.6-1.5,17.7-5.7,22.9-11.4,19.3-5.7-3.6-12.9-16.1-21.3-34-8.5-17.8-18.2-41-28.9-66.2.2,1.4-1.2-1.3-3.7-7.1-1.3-2.9-2.8-6.6-4.6-11-1.8-4.3-4-9.3-6.3-14.8-1.2-2.7-2.4-5.6-3.6-8.6-1.3-3-2.7-6.1-4.1-9.2-2.8-6.4-5.7-13.1-9-20.1-1.6-3.5-3.2-7-4.9-10.6-1.7-3.6-3.3-7.2-5.1-10.9-3.6-7.3-7.1-14.7-10.8-22.1-14.7-29.6-31.2-58.6-43.9-80.1-3.2-5.3-6.2-10.2-8.9-14.6-1.3-2.2-2.6-4.2-3.7-6.1-1.2-1.9-2.3-3.6-3.3-5.1-4-6.2-6.2-9.7-6.2-9.7l-4.6-8.3c-.8-1.4-1.5-2.8-2.3-4.1l-2.4-4.1-9.7-16.3c-1.6-2.7-3.2-5.5-4.9-8.1l-5-8-5-8c-1.7-2.7-3.3-5.4-5.1-8-25-38.5-52-75.7-81.3-111-33.6-40.8-69.9-79.3-108.6-115.3v-.2Z"/>
              <path class="cls-1" d="M1146,243.3c-1.2,1.6-1.6,2.2-5,3.1-5.4,1.9-12.3,3.7-19.9,4.7-7.5,1-15.8,1.2-23.8-.8-4.1-1-8-2.5-11.9-4.9-3.8-2.3-7.5-5.4-10.7-9.6-6.5-8.3-11.6-20.7-12.4-39.3,0-1.4.5-7.4,1.7-9.8,18.4-26.7,41-50.6,66.4-70.7,12.7-10,26.1-19.1,39.9-27.1,6.9-4.1,14-7.8,21.1-11.4,7.2-3.5,14.4-6.8,21.7-9.8,8.8-3.7,17.8-7,26.9-10s18.2-5.6,27.5-7.9c9.3-2.3,18.7-4.2,28.2-5.8,4.8-.8,9.6-1.5,14.6-2.1s5.1-.6,7.7-.8l2-.2h1.8c0,0,3.7-.3,3.7-.3,19.5-1.1,39.1-.5,58.5,1.8,19.4,2.4,38.5,6.5,57.1,12.1,9.2,2.9,18.4,6,27.3,9.6,4.5,1.7,8.9,3.7,13.3,5.5l6.5,3,3.3,1.5,3.2,1.6c8.6,4.2,17,8.7,25.1,13.5,8.2,4.8,16.2,9.8,23.9,15.1,7.8,5.3,15.3,10.8,22.7,16.6,7.3,5.7,14.5,11.7,21.2,17.6l2.4,2.1,1.3,1.1,1.3,1.2,5.3,4.8c3.5,3.1,6.9,6.5,10.3,9.8,6.8,6.7,13.2,13.6,19.5,20.8,12.5,14.3,24,29.5,34.2,45.5,10.2,15.9,19.3,32.6,27.3,49.6,15.8,34.2,26.8,70.1,33.6,106.4,1.7,9.1,3.1,18.2,4.3,27.2.6,4.5,1.1,9,1.6,13.3.5,4.6,1,9.3,1.3,13.9,1.5,18.6,1.8,37.1,1.1,55.6-1.5,37-7.3,73.9-17.6,109.8-9.5,33.1-23,65.3-40.1,95.3,0,0-.4.6-1.1,1.6-.7,1.1-1.7,2.7-3.1,4.7-2.8,4-6.8,9.9-12.2,17-10.7,14.2-26.8,33.3-47.5,52.8-10.5,9.6-21.9,19.4-34.4,28.7-12.5,9.2-25.7,18-39.5,25.9-27.5,15.9-56.9,28-83.9,35.9-11.4,3.6-21.9,6.4-31.5,8.5s-18.3,3.6-26.2,4.5c-15.7,2-27.9,2-36.8,1.3-9-.8-14.7-2.5-17.7-4.5-3-2.1-3.3-4.5-1.4-7.3,3.8-5.5,16.2-12.2,33.2-20.9s38.7-19.7,61.1-33.1c-1.4.3,1.1-1.3,6.2-4.5,1.3-.8,2.7-1.7,4.4-2.7,1.6-1,3.3-2.1,5.2-3.3.9-.6,1.9-1.2,2.9-1.8,1-.7,2-1.3,3.1-2,2.1-1.4,4.4-2.9,6.7-4.4,9.4-6.3,20.1-14.2,31.2-23.3s22.4-19.5,32.9-30.6c10.6-11.1,20.4-22.9,28.9-34.4,4.1-5.9,8.2-11.5,11.7-17,3.7-5.4,6.8-10.9,9.7-15.7,2.8-5,5.4-9.5,7.5-13.7,1.1-2.1,2.1-4,3-5.8s1.7-3.5,2.4-5c1.4-3,2.6-5.3,3.3-7,.7-1.6,1.1-2.5,1.1-2.5,2.7-5.1,5.1-10.3,7.6-15.4l3.5-7.9c1.1-2.6,2.2-5.3,3.3-8,4.2-10.7,8-21.6,11.2-32.6,8-27.9,12.6-57,13.8-86.3.6-14.6.3-29.3-.8-43.8-.3-3.6-.6-7.2-1-10.8-.4-3.9-.9-7.7-1.4-11.4-1-7.4-2.1-14.7-3.5-21.9-5.4-28.9-14.1-56.8-26.2-82.9-12.1-26-27.5-50.2-46.2-71.5-4.7-5.3-9.5-10.5-14.6-15.5-2.6-2.5-5-5-7.7-7.4l-3.9-3.6-1-.9c-.3-.3-.6-.6-1-.9l-2.3-2c-5.8-5.1-11.3-9.7-17.1-14.2-5.7-4.5-11.5-8.7-17.5-12.8-23.7-16.2-49.3-28.8-75.7-36.8-13.2-3.9-26.6-6.9-40.2-8.5-13.5-1.6-27.2-2-40.8-1.2h-2.6c0,.1-1.3.2-1.3.2h-1.1c-1.5.2-3,.4-4.7.6-3.2.4-6.6.9-10,1.4-6.8,1.1-13.7,2.6-20.5,4.2-13.7,3.4-27.2,7.8-40.1,13.2-5.4,2.2-10.6,4.7-15.8,7.2-5.1,2.6-10.3,5.3-15.2,8.2-9.9,5.8-19.4,12.2-28.2,19.2-8.9,7-17.2,14.7-24.9,22.9-7.7,8.2-14.8,17-21.3,26.3h.6Z"/>
              <path class="cls-3" d="M615.1,79.3c1.5,9.5,2.3,19.2,2.3,29.1,0,88.8-63.1,162.9-147,179.9,1.1-95.2,60.8-176.3,144.7-209h0Z"/>
            </g>
            <path class="cls-6" d="M1160.4,264"/>
            <path class="cls-5" d="M94,496"/>
            <path class="cls-5" d="M412.1,378.9"/>
          </g>
        </g>
      </g>
    </g>
  </g>
</svg>