<svg width="612" height="71" viewBox="0 0 612 71" fill="none" xmlns="http://www.w3.org/2000/svg">
<rect width="612" height="71" rx="16" fill="#EB0910" fill-opacity="0.06"/>
<rect x="0.5" y="0.5" width="611" height="70" rx="15.5" stroke="#EB0910" stroke-opacity="0.04"/>
<path d="M75.32 41C74.968 41 74.696 40.9093 74.504 40.728C74.3227 40.536 74.232 40.264 74.232 39.912V30.808C74.232 30.456 74.3227 30.1893 74.504 30.008C74.696 29.816 74.968 29.72 75.32 29.72H81.032C81.2987 29.72 81.5013 29.7893 81.64 29.928C81.7893 30.0667 81.864 30.264 81.864 30.52C81.864 30.7867 81.7893 30.9947 81.64 31.144C81.5013 31.2827 81.2987 31.352 81.032 31.352H76.2V34.456H80.68C80.9573 34.456 81.1653 34.5253 81.304 34.664C81.4427 34.8027 81.512 35.0053 81.512 35.272C81.512 35.5387 81.4427 35.7413 81.304 35.88C81.1653 36.0187 80.9573 36.088 80.68 36.088H76.2V39.368H81.032C81.2987 39.368 81.5013 39.4373 81.64 39.576C81.7893 39.7147 81.864 39.9173 81.864 40.184C81.864 40.4507 81.7893 40.6533 81.64 40.792C81.5013 40.9307 81.2987 41 81.032 41H75.32ZM84.6109 41.128C84.2909 41.128 84.0455 41.0427 83.8749 40.872C83.7042 40.6907 83.6189 40.4347 83.6189 40.104V34.056C83.6189 33.7253 83.7042 33.4747 83.8749 33.304C84.0455 33.1333 84.2855 33.048 84.5949 33.048C84.9042 33.048 85.1442 33.1333 85.3149 33.304C85.4855 33.4747 85.5709 33.7253 85.5709 34.056V35.224L85.3949 34.744C85.6082 34.2107 85.9389 33.7893 86.3869 33.48C86.8349 33.1707 87.3682 33.016 87.9869 33.016C88.6162 33.016 89.1335 33.1653 89.5389 33.464C89.9442 33.7627 90.2269 34.2213 90.3869 34.84H90.1629C90.3762 34.2747 90.7282 33.832 91.2189 33.512C91.7095 33.1813 92.2749 33.016 92.9149 33.016C93.5122 33.016 94.0029 33.1333 94.3869 33.368C94.7815 33.6027 95.0749 33.96 95.2669 34.44C95.4589 34.9093 95.5549 35.5067 95.5549 36.232V40.104C95.5549 40.4347 95.4642 40.6907 95.2829 40.872C95.1122 41.0427 94.8669 41.128 94.5469 41.128C94.2269 41.128 93.9815 41.0427 93.8109 40.872C93.6402 40.6907 93.5549 40.4347 93.5549 40.104V36.312C93.5549 35.7147 93.4535 35.2773 93.2509 35C93.0589 34.7227 92.7282 34.584 92.2589 34.584C91.7362 34.584 91.3255 34.7707 91.0269 35.144C90.7282 35.5067 90.5789 36.0133 90.5789 36.664V40.104C90.5789 40.4347 90.4935 40.6907 90.3229 40.872C90.1522 41.0427 89.9069 41.128 89.5869 41.128C89.2669 41.128 89.0162 41.0427 88.8349 40.872C88.6642 40.6907 88.5789 40.4347 88.5789 40.104V36.312C88.5789 35.7147 88.4775 35.2773 88.2749 35C88.0829 34.7227 87.7575 34.584 87.2989 34.584C86.7762 34.584 86.3655 34.7707 86.0669 35.144C85.7682 35.5067 85.6189 36.0133 85.6189 36.664V40.104C85.6189 40.7867 85.2829 41.128 84.6109 41.128ZM98.6101 44.008C98.2901 44.008 98.0448 43.9227 97.8741 43.752C97.7035 43.5813 97.6181 43.3307 97.6181 43V34.056C97.6181 33.7253 97.7035 33.4747 97.8741 33.304C98.0448 33.1333 98.2848 33.048 98.5941 33.048C98.9141 33.048 99.1595 33.1333 99.3301 33.304C99.5008 33.4747 99.5861 33.7253 99.5861 34.056V35.304L99.4101 34.824C99.5701 34.28 99.8955 33.8427 100.386 33.512C100.887 33.1813 101.469 33.016 102.13 33.016C102.813 33.016 103.41 33.1813 103.922 33.512C104.445 33.8427 104.85 34.312 105.138 34.92C105.426 35.5173 105.57 36.2373 105.57 37.08C105.57 37.912 105.426 38.6373 105.138 39.256C104.85 39.864 104.45 40.3333 103.938 40.664C103.426 40.9947 102.823 41.16 102.13 41.16C101.479 41.16 100.909 41 100.418 40.68C99.9275 40.3493 99.5968 39.9227 99.4261 39.4H99.6181V43C99.6181 43.3307 99.5275 43.5813 99.3461 43.752C99.1755 43.9227 98.9301 44.008 98.6101 44.008ZM101.57 39.64C101.965 39.64 102.311 39.544 102.61 39.352C102.909 39.16 103.138 38.8773 103.298 38.504C103.469 38.12 103.554 37.6453 103.554 37.08C103.554 36.2267 103.373 35.592 103.01 35.176C102.647 34.7493 102.167 34.536 101.57 34.536C101.175 34.536 100.829 34.632 100.53 34.824C100.231 35.0053 99.9968 35.288 99.8261 35.672C99.6661 36.0453 99.5861 36.5147 99.5861 37.08C99.5861 37.9227 99.7675 38.5627 100.13 39C100.493 39.4267 100.973 39.64 101.57 39.64ZM109.884 41.16C108.999 41.16 108.332 40.9093 107.884 40.408C107.436 39.896 107.212 39.1493 107.212 38.168V30.6C107.212 30.2693 107.297 30.0187 107.468 29.848C107.639 29.6773 107.884 29.592 108.204 29.592C108.524 29.592 108.769 29.6773 108.94 29.848C109.121 30.0187 109.212 30.2693 109.212 30.6V38.072C109.212 38.5627 109.313 38.9253 109.516 39.16C109.729 39.3947 110.028 39.512 110.412 39.512C110.497 39.512 110.577 39.512 110.652 39.512C110.727 39.5013 110.801 39.4907 110.876 39.48C111.025 39.4587 111.127 39.5013 111.18 39.608C111.233 39.704 111.26 39.9067 111.26 40.216C111.26 40.4827 111.207 40.6907 111.1 40.84C110.993 40.9893 110.817 41.08 110.572 41.112C110.465 41.1227 110.353 41.1333 110.236 41.144C110.119 41.1547 110.001 41.16 109.884 41.16ZM115.811 41.16C115 41.16 114.296 40.9947 113.699 40.664C113.102 40.3333 112.638 39.864 112.307 39.256C111.976 38.6373 111.811 37.912 111.811 37.08C111.811 36.4507 111.902 35.8907 112.083 35.4C112.275 34.8987 112.547 34.472 112.899 34.12C113.251 33.7573 113.672 33.4853 114.163 33.304C114.654 33.112 115.203 33.016 115.811 33.016C116.622 33.016 117.326 33.1813 117.923 33.512C118.52 33.8427 118.984 34.312 119.315 34.92C119.646 35.528 119.811 36.248 119.811 37.08C119.811 37.7093 119.715 38.2747 119.523 38.776C119.342 39.2773 119.075 39.7093 118.723 40.072C118.371 40.424 117.95 40.696 117.459 40.888C116.968 41.0693 116.419 41.16 115.811 41.16ZM115.811 39.64C116.206 39.64 116.552 39.544 116.851 39.352C117.15 39.16 117.379 38.8773 117.539 38.504C117.71 38.12 117.795 37.6453 117.795 37.08C117.795 36.2267 117.614 35.592 117.251 35.176C116.888 34.7493 116.408 34.536 115.811 34.536C115.416 34.536 115.07 34.632 114.771 34.824C114.472 35.0053 114.238 35.288 114.067 35.672C113.907 36.0453 113.827 36.5147 113.827 37.08C113.827 37.9227 114.008 38.5627 114.371 39C114.734 39.4267 115.214 39.64 115.811 39.64ZM123.29 44.008C123.055 44.008 122.863 43.944 122.714 43.816C122.564 43.6987 122.474 43.5387 122.442 43.336C122.42 43.1333 122.458 42.92 122.554 42.696L123.642 40.28V41.112L120.73 34.376C120.634 34.1413 120.602 33.9227 120.634 33.72C120.666 33.5173 120.762 33.3573 120.922 33.24C121.092 33.112 121.322 33.048 121.61 33.048C121.855 33.048 122.052 33.1067 122.202 33.224C122.351 33.3307 122.484 33.5387 122.602 33.848L124.762 39.24H124.282L126.49 33.832C126.607 33.5333 126.746 33.3307 126.906 33.224C127.066 33.1067 127.279 33.048 127.546 33.048C127.78 33.048 127.967 33.112 128.106 33.24C128.244 33.3573 128.33 33.5173 128.362 33.72C128.394 33.912 128.356 34.1253 128.25 34.36L124.362 43.24C124.223 43.5387 124.074 43.7413 123.914 43.848C123.754 43.9547 123.546 44.008 123.29 44.008ZM133.427 41.16C132.542 41.16 131.779 40.9947 131.139 40.664C130.499 40.3333 130.003 39.864 129.651 39.256C129.31 38.648 129.139 37.928 129.139 37.096C129.139 36.2853 129.305 35.576 129.635 34.968C129.977 34.36 130.441 33.8853 131.027 33.544C131.625 33.192 132.302 33.016 133.059 33.016C133.614 33.016 134.11 33.1067 134.547 33.288C134.995 33.4693 135.374 33.7307 135.683 34.072C136.003 34.4133 136.243 34.8293 136.403 35.32C136.574 35.8 136.659 36.344 136.659 36.952C136.659 37.144 136.59 37.2933 136.451 37.4C136.323 37.496 136.137 37.544 135.891 37.544H130.755V36.392H135.251L134.995 36.632C134.995 36.1413 134.921 35.7307 134.771 35.4C134.633 35.0693 134.425 34.8187 134.147 34.648C133.881 34.4667 133.545 34.376 133.139 34.376C132.691 34.376 132.307 34.4827 131.987 34.696C131.678 34.8987 131.438 35.192 131.267 35.576C131.107 35.9493 131.027 36.3973 131.027 36.92V37.032C131.027 37.9067 131.23 38.5627 131.635 39C132.051 39.4267 132.659 39.64 133.459 39.64C133.737 39.64 134.046 39.608 134.387 39.544C134.739 39.4693 135.07 39.3467 135.379 39.176C135.603 39.048 135.801 38.9947 135.971 39.016C136.142 39.0267 136.275 39.0853 136.371 39.192C136.478 39.2987 136.542 39.432 136.563 39.592C136.585 39.7413 136.553 39.896 136.467 40.056C136.393 40.216 136.259 40.3547 136.067 40.472C135.694 40.7067 135.262 40.8827 134.771 41C134.291 41.1067 133.843 41.16 133.427 41.16ZM142.099 41.16C141.214 41.16 140.451 40.9947 139.811 40.664C139.171 40.3333 138.675 39.864 138.323 39.256C137.982 38.648 137.811 37.928 137.811 37.096C137.811 36.2853 137.976 35.576 138.307 34.968C138.648 34.36 139.112 33.8853 139.699 33.544C140.296 33.192 140.974 33.016 141.731 33.016C142.286 33.016 142.782 33.1067 143.219 33.288C143.667 33.4693 144.046 33.7307 144.355 34.072C144.675 34.4133 144.915 34.8293 145.075 35.32C145.246 35.8 145.331 36.344 145.331 36.952C145.331 37.144 145.262 37.2933 145.123 37.4C144.995 37.496 144.808 37.544 144.563 37.544H139.427V36.392H143.923L143.667 36.632C143.667 36.1413 143.592 35.7307 143.443 35.4C143.304 35.0693 143.096 34.8187 142.819 34.648C142.552 34.4667 142.216 34.376 141.811 34.376C141.363 34.376 140.979 34.4827 140.659 34.696C140.35 34.8987 140.11 35.192 139.939 35.576C139.779 35.9493 139.699 36.3973 139.699 36.92V37.032C139.699 37.9067 139.902 38.5627 140.307 39C140.723 39.4267 141.331 39.64 142.131 39.64C142.408 39.64 142.718 39.608 143.059 39.544C143.411 39.4693 143.742 39.3467 144.051 39.176C144.275 39.048 144.472 38.9947 144.643 39.016C144.814 39.0267 144.947 39.0853 145.043 39.192C145.15 39.2987 145.214 39.432 145.235 39.592C145.256 39.7413 145.224 39.896 145.139 40.056C145.064 40.216 144.931 40.3547 144.739 40.472C144.366 40.7067 143.934 40.8827 143.443 41C142.963 41.1067 142.515 41.16 142.099 41.16ZM154.283 41.128C154.016 41.128 153.787 41.064 153.595 40.936C153.403 40.7973 153.248 40.584 153.131 40.296L150.811 34.376C150.715 34.12 150.683 33.896 150.715 33.704C150.757 33.5013 150.859 33.3413 151.019 33.224C151.179 33.1067 151.392 33.048 151.659 33.048C151.893 33.048 152.085 33.1067 152.235 33.224C152.384 33.3307 152.512 33.5387 152.619 33.848L154.555 39.176H154.187L156.187 33.72C156.272 33.4853 156.384 33.3147 156.523 33.208C156.672 33.1013 156.864 33.048 157.099 33.048C157.333 33.048 157.525 33.1067 157.675 33.224C157.824 33.3307 157.936 33.496 158.011 33.72L159.979 39.176H159.643L161.595 33.8C161.701 33.512 161.835 33.3147 161.995 33.208C162.165 33.1013 162.352 33.048 162.555 33.048C162.811 33.048 163.008 33.112 163.147 33.24C163.285 33.368 163.365 33.5333 163.387 33.736C163.408 33.928 163.371 34.1413 163.275 34.376L160.971 40.296C160.864 40.5733 160.709 40.7813 160.507 40.92C160.315 41.0587 160.085 41.128 159.819 41.128C159.552 41.128 159.317 41.0587 159.115 40.92C158.923 40.7813 158.773 40.5733 158.667 40.296L156.571 34.744H157.483L155.435 40.28C155.328 40.568 155.179 40.7813 154.987 40.92C154.795 41.0587 154.56 41.128 154.283 41.128ZM165.891 41.112C165.571 41.112 165.326 41.016 165.155 40.824C164.985 40.632 164.899 40.3653 164.899 40.024V34.152C164.899 33.8 164.985 33.5333 165.155 33.352C165.326 33.16 165.571 33.064 165.891 33.064C166.211 33.064 166.457 33.16 166.627 33.352C166.809 33.5333 166.899 33.8 166.899 34.152V40.024C166.899 40.3653 166.814 40.632 166.643 40.824C166.473 41.016 166.222 41.112 165.891 41.112ZM165.891 31.576C165.518 31.576 165.225 31.4853 165.011 31.304C164.809 31.112 164.707 30.8507 164.707 30.52C164.707 30.1787 164.809 29.9173 165.011 29.736C165.225 29.5547 165.518 29.464 165.891 29.464C166.275 29.464 166.569 29.5547 166.771 29.736C166.974 29.9173 167.075 30.1787 167.075 30.52C167.075 30.8507 166.974 31.112 166.771 31.304C166.569 31.4853 166.275 31.576 165.891 31.576ZM171.65 41.16C170.764 41.16 170.098 40.9093 169.65 40.408C169.202 39.896 168.978 39.1493 168.978 38.168V30.6C168.978 30.2693 169.063 30.0187 169.234 29.848C169.404 29.6773 169.65 29.592 169.97 29.592C170.29 29.592 170.535 29.6773 170.706 29.848C170.887 30.0187 170.978 30.2693 170.978 30.6V38.072C170.978 38.5627 171.079 38.9253 171.282 39.16C171.495 39.3947 171.794 39.512 172.178 39.512C172.263 39.512 172.343 39.512 172.418 39.512C172.492 39.5013 172.567 39.4907 172.641 39.48C172.791 39.4587 172.892 39.5013 172.946 39.608C172.999 39.704 173.026 39.9067 173.026 40.216C173.026 40.4827 172.972 40.6907 172.866 40.84C172.759 40.9893 172.583 41.08 172.338 41.112C172.231 41.1227 172.119 41.1333 172.002 41.144C171.884 41.1547 171.767 41.16 171.65 41.16ZM176.759 41.16C175.874 41.16 175.207 40.9093 174.759 40.408C174.311 39.896 174.087 39.1493 174.087 38.168V30.6C174.087 30.2693 174.172 30.0187 174.343 29.848C174.514 29.6773 174.759 29.592 175.079 29.592C175.399 29.592 175.644 29.6773 175.815 29.848C175.996 30.0187 176.087 30.2693 176.087 30.6V38.072C176.087 38.5627 176.188 38.9253 176.391 39.16C176.604 39.3947 176.903 39.512 177.287 39.512C177.372 39.512 177.452 39.512 177.527 39.512C177.602 39.5013 177.676 39.4907 177.751 39.48C177.9 39.4587 178.002 39.5013 178.055 39.608C178.108 39.704 178.135 39.9067 178.135 40.216C178.135 40.4827 178.082 40.6907 177.975 40.84C177.868 40.9893 177.692 41.08 177.447 41.112C177.34 41.1227 177.228 41.1333 177.111 41.144C176.994 41.1547 176.876 41.16 176.759 41.16ZM188.052 41.16C187.391 41.16 186.809 40.9947 186.308 40.664C185.817 40.3333 185.492 39.8907 185.332 39.336L185.508 38.936V40.104C185.508 40.4347 185.423 40.6907 185.252 40.872C185.081 41.0427 184.841 41.128 184.532 41.128C184.212 41.128 183.967 41.0427 183.796 40.872C183.625 40.6907 183.54 40.4347 183.54 40.104V30.6C183.54 30.2693 183.625 30.0187 183.796 29.848C183.967 29.6773 184.212 29.592 184.532 29.592C184.852 29.592 185.097 29.6773 185.268 29.848C185.449 30.0187 185.54 30.2693 185.54 30.6V34.76H185.348C185.519 34.2373 185.849 33.816 186.34 33.496C186.831 33.176 187.401 33.016 188.052 33.016C188.745 33.016 189.348 33.1813 189.86 33.512C190.372 33.8427 190.772 34.312 191.06 34.92C191.348 35.5173 191.492 36.2373 191.492 37.08C191.492 37.912 191.348 38.6373 191.06 39.256C190.772 39.864 190.367 40.3333 189.844 40.664C189.332 40.9947 188.735 41.16 188.052 41.16ZM187.492 39.64C187.887 39.64 188.233 39.544 188.532 39.352C188.831 39.16 189.06 38.8773 189.22 38.504C189.391 38.12 189.476 37.6453 189.476 37.08C189.476 36.2267 189.295 35.592 188.932 35.176C188.569 34.7493 188.089 34.536 187.492 34.536C187.097 34.536 186.751 34.632 186.452 34.824C186.153 35.0053 185.919 35.288 185.748 35.672C185.588 36.0453 185.508 36.5147 185.508 37.08C185.508 37.9227 185.689 38.5627 186.052 39C186.415 39.4267 186.895 39.64 187.492 39.64ZM196.99 41.16C196.104 41.16 195.342 40.9947 194.702 40.664C194.062 40.3333 193.566 39.864 193.214 39.256C192.872 38.648 192.702 37.928 192.702 37.096C192.702 36.2853 192.867 35.576 193.198 34.968C193.539 34.36 194.003 33.8853 194.59 33.544C195.187 33.192 195.864 33.016 196.622 33.016C197.176 33.016 197.672 33.1067 198.11 33.288C198.558 33.4693 198.936 33.7307 199.246 34.072C199.566 34.4133 199.806 34.8293 199.966 35.32C200.136 35.8 200.222 36.344 200.222 36.952C200.222 37.144 200.152 37.2933 200.014 37.4C199.886 37.496 199.699 37.544 199.454 37.544H194.318V36.392H198.814L198.558 36.632C198.558 36.1413 198.483 35.7307 198.334 35.4C198.195 35.0693 197.987 34.8187 197.71 34.648C197.443 34.4667 197.107 34.376 196.702 34.376C196.254 34.376 195.87 34.4827 195.55 34.696C195.24 34.8987 195 35.192 194.83 35.576C194.67 35.9493 194.59 36.3973 194.59 36.92V37.032C194.59 37.9067 194.792 38.5627 195.198 39C195.614 39.4267 196.222 39.64 197.022 39.64C197.299 39.64 197.608 39.608 197.95 39.544C198.302 39.4693 198.632 39.3467 198.942 39.176C199.166 39.048 199.363 38.9947 199.534 39.016C199.704 39.0267 199.838 39.0853 199.934 39.192C200.04 39.2987 200.104 39.432 200.126 39.592C200.147 39.7413 200.115 39.896 200.03 40.056C199.955 40.216 199.822 40.3547 199.63 40.472C199.256 40.7067 198.824 40.8827 198.334 41C197.854 41.1067 197.406 41.16 196.99 41.16ZM209.157 41.16C208.475 41.16 207.872 40.9947 207.349 40.664C206.837 40.3333 206.437 39.864 206.149 39.256C205.861 38.6373 205.717 37.912 205.717 37.08C205.717 36.2373 205.861 35.5173 206.149 34.92C206.437 34.312 206.837 33.8427 207.349 33.512C207.872 33.1813 208.475 33.016 209.157 33.016C209.808 33.016 210.373 33.176 210.853 33.496C211.344 33.816 211.675 34.2373 211.845 34.76H211.669V30.6C211.669 30.2693 211.755 30.0187 211.925 29.848C212.096 29.6773 212.341 29.592 212.661 29.592C212.981 29.592 213.227 29.6773 213.397 29.848C213.579 30.0187 213.669 30.2693 213.669 30.6V40.104C213.669 40.4347 213.584 40.6907 213.413 40.872C213.243 41.0427 212.997 41.128 212.677 41.128C212.357 41.128 212.112 41.0427 211.941 40.872C211.771 40.6907 211.685 40.4347 211.685 40.104V38.856L211.861 39.336C211.701 39.8907 211.376 40.3333 210.885 40.664C210.395 40.9947 209.819 41.16 209.157 41.16ZM209.717 39.64C210.112 39.64 210.459 39.544 210.757 39.352C211.056 39.16 211.285 38.8773 211.445 38.504C211.616 38.12 211.701 37.6453 211.701 37.08C211.701 36.2267 211.52 35.592 211.157 35.176C210.795 34.7493 210.315 34.536 209.717 34.536C209.323 34.536 208.976 34.632 208.677 34.824C208.379 35.0053 208.144 35.288 207.973 35.672C207.813 36.0453 207.733 36.5147 207.733 37.08C207.733 37.9227 207.915 38.5627 208.277 39C208.64 39.4267 209.12 39.64 209.717 39.64ZM219.599 41.16C218.714 41.16 217.951 40.9947 217.311 40.664C216.671 40.3333 216.175 39.864 215.823 39.256C215.482 38.648 215.311 37.928 215.311 37.096C215.311 36.2853 215.476 35.576 215.807 34.968C216.148 34.36 216.612 33.8853 217.199 33.544C217.796 33.192 218.474 33.016 219.231 33.016C219.786 33.016 220.282 33.1067 220.719 33.288C221.167 33.4693 221.546 33.7307 221.855 34.072C222.175 34.4133 222.415 34.8293 222.575 35.32C222.746 35.8 222.831 36.344 222.831 36.952C222.831 37.144 222.762 37.2933 222.623 37.4C222.495 37.496 222.308 37.544 222.063 37.544H216.927V36.392H221.423L221.167 36.632C221.167 36.1413 221.092 35.7307 220.943 35.4C220.804 35.0693 220.596 34.8187 220.319 34.648C220.052 34.4667 219.716 34.376 219.311 34.376C218.863 34.376 218.479 34.4827 218.159 34.696C217.85 34.8987 217.61 35.192 217.439 35.576C217.279 35.9493 217.199 36.3973 217.199 36.92V37.032C217.199 37.9067 217.402 38.5627 217.807 39C218.223 39.4267 218.831 39.64 219.631 39.64C219.908 39.64 220.218 39.608 220.559 39.544C220.911 39.4693 221.242 39.3467 221.551 39.176C221.775 39.048 221.972 38.9947 222.143 39.016C222.314 39.0267 222.447 39.0853 222.543 39.192C222.65 39.2987 222.714 39.432 222.735 39.592C222.756 39.7413 222.724 39.896 222.639 40.056C222.564 40.216 222.431 40.3547 222.239 40.472C221.866 40.7067 221.434 40.8827 220.943 41C220.463 41.1067 220.015 41.16 219.599 41.16ZM227.087 41.16C226.202 41.16 225.535 40.9093 225.087 40.408C224.639 39.896 224.415 39.1493 224.415 38.168V30.6C224.415 30.2693 224.5 30.0187 224.671 29.848C224.842 29.6773 225.087 29.592 225.407 29.592C225.727 29.592 225.972 29.6773 226.143 29.848C226.324 30.0187 226.415 30.2693 226.415 30.6V38.072C226.415 38.5627 226.516 38.9253 226.719 39.16C226.932 39.3947 227.231 39.512 227.615 39.512C227.7 39.512 227.78 39.512 227.855 39.512C227.93 39.5013 228.004 39.4907 228.079 39.48C228.228 39.4587 228.33 39.5013 228.383 39.608C228.436 39.704 228.463 39.9067 228.463 40.216C228.463 40.4827 228.41 40.6907 228.303 40.84C228.196 40.9893 228.02 41.08 227.775 41.112C227.668 41.1227 227.556 41.1333 227.439 41.144C227.322 41.1547 227.204 41.16 227.087 41.16ZM233.302 41.16C232.417 41.16 231.654 40.9947 231.014 40.664C230.374 40.3333 229.878 39.864 229.526 39.256C229.185 38.648 229.014 37.928 229.014 37.096C229.014 36.2853 229.18 35.576 229.51 34.968C229.852 34.36 230.316 33.8853 230.902 33.544C231.5 33.192 232.177 33.016 232.934 33.016C233.489 33.016 233.985 33.1067 234.422 33.288C234.87 33.4693 235.249 33.7307 235.558 34.072C235.878 34.4133 236.118 34.8293 236.278 35.32C236.449 35.8 236.534 36.344 236.534 36.952C236.534 37.144 236.465 37.2933 236.326 37.4C236.198 37.496 236.012 37.544 235.766 37.544H230.63V36.392H235.126L234.87 36.632C234.87 36.1413 234.796 35.7307 234.646 35.4C234.508 35.0693 234.3 34.8187 234.022 34.648C233.756 34.4667 233.42 34.376 233.014 34.376C232.566 34.376 232.182 34.4827 231.862 34.696C231.553 34.8987 231.313 35.192 231.142 35.576C230.982 35.9493 230.902 36.3973 230.902 36.92V37.032C230.902 37.9067 231.105 38.5627 231.51 39C231.926 39.4267 232.534 39.64 233.334 39.64C233.612 39.64 233.921 39.608 234.262 39.544C234.614 39.4693 234.945 39.3467 235.254 39.176C235.478 39.048 235.676 38.9947 235.846 39.016C236.017 39.0267 236.15 39.0853 236.246 39.192C236.353 39.2987 236.417 39.432 236.438 39.592C236.46 39.7413 236.428 39.896 236.342 40.056C236.268 40.216 236.134 40.3547 235.942 40.472C235.569 40.7067 235.137 40.8827 234.646 41C234.166 41.1067 233.718 41.16 233.302 41.16ZM241.671 41.16C240.978 41.16 240.396 41.0427 239.927 40.808C239.468 40.5733 239.127 40.232 238.903 39.784C238.679 39.3253 238.567 38.76 238.567 38.088V34.68H237.735C237.479 34.68 237.282 34.616 237.143 34.488C237.004 34.3493 236.935 34.1627 236.935 33.928C236.935 33.6827 237.004 33.496 237.143 33.368C237.282 33.24 237.479 33.176 237.735 33.176H238.567V31.72C238.567 31.3893 238.652 31.1387 238.823 30.968C239.004 30.7973 239.255 30.712 239.575 30.712C239.895 30.712 240.14 30.7973 240.311 30.968C240.482 31.1387 240.567 31.3893 240.567 31.72V33.176H242.263C242.519 33.176 242.716 33.24 242.855 33.368C242.994 33.496 243.063 33.6827 243.063 33.928C243.063 34.1627 242.994 34.3493 242.855 34.488C242.716 34.616 242.519 34.68 242.263 34.68H240.567V37.976C240.567 38.488 240.679 38.872 240.903 39.128C241.127 39.384 241.49 39.512 241.991 39.512C242.172 39.512 242.332 39.496 242.471 39.464C242.61 39.432 242.732 39.4107 242.839 39.4C242.967 39.3893 243.074 39.432 243.159 39.528C243.244 39.6133 243.287 39.7947 243.287 40.072C243.287 40.2853 243.25 40.4773 243.175 40.648C243.111 40.808 242.988 40.92 242.807 40.984C242.668 41.0267 242.487 41.064 242.263 41.096C242.039 41.1387 241.842 41.16 241.671 41.16ZM248.005 41.16C247.12 41.16 246.357 40.9947 245.717 40.664C245.077 40.3333 244.581 39.864 244.229 39.256C243.888 38.648 243.717 37.928 243.717 37.096C243.717 36.2853 243.883 35.576 244.213 34.968C244.555 34.36 245.019 33.8853 245.605 33.544C246.203 33.192 246.88 33.016 247.637 33.016C248.192 33.016 248.688 33.1067 249.125 33.288C249.573 33.4693 249.952 33.7307 250.261 34.072C250.581 34.4133 250.821 34.8293 250.981 35.32C251.152 35.8 251.237 36.344 251.237 36.952C251.237 37.144 251.168 37.2933 251.029 37.4C250.901 37.496 250.715 37.544 250.469 37.544H245.333V36.392H249.829L249.573 36.632C249.573 36.1413 249.499 35.7307 249.349 35.4C249.211 35.0693 249.003 34.8187 248.725 34.648C248.459 34.4667 248.123 34.376 247.717 34.376C247.269 34.376 246.885 34.4827 246.565 34.696C246.256 34.8987 246.016 35.192 245.845 35.576C245.685 35.9493 245.605 36.3973 245.605 36.92V37.032C245.605 37.9067 245.808 38.5627 246.213 39C246.629 39.4267 247.237 39.64 248.037 39.64C248.315 39.64 248.624 39.608 248.965 39.544C249.317 39.4693 249.648 39.3467 249.957 39.176C250.181 39.048 250.379 38.9947 250.549 39.016C250.72 39.0267 250.853 39.0853 250.949 39.192C251.056 39.2987 251.12 39.432 251.141 39.592C251.163 39.7413 251.131 39.896 251.045 40.056C250.971 40.216 250.837 40.3547 250.645 40.472C250.272 40.7067 249.84 40.8827 249.349 41C248.869 41.1067 248.421 41.16 248.005 41.16ZM255.829 41.16C255.147 41.16 254.544 40.9947 254.021 40.664C253.509 40.3333 253.109 39.864 252.821 39.256C252.533 38.6373 252.389 37.912 252.389 37.08C252.389 36.2373 252.533 35.5173 252.821 34.92C253.109 34.312 253.509 33.8427 254.021 33.512C254.544 33.1813 255.147 33.016 255.829 33.016C256.48 33.016 257.045 33.176 257.525 33.496C258.016 33.816 258.347 34.2373 258.517 34.76H258.341V30.6C258.341 30.2693 258.427 30.0187 258.597 29.848C258.768 29.6773 259.013 29.592 259.333 29.592C259.653 29.592 259.899 29.6773 260.069 29.848C260.251 30.0187 260.341 30.2693 260.341 30.6V40.104C260.341 40.4347 260.256 40.6907 260.085 40.872C259.915 41.0427 259.669 41.128 259.349 41.128C259.029 41.128 258.784 41.0427 258.613 40.872C258.443 40.6907 258.357 40.4347 258.357 40.104V38.856L258.533 39.336C258.373 39.8907 258.048 40.3333 257.557 40.664C257.067 40.9947 256.491 41.16 255.829 41.16ZM256.389 39.64C256.784 39.64 257.131 39.544 257.429 39.352C257.728 39.16 257.957 38.8773 258.117 38.504C258.288 38.12 258.373 37.6453 258.373 37.08C258.373 36.2267 258.192 35.592 257.829 35.176C257.467 34.7493 256.987 34.536 256.389 34.536C255.995 34.536 255.648 34.632 255.349 34.824C255.051 35.0053 254.816 35.288 254.645 35.672C254.485 36.0453 254.405 36.5147 254.405 37.08C254.405 37.9227 254.587 38.5627 254.949 39C255.312 39.4267 255.792 39.64 256.389 39.64ZM267.751 44.008C267.431 44.008 267.185 43.9227 267.015 43.752C266.844 43.5813 266.759 43.3307 266.759 43V34.056C266.759 33.7253 266.844 33.4747 267.015 33.304C267.185 33.1333 267.425 33.048 267.735 33.048C268.055 33.048 268.3 33.1333 268.471 33.304C268.641 33.4747 268.727 33.7253 268.727 34.056V35.304L268.551 34.824C268.711 34.28 269.036 33.8427 269.527 33.512C270.028 33.1813 270.609 33.016 271.271 33.016C271.953 33.016 272.551 33.1813 273.063 33.512C273.585 33.8427 273.991 34.312 274.279 34.92C274.567 35.5173 274.711 36.2373 274.711 37.08C274.711 37.912 274.567 38.6373 274.279 39.256C273.991 39.864 273.591 40.3333 273.079 40.664C272.567 40.9947 271.964 41.16 271.271 41.16C270.62 41.16 270.049 41 269.559 40.68C269.068 40.3493 268.737 39.9227 268.567 39.4H268.759V43C268.759 43.3307 268.668 43.5813 268.487 43.752C268.316 43.9227 268.071 44.008 267.751 44.008ZM270.711 39.64C271.105 39.64 271.452 39.544 271.751 39.352C272.049 39.16 272.279 38.8773 272.439 38.504C272.609 38.12 272.695 37.6453 272.695 37.08C272.695 36.2267 272.513 35.592 272.151 35.176C271.788 34.7493 271.308 34.536 270.711 34.536C270.316 34.536 269.969 34.632 269.671 34.824C269.372 35.0053 269.137 35.288 268.967 35.672C268.807 36.0453 268.727 36.5147 268.727 37.08C268.727 37.9227 268.908 38.5627 269.271 39C269.633 39.4267 270.113 39.64 270.711 39.64ZM280.209 41.16C279.323 41.16 278.561 40.9947 277.921 40.664C277.281 40.3333 276.785 39.864 276.433 39.256C276.091 38.648 275.921 37.928 275.921 37.096C275.921 36.2853 276.086 35.576 276.417 34.968C276.758 34.36 277.222 33.8853 277.809 33.544C278.406 33.192 279.083 33.016 279.841 33.016C280.395 33.016 280.891 33.1067 281.329 33.288C281.777 33.4693 282.155 33.7307 282.465 34.072C282.785 34.4133 283.025 34.8293 283.185 35.32C283.355 35.8 283.441 36.344 283.441 36.952C283.441 37.144 283.371 37.2933 283.233 37.4C283.105 37.496 282.918 37.544 282.673 37.544H277.537V36.392H282.033L281.777 36.632C281.777 36.1413 281.702 35.7307 281.553 35.4C281.414 35.0693 281.206 34.8187 280.929 34.648C280.662 34.4667 280.326 34.376 279.921 34.376C279.473 34.376 279.089 34.4827 278.769 34.696C278.459 34.8987 278.219 35.192 278.049 35.576C277.889 35.9493 277.809 36.3973 277.809 36.92V37.032C277.809 37.9067 278.011 38.5627 278.417 39C278.833 39.4267 279.441 39.64 280.241 39.64C280.518 39.64 280.827 39.608 281.169 39.544C281.521 39.4693 281.851 39.3467 282.161 39.176C282.385 39.048 282.582 38.9947 282.753 39.016C282.923 39.0267 283.057 39.0853 283.153 39.192C283.259 39.2987 283.323 39.432 283.345 39.592C283.366 39.7413 283.334 39.896 283.249 40.056C283.174 40.216 283.041 40.3547 282.849 40.472C282.475 40.7067 282.043 40.8827 281.553 41C281.073 41.1067 280.625 41.16 280.209 41.16ZM286.048 41.128C285.718 41.128 285.462 41.0427 285.28 40.872C285.11 40.6907 285.024 40.4347 285.024 40.104V34.056C285.024 33.7253 285.11 33.4747 285.28 33.304C285.451 33.1333 285.691 33.048 286 33.048C286.31 33.048 286.55 33.1333 286.72 33.304C286.891 33.4747 286.976 33.7253 286.976 34.056V35.064H286.816C286.966 34.424 287.259 33.9387 287.696 33.608C288.134 33.2773 288.715 33.08 289.44 33.016C289.664 32.9947 289.84 33.0533 289.968 33.192C290.107 33.32 290.187 33.5227 290.208 33.8C290.23 34.0667 290.166 34.2853 290.016 34.456C289.878 34.616 289.664 34.712 289.376 34.744L289.024 34.776C288.374 34.84 287.883 35.0427 287.552 35.384C287.222 35.7147 287.056 36.184 287.056 36.792V40.104C287.056 40.4347 286.971 40.6907 286.8 40.872C286.63 41.0427 286.379 41.128 286.048 41.128ZM292.314 41.128C291.994 41.128 291.749 41.0427 291.578 40.872C291.407 40.6907 291.322 40.4347 291.322 40.104V34.056C291.322 33.7253 291.407 33.4747 291.578 33.304C291.749 33.1333 291.989 33.048 292.298 33.048C292.607 33.048 292.847 33.1333 293.018 33.304C293.189 33.4747 293.274 33.7253 293.274 34.056V35.224L293.098 34.744C293.311 34.2107 293.642 33.7893 294.09 33.48C294.538 33.1707 295.071 33.016 295.69 33.016C296.319 33.016 296.837 33.1653 297.242 33.464C297.647 33.7627 297.93 34.2213 298.09 34.84H297.866C298.079 34.2747 298.431 33.832 298.922 33.512C299.413 33.1813 299.978 33.016 300.618 33.016C301.215 33.016 301.706 33.1333 302.09 33.368C302.485 33.6027 302.778 33.96 302.97 34.44C303.162 34.9093 303.258 35.5067 303.258 36.232V40.104C303.258 40.4347 303.167 40.6907 302.986 40.872C302.815 41.0427 302.57 41.128 302.25 41.128C301.93 41.128 301.685 41.0427 301.514 40.872C301.343 40.6907 301.258 40.4347 301.258 40.104V36.312C301.258 35.7147 301.157 35.2773 300.954 35C300.762 34.7227 300.431 34.584 299.962 34.584C299.439 34.584 299.029 34.7707 298.73 35.144C298.431 35.5067 298.282 36.0133 298.282 36.664V40.104C298.282 40.4347 298.197 40.6907 298.026 40.872C297.855 41.0427 297.61 41.128 297.29 41.128C296.97 41.128 296.719 41.0427 296.538 40.872C296.367 40.6907 296.282 40.4347 296.282 40.104V36.312C296.282 35.7147 296.181 35.2773 295.978 35C295.786 34.7227 295.461 34.584 295.002 34.584C294.479 34.584 294.069 34.7707 293.77 35.144C293.471 35.5067 293.322 36.0133 293.322 36.664V40.104C293.322 40.7867 292.986 41.128 292.314 41.128ZM307.897 41.16C307.332 41.16 306.825 41.0533 306.377 40.84C305.94 40.616 305.593 40.3173 305.337 39.944C305.092 39.5707 304.969 39.1493 304.969 38.68C304.969 38.104 305.119 37.6507 305.417 37.32C305.716 36.9787 306.201 36.7333 306.873 36.584C307.545 36.4347 308.447 36.36 309.577 36.36H310.377V37.512H309.593C308.932 37.512 308.404 37.544 308.009 37.608C307.615 37.672 307.332 37.784 307.161 37.944C307.001 38.0933 306.921 38.3067 306.921 38.584C306.921 38.936 307.044 39.224 307.289 39.448C307.535 39.672 307.876 39.784 308.313 39.784C308.665 39.784 308.975 39.704 309.241 39.544C309.519 39.3733 309.737 39.144 309.897 38.856C310.057 38.568 310.137 38.2373 310.137 37.864V36.024C310.137 35.4907 310.02 35.1067 309.785 34.872C309.551 34.6373 309.156 34.52 308.601 34.52C308.292 34.52 307.956 34.5573 307.593 34.632C307.241 34.7067 306.868 34.8347 306.473 35.016C306.271 35.112 306.089 35.1387 305.929 35.096C305.78 35.0533 305.663 34.968 305.577 34.84C305.492 34.7013 305.449 34.552 305.449 34.392C305.449 34.232 305.492 34.0773 305.577 33.928C305.663 33.768 305.807 33.6507 306.009 33.576C306.5 33.3733 306.969 33.2293 307.417 33.144C307.876 33.0587 308.292 33.016 308.665 33.016C309.433 33.016 310.063 33.1333 310.553 33.368C311.055 33.6027 311.428 33.96 311.673 34.44C311.919 34.9093 312.041 35.5173 312.041 36.264V40.104C312.041 40.4347 311.961 40.6907 311.801 40.872C311.641 41.0427 311.412 41.128 311.113 41.128C310.815 41.128 310.58 41.0427 310.409 40.872C310.249 40.6907 310.169 40.4347 310.169 40.104V39.336H310.297C310.223 39.7093 310.073 40.0347 309.849 40.312C309.636 40.5787 309.364 40.7867 309.033 40.936C308.703 41.0853 308.324 41.16 307.897 41.16ZM315.063 41.128C314.743 41.128 314.498 41.0427 314.327 40.872C314.157 40.6907 314.071 40.4347 314.071 40.104V34.056C314.071 33.7253 314.157 33.4747 314.327 33.304C314.498 33.1333 314.738 33.048 315.047 33.048C315.357 33.048 315.597 33.1333 315.767 33.304C315.938 33.4747 316.023 33.7253 316.023 34.056V35.144L315.847 34.744C316.082 34.1787 316.445 33.752 316.935 33.464C317.437 33.1653 318.002 33.016 318.631 33.016C319.261 33.016 319.778 33.1333 320.183 33.368C320.589 33.6027 320.893 33.96 321.095 34.44C321.298 34.9093 321.399 35.5067 321.399 36.232V40.104C321.399 40.4347 321.314 40.6907 321.143 40.872C320.973 41.0427 320.727 41.128 320.407 41.128C320.087 41.128 319.837 41.0427 319.655 40.872C319.485 40.6907 319.399 40.4347 319.399 40.104V36.328C319.399 35.72 319.282 35.2773 319.047 35C318.823 34.7227 318.471 34.584 317.991 34.584C317.405 34.584 316.935 34.7707 316.583 35.144C316.242 35.5067 316.071 35.992 316.071 36.6V40.104C316.071 40.7867 315.735 41.128 315.063 41.128ZM327.287 41.16C326.401 41.16 325.639 40.9947 324.999 40.664C324.359 40.3333 323.863 39.864 323.511 39.256C323.169 38.648 322.999 37.928 322.999 37.096C322.999 36.2853 323.164 35.576 323.495 34.968C323.836 34.36 324.3 33.8853 324.887 33.544C325.484 33.192 326.161 33.016 326.919 33.016C327.473 33.016 327.969 33.1067 328.407 33.288C328.855 33.4693 329.233 33.7307 329.543 34.072C329.863 34.4133 330.103 34.8293 330.263 35.32C330.433 35.8 330.519 36.344 330.519 36.952C330.519 37.144 330.449 37.2933 330.311 37.4C330.183 37.496 329.996 37.544 329.751 37.544H324.615V36.392H329.111L328.855 36.632C328.855 36.1413 328.78 35.7307 328.631 35.4C328.492 35.0693 328.284 34.8187 328.007 34.648C327.74 34.4667 327.404 34.376 326.999 34.376C326.551 34.376 326.167 34.4827 325.847 34.696C325.537 34.8987 325.297 35.192 325.127 35.576C324.967 35.9493 324.887 36.3973 324.887 36.92V37.032C324.887 37.9067 325.089 38.5627 325.495 39C325.911 39.4267 326.519 39.64 327.319 39.64C327.596 39.64 327.905 39.608 328.247 39.544C328.599 39.4693 328.929 39.3467 329.239 39.176C329.463 39.048 329.66 38.9947 329.831 39.016C330.001 39.0267 330.135 39.0853 330.231 39.192C330.337 39.2987 330.401 39.432 330.423 39.592C330.444 39.7413 330.412 39.896 330.327 40.056C330.252 40.216 330.119 40.3547 329.927 40.472C329.553 40.7067 329.121 40.8827 328.631 41C328.151 41.1067 327.703 41.16 327.287 41.16ZM333.095 41.128C332.775 41.128 332.529 41.0427 332.359 40.872C332.188 40.6907 332.103 40.4347 332.103 40.104V34.056C332.103 33.7253 332.188 33.4747 332.359 33.304C332.529 33.1333 332.769 33.048 333.079 33.048C333.388 33.048 333.628 33.1333 333.799 33.304C333.969 33.4747 334.055 33.7253 334.055 34.056V35.144L333.879 34.744C334.113 34.1787 334.476 33.752 334.967 33.464C335.468 33.1653 336.033 33.016 336.663 33.016C337.292 33.016 337.809 33.1333 338.215 33.368C338.62 33.6027 338.924 33.96 339.127 34.44C339.329 34.9093 339.431 35.5067 339.431 36.232V40.104C339.431 40.4347 339.345 40.6907 339.175 40.872C339.004 41.0427 338.759 41.128 338.439 41.128C338.119 41.128 337.868 41.0427 337.687 40.872C337.516 40.6907 337.431 40.4347 337.431 40.104V36.328C337.431 35.72 337.313 35.2773 337.079 35C336.855 34.7227 336.503 34.584 336.023 34.584C335.436 34.584 334.967 34.7707 334.615 35.144C334.273 35.5067 334.103 35.992 334.103 36.6V40.104C334.103 40.7867 333.767 41.128 333.095 41.128ZM345.046 41.16C344.353 41.16 343.771 41.0427 343.302 40.808C342.843 40.5733 342.502 40.232 342.278 39.784C342.054 39.3253 341.942 38.76 341.942 38.088V34.68H341.11C340.854 34.68 340.657 34.616 340.518 34.488C340.379 34.3493 340.31 34.1627 340.31 33.928C340.31 33.6827 340.379 33.496 340.518 33.368C340.657 33.24 340.854 33.176 341.11 33.176H341.942V31.72C341.942 31.3893 342.027 31.1387 342.198 30.968C342.379 30.7973 342.63 30.712 342.95 30.712C343.27 30.712 343.515 30.7973 343.686 30.968C343.857 31.1387 343.942 31.3893 343.942 31.72V33.176H345.638C345.894 33.176 346.091 33.24 346.23 33.368C346.369 33.496 346.438 33.6827 346.438 33.928C346.438 34.1627 346.369 34.3493 346.23 34.488C346.091 34.616 345.894 34.68 345.638 34.68H343.942V37.976C343.942 38.488 344.054 38.872 344.278 39.128C344.502 39.384 344.865 39.512 345.366 39.512C345.547 39.512 345.707 39.496 345.846 39.464C345.985 39.432 346.107 39.4107 346.214 39.4C346.342 39.3893 346.449 39.432 346.534 39.528C346.619 39.6133 346.662 39.7947 346.662 40.072C346.662 40.2853 346.625 40.4773 346.55 40.648C346.486 40.808 346.363 40.92 346.182 40.984C346.043 41.0267 345.862 41.064 345.638 41.096C345.414 41.1387 345.217 41.16 345.046 41.16ZM350.478 41.16C349.592 41.16 348.926 40.9093 348.478 40.408C348.03 39.896 347.806 39.1493 347.806 38.168V30.6C347.806 30.2693 347.891 30.0187 348.062 29.848C348.232 29.6773 348.478 29.592 348.798 29.592C349.118 29.592 349.363 29.6773 349.534 29.848C349.715 30.0187 349.806 30.2693 349.806 30.6V38.072C349.806 38.5627 349.907 38.9253 350.11 39.16C350.323 39.3947 350.622 39.512 351.006 39.512C351.091 39.512 351.171 39.512 351.246 39.512C351.32 39.5013 351.395 39.4907 351.47 39.48C351.619 39.4587 351.72 39.5013 351.774 39.608C351.827 39.704 351.854 39.9067 351.854 40.216C351.854 40.4827 351.8 40.6907 351.694 40.84C351.587 40.9893 351.411 41.08 351.166 41.112C351.059 41.1227 350.947 41.1333 350.83 41.144C350.712 41.1547 350.595 41.16 350.478 41.16ZM354.696 44.008C354.461 44.008 354.269 43.944 354.12 43.816C353.971 43.6987 353.88 43.5387 353.848 43.336C353.827 43.1333 353.864 42.92 353.96 42.696L355.048 40.28V41.112L352.136 34.376C352.04 34.1413 352.008 33.9227 352.04 33.72C352.072 33.5173 352.168 33.3573 352.328 33.24C352.499 33.112 352.728 33.048 353.016 33.048C353.261 33.048 353.459 33.1067 353.608 33.224C353.757 33.3307 353.891 33.5387 354.008 33.848L356.168 39.24H355.688L357.896 33.832C358.013 33.5333 358.152 33.3307 358.312 33.224C358.472 33.1067 358.685 33.048 358.952 33.048C359.187 33.048 359.373 33.112 359.512 33.24C359.651 33.3573 359.736 33.5173 359.768 33.72C359.8 33.912 359.763 34.1253 359.656 34.36L355.768 43.24C355.629 43.5387 355.48 43.7413 355.32 43.848C355.16 43.9547 354.952 44.008 354.696 44.008ZM361.584 42.712C361.445 42.8827 361.296 42.9787 361.136 43C360.987 43.032 360.853 43.0053 360.736 42.92C360.619 42.8347 360.555 42.712 360.544 42.552C360.533 42.4027 360.603 42.2373 360.752 42.056C360.965 41.7893 361.109 41.5227 361.184 41.256C361.259 40.9893 361.296 40.7493 361.296 40.536L361.376 41.08C361.003 41.08 360.699 40.9733 360.464 40.76C360.24 40.536 360.128 40.2427 360.128 39.88C360.128 39.5387 360.235 39.2613 360.448 39.048C360.661 38.824 360.949 38.712 361.312 38.712C361.685 38.712 361.979 38.84 362.192 39.096C362.405 39.3413 362.512 39.6987 362.512 40.168C362.512 40.424 362.485 40.6907 362.432 40.968C362.389 41.2347 362.299 41.512 362.16 41.8C362.032 42.0987 361.84 42.4027 361.584 42.712ZM368.985 41.128C368.729 41.128 368.521 41.0693 368.361 40.952C368.211 40.8347 368.121 40.68 368.089 40.488C368.057 40.2853 368.094 40.0613 368.201 39.816L372.425 30.456C372.563 30.1467 372.729 29.928 372.921 29.8C373.123 29.6613 373.353 29.592 373.609 29.592C373.854 29.592 374.073 29.6613 374.265 29.8C374.467 29.928 374.638 30.1467 374.777 30.456L379.017 39.816C379.134 40.0613 379.177 40.2853 379.145 40.488C379.113 40.6907 379.022 40.8507 378.873 40.968C378.723 41.0747 378.526 41.128 378.281 41.128C377.982 41.128 377.747 41.0587 377.577 40.92C377.417 40.7707 377.273 40.5467 377.145 40.248L376.105 37.832L376.969 38.392H370.217L371.081 37.832L370.057 40.248C369.918 40.5573 369.774 40.7813 369.625 40.92C369.475 41.0587 369.262 41.128 368.985 41.128ZM373.577 31.944L371.337 37.272L370.921 36.76H376.265L375.865 37.272L373.609 31.944H373.577ZM381.611 41.128C381.28 41.128 381.024 41.0427 380.843 40.872C380.672 40.6907 380.587 40.4347 380.587 40.104V34.056C380.587 33.7253 380.672 33.4747 380.843 33.304C381.014 33.1333 381.254 33.048 381.563 33.048C381.872 33.048 382.112 33.1333 382.283 33.304C382.454 33.4747 382.539 33.7253 382.539 34.056V35.064H382.379C382.528 34.424 382.822 33.9387 383.259 33.608C383.696 33.2773 384.278 33.08 385.003 33.016C385.227 32.9947 385.403 33.0533 385.531 33.192C385.67 33.32 385.75 33.5227 385.771 33.8C385.792 34.0667 385.728 34.2853 385.579 34.456C385.44 34.616 385.227 34.712 384.939 34.744L384.587 34.776C383.936 34.84 383.446 35.0427 383.115 35.384C382.784 35.7147 382.619 36.184 382.619 36.792V40.104C382.619 40.4347 382.534 40.6907 382.363 40.872C382.192 41.0427 381.942 41.128 381.611 41.128ZM390.584 41.16C389.698 41.16 388.936 40.9947 388.296 40.664C387.656 40.3333 387.16 39.864 386.808 39.256C386.466 38.648 386.296 37.928 386.296 37.096C386.296 36.2853 386.461 35.576 386.792 34.968C387.133 34.36 387.597 33.8853 388.184 33.544C388.781 33.192 389.458 33.016 390.216 33.016C390.77 33.016 391.266 33.1067 391.704 33.288C392.152 33.4693 392.53 33.7307 392.84 34.072C393.16 34.4133 393.4 34.8293 393.56 35.32C393.73 35.8 393.816 36.344 393.816 36.952C393.816 37.144 393.746 37.2933 393.608 37.4C393.48 37.496 393.293 37.544 393.048 37.544H387.912V36.392H392.408L392.152 36.632C392.152 36.1413 392.077 35.7307 391.928 35.4C391.789 35.0693 391.581 34.8187 391.304 34.648C391.037 34.4667 390.701 34.376 390.296 34.376C389.848 34.376 389.464 34.4827 389.144 34.696C388.834 34.8987 388.594 35.192 388.424 35.576C388.264 35.9493 388.184 36.3973 388.184 36.92V37.032C388.184 37.9067 388.386 38.5627 388.792 39C389.208 39.4267 389.816 39.64 390.616 39.64C390.893 39.64 391.202 39.608 391.544 39.544C391.896 39.4693 392.226 39.3467 392.536 39.176C392.76 39.048 392.957 38.9947 393.128 39.016C393.298 39.0267 393.432 39.0853 393.528 39.192C393.634 39.2987 393.698 39.432 393.72 39.592C393.741 39.7413 393.709 39.896 393.624 40.056C393.549 40.216 393.416 40.3547 393.224 40.472C392.85 40.7067 392.418 40.8827 391.928 41C391.448 41.1067 391 41.16 390.584 41.16ZM401.727 44.008C401.492 44.008 401.3 43.944 401.151 43.816C401.002 43.6987 400.911 43.5387 400.879 43.336C400.858 43.1333 400.895 42.92 400.991 42.696L402.079 40.28V41.112L399.167 34.376C399.071 34.1413 399.039 33.9227 399.071 33.72C399.103 33.5173 399.199 33.3573 399.359 33.24C399.53 33.112 399.759 33.048 400.047 33.048C400.292 33.048 400.49 33.1067 400.639 33.224C400.788 33.3307 400.922 33.5387 401.039 33.848L403.199 39.24H402.719L404.927 33.832C405.044 33.5333 405.183 33.3307 405.343 33.224C405.503 33.1067 405.716 33.048 405.983 33.048C406.218 33.048 406.404 33.112 406.543 33.24C406.682 33.3573 406.767 33.5173 406.799 33.72C406.831 33.912 406.794 34.1253 406.687 34.36L402.799 43.24C402.66 43.5387 402.511 43.7413 402.351 43.848C402.191 43.9547 401.983 44.008 401.727 44.008ZM411.577 41.16C410.766 41.16 410.062 40.9947 409.465 40.664C408.867 40.3333 408.403 39.864 408.073 39.256C407.742 38.6373 407.577 37.912 407.577 37.08C407.577 36.4507 407.667 35.8907 407.849 35.4C408.041 34.8987 408.313 34.472 408.665 34.12C409.017 33.7573 409.438 33.4853 409.929 33.304C410.419 33.112 410.969 33.016 411.577 33.016C412.387 33.016 413.091 33.1813 413.689 33.512C414.286 33.8427 414.75 34.312 415.081 34.92C415.411 35.528 415.577 36.248 415.577 37.08C415.577 37.7093 415.481 38.2747 415.289 38.776C415.107 39.2773 414.841 39.7093 414.489 40.072C414.137 40.424 413.715 40.696 413.225 40.888C412.734 41.0693 412.185 41.16 411.577 41.16ZM411.577 39.64C411.971 39.64 412.318 39.544 412.617 39.352C412.915 39.16 413.145 38.8773 413.305 38.504C413.475 38.12 413.561 37.6453 413.561 37.08C413.561 36.2267 413.379 35.592 413.017 35.176C412.654 34.7493 412.174 34.536 411.577 34.536C411.182 34.536 410.835 34.632 410.537 34.824C410.238 35.0053 410.003 35.288 409.833 35.672C409.673 36.0453 409.593 36.5147 409.593 37.08C409.593 37.9227 409.774 38.5627 410.137 39C410.499 39.4267 410.979 39.64 411.577 39.64ZM420.06 41.16C419.409 41.16 418.87 41.0427 418.444 40.808C418.017 40.5627 417.697 40.2 417.484 39.72C417.281 39.24 417.18 38.6427 417.18 37.928V34.056C417.18 33.7147 417.265 33.464 417.436 33.304C417.606 33.1333 417.852 33.048 418.172 33.048C418.492 33.048 418.737 33.1333 418.908 33.304C419.089 33.464 419.18 33.7147 419.18 34.056V37.96C419.18 38.5147 419.292 38.9253 419.516 39.192C419.74 39.4587 420.097 39.592 420.588 39.592C421.121 39.592 421.558 39.4107 421.9 39.048C422.241 38.6747 422.412 38.184 422.412 37.576V34.056C422.412 33.7147 422.497 33.464 422.668 33.304C422.838 33.1333 423.084 33.048 423.404 33.048C423.724 33.048 423.969 33.1333 424.14 33.304C424.321 33.464 424.411 33.7147 424.411 34.056V40.104C424.411 40.7867 424.086 41.128 423.436 41.128C423.126 41.128 422.886 41.0427 422.716 40.872C422.545 40.6907 422.46 40.4347 422.46 40.104V38.888L422.684 39.368C422.46 39.944 422.118 40.3867 421.66 40.696C421.212 41.0053 420.678 41.16 420.06 41.16ZM434.917 41.16C434.448 41.16 433.978 41.1227 433.509 41.048C433.04 40.984 432.597 40.8827 432.181 40.744C431.765 40.5947 431.392 40.4133 431.061 40.2C430.869 40.072 430.736 39.9173 430.661 39.736C430.586 39.5547 430.56 39.3787 430.581 39.208C430.613 39.0267 430.682 38.872 430.789 38.744C430.906 38.6053 431.05 38.52 431.221 38.488C431.392 38.456 431.578 38.504 431.781 38.632C432.25 38.9093 432.746 39.112 433.269 39.24C433.792 39.368 434.341 39.432 434.917 39.432C435.76 39.432 436.373 39.2933 436.757 39.016C437.141 38.728 437.333 38.36 437.333 37.912C437.333 37.5387 437.194 37.2453 436.917 37.032C436.65 36.8187 436.186 36.6427 435.525 36.504L433.765 36.136C432.752 35.9227 431.994 35.5653 431.493 35.064C431.002 34.552 430.757 33.88 430.757 33.048C430.757 32.5253 430.864 32.0507 431.077 31.624C431.29 31.1973 431.589 30.8293 431.973 30.52C432.368 30.2107 432.832 29.976 433.365 29.816C433.909 29.6453 434.506 29.56 435.157 29.56C435.797 29.56 436.405 29.64 436.981 29.8C437.557 29.96 438.074 30.1947 438.533 30.504C438.704 30.6213 438.816 30.7653 438.869 30.936C438.933 31.1067 438.949 31.2773 438.917 31.448C438.885 31.608 438.81 31.7467 438.693 31.864C438.576 31.9813 438.426 32.0507 438.245 32.072C438.074 32.0933 437.877 32.04 437.653 31.912C437.258 31.688 436.858 31.528 436.453 31.432C436.048 31.336 435.61 31.288 435.141 31.288C434.65 31.288 434.229 31.3573 433.877 31.496C433.525 31.6347 433.253 31.832 433.061 32.088C432.88 32.3333 432.789 32.6267 432.789 32.968C432.789 33.352 432.917 33.6613 433.173 33.896C433.429 34.12 433.866 34.296 434.485 34.424L436.229 34.792C437.285 35.016 438.069 35.368 438.581 35.848C439.104 36.328 439.365 36.968 439.365 37.768C439.365 38.28 439.258 38.744 439.045 39.16C438.842 39.576 438.544 39.9333 438.149 40.232C437.765 40.5307 437.301 40.76 436.757 40.92C436.213 41.08 435.6 41.16 434.917 41.16ZM443.763 41.16C443.112 41.16 442.573 41.0427 442.147 40.808C441.72 40.5627 441.4 40.2 441.187 39.72C440.984 39.24 440.883 38.6427 440.883 37.928V34.056C440.883 33.7147 440.968 33.464 441.139 33.304C441.309 33.1333 441.555 33.048 441.875 33.048C442.195 33.048 442.44 33.1333 442.611 33.304C442.792 33.464 442.883 33.7147 442.883 34.056V37.96C442.883 38.5147 442.995 38.9253 443.219 39.192C443.443 39.4587 443.8 39.592 444.291 39.592C444.824 39.592 445.261 39.4107 445.603 39.048C445.944 38.6747 446.115 38.184 446.115 37.576V34.056C446.115 33.7147 446.2 33.464 446.371 33.304C446.541 33.1333 446.787 33.048 447.107 33.048C447.427 33.048 447.672 33.1333 447.843 33.304C448.024 33.464 448.115 33.7147 448.115 34.056V40.104C448.115 40.7867 447.789 41.128 447.139 41.128C446.829 41.128 446.589 41.0427 446.419 40.872C446.248 40.6907 446.163 40.4347 446.163 40.104V38.888L446.387 39.368C446.163 39.944 445.821 40.3867 445.363 40.696C444.915 41.0053 444.381 41.16 443.763 41.16ZM451.22 41.128C450.89 41.128 450.634 41.0427 450.452 40.872C450.282 40.6907 450.196 40.4347 450.196 40.104V34.056C450.196 33.7253 450.282 33.4747 450.452 33.304C450.623 33.1333 450.863 33.048 451.172 33.048C451.482 33.048 451.722 33.1333 451.892 33.304C452.063 33.4747 452.148 33.7253 452.148 34.056V35.064H451.988C452.138 34.424 452.431 33.9387 452.868 33.608C453.306 33.2773 453.887 33.08 454.612 33.016C454.836 32.9947 455.012 33.0533 455.14 33.192C455.279 33.32 455.359 33.5227 455.38 33.8C455.402 34.0667 455.338 34.2853 455.188 34.456C455.05 34.616 454.836 34.712 454.548 34.744L454.196 34.776C453.546 34.84 453.055 35.0427 452.724 35.384C452.394 35.7147 452.228 36.184 452.228 36.792V40.104C452.228 40.4347 452.143 40.6907 451.972 40.872C451.802 41.0427 451.551 41.128 451.22 41.128ZM460.193 41.16C459.308 41.16 458.545 40.9947 457.905 40.664C457.265 40.3333 456.769 39.864 456.417 39.256C456.076 38.648 455.905 37.928 455.905 37.096C455.905 36.2853 456.07 35.576 456.401 34.968C456.742 34.36 457.206 33.8853 457.793 33.544C458.39 33.192 459.068 33.016 459.825 33.016C460.38 33.016 460.876 33.1067 461.313 33.288C461.761 33.4693 462.14 33.7307 462.449 34.072C462.769 34.4133 463.009 34.8293 463.169 35.32C463.34 35.8 463.425 36.344 463.425 36.952C463.425 37.144 463.356 37.2933 463.217 37.4C463.089 37.496 462.902 37.544 462.657 37.544H457.521V36.392H462.017L461.761 36.632C461.761 36.1413 461.686 35.7307 461.537 35.4C461.398 35.0693 461.19 34.8187 460.913 34.648C460.646 34.4667 460.31 34.376 459.905 34.376C459.457 34.376 459.073 34.4827 458.753 34.696C458.444 34.8987 458.204 35.192 458.033 35.576C457.873 35.9493 457.793 36.3973 457.793 36.92V37.032C457.793 37.9067 457.996 38.5627 458.401 39C458.817 39.4267 459.425 39.64 460.225 39.64C460.502 39.64 460.812 39.608 461.153 39.544C461.505 39.4693 461.836 39.3467 462.145 39.176C462.369 39.048 462.566 38.9947 462.737 39.016C462.908 39.0267 463.041 39.0853 463.137 39.192C463.244 39.2987 463.308 39.432 463.329 39.592C463.35 39.7413 463.318 39.896 463.233 40.056C463.158 40.216 463.025 40.3547 462.833 40.472C462.46 40.7067 462.028 40.8827 461.537 41C461.057 41.1067 460.609 41.16 460.193 41.16ZM467.381 37.736C467.178 37.736 467.018 37.672 466.901 37.544C466.794 37.4053 466.741 37.224 466.741 37C466.741 36.6693 466.778 36.36 466.853 36.072C466.938 35.7733 467.071 35.4747 467.253 35.176C467.434 34.8773 467.674 34.5627 467.973 34.232C468.197 33.976 468.373 33.752 468.501 33.56C468.639 33.3573 468.735 33.1653 468.789 32.984C468.853 32.8027 468.885 32.616 468.885 32.424C468.885 32.072 468.757 31.7947 468.501 31.592C468.245 31.3893 467.882 31.288 467.413 31.288C466.986 31.288 466.597 31.3467 466.245 31.464C465.903 31.5707 465.557 31.7253 465.205 31.928C464.97 32.0667 464.757 32.1307 464.565 32.12C464.383 32.0987 464.234 32.0293 464.117 31.912C463.999 31.7947 463.925 31.6507 463.893 31.48C463.861 31.3093 463.887 31.1333 463.973 30.952C464.058 30.7707 464.213 30.6053 464.437 30.456C464.874 30.168 465.375 29.9493 465.941 29.8C466.506 29.64 467.039 29.56 467.541 29.56C468.213 29.56 468.799 29.672 469.301 29.896C469.813 30.12 470.207 30.4293 470.485 30.824C470.773 31.2187 470.917 31.6827 470.917 32.216C470.917 32.5467 470.869 32.8613 470.773 33.16C470.677 33.448 470.522 33.7413 470.309 34.04C470.095 34.328 469.802 34.6427 469.429 34.984C469.098 35.2827 468.831 35.5547 468.629 35.8C468.437 36.0453 468.293 36.28 468.197 36.504C468.111 36.728 468.053 36.968 468.021 37.224C468.01 37.3733 467.946 37.496 467.829 37.592C467.722 37.688 467.573 37.736 467.381 37.736ZM467.349 41.08C466.986 41.08 466.693 40.968 466.469 40.744C466.255 40.52 466.149 40.232 466.149 39.88C466.149 39.5387 466.255 39.2613 466.469 39.048C466.693 38.824 466.986 38.712 467.349 38.712C467.722 38.712 468.01 38.824 468.213 39.048C468.426 39.2613 468.533 39.5387 468.533 39.88C468.533 40.232 468.426 40.52 468.213 40.744C468.01 40.968 467.722 41.08 467.349 41.08Z" fill="#EB0910"/>
<path fill-rule="evenodd" clip-rule="evenodd" d="M44.6341 26.5908C44.6341 30.2308 41.7804 33.1816 38.2602 33.1816C34.7399 33.1816 31.8862 30.2308 31.8862 26.5908C31.8862 22.9508 34.7399 20 38.2602 20C41.7804 20 44.6341 22.9508 44.6341 26.5908ZM42.0325 26.5908C42.0325 28.8766 40.2622 30.5799 38.2602 30.5799C36.2581 30.5799 34.4878 28.8766 34.4878 26.5908C34.4878 24.3049 36.2581 22.6016 38.2602 22.6016C40.2622 22.6016 42.0325 24.3049 42.0325 26.5908ZM38.4785 37.3328C36.6614 37.0905 35.253 37.127 33.235 37.3372C30.5035 37.6217 28.2697 38.3959 26.7585 39.4016C25.2348 40.4157 24.6015 41.5416 24.6016 42.5525L24.6017 43.6738C24.6018 44.3926 25.1847 44.9756 25.9043 44.9756H37.0894C37.8078 44.9756 38.3902 45.558 38.3902 46.2764C38.3902 46.9948 37.8078 47.5772 37.0894 47.5772H25.9043C23.7488 47.5772 22.0003 45.8304 22.0001 43.674L22 42.5528C21.9998 40.3516 23.3827 38.5232 25.3171 37.2358C27.264 35.9401 29.9301 35.0657 32.9655 34.7496C35.1101 34.5262 36.737 34.4759 38.8223 34.754C39.5344 34.8489 40.0348 35.5032 39.9398 36.2153C39.8449 36.9274 39.1906 37.4277 38.4785 37.3328ZM55.9079 43.5014C55.9079 48.1951 52.1029 52 47.4092 52C42.7155 52 38.9106 48.1951 38.9106 43.5014C38.9106 38.8077 42.7155 35.0027 47.4092 35.0027C52.1029 35.0027 55.9079 38.8077 55.9079 43.5014ZM45.2104 39.7043C44.7691 39.263 44.0536 39.263 43.6122 39.7043C43.1709 40.1456 43.1709 40.8611 43.6122 41.3024L45.8013 43.4915L43.6122 45.6806C43.1708 46.122 43.1708 46.8375 43.6122 47.2788C44.0535 47.7201 44.769 47.7201 45.2103 47.2788L47.3995 45.0896L49.5729 47.2631C50.0142 47.7044 50.7298 47.7044 51.1711 47.2631C51.6124 46.8218 51.6124 46.1063 51.1711 45.665L48.9976 43.4915L51.171 41.3181C51.6123 40.8768 51.6123 40.1613 51.171 39.72C50.7297 39.2786 50.0142 39.2786 49.5728 39.72L47.3995 41.8933L45.2104 39.7043Z" fill="#EB0910"/>
<rect x="504.5" y="19.5" width="89" height="33" rx="16.5" fill="#EB0910"/>
<rect x="504.5" y="19.5" width="89" height="33" rx="16.5" stroke="url(#paint0_linear_1160_10848)"/>
<path fill-rule="evenodd" clip-rule="evenodd" d="M530.345 31.8835C530.345 33.476 529.167 34.7669 527.714 34.7669C526.26 34.7669 525.082 33.476 525.082 31.8835C525.082 30.291 526.26 29 527.714 29C529.167 29 530.345 30.291 530.345 31.8835ZM529.271 31.8835C529.271 32.8835 528.54 33.6287 527.714 33.6287C526.887 33.6287 526.156 32.8835 526.156 31.8835C526.156 30.8834 526.887 30.1382 527.714 30.1382C528.54 30.1382 529.271 30.8834 529.271 31.8835ZM527.804 36.5831C527.053 36.4771 526.472 36.4931 525.639 36.585C524.511 36.7095 523.589 37.0482 522.965 37.4882C522.336 37.9319 522.074 38.4245 522.074 38.8667L522.074 39.3573C522.074 39.6718 522.315 39.9268 522.612 39.9268H527.23C527.527 39.9268 527.767 40.1816 527.767 40.4959C527.767 40.8102 527.527 41.065 527.23 41.065H522.612C521.722 41.065 521 40.3008 521 39.3574L521 38.8668C521 37.9038 521.571 37.1039 522.37 36.5407C523.173 35.9738 524.274 35.5913 525.527 35.4529C526.413 35.3552 527.085 35.3332 527.946 35.4549C528.24 35.4964 528.446 35.7826 528.407 36.0942C528.368 36.4057 528.098 36.6246 527.804 36.5831ZM535 39.2818C535 41.3353 533.429 43 531.491 43C529.553 43 527.982 41.3353 527.982 39.2818C527.982 37.2284 529.553 35.5637 531.491 35.5637C533.429 35.5637 535 37.2284 535 39.2818ZM530.583 37.6206C530.401 37.4275 530.106 37.4275 529.923 37.6206C529.741 37.8137 529.741 38.1267 529.923 38.3198L530.827 39.2775L529.923 40.2352C529.741 40.4283 529.741 40.7414 529.923 40.9344C530.105 41.1275 530.401 41.1275 530.583 40.9344L531.487 39.9767L532.384 40.9276C532.567 41.1207 532.862 41.1207 533.044 40.9276C533.226 40.7345 533.226 40.4215 533.044 40.2284L532.147 39.2775L533.044 38.3266C533.226 38.1336 533.226 37.8205 533.044 37.6274C532.862 37.4344 532.567 37.4344 532.384 37.6274L531.487 38.5783L530.583 37.6206Z" fill="white"/>
<path d="M541.656 40C541.44 40 541.272 39.944 541.152 39.832C541.04 39.712 540.984 39.544 540.984 39.328V32.212C540.984 31.996 541.04 31.832 541.152 31.72C541.272 31.6 541.44 31.54 541.656 31.54H543.972C545.364 31.54 546.436 31.904 547.188 32.632C547.948 33.352 548.328 34.396 548.328 35.764C548.328 36.444 548.232 37.048 548.04 37.576C547.848 38.104 547.564 38.548 547.188 38.908C546.82 39.26 546.368 39.532 545.832 39.724C545.296 39.908 544.676 40 543.972 40H541.656ZM542.232 38.956H543.9C544.428 38.956 544.884 38.892 545.268 38.764C545.66 38.628 545.988 38.428 546.252 38.164C546.516 37.9 546.712 37.568 546.84 37.168C546.968 36.768 547.032 36.3 547.032 35.764C547.032 34.7 546.768 33.904 546.24 33.376C545.72 32.848 544.94 32.584 543.9 32.584H542.232V38.956ZM552.612 40.108C551.972 40.108 551.42 39.988 550.956 39.748C550.5 39.5 550.144 39.152 549.888 38.704C549.64 38.248 549.516 37.708 549.516 37.084C549.516 36.476 549.64 35.944 549.888 35.488C550.136 35.032 550.476 34.676 550.908 34.42C551.34 34.164 551.832 34.036 552.384 34.036C552.792 34.036 553.156 34.104 553.476 34.24C553.796 34.368 554.068 34.56 554.292 34.816C554.524 35.064 554.696 35.368 554.808 35.728C554.928 36.088 554.988 36.492 554.988 36.94C554.988 37.076 554.948 37.18 554.868 37.252C554.788 37.316 554.668 37.348 554.508 37.348H550.476V36.604H554.172L553.968 36.772C553.968 36.372 553.908 36.032 553.788 35.752C553.676 35.472 553.504 35.26 553.272 35.116C553.048 34.964 552.768 34.888 552.432 34.888C552.056 34.888 551.736 34.976 551.472 35.152C551.216 35.328 551.02 35.572 550.884 35.884C550.748 36.196 550.68 36.56 550.68 36.976V37.048C550.68 37.752 550.844 38.284 551.172 38.644C551.508 38.996 551.992 39.172 552.624 39.172C552.864 39.172 553.116 39.14 553.38 39.076C553.652 39.012 553.908 38.904 554.148 38.752C554.284 38.672 554.404 38.636 554.508 38.644C554.62 38.652 554.708 38.688 554.772 38.752C554.844 38.816 554.888 38.896 554.904 38.992C554.92 39.088 554.904 39.188 554.856 39.292C554.808 39.388 554.724 39.476 554.604 39.556C554.332 39.74 554.016 39.88 553.656 39.976C553.296 40.064 552.948 40.108 552.612 40.108ZM558.193 40.108C557.569 40.108 557.097 39.928 556.777 39.568C556.465 39.2 556.309 38.672 556.309 37.984V32.068C556.309 31.868 556.361 31.716 556.465 31.612C556.569 31.508 556.717 31.456 556.909 31.456C557.101 31.456 557.249 31.508 557.353 31.612C557.465 31.716 557.521 31.868 557.521 32.068V37.912C557.521 38.312 557.601 38.612 557.761 38.812C557.929 39.004 558.169 39.1 558.481 39.1C558.553 39.1 558.617 39.1 558.673 39.1C558.729 39.092 558.785 39.084 558.841 39.076C558.937 39.068 559.005 39.096 559.045 39.16C559.085 39.216 559.105 39.336 559.105 39.52C559.105 39.688 559.069 39.82 558.997 39.916C558.925 40.004 558.809 40.06 558.649 40.084C558.577 40.092 558.501 40.096 558.421 40.096C558.341 40.104 558.265 40.108 558.193 40.108ZM562.666 40.108C562.026 40.108 561.474 39.988 561.01 39.748C560.554 39.5 560.198 39.152 559.942 38.704C559.694 38.248 559.57 37.708 559.57 37.084C559.57 36.476 559.694 35.944 559.942 35.488C560.19 35.032 560.53 34.676 560.962 34.42C561.394 34.164 561.886 34.036 562.438 34.036C562.846 34.036 563.21 34.104 563.53 34.24C563.85 34.368 564.122 34.56 564.346 34.816C564.578 35.064 564.75 35.368 564.862 35.728C564.982 36.088 565.042 36.492 565.042 36.94C565.042 37.076 565.002 37.18 564.922 37.252C564.842 37.316 564.722 37.348 564.562 37.348H560.53V36.604H564.226L564.022 36.772C564.022 36.372 563.962 36.032 563.842 35.752C563.73 35.472 563.558 35.26 563.326 35.116C563.102 34.964 562.822 34.888 562.486 34.888C562.11 34.888 561.79 34.976 561.526 35.152C561.27 35.328 561.074 35.572 560.938 35.884C560.802 36.196 560.734 36.56 560.734 36.976V37.048C560.734 37.752 560.898 38.284 561.226 38.644C561.562 38.996 562.046 39.172 562.678 39.172C562.918 39.172 563.17 39.14 563.434 39.076C563.706 39.012 563.962 38.904 564.202 38.752C564.338 38.672 564.458 38.636 564.562 38.644C564.674 38.652 564.762 38.688 564.826 38.752C564.898 38.816 564.942 38.896 564.958 38.992C564.974 39.088 564.958 39.188 564.91 39.292C564.862 39.388 564.778 39.476 564.658 39.556C564.386 39.74 564.07 39.88 563.71 39.976C563.35 40.064 563.002 40.108 562.666 40.108ZM568.848 40.108C568.368 40.108 567.964 40.024 567.636 39.856C567.308 39.688 567.064 39.44 566.904 39.112C566.744 38.784 566.664 38.384 566.664 37.912V35.08H565.944C565.784 35.08 565.66 35.04 565.572 34.96C565.484 34.872 565.44 34.756 565.44 34.612C565.44 34.46 565.484 34.344 565.572 34.264C565.66 34.184 565.784 34.144 565.944 34.144H566.664V32.908C566.664 32.708 566.716 32.556 566.82 32.452C566.932 32.348 567.084 32.296 567.276 32.296C567.468 32.296 567.616 32.348 567.72 32.452C567.824 32.556 567.876 32.708 567.876 32.908V34.144H569.28C569.44 34.144 569.564 34.184 569.652 34.264C569.74 34.344 569.784 34.46 569.784 34.612C569.784 34.756 569.74 34.872 569.652 34.96C569.564 35.04 569.44 35.08 569.28 35.08H567.876V37.816C567.876 38.24 567.964 38.56 568.14 38.776C568.324 38.992 568.62 39.1 569.028 39.1C569.172 39.1 569.296 39.088 569.4 39.064C569.512 39.032 569.604 39.012 569.676 39.004C569.764 39.004 569.836 39.036 569.892 39.1C569.948 39.156 569.976 39.268 569.976 39.436C569.976 39.556 569.952 39.668 569.904 39.772C569.864 39.876 569.788 39.944 569.676 39.976C569.58 40.008 569.448 40.036 569.28 40.06C569.12 40.092 568.976 40.108 568.848 40.108ZM573.424 40.108C572.784 40.108 572.232 39.988 571.768 39.748C571.312 39.5 570.956 39.152 570.7 38.704C570.452 38.248 570.328 37.708 570.328 37.084C570.328 36.476 570.452 35.944 570.7 35.488C570.948 35.032 571.288 34.676 571.72 34.42C572.152 34.164 572.644 34.036 573.196 34.036C573.604 34.036 573.968 34.104 574.288 34.24C574.608 34.368 574.88 34.56 575.104 34.816C575.336 35.064 575.508 35.368 575.62 35.728C575.74 36.088 575.8 36.492 575.8 36.94C575.8 37.076 575.76 37.18 575.68 37.252C575.6 37.316 575.48 37.348 575.32 37.348H571.288V36.604H574.984L574.78 36.772C574.78 36.372 574.72 36.032 574.6 35.752C574.488 35.472 574.316 35.26 574.084 35.116C573.86 34.964 573.58 34.888 573.244 34.888C572.868 34.888 572.548 34.976 572.284 35.152C572.028 35.328 571.832 35.572 571.696 35.884C571.56 36.196 571.492 36.56 571.492 36.976V37.048C571.492 37.752 571.656 38.284 571.984 38.644C572.32 38.996 572.804 39.172 573.436 39.172C573.676 39.172 573.928 39.14 574.192 39.076C574.464 39.012 574.72 38.904 574.96 38.752C575.096 38.672 575.216 38.636 575.32 38.644C575.432 38.652 575.52 38.688 575.584 38.752C575.656 38.816 575.7 38.896 575.716 38.992C575.732 39.088 575.716 39.188 575.668 39.292C575.62 39.388 575.536 39.476 575.416 39.556C575.144 39.74 574.828 39.88 574.468 39.976C574.108 40.064 573.76 40.108 573.424 40.108Z" fill="white"/>
<defs>
<linearGradient id="paint0_linear_1160_10848" x1="556.207" y1="20" x2="556.207" y2="52" gradientUnits="userSpaceOnUse">
<stop stop-color="#EB0910" stop-opacity="0.74"/>
<stop offset="1" stop-color="#DC0910"/>
</linearGradient>
</defs>
</svg>
