<svg width="346" height="344" viewBox="0 0 346 344" fill="none" xmlns="http://www.w3.org/2000/svg">
<rect width="346" height="344" rx="16" fill="white"/>
<rect x="25.5" y="45.5" width="300" height="43" rx="9.5" fill="white" stroke="#E8EAEF"/>
<path d="M28.732 37.096C28.484 37.096 28.292 37.028 28.156 36.892C28.028 36.748 27.964 36.552 27.964 36.304V29.824H25.624C25.416 29.824 25.252 29.768 25.132 29.656C25.02 29.536 24.964 29.376 24.964 29.176C24.964 28.968 25.02 28.812 25.132 28.708C25.252 28.596 25.416 28.54 25.624 28.54H31.84C32.048 28.54 32.208 28.596 32.32 28.708C32.44 28.812 32.5 28.968 32.5 29.176C32.5 29.376 32.44 29.536 32.32 29.656C32.208 29.768 32.048 29.824 31.84 29.824H29.5V36.304C29.5 36.552 29.436 36.748 29.308 36.892C29.18 37.028 28.988 37.096 28.732 37.096ZM34.6334 37.084C34.3934 37.084 34.2094 37.012 34.0814 36.868C33.9534 36.724 33.8894 36.524 33.8894 36.268V31.864C33.8894 31.6 33.9534 31.4 34.0814 31.264C34.2094 31.12 34.3934 31.048 34.6334 31.048C34.8734 31.048 35.0574 31.12 35.1854 31.264C35.3214 31.4 35.3894 31.6 35.3894 31.864V36.268C35.3894 36.524 35.3254 36.724 35.1974 36.868C35.0694 37.012 34.8814 37.084 34.6334 37.084ZM34.6334 29.932C34.3534 29.932 34.1334 29.864 33.9734 29.728C33.8214 29.584 33.7454 29.388 33.7454 29.14C33.7454 28.884 33.8214 28.688 33.9734 28.552C34.1334 28.416 34.3534 28.348 34.6334 28.348C34.9214 28.348 35.1414 28.416 35.2934 28.552C35.4454 28.688 35.5214 28.884 35.5214 29.14C35.5214 29.388 35.4454 29.584 35.2934 29.728C35.1414 29.864 34.9214 29.932 34.6334 29.932ZM37.716 37.096C37.476 37.096 37.292 37.032 37.164 36.904C37.036 36.768 36.972 36.576 36.972 36.328V31.792C36.972 31.544 37.036 31.356 37.164 31.228C37.292 31.1 37.472 31.036 37.704 31.036C37.936 31.036 38.116 31.1 38.244 31.228C38.372 31.356 38.436 31.544 38.436 31.792V32.668L38.304 32.308C38.464 31.908 38.712 31.592 39.048 31.36C39.384 31.128 39.784 31.012 40.248 31.012C40.72 31.012 41.108 31.124 41.412 31.348C41.716 31.572 41.928 31.916 42.048 32.38H41.88C42.04 31.956 42.304 31.624 42.672 31.384C43.04 31.136 43.464 31.012 43.944 31.012C44.392 31.012 44.76 31.1 45.048 31.276C45.344 31.452 45.564 31.72 45.708 32.08C45.852 32.432 45.924 32.88 45.924 33.424V36.328C45.924 36.576 45.856 36.768 45.72 36.904C45.592 37.032 45.408 37.096 45.168 37.096C44.928 37.096 44.744 37.032 44.616 36.904C44.488 36.768 44.424 36.576 44.424 36.328V33.484C44.424 33.036 44.348 32.708 44.196 32.5C44.052 32.292 43.804 32.188 43.452 32.188C43.06 32.188 42.752 32.328 42.528 32.608C42.304 32.88 42.192 33.26 42.192 33.748V36.328C42.192 36.576 42.128 36.768 42 36.904C41.872 37.032 41.688 37.096 41.448 37.096C41.208 37.096 41.02 37.032 40.884 36.904C40.756 36.768 40.692 36.576 40.692 36.328V33.484C40.692 33.036 40.616 32.708 40.464 32.5C40.32 32.292 40.076 32.188 39.732 32.188C39.34 32.188 39.032 32.328 38.808 32.608C38.584 32.88 38.472 33.26 38.472 33.748V36.328C38.472 36.84 38.22 37.096 37.716 37.096ZM50.3634 37.12C49.6994 37.12 49.1274 36.996 48.6474 36.748C48.1674 36.5 47.7954 36.148 47.5314 35.692C47.2754 35.236 47.1474 34.696 47.1474 34.072C47.1474 33.464 47.2714 32.932 47.5194 32.476C47.7754 32.02 48.1234 31.664 48.5634 31.408C49.0114 31.144 49.5194 31.012 50.0874 31.012C50.5034 31.012 50.8754 31.08 51.2034 31.216C51.5394 31.352 51.8234 31.548 52.0554 31.804C52.2954 32.06 52.4754 32.372 52.5954 32.74C52.7234 33.1 52.7874 33.508 52.7874 33.964C52.7874 34.108 52.7354 34.22 52.6314 34.3C52.5354 34.372 52.3954 34.408 52.2114 34.408H48.3594V33.544H51.7314L51.5394 33.724C51.5394 33.356 51.4834 33.048 51.3714 32.8C51.2674 32.552 51.1114 32.364 50.9034 32.236C50.7034 32.1 50.4514 32.032 50.1474 32.032C49.8114 32.032 49.5234 32.112 49.2834 32.272C49.0514 32.424 48.8714 32.644 48.7434 32.932C48.6234 33.212 48.5634 33.548 48.5634 33.94V34.024C48.5634 34.68 48.7154 35.172 49.0194 35.5C49.3314 35.82 49.7874 35.98 50.3874 35.98C50.5954 35.98 50.8274 35.956 51.0834 35.908C51.3474 35.852 51.5954 35.76 51.8274 35.632C51.9954 35.536 52.1434 35.496 52.2714 35.512C52.3994 35.52 52.4994 35.564 52.5714 35.644C52.6514 35.724 52.6994 35.824 52.7154 35.944C52.7314 36.056 52.7074 36.172 52.6434 36.292C52.5874 36.412 52.4874 36.516 52.3434 36.604C52.0634 36.78 51.7394 36.912 51.3714 37C51.0114 37.08 50.6754 37.12 50.3634 37.12Z" fill="#64728C"/>
<path d="M40.536 71.084C40.376 71.084 40.252 71.04 40.164 70.952C40.084 70.856 40.044 70.728 40.044 70.568V62.972C40.044 62.804 40.084 62.676 40.164 62.588C40.252 62.5 40.376 62.456 40.536 62.456C40.696 62.456 40.816 62.5 40.896 62.588C40.984 62.676 41.028 62.804 41.028 62.972V66.284H46.104V62.972C46.104 62.804 46.144 62.676 46.224 62.588C46.312 62.5 46.436 62.456 46.596 62.456C46.756 62.456 46.876 62.5 46.956 62.588C47.044 62.676 47.088 62.804 47.088 62.972V70.568C47.088 70.728 47.044 70.856 46.956 70.952C46.876 71.04 46.756 71.084 46.596 71.084C46.436 71.084 46.312 71.04 46.224 70.952C46.144 70.856 46.104 70.728 46.104 70.568V67.136H41.028V70.568C41.028 70.728 40.988 70.856 40.908 70.952C40.828 71.04 40.704 71.084 40.536 71.084ZM49.6649 71.084C49.5049 71.084 49.3809 71.04 49.2929 70.952C49.2129 70.856 49.1729 70.728 49.1729 70.568V62.972C49.1729 62.804 49.2129 62.676 49.2929 62.588C49.3809 62.5 49.5049 62.456 49.6649 62.456C49.8249 62.456 49.9449 62.5 50.0249 62.588C50.1129 62.676 50.1569 62.804 50.1569 62.972V66.284H55.2329V62.972C55.2329 62.804 55.2729 62.676 55.3529 62.588C55.4409 62.5 55.5649 62.456 55.7249 62.456C55.8849 62.456 56.0049 62.5 56.0849 62.588C56.1729 62.676 56.2169 62.804 56.2169 62.972V70.568C56.2169 70.728 56.1729 70.856 56.0849 70.952C56.0049 71.04 55.8849 71.084 55.7249 71.084C55.5649 71.084 55.4409 71.04 55.3529 70.952C55.2729 70.856 55.2329 70.728 55.2329 70.568V67.136H50.1569V70.568C50.1569 70.728 50.1169 70.856 50.0369 70.952C49.9569 71.04 49.8329 71.084 49.6649 71.084ZM58.6378 71.048C58.4378 71.048 58.2778 70.988 58.1578 70.868C58.0378 70.74 57.9778 70.58 57.9778 70.388C57.9778 70.196 58.0378 70.04 58.1578 69.92C58.2778 69.792 58.4378 69.728 58.6378 69.728C58.8378 69.728 58.9938 69.792 59.1058 69.92C59.2258 70.04 59.2858 70.196 59.2858 70.388C59.2858 70.58 59.2258 70.74 59.1058 70.868C58.9938 70.988 58.8378 71.048 58.6378 71.048ZM58.6378 66.44C58.4378 66.44 58.2778 66.376 58.1578 66.248C58.0378 66.12 57.9778 65.964 57.9778 65.78C57.9778 65.58 58.0378 65.42 58.1578 65.3C58.2778 65.18 58.4378 65.12 58.6378 65.12C58.8378 65.12 58.9938 65.18 59.1058 65.3C59.2258 65.42 59.2858 65.58 59.2858 65.78C59.2858 65.964 59.2258 66.12 59.1058 66.248C58.9938 66.376 58.8378 66.44 58.6378 66.44ZM61.5123 71.084C61.3683 71.084 61.2563 71.044 61.1763 70.964C61.0963 70.876 61.0563 70.756 61.0563 70.604V62.936C61.0563 62.776 61.0963 62.656 61.1763 62.576C61.2563 62.496 61.3683 62.456 61.5123 62.456C61.6403 62.456 61.7403 62.484 61.8123 62.54C61.8923 62.588 61.9643 62.672 62.0283 62.792L65.3163 68.984H64.9563L68.2323 62.792C68.2963 62.672 68.3643 62.588 68.4363 62.54C68.5083 62.484 68.6123 62.456 68.7483 62.456C68.8843 62.456 68.9923 62.496 69.0723 62.576C69.1523 62.656 69.1923 62.776 69.1923 62.936V70.604C69.1923 70.756 69.1523 70.876 69.0723 70.964C69.0003 71.044 68.8883 71.084 68.7363 71.084C68.5923 71.084 68.4803 71.044 68.4003 70.964C68.3203 70.876 68.2803 70.756 68.2803 70.604V63.86H68.5683L65.5683 69.488C65.5123 69.592 65.4523 69.668 65.3883 69.716C65.3323 69.756 65.2483 69.776 65.1363 69.776C65.0243 69.776 64.9363 69.752 64.8723 69.704C64.8083 69.656 64.7523 69.584 64.7043 69.488L61.6683 63.848H61.9563V70.604C61.9563 70.756 61.9163 70.876 61.8363 70.964C61.7643 71.044 61.6563 71.084 61.5123 71.084ZM71.7779 71.084C71.6339 71.084 71.5219 71.044 71.4419 70.964C71.3619 70.876 71.3219 70.756 71.3219 70.604V62.936C71.3219 62.776 71.3619 62.656 71.4419 62.576C71.5219 62.496 71.6339 62.456 71.7779 62.456C71.9059 62.456 72.0059 62.484 72.0779 62.54C72.1579 62.588 72.2299 62.672 72.2939 62.792L75.5819 68.984H75.2219L78.4979 62.792C78.5619 62.672 78.6299 62.588 78.7019 62.54C78.7739 62.484 78.8779 62.456 79.0139 62.456C79.1499 62.456 79.2579 62.496 79.3379 62.576C79.4179 62.656 79.4579 62.776 79.4579 62.936V70.604C79.4579 70.756 79.4179 70.876 79.3379 70.964C79.2659 71.044 79.1539 71.084 79.0019 71.084C78.8579 71.084 78.7459 71.044 78.6659 70.964C78.5859 70.876 78.5459 70.756 78.5459 70.604V63.86H78.8339L75.8339 69.488C75.7779 69.592 75.7179 69.668 75.6539 69.716C75.5979 69.756 75.5139 69.776 75.4019 69.776C75.2899 69.776 75.2019 69.752 75.1379 69.704C75.0739 69.656 75.0179 69.584 74.9699 69.488L71.9339 63.848H72.2219V70.604C72.2219 70.756 72.1819 70.876 72.1019 70.964C72.0299 71.044 71.9219 71.084 71.7779 71.084Z" fill="#929BAA"/>
<rect x="25.5" y="125.5" width="299" height="43" rx="9.5" fill="white" stroke="#E8EAEF"/>
<path d="M29.716 117.12C28.9 117.12 28.184 116.94 27.568 116.58C26.96 116.22 26.488 115.716 26.152 115.068C25.816 114.412 25.648 113.644 25.648 112.764C25.648 112.1 25.744 111.504 25.936 110.976C26.128 110.44 26.4 109.984 26.752 109.608C27.112 109.224 27.54 108.932 28.036 108.732C28.54 108.524 29.1 108.42 29.716 108.42C30.54 108.42 31.256 108.6 31.864 108.96C32.472 109.312 32.944 109.812 33.28 110.46C33.616 111.108 33.784 111.872 33.784 112.752C33.784 113.416 33.688 114.016 33.496 114.552C33.304 115.088 33.028 115.548 32.668 115.932C32.316 116.316 31.888 116.612 31.384 116.82C30.888 117.02 30.332 117.12 29.716 117.12ZM29.716 115.8C30.236 115.8 30.676 115.68 31.036 115.44C31.404 115.2 31.684 114.852 31.876 114.396C32.076 113.94 32.176 113.396 32.176 112.764C32.176 111.804 31.96 111.06 31.528 110.532C31.104 110.004 30.5 109.74 29.716 109.74C29.204 109.74 28.764 109.86 28.396 110.1C28.028 110.332 27.744 110.676 27.544 111.132C27.352 111.58 27.256 112.124 27.256 112.764C27.256 113.716 27.472 114.46 27.904 114.996C28.336 115.532 28.94 115.8 29.716 115.8ZM36.3539 117.096C36.1139 117.096 35.9259 117.032 35.7899 116.904C35.6619 116.768 35.5979 116.576 35.5979 116.328V112.26H35.0459C34.8539 112.26 34.7059 112.212 34.6019 112.116C34.4979 112.012 34.4459 111.872 34.4459 111.696C34.4459 111.512 34.4979 111.372 34.6019 111.276C34.7059 111.18 34.8539 111.132 35.0459 111.132H36.0299L35.5979 111.528V111.12C35.5979 110.296 35.8059 109.68 36.2219 109.272C36.6379 108.856 37.2379 108.612 38.0219 108.54L38.4299 108.504C38.5899 108.488 38.7179 108.516 38.8139 108.588C38.9099 108.652 38.9739 108.74 39.0059 108.852C39.0379 108.956 39.0419 109.064 39.0179 109.176C38.9939 109.288 38.9419 109.388 38.8619 109.476C38.7899 109.556 38.6939 109.6 38.5739 109.608L38.4059 109.62C37.9499 109.652 37.6179 109.768 37.4099 109.968C37.2019 110.168 37.0979 110.472 37.0979 110.88V111.324L36.9059 111.132H38.1179C38.3099 111.132 38.4579 111.18 38.5619 111.276C38.6659 111.372 38.7179 111.512 38.7179 111.696C38.7179 111.872 38.6659 112.012 38.5619 112.116C38.4579 112.212 38.3099 112.26 38.1179 112.26H37.0979V116.328C37.0979 116.84 36.8499 117.096 36.3539 117.096ZM40.4554 117.096C40.2154 117.096 40.0274 117.032 39.8914 116.904C39.7634 116.768 39.6994 116.576 39.6994 116.328V112.26H39.1474C38.9554 112.26 38.8074 112.212 38.7034 112.116C38.5994 112.012 38.5474 111.872 38.5474 111.696C38.5474 111.512 38.5994 111.372 38.7034 111.276C38.8074 111.18 38.9554 111.132 39.1474 111.132H40.1314L39.6994 111.528V111.12C39.6994 110.296 39.9074 109.68 40.3234 109.272C40.7394 108.856 41.3394 108.612 42.1234 108.54L42.5314 108.504C42.6914 108.488 42.8194 108.516 42.9154 108.588C43.0114 108.652 43.0754 108.74 43.1074 108.852C43.1394 108.956 43.1434 109.064 43.1194 109.176C43.0954 109.288 43.0434 109.388 42.9634 109.476C42.8914 109.556 42.7954 109.6 42.6754 109.608L42.5074 109.62C42.0514 109.652 41.7194 109.768 41.5114 109.968C41.3034 110.168 41.1994 110.472 41.1994 110.88V111.324L41.0074 111.132H42.2194C42.4114 111.132 42.5594 111.18 42.6634 111.276C42.7674 111.372 42.8194 111.512 42.8194 111.696C42.8194 111.872 42.7674 112.012 42.6634 112.116C42.5594 112.212 42.4114 112.26 42.2194 112.26H41.1994V116.328C41.1994 116.84 40.9514 117.096 40.4554 117.096ZM46.4142 117.12C45.7502 117.12 45.1782 116.996 44.6982 116.748C44.2182 116.5 43.8462 116.148 43.5822 115.692C43.3262 115.236 43.1982 114.696 43.1982 114.072C43.1982 113.464 43.3222 112.932 43.5702 112.476C43.8262 112.02 44.1742 111.664 44.6142 111.408C45.0622 111.144 45.5702 111.012 46.1382 111.012C46.5542 111.012 46.9262 111.08 47.2542 111.216C47.5902 111.352 47.8742 111.548 48.1062 111.804C48.3462 112.06 48.5262 112.372 48.6462 112.74C48.7742 113.1 48.8382 113.508 48.8382 113.964C48.8382 114.108 48.7862 114.22 48.6822 114.3C48.5862 114.372 48.4462 114.408 48.2622 114.408H44.4102V113.544H47.7822L47.5902 113.724C47.5902 113.356 47.5342 113.048 47.4222 112.8C47.3182 112.552 47.1622 112.364 46.9542 112.236C46.7542 112.1 46.5022 112.032 46.1982 112.032C45.8622 112.032 45.5742 112.112 45.3342 112.272C45.1022 112.424 44.9222 112.644 44.7942 112.932C44.6742 113.212 44.6142 113.548 44.6142 113.94V114.024C44.6142 114.68 44.7662 115.172 45.0702 115.5C45.3822 115.82 45.8382 115.98 46.4382 115.98C46.6462 115.98 46.8782 115.956 47.1342 115.908C47.3982 115.852 47.6462 115.76 47.8782 115.632C48.0462 115.536 48.1942 115.496 48.3222 115.512C48.4502 115.52 48.5502 115.564 48.6222 115.644C48.7022 115.724 48.7502 115.824 48.7662 115.944C48.7822 116.056 48.7582 116.172 48.6942 116.292C48.6382 116.412 48.5382 116.516 48.3942 116.604C48.1142 116.78 47.7902 116.912 47.4222 117C47.0622 117.08 46.7262 117.12 46.4142 117.12ZM50.7941 117.096C50.5461 117.096 50.3541 117.032 50.2181 116.904C50.0901 116.768 50.0261 116.576 50.0261 116.328V111.792C50.0261 111.544 50.0901 111.356 50.2181 111.228C50.3461 111.1 50.5261 111.036 50.7581 111.036C50.9901 111.036 51.1701 111.1 51.2981 111.228C51.4261 111.356 51.4901 111.544 51.4901 111.792V112.548H51.3701C51.4821 112.068 51.7021 111.704 52.0301 111.456C52.3581 111.208 52.7941 111.06 53.3381 111.012C53.5061 110.996 53.6381 111.04 53.7341 111.144C53.8381 111.24 53.8981 111.392 53.9141 111.6C53.9301 111.8 53.8821 111.964 53.7701 112.092C53.6661 112.212 53.5061 112.284 53.2901 112.308L53.0261 112.332C52.5381 112.38 52.1701 112.532 51.9221 112.788C51.6741 113.036 51.5501 113.388 51.5501 113.844V116.328C51.5501 116.576 51.4861 116.768 51.3581 116.904C51.2301 117.032 51.0421 117.096 50.7941 117.096ZM58.9431 117C58.6791 117 58.4751 116.932 58.3311 116.796C58.1951 116.652 58.1271 116.448 58.1271 116.184V109.356C58.1271 109.092 58.1951 108.892 58.3311 108.756C58.4751 108.612 58.6791 108.54 58.9431 108.54H63.2271C63.4271 108.54 63.5791 108.592 63.6831 108.696C63.7951 108.8 63.8511 108.948 63.8511 109.14C63.8511 109.34 63.7951 109.496 63.6831 109.608C63.5791 109.712 63.4271 109.764 63.2271 109.764H59.6031V112.092H62.9631C63.1711 112.092 63.3271 112.144 63.4311 112.248C63.5351 112.352 63.5871 112.504 63.5871 112.704C63.5871 112.904 63.5351 113.056 63.4311 113.16C63.3271 113.264 63.1711 113.316 62.9631 113.316H59.6031V115.776H63.2271C63.4271 115.776 63.5791 115.828 63.6831 115.932C63.7951 116.036 63.8511 116.188 63.8511 116.388C63.8511 116.588 63.7951 116.74 63.6831 116.844C63.5791 116.948 63.4271 117 63.2271 117H58.9431ZM65.8873 117.096C65.6473 117.096 65.4633 117.032 65.3353 116.904C65.2073 116.768 65.1433 116.576 65.1433 116.328V111.792C65.1433 111.544 65.2073 111.356 65.3353 111.228C65.4633 111.1 65.6433 111.036 65.8753 111.036C66.1073 111.036 66.2873 111.1 66.4153 111.228C66.5433 111.356 66.6073 111.544 66.6073 111.792V112.608L66.4753 112.308C66.6513 111.884 66.9233 111.564 67.2913 111.348C67.6673 111.124 68.0913 111.012 68.5633 111.012C69.0353 111.012 69.4233 111.1 69.7273 111.276C70.0313 111.452 70.2593 111.72 70.4113 112.08C70.5633 112.432 70.6393 112.88 70.6393 113.424V116.328C70.6393 116.576 70.5753 116.768 70.4473 116.904C70.3193 117.032 70.1353 117.096 69.8953 117.096C69.6553 117.096 69.4673 117.032 69.3313 116.904C69.2033 116.768 69.1393 116.576 69.1393 116.328V113.496C69.1393 113.04 69.0513 112.708 68.8753 112.5C68.7073 112.292 68.4433 112.188 68.0833 112.188C67.6433 112.188 67.2913 112.328 67.0273 112.608C66.7713 112.88 66.6433 113.244 66.6433 113.7V116.328C66.6433 116.84 66.3913 117.096 65.8873 117.096ZM74.4188 117.12C73.9068 117.12 73.4548 116.996 73.0628 116.748C72.6788 116.5 72.3788 116.148 72.1628 115.692C71.9468 115.228 71.8388 114.684 71.8388 114.06C71.8388 113.428 71.9468 112.888 72.1628 112.44C72.3788 111.984 72.6788 111.632 73.0628 111.384C73.4548 111.136 73.9068 111.012 74.4188 111.012C74.9068 111.012 75.3308 111.132 75.6908 111.372C76.0588 111.612 76.3068 111.928 76.4348 112.32H76.3028V109.2C76.3028 108.952 76.3668 108.764 76.4948 108.636C76.6228 108.508 76.8068 108.444 77.0468 108.444C77.2868 108.444 77.4708 108.508 77.5988 108.636C77.7348 108.764 77.8028 108.952 77.8028 109.2V116.328C77.8028 116.576 77.7388 116.768 77.6108 116.904C77.4828 117.032 77.2988 117.096 77.0588 117.096C76.8188 117.096 76.6348 117.032 76.5068 116.904C76.3788 116.768 76.3148 116.576 76.3148 116.328V115.392L76.4468 115.752C76.3268 116.168 76.0828 116.5 75.7148 116.748C75.3468 116.996 74.9148 117.12 74.4188 117.12ZM74.8388 115.98C75.1348 115.98 75.3948 115.908 75.6188 115.764C75.8428 115.62 76.0148 115.408 76.1348 115.128C76.2628 114.84 76.3268 114.484 76.3268 114.06C76.3268 113.42 76.1908 112.944 75.9188 112.632C75.6468 112.312 75.2868 112.152 74.8388 112.152C74.5428 112.152 74.2828 112.224 74.0588 112.368C73.8348 112.504 73.6588 112.716 73.5308 113.004C73.4108 113.284 73.3508 113.636 73.3508 114.06C73.3508 114.692 73.4868 115.172 73.7588 115.5C74.0308 115.82 74.3908 115.98 74.8388 115.98ZM83.5759 117C83.3119 117 83.1079 116.932 82.9639 116.796C82.8279 116.652 82.7599 116.448 82.7599 116.184V109.356C82.7599 109.092 82.8279 108.892 82.9639 108.756C83.1079 108.612 83.3119 108.54 83.5759 108.54H85.9039C87.3199 108.54 88.4119 108.904 89.1799 109.632C89.9559 110.36 90.3439 111.404 90.3439 112.764C90.3439 113.444 90.2439 114.048 90.0439 114.576C89.8519 115.096 89.5639 115.536 89.1799 115.896C88.8039 116.256 88.3399 116.532 87.7879 116.724C87.2439 116.908 86.6159 117 85.9039 117H83.5759ZM84.2959 115.728H85.8079C86.3039 115.728 86.7319 115.668 87.0919 115.548C87.4599 115.42 87.7639 115.236 88.0039 114.996C88.2519 114.748 88.4359 114.44 88.5559 114.072C88.6759 113.696 88.7359 113.26 88.7359 112.764C88.7359 111.772 88.4919 111.032 88.0039 110.544C87.5159 110.056 86.7839 109.812 85.8079 109.812H84.2959V115.728ZM93.6886 117.12C93.2646 117.12 92.8846 117.04 92.5486 116.88C92.2206 116.712 91.9606 116.488 91.7686 116.208C91.5846 115.928 91.4926 115.612 91.4926 115.26C91.4926 114.828 91.6046 114.488 91.8286 114.24C92.0526 113.984 92.4166 113.8 92.9206 113.688C93.4246 113.576 94.1006 113.52 94.9486 113.52H95.5486V114.384H94.9606C94.4646 114.384 94.0686 114.408 93.7726 114.456C93.4766 114.504 93.2646 114.588 93.1366 114.708C93.0166 114.82 92.9566 114.98 92.9566 115.188C92.9566 115.452 93.0486 115.668 93.2326 115.836C93.4166 116.004 93.6726 116.088 94.0006 116.088C94.2646 116.088 94.4966 116.028 94.6966 115.908C94.9046 115.78 95.0686 115.608 95.1886 115.392C95.3086 115.176 95.3686 114.928 95.3686 114.648V113.268C95.3686 112.868 95.2806 112.58 95.1046 112.404C94.9286 112.228 94.6326 112.14 94.2166 112.14C93.9846 112.14 93.7326 112.168 93.4606 112.224C93.1966 112.28 92.9166 112.376 92.6206 112.512C92.4686 112.584 92.3326 112.604 92.2126 112.572C92.1006 112.54 92.0126 112.476 91.9486 112.38C91.8846 112.276 91.8526 112.164 91.8526 112.044C91.8526 111.924 91.8846 111.808 91.9486 111.696C92.0126 111.576 92.1206 111.488 92.2726 111.432C92.6406 111.28 92.9926 111.172 93.3286 111.108C93.6726 111.044 93.9846 111.012 94.2646 111.012C94.8406 111.012 95.3126 111.1 95.6806 111.276C96.0566 111.452 96.3366 111.72 96.5206 112.08C96.7046 112.432 96.7966 112.888 96.7966 113.448V116.328C96.7966 116.576 96.7366 116.768 96.6166 116.904C96.4966 117.032 96.3246 117.096 96.1006 117.096C95.8766 117.096 95.7006 117.032 95.5726 116.904C95.4526 116.768 95.3926 116.576 95.3926 116.328V115.752H95.4886C95.4326 116.032 95.3206 116.276 95.1526 116.484C94.9926 116.684 94.7886 116.84 94.5406 116.952C94.2926 117.064 94.0086 117.12 93.6886 117.12ZM101.007 117.12C100.487 117.12 100.051 117.032 99.6991 116.856C99.3551 116.68 99.0991 116.424 98.9311 116.088C98.7631 115.744 98.6791 115.32 98.6791 114.816V112.26H98.0551C97.8631 112.26 97.7151 112.212 97.6111 112.116C97.5071 112.012 97.4551 111.872 97.4551 111.696C97.4551 111.512 97.5071 111.372 97.6111 111.276C97.7151 111.18 97.8631 111.132 98.0551 111.132H98.6791V110.04C98.6791 109.792 98.7431 109.604 98.8711 109.476C99.0071 109.348 99.1951 109.284 99.4351 109.284C99.6751 109.284 99.8591 109.348 99.9871 109.476C100.115 109.604 100.179 109.792 100.179 110.04V111.132H101.451C101.643 111.132 101.791 111.18 101.895 111.276C101.999 111.372 102.051 111.512 102.051 111.696C102.051 111.872 101.999 112.012 101.895 112.116C101.791 112.212 101.643 112.26 101.451 112.26H100.179V114.732C100.179 115.116 100.263 115.404 100.431 115.596C100.599 115.788 100.871 115.884 101.247 115.884C101.383 115.884 101.503 115.872 101.607 115.848C101.711 115.824 101.803 115.808 101.883 115.8C101.979 115.792 102.059 115.824 102.123 115.896C102.187 115.96 102.219 116.096 102.219 116.304C102.219 116.464 102.191 116.608 102.135 116.736C102.087 116.856 101.995 116.94 101.859 116.988C101.755 117.02 101.619 117.048 101.451 117.072C101.283 117.104 101.135 117.12 101.007 117.12ZM105.758 117.12C105.094 117.12 104.522 116.996 104.042 116.748C103.562 116.5 103.19 116.148 102.926 115.692C102.67 115.236 102.542 114.696 102.542 114.072C102.542 113.464 102.666 112.932 102.914 112.476C103.17 112.02 103.518 111.664 103.958 111.408C104.406 111.144 104.914 111.012 105.482 111.012C105.898 111.012 106.27 111.08 106.598 111.216C106.934 111.352 107.218 111.548 107.45 111.804C107.69 112.06 107.87 112.372 107.99 112.74C108.118 113.1 108.182 113.508 108.182 113.964C108.182 114.108 108.13 114.22 108.026 114.3C107.93 114.372 107.79 114.408 107.606 114.408H103.754V113.544H107.126L106.934 113.724C106.934 113.356 106.878 113.048 106.766 112.8C106.662 112.552 106.506 112.364 106.298 112.236C106.098 112.1 105.846 112.032 105.542 112.032C105.206 112.032 104.918 112.112 104.678 112.272C104.446 112.424 104.266 112.644 104.138 112.932C104.018 113.212 103.958 113.548 103.958 113.94V114.024C103.958 114.68 104.11 115.172 104.414 115.5C104.726 115.82 105.182 115.98 105.782 115.98C105.99 115.98 106.222 115.956 106.478 115.908C106.742 115.852 106.99 115.76 107.222 115.632C107.39 115.536 107.538 115.496 107.666 115.512C107.794 115.52 107.894 115.564 107.966 115.644C108.046 115.724 108.094 115.824 108.11 115.944C108.126 116.056 108.102 116.172 108.038 116.292C107.982 116.412 107.882 116.516 107.738 116.604C107.458 116.78 107.134 116.912 106.766 117C106.406 117.08 106.07 117.12 105.758 117.12Z" fill="#64728C"/>
<path d="M41.208 153.244C41.088 153.244 40.992 153.212 40.92 153.148C40.848 153.084 40.804 152.996 40.788 152.884C40.78 152.78 40.8 152.672 40.848 152.56L41.676 150.7V151.12L39.372 145.768C39.324 145.648 39.308 145.536 39.324 145.432C39.34 145.328 39.388 145.244 39.468 145.18C39.548 145.116 39.66 145.084 39.804 145.084C39.932 145.084 40.032 145.112 40.104 145.168C40.176 145.224 40.24 145.324 40.296 145.468L42.264 150.292H41.94L43.932 145.468C43.996 145.324 44.064 145.224 44.136 145.168C44.208 145.112 44.312 145.084 44.448 145.084C44.576 145.084 44.672 145.116 44.736 145.18C44.808 145.244 44.848 145.328 44.856 145.432C44.872 145.528 44.856 145.636 44.808 145.756L41.736 152.86C41.672 153.004 41.6 153.104 41.52 153.16C41.448 153.216 41.344 153.244 41.208 153.244ZM47.5947 153.244C47.4747 153.244 47.3787 153.212 47.3067 153.148C47.2347 153.084 47.1907 152.996 47.1747 152.884C47.1667 152.78 47.1867 152.672 47.2347 152.56L48.0627 150.7V151.12L45.7587 145.768C45.7107 145.648 45.6947 145.536 45.7107 145.432C45.7267 145.328 45.7747 145.244 45.8547 145.18C45.9347 145.116 46.0467 145.084 46.1907 145.084C46.3187 145.084 46.4187 145.112 46.4907 145.168C46.5627 145.224 46.6267 145.324 46.6827 145.468L48.6507 150.292H48.3267L50.3187 145.468C50.3827 145.324 50.4507 145.224 50.5227 145.168C50.5947 145.112 50.6987 145.084 50.8347 145.084C50.9627 145.084 51.0587 145.116 51.1227 145.18C51.1947 145.244 51.2347 145.328 51.2427 145.432C51.2587 145.528 51.2427 145.636 51.1947 145.756L48.1227 152.86C48.0587 153.004 47.9867 153.104 47.9067 153.16C47.8347 153.216 47.7307 153.244 47.5947 153.244ZM53.9814 153.244C53.8614 153.244 53.7654 153.212 53.6934 153.148C53.6214 153.084 53.5774 152.996 53.5614 152.884C53.5534 152.78 53.5734 152.672 53.6214 152.56L54.4494 150.7V151.12L52.1454 145.768C52.0974 145.648 52.0814 145.536 52.0974 145.432C52.1134 145.328 52.1614 145.244 52.2414 145.18C52.3214 145.116 52.4334 145.084 52.5774 145.084C52.7054 145.084 52.8054 145.112 52.8774 145.168C52.9494 145.224 53.0134 145.324 53.0694 145.468L55.0374 150.292H54.7134L56.7054 145.468C56.7694 145.324 56.8374 145.224 56.9094 145.168C56.9814 145.112 57.0854 145.084 57.2214 145.084C57.3494 145.084 57.4454 145.116 57.5094 145.18C57.5814 145.244 57.6214 145.328 57.6294 145.432C57.6454 145.528 57.6294 145.636 57.5814 145.756L54.5094 152.86C54.4454 153.004 54.3734 153.104 54.2934 153.16C54.2214 153.216 54.1174 153.244 53.9814 153.244ZM60.3682 153.244C60.2482 153.244 60.1522 153.212 60.0802 153.148C60.0082 153.084 59.9642 152.996 59.9482 152.884C59.9402 152.78 59.9602 152.672 60.0082 152.56L60.8362 150.7V151.12L58.5322 145.768C58.4842 145.648 58.4682 145.536 58.4842 145.432C58.5002 145.328 58.5482 145.244 58.6282 145.18C58.7082 145.116 58.8202 145.084 58.9642 145.084C59.0922 145.084 59.1922 145.112 59.2642 145.168C59.3362 145.224 59.4002 145.324 59.4562 145.468L61.4242 150.292H61.1002L63.0922 145.468C63.1562 145.324 63.2242 145.224 63.2962 145.168C63.3682 145.112 63.4722 145.084 63.6082 145.084C63.7362 145.084 63.8322 145.116 63.8962 145.18C63.9682 145.244 64.0082 145.328 64.0162 145.432C64.0322 145.528 64.0162 145.636 63.9682 145.756L60.8962 152.86C60.8322 153.004 60.7602 153.104 60.6802 153.16C60.6082 153.216 60.5042 153.244 60.3682 153.244ZM65.3016 148.204C65.1816 148.204 65.0816 148.168 65.0016 148.096C64.9216 148.016 64.8816 147.92 64.8816 147.808C64.8816 147.688 64.9216 147.592 65.0016 147.52C65.0816 147.44 65.1816 147.4 65.3016 147.4H68.0016C68.1136 147.4 68.2096 147.44 68.2896 147.52C68.3696 147.592 68.4096 147.688 68.4096 147.808C68.4096 147.92 68.3696 148.016 68.2896 148.096C68.2096 148.168 68.1136 148.204 68.0016 148.204H65.3016ZM70.6035 151.084C70.4435 151.084 70.3235 151.04 70.2435 150.952C70.1635 150.864 70.1235 150.74 70.1235 150.58V145.576C70.1235 145.416 70.1635 145.296 70.2435 145.216C70.3235 145.128 70.4395 145.084 70.5915 145.084C70.7435 145.084 70.8595 145.128 70.9395 145.216C71.0275 145.296 71.0715 145.416 71.0715 145.576V146.632L70.9395 146.464C71.0915 146.016 71.3355 145.672 71.6715 145.432C72.0155 145.184 72.4235 145.06 72.8955 145.06C73.3915 145.06 73.7915 145.18 74.0955 145.42C74.4075 145.652 74.6155 146.016 74.7195 146.512H74.5395C74.6835 146.064 74.9395 145.712 75.3075 145.456C75.6835 145.192 76.1195 145.06 76.6155 145.06C77.0555 145.06 77.4155 145.144 77.6955 145.312C77.9835 145.48 78.1995 145.736 78.3435 146.08C78.4875 146.416 78.5595 146.844 78.5595 147.364V150.58C78.5595 150.74 78.5155 150.864 78.4275 150.952C78.3475 151.04 78.2275 151.084 78.0675 151.084C77.9155 151.084 77.7955 151.04 77.7075 150.952C77.6275 150.864 77.5875 150.74 77.5875 150.58V147.412C77.5875 146.876 77.4955 146.484 77.3115 146.236C77.1275 145.98 76.8155 145.852 76.3755 145.852C75.8955 145.852 75.5155 146.02 75.2355 146.356C74.9635 146.684 74.8275 147.132 74.8275 147.7V150.58C74.8275 150.74 74.7835 150.864 74.6955 150.952C74.6155 151.04 74.4955 151.084 74.3355 151.084C74.1835 151.084 74.0635 151.04 73.9755 150.952C73.8955 150.864 73.8555 150.74 73.8555 150.58V147.412C73.8555 146.876 73.7595 146.484 73.5675 146.236C73.3835 145.98 73.0755 145.852 72.6435 145.852C72.1635 145.852 71.7835 146.02 71.5035 146.356C71.2315 146.684 71.0955 147.132 71.0955 147.7V150.58C71.0955 150.916 70.9315 151.084 70.6035 151.084ZM80.8808 151.084C80.7208 151.084 80.6008 151.04 80.5208 150.952C80.4408 150.864 80.4008 150.74 80.4008 150.58V145.576C80.4008 145.416 80.4408 145.296 80.5208 145.216C80.6008 145.128 80.7168 145.084 80.8688 145.084C81.0208 145.084 81.1368 145.128 81.2168 145.216C81.3048 145.296 81.3488 145.416 81.3488 145.576V146.632L81.2168 146.464C81.3688 146.016 81.6128 145.672 81.9488 145.432C82.2928 145.184 82.7008 145.06 83.1728 145.06C83.6688 145.06 84.0688 145.18 84.3728 145.42C84.6848 145.652 84.8928 146.016 84.9968 146.512H84.8168C84.9608 146.064 85.2168 145.712 85.5848 145.456C85.9608 145.192 86.3968 145.06 86.8928 145.06C87.3328 145.06 87.6928 145.144 87.9728 145.312C88.2608 145.48 88.4768 145.736 88.6208 146.08C88.7648 146.416 88.8368 146.844 88.8368 147.364V150.58C88.8368 150.74 88.7928 150.864 88.7048 150.952C88.6248 151.04 88.5048 151.084 88.3448 151.084C88.1928 151.084 88.0728 151.04 87.9848 150.952C87.9048 150.864 87.8648 150.74 87.8648 150.58V147.412C87.8648 146.876 87.7728 146.484 87.5888 146.236C87.4048 145.98 87.0928 145.852 86.6528 145.852C86.1728 145.852 85.7928 146.02 85.5128 146.356C85.2408 146.684 85.1048 147.132 85.1048 147.7V150.58C85.1048 150.74 85.0608 150.864 84.9728 150.952C84.8928 151.04 84.7728 151.084 84.6128 151.084C84.4608 151.084 84.3408 151.04 84.2528 150.952C84.1728 150.864 84.1328 150.74 84.1328 150.58V147.412C84.1328 146.876 84.0368 146.484 83.8448 146.236C83.6608 145.98 83.3528 145.852 82.9208 145.852C82.4408 145.852 82.0608 146.02 81.7808 146.356C81.5088 146.684 81.3728 147.132 81.3728 147.7V150.58C81.3728 150.916 81.2088 151.084 80.8808 151.084ZM90.9422 148.204C90.8222 148.204 90.7222 148.168 90.6422 148.096C90.5622 148.016 90.5222 147.92 90.5222 147.808C90.5222 147.688 90.5622 147.592 90.6422 147.52C90.7222 147.44 90.8222 147.4 90.9422 147.4H93.6422C93.7542 147.4 93.8502 147.44 93.9302 147.52C94.0102 147.592 94.0502 147.688 94.0502 147.808C94.0502 147.92 94.0102 148.016 93.9302 148.096C93.8502 148.168 93.7542 148.204 93.6422 148.204H90.9422ZM98.1359 151.108C97.6159 151.108 97.1599 150.984 96.7679 150.736C96.3839 150.488 96.0839 150.14 95.8679 149.692C95.6599 149.236 95.5559 148.7 95.5559 148.084C95.5559 147.46 95.6599 146.924 95.8679 146.476C96.0839 146.02 96.3839 145.672 96.7679 145.432C97.1599 145.184 97.6159 145.06 98.1359 145.06C98.6639 145.06 99.1159 145.192 99.4919 145.456C99.8679 145.72 100.12 146.076 100.248 146.524H100.116V142.948C100.116 142.788 100.156 142.668 100.236 142.588C100.324 142.5 100.448 142.456 100.608 142.456C100.76 142.456 100.876 142.5 100.956 142.588C101.044 142.668 101.088 142.788 101.088 142.948V150.58C101.088 150.74 101.048 150.864 100.968 150.952C100.888 151.04 100.768 151.084 100.608 151.084C100.456 151.084 100.336 151.04 100.248 150.952C100.168 150.864 100.128 150.74 100.128 150.58V149.44L100.26 149.608C100.132 150.064 99.8759 150.428 99.4919 150.7C99.1159 150.972 98.6639 151.108 98.1359 151.108ZM98.3399 150.328C98.6999 150.328 99.0159 150.24 99.2879 150.064C99.5599 149.888 99.7679 149.632 99.9119 149.296C100.064 148.96 100.14 148.556 100.14 148.084C100.14 147.356 99.9759 146.8 99.6479 146.416C99.3279 146.032 98.8919 145.84 98.3399 145.84C97.9719 145.84 97.6519 145.928 97.3799 146.104C97.1159 146.272 96.9079 146.524 96.7559 146.86C96.6119 147.188 96.5399 147.596 96.5399 148.084C96.5399 148.804 96.7039 149.36 97.0319 149.752C97.3599 150.136 97.7959 150.328 98.3399 150.328ZM105.132 151.108C104.612 151.108 104.156 150.984 103.764 150.736C103.38 150.488 103.08 150.14 102.864 149.692C102.656 149.236 102.552 148.7 102.552 148.084C102.552 147.46 102.656 146.924 102.864 146.476C103.08 146.02 103.38 145.672 103.764 145.432C104.156 145.184 104.612 145.06 105.132 145.06C105.66 145.06 106.112 145.192 106.488 145.456C106.864 145.72 107.116 146.076 107.244 146.524H107.112V142.948C107.112 142.788 107.152 142.668 107.232 142.588C107.32 142.5 107.444 142.456 107.604 142.456C107.756 142.456 107.872 142.5 107.952 142.588C108.04 142.668 108.084 142.788 108.084 142.948V150.58C108.084 150.74 108.044 150.864 107.964 150.952C107.884 151.04 107.764 151.084 107.604 151.084C107.452 151.084 107.332 151.04 107.244 150.952C107.164 150.864 107.124 150.74 107.124 150.58V149.44L107.256 149.608C107.128 150.064 106.872 150.428 106.488 150.7C106.112 150.972 105.66 151.108 105.132 151.108ZM105.336 150.328C105.696 150.328 106.012 150.24 106.284 150.064C106.556 149.888 106.764 149.632 106.908 149.296C107.06 148.96 107.136 148.556 107.136 148.084C107.136 147.356 106.972 146.8 106.644 146.416C106.324 146.032 105.888 145.84 105.336 145.84C104.968 145.84 104.648 145.928 104.376 146.104C104.112 146.272 103.904 146.524 103.752 146.86C103.608 147.188 103.536 147.596 103.536 148.084C103.536 148.804 103.7 149.36 104.028 149.752C104.356 150.136 104.792 150.328 105.336 150.328Z" fill="#929BAA"/>
<rect x="284" y="129" width="36" height="36" rx="10" fill="#F1F2F5"/>
<g clip-path="url(#clip0_1207_13119)">
<path d="M297.638 154C297.677 153.957 297.732 153.975 297.779 153.975C300.589 153.975 303.399 153.975 306.209 153.975C306.257 153.975 306.311 153.957 306.351 154H297.638Z" fill="#222222"/>
<path d="M308.953 143.114C308.822 142.579 308.522 142.095 308.094 141.726C307.71 141.395 307.258 141.156 306.73 141.091C306.522 141.063 306.314 141.048 306.104 141.046C305.791 141.046 305.817 141.071 305.817 140.774C305.817 140.601 305.82 140.429 305.733 140.268C305.621 140.063 305.436 140.004 305.211 140.008C304.992 140.013 304.829 140.094 304.727 140.286C304.631 140.465 304.645 140.655 304.645 140.844C304.645 141.046 304.645 141.047 304.434 141.047C302.814 141.047 301.194 141.047 299.574 141.047C299.561 141.047 299.547 141.047 299.533 141.047C299.384 141.044 299.374 141.035 299.372 140.889C299.372 140.779 299.38 140.672 299.369 140.565C299.35 140.382 299.295 140.214 299.13 140.103C298.938 139.974 298.723 139.977 298.516 140.055C298.304 140.136 298.226 140.32 298.202 140.523C298.187 140.642 298.199 140.764 298.197 140.885C298.195 141.034 298.183 141.049 298.023 141.045C297.783 141.043 297.542 141.057 297.304 141.088C296.975 141.128 296.679 141.253 296.39 141.409C295.953 141.645 295.626 141.975 295.375 142.38C295.108 142.811 295 143.278 295 143.78C295.007 146.303 295.008 148.826 295.002 151.35C295.002 151.699 295.052 152.037 295.194 152.362C295.438 152.913 295.817 153.354 296.357 153.662C296.672 153.844 297.025 153.959 297.391 154H297.637C297.684 153.975 297.735 153.987 297.784 153.987C300.59 153.987 303.396 153.987 306.202 153.987C306.251 153.987 306.302 153.975 306.349 154H306.541C306.725 153.985 306.906 153.951 307.082 153.9C307.834 153.678 308.357 153.211 308.717 152.562C308.881 152.269 308.977 151.946 309 151.614V143.496C308.972 143.37 308.986 143.239 308.953 143.114ZM296.105 144.18C296.114 143.852 296.087 143.524 296.221 143.209C296.351 142.896 296.577 142.626 296.868 142.435C297.193 142.216 297.549 142.179 297.923 142.182C298.239 142.182 298.239 142.182 298.239 142.483C298.239 142.747 298.234 143.01 298.241 143.274C298.247 143.53 298.424 143.733 298.663 143.78C298.78 143.804 298.901 143.791 299.009 143.744C299.118 143.696 299.207 143.617 299.263 143.517C299.31 143.423 299.333 143.32 299.329 143.216C299.329 142.905 299.332 142.596 299.329 142.283C299.329 142.204 299.348 142.18 299.434 142.18C301.149 142.183 302.865 142.183 304.582 142.18C304.665 142.18 304.689 142.2 304.688 142.281C304.683 142.605 304.681 142.929 304.688 143.253C304.697 143.648 305.078 143.898 305.441 143.751C305.672 143.658 305.775 143.481 305.778 143.249C305.781 142.929 305.781 142.61 305.778 142.29C305.778 142.208 305.795 142.178 305.889 142.18C306.196 142.188 306.511 142.154 306.807 142.264C307.439 142.5 307.865 143.023 307.906 143.713C307.917 143.881 307.906 144.05 307.911 144.218C307.914 144.291 307.89 144.312 307.813 144.311C307.508 144.307 307.203 144.311 306.898 144.311H302.009C300.089 144.311 298.169 144.312 296.249 144.313C296.137 144.312 296.102 144.292 296.105 144.18ZM306.7 152.84C306.541 152.882 306.378 152.906 306.214 152.91C303.411 152.91 300.608 152.91 297.805 152.91C297.376 152.915 296.961 152.763 296.647 152.485C296.31 152.193 296.116 151.811 296.114 151.375C296.105 149.413 296.111 147.451 296.107 145.489C296.107 145.369 296.178 145.395 296.246 145.395H302.006C303.926 145.395 305.846 145.394 307.766 145.393C307.879 145.393 307.908 145.418 307.908 145.526C307.904 147.427 307.898 149.329 307.908 151.23C307.915 151.93 307.468 152.654 306.7 152.84Z" fill="#64728C"/>
<path d="M298.752 150.004C298.916 150.004 299.08 149.999 299.244 150.004C299.334 150.009 299.422 150.032 299.502 150.072C299.582 150.112 299.652 150.168 299.707 150.235C299.763 150.303 299.802 150.381 299.823 150.465C299.844 150.548 299.846 150.635 299.828 150.719C299.797 150.888 299.717 151.021 299.577 151.105C299.459 151.178 299.335 151.232 299.186 151.227C298.876 151.214 298.565 151.236 298.256 151.22C297.865 151.2 297.584 150.864 297.68 150.449C297.734 150.213 298.025 150.005 298.231 150.003C298.405 150.003 298.578 150.004 298.752 150.004Z" fill="#64728C"/>
<path d="M305.223 150.004C305.388 150.004 305.552 149.999 305.716 150.004C306.105 150.018 306.385 150.369 306.299 150.757C306.242 151.011 305.964 151.217 305.734 151.221C305.401 151.228 305.068 151.234 304.736 151.221C304.364 151.206 304.083 150.893 304.147 150.496C304.189 150.234 304.48 150.01 304.704 150.005C304.877 150.001 305.05 150.004 305.223 150.004Z" fill="#64728C"/>
<path d="M301.992 150.004C302.152 150.004 302.311 150.001 302.471 150.004C302.835 150.013 303.129 150.335 303.064 150.712C303.036 150.875 302.962 151.007 302.829 151.094C302.708 151.172 302.582 151.231 302.428 151.227C302.114 151.216 301.798 151.227 301.484 151.223C301.244 151.22 300.95 151.001 300.908 150.738C300.862 150.454 300.985 150.199 301.233 150.073C301.336 150.021 301.452 149.997 301.568 150.003C301.709 150.006 301.851 150.004 301.992 150.004Z" fill="#64728C"/>
<path d="M305.264 147.107C305.437 147.107 305.612 147.116 305.785 147.107C306.178 147.084 306.501 147.614 306.281 148.005C306.177 148.192 306.02 148.297 305.812 148.297C305.447 148.302 305.083 148.304 304.715 148.297C304.479 148.292 304.305 148.17 304.219 147.94C304.177 147.837 304.165 147.726 304.183 147.617C304.201 147.508 304.249 147.406 304.321 147.32C304.374 147.248 304.446 147.19 304.529 147.153C304.613 147.115 304.706 147.1 304.798 147.108C304.953 147.114 305.108 147.107 305.264 147.107Z" fill="#64728C"/>
<path d="M298.782 148.299C298.603 148.299 298.425 148.303 298.247 148.299C298.011 148.291 297.835 148.176 297.748 147.948C297.656 147.713 297.699 147.499 297.861 147.303C297.984 147.154 298.133 147.104 298.316 147.107C298.645 147.113 298.975 147.122 299.303 147.105C299.62 147.087 299.885 147.441 299.879 147.713C299.871 148.056 299.642 148.297 299.303 148.3C299.129 148.301 298.955 148.299 298.782 148.299Z" fill="#64728C"/>
<path d="M302.023 147.108C302.206 147.108 302.389 147.115 302.572 147.108C302.851 147.094 303.117 147.44 303.109 147.708C303.103 148.036 302.888 148.291 302.582 148.297C302.212 148.306 301.841 148.304 301.471 148.297C301.246 148.293 301.077 148.178 300.986 147.965C300.94 147.866 300.922 147.757 300.934 147.649C300.946 147.542 300.987 147.439 301.054 147.351C301.175 147.179 301.333 147.095 301.542 147.106C301.703 147.114 301.863 147.107 302.023 147.108Z" fill="#64728C"/>
</g>
<rect x="25.5" y="205.5" width="299" height="43" rx="9.5" fill="white" stroke="#E8EAEF"/>
<path d="M28.84 197.12C28.488 197.12 28.136 197.092 27.784 197.036C27.432 196.988 27.1 196.912 26.788 196.808C26.476 196.696 26.196 196.56 25.948 196.4C25.804 196.304 25.704 196.188 25.648 196.052C25.592 195.916 25.572 195.784 25.588 195.656C25.612 195.52 25.664 195.404 25.744 195.308C25.832 195.204 25.94 195.14 26.068 195.116C26.196 195.092 26.336 195.128 26.488 195.224C26.84 195.432 27.212 195.584 27.604 195.68C27.996 195.776 28.408 195.824 28.84 195.824C29.472 195.824 29.932 195.72 30.22 195.512C30.508 195.296 30.652 195.02 30.652 194.684C30.652 194.404 30.548 194.184 30.34 194.024C30.14 193.864 29.792 193.732 29.296 193.628L27.976 193.352C27.216 193.192 26.648 192.924 26.272 192.548C25.904 192.164 25.72 191.66 25.72 191.036C25.72 190.644 25.8 190.288 25.96 189.968C26.12 189.648 26.344 189.372 26.632 189.14C26.928 188.908 27.276 188.732 27.676 188.612C28.084 188.484 28.532 188.42 29.02 188.42C29.5 188.42 29.956 188.48 30.388 188.6C30.82 188.72 31.208 188.896 31.552 189.128C31.68 189.216 31.764 189.324 31.804 189.452C31.852 189.58 31.864 189.708 31.84 189.836C31.816 189.956 31.76 190.06 31.672 190.148C31.584 190.236 31.472 190.288 31.336 190.304C31.208 190.32 31.06 190.28 30.892 190.184C30.596 190.016 30.296 189.896 29.992 189.824C29.688 189.752 29.36 189.716 29.008 189.716C28.64 189.716 28.324 189.768 28.06 189.872C27.796 189.976 27.592 190.124 27.448 190.316C27.312 190.5 27.244 190.72 27.244 190.976C27.244 191.264 27.34 191.496 27.532 191.672C27.724 191.84 28.052 191.972 28.516 192.068L29.824 192.344C30.616 192.512 31.204 192.776 31.588 193.136C31.98 193.496 32.176 193.976 32.176 194.576C32.176 194.96 32.096 195.308 31.936 195.62C31.784 195.932 31.56 196.2 31.264 196.424C30.976 196.648 30.628 196.82 30.22 196.94C29.812 197.06 29.352 197.12 28.84 197.12ZM35.9797 197.12C35.4597 197.12 35.0237 197.032 34.6717 196.856C34.3277 196.68 34.0717 196.424 33.9037 196.088C33.7357 195.744 33.6517 195.32 33.6517 194.816V192.26H33.0277C32.8357 192.26 32.6877 192.212 32.5837 192.116C32.4797 192.012 32.4277 191.872 32.4277 191.696C32.4277 191.512 32.4797 191.372 32.5837 191.276C32.6877 191.18 32.8357 191.132 33.0277 191.132H33.6517V190.04C33.6517 189.792 33.7157 189.604 33.8437 189.476C33.9797 189.348 34.1677 189.284 34.4077 189.284C34.6477 189.284 34.8317 189.348 34.9597 189.476C35.0877 189.604 35.1517 189.792 35.1517 190.04V191.132H36.4237C36.6157 191.132 36.7637 191.18 36.8677 191.276C36.9717 191.372 37.0237 191.512 37.0237 191.696C37.0237 191.872 36.9717 192.012 36.8677 192.116C36.7637 192.212 36.6157 192.26 36.4237 192.26H35.1517V194.732C35.1517 195.116 35.2357 195.404 35.4037 195.596C35.5717 195.788 35.8437 195.884 36.2197 195.884C36.3557 195.884 36.4757 195.872 36.5797 195.848C36.6837 195.824 36.7757 195.808 36.8557 195.8C36.9517 195.792 37.0317 195.824 37.0957 195.896C37.1597 195.96 37.1917 196.096 37.1917 196.304C37.1917 196.464 37.1637 196.608 37.1077 196.736C37.0597 196.856 36.9677 196.94 36.8317 196.988C36.7277 197.02 36.5917 197.048 36.4237 197.072C36.2557 197.104 36.1077 197.12 35.9797 197.12ZM39.8292 197.12C39.4052 197.12 39.0252 197.04 38.6892 196.88C38.3612 196.712 38.1012 196.488 37.9092 196.208C37.7252 195.928 37.6332 195.612 37.6332 195.26C37.6332 194.828 37.7452 194.488 37.9692 194.24C38.1932 193.984 38.5572 193.8 39.0612 193.688C39.5652 193.576 40.2412 193.52 41.0892 193.52H41.6892V194.384H41.1012C40.6052 194.384 40.2092 194.408 39.9132 194.456C39.6172 194.504 39.4052 194.588 39.2772 194.708C39.1572 194.82 39.0972 194.98 39.0972 195.188C39.0972 195.452 39.1892 195.668 39.3732 195.836C39.5572 196.004 39.8132 196.088 40.1412 196.088C40.4052 196.088 40.6372 196.028 40.8372 195.908C41.0452 195.78 41.2092 195.608 41.3292 195.392C41.4492 195.176 41.5092 194.928 41.5092 194.648V193.268C41.5092 192.868 41.4212 192.58 41.2452 192.404C41.0692 192.228 40.7732 192.14 40.3572 192.14C40.1252 192.14 39.8732 192.168 39.6012 192.224C39.3372 192.28 39.0572 192.376 38.7612 192.512C38.6092 192.584 38.4732 192.604 38.3532 192.572C38.2412 192.54 38.1532 192.476 38.0892 192.38C38.0252 192.276 37.9932 192.164 37.9932 192.044C37.9932 191.924 38.0252 191.808 38.0892 191.696C38.1532 191.576 38.2612 191.488 38.4132 191.432C38.7812 191.28 39.1332 191.172 39.4692 191.108C39.8132 191.044 40.1252 191.012 40.4052 191.012C40.9812 191.012 41.4532 191.1 41.8212 191.276C42.1972 191.452 42.4772 191.72 42.6612 192.08C42.8452 192.432 42.9372 192.888 42.9372 193.448V196.328C42.9372 196.576 42.8772 196.768 42.7572 196.904C42.6372 197.032 42.4652 197.096 42.2412 197.096C42.0172 197.096 41.8412 197.032 41.7132 196.904C41.5932 196.768 41.5332 196.576 41.5332 196.328V195.752H41.6292C41.5732 196.032 41.4612 196.276 41.2932 196.484C41.1332 196.684 40.9292 196.84 40.6812 196.952C40.4332 197.064 40.1492 197.12 39.8292 197.12ZM47.1477 197.12C46.6277 197.12 46.1917 197.032 45.8397 196.856C45.4957 196.68 45.2397 196.424 45.0717 196.088C44.9037 195.744 44.8197 195.32 44.8197 194.816V192.26H44.1957C44.0037 192.26 43.8557 192.212 43.7517 192.116C43.6477 192.012 43.5957 191.872 43.5957 191.696C43.5957 191.512 43.6477 191.372 43.7517 191.276C43.8557 191.18 44.0037 191.132 44.1957 191.132H44.8197V190.04C44.8197 189.792 44.8837 189.604 45.0117 189.476C45.1477 189.348 45.3357 189.284 45.5757 189.284C45.8157 189.284 45.9997 189.348 46.1277 189.476C46.2557 189.604 46.3197 189.792 46.3197 190.04V191.132H47.5917C47.7837 191.132 47.9317 191.18 48.0357 191.276C48.1397 191.372 48.1917 191.512 48.1917 191.696C48.1917 191.872 48.1397 192.012 48.0357 192.116C47.9317 192.212 47.7837 192.26 47.5917 192.26H46.3197V194.732C46.3197 195.116 46.4037 195.404 46.5717 195.596C46.7397 195.788 47.0117 195.884 47.3877 195.884C47.5237 195.884 47.6437 195.872 47.7477 195.848C47.8517 195.824 47.9437 195.808 48.0237 195.8C48.1197 195.792 48.1997 195.824 48.2637 195.896C48.3277 195.96 48.3597 196.096 48.3597 196.304C48.3597 196.464 48.3317 196.608 48.2757 196.736C48.2277 196.856 48.1357 196.94 47.9997 196.988C47.8957 197.02 47.7597 197.048 47.5917 197.072C47.4237 197.104 47.2757 197.12 47.1477 197.12ZM51.1892 197.12C50.7012 197.12 50.2972 197.032 49.9772 196.856C49.6572 196.672 49.4172 196.4 49.2572 196.04C49.1052 195.68 49.0292 195.232 49.0292 194.696V191.792C49.0292 191.536 49.0932 191.348 49.2212 191.228C49.3492 191.1 49.5332 191.036 49.7732 191.036C50.0132 191.036 50.1972 191.1 50.3252 191.228C50.4612 191.348 50.5292 191.536 50.5292 191.792V194.72C50.5292 195.136 50.6132 195.444 50.7812 195.644C50.9492 195.844 51.2172 195.944 51.5852 195.944C51.9852 195.944 52.3132 195.808 52.5692 195.536C52.8252 195.256 52.9532 194.888 52.9532 194.432V191.792C52.9532 191.536 53.0172 191.348 53.1452 191.228C53.2732 191.1 53.4572 191.036 53.6972 191.036C53.9372 191.036 54.1212 191.1 54.2492 191.228C54.3852 191.348 54.4532 191.536 54.4532 191.792V196.328C54.4532 196.84 54.2092 197.096 53.7212 197.096C53.4892 197.096 53.3092 197.032 53.1812 196.904C53.0532 196.768 52.9892 196.576 52.9892 196.328V195.416L53.1572 195.776C52.9892 196.208 52.7332 196.54 52.3892 196.772C52.0532 197.004 51.6532 197.12 51.1892 197.12ZM58.1624 197.12C57.8184 197.12 57.4544 197.084 57.0704 197.012C56.6864 196.94 56.3424 196.816 56.0384 196.64C55.9104 196.56 55.8184 196.468 55.7624 196.364C55.7144 196.252 55.6944 196.144 55.7024 196.04C55.7184 195.928 55.7584 195.832 55.8224 195.752C55.8944 195.672 55.9824 195.62 56.0864 195.596C56.1984 195.572 56.3184 195.592 56.4464 195.656C56.7664 195.808 57.0664 195.916 57.3464 195.98C57.6264 196.036 57.9024 196.064 58.1744 196.064C58.5584 196.064 58.8424 196 59.0264 195.872C59.2184 195.736 59.3144 195.56 59.3144 195.344C59.3144 195.16 59.2504 195.02 59.1224 194.924C59.0024 194.82 58.8184 194.744 58.5704 194.696L57.3704 194.468C56.8744 194.372 56.4944 194.192 56.2304 193.928C55.9744 193.656 55.8464 193.308 55.8464 192.884C55.8464 192.5 55.9504 192.168 56.1584 191.888C56.3744 191.608 56.6704 191.392 57.0464 191.24C57.4224 191.088 57.8544 191.012 58.3424 191.012C58.6944 191.012 59.0224 191.052 59.3264 191.132C59.6384 191.204 59.9384 191.32 60.2264 191.48C60.3464 191.544 60.4264 191.628 60.4664 191.732C60.5144 191.836 60.5264 191.944 60.5024 192.056C60.4784 192.16 60.4304 192.256 60.3584 192.344C60.2864 192.424 60.1944 192.476 60.0824 192.5C59.9784 192.516 59.8584 192.492 59.7224 192.428C59.4744 192.3 59.2344 192.208 59.0024 192.152C58.7784 192.096 58.5624 192.068 58.3544 192.068C57.9624 192.068 57.6704 192.136 57.4784 192.272C57.2944 192.408 57.2024 192.588 57.2024 192.812C57.2024 192.98 57.2584 193.12 57.3704 193.232C57.4824 193.344 57.6544 193.42 57.8864 193.46L59.0864 193.688C59.6064 193.784 59.9984 193.96 60.2624 194.216C60.5344 194.472 60.6704 194.816 60.6704 195.248C60.6704 195.832 60.4424 196.292 59.9864 196.628C59.5304 196.956 58.9224 197.12 58.1624 197.12Z" fill="#64728C"/>
<path d="M40.536 231.084C40.376 231.084 40.252 231.04 40.164 230.952C40.084 230.856 40.044 230.728 40.044 230.568V223.044C40.044 222.876 40.088 222.752 40.176 222.672C40.264 222.584 40.388 222.54 40.548 222.54H43.392C44.296 222.54 44.992 222.764 45.48 223.212C45.968 223.652 46.212 224.276 46.212 225.084C46.212 225.884 45.968 226.508 45.48 226.956C44.992 227.404 44.296 227.628 43.392 227.628H41.028V230.568C41.028 230.728 40.988 230.856 40.908 230.952C40.828 231.04 40.704 231.084 40.536 231.084ZM41.028 226.8H43.272C43.92 226.8 44.408 226.656 44.736 226.368C45.072 226.072 45.24 225.644 45.24 225.084C45.24 224.516 45.072 224.088 44.736 223.8C44.408 223.504 43.92 223.356 43.272 223.356H41.028V226.8ZM49.8759 231.108C49.2599 231.108 48.7279 230.988 48.2799 230.748C47.8399 230.5 47.4959 230.152 47.2479 229.704C47.0079 229.256 46.8879 228.72 46.8879 228.096C46.8879 227.488 47.0079 226.96 47.2479 226.512C47.4879 226.056 47.8159 225.7 48.2319 225.444C48.6559 225.188 49.1439 225.06 49.6959 225.06C50.0879 225.06 50.4399 225.128 50.7519 225.264C51.0639 225.392 51.3279 225.58 51.5439 225.828C51.7679 226.076 51.9359 226.376 52.0479 226.728C52.1679 227.08 52.2279 227.476 52.2279 227.916C52.2279 228.044 52.1919 228.14 52.1199 228.204C52.0479 228.26 51.9439 228.288 51.8079 228.288H47.6319V227.652H51.5799L51.3879 227.808C51.3879 227.376 51.3239 227.012 51.1959 226.716C51.0679 226.412 50.8799 226.18 50.6319 226.02C50.3919 225.86 50.0879 225.78 49.7199 225.78C49.3119 225.78 48.9639 225.876 48.6759 226.068C48.3959 226.252 48.1839 226.512 48.0399 226.848C47.8959 227.176 47.8239 227.56 47.8239 228V228.072C47.8239 228.808 47.9999 229.368 48.3519 229.752C48.7119 230.136 49.2199 230.328 49.8759 230.328C50.1479 230.328 50.4159 230.292 50.6799 230.22C50.9519 230.148 51.2159 230.028 51.4719 229.86C51.5839 229.788 51.6839 229.756 51.7719 229.764C51.8679 229.764 51.9439 229.792 51.9999 229.848C52.0559 229.896 52.0919 229.96 52.1079 230.04C52.1319 230.112 52.1239 230.192 52.0839 230.28C52.0519 230.368 51.9839 230.444 51.8799 230.508C51.6159 230.7 51.3039 230.848 50.9439 230.952C50.5839 231.056 50.2279 231.108 49.8759 231.108ZM54.1147 231.084C53.9547 231.084 53.8347 231.04 53.7547 230.952C53.6747 230.864 53.6347 230.74 53.6347 230.58V225.576C53.6347 225.416 53.6747 225.296 53.7547 225.216C53.8347 225.128 53.9507 225.084 54.1027 225.084C54.2547 225.084 54.3707 225.128 54.4507 225.216C54.5387 225.296 54.5827 225.416 54.5827 225.576V226.608L54.4507 226.464C54.6187 226 54.8907 225.652 55.2667 225.42C55.6507 225.18 56.0907 225.06 56.5867 225.06C57.0507 225.06 57.4347 225.144 57.7387 225.312C58.0507 225.48 58.2827 225.736 58.4347 226.08C58.5867 226.416 58.6627 226.844 58.6627 227.364V230.58C58.6627 230.74 58.6187 230.864 58.5307 230.952C58.4507 231.04 58.3347 231.084 58.1827 231.084C58.0227 231.084 57.8987 231.04 57.8107 230.952C57.7307 230.864 57.6907 230.74 57.6907 230.58V227.424C57.6907 226.88 57.5827 226.484 57.3667 226.236C57.1587 225.98 56.8227 225.852 56.3587 225.852C55.8227 225.852 55.3947 226.02 55.0747 226.356C54.7627 226.684 54.6067 227.124 54.6067 227.676V230.58C54.6067 230.916 54.4427 231.084 54.1147 231.084ZM62.675 231.108C62.155 231.108 61.699 230.984 61.307 230.736C60.923 230.488 60.623 230.14 60.407 229.692C60.199 229.236 60.095 228.7 60.095 228.084C60.095 227.46 60.199 226.924 60.407 226.476C60.623 226.02 60.923 225.672 61.307 225.432C61.699 225.184 62.155 225.06 62.675 225.06C63.203 225.06 63.655 225.192 64.031 225.456C64.407 225.72 64.659 226.076 64.787 226.524H64.655V222.948C64.655 222.788 64.695 222.668 64.775 222.588C64.863 222.5 64.987 222.456 65.147 222.456C65.299 222.456 65.415 222.5 65.495 222.588C65.583 222.668 65.627 222.788 65.627 222.948V230.58C65.627 230.74 65.587 230.864 65.507 230.952C65.427 231.04 65.307 231.084 65.147 231.084C64.995 231.084 64.875 231.04 64.787 230.952C64.707 230.864 64.667 230.74 64.667 230.58V229.44L64.799 229.608C64.671 230.064 64.415 230.428 64.031 230.7C63.655 230.972 63.203 231.108 62.675 231.108ZM62.879 230.328C63.239 230.328 63.555 230.24 63.827 230.064C64.099 229.888 64.307 229.632 64.451 229.296C64.603 228.96 64.679 228.556 64.679 228.084C64.679 227.356 64.515 226.8 64.187 226.416C63.867 226.032 63.431 225.84 62.879 225.84C62.511 225.84 62.191 225.928 61.919 226.104C61.655 226.272 61.447 226.524 61.295 226.86C61.151 227.188 61.079 227.596 61.079 228.084C61.079 228.804 61.243 229.36 61.571 229.752C61.899 230.136 62.335 230.328 62.879 230.328ZM67.9311 231.06C67.7711 231.06 67.6511 231.016 67.5711 230.928C67.4911 230.832 67.4511 230.7 67.4511 230.532V225.624C67.4511 225.456 67.4911 225.328 67.5711 225.24C67.6511 225.152 67.7711 225.108 67.9311 225.108C68.0831 225.108 68.2031 225.152 68.2911 225.24C68.3791 225.328 68.4231 225.456 68.4231 225.624V230.532C68.4231 230.7 68.3791 230.832 68.2911 230.928C68.2111 231.016 68.0911 231.06 67.9311 231.06ZM67.9311 223.764C67.7311 223.764 67.5751 223.712 67.4631 223.608C67.3511 223.496 67.2951 223.348 67.2951 223.164C67.2951 222.972 67.3511 222.828 67.4631 222.732C67.5751 222.628 67.7311 222.576 67.9311 222.576C68.1391 222.576 68.2951 222.628 68.3991 222.732C68.5111 222.828 68.5671 222.972 68.5671 223.164C68.5671 223.348 68.5111 223.496 68.3991 223.608C68.2951 223.712 68.1391 223.764 67.9311 223.764ZM70.7201 231.084C70.5601 231.084 70.4401 231.04 70.3601 230.952C70.2801 230.864 70.2401 230.74 70.2401 230.58V225.576C70.2401 225.416 70.2801 225.296 70.3601 225.216C70.4401 225.128 70.5561 225.084 70.7081 225.084C70.8601 225.084 70.9761 225.128 71.0561 225.216C71.1441 225.296 71.1881 225.416 71.1881 225.576V226.608L71.0561 226.464C71.2241 226 71.4961 225.652 71.8721 225.42C72.2561 225.18 72.6961 225.06 73.1921 225.06C73.6561 225.06 74.0401 225.144 74.3441 225.312C74.6561 225.48 74.8881 225.736 75.0401 226.08C75.1921 226.416 75.2681 226.844 75.2681 227.364V230.58C75.2681 230.74 75.2241 230.864 75.1361 230.952C75.0561 231.04 74.9401 231.084 74.7881 231.084C74.6281 231.084 74.5041 231.04 74.4161 230.952C74.3361 230.864 74.2961 230.74 74.2961 230.58V227.424C74.2961 226.88 74.1881 226.484 73.9721 226.236C73.7641 225.98 73.4281 225.852 72.9641 225.852C72.4281 225.852 72.0001 226.02 71.6801 226.356C71.3681 226.684 71.2121 227.124 71.2121 227.676V230.58C71.2121 230.916 71.0481 231.084 70.7201 231.084ZM79.6404 233.268C79.2164 233.268 78.8004 233.216 78.3924 233.112C77.9924 233.016 77.6284 232.86 77.3004 232.644C77.2044 232.588 77.1404 232.52 77.1084 232.44C77.0844 232.36 77.0804 232.28 77.0964 232.2C77.1124 232.128 77.1484 232.06 77.2044 231.996C77.2604 231.94 77.3244 231.904 77.3964 231.888C77.4764 231.872 77.5564 231.884 77.6364 231.924C77.9884 232.14 78.3244 232.288 78.6444 232.368C78.9644 232.448 79.2804 232.488 79.5924 232.488C80.1604 232.488 80.5884 232.336 80.8764 232.032C81.1724 231.728 81.3204 231.288 81.3204 230.712V229.356H81.4404C81.3204 229.82 81.0644 230.188 80.6724 230.46C80.2884 230.732 79.8364 230.868 79.3164 230.868C78.7804 230.868 78.3164 230.748 77.9244 230.508C77.5324 230.26 77.2284 229.916 77.0124 229.476C76.8044 229.036 76.7004 228.528 76.7004 227.952C76.7004 227.52 76.7604 227.128 76.8804 226.776C77.0004 226.416 77.1724 226.112 77.3964 225.864C77.6284 225.608 77.9044 225.412 78.2244 225.276C78.5524 225.132 78.9164 225.06 79.3164 225.06C79.8444 225.06 80.3004 225.196 80.6844 225.468C81.0684 225.732 81.3164 226.092 81.4284 226.548L81.3084 226.692V225.576C81.3084 225.416 81.3484 225.296 81.4284 225.216C81.5164 225.128 81.6364 225.084 81.7884 225.084C81.9484 225.084 82.0684 225.128 82.1484 225.216C82.2284 225.296 82.2684 225.416 82.2684 225.576V230.58C82.2684 231.468 82.0444 232.136 81.5964 232.584C81.1564 233.04 80.5044 233.268 79.6404 233.268ZM79.4964 230.076C79.8724 230.076 80.1964 229.992 80.4684 229.824C80.7404 229.648 80.9484 229.4 81.0924 229.08C81.2444 228.76 81.3204 228.384 81.3204 227.952C81.3204 227.304 81.1564 226.792 80.8284 226.416C80.5004 226.032 80.0564 225.84 79.4964 225.84C79.1284 225.84 78.8084 225.928 78.5364 226.104C78.2644 226.272 78.0524 226.516 77.9004 226.836C77.7564 227.148 77.6844 227.52 77.6844 227.952C77.6844 228.6 77.8484 229.116 78.1764 229.5C78.5044 229.884 78.9444 230.076 79.4964 230.076Z" fill="#929BAA"/>
<rect x="284" y="209" width="36" height="36" rx="10" fill="#F1F2F5"/>
<path d="M303.039 231.2C302.577 232 301.423 232 300.961 231.2L297.843 225.8C297.381 225 297.959 224 298.882 224L305.118 224C306.041 224 306.619 225 306.157 225.8L303.039 231.2Z" fill="#64728C"/>
<defs>
<clipPath id="clip0_1207_13119">
<rect width="14" height="14" fill="white" transform="translate(295 140)"/>
</clipPath>
</defs>
</svg>
