<svg width="410" height="141" viewBox="0 0 410 141" fill="none" xmlns="http://www.w3.org/2000/svg">
<path d="M6.97607 1.87541C3.10967 1.87541 0.000683707 4.42166 0.000683707 7.56291C0.000683707 8.91971 0.584473 10.16 1.55846 11.1367C1.21666 12.514 0.0745118 13.7418 0.06084 13.7555C-0.000683483 13.817 -0.0177733 13.9122 0.0198243 13.9943C0.0539767 14.0763 0.129774 14.1246 0.218641 14.1246C2.03016 14.1246 3.36591 13.2562 4.06317 12.7194C4.9554 13.0544 5.95044 13.2496 6.99989 13.2496C10.8663 13.2496 13.9753 10.7031 13.9753 7.5867C13.9753 4.47033 10.8425 1.87541 6.97607 1.87541ZM3.45147 8.43791C2.96611 8.43791 2.57647 8.04826 2.57647 7.58752C2.57647 7.12678 2.96611 6.71252 3.45147 6.71252C3.93682 6.71252 4.32647 7.10217 4.32647 7.58752C4.32647 8.07287 3.96006 8.43791 3.45147 8.43791ZM6.97607 8.43791C6.49072 8.43791 6.12568 8.04826 6.12568 7.58752C6.12568 7.12678 6.51533 6.71252 6.97607 6.71252C7.43682 6.71252 7.82647 7.10217 7.82647 7.58752C7.82647 8.07287 7.46279 8.43791 6.97607 8.43791ZM10.4515 8.43791C9.96611 8.43791 9.57646 8.04826 9.57646 7.58752C9.57646 7.12678 9.96611 6.71252 10.4515 6.71252C10.9368 6.71252 11.3265 7.10217 11.3265 7.58752C11.3265 8.07287 10.9601 8.43791 10.4515 8.43791Z" fill="#64728C"/>
<path d="M23.7511 12.108C22.8951 12.108 22.1631 11.932 21.5551 11.58C20.9471 11.228 20.4791 10.728 20.1511 10.08C19.8311 9.424 19.6711 8.652 19.6711 7.764C19.6711 7.1 19.7631 6.504 19.9471 5.976C20.1311 5.44 20.3951 4.984 20.7391 4.608C21.0911 4.224 21.5191 3.932 22.0231 3.732C22.5351 3.532 23.1111 3.432 23.7511 3.432C24.2231 3.432 24.6751 3.496 25.1071 3.624C25.5471 3.752 25.9271 3.936 26.2471 4.176C26.3831 4.264 26.4711 4.372 26.5111 4.5C26.5591 4.62 26.5671 4.736 26.5351 4.848C26.5111 4.96 26.4591 5.056 26.3791 5.136C26.2991 5.208 26.1951 5.248 26.0671 5.256C25.9471 5.264 25.8151 5.22 25.6711 5.124C25.4071 4.924 25.1151 4.776 24.7951 4.68C24.4751 4.584 24.1391 4.536 23.7871 4.536C23.1791 4.536 22.6671 4.664 22.2511 4.92C21.8351 5.168 21.5191 5.532 21.3031 6.012C21.0871 6.492 20.9791 7.076 20.9791 7.764C20.9791 8.452 21.0871 9.04 21.3031 9.528C21.5191 10.008 21.8351 10.376 22.2511 10.632C22.6671 10.88 23.1791 11.004 23.7871 11.004C24.1391 11.004 24.4751 10.956 24.7951 10.86C25.1231 10.756 25.4311 10.604 25.7191 10.404C25.8631 10.316 25.9911 10.276 26.1031 10.284C26.2231 10.292 26.3231 10.332 26.4031 10.404C26.4831 10.476 26.5351 10.568 26.5591 10.68C26.5911 10.784 26.5871 10.896 26.5471 11.016C26.5151 11.128 26.4391 11.224 26.3191 11.304C25.9911 11.568 25.6031 11.768 25.1551 11.904C24.7071 12.04 24.2391 12.108 23.7511 12.108ZM30.0586 12.108C29.4666 12.108 28.9546 11.984 28.5226 11.736C28.0986 11.488 27.7666 11.136 27.5266 10.68C27.2866 10.224 27.1666 9.688 27.1666 9.072C27.1666 8.6 27.2346 8.18 27.3706 7.812C27.5066 7.444 27.6986 7.128 27.9466 6.864C28.2026 6.592 28.5066 6.388 28.8586 6.252C29.2186 6.108 29.6186 6.036 30.0586 6.036C30.6426 6.036 31.1466 6.16 31.5706 6.408C32.0026 6.656 32.3386 7.008 32.5786 7.464C32.8186 7.912 32.9386 8.448 32.9386 9.072C32.9386 9.536 32.8706 9.956 32.7346 10.332C32.5986 10.708 32.4026 11.028 32.1466 11.292C31.8986 11.556 31.5946 11.76 31.2346 11.904C30.8826 12.04 30.4906 12.108 30.0586 12.108ZM30.0586 11.172C30.3866 11.172 30.6746 11.092 30.9226 10.932C31.1706 10.772 31.3626 10.536 31.4986 10.224C31.6426 9.912 31.7146 9.528 31.7146 9.072C31.7146 8.384 31.5626 7.864 31.2586 7.512C30.9546 7.16 30.5546 6.984 30.0586 6.984C29.7226 6.984 29.4306 7.064 29.1826 7.224C28.9346 7.376 28.7386 7.608 28.5946 7.92C28.4586 8.232 28.3906 8.616 28.3906 9.072C28.3906 9.752 28.5426 10.272 28.8466 10.632C29.1506 10.992 29.5546 11.172 30.0586 11.172ZM34.9238 12.084C34.7318 12.084 34.5838 12.032 34.4798 11.928C34.3758 11.816 34.3238 11.664 34.3238 11.472V6.672C34.3238 6.472 34.3758 6.32 34.4798 6.216C34.5838 6.112 34.7278 6.06 34.9118 6.06C35.1038 6.06 35.2478 6.112 35.3438 6.216C35.4478 6.32 35.4998 6.472 35.4998 6.672V7.656L35.3678 7.392C35.5278 6.968 35.7758 6.636 36.1118 6.396C36.4478 6.156 36.8518 6.036 37.3238 6.036C37.8118 6.036 38.2078 6.152 38.5118 6.384C38.8158 6.616 39.0238 6.972 39.1358 7.452H38.9678C39.1198 7.012 39.3798 6.668 39.7478 6.42C40.1158 6.164 40.5438 6.036 41.0318 6.036C41.4798 6.036 41.8478 6.124 42.1358 6.3C42.4238 6.468 42.6398 6.728 42.7838 7.08C42.9278 7.424 42.9998 7.86 42.9998 8.388V11.472C42.9998 11.664 42.9438 11.816 42.8318 11.928C42.7278 12.032 42.5798 12.084 42.3878 12.084C42.1958 12.084 42.0478 12.032 41.9438 11.928C41.8398 11.816 41.7878 11.664 41.7878 11.472V8.448C41.7878 7.952 41.6998 7.588 41.5238 7.356C41.3558 7.124 41.0758 7.008 40.6838 7.008C40.2438 7.008 39.8958 7.16 39.6398 7.464C39.3838 7.768 39.2558 8.188 39.2558 8.724V11.472C39.2558 11.664 39.2038 11.816 39.0998 11.928C38.9958 12.032 38.8478 12.084 38.6558 12.084C38.4638 12.084 38.3118 12.032 38.1998 11.928C38.0958 11.816 38.0438 11.664 38.0438 11.472V8.448C38.0438 7.952 37.9598 7.588 37.7918 7.356C37.6238 7.124 37.3438 7.008 36.9518 7.008C36.5118 7.008 36.1638 7.16 35.9078 7.464C35.6598 7.768 35.5358 8.188 35.5358 8.724V11.472C35.5358 11.88 35.3318 12.084 34.9238 12.084ZM45.3183 12.084C45.1263 12.084 44.9783 12.032 44.8743 11.928C44.7703 11.816 44.7183 11.664 44.7183 11.472V6.672C44.7183 6.472 44.7703 6.32 44.8743 6.216C44.9783 6.112 45.1223 6.06 45.3063 6.06C45.4983 6.06 45.6423 6.112 45.7383 6.216C45.8423 6.32 45.8943 6.472 45.8943 6.672V7.656L45.7623 7.392C45.9223 6.968 46.1703 6.636 46.5063 6.396C46.8423 6.156 47.2463 6.036 47.7183 6.036C48.2063 6.036 48.6023 6.152 48.9063 6.384C49.2103 6.616 49.4183 6.972 49.5303 7.452H49.3623C49.5143 7.012 49.7743 6.668 50.1423 6.42C50.5103 6.164 50.9383 6.036 51.4263 6.036C51.8743 6.036 52.2423 6.124 52.5303 6.3C52.8183 6.468 53.0343 6.728 53.1783 7.08C53.3223 7.424 53.3943 7.86 53.3943 8.388V11.472C53.3943 11.664 53.3383 11.816 53.2263 11.928C53.1223 12.032 52.9743 12.084 52.7823 12.084C52.5903 12.084 52.4423 12.032 52.3383 11.928C52.2343 11.816 52.1823 11.664 52.1823 11.472V8.448C52.1823 7.952 52.0943 7.588 51.9183 7.356C51.7503 7.124 51.4703 7.008 51.0783 7.008C50.6383 7.008 50.2903 7.16 50.0343 7.464C49.7783 7.768 49.6503 8.188 49.6503 8.724V11.472C49.6503 11.664 49.5983 11.816 49.4943 11.928C49.3903 12.032 49.2423 12.084 49.0503 12.084C48.8583 12.084 48.7063 12.032 48.5943 11.928C48.4903 11.816 48.4383 11.664 48.4383 11.472V8.448C48.4383 7.952 48.3543 7.588 48.1863 7.356C48.0183 7.124 47.7383 7.008 47.3463 7.008C46.9063 7.008 46.5583 7.16 46.3023 7.464C46.0543 7.768 45.9303 8.188 45.9303 8.724V11.472C45.9303 11.88 45.7263 12.084 45.3183 12.084ZM57.8368 12.108C57.1968 12.108 56.6448 11.988 56.1808 11.748C55.7248 11.5 55.3688 11.152 55.1128 10.704C54.8648 10.248 54.7408 9.708 54.7408 9.084C54.7408 8.476 54.8648 7.944 55.1128 7.488C55.3608 7.032 55.7008 6.676 56.1328 6.42C56.5648 6.164 57.0568 6.036 57.6088 6.036C58.0168 6.036 58.3808 6.104 58.7008 6.24C59.0208 6.368 59.2928 6.56 59.5168 6.816C59.7488 7.064 59.9208 7.368 60.0328 7.728C60.1528 8.088 60.2128 8.492 60.2128 8.94C60.2128 9.076 60.1728 9.18 60.0928 9.252C60.0128 9.316 59.8928 9.348 59.7328 9.348H55.7008V8.604H59.3968L59.1928 8.772C59.1928 8.372 59.1328 8.032 59.0128 7.752C58.9008 7.472 58.7288 7.26 58.4968 7.116C58.2728 6.964 57.9928 6.888 57.6568 6.888C57.2808 6.888 56.9608 6.976 56.6968 7.152C56.4408 7.328 56.2448 7.572 56.1088 7.884C55.9728 8.196 55.9048 8.56 55.9048 8.976V9.048C55.9048 9.752 56.0688 10.284 56.3968 10.644C56.7328 10.996 57.2168 11.172 57.8488 11.172C58.0888 11.172 58.3408 11.14 58.6048 11.076C58.8768 11.012 59.1328 10.904 59.3728 10.752C59.5088 10.672 59.6288 10.636 59.7328 10.644C59.8448 10.652 59.9328 10.688 59.9968 10.752C60.0688 10.816 60.1128 10.896 60.1288 10.992C60.1448 11.088 60.1288 11.188 60.0808 11.292C60.0328 11.388 59.9488 11.476 59.8288 11.556C59.5568 11.74 59.2408 11.88 58.8808 11.976C58.5208 12.064 58.1728 12.108 57.8368 12.108ZM62.1341 12.084C61.9421 12.084 61.7941 12.032 61.6901 11.928C61.5861 11.816 61.5341 11.664 61.5341 11.472V6.672C61.5341 6.472 61.5861 6.32 61.6901 6.216C61.7941 6.112 61.9381 6.06 62.1221 6.06C62.3141 6.06 62.4581 6.112 62.5541 6.216C62.6581 6.32 62.7101 6.472 62.7101 6.672V7.608L62.5781 7.392C62.7541 6.944 63.0301 6.608 63.4061 6.384C63.7821 6.152 64.2141 6.036 64.7021 6.036C65.1661 6.036 65.5501 6.124 65.8541 6.3C66.1661 6.468 66.3981 6.728 66.5501 7.08C66.7021 7.424 66.7781 7.86 66.7781 8.388V11.472C66.7781 11.664 66.7261 11.816 66.6221 11.928C66.5181 12.032 66.3701 12.084 66.1781 12.084C65.9781 12.084 65.8261 12.032 65.7221 11.928C65.6181 11.816 65.5661 11.664 65.5661 11.472V8.46C65.5661 7.956 65.4661 7.588 65.2661 7.356C65.0741 7.124 64.7701 7.008 64.3541 7.008C63.8661 7.008 63.4741 7.16 63.1781 7.464C62.8901 7.768 62.7461 8.176 62.7461 8.688V11.472C62.7461 11.88 62.5421 12.084 62.1341 12.084ZM70.9442 12.108C70.4642 12.108 70.0602 12.024 69.7322 11.856C69.4042 11.688 69.1602 11.44 69.0002 11.112C68.8402 10.784 68.7602 10.384 68.7602 9.912V7.08H68.0402C67.8802 7.08 67.7562 7.04 67.6682 6.96C67.5802 6.872 67.5362 6.756 67.5362 6.612C67.5362 6.46 67.5802 6.344 67.6682 6.264C67.7562 6.184 67.8802 6.144 68.0402 6.144H68.7602V4.908C68.7602 4.708 68.8122 4.556 68.9162 4.452C69.0282 4.348 69.1802 4.296 69.3722 4.296C69.5642 4.296 69.7122 4.348 69.8162 4.452C69.9202 4.556 69.9722 4.708 69.9722 4.908V6.144H71.3762C71.5362 6.144 71.6602 6.184 71.7482 6.264C71.8362 6.344 71.8802 6.46 71.8802 6.612C71.8802 6.756 71.8362 6.872 71.7482 6.96C71.6602 7.04 71.5362 7.08 71.3762 7.08H69.9722V9.816C69.9722 10.24 70.0602 10.56 70.2362 10.776C70.4202 10.992 70.7162 11.1 71.1242 11.1C71.2682 11.1 71.3922 11.088 71.4962 11.064C71.6082 11.032 71.7002 11.012 71.7722 11.004C71.8602 11.004 71.9322 11.036 71.9882 11.1C72.0442 11.156 72.0722 11.268 72.0722 11.436C72.0722 11.556 72.0482 11.668 72.0002 11.772C71.9602 11.876 71.8842 11.944 71.7722 11.976C71.6762 12.008 71.5442 12.036 71.3762 12.06C71.2162 12.092 71.0722 12.108 70.9442 12.108Z" fill="#64728C"/>
<rect x="0.5" y="21.5" width="409" height="119" rx="11.5" fill="white"/>
<rect x="0.5" y="21.5" width="409" height="119" rx="11.5" stroke="#E8EAEF"/>
<path d="M11.612 41.084C11.46 41.084 11.34 41.04 11.252 40.952C11.164 40.856 11.12 40.728 11.12 40.568V33.392H8.42C8.276 33.392 8.164 33.352 8.084 33.272C8.004 33.192 7.964 33.088 7.964 32.96C7.964 32.824 8.004 32.72 8.084 32.648C8.164 32.576 8.276 32.54 8.42 32.54H14.816C14.96 32.54 15.072 32.576 15.152 32.648C15.232 32.72 15.272 32.824 15.272 32.96C15.272 33.096 15.232 33.204 15.152 33.284C15.072 33.356 14.96 33.392 14.816 33.392H12.116V40.568C12.116 40.728 12.072 40.856 11.984 40.952C11.904 41.04 11.78 41.084 11.612 41.084ZM16.5596 43.244C16.4396 43.244 16.3436 43.212 16.2716 43.148C16.1996 43.084 16.1556 42.996 16.1396 42.884C16.1316 42.78 16.1516 42.672 16.1996 42.56L17.0276 40.7V41.12L14.7236 35.768C14.6756 35.648 14.6596 35.536 14.6756 35.432C14.6916 35.328 14.7396 35.244 14.8196 35.18C14.8996 35.116 15.0116 35.084 15.1556 35.084C15.2836 35.084 15.3836 35.112 15.4556 35.168C15.5276 35.224 15.5916 35.324 15.6476 35.468L17.6156 40.292H17.2916L19.2836 35.468C19.3476 35.324 19.4156 35.224 19.4876 35.168C19.5596 35.112 19.6636 35.084 19.7996 35.084C19.9276 35.084 20.0236 35.116 20.0876 35.18C20.1596 35.244 20.1996 35.328 20.2076 35.432C20.2236 35.528 20.2076 35.636 20.1596 35.756L17.0876 42.86C17.0236 43.004 16.9516 43.104 16.8716 43.16C16.7996 43.216 16.6956 43.244 16.5596 43.244ZM21.9076 43.244C21.7476 43.244 21.6276 43.2 21.5476 43.112C21.4676 43.032 21.4276 42.912 21.4276 42.752V35.576C21.4276 35.416 21.4676 35.296 21.5476 35.216C21.6276 35.128 21.7436 35.084 21.8956 35.084C22.0556 35.084 22.1756 35.128 22.2556 35.216C22.3436 35.296 22.3876 35.416 22.3876 35.576V36.716L22.2556 36.548C22.3836 36.092 22.6356 35.732 23.0116 35.468C23.3956 35.196 23.8516 35.06 24.3796 35.06C24.8996 35.06 25.3516 35.184 25.7356 35.432C26.1276 35.672 26.4276 36.02 26.6356 36.476C26.8516 36.924 26.9596 37.46 26.9596 38.084C26.9596 38.7 26.8516 39.236 26.6356 39.692C26.4276 40.14 26.1316 40.488 25.7476 40.736C25.3636 40.984 24.9076 41.108 24.3796 41.108C23.8516 41.108 23.3996 40.976 23.0236 40.712C22.6476 40.44 22.3916 40.08 22.2556 39.632H22.3996V42.752C22.3996 42.912 22.3556 43.032 22.2676 43.112C22.1796 43.2 22.0596 43.244 21.9076 43.244ZM24.1756 40.328C24.5436 40.328 24.8596 40.24 25.1236 40.064C25.3956 39.888 25.6036 39.632 25.7476 39.296C25.8996 38.96 25.9756 38.556 25.9756 38.084C25.9756 37.356 25.8116 36.8 25.4836 36.416C25.1636 36.032 24.7276 35.84 24.1756 35.84C23.8156 35.84 23.4996 35.928 23.2276 36.104C22.9556 36.272 22.7436 36.524 22.5916 36.86C22.4476 37.188 22.3756 37.596 22.3756 38.084C22.3756 38.804 22.5396 39.36 22.8676 39.752C23.1956 40.136 23.6316 40.328 24.1756 40.328ZM31.0517 41.108C30.4357 41.108 29.9037 40.988 29.4557 40.748C29.0157 40.5 28.6717 40.152 28.4237 39.704C28.1837 39.256 28.0637 38.72 28.0637 38.096C28.0637 37.488 28.1837 36.96 28.4237 36.512C28.6637 36.056 28.9917 35.7 29.4077 35.444C29.8317 35.188 30.3197 35.06 30.8717 35.06C31.2637 35.06 31.6157 35.128 31.9277 35.264C32.2397 35.392 32.5037 35.58 32.7197 35.828C32.9437 36.076 33.1117 36.376 33.2237 36.728C33.3437 37.08 33.4037 37.476 33.4037 37.916C33.4037 38.044 33.3677 38.14 33.2957 38.204C33.2237 38.26 33.1197 38.288 32.9837 38.288H28.8077V37.652H32.7557L32.5637 37.808C32.5637 37.376 32.4997 37.012 32.3717 36.716C32.2437 36.412 32.0557 36.18 31.8077 36.02C31.5677 35.86 31.2637 35.78 30.8957 35.78C30.4877 35.78 30.1397 35.876 29.8517 36.068C29.5717 36.252 29.3597 36.512 29.2157 36.848C29.0717 37.176 28.9997 37.56 28.9997 38V38.072C28.9997 38.808 29.1757 39.368 29.5277 39.752C29.8877 40.136 30.3957 40.328 31.0517 40.328C31.3237 40.328 31.5917 40.292 31.8557 40.22C32.1277 40.148 32.3917 40.028 32.6477 39.86C32.7597 39.788 32.8597 39.756 32.9477 39.764C33.0437 39.764 33.1197 39.792 33.1757 39.848C33.2317 39.896 33.2677 39.96 33.2837 40.04C33.3077 40.112 33.2997 40.192 33.2597 40.28C33.2277 40.368 33.1597 40.444 33.0557 40.508C32.7917 40.7 32.4797 40.848 32.1197 40.952C31.7597 41.056 31.4037 41.108 31.0517 41.108ZM39.2002 43.244C39.0802 43.244 38.9842 43.212 38.9122 43.148C38.8402 43.084 38.7962 42.996 38.7802 42.884C38.7722 42.78 38.7922 42.672 38.8402 42.56L39.6682 40.7V41.12L37.3642 35.768C37.3162 35.648 37.3002 35.536 37.3162 35.432C37.3322 35.328 37.3802 35.244 37.4602 35.18C37.5402 35.116 37.6522 35.084 37.7962 35.084C37.9242 35.084 38.0242 35.112 38.0962 35.168C38.1682 35.224 38.2322 35.324 38.2882 35.468L40.2562 40.292H39.9322L41.9242 35.468C41.9882 35.324 42.0562 35.224 42.1282 35.168C42.2002 35.112 42.3042 35.084 42.4402 35.084C42.5682 35.084 42.6642 35.116 42.7282 35.18C42.8002 35.244 42.8402 35.328 42.8482 35.432C42.8642 35.528 42.8482 35.636 42.8002 35.756L39.7282 42.86C39.6642 43.004 39.5922 43.104 39.5122 43.16C39.4402 43.216 39.3362 43.244 39.2002 43.244ZM46.4102 41.108C45.8422 41.108 45.3502 40.984 44.9342 40.736C44.5182 40.488 44.1942 40.14 43.9622 39.692C43.7382 39.236 43.6262 38.7 43.6262 38.084C43.6262 37.62 43.6902 37.204 43.8182 36.836C43.9462 36.46 44.1342 36.14 44.3822 35.876C44.6302 35.612 44.9222 35.412 45.2582 35.276C45.6022 35.132 45.9862 35.06 46.4102 35.06C46.9782 35.06 47.4702 35.184 47.8862 35.432C48.3022 35.68 48.6222 36.032 48.8462 36.488C49.0782 36.936 49.1942 37.468 49.1942 38.084C49.1942 38.548 49.1302 38.964 49.0022 39.332C48.8742 39.7 48.6862 40.02 48.4382 40.292C48.1902 40.556 47.8942 40.76 47.5502 40.904C47.2142 41.04 46.8342 41.108 46.4102 41.108ZM46.4102 40.328C46.7702 40.328 47.0862 40.24 47.3582 40.064C47.6302 39.888 47.8382 39.632 47.9822 39.296C48.1342 38.96 48.2102 38.556 48.2102 38.084C48.2102 37.356 48.0462 36.8 47.7182 36.416C47.3982 36.032 46.9622 35.84 46.4102 35.84C46.0422 35.84 45.7222 35.928 45.4502 36.104C45.1862 36.272 44.9782 36.524 44.8262 36.86C44.6822 37.188 44.6102 37.596 44.6102 38.084C44.6102 38.804 44.7742 39.36 45.1022 39.752C45.4302 40.136 45.8662 40.328 46.4102 40.328ZM52.7182 41.108C52.2462 41.108 51.8542 41.024 51.5422 40.856C51.2382 40.68 51.0062 40.42 50.8462 40.076C50.6942 39.732 50.6182 39.304 50.6182 38.792V35.576C50.6182 35.408 50.6582 35.284 50.7382 35.204C50.8262 35.124 50.9462 35.084 51.0982 35.084C51.2582 35.084 51.3782 35.124 51.4582 35.204C51.5462 35.284 51.5902 35.408 51.5902 35.576V38.78C51.5902 39.292 51.6942 39.676 51.9022 39.932C52.1182 40.18 52.4542 40.304 52.9102 40.304C53.4062 40.304 53.8102 40.136 54.1222 39.8C54.4342 39.464 54.5902 39.024 54.5902 38.48V35.576C54.5902 35.408 54.6302 35.284 54.7102 35.204C54.7982 35.124 54.9222 35.084 55.0822 35.084C55.2342 35.084 55.3502 35.124 55.4302 35.204C55.5182 35.284 55.5622 35.408 55.5622 35.576V40.58C55.5622 40.916 55.4062 41.084 55.0942 41.084C54.9422 41.084 54.8222 41.04 54.7342 40.952C54.6542 40.864 54.6142 40.74 54.6142 40.58V39.488L54.7702 39.656C54.6102 40.128 54.3462 40.488 53.9782 40.736C53.6182 40.984 53.1982 41.108 52.7182 41.108ZM57.8728 41.084C57.7128 41.084 57.5888 41.04 57.5008 40.952C57.4208 40.864 57.3808 40.74 57.3808 40.58V35.576C57.3808 35.416 57.4208 35.296 57.5008 35.216C57.5808 35.128 57.6968 35.084 57.8488 35.084C58.0008 35.084 58.1168 35.128 58.1968 35.216C58.2848 35.296 58.3288 35.416 58.3288 35.576V36.548H58.2088C58.3368 36.076 58.5808 35.712 58.9408 35.456C59.3008 35.2 59.7448 35.064 60.2728 35.048C60.3928 35.04 60.4888 35.068 60.5608 35.132C60.6328 35.188 60.6728 35.288 60.6808 35.432C60.6888 35.568 60.6568 35.676 60.5848 35.756C60.5128 35.836 60.4008 35.884 60.2488 35.9L60.0568 35.924C59.5128 35.972 59.0928 36.148 58.7968 36.452C58.5088 36.748 58.3648 37.156 58.3648 37.676V40.58C58.3648 40.74 58.3208 40.864 58.2327 40.952C58.1528 41.04 58.0328 41.084 57.8728 41.084ZM68.5673 41.108C67.7353 41.108 67.0233 40.932 66.4313 40.58C65.8393 40.228 65.3833 39.728 65.0633 39.08C64.7513 38.432 64.5953 37.66 64.5953 36.764C64.5953 36.092 64.6833 35.492 64.8593 34.964C65.0433 34.428 65.3033 33.976 65.6393 33.608C65.9833 33.232 66.4033 32.944 66.8993 32.744C67.3953 32.536 67.9513 32.432 68.5673 32.432C69.0633 32.432 69.5353 32.504 69.9833 32.648C70.4313 32.784 70.8193 32.988 71.1473 33.26C71.2513 33.34 71.3193 33.432 71.3513 33.536C71.3913 33.632 71.3953 33.728 71.3633 33.824C71.3393 33.912 71.2913 33.988 71.2193 34.052C71.1553 34.108 71.0753 34.136 70.9793 34.136C70.8833 34.136 70.7753 34.096 70.6553 34.016C70.3673 33.784 70.0513 33.612 69.7073 33.5C69.3633 33.388 68.9913 33.332 68.5913 33.332C67.9593 33.332 67.4233 33.468 66.9833 33.74C66.5433 34.004 66.2113 34.392 65.9873 34.904C65.7633 35.416 65.6513 36.036 65.6513 36.764C65.6513 37.492 65.7633 38.116 65.9873 38.636C66.2113 39.148 66.5433 39.54 66.9833 39.812C67.4233 40.076 67.9593 40.208 68.5913 40.208C68.9833 40.208 69.3553 40.152 69.7073 40.04C70.0593 39.92 70.3833 39.744 70.6793 39.512C70.7993 39.432 70.9073 39.396 71.0033 39.404C71.0993 39.404 71.1793 39.432 71.2433 39.488C71.3073 39.544 71.3513 39.616 71.3753 39.704C71.4073 39.792 71.4073 39.884 71.3753 39.98C71.3513 40.076 71.2913 40.16 71.1953 40.232C70.8593 40.52 70.4633 40.74 70.0073 40.892C69.5593 41.036 69.0793 41.108 68.5673 41.108ZM74.8516 41.108C74.2836 41.108 73.7916 40.984 73.3756 40.736C72.9596 40.488 72.6356 40.14 72.4036 39.692C72.1796 39.236 72.0676 38.7 72.0676 38.084C72.0676 37.62 72.1316 37.204 72.2596 36.836C72.3876 36.46 72.5756 36.14 72.8236 35.876C73.0716 35.612 73.3636 35.412 73.6996 35.276C74.0436 35.132 74.4276 35.06 74.8516 35.06C75.4196 35.06 75.9116 35.184 76.3276 35.432C76.7436 35.68 77.0636 36.032 77.2876 36.488C77.5196 36.936 77.6356 37.468 77.6356 38.084C77.6356 38.548 77.5716 38.964 77.4436 39.332C77.3156 39.7 77.1276 40.02 76.8796 40.292C76.6316 40.556 76.3356 40.76 75.9916 40.904C75.6556 41.04 75.2756 41.108 74.8516 41.108ZM74.8516 40.328C75.2116 40.328 75.5276 40.24 75.7996 40.064C76.0716 39.888 76.2796 39.632 76.4236 39.296C76.5756 38.96 76.6516 38.556 76.6516 38.084C76.6516 37.356 76.4876 36.8 76.1596 36.416C75.8396 36.032 75.4036 35.84 74.8516 35.84C74.4836 35.84 74.1636 35.928 73.8916 36.104C73.6276 36.272 73.4196 36.524 73.2676 36.86C73.1236 37.188 73.0516 37.596 73.0516 38.084C73.0516 38.804 73.2156 39.36 73.5436 39.752C73.8716 40.136 74.3076 40.328 74.8516 40.328ZM79.5996 41.084C79.4396 41.084 79.3196 41.04 79.2396 40.952C79.1596 40.864 79.1196 40.74 79.1196 40.58V35.576C79.1196 35.416 79.1596 35.296 79.2396 35.216C79.3196 35.128 79.4356 35.084 79.5876 35.084C79.7396 35.084 79.8556 35.128 79.9356 35.216C80.0236 35.296 80.0676 35.416 80.0676 35.576V36.632L79.9356 36.464C80.0876 36.016 80.3316 35.672 80.6676 35.432C81.0116 35.184 81.4196 35.06 81.8916 35.06C82.3876 35.06 82.7876 35.18 83.0916 35.42C83.4036 35.652 83.6116 36.016 83.7156 36.512H83.5356C83.6796 36.064 83.9356 35.712 84.3036 35.456C84.6796 35.192 85.1156 35.06 85.6116 35.06C86.0516 35.06 86.4116 35.144 86.6916 35.312C86.9796 35.48 87.1956 35.736 87.3396 36.08C87.4836 36.416 87.5556 36.844 87.5556 37.364V40.58C87.5556 40.74 87.5116 40.864 87.4236 40.952C87.3436 41.04 87.2236 41.084 87.0636 41.084C86.9116 41.084 86.7916 41.04 86.7036 40.952C86.6236 40.864 86.5836 40.74 86.5836 40.58V37.412C86.5836 36.876 86.4916 36.484 86.3076 36.236C86.1236 35.98 85.8116 35.852 85.3716 35.852C84.8916 35.852 84.5116 36.02 84.2316 36.356C83.9596 36.684 83.8236 37.132 83.8236 37.7V40.58C83.8236 40.74 83.7796 40.864 83.6916 40.952C83.6116 41.04 83.4916 41.084 83.3316 41.084C83.1796 41.084 83.0596 41.04 82.9716 40.952C82.8916 40.864 82.8516 40.74 82.8516 40.58V37.412C82.8516 36.876 82.7556 36.484 82.5636 36.236C82.3796 35.98 82.0716 35.852 81.6396 35.852C81.1596 35.852 80.7796 36.02 80.4996 36.356C80.2276 36.684 80.0916 37.132 80.0916 37.7V40.58C80.0916 40.916 79.9276 41.084 79.5996 41.084ZM89.8769 41.084C89.7169 41.084 89.5969 41.04 89.5169 40.952C89.4369 40.864 89.3969 40.74 89.3969 40.58V35.576C89.3969 35.416 89.4369 35.296 89.5169 35.216C89.5969 35.128 89.7129 35.084 89.8649 35.084C90.0169 35.084 90.1329 35.128 90.2129 35.216C90.3009 35.296 90.3449 35.416 90.3449 35.576V36.632L90.2129 36.464C90.3649 36.016 90.6089 35.672 90.9449 35.432C91.2889 35.184 91.6969 35.06 92.1689 35.06C92.6649 35.06 93.0649 35.18 93.3689 35.42C93.6809 35.652 93.8889 36.016 93.9929 36.512H93.8129C93.9569 36.064 94.2129 35.712 94.5809 35.456C94.9569 35.192 95.3929 35.06 95.8889 35.06C96.3289 35.06 96.6889 35.144 96.9689 35.312C97.2569 35.48 97.4729 35.736 97.6169 36.08C97.7609 36.416 97.8329 36.844 97.8329 37.364V40.58C97.8329 40.74 97.7889 40.864 97.7009 40.952C97.6209 41.04 97.5009 41.084 97.3409 41.084C97.1889 41.084 97.0689 41.04 96.9809 40.952C96.9009 40.864 96.8609 40.74 96.8609 40.58V37.412C96.8609 36.876 96.7689 36.484 96.5849 36.236C96.4009 35.98 96.0889 35.852 95.6489 35.852C95.1689 35.852 94.7889 36.02 94.5089 36.356C94.2369 36.684 94.1009 37.132 94.1009 37.7V40.58C94.1009 40.74 94.0569 40.864 93.9689 40.952C93.8889 41.04 93.7689 41.084 93.6089 41.084C93.4569 41.084 93.3369 41.04 93.2489 40.952C93.1689 40.864 93.1289 40.74 93.1289 40.58V37.412C93.1289 36.876 93.0329 36.484 92.8409 36.236C92.6569 35.98 92.3489 35.852 91.9169 35.852C91.4369 35.852 91.0569 36.02 90.7769 36.356C90.5049 36.684 90.3689 37.132 90.3689 37.7V40.58C90.3689 40.916 90.2049 41.084 89.8769 41.084ZM102.278 41.108C101.662 41.108 101.13 40.988 100.682 40.748C100.242 40.5 99.8983 40.152 99.6503 39.704C99.4103 39.256 99.2903 38.72 99.2903 38.096C99.2903 37.488 99.4103 36.96 99.6503 36.512C99.8903 36.056 100.218 35.7 100.634 35.444C101.058 35.188 101.546 35.06 102.098 35.06C102.49 35.06 102.842 35.128 103.154 35.264C103.466 35.392 103.73 35.58 103.946 35.828C104.17 36.076 104.338 36.376 104.45 36.728C104.57 37.08 104.63 37.476 104.63 37.916C104.63 38.044 104.594 38.14 104.522 38.204C104.45 38.26 104.346 38.288 104.21 38.288H100.034V37.652H103.982L103.79 37.808C103.79 37.376 103.726 37.012 103.598 36.716C103.47 36.412 103.282 36.18 103.034 36.02C102.794 35.86 102.49 35.78 102.122 35.78C101.714 35.78 101.366 35.876 101.078 36.068C100.798 36.252 100.586 36.512 100.442 36.848C100.298 37.176 100.226 37.56 100.226 38V38.072C100.226 38.808 100.402 39.368 100.754 39.752C101.114 40.136 101.622 40.328 102.278 40.328C102.55 40.328 102.818 40.292 103.082 40.22C103.354 40.148 103.618 40.028 103.874 39.86C103.986 39.788 104.086 39.756 104.174 39.764C104.27 39.764 104.346 39.792 104.402 39.848C104.458 39.896 104.494 39.96 104.51 40.04C104.534 40.112 104.526 40.192 104.486 40.28C104.454 40.368 104.386 40.444 104.282 40.508C104.018 40.7 103.706 40.848 103.346 40.952C102.986 41.056 102.63 41.108 102.278 41.108ZM106.517 41.084C106.357 41.084 106.237 41.04 106.157 40.952C106.077 40.864 106.037 40.74 106.037 40.58V35.576C106.037 35.416 106.077 35.296 106.157 35.216C106.237 35.128 106.353 35.084 106.505 35.084C106.657 35.084 106.773 35.128 106.853 35.216C106.941 35.296 106.985 35.416 106.985 35.576V36.608L106.853 36.464C107.021 36 107.293 35.652 107.669 35.42C108.053 35.18 108.493 35.06 108.989 35.06C109.453 35.06 109.837 35.144 110.141 35.312C110.453 35.48 110.685 35.736 110.837 36.08C110.989 36.416 111.065 36.844 111.065 37.364V40.58C111.065 40.74 111.021 40.864 110.933 40.952C110.853 41.04 110.737 41.084 110.585 41.084C110.425 41.084 110.301 41.04 110.213 40.952C110.133 40.864 110.093 40.74 110.093 40.58V37.424C110.093 36.88 109.985 36.484 109.769 36.236C109.561 35.98 109.225 35.852 108.761 35.852C108.225 35.852 107.797 36.02 107.477 36.356C107.165 36.684 107.009 37.124 107.009 37.676V40.58C107.009 40.916 106.845 41.084 106.517 41.084ZM115.197 41.108C114.741 41.108 114.357 41.028 114.045 40.868C113.741 40.7 113.513 40.46 113.361 40.148C113.209 39.828 113.133 39.44 113.133 38.984V35.924H112.329C112.193 35.924 112.089 35.892 112.017 35.828C111.945 35.756 111.909 35.66 111.909 35.54C111.909 35.42 111.945 35.328 112.017 35.264C112.089 35.2 112.193 35.168 112.329 35.168H113.133V33.788C113.133 33.628 113.177 33.508 113.265 33.428C113.353 33.34 113.473 33.296 113.625 33.296C113.777 33.296 113.893 33.34 113.973 33.428C114.061 33.508 114.105 33.628 114.105 33.788V35.168H115.617C115.753 35.168 115.857 35.2 115.929 35.264C116.001 35.328 116.037 35.42 116.037 35.54C116.037 35.66 116.001 35.756 115.929 35.828C115.857 35.892 115.753 35.924 115.617 35.924H114.105V38.888C114.105 39.344 114.201 39.692 114.393 39.932C114.585 40.164 114.897 40.28 115.329 40.28C115.481 40.28 115.609 40.264 115.713 40.232C115.825 40.2 115.917 40.184 115.989 40.184C116.061 40.176 116.121 40.2 116.169 40.256C116.217 40.312 116.241 40.408 116.241 40.544C116.241 40.64 116.221 40.728 116.181 40.808C116.149 40.888 116.089 40.944 116.001 40.976C115.905 41.008 115.777 41.036 115.617 41.06C115.465 41.092 115.325 41.108 115.197 41.108ZM120.77 41.084C120.61 41.084 120.486 41.04 120.398 40.952C120.318 40.856 120.278 40.728 120.278 40.568V32.972C120.278 32.804 120.318 32.676 120.398 32.588C120.486 32.5 120.61 32.456 120.77 32.456C120.93 32.456 121.05 32.5 121.13 32.588C121.218 32.676 121.262 32.804 121.262 32.972V36.284H126.338V32.972C126.338 32.804 126.378 32.676 126.458 32.588C126.546 32.5 126.67 32.456 126.83 32.456C126.99 32.456 127.11 32.5 127.19 32.588C127.278 32.676 127.322 32.804 127.322 32.972V40.568C127.322 40.728 127.278 40.856 127.19 40.952C127.11 41.04 126.99 41.084 126.83 41.084C126.67 41.084 126.546 41.04 126.458 40.952C126.378 40.856 126.338 40.728 126.338 40.568V37.136H121.262V40.568C121.262 40.728 121.222 40.856 121.142 40.952C121.062 41.04 120.938 41.084 120.77 41.084ZM131.903 41.108C131.287 41.108 130.755 40.988 130.307 40.748C129.867 40.5 129.523 40.152 129.275 39.704C129.035 39.256 128.915 38.72 128.915 38.096C128.915 37.488 129.035 36.96 129.275 36.512C129.515 36.056 129.843 35.7 130.259 35.444C130.683 35.188 131.171 35.06 131.723 35.06C132.115 35.06 132.467 35.128 132.779 35.264C133.091 35.392 133.355 35.58 133.571 35.828C133.795 36.076 133.963 36.376 134.075 36.728C134.195 37.08 134.255 37.476 134.255 37.916C134.255 38.044 134.219 38.14 134.147 38.204C134.075 38.26 133.971 38.288 133.835 38.288H129.659V37.652H133.607L133.415 37.808C133.415 37.376 133.351 37.012 133.223 36.716C133.095 36.412 132.907 36.18 132.659 36.02C132.419 35.86 132.115 35.78 131.747 35.78C131.339 35.78 130.991 35.876 130.703 36.068C130.423 36.252 130.211 36.512 130.067 36.848C129.923 37.176 129.851 37.56 129.851 38V38.072C129.851 38.808 130.027 39.368 130.379 39.752C130.739 40.136 131.247 40.328 131.903 40.328C132.175 40.328 132.443 40.292 132.707 40.22C132.979 40.148 133.243 40.028 133.499 39.86C133.611 39.788 133.711 39.756 133.799 39.764C133.895 39.764 133.971 39.792 134.027 39.848C134.083 39.896 134.119 39.96 134.135 40.04C134.159 40.112 134.151 40.192 134.111 40.28C134.079 40.368 134.011 40.444 133.907 40.508C133.643 40.7 133.331 40.848 132.971 40.952C132.611 41.056 132.255 41.108 131.903 41.108ZM136.154 41.084C135.994 41.084 135.87 41.04 135.782 40.952C135.702 40.864 135.662 40.74 135.662 40.58V35.576C135.662 35.416 135.702 35.296 135.782 35.216C135.862 35.128 135.978 35.084 136.13 35.084C136.282 35.084 136.398 35.128 136.478 35.216C136.566 35.296 136.61 35.416 136.61 35.576V36.548H136.49C136.618 36.076 136.862 35.712 137.222 35.456C137.582 35.2 138.026 35.064 138.554 35.048C138.674 35.04 138.77 35.068 138.842 35.132C138.914 35.188 138.954 35.288 138.962 35.432C138.97 35.568 138.938 35.676 138.866 35.756C138.794 35.836 138.682 35.884 138.53 35.9L138.338 35.924C137.794 35.972 137.374 36.148 137.078 36.452C136.79 36.748 136.646 37.156 136.646 37.676V40.58C136.646 40.74 136.602 40.864 136.514 40.952C136.434 41.04 136.314 41.084 136.154 41.084ZM142.52 41.108C141.904 41.108 141.372 40.988 140.924 40.748C140.484 40.5 140.14 40.152 139.892 39.704C139.652 39.256 139.532 38.72 139.532 38.096C139.532 37.488 139.652 36.96 139.892 36.512C140.132 36.056 140.46 35.7 140.876 35.444C141.3 35.188 141.788 35.06 142.34 35.06C142.732 35.06 143.084 35.128 143.396 35.264C143.708 35.392 143.972 35.58 144.188 35.828C144.412 36.076 144.58 36.376 144.692 36.728C144.812 37.08 144.872 37.476 144.872 37.916C144.872 38.044 144.836 38.14 144.764 38.204C144.692 38.26 144.588 38.288 144.452 38.288H140.276V37.652H144.224L144.032 37.808C144.032 37.376 143.968 37.012 143.84 36.716C143.712 36.412 143.524 36.18 143.276 36.02C143.036 35.86 142.732 35.78 142.364 35.78C141.956 35.78 141.608 35.876 141.32 36.068C141.04 36.252 140.828 36.512 140.684 36.848C140.54 37.176 140.468 37.56 140.468 38V38.072C140.468 38.808 140.644 39.368 140.996 39.752C141.356 40.136 141.864 40.328 142.52 40.328C142.792 40.328 143.06 40.292 143.324 40.22C143.596 40.148 143.86 40.028 144.116 39.86C144.228 39.788 144.328 39.756 144.416 39.764C144.512 39.764 144.588 39.792 144.644 39.848C144.7 39.896 144.736 39.96 144.752 40.04C144.776 40.112 144.768 40.192 144.728 40.28C144.696 40.368 144.628 40.444 144.524 40.508C144.26 40.7 143.948 40.848 143.588 40.952C143.228 41.056 142.872 41.108 142.52 41.108ZM146.747 41.048C146.547 41.048 146.387 40.988 146.267 40.868C146.147 40.74 146.087 40.58 146.087 40.388C146.087 40.196 146.147 40.04 146.267 39.92C146.387 39.792 146.547 39.728 146.747 39.728C146.947 39.728 147.103 39.792 147.215 39.92C147.335 40.04 147.395 40.196 147.395 40.388C147.395 40.58 147.335 40.74 147.215 40.868C147.103 40.988 146.947 41.048 146.747 41.048ZM149.478 41.048C149.278 41.048 149.118 40.988 148.998 40.868C148.878 40.74 148.818 40.58 148.818 40.388C148.818 40.196 148.878 40.04 148.998 39.92C149.118 39.792 149.278 39.728 149.478 39.728C149.678 39.728 149.834 39.792 149.946 39.92C150.066 40.04 150.126 40.196 150.126 40.388C150.126 40.58 150.066 40.74 149.946 40.868C149.834 40.988 149.678 41.048 149.478 41.048ZM152.208 41.048C152.008 41.048 151.848 40.988 151.728 40.868C151.608 40.74 151.548 40.58 151.548 40.388C151.548 40.196 151.608 40.04 151.728 39.92C151.848 39.792 152.008 39.728 152.208 39.728C152.408 39.728 152.564 39.792 152.676 39.92C152.796 40.04 152.856 40.196 152.856 40.388C152.856 40.58 152.796 40.74 152.676 40.868C152.564 40.988 152.408 41.048 152.208 41.048Z" fill="#929BAA"/>
</svg>
