<svg width="458" height="234" viewBox="0 0 458 234" fill="none" xmlns="http://www.w3.org/2000/svg">
<g filter="url(#filter0_d_887_945)">
<rect x="4" y="49" width="450" height="177" rx="24" fill="#E8EAEF"/>
<rect x="4.5" y="49.5" width="449" height="176" rx="23.5" stroke="#64728C" stroke-opacity="0.21"/>
<rect x="4" y="49" width="450" height="173" rx="24" fill="white"/>
<path d="M30.9761 62.8755C27.1097 62.8755 24.0007 65.4217 24.0007 68.563C24.0007 69.9198 24.5845 71.1601 25.5585 72.1368C25.2167 73.5141 24.0745 74.7419 24.0608 74.7555C23.9993 74.8171 23.9822 74.9123 24.0198 74.9943C24.054 75.0764 24.1298 75.1247 24.2186 75.1247C26.0302 75.1247 27.3659 74.2562 28.0632 73.7195C28.9554 74.0544 29.9504 74.2497 30.9999 74.2497C34.8663 74.2497 37.9753 71.7031 37.9753 68.5868C37.9753 65.4704 34.8425 62.8755 30.9761 62.8755ZM27.4515 69.438C26.9661 69.438 26.5765 69.0483 26.5765 68.5876C26.5765 68.1269 26.9661 67.7126 27.4515 67.7126C27.9368 67.7126 28.3265 68.1022 28.3265 68.5876C28.3265 69.0729 27.9601 69.438 27.4515 69.438ZM30.9761 69.438C30.4907 69.438 30.1257 69.0483 30.1257 68.5876C30.1257 68.1269 30.5153 67.7126 30.9761 67.7126C31.4368 67.7126 31.8265 68.1022 31.8265 68.5876C31.8265 69.0729 31.4628 69.438 30.9761 69.438ZM34.4515 69.438C33.9661 69.438 33.5765 69.0483 33.5765 68.5876C33.5765 68.1269 33.9661 67.7126 34.4515 67.7126C34.9368 67.7126 35.3265 68.1022 35.3265 68.5876C35.3265 69.0729 34.9601 69.438 34.4515 69.438Z" fill="#64728C"/>
<path d="M47.7511 73.108C46.8951 73.108 46.1631 72.932 45.5551 72.58C44.9471 72.228 44.4791 71.728 44.1511 71.08C43.8311 70.424 43.6711 69.652 43.6711 68.764C43.6711 68.1 43.7631 67.504 43.9471 66.976C44.1311 66.44 44.3951 65.984 44.7391 65.608C45.0911 65.224 45.5191 64.932 46.0231 64.732C46.5351 64.532 47.1111 64.432 47.7511 64.432C48.2231 64.432 48.6751 64.496 49.1071 64.624C49.5471 64.752 49.9271 64.936 50.2471 65.176C50.3831 65.264 50.4711 65.372 50.5111 65.5C50.5591 65.62 50.5671 65.736 50.5351 65.848C50.5111 65.96 50.4591 66.056 50.3791 66.136C50.2991 66.208 50.1951 66.248 50.0671 66.256C49.9471 66.264 49.8151 66.22 49.6711 66.124C49.4071 65.924 49.1151 65.776 48.7951 65.68C48.4751 65.584 48.1391 65.536 47.7871 65.536C47.1791 65.536 46.6671 65.664 46.2511 65.92C45.8351 66.168 45.5191 66.532 45.3031 67.012C45.0871 67.492 44.9791 68.076 44.9791 68.764C44.9791 69.452 45.0871 70.04 45.3031 70.528C45.5191 71.008 45.8351 71.376 46.2511 71.632C46.6671 71.88 47.1791 72.004 47.7871 72.004C48.1391 72.004 48.4751 71.956 48.7951 71.86C49.1231 71.756 49.4311 71.604 49.7191 71.404C49.8631 71.316 49.9911 71.276 50.1031 71.284C50.2231 71.292 50.3231 71.332 50.4031 71.404C50.4831 71.476 50.5351 71.568 50.5591 71.68C50.5911 71.784 50.5871 71.896 50.5471 72.016C50.5151 72.128 50.4391 72.224 50.3191 72.304C49.9911 72.568 49.6031 72.768 49.1551 72.904C48.7071 73.04 48.2391 73.108 47.7511 73.108ZM54.0586 73.108C53.4666 73.108 52.9546 72.984 52.5226 72.736C52.0986 72.488 51.7666 72.136 51.5266 71.68C51.2866 71.224 51.1666 70.688 51.1666 70.072C51.1666 69.6 51.2346 69.18 51.3706 68.812C51.5066 68.444 51.6986 68.128 51.9466 67.864C52.2026 67.592 52.5066 67.388 52.8586 67.252C53.2186 67.108 53.6186 67.036 54.0586 67.036C54.6426 67.036 55.1466 67.16 55.5706 67.408C56.0026 67.656 56.3386 68.008 56.5786 68.464C56.8186 68.912 56.9386 69.448 56.9386 70.072C56.9386 70.536 56.8706 70.956 56.7346 71.332C56.5986 71.708 56.4026 72.028 56.1466 72.292C55.8986 72.556 55.5946 72.76 55.2346 72.904C54.8826 73.04 54.4906 73.108 54.0586 73.108ZM54.0586 72.172C54.3866 72.172 54.6746 72.092 54.9226 71.932C55.1706 71.772 55.3626 71.536 55.4986 71.224C55.6426 70.912 55.7146 70.528 55.7146 70.072C55.7146 69.384 55.5626 68.864 55.2586 68.512C54.9546 68.16 54.5546 67.984 54.0586 67.984C53.7226 67.984 53.4306 68.064 53.1826 68.224C52.9346 68.376 52.7386 68.608 52.5946 68.92C52.4586 69.232 52.3906 69.616 52.3906 70.072C52.3906 70.752 52.5426 71.272 52.8466 71.632C53.1506 71.992 53.5546 72.172 54.0586 72.172ZM58.9238 73.084C58.7318 73.084 58.5838 73.032 58.4798 72.928C58.3758 72.816 58.3238 72.664 58.3238 72.472V67.672C58.3238 67.472 58.3758 67.32 58.4798 67.216C58.5838 67.112 58.7278 67.06 58.9118 67.06C59.1038 67.06 59.2478 67.112 59.3438 67.216C59.4478 67.32 59.4998 67.472 59.4998 67.672V68.656L59.3678 68.392C59.5278 67.968 59.7758 67.636 60.1118 67.396C60.4478 67.156 60.8518 67.036 61.3238 67.036C61.8118 67.036 62.2078 67.152 62.5118 67.384C62.8158 67.616 63.0238 67.972 63.1358 68.452H62.9678C63.1198 68.012 63.3798 67.668 63.7478 67.42C64.1158 67.164 64.5438 67.036 65.0318 67.036C65.4798 67.036 65.8478 67.124 66.1358 67.3C66.4238 67.468 66.6398 67.728 66.7838 68.08C66.9278 68.424 66.9998 68.86 66.9998 69.388V72.472C66.9998 72.664 66.9438 72.816 66.8318 72.928C66.7278 73.032 66.5798 73.084 66.3878 73.084C66.1958 73.084 66.0478 73.032 65.9438 72.928C65.8398 72.816 65.7878 72.664 65.7878 72.472V69.448C65.7878 68.952 65.6998 68.588 65.5238 68.356C65.3558 68.124 65.0758 68.008 64.6838 68.008C64.2438 68.008 63.8958 68.16 63.6398 68.464C63.3838 68.768 63.2558 69.188 63.2558 69.724V72.472C63.2558 72.664 63.2038 72.816 63.0998 72.928C62.9958 73.032 62.8478 73.084 62.6558 73.084C62.4638 73.084 62.3118 73.032 62.1998 72.928C62.0958 72.816 62.0438 72.664 62.0438 72.472V69.448C62.0438 68.952 61.9598 68.588 61.7918 68.356C61.6238 68.124 61.3438 68.008 60.9518 68.008C60.5118 68.008 60.1638 68.16 59.9078 68.464C59.6598 68.768 59.5358 69.188 59.5358 69.724V72.472C59.5358 72.88 59.3318 73.084 58.9238 73.084ZM69.3183 73.084C69.1263 73.084 68.9783 73.032 68.8743 72.928C68.7703 72.816 68.7183 72.664 68.7183 72.472V67.672C68.7183 67.472 68.7703 67.32 68.8743 67.216C68.9783 67.112 69.1223 67.06 69.3063 67.06C69.4983 67.06 69.6423 67.112 69.7383 67.216C69.8423 67.32 69.8943 67.472 69.8943 67.672V68.656L69.7623 68.392C69.9223 67.968 70.1703 67.636 70.5063 67.396C70.8423 67.156 71.2463 67.036 71.7183 67.036C72.2063 67.036 72.6023 67.152 72.9063 67.384C73.2103 67.616 73.4183 67.972 73.5303 68.452H73.3623C73.5143 68.012 73.7743 67.668 74.1423 67.42C74.5103 67.164 74.9383 67.036 75.4263 67.036C75.8743 67.036 76.2423 67.124 76.5303 67.3C76.8183 67.468 77.0343 67.728 77.1783 68.08C77.3223 68.424 77.3943 68.86 77.3943 69.388V72.472C77.3943 72.664 77.3383 72.816 77.2263 72.928C77.1223 73.032 76.9743 73.084 76.7823 73.084C76.5903 73.084 76.4423 73.032 76.3383 72.928C76.2343 72.816 76.1823 72.664 76.1823 72.472V69.448C76.1823 68.952 76.0943 68.588 75.9183 68.356C75.7503 68.124 75.4703 68.008 75.0783 68.008C74.6383 68.008 74.2903 68.16 74.0343 68.464C73.7783 68.768 73.6503 69.188 73.6503 69.724V72.472C73.6503 72.664 73.5983 72.816 73.4943 72.928C73.3903 73.032 73.2423 73.084 73.0503 73.084C72.8583 73.084 72.7063 73.032 72.5943 72.928C72.4903 72.816 72.4383 72.664 72.4383 72.472V69.448C72.4383 68.952 72.3543 68.588 72.1863 68.356C72.0183 68.124 71.7383 68.008 71.3463 68.008C70.9063 68.008 70.5583 68.16 70.3023 68.464C70.0543 68.768 69.9303 69.188 69.9303 69.724V72.472C69.9303 72.88 69.7263 73.084 69.3183 73.084ZM81.8368 73.108C81.1968 73.108 80.6448 72.988 80.1808 72.748C79.7248 72.5 79.3688 72.152 79.1128 71.704C78.8648 71.248 78.7408 70.708 78.7408 70.084C78.7408 69.476 78.8648 68.944 79.1128 68.488C79.3608 68.032 79.7008 67.676 80.1328 67.42C80.5648 67.164 81.0568 67.036 81.6088 67.036C82.0168 67.036 82.3808 67.104 82.7008 67.24C83.0208 67.368 83.2928 67.56 83.5168 67.816C83.7488 68.064 83.9208 68.368 84.0328 68.728C84.1528 69.088 84.2128 69.492 84.2128 69.94C84.2128 70.076 84.1728 70.18 84.0928 70.252C84.0128 70.316 83.8928 70.348 83.7328 70.348H79.7008V69.604H83.3968L83.1928 69.772C83.1928 69.372 83.1328 69.032 83.0128 68.752C82.9008 68.472 82.7288 68.26 82.4968 68.116C82.2728 67.964 81.9928 67.888 81.6568 67.888C81.2808 67.888 80.9608 67.976 80.6968 68.152C80.4408 68.328 80.2448 68.572 80.1088 68.884C79.9728 69.196 79.9048 69.56 79.9048 69.976V70.048C79.9048 70.752 80.0688 71.284 80.3968 71.644C80.7328 71.996 81.2168 72.172 81.8488 72.172C82.0888 72.172 82.3408 72.14 82.6048 72.076C82.8768 72.012 83.1328 71.904 83.3728 71.752C83.5088 71.672 83.6288 71.636 83.7328 71.644C83.8448 71.652 83.9328 71.688 83.9968 71.752C84.0688 71.816 84.1128 71.896 84.1288 71.992C84.1448 72.088 84.1288 72.188 84.0808 72.292C84.0328 72.388 83.9488 72.476 83.8288 72.556C83.5568 72.74 83.2408 72.88 82.8808 72.976C82.5208 73.064 82.1728 73.108 81.8368 73.108ZM86.1341 73.084C85.9421 73.084 85.7941 73.032 85.6901 72.928C85.5861 72.816 85.5341 72.664 85.5341 72.472V67.672C85.5341 67.472 85.5861 67.32 85.6901 67.216C85.7941 67.112 85.9381 67.06 86.1221 67.06C86.3141 67.06 86.4581 67.112 86.5541 67.216C86.6581 67.32 86.7101 67.472 86.7101 67.672V68.608L86.5781 68.392C86.7541 67.944 87.0301 67.608 87.4061 67.384C87.7821 67.152 88.2141 67.036 88.7021 67.036C89.1661 67.036 89.5501 67.124 89.8541 67.3C90.1661 67.468 90.3981 67.728 90.5501 68.08C90.7021 68.424 90.7781 68.86 90.7781 69.388V72.472C90.7781 72.664 90.7261 72.816 90.6221 72.928C90.5181 73.032 90.3701 73.084 90.1781 73.084C89.9781 73.084 89.8261 73.032 89.7221 72.928C89.6181 72.816 89.5661 72.664 89.5661 72.472V69.46C89.5661 68.956 89.4661 68.588 89.2661 68.356C89.0741 68.124 88.7701 68.008 88.3541 68.008C87.8661 68.008 87.4741 68.16 87.1781 68.464C86.8901 68.768 86.7461 69.176 86.7461 69.688V72.472C86.7461 72.88 86.5421 73.084 86.1341 73.084ZM94.9442 73.108C94.4642 73.108 94.0602 73.024 93.7322 72.856C93.4042 72.688 93.1602 72.44 93.0002 72.112C92.8402 71.784 92.7602 71.384 92.7602 70.912V68.08H92.0402C91.8802 68.08 91.7562 68.04 91.6682 67.96C91.5802 67.872 91.5362 67.756 91.5362 67.612C91.5362 67.46 91.5802 67.344 91.6682 67.264C91.7562 67.184 91.8802 67.144 92.0402 67.144H92.7602V65.908C92.7602 65.708 92.8122 65.556 92.9162 65.452C93.0282 65.348 93.1802 65.296 93.3722 65.296C93.5642 65.296 93.7122 65.348 93.8162 65.452C93.9202 65.556 93.9722 65.708 93.9722 65.908V67.144H95.3762C95.5362 67.144 95.6602 67.184 95.7482 67.264C95.8362 67.344 95.8802 67.46 95.8802 67.612C95.8802 67.756 95.8362 67.872 95.7482 67.96C95.6602 68.04 95.5362 68.08 95.3762 68.08H93.9722V70.816C93.9722 71.24 94.0602 71.56 94.2362 71.776C94.4202 71.992 94.7162 72.1 95.1242 72.1C95.2682 72.1 95.3922 72.088 95.4962 72.064C95.6082 72.032 95.7002 72.012 95.7722 72.004C95.8602 72.004 95.9322 72.036 95.9882 72.1C96.0442 72.156 96.0722 72.268 96.0722 72.436C96.0722 72.556 96.0482 72.668 96.0002 72.772C95.9602 72.876 95.8842 72.944 95.7722 72.976C95.6762 73.008 95.5442 73.036 95.3762 73.06C95.2162 73.092 95.0722 73.108 94.9442 73.108Z" fill="#64728C"/>
<rect x="24.5" y="82.5" width="409" height="119" rx="11.5" stroke="#E8EAEF"/>
<path d="M35.612 102.084C35.46 102.084 35.34 102.04 35.252 101.952C35.164 101.856 35.12 101.728 35.12 101.568V94.392H32.42C32.276 94.392 32.164 94.352 32.084 94.272C32.004 94.192 31.964 94.088 31.964 93.96C31.964 93.824 32.004 93.72 32.084 93.648C32.164 93.576 32.276 93.54 32.42 93.54H38.816C38.96 93.54 39.072 93.576 39.152 93.648C39.232 93.72 39.272 93.824 39.272 93.96C39.272 94.096 39.232 94.204 39.152 94.284C39.072 94.356 38.96 94.392 38.816 94.392H36.116V101.568C36.116 101.728 36.072 101.856 35.984 101.952C35.904 102.04 35.78 102.084 35.612 102.084ZM40.5596 104.244C40.4396 104.244 40.3436 104.212 40.2716 104.148C40.1996 104.084 40.1556 103.996 40.1396 103.884C40.1316 103.78 40.1516 103.672 40.1996 103.56L41.0276 101.7V102.12L38.7236 96.768C38.6756 96.648 38.6596 96.536 38.6756 96.432C38.6916 96.328 38.7396 96.244 38.8196 96.18C38.8996 96.116 39.0116 96.084 39.1556 96.084C39.2836 96.084 39.3836 96.112 39.4556 96.168C39.5276 96.224 39.5916 96.324 39.6476 96.468L41.6156 101.292H41.2916L43.2836 96.468C43.3476 96.324 43.4156 96.224 43.4876 96.168C43.5596 96.112 43.6636 96.084 43.7996 96.084C43.9276 96.084 44.0236 96.116 44.0876 96.18C44.1596 96.244 44.1996 96.328 44.2076 96.432C44.2236 96.528 44.2076 96.636 44.1596 96.756L41.0876 103.86C41.0236 104.004 40.9516 104.104 40.8716 104.16C40.7996 104.216 40.6956 104.244 40.5596 104.244ZM45.9076 104.244C45.7476 104.244 45.6276 104.2 45.5476 104.112C45.4676 104.032 45.4276 103.912 45.4276 103.752V96.576C45.4276 96.416 45.4676 96.296 45.5476 96.216C45.6276 96.128 45.7436 96.084 45.8956 96.084C46.0556 96.084 46.1756 96.128 46.2556 96.216C46.3436 96.296 46.3876 96.416 46.3876 96.576V97.716L46.2556 97.548C46.3836 97.092 46.6356 96.732 47.0116 96.468C47.3956 96.196 47.8516 96.06 48.3796 96.06C48.8996 96.06 49.3516 96.184 49.7356 96.432C50.1276 96.672 50.4276 97.02 50.6356 97.476C50.8516 97.924 50.9596 98.46 50.9596 99.084C50.9596 99.7 50.8516 100.236 50.6356 100.692C50.4276 101.14 50.1316 101.488 49.7476 101.736C49.3636 101.984 48.9076 102.108 48.3796 102.108C47.8516 102.108 47.3996 101.976 47.0236 101.712C46.6476 101.44 46.3916 101.08 46.2556 100.632H46.3996V103.752C46.3996 103.912 46.3556 104.032 46.2676 104.112C46.1796 104.2 46.0596 104.244 45.9076 104.244ZM48.1756 101.328C48.5436 101.328 48.8596 101.24 49.1236 101.064C49.3956 100.888 49.6036 100.632 49.7476 100.296C49.8996 99.96 49.9756 99.556 49.9756 99.084C49.9756 98.356 49.8116 97.8 49.4836 97.416C49.1636 97.032 48.7276 96.84 48.1756 96.84C47.8156 96.84 47.4996 96.928 47.2276 97.104C46.9556 97.272 46.7436 97.524 46.5916 97.86C46.4476 98.188 46.3756 98.596 46.3756 99.084C46.3756 99.804 46.5396 100.36 46.8676 100.752C47.1956 101.136 47.6316 101.328 48.1756 101.328ZM55.0517 102.108C54.4357 102.108 53.9037 101.988 53.4557 101.748C53.0157 101.5 52.6717 101.152 52.4237 100.704C52.1837 100.256 52.0637 99.72 52.0637 99.096C52.0637 98.488 52.1837 97.96 52.4237 97.512C52.6637 97.056 52.9917 96.7 53.4077 96.444C53.8317 96.188 54.3197 96.06 54.8717 96.06C55.2637 96.06 55.6157 96.128 55.9277 96.264C56.2397 96.392 56.5037 96.58 56.7197 96.828C56.9437 97.076 57.1117 97.376 57.2237 97.728C57.3437 98.08 57.4037 98.476 57.4037 98.916C57.4037 99.044 57.3677 99.14 57.2957 99.204C57.2237 99.26 57.1197 99.288 56.9837 99.288H52.8077V98.652H56.7557L56.5637 98.808C56.5637 98.376 56.4997 98.012 56.3717 97.716C56.2437 97.412 56.0557 97.18 55.8077 97.02C55.5677 96.86 55.2637 96.78 54.8957 96.78C54.4877 96.78 54.1397 96.876 53.8517 97.068C53.5717 97.252 53.3597 97.512 53.2157 97.848C53.0717 98.176 52.9997 98.56 52.9997 99V99.072C52.9997 99.808 53.1757 100.368 53.5277 100.752C53.8877 101.136 54.3957 101.328 55.0517 101.328C55.3237 101.328 55.5917 101.292 55.8557 101.22C56.1277 101.148 56.3917 101.028 56.6477 100.86C56.7597 100.788 56.8597 100.756 56.9477 100.764C57.0437 100.764 57.1197 100.792 57.1757 100.848C57.2317 100.896 57.2677 100.96 57.2837 101.04C57.3077 101.112 57.2997 101.192 57.2597 101.28C57.2277 101.368 57.1597 101.444 57.0557 101.508C56.7917 101.7 56.4797 101.848 56.1197 101.952C55.7597 102.056 55.4037 102.108 55.0517 102.108ZM63.2002 104.244C63.0802 104.244 62.9842 104.212 62.9122 104.148C62.8402 104.084 62.7962 103.996 62.7802 103.884C62.7722 103.78 62.7922 103.672 62.8402 103.56L63.6682 101.7V102.12L61.3642 96.768C61.3162 96.648 61.3002 96.536 61.3162 96.432C61.3322 96.328 61.3802 96.244 61.4602 96.18C61.5402 96.116 61.6522 96.084 61.7962 96.084C61.9242 96.084 62.0242 96.112 62.0962 96.168C62.1682 96.224 62.2322 96.324 62.2882 96.468L64.2562 101.292H63.9322L65.9242 96.468C65.9882 96.324 66.0562 96.224 66.1282 96.168C66.2002 96.112 66.3042 96.084 66.4402 96.084C66.5682 96.084 66.6642 96.116 66.7282 96.18C66.8002 96.244 66.8402 96.328 66.8482 96.432C66.8642 96.528 66.8482 96.636 66.8002 96.756L63.7282 103.86C63.6642 104.004 63.5922 104.104 63.5122 104.16C63.4402 104.216 63.3362 104.244 63.2002 104.244ZM70.4102 102.108C69.8422 102.108 69.3502 101.984 68.9342 101.736C68.5182 101.488 68.1942 101.14 67.9622 100.692C67.7382 100.236 67.6262 99.7 67.6262 99.084C67.6262 98.62 67.6902 98.204 67.8182 97.836C67.9462 97.46 68.1342 97.14 68.3822 96.876C68.6302 96.612 68.9222 96.412 69.2582 96.276C69.6022 96.132 69.9862 96.06 70.4102 96.06C70.9782 96.06 71.4702 96.184 71.8862 96.432C72.3022 96.68 72.6222 97.032 72.8462 97.488C73.0782 97.936 73.1942 98.468 73.1942 99.084C73.1942 99.548 73.1302 99.964 73.0022 100.332C72.8742 100.7 72.6862 101.02 72.4382 101.292C72.1902 101.556 71.8942 101.76 71.5502 101.904C71.2142 102.04 70.8342 102.108 70.4102 102.108ZM70.4102 101.328C70.7702 101.328 71.0862 101.24 71.3582 101.064C71.6302 100.888 71.8382 100.632 71.9822 100.296C72.1342 99.96 72.2102 99.556 72.2102 99.084C72.2102 98.356 72.0462 97.8 71.7182 97.416C71.3982 97.032 70.9622 96.84 70.4102 96.84C70.0422 96.84 69.7222 96.928 69.4502 97.104C69.1862 97.272 68.9782 97.524 68.8262 97.86C68.6822 98.188 68.6102 98.596 68.6102 99.084C68.6102 99.804 68.7742 100.36 69.1022 100.752C69.4302 101.136 69.8662 101.328 70.4102 101.328ZM76.7182 102.108C76.2462 102.108 75.8542 102.024 75.5422 101.856C75.2382 101.68 75.0062 101.42 74.8462 101.076C74.6942 100.732 74.6182 100.304 74.6182 99.792V96.576C74.6182 96.408 74.6582 96.284 74.7382 96.204C74.8262 96.124 74.9462 96.084 75.0982 96.084C75.2582 96.084 75.3782 96.124 75.4582 96.204C75.5462 96.284 75.5902 96.408 75.5902 96.576V99.78C75.5902 100.292 75.6942 100.676 75.9022 100.932C76.1182 101.18 76.4542 101.304 76.9102 101.304C77.4062 101.304 77.8102 101.136 78.1222 100.8C78.4342 100.464 78.5902 100.024 78.5902 99.48V96.576C78.5902 96.408 78.6302 96.284 78.7102 96.204C78.7982 96.124 78.9222 96.084 79.0822 96.084C79.2342 96.084 79.3502 96.124 79.4302 96.204C79.5182 96.284 79.5622 96.408 79.5622 96.576V101.58C79.5622 101.916 79.4062 102.084 79.0942 102.084C78.9422 102.084 78.8222 102.04 78.7342 101.952C78.6542 101.864 78.6142 101.74 78.6142 101.58V100.488L78.7702 100.656C78.6102 101.128 78.3462 101.488 77.9782 101.736C77.6182 101.984 77.1982 102.108 76.7182 102.108ZM81.8728 102.084C81.7128 102.084 81.5888 102.04 81.5008 101.952C81.4208 101.864 81.3808 101.74 81.3808 101.58V96.576C81.3808 96.416 81.4208 96.296 81.5008 96.216C81.5808 96.128 81.6968 96.084 81.8488 96.084C82.0008 96.084 82.1168 96.128 82.1968 96.216C82.2848 96.296 82.3288 96.416 82.3288 96.576V97.548H82.2088C82.3368 97.076 82.5808 96.712 82.9408 96.456C83.3008 96.2 83.7448 96.064 84.2728 96.048C84.3928 96.04 84.4888 96.068 84.5608 96.132C84.6328 96.188 84.6728 96.288 84.6808 96.432C84.6888 96.568 84.6568 96.676 84.5848 96.756C84.5128 96.836 84.4008 96.884 84.2488 96.9L84.0568 96.924C83.5128 96.972 83.0928 97.148 82.7968 97.452C82.5088 97.748 82.3648 98.156 82.3648 98.676V101.58C82.3648 101.74 82.3208 101.864 82.2327 101.952C82.1528 102.04 82.0328 102.084 81.8728 102.084ZM92.5673 102.108C91.7353 102.108 91.0233 101.932 90.4313 101.58C89.8393 101.228 89.3833 100.728 89.0633 100.08C88.7513 99.432 88.5953 98.66 88.5953 97.764C88.5953 97.092 88.6833 96.492 88.8593 95.964C89.0433 95.428 89.3033 94.976 89.6393 94.608C89.9833 94.232 90.4033 93.944 90.8993 93.744C91.3953 93.536 91.9513 93.432 92.5673 93.432C93.0633 93.432 93.5353 93.504 93.9833 93.648C94.4313 93.784 94.8193 93.988 95.1473 94.26C95.2513 94.34 95.3193 94.432 95.3513 94.536C95.3913 94.632 95.3953 94.728 95.3633 94.824C95.3393 94.912 95.2913 94.988 95.2193 95.052C95.1553 95.108 95.0753 95.136 94.9793 95.136C94.8833 95.136 94.7753 95.096 94.6553 95.016C94.3673 94.784 94.0513 94.612 93.7073 94.5C93.3633 94.388 92.9913 94.332 92.5913 94.332C91.9593 94.332 91.4233 94.468 90.9833 94.74C90.5433 95.004 90.2113 95.392 89.9873 95.904C89.7633 96.416 89.6513 97.036 89.6513 97.764C89.6513 98.492 89.7633 99.116 89.9873 99.636C90.2113 100.148 90.5433 100.54 90.9833 100.812C91.4233 101.076 91.9593 101.208 92.5913 101.208C92.9833 101.208 93.3553 101.152 93.7073 101.04C94.0593 100.92 94.3833 100.744 94.6793 100.512C94.7993 100.432 94.9073 100.396 95.0033 100.404C95.0993 100.404 95.1793 100.432 95.2433 100.488C95.3073 100.544 95.3513 100.616 95.3753 100.704C95.4073 100.792 95.4073 100.884 95.3753 100.98C95.3513 101.076 95.2913 101.16 95.1953 101.232C94.8593 101.52 94.4633 101.74 94.0073 101.892C93.5593 102.036 93.0793 102.108 92.5673 102.108ZM98.8516 102.108C98.2836 102.108 97.7916 101.984 97.3756 101.736C96.9596 101.488 96.6356 101.14 96.4036 100.692C96.1796 100.236 96.0676 99.7 96.0676 99.084C96.0676 98.62 96.1316 98.204 96.2596 97.836C96.3876 97.46 96.5756 97.14 96.8236 96.876C97.0716 96.612 97.3636 96.412 97.6996 96.276C98.0436 96.132 98.4276 96.06 98.8516 96.06C99.4196 96.06 99.9116 96.184 100.328 96.432C100.744 96.68 101.064 97.032 101.288 97.488C101.52 97.936 101.636 98.468 101.636 99.084C101.636 99.548 101.572 99.964 101.444 100.332C101.316 100.7 101.128 101.02 100.88 101.292C100.632 101.556 100.336 101.76 99.9916 101.904C99.6556 102.04 99.2756 102.108 98.8516 102.108ZM98.8516 101.328C99.2116 101.328 99.5276 101.24 99.7996 101.064C100.072 100.888 100.28 100.632 100.424 100.296C100.576 99.96 100.652 99.556 100.652 99.084C100.652 98.356 100.488 97.8 100.16 97.416C99.8396 97.032 99.4036 96.84 98.8516 96.84C98.4836 96.84 98.1636 96.928 97.8916 97.104C97.6276 97.272 97.4196 97.524 97.2676 97.86C97.1236 98.188 97.0516 98.596 97.0516 99.084C97.0516 99.804 97.2156 100.36 97.5436 100.752C97.8716 101.136 98.3076 101.328 98.8516 101.328ZM103.6 102.084C103.44 102.084 103.32 102.04 103.24 101.952C103.16 101.864 103.12 101.74 103.12 101.58V96.576C103.12 96.416 103.16 96.296 103.24 96.216C103.32 96.128 103.436 96.084 103.588 96.084C103.74 96.084 103.856 96.128 103.936 96.216C104.024 96.296 104.068 96.416 104.068 96.576V97.632L103.936 97.464C104.088 97.016 104.332 96.672 104.668 96.432C105.012 96.184 105.42 96.06 105.892 96.06C106.388 96.06 106.788 96.18 107.092 96.42C107.404 96.652 107.612 97.016 107.716 97.512H107.536C107.68 97.064 107.936 96.712 108.304 96.456C108.68 96.192 109.116 96.06 109.612 96.06C110.052 96.06 110.412 96.144 110.692 96.312C110.98 96.48 111.196 96.736 111.34 97.08C111.484 97.416 111.556 97.844 111.556 98.364V101.58C111.556 101.74 111.512 101.864 111.424 101.952C111.344 102.04 111.224 102.084 111.064 102.084C110.912 102.084 110.792 102.04 110.704 101.952C110.624 101.864 110.584 101.74 110.584 101.58V98.412C110.584 97.876 110.492 97.484 110.308 97.236C110.124 96.98 109.812 96.852 109.372 96.852C108.892 96.852 108.512 97.02 108.232 97.356C107.96 97.684 107.824 98.132 107.824 98.7V101.58C107.824 101.74 107.78 101.864 107.692 101.952C107.612 102.04 107.492 102.084 107.332 102.084C107.18 102.084 107.06 102.04 106.972 101.952C106.892 101.864 106.852 101.74 106.852 101.58V98.412C106.852 97.876 106.756 97.484 106.564 97.236C106.38 96.98 106.072 96.852 105.64 96.852C105.16 96.852 104.78 97.02 104.5 97.356C104.228 97.684 104.092 98.132 104.092 98.7V101.58C104.092 101.916 103.928 102.084 103.6 102.084ZM113.877 102.084C113.717 102.084 113.597 102.04 113.517 101.952C113.437 101.864 113.397 101.74 113.397 101.58V96.576C113.397 96.416 113.437 96.296 113.517 96.216C113.597 96.128 113.713 96.084 113.865 96.084C114.017 96.084 114.133 96.128 114.213 96.216C114.301 96.296 114.345 96.416 114.345 96.576V97.632L114.213 97.464C114.365 97.016 114.609 96.672 114.945 96.432C115.289 96.184 115.697 96.06 116.169 96.06C116.665 96.06 117.065 96.18 117.369 96.42C117.681 96.652 117.889 97.016 117.993 97.512H117.813C117.957 97.064 118.213 96.712 118.581 96.456C118.957 96.192 119.393 96.06 119.889 96.06C120.329 96.06 120.689 96.144 120.969 96.312C121.257 96.48 121.473 96.736 121.617 97.08C121.761 97.416 121.833 97.844 121.833 98.364V101.58C121.833 101.74 121.789 101.864 121.701 101.952C121.621 102.04 121.501 102.084 121.341 102.084C121.189 102.084 121.069 102.04 120.981 101.952C120.901 101.864 120.861 101.74 120.861 101.58V98.412C120.861 97.876 120.769 97.484 120.585 97.236C120.401 96.98 120.089 96.852 119.649 96.852C119.169 96.852 118.789 97.02 118.509 97.356C118.237 97.684 118.101 98.132 118.101 98.7V101.58C118.101 101.74 118.057 101.864 117.969 101.952C117.889 102.04 117.769 102.084 117.609 102.084C117.457 102.084 117.337 102.04 117.249 101.952C117.169 101.864 117.129 101.74 117.129 101.58V98.412C117.129 97.876 117.033 97.484 116.841 97.236C116.657 96.98 116.349 96.852 115.917 96.852C115.437 96.852 115.057 97.02 114.777 97.356C114.505 97.684 114.369 98.132 114.369 98.7V101.58C114.369 101.916 114.205 102.084 113.877 102.084ZM126.278 102.108C125.662 102.108 125.13 101.988 124.682 101.748C124.242 101.5 123.898 101.152 123.65 100.704C123.41 100.256 123.29 99.72 123.29 99.096C123.29 98.488 123.41 97.96 123.65 97.512C123.89 97.056 124.218 96.7 124.634 96.444C125.058 96.188 125.546 96.06 126.098 96.06C126.49 96.06 126.842 96.128 127.154 96.264C127.466 96.392 127.73 96.58 127.946 96.828C128.17 97.076 128.338 97.376 128.45 97.728C128.57 98.08 128.63 98.476 128.63 98.916C128.63 99.044 128.594 99.14 128.522 99.204C128.45 99.26 128.346 99.288 128.21 99.288H124.034V98.652H127.982L127.79 98.808C127.79 98.376 127.726 98.012 127.598 97.716C127.47 97.412 127.282 97.18 127.034 97.02C126.794 96.86 126.49 96.78 126.122 96.78C125.714 96.78 125.366 96.876 125.078 97.068C124.798 97.252 124.586 97.512 124.442 97.848C124.298 98.176 124.226 98.56 124.226 99V99.072C124.226 99.808 124.402 100.368 124.754 100.752C125.114 101.136 125.622 101.328 126.278 101.328C126.55 101.328 126.818 101.292 127.082 101.22C127.354 101.148 127.618 101.028 127.874 100.86C127.986 100.788 128.086 100.756 128.174 100.764C128.27 100.764 128.346 100.792 128.402 100.848C128.458 100.896 128.494 100.96 128.51 101.04C128.534 101.112 128.526 101.192 128.486 101.28C128.454 101.368 128.386 101.444 128.282 101.508C128.018 101.7 127.706 101.848 127.346 101.952C126.986 102.056 126.63 102.108 126.278 102.108ZM130.517 102.084C130.357 102.084 130.237 102.04 130.157 101.952C130.077 101.864 130.037 101.74 130.037 101.58V96.576C130.037 96.416 130.077 96.296 130.157 96.216C130.237 96.128 130.353 96.084 130.505 96.084C130.657 96.084 130.773 96.128 130.853 96.216C130.941 96.296 130.985 96.416 130.985 96.576V97.608L130.853 97.464C131.021 97 131.293 96.652 131.669 96.42C132.053 96.18 132.493 96.06 132.989 96.06C133.453 96.06 133.837 96.144 134.141 96.312C134.453 96.48 134.685 96.736 134.837 97.08C134.989 97.416 135.065 97.844 135.065 98.364V101.58C135.065 101.74 135.021 101.864 134.933 101.952C134.853 102.04 134.737 102.084 134.585 102.084C134.425 102.084 134.301 102.04 134.213 101.952C134.133 101.864 134.093 101.74 134.093 101.58V98.424C134.093 97.88 133.985 97.484 133.769 97.236C133.561 96.98 133.225 96.852 132.761 96.852C132.225 96.852 131.797 97.02 131.477 97.356C131.165 97.684 131.009 98.124 131.009 98.676V101.58C131.009 101.916 130.845 102.084 130.517 102.084ZM139.197 102.108C138.741 102.108 138.357 102.028 138.045 101.868C137.741 101.7 137.513 101.46 137.361 101.148C137.209 100.828 137.133 100.44 137.133 99.984V96.924H136.329C136.193 96.924 136.089 96.892 136.017 96.828C135.945 96.756 135.909 96.66 135.909 96.54C135.909 96.42 135.945 96.328 136.017 96.264C136.089 96.2 136.193 96.168 136.329 96.168H137.133V94.788C137.133 94.628 137.177 94.508 137.265 94.428C137.353 94.34 137.473 94.296 137.625 94.296C137.777 94.296 137.893 94.34 137.973 94.428C138.061 94.508 138.105 94.628 138.105 94.788V96.168H139.617C139.753 96.168 139.857 96.2 139.929 96.264C140.001 96.328 140.037 96.42 140.037 96.54C140.037 96.66 140.001 96.756 139.929 96.828C139.857 96.892 139.753 96.924 139.617 96.924H138.105V99.888C138.105 100.344 138.201 100.692 138.393 100.932C138.585 101.164 138.897 101.28 139.329 101.28C139.481 101.28 139.609 101.264 139.713 101.232C139.825 101.2 139.917 101.184 139.989 101.184C140.061 101.176 140.121 101.2 140.169 101.256C140.217 101.312 140.241 101.408 140.241 101.544C140.241 101.64 140.221 101.728 140.181 101.808C140.149 101.888 140.089 101.944 140.001 101.976C139.905 102.008 139.777 102.036 139.617 102.06C139.465 102.092 139.325 102.108 139.197 102.108ZM144.77 102.084C144.61 102.084 144.486 102.04 144.398 101.952C144.318 101.856 144.278 101.728 144.278 101.568V93.972C144.278 93.804 144.318 93.676 144.398 93.588C144.486 93.5 144.61 93.456 144.77 93.456C144.93 93.456 145.05 93.5 145.13 93.588C145.218 93.676 145.262 93.804 145.262 93.972V97.284H150.338V93.972C150.338 93.804 150.378 93.676 150.458 93.588C150.546 93.5 150.67 93.456 150.83 93.456C150.99 93.456 151.11 93.5 151.19 93.588C151.278 93.676 151.322 93.804 151.322 93.972V101.568C151.322 101.728 151.278 101.856 151.19 101.952C151.11 102.04 150.99 102.084 150.83 102.084C150.67 102.084 150.546 102.04 150.458 101.952C150.378 101.856 150.338 101.728 150.338 101.568V98.136H145.262V101.568C145.262 101.728 145.222 101.856 145.142 101.952C145.062 102.04 144.938 102.084 144.77 102.084ZM155.903 102.108C155.287 102.108 154.755 101.988 154.307 101.748C153.867 101.5 153.523 101.152 153.275 100.704C153.035 100.256 152.915 99.72 152.915 99.096C152.915 98.488 153.035 97.96 153.275 97.512C153.515 97.056 153.843 96.7 154.259 96.444C154.683 96.188 155.171 96.06 155.723 96.06C156.115 96.06 156.467 96.128 156.779 96.264C157.091 96.392 157.355 96.58 157.571 96.828C157.795 97.076 157.963 97.376 158.075 97.728C158.195 98.08 158.255 98.476 158.255 98.916C158.255 99.044 158.219 99.14 158.147 99.204C158.075 99.26 157.971 99.288 157.835 99.288H153.659V98.652H157.607L157.415 98.808C157.415 98.376 157.351 98.012 157.223 97.716C157.095 97.412 156.907 97.18 156.659 97.02C156.419 96.86 156.115 96.78 155.747 96.78C155.339 96.78 154.991 96.876 154.703 97.068C154.423 97.252 154.211 97.512 154.067 97.848C153.923 98.176 153.851 98.56 153.851 99V99.072C153.851 99.808 154.027 100.368 154.379 100.752C154.739 101.136 155.247 101.328 155.903 101.328C156.175 101.328 156.443 101.292 156.707 101.22C156.979 101.148 157.243 101.028 157.499 100.86C157.611 100.788 157.711 100.756 157.799 100.764C157.895 100.764 157.971 100.792 158.027 100.848C158.083 100.896 158.119 100.96 158.135 101.04C158.159 101.112 158.151 101.192 158.111 101.28C158.079 101.368 158.011 101.444 157.907 101.508C157.643 101.7 157.331 101.848 156.971 101.952C156.611 102.056 156.255 102.108 155.903 102.108ZM160.154 102.084C159.994 102.084 159.87 102.04 159.782 101.952C159.702 101.864 159.662 101.74 159.662 101.58V96.576C159.662 96.416 159.702 96.296 159.782 96.216C159.862 96.128 159.978 96.084 160.13 96.084C160.282 96.084 160.398 96.128 160.478 96.216C160.566 96.296 160.61 96.416 160.61 96.576V97.548H160.49C160.618 97.076 160.862 96.712 161.222 96.456C161.582 96.2 162.026 96.064 162.554 96.048C162.674 96.04 162.77 96.068 162.842 96.132C162.914 96.188 162.954 96.288 162.962 96.432C162.97 96.568 162.938 96.676 162.866 96.756C162.794 96.836 162.682 96.884 162.53 96.9L162.338 96.924C161.794 96.972 161.374 97.148 161.078 97.452C160.79 97.748 160.646 98.156 160.646 98.676V101.58C160.646 101.74 160.602 101.864 160.514 101.952C160.434 102.04 160.314 102.084 160.154 102.084ZM166.52 102.108C165.904 102.108 165.372 101.988 164.924 101.748C164.484 101.5 164.14 101.152 163.892 100.704C163.652 100.256 163.532 99.72 163.532 99.096C163.532 98.488 163.652 97.96 163.892 97.512C164.132 97.056 164.46 96.7 164.876 96.444C165.3 96.188 165.788 96.06 166.34 96.06C166.732 96.06 167.084 96.128 167.396 96.264C167.708 96.392 167.972 96.58 168.188 96.828C168.412 97.076 168.58 97.376 168.692 97.728C168.812 98.08 168.872 98.476 168.872 98.916C168.872 99.044 168.836 99.14 168.764 99.204C168.692 99.26 168.588 99.288 168.452 99.288H164.276V98.652H168.224L168.032 98.808C168.032 98.376 167.968 98.012 167.84 97.716C167.712 97.412 167.524 97.18 167.276 97.02C167.036 96.86 166.732 96.78 166.364 96.78C165.956 96.78 165.608 96.876 165.32 97.068C165.04 97.252 164.828 97.512 164.684 97.848C164.54 98.176 164.468 98.56 164.468 99V99.072C164.468 99.808 164.644 100.368 164.996 100.752C165.356 101.136 165.864 101.328 166.52 101.328C166.792 101.328 167.06 101.292 167.324 101.22C167.596 101.148 167.86 101.028 168.116 100.86C168.228 100.788 168.328 100.756 168.416 100.764C168.512 100.764 168.588 100.792 168.644 100.848C168.7 100.896 168.736 100.96 168.752 101.04C168.776 101.112 168.768 101.192 168.728 101.28C168.696 101.368 168.628 101.444 168.524 101.508C168.26 101.7 167.948 101.848 167.588 101.952C167.228 102.056 166.872 102.108 166.52 102.108ZM170.747 102.048C170.547 102.048 170.387 101.988 170.267 101.868C170.147 101.74 170.087 101.58 170.087 101.388C170.087 101.196 170.147 101.04 170.267 100.92C170.387 100.792 170.547 100.728 170.747 100.728C170.947 100.728 171.103 100.792 171.215 100.92C171.335 101.04 171.395 101.196 171.395 101.388C171.395 101.58 171.335 101.74 171.215 101.868C171.103 101.988 170.947 102.048 170.747 102.048ZM173.478 102.048C173.278 102.048 173.118 101.988 172.998 101.868C172.878 101.74 172.818 101.58 172.818 101.388C172.818 101.196 172.878 101.04 172.998 100.92C173.118 100.792 173.278 100.728 173.478 100.728C173.678 100.728 173.834 100.792 173.946 100.92C174.066 101.04 174.126 101.196 174.126 101.388C174.126 101.58 174.066 101.74 173.946 101.868C173.834 101.988 173.678 102.048 173.478 102.048ZM176.208 102.048C176.008 102.048 175.848 101.988 175.728 101.868C175.608 101.74 175.548 101.58 175.548 101.388C175.548 101.196 175.608 101.04 175.728 100.92C175.848 100.792 176.008 100.728 176.208 100.728C176.408 100.728 176.564 100.792 176.676 100.92C176.796 101.04 176.856 101.196 176.856 101.388C176.856 101.58 176.796 101.74 176.676 101.868C176.564 101.988 176.408 102.048 176.208 102.048Z" fill="#929BAA"/>
</g>
<path d="M65.9181 55.8401C65.9181 55.8401 40.7214 55.9238 40.9524 32.0828C40.7214 55.9233 17.0792 56.0024 17.0792 56.0024L65.9181 55.8401Z" fill="white"/>
<rect x="25" width="32" height="32" rx="16" fill="#64728C" fill-opacity="0.15"/>
<path d="M40.9883 9.87549C37.1219 9.87549 34.0129 12.4217 34.0129 15.563C34.0129 16.9198 34.5967 18.1601 35.5707 19.1368C35.2289 20.5141 34.0867 21.7419 34.073 21.7555C34.0115 21.8171 33.9944 21.9123 34.032 21.9943C34.0662 22.0764 34.142 22.1247 34.2308 22.1247C36.0424 22.1247 37.3781 21.2562 38.0754 20.7195C38.9676 21.0544 39.9626 21.2497 41.0121 21.2497C44.8785 21.2497 47.9875 18.7031 47.9875 15.5868C47.9875 12.4704 44.8547 9.87549 40.9883 9.87549ZM37.4637 16.438C36.9783 16.438 36.5887 16.0483 36.5887 15.5876C36.5887 15.1269 36.9783 14.7126 37.4637 14.7126C37.949 14.7126 38.3387 15.1022 38.3387 15.5876C38.3387 16.0729 37.9723 16.438 37.4637 16.438ZM40.9883 16.438C40.5029 16.438 40.1379 16.0483 40.1379 15.5876C40.1379 15.1269 40.5275 14.7126 40.9883 14.7126C41.449 14.7126 41.8387 15.1022 41.8387 15.5876C41.8387 16.0729 41.475 16.438 40.9883 16.438ZM44.4637 16.438C43.9783 16.438 43.5887 16.0483 43.5887 15.5876C43.5887 15.1269 43.9783 14.7126 44.4637 14.7126C44.949 14.7126 45.3387 15.1022 45.3387 15.5876C45.3387 16.0729 44.9723 16.438 44.4637 16.438Z" fill="#64728C"/>
<defs>
<filter id="filter0_d_887_945" x="0" y="49" width="458" height="185" filterUnits="userSpaceOnUse" color-interpolation-filters="sRGB">
<feFlood flood-opacity="0" result="BackgroundImageFix"/>
<feColorMatrix in="SourceAlpha" type="matrix" values="0 0 0 0 0 0 0 0 0 0 0 0 0 0 0 0 0 0 127 0" result="hardAlpha"/>
<feOffset dy="4"/>
<feGaussianBlur stdDeviation="2"/>
<feComposite in2="hardAlpha" operator="out"/>
<feColorMatrix type="matrix" values="0 0 0 0 0 0 0 0 0 0 0 0 0 0 0 0 0 0 0.05 0"/>
<feBlend mode="normal" in2="BackgroundImageFix" result="effect1_dropShadow_887_945"/>
<feBlend mode="normal" in="SourceGraphic" in2="effect1_dropShadow_887_945" result="shape"/>
</filter>
</defs>
</svg>
