<svg width="261" height="93" viewBox="0 0 261 93" fill="none" xmlns="http://www.w3.org/2000/svg">
<path d="M9 0C7.21997 0 5.47991 0.527841 3.99987 1.51677C2.51983 2.50571 1.36628 3.91131 0.685088 5.55585C0.00389956 7.20038 -0.17433 9.00998 0.172936 10.7558C0.520203 12.5016 1.37737 14.1053 2.63604 15.364C3.89471 16.6226 5.49836 17.4798 7.24419 17.8271C8.99002 18.1743 10.7996 17.9961 12.4442 17.3149C14.0887 16.6337 15.4943 15.4802 16.4832 14.0001C17.4722 12.5201 18 10.78 18 9C17.9954 6.61446 17.0457 4.32793 15.3589 2.64109C13.6721 0.954255 11.3855 0.0045744 9 0ZM9 14.5385C8.79461 14.5385 8.59384 14.4776 8.42306 14.3634C8.25229 14.2493 8.11919 14.0872 8.04059 13.8974C7.96199 13.7076 7.94142 13.4988 7.98149 13.2974C8.02156 13.096 8.12047 12.9109 8.2657 12.7657C8.41093 12.6205 8.59597 12.5216 8.79741 12.4815C8.99885 12.4414 9.20765 12.462 9.3974 12.5406C9.58716 12.6192 9.74934 12.7523 9.86345 12.9231C9.97756 13.0938 10.0385 13.2946 10.0385 13.5C10.0385 13.7754 9.92905 14.0395 9.7343 14.2343C9.53956 14.429 9.27542 14.5385 9 14.5385ZM9.69231 10.3067V10.3846C9.69231 10.5682 9.61937 10.7443 9.48954 10.8741C9.3597 11.004 9.18361 11.0769 9 11.0769C8.81639 11.0769 8.6403 11.004 8.51047 10.8741C8.38063 10.7443 8.30769 10.5682 8.30769 10.3846V9.69231C8.30769 9.50869 8.38063 9.3326 8.51047 9.20277C8.6403 9.07294 8.81639 9 9 9C9.34232 9 9.67694 8.89849 9.96157 8.70831C10.2462 8.51813 10.468 8.24782 10.599 7.93157C10.73 7.61531 10.7643 7.26731 10.6975 6.93157C10.6307 6.59584 10.4659 6.28744 10.2238 6.04539C9.98179 5.80334 9.67339 5.6385 9.33766 5.57172C9.00192 5.50493 8.65392 5.53921 8.33767 5.67021C8.02141 5.8012 7.7511 6.02304 7.56092 6.30767C7.37074 6.59229 7.26923 6.92692 7.26923 7.26923C7.26923 7.45284 7.19629 7.62893 7.06646 7.75876C6.93663 7.8886 6.76054 7.96154 6.57693 7.96154C6.39331 7.96154 6.21722 7.8886 6.08739 7.75876C5.95756 7.62893 5.88462 7.45284 5.88462 7.26923C5.88462 6.68276 6.05016 6.10821 6.3622 5.61165C6.67424 5.11509 7.1201 4.71669 7.64851 4.46227C8.17692 4.20785 8.76641 4.10776 9.34918 4.17349C9.93195 4.23922 10.4843 4.46811 10.9428 4.83384C11.4012 5.19956 11.7472 5.68727 11.9408 6.24086C12.1343 6.79446 12.1677 7.39145 12.0371 7.96318C11.9065 8.53491 11.6171 9.05816 11.2023 9.47274C10.7875 9.88733 10.2641 10.1764 9.69231 10.3067Z" fill="#64728C"/>
<g filter="url(#filter0_d_1251_15313)">
<rect x="18" y="13" width="239" height="72" rx="14" fill="#E8EAEF"/>
<rect x="18.5" y="13.5" width="238" height="71" rx="13.5" stroke="#64728C" stroke-opacity="0.21"/>
<rect x="18" y="13" width="239" height="68" rx="14" fill="white"/>
<path d="M37.672 42.084C37.472 42.084 37.316 42.028 37.204 41.916C37.1 41.804 37.048 41.648 37.048 41.448V34.584H34.504C34.336 34.584 34.204 34.54 34.108 34.452C34.012 34.356 33.964 34.224 33.964 34.056C33.964 33.888 34.012 33.76 34.108 33.672C34.204 33.584 34.336 33.54 34.504 33.54H40.828C41.004 33.54 41.14 33.584 41.236 33.672C41.332 33.76 41.38 33.888 41.38 34.056C41.38 34.224 41.332 34.356 41.236 34.452C41.14 34.54 41.004 34.584 40.828 34.584H38.284V41.448C38.284 41.648 38.232 41.804 38.128 41.916C38.032 42.028 37.88 42.084 37.672 42.084ZM43.2567 42.084C43.0647 42.084 42.9167 42.032 42.8127 41.928C42.7087 41.816 42.6567 41.664 42.6567 41.472V34.068C42.6567 33.868 42.7087 33.716 42.8127 33.612C42.9167 33.508 43.0647 33.456 43.2567 33.456C43.4487 33.456 43.5967 33.508 43.7007 33.612C43.8127 33.716 43.8687 33.868 43.8687 34.068V37.392H43.7007C43.8767 36.944 44.1527 36.608 44.5287 36.384C44.9047 36.152 45.3367 36.036 45.8247 36.036C46.2887 36.036 46.6727 36.124 46.9767 36.3C47.2887 36.468 47.5207 36.728 47.6727 37.08C47.8247 37.424 47.9007 37.86 47.9007 38.388V41.472C47.9007 41.664 47.8487 41.816 47.7447 41.928C47.6407 42.032 47.4927 42.084 47.3007 42.084C47.1007 42.084 46.9487 42.032 46.8447 41.928C46.7407 41.816 46.6887 41.664 46.6887 41.472V38.46C46.6887 37.956 46.5887 37.588 46.3887 37.356C46.1967 37.124 45.8927 37.008 45.4767 37.008C44.9887 37.008 44.5967 37.16 44.3007 37.464C44.0127 37.768 43.8687 38.176 43.8687 38.688V41.472C43.8687 41.88 43.6647 42.084 43.2567 42.084ZM50.1708 42.072C49.9788 42.072 49.8308 42.016 49.7268 41.904C49.6228 41.784 49.5708 41.62 49.5708 41.412V36.732C49.5708 36.524 49.6228 36.364 49.7268 36.252C49.8308 36.14 49.9788 36.084 50.1708 36.084C50.3628 36.084 50.5108 36.14 50.6148 36.252C50.7268 36.364 50.7828 36.524 50.7828 36.732V41.412C50.7828 41.62 50.7308 41.784 50.6268 41.904C50.5228 42.016 50.3708 42.072 50.1708 42.072ZM50.1708 34.836C49.9308 34.836 49.7428 34.776 49.6068 34.656C49.4788 34.536 49.4148 34.368 49.4148 34.152C49.4148 33.928 49.4788 33.76 49.6068 33.648C49.7428 33.528 49.9308 33.468 50.1708 33.468C50.4108 33.468 50.5948 33.528 50.7228 33.648C50.8588 33.76 50.9268 33.928 50.9268 34.152C50.9268 34.368 50.8588 34.536 50.7228 34.656C50.5948 34.776 50.4108 34.836 50.1708 34.836ZM54.5407 42.108C54.1887 42.108 53.8247 42.068 53.4487 41.988C53.0807 41.908 52.7407 41.772 52.4287 41.58C52.3247 41.508 52.2527 41.428 52.2127 41.34C52.1727 41.252 52.1567 41.164 52.1647 41.076C52.1807 40.98 52.2167 40.9 52.2727 40.836C52.3367 40.764 52.4127 40.72 52.5007 40.704C52.5967 40.688 52.6967 40.708 52.8007 40.764C53.1127 40.94 53.4127 41.064 53.7007 41.136C53.9887 41.2 54.2727 41.232 54.5527 41.232C54.9767 41.232 55.2967 41.156 55.5127 41.004C55.7287 40.852 55.8367 40.648 55.8367 40.392C55.8367 40.184 55.7647 40.024 55.6207 39.912C55.4767 39.792 55.2607 39.7 54.9727 39.636L53.8327 39.408C53.3367 39.304 52.9607 39.12 52.7047 38.856C52.4487 38.592 52.3207 38.256 52.3207 37.848C52.3207 37.48 52.4207 37.16 52.6207 36.888C52.8207 36.616 53.1007 36.408 53.4607 36.264C53.8207 36.112 54.2367 36.036 54.7087 36.036C55.0607 36.036 55.3927 36.08 55.7047 36.168C56.0167 36.256 56.3047 36.388 56.5687 36.564C56.6727 36.62 56.7407 36.696 56.7727 36.792C56.8047 36.88 56.8087 36.968 56.7847 37.056C56.7687 37.144 56.7287 37.224 56.6647 37.296C56.6007 37.36 56.5207 37.4 56.4247 37.416C56.3367 37.424 56.2367 37.4 56.1247 37.344C55.8847 37.192 55.6447 37.084 55.4047 37.02C55.1727 36.956 54.9407 36.924 54.7087 36.924C54.2847 36.924 53.9647 37.004 53.7487 37.164C53.5407 37.316 53.4367 37.524 53.4367 37.788C53.4367 37.988 53.5007 38.152 53.6287 38.28C53.7567 38.408 53.9567 38.5 54.2287 38.556L55.3687 38.784C55.8887 38.888 56.2807 39.064 56.5447 39.312C56.8167 39.56 56.9527 39.896 56.9527 40.32C56.9527 40.872 56.7327 41.308 56.2927 41.628C55.8527 41.948 55.2687 42.108 54.5407 42.108ZM63.6013 42.084C63.4333 42.084 63.2853 42.044 63.1573 41.964C63.0373 41.876 62.9413 41.74 62.8693 41.556L61.1053 36.888C61.0413 36.728 61.0213 36.588 61.0453 36.468C61.0693 36.34 61.1293 36.24 61.2253 36.168C61.3293 36.096 61.4613 36.06 61.6213 36.06C61.7653 36.06 61.8813 36.096 61.9693 36.168C62.0653 36.232 62.1453 36.36 62.2093 36.552L63.7813 40.98H63.4933L65.1253 36.504C65.1813 36.352 65.2573 36.24 65.3533 36.168C65.4493 36.096 65.5733 36.06 65.7253 36.06C65.8773 36.06 66.0013 36.096 66.0973 36.168C66.2013 36.24 66.2773 36.352 66.3253 36.504L67.9213 40.98H67.6573L69.2533 36.528C69.3173 36.344 69.3973 36.22 69.4933 36.156C69.5973 36.092 69.7133 36.06 69.8413 36.06C70.0013 36.06 70.1213 36.1 70.2013 36.18C70.2893 36.26 70.3373 36.364 70.3453 36.492C70.3613 36.612 70.3413 36.744 70.2853 36.888L68.5213 41.556C68.4493 41.732 68.3493 41.864 68.2213 41.952C68.1013 42.04 67.9613 42.084 67.8013 42.084C67.6333 42.084 67.4853 42.04 67.3573 41.952C67.2373 41.864 67.1413 41.732 67.0693 41.556L65.3893 37.008H65.9893L64.3213 41.556C64.2573 41.732 64.1613 41.864 64.0333 41.952C63.9133 42.04 63.7693 42.084 63.6013 42.084ZM72.2137 42.072C72.0217 42.072 71.8737 42.016 71.7697 41.904C71.6657 41.784 71.6137 41.62 71.6137 41.412V36.732C71.6137 36.524 71.6657 36.364 71.7697 36.252C71.8737 36.14 72.0217 36.084 72.2137 36.084C72.4057 36.084 72.5537 36.14 72.6577 36.252C72.7697 36.364 72.8257 36.524 72.8257 36.732V41.412C72.8257 41.62 72.7737 41.784 72.6697 41.904C72.5657 42.016 72.4137 42.072 72.2137 42.072ZM72.2137 34.836C71.9737 34.836 71.7857 34.776 71.6497 34.656C71.5217 34.536 71.4577 34.368 71.4577 34.152C71.4577 33.928 71.5217 33.76 71.6497 33.648C71.7857 33.528 71.9737 33.468 72.2137 33.468C72.4537 33.468 72.6377 33.528 72.7657 33.648C72.9017 33.76 72.9697 33.928 72.9697 34.152C72.9697 34.368 72.9017 34.536 72.7657 34.656C72.6377 34.776 72.4537 34.836 72.2137 34.836ZM76.4157 42.108C75.7917 42.108 75.3197 41.928 74.9997 41.568C74.6877 41.2 74.5317 40.672 74.5317 39.984V34.068C74.5317 33.868 74.5837 33.716 74.6877 33.612C74.7917 33.508 74.9397 33.456 75.1317 33.456C75.3237 33.456 75.4717 33.508 75.5757 33.612C75.6877 33.716 75.7437 33.868 75.7437 34.068V39.912C75.7437 40.312 75.8237 40.612 75.9837 40.812C76.1517 41.004 76.3917 41.1 76.7037 41.1C76.7757 41.1 76.8397 41.1 76.8957 41.1C76.9517 41.092 77.0077 41.084 77.0637 41.076C77.1597 41.068 77.2277 41.096 77.2677 41.16C77.3077 41.216 77.3277 41.336 77.3277 41.52C77.3277 41.688 77.2917 41.82 77.2197 41.916C77.1477 42.004 77.0317 42.06 76.8717 42.084C76.7997 42.092 76.7237 42.096 76.6437 42.096C76.5637 42.104 76.4877 42.108 76.4157 42.108ZM80.0837 42.108C79.4597 42.108 78.9877 41.928 78.6677 41.568C78.3557 41.2 78.1997 40.672 78.1997 39.984V34.068C78.1997 33.868 78.2517 33.716 78.3557 33.612C78.4597 33.508 78.6077 33.456 78.7997 33.456C78.9917 33.456 79.1397 33.508 79.2437 33.612C79.3557 33.716 79.4117 33.868 79.4117 34.068V39.912C79.4117 40.312 79.4917 40.612 79.6517 40.812C79.8197 41.004 80.0597 41.1 80.3717 41.1C80.4437 41.1 80.5077 41.1 80.5637 41.1C80.6197 41.092 80.6757 41.084 80.7317 41.076C80.8277 41.068 80.8957 41.096 80.9357 41.16C80.9757 41.216 80.9957 41.336 80.9957 41.52C80.9957 41.688 80.9597 41.82 80.8877 41.916C80.8157 42.004 80.6997 42.06 80.5397 42.084C80.4677 42.092 80.3917 42.096 80.3117 42.096C80.2317 42.104 80.1557 42.108 80.0837 42.108ZM85.6317 42.084C85.4397 42.084 85.2917 42.032 85.1877 41.928C85.0837 41.816 85.0317 41.664 85.0317 41.472V36.672C85.0317 36.472 85.0837 36.32 85.1877 36.216C85.2917 36.112 85.4357 36.06 85.6197 36.06C85.8117 36.06 85.9557 36.112 86.0517 36.216C86.1557 36.32 86.2077 36.472 86.2077 36.672V37.608L86.0757 37.392C86.2517 36.944 86.5277 36.608 86.9037 36.384C87.2797 36.152 87.7117 36.036 88.1997 36.036C88.6637 36.036 89.0477 36.124 89.3517 36.3C89.6637 36.468 89.8957 36.728 90.0477 37.08C90.1997 37.424 90.2757 37.86 90.2757 38.388V41.472C90.2757 41.664 90.2237 41.816 90.1197 41.928C90.0157 42.032 89.8677 42.084 89.6757 42.084C89.4757 42.084 89.3237 42.032 89.2197 41.928C89.1157 41.816 89.0637 41.664 89.0637 41.472V38.46C89.0637 37.956 88.9637 37.588 88.7637 37.356C88.5717 37.124 88.2677 37.008 87.8517 37.008C87.3637 37.008 86.9717 37.16 86.6757 37.464C86.3877 37.768 86.2437 38.176 86.2437 38.688V41.472C86.2437 41.88 86.0397 42.084 85.6317 42.084ZM94.4898 42.108C93.8978 42.108 93.3858 41.984 92.9538 41.736C92.5298 41.488 92.1978 41.136 91.9578 40.68C91.7178 40.224 91.5978 39.688 91.5978 39.072C91.5978 38.6 91.6658 38.18 91.8018 37.812C91.9378 37.444 92.1298 37.128 92.3778 36.864C92.6338 36.592 92.9378 36.388 93.2898 36.252C93.6498 36.108 94.0498 36.036 94.4898 36.036C95.0738 36.036 95.5778 36.16 96.0018 36.408C96.4338 36.656 96.7698 37.008 97.0098 37.464C97.2498 37.912 97.3698 38.448 97.3698 39.072C97.3698 39.536 97.3018 39.956 97.1658 40.332C97.0298 40.708 96.8338 41.028 96.5778 41.292C96.3298 41.556 96.0258 41.76 95.6658 41.904C95.3138 42.04 94.9218 42.108 94.4898 42.108ZM94.4898 41.172C94.8178 41.172 95.1058 41.092 95.3538 40.932C95.6018 40.772 95.7938 40.536 95.9298 40.224C96.0738 39.912 96.1458 39.528 96.1458 39.072C96.1458 38.384 95.9938 37.864 95.6898 37.512C95.3858 37.16 94.9858 36.984 94.4898 36.984C94.1538 36.984 93.8618 37.064 93.6138 37.224C93.3658 37.376 93.1698 37.608 93.0258 37.92C92.8898 38.232 92.8218 38.616 92.8218 39.072C92.8218 39.752 92.9738 40.272 93.2778 40.632C93.5818 40.992 93.9858 41.172 94.4898 41.172ZM101.168 42.108C100.688 42.108 100.284 42.024 99.9563 41.856C99.6283 41.688 99.3843 41.44 99.2243 41.112C99.0643 40.784 98.9843 40.384 98.9843 39.912V37.08H98.2643C98.1043 37.08 97.9803 37.04 97.8923 36.96C97.8043 36.872 97.7603 36.756 97.7603 36.612C97.7603 36.46 97.8043 36.344 97.8923 36.264C97.9803 36.184 98.1043 36.144 98.2643 36.144H98.9843V34.908C98.9843 34.708 99.0363 34.556 99.1403 34.452C99.2523 34.348 99.4043 34.296 99.5963 34.296C99.7883 34.296 99.9363 34.348 100.04 34.452C100.144 34.556 100.196 34.708 100.196 34.908V36.144H101.6C101.76 36.144 101.884 36.184 101.972 36.264C102.06 36.344 102.104 36.46 102.104 36.612C102.104 36.756 102.06 36.872 101.972 36.96C101.884 37.04 101.76 37.08 101.6 37.08H100.196V39.816C100.196 40.24 100.284 40.56 100.46 40.776C100.644 40.992 100.94 41.1 101.348 41.1C101.492 41.1 101.616 41.088 101.72 41.064C101.832 41.032 101.924 41.012 101.996 41.004C102.084 41.004 102.156 41.036 102.212 41.1C102.268 41.156 102.296 41.268 102.296 41.436C102.296 41.556 102.272 41.668 102.224 41.772C102.184 41.876 102.108 41.944 101.996 41.976C101.9 42.008 101.768 42.036 101.6 42.06C101.44 42.092 101.296 42.108 101.168 42.108ZM103.761 42.072C103.569 42.072 103.421 42.016 103.317 41.904C103.213 41.784 103.161 41.62 103.161 41.412V36.732C103.161 36.524 103.213 36.364 103.317 36.252C103.421 36.14 103.569 36.084 103.761 36.084C103.953 36.084 104.101 36.14 104.205 36.252C104.317 36.364 104.373 36.524 104.373 36.732V41.412C104.373 41.62 104.321 41.784 104.217 41.904C104.113 42.016 103.961 42.072 103.761 42.072ZM103.761 34.836C103.521 34.836 103.333 34.776 103.197 34.656C103.069 34.536 103.005 34.368 103.005 34.152C103.005 33.928 103.069 33.76 103.197 33.648C103.333 33.528 103.521 33.468 103.761 33.468C104.001 33.468 104.185 33.528 104.313 33.648C104.449 33.76 104.517 33.928 104.517 34.152C104.517 34.368 104.449 34.536 104.313 34.656C104.185 34.776 104.001 34.836 103.761 34.836ZM107.039 42.084C106.847 42.084 106.695 42.032 106.583 41.928C106.479 41.816 106.427 41.664 106.427 41.472V37.08H105.755C105.603 37.08 105.483 37.04 105.395 36.96C105.307 36.872 105.263 36.756 105.263 36.612C105.263 36.46 105.307 36.344 105.395 36.264C105.483 36.184 105.603 36.144 105.755 36.144H106.775L106.427 36.468V36.036C106.427 35.244 106.623 34.648 107.015 34.248C107.407 33.84 107.979 33.6 108.731 33.528L109.103 33.504C109.239 33.488 109.347 33.508 109.427 33.564C109.507 33.62 109.559 33.692 109.583 33.78C109.607 33.868 109.607 33.96 109.583 34.056C109.567 34.144 109.527 34.224 109.463 34.296C109.399 34.368 109.319 34.408 109.223 34.416L108.995 34.428C108.523 34.468 108.179 34.604 107.963 34.836C107.747 35.06 107.639 35.404 107.639 35.868V36.336L107.471 36.144H108.803C108.971 36.144 109.095 36.184 109.175 36.264C109.263 36.344 109.307 36.46 109.307 36.612C109.307 36.756 109.263 36.872 109.175 36.96C109.095 37.04 108.971 37.08 108.803 37.08H107.639V41.472C107.639 41.88 107.439 42.084 107.039 42.084ZM111.513 44.244C111.369 44.244 111.249 44.204 111.153 44.124C111.065 44.052 111.013 43.952 110.997 43.824C110.989 43.704 111.013 43.572 111.069 43.428L111.885 41.592V42.108L109.641 36.888C109.585 36.744 109.565 36.608 109.581 36.48C109.597 36.352 109.657 36.252 109.761 36.18C109.865 36.1 110.005 36.06 110.181 36.06C110.333 36.06 110.453 36.096 110.541 36.168C110.629 36.24 110.709 36.364 110.781 36.54L112.593 41.016H112.257L114.093 36.54C114.165 36.356 114.249 36.232 114.345 36.168C114.441 36.096 114.573 36.06 114.741 36.06C114.885 36.06 114.997 36.1 115.077 36.18C115.165 36.252 115.217 36.352 115.233 36.48C115.257 36.6 115.237 36.732 115.173 36.876L112.173 43.776C112.093 43.96 112.001 44.084 111.897 44.148C111.801 44.212 111.673 44.244 111.513 44.244ZM121.584 42.108C121.232 42.108 120.868 42.068 120.492 41.988C120.124 41.908 119.784 41.772 119.472 41.58C119.368 41.508 119.296 41.428 119.256 41.34C119.216 41.252 119.2 41.164 119.208 41.076C119.224 40.98 119.26 40.9 119.316 40.836C119.38 40.764 119.456 40.72 119.544 40.704C119.64 40.688 119.74 40.708 119.844 40.764C120.156 40.94 120.456 41.064 120.744 41.136C121.032 41.2 121.316 41.232 121.596 41.232C122.02 41.232 122.34 41.156 122.556 41.004C122.772 40.852 122.88 40.648 122.88 40.392C122.88 40.184 122.808 40.024 122.664 39.912C122.52 39.792 122.304 39.7 122.016 39.636L120.876 39.408C120.38 39.304 120.004 39.12 119.748 38.856C119.492 38.592 119.364 38.256 119.364 37.848C119.364 37.48 119.464 37.16 119.664 36.888C119.864 36.616 120.144 36.408 120.504 36.264C120.864 36.112 121.28 36.036 121.752 36.036C122.104 36.036 122.436 36.08 122.748 36.168C123.06 36.256 123.348 36.388 123.612 36.564C123.716 36.62 123.784 36.696 123.816 36.792C123.848 36.88 123.852 36.968 123.828 37.056C123.812 37.144 123.772 37.224 123.708 37.296C123.644 37.36 123.564 37.4 123.468 37.416C123.38 37.424 123.28 37.4 123.168 37.344C122.928 37.192 122.688 37.084 122.448 37.02C122.216 36.956 121.984 36.924 121.752 36.924C121.328 36.924 121.008 37.004 120.792 37.164C120.584 37.316 120.48 37.524 120.48 37.788C120.48 37.988 120.544 38.152 120.672 38.28C120.8 38.408 121 38.5 121.272 38.556L122.412 38.784C122.932 38.888 123.324 39.064 123.588 39.312C123.86 39.56 123.996 39.896 123.996 40.32C123.996 40.872 123.776 41.308 123.336 41.628C122.896 41.948 122.312 42.108 121.584 42.108ZM128.092 42.108C127.452 42.108 126.9 41.988 126.436 41.748C125.98 41.5 125.624 41.152 125.368 40.704C125.12 40.248 124.996 39.708 124.996 39.084C124.996 38.476 125.12 37.944 125.368 37.488C125.616 37.032 125.956 36.676 126.388 36.42C126.82 36.164 127.312 36.036 127.864 36.036C128.272 36.036 128.636 36.104 128.956 36.24C129.276 36.368 129.548 36.56 129.772 36.816C130.004 37.064 130.176 37.368 130.288 37.728C130.408 38.088 130.468 38.492 130.468 38.94C130.468 39.076 130.428 39.18 130.348 39.252C130.268 39.316 130.148 39.348 129.988 39.348H125.956V38.604H129.652L129.448 38.772C129.448 38.372 129.388 38.032 129.268 37.752C129.156 37.472 128.984 37.26 128.752 37.116C128.528 36.964 128.248 36.888 127.912 36.888C127.536 36.888 127.216 36.976 126.952 37.152C126.696 37.328 126.5 37.572 126.364 37.884C126.228 38.196 126.16 38.56 126.16 38.976V39.048C126.16 39.752 126.324 40.284 126.652 40.644C126.988 40.996 127.472 41.172 128.104 41.172C128.344 41.172 128.596 41.14 128.86 41.076C129.132 41.012 129.388 40.904 129.628 40.752C129.764 40.672 129.884 40.636 129.988 40.644C130.1 40.652 130.188 40.688 130.252 40.752C130.324 40.816 130.368 40.896 130.384 40.992C130.4 41.088 130.384 41.188 130.336 41.292C130.288 41.388 130.204 41.476 130.084 41.556C129.812 41.74 129.496 41.88 129.136 41.976C128.776 42.064 128.428 42.108 128.092 42.108ZM133.674 42.108C133.05 42.108 132.578 41.928 132.258 41.568C131.946 41.2 131.79 40.672 131.79 39.984V34.068C131.79 33.868 131.842 33.716 131.946 33.612C132.05 33.508 132.198 33.456 132.39 33.456C132.582 33.456 132.73 33.508 132.834 33.612C132.946 33.716 133.002 33.868 133.002 34.068V39.912C133.002 40.312 133.082 40.612 133.242 40.812C133.41 41.004 133.65 41.1 133.962 41.1C134.034 41.1 134.098 41.1 134.154 41.1C134.21 41.092 134.266 41.084 134.322 41.076C134.418 41.068 134.486 41.096 134.526 41.16C134.566 41.216 134.586 41.336 134.586 41.52C134.586 41.688 134.55 41.82 134.478 41.916C134.406 42.004 134.29 42.06 134.13 42.084C134.058 42.092 133.982 42.096 133.902 42.096C133.822 42.104 133.746 42.108 133.674 42.108ZM138.147 42.108C137.507 42.108 136.955 41.988 136.491 41.748C136.035 41.5 135.679 41.152 135.423 40.704C135.175 40.248 135.051 39.708 135.051 39.084C135.051 38.476 135.175 37.944 135.423 37.488C135.671 37.032 136.011 36.676 136.443 36.42C136.875 36.164 137.367 36.036 137.919 36.036C138.327 36.036 138.691 36.104 139.011 36.24C139.331 36.368 139.603 36.56 139.827 36.816C140.059 37.064 140.231 37.368 140.343 37.728C140.463 38.088 140.523 38.492 140.523 38.94C140.523 39.076 140.483 39.18 140.403 39.252C140.323 39.316 140.203 39.348 140.043 39.348H136.011V38.604H139.707L139.503 38.772C139.503 38.372 139.443 38.032 139.323 37.752C139.211 37.472 139.039 37.26 138.807 37.116C138.583 36.964 138.303 36.888 137.967 36.888C137.591 36.888 137.271 36.976 137.007 37.152C136.751 37.328 136.555 37.572 136.419 37.884C136.283 38.196 136.215 38.56 136.215 38.976V39.048C136.215 39.752 136.379 40.284 136.707 40.644C137.043 40.996 137.527 41.172 138.159 41.172C138.399 41.172 138.651 41.14 138.915 41.076C139.187 41.012 139.443 40.904 139.683 40.752C139.819 40.672 139.939 40.636 140.043 40.644C140.155 40.652 140.243 40.688 140.307 40.752C140.379 40.816 140.423 40.896 140.439 40.992C140.455 41.088 140.439 41.188 140.391 41.292C140.343 41.388 140.259 41.476 140.139 41.556C139.867 41.74 139.551 41.88 139.191 41.976C138.831 42.064 138.483 42.108 138.147 42.108ZM144.424 42.108C143.824 42.108 143.304 41.984 142.864 41.736C142.432 41.48 142.096 41.124 141.856 40.668C141.616 40.204 141.496 39.66 141.496 39.036C141.496 38.572 141.564 38.156 141.7 37.788C141.836 37.412 142.028 37.096 142.276 36.84C142.532 36.584 142.84 36.388 143.2 36.252C143.568 36.108 143.976 36.036 144.424 36.036C144.704 36.036 144.996 36.08 145.3 36.168C145.612 36.248 145.9 36.384 146.164 36.576C146.268 36.64 146.332 36.72 146.356 36.816C146.388 36.904 146.392 36.996 146.368 37.092C146.352 37.188 146.308 37.272 146.236 37.344C146.172 37.408 146.092 37.448 145.996 37.464C145.9 37.472 145.796 37.444 145.684 37.38C145.492 37.244 145.296 37.148 145.096 37.092C144.896 37.028 144.704 36.996 144.52 36.996C144.232 36.996 143.976 37.044 143.752 37.14C143.536 37.228 143.352 37.36 143.2 37.536C143.048 37.704 142.932 37.916 142.852 38.172C142.78 38.428 142.744 38.72 142.744 39.048C142.744 39.704 142.896 40.22 143.2 40.596C143.512 40.964 143.952 41.148 144.52 41.148C144.704 41.148 144.896 41.12 145.096 41.064C145.296 41.008 145.492 40.912 145.684 40.776C145.796 40.712 145.9 40.688 145.996 40.704C146.092 40.72 146.168 40.764 146.224 40.836C146.288 40.9 146.328 40.98 146.344 41.076C146.368 41.164 146.364 41.256 146.332 41.352C146.3 41.448 146.232 41.528 146.128 41.592C145.872 41.776 145.592 41.908 145.288 41.988C144.992 42.068 144.704 42.108 144.424 42.108ZM149.953 42.108C149.473 42.108 149.069 42.024 148.741 41.856C148.413 41.688 148.169 41.44 148.009 41.112C147.849 40.784 147.769 40.384 147.769 39.912V37.08H147.049C146.889 37.08 146.765 37.04 146.677 36.96C146.589 36.872 146.545 36.756 146.545 36.612C146.545 36.46 146.589 36.344 146.677 36.264C146.765 36.184 146.889 36.144 147.049 36.144H147.769V34.908C147.769 34.708 147.821 34.556 147.925 34.452C148.037 34.348 148.189 34.296 148.381 34.296C148.573 34.296 148.721 34.348 148.825 34.452C148.929 34.556 148.981 34.708 148.981 34.908V36.144H150.385C150.545 36.144 150.669 36.184 150.757 36.264C150.845 36.344 150.889 36.46 150.889 36.612C150.889 36.756 150.845 36.872 150.757 36.96C150.669 37.04 150.545 37.08 150.385 37.08H148.981V39.816C148.981 40.24 149.069 40.56 149.245 40.776C149.429 40.992 149.725 41.1 150.133 41.1C150.277 41.1 150.401 41.088 150.505 41.064C150.617 41.032 150.709 41.012 150.781 41.004C150.869 41.004 150.941 41.036 150.997 41.1C151.053 41.156 151.081 41.268 151.081 41.436C151.081 41.556 151.057 41.668 151.009 41.772C150.969 41.876 150.893 41.944 150.781 41.976C150.685 42.008 150.553 42.036 150.385 42.06C150.225 42.092 150.081 42.108 149.953 42.108ZM154.53 42.108C153.89 42.108 153.338 41.988 152.874 41.748C152.418 41.5 152.062 41.152 151.806 40.704C151.558 40.248 151.434 39.708 151.434 39.084C151.434 38.476 151.558 37.944 151.806 37.488C152.054 37.032 152.394 36.676 152.826 36.42C153.258 36.164 153.75 36.036 154.302 36.036C154.71 36.036 155.074 36.104 155.394 36.24C155.714 36.368 155.986 36.56 156.21 36.816C156.442 37.064 156.614 37.368 156.726 37.728C156.846 38.088 156.906 38.492 156.906 38.94C156.906 39.076 156.866 39.18 156.786 39.252C156.706 39.316 156.586 39.348 156.426 39.348H152.394V38.604H156.09L155.886 38.772C155.886 38.372 155.826 38.032 155.706 37.752C155.594 37.472 155.422 37.26 155.19 37.116C154.966 36.964 154.686 36.888 154.35 36.888C153.974 36.888 153.654 36.976 153.39 37.152C153.134 37.328 152.938 37.572 152.802 37.884C152.666 38.196 152.598 38.56 152.598 38.976V39.048C152.598 39.752 152.762 40.284 153.09 40.644C153.426 40.996 153.91 41.172 154.542 41.172C154.782 41.172 155.034 41.14 155.298 41.076C155.57 41.012 155.826 40.904 156.066 40.752C156.202 40.672 156.322 40.636 156.426 40.644C156.538 40.652 156.626 40.688 156.69 40.752C156.762 40.816 156.806 40.896 156.822 40.992C156.838 41.088 156.822 41.188 156.774 41.292C156.726 41.388 156.642 41.476 156.522 41.556C156.25 41.74 155.934 41.88 155.574 41.976C155.214 42.064 154.866 42.108 154.53 42.108ZM160.459 42.108C159.947 42.108 159.495 41.988 159.103 41.748C158.719 41.5 158.419 41.148 158.203 40.692C157.987 40.228 157.879 39.688 157.879 39.072C157.879 38.44 157.987 37.9 158.203 37.452C158.419 37.004 158.719 36.656 159.103 36.408C159.495 36.16 159.947 36.036 160.459 36.036C160.971 36.036 161.411 36.164 161.779 36.42C162.155 36.668 162.407 37.004 162.535 37.428H162.403V34.068C162.403 33.868 162.455 33.716 162.559 33.612C162.663 33.508 162.811 33.456 163.003 33.456C163.195 33.456 163.343 33.508 163.447 33.612C163.559 33.716 163.615 33.868 163.615 34.068V41.472C163.615 41.664 163.563 41.816 163.459 41.928C163.355 42.032 163.207 42.084 163.015 42.084C162.823 42.084 162.675 42.032 162.571 41.928C162.467 41.816 162.415 41.664 162.415 41.472V40.416L162.547 40.68C162.419 41.112 162.167 41.46 161.791 41.724C161.423 41.98 160.979 42.108 160.459 42.108ZM160.771 41.172C161.099 41.172 161.387 41.092 161.635 40.932C161.883 40.772 162.075 40.536 162.211 40.224C162.355 39.912 162.427 39.528 162.427 39.072C162.427 38.384 162.275 37.864 161.971 37.512C161.667 37.16 161.267 36.984 160.771 36.984C160.435 36.984 160.143 37.064 159.895 37.224C159.647 37.376 159.451 37.608 159.307 37.92C159.171 38.232 159.103 38.616 159.103 39.072C159.103 39.752 159.255 40.272 159.559 40.632C159.863 40.992 160.267 41.172 160.771 41.172ZM171.229 42.108C170.589 42.108 170.037 41.988 169.573 41.748C169.117 41.5 168.761 41.152 168.505 40.704C168.257 40.248 168.133 39.708 168.133 39.084C168.133 38.476 168.257 37.944 168.505 37.488C168.753 37.032 169.093 36.676 169.525 36.42C169.957 36.164 170.449 36.036 171.001 36.036C171.409 36.036 171.773 36.104 172.093 36.24C172.413 36.368 172.685 36.56 172.909 36.816C173.141 37.064 173.313 37.368 173.425 37.728C173.545 38.088 173.605 38.492 173.605 38.94C173.605 39.076 173.565 39.18 173.485 39.252C173.405 39.316 173.285 39.348 173.125 39.348H169.093V38.604H172.789L172.585 38.772C172.585 38.372 172.525 38.032 172.405 37.752C172.293 37.472 172.121 37.26 171.889 37.116C171.665 36.964 171.385 36.888 171.049 36.888C170.673 36.888 170.353 36.976 170.089 37.152C169.833 37.328 169.637 37.572 169.501 37.884C169.365 38.196 169.297 38.56 169.297 38.976V39.048C169.297 39.752 169.461 40.284 169.789 40.644C170.125 40.996 170.609 41.172 171.241 41.172C171.481 41.172 171.733 41.14 171.997 41.076C172.269 41.012 172.525 40.904 172.765 40.752C172.901 40.672 173.021 40.636 173.125 40.644C173.237 40.652 173.325 40.688 173.389 40.752C173.461 40.816 173.505 40.896 173.521 40.992C173.537 41.088 173.521 41.188 173.473 41.292C173.425 41.388 173.341 41.476 173.221 41.556C172.949 41.74 172.633 41.88 172.273 41.976C171.913 42.064 171.565 42.108 171.229 42.108ZM175.55 42.084C175.358 42.084 175.21 42.032 175.106 41.928C175.002 41.816 174.95 41.664 174.95 41.472V36.672C174.95 36.472 175.002 36.32 175.106 36.216C175.21 36.112 175.354 36.06 175.538 36.06C175.73 36.06 175.874 36.112 175.97 36.216C176.074 36.32 176.126 36.472 176.126 36.672V37.656L175.994 37.392C176.154 36.968 176.402 36.636 176.738 36.396C177.074 36.156 177.478 36.036 177.95 36.036C178.438 36.036 178.834 36.152 179.138 36.384C179.442 36.616 179.65 36.972 179.762 37.452H179.594C179.746 37.012 180.006 36.668 180.374 36.42C180.742 36.164 181.17 36.036 181.658 36.036C182.106 36.036 182.474 36.124 182.762 36.3C183.05 36.468 183.266 36.728 183.41 37.08C183.554 37.424 183.626 37.86 183.626 38.388V41.472C183.626 41.664 183.57 41.816 183.458 41.928C183.354 42.032 183.206 42.084 183.014 42.084C182.822 42.084 182.674 42.032 182.57 41.928C182.466 41.816 182.414 41.664 182.414 41.472V38.448C182.414 37.952 182.326 37.588 182.15 37.356C181.982 37.124 181.702 37.008 181.31 37.008C180.87 37.008 180.522 37.16 180.266 37.464C180.01 37.768 179.882 38.188 179.882 38.724V41.472C179.882 41.664 179.83 41.816 179.726 41.928C179.622 42.032 179.474 42.084 179.282 42.084C179.09 42.084 178.938 42.032 178.826 41.928C178.722 41.816 178.67 41.664 178.67 41.472V38.448C178.67 37.952 178.586 37.588 178.418 37.356C178.25 37.124 177.97 37.008 177.578 37.008C177.138 37.008 176.79 37.16 176.534 37.464C176.286 37.768 176.162 38.188 176.162 38.724V41.472C176.162 41.88 175.958 42.084 175.55 42.084ZM185.921 44.244C185.729 44.244 185.581 44.192 185.477 44.088C185.373 43.984 185.321 43.832 185.321 43.632V36.672C185.321 36.472 185.373 36.32 185.477 36.216C185.581 36.112 185.725 36.06 185.909 36.06C186.101 36.06 186.249 36.112 186.353 36.216C186.457 36.32 186.509 36.472 186.509 36.672V37.716L186.377 37.464C186.505 37.032 186.757 36.688 187.133 36.432C187.509 36.168 187.953 36.036 188.465 36.036C188.985 36.036 189.437 36.16 189.821 36.408C190.213 36.656 190.513 37.004 190.721 37.452C190.937 37.9 191.045 38.44 191.045 39.072C191.045 39.688 190.937 40.228 190.721 40.692C190.513 41.148 190.217 41.5 189.833 41.748C189.449 41.988 188.993 42.108 188.465 42.108C187.961 42.108 187.521 41.98 187.145 41.724C186.769 41.468 186.517 41.128 186.389 40.704H186.533V43.632C186.533 43.832 186.477 43.984 186.365 44.088C186.261 44.192 186.113 44.244 185.921 44.244ZM188.165 41.172C188.501 41.172 188.793 41.092 189.041 40.932C189.289 40.772 189.481 40.536 189.617 40.224C189.753 39.912 189.821 39.528 189.821 39.072C189.821 38.384 189.669 37.864 189.365 37.512C189.069 37.16 188.669 36.984 188.165 36.984C187.837 36.984 187.545 37.064 187.289 37.224C187.041 37.376 186.849 37.608 186.713 37.92C186.577 38.232 186.509 38.616 186.509 39.072C186.509 39.752 186.661 40.272 186.965 40.632C187.269 40.992 187.669 41.172 188.165 41.172ZM194.295 42.108C193.671 42.108 193.199 41.928 192.879 41.568C192.567 41.2 192.411 40.672 192.411 39.984V34.068C192.411 33.868 192.463 33.716 192.567 33.612C192.671 33.508 192.819 33.456 193.011 33.456C193.203 33.456 193.351 33.508 193.455 33.612C193.567 33.716 193.623 33.868 193.623 34.068V39.912C193.623 40.312 193.703 40.612 193.863 40.812C194.031 41.004 194.271 41.1 194.583 41.1C194.655 41.1 194.719 41.1 194.775 41.1C194.831 41.092 194.887 41.084 194.943 41.076C195.039 41.068 195.107 41.096 195.147 41.16C195.187 41.216 195.207 41.336 195.207 41.52C195.207 41.688 195.171 41.82 195.099 41.916C195.027 42.004 194.911 42.06 194.751 42.084C194.679 42.092 194.603 42.096 194.523 42.096C194.443 42.104 194.367 42.108 194.295 42.108ZM198.564 42.108C197.972 42.108 197.46 41.984 197.028 41.736C196.604 41.488 196.272 41.136 196.032 40.68C195.792 40.224 195.672 39.688 195.672 39.072C195.672 38.6 195.74 38.18 195.876 37.812C196.012 37.444 196.204 37.128 196.452 36.864C196.708 36.592 197.012 36.388 197.364 36.252C197.724 36.108 198.124 36.036 198.564 36.036C199.148 36.036 199.652 36.16 200.076 36.408C200.508 36.656 200.844 37.008 201.084 37.464C201.324 37.912 201.444 38.448 201.444 39.072C201.444 39.536 201.376 39.956 201.24 40.332C201.104 40.708 200.908 41.028 200.652 41.292C200.404 41.556 200.1 41.76 199.74 41.904C199.388 42.04 198.996 42.108 198.564 42.108ZM198.564 41.172C198.892 41.172 199.18 41.092 199.428 40.932C199.676 40.772 199.868 40.536 200.004 40.224C200.148 39.912 200.22 39.528 200.22 39.072C200.22 38.384 200.068 37.864 199.764 37.512C199.46 37.16 199.06 36.984 198.564 36.984C198.228 36.984 197.936 37.064 197.688 37.224C197.44 37.376 197.244 37.608 197.1 37.92C196.964 38.232 196.896 38.616 196.896 39.072C196.896 39.752 197.048 40.272 197.352 40.632C197.656 40.992 198.06 41.172 198.564 41.172ZM204.08 44.244C203.936 44.244 203.816 44.204 203.72 44.124C203.632 44.052 203.58 43.952 203.564 43.824C203.556 43.704 203.58 43.572 203.636 43.428L204.452 41.592V42.108L202.208 36.888C202.152 36.744 202.132 36.608 202.148 36.48C202.164 36.352 202.224 36.252 202.328 36.18C202.432 36.1 202.572 36.06 202.748 36.06C202.9 36.06 203.02 36.096 203.108 36.168C203.196 36.24 203.276 36.364 203.348 36.54L205.16 41.016H204.824L206.66 36.54C206.732 36.356 206.816 36.232 206.912 36.168C207.008 36.096 207.14 36.06 207.308 36.06C207.452 36.06 207.564 36.1 207.644 36.18C207.732 36.252 207.784 36.352 207.8 36.48C207.824 36.6 207.804 36.732 207.74 36.876L204.74 43.776C204.66 43.96 204.568 44.084 204.464 44.148C204.368 44.212 204.24 44.244 204.08 44.244ZM211.577 42.108C210.937 42.108 210.385 41.988 209.921 41.748C209.465 41.5 209.109 41.152 208.853 40.704C208.605 40.248 208.481 39.708 208.481 39.084C208.481 38.476 208.605 37.944 208.853 37.488C209.101 37.032 209.441 36.676 209.873 36.42C210.305 36.164 210.797 36.036 211.349 36.036C211.757 36.036 212.121 36.104 212.441 36.24C212.761 36.368 213.033 36.56 213.257 36.816C213.489 37.064 213.661 37.368 213.773 37.728C213.893 38.088 213.953 38.492 213.953 38.94C213.953 39.076 213.913 39.18 213.833 39.252C213.753 39.316 213.633 39.348 213.473 39.348H209.441V38.604H213.137L212.933 38.772C212.933 38.372 212.873 38.032 212.753 37.752C212.641 37.472 212.469 37.26 212.237 37.116C212.013 36.964 211.733 36.888 211.397 36.888C211.021 36.888 210.701 36.976 210.437 37.152C210.181 37.328 209.985 37.572 209.849 37.884C209.713 38.196 209.645 38.56 209.645 38.976V39.048C209.645 39.752 209.809 40.284 210.137 40.644C210.473 40.996 210.957 41.172 211.589 41.172C211.829 41.172 212.081 41.14 212.345 41.076C212.617 41.012 212.873 40.904 213.113 40.752C213.249 40.672 213.369 40.636 213.473 40.644C213.585 40.652 213.673 40.688 213.737 40.752C213.809 40.816 213.853 40.896 213.869 40.992C213.885 41.088 213.869 41.188 213.821 41.292C213.773 41.388 213.689 41.476 213.569 41.556C213.297 41.74 212.981 41.88 212.621 41.976C212.261 42.064 211.913 42.108 211.577 42.108ZM218.022 42.108C217.382 42.108 216.83 41.988 216.366 41.748C215.91 41.5 215.554 41.152 215.298 40.704C215.05 40.248 214.926 39.708 214.926 39.084C214.926 38.476 215.05 37.944 215.298 37.488C215.546 37.032 215.886 36.676 216.318 36.42C216.75 36.164 217.242 36.036 217.794 36.036C218.202 36.036 218.566 36.104 218.886 36.24C219.206 36.368 219.478 36.56 219.702 36.816C219.934 37.064 220.106 37.368 220.218 37.728C220.338 38.088 220.398 38.492 220.398 38.94C220.398 39.076 220.358 39.18 220.278 39.252C220.198 39.316 220.078 39.348 219.918 39.348H215.886V38.604H219.582L219.378 38.772C219.378 38.372 219.318 38.032 219.198 37.752C219.086 37.472 218.914 37.26 218.682 37.116C218.458 36.964 218.178 36.888 217.842 36.888C217.466 36.888 217.146 36.976 216.882 37.152C216.626 37.328 216.43 37.572 216.294 37.884C216.158 38.196 216.09 38.56 216.09 38.976V39.048C216.09 39.752 216.254 40.284 216.582 40.644C216.918 40.996 217.402 41.172 218.034 41.172C218.274 41.172 218.526 41.14 218.79 41.076C219.062 41.012 219.318 40.904 219.558 40.752C219.694 40.672 219.814 40.636 219.918 40.644C220.03 40.652 220.118 40.688 220.182 40.752C220.254 40.816 220.298 40.896 220.314 40.992C220.33 41.088 220.314 41.188 220.266 41.292C220.218 41.388 220.134 41.476 220.014 41.556C219.742 41.74 219.426 41.88 219.066 41.976C218.706 42.064 218.358 42.108 218.022 42.108ZM223.771 42.108C223.419 42.108 223.055 42.068 222.679 41.988C222.311 41.908 221.971 41.772 221.659 41.58C221.555 41.508 221.483 41.428 221.443 41.34C221.403 41.252 221.387 41.164 221.395 41.076C221.411 40.98 221.447 40.9 221.503 40.836C221.567 40.764 221.643 40.72 221.731 40.704C221.827 40.688 221.927 40.708 222.031 40.764C222.343 40.94 222.643 41.064 222.931 41.136C223.219 41.2 223.503 41.232 223.783 41.232C224.207 41.232 224.527 41.156 224.743 41.004C224.959 40.852 225.067 40.648 225.067 40.392C225.067 40.184 224.995 40.024 224.851 39.912C224.707 39.792 224.491 39.7 224.203 39.636L223.063 39.408C222.567 39.304 222.191 39.12 221.935 38.856C221.679 38.592 221.551 38.256 221.551 37.848C221.551 37.48 221.651 37.16 221.851 36.888C222.051 36.616 222.331 36.408 222.691 36.264C223.051 36.112 223.467 36.036 223.939 36.036C224.291 36.036 224.623 36.08 224.935 36.168C225.247 36.256 225.535 36.388 225.799 36.564C225.903 36.62 225.971 36.696 226.003 36.792C226.035 36.88 226.039 36.968 226.015 37.056C225.999 37.144 225.959 37.224 225.895 37.296C225.831 37.36 225.751 37.4 225.655 37.416C225.567 37.424 225.467 37.4 225.355 37.344C225.115 37.192 224.875 37.084 224.635 37.02C224.403 36.956 224.171 36.924 223.939 36.924C223.515 36.924 223.195 37.004 222.979 37.164C222.771 37.316 222.667 37.524 222.667 37.788C222.667 37.988 222.731 38.152 222.859 38.28C222.987 38.408 223.187 38.5 223.459 38.556L224.599 38.784C225.119 38.888 225.511 39.064 225.775 39.312C226.047 39.56 226.183 39.896 226.183 40.32C226.183 40.872 225.963 41.308 225.523 41.628C225.083 41.948 224.499 42.108 223.771 42.108ZM38.776 60.108C37.92 60.108 37.188 59.932 36.58 59.58C35.972 59.228 35.504 58.728 35.176 58.08C34.856 57.424 34.696 56.652 34.696 55.764C34.696 55.1 34.788 54.504 34.972 53.976C35.156 53.44 35.42 52.984 35.764 52.608C36.116 52.224 36.544 51.932 37.048 51.732C37.56 51.532 38.136 51.432 38.776 51.432C39.248 51.432 39.7 51.496 40.132 51.624C40.572 51.752 40.952 51.936 41.272 52.176C41.408 52.264 41.496 52.372 41.536 52.5C41.584 52.62 41.592 52.736 41.56 52.848C41.536 52.96 41.484 53.056 41.404 53.136C41.324 53.208 41.22 53.248 41.092 53.256C40.972 53.264 40.84 53.22 40.696 53.124C40.432 52.924 40.14 52.776 39.82 52.68C39.5 52.584 39.164 52.536 38.812 52.536C38.204 52.536 37.692 52.664 37.276 52.92C36.86 53.168 36.544 53.532 36.328 54.012C36.112 54.492 36.004 55.076 36.004 55.764C36.004 56.452 36.112 57.04 36.328 57.528C36.544 58.008 36.86 58.376 37.276 58.632C37.692 58.88 38.204 59.004 38.812 59.004C39.164 59.004 39.5 58.956 39.82 58.86C40.148 58.756 40.456 58.604 40.744 58.404C40.888 58.316 41.016 58.276 41.128 58.284C41.248 58.292 41.348 58.332 41.428 58.404C41.508 58.476 41.56 58.568 41.584 58.68C41.616 58.784 41.612 58.896 41.572 59.016C41.54 59.128 41.464 59.224 41.344 59.304C41.016 59.568 40.628 59.768 40.18 59.904C39.732 60.04 39.264 60.108 38.776 60.108ZM45.0835 60.108C44.4915 60.108 43.9795 59.984 43.5475 59.736C43.1235 59.488 42.7915 59.136 42.5515 58.68C42.3115 58.224 42.1915 57.688 42.1915 57.072C42.1915 56.6 42.2595 56.18 42.3955 55.812C42.5315 55.444 42.7235 55.128 42.9715 54.864C43.2275 54.592 43.5315 54.388 43.8835 54.252C44.2435 54.108 44.6435 54.036 45.0835 54.036C45.6675 54.036 46.1715 54.16 46.5955 54.408C47.0275 54.656 47.3635 55.008 47.6035 55.464C47.8435 55.912 47.9635 56.448 47.9635 57.072C47.9635 57.536 47.8955 57.956 47.7595 58.332C47.6235 58.708 47.4275 59.028 47.1715 59.292C46.9235 59.556 46.6195 59.76 46.2595 59.904C45.9075 60.04 45.5155 60.108 45.0835 60.108ZM45.0835 59.172C45.4115 59.172 45.6995 59.092 45.9475 58.932C46.1955 58.772 46.3875 58.536 46.5235 58.224C46.6675 57.912 46.7395 57.528 46.7395 57.072C46.7395 56.384 46.5875 55.864 46.2835 55.512C45.9795 55.16 45.5795 54.984 45.0835 54.984C44.7475 54.984 44.4555 55.064 44.2075 55.224C43.9595 55.376 43.7635 55.608 43.6195 55.92C43.4835 56.232 43.4155 56.616 43.4155 57.072C43.4155 57.752 43.5675 58.272 43.8715 58.632C44.1755 58.992 44.5795 59.172 45.0835 59.172ZM49.9247 60.084C49.7327 60.084 49.5847 60.032 49.4807 59.928C49.3767 59.816 49.3247 59.664 49.3247 59.472V54.672C49.3247 54.472 49.3767 54.32 49.4807 54.216C49.5847 54.112 49.7287 54.06 49.9127 54.06C50.1047 54.06 50.2487 54.112 50.3447 54.216C50.4487 54.32 50.5007 54.472 50.5007 54.672V55.608L50.3687 55.392C50.5447 54.944 50.8207 54.608 51.1967 54.384C51.5727 54.152 52.0047 54.036 52.4927 54.036C52.9567 54.036 53.3407 54.124 53.6447 54.3C53.9567 54.468 54.1887 54.728 54.3407 55.08C54.4927 55.424 54.5687 55.86 54.5687 56.388V59.472C54.5687 59.664 54.5167 59.816 54.4127 59.928C54.3087 60.032 54.1607 60.084 53.9687 60.084C53.7687 60.084 53.6167 60.032 53.5127 59.928C53.4087 59.816 53.3567 59.664 53.3567 59.472V56.46C53.3567 55.956 53.2567 55.588 53.0567 55.356C52.8647 55.124 52.5607 55.008 52.1447 55.008C51.6567 55.008 51.2647 55.16 50.9687 55.464C50.6807 55.768 50.5367 56.176 50.5367 56.688V59.472C50.5367 59.88 50.3327 60.084 49.9247 60.084ZM57.1987 60.084C57.0067 60.084 56.8547 60.032 56.7427 59.928C56.6387 59.816 56.5867 59.664 56.5867 59.472V55.08H55.9147C55.7627 55.08 55.6427 55.04 55.5547 54.96C55.4667 54.872 55.4227 54.756 55.4227 54.612C55.4227 54.46 55.4667 54.344 55.5547 54.264C55.6427 54.184 55.7627 54.144 55.9147 54.144H56.9347L56.5867 54.468V54.036C56.5867 53.26 56.7787 52.668 57.1627 52.26C57.5467 51.852 58.1107 51.612 58.8547 51.54L59.2147 51.516C59.3587 51.5 59.4747 51.52 59.5627 51.576C59.6507 51.624 59.7107 51.696 59.7427 51.792C59.7747 51.88 59.7787 51.972 59.7547 52.068C59.7307 52.164 59.6867 52.248 59.6227 52.32C59.5667 52.384 59.4947 52.42 59.4067 52.428L59.0827 52.452C58.6347 52.484 58.3067 52.616 58.0987 52.848C57.8987 53.08 57.7987 53.42 57.7987 53.868V54.336L57.6307 54.144H60.9187C61.1187 54.144 61.2707 54.204 61.3747 54.324C61.4787 54.436 61.5307 54.592 61.5307 54.792V59.412C61.5307 59.62 61.4787 59.784 61.3747 59.904C61.2787 60.016 61.1267 60.072 60.9187 60.072C60.7267 60.072 60.5787 60.016 60.4747 59.904C60.3707 59.784 60.3187 59.62 60.3187 59.412V55.08H57.7987V59.472C57.7987 59.88 57.5987 60.084 57.1987 60.084ZM60.9427 52.836C60.7107 52.836 60.5307 52.776 60.4027 52.656C60.2747 52.536 60.2107 52.368 60.2107 52.152C60.2107 51.928 60.2747 51.76 60.4027 51.648C60.5307 51.528 60.7107 51.468 60.9427 51.468C61.1827 51.468 61.3627 51.528 61.4827 51.648C61.6107 51.76 61.6747 51.928 61.6747 52.152C61.6747 52.368 61.6107 52.536 61.4827 52.656C61.3627 52.776 61.1827 52.836 60.9427 52.836ZM63.8351 60.084C63.6351 60.084 63.4831 60.032 63.3791 59.928C63.2751 59.816 63.2231 59.664 63.2231 59.472V54.672C63.2231 54.472 63.2751 54.32 63.3791 54.216C63.4831 54.112 63.6271 54.06 63.8111 54.06C64.0031 54.06 64.1471 54.112 64.2431 54.216C64.3471 54.32 64.3991 54.472 64.3991 54.672V55.548H64.2791C64.4071 55.068 64.6431 54.704 64.9871 54.456C65.3311 54.208 65.7711 54.064 66.3071 54.024C66.4511 54.016 66.5631 54.052 66.6431 54.132C66.7311 54.212 66.7791 54.336 66.7871 54.504C66.8031 54.672 66.7671 54.808 66.6791 54.912C66.5911 55.008 66.4551 55.064 66.2711 55.08L66.0431 55.104C65.5231 55.152 65.1271 55.316 64.8551 55.596C64.5831 55.876 64.4471 56.26 64.4471 56.748V59.472C64.4471 59.664 64.3951 59.816 64.2911 59.928C64.1951 60.032 64.0431 60.084 63.8351 60.084ZM68.3237 60.084C68.1317 60.084 67.9837 60.032 67.8797 59.928C67.7757 59.816 67.7237 59.664 67.7237 59.472V54.672C67.7237 54.472 67.7757 54.32 67.8797 54.216C67.9837 54.112 68.1277 54.06 68.3117 54.06C68.5037 54.06 68.6477 54.112 68.7437 54.216C68.8477 54.32 68.8997 54.472 68.8997 54.672V55.656L68.7677 55.392C68.9277 54.968 69.1757 54.636 69.5117 54.396C69.8477 54.156 70.2517 54.036 70.7237 54.036C71.2117 54.036 71.6077 54.152 71.9117 54.384C72.2157 54.616 72.4237 54.972 72.5357 55.452H72.3677C72.5197 55.012 72.7797 54.668 73.1477 54.42C73.5157 54.164 73.9437 54.036 74.4317 54.036C74.8797 54.036 75.2477 54.124 75.5357 54.3C75.8237 54.468 76.0397 54.728 76.1837 55.08C76.3277 55.424 76.3997 55.86 76.3997 56.388V59.472C76.3997 59.664 76.3437 59.816 76.2317 59.928C76.1277 60.032 75.9797 60.084 75.7877 60.084C75.5957 60.084 75.4477 60.032 75.3437 59.928C75.2397 59.816 75.1877 59.664 75.1877 59.472V56.448C75.1877 55.952 75.0997 55.588 74.9237 55.356C74.7557 55.124 74.4757 55.008 74.0837 55.008C73.6437 55.008 73.2957 55.16 73.0397 55.464C72.7837 55.768 72.6557 56.188 72.6557 56.724V59.472C72.6557 59.664 72.6037 59.816 72.4997 59.928C72.3957 60.032 72.2477 60.084 72.0557 60.084C71.8637 60.084 71.7117 60.032 71.5997 59.928C71.4957 59.816 71.4437 59.664 71.4437 59.472V56.448C71.4437 55.952 71.3597 55.588 71.1917 55.356C71.0237 55.124 70.7437 55.008 70.3517 55.008C69.9117 55.008 69.5637 55.16 69.3077 55.464C69.0597 55.768 68.9357 56.188 68.9357 56.724V59.472C68.9357 59.88 68.7317 60.084 68.3237 60.084ZM83.7543 60.108C83.2743 60.108 82.8703 60.024 82.5423 59.856C82.2143 59.688 81.9703 59.44 81.8103 59.112C81.6503 58.784 81.5703 58.384 81.5703 57.912V55.08H80.8503C80.6903 55.08 80.5663 55.04 80.4783 54.96C80.3902 54.872 80.3462 54.756 80.3462 54.612C80.3462 54.46 80.3902 54.344 80.4783 54.264C80.5663 54.184 80.6903 54.144 80.8503 54.144H81.5703V52.908C81.5703 52.708 81.6223 52.556 81.7263 52.452C81.8383 52.348 81.9903 52.296 82.1823 52.296C82.3743 52.296 82.5223 52.348 82.6263 52.452C82.7303 52.556 82.7823 52.708 82.7823 52.908V54.144H84.1863C84.3463 54.144 84.4703 54.184 84.5583 54.264C84.6463 54.344 84.6903 54.46 84.6903 54.612C84.6903 54.756 84.6463 54.872 84.5583 54.96C84.4703 55.04 84.3463 55.08 84.1863 55.08H82.7823V57.816C82.7823 58.24 82.8703 58.56 83.0463 58.776C83.2303 58.992 83.5263 59.1 83.9342 59.1C84.0783 59.1 84.2023 59.088 84.3063 59.064C84.4183 59.032 84.5103 59.012 84.5823 59.004C84.6703 59.004 84.7423 59.036 84.7983 59.1C84.8543 59.156 84.8823 59.268 84.8823 59.436C84.8823 59.556 84.8583 59.668 84.8103 59.772C84.7703 59.876 84.6943 59.944 84.5823 59.976C84.4863 60.008 84.3543 60.036 84.1863 60.06C84.0263 60.092 83.8823 60.108 83.7543 60.108ZM88.1265 60.108C87.5345 60.108 87.0225 59.984 86.5905 59.736C86.1665 59.488 85.8345 59.136 85.5945 58.68C85.3545 58.224 85.2345 57.688 85.2345 57.072C85.2345 56.6 85.3025 56.18 85.4385 55.812C85.5745 55.444 85.7665 55.128 86.0145 54.864C86.2705 54.592 86.5745 54.388 86.9265 54.252C87.2865 54.108 87.6865 54.036 88.1265 54.036C88.7105 54.036 89.2145 54.16 89.6385 54.408C90.0705 54.656 90.4065 55.008 90.6465 55.464C90.8865 55.912 91.0065 56.448 91.0065 57.072C91.0065 57.536 90.9385 57.956 90.8025 58.332C90.6665 58.708 90.4705 59.028 90.2145 59.292C89.9665 59.556 89.6625 59.76 89.3025 59.904C88.9505 60.04 88.5585 60.108 88.1265 60.108ZM88.1265 59.172C88.4545 59.172 88.7425 59.092 88.9905 58.932C89.2385 58.772 89.4305 58.536 89.5665 58.224C89.7105 57.912 89.7825 57.528 89.7825 57.072C89.7825 56.384 89.6305 55.864 89.3265 55.512C89.0225 55.16 88.6225 54.984 88.1265 54.984C87.7905 54.984 87.4985 55.064 87.2505 55.224C87.0025 55.376 86.8065 55.608 86.6625 55.92C86.5265 56.232 86.4585 56.616 86.4585 57.072C86.4585 57.752 86.6105 58.272 86.9145 58.632C87.2185 58.992 87.6225 59.172 88.1265 59.172ZM97.5837 60.108C97.2317 60.108 96.8677 60.068 96.4917 59.988C96.1237 59.908 95.7837 59.772 95.4717 59.58C95.3677 59.508 95.2957 59.428 95.2557 59.34C95.2157 59.252 95.1997 59.164 95.2077 59.076C95.2237 58.98 95.2597 58.9 95.3157 58.836C95.3797 58.764 95.4557 58.72 95.5437 58.704C95.6397 58.688 95.7397 58.708 95.8437 58.764C96.1557 58.94 96.4557 59.064 96.7437 59.136C97.0317 59.2 97.3157 59.232 97.5957 59.232C98.0197 59.232 98.3397 59.156 98.5557 59.004C98.7717 58.852 98.8797 58.648 98.8797 58.392C98.8797 58.184 98.8077 58.024 98.6637 57.912C98.5197 57.792 98.3037 57.7 98.0157 57.636L96.8757 57.408C96.3797 57.304 96.0037 57.12 95.7477 56.856C95.4917 56.592 95.3637 56.256 95.3637 55.848C95.3637 55.48 95.4637 55.16 95.6637 54.888C95.8637 54.616 96.1437 54.408 96.5037 54.264C96.8637 54.112 97.2797 54.036 97.7517 54.036C98.1037 54.036 98.4357 54.08 98.7477 54.168C99.0597 54.256 99.3477 54.388 99.6117 54.564C99.7157 54.62 99.7837 54.696 99.8157 54.792C99.8477 54.88 99.8517 54.968 99.8277 55.056C99.8117 55.144 99.7717 55.224 99.7077 55.296C99.6437 55.36 99.5637 55.4 99.4677 55.416C99.3797 55.424 99.2797 55.4 99.1677 55.344C98.9277 55.192 98.6877 55.084 98.4477 55.02C98.2157 54.956 97.9837 54.924 97.7517 54.924C97.3277 54.924 97.0077 55.004 96.7917 55.164C96.5837 55.316 96.4797 55.524 96.4797 55.788C96.4797 55.988 96.5437 56.152 96.6717 56.28C96.7997 56.408 96.9997 56.5 97.2717 56.556L98.4117 56.784C98.9317 56.888 99.3237 57.064 99.5877 57.312C99.8597 57.56 99.9957 57.896 99.9957 58.32C99.9957 58.872 99.7757 59.308 99.3357 59.628C98.8957 59.948 98.3117 60.108 97.5837 60.108ZM104.092 60.108C103.452 60.108 102.9 59.988 102.436 59.748C101.98 59.5 101.624 59.152 101.368 58.704C101.12 58.248 100.996 57.708 100.996 57.084C100.996 56.476 101.12 55.944 101.368 55.488C101.616 55.032 101.956 54.676 102.388 54.42C102.82 54.164 103.312 54.036 103.864 54.036C104.272 54.036 104.636 54.104 104.956 54.24C105.276 54.368 105.548 54.56 105.772 54.816C106.004 55.064 106.176 55.368 106.288 55.728C106.408 56.088 106.468 56.492 106.468 56.94C106.468 57.076 106.428 57.18 106.348 57.252C106.268 57.316 106.148 57.348 105.988 57.348H101.956V56.604H105.652L105.448 56.772C105.448 56.372 105.388 56.032 105.268 55.752C105.156 55.472 104.984 55.26 104.752 55.116C104.528 54.964 104.248 54.888 103.912 54.888C103.536 54.888 103.216 54.976 102.952 55.152C102.696 55.328 102.5 55.572 102.364 55.884C102.228 56.196 102.16 56.56 102.16 56.976V57.048C102.16 57.752 102.324 58.284 102.652 58.644C102.988 58.996 103.472 59.172 104.104 59.172C104.344 59.172 104.596 59.14 104.86 59.076C105.132 59.012 105.388 58.904 105.628 58.752C105.764 58.672 105.884 58.636 105.988 58.644C106.1 58.652 106.188 58.688 106.252 58.752C106.324 58.816 106.368 58.896 106.384 58.992C106.4 59.088 106.384 59.188 106.336 59.292C106.288 59.388 106.204 59.476 106.084 59.556C105.812 59.74 105.496 59.88 105.136 59.976C104.776 60.064 104.428 60.108 104.092 60.108ZM108.39 60.084C108.198 60.084 108.05 60.032 107.946 59.928C107.842 59.816 107.79 59.664 107.79 59.472V54.672C107.79 54.472 107.842 54.32 107.946 54.216C108.05 54.112 108.194 54.06 108.378 54.06C108.57 54.06 108.714 54.112 108.81 54.216C108.914 54.32 108.966 54.472 108.966 54.672V55.608L108.834 55.392C109.01 54.944 109.286 54.608 109.662 54.384C110.038 54.152 110.47 54.036 110.958 54.036C111.422 54.036 111.806 54.124 112.11 54.3C112.422 54.468 112.654 54.728 112.806 55.08C112.958 55.424 113.034 55.86 113.034 56.388V59.472C113.034 59.664 112.982 59.816 112.878 59.928C112.774 60.032 112.626 60.084 112.434 60.084C112.234 60.084 112.082 60.032 111.978 59.928C111.874 59.816 111.822 59.664 111.822 59.472V56.46C111.822 55.956 111.722 55.588 111.522 55.356C111.33 55.124 111.026 55.008 110.61 55.008C110.122 55.008 109.73 55.16 109.434 55.464C109.146 55.768 109.002 56.176 109.002 56.688V59.472C109.002 59.88 108.798 60.084 108.39 60.084ZM116.936 60.108C116.424 60.108 115.972 59.988 115.58 59.748C115.196 59.5 114.896 59.148 114.68 58.692C114.464 58.228 114.356 57.688 114.356 57.072C114.356 56.44 114.464 55.9 114.68 55.452C114.896 55.004 115.196 54.656 115.58 54.408C115.972 54.16 116.424 54.036 116.936 54.036C117.448 54.036 117.888 54.164 118.256 54.42C118.632 54.668 118.884 55.004 119.012 55.428H118.88V52.068C118.88 51.868 118.932 51.716 119.036 51.612C119.14 51.508 119.288 51.456 119.48 51.456C119.672 51.456 119.82 51.508 119.924 51.612C120.036 51.716 120.092 51.868 120.092 52.068V59.472C120.092 59.664 120.04 59.816 119.936 59.928C119.832 60.032 119.684 60.084 119.492 60.084C119.3 60.084 119.152 60.032 119.048 59.928C118.944 59.816 118.892 59.664 118.892 59.472V58.416L119.024 58.68C118.896 59.112 118.644 59.46 118.268 59.724C117.9 59.98 117.456 60.108 116.936 60.108ZM117.248 59.172C117.576 59.172 117.864 59.092 118.112 58.932C118.36 58.772 118.552 58.536 118.688 58.224C118.832 57.912 118.904 57.528 118.904 57.072C118.904 56.384 118.752 55.864 118.448 55.512C118.144 55.16 117.744 54.984 117.248 54.984C116.912 54.984 116.62 55.064 116.372 55.224C116.124 55.376 115.928 55.608 115.784 55.92C115.648 56.232 115.58 56.616 115.58 57.072C115.58 57.752 115.732 58.272 116.036 58.632C116.34 58.992 116.744 59.172 117.248 59.172ZM126.829 60.108C126.421 60.108 126.053 60.028 125.725 59.868C125.405 59.708 125.153 59.492 124.969 59.22C124.785 58.948 124.693 58.64 124.693 58.296C124.693 57.864 124.801 57.524 125.017 57.276C125.241 57.02 125.605 56.84 126.109 56.736C126.621 56.624 127.309 56.568 128.173 56.568H128.737V57.312H128.185C127.609 57.312 127.153 57.34 126.817 57.396C126.481 57.452 126.241 57.548 126.097 57.684C125.961 57.812 125.893 57.992 125.893 58.224C125.893 58.528 125.997 58.776 126.205 58.968C126.413 59.152 126.701 59.244 127.069 59.244C127.365 59.244 127.625 59.176 127.849 59.04C128.073 58.896 128.249 58.704 128.377 58.464C128.513 58.224 128.581 57.948 128.581 57.636V56.256C128.581 55.8 128.485 55.472 128.293 55.272C128.101 55.072 127.785 54.972 127.345 54.972C127.089 54.972 126.821 55.004 126.541 55.068C126.269 55.132 125.985 55.24 125.689 55.392C125.553 55.456 125.437 55.476 125.341 55.452C125.245 55.428 125.169 55.376 125.113 55.296C125.057 55.208 125.025 55.116 125.017 55.02C125.017 54.916 125.041 54.816 125.089 54.72C125.145 54.624 125.237 54.552 125.365 54.504C125.717 54.336 126.065 54.216 126.409 54.144C126.753 54.072 127.077 54.036 127.381 54.036C127.917 54.036 128.357 54.12 128.701 54.288C129.053 54.456 129.313 54.712 129.481 55.056C129.649 55.4 129.733 55.844 129.733 56.388V59.472C129.733 59.664 129.685 59.816 129.589 59.928C129.493 60.032 129.353 60.084 129.169 60.084C128.993 60.084 128.853 60.032 128.749 59.928C128.645 59.816 128.593 59.664 128.593 59.472V58.692H128.701C128.637 58.988 128.517 59.244 128.341 59.46C128.173 59.668 127.961 59.828 127.705 59.94C127.449 60.052 127.157 60.108 126.829 60.108ZM132.003 60.084C131.811 60.084 131.663 60.032 131.559 59.928C131.455 59.816 131.403 59.664 131.403 59.472V54.672C131.403 54.472 131.455 54.32 131.559 54.216C131.663 54.112 131.807 54.06 131.991 54.06C132.183 54.06 132.327 54.112 132.423 54.216C132.527 54.32 132.579 54.472 132.579 54.672V55.608L132.447 55.392C132.623 54.944 132.899 54.608 133.275 54.384C133.651 54.152 134.083 54.036 134.571 54.036C135.035 54.036 135.419 54.124 135.723 54.3C136.035 54.468 136.267 54.728 136.419 55.08C136.571 55.424 136.647 55.86 136.647 56.388V59.472C136.647 59.664 136.595 59.816 136.491 59.928C136.387 60.032 136.239 60.084 136.047 60.084C135.847 60.084 135.695 60.032 135.591 59.928C135.487 59.816 135.435 59.664 135.435 59.472V56.46C135.435 55.956 135.335 55.588 135.135 55.356C134.943 55.124 134.639 55.008 134.223 55.008C133.735 55.008 133.343 55.16 133.047 55.464C132.759 55.768 132.615 56.176 132.615 56.688V59.472C132.615 59.88 132.411 60.084 132.003 60.084ZM140.549 60.108C140.037 60.108 139.585 59.988 139.193 59.748C138.809 59.5 138.509 59.148 138.293 58.692C138.077 58.228 137.969 57.688 137.969 57.072C137.969 56.44 138.077 55.9 138.293 55.452C138.509 55.004 138.809 54.656 139.193 54.408C139.585 54.16 140.037 54.036 140.549 54.036C141.061 54.036 141.501 54.164 141.869 54.42C142.245 54.668 142.497 55.004 142.625 55.428H142.493V52.068C142.493 51.868 142.545 51.716 142.649 51.612C142.753 51.508 142.901 51.456 143.093 51.456C143.285 51.456 143.433 51.508 143.537 51.612C143.649 51.716 143.705 51.868 143.705 52.068V59.472C143.705 59.664 143.653 59.816 143.549 59.928C143.445 60.032 143.297 60.084 143.105 60.084C142.913 60.084 142.765 60.032 142.661 59.928C142.557 59.816 142.505 59.664 142.505 59.472V58.416L142.637 58.68C142.509 59.112 142.257 59.46 141.881 59.724C141.513 59.98 141.069 60.108 140.549 60.108ZM140.861 59.172C141.189 59.172 141.477 59.092 141.725 58.932C141.973 58.772 142.165 58.536 142.301 58.224C142.445 57.912 142.517 57.528 142.517 57.072C142.517 56.384 142.365 55.864 142.061 55.512C141.757 55.16 141.357 54.984 140.861 54.984C140.525 54.984 140.233 55.064 139.985 55.224C139.737 55.376 139.541 55.608 139.397 55.92C139.261 56.232 139.193 56.616 139.193 57.072C139.193 57.752 139.345 58.272 139.649 58.632C139.953 58.992 140.357 59.172 140.861 59.172ZM150.623 60.108C150.271 60.108 149.907 60.068 149.531 59.988C149.163 59.908 148.823 59.772 148.511 59.58C148.407 59.508 148.335 59.428 148.295 59.34C148.255 59.252 148.239 59.164 148.247 59.076C148.263 58.98 148.299 58.9 148.355 58.836C148.419 58.764 148.495 58.72 148.583 58.704C148.679 58.688 148.779 58.708 148.883 58.764C149.195 58.94 149.495 59.064 149.783 59.136C150.071 59.2 150.355 59.232 150.635 59.232C151.059 59.232 151.379 59.156 151.595 59.004C151.811 58.852 151.919 58.648 151.919 58.392C151.919 58.184 151.847 58.024 151.703 57.912C151.559 57.792 151.343 57.7 151.055 57.636L149.915 57.408C149.419 57.304 149.043 57.12 148.787 56.856C148.531 56.592 148.403 56.256 148.403 55.848C148.403 55.48 148.503 55.16 148.703 54.888C148.903 54.616 149.183 54.408 149.543 54.264C149.903 54.112 150.319 54.036 150.791 54.036C151.143 54.036 151.475 54.08 151.787 54.168C152.099 54.256 152.387 54.388 152.651 54.564C152.755 54.62 152.823 54.696 152.855 54.792C152.887 54.88 152.891 54.968 152.867 55.056C152.851 55.144 152.811 55.224 152.747 55.296C152.683 55.36 152.603 55.4 152.507 55.416C152.419 55.424 152.319 55.4 152.207 55.344C151.967 55.192 151.727 55.084 151.487 55.02C151.255 54.956 151.023 54.924 150.791 54.924C150.367 54.924 150.047 55.004 149.831 55.164C149.623 55.316 149.519 55.524 149.519 55.788C149.519 55.988 149.583 56.152 149.711 56.28C149.839 56.408 150.039 56.5 150.311 56.556L151.451 56.784C151.971 56.888 152.363 57.064 152.627 57.312C152.899 57.56 153.035 57.896 153.035 58.32C153.035 58.872 152.815 59.308 152.375 59.628C151.935 59.948 151.351 60.108 150.623 60.108ZM157.131 60.108C156.491 60.108 155.939 59.988 155.475 59.748C155.019 59.5 154.663 59.152 154.407 58.704C154.159 58.248 154.035 57.708 154.035 57.084C154.035 56.476 154.159 55.944 154.407 55.488C154.655 55.032 154.995 54.676 155.427 54.42C155.859 54.164 156.351 54.036 156.903 54.036C157.311 54.036 157.675 54.104 157.995 54.24C158.315 54.368 158.587 54.56 158.811 54.816C159.043 55.064 159.215 55.368 159.327 55.728C159.447 56.088 159.507 56.492 159.507 56.94C159.507 57.076 159.467 57.18 159.387 57.252C159.307 57.316 159.187 57.348 159.027 57.348H154.995V56.604H158.691L158.487 56.772C158.487 56.372 158.427 56.032 158.307 55.752C158.195 55.472 158.023 55.26 157.791 55.116C157.567 54.964 157.287 54.888 156.951 54.888C156.575 54.888 156.255 54.976 155.991 55.152C155.735 55.328 155.539 55.572 155.403 55.884C155.267 56.196 155.199 56.56 155.199 56.976V57.048C155.199 57.752 155.363 58.284 155.691 58.644C156.027 58.996 156.511 59.172 157.143 59.172C157.383 59.172 157.635 59.14 157.899 59.076C158.171 59.012 158.427 58.904 158.667 58.752C158.803 58.672 158.923 58.636 159.027 58.644C159.139 58.652 159.227 58.688 159.291 58.752C159.363 58.816 159.407 58.896 159.423 58.992C159.439 59.088 159.423 59.188 159.375 59.292C159.327 59.388 159.243 59.476 159.123 59.556C158.851 59.74 158.535 59.88 158.175 59.976C157.815 60.064 157.467 60.108 157.131 60.108ZM163.313 60.108C162.833 60.108 162.429 60.024 162.101 59.856C161.773 59.688 161.529 59.44 161.369 59.112C161.209 58.784 161.129 58.384 161.129 57.912V55.08H160.409C160.249 55.08 160.125 55.04 160.037 54.96C159.949 54.872 159.905 54.756 159.905 54.612C159.905 54.46 159.949 54.344 160.037 54.264C160.125 54.184 160.249 54.144 160.409 54.144H161.129V52.908C161.129 52.708 161.181 52.556 161.285 52.452C161.397 52.348 161.549 52.296 161.741 52.296C161.933 52.296 162.081 52.348 162.185 52.452C162.289 52.556 162.341 52.708 162.341 52.908V54.144H163.745C163.905 54.144 164.029 54.184 164.117 54.264C164.205 54.344 164.249 54.46 164.249 54.612C164.249 54.756 164.205 54.872 164.117 54.96C164.029 55.04 163.905 55.08 163.745 55.08H162.341V57.816C162.341 58.24 162.429 58.56 162.605 58.776C162.789 58.992 163.085 59.1 163.493 59.1C163.637 59.1 163.761 59.088 163.865 59.064C163.977 59.032 164.069 59.012 164.141 59.004C164.229 59.004 164.301 59.036 164.357 59.1C164.413 59.156 164.441 59.268 164.441 59.436C164.441 59.556 164.417 59.668 164.369 59.772C164.329 59.876 164.253 59.944 164.141 59.976C164.045 60.008 163.913 60.036 163.745 60.06C163.585 60.092 163.441 60.108 163.313 60.108ZM170.86 60.108C170.38 60.108 169.976 60.024 169.648 59.856C169.32 59.688 169.076 59.44 168.916 59.112C168.756 58.784 168.676 58.384 168.676 57.912V55.08H167.956C167.796 55.08 167.672 55.04 167.584 54.96C167.496 54.872 167.452 54.756 167.452 54.612C167.452 54.46 167.496 54.344 167.584 54.264C167.672 54.184 167.796 54.144 167.956 54.144H168.676V52.908C168.676 52.708 168.728 52.556 168.832 52.452C168.944 52.348 169.096 52.296 169.288 52.296C169.48 52.296 169.628 52.348 169.732 52.452C169.836 52.556 169.888 52.708 169.888 52.908V54.144H171.292C171.452 54.144 171.576 54.184 171.664 54.264C171.752 54.344 171.796 54.46 171.796 54.612C171.796 54.756 171.752 54.872 171.664 54.96C171.576 55.04 171.452 55.08 171.292 55.08H169.888V57.816C169.888 58.24 169.976 58.56 170.152 58.776C170.336 58.992 170.632 59.1 171.04 59.1C171.184 59.1 171.308 59.088 171.412 59.064C171.524 59.032 171.616 59.012 171.688 59.004C171.776 59.004 171.848 59.036 171.904 59.1C171.96 59.156 171.988 59.268 171.988 59.436C171.988 59.556 171.964 59.668 171.916 59.772C171.876 59.876 171.8 59.944 171.688 59.976C171.592 60.008 171.46 60.036 171.292 60.06C171.132 60.092 170.988 60.108 170.86 60.108ZM173.452 60.084C173.26 60.084 173.112 60.032 173.008 59.928C172.904 59.816 172.852 59.664 172.852 59.472V52.068C172.852 51.868 172.904 51.716 173.008 51.612C173.112 51.508 173.26 51.456 173.452 51.456C173.644 51.456 173.792 51.508 173.896 51.612C174.008 51.716 174.064 51.868 174.064 52.068V55.392H173.896C174.072 54.944 174.348 54.608 174.724 54.384C175.1 54.152 175.532 54.036 176.02 54.036C176.484 54.036 176.868 54.124 177.172 54.3C177.484 54.468 177.716 54.728 177.868 55.08C178.02 55.424 178.096 55.86 178.096 56.388V59.472C178.096 59.664 178.044 59.816 177.94 59.928C177.836 60.032 177.688 60.084 177.496 60.084C177.296 60.084 177.144 60.032 177.04 59.928C176.936 59.816 176.884 59.664 176.884 59.472V56.46C176.884 55.956 176.784 55.588 176.584 55.356C176.392 55.124 176.088 55.008 175.672 55.008C175.184 55.008 174.792 55.16 174.496 55.464C174.208 55.768 174.064 56.176 174.064 56.688V59.472C174.064 59.88 173.86 60.084 173.452 60.084ZM182.514 60.108C181.874 60.108 181.322 59.988 180.858 59.748C180.402 59.5 180.046 59.152 179.79 58.704C179.542 58.248 179.418 57.708 179.418 57.084C179.418 56.476 179.542 55.944 179.79 55.488C180.038 55.032 180.378 54.676 180.81 54.42C181.242 54.164 181.734 54.036 182.286 54.036C182.694 54.036 183.058 54.104 183.378 54.24C183.698 54.368 183.97 54.56 184.194 54.816C184.426 55.064 184.598 55.368 184.71 55.728C184.83 56.088 184.89 56.492 184.89 56.94C184.89 57.076 184.85 57.18 184.77 57.252C184.69 57.316 184.57 57.348 184.41 57.348H180.378V56.604H184.074L183.87 56.772C183.87 56.372 183.81 56.032 183.69 55.752C183.578 55.472 183.406 55.26 183.174 55.116C182.95 54.964 182.67 54.888 182.334 54.888C181.958 54.888 181.638 54.976 181.374 55.152C181.118 55.328 180.922 55.572 180.786 55.884C180.65 56.196 180.582 56.56 180.582 56.976V57.048C180.582 57.752 180.746 58.284 181.074 58.644C181.41 58.996 181.894 59.172 182.526 59.172C182.766 59.172 183.018 59.14 183.282 59.076C183.554 59.012 183.81 58.904 184.05 58.752C184.186 58.672 184.306 58.636 184.41 58.644C184.522 58.652 184.61 58.688 184.674 58.752C184.746 58.816 184.79 58.896 184.806 58.992C184.822 59.088 184.806 59.188 184.758 59.292C184.71 59.388 184.626 59.476 184.506 59.556C184.234 59.74 183.918 59.88 183.558 59.976C183.198 60.064 182.85 60.108 182.514 60.108ZM189.987 60.084C189.787 60.084 189.635 60.032 189.531 59.928C189.427 59.816 189.375 59.664 189.375 59.472V54.672C189.375 54.472 189.427 54.32 189.531 54.216C189.635 54.112 189.779 54.06 189.963 54.06C190.155 54.06 190.299 54.112 190.395 54.216C190.499 54.32 190.551 54.472 190.551 54.672V55.548H190.431C190.559 55.068 190.795 54.704 191.139 54.456C191.483 54.208 191.923 54.064 192.459 54.024C192.603 54.016 192.715 54.052 192.795 54.132C192.883 54.212 192.931 54.336 192.939 54.504C192.955 54.672 192.919 54.808 192.831 54.912C192.743 55.008 192.607 55.064 192.423 55.08L192.195 55.104C191.675 55.152 191.279 55.316 191.007 55.596C190.735 55.876 190.599 56.26 190.599 56.748V59.472C190.599 59.664 190.547 59.816 190.443 59.928C190.347 60.032 190.195 60.084 189.987 60.084ZM196.518 60.108C195.878 60.108 195.326 59.988 194.862 59.748C194.406 59.5 194.05 59.152 193.794 58.704C193.546 58.248 193.422 57.708 193.422 57.084C193.422 56.476 193.546 55.944 193.794 55.488C194.042 55.032 194.382 54.676 194.814 54.42C195.246 54.164 195.738 54.036 196.29 54.036C196.698 54.036 197.062 54.104 197.382 54.24C197.702 54.368 197.974 54.56 198.198 54.816C198.43 55.064 198.602 55.368 198.714 55.728C198.834 56.088 198.894 56.492 198.894 56.94C198.894 57.076 198.854 57.18 198.774 57.252C198.694 57.316 198.574 57.348 198.414 57.348H194.382V56.604H198.078L197.874 56.772C197.874 56.372 197.814 56.032 197.694 55.752C197.582 55.472 197.41 55.26 197.178 55.116C196.954 54.964 196.674 54.888 196.338 54.888C195.962 54.888 195.642 54.976 195.378 55.152C195.122 55.328 194.926 55.572 194.79 55.884C194.654 56.196 194.586 56.56 194.586 56.976V57.048C194.586 57.752 194.75 58.284 195.078 58.644C195.414 58.996 195.898 59.172 196.53 59.172C196.77 59.172 197.022 59.14 197.286 59.076C197.558 59.012 197.814 58.904 198.054 58.752C198.19 58.672 198.31 58.636 198.414 58.644C198.526 58.652 198.614 58.688 198.678 58.752C198.75 58.816 198.794 58.896 198.81 58.992C198.826 59.088 198.81 59.188 198.762 59.292C198.714 59.388 198.63 59.476 198.51 59.556C198.238 59.74 197.922 59.88 197.562 59.976C197.202 60.064 196.854 60.108 196.518 60.108ZM200.839 60.084C200.647 60.084 200.499 60.032 200.395 59.928C200.291 59.816 200.239 59.664 200.239 59.472V54.672C200.239 54.472 200.291 54.32 200.395 54.216C200.499 54.112 200.643 54.06 200.827 54.06C201.019 54.06 201.163 54.112 201.259 54.216C201.363 54.32 201.415 54.472 201.415 54.672V55.656L201.283 55.392C201.443 54.968 201.691 54.636 202.027 54.396C202.363 54.156 202.767 54.036 203.239 54.036C203.727 54.036 204.123 54.152 204.427 54.384C204.731 54.616 204.939 54.972 205.051 55.452H204.883C205.035 55.012 205.295 54.668 205.663 54.42C206.031 54.164 206.459 54.036 206.947 54.036C207.395 54.036 207.763 54.124 208.051 54.3C208.339 54.468 208.555 54.728 208.699 55.08C208.843 55.424 208.915 55.86 208.915 56.388V59.472C208.915 59.664 208.859 59.816 208.747 59.928C208.643 60.032 208.495 60.084 208.303 60.084C208.111 60.084 207.963 60.032 207.859 59.928C207.755 59.816 207.703 59.664 207.703 59.472V56.448C207.703 55.952 207.615 55.588 207.439 55.356C207.271 55.124 206.991 55.008 206.599 55.008C206.159 55.008 205.811 55.16 205.555 55.464C205.299 55.768 205.171 56.188 205.171 56.724V59.472C205.171 59.664 205.119 59.816 205.015 59.928C204.911 60.032 204.763 60.084 204.571 60.084C204.379 60.084 204.227 60.032 204.115 59.928C204.011 59.816 203.959 59.664 203.959 59.472V56.448C203.959 55.952 203.875 55.588 203.707 55.356C203.539 55.124 203.259 55.008 202.867 55.008C202.427 55.008 202.079 55.16 201.823 55.464C201.575 55.768 201.451 56.188 201.451 56.724V59.472C201.451 59.88 201.247 60.084 200.839 60.084ZM211.21 60.072C211.018 60.072 210.87 60.016 210.766 59.904C210.662 59.784 210.61 59.62 210.61 59.412V54.732C210.61 54.524 210.662 54.364 210.766 54.252C210.87 54.14 211.018 54.084 211.21 54.084C211.402 54.084 211.55 54.14 211.654 54.252C211.766 54.364 211.822 54.524 211.822 54.732V59.412C211.822 59.62 211.77 59.784 211.666 59.904C211.562 60.016 211.41 60.072 211.21 60.072ZM211.21 52.836C210.97 52.836 210.782 52.776 210.646 52.656C210.518 52.536 210.454 52.368 210.454 52.152C210.454 51.928 210.518 51.76 210.646 51.648C210.782 51.528 210.97 51.468 211.21 51.468C211.45 51.468 211.634 51.528 211.762 51.648C211.898 51.76 211.966 51.928 211.966 52.152C211.966 52.368 211.898 52.536 211.762 52.656C211.634 52.776 211.45 52.836 211.21 52.836ZM214.128 60.084C213.936 60.084 213.788 60.032 213.684 59.928C213.58 59.816 213.528 59.664 213.528 59.472V54.672C213.528 54.472 213.58 54.32 213.684 54.216C213.788 54.112 213.932 54.06 214.116 54.06C214.308 54.06 214.452 54.112 214.548 54.216C214.652 54.32 214.704 54.472 214.704 54.672V55.608L214.572 55.392C214.748 54.944 215.024 54.608 215.4 54.384C215.776 54.152 216.208 54.036 216.696 54.036C217.16 54.036 217.544 54.124 217.848 54.3C218.16 54.468 218.392 54.728 218.544 55.08C218.696 55.424 218.772 55.86 218.772 56.388V59.472C218.772 59.664 218.72 59.816 218.616 59.928C218.512 60.032 218.364 60.084 218.172 60.084C217.972 60.084 217.82 60.032 217.716 59.928C217.612 59.816 217.56 59.664 217.56 59.472V56.46C217.56 55.956 217.46 55.588 217.26 55.356C217.068 55.124 216.764 55.008 216.348 55.008C215.86 55.008 215.468 55.16 215.172 55.464C214.884 55.768 214.74 56.176 214.74 56.688V59.472C214.74 59.88 214.536 60.084 214.128 60.084ZM222.674 60.108C222.162 60.108 221.71 59.988 221.318 59.748C220.934 59.5 220.634 59.148 220.418 58.692C220.202 58.228 220.094 57.688 220.094 57.072C220.094 56.44 220.202 55.9 220.418 55.452C220.634 55.004 220.934 54.656 221.318 54.408C221.71 54.16 222.162 54.036 222.674 54.036C223.186 54.036 223.626 54.164 223.994 54.42C224.37 54.668 224.622 55.004 224.75 55.428H224.618V52.068C224.618 51.868 224.67 51.716 224.774 51.612C224.878 51.508 225.026 51.456 225.218 51.456C225.41 51.456 225.558 51.508 225.662 51.612C225.774 51.716 225.83 51.868 225.83 52.068V59.472C225.83 59.664 225.778 59.816 225.674 59.928C225.57 60.032 225.422 60.084 225.23 60.084C225.038 60.084 224.89 60.032 224.786 59.928C224.682 59.816 224.63 59.664 224.63 59.472V58.416L224.762 58.68C224.634 59.112 224.382 59.46 224.006 59.724C223.638 59.98 223.194 60.108 222.674 60.108ZM222.986 59.172C223.314 59.172 223.602 59.092 223.85 58.932C224.098 58.772 224.29 58.536 224.426 58.224C224.57 57.912 224.642 57.528 224.642 57.072C224.642 56.384 224.49 55.864 224.186 55.512C223.882 55.16 223.482 54.984 222.986 54.984C222.65 54.984 222.358 55.064 222.11 55.224C221.862 55.376 221.666 55.608 221.522 55.92C221.386 56.232 221.318 56.616 221.318 57.072C221.318 57.752 221.47 58.272 221.774 58.632C222.078 58.992 222.482 59.172 222.986 59.172ZM230.28 60.108C229.64 60.108 229.088 59.988 228.624 59.748C228.168 59.5 227.812 59.152 227.556 58.704C227.308 58.248 227.184 57.708 227.184 57.084C227.184 56.476 227.308 55.944 227.556 55.488C227.804 55.032 228.144 54.676 228.576 54.42C229.008 54.164 229.5 54.036 230.052 54.036C230.46 54.036 230.824 54.104 231.144 54.24C231.464 54.368 231.736 54.56 231.96 54.816C232.192 55.064 232.364 55.368 232.476 55.728C232.596 56.088 232.656 56.492 232.656 56.94C232.656 57.076 232.616 57.18 232.536 57.252C232.456 57.316 232.336 57.348 232.176 57.348H228.144V56.604H231.84L231.636 56.772C231.636 56.372 231.576 56.032 231.456 55.752C231.344 55.472 231.172 55.26 230.94 55.116C230.716 54.964 230.436 54.888 230.1 54.888C229.724 54.888 229.404 54.976 229.14 55.152C228.884 55.328 228.688 55.572 228.552 55.884C228.416 56.196 228.348 56.56 228.348 56.976V57.048C228.348 57.752 228.512 58.284 228.84 58.644C229.176 58.996 229.66 59.172 230.292 59.172C230.532 59.172 230.784 59.14 231.048 59.076C231.32 59.012 231.576 58.904 231.816 58.752C231.952 58.672 232.072 58.636 232.176 58.644C232.288 58.652 232.376 58.688 232.44 58.752C232.512 58.816 232.556 58.896 232.572 58.992C232.588 59.088 232.572 59.188 232.524 59.292C232.476 59.388 232.392 59.476 232.272 59.556C232 59.74 231.684 59.88 231.324 59.976C230.964 60.064 230.616 60.108 230.28 60.108ZM234.589 60.084C234.389 60.084 234.237 60.032 234.133 59.928C234.029 59.816 233.977 59.664 233.977 59.472V54.672C233.977 54.472 234.029 54.32 234.133 54.216C234.237 54.112 234.381 54.06 234.565 54.06C234.757 54.06 234.901 54.112 234.997 54.216C235.101 54.32 235.153 54.472 235.153 54.672V55.548H235.033C235.161 55.068 235.397 54.704 235.741 54.456C236.085 54.208 236.525 54.064 237.061 54.024C237.205 54.016 237.317 54.052 237.397 54.132C237.485 54.212 237.533 54.336 237.541 54.504C237.557 54.672 237.521 54.808 237.433 54.912C237.345 55.008 237.209 55.064 237.025 55.08L236.797 55.104C236.277 55.152 235.881 55.316 235.609 55.596C235.337 55.876 235.201 56.26 235.201 56.748V59.472C235.201 59.664 235.149 59.816 235.045 59.928C234.949 60.032 234.797 60.084 234.589 60.084ZM238.784 60.048C238.552 60.048 238.364 59.976 238.22 59.832C238.076 59.688 238.004 59.504 238.004 59.28C238.004 59.056 238.076 58.876 238.22 58.74C238.364 58.596 238.552 58.524 238.784 58.524C239.016 58.524 239.2 58.596 239.336 58.74C239.472 58.876 239.54 59.056 239.54 59.28C239.54 59.504 239.472 59.688 239.336 59.832C239.2 59.976 239.016 60.048 238.784 60.048Z" fill="#64728C"/>
</g>
<defs>
<filter id="filter0_d_1251_15313" x="14" y="13" width="247" height="80" filterUnits="userSpaceOnUse" color-interpolation-filters="sRGB">
<feFlood flood-opacity="0" result="BackgroundImageFix"/>
<feColorMatrix in="SourceAlpha" type="matrix" values="0 0 0 0 0 0 0 0 0 0 0 0 0 0 0 0 0 0 127 0" result="hardAlpha"/>
<feOffset dy="4"/>
<feGaussianBlur stdDeviation="2"/>
<feComposite in2="hardAlpha" operator="out"/>
<feColorMatrix type="matrix" values="0 0 0 0 0 0 0 0 0 0 0 0 0 0 0 0 0 0 0.05 0"/>
<feBlend mode="normal" in2="BackgroundImageFix" result="effect1_dropShadow_1251_15313"/>
<feBlend mode="normal" in="SourceGraphic" in2="effect1_dropShadow_1251_15313" result="shape"/>
</filter>
</defs>
</svg>
