<svg width="261" height="132" viewBox="0 0 261 132" fill="none" xmlns="http://www.w3.org/2000/svg">
<path d="M9 0C7.21997 0 5.47991 0.527841 3.99987 1.51677C2.51983 2.50571 1.36628 3.91131 0.685088 5.55585C0.00389956 7.20038 -0.17433 9.00998 0.172936 10.7558C0.520203 12.5016 1.37737 14.1053 2.63604 15.364C3.89471 16.6226 5.49836 17.4798 7.24419 17.8271C8.99002 18.1743 10.7996 17.9961 12.4442 17.3149C14.0887 16.6337 15.4943 15.4802 16.4832 14.0001C17.4722 12.5201 18 10.78 18 9C17.9954 6.61446 17.0457 4.32793 15.3589 2.64109C13.6721 0.954255 11.3855 0.0045744 9 0ZM9 14.5385C8.79461 14.5385 8.59384 14.4776 8.42306 14.3634C8.25229 14.2493 8.11919 14.0872 8.04059 13.8974C7.96199 13.7076 7.94142 13.4988 7.98149 13.2974C8.02156 13.096 8.12047 12.9109 8.2657 12.7657C8.41093 12.6205 8.59597 12.5216 8.79741 12.4815C8.99885 12.4414 9.20765 12.462 9.3974 12.5406C9.58716 12.6192 9.74934 12.7523 9.86345 12.9231C9.97756 13.0938 10.0385 13.2946 10.0385 13.5C10.0385 13.7754 9.92905 14.0395 9.7343 14.2343C9.53956 14.429 9.27542 14.5385 9 14.5385ZM9.69231 10.3067V10.3846C9.69231 10.5682 9.61937 10.7443 9.48954 10.8741C9.3597 11.004 9.18361 11.0769 9 11.0769C8.81639 11.0769 8.6403 11.004 8.51047 10.8741C8.38063 10.7443 8.30769 10.5682 8.30769 10.3846V9.69231C8.30769 9.50869 8.38063 9.3326 8.51047 9.20277C8.6403 9.07294 8.81639 9 9 9C9.34232 9 9.67694 8.89849 9.96157 8.70831C10.2462 8.51813 10.468 8.24782 10.599 7.93157C10.73 7.61531 10.7643 7.26731 10.6975 6.93157C10.6307 6.59584 10.4659 6.28744 10.2238 6.04539C9.98179 5.80334 9.67339 5.6385 9.33766 5.57172C9.00192 5.50493 8.65392 5.53921 8.33767 5.67021C8.02141 5.8012 7.7511 6.02304 7.56092 6.30767C7.37074 6.59229 7.26923 6.92692 7.26923 7.26923C7.26923 7.45284 7.19629 7.62893 7.06646 7.75876C6.93663 7.8886 6.76054 7.96154 6.57693 7.96154C6.39331 7.96154 6.21722 7.8886 6.08739 7.75876C5.95756 7.62893 5.88462 7.45284 5.88462 7.26923C5.88462 6.68276 6.05016 6.10821 6.3622 5.61165C6.67424 5.11509 7.1201 4.71669 7.64851 4.46227C8.17692 4.20785 8.76641 4.10776 9.34918 4.17349C9.93195 4.23922 10.4843 4.46811 10.9428 4.83384C11.4012 5.19956 11.7472 5.68727 11.9408 6.24086C12.1343 6.79446 12.1677 7.39145 12.0371 7.96318C11.9065 8.53491 11.6171 9.05816 11.2023 9.47274C10.7875 9.88733 10.2641 10.1764 9.69231 10.3067Z" fill="#64728C"/>
<g filter="url(#filter0_d_1251_15314)">
<rect x="18" y="9" width="239" height="115" rx="14" fill="#E8EAEF"/>
<rect x="18.5" y="9.5" width="238" height="114" rx="13.5" stroke="#64728C" stroke-opacity="0.21"/>
<rect x="18" y="9" width="239" height="111" rx="14" fill="white"/>
<path d="M37.672 38.084C37.472 38.084 37.316 38.028 37.204 37.916C37.1 37.804 37.048 37.648 37.048 37.448V30.584H34.504C34.336 30.584 34.204 30.54 34.108 30.452C34.012 30.356 33.964 30.224 33.964 30.056C33.964 29.888 34.012 29.76 34.108 29.672C34.204 29.584 34.336 29.54 34.504 29.54H40.828C41.004 29.54 41.14 29.584 41.236 29.672C41.332 29.76 41.38 29.888 41.38 30.056C41.38 30.224 41.332 30.356 41.236 30.452C41.14 30.54 41.004 30.584 40.828 30.584H38.284V37.448C38.284 37.648 38.232 37.804 38.128 37.916C38.032 38.028 37.88 38.084 37.672 38.084ZM43.2567 38.084C43.0647 38.084 42.9167 38.032 42.8127 37.928C42.7087 37.816 42.6567 37.664 42.6567 37.472V30.068C42.6567 29.868 42.7087 29.716 42.8127 29.612C42.9167 29.508 43.0647 29.456 43.2567 29.456C43.4487 29.456 43.5967 29.508 43.7007 29.612C43.8127 29.716 43.8687 29.868 43.8687 30.068V33.392H43.7007C43.8767 32.944 44.1527 32.608 44.5287 32.384C44.9047 32.152 45.3367 32.036 45.8247 32.036C46.2887 32.036 46.6727 32.124 46.9767 32.3C47.2887 32.468 47.5207 32.728 47.6727 33.08C47.8247 33.424 47.9007 33.86 47.9007 34.388V37.472C47.9007 37.664 47.8487 37.816 47.7447 37.928C47.6407 38.032 47.4927 38.084 47.3007 38.084C47.1007 38.084 46.9487 38.032 46.8447 37.928C46.7407 37.816 46.6887 37.664 46.6887 37.472V34.46C46.6887 33.956 46.5887 33.588 46.3887 33.356C46.1967 33.124 45.8927 33.008 45.4767 33.008C44.9887 33.008 44.5967 33.16 44.3007 33.464C44.0127 33.768 43.8687 34.176 43.8687 34.688V37.472C43.8687 37.88 43.6647 38.084 43.2567 38.084ZM50.1708 38.072C49.9788 38.072 49.8308 38.016 49.7268 37.904C49.6228 37.784 49.5708 37.62 49.5708 37.412V32.732C49.5708 32.524 49.6228 32.364 49.7268 32.252C49.8308 32.14 49.9788 32.084 50.1708 32.084C50.3628 32.084 50.5108 32.14 50.6148 32.252C50.7268 32.364 50.7828 32.524 50.7828 32.732V37.412C50.7828 37.62 50.7308 37.784 50.6268 37.904C50.5228 38.016 50.3708 38.072 50.1708 38.072ZM50.1708 30.836C49.9308 30.836 49.7428 30.776 49.6068 30.656C49.4788 30.536 49.4148 30.368 49.4148 30.152C49.4148 29.928 49.4788 29.76 49.6068 29.648C49.7428 29.528 49.9308 29.468 50.1708 29.468C50.4108 29.468 50.5948 29.528 50.7228 29.648C50.8588 29.76 50.9268 29.928 50.9268 30.152C50.9268 30.368 50.8588 30.536 50.7228 30.656C50.5948 30.776 50.4108 30.836 50.1708 30.836ZM54.5407 38.108C54.1887 38.108 53.8247 38.068 53.4487 37.988C53.0807 37.908 52.7407 37.772 52.4287 37.58C52.3247 37.508 52.2527 37.428 52.2127 37.34C52.1727 37.252 52.1567 37.164 52.1647 37.076C52.1807 36.98 52.2167 36.9 52.2727 36.836C52.3367 36.764 52.4127 36.72 52.5007 36.704C52.5967 36.688 52.6967 36.708 52.8007 36.764C53.1127 36.94 53.4127 37.064 53.7007 37.136C53.9887 37.2 54.2727 37.232 54.5527 37.232C54.9767 37.232 55.2967 37.156 55.5127 37.004C55.7287 36.852 55.8367 36.648 55.8367 36.392C55.8367 36.184 55.7647 36.024 55.6207 35.912C55.4767 35.792 55.2607 35.7 54.9727 35.636L53.8327 35.408C53.3367 35.304 52.9607 35.12 52.7047 34.856C52.4487 34.592 52.3207 34.256 52.3207 33.848C52.3207 33.48 52.4207 33.16 52.6207 32.888C52.8207 32.616 53.1007 32.408 53.4607 32.264C53.8207 32.112 54.2367 32.036 54.7087 32.036C55.0607 32.036 55.3927 32.08 55.7047 32.168C56.0167 32.256 56.3047 32.388 56.5687 32.564C56.6727 32.62 56.7407 32.696 56.7727 32.792C56.8047 32.88 56.8087 32.968 56.7847 33.056C56.7687 33.144 56.7287 33.224 56.6647 33.296C56.6007 33.36 56.5207 33.4 56.4247 33.416C56.3367 33.424 56.2367 33.4 56.1247 33.344C55.8847 33.192 55.6447 33.084 55.4047 33.02C55.1727 32.956 54.9407 32.924 54.7087 32.924C54.2847 32.924 53.9647 33.004 53.7487 33.164C53.5407 33.316 53.4367 33.524 53.4367 33.788C53.4367 33.988 53.5007 34.152 53.6287 34.28C53.7567 34.408 53.9567 34.5 54.2287 34.556L55.3687 34.784C55.8887 34.888 56.2807 35.064 56.5447 35.312C56.8167 35.56 56.9527 35.896 56.9527 36.32C56.9527 36.872 56.7327 37.308 56.2927 37.628C55.8527 37.948 55.2687 38.108 54.5407 38.108ZM63.6013 38.084C63.4333 38.084 63.2853 38.044 63.1573 37.964C63.0373 37.876 62.9413 37.74 62.8693 37.556L61.1053 32.888C61.0413 32.728 61.0213 32.588 61.0453 32.468C61.0693 32.34 61.1293 32.24 61.2253 32.168C61.3293 32.096 61.4613 32.06 61.6213 32.06C61.7653 32.06 61.8813 32.096 61.9693 32.168C62.0653 32.232 62.1453 32.36 62.2093 32.552L63.7813 36.98H63.4933L65.1253 32.504C65.1813 32.352 65.2573 32.24 65.3533 32.168C65.4493 32.096 65.5733 32.06 65.7253 32.06C65.8773 32.06 66.0013 32.096 66.0973 32.168C66.2013 32.24 66.2773 32.352 66.3253 32.504L67.9213 36.98H67.6573L69.2533 32.528C69.3173 32.344 69.3973 32.22 69.4933 32.156C69.5973 32.092 69.7133 32.06 69.8413 32.06C70.0013 32.06 70.1213 32.1 70.2013 32.18C70.2893 32.26 70.3373 32.364 70.3453 32.492C70.3613 32.612 70.3413 32.744 70.2853 32.888L68.5213 37.556C68.4493 37.732 68.3493 37.864 68.2213 37.952C68.1013 38.04 67.9613 38.084 67.8013 38.084C67.6333 38.084 67.4853 38.04 67.3573 37.952C67.2373 37.864 67.1413 37.732 67.0693 37.556L65.3893 33.008H65.9893L64.3213 37.556C64.2573 37.732 64.1613 37.864 64.0333 37.952C63.9133 38.04 63.7693 38.084 63.6013 38.084ZM72.2137 38.072C72.0217 38.072 71.8737 38.016 71.7697 37.904C71.6657 37.784 71.6137 37.62 71.6137 37.412V32.732C71.6137 32.524 71.6657 32.364 71.7697 32.252C71.8737 32.14 72.0217 32.084 72.2137 32.084C72.4057 32.084 72.5537 32.14 72.6577 32.252C72.7697 32.364 72.8257 32.524 72.8257 32.732V37.412C72.8257 37.62 72.7737 37.784 72.6697 37.904C72.5657 38.016 72.4137 38.072 72.2137 38.072ZM72.2137 30.836C71.9737 30.836 71.7857 30.776 71.6497 30.656C71.5217 30.536 71.4577 30.368 71.4577 30.152C71.4577 29.928 71.5217 29.76 71.6497 29.648C71.7857 29.528 71.9737 29.468 72.2137 29.468C72.4537 29.468 72.6377 29.528 72.7657 29.648C72.9017 29.76 72.9697 29.928 72.9697 30.152C72.9697 30.368 72.9017 30.536 72.7657 30.656C72.6377 30.776 72.4537 30.836 72.2137 30.836ZM76.4157 38.108C75.7917 38.108 75.3197 37.928 74.9997 37.568C74.6877 37.2 74.5317 36.672 74.5317 35.984V30.068C74.5317 29.868 74.5837 29.716 74.6877 29.612C74.7917 29.508 74.9397 29.456 75.1317 29.456C75.3237 29.456 75.4717 29.508 75.5757 29.612C75.6877 29.716 75.7437 29.868 75.7437 30.068V35.912C75.7437 36.312 75.8237 36.612 75.9837 36.812C76.1517 37.004 76.3917 37.1 76.7037 37.1C76.7757 37.1 76.8397 37.1 76.8957 37.1C76.9517 37.092 77.0077 37.084 77.0637 37.076C77.1597 37.068 77.2277 37.096 77.2677 37.16C77.3077 37.216 77.3277 37.336 77.3277 37.52C77.3277 37.688 77.2917 37.82 77.2197 37.916C77.1477 38.004 77.0317 38.06 76.8717 38.084C76.7997 38.092 76.7237 38.096 76.6437 38.096C76.5637 38.104 76.4877 38.108 76.4157 38.108ZM80.0837 38.108C79.4597 38.108 78.9877 37.928 78.6677 37.568C78.3557 37.2 78.1997 36.672 78.1997 35.984V30.068C78.1997 29.868 78.2517 29.716 78.3557 29.612C78.4597 29.508 78.6077 29.456 78.7997 29.456C78.9917 29.456 79.1397 29.508 79.2437 29.612C79.3557 29.716 79.4117 29.868 79.4117 30.068V35.912C79.4117 36.312 79.4917 36.612 79.6517 36.812C79.8197 37.004 80.0597 37.1 80.3717 37.1C80.4437 37.1 80.5077 37.1 80.5637 37.1C80.6197 37.092 80.6757 37.084 80.7317 37.076C80.8277 37.068 80.8957 37.096 80.9357 37.16C80.9757 37.216 80.9957 37.336 80.9957 37.52C80.9957 37.688 80.9597 37.82 80.8877 37.916C80.8157 38.004 80.6997 38.06 80.5397 38.084C80.4677 38.092 80.3917 38.096 80.3117 38.096C80.2317 38.104 80.1557 38.108 80.0837 38.108ZM85.6317 38.084C85.4397 38.084 85.2917 38.032 85.1877 37.928C85.0837 37.816 85.0317 37.664 85.0317 37.472V32.672C85.0317 32.472 85.0837 32.32 85.1877 32.216C85.2917 32.112 85.4357 32.06 85.6197 32.06C85.8117 32.06 85.9557 32.112 86.0517 32.216C86.1557 32.32 86.2077 32.472 86.2077 32.672V33.608L86.0757 33.392C86.2517 32.944 86.5277 32.608 86.9037 32.384C87.2797 32.152 87.7117 32.036 88.1997 32.036C88.6637 32.036 89.0477 32.124 89.3517 32.3C89.6637 32.468 89.8957 32.728 90.0477 33.08C90.1997 33.424 90.2757 33.86 90.2757 34.388V37.472C90.2757 37.664 90.2237 37.816 90.1197 37.928C90.0157 38.032 89.8677 38.084 89.6757 38.084C89.4757 38.084 89.3237 38.032 89.2197 37.928C89.1157 37.816 89.0637 37.664 89.0637 37.472V34.46C89.0637 33.956 88.9637 33.588 88.7637 33.356C88.5717 33.124 88.2677 33.008 87.8517 33.008C87.3637 33.008 86.9717 33.16 86.6757 33.464C86.3877 33.768 86.2437 34.176 86.2437 34.688V37.472C86.2437 37.88 86.0397 38.084 85.6317 38.084ZM94.4898 38.108C93.8978 38.108 93.3858 37.984 92.9538 37.736C92.5298 37.488 92.1978 37.136 91.9578 36.68C91.7178 36.224 91.5978 35.688 91.5978 35.072C91.5978 34.6 91.6658 34.18 91.8018 33.812C91.9378 33.444 92.1298 33.128 92.3778 32.864C92.6338 32.592 92.9378 32.388 93.2898 32.252C93.6498 32.108 94.0498 32.036 94.4898 32.036C95.0738 32.036 95.5778 32.16 96.0018 32.408C96.4338 32.656 96.7698 33.008 97.0098 33.464C97.2498 33.912 97.3698 34.448 97.3698 35.072C97.3698 35.536 97.3018 35.956 97.1658 36.332C97.0298 36.708 96.8338 37.028 96.5778 37.292C96.3298 37.556 96.0258 37.76 95.6658 37.904C95.3138 38.04 94.9218 38.108 94.4898 38.108ZM94.4898 37.172C94.8178 37.172 95.1058 37.092 95.3538 36.932C95.6018 36.772 95.7938 36.536 95.9298 36.224C96.0738 35.912 96.1458 35.528 96.1458 35.072C96.1458 34.384 95.9938 33.864 95.6898 33.512C95.3858 33.16 94.9858 32.984 94.4898 32.984C94.1538 32.984 93.8618 33.064 93.6138 33.224C93.3658 33.376 93.1698 33.608 93.0258 33.92C92.8898 34.232 92.8218 34.616 92.8218 35.072C92.8218 35.752 92.9738 36.272 93.2778 36.632C93.5818 36.992 93.9858 37.172 94.4898 37.172ZM101.168 38.108C100.688 38.108 100.284 38.024 99.9563 37.856C99.6283 37.688 99.3843 37.44 99.2243 37.112C99.0643 36.784 98.9843 36.384 98.9843 35.912V33.08H98.2643C98.1043 33.08 97.9803 33.04 97.8923 32.96C97.8043 32.872 97.7603 32.756 97.7603 32.612C97.7603 32.46 97.8043 32.344 97.8923 32.264C97.9803 32.184 98.1043 32.144 98.2643 32.144H98.9843V30.908C98.9843 30.708 99.0363 30.556 99.1403 30.452C99.2523 30.348 99.4043 30.296 99.5963 30.296C99.7883 30.296 99.9363 30.348 100.04 30.452C100.144 30.556 100.196 30.708 100.196 30.908V32.144H101.6C101.76 32.144 101.884 32.184 101.972 32.264C102.06 32.344 102.104 32.46 102.104 32.612C102.104 32.756 102.06 32.872 101.972 32.96C101.884 33.04 101.76 33.08 101.6 33.08H100.196V35.816C100.196 36.24 100.284 36.56 100.46 36.776C100.644 36.992 100.94 37.1 101.348 37.1C101.492 37.1 101.616 37.088 101.72 37.064C101.832 37.032 101.924 37.012 101.996 37.004C102.084 37.004 102.156 37.036 102.212 37.1C102.268 37.156 102.296 37.268 102.296 37.436C102.296 37.556 102.272 37.668 102.224 37.772C102.184 37.876 102.108 37.944 101.996 37.976C101.9 38.008 101.768 38.036 101.6 38.06C101.44 38.092 101.296 38.108 101.168 38.108ZM103.761 38.072C103.569 38.072 103.421 38.016 103.317 37.904C103.213 37.784 103.161 37.62 103.161 37.412V32.732C103.161 32.524 103.213 32.364 103.317 32.252C103.421 32.14 103.569 32.084 103.761 32.084C103.953 32.084 104.101 32.14 104.205 32.252C104.317 32.364 104.373 32.524 104.373 32.732V37.412C104.373 37.62 104.321 37.784 104.217 37.904C104.113 38.016 103.961 38.072 103.761 38.072ZM103.761 30.836C103.521 30.836 103.333 30.776 103.197 30.656C103.069 30.536 103.005 30.368 103.005 30.152C103.005 29.928 103.069 29.76 103.197 29.648C103.333 29.528 103.521 29.468 103.761 29.468C104.001 29.468 104.185 29.528 104.313 29.648C104.449 29.76 104.517 29.928 104.517 30.152C104.517 30.368 104.449 30.536 104.313 30.656C104.185 30.776 104.001 30.836 103.761 30.836ZM107.039 38.084C106.847 38.084 106.695 38.032 106.583 37.928C106.479 37.816 106.427 37.664 106.427 37.472V33.08H105.755C105.603 33.08 105.483 33.04 105.395 32.96C105.307 32.872 105.263 32.756 105.263 32.612C105.263 32.46 105.307 32.344 105.395 32.264C105.483 32.184 105.603 32.144 105.755 32.144H106.775L106.427 32.468V32.036C106.427 31.244 106.623 30.648 107.015 30.248C107.407 29.84 107.979 29.6 108.731 29.528L109.103 29.504C109.239 29.488 109.347 29.508 109.427 29.564C109.507 29.62 109.559 29.692 109.583 29.78C109.607 29.868 109.607 29.96 109.583 30.056C109.567 30.144 109.527 30.224 109.463 30.296C109.399 30.368 109.319 30.408 109.223 30.416L108.995 30.428C108.523 30.468 108.179 30.604 107.963 30.836C107.747 31.06 107.639 31.404 107.639 31.868V32.336L107.471 32.144H108.803C108.971 32.144 109.095 32.184 109.175 32.264C109.263 32.344 109.307 32.46 109.307 32.612C109.307 32.756 109.263 32.872 109.175 32.96C109.095 33.04 108.971 33.08 108.803 33.08H107.639V37.472C107.639 37.88 107.439 38.084 107.039 38.084ZM111.513 40.244C111.369 40.244 111.249 40.204 111.153 40.124C111.065 40.052 111.013 39.952 110.997 39.824C110.989 39.704 111.013 39.572 111.069 39.428L111.885 37.592V38.108L109.641 32.888C109.585 32.744 109.565 32.608 109.581 32.48C109.597 32.352 109.657 32.252 109.761 32.18C109.865 32.1 110.005 32.06 110.181 32.06C110.333 32.06 110.453 32.096 110.541 32.168C110.629 32.24 110.709 32.364 110.781 32.54L112.593 37.016H112.257L114.093 32.54C114.165 32.356 114.249 32.232 114.345 32.168C114.441 32.096 114.573 32.06 114.741 32.06C114.885 32.06 114.997 32.1 115.077 32.18C115.165 32.252 115.217 32.352 115.233 32.48C115.257 32.6 115.237 32.732 115.173 32.876L112.173 39.776C112.093 39.96 112.001 40.084 111.897 40.148C111.801 40.212 111.673 40.244 111.513 40.244ZM121.584 38.108C121.232 38.108 120.868 38.068 120.492 37.988C120.124 37.908 119.784 37.772 119.472 37.58C119.368 37.508 119.296 37.428 119.256 37.34C119.216 37.252 119.2 37.164 119.208 37.076C119.224 36.98 119.26 36.9 119.316 36.836C119.38 36.764 119.456 36.72 119.544 36.704C119.64 36.688 119.74 36.708 119.844 36.764C120.156 36.94 120.456 37.064 120.744 37.136C121.032 37.2 121.316 37.232 121.596 37.232C122.02 37.232 122.34 37.156 122.556 37.004C122.772 36.852 122.88 36.648 122.88 36.392C122.88 36.184 122.808 36.024 122.664 35.912C122.52 35.792 122.304 35.7 122.016 35.636L120.876 35.408C120.38 35.304 120.004 35.12 119.748 34.856C119.492 34.592 119.364 34.256 119.364 33.848C119.364 33.48 119.464 33.16 119.664 32.888C119.864 32.616 120.144 32.408 120.504 32.264C120.864 32.112 121.28 32.036 121.752 32.036C122.104 32.036 122.436 32.08 122.748 32.168C123.06 32.256 123.348 32.388 123.612 32.564C123.716 32.62 123.784 32.696 123.816 32.792C123.848 32.88 123.852 32.968 123.828 33.056C123.812 33.144 123.772 33.224 123.708 33.296C123.644 33.36 123.564 33.4 123.468 33.416C123.38 33.424 123.28 33.4 123.168 33.344C122.928 33.192 122.688 33.084 122.448 33.02C122.216 32.956 121.984 32.924 121.752 32.924C121.328 32.924 121.008 33.004 120.792 33.164C120.584 33.316 120.48 33.524 120.48 33.788C120.48 33.988 120.544 34.152 120.672 34.28C120.8 34.408 121 34.5 121.272 34.556L122.412 34.784C122.932 34.888 123.324 35.064 123.588 35.312C123.86 35.56 123.996 35.896 123.996 36.32C123.996 36.872 123.776 37.308 123.336 37.628C122.896 37.948 122.312 38.108 121.584 38.108ZM128.092 38.108C127.452 38.108 126.9 37.988 126.436 37.748C125.98 37.5 125.624 37.152 125.368 36.704C125.12 36.248 124.996 35.708 124.996 35.084C124.996 34.476 125.12 33.944 125.368 33.488C125.616 33.032 125.956 32.676 126.388 32.42C126.82 32.164 127.312 32.036 127.864 32.036C128.272 32.036 128.636 32.104 128.956 32.24C129.276 32.368 129.548 32.56 129.772 32.816C130.004 33.064 130.176 33.368 130.288 33.728C130.408 34.088 130.468 34.492 130.468 34.94C130.468 35.076 130.428 35.18 130.348 35.252C130.268 35.316 130.148 35.348 129.988 35.348H125.956V34.604H129.652L129.448 34.772C129.448 34.372 129.388 34.032 129.268 33.752C129.156 33.472 128.984 33.26 128.752 33.116C128.528 32.964 128.248 32.888 127.912 32.888C127.536 32.888 127.216 32.976 126.952 33.152C126.696 33.328 126.5 33.572 126.364 33.884C126.228 34.196 126.16 34.56 126.16 34.976V35.048C126.16 35.752 126.324 36.284 126.652 36.644C126.988 36.996 127.472 37.172 128.104 37.172C128.344 37.172 128.596 37.14 128.86 37.076C129.132 37.012 129.388 36.904 129.628 36.752C129.764 36.672 129.884 36.636 129.988 36.644C130.1 36.652 130.188 36.688 130.252 36.752C130.324 36.816 130.368 36.896 130.384 36.992C130.4 37.088 130.384 37.188 130.336 37.292C130.288 37.388 130.204 37.476 130.084 37.556C129.812 37.74 129.496 37.88 129.136 37.976C128.776 38.064 128.428 38.108 128.092 38.108ZM133.674 38.108C133.05 38.108 132.578 37.928 132.258 37.568C131.946 37.2 131.79 36.672 131.79 35.984V30.068C131.79 29.868 131.842 29.716 131.946 29.612C132.05 29.508 132.198 29.456 132.39 29.456C132.582 29.456 132.73 29.508 132.834 29.612C132.946 29.716 133.002 29.868 133.002 30.068V35.912C133.002 36.312 133.082 36.612 133.242 36.812C133.41 37.004 133.65 37.1 133.962 37.1C134.034 37.1 134.098 37.1 134.154 37.1C134.21 37.092 134.266 37.084 134.322 37.076C134.418 37.068 134.486 37.096 134.526 37.16C134.566 37.216 134.586 37.336 134.586 37.52C134.586 37.688 134.55 37.82 134.478 37.916C134.406 38.004 134.29 38.06 134.13 38.084C134.058 38.092 133.982 38.096 133.902 38.096C133.822 38.104 133.746 38.108 133.674 38.108ZM138.147 38.108C137.507 38.108 136.955 37.988 136.491 37.748C136.035 37.5 135.679 37.152 135.423 36.704C135.175 36.248 135.051 35.708 135.051 35.084C135.051 34.476 135.175 33.944 135.423 33.488C135.671 33.032 136.011 32.676 136.443 32.42C136.875 32.164 137.367 32.036 137.919 32.036C138.327 32.036 138.691 32.104 139.011 32.24C139.331 32.368 139.603 32.56 139.827 32.816C140.059 33.064 140.231 33.368 140.343 33.728C140.463 34.088 140.523 34.492 140.523 34.94C140.523 35.076 140.483 35.18 140.403 35.252C140.323 35.316 140.203 35.348 140.043 35.348H136.011V34.604H139.707L139.503 34.772C139.503 34.372 139.443 34.032 139.323 33.752C139.211 33.472 139.039 33.26 138.807 33.116C138.583 32.964 138.303 32.888 137.967 32.888C137.591 32.888 137.271 32.976 137.007 33.152C136.751 33.328 136.555 33.572 136.419 33.884C136.283 34.196 136.215 34.56 136.215 34.976V35.048C136.215 35.752 136.379 36.284 136.707 36.644C137.043 36.996 137.527 37.172 138.159 37.172C138.399 37.172 138.651 37.14 138.915 37.076C139.187 37.012 139.443 36.904 139.683 36.752C139.819 36.672 139.939 36.636 140.043 36.644C140.155 36.652 140.243 36.688 140.307 36.752C140.379 36.816 140.423 36.896 140.439 36.992C140.455 37.088 140.439 37.188 140.391 37.292C140.343 37.388 140.259 37.476 140.139 37.556C139.867 37.74 139.551 37.88 139.191 37.976C138.831 38.064 138.483 38.108 138.147 38.108ZM144.424 38.108C143.824 38.108 143.304 37.984 142.864 37.736C142.432 37.48 142.096 37.124 141.856 36.668C141.616 36.204 141.496 35.66 141.496 35.036C141.496 34.572 141.564 34.156 141.7 33.788C141.836 33.412 142.028 33.096 142.276 32.84C142.532 32.584 142.84 32.388 143.2 32.252C143.568 32.108 143.976 32.036 144.424 32.036C144.704 32.036 144.996 32.08 145.3 32.168C145.612 32.248 145.9 32.384 146.164 32.576C146.268 32.64 146.332 32.72 146.356 32.816C146.388 32.904 146.392 32.996 146.368 33.092C146.352 33.188 146.308 33.272 146.236 33.344C146.172 33.408 146.092 33.448 145.996 33.464C145.9 33.472 145.796 33.444 145.684 33.38C145.492 33.244 145.296 33.148 145.096 33.092C144.896 33.028 144.704 32.996 144.52 32.996C144.232 32.996 143.976 33.044 143.752 33.14C143.536 33.228 143.352 33.36 143.2 33.536C143.048 33.704 142.932 33.916 142.852 34.172C142.78 34.428 142.744 34.72 142.744 35.048C142.744 35.704 142.896 36.22 143.2 36.596C143.512 36.964 143.952 37.148 144.52 37.148C144.704 37.148 144.896 37.12 145.096 37.064C145.296 37.008 145.492 36.912 145.684 36.776C145.796 36.712 145.9 36.688 145.996 36.704C146.092 36.72 146.168 36.764 146.224 36.836C146.288 36.9 146.328 36.98 146.344 37.076C146.368 37.164 146.364 37.256 146.332 37.352C146.3 37.448 146.232 37.528 146.128 37.592C145.872 37.776 145.592 37.908 145.288 37.988C144.992 38.068 144.704 38.108 144.424 38.108ZM149.953 38.108C149.473 38.108 149.069 38.024 148.741 37.856C148.413 37.688 148.169 37.44 148.009 37.112C147.849 36.784 147.769 36.384 147.769 35.912V33.08H147.049C146.889 33.08 146.765 33.04 146.677 32.96C146.589 32.872 146.545 32.756 146.545 32.612C146.545 32.46 146.589 32.344 146.677 32.264C146.765 32.184 146.889 32.144 147.049 32.144H147.769V30.908C147.769 30.708 147.821 30.556 147.925 30.452C148.037 30.348 148.189 30.296 148.381 30.296C148.573 30.296 148.721 30.348 148.825 30.452C148.929 30.556 148.981 30.708 148.981 30.908V32.144H150.385C150.545 32.144 150.669 32.184 150.757 32.264C150.845 32.344 150.889 32.46 150.889 32.612C150.889 32.756 150.845 32.872 150.757 32.96C150.669 33.04 150.545 33.08 150.385 33.08H148.981V35.816C148.981 36.24 149.069 36.56 149.245 36.776C149.429 36.992 149.725 37.1 150.133 37.1C150.277 37.1 150.401 37.088 150.505 37.064C150.617 37.032 150.709 37.012 150.781 37.004C150.869 37.004 150.941 37.036 150.997 37.1C151.053 37.156 151.081 37.268 151.081 37.436C151.081 37.556 151.057 37.668 151.009 37.772C150.969 37.876 150.893 37.944 150.781 37.976C150.685 38.008 150.553 38.036 150.385 38.06C150.225 38.092 150.081 38.108 149.953 38.108ZM154.53 38.108C153.89 38.108 153.338 37.988 152.874 37.748C152.418 37.5 152.062 37.152 151.806 36.704C151.558 36.248 151.434 35.708 151.434 35.084C151.434 34.476 151.558 33.944 151.806 33.488C152.054 33.032 152.394 32.676 152.826 32.42C153.258 32.164 153.75 32.036 154.302 32.036C154.71 32.036 155.074 32.104 155.394 32.24C155.714 32.368 155.986 32.56 156.21 32.816C156.442 33.064 156.614 33.368 156.726 33.728C156.846 34.088 156.906 34.492 156.906 34.94C156.906 35.076 156.866 35.18 156.786 35.252C156.706 35.316 156.586 35.348 156.426 35.348H152.394V34.604H156.09L155.886 34.772C155.886 34.372 155.826 34.032 155.706 33.752C155.594 33.472 155.422 33.26 155.19 33.116C154.966 32.964 154.686 32.888 154.35 32.888C153.974 32.888 153.654 32.976 153.39 33.152C153.134 33.328 152.938 33.572 152.802 33.884C152.666 34.196 152.598 34.56 152.598 34.976V35.048C152.598 35.752 152.762 36.284 153.09 36.644C153.426 36.996 153.91 37.172 154.542 37.172C154.782 37.172 155.034 37.14 155.298 37.076C155.57 37.012 155.826 36.904 156.066 36.752C156.202 36.672 156.322 36.636 156.426 36.644C156.538 36.652 156.626 36.688 156.69 36.752C156.762 36.816 156.806 36.896 156.822 36.992C156.838 37.088 156.822 37.188 156.774 37.292C156.726 37.388 156.642 37.476 156.522 37.556C156.25 37.74 155.934 37.88 155.574 37.976C155.214 38.064 154.866 38.108 154.53 38.108ZM160.459 38.108C159.947 38.108 159.495 37.988 159.103 37.748C158.719 37.5 158.419 37.148 158.203 36.692C157.987 36.228 157.879 35.688 157.879 35.072C157.879 34.44 157.987 33.9 158.203 33.452C158.419 33.004 158.719 32.656 159.103 32.408C159.495 32.16 159.947 32.036 160.459 32.036C160.971 32.036 161.411 32.164 161.779 32.42C162.155 32.668 162.407 33.004 162.535 33.428H162.403V30.068C162.403 29.868 162.455 29.716 162.559 29.612C162.663 29.508 162.811 29.456 163.003 29.456C163.195 29.456 163.343 29.508 163.447 29.612C163.559 29.716 163.615 29.868 163.615 30.068V37.472C163.615 37.664 163.563 37.816 163.459 37.928C163.355 38.032 163.207 38.084 163.015 38.084C162.823 38.084 162.675 38.032 162.571 37.928C162.467 37.816 162.415 37.664 162.415 37.472V36.416L162.547 36.68C162.419 37.112 162.167 37.46 161.791 37.724C161.423 37.98 160.979 38.108 160.459 38.108ZM160.771 37.172C161.099 37.172 161.387 37.092 161.635 36.932C161.883 36.772 162.075 36.536 162.211 36.224C162.355 35.912 162.427 35.528 162.427 35.072C162.427 34.384 162.275 33.864 161.971 33.512C161.667 33.16 161.267 32.984 160.771 32.984C160.435 32.984 160.143 33.064 159.895 33.224C159.647 33.376 159.451 33.608 159.307 33.92C159.171 34.232 159.103 34.616 159.103 35.072C159.103 35.752 159.255 36.272 159.559 36.632C159.863 36.992 160.267 37.172 160.771 37.172ZM171.229 38.108C170.589 38.108 170.037 37.988 169.573 37.748C169.117 37.5 168.761 37.152 168.505 36.704C168.257 36.248 168.133 35.708 168.133 35.084C168.133 34.476 168.257 33.944 168.505 33.488C168.753 33.032 169.093 32.676 169.525 32.42C169.957 32.164 170.449 32.036 171.001 32.036C171.409 32.036 171.773 32.104 172.093 32.24C172.413 32.368 172.685 32.56 172.909 32.816C173.141 33.064 173.313 33.368 173.425 33.728C173.545 34.088 173.605 34.492 173.605 34.94C173.605 35.076 173.565 35.18 173.485 35.252C173.405 35.316 173.285 35.348 173.125 35.348H169.093V34.604H172.789L172.585 34.772C172.585 34.372 172.525 34.032 172.405 33.752C172.293 33.472 172.121 33.26 171.889 33.116C171.665 32.964 171.385 32.888 171.049 32.888C170.673 32.888 170.353 32.976 170.089 33.152C169.833 33.328 169.637 33.572 169.501 33.884C169.365 34.196 169.297 34.56 169.297 34.976V35.048C169.297 35.752 169.461 36.284 169.789 36.644C170.125 36.996 170.609 37.172 171.241 37.172C171.481 37.172 171.733 37.14 171.997 37.076C172.269 37.012 172.525 36.904 172.765 36.752C172.901 36.672 173.021 36.636 173.125 36.644C173.237 36.652 173.325 36.688 173.389 36.752C173.461 36.816 173.505 36.896 173.521 36.992C173.537 37.088 173.521 37.188 173.473 37.292C173.425 37.388 173.341 37.476 173.221 37.556C172.949 37.74 172.633 37.88 172.273 37.976C171.913 38.064 171.565 38.108 171.229 38.108ZM175.55 38.084C175.358 38.084 175.21 38.032 175.106 37.928C175.002 37.816 174.95 37.664 174.95 37.472V32.672C174.95 32.472 175.002 32.32 175.106 32.216C175.21 32.112 175.354 32.06 175.538 32.06C175.73 32.06 175.874 32.112 175.97 32.216C176.074 32.32 176.126 32.472 176.126 32.672V33.656L175.994 33.392C176.154 32.968 176.402 32.636 176.738 32.396C177.074 32.156 177.478 32.036 177.95 32.036C178.438 32.036 178.834 32.152 179.138 32.384C179.442 32.616 179.65 32.972 179.762 33.452H179.594C179.746 33.012 180.006 32.668 180.374 32.42C180.742 32.164 181.17 32.036 181.658 32.036C182.106 32.036 182.474 32.124 182.762 32.3C183.05 32.468 183.266 32.728 183.41 33.08C183.554 33.424 183.626 33.86 183.626 34.388V37.472C183.626 37.664 183.57 37.816 183.458 37.928C183.354 38.032 183.206 38.084 183.014 38.084C182.822 38.084 182.674 38.032 182.57 37.928C182.466 37.816 182.414 37.664 182.414 37.472V34.448C182.414 33.952 182.326 33.588 182.15 33.356C181.982 33.124 181.702 33.008 181.31 33.008C180.87 33.008 180.522 33.16 180.266 33.464C180.01 33.768 179.882 34.188 179.882 34.724V37.472C179.882 37.664 179.83 37.816 179.726 37.928C179.622 38.032 179.474 38.084 179.282 38.084C179.09 38.084 178.938 38.032 178.826 37.928C178.722 37.816 178.67 37.664 178.67 37.472V34.448C178.67 33.952 178.586 33.588 178.418 33.356C178.25 33.124 177.97 33.008 177.578 33.008C177.138 33.008 176.79 33.16 176.534 33.464C176.286 33.768 176.162 34.188 176.162 34.724V37.472C176.162 37.88 175.958 38.084 175.55 38.084ZM185.921 40.244C185.729 40.244 185.581 40.192 185.477 40.088C185.373 39.984 185.321 39.832 185.321 39.632V32.672C185.321 32.472 185.373 32.32 185.477 32.216C185.581 32.112 185.725 32.06 185.909 32.06C186.101 32.06 186.249 32.112 186.353 32.216C186.457 32.32 186.509 32.472 186.509 32.672V33.716L186.377 33.464C186.505 33.032 186.757 32.688 187.133 32.432C187.509 32.168 187.953 32.036 188.465 32.036C188.985 32.036 189.437 32.16 189.821 32.408C190.213 32.656 190.513 33.004 190.721 33.452C190.937 33.9 191.045 34.44 191.045 35.072C191.045 35.688 190.937 36.228 190.721 36.692C190.513 37.148 190.217 37.5 189.833 37.748C189.449 37.988 188.993 38.108 188.465 38.108C187.961 38.108 187.521 37.98 187.145 37.724C186.769 37.468 186.517 37.128 186.389 36.704H186.533V39.632C186.533 39.832 186.477 39.984 186.365 40.088C186.261 40.192 186.113 40.244 185.921 40.244ZM188.165 37.172C188.501 37.172 188.793 37.092 189.041 36.932C189.289 36.772 189.481 36.536 189.617 36.224C189.753 35.912 189.821 35.528 189.821 35.072C189.821 34.384 189.669 33.864 189.365 33.512C189.069 33.16 188.669 32.984 188.165 32.984C187.837 32.984 187.545 33.064 187.289 33.224C187.041 33.376 186.849 33.608 186.713 33.92C186.577 34.232 186.509 34.616 186.509 35.072C186.509 35.752 186.661 36.272 186.965 36.632C187.269 36.992 187.669 37.172 188.165 37.172ZM194.295 38.108C193.671 38.108 193.199 37.928 192.879 37.568C192.567 37.2 192.411 36.672 192.411 35.984V30.068C192.411 29.868 192.463 29.716 192.567 29.612C192.671 29.508 192.819 29.456 193.011 29.456C193.203 29.456 193.351 29.508 193.455 29.612C193.567 29.716 193.623 29.868 193.623 30.068V35.912C193.623 36.312 193.703 36.612 193.863 36.812C194.031 37.004 194.271 37.1 194.583 37.1C194.655 37.1 194.719 37.1 194.775 37.1C194.831 37.092 194.887 37.084 194.943 37.076C195.039 37.068 195.107 37.096 195.147 37.16C195.187 37.216 195.207 37.336 195.207 37.52C195.207 37.688 195.171 37.82 195.099 37.916C195.027 38.004 194.911 38.06 194.751 38.084C194.679 38.092 194.603 38.096 194.523 38.096C194.443 38.104 194.367 38.108 194.295 38.108ZM198.564 38.108C197.972 38.108 197.46 37.984 197.028 37.736C196.604 37.488 196.272 37.136 196.032 36.68C195.792 36.224 195.672 35.688 195.672 35.072C195.672 34.6 195.74 34.18 195.876 33.812C196.012 33.444 196.204 33.128 196.452 32.864C196.708 32.592 197.012 32.388 197.364 32.252C197.724 32.108 198.124 32.036 198.564 32.036C199.148 32.036 199.652 32.16 200.076 32.408C200.508 32.656 200.844 33.008 201.084 33.464C201.324 33.912 201.444 34.448 201.444 35.072C201.444 35.536 201.376 35.956 201.24 36.332C201.104 36.708 200.908 37.028 200.652 37.292C200.404 37.556 200.1 37.76 199.74 37.904C199.388 38.04 198.996 38.108 198.564 38.108ZM198.564 37.172C198.892 37.172 199.18 37.092 199.428 36.932C199.676 36.772 199.868 36.536 200.004 36.224C200.148 35.912 200.22 35.528 200.22 35.072C200.22 34.384 200.068 33.864 199.764 33.512C199.46 33.16 199.06 32.984 198.564 32.984C198.228 32.984 197.936 33.064 197.688 33.224C197.44 33.376 197.244 33.608 197.1 33.92C196.964 34.232 196.896 34.616 196.896 35.072C196.896 35.752 197.048 36.272 197.352 36.632C197.656 36.992 198.06 37.172 198.564 37.172ZM204.08 40.244C203.936 40.244 203.816 40.204 203.72 40.124C203.632 40.052 203.58 39.952 203.564 39.824C203.556 39.704 203.58 39.572 203.636 39.428L204.452 37.592V38.108L202.208 32.888C202.152 32.744 202.132 32.608 202.148 32.48C202.164 32.352 202.224 32.252 202.328 32.18C202.432 32.1 202.572 32.06 202.748 32.06C202.9 32.06 203.02 32.096 203.108 32.168C203.196 32.24 203.276 32.364 203.348 32.54L205.16 37.016H204.824L206.66 32.54C206.732 32.356 206.816 32.232 206.912 32.168C207.008 32.096 207.14 32.06 207.308 32.06C207.452 32.06 207.564 32.1 207.644 32.18C207.732 32.252 207.784 32.352 207.8 32.48C207.824 32.6 207.804 32.732 207.74 32.876L204.74 39.776C204.66 39.96 204.568 40.084 204.464 40.148C204.368 40.212 204.24 40.244 204.08 40.244ZM211.577 38.108C210.937 38.108 210.385 37.988 209.921 37.748C209.465 37.5 209.109 37.152 208.853 36.704C208.605 36.248 208.481 35.708 208.481 35.084C208.481 34.476 208.605 33.944 208.853 33.488C209.101 33.032 209.441 32.676 209.873 32.42C210.305 32.164 210.797 32.036 211.349 32.036C211.757 32.036 212.121 32.104 212.441 32.24C212.761 32.368 213.033 32.56 213.257 32.816C213.489 33.064 213.661 33.368 213.773 33.728C213.893 34.088 213.953 34.492 213.953 34.94C213.953 35.076 213.913 35.18 213.833 35.252C213.753 35.316 213.633 35.348 213.473 35.348H209.441V34.604H213.137L212.933 34.772C212.933 34.372 212.873 34.032 212.753 33.752C212.641 33.472 212.469 33.26 212.237 33.116C212.013 32.964 211.733 32.888 211.397 32.888C211.021 32.888 210.701 32.976 210.437 33.152C210.181 33.328 209.985 33.572 209.849 33.884C209.713 34.196 209.645 34.56 209.645 34.976V35.048C209.645 35.752 209.809 36.284 210.137 36.644C210.473 36.996 210.957 37.172 211.589 37.172C211.829 37.172 212.081 37.14 212.345 37.076C212.617 37.012 212.873 36.904 213.113 36.752C213.249 36.672 213.369 36.636 213.473 36.644C213.585 36.652 213.673 36.688 213.737 36.752C213.809 36.816 213.853 36.896 213.869 36.992C213.885 37.088 213.869 37.188 213.821 37.292C213.773 37.388 213.689 37.476 213.569 37.556C213.297 37.74 212.981 37.88 212.621 37.976C212.261 38.064 211.913 38.108 211.577 38.108ZM218.022 38.108C217.382 38.108 216.83 37.988 216.366 37.748C215.91 37.5 215.554 37.152 215.298 36.704C215.05 36.248 214.926 35.708 214.926 35.084C214.926 34.476 215.05 33.944 215.298 33.488C215.546 33.032 215.886 32.676 216.318 32.42C216.75 32.164 217.242 32.036 217.794 32.036C218.202 32.036 218.566 32.104 218.886 32.24C219.206 32.368 219.478 32.56 219.702 32.816C219.934 33.064 220.106 33.368 220.218 33.728C220.338 34.088 220.398 34.492 220.398 34.94C220.398 35.076 220.358 35.18 220.278 35.252C220.198 35.316 220.078 35.348 219.918 35.348H215.886V34.604H219.582L219.378 34.772C219.378 34.372 219.318 34.032 219.198 33.752C219.086 33.472 218.914 33.26 218.682 33.116C218.458 32.964 218.178 32.888 217.842 32.888C217.466 32.888 217.146 32.976 216.882 33.152C216.626 33.328 216.43 33.572 216.294 33.884C216.158 34.196 216.09 34.56 216.09 34.976V35.048C216.09 35.752 216.254 36.284 216.582 36.644C216.918 36.996 217.402 37.172 218.034 37.172C218.274 37.172 218.526 37.14 218.79 37.076C219.062 37.012 219.318 36.904 219.558 36.752C219.694 36.672 219.814 36.636 219.918 36.644C220.03 36.652 220.118 36.688 220.182 36.752C220.254 36.816 220.298 36.896 220.314 36.992C220.33 37.088 220.314 37.188 220.266 37.292C220.218 37.388 220.134 37.476 220.014 37.556C219.742 37.74 219.426 37.88 219.066 37.976C218.706 38.064 218.358 38.108 218.022 38.108ZM223.771 38.108C223.419 38.108 223.055 38.068 222.679 37.988C222.311 37.908 221.971 37.772 221.659 37.58C221.555 37.508 221.483 37.428 221.443 37.34C221.403 37.252 221.387 37.164 221.395 37.076C221.411 36.98 221.447 36.9 221.503 36.836C221.567 36.764 221.643 36.72 221.731 36.704C221.827 36.688 221.927 36.708 222.031 36.764C222.343 36.94 222.643 37.064 222.931 37.136C223.219 37.2 223.503 37.232 223.783 37.232C224.207 37.232 224.527 37.156 224.743 37.004C224.959 36.852 225.067 36.648 225.067 36.392C225.067 36.184 224.995 36.024 224.851 35.912C224.707 35.792 224.491 35.7 224.203 35.636L223.063 35.408C222.567 35.304 222.191 35.12 221.935 34.856C221.679 34.592 221.551 34.256 221.551 33.848C221.551 33.48 221.651 33.16 221.851 32.888C222.051 32.616 222.331 32.408 222.691 32.264C223.051 32.112 223.467 32.036 223.939 32.036C224.291 32.036 224.623 32.08 224.935 32.168C225.247 32.256 225.535 32.388 225.799 32.564C225.903 32.62 225.971 32.696 226.003 32.792C226.035 32.88 226.039 32.968 226.015 33.056C225.999 33.144 225.959 33.224 225.895 33.296C225.831 33.36 225.751 33.4 225.655 33.416C225.567 33.424 225.467 33.4 225.355 33.344C225.115 33.192 224.875 33.084 224.635 33.02C224.403 32.956 224.171 32.924 223.939 32.924C223.515 32.924 223.195 33.004 222.979 33.164C222.771 33.316 222.667 33.524 222.667 33.788C222.667 33.988 222.731 34.152 222.859 34.28C222.987 34.408 223.187 34.5 223.459 34.556L224.599 34.784C225.119 34.888 225.511 35.064 225.775 35.312C226.047 35.56 226.183 35.896 226.183 36.32C226.183 36.872 225.963 37.308 225.523 37.628C225.083 37.948 224.499 38.108 223.771 38.108ZM38.776 56.108C37.92 56.108 37.188 55.932 36.58 55.58C35.972 55.228 35.504 54.728 35.176 54.08C34.856 53.424 34.696 52.652 34.696 51.764C34.696 51.1 34.788 50.504 34.972 49.976C35.156 49.44 35.42 48.984 35.764 48.608C36.116 48.224 36.544 47.932 37.048 47.732C37.56 47.532 38.136 47.432 38.776 47.432C39.248 47.432 39.7 47.496 40.132 47.624C40.572 47.752 40.952 47.936 41.272 48.176C41.408 48.264 41.496 48.372 41.536 48.5C41.584 48.62 41.592 48.736 41.56 48.848C41.536 48.96 41.484 49.056 41.404 49.136C41.324 49.208 41.22 49.248 41.092 49.256C40.972 49.264 40.84 49.22 40.696 49.124C40.432 48.924 40.14 48.776 39.82 48.68C39.5 48.584 39.164 48.536 38.812 48.536C38.204 48.536 37.692 48.664 37.276 48.92C36.86 49.168 36.544 49.532 36.328 50.012C36.112 50.492 36.004 51.076 36.004 51.764C36.004 52.452 36.112 53.04 36.328 53.528C36.544 54.008 36.86 54.376 37.276 54.632C37.692 54.88 38.204 55.004 38.812 55.004C39.164 55.004 39.5 54.956 39.82 54.86C40.148 54.756 40.456 54.604 40.744 54.404C40.888 54.316 41.016 54.276 41.128 54.284C41.248 54.292 41.348 54.332 41.428 54.404C41.508 54.476 41.56 54.568 41.584 54.68C41.616 54.784 41.612 54.896 41.572 55.016C41.54 55.128 41.464 55.224 41.344 55.304C41.016 55.568 40.628 55.768 40.18 55.904C39.732 56.04 39.264 56.108 38.776 56.108ZM45.0835 56.108C44.4915 56.108 43.9795 55.984 43.5475 55.736C43.1235 55.488 42.7915 55.136 42.5515 54.68C42.3115 54.224 42.1915 53.688 42.1915 53.072C42.1915 52.6 42.2595 52.18 42.3955 51.812C42.5315 51.444 42.7235 51.128 42.9715 50.864C43.2275 50.592 43.5315 50.388 43.8835 50.252C44.2435 50.108 44.6435 50.036 45.0835 50.036C45.6675 50.036 46.1715 50.16 46.5955 50.408C47.0275 50.656 47.3635 51.008 47.6035 51.464C47.8435 51.912 47.9635 52.448 47.9635 53.072C47.9635 53.536 47.8955 53.956 47.7595 54.332C47.6235 54.708 47.4275 55.028 47.1715 55.292C46.9235 55.556 46.6195 55.76 46.2595 55.904C45.9075 56.04 45.5155 56.108 45.0835 56.108ZM45.0835 55.172C45.4115 55.172 45.6995 55.092 45.9475 54.932C46.1955 54.772 46.3875 54.536 46.5235 54.224C46.6675 53.912 46.7395 53.528 46.7395 53.072C46.7395 52.384 46.5875 51.864 46.2835 51.512C45.9795 51.16 45.5795 50.984 45.0835 50.984C44.7475 50.984 44.4555 51.064 44.2075 51.224C43.9595 51.376 43.7635 51.608 43.6195 51.92C43.4835 52.232 43.4155 52.616 43.4155 53.072C43.4155 53.752 43.5675 54.272 43.8715 54.632C44.1755 54.992 44.5795 55.172 45.0835 55.172ZM49.9247 56.084C49.7327 56.084 49.5847 56.032 49.4807 55.928C49.3767 55.816 49.3247 55.664 49.3247 55.472V50.672C49.3247 50.472 49.3767 50.32 49.4807 50.216C49.5847 50.112 49.7287 50.06 49.9127 50.06C50.1047 50.06 50.2487 50.112 50.3447 50.216C50.4487 50.32 50.5007 50.472 50.5007 50.672V51.608L50.3687 51.392C50.5447 50.944 50.8207 50.608 51.1967 50.384C51.5727 50.152 52.0047 50.036 52.4927 50.036C52.9567 50.036 53.3407 50.124 53.6447 50.3C53.9567 50.468 54.1887 50.728 54.3407 51.08C54.4927 51.424 54.5687 51.86 54.5687 52.388V55.472C54.5687 55.664 54.5167 55.816 54.4127 55.928C54.3087 56.032 54.1607 56.084 53.9687 56.084C53.7687 56.084 53.6167 56.032 53.5127 55.928C53.4087 55.816 53.3567 55.664 53.3567 55.472V52.46C53.3567 51.956 53.2567 51.588 53.0567 51.356C52.8647 51.124 52.5607 51.008 52.1447 51.008C51.6567 51.008 51.2647 51.16 50.9687 51.464C50.6807 51.768 50.5367 52.176 50.5367 52.688V55.472C50.5367 55.88 50.3327 56.084 49.9247 56.084ZM57.1987 56.084C57.0067 56.084 56.8547 56.032 56.7427 55.928C56.6387 55.816 56.5867 55.664 56.5867 55.472V51.08H55.9147C55.7627 51.08 55.6427 51.04 55.5547 50.96C55.4667 50.872 55.4227 50.756 55.4227 50.612C55.4227 50.46 55.4667 50.344 55.5547 50.264C55.6427 50.184 55.7627 50.144 55.9147 50.144H56.9347L56.5867 50.468V50.036C56.5867 49.26 56.7787 48.668 57.1627 48.26C57.5467 47.852 58.1107 47.612 58.8547 47.54L59.2147 47.516C59.3587 47.5 59.4747 47.52 59.5627 47.576C59.6507 47.624 59.7107 47.696 59.7427 47.792C59.7747 47.88 59.7787 47.972 59.7547 48.068C59.7307 48.164 59.6867 48.248 59.6227 48.32C59.5667 48.384 59.4947 48.42 59.4067 48.428L59.0827 48.452C58.6347 48.484 58.3067 48.616 58.0987 48.848C57.8987 49.08 57.7987 49.42 57.7987 49.868V50.336L57.6307 50.144H60.9187C61.1187 50.144 61.2707 50.204 61.3747 50.324C61.4787 50.436 61.5307 50.592 61.5307 50.792V55.412C61.5307 55.62 61.4787 55.784 61.3747 55.904C61.2787 56.016 61.1267 56.072 60.9187 56.072C60.7267 56.072 60.5787 56.016 60.4747 55.904C60.3707 55.784 60.3187 55.62 60.3187 55.412V51.08H57.7987V55.472C57.7987 55.88 57.5987 56.084 57.1987 56.084ZM60.9427 48.836C60.7107 48.836 60.5307 48.776 60.4027 48.656C60.2747 48.536 60.2107 48.368 60.2107 48.152C60.2107 47.928 60.2747 47.76 60.4027 47.648C60.5307 47.528 60.7107 47.468 60.9427 47.468C61.1827 47.468 61.3627 47.528 61.4827 47.648C61.6107 47.76 61.6747 47.928 61.6747 48.152C61.6747 48.368 61.6107 48.536 61.4827 48.656C61.3627 48.776 61.1827 48.836 60.9427 48.836ZM63.8351 56.084C63.6351 56.084 63.4831 56.032 63.3791 55.928C63.2751 55.816 63.2231 55.664 63.2231 55.472V50.672C63.2231 50.472 63.2751 50.32 63.3791 50.216C63.4831 50.112 63.6271 50.06 63.8111 50.06C64.0031 50.06 64.1471 50.112 64.2431 50.216C64.3471 50.32 64.3991 50.472 64.3991 50.672V51.548H64.2791C64.4071 51.068 64.6431 50.704 64.9871 50.456C65.3311 50.208 65.7711 50.064 66.3071 50.024C66.4511 50.016 66.5631 50.052 66.6431 50.132C66.7311 50.212 66.7791 50.336 66.7871 50.504C66.8031 50.672 66.7671 50.808 66.6791 50.912C66.5911 51.008 66.4551 51.064 66.2711 51.08L66.0431 51.104C65.5231 51.152 65.1271 51.316 64.8551 51.596C64.5831 51.876 64.4471 52.26 64.4471 52.748V55.472C64.4471 55.664 64.3951 55.816 64.2911 55.928C64.1951 56.032 64.0431 56.084 63.8351 56.084ZM68.3237 56.084C68.1317 56.084 67.9837 56.032 67.8797 55.928C67.7757 55.816 67.7237 55.664 67.7237 55.472V50.672C67.7237 50.472 67.7757 50.32 67.8797 50.216C67.9837 50.112 68.1277 50.06 68.3117 50.06C68.5037 50.06 68.6477 50.112 68.7437 50.216C68.8477 50.32 68.8997 50.472 68.8997 50.672V51.656L68.7677 51.392C68.9277 50.968 69.1757 50.636 69.5117 50.396C69.8477 50.156 70.2517 50.036 70.7237 50.036C71.2117 50.036 71.6077 50.152 71.9117 50.384C72.2157 50.616 72.4237 50.972 72.5357 51.452H72.3677C72.5197 51.012 72.7797 50.668 73.1477 50.42C73.5157 50.164 73.9437 50.036 74.4317 50.036C74.8797 50.036 75.2477 50.124 75.5357 50.3C75.8237 50.468 76.0397 50.728 76.1837 51.08C76.3277 51.424 76.3997 51.86 76.3997 52.388V55.472C76.3997 55.664 76.3437 55.816 76.2317 55.928C76.1277 56.032 75.9797 56.084 75.7877 56.084C75.5957 56.084 75.4477 56.032 75.3437 55.928C75.2397 55.816 75.1877 55.664 75.1877 55.472V52.448C75.1877 51.952 75.0997 51.588 74.9237 51.356C74.7557 51.124 74.4757 51.008 74.0837 51.008C73.6437 51.008 73.2957 51.16 73.0397 51.464C72.7837 51.768 72.6557 52.188 72.6557 52.724V55.472C72.6557 55.664 72.6037 55.816 72.4997 55.928C72.3957 56.032 72.2477 56.084 72.0557 56.084C71.8637 56.084 71.7117 56.032 71.5997 55.928C71.4957 55.816 71.4437 55.664 71.4437 55.472V52.448C71.4437 51.952 71.3597 51.588 71.1917 51.356C71.0237 51.124 70.7437 51.008 70.3517 51.008C69.9117 51.008 69.5637 51.16 69.3077 51.464C69.0597 51.768 68.9357 52.188 68.9357 52.724V55.472C68.9357 55.88 68.7317 56.084 68.3237 56.084ZM83.7543 56.108C83.2743 56.108 82.8703 56.024 82.5423 55.856C82.2143 55.688 81.9703 55.44 81.8103 55.112C81.6503 54.784 81.5703 54.384 81.5703 53.912V51.08H80.8503C80.6903 51.08 80.5663 51.04 80.4783 50.96C80.3902 50.872 80.3462 50.756 80.3462 50.612C80.3462 50.46 80.3902 50.344 80.4783 50.264C80.5663 50.184 80.6903 50.144 80.8503 50.144H81.5703V48.908C81.5703 48.708 81.6223 48.556 81.7263 48.452C81.8383 48.348 81.9903 48.296 82.1823 48.296C82.3743 48.296 82.5223 48.348 82.6263 48.452C82.7303 48.556 82.7823 48.708 82.7823 48.908V50.144H84.1863C84.3463 50.144 84.4703 50.184 84.5583 50.264C84.6463 50.344 84.6903 50.46 84.6903 50.612C84.6903 50.756 84.6463 50.872 84.5583 50.96C84.4703 51.04 84.3463 51.08 84.1863 51.08H82.7823V53.816C82.7823 54.24 82.8703 54.56 83.0463 54.776C83.2303 54.992 83.5263 55.1 83.9342 55.1C84.0783 55.1 84.2023 55.088 84.3063 55.064C84.4183 55.032 84.5103 55.012 84.5823 55.004C84.6703 55.004 84.7423 55.036 84.7983 55.1C84.8543 55.156 84.8823 55.268 84.8823 55.436C84.8823 55.556 84.8583 55.668 84.8103 55.772C84.7703 55.876 84.6943 55.944 84.5823 55.976C84.4863 56.008 84.3543 56.036 84.1863 56.06C84.0263 56.092 83.8823 56.108 83.7543 56.108ZM88.1265 56.108C87.5345 56.108 87.0225 55.984 86.5905 55.736C86.1665 55.488 85.8345 55.136 85.5945 54.68C85.3545 54.224 85.2345 53.688 85.2345 53.072C85.2345 52.6 85.3025 52.18 85.4385 51.812C85.5745 51.444 85.7665 51.128 86.0145 50.864C86.2705 50.592 86.5745 50.388 86.9265 50.252C87.2865 50.108 87.6865 50.036 88.1265 50.036C88.7105 50.036 89.2145 50.16 89.6385 50.408C90.0705 50.656 90.4065 51.008 90.6465 51.464C90.8865 51.912 91.0065 52.448 91.0065 53.072C91.0065 53.536 90.9385 53.956 90.8025 54.332C90.6665 54.708 90.4705 55.028 90.2145 55.292C89.9665 55.556 89.6625 55.76 89.3025 55.904C88.9505 56.04 88.5585 56.108 88.1265 56.108ZM88.1265 55.172C88.4545 55.172 88.7425 55.092 88.9905 54.932C89.2385 54.772 89.4305 54.536 89.5665 54.224C89.7105 53.912 89.7825 53.528 89.7825 53.072C89.7825 52.384 89.6305 51.864 89.3265 51.512C89.0225 51.16 88.6225 50.984 88.1265 50.984C87.7905 50.984 87.4985 51.064 87.2505 51.224C87.0025 51.376 86.8065 51.608 86.6625 51.92C86.5265 52.232 86.4585 52.616 86.4585 53.072C86.4585 53.752 86.6105 54.272 86.9145 54.632C87.2185 54.992 87.6225 55.172 88.1265 55.172ZM97.5837 56.108C97.2317 56.108 96.8677 56.068 96.4917 55.988C96.1237 55.908 95.7837 55.772 95.4717 55.58C95.3677 55.508 95.2957 55.428 95.2557 55.34C95.2157 55.252 95.1997 55.164 95.2077 55.076C95.2237 54.98 95.2597 54.9 95.3157 54.836C95.3797 54.764 95.4557 54.72 95.5437 54.704C95.6397 54.688 95.7397 54.708 95.8437 54.764C96.1557 54.94 96.4557 55.064 96.7437 55.136C97.0317 55.2 97.3157 55.232 97.5957 55.232C98.0197 55.232 98.3397 55.156 98.5557 55.004C98.7717 54.852 98.8797 54.648 98.8797 54.392C98.8797 54.184 98.8077 54.024 98.6637 53.912C98.5197 53.792 98.3037 53.7 98.0157 53.636L96.8757 53.408C96.3797 53.304 96.0037 53.12 95.7477 52.856C95.4917 52.592 95.3637 52.256 95.3637 51.848C95.3637 51.48 95.4637 51.16 95.6637 50.888C95.8637 50.616 96.1437 50.408 96.5037 50.264C96.8637 50.112 97.2797 50.036 97.7517 50.036C98.1037 50.036 98.4357 50.08 98.7477 50.168C99.0597 50.256 99.3477 50.388 99.6117 50.564C99.7157 50.62 99.7837 50.696 99.8157 50.792C99.8477 50.88 99.8517 50.968 99.8277 51.056C99.8117 51.144 99.7717 51.224 99.7077 51.296C99.6437 51.36 99.5637 51.4 99.4677 51.416C99.3797 51.424 99.2797 51.4 99.1677 51.344C98.9277 51.192 98.6877 51.084 98.4477 51.02C98.2157 50.956 97.9837 50.924 97.7517 50.924C97.3277 50.924 97.0077 51.004 96.7917 51.164C96.5837 51.316 96.4797 51.524 96.4797 51.788C96.4797 51.988 96.5437 52.152 96.6717 52.28C96.7997 52.408 96.9997 52.5 97.2717 52.556L98.4117 52.784C98.9317 52.888 99.3237 53.064 99.5877 53.312C99.8597 53.56 99.9957 53.896 99.9957 54.32C99.9957 54.872 99.7757 55.308 99.3357 55.628C98.8957 55.948 98.3117 56.108 97.5837 56.108ZM104.092 56.108C103.452 56.108 102.9 55.988 102.436 55.748C101.98 55.5 101.624 55.152 101.368 54.704C101.12 54.248 100.996 53.708 100.996 53.084C100.996 52.476 101.12 51.944 101.368 51.488C101.616 51.032 101.956 50.676 102.388 50.42C102.82 50.164 103.312 50.036 103.864 50.036C104.272 50.036 104.636 50.104 104.956 50.24C105.276 50.368 105.548 50.56 105.772 50.816C106.004 51.064 106.176 51.368 106.288 51.728C106.408 52.088 106.468 52.492 106.468 52.94C106.468 53.076 106.428 53.18 106.348 53.252C106.268 53.316 106.148 53.348 105.988 53.348H101.956V52.604H105.652L105.448 52.772C105.448 52.372 105.388 52.032 105.268 51.752C105.156 51.472 104.984 51.26 104.752 51.116C104.528 50.964 104.248 50.888 103.912 50.888C103.536 50.888 103.216 50.976 102.952 51.152C102.696 51.328 102.5 51.572 102.364 51.884C102.228 52.196 102.16 52.56 102.16 52.976V53.048C102.16 53.752 102.324 54.284 102.652 54.644C102.988 54.996 103.472 55.172 104.104 55.172C104.344 55.172 104.596 55.14 104.86 55.076C105.132 55.012 105.388 54.904 105.628 54.752C105.764 54.672 105.884 54.636 105.988 54.644C106.1 54.652 106.188 54.688 106.252 54.752C106.324 54.816 106.368 54.896 106.384 54.992C106.4 55.088 106.384 55.188 106.336 55.292C106.288 55.388 106.204 55.476 106.084 55.556C105.812 55.74 105.496 55.88 105.136 55.976C104.776 56.064 104.428 56.108 104.092 56.108ZM108.39 56.084C108.198 56.084 108.05 56.032 107.946 55.928C107.842 55.816 107.79 55.664 107.79 55.472V50.672C107.79 50.472 107.842 50.32 107.946 50.216C108.05 50.112 108.194 50.06 108.378 50.06C108.57 50.06 108.714 50.112 108.81 50.216C108.914 50.32 108.966 50.472 108.966 50.672V51.608L108.834 51.392C109.01 50.944 109.286 50.608 109.662 50.384C110.038 50.152 110.47 50.036 110.958 50.036C111.422 50.036 111.806 50.124 112.11 50.3C112.422 50.468 112.654 50.728 112.806 51.08C112.958 51.424 113.034 51.86 113.034 52.388V55.472C113.034 55.664 112.982 55.816 112.878 55.928C112.774 56.032 112.626 56.084 112.434 56.084C112.234 56.084 112.082 56.032 111.978 55.928C111.874 55.816 111.822 55.664 111.822 55.472V52.46C111.822 51.956 111.722 51.588 111.522 51.356C111.33 51.124 111.026 51.008 110.61 51.008C110.122 51.008 109.73 51.16 109.434 51.464C109.146 51.768 109.002 52.176 109.002 52.688V55.472C109.002 55.88 108.798 56.084 108.39 56.084ZM116.936 56.108C116.424 56.108 115.972 55.988 115.58 55.748C115.196 55.5 114.896 55.148 114.68 54.692C114.464 54.228 114.356 53.688 114.356 53.072C114.356 52.44 114.464 51.9 114.68 51.452C114.896 51.004 115.196 50.656 115.58 50.408C115.972 50.16 116.424 50.036 116.936 50.036C117.448 50.036 117.888 50.164 118.256 50.42C118.632 50.668 118.884 51.004 119.012 51.428H118.88V48.068C118.88 47.868 118.932 47.716 119.036 47.612C119.14 47.508 119.288 47.456 119.48 47.456C119.672 47.456 119.82 47.508 119.924 47.612C120.036 47.716 120.092 47.868 120.092 48.068V55.472C120.092 55.664 120.04 55.816 119.936 55.928C119.832 56.032 119.684 56.084 119.492 56.084C119.3 56.084 119.152 56.032 119.048 55.928C118.944 55.816 118.892 55.664 118.892 55.472V54.416L119.024 54.68C118.896 55.112 118.644 55.46 118.268 55.724C117.9 55.98 117.456 56.108 116.936 56.108ZM117.248 55.172C117.576 55.172 117.864 55.092 118.112 54.932C118.36 54.772 118.552 54.536 118.688 54.224C118.832 53.912 118.904 53.528 118.904 53.072C118.904 52.384 118.752 51.864 118.448 51.512C118.144 51.16 117.744 50.984 117.248 50.984C116.912 50.984 116.62 51.064 116.372 51.224C116.124 51.376 115.928 51.608 115.784 51.92C115.648 52.232 115.58 52.616 115.58 53.072C115.58 53.752 115.732 54.272 116.036 54.632C116.34 54.992 116.744 55.172 117.248 55.172ZM126.829 56.108C126.421 56.108 126.053 56.028 125.725 55.868C125.405 55.708 125.153 55.492 124.969 55.22C124.785 54.948 124.693 54.64 124.693 54.296C124.693 53.864 124.801 53.524 125.017 53.276C125.241 53.02 125.605 52.84 126.109 52.736C126.621 52.624 127.309 52.568 128.173 52.568H128.737V53.312H128.185C127.609 53.312 127.153 53.34 126.817 53.396C126.481 53.452 126.241 53.548 126.097 53.684C125.961 53.812 125.893 53.992 125.893 54.224C125.893 54.528 125.997 54.776 126.205 54.968C126.413 55.152 126.701 55.244 127.069 55.244C127.365 55.244 127.625 55.176 127.849 55.04C128.073 54.896 128.249 54.704 128.377 54.464C128.513 54.224 128.581 53.948 128.581 53.636V52.256C128.581 51.8 128.485 51.472 128.293 51.272C128.101 51.072 127.785 50.972 127.345 50.972C127.089 50.972 126.821 51.004 126.541 51.068C126.269 51.132 125.985 51.24 125.689 51.392C125.553 51.456 125.437 51.476 125.341 51.452C125.245 51.428 125.169 51.376 125.113 51.296C125.057 51.208 125.025 51.116 125.017 51.02C125.017 50.916 125.041 50.816 125.089 50.72C125.145 50.624 125.237 50.552 125.365 50.504C125.717 50.336 126.065 50.216 126.409 50.144C126.753 50.072 127.077 50.036 127.381 50.036C127.917 50.036 128.357 50.12 128.701 50.288C129.053 50.456 129.313 50.712 129.481 51.056C129.649 51.4 129.733 51.844 129.733 52.388V55.472C129.733 55.664 129.685 55.816 129.589 55.928C129.493 56.032 129.353 56.084 129.169 56.084C128.993 56.084 128.853 56.032 128.749 55.928C128.645 55.816 128.593 55.664 128.593 55.472V54.692H128.701C128.637 54.988 128.517 55.244 128.341 55.46C128.173 55.668 127.961 55.828 127.705 55.94C127.449 56.052 127.157 56.108 126.829 56.108ZM132.003 56.084C131.811 56.084 131.663 56.032 131.559 55.928C131.455 55.816 131.403 55.664 131.403 55.472V50.672C131.403 50.472 131.455 50.32 131.559 50.216C131.663 50.112 131.807 50.06 131.991 50.06C132.183 50.06 132.327 50.112 132.423 50.216C132.527 50.32 132.579 50.472 132.579 50.672V51.608L132.447 51.392C132.623 50.944 132.899 50.608 133.275 50.384C133.651 50.152 134.083 50.036 134.571 50.036C135.035 50.036 135.419 50.124 135.723 50.3C136.035 50.468 136.267 50.728 136.419 51.08C136.571 51.424 136.647 51.86 136.647 52.388V55.472C136.647 55.664 136.595 55.816 136.491 55.928C136.387 56.032 136.239 56.084 136.047 56.084C135.847 56.084 135.695 56.032 135.591 55.928C135.487 55.816 135.435 55.664 135.435 55.472V52.46C135.435 51.956 135.335 51.588 135.135 51.356C134.943 51.124 134.639 51.008 134.223 51.008C133.735 51.008 133.343 51.16 133.047 51.464C132.759 51.768 132.615 52.176 132.615 52.688V55.472C132.615 55.88 132.411 56.084 132.003 56.084ZM140.549 56.108C140.037 56.108 139.585 55.988 139.193 55.748C138.809 55.5 138.509 55.148 138.293 54.692C138.077 54.228 137.969 53.688 137.969 53.072C137.969 52.44 138.077 51.9 138.293 51.452C138.509 51.004 138.809 50.656 139.193 50.408C139.585 50.16 140.037 50.036 140.549 50.036C141.061 50.036 141.501 50.164 141.869 50.42C142.245 50.668 142.497 51.004 142.625 51.428H142.493V48.068C142.493 47.868 142.545 47.716 142.649 47.612C142.753 47.508 142.901 47.456 143.093 47.456C143.285 47.456 143.433 47.508 143.537 47.612C143.649 47.716 143.705 47.868 143.705 48.068V55.472C143.705 55.664 143.653 55.816 143.549 55.928C143.445 56.032 143.297 56.084 143.105 56.084C142.913 56.084 142.765 56.032 142.661 55.928C142.557 55.816 142.505 55.664 142.505 55.472V54.416L142.637 54.68C142.509 55.112 142.257 55.46 141.881 55.724C141.513 55.98 141.069 56.108 140.549 56.108ZM140.861 55.172C141.189 55.172 141.477 55.092 141.725 54.932C141.973 54.772 142.165 54.536 142.301 54.224C142.445 53.912 142.517 53.528 142.517 53.072C142.517 52.384 142.365 51.864 142.061 51.512C141.757 51.16 141.357 50.984 140.861 50.984C140.525 50.984 140.233 51.064 139.985 51.224C139.737 51.376 139.541 51.608 139.397 51.92C139.261 52.232 139.193 52.616 139.193 53.072C139.193 53.752 139.345 54.272 139.649 54.632C139.953 54.992 140.357 55.172 140.861 55.172ZM150.623 56.108C150.271 56.108 149.907 56.068 149.531 55.988C149.163 55.908 148.823 55.772 148.511 55.58C148.407 55.508 148.335 55.428 148.295 55.34C148.255 55.252 148.239 55.164 148.247 55.076C148.263 54.98 148.299 54.9 148.355 54.836C148.419 54.764 148.495 54.72 148.583 54.704C148.679 54.688 148.779 54.708 148.883 54.764C149.195 54.94 149.495 55.064 149.783 55.136C150.071 55.2 150.355 55.232 150.635 55.232C151.059 55.232 151.379 55.156 151.595 55.004C151.811 54.852 151.919 54.648 151.919 54.392C151.919 54.184 151.847 54.024 151.703 53.912C151.559 53.792 151.343 53.7 151.055 53.636L149.915 53.408C149.419 53.304 149.043 53.12 148.787 52.856C148.531 52.592 148.403 52.256 148.403 51.848C148.403 51.48 148.503 51.16 148.703 50.888C148.903 50.616 149.183 50.408 149.543 50.264C149.903 50.112 150.319 50.036 150.791 50.036C151.143 50.036 151.475 50.08 151.787 50.168C152.099 50.256 152.387 50.388 152.651 50.564C152.755 50.62 152.823 50.696 152.855 50.792C152.887 50.88 152.891 50.968 152.867 51.056C152.851 51.144 152.811 51.224 152.747 51.296C152.683 51.36 152.603 51.4 152.507 51.416C152.419 51.424 152.319 51.4 152.207 51.344C151.967 51.192 151.727 51.084 151.487 51.02C151.255 50.956 151.023 50.924 150.791 50.924C150.367 50.924 150.047 51.004 149.831 51.164C149.623 51.316 149.519 51.524 149.519 51.788C149.519 51.988 149.583 52.152 149.711 52.28C149.839 52.408 150.039 52.5 150.311 52.556L151.451 52.784C151.971 52.888 152.363 53.064 152.627 53.312C152.899 53.56 153.035 53.896 153.035 54.32C153.035 54.872 152.815 55.308 152.375 55.628C151.935 55.948 151.351 56.108 150.623 56.108ZM157.131 56.108C156.491 56.108 155.939 55.988 155.475 55.748C155.019 55.5 154.663 55.152 154.407 54.704C154.159 54.248 154.035 53.708 154.035 53.084C154.035 52.476 154.159 51.944 154.407 51.488C154.655 51.032 154.995 50.676 155.427 50.42C155.859 50.164 156.351 50.036 156.903 50.036C157.311 50.036 157.675 50.104 157.995 50.24C158.315 50.368 158.587 50.56 158.811 50.816C159.043 51.064 159.215 51.368 159.327 51.728C159.447 52.088 159.507 52.492 159.507 52.94C159.507 53.076 159.467 53.18 159.387 53.252C159.307 53.316 159.187 53.348 159.027 53.348H154.995V52.604H158.691L158.487 52.772C158.487 52.372 158.427 52.032 158.307 51.752C158.195 51.472 158.023 51.26 157.791 51.116C157.567 50.964 157.287 50.888 156.951 50.888C156.575 50.888 156.255 50.976 155.991 51.152C155.735 51.328 155.539 51.572 155.403 51.884C155.267 52.196 155.199 52.56 155.199 52.976V53.048C155.199 53.752 155.363 54.284 155.691 54.644C156.027 54.996 156.511 55.172 157.143 55.172C157.383 55.172 157.635 55.14 157.899 55.076C158.171 55.012 158.427 54.904 158.667 54.752C158.803 54.672 158.923 54.636 159.027 54.644C159.139 54.652 159.227 54.688 159.291 54.752C159.363 54.816 159.407 54.896 159.423 54.992C159.439 55.088 159.423 55.188 159.375 55.292C159.327 55.388 159.243 55.476 159.123 55.556C158.851 55.74 158.535 55.88 158.175 55.976C157.815 56.064 157.467 56.108 157.131 56.108ZM163.313 56.108C162.833 56.108 162.429 56.024 162.101 55.856C161.773 55.688 161.529 55.44 161.369 55.112C161.209 54.784 161.129 54.384 161.129 53.912V51.08H160.409C160.249 51.08 160.125 51.04 160.037 50.96C159.949 50.872 159.905 50.756 159.905 50.612C159.905 50.46 159.949 50.344 160.037 50.264C160.125 50.184 160.249 50.144 160.409 50.144H161.129V48.908C161.129 48.708 161.181 48.556 161.285 48.452C161.397 48.348 161.549 48.296 161.741 48.296C161.933 48.296 162.081 48.348 162.185 48.452C162.289 48.556 162.341 48.708 162.341 48.908V50.144H163.745C163.905 50.144 164.029 50.184 164.117 50.264C164.205 50.344 164.249 50.46 164.249 50.612C164.249 50.756 164.205 50.872 164.117 50.96C164.029 51.04 163.905 51.08 163.745 51.08H162.341V53.816C162.341 54.24 162.429 54.56 162.605 54.776C162.789 54.992 163.085 55.1 163.493 55.1C163.637 55.1 163.761 55.088 163.865 55.064C163.977 55.032 164.069 55.012 164.141 55.004C164.229 55.004 164.301 55.036 164.357 55.1C164.413 55.156 164.441 55.268 164.441 55.436C164.441 55.556 164.417 55.668 164.369 55.772C164.329 55.876 164.253 55.944 164.141 55.976C164.045 56.008 163.913 56.036 163.745 56.06C163.585 56.092 163.441 56.108 163.313 56.108ZM170.86 56.108C170.38 56.108 169.976 56.024 169.648 55.856C169.32 55.688 169.076 55.44 168.916 55.112C168.756 54.784 168.676 54.384 168.676 53.912V51.08H167.956C167.796 51.08 167.672 51.04 167.584 50.96C167.496 50.872 167.452 50.756 167.452 50.612C167.452 50.46 167.496 50.344 167.584 50.264C167.672 50.184 167.796 50.144 167.956 50.144H168.676V48.908C168.676 48.708 168.728 48.556 168.832 48.452C168.944 48.348 169.096 48.296 169.288 48.296C169.48 48.296 169.628 48.348 169.732 48.452C169.836 48.556 169.888 48.708 169.888 48.908V50.144H171.292C171.452 50.144 171.576 50.184 171.664 50.264C171.752 50.344 171.796 50.46 171.796 50.612C171.796 50.756 171.752 50.872 171.664 50.96C171.576 51.04 171.452 51.08 171.292 51.08H169.888V53.816C169.888 54.24 169.976 54.56 170.152 54.776C170.336 54.992 170.632 55.1 171.04 55.1C171.184 55.1 171.308 55.088 171.412 55.064C171.524 55.032 171.616 55.012 171.688 55.004C171.776 55.004 171.848 55.036 171.904 55.1C171.96 55.156 171.988 55.268 171.988 55.436C171.988 55.556 171.964 55.668 171.916 55.772C171.876 55.876 171.8 55.944 171.688 55.976C171.592 56.008 171.46 56.036 171.292 56.06C171.132 56.092 170.988 56.108 170.86 56.108ZM173.452 56.084C173.26 56.084 173.112 56.032 173.008 55.928C172.904 55.816 172.852 55.664 172.852 55.472V48.068C172.852 47.868 172.904 47.716 173.008 47.612C173.112 47.508 173.26 47.456 173.452 47.456C173.644 47.456 173.792 47.508 173.896 47.612C174.008 47.716 174.064 47.868 174.064 48.068V51.392H173.896C174.072 50.944 174.348 50.608 174.724 50.384C175.1 50.152 175.532 50.036 176.02 50.036C176.484 50.036 176.868 50.124 177.172 50.3C177.484 50.468 177.716 50.728 177.868 51.08C178.02 51.424 178.096 51.86 178.096 52.388V55.472C178.096 55.664 178.044 55.816 177.94 55.928C177.836 56.032 177.688 56.084 177.496 56.084C177.296 56.084 177.144 56.032 177.04 55.928C176.936 55.816 176.884 55.664 176.884 55.472V52.46C176.884 51.956 176.784 51.588 176.584 51.356C176.392 51.124 176.088 51.008 175.672 51.008C175.184 51.008 174.792 51.16 174.496 51.464C174.208 51.768 174.064 52.176 174.064 52.688V55.472C174.064 55.88 173.86 56.084 173.452 56.084ZM182.514 56.108C181.874 56.108 181.322 55.988 180.858 55.748C180.402 55.5 180.046 55.152 179.79 54.704C179.542 54.248 179.418 53.708 179.418 53.084C179.418 52.476 179.542 51.944 179.79 51.488C180.038 51.032 180.378 50.676 180.81 50.42C181.242 50.164 181.734 50.036 182.286 50.036C182.694 50.036 183.058 50.104 183.378 50.24C183.698 50.368 183.97 50.56 184.194 50.816C184.426 51.064 184.598 51.368 184.71 51.728C184.83 52.088 184.89 52.492 184.89 52.94C184.89 53.076 184.85 53.18 184.77 53.252C184.69 53.316 184.57 53.348 184.41 53.348H180.378V52.604H184.074L183.87 52.772C183.87 52.372 183.81 52.032 183.69 51.752C183.578 51.472 183.406 51.26 183.174 51.116C182.95 50.964 182.67 50.888 182.334 50.888C181.958 50.888 181.638 50.976 181.374 51.152C181.118 51.328 180.922 51.572 180.786 51.884C180.65 52.196 180.582 52.56 180.582 52.976V53.048C180.582 53.752 180.746 54.284 181.074 54.644C181.41 54.996 181.894 55.172 182.526 55.172C182.766 55.172 183.018 55.14 183.282 55.076C183.554 55.012 183.81 54.904 184.05 54.752C184.186 54.672 184.306 54.636 184.41 54.644C184.522 54.652 184.61 54.688 184.674 54.752C184.746 54.816 184.79 54.896 184.806 54.992C184.822 55.088 184.806 55.188 184.758 55.292C184.71 55.388 184.626 55.476 184.506 55.556C184.234 55.74 183.918 55.88 183.558 55.976C183.198 56.064 182.85 56.108 182.514 56.108ZM189.987 56.084C189.787 56.084 189.635 56.032 189.531 55.928C189.427 55.816 189.375 55.664 189.375 55.472V50.672C189.375 50.472 189.427 50.32 189.531 50.216C189.635 50.112 189.779 50.06 189.963 50.06C190.155 50.06 190.299 50.112 190.395 50.216C190.499 50.32 190.551 50.472 190.551 50.672V51.548H190.431C190.559 51.068 190.795 50.704 191.139 50.456C191.483 50.208 191.923 50.064 192.459 50.024C192.603 50.016 192.715 50.052 192.795 50.132C192.883 50.212 192.931 50.336 192.939 50.504C192.955 50.672 192.919 50.808 192.831 50.912C192.743 51.008 192.607 51.064 192.423 51.08L192.195 51.104C191.675 51.152 191.279 51.316 191.007 51.596C190.735 51.876 190.599 52.26 190.599 52.748V55.472C190.599 55.664 190.547 55.816 190.443 55.928C190.347 56.032 190.195 56.084 189.987 56.084ZM196.518 56.108C195.878 56.108 195.326 55.988 194.862 55.748C194.406 55.5 194.05 55.152 193.794 54.704C193.546 54.248 193.422 53.708 193.422 53.084C193.422 52.476 193.546 51.944 193.794 51.488C194.042 51.032 194.382 50.676 194.814 50.42C195.246 50.164 195.738 50.036 196.29 50.036C196.698 50.036 197.062 50.104 197.382 50.24C197.702 50.368 197.974 50.56 198.198 50.816C198.43 51.064 198.602 51.368 198.714 51.728C198.834 52.088 198.894 52.492 198.894 52.94C198.894 53.076 198.854 53.18 198.774 53.252C198.694 53.316 198.574 53.348 198.414 53.348H194.382V52.604H198.078L197.874 52.772C197.874 52.372 197.814 52.032 197.694 51.752C197.582 51.472 197.41 51.26 197.178 51.116C196.954 50.964 196.674 50.888 196.338 50.888C195.962 50.888 195.642 50.976 195.378 51.152C195.122 51.328 194.926 51.572 194.79 51.884C194.654 52.196 194.586 52.56 194.586 52.976V53.048C194.586 53.752 194.75 54.284 195.078 54.644C195.414 54.996 195.898 55.172 196.53 55.172C196.77 55.172 197.022 55.14 197.286 55.076C197.558 55.012 197.814 54.904 198.054 54.752C198.19 54.672 198.31 54.636 198.414 54.644C198.526 54.652 198.614 54.688 198.678 54.752C198.75 54.816 198.794 54.896 198.81 54.992C198.826 55.088 198.81 55.188 198.762 55.292C198.714 55.388 198.63 55.476 198.51 55.556C198.238 55.74 197.922 55.88 197.562 55.976C197.202 56.064 196.854 56.108 196.518 56.108ZM200.839 56.084C200.647 56.084 200.499 56.032 200.395 55.928C200.291 55.816 200.239 55.664 200.239 55.472V50.672C200.239 50.472 200.291 50.32 200.395 50.216C200.499 50.112 200.643 50.06 200.827 50.06C201.019 50.06 201.163 50.112 201.259 50.216C201.363 50.32 201.415 50.472 201.415 50.672V51.656L201.283 51.392C201.443 50.968 201.691 50.636 202.027 50.396C202.363 50.156 202.767 50.036 203.239 50.036C203.727 50.036 204.123 50.152 204.427 50.384C204.731 50.616 204.939 50.972 205.051 51.452H204.883C205.035 51.012 205.295 50.668 205.663 50.42C206.031 50.164 206.459 50.036 206.947 50.036C207.395 50.036 207.763 50.124 208.051 50.3C208.339 50.468 208.555 50.728 208.699 51.08C208.843 51.424 208.915 51.86 208.915 52.388V55.472C208.915 55.664 208.859 55.816 208.747 55.928C208.643 56.032 208.495 56.084 208.303 56.084C208.111 56.084 207.963 56.032 207.859 55.928C207.755 55.816 207.703 55.664 207.703 55.472V52.448C207.703 51.952 207.615 51.588 207.439 51.356C207.271 51.124 206.991 51.008 206.599 51.008C206.159 51.008 205.811 51.16 205.555 51.464C205.299 51.768 205.171 52.188 205.171 52.724V55.472C205.171 55.664 205.119 55.816 205.015 55.928C204.911 56.032 204.763 56.084 204.571 56.084C204.379 56.084 204.227 56.032 204.115 55.928C204.011 55.816 203.959 55.664 203.959 55.472V52.448C203.959 51.952 203.875 51.588 203.707 51.356C203.539 51.124 203.259 51.008 202.867 51.008C202.427 51.008 202.079 51.16 201.823 51.464C201.575 51.768 201.451 52.188 201.451 52.724V55.472C201.451 55.88 201.247 56.084 200.839 56.084ZM211.21 56.072C211.018 56.072 210.87 56.016 210.766 55.904C210.662 55.784 210.61 55.62 210.61 55.412V50.732C210.61 50.524 210.662 50.364 210.766 50.252C210.87 50.14 211.018 50.084 211.21 50.084C211.402 50.084 211.55 50.14 211.654 50.252C211.766 50.364 211.822 50.524 211.822 50.732V55.412C211.822 55.62 211.77 55.784 211.666 55.904C211.562 56.016 211.41 56.072 211.21 56.072ZM211.21 48.836C210.97 48.836 210.782 48.776 210.646 48.656C210.518 48.536 210.454 48.368 210.454 48.152C210.454 47.928 210.518 47.76 210.646 47.648C210.782 47.528 210.97 47.468 211.21 47.468C211.45 47.468 211.634 47.528 211.762 47.648C211.898 47.76 211.966 47.928 211.966 48.152C211.966 48.368 211.898 48.536 211.762 48.656C211.634 48.776 211.45 48.836 211.21 48.836ZM214.128 56.084C213.936 56.084 213.788 56.032 213.684 55.928C213.58 55.816 213.528 55.664 213.528 55.472V50.672C213.528 50.472 213.58 50.32 213.684 50.216C213.788 50.112 213.932 50.06 214.116 50.06C214.308 50.06 214.452 50.112 214.548 50.216C214.652 50.32 214.704 50.472 214.704 50.672V51.608L214.572 51.392C214.748 50.944 215.024 50.608 215.4 50.384C215.776 50.152 216.208 50.036 216.696 50.036C217.16 50.036 217.544 50.124 217.848 50.3C218.16 50.468 218.392 50.728 218.544 51.08C218.696 51.424 218.772 51.86 218.772 52.388V55.472C218.772 55.664 218.72 55.816 218.616 55.928C218.512 56.032 218.364 56.084 218.172 56.084C217.972 56.084 217.82 56.032 217.716 55.928C217.612 55.816 217.56 55.664 217.56 55.472V52.46C217.56 51.956 217.46 51.588 217.26 51.356C217.068 51.124 216.764 51.008 216.348 51.008C215.86 51.008 215.468 51.16 215.172 51.464C214.884 51.768 214.74 52.176 214.74 52.688V55.472C214.74 55.88 214.536 56.084 214.128 56.084ZM222.674 56.108C222.162 56.108 221.71 55.988 221.318 55.748C220.934 55.5 220.634 55.148 220.418 54.692C220.202 54.228 220.094 53.688 220.094 53.072C220.094 52.44 220.202 51.9 220.418 51.452C220.634 51.004 220.934 50.656 221.318 50.408C221.71 50.16 222.162 50.036 222.674 50.036C223.186 50.036 223.626 50.164 223.994 50.42C224.37 50.668 224.622 51.004 224.75 51.428H224.618V48.068C224.618 47.868 224.67 47.716 224.774 47.612C224.878 47.508 225.026 47.456 225.218 47.456C225.41 47.456 225.558 47.508 225.662 47.612C225.774 47.716 225.83 47.868 225.83 48.068V55.472C225.83 55.664 225.778 55.816 225.674 55.928C225.57 56.032 225.422 56.084 225.23 56.084C225.038 56.084 224.89 56.032 224.786 55.928C224.682 55.816 224.63 55.664 224.63 55.472V54.416L224.762 54.68C224.634 55.112 224.382 55.46 224.006 55.724C223.638 55.98 223.194 56.108 222.674 56.108ZM222.986 55.172C223.314 55.172 223.602 55.092 223.85 54.932C224.098 54.772 224.29 54.536 224.426 54.224C224.57 53.912 224.642 53.528 224.642 53.072C224.642 52.384 224.49 51.864 224.186 51.512C223.882 51.16 223.482 50.984 222.986 50.984C222.65 50.984 222.358 51.064 222.11 51.224C221.862 51.376 221.666 51.608 221.522 51.92C221.386 52.232 221.318 52.616 221.318 53.072C221.318 53.752 221.47 54.272 221.774 54.632C222.078 54.992 222.482 55.172 222.986 55.172ZM230.28 56.108C229.64 56.108 229.088 55.988 228.624 55.748C228.168 55.5 227.812 55.152 227.556 54.704C227.308 54.248 227.184 53.708 227.184 53.084C227.184 52.476 227.308 51.944 227.556 51.488C227.804 51.032 228.144 50.676 228.576 50.42C229.008 50.164 229.5 50.036 230.052 50.036C230.46 50.036 230.824 50.104 231.144 50.24C231.464 50.368 231.736 50.56 231.96 50.816C232.192 51.064 232.364 51.368 232.476 51.728C232.596 52.088 232.656 52.492 232.656 52.94C232.656 53.076 232.616 53.18 232.536 53.252C232.456 53.316 232.336 53.348 232.176 53.348H228.144V52.604H231.84L231.636 52.772C231.636 52.372 231.576 52.032 231.456 51.752C231.344 51.472 231.172 51.26 230.94 51.116C230.716 50.964 230.436 50.888 230.1 50.888C229.724 50.888 229.404 50.976 229.14 51.152C228.884 51.328 228.688 51.572 228.552 51.884C228.416 52.196 228.348 52.56 228.348 52.976V53.048C228.348 53.752 228.512 54.284 228.84 54.644C229.176 54.996 229.66 55.172 230.292 55.172C230.532 55.172 230.784 55.14 231.048 55.076C231.32 55.012 231.576 54.904 231.816 54.752C231.952 54.672 232.072 54.636 232.176 54.644C232.288 54.652 232.376 54.688 232.44 54.752C232.512 54.816 232.556 54.896 232.572 54.992C232.588 55.088 232.572 55.188 232.524 55.292C232.476 55.388 232.392 55.476 232.272 55.556C232 55.74 231.684 55.88 231.324 55.976C230.964 56.064 230.616 56.108 230.28 56.108ZM234.589 56.084C234.389 56.084 234.237 56.032 234.133 55.928C234.029 55.816 233.977 55.664 233.977 55.472V50.672C233.977 50.472 234.029 50.32 234.133 50.216C234.237 50.112 234.381 50.06 234.565 50.06C234.757 50.06 234.901 50.112 234.997 50.216C235.101 50.32 235.153 50.472 235.153 50.672V51.548H235.033C235.161 51.068 235.397 50.704 235.741 50.456C236.085 50.208 236.525 50.064 237.061 50.024C237.205 50.016 237.317 50.052 237.397 50.132C237.485 50.212 237.533 50.336 237.541 50.504C237.557 50.672 237.521 50.808 237.433 50.912C237.345 51.008 237.209 51.064 237.025 51.08L236.797 51.104C236.277 51.152 235.881 51.316 235.609 51.596C235.337 51.876 235.201 52.26 235.201 52.748V55.472C235.201 55.664 235.149 55.816 235.045 55.928C234.949 56.032 234.797 56.084 234.589 56.084ZM238.784 56.048C238.552 56.048 238.364 55.976 238.22 55.832C238.076 55.688 238.004 55.504 238.004 55.28C238.004 55.056 238.076 54.876 238.22 54.74C238.364 54.596 238.552 54.524 238.784 54.524C239.016 54.524 239.2 54.596 239.336 54.74C239.472 54.876 239.54 55.056 239.54 55.28C239.54 55.504 239.472 55.688 239.336 55.832C239.2 55.976 239.016 56.048 238.784 56.048Z" fill="#64728C"/>
<path d="M34 69H241" stroke="#E8EAEF" stroke-linecap="round" stroke-dasharray="2 2"/>
<rect width="177" height="27" transform="translate(34 77)" fill="white"/>
<mask id="path-7-outside-1_1251_15314" maskUnits="userSpaceOnUse" x="34" y="77" width="61" height="26" fill="black">
<rect fill="white" x="34" y="77" width="61" height="26"/>
<path d="M35 90C35 83.3726 40.3726 78 47 78H82C88.6274 78 94 83.3726 94 90C94 96.6274 88.6274 102 82 102H47C40.3726 102 35 96.6274 35 90Z"/>
</mask>
<path d="M47 79H82V77H47V79ZM82 101H47V103H82V101ZM47 101C40.9249 101 36 96.0751 36 90H34C34 97.1797 39.8203 103 47 103V101ZM93 90C93 96.0751 88.0751 101 82 101V103C89.1797 103 95 97.1797 95 90H93ZM82 79C88.0751 79 93 83.9249 93 90H95C95 82.8203 89.1797 77 82 77V79ZM47 77C39.8203 77 34 82.8203 34 90H36C36 83.9249 40.9249 79 47 79V77Z" fill="#E8EAEF" mask="url(#path-7-outside-1_1251_15314)"/>
<path d="M52.608 94.084C52.408 94.084 52.252 94.028 52.14 93.916C52.036 93.804 51.984 93.648 51.984 93.448V86.092C51.984 85.884 52.036 85.728 52.14 85.624C52.252 85.512 52.408 85.456 52.608 85.456C52.808 85.456 52.96 85.512 53.064 85.624C53.176 85.728 53.232 85.884 53.232 86.092V89.188H57.972V86.092C57.972 85.884 58.024 85.728 58.128 85.624C58.24 85.512 58.396 85.456 58.596 85.456C58.796 85.456 58.948 85.512 59.052 85.624C59.156 85.728 59.208 85.884 59.208 86.092V93.448C59.208 93.648 59.156 93.804 59.052 93.916C58.948 94.028 58.796 94.084 58.596 94.084C58.396 94.084 58.24 94.028 58.128 93.916C58.024 93.804 57.972 93.648 57.972 93.448V90.232H53.232V93.448C53.232 93.648 53.18 93.804 53.076 93.916C52.972 94.028 52.816 94.084 52.608 94.084ZM63.7992 94.108C63.1592 94.108 62.6072 93.988 62.1432 93.748C61.6872 93.5 61.3312 93.152 61.0752 92.704C60.8272 92.248 60.7032 91.708 60.7032 91.084C60.7032 90.476 60.8272 89.944 61.0752 89.488C61.3232 89.032 61.6632 88.676 62.0952 88.42C62.5272 88.164 63.0192 88.036 63.5712 88.036C63.9792 88.036 64.3432 88.104 64.6632 88.24C64.9832 88.368 65.2552 88.56 65.4792 88.816C65.7112 89.064 65.8832 89.368 65.9952 89.728C66.1152 90.088 66.1752 90.492 66.1752 90.94C66.1752 91.076 66.1352 91.18 66.0552 91.252C65.9752 91.316 65.8552 91.348 65.6952 91.348H61.6632V90.604H65.3592L65.1552 90.772C65.1552 90.372 65.0952 90.032 64.9752 89.752C64.8632 89.472 64.6912 89.26 64.4592 89.116C64.2352 88.964 63.9552 88.888 63.6192 88.888C63.2432 88.888 62.9232 88.976 62.6592 89.152C62.4032 89.328 62.2072 89.572 62.0712 89.884C61.9352 90.196 61.8672 90.56 61.8672 90.976V91.048C61.8672 91.752 62.0312 92.284 62.3592 92.644C62.6952 92.996 63.1792 93.172 63.8112 93.172C64.0512 93.172 64.3032 93.14 64.5672 93.076C64.8392 93.012 65.0952 92.904 65.3352 92.752C65.4712 92.672 65.5912 92.636 65.6952 92.644C65.8072 92.652 65.8952 92.688 65.9592 92.752C66.0312 92.816 66.0752 92.896 66.0912 92.992C66.1072 93.088 66.0912 93.188 66.0432 93.292C65.9952 93.388 65.9112 93.476 65.7912 93.556C65.5192 93.74 65.2032 93.88 64.8432 93.976C64.4832 94.064 64.1352 94.108 63.7992 94.108ZM69.3805 94.108C68.7565 94.108 68.2845 93.928 67.9645 93.568C67.6525 93.2 67.4965 92.672 67.4965 91.984V86.068C67.4965 85.868 67.5485 85.716 67.6525 85.612C67.7565 85.508 67.9045 85.456 68.0965 85.456C68.2885 85.456 68.4365 85.508 68.5405 85.612C68.6525 85.716 68.7085 85.868 68.7085 86.068V91.912C68.7085 92.312 68.7885 92.612 68.9485 92.812C69.1165 93.004 69.3565 93.1 69.6685 93.1C69.7405 93.1 69.8045 93.1 69.8605 93.1C69.9165 93.092 69.9725 93.084 70.0285 93.076C70.1245 93.068 70.1925 93.096 70.2325 93.16C70.2725 93.216 70.2925 93.336 70.2925 93.52C70.2925 93.688 70.2565 93.82 70.1845 93.916C70.1125 94.004 69.9965 94.06 69.8365 94.084C69.7645 94.092 69.6885 94.096 69.6085 94.096C69.5285 94.104 69.4525 94.108 69.3805 94.108ZM71.7645 96.244C71.5725 96.244 71.4245 96.192 71.3205 96.088C71.2165 95.984 71.1645 95.832 71.1645 95.632V88.672C71.1645 88.472 71.2165 88.32 71.3205 88.216C71.4245 88.112 71.5685 88.06 71.7525 88.06C71.9445 88.06 72.0925 88.112 72.1965 88.216C72.3005 88.32 72.3525 88.472 72.3525 88.672V89.716L72.2205 89.464C72.3485 89.032 72.6005 88.688 72.9765 88.432C73.3525 88.168 73.7965 88.036 74.3085 88.036C74.8285 88.036 75.2805 88.16 75.6645 88.408C76.0565 88.656 76.3565 89.004 76.5645 89.452C76.7805 89.9 76.8885 90.44 76.8885 91.072C76.8885 91.688 76.7805 92.228 76.5645 92.692C76.3565 93.148 76.0605 93.5 75.6765 93.748C75.2925 93.988 74.8365 94.108 74.3085 94.108C73.8045 94.108 73.3645 93.98 72.9885 93.724C72.6125 93.468 72.3605 93.128 72.2325 92.704H72.3765V95.632C72.3765 95.832 72.3205 95.984 72.2085 96.088C72.1045 96.192 71.9565 96.244 71.7645 96.244ZM74.0085 93.172C74.3445 93.172 74.6365 93.092 74.8845 92.932C75.1325 92.772 75.3245 92.536 75.4605 92.224C75.5965 91.912 75.6645 91.528 75.6645 91.072C75.6645 90.384 75.5125 89.864 75.2085 89.512C74.9125 89.16 74.5125 88.984 74.0085 88.984C73.6805 88.984 73.3885 89.064 73.1325 89.224C72.8845 89.376 72.6925 89.608 72.5565 89.92C72.4205 90.232 72.3525 90.616 72.3525 91.072C72.3525 91.752 72.5045 92.272 72.8085 92.632C73.1125 92.992 73.5125 93.172 74.0085 93.172Z" fill="#64728C"/>
<path d="M102 90C102 83.3726 107.373 78 114 78H198C204.627 78 210 83.3726 210 90V90C210 96.6274 204.627 102 198 102H114C107.373 102 102 96.6274 102 90V90Z" fill="#1E6CEB"/>
<path d="M101.5 90C101.5 83.0964 107.096 77.5 114 77.5H198C204.904 77.5 210.5 83.0964 210.5 90H209.5C209.5 83.6487 204.351 78.5 198 78.5H114C107.649 78.5 102.5 83.6487 102.5 90H101.5ZM210.5 90.5C210.5 97.4036 204.904 103 198 103H114C107.096 103 101.5 97.4036 101.5 90.5L102.5 90C102.5 96.0751 107.649 101 114 101H198C204.351 101 209.5 96.0751 209.5 90L210.5 90.5ZM114 103C107.096 103 101.5 97.4036 101.5 90.5V90C101.5 83.0964 107.096 77.5 114 77.5V78.5C107.649 78.5 102.5 83.6487 102.5 90C102.5 96.0751 107.649 101 114 101V103ZM198 77.5C204.904 77.5 210.5 83.0964 210.5 90V90.5C210.5 97.4036 204.904 103 198 103V101C204.351 101 209.5 96.0751 209.5 90C209.5 83.6487 204.351 78.5 198 78.5V77.5Z" fill="url(#paint0_linear_1251_15314)"/>
<path d="M121.804 94.108C121.436 94.108 121.076 94.08 120.724 94.024C120.372 93.968 120.04 93.884 119.728 93.772C119.416 93.652 119.136 93.508 118.888 93.34C118.768 93.252 118.684 93.152 118.636 93.04C118.596 92.928 118.584 92.82 118.6 92.716C118.624 92.604 118.672 92.508 118.744 92.428C118.816 92.348 118.904 92.3 119.008 92.284C119.112 92.26 119.228 92.292 119.356 92.38C119.716 92.612 120.096 92.784 120.496 92.896C120.896 93 121.332 93.052 121.804 93.052C122.484 93.052 122.984 92.932 123.304 92.692C123.632 92.444 123.796 92.124 123.796 91.732C123.796 91.412 123.68 91.16 123.448 90.976C123.216 90.784 122.828 90.632 122.284 90.52L121 90.256C120.24 90.096 119.672 89.832 119.296 89.464C118.928 89.096 118.744 88.6 118.744 87.976C118.744 87.6 118.82 87.256 118.972 86.944C119.132 86.632 119.352 86.364 119.632 86.14C119.912 85.908 120.248 85.732 120.64 85.612C121.032 85.492 121.46 85.432 121.924 85.432C122.42 85.432 122.884 85.496 123.316 85.624C123.756 85.752 124.148 85.948 124.492 86.212C124.596 86.284 124.664 86.376 124.696 86.488C124.736 86.592 124.744 86.696 124.72 86.8C124.704 86.904 124.66 86.992 124.588 87.064C124.516 87.136 124.424 87.18 124.312 87.196C124.2 87.204 124.076 87.164 123.94 87.076C123.628 86.868 123.308 86.72 122.98 86.632C122.66 86.536 122.304 86.488 121.912 86.488C121.52 86.488 121.176 86.548 120.88 86.668C120.592 86.788 120.368 86.956 120.208 87.172C120.056 87.388 119.98 87.644 119.98 87.94C119.98 88.276 120.088 88.544 120.304 88.744C120.52 88.944 120.88 89.096 121.384 89.2L122.656 89.464C123.456 89.632 124.052 89.892 124.444 90.244C124.836 90.596 125.032 91.064 125.032 91.648C125.032 92.024 124.956 92.364 124.804 92.668C124.652 92.964 124.436 93.22 124.156 93.436C123.876 93.652 123.536 93.82 123.136 93.94C122.744 94.052 122.3 94.108 121.804 94.108ZM129.065 94.108C128.425 94.108 127.873 93.988 127.409 93.748C126.953 93.5 126.597 93.152 126.341 92.704C126.093 92.248 125.969 91.708 125.969 91.084C125.969 90.476 126.093 89.944 126.341 89.488C126.589 89.032 126.929 88.676 127.361 88.42C127.793 88.164 128.285 88.036 128.837 88.036C129.245 88.036 129.609 88.104 129.929 88.24C130.249 88.368 130.521 88.56 130.745 88.816C130.977 89.064 131.149 89.368 131.261 89.728C131.381 90.088 131.441 90.492 131.441 90.94C131.441 91.076 131.401 91.18 131.321 91.252C131.241 91.316 131.121 91.348 130.961 91.348H126.929V90.604H130.625L130.421 90.772C130.421 90.372 130.361 90.032 130.241 89.752C130.129 89.472 129.957 89.26 129.725 89.116C129.501 88.964 129.221 88.888 128.885 88.888C128.509 88.888 128.189 88.976 127.925 89.152C127.669 89.328 127.473 89.572 127.337 89.884C127.201 90.196 127.133 90.56 127.133 90.976V91.048C127.133 91.752 127.297 92.284 127.625 92.644C127.961 92.996 128.445 93.172 129.077 93.172C129.317 93.172 129.569 93.14 129.833 93.076C130.105 93.012 130.361 92.904 130.601 92.752C130.737 92.672 130.857 92.636 130.961 92.644C131.073 92.652 131.161 92.688 131.225 92.752C131.297 92.816 131.341 92.896 131.357 92.992C131.373 93.088 131.357 93.188 131.309 93.292C131.261 93.388 131.177 93.476 131.057 93.556C130.785 93.74 130.469 93.88 130.109 93.976C129.749 94.064 129.401 94.108 129.065 94.108ZM135.51 94.108C134.87 94.108 134.318 93.988 133.854 93.748C133.398 93.5 133.042 93.152 132.786 92.704C132.538 92.248 132.414 91.708 132.414 91.084C132.414 90.476 132.538 89.944 132.786 89.488C133.034 89.032 133.374 88.676 133.806 88.42C134.238 88.164 134.73 88.036 135.282 88.036C135.69 88.036 136.054 88.104 136.374 88.24C136.694 88.368 136.966 88.56 137.19 88.816C137.422 89.064 137.594 89.368 137.706 89.728C137.826 90.088 137.886 90.492 137.886 90.94C137.886 91.076 137.846 91.18 137.766 91.252C137.686 91.316 137.566 91.348 137.406 91.348H133.374V90.604H137.07L136.866 90.772C136.866 90.372 136.806 90.032 136.686 89.752C136.574 89.472 136.402 89.26 136.17 89.116C135.946 88.964 135.666 88.888 135.33 88.888C134.954 88.888 134.634 88.976 134.37 89.152C134.114 89.328 133.918 89.572 133.782 89.884C133.646 90.196 133.578 90.56 133.578 90.976V91.048C133.578 91.752 133.742 92.284 134.07 92.644C134.406 92.996 134.89 93.172 135.522 93.172C135.762 93.172 136.014 93.14 136.278 93.076C136.55 93.012 136.806 92.904 137.046 92.752C137.182 92.672 137.302 92.636 137.406 92.644C137.518 92.652 137.606 92.688 137.67 92.752C137.742 92.816 137.786 92.896 137.802 92.992C137.818 93.088 137.802 93.188 137.754 93.292C137.706 93.388 137.622 93.476 137.502 93.556C137.23 93.74 136.914 93.88 136.554 93.976C136.194 94.064 135.846 94.108 135.51 94.108ZM146.464 94.108C145.544 94.108 144.768 93.936 144.136 93.592C143.504 93.24 143.024 92.74 142.696 92.092C142.376 91.444 142.216 90.672 142.216 89.776C142.216 89.104 142.308 88.504 142.492 87.976C142.684 87.44 142.956 86.984 143.308 86.608C143.668 86.224 144.104 85.932 144.616 85.732C145.136 85.532 145.724 85.432 146.38 85.432C146.86 85.432 147.332 85.496 147.796 85.624C148.26 85.744 148.684 85.944 149.068 86.224C149.18 86.304 149.252 86.396 149.284 86.5C149.316 86.604 149.316 86.712 149.284 86.824C149.26 86.928 149.208 87.02 149.128 87.1C149.056 87.18 148.964 87.228 148.852 87.244C148.748 87.26 148.632 87.228 148.504 87.148C148.192 86.932 147.864 86.776 147.52 86.68C147.176 86.576 146.796 86.524 146.38 86.524C145.756 86.524 145.228 86.652 144.796 86.908C144.372 87.164 144.052 87.536 143.836 88.024C143.62 88.504 143.512 89.088 143.512 89.776C143.512 90.84 143.764 91.648 144.268 92.2C144.772 92.752 145.52 93.028 146.512 93.028C146.872 93.028 147.224 92.996 147.568 92.932C147.92 92.86 148.256 92.76 148.576 92.632L148.324 93.256V90.46H146.776C146.616 90.46 146.488 90.42 146.392 90.34C146.304 90.252 146.26 90.132 146.26 89.98C146.26 89.828 146.304 89.716 146.392 89.644C146.488 89.564 146.616 89.524 146.776 89.524H148.852C149.02 89.524 149.148 89.568 149.236 89.656C149.324 89.744 149.368 89.872 149.368 90.04V93.064C149.368 93.208 149.34 93.332 149.284 93.436C149.236 93.532 149.152 93.604 149.032 93.652C148.688 93.788 148.284 93.9 147.82 93.988C147.356 94.068 146.904 94.108 146.464 94.108ZM153.237 94.108C152.765 94.108 152.369 94.02 152.049 93.844C151.737 93.668 151.501 93.408 151.341 93.064C151.189 92.712 151.113 92.272 151.113 91.744V88.672C151.113 88.464 151.165 88.312 151.269 88.216C151.373 88.112 151.521 88.06 151.713 88.06C151.905 88.06 152.053 88.112 152.157 88.216C152.269 88.312 152.325 88.464 152.325 88.672V91.756C152.325 92.228 152.421 92.576 152.613 92.8C152.805 93.024 153.109 93.136 153.525 93.136C153.981 93.136 154.349 92.984 154.629 92.68C154.917 92.368 155.061 91.96 155.061 91.456V88.672C155.061 88.464 155.113 88.312 155.217 88.216C155.321 88.112 155.473 88.06 155.673 88.06C155.865 88.06 156.013 88.112 156.117 88.216C156.221 88.312 156.273 88.464 156.273 88.672V93.472C156.273 93.88 156.077 94.084 155.685 94.084C155.501 94.084 155.357 94.032 155.253 93.928C155.149 93.816 155.097 93.664 155.097 93.472V92.452L155.253 92.716C155.093 93.164 154.837 93.508 154.485 93.748C154.133 93.988 153.717 94.108 153.237 94.108ZM158.581 94.072C158.389 94.072 158.241 94.016 158.137 93.904C158.033 93.784 157.981 93.62 157.981 93.412V88.732C157.981 88.524 158.033 88.364 158.137 88.252C158.241 88.14 158.389 88.084 158.581 88.084C158.773 88.084 158.921 88.14 159.025 88.252C159.137 88.364 159.193 88.524 159.193 88.732V93.412C159.193 93.62 159.141 93.784 159.037 93.904C158.933 94.016 158.781 94.072 158.581 94.072ZM158.581 86.836C158.341 86.836 158.153 86.776 158.017 86.656C157.889 86.536 157.825 86.368 157.825 86.152C157.825 85.928 157.889 85.76 158.017 85.648C158.153 85.528 158.341 85.468 158.581 85.468C158.821 85.468 159.005 85.528 159.133 85.648C159.269 85.76 159.337 85.928 159.337 86.152C159.337 86.368 159.269 86.536 159.133 86.656C159.005 86.776 158.821 86.836 158.581 86.836ZM163.131 94.108C162.619 94.108 162.167 93.988 161.775 93.748C161.391 93.5 161.091 93.148 160.875 92.692C160.659 92.228 160.551 91.688 160.551 91.072C160.551 90.44 160.659 89.9 160.875 89.452C161.091 89.004 161.391 88.656 161.775 88.408C162.167 88.16 162.619 88.036 163.131 88.036C163.643 88.036 164.083 88.164 164.451 88.42C164.827 88.668 165.079 89.004 165.207 89.428H165.075V86.068C165.075 85.868 165.127 85.716 165.231 85.612C165.335 85.508 165.483 85.456 165.675 85.456C165.867 85.456 166.015 85.508 166.119 85.612C166.231 85.716 166.287 85.868 166.287 86.068V93.472C166.287 93.664 166.235 93.816 166.131 93.928C166.027 94.032 165.879 94.084 165.687 94.084C165.495 94.084 165.347 94.032 165.243 93.928C165.139 93.816 165.087 93.664 165.087 93.472V92.416L165.219 92.68C165.091 93.112 164.839 93.46 164.463 93.724C164.095 93.98 163.651 94.108 163.131 94.108ZM163.443 93.172C163.771 93.172 164.059 93.092 164.307 92.932C164.555 92.772 164.747 92.536 164.883 92.224C165.027 91.912 165.099 91.528 165.099 91.072C165.099 90.384 164.947 89.864 164.643 89.512C164.339 89.16 163.939 88.984 163.443 88.984C163.107 88.984 162.815 89.064 162.567 89.224C162.319 89.376 162.123 89.608 161.979 89.92C161.843 90.232 161.775 90.616 161.775 91.072C161.775 91.752 161.927 92.272 162.231 92.632C162.535 92.992 162.939 93.172 163.443 93.172ZM170.737 94.108C170.097 94.108 169.545 93.988 169.081 93.748C168.625 93.5 168.269 93.152 168.013 92.704C167.765 92.248 167.641 91.708 167.641 91.084C167.641 90.476 167.765 89.944 168.013 89.488C168.261 89.032 168.601 88.676 169.033 88.42C169.465 88.164 169.957 88.036 170.509 88.036C170.917 88.036 171.281 88.104 171.601 88.24C171.921 88.368 172.193 88.56 172.417 88.816C172.649 89.064 172.821 89.368 172.933 89.728C173.053 90.088 173.113 90.492 173.113 90.94C173.113 91.076 173.073 91.18 172.993 91.252C172.913 91.316 172.793 91.348 172.633 91.348H168.601V90.604H172.297L172.093 90.772C172.093 90.372 172.033 90.032 171.913 89.752C171.801 89.472 171.629 89.26 171.397 89.116C171.173 88.964 170.893 88.888 170.557 88.888C170.181 88.888 169.861 88.976 169.597 89.152C169.341 89.328 169.145 89.572 169.009 89.884C168.873 90.196 168.805 90.56 168.805 90.976V91.048C168.805 91.752 168.969 92.284 169.297 92.644C169.633 92.996 170.117 93.172 170.749 93.172C170.989 93.172 171.241 93.14 171.505 93.076C171.777 93.012 172.033 92.904 172.273 92.752C172.409 92.672 172.529 92.636 172.633 92.644C172.745 92.652 172.833 92.688 172.897 92.752C172.969 92.816 173.013 92.896 173.029 92.992C173.045 93.088 173.029 93.188 172.981 93.292C172.933 93.388 172.849 93.476 172.729 93.556C172.457 93.74 172.141 93.88 171.781 93.976C171.421 94.064 171.073 94.108 170.737 94.108ZM176.318 94.108C175.694 94.108 175.222 93.928 174.902 93.568C174.59 93.2 174.434 92.672 174.434 91.984V86.068C174.434 85.868 174.486 85.716 174.59 85.612C174.694 85.508 174.842 85.456 175.034 85.456C175.226 85.456 175.374 85.508 175.478 85.612C175.59 85.716 175.646 85.868 175.646 86.068V91.912C175.646 92.312 175.726 92.612 175.886 92.812C176.054 93.004 176.294 93.1 176.606 93.1C176.678 93.1 176.742 93.1 176.798 93.1C176.854 93.092 176.91 93.084 176.966 93.076C177.062 93.068 177.13 93.096 177.17 93.16C177.21 93.216 177.23 93.336 177.23 93.52C177.23 93.688 177.194 93.82 177.122 93.916C177.05 94.004 176.934 94.06 176.774 94.084C176.702 94.092 176.626 94.096 176.546 94.096C176.466 94.104 176.39 94.108 176.318 94.108ZM178.702 94.072C178.51 94.072 178.362 94.016 178.258 93.904C178.154 93.784 178.102 93.62 178.102 93.412V88.732C178.102 88.524 178.154 88.364 178.258 88.252C178.362 88.14 178.51 88.084 178.702 88.084C178.894 88.084 179.042 88.14 179.146 88.252C179.258 88.364 179.314 88.524 179.314 88.732V93.412C179.314 93.62 179.262 93.784 179.158 93.904C179.054 94.016 178.902 94.072 178.702 94.072ZM178.702 86.836C178.462 86.836 178.274 86.776 178.138 86.656C178.01 86.536 177.946 86.368 177.946 86.152C177.946 85.928 178.01 85.76 178.138 85.648C178.274 85.528 178.462 85.468 178.702 85.468C178.942 85.468 179.126 85.528 179.254 85.648C179.39 85.76 179.458 85.928 179.458 86.152C179.458 86.368 179.39 86.536 179.254 86.656C179.126 86.776 178.942 86.836 178.702 86.836ZM181.62 94.084C181.428 94.084 181.28 94.032 181.176 93.928C181.072 93.816 181.02 93.664 181.02 93.472V88.672C181.02 88.472 181.072 88.32 181.176 88.216C181.28 88.112 181.424 88.06 181.608 88.06C181.8 88.06 181.944 88.112 182.04 88.216C182.144 88.32 182.196 88.472 182.196 88.672V89.608L182.064 89.392C182.24 88.944 182.516 88.608 182.892 88.384C183.268 88.152 183.7 88.036 184.188 88.036C184.652 88.036 185.036 88.124 185.34 88.3C185.652 88.468 185.884 88.728 186.036 89.08C186.188 89.424 186.264 89.86 186.264 90.388V93.472C186.264 93.664 186.212 93.816 186.108 93.928C186.004 94.032 185.856 94.084 185.664 94.084C185.464 94.084 185.312 94.032 185.208 93.928C185.104 93.816 185.052 93.664 185.052 93.472V90.46C185.052 89.956 184.952 89.588 184.752 89.356C184.56 89.124 184.256 89.008 183.84 89.008C183.352 89.008 182.96 89.16 182.664 89.464C182.376 89.768 182.232 90.176 182.232 90.688V93.472C182.232 93.88 182.028 94.084 181.62 94.084ZM190.682 94.108C190.042 94.108 189.49 93.988 189.026 93.748C188.57 93.5 188.214 93.152 187.958 92.704C187.71 92.248 187.586 91.708 187.586 91.084C187.586 90.476 187.71 89.944 187.958 89.488C188.206 89.032 188.546 88.676 188.978 88.42C189.41 88.164 189.902 88.036 190.454 88.036C190.862 88.036 191.226 88.104 191.546 88.24C191.866 88.368 192.138 88.56 192.362 88.816C192.594 89.064 192.766 89.368 192.878 89.728C192.998 90.088 193.058 90.492 193.058 90.94C193.058 91.076 193.018 91.18 192.938 91.252C192.858 91.316 192.738 91.348 192.578 91.348H188.546V90.604H192.242L192.038 90.772C192.038 90.372 191.978 90.032 191.858 89.752C191.746 89.472 191.574 89.26 191.342 89.116C191.118 88.964 190.838 88.888 190.502 88.888C190.126 88.888 189.806 88.976 189.542 89.152C189.286 89.328 189.09 89.572 188.954 89.884C188.818 90.196 188.75 90.56 188.75 90.976V91.048C188.75 91.752 188.914 92.284 189.242 92.644C189.578 92.996 190.062 93.172 190.694 93.172C190.934 93.172 191.186 93.14 191.45 93.076C191.722 93.012 191.978 92.904 192.218 92.752C192.354 92.672 192.474 92.636 192.578 92.644C192.69 92.652 192.778 92.688 192.842 92.752C192.914 92.816 192.958 92.896 192.974 92.992C192.99 93.088 192.974 93.188 192.926 93.292C192.878 93.388 192.794 93.476 192.674 93.556C192.402 93.74 192.086 93.88 191.726 93.976C191.366 94.064 191.018 94.108 190.682 94.108Z" fill="white"/>
</g>
<defs>
<filter id="filter0_d_1251_15314" x="14" y="9" width="247" height="123" filterUnits="userSpaceOnUse" color-interpolation-filters="sRGB">
<feFlood flood-opacity="0" result="BackgroundImageFix"/>
<feColorMatrix in="SourceAlpha" type="matrix" values="0 0 0 0 0 0 0 0 0 0 0 0 0 0 0 0 0 0 127 0" result="hardAlpha"/>
<feOffset dy="4"/>
<feGaussianBlur stdDeviation="2"/>
<feComposite in2="hardAlpha" operator="out"/>
<feColorMatrix type="matrix" values="0 0 0 0 0 0 0 0 0 0 0 0 0 0 0 0 0 0 0.05 0"/>
<feBlend mode="normal" in2="BackgroundImageFix" result="effect1_dropShadow_1251_15314"/>
<feBlend mode="normal" in="SourceGraphic" in2="effect1_dropShadow_1251_15314" result="shape"/>
</filter>
<linearGradient id="paint0_linear_1251_15314" x1="164.845" y1="78" x2="164.845" y2="102" gradientUnits="userSpaceOnUse">
<stop stop-color="#1E6CEB" stop-opacity="0.75"/>
<stop offset="1" stop-color="#195FD0"/>
</linearGradient>
</defs>
</svg>
