<svg width="332" height="339" viewBox="0 0 332 339" fill="none" xmlns="http://www.w3.org/2000/svg">
<g filter="url(#filter0_d_999_3441)">
<g filter="url(#filter1_d_999_3441)">
<rect x="50" y="69" width="232" height="216" rx="18" fill="#E8EAEF"/>
<rect x="50.5" y="69.5" width="231" height="215" rx="17.5" stroke="#64728C" stroke-opacity="0.21"/>
<rect x="50" y="69" width="232" height="212" rx="18" fill="white"/>
<path d="M66 97C66 90.3726 71.3726 85 78 85H254C260.627 85 266 90.3726 266 97V115C266 121.627 260.627 127 254 127H78C71.3726 127 66 121.627 66 115V97Z" fill="#17AA54"/>
<path d="M133.302 110.096C133.086 110.096 132.91 110.044 132.774 109.94C132.646 109.836 132.542 109.672 132.462 109.448L129.954 102.356C129.866 102.1 129.882 101.884 130.002 101.708C130.13 101.532 130.342 101.444 130.638 101.444C130.854 101.444 131.022 101.496 131.142 101.6C131.262 101.696 131.358 101.852 131.43 102.068L133.59 108.476H133.11L135.366 102.08C135.446 101.864 135.546 101.704 135.666 101.6C135.786 101.496 135.942 101.444 136.134 101.444C136.326 101.444 136.478 101.496 136.59 101.6C136.702 101.704 136.798 101.868 136.878 102.092L139.062 108.476H138.642L140.838 102.068C140.91 101.86 141.006 101.704 141.126 101.6C141.246 101.496 141.41 101.444 141.618 101.444C141.874 101.444 142.062 101.532 142.182 101.708C142.302 101.884 142.318 102.1 142.23 102.356L139.698 109.46C139.618 109.676 139.514 109.836 139.386 109.94C139.258 110.044 139.086 110.096 138.87 110.096C138.654 110.096 138.482 110.044 138.354 109.94C138.226 109.836 138.122 109.672 138.042 109.448L135.954 103.496H136.23L134.118 109.46C134.038 109.676 133.934 109.836 133.806 109.94C133.686 110.044 133.518 110.096 133.302 110.096ZM145.468 110.12C144.86 110.12 144.332 109.996 143.884 109.748C143.436 109.5 143.088 109.148 142.84 108.692C142.592 108.228 142.468 107.684 142.468 107.06C142.468 106.588 142.536 106.168 142.672 105.8C142.816 105.424 143.02 105.104 143.284 104.84C143.548 104.568 143.864 104.364 144.232 104.228C144.6 104.084 145.012 104.012 145.468 104.012C146.076 104.012 146.604 104.136 147.052 104.384C147.5 104.632 147.848 104.984 148.096 105.44C148.344 105.896 148.468 106.436 148.468 107.06C148.468 107.532 148.396 107.956 148.252 108.332C148.116 108.708 147.916 109.032 147.652 109.304C147.388 109.568 147.072 109.772 146.704 109.916C146.336 110.052 145.924 110.12 145.468 110.12ZM145.468 108.98C145.764 108.98 146.024 108.908 146.248 108.764C146.472 108.62 146.644 108.408 146.764 108.128C146.892 107.84 146.956 107.484 146.956 107.06C146.956 106.42 146.82 105.944 146.548 105.632C146.276 105.312 145.916 105.152 145.468 105.152C145.172 105.152 144.912 105.224 144.688 105.368C144.464 105.504 144.288 105.716 144.16 106.004C144.04 106.284 143.98 106.636 143.98 107.06C143.98 107.692 144.116 108.172 144.388 108.5C144.66 108.82 145.02 108.98 145.468 108.98ZM150.474 110.096C150.226 110.096 150.034 110.032 149.898 109.904C149.77 109.768 149.706 109.576 149.706 109.328V104.792C149.706 104.544 149.77 104.356 149.898 104.228C150.026 104.1 150.206 104.036 150.438 104.036C150.67 104.036 150.85 104.1 150.978 104.228C151.106 104.356 151.17 104.544 151.17 104.792V105.548H151.05C151.162 105.068 151.382 104.704 151.71 104.456C152.038 104.208 152.474 104.06 153.018 104.012C153.186 103.996 153.318 104.04 153.414 104.144C153.518 104.24 153.578 104.392 153.594 104.6C153.61 104.8 153.562 104.964 153.45 105.092C153.346 105.212 153.186 105.284 152.97 105.308L152.706 105.332C152.218 105.38 151.85 105.532 151.602 105.788C151.354 106.036 151.23 106.388 151.23 106.844V109.328C151.23 109.576 151.166 109.768 151.038 109.904C150.91 110.032 150.722 110.096 150.474 110.096ZM155.149 110.096C154.909 110.096 154.725 110.032 154.597 109.904C154.469 109.768 154.405 109.576 154.405 109.328V102.2C154.405 101.952 154.469 101.764 154.597 101.636C154.725 101.508 154.909 101.444 155.149 101.444C155.389 101.444 155.573 101.508 155.701 101.636C155.837 101.764 155.905 101.952 155.905 102.2V106.628H155.929L157.909 104.54C158.069 104.38 158.209 104.256 158.329 104.168C158.449 104.08 158.613 104.036 158.821 104.036C159.029 104.036 159.185 104.092 159.289 104.204C159.401 104.308 159.457 104.436 159.457 104.588C159.457 104.74 159.385 104.892 159.241 105.044L157.153 107.252V106.628L159.445 109.1C159.589 109.252 159.653 109.408 159.637 109.568C159.629 109.72 159.565 109.848 159.445 109.952C159.325 110.048 159.173 110.096 158.989 110.096C158.765 110.096 158.585 110.052 158.449 109.964C158.321 109.876 158.177 109.744 158.017 109.568L155.929 107.384H155.905V109.328C155.905 109.84 155.653 110.096 155.149 110.096ZM161.583 110.084C161.343 110.084 161.159 110.012 161.031 109.868C160.903 109.724 160.839 109.524 160.839 109.268V104.864C160.839 104.6 160.903 104.4 161.031 104.264C161.159 104.12 161.343 104.048 161.583 104.048C161.823 104.048 162.007 104.12 162.135 104.264C162.271 104.4 162.339 104.6 162.339 104.864V109.268C162.339 109.524 162.275 109.724 162.147 109.868C162.019 110.012 161.831 110.084 161.583 110.084ZM161.583 102.932C161.303 102.932 161.083 102.864 160.923 102.728C160.771 102.584 160.695 102.388 160.695 102.14C160.695 101.884 160.771 101.688 160.923 101.552C161.083 101.416 161.303 101.348 161.583 101.348C161.871 101.348 162.091 101.416 162.243 101.552C162.395 101.688 162.471 101.884 162.471 102.14C162.471 102.388 162.395 102.584 162.243 102.728C162.091 102.864 161.871 102.932 161.583 102.932ZM164.641 110.096C164.401 110.096 164.217 110.032 164.089 109.904C163.961 109.768 163.897 109.576 163.897 109.328V104.792C163.897 104.544 163.961 104.356 164.089 104.228C164.217 104.1 164.397 104.036 164.629 104.036C164.861 104.036 165.041 104.1 165.169 104.228C165.297 104.356 165.361 104.544 165.361 104.792V105.608L165.229 105.308C165.405 104.884 165.677 104.564 166.045 104.348C166.421 104.124 166.845 104.012 167.317 104.012C167.789 104.012 168.177 104.1 168.481 104.276C168.785 104.452 169.013 104.72 169.165 105.08C169.317 105.432 169.393 105.88 169.393 106.424V109.328C169.393 109.576 169.329 109.768 169.201 109.904C169.073 110.032 168.889 110.096 168.649 110.096C168.409 110.096 168.221 110.032 168.085 109.904C167.957 109.768 167.893 109.576 167.893 109.328V106.496C167.893 106.04 167.805 105.708 167.629 105.5C167.461 105.292 167.197 105.188 166.837 105.188C166.397 105.188 166.045 105.328 165.781 105.608C165.525 105.88 165.397 106.244 165.397 106.7V109.328C165.397 109.84 165.145 110.096 164.641 110.096ZM173.653 112.28C173.221 112.28 172.801 112.24 172.393 112.16C171.993 112.08 171.629 111.956 171.301 111.788C171.149 111.708 171.045 111.612 170.989 111.5C170.941 111.388 170.925 111.272 170.941 111.152C170.965 111.04 171.013 110.94 171.085 110.852C171.165 110.764 171.261 110.704 171.373 110.672C171.485 110.64 171.601 110.656 171.721 110.72C172.073 110.896 172.405 111.008 172.717 111.056C173.037 111.112 173.309 111.14 173.533 111.14C174.069 111.14 174.469 111.008 174.733 110.744C175.005 110.488 175.141 110.104 175.141 109.592V108.512H175.249C175.129 108.92 174.877 109.248 174.493 109.496C174.117 109.736 173.689 109.856 173.209 109.856C172.681 109.856 172.221 109.736 171.829 109.496C171.437 109.248 171.133 108.904 170.917 108.464C170.701 108.024 170.593 107.512 170.593 106.928C170.593 106.488 170.653 106.092 170.773 105.74C170.901 105.38 171.077 105.072 171.301 104.816C171.533 104.56 171.809 104.364 172.129 104.228C172.457 104.084 172.817 104.012 173.209 104.012C173.705 104.012 174.137 104.136 174.505 104.384C174.881 104.624 175.125 104.944 175.237 105.344L175.117 105.644V104.792C175.117 104.544 175.181 104.356 175.309 104.228C175.445 104.1 175.629 104.036 175.861 104.036C176.101 104.036 176.285 104.1 176.413 104.228C176.541 104.356 176.605 104.544 176.605 104.792V109.412C176.605 110.364 176.353 111.08 175.849 111.56C175.345 112.04 174.613 112.28 173.653 112.28ZM173.617 108.716C173.929 108.716 174.197 108.644 174.421 108.5C174.645 108.356 174.817 108.152 174.937 107.888C175.065 107.616 175.129 107.296 175.129 106.928C175.129 106.376 174.993 105.944 174.721 105.632C174.449 105.312 174.081 105.152 173.617 105.152C173.305 105.152 173.037 105.224 172.813 105.368C172.589 105.512 172.413 105.716 172.285 105.98C172.165 106.244 172.105 106.56 172.105 106.928C172.105 107.48 172.241 107.916 172.513 108.236C172.785 108.556 173.153 108.716 173.617 108.716ZM182.377 110C182.113 110 181.909 109.932 181.765 109.796C181.629 109.652 181.561 109.448 181.561 109.184V102.356C181.561 102.092 181.629 101.892 181.765 101.756C181.909 101.612 182.113 101.54 182.377 101.54H184.705C186.121 101.54 187.213 101.904 187.981 102.632C188.757 103.36 189.145 104.404 189.145 105.764C189.145 106.444 189.045 107.048 188.845 107.576C188.653 108.096 188.365 108.536 187.981 108.896C187.605 109.256 187.141 109.532 186.589 109.724C186.045 109.908 185.417 110 184.705 110H182.377ZM183.097 108.728H184.609C185.105 108.728 185.533 108.668 185.893 108.548C186.261 108.42 186.565 108.236 186.805 107.996C187.053 107.748 187.237 107.44 187.357 107.072C187.477 106.696 187.537 106.26 187.537 105.764C187.537 104.772 187.293 104.032 186.805 103.544C186.317 103.056 185.585 102.812 184.609 102.812H183.097V108.728ZM192.489 110.12C192.065 110.12 191.685 110.04 191.349 109.88C191.021 109.712 190.761 109.488 190.569 109.208C190.385 108.928 190.293 108.612 190.293 108.26C190.293 107.828 190.405 107.488 190.629 107.24C190.853 106.984 191.217 106.8 191.721 106.688C192.225 106.576 192.901 106.52 193.749 106.52H194.349V107.384H193.761C193.265 107.384 192.869 107.408 192.573 107.456C192.277 107.504 192.065 107.588 191.937 107.708C191.817 107.82 191.757 107.98 191.757 108.188C191.757 108.452 191.849 108.668 192.033 108.836C192.217 109.004 192.473 109.088 192.801 109.088C193.065 109.088 193.297 109.028 193.497 108.908C193.705 108.78 193.869 108.608 193.989 108.392C194.109 108.176 194.169 107.928 194.169 107.648V106.268C194.169 105.868 194.081 105.58 193.905 105.404C193.729 105.228 193.433 105.14 193.017 105.14C192.785 105.14 192.533 105.168 192.261 105.224C191.997 105.28 191.717 105.376 191.421 105.512C191.269 105.584 191.133 105.604 191.013 105.572C190.901 105.54 190.813 105.476 190.749 105.38C190.685 105.276 190.653 105.164 190.653 105.044C190.653 104.924 190.685 104.808 190.749 104.696C190.813 104.576 190.921 104.488 191.073 104.432C191.441 104.28 191.793 104.172 192.129 104.108C192.473 104.044 192.785 104.012 193.065 104.012C193.641 104.012 194.113 104.1 194.481 104.276C194.857 104.452 195.137 104.72 195.321 105.08C195.505 105.432 195.597 105.888 195.597 106.448V109.328C195.597 109.576 195.537 109.768 195.417 109.904C195.297 110.032 195.125 110.096 194.901 110.096C194.677 110.096 194.501 110.032 194.373 109.904C194.253 109.768 194.193 109.576 194.193 109.328V108.752H194.289C194.233 109.032 194.121 109.276 193.953 109.484C193.793 109.684 193.589 109.84 193.341 109.952C193.093 110.064 192.809 110.12 192.489 110.12ZM198.549 112.256C198.373 112.256 198.229 112.208 198.117 112.112C198.005 112.024 197.937 111.904 197.913 111.752C197.897 111.6 197.925 111.44 197.997 111.272L198.813 109.46V110.084L196.629 105.032C196.557 104.856 196.533 104.692 196.557 104.54C196.581 104.388 196.653 104.268 196.773 104.18C196.901 104.084 197.073 104.036 197.289 104.036C197.473 104.036 197.621 104.08 197.733 104.168C197.845 104.248 197.945 104.404 198.033 104.636L199.653 108.68H199.293L200.949 104.624C201.037 104.4 201.141 104.248 201.261 104.168C201.381 104.08 201.541 104.036 201.741 104.036C201.917 104.036 202.057 104.084 202.161 104.18C202.265 104.268 202.329 104.388 202.353 104.54C202.377 104.684 202.349 104.844 202.269 105.02L199.353 111.68C199.249 111.904 199.137 112.056 199.017 112.136C198.897 112.216 198.741 112.256 198.549 112.256Z" fill="white"/>
<path d="M66 143C66 136.373 71.3726 131 78 131H254C260.627 131 266 136.373 266 143V161C266 167.627 260.627 173 254 173H78C71.3726 173 66 167.627 66 161V143Z" fill="#76BC21"/>
<path d="M121.074 156.096C120.858 156.096 120.682 156.044 120.546 155.94C120.418 155.836 120.314 155.672 120.234 155.448L117.726 148.356C117.638 148.1 117.654 147.884 117.774 147.708C117.902 147.532 118.114 147.444 118.41 147.444C118.626 147.444 118.794 147.496 118.914 147.6C119.034 147.696 119.13 147.852 119.202 148.068L121.362 154.476H120.882L123.138 148.08C123.218 147.864 123.318 147.704 123.438 147.6C123.558 147.496 123.714 147.444 123.906 147.444C124.098 147.444 124.25 147.496 124.362 147.6C124.474 147.704 124.57 147.868 124.65 148.092L126.834 154.476H126.414L128.61 148.068C128.682 147.86 128.778 147.704 128.898 147.6C129.018 147.496 129.182 147.444 129.39 147.444C129.646 147.444 129.834 147.532 129.954 147.708C130.074 147.884 130.09 148.1 130.002 148.356L127.47 155.46C127.39 155.676 127.286 155.836 127.158 155.94C127.03 156.044 126.858 156.096 126.642 156.096C126.426 156.096 126.254 156.044 126.126 155.94C125.998 155.836 125.894 155.672 125.814 155.448L123.726 149.496H124.002L121.89 155.46C121.81 155.676 121.706 155.836 121.578 155.94C121.458 156.044 121.29 156.096 121.074 156.096ZM133.239 156.12C132.631 156.12 132.103 155.996 131.655 155.748C131.207 155.5 130.859 155.148 130.611 154.692C130.363 154.228 130.239 153.684 130.239 153.06C130.239 152.588 130.307 152.168 130.443 151.8C130.587 151.424 130.791 151.104 131.055 150.84C131.319 150.568 131.635 150.364 132.003 150.228C132.371 150.084 132.783 150.012 133.239 150.012C133.847 150.012 134.375 150.136 134.823 150.384C135.271 150.632 135.619 150.984 135.867 151.44C136.115 151.896 136.239 152.436 136.239 153.06C136.239 153.532 136.167 153.956 136.023 154.332C135.887 154.708 135.687 155.032 135.423 155.304C135.159 155.568 134.843 155.772 134.475 155.916C134.107 156.052 133.695 156.12 133.239 156.12ZM133.239 154.98C133.535 154.98 133.795 154.908 134.019 154.764C134.243 154.62 134.415 154.408 134.535 154.128C134.663 153.84 134.727 153.484 134.727 153.06C134.727 152.42 134.591 151.944 134.319 151.632C134.047 151.312 133.687 151.152 133.239 151.152C132.943 151.152 132.683 151.224 132.459 151.368C132.235 151.504 132.059 151.716 131.931 152.004C131.811 152.284 131.751 152.636 131.751 153.06C131.751 153.692 131.887 154.172 132.159 154.5C132.431 154.82 132.791 154.98 133.239 154.98ZM138.245 156.096C137.997 156.096 137.805 156.032 137.669 155.904C137.541 155.768 137.477 155.576 137.477 155.328V150.792C137.477 150.544 137.541 150.356 137.669 150.228C137.797 150.1 137.977 150.036 138.209 150.036C138.441 150.036 138.621 150.1 138.749 150.228C138.877 150.356 138.941 150.544 138.941 150.792V151.548H138.821C138.933 151.068 139.153 150.704 139.481 150.456C139.809 150.208 140.245 150.06 140.789 150.012C140.957 149.996 141.089 150.04 141.185 150.144C141.289 150.24 141.349 150.392 141.365 150.6C141.381 150.8 141.333 150.964 141.221 151.092C141.117 151.212 140.957 151.284 140.741 151.308L140.477 151.332C139.989 151.38 139.621 151.532 139.373 151.788C139.125 152.036 139.001 152.388 139.001 152.844V155.328C139.001 155.576 138.937 155.768 138.809 155.904C138.681 156.032 138.493 156.096 138.245 156.096ZM142.92 156.096C142.68 156.096 142.496 156.032 142.368 155.904C142.24 155.768 142.176 155.576 142.176 155.328V148.2C142.176 147.952 142.24 147.764 142.368 147.636C142.496 147.508 142.68 147.444 142.92 147.444C143.16 147.444 143.344 147.508 143.472 147.636C143.608 147.764 143.676 147.952 143.676 148.2V152.628H143.7L145.68 150.54C145.84 150.38 145.98 150.256 146.1 150.168C146.22 150.08 146.384 150.036 146.592 150.036C146.8 150.036 146.956 150.092 147.06 150.204C147.172 150.308 147.228 150.436 147.228 150.588C147.228 150.74 147.156 150.892 147.012 151.044L144.924 153.252V152.628L147.216 155.1C147.36 155.252 147.424 155.408 147.408 155.568C147.4 155.72 147.336 155.848 147.216 155.952C147.096 156.048 146.944 156.096 146.76 156.096C146.536 156.096 146.356 156.052 146.22 155.964C146.092 155.876 145.948 155.744 145.788 155.568L143.7 153.384H143.676V155.328C143.676 155.84 143.424 156.096 142.92 156.096ZM149.354 156.084C149.114 156.084 148.93 156.012 148.802 155.868C148.674 155.724 148.61 155.524 148.61 155.268V150.864C148.61 150.6 148.674 150.4 148.802 150.264C148.93 150.12 149.114 150.048 149.354 150.048C149.594 150.048 149.778 150.12 149.906 150.264C150.042 150.4 150.11 150.6 150.11 150.864V155.268C150.11 155.524 150.046 155.724 149.918 155.868C149.79 156.012 149.602 156.084 149.354 156.084ZM149.354 148.932C149.074 148.932 148.854 148.864 148.694 148.728C148.542 148.584 148.466 148.388 148.466 148.14C148.466 147.884 148.542 147.688 148.694 147.552C148.854 147.416 149.074 147.348 149.354 147.348C149.642 147.348 149.862 147.416 150.014 147.552C150.166 147.688 150.242 147.884 150.242 148.14C150.242 148.388 150.166 148.584 150.014 148.728C149.862 148.864 149.642 148.932 149.354 148.932ZM152.413 156.096C152.173 156.096 151.989 156.032 151.861 155.904C151.733 155.768 151.669 155.576 151.669 155.328V150.792C151.669 150.544 151.733 150.356 151.861 150.228C151.989 150.1 152.169 150.036 152.401 150.036C152.633 150.036 152.813 150.1 152.941 150.228C153.069 150.356 153.133 150.544 153.133 150.792V151.608L153.001 151.308C153.177 150.884 153.449 150.564 153.817 150.348C154.193 150.124 154.617 150.012 155.089 150.012C155.561 150.012 155.949 150.1 156.253 150.276C156.557 150.452 156.785 150.72 156.937 151.08C157.089 151.432 157.165 151.88 157.165 152.424V155.328C157.165 155.576 157.101 155.768 156.973 155.904C156.845 156.032 156.661 156.096 156.421 156.096C156.181 156.096 155.993 156.032 155.857 155.904C155.729 155.768 155.665 155.576 155.665 155.328V152.496C155.665 152.04 155.577 151.708 155.401 151.5C155.233 151.292 154.969 151.188 154.609 151.188C154.169 151.188 153.817 151.328 153.553 151.608C153.297 151.88 153.169 152.244 153.169 152.7V155.328C153.169 155.84 152.917 156.096 152.413 156.096ZM161.424 158.28C160.992 158.28 160.572 158.24 160.164 158.16C159.764 158.08 159.4 157.956 159.072 157.788C158.92 157.708 158.816 157.612 158.76 157.5C158.712 157.388 158.696 157.272 158.712 157.152C158.736 157.04 158.784 156.94 158.856 156.852C158.936 156.764 159.032 156.704 159.144 156.672C159.256 156.64 159.372 156.656 159.492 156.72C159.844 156.896 160.176 157.008 160.488 157.056C160.808 157.112 161.08 157.14 161.304 157.14C161.84 157.14 162.24 157.008 162.504 156.744C162.776 156.488 162.912 156.104 162.912 155.592V154.512H163.02C162.9 154.92 162.648 155.248 162.264 155.496C161.888 155.736 161.46 155.856 160.98 155.856C160.452 155.856 159.992 155.736 159.6 155.496C159.208 155.248 158.904 154.904 158.688 154.464C158.472 154.024 158.364 153.512 158.364 152.928C158.364 152.488 158.424 152.092 158.544 151.74C158.672 151.38 158.848 151.072 159.072 150.816C159.304 150.56 159.58 150.364 159.9 150.228C160.228 150.084 160.588 150.012 160.98 150.012C161.476 150.012 161.908 150.136 162.276 150.384C162.652 150.624 162.896 150.944 163.008 151.344L162.888 151.644V150.792C162.888 150.544 162.952 150.356 163.08 150.228C163.216 150.1 163.4 150.036 163.632 150.036C163.872 150.036 164.056 150.1 164.184 150.228C164.312 150.356 164.376 150.544 164.376 150.792V155.412C164.376 156.364 164.124 157.08 163.62 157.56C163.116 158.04 162.384 158.28 161.424 158.28ZM161.388 154.716C161.7 154.716 161.968 154.644 162.192 154.5C162.416 154.356 162.588 154.152 162.708 153.888C162.836 153.616 162.9 153.296 162.9 152.928C162.9 152.376 162.764 151.944 162.492 151.632C162.22 151.312 161.852 151.152 161.388 151.152C161.076 151.152 160.808 151.224 160.584 151.368C160.36 151.512 160.184 151.716 160.056 151.98C159.936 152.244 159.876 152.56 159.876 152.928C159.876 153.48 160.012 153.916 160.284 154.236C160.556 154.556 160.924 154.716 161.388 154.716ZM170.124 156.096C169.876 156.096 169.68 156.028 169.536 155.892C169.4 155.748 169.332 155.544 169.332 155.28V148.356C169.332 148.092 169.4 147.892 169.536 147.756C169.68 147.612 169.884 147.54 170.148 147.54H174.336C174.544 147.54 174.7 147.592 174.804 147.696C174.908 147.8 174.96 147.948 174.96 148.14C174.96 148.34 174.908 148.496 174.804 148.608C174.7 148.712 174.544 148.764 174.336 148.764H170.868V151.152H174.084C174.284 151.152 174.436 151.204 174.54 151.308C174.652 151.412 174.708 151.56 174.708 151.752C174.708 151.952 174.652 152.108 174.54 152.22C174.436 152.324 174.284 152.376 174.084 152.376H170.868V155.28C170.868 155.824 170.62 156.096 170.124 156.096ZM177.898 156.12C177.41 156.12 177.006 156.032 176.686 155.856C176.366 155.672 176.126 155.4 175.966 155.04C175.814 154.68 175.738 154.232 175.738 153.696V150.792C175.738 150.536 175.802 150.348 175.93 150.228C176.058 150.1 176.242 150.036 176.482 150.036C176.722 150.036 176.906 150.1 177.034 150.228C177.17 150.348 177.238 150.536 177.238 150.792V153.72C177.238 154.136 177.322 154.444 177.49 154.644C177.658 154.844 177.926 154.944 178.294 154.944C178.694 154.944 179.022 154.808 179.278 154.536C179.534 154.256 179.662 153.888 179.662 153.432V150.792C179.662 150.536 179.726 150.348 179.854 150.228C179.982 150.1 180.166 150.036 180.406 150.036C180.646 150.036 180.83 150.1 180.958 150.228C181.094 150.348 181.162 150.536 181.162 150.792V155.328C181.162 155.84 180.918 156.096 180.43 156.096C180.198 156.096 180.018 156.032 179.89 155.904C179.762 155.768 179.698 155.576 179.698 155.328V154.416L179.866 154.776C179.698 155.208 179.442 155.54 179.098 155.772C178.762 156.004 178.362 156.12 177.898 156.12ZM184.727 156.12C184.063 156.12 183.563 155.932 183.227 155.556C182.891 155.172 182.723 154.612 182.723 153.876V148.2C182.723 147.952 182.787 147.764 182.915 147.636C183.043 147.508 183.227 147.444 183.467 147.444C183.707 147.444 183.891 147.508 184.019 147.636C184.155 147.764 184.223 147.952 184.223 148.2V153.804C184.223 154.172 184.299 154.444 184.451 154.62C184.611 154.796 184.835 154.884 185.123 154.884C185.187 154.884 185.247 154.884 185.303 154.884C185.359 154.876 185.415 154.868 185.471 154.86C185.583 154.844 185.659 154.876 185.699 154.956C185.739 155.028 185.759 155.18 185.759 155.412C185.759 155.612 185.719 155.768 185.639 155.88C185.559 155.992 185.427 156.06 185.243 156.084C185.163 156.092 185.079 156.1 184.991 156.108C184.903 156.116 184.815 156.12 184.727 156.12ZM188.559 156.12C187.895 156.12 187.395 155.932 187.059 155.556C186.723 155.172 186.555 154.612 186.555 153.876V148.2C186.555 147.952 186.619 147.764 186.747 147.636C186.875 147.508 187.059 147.444 187.299 147.444C187.539 147.444 187.723 147.508 187.851 147.636C187.987 147.764 188.055 147.952 188.055 148.2V153.804C188.055 154.172 188.131 154.444 188.283 154.62C188.443 154.796 188.667 154.884 188.955 154.884C189.019 154.884 189.079 154.884 189.135 154.884C189.191 154.876 189.247 154.868 189.303 154.86C189.415 154.844 189.491 154.876 189.531 154.956C189.571 155.028 189.591 155.18 189.591 155.412C189.591 155.612 189.551 155.768 189.471 155.88C189.391 155.992 189.259 156.06 189.075 156.084C188.995 156.092 188.911 156.1 188.823 156.108C188.735 156.116 188.647 156.12 188.559 156.12ZM194.605 156C194.341 156 194.137 155.932 193.993 155.796C193.857 155.652 193.789 155.448 193.789 155.184V148.356C193.789 148.092 193.857 147.892 193.993 147.756C194.137 147.612 194.341 147.54 194.605 147.54H196.933C198.349 147.54 199.441 147.904 200.209 148.632C200.985 149.36 201.373 150.404 201.373 151.764C201.373 152.444 201.273 153.048 201.073 153.576C200.881 154.096 200.593 154.536 200.209 154.896C199.833 155.256 199.369 155.532 198.817 155.724C198.273 155.908 197.645 156 196.933 156H194.605ZM195.325 154.728H196.837C197.333 154.728 197.761 154.668 198.121 154.548C198.489 154.42 198.793 154.236 199.033 153.996C199.281 153.748 199.465 153.44 199.585 153.072C199.705 152.696 199.765 152.26 199.765 151.764C199.765 150.772 199.521 150.032 199.033 149.544C198.545 149.056 197.813 148.812 196.837 148.812H195.325V154.728ZM204.718 156.12C204.294 156.12 203.914 156.04 203.578 155.88C203.25 155.712 202.99 155.488 202.798 155.208C202.614 154.928 202.522 154.612 202.522 154.26C202.522 153.828 202.634 153.488 202.858 153.24C203.082 152.984 203.446 152.8 203.95 152.688C204.454 152.576 205.13 152.52 205.978 152.52H206.578V153.384H205.99C205.494 153.384 205.098 153.408 204.802 153.456C204.506 153.504 204.294 153.588 204.166 153.708C204.046 153.82 203.986 153.98 203.986 154.188C203.986 154.452 204.078 154.668 204.262 154.836C204.446 155.004 204.702 155.088 205.03 155.088C205.294 155.088 205.526 155.028 205.726 154.908C205.934 154.78 206.098 154.608 206.218 154.392C206.338 154.176 206.398 153.928 206.398 153.648V152.268C206.398 151.868 206.31 151.58 206.134 151.404C205.958 151.228 205.662 151.14 205.246 151.14C205.014 151.14 204.762 151.168 204.49 151.224C204.226 151.28 203.946 151.376 203.65 151.512C203.498 151.584 203.362 151.604 203.242 151.572C203.13 151.54 203.042 151.476 202.978 151.38C202.914 151.276 202.882 151.164 202.882 151.044C202.882 150.924 202.914 150.808 202.978 150.696C203.042 150.576 203.15 150.488 203.302 150.432C203.67 150.28 204.022 150.172 204.358 150.108C204.702 150.044 205.014 150.012 205.294 150.012C205.87 150.012 206.342 150.1 206.71 150.276C207.086 150.452 207.366 150.72 207.55 151.08C207.734 151.432 207.826 151.888 207.826 152.448V155.328C207.826 155.576 207.766 155.768 207.646 155.904C207.526 156.032 207.354 156.096 207.13 156.096C206.906 156.096 206.73 156.032 206.602 155.904C206.482 155.768 206.422 155.576 206.422 155.328V154.752H206.518C206.462 155.032 206.35 155.276 206.182 155.484C206.022 155.684 205.818 155.84 205.57 155.952C205.322 156.064 205.038 156.12 204.718 156.12ZM210.778 158.256C210.602 158.256 210.458 158.208 210.346 158.112C210.234 158.024 210.166 157.904 210.142 157.752C210.126 157.6 210.154 157.44 210.226 157.272L211.042 155.46V156.084L208.858 151.032C208.786 150.856 208.762 150.692 208.786 150.54C208.81 150.388 208.882 150.268 209.002 150.18C209.13 150.084 209.302 150.036 209.518 150.036C209.702 150.036 209.85 150.08 209.962 150.168C210.074 150.248 210.174 150.404 210.262 150.636L211.882 154.68H211.522L213.178 150.624C213.266 150.4 213.37 150.248 213.49 150.168C213.61 150.08 213.77 150.036 213.97 150.036C214.146 150.036 214.286 150.084 214.39 150.18C214.494 150.268 214.558 150.388 214.582 150.54C214.606 150.684 214.578 150.844 214.498 151.02L211.582 157.68C211.478 157.904 211.366 158.056 211.246 158.136C211.126 158.216 210.97 158.256 210.778 158.256Z" fill="white"/>
<path d="M66 189C66 182.373 71.3726 177 78 177H254C260.627 177 266 182.373 266 189V207C266 213.627 260.627 219 254 219H78C71.3726 219 66 213.627 66 207V189Z" fill="#FFAA00"/>
<path d="M66 189C66 182.373 71.3726 177 78 177H254C260.627 177 266 182.373 266 189V207C266 213.627 260.627 219 254 219H78C71.3726 219 66 213.627 66 207V189Z" fill="url(#paint0_linear_999_3441)" fill-opacity="0.4"/>
<path d="M120.839 202.096C120.623 202.096 120.447 202.044 120.311 201.94C120.183 201.836 120.079 201.672 119.999 201.448L117.491 194.356C117.403 194.1 117.419 193.884 117.539 193.708C117.667 193.532 117.879 193.444 118.175 193.444C118.391 193.444 118.559 193.496 118.679 193.6C118.799 193.696 118.895 193.852 118.967 194.068L121.127 200.476H120.647L122.903 194.08C122.983 193.864 123.083 193.704 123.203 193.6C123.323 193.496 123.479 193.444 123.671 193.444C123.863 193.444 124.015 193.496 124.127 193.6C124.239 193.704 124.335 193.868 124.415 194.092L126.599 200.476H126.179L128.375 194.068C128.447 193.86 128.543 193.704 128.663 193.6C128.783 193.496 128.947 193.444 129.155 193.444C129.411 193.444 129.599 193.532 129.719 193.708C129.839 193.884 129.855 194.1 129.767 194.356L127.235 201.46C127.155 201.676 127.051 201.836 126.923 201.94C126.795 202.044 126.623 202.096 126.407 202.096C126.191 202.096 126.019 202.044 125.891 201.94C125.763 201.836 125.659 201.672 125.579 201.448L123.491 195.496H123.767L121.655 201.46C121.575 201.676 121.471 201.836 121.343 201.94C121.223 202.044 121.055 202.096 120.839 202.096ZM133.005 202.12C132.397 202.12 131.869 201.996 131.421 201.748C130.973 201.5 130.625 201.148 130.377 200.692C130.129 200.228 130.005 199.684 130.005 199.06C130.005 198.588 130.073 198.168 130.209 197.8C130.353 197.424 130.557 197.104 130.821 196.84C131.085 196.568 131.401 196.364 131.769 196.228C132.137 196.084 132.549 196.012 133.005 196.012C133.613 196.012 134.141 196.136 134.589 196.384C135.037 196.632 135.385 196.984 135.633 197.44C135.881 197.896 136.005 198.436 136.005 199.06C136.005 199.532 135.933 199.956 135.789 200.332C135.653 200.708 135.453 201.032 135.189 201.304C134.925 201.568 134.609 201.772 134.241 201.916C133.873 202.052 133.461 202.12 133.005 202.12ZM133.005 200.98C133.301 200.98 133.561 200.908 133.785 200.764C134.009 200.62 134.181 200.408 134.301 200.128C134.429 199.84 134.493 199.484 134.493 199.06C134.493 198.42 134.357 197.944 134.085 197.632C133.813 197.312 133.453 197.152 133.005 197.152C132.709 197.152 132.449 197.224 132.225 197.368C132.001 197.504 131.825 197.716 131.697 198.004C131.577 198.284 131.517 198.636 131.517 199.06C131.517 199.692 131.653 200.172 131.925 200.5C132.197 200.82 132.557 200.98 133.005 200.98ZM138.011 202.096C137.763 202.096 137.571 202.032 137.435 201.904C137.307 201.768 137.243 201.576 137.243 201.328V196.792C137.243 196.544 137.307 196.356 137.435 196.228C137.563 196.1 137.743 196.036 137.975 196.036C138.207 196.036 138.387 196.1 138.515 196.228C138.643 196.356 138.707 196.544 138.707 196.792V197.548H138.587C138.699 197.068 138.919 196.704 139.247 196.456C139.575 196.208 140.011 196.06 140.555 196.012C140.723 195.996 140.855 196.04 140.951 196.144C141.055 196.24 141.115 196.392 141.131 196.6C141.147 196.8 141.099 196.964 140.987 197.092C140.883 197.212 140.723 197.284 140.507 197.308L140.243 197.332C139.755 197.38 139.387 197.532 139.139 197.788C138.891 198.036 138.767 198.388 138.767 198.844V201.328C138.767 201.576 138.703 201.768 138.575 201.904C138.447 202.032 138.259 202.096 138.011 202.096ZM142.686 202.096C142.446 202.096 142.262 202.032 142.134 201.904C142.006 201.768 141.942 201.576 141.942 201.328V194.2C141.942 193.952 142.006 193.764 142.134 193.636C142.262 193.508 142.446 193.444 142.686 193.444C142.926 193.444 143.11 193.508 143.238 193.636C143.374 193.764 143.442 193.952 143.442 194.2V198.628H143.466L145.446 196.54C145.606 196.38 145.746 196.256 145.866 196.168C145.986 196.08 146.15 196.036 146.358 196.036C146.566 196.036 146.722 196.092 146.826 196.204C146.938 196.308 146.994 196.436 146.994 196.588C146.994 196.74 146.922 196.892 146.778 197.044L144.69 199.252V198.628L146.982 201.1C147.126 201.252 147.19 201.408 147.174 201.568C147.166 201.72 147.102 201.848 146.982 201.952C146.862 202.048 146.71 202.096 146.526 202.096C146.302 202.096 146.122 202.052 145.986 201.964C145.858 201.876 145.714 201.744 145.554 201.568L143.466 199.384H143.442V201.328C143.442 201.84 143.19 202.096 142.686 202.096ZM149.12 202.084C148.88 202.084 148.696 202.012 148.568 201.868C148.44 201.724 148.376 201.524 148.376 201.268V196.864C148.376 196.6 148.44 196.4 148.568 196.264C148.696 196.12 148.88 196.048 149.12 196.048C149.36 196.048 149.544 196.12 149.672 196.264C149.808 196.4 149.876 196.6 149.876 196.864V201.268C149.876 201.524 149.812 201.724 149.684 201.868C149.556 202.012 149.368 202.084 149.12 202.084ZM149.12 194.932C148.84 194.932 148.62 194.864 148.46 194.728C148.308 194.584 148.232 194.388 148.232 194.14C148.232 193.884 148.308 193.688 148.46 193.552C148.62 193.416 148.84 193.348 149.12 193.348C149.408 193.348 149.628 193.416 149.78 193.552C149.932 193.688 150.008 193.884 150.008 194.14C150.008 194.388 149.932 194.584 149.78 194.728C149.628 194.864 149.408 194.932 149.12 194.932ZM152.178 202.096C151.938 202.096 151.754 202.032 151.626 201.904C151.498 201.768 151.434 201.576 151.434 201.328V196.792C151.434 196.544 151.498 196.356 151.626 196.228C151.754 196.1 151.934 196.036 152.166 196.036C152.398 196.036 152.578 196.1 152.706 196.228C152.834 196.356 152.898 196.544 152.898 196.792V197.608L152.766 197.308C152.942 196.884 153.214 196.564 153.582 196.348C153.958 196.124 154.382 196.012 154.854 196.012C155.326 196.012 155.714 196.1 156.018 196.276C156.322 196.452 156.55 196.72 156.702 197.08C156.854 197.432 156.93 197.88 156.93 198.424V201.328C156.93 201.576 156.866 201.768 156.738 201.904C156.61 202.032 156.426 202.096 156.186 202.096C155.946 202.096 155.758 202.032 155.622 201.904C155.494 201.768 155.43 201.576 155.43 201.328V198.496C155.43 198.04 155.342 197.708 155.166 197.5C154.998 197.292 154.734 197.188 154.374 197.188C153.934 197.188 153.582 197.328 153.318 197.608C153.062 197.88 152.934 198.244 152.934 198.7V201.328C152.934 201.84 152.682 202.096 152.178 202.096ZM161.19 204.28C160.758 204.28 160.338 204.24 159.93 204.16C159.53 204.08 159.166 203.956 158.838 203.788C158.686 203.708 158.582 203.612 158.526 203.5C158.478 203.388 158.462 203.272 158.478 203.152C158.502 203.04 158.55 202.94 158.622 202.852C158.702 202.764 158.798 202.704 158.91 202.672C159.022 202.64 159.138 202.656 159.258 202.72C159.61 202.896 159.942 203.008 160.254 203.056C160.574 203.112 160.846 203.14 161.07 203.14C161.606 203.14 162.006 203.008 162.27 202.744C162.542 202.488 162.678 202.104 162.678 201.592V200.512H162.786C162.666 200.92 162.414 201.248 162.03 201.496C161.654 201.736 161.226 201.856 160.746 201.856C160.218 201.856 159.758 201.736 159.366 201.496C158.974 201.248 158.67 200.904 158.454 200.464C158.238 200.024 158.13 199.512 158.13 198.928C158.13 198.488 158.19 198.092 158.31 197.74C158.438 197.38 158.614 197.072 158.838 196.816C159.07 196.56 159.346 196.364 159.666 196.228C159.994 196.084 160.354 196.012 160.746 196.012C161.242 196.012 161.674 196.136 162.042 196.384C162.418 196.624 162.662 196.944 162.774 197.344L162.654 197.644V196.792C162.654 196.544 162.718 196.356 162.846 196.228C162.982 196.1 163.166 196.036 163.398 196.036C163.638 196.036 163.822 196.1 163.95 196.228C164.078 196.356 164.142 196.544 164.142 196.792V201.412C164.142 202.364 163.89 203.08 163.386 203.56C162.882 204.04 162.15 204.28 161.19 204.28ZM161.154 200.716C161.466 200.716 161.734 200.644 161.958 200.5C162.182 200.356 162.354 200.152 162.474 199.888C162.602 199.616 162.666 199.296 162.666 198.928C162.666 198.376 162.53 197.944 162.258 197.632C161.986 197.312 161.618 197.152 161.154 197.152C160.842 197.152 160.574 197.224 160.35 197.368C160.126 197.512 159.95 197.716 159.822 197.98C159.702 198.244 159.642 198.56 159.642 198.928C159.642 199.48 159.778 199.916 160.05 200.236C160.322 200.556 160.69 200.716 161.154 200.716ZM169.698 202.096C169.458 202.096 169.274 202.032 169.146 201.904C169.018 201.768 168.954 201.576 168.954 201.328V194.2C168.954 193.952 169.018 193.764 169.146 193.636C169.274 193.508 169.458 193.444 169.698 193.444C169.938 193.444 170.122 193.508 170.25 193.636C170.386 193.764 170.454 193.952 170.454 194.2V197.308H170.286C170.462 196.884 170.734 196.564 171.102 196.348C171.478 196.124 171.902 196.012 172.374 196.012C172.846 196.012 173.234 196.1 173.538 196.276C173.842 196.452 174.07 196.72 174.222 197.08C174.374 197.432 174.45 197.88 174.45 198.424V201.328C174.45 201.576 174.386 201.768 174.258 201.904C174.13 202.032 173.946 202.096 173.706 202.096C173.466 202.096 173.278 202.032 173.142 201.904C173.014 201.768 172.95 201.576 172.95 201.328V198.496C172.95 198.04 172.862 197.708 172.686 197.5C172.518 197.292 172.254 197.188 171.894 197.188C171.454 197.188 171.102 197.328 170.838 197.608C170.582 197.88 170.454 198.244 170.454 198.7V201.328C170.454 201.84 170.202 202.096 169.698 202.096ZM177.905 202.12C177.481 202.12 177.101 202.04 176.765 201.88C176.437 201.712 176.177 201.488 175.985 201.208C175.801 200.928 175.709 200.612 175.709 200.26C175.709 199.828 175.821 199.488 176.045 199.24C176.269 198.984 176.633 198.8 177.137 198.688C177.641 198.576 178.317 198.52 179.165 198.52H179.765V199.384H179.177C178.681 199.384 178.285 199.408 177.989 199.456C177.693 199.504 177.481 199.588 177.353 199.708C177.233 199.82 177.173 199.98 177.173 200.188C177.173 200.452 177.265 200.668 177.449 200.836C177.633 201.004 177.889 201.088 178.217 201.088C178.481 201.088 178.713 201.028 178.913 200.908C179.121 200.78 179.285 200.608 179.405 200.392C179.525 200.176 179.585 199.928 179.585 199.648V198.268C179.585 197.868 179.497 197.58 179.321 197.404C179.145 197.228 178.849 197.14 178.433 197.14C178.201 197.14 177.949 197.168 177.677 197.224C177.413 197.28 177.133 197.376 176.837 197.512C176.685 197.584 176.549 197.604 176.429 197.572C176.317 197.54 176.229 197.476 176.165 197.38C176.101 197.276 176.069 197.164 176.069 197.044C176.069 196.924 176.101 196.808 176.165 196.696C176.229 196.576 176.337 196.488 176.489 196.432C176.857 196.28 177.209 196.172 177.545 196.108C177.889 196.044 178.201 196.012 178.481 196.012C179.057 196.012 179.529 196.1 179.897 196.276C180.273 196.452 180.553 196.72 180.737 197.08C180.921 197.432 181.013 197.888 181.013 198.448V201.328C181.013 201.576 180.953 201.768 180.833 201.904C180.713 202.032 180.541 202.096 180.317 202.096C180.093 202.096 179.917 202.032 179.789 201.904C179.669 201.768 179.609 201.576 179.609 201.328V200.752H179.705C179.649 201.032 179.537 201.276 179.369 201.484C179.209 201.684 179.005 201.84 178.757 201.952C178.509 202.064 178.225 202.12 177.905 202.12ZM184.54 202.12C183.876 202.12 183.376 201.932 183.04 201.556C182.704 201.172 182.536 200.612 182.536 199.876V194.2C182.536 193.952 182.6 193.764 182.728 193.636C182.856 193.508 183.04 193.444 183.28 193.444C183.52 193.444 183.704 193.508 183.832 193.636C183.968 193.764 184.036 193.952 184.036 194.2V199.804C184.036 200.172 184.112 200.444 184.264 200.62C184.424 200.796 184.648 200.884 184.936 200.884C185 200.884 185.06 200.884 185.116 200.884C185.172 200.876 185.228 200.868 185.284 200.86C185.396 200.844 185.472 200.876 185.512 200.956C185.552 201.028 185.572 201.18 185.572 201.412C185.572 201.612 185.532 201.768 185.452 201.88C185.372 201.992 185.24 202.06 185.056 202.084C184.976 202.092 184.892 202.1 184.804 202.108C184.716 202.116 184.628 202.12 184.54 202.12ZM187.403 202.096C187.163 202.096 186.975 202.032 186.839 201.904C186.711 201.768 186.647 201.576 186.647 201.328V197.26H186.095C185.903 197.26 185.755 197.212 185.651 197.116C185.547 197.012 185.495 196.872 185.495 196.696C185.495 196.512 185.547 196.372 185.651 196.276C185.755 196.18 185.903 196.132 186.095 196.132H187.079L186.647 196.528V196.12C186.647 195.296 186.855 194.68 187.271 194.272C187.687 193.856 188.287 193.612 189.071 193.54L189.479 193.504C189.639 193.488 189.767 193.516 189.863 193.588C189.959 193.652 190.023 193.74 190.055 193.852C190.087 193.956 190.091 194.064 190.067 194.176C190.043 194.288 189.991 194.388 189.911 194.476C189.839 194.556 189.743 194.6 189.623 194.608L189.455 194.62C188.999 194.652 188.667 194.768 188.459 194.968C188.251 195.168 188.147 195.472 188.147 195.88V196.324L187.955 196.132H189.167C189.359 196.132 189.507 196.18 189.611 196.276C189.715 196.372 189.767 196.512 189.767 196.696C189.767 196.872 189.715 197.012 189.611 197.116C189.507 197.212 189.359 197.26 189.167 197.26H188.147V201.328C188.147 201.84 187.899 202.096 187.403 202.096ZM194.84 202C194.576 202 194.372 201.932 194.228 201.796C194.092 201.652 194.024 201.448 194.024 201.184V194.356C194.024 194.092 194.092 193.892 194.228 193.756C194.372 193.612 194.576 193.54 194.84 193.54H197.168C198.584 193.54 199.676 193.904 200.444 194.632C201.22 195.36 201.608 196.404 201.608 197.764C201.608 198.444 201.508 199.048 201.308 199.576C201.116 200.096 200.828 200.536 200.444 200.896C200.068 201.256 199.604 201.532 199.052 201.724C198.508 201.908 197.88 202 197.168 202H194.84ZM195.56 200.728H197.072C197.568 200.728 197.996 200.668 198.356 200.548C198.724 200.42 199.028 200.236 199.268 199.996C199.516 199.748 199.7 199.44 199.82 199.072C199.94 198.696 200 198.26 200 197.764C200 196.772 199.756 196.032 199.268 195.544C198.78 195.056 198.048 194.812 197.072 194.812H195.56V200.728ZM204.952 202.12C204.528 202.12 204.148 202.04 203.812 201.88C203.484 201.712 203.224 201.488 203.032 201.208C202.848 200.928 202.756 200.612 202.756 200.26C202.756 199.828 202.868 199.488 203.092 199.24C203.316 198.984 203.68 198.8 204.184 198.688C204.688 198.576 205.364 198.52 206.212 198.52H206.812V199.384H206.224C205.728 199.384 205.332 199.408 205.036 199.456C204.74 199.504 204.528 199.588 204.4 199.708C204.28 199.82 204.22 199.98 204.22 200.188C204.22 200.452 204.312 200.668 204.496 200.836C204.68 201.004 204.936 201.088 205.264 201.088C205.528 201.088 205.76 201.028 205.96 200.908C206.168 200.78 206.332 200.608 206.452 200.392C206.572 200.176 206.632 199.928 206.632 199.648V198.268C206.632 197.868 206.544 197.58 206.368 197.404C206.192 197.228 205.896 197.14 205.48 197.14C205.248 197.14 204.996 197.168 204.724 197.224C204.46 197.28 204.18 197.376 203.884 197.512C203.732 197.584 203.596 197.604 203.476 197.572C203.364 197.54 203.276 197.476 203.212 197.38C203.148 197.276 203.116 197.164 203.116 197.044C203.116 196.924 203.148 196.808 203.212 196.696C203.276 196.576 203.384 196.488 203.536 196.432C203.904 196.28 204.256 196.172 204.592 196.108C204.936 196.044 205.248 196.012 205.528 196.012C206.104 196.012 206.576 196.1 206.944 196.276C207.32 196.452 207.6 196.72 207.784 197.08C207.968 197.432 208.06 197.888 208.06 198.448V201.328C208.06 201.576 208 201.768 207.88 201.904C207.76 202.032 207.588 202.096 207.364 202.096C207.14 202.096 206.964 202.032 206.836 201.904C206.716 201.768 206.656 201.576 206.656 201.328V200.752H206.752C206.696 201.032 206.584 201.276 206.416 201.484C206.256 201.684 206.052 201.84 205.804 201.952C205.556 202.064 205.272 202.12 204.952 202.12ZM211.012 204.256C210.836 204.256 210.692 204.208 210.58 204.112C210.468 204.024 210.4 203.904 210.376 203.752C210.36 203.6 210.388 203.44 210.46 203.272L211.276 201.46V202.084L209.092 197.032C209.02 196.856 208.996 196.692 209.02 196.54C209.044 196.388 209.116 196.268 209.236 196.18C209.364 196.084 209.536 196.036 209.752 196.036C209.936 196.036 210.084 196.08 210.196 196.168C210.308 196.248 210.408 196.404 210.496 196.636L212.116 200.68H211.756L213.412 196.624C213.5 196.4 213.604 196.248 213.724 196.168C213.844 196.08 214.004 196.036 214.204 196.036C214.38 196.036 214.52 196.084 214.624 196.18C214.728 196.268 214.792 196.388 214.816 196.54C214.84 196.684 214.812 196.844 214.732 197.02L211.816 203.68C211.712 203.904 211.6 204.056 211.48 204.136C211.36 204.216 211.204 204.256 211.012 204.256Z" fill="white"/>
<path d="M66 235C66 228.373 71.3726 223 78 223H254C260.627 223 266 228.373 266 235V253C266 259.627 260.627 265 254 265H78C71.3726 265 66 259.627 66 253V235Z" fill="#EE6909"/>
<path d="M136.267 248.096C136.035 248.096 135.855 248.032 135.727 247.904C135.607 247.776 135.547 247.592 135.547 247.352V240.212C135.547 239.964 135.607 239.776 135.727 239.648C135.855 239.512 136.019 239.444 136.219 239.444C136.403 239.444 136.539 239.48 136.627 239.552C136.723 239.616 136.835 239.728 136.963 239.888L141.559 245.852H141.247V240.176C141.247 239.944 141.307 239.764 141.427 239.636C141.555 239.508 141.735 239.444 141.967 239.444C142.199 239.444 142.375 239.508 142.495 239.636C142.615 239.764 142.675 239.944 142.675 240.176V247.376C142.675 247.6 142.619 247.776 142.507 247.904C142.395 248.032 142.243 248.096 142.051 248.096C141.867 248.096 141.719 248.06 141.607 247.988C141.503 247.916 141.387 247.8 141.259 247.64L136.675 241.676H136.975V247.352C136.975 247.592 136.915 247.776 136.795 247.904C136.675 248.032 136.499 248.096 136.267 248.096ZM147.056 248.12C146.448 248.12 145.92 247.996 145.472 247.748C145.024 247.5 144.676 247.148 144.428 246.692C144.18 246.228 144.056 245.684 144.056 245.06C144.056 244.588 144.124 244.168 144.26 243.8C144.404 243.424 144.608 243.104 144.872 242.84C145.136 242.568 145.452 242.364 145.82 242.228C146.188 242.084 146.6 242.012 147.056 242.012C147.664 242.012 148.192 242.136 148.64 242.384C149.088 242.632 149.436 242.984 149.684 243.44C149.932 243.896 150.056 244.436 150.056 245.06C150.056 245.532 149.984 245.956 149.84 246.332C149.704 246.708 149.504 247.032 149.24 247.304C148.976 247.568 148.66 247.772 148.292 247.916C147.924 248.052 147.512 248.12 147.056 248.12ZM147.056 246.98C147.352 246.98 147.612 246.908 147.836 246.764C148.06 246.62 148.232 246.408 148.352 246.128C148.48 245.84 148.544 245.484 148.544 245.06C148.544 244.42 148.408 243.944 148.136 243.632C147.864 243.312 147.504 243.152 147.056 243.152C146.76 243.152 146.5 243.224 146.276 243.368C146.052 243.504 145.876 243.716 145.748 244.004C145.628 244.284 145.568 244.636 145.568 245.06C145.568 245.692 145.704 246.172 145.976 246.5C146.248 246.82 146.608 246.98 147.056 246.98ZM153.923 248.12C153.403 248.12 152.967 248.032 152.615 247.856C152.271 247.68 152.015 247.424 151.847 247.088C151.679 246.744 151.595 246.32 151.595 245.816V243.26H150.971C150.779 243.26 150.631 243.212 150.527 243.116C150.423 243.012 150.371 242.872 150.371 242.696C150.371 242.512 150.423 242.372 150.527 242.276C150.631 242.18 150.779 242.132 150.971 242.132H151.595V241.04C151.595 240.792 151.659 240.604 151.787 240.476C151.923 240.348 152.111 240.284 152.351 240.284C152.591 240.284 152.775 240.348 152.903 240.476C153.031 240.604 153.095 240.792 153.095 241.04V242.132H154.367C154.559 242.132 154.707 242.18 154.811 242.276C154.915 242.372 154.967 242.512 154.967 242.696C154.967 242.872 154.915 243.012 154.811 243.116C154.707 243.212 154.559 243.26 154.367 243.26H153.095V245.732C153.095 246.116 153.179 246.404 153.347 246.596C153.515 246.788 153.787 246.884 154.163 246.884C154.299 246.884 154.419 246.872 154.523 246.848C154.627 246.824 154.719 246.808 154.799 246.8C154.895 246.792 154.975 246.824 155.039 246.896C155.103 246.96 155.135 247.096 155.135 247.304C155.135 247.464 155.107 247.608 155.051 247.736C155.003 247.856 154.911 247.94 154.775 247.988C154.671 248.02 154.535 248.048 154.367 248.072C154.199 248.104 154.051 248.12 153.923 248.12ZM156.334 245.384C156.158 245.384 156.01 245.328 155.89 245.216C155.778 245.096 155.722 244.952 155.722 244.784C155.722 244.608 155.778 244.464 155.89 244.352C156.01 244.24 156.158 244.184 156.334 244.184H158.89C159.058 244.184 159.198 244.24 159.31 244.352C159.43 244.464 159.49 244.608 159.49 244.784C159.49 244.952 159.43 245.096 159.31 245.216C159.198 245.328 159.058 245.384 158.89 245.384H156.334ZM161.945 248C161.681 248 161.477 247.932 161.333 247.796C161.197 247.652 161.129 247.448 161.129 247.184V240.356C161.129 240.092 161.197 239.892 161.333 239.756C161.477 239.612 161.681 239.54 161.945 239.54H164.273C165.689 239.54 166.781 239.904 167.549 240.632C168.325 241.36 168.713 242.404 168.713 243.764C168.713 244.444 168.613 245.048 168.413 245.576C168.221 246.096 167.933 246.536 167.549 246.896C167.173 247.256 166.709 247.532 166.157 247.724C165.613 247.908 164.985 248 164.273 248H161.945ZM162.665 246.728H164.177C164.673 246.728 165.101 246.668 165.461 246.548C165.829 246.42 166.133 246.236 166.373 245.996C166.621 245.748 166.805 245.44 166.925 245.072C167.045 244.696 167.105 244.26 167.105 243.764C167.105 242.772 166.861 242.032 166.373 241.544C165.885 241.056 165.153 240.812 164.177 240.812H162.665V246.728ZM173.018 248.12C172.354 248.12 171.782 247.996 171.302 247.748C170.822 247.5 170.45 247.148 170.186 246.692C169.93 246.236 169.802 245.696 169.802 245.072C169.802 244.464 169.926 243.932 170.174 243.476C170.43 243.02 170.778 242.664 171.218 242.408C171.666 242.144 172.174 242.012 172.742 242.012C173.158 242.012 173.53 242.08 173.858 242.216C174.194 242.352 174.478 242.548 174.71 242.804C174.95 243.06 175.13 243.372 175.25 243.74C175.378 244.1 175.442 244.508 175.442 244.964C175.442 245.108 175.39 245.22 175.286 245.3C175.19 245.372 175.05 245.408 174.866 245.408H171.014V244.544H174.386L174.194 244.724C174.194 244.356 174.138 244.048 174.026 243.8C173.922 243.552 173.766 243.364 173.558 243.236C173.358 243.1 173.106 243.032 172.802 243.032C172.466 243.032 172.178 243.112 171.938 243.272C171.706 243.424 171.526 243.644 171.398 243.932C171.278 244.212 171.218 244.548 171.218 244.94V245.024C171.218 245.68 171.37 246.172 171.674 246.5C171.986 246.82 172.442 246.98 173.042 246.98C173.25 246.98 173.482 246.956 173.738 246.908C174.002 246.852 174.25 246.76 174.482 246.632C174.65 246.536 174.798 246.496 174.926 246.512C175.054 246.52 175.154 246.564 175.226 246.644C175.306 246.724 175.354 246.824 175.37 246.944C175.386 247.056 175.362 247.172 175.298 247.292C175.242 247.412 175.142 247.516 174.998 247.604C174.718 247.78 174.394 247.912 174.026 248C173.666 248.08 173.33 248.12 173.018 248.12ZM177.758 248.096C177.518 248.096 177.33 248.032 177.194 247.904C177.066 247.768 177.002 247.576 177.002 247.328V243.26H176.45C176.258 243.26 176.11 243.212 176.006 243.116C175.902 243.012 175.85 242.872 175.85 242.696C175.85 242.512 175.902 242.372 176.006 242.276C176.11 242.18 176.258 242.132 176.45 242.132H177.434L177.002 242.528V242.12C177.002 241.312 177.206 240.7 177.614 240.284C178.022 239.868 178.614 239.62 179.39 239.54L179.75 239.504C179.934 239.488 180.078 239.512 180.182 239.576C180.294 239.64 180.366 239.728 180.398 239.84C180.438 239.944 180.446 240.056 180.422 240.176C180.398 240.288 180.35 240.388 180.278 240.476C180.206 240.556 180.114 240.6 180.002 240.608L179.714 240.632C179.29 240.664 178.982 240.78 178.79 240.98C178.598 241.18 178.502 241.48 178.502 241.88V242.324L178.31 242.132H181.634C181.874 242.132 182.058 242.204 182.186 242.348C182.314 242.484 182.378 242.68 182.378 242.936V247.268C182.378 247.524 182.314 247.724 182.186 247.868C182.066 248.012 181.882 248.084 181.634 248.084C181.394 248.084 181.206 248.012 181.07 247.868C180.942 247.724 180.878 247.524 180.878 247.268V243.26H178.502V247.328C178.502 247.84 178.254 248.096 177.758 248.096ZM181.658 240.932C181.386 240.932 181.174 240.864 181.022 240.728C180.878 240.584 180.806 240.388 180.806 240.14C180.806 239.884 180.878 239.688 181.022 239.552C181.174 239.416 181.386 239.348 181.658 239.348C181.938 239.348 182.15 239.416 182.294 239.552C182.446 239.688 182.522 239.884 182.522 240.14C182.522 240.388 182.446 240.584 182.294 240.728C182.15 240.864 181.938 240.932 181.658 240.932ZM184.686 248.096C184.446 248.096 184.262 248.032 184.134 247.904C184.006 247.768 183.942 247.576 183.942 247.328V242.792C183.942 242.544 184.006 242.356 184.134 242.228C184.262 242.1 184.442 242.036 184.674 242.036C184.906 242.036 185.086 242.1 185.214 242.228C185.342 242.356 185.406 242.544 185.406 242.792V243.608L185.274 243.308C185.45 242.884 185.722 242.564 186.09 242.348C186.466 242.124 186.89 242.012 187.362 242.012C187.834 242.012 188.222 242.1 188.526 242.276C188.83 242.452 189.058 242.72 189.21 243.08C189.362 243.432 189.438 243.88 189.438 244.424V247.328C189.438 247.576 189.374 247.768 189.246 247.904C189.118 248.032 188.934 248.096 188.694 248.096C188.454 248.096 188.266 248.032 188.13 247.904C188.002 247.768 187.938 247.576 187.938 247.328V244.496C187.938 244.04 187.85 243.708 187.674 243.5C187.506 243.292 187.242 243.188 186.882 243.188C186.442 243.188 186.09 243.328 185.826 243.608C185.57 243.88 185.442 244.244 185.442 244.7V247.328C185.442 247.84 185.19 248.096 184.686 248.096ZM193.218 248.12C192.706 248.12 192.254 247.996 191.862 247.748C191.478 247.5 191.178 247.148 190.962 246.692C190.746 246.228 190.638 245.684 190.638 245.06C190.638 244.428 190.746 243.888 190.962 243.44C191.178 242.984 191.478 242.632 191.862 242.384C192.254 242.136 192.706 242.012 193.218 242.012C193.706 242.012 194.13 242.132 194.49 242.372C194.858 242.612 195.106 242.928 195.234 243.32H195.102V240.2C195.102 239.952 195.166 239.764 195.294 239.636C195.422 239.508 195.606 239.444 195.846 239.444C196.086 239.444 196.27 239.508 196.398 239.636C196.534 239.764 196.602 239.952 196.602 240.2V247.328C196.602 247.576 196.538 247.768 196.41 247.904C196.282 248.032 196.098 248.096 195.858 248.096C195.618 248.096 195.434 248.032 195.306 247.904C195.178 247.768 195.114 247.576 195.114 247.328V246.392L195.246 246.752C195.126 247.168 194.882 247.5 194.514 247.748C194.146 247.996 193.714 248.12 193.218 248.12ZM193.638 246.98C193.934 246.98 194.194 246.908 194.418 246.764C194.642 246.62 194.814 246.408 194.934 246.128C195.062 245.84 195.126 245.484 195.126 245.06C195.126 244.42 194.99 243.944 194.718 243.632C194.446 243.312 194.086 243.152 193.638 243.152C193.342 243.152 193.082 243.224 192.858 243.368C192.634 243.504 192.458 243.716 192.33 244.004C192.21 244.284 192.15 244.636 192.15 245.06C192.15 245.692 192.286 246.172 192.558 246.5C192.83 246.82 193.19 246.98 193.638 246.98Z" fill="white"/>
</g>
<path d="M163.457 58.0665C164.632 56.1877 167.368 56.1877 168.543 58.0665L174.387 67.4092C175.637 69.4073 174.2 72 171.843 72H160.157C157.8 72 156.363 69.4073 157.613 67.4092L163.457 58.0665Z" fill="white"/>
</g>
<path d="M60 12C60 5.37258 65.3726 0 72 0H248C254.627 0 260 5.37258 260 12V30C260 36.6274 254.627 42 248 42H72C65.3726 42 60 36.6274 60 30V12Z" fill="#64728C" fill-opacity="0.12"/>
<path d="M108.293 25.12C107.941 25.12 107.589 25.092 107.237 25.036C106.885 24.988 106.553 24.912 106.241 24.808C105.929 24.696 105.649 24.56 105.401 24.4C105.257 24.304 105.157 24.188 105.101 24.052C105.045 23.916 105.025 23.784 105.041 23.656C105.065 23.52 105.117 23.404 105.197 23.308C105.285 23.204 105.393 23.14 105.521 23.116C105.649 23.092 105.789 23.128 105.941 23.224C106.293 23.432 106.665 23.584 107.057 23.68C107.449 23.776 107.861 23.824 108.293 23.824C108.925 23.824 109.385 23.72 109.673 23.512C109.961 23.296 110.105 23.02 110.105 22.684C110.105 22.404 110.001 22.184 109.793 22.024C109.593 21.864 109.245 21.732 108.749 21.628L107.429 21.352C106.669 21.192 106.101 20.924 105.725 20.548C105.357 20.164 105.173 19.66 105.173 19.036C105.173 18.644 105.253 18.288 105.413 17.968C105.573 17.648 105.797 17.372 106.085 17.14C106.381 16.908 106.729 16.732 107.129 16.612C107.537 16.484 107.985 16.42 108.473 16.42C108.953 16.42 109.409 16.48 109.841 16.6C110.273 16.72 110.661 16.896 111.005 17.128C111.133 17.216 111.217 17.324 111.257 17.452C111.305 17.58 111.317 17.708 111.293 17.836C111.269 17.956 111.213 18.06 111.125 18.148C111.037 18.236 110.925 18.288 110.789 18.304C110.661 18.32 110.513 18.28 110.345 18.184C110.049 18.016 109.749 17.896 109.445 17.824C109.141 17.752 108.813 17.716 108.461 17.716C108.093 17.716 107.777 17.768 107.513 17.872C107.249 17.976 107.045 18.124 106.901 18.316C106.765 18.5 106.697 18.72 106.697 18.976C106.697 19.264 106.793 19.496 106.985 19.672C107.177 19.84 107.505 19.972 107.969 20.068L109.277 20.344C110.069 20.512 110.657 20.776 111.041 21.136C111.433 21.496 111.629 21.976 111.629 22.576C111.629 22.96 111.549 23.308 111.389 23.62C111.237 23.932 111.013 24.2 110.717 24.424C110.429 24.648 110.081 24.82 109.673 24.94C109.265 25.06 108.805 25.12 108.293 25.12ZM115.695 25.12C115.031 25.12 114.459 24.996 113.979 24.748C113.499 24.5 113.127 24.148 112.863 23.692C112.607 23.236 112.479 22.696 112.479 22.072C112.479 21.464 112.603 20.932 112.851 20.476C113.107 20.02 113.455 19.664 113.895 19.408C114.343 19.144 114.851 19.012 115.419 19.012C115.835 19.012 116.207 19.08 116.535 19.216C116.871 19.352 117.155 19.548 117.387 19.804C117.627 20.06 117.807 20.372 117.927 20.74C118.055 21.1 118.119 21.508 118.119 21.964C118.119 22.108 118.067 22.22 117.963 22.3C117.867 22.372 117.727 22.408 117.543 22.408H113.691V21.544H117.063L116.871 21.724C116.871 21.356 116.815 21.048 116.703 20.8C116.599 20.552 116.443 20.364 116.235 20.236C116.035 20.1 115.783 20.032 115.479 20.032C115.143 20.032 114.855 20.112 114.615 20.272C114.383 20.424 114.203 20.644 114.075 20.932C113.955 21.212 113.895 21.548 113.895 21.94V22.024C113.895 22.68 114.047 23.172 114.351 23.5C114.663 23.82 115.119 23.98 115.719 23.98C115.927 23.98 116.159 23.956 116.415 23.908C116.679 23.852 116.927 23.76 117.159 23.632C117.327 23.536 117.475 23.496 117.603 23.512C117.731 23.52 117.831 23.564 117.903 23.644C117.983 23.724 118.031 23.824 118.047 23.944C118.063 24.056 118.039 24.172 117.975 24.292C117.919 24.412 117.819 24.516 117.675 24.604C117.395 24.78 117.071 24.912 116.703 25C116.343 25.08 116.007 25.12 115.695 25.12ZM121.311 25.12C120.647 25.12 120.147 24.932 119.811 24.556C119.475 24.172 119.307 23.612 119.307 22.876V17.2C119.307 16.952 119.371 16.764 119.499 16.636C119.627 16.508 119.811 16.444 120.051 16.444C120.291 16.444 120.475 16.508 120.603 16.636C120.739 16.764 120.807 16.952 120.807 17.2V22.804C120.807 23.172 120.883 23.444 121.035 23.62C121.195 23.796 121.419 23.884 121.707 23.884C121.771 23.884 121.831 23.884 121.887 23.884C121.943 23.876 121.999 23.868 122.055 23.86C122.167 23.844 122.243 23.876 122.283 23.956C122.323 24.028 122.343 24.18 122.343 24.412C122.343 24.612 122.303 24.768 122.223 24.88C122.143 24.992 122.011 25.06 121.827 25.084C121.747 25.092 121.663 25.1 121.575 25.108C121.487 25.116 121.399 25.12 121.311 25.12ZM125.973 25.12C125.309 25.12 124.737 24.996 124.257 24.748C123.777 24.5 123.405 24.148 123.141 23.692C122.885 23.236 122.757 22.696 122.757 22.072C122.757 21.464 122.881 20.932 123.129 20.476C123.385 20.02 123.733 19.664 124.173 19.408C124.621 19.144 125.129 19.012 125.697 19.012C126.113 19.012 126.485 19.08 126.813 19.216C127.149 19.352 127.433 19.548 127.665 19.804C127.905 20.06 128.085 20.372 128.205 20.74C128.333 21.1 128.397 21.508 128.397 21.964C128.397 22.108 128.345 22.22 128.241 22.3C128.145 22.372 128.005 22.408 127.821 22.408H123.969V21.544H127.341L127.149 21.724C127.149 21.356 127.093 21.048 126.981 20.8C126.877 20.552 126.721 20.364 126.513 20.236C126.313 20.1 126.061 20.032 125.757 20.032C125.421 20.032 125.133 20.112 124.893 20.272C124.661 20.424 124.481 20.644 124.353 20.932C124.233 21.212 124.173 21.548 124.173 21.94V22.024C124.173 22.68 124.325 23.172 124.629 23.5C124.941 23.82 125.397 23.98 125.997 23.98C126.205 23.98 126.437 23.956 126.693 23.908C126.957 23.852 127.205 23.76 127.437 23.632C127.605 23.536 127.753 23.496 127.881 23.512C128.009 23.52 128.109 23.564 128.181 23.644C128.261 23.724 128.309 23.824 128.325 23.944C128.341 24.056 128.317 24.172 128.253 24.292C128.197 24.412 128.097 24.516 127.953 24.604C127.673 24.78 127.349 24.912 126.981 25C126.621 25.08 126.285 25.12 125.973 25.12ZM132.297 25.12C131.681 25.12 131.145 24.996 130.689 24.748C130.233 24.492 129.881 24.132 129.633 23.668C129.385 23.204 129.261 22.66 129.261 22.036C129.261 21.564 129.329 21.144 129.465 20.776C129.609 20.4 129.813 20.084 130.077 19.828C130.341 19.564 130.661 19.364 131.037 19.228C131.413 19.084 131.833 19.012 132.297 19.012C132.561 19.012 132.845 19.048 133.149 19.12C133.461 19.192 133.753 19.312 134.025 19.48C134.153 19.56 134.237 19.656 134.277 19.768C134.317 19.88 134.325 19.996 134.301 20.116C134.277 20.228 134.225 20.328 134.145 20.416C134.073 20.496 133.981 20.548 133.869 20.572C133.757 20.588 133.633 20.56 133.497 20.488C133.321 20.384 133.141 20.308 132.957 20.26C132.773 20.204 132.597 20.176 132.429 20.176C132.165 20.176 131.933 20.22 131.733 20.308C131.533 20.388 131.361 20.508 131.217 20.668C131.081 20.82 130.977 21.012 130.905 21.244C130.833 21.476 130.797 21.744 130.797 22.048C130.797 22.64 130.937 23.108 131.217 23.452C131.505 23.788 131.909 23.956 132.429 23.956C132.597 23.956 132.769 23.932 132.945 23.884C133.129 23.836 133.313 23.76 133.497 23.656C133.633 23.584 133.753 23.56 133.857 23.584C133.969 23.608 134.061 23.664 134.133 23.752C134.205 23.832 134.249 23.932 134.265 24.052C134.281 24.164 134.265 24.276 134.217 24.388C134.177 24.5 134.097 24.592 133.977 24.664C133.713 24.824 133.433 24.94 133.137 25.012C132.841 25.084 132.561 25.12 132.297 25.12ZM137.956 25.12C137.436 25.12 137 25.032 136.648 24.856C136.304 24.68 136.048 24.424 135.88 24.088C135.712 23.744 135.628 23.32 135.628 22.816V20.26H135.004C134.812 20.26 134.664 20.212 134.56 20.116C134.456 20.012 134.404 19.872 134.404 19.696C134.404 19.512 134.456 19.372 134.56 19.276C134.664 19.18 134.812 19.132 135.004 19.132H135.628V18.04C135.628 17.792 135.692 17.604 135.82 17.476C135.956 17.348 136.144 17.284 136.384 17.284C136.624 17.284 136.808 17.348 136.936 17.476C137.064 17.604 137.128 17.792 137.128 18.04V19.132H138.4C138.592 19.132 138.74 19.18 138.844 19.276C138.948 19.372 139 19.512 139 19.696C139 19.872 138.948 20.012 138.844 20.116C138.74 20.212 138.592 20.26 138.4 20.26H137.128V22.732C137.128 23.116 137.212 23.404 137.38 23.596C137.548 23.788 137.82 23.884 138.196 23.884C138.332 23.884 138.452 23.872 138.556 23.848C138.66 23.824 138.752 23.808 138.832 23.8C138.928 23.792 139.008 23.824 139.072 23.896C139.136 23.96 139.168 24.096 139.168 24.304C139.168 24.464 139.14 24.608 139.084 24.736C139.036 24.856 138.944 24.94 138.808 24.988C138.704 25.02 138.568 25.048 138.4 25.072C138.232 25.104 138.084 25.12 137.956 25.12ZM146.252 25.096C146.036 25.096 145.86 25.044 145.724 24.94C145.596 24.836 145.492 24.672 145.412 24.448L142.904 17.356C142.816 17.1 142.832 16.884 142.952 16.708C143.08 16.532 143.292 16.444 143.588 16.444C143.804 16.444 143.972 16.496 144.092 16.6C144.212 16.696 144.308 16.852 144.38 17.068L146.54 23.476H146.06L148.316 17.08C148.396 16.864 148.496 16.704 148.616 16.6C148.736 16.496 148.892 16.444 149.084 16.444C149.276 16.444 149.428 16.496 149.54 16.6C149.652 16.704 149.748 16.868 149.828 17.092L152.012 23.476H151.592L153.788 17.068C153.86 16.86 153.956 16.704 154.076 16.6C154.196 16.496 154.36 16.444 154.568 16.444C154.824 16.444 155.012 16.532 155.132 16.708C155.252 16.884 155.268 17.1 155.18 17.356L152.648 24.46C152.568 24.676 152.464 24.836 152.336 24.94C152.208 25.044 152.036 25.096 151.82 25.096C151.604 25.096 151.432 25.044 151.304 24.94C151.176 24.836 151.072 24.672 150.992 24.448L148.904 18.496H149.18L147.068 24.46C146.988 24.676 146.884 24.836 146.756 24.94C146.636 25.044 146.468 25.096 146.252 25.096ZM158.417 25.12C157.809 25.12 157.281 24.996 156.833 24.748C156.385 24.5 156.037 24.148 155.789 23.692C155.541 23.228 155.417 22.684 155.417 22.06C155.417 21.588 155.485 21.168 155.621 20.8C155.765 20.424 155.969 20.104 156.233 19.84C156.497 19.568 156.813 19.364 157.181 19.228C157.549 19.084 157.961 19.012 158.417 19.012C159.025 19.012 159.553 19.136 160.001 19.384C160.449 19.632 160.797 19.984 161.045 20.44C161.293 20.896 161.417 21.436 161.417 22.06C161.417 22.532 161.345 22.956 161.201 23.332C161.065 23.708 160.865 24.032 160.601 24.304C160.337 24.568 160.021 24.772 159.653 24.916C159.285 25.052 158.873 25.12 158.417 25.12ZM158.417 23.98C158.713 23.98 158.973 23.908 159.197 23.764C159.421 23.62 159.593 23.408 159.713 23.128C159.841 22.84 159.905 22.484 159.905 22.06C159.905 21.42 159.769 20.944 159.497 20.632C159.225 20.312 158.865 20.152 158.417 20.152C158.121 20.152 157.861 20.224 157.637 20.368C157.413 20.504 157.237 20.716 157.109 21.004C156.989 21.284 156.929 21.636 156.929 22.06C156.929 22.692 157.065 23.172 157.337 23.5C157.609 23.82 157.969 23.98 158.417 23.98ZM163.423 25.096C163.175 25.096 162.983 25.032 162.847 24.904C162.719 24.768 162.655 24.576 162.655 24.328V19.792C162.655 19.544 162.719 19.356 162.847 19.228C162.975 19.1 163.155 19.036 163.387 19.036C163.619 19.036 163.799 19.1 163.927 19.228C164.055 19.356 164.119 19.544 164.119 19.792V20.548H163.999C164.111 20.068 164.331 19.704 164.659 19.456C164.987 19.208 165.423 19.06 165.967 19.012C166.135 18.996 166.267 19.04 166.363 19.144C166.467 19.24 166.527 19.392 166.543 19.6C166.559 19.8 166.511 19.964 166.399 20.092C166.295 20.212 166.135 20.284 165.919 20.308L165.655 20.332C165.167 20.38 164.799 20.532 164.551 20.788C164.303 21.036 164.179 21.388 164.179 21.844V24.328C164.179 24.576 164.115 24.768 163.987 24.904C163.859 25.032 163.671 25.096 163.423 25.096ZM168.098 25.096C167.858 25.096 167.674 25.032 167.546 24.904C167.418 24.768 167.354 24.576 167.354 24.328V17.2C167.354 16.952 167.418 16.764 167.546 16.636C167.674 16.508 167.858 16.444 168.098 16.444C168.338 16.444 168.522 16.508 168.65 16.636C168.786 16.764 168.854 16.952 168.854 17.2V21.628H168.878L170.858 19.54C171.018 19.38 171.158 19.256 171.278 19.168C171.398 19.08 171.562 19.036 171.77 19.036C171.978 19.036 172.134 19.092 172.238 19.204C172.35 19.308 172.406 19.436 172.406 19.588C172.406 19.74 172.334 19.892 172.19 20.044L170.102 22.252V21.628L172.394 24.1C172.538 24.252 172.602 24.408 172.586 24.568C172.578 24.72 172.514 24.848 172.394 24.952C172.274 25.048 172.122 25.096 171.938 25.096C171.714 25.096 171.534 25.052 171.398 24.964C171.27 24.876 171.126 24.744 170.966 24.568L168.878 22.384H168.854V24.328C168.854 24.84 168.602 25.096 168.098 25.096ZM174.532 25.084C174.292 25.084 174.108 25.012 173.98 24.868C173.852 24.724 173.788 24.524 173.788 24.268V19.864C173.788 19.6 173.852 19.4 173.98 19.264C174.108 19.12 174.292 19.048 174.532 19.048C174.772 19.048 174.956 19.12 175.084 19.264C175.22 19.4 175.288 19.6 175.288 19.864V24.268C175.288 24.524 175.224 24.724 175.096 24.868C174.968 25.012 174.78 25.084 174.532 25.084ZM174.532 17.932C174.252 17.932 174.032 17.864 173.872 17.728C173.72 17.584 173.644 17.388 173.644 17.14C173.644 16.884 173.72 16.688 173.872 16.552C174.032 16.416 174.252 16.348 174.532 16.348C174.82 16.348 175.04 16.416 175.192 16.552C175.344 16.688 175.42 16.884 175.42 17.14C175.42 17.388 175.344 17.584 175.192 17.728C175.04 17.864 174.82 17.932 174.532 17.932ZM177.59 25.096C177.35 25.096 177.166 25.032 177.038 24.904C176.91 24.768 176.846 24.576 176.846 24.328V19.792C176.846 19.544 176.91 19.356 177.038 19.228C177.166 19.1 177.346 19.036 177.578 19.036C177.81 19.036 177.99 19.1 178.118 19.228C178.246 19.356 178.31 19.544 178.31 19.792V20.608L178.178 20.308C178.354 19.884 178.626 19.564 178.994 19.348C179.37 19.124 179.794 19.012 180.266 19.012C180.738 19.012 181.126 19.1 181.43 19.276C181.734 19.452 181.962 19.72 182.114 20.08C182.266 20.432 182.342 20.88 182.342 21.424V24.328C182.342 24.576 182.278 24.768 182.15 24.904C182.022 25.032 181.838 25.096 181.598 25.096C181.358 25.096 181.17 25.032 181.034 24.904C180.906 24.768 180.842 24.576 180.842 24.328V21.496C180.842 21.04 180.754 20.708 180.578 20.5C180.41 20.292 180.146 20.188 179.786 20.188C179.346 20.188 178.994 20.328 178.73 20.608C178.474 20.88 178.346 21.244 178.346 21.7V24.328C178.346 24.84 178.094 25.096 177.59 25.096ZM186.602 27.28C186.17 27.28 185.75 27.24 185.342 27.16C184.942 27.08 184.578 26.956 184.25 26.788C184.098 26.708 183.994 26.612 183.938 26.5C183.89 26.388 183.874 26.272 183.89 26.152C183.914 26.04 183.962 25.94 184.034 25.852C184.114 25.764 184.21 25.704 184.322 25.672C184.434 25.64 184.55 25.656 184.67 25.72C185.022 25.896 185.354 26.008 185.666 26.056C185.986 26.112 186.258 26.14 186.482 26.14C187.018 26.14 187.418 26.008 187.682 25.744C187.954 25.488 188.09 25.104 188.09 24.592V23.512H188.198C188.078 23.92 187.826 24.248 187.442 24.496C187.066 24.736 186.638 24.856 186.158 24.856C185.63 24.856 185.17 24.736 184.778 24.496C184.386 24.248 184.082 23.904 183.866 23.464C183.65 23.024 183.542 22.512 183.542 21.928C183.542 21.488 183.602 21.092 183.722 20.74C183.85 20.38 184.026 20.072 184.25 19.816C184.482 19.56 184.758 19.364 185.078 19.228C185.406 19.084 185.766 19.012 186.158 19.012C186.654 19.012 187.086 19.136 187.454 19.384C187.83 19.624 188.074 19.944 188.186 20.344L188.066 20.644V19.792C188.066 19.544 188.13 19.356 188.258 19.228C188.394 19.1 188.578 19.036 188.81 19.036C189.05 19.036 189.234 19.1 189.362 19.228C189.49 19.356 189.554 19.544 189.554 19.792V24.412C189.554 25.364 189.302 26.08 188.798 26.56C188.294 27.04 187.562 27.28 186.602 27.28ZM186.566 23.716C186.878 23.716 187.146 23.644 187.37 23.5C187.594 23.356 187.766 23.152 187.886 22.888C188.014 22.616 188.078 22.296 188.078 21.928C188.078 21.376 187.942 20.944 187.67 20.632C187.398 20.312 187.03 20.152 186.566 20.152C186.254 20.152 185.986 20.224 185.762 20.368C185.538 20.512 185.362 20.716 185.234 20.98C185.114 21.244 185.054 21.56 185.054 21.928C185.054 22.48 185.19 22.916 185.462 23.236C185.734 23.556 186.102 23.716 186.566 23.716ZM195.326 25C195.062 25 194.858 24.932 194.714 24.796C194.578 24.652 194.51 24.448 194.51 24.184V17.356C194.51 17.092 194.578 16.892 194.714 16.756C194.858 16.612 195.062 16.54 195.326 16.54H197.654C199.07 16.54 200.162 16.904 200.93 17.632C201.706 18.36 202.094 19.404 202.094 20.764C202.094 21.444 201.994 22.048 201.794 22.576C201.602 23.096 201.314 23.536 200.93 23.896C200.554 24.256 200.09 24.532 199.538 24.724C198.994 24.908 198.366 25 197.654 25H195.326ZM196.046 23.728H197.558C198.054 23.728 198.482 23.668 198.842 23.548C199.21 23.42 199.514 23.236 199.754 22.996C200.002 22.748 200.186 22.44 200.306 22.072C200.426 21.696 200.486 21.26 200.486 20.764C200.486 19.772 200.242 19.032 199.754 18.544C199.266 18.056 198.534 17.812 197.558 17.812H196.046V23.728ZM205.439 25.12C205.015 25.12 204.635 25.04 204.299 24.88C203.971 24.712 203.711 24.488 203.519 24.208C203.335 23.928 203.243 23.612 203.243 23.26C203.243 22.828 203.355 22.488 203.579 22.24C203.803 21.984 204.167 21.8 204.671 21.688C205.175 21.576 205.851 21.52 206.699 21.52H207.299V22.384H206.711C206.215 22.384 205.819 22.408 205.523 22.456C205.227 22.504 205.015 22.588 204.887 22.708C204.767 22.82 204.707 22.98 204.707 23.188C204.707 23.452 204.799 23.668 204.983 23.836C205.167 24.004 205.423 24.088 205.751 24.088C206.015 24.088 206.247 24.028 206.447 23.908C206.655 23.78 206.819 23.608 206.939 23.392C207.059 23.176 207.119 22.928 207.119 22.648V21.268C207.119 20.868 207.031 20.58 206.855 20.404C206.679 20.228 206.383 20.14 205.967 20.14C205.735 20.14 205.483 20.168 205.211 20.224C204.947 20.28 204.667 20.376 204.371 20.512C204.219 20.584 204.083 20.604 203.963 20.572C203.851 20.54 203.763 20.476 203.699 20.38C203.635 20.276 203.603 20.164 203.603 20.044C203.603 19.924 203.635 19.808 203.699 19.696C203.763 19.576 203.871 19.488 204.023 19.432C204.391 19.28 204.743 19.172 205.079 19.108C205.423 19.044 205.735 19.012 206.015 19.012C206.591 19.012 207.063 19.1 207.431 19.276C207.807 19.452 208.087 19.72 208.271 20.08C208.455 20.432 208.547 20.888 208.547 21.448V24.328C208.547 24.576 208.487 24.768 208.367 24.904C208.247 25.032 208.075 25.096 207.851 25.096C207.627 25.096 207.451 25.032 207.323 24.904C207.203 24.768 207.143 24.576 207.143 24.328V23.752H207.239C207.183 24.032 207.071 24.276 206.903 24.484C206.743 24.684 206.539 24.84 206.291 24.952C206.043 25.064 205.759 25.12 205.439 25.12ZM211.498 27.256C211.322 27.256 211.178 27.208 211.066 27.112C210.954 27.024 210.886 26.904 210.862 26.752C210.846 26.6 210.874 26.44 210.946 26.272L211.762 24.46V25.084L209.578 20.032C209.506 19.856 209.482 19.692 209.506 19.54C209.53 19.388 209.602 19.268 209.722 19.18C209.85 19.084 210.022 19.036 210.238 19.036C210.422 19.036 210.57 19.08 210.682 19.168C210.794 19.248 210.894 19.404 210.982 19.636L212.602 23.68H212.242L213.898 19.624C213.986 19.4 214.09 19.248 214.21 19.168C214.33 19.08 214.49 19.036 214.69 19.036C214.866 19.036 215.006 19.084 215.11 19.18C215.214 19.268 215.278 19.388 215.302 19.54C215.326 19.684 215.298 19.844 215.218 20.02L212.302 26.68C212.198 26.904 212.086 27.056 211.966 27.136C211.846 27.216 211.69 27.256 211.498 27.256Z" fill="#64728C"/>
<defs>
<filter id="filter0_d_999_3441" x="0" y="10.6572" width="332" height="328.343" filterUnits="userSpaceOnUse" color-interpolation-filters="sRGB">
<feFlood flood-opacity="0" result="BackgroundImageFix"/>
<feColorMatrix in="SourceAlpha" type="matrix" values="0 0 0 0 0 0 0 0 0 0 0 0 0 0 0 0 0 0 127 0" result="hardAlpha"/>
<feOffset dy="4"/>
<feGaussianBlur stdDeviation="25"/>
<feComposite in2="hardAlpha" operator="out"/>
<feColorMatrix type="matrix" values="0 0 0 0 0 0 0 0 0 0 0 0 0 0 0 0 0 0 0.05 0"/>
<feBlend mode="normal" in2="BackgroundImageFix" result="effect1_dropShadow_999_3441"/>
<feBlend mode="normal" in="SourceGraphic" in2="effect1_dropShadow_999_3441" result="shape"/>
</filter>
<filter id="filter1_d_999_3441" x="46" y="69" width="240" height="224" filterUnits="userSpaceOnUse" color-interpolation-filters="sRGB">
<feFlood flood-opacity="0" result="BackgroundImageFix"/>
<feColorMatrix in="SourceAlpha" type="matrix" values="0 0 0 0 0 0 0 0 0 0 0 0 0 0 0 0 0 0 127 0" result="hardAlpha"/>
<feOffset dy="4"/>
<feGaussianBlur stdDeviation="2"/>
<feComposite in2="hardAlpha" operator="out"/>
<feColorMatrix type="matrix" values="0 0 0 0 0 0 0 0 0 0 0 0 0 0 0 0 0 0 0.05 0"/>
<feBlend mode="normal" in2="BackgroundImageFix" result="effect1_dropShadow_999_3441"/>
<feBlend mode="normal" in="SourceGraphic" in2="effect1_dropShadow_999_3441" result="shape"/>
</filter>
<linearGradient id="paint0_linear_999_3441" x1="166" y1="177" x2="166" y2="219" gradientUnits="userSpaceOnUse">
<stop stop-color="white" stop-opacity="0"/>
<stop offset="1" stop-color="white"/>
</linearGradient>
</defs>
</svg>
