<svg width="240" height="333" viewBox="0 0 240 333" fill="none" xmlns="http://www.w3.org/2000/svg">
<g filter="url(#filter0_d_1269_16733)">
<rect x="4" y="63" width="232" height="262" rx="18" fill="#E8EAEF"/>
<rect x="4.5" y="63.5" width="231" height="261" rx="17.5" stroke="#64728C" stroke-opacity="0.21"/>
<rect x="4" y="63" width="232" height="258" rx="18" fill="white"/>
<path d="M20 91C20 84.3726 25.3726 79 32 79H208C214.627 79 220 84.3726 220 91V109C220 115.627 214.627 121 208 121H32C25.3726 121 20 115.627 20 109V91Z" fill="#DAFDF5"/>
<path d="M101.659 104C101.411 104 101.219 103.932 101.083 103.796C100.947 103.652 100.879 103.456 100.879 103.208V96.284C100.879 96.028 100.943 95.836 101.071 95.708C101.207 95.572 101.399 95.504 101.647 95.504C101.895 95.504 102.083 95.572 102.211 95.708C102.347 95.836 102.415 96.028 102.415 96.284V102.692H105.895C106.111 102.692 106.275 102.748 106.387 102.86C106.507 102.972 106.567 103.132 106.567 103.34C106.567 103.548 106.507 103.712 106.387 103.832C106.275 103.944 106.111 104 105.895 104H101.659ZM110.307 104.12C109.643 104.12 109.071 103.996 108.591 103.748C108.111 103.5 107.739 103.148 107.475 102.692C107.219 102.236 107.091 101.696 107.091 101.072C107.091 100.464 107.215 99.932 107.463 99.476C107.719 99.02 108.067 98.664 108.507 98.408C108.955 98.144 109.463 98.012 110.031 98.012C110.447 98.012 110.819 98.08 111.147 98.216C111.483 98.352 111.767 98.548 111.999 98.804C112.239 99.06 112.419 99.372 112.539 99.74C112.667 100.1 112.731 100.508 112.731 100.964C112.731 101.108 112.679 101.22 112.575 101.3C112.479 101.372 112.339 101.408 112.155 101.408H108.303V100.544H111.675L111.483 100.724C111.483 100.356 111.427 100.048 111.315 99.8C111.211 99.552 111.055 99.364 110.847 99.236C110.647 99.1 110.395 99.032 110.091 99.032C109.755 99.032 109.467 99.112 109.227 99.272C108.995 99.424 108.815 99.644 108.687 99.932C108.567 100.212 108.507 100.548 108.507 100.94V101.024C108.507 101.68 108.659 102.172 108.963 102.5C109.275 102.82 109.731 102.98 110.331 102.98C110.539 102.98 110.771 102.956 111.027 102.908C111.291 102.852 111.539 102.76 111.771 102.632C111.939 102.536 112.087 102.496 112.215 102.512C112.343 102.52 112.443 102.564 112.515 102.644C112.595 102.724 112.643 102.824 112.659 102.944C112.675 103.056 112.651 103.172 112.587 103.292C112.531 103.412 112.431 103.516 112.287 103.604C112.007 103.78 111.683 103.912 111.315 104C110.955 104.08 110.619 104.12 110.307 104.12ZM116.201 104.096C116.001 104.096 115.825 104.044 115.673 103.94C115.529 103.836 115.409 103.676 115.313 103.46L113.405 99.032C113.333 98.856 113.305 98.692 113.321 98.54C113.345 98.388 113.417 98.268 113.537 98.18C113.665 98.084 113.837 98.036 114.053 98.036C114.237 98.036 114.385 98.08 114.497 98.168C114.609 98.248 114.709 98.404 114.797 98.636L116.417 102.68H116.057L117.725 98.624C117.813 98.4 117.913 98.248 118.025 98.168C118.145 98.08 118.305 98.036 118.505 98.036C118.681 98.036 118.821 98.084 118.925 98.18C119.029 98.268 119.093 98.388 119.117 98.54C119.141 98.684 119.113 98.844 119.033 99.02L117.089 103.46C117.001 103.676 116.881 103.836 116.729 103.94C116.585 104.044 116.409 104.096 116.201 104.096ZM122.928 104.12C122.264 104.12 121.692 103.996 121.212 103.748C120.732 103.5 120.36 103.148 120.096 102.692C119.84 102.236 119.712 101.696 119.712 101.072C119.712 100.464 119.836 99.932 120.084 99.476C120.34 99.02 120.688 98.664 121.128 98.408C121.576 98.144 122.084 98.012 122.652 98.012C123.068 98.012 123.44 98.08 123.768 98.216C124.104 98.352 124.388 98.548 124.62 98.804C124.86 99.06 125.04 99.372 125.16 99.74C125.288 100.1 125.352 100.508 125.352 100.964C125.352 101.108 125.3 101.22 125.196 101.3C125.1 101.372 124.96 101.408 124.776 101.408H120.924V100.544H124.296L124.104 100.724C124.104 100.356 124.048 100.048 123.936 99.8C123.832 99.552 123.676 99.364 123.468 99.236C123.268 99.1 123.016 99.032 122.712 99.032C122.376 99.032 122.088 99.112 121.848 99.272C121.616 99.424 121.436 99.644 121.308 99.932C121.188 100.212 121.128 100.548 121.128 100.94V101.024C121.128 101.68 121.28 102.172 121.584 102.5C121.896 102.82 122.352 102.98 122.952 102.98C123.16 102.98 123.392 102.956 123.648 102.908C123.912 102.852 124.16 102.76 124.392 102.632C124.56 102.536 124.708 102.496 124.836 102.512C124.964 102.52 125.064 102.564 125.136 102.644C125.216 102.724 125.264 102.824 125.28 102.944C125.296 103.056 125.272 103.172 125.208 103.292C125.152 103.412 125.052 103.516 124.908 103.604C124.628 103.78 124.304 103.912 123.936 104C123.576 104.08 123.24 104.12 122.928 104.12ZM128.544 104.12C127.88 104.12 127.38 103.932 127.044 103.556C126.708 103.172 126.54 102.612 126.54 101.876V96.2C126.54 95.952 126.604 95.764 126.732 95.636C126.86 95.508 127.044 95.444 127.284 95.444C127.524 95.444 127.708 95.508 127.836 95.636C127.972 95.764 128.04 95.952 128.04 96.2V101.804C128.04 102.172 128.116 102.444 128.268 102.62C128.428 102.796 128.652 102.884 128.94 102.884C129.004 102.884 129.064 102.884 129.12 102.884C129.176 102.876 129.232 102.868 129.288 102.86C129.4 102.844 129.476 102.876 129.516 102.956C129.556 103.028 129.576 103.18 129.576 103.412C129.576 103.612 129.536 103.768 129.456 103.88C129.376 103.992 129.244 104.06 129.06 104.084C128.98 104.092 128.896 104.1 128.808 104.108C128.72 104.116 128.632 104.12 128.544 104.12ZM134.722 104C134.514 104 134.35 103.944 134.23 103.832C134.118 103.712 134.062 103.552 134.062 103.352C134.062 103.144 134.118 102.988 134.23 102.884C134.35 102.78 134.514 102.728 134.722 102.728H136.066V96.836H136.81L135.046 97.904C134.894 97.992 134.75 98.028 134.614 98.012C134.486 97.988 134.374 97.932 134.278 97.844C134.19 97.748 134.13 97.636 134.098 97.508C134.066 97.38 134.074 97.252 134.122 97.124C134.178 96.988 134.282 96.876 134.434 96.788L136.09 95.792C136.25 95.696 136.41 95.616 136.57 95.552C136.73 95.48 136.878 95.444 137.014 95.444C137.182 95.444 137.322 95.492 137.434 95.588C137.546 95.676 137.602 95.824 137.602 96.032V102.728H138.826C139.034 102.728 139.194 102.78 139.306 102.884C139.426 102.988 139.486 103.144 139.486 103.352C139.486 103.56 139.426 103.72 139.306 103.832C139.194 103.944 139.034 104 138.826 104H134.722Z" fill="#08838F"/>
<path d="M20 137C20 130.373 25.3726 125 32 125H208C214.627 125 220 130.373 220 137V155C220 161.627 214.627 167 208 167H32C25.3726 167 20 161.627 20 155V137Z" fill="#C2FCEE"/>
<path d="M101.659 150C101.411 150 101.219 149.932 101.083 149.796C100.947 149.652 100.879 149.456 100.879 149.208V142.284C100.879 142.028 100.943 141.836 101.071 141.708C101.207 141.572 101.399 141.504 101.647 141.504C101.895 141.504 102.083 141.572 102.211 141.708C102.347 141.836 102.415 142.028 102.415 142.284V148.692H105.895C106.111 148.692 106.275 148.748 106.387 148.86C106.507 148.972 106.567 149.132 106.567 149.34C106.567 149.548 106.507 149.712 106.387 149.832C106.275 149.944 106.111 150 105.895 150H101.659ZM110.307 150.12C109.643 150.12 109.071 149.996 108.591 149.748C108.111 149.5 107.739 149.148 107.475 148.692C107.219 148.236 107.091 147.696 107.091 147.072C107.091 146.464 107.215 145.932 107.463 145.476C107.719 145.02 108.067 144.664 108.507 144.408C108.955 144.144 109.463 144.012 110.031 144.012C110.447 144.012 110.819 144.08 111.147 144.216C111.483 144.352 111.767 144.548 111.999 144.804C112.239 145.06 112.419 145.372 112.539 145.74C112.667 146.1 112.731 146.508 112.731 146.964C112.731 147.108 112.679 147.22 112.575 147.3C112.479 147.372 112.339 147.408 112.155 147.408H108.303V146.544H111.675L111.483 146.724C111.483 146.356 111.427 146.048 111.315 145.8C111.211 145.552 111.055 145.364 110.847 145.236C110.647 145.1 110.395 145.032 110.091 145.032C109.755 145.032 109.467 145.112 109.227 145.272C108.995 145.424 108.815 145.644 108.687 145.932C108.567 146.212 108.507 146.548 108.507 146.94V147.024C108.507 147.68 108.659 148.172 108.963 148.5C109.275 148.82 109.731 148.98 110.331 148.98C110.539 148.98 110.771 148.956 111.027 148.908C111.291 148.852 111.539 148.76 111.771 148.632C111.939 148.536 112.087 148.496 112.215 148.512C112.343 148.52 112.443 148.564 112.515 148.644C112.595 148.724 112.643 148.824 112.659 148.944C112.675 149.056 112.651 149.172 112.587 149.292C112.531 149.412 112.431 149.516 112.287 149.604C112.007 149.78 111.683 149.912 111.315 150C110.955 150.08 110.619 150.12 110.307 150.12ZM116.201 150.096C116.001 150.096 115.825 150.044 115.673 149.94C115.529 149.836 115.409 149.676 115.313 149.46L113.405 145.032C113.333 144.856 113.305 144.692 113.321 144.54C113.345 144.388 113.417 144.268 113.537 144.18C113.665 144.084 113.837 144.036 114.053 144.036C114.237 144.036 114.385 144.08 114.497 144.168C114.609 144.248 114.709 144.404 114.797 144.636L116.417 148.68H116.057L117.725 144.624C117.813 144.4 117.913 144.248 118.025 144.168C118.145 144.08 118.305 144.036 118.505 144.036C118.681 144.036 118.821 144.084 118.925 144.18C119.029 144.268 119.093 144.388 119.117 144.54C119.141 144.684 119.113 144.844 119.033 145.02L117.089 149.46C117.001 149.676 116.881 149.836 116.729 149.94C116.585 150.044 116.409 150.096 116.201 150.096ZM122.928 150.12C122.264 150.12 121.692 149.996 121.212 149.748C120.732 149.5 120.36 149.148 120.096 148.692C119.84 148.236 119.712 147.696 119.712 147.072C119.712 146.464 119.836 145.932 120.084 145.476C120.34 145.02 120.688 144.664 121.128 144.408C121.576 144.144 122.084 144.012 122.652 144.012C123.068 144.012 123.44 144.08 123.768 144.216C124.104 144.352 124.388 144.548 124.62 144.804C124.86 145.06 125.04 145.372 125.16 145.74C125.288 146.1 125.352 146.508 125.352 146.964C125.352 147.108 125.3 147.22 125.196 147.3C125.1 147.372 124.96 147.408 124.776 147.408H120.924V146.544H124.296L124.104 146.724C124.104 146.356 124.048 146.048 123.936 145.8C123.832 145.552 123.676 145.364 123.468 145.236C123.268 145.1 123.016 145.032 122.712 145.032C122.376 145.032 122.088 145.112 121.848 145.272C121.616 145.424 121.436 145.644 121.308 145.932C121.188 146.212 121.128 146.548 121.128 146.94V147.024C121.128 147.68 121.28 148.172 121.584 148.5C121.896 148.82 122.352 148.98 122.952 148.98C123.16 148.98 123.392 148.956 123.648 148.908C123.912 148.852 124.16 148.76 124.392 148.632C124.56 148.536 124.708 148.496 124.836 148.512C124.964 148.52 125.064 148.564 125.136 148.644C125.216 148.724 125.264 148.824 125.28 148.944C125.296 149.056 125.272 149.172 125.208 149.292C125.152 149.412 125.052 149.516 124.908 149.604C124.628 149.78 124.304 149.912 123.936 150C123.576 150.08 123.24 150.12 122.928 150.12ZM128.544 150.12C127.88 150.12 127.38 149.932 127.044 149.556C126.708 149.172 126.54 148.612 126.54 147.876V142.2C126.54 141.952 126.604 141.764 126.732 141.636C126.86 141.508 127.044 141.444 127.284 141.444C127.524 141.444 127.708 141.508 127.836 141.636C127.972 141.764 128.04 141.952 128.04 142.2V147.804C128.04 148.172 128.116 148.444 128.268 148.62C128.428 148.796 128.652 148.884 128.94 148.884C129.004 148.884 129.064 148.884 129.12 148.884C129.176 148.876 129.232 148.868 129.288 148.86C129.4 148.844 129.476 148.876 129.516 148.956C129.556 149.028 129.576 149.18 129.576 149.412C129.576 149.612 129.536 149.768 129.456 149.88C129.376 149.992 129.244 150.06 129.06 150.084C128.98 150.092 128.896 150.1 128.808 150.108C128.72 150.116 128.632 150.12 128.544 150.12ZM134.446 150C134.19 150 134.002 149.944 133.882 149.832C133.77 149.712 133.714 149.54 133.714 149.316C133.714 149.18 133.75 149.048 133.822 148.92C133.894 148.792 133.998 148.656 134.134 148.512L136.546 145.944C136.914 145.56 137.178 145.212 137.338 144.9C137.498 144.58 137.578 144.26 137.578 143.94C137.578 143.54 137.45 143.236 137.194 143.028C136.946 142.82 136.582 142.716 136.102 142.716C135.83 142.716 135.558 142.756 135.286 142.836C135.014 142.908 134.738 143.036 134.458 143.22C134.314 143.316 134.178 143.356 134.05 143.34C133.93 143.324 133.822 143.272 133.726 143.184C133.638 143.096 133.578 142.988 133.546 142.86C133.514 142.732 133.518 142.604 133.558 142.476C133.606 142.34 133.702 142.224 133.846 142.128C134.19 141.896 134.574 141.72 134.998 141.6C135.43 141.48 135.862 141.42 136.294 141.42C136.902 141.42 137.414 141.512 137.83 141.696C138.246 141.88 138.562 142.148 138.778 142.5C138.994 142.852 139.102 143.28 139.102 143.784C139.102 144.12 139.046 144.448 138.934 144.768C138.83 145.088 138.666 145.412 138.442 145.74C138.226 146.068 137.942 146.416 137.59 146.784L135.334 149.136V148.728H138.862C139.078 148.728 139.242 148.78 139.354 148.884C139.466 148.988 139.522 149.144 139.522 149.352C139.522 149.56 139.466 149.72 139.354 149.832C139.242 149.944 139.078 150 138.862 150H134.446Z" fill="#08838F"/>
<g filter="url(#filter1_i_1269_16733)">
<path d="M20 183C20 176.373 25.3726 171 32 171H208C214.627 171 220 176.373 220 183V201C220 207.627 214.627 213 208 213H32C25.3726 213 20 207.627 20 201V183Z" fill="#63EDD2"/>
<path d="M101.659 196C101.411 196 101.219 195.932 101.083 195.796C100.947 195.652 100.879 195.456 100.879 195.208V188.284C100.879 188.028 100.943 187.836 101.071 187.708C101.207 187.572 101.399 187.504 101.647 187.504C101.895 187.504 102.083 187.572 102.211 187.708C102.347 187.836 102.415 188.028 102.415 188.284V194.692H105.895C106.111 194.692 106.275 194.748 106.387 194.86C106.507 194.972 106.567 195.132 106.567 195.34C106.567 195.548 106.507 195.712 106.387 195.832C106.275 195.944 106.111 196 105.895 196H101.659ZM110.307 196.12C109.643 196.12 109.071 195.996 108.591 195.748C108.111 195.5 107.739 195.148 107.475 194.692C107.219 194.236 107.091 193.696 107.091 193.072C107.091 192.464 107.215 191.932 107.463 191.476C107.719 191.02 108.067 190.664 108.507 190.408C108.955 190.144 109.463 190.012 110.031 190.012C110.447 190.012 110.819 190.08 111.147 190.216C111.483 190.352 111.767 190.548 111.999 190.804C112.239 191.06 112.419 191.372 112.539 191.74C112.667 192.1 112.731 192.508 112.731 192.964C112.731 193.108 112.679 193.22 112.575 193.3C112.479 193.372 112.339 193.408 112.155 193.408H108.303V192.544H111.675L111.483 192.724C111.483 192.356 111.427 192.048 111.315 191.8C111.211 191.552 111.055 191.364 110.847 191.236C110.647 191.1 110.395 191.032 110.091 191.032C109.755 191.032 109.467 191.112 109.227 191.272C108.995 191.424 108.815 191.644 108.687 191.932C108.567 192.212 108.507 192.548 108.507 192.94V193.024C108.507 193.68 108.659 194.172 108.963 194.5C109.275 194.82 109.731 194.98 110.331 194.98C110.539 194.98 110.771 194.956 111.027 194.908C111.291 194.852 111.539 194.76 111.771 194.632C111.939 194.536 112.087 194.496 112.215 194.512C112.343 194.52 112.443 194.564 112.515 194.644C112.595 194.724 112.643 194.824 112.659 194.944C112.675 195.056 112.651 195.172 112.587 195.292C112.531 195.412 112.431 195.516 112.287 195.604C112.007 195.78 111.683 195.912 111.315 196C110.955 196.08 110.619 196.12 110.307 196.12ZM116.201 196.096C116.001 196.096 115.825 196.044 115.673 195.94C115.529 195.836 115.409 195.676 115.313 195.46L113.405 191.032C113.333 190.856 113.305 190.692 113.321 190.54C113.345 190.388 113.417 190.268 113.537 190.18C113.665 190.084 113.837 190.036 114.053 190.036C114.237 190.036 114.385 190.08 114.497 190.168C114.609 190.248 114.709 190.404 114.797 190.636L116.417 194.68H116.057L117.725 190.624C117.813 190.4 117.913 190.248 118.025 190.168C118.145 190.08 118.305 190.036 118.505 190.036C118.681 190.036 118.821 190.084 118.925 190.18C119.029 190.268 119.093 190.388 119.117 190.54C119.141 190.684 119.113 190.844 119.033 191.02L117.089 195.46C117.001 195.676 116.881 195.836 116.729 195.94C116.585 196.044 116.409 196.096 116.201 196.096ZM122.928 196.12C122.264 196.12 121.692 195.996 121.212 195.748C120.732 195.5 120.36 195.148 120.096 194.692C119.84 194.236 119.712 193.696 119.712 193.072C119.712 192.464 119.836 191.932 120.084 191.476C120.34 191.02 120.688 190.664 121.128 190.408C121.576 190.144 122.084 190.012 122.652 190.012C123.068 190.012 123.44 190.08 123.768 190.216C124.104 190.352 124.388 190.548 124.62 190.804C124.86 191.06 125.04 191.372 125.16 191.74C125.288 192.1 125.352 192.508 125.352 192.964C125.352 193.108 125.3 193.22 125.196 193.3C125.1 193.372 124.96 193.408 124.776 193.408H120.924V192.544H124.296L124.104 192.724C124.104 192.356 124.048 192.048 123.936 191.8C123.832 191.552 123.676 191.364 123.468 191.236C123.268 191.1 123.016 191.032 122.712 191.032C122.376 191.032 122.088 191.112 121.848 191.272C121.616 191.424 121.436 191.644 121.308 191.932C121.188 192.212 121.128 192.548 121.128 192.94V193.024C121.128 193.68 121.28 194.172 121.584 194.5C121.896 194.82 122.352 194.98 122.952 194.98C123.16 194.98 123.392 194.956 123.648 194.908C123.912 194.852 124.16 194.76 124.392 194.632C124.56 194.536 124.708 194.496 124.836 194.512C124.964 194.52 125.064 194.564 125.136 194.644C125.216 194.724 125.264 194.824 125.28 194.944C125.296 195.056 125.272 195.172 125.208 195.292C125.152 195.412 125.052 195.516 124.908 195.604C124.628 195.78 124.304 195.912 123.936 196C123.576 196.08 123.24 196.12 122.928 196.12ZM128.544 196.12C127.88 196.12 127.38 195.932 127.044 195.556C126.708 195.172 126.54 194.612 126.54 193.876V188.2C126.54 187.952 126.604 187.764 126.732 187.636C126.86 187.508 127.044 187.444 127.284 187.444C127.524 187.444 127.708 187.508 127.836 187.636C127.972 187.764 128.04 187.952 128.04 188.2V193.804C128.04 194.172 128.116 194.444 128.268 194.62C128.428 194.796 128.652 194.884 128.94 194.884C129.004 194.884 129.064 194.884 129.12 194.884C129.176 194.876 129.232 194.868 129.288 194.86C129.4 194.844 129.476 194.876 129.516 194.956C129.556 195.028 129.576 195.18 129.576 195.412C129.576 195.612 129.536 195.768 129.456 195.88C129.376 195.992 129.244 196.06 129.06 196.084C128.98 196.092 128.896 196.1 128.808 196.108C128.72 196.116 128.632 196.12 128.544 196.12ZM136.282 196.12C135.85 196.12 135.402 196.064 134.938 195.952C134.474 195.84 134.07 195.672 133.726 195.448C133.566 195.344 133.458 195.224 133.402 195.088C133.346 194.952 133.33 194.824 133.354 194.704C133.386 194.576 133.446 194.468 133.534 194.38C133.63 194.292 133.746 194.24 133.882 194.224C134.026 194.208 134.182 194.244 134.35 194.332C134.678 194.508 134.994 194.636 135.298 194.716C135.602 194.788 135.914 194.824 136.234 194.824C136.586 194.824 136.882 194.776 137.122 194.68C137.362 194.584 137.542 194.44 137.662 194.248C137.79 194.056 137.854 193.824 137.854 193.552C137.854 193.152 137.718 192.856 137.446 192.664C137.182 192.464 136.794 192.364 136.282 192.364H135.514C135.29 192.364 135.118 192.308 134.998 192.196C134.886 192.084 134.83 191.928 134.83 191.728C134.83 191.528 134.886 191.372 134.998 191.26C135.118 191.148 135.29 191.092 135.514 191.092H136.138C136.442 191.092 136.702 191.044 136.918 190.948C137.134 190.844 137.302 190.7 137.422 190.516C137.542 190.332 137.602 190.108 137.602 189.844C137.602 189.476 137.478 189.196 137.23 189.004C136.99 188.812 136.638 188.716 136.174 188.716C135.878 188.716 135.598 188.752 135.334 188.824C135.078 188.888 134.794 189.012 134.482 189.196C134.338 189.284 134.198 189.32 134.062 189.304C133.934 189.288 133.826 189.236 133.738 189.148C133.65 189.06 133.59 188.956 133.558 188.836C133.526 188.708 133.534 188.58 133.582 188.452C133.63 188.316 133.73 188.2 133.882 188.104C134.226 187.88 134.606 187.712 135.022 187.6C135.438 187.48 135.866 187.42 136.306 187.42C136.89 187.42 137.39 187.512 137.806 187.696C138.222 187.872 138.538 188.128 138.754 188.464C138.978 188.792 139.09 189.192 139.09 189.664C139.09 190 139.026 190.308 138.898 190.588C138.77 190.86 138.59 191.092 138.358 191.284C138.126 191.476 137.846 191.612 137.518 191.692V191.548C138.094 191.644 138.542 191.884 138.862 192.268C139.182 192.644 139.342 193.116 139.342 193.684C139.342 194.18 139.218 194.612 138.97 194.98C138.722 195.348 138.37 195.632 137.914 195.832C137.458 196.024 136.914 196.12 136.282 196.12Z" fill="#045663"/>
</g>
<path d="M20 229C20 222.373 25.3726 217 32 217H208C214.627 217 220 222.373 220 229V247C220 253.627 214.627 259 208 259H32C25.3726 259 20 253.627 20 247V229Z" fill="#2CE0BF"/>
<path d="M101.659 242C101.411 242 101.219 241.932 101.083 241.796C100.947 241.652 100.879 241.456 100.879 241.208V234.284C100.879 234.028 100.943 233.836 101.071 233.708C101.207 233.572 101.399 233.504 101.647 233.504C101.895 233.504 102.083 233.572 102.211 233.708C102.347 233.836 102.415 234.028 102.415 234.284V240.692H105.895C106.111 240.692 106.275 240.748 106.387 240.86C106.507 240.972 106.567 241.132 106.567 241.34C106.567 241.548 106.507 241.712 106.387 241.832C106.275 241.944 106.111 242 105.895 242H101.659ZM110.307 242.12C109.643 242.12 109.071 241.996 108.591 241.748C108.111 241.5 107.739 241.148 107.475 240.692C107.219 240.236 107.091 239.696 107.091 239.072C107.091 238.464 107.215 237.932 107.463 237.476C107.719 237.02 108.067 236.664 108.507 236.408C108.955 236.144 109.463 236.012 110.031 236.012C110.447 236.012 110.819 236.08 111.147 236.216C111.483 236.352 111.767 236.548 111.999 236.804C112.239 237.06 112.419 237.372 112.539 237.74C112.667 238.1 112.731 238.508 112.731 238.964C112.731 239.108 112.679 239.22 112.575 239.3C112.479 239.372 112.339 239.408 112.155 239.408H108.303V238.544H111.675L111.483 238.724C111.483 238.356 111.427 238.048 111.315 237.8C111.211 237.552 111.055 237.364 110.847 237.236C110.647 237.1 110.395 237.032 110.091 237.032C109.755 237.032 109.467 237.112 109.227 237.272C108.995 237.424 108.815 237.644 108.687 237.932C108.567 238.212 108.507 238.548 108.507 238.94V239.024C108.507 239.68 108.659 240.172 108.963 240.5C109.275 240.82 109.731 240.98 110.331 240.98C110.539 240.98 110.771 240.956 111.027 240.908C111.291 240.852 111.539 240.76 111.771 240.632C111.939 240.536 112.087 240.496 112.215 240.512C112.343 240.52 112.443 240.564 112.515 240.644C112.595 240.724 112.643 240.824 112.659 240.944C112.675 241.056 112.651 241.172 112.587 241.292C112.531 241.412 112.431 241.516 112.287 241.604C112.007 241.78 111.683 241.912 111.315 242C110.955 242.08 110.619 242.12 110.307 242.12ZM116.201 242.096C116.001 242.096 115.825 242.044 115.673 241.94C115.529 241.836 115.409 241.676 115.313 241.46L113.405 237.032C113.333 236.856 113.305 236.692 113.321 236.54C113.345 236.388 113.417 236.268 113.537 236.18C113.665 236.084 113.837 236.036 114.053 236.036C114.237 236.036 114.385 236.08 114.497 236.168C114.609 236.248 114.709 236.404 114.797 236.636L116.417 240.68H116.057L117.725 236.624C117.813 236.4 117.913 236.248 118.025 236.168C118.145 236.08 118.305 236.036 118.505 236.036C118.681 236.036 118.821 236.084 118.925 236.18C119.029 236.268 119.093 236.388 119.117 236.54C119.141 236.684 119.113 236.844 119.033 237.02L117.089 241.46C117.001 241.676 116.881 241.836 116.729 241.94C116.585 242.044 116.409 242.096 116.201 242.096ZM122.928 242.12C122.264 242.12 121.692 241.996 121.212 241.748C120.732 241.5 120.36 241.148 120.096 240.692C119.84 240.236 119.712 239.696 119.712 239.072C119.712 238.464 119.836 237.932 120.084 237.476C120.34 237.02 120.688 236.664 121.128 236.408C121.576 236.144 122.084 236.012 122.652 236.012C123.068 236.012 123.44 236.08 123.768 236.216C124.104 236.352 124.388 236.548 124.62 236.804C124.86 237.06 125.04 237.372 125.16 237.74C125.288 238.1 125.352 238.508 125.352 238.964C125.352 239.108 125.3 239.22 125.196 239.3C125.1 239.372 124.96 239.408 124.776 239.408H120.924V238.544H124.296L124.104 238.724C124.104 238.356 124.048 238.048 123.936 237.8C123.832 237.552 123.676 237.364 123.468 237.236C123.268 237.1 123.016 237.032 122.712 237.032C122.376 237.032 122.088 237.112 121.848 237.272C121.616 237.424 121.436 237.644 121.308 237.932C121.188 238.212 121.128 238.548 121.128 238.94V239.024C121.128 239.68 121.28 240.172 121.584 240.5C121.896 240.82 122.352 240.98 122.952 240.98C123.16 240.98 123.392 240.956 123.648 240.908C123.912 240.852 124.16 240.76 124.392 240.632C124.56 240.536 124.708 240.496 124.836 240.512C124.964 240.52 125.064 240.564 125.136 240.644C125.216 240.724 125.264 240.824 125.28 240.944C125.296 241.056 125.272 241.172 125.208 241.292C125.152 241.412 125.052 241.516 124.908 241.604C124.628 241.78 124.304 241.912 123.936 242C123.576 242.08 123.24 242.12 122.928 242.12ZM128.544 242.12C127.88 242.12 127.38 241.932 127.044 241.556C126.708 241.172 126.54 240.612 126.54 239.876V234.2C126.54 233.952 126.604 233.764 126.732 233.636C126.86 233.508 127.044 233.444 127.284 233.444C127.524 233.444 127.708 233.508 127.836 233.636C127.972 233.764 128.04 233.952 128.04 234.2V239.804C128.04 240.172 128.116 240.444 128.268 240.62C128.428 240.796 128.652 240.884 128.94 240.884C129.004 240.884 129.064 240.884 129.12 240.884C129.176 240.876 129.232 240.868 129.288 240.86C129.4 240.844 129.476 240.876 129.516 240.956C129.556 241.028 129.576 241.18 129.576 241.412C129.576 241.612 129.536 241.768 129.456 241.88C129.376 241.992 129.244 242.06 129.06 242.084C128.98 242.092 128.896 242.1 128.808 242.108C128.72 242.116 128.632 242.12 128.544 242.12ZM137.806 242.096C137.566 242.096 137.378 242.032 137.242 241.904C137.106 241.768 137.038 241.576 137.038 241.328V240.392H134.074C133.826 240.392 133.626 240.34 133.474 240.236C133.33 240.132 133.258 239.968 133.258 239.744C133.258 239.616 133.29 239.476 133.354 239.324C133.426 239.172 133.55 238.972 133.726 238.724L137.014 233.96C137.126 233.792 137.25 233.664 137.386 233.576C137.522 233.488 137.678 233.444 137.854 233.444C138.062 233.444 138.234 233.508 138.37 233.636C138.506 233.756 138.574 233.948 138.574 234.212V239.12H139.162C139.394 239.12 139.566 239.176 139.678 239.288C139.798 239.392 139.858 239.548 139.858 239.756C139.858 239.964 139.798 240.124 139.678 240.236C139.566 240.34 139.394 240.392 139.162 240.392H138.574V241.328C138.574 241.576 138.506 241.768 138.37 241.904C138.234 242.032 138.046 242.096 137.806 242.096ZM137.038 239.12V235.376H137.386L134.554 239.528V239.12H137.038Z" fill="#045663"/>
<path d="M20 275C20 268.373 25.3726 263 32 263H208C214.627 263 220 268.373 220 275V293C220 299.627 214.627 305 208 305H32C25.3726 305 20 299.627 20 293V275Z" fill="#00CEAB"/>
<path d="M101.659 288C101.411 288 101.219 287.932 101.083 287.796C100.947 287.652 100.879 287.456 100.879 287.208V280.284C100.879 280.028 100.943 279.836 101.071 279.708C101.207 279.572 101.399 279.504 101.647 279.504C101.895 279.504 102.083 279.572 102.211 279.708C102.347 279.836 102.415 280.028 102.415 280.284V286.692H105.895C106.111 286.692 106.275 286.748 106.387 286.86C106.507 286.972 106.567 287.132 106.567 287.34C106.567 287.548 106.507 287.712 106.387 287.832C106.275 287.944 106.111 288 105.895 288H101.659ZM110.307 288.12C109.643 288.12 109.071 287.996 108.591 287.748C108.111 287.5 107.739 287.148 107.475 286.692C107.219 286.236 107.091 285.696 107.091 285.072C107.091 284.464 107.215 283.932 107.463 283.476C107.719 283.02 108.067 282.664 108.507 282.408C108.955 282.144 109.463 282.012 110.031 282.012C110.447 282.012 110.819 282.08 111.147 282.216C111.483 282.352 111.767 282.548 111.999 282.804C112.239 283.06 112.419 283.372 112.539 283.74C112.667 284.1 112.731 284.508 112.731 284.964C112.731 285.108 112.679 285.22 112.575 285.3C112.479 285.372 112.339 285.408 112.155 285.408H108.303V284.544H111.675L111.483 284.724C111.483 284.356 111.427 284.048 111.315 283.8C111.211 283.552 111.055 283.364 110.847 283.236C110.647 283.1 110.395 283.032 110.091 283.032C109.755 283.032 109.467 283.112 109.227 283.272C108.995 283.424 108.815 283.644 108.687 283.932C108.567 284.212 108.507 284.548 108.507 284.94V285.024C108.507 285.68 108.659 286.172 108.963 286.5C109.275 286.82 109.731 286.98 110.331 286.98C110.539 286.98 110.771 286.956 111.027 286.908C111.291 286.852 111.539 286.76 111.771 286.632C111.939 286.536 112.087 286.496 112.215 286.512C112.343 286.52 112.443 286.564 112.515 286.644C112.595 286.724 112.643 286.824 112.659 286.944C112.675 287.056 112.651 287.172 112.587 287.292C112.531 287.412 112.431 287.516 112.287 287.604C112.007 287.78 111.683 287.912 111.315 288C110.955 288.08 110.619 288.12 110.307 288.12ZM116.201 288.096C116.001 288.096 115.825 288.044 115.673 287.94C115.529 287.836 115.409 287.676 115.313 287.46L113.405 283.032C113.333 282.856 113.305 282.692 113.321 282.54C113.345 282.388 113.417 282.268 113.537 282.18C113.665 282.084 113.837 282.036 114.053 282.036C114.237 282.036 114.385 282.08 114.497 282.168C114.609 282.248 114.709 282.404 114.797 282.636L116.417 286.68H116.057L117.725 282.624C117.813 282.4 117.913 282.248 118.025 282.168C118.145 282.08 118.305 282.036 118.505 282.036C118.681 282.036 118.821 282.084 118.925 282.18C119.029 282.268 119.093 282.388 119.117 282.54C119.141 282.684 119.113 282.844 119.033 283.02L117.089 287.46C117.001 287.676 116.881 287.836 116.729 287.94C116.585 288.044 116.409 288.096 116.201 288.096ZM122.928 288.12C122.264 288.12 121.692 287.996 121.212 287.748C120.732 287.5 120.36 287.148 120.096 286.692C119.84 286.236 119.712 285.696 119.712 285.072C119.712 284.464 119.836 283.932 120.084 283.476C120.34 283.02 120.688 282.664 121.128 282.408C121.576 282.144 122.084 282.012 122.652 282.012C123.068 282.012 123.44 282.08 123.768 282.216C124.104 282.352 124.388 282.548 124.62 282.804C124.86 283.06 125.04 283.372 125.16 283.74C125.288 284.1 125.352 284.508 125.352 284.964C125.352 285.108 125.3 285.22 125.196 285.3C125.1 285.372 124.96 285.408 124.776 285.408H120.924V284.544H124.296L124.104 284.724C124.104 284.356 124.048 284.048 123.936 283.8C123.832 283.552 123.676 283.364 123.468 283.236C123.268 283.1 123.016 283.032 122.712 283.032C122.376 283.032 122.088 283.112 121.848 283.272C121.616 283.424 121.436 283.644 121.308 283.932C121.188 284.212 121.128 284.548 121.128 284.94V285.024C121.128 285.68 121.28 286.172 121.584 286.5C121.896 286.82 122.352 286.98 122.952 286.98C123.16 286.98 123.392 286.956 123.648 286.908C123.912 286.852 124.16 286.76 124.392 286.632C124.56 286.536 124.708 286.496 124.836 286.512C124.964 286.52 125.064 286.564 125.136 286.644C125.216 286.724 125.264 286.824 125.28 286.944C125.296 287.056 125.272 287.172 125.208 287.292C125.152 287.412 125.052 287.516 124.908 287.604C124.628 287.78 124.304 287.912 123.936 288C123.576 288.08 123.24 288.12 122.928 288.12ZM128.544 288.12C127.88 288.12 127.38 287.932 127.044 287.556C126.708 287.172 126.54 286.612 126.54 285.876V280.2C126.54 279.952 126.604 279.764 126.732 279.636C126.86 279.508 127.044 279.444 127.284 279.444C127.524 279.444 127.708 279.508 127.836 279.636C127.972 279.764 128.04 279.952 128.04 280.2V285.804C128.04 286.172 128.116 286.444 128.268 286.62C128.428 286.796 128.652 286.884 128.94 286.884C129.004 286.884 129.064 286.884 129.12 286.884C129.176 286.876 129.232 286.868 129.288 286.86C129.4 286.844 129.476 286.876 129.516 286.956C129.556 287.028 129.576 287.18 129.576 287.412C129.576 287.612 129.536 287.768 129.456 287.88C129.376 287.992 129.244 288.06 129.06 288.084C128.98 288.092 128.896 288.1 128.808 288.108C128.72 288.116 128.632 288.12 128.544 288.12ZM136.522 288.12C136.098 288.12 135.666 288.064 135.226 287.952C134.786 287.84 134.382 287.668 134.014 287.436C133.862 287.34 133.758 287.228 133.702 287.1C133.654 286.964 133.642 286.832 133.666 286.704C133.698 286.568 133.758 286.456 133.846 286.368C133.942 286.272 134.054 286.216 134.182 286.2C134.318 286.184 134.466 286.22 134.626 286.308C134.922 286.476 135.222 286.604 135.526 286.692C135.83 286.78 136.154 286.824 136.498 286.824C136.834 286.824 137.122 286.764 137.362 286.644C137.602 286.524 137.786 286.356 137.914 286.14C138.042 285.924 138.106 285.672 138.106 285.384C138.106 284.936 137.97 284.576 137.698 284.304C137.426 284.024 137.054 283.884 136.582 283.884C136.326 283.884 136.078 283.928 135.838 284.016C135.598 284.096 135.362 284.24 135.13 284.448C135.058 284.512 134.966 284.576 134.854 284.64C134.742 284.696 134.622 284.724 134.494 284.724C134.294 284.724 134.142 284.672 134.038 284.568C133.934 284.464 133.882 284.32 133.882 284.136V280.212C133.882 279.996 133.938 279.832 134.05 279.72C134.17 279.6 134.338 279.54 134.554 279.54H138.502C138.718 279.54 138.882 279.596 138.994 279.708C139.114 279.812 139.174 279.968 139.174 280.176C139.174 280.376 139.114 280.532 138.994 280.644C138.882 280.756 138.718 280.812 138.502 280.812H135.382V283.5H134.986C135.194 283.22 135.47 283.004 135.814 282.852C136.158 282.7 136.534 282.624 136.942 282.624C137.478 282.624 137.942 282.74 138.334 282.972C138.734 283.196 139.042 283.512 139.258 283.92C139.482 284.32 139.594 284.788 139.594 285.324C139.594 285.876 139.47 286.364 139.222 286.788C138.974 287.204 138.618 287.532 138.154 287.772C137.698 288.004 137.154 288.12 136.522 288.12Z" fill="#045663"/>
</g>
<path d="M117.457 53.0665C118.632 51.1877 121.368 51.1877 122.543 53.0665L128.387 62.4092C129.637 64.4073 128.2 67 125.843 67H114.157C111.8 67 110.363 64.4073 111.613 62.4092L117.457 53.0665Z" fill="white"/>
<path d="M20 4C20 1.79086 21.7909 0 24 0H216C218.209 0 220 1.79086 220 4V38C220 40.2091 218.209 42 216 42H24C21.7909 42 20 40.2091 20 38V4Z" fill="#64728C" fill-opacity="0.12"/>
<path d="M90.0724 25.12C89.7204 25.12 89.3684 25.092 89.0164 25.036C88.6644 24.988 88.3324 24.912 88.0204 24.808C87.7084 24.696 87.4284 24.56 87.1804 24.4C87.0364 24.304 86.9364 24.188 86.8804 24.052C86.8244 23.916 86.8044 23.784 86.8204 23.656C86.8444 23.52 86.8964 23.404 86.9764 23.308C87.0644 23.204 87.1724 23.14 87.3004 23.116C87.4284 23.092 87.5684 23.128 87.7204 23.224C88.0724 23.432 88.4444 23.584 88.8364 23.68C89.2284 23.776 89.6404 23.824 90.0724 23.824C90.7044 23.824 91.1644 23.72 91.4524 23.512C91.7404 23.296 91.8844 23.02 91.8844 22.684C91.8844 22.404 91.7804 22.184 91.5724 22.024C91.3724 21.864 91.0244 21.732 90.5284 21.628L89.2084 21.352C88.4484 21.192 87.8804 20.924 87.5044 20.548C87.1364 20.164 86.9524 19.66 86.9524 19.036C86.9524 18.644 87.0324 18.288 87.1924 17.968C87.3524 17.648 87.5764 17.372 87.8644 17.14C88.1604 16.908 88.5084 16.732 88.9084 16.612C89.3164 16.484 89.7644 16.42 90.2524 16.42C90.7324 16.42 91.1884 16.48 91.6204 16.6C92.0524 16.72 92.4404 16.896 92.7844 17.128C92.9124 17.216 92.9964 17.324 93.0364 17.452C93.0844 17.58 93.0964 17.708 93.0724 17.836C93.0484 17.956 92.9924 18.06 92.9044 18.148C92.8164 18.236 92.7044 18.288 92.5684 18.304C92.4404 18.32 92.2924 18.28 92.1244 18.184C91.8284 18.016 91.5284 17.896 91.2244 17.824C90.9204 17.752 90.5924 17.716 90.2404 17.716C89.8724 17.716 89.5564 17.768 89.2924 17.872C89.0284 17.976 88.8244 18.124 88.6804 18.316C88.5444 18.5 88.4764 18.72 88.4764 18.976C88.4764 19.264 88.5724 19.496 88.7644 19.672C88.9564 19.84 89.2844 19.972 89.7484 20.068L91.0564 20.344C91.8484 20.512 92.4364 20.776 92.8204 21.136C93.2124 21.496 93.4084 21.976 93.4084 22.576C93.4084 22.96 93.3284 23.308 93.1684 23.62C93.0164 23.932 92.7924 24.2 92.4964 24.424C92.2084 24.648 91.8604 24.82 91.4524 24.94C91.0444 25.06 90.5844 25.12 90.0724 25.12ZM97.4747 25.12C96.8107 25.12 96.2387 24.996 95.7587 24.748C95.2787 24.5 94.9067 24.148 94.6427 23.692C94.3867 23.236 94.2587 22.696 94.2587 22.072C94.2587 21.464 94.3827 20.932 94.6307 20.476C94.8867 20.02 95.2347 19.664 95.6747 19.408C96.1227 19.144 96.6307 19.012 97.1987 19.012C97.6147 19.012 97.9867 19.08 98.3147 19.216C98.6507 19.352 98.9347 19.548 99.1667 19.804C99.4067 20.06 99.5867 20.372 99.7067 20.74C99.8347 21.1 99.8987 21.508 99.8987 21.964C99.8987 22.108 99.8467 22.22 99.7427 22.3C99.6467 22.372 99.5067 22.408 99.3227 22.408H95.4707V21.544H98.8427L98.6507 21.724C98.6507 21.356 98.5947 21.048 98.4827 20.8C98.3787 20.552 98.2227 20.364 98.0147 20.236C97.8147 20.1 97.5627 20.032 97.2587 20.032C96.9227 20.032 96.6347 20.112 96.3947 20.272C96.1627 20.424 95.9827 20.644 95.8547 20.932C95.7347 21.212 95.6747 21.548 95.6747 21.94V22.024C95.6747 22.68 95.8267 23.172 96.1307 23.5C96.4427 23.82 96.8987 23.98 97.4987 23.98C97.7067 23.98 97.9387 23.956 98.1947 23.908C98.4587 23.852 98.7067 23.76 98.9387 23.632C99.1067 23.536 99.2547 23.496 99.3827 23.512C99.5107 23.52 99.6107 23.564 99.6827 23.644C99.7627 23.724 99.8107 23.824 99.8267 23.944C99.8427 24.056 99.8187 24.172 99.7547 24.292C99.6987 24.412 99.5987 24.516 99.4547 24.604C99.1747 24.78 98.8507 24.912 98.4827 25C98.1227 25.08 97.7867 25.12 97.4747 25.12ZM103.091 25.12C102.427 25.12 101.927 24.932 101.591 24.556C101.255 24.172 101.087 23.612 101.087 22.876V17.2C101.087 16.952 101.151 16.764 101.279 16.636C101.407 16.508 101.591 16.444 101.831 16.444C102.071 16.444 102.255 16.508 102.383 16.636C102.519 16.764 102.587 16.952 102.587 17.2V22.804C102.587 23.172 102.663 23.444 102.815 23.62C102.975 23.796 103.199 23.884 103.487 23.884C103.551 23.884 103.611 23.884 103.667 23.884C103.723 23.876 103.779 23.868 103.835 23.86C103.947 23.844 104.023 23.876 104.063 23.956C104.103 24.028 104.123 24.18 104.123 24.412C104.123 24.612 104.083 24.768 104.003 24.88C103.923 24.992 103.791 25.06 103.607 25.084C103.527 25.092 103.443 25.1 103.355 25.108C103.267 25.116 103.179 25.12 103.091 25.12ZM107.752 25.12C107.088 25.12 106.516 24.996 106.036 24.748C105.556 24.5 105.184 24.148 104.92 23.692C104.664 23.236 104.536 22.696 104.536 22.072C104.536 21.464 104.66 20.932 104.908 20.476C105.164 20.02 105.512 19.664 105.952 19.408C106.4 19.144 106.908 19.012 107.476 19.012C107.892 19.012 108.264 19.08 108.592 19.216C108.928 19.352 109.212 19.548 109.444 19.804C109.684 20.06 109.864 20.372 109.984 20.74C110.112 21.1 110.176 21.508 110.176 21.964C110.176 22.108 110.124 22.22 110.02 22.3C109.924 22.372 109.784 22.408 109.6 22.408H105.748V21.544H109.12L108.928 21.724C108.928 21.356 108.872 21.048 108.76 20.8C108.656 20.552 108.5 20.364 108.292 20.236C108.092 20.1 107.84 20.032 107.536 20.032C107.2 20.032 106.912 20.112 106.672 20.272C106.44 20.424 106.26 20.644 106.132 20.932C106.012 21.212 105.952 21.548 105.952 21.94V22.024C105.952 22.68 106.104 23.172 106.408 23.5C106.72 23.82 107.176 23.98 107.776 23.98C107.984 23.98 108.216 23.956 108.472 23.908C108.736 23.852 108.984 23.76 109.216 23.632C109.384 23.536 109.532 23.496 109.66 23.512C109.788 23.52 109.888 23.564 109.96 23.644C110.04 23.724 110.088 23.824 110.104 23.944C110.12 24.056 110.096 24.172 110.032 24.292C109.976 24.412 109.876 24.516 109.732 24.604C109.452 24.78 109.128 24.912 108.76 25C108.4 25.08 108.064 25.12 107.752 25.12ZM114.076 25.12C113.46 25.12 112.924 24.996 112.468 24.748C112.012 24.492 111.66 24.132 111.412 23.668C111.164 23.204 111.04 22.66 111.04 22.036C111.04 21.564 111.108 21.144 111.244 20.776C111.388 20.4 111.592 20.084 111.856 19.828C112.12 19.564 112.44 19.364 112.816 19.228C113.192 19.084 113.612 19.012 114.076 19.012C114.34 19.012 114.624 19.048 114.928 19.12C115.24 19.192 115.532 19.312 115.804 19.48C115.932 19.56 116.016 19.656 116.056 19.768C116.096 19.88 116.104 19.996 116.08 20.116C116.056 20.228 116.004 20.328 115.924 20.416C115.852 20.496 115.76 20.548 115.648 20.572C115.536 20.588 115.412 20.56 115.276 20.488C115.1 20.384 114.92 20.308 114.736 20.26C114.552 20.204 114.376 20.176 114.208 20.176C113.944 20.176 113.712 20.22 113.512 20.308C113.312 20.388 113.14 20.508 112.996 20.668C112.86 20.82 112.756 21.012 112.684 21.244C112.612 21.476 112.576 21.744 112.576 22.048C112.576 22.64 112.716 23.108 112.996 23.452C113.284 23.788 113.688 23.956 114.208 23.956C114.376 23.956 114.548 23.932 114.724 23.884C114.908 23.836 115.092 23.76 115.276 23.656C115.412 23.584 115.532 23.56 115.636 23.584C115.748 23.608 115.84 23.664 115.912 23.752C115.984 23.832 116.028 23.932 116.044 24.052C116.06 24.164 116.044 24.276 115.996 24.388C115.956 24.5 115.876 24.592 115.756 24.664C115.492 24.824 115.212 24.94 114.916 25.012C114.62 25.084 114.34 25.12 114.076 25.12ZM119.736 25.12C119.216 25.12 118.78 25.032 118.428 24.856C118.084 24.68 117.828 24.424 117.66 24.088C117.492 23.744 117.408 23.32 117.408 22.816V20.26H116.784C116.592 20.26 116.444 20.212 116.34 20.116C116.236 20.012 116.184 19.872 116.184 19.696C116.184 19.512 116.236 19.372 116.34 19.276C116.444 19.18 116.592 19.132 116.784 19.132H117.408V18.04C117.408 17.792 117.472 17.604 117.6 17.476C117.736 17.348 117.924 17.284 118.164 17.284C118.404 17.284 118.588 17.348 118.716 17.476C118.844 17.604 118.908 17.792 118.908 18.04V19.132H120.18C120.372 19.132 120.52 19.18 120.624 19.276C120.728 19.372 120.78 19.512 120.78 19.696C120.78 19.872 120.728 20.012 120.624 20.116C120.52 20.212 120.372 20.26 120.18 20.26H118.908V22.732C118.908 23.116 118.992 23.404 119.16 23.596C119.328 23.788 119.6 23.884 119.976 23.884C120.112 23.884 120.232 23.872 120.336 23.848C120.44 23.824 120.532 23.808 120.612 23.8C120.708 23.792 120.788 23.824 120.852 23.896C120.916 23.96 120.948 24.096 120.948 24.304C120.948 24.464 120.92 24.608 120.864 24.736C120.816 24.856 120.724 24.94 120.588 24.988C120.484 25.02 120.348 25.048 120.18 25.072C120.012 25.104 119.864 25.12 119.736 25.12ZM125.835 25C125.587 25 125.395 24.932 125.259 24.796C125.123 24.652 125.055 24.456 125.055 24.208V17.284C125.055 17.028 125.119 16.836 125.247 16.708C125.383 16.572 125.575 16.504 125.823 16.504C126.071 16.504 126.259 16.572 126.387 16.708C126.523 16.836 126.591 17.028 126.591 17.284V23.692H130.071C130.287 23.692 130.451 23.748 130.563 23.86C130.683 23.972 130.743 24.132 130.743 24.34C130.743 24.548 130.683 24.712 130.563 24.832C130.451 24.944 130.287 25 130.071 25H125.835ZM134.483 25.12C133.819 25.12 133.247 24.996 132.767 24.748C132.287 24.5 131.915 24.148 131.651 23.692C131.395 23.236 131.267 22.696 131.267 22.072C131.267 21.464 131.391 20.932 131.639 20.476C131.895 20.02 132.243 19.664 132.683 19.408C133.131 19.144 133.639 19.012 134.207 19.012C134.623 19.012 134.995 19.08 135.323 19.216C135.659 19.352 135.943 19.548 136.175 19.804C136.415 20.06 136.595 20.372 136.715 20.74C136.843 21.1 136.907 21.508 136.907 21.964C136.907 22.108 136.855 22.22 136.751 22.3C136.655 22.372 136.515 22.408 136.331 22.408H132.479V21.544H135.851L135.659 21.724C135.659 21.356 135.603 21.048 135.491 20.8C135.387 20.552 135.231 20.364 135.023 20.236C134.823 20.1 134.571 20.032 134.267 20.032C133.931 20.032 133.643 20.112 133.403 20.272C133.171 20.424 132.991 20.644 132.863 20.932C132.743 21.212 132.683 21.548 132.683 21.94V22.024C132.683 22.68 132.835 23.172 133.139 23.5C133.451 23.82 133.907 23.98 134.507 23.98C134.715 23.98 134.947 23.956 135.203 23.908C135.467 23.852 135.715 23.76 135.947 23.632C136.115 23.536 136.263 23.496 136.391 23.512C136.519 23.52 136.619 23.564 136.691 23.644C136.771 23.724 136.819 23.824 136.835 23.944C136.851 24.056 136.827 24.172 136.763 24.292C136.707 24.412 136.607 24.516 136.463 24.604C136.183 24.78 135.859 24.912 135.491 25C135.131 25.08 134.795 25.12 134.483 25.12ZM140.377 25.096C140.177 25.096 140.001 25.044 139.849 24.94C139.705 24.836 139.585 24.676 139.489 24.46L137.581 20.032C137.509 19.856 137.481 19.692 137.497 19.54C137.521 19.388 137.593 19.268 137.713 19.18C137.841 19.084 138.013 19.036 138.229 19.036C138.413 19.036 138.561 19.08 138.673 19.168C138.785 19.248 138.885 19.404 138.973 19.636L140.593 23.68H140.233L141.901 19.624C141.989 19.4 142.089 19.248 142.201 19.168C142.321 19.08 142.481 19.036 142.681 19.036C142.857 19.036 142.997 19.084 143.101 19.18C143.205 19.268 143.269 19.388 143.293 19.54C143.317 19.684 143.289 19.844 143.209 20.02L141.265 24.46C141.177 24.676 141.057 24.836 140.905 24.94C140.761 25.044 140.585 25.096 140.377 25.096ZM147.104 25.12C146.44 25.12 145.868 24.996 145.388 24.748C144.908 24.5 144.536 24.148 144.272 23.692C144.016 23.236 143.888 22.696 143.888 22.072C143.888 21.464 144.012 20.932 144.26 20.476C144.516 20.02 144.864 19.664 145.304 19.408C145.752 19.144 146.26 19.012 146.828 19.012C147.244 19.012 147.616 19.08 147.944 19.216C148.28 19.352 148.564 19.548 148.796 19.804C149.036 20.06 149.216 20.372 149.336 20.74C149.464 21.1 149.528 21.508 149.528 21.964C149.528 22.108 149.476 22.22 149.372 22.3C149.276 22.372 149.136 22.408 148.952 22.408H145.1V21.544H148.472L148.28 21.724C148.28 21.356 148.224 21.048 148.112 20.8C148.008 20.552 147.852 20.364 147.644 20.236C147.444 20.1 147.192 20.032 146.888 20.032C146.552 20.032 146.264 20.112 146.024 20.272C145.792 20.424 145.612 20.644 145.484 20.932C145.364 21.212 145.304 21.548 145.304 21.94V22.024C145.304 22.68 145.456 23.172 145.76 23.5C146.072 23.82 146.528 23.98 147.128 23.98C147.336 23.98 147.568 23.956 147.824 23.908C148.088 23.852 148.336 23.76 148.568 23.632C148.736 23.536 148.884 23.496 149.012 23.512C149.14 23.52 149.24 23.564 149.312 23.644C149.392 23.724 149.44 23.824 149.456 23.944C149.472 24.056 149.448 24.172 149.384 24.292C149.328 24.412 149.228 24.516 149.084 24.604C148.804 24.78 148.48 24.912 148.112 25C147.752 25.08 147.416 25.12 147.104 25.12ZM152.72 25.12C152.056 25.12 151.556 24.932 151.22 24.556C150.884 24.172 150.716 23.612 150.716 22.876V17.2C150.716 16.952 150.78 16.764 150.908 16.636C151.036 16.508 151.22 16.444 151.46 16.444C151.7 16.444 151.884 16.508 152.012 16.636C152.148 16.764 152.216 16.952 152.216 17.2V22.804C152.216 23.172 152.292 23.444 152.444 23.62C152.604 23.796 152.828 23.884 153.116 23.884C153.18 23.884 153.24 23.884 153.296 23.884C153.352 23.876 153.408 23.868 153.464 23.86C153.576 23.844 153.652 23.876 153.692 23.956C153.732 24.028 153.752 24.18 153.752 24.412C153.752 24.612 153.712 24.768 153.632 24.88C153.552 24.992 153.42 25.06 153.236 25.084C153.156 25.092 153.072 25.1 152.984 25.108C152.896 25.116 152.808 25.12 152.72 25.12Z" fill="#64728C"/>
<defs>
<filter id="filter0_d_1269_16733" x="0" y="63" width="240" height="270" filterUnits="userSpaceOnUse" color-interpolation-filters="sRGB">
<feFlood flood-opacity="0" result="BackgroundImageFix"/>
<feColorMatrix in="SourceAlpha" type="matrix" values="0 0 0 0 0 0 0 0 0 0 0 0 0 0 0 0 0 0 127 0" result="hardAlpha"/>
<feOffset dy="4"/>
<feGaussianBlur stdDeviation="2"/>
<feComposite in2="hardAlpha" operator="out"/>
<feColorMatrix type="matrix" values="0 0 0 0 0 0 0 0 0 0 0 0 0 0 0 0 0 0 0.05 0"/>
<feBlend mode="normal" in2="BackgroundImageFix" result="effect1_dropShadow_1269_16733"/>
<feBlend mode="normal" in="SourceGraphic" in2="effect1_dropShadow_1269_16733" result="shape"/>
</filter>
<filter id="filter1_i_1269_16733" x="20" y="171" width="200" height="44" filterUnits="userSpaceOnUse" color-interpolation-filters="sRGB">
<feFlood flood-opacity="0" result="BackgroundImageFix"/>
<feBlend mode="normal" in="SourceGraphic" in2="BackgroundImageFix" result="shape"/>
<feColorMatrix in="SourceAlpha" type="matrix" values="0 0 0 0 0 0 0 0 0 0 0 0 0 0 0 0 0 0 127 0" result="hardAlpha"/>
<feOffset dy="2"/>
<feGaussianBlur stdDeviation="2"/>
<feComposite in2="hardAlpha" operator="arithmetic" k2="-1" k3="1"/>
<feColorMatrix type="matrix" values="0 0 0 0 0 0 0 0 0 0 0 0 0 0 0 0 0 0 0.05 0"/>
<feBlend mode="normal" in2="shape" result="effect1_innerShadow_1269_16733"/>
</filter>
</defs>
</svg>
