<svg width="250" height="130" viewBox="0 0 250 130" fill="none" xmlns="http://www.w3.org/2000/svg">
<rect width="250" height="130" rx="16" fill="#FE5000" fill-opacity="0.06"/>
<rect x="0.5" y="0.5" width="249" height="129" rx="15.5" stroke="#FE5000" stroke-opacity="0.16"/>
<path fill-rule="evenodd" clip-rule="evenodd" d="M43.2893 22.9497C43.2893 27.8924 39.5965 31.8993 35.0411 31.8993C30.4858 31.8993 26.793 27.8924 26.793 22.9497C26.793 18.0069 30.4858 14 35.0411 14C39.5965 14 43.2893 18.0069 43.2893 22.9497ZM39.9227 22.9497C39.9227 26.0537 37.6319 28.3666 35.0411 28.3666C32.4504 28.3666 30.1596 26.0537 30.1596 22.9497C30.1596 19.8457 32.4504 17.5328 35.0411 17.5328C37.6319 17.5328 39.9227 19.8457 39.9227 22.9497Z" fill="#FE5000"/>
<path d="M28.5385 37.5423C31.1498 37.2569 32.9723 37.2073 35.3237 37.5363C36.2452 37.6652 37.0918 36.9858 37.2147 36.0188C37.3375 35.0518 36.6901 34.1634 35.7686 34.0345C33.0701 33.657 30.9649 33.7252 28.1897 34.0285C24.2617 34.4578 20.8118 35.6451 18.2924 37.4046C15.7893 39.1528 13.9997 41.6355 14 44.6246L14.0001 46.1471C14.0003 49.0752 16.263 51.4473 19.0523 51.4473H33.5262C34.4558 51.4473 35.2095 50.6565 35.2095 49.6809C35.2095 48.7054 34.4558 47.9145 33.5262 47.9145H19.0523C18.1211 47.9145 17.3668 47.1228 17.3667 46.1468L17.3666 44.6242C17.3664 43.2515 18.1859 41.7226 20.1577 40.3456C22.1131 38.9799 25.0039 37.9286 28.5385 37.5423Z" fill="#FE5000"/>
<path d="M42.2331 37.7873C42.2331 35.1858 44.2427 33.0769 46.7218 33.0769H48.5056C50.9847 33.0769 52.9944 35.1858 52.9944 37.7873V38.5685H50.1934V38.1392C50.1934 36.8385 49.1886 35.784 47.949 35.784H47.2783C46.0387 35.784 45.0339 36.8385 45.0339 38.1392V38.5685H42.2331V37.7873Z" fill="#FE5000"/>
<path fill-rule="evenodd" clip-rule="evenodd" d="M40.7082 38.6145C38.2291 38.6145 36.2195 40.7234 36.2195 43.3249V51.2896C36.2195 53.8911 38.2291 56 40.7082 56H54.5112C56.9903 56 59 53.8911 59 51.2896V43.3249C59 40.7234 56.9903 38.6145 54.5112 38.6145H40.7082ZM49.1587 42.6067C48.3159 42.6067 47.6327 43.3237 47.6327 44.208C47.6327 45.0924 48.3159 45.8093 49.1587 45.8093H53.6684C54.5111 45.8093 55.1943 45.0924 55.1943 44.208C55.1943 43.3237 54.5111 42.6067 53.6684 42.6067H49.1587Z" fill="#FE5000"/>
<path d="M19.3281 85.5391V77.4844H21.7344V85.5C21.7344 86.4792 21.5651 87.2552 21.2266 87.8281C20.6536 88.7969 19.6198 89.2812 18.125 89.2812C16.6302 89.2812 15.6276 88.8906 15.1172 88.1094C14.6068 87.3229 14.3516 86.2526 14.3516 84.8984V84.6328H16.625V84.8984C16.6458 85.7891 16.7422 86.4167 16.9141 86.7812C17.0911 87.1406 17.4661 87.3203 18.0391 87.3203C18.6068 87.3203 18.9818 87.1224 19.1641 86.7266C19.2734 86.4922 19.3281 86.0964 19.3281 85.5391ZM31.0469 81.5625C31.7656 82.4635 32.125 83.5286 32.125 84.7578C32.125 86.0078 31.7656 87.0781 31.0469 87.9688C30.3281 88.8542 29.237 89.2969 27.7734 89.2969C26.3099 89.2969 25.2188 88.8542 24.5 87.9688C23.7812 87.0781 23.4219 86.0078 23.4219 84.7578C23.4219 83.5286 23.7812 82.4635 24.5 81.5625C25.2188 80.6615 26.3099 80.2109 27.7734 80.2109C29.237 80.2109 30.3281 80.6615 31.0469 81.5625ZM27.7656 82.0938C27.1146 82.0938 26.612 82.3255 26.2578 82.7891C25.9089 83.2474 25.7344 83.9036 25.7344 84.7578C25.7344 85.612 25.9089 86.2708 26.2578 86.7344C26.612 87.1979 27.1146 87.4297 27.7656 87.4297C28.4167 87.4297 28.9167 87.1979 29.2656 86.7344C29.6146 86.2708 29.7891 85.612 29.7891 84.7578C29.7891 83.9036 29.6146 83.2474 29.2656 82.7891C28.9167 82.3255 28.4167 82.0938 27.7656 82.0938ZM38.3516 89.2266C37.6484 89.2266 37.0833 89.0859 36.6562 88.8047C36.401 88.638 36.125 88.3464 35.8281 87.9297V89H33.6484V77.5H35.8672V81.5938C36.1484 81.1979 36.4583 80.8958 36.7969 80.6875C37.1979 80.4271 37.7083 80.2969 38.3281 80.2969C39.4479 80.2969 40.3229 80.7005 40.9531 81.5078C41.5885 82.3151 41.9062 83.3568 41.9062 84.6328C41.9062 85.9557 41.5938 87.0521 40.9688 87.9219C40.3438 88.7917 39.4714 89.2266 38.3516 89.2266ZM39.5703 84.8672C39.5703 84.263 39.4922 83.763 39.3359 83.3672C39.0391 82.6172 38.4922 82.2422 37.6953 82.2422C36.888 82.2422 36.3333 82.6094 36.0312 83.3438C35.875 83.7344 35.7969 84.2396 35.7969 84.8594C35.7969 85.5885 35.9583 86.1927 36.2812 86.6719C36.6042 87.151 37.0964 87.3906 37.7578 87.3906C38.3307 87.3906 38.776 87.1589 39.0938 86.6953C39.4115 86.2318 39.5703 85.6224 39.5703 84.8672ZM52.3203 87.3359C52.888 87.3359 53.349 87.2734 53.7031 87.1484C54.375 86.9089 54.7109 86.4635 54.7109 85.8125C54.7109 85.4323 54.5443 85.138 54.2109 84.9297C53.8776 84.7266 53.3542 84.5469 52.6406 84.3906L51.4219 84.1172C50.224 83.8464 49.3958 83.5521 48.9375 83.2344C48.1615 82.7031 47.7734 81.8724 47.7734 80.7422C47.7734 79.7109 48.1484 78.8542 48.8984 78.1719C49.6484 77.4896 50.75 77.1484 52.2031 77.1484C53.4167 77.1484 54.4505 77.4714 55.3047 78.1172C56.1641 78.7578 56.6146 79.6901 56.6562 80.9141H54.3438C54.3021 80.2214 54 79.7292 53.4375 79.4375C53.0625 79.2448 52.5964 79.1484 52.0391 79.1484C51.4193 79.1484 50.9245 79.2734 50.5547 79.5234C50.1849 79.7734 50 80.1224 50 80.5703C50 80.9818 50.1823 81.2891 50.5469 81.4922C50.7812 81.6276 51.2812 81.7865 52.0469 81.9688L54.0312 82.4453C54.901 82.6536 55.5573 82.9323 56 83.2812C56.6875 83.8229 57.0312 84.6068 57.0312 85.6328C57.0312 86.6849 56.6276 87.5599 55.8203 88.2578C55.0182 88.9505 53.8828 89.2969 52.4141 89.2969C50.9141 89.2969 49.7344 88.9557 48.875 88.2734C48.0156 87.5859 47.5859 86.6432 47.5859 85.4453H49.8828C49.9557 85.9714 50.099 86.3646 50.3125 86.625C50.7031 87.099 51.3724 87.3359 52.3203 87.3359ZM62.5312 87.4141V89.0781L61.4766 89.1172C60.4245 89.1536 59.7057 88.9714 59.3203 88.5703C59.0703 88.3151 58.9453 87.9219 58.9453 87.3906V82.1484H57.7578V80.5625H58.9453V78.1875H61.1484V80.5625H62.5312V82.1484H61.1484V86.6484C61.1484 86.9974 61.1927 87.2161 61.2812 87.3047C61.3698 87.388 61.6406 87.4297 62.0938 87.4297C62.1615 87.4297 62.2318 87.4297 62.3047 87.4297C62.3828 87.4245 62.4583 87.4193 62.5312 87.4141ZM64.2812 81.4062C64.8698 80.6562 65.8802 80.2812 67.3125 80.2812C68.2448 80.2812 69.0729 80.4661 69.7969 80.8359C70.5208 81.2057 70.8828 81.9036 70.8828 82.9297V86.8359C70.8828 87.1068 70.888 87.4349 70.8984 87.8203C70.9141 88.112 70.9583 88.3099 71.0312 88.4141C71.1042 88.5182 71.2135 88.6042 71.3594 88.6719V89H68.9375C68.8698 88.8281 68.8229 88.6667 68.7969 88.5156C68.7708 88.3646 68.75 88.1927 68.7344 88C68.4271 88.3333 68.0729 88.6172 67.6719 88.8516C67.1927 89.1276 66.651 89.2656 66.0469 89.2656C65.276 89.2656 64.638 89.0469 64.1328 88.6094C63.6328 88.1667 63.3828 87.5417 63.3828 86.7344C63.3828 85.6875 63.7865 84.9297 64.5938 84.4609C65.0365 84.2057 65.6875 84.0234 66.5469 83.9141L67.3047 83.8203C67.7161 83.7682 68.0104 83.7031 68.1875 83.625C68.5052 83.4896 68.6641 83.2786 68.6641 82.9922C68.6641 82.6432 68.5417 82.4036 68.2969 82.2734C68.0573 82.138 67.7031 82.0703 67.2344 82.0703C66.7083 82.0703 66.3359 82.2005 66.1172 82.4609C65.9609 82.6536 65.8568 82.9141 65.8047 83.2422H63.6562C63.7031 82.4974 63.9115 81.8854 64.2812 81.4062ZM65.9375 87.3906C66.1458 87.5625 66.401 87.6484 66.7031 87.6484C67.1823 87.6484 67.6224 87.5078 68.0234 87.2266C68.4297 86.9453 68.6406 86.4323 68.6562 85.6875V84.8594C68.5156 84.9479 68.3724 85.0208 68.2266 85.0781C68.0859 85.1302 67.8906 85.1797 67.6406 85.2266L67.1406 85.3203C66.6719 85.4036 66.3359 85.5052 66.1328 85.625C65.7891 85.8281 65.6172 86.1432 65.6172 86.5703C65.6172 86.9505 65.724 87.224 65.9375 87.3906ZM76.7656 87.4141V89.0781L75.7109 89.1172C74.6589 89.1536 73.9401 88.9714 73.5547 88.5703C73.3047 88.3151 73.1797 87.9219 73.1797 87.3906V82.1484H71.9922V80.5625H73.1797V78.1875H75.3828V80.5625H76.7656V82.1484H75.3828V86.6484C75.3828 86.9974 75.4271 87.2161 75.5156 87.3047C75.6042 87.388 75.875 87.4297 76.3281 87.4297C76.3958 87.4297 76.4661 87.4297 76.5391 87.4297C76.6172 87.4245 76.6927 87.4193 76.7656 87.4141ZM83.6562 87.7969C83.6354 87.8229 83.5833 87.901 83.5 88.0312C83.4167 88.1615 83.3177 88.276 83.2031 88.375C82.8542 88.6875 82.5156 88.901 82.1875 89.0156C81.8646 89.1302 81.4844 89.1875 81.0469 89.1875C79.7865 89.1875 78.9375 88.7344 78.5 87.8281C78.2552 87.3281 78.1328 86.5911 78.1328 85.6172V80.4844H80.4141V85.6172C80.4141 86.1016 80.4714 86.4661 80.5859 86.7109C80.7891 87.1432 81.1875 87.3594 81.7812 87.3594C82.5417 87.3594 83.0625 87.0521 83.3438 86.4375C83.4896 86.1042 83.5625 85.6641 83.5625 85.1172V80.4844H85.8203V89H83.6562V87.7969ZM93.8438 80.875C94.5104 81.3021 94.8932 82.0365 94.9922 83.0781H92.7656C92.7344 82.7917 92.6536 82.5651 92.5234 82.3984C92.2786 82.0964 91.862 81.9453 91.2734 81.9453C90.7891 81.9453 90.4427 82.0208 90.2344 82.1719C90.0312 82.3229 89.9297 82.5 89.9297 82.7031C89.9297 82.9583 90.0391 83.1432 90.2578 83.2578C90.4766 83.3776 91.25 83.5833 92.5781 83.875C93.4635 84.0833 94.1276 84.3984 94.5703 84.8203C95.0078 85.2474 95.2266 85.7812 95.2266 86.4219C95.2266 87.2656 94.9115 87.9557 94.2812 88.4922C93.6562 89.0234 92.6875 89.2891 91.375 89.2891C90.0365 89.2891 89.0469 89.0078 88.4062 88.4453C87.7708 87.8776 87.4531 87.1562 87.4531 86.2812H89.7109C89.7578 86.6771 89.8594 86.9583 90.0156 87.125C90.2917 87.4219 90.8021 87.5703 91.5469 87.5703C91.9844 87.5703 92.3307 87.5052 92.5859 87.375C92.8464 87.2448 92.9766 87.0495 92.9766 86.7891C92.9766 86.5391 92.8724 86.349 92.6641 86.2188C92.4557 86.0885 91.6823 85.8646 90.3438 85.5469C89.3802 85.3073 88.7005 85.0078 88.3047 84.6484C87.9089 84.2943 87.7109 83.7839 87.7109 83.1172C87.7109 82.3307 88.0182 81.6562 88.6328 81.0938C89.2526 80.526 90.1224 80.2422 91.2422 80.2422C92.3047 80.2422 93.1719 80.4531 93.8438 80.875Z" fill="#FE5000"/>
<path d="M16.096 113.112C15.8613 113.112 15.68 113.048 15.552 112.92C15.424 112.781 15.36 112.589 15.36 112.344V102.376C15.36 102.12 15.424 101.928 15.552 101.8C15.68 101.672 15.8613 101.608 16.096 101.608C16.3413 101.608 16.528 101.672 16.656 101.8C16.784 101.928 16.848 102.12 16.848 102.376V112.344C16.848 112.589 16.784 112.781 16.656 112.92C16.5387 113.048 16.352 113.112 16.096 113.112ZM20.0755 113.112C19.8515 113.112 19.6755 113.048 19.5475 112.92C19.4195 112.792 19.3555 112.605 19.3555 112.36V105.832C19.3555 105.587 19.4195 105.405 19.5475 105.288C19.6755 105.16 19.8515 105.096 20.0755 105.096C20.2995 105.096 20.4702 105.16 20.5875 105.288C20.7155 105.405 20.7795 105.587 20.7795 105.832V107.144L20.6035 106.904C20.8275 106.296 21.1902 105.837 21.6915 105.528C22.2035 105.219 22.7848 105.064 23.4355 105.064C24.0648 105.064 24.5822 105.176 24.9875 105.4C25.3928 105.624 25.6968 105.965 25.8995 106.424C26.1022 106.883 26.2035 107.464 26.2035 108.168V112.36C26.2035 112.605 26.1395 112.792 26.0115 112.92C25.8942 113.048 25.7182 113.112 25.4835 113.112C25.2488 113.112 25.0675 113.048 24.9395 112.92C24.8115 112.792 24.7475 112.605 24.7475 112.36V108.248C24.7475 107.555 24.6142 107.048 24.3475 106.728C24.0808 106.408 23.6542 106.248 23.0675 106.248C22.3848 106.248 21.8355 106.461 21.4195 106.888C21.0142 107.304 20.8115 107.869 20.8115 108.584V112.36C20.8115 112.861 20.5662 113.112 20.0755 113.112ZM31.7438 113.144C31.1144 113.144 30.5864 113.032 30.1598 112.808C29.7438 112.584 29.4291 112.259 29.2158 111.832C29.0131 111.405 28.9118 110.883 28.9118 110.264V106.328H27.8878C27.6958 106.328 27.5464 106.28 27.4398 106.184C27.3331 106.077 27.2797 105.939 27.2797 105.768C27.2797 105.587 27.3331 105.448 27.4398 105.352C27.5464 105.256 27.6958 105.208 27.8878 105.208H28.9118V103.464C28.9118 103.219 28.9758 103.037 29.1038 102.92C29.2318 102.792 29.4131 102.728 29.6478 102.728C29.8824 102.728 30.0584 102.792 30.1758 102.92C30.3038 103.037 30.3678 103.219 30.3678 103.464V105.208H32.3038C32.5064 105.208 32.6611 105.256 32.7678 105.352C32.8744 105.448 32.9278 105.587 32.9278 105.768C32.9278 105.939 32.8744 106.077 32.7678 106.184C32.6611 106.28 32.5064 106.328 32.3038 106.328H30.3678V110.136C30.3678 110.723 30.4904 111.165 30.7358 111.464C30.9811 111.763 31.3864 111.912 31.9518 111.912C32.1544 111.912 32.3251 111.896 32.4638 111.864C32.6024 111.821 32.7251 111.8 32.8318 111.8C32.9278 111.789 33.0078 111.821 33.0718 111.896C33.1464 111.971 33.1838 112.109 33.1838 112.312C33.1838 112.461 33.1571 112.6 33.1038 112.728C33.0611 112.845 32.9704 112.925 32.8318 112.968C32.7038 113.011 32.5331 113.048 32.3198 113.08C32.1064 113.123 31.9144 113.144 31.7438 113.144ZM37.768 113.144C36.9253 113.144 36.2 112.984 35.592 112.664C34.9947 112.333 34.5307 111.869 34.2 111.272C33.8693 110.664 33.704 109.949 33.704 109.128C33.704 108.317 33.864 107.608 34.184 107C34.5147 106.392 34.9627 105.917 35.528 105.576C36.104 105.235 36.76 105.064 37.496 105.064C38.0187 105.064 38.488 105.155 38.904 105.336C39.3307 105.507 39.6933 105.757 39.992 106.088C40.2907 106.419 40.5147 106.824 40.664 107.304C40.824 107.773 40.904 108.307 40.904 108.904C40.904 109.075 40.8507 109.208 40.744 109.304C40.648 109.389 40.504 109.432 40.312 109.432H34.84V108.504H39.944L39.672 108.728C39.672 108.173 39.5867 107.704 39.416 107.32C39.256 106.925 39.016 106.627 38.696 106.424C38.3867 106.221 37.9973 106.12 37.528 106.12C37.016 106.12 36.5787 106.243 36.216 106.488C35.8533 106.723 35.576 107.059 35.384 107.496C35.192 107.923 35.096 108.419 35.096 108.984V109.08C35.096 110.04 35.3253 110.765 35.784 111.256C36.2427 111.747 36.904 111.992 37.768 111.992C38.1093 111.992 38.456 111.949 38.808 111.864C39.1707 111.779 39.5173 111.624 39.848 111.4C40.008 111.304 40.152 111.261 40.28 111.272C40.4187 111.272 40.5307 111.315 40.616 111.4C40.7013 111.475 40.7547 111.571 40.776 111.688C40.7973 111.795 40.7813 111.912 40.728 112.04C40.6747 112.168 40.5733 112.28 40.424 112.376C40.072 112.621 39.6507 112.813 39.16 112.952C38.68 113.08 38.216 113.144 37.768 113.144ZM43.4669 113.112C43.2215 113.112 43.0349 113.048 42.9069 112.92C42.7789 112.792 42.7149 112.605 42.7149 112.36V105.832C42.7149 105.587 42.7789 105.405 42.9069 105.288C43.0349 105.16 43.2109 105.096 43.4349 105.096C43.6589 105.096 43.8295 105.16 43.9469 105.288C44.0749 105.405 44.1389 105.587 44.1389 105.832V107.064H43.9789C44.1495 106.424 44.4695 105.939 44.9389 105.608C45.4082 105.277 46.0002 105.091 46.7149 105.048C46.8855 105.037 47.0242 105.08 47.1309 105.176C47.2375 105.261 47.2962 105.411 47.3069 105.624C47.3175 105.827 47.2695 105.992 47.1629 106.12C47.0562 106.237 46.8909 106.307 46.6669 106.328L46.3789 106.344C45.6749 106.419 45.1309 106.648 44.7469 107.032C44.3735 107.416 44.1869 107.944 44.1869 108.616V112.36C44.1869 112.605 44.1229 112.792 43.9949 112.92C43.8775 113.048 43.7015 113.112 43.4669 113.112ZM52.003 113.112C51.8003 113.112 51.6243 113.059 51.475 112.952C51.3257 112.845 51.1977 112.675 51.091 112.44L48.371 106.104C48.2963 105.923 48.2697 105.757 48.291 105.608C48.3123 105.459 48.3817 105.336 48.499 105.24C48.627 105.144 48.7977 105.096 49.011 105.096C49.1923 105.096 49.3363 105.139 49.443 105.224C49.5497 105.309 49.651 105.459 49.747 105.672L52.259 111.864H51.811L54.387 105.672C54.4723 105.459 54.5683 105.309 54.675 105.224C54.7923 105.139 54.9523 105.096 55.155 105.096C55.3363 105.096 55.475 105.144 55.571 105.24C55.6777 105.336 55.7417 105.459 55.763 105.608C55.7843 105.757 55.7523 105.917 55.667 106.088L52.931 112.44C52.835 112.675 52.707 112.845 52.547 112.952C52.3977 113.059 52.2163 113.112 52.003 113.112ZM58.0443 113.08C57.8203 113.08 57.6443 113.011 57.5163 112.872C57.3883 112.733 57.3243 112.541 57.3243 112.296V105.912C57.3243 105.656 57.3883 105.464 57.5163 105.336C57.6443 105.197 57.8203 105.128 58.0443 105.128C58.2789 105.128 58.4603 105.197 58.5883 105.336C58.7163 105.464 58.7803 105.656 58.7803 105.912V112.296C58.7803 112.541 58.7163 112.733 58.5883 112.872C58.4709 113.011 58.2896 113.08 58.0443 113.08ZM58.0443 103.4C57.7563 103.4 57.5269 103.325 57.3563 103.176C57.1963 103.016 57.1163 102.808 57.1163 102.552C57.1163 102.275 57.1963 102.067 57.3563 101.928C57.5269 101.779 57.7563 101.704 58.0443 101.704C58.3536 101.704 58.5829 101.779 58.7323 101.928C58.8923 102.067 58.9723 102.275 58.9723 102.552C58.9723 102.808 58.8923 103.016 58.7323 103.176C58.5829 103.325 58.3536 103.4 58.0443 103.4ZM64.7211 113.144C63.8785 113.144 63.1531 112.984 62.5451 112.664C61.9478 112.333 61.4838 111.869 61.1531 111.272C60.8225 110.664 60.6571 109.949 60.6571 109.128C60.6571 108.317 60.8171 107.608 61.1371 107C61.4678 106.392 61.9158 105.917 62.4811 105.576C63.0571 105.235 63.7131 105.064 64.4491 105.064C64.9718 105.064 65.4411 105.155 65.8571 105.336C66.2838 105.507 66.6465 105.757 66.9451 106.088C67.2438 106.419 67.4678 106.824 67.6171 107.304C67.7771 107.773 67.8571 108.307 67.8571 108.904C67.8571 109.075 67.8038 109.208 67.6971 109.304C67.6011 109.389 67.4571 109.432 67.2651 109.432H61.7931V108.504H66.8971L66.6251 108.728C66.6251 108.173 66.5398 107.704 66.3691 107.32C66.2091 106.925 65.9691 106.627 65.6491 106.424C65.3398 106.221 64.9505 106.12 64.4811 106.12C63.9691 106.12 63.5318 106.243 63.1691 106.488C62.8065 106.723 62.5291 107.059 62.3371 107.496C62.1451 107.923 62.0491 108.419 62.0491 108.984V109.08C62.0491 110.04 62.2785 110.765 62.7371 111.256C63.1958 111.747 63.8571 111.992 64.7211 111.992C65.0625 111.992 65.4091 111.949 65.7611 111.864C66.1238 111.779 66.4705 111.624 66.8011 111.4C66.9611 111.304 67.1051 111.261 67.2331 111.272C67.3718 111.272 67.4838 111.315 67.5691 111.4C67.6545 111.475 67.7078 111.571 67.7291 111.688C67.7505 111.795 67.7345 111.912 67.6811 112.04C67.6278 112.168 67.5265 112.28 67.3771 112.376C67.0251 112.621 66.6038 112.813 66.1131 112.952C65.6331 113.08 65.1691 113.144 64.7211 113.144ZM72.3266 113.112C72.124 113.112 71.948 113.064 71.7986 112.968C71.6493 112.861 71.532 112.691 71.4466 112.456L69.0626 106.104C68.988 105.901 68.9666 105.725 68.9986 105.576C69.0306 105.427 69.1053 105.309 69.2226 105.224C69.34 105.139 69.4946 105.096 69.6866 105.096C69.868 105.096 70.012 105.139 70.1186 105.224C70.2253 105.309 70.316 105.464 70.3906 105.688L72.5666 111.832H72.1826L74.4226 105.656C74.4973 105.464 74.5933 105.325 74.7106 105.24C74.8386 105.144 74.9933 105.096 75.1746 105.096C75.3666 105.096 75.5266 105.144 75.6546 105.24C75.7826 105.325 75.8733 105.464 75.9266 105.656L78.1346 111.832H77.7666L79.9746 105.656C80.0493 105.443 80.1453 105.299 80.2626 105.224C80.38 105.139 80.524 105.096 80.6946 105.096C80.8866 105.096 81.0306 105.144 81.1266 105.24C81.2226 105.336 81.276 105.464 81.2866 105.624C81.308 105.773 81.2866 105.933 81.2226 106.104L78.8386 112.456C78.764 112.68 78.6466 112.845 78.4866 112.952C78.3373 113.059 78.1613 113.112 77.9586 113.112C77.756 113.112 77.5746 113.059 77.4146 112.952C77.2653 112.845 77.148 112.68 77.0626 112.456L74.7746 106.184H75.5106L73.2226 112.456C73.1373 112.68 73.02 112.845 72.8706 112.952C72.7213 113.059 72.54 113.112 72.3266 113.112ZM86.5336 113.144C85.691 113.144 84.9656 112.984 84.3576 112.664C83.7603 112.333 83.2963 111.869 82.9656 111.272C82.635 110.664 82.4696 109.949 82.4696 109.128C82.4696 108.317 82.6296 107.608 82.9496 107C83.2803 106.392 83.7283 105.917 84.2936 105.576C84.8696 105.235 85.5256 105.064 86.2616 105.064C86.7843 105.064 87.2536 105.155 87.6696 105.336C88.0963 105.507 88.459 105.757 88.7576 106.088C89.0563 106.419 89.2803 106.824 89.4296 107.304C89.5896 107.773 89.6696 108.307 89.6696 108.904C89.6696 109.075 89.6163 109.208 89.5096 109.304C89.4136 109.389 89.2696 109.432 89.0776 109.432H83.6056V108.504H88.7096L88.4376 108.728C88.4376 108.173 88.3523 107.704 88.1816 107.32C88.0216 106.925 87.7816 106.627 87.4616 106.424C87.1523 106.221 86.763 106.12 86.2936 106.12C85.7816 106.12 85.3443 106.243 84.9816 106.488C84.619 106.723 84.3416 107.059 84.1496 107.496C83.9576 107.923 83.8616 108.419 83.8616 108.984V109.08C83.8616 110.04 84.091 110.765 84.5496 111.256C85.0083 111.747 85.6696 111.992 86.5336 111.992C86.875 111.992 87.2216 111.949 87.5736 111.864C87.9363 111.779 88.283 111.624 88.6136 111.4C88.7736 111.304 88.9176 111.261 89.0456 111.272C89.1843 111.272 89.2963 111.315 89.3816 111.4C89.467 111.475 89.5203 111.571 89.5416 111.688C89.563 111.795 89.547 111.912 89.4936 112.04C89.4403 112.168 89.339 112.28 89.1896 112.376C88.8376 112.621 88.4163 112.813 87.9256 112.952C87.4456 113.08 86.9816 113.144 86.5336 113.144ZM94.4565 113.144C93.7738 113.144 93.1712 112.984 92.6485 112.664C92.1365 112.333 91.7365 111.864 91.4485 111.256C91.1605 110.637 91.0165 109.917 91.0165 109.096C91.0165 108.264 91.1552 107.549 91.4325 106.952C91.7205 106.344 92.1205 105.88 92.6325 105.56C93.1552 105.229 93.7632 105.064 94.4565 105.064C95.1498 105.064 95.7472 105.24 96.2485 105.592C96.7498 105.933 97.0858 106.392 97.2565 106.968H97.0805V102.344C97.0805 102.099 97.1392 101.917 97.2565 101.8C97.3845 101.672 97.5658 101.608 97.8005 101.608C98.0352 101.608 98.2165 101.672 98.3445 101.8C98.4725 101.917 98.5365 102.099 98.5365 102.344V112.36C98.5365 112.605 98.4725 112.792 98.3445 112.92C98.2165 113.048 98.0352 113.112 97.8005 113.112C97.5765 113.112 97.4005 113.048 97.2725 112.92C97.1445 112.792 97.0805 112.605 97.0805 112.36V110.904L97.2565 111.192C97.0965 111.789 96.7605 112.264 96.2485 112.616C95.7472 112.968 95.1498 113.144 94.4565 113.144ZM94.7925 111.992C95.2618 111.992 95.6672 111.88 96.0085 111.656C96.3605 111.432 96.6272 111.107 96.8085 110.68C97.0005 110.253 97.0965 109.725 97.0965 109.096C97.0965 108.157 96.8885 107.443 96.4725 106.952C96.0565 106.461 95.4965 106.216 94.7925 106.216C94.3338 106.216 93.9285 106.328 93.5765 106.552C93.2352 106.765 92.9685 107.085 92.7765 107.512C92.5845 107.939 92.4885 108.467 92.4885 109.096C92.4885 110.035 92.6965 110.755 93.1125 111.256C93.5392 111.747 94.0992 111.992 94.7925 111.992Z" fill="#FF5000" fill-opacity="0.75"/>
<path d="M223.293 108.707C223.386 108.8 223.496 108.874 223.617 108.925C223.738 108.975 223.869 109.001 224 109.001C224.131 109.001 224.262 108.975 224.383 108.925C224.504 108.874 224.614 108.8 224.707 108.707L228.95 104.464C229.046 104.372 229.122 104.261 229.174 104.139C229.227 104.017 229.254 103.886 229.255 103.753C229.256 103.621 229.231 103.489 229.181 103.366C229.131 103.243 229.056 103.131 228.962 103.038C228.869 102.944 228.757 102.869 228.634 102.819C228.511 102.769 228.379 102.744 228.247 102.745C228.114 102.746 227.983 102.773 227.861 102.826C227.739 102.878 227.628 102.954 227.536 103.05L225 105.586V100C225 99.7348 224.895 99.4804 224.707 99.2929C224.52 99.1054 224.265 99 224 99C223.735 99 223.48 99.1054 223.293 99.2929C223.105 99.4804 223 99.7348 223 100V105.586L220.464 103.05C220.372 102.954 220.261 102.878 220.139 102.826C220.017 102.773 219.886 102.746 219.753 102.745C219.621 102.744 219.489 102.769 219.366 102.819C219.243 102.869 219.131 102.944 219.038 103.038C218.944 103.131 218.869 103.243 218.819 103.366C218.769 103.489 218.744 103.621 218.745 103.753C218.746 103.886 218.773 104.017 218.826 104.139C218.878 104.261 218.954 104.372 219.05 104.464L223.293 108.707ZM224 114C218.477 114 214 109.523 214 104C214 98.477 218.477 94 224 94C229.523 94 234 98.477 234 104C234 109.523 229.523 114 224 114Z" fill="#FE5000"/>
</svg>
