<svg width="300" height="94" viewBox="0 0 300 94" fill="none" xmlns="http://www.w3.org/2000/svg">
<rect x="0.5" y="21.5" width="299" height="44" rx="11.5" fill="#E8EAEF"/>
<rect x="0.5" y="21.5" width="299" height="44" rx="11.5" stroke="#E8EAEF"/>
<path d="M13.78 47.608C13.404 47.608 13.036 47.576 12.676 47.512C12.316 47.448 11.98 47.356 11.668 47.236C11.364 47.116 11.088 46.964 10.84 46.78C10.744 46.708 10.676 46.628 10.636 46.54C10.604 46.444 10.596 46.352 10.612 46.264C10.636 46.168 10.676 46.088 10.732 46.024C10.796 45.96 10.872 45.924 10.96 45.916C11.048 45.908 11.144 45.936 11.248 46C11.608 46.256 11.992 46.444 12.4 46.564C12.808 46.676 13.268 46.732 13.78 46.732C14.5 46.732 15.032 46.6 15.376 46.336C15.728 46.064 15.904 45.708 15.904 45.268C15.904 44.908 15.776 44.628 15.52 44.428C15.272 44.22 14.852 44.056 14.26 43.936L13.012 43.684C12.26 43.524 11.696 43.264 11.32 42.904C10.952 42.536 10.768 42.048 10.768 41.44C10.768 41.064 10.844 40.724 10.996 40.42C11.148 40.108 11.36 39.844 11.632 39.628C11.904 39.404 12.228 39.232 12.604 39.112C12.98 38.992 13.396 38.932 13.852 38.932C14.356 38.932 14.824 39.004 15.256 39.148C15.696 39.284 16.092 39.492 16.444 39.772C16.532 39.844 16.592 39.928 16.624 40.024C16.656 40.112 16.66 40.2 16.636 40.288C16.612 40.368 16.568 40.436 16.504 40.492C16.448 40.548 16.372 40.58 16.276 40.588C16.188 40.596 16.088 40.564 15.976 40.492C15.656 40.252 15.324 40.08 14.98 39.976C14.636 39.864 14.256 39.808 13.84 39.808C13.416 39.808 13.048 39.872 12.736 40C12.432 40.128 12.192 40.316 12.016 40.564C11.848 40.804 11.764 41.084 11.764 41.404C11.764 41.788 11.88 42.092 12.112 42.316C12.352 42.54 12.74 42.704 13.276 42.808L14.524 43.072C15.332 43.24 15.928 43.496 16.312 43.84C16.704 44.176 16.9 44.636 16.9 45.22C16.9 45.572 16.828 45.896 16.684 46.192C16.54 46.488 16.332 46.744 16.06 46.96C15.788 47.168 15.46 47.328 15.076 47.44C14.692 47.552 14.26 47.608 13.78 47.608ZM20.9228 47.608C20.3068 47.608 19.7748 47.488 19.3268 47.248C18.8868 47 18.5428 46.652 18.2948 46.204C18.0548 45.756 17.9348 45.22 17.9348 44.596C17.9348 43.988 18.0548 43.46 18.2948 43.012C18.5348 42.556 18.8628 42.2 19.2788 41.944C19.7028 41.688 20.1908 41.56 20.7428 41.56C21.1348 41.56 21.4868 41.628 21.7988 41.764C22.1108 41.892 22.3748 42.08 22.5908 42.328C22.8148 42.576 22.9828 42.876 23.0948 43.228C23.2148 43.58 23.2748 43.976 23.2748 44.416C23.2748 44.544 23.2388 44.64 23.1668 44.704C23.0948 44.76 22.9908 44.788 22.8548 44.788H18.6788V44.152H22.6268L22.4348 44.308C22.4348 43.876 22.3708 43.512 22.2428 43.216C22.1148 42.912 21.9268 42.68 21.6788 42.52C21.4388 42.36 21.1348 42.28 20.7668 42.28C20.3588 42.28 20.0108 42.376 19.7228 42.568C19.4428 42.752 19.2308 43.012 19.0868 43.348C18.9428 43.676 18.8708 44.06 18.8708 44.5V44.572C18.8708 45.308 19.0468 45.868 19.3988 46.252C19.7588 46.636 20.2668 46.828 20.9228 46.828C21.1948 46.828 21.4628 46.792 21.7268 46.72C21.9988 46.648 22.2628 46.528 22.5188 46.36C22.6308 46.288 22.7308 46.256 22.8188 46.264C22.9148 46.264 22.9908 46.292 23.0468 46.348C23.1028 46.396 23.1388 46.46 23.1548 46.54C23.1788 46.612 23.1708 46.692 23.1308 46.78C23.0988 46.868 23.0308 46.944 22.9268 47.008C22.6628 47.2 22.3508 47.348 21.9908 47.452C21.6308 47.556 21.2748 47.608 20.9228 47.608ZM26.4575 47.608C25.8815 47.608 25.4415 47.432 25.1375 47.08C24.8335 46.728 24.6815 46.224 24.6815 45.568V39.448C24.6815 39.288 24.7215 39.168 24.8015 39.088C24.8815 39 25.0015 38.956 25.1615 38.956C25.3135 38.956 25.4335 39 25.5215 39.088C25.6095 39.168 25.6535 39.288 25.6535 39.448V45.496C25.6535 45.928 25.7375 46.252 25.9055 46.468C26.0815 46.676 26.3375 46.78 26.6735 46.78C26.7455 46.78 26.8095 46.776 26.8655 46.768C26.9215 46.76 26.9775 46.756 27.0335 46.756C27.1215 46.748 27.1815 46.768 27.2135 46.816C27.2535 46.864 27.2735 46.96 27.2735 47.104C27.2735 47.248 27.2415 47.356 27.1775 47.428C27.1135 47.5 27.0095 47.548 26.8655 47.572C26.8015 47.58 26.7335 47.588 26.6615 47.596C26.5895 47.604 26.5215 47.608 26.4575 47.608ZM30.8017 47.608C30.1857 47.608 29.6537 47.488 29.2057 47.248C28.7657 47 28.4217 46.652 28.1737 46.204C27.9337 45.756 27.8137 45.22 27.8137 44.596C27.8137 43.988 27.9337 43.46 28.1737 43.012C28.4137 42.556 28.7417 42.2 29.1577 41.944C29.5817 41.688 30.0697 41.56 30.6217 41.56C31.0137 41.56 31.3657 41.628 31.6777 41.764C31.9897 41.892 32.2537 42.08 32.4697 42.328C32.6937 42.576 32.8617 42.876 32.9737 43.228C33.0937 43.58 33.1537 43.976 33.1537 44.416C33.1537 44.544 33.1177 44.64 33.0457 44.704C32.9737 44.76 32.8697 44.788 32.7337 44.788H28.5577V44.152H32.5057L32.3137 44.308C32.3137 43.876 32.2497 43.512 32.1217 43.216C31.9937 42.912 31.8057 42.68 31.5577 42.52C31.3177 42.36 31.0137 42.28 30.6457 42.28C30.2377 42.28 29.8897 42.376 29.6017 42.568C29.3217 42.752 29.1097 43.012 28.9657 43.348C28.8217 43.676 28.7497 44.06 28.7497 44.5V44.572C28.7497 45.308 28.9257 45.868 29.2777 46.252C29.6377 46.636 30.1457 46.828 30.8017 46.828C31.0737 46.828 31.3417 46.792 31.6057 46.72C31.8777 46.648 32.1417 46.528 32.3977 46.36C32.5097 46.288 32.6097 46.256 32.6977 46.264C32.7937 46.264 32.8697 46.292 32.9257 46.348C32.9817 46.396 33.0177 46.46 33.0337 46.54C33.0577 46.612 33.0497 46.692 33.0097 46.78C32.9777 46.868 32.9097 46.944 32.8057 47.008C32.5417 47.2 32.2297 47.348 31.8697 47.452C31.5097 47.556 31.1537 47.608 30.8017 47.608ZM37.0324 47.608C36.4484 47.608 35.9444 47.48 35.5204 47.224C35.0964 46.968 34.7684 46.612 34.5364 46.156C34.3124 45.692 34.2004 45.156 34.2004 44.548C34.2004 44.084 34.2644 43.668 34.3924 43.3C34.5204 42.932 34.7084 42.62 34.9564 42.364C35.2044 42.1 35.5004 41.9 35.8444 41.764C36.1964 41.628 36.5924 41.56 37.0324 41.56C37.3204 41.56 37.6204 41.604 37.9324 41.692C38.2444 41.78 38.5284 41.932 38.7844 42.148C38.8644 42.204 38.9164 42.272 38.9404 42.352C38.9644 42.432 38.9644 42.512 38.9404 42.592C38.9164 42.664 38.8764 42.728 38.8204 42.784C38.7644 42.832 38.6924 42.86 38.6044 42.868C38.5244 42.876 38.4404 42.848 38.3524 42.784C38.1444 42.624 37.9324 42.512 37.7164 42.448C37.5004 42.384 37.2924 42.352 37.0924 42.352C36.7804 42.352 36.5084 42.404 36.2764 42.508C36.0444 42.604 35.8484 42.744 35.6884 42.928C35.5284 43.112 35.4044 43.34 35.3164 43.612C35.2364 43.884 35.1964 44.2 35.1964 44.56C35.1964 45.256 35.3604 45.808 35.6884 46.216C36.0164 46.616 36.4844 46.816 37.0924 46.816C37.2924 46.816 37.4964 46.784 37.7044 46.72C37.9204 46.656 38.1364 46.544 38.3524 46.384C38.4404 46.32 38.5244 46.292 38.6044 46.3C38.6844 46.308 38.7524 46.34 38.8084 46.396C38.8644 46.444 38.9004 46.508 38.9164 46.588C38.9404 46.668 38.9404 46.748 38.9164 46.828C38.8924 46.9 38.8404 46.964 38.7604 47.02C38.5044 47.228 38.2244 47.38 37.9204 47.476C37.6164 47.564 37.3204 47.608 37.0324 47.608ZM42.4551 47.608C41.9991 47.608 41.6151 47.528 41.3031 47.368C40.9991 47.2 40.7711 46.96 40.6191 46.648C40.4671 46.328 40.3911 45.94 40.3911 45.484V42.424H39.5871C39.4511 42.424 39.3471 42.392 39.2751 42.328C39.2031 42.256 39.1671 42.16 39.1671 42.04C39.1671 41.92 39.2031 41.828 39.2751 41.764C39.3471 41.7 39.4511 41.668 39.5871 41.668H40.3911V40.288C40.3911 40.128 40.4351 40.008 40.5231 39.928C40.6111 39.84 40.7311 39.796 40.8831 39.796C41.0351 39.796 41.1511 39.84 41.2311 39.928C41.3191 40.008 41.3631 40.128 41.3631 40.288V41.668H42.8751C43.0111 41.668 43.1151 41.7 43.1871 41.764C43.2591 41.828 43.2951 41.92 43.2951 42.04C43.2951 42.16 43.2591 42.256 43.1871 42.328C43.1151 42.392 43.0111 42.424 42.8751 42.424H41.3631V45.388C41.3631 45.844 41.4591 46.192 41.6511 46.432C41.8431 46.664 42.1551 46.78 42.5871 46.78C42.7391 46.78 42.8671 46.764 42.9711 46.732C43.0831 46.7 43.1751 46.684 43.2471 46.684C43.3191 46.676 43.3791 46.7 43.4271 46.756C43.4751 46.812 43.4991 46.908 43.4991 47.044C43.4991 47.14 43.4791 47.228 43.4391 47.308C43.4071 47.388 43.3471 47.444 43.2591 47.476C43.1631 47.508 43.0351 47.536 42.8751 47.56C42.7231 47.592 42.5831 47.608 42.4551 47.608ZM50.2722 47.608C49.8962 47.608 49.5282 47.576 49.1682 47.512C48.8082 47.448 48.4722 47.356 48.1602 47.236C47.8562 47.116 47.5802 46.964 47.3322 46.78C47.2362 46.708 47.1682 46.628 47.1282 46.54C47.0962 46.444 47.0882 46.352 47.1042 46.264C47.1282 46.168 47.1682 46.088 47.2242 46.024C47.2882 45.96 47.3642 45.924 47.4522 45.916C47.5402 45.908 47.6362 45.936 47.7402 46C48.1002 46.256 48.4842 46.444 48.8922 46.564C49.3002 46.676 49.7602 46.732 50.2722 46.732C50.9922 46.732 51.5242 46.6 51.8682 46.336C52.2202 46.064 52.3962 45.708 52.3962 45.268C52.3962 44.908 52.2682 44.628 52.0122 44.428C51.7642 44.22 51.3442 44.056 50.7522 43.936L49.5042 43.684C48.7522 43.524 48.1882 43.264 47.8122 42.904C47.4442 42.536 47.2602 42.048 47.2602 41.44C47.2602 41.064 47.3362 40.724 47.4882 40.42C47.6402 40.108 47.8522 39.844 48.1242 39.628C48.3962 39.404 48.7202 39.232 49.0962 39.112C49.4722 38.992 49.8882 38.932 50.3442 38.932C50.8482 38.932 51.3162 39.004 51.7482 39.148C52.1882 39.284 52.5842 39.492 52.9362 39.772C53.0242 39.844 53.0842 39.928 53.1162 40.024C53.1482 40.112 53.1522 40.2 53.1282 40.288C53.1042 40.368 53.0602 40.436 52.9962 40.492C52.9402 40.548 52.8642 40.58 52.7682 40.588C52.6802 40.596 52.5802 40.564 52.4682 40.492C52.1482 40.252 51.8162 40.08 51.4722 39.976C51.1282 39.864 50.7482 39.808 50.3322 39.808C49.9082 39.808 49.5402 39.872 49.2282 40C48.9242 40.128 48.6842 40.316 48.5082 40.564C48.3402 40.804 48.2562 41.084 48.2562 41.404C48.2562 41.788 48.3722 42.092 48.6042 42.316C48.8442 42.54 49.2322 42.704 49.7682 42.808L51.0162 43.072C51.8242 43.24 52.4202 43.496 52.8042 43.84C53.1962 44.176 53.3922 44.636 53.3922 45.22C53.3922 45.572 53.3202 45.896 53.1762 46.192C53.0322 46.488 52.8242 46.744 52.5522 46.96C52.2802 47.168 51.9522 47.328 51.5682 47.44C51.1842 47.552 50.7522 47.608 50.2722 47.608ZM57.1036 47.608C56.6476 47.608 56.2636 47.528 55.9516 47.368C55.6476 47.2 55.4196 46.96 55.2676 46.648C55.1156 46.328 55.0396 45.94 55.0396 45.484V42.424H54.2356C54.0996 42.424 53.9956 42.392 53.9236 42.328C53.8516 42.256 53.8156 42.16 53.8156 42.04C53.8156 41.92 53.8516 41.828 53.9236 41.764C53.9956 41.7 54.0996 41.668 54.2356 41.668H55.0396V40.288C55.0396 40.128 55.0836 40.008 55.1716 39.928C55.2596 39.84 55.3796 39.796 55.5316 39.796C55.6836 39.796 55.7996 39.84 55.8796 39.928C55.9676 40.008 56.0116 40.128 56.0116 40.288V41.668H57.5236C57.6596 41.668 57.7636 41.7 57.8356 41.764C57.9076 41.828 57.9436 41.92 57.9436 42.04C57.9436 42.16 57.9076 42.256 57.8356 42.328C57.7636 42.392 57.6596 42.424 57.5236 42.424H56.0116V45.388C56.0116 45.844 56.1076 46.192 56.2996 46.432C56.4916 46.664 56.8036 46.78 57.2356 46.78C57.3876 46.78 57.5156 46.764 57.6196 46.732C57.7316 46.7 57.8236 46.684 57.8956 46.684C57.9676 46.676 58.0276 46.7 58.0756 46.756C58.1236 46.812 58.1476 46.908 58.1476 47.044C58.1476 47.14 58.1276 47.228 58.0876 47.308C58.0556 47.388 57.9956 47.444 57.9076 47.476C57.8116 47.508 57.6836 47.536 57.5236 47.56C57.3716 47.592 57.2316 47.608 57.1036 47.608ZM60.7949 47.608C60.3949 47.608 60.0349 47.532 59.7149 47.38C59.4029 47.22 59.1549 47.004 58.9709 46.732C58.7869 46.46 58.6949 46.156 58.6949 45.82C58.6949 45.388 58.8029 45.048 59.0189 44.8C59.2429 44.552 59.6069 44.376 60.1109 44.272C60.6229 44.168 61.3189 44.116 62.1989 44.116H62.7389V44.752H62.2109C61.5629 44.752 61.0509 44.784 60.6749 44.848C60.3069 44.904 60.0469 45.004 59.8949 45.148C59.7509 45.292 59.6789 45.496 59.6789 45.76C59.6789 46.088 59.7909 46.356 60.0149 46.564C60.2469 46.772 60.5589 46.876 60.9509 46.876C61.2709 46.876 61.5509 46.8 61.7909 46.648C62.0389 46.496 62.2309 46.288 62.3669 46.024C62.5109 45.76 62.5829 45.456 62.5829 45.112V43.744C62.5829 43.248 62.4829 42.892 62.2829 42.676C62.0829 42.452 61.7549 42.34 61.2989 42.34C61.0189 42.34 60.7389 42.376 60.4589 42.448C60.1789 42.52 59.8829 42.636 59.5709 42.796C59.4589 42.852 59.3629 42.872 59.2829 42.856C59.2029 42.832 59.1389 42.788 59.0909 42.724C59.0429 42.66 59.0149 42.588 59.0069 42.508C58.9989 42.42 59.0149 42.336 59.0549 42.256C59.1029 42.176 59.1749 42.112 59.2709 42.064C59.6229 41.888 59.9709 41.76 60.3149 41.68C60.6589 41.6 60.9869 41.56 61.2989 41.56C61.8029 41.56 62.2189 41.644 62.5469 41.812C62.8749 41.972 63.1189 42.22 63.2789 42.556C63.4389 42.884 63.5189 43.308 63.5189 43.828V47.08C63.5189 47.24 63.4789 47.364 63.3989 47.452C63.3269 47.54 63.2189 47.584 63.0749 47.584C62.9229 47.584 62.8069 47.54 62.7269 47.452C62.6469 47.364 62.6069 47.24 62.6069 47.08V46.144H62.7149C62.6509 46.448 62.5269 46.708 62.3429 46.924C62.1669 47.14 61.9469 47.308 61.6829 47.428C61.4189 47.548 61.1229 47.608 60.7949 47.608ZM67.6622 47.608C67.2062 47.608 66.8222 47.528 66.5102 47.368C66.2062 47.2 65.9782 46.96 65.8262 46.648C65.6742 46.328 65.5982 45.94 65.5982 45.484V42.424H64.7942C64.6582 42.424 64.5542 42.392 64.4822 42.328C64.4102 42.256 64.3742 42.16 64.3742 42.04C64.3742 41.92 64.4102 41.828 64.4822 41.764C64.5542 41.7 64.6582 41.668 64.7942 41.668H65.5982V40.288C65.5982 40.128 65.6422 40.008 65.7302 39.928C65.8182 39.84 65.9382 39.796 66.0902 39.796C66.2422 39.796 66.3582 39.84 66.4382 39.928C66.5262 40.008 66.5702 40.128 66.5702 40.288V41.668H68.0822C68.2182 41.668 68.3222 41.7 68.3942 41.764C68.4662 41.828 68.5022 41.92 68.5022 42.04C68.5022 42.16 68.4662 42.256 68.3942 42.328C68.3222 42.392 68.2182 42.424 68.0822 42.424H66.5702V45.388C66.5702 45.844 66.6662 46.192 66.8582 46.432C67.0502 46.664 67.3622 46.78 67.7942 46.78C67.9462 46.78 68.0742 46.764 68.1782 46.732C68.2902 46.7 68.3822 46.684 68.4542 46.684C68.5262 46.676 68.5862 46.7 68.6342 46.756C68.6822 46.812 68.7062 46.908 68.7062 47.044C68.7062 47.14 68.6862 47.228 68.6462 47.308C68.6142 47.388 68.5542 47.444 68.4662 47.476C68.3702 47.508 68.2422 47.536 68.0822 47.56C67.9302 47.592 67.7902 47.608 67.6622 47.608ZM71.5815 47.608C71.1095 47.608 70.7175 47.524 70.4055 47.356C70.1015 47.18 69.8695 46.92 69.7095 46.576C69.5575 46.232 69.4815 45.804 69.4815 45.292V42.076C69.4815 41.908 69.5215 41.784 69.6015 41.704C69.6895 41.624 69.8095 41.584 69.9615 41.584C70.1215 41.584 70.2415 41.624 70.3215 41.704C70.4095 41.784 70.4535 41.908 70.4535 42.076V45.28C70.4535 45.792 70.5575 46.176 70.7655 46.432C70.9815 46.68 71.3175 46.804 71.7735 46.804C72.2695 46.804 72.6735 46.636 72.9855 46.3C73.2975 45.964 73.4535 45.524 73.4535 44.98V42.076C73.4535 41.908 73.4935 41.784 73.5735 41.704C73.6615 41.624 73.7855 41.584 73.9455 41.584C74.0975 41.584 74.2135 41.624 74.2935 41.704C74.3815 41.784 74.4255 41.908 74.4255 42.076V47.08C74.4255 47.416 74.2695 47.584 73.9575 47.584C73.8055 47.584 73.6855 47.54 73.5975 47.452C73.5175 47.364 73.4775 47.24 73.4775 47.08V45.988L73.6335 46.156C73.4735 46.628 73.2095 46.988 72.8415 47.236C72.4815 47.484 72.0615 47.608 71.5815 47.608ZM78.212 47.608C77.852 47.608 77.488 47.564 77.12 47.476C76.76 47.388 76.424 47.236 76.112 47.02C76.032 46.964 75.976 46.9 75.944 46.828C75.912 46.748 75.9 46.672 75.908 46.6C75.924 46.52 75.956 46.452 76.004 46.396C76.06 46.34 76.124 46.308 76.196 46.3C76.276 46.284 76.364 46.3 76.46 46.348C76.772 46.54 77.072 46.676 77.36 46.756C77.656 46.828 77.948 46.864 78.236 46.864C78.692 46.864 79.036 46.78 79.268 46.612C79.5 46.444 79.616 46.216 79.616 45.928C79.616 45.704 79.54 45.528 79.388 45.4C79.236 45.264 78.996 45.16 78.668 45.088L77.576 44.848C77.072 44.744 76.696 44.564 76.448 44.308C76.208 44.052 76.088 43.72 76.088 43.312C76.088 42.952 76.18 42.644 76.364 42.388C76.556 42.124 76.824 41.92 77.168 41.776C77.512 41.632 77.912 41.56 78.368 41.56C78.72 41.56 79.052 41.608 79.364 41.704C79.684 41.792 79.972 41.936 80.228 42.136C80.308 42.192 80.36 42.26 80.384 42.34C80.416 42.412 80.42 42.488 80.396 42.568C80.38 42.64 80.344 42.704 80.288 42.76C80.232 42.808 80.164 42.836 80.084 42.844C80.004 42.852 79.92 42.828 79.832 42.772C79.592 42.612 79.348 42.496 79.1 42.424C78.852 42.344 78.608 42.304 78.368 42.304C77.92 42.304 77.58 42.392 77.348 42.568C77.116 42.744 77 42.976 77 43.264C77 43.488 77.072 43.672 77.216 43.816C77.36 43.96 77.584 44.064 77.888 44.128L78.98 44.356C79.5 44.468 79.888 44.648 80.144 44.896C80.408 45.136 80.54 45.464 80.54 45.88C80.54 46.408 80.328 46.828 79.904 47.14C79.48 47.452 78.916 47.608 78.212 47.608Z" fill="#929BAA"/>
<path d="M3.804 12.108C3.436 12.108 3.076 12.08 2.724 12.024C2.372 11.968 2.04 11.884 1.728 11.772C1.416 11.652 1.136 11.508 0.888 11.34C0.768 11.252 0.684 11.152 0.636 11.04C0.596 10.928 0.584 10.82 0.6 10.716C0.624 10.604 0.672 10.508 0.744 10.428C0.816 10.348 0.904 10.3 1.008 10.284C1.112 10.26 1.228 10.292 1.356 10.38C1.716 10.612 2.096 10.784 2.496 10.896C2.896 11 3.332 11.052 3.804 11.052C4.484 11.052 4.984 10.932 5.304 10.692C5.632 10.444 5.796 10.124 5.796 9.732C5.796 9.412 5.68 9.16 5.448 8.976C5.216 8.784 4.828 8.632 4.284 8.52L3 8.256C2.24 8.096 1.672 7.832 1.296 7.464C0.928 7.096 0.744 6.6 0.744 5.976C0.744 5.6 0.82 5.256 0.972 4.944C1.132 4.632 1.352 4.364 1.632 4.14C1.912 3.908 2.248 3.732 2.64 3.612C3.032 3.492 3.46 3.432 3.924 3.432C4.42 3.432 4.884 3.496 5.316 3.624C5.756 3.752 6.148 3.948 6.492 4.212C6.596 4.284 6.664 4.376 6.696 4.488C6.736 4.592 6.744 4.696 6.72 4.8C6.704 4.904 6.66 4.992 6.588 5.064C6.516 5.136 6.424 5.18 6.312 5.196C6.2 5.204 6.076 5.164 5.94 5.076C5.628 4.868 5.308 4.72 4.98 4.632C4.66 4.536 4.304 4.488 3.912 4.488C3.52 4.488 3.176 4.548 2.88 4.668C2.592 4.788 2.368 4.956 2.208 5.172C2.056 5.388 1.98 5.644 1.98 5.94C1.98 6.276 2.088 6.544 2.304 6.744C2.52 6.944 2.88 7.096 3.384 7.2L4.656 7.464C5.456 7.632 6.052 7.892 6.444 8.244C6.836 8.596 7.032 9.064 7.032 9.648C7.032 10.024 6.956 10.364 6.804 10.668C6.652 10.964 6.436 11.22 6.156 11.436C5.876 11.652 5.536 11.82 5.136 11.94C4.744 12.052 4.3 12.108 3.804 12.108ZM10.7777 12.108C10.2977 12.108 9.89369 12.024 9.56569 11.856C9.23769 11.688 8.99369 11.44 8.83369 11.112C8.67369 10.784 8.59369 10.384 8.59369 9.912V7.08H7.87369C7.71369 7.08 7.58969 7.04 7.50169 6.96C7.41369 6.872 7.36969 6.756 7.36969 6.612C7.36969 6.46 7.41369 6.344 7.50169 6.264C7.58969 6.184 7.71369 6.144 7.87369 6.144H8.59369V4.908C8.59369 4.708 8.64569 4.556 8.74969 4.452C8.86169 4.348 9.01369 4.296 9.20569 4.296C9.39769 4.296 9.54569 4.348 9.64969 4.452C9.75369 4.556 9.80569 4.708 9.80569 4.908V6.144H11.2097C11.3697 6.144 11.4937 6.184 11.5817 6.264C11.6697 6.344 11.7137 6.46 11.7137 6.612C11.7137 6.756 11.6697 6.872 11.5817 6.96C11.4937 7.04 11.3697 7.08 11.2097 7.08H9.80569V9.816C9.80569 10.24 9.89369 10.56 10.0697 10.776C10.2537 10.992 10.5497 11.1 10.9577 11.1C11.1017 11.1 11.2257 11.088 11.3297 11.064C11.4417 11.032 11.5337 11.012 11.6057 11.004C11.6937 11.004 11.7657 11.036 11.8217 11.1C11.8777 11.156 11.9057 11.268 11.9057 11.436C11.9057 11.556 11.8817 11.668 11.8337 11.772C11.7937 11.876 11.7177 11.944 11.6057 11.976C11.5097 12.008 11.3777 12.036 11.2097 12.06C11.0497 12.092 10.9057 12.108 10.7777 12.108ZM14.5365 12.108C14.1285 12.108 13.7605 12.028 13.4325 11.868C13.1125 11.708 12.8605 11.492 12.6765 11.22C12.4925 10.948 12.4005 10.64 12.4005 10.296C12.4005 9.864 12.5085 9.524 12.7245 9.276C12.9485 9.02 13.3125 8.84 13.8165 8.736C14.3285 8.624 15.0165 8.568 15.8805 8.568H16.4445V9.312H15.8925C15.3165 9.312 14.8605 9.34 14.5245 9.396C14.1885 9.452 13.9485 9.548 13.8045 9.684C13.6685 9.812 13.6005 9.992 13.6005 10.224C13.6005 10.528 13.7045 10.776 13.9125 10.968C14.1205 11.152 14.4085 11.244 14.7765 11.244C15.0725 11.244 15.3325 11.176 15.5565 11.04C15.7805 10.896 15.9565 10.704 16.0845 10.464C16.2205 10.224 16.2885 9.948 16.2885 9.636V8.256C16.2885 7.8 16.1925 7.472 16.0005 7.272C15.8085 7.072 15.4925 6.972 15.0525 6.972C14.7965 6.972 14.5285 7.004 14.2485 7.068C13.9765 7.132 13.6925 7.24 13.3965 7.392C13.2605 7.456 13.1445 7.476 13.0485 7.452C12.9525 7.428 12.8765 7.376 12.8205 7.296C12.7645 7.208 12.7325 7.116 12.7245 7.02C12.7245 6.916 12.7485 6.816 12.7965 6.72C12.8525 6.624 12.9445 6.552 13.0725 6.504C13.4245 6.336 13.7725 6.216 14.1165 6.144C14.4605 6.072 14.7845 6.036 15.0885 6.036C15.6245 6.036 16.0645 6.12 16.4085 6.288C16.7605 6.456 17.0205 6.712 17.1885 7.056C17.3565 7.4 17.4405 7.844 17.4405 8.388V11.472C17.4405 11.664 17.3925 11.816 17.2965 11.928C17.2005 12.032 17.0605 12.084 16.8765 12.084C16.7005 12.084 16.5605 12.032 16.4565 11.928C16.3525 11.816 16.3005 11.664 16.3005 11.472V10.692H16.4085C16.3445 10.988 16.2245 11.244 16.0485 11.46C15.8805 11.668 15.6685 11.828 15.4125 11.94C15.1565 12.052 14.8645 12.108 14.5365 12.108ZM21.6058 12.108C21.1258 12.108 20.7218 12.024 20.3938 11.856C20.0658 11.688 19.8218 11.44 19.6618 11.112C19.5018 10.784 19.4218 10.384 19.4218 9.912V7.08H18.7018C18.5418 7.08 18.4178 7.04 18.3298 6.96C18.2418 6.872 18.1978 6.756 18.1978 6.612C18.1978 6.46 18.2418 6.344 18.3298 6.264C18.4178 6.184 18.5418 6.144 18.7018 6.144H19.4218V4.908C19.4218 4.708 19.4738 4.556 19.5778 4.452C19.6898 4.348 19.8418 4.296 20.0338 4.296C20.2258 4.296 20.3738 4.348 20.4778 4.452C20.5818 4.556 20.6338 4.708 20.6338 4.908V6.144H22.0378C22.1978 6.144 22.3218 6.184 22.4098 6.264C22.4978 6.344 22.5418 6.46 22.5418 6.612C22.5418 6.756 22.4978 6.872 22.4098 6.96C22.3218 7.04 22.1978 7.08 22.0378 7.08H20.6338V9.816C20.6338 10.24 20.7218 10.56 20.8978 10.776C21.0818 10.992 21.3778 11.1 21.7858 11.1C21.9298 11.1 22.0538 11.088 22.1578 11.064C22.2698 11.032 22.3618 11.012 22.4338 11.004C22.5218 11.004 22.5938 11.036 22.6498 11.1C22.7058 11.156 22.7338 11.268 22.7338 11.436C22.7338 11.556 22.7098 11.668 22.6618 11.772C22.6218 11.876 22.5458 11.944 22.4338 11.976C22.3378 12.008 22.2058 12.036 22.0378 12.06C21.8778 12.092 21.7338 12.108 21.6058 12.108ZM25.5806 12.108C25.1086 12.108 24.7126 12.02 24.3926 11.844C24.0806 11.668 23.8446 11.408 23.6846 11.064C23.5326 10.712 23.4566 10.272 23.4566 9.744V6.672C23.4566 6.464 23.5086 6.312 23.6126 6.216C23.7166 6.112 23.8646 6.06 24.0566 6.06C24.2486 6.06 24.3966 6.112 24.5006 6.216C24.6126 6.312 24.6686 6.464 24.6686 6.672V9.756C24.6686 10.228 24.7646 10.576 24.9566 10.8C25.1486 11.024 25.4526 11.136 25.8686 11.136C26.3246 11.136 26.6926 10.984 26.9726 10.68C27.2606 10.368 27.4046 9.96 27.4046 9.456V6.672C27.4046 6.464 27.4566 6.312 27.5606 6.216C27.6646 6.112 27.8166 6.06 28.0166 6.06C28.2086 6.06 28.3566 6.112 28.4606 6.216C28.5646 6.312 28.6166 6.464 28.6166 6.672V11.472C28.6166 11.88 28.4206 12.084 28.0286 12.084C27.8446 12.084 27.7006 12.032 27.5966 11.928C27.4926 11.816 27.4406 11.664 27.4406 11.472V10.452L27.5966 10.716C27.4366 11.164 27.1806 11.508 26.8286 11.748C26.4766 11.988 26.0606 12.108 25.5806 12.108ZM32.3767 12.108C32.0247 12.108 31.6607 12.068 31.2847 11.988C30.9167 11.908 30.5767 11.772 30.2647 11.58C30.1607 11.508 30.0887 11.428 30.0487 11.34C30.0087 11.252 29.9927 11.164 30.0007 11.076C30.0167 10.98 30.0527 10.9 30.1087 10.836C30.1727 10.764 30.2487 10.72 30.3367 10.704C30.4327 10.688 30.5327 10.708 30.6367 10.764C30.9487 10.94 31.2487 11.064 31.5367 11.136C31.8247 11.2 32.1087 11.232 32.3887 11.232C32.8127 11.232 33.1327 11.156 33.3487 11.004C33.5647 10.852 33.6727 10.648 33.6727 10.392C33.6727 10.184 33.6007 10.024 33.4567 9.912C33.3127 9.792 33.0967 9.7 32.8087 9.636L31.6687 9.408C31.1727 9.304 30.7967 9.12 30.5407 8.856C30.2847 8.592 30.1567 8.256 30.1567 7.848C30.1567 7.48 30.2567 7.16 30.4567 6.888C30.6567 6.616 30.9367 6.408 31.2967 6.264C31.6567 6.112 32.0727 6.036 32.5447 6.036C32.8967 6.036 33.2287 6.08 33.5407 6.168C33.8527 6.256 34.1407 6.388 34.4047 6.564C34.5087 6.62 34.5767 6.696 34.6087 6.792C34.6407 6.88 34.6447 6.968 34.6207 7.056C34.6047 7.144 34.5647 7.224 34.5007 7.296C34.4367 7.36 34.3567 7.4 34.2607 7.416C34.1727 7.424 34.0727 7.4 33.9607 7.344C33.7207 7.192 33.4807 7.084 33.2407 7.02C33.0087 6.956 32.7767 6.924 32.5447 6.924C32.1207 6.924 31.8007 7.004 31.5847 7.164C31.3767 7.316 31.2727 7.524 31.2727 7.788C31.2727 7.988 31.3367 8.152 31.4647 8.28C31.5927 8.408 31.7927 8.5 32.0647 8.556L33.2047 8.784C33.7247 8.888 34.1167 9.064 34.3807 9.312C34.6527 9.56 34.7887 9.896 34.7887 10.32C34.7887 10.872 34.5687 11.308 34.1287 11.628C33.6887 11.948 33.1047 12.108 32.3767 12.108Z" fill="#64728C"/>
<rect y="70" width="82" height="24" rx="12" fill="#64728C"/>
<path d="M11.608 86.084C11.408 86.084 11.252 86.028 11.14 85.916C11.036 85.804 10.984 85.648 10.984 85.448V78.092C10.984 77.884 11.036 77.728 11.14 77.624C11.252 77.512 11.408 77.456 11.608 77.456C11.808 77.456 11.96 77.512 12.064 77.624C12.176 77.728 12.232 77.884 12.232 78.092V85.448C12.232 85.648 12.18 85.804 12.076 85.916C11.972 86.028 11.816 86.084 11.608 86.084ZM14.6629 86.084C14.4709 86.084 14.3229 86.032 14.2189 85.928C14.1149 85.816 14.0629 85.664 14.0629 85.472V80.672C14.0629 80.472 14.1149 80.32 14.2189 80.216C14.3229 80.112 14.4669 80.06 14.6509 80.06C14.8429 80.06 14.9869 80.112 15.0829 80.216C15.1869 80.32 15.2389 80.472 15.2389 80.672V81.608L15.1069 81.392C15.2829 80.944 15.5589 80.608 15.9349 80.384C16.3109 80.152 16.7429 80.036 17.2309 80.036C17.6949 80.036 18.0789 80.124 18.3829 80.3C18.6949 80.468 18.9269 80.728 19.0789 81.08C19.2309 81.424 19.3069 81.86 19.3069 82.388V85.472C19.3069 85.664 19.2549 85.816 19.1509 85.928C19.0469 86.032 18.8989 86.084 18.7069 86.084C18.5069 86.084 18.3549 86.032 18.2509 85.928C18.1469 85.816 18.0949 85.664 18.0949 85.472V82.46C18.0949 81.956 17.9949 81.588 17.7949 81.356C17.6029 81.124 17.2989 81.008 16.8829 81.008C16.3949 81.008 16.0029 81.16 15.7069 81.464C15.4189 81.768 15.2749 82.176 15.2749 82.688V85.472C15.2749 85.88 15.0709 86.084 14.6629 86.084ZM24.8971 86.084C24.6971 86.084 24.5411 86.028 24.4291 85.916C24.3251 85.804 24.2731 85.648 24.2731 85.448V78.176C24.2731 77.968 24.3291 77.812 24.4411 77.708C24.5531 77.596 24.7091 77.54 24.9091 77.54H27.7771C28.6891 77.54 29.3931 77.768 29.8891 78.224C30.3851 78.672 30.6331 79.304 30.6331 80.12C30.6331 80.944 30.3851 81.584 29.8891 82.04C29.3931 82.488 28.6891 82.712 27.7771 82.712H25.5211V85.448C25.5211 85.648 25.4691 85.804 25.3651 85.916C25.2611 86.028 25.1051 86.084 24.8971 86.084ZM25.5211 81.716H27.5971C28.1971 81.716 28.6491 81.584 28.9531 81.32C29.2651 81.048 29.4211 80.648 29.4211 80.12C29.4211 79.6 29.2651 79.208 28.9531 78.944C28.6491 78.672 28.1971 78.536 27.5971 78.536H25.5211V81.716ZM32.3351 86.084C32.1351 86.084 31.9831 86.032 31.8791 85.928C31.7751 85.816 31.7231 85.664 31.7231 85.472V80.672C31.7231 80.472 31.7751 80.32 31.8791 80.216C31.9831 80.112 32.1271 80.06 32.3111 80.06C32.5031 80.06 32.6471 80.112 32.7431 80.216C32.8471 80.32 32.8991 80.472 32.8991 80.672V81.548H32.7791C32.9071 81.068 33.1431 80.704 33.4871 80.456C33.8311 80.208 34.2711 80.064 34.8071 80.024C34.9511 80.016 35.0631 80.052 35.1431 80.132C35.2311 80.212 35.2791 80.336 35.2871 80.504C35.3031 80.672 35.2671 80.808 35.1791 80.912C35.0911 81.008 34.9551 81.064 34.7711 81.08L34.5431 81.104C34.0231 81.152 33.6271 81.316 33.3551 81.596C33.0831 81.876 32.9471 82.26 32.9471 82.748V85.472C32.9471 85.664 32.8951 85.816 32.7911 85.928C32.6951 86.032 32.5431 86.084 32.3351 86.084ZM38.6616 86.108C38.0696 86.108 37.5576 85.984 37.1256 85.736C36.7016 85.488 36.3696 85.136 36.1296 84.68C35.8896 84.224 35.7696 83.688 35.7696 83.072C35.7696 82.6 35.8376 82.18 35.9736 81.812C36.1096 81.444 36.3016 81.128 36.5496 80.864C36.8056 80.592 37.1096 80.388 37.4616 80.252C37.8216 80.108 38.2216 80.036 38.6616 80.036C39.2456 80.036 39.7496 80.16 40.1736 80.408C40.6056 80.656 40.9416 81.008 41.1816 81.464C41.4216 81.912 41.5416 82.448 41.5416 83.072C41.5416 83.536 41.4736 83.956 41.3376 84.332C41.2016 84.708 41.0056 85.028 40.7496 85.292C40.5016 85.556 40.1976 85.76 39.8376 85.904C39.4856 86.04 39.0936 86.108 38.6616 86.108ZM38.6616 85.172C38.9896 85.172 39.2776 85.092 39.5256 84.932C39.7736 84.772 39.9656 84.536 40.1016 84.224C40.2456 83.912 40.3176 83.528 40.3176 83.072C40.3176 82.384 40.1656 81.864 39.8616 81.512C39.5576 81.16 39.1576 80.984 38.6616 80.984C38.3256 80.984 38.0336 81.064 37.7856 81.224C37.5376 81.376 37.3416 81.608 37.1976 81.92C37.0616 82.232 36.9936 82.616 36.9936 83.072C36.9936 83.752 37.1456 84.272 37.4496 84.632C37.7536 84.992 38.1576 85.172 38.6616 85.172ZM45.5548 88.268C45.1228 88.268 44.7028 88.224 44.2948 88.136C43.8948 88.048 43.5308 87.904 43.2028 87.704C43.0828 87.64 43.0028 87.56 42.9628 87.464C42.9228 87.376 42.9108 87.284 42.9268 87.188C42.9508 87.092 42.9948 87.008 43.0588 86.936C43.1228 86.864 43.1988 86.816 43.2868 86.792C43.3828 86.768 43.4828 86.784 43.5868 86.84C43.9388 87.032 44.2708 87.16 44.5828 87.224C44.9028 87.296 45.1988 87.332 45.4708 87.332C46.0308 87.332 46.4508 87.188 46.7308 86.9C47.0108 86.62 47.1508 86.204 47.1508 85.652V84.428H47.2588C47.1388 84.868 46.8868 85.216 46.5028 85.472C46.1188 85.728 45.6748 85.856 45.1708 85.856C44.6428 85.856 44.1828 85.736 43.7908 85.496C43.3988 85.248 43.0948 84.908 42.8788 84.476C42.6628 84.036 42.5548 83.524 42.5548 82.94C42.5548 82.5 42.6148 82.104 42.7348 81.752C42.8628 81.4 43.0388 81.096 43.2628 80.84C43.4948 80.584 43.7708 80.388 44.0908 80.252C44.4188 80.108 44.7788 80.036 45.1708 80.036C45.6828 80.036 46.1268 80.164 46.5028 80.42C46.8868 80.676 47.1348 81.024 47.2468 81.464L47.1268 81.668V80.672C47.1268 80.472 47.1788 80.32 47.2828 80.216C47.3948 80.112 47.5428 80.06 47.7268 80.06C47.9188 80.06 48.0668 80.112 48.1708 80.216C48.2748 80.32 48.3268 80.472 48.3268 80.672V85.508C48.3268 86.42 48.0908 87.108 47.6188 87.572C47.1468 88.036 46.4588 88.268 45.5548 88.268ZM45.4588 84.908C45.8108 84.908 46.1108 84.828 46.3588 84.668C46.6068 84.508 46.7988 84.28 46.9348 83.984C47.0708 83.688 47.1388 83.34 47.1388 82.94C47.1388 82.34 46.9868 81.864 46.6828 81.512C46.3868 81.16 45.9788 80.984 45.4588 80.984C45.1148 80.984 44.8188 81.064 44.5708 81.224C44.3228 81.384 44.1268 81.612 43.9828 81.908C43.8468 82.196 43.7788 82.54 43.7788 82.94C43.7788 83.548 43.9308 84.028 44.2348 84.38C44.5388 84.732 44.9468 84.908 45.4588 84.908ZM50.6398 86.084C50.4398 86.084 50.2878 86.032 50.1838 85.928C50.0798 85.816 50.0278 85.664 50.0278 85.472V80.672C50.0278 80.472 50.0798 80.32 50.1838 80.216C50.2878 80.112 50.4318 80.06 50.6158 80.06C50.8078 80.06 50.9518 80.112 51.0478 80.216C51.1518 80.32 51.2038 80.472 51.2038 80.672V81.548H51.0838C51.2118 81.068 51.4478 80.704 51.7918 80.456C52.1358 80.208 52.5758 80.064 53.1118 80.024C53.2558 80.016 53.3678 80.052 53.4478 80.132C53.5358 80.212 53.5838 80.336 53.5918 80.504C53.6078 80.672 53.5718 80.808 53.4838 80.912C53.3958 81.008 53.2598 81.064 53.0758 81.08L52.8478 81.104C52.3278 81.152 51.9318 81.316 51.6598 81.596C51.3878 81.876 51.2518 82.26 51.2518 82.748V85.472C51.2518 85.664 51.1998 85.816 51.0958 85.928C50.9998 86.032 50.8478 86.084 50.6398 86.084ZM57.1703 86.108C56.5303 86.108 55.9783 85.988 55.5143 85.748C55.0583 85.5 54.7023 85.152 54.4463 84.704C54.1983 84.248 54.0743 83.708 54.0743 83.084C54.0743 82.476 54.1983 81.944 54.4463 81.488C54.6943 81.032 55.0343 80.676 55.4663 80.42C55.8983 80.164 56.3903 80.036 56.9423 80.036C57.3503 80.036 57.7143 80.104 58.0343 80.24C58.3543 80.368 58.6263 80.56 58.8503 80.816C59.0823 81.064 59.2543 81.368 59.3663 81.728C59.4863 82.088 59.5463 82.492 59.5463 82.94C59.5463 83.076 59.5063 83.18 59.4263 83.252C59.3463 83.316 59.2263 83.348 59.0663 83.348H55.0343V82.604H58.7303L58.5263 82.772C58.5263 82.372 58.4663 82.032 58.3463 81.752C58.2343 81.472 58.0623 81.26 57.8303 81.116C57.6063 80.964 57.3263 80.888 56.9903 80.888C56.6143 80.888 56.2943 80.976 56.0303 81.152C55.7743 81.328 55.5783 81.572 55.4423 81.884C55.3063 82.196 55.2383 82.56 55.2383 82.976V83.048C55.2383 83.752 55.4023 84.284 55.7303 84.644C56.0663 84.996 56.5503 85.172 57.1823 85.172C57.4223 85.172 57.6743 85.14 57.9383 85.076C58.2103 85.012 58.4663 84.904 58.7063 84.752C58.8423 84.672 58.9623 84.636 59.0663 84.644C59.1783 84.652 59.2663 84.688 59.3303 84.752C59.4023 84.816 59.4463 84.896 59.4623 84.992C59.4783 85.088 59.4623 85.188 59.4143 85.292C59.3663 85.388 59.2823 85.476 59.1623 85.556C58.8903 85.74 58.5743 85.88 58.2143 85.976C57.8543 86.064 57.5063 86.108 57.1703 86.108ZM62.9196 86.108C62.5676 86.108 62.2036 86.068 61.8276 85.988C61.4596 85.908 61.1196 85.772 60.8076 85.58C60.7036 85.508 60.6316 85.428 60.5916 85.34C60.5516 85.252 60.5356 85.164 60.5436 85.076C60.5596 84.98 60.5956 84.9 60.6516 84.836C60.7156 84.764 60.7916 84.72 60.8796 84.704C60.9756 84.688 61.0756 84.708 61.1796 84.764C61.4916 84.94 61.7916 85.064 62.0796 85.136C62.3676 85.2 62.6516 85.232 62.9316 85.232C63.3556 85.232 63.6756 85.156 63.8916 85.004C64.1076 84.852 64.2156 84.648 64.2156 84.392C64.2156 84.184 64.1436 84.024 63.9996 83.912C63.8556 83.792 63.6396 83.7 63.3516 83.636L62.2116 83.408C61.7156 83.304 61.3396 83.12 61.0836 82.856C60.8276 82.592 60.6996 82.256 60.6996 81.848C60.6996 81.48 60.7996 81.16 60.9996 80.888C61.1996 80.616 61.4796 80.408 61.8396 80.264C62.1996 80.112 62.6156 80.036 63.0876 80.036C63.4396 80.036 63.7716 80.08 64.0836 80.168C64.3956 80.256 64.6836 80.388 64.9476 80.564C65.0516 80.62 65.1196 80.696 65.1516 80.792C65.1836 80.88 65.1876 80.968 65.1636 81.056C65.1476 81.144 65.1076 81.224 65.0436 81.296C64.9796 81.36 64.8996 81.4 64.8036 81.416C64.7156 81.424 64.6156 81.4 64.5036 81.344C64.2636 81.192 64.0236 81.084 63.7836 81.02C63.5516 80.956 63.3196 80.924 63.0876 80.924C62.6636 80.924 62.3436 81.004 62.1276 81.164C61.9196 81.316 61.8156 81.524 61.8156 81.788C61.8156 81.988 61.8796 82.152 62.0076 82.28C62.1356 82.408 62.3356 82.5 62.6076 82.556L63.7476 82.784C64.2676 82.888 64.6596 83.064 64.9236 83.312C65.1956 83.56 65.3316 83.896 65.3316 84.32C65.3316 84.872 65.1116 85.308 64.6716 85.628C64.2316 85.948 63.6476 86.108 62.9196 86.108ZM68.7321 86.108C68.3801 86.108 68.0161 86.068 67.6401 85.988C67.2721 85.908 66.9321 85.772 66.6201 85.58C66.5161 85.508 66.4441 85.428 66.4041 85.34C66.3641 85.252 66.3481 85.164 66.3561 85.076C66.3721 84.98 66.4081 84.9 66.4641 84.836C66.5281 84.764 66.6041 84.72 66.6921 84.704C66.7881 84.688 66.8881 84.708 66.9921 84.764C67.3041 84.94 67.6041 85.064 67.8921 85.136C68.1801 85.2 68.4641 85.232 68.7441 85.232C69.1681 85.232 69.4881 85.156 69.7041 85.004C69.9201 84.852 70.0281 84.648 70.0281 84.392C70.0281 84.184 69.9561 84.024 69.8121 83.912C69.6681 83.792 69.4521 83.7 69.1641 83.636L68.0241 83.408C67.5281 83.304 67.1521 83.12 66.8961 82.856C66.6401 82.592 66.5121 82.256 66.5121 81.848C66.5121 81.48 66.6121 81.16 66.8121 80.888C67.0121 80.616 67.2921 80.408 67.6521 80.264C68.0121 80.112 68.4281 80.036 68.9001 80.036C69.2521 80.036 69.5841 80.08 69.8961 80.168C70.2081 80.256 70.4961 80.388 70.7601 80.564C70.8641 80.62 70.9321 80.696 70.9641 80.792C70.9961 80.88 71.0001 80.968 70.9761 81.056C70.9601 81.144 70.9201 81.224 70.8561 81.296C70.7921 81.36 70.7121 81.4 70.6161 81.416C70.5281 81.424 70.4281 81.4 70.3161 81.344C70.0761 81.192 69.8361 81.084 69.5961 81.02C69.3641 80.956 69.1321 80.924 68.9001 80.924C68.4761 80.924 68.1561 81.004 67.9401 81.164C67.7321 81.316 67.6281 81.524 67.6281 81.788C67.6281 81.988 67.6921 82.152 67.8201 82.28C67.9481 82.408 68.1481 82.5 68.4201 82.556L69.5601 82.784C70.0801 82.888 70.4721 83.064 70.7361 83.312C71.0081 83.56 71.1441 83.896 71.1441 84.32C71.1441 84.872 70.9241 85.308 70.4841 85.628C70.0441 85.948 69.4601 86.108 68.7321 86.108Z" fill="white"/>
<rect x="86" y="70" width="80" height="24" rx="12" fill="#64728C"/>
<path d="M100.776 86.108C99.92 86.108 99.188 85.932 98.58 85.58C97.972 85.228 97.504 84.728 97.176 84.08C96.856 83.424 96.696 82.652 96.696 81.764C96.696 81.1 96.788 80.504 96.972 79.976C97.156 79.44 97.42 78.984 97.764 78.608C98.116 78.224 98.544 77.932 99.048 77.732C99.56 77.532 100.136 77.432 100.776 77.432C101.248 77.432 101.7 77.496 102.132 77.624C102.572 77.752 102.952 77.936 103.272 78.176C103.408 78.264 103.496 78.372 103.536 78.5C103.584 78.62 103.592 78.736 103.56 78.848C103.536 78.96 103.484 79.056 103.404 79.136C103.324 79.208 103.22 79.248 103.092 79.256C102.972 79.264 102.84 79.22 102.696 79.124C102.432 78.924 102.14 78.776 101.82 78.68C101.5 78.584 101.164 78.536 100.812 78.536C100.204 78.536 99.692 78.664 99.276 78.92C98.86 79.168 98.544 79.532 98.328 80.012C98.112 80.492 98.004 81.076 98.004 81.764C98.004 82.452 98.112 83.04 98.328 83.528C98.544 84.008 98.86 84.376 99.276 84.632C99.692 84.88 100.204 85.004 100.812 85.004C101.164 85.004 101.5 84.956 101.82 84.86C102.148 84.756 102.456 84.604 102.744 84.404C102.888 84.316 103.016 84.276 103.128 84.284C103.248 84.292 103.348 84.332 103.428 84.404C103.508 84.476 103.56 84.568 103.584 84.68C103.616 84.784 103.612 84.896 103.572 85.016C103.54 85.128 103.464 85.224 103.344 85.304C103.016 85.568 102.628 85.768 102.18 85.904C101.732 86.04 101.264 86.108 100.776 86.108ZM107.084 86.108C106.492 86.108 105.98 85.984 105.548 85.736C105.124 85.488 104.792 85.136 104.552 84.68C104.312 84.224 104.192 83.688 104.192 83.072C104.192 82.6 104.26 82.18 104.396 81.812C104.532 81.444 104.724 81.128 104.972 80.864C105.228 80.592 105.532 80.388 105.884 80.252C106.244 80.108 106.644 80.036 107.084 80.036C107.668 80.036 108.172 80.16 108.596 80.408C109.028 80.656 109.364 81.008 109.604 81.464C109.844 81.912 109.964 82.448 109.964 83.072C109.964 83.536 109.896 83.956 109.76 84.332C109.624 84.708 109.428 85.028 109.172 85.292C108.924 85.556 108.62 85.76 108.26 85.904C107.908 86.04 107.516 86.108 107.084 86.108ZM107.084 85.172C107.412 85.172 107.7 85.092 107.948 84.932C108.196 84.772 108.388 84.536 108.524 84.224C108.668 83.912 108.74 83.528 108.74 83.072C108.74 82.384 108.588 81.864 108.284 81.512C107.98 81.16 107.58 80.984 107.084 80.984C106.748 80.984 106.456 81.064 106.208 81.224C105.96 81.376 105.764 81.608 105.62 81.92C105.484 82.232 105.416 82.616 105.416 83.072C105.416 83.752 105.568 84.272 105.872 84.632C106.176 84.992 106.58 85.172 107.084 85.172ZM111.949 86.084C111.757 86.084 111.609 86.032 111.505 85.928C111.401 85.816 111.349 85.664 111.349 85.472V80.672C111.349 80.472 111.401 80.32 111.505 80.216C111.609 80.112 111.753 80.06 111.937 80.06C112.129 80.06 112.273 80.112 112.369 80.216C112.473 80.32 112.525 80.472 112.525 80.672V81.656L112.393 81.392C112.553 80.968 112.801 80.636 113.137 80.396C113.473 80.156 113.877 80.036 114.349 80.036C114.837 80.036 115.233 80.152 115.537 80.384C115.841 80.616 116.049 80.972 116.161 81.452H115.993C116.145 81.012 116.405 80.668 116.773 80.42C117.141 80.164 117.569 80.036 118.057 80.036C118.505 80.036 118.873 80.124 119.161 80.3C119.449 80.468 119.665 80.728 119.809 81.08C119.953 81.424 120.025 81.86 120.025 82.388V85.472C120.025 85.664 119.969 85.816 119.857 85.928C119.753 86.032 119.605 86.084 119.413 86.084C119.221 86.084 119.073 86.032 118.969 85.928C118.865 85.816 118.813 85.664 118.813 85.472V82.448C118.813 81.952 118.725 81.588 118.549 81.356C118.381 81.124 118.101 81.008 117.709 81.008C117.269 81.008 116.921 81.16 116.665 81.464C116.409 81.768 116.281 82.188 116.281 82.724V85.472C116.281 85.664 116.229 85.816 116.125 85.928C116.021 86.032 115.873 86.084 115.681 86.084C115.489 86.084 115.337 86.032 115.225 85.928C115.121 85.816 115.069 85.664 115.069 85.472V82.448C115.069 81.952 114.985 81.588 114.817 81.356C114.649 81.124 114.369 81.008 113.977 81.008C113.537 81.008 113.189 81.16 112.933 81.464C112.685 81.768 112.561 82.188 112.561 82.724V85.472C112.561 85.88 112.357 86.084 111.949 86.084ZM122.319 88.244C122.127 88.244 121.979 88.192 121.875 88.088C121.771 87.984 121.719 87.832 121.719 87.632V80.672C121.719 80.472 121.771 80.32 121.875 80.216C121.979 80.112 122.123 80.06 122.307 80.06C122.499 80.06 122.647 80.112 122.751 80.216C122.855 80.32 122.907 80.472 122.907 80.672V81.716L122.775 81.464C122.903 81.032 123.155 80.688 123.531 80.432C123.907 80.168 124.351 80.036 124.863 80.036C125.383 80.036 125.835 80.16 126.219 80.408C126.611 80.656 126.911 81.004 127.119 81.452C127.335 81.9 127.443 82.44 127.443 83.072C127.443 83.688 127.335 84.228 127.119 84.692C126.911 85.148 126.615 85.5 126.231 85.748C125.847 85.988 125.391 86.108 124.863 86.108C124.359 86.108 123.919 85.98 123.543 85.724C123.167 85.468 122.915 85.128 122.787 84.704H122.931V87.632C122.931 87.832 122.875 87.984 122.763 88.088C122.659 88.192 122.511 88.244 122.319 88.244ZM124.563 85.172C124.899 85.172 125.191 85.092 125.439 84.932C125.687 84.772 125.879 84.536 126.015 84.224C126.151 83.912 126.219 83.528 126.219 83.072C126.219 82.384 126.067 81.864 125.763 81.512C125.467 81.16 125.067 80.984 124.563 80.984C124.235 80.984 123.943 81.064 123.687 81.224C123.439 81.376 123.247 81.608 123.111 81.92C122.975 82.232 122.907 82.616 122.907 83.072C122.907 83.752 123.059 84.272 123.363 84.632C123.667 84.992 124.067 85.172 124.563 85.172ZM130.693 86.108C130.069 86.108 129.597 85.928 129.277 85.568C128.965 85.2 128.809 84.672 128.809 83.984V78.068C128.809 77.868 128.861 77.716 128.965 77.612C129.069 77.508 129.217 77.456 129.409 77.456C129.601 77.456 129.749 77.508 129.853 77.612C129.965 77.716 130.021 77.868 130.021 78.068V83.912C130.021 84.312 130.101 84.612 130.261 84.812C130.429 85.004 130.669 85.1 130.981 85.1C131.053 85.1 131.117 85.1 131.173 85.1C131.229 85.092 131.285 85.084 131.341 85.076C131.437 85.068 131.505 85.096 131.545 85.16C131.585 85.216 131.605 85.336 131.605 85.52C131.605 85.688 131.569 85.82 131.497 85.916C131.425 86.004 131.309 86.06 131.149 86.084C131.077 86.092 131.001 86.096 130.921 86.096C130.841 86.104 130.765 86.108 130.693 86.108ZM135.166 86.108C134.526 86.108 133.974 85.988 133.51 85.748C133.054 85.5 132.698 85.152 132.442 84.704C132.194 84.248 132.07 83.708 132.07 83.084C132.07 82.476 132.194 81.944 132.442 81.488C132.69 81.032 133.03 80.676 133.462 80.42C133.894 80.164 134.386 80.036 134.938 80.036C135.346 80.036 135.71 80.104 136.03 80.24C136.35 80.368 136.622 80.56 136.846 80.816C137.078 81.064 137.25 81.368 137.362 81.728C137.482 82.088 137.542 82.492 137.542 82.94C137.542 83.076 137.502 83.18 137.422 83.252C137.342 83.316 137.222 83.348 137.062 83.348H133.03V82.604H136.726L136.522 82.772C136.522 82.372 136.462 82.032 136.342 81.752C136.23 81.472 136.058 81.26 135.826 81.116C135.602 80.964 135.322 80.888 134.986 80.888C134.61 80.888 134.29 80.976 134.026 81.152C133.77 81.328 133.574 81.572 133.438 81.884C133.302 82.196 133.234 82.56 133.234 82.976V83.048C133.234 83.752 133.398 84.284 133.726 84.644C134.062 84.996 134.546 85.172 135.178 85.172C135.418 85.172 135.67 85.14 135.934 85.076C136.206 85.012 136.462 84.904 136.702 84.752C136.838 84.672 136.958 84.636 137.062 84.644C137.174 84.652 137.262 84.688 137.326 84.752C137.398 84.816 137.442 84.896 137.458 84.992C137.474 85.088 137.458 85.188 137.41 85.292C137.362 85.388 137.278 85.476 137.158 85.556C136.886 85.74 136.57 85.88 136.21 85.976C135.85 86.064 135.502 86.108 135.166 86.108ZM141.348 86.108C140.868 86.108 140.464 86.024 140.136 85.856C139.808 85.688 139.564 85.44 139.404 85.112C139.244 84.784 139.164 84.384 139.164 83.912V81.08H138.444C138.284 81.08 138.16 81.04 138.072 80.96C137.984 80.872 137.94 80.756 137.94 80.612C137.94 80.46 137.984 80.344 138.072 80.264C138.16 80.184 138.284 80.144 138.444 80.144H139.164V78.908C139.164 78.708 139.216 78.556 139.32 78.452C139.432 78.348 139.584 78.296 139.776 78.296C139.968 78.296 140.116 78.348 140.22 78.452C140.324 78.556 140.376 78.708 140.376 78.908V80.144H141.78C141.94 80.144 142.064 80.184 142.152 80.264C142.24 80.344 142.284 80.46 142.284 80.612C142.284 80.756 142.24 80.872 142.152 80.96C142.064 81.04 141.94 81.08 141.78 81.08H140.376V83.816C140.376 84.24 140.464 84.56 140.64 84.776C140.824 84.992 141.12 85.1 141.528 85.1C141.672 85.1 141.796 85.088 141.9 85.064C142.012 85.032 142.104 85.012 142.176 85.004C142.264 85.004 142.336 85.036 142.392 85.1C142.448 85.156 142.476 85.268 142.476 85.436C142.476 85.556 142.452 85.668 142.404 85.772C142.364 85.876 142.288 85.944 142.176 85.976C142.08 86.008 141.948 86.036 141.78 86.06C141.62 86.092 141.476 86.108 141.348 86.108ZM145.924 86.108C145.284 86.108 144.732 85.988 144.268 85.748C143.812 85.5 143.456 85.152 143.2 84.704C142.952 84.248 142.828 83.708 142.828 83.084C142.828 82.476 142.952 81.944 143.2 81.488C143.448 81.032 143.788 80.676 144.22 80.42C144.652 80.164 145.144 80.036 145.696 80.036C146.104 80.036 146.468 80.104 146.788 80.24C147.108 80.368 147.38 80.56 147.604 80.816C147.836 81.064 148.008 81.368 148.12 81.728C148.24 82.088 148.3 82.492 148.3 82.94C148.3 83.076 148.26 83.18 148.18 83.252C148.1 83.316 147.98 83.348 147.82 83.348H143.788V82.604H147.484L147.28 82.772C147.28 82.372 147.22 82.032 147.1 81.752C146.988 81.472 146.816 81.26 146.584 81.116C146.36 80.964 146.08 80.888 145.744 80.888C145.368 80.888 145.048 80.976 144.784 81.152C144.528 81.328 144.332 81.572 144.196 81.884C144.06 82.196 143.992 82.56 143.992 82.976V83.048C143.992 83.752 144.156 84.284 144.484 84.644C144.82 84.996 145.304 85.172 145.936 85.172C146.176 85.172 146.428 85.14 146.692 85.076C146.964 85.012 147.22 84.904 147.46 84.752C147.596 84.672 147.716 84.636 147.82 84.644C147.932 84.652 148.02 84.688 148.084 84.752C148.156 84.816 148.2 84.896 148.216 84.992C148.232 85.088 148.216 85.188 148.168 85.292C148.12 85.388 148.036 85.476 147.916 85.556C147.644 85.74 147.328 85.88 146.968 85.976C146.608 86.064 146.26 86.108 145.924 86.108ZM151.854 86.108C151.342 86.108 150.89 85.988 150.498 85.748C150.114 85.5 149.814 85.148 149.598 84.692C149.382 84.228 149.274 83.688 149.274 83.072C149.274 82.44 149.382 81.9 149.598 81.452C149.814 81.004 150.114 80.656 150.498 80.408C150.89 80.16 151.342 80.036 151.854 80.036C152.366 80.036 152.806 80.164 153.174 80.42C153.55 80.668 153.802 81.004 153.93 81.428H153.798V78.068C153.798 77.868 153.85 77.716 153.954 77.612C154.058 77.508 154.206 77.456 154.398 77.456C154.59 77.456 154.738 77.508 154.842 77.612C154.954 77.716 155.01 77.868 155.01 78.068V85.472C155.01 85.664 154.958 85.816 154.854 85.928C154.75 86.032 154.602 86.084 154.41 86.084C154.218 86.084 154.07 86.032 153.966 85.928C153.862 85.816 153.81 85.664 153.81 85.472V84.416L153.942 84.68C153.814 85.112 153.562 85.46 153.186 85.724C152.818 85.98 152.374 86.108 151.854 86.108ZM152.166 85.172C152.494 85.172 152.782 85.092 153.03 84.932C153.278 84.772 153.47 84.536 153.606 84.224C153.75 83.912 153.822 83.528 153.822 83.072C153.822 82.384 153.67 81.864 153.366 81.512C153.062 81.16 152.662 80.984 152.166 80.984C151.83 80.984 151.538 81.064 151.29 81.224C151.042 81.376 150.846 81.608 150.702 81.92C150.566 82.232 150.498 82.616 150.498 83.072C150.498 83.752 150.65 84.272 150.954 84.632C151.258 84.992 151.662 85.172 152.166 85.172Z" fill="white"/>
</svg>
