<svg width="310" height="96" viewBox="0 0 310 96" fill="none" xmlns="http://www.w3.org/2000/svg">
<g filter="url(#filter0_d_556_4549)">
<rect x="5" y="21" width="300" height="45" rx="12" fill="white" shape-rendering="crispEdges"/>
<rect x="5.5" y="21.5" width="299" height="44" rx="11.5" stroke="#EB0910" shape-rendering="crispEdges"/>
<path d="M18.78 47.608C18.404 47.608 18.036 47.576 17.676 47.512C17.316 47.448 16.98 47.356 16.668 47.236C16.364 47.116 16.088 46.964 15.84 46.78C15.744 46.708 15.676 46.628 15.636 46.54C15.604 46.444 15.596 46.352 15.612 46.264C15.636 46.168 15.676 46.088 15.732 46.024C15.796 45.96 15.872 45.924 15.96 45.916C16.048 45.908 16.144 45.936 16.248 46C16.608 46.256 16.992 46.444 17.4 46.564C17.808 46.676 18.268 46.732 18.78 46.732C19.5 46.732 20.032 46.6 20.376 46.336C20.728 46.064 20.904 45.708 20.904 45.268C20.904 44.908 20.776 44.628 20.52 44.428C20.272 44.22 19.852 44.056 19.26 43.936L18.012 43.684C17.26 43.524 16.696 43.264 16.32 42.904C15.952 42.536 15.768 42.048 15.768 41.44C15.768 41.064 15.844 40.724 15.996 40.42C16.148 40.108 16.36 39.844 16.632 39.628C16.904 39.404 17.228 39.232 17.604 39.112C17.98 38.992 18.396 38.932 18.852 38.932C19.356 38.932 19.824 39.004 20.256 39.148C20.696 39.284 21.092 39.492 21.444 39.772C21.532 39.844 21.592 39.928 21.624 40.024C21.656 40.112 21.66 40.2 21.636 40.288C21.612 40.368 21.568 40.436 21.504 40.492C21.448 40.548 21.372 40.58 21.276 40.588C21.188 40.596 21.088 40.564 20.976 40.492C20.656 40.252 20.324 40.08 19.98 39.976C19.636 39.864 19.256 39.808 18.84 39.808C18.416 39.808 18.048 39.872 17.736 40C17.432 40.128 17.192 40.316 17.016 40.564C16.848 40.804 16.764 41.084 16.764 41.404C16.764 41.788 16.88 42.092 17.112 42.316C17.352 42.54 17.74 42.704 18.276 42.808L19.524 43.072C20.332 43.24 20.928 43.496 21.312 43.84C21.704 44.176 21.9 44.636 21.9 45.22C21.9 45.572 21.828 45.896 21.684 46.192C21.54 46.488 21.332 46.744 21.06 46.96C20.788 47.168 20.46 47.328 20.076 47.44C19.692 47.552 19.26 47.608 18.78 47.608ZM25.9228 47.608C25.3068 47.608 24.7748 47.488 24.3268 47.248C23.8868 47 23.5428 46.652 23.2948 46.204C23.0548 45.756 22.9348 45.22 22.9348 44.596C22.9348 43.988 23.0548 43.46 23.2948 43.012C23.5348 42.556 23.8628 42.2 24.2788 41.944C24.7028 41.688 25.1908 41.56 25.7428 41.56C26.1348 41.56 26.4868 41.628 26.7988 41.764C27.1108 41.892 27.3748 42.08 27.5908 42.328C27.8148 42.576 27.9828 42.876 28.0948 43.228C28.2148 43.58 28.2748 43.976 28.2748 44.416C28.2748 44.544 28.2388 44.64 28.1668 44.704C28.0948 44.76 27.9908 44.788 27.8548 44.788H23.6788V44.152H27.6268L27.4348 44.308C27.4348 43.876 27.3708 43.512 27.2428 43.216C27.1148 42.912 26.9268 42.68 26.6788 42.52C26.4388 42.36 26.1348 42.28 25.7668 42.28C25.3588 42.28 25.0108 42.376 24.7228 42.568C24.4428 42.752 24.2308 43.012 24.0868 43.348C23.9428 43.676 23.8708 44.06 23.8708 44.5V44.572C23.8708 45.308 24.0468 45.868 24.3988 46.252C24.7588 46.636 25.2668 46.828 25.9228 46.828C26.1948 46.828 26.4628 46.792 26.7268 46.72C26.9988 46.648 27.2628 46.528 27.5188 46.36C27.6308 46.288 27.7308 46.256 27.8188 46.264C27.9148 46.264 27.9908 46.292 28.0468 46.348C28.1028 46.396 28.1388 46.46 28.1548 46.54C28.1788 46.612 28.1708 46.692 28.1308 46.78C28.0988 46.868 28.0308 46.944 27.9268 47.008C27.6628 47.2 27.3508 47.348 26.9908 47.452C26.6308 47.556 26.2748 47.608 25.9228 47.608ZM31.4575 47.608C30.8815 47.608 30.4415 47.432 30.1375 47.08C29.8335 46.728 29.6815 46.224 29.6815 45.568V39.448C29.6815 39.288 29.7215 39.168 29.8015 39.088C29.8815 39 30.0015 38.956 30.1615 38.956C30.3135 38.956 30.4335 39 30.5215 39.088C30.6095 39.168 30.6535 39.288 30.6535 39.448V45.496C30.6535 45.928 30.7375 46.252 30.9055 46.468C31.0815 46.676 31.3375 46.78 31.6735 46.78C31.7455 46.78 31.8095 46.776 31.8655 46.768C31.9215 46.76 31.9775 46.756 32.0335 46.756C32.1215 46.748 32.1815 46.768 32.2135 46.816C32.2535 46.864 32.2735 46.96 32.2735 47.104C32.2735 47.248 32.2415 47.356 32.1775 47.428C32.1135 47.5 32.0095 47.548 31.8655 47.572C31.8015 47.58 31.7335 47.588 31.6615 47.596C31.5895 47.604 31.5215 47.608 31.4575 47.608ZM35.8017 47.608C35.1857 47.608 34.6537 47.488 34.2057 47.248C33.7657 47 33.4217 46.652 33.1737 46.204C32.9337 45.756 32.8137 45.22 32.8137 44.596C32.8137 43.988 32.9337 43.46 33.1737 43.012C33.4137 42.556 33.7417 42.2 34.1577 41.944C34.5817 41.688 35.0697 41.56 35.6217 41.56C36.0137 41.56 36.3657 41.628 36.6777 41.764C36.9897 41.892 37.2537 42.08 37.4697 42.328C37.6937 42.576 37.8617 42.876 37.9737 43.228C38.0937 43.58 38.1537 43.976 38.1537 44.416C38.1537 44.544 38.1177 44.64 38.0457 44.704C37.9737 44.76 37.8697 44.788 37.7337 44.788H33.5577V44.152H37.5057L37.3137 44.308C37.3137 43.876 37.2497 43.512 37.1217 43.216C36.9937 42.912 36.8057 42.68 36.5577 42.52C36.3177 42.36 36.0137 42.28 35.6457 42.28C35.2377 42.28 34.8897 42.376 34.6017 42.568C34.3217 42.752 34.1097 43.012 33.9657 43.348C33.8217 43.676 33.7497 44.06 33.7497 44.5V44.572C33.7497 45.308 33.9257 45.868 34.2777 46.252C34.6377 46.636 35.1457 46.828 35.8017 46.828C36.0737 46.828 36.3417 46.792 36.6057 46.72C36.8777 46.648 37.1417 46.528 37.3977 46.36C37.5097 46.288 37.6097 46.256 37.6977 46.264C37.7937 46.264 37.8697 46.292 37.9257 46.348C37.9817 46.396 38.0177 46.46 38.0337 46.54C38.0577 46.612 38.0497 46.692 38.0097 46.78C37.9777 46.868 37.9097 46.944 37.8057 47.008C37.5417 47.2 37.2297 47.348 36.8697 47.452C36.5097 47.556 36.1537 47.608 35.8017 47.608ZM42.0324 47.608C41.4484 47.608 40.9444 47.48 40.5204 47.224C40.0964 46.968 39.7684 46.612 39.5364 46.156C39.3124 45.692 39.2004 45.156 39.2004 44.548C39.2004 44.084 39.2644 43.668 39.3924 43.3C39.5204 42.932 39.7084 42.62 39.9564 42.364C40.2044 42.1 40.5004 41.9 40.8444 41.764C41.1964 41.628 41.5924 41.56 42.0324 41.56C42.3204 41.56 42.6204 41.604 42.9324 41.692C43.2444 41.78 43.5284 41.932 43.7844 42.148C43.8644 42.204 43.9164 42.272 43.9404 42.352C43.9644 42.432 43.9644 42.512 43.9404 42.592C43.9164 42.664 43.8764 42.728 43.8204 42.784C43.7644 42.832 43.6924 42.86 43.6044 42.868C43.5244 42.876 43.4404 42.848 43.3524 42.784C43.1444 42.624 42.9324 42.512 42.7164 42.448C42.5004 42.384 42.2924 42.352 42.0924 42.352C41.7804 42.352 41.5084 42.404 41.2764 42.508C41.0444 42.604 40.8484 42.744 40.6884 42.928C40.5284 43.112 40.4044 43.34 40.3164 43.612C40.2364 43.884 40.1964 44.2 40.1964 44.56C40.1964 45.256 40.3604 45.808 40.6884 46.216C41.0164 46.616 41.4844 46.816 42.0924 46.816C42.2924 46.816 42.4964 46.784 42.7044 46.72C42.9204 46.656 43.1364 46.544 43.3524 46.384C43.4404 46.32 43.5244 46.292 43.6044 46.3C43.6844 46.308 43.7524 46.34 43.8084 46.396C43.8644 46.444 43.9004 46.508 43.9164 46.588C43.9404 46.668 43.9404 46.748 43.9164 46.828C43.8924 46.9 43.8404 46.964 43.7604 47.02C43.5044 47.228 43.2244 47.38 42.9204 47.476C42.6164 47.564 42.3204 47.608 42.0324 47.608ZM47.4551 47.608C46.9991 47.608 46.6151 47.528 46.3031 47.368C45.9991 47.2 45.7711 46.96 45.6191 46.648C45.4671 46.328 45.3911 45.94 45.3911 45.484V42.424H44.5871C44.4511 42.424 44.3471 42.392 44.2751 42.328C44.2031 42.256 44.1671 42.16 44.1671 42.04C44.1671 41.92 44.2031 41.828 44.2751 41.764C44.3471 41.7 44.4511 41.668 44.5871 41.668H45.3911V40.288C45.3911 40.128 45.4351 40.008 45.5231 39.928C45.6111 39.84 45.7311 39.796 45.8831 39.796C46.0351 39.796 46.1511 39.84 46.2311 39.928C46.3191 40.008 46.3631 40.128 46.3631 40.288V41.668H47.8751C48.0111 41.668 48.1151 41.7 48.1871 41.764C48.2591 41.828 48.2951 41.92 48.2951 42.04C48.2951 42.16 48.2591 42.256 48.1871 42.328C48.1151 42.392 48.0111 42.424 47.8751 42.424H46.3631V45.388C46.3631 45.844 46.4591 46.192 46.6511 46.432C46.8431 46.664 47.1551 46.78 47.5871 46.78C47.7391 46.78 47.8671 46.764 47.9711 46.732C48.0831 46.7 48.1751 46.684 48.2471 46.684C48.3191 46.676 48.3791 46.7 48.4271 46.756C48.4751 46.812 48.4991 46.908 48.4991 47.044C48.4991 47.14 48.4791 47.228 48.4391 47.308C48.4071 47.388 48.3471 47.444 48.2591 47.476C48.1631 47.508 48.0351 47.536 47.8751 47.56C47.7231 47.592 47.5831 47.608 47.4551 47.608ZM55.2722 47.608C54.8962 47.608 54.5282 47.576 54.1682 47.512C53.8082 47.448 53.4722 47.356 53.1602 47.236C52.8562 47.116 52.5802 46.964 52.3322 46.78C52.2362 46.708 52.1682 46.628 52.1282 46.54C52.0962 46.444 52.0882 46.352 52.1042 46.264C52.1282 46.168 52.1682 46.088 52.2242 46.024C52.2882 45.96 52.3642 45.924 52.4522 45.916C52.5402 45.908 52.6362 45.936 52.7402 46C53.1002 46.256 53.4842 46.444 53.8922 46.564C54.3002 46.676 54.7602 46.732 55.2722 46.732C55.9922 46.732 56.5242 46.6 56.8682 46.336C57.2202 46.064 57.3962 45.708 57.3962 45.268C57.3962 44.908 57.2682 44.628 57.0122 44.428C56.7642 44.22 56.3442 44.056 55.7522 43.936L54.5042 43.684C53.7522 43.524 53.1882 43.264 52.8122 42.904C52.4442 42.536 52.2602 42.048 52.2602 41.44C52.2602 41.064 52.3362 40.724 52.4882 40.42C52.6402 40.108 52.8522 39.844 53.1242 39.628C53.3962 39.404 53.7202 39.232 54.0962 39.112C54.4722 38.992 54.8882 38.932 55.3442 38.932C55.8482 38.932 56.3162 39.004 56.7482 39.148C57.1882 39.284 57.5842 39.492 57.9362 39.772C58.0242 39.844 58.0842 39.928 58.1162 40.024C58.1482 40.112 58.1522 40.2 58.1282 40.288C58.1042 40.368 58.0602 40.436 57.9962 40.492C57.9402 40.548 57.8642 40.58 57.7682 40.588C57.6802 40.596 57.5802 40.564 57.4682 40.492C57.1482 40.252 56.8162 40.08 56.4722 39.976C56.1282 39.864 55.7482 39.808 55.3322 39.808C54.9082 39.808 54.5402 39.872 54.2282 40C53.9242 40.128 53.6842 40.316 53.5082 40.564C53.3402 40.804 53.2562 41.084 53.2562 41.404C53.2562 41.788 53.3722 42.092 53.6042 42.316C53.8442 42.54 54.2322 42.704 54.7682 42.808L56.0162 43.072C56.8242 43.24 57.4202 43.496 57.8042 43.84C58.1962 44.176 58.3922 44.636 58.3922 45.22C58.3922 45.572 58.3202 45.896 58.1762 46.192C58.0322 46.488 57.8242 46.744 57.5522 46.96C57.2802 47.168 56.9522 47.328 56.5682 47.44C56.1842 47.552 55.7522 47.608 55.2722 47.608ZM62.1036 47.608C61.6476 47.608 61.2636 47.528 60.9516 47.368C60.6476 47.2 60.4196 46.96 60.2676 46.648C60.1156 46.328 60.0396 45.94 60.0396 45.484V42.424H59.2356C59.0996 42.424 58.9956 42.392 58.9236 42.328C58.8516 42.256 58.8156 42.16 58.8156 42.04C58.8156 41.92 58.8516 41.828 58.9236 41.764C58.9956 41.7 59.0996 41.668 59.2356 41.668H60.0396V40.288C60.0396 40.128 60.0836 40.008 60.1716 39.928C60.2596 39.84 60.3796 39.796 60.5316 39.796C60.6836 39.796 60.7996 39.84 60.8796 39.928C60.9676 40.008 61.0116 40.128 61.0116 40.288V41.668H62.5236C62.6596 41.668 62.7636 41.7 62.8356 41.764C62.9076 41.828 62.9436 41.92 62.9436 42.04C62.9436 42.16 62.9076 42.256 62.8356 42.328C62.7636 42.392 62.6596 42.424 62.5236 42.424H61.0116V45.388C61.0116 45.844 61.1076 46.192 61.2996 46.432C61.4916 46.664 61.8036 46.78 62.2356 46.78C62.3876 46.78 62.5156 46.764 62.6196 46.732C62.7316 46.7 62.8236 46.684 62.8956 46.684C62.9676 46.676 63.0276 46.7 63.0756 46.756C63.1236 46.812 63.1476 46.908 63.1476 47.044C63.1476 47.14 63.1276 47.228 63.0876 47.308C63.0556 47.388 62.9956 47.444 62.9076 47.476C62.8116 47.508 62.6836 47.536 62.5236 47.56C62.3716 47.592 62.2316 47.608 62.1036 47.608ZM65.7949 47.608C65.3949 47.608 65.0349 47.532 64.7149 47.38C64.4029 47.22 64.1549 47.004 63.9709 46.732C63.7869 46.46 63.6949 46.156 63.6949 45.82C63.6949 45.388 63.8029 45.048 64.0189 44.8C64.2429 44.552 64.6069 44.376 65.1109 44.272C65.6229 44.168 66.3189 44.116 67.1989 44.116H67.7389V44.752H67.2109C66.5629 44.752 66.0509 44.784 65.6749 44.848C65.3069 44.904 65.0469 45.004 64.8949 45.148C64.7509 45.292 64.6789 45.496 64.6789 45.76C64.6789 46.088 64.7909 46.356 65.0149 46.564C65.2469 46.772 65.5589 46.876 65.9509 46.876C66.2709 46.876 66.5509 46.8 66.7909 46.648C67.0389 46.496 67.2309 46.288 67.3669 46.024C67.5109 45.76 67.5829 45.456 67.5829 45.112V43.744C67.5829 43.248 67.4829 42.892 67.2829 42.676C67.0829 42.452 66.7549 42.34 66.2989 42.34C66.0189 42.34 65.7389 42.376 65.4589 42.448C65.1789 42.52 64.8829 42.636 64.5709 42.796C64.4589 42.852 64.3629 42.872 64.2829 42.856C64.2029 42.832 64.1389 42.788 64.0909 42.724C64.0429 42.66 64.0149 42.588 64.0069 42.508C63.9989 42.42 64.0149 42.336 64.0549 42.256C64.1029 42.176 64.1749 42.112 64.2709 42.064C64.6229 41.888 64.9709 41.76 65.3149 41.68C65.6589 41.6 65.9869 41.56 66.2989 41.56C66.8029 41.56 67.2189 41.644 67.5469 41.812C67.8749 41.972 68.1189 42.22 68.2789 42.556C68.4389 42.884 68.5189 43.308 68.5189 43.828V47.08C68.5189 47.24 68.4789 47.364 68.3989 47.452C68.3269 47.54 68.2189 47.584 68.0749 47.584C67.9229 47.584 67.8069 47.54 67.7269 47.452C67.6469 47.364 67.6069 47.24 67.6069 47.08V46.144H67.7149C67.6509 46.448 67.5269 46.708 67.3429 46.924C67.1669 47.14 66.9469 47.308 66.6829 47.428C66.4189 47.548 66.1229 47.608 65.7949 47.608ZM72.6622 47.608C72.2062 47.608 71.8222 47.528 71.5102 47.368C71.2062 47.2 70.9782 46.96 70.8262 46.648C70.6742 46.328 70.5982 45.94 70.5982 45.484V42.424H69.7942C69.6582 42.424 69.5542 42.392 69.4822 42.328C69.4102 42.256 69.3742 42.16 69.3742 42.04C69.3742 41.92 69.4102 41.828 69.4822 41.764C69.5542 41.7 69.6582 41.668 69.7942 41.668H70.5982V40.288C70.5982 40.128 70.6422 40.008 70.7302 39.928C70.8182 39.84 70.9382 39.796 71.0902 39.796C71.2422 39.796 71.3582 39.84 71.4382 39.928C71.5262 40.008 71.5702 40.128 71.5702 40.288V41.668H73.0822C73.2182 41.668 73.3222 41.7 73.3942 41.764C73.4662 41.828 73.5022 41.92 73.5022 42.04C73.5022 42.16 73.4662 42.256 73.3942 42.328C73.3222 42.392 73.2182 42.424 73.0822 42.424H71.5702V45.388C71.5702 45.844 71.6662 46.192 71.8582 46.432C72.0502 46.664 72.3622 46.78 72.7942 46.78C72.9462 46.78 73.0742 46.764 73.1782 46.732C73.2902 46.7 73.3822 46.684 73.4542 46.684C73.5262 46.676 73.5862 46.7 73.6342 46.756C73.6822 46.812 73.7062 46.908 73.7062 47.044C73.7062 47.14 73.6862 47.228 73.6462 47.308C73.6142 47.388 73.5542 47.444 73.4662 47.476C73.3702 47.508 73.2422 47.536 73.0822 47.56C72.9302 47.592 72.7902 47.608 72.6622 47.608ZM76.5815 47.608C76.1095 47.608 75.7175 47.524 75.4055 47.356C75.1015 47.18 74.8695 46.92 74.7095 46.576C74.5575 46.232 74.4815 45.804 74.4815 45.292V42.076C74.4815 41.908 74.5215 41.784 74.6015 41.704C74.6895 41.624 74.8095 41.584 74.9615 41.584C75.1215 41.584 75.2415 41.624 75.3215 41.704C75.4095 41.784 75.4535 41.908 75.4535 42.076V45.28C75.4535 45.792 75.5575 46.176 75.7655 46.432C75.9815 46.68 76.3175 46.804 76.7735 46.804C77.2695 46.804 77.6735 46.636 77.9855 46.3C78.2975 45.964 78.4535 45.524 78.4535 44.98V42.076C78.4535 41.908 78.4935 41.784 78.5735 41.704C78.6615 41.624 78.7855 41.584 78.9455 41.584C79.0975 41.584 79.2135 41.624 79.2935 41.704C79.3815 41.784 79.4255 41.908 79.4255 42.076V47.08C79.4255 47.416 79.2695 47.584 78.9575 47.584C78.8055 47.584 78.6855 47.54 78.5975 47.452C78.5175 47.364 78.4775 47.24 78.4775 47.08V45.988L78.6335 46.156C78.4735 46.628 78.2095 46.988 77.8415 47.236C77.4815 47.484 77.0615 47.608 76.5815 47.608ZM83.212 47.608C82.852 47.608 82.488 47.564 82.12 47.476C81.76 47.388 81.424 47.236 81.112 47.02C81.032 46.964 80.976 46.9 80.944 46.828C80.912 46.748 80.9 46.672 80.908 46.6C80.924 46.52 80.956 46.452 81.004 46.396C81.06 46.34 81.124 46.308 81.196 46.3C81.276 46.284 81.364 46.3 81.46 46.348C81.772 46.54 82.072 46.676 82.36 46.756C82.656 46.828 82.948 46.864 83.236 46.864C83.692 46.864 84.036 46.78 84.268 46.612C84.5 46.444 84.616 46.216 84.616 45.928C84.616 45.704 84.54 45.528 84.388 45.4C84.236 45.264 83.996 45.16 83.668 45.088L82.576 44.848C82.072 44.744 81.696 44.564 81.448 44.308C81.208 44.052 81.088 43.72 81.088 43.312C81.088 42.952 81.18 42.644 81.364 42.388C81.556 42.124 81.824 41.92 82.168 41.776C82.512 41.632 82.912 41.56 83.368 41.56C83.72 41.56 84.052 41.608 84.364 41.704C84.684 41.792 84.972 41.936 85.228 42.136C85.308 42.192 85.36 42.26 85.384 42.34C85.416 42.412 85.42 42.488 85.396 42.568C85.38 42.64 85.344 42.704 85.288 42.76C85.232 42.808 85.164 42.836 85.084 42.844C85.004 42.852 84.92 42.828 84.832 42.772C84.592 42.612 84.348 42.496 84.1 42.424C83.852 42.344 83.608 42.304 83.368 42.304C82.92 42.304 82.58 42.392 82.348 42.568C82.116 42.744 82 42.976 82 43.264C82 43.488 82.072 43.672 82.216 43.816C82.36 43.96 82.584 44.064 82.888 44.128L83.98 44.356C84.5 44.468 84.888 44.648 85.144 44.896C85.408 45.136 85.54 45.464 85.54 45.88C85.54 46.408 85.328 46.828 84.904 47.14C84.48 47.452 83.916 47.608 83.212 47.608Z" fill="#929BAA"/>
</g>
<path d="M8.804 12.108C8.436 12.108 8.076 12.08 7.724 12.024C7.372 11.968 7.04 11.884 6.728 11.772C6.416 11.652 6.136 11.508 5.888 11.34C5.768 11.252 5.684 11.152 5.636 11.04C5.596 10.928 5.584 10.82 5.6 10.716C5.624 10.604 5.672 10.508 5.744 10.428C5.816 10.348 5.904 10.3 6.008 10.284C6.112 10.26 6.228 10.292 6.356 10.38C6.716 10.612 7.096 10.784 7.496 10.896C7.896 11 8.332 11.052 8.804 11.052C9.484 11.052 9.984 10.932 10.304 10.692C10.632 10.444 10.796 10.124 10.796 9.732C10.796 9.412 10.68 9.16 10.448 8.976C10.216 8.784 9.828 8.632 9.284 8.52L8 8.256C7.24 8.096 6.672 7.832 6.296 7.464C5.928 7.096 5.744 6.6 5.744 5.976C5.744 5.6 5.82 5.256 5.972 4.944C6.132 4.632 6.352 4.364 6.632 4.14C6.912 3.908 7.248 3.732 7.64 3.612C8.032 3.492 8.46 3.432 8.924 3.432C9.42 3.432 9.884 3.496 10.316 3.624C10.756 3.752 11.148 3.948 11.492 4.212C11.596 4.284 11.664 4.376 11.696 4.488C11.736 4.592 11.744 4.696 11.72 4.8C11.704 4.904 11.66 4.992 11.588 5.064C11.516 5.136 11.424 5.18 11.312 5.196C11.2 5.204 11.076 5.164 10.94 5.076C10.628 4.868 10.308 4.72 9.98 4.632C9.66 4.536 9.304 4.488 8.912 4.488C8.52 4.488 8.176 4.548 7.88 4.668C7.592 4.788 7.368 4.956 7.208 5.172C7.056 5.388 6.98 5.644 6.98 5.94C6.98 6.276 7.088 6.544 7.304 6.744C7.52 6.944 7.88 7.096 8.384 7.2L9.656 7.464C10.456 7.632 11.052 7.892 11.444 8.244C11.836 8.596 12.032 9.064 12.032 9.648C12.032 10.024 11.956 10.364 11.804 10.668C11.652 10.964 11.436 11.22 11.156 11.436C10.876 11.652 10.536 11.82 10.136 11.94C9.744 12.052 9.3 12.108 8.804 12.108ZM15.7777 12.108C15.2977 12.108 14.8937 12.024 14.5657 11.856C14.2377 11.688 13.9937 11.44 13.8337 11.112C13.6737 10.784 13.5937 10.384 13.5937 9.912V7.08H12.8737C12.7137 7.08 12.5897 7.04 12.5017 6.96C12.4137 6.872 12.3697 6.756 12.3697 6.612C12.3697 6.46 12.4137 6.344 12.5017 6.264C12.5897 6.184 12.7137 6.144 12.8737 6.144H13.5937V4.908C13.5937 4.708 13.6457 4.556 13.7497 4.452C13.8617 4.348 14.0137 4.296 14.2057 4.296C14.3977 4.296 14.5457 4.348 14.6497 4.452C14.7537 4.556 14.8057 4.708 14.8057 4.908V6.144H16.2097C16.3697 6.144 16.4937 6.184 16.5817 6.264C16.6697 6.344 16.7137 6.46 16.7137 6.612C16.7137 6.756 16.6697 6.872 16.5817 6.96C16.4937 7.04 16.3697 7.08 16.2097 7.08H14.8057V9.816C14.8057 10.24 14.8937 10.56 15.0697 10.776C15.2537 10.992 15.5497 11.1 15.9577 11.1C16.1017 11.1 16.2257 11.088 16.3297 11.064C16.4417 11.032 16.5337 11.012 16.6057 11.004C16.6937 11.004 16.7657 11.036 16.8217 11.1C16.8777 11.156 16.9057 11.268 16.9057 11.436C16.9057 11.556 16.8817 11.668 16.8337 11.772C16.7937 11.876 16.7177 11.944 16.6057 11.976C16.5097 12.008 16.3777 12.036 16.2097 12.06C16.0497 12.092 15.9057 12.108 15.7777 12.108ZM19.5365 12.108C19.1285 12.108 18.7605 12.028 18.4325 11.868C18.1125 11.708 17.8605 11.492 17.6765 11.22C17.4925 10.948 17.4005 10.64 17.4005 10.296C17.4005 9.864 17.5085 9.524 17.7245 9.276C17.9485 9.02 18.3125 8.84 18.8165 8.736C19.3285 8.624 20.0165 8.568 20.8805 8.568H21.4445V9.312H20.8925C20.3165 9.312 19.8605 9.34 19.5245 9.396C19.1885 9.452 18.9485 9.548 18.8045 9.684C18.6685 9.812 18.6005 9.992 18.6005 10.224C18.6005 10.528 18.7045 10.776 18.9125 10.968C19.1205 11.152 19.4085 11.244 19.7765 11.244C20.0725 11.244 20.3325 11.176 20.5565 11.04C20.7805 10.896 20.9565 10.704 21.0845 10.464C21.2205 10.224 21.2885 9.948 21.2885 9.636V8.256C21.2885 7.8 21.1925 7.472 21.0005 7.272C20.8085 7.072 20.4925 6.972 20.0525 6.972C19.7965 6.972 19.5285 7.004 19.2485 7.068C18.9765 7.132 18.6925 7.24 18.3965 7.392C18.2605 7.456 18.1445 7.476 18.0485 7.452C17.9525 7.428 17.8765 7.376 17.8205 7.296C17.7645 7.208 17.7325 7.116 17.7245 7.02C17.7245 6.916 17.7485 6.816 17.7965 6.72C17.8525 6.624 17.9445 6.552 18.0725 6.504C18.4245 6.336 18.7725 6.216 19.1165 6.144C19.4605 6.072 19.7845 6.036 20.0885 6.036C20.6245 6.036 21.0645 6.12 21.4085 6.288C21.7605 6.456 22.0205 6.712 22.1885 7.056C22.3565 7.4 22.4405 7.844 22.4405 8.388V11.472C22.4405 11.664 22.3925 11.816 22.2965 11.928C22.2005 12.032 22.0605 12.084 21.8765 12.084C21.7005 12.084 21.5605 12.032 21.4565 11.928C21.3525 11.816 21.3005 11.664 21.3005 11.472V10.692H21.4085C21.3445 10.988 21.2245 11.244 21.0485 11.46C20.8805 11.668 20.6685 11.828 20.4125 11.94C20.1565 12.052 19.8645 12.108 19.5365 12.108ZM26.6058 12.108C26.1258 12.108 25.7218 12.024 25.3938 11.856C25.0658 11.688 24.8218 11.44 24.6618 11.112C24.5018 10.784 24.4218 10.384 24.4218 9.912V7.08H23.7018C23.5418 7.08 23.4178 7.04 23.3298 6.96C23.2418 6.872 23.1978 6.756 23.1978 6.612C23.1978 6.46 23.2418 6.344 23.3298 6.264C23.4178 6.184 23.5418 6.144 23.7018 6.144H24.4218V4.908C24.4218 4.708 24.4738 4.556 24.5778 4.452C24.6898 4.348 24.8418 4.296 25.0338 4.296C25.2258 4.296 25.3738 4.348 25.4778 4.452C25.5818 4.556 25.6338 4.708 25.6338 4.908V6.144H27.0378C27.1978 6.144 27.3218 6.184 27.4098 6.264C27.4978 6.344 27.5418 6.46 27.5418 6.612C27.5418 6.756 27.4978 6.872 27.4098 6.96C27.3218 7.04 27.1978 7.08 27.0378 7.08H25.6338V9.816C25.6338 10.24 25.7218 10.56 25.8978 10.776C26.0818 10.992 26.3778 11.1 26.7858 11.1C26.9298 11.1 27.0538 11.088 27.1578 11.064C27.2698 11.032 27.3618 11.012 27.4338 11.004C27.5218 11.004 27.5938 11.036 27.6498 11.1C27.7058 11.156 27.7338 11.268 27.7338 11.436C27.7338 11.556 27.7098 11.668 27.6618 11.772C27.6218 11.876 27.5458 11.944 27.4338 11.976C27.3378 12.008 27.2058 12.036 27.0378 12.06C26.8778 12.092 26.7338 12.108 26.6058 12.108ZM30.5806 12.108C30.1086 12.108 29.7126 12.02 29.3926 11.844C29.0806 11.668 28.8446 11.408 28.6846 11.064C28.5326 10.712 28.4566 10.272 28.4566 9.744V6.672C28.4566 6.464 28.5086 6.312 28.6126 6.216C28.7166 6.112 28.8646 6.06 29.0566 6.06C29.2486 6.06 29.3966 6.112 29.5006 6.216C29.6126 6.312 29.6686 6.464 29.6686 6.672V9.756C29.6686 10.228 29.7646 10.576 29.9566 10.8C30.1486 11.024 30.4526 11.136 30.8686 11.136C31.3246 11.136 31.6926 10.984 31.9726 10.68C32.2606 10.368 32.4046 9.96 32.4046 9.456V6.672C32.4046 6.464 32.4566 6.312 32.5606 6.216C32.6646 6.112 32.8166 6.06 33.0166 6.06C33.2086 6.06 33.3566 6.112 33.4606 6.216C33.5646 6.312 33.6166 6.464 33.6166 6.672V11.472C33.6166 11.88 33.4206 12.084 33.0286 12.084C32.8446 12.084 32.7006 12.032 32.5966 11.928C32.4926 11.816 32.4406 11.664 32.4406 11.472V10.452L32.5966 10.716C32.4366 11.164 32.1806 11.508 31.8286 11.748C31.4766 11.988 31.0606 12.108 30.5806 12.108ZM37.3767 12.108C37.0247 12.108 36.6607 12.068 36.2847 11.988C35.9167 11.908 35.5767 11.772 35.2647 11.58C35.1607 11.508 35.0887 11.428 35.0487 11.34C35.0087 11.252 34.9927 11.164 35.0007 11.076C35.0167 10.98 35.0527 10.9 35.1087 10.836C35.1727 10.764 35.2487 10.72 35.3367 10.704C35.4327 10.688 35.5327 10.708 35.6367 10.764C35.9487 10.94 36.2487 11.064 36.5367 11.136C36.8247 11.2 37.1087 11.232 37.3887 11.232C37.8127 11.232 38.1327 11.156 38.3487 11.004C38.5647 10.852 38.6727 10.648 38.6727 10.392C38.6727 10.184 38.6007 10.024 38.4567 9.912C38.3127 9.792 38.0967 9.7 37.8087 9.636L36.6687 9.408C36.1727 9.304 35.7967 9.12 35.5407 8.856C35.2847 8.592 35.1567 8.256 35.1567 7.848C35.1567 7.48 35.2567 7.16 35.4567 6.888C35.6567 6.616 35.9367 6.408 36.2967 6.264C36.6567 6.112 37.0727 6.036 37.5447 6.036C37.8967 6.036 38.2287 6.08 38.5407 6.168C38.8527 6.256 39.1407 6.388 39.4047 6.564C39.5087 6.62 39.5767 6.696 39.6087 6.792C39.6407 6.88 39.6447 6.968 39.6207 7.056C39.6047 7.144 39.5647 7.224 39.5007 7.296C39.4367 7.36 39.3567 7.4 39.2607 7.416C39.1727 7.424 39.0727 7.4 38.9607 7.344C38.7207 7.192 38.4807 7.084 38.2407 7.02C38.0087 6.956 37.7767 6.924 37.5447 6.924C37.1207 6.924 36.8007 7.004 36.5847 7.164C36.3767 7.316 36.2727 7.524 36.2727 7.788C36.2727 7.988 36.3367 8.152 36.4647 8.28C36.5927 8.408 36.7927 8.5 37.0647 8.556L38.2047 8.784C38.7247 8.888 39.1167 9.064 39.3807 9.312C39.6527 9.56 39.7887 9.896 39.7887 10.32C39.7887 10.872 39.5687 11.308 39.1287 11.628C38.6887 11.948 38.1047 12.108 37.3767 12.108Z" fill="#64728C"/>
<rect x="5" y="72" width="95.3333" height="24" rx="12" fill="#64728C" fill-opacity="0.1"/>
<path d="M16.608 88.084C16.408 88.084 16.252 88.028 16.14 87.916C16.036 87.804 15.984 87.648 15.984 87.448V80.092C15.984 79.884 16.036 79.728 16.14 79.624C16.252 79.512 16.408 79.456 16.608 79.456C16.808 79.456 16.96 79.512 17.064 79.624C17.176 79.728 17.232 79.884 17.232 80.092V87.448C17.232 87.648 17.18 87.804 17.076 87.916C16.972 88.028 16.816 88.084 16.608 88.084ZM19.6629 88.084C19.4709 88.084 19.3229 88.032 19.2189 87.928C19.1149 87.816 19.0629 87.664 19.0629 87.472V82.672C19.0629 82.472 19.1149 82.32 19.2189 82.216C19.3229 82.112 19.4669 82.06 19.6509 82.06C19.8429 82.06 19.9869 82.112 20.0829 82.216C20.1869 82.32 20.2389 82.472 20.2389 82.672V83.608L20.1069 83.392C20.2829 82.944 20.5589 82.608 20.9349 82.384C21.3109 82.152 21.7429 82.036 22.2309 82.036C22.6949 82.036 23.0789 82.124 23.3829 82.3C23.6949 82.468 23.9269 82.728 24.0789 83.08C24.2309 83.424 24.3069 83.86 24.3069 84.388V87.472C24.3069 87.664 24.2549 87.816 24.1509 87.928C24.0469 88.032 23.8989 88.084 23.7069 88.084C23.5069 88.084 23.3549 88.032 23.2509 87.928C23.1469 87.816 23.0949 87.664 23.0949 87.472V84.46C23.0949 83.956 22.9949 83.588 22.7949 83.356C22.6029 83.124 22.2989 83.008 21.8829 83.008C21.3949 83.008 21.0029 83.16 20.7069 83.464C20.4189 83.768 20.2749 84.176 20.2749 84.688V87.472C20.2749 87.88 20.0709 88.084 19.6629 88.084ZM29.8971 88.084C29.6971 88.084 29.5411 88.028 29.4291 87.916C29.3251 87.804 29.2731 87.648 29.2731 87.448V80.176C29.2731 79.968 29.3291 79.812 29.4411 79.708C29.5531 79.596 29.7091 79.54 29.9091 79.54H32.7771C33.6891 79.54 34.3931 79.768 34.8891 80.224C35.3851 80.672 35.6331 81.304 35.6331 82.12C35.6331 82.944 35.3851 83.584 34.8891 84.04C34.3931 84.488 33.6891 84.712 32.7771 84.712H30.5211V87.448C30.5211 87.648 30.4691 87.804 30.3651 87.916C30.2611 88.028 30.1051 88.084 29.8971 88.084ZM30.5211 83.716H32.5971C33.1971 83.716 33.6491 83.584 33.9531 83.32C34.2651 83.048 34.4211 82.648 34.4211 82.12C34.4211 81.6 34.2651 81.208 33.9531 80.944C33.6491 80.672 33.1971 80.536 32.5971 80.536H30.5211V83.716ZM37.3351 88.084C37.1351 88.084 36.9831 88.032 36.8791 87.928C36.7751 87.816 36.7231 87.664 36.7231 87.472V82.672C36.7231 82.472 36.7751 82.32 36.8791 82.216C36.9831 82.112 37.1271 82.06 37.3111 82.06C37.5031 82.06 37.6471 82.112 37.7431 82.216C37.8471 82.32 37.8991 82.472 37.8991 82.672V83.548H37.7791C37.9071 83.068 38.1431 82.704 38.4871 82.456C38.8311 82.208 39.2711 82.064 39.8071 82.024C39.9511 82.016 40.0631 82.052 40.1431 82.132C40.2311 82.212 40.2791 82.336 40.2871 82.504C40.3031 82.672 40.2671 82.808 40.1791 82.912C40.0911 83.008 39.9551 83.064 39.7711 83.08L39.5431 83.104C39.0231 83.152 38.6271 83.316 38.3551 83.596C38.0831 83.876 37.9471 84.26 37.9471 84.748V87.472C37.9471 87.664 37.8951 87.816 37.7911 87.928C37.6951 88.032 37.5431 88.084 37.3351 88.084ZM43.6616 88.108C43.0696 88.108 42.5576 87.984 42.1256 87.736C41.7016 87.488 41.3696 87.136 41.1296 86.68C40.8896 86.224 40.7696 85.688 40.7696 85.072C40.7696 84.6 40.8376 84.18 40.9736 83.812C41.1096 83.444 41.3016 83.128 41.5496 82.864C41.8056 82.592 42.1096 82.388 42.4616 82.252C42.8216 82.108 43.2216 82.036 43.6616 82.036C44.2456 82.036 44.7496 82.16 45.1736 82.408C45.6056 82.656 45.9416 83.008 46.1816 83.464C46.4216 83.912 46.5416 84.448 46.5416 85.072C46.5416 85.536 46.4736 85.956 46.3376 86.332C46.2016 86.708 46.0056 87.028 45.7496 87.292C45.5016 87.556 45.1976 87.76 44.8376 87.904C44.4856 88.04 44.0936 88.108 43.6616 88.108ZM43.6616 87.172C43.9896 87.172 44.2776 87.092 44.5256 86.932C44.7736 86.772 44.9656 86.536 45.1016 86.224C45.2456 85.912 45.3176 85.528 45.3176 85.072C45.3176 84.384 45.1656 83.864 44.8616 83.512C44.5576 83.16 44.1576 82.984 43.6616 82.984C43.3256 82.984 43.0336 83.064 42.7856 83.224C42.5376 83.376 42.3416 83.608 42.1976 83.92C42.0616 84.232 41.9936 84.616 41.9936 85.072C41.9936 85.752 42.1456 86.272 42.4496 86.632C42.7536 86.992 43.1576 87.172 43.6616 87.172ZM50.5548 90.268C50.1228 90.268 49.7028 90.224 49.2948 90.136C48.8948 90.048 48.5308 89.904 48.2028 89.704C48.0828 89.64 48.0028 89.56 47.9628 89.464C47.9228 89.376 47.9108 89.284 47.9268 89.188C47.9508 89.092 47.9948 89.008 48.0588 88.936C48.1228 88.864 48.1988 88.816 48.2868 88.792C48.3828 88.768 48.4828 88.784 48.5868 88.84C48.9388 89.032 49.2708 89.16 49.5828 89.224C49.9028 89.296 50.1988 89.332 50.4708 89.332C51.0308 89.332 51.4508 89.188 51.7308 88.9C52.0108 88.62 52.1508 88.204 52.1508 87.652V86.428H52.2588C52.1388 86.868 51.8868 87.216 51.5028 87.472C51.1188 87.728 50.6748 87.856 50.1708 87.856C49.6428 87.856 49.1828 87.736 48.7908 87.496C48.3988 87.248 48.0948 86.908 47.8788 86.476C47.6628 86.036 47.5548 85.524 47.5548 84.94C47.5548 84.5 47.6148 84.104 47.7348 83.752C47.8628 83.4 48.0388 83.096 48.2628 82.84C48.4948 82.584 48.7708 82.388 49.0908 82.252C49.4188 82.108 49.7788 82.036 50.1708 82.036C50.6828 82.036 51.1268 82.164 51.5028 82.42C51.8868 82.676 52.1348 83.024 52.2468 83.464L52.1268 83.668V82.672C52.1268 82.472 52.1788 82.32 52.2828 82.216C52.3948 82.112 52.5428 82.06 52.7268 82.06C52.9188 82.06 53.0668 82.112 53.1708 82.216C53.2748 82.32 53.3268 82.472 53.3268 82.672V87.508C53.3268 88.42 53.0908 89.108 52.6188 89.572C52.1468 90.036 51.4588 90.268 50.5548 90.268ZM50.4588 86.908C50.8108 86.908 51.1108 86.828 51.3588 86.668C51.6068 86.508 51.7988 86.28 51.9348 85.984C52.0708 85.688 52.1388 85.34 52.1388 84.94C52.1388 84.34 51.9868 83.864 51.6828 83.512C51.3868 83.16 50.9788 82.984 50.4588 82.984C50.1148 82.984 49.8188 83.064 49.5708 83.224C49.3228 83.384 49.1268 83.612 48.9828 83.908C48.8468 84.196 48.7788 84.54 48.7788 84.94C48.7788 85.548 48.9308 86.028 49.2348 86.38C49.5388 86.732 49.9468 86.908 50.4588 86.908ZM55.6398 88.084C55.4398 88.084 55.2878 88.032 55.1838 87.928C55.0798 87.816 55.0278 87.664 55.0278 87.472V82.672C55.0278 82.472 55.0798 82.32 55.1838 82.216C55.2878 82.112 55.4318 82.06 55.6158 82.06C55.8078 82.06 55.9518 82.112 56.0478 82.216C56.1518 82.32 56.2038 82.472 56.2038 82.672V83.548H56.0838C56.2118 83.068 56.4478 82.704 56.7918 82.456C57.1358 82.208 57.5758 82.064 58.1118 82.024C58.2558 82.016 58.3678 82.052 58.4478 82.132C58.5358 82.212 58.5838 82.336 58.5918 82.504C58.6078 82.672 58.5718 82.808 58.4838 82.912C58.3958 83.008 58.2598 83.064 58.0758 83.08L57.8478 83.104C57.3278 83.152 56.9318 83.316 56.6598 83.596C56.3878 83.876 56.2518 84.26 56.2518 84.748V87.472C56.2518 87.664 56.1998 87.816 56.0958 87.928C55.9998 88.032 55.8478 88.084 55.6398 88.084ZM62.1703 88.108C61.5303 88.108 60.9783 87.988 60.5143 87.748C60.0583 87.5 59.7023 87.152 59.4463 86.704C59.1983 86.248 59.0743 85.708 59.0743 85.084C59.0743 84.476 59.1983 83.944 59.4463 83.488C59.6943 83.032 60.0343 82.676 60.4663 82.42C60.8983 82.164 61.3903 82.036 61.9423 82.036C62.3503 82.036 62.7143 82.104 63.0343 82.24C63.3543 82.368 63.6263 82.56 63.8503 82.816C64.0823 83.064 64.2543 83.368 64.3663 83.728C64.4863 84.088 64.5463 84.492 64.5463 84.94C64.5463 85.076 64.5063 85.18 64.4263 85.252C64.3463 85.316 64.2263 85.348 64.0663 85.348H60.0343V84.604H63.7303L63.5263 84.772C63.5263 84.372 63.4663 84.032 63.3463 83.752C63.2343 83.472 63.0623 83.26 62.8303 83.116C62.6063 82.964 62.3263 82.888 61.9903 82.888C61.6143 82.888 61.2943 82.976 61.0303 83.152C60.7743 83.328 60.5783 83.572 60.4423 83.884C60.3063 84.196 60.2383 84.56 60.2383 84.976V85.048C60.2383 85.752 60.4023 86.284 60.7303 86.644C61.0663 86.996 61.5503 87.172 62.1823 87.172C62.4223 87.172 62.6743 87.14 62.9383 87.076C63.2103 87.012 63.4663 86.904 63.7063 86.752C63.8423 86.672 63.9623 86.636 64.0663 86.644C64.1783 86.652 64.2663 86.688 64.3303 86.752C64.4023 86.816 64.4463 86.896 64.4623 86.992C64.4783 87.088 64.4623 87.188 64.4143 87.292C64.3663 87.388 64.2823 87.476 64.1623 87.556C63.8903 87.74 63.5743 87.88 63.2143 87.976C62.8543 88.064 62.5063 88.108 62.1703 88.108ZM67.9196 88.108C67.5676 88.108 67.2036 88.068 66.8276 87.988C66.4596 87.908 66.1196 87.772 65.8076 87.58C65.7036 87.508 65.6316 87.428 65.5916 87.34C65.5516 87.252 65.5356 87.164 65.5436 87.076C65.5596 86.98 65.5956 86.9 65.6516 86.836C65.7156 86.764 65.7916 86.72 65.8796 86.704C65.9756 86.688 66.0756 86.708 66.1796 86.764C66.4916 86.94 66.7916 87.064 67.0796 87.136C67.3676 87.2 67.6516 87.232 67.9316 87.232C68.3556 87.232 68.6756 87.156 68.8916 87.004C69.1076 86.852 69.2156 86.648 69.2156 86.392C69.2156 86.184 69.1436 86.024 68.9996 85.912C68.8556 85.792 68.6396 85.7 68.3516 85.636L67.2116 85.408C66.7156 85.304 66.3396 85.12 66.0836 84.856C65.8276 84.592 65.6996 84.256 65.6996 83.848C65.6996 83.48 65.7996 83.16 65.9996 82.888C66.1996 82.616 66.4796 82.408 66.8396 82.264C67.1996 82.112 67.6156 82.036 68.0876 82.036C68.4396 82.036 68.7716 82.08 69.0836 82.168C69.3956 82.256 69.6836 82.388 69.9476 82.564C70.0516 82.62 70.1196 82.696 70.1516 82.792C70.1836 82.88 70.1876 82.968 70.1636 83.056C70.1476 83.144 70.1076 83.224 70.0436 83.296C69.9796 83.36 69.8996 83.4 69.8036 83.416C69.7156 83.424 69.6156 83.4 69.5036 83.344C69.2636 83.192 69.0236 83.084 68.7836 83.02C68.5516 82.956 68.3196 82.924 68.0876 82.924C67.6636 82.924 67.3436 83.004 67.1276 83.164C66.9196 83.316 66.8156 83.524 66.8156 83.788C66.8156 83.988 66.8796 84.152 67.0076 84.28C67.1356 84.408 67.3356 84.5 67.6076 84.556L68.7476 84.784C69.2676 84.888 69.6596 85.064 69.9236 85.312C70.1956 85.56 70.3316 85.896 70.3316 86.32C70.3316 86.872 70.1116 87.308 69.6716 87.628C69.2316 87.948 68.6476 88.108 67.9196 88.108ZM73.7321 88.108C73.3801 88.108 73.0161 88.068 72.6401 87.988C72.2721 87.908 71.9321 87.772 71.6201 87.58C71.5161 87.508 71.4441 87.428 71.4041 87.34C71.3641 87.252 71.3481 87.164 71.3561 87.076C71.3721 86.98 71.4081 86.9 71.4641 86.836C71.5281 86.764 71.6041 86.72 71.6921 86.704C71.7881 86.688 71.8881 86.708 71.9921 86.764C72.3041 86.94 72.6041 87.064 72.8921 87.136C73.1801 87.2 73.4641 87.232 73.7441 87.232C74.1681 87.232 74.4881 87.156 74.7041 87.004C74.9201 86.852 75.0281 86.648 75.0281 86.392C75.0281 86.184 74.9561 86.024 74.8121 85.912C74.6681 85.792 74.4521 85.7 74.1641 85.636L73.0241 85.408C72.5281 85.304 72.1521 85.12 71.8961 84.856C71.6401 84.592 71.5121 84.256 71.5121 83.848C71.5121 83.48 71.6121 83.16 71.8121 82.888C72.0121 82.616 72.2921 82.408 72.6521 82.264C73.0121 82.112 73.4281 82.036 73.9001 82.036C74.2521 82.036 74.5841 82.08 74.8961 82.168C75.2081 82.256 75.4961 82.388 75.7601 82.564C75.8641 82.62 75.9321 82.696 75.9641 82.792C75.9961 82.88 76.0001 82.968 75.9761 83.056C75.9601 83.144 75.9201 83.224 75.8561 83.296C75.7921 83.36 75.7121 83.4 75.6161 83.416C75.5281 83.424 75.4281 83.4 75.3161 83.344C75.0761 83.192 74.8361 83.084 74.5961 83.02C74.3641 82.956 74.1321 82.924 73.9001 82.924C73.4761 82.924 73.1561 83.004 72.9401 83.164C72.7321 83.316 72.6281 83.524 72.6281 83.788C72.6281 83.988 72.6921 84.152 72.8201 84.28C72.9481 84.408 73.1481 84.5 73.4201 84.556L74.5601 84.784C75.0801 84.888 75.4721 85.064 75.7361 85.312C76.0081 85.56 76.1441 85.896 76.1441 86.32C76.1441 86.872 75.9241 87.308 75.4841 87.628C75.0441 87.948 74.4601 88.108 73.7321 88.108Z" fill="#64728C"/>
<path d="M88.6667 77.3333C84.9907 77.3333 82 80.324 82 84C82 87.676 84.9907 90.6667 88.6667 90.6667C92.3426 90.6667 95.3333 87.676 95.3333 84C95.3333 80.324 92.3426 77.3333 88.6667 77.3333ZM91.0804 85.6888C91.1301 85.7359 91.1698 85.7925 91.1972 85.8553C91.2246 85.918 91.2391 85.9856 91.24 86.054C91.2409 86.1225 91.2281 86.1904 91.2023 86.2538C91.1765 86.3172 91.1383 86.3748 91.0899 86.4232C91.0414 86.4716 90.9838 86.5098 90.9204 86.5356C90.857 86.5614 90.7891 86.5742 90.7207 86.5734C90.6522 86.5725 90.5846 86.5579 90.5219 86.5305C90.4592 86.5031 90.4026 86.4634 90.3554 86.4138L88.6667 84.7253L86.9779 86.4138C86.8809 86.5059 86.7518 86.5565 86.6181 86.5548C86.4844 86.5531 86.3566 86.4992 86.262 86.4046C86.1675 86.3101 86.1136 86.1823 86.1119 86.0486C86.1102 85.9148 86.1608 85.7857 86.2529 85.6888L87.9413 84L86.2529 82.3112C86.1608 82.2143 86.1102 82.0852 86.1119 81.9514C86.1136 81.8177 86.1675 81.69 86.262 81.5954C86.3566 81.5008 86.4844 81.4469 86.6181 81.4452C86.7518 81.4435 86.8809 81.4941 86.9779 81.5862L88.6667 83.2747L90.3554 81.5862C90.4524 81.4941 90.5815 81.4435 90.7152 81.4452C90.849 81.4469 90.9767 81.5008 91.0713 81.5954C91.1658 81.69 91.2197 81.8177 91.2214 81.9514C91.2232 82.0852 91.1726 82.2143 91.0804 82.3112L89.392 84L91.0804 85.6888Z" fill="#64728C"/>
<rect x="106" y="72" width="93.3333" height="24" rx="12" fill="#EB0910" fill-opacity="0.12"/>
<path d="M120.776 88.108C119.92 88.108 119.188 87.932 118.58 87.58C117.972 87.228 117.504 86.728 117.176 86.08C116.856 85.424 116.696 84.652 116.696 83.764C116.696 83.1 116.788 82.504 116.972 81.976C117.156 81.44 117.42 80.984 117.764 80.608C118.116 80.224 118.544 79.932 119.048 79.732C119.56 79.532 120.136 79.432 120.776 79.432C121.248 79.432 121.7 79.496 122.132 79.624C122.572 79.752 122.952 79.936 123.272 80.176C123.408 80.264 123.496 80.372 123.536 80.5C123.584 80.62 123.592 80.736 123.56 80.848C123.536 80.96 123.484 81.056 123.404 81.136C123.324 81.208 123.22 81.248 123.092 81.256C122.972 81.264 122.84 81.22 122.696 81.124C122.432 80.924 122.14 80.776 121.82 80.68C121.5 80.584 121.164 80.536 120.812 80.536C120.204 80.536 119.692 80.664 119.276 80.92C118.86 81.168 118.544 81.532 118.328 82.012C118.112 82.492 118.004 83.076 118.004 83.764C118.004 84.452 118.112 85.04 118.328 85.528C118.544 86.008 118.86 86.376 119.276 86.632C119.692 86.88 120.204 87.004 120.812 87.004C121.164 87.004 121.5 86.956 121.82 86.86C122.148 86.756 122.456 86.604 122.744 86.404C122.888 86.316 123.016 86.276 123.128 86.284C123.248 86.292 123.348 86.332 123.428 86.404C123.508 86.476 123.56 86.568 123.584 86.68C123.616 86.784 123.612 86.896 123.572 87.016C123.54 87.128 123.464 87.224 123.344 87.304C123.016 87.568 122.628 87.768 122.18 87.904C121.732 88.04 121.264 88.108 120.776 88.108ZM127.084 88.108C126.492 88.108 125.98 87.984 125.548 87.736C125.124 87.488 124.792 87.136 124.552 86.68C124.312 86.224 124.192 85.688 124.192 85.072C124.192 84.6 124.26 84.18 124.396 83.812C124.532 83.444 124.724 83.128 124.972 82.864C125.228 82.592 125.532 82.388 125.884 82.252C126.244 82.108 126.644 82.036 127.084 82.036C127.668 82.036 128.172 82.16 128.596 82.408C129.028 82.656 129.364 83.008 129.604 83.464C129.844 83.912 129.964 84.448 129.964 85.072C129.964 85.536 129.896 85.956 129.76 86.332C129.624 86.708 129.428 87.028 129.172 87.292C128.924 87.556 128.62 87.76 128.26 87.904C127.908 88.04 127.516 88.108 127.084 88.108ZM127.084 87.172C127.412 87.172 127.7 87.092 127.948 86.932C128.196 86.772 128.388 86.536 128.524 86.224C128.668 85.912 128.74 85.528 128.74 85.072C128.74 84.384 128.588 83.864 128.284 83.512C127.98 83.16 127.58 82.984 127.084 82.984C126.748 82.984 126.456 83.064 126.208 83.224C125.96 83.376 125.764 83.608 125.62 83.92C125.484 84.232 125.416 84.616 125.416 85.072C125.416 85.752 125.568 86.272 125.872 86.632C126.176 86.992 126.58 87.172 127.084 87.172ZM131.949 88.084C131.757 88.084 131.609 88.032 131.505 87.928C131.401 87.816 131.349 87.664 131.349 87.472V82.672C131.349 82.472 131.401 82.32 131.505 82.216C131.609 82.112 131.753 82.06 131.937 82.06C132.129 82.06 132.273 82.112 132.369 82.216C132.473 82.32 132.525 82.472 132.525 82.672V83.656L132.393 83.392C132.553 82.968 132.801 82.636 133.137 82.396C133.473 82.156 133.877 82.036 134.349 82.036C134.837 82.036 135.233 82.152 135.537 82.384C135.841 82.616 136.049 82.972 136.161 83.452H135.993C136.145 83.012 136.405 82.668 136.773 82.42C137.141 82.164 137.569 82.036 138.057 82.036C138.505 82.036 138.873 82.124 139.161 82.3C139.449 82.468 139.665 82.728 139.809 83.08C139.953 83.424 140.025 83.86 140.025 84.388V87.472C140.025 87.664 139.969 87.816 139.857 87.928C139.753 88.032 139.605 88.084 139.413 88.084C139.221 88.084 139.073 88.032 138.969 87.928C138.865 87.816 138.813 87.664 138.813 87.472V84.448C138.813 83.952 138.725 83.588 138.549 83.356C138.381 83.124 138.101 83.008 137.709 83.008C137.269 83.008 136.921 83.16 136.665 83.464C136.409 83.768 136.281 84.188 136.281 84.724V87.472C136.281 87.664 136.229 87.816 136.125 87.928C136.021 88.032 135.873 88.084 135.681 88.084C135.489 88.084 135.337 88.032 135.225 87.928C135.121 87.816 135.069 87.664 135.069 87.472V84.448C135.069 83.952 134.985 83.588 134.817 83.356C134.649 83.124 134.369 83.008 133.977 83.008C133.537 83.008 133.189 83.16 132.933 83.464C132.685 83.768 132.561 84.188 132.561 84.724V87.472C132.561 87.88 132.357 88.084 131.949 88.084ZM142.319 90.244C142.127 90.244 141.979 90.192 141.875 90.088C141.771 89.984 141.719 89.832 141.719 89.632V82.672C141.719 82.472 141.771 82.32 141.875 82.216C141.979 82.112 142.123 82.06 142.307 82.06C142.499 82.06 142.647 82.112 142.751 82.216C142.855 82.32 142.907 82.472 142.907 82.672V83.716L142.775 83.464C142.903 83.032 143.155 82.688 143.531 82.432C143.907 82.168 144.351 82.036 144.863 82.036C145.383 82.036 145.835 82.16 146.219 82.408C146.611 82.656 146.911 83.004 147.119 83.452C147.335 83.9 147.443 84.44 147.443 85.072C147.443 85.688 147.335 86.228 147.119 86.692C146.911 87.148 146.615 87.5 146.231 87.748C145.847 87.988 145.391 88.108 144.863 88.108C144.359 88.108 143.919 87.98 143.543 87.724C143.167 87.468 142.915 87.128 142.787 86.704H142.931V89.632C142.931 89.832 142.875 89.984 142.763 90.088C142.659 90.192 142.511 90.244 142.319 90.244ZM144.563 87.172C144.899 87.172 145.191 87.092 145.439 86.932C145.687 86.772 145.879 86.536 146.015 86.224C146.151 85.912 146.219 85.528 146.219 85.072C146.219 84.384 146.067 83.864 145.763 83.512C145.467 83.16 145.067 82.984 144.563 82.984C144.235 82.984 143.943 83.064 143.687 83.224C143.439 83.376 143.247 83.608 143.111 83.92C142.975 84.232 142.907 84.616 142.907 85.072C142.907 85.752 143.059 86.272 143.363 86.632C143.667 86.992 144.067 87.172 144.563 87.172ZM150.693 88.108C150.069 88.108 149.597 87.928 149.277 87.568C148.965 87.2 148.809 86.672 148.809 85.984V80.068C148.809 79.868 148.861 79.716 148.965 79.612C149.069 79.508 149.217 79.456 149.409 79.456C149.601 79.456 149.749 79.508 149.853 79.612C149.965 79.716 150.021 79.868 150.021 80.068V85.912C150.021 86.312 150.101 86.612 150.261 86.812C150.429 87.004 150.669 87.1 150.981 87.1C151.053 87.1 151.117 87.1 151.173 87.1C151.229 87.092 151.285 87.084 151.341 87.076C151.437 87.068 151.505 87.096 151.545 87.16C151.585 87.216 151.605 87.336 151.605 87.52C151.605 87.688 151.569 87.82 151.497 87.916C151.425 88.004 151.309 88.06 151.149 88.084C151.077 88.092 151.001 88.096 150.921 88.096C150.841 88.104 150.765 88.108 150.693 88.108ZM155.166 88.108C154.526 88.108 153.974 87.988 153.51 87.748C153.054 87.5 152.698 87.152 152.442 86.704C152.194 86.248 152.07 85.708 152.07 85.084C152.07 84.476 152.194 83.944 152.442 83.488C152.69 83.032 153.03 82.676 153.462 82.42C153.894 82.164 154.386 82.036 154.938 82.036C155.346 82.036 155.71 82.104 156.03 82.24C156.35 82.368 156.622 82.56 156.846 82.816C157.078 83.064 157.25 83.368 157.362 83.728C157.482 84.088 157.542 84.492 157.542 84.94C157.542 85.076 157.502 85.18 157.422 85.252C157.342 85.316 157.222 85.348 157.062 85.348H153.03V84.604H156.726L156.522 84.772C156.522 84.372 156.462 84.032 156.342 83.752C156.23 83.472 156.058 83.26 155.826 83.116C155.602 82.964 155.322 82.888 154.986 82.888C154.61 82.888 154.29 82.976 154.026 83.152C153.77 83.328 153.574 83.572 153.438 83.884C153.302 84.196 153.234 84.56 153.234 84.976V85.048C153.234 85.752 153.398 86.284 153.726 86.644C154.062 86.996 154.546 87.172 155.178 87.172C155.418 87.172 155.67 87.14 155.934 87.076C156.206 87.012 156.462 86.904 156.702 86.752C156.838 86.672 156.958 86.636 157.062 86.644C157.174 86.652 157.262 86.688 157.326 86.752C157.398 86.816 157.442 86.896 157.458 86.992C157.474 87.088 157.458 87.188 157.41 87.292C157.362 87.388 157.278 87.476 157.158 87.556C156.886 87.74 156.57 87.88 156.21 87.976C155.85 88.064 155.502 88.108 155.166 88.108ZM161.348 88.108C160.868 88.108 160.464 88.024 160.136 87.856C159.808 87.688 159.564 87.44 159.404 87.112C159.244 86.784 159.164 86.384 159.164 85.912V83.08H158.444C158.284 83.08 158.16 83.04 158.072 82.96C157.984 82.872 157.94 82.756 157.94 82.612C157.94 82.46 157.984 82.344 158.072 82.264C158.16 82.184 158.284 82.144 158.444 82.144H159.164V80.908C159.164 80.708 159.216 80.556 159.32 80.452C159.432 80.348 159.584 80.296 159.776 80.296C159.968 80.296 160.116 80.348 160.22 80.452C160.324 80.556 160.376 80.708 160.376 80.908V82.144H161.78C161.94 82.144 162.064 82.184 162.152 82.264C162.24 82.344 162.284 82.46 162.284 82.612C162.284 82.756 162.24 82.872 162.152 82.96C162.064 83.04 161.94 83.08 161.78 83.08H160.376V85.816C160.376 86.24 160.464 86.56 160.64 86.776C160.824 86.992 161.12 87.1 161.528 87.1C161.672 87.1 161.796 87.088 161.9 87.064C162.012 87.032 162.104 87.012 162.176 87.004C162.264 87.004 162.336 87.036 162.392 87.1C162.448 87.156 162.476 87.268 162.476 87.436C162.476 87.556 162.452 87.668 162.404 87.772C162.364 87.876 162.288 87.944 162.176 87.976C162.08 88.008 161.948 88.036 161.78 88.06C161.62 88.092 161.476 88.108 161.348 88.108ZM165.924 88.108C165.284 88.108 164.732 87.988 164.268 87.748C163.812 87.5 163.456 87.152 163.2 86.704C162.952 86.248 162.828 85.708 162.828 85.084C162.828 84.476 162.952 83.944 163.2 83.488C163.448 83.032 163.788 82.676 164.22 82.42C164.652 82.164 165.144 82.036 165.696 82.036C166.104 82.036 166.468 82.104 166.788 82.24C167.108 82.368 167.38 82.56 167.604 82.816C167.836 83.064 168.008 83.368 168.12 83.728C168.24 84.088 168.3 84.492 168.3 84.94C168.3 85.076 168.26 85.18 168.18 85.252C168.1 85.316 167.98 85.348 167.82 85.348H163.788V84.604H167.484L167.28 84.772C167.28 84.372 167.22 84.032 167.1 83.752C166.988 83.472 166.816 83.26 166.584 83.116C166.36 82.964 166.08 82.888 165.744 82.888C165.368 82.888 165.048 82.976 164.784 83.152C164.528 83.328 164.332 83.572 164.196 83.884C164.06 84.196 163.992 84.56 163.992 84.976V85.048C163.992 85.752 164.156 86.284 164.484 86.644C164.82 86.996 165.304 87.172 165.936 87.172C166.176 87.172 166.428 87.14 166.692 87.076C166.964 87.012 167.22 86.904 167.46 86.752C167.596 86.672 167.716 86.636 167.82 86.644C167.932 86.652 168.02 86.688 168.084 86.752C168.156 86.816 168.2 86.896 168.216 86.992C168.232 87.088 168.216 87.188 168.168 87.292C168.12 87.388 168.036 87.476 167.916 87.556C167.644 87.74 167.328 87.88 166.968 87.976C166.608 88.064 166.26 88.108 165.924 88.108ZM171.854 88.108C171.342 88.108 170.89 87.988 170.498 87.748C170.114 87.5 169.814 87.148 169.598 86.692C169.382 86.228 169.274 85.688 169.274 85.072C169.274 84.44 169.382 83.9 169.598 83.452C169.814 83.004 170.114 82.656 170.498 82.408C170.89 82.16 171.342 82.036 171.854 82.036C172.366 82.036 172.806 82.164 173.174 82.42C173.55 82.668 173.802 83.004 173.93 83.428H173.798V80.068C173.798 79.868 173.85 79.716 173.954 79.612C174.058 79.508 174.206 79.456 174.398 79.456C174.59 79.456 174.738 79.508 174.842 79.612C174.954 79.716 175.01 79.868 175.01 80.068V87.472C175.01 87.664 174.958 87.816 174.854 87.928C174.75 88.032 174.602 88.084 174.41 88.084C174.218 88.084 174.07 88.032 173.966 87.928C173.862 87.816 173.81 87.664 173.81 87.472V86.416L173.942 86.68C173.814 87.112 173.562 87.46 173.186 87.724C172.818 87.98 172.374 88.108 171.854 88.108ZM172.166 87.172C172.494 87.172 172.782 87.092 173.03 86.932C173.278 86.772 173.47 86.536 173.606 86.224C173.75 85.912 173.822 85.528 173.822 85.072C173.822 84.384 173.67 83.864 173.366 83.512C173.062 83.16 172.662 82.984 172.166 82.984C171.83 82.984 171.538 83.064 171.29 83.224C171.042 83.376 170.846 83.608 170.702 83.92C170.566 84.232 170.498 84.616 170.498 85.072C170.498 85.752 170.65 86.272 170.954 86.632C171.258 86.992 171.662 87.172 172.166 87.172Z" fill="#EB0910"/>
<path d="M187.667 77.3333C183.991 77.3333 181 80.324 181 84C181 87.676 183.991 90.6667 187.667 90.6667C191.343 90.6667 194.333 87.676 194.333 84C194.333 80.324 191.343 77.3333 187.667 77.3333ZM190.08 85.6888C190.13 85.7359 190.17 85.7925 190.197 85.8553C190.225 85.918 190.239 85.9856 190.24 86.054C190.241 86.1225 190.228 86.1904 190.202 86.2538C190.176 86.3172 190.138 86.3748 190.09 86.4232C190.041 86.4716 189.984 86.5098 189.92 86.5356C189.857 86.5614 189.789 86.5742 189.721 86.5734C189.652 86.5725 189.585 86.5579 189.522 86.5305C189.459 86.5031 189.403 86.4634 189.355 86.4138L187.667 84.7253L185.978 86.4138C185.881 86.5059 185.752 86.5565 185.618 86.5548C185.484 86.5531 185.357 86.4992 185.262 86.4046C185.167 86.3101 185.114 86.1823 185.112 86.0486C185.11 85.9148 185.161 85.7857 185.253 85.6888L186.941 84L185.253 82.3112C185.161 82.2143 185.11 82.0852 185.112 81.9514C185.114 81.8177 185.167 81.69 185.262 81.5954C185.357 81.5008 185.484 81.4469 185.618 81.4452C185.752 81.4435 185.881 81.4941 185.978 81.5862L187.667 83.2747L189.355 81.5862C189.452 81.4941 189.582 81.4435 189.715 81.4452C189.849 81.4469 189.977 81.5008 190.071 81.5954C190.166 81.69 190.22 81.8177 190.221 81.9514C190.223 82.0852 190.173 82.2143 190.08 82.3112L188.392 84L190.08 85.6888Z" fill="#EB0910"/>
<rect x="206" y="72" width="71.3333" height="24" rx="12" fill="#64728C" fill-opacity="0.1"/>
<path d="M220.776 88.108C219.92 88.108 219.188 87.932 218.58 87.58C217.972 87.228 217.504 86.728 217.176 86.08C216.856 85.424 216.696 84.652 216.696 83.764C216.696 83.1 216.788 82.504 216.972 81.976C217.156 81.44 217.42 80.984 217.764 80.608C218.116 80.224 218.544 79.932 219.048 79.732C219.56 79.532 220.136 79.432 220.776 79.432C221.248 79.432 221.7 79.496 222.132 79.624C222.572 79.752 222.952 79.936 223.272 80.176C223.408 80.264 223.496 80.372 223.536 80.5C223.584 80.62 223.592 80.736 223.56 80.848C223.536 80.96 223.484 81.056 223.404 81.136C223.324 81.208 223.22 81.248 223.092 81.256C222.972 81.264 222.84 81.22 222.696 81.124C222.432 80.924 222.14 80.776 221.82 80.68C221.5 80.584 221.164 80.536 220.812 80.536C220.204 80.536 219.692 80.664 219.276 80.92C218.86 81.168 218.544 81.532 218.328 82.012C218.112 82.492 218.004 83.076 218.004 83.764C218.004 84.452 218.112 85.04 218.328 85.528C218.544 86.008 218.86 86.376 219.276 86.632C219.692 86.88 220.204 87.004 220.812 87.004C221.164 87.004 221.5 86.956 221.82 86.86C222.148 86.756 222.456 86.604 222.744 86.404C222.888 86.316 223.016 86.276 223.128 86.284C223.248 86.292 223.348 86.332 223.428 86.404C223.508 86.476 223.56 86.568 223.584 86.68C223.616 86.784 223.612 86.896 223.572 87.016C223.54 87.128 223.464 87.224 223.344 87.304C223.016 87.568 222.628 87.768 222.18 87.904C221.732 88.04 221.264 88.108 220.776 88.108ZM226.845 88.108C226.221 88.108 225.749 87.928 225.429 87.568C225.117 87.2 224.961 86.672 224.961 85.984V80.068C224.961 79.868 225.013 79.716 225.117 79.612C225.221 79.508 225.369 79.456 225.561 79.456C225.753 79.456 225.901 79.508 226.005 79.612C226.117 79.716 226.173 79.868 226.173 80.068V85.912C226.173 86.312 226.253 86.612 226.413 86.812C226.581 87.004 226.821 87.1 227.133 87.1C227.205 87.1 227.269 87.1 227.325 87.1C227.381 87.092 227.437 87.084 227.493 87.076C227.589 87.068 227.657 87.096 227.697 87.16C227.737 87.216 227.757 87.336 227.757 87.52C227.757 87.688 227.721 87.82 227.649 87.916C227.577 88.004 227.461 88.06 227.301 88.084C227.229 88.092 227.153 88.096 227.073 88.096C226.993 88.104 226.917 88.108 226.845 88.108ZM231.115 88.108C230.523 88.108 230.011 87.984 229.579 87.736C229.155 87.488 228.823 87.136 228.583 86.68C228.343 86.224 228.223 85.688 228.223 85.072C228.223 84.6 228.291 84.18 228.427 83.812C228.563 83.444 228.755 83.128 229.003 82.864C229.259 82.592 229.563 82.388 229.915 82.252C230.275 82.108 230.675 82.036 231.115 82.036C231.699 82.036 232.203 82.16 232.627 82.408C233.059 82.656 233.395 83.008 233.635 83.464C233.875 83.912 233.995 84.448 233.995 85.072C233.995 85.536 233.927 85.956 233.791 86.332C233.655 86.708 233.459 87.028 233.203 87.292C232.955 87.556 232.651 87.76 232.291 87.904C231.939 88.04 231.547 88.108 231.115 88.108ZM231.115 87.172C231.443 87.172 231.731 87.092 231.979 86.932C232.227 86.772 232.419 86.536 232.555 86.224C232.699 85.912 232.771 85.528 232.771 85.072C232.771 84.384 232.619 83.864 232.315 83.512C232.011 83.16 231.611 82.984 231.115 82.984C230.779 82.984 230.487 83.064 230.239 83.224C229.991 83.376 229.795 83.608 229.651 83.92C229.515 84.232 229.447 84.616 229.447 85.072C229.447 85.752 229.599 86.272 229.903 86.632C230.207 86.992 230.611 87.172 231.115 87.172ZM237.408 88.108C237.056 88.108 236.692 88.068 236.316 87.988C235.948 87.908 235.608 87.772 235.296 87.58C235.192 87.508 235.12 87.428 235.08 87.34C235.04 87.252 235.024 87.164 235.032 87.076C235.048 86.98 235.084 86.9 235.14 86.836C235.204 86.764 235.28 86.72 235.368 86.704C235.464 86.688 235.564 86.708 235.668 86.764C235.98 86.94 236.28 87.064 236.568 87.136C236.856 87.2 237.14 87.232 237.42 87.232C237.844 87.232 238.164 87.156 238.38 87.004C238.596 86.852 238.704 86.648 238.704 86.392C238.704 86.184 238.632 86.024 238.488 85.912C238.344 85.792 238.128 85.7 237.84 85.636L236.7 85.408C236.204 85.304 235.828 85.12 235.572 84.856C235.316 84.592 235.188 84.256 235.188 83.848C235.188 83.48 235.288 83.16 235.488 82.888C235.688 82.616 235.968 82.408 236.328 82.264C236.688 82.112 237.104 82.036 237.576 82.036C237.928 82.036 238.26 82.08 238.572 82.168C238.884 82.256 239.172 82.388 239.436 82.564C239.54 82.62 239.608 82.696 239.64 82.792C239.672 82.88 239.676 82.968 239.652 83.056C239.636 83.144 239.596 83.224 239.532 83.296C239.468 83.36 239.388 83.4 239.292 83.416C239.204 83.424 239.104 83.4 238.992 83.344C238.752 83.192 238.512 83.084 238.272 83.02C238.04 82.956 237.808 82.924 237.576 82.924C237.152 82.924 236.832 83.004 236.616 83.164C236.408 83.316 236.304 83.524 236.304 83.788C236.304 83.988 236.368 84.152 236.496 84.28C236.624 84.408 236.824 84.5 237.096 84.556L238.236 84.784C238.756 84.888 239.148 85.064 239.412 85.312C239.684 85.56 239.82 85.896 239.82 86.32C239.82 86.872 239.6 87.308 239.16 87.628C238.72 87.948 238.136 88.108 237.408 88.108ZM243.916 88.108C243.276 88.108 242.724 87.988 242.26 87.748C241.804 87.5 241.448 87.152 241.192 86.704C240.944 86.248 240.82 85.708 240.82 85.084C240.82 84.476 240.944 83.944 241.192 83.488C241.44 83.032 241.78 82.676 242.212 82.42C242.644 82.164 243.136 82.036 243.688 82.036C244.096 82.036 244.46 82.104 244.78 82.24C245.1 82.368 245.372 82.56 245.596 82.816C245.828 83.064 246 83.368 246.112 83.728C246.232 84.088 246.292 84.492 246.292 84.94C246.292 85.076 246.252 85.18 246.172 85.252C246.092 85.316 245.972 85.348 245.812 85.348H241.78V84.604H245.476L245.272 84.772C245.272 84.372 245.212 84.032 245.092 83.752C244.98 83.472 244.808 83.26 244.576 83.116C244.352 82.964 244.072 82.888 243.736 82.888C243.36 82.888 243.04 82.976 242.776 83.152C242.52 83.328 242.324 83.572 242.188 83.884C242.052 84.196 241.984 84.56 241.984 84.976V85.048C241.984 85.752 242.148 86.284 242.476 86.644C242.812 86.996 243.296 87.172 243.928 87.172C244.168 87.172 244.42 87.14 244.684 87.076C244.956 87.012 245.212 86.904 245.452 86.752C245.588 86.672 245.708 86.636 245.812 86.644C245.924 86.652 246.012 86.688 246.076 86.752C246.148 86.816 246.192 86.896 246.208 86.992C246.224 87.088 246.208 87.188 246.16 87.292C246.112 87.388 246.028 87.476 245.908 87.556C245.636 87.74 245.32 87.88 244.96 87.976C244.6 88.064 244.252 88.108 243.916 88.108ZM249.846 88.108C249.334 88.108 248.882 87.988 248.49 87.748C248.106 87.5 247.806 87.148 247.59 86.692C247.374 86.228 247.266 85.688 247.266 85.072C247.266 84.44 247.374 83.9 247.59 83.452C247.806 83.004 248.106 82.656 248.49 82.408C248.882 82.16 249.334 82.036 249.846 82.036C250.358 82.036 250.798 82.164 251.166 82.42C251.542 82.668 251.794 83.004 251.922 83.428H251.79V80.068C251.79 79.868 251.842 79.716 251.946 79.612C252.05 79.508 252.198 79.456 252.39 79.456C252.582 79.456 252.73 79.508 252.834 79.612C252.946 79.716 253.002 79.868 253.002 80.068V87.472C253.002 87.664 252.95 87.816 252.846 87.928C252.742 88.032 252.594 88.084 252.402 88.084C252.21 88.084 252.062 88.032 251.958 87.928C251.854 87.816 251.802 87.664 251.802 87.472V86.416L251.934 86.68C251.806 87.112 251.554 87.46 251.178 87.724C250.81 87.98 250.366 88.108 249.846 88.108ZM250.158 87.172C250.486 87.172 250.774 87.092 251.022 86.932C251.27 86.772 251.462 86.536 251.598 86.224C251.742 85.912 251.814 85.528 251.814 85.072C251.814 84.384 251.662 83.864 251.358 83.512C251.054 83.16 250.654 82.984 250.158 82.984C249.822 82.984 249.53 83.064 249.282 83.224C249.034 83.376 248.838 83.608 248.694 83.92C248.558 84.232 248.49 84.616 248.49 85.072C248.49 85.752 248.642 86.272 248.946 86.632C249.25 86.992 249.654 87.172 250.158 87.172Z" fill="#64728C"/>
<path d="M265.667 77.3333C261.991 77.3333 259 80.324 259 84C259 87.676 261.991 90.6667 265.667 90.6667C269.343 90.6667 272.333 87.676 272.333 84C272.333 80.324 269.343 77.3333 265.667 77.3333ZM268.08 85.6888C268.13 85.7359 268.17 85.7925 268.197 85.8553C268.225 85.918 268.239 85.9856 268.24 86.054C268.241 86.1225 268.228 86.1904 268.202 86.2538C268.176 86.3172 268.138 86.3748 268.09 86.4232C268.041 86.4716 267.984 86.5098 267.92 86.5356C267.857 86.5614 267.789 86.5742 267.721 86.5734C267.652 86.5725 267.585 86.5579 267.522 86.5305C267.459 86.5031 267.403 86.4634 267.355 86.4138L265.667 84.7253L263.978 86.4138C263.881 86.5059 263.752 86.5565 263.618 86.5548C263.484 86.5531 263.357 86.4992 263.262 86.4046C263.167 86.3101 263.114 86.1823 263.112 86.0486C263.11 85.9148 263.161 85.7857 263.253 85.6888L264.941 84L263.253 82.3112C263.161 82.2143 263.11 82.0852 263.112 81.9514C263.114 81.8177 263.167 81.69 263.262 81.5954C263.357 81.5008 263.484 81.4469 263.618 81.4452C263.752 81.4435 263.881 81.4941 263.978 81.5862L265.667 83.2747L267.355 81.5862C267.452 81.4941 267.582 81.4435 267.715 81.4452C267.849 81.4469 267.977 81.5008 268.071 81.5954C268.166 81.69 268.22 81.8177 268.221 81.9514C268.223 82.0852 268.173 82.2143 268.08 82.3112L266.392 84L268.08 85.6888Z" fill="#64728C"/>
<defs>
<filter id="filter0_d_556_4549" x="0" y="20" width="310" height="55" filterUnits="userSpaceOnUse" color-interpolation-filters="sRGB">
<feFlood flood-opacity="0" result="BackgroundImageFix"/>
<feColorMatrix in="SourceAlpha" type="matrix" values="0 0 0 0 0 0 0 0 0 0 0 0 0 0 0 0 0 0 127 0" result="hardAlpha"/>
<feOffset dy="4"/>
<feGaussianBlur stdDeviation="2.5"/>
<feComposite in2="hardAlpha" operator="out"/>
<feColorMatrix type="matrix" values="0 0 0 0 0.921569 0 0 0 0 0.0352941 0 0 0 0 0.0627451 0 0 0 0.15 0"/>
<feBlend mode="normal" in2="BackgroundImageFix" result="effect1_dropShadow_556_4549"/>
<feBlend mode="normal" in="SourceGraphic" in2="effect1_dropShadow_556_4549" result="shape"/>
</filter>
</defs>
</svg>
