<svg width="150" height="28" viewBox="0 0 150 28" fill="none" xmlns="http://www.w3.org/2000/svg">
<g clip-path="url(#clip0_1272_17183)">
<path d="M9.293 13.293C9.19982 13.3857 9.12587 13.4958 9.0754 13.6171C9.02494 13.7385 8.99897 13.8686 8.99897 14C8.99897 14.1314 9.02494 14.2615 9.0754 14.3829C9.12587 14.5042 9.19982 14.6143 9.293 14.707L13.536 18.95C13.6282 19.0455 13.7386 19.1217 13.8606 19.1741C13.9826 19.2265 14.1138 19.2541 14.2466 19.2553C14.3794 19.2564 14.5111 19.2311 14.634 19.1808C14.7569 19.1305 14.8685 19.0563 14.9624 18.9624C15.0563 18.8685 15.1305 18.7569 15.1808 18.634C15.2311 18.5111 15.2564 18.3794 15.2553 18.2466C15.2541 18.1138 15.2265 17.9826 15.1741 17.8606C15.1217 17.7386 15.0455 17.6282 14.95 17.536L12.414 15L18 15C18.2652 15 18.5196 14.8946 18.7071 14.7071C18.8946 14.5196 19 14.2652 19 14C19 13.7348 18.8946 13.4804 18.7071 13.2929C18.5196 13.1054 18.2652 13 18 13L12.414 13L14.95 10.464C15.0455 10.3718 15.1217 10.2614 15.1741 10.1394C15.2265 10.0174 15.2541 9.88618 15.2553 9.7534C15.2564 9.62062 15.2311 9.48894 15.1808 9.36605C15.1305 9.24315 15.0563 9.1315 14.9624 9.0376C14.8685 8.94371 14.7569 8.86946 14.634 8.81918C14.5111 8.7689 14.3794 8.7436 14.2466 8.74475C14.1138 8.7459 13.9826 8.77349 13.8606 8.8259C13.7386 8.87831 13.6282 8.95449 13.536 9.05L9.293 13.293ZM4 14C4 8.477 8.477 4 14 4C19.523 4 24 8.477 24 14C24 19.523 19.523 24 14 24C8.477 24 4 19.523 4 14Z" fill="#64728C"/>
<path d="M39.02 11.76H37.2V11.34C37.4667 11.32 37.7067 11.2933 37.92 11.26C38.14 11.2267 38.33 11.1633 38.49 11.07C38.6567 10.9767 38.7933 10.8433 38.9 10.67C39.0133 10.49 39.0967 10.25 39.15 9.95H39.66V17H39.02V11.76Z" fill="#64728C"/>
<path d="M52.966 12.364C52.966 11.8787 53.0407 11.44 53.19 11.048C53.3393 10.6467 53.554 10.306 53.834 10.026C54.114 9.73667 54.45 9.51733 54.842 9.368C55.2433 9.20933 55.6867 9.13 56.172 9.13C56.6667 9.13 57.1007 9.20467 57.474 9.354C57.8567 9.494 58.174 9.68533 58.426 9.928C58.6873 10.1707 58.8833 10.46 59.014 10.796C59.1447 11.132 59.21 11.4867 59.21 11.86C59.21 12.2987 59.1353 12.686 58.986 13.022C58.846 13.358 58.6547 13.6567 58.412 13.918C58.1787 14.1793 57.908 14.4127 57.6 14.618C57.3013 14.8233 56.9933 15.0193 56.676 15.206C56.3587 15.3833 56.046 15.556 55.738 15.724C55.43 15.892 55.1547 16.0693 54.912 16.256C54.7533 16.3773 54.5993 16.508 54.45 16.648C54.3007 16.7787 54.1653 16.9233 54.044 17.082C53.9227 17.2407 53.8247 17.418 53.75 17.614C53.6753 17.8007 53.6333 18.0107 53.624 18.244H59.126V19H52.672C52.6813 18.524 52.7327 18.0947 52.826 17.712C52.9193 17.3293 53.1247 16.956 53.442 16.592C53.7873 16.2 54.142 15.864 54.506 15.584C54.8793 15.304 55.2433 15.0567 55.598 14.842C55.9527 14.618 56.2887 14.4173 56.606 14.24C56.9233 14.0533 57.2033 13.8527 57.446 13.638C57.6887 13.4233 57.88 13.1807 58.02 12.91C58.16 12.6393 58.23 12.308 58.23 11.916C58.23 11.5987 58.174 11.314 58.062 11.062C57.95 10.81 57.796 10.5953 57.6 10.418C57.404 10.2407 57.1753 10.11 56.914 10.026C56.6527 9.93267 56.368 9.886 56.06 9.886C55.7333 9.886 55.4347 9.956 55.164 10.096C54.9027 10.2267 54.674 10.404 54.478 10.628C54.2913 10.852 54.1467 11.1133 54.044 11.412C53.9413 11.7107 53.8993 12.028 53.918 12.364H52.966Z" fill="#64728C"/>
<g filter="url(#filter0_d_1272_17183)">
<rect x="65" y="4" width="20" height="20" rx="10" fill="#38455D" shape-rendering="crispEdges"/>
<path d="M73.6797 11.0635C73.4609 11.3551 73.3561 11.7448 73.3652 12.2324H71.5469C71.5651 11.7402 71.6494 11.2731 71.7998 10.8311C71.9593 10.4437 72.21 10.0859 72.5518 9.75781C72.807 9.52539 73.11 9.34766 73.4609 9.22461C73.8118 9.10156 74.2425 9.04004 74.7529 9.04004C75.7008 9.04004 76.4642 9.28613 77.043 9.77832C77.6263 10.266 77.918 10.9222 77.918 11.7471C77.918 12.3304 77.7448 12.8226 77.3984 13.2236C77.1797 13.4743 76.9518 13.6452 76.7148 13.7363C76.8926 13.7363 77.1478 13.889 77.4805 14.1943C77.9772 14.6546 78.2256 15.2835 78.2256 16.0811C78.2256 16.9196 77.9339 17.6579 77.3506 18.2959C76.7718 18.9294 75.9128 19.2461 74.7734 19.2461C73.3698 19.2461 72.3945 18.7881 71.8477 17.8721C71.5605 17.3844 71.401 16.7464 71.3691 15.958H73.2832C73.2832 16.3545 73.347 16.6826 73.4746 16.9424C73.7116 17.4209 74.1423 17.6602 74.7666 17.6602C75.1494 17.6602 75.4821 17.5303 75.7646 17.2705C76.0518 17.0062 76.1953 16.6279 76.1953 16.1357C76.1953 15.484 75.931 15.0488 75.4023 14.8301C75.1016 14.707 74.6276 14.6455 73.9805 14.6455V13.251C74.6139 13.2419 75.056 13.1803 75.3066 13.0664C75.7396 12.875 75.9561 12.4876 75.9561 11.9043C75.9561 11.526 75.8444 11.2184 75.6211 10.9814C75.4023 10.7445 75.0924 10.626 74.6914 10.626C74.2311 10.626 73.8939 10.7718 73.6797 11.0635Z" fill="white"/>
</g>
<path d="M95.012 16.564H90.504V15.794L95.096 9.228H95.908V15.808H97.28V16.564H95.908V19H95.012V16.564ZM91.386 15.808H95.012V10.572L91.386 15.808Z" fill="#64728C"/>
<path d="M108.99 15.17C109.057 15.65 109.247 16.01 109.56 16.25C109.88 16.4833 110.27 16.6 110.73 16.6C110.99 16.6 111.223 16.5533 111.43 16.46C111.643 16.3667 111.823 16.24 111.97 16.08C112.117 15.9133 112.227 15.7233 112.3 15.51C112.38 15.29 112.42 15.0533 112.42 14.8C112.42 14.54 112.377 14.3 112.29 14.08C112.21 13.86 112.093 13.67 111.94 13.51C111.793 13.35 111.61 13.2267 111.39 13.14C111.177 13.0533 110.937 13.01 110.67 13.01C110.35 13.01 110.063 13.07 109.81 13.19C109.557 13.3033 109.333 13.4867 109.14 13.74L108.61 13.67L109.18 10.02H112.68V10.56H109.72L109.28 12.93C109.42 12.8433 109.547 12.77 109.66 12.71C109.78 12.65 109.9 12.6033 110.02 12.57C110.14 12.53 110.263 12.5033 110.39 12.49C110.523 12.4767 110.67 12.47 110.83 12.47C111.15 12.47 111.447 12.5233 111.72 12.63C111.993 12.7367 112.23 12.89 112.43 13.09C112.63 13.29 112.783 13.5367 112.89 13.83C113.003 14.1167 113.06 14.44 113.06 14.8C113.06 15.1733 112.997 15.5067 112.87 15.8C112.75 16.0867 112.587 16.33 112.38 16.53C112.173 16.73 111.933 16.8833 111.66 16.99C111.393 17.09 111.117 17.14 110.83 17.14C110.497 17.14 110.183 17.1067 109.89 17.04C109.603 16.9733 109.35 16.8633 109.13 16.71C108.91 16.55 108.73 16.3467 108.59 16.1C108.457 15.8467 108.377 15.5367 108.35 15.17H108.99Z" fill="#64728C"/>
<path d="M140.707 14.707C140.8 14.6143 140.874 14.5042 140.925 14.3829C140.975 14.2615 141.001 14.1314 141.001 14C141.001 13.8686 140.975 13.7385 140.925 13.6171C140.874 13.4958 140.8 13.3857 140.707 13.293L136.464 9.05C136.372 8.95449 136.261 8.87831 136.139 8.8259C136.017 8.77349 135.886 8.7459 135.753 8.74475C135.621 8.7436 135.489 8.7689 135.366 8.81918C135.243 8.86946 135.131 8.94371 135.038 9.0376C134.944 9.1315 134.869 9.24315 134.819 9.36605C134.769 9.48894 134.744 9.62062 134.745 9.7534C134.746 9.88618 134.773 10.0174 134.826 10.1394C134.878 10.2614 134.954 10.3718 135.05 10.464L137.586 13L132 13C131.735 13 131.48 13.1054 131.293 13.2929C131.105 13.4804 131 13.7348 131 14C131 14.2652 131.105 14.5196 131.293 14.7071C131.48 14.8946 131.735 15 132 15L137.586 15L135.05 17.536C134.954 17.6282 134.878 17.7386 134.826 17.8606C134.773 17.9826 134.746 18.1138 134.745 18.2466C134.744 18.3794 134.769 18.5111 134.819 18.634C134.869 18.7569 134.944 18.8685 135.038 18.9624C135.131 19.0563 135.243 19.1305 135.366 19.1808C135.489 19.2311 135.621 19.2564 135.753 19.2553C135.886 19.2541 136.017 19.2265 136.139 19.1741C136.261 19.1217 136.372 19.0455 136.464 18.95L140.707 14.707ZM146 14C146 19.523 141.523 24 136 24C130.477 24 126 19.523 126 14C126 8.477 130.477 4 136 4C141.523 4 146 8.477 146 14Z" fill="#64728C"/>
</g>
<rect x="0.5" y="0.5" width="149" height="27" rx="13.5" stroke="#E8EAEF"/>
<defs>
<filter id="filter0_d_1272_17183" x="61" y="4" width="28" height="28" filterUnits="userSpaceOnUse" color-interpolation-filters="sRGB">
<feFlood flood-opacity="0" result="BackgroundImageFix"/>
<feColorMatrix in="SourceAlpha" type="matrix" values="0 0 0 0 0 0 0 0 0 0 0 0 0 0 0 0 0 0 127 0" result="hardAlpha"/>
<feOffset dy="4"/>
<feGaussianBlur stdDeviation="2"/>
<feComposite in2="hardAlpha" operator="out"/>
<feColorMatrix type="matrix" values="0 0 0 0 0 0 0 0 0 0 0 0 0 0 0 0 0 0 0.05 0"/>
<feBlend mode="normal" in2="BackgroundImageFix" result="effect1_dropShadow_1272_17183"/>
<feBlend mode="normal" in="SourceGraphic" in2="effect1_dropShadow_1272_17183" result="shape"/>
</filter>
<clipPath id="clip0_1272_17183">
<rect width="150" height="28" rx="14" fill="white"/>
</clipPath>
</defs>
</svg>
