<svg width="232" height="28" viewBox="0 0 232 28" fill="none" xmlns="http://www.w3.org/2000/svg">
<g clip-path="url(#clip0_1272_17202)">
<path d="M9.293 13.293C9.19982 13.3857 9.12587 13.4958 9.0754 13.6171C9.02494 13.7385 8.99897 13.8686 8.99897 14C8.99897 14.1314 9.02494 14.2615 9.0754 14.3829C9.12587 14.5042 9.19982 14.6143 9.293 14.707L13.536 18.95C13.6282 19.0455 13.7386 19.1217 13.8606 19.1741C13.9826 19.2265 14.1138 19.2541 14.2466 19.2553C14.3794 19.2564 14.5111 19.2311 14.634 19.1808C14.7569 19.1305 14.8685 19.0563 14.9624 18.9624C15.0563 18.8685 15.1305 18.7569 15.1808 18.634C15.2311 18.5111 15.2564 18.3794 15.2553 18.2466C15.2541 18.1138 15.2265 17.9826 15.1741 17.8606C15.1217 17.7386 15.0455 17.6282 14.95 17.536L12.414 15L18 15C18.2652 15 18.5196 14.8946 18.7071 14.7071C18.8946 14.5196 19 14.2652 19 14C19 13.7348 18.8946 13.4804 18.7071 13.2929C18.5196 13.1054 18.2652 13 18 13L12.414 13L14.95 10.464C15.0455 10.3718 15.1217 10.2614 15.1741 10.1394C15.2265 10.0174 15.2541 9.88618 15.2553 9.7534C15.2564 9.62062 15.2311 9.48894 15.1808 9.36605C15.1305 9.24315 15.0563 9.1315 14.9624 9.0376C14.8685 8.94371 14.7569 8.86946 14.634 8.81918C14.5111 8.7689 14.3794 8.7436 14.2466 8.74475C14.1138 8.7459 13.9826 8.77349 13.8606 8.8259C13.7386 8.87831 13.6282 8.95449 13.536 9.05L9.293 13.293ZM4 14C4 8.477 8.477 4 14 4C19.523 4 24 8.477 24 14C24 19.523 19.523 24 14 24C8.477 24 4 19.523 4 14Z" fill="#64728C"/>
<path d="M32.0254 9.39258H35.8984C36.6641 9.39258 37.2812 9.60938 37.75 10.043C38.2188 10.4727 38.4531 11.0781 38.4531 11.8594C38.4531 12.5312 38.2441 13.1172 37.8262 13.6172C37.4082 14.1133 36.7656 14.3613 35.8984 14.3613H33.1914V18H32.0254V9.39258ZM37.2754 11.8652C37.2754 11.2324 37.041 10.8027 36.5723 10.5762C36.3145 10.4551 35.9609 10.3945 35.5117 10.3945H33.1914V13.377H35.5117C36.0352 13.377 36.459 13.2656 36.7832 13.043C37.1113 12.8203 37.2754 12.4277 37.2754 11.8652ZM39.8066 11.7246H40.8086V12.8086C40.8906 12.5977 41.0918 12.3418 41.4121 12.041C41.7324 11.7363 42.1016 11.584 42.5195 11.584C42.5391 11.584 42.5723 11.5859 42.6191 11.5898C42.666 11.5938 42.7461 11.6016 42.8594 11.6133V12.7266C42.7969 12.7148 42.7383 12.707 42.6836 12.7031C42.6328 12.6992 42.5762 12.6973 42.5137 12.6973C41.9824 12.6973 41.5742 12.8691 41.2891 13.2129C41.0039 13.5527 40.8613 13.9453 40.8613 14.3906V18H39.8066V11.7246ZM46.3867 11.584C46.832 11.584 47.2637 11.6895 47.6816 11.9004C48.0996 12.1074 48.418 12.377 48.6367 12.709C48.8477 13.0254 48.9883 13.3945 49.0586 13.8164C49.1211 14.1055 49.1523 14.5664 49.1523 15.1992H44.5527C44.5723 15.8359 44.7227 16.3477 45.0039 16.7344C45.2852 17.1172 45.7207 17.3086 46.3105 17.3086C46.8613 17.3086 47.3008 17.127 47.6289 16.7637C47.8164 16.5527 47.9492 16.3086 48.0273 16.0312H49.0645C49.0371 16.2617 48.9453 16.5195 48.7891 16.8047C48.6367 17.0859 48.4648 17.3164 48.2734 17.4961C47.9531 17.8086 47.5566 18.0195 47.084 18.1289C46.8301 18.1914 46.543 18.2227 46.2227 18.2227C45.4414 18.2227 44.7793 17.9395 44.2363 17.373C43.6934 16.8027 43.4219 16.0059 43.4219 14.9824C43.4219 13.9746 43.6953 13.1562 44.2422 12.5273C44.7891 11.8984 45.5039 11.584 46.3867 11.584ZM48.0684 14.3613C48.0254 13.9043 47.9258 13.5391 47.7695 13.2656C47.4805 12.7578 46.998 12.5039 46.3223 12.5039C45.8379 12.5039 45.4316 12.6797 45.1035 13.0312C44.7754 13.3789 44.6016 13.8223 44.582 14.3613H48.0684ZM50.9688 11.7246L52.6445 16.834L54.3965 11.7246H55.5508L53.1836 18H52.0586L49.7441 11.7246H50.9688ZM56.4531 11.7539H57.5254V18H56.4531V11.7539ZM56.4531 9.39258H57.5254V10.5879H56.4531V9.39258ZM61.6152 17.3203C62.3145 17.3203 62.793 17.0566 63.0508 16.5293C63.3125 15.998 63.4434 15.4082 63.4434 14.7598C63.4434 14.1738 63.3496 13.6973 63.1621 13.3301C62.8652 12.752 62.3535 12.4629 61.627 12.4629C60.9824 12.4629 60.5137 12.709 60.2207 13.2012C59.9277 13.6934 59.7812 14.2871 59.7812 14.9824C59.7812 15.6504 59.9277 16.207 60.2207 16.6523C60.5137 17.0977 60.9785 17.3203 61.6152 17.3203ZM61.6562 11.543C62.4648 11.543 63.1484 11.8125 63.707 12.3516C64.2656 12.8906 64.5449 13.6836 64.5449 14.7305C64.5449 15.7422 64.2988 16.5781 63.8066 17.2383C63.3145 17.8984 62.5508 18.2285 61.5156 18.2285C60.6523 18.2285 59.9668 17.9375 59.459 17.3555C58.9512 16.7695 58.6973 15.9844 58.6973 15C58.6973 13.9453 58.9648 13.1055 59.5 12.4805C60.0352 11.8555 60.7539 11.543 61.6562 11.543ZM66.8594 11.7246V15.8906C66.8594 16.2109 66.9102 16.4727 67.0117 16.6758C67.1992 17.0508 67.5488 17.2383 68.0605 17.2383C68.7949 17.2383 69.2949 16.9102 69.5605 16.2539C69.7051 15.9023 69.7773 15.4199 69.7773 14.8066V11.7246H70.832V18H69.8359L69.8477 17.0742C69.7109 17.3125 69.541 17.5137 69.3379 17.6777C68.9355 18.0059 68.4473 18.1699 67.873 18.1699C66.9785 18.1699 66.3691 17.8711 66.0449 17.2734C65.8691 16.9531 65.7812 16.5254 65.7812 15.9902V11.7246H66.8594ZM73.1113 16.0312C73.1426 16.3828 73.2305 16.6523 73.375 16.8398C73.6406 17.1797 74.1016 17.3496 74.7578 17.3496C75.1484 17.3496 75.4922 17.2656 75.7891 17.0977C76.0859 16.9258 76.2344 16.6621 76.2344 16.3066C76.2344 16.0371 76.1152 15.832 75.877 15.6914C75.7246 15.6055 75.4238 15.5059 74.9746 15.3926L74.1367 15.1816C73.6016 15.0488 73.207 14.9004 72.9531 14.7363C72.5 14.4512 72.2734 14.0566 72.2734 13.5527C72.2734 12.959 72.4863 12.4785 72.9121 12.1113C73.3418 11.7441 73.918 11.5605 74.6406 11.5605C75.5859 11.5605 76.2676 11.8379 76.6855 12.3926C76.9473 12.7441 77.0742 13.123 77.0664 13.5293H76.0703C76.0508 13.291 75.9668 13.0742 75.8184 12.8789C75.5762 12.6016 75.1562 12.4629 74.5586 12.4629C74.1602 12.4629 73.8574 12.5391 73.6504 12.6914C73.4473 12.8438 73.3457 13.0449 73.3457 13.2949C73.3457 13.5684 73.4805 13.7871 73.75 13.9512C73.9062 14.0488 74.1367 14.1348 74.4414 14.209L75.1387 14.3789C75.8965 14.5625 76.4043 14.7402 76.6621 14.9121C77.0723 15.1816 77.2773 15.6055 77.2773 16.1836C77.2773 16.7422 77.0645 17.2246 76.6387 17.6309C76.2168 18.0371 75.5723 18.2402 74.7051 18.2402C73.7715 18.2402 73.1094 18.0293 72.7188 17.6074C72.332 17.1816 72.125 16.6562 72.0977 16.0312H73.1113Z" fill="#38455D"/>
<path d="M91.02 11.76H89.2V11.34C89.4667 11.32 89.7067 11.2933 89.92 11.26C90.14 11.2267 90.33 11.1633 90.49 11.07C90.6567 10.9767 90.7933 10.8433 90.9 10.67C91.0133 10.49 91.0967 10.25 91.15 9.95H91.66V17H91.02V11.76Z" fill="#64728C"/>
<path d="M104.966 12.364C104.966 11.8787 105.041 11.44 105.19 11.048C105.339 10.6467 105.554 10.306 105.834 10.026C106.114 9.73667 106.45 9.51733 106.842 9.368C107.243 9.20933 107.687 9.13 108.172 9.13C108.667 9.13 109.101 9.20467 109.474 9.354C109.857 9.494 110.174 9.68533 110.426 9.928C110.687 10.1707 110.883 10.46 111.014 10.796C111.145 11.132 111.21 11.4867 111.21 11.86C111.21 12.2987 111.135 12.686 110.986 13.022C110.846 13.358 110.655 13.6567 110.412 13.918C110.179 14.1793 109.908 14.4127 109.6 14.618C109.301 14.8233 108.993 15.0193 108.676 15.206C108.359 15.3833 108.046 15.556 107.738 15.724C107.43 15.892 107.155 16.0693 106.912 16.256C106.753 16.3773 106.599 16.508 106.45 16.648C106.301 16.7787 106.165 16.9233 106.044 17.082C105.923 17.2407 105.825 17.418 105.75 17.614C105.675 17.8007 105.633 18.0107 105.624 18.244H111.126V19H104.672C104.681 18.524 104.733 18.0947 104.826 17.712C104.919 17.3293 105.125 16.956 105.442 16.592C105.787 16.2 106.142 15.864 106.506 15.584C106.879 15.304 107.243 15.0567 107.598 14.842C107.953 14.618 108.289 14.4173 108.606 14.24C108.923 14.0533 109.203 13.8527 109.446 13.638C109.689 13.4233 109.88 13.1807 110.02 12.91C110.16 12.6393 110.23 12.308 110.23 11.916C110.23 11.5987 110.174 11.314 110.062 11.062C109.95 10.81 109.796 10.5953 109.6 10.418C109.404 10.2407 109.175 10.11 108.914 10.026C108.653 9.93267 108.368 9.886 108.06 9.886C107.733 9.886 107.435 9.956 107.164 10.096C106.903 10.2267 106.674 10.404 106.478 10.628C106.291 10.852 106.147 11.1133 106.044 11.412C105.941 11.7107 105.899 12.028 105.918 12.364H104.966Z" fill="#64728C"/>
<g filter="url(#filter0_d_1272_17202)">
<rect x="117" y="4" width="20" height="20" rx="10" fill="#38455D" shape-rendering="crispEdges"/>
<path d="M125.68 11.0635C125.461 11.3551 125.356 11.7448 125.365 12.2324H123.547C123.565 11.7402 123.649 11.2731 123.8 10.8311C123.959 10.4437 124.21 10.0859 124.552 9.75781C124.807 9.52539 125.11 9.34766 125.461 9.22461C125.812 9.10156 126.243 9.04004 126.753 9.04004C127.701 9.04004 128.464 9.28613 129.043 9.77832C129.626 10.266 129.918 10.9222 129.918 11.7471C129.918 12.3304 129.745 12.8226 129.398 13.2236C129.18 13.4743 128.952 13.6452 128.715 13.7363C128.893 13.7363 129.148 13.889 129.48 14.1943C129.977 14.6546 130.226 15.2835 130.226 16.0811C130.226 16.9196 129.934 17.6579 129.351 18.2959C128.772 18.9294 127.913 19.2461 126.773 19.2461C125.37 19.2461 124.395 18.7881 123.848 17.8721C123.561 17.3844 123.401 16.7464 123.369 15.958H125.283C125.283 16.3545 125.347 16.6826 125.475 16.9424C125.712 17.4209 126.142 17.6602 126.767 17.6602C127.149 17.6602 127.482 17.5303 127.765 17.2705C128.052 17.0062 128.195 16.6279 128.195 16.1357C128.195 15.484 127.931 15.0488 127.402 14.8301C127.102 14.707 126.628 14.6455 125.98 14.6455V13.251C126.614 13.2419 127.056 13.1803 127.307 13.0664C127.74 12.875 127.956 12.4876 127.956 11.9043C127.956 11.526 127.844 11.2184 127.621 10.9814C127.402 10.7445 127.092 10.626 126.691 10.626C126.231 10.626 125.894 10.7718 125.68 11.0635Z" fill="white"/>
</g>
<path d="M147.012 16.564H142.504V15.794L147.096 9.228H147.908V15.808H149.28V16.564H147.908V19H147.012V16.564ZM143.386 15.808H147.012V10.572L143.386 15.808Z" fill="#64728C"/>
<path d="M160.99 15.17C161.057 15.65 161.247 16.01 161.56 16.25C161.88 16.4833 162.27 16.6 162.73 16.6C162.99 16.6 163.223 16.5533 163.43 16.46C163.643 16.3667 163.823 16.24 163.97 16.08C164.117 15.9133 164.227 15.7233 164.3 15.51C164.38 15.29 164.42 15.0533 164.42 14.8C164.42 14.54 164.377 14.3 164.29 14.08C164.21 13.86 164.093 13.67 163.94 13.51C163.793 13.35 163.61 13.2267 163.39 13.14C163.177 13.0533 162.937 13.01 162.67 13.01C162.35 13.01 162.063 13.07 161.81 13.19C161.557 13.3033 161.333 13.4867 161.14 13.74L160.61 13.67L161.18 10.02H164.68V10.56H161.72L161.28 12.93C161.42 12.8433 161.547 12.77 161.66 12.71C161.78 12.65 161.9 12.6033 162.02 12.57C162.14 12.53 162.263 12.5033 162.39 12.49C162.523 12.4767 162.67 12.47 162.83 12.47C163.15 12.47 163.447 12.5233 163.72 12.63C163.993 12.7367 164.23 12.89 164.43 13.09C164.63 13.29 164.783 13.5367 164.89 13.83C165.003 14.1167 165.06 14.44 165.06 14.8C165.06 15.1733 164.997 15.5067 164.87 15.8C164.75 16.0867 164.587 16.33 164.38 16.53C164.173 16.73 163.933 16.8833 163.66 16.99C163.393 17.09 163.117 17.14 162.83 17.14C162.497 17.14 162.183 17.1067 161.89 17.04C161.603 16.9733 161.35 16.8633 161.13 16.71C160.91 16.55 160.73 16.3467 160.59 16.1C160.457 15.8467 160.377 15.5367 160.35 15.17H160.99Z" fill="#64728C"/>
<path d="M176.914 9.39258H178.291L182.639 16.3652V9.39258H183.746V18H182.439L178.027 11.0332V18H176.914V9.39258ZM188.059 11.584C188.504 11.584 188.936 11.6895 189.354 11.9004C189.771 12.1074 190.09 12.377 190.309 12.709C190.52 13.0254 190.66 13.3945 190.73 13.8164C190.793 14.1055 190.824 14.5664 190.824 15.1992H186.225C186.244 15.8359 186.395 16.3477 186.676 16.7344C186.957 17.1172 187.393 17.3086 187.982 17.3086C188.533 17.3086 188.973 17.127 189.301 16.7637C189.488 16.5527 189.621 16.3086 189.699 16.0312H190.736C190.709 16.2617 190.617 16.5195 190.461 16.8047C190.309 17.0859 190.137 17.3164 189.945 17.4961C189.625 17.8086 189.229 18.0195 188.756 18.1289C188.502 18.1914 188.215 18.2227 187.895 18.2227C187.113 18.2227 186.451 17.9395 185.908 17.373C185.365 16.8027 185.094 16.0059 185.094 14.9824C185.094 13.9746 185.367 13.1562 185.914 12.5273C186.461 11.8984 187.176 11.584 188.059 11.584ZM189.74 14.3613C189.697 13.9043 189.598 13.5391 189.441 13.2656C189.152 12.7578 188.67 12.5039 187.994 12.5039C187.51 12.5039 187.104 12.6797 186.775 13.0312C186.447 13.3789 186.273 13.8223 186.254 14.3613H189.74ZM191.527 11.7246H192.893L194.334 13.9336L195.793 11.7246L197.076 11.7539L194.961 14.7832L197.17 18H195.822L194.264 15.6445L192.752 18H191.416L193.625 14.7832L191.527 11.7246ZM198.336 9.97266H199.402V11.7246H200.404V12.5859H199.402V16.6816C199.402 16.9004 199.477 17.0469 199.625 17.1211C199.707 17.1641 199.844 17.1855 200.035 17.1855C200.086 17.1855 200.141 17.1855 200.199 17.1855C200.258 17.1816 200.326 17.1758 200.404 17.168V18C200.283 18.0352 200.156 18.0605 200.023 18.0762C199.895 18.0918 199.754 18.0996 199.602 18.0996C199.109 18.0996 198.775 17.9746 198.6 17.7246C198.424 17.4707 198.336 17.1426 198.336 16.7402V12.5859H197.486V11.7246H198.336V9.97266Z" fill="#38455D"/>
<path d="M222.707 14.707C222.8 14.6143 222.874 14.5042 222.925 14.3829C222.975 14.2615 223.001 14.1314 223.001 14C223.001 13.8686 222.975 13.7385 222.925 13.6171C222.874 13.4958 222.8 13.3857 222.707 13.293L218.464 9.05C218.372 8.95449 218.261 8.87831 218.139 8.8259C218.017 8.77349 217.886 8.7459 217.753 8.74475C217.621 8.7436 217.489 8.7689 217.366 8.81918C217.243 8.86946 217.131 8.94371 217.038 9.0376C216.944 9.1315 216.869 9.24315 216.819 9.36605C216.769 9.48894 216.744 9.62062 216.745 9.7534C216.746 9.88618 216.773 10.0174 216.826 10.1394C216.878 10.2614 216.954 10.3718 217.05 10.464L219.586 13L214 13C213.735 13 213.48 13.1054 213.293 13.2929C213.105 13.4804 213 13.7348 213 14C213 14.2652 213.105 14.5196 213.293 14.7071C213.48 14.8946 213.735 15 214 15L219.586 15L217.05 17.536C216.954 17.6282 216.878 17.7386 216.826 17.8606C216.773 17.9826 216.746 18.1138 216.745 18.2466C216.744 18.3794 216.769 18.5111 216.819 18.634C216.869 18.7569 216.944 18.8685 217.038 18.9624C217.131 19.0563 217.243 19.1305 217.366 19.1808C217.489 19.2311 217.621 19.2564 217.753 19.2553C217.886 19.2541 218.017 19.2265 218.139 19.1741C218.261 19.1217 218.372 19.0455 218.464 18.95L222.707 14.707ZM228 14C228 19.523 223.523 24 218 24C212.477 24 208 19.523 208 14C208 8.477 212.477 4 218 4C223.523 4 228 8.477 228 14Z" fill="#64728C"/>
</g>
<rect x="0.5" y="0.5" width="231" height="27" rx="13.5" stroke="#E8EAEF"/>
<defs>
<filter id="filter0_d_1272_17202" x="113" y="4" width="28" height="28" filterUnits="userSpaceOnUse" color-interpolation-filters="sRGB">
<feFlood flood-opacity="0" result="BackgroundImageFix"/>
<feColorMatrix in="SourceAlpha" type="matrix" values="0 0 0 0 0 0 0 0 0 0 0 0 0 0 0 0 0 0 127 0" result="hardAlpha"/>
<feOffset dy="4"/>
<feGaussianBlur stdDeviation="2"/>
<feComposite in2="hardAlpha" operator="out"/>
<feColorMatrix type="matrix" values="0 0 0 0 0 0 0 0 0 0 0 0 0 0 0 0 0 0 0.05 0"/>
<feBlend mode="normal" in2="BackgroundImageFix" result="effect1_dropShadow_1272_17202"/>
<feBlend mode="normal" in="SourceGraphic" in2="effect1_dropShadow_1272_17202" result="shape"/>
</filter>
<clipPath id="clip0_1272_17202">
<rect width="232" height="28" rx="14" fill="white"/>
</clipPath>
</defs>
</svg>
