<svg width="234" height="28" viewBox="0 0 234 28" fill="none" xmlns="http://www.w3.org/2000/svg">
<g clip-path="url(#clip0_1091_9103)">
<path d="M9.293 13.293C9.19982 13.3857 9.12587 13.4958 9.0754 13.6171C9.02494 13.7385 8.99897 13.8686 8.99897 14C8.99897 14.1314 9.02494 14.2615 9.0754 14.3829C9.12587 14.5042 9.19982 14.6143 9.293 14.707L13.536 18.95C13.6282 19.0455 13.7386 19.1217 13.8606 19.1741C13.9826 19.2265 14.1138 19.2541 14.2466 19.2553C14.3794 19.2564 14.5111 19.2311 14.634 19.1808C14.7569 19.1305 14.8685 19.0563 14.9624 18.9624C15.0563 18.8685 15.1305 18.7569 15.1808 18.634C15.2311 18.5111 15.2564 18.3794 15.2553 18.2466C15.2541 18.1138 15.2265 17.9826 15.1741 17.8606C15.1217 17.7386 15.0455 17.6282 14.95 17.536L12.414 15L18 15C18.2652 15 18.5196 14.8946 18.7071 14.7071C18.8946 14.5196 19 14.2652 19 14C19 13.7348 18.8946 13.4804 18.7071 13.2929C18.5196 13.1054 18.2652 13 18 13L12.414 13L14.95 10.464C15.0455 10.3718 15.1217 10.2614 15.1741 10.1394C15.2265 10.0174 15.2541 9.88618 15.2553 9.7534C15.2564 9.62062 15.2311 9.48894 15.1808 9.36605C15.1305 9.24315 15.0563 9.1315 14.9624 9.0376C14.8685 8.94371 14.7569 8.86946 14.634 8.81918C14.5111 8.7689 14.3794 8.7436 14.2466 8.74475C14.1138 8.7459 13.9826 8.77349 13.8606 8.8259C13.7386 8.87831 13.6282 8.95449 13.536 9.05L9.293 13.293ZM4 14C4 8.477 8.477 4 14 4C19.523 4 24 8.477 24 14C24 19.523 19.523 24 14 24C8.477 24 4 19.523 4 14Z" fill="#64728C"/>
<path d="M40.228 11.664H37.68V11.076C38.0533 11.048 38.3893 11.0107 38.688 10.964C38.996 10.9173 39.262 10.8287 39.486 10.698C39.7193 10.5673 39.9107 10.3807 40.06 10.138C40.2187 9.886 40.3353 9.55 40.41 9.13H41.124V19H40.228V11.664Z" fill="#64728C"/>
<path d="M54.966 12.364C54.966 11.8787 55.0407 11.44 55.19 11.048C55.3393 10.6467 55.554 10.306 55.834 10.026C56.114 9.73667 56.45 9.51733 56.842 9.368C57.2433 9.20933 57.6867 9.13 58.172 9.13C58.6667 9.13 59.1007 9.20467 59.474 9.354C59.8567 9.494 60.174 9.68533 60.426 9.928C60.6873 10.1707 60.8833 10.46 61.014 10.796C61.1447 11.132 61.21 11.4867 61.21 11.86C61.21 12.2987 61.1353 12.686 60.986 13.022C60.846 13.358 60.6547 13.6567 60.412 13.918C60.1787 14.1793 59.908 14.4127 59.6 14.618C59.3013 14.8233 58.9933 15.0193 58.676 15.206C58.3587 15.3833 58.046 15.556 57.738 15.724C57.43 15.892 57.1547 16.0693 56.912 16.256C56.7533 16.3773 56.5993 16.508 56.45 16.648C56.3007 16.7787 56.1653 16.9233 56.044 17.082C55.9227 17.2407 55.8247 17.418 55.75 17.614C55.6753 17.8007 55.6333 18.0107 55.624 18.244H61.126V19H54.672C54.6813 18.524 54.7327 18.0947 54.826 17.712C54.9193 17.3293 55.1247 16.956 55.442 16.592C55.7873 16.2 56.142 15.864 56.506 15.584C56.8793 15.304 57.2433 15.0567 57.598 14.842C57.9527 14.618 58.2887 14.4173 58.606 14.24C58.9233 14.0533 59.2033 13.8527 59.446 13.638C59.6887 13.4233 59.88 13.1807 60.02 12.91C60.16 12.6393 60.23 12.308 60.23 11.916C60.23 11.5987 60.174 11.314 60.062 11.062C59.95 10.81 59.796 10.5953 59.6 10.418C59.404 10.2407 59.1753 10.11 58.914 10.026C58.6527 9.93267 58.368 9.886 58.06 9.886C57.7333 9.886 57.4347 9.956 57.164 10.096C56.9027 10.2267 56.674 10.404 56.478 10.628C56.2913 10.852 56.1467 11.1133 56.044 11.412C55.9413 11.7107 55.8993 12.028 55.918 12.364H54.966Z" fill="#64728C"/>
<g filter="url(#filter0_d_1091_9103)">
<rect x="67" y="4" width="20" height="20" rx="10" fill="#38455D" shape-rendering="crispEdges"/>
<path d="M75.6797 11.0635C75.4609 11.3551 75.3561 11.7448 75.3652 12.2324H73.5469C73.5651 11.7402 73.6494 11.2731 73.7998 10.8311C73.9593 10.4437 74.21 10.0859 74.5518 9.75781C74.807 9.52539 75.11 9.34766 75.4609 9.22461C75.8118 9.10156 76.2425 9.04004 76.7529 9.04004C77.7008 9.04004 78.4642 9.28613 79.043 9.77832C79.6263 10.266 79.918 10.9222 79.918 11.7471C79.918 12.3304 79.7448 12.8226 79.3984 13.2236C79.1797 13.4743 78.9518 13.6452 78.7148 13.7363C78.8926 13.7363 79.1478 13.889 79.4805 14.1943C79.9772 14.6546 80.2256 15.2835 80.2256 16.0811C80.2256 16.9196 79.9339 17.6579 79.3506 18.2959C78.7718 18.9294 77.9128 19.2461 76.7734 19.2461C75.3698 19.2461 74.3945 18.7881 73.8477 17.8721C73.5605 17.3844 73.401 16.7464 73.3691 15.958H75.2832C75.2832 16.3545 75.347 16.6826 75.4746 16.9424C75.7116 17.4209 76.1423 17.6602 76.7666 17.6602C77.1494 17.6602 77.4821 17.5303 77.7646 17.2705C78.0518 17.0062 78.1953 16.6279 78.1953 16.1357C78.1953 15.484 77.931 15.0488 77.4023 14.8301C77.1016 14.707 76.6276 14.6455 75.9805 14.6455V13.251C76.6139 13.2419 77.056 13.1803 77.3066 13.0664C77.7396 12.875 77.9561 12.4876 77.9561 11.9043C77.9561 11.526 77.8444 11.2184 77.6211 10.9814C77.4023 10.7445 77.0924 10.626 76.6914 10.626C76.2311 10.626 75.8939 10.7718 75.6797 11.0635Z" fill="white"/>
</g>
<path d="M97.012 16.564H92.504V15.794L97.096 9.228H97.908V15.808H99.28V16.564H97.908V19H97.012V16.564ZM93.386 15.808H97.012V10.572L93.386 15.808Z" fill="#64728C"/>
<path d="M111.386 16.438C111.479 17.11 111.745 17.614 112.184 17.95C112.632 18.2767 113.178 18.44 113.822 18.44C114.186 18.44 114.513 18.3747 114.802 18.244C115.101 18.1133 115.353 17.936 115.558 17.712C115.763 17.4787 115.917 17.2127 116.02 16.914C116.132 16.606 116.188 16.2747 116.188 15.92C116.188 15.556 116.127 15.22 116.006 14.912C115.894 14.604 115.731 14.338 115.516 14.114C115.311 13.89 115.054 13.7173 114.746 13.596C114.447 13.4747 114.111 13.414 113.738 13.414C113.29 13.414 112.889 13.498 112.534 13.666C112.179 13.8247 111.867 14.0813 111.596 14.436L110.854 14.338L111.652 9.228H116.552V9.984H112.408L111.792 13.302C111.988 13.1807 112.165 13.078 112.324 12.994C112.492 12.91 112.66 12.8447 112.828 12.798C112.996 12.742 113.169 12.7047 113.346 12.686C113.533 12.6673 113.738 12.658 113.962 12.658C114.41 12.658 114.825 12.7327 115.208 12.882C115.591 13.0313 115.922 13.246 116.202 13.526C116.482 13.806 116.697 14.1513 116.846 14.562C117.005 14.9633 117.084 15.416 117.084 15.92C117.084 16.4427 116.995 16.9093 116.818 17.32C116.65 17.7213 116.421 18.062 116.132 18.342C115.843 18.622 115.507 18.8367 115.124 18.986C114.751 19.126 114.363 19.196 113.962 19.196C113.495 19.196 113.057 19.1493 112.646 19.056C112.245 18.9627 111.89 18.8087 111.582 18.594C111.274 18.37 111.022 18.0853 110.826 17.74C110.639 17.3853 110.527 16.9513 110.49 16.438H111.386Z" fill="#64728C"/>
<path d="M134.118 11.552C134.015 11.048 133.81 10.6467 133.502 10.348C133.194 10.04 132.774 9.886 132.242 9.886C131.635 9.886 131.155 10.0307 130.8 10.32C130.455 10.6093 130.189 10.978 130.002 11.426C129.815 11.8647 129.689 12.3453 129.624 12.868C129.559 13.3907 129.507 13.8853 129.47 14.352C129.61 14.1653 129.755 13.9787 129.904 13.792C130.063 13.6053 130.24 13.442 130.436 13.302C130.632 13.1527 130.861 13.036 131.122 12.952C131.383 12.8587 131.696 12.812 132.06 12.812C133.059 12.812 133.829 13.0967 134.37 13.666C134.921 14.226 135.196 15.0007 135.196 15.99C135.196 16.9887 134.921 17.7727 134.37 18.342C133.819 18.9113 133.04 19.196 132.032 19.196C131.537 19.196 131.08 19.1167 130.66 18.958C130.24 18.79 129.876 18.5193 129.568 18.146C129.26 17.7727 129.017 17.2873 128.84 16.69C128.663 16.0833 128.574 15.346 128.574 14.478C128.574 13.89 128.625 13.2833 128.728 12.658C128.831 12.0233 129.013 11.4447 129.274 10.922C129.545 10.3993 129.909 9.97 130.366 9.634C130.833 9.298 131.43 9.13 132.158 9.13C132.942 9.13 133.595 9.33533 134.118 9.746C134.641 10.1567 134.949 10.7587 135.042 11.552H134.118ZM132.032 13.568C131.687 13.568 131.374 13.6333 131.094 13.764C130.823 13.8947 130.59 14.072 130.394 14.296C130.207 14.52 130.063 14.7813 129.96 15.08C129.857 15.3693 129.806 15.682 129.806 16.018C129.806 16.298 129.843 16.5827 129.918 16.872C130.002 17.152 130.133 17.4087 130.31 17.642C130.497 17.8753 130.73 18.0667 131.01 18.216C131.29 18.3653 131.635 18.44 132.046 18.44C132.466 18.44 132.816 18.37 133.096 18.23C133.385 18.0807 133.619 17.8893 133.796 17.656C133.973 17.4133 134.099 17.1473 134.174 16.858C134.258 16.5593 134.3 16.2607 134.3 15.962C134.3 15.1967 134.113 14.6087 133.74 14.198C133.376 13.778 132.807 13.568 132.032 13.568Z" fill="#64728C"/>
<path d="M146.826 9.228H153.112V10.068C152.403 10.8707 151.801 11.6967 151.306 12.546C150.811 13.386 150.405 14.2073 150.088 15.01C149.771 15.8033 149.533 16.5453 149.374 17.236C149.225 17.9267 149.136 18.5147 149.108 19H148.128C148.175 18.2907 148.315 17.5393 148.548 16.746C148.791 15.9433 149.089 15.15 149.444 14.366C149.799 13.582 150.2 12.826 150.648 12.098C151.096 11.3607 151.558 10.7027 152.034 10.124H146.826V9.228Z" fill="#64728C"/>
<path d="M166 14C166 14.5523 165.552 15 165 15C164.448 15 164 14.5523 164 14C164 13.4477 164.448 13 165 13C165.552 13 166 13.4477 166 14Z" fill="#929BAA"/>
<path d="M169 14C169 14.5523 168.552 15 168 15C167.448 15 167 14.5523 167 14C167 13.4477 167.448 13 168 13C168.552 13 169 13.4477 169 14Z" fill="#929BAA"/>
<path d="M172 14C172 14.5523 171.552 15 171 15C170.448 15 170 14.5523 170 14C170 13.4477 170.448 13 171 13C171.552 13 172 13.4477 172 14Z" fill="#929BAA"/>
<path opacity="0.9" d="M183.729 16.5049C183.812 17.2067 184.137 17.6921 184.707 17.9609C184.999 18.0977 185.336 18.166 185.719 18.166C186.448 18.166 186.988 17.9336 187.339 17.4688C187.69 17.0039 187.865 16.4889 187.865 15.9238C187.865 15.2402 187.656 14.7116 187.236 14.3379C186.822 13.9642 186.323 13.7773 185.739 13.7773C185.315 13.7773 184.951 13.8594 184.646 14.0234C184.345 14.1875 184.087 14.4154 183.873 14.707L182.807 14.6455L183.552 9.375H188.638V10.5645H184.475L184.058 13.2852C184.285 13.112 184.502 12.9821 184.707 12.8955C185.072 12.7451 185.493 12.6699 185.972 12.6699C186.869 12.6699 187.631 12.9593 188.255 13.5381C188.879 14.1169 189.191 14.8506 189.191 15.7393C189.191 16.6644 188.904 17.4801 188.33 18.1865C187.76 18.8929 186.849 19.2461 185.596 19.2461C184.798 19.2461 184.092 19.0228 183.477 18.5762C182.866 18.125 182.524 17.4346 182.451 16.5049H183.729ZM193.58 9.21094C194.847 9.21094 195.763 9.73275 196.328 10.7764C196.766 11.583 196.984 12.6882 196.984 14.0918C196.984 15.4225 196.786 16.5231 196.39 17.3936C195.815 18.6423 194.877 19.2666 193.573 19.2666C192.397 19.2666 191.522 18.7562 190.948 17.7354C190.47 16.8831 190.23 15.7393 190.23 14.3037C190.23 13.1917 190.374 12.237 190.661 11.4395C191.199 9.95378 192.172 9.21094 193.58 9.21094ZM193.566 18.1455C194.204 18.1455 194.713 17.863 195.091 17.2979C195.469 16.7327 195.658 15.68 195.658 14.1396C195.658 13.0277 195.521 12.1139 195.248 11.3984C194.975 10.6784 194.444 10.3184 193.655 10.3184C192.931 10.3184 192.4 10.6602 192.062 11.3438C191.73 12.0228 191.563 13.0254 191.563 14.3516C191.563 15.3496 191.671 16.1517 191.885 16.7578C192.213 17.6829 192.773 18.1455 193.566 18.1455Z" fill="#64728C"/>
<path d="M224.707 14.707C224.8 14.6143 224.874 14.5042 224.925 14.3829C224.975 14.2615 225.001 14.1314 225.001 14C225.001 13.8686 224.975 13.7385 224.925 13.6171C224.874 13.4958 224.8 13.3857 224.707 13.293L220.464 9.05C220.372 8.95449 220.261 8.87831 220.139 8.8259C220.017 8.77349 219.886 8.7459 219.753 8.74475C219.621 8.7436 219.489 8.7689 219.366 8.81918C219.243 8.86946 219.131 8.94371 219.038 9.0376C218.944 9.1315 218.869 9.24315 218.819 9.36605C218.769 9.48894 218.744 9.62062 218.745 9.7534C218.746 9.88618 218.773 10.0174 218.826 10.1394C218.878 10.2614 218.954 10.3718 219.05 10.464L221.586 13L216 13C215.735 13 215.48 13.1054 215.293 13.2929C215.105 13.4804 215 13.7348 215 14C215 14.2652 215.105 14.5196 215.293 14.7071C215.48 14.8946 215.735 15 216 15L221.586 15L219.05 17.536C218.954 17.6282 218.878 17.7386 218.826 17.8606C218.773 17.9826 218.746 18.1138 218.745 18.2466C218.744 18.3794 218.769 18.5111 218.819 18.634C218.869 18.7569 218.944 18.8685 219.038 18.9624C219.131 19.0563 219.243 19.1305 219.366 19.1808C219.489 19.2311 219.621 19.2564 219.753 19.2553C219.886 19.2541 220.017 19.2265 220.139 19.1741C220.261 19.1217 220.372 19.0455 220.464 18.95L224.707 14.707ZM230 14C230 19.523 225.523 24 220 24C214.477 24 210 19.523 210 14C210 8.477 214.477 4 220 4C225.523 4 230 8.477 230 14Z" fill="#64728C"/>
</g>
<rect x="0.5" y="0.5" width="233" height="27" rx="13.5" stroke="#E8EAEF"/>
<defs>
<filter id="filter0_d_1091_9103" x="63" y="4" width="28" height="28" filterUnits="userSpaceOnUse" color-interpolation-filters="sRGB">
<feFlood flood-opacity="0" result="BackgroundImageFix"/>
<feColorMatrix in="SourceAlpha" type="matrix" values="0 0 0 0 0 0 0 0 0 0 0 0 0 0 0 0 0 0 127 0" result="hardAlpha"/>
<feOffset dy="4"/>
<feGaussianBlur stdDeviation="2"/>
<feComposite in2="hardAlpha" operator="out"/>
<feColorMatrix type="matrix" values="0 0 0 0 0 0 0 0 0 0 0 0 0 0 0 0 0 0 0.05 0"/>
<feBlend mode="normal" in2="BackgroundImageFix" result="effect1_dropShadow_1091_9103"/>
<feBlend mode="normal" in="SourceGraphic" in2="effect1_dropShadow_1091_9103" result="shape"/>
</filter>
<clipPath id="clip0_1091_9103">
<rect width="234" height="28" rx="14" fill="white"/>
</clipPath>
</defs>
</svg>
