<svg width="144" height="28" viewBox="0 0 144 28" fill="none" xmlns="http://www.w3.org/2000/svg">
<rect x="0.5" y="0.5" width="143" height="27" rx="13.5" stroke="#E8EAEF"/>
<path d="M9.293 13.293C9.19982 13.3857 9.12587 13.4958 9.0754 13.6171C9.02494 13.7385 8.99897 13.8686 8.99897 14C8.99897 14.1314 9.02494 14.2615 9.0754 14.3829C9.12587 14.5042 9.19982 14.6143 9.293 14.707L13.536 18.95C13.6282 19.0455 13.7386 19.1217 13.8606 19.1741C13.9826 19.2265 14.1138 19.2541 14.2466 19.2553C14.3794 19.2564 14.5111 19.2311 14.634 19.1808C14.7569 19.1305 14.8685 19.0563 14.9624 18.9624C15.0563 18.8685 15.1305 18.7569 15.1808 18.634C15.2311 18.5111 15.2564 18.3794 15.2553 18.2466C15.2541 18.1138 15.2265 17.9826 15.1741 17.8606C15.1217 17.7386 15.0455 17.6282 14.95 17.536L12.414 15L18 15C18.2652 15 18.5196 14.8946 18.7071 14.7071C18.8946 14.5196 19 14.2652 19 14C19 13.7348 18.8946 13.4804 18.7071 13.2929C18.5196 13.1054 18.2652 13 18 13L12.414 13L14.95 10.464C15.0455 10.3718 15.1217 10.2614 15.1741 10.1394C15.2265 10.0174 15.2541 9.88618 15.2553 9.7534C15.2564 9.62062 15.2311 9.48894 15.1808 9.36605C15.1305 9.24315 15.0563 9.1315 14.9624 9.0376C14.8685 8.94371 14.7569 8.86946 14.634 8.81918C14.5111 8.7689 14.3794 8.7436 14.2466 8.74475C14.1138 8.7459 13.9826 8.77349 13.8606 8.8259C13.7386 8.87831 13.6282 8.95449 13.536 9.05L9.293 13.293ZM4 14C4 8.477 8.477 4 14 4C19.523 4 24 8.477 24 14C24 19.523 19.523 24 14 24C8.477 24 4 19.523 4 14Z" fill="#64728C"/>
<path d="M32.0254 9.39258H35.8984C36.6641 9.39258 37.2812 9.60938 37.75 10.043C38.2188 10.4727 38.4531 11.0781 38.4531 11.8594C38.4531 12.5312 38.2441 13.1172 37.8262 13.6172C37.4082 14.1133 36.7656 14.3613 35.8984 14.3613H33.1914V18H32.0254V9.39258ZM37.2754 11.8652C37.2754 11.2324 37.041 10.8027 36.5723 10.5762C36.3145 10.4551 35.9609 10.3945 35.5117 10.3945H33.1914V13.377H35.5117C36.0352 13.377 36.459 13.2656 36.7832 13.043C37.1113 12.8203 37.2754 12.4277 37.2754 11.8652ZM39.8066 11.7246H40.8086V12.8086C40.8906 12.5977 41.0918 12.3418 41.4121 12.041C41.7324 11.7363 42.1016 11.584 42.5195 11.584C42.5391 11.584 42.5723 11.5859 42.6191 11.5898C42.666 11.5938 42.7461 11.6016 42.8594 11.6133V12.7266C42.7969 12.7148 42.7383 12.707 42.6836 12.7031C42.6328 12.6992 42.5762 12.6973 42.5137 12.6973C41.9824 12.6973 41.5742 12.8691 41.2891 13.2129C41.0039 13.5527 40.8613 13.9453 40.8613 14.3906V18H39.8066V11.7246ZM46.3867 11.584C46.832 11.584 47.2637 11.6895 47.6816 11.9004C48.0996 12.1074 48.418 12.377 48.6367 12.709C48.8477 13.0254 48.9883 13.3945 49.0586 13.8164C49.1211 14.1055 49.1523 14.5664 49.1523 15.1992H44.5527C44.5723 15.8359 44.7227 16.3477 45.0039 16.7344C45.2852 17.1172 45.7207 17.3086 46.3105 17.3086C46.8613 17.3086 47.3008 17.127 47.6289 16.7637C47.8164 16.5527 47.9492 16.3086 48.0273 16.0312H49.0645C49.0371 16.2617 48.9453 16.5195 48.7891 16.8047C48.6367 17.0859 48.4648 17.3164 48.2734 17.4961C47.9531 17.8086 47.5566 18.0195 47.084 18.1289C46.8301 18.1914 46.543 18.2227 46.2227 18.2227C45.4414 18.2227 44.7793 17.9395 44.2363 17.373C43.6934 16.8027 43.4219 16.0059 43.4219 14.9824C43.4219 13.9746 43.6953 13.1562 44.2422 12.5273C44.7891 11.8984 45.5039 11.584 46.3867 11.584ZM48.0684 14.3613C48.0254 13.9043 47.9258 13.5391 47.7695 13.2656C47.4805 12.7578 46.998 12.5039 46.3223 12.5039C45.8379 12.5039 45.4316 12.6797 45.1035 13.0312C44.7754 13.3789 44.6016 13.8223 44.582 14.3613H48.0684ZM50.9688 11.7246L52.6445 16.834L54.3965 11.7246H55.5508L53.1836 18H52.0586L49.7441 11.7246H50.9688ZM56.4531 11.7539H57.5254V18H56.4531V11.7539ZM56.4531 9.39258H57.5254V10.5879H56.4531V9.39258ZM61.6152 17.3203C62.3145 17.3203 62.793 17.0566 63.0508 16.5293C63.3125 15.998 63.4434 15.4082 63.4434 14.7598C63.4434 14.1738 63.3496 13.6973 63.1621 13.3301C62.8652 12.752 62.3535 12.4629 61.627 12.4629C60.9824 12.4629 60.5137 12.709 60.2207 13.2012C59.9277 13.6934 59.7812 14.2871 59.7812 14.9824C59.7812 15.6504 59.9277 16.207 60.2207 16.6523C60.5137 17.0977 60.9785 17.3203 61.6152 17.3203ZM61.6562 11.543C62.4648 11.543 63.1484 11.8125 63.707 12.3516C64.2656 12.8906 64.5449 13.6836 64.5449 14.7305C64.5449 15.7422 64.2988 16.5781 63.8066 17.2383C63.3145 17.8984 62.5508 18.2285 61.5156 18.2285C60.6523 18.2285 59.9668 17.9375 59.459 17.3555C58.9512 16.7695 58.6973 15.9844 58.6973 15C58.6973 13.9453 58.9648 13.1055 59.5 12.4805C60.0352 11.8555 60.7539 11.543 61.6562 11.543ZM66.8594 11.7246V15.8906C66.8594 16.2109 66.9102 16.4727 67.0117 16.6758C67.1992 17.0508 67.5488 17.2383 68.0605 17.2383C68.7949 17.2383 69.2949 16.9102 69.5605 16.2539C69.7051 15.9023 69.7773 15.4199 69.7773 14.8066V11.7246H70.832V18H69.8359L69.8477 17.0742C69.7109 17.3125 69.541 17.5137 69.3379 17.6777C68.9355 18.0059 68.4473 18.1699 67.873 18.1699C66.9785 18.1699 66.3691 17.8711 66.0449 17.2734C65.8691 16.9531 65.7812 16.5254 65.7812 15.9902V11.7246H66.8594ZM73.1113 16.0312C73.1426 16.3828 73.2305 16.6523 73.375 16.8398C73.6406 17.1797 74.1016 17.3496 74.7578 17.3496C75.1484 17.3496 75.4922 17.2656 75.7891 17.0977C76.0859 16.9258 76.2344 16.6621 76.2344 16.3066C76.2344 16.0371 76.1152 15.832 75.877 15.6914C75.7246 15.6055 75.4238 15.5059 74.9746 15.3926L74.1367 15.1816C73.6016 15.0488 73.207 14.9004 72.9531 14.7363C72.5 14.4512 72.2734 14.0566 72.2734 13.5527C72.2734 12.959 72.4863 12.4785 72.9121 12.1113C73.3418 11.7441 73.918 11.5605 74.6406 11.5605C75.5859 11.5605 76.2676 11.8379 76.6855 12.3926C76.9473 12.7441 77.0742 13.123 77.0664 13.5293H76.0703C76.0508 13.291 75.9668 13.0742 75.8184 12.8789C75.5762 12.6016 75.1562 12.4629 74.5586 12.4629C74.1602 12.4629 73.8574 12.5391 73.6504 12.6914C73.4473 12.8438 73.3457 13.0449 73.3457 13.2949C73.3457 13.5684 73.4805 13.7871 73.75 13.9512C73.9062 14.0488 74.1367 14.1348 74.4414 14.209L75.1387 14.3789C75.8965 14.5625 76.4043 14.7402 76.6621 14.9121C77.0723 15.1816 77.2773 15.6055 77.2773 16.1836C77.2773 16.7422 77.0645 17.2246 76.6387 17.6309C76.2168 18.0371 75.5723 18.2402 74.7051 18.2402C73.7715 18.2402 73.1094 18.0293 72.7188 17.6074C72.332 17.1816 72.125 16.6562 72.0977 16.0312H73.1113Z" fill="#38455D"/>
<line x1="83.5" y1="6.5" x2="83.5" y2="21.5" stroke="#64728C"/>
<path d="M88.9141 9.39258H90.291L94.6387 16.3652V9.39258H95.7461V18H94.4395L90.0273 11.0332V18H88.9141V9.39258ZM100.059 11.584C100.504 11.584 100.936 11.6895 101.354 11.9004C101.771 12.1074 102.09 12.377 102.309 12.709C102.52 13.0254 102.66 13.3945 102.73 13.8164C102.793 14.1055 102.824 14.5664 102.824 15.1992H98.2246C98.2441 15.8359 98.3945 16.3477 98.6758 16.7344C98.957 17.1172 99.3926 17.3086 99.9824 17.3086C100.533 17.3086 100.973 17.127 101.301 16.7637C101.488 16.5527 101.621 16.3086 101.699 16.0312H102.736C102.709 16.2617 102.617 16.5195 102.461 16.8047C102.309 17.0859 102.137 17.3164 101.945 17.4961C101.625 17.8086 101.229 18.0195 100.756 18.1289C100.502 18.1914 100.215 18.2227 99.8945 18.2227C99.1133 18.2227 98.4512 17.9395 97.9082 17.373C97.3652 16.8027 97.0938 16.0059 97.0938 14.9824C97.0938 13.9746 97.3672 13.1562 97.9141 12.5273C98.4609 11.8984 99.1758 11.584 100.059 11.584ZM101.74 14.3613C101.697 13.9043 101.598 13.5391 101.441 13.2656C101.152 12.7578 100.67 12.5039 99.9941 12.5039C99.5098 12.5039 99.1035 12.6797 98.7754 13.0312C98.4473 13.3789 98.2734 13.8223 98.2539 14.3613H101.74ZM103.527 11.7246H104.893L106.334 13.9336L107.793 11.7246L109.076 11.7539L106.961 14.7832L109.17 18H107.822L106.264 15.6445L104.752 18H103.416L105.625 14.7832L103.527 11.7246ZM110.336 9.97266H111.402V11.7246H112.404V12.5859H111.402V16.6816C111.402 16.9004 111.477 17.0469 111.625 17.1211C111.707 17.1641 111.844 17.1855 112.035 17.1855C112.086 17.1855 112.141 17.1855 112.199 17.1855C112.258 17.1816 112.326 17.1758 112.404 17.168V18C112.283 18.0352 112.156 18.0605 112.023 18.0762C111.895 18.0918 111.754 18.0996 111.602 18.0996C111.109 18.0996 110.775 17.9746 110.6 17.7246C110.424 17.4707 110.336 17.1426 110.336 16.7402V12.5859H109.486V11.7246H110.336V9.97266Z" fill="#38455D"/>
<path d="M134.707 14.707C134.8 14.6143 134.874 14.5042 134.925 14.3829C134.975 14.2615 135.001 14.1314 135.001 14C135.001 13.8686 134.975 13.7385 134.925 13.6171C134.874 13.4958 134.8 13.3857 134.707 13.293L130.464 9.05C130.372 8.95449 130.261 8.87831 130.139 8.8259C130.017 8.77349 129.886 8.7459 129.753 8.74475C129.621 8.7436 129.489 8.7689 129.366 8.81918C129.243 8.86946 129.131 8.94371 129.038 9.0376C128.944 9.1315 128.869 9.24315 128.819 9.36605C128.769 9.48894 128.744 9.62062 128.745 9.7534C128.746 9.88618 128.773 10.0174 128.826 10.1394C128.878 10.2614 128.954 10.3718 129.05 10.464L131.586 13L126 13C125.735 13 125.48 13.1054 125.293 13.2929C125.105 13.4804 125 13.7348 125 14C125 14.2652 125.105 14.5196 125.293 14.7071C125.48 14.8946 125.735 15 126 15L131.586 15L129.05 17.536C128.954 17.6282 128.878 17.7386 128.826 17.8606C128.773 17.9826 128.746 18.1138 128.745 18.2466C128.744 18.3794 128.769 18.5111 128.819 18.634C128.869 18.7569 128.944 18.8685 129.038 18.9624C129.131 19.0563 129.243 19.1305 129.366 19.1808C129.489 19.2311 129.621 19.2564 129.753 19.2553C129.886 19.2541 130.017 19.2265 130.139 19.1741C130.261 19.1217 130.372 19.0455 130.464 18.95L134.707 14.707ZM140 14C140 19.523 135.523 24 130 24C124.477 24 120 19.523 120 14C120 8.477 124.477 4 130 4C135.523 4 140 8.477 140 14Z" fill="#64728C"/>
</svg>
