<svg width="147" height="28" viewBox="0 0 147 28" fill="none" xmlns="http://www.w3.org/2000/svg">
<rect x="77.5" y="0.5" width="69" height="27" rx="13.5" stroke="#E8EAEF"/>
<path d="M91.9141 9.39258H93.291L97.6387 16.3652V9.39258H98.7461V18H97.4395L93.0273 11.0332V18H91.9141V9.39258ZM103.059 11.584C103.504 11.584 103.936 11.6895 104.354 11.9004C104.771 12.1074 105.09 12.377 105.309 12.709C105.52 13.0254 105.66 13.3945 105.73 13.8164C105.793 14.1055 105.824 14.5664 105.824 15.1992H101.225C101.244 15.8359 101.395 16.3477 101.676 16.7344C101.957 17.1172 102.393 17.3086 102.982 17.3086C103.533 17.3086 103.973 17.127 104.301 16.7637C104.488 16.5527 104.621 16.3086 104.699 16.0312H105.736C105.709 16.2617 105.617 16.5195 105.461 16.8047C105.309 17.0859 105.137 17.3164 104.945 17.4961C104.625 17.8086 104.229 18.0195 103.756 18.1289C103.502 18.1914 103.215 18.2227 102.895 18.2227C102.113 18.2227 101.451 17.9395 100.908 17.373C100.365 16.8027 100.094 16.0059 100.094 14.9824C100.094 13.9746 100.367 13.1562 100.914 12.5273C101.461 11.8984 102.176 11.584 103.059 11.584ZM104.74 14.3613C104.697 13.9043 104.598 13.5391 104.441 13.2656C104.152 12.7578 103.67 12.5039 102.994 12.5039C102.51 12.5039 102.104 12.6797 101.775 13.0312C101.447 13.3789 101.273 13.8223 101.254 14.3613H104.74ZM106.527 11.7246H107.893L109.334 13.9336L110.793 11.7246L112.076 11.7539L109.961 14.7832L112.17 18H110.822L109.264 15.6445L107.752 18H106.416L108.625 14.7832L106.527 11.7246ZM113.336 9.97266H114.402V11.7246H115.404V12.5859H114.402V16.6816C114.402 16.9004 114.477 17.0469 114.625 17.1211C114.707 17.1641 114.844 17.1855 115.035 17.1855C115.086 17.1855 115.141 17.1855 115.199 17.1855C115.258 17.1816 115.326 17.1758 115.404 17.168V18C115.283 18.0352 115.156 18.0605 115.023 18.0762C114.895 18.0918 114.754 18.0996 114.602 18.0996C114.109 18.0996 113.775 17.9746 113.6 17.7246C113.424 17.4707 113.336 17.1426 113.336 16.7402V12.5859H112.486V11.7246H113.336V9.97266Z" fill="#38455D"/>
<path d="M137.707 14.707C137.8 14.6143 137.874 14.5042 137.925 14.3829C137.975 14.2615 138.001 14.1314 138.001 14C138.001 13.8686 137.975 13.7385 137.925 13.6171C137.874 13.4958 137.8 13.3857 137.707 13.293L133.464 9.05C133.372 8.95449 133.261 8.87831 133.139 8.8259C133.017 8.77349 132.886 8.7459 132.753 8.74475C132.621 8.7436 132.489 8.7689 132.366 8.81918C132.243 8.86946 132.131 8.94371 132.038 9.0376C131.944 9.1315 131.869 9.24315 131.819 9.36605C131.769 9.48894 131.744 9.62062 131.745 9.7534C131.746 9.88618 131.773 10.0174 131.826 10.1394C131.878 10.2614 131.954 10.3718 132.05 10.464L134.586 13L129 13C128.735 13 128.48 13.1054 128.293 13.2929C128.105 13.4804 128 13.7348 128 14C128 14.2652 128.105 14.5196 128.293 14.7071C128.48 14.8946 128.735 15 129 15L134.586 15L132.05 17.536C131.954 17.6282 131.878 17.7386 131.826 17.8606C131.773 17.9826 131.746 18.1138 131.745 18.2466C131.744 18.3794 131.769 18.5111 131.819 18.634C131.869 18.7569 131.944 18.8685 132.038 18.9624C132.131 19.0563 132.243 19.1305 132.366 19.1808C132.489 19.2311 132.621 19.2564 132.753 19.2553C132.886 19.2541 133.017 19.2265 133.139 19.1741C133.261 19.1217 133.372 19.0455 133.464 18.95L137.707 14.707ZM143 14C143 19.523 138.523 24 133 24C127.477 24 123 19.523 123 14C123 8.477 127.477 4 133 4C138.523 4 143 8.477 143 14Z" fill="#64728C"/>
<rect x="0.5" y="0.5" width="71" height="27" rx="13.5" stroke="#E8EAEF"/>
<path d="M9.293 13.293C9.19982 13.3857 9.12587 13.4958 9.0754 13.6171C9.02494 13.7385 8.99897 13.8686 8.99897 14C8.99897 14.1314 9.02494 14.2615 9.0754 14.3829C9.12587 14.5042 9.19982 14.6143 9.293 14.707L13.536 18.95C13.6282 19.0455 13.7386 19.1217 13.8606 19.1741C13.9826 19.2265 14.1138 19.2541 14.2466 19.2553C14.3794 19.2564 14.5111 19.2311 14.634 19.1808C14.7569 19.1305 14.8685 19.0563 14.9624 18.9624C15.0563 18.8685 15.1305 18.7569 15.1808 18.634C15.2311 18.5111 15.2564 18.3794 15.2553 18.2466C15.2541 18.1138 15.2265 17.9826 15.1741 17.8606C15.1217 17.7386 15.0455 17.6282 14.95 17.536L12.414 15L18 15C18.2652 15 18.5196 14.8946 18.7071 14.7071C18.8946 14.5196 19 14.2652 19 14C19 13.7348 18.8946 13.4804 18.7071 13.2929C18.5196 13.1054 18.2652 13 18 13L12.414 13L14.95 10.464C15.0455 10.3718 15.1217 10.2614 15.1741 10.1394C15.2265 10.0174 15.2541 9.88618 15.2553 9.7534C15.2564 9.62062 15.2311 9.48894 15.1808 9.36605C15.1305 9.24315 15.0563 9.1315 14.9624 9.0376C14.8685 8.94371 14.7569 8.86946 14.634 8.81918C14.5111 8.7689 14.3794 8.7436 14.2466 8.74475C14.1138 8.7459 13.9826 8.77349 13.8606 8.8259C13.7386 8.87831 13.6282 8.95449 13.536 9.05L9.293 13.293ZM4 14C4 8.477 8.477 4 14 4C19.523 4 24 8.477 24 14C24 19.523 19.523 24 14 24C8.477 24 4 19.523 4 14Z" fill="#64728C"/>
<path d="M35.1484 13.0312C35.6406 13.0312 36.0234 12.9629 36.2969 12.8262C36.7266 12.6113 36.9414 12.2246 36.9414 11.666C36.9414 11.1035 36.7129 10.7246 36.2559 10.5293C35.998 10.4199 35.6152 10.3652 35.1074 10.3652H33.0273V13.0312H35.1484ZM35.541 17.0039C36.2559 17.0039 36.7656 16.7969 37.0703 16.3828C37.2617 16.1211 37.3574 15.8047 37.3574 15.4336C37.3574 14.8086 37.0781 14.3828 36.5195 14.1562C36.2227 14.0352 35.8301 13.9746 35.3418 13.9746H33.0273V17.0039H35.541ZM31.8848 9.39258H35.582C36.5898 9.39258 37.3066 9.69336 37.7324 10.2949C37.9824 10.6504 38.1074 11.0605 38.1074 11.5254C38.1074 12.0684 37.9531 12.5137 37.6445 12.8613C37.4844 13.0449 37.2539 13.2129 36.9531 13.3652C37.3945 13.5332 37.7246 13.7227 37.9434 13.9336C38.3301 14.3086 38.5234 14.8262 38.5234 15.4863C38.5234 16.041 38.3496 16.543 38.002 16.9922C37.4824 17.6641 36.6562 18 35.5234 18H31.8848V9.39258ZM40.5859 16.3301C40.5859 16.6348 40.6973 16.875 40.9199 17.0508C41.1426 17.2266 41.4062 17.3145 41.7109 17.3145C42.082 17.3145 42.4414 17.2285 42.7891 17.0566C43.375 16.7715 43.668 16.3047 43.668 15.6562V14.8066C43.5391 14.8887 43.373 14.957 43.1699 15.0117C42.9668 15.0664 42.7676 15.1055 42.5723 15.1289L41.9336 15.2109C41.5508 15.2617 41.2637 15.3418 41.0723 15.4512C40.748 15.6348 40.5859 15.9277 40.5859 16.3301ZM43.1406 14.1973C43.3828 14.166 43.5449 14.0645 43.627 13.8926C43.6738 13.7988 43.6973 13.6641 43.6973 13.4883C43.6973 13.1289 43.5684 12.8691 43.3105 12.709C43.0566 12.5449 42.6914 12.4629 42.2148 12.4629C41.6641 12.4629 41.2734 12.6113 41.043 12.9082C40.9141 13.0723 40.8301 13.3164 40.791 13.6406H39.8066C39.8262 12.8672 40.0762 12.3301 40.5566 12.0293C41.041 11.7246 41.6016 11.5723 42.2383 11.5723C42.9766 11.5723 43.5762 11.7129 44.0371 11.9941C44.4941 12.2754 44.7227 12.7129 44.7227 13.3066V16.9219C44.7227 17.0312 44.7441 17.1191 44.7871 17.1855C44.834 17.252 44.9297 17.2852 45.0742 17.2852C45.1211 17.2852 45.1738 17.2832 45.2324 17.2793C45.291 17.2715 45.3535 17.2617 45.4199 17.25V18.0293C45.2559 18.0762 45.1309 18.1055 45.0449 18.1172C44.959 18.1289 44.8418 18.1348 44.6934 18.1348C44.3301 18.1348 44.0664 18.0059 43.9023 17.748C43.8164 17.6113 43.7559 17.418 43.7207 17.168C43.5059 17.4492 43.1973 17.6934 42.7949 17.9004C42.3926 18.1074 41.9492 18.2109 41.4648 18.2109C40.8828 18.2109 40.4062 18.0352 40.0352 17.6836C39.668 17.3281 39.4844 16.8848 39.4844 16.3535C39.4844 15.7715 39.666 15.3203 40.0293 15C40.3926 14.6797 40.8691 14.4824 41.459 14.4082L43.1406 14.1973ZM48.877 11.543C49.584 11.543 50.1582 11.7148 50.5996 12.0586C51.0449 12.4023 51.3125 12.9941 51.4023 13.834H50.377C50.3145 13.4473 50.1719 13.127 49.9492 12.873C49.7266 12.6152 49.3691 12.4863 48.877 12.4863C48.2051 12.4863 47.7246 12.8145 47.4355 13.4707C47.248 13.8965 47.1543 14.4219 47.1543 15.0469C47.1543 15.6758 47.2871 16.2051 47.5527 16.6348C47.8184 17.0645 48.2363 17.2793 48.8066 17.2793C49.2441 17.2793 49.5898 17.1465 49.8438 16.8809C50.1016 16.6113 50.2793 16.2441 50.377 15.7793H51.4023C51.2852 16.6113 50.9922 17.2207 50.5234 17.6074C50.0547 17.9902 49.4551 18.1816 48.7246 18.1816C47.9043 18.1816 47.25 17.8828 46.7617 17.2852C46.2734 16.6836 46.0293 15.9336 46.0293 15.0352C46.0293 13.9336 46.2969 13.0762 46.832 12.4629C47.3672 11.8496 48.0488 11.543 48.877 11.543ZM52.4336 9.39258H53.4473V14.3906L56.1543 11.7246H57.502L55.0996 14.0742L57.6367 18H56.2891L54.332 14.8359L53.4473 15.6445V18H52.4336V9.39258Z" fill="#38455D"/>
</svg>
