<svg width="371" height="63" viewBox="0 0 371 63" fill="none" xmlns="http://www.w3.org/2000/svg">
<rect y="51" width="371" height="12" rx="6" fill="#64728C" fill-opacity="0.12"/>
<path d="M0 57C0 53.6863 2.68629 51 6 51H275C278.314 51 281 53.6863 281 57C281 60.3137 278.314 63 275 63H5.99999C2.68629 63 0 60.3137 0 57Z" fill="#76BC21"/>
<path d="M0 57C0 53.6863 2.68629 51 6 51H275C278.314 51 281 53.6863 281 57C281 60.3137 278.314 63 275 63H5.99999C2.68629 63 0 60.3137 0 57Z" fill="url(#paint0_linear_1132_9901)"/>
<g clip-path="url(#clip0_1132_9901)">
<path d="M185.826 11.8985C186.484 11.6454 187.103 11.4896 187.684 11.3143C189.039 10.9054 190.394 10.9638 191.768 11.2559C193.703 11.6648 195.523 12.5022 197.11 13.7291C198.794 15.0338 199.877 16.7475 200.516 18.7727C201.755 22.8038 200.884 27.6333 198.155 30.8464C195.581 33.8648 192.348 35.6954 188.4 36.2017C184.994 36.6301 181.819 35.9291 178.819 34.3127C176.632 33.1443 174.755 31.4501 173.381 29.3664C172.123 27.4775 171.29 25.4133 171.097 23.1543C170.807 19.9996 171.755 17.2538 173.845 14.8975C174.503 14.1575 175.258 13.5148 176.11 12.9891C177.542 12.0933 179.265 11.8012 180.91 12.1517C182.69 12.5217 184.316 13.1838 185.748 14.3133C186.794 15.1506 187.587 16.1438 187.955 17.468C187.994 17.6433 188.032 17.8185 188.071 17.9938C188.071 18.0912 188.129 18.2275 187.994 18.2664C187.858 18.3054 187.723 18.3638 187.607 18.208C187.51 18.0912 187.432 17.9743 187.336 17.877C185.807 16.0659 183.619 14.917 181.277 14.6638C180.677 14.5859 180.077 14.6054 179.497 14.7027C178.684 14.8391 177.929 15.2285 177.348 15.8322C175.703 17.4875 174.774 19.4738 174.929 21.8496C175.045 23.5048 175.684 24.9848 176.671 26.3091C178.258 28.4317 180.503 29.9506 183.039 30.6517C186.271 31.567 189.426 31.3527 192.426 29.7948C193.974 28.9964 195.271 27.9254 196.142 26.3675C196.781 25.2185 197.187 23.9722 197.361 22.6675C197.497 21.6743 197.497 20.6617 197.381 19.6685C197.226 18.5391 196.742 17.4875 196.026 16.6306C194.865 15.1701 193.336 14.0406 191.613 13.3591C190.2 12.7748 188.71 12.4438 187.219 12.1712C186.794 12.0933 186.368 12.0154 185.845 11.8985H185.826Z" fill="#FF7B1D"/>
<path d="M194.632 2.33676C192.697 3.15466 190.819 4.10887 189.019 5.1994C187.645 5.99782 186.348 6.93255 185.129 7.94518C184.877 8.1594 184.645 8.37361 184.374 8.62676C184.336 8.35413 184.336 8.06203 184.374 7.7894C184.452 6.6015 184.723 5.43308 185.207 4.34255C185.826 2.94045 186.968 1.83045 188.4 1.28519C189.987 0.681501 191.652 0.272554 193.355 0.116764C194.574 -0.0195514 195.794 -0.0584988 197.013 -7.7717e-05C197.69 -7.7717e-05 198.348 0.0583433 199.007 0.175185C199.045 0.233606 199.045 0.311501 199.007 0.369922C197.884 2.70676 196.684 4.98519 195.136 7.06887C194.942 7.32203 194.748 7.55571 194.555 7.80887C193.936 8.56834 193.084 9.13308 192.155 9.42519C190.897 9.81466 189.619 10.0873 188.323 10.2431C187.703 10.321 187.084 10.3989 186.465 10.4768C186.348 10.4962 186.252 10.4962 186.136 10.4768C186.174 10.3015 186.252 10.1457 186.368 10.0094C187.142 8.72413 188.168 7.63361 189.252 6.64045C190.858 5.16045 192.619 3.89466 194.419 2.66782C194.536 2.58992 194.632 2.51203 194.729 2.43413C194.845 2.41466 194.942 2.31729 194.981 2.20045C194.845 2.20045 194.729 2.2394 194.632 2.33676Z" fill="#178917"/>
</g>
<defs>
<linearGradient id="paint0_linear_1132_9901" x1="45" y1="57" x2="326" y2="57" gradientUnits="userSpaceOnUse">
<stop stop-color="#10DE10"/>
<stop offset="0.135" stop-color="#76BC21"/>
<stop offset="0.3" stop-color="#FFAA00"/>
<stop offset="0.437145" stop-color="#FF7B1D"/>
<stop offset="0.548731" stop-color="#FE5000"/>
<stop offset="0.666056" stop-color="#FFCFB9"/>
<stop offset="0.766941" stop-color="white"/>
<stop offset="0.876094" stop-color="#D7FDA9"/>
<stop offset="0.981223" stop-color="#1EDE1E"/>
</linearGradient>
<clipPath id="clip0_1132_9901">
<rect width="30" height="37" fill="white" transform="translate(171)"/>
</clipPath>
</defs>
</svg>
