<svg width="327" height="376" viewBox="0 0 327 376" fill="none" xmlns="http://www.w3.org/2000/svg">
<path d="M94.984 367.24C93.112 367.24 91.528 366.888 90.232 366.184C88.952 365.48 87.976 364.48 87.304 363.184C86.632 361.888 86.296 360.352 86.296 358.576C86.296 357.232 86.488 356.024 86.872 354.952C87.272 353.88 87.84 352.968 88.576 352.216C89.328 351.448 90.24 350.864 91.312 350.464C92.384 350.048 93.6 349.84 94.96 349.84C95.856 349.84 96.752 349.952 97.648 350.176C98.56 350.384 99.416 350.744 100.216 351.256C100.488 351.432 100.664 351.648 100.744 351.904C100.84 352.16 100.856 352.424 100.792 352.696C100.728 352.952 100.608 353.176 100.432 353.368C100.256 353.56 100.032 353.68 99.76 353.728C99.504 353.776 99.216 353.712 98.896 353.536C98.288 353.184 97.672 352.928 97.048 352.768C96.424 352.608 95.728 352.528 94.96 352.528C93.776 352.528 92.776 352.768 91.96 353.248C91.144 353.712 90.528 354.392 90.112 355.288C89.712 356.184 89.512 357.28 89.512 358.576C89.512 360.544 89.984 362.04 90.928 363.064C91.872 364.088 93.272 364.6 95.128 364.6C95.768 364.6 96.416 364.536 97.072 364.408C97.728 364.28 98.368 364.104 98.992 363.88L98.392 365.248V360.136H95.752C95.352 360.136 95.04 360.032 94.816 359.824C94.608 359.616 94.504 359.336 94.504 358.984C94.504 358.616 94.608 358.336 94.816 358.144C95.04 357.952 95.352 357.856 95.752 357.856H99.712C100.112 357.856 100.416 357.968 100.624 358.192C100.848 358.4 100.96 358.704 100.96 359.104V364.936C100.96 365.288 100.888 365.584 100.744 365.824C100.616 366.064 100.4 366.24 100.096 366.352C99.392 366.608 98.584 366.824 97.672 367C96.76 367.16 95.864 367.24 94.984 367.24ZM109.584 367.24C108.368 367.24 107.312 366.992 106.416 366.496C105.52 366 104.824 365.296 104.328 364.384C103.832 363.456 103.584 362.368 103.584 361.12C103.584 360.176 103.72 359.336 103.992 358.6C104.28 357.848 104.688 357.208 105.216 356.68C105.744 356.136 106.376 355.728 107.112 355.456C107.848 355.168 108.672 355.024 109.584 355.024C110.8 355.024 111.856 355.272 112.752 355.768C113.648 356.264 114.344 356.968 114.84 357.88C115.336 358.792 115.584 359.872 115.584 361.12C115.584 362.064 115.44 362.912 115.152 363.664C114.88 364.416 114.48 365.064 113.952 365.608C113.424 366.136 112.792 366.544 112.056 366.832C111.32 367.104 110.496 367.24 109.584 367.24ZM109.584 364.96C110.176 364.96 110.696 364.816 111.144 364.528C111.592 364.24 111.936 363.816 112.176 363.256C112.432 362.68 112.56 361.968 112.56 361.12C112.56 359.84 112.288 358.888 111.744 358.264C111.2 357.624 110.48 357.304 109.584 357.304C108.992 357.304 108.472 357.448 108.024 357.736C107.576 358.008 107.224 358.432 106.968 359.008C106.728 359.568 106.608 360.272 106.608 361.12C106.608 362.384 106.88 363.344 107.424 364C107.968 364.64 108.688 364.96 109.584 364.96ZM121.924 367.24C121.076 367.24 120.316 367.08 119.644 366.76C118.988 366.424 118.468 365.976 118.084 365.416C117.716 364.856 117.532 364.224 117.532 363.52C117.532 362.656 117.756 361.976 118.204 361.48C118.652 360.968 119.38 360.6 120.388 360.376C121.396 360.152 122.748 360.04 124.444 360.04H125.644V361.768H124.468C123.476 361.768 122.684 361.816 122.092 361.912C121.5 362.008 121.076 362.176 120.82 362.416C120.58 362.64 120.46 362.96 120.46 363.376C120.46 363.904 120.644 364.336 121.012 364.672C121.38 365.008 121.892 365.176 122.548 365.176C123.076 365.176 123.54 365.056 123.94 364.816C124.356 364.56 124.684 364.216 124.924 363.784C125.164 363.352 125.284 362.856 125.284 362.296V359.536C125.284 358.736 125.108 358.16 124.756 357.808C124.404 357.456 123.812 357.28 122.98 357.28C122.516 357.28 122.012 357.336 121.468 357.448C120.94 357.56 120.38 357.752 119.788 358.024C119.484 358.168 119.212 358.208 118.972 358.144C118.748 358.08 118.572 357.952 118.444 357.76C118.316 357.552 118.252 357.328 118.252 357.088C118.252 356.848 118.316 356.616 118.444 356.392C118.572 356.152 118.788 355.976 119.092 355.864C119.828 355.56 120.532 355.344 121.204 355.216C121.892 355.088 122.516 355.024 123.076 355.024C124.228 355.024 125.172 355.2 125.908 355.552C126.66 355.904 127.22 356.44 127.588 357.16C127.956 357.864 128.14 358.776 128.14 359.896V365.656C128.14 366.152 128.02 366.536 127.78 366.808C127.54 367.064 127.196 367.192 126.748 367.192C126.3 367.192 125.948 367.064 125.692 366.808C125.452 366.536 125.332 366.152 125.332 365.656V364.504H125.524C125.412 365.064 125.188 365.552 124.852 365.968C124.532 366.368 124.124 366.68 123.628 366.904C123.132 367.128 122.564 367.24 121.924 367.24ZM135.193 367.24C133.865 367.24 132.865 366.864 132.193 366.112C131.521 365.344 131.185 364.224 131.185 362.752V351.4C131.185 350.904 131.313 350.528 131.569 350.272C131.825 350.016 132.193 349.888 132.673 349.888C133.153 349.888 133.521 350.016 133.777 350.272C134.049 350.528 134.185 350.904 134.185 351.4V362.608C134.185 363.344 134.337 363.888 134.641 364.24C134.961 364.592 135.409 364.768 135.985 364.768C136.113 364.768 136.233 364.768 136.345 364.768C136.457 364.752 136.569 364.736 136.681 364.72C136.905 364.688 137.057 364.752 137.137 364.912C137.217 365.056 137.257 365.36 137.257 365.824C137.257 366.224 137.177 366.536 137.017 366.76C136.857 366.984 136.593 367.12 136.225 367.168C136.065 367.184 135.897 367.2 135.721 367.216C135.545 367.232 135.369 367.24 135.193 367.24ZM151.605 367.192C151.173 367.192 150.821 367.088 150.549 366.88C150.293 366.672 150.085 366.344 149.925 365.896L144.909 351.712C144.733 351.2 144.765 350.768 145.005 350.416C145.261 350.064 145.685 349.888 146.277 349.888C146.709 349.888 147.045 349.992 147.285 350.2C147.525 350.392 147.717 350.704 147.861 351.136L152.181 363.952H151.221L155.733 351.16C155.893 350.728 156.093 350.408 156.333 350.2C156.573 349.992 156.885 349.888 157.269 349.888C157.653 349.888 157.957 349.992 158.181 350.2C158.405 350.408 158.597 350.736 158.757 351.184L163.125 363.952H162.285L166.677 351.136C166.821 350.72 167.013 350.408 167.253 350.2C167.493 349.992 167.821 349.888 168.237 349.888C168.749 349.888 169.125 350.064 169.365 350.416C169.605 350.768 169.637 351.2 169.461 351.712L164.397 365.92C164.237 366.352 164.029 366.672 163.773 366.88C163.517 367.088 163.173 367.192 162.741 367.192C162.309 367.192 161.965 367.088 161.709 366.88C161.453 366.672 161.245 366.344 161.085 365.896L156.909 353.992H157.461L153.237 365.92C153.077 366.352 152.869 366.672 152.613 366.88C152.373 367.088 152.037 367.192 151.605 367.192ZM176.367 367.24C175.039 367.24 173.895 366.992 172.935 366.496C171.975 366 171.231 365.296 170.703 364.384C170.191 363.472 169.935 362.392 169.935 361.144C169.935 359.928 170.183 358.864 170.679 357.952C171.191 357.04 171.887 356.328 172.767 355.816C173.663 355.288 174.679 355.024 175.815 355.024C176.647 355.024 177.391 355.16 178.047 355.432C178.719 355.704 179.287 356.096 179.751 356.608C180.231 357.12 180.591 357.744 180.831 358.48C181.087 359.2 181.215 360.016 181.215 360.928C181.215 361.216 181.111 361.44 180.903 361.6C180.711 361.744 180.431 361.816 180.063 361.816H172.359V360.088H179.103L178.719 360.448C178.719 359.712 178.607 359.096 178.383 358.6C178.175 358.104 177.863 357.728 177.447 357.472C177.047 357.2 176.543 357.064 175.935 357.064C175.263 357.064 174.687 357.224 174.207 357.544C173.743 357.848 173.383 358.288 173.127 358.864C172.887 359.424 172.767 360.096 172.767 360.88V361.048C172.767 362.36 173.071 363.344 173.679 364C174.303 364.64 175.215 364.96 176.415 364.96C176.831 364.96 177.295 364.912 177.807 364.816C178.335 364.704 178.831 364.52 179.295 364.264C179.631 364.072 179.927 363.992 180.183 364.024C180.439 364.04 180.639 364.128 180.783 364.288C180.943 364.448 181.039 364.648 181.071 364.888C181.103 365.112 181.055 365.344 180.927 365.584C180.815 365.824 180.615 366.032 180.327 366.208C179.767 366.56 179.119 366.824 178.383 367C177.663 367.16 176.991 367.24 176.367 367.24ZM185.079 367.168C184.599 367.168 184.231 367.024 183.975 366.736C183.719 366.448 183.591 366.048 183.591 365.536V356.728C183.591 356.2 183.719 355.8 183.975 355.528C184.231 355.24 184.599 355.096 185.079 355.096C185.559 355.096 185.927 355.24 186.183 355.528C186.455 355.8 186.591 356.2 186.591 356.728V365.536C186.591 366.048 186.463 366.448 186.207 366.736C185.951 367.024 185.575 367.168 185.079 367.168ZM185.079 352.864C184.519 352.864 184.079 352.728 183.759 352.456C183.455 352.168 183.303 351.776 183.303 351.28C183.303 350.768 183.455 350.376 183.759 350.104C184.079 349.832 184.519 349.696 185.079 349.696C185.655 349.696 186.095 349.832 186.399 350.104C186.703 350.376 186.855 350.768 186.855 351.28C186.855 351.776 186.703 352.168 186.399 352.456C186.095 352.728 185.655 352.864 185.079 352.864ZM195.18 371.56C194.316 371.56 193.476 371.48 192.66 371.32C191.86 371.16 191.132 370.912 190.476 370.576C190.172 370.416 189.964 370.224 189.852 370C189.756 369.776 189.724 369.544 189.756 369.304C189.804 369.08 189.9 368.88 190.044 368.704C190.204 368.528 190.396 368.408 190.62 368.344C190.844 368.28 191.076 368.312 191.316 368.44C192.02 368.792 192.684 369.016 193.308 369.112C193.948 369.224 194.492 369.28 194.94 369.28C196.012 369.28 196.812 369.016 197.34 368.488C197.884 367.976 198.156 367.208 198.156 366.184V364.024H198.372C198.132 364.84 197.628 365.496 196.86 365.992C196.108 366.472 195.252 366.712 194.292 366.712C193.236 366.712 192.316 366.472 191.532 365.992C190.748 365.496 190.14 364.808 189.708 363.928C189.276 363.048 189.06 362.024 189.06 360.856C189.06 359.976 189.18 359.184 189.42 358.48C189.676 357.76 190.028 357.144 190.476 356.632C190.94 356.12 191.492 355.728 192.132 355.456C192.788 355.168 193.508 355.024 194.292 355.024C195.284 355.024 196.148 355.272 196.884 355.768C197.636 356.248 198.124 356.888 198.348 357.688L198.108 358.288V356.584C198.108 356.088 198.236 355.712 198.492 355.456C198.764 355.2 199.132 355.072 199.596 355.072C200.076 355.072 200.444 355.2 200.7 355.456C200.956 355.712 201.084 356.088 201.084 356.584V365.824C201.084 367.728 200.58 369.16 199.572 370.12C198.564 371.08 197.1 371.56 195.18 371.56ZM195.108 364.432C195.732 364.432 196.268 364.288 196.716 364C197.164 363.712 197.508 363.304 197.748 362.776C198.004 362.232 198.132 361.592 198.132 360.856C198.132 359.752 197.86 358.888 197.316 358.264C196.772 357.624 196.036 357.304 195.108 357.304C194.484 357.304 193.948 357.448 193.5 357.736C193.052 358.024 192.7 358.432 192.444 358.96C192.204 359.488 192.084 360.12 192.084 360.856C192.084 361.96 192.356 362.832 192.9 363.472C193.444 364.112 194.18 364.432 195.108 364.432ZM205.681 367.192C205.201 367.192 204.833 367.064 204.577 366.808C204.321 366.536 204.193 366.152 204.193 365.656V351.4C204.193 350.904 204.321 350.528 204.577 350.272C204.833 350.016 205.201 349.888 205.681 349.888C206.161 349.888 206.529 350.016 206.785 350.272C207.057 350.528 207.193 350.904 207.193 351.4V357.616H206.857C207.209 356.768 207.753 356.128 208.489 355.696C209.241 355.248 210.089 355.024 211.033 355.024C211.977 355.024 212.753 355.2 213.361 355.552C213.969 355.904 214.425 356.44 214.729 357.16C215.033 357.864 215.185 358.76 215.185 359.848V365.656C215.185 366.152 215.057 366.536 214.801 366.808C214.545 367.064 214.177 367.192 213.697 367.192C213.217 367.192 212.841 367.064 212.569 366.808C212.313 366.536 212.185 366.152 212.185 365.656V359.992C212.185 359.08 212.009 358.416 211.657 358C211.321 357.584 210.793 357.376 210.073 357.376C209.193 357.376 208.489 357.656 207.961 358.216C207.449 358.76 207.193 359.488 207.193 360.4V365.656C207.193 366.68 206.689 367.192 205.681 367.192ZM223.608 367.24C222.568 367.24 221.696 367.064 220.992 366.712C220.304 366.36 219.792 365.848 219.456 365.176C219.12 364.488 218.952 363.64 218.952 362.632V357.52H217.704C217.32 357.52 217.024 357.424 216.816 357.232C216.608 357.024 216.504 356.744 216.504 356.392C216.504 356.024 216.608 355.744 216.816 355.552C217.024 355.36 217.32 355.264 217.704 355.264H218.952V353.08C218.952 352.584 219.08 352.208 219.336 351.952C219.608 351.696 219.984 351.568 220.464 351.568C220.944 351.568 221.312 351.696 221.568 351.952C221.824 352.208 221.952 352.584 221.952 353.08V355.264H224.496C224.88 355.264 225.176 355.36 225.384 355.552C225.592 355.744 225.696 356.024 225.696 356.392C225.696 356.744 225.592 357.024 225.384 357.232C225.176 357.424 224.88 357.52 224.496 357.52H221.952V362.464C221.952 363.232 222.12 363.808 222.456 364.192C222.792 364.576 223.336 364.768 224.088 364.768C224.36 364.768 224.6 364.744 224.808 364.696C225.016 364.648 225.2 364.616 225.36 364.6C225.552 364.584 225.712 364.648 225.84 364.792C225.968 364.92 226.032 365.192 226.032 365.608C226.032 365.928 225.976 366.216 225.864 366.472C225.768 366.712 225.584 366.88 225.312 366.976C225.104 367.04 224.832 367.096 224.496 367.144C224.16 367.208 223.864 367.24 223.608 367.24Z" fill="#64728C"/>
<g filter="url(#filter0_i_1103_9444)">
<path d="M308 170C308 255.052 239.052 324 154 324C68.9482 324 0 255.052 0 170C0 84.9482 68.9482 16 154 16C239.052 16 308 84.9482 308 170Z" fill="#64728C" fill-opacity="0.11"/>
</g>
<path d="M307.5 170C307.5 254.776 238.776 323.5 154 323.5C69.2243 323.5 0.5 254.776 0.5 170C0.5 85.2243 69.2243 16.5 154 16.5C238.776 16.5 307.5 85.2243 307.5 170Z" stroke="url(#paint0_linear_1103_9444)"/>
<g filter="url(#filter1_d_1103_9444)">
<circle cx="154" cy="170" r="80" fill="white"/>
<circle cx="154" cy="170" r="80" fill="url(#paint1_linear_1103_9444)" fill-opacity="0.2"/>
<circle cx="154" cy="170" r="79" stroke="url(#paint2_linear_1103_9444)" stroke-width="2"/>
</g>
<path d="M129.856 191.704C127.68 191.704 125.504 191.491 123.328 191.064C121.152 190.637 119.275 190.04 117.696 189.272C116.331 188.632 115.371 187.843 114.816 186.904C114.304 185.965 114.091 185.005 114.176 184.024C114.261 183.043 114.603 182.168 115.2 181.4C115.84 180.632 116.651 180.12 117.632 179.864C118.656 179.565 119.808 179.693 121.088 180.248C122.667 180.931 124.117 181.4 125.44 181.656C126.763 181.912 128.085 182.04 129.408 182.04C130.944 182.04 132.224 181.869 133.248 181.528C134.272 181.187 135.04 180.675 135.552 179.992C136.064 179.267 136.32 178.371 136.32 177.304C136.32 175.811 135.787 174.723 134.72 174.04C133.696 173.315 132.181 172.952 130.176 172.952H126.72C125.099 172.952 123.861 172.547 123.008 171.736C122.155 170.925 121.728 169.773 121.728 168.28C121.728 166.787 122.155 165.635 123.008 164.824C123.861 164.013 125.099 163.608 126.72 163.608H129.024C130.261 163.608 131.307 163.437 132.16 163.096C133.056 162.755 133.739 162.264 134.208 161.624C134.677 160.941 134.912 160.109 134.912 159.128C134.912 157.72 134.4 156.653 133.376 155.928C132.395 155.203 130.923 154.84 128.96 154.84C127.765 154.84 126.549 154.968 125.312 155.224C124.075 155.48 122.752 155.928 121.344 156.568C120.235 157.037 119.211 157.144 118.272 156.888C117.376 156.632 116.629 156.141 116.032 155.416C115.477 154.648 115.136 153.816 115.008 152.92C114.88 151.981 115.029 151.064 115.456 150.168C115.883 149.272 116.693 148.525 117.888 147.928C119.68 147.032 121.621 146.349 123.712 145.88C125.845 145.411 127.979 145.176 130.112 145.176C133.483 145.176 136.363 145.667 138.752 146.648C141.141 147.629 142.955 149.059 144.192 150.936C145.472 152.771 146.112 154.989 146.112 157.592C146.112 159.299 145.792 160.877 145.152 162.328C144.512 163.779 143.573 164.995 142.336 165.976C141.099 166.915 139.648 167.597 137.984 168.024V167.128C140.971 167.597 143.296 168.856 144.96 170.904C146.667 172.909 147.52 175.427 147.52 178.456C147.52 181.187 146.816 183.555 145.408 185.56C144 187.565 141.973 189.101 139.328 190.168C136.683 191.192 133.525 191.704 129.856 191.704ZM169.255 191.704C167.207 191.704 165.052 191.469 162.791 191C160.53 190.531 158.439 189.805 156.519 188.824C155.367 188.227 154.556 187.459 154.087 186.52C153.66 185.539 153.511 184.557 153.639 183.576C153.81 182.595 154.194 181.72 154.791 180.952C155.431 180.184 156.22 179.693 157.159 179.48C158.14 179.224 159.207 179.395 160.359 179.992C161.767 180.675 163.218 181.187 164.711 181.528C166.247 181.869 167.676 182.04 168.999 182.04C170.45 182.04 171.687 181.827 172.711 181.4C173.735 180.973 174.503 180.355 175.015 179.544C175.57 178.733 175.847 177.773 175.847 176.664C175.847 174.957 175.271 173.613 174.119 172.632C172.967 171.651 171.431 171.16 169.511 171.16C168.658 171.16 167.719 171.288 166.695 171.544C165.714 171.8 164.69 172.291 163.623 173.016C163.154 173.272 162.514 173.571 161.703 173.912C160.892 174.211 160.06 174.36 159.207 174.36C157.671 174.36 156.54 173.997 155.815 173.272C155.09 172.547 154.727 171.523 154.727 170.2V150.872C154.727 149.251 155.154 148.013 156.007 147.16C156.903 146.307 158.14 145.88 159.719 145.88H179.815C181.394 145.88 182.61 146.285 183.463 147.096C184.316 147.907 184.743 149.101 184.743 150.68C184.743 152.216 184.316 153.389 183.463 154.2C182.61 155.011 181.394 155.416 179.815 155.416H165.799V165.464H163.111C164.135 164.269 165.479 163.373 167.143 162.776C168.807 162.136 170.62 161.816 172.583 161.816C175.442 161.816 177.959 162.435 180.135 163.672C182.311 164.867 183.996 166.552 185.191 168.728C186.428 170.904 187.047 173.443 187.047 176.344C187.047 179.416 186.322 182.125 184.871 184.472C183.463 186.776 181.415 188.568 178.727 189.848C176.082 191.085 172.924 191.704 169.255 191.704ZM197.462 190.568C197.254 190.936 196.99 191.176 196.67 191.288C196.35 191.416 196.038 191.44 195.734 191.36C195.43 191.28 195.166 191.128 194.942 190.904C194.718 190.68 194.582 190.4 194.534 190.064C194.486 189.728 194.566 189.376 194.774 189.008L203.174 174.536C203.398 174.152 203.662 173.904 203.966 173.792C204.27 173.664 204.574 173.64 204.878 173.72C205.198 173.8 205.462 173.96 205.67 174.2C205.894 174.424 206.03 174.704 206.078 175.04C206.142 175.36 206.062 175.704 205.838 176.072L197.462 190.568ZM193.982 184.16C192.542 184.16 191.422 183.688 190.622 182.744C189.838 181.784 189.446 180.52 189.446 178.952C189.446 177.896 189.63 176.984 189.998 176.216C190.366 175.448 190.886 174.856 191.558 174.44C192.23 174.024 193.038 173.816 193.982 173.816C195.406 173.816 196.51 174.288 197.294 175.232C198.094 176.16 198.494 177.4 198.494 178.952C198.494 179.992 198.31 180.904 197.942 181.688C197.59 182.472 197.078 183.08 196.406 183.512C195.734 183.944 194.926 184.16 193.982 184.16ZM193.982 181.52C194.222 181.52 194.422 181.44 194.582 181.28C194.758 181.104 194.886 180.832 194.966 180.464C195.062 180.08 195.11 179.576 195.11 178.952C195.11 178.008 195.006 177.352 194.798 176.984C194.606 176.616 194.334 176.432 193.982 176.432C193.726 176.432 193.51 176.512 193.334 176.672C193.174 176.816 193.046 177.072 192.95 177.44C192.87 177.808 192.83 178.312 192.83 178.952C192.83 179.912 192.926 180.584 193.118 180.968C193.31 181.336 193.598 181.52 193.982 181.52ZM206.654 191.264C205.23 191.264 204.118 190.792 203.318 189.848C202.534 188.904 202.142 187.648 202.142 186.08C202.142 185.008 202.318 184.088 202.67 183.32C203.038 182.552 203.558 181.96 204.23 181.544C204.918 181.128 205.726 180.92 206.654 180.92C208.078 180.92 209.19 181.392 209.99 182.336C210.79 183.28 211.19 184.528 211.19 186.08C211.19 187.12 211.006 188.032 210.638 188.816C210.286 189.584 209.774 190.184 209.102 190.616C208.43 191.048 207.614 191.264 206.654 191.264ZM206.654 188.648C206.91 188.648 207.118 188.568 207.278 188.408C207.454 188.232 207.582 187.96 207.662 187.592C207.758 187.208 207.806 186.704 207.806 186.08C207.806 185.136 207.702 184.48 207.494 184.112C207.302 183.744 207.022 183.56 206.654 183.56C206.414 183.56 206.206 183.64 206.03 183.8C205.87 183.944 205.742 184.2 205.646 184.568C205.566 184.92 205.526 185.424 205.526 186.08C205.526 187.04 205.622 187.712 205.814 188.096C206.006 188.464 206.286 188.648 206.654 188.648Z" fill="#4B5C7A"/>
<circle cx="156" cy="170" r="116.5" stroke="#64728C" stroke-opacity="0.3" stroke-width="5" stroke-linejoin="round" stroke-dasharray="2 20"/>
<g filter="url(#filter2_d_1103_9444)">
<path d="M230.387 194.605C224.29 213.529 234.689 233.813 253.614 239.91C272.538 246.006 292.822 235.608 298.919 216.683L230.387 194.605ZM264.713 134.076L298.997 123.094L298.997 123.094L264.713 134.076ZM223.082 75.8617L244.557 46.968L223.082 75.8617ZM298.919 216.683C308.72 186.261 308.747 153.533 298.997 123.094L230.429 145.057C235.591 161.172 235.576 178.499 230.387 194.605L298.919 216.683ZM298.997 123.094C289.247 92.6551 270.21 66.034 244.557 46.968L201.607 104.755C215.188 114.849 225.267 128.943 230.429 145.057L298.997 123.094ZM244.557 46.968C218.904 27.902 187.924 17.3486 155.967 16.7894L154.707 88.7784C171.625 89.0745 188.027 94.6616 201.607 104.755L244.557 46.968Z" fill="#34BC40"/>
<path d="M230.387 194.605C224.29 213.529 234.689 233.813 253.614 239.91C272.538 246.006 292.822 235.608 298.919 216.683L230.387 194.605ZM264.713 134.076L298.997 123.094L298.997 123.094L264.713 134.076ZM223.082 75.8617L244.557 46.968L223.082 75.8617ZM298.919 216.683C308.72 186.261 308.747 153.533 298.997 123.094L230.429 145.057C235.591 161.172 235.576 178.499 230.387 194.605L298.919 216.683ZM298.997 123.094C289.247 92.6551 270.21 66.034 244.557 46.968L201.607 104.755C215.188 114.849 225.267 128.943 230.429 145.057L298.997 123.094ZM244.557 46.968C218.904 27.902 187.924 17.3486 155.967 16.7894L154.707 88.7784C171.625 89.0745 188.027 94.6616 201.607 104.755L244.557 46.968Z" fill="url(#paint3_radial_1103_9444)" fill-opacity="0.26"/>
</g>
<g filter="url(#filter3_d_1103_9444)">
<circle cx="265" cy="206" r="31" fill="white"/>
<circle cx="265" cy="206" r="31" fill="url(#paint4_linear_1103_9444)" fill-opacity="0.2"/>
<circle cx="265" cy="206" r="30" stroke="url(#paint5_linear_1103_9444)" stroke-width="2"/>
</g>
<defs>
<filter id="filter0_i_1103_9444" x="0" y="16" width="308" height="318" filterUnits="userSpaceOnUse" color-interpolation-filters="sRGB">
<feFlood flood-opacity="0" result="BackgroundImageFix"/>
<feBlend mode="normal" in="SourceGraphic" in2="BackgroundImageFix" result="shape"/>
<feColorMatrix in="SourceAlpha" type="matrix" values="0 0 0 0 0 0 0 0 0 0 0 0 0 0 0 0 0 0 127 0" result="hardAlpha"/>
<feOffset dy="10"/>
<feGaussianBlur stdDeviation="10"/>
<feComposite in2="hardAlpha" operator="arithmetic" k2="-1" k3="1"/>
<feColorMatrix type="matrix" values="0 0 0 0 0 0 0 0 0 0 0 0 0 0 0 0 0 0 0.15 0"/>
<feBlend mode="normal" in2="shape" result="effect1_innerShadow_1103_9444"/>
</filter>
<filter id="filter1_d_1103_9444" x="54" y="74" width="200" height="200" filterUnits="userSpaceOnUse" color-interpolation-filters="sRGB">
<feFlood flood-opacity="0" result="BackgroundImageFix"/>
<feColorMatrix in="SourceAlpha" type="matrix" values="0 0 0 0 0 0 0 0 0 0 0 0 0 0 0 0 0 0 127 0" result="hardAlpha"/>
<feOffset dy="4"/>
<feGaussianBlur stdDeviation="10"/>
<feComposite in2="hardAlpha" operator="out"/>
<feColorMatrix type="matrix" values="0 0 0 0 0 0 0 0 0 0 0 0 0 0 0 0 0 0 0.15 0"/>
<feBlend mode="normal" in2="BackgroundImageFix" result="effect1_dropShadow_1103_9444"/>
<feBlend mode="normal" in="SourceGraphic" in2="effect1_dropShadow_1103_9444" result="shape"/>
</filter>
<filter id="filter2_d_1103_9444" x="134.707" y="0.789551" width="191.583" height="264.864" filterUnits="userSpaceOnUse" color-interpolation-filters="sRGB">
<feFlood flood-opacity="0" result="BackgroundImageFix"/>
<feColorMatrix in="SourceAlpha" type="matrix" values="0 0 0 0 0 0 0 0 0 0 0 0 0 0 0 0 0 0 127 0" result="hardAlpha"/>
<feOffset dy="4"/>
<feGaussianBlur stdDeviation="10"/>
<feComposite in2="hardAlpha" operator="out"/>
<feColorMatrix type="matrix" values="0 0 0 0 0.203922 0 0 0 0 0.737255 0 0 0 0 0.25098 0 0 0 0.5 0"/>
<feBlend mode="normal" in2="BackgroundImageFix" result="effect1_dropShadow_1103_9444"/>
<feBlend mode="normal" in="SourceGraphic" in2="effect1_dropShadow_1103_9444" result="shape"/>
</filter>
<filter id="filter3_d_1103_9444" x="219" y="164" width="92" height="92" filterUnits="userSpaceOnUse" color-interpolation-filters="sRGB">
<feFlood flood-opacity="0" result="BackgroundImageFix"/>
<feColorMatrix in="SourceAlpha" type="matrix" values="0 0 0 0 0 0 0 0 0 0 0 0 0 0 0 0 0 0 127 0" result="hardAlpha"/>
<feOffset dy="4"/>
<feGaussianBlur stdDeviation="7.5"/>
<feComposite in2="hardAlpha" operator="out"/>
<feColorMatrix type="matrix" values="0 0 0 0 0 0 0 0 0 0 0 0 0 0 0 0 0 0 0.15 0"/>
<feBlend mode="normal" in2="BackgroundImageFix" result="effect1_dropShadow_1103_9444"/>
<feBlend mode="normal" in="SourceGraphic" in2="effect1_dropShadow_1103_9444" result="shape"/>
</filter>
<linearGradient id="paint0_linear_1103_9444" x1="154" y1="16" x2="154" y2="324" gradientUnits="userSpaceOnUse">
<stop stop-color="white"/>
<stop offset="1" stop-color="#64728C" stop-opacity="0.03"/>
</linearGradient>
<linearGradient id="paint1_linear_1103_9444" x1="120.5" y1="154" x2="154" y2="250" gradientUnits="userSpaceOnUse">
<stop stop-color="white"/>
<stop offset="1" stop-color="#64728C" stop-opacity="0.46"/>
</linearGradient>
<linearGradient id="paint2_linear_1103_9444" x1="134.5" y1="90" x2="154" y2="250" gradientUnits="userSpaceOnUse">
<stop stop-color="#F6F6F6"/>
<stop offset="1" stop-color="#64728C" stop-opacity="0.13"/>
</linearGradient>
<radialGradient id="paint3_radial_1103_9444" cx="0" cy="0" r="1" gradientUnits="userSpaceOnUse" gradientTransform="translate(201.934 122.95) rotate(158.045) scale(84.7113 108.362)">
<stop stop-opacity="0"/>
<stop offset="1" stop-color="white"/>
</radialGradient>
<linearGradient id="paint4_linear_1103_9444" x1="280.953" y1="237" x2="243.991" y2="175" gradientUnits="userSpaceOnUse">
<stop offset="0.351922" stop-opacity="0"/>
<stop offset="1"/>
</linearGradient>
<linearGradient id="paint5_linear_1103_9444" x1="257.444" y1="175" x2="265" y2="237" gradientUnits="userSpaceOnUse">
<stop stop-color="white"/>
<stop offset="1" stop-color="#64728C" stop-opacity="0.13"/>
</linearGradient>
</defs>
</svg>
