<svg width="45" height="45" viewBox="0 0 45 45" fill="none" xmlns="http://www.w3.org/2000/svg">
<path d="M45 22.5C45 34.9264 34.9264 45 22.5 45C10.0736 45 0 34.9264 0 22.5C0 10.0736 10.0736 0 22.5 0C34.9264 0 45 10.0736 45 22.5ZM5.3514 22.5C5.3514 31.9709 13.0291 39.6486 22.5 39.6486C31.9709 39.6486 39.6486 31.9709 39.6486 22.5C39.6486 13.0291 31.9709 5.3514 22.5 5.3514C13.0291 5.3514 5.3514 13.0291 5.3514 22.5Z" fill="#FFE3D6"/>
<path d="M22.5 2.59068C22.5 1.15989 23.6637 -0.0154051 25.085 0.148978C28.352 0.526818 31.5074 1.6177 34.3233 3.35687C37.8765 5.55142 40.7488 8.69157 42.6187 12.4258C44.4886 16.1601 45.2822 20.3411 44.9109 24.5008C44.5395 28.6605 43.0177 32.6348 40.5159 35.9788C38.0141 39.3227 34.631 41.9044 30.7452 43.4348C26.8595 44.9652 22.6244 45.384 18.5142 44.6442C14.404 43.9044 10.5808 42.0352 7.47256 39.2459C5.00929 37.0354 3.0721 34.3162 1.78749 31.2888C1.22861 29.9716 2.02764 28.5235 3.40025 28.1197C4.77286 27.7158 6.19575 28.5128 6.79967 29.8099C7.78294 31.9218 9.18615 33.8219 10.9331 35.3896C13.3256 37.5366 16.2684 38.9753 19.4321 39.5447C22.5958 40.1142 25.8555 39.7919 28.8465 38.6139C31.8374 37.4359 34.4415 35.4487 36.3671 32.8748C38.2928 30.3009 39.4642 27.2419 39.75 24.0401C40.0359 20.8383 39.425 17.6201 37.9857 14.7457C36.5464 11.8714 34.3356 9.45438 31.6006 7.7652C29.6035 6.53177 27.3846 5.72196 25.0811 5.37477C23.6663 5.16153 22.5 4.02148 22.5 2.59068Z" fill="#FE5000"/>
<path fill-rule="evenodd" clip-rule="evenodd" d="M22.9365 21.4339C24.6547 21.4339 26.0476 19.9936 26.0476 18.2169C26.0476 16.4403 24.6547 15 22.9365 15C21.2183 15 19.8254 16.4403 19.8254 18.2169C19.8254 19.9936 21.2183 21.4339 22.9365 21.4339ZM22.9365 20.164C23.9137 20.164 24.7778 19.3326 24.7778 18.2169C24.7778 17.1012 23.9137 16.2698 22.9365 16.2698C21.9593 16.2698 21.0952 17.1012 21.0952 18.2169C21.0952 19.3326 21.9593 20.164 22.9365 20.164Z" fill="#FE5000"/>
<path d="M23.0431 23.46C22.1562 23.3418 21.4687 23.3596 20.4838 23.4622C19.1505 23.6011 18.0602 23.979 17.3226 24.4698C16.5789 24.9648 16.2698 25.5144 16.2698 26.0078L16.2699 26.5551C16.2699 26.9059 16.5544 27.1905 16.9057 27.1905H22.3651C22.7157 27.1905 23 27.4747 23 27.8254C23 28.1761 22.7157 28.4603 22.3651 28.4603H16.9057C15.8536 28.4603 15.0001 27.6077 15.0001 26.5552L15 26.0079C14.9999 24.9335 15.6749 24.0411 16.6191 23.4127C17.5694 22.7803 18.8706 22.3535 20.3522 22.1992C21.399 22.0902 22.193 22.0656 23.2109 22.2013C23.5585 22.2477 23.8027 22.567 23.7563 22.9146C23.71 23.2622 23.3907 23.5064 23.0431 23.46Z" fill="#FE5000"/>
<path d="M27.1058 24.1005C26.8954 24.1005 26.7249 24.2711 26.7249 24.4815V26.6402C26.7249 26.7964 26.8188 26.9306 26.9533 26.9894L27.874 27.5209C28.0562 27.6261 28.2891 27.5637 28.3943 27.3815C28.4995 27.1993 28.4371 26.9663 28.2549 26.8611L27.4868 26.4176V24.4815C27.4868 24.2711 27.3162 24.1005 27.1058 24.1005Z" fill="#FE5000"/>
<path fill-rule="evenodd" clip-rule="evenodd" d="M31 26.3228C31 28.4384 29.2849 30.1534 27.1693 30.1534C25.0537 30.1534 23.3386 28.4384 23.3386 26.3228C23.3386 24.2071 25.0537 22.4921 27.1693 22.4921C29.2849 22.4921 31 24.2071 31 26.3228ZM29.9418 26.3228C29.9418 27.854 28.7005 29.0952 27.1693 29.0952C25.6381 29.0952 24.3968 27.854 24.3968 26.3228C24.3968 24.7915 25.6381 23.5503 27.1693 23.5503C28.7005 23.5503 29.9418 24.7915 29.9418 26.3228Z" fill="#FE5000"/>
</svg>
