<svg width="58" height="49" viewBox="0 0 58 49" fill="none" xmlns="http://www.w3.org/2000/svg">
<path d="M22.5 2.59068C22.5 1.15989 23.6637 -0.0154008 25.085 0.148982C27.6368 0.444115 30.1258 1.17486 32.4417 2.31555C35.5345 3.83887 38.2358 6.05251 40.3372 8.7856C42.4386 11.5187 43.8838 14.6981 44.5613 18.0784C45.2388 21.4588 45.1304 24.9496 44.2446 28.2814C43.3587 31.6131 41.7191 34.6968 39.4522 37.2943C37.1854 39.8918 34.352 41.9336 31.1707 43.2622C27.9894 44.5908 24.5454 45.1705 21.1045 44.9567C18.5279 44.7966 16.0046 44.1947 13.6431 43.1835C12.3279 42.6203 11.9016 41.0222 12.6122 39.7804C13.3227 38.5385 14.9012 38.1282 16.2351 38.6458C17.8916 39.2886 19.6421 39.6744 21.4258 39.7853C24.0744 39.9499 26.7253 39.5036 29.174 38.481C31.6227 37.4584 33.8036 35.8868 35.5484 33.8874C37.2933 31.8881 38.5553 29.5145 39.2372 26.95C39.919 24.3855 40.0024 21.6985 39.4809 19.0966C38.9595 16.4948 37.8471 14.0475 36.2296 11.9438C34.6121 9.84008 32.5329 8.1362 30.1523 6.96368C28.5491 6.17402 26.8381 5.63959 25.0811 5.37477C23.6662 5.16153 22.5 4.02148 22.5 2.59068Z" fill="#0070F2"/>
<path d="M23.2531 21.3468C22.8723 21.2904 22.6029 21.2213 22.3321 21.2157C21.6156 21.1987 20.8977 21.2015 20.1812 21.2157C19.9386 21.2199 19.7652 21.155 19.603 20.9674C19.1178 20.4075 18.6143 19.8645 18.1164 19.3158C17.7158 18.8744 17.311 18.8053 16.9556 19.1184C16.6058 19.4258 16.6256 19.8673 17.0092 20.2932C17.3463 20.6698 17.6778 21.0506 18.0261 21.4173C18.1672 21.5654 18.225 21.7008 18.1855 21.9152C18.1234 22.2594 18.1122 22.6134 18.0769 23.0069C18.2292 23.0167 18.3533 23.0308 18.476 23.0308C19.0755 23.0337 19.6749 23.0252 20.2743 23.0337C20.8921 23.0421 21.2193 23.3327 21.2715 23.9377C21.4069 25.4948 21.5338 27.0533 21.6551 28.6104C21.696 29.1407 21.3251 29.5638 20.8173 29.5977C20.2983 29.6315 19.9006 29.2634 19.854 28.6936C19.7567 27.499 19.6622 26.3044 19.5663 25.1084C19.5606 25.0294 19.5522 24.9504 19.5423 24.8376C18.8554 24.8376 18.1883 24.8376 17.5212 24.8376C17.3689 24.8376 17.2151 24.8446 17.0628 24.8418C16.1785 24.8249 15.6679 24.3637 15.5509 23.4864C15.3717 22.1437 15.517 20.8377 15.981 19.5669C16.2561 18.8151 16.8273 18.3525 17.493 18.3271C17.8639 18.313 18.1404 18.4527 18.3674 18.7517C18.7934 19.313 19.2518 19.8504 19.6749 20.4131C19.8187 20.6049 19.964 20.643 20.1826 20.5965C20.8145 20.4639 21.4492 20.3426 22.0824 20.2241C22.4139 20.1621 23.1008 20.4822 23.215 20.7883C23.2799 20.9632 23.2432 21.1762 23.2517 21.3454L23.2531 21.3468Z" fill="#0070F2"/>
<path d="M18.6459 28.7093C18.0902 28.5386 17.5655 28.3778 16.9111 28.1776C16.99 28.4526 17.0182 28.6571 17.1071 28.8306C17.2185 29.0478 17.2524 29.265 17.045 29.3905C16.9181 29.4667 16.6713 29.4653 16.5443 29.3905C16.337 29.2664 16.3624 29.052 16.4809 28.8334C16.5726 28.6642 16.5979 28.4582 16.6783 28.1846C16.0352 28.3807 15.5021 28.5429 14.9379 28.7149C14.9873 28.8066 15.0662 28.8856 15.0578 28.9533C15.038 29.1127 15.0197 29.344 14.9182 29.4032C14.794 29.4751 14.5388 29.4582 14.4273 29.3708C14.3342 29.2974 14.3089 29.0478 14.3526 28.9082C14.464 28.5485 14.7263 28.3553 15.1156 28.2777C15.55 28.1903 15.9717 28.0323 16.3906 27.8814C16.4823 27.8489 16.5951 27.7206 16.5994 27.6303C16.6219 27.21 16.6092 26.7869 16.6092 26.3187C16.1099 26.203 15.6191 26.0944 15.1297 25.9759C14.7249 25.8772 14.4725 25.6431 14.3272 25.2284C13.9139 24.0521 13.4542 22.897 13.0296 21.7278C12.9859 21.6065 13.055 21.4443 13.0677 21.3018C13.0748 21.2172 13.0846 21.1312 13.079 21.0466C13.0522 20.6728 13 20.3005 13 19.9267C13 19.7744 13.1128 19.6221 13.2426 19.4697C14.1368 20.8279 14.6939 22.2849 14.9633 23.8899C14.4894 23.9322 14.3272 23.605 14.0493 23.4316C14.2623 23.9985 14.4654 24.5712 14.7009 25.1297C14.732 25.203 14.928 25.2524 15.0394 25.2411C16.2482 25.1085 17.4541 25.1043 18.66 25.2637C18.8264 25.2862 18.9872 25.3497 19.265 25.4259C19.0619 25.6092 18.9576 25.7573 18.8151 25.8222C18.5612 25.9378 18.289 26.0168 18.0168 26.0873C17.6755 26.1748 17.3285 26.2397 16.9717 26.3158C16.9717 26.7841 16.959 27.2058 16.9816 27.6275C16.9858 27.7164 17.1043 27.8433 17.196 27.8757C17.7291 28.0563 18.2693 28.2142 18.8066 28.3807C19.0379 28.4526 19.3355 28.9279 19.2876 29.1663C19.2382 29.4145 19.0704 29.533 18.8264 29.4892C18.581 29.4441 18.4696 29.2692 18.509 29.0224C18.5246 28.9251 18.5894 28.8362 18.6459 28.7107V28.7093Z" fill="#0070F2"/>
<path d="M29.8779 23.6303C29.7806 23.6867 29.6875 23.784 29.586 23.7925C28.5902 23.8743 27.5945 23.942 26.5311 24.0182C26.6002 25.6556 26.6693 27.3072 26.7412 28.9969C27.4154 29.0448 28.1022 29.0942 28.7891 29.1436C29.0698 29.1633 29.3533 29.1732 29.6311 29.2141C29.72 29.2268 29.7947 29.3283 29.8765 29.3904C29.8568 29.4214 29.8385 29.4539 29.8187 29.4849H22.3548C22.3083 29.231 22.3083 29.2254 22.5523 29.207C23.4902 29.1365 24.4267 29.0688 25.3844 28.9997C25.3971 28.9503 25.4197 28.8968 25.4211 28.8432C25.4507 27.767 25.4732 26.6895 25.5099 25.6133C25.524 25.1959 25.5734 24.7812 25.6016 24.3651C25.6101 24.2509 25.6016 24.1366 25.6016 24.0182C24.5523 23.9434 23.5452 23.8687 22.5382 23.8024C22.3478 23.7897 22.242 23.7417 22.3351 23.5146H29.7975C29.8243 23.5541 29.8511 23.5922 29.8779 23.6317V23.6303Z" fill="#0070F2"/>
<path d="M18.9834 18.2214C18.0864 18.2172 17.3713 17.4978 17.377 16.6036C17.3798 15.7109 18.1048 14.9958 19.0004 15C19.8903 15.0042 20.6167 15.7348 20.6125 16.6206C20.6082 17.5077 19.8776 18.2256 18.9834 18.2214Z" fill="#0070F2"/>
<path d="M21.0485 22.5202C20.5676 22.5202 20.0838 22.5442 19.6043 22.5089C19.4026 22.4948 19.1572 22.4045 19.0218 22.2635C18.349 21.5583 17.7031 20.8277 17.0543 20.0999C16.8032 19.8178 16.8117 19.4765 17.0543 19.2523C17.2954 19.0294 17.641 19.0478 17.8963 19.3256C18.4619 19.9377 19.0105 20.5668 19.5845 21.1732C19.6889 21.2833 19.8765 21.3679 20.0288 21.3707C20.8511 21.389 21.6733 21.3778 22.4956 21.3806C22.9173 21.382 23.1585 21.5851 23.167 21.9349C23.1768 22.303 22.9342 22.5174 22.4928 22.5216C22.0118 22.5258 21.5295 22.5216 21.0485 22.5216V22.5202Z" fill="#0070F2"/>
<path d="M30.649 22.8896V23.3438H21.4912V22.8896H30.649Z" fill="#0070F2"/>
<path d="M30.4484 16.9253H30.6924C30.7954 17.0861 30.9082 17.2088 30.9576 17.3555C30.9999 17.481 31.0253 17.7109 30.9604 17.756C30.7065 17.9323 30.7968 18.1721 30.7954 18.3865C30.7883 19.6192 30.7799 20.8519 30.7982 22.0846C30.8038 22.4682 30.8941 22.849 30.9378 23.2326C30.9505 23.3483 30.9392 23.4653 30.9392 23.6036H30.1565C30.1536 23.5754 30.1522 23.5457 30.1494 23.5175C30.344 23.5034 30.5401 23.4893 30.7658 23.4724V22.763C30.5655 22.7503 30.3638 22.7362 30.2171 22.7263C30.2693 22.55 30.3553 22.3977 30.3553 22.2439C30.3652 20.8942 30.3652 19.543 30.3553 18.1932C30.3553 18.0607 30.2566 17.9323 30.2326 17.7955C30.2072 17.6517 30.1847 17.4937 30.2185 17.3555C30.2524 17.2144 30.3539 17.0917 30.4456 16.9253H30.4484Z" fill="#0070F2"/>
<path d="M26.7598 15.144H27.1462V19.9803C27.0193 19.986 26.9064 19.9916 26.7598 19.9987V15.144Z" fill="#0070F2"/>
<path d="M27.5399 18.4739H27.2832V16.6221C27.7261 16.7405 27.6823 17.134 27.8206 17.4246H28.7444C28.7792 17.6145 28.6668 17.7095 28.4073 17.7095C28.2098 17.7095 28.0124 17.7095 27.822 17.7095C27.7275 17.9648 27.64 18.2031 27.5399 18.4739Z" fill="#0070F2"/>
<path d="M25.0139 22.4626C24.9477 22.5289 24.8828 22.6516 24.8151 22.653C24.2114 22.6685 23.6064 22.6615 23.0013 22.6615C22.9914 22.622 22.9816 22.5825 22.9717 22.543C23.1395 22.4852 23.3074 22.385 23.478 22.3766C23.9674 22.354 24.4582 22.3681 24.9491 22.3681C24.9716 22.3992 24.9928 22.4316 25.0154 22.4626H25.0139Z" fill="#0070F2"/>
<path d="M28.8906 17.7114V17.4067H30.026C30.136 17.6324 30.0881 17.717 29.8694 17.7128C29.5479 17.7072 29.2263 17.7114 28.8906 17.7114Z" fill="#0070F2"/>
<path d="M42.26 47.1C41.68 47.1 41.1833 46.9633 40.77 46.69C40.3633 46.41 40.0533 46.01 39.84 45.49C39.6267 44.97 39.52 44.34 39.52 43.6C39.52 43 39.5867 42.47 39.72 42.01C39.86 41.5433 40.06 41.15 40.32 40.83C40.58 40.51 40.8967 40.2667 41.27 40.1C41.65 39.9333 42.0767 39.85 42.55 39.85C42.8433 39.85 43.14 39.8967 43.44 39.99C43.7467 40.0767 44.0333 40.21 44.3 40.39C44.4067 40.4567 44.4767 40.5433 44.51 40.65C44.5433 40.7567 44.5467 40.8633 44.52 40.97C44.5 41.07 44.4533 41.16 44.38 41.24C44.3133 41.3133 44.2267 41.36 44.12 41.38C44.0133 41.3933 43.8967 41.3633 43.77 41.29C43.5433 41.1567 43.33 41.0633 43.13 41.01C42.93 40.9567 42.73 40.93 42.53 40.93C42.1433 40.93 41.8167 41.02 41.55 41.2C41.2833 41.38 41.08 41.65 40.94 42.01C40.8067 42.37 40.74 42.82 40.74 43.36V44.11H40.62C40.6733 43.77 40.7833 43.48 40.95 43.24C41.1233 42.9933 41.3433 42.8067 41.61 42.68C41.8767 42.5467 42.1733 42.48 42.5 42.48C42.9067 42.48 43.2667 42.5767 43.58 42.77C43.8933 42.9633 44.14 43.23 44.32 43.57C44.5 43.91 44.59 44.3 44.59 44.74C44.59 45.1933 44.49 45.6 44.29 45.96C44.0967 46.3133 43.8233 46.5933 43.47 46.8C43.1233 47 42.72 47.1 42.26 47.1ZM42.19 46.08C42.43 46.08 42.64 46.0267 42.82 45.92C43.0067 45.8133 43.15 45.6633 43.25 45.47C43.35 45.27 43.4 45.0433 43.4 44.79C43.4 44.53 43.35 44.3033 43.25 44.11C43.15 43.9167 43.0067 43.7667 42.82 43.66C42.64 43.5467 42.43 43.49 42.19 43.49C41.95 43.49 41.74 43.5467 41.56 43.66C41.38 43.7667 41.2367 43.9167 41.13 44.11C41.03 44.3033 40.98 44.53 40.98 44.79C40.98 45.0433 41.03 45.27 41.13 45.47C41.2367 45.6633 41.38 45.8133 41.56 45.92C41.74 46.0267 41.95 46.08 42.19 46.08ZM48.9809 47.08C48.7809 47.08 48.6276 47.0267 48.5209 46.92C48.4143 46.8067 48.3609 46.6467 48.3609 46.44V40.5C48.3609 40.2933 48.4143 40.1367 48.5209 40.03C48.6276 39.9233 48.7809 39.87 48.9809 39.87C49.1809 39.87 49.3343 39.9233 49.4409 40.03C49.5543 40.1367 49.6109 40.2933 49.6109 40.5V43.09H49.4709C49.6176 42.7367 49.8443 42.47 50.1509 42.29C50.4643 42.1033 50.8176 42.01 51.2109 42.01C51.6043 42.01 51.9276 42.0833 52.1809 42.23C52.4343 42.3767 52.6243 42.6 52.7509 42.9C52.8776 43.1933 52.9409 43.5667 52.9409 44.02V46.44C52.9409 46.6467 52.8876 46.8067 52.7809 46.92C52.6743 47.0267 52.5209 47.08 52.3209 47.08C52.1209 47.08 51.9643 47.0267 51.8509 46.92C51.7443 46.8067 51.6909 46.6467 51.6909 46.44V44.08C51.6909 43.7 51.6176 43.4233 51.4709 43.25C51.3309 43.0767 51.1109 42.99 50.8109 42.99C50.4443 42.99 50.1509 43.1067 49.9309 43.34C49.7176 43.5667 49.6109 43.87 49.6109 44.25V46.44C49.6109 46.8667 49.4009 47.08 48.9809 47.08ZM54.8505 47.08C54.6439 47.08 54.4839 47.0267 54.3705 46.92C54.2639 46.8067 54.2105 46.6467 54.2105 46.44V42.66C54.2105 42.4533 54.2639 42.2967 54.3705 42.19C54.4772 42.0833 54.6272 42.03 54.8205 42.03C55.0139 42.03 55.1639 42.0833 55.2705 42.19C55.3772 42.2967 55.4305 42.4533 55.4305 42.66V43.29H55.3305C55.4239 42.89 55.6072 42.5867 55.8805 42.38C56.1539 42.1733 56.5172 42.05 56.9705 42.01C57.1105 41.9967 57.2205 42.0333 57.3005 42.12C57.3872 42.2 57.4372 42.3267 57.4505 42.5C57.4639 42.6667 57.4239 42.8033 57.3305 42.91C57.2439 43.01 57.1105 43.07 56.9305 43.09L56.7105 43.11C56.3039 43.15 55.9972 43.2767 55.7905 43.49C55.5839 43.6967 55.4805 43.99 55.4805 44.37V46.44C55.4805 46.6467 55.4272 46.8067 55.3205 46.92C55.2139 47.0267 55.0572 47.08 54.8505 47.08Z" fill="#0070F2"/>
</svg>
