<svg width="45" height="45" viewBox="0 0 45 45" fill="none" xmlns="http://www.w3.org/2000/svg">
<path d="M45 22.5C45 34.9264 34.9264 45 22.5 45C10.0736 45 0 34.9264 0 22.5C0 10.0736 10.0736 0 22.5 0C34.9264 0 45 10.0736 45 22.5ZM5.3514 22.5C5.3514 31.9709 13.0291 39.6486 22.5 39.6486C31.9709 39.6486 39.6486 31.9709 39.6486 22.5C39.6486 13.0291 31.9709 5.3514 22.5 5.3514C13.0291 5.3514 5.3514 13.0291 5.3514 22.5Z" fill="#FFF8D6"/>
<path d="M22.5 2.59068C22.5 1.15989 23.6637 -0.0154261 25.085 0.148937C29.6569 0.677632 33.9799 2.59956 37.4503 5.68517C41.5692 9.34736 44.2007 14.394 44.8455 19.8677C45.4903 25.3414 44.1036 30.8614 40.9484 35.3804C38.29 39.188 34.532 42.0619 30.2081 43.6385C28.8639 44.1287 27.4589 43.2559 27.1265 41.8643C26.794 40.4727 27.6635 39.0928 28.99 38.5567C32.0837 37.3062 34.7688 35.1804 36.7001 32.4143C39.1287 28.9359 40.196 24.6871 39.6997 20.4739C39.2034 16.2607 37.1779 12.3762 34.0075 9.55733C31.4864 7.31576 28.3807 5.87205 25.0811 5.37474C23.6663 5.1615 22.5 4.02148 22.5 2.59068Z" fill="#C45500"/>
<path d="M13.672 26.12C13.248 26.12 12.816 26.064 12.376 25.952C11.936 25.84 11.532 25.668 11.164 25.436C11.012 25.34 10.908 25.228 10.852 25.1C10.804 24.964 10.792 24.832 10.816 24.704C10.848 24.568 10.908 24.456 10.996 24.368C11.092 24.272 11.204 24.216 11.332 24.2C11.468 24.184 11.616 24.22 11.776 24.308C12.072 24.476 12.372 24.604 12.676 24.692C12.98 24.78 13.304 24.824 13.648 24.824C13.984 24.824 14.272 24.764 14.512 24.644C14.752 24.524 14.936 24.356 15.064 24.14C15.192 23.924 15.256 23.672 15.256 23.384C15.256 22.936 15.12 22.576 14.848 22.304C14.576 22.024 14.204 21.884 13.732 21.884C13.476 21.884 13.228 21.928 12.988 22.016C12.748 22.096 12.512 22.24 12.28 22.448C12.208 22.512 12.116 22.576 12.004 22.64C11.892 22.696 11.772 22.724 11.644 22.724C11.444 22.724 11.292 22.672 11.188 22.568C11.084 22.464 11.032 22.32 11.032 22.136V18.212C11.032 17.996 11.088 17.832 11.2 17.72C11.32 17.6 11.488 17.54 11.704 17.54H15.652C15.868 17.54 16.032 17.596 16.144 17.708C16.264 17.812 16.324 17.968 16.324 18.176C16.324 18.376 16.264 18.532 16.144 18.644C16.032 18.756 15.868 18.812 15.652 18.812H12.532V21.5H12.136C12.344 21.22 12.62 21.004 12.964 20.852C13.308 20.7 13.684 20.624 14.092 20.624C14.628 20.624 15.092 20.74 15.484 20.972C15.884 21.196 16.192 21.512 16.408 21.92C16.632 22.32 16.744 22.788 16.744 23.324C16.744 23.876 16.62 24.364 16.372 24.788C16.124 25.204 15.768 25.532 15.304 25.772C14.848 26.004 14.304 26.12 13.672 26.12ZM20.8673 26.12C20.4433 26.12 20.0113 26.064 19.5713 25.952C19.1313 25.84 18.7273 25.668 18.3593 25.436C18.2073 25.34 18.1033 25.228 18.0473 25.1C17.9993 24.964 17.9873 24.832 18.0113 24.704C18.0433 24.568 18.1033 24.456 18.1913 24.368C18.2873 24.272 18.3993 24.216 18.5273 24.2C18.6633 24.184 18.8113 24.22 18.9713 24.308C19.2673 24.476 19.5673 24.604 19.8713 24.692C20.1753 24.78 20.4993 24.824 20.8433 24.824C21.1793 24.824 21.4673 24.764 21.7073 24.644C21.9473 24.524 22.1313 24.356 22.2593 24.14C22.3873 23.924 22.4513 23.672 22.4513 23.384C22.4513 22.936 22.3153 22.576 22.0433 22.304C21.7713 22.024 21.3993 21.884 20.9273 21.884C20.6713 21.884 20.4233 21.928 20.1833 22.016C19.9433 22.096 19.7073 22.24 19.4753 22.448C19.4033 22.512 19.3113 22.576 19.1993 22.64C19.0873 22.696 18.9673 22.724 18.8393 22.724C18.6393 22.724 18.4873 22.672 18.3833 22.568C18.2793 22.464 18.2273 22.32 18.2273 22.136V18.212C18.2273 17.996 18.2833 17.832 18.3953 17.72C18.5153 17.6 18.6833 17.54 18.8993 17.54H22.8473C23.0633 17.54 23.2273 17.596 23.3393 17.708C23.4593 17.812 23.5193 17.968 23.5193 18.176C23.5193 18.376 23.4593 18.532 23.3393 18.644C23.2273 18.756 23.0633 18.812 22.8473 18.812H19.7273V21.5H19.3313C19.5393 21.22 19.8153 21.004 20.1593 20.852C20.5033 20.7 20.8793 20.624 21.2873 20.624C21.8233 20.624 22.2873 20.74 22.6793 20.972C23.0793 21.196 23.3873 21.512 23.6033 21.92C23.8273 22.32 23.9393 22.788 23.9393 23.324C23.9393 23.876 23.8153 24.364 23.5673 24.788C23.3193 25.204 22.9633 25.532 22.4993 25.772C22.0433 26.004 21.4993 26.12 20.8673 26.12ZM25.8906 26.06C25.6186 26.06 25.3986 25.976 25.2306 25.808C25.0706 25.64 24.9906 25.424 24.9906 25.16C24.9906 24.904 25.0706 24.696 25.2306 24.536C25.3986 24.368 25.6186 24.284 25.8906 24.284C26.1706 24.284 26.3866 24.368 26.5386 24.536C26.6986 24.696 26.7786 24.904 26.7786 25.16C26.7786 25.424 26.6986 25.64 26.5386 25.808C26.3866 25.976 26.1706 26.06 25.8906 26.06Z" fill="#C45500"/>
<path d="M31.0392 26.12C30.6152 26.12 30.1832 26.064 29.7432 25.952C29.3032 25.84 28.8992 25.668 28.5312 25.436C28.3792 25.34 28.2752 25.228 28.2192 25.1C28.1712 24.964 28.1592 24.832 28.1832 24.704C28.2152 24.568 28.2752 24.456 28.3632 24.368C28.4592 24.272 28.5712 24.216 28.6992 24.2C28.8352 24.184 28.9832 24.22 29.1432 24.308C29.4392 24.476 29.7392 24.604 30.0432 24.692C30.3472 24.78 30.6712 24.824 31.0152 24.824C31.3512 24.824 31.6392 24.764 31.8792 24.644C32.1192 24.524 32.3032 24.356 32.4312 24.14C32.5592 23.924 32.6232 23.672 32.6232 23.384C32.6232 22.936 32.4872 22.576 32.2152 22.304C31.9432 22.024 31.5712 21.884 31.0992 21.884C30.8432 21.884 30.5952 21.928 30.3552 22.016C30.1152 22.096 29.8792 22.24 29.6472 22.448C29.5752 22.512 29.4832 22.576 29.3712 22.64C29.2592 22.696 29.1392 22.724 29.0112 22.724C28.8112 22.724 28.6592 22.672 28.5552 22.568C28.4512 22.464 28.3992 22.32 28.3992 22.136V18.212C28.3992 17.996 28.4552 17.832 28.5672 17.72C28.6872 17.6 28.8552 17.54 29.0712 17.54H33.0192C33.2352 17.54 33.3992 17.596 33.5112 17.708C33.6312 17.812 33.6912 17.968 33.6912 18.176C33.6912 18.376 33.6312 18.532 33.5112 18.644C33.3992 18.756 33.2352 18.812 33.0192 18.812H29.8992V21.5H29.5032C29.7112 21.22 29.9872 21.004 30.3312 20.852C30.6752 20.7 31.0512 20.624 31.4592 20.624C31.9952 20.624 32.4592 20.74 32.8512 20.972C33.2512 21.196 33.5592 21.512 33.7752 21.92C33.9992 22.32 34.1112 22.788 34.1112 23.324C34.1112 23.876 33.9872 24.364 33.7392 24.788C33.4912 25.204 33.1352 25.532 32.6712 25.772C32.2152 26.004 31.6712 26.12 31.0392 26.12Z" fill="#DB7F39"/>
</svg>
