<svg width="45" height="45" viewBox="0 0 45 45" fill="none" xmlns="http://www.w3.org/2000/svg">
<path d="M45 22.5C45 34.9264 34.9264 45 22.5 45C10.0736 45 0 34.9264 0 22.5C0 10.0736 10.0736 0 22.5 0C34.9264 0 45 10.0736 45 22.5ZM5.3514 22.5C5.3514 31.9709 13.0291 39.6486 22.5 39.6486C31.9709 39.6486 39.6486 31.9709 39.6486 22.5C39.6486 13.0291 31.9709 5.3514 22.5 5.3514C13.0291 5.3514 5.3514 13.0291 5.3514 22.5Z" fill="#F1ECFF"/>
<path d="M22.5 2.59068C22.5 1.15989 23.6637 -0.0154051 25.085 0.148978C28.352 0.526818 31.5074 1.6177 34.3233 3.35687C37.8765 5.55142 40.7488 8.69157 42.6187 12.4258C44.4886 16.1601 45.2822 20.3411 44.9109 24.5008C44.5395 28.6605 43.0177 32.6348 40.5159 35.9788C38.0141 39.3227 34.631 41.9044 30.7452 43.4348C26.8595 44.9652 22.6244 45.384 18.5142 44.6442C14.404 43.9044 10.5808 42.0352 7.47256 39.2459C5.00929 37.0354 3.0721 34.3162 1.78749 31.2888C1.22861 29.9716 2.02764 28.5235 3.40025 28.1197C4.77286 27.7158 6.19575 28.5128 6.79967 29.8099C7.78294 31.9218 9.18615 33.8219 10.9331 35.3896C13.3256 37.5366 16.2684 38.9753 19.4321 39.5447C22.5958 40.1142 25.8555 39.7919 28.8465 38.6139C31.8374 37.4359 34.4415 35.4487 36.3671 32.8748C38.2928 30.3009 39.4642 27.2419 39.75 24.0401C40.0359 20.8383 39.425 17.6201 37.9857 14.7457C36.5464 11.8714 34.3356 9.45438 31.6006 7.7652C29.6035 6.53177 27.3846 5.72196 25.0811 5.37477C23.6663 5.16153 22.5 4.02148 22.5 2.59068Z" fill="#5E36FF"/>
<path d="M14.912 26.12C14.216 26.12 13.62 25.956 13.124 25.628C12.636 25.292 12.264 24.812 12.008 24.188C11.752 23.564 11.624 22.808 11.624 21.92C11.624 21.2 11.704 20.564 11.864 20.012C12.032 19.452 12.272 18.98 12.584 18.596C12.896 18.212 13.276 17.92 13.724 17.72C14.18 17.52 14.692 17.42 15.26 17.42C15.612 17.42 15.968 17.476 16.328 17.588C16.696 17.692 17.04 17.852 17.36 18.068C17.488 18.148 17.572 18.252 17.612 18.38C17.652 18.508 17.656 18.636 17.624 18.764C17.6 18.884 17.544 18.992 17.456 19.088C17.376 19.176 17.272 19.232 17.144 19.256C17.016 19.272 16.876 19.236 16.724 19.148C16.452 18.988 16.196 18.876 15.956 18.812C15.716 18.748 15.476 18.716 15.236 18.716C14.772 18.716 14.38 18.824 14.06 19.04C13.74 19.256 13.496 19.58 13.328 20.012C13.168 20.444 13.088 20.984 13.088 21.632V22.532H12.944C13.008 22.124 13.14 21.776 13.34 21.488C13.548 21.192 13.812 20.968 14.132 20.816C14.452 20.656 14.808 20.576 15.2 20.576C15.688 20.576 16.12 20.692 16.496 20.924C16.872 21.156 17.168 21.476 17.384 21.884C17.6 22.292 17.708 22.76 17.708 23.288C17.708 23.832 17.588 24.32 17.348 24.752C17.116 25.176 16.788 25.512 16.364 25.76C15.948 26 15.464 26.12 14.912 26.12ZM14.828 24.896C15.116 24.896 15.368 24.832 15.584 24.704C15.808 24.576 15.98 24.396 16.1 24.164C16.22 23.924 16.28 23.652 16.28 23.348C16.28 23.036 16.22 22.764 16.1 22.532C15.98 22.3 15.808 22.12 15.584 21.992C15.368 21.856 15.116 21.788 14.828 21.788C14.54 21.788 14.288 21.856 14.072 21.992C13.856 22.12 13.684 22.3 13.556 22.532C13.436 22.764 13.376 23.036 13.376 23.348C13.376 23.652 13.436 23.924 13.556 24.164C13.684 24.396 13.856 24.576 14.072 24.704C14.288 24.832 14.54 24.896 14.828 24.896ZM20.2593 26.096C20.0753 26.096 19.9233 26.052 19.8033 25.964C19.6833 25.876 19.6113 25.76 19.5873 25.616C19.5633 25.464 19.5993 25.296 19.6953 25.112L23.3193 18.296V18.824H19.4313C19.2153 18.824 19.0473 18.768 18.9273 18.656C18.8153 18.544 18.7593 18.388 18.7593 18.188C18.7593 17.98 18.8153 17.82 18.9273 17.708C19.0473 17.596 19.2153 17.54 19.4313 17.54H24.0753C24.2913 17.54 24.4673 17.596 24.6033 17.708C24.7393 17.82 24.8073 17.98 24.8073 18.188C24.8073 18.364 24.7833 18.52 24.7353 18.656C24.6873 18.784 24.6233 18.924 24.5433 19.076L21.1353 25.592C21.0473 25.768 20.9313 25.896 20.7873 25.976C20.6513 26.056 20.4753 26.096 20.2593 26.096ZM29.0626 26.12C28.6386 26.12 28.2066 26.064 27.7666 25.952C27.3266 25.84 26.9226 25.668 26.5546 25.436C26.4026 25.34 26.2986 25.228 26.2426 25.1C26.1946 24.964 26.1826 24.832 26.2066 24.704C26.2386 24.568 26.2986 24.456 26.3866 24.368C26.4826 24.272 26.5946 24.216 26.7226 24.2C26.8586 24.184 27.0066 24.22 27.1666 24.308C27.4626 24.476 27.7626 24.604 28.0666 24.692C28.3706 24.78 28.6946 24.824 29.0386 24.824C29.3746 24.824 29.6626 24.764 29.9026 24.644C30.1426 24.524 30.3266 24.356 30.4546 24.14C30.5826 23.924 30.6466 23.672 30.6466 23.384C30.6466 22.936 30.5106 22.576 30.2386 22.304C29.9666 22.024 29.5946 21.884 29.1226 21.884C28.8666 21.884 28.6186 21.928 28.3786 22.016C28.1386 22.096 27.9026 22.24 27.6706 22.448C27.5986 22.512 27.5066 22.576 27.3946 22.64C27.2826 22.696 27.1626 22.724 27.0346 22.724C26.8346 22.724 26.6826 22.672 26.5786 22.568C26.4746 22.464 26.4226 22.32 26.4226 22.136V18.212C26.4226 17.996 26.4786 17.832 26.5906 17.72C26.7106 17.6 26.8786 17.54 27.0946 17.54H31.0426C31.2586 17.54 31.4226 17.596 31.5346 17.708C31.6546 17.812 31.7146 17.968 31.7146 18.176C31.7146 18.376 31.6546 18.532 31.5346 18.644C31.4226 18.756 31.2586 18.812 31.0426 18.812H27.9226V21.5H27.5266C27.7346 21.22 28.0106 21.004 28.3546 20.852C28.6986 20.7 29.0746 20.624 29.4826 20.624C30.0186 20.624 30.4826 20.74 30.8746 20.972C31.2746 21.196 31.5826 21.512 31.7986 21.92C32.0226 22.32 32.1346 22.788 32.1346 23.324C32.1346 23.876 32.0106 24.364 31.7626 24.788C31.5146 25.204 31.1586 25.532 30.6946 25.772C30.2386 26.004 29.6946 26.12 29.0626 26.12Z" fill="#5E36FF"/>
</svg>
