<svg width="45" height="45" viewBox="0 0 45 45" fill="none" xmlns="http://www.w3.org/2000/svg">
<path d="M45 22.5C45 34.9264 34.9264 45 22.5 45C10.0736 45 0 34.9264 0 22.5C0 10.0736 10.0736 0 22.5 0C34.9264 0 45 10.0736 45 22.5ZM5.3514 22.5C5.3514 31.9709 13.0291 39.6486 22.5 39.6486C31.9709 39.6486 39.6486 31.9709 39.6486 22.5C39.6486 13.0291 31.9709 5.3514 22.5 5.3514C13.0291 5.3514 5.3514 13.0291 5.3514 22.5Z" fill="#76BC21" fill-opacity="0.12"/>
<path d="M37 22.5C37 30.5081 30.5081 37 22.5 37C14.4919 37 8 30.5081 8 22.5C8 14.4919 14.4919 8 22.5 8C30.5081 8 37 14.4919 37 22.5ZM10.9 22.5C10.9 28.9065 16.0935 34.1 22.5 34.1C28.9065 34.1 34.1 28.9065 34.1 22.5C34.1 16.0935 28.9065 10.9 22.5 10.9C16.0935 10.9 10.9 16.0935 10.9 22.5Z" fill="#9FD65C" fill-opacity="0.49"/>
<path d="M22.5 2.59068C22.5 1.15989 23.6638 -0.0154184 25.0851 0.148955C29.3914 0.646971 33.4824 2.38164 36.8497 5.16976C40.8851 8.51114 43.6279 13.1561 44.6052 18.3033C45.5824 23.4506 44.7327 28.7776 42.2026 33.3654C40.0915 37.1936 36.9208 40.3069 33.0966 42.3485C31.8344 43.0223 30.3209 42.3553 29.7966 41.0241C29.2722 39.6928 29.9395 38.2047 31.1777 37.4878C33.8882 35.9184 36.1374 33.6342 37.6654 30.8633C39.6129 27.332 40.2669 23.2317 39.5147 19.2698C38.7625 15.3078 36.6513 11.7325 33.5452 9.16061C31.108 7.14257 28.1781 5.84153 25.0811 5.37475C23.6663 5.16151 22.5 4.02147 22.5 2.59068Z" fill="#6AAD18"/>
<path d="M16.596 27C16.34 27 16.152 26.944 16.032 26.832C15.92 26.712 15.864 26.54 15.864 26.316C15.864 26.18 15.9 26.048 15.972 25.92C16.044 25.792 16.148 25.656 16.284 25.512L18.696 22.944C19.064 22.56 19.328 22.212 19.488 21.9C19.648 21.58 19.728 21.26 19.728 20.94C19.728 20.54 19.6 20.236 19.344 20.028C19.096 19.82 18.732 19.716 18.252 19.716C17.98 19.716 17.708 19.756 17.436 19.836C17.164 19.908 16.888 20.036 16.608 20.22C16.464 20.316 16.328 20.356 16.2 20.34C16.08 20.324 15.972 20.272 15.876 20.184C15.788 20.096 15.728 19.988 15.696 19.86C15.664 19.732 15.668 19.604 15.708 19.476C15.756 19.34 15.852 19.224 15.996 19.128C16.34 18.896 16.724 18.72 17.148 18.6C17.58 18.48 18.012 18.42 18.444 18.42C19.052 18.42 19.564 18.512 19.98 18.696C20.396 18.88 20.712 19.148 20.928 19.5C21.144 19.852 21.252 20.28 21.252 20.784C21.252 21.12 21.196 21.448 21.084 21.768C20.98 22.088 20.816 22.412 20.592 22.74C20.376 23.068 20.092 23.416 19.74 23.784L17.484 26.136V25.728H21.012C21.228 25.728 21.392 25.78 21.504 25.884C21.616 25.988 21.672 26.144 21.672 26.352C21.672 26.56 21.616 26.72 21.504 26.832C21.392 26.944 21.228 27 21.012 27H16.596ZM25.8673 27.12C25.4433 27.12 25.0113 27.064 24.5713 26.952C24.1313 26.84 23.7273 26.668 23.3593 26.436C23.2073 26.34 23.1033 26.228 23.0473 26.1C22.9993 25.964 22.9873 25.832 23.0113 25.704C23.0433 25.568 23.1033 25.456 23.1913 25.368C23.2873 25.272 23.3993 25.216 23.5273 25.2C23.6633 25.184 23.8113 25.22 23.9713 25.308C24.2673 25.476 24.5673 25.604 24.8713 25.692C25.1753 25.78 25.4993 25.824 25.8433 25.824C26.1793 25.824 26.4673 25.764 26.7073 25.644C26.9473 25.524 27.1313 25.356 27.2593 25.14C27.3873 24.924 27.4513 24.672 27.4513 24.384C27.4513 23.936 27.3153 23.576 27.0433 23.304C26.7713 23.024 26.3993 22.884 25.9273 22.884C25.6713 22.884 25.4233 22.928 25.1833 23.016C24.9433 23.096 24.7073 23.24 24.4753 23.448C24.4033 23.512 24.3113 23.576 24.1993 23.64C24.0873 23.696 23.9673 23.724 23.8393 23.724C23.6393 23.724 23.4873 23.672 23.3833 23.568C23.2793 23.464 23.2273 23.32 23.2273 23.136V19.212C23.2273 18.996 23.2833 18.832 23.3953 18.72C23.5153 18.6 23.6833 18.54 23.8993 18.54H27.8473C28.0633 18.54 28.2273 18.596 28.3393 18.708C28.4593 18.812 28.5193 18.968 28.5193 19.176C28.5193 19.376 28.4593 19.532 28.3393 19.644C28.2273 19.756 28.0633 19.812 27.8473 19.812H24.7273V22.5H24.3313C24.5393 22.22 24.8153 22.004 25.1593 21.852C25.5033 21.7 25.8793 21.624 26.2873 21.624C26.8233 21.624 27.2873 21.74 27.6793 21.972C28.0793 22.196 28.3873 22.512 28.6033 22.92C28.8273 23.32 28.9393 23.788 28.9393 24.324C28.9393 24.876 28.8153 25.364 28.5673 25.788C28.3193 26.204 27.9633 26.532 27.4993 26.772C27.0433 27.004 26.4993 27.12 25.8673 27.12Z" fill="#6AAD18"/>
</svg>
