<svg width="255" height="80" viewBox="0 0 255 80" fill="none" xmlns="http://www.w3.org/2000/svg">
<rect x="88" width="79" height="79" rx="14" fill="white"/>
<rect x="88.5" y="0.5" width="78" height="78" rx="13.5" stroke="#64728C" stroke-opacity="0.2"/>
<rect x="176" y="1" width="79" height="79" rx="14" fill="white"/>
<rect x="176.5" y="1.5" width="78" height="78" rx="13.5" stroke="#64728C" stroke-opacity="0.2"/>
<path d="M128 19.8333C124.011 19.8333 120.112 21.0161 116.796 23.232C113.48 25.448 110.895 28.5976 109.368 32.2826C107.842 35.9675 107.443 40.0224 108.221 43.9343C108.999 47.8463 110.92 51.4396 113.74 54.26C116.56 57.0804 120.154 59.001 124.066 59.7792C127.978 60.5573 132.033 60.158 135.718 58.6316C139.402 57.1052 142.552 54.5204 144.768 51.204C146.984 47.8876 148.167 43.9886 148.167 40C148.167 34.6515 146.042 29.522 142.26 25.74C138.478 21.958 133.349 19.8333 128 19.8333ZM138.371 50.3712C138.027 50.7149 137.561 50.908 137.075 50.908C136.589 50.908 136.123 50.7149 135.779 50.3712L127.241 41.8333H115.167C114.68 41.8333 114.214 41.6402 113.87 41.2964C113.527 40.9526 113.333 40.4862 113.333 40C113.333 39.5138 113.527 39.0475 113.87 38.7036C114.214 38.3598 114.68 38.1667 115.167 38.1667H126.167V27.1667C126.167 26.6804 126.36 26.2141 126.704 25.8703C127.048 25.5265 127.514 25.3333 128 25.3333C128.486 25.3333 128.953 25.5265 129.296 25.8703C129.64 26.2141 129.833 26.6804 129.833 27.1667V39.241L138.371 47.7788C138.715 48.1226 138.908 48.5889 138.908 49.075C138.908 49.5611 138.715 50.0274 138.371 50.3712Z" fill="#64728C"/>
<path d="M235.62 57.1131H232.205V38.2887C232.205 37.381 231.845 36.5104 231.204 35.8685C230.564 35.2267 229.695 34.8661 228.789 34.8661H225.374C224.468 34.8661 223.6 35.2267 222.959 35.8685C222.319 36.5104 221.959 37.381 221.959 38.2887V57.1131H215.129V24.5982C215.129 23.6905 214.769 22.8199 214.129 22.1781C213.488 21.5362 212.619 21.1756 211.714 21.1756H208.298C207.393 21.1756 206.524 21.5362 205.884 22.1781C205.243 22.8199 204.883 23.6905 204.883 24.5982V57.1131H203.176C202.27 57.1131 201.401 56.7525 200.761 56.1106C200.12 55.4688 199.761 54.5982 199.761 53.6905V21.1756C199.761 20.7217 199.581 20.2865 199.26 19.9655C198.94 19.6446 198.506 19.4643 198.053 19.4643C197.6 19.4643 197.166 19.6446 196.846 19.9655C196.525 20.2865 196.345 20.7217 196.345 21.1756V53.6905C196.345 55.506 197.065 57.2471 198.346 58.5308C199.627 59.8145 201.364 60.5357 203.176 60.5357H235.62C236.073 60.5357 236.507 60.3554 236.827 60.0345C237.147 59.7136 237.327 59.2783 237.327 58.8244C237.327 58.3705 237.147 57.9353 236.827 57.6143C236.507 57.2934 236.073 57.1131 235.62 57.1131Z" fill="#64728C"/>
<g filter="url(#filter0_bi_1307_3013)">
<path d="M0 15C0 7.26802 6.26801 1 14 1H65C72.732 1 79 7.26801 79 15V66C79 73.732 72.732 80 65 80H14C6.26802 80 0 73.732 0 66V15Z" fill="#76BC21" fill-opacity="0.05"/>
<path d="M0 15C0 7.26802 6.26801 1 14 1H65C72.732 1 79 7.26801 79 15V66C79 73.732 72.732 80 65 80H14C6.26802 80 0 73.732 0 66V15Z" fill="url(#paint0_linear_1307_3013)" fill-opacity="0.2"/>
<path d="M0.5 15C0.5 7.54416 6.54416 1.5 14 1.5H65C72.4558 1.5 78.5 7.54416 78.5 15V66C78.5 73.4558 72.4558 79.5 65 79.5H14C6.54416 79.5 0.5 73.4558 0.5 66V15Z" stroke="#76BC21"/>
<path d="M0.5 15C0.5 7.54416 6.54416 1.5 14 1.5H65C72.4558 1.5 78.5 7.54416 78.5 15V66C78.5 73.4558 72.4558 79.5 65 79.5H14C6.54416 79.5 0.5 73.4558 0.5 66V15Z" stroke="url(#paint1_linear_1307_3013)" stroke-opacity="0.2"/>
</g>
<path d="M31.8073 43.9883C32.7489 44.9069 34.1755 44.9069 35.0469 43.9883L38.6167 40.2625L42.649 44.4792C43.086 44.9363 43.6623 45.1641 44.2385 45.1641C44.8148 45.1641 45.3896 44.9344 45.8281 44.4751L56.6079 33.2023C57.4856 32.2845 57.4856 30.7956 56.608 29.8771C55.7296 28.9585 54.3058 28.9585 53.4281 29.8769L44.2385 39.4909L40.2049 35.2728C39.3265 34.3542 37.9034 34.3542 37.025 35.2728L31.8073 40.6667C30.9921 41.5779 30.9921 43.0697 31.8073 43.9883ZM57.7309 52.2188H28.4974V26.2854C28.4974 25.0531 27.4904 24 26.2487 24C25.007 24 24 25.0531 24 26.2854V54.5703C24 55.8637 25.0119 56.9219 26.2487 56.9219H57.7309C58.9747 56.9219 59.9796 55.871 59.9796 54.5703C59.9796 53.2696 58.9747 52.2188 57.7309 52.2188Z" fill="#76BC21"/>
<defs>
<filter id="filter0_bi_1307_3013" x="-15" y="-14" width="109" height="109" filterUnits="userSpaceOnUse" color-interpolation-filters="sRGB">
<feFlood flood-opacity="0" result="BackgroundImageFix"/>
<feGaussianBlur in="BackgroundImageFix" stdDeviation="7.5"/>
<feComposite in2="SourceAlpha" operator="in" result="effect1_backgroundBlur_1307_3013"/>
<feBlend mode="normal" in="SourceGraphic" in2="effect1_backgroundBlur_1307_3013" result="shape"/>
<feColorMatrix in="SourceAlpha" type="matrix" values="0 0 0 0 0 0 0 0 0 0 0 0 0 0 0 0 0 0 127 0" result="hardAlpha"/>
<feOffset dy="4"/>
<feGaussianBlur stdDeviation="3"/>
<feComposite in2="hardAlpha" operator="arithmetic" k2="-1" k3="1"/>
<feColorMatrix type="matrix" values="0 0 0 0 0.462745 0 0 0 0 0.737255 0 0 0 0 0.129412 0 0 0 0.15 0"/>
<feBlend mode="normal" in2="shape" result="effect2_innerShadow_1307_3013"/>
</filter>
<linearGradient id="paint0_linear_1307_3013" x1="71.5" y1="4" x2="89.5" y2="77.5" gradientUnits="userSpaceOnUse">
<stop offset="0.233202" stop-color="#76BC21" stop-opacity="0.1"/>
<stop offset="1" stop-color="#76BC21" stop-opacity="0.5"/>
</linearGradient>
<linearGradient id="paint1_linear_1307_3013" x1="86.5" y1="1" x2="86.5" y2="80" gradientUnits="userSpaceOnUse">
<stop offset="0.16" stop-color="#76BC21" stop-opacity="0.08"/>
<stop offset="1" stop-color="#76BC21" stop-opacity="0.48"/>
</linearGradient>
</defs>
</svg>
