<svg width="234" height="51" viewBox="0 0 234 51" fill="none" xmlns="http://www.w3.org/2000/svg">
<g filter="url(#filter0_i_1095_9297)">
<g clip-path="url(#clip0_1095_9297)">
<rect width="234" height="51" rx="25.5" fill="#64728C" fill-opacity="0.07"/>
<g filter="url(#filter1_dd_1095_9297)">
<rect x="4" y="4" width="103" height="43" rx="21.5" fill="white"/>
<rect x="4.5" y="4.5" width="102" height="42" rx="21" stroke="url(#paint0_linear_1095_9297)"/>
<g filter="url(#filter2_i_1095_9297)">
<path d="M24.7544 30.14C24.3437 30.14 23.9331 30.1073 23.5224 30.042C23.1117 29.986 22.7244 29.8973 22.3604 29.776C21.9964 29.6453 21.6697 29.4867 21.3804 29.3C21.2124 29.188 21.0957 29.0527 21.0304 28.894C20.9651 28.7353 20.9417 28.5813 20.9604 28.432C20.9884 28.2733 21.0491 28.138 21.1424 28.026C21.2451 27.9047 21.3711 27.83 21.5204 27.802C21.6697 27.774 21.8331 27.816 22.0104 27.928C22.4211 28.1707 22.8551 28.348 23.3124 28.46C23.7697 28.572 24.2504 28.628 24.7544 28.628C25.4917 28.628 26.0284 28.5067 26.3644 28.264C26.7004 28.012 26.8684 27.69 26.8684 27.298C26.8684 26.9713 26.7471 26.7147 26.5044 26.528C26.2711 26.3413 25.8651 26.1873 25.2864 26.066L23.7464 25.744C22.8597 25.5573 22.1971 25.2447 21.7584 24.806C21.3291 24.358 21.1144 23.77 21.1144 23.042C21.1144 22.5847 21.2077 22.1693 21.3944 21.796C21.5811 21.4227 21.8424 21.1007 22.1784 20.83C22.5237 20.5593 22.9297 20.354 23.3964 20.214C23.8724 20.0647 24.3951 19.99 24.9644 19.99C25.5244 19.99 26.0564 20.06 26.5604 20.2C27.0644 20.34 27.5171 20.5453 27.9184 20.816C28.0677 20.9187 28.1657 21.0447 28.2124 21.194C28.2684 21.3433 28.2824 21.4927 28.2544 21.642C28.2264 21.782 28.1611 21.9033 28.0584 22.006C27.9557 22.1087 27.8251 22.1693 27.6664 22.188C27.5171 22.2067 27.3444 22.16 27.1484 22.048C26.8031 21.852 26.4531 21.712 26.0984 21.628C25.7437 21.544 25.3611 21.502 24.9504 21.502C24.5211 21.502 24.1524 21.5627 23.8444 21.684C23.5364 21.8053 23.2984 21.978 23.1304 22.202C22.9717 22.4167 22.8924 22.6733 22.8924 22.972C22.8924 23.308 23.0044 23.5787 23.2284 23.784C23.4524 23.98 23.8351 24.134 24.3764 24.246L25.9024 24.568C26.8264 24.764 27.5124 25.072 27.9604 25.492C28.4177 25.912 28.6464 26.472 28.6464 27.172C28.6464 27.62 28.5531 28.026 28.3664 28.39C28.1891 28.754 27.9277 29.0667 27.5824 29.328C27.2464 29.5893 26.8404 29.79 26.3644 29.93C25.8884 30.07 25.3517 30.14 24.7544 30.14ZM30.8844 30.098C30.6044 30.098 30.3898 30.014 30.2404 29.846C30.0911 29.678 30.0164 29.4447 30.0164 29.146V24.008C30.0164 23.7 30.0911 23.4667 30.2404 23.308C30.3898 23.14 30.6044 23.056 30.8844 23.056C31.1644 23.056 31.3791 23.14 31.5284 23.308C31.6871 23.4667 31.7664 23.7 31.7664 24.008V29.146C31.7664 29.4447 31.6918 29.678 31.5424 29.846C31.3931 30.014 31.1738 30.098 30.8844 30.098ZM30.8844 21.754C30.5578 21.754 30.3011 21.6747 30.1144 21.516C29.9371 21.348 29.8484 21.1193 29.8484 20.83C29.8484 20.5313 29.9371 20.3027 30.1144 20.144C30.3011 19.9853 30.5578 19.906 30.8844 19.906C31.2204 19.906 31.4771 19.9853 31.6544 20.144C31.8318 20.3027 31.9204 20.5313 31.9204 20.83C31.9204 21.1193 31.8318 21.348 31.6544 21.516C31.4771 21.6747 31.2204 21.754 30.8844 21.754ZM34.4528 30.112C34.1728 30.112 33.9581 30.0373 33.8088 29.888C33.6595 29.7293 33.5848 29.5053 33.5848 29.216V23.924C33.5848 23.6347 33.6595 23.4153 33.8088 23.266C33.9581 23.1167 34.1681 23.042 34.4388 23.042C34.7095 23.042 34.9195 23.1167 35.0688 23.266C35.2181 23.4153 35.2928 23.6347 35.2928 23.924V24.876L35.1388 24.526C35.3441 24.0313 35.6615 23.658 36.0908 23.406C36.5295 23.1447 37.0241 23.014 37.5748 23.014C38.1255 23.014 38.5781 23.1167 38.9328 23.322C39.2875 23.5273 39.5535 23.84 39.7308 24.26C39.9081 24.6707 39.9968 25.1933 39.9968 25.828V29.216C39.9968 29.5053 39.9221 29.7293 39.7728 29.888C39.6235 30.0373 39.4088 30.112 39.1288 30.112C38.8488 30.112 38.6295 30.0373 38.4708 29.888C38.3215 29.7293 38.2468 29.5053 38.2468 29.216V25.912C38.2468 25.38 38.1441 24.9927 37.9388 24.75C37.7428 24.5073 37.4348 24.386 37.0148 24.386C36.5015 24.386 36.0908 24.5493 35.7828 24.876C35.4841 25.1933 35.3348 25.618 35.3348 26.15V29.216C35.3348 29.8133 35.0408 30.112 34.4528 30.112ZM44.9663 32.66C44.4623 32.66 43.9723 32.6133 43.4963 32.52C43.0296 32.4267 42.6049 32.282 42.2223 32.086C42.0449 31.9927 41.9236 31.8807 41.8583 31.75C41.8023 31.6193 41.7836 31.484 41.8023 31.344C41.8303 31.2133 41.8863 31.0967 41.9703 30.994C42.0636 30.8913 42.1756 30.8213 42.3063 30.784C42.4369 30.7467 42.5723 30.7653 42.7123 30.84C43.1229 31.0453 43.5103 31.176 43.8743 31.232C44.2476 31.2973 44.5649 31.33 44.8263 31.33C45.4516 31.33 45.9183 31.176 46.2263 30.868C46.5436 30.5693 46.7023 30.1213 46.7023 29.524V28.264H46.8283C46.6883 28.74 46.3943 29.1227 45.9463 29.412C45.5076 29.692 45.0083 29.832 44.4483 29.832C43.8323 29.832 43.2956 29.692 42.8383 29.412C42.3809 29.1227 42.0263 28.7213 41.7743 28.208C41.5223 27.6947 41.3963 27.0973 41.3963 26.416C41.3963 25.9027 41.4663 25.4407 41.6063 25.03C41.7556 24.61 41.9609 24.2507 42.2223 23.952C42.4929 23.6533 42.8149 23.4247 43.1883 23.266C43.5709 23.098 43.9909 23.014 44.4483 23.014C45.0269 23.014 45.5309 23.1587 45.9603 23.448C46.3989 23.728 46.6836 24.1013 46.8143 24.568L46.6743 24.918V23.924C46.6743 23.6347 46.7489 23.4153 46.8983 23.266C47.0569 23.1167 47.2716 23.042 47.5423 23.042C47.8223 23.042 48.0369 23.1167 48.1863 23.266C48.3356 23.4153 48.4103 23.6347 48.4103 23.924V29.314C48.4103 30.4247 48.1163 31.26 47.5283 31.82C46.9403 32.38 46.0863 32.66 44.9663 32.66ZM44.9243 28.502C45.2883 28.502 45.6009 28.418 45.8623 28.25C46.1236 28.082 46.3243 27.844 46.4643 27.536C46.6136 27.2187 46.6883 26.8453 46.6883 26.416C46.6883 25.772 46.5296 25.268 46.2123 24.904C45.8949 24.5307 45.4656 24.344 44.9243 24.344C44.5603 24.344 44.2476 24.428 43.9863 24.596C43.7249 24.764 43.5196 25.002 43.3703 25.31C43.2303 25.618 43.1603 25.9867 43.1603 26.416C43.1603 27.06 43.3189 27.5687 43.6363 27.942C43.9536 28.3153 44.3829 28.502 44.9243 28.502ZM52.5615 30.14C51.7868 30.14 51.2035 29.9207 50.8115 29.482C50.4195 29.034 50.2235 28.3807 50.2235 27.522V20.9C50.2235 20.6107 50.2981 20.3913 50.4475 20.242C50.5968 20.0927 50.8115 20.018 51.0915 20.018C51.3715 20.018 51.5861 20.0927 51.7355 20.242C51.8941 20.3913 51.9735 20.6107 51.9735 20.9V27.438C51.9735 27.8673 52.0621 28.1847 52.2395 28.39C52.4261 28.5953 52.6875 28.698 53.0235 28.698C53.0981 28.698 53.1681 28.698 53.2335 28.698C53.2988 28.6887 53.3641 28.6793 53.4295 28.67C53.5601 28.6513 53.6488 28.6887 53.6955 28.782C53.7421 28.866 53.7655 29.0433 53.7655 29.314C53.7655 29.5473 53.7188 29.7293 53.6255 29.86C53.5321 29.9907 53.3781 30.07 53.1635 30.098C53.0701 30.1073 52.9721 30.1167 52.8695 30.126C52.7668 30.1353 52.6641 30.14 52.5615 30.14ZM57.9998 30.14C57.2252 30.14 56.5578 29.9953 55.9978 29.706C55.4378 29.4167 55.0038 29.006 54.6958 28.474C54.3972 27.942 54.2478 27.312 54.2478 26.584C54.2478 25.8747 54.3925 25.254 54.6818 24.722C54.9805 24.19 55.3865 23.7747 55.8998 23.476C56.4225 23.168 57.0152 23.014 57.6778 23.014C58.1632 23.014 58.5972 23.0933 58.9798 23.252C59.3718 23.4107 59.7032 23.6393 59.9738 23.938C60.2538 24.2367 60.4638 24.6007 60.6038 25.03C60.7532 25.45 60.8278 25.926 60.8278 26.458C60.8278 26.626 60.7672 26.7567 60.6458 26.85C60.5338 26.934 60.3705 26.976 60.1558 26.976H55.6618V25.968H59.5958L59.3718 26.178C59.3718 25.7487 59.3065 25.3893 59.1758 25.1C59.0545 24.8107 58.8725 24.5913 58.6298 24.442C58.3965 24.2833 58.1025 24.204 57.7478 24.204C57.3558 24.204 57.0198 24.2973 56.7398 24.484C56.4692 24.6613 56.2592 24.918 56.1098 25.254C55.9698 25.5807 55.8998 25.9727 55.8998 26.43V26.528C55.8998 27.2933 56.0772 27.8673 56.4318 28.25C56.7958 28.6233 57.3278 28.81 58.0278 28.81C58.2705 28.81 58.5412 28.782 58.8398 28.726C59.1478 28.6607 59.4372 28.5533 59.7078 28.404C59.9038 28.292 60.0765 28.2453 60.2258 28.264C60.3752 28.2733 60.4918 28.3247 60.5758 28.418C60.6692 28.5113 60.7252 28.628 60.7438 28.768C60.7625 28.8987 60.7345 29.034 60.6598 29.174C60.5945 29.314 60.4778 29.4353 60.3098 29.538C59.9832 29.7433 59.6052 29.8973 59.1758 30C58.7558 30.0933 58.3638 30.14 57.9998 30.14ZM67.1345 30C66.8265 30 66.5885 29.9207 66.4205 29.762C66.2618 29.594 66.1825 29.356 66.1825 29.048V21.082C66.1825 20.774 66.2618 20.5407 66.4205 20.382C66.5885 20.214 66.8265 20.13 67.1345 20.13H69.8505C71.5025 20.13 72.7765 20.5547 73.6725 21.404C74.5778 22.2533 75.0305 23.4713 75.0305 25.058C75.0305 25.8513 74.9138 26.556 74.6805 27.172C74.4565 27.7787 74.1205 28.292 73.6725 28.712C73.2338 29.132 72.6925 29.454 72.0485 29.678C71.4138 29.8927 70.6812 30 69.8505 30H67.1345ZM67.9745 28.516H69.7385C70.3172 28.516 70.8165 28.446 71.2365 28.306C71.6658 28.1567 72.0205 27.942 72.3005 27.662C72.5898 27.3727 72.8045 27.0133 72.9445 26.584C73.0845 26.1453 73.1545 25.6367 73.1545 25.058C73.1545 23.9007 72.8698 23.0373 72.3005 22.468C71.7312 21.8987 70.8772 21.614 69.7385 21.614H67.9745V28.516ZM78.9326 30.14C78.4379 30.14 77.9946 30.0467 77.6026 29.86C77.2199 29.664 76.9166 29.4027 76.6926 29.076C76.4779 28.7493 76.3706 28.3807 76.3706 27.97C76.3706 27.466 76.5012 27.0693 76.7626 26.78C77.0239 26.4813 77.4486 26.2667 78.0366 26.136C78.6246 26.0053 79.4132 25.94 80.4026 25.94H81.1026V26.948H80.4166C79.8379 26.948 79.3759 26.976 79.0306 27.032C78.6852 27.088 78.4379 27.186 78.2886 27.326C78.1486 27.4567 78.0786 27.6433 78.0786 27.886C78.0786 28.194 78.1859 28.446 78.4006 28.642C78.6152 28.838 78.9139 28.936 79.2966 28.936C79.6046 28.936 79.8752 28.866 80.1086 28.726C80.3512 28.5767 80.5426 28.376 80.6826 28.124C80.8226 27.872 80.8926 27.5827 80.8926 27.256V25.646C80.8926 25.1793 80.7899 24.8433 80.5846 24.638C80.3792 24.4327 80.0339 24.33 79.5486 24.33C79.2779 24.33 78.9839 24.3627 78.6666 24.428C78.3586 24.4933 78.0319 24.6053 77.6866 24.764C77.5092 24.848 77.3506 24.8713 77.2106 24.834C77.0799 24.7967 76.9772 24.722 76.9026 24.61C76.8279 24.4887 76.7906 24.358 76.7906 24.218C76.7906 24.078 76.8279 23.9427 76.9026 23.812C76.9772 23.672 77.1032 23.5693 77.2806 23.504C77.7099 23.3267 78.1206 23.2007 78.5126 23.126C78.9139 23.0513 79.2779 23.014 79.6046 23.014C80.2766 23.014 80.8272 23.1167 81.2566 23.322C81.6952 23.5273 82.0219 23.84 82.2366 24.26C82.4512 24.6707 82.5586 25.2027 82.5586 25.856V29.216C82.5586 29.5053 82.4886 29.7293 82.3486 29.888C82.2086 30.0373 82.0079 30.112 81.7466 30.112C81.4852 30.112 81.2799 30.0373 81.1306 29.888C80.9906 29.7293 80.9206 29.5053 80.9206 29.216V28.544H81.0326C80.9672 28.8707 80.8366 29.1553 80.6406 29.398C80.4539 29.6313 80.2159 29.8133 79.9266 29.944C79.6372 30.0747 79.3059 30.14 78.9326 30.14ZM86.0024 32.632C85.7971 32.632 85.6291 32.576 85.4984 32.464C85.3678 32.3613 85.2884 32.2213 85.2604 32.044C85.2418 31.8667 85.2744 31.68 85.3584 31.484L86.3104 29.37V30.098L83.7624 24.204C83.6784 23.9987 83.6504 23.8073 83.6784 23.63C83.7064 23.4527 83.7904 23.3127 83.9304 23.21C84.0798 23.098 84.2804 23.042 84.5324 23.042C84.7471 23.042 84.9198 23.0933 85.0504 23.196C85.1811 23.2893 85.2978 23.4713 85.4004 23.742L87.2904 28.46H86.8704L88.8024 23.728C88.9051 23.4667 89.0264 23.2893 89.1664 23.196C89.3064 23.0933 89.4931 23.042 89.7264 23.042C89.9318 23.042 90.0951 23.098 90.2164 23.21C90.3378 23.3127 90.4124 23.4527 90.4404 23.63C90.4684 23.798 90.4358 23.9847 90.3424 24.19L86.9404 31.96C86.8191 32.2213 86.6884 32.3987 86.5484 32.492C86.4084 32.5853 86.2264 32.632 86.0024 32.632Z" fill="#64728C"/>
</g>
</g>
<g filter="url(#filter3_dd_1095_9297)">
<g filter="url(#filter4_i_1095_9297)">
<path d="M127.328 30.112C127.067 30.112 126.866 30.0373 126.726 29.888C126.586 29.7387 126.516 29.5333 126.516 29.272V20.858C126.516 20.5873 126.591 20.382 126.74 20.242C126.889 20.0927 127.095 20.018 127.356 20.018C127.589 20.018 127.771 20.0647 127.902 20.158C128.042 20.242 128.168 20.3913 128.28 20.606L131.738 27.004H131.29L134.748 20.606C134.86 20.3913 134.981 20.242 135.112 20.158C135.243 20.0647 135.425 20.018 135.658 20.018C135.919 20.018 136.12 20.0927 136.26 20.242C136.4 20.382 136.47 20.5873 136.47 20.858V29.272C136.47 29.5333 136.4 29.7387 136.26 29.888C136.129 30.0373 135.929 30.112 135.658 30.112C135.397 30.112 135.196 30.0373 135.056 29.888C134.916 29.7387 134.846 29.5333 134.846 29.272V22.79H135.154L132.214 28.152C132.121 28.3107 132.023 28.4273 131.92 28.502C131.817 28.5767 131.677 28.614 131.5 28.614C131.323 28.614 131.178 28.5767 131.066 28.502C130.954 28.418 130.856 28.3013 130.772 28.152L127.804 22.776H128.14V29.272C128.14 29.5333 128.07 29.7387 127.93 29.888C127.799 30.0373 127.599 30.112 127.328 30.112ZM140.952 30.14C140.383 30.14 139.912 30.0373 139.538 29.832C139.165 29.6173 138.885 29.3 138.698 28.88C138.521 28.46 138.432 27.9373 138.432 27.312V23.924C138.432 23.6253 138.507 23.406 138.656 23.266C138.806 23.1167 139.02 23.042 139.3 23.042C139.58 23.042 139.795 23.1167 139.944 23.266C140.103 23.406 140.182 23.6253 140.182 23.924V27.34C140.182 27.8253 140.28 28.1847 140.476 28.418C140.672 28.6513 140.985 28.768 141.414 28.768C141.881 28.768 142.264 28.6093 142.562 28.292C142.861 27.9653 143.01 27.536 143.01 27.004V23.924C143.01 23.6253 143.085 23.406 143.234 23.266C143.384 23.1167 143.598 23.042 143.878 23.042C144.158 23.042 144.373 23.1167 144.522 23.266C144.681 23.406 144.76 23.6253 144.76 23.924V29.216C144.76 29.8133 144.476 30.112 143.906 30.112C143.636 30.112 143.426 30.0373 143.276 29.888C143.127 29.7293 143.052 29.5053 143.052 29.216V28.152L143.248 28.572C143.052 29.076 142.754 29.4633 142.352 29.734C141.96 30.0047 141.494 30.14 140.952 30.14ZM148.92 30.14C148.145 30.14 147.562 29.9207 147.17 29.482C146.778 29.034 146.582 28.3807 146.582 27.522V20.9C146.582 20.6107 146.657 20.3913 146.806 20.242C146.955 20.0927 147.17 20.018 147.45 20.018C147.73 20.018 147.945 20.0927 148.094 20.242C148.253 20.3913 148.332 20.6107 148.332 20.9V27.438C148.332 27.8673 148.421 28.1847 148.598 28.39C148.785 28.5953 149.046 28.698 149.382 28.698C149.457 28.698 149.527 28.698 149.592 28.698C149.657 28.6887 149.723 28.6793 149.788 28.67C149.919 28.6513 150.007 28.6887 150.054 28.782C150.101 28.866 150.124 29.0433 150.124 29.314C150.124 29.5473 150.077 29.7293 149.984 29.86C149.891 29.9907 149.737 30.07 149.522 30.098C149.429 30.1073 149.331 30.1167 149.228 30.126C149.125 30.1353 149.023 30.14 148.92 30.14ZM154.011 30.14C153.404 30.14 152.896 30.0373 152.485 29.832C152.084 29.6267 151.785 29.328 151.589 28.936C151.393 28.5347 151.295 28.04 151.295 27.452V24.47H150.567C150.343 24.47 150.17 24.414 150.049 24.302C149.928 24.1807 149.867 24.0173 149.867 23.812C149.867 23.5973 149.928 23.434 150.049 23.322C150.17 23.21 150.343 23.154 150.567 23.154H151.295V21.88C151.295 21.5907 151.37 21.3713 151.519 21.222C151.678 21.0727 151.897 20.998 152.177 20.998C152.457 20.998 152.672 21.0727 152.821 21.222C152.97 21.3713 153.045 21.5907 153.045 21.88V23.154H154.529C154.753 23.154 154.926 23.21 155.047 23.322C155.168 23.434 155.229 23.5973 155.229 23.812C155.229 24.0173 155.168 24.1807 155.047 24.302C154.926 24.414 154.753 24.47 154.529 24.47H153.045V27.354C153.045 27.802 153.143 28.138 153.339 28.362C153.535 28.586 153.852 28.698 154.291 28.698C154.45 28.698 154.59 28.684 154.711 28.656C154.832 28.628 154.94 28.6093 155.033 28.6C155.145 28.5907 155.238 28.628 155.313 28.712C155.388 28.7867 155.425 28.9453 155.425 29.188C155.425 29.3747 155.392 29.5427 155.327 29.692C155.271 29.832 155.164 29.93 155.005 29.986C154.884 30.0233 154.725 30.056 154.529 30.084C154.333 30.1213 154.16 30.14 154.011 30.14ZM157.294 30.098C157.014 30.098 156.799 30.014 156.65 29.846C156.5 29.678 156.426 29.4447 156.426 29.146V24.008C156.426 23.7 156.5 23.4667 156.65 23.308C156.799 23.14 157.014 23.056 157.294 23.056C157.574 23.056 157.788 23.14 157.938 23.308C158.096 23.4667 158.176 23.7 158.176 24.008V29.146C158.176 29.4447 158.101 29.678 157.952 29.846C157.802 30.014 157.583 30.098 157.294 30.098ZM157.294 21.754C156.967 21.754 156.71 21.6747 156.524 21.516C156.346 21.348 156.258 21.1193 156.258 20.83C156.258 20.5313 156.346 20.3027 156.524 20.144C156.71 19.9853 156.967 19.906 157.294 19.906C157.63 19.906 157.886 19.9853 158.064 20.144C158.241 20.3027 158.33 20.5313 158.33 20.83C158.33 21.1193 158.241 21.348 158.064 21.516C157.886 21.6747 157.63 21.754 157.294 21.754ZM160.862 32.632C160.582 32.632 160.367 32.5573 160.218 32.408C160.069 32.2587 159.994 32.0393 159.994 31.75V23.924C159.994 23.6347 160.069 23.4153 160.218 23.266C160.367 23.1167 160.577 23.042 160.848 23.042C161.128 23.042 161.343 23.1167 161.492 23.266C161.641 23.4153 161.716 23.6347 161.716 23.924V25.016L161.562 24.596C161.702 24.12 161.987 23.7373 162.416 23.448C162.855 23.1587 163.363 23.014 163.942 23.014C164.539 23.014 165.062 23.1587 165.51 23.448C165.967 23.7373 166.322 24.148 166.574 24.68C166.826 25.2027 166.952 25.8327 166.952 26.57C166.952 27.298 166.826 27.9327 166.574 28.474C166.322 29.006 165.972 29.4167 165.524 29.706C165.076 29.9953 164.549 30.14 163.942 30.14C163.373 30.14 162.873 30 162.444 29.72C162.015 29.4307 161.725 29.0573 161.576 28.6H161.744V31.75C161.744 32.0393 161.665 32.2587 161.506 32.408C161.357 32.5573 161.142 32.632 160.862 32.632ZM163.452 28.81C163.797 28.81 164.101 28.726 164.362 28.558C164.623 28.39 164.824 28.1427 164.964 27.816C165.113 27.48 165.188 27.0647 165.188 26.57C165.188 25.8233 165.029 25.268 164.712 24.904C164.395 24.5307 163.975 24.344 163.452 24.344C163.107 24.344 162.803 24.428 162.542 24.596C162.281 24.7547 162.075 25.002 161.926 25.338C161.786 25.6647 161.716 26.0753 161.716 26.57C161.716 27.3073 161.875 27.8673 162.192 28.25C162.509 28.6233 162.929 28.81 163.452 28.81ZM170.727 30.14C169.952 30.14 169.369 29.9207 168.977 29.482C168.585 29.034 168.389 28.3807 168.389 27.522V20.9C168.389 20.6107 168.463 20.3913 168.613 20.242C168.762 20.0927 168.977 20.018 169.257 20.018C169.537 20.018 169.751 20.0927 169.901 20.242C170.059 20.3913 170.139 20.6107 170.139 20.9V27.438C170.139 27.8673 170.227 28.1847 170.405 28.39C170.591 28.5953 170.853 28.698 171.189 28.698C171.263 28.698 171.333 28.698 171.399 28.698C171.464 28.6887 171.529 28.6793 171.595 28.67C171.725 28.6513 171.814 28.6887 171.861 28.782C171.907 28.866 171.931 29.0433 171.931 29.314C171.931 29.5473 171.884 29.7293 171.791 29.86C171.697 29.9907 171.543 30.07 171.329 30.098C171.235 30.1073 171.137 30.1167 171.035 30.126C170.932 30.1353 170.829 30.14 170.727 30.14ZM176.165 30.14C175.39 30.14 174.723 29.9953 174.163 29.706C173.603 29.4167 173.169 29.006 172.861 28.474C172.562 27.942 172.413 27.312 172.413 26.584C172.413 25.8747 172.558 25.254 172.847 24.722C173.146 24.19 173.552 23.7747 174.065 23.476C174.588 23.168 175.18 23.014 175.843 23.014C176.328 23.014 176.762 23.0933 177.145 23.252C177.537 23.4107 177.868 23.6393 178.139 23.938C178.419 24.2367 178.629 24.6007 178.769 25.03C178.918 25.45 178.993 25.926 178.993 26.458C178.993 26.626 178.932 26.7567 178.811 26.85C178.699 26.934 178.536 26.976 178.321 26.976H173.827V25.968H177.761L177.537 26.178C177.537 25.7487 177.472 25.3893 177.341 25.1C177.22 24.8107 177.038 24.5913 176.795 24.442C176.562 24.2833 176.268 24.204 175.913 24.204C175.521 24.204 175.185 24.2973 174.905 24.484C174.634 24.6613 174.424 24.918 174.275 25.254C174.135 25.5807 174.065 25.9727 174.065 26.43V26.528C174.065 27.2933 174.242 27.8673 174.597 28.25C174.961 28.6233 175.493 28.81 176.193 28.81C176.436 28.81 176.706 28.782 177.005 28.726C177.313 28.6607 177.602 28.5533 177.873 28.404C178.069 28.292 178.242 28.2453 178.391 28.264C178.54 28.2733 178.657 28.3247 178.741 28.418C178.834 28.5113 178.89 28.628 178.909 28.768C178.928 28.8987 178.9 29.034 178.825 29.174C178.76 29.314 178.643 29.4353 178.475 29.538C178.148 29.7433 177.77 29.8973 177.341 30C176.921 30.0933 176.529 30.14 176.165 30.14ZM185.3 30C184.992 30 184.754 29.9207 184.586 29.762C184.427 29.594 184.348 29.356 184.348 29.048V21.082C184.348 20.774 184.427 20.5407 184.586 20.382C184.754 20.214 184.992 20.13 185.3 20.13H188.016C189.668 20.13 190.942 20.5547 191.838 21.404C192.743 22.2533 193.196 23.4713 193.196 25.058C193.196 25.8513 193.079 26.556 192.846 27.172C192.622 27.7787 192.286 28.292 191.838 28.712C191.399 29.132 190.858 29.454 190.214 29.678C189.579 29.8927 188.846 30 188.016 30H185.3ZM186.14 28.516H187.904C188.482 28.516 188.982 28.446 189.402 28.306C189.831 28.1567 190.186 27.942 190.466 27.662C190.755 27.3727 190.97 27.0133 191.11 26.584C191.25 26.1453 191.32 25.6367 191.32 25.058C191.32 23.9007 191.035 23.0373 190.466 22.468C189.896 21.8987 189.042 21.614 187.904 21.614H186.14V28.516ZM197.098 30.14C196.603 30.14 196.16 30.0467 195.768 29.86C195.385 29.664 195.082 29.4027 194.858 29.076C194.643 28.7493 194.536 28.3807 194.536 27.97C194.536 27.466 194.666 27.0693 194.928 26.78C195.189 26.4813 195.614 26.2667 196.202 26.136C196.79 26.0053 197.578 25.94 198.568 25.94H199.268V26.948H198.582C198.003 26.948 197.541 26.976 197.196 27.032C196.85 27.088 196.603 27.186 196.454 27.326C196.314 27.4567 196.244 27.6433 196.244 27.886C196.244 28.194 196.351 28.446 196.566 28.642C196.78 28.838 197.079 28.936 197.462 28.936C197.77 28.936 198.04 28.866 198.274 28.726C198.516 28.5767 198.708 28.376 198.848 28.124C198.988 27.872 199.058 27.5827 199.058 27.256V25.646C199.058 25.1793 198.955 24.8433 198.75 24.638C198.544 24.4327 198.199 24.33 197.714 24.33C197.443 24.33 197.149 24.3627 196.832 24.428C196.524 24.4933 196.197 24.6053 195.852 24.764C195.674 24.848 195.516 24.8713 195.376 24.834C195.245 24.7967 195.142 24.722 195.068 24.61C194.993 24.4887 194.956 24.358 194.956 24.218C194.956 24.078 194.993 23.9427 195.068 23.812C195.142 23.672 195.268 23.5693 195.446 23.504C195.875 23.3267 196.286 23.2007 196.678 23.126C197.079 23.0513 197.443 23.014 197.77 23.014C198.442 23.014 198.992 23.1167 199.422 23.322C199.86 23.5273 200.187 23.84 200.402 24.26C200.616 24.6707 200.724 25.2027 200.724 25.856V29.216C200.724 29.5053 200.654 29.7293 200.514 29.888C200.374 30.0373 200.173 30.112 199.912 30.112C199.65 30.112 199.445 30.0373 199.296 29.888C199.156 29.7293 199.086 29.5053 199.086 29.216V28.544H199.198C199.132 28.8707 199.002 29.1553 198.806 29.398C198.619 29.6313 198.381 29.8133 198.092 29.944C197.802 30.0747 197.471 30.14 197.098 30.14ZM204.167 32.632C203.962 32.632 203.794 32.576 203.663 32.464C203.533 32.3613 203.453 32.2213 203.425 32.044C203.407 31.8667 203.439 31.68 203.523 31.484L204.475 29.37V30.098L201.927 24.204C201.843 23.9987 201.815 23.8073 201.843 23.63C201.871 23.4527 201.955 23.3127 202.095 23.21C202.245 23.098 202.445 23.042 202.697 23.042C202.912 23.042 203.085 23.0933 203.215 23.196C203.346 23.2893 203.463 23.4713 203.565 23.742L205.455 28.46H205.035L206.967 23.728C207.07 23.4667 207.191 23.2893 207.331 23.196C207.471 23.0933 207.658 23.042 207.891 23.042C208.097 23.042 208.26 23.098 208.381 23.21C208.503 23.3127 208.577 23.4527 208.605 23.63C208.633 23.798 208.601 23.9847 208.507 24.19L205.105 31.96C204.984 32.2213 204.853 32.3987 204.713 32.492C204.573 32.5853 204.391 32.632 204.167 32.632ZM212.17 30.14C211.769 30.14 211.344 30.098 210.896 30.014C210.448 29.93 210.047 29.7853 209.692 29.58C209.543 29.4867 209.435 29.3793 209.37 29.258C209.314 29.1273 209.291 29.0013 209.3 28.88C209.319 28.7493 209.365 28.6373 209.44 28.544C209.524 28.4507 209.627 28.39 209.748 28.362C209.879 28.334 210.019 28.3573 210.168 28.432C210.541 28.6093 210.891 28.7353 211.218 28.81C211.545 28.8753 211.867 28.908 212.184 28.908C212.632 28.908 212.963 28.8333 213.178 28.684C213.402 28.5253 213.514 28.32 213.514 28.068C213.514 27.8533 213.439 27.69 213.29 27.578C213.15 27.4567 212.935 27.368 212.646 27.312L211.246 27.046C210.667 26.934 210.224 26.724 209.916 26.416C209.617 26.0987 209.468 25.6927 209.468 25.198C209.468 24.75 209.589 24.3627 209.832 24.036C210.084 23.7093 210.429 23.4573 210.868 23.28C211.307 23.1027 211.811 23.014 212.38 23.014C212.791 23.014 213.173 23.0607 213.528 23.154C213.892 23.238 214.242 23.3733 214.578 23.56C214.718 23.6347 214.811 23.7327 214.858 23.854C214.914 23.9753 214.928 24.1013 214.9 24.232C214.872 24.3533 214.816 24.4653 214.732 24.568C214.648 24.6613 214.541 24.722 214.41 24.75C214.289 24.7687 214.149 24.7407 213.99 24.666C213.701 24.5167 213.421 24.4093 213.15 24.344C212.889 24.2787 212.637 24.246 212.394 24.246C211.937 24.246 211.596 24.3253 211.372 24.484C211.157 24.6427 211.05 24.8527 211.05 25.114C211.05 25.31 211.115 25.4733 211.246 25.604C211.377 25.7347 211.577 25.8233 211.848 25.87L213.248 26.136C213.855 26.248 214.312 26.4533 214.62 26.752C214.937 27.0507 215.096 27.452 215.096 27.956C215.096 28.6373 214.83 29.174 214.298 29.566C213.766 29.9487 213.057 30.14 212.17 30.14Z" fill="#929BAA"/>
</g>
</g>
</g>
</g>
<defs>
<filter id="filter0_i_1095_9297" x="0" y="0" width="234" height="53" filterUnits="userSpaceOnUse" color-interpolation-filters="sRGB">
<feFlood flood-opacity="0" result="BackgroundImageFix"/>
<feBlend mode="normal" in="SourceGraphic" in2="BackgroundImageFix" result="shape"/>
<feColorMatrix in="SourceAlpha" type="matrix" values="0 0 0 0 0 0 0 0 0 0 0 0 0 0 0 0 0 0 127 0" result="hardAlpha"/>
<feOffset dy="2"/>
<feGaussianBlur stdDeviation="2"/>
<feComposite in2="hardAlpha" operator="arithmetic" k2="-1" k3="1"/>
<feColorMatrix type="matrix" values="0 0 0 0 0 0 0 0 0 0 0 0 0 0 0 0 0 0 0.05 0"/>
<feBlend mode="normal" in2="shape" result="effect1_innerShadow_1095_9297"/>
</filter>
<filter id="filter1_dd_1095_9297" x="-10" y="-10" width="123" height="65" filterUnits="userSpaceOnUse" color-interpolation-filters="sRGB">
<feFlood flood-opacity="0" result="BackgroundImageFix"/>
<feColorMatrix in="SourceAlpha" type="matrix" values="0 0 0 0 0 0 0 0 0 0 0 0 0 0 0 0 0 0 127 0" result="hardAlpha"/>
<feOffset dy="4"/>
<feGaussianBlur stdDeviation="2"/>
<feComposite in2="hardAlpha" operator="out"/>
<feColorMatrix type="matrix" values="0 0 0 0 0 0 0 0 0 0 0 0 0 0 0 0 0 0 0.05 0"/>
<feBlend mode="normal" in2="BackgroundImageFix" result="effect1_dropShadow_1095_9297"/>
<feColorMatrix in="SourceAlpha" type="matrix" values="0 0 0 0 0 0 0 0 0 0 0 0 0 0 0 0 0 0 127 0" result="hardAlpha"/>
<feOffset dx="-4" dy="-4"/>
<feGaussianBlur stdDeviation="5"/>
<feComposite in2="hardAlpha" operator="out"/>
<feColorMatrix type="matrix" values="0 0 0 0 1 0 0 0 0 1 0 0 0 0 1 0 0 0 0.61 0"/>
<feBlend mode="normal" in2="effect1_dropShadow_1095_9297" result="effect2_dropShadow_1095_9297"/>
<feBlend mode="normal" in="SourceGraphic" in2="effect2_dropShadow_1095_9297" result="shape"/>
</filter>
<filter id="filter2_i_1095_9297" x="20.9326" y="19.906" width="69.5498" height="14.7539" filterUnits="userSpaceOnUse" color-interpolation-filters="sRGB">
<feFlood flood-opacity="0" result="BackgroundImageFix"/>
<feBlend mode="normal" in="SourceGraphic" in2="BackgroundImageFix" result="shape"/>
<feColorMatrix in="SourceAlpha" type="matrix" values="0 0 0 0 0 0 0 0 0 0 0 0 0 0 0 0 0 0 127 0" result="hardAlpha"/>
<feOffset dy="2"/>
<feGaussianBlur stdDeviation="1"/>
<feComposite in2="hardAlpha" operator="arithmetic" k2="-1" k3="1"/>
<feColorMatrix type="matrix" values="0 0 0 0 0 0 0 0 0 0 0 0 0 0 0 0 0 0 0.05 0"/>
<feBlend mode="normal" in2="shape" result="effect1_innerShadow_1095_9297"/>
</filter>
<filter id="filter3_dd_1095_9297" x="97" y="-10" width="139" height="65" filterUnits="userSpaceOnUse" color-interpolation-filters="sRGB">
<feFlood flood-opacity="0" result="BackgroundImageFix"/>
<feColorMatrix in="SourceAlpha" type="matrix" values="0 0 0 0 0 0 0 0 0 0 0 0 0 0 0 0 0 0 127 0" result="hardAlpha"/>
<feOffset dy="4"/>
<feGaussianBlur stdDeviation="2"/>
<feComposite in2="hardAlpha" operator="out"/>
<feColorMatrix type="matrix" values="0 0 0 0 0 0 0 0 0 0 0 0 0 0 0 0 0 0 0.05 0"/>
<feBlend mode="normal" in2="BackgroundImageFix" result="effect1_dropShadow_1095_9297"/>
<feColorMatrix in="SourceAlpha" type="matrix" values="0 0 0 0 0 0 0 0 0 0 0 0 0 0 0 0 0 0 127 0" result="hardAlpha"/>
<feOffset dx="-4" dy="-4"/>
<feGaussianBlur stdDeviation="5"/>
<feComposite in2="hardAlpha" operator="out"/>
<feColorMatrix type="matrix" values="0 0 0 0 1 0 0 0 0 1 0 0 0 0 1 0 0 0 0.61 0"/>
<feBlend mode="normal" in2="effect1_dropShadow_1095_9297" result="effect2_dropShadow_1095_9297"/>
<feBlend mode="normal" in="SourceGraphic" in2="effect2_dropShadow_1095_9297" result="shape"/>
</filter>
<filter id="filter4_i_1095_9297" x="126.516" y="19.906" width="88.5796" height="14.7261" filterUnits="userSpaceOnUse" color-interpolation-filters="sRGB">
<feFlood flood-opacity="0" result="BackgroundImageFix"/>
<feBlend mode="normal" in="SourceGraphic" in2="BackgroundImageFix" result="shape"/>
<feColorMatrix in="SourceAlpha" type="matrix" values="0 0 0 0 0 0 0 0 0 0 0 0 0 0 0 0 0 0 127 0" result="hardAlpha"/>
<feOffset dy="2"/>
<feGaussianBlur stdDeviation="1"/>
<feComposite in2="hardAlpha" operator="arithmetic" k2="-1" k3="1"/>
<feColorMatrix type="matrix" values="0 0 0 0 0 0 0 0 0 0 0 0 0 0 0 0 0 0 0.05 0"/>
<feBlend mode="normal" in2="shape" result="effect1_innerShadow_1095_9297"/>
</filter>
<linearGradient id="paint0_linear_1095_9297" x1="61.7325" y1="4" x2="61.0367" y2="46.994" gradientUnits="userSpaceOnUse">
<stop offset="0.0412653" stop-color="#64728C" stop-opacity="0.08"/>
<stop offset="1" stop-color="#64728C" stop-opacity="0.18"/>
</linearGradient>
<clipPath id="clip0_1095_9297">
<rect width="234" height="51" rx="25.5" fill="white"/>
</clipPath>
</defs>
</svg>
