<svg width="355" height="65" viewBox="0 0 355 65" fill="none" xmlns="http://www.w3.org/2000/svg">
<mask id="path-1-inside-1_1313_3780" fill="white">
<path d="M0 30.5C0 13.6553 13.6553 0 30.5 0H324.5C341.345 0 355 13.6553 355 30.5V30.5C355 47.3447 341.345 61 324.5 61H30.5C13.6553 61 0 47.3447 0 30.5V30.5Z"/>
</mask>
<g filter="url(#filter0_i_1313_3780)">
<path d="M0 30.5C0 13.6553 13.6553 0 30.5 0H324.5C341.345 0 355 13.6553 355 30.5V30.5C355 47.3447 341.345 61 324.5 61H30.5C13.6553 61 0 47.3447 0 30.5V30.5Z" fill="#64728C" fill-opacity="0.11"/>
</g>
<path d="M30.5 1H324.5V-1H30.5V1ZM324.5 60H30.5V62H324.5V60ZM30.5 60C14.2076 60 1 46.7924 1 30.5H-1C-1 47.897 13.103 62 30.5 62V60ZM354 30.5C354 46.7924 340.792 60 324.5 60V62C341.897 62 356 47.897 356 30.5H354ZM324.5 1C340.792 1 354 14.2076 354 30.5H356C356 13.103 341.897 -1 324.5 -1V1ZM30.5 -1C13.103 -1 -1 13.103 -1 30.5H1C1 14.2076 14.2076 1 30.5 1V-1Z" fill="url(#paint0_linear_1313_3780)" mask="url(#path-1-inside-1_1313_3780)"/>
<rect x="1" y="2" width="296" height="57" rx="28.5" fill="url(#paint1_linear_1313_3780)" fill-opacity="0.8"/>
<rect x="1" y="2" width="296" height="57" rx="28.5" fill="url(#paint2_radial_1313_3780)" fill-opacity="0.2"/>
<g filter="url(#filter1_d_1313_3780)">
<rect x="242" y="4" width="53" height="53" rx="26.5" fill="white"/>
<rect x="242.5" y="4.5" width="52" height="52" rx="26" stroke="url(#paint3_linear_1313_3780)" stroke-opacity="0.5"/>
</g>
<path d="M202.44 38.16C202.133 38.16 201.88 38.0867 201.68 37.94C201.48 37.7933 201.36 37.6 201.32 37.36C201.28 37.1067 201.34 36.8267 201.5 36.52L207.54 25.16V26.04H201.06C200.7 26.04 200.42 25.9467 200.22 25.76C200.033 25.5733 199.94 25.3133 199.94 24.98C199.94 24.6333 200.033 24.3667 200.22 24.18C200.42 23.9933 200.7 23.9 201.06 23.9H208.8C209.16 23.9 209.453 23.9933 209.68 24.18C209.907 24.3667 210.02 24.6333 210.02 24.98C210.02 25.2733 209.98 25.5333 209.9 25.76C209.82 25.9733 209.713 26.2067 209.58 26.46L203.9 37.32C203.753 37.6133 203.56 37.8267 203.32 37.96C203.093 38.0933 202.8 38.16 202.44 38.16ZM217.112 38.2C216.406 38.2 215.686 38.1067 214.952 37.92C214.219 37.7333 213.546 37.4467 212.932 37.06C212.679 36.9 212.506 36.7133 212.412 36.5C212.332 36.2733 212.312 36.0533 212.352 35.84C212.406 35.6133 212.506 35.4267 212.652 35.28C212.812 35.12 212.999 35.0267 213.212 35C213.439 34.9733 213.686 35.0333 213.952 35.18C214.446 35.46 214.946 35.6733 215.452 35.82C215.959 35.9667 216.499 36.04 217.072 36.04C217.632 36.04 218.112 35.94 218.512 35.74C218.912 35.54 219.219 35.26 219.432 34.9C219.646 34.54 219.752 34.12 219.752 33.64C219.752 32.8933 219.526 32.2933 219.072 31.84C218.619 31.3733 217.999 31.14 217.212 31.14C216.786 31.14 216.372 31.2133 215.972 31.36C215.572 31.4933 215.179 31.7333 214.792 32.08C214.672 32.1867 214.519 32.2933 214.332 32.4C214.146 32.4933 213.946 32.54 213.732 32.54C213.399 32.54 213.146 32.4533 212.972 32.28C212.799 32.1067 212.712 31.8667 212.712 31.56V25.02C212.712 24.66 212.806 24.3867 212.992 24.2C213.192 24 213.472 23.9 213.832 23.9H220.412C220.772 23.9 221.046 23.9933 221.232 24.18C221.432 24.3533 221.532 24.6133 221.532 24.96C221.532 25.2933 221.432 25.5533 221.232 25.74C221.046 25.9267 220.772 26.02 220.412 26.02H215.212V30.5H214.552C214.899 30.0333 215.359 29.6733 215.932 29.42C216.506 29.1667 217.132 29.04 217.812 29.04C218.706 29.04 219.479 29.2333 220.132 29.62C220.799 29.9933 221.312 30.52 221.672 31.2C222.046 31.8667 222.232 32.6467 222.232 33.54C222.232 34.46 222.026 35.2733 221.612 35.98C221.199 36.6733 220.606 37.22 219.832 37.62C219.072 38.0067 218.166 38.2 217.112 38.2ZM227.136 30.844C227.04 31.004 226.924 31.108 226.788 31.156C226.652 31.212 226.516 31.224 226.38 31.192C226.244 31.16 226.128 31.096 226.032 31C225.944 30.896 225.888 30.772 225.864 30.628C225.84 30.484 225.876 30.332 225.972 30.172L230.28 22.708C230.376 22.54 230.492 22.428 230.628 22.372C230.764 22.316 230.896 22.308 231.024 22.348C231.16 22.38 231.276 22.448 231.372 22.552C231.468 22.648 231.528 22.768 231.552 22.912C231.576 23.056 231.54 23.208 231.444 23.368L227.136 30.844ZM225.624 27.58C224.928 27.58 224.388 27.348 224.004 26.884C223.62 26.412 223.428 25.78 223.428 24.988C223.428 24.452 223.512 23.992 223.68 23.608C223.856 23.224 224.108 22.928 224.436 22.72C224.772 22.512 225.168 22.408 225.624 22.408C226.312 22.408 226.848 22.644 227.232 23.116C227.624 23.58 227.82 24.204 227.82 24.988C227.82 25.516 227.732 25.976 227.556 26.368C227.388 26.752 227.14 27.052 226.812 27.268C226.484 27.476 226.088 27.58 225.624 27.58ZM225.624 26.428C225.784 26.428 225.916 26.38 226.02 26.284C226.132 26.18 226.216 26.024 226.272 25.816C226.336 25.6 226.368 25.324 226.368 24.988C226.368 24.484 226.3 24.124 226.164 23.908C226.036 23.684 225.856 23.572 225.624 23.572C225.464 23.572 225.328 23.62 225.216 23.716C225.104 23.812 225.02 23.964 224.964 24.172C224.908 24.372 224.88 24.644 224.88 24.988C224.88 25.5 224.944 25.868 225.072 26.092C225.2 26.316 225.384 26.428 225.624 26.428ZM231.804 31.132C231.108 31.132 230.568 30.896 230.184 30.424C229.8 29.952 229.608 29.32 229.608 28.528C229.608 28 229.696 27.544 229.872 27.16C230.048 26.776 230.3 26.48 230.628 26.272C230.956 26.064 231.348 25.96 231.804 25.96C232.492 25.96 233.028 26.192 233.412 26.656C233.804 27.12 234 27.744 234 28.528C234 29.056 233.912 29.516 233.736 29.908C233.568 30.3 233.32 30.604 232.992 30.82C232.664 31.028 232.268 31.132 231.804 31.132ZM231.804 29.968C231.964 29.968 232.096 29.92 232.2 29.824C232.312 29.728 232.396 29.572 232.452 29.356C232.516 29.14 232.548 28.864 232.548 28.528C232.548 28.024 232.48 27.664 232.344 27.448C232.216 27.224 232.036 27.112 231.804 27.112C231.644 27.112 231.508 27.16 231.396 27.256C231.292 27.352 231.208 27.504 231.144 27.712C231.088 27.92 231.06 28.192 231.06 28.528C231.06 29.048 231.124 29.42 231.252 29.644C231.38 29.86 231.564 29.968 231.804 29.968Z" fill="white"/>
<defs>
<filter id="filter0_i_1313_3780" x="0" y="0" width="355" height="63" filterUnits="userSpaceOnUse" color-interpolation-filters="sRGB">
<feFlood flood-opacity="0" result="BackgroundImageFix"/>
<feBlend mode="normal" in="SourceGraphic" in2="BackgroundImageFix" result="shape"/>
<feColorMatrix in="SourceAlpha" type="matrix" values="0 0 0 0 0 0 0 0 0 0 0 0 0 0 0 0 0 0 127 0" result="hardAlpha"/>
<feOffset dy="2"/>
<feGaussianBlur stdDeviation="2.5"/>
<feComposite in2="hardAlpha" operator="arithmetic" k2="-1" k3="1"/>
<feColorMatrix type="matrix" values="0 0 0 0 0 0 0 0 0 0 0 0 0 0 0 0 0 0 0.05 0"/>
<feBlend mode="normal" in2="shape" result="effect1_innerShadow_1313_3780"/>
</filter>
<filter id="filter1_d_1313_3780" x="238" y="4" width="61" height="61" filterUnits="userSpaceOnUse" color-interpolation-filters="sRGB">
<feFlood flood-opacity="0" result="BackgroundImageFix"/>
<feColorMatrix in="SourceAlpha" type="matrix" values="0 0 0 0 0 0 0 0 0 0 0 0 0 0 0 0 0 0 127 0" result="hardAlpha"/>
<feOffset dy="4"/>
<feGaussianBlur stdDeviation="2"/>
<feComposite in2="hardAlpha" operator="out"/>
<feColorMatrix type="matrix" values="0 0 0 0 0 0 0 0 0 0 0 0 0 0 0 0 0 0 0.15 0"/>
<feBlend mode="normal" in2="BackgroundImageFix" result="effect1_dropShadow_1313_3780"/>
<feBlend mode="normal" in="SourceGraphic" in2="effect1_dropShadow_1313_3780" result="shape"/>
</filter>
<linearGradient id="paint0_linear_1313_3780" x1="177.959" y1="65.575" x2="177.959" y2="8.92054e-07" gradientUnits="userSpaceOnUse">
<stop stop-color="#64728C" stop-opacity="0.05"/>
<stop offset="1" stop-color="white" stop-opacity="0.77"/>
</linearGradient>
<linearGradient id="paint1_linear_1313_3780" x1="1" y1="30.5" x2="296.998" y2="29.4157" gradientUnits="userSpaceOnUse">
<stop stop-color="#76BC21"/>
<stop offset="1" stop-color="#76BC21"/>
</linearGradient>
<radialGradient id="paint2_radial_1313_3780" cx="0" cy="0" r="1" gradientUnits="userSpaceOnUse" gradientTransform="translate(149 30.5) scale(148 28.5)">
<stop stop-opacity="0"/>
<stop offset="1" stop-color="white" stop-opacity="0.6"/>
</radialGradient>
<linearGradient id="paint3_linear_1313_3780" x1="268.5" y1="4" x2="268.5" y2="57" gradientUnits="userSpaceOnUse">
<stop stop-color="white"/>
<stop offset="1" stop-color="#341101" stop-opacity="0.08"/>
</linearGradient>
</defs>
</svg>
