<svg width="342" height="34" viewBox="0 0 342 34" fill="none" xmlns="http://www.w3.org/2000/svg">
<g filter="url(#filter0_d_1313_3771)">
<mask id="path-1-inside-1_1313_3771" fill="white">
<path d="M73 13C73 5.8203 78.8203 0 86 0H122C129.18 0 135 5.8203 135 13V13C135 20.1797 129.18 26 122 26H86C78.8203 26 73 20.1797 73 13V13Z"/>
</mask>
<path d="M73 13C73 5.8203 78.8203 0 86 0H122C129.18 0 135 5.8203 135 13V13C135 20.1797 129.18 26 122 26H86C78.8203 26 73 20.1797 73 13V13Z" fill="#76BC21"/>
<path d="M73 13C73 5.8203 78.8203 0 86 0H122C129.18 0 135 5.8203 135 13V13C135 20.1797 129.18 26 122 26H86C78.8203 26 73 20.1797 73 13V13Z" fill="url(#paint0_radial_1313_3771)" fill-opacity="0.2"/>
<path d="M73 0H135H73ZM135 13C135 21.8366 127.837 29 119 29H89C80.1634 29 73 21.8366 73 13C73 18.5228 78.8203 23 86 23H122C129.18 23 135 18.5228 135 13ZM73 26V0V26ZM135 0V26V0Z" fill="#6AAB1A" mask="url(#path-1-inside-1_1313_3771)"/>
</g>
<g filter="url(#filter1_d_1313_3771)">
<mask id="path-3-inside-2_1313_3771" fill="white">
<path d="M4 13C4 5.8203 9.8203 0 17 0H53C60.1797 0 66 5.8203 66 13V13C66 20.1797 60.1797 26 53 26H17C9.8203 26 4 20.1797 4 13V13Z"/>
</mask>
<path d="M4 13C4 5.8203 9.8203 0 17 0H53C60.1797 0 66 5.8203 66 13V13C66 20.1797 60.1797 26 53 26H17C9.8203 26 4 20.1797 4 13V13Z" fill="#76BC21"/>
<path d="M4 13C4 5.8203 9.8203 0 17 0H53C60.1797 0 66 5.8203 66 13V13C66 20.1797 60.1797 26 53 26H17C9.8203 26 4 20.1797 4 13V13Z" fill="url(#paint1_radial_1313_3771)" fill-opacity="0.2"/>
<path d="M4 0H66H4ZM66 13C66 21.8366 58.8366 29 50 29H20C11.1634 29 4 21.8366 4 13C4 18.5228 9.8203 23 17 23H53C60.1797 23 66 18.5228 66 13ZM4 26V0V26ZM66 0V26V0Z" fill="#6AAB1A" mask="url(#path-3-inside-2_1313_3771)"/>
</g>
<g filter="url(#filter2_i_1313_3771)">
<rect x="142" width="62" height="26" rx="13" fill="#E8EAEF"/>
</g>
<g filter="url(#filter3_i_1313_3771)">
<rect x="211" width="62" height="26" rx="13" fill="#E8EAEF"/>
</g>
<g filter="url(#filter4_i_1313_3771)">
<rect x="280" width="62" height="26" rx="13" fill="#E8EAEF"/>
</g>
<defs>
<filter id="filter0_d_1313_3771" x="69" y="0" width="70" height="34" filterUnits="userSpaceOnUse" color-interpolation-filters="sRGB">
<feFlood flood-opacity="0" result="BackgroundImageFix"/>
<feColorMatrix in="SourceAlpha" type="matrix" values="0 0 0 0 0 0 0 0 0 0 0 0 0 0 0 0 0 0 127 0" result="hardAlpha"/>
<feOffset dy="4"/>
<feGaussianBlur stdDeviation="2"/>
<feComposite in2="hardAlpha" operator="out"/>
<feColorMatrix type="matrix" values="0 0 0 0 0 0 0 0 0 0 0 0 0 0 0 0 0 0 0.15 0"/>
<feBlend mode="normal" in2="BackgroundImageFix" result="effect1_dropShadow_1313_3771"/>
<feBlend mode="normal" in="SourceGraphic" in2="effect1_dropShadow_1313_3771" result="shape"/>
</filter>
<filter id="filter1_d_1313_3771" x="0" y="0" width="70" height="34" filterUnits="userSpaceOnUse" color-interpolation-filters="sRGB">
<feFlood flood-opacity="0" result="BackgroundImageFix"/>
<feColorMatrix in="SourceAlpha" type="matrix" values="0 0 0 0 0 0 0 0 0 0 0 0 0 0 0 0 0 0 127 0" result="hardAlpha"/>
<feOffset dy="4"/>
<feGaussianBlur stdDeviation="2"/>
<feComposite in2="hardAlpha" operator="out"/>
<feColorMatrix type="matrix" values="0 0 0 0 0 0 0 0 0 0 0 0 0 0 0 0 0 0 0.15 0"/>
<feBlend mode="normal" in2="BackgroundImageFix" result="effect1_dropShadow_1313_3771"/>
<feBlend mode="normal" in="SourceGraphic" in2="effect1_dropShadow_1313_3771" result="shape"/>
</filter>
<filter id="filter2_i_1313_3771" x="142" y="0" width="62" height="30" filterUnits="userSpaceOnUse" color-interpolation-filters="sRGB">
<feFlood flood-opacity="0" result="BackgroundImageFix"/>
<feBlend mode="normal" in="SourceGraphic" in2="BackgroundImageFix" result="shape"/>
<feColorMatrix in="SourceAlpha" type="matrix" values="0 0 0 0 0 0 0 0 0 0 0 0 0 0 0 0 0 0 127 0" result="hardAlpha"/>
<feOffset dy="4"/>
<feGaussianBlur stdDeviation="2"/>
<feComposite in2="hardAlpha" operator="arithmetic" k2="-1" k3="1"/>
<feColorMatrix type="matrix" values="0 0 0 0 0 0 0 0 0 0 0 0 0 0 0 0 0 0 0.04 0"/>
<feBlend mode="normal" in2="shape" result="effect1_innerShadow_1313_3771"/>
</filter>
<filter id="filter3_i_1313_3771" x="211" y="0" width="62" height="30" filterUnits="userSpaceOnUse" color-interpolation-filters="sRGB">
<feFlood flood-opacity="0" result="BackgroundImageFix"/>
<feBlend mode="normal" in="SourceGraphic" in2="BackgroundImageFix" result="shape"/>
<feColorMatrix in="SourceAlpha" type="matrix" values="0 0 0 0 0 0 0 0 0 0 0 0 0 0 0 0 0 0 127 0" result="hardAlpha"/>
<feOffset dy="4"/>
<feGaussianBlur stdDeviation="2"/>
<feComposite in2="hardAlpha" operator="arithmetic" k2="-1" k3="1"/>
<feColorMatrix type="matrix" values="0 0 0 0 0 0 0 0 0 0 0 0 0 0 0 0 0 0 0.04 0"/>
<feBlend mode="normal" in2="shape" result="effect1_innerShadow_1313_3771"/>
</filter>
<filter id="filter4_i_1313_3771" x="280" y="0" width="62" height="30" filterUnits="userSpaceOnUse" color-interpolation-filters="sRGB">
<feFlood flood-opacity="0" result="BackgroundImageFix"/>
<feBlend mode="normal" in="SourceGraphic" in2="BackgroundImageFix" result="shape"/>
<feColorMatrix in="SourceAlpha" type="matrix" values="0 0 0 0 0 0 0 0 0 0 0 0 0 0 0 0 0 0 127 0" result="hardAlpha"/>
<feOffset dy="4"/>
<feGaussianBlur stdDeviation="2"/>
<feComposite in2="hardAlpha" operator="arithmetic" k2="-1" k3="1"/>
<feColorMatrix type="matrix" values="0 0 0 0 0 0 0 0 0 0 0 0 0 0 0 0 0 0 0.04 0"/>
<feBlend mode="normal" in2="shape" result="effect1_innerShadow_1313_3771"/>
</filter>
<radialGradient id="paint0_radial_1313_3771" cx="0" cy="0" r="1" gradientUnits="userSpaceOnUse" gradientTransform="translate(104 13) rotate(90) scale(13 31)">
<stop stop-opacity="0"/>
<stop offset="1" stop-color="#E9D2D2"/>
</radialGradient>
<radialGradient id="paint1_radial_1313_3771" cx="0" cy="0" r="1" gradientUnits="userSpaceOnUse" gradientTransform="translate(35 13) rotate(90) scale(13 31)">
<stop stop-opacity="0"/>
<stop offset="1" stop-color="#E9D2D2"/>
</radialGradient>
</defs>
</svg>
