<svg width="355" height="66" viewBox="0 0 355 66" fill="none" xmlns="http://www.w3.org/2000/svg">
<mask id="path-1-inside-1_1313_3782" fill="white">
<path d="M0 30.5C0 13.6553 13.6553 0 30.5 0H324.5C341.345 0 355 13.6553 355 30.5V30.5C355 47.3447 341.345 61 324.5 61H30.5C13.6553 61 0 47.3447 0 30.5V30.5Z"/>
</mask>
<g filter="url(#filter0_i_1313_3782)">
<path d="M0 30.5C0 13.6553 13.6553 0 30.5 0H324.5C341.345 0 355 13.6553 355 30.5V30.5C355 47.3447 341.345 61 324.5 61H30.5C13.6553 61 0 47.3447 0 30.5V30.5Z" fill="#FFAA00"/>
<path d="M0 30.5C0 13.6553 13.6553 0 30.5 0H324.5C341.345 0 355 13.6553 355 30.5V30.5C355 47.3447 341.345 61 324.5 61H30.5C13.6553 61 0 47.3447 0 30.5V30.5Z" fill="url(#paint0_radial_1313_3782)" fill-opacity="0.2"/>
</g>
<path d="M-1 30.5C-1 13.103 13.103 -1 30.5 -1H324.5C341.897 -1 356 13.103 356 30.5H354C354 14.2076 340.792 1 324.5 1H30.5C14.2076 1 1 14.2076 1 30.5H-1ZM356 31.5C356 48.897 341.897 63 324.5 63H30.5C13.103 63 -1 48.897 -1 31.5L1 30.5C1 46.2401 14.2076 59 30.5 59H324.5C340.792 59 354 46.2401 354 30.5L356 31.5ZM30.5 63C13.103 63 -1 48.897 -1 31.5V30.5C-1 13.103 13.103 -1 30.5 -1V1C14.2076 1 1 14.2076 1 30.5C1 46.2401 14.2076 59 30.5 59V63ZM324.5 -1C341.897 -1 356 13.103 356 30.5V31.5C356 48.897 341.897 63 324.5 63V59C340.792 59 354 46.2401 354 30.5C354 14.2076 340.792 1 324.5 1V-1Z" fill="url(#paint1_linear_1313_3782)" mask="url(#path-1-inside-1_1313_3782)"/>
<g filter="url(#filter1_d_1313_3782)">
<rect x="4" y="3" width="107" height="55" rx="27.5" fill="url(#paint2_linear_1313_3782)"/>
<rect x="4" y="3" width="107" height="55" rx="27.5" fill="white" fill-opacity="0.4"/>
<rect x="4.5" y="3.5" width="106" height="54" rx="27" stroke="url(#paint3_linear_1313_3782)" stroke-opacity="0.5"/>
</g>
<g opacity="0.7" filter="url(#filter2_d_1313_3782)">
<rect x="27" y="13" width="5" height="36" rx="2.5" fill="white"/>
<rect x="27" y="13" width="5" height="36" rx="2.5" fill="url(#paint4_linear_1313_3782)" fill-opacity="0.3"/>
<rect x="27.5" y="13.5" width="4" height="35" rx="2" stroke="url(#paint5_linear_1313_3782)"/>
</g>
<g opacity="0.7" filter="url(#filter3_d_1313_3782)">
<rect x="45" y="13" width="5" height="36" rx="2.5" fill="white"/>
<rect x="45" y="13" width="5" height="36" rx="2.5" fill="url(#paint6_linear_1313_3782)" fill-opacity="0.3"/>
<rect x="45.5" y="13.5" width="4" height="35" rx="2" stroke="url(#paint7_linear_1313_3782)"/>
</g>
<g opacity="0.7" filter="url(#filter4_d_1313_3782)">
<rect x="63" y="13" width="5" height="36" rx="2.5" fill="white"/>
<rect x="63" y="13" width="5" height="36" rx="2.5" fill="url(#paint8_linear_1313_3782)" fill-opacity="0.3"/>
<rect x="63.5" y="13.5" width="4" height="35" rx="2" stroke="url(#paint9_linear_1313_3782)"/>
</g>
<g opacity="0.7" filter="url(#filter5_d_1313_3782)">
<rect x="81" y="13" width="5" height="36" rx="2.5" fill="white"/>
<rect x="81" y="13" width="5" height="36" rx="2.5" fill="url(#paint10_linear_1313_3782)" fill-opacity="0.3"/>
<rect x="81.5" y="13.5" width="4" height="35" rx="2" stroke="url(#paint11_linear_1313_3782)"/>
</g>
<line x1="157.5" y1="19" x2="157.5" y2="45" stroke="white"/>
<line x1="220.5" y1="18" x2="220.5" y2="44" stroke="white"/>
<line x1="172.5" y1="24" x2="172.5" y2="38" stroke="white" stroke-opacity="0.6"/>
<line x1="233.5" y1="24" x2="233.5" y2="38" stroke="white" stroke-opacity="0.6"/>
<line x1="294.5" y1="24" x2="294.5" y2="38" stroke="white" stroke-opacity="0.6"/>
<line x1="114.5" y1="24" x2="114.5" y2="38" stroke="white" stroke-opacity="0.6"/>
<line x1="183.5" y1="24" x2="183.5" y2="38" stroke="white" stroke-opacity="0.6"/>
<line x1="244.5" y1="24" x2="244.5" y2="38" stroke="white" stroke-opacity="0.6"/>
<line x1="305.5" y1="24" x2="305.5" y2="38" stroke="white" stroke-opacity="0.6"/>
<line x1="125.5" y1="24" x2="125.5" y2="38" stroke="white" stroke-opacity="0.6"/>
<line x1="194.5" y1="24" x2="194.5" y2="38" stroke="white" stroke-opacity="0.6"/>
<line x1="255.5" y1="24" x2="255.5" y2="38" stroke="white" stroke-opacity="0.6"/>
<line x1="316.5" y1="24" x2="316.5" y2="38" stroke="white" stroke-opacity="0.6"/>
<line x1="136.5" y1="24" x2="136.5" y2="38" stroke="white" stroke-opacity="0.6"/>
<line x1="205.5" y1="24" x2="205.5" y2="38" stroke="white" stroke-opacity="0.6"/>
<line x1="266.5" y1="24" x2="266.5" y2="38" stroke="white" stroke-opacity="0.6"/>
<line x1="327.5" y1="24" x2="327.5" y2="38" stroke="white" stroke-opacity="0.6"/>
<line x1="147.5" y1="24" x2="147.5" y2="38" stroke="white" stroke-opacity="0.6"/>
<line x1="281.5" y1="18" x2="281.5" y2="44" stroke="white"/>
<defs>
<filter id="filter0_i_1313_3782" x="0" y="0" width="355" height="65" filterUnits="userSpaceOnUse" color-interpolation-filters="sRGB">
<feFlood flood-opacity="0" result="BackgroundImageFix"/>
<feBlend mode="normal" in="SourceGraphic" in2="BackgroundImageFix" result="shape"/>
<feColorMatrix in="SourceAlpha" type="matrix" values="0 0 0 0 0 0 0 0 0 0 0 0 0 0 0 0 0 0 127 0" result="hardAlpha"/>
<feOffset dy="4"/>
<feGaussianBlur stdDeviation="2.5"/>
<feComposite in2="hardAlpha" operator="arithmetic" k2="-1" k3="1"/>
<feColorMatrix type="matrix" values="0 0 0 0 0 0 0 0 0 0 0 0 0 0 0 0 0 0 0.15 0"/>
<feBlend mode="normal" in2="shape" result="effect1_innerShadow_1313_3782"/>
</filter>
<filter id="filter1_d_1313_3782" x="0" y="3" width="115" height="63" filterUnits="userSpaceOnUse" color-interpolation-filters="sRGB">
<feFlood flood-opacity="0" result="BackgroundImageFix"/>
<feColorMatrix in="SourceAlpha" type="matrix" values="0 0 0 0 0 0 0 0 0 0 0 0 0 0 0 0 0 0 127 0" result="hardAlpha"/>
<feOffset dy="4"/>
<feGaussianBlur stdDeviation="2"/>
<feComposite in2="hardAlpha" operator="out"/>
<feColorMatrix type="matrix" values="0 0 0 0 0 0 0 0 0 0 0 0 0 0 0 0 0 0 0.25 0"/>
<feBlend mode="normal" in2="BackgroundImageFix" result="effect1_dropShadow_1313_3782"/>
<feBlend mode="normal" in="SourceGraphic" in2="effect1_dropShadow_1313_3782" result="shape"/>
</filter>
<filter id="filter2_d_1313_3782" x="27" y="11" width="9" height="40" filterUnits="userSpaceOnUse" color-interpolation-filters="sRGB">
<feFlood flood-opacity="0" result="BackgroundImageFix"/>
<feColorMatrix in="SourceAlpha" type="matrix" values="0 0 0 0 0 0 0 0 0 0 0 0 0 0 0 0 0 0 127 0" result="hardAlpha"/>
<feOffset dx="2"/>
<feGaussianBlur stdDeviation="1"/>
<feComposite in2="hardAlpha" operator="out"/>
<feColorMatrix type="matrix" values="0 0 0 0 0 0 0 0 0 0 0 0 0 0 0 0 0 0 0.05 0"/>
<feBlend mode="normal" in2="BackgroundImageFix" result="effect1_dropShadow_1313_3782"/>
<feBlend mode="normal" in="SourceGraphic" in2="effect1_dropShadow_1313_3782" result="shape"/>
</filter>
<filter id="filter3_d_1313_3782" x="45" y="11" width="9" height="40" filterUnits="userSpaceOnUse" color-interpolation-filters="sRGB">
<feFlood flood-opacity="0" result="BackgroundImageFix"/>
<feColorMatrix in="SourceAlpha" type="matrix" values="0 0 0 0 0 0 0 0 0 0 0 0 0 0 0 0 0 0 127 0" result="hardAlpha"/>
<feOffset dx="2"/>
<feGaussianBlur stdDeviation="1"/>
<feComposite in2="hardAlpha" operator="out"/>
<feColorMatrix type="matrix" values="0 0 0 0 0 0 0 0 0 0 0 0 0 0 0 0 0 0 0.05 0"/>
<feBlend mode="normal" in2="BackgroundImageFix" result="effect1_dropShadow_1313_3782"/>
<feBlend mode="normal" in="SourceGraphic" in2="effect1_dropShadow_1313_3782" result="shape"/>
</filter>
<filter id="filter4_d_1313_3782" x="63" y="11" width="9" height="40" filterUnits="userSpaceOnUse" color-interpolation-filters="sRGB">
<feFlood flood-opacity="0" result="BackgroundImageFix"/>
<feColorMatrix in="SourceAlpha" type="matrix" values="0 0 0 0 0 0 0 0 0 0 0 0 0 0 0 0 0 0 127 0" result="hardAlpha"/>
<feOffset dx="2"/>
<feGaussianBlur stdDeviation="1"/>
<feComposite in2="hardAlpha" operator="out"/>
<feColorMatrix type="matrix" values="0 0 0 0 0 0 0 0 0 0 0 0 0 0 0 0 0 0 0.05 0"/>
<feBlend mode="normal" in2="BackgroundImageFix" result="effect1_dropShadow_1313_3782"/>
<feBlend mode="normal" in="SourceGraphic" in2="effect1_dropShadow_1313_3782" result="shape"/>
</filter>
<filter id="filter5_d_1313_3782" x="81" y="11" width="9" height="40" filterUnits="userSpaceOnUse" color-interpolation-filters="sRGB">
<feFlood flood-opacity="0" result="BackgroundImageFix"/>
<feColorMatrix in="SourceAlpha" type="matrix" values="0 0 0 0 0 0 0 0 0 0 0 0 0 0 0 0 0 0 127 0" result="hardAlpha"/>
<feOffset dx="2"/>
<feGaussianBlur stdDeviation="1"/>
<feComposite in2="hardAlpha" operator="out"/>
<feColorMatrix type="matrix" values="0 0 0 0 0 0 0 0 0 0 0 0 0 0 0 0 0 0 0.05 0"/>
<feBlend mode="normal" in2="BackgroundImageFix" result="effect1_dropShadow_1313_3782"/>
<feBlend mode="normal" in="SourceGraphic" in2="effect1_dropShadow_1313_3782" result="shape"/>
</filter>
<radialGradient id="paint0_radial_1313_3782" cx="0" cy="0" r="1" gradientUnits="userSpaceOnUse" gradientTransform="translate(177.5 30.5) scale(177.5 30.5)">
<stop stop-opacity="0"/>
<stop offset="1" stop-color="white" stop-opacity="0.5"/>
</radialGradient>
<linearGradient id="paint1_linear_1313_3782" x1="177.959" y1="65.575" x2="177.959" y2="8.92054e-07" gradientUnits="userSpaceOnUse">
<stop stop-color="#D59006"/>
<stop offset="1" stop-color="#E89B01"/>
</linearGradient>
<linearGradient id="paint2_linear_1313_3782" x1="58.549" y1="29.9608" x2="62.0035" y2="59.0834" gradientUnits="userSpaceOnUse">
<stop stop-color="white"/>
<stop offset="1" stop-color="#FFEAE0"/>
</linearGradient>
<linearGradient id="paint3_linear_1313_3782" x1="57.5" y1="3" x2="57.5" y2="58" gradientUnits="userSpaceOnUse">
<stop stop-color="white"/>
<stop offset="1" stop-color="#341101" stop-opacity="0.08"/>
</linearGradient>
<linearGradient id="paint4_linear_1313_3782" x1="32" y1="31" x2="27" y2="31" gradientUnits="userSpaceOnUse">
<stop stop-color="#64728C" stop-opacity="0.56"/>
<stop offset="1" stop-opacity="0"/>
</linearGradient>
<linearGradient id="paint5_linear_1313_3782" x1="29.5" y1="13" x2="29.5" y2="49" gradientUnits="userSpaceOnUse">
<stop stop-color="#E6E8EC" stop-opacity="0.44"/>
<stop offset="1" stop-color="#838486" stop-opacity="0.13"/>
</linearGradient>
<linearGradient id="paint6_linear_1313_3782" x1="50" y1="31" x2="45" y2="31" gradientUnits="userSpaceOnUse">
<stop stop-color="#64728C" stop-opacity="0.56"/>
<stop offset="1" stop-opacity="0"/>
</linearGradient>
<linearGradient id="paint7_linear_1313_3782" x1="47.5" y1="13" x2="47.5" y2="49" gradientUnits="userSpaceOnUse">
<stop stop-color="#E6E8EC" stop-opacity="0.44"/>
<stop offset="1" stop-color="#838486" stop-opacity="0.13"/>
</linearGradient>
<linearGradient id="paint8_linear_1313_3782" x1="68" y1="31" x2="63" y2="31" gradientUnits="userSpaceOnUse">
<stop stop-color="#64728C" stop-opacity="0.56"/>
<stop offset="1" stop-opacity="0"/>
</linearGradient>
<linearGradient id="paint9_linear_1313_3782" x1="65.5" y1="13" x2="65.5" y2="49" gradientUnits="userSpaceOnUse">
<stop stop-color="#E6E8EC" stop-opacity="0.44"/>
<stop offset="1" stop-color="#838486" stop-opacity="0.13"/>
</linearGradient>
<linearGradient id="paint10_linear_1313_3782" x1="86" y1="31" x2="81" y2="31" gradientUnits="userSpaceOnUse">
<stop stop-color="#64728C" stop-opacity="0.56"/>
<stop offset="1" stop-opacity="0"/>
</linearGradient>
<linearGradient id="paint11_linear_1313_3782" x1="83.5" y1="13" x2="83.5" y2="49" gradientUnits="userSpaceOnUse">
<stop stop-color="#E6E8EC" stop-opacity="0.44"/>
<stop offset="1" stop-color="#838486" stop-opacity="0.13"/>
</linearGradient>
</defs>
</svg>
