<svg width="373" height="119" viewBox="0 0 373 119" fill="none" xmlns="http://www.w3.org/2000/svg">
<rect x="115" y="28" width="6" height="43" rx="3" fill="#5E40F8"/>
<rect x="115" y="28" width="6" height="43" rx="3" fill="url(#paint0_linear_1315_3917)" fill-opacity="0.2"/>
<rect x="124" y="15" width="5" height="56" rx="2.5" fill="#5E40F8"/>
<rect x="124" y="15" width="5" height="56" rx="2.5" fill="url(#paint1_linear_1315_3917)" fill-opacity="0.2"/>
<rect x="132" y="33" width="5" height="38" rx="2.5" fill="#5E40F8"/>
<rect x="132" y="33" width="5" height="38" rx="2.5" fill="url(#paint2_linear_1315_3917)" fill-opacity="0.2"/>
<rect x="140" y="11" width="5" height="60" rx="2.5" fill="#5E40F8"/>
<rect x="140" y="11" width="5" height="60" rx="2.5" fill="url(#paint3_linear_1315_3917)" fill-opacity="0.2"/>
<rect x="148" width="5" height="71" rx="2.5" fill="#5E40F8"/>
<rect x="148" width="5" height="71" rx="2.5" fill="url(#paint4_linear_1315_3917)" fill-opacity="0.2"/>
<rect x="156" y="11" width="6" height="60" rx="3" fill="#5E40F8"/>
<rect x="156" y="11" width="6" height="60" rx="3" fill="url(#paint5_linear_1315_3917)" fill-opacity="0.2"/>
<rect x="165" y="19" width="6" height="52" rx="3" fill="#5E40F8"/>
<rect x="165" y="19" width="6" height="52" rx="3" fill="url(#paint6_linear_1315_3917)" fill-opacity="0.2"/>
<rect x="174" y="41" width="6" height="30" rx="3" fill="#5E40F8"/>
<rect x="174" y="41" width="6" height="30" rx="3" fill="url(#paint7_linear_1315_3917)" fill-opacity="0.2"/>
<rect x="183" y="53" width="6" height="18" rx="3" fill="#5E40F8"/>
<rect x="183" y="53" width="6" height="18" rx="3" fill="url(#paint8_linear_1315_3917)" fill-opacity="0.2"/>
<rect x="192" y="38" width="6" height="33" rx="3" fill="#5E40F8"/>
<rect x="192" y="38" width="6" height="33" rx="3" fill="url(#paint9_linear_1315_3917)" fill-opacity="0.2"/>
<rect x="201" y="48" width="6" height="23" rx="3" fill="#5E40F8"/>
<rect x="201" y="48" width="6" height="23" rx="3" fill="url(#paint10_linear_1315_3917)" fill-opacity="0.2"/>
<rect x="210" y="37" width="6" height="34" rx="3" fill="#5E40F8"/>
<rect x="210" y="37" width="6" height="34" rx="3" fill="url(#paint11_linear_1315_3917)" fill-opacity="0.2"/>
<rect x="219" y="33" width="5" height="38" rx="2.5" fill="#5E40F8"/>
<rect x="219" y="33" width="5" height="38" rx="2.5" fill="url(#paint12_linear_1315_3917)" fill-opacity="0.2"/>
<rect x="235" y="27" width="5" height="44" rx="2.5" fill="#5E40F8"/>
<rect x="235" y="27" width="5" height="44" rx="2.5" fill="url(#paint13_linear_1315_3917)" fill-opacity="0.2"/>
<rect x="36" y="27" width="5" height="44" rx="2.5" fill="#5E40F8"/>
<rect x="36" y="27" width="5" height="44" rx="2.5" fill="url(#paint14_linear_1315_3917)" fill-opacity="0.2"/>
<rect x="44" y="27" width="5" height="44" rx="2.5" fill="#5E40F8"/>
<rect x="44" y="27" width="5" height="44" rx="2.5" fill="url(#paint15_linear_1315_3917)" fill-opacity="0.2"/>
<rect x="28" y="47" width="5" height="24" rx="2.5" fill="#5E40F8"/>
<rect x="28" y="47" width="5" height="24" rx="2.5" fill="url(#paint16_linear_1315_3917)" fill-opacity="0.2"/>
<rect x="20" y="42" width="5" height="29" rx="2.5" fill="#5E40F8"/>
<rect x="20" y="42" width="5" height="29" rx="2.5" fill="url(#paint17_linear_1315_3917)" fill-opacity="0.2"/>
<rect x="11" y="48" width="6" height="23" rx="3" fill="#5E40F8"/>
<rect x="11" y="48" width="6" height="23" rx="3" fill="url(#paint18_linear_1315_3917)" fill-opacity="0.2"/>
<rect x="2" y="56" width="6" height="15" rx="3" fill="#5E40F8"/>
<rect x="2" y="56" width="6" height="15" rx="3" fill="url(#paint19_linear_1315_3917)" fill-opacity="0.2"/>
<rect x="227" y="27" width="5" height="44" rx="2.5" fill="#5E40F8"/>
<rect x="227" y="27" width="5" height="44" rx="2.5" fill="url(#paint20_linear_1315_3917)" fill-opacity="0.2"/>
<rect x="243" y="27" width="5" height="44" rx="2.5" fill="#5E40F8"/>
<rect x="243" y="27" width="5" height="44" rx="2.5" fill="url(#paint21_linear_1315_3917)" fill-opacity="0.2"/>
<rect x="52" y="27" width="6" height="44" rx="3" fill="#5E40F8"/>
<rect x="52" y="27" width="6" height="44" rx="3" fill="url(#paint22_linear_1315_3917)" fill-opacity="0.2"/>
<rect x="251" y="27" width="6" height="44" rx="3" fill="#5E40F8"/>
<rect x="251" y="27" width="6" height="44" rx="3" fill="url(#paint23_linear_1315_3917)" fill-opacity="0.2"/>
<rect x="61" y="27" width="6" height="44" rx="3" fill="#5E40F8"/>
<rect x="61" y="27" width="6" height="44" rx="3" fill="url(#paint24_linear_1315_3917)" fill-opacity="0.2"/>
<rect x="260" y="6" width="6" height="65" rx="3" fill="#5E40F8"/>
<rect x="260" y="6" width="6" height="65" rx="3" fill="url(#paint25_linear_1315_3917)" fill-opacity="0.2"/>
<rect x="70" y="6" width="6" height="65" rx="3" fill="#5E40F8"/>
<rect x="70" y="6" width="6" height="65" rx="3" fill="url(#paint26_linear_1315_3917)" fill-opacity="0.2"/>
<rect x="269" y="38" width="6" height="33" rx="3" fill="#5E40F8"/>
<rect x="269" y="38" width="6" height="33" rx="3" fill="url(#paint27_linear_1315_3917)" fill-opacity="0.2"/>
<rect x="79" y="38" width="6" height="33" rx="3" fill="#5E40F8"/>
<rect x="79" y="38" width="6" height="33" rx="3" fill="url(#paint28_linear_1315_3917)" fill-opacity="0.2"/>
<rect x="278" y="48" width="6" height="23" rx="3" fill="#5E40F8"/>
<rect x="278" y="48" width="6" height="23" rx="3" fill="url(#paint29_linear_1315_3917)" fill-opacity="0.2"/>
<rect x="88" y="48" width="6" height="23" rx="3" fill="#5E40F8"/>
<rect x="88" y="48" width="6" height="23" rx="3" fill="url(#paint30_linear_1315_3917)" fill-opacity="0.2"/>
<rect x="287" y="21" width="6" height="50" rx="3" fill="#5E40F8"/>
<rect x="287" y="21" width="6" height="50" rx="3" fill="url(#paint31_linear_1315_3917)" fill-opacity="0.2"/>
<rect x="97" y="21" width="6" height="50" rx="3" fill="#5E40F8"/>
<rect x="97" y="21" width="6" height="50" rx="3" fill="url(#paint32_linear_1315_3917)" fill-opacity="0.2"/>
<rect x="296" y="43" width="6" height="28" rx="3" fill="#5E40F8"/>
<rect x="296" y="43" width="6" height="28" rx="3" fill="url(#paint33_linear_1315_3917)" fill-opacity="0.2"/>
<rect x="106" y="43" width="6" height="28" rx="3" fill="#5E40F8"/>
<rect x="106" y="43" width="6" height="28" rx="3" fill="url(#paint34_linear_1315_3917)" fill-opacity="0.2"/>
<rect x="305" y="20" width="6" height="51" rx="3" fill="#5E40F8"/>
<rect x="305" y="20" width="6" height="51" rx="3" fill="url(#paint35_linear_1315_3917)" fill-opacity="0.2"/>
<rect x="314" y="14" width="6" height="57" rx="3" fill="#5E40F8"/>
<rect x="314" y="14" width="6" height="57" rx="3" fill="url(#paint36_linear_1315_3917)" fill-opacity="0.2"/>
<rect x="323" y="29" width="5" height="42" rx="2.5" fill="#5E40F8"/>
<rect x="323" y="29" width="5" height="42" rx="2.5" fill="url(#paint37_linear_1315_3917)" fill-opacity="0.2"/>
<rect x="331" y="56" width="5" height="15" rx="2.5" fill="#5E40F8"/>
<rect x="331" y="56" width="5" height="15" rx="2.5" fill="url(#paint38_linear_1315_3917)" fill-opacity="0.2"/>
<rect x="339" y="62" width="5" height="9" rx="2.5" fill="#5E40F8"/>
<rect x="339" y="62" width="5" height="9" rx="2.5" fill="url(#paint39_linear_1315_3917)" fill-opacity="0.2"/>
<rect x="347" y="62" width="5" height="9" rx="2.5" fill="#5E40F8"/>
<rect x="347" y="62" width="5" height="9" rx="2.5" fill="url(#paint40_linear_1315_3917)" fill-opacity="0.2"/>
<rect x="355" y="52" width="6" height="19" rx="3" fill="#5E40F8"/>
<rect x="355" y="52" width="6" height="19" rx="3" fill="url(#paint41_linear_1315_3917)" fill-opacity="0.2"/>
<rect x="364" y="59" width="6" height="12" rx="3" fill="#5E40F8"/>
<rect x="364" y="59" width="6" height="12" rx="3" fill="url(#paint42_linear_1315_3917)" fill-opacity="0.2"/>
<rect y="74" width="371" height="12" rx="6" fill="#38455D" fill-opacity="0.1"/>
<rect x="96" y="76" width="157" height="8" rx="4" fill="#5E40F8"/>
<path d="M250.195 114.12C249.895 114.12 249.66 114.04 249.49 113.88C249.32 113.71 249.235 113.47 249.235 113.16V111.99H245.53C245.22 111.99 244.97 111.925 244.78 111.795C244.6 111.665 244.51 111.46 244.51 111.18C244.51 111.02 244.55 110.845 244.63 110.655C244.72 110.465 244.875 110.215 245.095 109.905L249.205 103.95C249.345 103.74 249.5 103.58 249.67 103.47C249.84 103.36 250.035 103.305 250.255 103.305C250.515 103.305 250.73 103.385 250.9 103.545C251.07 103.695 251.155 103.935 251.155 104.265V110.4H251.89C252.18 110.4 252.395 110.47 252.535 110.61C252.685 110.74 252.76 110.935 252.76 111.195C252.76 111.455 252.685 111.655 252.535 111.795C252.395 111.925 252.18 111.99 251.89 111.99H251.155V113.16C251.155 113.47 251.07 113.71 250.9 113.88C250.73 114.04 250.495 114.12 250.195 114.12ZM249.235 110.4V105.72H249.67L246.13 110.91V110.4H249.235ZM257.584 114.15C257.054 114.15 256.514 114.08 255.964 113.94C255.414 113.8 254.909 113.585 254.449 113.295C254.259 113.175 254.129 113.035 254.059 112.875C253.999 112.705 253.984 112.54 254.014 112.38C254.054 112.21 254.129 112.07 254.239 111.96C254.359 111.84 254.499 111.77 254.659 111.75C254.829 111.73 255.014 111.775 255.214 111.885C255.584 112.095 255.959 112.255 256.339 112.365C256.719 112.475 257.124 112.53 257.554 112.53C257.974 112.53 258.334 112.455 258.634 112.305C258.934 112.155 259.164 111.945 259.324 111.675C259.484 111.405 259.564 111.09 259.564 110.73C259.564 110.17 259.394 109.72 259.054 109.38C258.714 109.03 258.249 108.855 257.659 108.855C257.339 108.855 257.029 108.91 256.729 109.02C256.429 109.12 256.134 109.3 255.844 109.56C255.754 109.64 255.639 109.72 255.499 109.8C255.359 109.87 255.209 109.905 255.049 109.905C254.799 109.905 254.609 109.84 254.479 109.71C254.349 109.58 254.284 109.4 254.284 109.17V104.265C254.284 103.995 254.354 103.79 254.494 103.65C254.644 103.5 254.854 103.425 255.124 103.425H260.059C260.329 103.425 260.534 103.495 260.674 103.635C260.824 103.765 260.899 103.96 260.899 104.22C260.899 104.47 260.824 104.665 260.674 104.805C260.534 104.945 260.329 105.015 260.059 105.015H256.159V108.375H255.664C255.924 108.025 256.269 107.755 256.699 107.565C257.129 107.375 257.599 107.28 258.109 107.28C258.779 107.28 259.359 107.425 259.849 107.715C260.349 107.995 260.734 108.39 261.004 108.9C261.284 109.4 261.424 109.985 261.424 110.655C261.424 111.345 261.269 111.955 260.959 112.485C260.649 113.005 260.204 113.415 259.624 113.715C259.054 114.005 258.374 114.15 257.584 114.15ZM265.102 108.883C265.03 109.003 264.943 109.081 264.841 109.117C264.739 109.159 264.637 109.168 264.535 109.144C264.433 109.12 264.346 109.072 264.274 109C264.208 108.922 264.166 108.829 264.148 108.721C264.13 108.613 264.157 108.499 264.229 108.379L267.46 102.781C267.532 102.655 267.619 102.571 267.721 102.529C267.823 102.487 267.922 102.481 268.018 102.511C268.12 102.535 268.207 102.586 268.279 102.664C268.351 102.736 268.396 102.826 268.414 102.934C268.432 103.042 268.405 103.156 268.333 103.276L265.102 108.883ZM263.968 106.435C263.446 106.435 263.041 106.261 262.753 105.913C262.465 105.559 262.321 105.085 262.321 104.491C262.321 104.089 262.384 103.744 262.51 103.456C262.642 103.168 262.831 102.946 263.077 102.79C263.329 102.634 263.626 102.556 263.968 102.556C264.484 102.556 264.886 102.733 265.174 103.087C265.468 103.435 265.615 103.903 265.615 104.491C265.615 104.887 265.549 105.232 265.417 105.526C265.291 105.814 265.105 106.039 264.859 106.201C264.613 106.357 264.316 106.435 263.968 106.435ZM263.968 105.571C264.088 105.571 264.187 105.535 264.265 105.463C264.349 105.385 264.412 105.268 264.454 105.112C264.502 104.95 264.526 104.743 264.526 104.491C264.526 104.113 264.475 103.843 264.373 103.681C264.277 103.513 264.142 103.429 263.968 103.429C263.848 103.429 263.746 103.465 263.662 103.537C263.578 103.609 263.515 103.723 263.473 103.879C263.431 104.029 263.41 104.233 263.41 104.491C263.41 104.875 263.458 105.151 263.554 105.319C263.65 105.487 263.788 105.571 263.968 105.571ZM268.603 109.099C268.081 109.099 267.676 108.922 267.388 108.568C267.1 108.214 266.956 107.74 266.956 107.146C266.956 106.75 267.022 106.408 267.154 106.12C267.286 105.832 267.475 105.61 267.721 105.454C267.967 105.298 268.261 105.22 268.603 105.22C269.119 105.22 269.521 105.394 269.809 105.742C270.103 106.09 270.25 106.558 270.25 107.146C270.25 107.542 270.184 107.887 270.052 108.181C269.926 108.475 269.74 108.703 269.494 108.865C269.248 109.021 268.951 109.099 268.603 109.099ZM268.603 108.226C268.723 108.226 268.822 108.19 268.9 108.118C268.984 108.046 269.047 107.929 269.089 107.767C269.137 107.605 269.161 107.398 269.161 107.146C269.161 106.768 269.11 106.498 269.008 106.336C268.912 106.168 268.777 106.084 268.603 106.084C268.483 106.084 268.381 106.12 268.297 106.192C268.219 106.264 268.156 106.378 268.108 106.534C268.066 106.69 268.045 106.894 268.045 107.146C268.045 107.536 268.093 107.815 268.189 107.983C268.285 108.145 268.423 108.226 268.603 108.226Z" fill="#64728C"/>
<path d="M99.34 114C99.08 114 98.875 113.93 98.725 113.79C98.585 113.64 98.515 113.44 98.515 113.19C98.515 112.93 98.585 112.735 98.725 112.605C98.875 112.475 99.08 112.41 99.34 112.41H101.02V105.045H101.95L99.745 106.38C99.555 106.49 99.375 106.535 99.205 106.515C99.045 106.485 98.905 106.415 98.785 106.305C98.675 106.185 98.6 106.045 98.56 105.885C98.52 105.725 98.53 105.565 98.59 105.405C98.66 105.235 98.79 105.095 98.98 104.985L101.05 103.74C101.25 103.62 101.45 103.52 101.65 103.44C101.85 103.35 102.035 103.305 102.205 103.305C102.415 103.305 102.59 103.365 102.73 103.485C102.87 103.595 102.94 103.78 102.94 104.04V112.41H104.47C104.73 112.41 104.93 112.475 105.07 112.605C105.22 112.735 105.295 112.93 105.295 113.19C105.295 113.45 105.22 113.65 105.07 113.79C104.93 113.93 104.73 114 104.47 114H99.34ZM110.494 114.15C109.244 114.15 108.289 113.68 107.629 112.74C106.969 111.79 106.639 110.44 106.639 108.69C106.639 107.51 106.784 106.52 107.074 105.72C107.374 104.91 107.809 104.3 108.379 103.89C108.959 103.48 109.664 103.275 110.494 103.275C111.754 103.275 112.709 103.735 113.359 104.655C114.019 105.575 114.349 106.915 114.349 108.675C114.349 109.845 114.199 110.84 113.899 111.66C113.609 112.47 113.179 113.09 112.609 113.52C112.039 113.94 111.334 114.15 110.494 114.15ZM110.494 112.575C111.174 112.575 111.674 112.26 111.994 111.63C112.324 111 112.489 110.015 112.489 108.675C112.489 107.335 112.324 106.365 111.994 105.765C111.674 105.155 111.174 104.85 110.494 104.85C109.824 104.85 109.324 105.155 108.994 105.765C108.664 106.365 108.499 107.335 108.499 108.675C108.499 110.015 108.664 111 108.994 111.63C109.324 112.26 109.824 112.575 110.494 112.575ZM118.102 108.883C118.03 109.003 117.943 109.081 117.841 109.117C117.739 109.159 117.637 109.168 117.535 109.144C117.433 109.12 117.346 109.072 117.274 109C117.208 108.922 117.166 108.829 117.148 108.721C117.13 108.613 117.157 108.499 117.229 108.379L120.46 102.781C120.532 102.655 120.619 102.571 120.721 102.529C120.823 102.487 120.922 102.481 121.018 102.511C121.12 102.535 121.207 102.586 121.279 102.664C121.351 102.736 121.396 102.826 121.414 102.934C121.432 103.042 121.405 103.156 121.333 103.276L118.102 108.883ZM116.968 106.435C116.446 106.435 116.041 106.261 115.753 105.913C115.465 105.559 115.321 105.085 115.321 104.491C115.321 104.089 115.384 103.744 115.51 103.456C115.642 103.168 115.831 102.946 116.077 102.79C116.329 102.634 116.626 102.556 116.968 102.556C117.484 102.556 117.886 102.733 118.174 103.087C118.468 103.435 118.615 103.903 118.615 104.491C118.615 104.887 118.549 105.232 118.417 105.526C118.291 105.814 118.105 106.039 117.859 106.201C117.613 106.357 117.316 106.435 116.968 106.435ZM116.968 105.571C117.088 105.571 117.187 105.535 117.265 105.463C117.349 105.385 117.412 105.268 117.454 105.112C117.502 104.95 117.526 104.743 117.526 104.491C117.526 104.113 117.475 103.843 117.373 103.681C117.277 103.513 117.142 103.429 116.968 103.429C116.848 103.429 116.746 103.465 116.662 103.537C116.578 103.609 116.515 103.723 116.473 103.879C116.431 104.029 116.41 104.233 116.41 104.491C116.41 104.875 116.458 105.151 116.554 105.319C116.65 105.487 116.788 105.571 116.968 105.571ZM121.603 109.099C121.081 109.099 120.676 108.922 120.388 108.568C120.1 108.214 119.956 107.74 119.956 107.146C119.956 106.75 120.022 106.408 120.154 106.12C120.286 105.832 120.475 105.61 120.721 105.454C120.967 105.298 121.261 105.22 121.603 105.22C122.119 105.22 122.521 105.394 122.809 105.742C123.103 106.09 123.25 106.558 123.25 107.146C123.25 107.542 123.184 107.887 123.052 108.181C122.926 108.475 122.74 108.703 122.494 108.865C122.248 109.021 121.951 109.099 121.603 109.099ZM121.603 108.226C121.723 108.226 121.822 108.19 121.9 108.118C121.984 108.046 122.047 107.929 122.089 107.767C122.137 107.605 122.161 107.398 122.161 107.146C122.161 106.768 122.11 106.498 122.008 106.336C121.912 106.168 121.777 106.084 121.603 106.084C121.483 106.084 121.381 106.12 121.297 106.192C121.219 106.264 121.156 106.378 121.108 106.534C121.066 106.69 121.045 106.894 121.045 107.146C121.045 107.536 121.093 107.815 121.189 107.983C121.285 108.145 121.423 108.226 121.603 108.226Z" fill="#64728C"/>
<rect width="106" height="72" fill="white" fill-opacity="0.7"/>
<rect x="260" y="1" width="113" height="72" fill="white" fill-opacity="0.7"/>
<g filter="url(#filter0_d_1315_3917)">
<path d="M239 80C239 71.7157 245.716 65 254 65V65C262.284 65 269 71.7157 269 80V80C269 88.2843 262.284 95 254 95V95C245.716 95 239 88.2843 239 80V80Z" fill="white"/>
<path d="M254 94C246.268 94 240 87.732 240 80C240 72.268 246.268 66 254 66C261.732 66 268 72.268 268 80C268 87.732 261.732 94 254 94Z" stroke="#5E40F8" stroke-width="2"/>
</g>
<g filter="url(#filter1_d_1315_3917)">
<path d="M94 80C94 71.7157 100.716 65 109 65V65C117.284 65 124 71.7157 124 80V80C124 88.2843 117.284 95 109 95V95C100.716 95 94 88.2843 94 80V80Z" fill="white"/>
<path d="M109 94C101.268 94 95 87.732 95 80C95 72.268 101.268 66 109 66C116.732 66 123 72.268 123 80C123 87.732 116.732 94 109 94Z" stroke="#5E40F8" stroke-width="2"/>
</g>
<defs>
<filter id="filter0_d_1315_3917" x="235" y="65" width="38" height="38" filterUnits="userSpaceOnUse" color-interpolation-filters="sRGB">
<feFlood flood-opacity="0" result="BackgroundImageFix"/>
<feColorMatrix in="SourceAlpha" type="matrix" values="0 0 0 0 0 0 0 0 0 0 0 0 0 0 0 0 0 0 127 0" result="hardAlpha"/>
<feOffset dy="4"/>
<feGaussianBlur stdDeviation="2"/>
<feComposite in2="hardAlpha" operator="out"/>
<feColorMatrix type="matrix" values="0 0 0 0 0 0 0 0 0 0 0 0 0 0 0 0 0 0 0.15 0"/>
<feBlend mode="normal" in2="BackgroundImageFix" result="effect1_dropShadow_1315_3917"/>
<feBlend mode="normal" in="SourceGraphic" in2="effect1_dropShadow_1315_3917" result="shape"/>
</filter>
<filter id="filter1_d_1315_3917" x="90" y="65" width="38" height="38" filterUnits="userSpaceOnUse" color-interpolation-filters="sRGB">
<feFlood flood-opacity="0" result="BackgroundImageFix"/>
<feColorMatrix in="SourceAlpha" type="matrix" values="0 0 0 0 0 0 0 0 0 0 0 0 0 0 0 0 0 0 127 0" result="hardAlpha"/>
<feOffset dy="4"/>
<feGaussianBlur stdDeviation="2"/>
<feComposite in2="hardAlpha" operator="out"/>
<feColorMatrix type="matrix" values="0 0 0 0 0 0 0 0 0 0 0 0 0 0 0 0 0 0 0.15 0"/>
<feBlend mode="normal" in2="BackgroundImageFix" result="effect1_dropShadow_1315_3917"/>
<feBlend mode="normal" in="SourceGraphic" in2="effect1_dropShadow_1315_3917" result="shape"/>
</filter>
<linearGradient id="paint0_linear_1315_3917" x1="118.228" y1="27.6972" x2="128.663" y2="65.0597" gradientUnits="userSpaceOnUse">
<stop stop-color="white" stop-opacity="0"/>
<stop offset="1" stop-color="white"/>
</linearGradient>
<linearGradient id="paint1_linear_1315_3917" x1="126.69" y1="14.6056" x2="145.921" y2="58.6655" gradientUnits="userSpaceOnUse">
<stop stop-color="white" stop-opacity="0"/>
<stop offset="1" stop-color="white"/>
</linearGradient>
<linearGradient id="paint2_linear_1315_3917" x1="134.69" y1="32.7324" x2="144.382" y2="65.4555" gradientUnits="userSpaceOnUse">
<stop stop-color="white" stop-opacity="0"/>
<stop offset="1" stop-color="white"/>
</linearGradient>
<linearGradient id="paint3_linear_1315_3917" x1="142.69" y1="10.5775" x2="164.256" y2="56.6927" gradientUnits="userSpaceOnUse">
<stop stop-color="white" stop-opacity="0"/>
<stop offset="1" stop-color="white"/>
</linearGradient>
<linearGradient id="paint4_linear_1315_3917" x1="150.69" y1="-0.500002" x2="178.864" y2="50.4126" gradientUnits="userSpaceOnUse">
<stop stop-color="white" stop-opacity="0"/>
<stop offset="1" stop-color="white"/>
</linearGradient>
<linearGradient id="paint5_linear_1315_3917" x1="159.228" y1="10.5775" x2="178.242" y2="59.3679" gradientUnits="userSpaceOnUse">
<stop stop-color="white" stop-opacity="0"/>
<stop offset="1" stop-color="white"/>
</linearGradient>
<linearGradient id="paint6_linear_1315_3917" x1="168.228" y1="18.6338" x2="182.994" y2="62.3536" gradientUnits="userSpaceOnUse">
<stop stop-color="white" stop-opacity="0"/>
<stop offset="1" stop-color="white"/>
</linearGradient>
<linearGradient id="paint7_linear_1315_3917" x1="177.228" y1="40.7887" x2="182.503" y2="67.861" gradientUnits="userSpaceOnUse">
<stop stop-color="white" stop-opacity="0"/>
<stop offset="1" stop-color="white"/>
</linearGradient>
<linearGradient id="paint8_linear_1315_3917" x1="186.228" y1="52.8732" x2="188.173" y2="69.506" gradientUnits="userSpaceOnUse">
<stop stop-color="white" stop-opacity="0"/>
<stop offset="1" stop-color="white"/>
</linearGradient>
<linearGradient id="paint9_linear_1315_3917" x1="195.228" y1="37.7676" x2="201.563" y2="67.3201" gradientUnits="userSpaceOnUse">
<stop stop-color="white" stop-opacity="0"/>
<stop offset="1" stop-color="white"/>
</linearGradient>
<linearGradient id="paint10_linear_1315_3917" x1="204.228" y1="47.838" x2="207.376" y2="68.9112" gradientUnits="userSpaceOnUse">
<stop stop-color="white" stop-opacity="0"/>
<stop offset="1" stop-color="white"/>
</linearGradient>
<linearGradient id="paint11_linear_1315_3917" x1="213.228" y1="36.7606" x2="219.934" y2="67.1266" gradientUnits="userSpaceOnUse">
<stop stop-color="white" stop-opacity="0"/>
<stop offset="1" stop-color="white"/>
</linearGradient>
<linearGradient id="paint12_linear_1315_3917" x1="221.69" y1="32.7324" x2="231.382" y2="65.4555" gradientUnits="userSpaceOnUse">
<stop stop-color="white" stop-opacity="0"/>
<stop offset="1" stop-color="white"/>
</linearGradient>
<linearGradient id="paint13_linear_1315_3917" x1="237.69" y1="26.6901" x2="250.337" y2="63.5667" gradientUnits="userSpaceOnUse">
<stop stop-color="white" stop-opacity="0"/>
<stop offset="1" stop-color="white"/>
</linearGradient>
<linearGradient id="paint14_linear_1315_3917" x1="38.6902" y1="26.6901" x2="51.3368" y2="63.5667" gradientUnits="userSpaceOnUse">
<stop stop-color="white" stop-opacity="0"/>
<stop offset="1" stop-color="white"/>
</linearGradient>
<linearGradient id="paint15_linear_1315_3917" x1="46.6902" y1="26.6901" x2="59.3368" y2="63.5667" gradientUnits="userSpaceOnUse">
<stop stop-color="white" stop-opacity="0"/>
<stop offset="1" stop-color="white"/>
</linearGradient>
<linearGradient id="paint16_linear_1315_3917" x1="30.6902" y1="46.831" x2="34.7532" y2="68.5511" gradientUnits="userSpaceOnUse">
<stop stop-color="white" stop-opacity="0"/>
<stop offset="1" stop-color="white"/>
</linearGradient>
<linearGradient id="paint17_linear_1315_3917" x1="22.6902" y1="41.7958" x2="28.5316" y2="67.639" gradientUnits="userSpaceOnUse">
<stop stop-color="white" stop-opacity="0"/>
<stop offset="1" stop-color="white"/>
</linearGradient>
<linearGradient id="paint18_linear_1315_3917" x1="14.2283" y1="47.838" x2="17.3763" y2="68.9112" gradientUnits="userSpaceOnUse">
<stop stop-color="white" stop-opacity="0"/>
<stop offset="1" stop-color="white"/>
</linearGradient>
<linearGradient id="paint19_linear_1315_3917" x1="5.22826" y1="55.8944" x2="6.58425" y2="69.8123" gradientUnits="userSpaceOnUse">
<stop stop-color="white" stop-opacity="0"/>
<stop offset="1" stop-color="white"/>
</linearGradient>
<linearGradient id="paint20_linear_1315_3917" x1="229.69" y1="26.6901" x2="242.337" y2="63.5667" gradientUnits="userSpaceOnUse">
<stop stop-color="white" stop-opacity="0"/>
<stop offset="1" stop-color="white"/>
</linearGradient>
<linearGradient id="paint21_linear_1315_3917" x1="245.69" y1="26.6901" x2="258.337" y2="63.5667" gradientUnits="userSpaceOnUse">
<stop stop-color="white" stop-opacity="0"/>
<stop offset="1" stop-color="white"/>
</linearGradient>
<linearGradient id="paint22_linear_1315_3917" x1="55.2283" y1="26.6901" x2="66.1172" y2="64.7918" gradientUnits="userSpaceOnUse">
<stop stop-color="white" stop-opacity="0"/>
<stop offset="1" stop-color="white"/>
</linearGradient>
<linearGradient id="paint23_linear_1315_3917" x1="254.228" y1="26.6901" x2="265.117" y2="64.7918" gradientUnits="userSpaceOnUse">
<stop stop-color="white" stop-opacity="0"/>
<stop offset="1" stop-color="white"/>
</linearGradient>
<linearGradient id="paint24_linear_1315_3917" x1="64.2283" y1="26.6901" x2="75.1172" y2="64.7918" gradientUnits="userSpaceOnUse">
<stop stop-color="white" stop-opacity="0"/>
<stop offset="1" stop-color="white"/>
</linearGradient>
<linearGradient id="paint25_linear_1315_3917" x1="263.228" y1="5.54225" x2="285.044" y2="57.2158" gradientUnits="userSpaceOnUse">
<stop stop-color="white" stop-opacity="0"/>
<stop offset="1" stop-color="white"/>
</linearGradient>
<linearGradient id="paint26_linear_1315_3917" x1="73.2283" y1="5.54225" x2="95.0439" y2="57.2158" gradientUnits="userSpaceOnUse">
<stop stop-color="white" stop-opacity="0"/>
<stop offset="1" stop-color="white"/>
</linearGradient>
<linearGradient id="paint27_linear_1315_3917" x1="272.228" y1="37.7676" x2="278.563" y2="67.3201" gradientUnits="userSpaceOnUse">
<stop stop-color="white" stop-opacity="0"/>
<stop offset="1" stop-color="white"/>
</linearGradient>
<linearGradient id="paint28_linear_1315_3917" x1="82.2283" y1="37.7676" x2="88.5625" y2="67.3201" gradientUnits="userSpaceOnUse">
<stop stop-color="white" stop-opacity="0"/>
<stop offset="1" stop-color="white"/>
</linearGradient>
<linearGradient id="paint29_linear_1315_3917" x1="281.228" y1="47.838" x2="284.376" y2="68.9112" gradientUnits="userSpaceOnUse">
<stop stop-color="white" stop-opacity="0"/>
<stop offset="1" stop-color="white"/>
</linearGradient>
<linearGradient id="paint30_linear_1315_3917" x1="91.2283" y1="47.838" x2="94.3763" y2="68.9112" gradientUnits="userSpaceOnUse">
<stop stop-color="white" stop-opacity="0"/>
<stop offset="1" stop-color="white"/>
</linearGradient>
<linearGradient id="paint31_linear_1315_3917" x1="290.228" y1="20.6479" x2="303.987" y2="63.0134" gradientUnits="userSpaceOnUse">
<stop stop-color="white" stop-opacity="0"/>
<stop offset="1" stop-color="white"/>
</linearGradient>
<linearGradient id="paint32_linear_1315_3917" x1="100.228" y1="20.6479" x2="113.987" y2="63.0134" gradientUnits="userSpaceOnUse">
<stop stop-color="white" stop-opacity="0"/>
<stop offset="1" stop-color="white"/>
</linearGradient>
<linearGradient id="paint33_linear_1315_3917" x1="299.228" y1="42.8028" x2="303.845" y2="68.19" gradientUnits="userSpaceOnUse">
<stop stop-color="white" stop-opacity="0"/>
<stop offset="1" stop-color="white"/>
</linearGradient>
<linearGradient id="paint34_linear_1315_3917" x1="109.228" y1="42.8028" x2="113.845" y2="68.19" gradientUnits="userSpaceOnUse">
<stop stop-color="white" stop-opacity="0"/>
<stop offset="1" stop-color="white"/>
</linearGradient>
<linearGradient id="paint35_linear_1315_3917" x1="308.228" y1="19.6408" x2="322.488" y2="62.6877" gradientUnits="userSpaceOnUse">
<stop stop-color="white" stop-opacity="0"/>
<stop offset="1" stop-color="white"/>
</linearGradient>
<linearGradient id="paint36_linear_1315_3917" x1="317.228" y1="13.5986" x2="334.612" y2="60.5531" gradientUnits="userSpaceOnUse">
<stop stop-color="white" stop-opacity="0"/>
<stop offset="1" stop-color="white"/>
</linearGradient>
<linearGradient id="paint37_linear_1315_3917" x1="325.69" y1="28.7042" x2="337.322" y2="64.2368" gradientUnits="userSpaceOnUse">
<stop stop-color="white" stop-opacity="0"/>
<stop offset="1" stop-color="white"/>
</linearGradient>
<linearGradient id="paint38_linear_1315_3917" x1="333.69" y1="55.8944" x2="335.311" y2="69.755" gradientUnits="userSpaceOnUse">
<stop stop-color="white" stop-opacity="0"/>
<stop offset="1" stop-color="white"/>
</linearGradient>
<linearGradient id="paint39_linear_1315_3917" x1="341.69" y1="61.9366" x2="342.279" y2="70.3254" gradientUnits="userSpaceOnUse">
<stop stop-color="white" stop-opacity="0"/>
<stop offset="1" stop-color="white"/>
</linearGradient>
<linearGradient id="paint40_linear_1315_3917" x1="349.69" y1="61.9366" x2="350.279" y2="70.3254" gradientUnits="userSpaceOnUse">
<stop stop-color="white" stop-opacity="0"/>
<stop offset="1" stop-color="white"/>
</linearGradient>
<linearGradient id="paint41_linear_1315_3917" x1="358.228" y1="51.8662" x2="360.392" y2="69.396" gradientUnits="userSpaceOnUse">
<stop stop-color="white" stop-opacity="0"/>
<stop offset="1" stop-color="white"/>
</linearGradient>
<linearGradient id="paint42_linear_1315_3917" x1="367.228" y1="58.9155" x2="368.099" y2="70.0877" gradientUnits="userSpaceOnUse">
<stop stop-color="white" stop-opacity="0"/>
<stop offset="1" stop-color="white"/>
</linearGradient>
</defs>
</svg>
