<svg width="82" height="26" viewBox="0 0 82 26" fill="none" xmlns="http://www.w3.org/2000/svg">
<rect x="0.5" y="0.5" width="81" height="25" rx="8.5" stroke="#E8EAEF"/>
<path d="M8.804 17.108C8.436 17.108 8.076 17.08 7.724 17.024C7.372 16.968 7.04 16.884 6.728 16.772C6.416 16.652 6.136 16.508 5.888 16.34C5.768 16.252 5.684 16.152 5.636 16.04C5.596 15.928 5.584 15.82 5.6 15.716C5.624 15.604 5.672 15.508 5.744 15.428C5.816 15.348 5.904 15.3 6.008 15.284C6.112 15.26 6.228 15.292 6.356 15.38C6.716 15.612 7.096 15.784 7.496 15.896C7.896 16 8.332 16.052 8.804 16.052C9.484 16.052 9.984 15.932 10.304 15.692C10.632 15.444 10.796 15.124 10.796 14.732C10.796 14.412 10.68 14.16 10.448 13.976C10.216 13.784 9.828 13.632 9.284 13.52L8 13.256C7.24 13.096 6.672 12.832 6.296 12.464C5.928 12.096 5.744 11.6 5.744 10.976C5.744 10.6 5.82 10.256 5.972 9.944C6.132 9.632 6.352 9.364 6.632 9.14C6.912 8.908 7.248 8.732 7.64 8.612C8.032 8.492 8.46 8.432 8.924 8.432C9.42 8.432 9.884 8.496 10.316 8.624C10.756 8.752 11.148 8.948 11.492 9.212C11.596 9.284 11.664 9.376 11.696 9.488C11.736 9.592 11.744 9.696 11.72 9.8C11.704 9.904 11.66 9.992 11.588 10.064C11.516 10.136 11.424 10.18 11.312 10.196C11.2 10.204 11.076 10.164 10.94 10.076C10.628 9.868 10.308 9.72 9.98 9.632C9.66 9.536 9.304 9.488 8.912 9.488C8.52 9.488 8.176 9.548 7.88 9.668C7.592 9.788 7.368 9.956 7.208 10.172C7.056 10.388 6.98 10.644 6.98 10.94C6.98 11.276 7.088 11.544 7.304 11.744C7.52 11.944 7.88 12.096 8.384 12.2L9.656 12.464C10.456 12.632 11.052 12.892 11.444 13.244C11.836 13.596 12.032 14.064 12.032 14.648C12.032 15.024 11.956 15.364 11.804 15.668C11.652 15.964 11.436 16.22 11.156 16.436C10.876 16.652 10.536 16.82 10.136 16.94C9.744 17.052 9.3 17.108 8.804 17.108ZM15.8968 17.108C15.2968 17.108 14.7768 16.984 14.3368 16.736C13.9048 16.48 13.5688 16.124 13.3288 15.668C13.0888 15.204 12.9688 14.66 12.9688 14.036C12.9688 13.572 13.0368 13.156 13.1728 12.788C13.3088 12.412 13.5008 12.096 13.7488 11.84C14.0048 11.584 14.3128 11.388 14.6728 11.252C15.0408 11.108 15.4488 11.036 15.8968 11.036C16.1768 11.036 16.4688 11.08 16.7728 11.168C17.0848 11.248 17.3728 11.384 17.6368 11.576C17.7408 11.64 17.8048 11.72 17.8288 11.816C17.8608 11.904 17.8648 11.996 17.8408 12.092C17.8248 12.188 17.7808 12.272 17.7088 12.344C17.6448 12.408 17.5648 12.448 17.4688 12.464C17.3728 12.472 17.2688 12.444 17.1568 12.38C16.9648 12.244 16.7688 12.148 16.5688 12.092C16.3688 12.028 16.1768 11.996 15.9928 11.996C15.7048 11.996 15.4488 12.044 15.2248 12.14C15.0088 12.228 14.8248 12.36 14.6728 12.536C14.5208 12.704 14.4048 12.916 14.3248 13.172C14.2528 13.428 14.2168 13.72 14.2168 14.048C14.2168 14.704 14.3688 15.22 14.6728 15.596C14.9848 15.964 15.4248 16.148 15.9928 16.148C16.1768 16.148 16.3688 16.12 16.5688 16.064C16.7688 16.008 16.9648 15.912 17.1568 15.776C17.2688 15.712 17.3728 15.688 17.4688 15.704C17.5648 15.72 17.6408 15.764 17.6968 15.836C17.7608 15.9 17.8008 15.98 17.8168 16.076C17.8408 16.164 17.8368 16.256 17.8048 16.352C17.7728 16.448 17.7048 16.528 17.6008 16.592C17.3448 16.776 17.0648 16.908 16.7608 16.988C16.4648 17.068 16.1768 17.108 15.8968 17.108ZM19.5184 17.084C19.3264 17.084 19.1784 17.032 19.0744 16.928C18.9704 16.816 18.9184 16.664 18.9184 16.472V9.068C18.9184 8.868 18.9704 8.716 19.0744 8.612C19.1784 8.508 19.3264 8.456 19.5184 8.456C19.7104 8.456 19.8584 8.508 19.9624 8.612C20.0744 8.716 20.1304 8.868 20.1304 9.068V12.392H19.9624C20.1384 11.944 20.4144 11.608 20.7904 11.384C21.1664 11.152 21.5984 11.036 22.0864 11.036C22.5504 11.036 22.9344 11.124 23.2384 11.3C23.5504 11.468 23.7824 11.728 23.9344 12.08C24.0864 12.424 24.1624 12.86 24.1624 13.388V16.472C24.1624 16.664 24.1104 16.816 24.0064 16.928C23.9024 17.032 23.7544 17.084 23.5624 17.084C23.3624 17.084 23.2104 17.032 23.1064 16.928C23.0024 16.816 22.9504 16.664 22.9504 16.472V13.46C22.9504 12.956 22.8504 12.588 22.6504 12.356C22.4584 12.124 22.1544 12.008 21.7384 12.008C21.2504 12.008 20.8584 12.16 20.5624 12.464C20.2744 12.768 20.1304 13.176 20.1304 13.688V16.472C20.1304 16.88 19.9264 17.084 19.5184 17.084ZM28.5805 17.108C27.9405 17.108 27.3885 16.988 26.9245 16.748C26.4685 16.5 26.1125 16.152 25.8565 15.704C25.6085 15.248 25.4845 14.708 25.4845 14.084C25.4845 13.476 25.6085 12.944 25.8565 12.488C26.1045 12.032 26.4445 11.676 26.8765 11.42C27.3085 11.164 27.8005 11.036 28.3525 11.036C28.7605 11.036 29.1245 11.104 29.4445 11.24C29.7645 11.368 30.0365 11.56 30.2605 11.816C30.4925 12.064 30.6645 12.368 30.7765 12.728C30.8965 13.088 30.9565 13.492 30.9565 13.94C30.9565 14.076 30.9165 14.18 30.8365 14.252C30.7565 14.316 30.6365 14.348 30.4765 14.348H26.4445V13.604H30.1405L29.9365 13.772C29.9365 13.372 29.8765 13.032 29.7565 12.752C29.6445 12.472 29.4725 12.26 29.2405 12.116C29.0165 11.964 28.7365 11.888 28.4005 11.888C28.0245 11.888 27.7045 11.976 27.4405 12.152C27.1845 12.328 26.9885 12.572 26.8525 12.884C26.7165 13.196 26.6485 13.56 26.6485 13.976V14.048C26.6485 14.752 26.8125 15.284 27.1405 15.644C27.4765 15.996 27.9605 16.172 28.5925 16.172C28.8325 16.172 29.0845 16.14 29.3485 16.076C29.6205 16.012 29.8765 15.904 30.1165 15.752C30.2525 15.672 30.3725 15.636 30.4765 15.644C30.5885 15.652 30.6765 15.688 30.7405 15.752C30.8125 15.816 30.8565 15.896 30.8725 15.992C30.8885 16.088 30.8725 16.188 30.8245 16.292C30.7765 16.388 30.6925 16.476 30.5725 16.556C30.3005 16.74 29.9845 16.88 29.6245 16.976C29.2645 17.064 28.9165 17.108 28.5805 17.108ZM34.5098 17.108C33.9978 17.108 33.5458 16.988 33.1538 16.748C32.7698 16.5 32.4698 16.148 32.2538 15.692C32.0378 15.228 31.9298 14.688 31.9298 14.072C31.9298 13.44 32.0378 12.9 32.2538 12.452C32.4698 12.004 32.7698 11.656 33.1538 11.408C33.5458 11.16 33.9978 11.036 34.5098 11.036C35.0218 11.036 35.4618 11.164 35.8298 11.42C36.2058 11.668 36.4578 12.004 36.5858 12.428H36.4538V9.068C36.4538 8.868 36.5058 8.716 36.6098 8.612C36.7138 8.508 36.8618 8.456 37.0538 8.456C37.2458 8.456 37.3938 8.508 37.4978 8.612C37.6098 8.716 37.6658 8.868 37.6658 9.068V16.472C37.6658 16.664 37.6138 16.816 37.5098 16.928C37.4058 17.032 37.2578 17.084 37.0658 17.084C36.8738 17.084 36.7258 17.032 36.6218 16.928C36.5178 16.816 36.4658 16.664 36.4658 16.472V15.416L36.5978 15.68C36.4698 16.112 36.2178 16.46 35.8418 16.724C35.4738 16.98 35.0298 17.108 34.5098 17.108ZM34.8218 16.172C35.1498 16.172 35.4378 16.092 35.6858 15.932C35.9338 15.772 36.1258 15.536 36.2618 15.224C36.4058 14.912 36.4778 14.528 36.4778 14.072C36.4778 13.384 36.3258 12.864 36.0218 12.512C35.7178 12.16 35.3178 11.984 34.8218 11.984C34.4858 11.984 34.1938 12.064 33.9458 12.224C33.6978 12.376 33.5018 12.608 33.3578 12.92C33.2218 13.232 33.1538 13.616 33.1538 14.072C33.1538 14.752 33.3058 15.272 33.6098 15.632C33.9138 15.992 34.3178 16.172 34.8218 16.172ZM41.4556 17.108C40.9836 17.108 40.5876 17.02 40.2676 16.844C39.9556 16.668 39.7196 16.408 39.5596 16.064C39.4076 15.712 39.3316 15.272 39.3316 14.744V11.672C39.3316 11.464 39.3836 11.312 39.4876 11.216C39.5916 11.112 39.7396 11.06 39.9316 11.06C40.1236 11.06 40.2716 11.112 40.3756 11.216C40.4876 11.312 40.5436 11.464 40.5436 11.672V14.756C40.5436 15.228 40.6396 15.576 40.8316 15.8C41.0236 16.024 41.3276 16.136 41.7436 16.136C42.1996 16.136 42.5676 15.984 42.8476 15.68C43.1356 15.368 43.2796 14.96 43.2796 14.456V11.672C43.2796 11.464 43.3316 11.312 43.4356 11.216C43.5396 11.112 43.6916 11.06 43.8916 11.06C44.0836 11.06 44.2316 11.112 44.3356 11.216C44.4396 11.312 44.4916 11.464 44.4916 11.672V16.472C44.4916 16.88 44.2956 17.084 43.9036 17.084C43.7196 17.084 43.5756 17.032 43.4716 16.928C43.3676 16.816 43.3156 16.664 43.3156 16.472V15.452L43.4716 15.716C43.3116 16.164 43.0556 16.508 42.7036 16.748C42.3516 16.988 41.9356 17.108 41.4556 17.108ZM48.0837 17.108C47.4597 17.108 46.9877 16.928 46.6677 16.568C46.3557 16.2 46.1997 15.672 46.1997 14.984V9.068C46.1997 8.868 46.2517 8.716 46.3557 8.612C46.4597 8.508 46.6077 8.456 46.7997 8.456C46.9917 8.456 47.1397 8.508 47.2437 8.612C47.3557 8.716 47.4117 8.868 47.4117 9.068V14.912C47.4117 15.312 47.4917 15.612 47.6517 15.812C47.8197 16.004 48.0597 16.1 48.3717 16.1C48.4437 16.1 48.5077 16.1 48.5637 16.1C48.6197 16.092 48.6757 16.084 48.7317 16.076C48.8277 16.068 48.8957 16.096 48.9357 16.16C48.9757 16.216 48.9957 16.336 48.9957 16.52C48.9957 16.688 48.9597 16.82 48.8877 16.916C48.8157 17.004 48.6997 17.06 48.5397 17.084C48.4677 17.092 48.3917 17.096 48.3117 17.096C48.2317 17.104 48.1557 17.108 48.0837 17.108ZM52.557 17.108C51.917 17.108 51.365 16.988 50.901 16.748C50.445 16.5 50.089 16.152 49.833 15.704C49.585 15.248 49.461 14.708 49.461 14.084C49.461 13.476 49.585 12.944 49.833 12.488C50.081 12.032 50.421 11.676 50.853 11.42C51.285 11.164 51.777 11.036 52.329 11.036C52.737 11.036 53.101 11.104 53.421 11.24C53.741 11.368 54.013 11.56 54.237 11.816C54.469 12.064 54.641 12.368 54.753 12.728C54.873 13.088 54.933 13.492 54.933 13.94C54.933 14.076 54.893 14.18 54.813 14.252C54.733 14.316 54.613 14.348 54.453 14.348H50.421V13.604H54.117L53.913 13.772C53.913 13.372 53.853 13.032 53.733 12.752C53.621 12.472 53.449 12.26 53.217 12.116C52.993 11.964 52.713 11.888 52.377 11.888C52.001 11.888 51.681 11.976 51.417 12.152C51.161 12.328 50.965 12.572 50.829 12.884C50.693 13.196 50.625 13.56 50.625 13.976V14.048C50.625 14.752 50.789 15.284 51.117 15.644C51.453 15.996 51.937 16.172 52.569 16.172C52.809 16.172 53.061 16.14 53.325 16.076C53.597 16.012 53.853 15.904 54.093 15.752C54.229 15.672 54.349 15.636 54.453 15.644C54.565 15.652 54.653 15.688 54.717 15.752C54.789 15.816 54.833 15.896 54.849 15.992C54.865 16.088 54.849 16.188 54.801 16.292C54.753 16.388 54.669 16.476 54.549 16.556C54.277 16.74 53.961 16.88 53.601 16.976C53.241 17.064 52.893 17.108 52.557 17.108ZM58.4863 17.108C57.9743 17.108 57.5223 16.988 57.1303 16.748C56.7463 16.5 56.4463 16.148 56.2303 15.692C56.0143 15.228 55.9063 14.688 55.9063 14.072C55.9063 13.44 56.0143 12.9 56.2303 12.452C56.4463 12.004 56.7463 11.656 57.1303 11.408C57.5223 11.16 57.9743 11.036 58.4863 11.036C58.9983 11.036 59.4383 11.164 59.8063 11.42C60.1823 11.668 60.4343 12.004 60.5623 12.428H60.4303V9.068C60.4303 8.868 60.4823 8.716 60.5863 8.612C60.6903 8.508 60.8383 8.456 61.0303 8.456C61.2223 8.456 61.3703 8.508 61.4743 8.612C61.5863 8.716 61.6423 8.868 61.6423 9.068V16.472C61.6423 16.664 61.5903 16.816 61.4863 16.928C61.3823 17.032 61.2343 17.084 61.0423 17.084C60.8503 17.084 60.7023 17.032 60.5983 16.928C60.4943 16.816 60.4423 16.664 60.4423 16.472V15.416L60.5743 15.68C60.4463 16.112 60.1943 16.46 59.8183 16.724C59.4503 16.98 59.0063 17.108 58.4863 17.108ZM58.7983 16.172C59.1263 16.172 59.4143 16.092 59.6623 15.932C59.9103 15.772 60.1023 15.536 60.2383 15.224C60.3823 14.912 60.4543 14.528 60.4543 14.072C60.4543 13.384 60.3023 12.864 59.9983 12.512C59.6943 12.16 59.2943 11.984 58.7983 11.984C58.4623 11.984 58.1703 12.064 57.9223 12.224C57.6743 12.376 57.4783 12.608 57.3343 12.92C57.1983 13.232 57.1303 13.616 57.1303 14.072C57.1303 14.752 57.2823 15.272 57.5863 15.632C57.8903 15.992 58.2943 16.172 58.7983 16.172Z" fill="#64728C"/>
<path d="M71.428 15.7172C71.7719 16.0688 72.3294 16.0688 72.6732 15.7172L76.7421 11.5562C77.086 11.2046 77.086 10.6345 76.7421 10.2829C76.3983 9.93122 75.8408 9.93122 75.4969 10.2829L71.428 14.4438C71.0842 14.7954 71.0842 15.3656 71.428 15.7172Z" fill="#64728C"/>
<path d="M72.6093 15.7363C72.9532 15.3846 72.9532 14.8145 72.6093 14.4629L68.5031 10.2637C68.1592 9.91209 67.6017 9.91209 67.2579 10.2637C66.914 10.6154 66.914 11.1855 67.2579 11.5371L71.3641 15.7363C71.708 16.0879 72.2655 16.0879 72.6093 15.7363Z" fill="#64728C"/>
</svg>
