<svg width="75" height="26" viewBox="0 0 75 26" fill="none" xmlns="http://www.w3.org/2000/svg">
<rect x="1" y="1" width="73" height="24" rx="8" fill="white" fill-opacity="0.15"/>
<rect x="0.5" y="0.5" width="74" height="25" rx="8.5" stroke="url(#paint0_linear_1088_9068)" stroke-opacity="0.25"/>
<path d="M6.572 17.084C6.388 17.084 6.244 17.032 6.14 16.928C6.036 16.824 5.984 16.676 5.984 16.484V9.08C5.984 8.88 6.032 8.728 6.128 8.624C6.232 8.512 6.368 8.456 6.536 8.456C6.68 8.456 6.788 8.484 6.86 8.54C6.94 8.588 7.032 8.68 7.136 8.816L12.08 15.332H11.78V9.044C11.78 8.86 11.828 8.716 11.924 8.612C12.028 8.508 12.172 8.456 12.356 8.456C12.548 8.456 12.692 8.508 12.788 8.612C12.884 8.716 12.932 8.86 12.932 9.044V16.496C12.932 16.68 12.884 16.824 12.788 16.928C12.7 17.032 12.58 17.084 12.428 17.084C12.284 17.084 12.164 17.056 12.068 17C11.98 16.944 11.884 16.848 11.78 16.712L6.86 10.208H7.136V16.484C7.136 16.676 7.088 16.824 6.992 16.928C6.896 17.032 6.756 17.084 6.572 17.084ZM17.314 17.108C16.722 17.108 16.21 16.984 15.778 16.736C15.354 16.488 15.022 16.136 14.782 15.68C14.542 15.224 14.422 14.688 14.422 14.072C14.422 13.6 14.49 13.18 14.626 12.812C14.762 12.444 14.954 12.128 15.202 11.864C15.458 11.592 15.762 11.388 16.114 11.252C16.474 11.108 16.874 11.036 17.314 11.036C17.898 11.036 18.402 11.16 18.826 11.408C19.258 11.656 19.594 12.008 19.834 12.464C20.074 12.912 20.194 13.448 20.194 14.072C20.194 14.536 20.126 14.956 19.99 15.332C19.854 15.708 19.658 16.028 19.402 16.292C19.154 16.556 18.85 16.76 18.49 16.904C18.138 17.04 17.746 17.108 17.314 17.108ZM17.314 16.172C17.642 16.172 17.93 16.092 18.178 15.932C18.426 15.772 18.618 15.536 18.754 15.224C18.898 14.912 18.97 14.528 18.97 14.072C18.97 13.384 18.818 12.864 18.514 12.512C18.21 12.16 17.81 11.984 17.314 11.984C16.978 11.984 16.686 12.064 16.438 12.224C16.19 12.376 15.994 12.608 15.85 12.92C15.714 13.232 15.646 13.616 15.646 14.072C15.646 14.752 15.798 15.272 16.102 15.632C16.406 15.992 16.81 16.172 17.314 16.172ZM23.9925 17.108C23.5125 17.108 23.1085 17.024 22.7805 16.856C22.4525 16.688 22.2085 16.44 22.0485 16.112C21.8885 15.784 21.8085 15.384 21.8085 14.912V12.08H21.0885C20.9285 12.08 20.8045 12.04 20.7165 11.96C20.6285 11.872 20.5845 11.756 20.5845 11.612C20.5845 11.46 20.6285 11.344 20.7165 11.264C20.8045 11.184 20.9285 11.144 21.0885 11.144H21.8085V9.908C21.8085 9.708 21.8605 9.556 21.9645 9.452C22.0765 9.348 22.2285 9.296 22.4205 9.296C22.6125 9.296 22.7605 9.348 22.8645 9.452C22.9685 9.556 23.0205 9.708 23.0205 9.908V11.144H24.4245C24.5845 11.144 24.7085 11.184 24.7965 11.264C24.8845 11.344 24.9285 11.46 24.9285 11.612C24.9285 11.756 24.8845 11.872 24.7965 11.96C24.7085 12.04 24.5845 12.08 24.4245 12.08H23.0205V14.816C23.0205 15.24 23.1085 15.56 23.2845 15.776C23.4685 15.992 23.7645 16.1 24.1725 16.1C24.3165 16.1 24.4405 16.088 24.5445 16.064C24.6565 16.032 24.7485 16.012 24.8205 16.004C24.9085 16.004 24.9805 16.036 25.0365 16.1C25.0925 16.156 25.1205 16.268 25.1205 16.436C25.1205 16.556 25.0965 16.668 25.0485 16.772C25.0085 16.876 24.9325 16.944 24.8205 16.976C24.7245 17.008 24.5925 17.036 24.4245 17.06C24.2645 17.092 24.1205 17.108 23.9925 17.108ZM31.9954 17.108C31.6274 17.108 31.2674 17.08 30.9154 17.024C30.5634 16.968 30.2314 16.884 29.9194 16.772C29.6074 16.652 29.3274 16.508 29.0794 16.34C28.9594 16.252 28.8754 16.152 28.8274 16.04C28.7874 15.928 28.7754 15.82 28.7914 15.716C28.8154 15.604 28.8634 15.508 28.9354 15.428C29.0074 15.348 29.0954 15.3 29.1994 15.284C29.3034 15.26 29.4194 15.292 29.5474 15.38C29.9074 15.612 30.2874 15.784 30.6874 15.896C31.0874 16 31.5234 16.052 31.9954 16.052C32.6754 16.052 33.1754 15.932 33.4954 15.692C33.8234 15.444 33.9874 15.124 33.9874 14.732C33.9874 14.412 33.8714 14.16 33.6394 13.976C33.4074 13.784 33.0194 13.632 32.4754 13.52L31.1914 13.256C30.4314 13.096 29.8634 12.832 29.4874 12.464C29.1194 12.096 28.9354 11.6 28.9354 10.976C28.9354 10.6 29.0114 10.256 29.1634 9.944C29.3234 9.632 29.5434 9.364 29.8234 9.14C30.1034 8.908 30.4394 8.732 30.8314 8.612C31.2234 8.492 31.6514 8.432 32.1154 8.432C32.6114 8.432 33.0754 8.496 33.5074 8.624C33.9474 8.752 34.3394 8.948 34.6834 9.212C34.7874 9.284 34.8554 9.376 34.8874 9.488C34.9274 9.592 34.9354 9.696 34.9114 9.8C34.8954 9.904 34.8514 9.992 34.7794 10.064C34.7074 10.136 34.6154 10.18 34.5034 10.196C34.3914 10.204 34.2674 10.164 34.1314 10.076C33.8194 9.868 33.4994 9.72 33.1714 9.632C32.8514 9.536 32.4954 9.488 32.1034 9.488C31.7114 9.488 31.3674 9.548 31.0714 9.668C30.7834 9.788 30.5594 9.956 30.3994 10.172C30.2474 10.388 30.1714 10.644 30.1714 10.94C30.1714 11.276 30.2794 11.544 30.4954 11.744C30.7114 11.944 31.0714 12.096 31.5754 12.2L32.8474 12.464C33.6474 12.632 34.2434 12.892 34.6354 13.244C35.0274 13.596 35.2234 14.064 35.2234 14.648C35.2234 15.024 35.1474 15.364 34.9954 15.668C34.8434 15.964 34.6274 16.22 34.3474 16.436C34.0674 16.652 33.7274 16.82 33.3274 16.94C32.9354 17.052 32.4914 17.108 31.9954 17.108ZM38.9691 17.108C38.4891 17.108 38.0851 17.024 37.7571 16.856C37.4291 16.688 37.1851 16.44 37.0251 16.112C36.8651 15.784 36.7851 15.384 36.7851 14.912V12.08H36.0651C35.9051 12.08 35.7811 12.04 35.6931 11.96C35.6051 11.872 35.5611 11.756 35.5611 11.612C35.5611 11.46 35.6051 11.344 35.6931 11.264C35.7811 11.184 35.9051 11.144 36.0651 11.144H36.7851V9.908C36.7851 9.708 36.8371 9.556 36.9411 9.452C37.0531 9.348 37.2051 9.296 37.3971 9.296C37.5891 9.296 37.7371 9.348 37.8411 9.452C37.9451 9.556 37.9971 9.708 37.9971 9.908V11.144H39.4011C39.5611 11.144 39.6851 11.184 39.7731 11.264C39.8611 11.344 39.9051 11.46 39.9051 11.612C39.9051 11.756 39.8611 11.872 39.7731 11.96C39.6851 12.04 39.5611 12.08 39.4011 12.08H37.9971V14.816C37.9971 15.24 38.0851 15.56 38.2611 15.776C38.4451 15.992 38.7411 16.1 39.1491 16.1C39.2931 16.1 39.4171 16.088 39.5211 16.064C39.6331 16.032 39.7251 16.012 39.7971 16.004C39.8851 16.004 39.9571 16.036 40.0131 16.1C40.0691 16.156 40.0971 16.268 40.0971 16.436C40.0971 16.556 40.0731 16.668 40.0251 16.772C39.9851 16.876 39.9091 16.944 39.7971 16.976C39.7011 17.008 39.5691 17.036 39.4011 17.06C39.2411 17.092 39.0971 17.108 38.9691 17.108ZM42.7279 17.108C42.3199 17.108 41.9519 17.028 41.6239 16.868C41.3039 16.708 41.0519 16.492 40.8679 16.22C40.6839 15.948 40.5919 15.64 40.5919 15.296C40.5919 14.864 40.6999 14.524 40.9159 14.276C41.1399 14.02 41.5039 13.84 42.0079 13.736C42.5199 13.624 43.2079 13.568 44.0719 13.568H44.6359V14.312H44.0839C43.5079 14.312 43.0519 14.34 42.7159 14.396C42.3799 14.452 42.1399 14.548 41.9959 14.684C41.8599 14.812 41.7919 14.992 41.7919 15.224C41.7919 15.528 41.8959 15.776 42.1039 15.968C42.3119 16.152 42.5999 16.244 42.9679 16.244C43.2639 16.244 43.5239 16.176 43.7479 16.04C43.9719 15.896 44.1479 15.704 44.2759 15.464C44.4119 15.224 44.4799 14.948 44.4799 14.636V13.256C44.4799 12.8 44.3839 12.472 44.1919 12.272C43.9999 12.072 43.6839 11.972 43.2439 11.972C42.9879 11.972 42.7199 12.004 42.4399 12.068C42.1679 12.132 41.8839 12.24 41.5879 12.392C41.4519 12.456 41.3359 12.476 41.2399 12.452C41.1439 12.428 41.0679 12.376 41.0119 12.296C40.9559 12.208 40.9239 12.116 40.9159 12.02C40.9159 11.916 40.9399 11.816 40.9879 11.72C41.0439 11.624 41.1359 11.552 41.2639 11.504C41.6159 11.336 41.9639 11.216 42.3079 11.144C42.6519 11.072 42.9759 11.036 43.2799 11.036C43.8159 11.036 44.2559 11.12 44.5999 11.288C44.9519 11.456 45.2119 11.712 45.3799 12.056C45.5479 12.4 45.6319 12.844 45.6319 13.388V16.472C45.6319 16.664 45.5839 16.816 45.4879 16.928C45.3919 17.032 45.2519 17.084 45.0679 17.084C44.8919 17.084 44.7519 17.032 44.6479 16.928C44.5439 16.816 44.4919 16.664 44.4919 16.472V15.692H44.5999C44.5359 15.988 44.4159 16.244 44.2399 16.46C44.0719 16.668 43.8599 16.828 43.6039 16.94C43.3479 17.052 43.0559 17.108 42.7279 17.108ZM47.9132 17.084C47.7132 17.084 47.5612 17.032 47.4572 16.928C47.3532 16.816 47.3012 16.664 47.3012 16.472V11.672C47.3012 11.472 47.3532 11.32 47.4572 11.216C47.5612 11.112 47.7052 11.06 47.8892 11.06C48.0812 11.06 48.2252 11.112 48.3212 11.216C48.4252 11.32 48.4772 11.472 48.4772 11.672V12.548H48.3572C48.4852 12.068 48.7212 11.704 49.0652 11.456C49.4092 11.208 49.8492 11.064 50.3852 11.024C50.5292 11.016 50.6412 11.052 50.7212 11.132C50.8092 11.212 50.8572 11.336 50.8652 11.504C50.8812 11.672 50.8452 11.808 50.7572 11.912C50.6692 12.008 50.5332 12.064 50.3492 12.08L50.1212 12.104C49.6012 12.152 49.2052 12.316 48.9332 12.596C48.6612 12.876 48.5252 13.26 48.5252 13.748V16.472C48.5252 16.664 48.4732 16.816 48.3692 16.928C48.2732 17.032 48.1212 17.084 47.9132 17.084ZM54.6019 17.108C54.1219 17.108 53.7179 17.024 53.3899 16.856C53.0619 16.688 52.8179 16.44 52.6579 16.112C52.4979 15.784 52.4179 15.384 52.4179 14.912V12.08H51.6979C51.5379 12.08 51.4139 12.04 51.3259 11.96C51.2379 11.872 51.1939 11.756 51.1939 11.612C51.1939 11.46 51.2379 11.344 51.3259 11.264C51.4139 11.184 51.5379 11.144 51.6979 11.144H52.4179V9.908C52.4179 9.708 52.4699 9.556 52.5739 9.452C52.6859 9.348 52.8379 9.296 53.0299 9.296C53.2219 9.296 53.3699 9.348 53.4739 9.452C53.5779 9.556 53.6299 9.708 53.6299 9.908V11.144H55.0339C55.1939 11.144 55.3179 11.184 55.4059 11.264C55.4939 11.344 55.5379 11.46 55.5379 11.612C55.5379 11.756 55.4939 11.872 55.4059 11.96C55.3179 12.04 55.1939 12.08 55.0339 12.08H53.6299V14.816C53.6299 15.24 53.7179 15.56 53.8939 15.776C54.0779 15.992 54.3739 16.1 54.7819 16.1C54.9259 16.1 55.0499 16.088 55.1539 16.064C55.2659 16.032 55.3579 16.012 55.4299 16.004C55.5179 16.004 55.5899 16.036 55.6459 16.1C55.7019 16.156 55.7299 16.268 55.7299 16.436C55.7299 16.556 55.7059 16.668 55.6579 16.772C55.6179 16.876 55.5419 16.944 55.4299 16.976C55.3339 17.008 55.2019 17.036 55.0339 17.06C54.8739 17.092 54.7299 17.108 54.6019 17.108ZM59.1781 17.108C58.5381 17.108 57.9861 16.988 57.5221 16.748C57.0661 16.5 56.7101 16.152 56.4541 15.704C56.2061 15.248 56.0821 14.708 56.0821 14.084C56.0821 13.476 56.2061 12.944 56.4541 12.488C56.7021 12.032 57.0421 11.676 57.4741 11.42C57.9061 11.164 58.3981 11.036 58.9501 11.036C59.3581 11.036 59.7221 11.104 60.0421 11.24C60.3621 11.368 60.6341 11.56 60.8581 11.816C61.0901 12.064 61.2621 12.368 61.3741 12.728C61.4941 13.088 61.5541 13.492 61.5541 13.94C61.5541 14.076 61.5141 14.18 61.4341 14.252C61.3541 14.316 61.2341 14.348 61.0741 14.348H57.0421V13.604H60.7381L60.5341 13.772C60.5341 13.372 60.4741 13.032 60.3541 12.752C60.2421 12.472 60.0701 12.26 59.8381 12.116C59.6141 11.964 59.3341 11.888 58.9981 11.888C58.6221 11.888 58.3021 11.976 58.0381 12.152C57.7821 12.328 57.5861 12.572 57.4501 12.884C57.3141 13.196 57.2461 13.56 57.2461 13.976V14.048C57.2461 14.752 57.4101 15.284 57.7381 15.644C58.0741 15.996 58.5581 16.172 59.1901 16.172C59.4301 16.172 59.6821 16.14 59.9461 16.076C60.2181 16.012 60.4741 15.904 60.7141 15.752C60.8501 15.672 60.9701 15.636 61.0741 15.644C61.1861 15.652 61.2741 15.688 61.3381 15.752C61.4101 15.816 61.4541 15.896 61.4701 15.992C61.4861 16.088 61.4701 16.188 61.4221 16.292C61.3741 16.388 61.2901 16.476 61.1701 16.556C60.8981 16.74 60.5821 16.88 60.2221 16.976C59.8621 17.064 59.5141 17.108 59.1781 17.108ZM65.1074 17.108C64.5954 17.108 64.1434 16.988 63.7514 16.748C63.3674 16.5 63.0674 16.148 62.8514 15.692C62.6354 15.228 62.5274 14.688 62.5274 14.072C62.5274 13.44 62.6354 12.9 62.8514 12.452C63.0674 12.004 63.3674 11.656 63.7514 11.408C64.1434 11.16 64.5954 11.036 65.1074 11.036C65.6194 11.036 66.0594 11.164 66.4274 11.42C66.8034 11.668 67.0554 12.004 67.1834 12.428H67.0514V9.068C67.0514 8.868 67.1034 8.716 67.2074 8.612C67.3114 8.508 67.4594 8.456 67.6514 8.456C67.8434 8.456 67.9914 8.508 68.0954 8.612C68.2074 8.716 68.2634 8.868 68.2634 9.068V16.472C68.2634 16.664 68.2114 16.816 68.1074 16.928C68.0034 17.032 67.8554 17.084 67.6634 17.084C67.4714 17.084 67.3234 17.032 67.2194 16.928C67.1154 16.816 67.0634 16.664 67.0634 16.472V15.416L67.1954 15.68C67.0674 16.112 66.8154 16.46 66.4394 16.724C66.0714 16.98 65.6274 17.108 65.1074 17.108ZM65.4194 16.172C65.7474 16.172 66.0354 16.092 66.2834 15.932C66.5314 15.772 66.7234 15.536 66.8594 15.224C67.0034 14.912 67.0754 14.528 67.0754 14.072C67.0754 13.384 66.9234 12.864 66.6194 12.512C66.3154 12.16 65.9154 11.984 65.4194 11.984C65.0834 11.984 64.7914 12.064 64.5434 12.224C64.2954 12.376 64.0994 12.608 63.9554 12.92C63.8194 13.232 63.7514 13.616 63.7514 14.072C63.7514 14.752 63.9034 15.272 64.2074 15.632C64.5114 15.992 64.9154 16.172 65.4194 16.172Z" fill="#0072DC"/>
<defs>
<linearGradient id="paint0_linear_1088_9068" x1="43.4784" y1="1" x2="43.4784" y2="25" gradientUnits="userSpaceOnUse">
<stop stop-color="#057FF0"/>
<stop offset="1" stop-color="#1D92FF"/>
</linearGradient>
</defs>
</svg>
