<svg width="410" height="141" viewBox="0 0 410 141" fill="none" xmlns="http://www.w3.org/2000/svg">
<path d="M1.656 12C1.44 12 1.272 11.944 1.152 11.832C1.04 11.712 0.984 11.544 0.984 11.328V4.212C0.984 3.996 1.04 3.832 1.152 3.72C1.272 3.6 1.44 3.54 1.656 3.54H3.972C5.364 3.54 6.436 3.904 7.188 4.632C7.948 5.352 8.328 6.396 8.328 7.764C8.328 8.444 8.232 9.048 8.04 9.576C7.848 10.104 7.564 10.548 7.188 10.908C6.82 11.26 6.368 11.532 5.832 11.724C5.296 11.908 4.676 12 3.972 12H1.656ZM2.232 10.956H3.9C4.428 10.956 4.884 10.892 5.268 10.764C5.66 10.628 5.988 10.428 6.252 10.164C6.516 9.9 6.712 9.568 6.84 9.168C6.968 8.768 7.032 8.3 7.032 7.764C7.032 6.7 6.768 5.904 6.24 5.376C5.72 4.848 4.94 4.584 3.9 4.584H2.232V10.956ZM12.6117 12.108C11.9717 12.108 11.4197 11.988 10.9557 11.748C10.4997 11.5 10.1437 11.152 9.88772 10.704C9.63972 10.248 9.51572 9.708 9.51572 9.084C9.51572 8.476 9.63972 7.944 9.88772 7.488C10.1357 7.032 10.4757 6.676 10.9077 6.42C11.3397 6.164 11.8317 6.036 12.3837 6.036C12.7917 6.036 13.1557 6.104 13.4757 6.24C13.7957 6.368 14.0677 6.56 14.2917 6.816C14.5237 7.064 14.6957 7.368 14.8077 7.728C14.9277 8.088 14.9877 8.492 14.9877 8.94C14.9877 9.076 14.9477 9.18 14.8677 9.252C14.7877 9.316 14.6677 9.348 14.5077 9.348H10.4757V8.604H14.1717L13.9677 8.772C13.9677 8.372 13.9077 8.032 13.7877 7.752C13.6757 7.472 13.5037 7.26 13.2717 7.116C13.0477 6.964 12.7677 6.888 12.4317 6.888C12.0557 6.888 11.7357 6.976 11.4717 7.152C11.2157 7.328 11.0197 7.572 10.8837 7.884C10.7477 8.196 10.6797 8.56 10.6797 8.976V9.048C10.6797 9.752 10.8437 10.284 11.1717 10.644C11.5077 10.996 11.9917 11.172 12.6237 11.172C12.8637 11.172 13.1157 11.14 13.3797 11.076C13.6517 11.012 13.9077 10.904 14.1477 10.752C14.2837 10.672 14.4037 10.636 14.5077 10.644C14.6197 10.652 14.7077 10.688 14.7717 10.752C14.8437 10.816 14.8877 10.896 14.9037 10.992C14.9197 11.088 14.9037 11.188 14.8557 11.292C14.8077 11.388 14.7237 11.476 14.6037 11.556C14.3317 11.74 14.0157 11.88 13.6557 11.976C13.2957 12.064 12.9477 12.108 12.6117 12.108ZM18.361 12.108C18.009 12.108 17.645 12.068 17.269 11.988C16.901 11.908 16.561 11.772 16.249 11.58C16.145 11.508 16.073 11.428 16.033 11.34C15.993 11.252 15.977 11.164 15.985 11.076C16.001 10.98 16.037 10.9 16.093 10.836C16.157 10.764 16.233 10.72 16.321 10.704C16.417 10.688 16.517 10.708 16.621 10.764C16.933 10.94 17.233 11.064 17.521 11.136C17.809 11.2 18.093 11.232 18.373 11.232C18.797 11.232 19.117 11.156 19.333 11.004C19.549 10.852 19.657 10.648 19.657 10.392C19.657 10.184 19.585 10.024 19.441 9.912C19.297 9.792 19.081 9.7 18.793 9.636L17.653 9.408C17.157 9.304 16.781 9.12 16.525 8.856C16.269 8.592 16.141 8.256 16.141 7.848C16.141 7.48 16.241 7.16 16.441 6.888C16.641 6.616 16.921 6.408 17.281 6.264C17.641 6.112 18.057 6.036 18.529 6.036C18.881 6.036 19.213 6.08 19.525 6.168C19.837 6.256 20.125 6.388 20.389 6.564C20.493 6.62 20.561 6.696 20.593 6.792C20.625 6.88 20.629 6.968 20.605 7.056C20.589 7.144 20.549 7.224 20.485 7.296C20.421 7.36 20.341 7.4 20.245 7.416C20.157 7.424 20.057 7.4 19.945 7.344C19.705 7.192 19.465 7.084 19.225 7.02C18.993 6.956 18.761 6.924 18.529 6.924C18.105 6.924 17.785 7.004 17.569 7.164C17.361 7.316 17.257 7.524 17.257 7.788C17.257 7.988 17.321 8.152 17.449 8.28C17.577 8.408 17.777 8.5 18.049 8.556L19.189 8.784C19.709 8.888 20.101 9.064 20.365 9.312C20.637 9.56 20.773 9.896 20.773 10.32C20.773 10.872 20.553 11.308 20.113 11.628C19.673 11.948 19.089 12.108 18.361 12.108ZM24.7015 12.108C24.1015 12.108 23.5815 11.984 23.1415 11.736C22.7095 11.48 22.3735 11.124 22.1335 10.668C21.8935 10.204 21.7735 9.66 21.7735 9.036C21.7735 8.572 21.8415 8.156 21.9775 7.788C22.1135 7.412 22.3055 7.096 22.5535 6.84C22.8095 6.584 23.1175 6.388 23.4775 6.252C23.8455 6.108 24.2535 6.036 24.7015 6.036C24.9815 6.036 25.2735 6.08 25.5775 6.168C25.8895 6.248 26.1775 6.384 26.4415 6.576C26.5455 6.64 26.6095 6.72 26.6335 6.816C26.6655 6.904 26.6695 6.996 26.6455 7.092C26.6295 7.188 26.5855 7.272 26.5135 7.344C26.4495 7.408 26.3695 7.448 26.2735 7.464C26.1775 7.472 26.0735 7.444 25.9615 7.38C25.7695 7.244 25.5735 7.148 25.3735 7.092C25.1735 7.028 24.9815 6.996 24.7975 6.996C24.5095 6.996 24.2535 7.044 24.0295 7.14C23.8135 7.228 23.6295 7.36 23.4775 7.536C23.3255 7.704 23.2095 7.916 23.1295 8.172C23.0575 8.428 23.0215 8.72 23.0215 9.048C23.0215 9.704 23.1735 10.22 23.4775 10.596C23.7895 10.964 24.2295 11.148 24.7975 11.148C24.9815 11.148 25.1735 11.12 25.3735 11.064C25.5735 11.008 25.7695 10.912 25.9615 10.776C26.0735 10.712 26.1775 10.688 26.2735 10.704C26.3695 10.72 26.4455 10.764 26.5015 10.836C26.5655 10.9 26.6055 10.98 26.6215 11.076C26.6455 11.164 26.6415 11.256 26.6095 11.352C26.5775 11.448 26.5095 11.528 26.4055 11.592C26.1495 11.776 25.8695 11.908 25.5655 11.988C25.2695 12.068 24.9815 12.108 24.7015 12.108ZM28.3351 12.084C28.1351 12.084 27.9831 12.032 27.8791 11.928C27.7751 11.816 27.7231 11.664 27.7231 11.472V6.672C27.7231 6.472 27.7751 6.32 27.8791 6.216C27.9831 6.112 28.1271 6.06 28.3111 6.06C28.5031 6.06 28.6471 6.112 28.7431 6.216C28.8471 6.32 28.8991 6.472 28.8991 6.672V7.548H28.7791C28.9071 7.068 29.1431 6.704 29.4871 6.456C29.8311 6.208 30.2711 6.064 30.8071 6.024C30.9511 6.016 31.0631 6.052 31.1431 6.132C31.2311 6.212 31.2791 6.336 31.2871 6.504C31.3031 6.672 31.2671 6.808 31.1791 6.912C31.0911 7.008 30.9551 7.064 30.7711 7.08L30.5431 7.104C30.0231 7.152 29.6271 7.316 29.3551 7.596C29.0831 7.876 28.9471 8.26 28.9471 8.748V11.472C28.9471 11.664 28.8951 11.816 28.7911 11.928C28.6951 12.032 28.5431 12.084 28.3351 12.084ZM32.7997 12.072C32.6077 12.072 32.4597 12.016 32.3557 11.904C32.2517 11.784 32.1997 11.62 32.1997 11.412V6.732C32.1997 6.524 32.2517 6.364 32.3557 6.252C32.4597 6.14 32.6077 6.084 32.7997 6.084C32.9917 6.084 33.1397 6.14 33.2437 6.252C33.3557 6.364 33.4117 6.524 33.4117 6.732V11.412C33.4117 11.62 33.3597 11.784 33.2557 11.904C33.1517 12.016 32.9997 12.072 32.7997 12.072ZM32.7997 4.836C32.5597 4.836 32.3717 4.776 32.2357 4.656C32.1077 4.536 32.0437 4.368 32.0437 4.152C32.0437 3.928 32.1077 3.76 32.2357 3.648C32.3717 3.528 32.5597 3.468 32.7997 3.468C33.0397 3.468 33.2237 3.528 33.3517 3.648C33.4877 3.76 33.5557 3.928 33.5557 4.152C33.5557 4.368 33.4877 4.536 33.3517 4.656C33.2237 4.776 33.0397 4.836 32.7997 4.836ZM35.7176 14.244C35.5256 14.244 35.3776 14.192 35.2736 14.088C35.1696 13.984 35.1176 13.832 35.1176 13.632V6.672C35.1176 6.472 35.1696 6.32 35.2736 6.216C35.3776 6.112 35.5216 6.06 35.7056 6.06C35.8976 6.06 36.0456 6.112 36.1496 6.216C36.2536 6.32 36.3056 6.472 36.3056 6.672V7.716L36.1736 7.464C36.3016 7.032 36.5536 6.688 36.9296 6.432C37.3056 6.168 37.7496 6.036 38.2616 6.036C38.7816 6.036 39.2336 6.16 39.6176 6.408C40.0096 6.656 40.3096 7.004 40.5176 7.452C40.7336 7.9 40.8416 8.44 40.8416 9.072C40.8416 9.688 40.7336 10.228 40.5176 10.692C40.3096 11.148 40.0136 11.5 39.6296 11.748C39.2456 11.988 38.7896 12.108 38.2616 12.108C37.7576 12.108 37.3176 11.98 36.9416 11.724C36.5656 11.468 36.3136 11.128 36.1856 10.704H36.3296V13.632C36.3296 13.832 36.2736 13.984 36.1616 14.088C36.0576 14.192 35.9096 14.244 35.7176 14.244ZM37.9616 11.172C38.2976 11.172 38.5896 11.092 38.8376 10.932C39.0856 10.772 39.2776 10.536 39.4136 10.224C39.5496 9.912 39.6176 9.528 39.6176 9.072C39.6176 8.384 39.4656 7.864 39.1616 7.512C38.8656 7.16 38.4656 6.984 37.9616 6.984C37.6336 6.984 37.3416 7.064 37.0856 7.224C36.8376 7.376 36.6456 7.608 36.5096 7.92C36.3736 8.232 36.3056 8.616 36.3056 9.072C36.3056 9.752 36.4576 10.272 36.7616 10.632C37.0656 10.992 37.4656 11.172 37.9616 11.172ZM44.6449 12.108C44.1649 12.108 43.7609 12.024 43.4329 11.856C43.1049 11.688 42.8609 11.44 42.7009 11.112C42.5409 10.784 42.4609 10.384 42.4609 9.912V7.08H41.7409C41.5809 7.08 41.4569 7.04 41.3689 6.96C41.2809 6.872 41.2369 6.756 41.2369 6.612C41.2369 6.46 41.2809 6.344 41.3689 6.264C41.4569 6.184 41.5809 6.144 41.7409 6.144H42.4609V4.908C42.4609 4.708 42.5129 4.556 42.6169 4.452C42.7289 4.348 42.8809 4.296 43.0729 4.296C43.2649 4.296 43.4129 4.348 43.5169 4.452C43.6209 4.556 43.6729 4.708 43.6729 4.908V6.144H45.0769C45.2369 6.144 45.3609 6.184 45.4489 6.264C45.5369 6.344 45.5809 6.46 45.5809 6.612C45.5809 6.756 45.5369 6.872 45.4489 6.96C45.3609 7.04 45.2369 7.08 45.0769 7.08H43.6729V9.816C43.6729 10.24 43.7609 10.56 43.9369 10.776C44.1209 10.992 44.4169 11.1 44.8249 11.1C44.9689 11.1 45.0929 11.088 45.1969 11.064C45.3089 11.032 45.4009 11.012 45.4729 11.004C45.5609 11.004 45.6329 11.036 45.6889 11.1C45.7449 11.156 45.7729 11.268 45.7729 11.436C45.7729 11.556 45.7489 11.668 45.7009 11.772C45.6609 11.876 45.5849 11.944 45.4729 11.976C45.3769 12.008 45.2449 12.036 45.0769 12.06C44.9169 12.092 44.7729 12.108 44.6449 12.108ZM47.2372 12.072C47.0452 12.072 46.8972 12.016 46.7932 11.904C46.6892 11.784 46.6372 11.62 46.6372 11.412V6.732C46.6372 6.524 46.6892 6.364 46.7932 6.252C46.8972 6.14 47.0452 6.084 47.2372 6.084C47.4292 6.084 47.5772 6.14 47.6812 6.252C47.7932 6.364 47.8492 6.524 47.8492 6.732V11.412C47.8492 11.62 47.7972 11.784 47.6932 11.904C47.5892 12.016 47.4372 12.072 47.2372 12.072ZM47.2372 4.836C46.9972 4.836 46.8092 4.776 46.6732 4.656C46.5452 4.536 46.4812 4.368 46.4812 4.152C46.4812 3.928 46.5452 3.76 46.6732 3.648C46.8092 3.528 46.9972 3.468 47.2372 3.468C47.4772 3.468 47.6612 3.528 47.7892 3.648C47.9252 3.76 47.9932 3.928 47.9932 4.152C47.9932 4.368 47.9252 4.536 47.7892 4.656C47.6612 4.776 47.4772 4.836 47.2372 4.836ZM52.0991 12.108C51.5071 12.108 50.9951 11.984 50.5631 11.736C50.1391 11.488 49.8071 11.136 49.5671 10.68C49.3271 10.224 49.2071 9.688 49.2071 9.072C49.2071 8.6 49.2751 8.18 49.4111 7.812C49.5471 7.444 49.7391 7.128 49.9871 6.864C50.2431 6.592 50.5471 6.388 50.8991 6.252C51.2591 6.108 51.6591 6.036 52.0991 6.036C52.6831 6.036 53.1871 6.16 53.6111 6.408C54.0431 6.656 54.3791 7.008 54.6191 7.464C54.8591 7.912 54.9791 8.448 54.9791 9.072C54.9791 9.536 54.9111 9.956 54.7751 10.332C54.6391 10.708 54.4431 11.028 54.1871 11.292C53.9391 11.556 53.6351 11.76 53.2751 11.904C52.9231 12.04 52.5311 12.108 52.0991 12.108ZM52.0991 11.172C52.4271 11.172 52.7151 11.092 52.9631 10.932C53.2111 10.772 53.4031 10.536 53.5391 10.224C53.6831 9.912 53.7551 9.528 53.7551 9.072C53.7551 8.384 53.6031 7.864 53.2991 7.512C52.9951 7.16 52.5951 6.984 52.0991 6.984C51.7631 6.984 51.4711 7.064 51.2231 7.224C50.9751 7.376 50.7791 7.608 50.6351 7.92C50.4991 8.232 50.4311 8.616 50.4311 9.072C50.4311 9.752 50.5831 10.272 50.8871 10.632C51.1911 10.992 51.5951 11.172 52.0991 11.172ZM56.9403 12.084C56.7483 12.084 56.6003 12.032 56.4963 11.928C56.3923 11.816 56.3403 11.664 56.3403 11.472V6.672C56.3403 6.472 56.3923 6.32 56.4963 6.216C56.6003 6.112 56.7443 6.06 56.9283 6.06C57.1203 6.06 57.2643 6.112 57.3603 6.216C57.4643 6.32 57.5163 6.472 57.5163 6.672V7.608L57.3843 7.392C57.5603 6.944 57.8363 6.608 58.2123 6.384C58.5883 6.152 59.0203 6.036 59.5083 6.036C59.9723 6.036 60.3563 6.124 60.6603 6.3C60.9723 6.468 61.2043 6.728 61.3563 7.08C61.5083 7.424 61.5843 7.86 61.5843 8.388V11.472C61.5843 11.664 61.5323 11.816 61.4283 11.928C61.3243 12.032 61.1763 12.084 60.9843 12.084C60.7843 12.084 60.6323 12.032 60.5283 11.928C60.4243 11.816 60.3723 11.664 60.3723 11.472V8.46C60.3723 7.956 60.2723 7.588 60.0723 7.356C59.8803 7.124 59.5763 7.008 59.1603 7.008C58.6723 7.008 58.2803 7.16 57.9843 7.464C57.6963 7.768 57.5523 8.176 57.5523 8.688V11.472C57.5523 11.88 57.3483 12.084 56.9403 12.084Z" fill="#64728C"/>
<rect x="0.5" y="21.5" width="409" height="119" rx="11.5" fill="white"/>
<rect x="0.5" y="21.5" width="409" height="119" rx="11.5" stroke="#E8EAEF"/>
<path d="M11.612 41.084C11.46 41.084 11.34 41.04 11.252 40.952C11.164 40.856 11.12 40.728 11.12 40.568V33.392H8.42C8.276 33.392 8.164 33.352 8.084 33.272C8.004 33.192 7.964 33.088 7.964 32.96C7.964 32.824 8.004 32.72 8.084 32.648C8.164 32.576 8.276 32.54 8.42 32.54H14.816C14.96 32.54 15.072 32.576 15.152 32.648C15.232 32.72 15.272 32.824 15.272 32.96C15.272 33.096 15.232 33.204 15.152 33.284C15.072 33.356 14.96 33.392 14.816 33.392H12.116V40.568C12.116 40.728 12.072 40.856 11.984 40.952C11.904 41.04 11.78 41.084 11.612 41.084ZM16.5596 43.244C16.4396 43.244 16.3436 43.212 16.2716 43.148C16.1996 43.084 16.1556 42.996 16.1396 42.884C16.1316 42.78 16.1516 42.672 16.1996 42.56L17.0276 40.7V41.12L14.7236 35.768C14.6756 35.648 14.6596 35.536 14.6756 35.432C14.6916 35.328 14.7396 35.244 14.8196 35.18C14.8996 35.116 15.0116 35.084 15.1556 35.084C15.2836 35.084 15.3836 35.112 15.4556 35.168C15.5276 35.224 15.5916 35.324 15.6476 35.468L17.6156 40.292H17.2916L19.2836 35.468C19.3476 35.324 19.4156 35.224 19.4876 35.168C19.5596 35.112 19.6636 35.084 19.7996 35.084C19.9276 35.084 20.0236 35.116 20.0876 35.18C20.1596 35.244 20.1996 35.328 20.2076 35.432C20.2236 35.528 20.2076 35.636 20.1596 35.756L17.0876 42.86C17.0236 43.004 16.9516 43.104 16.8716 43.16C16.7996 43.216 16.6956 43.244 16.5596 43.244ZM21.9076 43.244C21.7476 43.244 21.6276 43.2 21.5476 43.112C21.4676 43.032 21.4276 42.912 21.4276 42.752V35.576C21.4276 35.416 21.4676 35.296 21.5476 35.216C21.6276 35.128 21.7436 35.084 21.8956 35.084C22.0556 35.084 22.1756 35.128 22.2556 35.216C22.3436 35.296 22.3876 35.416 22.3876 35.576V36.716L22.2556 36.548C22.3836 36.092 22.6356 35.732 23.0116 35.468C23.3956 35.196 23.8516 35.06 24.3796 35.06C24.8996 35.06 25.3516 35.184 25.7356 35.432C26.1276 35.672 26.4276 36.02 26.6356 36.476C26.8516 36.924 26.9596 37.46 26.9596 38.084C26.9596 38.7 26.8516 39.236 26.6356 39.692C26.4276 40.14 26.1316 40.488 25.7476 40.736C25.3636 40.984 24.9076 41.108 24.3796 41.108C23.8516 41.108 23.3996 40.976 23.0236 40.712C22.6476 40.44 22.3916 40.08 22.2556 39.632H22.3996V42.752C22.3996 42.912 22.3556 43.032 22.2676 43.112C22.1796 43.2 22.0596 43.244 21.9076 43.244ZM24.1756 40.328C24.5436 40.328 24.8596 40.24 25.1236 40.064C25.3956 39.888 25.6036 39.632 25.7476 39.296C25.8996 38.96 25.9756 38.556 25.9756 38.084C25.9756 37.356 25.8116 36.8 25.4836 36.416C25.1636 36.032 24.7276 35.84 24.1756 35.84C23.8156 35.84 23.4996 35.928 23.2276 36.104C22.9556 36.272 22.7436 36.524 22.5916 36.86C22.4476 37.188 22.3756 37.596 22.3756 38.084C22.3756 38.804 22.5396 39.36 22.8676 39.752C23.1956 40.136 23.6316 40.328 24.1756 40.328ZM31.0517 41.108C30.4357 41.108 29.9037 40.988 29.4557 40.748C29.0157 40.5 28.6717 40.152 28.4237 39.704C28.1837 39.256 28.0637 38.72 28.0637 38.096C28.0637 37.488 28.1837 36.96 28.4237 36.512C28.6637 36.056 28.9917 35.7 29.4077 35.444C29.8317 35.188 30.3197 35.06 30.8717 35.06C31.2637 35.06 31.6157 35.128 31.9277 35.264C32.2397 35.392 32.5037 35.58 32.7197 35.828C32.9437 36.076 33.1117 36.376 33.2237 36.728C33.3437 37.08 33.4037 37.476 33.4037 37.916C33.4037 38.044 33.3677 38.14 33.2957 38.204C33.2237 38.26 33.1197 38.288 32.9837 38.288H28.8077V37.652H32.7557L32.5637 37.808C32.5637 37.376 32.4997 37.012 32.3717 36.716C32.2437 36.412 32.0557 36.18 31.8077 36.02C31.5677 35.86 31.2637 35.78 30.8957 35.78C30.4877 35.78 30.1397 35.876 29.8517 36.068C29.5717 36.252 29.3597 36.512 29.2157 36.848C29.0717 37.176 28.9997 37.56 28.9997 38V38.072C28.9997 38.808 29.1757 39.368 29.5277 39.752C29.8877 40.136 30.3957 40.328 31.0517 40.328C31.3237 40.328 31.5917 40.292 31.8557 40.22C32.1277 40.148 32.3917 40.028 32.6477 39.86C32.7597 39.788 32.8597 39.756 32.9477 39.764C33.0437 39.764 33.1197 39.792 33.1757 39.848C33.2317 39.896 33.2677 39.96 33.2837 40.04C33.3077 40.112 33.2997 40.192 33.2597 40.28C33.2277 40.368 33.1597 40.444 33.0557 40.508C32.7917 40.7 32.4797 40.848 32.1197 40.952C31.7597 41.056 31.4037 41.108 31.0517 41.108ZM38.3842 43.244C38.2242 43.244 38.1042 43.2 38.0242 43.112C37.9442 43.032 37.9042 42.912 37.9042 42.752V35.576C37.9042 35.416 37.9442 35.296 38.0242 35.216C38.1042 35.128 38.2202 35.084 38.3722 35.084C38.5322 35.084 38.6522 35.128 38.7322 35.216C38.8202 35.296 38.8642 35.416 38.8642 35.576V36.716L38.7322 36.548C38.8602 36.092 39.1122 35.732 39.4882 35.468C39.8722 35.196 40.3282 35.06 40.8562 35.06C41.3762 35.06 41.8282 35.184 42.2122 35.432C42.6042 35.672 42.9042 36.02 43.1122 36.476C43.3282 36.924 43.4362 37.46 43.4362 38.084C43.4362 38.7 43.3282 39.236 43.1122 39.692C42.9042 40.14 42.6082 40.488 42.2242 40.736C41.8402 40.984 41.3842 41.108 40.8562 41.108C40.3282 41.108 39.8762 40.976 39.5002 40.712C39.1242 40.44 38.8682 40.08 38.7322 39.632H38.8762V42.752C38.8762 42.912 38.8322 43.032 38.7442 43.112C38.6562 43.2 38.5362 43.244 38.3842 43.244ZM40.6522 40.328C41.0202 40.328 41.3362 40.24 41.6002 40.064C41.8722 39.888 42.0802 39.632 42.2242 39.296C42.3762 38.96 42.4522 38.556 42.4522 38.084C42.4522 37.356 42.2882 36.8 41.9602 36.416C41.6402 36.032 41.2042 35.84 40.6522 35.84C40.2922 35.84 39.9762 35.928 39.7042 36.104C39.4322 36.272 39.2202 36.524 39.0682 36.86C38.9242 37.188 38.8522 37.596 38.8522 38.084C38.8522 38.804 39.0162 39.36 39.3442 39.752C39.6722 40.136 40.1082 40.328 40.6522 40.328ZM45.3923 41.084C45.2323 41.084 45.1083 41.04 45.0203 40.952C44.9403 40.864 44.9003 40.74 44.9003 40.58V35.576C44.9003 35.416 44.9403 35.296 45.0203 35.216C45.1003 35.128 45.2163 35.084 45.3683 35.084C45.5203 35.084 45.6363 35.128 45.7163 35.216C45.8043 35.296 45.8483 35.416 45.8483 35.576V36.548H45.7283C45.8563 36.076 46.1003 35.712 46.4603 35.456C46.8203 35.2 47.2643 35.064 47.7923 35.048C47.9123 35.04 48.0083 35.068 48.0803 35.132C48.1523 35.188 48.1923 35.288 48.2003 35.432C48.2083 35.568 48.1763 35.676 48.1043 35.756C48.0323 35.836 47.9203 35.884 47.7683 35.9L47.5763 35.924C47.0323 35.972 46.6123 36.148 46.3163 36.452C46.0283 36.748 45.8843 37.156 45.8843 37.676V40.58C45.8843 40.74 45.8403 40.864 45.7523 40.952C45.6723 41.04 45.5523 41.084 45.3923 41.084ZM51.5548 41.108C50.9868 41.108 50.4948 40.984 50.0788 40.736C49.6628 40.488 49.3388 40.14 49.1068 39.692C48.8828 39.236 48.7708 38.7 48.7708 38.084C48.7708 37.62 48.8348 37.204 48.9628 36.836C49.0908 36.46 49.2788 36.14 49.5268 35.876C49.7748 35.612 50.0668 35.412 50.4028 35.276C50.7468 35.132 51.1308 35.06 51.5548 35.06C52.1228 35.06 52.6148 35.184 53.0308 35.432C53.4468 35.68 53.7668 36.032 53.9908 36.488C54.2228 36.936 54.3388 37.468 54.3388 38.084C54.3388 38.548 54.2748 38.964 54.1468 39.332C54.0188 39.7 53.8308 40.02 53.5828 40.292C53.3348 40.556 53.0388 40.76 52.6948 40.904C52.3588 41.04 51.9788 41.108 51.5548 41.108ZM51.5548 40.328C51.9148 40.328 52.2308 40.24 52.5028 40.064C52.7748 39.888 52.9828 39.632 53.1268 39.296C53.2788 38.96 53.3548 38.556 53.3548 38.084C53.3548 37.356 53.1908 36.8 52.8628 36.416C52.5428 36.032 52.1068 35.84 51.5548 35.84C51.1868 35.84 50.8668 35.928 50.5948 36.104C50.3308 36.272 50.1228 36.524 49.9708 36.86C49.8268 37.188 49.7548 37.596 49.7548 38.084C49.7548 38.804 49.9188 39.36 50.2468 39.752C50.5748 40.136 51.0108 40.328 51.5548 40.328ZM54.6827 43.292C54.5627 43.3 54.4667 43.28 54.3947 43.232C54.3147 43.184 54.2627 43.12 54.2387 43.04C54.2067 42.968 54.1987 42.892 54.2147 42.812C54.2227 42.74 54.2547 42.676 54.3107 42.62C54.3667 42.564 54.4427 42.536 54.5387 42.536C54.9787 42.512 55.3027 42.392 55.5107 42.176C55.7267 41.968 55.8347 41.636 55.8347 41.18V35.576C55.8347 35.416 55.8747 35.296 55.9547 35.216C56.0427 35.128 56.1667 35.084 56.3267 35.084C56.4787 35.084 56.5947 35.128 56.6747 35.216C56.7627 35.296 56.8067 35.416 56.8067 35.576V41.108C56.8067 41.596 56.7227 41.996 56.5547 42.308C56.3947 42.628 56.1587 42.864 55.8467 43.016C55.5347 43.176 55.1467 43.268 54.6827 43.292ZM56.3147 33.764C56.1147 33.764 55.9587 33.712 55.8467 33.608C55.7347 33.496 55.6787 33.348 55.6787 33.164C55.6787 32.972 55.7347 32.828 55.8467 32.732C55.9587 32.628 56.1147 32.576 56.3147 32.576C56.5227 32.576 56.6827 32.628 56.7947 32.732C56.9067 32.828 56.9627 32.972 56.9627 33.164C56.9627 33.348 56.9067 33.496 56.7947 33.608C56.6827 33.712 56.5227 33.764 56.3147 33.764ZM61.2627 41.108C60.6467 41.108 60.1147 40.988 59.6667 40.748C59.2267 40.5 58.8827 40.152 58.6347 39.704C58.3947 39.256 58.2747 38.72 58.2747 38.096C58.2747 37.488 58.3947 36.96 58.6347 36.512C58.8747 36.056 59.2027 35.7 59.6187 35.444C60.0427 35.188 60.5307 35.06 61.0827 35.06C61.4747 35.06 61.8267 35.128 62.1387 35.264C62.4507 35.392 62.7147 35.58 62.9307 35.828C63.1547 36.076 63.3227 36.376 63.4347 36.728C63.5547 37.08 63.6147 37.476 63.6147 37.916C63.6147 38.044 63.5787 38.14 63.5067 38.204C63.4347 38.26 63.3307 38.288 63.1947 38.288H59.0187V37.652H62.9667L62.7747 37.808C62.7747 37.376 62.7107 37.012 62.5827 36.716C62.4547 36.412 62.2667 36.18 62.0187 36.02C61.7787 35.86 61.4747 35.78 61.1067 35.78C60.6987 35.78 60.3507 35.876 60.0627 36.068C59.7827 36.252 59.5707 36.512 59.4267 36.848C59.2827 37.176 59.2107 37.56 59.2107 38V38.072C59.2107 38.808 59.3867 39.368 59.7387 39.752C60.0987 40.136 60.6067 40.328 61.2627 40.328C61.5347 40.328 61.8027 40.292 62.0667 40.22C62.3387 40.148 62.6027 40.028 62.8587 39.86C62.9707 39.788 63.0707 39.756 63.1587 39.764C63.2547 39.764 63.3307 39.792 63.3867 39.848C63.4427 39.896 63.4787 39.96 63.4947 40.04C63.5187 40.112 63.5107 40.192 63.4707 40.28C63.4387 40.368 63.3707 40.444 63.2667 40.508C63.0027 40.7 62.6907 40.848 62.3307 40.952C61.9707 41.056 61.6147 41.108 61.2627 41.108ZM67.4934 41.108C66.9094 41.108 66.4054 40.98 65.9814 40.724C65.5574 40.468 65.2294 40.112 64.9974 39.656C64.7734 39.192 64.6614 38.656 64.6614 38.048C64.6614 37.584 64.7254 37.168 64.8534 36.8C64.9814 36.432 65.1694 36.12 65.4174 35.864C65.6654 35.6 65.9614 35.4 66.3054 35.264C66.6574 35.128 67.0534 35.06 67.4934 35.06C67.7814 35.06 68.0814 35.104 68.3934 35.192C68.7054 35.28 68.9894 35.432 69.2454 35.648C69.3254 35.704 69.3774 35.772 69.4014 35.852C69.4254 35.932 69.4254 36.012 69.4014 36.092C69.3774 36.164 69.3374 36.228 69.2814 36.284C69.2254 36.332 69.1534 36.36 69.0654 36.368C68.9854 36.376 68.9014 36.348 68.8134 36.284C68.6054 36.124 68.3934 36.012 68.1774 35.948C67.9614 35.884 67.7534 35.852 67.5534 35.852C67.2414 35.852 66.9694 35.904 66.7374 36.008C66.5054 36.104 66.3094 36.244 66.1494 36.428C65.9894 36.612 65.8654 36.84 65.7774 37.112C65.6974 37.384 65.6574 37.7 65.6574 38.06C65.6574 38.756 65.8214 39.308 66.1494 39.716C66.4774 40.116 66.9454 40.316 67.5534 40.316C67.7534 40.316 67.9574 40.284 68.1654 40.22C68.3814 40.156 68.5974 40.044 68.8134 39.884C68.9014 39.82 68.9854 39.792 69.0654 39.8C69.1454 39.808 69.2134 39.84 69.2694 39.896C69.3254 39.944 69.3614 40.008 69.3774 40.088C69.4014 40.168 69.4014 40.248 69.3774 40.328C69.3534 40.4 69.3014 40.464 69.2214 40.52C68.9654 40.728 68.6854 40.88 68.3814 40.976C68.0774 41.064 67.7814 41.108 67.4934 41.108ZM72.9161 41.108C72.4601 41.108 72.0761 41.028 71.7641 40.868C71.4601 40.7 71.2321 40.46 71.0801 40.148C70.9281 39.828 70.8521 39.44 70.8521 38.984V35.924H70.0481C69.9121 35.924 69.8081 35.892 69.7361 35.828C69.6641 35.756 69.6281 35.66 69.6281 35.54C69.6281 35.42 69.6641 35.328 69.7361 35.264C69.8081 35.2 69.9121 35.168 70.0481 35.168H70.8521V33.788C70.8521 33.628 70.8961 33.508 70.9841 33.428C71.0721 33.34 71.1921 33.296 71.3441 33.296C71.4961 33.296 71.6121 33.34 71.6921 33.428C71.7801 33.508 71.8241 33.628 71.8241 33.788V35.168H73.3361C73.4721 35.168 73.5761 35.2 73.6481 35.264C73.7201 35.328 73.7561 35.42 73.7561 35.54C73.7561 35.66 73.7201 35.756 73.6481 35.828C73.5761 35.892 73.4721 35.924 73.3361 35.924H71.8241V38.888C71.8241 39.344 71.9201 39.692 72.1121 39.932C72.3041 40.164 72.6161 40.28 73.0481 40.28C73.2001 40.28 73.3281 40.264 73.4321 40.232C73.5441 40.2 73.6361 40.184 73.7081 40.184C73.7801 40.176 73.8401 40.2 73.8881 40.256C73.9361 40.312 73.9601 40.408 73.9601 40.544C73.9601 40.64 73.9401 40.728 73.9001 40.808C73.8681 40.888 73.8081 40.944 73.7201 40.976C73.6241 41.008 73.4961 41.036 73.3361 41.06C73.1841 41.092 73.0441 41.108 72.9161 41.108ZM80.0851 41.108C79.5651 41.108 79.1091 40.984 78.7171 40.736C78.3331 40.488 78.0331 40.14 77.8171 39.692C77.6091 39.236 77.5051 38.7 77.5051 38.084C77.5051 37.46 77.6091 36.924 77.8171 36.476C78.0331 36.02 78.3331 35.672 78.7171 35.432C79.1091 35.184 79.5651 35.06 80.0851 35.06C80.6131 35.06 81.0651 35.192 81.4411 35.456C81.8171 35.72 82.0691 36.076 82.1971 36.524H82.0651V32.948C82.0651 32.788 82.1051 32.668 82.1851 32.588C82.2731 32.5 82.3971 32.456 82.5571 32.456C82.7091 32.456 82.8251 32.5 82.9051 32.588C82.9931 32.668 83.0371 32.788 83.0371 32.948V40.58C83.0371 40.74 82.9971 40.864 82.9171 40.952C82.8371 41.04 82.7171 41.084 82.5571 41.084C82.4051 41.084 82.2851 41.04 82.1971 40.952C82.1171 40.864 82.0771 40.74 82.0771 40.58V39.44L82.2091 39.608C82.0811 40.064 81.8251 40.428 81.4411 40.7C81.0651 40.972 80.6131 41.108 80.0851 41.108ZM80.2891 40.328C80.6491 40.328 80.9651 40.24 81.2371 40.064C81.5091 39.888 81.7171 39.632 81.8611 39.296C82.0131 38.96 82.0891 38.556 82.0891 38.084C82.0891 37.356 81.9251 36.8 81.5971 36.416C81.2771 36.032 80.8411 35.84 80.2891 35.84C79.9211 35.84 79.6011 35.928 79.3291 36.104C79.0651 36.272 78.8571 36.524 78.7051 36.86C78.5611 37.188 78.4891 37.596 78.4891 38.084C78.4891 38.804 78.6531 39.36 78.9811 39.752C79.3091 40.136 79.7451 40.328 80.2891 40.328ZM87.4892 41.108C86.8732 41.108 86.3412 40.988 85.8932 40.748C85.4532 40.5 85.1092 40.152 84.8612 39.704C84.6212 39.256 84.5012 38.72 84.5012 38.096C84.5012 37.488 84.6212 36.96 84.8612 36.512C85.1012 36.056 85.4292 35.7 85.8452 35.444C86.2692 35.188 86.7572 35.06 87.3092 35.06C87.7012 35.06 88.0532 35.128 88.3652 35.264C88.6772 35.392 88.9412 35.58 89.1572 35.828C89.3812 36.076 89.5492 36.376 89.6612 36.728C89.7812 37.08 89.8412 37.476 89.8412 37.916C89.8412 38.044 89.8052 38.14 89.7332 38.204C89.6612 38.26 89.5572 38.288 89.4212 38.288H85.2452V37.652H89.1932L89.0012 37.808C89.0012 37.376 88.9372 37.012 88.8092 36.716C88.6812 36.412 88.4932 36.18 88.2452 36.02C88.0052 35.86 87.7012 35.78 87.3332 35.78C86.9252 35.78 86.5772 35.876 86.2892 36.068C86.0092 36.252 85.7972 36.512 85.6532 36.848C85.5092 37.176 85.4372 37.56 85.4372 38V38.072C85.4372 38.808 85.6132 39.368 85.9652 39.752C86.3252 40.136 86.8332 40.328 87.4892 40.328C87.7612 40.328 88.0292 40.292 88.2932 40.22C88.5652 40.148 88.8292 40.028 89.0852 39.86C89.1972 39.788 89.2972 39.756 89.3852 39.764C89.4812 39.764 89.5572 39.792 89.6132 39.848C89.6692 39.896 89.7052 39.96 89.7212 40.04C89.7452 40.112 89.7372 40.192 89.6972 40.28C89.6652 40.368 89.5972 40.444 89.4932 40.508C89.2292 40.7 88.9172 40.848 88.5572 40.952C88.1972 41.056 87.8412 41.108 87.4892 41.108ZM93.2159 41.108C92.8559 41.108 92.4919 41.064 92.1239 40.976C91.7639 40.888 91.4279 40.736 91.1159 40.52C91.0359 40.464 90.9799 40.4 90.9479 40.328C90.9159 40.248 90.9039 40.172 90.9119 40.1C90.9279 40.02 90.9599 39.952 91.0079 39.896C91.0639 39.84 91.1279 39.808 91.1999 39.8C91.2799 39.784 91.3679 39.8 91.4639 39.848C91.7759 40.04 92.0759 40.176 92.3639 40.256C92.6599 40.328 92.9519 40.364 93.2399 40.364C93.6959 40.364 94.0399 40.28 94.2719 40.112C94.5039 39.944 94.6199 39.716 94.6199 39.428C94.6199 39.204 94.5439 39.028 94.3919 38.9C94.2399 38.764 93.9999 38.66 93.6719 38.588L92.5799 38.348C92.0759 38.244 91.6999 38.064 91.4519 37.808C91.2119 37.552 91.0919 37.22 91.0919 36.812C91.0919 36.452 91.1839 36.144 91.3679 35.888C91.5599 35.624 91.8279 35.42 92.1719 35.276C92.5159 35.132 92.9159 35.06 93.3719 35.06C93.7239 35.06 94.0559 35.108 94.3679 35.204C94.6879 35.292 94.9759 35.436 95.2319 35.636C95.3119 35.692 95.3639 35.76 95.3879 35.84C95.4199 35.912 95.4239 35.988 95.3999 36.068C95.3839 36.14 95.3479 36.204 95.2919 36.26C95.2359 36.308 95.1679 36.336 95.0879 36.344C95.0079 36.352 94.9239 36.328 94.8359 36.272C94.5959 36.112 94.3519 35.996 94.1039 35.924C93.8559 35.844 93.6119 35.804 93.3719 35.804C92.9239 35.804 92.5839 35.892 92.3519 36.068C92.1199 36.244 92.0039 36.476 92.0039 36.764C92.0039 36.988 92.0759 37.172 92.2199 37.316C92.3639 37.46 92.5879 37.564 92.8919 37.628L93.9839 37.856C94.5039 37.968 94.8919 38.148 95.1479 38.396C95.4119 38.636 95.5439 38.964 95.5439 39.38C95.5439 39.908 95.3319 40.328 94.9079 40.64C94.4839 40.952 93.9199 41.108 93.2159 41.108ZM99.4973 41.108C98.9133 41.108 98.4093 40.98 97.9853 40.724C97.5613 40.468 97.2333 40.112 97.0013 39.656C96.7773 39.192 96.6653 38.656 96.6653 38.048C96.6653 37.584 96.7293 37.168 96.8573 36.8C96.9853 36.432 97.1733 36.12 97.4213 35.864C97.6693 35.6 97.9653 35.4 98.3093 35.264C98.6613 35.128 99.0573 35.06 99.4973 35.06C99.7853 35.06 100.085 35.104 100.397 35.192C100.709 35.28 100.993 35.432 101.249 35.648C101.329 35.704 101.381 35.772 101.405 35.852C101.429 35.932 101.429 36.012 101.405 36.092C101.381 36.164 101.341 36.228 101.285 36.284C101.229 36.332 101.157 36.36 101.069 36.368C100.989 36.376 100.905 36.348 100.817 36.284C100.609 36.124 100.397 36.012 100.181 35.948C99.9653 35.884 99.7573 35.852 99.5573 35.852C99.2453 35.852 98.9733 35.904 98.7413 36.008C98.5093 36.104 98.3133 36.244 98.1533 36.428C97.9933 36.612 97.8693 36.84 97.7813 37.112C97.7013 37.384 97.6613 37.7 97.6613 38.06C97.6613 38.756 97.8253 39.308 98.1533 39.716C98.4813 40.116 98.9493 40.316 99.5573 40.316C99.7573 40.316 99.9613 40.284 100.169 40.22C100.385 40.156 100.601 40.044 100.817 39.884C100.905 39.82 100.989 39.792 101.069 39.8C101.149 39.808 101.217 39.84 101.273 39.896C101.329 39.944 101.365 40.008 101.381 40.088C101.405 40.168 101.405 40.248 101.381 40.328C101.357 40.4 101.305 40.464 101.225 40.52C100.969 40.728 100.689 40.88 100.385 40.976C100.081 41.064 99.7853 41.108 99.4973 41.108ZM103.072 41.084C102.912 41.084 102.788 41.04 102.7 40.952C102.62 40.864 102.58 40.74 102.58 40.58V35.576C102.58 35.416 102.62 35.296 102.7 35.216C102.78 35.128 102.896 35.084 103.048 35.084C103.2 35.084 103.316 35.128 103.396 35.216C103.484 35.296 103.528 35.416 103.528 35.576V36.548H103.408C103.536 36.076 103.78 35.712 104.14 35.456C104.5 35.2 104.944 35.064 105.472 35.048C105.592 35.04 105.688 35.068 105.76 35.132C105.832 35.188 105.872 35.288 105.88 35.432C105.888 35.568 105.856 35.676 105.784 35.756C105.712 35.836 105.6 35.884 105.448 35.9L105.256 35.924C104.712 35.972 104.292 36.148 103.996 36.452C103.708 36.748 103.564 37.156 103.564 37.676V40.58C103.564 40.74 103.52 40.864 103.432 40.952C103.352 41.04 103.232 41.084 103.072 41.084ZM107.361 41.06C107.201 41.06 107.081 41.016 107.001 40.928C106.921 40.832 106.881 40.7 106.881 40.532V35.624C106.881 35.456 106.921 35.328 107.001 35.24C107.081 35.152 107.201 35.108 107.361 35.108C107.513 35.108 107.633 35.152 107.721 35.24C107.809 35.328 107.853 35.456 107.853 35.624V40.532C107.853 40.7 107.809 40.832 107.721 40.928C107.641 41.016 107.521 41.06 107.361 41.06ZM107.361 33.764C107.161 33.764 107.005 33.712 106.893 33.608C106.781 33.496 106.725 33.348 106.725 33.164C106.725 32.972 106.781 32.828 106.893 32.732C107.005 32.628 107.161 32.576 107.361 32.576C107.569 32.576 107.725 32.628 107.829 32.732C107.941 32.828 107.997 32.972 107.997 33.164C107.997 33.348 107.941 33.496 107.829 33.608C107.725 33.712 107.569 33.764 107.361 33.764ZM110.15 43.244C109.99 43.244 109.87 43.2 109.79 43.112C109.71 43.032 109.67 42.912 109.67 42.752V35.576C109.67 35.416 109.71 35.296 109.79 35.216C109.87 35.128 109.986 35.084 110.138 35.084C110.298 35.084 110.418 35.128 110.498 35.216C110.586 35.296 110.63 35.416 110.63 35.576V36.716L110.498 36.548C110.626 36.092 110.878 35.732 111.254 35.468C111.638 35.196 112.094 35.06 112.622 35.06C113.142 35.06 113.594 35.184 113.978 35.432C114.37 35.672 114.67 36.02 114.878 36.476C115.094 36.924 115.202 37.46 115.202 38.084C115.202 38.7 115.094 39.236 114.878 39.692C114.67 40.14 114.374 40.488 113.99 40.736C113.606 40.984 113.15 41.108 112.622 41.108C112.094 41.108 111.642 40.976 111.266 40.712C110.89 40.44 110.634 40.08 110.498 39.632H110.642V42.752C110.642 42.912 110.598 43.032 110.51 43.112C110.422 43.2 110.302 43.244 110.15 43.244ZM112.418 40.328C112.786 40.328 113.102 40.24 113.366 40.064C113.638 39.888 113.846 39.632 113.99 39.296C114.142 38.96 114.218 38.556 114.218 38.084C114.218 37.356 114.054 36.8 113.726 36.416C113.406 36.032 112.97 35.84 112.418 35.84C112.058 35.84 111.742 35.928 111.47 36.104C111.198 36.272 110.986 36.524 110.834 36.86C110.69 37.188 110.618 37.596 110.618 38.084C110.618 38.804 110.782 39.36 111.11 39.752C111.438 40.136 111.874 40.328 112.418 40.328ZM118.947 41.108C118.491 41.108 118.107 41.028 117.795 40.868C117.491 40.7 117.263 40.46 117.111 40.148C116.959 39.828 116.883 39.44 116.883 38.984V35.924H116.079C115.943 35.924 115.839 35.892 115.767 35.828C115.695 35.756 115.659 35.66 115.659 35.54C115.659 35.42 115.695 35.328 115.767 35.264C115.839 35.2 115.943 35.168 116.079 35.168H116.883V33.788C116.883 33.628 116.927 33.508 117.015 33.428C117.103 33.34 117.223 33.296 117.375 33.296C117.527 33.296 117.643 33.34 117.723 33.428C117.811 33.508 117.855 33.628 117.855 33.788V35.168H119.367C119.503 35.168 119.607 35.2 119.679 35.264C119.751 35.328 119.787 35.42 119.787 35.54C119.787 35.66 119.751 35.756 119.679 35.828C119.607 35.892 119.503 35.924 119.367 35.924H117.855V38.888C117.855 39.344 117.951 39.692 118.143 39.932C118.335 40.164 118.647 40.28 119.079 40.28C119.231 40.28 119.359 40.264 119.463 40.232C119.575 40.2 119.667 40.184 119.739 40.184C119.811 40.176 119.871 40.2 119.919 40.256C119.967 40.312 119.991 40.408 119.991 40.544C119.991 40.64 119.971 40.728 119.931 40.808C119.899 40.888 119.839 40.944 119.751 40.976C119.655 41.008 119.527 41.036 119.367 41.06C119.215 41.092 119.075 41.108 118.947 41.108ZM121.353 41.06C121.193 41.06 121.073 41.016 120.993 40.928C120.913 40.832 120.873 40.7 120.873 40.532V35.624C120.873 35.456 120.913 35.328 120.993 35.24C121.073 35.152 121.193 35.108 121.353 35.108C121.505 35.108 121.625 35.152 121.713 35.24C121.801 35.328 121.845 35.456 121.845 35.624V40.532C121.845 40.7 121.801 40.832 121.713 40.928C121.633 41.016 121.513 41.06 121.353 41.06ZM121.353 33.764C121.153 33.764 120.997 33.712 120.885 33.608C120.773 33.496 120.717 33.348 120.717 33.164C120.717 32.972 120.773 32.828 120.885 32.732C120.997 32.628 121.153 32.576 121.353 32.576C121.561 32.576 121.717 32.628 121.821 32.732C121.933 32.828 121.989 32.972 121.989 33.164C121.989 33.348 121.933 33.496 121.821 33.608C121.717 33.712 121.561 33.764 121.353 33.764ZM126.086 41.108C125.518 41.108 125.026 40.984 124.61 40.736C124.194 40.488 123.87 40.14 123.638 39.692C123.414 39.236 123.302 38.7 123.302 38.084C123.302 37.62 123.366 37.204 123.494 36.836C123.622 36.46 123.81 36.14 124.058 35.876C124.306 35.612 124.598 35.412 124.934 35.276C125.278 35.132 125.662 35.06 126.086 35.06C126.654 35.06 127.146 35.184 127.562 35.432C127.978 35.68 128.298 36.032 128.522 36.488C128.754 36.936 128.87 37.468 128.87 38.084C128.87 38.548 128.806 38.964 128.678 39.332C128.55 39.7 128.362 40.02 128.114 40.292C127.866 40.556 127.57 40.76 127.226 40.904C126.89 41.04 126.51 41.108 126.086 41.108ZM126.086 40.328C126.446 40.328 126.762 40.24 127.034 40.064C127.306 39.888 127.514 39.632 127.658 39.296C127.81 38.96 127.886 38.556 127.886 38.084C127.886 37.356 127.722 36.8 127.394 36.416C127.074 36.032 126.638 35.84 126.086 35.84C125.718 35.84 125.398 35.928 125.126 36.104C124.862 36.272 124.654 36.524 124.502 36.86C124.358 37.188 124.286 37.596 124.286 38.084C124.286 38.804 124.45 39.36 124.778 39.752C125.106 40.136 125.542 40.328 126.086 40.328ZM130.81 41.084C130.65 41.084 130.53 41.04 130.45 40.952C130.37 40.864 130.33 40.74 130.33 40.58V35.576C130.33 35.416 130.37 35.296 130.45 35.216C130.53 35.128 130.646 35.084 130.798 35.084C130.95 35.084 131.066 35.128 131.146 35.216C131.234 35.296 131.278 35.416 131.278 35.576V36.608L131.146 36.464C131.314 36 131.586 35.652 131.962 35.42C132.346 35.18 132.786 35.06 133.282 35.06C133.746 35.06 134.13 35.144 134.434 35.312C134.746 35.48 134.978 35.736 135.13 36.08C135.282 36.416 135.358 36.844 135.358 37.364V40.58C135.358 40.74 135.314 40.864 135.226 40.952C135.146 41.04 135.03 41.084 134.878 41.084C134.718 41.084 134.594 41.04 134.506 40.952C134.426 40.864 134.386 40.74 134.386 40.58V37.424C134.386 36.88 134.278 36.484 134.062 36.236C133.854 35.98 133.518 35.852 133.054 35.852C132.518 35.852 132.09 36.02 131.77 36.356C131.458 36.684 131.302 37.124 131.302 37.676V40.58C131.302 40.916 131.138 41.084 130.81 41.084ZM140.724 41.084C140.564 41.084 140.444 41.04 140.364 40.952C140.284 40.864 140.244 40.74 140.244 40.58V32.948C140.244 32.788 140.284 32.668 140.364 32.588C140.444 32.5 140.564 32.456 140.724 32.456C140.876 32.456 140.996 32.5 141.084 32.588C141.172 32.668 141.216 32.788 141.216 32.948V36.464H141.06C141.228 36 141.5 35.652 141.876 35.42C142.26 35.18 142.7 35.06 143.196 35.06C143.66 35.06 144.044 35.144 144.348 35.312C144.66 35.48 144.892 35.736 145.044 36.08C145.196 36.416 145.272 36.844 145.272 37.364V40.58C145.272 40.74 145.228 40.864 145.14 40.952C145.06 41.04 144.944 41.084 144.792 41.084C144.632 41.084 144.508 41.04 144.42 40.952C144.34 40.864 144.3 40.74 144.3 40.58V37.424C144.3 36.88 144.192 36.484 143.976 36.236C143.768 35.98 143.432 35.852 142.968 35.852C142.432 35.852 142.004 36.02 141.684 36.356C141.372 36.684 141.216 37.124 141.216 37.676V40.58C141.216 40.916 141.052 41.084 140.724 41.084ZM149.692 41.108C149.076 41.108 148.544 40.988 148.096 40.748C147.656 40.5 147.312 40.152 147.064 39.704C146.824 39.256 146.704 38.72 146.704 38.096C146.704 37.488 146.824 36.96 147.064 36.512C147.304 36.056 147.632 35.7 148.048 35.444C148.472 35.188 148.96 35.06 149.512 35.06C149.904 35.06 150.256 35.128 150.568 35.264C150.88 35.392 151.144 35.58 151.36 35.828C151.584 36.076 151.752 36.376 151.864 36.728C151.984 37.08 152.044 37.476 152.044 37.916C152.044 38.044 152.008 38.14 151.936 38.204C151.864 38.26 151.76 38.288 151.624 38.288H147.448V37.652H151.396L151.204 37.808C151.204 37.376 151.14 37.012 151.012 36.716C150.884 36.412 150.696 36.18 150.448 36.02C150.208 35.86 149.904 35.78 149.536 35.78C149.128 35.78 148.78 35.876 148.492 36.068C148.212 36.252 148 36.512 147.856 36.848C147.712 37.176 147.64 37.56 147.64 38V38.072C147.64 38.808 147.816 39.368 148.168 39.752C148.528 40.136 149.036 40.328 149.692 40.328C149.964 40.328 150.232 40.292 150.496 40.22C150.768 40.148 151.032 40.028 151.288 39.86C151.4 39.788 151.5 39.756 151.588 39.764C151.684 39.764 151.76 39.792 151.816 39.848C151.872 39.896 151.908 39.96 151.924 40.04C151.948 40.112 151.94 40.192 151.9 40.28C151.868 40.368 151.8 40.444 151.696 40.508C151.432 40.7 151.12 40.848 150.76 40.952C150.4 41.056 150.044 41.108 149.692 41.108ZM153.943 41.084C153.783 41.084 153.659 41.04 153.571 40.952C153.491 40.864 153.451 40.74 153.451 40.58V35.576C153.451 35.416 153.491 35.296 153.571 35.216C153.651 35.128 153.767 35.084 153.919 35.084C154.071 35.084 154.187 35.128 154.267 35.216C154.355 35.296 154.399 35.416 154.399 35.576V36.548H154.279C154.407 36.076 154.651 35.712 155.011 35.456C155.371 35.2 155.815 35.064 156.343 35.048C156.463 35.04 156.559 35.068 156.631 35.132C156.703 35.188 156.743 35.288 156.751 35.432C156.759 35.568 156.727 35.676 156.655 35.756C156.583 35.836 156.471 35.884 156.319 35.9L156.127 35.924C155.583 35.972 155.163 36.148 154.867 36.452C154.579 36.748 154.435 37.156 154.435 37.676V40.58C154.435 40.74 154.391 40.864 154.303 40.952C154.223 41.04 154.103 41.084 153.943 41.084ZM160.31 41.108C159.694 41.108 159.162 40.988 158.714 40.748C158.274 40.5 157.93 40.152 157.682 39.704C157.442 39.256 157.322 38.72 157.322 38.096C157.322 37.488 157.442 36.96 157.682 36.512C157.922 36.056 158.25 35.7 158.666 35.444C159.09 35.188 159.578 35.06 160.13 35.06C160.522 35.06 160.874 35.128 161.186 35.264C161.498 35.392 161.762 35.58 161.978 35.828C162.202 36.076 162.37 36.376 162.482 36.728C162.602 37.08 162.662 37.476 162.662 37.916C162.662 38.044 162.626 38.14 162.554 38.204C162.482 38.26 162.378 38.288 162.242 38.288H158.066V37.652H162.014L161.822 37.808C161.822 37.376 161.758 37.012 161.63 36.716C161.502 36.412 161.314 36.18 161.066 36.02C160.826 35.86 160.522 35.78 160.154 35.78C159.746 35.78 159.398 35.876 159.11 36.068C158.83 36.252 158.618 36.512 158.474 36.848C158.33 37.176 158.258 37.56 158.258 38V38.072C158.258 38.808 158.434 39.368 158.786 39.752C159.146 40.136 159.654 40.328 160.31 40.328C160.582 40.328 160.85 40.292 161.114 40.22C161.386 40.148 161.65 40.028 161.906 39.86C162.018 39.788 162.118 39.756 162.206 39.764C162.302 39.764 162.378 39.792 162.434 39.848C162.49 39.896 162.526 39.96 162.542 40.04C162.566 40.112 162.558 40.192 162.518 40.28C162.486 40.368 162.418 40.444 162.314 40.508C162.05 40.7 161.738 40.848 161.378 40.952C161.018 41.056 160.662 41.108 160.31 41.108ZM164.536 41.048C164.336 41.048 164.176 40.988 164.056 40.868C163.936 40.74 163.876 40.58 163.876 40.388C163.876 40.196 163.936 40.04 164.056 39.92C164.176 39.792 164.336 39.728 164.536 39.728C164.736 39.728 164.892 39.792 165.004 39.92C165.124 40.04 165.184 40.196 165.184 40.388C165.184 40.58 165.124 40.74 165.004 40.868C164.892 40.988 164.736 41.048 164.536 41.048ZM167.267 41.048C167.067 41.048 166.907 40.988 166.787 40.868C166.667 40.74 166.607 40.58 166.607 40.388C166.607 40.196 166.667 40.04 166.787 39.92C166.907 39.792 167.067 39.728 167.267 39.728C167.467 39.728 167.623 39.792 167.735 39.92C167.855 40.04 167.915 40.196 167.915 40.388C167.915 40.58 167.855 40.74 167.735 40.868C167.623 40.988 167.467 41.048 167.267 41.048Z" fill="#929BAA"/>
</svg>
