<svg width="506" height="113" viewBox="0 0 506 113" fill="none" xmlns="http://www.w3.org/2000/svg">
<path d="M7.22 20.16C6.80667 20.16 6.48667 20.0467 6.26 19.82C6.04667 19.58 5.94 19.2533 5.94 18.84V8.04H2.04C1.69333 8.04 1.42 7.94667 1.22 7.76C1.03333 7.56 0.94 7.29333 0.94 6.96C0.94 6.61333 1.03333 6.35333 1.22 6.18C1.42 5.99333 1.69333 5.9 2.04 5.9H12.4C12.7467 5.9 13.0133 5.99333 13.2 6.18C13.4 6.35333 13.5 6.61333 13.5 6.96C13.5 7.29333 13.4 7.56 13.2 7.76C13.0133 7.94667 12.7467 8.04 12.4 8.04H8.5V18.84C8.5 19.2533 8.39333 19.58 8.18 19.82C7.96667 20.0467 7.64667 20.16 7.22 20.16ZM15.698 23.76C15.4046 23.76 15.1646 23.68 14.978 23.52C14.7913 23.3733 14.678 23.1733 14.638 22.92C14.6113 22.6667 14.658 22.4 14.778 22.12L16.138 19.1V20.14L12.498 11.72C12.378 11.4267 12.338 11.1533 12.378 10.9C12.418 10.6467 12.538 10.4467 12.738 10.3C12.9513 10.14 13.238 10.06 13.598 10.06C13.9046 10.06 14.1513 10.1333 14.338 10.28C14.5246 10.4133 14.6913 10.6733 14.838 11.06L17.538 17.8H16.938L19.698 11.04C19.8446 10.6667 20.018 10.4133 20.218 10.28C20.418 10.1333 20.6846 10.06 21.018 10.06C21.3113 10.06 21.5446 10.14 21.718 10.3C21.8913 10.4467 21.998 10.6467 22.038 10.9C22.078 11.14 22.0313 11.4067 21.898 11.7L17.038 22.8C16.8646 23.1733 16.678 23.4267 16.478 23.56C16.278 23.6933 16.018 23.76 15.698 23.76ZM24.9853 23.76C24.5853 23.76 24.2786 23.6533 24.0653 23.44C23.852 23.2267 23.7453 22.9133 23.7453 22.5V11.32C23.7453 10.9067 23.852 10.5933 24.0653 10.38C24.2786 10.1667 24.5786 10.06 24.9653 10.06C25.3653 10.06 25.672 10.1667 25.8853 10.38C26.0986 10.5933 26.2053 10.9067 26.2053 11.32V12.88L25.9853 12.28C26.1853 11.6 26.592 11.0533 27.2053 10.64C27.832 10.2267 28.5586 10.02 29.3853 10.02C30.2386 10.02 30.9853 10.2267 31.6253 10.64C32.2786 11.0533 32.7853 11.64 33.1453 12.4C33.5053 13.1467 33.6853 14.0467 33.6853 15.1C33.6853 16.14 33.5053 17.0467 33.1453 17.82C32.7853 18.58 32.2853 19.1667 31.6453 19.58C31.0053 19.9933 30.252 20.2 29.3853 20.2C28.572 20.2 27.8586 20 27.2453 19.6C26.632 19.1867 26.2186 18.6533 26.0053 18H26.2453V22.5C26.2453 22.9133 26.132 23.2267 25.9053 23.44C25.692 23.6533 25.3853 23.76 24.9853 23.76ZM28.6853 18.3C29.1786 18.3 29.612 18.18 29.9853 17.94C30.3586 17.7 30.6453 17.3467 30.8453 16.88C31.0586 16.4 31.1653 15.8067 31.1653 15.1C31.1653 14.0333 30.9386 13.24 30.4853 12.72C30.032 12.1867 29.432 11.92 28.6853 11.92C28.192 11.92 27.7586 12.04 27.3853 12.28C27.012 12.5067 26.7186 12.86 26.5053 13.34C26.3053 13.8067 26.2053 14.3933 26.2053 15.1C26.2053 16.1533 26.432 16.9533 26.8853 17.5C27.3386 18.0333 27.9386 18.3 28.6853 18.3ZM40.5575 20.2C39.4508 20.2 38.4975 19.9933 37.6975 19.58C36.8975 19.1667 36.2775 18.58 35.8375 17.82C35.4108 17.06 35.1975 16.16 35.1975 15.12C35.1975 14.1067 35.4042 13.22 35.8175 12.46C36.2442 11.7 36.8242 11.1067 37.5575 10.68C38.3042 10.24 39.1508 10.02 40.0975 10.02C40.7908 10.02 41.4108 10.1333 41.9575 10.36C42.5175 10.5867 42.9908 10.9133 43.3775 11.34C43.7775 11.7667 44.0775 12.2867 44.2775 12.9C44.4908 13.5 44.5975 14.18 44.5975 14.94C44.5975 15.18 44.5108 15.3667 44.3375 15.5C44.1775 15.62 43.9442 15.68 43.6375 15.68H37.2175V14.24H42.8375L42.5175 14.54C42.5175 13.9267 42.4242 13.4133 42.2375 13C42.0642 12.5867 41.8042 12.2733 41.4575 12.06C41.1242 11.8333 40.7042 11.72 40.1975 11.72C39.6375 11.72 39.1575 11.8533 38.7575 12.12C38.3708 12.3733 38.0708 12.74 37.8575 13.22C37.6575 13.6867 37.5575 14.2467 37.5575 14.9V15.04C37.5575 16.1333 37.8108 16.9533 38.3175 17.5C38.8375 18.0333 39.5975 18.3 40.5975 18.3C40.9442 18.3 41.3308 18.26 41.7575 18.18C42.1975 18.0867 42.6108 17.9333 42.9975 17.72C43.2775 17.56 43.5242 17.4933 43.7375 17.52C43.9508 17.5333 44.1175 17.6067 44.2375 17.74C44.3708 17.8733 44.4508 18.04 44.4775 18.24C44.5042 18.4267 44.4642 18.62 44.3575 18.82C44.2642 19.02 44.0975 19.1933 43.8575 19.34C43.3908 19.6333 42.8508 19.8533 42.2375 20C41.6375 20.1333 41.0775 20.2 40.5575 20.2ZM56.467 20.2C55.4537 20.2 54.5737 19.9933 53.827 19.58C53.0804 19.1667 52.5004 18.58 52.087 17.82C51.6737 17.0467 51.467 16.14 51.467 15.1C51.467 14.3133 51.5804 13.6133 51.807 13C52.047 12.3733 52.387 11.84 52.827 11.4C53.267 10.9467 53.7937 10.6067 54.407 10.38C55.0204 10.14 55.707 10.02 56.467 10.02C57.4804 10.02 58.3604 10.2267 59.107 10.64C59.8537 11.0533 60.4337 11.64 60.847 12.4C61.2604 13.16 61.467 14.06 61.467 15.1C61.467 15.8867 61.347 16.5933 61.107 17.22C60.8804 17.8467 60.547 18.3867 60.107 18.84C59.667 19.28 59.1404 19.62 58.527 19.86C57.9137 20.0867 57.227 20.2 56.467 20.2ZM56.467 18.3C56.9604 18.3 57.3937 18.18 57.767 17.94C58.1404 17.7 58.427 17.3467 58.627 16.88C58.8404 16.4 58.947 15.8067 58.947 15.1C58.947 14.0333 58.7204 13.24 58.267 12.72C57.8137 12.1867 57.2137 11.92 56.467 11.92C55.9737 11.92 55.5404 12.04 55.167 12.28C54.7937 12.5067 54.5004 12.86 54.287 13.34C54.087 13.8067 53.987 14.3933 53.987 15.1C53.987 16.1533 54.2137 16.9533 54.667 17.5C55.1204 18.0333 55.7204 18.3 56.467 18.3ZM65.3528 20.16C64.9528 20.16 64.6395 20.0533 64.4128 19.84C64.1995 19.6133 64.0928 19.2933 64.0928 18.88V12.1H63.1728C62.8528 12.1 62.6061 12.02 62.4328 11.86C62.2595 11.6867 62.1728 11.4533 62.1728 11.16C62.1728 10.8533 62.2595 10.62 62.4328 10.46C62.6061 10.3 62.8528 10.22 63.1728 10.22H64.8128L64.0928 10.88V10.2C64.0928 8.82667 64.4395 7.8 65.1328 7.12C65.8261 6.42667 66.8261 6.02 68.1328 5.9L68.8128 5.84C69.0795 5.81333 69.2928 5.86 69.4528 5.98C69.6128 6.08667 69.7195 6.23333 69.7728 6.42C69.8261 6.59333 69.8328 6.77333 69.7928 6.96C69.7528 7.14667 69.6661 7.31333 69.5328 7.46C69.4128 7.59333 69.2528 7.66667 69.0528 7.68L68.7728 7.7C68.0128 7.75333 67.4595 7.94667 67.1128 8.28C66.7661 8.61333 66.5928 9.12 66.5928 9.8V10.54L66.2728 10.22H68.2928C68.6128 10.22 68.8595 10.3 69.0328 10.46C69.2061 10.62 69.2928 10.8533 69.2928 11.16C69.2928 11.4533 69.2061 11.6867 69.0328 11.86C68.8595 12.02 68.6128 12.1 68.2928 12.1H66.5928V18.88C66.5928 19.7333 66.1795 20.16 65.3528 20.16ZM83.1677 20.2C81.6077 20.2 80.2877 19.9067 79.2077 19.32C78.141 18.7333 77.3277 17.9 76.7677 16.82C76.2077 15.74 75.9277 14.46 75.9277 12.98C75.9277 11.86 76.0877 10.8533 76.4077 9.96C76.741 9.06667 77.2143 8.30667 77.8277 7.68C78.4543 7.04 79.2143 6.55333 80.1077 6.22C81.001 5.87333 82.0143 5.7 83.1477 5.7C83.8943 5.7 84.641 5.79333 85.3877 5.98C86.1477 6.15333 86.861 6.45333 87.5277 6.88C87.7543 7.02667 87.901 7.20667 87.9677 7.42C88.0477 7.63333 88.061 7.85333 88.0077 8.08C87.9543 8.29333 87.8543 8.48 87.7077 8.64C87.561 8.8 87.3743 8.9 87.1477 8.94C86.9343 8.98 86.6943 8.92667 86.4277 8.78C85.921 8.48667 85.4077 8.27333 84.8877 8.14C84.3677 8.00667 83.7877 7.94 83.1477 7.94C82.161 7.94 81.3277 8.14 80.6477 8.54C79.9677 8.92667 79.4543 9.49333 79.1077 10.24C78.7743 10.9867 78.6077 11.9 78.6077 12.98C78.6077 14.62 79.001 15.8667 79.7877 16.72C80.5743 17.5733 81.741 18 83.2877 18C83.821 18 84.361 17.9467 84.9077 17.84C85.4543 17.7333 85.9877 17.5867 86.5077 17.4L86.0077 18.54V14.28H83.8077C83.4743 14.28 83.2143 14.1933 83.0277 14.02C82.8543 13.8467 82.7677 13.6133 82.7677 13.32C82.7677 13.0133 82.8543 12.78 83.0277 12.62C83.2143 12.46 83.4743 12.38 83.8077 12.38H87.1077C87.441 12.38 87.6943 12.4733 87.8677 12.66C88.0543 12.8333 88.1477 13.0867 88.1477 13.42V18.28C88.1477 18.5733 88.0877 18.82 87.9677 19.02C87.861 19.22 87.681 19.3667 87.4277 19.46C86.841 19.6733 86.1677 19.8533 85.4077 20C84.6477 20.1333 83.901 20.2 83.1677 20.2ZM95.3342 20.2C94.3209 20.2 93.4409 19.9933 92.6942 19.58C91.9476 19.1667 91.3676 18.58 90.9542 17.82C90.5409 17.0467 90.3342 16.14 90.3342 15.1C90.3342 14.3133 90.4476 13.6133 90.6742 13C90.9142 12.3733 91.2542 11.84 91.6942 11.4C92.1342 10.9467 92.6609 10.6067 93.2742 10.38C93.8876 10.14 94.5742 10.02 95.3342 10.02C96.3476 10.02 97.2276 10.2267 97.9742 10.64C98.7209 11.0533 99.3009 11.64 99.7142 12.4C100.128 13.16 100.334 14.06 100.334 15.1C100.334 15.8867 100.214 16.5933 99.9742 17.22C99.7476 17.8467 99.4142 18.3867 98.9742 18.84C98.5342 19.28 98.0076 19.62 97.3942 19.86C96.7809 20.0867 96.0942 20.2 95.3342 20.2ZM95.3342 18.3C95.8276 18.3 96.2609 18.18 96.6342 17.94C97.0076 17.7 97.2942 17.3467 97.4942 16.88C97.7076 16.4 97.8142 15.8067 97.8142 15.1C97.8142 14.0333 97.5876 13.24 97.1342 12.72C96.6809 12.1867 96.0809 11.92 95.3342 11.92C94.8409 11.92 94.4076 12.04 94.0342 12.28C93.6609 12.5067 93.3676 12.86 93.1542 13.34C92.9542 13.8067 92.8542 14.3933 92.8542 15.1C92.8542 16.1533 93.0809 16.9533 93.5342 17.5C93.9876 18.0333 94.5876 18.3 95.3342 18.3ZM105.618 20.2C104.911 20.2 104.278 20.0667 103.718 19.8C103.171 19.52 102.738 19.1467 102.418 18.68C102.111 18.2133 101.958 17.6867 101.958 17.1C101.958 16.38 102.144 15.8133 102.518 15.4C102.891 14.9733 103.498 14.6667 104.338 14.48C105.178 14.2933 106.304 14.2 107.718 14.2H108.718V15.64H107.738C106.911 15.64 106.251 15.68 105.758 15.76C105.264 15.84 104.911 15.98 104.698 16.18C104.498 16.3667 104.398 16.6333 104.398 16.98C104.398 17.42 104.551 17.78 104.858 18.06C105.164 18.34 105.591 18.48 106.138 18.48C106.578 18.48 106.964 18.38 107.298 18.18C107.644 17.9667 107.918 17.68 108.118 17.32C108.318 16.96 108.418 16.5467 108.418 16.08V13.78C108.418 13.1133 108.271 12.6333 107.978 12.34C107.684 12.0467 107.191 11.9 106.498 11.9C106.111 11.9 105.691 11.9467 105.238 12.04C104.798 12.1333 104.331 12.2933 103.838 12.52C103.584 12.64 103.358 12.6733 103.158 12.62C102.971 12.5667 102.824 12.46 102.718 12.3C102.611 12.1267 102.558 11.94 102.558 11.74C102.558 11.54 102.611 11.3467 102.718 11.16C102.824 10.96 103.004 10.8133 103.258 10.72C103.871 10.4667 104.458 10.2867 105.018 10.18C105.591 10.0733 106.111 10.02 106.578 10.02C107.538 10.02 108.324 10.1667 108.938 10.46C109.564 10.7533 110.031 11.2 110.338 11.8C110.644 12.3867 110.798 13.1467 110.798 14.08V18.88C110.798 19.2933 110.698 19.6133 110.498 19.84C110.298 20.0533 110.011 20.16 109.638 20.16C109.264 20.16 108.971 20.0533 108.758 19.84C108.558 19.6133 108.458 19.2933 108.458 18.88V17.92H108.618C108.524 18.3867 108.338 18.7933 108.058 19.14C107.791 19.4733 107.451 19.7333 107.038 19.92C106.624 20.1067 106.151 20.2 105.618 20.2ZM116.675 20.2C115.568 20.2 114.735 19.8867 114.175 19.26C113.615 18.62 113.335 17.6867 113.335 16.46V7C113.335 6.58667 113.442 6.27333 113.655 6.06C113.868 5.84667 114.175 5.74 114.575 5.74C114.975 5.74 115.282 5.84667 115.495 6.06C115.722 6.27333 115.835 6.58667 115.835 7V16.34C115.835 16.9533 115.962 17.4067 116.215 17.7C116.482 17.9933 116.855 18.14 117.335 18.14C117.442 18.14 117.542 18.14 117.635 18.14C117.728 18.1267 117.822 18.1133 117.915 18.1C118.102 18.0733 118.228 18.1267 118.295 18.26C118.362 18.38 118.395 18.6333 118.395 19.02C118.395 19.3533 118.328 19.6133 118.195 19.8C118.062 19.9867 117.842 20.1 117.535 20.14C117.402 20.1533 117.262 20.1667 117.115 20.18C116.968 20.1933 116.822 20.2 116.675 20.2ZM123.204 20.2C122.631 20.2 122.024 20.14 121.384 20.02C120.744 19.9 120.171 19.6933 119.664 19.4C119.451 19.2667 119.298 19.1133 119.204 18.94C119.124 18.7533 119.091 18.5733 119.104 18.4C119.131 18.2133 119.198 18.0533 119.304 17.92C119.424 17.7867 119.571 17.7 119.744 17.66C119.931 17.62 120.131 17.6533 120.344 17.76C120.878 18.0133 121.378 18.1933 121.844 18.3C122.311 18.3933 122.771 18.44 123.224 18.44C123.864 18.44 124.338 18.3333 124.644 18.12C124.964 17.8933 125.124 17.6 125.124 17.24C125.124 16.9333 125.018 16.7 124.804 16.54C124.604 16.3667 124.298 16.24 123.884 16.16L121.884 15.78C121.058 15.62 120.424 15.32 119.984 14.88C119.558 14.4267 119.344 13.8467 119.344 13.14C119.344 12.5 119.518 11.9467 119.864 11.48C120.224 11.0133 120.718 10.6533 121.344 10.4C121.971 10.1467 122.691 10.02 123.504 10.02C124.091 10.02 124.638 10.0867 125.144 10.22C125.664 10.34 126.164 10.5333 126.644 10.8C126.844 10.9067 126.978 11.0467 127.044 11.22C127.124 11.3933 127.144 11.5733 127.104 11.76C127.064 11.9333 126.984 12.0933 126.864 12.24C126.744 12.3733 126.591 12.46 126.404 12.5C126.231 12.5267 126.031 12.4867 125.804 12.38C125.391 12.1667 124.991 12.0133 124.604 11.92C124.231 11.8267 123.871 11.78 123.524 11.78C122.871 11.78 122.384 11.8933 122.064 12.12C121.758 12.3467 121.604 12.6467 121.604 13.02C121.604 13.3 121.698 13.5333 121.884 13.72C122.071 13.9067 122.358 14.0333 122.744 14.1L124.744 14.48C125.611 14.64 126.264 14.9333 126.704 15.36C127.158 15.7867 127.384 16.36 127.384 17.08C127.384 18.0533 127.004 18.82 126.244 19.38C125.484 19.9267 124.471 20.2 123.204 20.2Z" fill="#38455D"/>
<rect x="1" y="41" width="505" height="72" rx="16" fill="white"/>
<rect x="1.5" y="41.5" width="504" height="71" rx="15.5" stroke="#FE5000" stroke-opacity="0.32"/>
<line x1="173.5" y1="42" x2="173.5" y2="113" stroke="#64728C" stroke-opacity="0.3"/>
<line x1="334.5" y1="42" x2="334.5" y2="113" stroke="#64728C" stroke-opacity="0.3"/>
<path d="M400.288 83.16C399.2 83.16 398.245 82.92 397.424 82.44C396.613 81.96 395.984 81.288 395.536 80.424C395.088 79.5493 394.864 78.5253 394.864 77.352C394.864 76.4667 394.992 75.672 395.248 74.968C395.504 74.2533 395.867 73.6453 396.336 73.144C396.816 72.632 397.387 72.2427 398.048 71.976C398.72 71.6987 399.467 71.56 400.288 71.56C401.387 71.56 402.341 71.8 403.152 72.28C403.963 72.7493 404.592 73.416 405.04 74.28C405.488 75.144 405.712 76.1627 405.712 77.336C405.712 78.2213 405.584 79.0213 405.328 79.736C405.072 80.4507 404.704 81.064 404.224 81.576C403.755 82.088 403.184 82.4827 402.512 82.76C401.851 83.0267 401.109 83.16 400.288 83.16ZM400.288 81.4C400.981 81.4 401.568 81.24 402.048 80.92C402.539 80.6 402.912 80.136 403.168 79.528C403.435 78.92 403.568 78.1947 403.568 77.352C403.568 76.072 403.28 75.08 402.704 74.376C402.139 73.672 401.333 73.32 400.288 73.32C399.605 73.32 399.019 73.48 398.528 73.8C398.037 74.1093 397.659 74.568 397.392 75.176C397.136 75.7733 397.008 76.4987 397.008 77.352C397.008 78.6213 397.296 79.6133 397.872 80.328C398.448 81.0427 399.253 81.4 400.288 81.4ZM408.819 83.128C408.488 83.128 408.232 83.0373 408.051 82.856C407.88 82.664 407.795 82.4027 407.795 82.072V72.632C407.795 72.2907 407.88 72.0347 408.051 71.864C408.232 71.6827 408.488 71.592 408.819 71.592C409.149 71.592 409.4 71.6827 409.571 71.864C409.752 72.0347 409.843 72.2907 409.843 72.632V76.712H409.875L414.467 72.104C414.637 71.9333 414.808 71.8053 414.979 71.72C415.149 71.6347 415.341 71.592 415.555 71.592C415.864 71.592 416.083 71.672 416.211 71.832C416.349 71.992 416.403 72.1787 416.371 72.392C416.349 72.6053 416.248 72.8027 416.067 72.984L411.395 77.608L411.411 76.68L416.291 81.64C416.515 81.8533 416.632 82.0773 416.643 82.312C416.653 82.5467 416.579 82.744 416.419 82.904C416.269 83.0533 416.045 83.128 415.747 83.128C415.491 83.128 415.283 83.0747 415.123 82.968C414.973 82.8613 414.797 82.7067 414.595 82.504L409.875 77.784H409.843V82.072C409.843 82.4027 409.757 82.664 409.587 82.856C409.416 83.0373 409.16 83.128 408.819 83.128ZM419.459 83.128C419.128 83.128 418.872 83.0373 418.691 82.856C418.52 82.664 418.435 82.4027 418.435 82.072V72.76C418.435 72.4187 418.526 72.1627 418.707 71.992C418.888 71.8107 419.144 71.72 419.475 71.72H423.331C424.568 71.72 425.523 72.0187 426.195 72.616C426.867 73.2027 427.203 74.0293 427.203 75.096C427.203 75.7893 427.048 76.3867 426.739 76.888C426.44 77.3893 426.003 77.7733 425.427 78.04C424.851 78.3067 424.152 78.44 423.331 78.44L423.475 78.2H424.003C424.44 78.2 424.819 78.3067 425.139 78.52C425.47 78.7333 425.758 79.0693 426.003 79.528L427.203 81.752C427.331 81.976 427.39 82.1947 427.379 82.408C427.368 82.6213 427.288 82.7973 427.139 82.936C426.99 83.064 426.771 83.128 426.483 83.128C426.195 83.128 425.96 83.0693 425.779 82.952C425.598 82.824 425.438 82.632 425.299 82.376L423.683 79.4C423.491 79.0373 423.262 78.7973 422.995 78.68C422.739 78.552 422.408 78.488 422.003 78.488H420.483V82.072C420.483 82.4027 420.398 82.664 420.227 82.856C420.056 83.0373 419.8 83.128 419.459 83.128ZM420.483 76.968H422.979C423.715 76.968 424.27 76.8187 424.643 76.52C425.027 76.2107 425.219 75.752 425.219 75.144C425.219 74.5467 425.027 74.0987 424.643 73.8C424.27 73.4907 423.715 73.336 422.979 73.336H420.483V76.968ZM438.804 83.16C437.716 83.16 436.761 82.92 435.94 82.44C435.129 81.96 434.5 81.288 434.052 80.424C433.604 79.5493 433.38 78.5253 433.38 77.352C433.38 76.4667 433.508 75.672 433.764 74.968C434.02 74.2533 434.382 73.6453 434.852 73.144C435.332 72.632 435.902 72.2427 436.564 71.976C437.236 71.6987 437.982 71.56 438.804 71.56C439.902 71.56 440.857 71.8 441.668 72.28C442.478 72.7493 443.108 73.416 443.556 74.28C444.004 75.144 444.228 76.1627 444.228 77.336C444.228 78.2213 444.1 79.0213 443.844 79.736C443.588 80.4507 443.22 81.064 442.74 81.576C442.27 82.088 441.7 82.4827 441.028 82.76C440.366 83.0267 439.625 83.16 438.804 83.16ZM438.804 81.4C439.497 81.4 440.084 81.24 440.564 80.92C441.054 80.6 441.428 80.136 441.684 79.528C441.95 78.92 442.084 78.1947 442.084 77.352C442.084 76.072 441.796 75.08 441.22 74.376C440.654 73.672 439.849 73.32 438.804 73.32C438.121 73.32 437.534 73.48 437.044 73.8C436.553 74.1093 436.174 74.568 435.908 75.176C435.652 75.7733 435.524 76.4987 435.524 77.352C435.524 78.6213 435.812 79.6133 436.388 80.328C436.964 81.0427 437.769 81.4 438.804 81.4ZM447.11 83.128C446.79 83.128 446.545 83.0427 446.374 82.872C446.203 82.6907 446.118 82.4347 446.118 82.104V76.056C446.118 75.7253 446.203 75.4747 446.374 75.304C446.545 75.1333 446.785 75.048 447.094 75.048C447.403 75.048 447.643 75.1333 447.814 75.304C447.985 75.4747 448.07 75.7253 448.07 76.056V77.144L447.894 76.744C448.129 76.1787 448.491 75.752 448.982 75.464C449.483 75.1653 450.049 75.016 450.678 75.016C451.307 75.016 451.825 75.1333 452.23 75.368C452.635 75.6027 452.939 75.96 453.142 76.44C453.345 76.9093 453.446 77.5067 453.446 78.232V82.104C453.446 82.4347 453.361 82.6907 453.19 82.872C453.019 83.0427 452.774 83.128 452.454 83.128C452.134 83.128 451.883 83.0427 451.702 82.872C451.531 82.6907 451.446 82.4347 451.446 82.104V78.328C451.446 77.72 451.329 77.2773 451.094 77C450.87 76.7227 450.518 76.584 450.038 76.584C449.451 76.584 448.982 76.7707 448.63 77.144C448.289 77.5067 448.118 77.992 448.118 78.6V82.104C448.118 82.7867 447.782 83.128 447.11 83.128ZM458.15 83.16C457.264 83.16 456.598 82.9093 456.15 82.408C455.702 81.896 455.478 81.1493 455.478 80.168V72.6C455.478 72.2693 455.563 72.0187 455.734 71.848C455.904 71.6773 456.15 71.592 456.47 71.592C456.79 71.592 457.035 71.6773 457.206 71.848C457.387 72.0187 457.478 72.2693 457.478 72.6V80.072C457.478 80.5627 457.579 80.9253 457.782 81.16C457.995 81.3947 458.294 81.512 458.678 81.512C458.763 81.512 458.843 81.512 458.918 81.512C458.992 81.5013 459.067 81.4907 459.141 81.48C459.291 81.4587 459.392 81.5013 459.446 81.608C459.499 81.704 459.526 81.9067 459.526 82.216C459.526 82.4827 459.472 82.6907 459.366 82.84C459.259 82.9893 459.083 83.08 458.838 83.112C458.731 83.1227 458.619 83.1333 458.502 83.144C458.384 83.1547 458.267 83.16 458.15 83.16ZM462.368 86.008C462.133 86.008 461.941 85.944 461.792 85.816C461.642 85.6987 461.552 85.5387 461.52 85.336C461.498 85.1333 461.536 84.92 461.632 84.696L462.72 82.28V83.112L459.808 76.376C459.712 76.1413 459.68 75.9227 459.712 75.72C459.744 75.5173 459.84 75.3573 460 75.24C460.17 75.112 460.4 75.048 460.688 75.048C460.933 75.048 461.13 75.1067 461.28 75.224C461.429 75.3307 461.562 75.5387 461.68 75.848L463.84 81.24H463.36L465.568 75.832C465.685 75.5333 465.824 75.3307 465.984 75.224C466.144 75.1067 466.357 75.048 466.624 75.048C466.858 75.048 467.045 75.112 467.184 75.24C467.322 75.3573 467.408 75.5173 467.44 75.72C467.472 75.912 467.434 76.1253 467.328 76.36L463.44 85.24C463.301 85.5387 463.152 85.7413 462.992 85.848C462.832 85.9547 462.624 86.008 462.368 86.008Z" fill="#38455D"/>
<g filter="url(#filter0_i_1342_5030)">
<rect x="173" y="41" width="161" height="72" fill="#FE5000"/>
<rect x="173" y="41" width="161" height="72" fill="url(#paint0_linear_1342_5030)" fill-opacity="0.15"/>
<rect x="173" y="41" width="161" height="72" fill="url(#paint1_linear_1342_5030)" fill-opacity="0.02"/>
</g>
<path d="M66.344 83.128C66.088 83.128 65.88 83.0693 65.72 82.952C65.5707 82.8347 65.48 82.68 65.448 82.488C65.416 82.2853 65.4533 82.0613 65.56 81.816L69.784 72.456C69.9227 72.1467 70.088 71.928 70.28 71.8C70.4827 71.6613 70.712 71.592 70.968 71.592C71.2133 71.592 71.432 71.6613 71.624 71.8C71.8267 71.928 71.9973 72.1467 72.136 72.456L76.376 81.816C76.4933 82.0613 76.536 82.2853 76.504 82.488C76.472 82.6907 76.3813 82.8507 76.232 82.968C76.0827 83.0747 75.8853 83.128 75.64 83.128C75.3413 83.128 75.1067 83.0587 74.936 82.92C74.776 82.7707 74.632 82.5467 74.504 82.248L73.464 79.832L74.328 80.392H67.576L68.44 79.832L67.416 82.248C67.2773 82.5573 67.1333 82.7813 66.984 82.92C66.8347 83.0587 66.6213 83.128 66.344 83.128ZM70.936 73.944L68.696 79.272L68.28 78.76H73.624L73.224 79.272L70.968 73.944H70.936ZM80.6183 83.16C79.7329 83.16 79.0663 82.9093 78.6183 82.408C78.1703 81.896 77.9463 81.1493 77.9463 80.168V72.6C77.9463 72.2693 78.0316 72.0187 78.2023 71.848C78.3729 71.6773 78.6183 71.592 78.9383 71.592C79.2583 71.592 79.5036 71.6773 79.6743 71.848C79.8556 72.0187 79.9463 72.2693 79.9463 72.6V80.072C79.9463 80.5627 80.0476 80.9253 80.2503 81.16C80.4636 81.3947 80.7623 81.512 81.1463 81.512C81.2316 81.512 81.3116 81.512 81.3863 81.512C81.4609 81.5013 81.5356 81.4907 81.6102 81.48C81.7596 81.4587 81.8609 81.5013 81.9143 81.608C81.9676 81.704 81.9943 81.9067 81.9943 82.216C81.9943 82.4827 81.9409 82.6907 81.8343 82.84C81.7276 82.9893 81.5516 83.08 81.3063 83.112C81.1996 83.1227 81.0876 83.1333 80.9703 83.144C80.8529 83.1547 80.7356 83.16 80.6183 83.16ZM85.7276 83.16C84.8423 83.16 84.1756 82.9093 83.7276 82.408C83.2796 81.896 83.0556 81.1493 83.0556 80.168V72.6C83.0556 72.2693 83.141 72.0187 83.3116 71.848C83.4823 71.6773 83.7276 71.592 84.0476 71.592C84.3676 71.592 84.613 71.6773 84.7836 71.848C84.965 72.0187 85.0556 72.2693 85.0556 72.6V80.072C85.0556 80.5627 85.157 80.9253 85.3596 81.16C85.573 81.3947 85.8716 81.512 86.2556 81.512C86.341 81.512 86.421 81.512 86.4956 81.512C86.5703 81.5013 86.645 81.4907 86.7196 81.48C86.869 81.4587 86.9703 81.5013 87.0236 81.608C87.077 81.704 87.1036 81.9067 87.1036 82.216C87.1036 82.4827 87.0503 82.6907 86.9436 82.84C86.837 82.9893 86.661 83.08 86.4156 83.112C86.309 83.1227 86.197 83.1333 86.0796 83.144C85.9623 83.1547 85.845 83.16 85.7276 83.16ZM98.1248 83.16C96.8768 83.16 95.8208 82.9253 94.9568 82.456C94.1034 81.9867 93.4528 81.32 93.0048 80.456C92.5568 79.592 92.3328 78.568 92.3328 77.384C92.3328 76.488 92.4608 75.6827 92.7168 74.968C92.9834 74.2533 93.3621 73.6453 93.8528 73.144C94.3541 72.632 94.9621 72.2427 95.6768 71.976C96.3914 71.6987 97.2021 71.56 98.1088 71.56C98.7061 71.56 99.3034 71.6347 99.9008 71.784C100.509 71.9227 101.079 72.1627 101.613 72.504C101.794 72.6213 101.911 72.7653 101.965 72.936C102.029 73.1067 102.039 73.2827 101.997 73.464C101.954 73.6347 101.874 73.784 101.757 73.912C101.639 74.04 101.49 74.12 101.309 74.152C101.138 74.184 100.946 74.1413 100.733 74.024C100.327 73.7893 99.9168 73.6187 99.5008 73.512C99.0848 73.4053 98.6208 73.352 98.1088 73.352C97.3194 73.352 96.6528 73.512 96.1088 73.832C95.5648 74.1413 95.1541 74.5947 94.8768 75.192C94.6101 75.7893 94.4768 76.52 94.4768 77.384C94.4768 78.696 94.7914 79.6933 95.4208 80.376C96.0501 81.0587 96.9834 81.4 98.2208 81.4C98.6474 81.4 99.0794 81.3573 99.5168 81.272C99.9541 81.1867 100.381 81.0693 100.797 80.92L100.397 81.832V78.424H98.6368C98.3701 78.424 98.1621 78.3547 98.0128 78.216C97.8741 78.0773 97.8048 77.8907 97.8048 77.656C97.8048 77.4107 97.8741 77.224 98.0128 77.096C98.1621 76.968 98.3701 76.904 98.6368 76.904H101.277C101.543 76.904 101.746 76.9787 101.885 77.128C102.034 77.2667 102.109 77.4693 102.109 77.736V81.624C102.109 81.8587 102.061 82.056 101.965 82.216C101.879 82.376 101.735 82.4933 101.533 82.568C101.063 82.7387 100.525 82.8827 99.9167 83C99.3088 83.1067 98.7114 83.16 98.1248 83.16ZM107.858 83.16C107.047 83.16 106.343 82.9947 105.746 82.664C105.149 82.3333 104.685 81.864 104.354 81.256C104.023 80.6373 103.858 79.912 103.858 79.08C103.858 78.4507 103.949 77.8907 104.13 77.4C104.322 76.8987 104.594 76.472 104.946 76.12C105.298 75.7573 105.719 75.4853 106.21 75.304C106.701 75.112 107.25 75.016 107.858 75.016C108.669 75.016 109.373 75.1813 109.97 75.512C110.567 75.8427 111.031 76.312 111.362 76.92C111.693 77.528 111.858 78.248 111.858 79.08C111.858 79.7093 111.762 80.2747 111.57 80.776C111.389 81.2773 111.122 81.7093 110.77 82.072C110.418 82.424 109.997 82.696 109.506 82.888C109.015 83.0693 108.466 83.16 107.858 83.16ZM107.858 81.64C108.253 81.64 108.599 81.544 108.898 81.352C109.197 81.16 109.426 80.8773 109.586 80.504C109.757 80.12 109.842 79.6453 109.842 79.08C109.842 78.2267 109.661 77.592 109.298 77.176C108.935 76.7493 108.455 76.536 107.858 76.536C107.463 76.536 107.117 76.632 106.818 76.824C106.519 77.0053 106.285 77.288 106.114 77.672C105.954 78.0453 105.874 78.5147 105.874 79.08C105.874 79.9227 106.055 80.5627 106.418 81C106.781 81.4267 107.261 81.64 107.858 81.64ZM116.085 83.16C115.519 83.16 115.013 83.0533 114.565 82.84C114.127 82.616 113.781 82.3173 113.525 81.944C113.279 81.5707 113.157 81.1493 113.157 80.68C113.157 80.104 113.306 79.6507 113.605 79.32C113.903 78.9787 114.389 78.7333 115.061 78.584C115.733 78.4347 116.634 78.36 117.765 78.36H118.565V79.512H117.781C117.119 79.512 116.591 79.544 116.197 79.608C115.802 79.672 115.519 79.784 115.349 79.944C115.189 80.0933 115.109 80.3067 115.109 80.584C115.109 80.936 115.231 81.224 115.477 81.448C115.722 81.672 116.063 81.784 116.501 81.784C116.853 81.784 117.162 81.704 117.429 81.544C117.706 81.3733 117.925 81.144 118.085 80.856C118.245 80.568 118.325 80.2373 118.325 79.864V78.024C118.325 77.4907 118.207 77.1067 117.973 76.872C117.738 76.6373 117.343 76.52 116.789 76.52C116.479 76.52 116.143 76.5573 115.781 76.632C115.429 76.7067 115.055 76.8347 114.661 77.016C114.458 77.112 114.277 77.1387 114.117 77.096C113.967 77.0533 113.85 76.968 113.765 76.84C113.679 76.7013 113.637 76.552 113.637 76.392C113.637 76.232 113.679 76.0773 113.765 75.928C113.85 75.768 113.994 75.6507 114.197 75.576C114.687 75.3733 115.157 75.2293 115.605 75.144C116.063 75.0587 116.479 75.016 116.853 75.016C117.621 75.016 118.25 75.1333 118.741 75.368C119.242 75.6027 119.615 75.96 119.861 76.44C120.106 76.9093 120.229 77.5173 120.229 78.264V82.104C120.229 82.4347 120.149 82.6907 119.989 82.872C119.829 83.0427 119.599 83.128 119.301 83.128C119.002 83.128 118.767 83.0427 118.597 82.872C118.437 82.6907 118.357 82.4347 118.357 82.104V81.336H118.485C118.41 81.7093 118.261 82.0347 118.037 82.312C117.823 82.5787 117.551 82.7867 117.221 82.936C116.89 83.0853 116.511 83.16 116.085 83.16ZM124.931 83.16C124.045 83.16 123.379 82.9093 122.931 82.408C122.483 81.896 122.259 81.1493 122.259 80.168V72.6C122.259 72.2693 122.344 72.0187 122.515 71.848C122.685 71.6773 122.931 71.592 123.251 71.592C123.571 71.592 123.816 71.6773 123.987 71.848C124.168 72.0187 124.259 72.2693 124.259 72.6V80.072C124.259 80.5627 124.36 80.9253 124.563 81.16C124.776 81.3947 125.075 81.512 125.459 81.512C125.544 81.512 125.624 81.512 125.699 81.512C125.773 81.5013 125.848 81.4907 125.923 81.48C126.072 81.4587 126.173 81.5013 126.227 81.608C126.28 81.704 126.307 81.9067 126.307 82.216C126.307 82.4827 126.253 82.6907 126.147 82.84C126.04 82.9893 125.864 83.08 125.619 83.112C125.512 83.1227 125.4 83.1333 125.283 83.144C125.165 83.1547 125.048 83.16 124.931 83.16ZM130.154 83.16C129.695 83.16 129.21 83.112 128.698 83.016C128.186 82.92 127.727 82.7547 127.322 82.52C127.151 82.4133 127.029 82.2907 126.954 82.152C126.89 82.0027 126.863 81.8587 126.874 81.72C126.895 81.5707 126.949 81.4427 127.034 81.336C127.13 81.2293 127.247 81.16 127.386 81.128C127.535 81.096 127.695 81.1227 127.866 81.208C128.293 81.4107 128.693 81.5547 129.066 81.64C129.439 81.7147 129.807 81.752 130.17 81.752C130.682 81.752 131.061 81.6667 131.306 81.496C131.562 81.3147 131.69 81.08 131.69 80.792C131.69 80.5467 131.605 80.36 131.434 80.232C131.274 80.0933 131.029 79.992 130.698 79.928L129.098 79.624C128.437 79.496 127.93 79.256 127.578 78.904C127.237 78.5413 127.066 78.0773 127.066 77.512C127.066 77 127.205 76.5573 127.482 76.184C127.77 75.8107 128.165 75.5227 128.666 75.32C129.167 75.1173 129.743 75.016 130.394 75.016C130.863 75.016 131.301 75.0693 131.706 75.176C132.122 75.272 132.522 75.4267 132.906 75.64C133.066 75.7253 133.173 75.8373 133.226 75.976C133.29 76.1147 133.306 76.2587 133.274 76.408C133.242 76.5467 133.178 76.6747 133.082 76.792C132.986 76.8987 132.863 76.968 132.714 77C132.575 77.0213 132.415 76.9893 132.234 76.904C131.903 76.7333 131.583 76.6107 131.274 76.536C130.975 76.4613 130.687 76.424 130.41 76.424C129.887 76.424 129.498 76.5147 129.242 76.696C128.997 76.8773 128.874 77.1173 128.874 77.416C128.874 77.64 128.949 77.8267 129.098 77.976C129.247 78.1253 129.477 78.2267 129.786 78.28L131.386 78.584C132.079 78.712 132.602 78.9467 132.954 79.288C133.317 79.6293 133.498 80.088 133.498 80.664C133.498 81.4427 133.194 82.056 132.586 82.504C131.978 82.9413 131.167 83.16 130.154 83.16Z" fill="#38455D"/>
<path d="M230.656 83.16C229.408 83.16 228.352 82.9253 227.488 82.456C226.635 81.9867 225.984 81.32 225.536 80.456C225.088 79.592 224.864 78.568 224.864 77.384C224.864 76.488 224.992 75.6827 225.248 74.968C225.515 74.2533 225.893 73.6453 226.384 73.144C226.885 72.632 227.493 72.2427 228.208 71.976C228.923 71.6987 229.733 71.56 230.64 71.56C231.237 71.56 231.835 71.6347 232.432 71.784C233.04 71.9227 233.611 72.1627 234.144 72.504C234.325 72.6213 234.443 72.7653 234.496 72.936C234.56 73.1067 234.571 73.2827 234.528 73.464C234.485 73.6347 234.405 73.784 234.288 73.912C234.171 74.04 234.021 74.12 233.84 74.152C233.669 74.184 233.477 74.1413 233.264 74.024C232.859 73.7893 232.448 73.6187 232.032 73.512C231.616 73.4053 231.152 73.352 230.64 73.352C229.851 73.352 229.184 73.512 228.64 73.832C228.096 74.1413 227.685 74.5947 227.408 75.192C227.141 75.7893 227.008 76.52 227.008 77.384C227.008 78.696 227.323 79.6933 227.952 80.376C228.581 81.0587 229.515 81.4 230.752 81.4C231.179 81.4 231.611 81.3573 232.048 81.272C232.485 81.1867 232.912 81.0693 233.328 80.92L232.928 81.832V78.424H231.168C230.901 78.424 230.693 78.3547 230.544 78.216C230.405 78.0773 230.336 77.8907 230.336 77.656C230.336 77.4107 230.405 77.224 230.544 77.096C230.693 76.968 230.901 76.904 231.168 76.904H233.808C234.075 76.904 234.277 76.9787 234.416 77.128C234.565 77.2667 234.64 77.4693 234.64 77.736V81.624C234.64 81.8587 234.592 82.056 234.496 82.216C234.411 82.376 234.267 82.4933 234.064 82.568C233.595 82.7387 233.056 82.8827 232.448 83C231.84 83.1067 231.243 83.16 230.656 83.16ZM240.389 83.16C239.579 83.16 238.875 82.9947 238.277 82.664C237.68 82.3333 237.216 81.864 236.885 81.256C236.555 80.6373 236.389 79.912 236.389 79.08C236.389 78.4507 236.48 77.8907 236.661 77.4C236.853 76.8987 237.125 76.472 237.477 76.12C237.829 75.7573 238.251 75.4853 238.741 75.304C239.232 75.112 239.781 75.016 240.389 75.016C241.2 75.016 241.904 75.1813 242.501 75.512C243.099 75.8427 243.563 76.312 243.893 76.92C244.224 77.528 244.389 78.248 244.389 79.08C244.389 79.7093 244.293 80.2747 244.101 80.776C243.92 81.2773 243.653 81.7093 243.301 82.072C242.949 82.424 242.528 82.696 242.037 82.888C241.547 83.0693 240.997 83.16 240.389 83.16ZM240.389 81.64C240.784 81.64 241.131 81.544 241.429 81.352C241.728 81.16 241.957 80.8773 242.117 80.504C242.288 80.12 242.373 79.6453 242.373 79.08C242.373 78.2267 242.192 77.592 241.829 77.176C241.467 76.7493 240.987 76.536 240.389 76.536C239.995 76.536 239.648 76.632 239.349 76.824C239.051 77.0053 238.816 77.288 238.645 77.672C238.485 78.0453 238.405 78.5147 238.405 79.08C238.405 79.9227 238.587 80.5627 238.949 81C239.312 81.4267 239.792 81.64 240.389 81.64ZM248.616 83.16C248.051 83.16 247.544 83.0533 247.096 82.84C246.659 82.616 246.312 82.3173 246.056 81.944C245.811 81.5707 245.688 81.1493 245.688 80.68C245.688 80.104 245.837 79.6507 246.136 79.32C246.435 78.9787 246.92 78.7333 247.592 78.584C248.264 78.4347 249.165 78.36 250.296 78.36H251.096V79.512H250.312C249.651 79.512 249.123 79.544 248.728 79.608C248.333 79.672 248.051 79.784 247.88 79.944C247.72 80.0933 247.64 80.3067 247.64 80.584C247.64 80.936 247.763 81.224 248.008 81.448C248.253 81.672 248.595 81.784 249.032 81.784C249.384 81.784 249.693 81.704 249.96 81.544C250.237 81.3733 250.456 81.144 250.616 80.856C250.776 80.568 250.856 80.2373 250.856 79.864V78.024C250.856 77.4907 250.739 77.1067 250.504 76.872C250.269 76.6373 249.875 76.52 249.32 76.52C249.011 76.52 248.675 76.5573 248.312 76.632C247.96 76.7067 247.587 76.8347 247.192 77.016C246.989 77.112 246.808 77.1387 246.648 77.096C246.499 77.0533 246.381 76.968 246.296 76.84C246.211 76.7013 246.168 76.552 246.168 76.392C246.168 76.232 246.211 76.0773 246.296 75.928C246.381 75.768 246.525 75.6507 246.728 75.576C247.219 75.3733 247.688 75.2293 248.136 75.144C248.595 75.0587 249.011 75.016 249.384 75.016C250.152 75.016 250.781 75.1333 251.272 75.368C251.773 75.6027 252.147 75.96 252.392 76.44C252.637 76.9093 252.76 77.5173 252.76 78.264V82.104C252.76 82.4347 252.68 82.6907 252.52 82.872C252.36 83.0427 252.131 83.128 251.832 83.128C251.533 83.128 251.299 83.0427 251.128 82.872C250.968 82.6907 250.888 82.4347 250.888 82.104V81.336H251.016C250.941 81.7093 250.792 82.0347 250.568 82.312C250.355 82.5787 250.083 82.7867 249.752 82.936C249.421 83.0853 249.043 83.16 248.616 83.16ZM257.462 83.16C256.577 83.16 255.91 82.9093 255.462 82.408C255.014 81.896 254.79 81.1493 254.79 80.168V72.6C254.79 72.2693 254.875 72.0187 255.046 71.848C255.217 71.6773 255.462 71.592 255.782 71.592C256.102 71.592 256.347 71.6773 256.518 71.848C256.699 72.0187 256.79 72.2693 256.79 72.6V80.072C256.79 80.5627 256.891 80.9253 257.094 81.16C257.307 81.3947 257.606 81.512 257.99 81.512C258.075 81.512 258.155 81.512 258.23 81.512C258.305 81.5013 258.379 81.4907 258.454 81.48C258.603 81.4587 258.705 81.5013 258.758 81.608C258.811 81.704 258.838 81.9067 258.838 82.216C258.838 82.4827 258.785 82.6907 258.678 82.84C258.571 82.9893 258.395 83.08 258.15 83.112C258.043 83.1227 257.931 83.1333 257.814 83.144C257.697 83.1547 257.579 83.16 257.462 83.16ZM262.685 83.16C262.227 83.16 261.741 83.112 261.229 83.016C260.717 82.92 260.259 82.7547 259.853 82.52C259.683 82.4133 259.56 82.2907 259.485 82.152C259.421 82.0027 259.395 81.8587 259.405 81.72C259.427 81.5707 259.48 81.4427 259.565 81.336C259.661 81.2293 259.779 81.16 259.917 81.128C260.067 81.096 260.227 81.1227 260.397 81.208C260.824 81.4107 261.224 81.5547 261.597 81.64C261.971 81.7147 262.339 81.752 262.701 81.752C263.213 81.752 263.592 81.6667 263.837 81.496C264.093 81.3147 264.221 81.08 264.221 80.792C264.221 80.5467 264.136 80.36 263.965 80.232C263.805 80.0933 263.56 79.992 263.229 79.928L261.629 79.624C260.968 79.496 260.461 79.256 260.109 78.904C259.768 78.5413 259.597 78.0773 259.597 77.512C259.597 77 259.736 76.5573 260.013 76.184C260.301 75.8107 260.696 75.5227 261.197 75.32C261.699 75.1173 262.275 75.016 262.925 75.016C263.395 75.016 263.832 75.0693 264.237 75.176C264.653 75.272 265.053 75.4267 265.437 75.64C265.597 75.7253 265.704 75.8373 265.757 75.976C265.821 76.1147 265.837 76.2587 265.805 76.408C265.773 76.5467 265.709 76.6747 265.613 76.792C265.517 76.8987 265.395 76.968 265.245 77C265.107 77.0213 264.947 76.9893 264.765 76.904C264.435 76.7333 264.115 76.6107 263.805 76.536C263.507 76.4613 263.219 76.424 262.941 76.424C262.419 76.424 262.029 76.5147 261.773 76.696C261.528 76.8773 261.405 77.1173 261.405 77.416C261.405 77.64 261.48 77.8267 261.629 77.976C261.779 78.1253 262.008 78.2267 262.317 78.28L263.917 78.584C264.611 78.712 265.133 78.9467 265.485 79.288C265.848 79.6293 266.029 80.088 266.029 80.664C266.029 81.4427 265.725 82.056 265.117 82.504C264.509 82.9413 263.699 83.16 262.685 83.16ZM277.226 83.16C276.138 83.16 275.183 82.92 274.362 82.44C273.551 81.96 272.922 81.288 272.474 80.424C272.026 79.5493 271.802 78.5253 271.802 77.352C271.802 76.4667 271.93 75.672 272.186 74.968C272.442 74.2533 272.804 73.6453 273.274 73.144C273.754 72.632 274.324 72.2427 274.986 71.976C275.658 71.6987 276.404 71.56 277.226 71.56C278.324 71.56 279.279 71.8 280.09 72.28C280.9 72.7493 281.53 73.416 281.978 74.28C282.426 75.144 282.65 76.1627 282.65 77.336C282.65 78.2213 282.522 79.0213 282.266 79.736C282.01 80.4507 281.642 81.064 281.162 81.576C280.692 82.088 280.122 82.4827 279.45 82.76C278.788 83.0267 278.047 83.16 277.226 83.16ZM277.226 81.4C277.919 81.4 278.506 81.24 278.986 80.92C279.476 80.6 279.85 80.136 280.106 79.528C280.372 78.92 280.506 78.1947 280.506 77.352C280.506 76.072 280.218 75.08 279.642 74.376C279.076 73.672 278.271 73.32 277.226 73.32C276.543 73.32 275.956 73.48 275.466 73.8C274.975 74.1093 274.596 74.568 274.33 75.176C274.074 75.7733 273.946 76.4987 273.946 77.352C273.946 78.6213 274.234 79.6133 274.81 80.328C275.386 81.0427 276.191 81.4 277.226 81.4ZM285.532 83.128C285.212 83.128 284.967 83.0427 284.796 82.872C284.625 82.6907 284.54 82.4347 284.54 82.104V76.056C284.54 75.7253 284.625 75.4747 284.796 75.304C284.967 75.1333 285.207 75.048 285.516 75.048C285.825 75.048 286.065 75.1333 286.236 75.304C286.407 75.4747 286.492 75.7253 286.492 76.056V77.144L286.316 76.744C286.551 76.1787 286.913 75.752 287.404 75.464C287.905 75.1653 288.471 75.016 289.1 75.016C289.729 75.016 290.247 75.1333 290.652 75.368C291.057 75.6027 291.361 75.96 291.564 76.44C291.767 76.9093 291.868 77.5067 291.868 78.232V82.104C291.868 82.4347 291.783 82.6907 291.612 82.872C291.441 83.0427 291.196 83.128 290.876 83.128C290.556 83.128 290.305 83.0427 290.124 82.872C289.953 82.6907 289.868 82.4347 289.868 82.104V78.328C289.868 77.72 289.751 77.2773 289.516 77C289.292 76.7227 288.94 76.584 288.46 76.584C287.873 76.584 287.404 76.7707 287.052 77.144C286.711 77.5067 286.54 77.992 286.54 78.6V82.104C286.54 82.7867 286.204 83.128 285.532 83.128ZM296.571 83.16C295.686 83.16 295.019 82.9093 294.571 82.408C294.123 81.896 293.899 81.1493 293.899 80.168V72.6C293.899 72.2693 293.985 72.0187 294.155 71.848C294.326 71.6773 294.571 71.592 294.891 71.592C295.211 71.592 295.457 71.6773 295.627 71.848C295.809 72.0187 295.899 72.2693 295.899 72.6V80.072C295.899 80.5627 296.001 80.9253 296.203 81.16C296.417 81.3947 296.715 81.512 297.099 81.512C297.185 81.512 297.265 81.512 297.339 81.512C297.414 81.5013 297.489 81.4907 297.563 81.48C297.713 81.4587 297.814 81.5013 297.867 81.608C297.921 81.704 297.947 81.9067 297.947 82.216C297.947 82.4827 297.894 82.6907 297.787 82.84C297.681 82.9893 297.505 83.08 297.259 83.112C297.153 83.1227 297.041 83.1333 296.923 83.144C296.806 83.1547 296.689 83.16 296.571 83.16ZM300.79 86.008C300.555 86.008 300.363 85.944 300.214 85.816C300.064 85.6987 299.974 85.5387 299.942 85.336C299.92 85.1333 299.958 84.92 300.054 84.696L301.142 82.28V83.112L298.23 76.376C298.134 76.1413 298.102 75.9227 298.134 75.72C298.166 75.5173 298.262 75.3573 298.422 75.24C298.592 75.112 298.822 75.048 299.11 75.048C299.355 75.048 299.552 75.1067 299.702 75.224C299.851 75.3307 299.984 75.5387 300.102 75.848L302.262 81.24H301.782L303.99 75.832C304.107 75.5333 304.246 75.3307 304.406 75.224C304.566 75.1067 304.779 75.048 305.046 75.048C305.28 75.048 305.467 75.112 305.606 75.24C305.744 75.3573 305.83 75.5173 305.862 75.72C305.894 75.912 305.856 76.1253 305.75 76.36L301.862 85.24C301.723 85.5387 301.574 85.7413 301.414 85.848C301.254 85.9547 301.046 86.008 300.79 86.008Z" fill="white"/>
<path d="M205 74.1001C205.5 74.0001 205.9 73.4001 205.7 72.9001C205.6 72.4001 205 72.0001 204.5 72.2001C201.8 72.8001 200 75.2001 200 78.0001C200 81.3001 202.7 84.0001 206 84.0001C209.1 84.0001 211.7 81.6001 212 78.5001C212.1 78.0001 211.6 77.5001 211.1 77.4001C210.6 77.3001 210.1 77.8001 210 78.3001C209.8 80.3001 208 82.0001 206 82.0001C203.8 82.0001 202 80.2001 202 78.0001C202 76.1001 203.2 74.5001 205 74.1001Z" fill="white"/>
<path d="M215 77.0002C214.4 77.0002 214 77.4002 214 78.0002C214 82.4002 210.4 86.0002 206 86.0002C201.6 86.0002 198 82.4002 198 78.0002C198 73.8002 201.3 70.3002 205.5 70.0002C206.1 70.0002 206.5 69.5002 206.4 68.9002C206.4 68.3002 205.9 67.9002 205.3 68.0002C200.1 68.4002 196 72.7002 196 78.0002C196 83.5002 200.5 88.0002 206 88.0002C211.5 88.0002 216 83.5002 216 78.0002C216 77.4002 215.5 77.0002 215 77.0002Z" fill="white"/>
<path d="M207.9 74.7001L205.3 77.3001C204.9 77.7001 204.9 78.3001 205.3 78.7001C205.5 78.9001 205.8 79.0001 206 79.0001C206.2 79.0001 206.5 78.9001 206.7 78.7001L209.3 76.1001L211 76.6001C211.1 76.6001 211.2 76.6001 211.3 76.6001C211.6 76.6001 211.8 76.5001 212 76.3001L215.9 72.3001C216.1 72.1001 216.2 71.7001 216.2 71.4001C216.2 71.1001 215.9 70.8001 215.6 70.7001L213.8 70.1001L213.2 68.3001C213.1 68.0001 212.8 67.7001 212.5 67.7001C212.2 67.6001 211.8 67.7001 211.6 68.0001L207.7 72.0001C207.4 72.3001 207.3 72.7001 207.5 73.0001L207.9 74.7001ZM211.8 70.6001L212.1 71.3001C212.2 71.6001 212.4 71.8001 212.7 71.9001L213.4 72.2001L211 74.6001L209.8 74.2001L209.4 73.0001L211.8 70.6001Z" fill="white"/>
<path d="M383.207 84.293L378.207 79.293C377.817 78.9023 377.184 78.9023 376.793 79.293L375 81.0859L371.5 77.5859V74H373.5V75C373.5 75.5522 373.947 76 374.5 76H381.5C381.869 76 382.208 75.7969 382.382 75.4717C382.556 75.1465 382.536 74.752 382.332 74.4453L380.702 72L382.332 69.5547C382.536 69.248 382.556 68.8535 382.382 68.5283C382.208 68.2031 381.869 68 381.5 68H377.5V67C377.5 66.4478 377.053 66 376.5 66H370.5C369.947 66 369.5 66.4478 369.5 67V73V77.5859L362.793 84.293C362.507 84.5791 362.421 85.0088 362.576 85.3828C362.731 85.7563 363.096 86 363.5 86H377.5H382.5C382.905 86 383.27 85.7563 383.424 85.3828C383.579 85.0088 383.493 84.5791 383.207 84.293ZM371.5 68H375.5V69C375.5 69.5522 375.947 70 376.5 70H379.632L378.668 71.4453C378.445 71.7812 378.445 72.2188 378.668 72.5547L379.632 74H375.5V73C375.5 72.4478 375.053 72 374.5 72H371.5V68ZM365.914 84L370.5 79.4141L374.293 83.207L375.086 84H365.914ZM377.914 84L376.414 82.5L377.5 81.4141L380.086 84H377.914Z" fill="#38455D"/>
<path d="M50 67C49.4478 67 49 67.4478 49 68V68.4886C48.0616 68.1752 47.0629 68 46 68C44.3779 68 42.6245 68.5068 40.9282 68.9976C39.271 69.4766 37.5571 69.9722 35.9849 70C34.7153 70.0269 33.5771 69.7334 32.4863 69.126C32.1763 68.9536 31.7983 68.957 31.4932 69.1382C31.1875 69.3174 31 69.6455 31 70V80C31 80.3628 31.1968 80.6973 31.5137 80.874C32.6239 81.4918 33.9337 81.8124 35 81.9367V85C35 85.5522 35.4478 86 36 86C37.8481 86 39.6216 85.4702 41.3364 84.958C42.9551 84.4746 44.4839 84.0181 46.0073 84C47.0869 84.0152 48.0917 84.2246 49 84.6315V86C49 86.5522 49.4478 87 50 87C50.5522 87 51 86.5522 51 86V84V80V70V68C51 67.4478 50.5522 67 50 67ZM33 71.5342C33.9609 71.8599 34.9795 72.0137 36.0176 72C37.8574 71.9673 39.7012 71.4341 41.4839 70.9185C43.1182 70.4463 44.6616 70 46 70C47.0894 70 48.0962 70.2065 49 70.6143V78.4702C48.4453 78.2851 47.8589 78.1612 47.2651 78.0853C47.2004 78.077 47.1359 78.0702 47.0709 78.0631C46.7102 78.0244 46.3483 77.9985 45.9883 78C44.1802 78.0215 42.4434 78.54 40.7642 79.042C39.1143 79.5347 37.5562 80 36 80C35.1787 80 34.0005 79.8052 33 79.377V71.5342ZM45.9883 82C44.1802 82.0215 42.4434 82.54 40.7642 83.042C39.4673 83.4292 38.2271 83.7993 37 83.9404V81.9507C37.0756 81.9435 37.1496 81.9277 37.225 81.919C37.3767 81.9016 37.527 81.8781 37.6777 81.8552C37.9547 81.8132 38.2302 81.7661 38.504 81.709C38.6528 81.678 38.8011 81.6473 38.9489 81.6127C39.2408 81.5445 39.5306 81.471 39.8191 81.3926C39.9379 81.3603 40.0569 81.3306 40.175 81.2972C40.565 81.1869 40.9525 81.0728 41.3364 80.958C42.9551 80.4746 44.4839 80.0181 46.0073 80C46.6441 80.0102 47.2567 80.0831 47.8388 80.2238C47.8513 80.2269 47.8636 80.2304 47.876 80.2336C48.1251 80.2952 48.3662 80.3739 48.6032 80.4614C48.6675 80.4856 48.7322 80.5094 48.7959 80.5356C48.8657 80.564 48.9313 80.6011 49 80.6318V82.4702C48.0488 82.1528 47.0073 81.9932 45.9883 82Z" fill="#38455D"/>
<path d="M40.4839 78.082C42.146 77.5854 44.0303 77.0229 45.9692 77L46.0654 76.9995C46.3521 76.9995 46.6367 77.0117 46.9199 77.0342C47.2002 77.061 47.4727 76.9619 47.6782 76.7725C47.8833 76.583 48 76.3169 48 76.0376V72.0825C48 71.5957 47.6499 71.1802 47.1704 71.0972C46.7974 71.0327 46.4033 71 46 71C44.8052 71 43.3311 71.4258 41.7603 71.8794C40.001 72.3882 38.0073 72.9644 36.0366 72.9995L35.8677 73.001C35.6021 73.001 35.3379 72.9907 35.0767 72.9707C34.793 72.9468 34.5244 73.0449 34.3203 73.2344C34.1162 73.4233 34 73.6895 34 73.9678V77.896C34 78.3779 34.3438 78.7915 34.8179 78.8794C35.2378 78.957 35.6577 79 36 79C37.4097 79 38.8999 78.5552 40.4839 78.082ZM36 75L36.0625 74.9995C38.3081 74.9595 40.437 74.3438 42.3252 73.7983C43.7461 73.3877 45.0884 73 46 73V75H45.9526C43.7266 75.0264 41.6997 75.6318 39.9053 76.1675C38.4717 76.5957 37.1172 77 36 77V75Z" fill="#38455D"/>
<defs>
<filter id="filter0_i_1342_5030" x="173" y="41" width="161" height="82" filterUnits="userSpaceOnUse" color-interpolation-filters="sRGB">
<feFlood flood-opacity="0" result="BackgroundImageFix"/>
<feBlend mode="normal" in="SourceGraphic" in2="BackgroundImageFix" result="shape"/>
<feColorMatrix in="SourceAlpha" type="matrix" values="0 0 0 0 0 0 0 0 0 0 0 0 0 0 0 0 0 0 127 0" result="hardAlpha"/>
<feOffset dy="10"/>
<feGaussianBlur stdDeviation="5"/>
<feComposite in2="hardAlpha" operator="arithmetic" k2="-1" k3="1"/>
<feColorMatrix type="matrix" values="0 0 0 0 0 0 0 0 0 0 0 0 0 0 0 0 0 0 0.12 0"/>
<feBlend mode="normal" in2="shape" result="effect1_innerShadow_1342_5030"/>
</filter>
<linearGradient id="paint0_linear_1342_5030" x1="253.035" y1="41" x2="253.572" y2="112.999" gradientUnits="userSpaceOnUse">
<stop offset="0.267259" stop-opacity="0"/>
<stop offset="0.797269"/>
</linearGradient>
<linearGradient id="paint1_linear_1342_5030" x1="253.035" y1="52.5" x2="253.035" y2="85.5" gradientUnits="userSpaceOnUse">
<stop offset="0.17" stop-color="white"/>
<stop offset="1"/>
</linearGradient>
</defs>
</svg>
