<svg width="420" height="237" viewBox="0 0 420 237" fill="none" xmlns="http://www.w3.org/2000/svg">
<g filter="url(#filter0_d_978_2492)">
<g filter="url(#filter1_d_978_2492)">
<g clip-path="url(#clip0_978_2492)">
<rect x="60" y="78.5" width="300" height="94" rx="25" fill="#E8EAEF"/>
<g filter="url(#filter2_d_978_2492)">
<rect x="60" y="78.5" width="300" height="91" rx="25" fill="white" shape-rendering="crispEdges"/>
<rect x="60" y="78.5" width="300" height="91" rx="25" fill="url(#paint0_linear_978_2492)" fill-opacity="0.2" shape-rendering="crispEdges"/>
<path d="M78.086 117.626C77.7313 117.626 77.4607 117.528 77.274 117.332C77.0873 117.136 76.994 116.861 76.994 116.506V108.624C76.994 108.269 77.0873 107.994 77.274 107.798C77.4607 107.602 77.7313 107.504 78.086 107.504C78.4313 107.504 78.6973 107.602 78.884 107.798C79.0707 107.994 79.164 108.269 79.164 108.624V111.592H83.756V108.624C83.756 108.269 83.8493 107.994 84.036 107.798C84.2227 107.602 84.4887 107.504 84.834 107.504C85.1887 107.504 85.4593 107.602 85.646 107.798C85.8327 107.994 85.926 108.269 85.926 108.624V116.506C85.926 116.861 85.8327 117.136 85.646 117.332C85.4593 117.528 85.1887 117.626 84.834 117.626C84.4887 117.626 84.2227 117.528 84.036 117.332C83.8493 117.136 83.756 116.861 83.756 116.506V113.398H79.164V116.506C79.164 116.861 79.0707 117.136 78.884 117.332C78.7067 117.528 78.4407 117.626 78.086 117.626ZM91.3058 117.654C90.4938 117.654 89.7938 117.509 89.2058 117.22C88.6272 116.921 88.1792 116.506 87.8618 115.974C87.5538 115.433 87.3998 114.798 87.3998 114.07C87.3998 113.361 87.5492 112.74 87.8478 112.208C88.1465 111.667 88.5618 111.247 89.0938 110.948C89.6352 110.64 90.2465 110.486 90.9278 110.486C91.4225 110.486 91.8705 110.57 92.2718 110.738C92.6732 110.897 93.0185 111.13 93.3078 111.438C93.5972 111.737 93.8165 112.105 93.9658 112.544C94.1152 112.973 94.1898 113.454 94.1898 113.986C94.1898 114.163 94.1338 114.299 94.0218 114.392C93.9098 114.476 93.7465 114.518 93.5318 114.518H89.1358V113.426H92.6638L92.4398 113.622C92.4398 113.239 92.3838 112.922 92.2718 112.67C92.1598 112.409 91.9965 112.213 91.7818 112.082C91.5765 111.951 91.3198 111.886 91.0118 111.886C90.6665 111.886 90.3725 111.965 90.1298 112.124C89.8872 112.283 89.7005 112.511 89.5698 112.81C89.4392 113.109 89.3738 113.468 89.3738 113.888V114C89.3738 114.709 89.5372 115.232 89.8638 115.568C90.1998 115.904 90.6945 116.072 91.3478 116.072C91.5718 116.072 91.8285 116.044 92.1178 115.988C92.4072 115.932 92.6778 115.843 92.9298 115.722C93.1445 115.619 93.3358 115.587 93.5038 115.624C93.6718 115.652 93.8025 115.727 93.8958 115.848C93.9892 115.969 94.0405 116.109 94.0498 116.268C94.0685 116.427 94.0358 116.585 93.9518 116.744C93.8678 116.893 93.7278 117.019 93.5318 117.122C93.2145 117.299 92.8552 117.43 92.4538 117.514C92.0618 117.607 91.6792 117.654 91.3058 117.654ZM97.8974 117.654C97.0668 117.654 96.4461 117.425 96.0354 116.968C95.6248 116.501 95.4194 115.811 95.4194 114.896V108.582C95.4194 108.227 95.5081 107.961 95.6854 107.784C95.8721 107.597 96.1381 107.504 96.4834 107.504C96.8194 107.504 97.0761 107.597 97.2534 107.784C97.4401 107.961 97.5334 108.227 97.5334 108.582V114.812C97.5334 115.195 97.6128 115.479 97.7714 115.666C97.9394 115.843 98.1588 115.932 98.4294 115.932C98.5041 115.932 98.5741 115.927 98.6394 115.918C98.7048 115.909 98.7748 115.904 98.8494 115.904C98.9988 115.885 99.1014 115.932 99.1574 116.044C99.2228 116.147 99.2554 116.357 99.2554 116.674C99.2554 116.954 99.1994 117.169 99.0874 117.318C98.9754 117.458 98.8028 117.551 98.5694 117.598C98.4761 117.607 98.3688 117.617 98.2474 117.626C98.1261 117.645 98.0094 117.654 97.8974 117.654ZM101.146 120.146C100.8 120.146 100.534 120.053 100.348 119.866C100.17 119.689 100.082 119.423 100.082 119.068V111.578C100.082 111.233 100.17 110.971 100.348 110.794C100.534 110.607 100.791 110.514 101.118 110.514C101.463 110.514 101.724 110.607 101.902 110.794C102.079 110.971 102.168 111.233 102.168 111.578V112.53L102.014 111.984C102.154 111.536 102.434 111.177 102.854 110.906C103.283 110.626 103.773 110.486 104.324 110.486C104.921 110.486 105.444 110.631 105.892 110.92C106.349 111.209 106.704 111.62 106.956 112.152C107.208 112.684 107.334 113.319 107.334 114.056C107.334 114.793 107.208 115.433 106.956 115.974C106.704 116.515 106.354 116.931 105.906 117.22C105.458 117.509 104.93 117.654 104.324 117.654C103.782 117.654 103.302 117.523 102.882 117.262C102.462 116.991 102.177 116.641 102.028 116.212H102.196V119.068C102.196 119.423 102.102 119.689 101.916 119.866C101.738 120.053 101.482 120.146 101.146 120.146ZM103.694 116.072C103.992 116.072 104.254 115.997 104.478 115.848C104.711 115.699 104.888 115.479 105.01 115.19C105.14 114.891 105.206 114.513 105.206 114.056C105.206 113.375 105.066 112.875 104.786 112.558C104.506 112.231 104.142 112.068 103.694 112.068C103.395 112.068 103.129 112.138 102.896 112.278C102.672 112.418 102.494 112.637 102.364 112.936C102.233 113.225 102.168 113.599 102.168 114.056C102.168 114.737 102.308 115.246 102.588 115.582C102.868 115.909 103.236 116.072 103.694 116.072ZM77.572 133.584C77.388 133.584 77.244 133.532 77.14 133.428C77.036 133.324 76.984 133.176 76.984 132.984V125.58C76.984 125.38 77.032 125.228 77.128 125.124C77.232 125.012 77.368 124.956 77.536 124.956C77.68 124.956 77.788 124.984 77.86 125.04C77.94 125.088 78.032 125.18 78.136 125.316L83.08 131.832H82.78V125.544C82.78 125.36 82.828 125.216 82.924 125.112C83.028 125.008 83.172 124.956 83.356 124.956C83.548 124.956 83.692 125.008 83.788 125.112C83.884 125.216 83.932 125.36 83.932 125.544V132.996C83.932 133.18 83.884 133.324 83.788 133.428C83.7 133.532 83.58 133.584 83.428 133.584C83.284 133.584 83.164 133.556 83.068 133.5C82.98 133.444 82.884 133.348 82.78 133.212L77.86 126.708H78.136V132.984C78.136 133.176 78.088 133.324 77.992 133.428C77.896 133.532 77.756 133.584 77.572 133.584ZM88.518 133.608C87.878 133.608 87.326 133.488 86.862 133.248C86.406 133 86.05 132.652 85.794 132.204C85.546 131.748 85.422 131.208 85.422 130.584C85.422 129.976 85.546 129.444 85.794 128.988C86.042 128.532 86.382 128.176 86.814 127.92C87.246 127.664 87.738 127.536 88.29 127.536C88.698 127.536 89.062 127.604 89.382 127.74C89.702 127.868 89.974 128.06 90.198 128.316C90.43 128.564 90.602 128.868 90.714 129.228C90.834 129.588 90.894 129.992 90.894 130.44C90.894 130.576 90.854 130.68 90.774 130.752C90.694 130.816 90.574 130.848 90.414 130.848H86.382V130.104H90.078L89.874 130.272C89.874 129.872 89.814 129.532 89.694 129.252C89.582 128.972 89.41 128.76 89.178 128.616C88.954 128.464 88.674 128.388 88.338 128.388C87.962 128.388 87.642 128.476 87.378 128.652C87.122 128.828 86.926 129.072 86.79 129.384C86.654 129.696 86.586 130.06 86.586 130.476V130.548C86.586 131.252 86.75 131.784 87.078 132.144C87.414 132.496 87.898 132.672 88.53 132.672C88.77 132.672 89.022 132.64 89.286 132.576C89.558 132.512 89.814 132.404 90.054 132.252C90.19 132.172 90.31 132.136 90.414 132.144C90.526 132.152 90.614 132.188 90.678 132.252C90.75 132.316 90.794 132.396 90.81 132.492C90.826 132.588 90.81 132.688 90.762 132.792C90.714 132.888 90.63 132.976 90.51 133.056C90.238 133.24 89.922 133.38 89.562 133.476C89.202 133.564 88.854 133.608 88.518 133.608ZM94.9633 133.608C94.3233 133.608 93.7713 133.488 93.3073 133.248C92.8513 133 92.4953 132.652 92.2393 132.204C91.9913 131.748 91.8673 131.208 91.8673 130.584C91.8673 129.976 91.9913 129.444 92.2393 128.988C92.4873 128.532 92.8273 128.176 93.2593 127.92C93.6913 127.664 94.1833 127.536 94.7353 127.536C95.1433 127.536 95.5073 127.604 95.8273 127.74C96.1473 127.868 96.4193 128.06 96.6433 128.316C96.8753 128.564 97.0473 128.868 97.1593 129.228C97.2793 129.588 97.3393 129.992 97.3393 130.44C97.3393 130.576 97.2993 130.68 97.2193 130.752C97.1393 130.816 97.0193 130.848 96.8593 130.848H92.8273V130.104H96.5233L96.3193 130.272C96.3193 129.872 96.2593 129.532 96.1393 129.252C96.0273 128.972 95.8553 128.76 95.6233 128.616C95.3993 128.464 95.1193 128.388 94.7833 128.388C94.4073 128.388 94.0873 128.476 93.8233 128.652C93.5673 128.828 93.3713 129.072 93.2353 129.384C93.0993 129.696 93.0313 130.06 93.0313 130.476V130.548C93.0313 131.252 93.1953 131.784 93.5233 132.144C93.8593 132.496 94.3433 132.672 94.9753 132.672C95.2153 132.672 95.4673 132.64 95.7313 132.576C96.0033 132.512 96.2593 132.404 96.4993 132.252C96.6353 132.172 96.7553 132.136 96.8593 132.144C96.9713 132.152 97.0593 132.188 97.1233 132.252C97.1953 132.316 97.2393 132.396 97.2553 132.492C97.2713 132.588 97.2553 132.688 97.2073 132.792C97.1593 132.888 97.0753 132.976 96.9553 133.056C96.6833 133.24 96.3673 133.38 96.0073 133.476C95.6473 133.564 95.2993 133.608 94.9633 133.608ZM100.893 133.608C100.381 133.608 99.9286 133.488 99.5366 133.248C99.1526 133 98.8526 132.648 98.6366 132.192C98.4206 131.728 98.3126 131.188 98.3126 130.572C98.3126 129.94 98.4206 129.4 98.6366 128.952C98.8526 128.504 99.1526 128.156 99.5366 127.908C99.9286 127.66 100.381 127.536 100.893 127.536C101.405 127.536 101.845 127.664 102.213 127.92C102.589 128.168 102.841 128.504 102.969 128.928H102.837V125.568C102.837 125.368 102.889 125.216 102.993 125.112C103.097 125.008 103.245 124.956 103.437 124.956C103.629 124.956 103.777 125.008 103.881 125.112C103.993 125.216 104.049 125.368 104.049 125.568V132.972C104.049 133.164 103.997 133.316 103.893 133.428C103.789 133.532 103.641 133.584 103.449 133.584C103.257 133.584 103.109 133.532 103.005 133.428C102.901 133.316 102.849 133.164 102.849 132.972V131.916L102.981 132.18C102.853 132.612 102.601 132.96 102.225 133.224C101.857 133.48 101.413 133.608 100.893 133.608ZM101.205 132.672C101.533 132.672 101.821 132.592 102.069 132.432C102.317 132.272 102.509 132.036 102.645 131.724C102.789 131.412 102.861 131.028 102.861 130.572C102.861 129.884 102.709 129.364 102.405 129.012C102.101 128.66 101.701 128.484 101.205 128.484C100.869 128.484 100.577 128.564 100.329 128.724C100.081 128.876 99.8846 129.108 99.7406 129.42C99.6046 129.732 99.5366 130.116 99.5366 130.572C99.5366 131.252 99.6886 131.772 99.9926 132.132C100.297 132.492 100.701 132.672 101.205 132.672ZM108.999 133.584C108.839 133.584 108.711 133.548 108.615 133.476C108.519 133.404 108.463 133.308 108.447 133.188C108.431 133.068 108.455 132.932 108.519 132.78L111.771 125.484C111.851 125.292 111.951 125.156 112.071 125.076C112.199 124.996 112.339 124.956 112.491 124.956C112.635 124.956 112.767 124.996 112.887 125.076C113.015 125.156 113.119 125.292 113.199 125.484L116.451 132.78C116.523 132.932 116.551 133.072 116.535 133.2C116.519 133.32 116.467 133.416 116.379 133.488C116.291 133.552 116.167 133.584 116.007 133.584C115.831 133.584 115.691 133.54 115.587 133.452C115.483 133.364 115.391 133.228 115.311 133.044L114.471 131.1L115.035 131.436H109.923L110.475 131.1L109.646 133.044C109.567 133.236 109.479 133.376 109.383 133.464C109.287 133.544 109.159 133.584 108.999 133.584ZM112.467 126.42L110.655 130.716L110.355 130.428H114.591L114.315 130.716L112.491 126.42H112.467ZM119.72 133.608C119.368 133.608 119.004 133.568 118.628 133.488C118.26 133.408 117.92 133.272 117.608 133.08C117.504 133.008 117.432 132.928 117.392 132.84C117.352 132.752 117.336 132.664 117.344 132.576C117.36 132.48 117.396 132.4 117.452 132.336C117.516 132.264 117.592 132.22 117.68 132.204C117.776 132.188 117.876 132.208 117.98 132.264C118.292 132.44 118.592 132.564 118.88 132.636C119.168 132.7 119.452 132.732 119.732 132.732C120.156 132.732 120.476 132.656 120.692 132.504C120.908 132.352 121.016 132.148 121.016 131.892C121.016 131.684 120.944 131.524 120.8 131.412C120.656 131.292 120.44 131.2 120.152 131.136L119.012 130.908C118.516 130.804 118.14 130.62 117.884 130.356C117.628 130.092 117.5 129.756 117.5 129.348C117.5 128.98 117.6 128.66 117.8 128.388C118 128.116 118.28 127.908 118.64 127.764C119 127.612 119.416 127.536 119.888 127.536C120.24 127.536 120.572 127.58 120.884 127.668C121.196 127.756 121.484 127.888 121.748 128.064C121.852 128.12 121.92 128.196 121.952 128.292C121.984 128.38 121.988 128.468 121.964 128.556C121.948 128.644 121.908 128.724 121.844 128.796C121.78 128.86 121.7 128.9 121.604 128.916C121.516 128.924 121.416 128.9 121.304 128.844C121.064 128.692 120.824 128.584 120.584 128.52C120.352 128.456 120.12 128.424 119.888 128.424C119.464 128.424 119.144 128.504 118.928 128.664C118.72 128.816 118.616 129.024 118.616 129.288C118.616 129.488 118.68 129.652 118.808 129.78C118.936 129.908 119.136 130 119.408 130.056L120.548 130.284C121.068 130.388 121.46 130.564 121.724 130.812C121.996 131.06 122.132 131.396 122.132 131.82C122.132 132.372 121.912 132.808 121.472 133.128C121.032 133.448 120.448 133.608 119.72 133.608ZM125.533 133.608C125.181 133.608 124.817 133.568 124.441 133.488C124.073 133.408 123.733 133.272 123.421 133.08C123.317 133.008 123.245 132.928 123.205 132.84C123.165 132.752 123.149 132.664 123.157 132.576C123.173 132.48 123.209 132.4 123.265 132.336C123.329 132.264 123.405 132.22 123.493 132.204C123.589 132.188 123.689 132.208 123.793 132.264C124.105 132.44 124.405 132.564 124.693 132.636C124.981 132.7 125.265 132.732 125.545 132.732C125.969 132.732 126.289 132.656 126.505 132.504C126.721 132.352 126.829 132.148 126.829 131.892C126.829 131.684 126.757 131.524 126.613 131.412C126.469 131.292 126.253 131.2 125.965 131.136L124.825 130.908C124.329 130.804 123.953 130.62 123.697 130.356C123.441 130.092 123.313 129.756 123.313 129.348C123.313 128.98 123.413 128.66 123.613 128.388C123.813 128.116 124.093 127.908 124.453 127.764C124.813 127.612 125.229 127.536 125.701 127.536C126.053 127.536 126.385 127.58 126.697 127.668C127.009 127.756 127.297 127.888 127.561 128.064C127.665 128.12 127.733 128.196 127.765 128.292C127.797 128.38 127.801 128.468 127.777 128.556C127.761 128.644 127.721 128.724 127.657 128.796C127.593 128.86 127.513 128.9 127.417 128.916C127.329 128.924 127.229 128.9 127.117 128.844C126.877 128.692 126.637 128.584 126.397 128.52C126.165 128.456 125.933 128.424 125.701 128.424C125.277 128.424 124.957 128.504 124.741 128.664C124.533 128.816 124.429 129.024 124.429 129.288C124.429 129.488 124.493 129.652 124.621 129.78C124.749 129.908 124.949 130 125.221 130.056L126.361 130.284C126.881 130.388 127.273 130.564 127.537 130.812C127.809 131.06 127.945 131.396 127.945 131.82C127.945 132.372 127.725 132.808 127.285 133.128C126.845 133.448 126.261 133.608 125.533 133.608ZM129.893 133.572C129.701 133.572 129.553 133.516 129.449 133.404C129.345 133.284 129.293 133.12 129.293 132.912V128.232C129.293 128.024 129.345 127.864 129.449 127.752C129.553 127.64 129.701 127.584 129.893 127.584C130.085 127.584 130.233 127.64 130.337 127.752C130.449 127.864 130.505 128.024 130.505 128.232V132.912C130.505 133.12 130.453 133.284 130.349 133.404C130.245 133.516 130.093 133.572 129.893 133.572ZM129.893 126.336C129.653 126.336 129.465 126.276 129.329 126.156C129.201 126.036 129.137 125.868 129.137 125.652C129.137 125.428 129.201 125.26 129.329 125.148C129.465 125.028 129.653 124.968 129.893 124.968C130.133 124.968 130.317 125.028 130.445 125.148C130.581 125.26 130.649 125.428 130.649 125.652C130.649 125.868 130.581 126.036 130.445 126.156C130.317 126.276 130.133 126.336 129.893 126.336ZM134.263 133.608C133.911 133.608 133.547 133.568 133.171 133.488C132.803 133.408 132.463 133.272 132.151 133.08C132.047 133.008 131.975 132.928 131.935 132.84C131.895 132.752 131.879 132.664 131.887 132.576C131.903 132.48 131.939 132.4 131.995 132.336C132.059 132.264 132.135 132.22 132.223 132.204C132.319 132.188 132.419 132.208 132.523 132.264C132.835 132.44 133.135 132.564 133.423 132.636C133.711 132.7 133.995 132.732 134.275 132.732C134.699 132.732 135.019 132.656 135.235 132.504C135.451 132.352 135.559 132.148 135.559 131.892C135.559 131.684 135.487 131.524 135.343 131.412C135.199 131.292 134.983 131.2 134.695 131.136L133.555 130.908C133.059 130.804 132.683 130.62 132.427 130.356C132.171 130.092 132.043 129.756 132.043 129.348C132.043 128.98 132.143 128.66 132.343 128.388C132.543 128.116 132.823 127.908 133.183 127.764C133.543 127.612 133.959 127.536 134.431 127.536C134.783 127.536 135.115 127.58 135.427 127.668C135.739 127.756 136.027 127.888 136.291 128.064C136.395 128.12 136.463 128.196 136.495 128.292C136.527 128.38 136.531 128.468 136.507 128.556C136.491 128.644 136.451 128.724 136.387 128.796C136.323 128.86 136.243 128.9 136.147 128.916C136.059 128.924 135.959 128.9 135.847 128.844C135.607 128.692 135.367 128.584 135.127 128.52C134.895 128.456 134.663 128.424 134.431 128.424C134.007 128.424 133.687 128.504 133.471 128.664C133.263 128.816 133.159 129.024 133.159 129.288C133.159 129.488 133.223 129.652 133.351 129.78C133.479 129.908 133.679 130 133.951 130.056L135.091 130.284C135.611 130.388 136.003 130.564 136.267 130.812C136.539 131.06 136.675 131.396 136.675 131.82C136.675 132.372 136.455 132.808 136.015 133.128C135.575 133.448 134.991 133.608 134.263 133.608ZM140.461 133.608C139.981 133.608 139.577 133.524 139.249 133.356C138.921 133.188 138.677 132.94 138.517 132.612C138.357 132.284 138.277 131.884 138.277 131.412V128.58H137.557C137.397 128.58 137.273 128.54 137.185 128.46C137.097 128.372 137.053 128.256 137.053 128.112C137.053 127.96 137.097 127.844 137.185 127.764C137.273 127.684 137.397 127.644 137.557 127.644H138.277V126.408C138.277 126.208 138.329 126.056 138.433 125.952C138.545 125.848 138.697 125.796 138.889 125.796C139.081 125.796 139.229 125.848 139.333 125.952C139.437 126.056 139.489 126.208 139.489 126.408V127.644H140.893C141.053 127.644 141.177 127.684 141.265 127.764C141.353 127.844 141.397 127.96 141.397 128.112C141.397 128.256 141.353 128.372 141.265 128.46C141.177 128.54 141.053 128.58 140.893 128.58H139.489V131.316C139.489 131.74 139.577 132.06 139.753 132.276C139.937 132.492 140.233 132.6 140.641 132.6C140.785 132.6 140.909 132.588 141.013 132.564C141.125 132.532 141.217 132.512 141.289 132.504C141.377 132.504 141.449 132.536 141.505 132.6C141.561 132.656 141.589 132.768 141.589 132.936C141.589 133.056 141.565 133.168 141.517 133.272C141.477 133.376 141.401 133.444 141.289 133.476C141.193 133.508 141.061 133.536 140.893 133.56C140.733 133.592 140.589 133.608 140.461 133.608ZM144.22 133.608C143.812 133.608 143.444 133.528 143.116 133.368C142.796 133.208 142.544 132.992 142.36 132.72C142.176 132.448 142.084 132.14 142.084 131.796C142.084 131.364 142.192 131.024 142.408 130.776C142.632 130.52 142.996 130.34 143.5 130.236C144.012 130.124 144.7 130.068 145.564 130.068H146.128V130.812H145.576C145 130.812 144.544 130.84 144.208 130.896C143.872 130.952 143.632 131.048 143.488 131.184C143.352 131.312 143.284 131.492 143.284 131.724C143.284 132.028 143.388 132.276 143.596 132.468C143.804 132.652 144.092 132.744 144.46 132.744C144.756 132.744 145.016 132.676 145.24 132.54C145.464 132.396 145.64 132.204 145.768 131.964C145.904 131.724 145.972 131.448 145.972 131.136V129.756C145.972 129.3 145.876 128.972 145.684 128.772C145.492 128.572 145.176 128.472 144.736 128.472C144.48 128.472 144.212 128.504 143.932 128.568C143.66 128.632 143.376 128.74 143.08 128.892C142.944 128.956 142.828 128.976 142.732 128.952C142.636 128.928 142.56 128.876 142.504 128.796C142.448 128.708 142.416 128.616 142.408 128.52C142.408 128.416 142.432 128.316 142.48 128.22C142.536 128.124 142.628 128.052 142.756 128.004C143.108 127.836 143.456 127.716 143.8 127.644C144.144 127.572 144.468 127.536 144.772 127.536C145.308 127.536 145.748 127.62 146.092 127.788C146.444 127.956 146.704 128.212 146.872 128.556C147.04 128.9 147.124 129.344 147.124 129.888V132.972C147.124 133.164 147.076 133.316 146.98 133.428C146.884 133.532 146.744 133.584 146.56 133.584C146.384 133.584 146.244 133.532 146.14 133.428C146.036 133.316 145.984 133.164 145.984 132.972V132.192H146.092C146.028 132.488 145.908 132.744 145.732 132.96C145.564 133.168 145.352 133.328 145.096 133.44C144.84 133.552 144.548 133.608 144.22 133.608ZM149.393 133.584C149.201 133.584 149.053 133.532 148.949 133.428C148.845 133.316 148.793 133.164 148.793 132.972V128.172C148.793 127.972 148.845 127.82 148.949 127.716C149.053 127.612 149.197 127.56 149.381 127.56C149.573 127.56 149.717 127.612 149.813 127.716C149.917 127.82 149.969 127.972 149.969 128.172V129.108L149.837 128.892C150.013 128.444 150.289 128.108 150.665 127.884C151.041 127.652 151.473 127.536 151.961 127.536C152.425 127.536 152.809 127.624 153.113 127.8C153.425 127.968 153.657 128.228 153.809 128.58C153.961 128.924 154.037 129.36 154.037 129.888V132.972C154.037 133.164 153.985 133.316 153.881 133.428C153.777 133.532 153.629 133.584 153.437 133.584C153.237 133.584 153.085 133.532 152.981 133.428C152.877 133.316 152.825 133.164 152.825 132.972V129.96C152.825 129.456 152.725 129.088 152.525 128.856C152.333 128.624 152.029 128.508 151.613 128.508C151.125 128.508 150.733 128.66 150.437 128.964C150.149 129.268 150.005 129.676 150.005 130.188V132.972C150.005 133.38 149.801 133.584 149.393 133.584ZM158.287 133.608C157.687 133.608 157.167 133.484 156.727 133.236C156.295 132.98 155.959 132.624 155.719 132.168C155.479 131.704 155.359 131.16 155.359 130.536C155.359 130.072 155.427 129.656 155.563 129.288C155.699 128.912 155.891 128.596 156.139 128.34C156.395 128.084 156.703 127.888 157.063 127.752C157.431 127.608 157.839 127.536 158.287 127.536C158.567 127.536 158.859 127.58 159.163 127.668C159.475 127.748 159.763 127.884 160.027 128.076C160.131 128.14 160.195 128.22 160.219 128.316C160.251 128.404 160.255 128.496 160.231 128.592C160.215 128.688 160.171 128.772 160.099 128.844C160.035 128.908 159.955 128.948 159.859 128.964C159.763 128.972 159.659 128.944 159.547 128.88C159.355 128.744 159.159 128.648 158.959 128.592C158.759 128.528 158.567 128.496 158.383 128.496C158.095 128.496 157.839 128.544 157.615 128.64C157.399 128.728 157.215 128.86 157.063 129.036C156.911 129.204 156.795 129.416 156.715 129.672C156.643 129.928 156.607 130.22 156.607 130.548C156.607 131.204 156.759 131.72 157.063 132.096C157.375 132.464 157.815 132.648 158.383 132.648C158.567 132.648 158.759 132.62 158.959 132.564C159.159 132.508 159.355 132.412 159.547 132.276C159.659 132.212 159.763 132.188 159.859 132.204C159.955 132.22 160.031 132.264 160.087 132.336C160.151 132.4 160.191 132.48 160.207 132.576C160.231 132.664 160.227 132.756 160.195 132.852C160.163 132.948 160.095 133.028 159.991 133.092C159.735 133.276 159.455 133.408 159.151 133.488C158.855 133.568 158.567 133.608 158.287 133.608ZM163.94 133.608C163.3 133.608 162.748 133.488 162.284 133.248C161.828 133 161.472 132.652 161.216 132.204C160.968 131.748 160.844 131.208 160.844 130.584C160.844 129.976 160.968 129.444 161.216 128.988C161.464 128.532 161.804 128.176 162.236 127.92C162.668 127.664 163.16 127.536 163.712 127.536C164.12 127.536 164.484 127.604 164.804 127.74C165.124 127.868 165.396 128.06 165.62 128.316C165.852 128.564 166.024 128.868 166.136 129.228C166.256 129.588 166.316 129.992 166.316 130.44C166.316 130.576 166.276 130.68 166.196 130.752C166.116 130.816 165.996 130.848 165.836 130.848H161.804V130.104H165.5L165.296 130.272C165.296 129.872 165.236 129.532 165.116 129.252C165.004 128.972 164.832 128.76 164.6 128.616C164.376 128.464 164.096 128.388 163.76 128.388C163.384 128.388 163.064 128.476 162.8 128.652C162.544 128.828 162.348 129.072 162.212 129.384C162.076 129.696 162.008 130.06 162.008 130.476V130.548C162.008 131.252 162.172 131.784 162.5 132.144C162.836 132.496 163.32 132.672 163.952 132.672C164.192 132.672 164.444 132.64 164.708 132.576C164.98 132.512 165.236 132.404 165.476 132.252C165.612 132.172 165.732 132.136 165.836 132.144C165.948 132.152 166.036 132.188 166.1 132.252C166.172 132.316 166.216 132.396 166.232 132.492C166.248 132.588 166.232 132.688 166.184 132.792C166.136 132.888 166.052 132.976 165.932 133.056C165.66 133.24 165.344 133.38 164.984 133.476C164.624 133.564 164.276 133.608 163.94 133.608ZM169.248 131.208C169.128 131.208 169.032 131.168 168.96 131.088C168.888 131 168.852 130.888 168.852 130.752C168.852 130.488 168.884 130.24 168.948 130.008C169.012 129.768 169.116 129.528 169.26 129.288C169.404 129.048 169.596 128.792 169.836 128.52C170.028 128.304 170.176 128.112 170.28 127.944C170.392 127.776 170.472 127.616 170.52 127.464C170.568 127.304 170.592 127.14 170.592 126.972C170.592 126.668 170.484 126.428 170.268 126.252C170.052 126.076 169.748 125.988 169.356 125.988C169.012 125.988 168.696 126.04 168.408 126.144C168.12 126.24 167.84 126.38 167.568 126.564C167.416 126.66 167.28 126.704 167.16 126.696C167.048 126.688 166.952 126.652 166.872 126.588C166.8 126.516 166.752 126.428 166.728 126.324C166.712 126.212 166.728 126.1 166.776 125.988C166.832 125.868 166.928 125.76 167.064 125.664C167.384 125.432 167.756 125.252 168.18 125.124C168.604 124.996 169.02 124.932 169.428 124.932C169.908 124.932 170.328 125.012 170.688 125.172C171.048 125.332 171.328 125.556 171.528 125.844C171.728 126.132 171.828 126.472 171.828 126.864C171.828 127.112 171.792 127.348 171.72 127.572C171.648 127.796 171.532 128.024 171.372 128.256C171.22 128.48 171.004 128.728 170.724 129C170.476 129.248 170.276 129.476 170.124 129.684C169.972 129.884 169.86 130.08 169.788 130.272C169.724 130.456 169.68 130.652 169.656 130.86C169.648 130.964 169.608 131.048 169.536 131.112C169.464 131.176 169.368 131.208 169.248 131.208ZM169.236 133.548C169.004 133.548 168.816 133.476 168.672 133.332C168.528 133.188 168.456 133.004 168.456 132.78C168.456 132.556 168.528 132.376 168.672 132.24C168.816 132.096 169.004 132.024 169.236 132.024C169.476 132.024 169.66 132.096 169.788 132.24C169.924 132.376 169.992 132.556 169.992 132.78C169.992 133.004 169.924 133.188 169.788 133.332C169.66 133.476 169.476 133.548 169.236 133.548ZM173.51 133.548C173.278 133.548 173.09 133.476 172.946 133.332C172.802 133.188 172.73 133.004 172.73 132.78C172.73 132.556 172.802 132.376 172.946 132.24C173.09 132.096 173.278 132.024 173.51 132.024C173.742 132.024 173.926 132.096 174.062 132.24C174.198 132.376 174.266 132.556 174.266 132.78C174.266 133.004 174.198 133.188 174.062 133.332C173.926 133.476 173.742 133.548 173.51 133.548ZM173.51 129.12C173.278 129.12 173.09 129.048 172.946 128.904C172.802 128.76 172.73 128.58 172.73 128.364C172.73 128.132 172.802 127.948 172.946 127.812C173.09 127.668 173.278 127.596 173.51 127.596C173.742 127.596 173.926 127.668 174.062 127.812C174.198 127.948 174.266 128.132 174.266 128.364C174.266 128.58 174.198 128.76 174.062 128.904C173.926 129.048 173.742 129.12 173.51 129.12ZM182.282 133.584C182.106 133.584 181.958 133.544 181.838 133.464C181.726 133.376 181.634 133.248 181.562 133.08L178.334 125.772C178.27 125.604 178.254 125.46 178.286 125.34C178.318 125.22 178.382 125.128 178.478 125.064C178.582 124.992 178.706 124.956 178.85 124.956C179.034 124.956 179.174 124.996 179.27 125.076C179.366 125.156 179.446 125.276 179.51 125.436L182.534 132.444H182.09L185.09 125.424C185.162 125.272 185.246 125.156 185.342 125.076C185.446 124.996 185.586 124.956 185.762 124.956C185.906 124.956 186.022 124.992 186.11 125.064C186.206 125.128 186.266 125.22 186.29 125.34C186.314 125.46 186.29 125.604 186.218 125.772L183.002 133.08C182.93 133.248 182.838 133.376 182.726 133.464C182.614 133.544 182.466 133.584 182.282 133.584ZM188.358 133.572C188.166 133.572 188.018 133.516 187.914 133.404C187.81 133.284 187.758 133.12 187.758 132.912V128.232C187.758 128.024 187.81 127.864 187.914 127.752C188.018 127.64 188.166 127.584 188.358 127.584C188.55 127.584 188.698 127.64 188.802 127.752C188.914 127.864 188.97 128.024 188.97 128.232V132.912C188.97 133.12 188.918 133.284 188.814 133.404C188.71 133.516 188.558 133.572 188.358 133.572ZM188.358 126.336C188.118 126.336 187.93 126.276 187.794 126.156C187.666 126.036 187.602 125.868 187.602 125.652C187.602 125.428 187.666 125.26 187.794 125.148C187.93 125.028 188.118 124.968 188.358 124.968C188.598 124.968 188.782 125.028 188.91 125.148C189.046 125.26 189.114 125.428 189.114 125.652C189.114 125.868 189.046 126.036 188.91 126.156C188.782 126.276 188.598 126.336 188.358 126.336ZM192.728 133.608C192.376 133.608 192.012 133.568 191.636 133.488C191.268 133.408 190.928 133.272 190.616 133.08C190.512 133.008 190.44 132.928 190.4 132.84C190.36 132.752 190.344 132.664 190.352 132.576C190.368 132.48 190.404 132.4 190.46 132.336C190.524 132.264 190.6 132.22 190.688 132.204C190.784 132.188 190.884 132.208 190.988 132.264C191.3 132.44 191.6 132.564 191.888 132.636C192.176 132.7 192.46 132.732 192.74 132.732C193.164 132.732 193.484 132.656 193.7 132.504C193.916 132.352 194.024 132.148 194.024 131.892C194.024 131.684 193.952 131.524 193.808 131.412C193.664 131.292 193.448 131.2 193.16 131.136L192.02 130.908C191.524 130.804 191.148 130.62 190.892 130.356C190.636 130.092 190.508 129.756 190.508 129.348C190.508 128.98 190.608 128.66 190.808 128.388C191.008 128.116 191.288 127.908 191.648 127.764C192.008 127.612 192.424 127.536 192.896 127.536C193.248 127.536 193.58 127.58 193.892 127.668C194.204 127.756 194.492 127.888 194.756 128.064C194.86 128.12 194.928 128.196 194.96 128.292C194.992 128.38 194.996 128.468 194.972 128.556C194.956 128.644 194.916 128.724 194.852 128.796C194.788 128.86 194.708 128.9 194.612 128.916C194.524 128.924 194.424 128.9 194.312 128.844C194.072 128.692 193.832 128.584 193.592 128.52C193.36 128.456 193.128 128.424 192.896 128.424C192.472 128.424 192.152 128.504 191.936 128.664C191.728 128.816 191.624 129.024 191.624 129.288C191.624 129.488 191.688 129.652 191.816 129.78C191.944 129.908 192.144 130 192.416 130.056L193.556 130.284C194.076 130.388 194.468 130.564 194.732 130.812C195.004 131.06 195.14 131.396 195.14 131.82C195.14 132.372 194.92 132.808 194.48 133.128C194.04 133.448 193.456 133.608 192.728 133.608ZM197.089 133.572C196.897 133.572 196.749 133.516 196.645 133.404C196.541 133.284 196.489 133.12 196.489 132.912V128.232C196.489 128.024 196.541 127.864 196.645 127.752C196.749 127.64 196.897 127.584 197.089 127.584C197.281 127.584 197.429 127.64 197.533 127.752C197.645 127.864 197.701 128.024 197.701 128.232V132.912C197.701 133.12 197.649 133.284 197.545 133.404C197.441 133.516 197.289 133.572 197.089 133.572ZM197.089 126.336C196.849 126.336 196.661 126.276 196.525 126.156C196.397 126.036 196.333 125.868 196.333 125.652C196.333 125.428 196.397 125.26 196.525 125.148C196.661 125.028 196.849 124.968 197.089 124.968C197.329 124.968 197.513 125.028 197.641 125.148C197.777 125.26 197.845 125.428 197.845 125.652C197.845 125.868 197.777 126.036 197.641 126.156C197.513 126.276 197.329 126.336 197.089 126.336ZM201.903 133.608C201.423 133.608 201.019 133.524 200.691 133.356C200.363 133.188 200.119 132.94 199.959 132.612C199.799 132.284 199.719 131.884 199.719 131.412V128.58H198.999C198.839 128.58 198.715 128.54 198.627 128.46C198.539 128.372 198.495 128.256 198.495 128.112C198.495 127.96 198.539 127.844 198.627 127.764C198.715 127.684 198.839 127.644 198.999 127.644H199.719V126.408C199.719 126.208 199.771 126.056 199.875 125.952C199.987 125.848 200.139 125.796 200.331 125.796C200.523 125.796 200.671 125.848 200.775 125.952C200.879 126.056 200.931 126.208 200.931 126.408V127.644H202.335C202.495 127.644 202.619 127.684 202.707 127.764C202.795 127.844 202.839 127.96 202.839 128.112C202.839 128.256 202.795 128.372 202.707 128.46C202.619 128.54 202.495 128.58 202.335 128.58H200.931V131.316C200.931 131.74 201.019 132.06 201.195 132.276C201.379 132.492 201.675 132.6 202.083 132.6C202.227 132.6 202.351 132.588 202.455 132.564C202.567 132.532 202.659 132.512 202.731 132.504C202.819 132.504 202.891 132.536 202.947 132.6C203.003 132.656 203.031 132.768 203.031 132.936C203.031 133.056 203.007 133.168 202.959 133.272C202.919 133.376 202.843 133.444 202.731 133.476C202.635 133.508 202.503 133.536 202.335 133.56C202.175 133.592 202.031 133.608 201.903 133.608ZM209.498 133.608C208.906 133.608 208.394 133.484 207.962 133.236C207.538 132.988 207.206 132.636 206.966 132.18C206.726 131.724 206.606 131.188 206.606 130.572C206.606 130.1 206.674 129.68 206.81 129.312C206.946 128.944 207.138 128.628 207.386 128.364C207.642 128.092 207.946 127.888 208.298 127.752C208.658 127.608 209.058 127.536 209.498 127.536C210.082 127.536 210.586 127.66 211.01 127.908C211.442 128.156 211.778 128.508 212.018 128.964C212.258 129.412 212.378 129.948 212.378 130.572C212.378 131.036 212.31 131.456 212.174 131.832C212.038 132.208 211.842 132.528 211.586 132.792C211.338 133.056 211.034 133.26 210.674 133.404C210.322 133.54 209.93 133.608 209.498 133.608ZM209.498 132.672C209.826 132.672 210.114 132.592 210.362 132.432C210.61 132.272 210.802 132.036 210.938 131.724C211.082 131.412 211.154 131.028 211.154 130.572C211.154 129.884 211.002 129.364 210.698 129.012C210.394 128.66 209.994 128.484 209.498 128.484C209.162 128.484 208.87 128.564 208.622 128.724C208.374 128.876 208.178 129.108 208.034 129.42C207.898 129.732 207.83 130.116 207.83 130.572C207.83 131.252 207.982 131.772 208.286 132.132C208.59 132.492 208.994 132.672 209.498 132.672ZM215.827 133.608C215.355 133.608 214.959 133.52 214.639 133.344C214.327 133.168 214.091 132.908 213.931 132.564C213.779 132.212 213.703 131.772 213.703 131.244V128.172C213.703 127.964 213.755 127.812 213.859 127.716C213.963 127.612 214.111 127.56 214.303 127.56C214.495 127.56 214.643 127.612 214.747 127.716C214.859 127.812 214.915 127.964 214.915 128.172V131.256C214.915 131.728 215.011 132.076 215.203 132.3C215.395 132.524 215.699 132.636 216.115 132.636C216.571 132.636 216.939 132.484 217.219 132.18C217.507 131.868 217.651 131.46 217.651 130.956V128.172C217.651 127.964 217.703 127.812 217.807 127.716C217.911 127.612 218.063 127.56 218.263 127.56C218.455 127.56 218.603 127.612 218.707 127.716C218.811 127.812 218.863 127.964 218.863 128.172V132.972C218.863 133.38 218.667 133.584 218.275 133.584C218.091 133.584 217.947 133.532 217.843 133.428C217.739 133.316 217.687 133.164 217.687 132.972V131.952L217.843 132.216C217.683 132.664 217.427 133.008 217.075 133.248C216.723 133.488 216.307 133.608 215.827 133.608ZM221.183 133.584C220.983 133.584 220.831 133.532 220.727 133.428C220.623 133.316 220.571 133.164 220.571 132.972V128.172C220.571 127.972 220.623 127.82 220.727 127.716C220.831 127.612 220.975 127.56 221.159 127.56C221.351 127.56 221.495 127.612 221.591 127.716C221.695 127.82 221.747 127.972 221.747 128.172V129.048H221.627C221.755 128.568 221.991 128.204 222.335 127.956C222.679 127.708 223.119 127.564 223.655 127.524C223.799 127.516 223.911 127.552 223.991 127.632C224.079 127.712 224.127 127.836 224.135 128.004C224.151 128.172 224.115 128.308 224.027 128.412C223.939 128.508 223.803 128.564 223.619 128.58L223.391 128.604C222.871 128.652 222.475 128.816 222.203 129.096C221.931 129.376 221.795 129.76 221.795 130.248V132.972C221.795 133.164 221.743 133.316 221.639 133.428C221.543 133.532 221.391 133.584 221.183 133.584ZM228.811 133.584C228.619 133.584 228.471 133.532 228.367 133.428C228.263 133.316 228.211 133.164 228.211 132.972V125.568C228.211 125.368 228.263 125.216 228.367 125.112C228.471 125.008 228.619 124.956 228.811 124.956C229.003 124.956 229.151 125.008 229.255 125.112C229.367 125.216 229.423 125.368 229.423 125.568V128.892H229.255C229.431 128.444 229.707 128.108 230.083 127.884C230.459 127.652 230.891 127.536 231.379 127.536C231.843 127.536 232.227 127.624 232.531 127.8C232.843 127.968 233.075 128.228 233.227 128.58C233.379 128.924 233.455 129.36 233.455 129.888V132.972C233.455 133.164 233.403 133.316 233.299 133.428C233.195 133.532 233.047 133.584 232.855 133.584C232.655 133.584 232.503 133.532 232.399 133.428C232.295 133.316 232.243 133.164 232.243 132.972V129.96C232.243 129.456 232.143 129.088 231.943 128.856C231.751 128.624 231.447 128.508 231.031 128.508C230.543 128.508 230.151 128.66 229.855 128.964C229.567 129.268 229.423 129.676 229.423 130.188V132.972C229.423 133.38 229.219 133.584 228.811 133.584ZM237.873 133.608C237.233 133.608 236.681 133.488 236.217 133.248C235.761 133 235.405 132.652 235.149 132.204C234.901 131.748 234.777 131.208 234.777 130.584C234.777 129.976 234.901 129.444 235.149 128.988C235.397 128.532 235.737 128.176 236.169 127.92C236.601 127.664 237.093 127.536 237.645 127.536C238.053 127.536 238.417 127.604 238.737 127.74C239.057 127.868 239.329 128.06 239.553 128.316C239.785 128.564 239.957 128.868 240.069 129.228C240.189 129.588 240.249 129.992 240.249 130.44C240.249 130.576 240.209 130.68 240.129 130.752C240.049 130.816 239.929 130.848 239.769 130.848H235.737V130.104H239.433L239.229 130.272C239.229 129.872 239.169 129.532 239.049 129.252C238.937 128.972 238.765 128.76 238.533 128.616C238.309 128.464 238.029 128.388 237.693 128.388C237.317 128.388 236.997 128.476 236.733 128.652C236.477 128.828 236.281 129.072 236.145 129.384C236.009 129.696 235.941 130.06 235.941 130.476V130.548C235.941 131.252 236.105 131.784 236.433 132.144C236.769 132.496 237.253 132.672 237.885 132.672C238.125 132.672 238.377 132.64 238.641 132.576C238.913 132.512 239.169 132.404 239.409 132.252C239.545 132.172 239.665 132.136 239.769 132.144C239.881 132.152 239.969 132.188 240.033 132.252C240.105 132.316 240.149 132.396 240.165 132.492C240.181 132.588 240.165 132.688 240.117 132.792C240.069 132.888 239.985 132.976 239.865 133.056C239.593 133.24 239.277 133.38 238.917 133.476C238.557 133.564 238.209 133.608 237.873 133.608ZM243.455 133.608C242.831 133.608 242.359 133.428 242.039 133.068C241.727 132.7 241.571 132.172 241.571 131.484V125.568C241.571 125.368 241.623 125.216 241.727 125.112C241.831 125.008 241.979 124.956 242.171 124.956C242.363 124.956 242.511 125.008 242.615 125.112C242.727 125.216 242.783 125.368 242.783 125.568V131.412C242.783 131.812 242.863 132.112 243.023 132.312C243.191 132.504 243.431 132.6 243.743 132.6C243.815 132.6 243.879 132.6 243.935 132.6C243.991 132.592 244.047 132.584 244.103 132.576C244.199 132.568 244.267 132.596 244.307 132.66C244.347 132.716 244.367 132.836 244.367 133.02C244.367 133.188 244.331 133.32 244.259 133.416C244.187 133.504 244.071 133.56 243.911 133.584C243.839 133.592 243.763 133.596 243.683 133.596C243.603 133.604 243.527 133.608 243.455 133.608ZM245.839 135.744C245.647 135.744 245.499 135.692 245.395 135.588C245.291 135.484 245.239 135.332 245.239 135.132V128.172C245.239 127.972 245.291 127.82 245.395 127.716C245.499 127.612 245.643 127.56 245.827 127.56C246.019 127.56 246.167 127.612 246.271 127.716C246.375 127.82 246.427 127.972 246.427 128.172V129.216L246.295 128.964C246.423 128.532 246.675 128.188 247.051 127.932C247.427 127.668 247.871 127.536 248.383 127.536C248.903 127.536 249.355 127.66 249.739 127.908C250.131 128.156 250.431 128.504 250.639 128.952C250.855 129.4 250.963 129.94 250.963 130.572C250.963 131.188 250.855 131.728 250.639 132.192C250.431 132.648 250.135 133 249.751 133.248C249.367 133.488 248.911 133.608 248.383 133.608C247.879 133.608 247.439 133.48 247.063 133.224C246.687 132.968 246.435 132.628 246.307 132.204H246.451V135.132C246.451 135.332 246.395 135.484 246.283 135.588C246.179 135.692 246.031 135.744 245.839 135.744ZM248.083 132.672C248.419 132.672 248.711 132.592 248.959 132.432C249.207 132.272 249.399 132.036 249.535 131.724C249.671 131.412 249.739 131.028 249.739 130.572C249.739 129.884 249.587 129.364 249.283 129.012C248.987 128.66 248.587 128.484 248.083 128.484C247.755 128.484 247.463 128.564 247.207 128.724C246.959 128.876 246.767 129.108 246.631 129.42C246.495 129.732 246.427 130.116 246.427 130.572C246.427 131.252 246.579 131.772 246.883 132.132C247.187 132.492 247.587 132.672 248.083 132.672ZM258.073 133.608C257.473 133.608 256.953 133.484 256.513 133.236C256.081 132.98 255.745 132.624 255.505 132.168C255.265 131.704 255.145 131.16 255.145 130.536C255.145 130.072 255.213 129.656 255.349 129.288C255.485 128.912 255.677 128.596 255.925 128.34C256.181 128.084 256.489 127.888 256.849 127.752C257.217 127.608 257.625 127.536 258.073 127.536C258.353 127.536 258.645 127.58 258.949 127.668C259.261 127.748 259.549 127.884 259.813 128.076C259.917 128.14 259.981 128.22 260.005 128.316C260.037 128.404 260.041 128.496 260.017 128.592C260.001 128.688 259.957 128.772 259.885 128.844C259.821 128.908 259.741 128.948 259.645 128.964C259.549 128.972 259.445 128.944 259.333 128.88C259.141 128.744 258.945 128.648 258.745 128.592C258.545 128.528 258.353 128.496 258.169 128.496C257.881 128.496 257.625 128.544 257.401 128.64C257.185 128.728 257.001 128.86 256.849 129.036C256.697 129.204 256.581 129.416 256.501 129.672C256.429 129.928 256.393 130.22 256.393 130.548C256.393 131.204 256.545 131.72 256.849 132.096C257.161 132.464 257.601 132.648 258.169 132.648C258.353 132.648 258.545 132.62 258.745 132.564C258.945 132.508 259.141 132.412 259.333 132.276C259.445 132.212 259.549 132.188 259.645 132.204C259.741 132.22 259.817 132.264 259.873 132.336C259.937 132.4 259.977 132.48 259.993 132.576C260.017 132.664 260.013 132.756 259.981 132.852C259.949 132.948 259.881 133.028 259.777 133.092C259.521 133.276 259.241 133.408 258.937 133.488C258.641 133.568 258.353 133.608 258.073 133.608ZM263.725 133.608C263.085 133.608 262.533 133.488 262.069 133.248C261.613 133 261.257 132.652 261.001 132.204C260.753 131.748 260.629 131.208 260.629 130.584C260.629 129.976 260.753 129.444 261.001 128.988C261.249 128.532 261.589 128.176 262.021 127.92C262.453 127.664 262.945 127.536 263.497 127.536C263.905 127.536 264.269 127.604 264.589 127.74C264.909 127.868 265.181 128.06 265.405 128.316C265.637 128.564 265.809 128.868 265.921 129.228C266.041 129.588 266.101 129.992 266.101 130.44C266.101 130.576 266.061 130.68 265.981 130.752C265.901 130.816 265.781 130.848 265.621 130.848H261.589V130.104H265.285L265.081 130.272C265.081 129.872 265.021 129.532 264.901 129.252C264.789 128.972 264.617 128.76 264.385 128.616C264.161 128.464 263.881 128.388 263.545 128.388C263.169 128.388 262.849 128.476 262.585 128.652C262.329 128.828 262.133 129.072 261.997 129.384C261.861 129.696 261.793 130.06 261.793 130.476V130.548C261.793 131.252 261.957 131.784 262.285 132.144C262.621 132.496 263.105 132.672 263.737 132.672C263.977 132.672 264.229 132.64 264.493 132.576C264.765 132.512 265.021 132.404 265.261 132.252C265.397 132.172 265.517 132.136 265.621 132.144C265.733 132.152 265.821 132.188 265.885 132.252C265.957 132.316 266.001 132.396 266.017 132.492C266.033 132.588 266.017 132.688 265.969 132.792C265.921 132.888 265.837 132.976 265.717 133.056C265.445 133.24 265.129 133.38 264.769 133.476C264.409 133.564 264.061 133.608 263.725 133.608ZM268.022 133.584C267.83 133.584 267.682 133.532 267.578 133.428C267.474 133.316 267.422 133.164 267.422 132.972V128.172C267.422 127.972 267.474 127.82 267.578 127.716C267.682 127.612 267.826 127.56 268.01 127.56C268.202 127.56 268.346 127.612 268.442 127.716C268.546 127.82 268.598 127.972 268.598 128.172V129.108L268.466 128.892C268.642 128.444 268.918 128.108 269.294 127.884C269.67 127.652 270.102 127.536 270.59 127.536C271.054 127.536 271.438 127.624 271.742 127.8C272.054 127.968 272.286 128.228 272.438 128.58C272.59 128.924 272.666 129.36 272.666 129.888V132.972C272.666 133.164 272.614 133.316 272.51 133.428C272.406 133.532 272.258 133.584 272.066 133.584C271.866 133.584 271.714 133.532 271.61 133.428C271.506 133.316 271.454 133.164 271.454 132.972V129.96C271.454 129.456 271.354 129.088 271.154 128.856C270.962 128.624 270.658 128.508 270.242 128.508C269.754 128.508 269.362 128.66 269.066 128.964C268.778 129.268 268.634 129.676 268.634 130.188V132.972C268.634 133.38 268.43 133.584 268.022 133.584ZM276.832 133.608C276.352 133.608 275.948 133.524 275.62 133.356C275.292 133.188 275.048 132.94 274.888 132.612C274.728 132.284 274.648 131.884 274.648 131.412V128.58H273.928C273.768 128.58 273.644 128.54 273.556 128.46C273.468 128.372 273.424 128.256 273.424 128.112C273.424 127.96 273.468 127.844 273.556 127.764C273.644 127.684 273.768 127.644 273.928 127.644H274.648V126.408C274.648 126.208 274.7 126.056 274.804 125.952C274.916 125.848 275.068 125.796 275.26 125.796C275.452 125.796 275.6 125.848 275.704 125.952C275.808 126.056 275.86 126.208 275.86 126.408V127.644H277.264C277.424 127.644 277.548 127.684 277.636 127.764C277.724 127.844 277.768 127.96 277.768 128.112C277.768 128.256 277.724 128.372 277.636 128.46C277.548 128.54 277.424 128.58 277.264 128.58H275.86V131.316C275.86 131.74 275.948 132.06 276.124 132.276C276.308 132.492 276.604 132.6 277.012 132.6C277.156 132.6 277.28 132.588 277.384 132.564C277.496 132.532 277.588 132.512 277.66 132.504C277.748 132.504 277.82 132.536 277.876 132.6C277.932 132.656 277.96 132.768 277.96 132.936C277.96 133.056 277.936 133.168 277.888 133.272C277.848 133.376 277.772 133.444 277.66 133.476C277.564 133.508 277.432 133.536 277.264 133.56C277.104 133.592 276.96 133.608 276.832 133.608ZM279.331 133.584C279.131 133.584 278.979 133.532 278.875 133.428C278.771 133.316 278.719 133.164 278.719 132.972V128.172C278.719 127.972 278.771 127.82 278.875 127.716C278.979 127.612 279.123 127.56 279.307 127.56C279.499 127.56 279.643 127.612 279.739 127.716C279.843 127.82 279.895 127.972 279.895 128.172V129.048H279.775C279.903 128.568 280.139 128.204 280.483 127.956C280.827 127.708 281.267 127.564 281.803 127.524C281.947 127.516 282.059 127.552 282.139 127.632C282.227 127.712 282.275 127.836 282.283 128.004C282.299 128.172 282.263 128.308 282.175 128.412C282.087 128.508 281.951 128.564 281.767 128.58L281.539 128.604C281.019 128.652 280.623 128.816 280.351 129.096C280.079 129.376 279.943 129.76 279.943 130.248V132.972C279.943 133.164 279.891 133.316 279.787 133.428C279.691 133.532 279.539 133.584 279.331 133.584ZM285.862 133.608C285.222 133.608 284.67 133.488 284.206 133.248C283.75 133 283.394 132.652 283.138 132.204C282.89 131.748 282.766 131.208 282.766 130.584C282.766 129.976 282.89 129.444 283.138 128.988C283.386 128.532 283.726 128.176 284.158 127.92C284.59 127.664 285.082 127.536 285.634 127.536C286.042 127.536 286.406 127.604 286.726 127.74C287.046 127.868 287.318 128.06 287.542 128.316C287.774 128.564 287.946 128.868 288.058 129.228C288.178 129.588 288.238 129.992 288.238 130.44C288.238 130.576 288.198 130.68 288.118 130.752C288.038 130.816 287.918 130.848 287.758 130.848H283.726V130.104H287.422L287.218 130.272C287.218 129.872 287.158 129.532 287.038 129.252C286.926 128.972 286.754 128.76 286.522 128.616C286.298 128.464 286.018 128.388 285.682 128.388C285.306 128.388 284.986 128.476 284.722 128.652C284.466 128.828 284.27 129.072 284.134 129.384C283.998 129.696 283.93 130.06 283.93 130.476V130.548C283.93 131.252 284.094 131.784 284.422 132.144C284.758 132.496 285.242 132.672 285.874 132.672C286.114 132.672 286.366 132.64 286.63 132.576C286.902 132.512 287.158 132.404 287.398 132.252C287.534 132.172 287.654 132.136 287.758 132.144C287.87 132.152 287.958 132.188 288.022 132.252C288.094 132.316 288.138 132.396 288.154 132.492C288.17 132.588 288.154 132.688 288.106 132.792C288.058 132.888 287.974 132.976 287.854 133.056C287.582 133.24 287.266 133.38 286.906 133.476C286.546 133.564 286.198 133.608 285.862 133.608ZM293.683 133.584C293.491 133.584 293.339 133.532 293.227 133.428C293.123 133.316 293.071 133.164 293.071 132.972V128.58H292.399C292.247 128.58 292.127 128.54 292.039 128.46C291.951 128.372 291.907 128.256 291.907 128.112C291.907 127.96 291.951 127.844 292.039 127.764C292.127 127.684 292.247 127.644 292.399 127.644H293.419L293.071 127.968V127.536C293.071 126.744 293.267 126.148 293.659 125.748C294.051 125.34 294.623 125.1 295.375 125.028L295.747 125.004C295.883 124.988 295.991 125.008 296.071 125.064C296.151 125.12 296.203 125.192 296.227 125.28C296.251 125.368 296.251 125.46 296.227 125.556C296.211 125.644 296.171 125.724 296.107 125.796C296.043 125.868 295.963 125.908 295.867 125.916L295.639 125.928C295.167 125.968 294.823 126.104 294.607 126.336C294.391 126.56 294.283 126.904 294.283 127.368V127.836L294.115 127.644H295.447C295.615 127.644 295.739 127.684 295.819 127.764C295.907 127.844 295.951 127.96 295.951 128.112C295.951 128.256 295.907 128.372 295.819 128.46C295.739 128.54 295.615 128.58 295.447 128.58H294.283V132.972C294.283 133.38 294.083 133.584 293.683 133.584ZM299.263 133.608C298.671 133.608 298.159 133.484 297.727 133.236C297.303 132.988 296.971 132.636 296.731 132.18C296.491 131.724 296.371 131.188 296.371 130.572C296.371 130.1 296.439 129.68 296.575 129.312C296.711 128.944 296.903 128.628 297.151 128.364C297.407 128.092 297.711 127.888 298.063 127.752C298.423 127.608 298.823 127.536 299.263 127.536C299.847 127.536 300.351 127.66 300.775 127.908C301.207 128.156 301.543 128.508 301.783 128.964C302.023 129.412 302.143 129.948 302.143 130.572C302.143 131.036 302.075 131.456 301.939 131.832C301.803 132.208 301.607 132.528 301.351 132.792C301.103 133.056 300.799 133.26 300.439 133.404C300.087 133.54 299.695 133.608 299.263 133.608ZM299.263 132.672C299.591 132.672 299.879 132.592 300.127 132.432C300.375 132.272 300.567 132.036 300.703 131.724C300.847 131.412 300.919 131.028 300.919 130.572C300.919 129.884 300.767 129.364 300.463 129.012C300.159 128.66 299.759 128.484 299.263 128.484C298.927 128.484 298.635 128.564 298.387 128.724C298.139 128.876 297.943 129.108 297.799 129.42C297.663 129.732 297.595 130.116 297.595 130.572C297.595 131.252 297.747 131.772 298.051 132.132C298.355 132.492 298.759 132.672 299.263 132.672ZM304.116 133.584C303.916 133.584 303.764 133.532 303.66 133.428C303.556 133.316 303.504 133.164 303.504 132.972V128.172C303.504 127.972 303.556 127.82 303.66 127.716C303.764 127.612 303.908 127.56 304.092 127.56C304.284 127.56 304.428 127.612 304.524 127.716C304.628 127.82 304.68 127.972 304.68 128.172V129.048H304.56C304.688 128.568 304.924 128.204 305.268 127.956C305.612 127.708 306.052 127.564 306.588 127.524C306.732 127.516 306.844 127.552 306.924 127.632C307.012 127.712 307.06 127.836 307.068 128.004C307.084 128.172 307.048 128.308 306.96 128.412C306.872 128.508 306.736 128.564 306.552 128.58L306.324 128.604C305.804 128.652 305.408 128.816 305.136 129.096C304.864 129.376 304.728 129.76 304.728 130.248V132.972C304.728 133.164 304.676 133.316 304.572 133.428C304.476 133.532 304.324 133.584 304.116 133.584ZM79.348 149.608C78.868 149.608 78.464 149.524 78.136 149.356C77.808 149.188 77.564 148.94 77.404 148.612C77.244 148.284 77.164 147.884 77.164 147.412V144.58H76.444C76.284 144.58 76.16 144.54 76.072 144.46C75.984 144.372 75.94 144.256 75.94 144.112C75.94 143.96 75.984 143.844 76.072 143.764C76.16 143.684 76.284 143.644 76.444 143.644H77.164V142.408C77.164 142.208 77.216 142.056 77.32 141.952C77.432 141.848 77.584 141.796 77.776 141.796C77.968 141.796 78.116 141.848 78.22 141.952C78.324 142.056 78.376 142.208 78.376 142.408V143.644H79.78C79.94 143.644 80.064 143.684 80.152 143.764C80.24 143.844 80.284 143.96 80.284 144.112C80.284 144.256 80.24 144.372 80.152 144.46C80.064 144.54 79.94 144.58 79.78 144.58H78.376V147.316C78.376 147.74 78.464 148.06 78.64 148.276C78.824 148.492 79.12 148.6 79.528 148.6C79.672 148.6 79.796 148.588 79.9 148.564C80.012 148.532 80.104 148.512 80.176 148.504C80.264 148.504 80.336 148.536 80.392 148.6C80.448 148.656 80.476 148.768 80.476 148.936C80.476 149.056 80.452 149.168 80.404 149.272C80.364 149.376 80.288 149.444 80.176 149.476C80.08 149.508 79.948 149.536 79.78 149.56C79.62 149.592 79.476 149.608 79.348 149.608ZM83.3228 149.608C82.8508 149.608 82.4548 149.52 82.1348 149.344C81.8228 149.168 81.5868 148.908 81.4268 148.564C81.2748 148.212 81.1988 147.772 81.1988 147.244V144.172C81.1988 143.964 81.2508 143.812 81.3548 143.716C81.4588 143.612 81.6068 143.56 81.7988 143.56C81.9908 143.56 82.1388 143.612 82.2428 143.716C82.3548 143.812 82.4108 143.964 82.4108 144.172V147.256C82.4108 147.728 82.5068 148.076 82.6988 148.3C82.8908 148.524 83.1948 148.636 83.6108 148.636C84.0668 148.636 84.4348 148.484 84.7148 148.18C85.0028 147.868 85.1468 147.46 85.1468 146.956V144.172C85.1468 143.964 85.1988 143.812 85.3028 143.716C85.4068 143.612 85.5588 143.56 85.7588 143.56C85.9508 143.56 86.0988 143.612 86.2028 143.716C86.3068 143.812 86.3588 143.964 86.3588 144.172V148.972C86.3588 149.38 86.1628 149.584 85.7708 149.584C85.5868 149.584 85.4428 149.532 85.3388 149.428C85.2348 149.316 85.1828 149.164 85.1828 148.972V147.952L85.3388 148.216C85.1788 148.664 84.9228 149.008 84.5708 149.248C84.2188 149.488 83.8028 149.608 83.3228 149.608ZM90.5628 149.608C90.0828 149.608 89.6788 149.524 89.3508 149.356C89.0228 149.188 88.7788 148.94 88.6188 148.612C88.4588 148.284 88.3788 147.884 88.3788 147.412V144.58H87.6588C87.4988 144.58 87.3748 144.54 87.2868 144.46C87.1988 144.372 87.1548 144.256 87.1548 144.112C87.1548 143.96 87.1988 143.844 87.2868 143.764C87.3748 143.684 87.4988 143.644 87.6588 143.644H88.3788V142.408C88.3788 142.208 88.4308 142.056 88.5348 141.952C88.6468 141.848 88.7988 141.796 88.9908 141.796C89.1828 141.796 89.3308 141.848 89.4348 141.952C89.5388 142.056 89.5908 142.208 89.5908 142.408V143.644H90.9948C91.1548 143.644 91.2788 143.684 91.3668 143.764C91.4548 143.844 91.4988 143.96 91.4988 144.112C91.4988 144.256 91.4548 144.372 91.3668 144.46C91.2788 144.54 91.1548 144.58 90.9948 144.58H89.5908V147.316C89.5908 147.74 89.6788 148.06 89.8548 148.276C90.0388 148.492 90.3348 148.6 90.7428 148.6C90.8868 148.6 91.0108 148.588 91.1148 148.564C91.2268 148.532 91.3188 148.512 91.3908 148.504C91.4788 148.504 91.5508 148.536 91.6068 148.6C91.6628 148.656 91.6908 148.768 91.6908 148.936C91.6908 149.056 91.6668 149.168 91.6188 149.272C91.5788 149.376 91.5028 149.444 91.3908 149.476C91.2948 149.508 91.1628 149.536 90.9948 149.56C90.8348 149.592 90.6908 149.608 90.5628 149.608ZM94.9351 149.608C94.3431 149.608 93.8311 149.484 93.3991 149.236C92.9751 148.988 92.6431 148.636 92.4031 148.18C92.1631 147.724 92.0431 147.188 92.0431 146.572C92.0431 146.1 92.1111 145.68 92.2471 145.312C92.3831 144.944 92.5751 144.628 92.8231 144.364C93.0791 144.092 93.3831 143.888 93.7351 143.752C94.0951 143.608 94.4951 143.536 94.9351 143.536C95.5191 143.536 96.0231 143.66 96.4471 143.908C96.8791 144.156 97.2151 144.508 97.4551 144.964C97.6951 145.412 97.8151 145.948 97.8151 146.572C97.8151 147.036 97.7471 147.456 97.6111 147.832C97.4751 148.208 97.2791 148.528 97.0231 148.792C96.7751 149.056 96.4711 149.26 96.1111 149.404C95.7591 149.54 95.3671 149.608 94.9351 149.608ZM94.9351 148.672C95.2631 148.672 95.5511 148.592 95.7991 148.432C96.0471 148.272 96.2391 148.036 96.3751 147.724C96.5191 147.412 96.5911 147.028 96.5911 146.572C96.5911 145.884 96.4391 145.364 96.1351 145.012C95.8311 144.66 95.4311 144.484 94.9351 144.484C94.5991 144.484 94.3071 144.564 94.0591 144.724C93.8111 144.876 93.6151 145.108 93.4711 145.42C93.3351 145.732 93.2671 146.116 93.2671 146.572C93.2671 147.252 93.4191 147.772 93.7231 148.132C94.0271 148.492 94.4311 148.672 94.9351 148.672ZM99.7882 149.584C99.5882 149.584 99.4362 149.532 99.3322 149.428C99.2282 149.316 99.1762 149.164 99.1762 148.972V144.172C99.1762 143.972 99.2282 143.82 99.3322 143.716C99.4362 143.612 99.5802 143.56 99.7642 143.56C99.9562 143.56 100.1 143.612 100.196 143.716C100.3 143.82 100.352 143.972 100.352 144.172V145.048H100.232C100.36 144.568 100.596 144.204 100.94 143.956C101.284 143.708 101.724 143.564 102.26 143.524C102.404 143.516 102.516 143.552 102.596 143.632C102.684 143.712 102.732 143.836 102.74 144.004C102.756 144.172 102.72 144.308 102.632 144.412C102.544 144.508 102.408 144.564 102.224 144.58L101.996 144.604C101.476 144.652 101.08 144.816 100.808 145.096C100.536 145.376 100.4 145.76 100.4 146.248V148.972C100.4 149.164 100.348 149.316 100.244 149.428C100.148 149.532 99.9962 149.584 99.7882 149.584ZM104.253 149.572C104.061 149.572 103.913 149.516 103.809 149.404C103.705 149.284 103.653 149.12 103.653 148.912V144.232C103.653 144.024 103.705 143.864 103.809 143.752C103.913 143.64 104.061 143.584 104.253 143.584C104.445 143.584 104.593 143.64 104.697 143.752C104.809 143.864 104.865 144.024 104.865 144.232V148.912C104.865 149.12 104.813 149.284 104.709 149.404C104.605 149.516 104.453 149.572 104.253 149.572ZM104.253 142.336C104.013 142.336 103.825 142.276 103.689 142.156C103.561 142.036 103.497 141.868 103.497 141.652C103.497 141.428 103.561 141.26 103.689 141.148C103.825 141.028 104.013 140.968 104.253 140.968C104.493 140.968 104.677 141.028 104.805 141.148C104.941 141.26 105.009 141.428 105.009 141.652C105.009 141.868 104.941 142.036 104.805 142.156C104.677 142.276 104.493 142.336 104.253 142.336ZM108.443 149.608C108.035 149.608 107.667 149.528 107.339 149.368C107.019 149.208 106.767 148.992 106.583 148.72C106.399 148.448 106.307 148.14 106.307 147.796C106.307 147.364 106.415 147.024 106.631 146.776C106.855 146.52 107.219 146.34 107.723 146.236C108.235 146.124 108.923 146.068 109.787 146.068H110.351V146.812H109.799C109.223 146.812 108.767 146.84 108.431 146.896C108.095 146.952 107.855 147.048 107.711 147.184C107.575 147.312 107.507 147.492 107.507 147.724C107.507 148.028 107.611 148.276 107.819 148.468C108.027 148.652 108.315 148.744 108.683 148.744C108.979 148.744 109.239 148.676 109.463 148.54C109.687 148.396 109.863 148.204 109.991 147.964C110.127 147.724 110.195 147.448 110.195 147.136V145.756C110.195 145.3 110.099 144.972 109.907 144.772C109.715 144.572 109.399 144.472 108.959 144.472C108.703 144.472 108.435 144.504 108.155 144.568C107.883 144.632 107.599 144.74 107.303 144.892C107.167 144.956 107.051 144.976 106.955 144.952C106.859 144.928 106.783 144.876 106.727 144.796C106.671 144.708 106.639 144.616 106.631 144.52C106.631 144.416 106.655 144.316 106.703 144.22C106.759 144.124 106.851 144.052 106.979 144.004C107.331 143.836 107.679 143.716 108.023 143.644C108.367 143.572 108.691 143.536 108.995 143.536C109.531 143.536 109.971 143.62 110.315 143.788C110.667 143.956 110.927 144.212 111.095 144.556C111.263 144.9 111.347 145.344 111.347 145.888V148.972C111.347 149.164 111.299 149.316 111.203 149.428C111.107 149.532 110.967 149.584 110.783 149.584C110.607 149.584 110.467 149.532 110.363 149.428C110.259 149.316 110.207 149.164 110.207 148.972V148.192H110.315C110.251 148.488 110.131 148.744 109.955 148.96C109.787 149.168 109.575 149.328 109.319 149.44C109.063 149.552 108.771 149.608 108.443 149.608ZM114.9 149.608C114.276 149.608 113.804 149.428 113.484 149.068C113.172 148.7 113.016 148.172 113.016 147.484V141.568C113.016 141.368 113.068 141.216 113.172 141.112C113.276 141.008 113.424 140.956 113.616 140.956C113.808 140.956 113.956 141.008 114.06 141.112C114.172 141.216 114.228 141.368 114.228 141.568V147.412C114.228 147.812 114.308 148.112 114.468 148.312C114.636 148.504 114.876 148.6 115.188 148.6C115.26 148.6 115.324 148.6 115.38 148.6C115.436 148.592 115.492 148.584 115.548 148.576C115.644 148.568 115.712 148.596 115.752 148.66C115.792 148.716 115.812 148.836 115.812 149.02C115.812 149.188 115.776 149.32 115.704 149.416C115.632 149.504 115.516 149.56 115.356 149.584C115.284 149.592 115.208 149.596 115.128 149.596C115.048 149.604 114.972 149.608 114.9 149.608ZM118.677 149.608C118.325 149.608 117.961 149.568 117.585 149.488C117.217 149.408 116.877 149.272 116.565 149.08C116.461 149.008 116.389 148.928 116.349 148.84C116.309 148.752 116.293 148.664 116.301 148.576C116.317 148.48 116.353 148.4 116.409 148.336C116.473 148.264 116.549 148.22 116.637 148.204C116.733 148.188 116.833 148.208 116.937 148.264C117.249 148.44 117.549 148.564 117.837 148.636C118.125 148.7 118.409 148.732 118.689 148.732C119.113 148.732 119.433 148.656 119.649 148.504C119.865 148.352 119.973 148.148 119.973 147.892C119.973 147.684 119.901 147.524 119.757 147.412C119.613 147.292 119.397 147.2 119.109 147.136L117.969 146.908C117.473 146.804 117.097 146.62 116.841 146.356C116.585 146.092 116.457 145.756 116.457 145.348C116.457 144.98 116.557 144.66 116.757 144.388C116.957 144.116 117.237 143.908 117.597 143.764C117.957 143.612 118.373 143.536 118.845 143.536C119.197 143.536 119.529 143.58 119.841 143.668C120.153 143.756 120.441 143.888 120.705 144.064C120.809 144.12 120.877 144.196 120.909 144.292C120.941 144.38 120.945 144.468 120.921 144.556C120.905 144.644 120.865 144.724 120.801 144.796C120.737 144.86 120.657 144.9 120.561 144.916C120.473 144.924 120.373 144.9 120.261 144.844C120.021 144.692 119.781 144.584 119.541 144.52C119.309 144.456 119.077 144.424 118.845 144.424C118.421 144.424 118.101 144.504 117.885 144.664C117.677 144.816 117.573 145.024 117.573 145.288C117.573 145.488 117.637 145.652 117.765 145.78C117.893 145.908 118.093 146 118.365 146.056L119.505 146.284C120.025 146.388 120.417 146.564 120.681 146.812C120.953 147.06 121.089 147.396 121.089 147.82C121.089 148.372 120.869 148.808 120.429 149.128C119.989 149.448 119.405 149.608 118.677 149.608ZM127.474 149.608C127.066 149.608 126.698 149.528 126.37 149.368C126.05 149.208 125.798 148.992 125.614 148.72C125.43 148.448 125.338 148.14 125.338 147.796C125.338 147.364 125.446 147.024 125.662 146.776C125.886 146.52 126.25 146.34 126.754 146.236C127.266 146.124 127.954 146.068 128.818 146.068H129.382V146.812H128.83C128.254 146.812 127.798 146.84 127.462 146.896C127.126 146.952 126.886 147.048 126.742 147.184C126.606 147.312 126.538 147.492 126.538 147.724C126.538 148.028 126.642 148.276 126.85 148.468C127.058 148.652 127.346 148.744 127.714 148.744C128.01 148.744 128.27 148.676 128.494 148.54C128.718 148.396 128.894 148.204 129.022 147.964C129.158 147.724 129.226 147.448 129.226 147.136V145.756C129.226 145.3 129.13 144.972 128.938 144.772C128.746 144.572 128.43 144.472 127.99 144.472C127.734 144.472 127.466 144.504 127.186 144.568C126.914 144.632 126.63 144.74 126.334 144.892C126.198 144.956 126.082 144.976 125.986 144.952C125.89 144.928 125.814 144.876 125.758 144.796C125.702 144.708 125.67 144.616 125.662 144.52C125.662 144.416 125.686 144.316 125.734 144.22C125.79 144.124 125.882 144.052 126.01 144.004C126.362 143.836 126.71 143.716 127.054 143.644C127.398 143.572 127.722 143.536 128.026 143.536C128.562 143.536 129.002 143.62 129.346 143.788C129.698 143.956 129.958 144.212 130.126 144.556C130.294 144.9 130.378 145.344 130.378 145.888V148.972C130.378 149.164 130.33 149.316 130.234 149.428C130.138 149.532 129.998 149.584 129.814 149.584C129.638 149.584 129.498 149.532 129.394 149.428C129.29 149.316 129.238 149.164 129.238 148.972V148.192H129.346C129.282 148.488 129.162 148.744 128.986 148.96C128.818 149.168 128.606 149.328 128.35 149.44C128.094 149.552 127.802 149.608 127.474 149.608ZM132.647 149.584C132.455 149.584 132.307 149.532 132.203 149.428C132.099 149.316 132.047 149.164 132.047 148.972V144.172C132.047 143.972 132.099 143.82 132.203 143.716C132.307 143.612 132.451 143.56 132.635 143.56C132.827 143.56 132.971 143.612 133.067 143.716C133.171 143.82 133.223 143.972 133.223 144.172V145.108L133.091 144.892C133.267 144.444 133.543 144.108 133.919 143.884C134.295 143.652 134.727 143.536 135.215 143.536C135.679 143.536 136.063 143.624 136.367 143.8C136.679 143.968 136.911 144.228 137.063 144.58C137.215 144.924 137.291 145.36 137.291 145.888V148.972C137.291 149.164 137.239 149.316 137.135 149.428C137.031 149.532 136.883 149.584 136.691 149.584C136.491 149.584 136.339 149.532 136.235 149.428C136.131 149.316 136.079 149.164 136.079 148.972V145.96C136.079 145.456 135.979 145.088 135.779 144.856C135.587 144.624 135.283 144.508 134.867 144.508C134.379 144.508 133.987 144.66 133.691 144.964C133.403 145.268 133.259 145.676 133.259 146.188V148.972C133.259 149.38 133.055 149.584 132.647 149.584ZM141.193 149.608C140.681 149.608 140.229 149.488 139.837 149.248C139.453 149 139.153 148.648 138.937 148.192C138.721 147.728 138.613 147.188 138.613 146.572C138.613 145.94 138.721 145.4 138.937 144.952C139.153 144.504 139.453 144.156 139.837 143.908C140.229 143.66 140.681 143.536 141.193 143.536C141.705 143.536 142.145 143.664 142.513 143.92C142.889 144.168 143.141 144.504 143.269 144.928H143.137V141.568C143.137 141.368 143.189 141.216 143.293 141.112C143.397 141.008 143.545 140.956 143.737 140.956C143.929 140.956 144.077 141.008 144.181 141.112C144.293 141.216 144.349 141.368 144.349 141.568V148.972C144.349 149.164 144.297 149.316 144.193 149.428C144.089 149.532 143.941 149.584 143.749 149.584C143.557 149.584 143.409 149.532 143.305 149.428C143.201 149.316 143.149 149.164 143.149 148.972V147.916L143.281 148.18C143.153 148.612 142.901 148.96 142.525 149.224C142.157 149.48 141.713 149.608 141.193 149.608ZM141.505 148.672C141.833 148.672 142.121 148.592 142.369 148.432C142.617 148.272 142.809 148.036 142.945 147.724C143.089 147.412 143.161 147.028 143.161 146.572C143.161 145.884 143.009 145.364 142.705 145.012C142.401 144.66 142.001 144.484 141.505 144.484C141.169 144.484 140.877 144.564 140.629 144.724C140.381 144.876 140.185 145.108 140.041 145.42C139.905 145.732 139.837 146.116 139.837 146.572C139.837 147.252 139.989 147.772 140.293 148.132C140.597 148.492 141.001 148.672 141.505 148.672ZM150.007 149.584C149.799 149.584 149.635 149.528 149.515 149.416C149.403 149.304 149.347 149.14 149.347 148.924V141.712C149.347 141.496 149.403 141.332 149.515 141.22C149.635 141.1 149.803 141.04 150.019 141.04H154.291C154.467 141.04 154.595 141.084 154.675 141.172C154.763 141.252 154.807 141.372 154.807 141.532C154.807 141.7 154.763 141.828 154.675 141.916C154.595 142.004 154.467 142.048 154.291 142.048H150.595V144.748H154.051C154.211 144.748 154.335 144.792 154.423 144.88C154.519 144.96 154.567 145.08 154.567 145.24C154.567 145.408 154.519 145.536 154.423 145.624C154.335 145.712 154.211 145.756 154.051 145.756H150.595V148.924C150.595 149.364 150.399 149.584 150.007 149.584ZM155.276 149.584C155.116 149.584 154.988 149.548 154.892 149.476C154.796 149.404 154.74 149.308 154.724 149.188C154.708 149.068 154.732 148.932 154.796 148.78L158.048 141.484C158.128 141.292 158.228 141.156 158.348 141.076C158.476 140.996 158.616 140.956 158.768 140.956C158.912 140.956 159.044 140.996 159.164 141.076C159.292 141.156 159.396 141.292 159.476 141.484L162.728 148.78C162.8 148.932 162.828 149.072 162.812 149.2C162.796 149.32 162.744 149.416 162.656 149.488C162.568 149.552 162.444 149.584 162.284 149.584C162.108 149.584 161.968 149.54 161.864 149.452C161.76 149.364 161.668 149.228 161.588 149.044L160.748 147.1L161.312 147.436H156.2L156.752 147.1L155.924 149.044C155.844 149.236 155.756 149.376 155.66 149.464C155.564 149.544 155.436 149.584 155.276 149.584ZM158.744 142.42L156.932 146.716L156.632 146.428H160.868L160.592 146.716L158.768 142.42H158.744ZM170.728 150.988C170.824 151.132 170.864 151.264 170.848 151.384C170.832 151.504 170.78 151.604 170.692 151.684C170.612 151.772 170.508 151.824 170.38 151.84C170.26 151.864 170.136 151.852 170.008 151.804C169.888 151.756 169.784 151.66 169.696 151.516L168.904 150.232C168.784 150.032 168.62 149.876 168.412 149.764C168.204 149.66 167.952 149.608 167.656 149.608L168.64 149.212C169.016 149.212 169.312 149.28 169.528 149.416C169.752 149.544 169.972 149.78 170.188 150.124L170.728 150.988ZM167.668 149.608C166.868 149.608 166.168 149.432 165.568 149.08C164.976 148.72 164.516 148.216 164.188 147.568C163.868 146.912 163.708 146.144 163.708 145.264C163.708 144.6 163.8 144.004 163.984 143.476C164.168 142.94 164.432 142.484 164.776 142.108C165.12 141.724 165.536 141.432 166.024 141.232C166.512 141.032 167.06 140.932 167.668 140.932C168.476 140.932 169.176 141.108 169.768 141.46C170.36 141.812 170.816 142.312 171.136 142.96C171.464 143.608 171.628 144.372 171.628 145.252C171.628 145.916 171.536 146.516 171.352 147.052C171.168 147.588 170.9 148.048 170.548 148.432C170.204 148.816 169.788 149.108 169.3 149.308C168.812 149.508 168.268 149.608 167.668 149.608ZM167.668 148.528C168.228 148.528 168.704 148.4 169.096 148.144C169.496 147.888 169.8 147.516 170.008 147.028C170.224 146.54 170.332 145.952 170.332 145.264C170.332 144.232 170.1 143.432 169.636 142.864C169.172 142.296 168.516 142.012 167.668 142.012C167.108 142.012 166.628 142.14 166.228 142.396C165.836 142.644 165.532 143.012 165.316 143.5C165.108 143.988 165.004 144.576 165.004 145.264C165.004 146.288 165.236 147.088 165.7 147.664C166.172 148.24 166.828 148.528 167.668 148.528ZM175.22 149.608C174.868 149.608 174.504 149.568 174.128 149.488C173.76 149.408 173.42 149.272 173.108 149.08C173.004 149.008 172.932 148.928 172.892 148.84C172.852 148.752 172.836 148.664 172.844 148.576C172.86 148.48 172.896 148.4 172.952 148.336C173.016 148.264 173.092 148.22 173.18 148.204C173.276 148.188 173.376 148.208 173.48 148.264C173.792 148.44 174.092 148.564 174.38 148.636C174.668 148.7 174.952 148.732 175.232 148.732C175.656 148.732 175.976 148.656 176.192 148.504C176.408 148.352 176.516 148.148 176.516 147.892C176.516 147.684 176.444 147.524 176.3 147.412C176.156 147.292 175.94 147.2 175.652 147.136L174.512 146.908C174.016 146.804 173.64 146.62 173.384 146.356C173.128 146.092 173 145.756 173 145.348C173 144.98 173.1 144.66 173.3 144.388C173.5 144.116 173.78 143.908 174.14 143.764C174.5 143.612 174.916 143.536 175.388 143.536C175.74 143.536 176.072 143.58 176.384 143.668C176.696 143.756 176.984 143.888 177.248 144.064C177.352 144.12 177.42 144.196 177.452 144.292C177.484 144.38 177.488 144.468 177.464 144.556C177.448 144.644 177.408 144.724 177.344 144.796C177.28 144.86 177.2 144.9 177.104 144.916C177.016 144.924 176.916 144.9 176.804 144.844C176.564 144.692 176.324 144.584 176.084 144.52C175.852 144.456 175.62 144.424 175.388 144.424C174.964 144.424 174.644 144.504 174.428 144.664C174.22 144.816 174.116 145.024 174.116 145.288C174.116 145.488 174.18 145.652 174.308 145.78C174.436 145.908 174.636 146 174.908 146.056L176.048 146.284C176.568 146.388 176.96 146.564 177.224 146.812C177.496 147.06 177.632 147.396 177.632 147.82C177.632 148.372 177.412 148.808 176.972 149.128C176.532 149.448 175.948 149.608 175.22 149.608Z" fill="#64728C"/>
</g>
<circle opacity="0.2" cx="333" cy="104.5" r="13" stroke="#64728C" stroke-width="5"/>
<circle opacity="0.2" cx="1.3" cy="1.3" r="1.3" transform="matrix(1 0 0 -1 331.7 105.8)" fill="#64728C"/>
<path d="M334.235 91.5588C335.934 91.7209 337.585 92.2162 339.093 93.0163C340.601 93.8165 341.937 94.9059 343.024 96.2222C344.111 97.5386 344.928 99.0561 345.429 100.688C345.929 102.32 346.104 104.035 345.941 105.735" stroke="#64728C" stroke-width="5" stroke-linecap="round" stroke-linejoin="round"/>
<path d="M334.857 104.5L337.245 102.112C337.776 101.581 337.776 100.786 337.245 100.255C336.715 99.7243 335.919 99.7243 335.388 100.255L333 102.643L330.613 100.255C330.082 99.7243 329.286 99.7243 328.755 100.255C328.225 100.786 328.225 101.581 328.755 102.112L331.143 104.5L328.755 106.888C328.225 107.418 328.225 108.214 328.755 108.745C329.021 109.01 329.352 109.143 329.684 109.143C330.016 109.143 330.347 109.01 330.613 108.745L333 106.357L335.388 108.745C335.653 109.01 335.985 109.143 336.317 109.143C336.648 109.143 336.98 109.01 337.245 108.745C337.776 108.214 337.776 107.418 337.245 106.888L334.857 104.5Z" fill="#64728C"/>
</g>
<rect x="60.5" y="79" width="299" height="93" rx="24.5" stroke="#64728C" stroke-opacity="0.33"/>
</g>
<g filter="url(#filter3_d_978_2492)">
<rect x="76.9014" y="56" width="45" height="45" rx="22.5" fill="#64728C" shape-rendering="crispEdges"/>
<rect x="76.9014" y="56" width="45" height="45" rx="22.5" fill="url(#paint1_radial_978_2492)" fill-opacity="0.2" shape-rendering="crispEdges"/>
<path d="M99.4014 69.5C94.4014 69.5 90.4014 73.5 90.4014 78.5C90.4014 80.3 91.0014 82.1 92.0014 83.6L90.6014 86C90.4014 86.3 90.4014 86.7 90.6014 87C90.8014 87.3 91.0014 87.5 91.4014 87.5H99.4014C104.401 87.5 108.401 83.5 108.401 78.5C108.401 73.5 104.401 69.5 99.4014 69.5ZM99.4014 85.5H93.2014L94.1014 84C94.3014 83.6 94.3014 83.2 94.0014 82.9C93.0014 81.7 92.4014 80.1 92.4014 78.5C92.4014 74.6 95.5014 71.5 99.4014 71.5C103.301 71.5 106.401 74.6 106.401 78.5C106.401 82.4 103.301 85.5 99.4014 85.5Z" fill="white"/>
<path d="M99.5017 73.7998H99.4017C98.4017 73.7998 97.5017 74.2998 97.0017 75.0998C96.6017 75.5998 96.7017 76.1998 97.2017 76.4998C97.7017 76.7998 98.3017 76.6998 98.6017 76.1998C98.8017 75.8998 99.1017 75.7998 99.4017 75.7998H99.5017C100.002 75.7998 100.402 76.1998 100.402 76.6998C100.402 77.0998 100.102 77.4998 99.8017 77.5998L99.1017 77.7998C98.7017 77.8998 98.4017 78.2998 98.4017 78.6998V79.4998C98.4017 80.0998 98.8017 80.4998 99.4017 80.4998C99.9017 80.4998 100.402 80.0998 100.402 79.5998C101.602 79.1998 102.402 78.0998 102.402 76.7998C102.402 75.1998 101.102 73.7998 99.5017 73.7998Z" fill="white"/>
<path d="M99.4014 83.5C99.9537 83.5 100.401 83.0523 100.401 82.5C100.401 81.9477 99.9537 81.5 99.4014 81.5C98.8491 81.5 98.4014 81.9477 98.4014 82.5C98.4014 83.0523 98.8491 83.5 99.4014 83.5Z" fill="white"/>
</g>
</g>
<defs>
<filter id="filter0_d_978_2492" x="0" y="0" width="420" height="236.5" filterUnits="userSpaceOnUse" color-interpolation-filters="sRGB">
<feFlood flood-opacity="0" result="BackgroundImageFix"/>
<feColorMatrix in="SourceAlpha" type="matrix" values="0 0 0 0 0 0 0 0 0 0 0 0 0 0 0 0 0 0 127 0" result="hardAlpha"/>
<feOffset dy="4"/>
<feGaussianBlur stdDeviation="30"/>
<feComposite in2="hardAlpha" operator="out"/>
<feColorMatrix type="matrix" values="0 0 0 0 0 0 0 0 0 0 0 0 0 0 0 0 0 0 0.06 0"/>
<feBlend mode="normal" in2="BackgroundImageFix" result="effect1_dropShadow_978_2492"/>
<feBlend mode="normal" in="SourceGraphic" in2="effect1_dropShadow_978_2492" result="shape"/>
</filter>
<filter id="filter1_d_978_2492" x="56" y="78.5" width="308" height="102" filterUnits="userSpaceOnUse" color-interpolation-filters="sRGB">
<feFlood flood-opacity="0" result="BackgroundImageFix"/>
<feColorMatrix in="SourceAlpha" type="matrix" values="0 0 0 0 0 0 0 0 0 0 0 0 0 0 0 0 0 0 127 0" result="hardAlpha"/>
<feOffset dy="4"/>
<feGaussianBlur stdDeviation="2"/>
<feComposite in2="hardAlpha" operator="out"/>
<feColorMatrix type="matrix" values="0 0 0 0 0.392157 0 0 0 0 0.447059 0 0 0 0 0.54902 0 0 0 0.24 0"/>
<feBlend mode="normal" in2="BackgroundImageFix" result="effect1_dropShadow_978_2492"/>
<feBlend mode="normal" in="SourceGraphic" in2="effect1_dropShadow_978_2492" result="shape"/>
</filter>
<filter id="filter2_d_978_2492" x="30" y="52.5" width="360" height="151" filterUnits="userSpaceOnUse" color-interpolation-filters="sRGB">
<feFlood flood-opacity="0" result="BackgroundImageFix"/>
<feColorMatrix in="SourceAlpha" type="matrix" values="0 0 0 0 0 0 0 0 0 0 0 0 0 0 0 0 0 0 127 0" result="hardAlpha"/>
<feOffset dy="4"/>
<feGaussianBlur stdDeviation="15"/>
<feComposite in2="hardAlpha" operator="out"/>
<feColorMatrix type="matrix" values="0 0 0 0 0 0 0 0 0 0 0 0 0 0 0 0 0 0 0.1 0"/>
<feBlend mode="normal" in2="BackgroundImageFix" result="effect1_dropShadow_978_2492"/>
<feBlend mode="normal" in="SourceGraphic" in2="effect1_dropShadow_978_2492" result="shape"/>
</filter>
<filter id="filter3_d_978_2492" x="72.9014" y="56" width="53" height="53" filterUnits="userSpaceOnUse" color-interpolation-filters="sRGB">
<feFlood flood-opacity="0" result="BackgroundImageFix"/>
<feColorMatrix in="SourceAlpha" type="matrix" values="0 0 0 0 0 0 0 0 0 0 0 0 0 0 0 0 0 0 127 0" result="hardAlpha"/>
<feOffset dy="4"/>
<feGaussianBlur stdDeviation="2"/>
<feComposite in2="hardAlpha" operator="out"/>
<feColorMatrix type="matrix" values="0 0 0 0 0.392157 0 0 0 0 0.447059 0 0 0 0 0.54902 0 0 0 0.1 0"/>
<feBlend mode="normal" in2="BackgroundImageFix" result="effect1_dropShadow_978_2492"/>
<feBlend mode="normal" in="SourceGraphic" in2="effect1_dropShadow_978_2492" result="shape"/>
</filter>
<linearGradient id="paint0_linear_978_2492" x1="60" y1="78.5" x2="358.674" y2="163.846" gradientUnits="userSpaceOnUse">
<stop offset="0.468122" stop-color="white" stop-opacity="0"/>
<stop offset="1" stop-color="white"/>
</linearGradient>
<radialGradient id="paint1_radial_978_2492" cx="0" cy="0" r="1" gradientUnits="userSpaceOnUse" gradientTransform="translate(99.4014 78.5) rotate(90) scale(22.5)">
<stop stop-color="white" stop-opacity="0"/>
<stop offset="1" stop-color="white"/>
</radialGradient>
<clipPath id="clip0_978_2492">
<rect x="60" y="78.5" width="300" height="94" rx="25" fill="white"/>
</clipPath>
</defs>
</svg>
