<svg width="420" height="237" viewBox="0 0 420 237" fill="none" xmlns="http://www.w3.org/2000/svg">
<g filter="url(#filter0_d_978_2460)">
<g filter="url(#filter1_d_978_2460)">
<g clip-path="url(#clip0_978_2460)">
<rect x="60" y="78.5" width="300" height="94" rx="25" fill="#1E6CEB"/>
<g filter="url(#filter2_d_978_2460)">
<rect x="60" y="78.5" width="300" height="91" rx="25" fill="white" shape-rendering="crispEdges"/>
<rect x="60" y="78.5" width="300" height="91" rx="25" fill="url(#paint0_linear_978_2460)" fill-opacity="0.2" shape-rendering="crispEdges"/>
<path d="M78.086 117.626C77.7313 117.626 77.4607 117.528 77.274 117.332C77.0873 117.136 76.994 116.861 76.994 116.506V108.624C76.994 108.269 77.0873 107.994 77.274 107.798C77.4607 107.602 77.7313 107.504 78.086 107.504C78.4313 107.504 78.6973 107.602 78.884 107.798C79.0707 107.994 79.164 108.269 79.164 108.624V116.506C79.164 116.861 79.0707 117.136 78.884 117.332C78.7067 117.528 78.4407 117.626 78.086 117.626ZM82.0323 117.626C81.6869 117.626 81.4209 117.533 81.2343 117.346C81.0569 117.159 80.9683 116.893 80.9683 116.548V111.578C80.9683 111.233 81.0569 110.971 81.2343 110.794C81.4209 110.607 81.6776 110.514 82.0042 110.514C82.3403 110.514 82.5969 110.607 82.7743 110.794C82.9516 110.971 83.0403 111.233 83.0403 111.578V112.376L82.8863 111.914C83.1009 111.457 83.4183 111.107 83.8383 110.864C84.2676 110.612 84.7529 110.486 85.2943 110.486C85.8449 110.486 86.2976 110.593 86.6523 110.808C87.0069 111.013 87.2729 111.331 87.4503 111.76C87.6276 112.18 87.7163 112.717 87.7163 113.37V116.548C87.7163 116.893 87.6229 117.159 87.4363 117.346C87.2589 117.533 86.9976 117.626 86.6523 117.626C86.3163 117.626 86.0549 117.533 85.8683 117.346C85.6909 117.159 85.6023 116.893 85.6023 116.548V113.468C85.6023 112.992 85.5136 112.651 85.3363 112.446C85.1683 112.231 84.9069 112.124 84.5523 112.124C84.1043 112.124 83.7449 112.264 83.4743 112.544C83.2129 112.824 83.0823 113.197 83.0823 113.664V116.548C83.0823 117.267 82.7323 117.626 82.0323 117.626ZM90.8904 117.626C90.5451 117.626 90.2791 117.533 90.0924 117.346C89.9151 117.159 89.8264 116.893 89.8264 116.548V112.208H89.3224C89.0611 112.208 88.8558 112.138 88.7064 111.998C88.5664 111.858 88.4964 111.667 88.4964 111.424C88.4964 111.163 88.5664 110.967 88.7064 110.836C88.8558 110.696 89.0611 110.626 89.3224 110.626H90.4424L89.8264 111.186V110.752C89.8264 109.753 90.0738 109.007 90.5684 108.512C91.0724 108.017 91.8098 107.719 92.7804 107.616L93.2284 107.574C93.4711 107.555 93.6624 107.593 93.8024 107.686C93.9518 107.779 94.0498 107.901 94.0964 108.05C94.1431 108.199 94.1524 108.353 94.1244 108.512C94.0964 108.661 94.0311 108.797 93.9284 108.918C93.8351 109.03 93.7044 109.091 93.5364 109.1L93.3404 109.114C92.8364 109.151 92.4771 109.273 92.2624 109.478C92.0478 109.674 91.9404 109.977 91.9404 110.388V110.864L91.6744 110.626H92.9344C93.2051 110.626 93.4104 110.696 93.5504 110.836C93.6904 110.967 93.7604 111.163 93.7604 111.424C93.7604 111.667 93.6904 111.858 93.5504 111.998C93.4104 112.138 93.2051 112.208 92.9344 112.208H91.9404V116.548C91.9404 117.267 91.5904 117.626 90.8904 117.626ZM97.7801 117.654C97.0427 117.654 96.3987 117.509 95.8481 117.22C95.3067 116.931 94.8867 116.515 94.5881 115.974C94.2894 115.433 94.1401 114.793 94.1401 114.056C94.1401 113.505 94.2241 113.011 94.3921 112.572C94.5601 112.133 94.8027 111.76 95.1201 111.452C95.4467 111.135 95.8341 110.897 96.2821 110.738C96.7301 110.57 97.2294 110.486 97.7801 110.486C98.5174 110.486 99.1567 110.631 99.6981 110.92C100.249 111.209 100.673 111.62 100.972 112.152C101.28 112.684 101.434 113.319 101.434 114.056C101.434 114.616 101.345 115.115 101.168 115.554C101 115.993 100.757 116.371 100.44 116.688C100.123 117.005 99.7354 117.248 99.2781 117.416C98.8301 117.575 98.3307 117.654 97.7801 117.654ZM97.7801 116.072C98.0881 116.072 98.3541 115.997 98.5781 115.848C98.8021 115.699 98.9794 115.479 99.1101 115.19C99.2407 114.891 99.3061 114.513 99.3061 114.056C99.3061 113.375 99.1661 112.875 98.8861 112.558C98.6061 112.231 98.2374 112.068 97.7801 112.068C97.4814 112.068 97.2154 112.138 96.9821 112.278C96.7581 112.418 96.5807 112.637 96.4501 112.936C96.3287 113.225 96.2681 113.599 96.2681 114.056C96.2681 114.737 96.4081 115.246 96.6881 115.582C96.9681 115.909 97.3321 116.072 97.7801 116.072Z" fill="#1E6CEB"/>
<path d="M77.572 133.584C77.388 133.584 77.244 133.532 77.14 133.428C77.036 133.324 76.984 133.176 76.984 132.984V125.58C76.984 125.38 77.032 125.228 77.128 125.124C77.232 125.012 77.368 124.956 77.536 124.956C77.68 124.956 77.788 124.984 77.86 125.04C77.94 125.088 78.032 125.18 78.136 125.316L83.08 131.832H82.78V125.544C82.78 125.36 82.828 125.216 82.924 125.112C83.028 125.008 83.172 124.956 83.356 124.956C83.548 124.956 83.692 125.008 83.788 125.112C83.884 125.216 83.932 125.36 83.932 125.544V132.996C83.932 133.18 83.884 133.324 83.788 133.428C83.7 133.532 83.58 133.584 83.428 133.584C83.284 133.584 83.164 133.556 83.068 133.5C82.98 133.444 82.884 133.348 82.78 133.212L77.86 126.708H78.136V132.984C78.136 133.176 78.088 133.324 77.992 133.428C77.896 133.532 77.756 133.584 77.572 133.584ZM88.518 133.608C87.878 133.608 87.326 133.488 86.862 133.248C86.406 133 86.05 132.652 85.794 132.204C85.546 131.748 85.422 131.208 85.422 130.584C85.422 129.976 85.546 129.444 85.794 128.988C86.042 128.532 86.382 128.176 86.814 127.92C87.246 127.664 87.738 127.536 88.29 127.536C88.698 127.536 89.062 127.604 89.382 127.74C89.702 127.868 89.974 128.06 90.198 128.316C90.43 128.564 90.602 128.868 90.714 129.228C90.834 129.588 90.894 129.992 90.894 130.44C90.894 130.576 90.854 130.68 90.774 130.752C90.694 130.816 90.574 130.848 90.414 130.848H86.382V130.104H90.078L89.874 130.272C89.874 129.872 89.814 129.532 89.694 129.252C89.582 128.972 89.41 128.76 89.178 128.616C88.954 128.464 88.674 128.388 88.338 128.388C87.962 128.388 87.642 128.476 87.378 128.652C87.122 128.828 86.926 129.072 86.79 129.384C86.654 129.696 86.586 130.06 86.586 130.476V130.548C86.586 131.252 86.75 131.784 87.078 132.144C87.414 132.496 87.898 132.672 88.53 132.672C88.77 132.672 89.022 132.64 89.286 132.576C89.558 132.512 89.814 132.404 90.054 132.252C90.19 132.172 90.31 132.136 90.414 132.144C90.526 132.152 90.614 132.188 90.678 132.252C90.75 132.316 90.794 132.396 90.81 132.492C90.826 132.588 90.81 132.688 90.762 132.792C90.714 132.888 90.63 132.976 90.51 133.056C90.238 133.24 89.922 133.38 89.562 133.476C89.202 133.564 88.854 133.608 88.518 133.608ZM94.2693 133.584C94.1013 133.584 93.9533 133.544 93.8253 133.464C93.7053 133.376 93.6093 133.24 93.5373 133.056L91.7733 128.388C91.7093 128.228 91.6893 128.088 91.7133 127.968C91.7373 127.84 91.7973 127.74 91.8933 127.668C91.9973 127.596 92.1293 127.56 92.2893 127.56C92.4333 127.56 92.5493 127.596 92.6373 127.668C92.7333 127.732 92.8133 127.86 92.8773 128.052L94.4492 132.48H94.1613L95.7933 128.004C95.8493 127.852 95.9253 127.74 96.0213 127.668C96.1173 127.596 96.2413 127.56 96.3933 127.56C96.5453 127.56 96.6693 127.596 96.7653 127.668C96.8693 127.74 96.9453 127.852 96.9933 128.004L98.5893 132.48H98.3253L99.9213 128.028C99.9853 127.844 100.065 127.72 100.161 127.656C100.265 127.592 100.381 127.56 100.509 127.56C100.669 127.56 100.789 127.6 100.869 127.68C100.957 127.76 101.005 127.864 101.013 127.992C101.029 128.112 101.009 128.244 100.953 128.388L99.1893 133.056C99.1173 133.232 99.0173 133.364 98.8893 133.452C98.7693 133.54 98.6293 133.584 98.4693 133.584C98.3013 133.584 98.1533 133.54 98.0253 133.452C97.9053 133.364 97.8093 133.232 97.7373 133.056L96.0573 128.508H96.6573L94.9893 133.056C94.9253 133.232 94.8293 133.364 94.7013 133.452C94.5813 133.54 94.4373 133.584 94.2693 133.584ZM106.238 133.584C106.03 133.584 105.866 133.528 105.746 133.416C105.634 133.304 105.578 133.14 105.578 132.924V125.712C105.578 125.496 105.634 125.332 105.746 125.22C105.866 125.1 106.034 125.04 106.25 125.04H110.522C110.698 125.04 110.826 125.084 110.906 125.172C110.994 125.252 111.038 125.372 111.038 125.532C111.038 125.7 110.994 125.828 110.906 125.916C110.826 126.004 110.698 126.048 110.522 126.048H106.826V128.748H110.282C110.442 128.748 110.566 128.792 110.654 128.88C110.75 128.96 110.798 129.08 110.798 129.24C110.798 129.408 110.75 129.536 110.654 129.624C110.566 129.712 110.442 129.756 110.282 129.756H106.826V132.924C106.826 133.364 106.63 133.584 106.238 133.584ZM114.616 133.608C113.976 133.608 113.424 133.488 112.96 133.248C112.504 133 112.148 132.652 111.892 132.204C111.644 131.748 111.52 131.208 111.52 130.584C111.52 129.976 111.644 129.444 111.892 128.988C112.14 128.532 112.48 128.176 112.912 127.92C113.344 127.664 113.836 127.536 114.388 127.536C114.796 127.536 115.16 127.604 115.48 127.74C115.8 127.868 116.072 128.06 116.296 128.316C116.528 128.564 116.7 128.868 116.812 129.228C116.932 129.588 116.992 129.992 116.992 130.44C116.992 130.576 116.952 130.68 116.872 130.752C116.792 130.816 116.672 130.848 116.512 130.848H112.48V130.104H116.176L115.972 130.272C115.972 129.872 115.912 129.532 115.792 129.252C115.68 128.972 115.508 128.76 115.276 128.616C115.052 128.464 114.772 128.388 114.436 128.388C114.06 128.388 113.74 128.476 113.476 128.652C113.22 128.828 113.024 129.072 112.888 129.384C112.752 129.696 112.684 130.06 112.684 130.476V130.548C112.684 131.252 112.848 131.784 113.176 132.144C113.512 132.496 113.996 132.672 114.628 132.672C114.868 132.672 115.12 132.64 115.384 132.576C115.656 132.512 115.912 132.404 116.152 132.252C116.288 132.172 116.408 132.136 116.512 132.144C116.624 132.152 116.712 132.188 116.776 132.252C116.848 132.316 116.892 132.396 116.908 132.492C116.924 132.588 116.908 132.688 116.86 132.792C116.812 132.888 116.728 132.976 116.608 133.056C116.336 133.24 116.02 133.38 115.66 133.476C115.3 133.564 114.952 133.608 114.616 133.608ZM120.185 133.608C119.777 133.608 119.409 133.528 119.081 133.368C118.761 133.208 118.509 132.992 118.325 132.72C118.141 132.448 118.049 132.14 118.049 131.796C118.049 131.364 118.157 131.024 118.373 130.776C118.597 130.52 118.961 130.34 119.465 130.236C119.977 130.124 120.665 130.068 121.529 130.068H122.093V130.812H121.541C120.965 130.812 120.509 130.84 120.173 130.896C119.837 130.952 119.597 131.048 119.453 131.184C119.317 131.312 119.249 131.492 119.249 131.724C119.249 132.028 119.353 132.276 119.561 132.468C119.769 132.652 120.057 132.744 120.425 132.744C120.721 132.744 120.981 132.676 121.205 132.54C121.429 132.396 121.605 132.204 121.733 131.964C121.869 131.724 121.937 131.448 121.937 131.136V129.756C121.937 129.3 121.841 128.972 121.649 128.772C121.457 128.572 121.141 128.472 120.701 128.472C120.445 128.472 120.177 128.504 119.897 128.568C119.625 128.632 119.341 128.74 119.045 128.892C118.909 128.956 118.793 128.976 118.697 128.952C118.601 128.928 118.525 128.876 118.469 128.796C118.413 128.708 118.381 128.616 118.373 128.52C118.373 128.416 118.397 128.316 118.445 128.22C118.501 128.124 118.593 128.052 118.721 128.004C119.073 127.836 119.421 127.716 119.765 127.644C120.109 127.572 120.433 127.536 120.737 127.536C121.273 127.536 121.713 127.62 122.057 127.788C122.409 127.956 122.669 128.212 122.837 128.556C123.005 128.9 123.089 129.344 123.089 129.888V132.972C123.089 133.164 123.041 133.316 122.945 133.428C122.849 133.532 122.709 133.584 122.525 133.584C122.349 133.584 122.209 133.532 122.105 133.428C122.001 133.316 121.949 133.164 121.949 132.972V132.192H122.057C121.993 132.488 121.873 132.744 121.697 132.96C121.529 133.168 121.317 133.328 121.061 133.44C120.805 133.552 120.513 133.608 120.185 133.608ZM127.254 133.608C126.774 133.608 126.37 133.524 126.042 133.356C125.714 133.188 125.47 132.94 125.31 132.612C125.15 132.284 125.07 131.884 125.07 131.412V128.58H124.35C124.19 128.58 124.066 128.54 123.978 128.46C123.89 128.372 123.846 128.256 123.846 128.112C123.846 127.96 123.89 127.844 123.978 127.764C124.066 127.684 124.19 127.644 124.35 127.644H125.07V126.408C125.07 126.208 125.122 126.056 125.226 125.952C125.338 125.848 125.49 125.796 125.682 125.796C125.874 125.796 126.022 125.848 126.126 125.952C126.23 126.056 126.282 126.208 126.282 126.408V127.644H127.686C127.846 127.644 127.97 127.684 128.058 127.764C128.146 127.844 128.19 127.96 128.19 128.112C128.19 128.256 128.146 128.372 128.058 128.46C127.97 128.54 127.846 128.58 127.686 128.58H126.282V131.316C126.282 131.74 126.37 132.06 126.546 132.276C126.73 132.492 127.026 132.6 127.434 132.6C127.578 132.6 127.702 132.588 127.806 132.564C127.918 132.532 128.01 132.512 128.082 132.504C128.17 132.504 128.242 132.536 128.298 132.6C128.354 132.656 128.382 132.768 128.382 132.936C128.382 133.056 128.358 133.168 128.31 133.272C128.27 133.376 128.194 133.444 128.082 133.476C127.986 133.508 127.854 133.536 127.686 133.56C127.526 133.592 127.382 133.608 127.254 133.608ZM131.229 133.608C130.757 133.608 130.361 133.52 130.041 133.344C129.729 133.168 129.493 132.908 129.333 132.564C129.181 132.212 129.105 131.772 129.105 131.244V128.172C129.105 127.964 129.157 127.812 129.261 127.716C129.365 127.612 129.513 127.56 129.705 127.56C129.897 127.56 130.045 127.612 130.149 127.716C130.261 127.812 130.317 127.964 130.317 128.172V131.256C130.317 131.728 130.413 132.076 130.605 132.3C130.797 132.524 131.101 132.636 131.517 132.636C131.973 132.636 132.341 132.484 132.621 132.18C132.909 131.868 133.053 131.46 133.053 130.956V128.172C133.053 127.964 133.105 127.812 133.209 127.716C133.313 127.612 133.465 127.56 133.665 127.56C133.857 127.56 134.005 127.612 134.109 127.716C134.213 127.812 134.265 127.964 134.265 128.172V132.972C134.265 133.38 134.069 133.584 133.677 133.584C133.493 133.584 133.349 133.532 133.245 133.428C133.141 133.316 133.089 133.164 133.089 132.972V131.952L133.245 132.216C133.085 132.664 132.829 133.008 132.477 133.248C132.125 133.488 131.709 133.608 131.229 133.608ZM136.585 133.584C136.385 133.584 136.233 133.532 136.129 133.428C136.025 133.316 135.973 133.164 135.973 132.972V128.172C135.973 127.972 136.025 127.82 136.129 127.716C136.233 127.612 136.377 127.56 136.561 127.56C136.753 127.56 136.897 127.612 136.993 127.716C137.097 127.82 137.149 127.972 137.149 128.172V129.048H137.029C137.157 128.568 137.393 128.204 137.737 127.956C138.081 127.708 138.521 127.564 139.057 127.524C139.201 127.516 139.313 127.552 139.393 127.632C139.481 127.712 139.529 127.836 139.537 128.004C139.553 128.172 139.517 128.308 139.429 128.412C139.341 128.508 139.205 128.564 139.021 128.58L138.793 128.604C138.273 128.652 137.877 128.816 137.605 129.096C137.333 129.376 137.197 129.76 137.197 130.248V132.972C137.197 133.164 137.145 133.316 137.041 133.428C136.945 133.532 136.793 133.584 136.585 133.584ZM143.116 133.608C142.476 133.608 141.924 133.488 141.46 133.248C141.004 133 140.648 132.652 140.392 132.204C140.144 131.748 140.02 131.208 140.02 130.584C140.02 129.976 140.144 129.444 140.392 128.988C140.64 128.532 140.98 128.176 141.412 127.92C141.844 127.664 142.336 127.536 142.888 127.536C143.296 127.536 143.66 127.604 143.98 127.74C144.3 127.868 144.572 128.06 144.796 128.316C145.028 128.564 145.2 128.868 145.312 129.228C145.432 129.588 145.492 129.992 145.492 130.44C145.492 130.576 145.452 130.68 145.372 130.752C145.292 130.816 145.172 130.848 145.012 130.848H140.98V130.104H144.676L144.472 130.272C144.472 129.872 144.412 129.532 144.292 129.252C144.18 128.972 144.008 128.76 143.776 128.616C143.552 128.464 143.272 128.388 142.936 128.388C142.56 128.388 142.24 128.476 141.976 128.652C141.72 128.828 141.524 129.072 141.388 129.384C141.252 129.696 141.184 130.06 141.184 130.476V130.548C141.184 131.252 141.348 131.784 141.676 132.144C142.012 132.496 142.496 132.672 143.128 132.672C143.368 132.672 143.62 132.64 143.884 132.576C144.156 132.512 144.412 132.404 144.652 132.252C144.788 132.172 144.908 132.136 145.012 132.144C145.124 132.152 145.212 132.188 145.276 132.252C145.348 132.316 145.392 132.396 145.408 132.492C145.424 132.588 145.408 132.688 145.36 132.792C145.312 132.888 145.228 132.976 145.108 133.056C144.836 133.24 144.52 133.38 144.16 133.476C143.8 133.564 143.452 133.608 143.116 133.608ZM147.401 133.548C147.169 133.548 146.981 133.476 146.837 133.332C146.693 133.188 146.621 133.004 146.621 132.78C146.621 132.556 146.693 132.376 146.837 132.24C146.981 132.096 147.169 132.024 147.401 132.024C147.633 132.024 147.817 132.096 147.953 132.24C148.089 132.376 148.157 132.556 148.157 132.78C148.157 133.004 148.089 133.188 147.953 133.332C147.817 133.476 147.633 133.548 147.401 133.548ZM147.401 129.12C147.169 129.12 146.981 129.048 146.837 128.904C146.693 128.76 146.621 128.58 146.621 128.364C146.621 128.132 146.693 127.948 146.837 127.812C146.981 127.668 147.169 127.596 147.401 127.596C147.633 127.596 147.817 127.668 147.953 127.812C148.089 127.948 148.157 128.132 148.157 128.364C148.157 128.58 148.089 128.76 147.953 128.904C147.817 129.048 147.633 129.12 147.401 129.12ZM156.749 133.608C155.893 133.608 155.161 133.432 154.553 133.08C153.945 132.728 153.477 132.228 153.149 131.58C152.829 130.924 152.669 130.152 152.669 129.264C152.669 128.6 152.761 128.004 152.945 127.476C153.129 126.94 153.393 126.484 153.737 126.108C154.089 125.724 154.517 125.432 155.021 125.232C155.533 125.032 156.109 124.932 156.749 124.932C157.221 124.932 157.673 124.996 158.105 125.124C158.545 125.252 158.925 125.436 159.245 125.676C159.381 125.764 159.469 125.872 159.509 126C159.557 126.12 159.565 126.236 159.533 126.348C159.509 126.46 159.457 126.556 159.377 126.636C159.297 126.708 159.193 126.748 159.065 126.756C158.945 126.764 158.813 126.72 158.669 126.624C158.405 126.424 158.113 126.276 157.793 126.18C157.473 126.084 157.137 126.036 156.785 126.036C156.177 126.036 155.665 126.164 155.249 126.42C154.833 126.668 154.517 127.032 154.301 127.512C154.085 127.992 153.977 128.576 153.977 129.264C153.977 129.952 154.085 130.54 154.301 131.028C154.517 131.508 154.833 131.876 155.249 132.132C155.665 132.38 156.177 132.504 156.785 132.504C157.137 132.504 157.473 132.456 157.793 132.36C158.121 132.256 158.429 132.104 158.717 131.904C158.861 131.816 158.989 131.776 159.101 131.784C159.221 131.792 159.321 131.832 159.401 131.904C159.481 131.976 159.533 132.068 159.557 132.18C159.589 132.284 159.585 132.396 159.545 132.516C159.513 132.628 159.437 132.724 159.317 132.804C158.989 133.068 158.601 133.268 158.153 133.404C157.705 133.54 157.237 133.608 156.749 133.608ZM161.534 133.584C161.342 133.584 161.194 133.532 161.09 133.428C160.986 133.316 160.934 133.164 160.934 132.972V125.568C160.934 125.368 160.986 125.216 161.09 125.112C161.194 125.008 161.342 124.956 161.534 124.956C161.726 124.956 161.874 125.008 161.978 125.112C162.09 125.216 162.146 125.368 162.146 125.568V128.892H161.978C162.154 128.444 162.43 128.108 162.806 127.884C163.182 127.652 163.614 127.536 164.102 127.536C164.566 127.536 164.95 127.624 165.254 127.8C165.566 127.968 165.798 128.228 165.95 128.58C166.102 128.924 166.178 129.36 166.178 129.888V132.972C166.178 133.164 166.126 133.316 166.022 133.428C165.918 133.532 165.77 133.584 165.578 133.584C165.378 133.584 165.226 133.532 165.122 133.428C165.018 133.316 164.966 133.164 164.966 132.972V129.96C164.966 129.456 164.866 129.088 164.666 128.856C164.474 128.624 164.17 128.508 163.754 128.508C163.266 128.508 162.874 128.66 162.578 128.964C162.29 129.268 162.146 129.676 162.146 130.188V132.972C162.146 133.38 161.942 133.584 161.534 133.584ZM170.596 133.608C169.956 133.608 169.404 133.488 168.94 133.248C168.484 133 168.128 132.652 167.872 132.204C167.624 131.748 167.5 131.208 167.5 130.584C167.5 129.976 167.624 129.444 167.872 128.988C168.12 128.532 168.46 128.176 168.892 127.92C169.324 127.664 169.816 127.536 170.368 127.536C170.776 127.536 171.14 127.604 171.46 127.74C171.78 127.868 172.052 128.06 172.276 128.316C172.508 128.564 172.68 128.868 172.792 129.228C172.912 129.588 172.972 129.992 172.972 130.44C172.972 130.576 172.932 130.68 172.852 130.752C172.772 130.816 172.652 130.848 172.492 130.848H168.46V130.104H172.156L171.952 130.272C171.952 129.872 171.892 129.532 171.772 129.252C171.66 128.972 171.488 128.76 171.256 128.616C171.032 128.464 170.752 128.388 170.416 128.388C170.04 128.388 169.72 128.476 169.456 128.652C169.2 128.828 169.004 129.072 168.868 129.384C168.732 129.696 168.664 130.06 168.664 130.476V130.548C168.664 131.252 168.828 131.784 169.156 132.144C169.492 132.496 169.976 132.672 170.608 132.672C170.848 132.672 171.1 132.64 171.364 132.576C171.636 132.512 171.892 132.404 172.132 132.252C172.268 132.172 172.388 132.136 172.492 132.144C172.604 132.152 172.692 132.188 172.756 132.252C172.828 132.316 172.872 132.396 172.888 132.492C172.904 132.588 172.888 132.688 172.84 132.792C172.792 132.888 172.708 132.976 172.588 133.056C172.316 133.24 172 133.38 171.64 133.476C171.28 133.564 170.932 133.608 170.596 133.608ZM176.873 133.608C176.273 133.608 175.753 133.484 175.313 133.236C174.881 132.98 174.545 132.624 174.305 132.168C174.065 131.704 173.945 131.16 173.945 130.536C173.945 130.072 174.013 129.656 174.149 129.288C174.285 128.912 174.477 128.596 174.725 128.34C174.981 128.084 175.289 127.888 175.649 127.752C176.017 127.608 176.425 127.536 176.873 127.536C177.153 127.536 177.445 127.58 177.749 127.668C178.061 127.748 178.349 127.884 178.613 128.076C178.717 128.14 178.781 128.22 178.805 128.316C178.837 128.404 178.841 128.496 178.817 128.592C178.801 128.688 178.757 128.772 178.685 128.844C178.621 128.908 178.541 128.948 178.445 128.964C178.349 128.972 178.245 128.944 178.133 128.88C177.941 128.744 177.745 128.648 177.545 128.592C177.345 128.528 177.153 128.496 176.969 128.496C176.681 128.496 176.425 128.544 176.201 128.64C175.985 128.728 175.801 128.86 175.649 129.036C175.497 129.204 175.381 129.416 175.301 129.672C175.229 129.928 175.193 130.22 175.193 130.548C175.193 131.204 175.345 131.72 175.649 132.096C175.961 132.464 176.401 132.648 176.969 132.648C177.153 132.648 177.345 132.62 177.545 132.564C177.745 132.508 177.941 132.412 178.133 132.276C178.245 132.212 178.349 132.188 178.445 132.204C178.541 132.22 178.617 132.264 178.673 132.336C178.737 132.4 178.777 132.48 178.793 132.576C178.817 132.664 178.813 132.756 178.781 132.852C178.749 132.948 178.681 133.028 178.577 133.092C178.321 133.276 178.041 133.408 177.737 133.488C177.441 133.568 177.153 133.608 176.873 133.608ZM180.495 133.584C180.303 133.584 180.155 133.532 180.051 133.428C179.947 133.316 179.895 133.164 179.895 132.972V125.568C179.895 125.368 179.947 125.216 180.051 125.112C180.155 125.008 180.303 124.956 180.495 124.956C180.687 124.956 180.835 125.008 180.939 125.112C181.051 125.216 181.107 125.368 181.107 125.568V130.2H181.131L183.375 127.968C183.503 127.84 183.619 127.74 183.723 127.668C183.827 127.596 183.963 127.56 184.131 127.56C184.299 127.56 184.427 127.604 184.515 127.692C184.603 127.78 184.647 127.888 184.647 128.016C184.647 128.136 184.587 128.26 184.467 128.388L182.091 130.74V130.176L184.683 132.756C184.811 132.884 184.871 133.012 184.863 133.14C184.855 133.268 184.803 133.376 184.707 133.464C184.611 133.544 184.491 133.584 184.347 133.584C184.163 133.584 184.015 133.548 183.903 133.476C183.799 133.404 183.675 133.296 183.531 133.152L181.131 130.824H181.107V132.972C181.107 133.38 180.903 133.584 180.495 133.584ZM191.791 133.608C191.199 133.608 190.687 133.484 190.255 133.236C189.831 132.988 189.499 132.636 189.259 132.18C189.019 131.724 188.899 131.188 188.899 130.572C188.899 130.1 188.967 129.68 189.103 129.312C189.239 128.944 189.431 128.628 189.679 128.364C189.935 128.092 190.239 127.888 190.591 127.752C190.951 127.608 191.351 127.536 191.791 127.536C192.375 127.536 192.879 127.66 193.303 127.908C193.735 128.156 194.071 128.508 194.311 128.964C194.551 129.412 194.671 129.948 194.671 130.572C194.671 131.036 194.603 131.456 194.467 131.832C194.331 132.208 194.135 132.528 193.879 132.792C193.631 133.056 193.327 133.26 192.967 133.404C192.615 133.54 192.223 133.608 191.791 133.608ZM191.791 132.672C192.119 132.672 192.407 132.592 192.655 132.432C192.903 132.272 193.095 132.036 193.231 131.724C193.375 131.412 193.447 131.028 193.447 130.572C193.447 129.884 193.295 129.364 192.991 129.012C192.687 128.66 192.287 128.484 191.791 128.484C191.455 128.484 191.163 128.564 190.915 128.724C190.667 128.876 190.471 129.108 190.327 129.42C190.191 129.732 190.123 130.116 190.123 130.572C190.123 131.252 190.275 131.772 190.579 132.132C190.883 132.492 191.287 132.672 191.791 132.672ZM198.12 133.608C197.648 133.608 197.252 133.52 196.932 133.344C196.62 133.168 196.384 132.908 196.224 132.564C196.072 132.212 195.996 131.772 195.996 131.244V128.172C195.996 127.964 196.048 127.812 196.152 127.716C196.256 127.612 196.404 127.56 196.596 127.56C196.788 127.56 196.936 127.612 197.04 127.716C197.152 127.812 197.208 127.964 197.208 128.172V131.256C197.208 131.728 197.304 132.076 197.496 132.3C197.688 132.524 197.992 132.636 198.408 132.636C198.864 132.636 199.232 132.484 199.512 132.18C199.8 131.868 199.944 131.46 199.944 130.956V128.172C199.944 127.964 199.996 127.812 200.1 127.716C200.204 127.612 200.356 127.56 200.556 127.56C200.748 127.56 200.896 127.612 201 127.716C201.104 127.812 201.156 127.964 201.156 128.172V132.972C201.156 133.38 200.96 133.584 200.568 133.584C200.384 133.584 200.24 133.532 200.136 133.428C200.032 133.316 199.98 133.164 199.98 132.972V131.952L200.136 132.216C199.976 132.664 199.72 133.008 199.368 133.248C199.016 133.488 198.6 133.608 198.12 133.608ZM205.36 133.608C204.88 133.608 204.476 133.524 204.148 133.356C203.82 133.188 203.576 132.94 203.416 132.612C203.256 132.284 203.176 131.884 203.176 131.412V128.58H202.456C202.296 128.58 202.172 128.54 202.084 128.46C201.996 128.372 201.952 128.256 201.952 128.112C201.952 127.96 201.996 127.844 202.084 127.764C202.172 127.684 202.296 127.644 202.456 127.644H203.176V126.408C203.176 126.208 203.228 126.056 203.332 125.952C203.444 125.848 203.596 125.796 203.788 125.796C203.98 125.796 204.128 125.848 204.232 125.952C204.336 126.056 204.388 126.208 204.388 126.408V127.644H205.792C205.952 127.644 206.076 127.684 206.164 127.764C206.252 127.844 206.296 127.96 206.296 128.112C206.296 128.256 206.252 128.372 206.164 128.46C206.076 128.54 205.952 128.58 205.792 128.58H204.388V131.316C204.388 131.74 204.476 132.06 204.652 132.276C204.836 132.492 205.132 132.6 205.54 132.6C205.684 132.6 205.808 132.588 205.912 132.564C206.024 132.532 206.116 132.512 206.188 132.504C206.276 132.504 206.348 132.536 206.404 132.6C206.46 132.656 206.488 132.768 206.488 132.936C206.488 133.056 206.464 133.168 206.416 133.272C206.376 133.376 206.3 133.444 206.188 133.476C206.092 133.508 205.96 133.536 205.792 133.56C205.632 133.592 205.488 133.608 205.36 133.608ZM212.907 133.608C212.427 133.608 212.023 133.524 211.695 133.356C211.367 133.188 211.123 132.94 210.963 132.612C210.803 132.284 210.723 131.884 210.723 131.412V128.58H210.003C209.843 128.58 209.719 128.54 209.631 128.46C209.543 128.372 209.499 128.256 209.499 128.112C209.499 127.96 209.543 127.844 209.631 127.764C209.719 127.684 209.843 127.644 210.003 127.644H210.723V126.408C210.723 126.208 210.775 126.056 210.879 125.952C210.991 125.848 211.143 125.796 211.335 125.796C211.527 125.796 211.675 125.848 211.779 125.952C211.883 126.056 211.935 126.208 211.935 126.408V127.644H213.339C213.499 127.644 213.623 127.684 213.711 127.764C213.799 127.844 213.843 127.96 213.843 128.112C213.843 128.256 213.799 128.372 213.711 128.46C213.623 128.54 213.499 128.58 213.339 128.58H211.935V131.316C211.935 131.74 212.023 132.06 212.199 132.276C212.383 132.492 212.679 132.6 213.087 132.6C213.231 132.6 213.355 132.588 213.459 132.564C213.571 132.532 213.663 132.512 213.735 132.504C213.823 132.504 213.895 132.536 213.951 132.6C214.007 132.656 214.035 132.768 214.035 132.936C214.035 133.056 214.011 133.168 213.963 133.272C213.923 133.376 213.847 133.444 213.735 133.476C213.639 133.508 213.507 133.536 213.339 133.56C213.179 133.592 213.035 133.608 212.907 133.608ZM215.499 133.584C215.307 133.584 215.159 133.532 215.055 133.428C214.951 133.316 214.899 133.164 214.899 132.972V125.568C214.899 125.368 214.951 125.216 215.055 125.112C215.159 125.008 215.307 124.956 215.499 124.956C215.691 124.956 215.839 125.008 215.943 125.112C216.055 125.216 216.111 125.368 216.111 125.568V128.892H215.943C216.119 128.444 216.395 128.108 216.771 127.884C217.147 127.652 217.579 127.536 218.067 127.536C218.531 127.536 218.915 127.624 219.219 127.8C219.531 127.968 219.763 128.228 219.915 128.58C220.067 128.924 220.143 129.36 220.143 129.888V132.972C220.143 133.164 220.091 133.316 219.987 133.428C219.883 133.532 219.735 133.584 219.543 133.584C219.343 133.584 219.191 133.532 219.087 133.428C218.983 133.316 218.931 133.164 218.931 132.972V129.96C218.931 129.456 218.831 129.088 218.631 128.856C218.439 128.624 218.135 128.508 217.719 128.508C217.231 128.508 216.839 128.66 216.543 128.964C216.255 129.268 216.111 129.676 216.111 130.188V132.972C216.111 133.38 215.907 133.584 215.499 133.584ZM224.561 133.608C223.921 133.608 223.369 133.488 222.905 133.248C222.449 133 222.093 132.652 221.837 132.204C221.589 131.748 221.465 131.208 221.465 130.584C221.465 129.976 221.589 129.444 221.837 128.988C222.085 128.532 222.425 128.176 222.857 127.92C223.289 127.664 223.781 127.536 224.333 127.536C224.741 127.536 225.105 127.604 225.425 127.74C225.745 127.868 226.017 128.06 226.241 128.316C226.473 128.564 226.645 128.868 226.757 129.228C226.877 129.588 226.937 129.992 226.937 130.44C226.937 130.576 226.897 130.68 226.817 130.752C226.737 130.816 226.617 130.848 226.457 130.848H222.425V130.104H226.121L225.917 130.272C225.917 129.872 225.857 129.532 225.737 129.252C225.625 128.972 225.453 128.76 225.221 128.616C224.997 128.464 224.717 128.388 224.381 128.388C224.005 128.388 223.685 128.476 223.421 128.652C223.165 128.828 222.969 129.072 222.833 129.384C222.697 129.696 222.629 130.06 222.629 130.476V130.548C222.629 131.252 222.793 131.784 223.121 132.144C223.457 132.496 223.941 132.672 224.573 132.672C224.813 132.672 225.065 132.64 225.329 132.576C225.601 132.512 225.857 132.404 226.097 132.252C226.233 132.172 226.353 132.136 226.457 132.144C226.569 132.152 226.657 132.188 226.721 132.252C226.793 132.316 226.837 132.396 226.853 132.492C226.869 132.588 226.853 132.688 226.805 132.792C226.757 132.888 226.673 132.976 226.553 133.056C226.281 133.24 225.965 133.38 225.605 133.476C225.245 133.564 224.897 133.608 224.561 133.608ZM232.022 133.584C231.83 133.584 231.682 133.532 231.578 133.428C231.474 133.316 231.422 133.164 231.422 132.972V128.172C231.422 127.972 231.474 127.82 231.578 127.716C231.682 127.612 231.826 127.56 232.01 127.56C232.202 127.56 232.346 127.612 232.442 127.716C232.546 127.82 232.598 127.972 232.598 128.172V129.108L232.466 128.892C232.642 128.444 232.918 128.108 233.294 127.884C233.67 127.652 234.102 127.536 234.59 127.536C235.054 127.536 235.438 127.624 235.742 127.8C236.054 127.968 236.286 128.228 236.438 128.58C236.59 128.924 236.666 129.36 236.666 129.888V132.972C236.666 133.164 236.614 133.316 236.51 133.428C236.406 133.532 236.258 133.584 236.066 133.584C235.866 133.584 235.714 133.532 235.61 133.428C235.506 133.316 235.454 133.164 235.454 132.972V129.96C235.454 129.456 235.354 129.088 235.154 128.856C234.962 128.624 234.658 128.508 234.242 128.508C233.754 128.508 233.362 128.66 233.066 128.964C232.778 129.268 232.634 129.676 232.634 130.188V132.972C232.634 133.38 232.43 133.584 232.022 133.584ZM241.084 133.608C240.444 133.608 239.892 133.488 239.428 133.248C238.972 133 238.616 132.652 238.36 132.204C238.112 131.748 237.988 131.208 237.988 130.584C237.988 129.976 238.112 129.444 238.36 128.988C238.608 128.532 238.948 128.176 239.38 127.92C239.812 127.664 240.304 127.536 240.856 127.536C241.264 127.536 241.628 127.604 241.948 127.74C242.268 127.868 242.54 128.06 242.764 128.316C242.996 128.564 243.168 128.868 243.28 129.228C243.4 129.588 243.46 129.992 243.46 130.44C243.46 130.576 243.42 130.68 243.34 130.752C243.26 130.816 243.14 130.848 242.98 130.848H238.948V130.104H242.644L242.44 130.272C242.44 129.872 242.38 129.532 242.26 129.252C242.148 128.972 241.976 128.76 241.744 128.616C241.52 128.464 241.24 128.388 240.904 128.388C240.528 128.388 240.208 128.476 239.944 128.652C239.688 128.828 239.492 129.072 239.356 129.384C239.22 129.696 239.152 130.06 239.152 130.476V130.548C239.152 131.252 239.316 131.784 239.644 132.144C239.98 132.496 240.464 132.672 241.096 132.672C241.336 132.672 241.588 132.64 241.852 132.576C242.124 132.512 242.38 132.404 242.62 132.252C242.756 132.172 242.876 132.136 242.98 132.144C243.092 132.152 243.18 132.188 243.244 132.252C243.316 132.316 243.36 132.396 243.376 132.492C243.392 132.588 243.376 132.688 243.328 132.792C243.28 132.888 243.196 132.976 243.076 133.056C242.804 133.24 242.488 133.38 242.128 133.476C241.768 133.564 241.42 133.608 241.084 133.608ZM246.836 133.584C246.668 133.584 246.52 133.544 246.392 133.464C246.272 133.376 246.176 133.24 246.104 133.056L244.34 128.388C244.276 128.228 244.256 128.088 244.28 127.968C244.304 127.84 244.364 127.74 244.46 127.668C244.564 127.596 244.696 127.56 244.856 127.56C245 127.56 245.116 127.596 245.204 127.668C245.3 127.732 245.38 127.86 245.444 128.052L247.016 132.48H246.728L248.36 128.004C248.416 127.852 248.492 127.74 248.588 127.668C248.684 127.596 248.808 127.56 248.96 127.56C249.112 127.56 249.236 127.596 249.332 127.668C249.436 127.74 249.512 127.852 249.56 128.004L251.156 132.48H250.892L252.488 128.028C252.552 127.844 252.632 127.72 252.728 127.656C252.832 127.592 252.948 127.56 253.076 127.56C253.236 127.56 253.356 127.6 253.436 127.68C253.524 127.76 253.572 127.864 253.58 127.992C253.596 128.112 253.576 128.244 253.52 128.388L251.756 133.056C251.684 133.232 251.584 133.364 251.456 133.452C251.336 133.54 251.196 133.584 251.036 133.584C250.868 133.584 250.72 133.54 250.592 133.452C250.472 133.364 250.376 133.232 250.304 133.056L248.624 128.508H249.224L247.556 133.056C247.492 133.232 247.396 133.364 247.268 133.452C247.148 133.54 247.004 133.584 246.836 133.584ZM258.972 133.584C258.78 133.584 258.628 133.532 258.516 133.428C258.412 133.316 258.36 133.164 258.36 132.972V128.58H257.688C257.536 128.58 257.416 128.54 257.328 128.46C257.24 128.372 257.196 128.256 257.196 128.112C257.196 127.96 257.24 127.844 257.328 127.764C257.416 127.684 257.536 127.644 257.688 127.644H258.708L258.36 127.968V127.536C258.36 126.744 258.556 126.148 258.948 125.748C259.34 125.34 259.912 125.1 260.664 125.028L261.036 125.004C261.172 124.988 261.28 125.008 261.36 125.064C261.44 125.12 261.492 125.192 261.516 125.28C261.54 125.368 261.54 125.46 261.516 125.556C261.5 125.644 261.46 125.724 261.396 125.796C261.332 125.868 261.252 125.908 261.156 125.916L260.928 125.928C260.456 125.968 260.112 126.104 259.896 126.336C259.68 126.56 259.572 126.904 259.572 127.368V127.836L259.404 127.644H260.736C260.904 127.644 261.028 127.684 261.108 127.764C261.196 127.844 261.24 127.96 261.24 128.112C261.24 128.256 261.196 128.372 261.108 128.46C261.028 128.54 260.904 128.58 260.736 128.58H259.572V132.972C259.572 133.38 259.372 133.584 258.972 133.584ZM264.756 133.608C264.116 133.608 263.564 133.488 263.1 133.248C262.644 133 262.288 132.652 262.032 132.204C261.784 131.748 261.66 131.208 261.66 130.584C261.66 129.976 261.784 129.444 262.032 128.988C262.28 128.532 262.62 128.176 263.052 127.92C263.484 127.664 263.976 127.536 264.528 127.536C264.936 127.536 265.3 127.604 265.62 127.74C265.94 127.868 266.212 128.06 266.436 128.316C266.668 128.564 266.84 128.868 266.952 129.228C267.072 129.588 267.132 129.992 267.132 130.44C267.132 130.576 267.092 130.68 267.012 130.752C266.932 130.816 266.812 130.848 266.652 130.848H262.62V130.104H266.316L266.112 130.272C266.112 129.872 266.052 129.532 265.932 129.252C265.82 128.972 265.648 128.76 265.416 128.616C265.192 128.464 264.912 128.388 264.576 128.388C264.2 128.388 263.88 128.476 263.616 128.652C263.36 128.828 263.164 129.072 263.028 129.384C262.892 129.696 262.824 130.06 262.824 130.476V130.548C262.824 131.252 262.988 131.784 263.316 132.144C263.652 132.496 264.136 132.672 264.768 132.672C265.008 132.672 265.26 132.64 265.524 132.576C265.796 132.512 266.052 132.404 266.292 132.252C266.428 132.172 266.548 132.136 266.652 132.144C266.764 132.152 266.852 132.188 266.916 132.252C266.988 132.316 267.032 132.396 267.048 132.492C267.064 132.588 267.048 132.688 267 132.792C266.952 132.888 266.868 132.976 266.748 133.056C266.476 133.24 266.16 133.38 265.8 133.476C265.44 133.564 265.092 133.608 264.756 133.608ZM270.326 133.608C269.918 133.608 269.55 133.528 269.222 133.368C268.902 133.208 268.65 132.992 268.466 132.72C268.282 132.448 268.19 132.14 268.19 131.796C268.19 131.364 268.298 131.024 268.514 130.776C268.738 130.52 269.102 130.34 269.606 130.236C270.118 130.124 270.806 130.068 271.67 130.068H272.234V130.812H271.682C271.106 130.812 270.65 130.84 270.314 130.896C269.978 130.952 269.738 131.048 269.594 131.184C269.458 131.312 269.39 131.492 269.39 131.724C269.39 132.028 269.494 132.276 269.702 132.468C269.91 132.652 270.198 132.744 270.566 132.744C270.862 132.744 271.122 132.676 271.346 132.54C271.57 132.396 271.746 132.204 271.874 131.964C272.01 131.724 272.078 131.448 272.078 131.136V129.756C272.078 129.3 271.982 128.972 271.79 128.772C271.598 128.572 271.282 128.472 270.842 128.472C270.586 128.472 270.318 128.504 270.038 128.568C269.766 128.632 269.482 128.74 269.186 128.892C269.05 128.956 268.934 128.976 268.838 128.952C268.742 128.928 268.666 128.876 268.61 128.796C268.554 128.708 268.522 128.616 268.514 128.52C268.514 128.416 268.538 128.316 268.586 128.22C268.642 128.124 268.734 128.052 268.862 128.004C269.214 127.836 269.562 127.716 269.906 127.644C270.25 127.572 270.574 127.536 270.878 127.536C271.414 127.536 271.854 127.62 272.198 127.788C272.55 127.956 272.81 128.212 272.978 128.556C273.146 128.9 273.23 129.344 273.23 129.888V132.972C273.23 133.164 273.182 133.316 273.086 133.428C272.99 133.532 272.85 133.584 272.666 133.584C272.49 133.584 272.35 133.532 272.246 133.428C272.142 133.316 272.09 133.164 272.09 132.972V132.192H272.198C272.134 132.488 272.014 132.744 271.838 132.96C271.67 133.168 271.458 133.328 271.202 133.44C270.946 133.552 270.654 133.608 270.326 133.608ZM277.395 133.608C276.915 133.608 276.511 133.524 276.183 133.356C275.855 133.188 275.611 132.94 275.451 132.612C275.291 132.284 275.211 131.884 275.211 131.412V128.58H274.491C274.331 128.58 274.207 128.54 274.119 128.46C274.031 128.372 273.987 128.256 273.987 128.112C273.987 127.96 274.031 127.844 274.119 127.764C274.207 127.684 274.331 127.644 274.491 127.644H275.211V126.408C275.211 126.208 275.263 126.056 275.367 125.952C275.479 125.848 275.631 125.796 275.823 125.796C276.015 125.796 276.163 125.848 276.267 125.952C276.371 126.056 276.423 126.208 276.423 126.408V127.644H277.827C277.987 127.644 278.111 127.684 278.199 127.764C278.287 127.844 278.331 127.96 278.331 128.112C278.331 128.256 278.287 128.372 278.199 128.46C278.111 128.54 277.987 128.58 277.827 128.58H276.423V131.316C276.423 131.74 276.511 132.06 276.687 132.276C276.871 132.492 277.167 132.6 277.575 132.6C277.719 132.6 277.843 132.588 277.947 132.564C278.059 132.532 278.151 132.512 278.223 132.504C278.311 132.504 278.383 132.536 278.439 132.6C278.495 132.656 278.523 132.768 278.523 132.936C278.523 133.056 278.499 133.168 278.451 133.272C278.411 133.376 278.335 133.444 278.223 133.476C278.127 133.508 277.995 133.536 277.827 133.56C277.667 133.592 277.523 133.608 277.395 133.608ZM281.37 133.608C280.898 133.608 280.502 133.52 280.182 133.344C279.87 133.168 279.634 132.908 279.474 132.564C279.322 132.212 279.246 131.772 279.246 131.244V128.172C279.246 127.964 279.298 127.812 279.402 127.716C279.506 127.612 279.654 127.56 279.846 127.56C280.038 127.56 280.186 127.612 280.29 127.716C280.402 127.812 280.458 127.964 280.458 128.172V131.256C280.458 131.728 280.554 132.076 280.746 132.3C280.938 132.524 281.242 132.636 281.658 132.636C282.114 132.636 282.482 132.484 282.762 132.18C283.05 131.868 283.194 131.46 283.194 130.956V128.172C283.194 127.964 283.246 127.812 283.35 127.716C283.454 127.612 283.606 127.56 283.806 127.56C283.998 127.56 284.146 127.612 284.25 127.716C284.354 127.812 284.406 127.964 284.406 128.172V132.972C284.406 133.38 284.21 133.584 283.818 133.584C283.634 133.584 283.49 133.532 283.386 133.428C283.282 133.316 283.23 133.164 283.23 132.972V131.952L283.386 132.216C283.226 132.664 282.97 133.008 282.618 133.248C282.266 133.488 281.85 133.608 281.37 133.608ZM286.726 133.584C286.526 133.584 286.374 133.532 286.27 133.428C286.166 133.316 286.114 133.164 286.114 132.972V128.172C286.114 127.972 286.166 127.82 286.27 127.716C286.374 127.612 286.518 127.56 286.702 127.56C286.894 127.56 287.038 127.612 287.134 127.716C287.238 127.82 287.29 127.972 287.29 128.172V129.048H287.17C287.298 128.568 287.534 128.204 287.878 127.956C288.222 127.708 288.662 127.564 289.198 127.524C289.342 127.516 289.454 127.552 289.534 127.632C289.622 127.712 289.67 127.836 289.678 128.004C289.694 128.172 289.658 128.308 289.57 128.412C289.482 128.508 289.346 128.564 289.162 128.58L288.934 128.604C288.414 128.652 288.018 128.816 287.746 129.096C287.474 129.376 287.338 129.76 287.338 130.248V132.972C287.338 133.164 287.286 133.316 287.182 133.428C287.086 133.532 286.934 133.584 286.726 133.584ZM293.256 133.608C292.616 133.608 292.064 133.488 291.6 133.248C291.144 133 290.788 132.652 290.532 132.204C290.284 131.748 290.16 131.208 290.16 130.584C290.16 129.976 290.284 129.444 290.532 128.988C290.78 128.532 291.12 128.176 291.552 127.92C291.984 127.664 292.476 127.536 293.028 127.536C293.436 127.536 293.8 127.604 294.12 127.74C294.44 127.868 294.712 128.06 294.936 128.316C295.168 128.564 295.34 128.868 295.452 129.228C295.572 129.588 295.632 129.992 295.632 130.44C295.632 130.576 295.592 130.68 295.512 130.752C295.432 130.816 295.312 130.848 295.152 130.848H291.12V130.104H294.816L294.612 130.272C294.612 129.872 294.552 129.532 294.432 129.252C294.32 128.972 294.148 128.76 293.916 128.616C293.692 128.464 293.412 128.388 293.076 128.388C292.7 128.388 292.38 128.476 292.116 128.652C291.86 128.828 291.664 129.072 291.528 129.384C291.392 129.696 291.324 130.06 291.324 130.476V130.548C291.324 131.252 291.488 131.784 291.816 132.144C292.152 132.496 292.636 132.672 293.268 132.672C293.508 132.672 293.76 132.64 294.024 132.576C294.296 132.512 294.552 132.404 294.792 132.252C294.928 132.172 295.048 132.136 295.152 132.144C295.264 132.152 295.352 132.188 295.416 132.252C295.488 132.316 295.532 132.396 295.548 132.492C295.564 132.588 295.548 132.688 295.5 132.792C295.452 132.888 295.368 132.976 295.248 133.056C294.976 133.24 294.66 133.38 294.3 133.476C293.94 133.564 293.592 133.608 293.256 133.608ZM78.724 149.608C78.316 149.608 77.948 149.528 77.62 149.368C77.3 149.208 77.048 148.992 76.864 148.72C76.68 148.448 76.588 148.14 76.588 147.796C76.588 147.364 76.696 147.024 76.912 146.776C77.136 146.52 77.5 146.34 78.004 146.236C78.516 146.124 79.204 146.068 80.068 146.068H80.632V146.812H80.08C79.504 146.812 79.048 146.84 78.712 146.896C78.376 146.952 78.136 147.048 77.992 147.184C77.856 147.312 77.788 147.492 77.788 147.724C77.788 148.028 77.892 148.276 78.1 148.468C78.308 148.652 78.596 148.744 78.964 148.744C79.26 148.744 79.52 148.676 79.744 148.54C79.968 148.396 80.144 148.204 80.272 147.964C80.408 147.724 80.476 147.448 80.476 147.136V145.756C80.476 145.3 80.38 144.972 80.188 144.772C79.996 144.572 79.68 144.472 79.24 144.472C78.984 144.472 78.716 144.504 78.436 144.568C78.164 144.632 77.88 144.74 77.584 144.892C77.448 144.956 77.332 144.976 77.236 144.952C77.14 144.928 77.064 144.876 77.008 144.796C76.952 144.708 76.92 144.616 76.912 144.52C76.912 144.416 76.936 144.316 76.984 144.22C77.04 144.124 77.132 144.052 77.26 144.004C77.612 143.836 77.96 143.716 78.304 143.644C78.648 143.572 78.972 143.536 79.276 143.536C79.812 143.536 80.252 143.62 80.596 143.788C80.948 143.956 81.208 144.212 81.376 144.556C81.544 144.9 81.628 145.344 81.628 145.888V148.972C81.628 149.164 81.58 149.316 81.484 149.428C81.388 149.532 81.248 149.584 81.064 149.584C80.888 149.584 80.748 149.532 80.644 149.428C80.54 149.316 80.488 149.164 80.488 148.972V148.192H80.596C80.532 148.488 80.412 148.744 80.236 148.96C80.068 149.168 79.856 149.328 79.6 149.44C79.344 149.552 79.052 149.608 78.724 149.608ZM85.5067 149.584C85.3387 149.584 85.1907 149.54 85.0627 149.452C84.9427 149.364 84.8427 149.228 84.7627 149.044L82.7587 144.388C82.6947 144.244 82.6707 144.108 82.6867 143.98C82.7027 143.852 82.7627 143.752 82.8667 143.68C82.9707 143.6 83.1107 143.56 83.2867 143.56C83.4387 143.56 83.5587 143.596 83.6467 143.668C83.7347 143.74 83.8147 143.864 83.8867 144.04L85.6987 148.504H85.3627L87.2107 144.04C87.2827 143.864 87.3627 143.74 87.4507 143.668C87.5467 143.596 87.6787 143.56 87.8467 143.56C87.9907 143.56 88.1027 143.6 88.1827 143.68C88.2707 143.752 88.3227 143.852 88.3387 143.98C88.3627 144.1 88.3427 144.232 88.2787 144.376L86.2507 149.044C86.1787 149.228 86.0787 149.364 85.9507 149.452C85.8227 149.54 85.6747 149.584 85.5067 149.584ZM91.2279 149.608C90.8199 149.608 90.4519 149.528 90.1239 149.368C89.8039 149.208 89.5519 148.992 89.3679 148.72C89.1839 148.448 89.0919 148.14 89.0919 147.796C89.0919 147.364 89.1999 147.024 89.4159 146.776C89.6399 146.52 90.0039 146.34 90.5079 146.236C91.0199 146.124 91.7079 146.068 92.5719 146.068H93.1359V146.812H92.5839C92.0079 146.812 91.5519 146.84 91.2159 146.896C90.8799 146.952 90.6399 147.048 90.4959 147.184C90.3599 147.312 90.2919 147.492 90.2919 147.724C90.2919 148.028 90.3959 148.276 90.6039 148.468C90.8119 148.652 91.0999 148.744 91.4679 148.744C91.7639 148.744 92.0239 148.676 92.2479 148.54C92.4719 148.396 92.6479 148.204 92.7759 147.964C92.9119 147.724 92.9799 147.448 92.9799 147.136V145.756C92.9799 145.3 92.8839 144.972 92.6919 144.772C92.4999 144.572 92.1839 144.472 91.7439 144.472C91.4879 144.472 91.2199 144.504 90.9399 144.568C90.6679 144.632 90.3839 144.74 90.0879 144.892C89.9519 144.956 89.8359 144.976 89.7399 144.952C89.6439 144.928 89.5679 144.876 89.5119 144.796C89.4559 144.708 89.4239 144.616 89.4159 144.52C89.4159 144.416 89.4399 144.316 89.4879 144.22C89.5439 144.124 89.6359 144.052 89.7639 144.004C90.1159 143.836 90.4639 143.716 90.8079 143.644C91.1519 143.572 91.4759 143.536 91.7799 143.536C92.3159 143.536 92.7559 143.62 93.0999 143.788C93.4519 143.956 93.7119 144.212 93.8799 144.556C94.0479 144.9 94.1319 145.344 94.1319 145.888V148.972C94.1319 149.164 94.0839 149.316 93.9879 149.428C93.8919 149.532 93.7519 149.584 93.5679 149.584C93.3919 149.584 93.2519 149.532 93.1479 149.428C93.0439 149.316 92.9919 149.164 92.9919 148.972V148.192H93.0999C93.0359 148.488 92.9159 148.744 92.7399 148.96C92.5719 149.168 92.3599 149.328 92.1039 149.44C91.8479 149.552 91.5559 149.608 91.2279 149.608ZM96.4012 149.572C96.2092 149.572 96.0612 149.516 95.9572 149.404C95.8532 149.284 95.8012 149.12 95.8012 148.912V144.232C95.8012 144.024 95.8532 143.864 95.9572 143.752C96.0612 143.64 96.2092 143.584 96.4012 143.584C96.5932 143.584 96.7412 143.64 96.8452 143.752C96.9572 143.864 97.0132 144.024 97.0132 144.232V148.912C97.0132 149.12 96.9612 149.284 96.8572 149.404C96.7532 149.516 96.6012 149.572 96.4012 149.572ZM96.4012 142.336C96.1612 142.336 95.9732 142.276 95.8372 142.156C95.7092 142.036 95.6452 141.868 95.6452 141.652C95.6452 141.428 95.7092 141.26 95.8372 141.148C95.9732 141.028 96.1612 140.968 96.4012 140.968C96.6412 140.968 96.8252 141.028 96.9532 141.148C97.0892 141.26 97.1572 141.428 97.1572 141.652C97.1572 141.868 97.0892 142.036 96.9532 142.156C96.8252 142.276 96.6412 142.336 96.4012 142.336ZM100.603 149.608C99.9792 149.608 99.5072 149.428 99.1872 149.068C98.8752 148.7 98.7192 148.172 98.7192 147.484V141.568C98.7192 141.368 98.7712 141.216 98.8752 141.112C98.9792 141.008 99.1272 140.956 99.3192 140.956C99.5112 140.956 99.6592 141.008 99.7632 141.112C99.8752 141.216 99.9312 141.368 99.9312 141.568V147.412C99.9312 147.812 100.011 148.112 100.171 148.312C100.339 148.504 100.579 148.6 100.891 148.6C100.963 148.6 101.027 148.6 101.083 148.6C101.139 148.592 101.195 148.584 101.251 148.576C101.347 148.568 101.415 148.596 101.455 148.66C101.495 148.716 101.515 148.836 101.515 149.02C101.515 149.188 101.479 149.32 101.407 149.416C101.335 149.504 101.219 149.56 101.059 149.584C100.987 149.592 100.911 149.596 100.831 149.596C100.751 149.604 100.675 149.608 100.603 149.608ZM104.259 149.608C103.851 149.608 103.483 149.528 103.155 149.368C102.835 149.208 102.583 148.992 102.399 148.72C102.215 148.448 102.123 148.14 102.123 147.796C102.123 147.364 102.231 147.024 102.447 146.776C102.671 146.52 103.035 146.34 103.539 146.236C104.051 146.124 104.739 146.068 105.603 146.068H106.167V146.812H105.615C105.039 146.812 104.583 146.84 104.247 146.896C103.911 146.952 103.671 147.048 103.527 147.184C103.391 147.312 103.323 147.492 103.323 147.724C103.323 148.028 103.427 148.276 103.635 148.468C103.843 148.652 104.131 148.744 104.499 148.744C104.795 148.744 105.055 148.676 105.279 148.54C105.503 148.396 105.679 148.204 105.807 147.964C105.943 147.724 106.011 147.448 106.011 147.136V145.756C106.011 145.3 105.915 144.972 105.723 144.772C105.531 144.572 105.215 144.472 104.775 144.472C104.519 144.472 104.251 144.504 103.971 144.568C103.699 144.632 103.415 144.74 103.119 144.892C102.983 144.956 102.867 144.976 102.771 144.952C102.675 144.928 102.599 144.876 102.543 144.796C102.487 144.708 102.455 144.616 102.447 144.52C102.447 144.416 102.471 144.316 102.519 144.22C102.575 144.124 102.667 144.052 102.795 144.004C103.147 143.836 103.495 143.716 103.839 143.644C104.183 143.572 104.507 143.536 104.811 143.536C105.347 143.536 105.787 143.62 106.131 143.788C106.483 143.956 106.743 144.212 106.911 144.556C107.079 144.9 107.163 145.344 107.163 145.888V148.972C107.163 149.164 107.115 149.316 107.019 149.428C106.923 149.532 106.783 149.584 106.599 149.584C106.423 149.584 106.283 149.532 106.179 149.428C106.075 149.316 106.023 149.164 106.023 148.972V148.192H106.131C106.067 148.488 105.947 148.744 105.771 148.96C105.603 149.168 105.391 149.328 105.135 149.44C104.879 149.552 104.587 149.608 104.259 149.608ZM111.976 149.608C111.464 149.608 111.02 149.48 110.644 149.224C110.268 148.96 110.016 148.612 109.888 148.18L110.02 147.964V148.972C110.02 149.164 109.968 149.316 109.864 149.428C109.76 149.532 109.616 149.584 109.432 149.584C109.24 149.584 109.092 149.532 108.988 149.428C108.884 149.316 108.832 149.164 108.832 148.972V141.568C108.832 141.368 108.884 141.216 108.988 141.112C109.092 141.008 109.24 140.956 109.432 140.956C109.624 140.956 109.772 141.008 109.876 141.112C109.988 141.216 110.044 141.368 110.044 141.568V144.928H109.9C110.028 144.504 110.28 144.168 110.656 143.92C111.032 143.664 111.472 143.536 111.976 143.536C112.504 143.536 112.96 143.66 113.344 143.908C113.728 144.156 114.024 144.504 114.232 144.952C114.448 145.4 114.556 145.94 114.556 146.572C114.556 147.188 114.448 147.728 114.232 148.192C114.024 148.648 113.724 149 113.332 149.248C112.948 149.488 112.496 149.608 111.976 149.608ZM111.676 148.672C112.012 148.672 112.304 148.592 112.552 148.432C112.8 148.272 112.992 148.036 113.128 147.724C113.264 147.412 113.332 147.028 113.332 146.572C113.332 145.884 113.18 145.364 112.876 145.012C112.58 144.66 112.18 144.484 111.676 144.484C111.348 144.484 111.056 144.564 110.8 144.724C110.552 144.876 110.36 145.108 110.224 145.42C110.088 145.732 110.02 146.116 110.02 146.572C110.02 147.252 110.172 147.772 110.476 148.132C110.78 148.492 111.18 148.672 111.676 148.672ZM117.806 149.608C117.182 149.608 116.71 149.428 116.39 149.068C116.078 148.7 115.922 148.172 115.922 147.484V141.568C115.922 141.368 115.974 141.216 116.078 141.112C116.182 141.008 116.33 140.956 116.522 140.956C116.714 140.956 116.862 141.008 116.966 141.112C117.078 141.216 117.134 141.368 117.134 141.568V147.412C117.134 147.812 117.214 148.112 117.374 148.312C117.542 148.504 117.782 148.6 118.094 148.6C118.166 148.6 118.23 148.6 118.286 148.6C118.342 148.592 118.398 148.584 118.454 148.576C118.55 148.568 118.618 148.596 118.658 148.66C118.698 148.716 118.718 148.836 118.718 149.02C118.718 149.188 118.682 149.32 118.61 149.416C118.538 149.504 118.422 149.56 118.262 149.584C118.19 149.592 118.114 149.596 118.034 149.596C117.954 149.604 117.878 149.608 117.806 149.608ZM122.28 149.608C121.64 149.608 121.088 149.488 120.624 149.248C120.168 149 119.812 148.652 119.556 148.204C119.308 147.748 119.184 147.208 119.184 146.584C119.184 145.976 119.308 145.444 119.556 144.988C119.804 144.532 120.144 144.176 120.576 143.92C121.008 143.664 121.5 143.536 122.052 143.536C122.46 143.536 122.824 143.604 123.144 143.74C123.464 143.868 123.736 144.06 123.96 144.316C124.192 144.564 124.364 144.868 124.476 145.228C124.596 145.588 124.656 145.992 124.656 146.44C124.656 146.576 124.616 146.68 124.536 146.752C124.456 146.816 124.336 146.848 124.176 146.848H120.144V146.104H123.84L123.636 146.272C123.636 145.872 123.576 145.532 123.456 145.252C123.344 144.972 123.172 144.76 122.94 144.616C122.716 144.464 122.436 144.388 122.1 144.388C121.724 144.388 121.404 144.476 121.14 144.652C120.884 144.828 120.688 145.072 120.552 145.384C120.416 145.696 120.348 146.06 120.348 146.476V146.548C120.348 147.252 120.512 147.784 120.84 148.144C121.176 148.496 121.66 148.672 122.292 148.672C122.532 148.672 122.784 148.64 123.048 148.576C123.32 148.512 123.576 148.404 123.816 148.252C123.952 148.172 124.072 148.136 124.176 148.144C124.288 148.152 124.376 148.188 124.44 148.252C124.512 148.316 124.556 148.396 124.572 148.492C124.588 148.588 124.572 148.688 124.524 148.792C124.476 148.888 124.392 148.976 124.272 149.056C124 149.24 123.684 149.38 123.324 149.476C122.964 149.564 122.616 149.608 122.28 149.608ZM129.741 149.572C129.549 149.572 129.401 149.516 129.297 149.404C129.193 149.284 129.141 149.12 129.141 148.912V144.232C129.141 144.024 129.193 143.864 129.297 143.752C129.401 143.64 129.549 143.584 129.741 143.584C129.933 143.584 130.081 143.64 130.185 143.752C130.297 143.864 130.353 144.024 130.353 144.232V148.912C130.353 149.12 130.301 149.284 130.197 149.404C130.093 149.516 129.941 149.572 129.741 149.572ZM129.741 142.336C129.501 142.336 129.313 142.276 129.177 142.156C129.049 142.036 128.985 141.868 128.985 141.652C128.985 141.428 129.049 141.26 129.177 141.148C129.313 141.028 129.501 140.968 129.741 140.968C129.981 140.968 130.165 141.028 130.293 141.148C130.429 141.26 130.497 141.428 130.497 141.652C130.497 141.868 130.429 142.036 130.293 142.156C130.165 142.276 129.981 142.336 129.741 142.336ZM132.659 149.584C132.467 149.584 132.319 149.532 132.215 149.428C132.111 149.316 132.059 149.164 132.059 148.972V144.172C132.059 143.972 132.111 143.82 132.215 143.716C132.319 143.612 132.463 143.56 132.647 143.56C132.839 143.56 132.983 143.612 133.079 143.716C133.183 143.82 133.235 143.972 133.235 144.172V145.108L133.103 144.892C133.279 144.444 133.555 144.108 133.931 143.884C134.307 143.652 134.739 143.536 135.227 143.536C135.691 143.536 136.075 143.624 136.379 143.8C136.691 143.968 136.923 144.228 137.075 144.58C137.227 144.924 137.303 145.36 137.303 145.888V148.972C137.303 149.164 137.251 149.316 137.147 149.428C137.043 149.532 136.895 149.584 136.703 149.584C136.503 149.584 136.351 149.532 136.247 149.428C136.143 149.316 136.091 149.164 136.091 148.972V145.96C136.091 145.456 135.991 145.088 135.791 144.856C135.599 144.624 135.295 144.508 134.879 144.508C134.391 144.508 133.999 144.66 133.703 144.964C133.415 145.268 133.271 145.676 133.271 146.188V148.972C133.271 149.38 133.067 149.584 132.659 149.584ZM143.517 151.744C143.373 151.744 143.253 151.704 143.157 151.624C143.069 151.552 143.017 151.452 143.001 151.324C142.993 151.204 143.017 151.072 143.073 150.928L143.889 149.092V149.608L141.645 144.388C141.589 144.244 141.569 144.108 141.585 143.98C141.601 143.852 141.661 143.752 141.765 143.68C141.869 143.6 142.009 143.56 142.185 143.56C142.337 143.56 142.457 143.596 142.545 143.668C142.633 143.74 142.713 143.864 142.785 144.04L144.597 148.516H144.261L146.097 144.04C146.169 143.856 146.253 143.732 146.349 143.668C146.445 143.596 146.577 143.56 146.745 143.56C146.889 143.56 147.001 143.6 147.081 143.68C147.169 143.752 147.221 143.852 147.237 143.98C147.261 144.1 147.241 144.232 147.177 144.376L144.177 151.276C144.097 151.46 144.005 151.584 143.901 151.648C143.805 151.712 143.677 151.744 143.517 151.744ZM150.81 149.608C150.218 149.608 149.706 149.484 149.274 149.236C148.85 148.988 148.518 148.636 148.278 148.18C148.038 147.724 147.918 147.188 147.918 146.572C147.918 146.1 147.986 145.68 148.122 145.312C148.258 144.944 148.45 144.628 148.698 144.364C148.954 144.092 149.258 143.888 149.61 143.752C149.97 143.608 150.37 143.536 150.81 143.536C151.394 143.536 151.898 143.66 152.322 143.908C152.754 144.156 153.09 144.508 153.33 144.964C153.57 145.412 153.69 145.948 153.69 146.572C153.69 147.036 153.622 147.456 153.486 147.832C153.35 148.208 153.154 148.528 152.898 148.792C152.65 149.056 152.346 149.26 151.986 149.404C151.634 149.54 151.242 149.608 150.81 149.608ZM150.81 148.672C151.138 148.672 151.426 148.592 151.674 148.432C151.922 148.272 152.114 148.036 152.25 147.724C152.394 147.412 152.466 147.028 152.466 146.572C152.466 145.884 152.314 145.364 152.01 145.012C151.706 144.66 151.306 144.484 150.81 144.484C150.474 144.484 150.182 144.564 149.934 144.724C149.686 144.876 149.49 145.108 149.346 145.42C149.21 145.732 149.142 146.116 149.142 146.572C149.142 147.252 149.294 147.772 149.598 148.132C149.902 148.492 150.306 148.672 150.81 148.672ZM157.139 149.608C156.667 149.608 156.271 149.52 155.951 149.344C155.639 149.168 155.403 148.908 155.243 148.564C155.091 148.212 155.015 147.772 155.015 147.244V144.172C155.015 143.964 155.067 143.812 155.171 143.716C155.275 143.612 155.423 143.56 155.615 143.56C155.807 143.56 155.955 143.612 156.059 143.716C156.171 143.812 156.227 143.964 156.227 144.172V147.256C156.227 147.728 156.323 148.076 156.515 148.3C156.707 148.524 157.011 148.636 157.427 148.636C157.883 148.636 158.251 148.484 158.531 148.18C158.819 147.868 158.963 147.46 158.963 146.956V144.172C158.963 143.964 159.015 143.812 159.119 143.716C159.223 143.612 159.375 143.56 159.575 143.56C159.767 143.56 159.915 143.612 160.019 143.716C160.123 143.812 160.175 143.964 160.175 144.172V148.972C160.175 149.38 159.979 149.584 159.587 149.584C159.403 149.584 159.259 149.532 159.155 149.428C159.051 149.316 158.999 149.164 158.999 148.972V147.952L159.155 148.216C158.995 148.664 158.739 149.008 158.387 149.248C158.035 149.488 157.619 149.608 157.139 149.608ZM162.495 149.584C162.295 149.584 162.143 149.532 162.039 149.428C161.935 149.316 161.883 149.164 161.883 148.972V144.172C161.883 143.972 161.935 143.82 162.039 143.716C162.143 143.612 162.287 143.56 162.471 143.56C162.663 143.56 162.807 143.612 162.903 143.716C163.007 143.82 163.059 143.972 163.059 144.172V145.048H162.939C163.067 144.568 163.303 144.204 163.647 143.956C163.991 143.708 164.431 143.564 164.967 143.524C165.111 143.516 165.223 143.552 165.303 143.632C165.391 143.712 165.439 143.836 165.447 144.004C165.463 144.172 165.427 144.308 165.339 144.412C165.251 144.508 165.115 144.564 164.931 144.58L164.703 144.604C164.183 144.652 163.787 144.816 163.515 145.096C163.243 145.376 163.107 145.76 163.107 146.248V148.972C163.107 149.164 163.055 149.316 162.951 149.428C162.855 149.532 162.703 149.584 162.495 149.584ZM171.576 149.608C171.224 149.608 170.86 149.568 170.484 149.488C170.116 149.408 169.776 149.272 169.464 149.08C169.36 149.008 169.288 148.928 169.248 148.84C169.208 148.752 169.192 148.664 169.2 148.576C169.216 148.48 169.252 148.4 169.308 148.336C169.372 148.264 169.448 148.22 169.536 148.204C169.632 148.188 169.732 148.208 169.836 148.264C170.148 148.44 170.448 148.564 170.736 148.636C171.024 148.7 171.308 148.732 171.588 148.732C172.012 148.732 172.332 148.656 172.548 148.504C172.764 148.352 172.872 148.148 172.872 147.892C172.872 147.684 172.8 147.524 172.656 147.412C172.512 147.292 172.296 147.2 172.008 147.136L170.868 146.908C170.372 146.804 169.996 146.62 169.74 146.356C169.484 146.092 169.356 145.756 169.356 145.348C169.356 144.98 169.456 144.66 169.656 144.388C169.856 144.116 170.136 143.908 170.496 143.764C170.856 143.612 171.272 143.536 171.744 143.536C172.096 143.536 172.428 143.58 172.74 143.668C173.052 143.756 173.34 143.888 173.604 144.064C173.708 144.12 173.776 144.196 173.808 144.292C173.84 144.38 173.844 144.468 173.82 144.556C173.804 144.644 173.764 144.724 173.7 144.796C173.636 144.86 173.556 144.9 173.46 144.916C173.372 144.924 173.272 144.9 173.16 144.844C172.92 144.692 172.68 144.584 172.44 144.52C172.208 144.456 171.976 144.424 171.744 144.424C171.32 144.424 171 144.504 170.784 144.664C170.576 144.816 170.472 145.024 170.472 145.288C170.472 145.488 170.536 145.652 170.664 145.78C170.792 145.908 170.992 146 171.264 146.056L172.404 146.284C172.924 146.388 173.316 146.564 173.58 146.812C173.852 147.06 173.988 147.396 173.988 147.82C173.988 148.372 173.768 148.808 173.328 149.128C172.888 149.448 172.304 149.608 171.576 149.608ZM178.084 149.608C177.444 149.608 176.892 149.488 176.428 149.248C175.972 149 175.616 148.652 175.36 148.204C175.112 147.748 174.988 147.208 174.988 146.584C174.988 145.976 175.112 145.444 175.36 144.988C175.608 144.532 175.948 144.176 176.38 143.92C176.812 143.664 177.304 143.536 177.856 143.536C178.264 143.536 178.628 143.604 178.948 143.74C179.268 143.868 179.54 144.06 179.764 144.316C179.996 144.564 180.168 144.868 180.28 145.228C180.4 145.588 180.46 145.992 180.46 146.44C180.46 146.576 180.42 146.68 180.34 146.752C180.26 146.816 180.14 146.848 179.98 146.848H175.948V146.104H179.644L179.44 146.272C179.44 145.872 179.38 145.532 179.26 145.252C179.148 144.972 178.976 144.76 178.744 144.616C178.52 144.464 178.24 144.388 177.904 144.388C177.528 144.388 177.208 144.476 176.944 144.652C176.688 144.828 176.492 145.072 176.356 145.384C176.22 145.696 176.152 146.06 176.152 146.476V146.548C176.152 147.252 176.316 147.784 176.644 148.144C176.98 148.496 177.464 148.672 178.096 148.672C178.336 148.672 178.588 148.64 178.852 148.576C179.124 148.512 179.38 148.404 179.62 148.252C179.756 148.172 179.876 148.136 179.98 148.144C180.092 148.152 180.18 148.188 180.244 148.252C180.316 148.316 180.36 148.396 180.376 148.492C180.392 148.588 180.376 148.688 180.328 148.792C180.28 148.888 180.196 148.976 180.076 149.056C179.804 149.24 179.488 149.38 179.128 149.476C178.768 149.564 178.42 149.608 178.084 149.608ZM184.266 149.608C183.786 149.608 183.382 149.524 183.054 149.356C182.726 149.188 182.482 148.94 182.322 148.612C182.162 148.284 182.082 147.884 182.082 147.412V144.58H181.362C181.202 144.58 181.078 144.54 180.99 144.46C180.902 144.372 180.858 144.256 180.858 144.112C180.858 143.96 180.902 143.844 180.99 143.764C181.078 143.684 181.202 143.644 181.362 143.644H182.082V142.408C182.082 142.208 182.134 142.056 182.238 141.952C182.35 141.848 182.502 141.796 182.694 141.796C182.886 141.796 183.034 141.848 183.138 141.952C183.242 142.056 183.294 142.208 183.294 142.408V143.644H184.698C184.858 143.644 184.982 143.684 185.07 143.764C185.158 143.844 185.202 143.96 185.202 144.112C185.202 144.256 185.158 144.372 185.07 144.46C184.982 144.54 184.858 144.58 184.698 144.58H183.294V147.316C183.294 147.74 183.382 148.06 183.558 148.276C183.742 148.492 184.038 148.6 184.446 148.6C184.59 148.6 184.714 148.588 184.818 148.564C184.93 148.532 185.022 148.512 185.094 148.504C185.182 148.504 185.254 148.536 185.31 148.6C185.366 148.656 185.394 148.768 185.394 148.936C185.394 149.056 185.37 149.168 185.322 149.272C185.282 149.376 185.206 149.444 185.094 149.476C184.998 149.508 184.866 149.536 184.698 149.56C184.538 149.592 184.394 149.608 184.266 149.608ZM188.414 149.608C187.934 149.608 187.53 149.524 187.202 149.356C186.874 149.188 186.63 148.94 186.47 148.612C186.31 148.284 186.23 147.884 186.23 147.412V144.58H185.51C185.35 144.58 185.226 144.54 185.138 144.46C185.05 144.372 185.006 144.256 185.006 144.112C185.006 143.96 185.05 143.844 185.138 143.764C185.226 143.684 185.35 143.644 185.51 143.644H186.23V142.408C186.23 142.208 186.282 142.056 186.386 141.952C186.498 141.848 186.65 141.796 186.842 141.796C187.034 141.796 187.182 141.848 187.286 141.952C187.39 142.056 187.442 142.208 187.442 142.408V143.644H188.846C189.006 143.644 189.13 143.684 189.218 143.764C189.306 143.844 189.35 143.96 189.35 144.112C189.35 144.256 189.306 144.372 189.218 144.46C189.13 144.54 189.006 144.58 188.846 144.58H187.442V147.316C187.442 147.74 187.53 148.06 187.706 148.276C187.89 148.492 188.186 148.6 188.594 148.6C188.738 148.6 188.862 148.588 188.966 148.564C189.078 148.532 189.17 148.512 189.242 148.504C189.33 148.504 189.402 148.536 189.458 148.6C189.514 148.656 189.542 148.768 189.542 148.936C189.542 149.056 189.518 149.168 189.47 149.272C189.43 149.376 189.354 149.444 189.242 149.476C189.146 149.508 189.014 149.536 188.846 149.56C188.686 149.592 188.542 149.608 188.414 149.608ZM191.007 149.572C190.815 149.572 190.667 149.516 190.563 149.404C190.459 149.284 190.407 149.12 190.407 148.912V144.232C190.407 144.024 190.459 143.864 190.563 143.752C190.667 143.64 190.815 143.584 191.007 143.584C191.199 143.584 191.347 143.64 191.451 143.752C191.563 143.864 191.619 144.024 191.619 144.232V148.912C191.619 149.12 191.567 149.284 191.463 149.404C191.359 149.516 191.207 149.572 191.007 149.572ZM191.007 142.336C190.767 142.336 190.579 142.276 190.443 142.156C190.315 142.036 190.251 141.868 190.251 141.652C190.251 141.428 190.315 141.26 190.443 141.148C190.579 141.028 190.767 140.968 191.007 140.968C191.247 140.968 191.431 141.028 191.559 141.148C191.695 141.26 191.763 141.428 191.763 141.652C191.763 141.868 191.695 142.036 191.559 142.156C191.431 142.276 191.247 142.336 191.007 142.336ZM193.925 149.584C193.733 149.584 193.585 149.532 193.481 149.428C193.377 149.316 193.325 149.164 193.325 148.972V144.172C193.325 143.972 193.377 143.82 193.481 143.716C193.585 143.612 193.729 143.56 193.913 143.56C194.105 143.56 194.249 143.612 194.345 143.716C194.449 143.82 194.501 143.972 194.501 144.172V145.108L194.369 144.892C194.545 144.444 194.821 144.108 195.197 143.884C195.573 143.652 196.005 143.536 196.493 143.536C196.957 143.536 197.341 143.624 197.645 143.8C197.957 143.968 198.189 144.228 198.341 144.58C198.493 144.924 198.569 145.36 198.569 145.888V148.972C198.569 149.164 198.517 149.316 198.413 149.428C198.309 149.532 198.161 149.584 197.969 149.584C197.769 149.584 197.617 149.532 197.513 149.428C197.409 149.316 197.357 149.164 197.357 148.972V145.96C197.357 145.456 197.257 145.088 197.057 144.856C196.865 144.624 196.561 144.508 196.145 144.508C195.657 144.508 195.265 144.66 194.969 144.964C194.681 145.268 194.537 145.676 194.537 146.188V148.972C194.537 149.38 194.333 149.584 193.925 149.584ZM202.891 151.768C202.459 151.768 202.039 151.724 201.631 151.636C201.231 151.548 200.867 151.404 200.539 151.204C200.419 151.14 200.339 151.06 200.299 150.964C200.259 150.876 200.247 150.784 200.263 150.688C200.287 150.592 200.331 150.508 200.395 150.436C200.459 150.364 200.535 150.316 200.623 150.292C200.719 150.268 200.819 150.284 200.923 150.34C201.275 150.532 201.607 150.66 201.919 150.724C202.239 150.796 202.535 150.832 202.807 150.832C203.367 150.832 203.787 150.688 204.067 150.4C204.347 150.12 204.487 149.704 204.487 149.152V147.928H204.595C204.475 148.368 204.223 148.716 203.839 148.972C203.455 149.228 203.011 149.356 202.507 149.356C201.979 149.356 201.519 149.236 201.127 148.996C200.735 148.748 200.431 148.408 200.215 147.976C199.999 147.536 199.891 147.024 199.891 146.44C199.891 146 199.951 145.604 200.071 145.252C200.199 144.9 200.375 144.596 200.599 144.34C200.831 144.084 201.107 143.888 201.427 143.752C201.755 143.608 202.115 143.536 202.507 143.536C203.019 143.536 203.463 143.664 203.839 143.92C204.223 144.176 204.471 144.524 204.583 144.964L204.463 145.168V144.172C204.463 143.972 204.515 143.82 204.619 143.716C204.731 143.612 204.879 143.56 205.063 143.56C205.255 143.56 205.403 143.612 205.507 143.716C205.611 143.82 205.663 143.972 205.663 144.172V149.008C205.663 149.92 205.427 150.608 204.955 151.072C204.483 151.536 203.795 151.768 202.891 151.768ZM202.795 148.408C203.147 148.408 203.447 148.328 203.695 148.168C203.943 148.008 204.135 147.78 204.271 147.484C204.407 147.188 204.475 146.84 204.475 146.44C204.475 145.84 204.323 145.364 204.019 145.012C203.723 144.66 203.315 144.484 202.795 144.484C202.451 144.484 202.155 144.564 201.907 144.724C201.659 144.884 201.463 145.112 201.319 145.408C201.183 145.696 201.115 146.04 201.115 146.44C201.115 147.048 201.267 147.528 201.571 147.88C201.875 148.232 202.283 148.408 202.795 148.408ZM209.416 149.608C209.064 149.608 208.7 149.568 208.324 149.488C207.956 149.408 207.616 149.272 207.304 149.08C207.2 149.008 207.128 148.928 207.088 148.84C207.048 148.752 207.032 148.664 207.04 148.576C207.056 148.48 207.092 148.4 207.148 148.336C207.212 148.264 207.288 148.22 207.376 148.204C207.472 148.188 207.572 148.208 207.676 148.264C207.988 148.44 208.288 148.564 208.576 148.636C208.864 148.7 209.148 148.732 209.428 148.732C209.852 148.732 210.172 148.656 210.388 148.504C210.604 148.352 210.712 148.148 210.712 147.892C210.712 147.684 210.64 147.524 210.496 147.412C210.352 147.292 210.136 147.2 209.848 147.136L208.708 146.908C208.212 146.804 207.836 146.62 207.58 146.356C207.324 146.092 207.196 145.756 207.196 145.348C207.196 144.98 207.296 144.66 207.496 144.388C207.696 144.116 207.976 143.908 208.336 143.764C208.696 143.612 209.112 143.536 209.584 143.536C209.936 143.536 210.268 143.58 210.58 143.668C210.892 143.756 211.18 143.888 211.444 144.064C211.548 144.12 211.616 144.196 211.648 144.292C211.68 144.38 211.684 144.468 211.66 144.556C211.644 144.644 211.604 144.724 211.54 144.796C211.476 144.86 211.396 144.9 211.3 144.916C211.212 144.924 211.112 144.9 211 144.844C210.76 144.692 210.52 144.584 210.28 144.52C210.048 144.456 209.816 144.424 209.584 144.424C209.16 144.424 208.84 144.504 208.624 144.664C208.416 144.816 208.312 145.024 208.312 145.288C208.312 145.488 208.376 145.652 208.504 145.78C208.632 145.908 208.832 146 209.104 146.056L210.244 146.284C210.764 146.388 211.156 146.564 211.42 146.812C211.692 147.06 211.828 147.396 211.828 147.82C211.828 148.372 211.608 148.808 211.168 149.128C210.728 149.448 210.144 149.608 209.416 149.608ZM213.706 149.548C213.474 149.548 213.286 149.476 213.142 149.332C212.998 149.188 212.926 149.004 212.926 148.78C212.926 148.556 212.998 148.376 213.142 148.24C213.286 148.096 213.474 148.024 213.706 148.024C213.938 148.024 214.122 148.096 214.258 148.24C214.394 148.376 214.462 148.556 214.462 148.78C214.462 149.004 214.394 149.188 214.258 149.332C214.122 149.476 213.938 149.548 213.706 149.548Z" fill="#64728C"/>
</g>
<circle opacity="0.2" cx="333" cy="104.5" r="13" stroke="#1E6CEB" stroke-width="5"/>
<circle opacity="0.2" cx="1.3" cy="1.3" r="1.3" transform="matrix(1 0 0 -1 331.7 105.8)" fill="#1E6CEB"/>
<path d="M334.235 91.5588C335.934 91.7209 337.585 92.2162 339.093 93.0163C340.601 93.8165 341.937 94.9059 343.024 96.2222C344.111 97.5386 344.928 99.0561 345.429 100.688C345.929 102.32 346.104 104.035 345.941 105.735" stroke="#1E6CEB" stroke-width="5" stroke-linecap="round" stroke-linejoin="round"/>
<path d="M334.857 104.5L337.245 102.112C337.776 101.581 337.776 100.786 337.245 100.255C336.715 99.7243 335.919 99.7243 335.388 100.255L333 102.643L330.613 100.255C330.082 99.7243 329.286 99.7243 328.755 100.255C328.225 100.786 328.225 101.581 328.755 102.112L331.143 104.5L328.755 106.888C328.225 107.418 328.225 108.214 328.755 108.745C329.021 109.01 329.352 109.143 329.684 109.143C330.016 109.143 330.347 109.01 330.613 108.745L333 106.357L335.388 108.745C335.653 109.01 335.985 109.143 336.317 109.143C336.648 109.143 336.98 109.01 337.245 108.745C337.776 108.214 337.776 107.418 337.245 106.888L334.857 104.5Z" fill="#1E6CEB"/>
</g>
<rect x="60.5" y="79" width="299" height="93" rx="24.5" stroke="#1E6CEB"/>
</g>
<g filter="url(#filter3_d_978_2460)">
<path d="M76.9014 78.5C76.9014 66.0736 86.975 56 99.4014 56V56C111.828 56 121.901 66.0736 121.901 78.5V78.5C121.901 90.9264 111.828 101 99.4014 101V101C86.975 101 76.9014 90.9264 76.9014 78.5V78.5Z" fill="#0072DC" shape-rendering="crispEdges"/>
<path d="M76.9014 78.5C76.9014 66.0736 86.975 56 99.4014 56V56C111.828 56 121.901 66.0736 121.901 78.5V78.5C121.901 90.9264 111.828 101 99.4014 101V101C86.975 101 76.9014 90.9264 76.9014 78.5V78.5Z" fill="url(#paint1_radial_978_2460)" fill-opacity="0.2" shape-rendering="crispEdges"/>
<path d="M99.4014 76.5C98.8014 76.5 98.4014 76.9 98.4014 77.5V82.5C98.4014 83.1 98.8014 83.5 99.4014 83.5C100.001 83.5 100.401 83.1 100.401 82.5V77.5C100.401 76.9 100.001 76.5 99.4014 76.5Z" fill="white"/>
<path d="M99.4014 75.5C99.9537 75.5 100.401 75.0523 100.401 74.5C100.401 73.9477 99.9537 73.5 99.4014 73.5C98.8491 73.5 98.4014 73.9477 98.4014 74.5C98.4014 75.0523 98.8491 75.5 99.4014 75.5Z" fill="white"/>
<path d="M99.4014 68.5C93.9014 68.5 89.4014 73 89.4014 78.5C89.4014 84 93.9014 88.5 99.4014 88.5C104.901 88.5 109.401 84 109.401 78.5C109.401 73 104.901 68.5 99.4014 68.5ZM99.4014 86.5C95.0014 86.5 91.4014 82.9 91.4014 78.5C91.4014 74.1 95.0014 70.5 99.4014 70.5C103.801 70.5 107.401 74.1 107.401 78.5C107.401 82.9 103.801 86.5 99.4014 86.5Z" fill="white"/>
</g>
</g>
<defs>
<filter id="filter0_d_978_2460" x="0" y="0" width="420" height="236.5" filterUnits="userSpaceOnUse" color-interpolation-filters="sRGB">
<feFlood flood-opacity="0" result="BackgroundImageFix"/>
<feColorMatrix in="SourceAlpha" type="matrix" values="0 0 0 0 0 0 0 0 0 0 0 0 0 0 0 0 0 0 127 0" result="hardAlpha"/>
<feOffset dy="4"/>
<feGaussianBlur stdDeviation="30"/>
<feComposite in2="hardAlpha" operator="out"/>
<feColorMatrix type="matrix" values="0 0 0 0 0 0 0 0 0 0 0 0 0 0 0 0 0 0 0.06 0"/>
<feBlend mode="normal" in2="BackgroundImageFix" result="effect1_dropShadow_978_2460"/>
<feBlend mode="normal" in="SourceGraphic" in2="effect1_dropShadow_978_2460" result="shape"/>
</filter>
<filter id="filter1_d_978_2460" x="56" y="78.5" width="308" height="102" filterUnits="userSpaceOnUse" color-interpolation-filters="sRGB">
<feFlood flood-opacity="0" result="BackgroundImageFix"/>
<feColorMatrix in="SourceAlpha" type="matrix" values="0 0 0 0 0 0 0 0 0 0 0 0 0 0 0 0 0 0 127 0" result="hardAlpha"/>
<feOffset dy="4"/>
<feGaussianBlur stdDeviation="2"/>
<feComposite in2="hardAlpha" operator="out"/>
<feColorMatrix type="matrix" values="0 0 0 0 0.117647 0 0 0 0 0.423529 0 0 0 0 0.921569 0 0 0 0.25 0"/>
<feBlend mode="normal" in2="BackgroundImageFix" result="effect1_dropShadow_978_2460"/>
<feBlend mode="normal" in="SourceGraphic" in2="effect1_dropShadow_978_2460" result="shape"/>
</filter>
<filter id="filter2_d_978_2460" x="30" y="52.5" width="360" height="151" filterUnits="userSpaceOnUse" color-interpolation-filters="sRGB">
<feFlood flood-opacity="0" result="BackgroundImageFix"/>
<feColorMatrix in="SourceAlpha" type="matrix" values="0 0 0 0 0 0 0 0 0 0 0 0 0 0 0 0 0 0 127 0" result="hardAlpha"/>
<feOffset dy="4"/>
<feGaussianBlur stdDeviation="15"/>
<feComposite in2="hardAlpha" operator="out"/>
<feColorMatrix type="matrix" values="0 0 0 0 0 0 0 0 0 0 0 0 0 0 0 0 0 0 0.1 0"/>
<feBlend mode="normal" in2="BackgroundImageFix" result="effect1_dropShadow_978_2460"/>
<feBlend mode="normal" in="SourceGraphic" in2="effect1_dropShadow_978_2460" result="shape"/>
</filter>
<filter id="filter3_d_978_2460" x="72.9014" y="56" width="53" height="53" filterUnits="userSpaceOnUse" color-interpolation-filters="sRGB">
<feFlood flood-opacity="0" result="BackgroundImageFix"/>
<feColorMatrix in="SourceAlpha" type="matrix" values="0 0 0 0 0 0 0 0 0 0 0 0 0 0 0 0 0 0 127 0" result="hardAlpha"/>
<feOffset dy="4"/>
<feGaussianBlur stdDeviation="2"/>
<feComposite in2="hardAlpha" operator="out"/>
<feColorMatrix type="matrix" values="0 0 0 0 0.203922 0 0 0 0 0.737255 0 0 0 0 0.25098 0 0 0 0.1 0"/>
<feBlend mode="normal" in2="BackgroundImageFix" result="effect1_dropShadow_978_2460"/>
<feBlend mode="normal" in="SourceGraphic" in2="effect1_dropShadow_978_2460" result="shape"/>
</filter>
<linearGradient id="paint0_linear_978_2460" x1="60" y1="78.5" x2="358.674" y2="163.846" gradientUnits="userSpaceOnUse">
<stop offset="0.468122" stop-color="white" stop-opacity="0"/>
<stop offset="1" stop-color="white"/>
</linearGradient>
<radialGradient id="paint1_radial_978_2460" cx="0" cy="0" r="1" gradientUnits="userSpaceOnUse" gradientTransform="translate(99.4014 78.5) rotate(90) scale(22.5)">
<stop stop-opacity="0"/>
<stop offset="1" stop-color="white"/>
</radialGradient>
<clipPath id="clip0_978_2460">
<rect x="60" y="78.5" width="300" height="94" rx="25" fill="white"/>
</clipPath>
</defs>
</svg>
