<svg width="420" height="237" viewBox="0 0 420 237" fill="none" xmlns="http://www.w3.org/2000/svg">
<g filter="url(#filter0_d_978_2442)">
<g filter="url(#filter1_d_978_2442)">
<g clip-path="url(#clip0_978_2442)">
<rect x="60" y="78.5" width="300" height="94" rx="25" fill="#FFA62F"/>
<g filter="url(#filter2_d_978_2442)">
<rect x="60" y="78.5" width="300" height="91" rx="25" fill="white" shape-rendering="crispEdges"/>
<rect x="60" y="78.5" width="300" height="91" rx="25" fill="url(#paint0_linear_978_2442)" fill-opacity="0.2" shape-rendering="crispEdges"/>
<path d="M80.648 117.626C80.3493 117.626 80.1067 117.556 79.92 117.416C79.7333 117.267 79.584 117.043 79.472 116.744L76.644 108.792C76.5227 108.437 76.546 108.134 76.714 107.882C76.8913 107.63 77.1947 107.504 77.624 107.504C77.9227 107.504 78.1513 107.574 78.31 107.714C78.478 107.854 78.6133 108.073 78.716 108.372L81.026 115.246H80.424L82.86 108.386C82.972 108.087 83.1073 107.868 83.266 107.728C83.434 107.579 83.6533 107.504 83.924 107.504C84.1853 107.504 84.3953 107.579 84.554 107.728C84.7127 107.868 84.848 108.092 84.96 108.4L87.284 115.246H86.766L89.118 108.372C89.2113 108.083 89.342 107.868 89.51 107.728C89.678 107.579 89.9067 107.504 90.196 107.504C90.56 107.504 90.826 107.63 90.994 107.882C91.162 108.134 91.1807 108.437 91.05 108.792L88.194 116.758C88.0913 117.047 87.9513 117.267 87.774 117.416C87.5967 117.556 87.354 117.626 87.046 117.626C86.7473 117.626 86.5093 117.556 86.332 117.416C86.1547 117.267 86.01 117.043 85.898 116.744L83.686 110.486H84.022L81.782 116.758C81.67 117.047 81.5253 117.267 81.348 117.416C81.18 117.556 80.9467 117.626 80.648 117.626ZM93.9563 117.654C93.4523 117.654 92.9996 117.556 92.5983 117.36C92.197 117.164 91.8843 116.898 91.6603 116.562C91.4363 116.226 91.3243 115.848 91.3243 115.428C91.3243 114.924 91.455 114.527 91.7163 114.238C91.9776 113.939 92.4023 113.729 92.9903 113.608C93.5783 113.477 94.3576 113.412 95.3283 113.412H96.0703V114.504H95.3423C94.8663 114.504 94.479 114.532 94.1803 114.588C93.891 114.635 93.681 114.719 93.5503 114.84C93.429 114.961 93.3683 115.129 93.3683 115.344C93.3683 115.605 93.457 115.82 93.6343 115.988C93.821 116.156 94.087 116.24 94.4323 116.24C94.703 116.24 94.941 116.179 95.1463 116.058C95.361 115.927 95.529 115.755 95.6503 115.54C95.7716 115.316 95.8323 115.064 95.8323 114.784V113.174C95.8323 112.763 95.739 112.474 95.5523 112.306C95.3656 112.129 95.0483 112.04 94.6003 112.04C94.3483 112.04 94.073 112.073 93.7743 112.138C93.485 112.194 93.163 112.292 92.8083 112.432C92.603 112.525 92.421 112.549 92.2623 112.502C92.1036 112.446 91.9823 112.353 91.8983 112.222C91.8143 112.082 91.7723 111.933 91.7723 111.774C91.7723 111.606 91.819 111.447 91.9123 111.298C92.0056 111.139 92.1596 111.023 92.3743 110.948C92.813 110.771 93.2236 110.649 93.6063 110.584C93.9983 110.519 94.3576 110.486 94.6843 110.486C95.403 110.486 95.991 110.593 96.4483 110.808C96.915 111.013 97.265 111.335 97.4983 111.774C97.7316 112.203 97.8483 112.759 97.8483 113.44V116.548C97.8483 116.893 97.7643 117.159 97.5963 117.346C97.4283 117.533 97.1856 117.626 96.8683 117.626C96.551 117.626 96.3036 117.533 96.1263 117.346C95.9583 117.159 95.8743 116.893 95.8743 116.548V116.03L95.9723 116.114C95.9163 116.431 95.795 116.707 95.6083 116.94C95.431 117.164 95.2023 117.341 94.9223 117.472C94.6423 117.593 94.3203 117.654 93.9563 117.654ZM100.517 117.626C100.163 117.626 99.8919 117.533 99.7053 117.346C99.5186 117.159 99.4253 116.893 99.4253 116.548V111.578C99.4253 111.233 99.5139 110.971 99.6913 110.794C99.8779 110.607 100.135 110.514 100.461 110.514C100.797 110.514 101.054 110.607 101.231 110.794C101.409 110.971 101.497 111.233 101.497 111.578V112.306H101.357C101.469 111.746 101.717 111.312 102.099 111.004C102.482 110.696 102.977 110.523 103.583 110.486C103.817 110.467 103.994 110.528 104.115 110.668C104.246 110.799 104.316 111.018 104.325 111.326C104.344 111.615 104.283 111.844 104.143 112.012C104.013 112.18 103.789 112.283 103.471 112.32L103.149 112.348C102.617 112.395 102.221 112.549 101.959 112.81C101.707 113.071 101.581 113.449 101.581 113.944V116.548C101.581 116.893 101.488 117.159 101.301 117.346C101.124 117.533 100.863 117.626 100.517 117.626ZM106.259 117.626C105.913 117.626 105.647 117.533 105.461 117.346C105.283 117.159 105.195 116.893 105.195 116.548V111.578C105.195 111.233 105.283 110.971 105.461 110.794C105.647 110.607 105.904 110.514 106.231 110.514C106.567 110.514 106.823 110.607 107.001 110.794C107.178 110.971 107.267 111.233 107.267 111.578V112.376L107.113 111.914C107.327 111.457 107.645 111.107 108.065 110.864C108.494 110.612 108.979 110.486 109.521 110.486C110.071 110.486 110.524 110.593 110.879 110.808C111.233 111.013 111.499 111.331 111.677 111.76C111.854 112.18 111.943 112.717 111.943 113.37V116.548C111.943 116.893 111.849 117.159 111.663 117.346C111.485 117.533 111.224 117.626 110.879 117.626C110.543 117.626 110.281 117.533 110.095 117.346C109.917 117.159 109.829 116.893 109.829 116.548V113.468C109.829 112.992 109.74 112.651 109.563 112.446C109.395 112.231 109.133 112.124 108.779 112.124C108.331 112.124 107.971 112.264 107.701 112.544C107.439 112.824 107.309 113.197 107.309 113.664V116.548C107.309 117.267 106.959 117.626 106.259 117.626ZM114.585 117.612C114.24 117.612 113.974 117.514 113.787 117.318C113.61 117.113 113.521 116.828 113.521 116.464V111.676C113.521 111.303 113.61 111.018 113.787 110.822C113.974 110.617 114.24 110.514 114.585 110.514C114.921 110.514 115.178 110.617 115.355 110.822C115.542 111.018 115.635 111.303 115.635 111.676V116.464C115.635 116.828 115.546 117.113 115.369 117.318C115.192 117.514 114.93 117.612 114.585 117.612ZM114.585 109.366C114.193 109.366 113.89 109.277 113.675 109.1C113.47 108.913 113.367 108.652 113.367 108.316C113.367 107.971 113.47 107.709 113.675 107.532C113.89 107.345 114.193 107.252 114.585 107.252C114.977 107.252 115.276 107.345 115.481 107.532C115.686 107.709 115.789 107.971 115.789 108.316C115.789 108.652 115.686 108.913 115.481 109.1C115.276 109.277 114.977 109.366 114.585 109.366ZM118.331 117.626C117.986 117.626 117.72 117.533 117.533 117.346C117.356 117.159 117.267 116.893 117.267 116.548V111.578C117.267 111.233 117.356 110.971 117.533 110.794C117.72 110.607 117.976 110.514 118.303 110.514C118.639 110.514 118.896 110.607 119.073 110.794C119.25 110.971 119.339 111.233 119.339 111.578V112.376L119.185 111.914C119.4 111.457 119.717 111.107 120.137 110.864C120.566 110.612 121.052 110.486 121.593 110.486C122.144 110.486 122.596 110.593 122.951 110.808C123.306 111.013 123.572 111.331 123.749 111.76C123.926 112.18 124.015 112.717 124.015 113.37V116.548C124.015 116.893 123.922 117.159 123.735 117.346C123.558 117.533 123.296 117.626 122.951 117.626C122.615 117.626 122.354 117.533 122.167 117.346C121.99 117.159 121.901 116.893 121.901 116.548V113.468C121.901 112.992 121.812 112.651 121.635 112.446C121.467 112.231 121.206 112.124 120.851 112.124C120.403 112.124 120.044 112.264 119.773 112.544C119.512 112.824 119.381 113.197 119.381 113.664V116.548C119.381 117.267 119.031 117.626 118.331 117.626ZM128.897 120.174C128.393 120.174 127.908 120.132 127.441 120.048C126.984 119.964 126.578 119.838 126.223 119.67C126.009 119.577 125.855 119.455 125.761 119.306C125.677 119.157 125.64 118.998 125.649 118.83C125.668 118.662 125.724 118.513 125.817 118.382C125.92 118.251 126.046 118.158 126.195 118.102C126.345 118.055 126.503 118.069 126.671 118.144C127.082 118.331 127.46 118.452 127.805 118.508C128.16 118.564 128.463 118.592 128.715 118.592C129.313 118.592 129.761 118.457 130.059 118.186C130.358 117.915 130.507 117.5 130.507 116.94V115.876H130.633C130.493 116.305 130.204 116.655 129.765 116.926C129.327 117.197 128.841 117.332 128.309 117.332C127.693 117.332 127.157 117.192 126.699 116.912C126.242 116.623 125.887 116.221 125.635 115.708C125.383 115.185 125.257 114.583 125.257 113.902C125.257 113.389 125.327 112.922 125.467 112.502C125.617 112.082 125.822 111.723 126.083 111.424C126.354 111.125 126.676 110.897 127.049 110.738C127.432 110.57 127.852 110.486 128.309 110.486C128.86 110.486 129.345 110.621 129.765 110.892C130.195 111.153 130.479 111.499 130.619 111.928L130.479 112.376V111.578C130.479 111.233 130.568 110.971 130.745 110.794C130.932 110.607 131.193 110.514 131.529 110.514C131.865 110.514 132.122 110.607 132.299 110.794C132.477 110.971 132.565 111.233 132.565 111.578V116.702C132.565 117.85 132.248 118.713 131.613 119.292C130.988 119.88 130.083 120.174 128.897 120.174ZM128.939 115.75C129.257 115.75 129.527 115.675 129.751 115.526C129.985 115.377 130.167 115.167 130.297 114.896C130.428 114.616 130.493 114.285 130.493 113.902C130.493 113.323 130.349 112.875 130.059 112.558C129.779 112.231 129.406 112.068 128.939 112.068C128.622 112.068 128.347 112.143 128.113 112.292C127.88 112.432 127.698 112.642 127.567 112.922C127.446 113.193 127.385 113.519 127.385 113.902C127.385 114.481 127.525 114.933 127.805 115.26C128.085 115.587 128.463 115.75 128.939 115.75Z" fill="#FFA62F"/>
<path d="M80.404 133.608C79.836 133.608 79.336 133.536 78.904 133.392C78.472 133.24 78.108 133.016 77.812 132.72C77.524 132.424 77.304 132.056 77.152 131.616C77 131.176 76.924 130.668 76.924 130.092V125.58C76.924 125.372 76.976 125.216 77.08 125.112C77.192 125.008 77.348 124.956 77.548 124.956C77.748 124.956 77.9 125.008 78.004 125.112C78.116 125.216 78.172 125.372 78.172 125.58V130.068C78.172 130.892 78.36 131.508 78.736 131.916C79.12 132.324 79.676 132.528 80.404 132.528C81.14 132.528 81.696 132.324 82.072 131.916C82.448 131.508 82.636 130.892 82.636 130.068V125.58C82.636 125.372 82.688 125.216 82.792 125.112C82.904 125.008 83.056 124.956 83.248 124.956C83.448 124.956 83.6 125.008 83.704 125.112C83.808 125.216 83.86 125.372 83.86 125.58V130.092C83.86 130.86 83.728 131.508 83.464 132.036C83.208 132.556 82.824 132.948 82.312 133.212C81.8 133.476 81.164 133.608 80.404 133.608ZM86.2528 133.584C86.0608 133.584 85.9128 133.532 85.8088 133.428C85.7048 133.316 85.6528 133.164 85.6528 132.972V128.172C85.6528 127.972 85.7048 127.82 85.8088 127.716C85.9128 127.612 86.0568 127.56 86.2408 127.56C86.4328 127.56 86.5768 127.612 86.6728 127.716C86.7768 127.82 86.8288 127.972 86.8288 128.172V129.108L86.6968 128.892C86.8728 128.444 87.1488 128.108 87.5248 127.884C87.9008 127.652 88.3328 127.536 88.8208 127.536C89.2848 127.536 89.6688 127.624 89.9728 127.8C90.2848 127.968 90.5168 128.228 90.6688 128.58C90.8208 128.924 90.8968 129.36 90.8968 129.888V132.972C90.8968 133.164 90.8448 133.316 90.7408 133.428C90.6368 133.532 90.4888 133.584 90.2968 133.584C90.0968 133.584 89.9448 133.532 89.8408 133.428C89.7368 133.316 89.6848 133.164 89.6848 132.972V129.96C89.6848 129.456 89.5848 129.088 89.3848 128.856C89.1928 128.624 88.8888 128.508 88.4728 128.508C87.9848 128.508 87.5928 128.66 87.2968 128.964C87.0088 129.268 86.8648 129.676 86.8648 130.188V132.972C86.8648 133.38 86.6608 133.584 86.2528 133.584ZM94.6188 133.608C94.2668 133.608 93.9028 133.568 93.5268 133.488C93.1588 133.408 92.8188 133.272 92.5068 133.08C92.4028 133.008 92.3308 132.928 92.2908 132.84C92.2508 132.752 92.2348 132.664 92.2428 132.576C92.2588 132.48 92.2948 132.4 92.3508 132.336C92.4148 132.264 92.4908 132.22 92.5788 132.204C92.6748 132.188 92.7748 132.208 92.8788 132.264C93.1908 132.44 93.4908 132.564 93.7788 132.636C94.0668 132.7 94.3508 132.732 94.6308 132.732C95.0548 132.732 95.3748 132.656 95.5908 132.504C95.8068 132.352 95.9148 132.148 95.9148 131.892C95.9148 131.684 95.8428 131.524 95.6988 131.412C95.5548 131.292 95.3388 131.2 95.0508 131.136L93.9108 130.908C93.4148 130.804 93.0388 130.62 92.7828 130.356C92.5268 130.092 92.3988 129.756 92.3988 129.348C92.3988 128.98 92.4988 128.66 92.6988 128.388C92.8988 128.116 93.1788 127.908 93.5388 127.764C93.8988 127.612 94.3148 127.536 94.7868 127.536C95.1388 127.536 95.4708 127.58 95.7828 127.668C96.0948 127.756 96.3828 127.888 96.6468 128.064C96.7508 128.12 96.8188 128.196 96.8508 128.292C96.8828 128.38 96.8868 128.468 96.8628 128.556C96.8468 128.644 96.8068 128.724 96.7428 128.796C96.6788 128.86 96.5988 128.9 96.5028 128.916C96.4148 128.924 96.3148 128.9 96.2028 128.844C95.9628 128.692 95.7228 128.584 95.4828 128.52C95.2508 128.456 95.0188 128.424 94.7868 128.424C94.3628 128.424 94.0428 128.504 93.8268 128.664C93.6188 128.816 93.5148 129.024 93.5148 129.288C93.5148 129.488 93.5788 129.652 93.7068 129.78C93.8348 129.908 94.0348 130 94.3068 130.056L95.4468 130.284C95.9668 130.388 96.3588 130.564 96.6228 130.812C96.8948 131.06 97.0308 131.396 97.0308 131.82C97.0308 132.372 96.8108 132.808 96.3708 133.128C95.9308 133.448 95.3468 133.608 94.6188 133.608ZM100.251 133.608C99.8433 133.608 99.4753 133.528 99.1473 133.368C98.8273 133.208 98.5753 132.992 98.3913 132.72C98.2073 132.448 98.1153 132.14 98.1153 131.796C98.1153 131.364 98.2233 131.024 98.4393 130.776C98.6633 130.52 99.0273 130.34 99.5313 130.236C100.043 130.124 100.731 130.068 101.595 130.068H102.159V130.812H101.607C101.031 130.812 100.575 130.84 100.239 130.896C99.9033 130.952 99.6633 131.048 99.5193 131.184C99.3833 131.312 99.3153 131.492 99.3153 131.724C99.3153 132.028 99.4193 132.276 99.6273 132.468C99.8353 132.652 100.123 132.744 100.491 132.744C100.787 132.744 101.047 132.676 101.271 132.54C101.495 132.396 101.671 132.204 101.799 131.964C101.935 131.724 102.003 131.448 102.003 131.136V129.756C102.003 129.3 101.907 128.972 101.715 128.772C101.523 128.572 101.207 128.472 100.767 128.472C100.511 128.472 100.243 128.504 99.9633 128.568C99.6913 128.632 99.4073 128.74 99.1113 128.892C98.9753 128.956 98.8593 128.976 98.7633 128.952C98.6673 128.928 98.5913 128.876 98.5353 128.796C98.4793 128.708 98.4473 128.616 98.4393 128.52C98.4393 128.416 98.4633 128.316 98.5113 128.22C98.5673 128.124 98.6593 128.052 98.7873 128.004C99.1393 127.836 99.4873 127.716 99.8313 127.644C100.175 127.572 100.499 127.536 100.803 127.536C101.339 127.536 101.779 127.62 102.123 127.788C102.475 127.956 102.735 128.212 102.903 128.556C103.071 128.9 103.155 129.344 103.155 129.888V132.972C103.155 133.164 103.107 133.316 103.011 133.428C102.915 133.532 102.775 133.584 102.591 133.584C102.415 133.584 102.275 133.532 102.171 133.428C102.067 133.316 102.015 133.164 102.015 132.972V132.192H102.123C102.059 132.488 101.939 132.744 101.763 132.96C101.595 133.168 101.383 133.328 101.127 133.44C100.871 133.552 100.579 133.608 100.251 133.608ZM107.034 133.584C106.866 133.584 106.718 133.54 106.59 133.452C106.47 133.364 106.37 133.228 106.29 133.044L104.286 128.388C104.222 128.244 104.198 128.108 104.214 127.98C104.23 127.852 104.29 127.752 104.394 127.68C104.498 127.6 104.638 127.56 104.814 127.56C104.966 127.56 105.086 127.596 105.174 127.668C105.262 127.74 105.342 127.864 105.414 128.04L107.226 132.504H106.89L108.738 128.04C108.81 127.864 108.89 127.74 108.978 127.668C109.074 127.596 109.206 127.56 109.374 127.56C109.518 127.56 109.63 127.6 109.71 127.68C109.798 127.752 109.85 127.852 109.866 127.98C109.89 128.1 109.87 128.232 109.806 128.376L107.778 133.044C107.706 133.228 107.606 133.364 107.478 133.452C107.35 133.54 107.202 133.584 107.034 133.584ZM113.643 133.608C113.003 133.608 112.451 133.488 111.987 133.248C111.531 133 111.175 132.652 110.919 132.204C110.671 131.748 110.547 131.208 110.547 130.584C110.547 129.976 110.671 129.444 110.919 128.988C111.167 128.532 111.507 128.176 111.939 127.92C112.371 127.664 112.863 127.536 113.415 127.536C113.823 127.536 114.187 127.604 114.507 127.74C114.827 127.868 115.099 128.06 115.323 128.316C115.555 128.564 115.727 128.868 115.839 129.228C115.959 129.588 116.019 129.992 116.019 130.44C116.019 130.576 115.979 130.68 115.899 130.752C115.819 130.816 115.699 130.848 115.539 130.848H111.507V130.104H115.203L114.999 130.272C114.999 129.872 114.939 129.532 114.819 129.252C114.707 128.972 114.535 128.76 114.303 128.616C114.079 128.464 113.799 128.388 113.463 128.388C113.087 128.388 112.767 128.476 112.503 128.652C112.247 128.828 112.051 129.072 111.915 129.384C111.779 129.696 111.711 130.06 111.711 130.476V130.548C111.711 131.252 111.875 131.784 112.203 132.144C112.539 132.496 113.023 132.672 113.655 132.672C113.895 132.672 114.147 132.64 114.411 132.576C114.683 132.512 114.939 132.404 115.179 132.252C115.315 132.172 115.435 132.136 115.539 132.144C115.651 132.152 115.739 132.188 115.803 132.252C115.875 132.316 115.919 132.396 115.935 132.492C115.951 132.588 115.935 132.688 115.887 132.792C115.839 132.888 115.755 132.976 115.635 133.056C115.363 133.24 115.047 133.38 114.687 133.476C114.327 133.564 113.979 133.608 113.643 133.608ZM119.572 133.608C119.06 133.608 118.608 133.488 118.216 133.248C117.832 133 117.532 132.648 117.316 132.192C117.1 131.728 116.992 131.188 116.992 130.572C116.992 129.94 117.1 129.4 117.316 128.952C117.532 128.504 117.832 128.156 118.216 127.908C118.608 127.66 119.06 127.536 119.572 127.536C120.084 127.536 120.524 127.664 120.892 127.92C121.268 128.168 121.52 128.504 121.648 128.928H121.516V125.568C121.516 125.368 121.568 125.216 121.672 125.112C121.776 125.008 121.924 124.956 122.116 124.956C122.308 124.956 122.456 125.008 122.56 125.112C122.672 125.216 122.728 125.368 122.728 125.568V132.972C122.728 133.164 122.676 133.316 122.572 133.428C122.468 133.532 122.32 133.584 122.128 133.584C121.936 133.584 121.788 133.532 121.684 133.428C121.58 133.316 121.528 133.164 121.528 132.972V131.916L121.66 132.18C121.532 132.612 121.28 132.96 120.904 133.224C120.536 133.48 120.092 133.608 119.572 133.608ZM119.884 132.672C120.212 132.672 120.5 132.592 120.748 132.432C120.996 132.272 121.188 132.036 121.324 131.724C121.468 131.412 121.54 131.028 121.54 130.572C121.54 129.884 121.388 129.364 121.084 129.012C120.78 128.66 120.38 128.484 119.884 128.484C119.548 128.484 119.256 128.564 119.008 128.724C118.76 128.876 118.564 129.108 118.42 129.42C118.284 129.732 118.216 130.116 118.216 130.572C118.216 131.252 118.368 131.772 118.672 132.132C118.976 132.492 119.38 132.672 119.884 132.672ZM131.518 133.608C130.662 133.608 129.93 133.432 129.322 133.08C128.714 132.728 128.246 132.228 127.918 131.58C127.598 130.924 127.438 130.152 127.438 129.264C127.438 128.6 127.53 128.004 127.714 127.476C127.898 126.94 128.162 126.484 128.506 126.108C128.858 125.724 129.286 125.432 129.79 125.232C130.302 125.032 130.878 124.932 131.518 124.932C131.99 124.932 132.442 124.996 132.874 125.124C133.314 125.252 133.694 125.436 134.014 125.676C134.15 125.764 134.238 125.872 134.278 126C134.326 126.12 134.334 126.236 134.302 126.348C134.278 126.46 134.226 126.556 134.146 126.636C134.066 126.708 133.962 126.748 133.834 126.756C133.714 126.764 133.582 126.72 133.438 126.624C133.174 126.424 132.882 126.276 132.562 126.18C132.242 126.084 131.906 126.036 131.554 126.036C130.946 126.036 130.434 126.164 130.018 126.42C129.602 126.668 129.286 127.032 129.07 127.512C128.854 127.992 128.746 128.576 128.746 129.264C128.746 129.952 128.854 130.54 129.07 131.028C129.286 131.508 129.602 131.876 130.018 132.132C130.434 132.38 130.946 132.504 131.554 132.504C131.906 132.504 132.242 132.456 132.562 132.36C132.89 132.256 133.198 132.104 133.486 131.904C133.63 131.816 133.758 131.776 133.87 131.784C133.99 131.792 134.09 131.832 134.17 131.904C134.25 131.976 134.302 132.068 134.326 132.18C134.358 132.284 134.354 132.396 134.314 132.516C134.282 132.628 134.206 132.724 134.086 132.804C133.758 133.068 133.37 133.268 132.922 133.404C132.474 133.54 132.006 133.608 131.518 133.608ZM136.304 133.584C136.112 133.584 135.964 133.532 135.86 133.428C135.756 133.316 135.704 133.164 135.704 132.972V125.568C135.704 125.368 135.756 125.216 135.86 125.112C135.964 125.008 136.112 124.956 136.304 124.956C136.496 124.956 136.644 125.008 136.748 125.112C136.86 125.216 136.916 125.368 136.916 125.568V128.892H136.748C136.924 128.444 137.2 128.108 137.576 127.884C137.952 127.652 138.384 127.536 138.872 127.536C139.336 127.536 139.72 127.624 140.024 127.8C140.336 127.968 140.568 128.228 140.72 128.58C140.872 128.924 140.948 129.36 140.948 129.888V132.972C140.948 133.164 140.896 133.316 140.792 133.428C140.688 133.532 140.54 133.584 140.348 133.584C140.148 133.584 139.996 133.532 139.892 133.428C139.788 133.316 139.736 133.164 139.736 132.972V129.96C139.736 129.456 139.636 129.088 139.436 128.856C139.244 128.624 138.94 128.508 138.524 128.508C138.036 128.508 137.644 128.66 137.348 128.964C137.06 129.268 136.916 129.676 136.916 130.188V132.972C136.916 133.38 136.712 133.584 136.304 133.584ZM144.49 133.608C144.082 133.608 143.714 133.528 143.386 133.368C143.066 133.208 142.814 132.992 142.63 132.72C142.446 132.448 142.354 132.14 142.354 131.796C142.354 131.364 142.462 131.024 142.678 130.776C142.902 130.52 143.266 130.34 143.77 130.236C144.282 130.124 144.97 130.068 145.834 130.068H146.398V130.812H145.846C145.27 130.812 144.814 130.84 144.478 130.896C144.142 130.952 143.902 131.048 143.758 131.184C143.622 131.312 143.554 131.492 143.554 131.724C143.554 132.028 143.658 132.276 143.866 132.468C144.074 132.652 144.362 132.744 144.73 132.744C145.026 132.744 145.286 132.676 145.51 132.54C145.734 132.396 145.91 132.204 146.038 131.964C146.174 131.724 146.242 131.448 146.242 131.136V129.756C146.242 129.3 146.146 128.972 145.954 128.772C145.762 128.572 145.446 128.472 145.006 128.472C144.75 128.472 144.482 128.504 144.202 128.568C143.93 128.632 143.646 128.74 143.35 128.892C143.214 128.956 143.098 128.976 143.002 128.952C142.906 128.928 142.83 128.876 142.774 128.796C142.718 128.708 142.686 128.616 142.678 128.52C142.678 128.416 142.702 128.316 142.75 128.22C142.806 128.124 142.898 128.052 143.026 128.004C143.378 127.836 143.726 127.716 144.07 127.644C144.414 127.572 144.738 127.536 145.042 127.536C145.578 127.536 146.018 127.62 146.362 127.788C146.714 127.956 146.974 128.212 147.142 128.556C147.31 128.9 147.394 129.344 147.394 129.888V132.972C147.394 133.164 147.346 133.316 147.25 133.428C147.154 133.532 147.014 133.584 146.83 133.584C146.654 133.584 146.514 133.532 146.41 133.428C146.306 133.316 146.254 133.164 146.254 132.972V132.192H146.362C146.298 132.488 146.178 132.744 146.002 132.96C145.834 133.168 145.622 133.328 145.366 133.44C145.11 133.552 144.818 133.608 144.49 133.608ZM149.663 133.584C149.471 133.584 149.323 133.532 149.219 133.428C149.115 133.316 149.063 133.164 149.063 132.972V128.172C149.063 127.972 149.115 127.82 149.219 127.716C149.323 127.612 149.467 127.56 149.651 127.56C149.843 127.56 149.987 127.612 150.083 127.716C150.187 127.82 150.239 127.972 150.239 128.172V129.108L150.107 128.892C150.283 128.444 150.559 128.108 150.935 127.884C151.311 127.652 151.743 127.536 152.231 127.536C152.695 127.536 153.079 127.624 153.383 127.8C153.695 127.968 153.927 128.228 154.079 128.58C154.231 128.924 154.307 129.36 154.307 129.888V132.972C154.307 133.164 154.255 133.316 154.151 133.428C154.047 133.532 153.899 133.584 153.707 133.584C153.507 133.584 153.355 133.532 153.251 133.428C153.147 133.316 153.095 133.164 153.095 132.972V129.96C153.095 129.456 152.995 129.088 152.795 128.856C152.603 128.624 152.299 128.508 151.883 128.508C151.395 128.508 151.003 128.66 150.707 128.964C150.419 129.268 150.275 129.676 150.275 130.188V132.972C150.275 133.38 150.071 133.584 149.663 133.584ZM158.629 135.768C158.197 135.768 157.777 135.724 157.369 135.636C156.969 135.548 156.605 135.404 156.277 135.204C156.157 135.14 156.077 135.06 156.037 134.964C155.997 134.876 155.985 134.784 156.001 134.688C156.025 134.592 156.069 134.508 156.133 134.436C156.197 134.364 156.273 134.316 156.361 134.292C156.457 134.268 156.557 134.284 156.661 134.34C157.013 134.532 157.345 134.66 157.657 134.724C157.977 134.796 158.273 134.832 158.545 134.832C159.105 134.832 159.525 134.688 159.805 134.4C160.085 134.12 160.225 133.704 160.225 133.152V131.928H160.333C160.213 132.368 159.961 132.716 159.577 132.972C159.193 133.228 158.749 133.356 158.245 133.356C157.717 133.356 157.257 133.236 156.865 132.996C156.473 132.748 156.169 132.408 155.953 131.976C155.737 131.536 155.629 131.024 155.629 130.44C155.629 130 155.689 129.604 155.809 129.252C155.937 128.9 156.113 128.596 156.337 128.34C156.569 128.084 156.845 127.888 157.165 127.752C157.493 127.608 157.853 127.536 158.245 127.536C158.757 127.536 159.201 127.664 159.577 127.92C159.961 128.176 160.209 128.524 160.321 128.964L160.201 129.168V128.172C160.201 127.972 160.253 127.82 160.357 127.716C160.469 127.612 160.617 127.56 160.801 127.56C160.993 127.56 161.141 127.612 161.245 127.716C161.349 127.82 161.401 127.972 161.401 128.172V133.008C161.401 133.92 161.165 134.608 160.693 135.072C160.221 135.536 159.533 135.768 158.629 135.768ZM158.533 132.408C158.885 132.408 159.185 132.328 159.433 132.168C159.681 132.008 159.873 131.78 160.009 131.484C160.145 131.188 160.213 130.84 160.213 130.44C160.213 129.84 160.061 129.364 159.757 129.012C159.461 128.66 159.053 128.484 158.533 128.484C158.189 128.484 157.893 128.564 157.645 128.724C157.397 128.884 157.201 129.112 157.057 129.408C156.921 129.696 156.853 130.04 156.853 130.44C156.853 131.048 157.005 131.528 157.309 131.88C157.613 132.232 158.021 132.408 158.533 132.408ZM165.85 133.608C165.21 133.608 164.658 133.488 164.194 133.248C163.738 133 163.382 132.652 163.126 132.204C162.878 131.748 162.754 131.208 162.754 130.584C162.754 129.976 162.878 129.444 163.126 128.988C163.374 128.532 163.714 128.176 164.146 127.92C164.578 127.664 165.07 127.536 165.622 127.536C166.03 127.536 166.394 127.604 166.714 127.74C167.034 127.868 167.306 128.06 167.53 128.316C167.762 128.564 167.934 128.868 168.046 129.228C168.166 129.588 168.226 129.992 168.226 130.44C168.226 130.576 168.186 130.68 168.106 130.752C168.026 130.816 167.906 130.848 167.746 130.848H163.714V130.104H167.41L167.206 130.272C167.206 129.872 167.146 129.532 167.026 129.252C166.914 128.972 166.742 128.76 166.51 128.616C166.286 128.464 166.006 128.388 165.67 128.388C165.294 128.388 164.974 128.476 164.71 128.652C164.454 128.828 164.258 129.072 164.122 129.384C163.986 129.696 163.918 130.06 163.918 130.476V130.548C163.918 131.252 164.082 131.784 164.41 132.144C164.746 132.496 165.23 132.672 165.862 132.672C166.102 132.672 166.354 132.64 166.618 132.576C166.89 132.512 167.146 132.404 167.386 132.252C167.522 132.172 167.642 132.136 167.746 132.144C167.858 132.152 167.946 132.188 168.01 132.252C168.082 132.316 168.126 132.396 168.142 132.492C168.158 132.588 168.142 132.688 168.094 132.792C168.046 132.888 167.962 132.976 167.842 133.056C167.57 133.24 167.254 133.38 166.894 133.476C166.534 133.564 166.186 133.608 165.85 133.608ZM171.599 133.608C171.247 133.608 170.883 133.568 170.507 133.488C170.139 133.408 169.799 133.272 169.487 133.08C169.383 133.008 169.311 132.928 169.271 132.84C169.231 132.752 169.215 132.664 169.223 132.576C169.239 132.48 169.275 132.4 169.331 132.336C169.395 132.264 169.471 132.22 169.559 132.204C169.655 132.188 169.755 132.208 169.859 132.264C170.171 132.44 170.471 132.564 170.759 132.636C171.047 132.7 171.331 132.732 171.611 132.732C172.035 132.732 172.355 132.656 172.571 132.504C172.787 132.352 172.895 132.148 172.895 131.892C172.895 131.684 172.823 131.524 172.679 131.412C172.535 131.292 172.319 131.2 172.031 131.136L170.891 130.908C170.395 130.804 170.019 130.62 169.763 130.356C169.507 130.092 169.379 129.756 169.379 129.348C169.379 128.98 169.479 128.66 169.679 128.388C169.879 128.116 170.159 127.908 170.519 127.764C170.879 127.612 171.295 127.536 171.767 127.536C172.119 127.536 172.451 127.58 172.763 127.668C173.075 127.756 173.363 127.888 173.627 128.064C173.731 128.12 173.799 128.196 173.831 128.292C173.863 128.38 173.867 128.468 173.843 128.556C173.827 128.644 173.787 128.724 173.723 128.796C173.659 128.86 173.579 128.9 173.483 128.916C173.395 128.924 173.295 128.9 173.183 128.844C172.943 128.692 172.703 128.584 172.463 128.52C172.231 128.456 171.999 128.424 171.767 128.424C171.343 128.424 171.023 128.504 170.807 128.664C170.599 128.816 170.495 129.024 170.495 129.288C170.495 129.488 170.559 129.652 170.687 129.78C170.815 129.908 171.015 130 171.287 130.056L172.427 130.284C172.947 130.388 173.339 130.564 173.603 130.812C173.875 131.06 174.011 131.396 174.011 131.82C174.011 132.372 173.791 132.808 173.351 133.128C172.911 133.448 172.327 133.608 171.599 133.608ZM175.948 133.548C175.716 133.548 175.528 133.476 175.384 133.332C175.24 133.188 175.168 133.004 175.168 132.78C175.168 132.556 175.24 132.376 175.384 132.24C175.528 132.096 175.716 132.024 175.948 132.024C176.18 132.024 176.364 132.096 176.5 132.24C176.636 132.376 176.704 132.556 176.704 132.78C176.704 133.004 176.636 133.188 176.5 133.332C176.364 133.476 176.18 133.548 175.948 133.548ZM175.948 129.12C175.716 129.12 175.528 129.048 175.384 128.904C175.24 128.76 175.168 128.58 175.168 128.364C175.168 128.132 175.24 127.948 175.384 127.812C175.528 127.668 175.716 127.596 175.948 127.596C176.18 127.596 176.364 127.668 176.5 127.812C176.636 127.948 176.704 128.132 176.704 128.364C176.704 128.58 176.636 128.76 176.5 128.904C176.364 129.048 176.18 129.12 175.948 129.12ZM184.156 133.584C183.956 133.584 183.8 133.528 183.688 133.416C183.584 133.304 183.532 133.144 183.532 132.936V129.132L183.808 129.924L180.844 125.808C180.756 125.688 180.716 125.564 180.724 125.436C180.732 125.3 180.784 125.188 180.88 125.1C180.984 125.004 181.12 124.956 181.288 124.956C181.416 124.956 181.532 124.988 181.636 125.052C181.748 125.116 181.852 125.216 181.948 125.352L184.324 128.652H184.036L186.412 125.352C186.516 125.208 186.616 125.108 186.712 125.052C186.808 124.988 186.928 124.956 187.072 124.956C187.24 124.956 187.368 125 187.456 125.088C187.552 125.168 187.6 125.276 187.6 125.412C187.608 125.54 187.56 125.676 187.456 125.82L184.516 129.924L184.768 129.132V132.936C184.768 133.368 184.564 133.584 184.156 133.584ZM190.22 133.608C189.628 133.608 189.116 133.484 188.684 133.236C188.26 132.988 187.928 132.636 187.688 132.18C187.448 131.724 187.328 131.188 187.328 130.572C187.328 130.1 187.396 129.68 187.532 129.312C187.668 128.944 187.86 128.628 188.108 128.364C188.364 128.092 188.668 127.888 189.02 127.752C189.38 127.608 189.78 127.536 190.22 127.536C190.804 127.536 191.308 127.66 191.732 127.908C192.164 128.156 192.5 128.508 192.74 128.964C192.98 129.412 193.1 129.948 193.1 130.572C193.1 131.036 193.032 131.456 192.896 131.832C192.76 132.208 192.564 132.528 192.308 132.792C192.06 133.056 191.756 133.26 191.396 133.404C191.044 133.54 190.652 133.608 190.22 133.608ZM190.22 132.672C190.548 132.672 190.836 132.592 191.084 132.432C191.332 132.272 191.524 132.036 191.66 131.724C191.804 131.412 191.876 131.028 191.876 130.572C191.876 129.884 191.724 129.364 191.42 129.012C191.116 128.66 190.716 128.484 190.22 128.484C189.884 128.484 189.592 128.564 189.344 128.724C189.096 128.876 188.9 129.108 188.756 129.42C188.62 129.732 188.552 130.116 188.552 130.572C188.552 131.252 188.704 131.772 189.008 132.132C189.312 132.492 189.716 132.672 190.22 132.672ZM196.549 133.608C196.077 133.608 195.681 133.52 195.361 133.344C195.049 133.168 194.813 132.908 194.653 132.564C194.501 132.212 194.425 131.772 194.425 131.244V128.172C194.425 127.964 194.477 127.812 194.581 127.716C194.685 127.612 194.833 127.56 195.025 127.56C195.217 127.56 195.365 127.612 195.469 127.716C195.581 127.812 195.637 127.964 195.637 128.172V131.256C195.637 131.728 195.733 132.076 195.925 132.3C196.117 132.524 196.421 132.636 196.837 132.636C197.293 132.636 197.661 132.484 197.941 132.18C198.229 131.868 198.373 131.46 198.373 130.956V128.172C198.373 127.964 198.425 127.812 198.529 127.716C198.633 127.612 198.785 127.56 198.985 127.56C199.177 127.56 199.325 127.612 199.429 127.716C199.533 127.812 199.585 127.964 199.585 128.172V132.972C199.585 133.38 199.389 133.584 198.997 133.584C198.813 133.584 198.669 133.532 198.565 133.428C198.461 133.316 198.409 133.164 198.409 132.972V131.952L198.565 132.216C198.405 132.664 198.149 133.008 197.797 133.248C197.445 133.488 197.029 133.608 196.549 133.608ZM205.057 133.584C204.865 133.584 204.717 133.532 204.613 133.428C204.509 133.316 204.457 133.164 204.457 132.972V125.568C204.457 125.368 204.509 125.216 204.613 125.112C204.717 125.008 204.865 124.956 205.057 124.956C205.249 124.956 205.397 125.008 205.501 125.112C205.613 125.216 205.669 125.368 205.669 125.568V128.892H205.501C205.677 128.444 205.953 128.108 206.329 127.884C206.705 127.652 207.137 127.536 207.625 127.536C208.089 127.536 208.473 127.624 208.777 127.8C209.089 127.968 209.321 128.228 209.473 128.58C209.625 128.924 209.701 129.36 209.701 129.888V132.972C209.701 133.164 209.649 133.316 209.545 133.428C209.441 133.532 209.293 133.584 209.101 133.584C208.901 133.584 208.749 133.532 208.645 133.428C208.541 133.316 208.489 133.164 208.489 132.972V129.96C208.489 129.456 208.389 129.088 208.189 128.856C207.997 128.624 207.693 128.508 207.277 128.508C206.789 128.508 206.397 128.66 206.101 128.964C205.813 129.268 205.669 129.676 205.669 130.188V132.972C205.669 133.38 205.465 133.584 205.057 133.584ZM213.244 133.608C212.836 133.608 212.468 133.528 212.14 133.368C211.82 133.208 211.568 132.992 211.384 132.72C211.2 132.448 211.108 132.14 211.108 131.796C211.108 131.364 211.216 131.024 211.432 130.776C211.656 130.52 212.02 130.34 212.524 130.236C213.036 130.124 213.724 130.068 214.588 130.068H215.152V130.812H214.6C214.024 130.812 213.568 130.84 213.232 130.896C212.896 130.952 212.656 131.048 212.512 131.184C212.376 131.312 212.308 131.492 212.308 131.724C212.308 132.028 212.412 132.276 212.62 132.468C212.828 132.652 213.116 132.744 213.484 132.744C213.78 132.744 214.04 132.676 214.264 132.54C214.488 132.396 214.664 132.204 214.792 131.964C214.928 131.724 214.996 131.448 214.996 131.136V129.756C214.996 129.3 214.9 128.972 214.708 128.772C214.516 128.572 214.2 128.472 213.76 128.472C213.504 128.472 213.236 128.504 212.956 128.568C212.684 128.632 212.4 128.74 212.104 128.892C211.968 128.956 211.852 128.976 211.756 128.952C211.66 128.928 211.584 128.876 211.528 128.796C211.472 128.708 211.44 128.616 211.432 128.52C211.432 128.416 211.456 128.316 211.504 128.22C211.56 128.124 211.652 128.052 211.78 128.004C212.132 127.836 212.48 127.716 212.824 127.644C213.168 127.572 213.492 127.536 213.796 127.536C214.332 127.536 214.772 127.62 215.116 127.788C215.468 127.956 215.728 128.212 215.896 128.556C216.064 128.9 216.148 129.344 216.148 129.888V132.972C216.148 133.164 216.1 133.316 216.004 133.428C215.908 133.532 215.768 133.584 215.584 133.584C215.408 133.584 215.268 133.532 215.164 133.428C215.06 133.316 215.008 133.164 215.008 132.972V132.192H215.116C215.052 132.488 214.932 132.744 214.756 132.96C214.588 133.168 214.376 133.328 214.12 133.44C213.864 133.552 213.572 133.608 213.244 133.608ZM220.026 133.584C219.858 133.584 219.71 133.54 219.582 133.452C219.462 133.364 219.362 133.228 219.282 133.044L217.278 128.388C217.214 128.244 217.19 128.108 217.206 127.98C217.222 127.852 217.282 127.752 217.386 127.68C217.49 127.6 217.63 127.56 217.806 127.56C217.958 127.56 218.078 127.596 218.166 127.668C218.254 127.74 218.334 127.864 218.406 128.04L220.218 132.504H219.882L221.73 128.04C221.802 127.864 221.882 127.74 221.97 127.668C222.066 127.596 222.198 127.56 222.366 127.56C222.51 127.56 222.622 127.6 222.702 127.68C222.79 127.752 222.842 127.852 222.858 127.98C222.882 128.1 222.862 128.232 222.798 128.376L220.77 133.044C220.698 133.228 220.598 133.364 220.47 133.452C220.342 133.54 220.194 133.584 220.026 133.584ZM226.635 133.608C225.995 133.608 225.443 133.488 224.979 133.248C224.523 133 224.167 132.652 223.911 132.204C223.663 131.748 223.539 131.208 223.539 130.584C223.539 129.976 223.663 129.444 223.911 128.988C224.159 128.532 224.499 128.176 224.931 127.92C225.363 127.664 225.855 127.536 226.407 127.536C226.815 127.536 227.179 127.604 227.499 127.74C227.819 127.868 228.091 128.06 228.315 128.316C228.547 128.564 228.719 128.868 228.831 129.228C228.951 129.588 229.011 129.992 229.011 130.44C229.011 130.576 228.971 130.68 228.891 130.752C228.811 130.816 228.691 130.848 228.531 130.848H224.499V130.104H228.195L227.991 130.272C227.991 129.872 227.931 129.532 227.811 129.252C227.699 128.972 227.527 128.76 227.295 128.616C227.071 128.464 226.791 128.388 226.455 128.388C226.079 128.388 225.759 128.476 225.495 128.652C225.239 128.828 225.043 129.072 224.907 129.384C224.771 129.696 224.703 130.06 224.703 130.476V130.548C224.703 131.252 224.867 131.784 225.195 132.144C225.531 132.496 226.015 132.672 226.647 132.672C226.887 132.672 227.139 132.64 227.403 132.576C227.675 132.512 227.931 132.404 228.171 132.252C228.307 132.172 228.427 132.136 228.531 132.144C228.643 132.152 228.731 132.188 228.795 132.252C228.867 132.316 228.911 132.396 228.927 132.492C228.943 132.588 228.927 132.688 228.879 132.792C228.831 132.888 228.747 132.976 228.627 133.056C228.355 133.24 228.039 133.38 227.679 133.476C227.319 133.564 226.971 133.608 226.635 133.608ZM235.585 133.608C235.113 133.608 234.717 133.52 234.397 133.344C234.085 133.168 233.849 132.908 233.689 132.564C233.537 132.212 233.461 131.772 233.461 131.244V128.172C233.461 127.964 233.513 127.812 233.617 127.716C233.721 127.612 233.869 127.56 234.061 127.56C234.253 127.56 234.401 127.612 234.505 127.716C234.617 127.812 234.673 127.964 234.673 128.172V131.256C234.673 131.728 234.769 132.076 234.961 132.3C235.153 132.524 235.457 132.636 235.873 132.636C236.329 132.636 236.697 132.484 236.977 132.18C237.265 131.868 237.409 131.46 237.409 130.956V128.172C237.409 127.964 237.461 127.812 237.565 127.716C237.669 127.612 237.821 127.56 238.021 127.56C238.213 127.56 238.361 127.612 238.465 127.716C238.569 127.812 238.621 127.964 238.621 128.172V132.972C238.621 133.38 238.425 133.584 238.033 133.584C237.849 133.584 237.705 133.532 237.601 133.428C237.497 133.316 237.445 133.164 237.445 132.972V131.952L237.601 132.216C237.441 132.664 237.185 133.008 236.833 133.248C236.481 133.488 236.065 133.608 235.585 133.608ZM240.929 133.584C240.737 133.584 240.589 133.532 240.485 133.428C240.381 133.316 240.329 133.164 240.329 132.972V128.172C240.329 127.972 240.381 127.82 240.485 127.716C240.589 127.612 240.733 127.56 240.917 127.56C241.109 127.56 241.253 127.612 241.349 127.716C241.453 127.82 241.505 127.972 241.505 128.172V129.108L241.373 128.892C241.549 128.444 241.825 128.108 242.201 127.884C242.577 127.652 243.009 127.536 243.497 127.536C243.961 127.536 244.345 127.624 244.649 127.8C244.961 127.968 245.193 128.228 245.345 128.58C245.497 128.924 245.573 129.36 245.573 129.888V132.972C245.573 133.164 245.521 133.316 245.417 133.428C245.313 133.532 245.165 133.584 244.973 133.584C244.773 133.584 244.621 133.532 244.517 133.428C244.413 133.316 244.361 133.164 244.361 132.972V129.96C244.361 129.456 244.261 129.088 244.061 128.856C243.869 128.624 243.565 128.508 243.149 128.508C242.661 128.508 242.269 128.66 241.973 128.964C241.685 129.268 241.541 129.676 241.541 130.188V132.972C241.541 133.38 241.337 133.584 240.929 133.584ZM249.295 133.608C248.943 133.608 248.579 133.568 248.203 133.488C247.835 133.408 247.495 133.272 247.183 133.08C247.079 133.008 247.007 132.928 246.967 132.84C246.927 132.752 246.911 132.664 246.919 132.576C246.935 132.48 246.971 132.4 247.027 132.336C247.091 132.264 247.167 132.22 247.255 132.204C247.351 132.188 247.451 132.208 247.555 132.264C247.867 132.44 248.167 132.564 248.455 132.636C248.743 132.7 249.027 132.732 249.307 132.732C249.731 132.732 250.051 132.656 250.267 132.504C250.483 132.352 250.591 132.148 250.591 131.892C250.591 131.684 250.519 131.524 250.375 131.412C250.231 131.292 250.015 131.2 249.727 131.136L248.587 130.908C248.091 130.804 247.715 130.62 247.459 130.356C247.203 130.092 247.075 129.756 247.075 129.348C247.075 128.98 247.175 128.66 247.375 128.388C247.575 128.116 247.855 127.908 248.215 127.764C248.575 127.612 248.991 127.536 249.463 127.536C249.815 127.536 250.147 127.58 250.459 127.668C250.771 127.756 251.059 127.888 251.323 128.064C251.427 128.12 251.495 128.196 251.527 128.292C251.559 128.38 251.563 128.468 251.539 128.556C251.523 128.644 251.483 128.724 251.419 128.796C251.355 128.86 251.275 128.9 251.179 128.916C251.091 128.924 250.991 128.9 250.879 128.844C250.639 128.692 250.399 128.584 250.159 128.52C249.927 128.456 249.695 128.424 249.463 128.424C249.039 128.424 248.719 128.504 248.503 128.664C248.295 128.816 248.191 129.024 248.191 129.288C248.191 129.488 248.255 129.652 248.383 129.78C248.511 129.908 248.711 130 248.983 130.056L250.123 130.284C250.643 130.388 251.035 130.564 251.299 130.812C251.571 131.06 251.707 131.396 251.707 131.82C251.707 132.372 251.487 132.808 251.047 133.128C250.607 133.448 250.023 133.608 249.295 133.608ZM254.927 133.608C254.519 133.608 254.151 133.528 253.823 133.368C253.503 133.208 253.251 132.992 253.067 132.72C252.883 132.448 252.791 132.14 252.791 131.796C252.791 131.364 252.899 131.024 253.115 130.776C253.339 130.52 253.703 130.34 254.207 130.236C254.719 130.124 255.407 130.068 256.271 130.068H256.835V130.812H256.283C255.707 130.812 255.251 130.84 254.915 130.896C254.579 130.952 254.339 131.048 254.195 131.184C254.059 131.312 253.991 131.492 253.991 131.724C253.991 132.028 254.095 132.276 254.303 132.468C254.511 132.652 254.799 132.744 255.167 132.744C255.463 132.744 255.723 132.676 255.947 132.54C256.171 132.396 256.347 132.204 256.475 131.964C256.611 131.724 256.679 131.448 256.679 131.136V129.756C256.679 129.3 256.583 128.972 256.391 128.772C256.199 128.572 255.883 128.472 255.443 128.472C255.187 128.472 254.919 128.504 254.639 128.568C254.367 128.632 254.083 128.74 253.787 128.892C253.651 128.956 253.535 128.976 253.439 128.952C253.343 128.928 253.267 128.876 253.211 128.796C253.155 128.708 253.123 128.616 253.115 128.52C253.115 128.416 253.139 128.316 253.187 128.22C253.243 128.124 253.335 128.052 253.463 128.004C253.815 127.836 254.163 127.716 254.507 127.644C254.851 127.572 255.175 127.536 255.479 127.536C256.015 127.536 256.455 127.62 256.799 127.788C257.151 127.956 257.411 128.212 257.579 128.556C257.747 128.9 257.831 129.344 257.831 129.888V132.972C257.831 133.164 257.783 133.316 257.687 133.428C257.591 133.532 257.451 133.584 257.267 133.584C257.091 133.584 256.951 133.532 256.847 133.428C256.743 133.316 256.691 133.164 256.691 132.972V132.192H256.799C256.735 132.488 256.615 132.744 256.439 132.96C256.271 133.168 256.059 133.328 255.803 133.44C255.547 133.552 255.255 133.608 254.927 133.608ZM261.71 133.584C261.542 133.584 261.394 133.54 261.266 133.452C261.146 133.364 261.046 133.228 260.966 133.044L258.962 128.388C258.898 128.244 258.874 128.108 258.89 127.98C258.906 127.852 258.966 127.752 259.07 127.68C259.174 127.6 259.314 127.56 259.49 127.56C259.642 127.56 259.762 127.596 259.85 127.668C259.938 127.74 260.018 127.864 260.09 128.04L261.902 132.504H261.566L263.414 128.04C263.486 127.864 263.566 127.74 263.654 127.668C263.75 127.596 263.882 127.56 264.05 127.56C264.194 127.56 264.306 127.6 264.386 127.68C264.474 127.752 264.526 127.852 264.542 127.98C264.566 128.1 264.546 128.232 264.482 128.376L262.454 133.044C262.382 133.228 262.282 133.364 262.154 133.452C262.026 133.54 261.878 133.584 261.71 133.584ZM268.319 133.608C267.679 133.608 267.127 133.488 266.663 133.248C266.207 133 265.851 132.652 265.595 132.204C265.347 131.748 265.223 131.208 265.223 130.584C265.223 129.976 265.347 129.444 265.595 128.988C265.843 128.532 266.183 128.176 266.615 127.92C267.047 127.664 267.539 127.536 268.091 127.536C268.499 127.536 268.863 127.604 269.183 127.74C269.503 127.868 269.775 128.06 269.999 128.316C270.231 128.564 270.403 128.868 270.515 129.228C270.635 129.588 270.695 129.992 270.695 130.44C270.695 130.576 270.655 130.68 270.575 130.752C270.495 130.816 270.375 130.848 270.215 130.848H266.183V130.104H269.879L269.675 130.272C269.675 129.872 269.615 129.532 269.495 129.252C269.383 128.972 269.211 128.76 268.979 128.616C268.755 128.464 268.475 128.388 268.139 128.388C267.763 128.388 267.443 128.476 267.179 128.652C266.923 128.828 266.727 129.072 266.591 129.384C266.455 129.696 266.387 130.06 266.387 130.476V130.548C266.387 131.252 266.551 131.784 266.879 132.144C267.215 132.496 267.699 132.672 268.331 132.672C268.571 132.672 268.823 132.64 269.087 132.576C269.359 132.512 269.615 132.404 269.855 132.252C269.991 132.172 270.111 132.136 270.215 132.144C270.327 132.152 270.415 132.188 270.479 132.252C270.551 132.316 270.595 132.396 270.611 132.492C270.627 132.588 270.611 132.688 270.563 132.792C270.515 132.888 270.431 132.976 270.311 133.056C270.039 133.24 269.723 133.38 269.363 133.476C269.003 133.564 268.655 133.608 268.319 133.608ZM274.248 133.608C273.736 133.608 273.284 133.488 272.892 133.248C272.508 133 272.208 132.648 271.992 132.192C271.776 131.728 271.668 131.188 271.668 130.572C271.668 129.94 271.776 129.4 271.992 128.952C272.208 128.504 272.508 128.156 272.892 127.908C273.284 127.66 273.736 127.536 274.248 127.536C274.76 127.536 275.2 127.664 275.568 127.92C275.944 128.168 276.196 128.504 276.324 128.928H276.192V125.568C276.192 125.368 276.244 125.216 276.348 125.112C276.452 125.008 276.6 124.956 276.792 124.956C276.984 124.956 277.132 125.008 277.236 125.112C277.348 125.216 277.404 125.368 277.404 125.568V132.972C277.404 133.164 277.352 133.316 277.248 133.428C277.144 133.532 276.996 133.584 276.804 133.584C276.612 133.584 276.464 133.532 276.36 133.428C276.256 133.316 276.204 133.164 276.204 132.972V131.916L276.336 132.18C276.208 132.612 275.956 132.96 275.58 133.224C275.212 133.48 274.768 133.608 274.248 133.608ZM274.56 132.672C274.888 132.672 275.176 132.592 275.424 132.432C275.672 132.272 275.864 132.036 276 131.724C276.144 131.412 276.216 131.028 276.216 130.572C276.216 129.884 276.064 129.364 275.76 129.012C275.456 128.66 275.056 128.484 274.56 128.484C274.224 128.484 273.932 128.564 273.684 128.724C273.436 128.876 273.24 129.108 273.096 129.42C272.96 129.732 272.892 130.116 272.892 130.572C272.892 131.252 273.044 131.772 273.348 132.132C273.652 132.492 274.056 132.672 274.56 132.672ZM284.85 133.608C284.25 133.608 283.73 133.484 283.29 133.236C282.858 132.98 282.522 132.624 282.282 132.168C282.042 131.704 281.922 131.16 281.922 130.536C281.922 130.072 281.99 129.656 282.126 129.288C282.262 128.912 282.454 128.596 282.702 128.34C282.958 128.084 283.266 127.888 283.626 127.752C283.994 127.608 284.402 127.536 284.85 127.536C285.13 127.536 285.422 127.58 285.726 127.668C286.038 127.748 286.326 127.884 286.59 128.076C286.694 128.14 286.758 128.22 286.782 128.316C286.814 128.404 286.818 128.496 286.794 128.592C286.778 128.688 286.734 128.772 286.662 128.844C286.598 128.908 286.518 128.948 286.422 128.964C286.326 128.972 286.222 128.944 286.11 128.88C285.918 128.744 285.722 128.648 285.522 128.592C285.322 128.528 285.13 128.496 284.946 128.496C284.658 128.496 284.402 128.544 284.178 128.64C283.962 128.728 283.778 128.86 283.626 129.036C283.474 129.204 283.358 129.416 283.278 129.672C283.206 129.928 283.17 130.22 283.17 130.548C283.17 131.204 283.322 131.72 283.626 132.096C283.938 132.464 284.378 132.648 284.946 132.648C285.13 132.648 285.322 132.62 285.522 132.564C285.722 132.508 285.918 132.412 286.11 132.276C286.222 132.212 286.326 132.188 286.422 132.204C286.518 132.22 286.594 132.264 286.65 132.336C286.714 132.4 286.754 132.48 286.77 132.576C286.794 132.664 286.79 132.756 286.758 132.852C286.726 132.948 286.658 133.028 286.554 133.092C286.298 133.276 286.018 133.408 285.714 133.488C285.418 133.568 285.13 133.608 284.85 133.608ZM288.472 133.584C288.28 133.584 288.132 133.532 288.028 133.428C287.924 133.316 287.872 133.164 287.872 132.972V125.568C287.872 125.368 287.924 125.216 288.028 125.112C288.132 125.008 288.28 124.956 288.472 124.956C288.664 124.956 288.812 125.008 288.916 125.112C289.028 125.216 289.084 125.368 289.084 125.568V128.892H288.916C289.092 128.444 289.368 128.108 289.744 127.884C290.12 127.652 290.552 127.536 291.04 127.536C291.504 127.536 291.888 127.624 292.192 127.8C292.504 127.968 292.736 128.228 292.888 128.58C293.04 128.924 293.116 129.36 293.116 129.888V132.972C293.116 133.164 293.064 133.316 292.96 133.428C292.856 133.532 292.708 133.584 292.516 133.584C292.316 133.584 292.164 133.532 292.06 133.428C291.956 133.316 291.904 133.164 291.904 132.972V129.96C291.904 129.456 291.804 129.088 291.604 128.856C291.412 128.624 291.108 128.508 290.692 128.508C290.204 128.508 289.812 128.66 289.516 128.964C289.228 129.268 289.084 129.676 289.084 130.188V132.972C289.084 133.38 288.88 133.584 288.472 133.584ZM296.658 133.608C296.25 133.608 295.882 133.528 295.554 133.368C295.234 133.208 294.982 132.992 294.798 132.72C294.614 132.448 294.522 132.14 294.522 131.796C294.522 131.364 294.63 131.024 294.846 130.776C295.07 130.52 295.434 130.34 295.938 130.236C296.45 130.124 297.138 130.068 298.002 130.068H298.566V130.812H298.014C297.438 130.812 296.982 130.84 296.646 130.896C296.31 130.952 296.07 131.048 295.926 131.184C295.79 131.312 295.722 131.492 295.722 131.724C295.722 132.028 295.826 132.276 296.034 132.468C296.242 132.652 296.53 132.744 296.898 132.744C297.194 132.744 297.454 132.676 297.678 132.54C297.902 132.396 298.078 132.204 298.206 131.964C298.342 131.724 298.41 131.448 298.41 131.136V129.756C298.41 129.3 298.314 128.972 298.122 128.772C297.93 128.572 297.614 128.472 297.174 128.472C296.918 128.472 296.65 128.504 296.37 128.568C296.098 128.632 295.814 128.74 295.518 128.892C295.382 128.956 295.266 128.976 295.17 128.952C295.074 128.928 294.998 128.876 294.942 128.796C294.886 128.708 294.854 128.616 294.846 128.52C294.846 128.416 294.87 128.316 294.918 128.22C294.974 128.124 295.066 128.052 295.194 128.004C295.546 127.836 295.894 127.716 296.238 127.644C296.582 127.572 296.906 127.536 297.21 127.536C297.746 127.536 298.186 127.62 298.53 127.788C298.882 127.956 299.142 128.212 299.31 128.556C299.478 128.9 299.562 129.344 299.562 129.888V132.972C299.562 133.164 299.514 133.316 299.418 133.428C299.322 133.532 299.182 133.584 298.998 133.584C298.822 133.584 298.682 133.532 298.578 133.428C298.474 133.316 298.422 133.164 298.422 132.972V132.192H298.53C298.466 132.488 298.346 132.744 298.17 132.96C298.002 133.168 297.79 133.328 297.534 133.44C297.278 133.552 296.986 133.608 296.658 133.608ZM301.831 133.584C301.639 133.584 301.491 133.532 301.387 133.428C301.283 133.316 301.231 133.164 301.231 132.972V128.172C301.231 127.972 301.283 127.82 301.387 127.716C301.491 127.612 301.635 127.56 301.819 127.56C302.011 127.56 302.155 127.612 302.251 127.716C302.355 127.82 302.407 127.972 302.407 128.172V129.108L302.275 128.892C302.451 128.444 302.727 128.108 303.103 127.884C303.479 127.652 303.911 127.536 304.399 127.536C304.863 127.536 305.247 127.624 305.551 127.8C305.863 127.968 306.095 128.228 306.247 128.58C306.399 128.924 306.475 129.36 306.475 129.888V132.972C306.475 133.164 306.423 133.316 306.319 133.428C306.215 133.532 306.067 133.584 305.875 133.584C305.675 133.584 305.523 133.532 305.419 133.428C305.315 133.316 305.263 133.164 305.263 132.972V129.96C305.263 129.456 305.163 129.088 304.963 128.856C304.771 128.624 304.467 128.508 304.051 128.508C303.563 128.508 303.171 128.66 302.875 128.964C302.587 129.268 302.443 129.676 302.443 130.188V132.972C302.443 133.38 302.239 133.584 301.831 133.584ZM310.797 135.768C310.365 135.768 309.945 135.724 309.537 135.636C309.137 135.548 308.773 135.404 308.445 135.204C308.325 135.14 308.245 135.06 308.205 134.964C308.165 134.876 308.153 134.784 308.169 134.688C308.193 134.592 308.237 134.508 308.301 134.436C308.365 134.364 308.441 134.316 308.529 134.292C308.625 134.268 308.725 134.284 308.829 134.34C309.181 134.532 309.513 134.66 309.825 134.724C310.145 134.796 310.441 134.832 310.713 134.832C311.273 134.832 311.693 134.688 311.973 134.4C312.253 134.12 312.393 133.704 312.393 133.152V131.928H312.501C312.381 132.368 312.129 132.716 311.745 132.972C311.361 133.228 310.917 133.356 310.413 133.356C309.885 133.356 309.425 133.236 309.033 132.996C308.641 132.748 308.337 132.408 308.121 131.976C307.905 131.536 307.797 131.024 307.797 130.44C307.797 130 307.857 129.604 307.977 129.252C308.105 128.9 308.281 128.596 308.505 128.34C308.737 128.084 309.013 127.888 309.333 127.752C309.661 127.608 310.021 127.536 310.413 127.536C310.925 127.536 311.369 127.664 311.745 127.92C312.129 128.176 312.377 128.524 312.489 128.964L312.369 129.168V128.172C312.369 127.972 312.421 127.82 312.525 127.716C312.637 127.612 312.785 127.56 312.969 127.56C313.161 127.56 313.309 127.612 313.413 127.716C313.517 127.82 313.569 127.972 313.569 128.172V133.008C313.569 133.92 313.333 134.608 312.861 135.072C312.389 135.536 311.701 135.768 310.797 135.768ZM310.701 132.408C311.053 132.408 311.353 132.328 311.601 132.168C311.849 132.008 312.041 131.78 312.177 131.484C312.313 131.188 312.381 130.84 312.381 130.44C312.381 129.84 312.229 129.364 311.925 129.012C311.629 128.66 311.221 128.484 310.701 128.484C310.357 128.484 310.061 128.564 309.813 128.724C309.565 128.884 309.369 129.112 309.225 129.408C309.089 129.696 309.021 130.04 309.021 130.44C309.021 131.048 309.173 131.528 309.477 131.88C309.781 132.232 310.189 132.408 310.701 132.408ZM318.018 133.608C317.378 133.608 316.826 133.488 316.362 133.248C315.906 133 315.55 132.652 315.294 132.204C315.046 131.748 314.922 131.208 314.922 130.584C314.922 129.976 315.046 129.444 315.294 128.988C315.542 128.532 315.882 128.176 316.314 127.92C316.746 127.664 317.238 127.536 317.79 127.536C318.198 127.536 318.562 127.604 318.882 127.74C319.202 127.868 319.474 128.06 319.698 128.316C319.93 128.564 320.102 128.868 320.214 129.228C320.334 129.588 320.394 129.992 320.394 130.44C320.394 130.576 320.354 130.68 320.274 130.752C320.194 130.816 320.074 130.848 319.914 130.848H315.882V130.104H319.578L319.374 130.272C319.374 129.872 319.314 129.532 319.194 129.252C319.082 128.972 318.91 128.76 318.678 128.616C318.454 128.464 318.174 128.388 317.838 128.388C317.462 128.388 317.142 128.476 316.878 128.652C316.622 128.828 316.426 129.072 316.29 129.384C316.154 129.696 316.086 130.06 316.086 130.476V130.548C316.086 131.252 316.25 131.784 316.578 132.144C316.914 132.496 317.398 132.672 318.03 132.672C318.27 132.672 318.522 132.64 318.786 132.576C319.058 132.512 319.314 132.404 319.554 132.252C319.69 132.172 319.81 132.136 319.914 132.144C320.026 132.152 320.114 132.188 320.178 132.252C320.25 132.316 320.294 132.396 320.31 132.492C320.326 132.588 320.31 132.688 320.262 132.792C320.214 132.888 320.13 132.976 320.01 133.056C319.738 133.24 319.422 133.38 319.062 133.476C318.702 133.564 318.354 133.608 318.018 133.608ZM323.767 133.608C323.415 133.608 323.051 133.568 322.675 133.488C322.307 133.408 321.967 133.272 321.655 133.08C321.551 133.008 321.479 132.928 321.439 132.84C321.399 132.752 321.383 132.664 321.391 132.576C321.407 132.48 321.443 132.4 321.499 132.336C321.563 132.264 321.639 132.22 321.727 132.204C321.823 132.188 321.923 132.208 322.027 132.264C322.339 132.44 322.639 132.564 322.927 132.636C323.215 132.7 323.499 132.732 323.779 132.732C324.203 132.732 324.523 132.656 324.739 132.504C324.955 132.352 325.063 132.148 325.063 131.892C325.063 131.684 324.991 131.524 324.847 131.412C324.703 131.292 324.487 131.2 324.199 131.136L323.059 130.908C322.563 130.804 322.187 130.62 321.931 130.356C321.675 130.092 321.547 129.756 321.547 129.348C321.547 128.98 321.647 128.66 321.847 128.388C322.047 128.116 322.327 127.908 322.687 127.764C323.047 127.612 323.463 127.536 323.935 127.536C324.287 127.536 324.619 127.58 324.931 127.668C325.243 127.756 325.531 127.888 325.795 128.064C325.899 128.12 325.967 128.196 325.999 128.292C326.031 128.38 326.035 128.468 326.011 128.556C325.995 128.644 325.955 128.724 325.891 128.796C325.827 128.86 325.747 128.9 325.651 128.916C325.563 128.924 325.463 128.9 325.351 128.844C325.111 128.692 324.871 128.584 324.631 128.52C324.399 128.456 324.167 128.424 323.935 128.424C323.511 128.424 323.191 128.504 322.975 128.664C322.767 128.816 322.663 129.024 322.663 129.288C322.663 129.488 322.727 129.652 322.855 129.78C322.983 129.908 323.183 130 323.455 130.056L324.595 130.284C325.115 130.388 325.507 130.564 325.771 130.812C326.043 131.06 326.179 131.396 326.179 131.82C326.179 132.372 325.959 132.808 325.519 133.128C325.079 133.448 324.495 133.608 323.767 133.608ZM328.057 133.548C327.825 133.548 327.637 133.476 327.493 133.332C327.349 133.188 327.277 133.004 327.277 132.78C327.277 132.556 327.349 132.376 327.493 132.24C327.637 132.096 327.825 132.024 328.057 132.024C328.289 132.024 328.473 132.096 328.609 132.24C328.745 132.376 328.813 132.556 328.813 132.78C328.813 133.004 328.745 133.188 328.609 133.332C328.473 133.476 328.289 133.548 328.057 133.548ZM77.608 149.584C77.408 149.584 77.252 149.528 77.14 149.416C77.036 149.304 76.984 149.148 76.984 148.948V141.676C76.984 141.468 77.04 141.312 77.152 141.208C77.264 141.096 77.42 141.04 77.62 141.04H80.488C81.4 141.04 82.104 141.268 82.6 141.724C83.096 142.172 83.344 142.804 83.344 143.62C83.344 144.444 83.096 145.084 82.6 145.54C82.104 145.988 81.4 146.212 80.488 146.212H78.232V148.948C78.232 149.148 78.18 149.304 78.076 149.416C77.972 149.528 77.816 149.584 77.608 149.584ZM78.232 145.216H80.308C80.908 145.216 81.36 145.084 81.664 144.82C81.976 144.548 82.132 144.148 82.132 143.62C82.132 143.1 81.976 142.708 81.664 142.444C81.36 142.172 80.908 142.036 80.308 142.036H78.232V145.216ZM86.4352 149.608C85.8112 149.608 85.3392 149.428 85.0192 149.068C84.7072 148.7 84.5512 148.172 84.5512 147.484V141.568C84.5512 141.368 84.6032 141.216 84.7072 141.112C84.8112 141.008 84.9592 140.956 85.1512 140.956C85.3432 140.956 85.4912 141.008 85.5952 141.112C85.7072 141.216 85.7632 141.368 85.7632 141.568V147.412C85.7632 147.812 85.8432 148.112 86.0032 148.312C86.1712 148.504 86.4112 148.6 86.7232 148.6C86.7952 148.6 86.8592 148.6 86.9152 148.6C86.9712 148.592 87.0272 148.584 87.0832 148.576C87.1792 148.568 87.2472 148.596 87.2872 148.66C87.3272 148.716 87.3472 148.836 87.3472 149.02C87.3472 149.188 87.3112 149.32 87.2392 149.416C87.1672 149.504 87.0512 149.56 86.8912 149.584C86.8192 149.592 86.7432 149.596 86.6632 149.596C86.5832 149.604 86.5072 149.608 86.4352 149.608ZM90.9086 149.608C90.2686 149.608 89.7166 149.488 89.2526 149.248C88.7966 149 88.4406 148.652 88.1846 148.204C87.9366 147.748 87.8126 147.208 87.8126 146.584C87.8126 145.976 87.9366 145.444 88.1846 144.988C88.4326 144.532 88.7726 144.176 89.2046 143.92C89.6366 143.664 90.1286 143.536 90.6806 143.536C91.0886 143.536 91.4526 143.604 91.7726 143.74C92.0926 143.868 92.3646 144.06 92.5886 144.316C92.8206 144.564 92.9926 144.868 93.1046 145.228C93.2246 145.588 93.2846 145.992 93.2846 146.44C93.2846 146.576 93.2446 146.68 93.1646 146.752C93.0846 146.816 92.9646 146.848 92.8046 146.848H88.7726V146.104H92.4686L92.2646 146.272C92.2646 145.872 92.2046 145.532 92.0846 145.252C91.9726 144.972 91.8006 144.76 91.5686 144.616C91.3446 144.464 91.0646 144.388 90.7286 144.388C90.3526 144.388 90.0326 144.476 89.7686 144.652C89.5126 144.828 89.3166 145.072 89.1806 145.384C89.0446 145.696 88.9766 146.06 88.9766 146.476V146.548C88.9766 147.252 89.1406 147.784 89.4686 148.144C89.8046 148.496 90.2886 148.672 90.9206 148.672C91.1606 148.672 91.4126 148.64 91.6766 148.576C91.9486 148.512 92.2046 148.404 92.4446 148.252C92.5806 148.172 92.7006 148.136 92.8046 148.144C92.9166 148.152 93.0046 148.188 93.0686 148.252C93.1406 148.316 93.1846 148.396 93.2006 148.492C93.2166 148.588 93.2006 148.688 93.1526 148.792C93.1046 148.888 93.0206 148.976 92.9006 149.056C92.6286 149.24 92.3126 149.38 91.9526 149.476C91.5926 149.564 91.2446 149.608 90.9086 149.608ZM96.4779 149.608C96.0699 149.608 95.7019 149.528 95.3739 149.368C95.0539 149.208 94.8019 148.992 94.6179 148.72C94.4339 148.448 94.3419 148.14 94.3419 147.796C94.3419 147.364 94.4499 147.024 94.6659 146.776C94.8899 146.52 95.2539 146.34 95.7579 146.236C96.2699 146.124 96.9579 146.068 97.8219 146.068H98.3859V146.812H97.8339C97.2579 146.812 96.8019 146.84 96.4659 146.896C96.1299 146.952 95.8899 147.048 95.7459 147.184C95.6099 147.312 95.5419 147.492 95.5419 147.724C95.5419 148.028 95.6459 148.276 95.8539 148.468C96.0619 148.652 96.3499 148.744 96.7179 148.744C97.0139 148.744 97.2739 148.676 97.4979 148.54C97.7219 148.396 97.8979 148.204 98.0259 147.964C98.1619 147.724 98.2299 147.448 98.2299 147.136V145.756C98.2299 145.3 98.1339 144.972 97.9419 144.772C97.7499 144.572 97.4339 144.472 96.9939 144.472C96.7379 144.472 96.4699 144.504 96.1899 144.568C95.9179 144.632 95.6339 144.74 95.3379 144.892C95.2019 144.956 95.0859 144.976 94.9899 144.952C94.8939 144.928 94.8179 144.876 94.7619 144.796C94.7059 144.708 94.6739 144.616 94.6659 144.52C94.6659 144.416 94.6899 144.316 94.7379 144.22C94.7939 144.124 94.8859 144.052 95.0139 144.004C95.3659 143.836 95.7139 143.716 96.0579 143.644C96.4019 143.572 96.7259 143.536 97.0299 143.536C97.5659 143.536 98.0059 143.62 98.3499 143.788C98.7019 143.956 98.9619 144.212 99.1299 144.556C99.2979 144.9 99.3819 145.344 99.3819 145.888V148.972C99.3819 149.164 99.3339 149.316 99.2379 149.428C99.1419 149.532 99.0019 149.584 98.8179 149.584C98.6419 149.584 98.5019 149.532 98.3979 149.428C98.2939 149.316 98.2419 149.164 98.2419 148.972V148.192H98.3499C98.2859 148.488 98.1659 148.744 97.9899 148.96C97.8219 149.168 97.6099 149.328 97.3539 149.44C97.0979 149.552 96.8059 149.608 96.4779 149.608ZM103.103 149.608C102.751 149.608 102.387 149.568 102.011 149.488C101.643 149.408 101.303 149.272 100.991 149.08C100.887 149.008 100.815 148.928 100.775 148.84C100.735 148.752 100.719 148.664 100.727 148.576C100.743 148.48 100.779 148.4 100.835 148.336C100.899 148.264 100.975 148.22 101.063 148.204C101.159 148.188 101.259 148.208 101.363 148.264C101.675 148.44 101.975 148.564 102.263 148.636C102.551 148.7 102.835 148.732 103.115 148.732C103.539 148.732 103.859 148.656 104.075 148.504C104.291 148.352 104.399 148.148 104.399 147.892C104.399 147.684 104.327 147.524 104.183 147.412C104.039 147.292 103.823 147.2 103.535 147.136L102.395 146.908C101.899 146.804 101.523 146.62 101.267 146.356C101.011 146.092 100.883 145.756 100.883 145.348C100.883 144.98 100.983 144.66 101.183 144.388C101.383 144.116 101.663 143.908 102.023 143.764C102.383 143.612 102.799 143.536 103.271 143.536C103.623 143.536 103.955 143.58 104.267 143.668C104.579 143.756 104.867 143.888 105.131 144.064C105.235 144.12 105.303 144.196 105.335 144.292C105.367 144.38 105.371 144.468 105.347 144.556C105.331 144.644 105.291 144.724 105.227 144.796C105.163 144.86 105.083 144.9 104.987 144.916C104.899 144.924 104.799 144.9 104.687 144.844C104.447 144.692 104.207 144.584 103.967 144.52C103.735 144.456 103.503 144.424 103.271 144.424C102.847 144.424 102.527 144.504 102.311 144.664C102.103 144.816 101.999 145.024 101.999 145.288C101.999 145.488 102.063 145.652 102.191 145.78C102.319 145.908 102.519 146 102.791 146.056L103.931 146.284C104.451 146.388 104.843 146.564 105.107 146.812C105.379 147.06 105.515 147.396 105.515 147.82C105.515 148.372 105.295 148.808 104.855 149.128C104.415 149.448 103.831 149.608 103.103 149.608ZM109.612 149.608C108.972 149.608 108.42 149.488 107.956 149.248C107.5 149 107.144 148.652 106.888 148.204C106.64 147.748 106.516 147.208 106.516 146.584C106.516 145.976 106.64 145.444 106.888 144.988C107.136 144.532 107.476 144.176 107.908 143.92C108.34 143.664 108.832 143.536 109.384 143.536C109.792 143.536 110.156 143.604 110.476 143.74C110.796 143.868 111.068 144.06 111.292 144.316C111.524 144.564 111.696 144.868 111.808 145.228C111.928 145.588 111.988 145.992 111.988 146.44C111.988 146.576 111.948 146.68 111.868 146.752C111.788 146.816 111.668 146.848 111.508 146.848H107.476V146.104H111.172L110.968 146.272C110.968 145.872 110.908 145.532 110.788 145.252C110.676 144.972 110.504 144.76 110.272 144.616C110.048 144.464 109.768 144.388 109.432 144.388C109.056 144.388 108.736 144.476 108.472 144.652C108.216 144.828 108.02 145.072 107.884 145.384C107.748 145.696 107.68 146.06 107.68 146.476V146.548C107.68 147.252 107.844 147.784 108.172 148.144C108.508 148.496 108.992 148.672 109.624 148.672C109.864 148.672 110.116 148.64 110.38 148.576C110.652 148.512 110.908 148.404 111.148 148.252C111.284 148.172 111.404 148.136 111.508 148.144C111.62 148.152 111.708 148.188 111.772 148.252C111.844 148.316 111.888 148.396 111.904 148.492C111.92 148.588 111.904 148.688 111.856 148.792C111.808 148.888 111.724 148.976 111.604 149.056C111.332 149.24 111.016 149.38 110.656 149.476C110.296 149.564 109.948 149.608 109.612 149.608ZM118.525 149.608C118.173 149.608 117.809 149.568 117.433 149.488C117.065 149.408 116.725 149.272 116.413 149.08C116.309 149.008 116.237 148.928 116.197 148.84C116.157 148.752 116.141 148.664 116.149 148.576C116.165 148.48 116.201 148.4 116.257 148.336C116.321 148.264 116.397 148.22 116.485 148.204C116.581 148.188 116.681 148.208 116.785 148.264C117.097 148.44 117.397 148.564 117.685 148.636C117.973 148.7 118.257 148.732 118.537 148.732C118.961 148.732 119.281 148.656 119.497 148.504C119.713 148.352 119.821 148.148 119.821 147.892C119.821 147.684 119.749 147.524 119.605 147.412C119.461 147.292 119.245 147.2 118.957 147.136L117.817 146.908C117.321 146.804 116.945 146.62 116.689 146.356C116.433 146.092 116.305 145.756 116.305 145.348C116.305 144.98 116.405 144.66 116.605 144.388C116.805 144.116 117.085 143.908 117.445 143.764C117.805 143.612 118.221 143.536 118.693 143.536C119.045 143.536 119.377 143.58 119.689 143.668C120.001 143.756 120.289 143.888 120.553 144.064C120.657 144.12 120.725 144.196 120.757 144.292C120.789 144.38 120.793 144.468 120.769 144.556C120.753 144.644 120.713 144.724 120.649 144.796C120.585 144.86 120.505 144.9 120.409 144.916C120.321 144.924 120.221 144.9 120.109 144.844C119.869 144.692 119.629 144.584 119.389 144.52C119.157 144.456 118.925 144.424 118.693 144.424C118.269 144.424 117.949 144.504 117.733 144.664C117.525 144.816 117.421 145.024 117.421 145.288C117.421 145.488 117.485 145.652 117.613 145.78C117.741 145.908 117.941 146 118.213 146.056L119.353 146.284C119.873 146.388 120.265 146.564 120.529 146.812C120.801 147.06 120.937 147.396 120.937 147.82C120.937 148.372 120.717 148.808 120.277 149.128C119.837 149.448 119.253 149.608 118.525 149.608ZM124.158 149.608C123.75 149.608 123.382 149.528 123.054 149.368C122.734 149.208 122.482 148.992 122.298 148.72C122.114 148.448 122.022 148.14 122.022 147.796C122.022 147.364 122.13 147.024 122.346 146.776C122.57 146.52 122.934 146.34 123.438 146.236C123.95 146.124 124.638 146.068 125.502 146.068H126.066V146.812H125.514C124.938 146.812 124.482 146.84 124.146 146.896C123.81 146.952 123.57 147.048 123.426 147.184C123.29 147.312 123.222 147.492 123.222 147.724C123.222 148.028 123.326 148.276 123.534 148.468C123.742 148.652 124.03 148.744 124.398 148.744C124.694 148.744 124.954 148.676 125.178 148.54C125.402 148.396 125.578 148.204 125.706 147.964C125.842 147.724 125.91 147.448 125.91 147.136V145.756C125.91 145.3 125.814 144.972 125.622 144.772C125.43 144.572 125.114 144.472 124.674 144.472C124.418 144.472 124.15 144.504 123.87 144.568C123.598 144.632 123.314 144.74 123.018 144.892C122.882 144.956 122.766 144.976 122.67 144.952C122.574 144.928 122.498 144.876 122.442 144.796C122.386 144.708 122.354 144.616 122.346 144.52C122.346 144.416 122.37 144.316 122.418 144.22C122.474 144.124 122.566 144.052 122.694 144.004C123.046 143.836 123.394 143.716 123.738 143.644C124.082 143.572 124.406 143.536 124.71 143.536C125.246 143.536 125.686 143.62 126.03 143.788C126.382 143.956 126.642 144.212 126.81 144.556C126.978 144.9 127.062 145.344 127.062 145.888V148.972C127.062 149.164 127.014 149.316 126.918 149.428C126.822 149.532 126.682 149.584 126.498 149.584C126.322 149.584 126.182 149.532 126.078 149.428C125.974 149.316 125.922 149.164 125.922 148.972V148.192H126.03C125.966 148.488 125.846 148.744 125.67 148.96C125.502 149.168 125.29 149.328 125.034 149.44C124.778 149.552 124.486 149.608 124.158 149.608ZM130.94 149.584C130.772 149.584 130.624 149.54 130.496 149.452C130.376 149.364 130.276 149.228 130.196 149.044L128.192 144.388C128.128 144.244 128.104 144.108 128.12 143.98C128.136 143.852 128.196 143.752 128.3 143.68C128.404 143.6 128.544 143.56 128.72 143.56C128.872 143.56 128.992 143.596 129.08 143.668C129.168 143.74 129.248 143.864 129.32 144.04L131.132 148.504H130.796L132.644 144.04C132.716 143.864 132.796 143.74 132.884 143.668C132.98 143.596 133.112 143.56 133.28 143.56C133.424 143.56 133.536 143.6 133.616 143.68C133.704 143.752 133.756 143.852 133.772 143.98C133.796 144.1 133.776 144.232 133.712 144.376L131.684 149.044C131.612 149.228 131.512 149.364 131.384 149.452C131.256 149.54 131.108 149.584 130.94 149.584ZM137.549 149.608C136.909 149.608 136.357 149.488 135.893 149.248C135.437 149 135.081 148.652 134.825 148.204C134.577 147.748 134.453 147.208 134.453 146.584C134.453 145.976 134.577 145.444 134.825 144.988C135.073 144.532 135.413 144.176 135.845 143.92C136.277 143.664 136.769 143.536 137.321 143.536C137.729 143.536 138.093 143.604 138.413 143.74C138.733 143.868 139.005 144.06 139.229 144.316C139.461 144.564 139.633 144.868 139.745 145.228C139.865 145.588 139.925 145.992 139.925 146.44C139.925 146.576 139.885 146.68 139.805 146.752C139.725 146.816 139.605 146.848 139.445 146.848H135.413V146.104H139.109L138.905 146.272C138.905 145.872 138.845 145.532 138.725 145.252C138.613 144.972 138.441 144.76 138.209 144.616C137.985 144.464 137.705 144.388 137.369 144.388C136.993 144.388 136.673 144.476 136.409 144.652C136.153 144.828 135.957 145.072 135.821 145.384C135.685 145.696 135.617 146.06 135.617 146.476V146.548C135.617 147.252 135.781 147.784 136.109 148.144C136.445 148.496 136.929 148.672 137.561 148.672C137.801 148.672 138.053 148.64 138.317 148.576C138.589 148.512 138.845 148.404 139.085 148.252C139.221 148.172 139.341 148.136 139.445 148.144C139.557 148.152 139.645 148.188 139.709 148.252C139.781 148.316 139.825 148.396 139.841 148.492C139.857 148.588 139.841 148.688 139.793 148.792C139.745 148.888 139.661 148.976 139.541 149.056C139.269 149.24 138.953 149.38 138.593 149.476C138.233 149.564 137.885 149.608 137.549 149.608ZM146.907 149.608C146.427 149.608 146.023 149.524 145.695 149.356C145.367 149.188 145.123 148.94 144.963 148.612C144.803 148.284 144.723 147.884 144.723 147.412V144.58H144.003C143.843 144.58 143.719 144.54 143.631 144.46C143.543 144.372 143.499 144.256 143.499 144.112C143.499 143.96 143.543 143.844 143.631 143.764C143.719 143.684 143.843 143.644 144.003 143.644H144.723V142.408C144.723 142.208 144.775 142.056 144.879 141.952C144.991 141.848 145.143 141.796 145.335 141.796C145.527 141.796 145.675 141.848 145.779 141.952C145.883 142.056 145.935 142.208 145.935 142.408V143.644H147.339C147.499 143.644 147.623 143.684 147.711 143.764C147.799 143.844 147.843 143.96 147.843 144.112C147.843 144.256 147.799 144.372 147.711 144.46C147.623 144.54 147.499 144.58 147.339 144.58H145.935V147.316C145.935 147.74 146.023 148.06 146.199 148.276C146.383 148.492 146.679 148.6 147.087 148.6C147.231 148.6 147.355 148.588 147.459 148.564C147.571 148.532 147.663 148.512 147.735 148.504C147.823 148.504 147.895 148.536 147.951 148.6C148.007 148.656 148.035 148.768 148.035 148.936C148.035 149.056 148.011 149.168 147.963 149.272C147.923 149.376 147.847 149.444 147.735 149.476C147.639 149.508 147.507 149.536 147.339 149.56C147.179 149.592 147.035 149.608 146.907 149.608ZM149.499 149.584C149.307 149.584 149.159 149.532 149.055 149.428C148.951 149.316 148.899 149.164 148.899 148.972V141.568C148.899 141.368 148.951 141.216 149.055 141.112C149.159 141.008 149.307 140.956 149.499 140.956C149.691 140.956 149.839 141.008 149.943 141.112C150.055 141.216 150.111 141.368 150.111 141.568V144.892H149.943C150.119 144.444 150.395 144.108 150.771 143.884C151.147 143.652 151.579 143.536 152.067 143.536C152.531 143.536 152.915 143.624 153.219 143.8C153.531 143.968 153.763 144.228 153.915 144.58C154.067 144.924 154.143 145.36 154.143 145.888V148.972C154.143 149.164 154.091 149.316 153.987 149.428C153.883 149.532 153.735 149.584 153.543 149.584C153.343 149.584 153.191 149.532 153.087 149.428C152.983 149.316 152.931 149.164 152.931 148.972V145.96C152.931 145.456 152.831 145.088 152.631 144.856C152.439 144.624 152.135 144.508 151.719 144.508C151.231 144.508 150.839 144.66 150.543 144.964C150.255 145.268 150.111 145.676 150.111 146.188V148.972C150.111 149.38 149.907 149.584 149.499 149.584ZM158.561 149.608C157.921 149.608 157.369 149.488 156.905 149.248C156.449 149 156.093 148.652 155.837 148.204C155.589 147.748 155.465 147.208 155.465 146.584C155.465 145.976 155.589 145.444 155.837 144.988C156.085 144.532 156.425 144.176 156.857 143.92C157.289 143.664 157.781 143.536 158.333 143.536C158.741 143.536 159.105 143.604 159.425 143.74C159.745 143.868 160.017 144.06 160.241 144.316C160.473 144.564 160.645 144.868 160.757 145.228C160.877 145.588 160.937 145.992 160.937 146.44C160.937 146.576 160.897 146.68 160.817 146.752C160.737 146.816 160.617 146.848 160.457 146.848H156.425V146.104H160.121L159.917 146.272C159.917 145.872 159.857 145.532 159.737 145.252C159.625 144.972 159.453 144.76 159.221 144.616C158.997 144.464 158.717 144.388 158.381 144.388C158.005 144.388 157.685 144.476 157.421 144.652C157.165 144.828 156.969 145.072 156.833 145.384C156.697 145.696 156.629 146.06 156.629 146.476V146.548C156.629 147.252 156.793 147.784 157.121 148.144C157.457 148.496 157.941 148.672 158.573 148.672C158.813 148.672 159.065 148.64 159.329 148.576C159.601 148.512 159.857 148.404 160.097 148.252C160.233 148.172 160.353 148.136 160.457 148.144C160.569 148.152 160.657 148.188 160.721 148.252C160.793 148.316 160.837 148.396 160.853 148.492C160.869 148.588 160.853 148.688 160.805 148.792C160.757 148.888 160.673 148.976 160.553 149.056C160.281 149.24 159.965 149.38 159.605 149.476C159.245 149.564 158.897 149.608 158.561 149.608ZM162.882 149.584C162.69 149.584 162.542 149.532 162.438 149.428C162.334 149.316 162.282 149.164 162.282 148.972V144.172C162.282 143.972 162.334 143.82 162.438 143.716C162.542 143.612 162.686 143.56 162.87 143.56C163.062 143.56 163.206 143.612 163.302 143.716C163.406 143.82 163.458 143.972 163.458 144.172V145.156L163.326 144.892C163.486 144.468 163.734 144.136 164.07 143.896C164.406 143.656 164.81 143.536 165.282 143.536C165.77 143.536 166.166 143.652 166.47 143.884C166.774 144.116 166.982 144.472 167.094 144.952H166.926C167.078 144.512 167.338 144.168 167.706 143.92C168.074 143.664 168.502 143.536 168.99 143.536C169.438 143.536 169.806 143.624 170.094 143.8C170.382 143.968 170.598 144.228 170.742 144.58C170.886 144.924 170.958 145.36 170.958 145.888V148.972C170.958 149.164 170.902 149.316 170.79 149.428C170.686 149.532 170.538 149.584 170.346 149.584C170.154 149.584 170.006 149.532 169.902 149.428C169.798 149.316 169.746 149.164 169.746 148.972V145.948C169.746 145.452 169.658 145.088 169.482 144.856C169.314 144.624 169.034 144.508 168.642 144.508C168.202 144.508 167.854 144.66 167.598 144.964C167.342 145.268 167.214 145.688 167.214 146.224V148.972C167.214 149.164 167.162 149.316 167.058 149.428C166.954 149.532 166.806 149.584 166.614 149.584C166.422 149.584 166.27 149.532 166.158 149.428C166.054 149.316 166.002 149.164 166.002 148.972V145.948C166.002 145.452 165.918 145.088 165.75 144.856C165.582 144.624 165.302 144.508 164.91 144.508C164.47 144.508 164.122 144.66 163.866 144.964C163.618 145.268 163.494 145.688 163.494 146.224V148.972C163.494 149.38 163.29 149.584 162.882 149.584ZM178.961 149.608C178.449 149.608 178.005 149.48 177.629 149.224C177.253 148.96 177.001 148.612 176.873 148.18L177.005 147.964V148.972C177.005 149.164 176.953 149.316 176.849 149.428C176.745 149.532 176.601 149.584 176.417 149.584C176.225 149.584 176.077 149.532 175.973 149.428C175.869 149.316 175.817 149.164 175.817 148.972V141.568C175.817 141.368 175.869 141.216 175.973 141.112C176.077 141.008 176.225 140.956 176.417 140.956C176.609 140.956 176.757 141.008 176.861 141.112C176.973 141.216 177.029 141.368 177.029 141.568V144.928H176.885C177.013 144.504 177.265 144.168 177.641 143.92C178.017 143.664 178.457 143.536 178.961 143.536C179.489 143.536 179.945 143.66 180.329 143.908C180.713 144.156 181.009 144.504 181.217 144.952C181.433 145.4 181.541 145.94 181.541 146.572C181.541 147.188 181.433 147.728 181.217 148.192C181.009 148.648 180.709 149 180.317 149.248C179.933 149.488 179.481 149.608 178.961 149.608ZM178.661 148.672C178.997 148.672 179.289 148.592 179.537 148.432C179.785 148.272 179.977 148.036 180.113 147.724C180.249 147.412 180.317 147.028 180.317 146.572C180.317 145.884 180.165 145.364 179.861 145.012C179.565 144.66 179.165 144.484 178.661 144.484C178.333 144.484 178.041 144.564 177.785 144.724C177.537 144.876 177.345 145.108 177.209 145.42C177.073 145.732 177.005 146.116 177.005 146.572C177.005 147.252 177.157 147.772 177.461 148.132C177.765 148.492 178.165 148.672 178.661 148.672ZM185.655 149.608C185.015 149.608 184.463 149.488 183.999 149.248C183.543 149 183.187 148.652 182.931 148.204C182.683 147.748 182.559 147.208 182.559 146.584C182.559 145.976 182.683 145.444 182.931 144.988C183.179 144.532 183.519 144.176 183.951 143.92C184.383 143.664 184.875 143.536 185.427 143.536C185.835 143.536 186.199 143.604 186.519 143.74C186.839 143.868 187.111 144.06 187.335 144.316C187.567 144.564 187.739 144.868 187.851 145.228C187.971 145.588 188.031 145.992 188.031 146.44C188.031 146.576 187.991 146.68 187.911 146.752C187.831 146.816 187.711 146.848 187.551 146.848H183.519V146.104H187.215L187.011 146.272C187.011 145.872 186.951 145.532 186.831 145.252C186.719 144.972 186.547 144.76 186.315 144.616C186.091 144.464 185.811 144.388 185.475 144.388C185.099 144.388 184.779 144.476 184.515 144.652C184.259 144.828 184.063 145.072 183.927 145.384C183.791 145.696 183.723 146.06 183.723 146.476V146.548C183.723 147.252 183.887 147.784 184.215 148.144C184.551 148.496 185.035 148.672 185.667 148.672C185.907 148.672 186.159 148.64 186.423 148.576C186.695 148.512 186.951 148.404 187.191 148.252C187.327 148.172 187.447 148.136 187.551 148.144C187.663 148.152 187.751 148.188 187.815 148.252C187.887 148.316 187.931 148.396 187.947 148.492C187.963 148.588 187.947 148.688 187.899 148.792C187.851 148.888 187.767 148.976 187.647 149.056C187.375 149.24 187.059 149.38 186.699 149.476C186.339 149.564 185.991 149.608 185.655 149.608ZM190.3 149.584C190.108 149.584 189.956 149.532 189.844 149.428C189.74 149.316 189.688 149.164 189.688 148.972V144.58H189.016C188.864 144.58 188.744 144.54 188.656 144.46C188.568 144.372 188.524 144.256 188.524 144.112C188.524 143.96 188.568 143.844 188.656 143.764C188.744 143.684 188.864 143.644 189.016 143.644H190.036L189.688 143.968V143.536C189.688 142.744 189.884 142.148 190.276 141.748C190.668 141.34 191.24 141.1 191.992 141.028L192.364 141.004C192.5 140.988 192.608 141.008 192.688 141.064C192.768 141.12 192.82 141.192 192.844 141.28C192.868 141.368 192.868 141.46 192.844 141.556C192.828 141.644 192.788 141.724 192.724 141.796C192.66 141.868 192.58 141.908 192.484 141.916L192.256 141.928C191.784 141.968 191.44 142.104 191.224 142.336C191.008 142.56 190.9 142.904 190.9 143.368V143.836L190.732 143.644H192.064C192.232 143.644 192.356 143.684 192.436 143.764C192.524 143.844 192.568 143.96 192.568 144.112C192.568 144.256 192.524 144.372 192.436 144.46C192.356 144.54 192.232 144.58 192.064 144.58H190.9V148.972C190.9 149.38 190.7 149.584 190.3 149.584ZM195.88 149.608C195.288 149.608 194.776 149.484 194.344 149.236C193.92 148.988 193.588 148.636 193.348 148.18C193.108 147.724 192.988 147.188 192.988 146.572C192.988 146.1 193.056 145.68 193.192 145.312C193.328 144.944 193.52 144.628 193.768 144.364C194.024 144.092 194.328 143.888 194.68 143.752C195.04 143.608 195.44 143.536 195.88 143.536C196.464 143.536 196.968 143.66 197.392 143.908C197.824 144.156 198.16 144.508 198.4 144.964C198.64 145.412 198.76 145.948 198.76 146.572C198.76 147.036 198.692 147.456 198.556 147.832C198.42 148.208 198.224 148.528 197.968 148.792C197.72 149.056 197.416 149.26 197.056 149.404C196.704 149.54 196.312 149.608 195.88 149.608ZM195.88 148.672C196.208 148.672 196.496 148.592 196.744 148.432C196.992 148.272 197.184 148.036 197.32 147.724C197.464 147.412 197.536 147.028 197.536 146.572C197.536 145.884 197.384 145.364 197.08 145.012C196.776 144.66 196.376 144.484 195.88 144.484C195.544 144.484 195.252 144.564 195.004 144.724C194.756 144.876 194.56 145.108 194.416 145.42C194.28 145.732 194.212 146.116 194.212 146.572C194.212 147.252 194.364 147.772 194.668 148.132C194.972 148.492 195.376 148.672 195.88 148.672ZM200.734 149.584C200.534 149.584 200.382 149.532 200.278 149.428C200.174 149.316 200.122 149.164 200.122 148.972V144.172C200.122 143.972 200.174 143.82 200.278 143.716C200.382 143.612 200.526 143.56 200.71 143.56C200.902 143.56 201.046 143.612 201.142 143.716C201.246 143.82 201.298 143.972 201.298 144.172V145.048H201.178C201.306 144.568 201.542 144.204 201.886 143.956C202.23 143.708 202.67 143.564 203.206 143.524C203.35 143.516 203.462 143.552 203.542 143.632C203.63 143.712 203.678 143.836 203.686 144.004C203.702 144.172 203.666 144.308 203.578 144.412C203.49 144.508 203.354 144.564 203.17 144.58L202.942 144.604C202.422 144.652 202.026 144.816 201.754 145.096C201.482 145.376 201.346 145.76 201.346 146.248V148.972C201.346 149.164 201.294 149.316 201.19 149.428C201.094 149.532 200.942 149.584 200.734 149.584ZM207.264 149.608C206.624 149.608 206.072 149.488 205.608 149.248C205.152 149 204.796 148.652 204.54 148.204C204.292 147.748 204.168 147.208 204.168 146.584C204.168 145.976 204.292 145.444 204.54 144.988C204.788 144.532 205.128 144.176 205.56 143.92C205.992 143.664 206.484 143.536 207.036 143.536C207.444 143.536 207.808 143.604 208.128 143.74C208.448 143.868 208.72 144.06 208.944 144.316C209.176 144.564 209.348 144.868 209.46 145.228C209.58 145.588 209.64 145.992 209.64 146.44C209.64 146.576 209.6 146.68 209.52 146.752C209.44 146.816 209.32 146.848 209.16 146.848H205.128V146.104H208.824L208.62 146.272C208.62 145.872 208.56 145.532 208.44 145.252C208.328 144.972 208.156 144.76 207.924 144.616C207.7 144.464 207.42 144.388 207.084 144.388C206.708 144.388 206.388 144.476 206.124 144.652C205.868 144.828 205.672 145.072 205.536 145.384C205.4 145.696 205.332 146.06 205.332 146.476V146.548C205.332 147.252 205.496 147.784 205.824 148.144C206.16 148.496 206.644 148.672 207.276 148.672C207.516 148.672 207.768 148.64 208.032 148.576C208.304 148.512 208.56 148.404 208.8 148.252C208.936 148.172 209.056 148.136 209.16 148.144C209.272 148.152 209.36 148.188 209.424 148.252C209.496 148.316 209.54 148.396 209.556 148.492C209.572 148.588 209.556 148.688 209.508 148.792C209.46 148.888 209.376 148.976 209.256 149.056C208.984 149.24 208.668 149.38 208.308 149.476C207.948 149.564 207.6 149.608 207.264 149.608ZM216.873 149.608C216.233 149.608 215.681 149.488 215.217 149.248C214.761 149 214.405 148.652 214.149 148.204C213.901 147.748 213.777 147.208 213.777 146.584C213.777 145.976 213.901 145.444 214.149 144.988C214.397 144.532 214.737 144.176 215.169 143.92C215.601 143.664 216.093 143.536 216.645 143.536C217.053 143.536 217.417 143.604 217.737 143.74C218.057 143.868 218.329 144.06 218.553 144.316C218.785 144.564 218.957 144.868 219.069 145.228C219.189 145.588 219.249 145.992 219.249 146.44C219.249 146.576 219.209 146.68 219.129 146.752C219.049 146.816 218.929 146.848 218.769 146.848H214.737V146.104H218.433L218.229 146.272C218.229 145.872 218.169 145.532 218.049 145.252C217.937 144.972 217.765 144.76 217.533 144.616C217.309 144.464 217.029 144.388 216.693 144.388C216.317 144.388 215.997 144.476 215.733 144.652C215.477 144.828 215.281 145.072 215.145 145.384C215.009 145.696 214.941 146.06 214.941 146.476V146.548C214.941 147.252 215.105 147.784 215.433 148.144C215.769 148.496 216.253 148.672 216.885 148.672C217.125 148.672 217.377 148.64 217.641 148.576C217.913 148.512 218.169 148.404 218.409 148.252C218.545 148.172 218.665 148.136 218.769 148.144C218.881 148.152 218.969 148.188 219.033 148.252C219.105 148.316 219.149 148.396 219.165 148.492C219.181 148.588 219.165 148.688 219.117 148.792C219.069 148.888 218.985 148.976 218.865 149.056C218.593 149.24 218.277 149.38 217.917 149.476C217.557 149.564 217.209 149.608 216.873 149.608ZM220.728 149.572C220.584 149.572 220.464 149.532 220.368 149.452C220.28 149.364 220.232 149.256 220.224 149.128C220.224 149 220.28 148.86 220.392 148.708L222.42 146.176V146.776L220.524 144.412C220.396 144.268 220.336 144.132 220.344 144.004C220.352 143.868 220.404 143.76 220.5 143.68C220.596 143.6 220.712 143.56 220.848 143.56C221 143.56 221.124 143.588 221.22 143.644C221.324 143.692 221.42 143.776 221.508 143.896L223.104 145.924H222.672L224.28 143.896C224.368 143.776 224.46 143.692 224.556 143.644C224.66 143.588 224.784 143.56 224.928 143.56C225.072 143.56 225.188 143.604 225.276 143.692C225.372 143.772 225.42 143.88 225.42 144.016C225.428 144.144 225.372 144.28 225.252 144.424L223.356 146.752V146.212L225.384 148.708C225.504 148.852 225.56 148.992 225.552 149.128C225.552 149.256 225.504 149.364 225.408 149.452C225.312 149.532 225.192 149.572 225.048 149.572C224.904 149.572 224.78 149.544 224.676 149.488C224.58 149.432 224.484 149.348 224.388 149.236L222.672 147.076H223.08L221.376 149.236C221.288 149.34 221.192 149.424 221.088 149.488C220.992 149.544 220.872 149.572 220.728 149.572ZM227.534 149.572C227.342 149.572 227.194 149.516 227.09 149.404C226.986 149.284 226.934 149.12 226.934 148.912V144.232C226.934 144.024 226.986 143.864 227.09 143.752C227.194 143.64 227.342 143.584 227.534 143.584C227.726 143.584 227.874 143.64 227.978 143.752C228.09 143.864 228.146 144.024 228.146 144.232V148.912C228.146 149.12 228.094 149.284 227.99 149.404C227.886 149.516 227.734 149.572 227.534 149.572ZM227.534 142.336C227.294 142.336 227.106 142.276 226.97 142.156C226.842 142.036 226.778 141.868 226.778 141.652C226.778 141.428 226.842 141.26 226.97 141.148C227.106 141.028 227.294 140.968 227.534 140.968C227.774 140.968 227.958 141.028 228.086 141.148C228.222 141.26 228.29 141.428 228.29 141.652C228.29 141.868 228.222 142.036 228.086 142.156C227.958 142.276 227.774 142.336 227.534 142.336ZM232.348 149.608C231.868 149.608 231.464 149.524 231.136 149.356C230.808 149.188 230.564 148.94 230.404 148.612C230.244 148.284 230.164 147.884 230.164 147.412V144.58H229.444C229.284 144.58 229.16 144.54 229.072 144.46C228.984 144.372 228.94 144.256 228.94 144.112C228.94 143.96 228.984 143.844 229.072 143.764C229.16 143.684 229.284 143.644 229.444 143.644H230.164V142.408C230.164 142.208 230.216 142.056 230.32 141.952C230.432 141.848 230.584 141.796 230.776 141.796C230.968 141.796 231.116 141.848 231.22 141.952C231.324 142.056 231.376 142.208 231.376 142.408V143.644H232.78C232.94 143.644 233.064 143.684 233.152 143.764C233.24 143.844 233.284 143.96 233.284 144.112C233.284 144.256 233.24 144.372 233.152 144.46C233.064 144.54 232.94 144.58 232.78 144.58H231.376V147.316C231.376 147.74 231.464 148.06 231.64 148.276C231.824 148.492 232.12 148.6 232.528 148.6C232.672 148.6 232.796 148.588 232.9 148.564C233.012 148.532 233.104 148.512 233.176 148.504C233.264 148.504 233.336 148.536 233.392 148.6C233.448 148.656 233.476 148.768 233.476 148.936C233.476 149.056 233.452 149.168 233.404 149.272C233.364 149.376 233.288 149.444 233.176 149.476C233.08 149.508 232.948 149.536 232.78 149.56C232.62 149.592 232.476 149.608 232.348 149.608ZM234.94 149.572C234.748 149.572 234.6 149.516 234.496 149.404C234.392 149.284 234.34 149.12 234.34 148.912V144.232C234.34 144.024 234.392 143.864 234.496 143.752C234.6 143.64 234.748 143.584 234.94 143.584C235.132 143.584 235.28 143.64 235.384 143.752C235.496 143.864 235.552 144.024 235.552 144.232V148.912C235.552 149.12 235.5 149.284 235.396 149.404C235.292 149.516 235.14 149.572 234.94 149.572ZM234.94 142.336C234.7 142.336 234.512 142.276 234.376 142.156C234.248 142.036 234.184 141.868 234.184 141.652C234.184 141.428 234.248 141.26 234.376 141.148C234.512 141.028 234.7 140.968 234.94 140.968C235.18 140.968 235.364 141.028 235.492 141.148C235.628 141.26 235.696 141.428 235.696 141.652C235.696 141.868 235.628 142.036 235.492 142.156C235.364 142.276 235.18 142.336 234.94 142.336ZM237.858 149.584C237.666 149.584 237.518 149.532 237.414 149.428C237.31 149.316 237.258 149.164 237.258 148.972V144.172C237.258 143.972 237.31 143.82 237.414 143.716C237.518 143.612 237.662 143.56 237.846 143.56C238.038 143.56 238.182 143.612 238.278 143.716C238.382 143.82 238.434 143.972 238.434 144.172V145.108L238.302 144.892C238.478 144.444 238.754 144.108 239.13 143.884C239.506 143.652 239.938 143.536 240.426 143.536C240.89 143.536 241.274 143.624 241.578 143.8C241.89 143.968 242.122 144.228 242.274 144.58C242.426 144.924 242.502 145.36 242.502 145.888V148.972C242.502 149.164 242.45 149.316 242.346 149.428C242.242 149.532 242.094 149.584 241.902 149.584C241.702 149.584 241.55 149.532 241.446 149.428C241.342 149.316 241.29 149.164 241.29 148.972V145.96C241.29 145.456 241.19 145.088 240.99 144.856C240.798 144.624 240.494 144.508 240.078 144.508C239.59 144.508 239.198 144.66 238.902 144.964C238.614 145.268 238.47 145.676 238.47 146.188V148.972C238.47 149.38 238.266 149.584 237.858 149.584ZM246.824 151.768C246.392 151.768 245.972 151.724 245.564 151.636C245.164 151.548 244.8 151.404 244.472 151.204C244.352 151.14 244.272 151.06 244.232 150.964C244.192 150.876 244.18 150.784 244.196 150.688C244.22 150.592 244.264 150.508 244.328 150.436C244.392 150.364 244.468 150.316 244.556 150.292C244.652 150.268 244.752 150.284 244.856 150.34C245.208 150.532 245.54 150.66 245.852 150.724C246.172 150.796 246.468 150.832 246.74 150.832C247.3 150.832 247.72 150.688 248 150.4C248.28 150.12 248.42 149.704 248.42 149.152V147.928H248.528C248.408 148.368 248.156 148.716 247.772 148.972C247.388 149.228 246.944 149.356 246.44 149.356C245.912 149.356 245.452 149.236 245.06 148.996C244.668 148.748 244.364 148.408 244.148 147.976C243.932 147.536 243.824 147.024 243.824 146.44C243.824 146 243.884 145.604 244.004 145.252C244.132 144.9 244.308 144.596 244.532 144.34C244.764 144.084 245.04 143.888 245.36 143.752C245.688 143.608 246.048 143.536 246.44 143.536C246.952 143.536 247.396 143.664 247.772 143.92C248.156 144.176 248.404 144.524 248.516 144.964L248.396 145.168V144.172C248.396 143.972 248.448 143.82 248.552 143.716C248.664 143.612 248.812 143.56 248.996 143.56C249.188 143.56 249.336 143.612 249.44 143.716C249.544 143.82 249.596 143.972 249.596 144.172V149.008C249.596 149.92 249.36 150.608 248.888 151.072C248.416 151.536 247.728 151.768 246.824 151.768ZM246.728 148.408C247.08 148.408 247.38 148.328 247.628 148.168C247.876 148.008 248.068 147.78 248.204 147.484C248.34 147.188 248.408 146.84 248.408 146.44C248.408 145.84 248.256 145.364 247.952 145.012C247.656 144.66 247.248 144.484 246.728 144.484C246.384 144.484 246.088 144.564 245.84 144.724C245.592 144.884 245.396 145.112 245.252 145.408C245.116 145.696 245.048 146.04 245.048 146.44C245.048 147.048 245.2 147.528 245.504 147.88C245.808 148.232 246.216 148.408 246.728 148.408ZM251.885 149.548C251.653 149.548 251.465 149.476 251.321 149.332C251.177 149.188 251.105 149.004 251.105 148.78C251.105 148.556 251.177 148.376 251.321 148.24C251.465 148.096 251.653 148.024 251.885 148.024C252.117 148.024 252.301 148.096 252.437 148.24C252.573 148.376 252.641 148.556 252.641 148.78C252.641 149.004 252.573 149.188 252.437 149.332C252.301 149.476 252.117 149.548 251.885 149.548Z" fill="#64728C"/>
<path d="M254.865 150.712C254.777 150.824 254.681 150.888 254.577 150.904C254.481 150.92 254.397 150.9 254.325 150.844C254.253 150.788 254.213 150.708 254.205 150.604C254.197 150.508 254.241 150.4 254.337 150.28C254.481 150.104 254.577 149.92 254.625 149.728C254.681 149.544 254.709 149.38 254.709 149.236L254.757 149.548C254.517 149.548 254.321 149.48 254.169 149.344C254.025 149.2 253.953 149.012 253.953 148.78C253.953 148.556 254.021 148.376 254.157 148.24C254.293 148.096 254.477 148.024 254.709 148.024C254.949 148.024 255.137 148.108 255.273 148.276C255.417 148.436 255.489 148.668 255.489 148.972C255.489 149.148 255.469 149.332 255.429 149.524C255.397 149.716 255.337 149.912 255.249 150.112C255.161 150.312 255.033 150.512 254.865 150.712Z" fill="white"/>
</g>
<circle opacity="0.2" cx="333" cy="104.5" r="13" stroke="#FFA62F" stroke-width="5"/>
<circle opacity="0.2" cx="1.3" cy="1.3" r="1.3" transform="matrix(1 0 0 -1 331.7 105.8)" fill="#EB0910"/>
<path d="M334.235 91.5588C335.934 91.7209 337.585 92.2162 339.093 93.0163C340.601 93.8165 341.937 94.9059 343.024 96.2222C344.111 97.5386 344.928 99.0561 345.429 100.688C345.929 102.32 346.104 104.035 345.941 105.735" stroke="#FFA62F" stroke-width="5" stroke-linecap="round" stroke-linejoin="round"/>
<path d="M334.857 104.5L337.245 102.112C337.776 101.581 337.776 100.786 337.245 100.255C336.715 99.7243 335.919 99.7243 335.388 100.255L333 102.643L330.613 100.255C330.082 99.7243 329.286 99.7243 328.755 100.255C328.225 100.786 328.225 101.581 328.755 102.112L331.143 104.5L328.755 106.888C328.225 107.418 328.225 108.214 328.755 108.745C329.021 109.01 329.352 109.143 329.684 109.143C330.016 109.143 330.347 109.01 330.613 108.745L333 106.357L335.388 108.745C335.653 109.01 335.985 109.143 336.317 109.143C336.648 109.143 336.98 109.01 337.245 108.745C337.776 108.214 337.776 107.418 337.245 106.888L334.857 104.5Z" fill="#FFA62F"/>
</g>
<rect x="60.5" y="79" width="299" height="93" rx="24.5" stroke="#FFA62F"/>
</g>
<g filter="url(#filter3_d_978_2442)">
<rect x="76.9014" y="56" width="45" height="45" rx="22.5" fill="#FFA62F" shape-rendering="crispEdges"/>
<rect x="76.9014" y="56" width="45" height="45" rx="22.5" fill="url(#paint1_radial_978_2442)" fill-opacity="0.2" shape-rendering="crispEdges"/>
<path d="M108.601 83.0002L102.001 71.2002C101.501 70.2002 100.501 69.7002 99.4012 69.7002C98.3012 69.7002 97.3012 70.2002 96.8012 71.2002L90.2012 83.0002C89.7012 83.9002 89.7012 85.1002 90.2012 86.0002C90.7012 86.9002 91.7012 87.5002 92.8012 87.5002H106.001C107.101 87.5002 108.001 86.9002 108.601 86.0002C109.201 85.1002 109.101 84.0002 108.601 83.0002ZM106.901 85.0002C106.801 85.1002 106.601 85.5002 106.001 85.5002H92.8012C92.3012 85.5002 92.0012 85.2002 91.9012 85.0002C91.8012 84.8002 91.6012 84.5002 91.9012 84.0002L98.5012 72.1002C98.8012 71.6002 99.2012 71.6002 99.4012 71.6002C99.6012 71.6002 100.001 71.6002 100.301 72.1002L106.901 84.0002C107.101 84.5002 106.901 84.9002 106.901 85.0002Z" fill="white"/>
<path d="M99.4014 75.5C98.8014 75.5 98.4014 75.9 98.4014 76.5V79.5C98.4014 80.1 98.8014 80.5 99.4014 80.5C100.001 80.5 100.401 80.1 100.401 79.5V76.5C100.401 75.9 100.001 75.5 99.4014 75.5Z" fill="white"/>
<path d="M99.4014 83.5C99.9537 83.5 100.401 83.0523 100.401 82.5C100.401 81.9477 99.9537 81.5 99.4014 81.5C98.8491 81.5 98.4014 81.9477 98.4014 82.5C98.4014 83.0523 98.8491 83.5 99.4014 83.5Z" fill="white"/>
</g>
</g>
<defs>
<filter id="filter0_d_978_2442" x="0" y="0" width="420" height="236.5" filterUnits="userSpaceOnUse" color-interpolation-filters="sRGB">
<feFlood flood-opacity="0" result="BackgroundImageFix"/>
<feColorMatrix in="SourceAlpha" type="matrix" values="0 0 0 0 0 0 0 0 0 0 0 0 0 0 0 0 0 0 127 0" result="hardAlpha"/>
<feOffset dy="4"/>
<feGaussianBlur stdDeviation="30"/>
<feComposite in2="hardAlpha" operator="out"/>
<feColorMatrix type="matrix" values="0 0 0 0 0 0 0 0 0 0 0 0 0 0 0 0 0 0 0.06 0"/>
<feBlend mode="normal" in2="BackgroundImageFix" result="effect1_dropShadow_978_2442"/>
<feBlend mode="normal" in="SourceGraphic" in2="effect1_dropShadow_978_2442" result="shape"/>
</filter>
<filter id="filter1_d_978_2442" x="56" y="78.5" width="308" height="102" filterUnits="userSpaceOnUse" color-interpolation-filters="sRGB">
<feFlood flood-opacity="0" result="BackgroundImageFix"/>
<feColorMatrix in="SourceAlpha" type="matrix" values="0 0 0 0 0 0 0 0 0 0 0 0 0 0 0 0 0 0 127 0" result="hardAlpha"/>
<feOffset dy="4"/>
<feGaussianBlur stdDeviation="2"/>
<feComposite in2="hardAlpha" operator="out"/>
<feColorMatrix type="matrix" values="0 0 0 0 1 0 0 0 0 0.65098 0 0 0 0 0.184314 0 0 0 0.25 0"/>
<feBlend mode="normal" in2="BackgroundImageFix" result="effect1_dropShadow_978_2442"/>
<feBlend mode="normal" in="SourceGraphic" in2="effect1_dropShadow_978_2442" result="shape"/>
</filter>
<filter id="filter2_d_978_2442" x="30" y="52.5" width="360" height="151" filterUnits="userSpaceOnUse" color-interpolation-filters="sRGB">
<feFlood flood-opacity="0" result="BackgroundImageFix"/>
<feColorMatrix in="SourceAlpha" type="matrix" values="0 0 0 0 0 0 0 0 0 0 0 0 0 0 0 0 0 0 127 0" result="hardAlpha"/>
<feOffset dy="4"/>
<feGaussianBlur stdDeviation="15"/>
<feComposite in2="hardAlpha" operator="out"/>
<feColorMatrix type="matrix" values="0 0 0 0 0 0 0 0 0 0 0 0 0 0 0 0 0 0 0.1 0"/>
<feBlend mode="normal" in2="BackgroundImageFix" result="effect1_dropShadow_978_2442"/>
<feBlend mode="normal" in="SourceGraphic" in2="effect1_dropShadow_978_2442" result="shape"/>
</filter>
<filter id="filter3_d_978_2442" x="72.9014" y="56" width="53" height="53" filterUnits="userSpaceOnUse" color-interpolation-filters="sRGB">
<feFlood flood-opacity="0" result="BackgroundImageFix"/>
<feColorMatrix in="SourceAlpha" type="matrix" values="0 0 0 0 0 0 0 0 0 0 0 0 0 0 0 0 0 0 127 0" result="hardAlpha"/>
<feOffset dy="4"/>
<feGaussianBlur stdDeviation="2"/>
<feComposite in2="hardAlpha" operator="out"/>
<feColorMatrix type="matrix" values="0 0 0 0 0.921569 0 0 0 0 0.0352941 0 0 0 0 0.0627451 0 0 0 0.1 0"/>
<feBlend mode="normal" in2="BackgroundImageFix" result="effect1_dropShadow_978_2442"/>
<feBlend mode="normal" in="SourceGraphic" in2="effect1_dropShadow_978_2442" result="shape"/>
</filter>
<linearGradient id="paint0_linear_978_2442" x1="60" y1="78.5" x2="358.674" y2="163.846" gradientUnits="userSpaceOnUse">
<stop offset="0.468122" stop-color="white" stop-opacity="0"/>
<stop offset="1" stop-color="white"/>
</linearGradient>
<radialGradient id="paint1_radial_978_2442" cx="0" cy="0" r="1" gradientUnits="userSpaceOnUse" gradientTransform="translate(99.4014 78.5) rotate(90) scale(22.5)">
<stop stop-opacity="0"/>
<stop offset="1" stop-color="white"/>
</radialGradient>
<clipPath id="clip0_978_2442">
<rect x="60" y="78.5" width="300" height="94" rx="25" fill="white"/>
</clipPath>
</defs>
</svg>
