<svg width="207" height="207" viewBox="0 0 207 207" fill="none" xmlns="http://www.w3.org/2000/svg">
<g filter="url(#filter0_d_1004_3771)">
<rect x="4" y="71" width="199" height="128" rx="16" fill="#E8EAEF"/>
<rect x="4.5" y="71.5" width="198" height="127" rx="15.5" stroke="#64728C" stroke-opacity="0.2"/>
<rect x="4" y="71" width="199" height="124" rx="16" fill="white"/>
<g clip-path="url(#clip0_1004_3771)">
<rect x="30" y="86" width="26" height="26" rx="10" fill="#64728C" fill-opacity="0.06"/>
<path d="M43.5302 95.4698C43.4608 95.3999 43.3781 95.3444 43.2871 95.3066C43.1961 95.2687 43.0986 95.2492 43 95.2492C42.9014 95.2492 42.8039 95.2687 42.7129 95.3066C42.6219 95.3444 42.5392 95.3999 42.4698 95.4698L39.2875 98.652C39.1509 98.7935 39.0753 98.9829 39.077 99.1796C39.0787 99.3762 39.1576 99.5643 39.2966 99.7034C39.4357 99.8424 39.6238 99.9213 39.8204 99.923C40.0171 99.9247 40.2065 99.8491 40.348 99.7125L42.25 97.8105V102C42.25 102.199 42.329 102.39 42.4697 102.53C42.6103 102.671 42.8011 102.75 43 102.75C43.1989 102.75 43.3897 102.671 43.5303 102.53C43.671 102.39 43.75 102.199 43.75 102V97.8105L45.652 99.7125C45.7935 99.8491 45.9829 99.9247 46.1796 99.923C46.3762 99.9213 46.5643 99.8424 46.7034 99.7034C46.8424 99.5643 46.9213 99.3762 46.923 99.1796C46.9247 98.9829 46.8491 98.7935 46.7125 98.652L43.5302 95.4698ZM43 106.5C38.8578 106.5 35.5 103.142 35.5 99C35.5 94.8578 38.8578 91.5 43 91.5C47.1423 91.5 50.5 94.8578 50.5 99C50.5 103.142 47.1423 106.5 43 106.5Z" fill="#929BAA"/>
<g filter="url(#filter1_i_1004_3771)">
<rect x="24" y="114" width="38" height="38" rx="10" fill="white"/>
<rect x="24.5" y="114.5" width="37" height="37" rx="9.5" stroke="#E8EAEF"/>
<path d="M38.4062 139.281C36.9635 139.281 35.9505 138.776 35.3672 137.766C34.7891 136.755 34.5 135.315 34.5 133.445C34.5 131.576 34.7891 130.133 35.3672 129.117C35.9505 128.102 36.9635 127.594 38.4062 127.594C39.849 127.594 40.862 128.102 41.4453 129.117C42.0234 130.133 42.3125 131.576 42.3125 133.445C42.3125 135.315 42.0208 136.755 41.4375 137.766C40.8594 138.776 39.849 139.281 38.4062 139.281ZM39.7109 136.43C39.9141 135.742 40.0156 134.747 40.0156 133.445C40.0156 132.081 39.9115 131.07 39.7031 130.414C39.5 129.758 39.0677 129.43 38.4062 129.43C37.7448 129.43 37.3073 129.758 37.0938 130.414C36.8802 131.07 36.7734 132.081 36.7734 133.445C36.7734 134.747 36.8802 135.745 37.0938 136.438C37.3073 137.125 37.7448 137.469 38.4062 137.469C39.0677 137.469 39.5026 137.122 39.7109 136.43ZM47.0625 139.328C46.2135 139.328 45.4505 139.078 44.7734 138.578C44.0964 138.073 43.7083 137.339 43.6094 136.375H45.8281C45.8802 136.708 46.0208 136.979 46.25 137.188C46.4792 137.396 46.7839 137.5 47.1641 137.5C47.8984 137.5 48.4141 137.094 48.7109 136.281C48.8724 135.833 48.974 135.18 49.0156 134.32C48.8125 134.576 48.5964 134.771 48.3672 134.906C47.9505 135.156 47.4375 135.281 46.8281 135.281C45.9271 135.281 45.1276 134.971 44.4297 134.352C43.7318 133.727 43.3828 132.828 43.3828 131.656C43.3828 130.443 43.7318 129.461 44.4297 128.711C45.1328 127.956 46.0443 127.578 47.1641 127.578C48.888 127.578 50.0703 128.341 50.7109 129.867C51.0755 130.732 51.2578 131.87 51.2578 133.281C51.2578 134.651 51.0833 135.794 50.7344 136.711C50.0677 138.456 48.8438 139.328 47.0625 139.328ZM46.2812 129.758C45.8542 130.091 45.6406 130.656 45.6406 131.453C45.6406 132.125 45.776 132.63 46.0469 132.969C46.3229 133.302 46.7448 133.469 47.3125 133.469C47.6198 133.469 47.9089 133.38 48.1797 133.203C48.6849 132.88 48.9375 132.32 48.9375 131.523C48.9375 130.883 48.7865 130.375 48.4844 130C48.1875 129.625 47.7786 129.438 47.2578 129.438C46.8776 129.438 46.5521 129.544 46.2812 129.758Z" fill="#64728C"/>
</g>
<rect x="30" y="154" width="26" height="26" rx="10" fill="#64728C" fill-opacity="0.06"/>
<path d="M42.4698 170.53C42.5392 170.6 42.6219 170.656 42.7129 170.693C42.8039 170.731 42.9014 170.751 43 170.751C43.0986 170.751 43.1961 170.731 43.2871 170.693C43.3781 170.656 43.4608 170.6 43.5302 170.53L46.7125 167.348C46.7841 167.279 46.8413 167.196 46.8806 167.105C46.9199 167.013 46.9406 166.915 46.9414 166.815C46.9423 166.715 46.9233 166.617 46.8856 166.525C46.8479 166.432 46.7922 166.349 46.7218 166.278C46.6514 166.208 46.5676 166.152 46.4755 166.114C46.3833 166.077 46.2845 166.058 46.1849 166.059C46.0854 166.059 45.9869 166.08 45.8954 166.119C45.8039 166.159 45.7212 166.216 45.652 166.288L43.75 168.19V164C43.75 163.801 43.671 163.61 43.5303 163.47C43.3897 163.329 43.1989 163.25 43 163.25C42.8011 163.25 42.6103 163.329 42.4697 163.47C42.329 163.61 42.25 163.801 42.25 164V168.19L40.348 166.288C40.2788 166.216 40.1961 166.159 40.1046 166.119C40.0131 166.08 39.9146 166.059 39.8151 166.059C39.7155 166.058 39.6167 166.077 39.5245 166.114C39.4324 166.152 39.3486 166.208 39.2782 166.278C39.2078 166.349 39.1521 166.432 39.1144 166.525C39.0767 166.617 39.0577 166.715 39.0586 166.815C39.0594 166.915 39.0801 167.013 39.1194 167.105C39.1587 167.196 39.2159 167.279 39.2875 167.348L42.4698 170.53ZM43 174.5C38.8578 174.5 35.5 171.142 35.5 167C35.5 162.858 38.8578 159.5 43 159.5C47.1423 159.5 50.5 162.858 50.5 167C50.5 171.142 47.1423 174.5 43 174.5Z" fill="#929BAA"/>
</g>
<g clip-path="url(#clip1_1004_3771)">
<circle cx="72" cy="128.5" r="2" fill="#64728C"/>
<circle cx="72" cy="137.5" r="2" fill="#64728C"/>
</g>
<g clip-path="url(#clip2_1004_3771)">
<rect x="88" y="86" width="26" height="26" rx="10" fill="#64728C" fill-opacity="0.06"/>
<path d="M101.53 95.4698C101.461 95.3999 101.378 95.3444 101.287 95.3066C101.196 95.2687 101.099 95.2492 101 95.2492C100.901 95.2492 100.804 95.2687 100.713 95.3066C100.622 95.3444 100.539 95.3999 100.47 95.4698L97.2875 98.652C97.1509 98.7935 97.0753 98.9829 97.077 99.1796C97.0787 99.3762 97.1576 99.5643 97.2966 99.7034C97.4357 99.8424 97.6238 99.9213 97.8204 99.923C98.0171 99.9247 98.2065 99.8491 98.348 99.7125L100.25 97.8105V102C100.25 102.199 100.329 102.39 100.47 102.53C100.61 102.671 100.801 102.75 101 102.75C101.199 102.75 101.39 102.671 101.53 102.53C101.671 102.39 101.75 102.199 101.75 102V97.8105L103.652 99.7125C103.793 99.8491 103.983 99.9247 104.18 99.923C104.376 99.9213 104.564 99.8424 104.703 99.7034C104.842 99.5643 104.921 99.3762 104.923 99.1796C104.925 98.9829 104.849 98.7935 104.712 98.652L101.53 95.4698ZM101 106.5C96.8578 106.5 93.5 103.142 93.5 99C93.5 94.8578 96.8578 91.5 101 91.5C105.142 91.5 108.5 94.8578 108.5 99C108.5 103.142 105.142 106.5 101 106.5Z" fill="#929BAA"/>
<g filter="url(#filter2_i_1004_3771)">
<rect x="82" y="114" width="38" height="38" rx="10" fill="white"/>
<rect x="82.5" y="114.5" width="37" height="37" rx="9.5" stroke="#E8EAEF"/>
<path d="M98.0547 139H95.7734V131.188H93.1094V129.672C93.8125 129.641 94.3047 129.594 94.5859 129.531C95.0339 129.432 95.3984 129.234 95.6797 128.938C95.8724 128.734 96.0182 128.464 96.1172 128.125C96.1745 127.922 96.2031 127.771 96.2031 127.672H98.0547V139ZM105.172 133.375C104.901 133.375 104.667 133.409 104.469 133.477C104.12 133.602 103.857 133.833 103.68 134.172L101.68 134.078L102.477 127.82H108.719V129.711H104.086L103.68 132.188C104.023 131.964 104.292 131.815 104.484 131.742C104.807 131.622 105.201 131.562 105.664 131.562C106.602 131.562 107.419 131.878 108.117 132.508C108.815 133.138 109.164 134.055 109.164 135.258C109.164 136.305 108.828 137.24 108.156 138.062C107.484 138.885 106.479 139.297 105.141 139.297C104.062 139.297 103.177 139.008 102.484 138.43C101.792 137.852 101.406 137.031 101.328 135.969H103.547C103.635 136.453 103.805 136.828 104.055 137.094C104.305 137.354 104.669 137.484 105.148 137.484C105.701 137.484 106.12 137.292 106.406 136.906C106.698 136.516 106.844 136.026 106.844 135.438C106.844 134.859 106.708 134.372 106.438 133.977C106.167 133.576 105.745 133.375 105.172 133.375Z" fill="#64728C"/>
</g>
<rect x="88" y="154" width="26" height="26" rx="10" fill="#64728C" fill-opacity="0.06"/>
<path d="M100.47 170.53C100.539 170.6 100.622 170.656 100.713 170.693C100.804 170.731 100.901 170.751 101 170.751C101.099 170.751 101.196 170.731 101.287 170.693C101.378 170.656 101.461 170.6 101.53 170.53L104.712 167.348C104.784 167.279 104.841 167.196 104.881 167.105C104.92 167.013 104.941 166.915 104.941 166.815C104.942 166.715 104.923 166.617 104.886 166.525C104.848 166.432 104.792 166.349 104.722 166.278C104.651 166.208 104.568 166.152 104.475 166.114C104.383 166.077 104.285 166.058 104.185 166.059C104.085 166.059 103.987 166.08 103.895 166.119C103.804 166.159 103.721 166.216 103.652 166.288L101.75 168.19V164C101.75 163.801 101.671 163.61 101.53 163.47C101.39 163.329 101.199 163.25 101 163.25C100.801 163.25 100.61 163.329 100.47 163.47C100.329 163.61 100.25 163.801 100.25 164V168.19L98.348 166.288C98.2788 166.216 98.1961 166.159 98.1046 166.119C98.0131 166.08 97.9146 166.059 97.8151 166.059C97.7155 166.058 97.6167 166.077 97.5245 166.114C97.4324 166.152 97.3486 166.208 97.2782 166.278C97.2078 166.349 97.1521 166.432 97.1144 166.525C97.0767 166.617 97.0577 166.715 97.0586 166.815C97.0594 166.915 97.0801 167.013 97.1194 167.105C97.1587 167.196 97.2159 167.279 97.2875 167.348L100.47 170.53ZM101 174.5C96.8578 174.5 93.5 171.142 93.5 167C93.5 162.858 96.8578 159.5 101 159.5C105.142 159.5 108.5 162.858 108.5 167C108.5 171.142 105.142 174.5 101 174.5Z" fill="#929BAA"/>
</g>
<g clip-path="url(#clip3_1004_3771)">
<g filter="url(#filter3_d_1004_3771)">
<mask id="path-21-inside-1_1004_3771" fill="white">
<path d="M133 97C133 91.4772 137.477 87 143 87H173C178.523 87 183 91.4772 183 97V119C183 124.523 178.523 129 173 129H143C137.477 129 133 124.523 133 119V97Z"/>
</mask>
<path d="M133 97C133 91.4772 137.477 87 143 87H173C178.523 87 183 91.4772 183 97V119C183 124.523 178.523 129 173 129H143C137.477 129 133 124.523 133 119V97Z" fill="#64728C" fill-opacity="0.12" shape-rendering="crispEdges"/>
<path d="M133 97C133 91.4772 137.477 87 143 87H173C178.523 87 183 91.4772 183 97V119C183 124.523 178.523 129 173 129H143C137.477 129 133 124.523 133 119V97Z" fill="url(#paint0_linear_1004_3771)" fill-opacity="0.5" shape-rendering="crispEdges"/>
<path d="M133 87H183H133ZM183 119C183 125.627 177.627 131 171 131H145C138.373 131 133 125.627 133 119C133 123.418 137.477 127 143 127H173C178.523 127 183 123.418 183 119ZM133 129V87V129ZM183 87V129V87Z" fill="#64728C" fill-opacity="0.45" mask="url(#path-21-inside-1_1004_3771)"/>
<path d="M146.344 113.128C146.088 113.128 145.88 113.069 145.72 112.952C145.571 112.835 145.48 112.68 145.448 112.488C145.416 112.285 145.453 112.061 145.56 111.816L149.784 102.456C149.923 102.147 150.088 101.928 150.28 101.8C150.483 101.661 150.712 101.592 150.968 101.592C151.213 101.592 151.432 101.661 151.624 101.8C151.827 101.928 151.997 102.147 152.136 102.456L156.376 111.816C156.493 112.061 156.536 112.285 156.504 112.488C156.472 112.691 156.381 112.851 156.232 112.968C156.083 113.075 155.885 113.128 155.64 113.128C155.341 113.128 155.107 113.059 154.936 112.92C154.776 112.771 154.632 112.547 154.504 112.248L153.464 109.832L154.328 110.392H147.576L148.44 109.832L147.416 112.248C147.277 112.557 147.133 112.781 146.984 112.92C146.835 113.059 146.621 113.128 146.344 113.128ZM150.936 103.944L148.696 109.272L148.28 108.76H153.624L153.224 109.272L150.968 103.944H150.936ZM159.098 113.128C158.8 113.128 158.57 113.043 158.41 112.872C158.25 112.701 158.17 112.467 158.17 112.168V102.552C158.17 102.243 158.256 102.008 158.426 101.848C158.597 101.677 158.832 101.592 159.13 101.592C159.397 101.592 159.605 101.645 159.754 101.752C159.914 101.848 160.058 102.019 160.186 102.264L164.138 109.576H163.626L167.578 102.264C167.706 102.019 167.845 101.848 167.994 101.752C168.144 101.645 168.352 101.592 168.618 101.592C168.917 101.592 169.146 101.677 169.306 101.848C169.466 102.008 169.546 102.243 169.546 102.552V112.168C169.546 112.467 169.466 112.701 169.306 112.872C169.157 113.043 168.928 113.128 168.618 113.128C168.32 113.128 168.09 113.043 167.93 112.872C167.77 112.701 167.69 112.467 167.69 112.168V104.76H168.042L164.682 110.888C164.576 111.069 164.464 111.203 164.346 111.288C164.229 111.373 164.069 111.416 163.866 111.416C163.664 111.416 163.498 111.373 163.37 111.288C163.242 111.192 163.13 111.059 163.034 110.888L159.642 104.744H160.026V112.168C160.026 112.467 159.946 112.701 159.786 112.872C159.637 113.043 159.408 113.128 159.098 113.128Z" fill="#64728C"/>
</g>
<g filter="url(#filter4_i_1004_3771)">
<path d="M133.5 147C133.5 141.477 137.977 137 143.5 137H172.5C178.023 137 182.5 141.477 182.5 147V169C182.5 174.523 178.023 179 172.5 179H143.5C137.977 179 133.5 174.523 133.5 169V147Z" fill="#76BC21"/>
<path d="M147.756 163.128C147.425 163.128 147.169 163.037 146.988 162.856C146.817 162.664 146.732 162.403 146.732 162.072V152.76C146.732 152.419 146.823 152.163 147.004 151.992C147.185 151.811 147.441 151.72 147.772 151.72H151.628C152.865 151.72 153.82 152.029 154.492 152.648C155.164 153.267 155.5 154.131 155.5 155.24C155.5 156.349 155.164 157.219 154.492 157.848C153.82 158.467 152.865 158.776 151.628 158.776H148.78V162.072C148.78 162.403 148.695 162.664 148.524 162.856C148.353 163.037 148.097 163.128 147.756 163.128ZM148.78 157.16H151.308C152.033 157.16 152.583 157 152.956 156.68C153.329 156.349 153.516 155.869 153.516 155.24C153.516 154.611 153.329 154.136 152.956 153.816C152.583 153.496 152.033 153.336 151.308 153.336H148.78V157.16ZM158.13 163.128C157.831 163.128 157.602 163.043 157.442 162.872C157.282 162.701 157.202 162.467 157.202 162.168V152.552C157.202 152.243 157.287 152.008 157.458 151.848C157.628 151.677 157.863 151.592 158.162 151.592C158.428 151.592 158.636 151.645 158.786 151.752C158.946 151.848 159.09 152.019 159.218 152.264L163.17 159.576H162.658L166.61 152.264C166.738 152.019 166.876 151.848 167.026 151.752C167.175 151.645 167.383 151.592 167.65 151.592C167.948 151.592 168.178 151.677 168.338 151.848C168.498 152.008 168.578 152.243 168.578 152.552V162.168C168.578 162.467 168.498 162.701 168.338 162.872C168.188 163.043 167.959 163.128 167.65 163.128C167.351 163.128 167.122 163.043 166.962 162.872C166.802 162.701 166.722 162.467 166.722 162.168V154.76H167.074L163.714 160.888C163.607 161.069 163.495 161.203 163.378 161.288C163.26 161.373 163.1 161.416 162.898 161.416C162.695 161.416 162.53 161.373 162.402 161.288C162.274 161.192 162.162 161.059 162.066 160.888L158.674 154.744H159.058V162.168C159.058 162.467 158.978 162.701 158.818 162.872C158.668 163.043 158.439 163.128 158.13 163.128Z" fill="white"/>
</g>
</g>
</g>
<rect x="4.5" y="21.5" width="199" height="44" rx="11.5" fill="white"/>
<rect x="4.5" y="21.5" width="199" height="44" rx="11.5" stroke="#E8EAEF"/>
<path d="M51.0846 43.852C51.0846 44.172 51.0952 44.5613 51.1166 45.02C51.1379 45.468 51.2019 45.9053 51.3086 46.332C51.4259 46.748 51.6072 47.1053 51.8526 47.404C52.0979 47.7027 52.4499 47.852 52.9086 47.852C53.3779 47.852 53.7352 47.7027 53.9806 47.404C54.2366 47.1053 54.4179 46.748 54.5246 46.332C54.6419 45.9053 54.7112 45.468 54.7326 45.02C54.7539 44.5613 54.7646 44.172 54.7646 43.852C54.7646 43.66 54.7592 43.4307 54.7486 43.164C54.7486 42.8867 54.7272 42.604 54.6846 42.316C54.6526 42.028 54.5992 41.7453 54.5246 41.468C54.4606 41.18 54.3592 40.924 54.2206 40.7C54.0819 40.476 53.9059 40.2947 53.6926 40.156C53.4792 40.0173 53.2179 39.948 52.9086 39.948C52.5992 39.948 52.3379 40.0173 52.1246 40.156C51.9219 40.2947 51.7512 40.476 51.6126 40.7C51.4846 40.924 51.3832 41.18 51.3086 41.468C51.2339 41.7453 51.1806 42.028 51.1486 42.316C51.1166 42.604 51.0952 42.8867 51.0846 43.164C51.0846 43.4307 51.0846 43.66 51.0846 43.852ZM48.8126 43.852C48.8126 42.764 48.9192 41.852 49.1326 41.116C49.3566 40.3693 49.6552 39.772 50.0286 39.324C50.4019 38.876 50.8339 38.556 51.3246 38.364C51.8259 38.172 52.3539 38.076 52.9086 38.076C53.4739 38.076 54.0019 38.172 54.4926 38.364C54.9939 38.556 55.4312 38.876 55.8046 39.324C56.1886 39.772 56.4872 40.3693 56.7006 41.116C56.9246 41.852 57.0366 42.764 57.0366 43.852C57.0366 44.972 56.9246 45.9107 56.7006 46.668C56.4872 47.4147 56.1886 48.012 55.8046 48.46C55.4312 48.908 54.9939 49.228 54.4926 49.42C54.0019 49.612 53.4739 49.708 52.9086 49.708C52.3539 49.708 51.8259 49.612 51.3246 49.42C50.8339 49.228 50.4019 48.908 50.0286 48.46C49.6552 48.012 49.3566 47.4147 49.1326 46.668C48.9192 45.9107 48.8126 44.972 48.8126 43.852ZM61.6872 44.108C61.9965 44.108 62.2632 44.0547 62.4872 43.948C62.7112 43.8307 62.8979 43.676 63.0472 43.484C63.1965 43.292 63.3085 43.0733 63.3832 42.828C63.4579 42.572 63.4952 42.3053 63.4952 42.028C63.4952 41.772 63.4525 41.5213 63.3672 41.276C63.2925 41.02 63.1752 40.796 63.0152 40.604C62.8659 40.4013 62.6792 40.2413 62.4552 40.124C62.2312 40.0067 61.9752 39.948 61.6872 39.948C61.4205 39.948 61.1805 40.0067 60.9672 40.124C60.7539 40.2413 60.5725 40.396 60.4232 40.588C60.2739 40.78 60.1619 40.9987 60.0872 41.244C60.0125 41.4893 59.9752 41.74 59.9752 41.996C59.9752 42.2627 60.0072 42.524 60.0712 42.78C60.1459 43.0253 60.2525 43.2493 60.3912 43.452C60.5299 43.644 60.7059 43.804 60.9192 43.932C61.1432 44.0493 61.3992 44.108 61.6872 44.108ZM60.0552 46.62C60.1299 46.9933 60.3005 47.3187 60.5672 47.596C60.8339 47.8733 61.1645 48.012 61.5592 48.012C61.9752 48.012 62.3165 47.8947 62.5832 47.66C62.8499 47.4147 63.0632 47.1213 63.2232 46.78C63.3832 46.428 63.4952 46.0547 63.5592 45.66C63.6339 45.2653 63.6819 44.9133 63.7032 44.604L63.6712 44.572C63.3619 45.02 62.9992 45.34 62.5832 45.532C62.1672 45.724 61.6872 45.82 61.1432 45.82C60.6632 45.82 60.1939 45.7187 59.7352 45.516C59.2765 45.3027 58.8872 45.02 58.5672 44.668C58.2685 44.3267 58.0499 43.9373 57.9112 43.5C57.7725 43.0627 57.7032 42.62 57.7032 42.172C57.7032 41.596 57.7939 41.0627 57.9752 40.572C58.1672 40.0707 58.4339 39.6387 58.7752 39.276C59.1272 38.9027 59.5432 38.6093 60.0232 38.396C60.5032 38.1827 61.0365 38.076 61.6232 38.076C62.4765 38.076 63.1752 38.2467 63.7192 38.588C64.2739 38.9187 64.7165 39.3613 65.0472 39.916C65.3779 40.46 65.6072 41.0787 65.7352 41.772C65.8632 42.4653 65.9272 43.164 65.9272 43.868C65.9272 44.5613 65.8472 45.2547 65.6872 45.948C65.5272 46.6413 65.2712 47.2707 64.9192 47.836C64.5672 48.3907 64.1139 48.844 63.5592 49.196C63.0045 49.5373 62.3272 49.708 61.5272 49.708C61.0472 49.708 60.5992 49.6387 60.1832 49.5C59.7672 49.372 59.3992 49.1747 59.0792 48.908C58.7592 48.6413 58.4979 48.316 58.2952 47.932C58.0925 47.548 57.9592 47.1107 57.8952 46.62H60.0552ZM74.1989 43.836H71.6869V41.372H74.1989V43.836ZM71.6869 47.036H74.1989V49.5H71.6869V47.036ZM80.2092 42.604C80.1879 41.964 80.2625 41.372 80.4332 40.828C80.6039 40.2733 80.8599 39.7933 81.2012 39.388C81.5425 38.972 81.9692 38.652 82.4812 38.428C83.0039 38.1933 83.6012 38.076 84.2732 38.076C84.7852 38.076 85.2705 38.156 85.7292 38.316C86.1985 38.476 86.6092 38.7053 86.9612 39.004C87.3132 39.3027 87.5905 39.6707 87.7932 40.108C88.0065 40.5453 88.1132 41.036 88.1132 41.58C88.1132 42.1453 88.0225 42.6307 87.8412 43.036C87.6599 43.4413 87.4199 43.804 87.1212 44.124C86.8225 44.4333 86.4812 44.716 86.0972 44.972C85.7239 45.228 85.3452 45.484 84.9612 45.74C84.5772 45.9853 84.2039 46.252 83.8412 46.54C83.4785 46.828 83.1585 47.164 82.8812 47.548H88.1772V49.5H79.9532C79.9532 48.8493 80.0439 48.284 80.2252 47.804C80.4172 47.324 80.6732 46.8973 80.9932 46.524C81.3132 46.14 81.6865 45.788 82.1132 45.468C82.5505 45.148 83.0092 44.8227 83.4892 44.492C83.7345 44.3213 83.9959 44.1507 84.2732 43.98C84.5505 43.7987 84.8012 43.6013 85.0252 43.388C85.2599 43.1747 85.4519 42.9347 85.6012 42.668C85.7612 42.4013 85.8412 42.0973 85.8412 41.756C85.8412 41.212 85.6812 40.7907 85.3612 40.492C85.0519 40.1827 84.6519 40.028 84.1612 40.028C83.8305 40.028 83.5479 40.108 83.3132 40.268C83.0892 40.4173 82.9079 40.62 82.7692 40.876C82.6305 41.1213 82.5292 41.3987 82.4652 41.708C82.4119 42.0067 82.3852 42.3053 82.3852 42.604H80.2092ZM96.5078 40.172H91.8838L91.4358 42.716L91.4678 42.748C91.7771 42.4387 92.1078 42.22 92.4598 42.092C92.8118 41.9533 93.2118 41.884 93.6598 41.884C94.2145 41.884 94.7051 41.9853 95.1318 42.188C95.5585 42.3907 95.9158 42.6627 96.2038 43.004C96.5025 43.3453 96.7265 43.7507 96.8758 44.22C97.0358 44.6787 97.1158 45.1693 97.1158 45.692C97.1158 46.268 97.0038 46.8067 96.7798 47.308C96.5558 47.7987 96.2518 48.2253 95.8678 48.588C95.4945 48.9507 95.0571 49.2333 94.5558 49.436C94.0545 49.628 93.5211 49.7187 92.9558 49.708C92.4118 49.708 91.8891 49.6387 91.3878 49.5C90.8971 49.3507 90.4598 49.1267 90.0758 48.828C89.6918 48.5293 89.3825 48.1613 89.1478 47.724C88.9238 47.276 88.8065 46.7587 88.7958 46.172H91.0678C91.1211 46.684 91.3131 47.0947 91.6438 47.404C91.9745 47.7027 92.3958 47.852 92.9078 47.852C93.2065 47.852 93.4731 47.7933 93.7078 47.676C93.9531 47.548 94.1558 47.388 94.3158 47.196C94.4865 46.9933 94.6145 46.764 94.6998 46.508C94.7958 46.2413 94.8438 45.9693 94.8438 45.692C94.8438 45.404 94.8011 45.132 94.7158 44.876C94.6305 44.62 94.5025 44.396 94.3318 44.204C94.1611 44.012 93.9585 43.8627 93.7238 43.756C93.4891 43.6493 93.2171 43.596 92.9078 43.596C92.5025 43.596 92.1718 43.6707 91.9158 43.82C91.6598 43.9587 91.4198 44.1827 91.1958 44.492H89.1478L90.2518 38.3H96.5078V40.172ZM108.545 43.676H112.289C113.046 43.676 113.659 43.484 114.129 43.1C114.598 42.716 114.833 42.1293 114.833 41.34C114.833 40.5507 114.598 39.964 114.129 39.58C113.659 39.196 113.046 39.004 112.289 39.004H108.545V43.676ZM107.457 38.076H112.529C113.041 38.076 113.505 38.1507 113.921 38.3C114.337 38.4387 114.694 38.652 114.993 38.94C115.291 39.2173 115.521 39.5587 115.681 39.964C115.841 40.3693 115.921 40.828 115.921 41.34C115.921 41.852 115.841 42.3107 115.681 42.716C115.521 43.1213 115.291 43.468 114.993 43.756C114.694 44.0333 114.337 44.2467 113.921 44.396C113.505 44.5347 113.041 44.604 112.529 44.604H108.545V49.5H107.457V38.076ZM119.103 38.076L122.895 48.092L126.831 38.076H128.431V49.5H127.343V39.628H127.311L123.407 49.5H122.383L118.623 39.628H118.591V49.5H117.503V38.076H119.103Z" fill="#64728C"/>
<rect x="164" y="25.5" width="36" height="36" rx="10" fill="#64728C" fill-opacity="0.12"/>
<path d="M182 50.5C185.866 50.5 189 47.366 189 43.5C189 39.634 185.866 36.5 182 36.5C178.134 36.5 175 39.634 175 43.5C175 47.366 178.134 50.5 182 50.5Z" stroke="#64728C" stroke-width="2" stroke-linecap="round" stroke-linejoin="round"/>
<path d="M182 39.876V44.9403L184.8 46.6285" stroke="#64728C" stroke-width="2" stroke-linecap="round" stroke-linejoin="round"/>
<path d="M7.804 12.108C7.436 12.108 7.076 12.08 6.724 12.024C6.372 11.968 6.04 11.884 5.728 11.772C5.416 11.652 5.136 11.508 4.888 11.34C4.768 11.252 4.684 11.152 4.636 11.04C4.596 10.928 4.584 10.82 4.6 10.716C4.624 10.604 4.672 10.508 4.744 10.428C4.816 10.348 4.904 10.3 5.008 10.284C5.112 10.26 5.228 10.292 5.356 10.38C5.716 10.612 6.096 10.784 6.496 10.896C6.896 11 7.332 11.052 7.804 11.052C8.484 11.052 8.984 10.932 9.304 10.692C9.632 10.444 9.796 10.124 9.796 9.732C9.796 9.412 9.68 9.16 9.448 8.976C9.216 8.784 8.828 8.632 8.284 8.52L7 8.256C6.24 8.096 5.672 7.832 5.296 7.464C4.928 7.096 4.744 6.6 4.744 5.976C4.744 5.6 4.82 5.256 4.972 4.944C5.132 4.632 5.352 4.364 5.632 4.14C5.912 3.908 6.248 3.732 6.64 3.612C7.032 3.492 7.46 3.432 7.924 3.432C8.42 3.432 8.884 3.496 9.316 3.624C9.756 3.752 10.148 3.948 10.492 4.212C10.596 4.284 10.664 4.376 10.696 4.488C10.736 4.592 10.744 4.696 10.72 4.8C10.704 4.904 10.66 4.992 10.588 5.064C10.516 5.136 10.424 5.18 10.312 5.196C10.2 5.204 10.076 5.164 9.94 5.076C9.628 4.868 9.308 4.72 8.98 4.632C8.66 4.536 8.304 4.488 7.912 4.488C7.52 4.488 7.176 4.548 6.88 4.668C6.592 4.788 6.368 4.956 6.208 5.172C6.056 5.388 5.98 5.644 5.98 5.94C5.98 6.276 6.088 6.544 6.304 6.744C6.52 6.944 6.88 7.096 7.384 7.2L8.656 7.464C9.456 7.632 10.052 7.892 10.444 8.244C10.836 8.596 11.032 9.064 11.032 9.648C11.032 10.024 10.956 10.364 10.804 10.668C10.652 10.964 10.436 11.22 10.156 11.436C9.876 11.652 9.536 11.82 9.136 11.94C8.744 12.052 8.3 12.108 7.804 12.108ZM15.0648 12.108C14.4248 12.108 13.8728 11.988 13.4088 11.748C12.9528 11.5 12.5968 11.152 12.3408 10.704C12.0928 10.248 11.9688 9.708 11.9688 9.084C11.9688 8.476 12.0928 7.944 12.3408 7.488C12.5888 7.032 12.9288 6.676 13.3608 6.42C13.7928 6.164 14.2848 6.036 14.8368 6.036C15.2448 6.036 15.6088 6.104 15.9288 6.24C16.2488 6.368 16.5208 6.56 16.7448 6.816C16.9768 7.064 17.1488 7.368 17.2608 7.728C17.3808 8.088 17.4408 8.492 17.4408 8.94C17.4408 9.076 17.4008 9.18 17.3208 9.252C17.2408 9.316 17.1208 9.348 16.9608 9.348H12.9288V8.604H16.6248L16.4208 8.772C16.4208 8.372 16.3608 8.032 16.2408 7.752C16.1288 7.472 15.9568 7.26 15.7248 7.116C15.5008 6.964 15.2208 6.888 14.8848 6.888C14.5088 6.888 14.1888 6.976 13.9248 7.152C13.6688 7.328 13.4728 7.572 13.3368 7.884C13.2008 8.196 13.1328 8.56 13.1328 8.976V9.048C13.1328 9.752 13.2968 10.284 13.6248 10.644C13.9608 10.996 14.4448 11.172 15.0768 11.172C15.3168 11.172 15.5688 11.14 15.8328 11.076C16.1048 11.012 16.3608 10.904 16.6008 10.752C16.7368 10.672 16.8568 10.636 16.9608 10.644C17.0728 10.652 17.1608 10.688 17.2248 10.752C17.2968 10.816 17.3408 10.896 17.3568 10.992C17.3728 11.088 17.3568 11.188 17.3088 11.292C17.2608 11.388 17.1768 11.476 17.0568 11.556C16.7848 11.74 16.4688 11.88 16.1088 11.976C15.7488 12.064 15.4008 12.108 15.0648 12.108ZM21.2464 12.108C20.7664 12.108 20.3624 12.024 20.0344 11.856C19.7064 11.688 19.4624 11.44 19.3024 11.112C19.1424 10.784 19.0624 10.384 19.0624 9.912V7.08H18.3424C18.1824 7.08 18.0584 7.04 17.9704 6.96C17.8824 6.872 17.8384 6.756 17.8384 6.612C17.8384 6.46 17.8824 6.344 17.9704 6.264C18.0584 6.184 18.1824 6.144 18.3424 6.144H19.0624V4.908C19.0624 4.708 19.1144 4.556 19.2184 4.452C19.3304 4.348 19.4824 4.296 19.6744 4.296C19.8664 4.296 20.0144 4.348 20.1184 4.452C20.2224 4.556 20.2744 4.708 20.2744 4.908V6.144H21.6784C21.8384 6.144 21.9624 6.184 22.0504 6.264C22.1384 6.344 22.1824 6.46 22.1824 6.612C22.1824 6.756 22.1384 6.872 22.0504 6.96C21.9624 7.04 21.8384 7.08 21.6784 7.08H20.2744V9.816C20.2744 10.24 20.3624 10.56 20.5384 10.776C20.7224 10.992 21.0184 11.1 21.4264 11.1C21.5704 11.1 21.6944 11.088 21.7984 11.064C21.9104 11.032 22.0024 11.012 22.0744 11.004C22.1624 11.004 22.2344 11.036 22.2904 11.1C22.3464 11.156 22.3744 11.268 22.3744 11.436C22.3744 11.556 22.3504 11.668 22.3024 11.772C22.2624 11.876 22.1864 11.944 22.0744 11.976C21.9784 12.008 21.8464 12.036 21.6784 12.06C21.5184 12.092 21.3744 12.108 21.2464 12.108ZM29.1173 12.084C28.9173 12.084 28.7613 12.028 28.6493 11.916C28.5453 11.804 28.4933 11.648 28.4933 11.448V4.584H25.9493C25.7813 4.584 25.6493 4.54 25.5533 4.452C25.4573 4.356 25.4093 4.224 25.4093 4.056C25.4093 3.888 25.4573 3.76 25.5533 3.672C25.6493 3.584 25.7813 3.54 25.9493 3.54H32.2733C32.4493 3.54 32.5853 3.584 32.6813 3.672C32.7773 3.76 32.8253 3.888 32.8253 4.056C32.8253 4.224 32.7773 4.356 32.6813 4.452C32.5853 4.54 32.4493 4.584 32.2733 4.584H29.7293V11.448C29.7293 11.648 29.6773 11.804 29.5733 11.916C29.4773 12.028 29.3253 12.084 29.1173 12.084ZM34.702 12.072C34.51 12.072 34.362 12.016 34.258 11.904C34.154 11.784 34.102 11.62 34.102 11.412V6.732C34.102 6.524 34.154 6.364 34.258 6.252C34.362 6.14 34.51 6.084 34.702 6.084C34.894 6.084 35.042 6.14 35.146 6.252C35.258 6.364 35.314 6.524 35.314 6.732V11.412C35.314 11.62 35.262 11.784 35.158 11.904C35.054 12.016 34.902 12.072 34.702 12.072ZM34.702 4.836C34.462 4.836 34.274 4.776 34.138 4.656C34.01 4.536 33.946 4.368 33.946 4.152C33.946 3.928 34.01 3.76 34.138 3.648C34.274 3.528 34.462 3.468 34.702 3.468C34.942 3.468 35.126 3.528 35.254 3.648C35.39 3.76 35.458 3.928 35.458 4.152C35.458 4.368 35.39 4.536 35.254 4.656C35.126 4.776 34.942 4.836 34.702 4.836ZM37.644 12.084C37.452 12.084 37.304 12.032 37.2 11.928C37.096 11.816 37.044 11.664 37.044 11.472V6.672C37.044 6.472 37.096 6.32 37.2 6.216C37.304 6.112 37.448 6.06 37.632 6.06C37.824 6.06 37.968 6.112 38.064 6.216C38.168 6.32 38.22 6.472 38.22 6.672V7.656L38.088 7.392C38.248 6.968 38.496 6.636 38.832 6.396C39.168 6.156 39.572 6.036 40.044 6.036C40.532 6.036 40.928 6.152 41.232 6.384C41.536 6.616 41.744 6.972 41.856 7.452H41.688C41.84 7.012 42.1 6.668 42.468 6.42C42.836 6.164 43.264 6.036 43.752 6.036C44.2 6.036 44.568 6.124 44.856 6.3C45.144 6.468 45.36 6.728 45.504 7.08C45.648 7.424 45.72 7.86 45.72 8.388V11.472C45.72 11.664 45.664 11.816 45.552 11.928C45.448 12.032 45.3 12.084 45.108 12.084C44.916 12.084 44.768 12.032 44.664 11.928C44.56 11.816 44.508 11.664 44.508 11.472V8.448C44.508 7.952 44.42 7.588 44.244 7.356C44.076 7.124 43.796 7.008 43.404 7.008C42.964 7.008 42.616 7.16 42.36 7.464C42.104 7.768 41.976 8.188 41.976 8.724V11.472C41.976 11.664 41.924 11.816 41.82 11.928C41.716 12.032 41.568 12.084 41.376 12.084C41.184 12.084 41.032 12.032 40.92 11.928C40.816 11.816 40.764 11.664 40.764 11.472V8.448C40.764 7.952 40.68 7.588 40.512 7.356C40.344 7.124 40.064 7.008 39.672 7.008C39.232 7.008 38.884 7.16 38.628 7.464C38.38 7.768 38.256 8.188 38.256 8.724V11.472C38.256 11.88 38.052 12.084 37.644 12.084ZM50.1625 12.108C49.5225 12.108 48.9705 11.988 48.5065 11.748C48.0505 11.5 47.6945 11.152 47.4385 10.704C47.1905 10.248 47.0665 9.708 47.0665 9.084C47.0665 8.476 47.1905 7.944 47.4385 7.488C47.6865 7.032 48.0265 6.676 48.4585 6.42C48.8905 6.164 49.3825 6.036 49.9345 6.036C50.3425 6.036 50.7065 6.104 51.0265 6.24C51.3465 6.368 51.6185 6.56 51.8425 6.816C52.0745 7.064 52.2465 7.368 52.3585 7.728C52.4785 8.088 52.5385 8.492 52.5385 8.94C52.5385 9.076 52.4985 9.18 52.4185 9.252C52.3385 9.316 52.2185 9.348 52.0585 9.348H48.0265V8.604H51.7225L51.5185 8.772C51.5185 8.372 51.4585 8.032 51.3385 7.752C51.2265 7.472 51.0545 7.26 50.8225 7.116C50.5985 6.964 50.3185 6.888 49.9825 6.888C49.6065 6.888 49.2865 6.976 49.0225 7.152C48.7665 7.328 48.5705 7.572 48.4345 7.884C48.2985 8.196 48.2305 8.56 48.2305 8.976V9.048C48.2305 9.752 48.3945 10.284 48.7225 10.644C49.0585 10.996 49.5425 11.172 50.1745 11.172C50.4145 11.172 50.6665 11.14 50.9305 11.076C51.2025 11.012 51.4585 10.904 51.6985 10.752C51.8345 10.672 51.9545 10.636 52.0585 10.644C52.1705 10.652 52.2585 10.688 52.3225 10.752C52.3945 10.816 52.4385 10.896 52.4545 10.992C52.4705 11.088 52.4545 11.188 52.4065 11.292C52.3585 11.388 52.2745 11.476 52.1545 11.556C51.8825 11.74 51.5665 11.88 51.2065 11.976C50.8465 12.064 50.4985 12.108 50.1625 12.108Z" fill="#64728C"/>
<defs>
<filter id="filter0_d_1004_3771" x="0" y="71" width="207" height="136" filterUnits="userSpaceOnUse" color-interpolation-filters="sRGB">
<feFlood flood-opacity="0" result="BackgroundImageFix"/>
<feColorMatrix in="SourceAlpha" type="matrix" values="0 0 0 0 0 0 0 0 0 0 0 0 0 0 0 0 0 0 127 0" result="hardAlpha"/>
<feOffset dy="4"/>
<feGaussianBlur stdDeviation="2"/>
<feComposite in2="hardAlpha" operator="out"/>
<feColorMatrix type="matrix" values="0 0 0 0 0 0 0 0 0 0 0 0 0 0 0 0 0 0 0.05 0"/>
<feBlend mode="normal" in2="BackgroundImageFix" result="effect1_dropShadow_1004_3771"/>
<feBlend mode="normal" in="SourceGraphic" in2="effect1_dropShadow_1004_3771" result="shape"/>
</filter>
<filter id="filter1_i_1004_3771" x="24" y="114" width="38" height="40" filterUnits="userSpaceOnUse" color-interpolation-filters="sRGB">
<feFlood flood-opacity="0" result="BackgroundImageFix"/>
<feBlend mode="normal" in="SourceGraphic" in2="BackgroundImageFix" result="shape"/>
<feColorMatrix in="SourceAlpha" type="matrix" values="0 0 0 0 0 0 0 0 0 0 0 0 0 0 0 0 0 0 127 0" result="hardAlpha"/>
<feOffset dy="2"/>
<feGaussianBlur stdDeviation="1"/>
<feComposite in2="hardAlpha" operator="arithmetic" k2="-1" k3="1"/>
<feColorMatrix type="matrix" values="0 0 0 0 0 0 0 0 0 0 0 0 0 0 0 0 0 0 0.05 0"/>
<feBlend mode="normal" in2="shape" result="effect1_innerShadow_1004_3771"/>
</filter>
<filter id="filter2_i_1004_3771" x="82" y="114" width="38" height="40" filterUnits="userSpaceOnUse" color-interpolation-filters="sRGB">
<feFlood flood-opacity="0" result="BackgroundImageFix"/>
<feBlend mode="normal" in="SourceGraphic" in2="BackgroundImageFix" result="shape"/>
<feColorMatrix in="SourceAlpha" type="matrix" values="0 0 0 0 0 0 0 0 0 0 0 0 0 0 0 0 0 0 127 0" result="hardAlpha"/>
<feOffset dy="2"/>
<feGaussianBlur stdDeviation="1"/>
<feComposite in2="hardAlpha" operator="arithmetic" k2="-1" k3="1"/>
<feColorMatrix type="matrix" values="0 0 0 0 0 0 0 0 0 0 0 0 0 0 0 0 0 0 0.05 0"/>
<feBlend mode="normal" in2="shape" result="effect1_innerShadow_1004_3771"/>
</filter>
<filter id="filter3_d_1004_3771" x="129" y="87" width="58" height="50" filterUnits="userSpaceOnUse" color-interpolation-filters="sRGB">
<feFlood flood-opacity="0" result="BackgroundImageFix"/>
<feColorMatrix in="SourceAlpha" type="matrix" values="0 0 0 0 0 0 0 0 0 0 0 0 0 0 0 0 0 0 127 0" result="hardAlpha"/>
<feOffset dy="4"/>
<feGaussianBlur stdDeviation="2"/>
<feComposite in2="hardAlpha" operator="out"/>
<feColorMatrix type="matrix" values="0 0 0 0 0 0 0 0 0 0 0 0 0 0 0 0 0 0 0.05 0"/>
<feBlend mode="normal" in2="BackgroundImageFix" result="effect1_dropShadow_1004_3771"/>
<feBlend mode="normal" in="SourceGraphic" in2="effect1_dropShadow_1004_3771" result="shape"/>
</filter>
<filter id="filter4_i_1004_3771" x="133.5" y="137" width="49" height="46" filterUnits="userSpaceOnUse" color-interpolation-filters="sRGB">
<feFlood flood-opacity="0" result="BackgroundImageFix"/>
<feBlend mode="normal" in="SourceGraphic" in2="BackgroundImageFix" result="shape"/>
<feColorMatrix in="SourceAlpha" type="matrix" values="0 0 0 0 0 0 0 0 0 0 0 0 0 0 0 0 0 0 127 0" result="hardAlpha"/>
<feOffset dy="4"/>
<feGaussianBlur stdDeviation="2"/>
<feComposite in2="hardAlpha" operator="arithmetic" k2="-1" k3="1"/>
<feColorMatrix type="matrix" values="0 0 0 0 0 0 0 0 0 0 0 0 0 0 0 0 0 0 0.1 0"/>
<feBlend mode="normal" in2="shape" result="effect1_innerShadow_1004_3771"/>
</filter>
<linearGradient id="paint0_linear_1004_3771" x1="175.5" y1="124" x2="139" y2="91.5" gradientUnits="userSpaceOnUse">
<stop stop-color="white" stop-opacity="0"/>
<stop offset="1" stop-color="white"/>
</linearGradient>
<clipPath id="clip0_1004_3771">
<rect width="38" height="94" fill="white" transform="translate(24 86)"/>
</clipPath>
<clipPath id="clip1_1004_3771">
<rect width="4" height="94" fill="white" transform="translate(70 86)"/>
</clipPath>
<clipPath id="clip2_1004_3771">
<rect width="38" height="94" fill="white" transform="translate(82 86)"/>
</clipPath>
<clipPath id="clip3_1004_3771">
<rect width="55" height="94" fill="white" transform="translate(128 86)"/>
</clipPath>
</defs>
</svg>
