<svg width="299" height="446" viewBox="0 0 299 446" fill="none" xmlns="http://www.w3.org/2000/svg">
<g filter="url(#filter0_d_1007_3984)">
<g filter="url(#filter1_d_1007_3984)">
<g clip-path="url(#clip0_1007_3984)">
<rect x="50" y="71" width="199" height="321" rx="16" fill="#E8EAEF"/>
<g filter="url(#filter2_ddii_1007_3984)">
<circle cx="149.5" cy="167.5" r="81.5" fill="#EAECF3"/>
<circle cx="149.5" cy="167.5" r="81" stroke="#3F3F3F" stroke-opacity="0.1"/>
</g>
<line x1="150.5" y1="98.4189" x2="150.5" y2="113.943" stroke="#9E9FA6" stroke-width="2"/>
<line x1="150.5" y1="217.564" x2="150.5" y2="233.088" stroke="#9E9FA6" stroke-width="2"/>
<line x1="198.012" y1="166.5" x2="213.536" y2="166.5" stroke="#9E9FA6" stroke-width="2"/>
<line x1="82.3594" y1="166.5" x2="97.8832" y2="166.5" stroke="#9E9FA6" stroke-width="2"/>
<line x1="148.164" y1="165" x2="148.164" y2="120.712" stroke="#38455D" stroke-width="5" stroke-linecap="round"/>
<line x1="147" y1="169.224" x2="115.907" y2="169.224" stroke="#546076" stroke-width="5" stroke-linecap="round"/>
<circle cx="149.5" cy="167.5" r="5.88095" fill="#76BC21" stroke="white" stroke-width="4"/>
<line x1="142.009" y1="161.15" x2="192.462" y2="205.393" stroke="#76BC21" stroke-width="2"/>
<path d="M50 264H249V362.4C249 371.361 249 375.841 247.256 379.264C245.722 382.274 243.274 384.722 240.264 386.256C236.841 388 232.361 388 223.4 388H75.6C66.6392 388 62.1587 388 58.7362 386.256C55.7256 384.722 53.2779 382.274 51.7439 379.264C50 375.841 50 371.361 50 362.4V264Z" fill="white"/>
<g clip-path="url(#clip1_1007_3984)">
<rect x="76" y="279" width="26" height="26" rx="10" fill="#64728C" fill-opacity="0.06"/>
<path d="M89.5302 288.47C89.4608 288.4 89.3781 288.344 89.2871 288.307C89.1961 288.269 89.0986 288.249 89 288.249C88.9014 288.249 88.8039 288.269 88.7129 288.307C88.6219 288.344 88.5392 288.4 88.4698 288.47L85.2875 291.652C85.1509 291.793 85.0753 291.983 85.077 292.18C85.0787 292.376 85.1576 292.564 85.2966 292.703C85.4357 292.842 85.6238 292.921 85.8204 292.923C86.0171 292.925 86.2065 292.849 86.348 292.712L88.25 290.81V295C88.25 295.199 88.329 295.39 88.4697 295.53C88.6103 295.671 88.8011 295.75 89 295.75C89.1989 295.75 89.3897 295.671 89.5303 295.53C89.671 295.39 89.75 295.199 89.75 295V290.81L91.652 292.712C91.7935 292.849 91.9829 292.925 92.1796 292.923C92.3762 292.921 92.5643 292.842 92.7034 292.703C92.8424 292.564 92.9213 292.376 92.923 292.18C92.9247 291.983 92.8491 291.793 92.7125 291.652L89.5302 288.47ZM89 299.5C84.8578 299.5 81.5 296.142 81.5 292C81.5 287.858 84.8578 284.5 89 284.5C93.1423 284.5 96.5 287.858 96.5 292C96.5 296.142 93.1423 299.5 89 299.5Z" fill="#929BAA"/>
<g filter="url(#filter3_i_1007_3984)">
<rect x="70" y="307" width="38" height="38" rx="10" fill="white"/>
<rect x="70.5" y="307.5" width="37" height="37" rx="9.5" stroke="#E8EAEF"/>
<path d="M84.4062 332.281C82.9635 332.281 81.9505 331.776 81.3672 330.766C80.7891 329.755 80.5 328.315 80.5 326.445C80.5 324.576 80.7891 323.133 81.3672 322.117C81.9505 321.102 82.9635 320.594 84.4062 320.594C85.849 320.594 86.862 321.102 87.4453 322.117C88.0234 323.133 88.3125 324.576 88.3125 326.445C88.3125 328.315 88.0208 329.755 87.4375 330.766C86.8594 331.776 85.849 332.281 84.4062 332.281ZM85.7109 329.43C85.9141 328.742 86.0156 327.747 86.0156 326.445C86.0156 325.081 85.9115 324.07 85.7031 323.414C85.5 322.758 85.0677 322.43 84.4062 322.43C83.7448 322.43 83.3073 322.758 83.0938 323.414C82.8802 324.07 82.7734 325.081 82.7734 326.445C82.7734 327.747 82.8802 328.745 83.0938 329.438C83.3073 330.125 83.7448 330.469 84.4062 330.469C85.0677 330.469 85.5026 330.122 85.7109 329.43ZM93.0625 332.328C92.2135 332.328 91.4505 332.078 90.7734 331.578C90.0964 331.073 89.7083 330.339 89.6094 329.375H91.8281C91.8802 329.708 92.0208 329.979 92.25 330.188C92.4792 330.396 92.7839 330.5 93.1641 330.5C93.8984 330.5 94.4141 330.094 94.7109 329.281C94.8724 328.833 94.974 328.18 95.0156 327.32C94.8125 327.576 94.5964 327.771 94.3672 327.906C93.9505 328.156 93.4375 328.281 92.8281 328.281C91.9271 328.281 91.1276 327.971 90.4297 327.352C89.7318 326.727 89.3828 325.828 89.3828 324.656C89.3828 323.443 89.7318 322.461 90.4297 321.711C91.1328 320.956 92.0443 320.578 93.1641 320.578C94.888 320.578 96.0703 321.341 96.7109 322.867C97.0755 323.732 97.2578 324.87 97.2578 326.281C97.2578 327.651 97.0833 328.794 96.7344 329.711C96.0677 331.456 94.8438 332.328 93.0625 332.328ZM92.2812 322.758C91.8542 323.091 91.6406 323.656 91.6406 324.453C91.6406 325.125 91.776 325.63 92.0469 325.969C92.3229 326.302 92.7448 326.469 93.3125 326.469C93.6198 326.469 93.9089 326.38 94.1797 326.203C94.6849 325.88 94.9375 325.32 94.9375 324.523C94.9375 323.883 94.7865 323.375 94.4844 323C94.1875 322.625 93.7786 322.438 93.2578 322.438C92.8776 322.438 92.5521 322.544 92.2812 322.758Z" fill="#64728C"/>
</g>
<rect x="76" y="347" width="26" height="26" rx="10" fill="#64728C" fill-opacity="0.06"/>
<path d="M88.4698 363.53C88.5392 363.6 88.6219 363.656 88.7129 363.693C88.8039 363.731 88.9014 363.751 89 363.751C89.0986 363.751 89.1961 363.731 89.2871 363.693C89.3781 363.656 89.4608 363.6 89.5302 363.53L92.7125 360.348C92.7841 360.279 92.8413 360.196 92.8806 360.105C92.9199 360.013 92.9406 359.915 92.9414 359.815C92.9423 359.715 92.9233 359.617 92.8856 359.525C92.8479 359.432 92.7922 359.349 92.7218 359.278C92.6514 359.208 92.5676 359.152 92.4755 359.114C92.3833 359.077 92.2845 359.058 92.1849 359.059C92.0854 359.059 91.9869 359.08 91.8954 359.119C91.8039 359.159 91.7212 359.216 91.652 359.288L89.75 361.19V357C89.75 356.801 89.671 356.61 89.5303 356.47C89.3897 356.329 89.1989 356.25 89 356.25C88.8011 356.25 88.6103 356.329 88.4697 356.47C88.329 356.61 88.25 356.801 88.25 357V361.19L86.348 359.288C86.2788 359.216 86.1961 359.159 86.1046 359.119C86.0131 359.08 85.9146 359.059 85.8151 359.059C85.7155 359.058 85.6167 359.077 85.5245 359.114C85.4324 359.152 85.3486 359.208 85.2782 359.278C85.2078 359.349 85.1521 359.432 85.1144 359.525C85.0767 359.617 85.0577 359.715 85.0586 359.815C85.0594 359.915 85.0801 360.013 85.1194 360.105C85.1587 360.196 85.2159 360.279 85.2875 360.348L88.4698 363.53ZM89 367.5C84.8578 367.5 81.5 364.142 81.5 360C81.5 355.858 84.8578 352.5 89 352.5C93.1423 352.5 96.5 355.858 96.5 360C96.5 364.142 93.1423 367.5 89 367.5Z" fill="#929BAA"/>
</g>
<g clip-path="url(#clip2_1007_3984)">
<circle cx="118" cy="321.5" r="2" fill="#64728C"/>
<circle cx="118" cy="330.5" r="2" fill="#64728C"/>
</g>
<g clip-path="url(#clip3_1007_3984)">
<rect x="134" y="279" width="26" height="26" rx="10" fill="#64728C" fill-opacity="0.06"/>
<path d="M147.53 288.47C147.461 288.4 147.378 288.344 147.287 288.307C147.196 288.269 147.099 288.249 147 288.249C146.901 288.249 146.804 288.269 146.713 288.307C146.622 288.344 146.539 288.4 146.47 288.47L143.288 291.652C143.151 291.793 143.075 291.983 143.077 292.18C143.079 292.376 143.158 292.564 143.297 292.703C143.436 292.842 143.624 292.921 143.82 292.923C144.017 292.925 144.207 292.849 144.348 292.712L146.25 290.81V295C146.25 295.199 146.329 295.39 146.47 295.53C146.61 295.671 146.801 295.75 147 295.75C147.199 295.75 147.39 295.671 147.53 295.53C147.671 295.39 147.75 295.199 147.75 295V290.81L149.652 292.712C149.793 292.849 149.983 292.925 150.18 292.923C150.376 292.921 150.564 292.842 150.703 292.703C150.842 292.564 150.921 292.376 150.923 292.18C150.925 291.983 150.849 291.793 150.712 291.652L147.53 288.47ZM147 299.5C142.858 299.5 139.5 296.142 139.5 292C139.5 287.858 142.858 284.5 147 284.5C151.142 284.5 154.5 287.858 154.5 292C154.5 296.142 151.142 299.5 147 299.5Z" fill="#929BAA"/>
<g filter="url(#filter4_i_1007_3984)">
<rect x="128" y="307" width="38" height="38" rx="10" fill="white"/>
<rect x="128.5" y="307.5" width="37" height="37" rx="9.5" stroke="#E8EAEF"/>
<path d="M144.055 332H141.773V324.188H139.109V322.672C139.812 322.641 140.305 322.594 140.586 322.531C141.034 322.432 141.398 322.234 141.68 321.938C141.872 321.734 142.018 321.464 142.117 321.125C142.174 320.922 142.203 320.771 142.203 320.672H144.055V332ZM151.172 326.375C150.901 326.375 150.667 326.409 150.469 326.477C150.12 326.602 149.857 326.833 149.68 327.172L147.68 327.078L148.477 320.82H154.719V322.711H150.086L149.68 325.188C150.023 324.964 150.292 324.815 150.484 324.742C150.807 324.622 151.201 324.562 151.664 324.562C152.602 324.562 153.419 324.878 154.117 325.508C154.815 326.138 155.164 327.055 155.164 328.258C155.164 329.305 154.828 330.24 154.156 331.062C153.484 331.885 152.479 332.297 151.141 332.297C150.062 332.297 149.177 332.008 148.484 331.43C147.792 330.852 147.406 330.031 147.328 328.969H149.547C149.635 329.453 149.805 329.828 150.055 330.094C150.305 330.354 150.669 330.484 151.148 330.484C151.701 330.484 152.12 330.292 152.406 329.906C152.698 329.516 152.844 329.026 152.844 328.438C152.844 327.859 152.708 327.372 152.438 326.977C152.167 326.576 151.745 326.375 151.172 326.375Z" fill="#64728C"/>
</g>
<rect x="134" y="347" width="26" height="26" rx="10" fill="#64728C" fill-opacity="0.06"/>
<path d="M146.47 363.53C146.539 363.6 146.622 363.656 146.713 363.693C146.804 363.731 146.901 363.751 147 363.751C147.099 363.751 147.196 363.731 147.287 363.693C147.378 363.656 147.461 363.6 147.53 363.53L150.712 360.348C150.784 360.279 150.841 360.196 150.881 360.105C150.92 360.013 150.941 359.915 150.941 359.815C150.942 359.715 150.923 359.617 150.886 359.525C150.848 359.432 150.792 359.349 150.722 359.278C150.651 359.208 150.568 359.152 150.475 359.114C150.383 359.077 150.285 359.058 150.185 359.059C150.085 359.059 149.987 359.08 149.895 359.119C149.804 359.159 149.721 359.216 149.652 359.288L147.75 361.19V357C147.75 356.801 147.671 356.61 147.53 356.47C147.39 356.329 147.199 356.25 147 356.25C146.801 356.25 146.61 356.329 146.47 356.47C146.329 356.61 146.25 356.801 146.25 357V361.19L144.348 359.288C144.279 359.216 144.196 359.159 144.105 359.119C144.013 359.08 143.915 359.059 143.815 359.059C143.715 359.058 143.617 359.077 143.525 359.114C143.432 359.152 143.349 359.208 143.278 359.278C143.208 359.349 143.152 359.432 143.114 359.525C143.077 359.617 143.058 359.715 143.059 359.815C143.059 359.915 143.08 360.013 143.119 360.105C143.159 360.196 143.216 360.279 143.288 360.348L146.47 363.53ZM147 367.5C142.858 367.5 139.5 364.142 139.5 360C139.5 355.858 142.858 352.5 147 352.5C151.142 352.5 154.5 355.858 154.5 360C154.5 364.142 151.142 367.5 147 367.5Z" fill="#929BAA"/>
</g>
<g clip-path="url(#clip4_1007_3984)">
<g filter="url(#filter5_d_1007_3984)">
<mask id="path-31-inside-1_1007_3984" fill="white">
<path d="M179 290C179 284.477 183.477 280 189 280H219C224.523 280 229 284.477 229 290V312C229 317.523 224.523 322 219 322H189C183.477 322 179 317.523 179 312V290Z"/>
</mask>
<path d="M179 290C179 284.477 183.477 280 189 280H219C224.523 280 229 284.477 229 290V312C229 317.523 224.523 322 219 322H189C183.477 322 179 317.523 179 312V290Z" fill="#64728C" fill-opacity="0.12" shape-rendering="crispEdges"/>
<path d="M179 290C179 284.477 183.477 280 189 280H219C224.523 280 229 284.477 229 290V312C229 317.523 224.523 322 219 322H189C183.477 322 179 317.523 179 312V290Z" fill="url(#paint0_linear_1007_3984)" fill-opacity="0.5" shape-rendering="crispEdges"/>
<path d="M179 280H229H179ZM229 312C229 318.627 223.627 324 217 324H191C184.373 324 179 318.627 179 312C179 316.418 183.477 320 189 320H219C224.523 320 229 316.418 229 312ZM179 322V280V322ZM229 280V322V280Z" fill="#64728C" fill-opacity="0.45" mask="url(#path-31-inside-1_1007_3984)"/>
<path d="M192.344 306.128C192.088 306.128 191.88 306.069 191.72 305.952C191.571 305.835 191.48 305.68 191.448 305.488C191.416 305.285 191.453 305.061 191.56 304.816L195.784 295.456C195.923 295.147 196.088 294.928 196.28 294.8C196.483 294.661 196.712 294.592 196.968 294.592C197.213 294.592 197.432 294.661 197.624 294.8C197.827 294.928 197.997 295.147 198.136 295.456L202.376 304.816C202.493 305.061 202.536 305.285 202.504 305.488C202.472 305.691 202.381 305.851 202.232 305.968C202.083 306.075 201.885 306.128 201.64 306.128C201.341 306.128 201.107 306.059 200.936 305.92C200.776 305.771 200.632 305.547 200.504 305.248L199.464 302.832L200.328 303.392H193.576L194.44 302.832L193.416 305.248C193.277 305.557 193.133 305.781 192.984 305.92C192.835 306.059 192.621 306.128 192.344 306.128ZM196.936 296.944L194.696 302.272L194.28 301.76H199.624L199.224 302.272L196.968 296.944H196.936ZM205.098 306.128C204.8 306.128 204.57 306.043 204.41 305.872C204.25 305.701 204.17 305.467 204.17 305.168V295.552C204.17 295.243 204.256 295.008 204.426 294.848C204.597 294.677 204.832 294.592 205.13 294.592C205.397 294.592 205.605 294.645 205.754 294.752C205.914 294.848 206.058 295.019 206.186 295.264L210.138 302.576H209.626L213.578 295.264C213.706 295.019 213.845 294.848 213.994 294.752C214.144 294.645 214.352 294.592 214.618 294.592C214.917 294.592 215.146 294.677 215.306 294.848C215.466 295.008 215.546 295.243 215.546 295.552V305.168C215.546 305.467 215.466 305.701 215.306 305.872C215.157 306.043 214.928 306.128 214.618 306.128C214.32 306.128 214.09 306.043 213.93 305.872C213.77 305.701 213.69 305.467 213.69 305.168V297.76H214.042L210.682 303.888C210.576 304.069 210.464 304.203 210.346 304.288C210.229 304.373 210.069 304.416 209.866 304.416C209.664 304.416 209.498 304.373 209.37 304.288C209.242 304.192 209.13 304.059 209.034 303.888L205.642 297.744H206.026V305.168C206.026 305.467 205.946 305.701 205.786 305.872C205.637 306.043 205.408 306.128 205.098 306.128Z" fill="#64728C"/>
</g>
<g filter="url(#filter6_i_1007_3984)">
<path d="M179.5 340C179.5 334.477 183.977 330 189.5 330H218.5C224.023 330 228.5 334.477 228.5 340V362C228.5 367.523 224.023 372 218.5 372H189.5C183.977 372 179.5 367.523 179.5 362V340Z" fill="#76BC21"/>
<path d="M193.756 356.128C193.425 356.128 193.169 356.037 192.988 355.856C192.817 355.664 192.732 355.403 192.732 355.072V345.76C192.732 345.419 192.823 345.163 193.004 344.992C193.185 344.811 193.441 344.72 193.772 344.72H197.628C198.865 344.72 199.82 345.029 200.492 345.648C201.164 346.267 201.5 347.131 201.5 348.24C201.5 349.349 201.164 350.219 200.492 350.848C199.82 351.467 198.865 351.776 197.628 351.776H194.78V355.072C194.78 355.403 194.695 355.664 194.524 355.856C194.353 356.037 194.097 356.128 193.756 356.128ZM194.78 350.16H197.308C198.033 350.16 198.583 350 198.956 349.68C199.329 349.349 199.516 348.869 199.516 348.24C199.516 347.611 199.329 347.136 198.956 346.816C198.583 346.496 198.033 346.336 197.308 346.336H194.78V350.16ZM204.13 356.128C203.831 356.128 203.602 356.043 203.442 355.872C203.282 355.701 203.202 355.467 203.202 355.168V345.552C203.202 345.243 203.287 345.008 203.458 344.848C203.628 344.677 203.863 344.592 204.162 344.592C204.428 344.592 204.636 344.645 204.786 344.752C204.946 344.848 205.09 345.019 205.218 345.264L209.17 352.576H208.658L212.61 345.264C212.738 345.019 212.876 344.848 213.026 344.752C213.175 344.645 213.383 344.592 213.65 344.592C213.948 344.592 214.178 344.677 214.338 344.848C214.498 345.008 214.578 345.243 214.578 345.552V355.168C214.578 355.467 214.498 355.701 214.338 355.872C214.188 356.043 213.959 356.128 213.65 356.128C213.351 356.128 213.122 356.043 212.962 355.872C212.802 355.701 212.722 355.467 212.722 355.168V347.76H213.074L209.714 353.888C209.607 354.069 209.495 354.203 209.378 354.288C209.26 354.373 209.1 354.416 208.898 354.416C208.695 354.416 208.53 354.373 208.402 354.288C208.274 354.192 208.162 354.059 208.066 353.888L204.674 347.744H205.058V355.168C205.058 355.467 204.978 355.701 204.818 355.872C204.668 356.043 204.439 356.128 204.13 356.128Z" fill="white"/>
</g>
</g>
</g>
<rect x="50.5" y="71.5" width="198" height="320" rx="15.5" stroke="#64728C" stroke-opacity="0.2"/>
</g>
</g>
<rect x="50.5" y="21.5" width="199" height="44" rx="11.5" fill="white"/>
<rect x="50.5" y="21.5" width="199" height="44" rx="11.5" stroke="#E8EAEF"/>
<path d="M97.0846 43.852C97.0846 44.172 97.0952 44.5613 97.1166 45.02C97.1379 45.468 97.2019 45.9053 97.3086 46.332C97.4259 46.748 97.6072 47.1053 97.8526 47.404C98.0979 47.7027 98.4499 47.852 98.9086 47.852C99.3779 47.852 99.7352 47.7027 99.9806 47.404C100.237 47.1053 100.418 46.748 100.525 46.332C100.642 45.9053 100.711 45.468 100.733 45.02C100.754 44.5613 100.765 44.172 100.765 43.852C100.765 43.66 100.759 43.4307 100.749 43.164C100.749 42.8867 100.727 42.604 100.685 42.316C100.653 42.028 100.599 41.7453 100.525 41.468C100.461 41.18 100.359 40.924 100.221 40.7C100.082 40.476 99.9059 40.2947 99.6926 40.156C99.4792 40.0173 99.2179 39.948 98.9086 39.948C98.5992 39.948 98.3379 40.0173 98.1246 40.156C97.9219 40.2947 97.7512 40.476 97.6126 40.7C97.4846 40.924 97.3832 41.18 97.3086 41.468C97.2339 41.7453 97.1806 42.028 97.1486 42.316C97.1166 42.604 97.0952 42.8867 97.0846 43.164C97.0846 43.4307 97.0846 43.66 97.0846 43.852ZM94.8126 43.852C94.8126 42.764 94.9192 41.852 95.1326 41.116C95.3566 40.3693 95.6552 39.772 96.0286 39.324C96.4019 38.876 96.8339 38.556 97.3246 38.364C97.8259 38.172 98.3539 38.076 98.9086 38.076C99.4739 38.076 100.002 38.172 100.493 38.364C100.994 38.556 101.431 38.876 101.805 39.324C102.189 39.772 102.487 40.3693 102.701 41.116C102.925 41.852 103.037 42.764 103.037 43.852C103.037 44.972 102.925 45.9107 102.701 46.668C102.487 47.4147 102.189 48.012 101.805 48.46C101.431 48.908 100.994 49.228 100.493 49.42C100.002 49.612 99.4739 49.708 98.9086 49.708C98.3539 49.708 97.8259 49.612 97.3246 49.42C96.8339 49.228 96.4019 48.908 96.0286 48.46C95.6552 48.012 95.3566 47.4147 95.1326 46.668C94.9192 45.9107 94.8126 44.972 94.8126 43.852ZM107.687 44.108C107.997 44.108 108.263 44.0547 108.487 43.948C108.711 43.8307 108.898 43.676 109.047 43.484C109.197 43.292 109.309 43.0733 109.383 42.828C109.458 42.572 109.495 42.3053 109.495 42.028C109.495 41.772 109.453 41.5213 109.367 41.276C109.293 41.02 109.175 40.796 109.015 40.604C108.866 40.4013 108.679 40.2413 108.455 40.124C108.231 40.0067 107.975 39.948 107.687 39.948C107.421 39.948 107.181 40.0067 106.967 40.124C106.754 40.2413 106.573 40.396 106.423 40.588C106.274 40.78 106.162 40.9987 106.087 41.244C106.013 41.4893 105.975 41.74 105.975 41.996C105.975 42.2627 106.007 42.524 106.071 42.78C106.146 43.0253 106.253 43.2493 106.391 43.452C106.53 43.644 106.706 43.804 106.919 43.932C107.143 44.0493 107.399 44.108 107.687 44.108ZM106.055 46.62C106.13 46.9933 106.301 47.3187 106.567 47.596C106.834 47.8733 107.165 48.012 107.559 48.012C107.975 48.012 108.317 47.8947 108.583 47.66C108.85 47.4147 109.063 47.1213 109.223 46.78C109.383 46.428 109.495 46.0547 109.559 45.66C109.634 45.2653 109.682 44.9133 109.703 44.604L109.671 44.572C109.362 45.02 108.999 45.34 108.583 45.532C108.167 45.724 107.687 45.82 107.143 45.82C106.663 45.82 106.194 45.7187 105.735 45.516C105.277 45.3027 104.887 45.02 104.567 44.668C104.269 44.3267 104.05 43.9373 103.911 43.5C103.773 43.0627 103.703 42.62 103.703 42.172C103.703 41.596 103.794 41.0627 103.975 40.572C104.167 40.0707 104.434 39.6387 104.775 39.276C105.127 38.9027 105.543 38.6093 106.023 38.396C106.503 38.1827 107.037 38.076 107.623 38.076C108.477 38.076 109.175 38.2467 109.719 38.588C110.274 38.9187 110.717 39.3613 111.047 39.916C111.378 40.46 111.607 41.0787 111.735 41.772C111.863 42.4653 111.927 43.164 111.927 43.868C111.927 44.5613 111.847 45.2547 111.687 45.948C111.527 46.6413 111.271 47.2707 110.919 47.836C110.567 48.3907 110.114 48.844 109.559 49.196C109.005 49.5373 108.327 49.708 107.527 49.708C107.047 49.708 106.599 49.6387 106.183 49.5C105.767 49.372 105.399 49.1747 105.079 48.908C104.759 48.6413 104.498 48.316 104.295 47.932C104.093 47.548 103.959 47.1107 103.895 46.62H106.055ZM120.199 43.836H117.687V41.372H120.199V43.836ZM117.687 47.036H120.199V49.5H117.687V47.036ZM126.209 42.604C126.188 41.964 126.263 41.372 126.433 40.828C126.604 40.2733 126.86 39.7933 127.201 39.388C127.543 38.972 127.969 38.652 128.481 38.428C129.004 38.1933 129.601 38.076 130.273 38.076C130.785 38.076 131.271 38.156 131.729 38.316C132.199 38.476 132.609 38.7053 132.961 39.004C133.313 39.3027 133.591 39.6707 133.793 40.108C134.007 40.5453 134.113 41.036 134.113 41.58C134.113 42.1453 134.023 42.6307 133.841 43.036C133.66 43.4413 133.42 43.804 133.121 44.124C132.823 44.4333 132.481 44.716 132.097 44.972C131.724 45.228 131.345 45.484 130.961 45.74C130.577 45.9853 130.204 46.252 129.841 46.54C129.479 46.828 129.159 47.164 128.881 47.548H134.177V49.5H125.953C125.953 48.8493 126.044 48.284 126.225 47.804C126.417 47.324 126.673 46.8973 126.993 46.524C127.313 46.14 127.687 45.788 128.113 45.468C128.551 45.148 129.009 44.8227 129.489 44.492C129.735 44.3213 129.996 44.1507 130.273 43.98C130.551 43.7987 130.801 43.6013 131.025 43.388C131.26 43.1747 131.452 42.9347 131.601 42.668C131.761 42.4013 131.841 42.0973 131.841 41.756C131.841 41.212 131.681 40.7907 131.361 40.492C131.052 40.1827 130.652 40.028 130.161 40.028C129.831 40.028 129.548 40.108 129.313 40.268C129.089 40.4173 128.908 40.62 128.769 40.876C128.631 41.1213 128.529 41.3987 128.465 41.708C128.412 42.0067 128.385 42.3053 128.385 42.604H126.209ZM142.508 40.172H137.884L137.436 42.716L137.468 42.748C137.777 42.4387 138.108 42.22 138.46 42.092C138.812 41.9533 139.212 41.884 139.66 41.884C140.214 41.884 140.705 41.9853 141.132 42.188C141.558 42.3907 141.916 42.6627 142.204 43.004C142.502 43.3453 142.726 43.7507 142.876 44.22C143.036 44.6787 143.116 45.1693 143.116 45.692C143.116 46.268 143.004 46.8067 142.78 47.308C142.556 47.7987 142.252 48.2253 141.868 48.588C141.494 48.9507 141.057 49.2333 140.556 49.436C140.054 49.628 139.521 49.7187 138.956 49.708C138.412 49.708 137.889 49.6387 137.388 49.5C136.897 49.3507 136.46 49.1267 136.076 48.828C135.692 48.5293 135.382 48.1613 135.148 47.724C134.924 47.276 134.806 46.7587 134.796 46.172H137.068C137.121 46.684 137.313 47.0947 137.644 47.404C137.974 47.7027 138.396 47.852 138.908 47.852C139.206 47.852 139.473 47.7933 139.708 47.676C139.953 47.548 140.156 47.388 140.316 47.196C140.486 46.9933 140.614 46.764 140.7 46.508C140.796 46.2413 140.844 45.9693 140.844 45.692C140.844 45.404 140.801 45.132 140.716 44.876C140.63 44.62 140.502 44.396 140.332 44.204C140.161 44.012 139.958 43.8627 139.724 43.756C139.489 43.6493 139.217 43.596 138.908 43.596C138.502 43.596 138.172 43.6707 137.916 43.82C137.66 43.9587 137.42 44.1827 137.196 44.492H135.148L136.252 38.3H142.508V40.172ZM154.545 43.676H158.289C159.046 43.676 159.659 43.484 160.129 43.1C160.598 42.716 160.833 42.1293 160.833 41.34C160.833 40.5507 160.598 39.964 160.129 39.58C159.659 39.196 159.046 39.004 158.289 39.004H154.545V43.676ZM153.457 38.076H158.529C159.041 38.076 159.505 38.1507 159.921 38.3C160.337 38.4387 160.694 38.652 160.993 38.94C161.291 39.2173 161.521 39.5587 161.681 39.964C161.841 40.3693 161.921 40.828 161.921 41.34C161.921 41.852 161.841 42.3107 161.681 42.716C161.521 43.1213 161.291 43.468 160.993 43.756C160.694 44.0333 160.337 44.2467 159.921 44.396C159.505 44.5347 159.041 44.604 158.529 44.604H154.545V49.5H153.457V38.076ZM165.103 38.076L168.895 48.092L172.831 38.076H174.431V49.5H173.343V39.628H173.311L169.407 49.5H168.383L164.623 39.628H164.591V49.5H163.503V38.076H165.103Z" fill="#64728C"/>
<rect x="210" y="25.5" width="36" height="36" rx="12" fill="#64728C" fill-opacity="0.12"/>
<path d="M228 50.5C231.866 50.5 235 47.366 235 43.5C235 39.634 231.866 36.5 228 36.5C224.134 36.5 221 39.634 221 43.5C221 47.366 224.134 50.5 228 50.5Z" stroke="#64728C" stroke-width="2" stroke-linecap="round" stroke-linejoin="round"/>
<path d="M228 39.876V44.9403L230.8 46.6285" stroke="#64728C" stroke-width="2" stroke-linecap="round" stroke-linejoin="round"/>
<path d="M53.804 12.108C53.436 12.108 53.076 12.08 52.724 12.024C52.372 11.968 52.04 11.884 51.728 11.772C51.416 11.652 51.136 11.508 50.888 11.34C50.768 11.252 50.684 11.152 50.636 11.04C50.596 10.928 50.584 10.82 50.6 10.716C50.624 10.604 50.672 10.508 50.744 10.428C50.816 10.348 50.904 10.3 51.008 10.284C51.112 10.26 51.228 10.292 51.356 10.38C51.716 10.612 52.096 10.784 52.496 10.896C52.896 11 53.332 11.052 53.804 11.052C54.484 11.052 54.984 10.932 55.304 10.692C55.632 10.444 55.796 10.124 55.796 9.732C55.796 9.412 55.68 9.16 55.448 8.976C55.216 8.784 54.828 8.632 54.284 8.52L53 8.256C52.24 8.096 51.672 7.832 51.296 7.464C50.928 7.096 50.744 6.6 50.744 5.976C50.744 5.6 50.82 5.256 50.972 4.944C51.132 4.632 51.352 4.364 51.632 4.14C51.912 3.908 52.248 3.732 52.64 3.612C53.032 3.492 53.46 3.432 53.924 3.432C54.42 3.432 54.884 3.496 55.316 3.624C55.756 3.752 56.148 3.948 56.492 4.212C56.596 4.284 56.664 4.376 56.696 4.488C56.736 4.592 56.744 4.696 56.72 4.8C56.704 4.904 56.66 4.992 56.588 5.064C56.516 5.136 56.424 5.18 56.312 5.196C56.2 5.204 56.076 5.164 55.94 5.076C55.628 4.868 55.308 4.72 54.98 4.632C54.66 4.536 54.304 4.488 53.912 4.488C53.52 4.488 53.176 4.548 52.88 4.668C52.592 4.788 52.368 4.956 52.208 5.172C52.056 5.388 51.98 5.644 51.98 5.94C51.98 6.276 52.088 6.544 52.304 6.744C52.52 6.944 52.88 7.096 53.384 7.2L54.656 7.464C55.456 7.632 56.052 7.892 56.444 8.244C56.836 8.596 57.032 9.064 57.032 9.648C57.032 10.024 56.956 10.364 56.804 10.668C56.652 10.964 56.436 11.22 56.156 11.436C55.876 11.652 55.536 11.82 55.136 11.94C54.744 12.052 54.3 12.108 53.804 12.108ZM61.0648 12.108C60.4248 12.108 59.8728 11.988 59.4088 11.748C58.9528 11.5 58.5968 11.152 58.3408 10.704C58.0928 10.248 57.9688 9.708 57.9688 9.084C57.9688 8.476 58.0928 7.944 58.3408 7.488C58.5888 7.032 58.9288 6.676 59.3608 6.42C59.7928 6.164 60.2848 6.036 60.8368 6.036C61.2448 6.036 61.6088 6.104 61.9288 6.24C62.2488 6.368 62.5208 6.56 62.7448 6.816C62.9768 7.064 63.1488 7.368 63.2608 7.728C63.3808 8.088 63.4408 8.492 63.4408 8.94C63.4408 9.076 63.4008 9.18 63.3208 9.252C63.2408 9.316 63.1208 9.348 62.9608 9.348H58.9288V8.604H62.6248L62.4208 8.772C62.4208 8.372 62.3608 8.032 62.2408 7.752C62.1288 7.472 61.9568 7.26 61.7248 7.116C61.5008 6.964 61.2208 6.888 60.8848 6.888C60.5088 6.888 60.1888 6.976 59.9248 7.152C59.6688 7.328 59.4728 7.572 59.3368 7.884C59.2008 8.196 59.1328 8.56 59.1328 8.976V9.048C59.1328 9.752 59.2968 10.284 59.6248 10.644C59.9608 10.996 60.4448 11.172 61.0768 11.172C61.3168 11.172 61.5688 11.14 61.8328 11.076C62.1048 11.012 62.3608 10.904 62.6008 10.752C62.7368 10.672 62.8568 10.636 62.9608 10.644C63.0728 10.652 63.1608 10.688 63.2248 10.752C63.2968 10.816 63.3408 10.896 63.3568 10.992C63.3728 11.088 63.3568 11.188 63.3088 11.292C63.2608 11.388 63.1768 11.476 63.0568 11.556C62.7848 11.74 62.4688 11.88 62.1088 11.976C61.7488 12.064 61.4008 12.108 61.0648 12.108ZM67.2464 12.108C66.7664 12.108 66.3624 12.024 66.0344 11.856C65.7064 11.688 65.4624 11.44 65.3024 11.112C65.1424 10.784 65.0624 10.384 65.0624 9.912V7.08H64.3424C64.1824 7.08 64.0584 7.04 63.9704 6.96C63.8824 6.872 63.8384 6.756 63.8384 6.612C63.8384 6.46 63.8824 6.344 63.9704 6.264C64.0584 6.184 64.1824 6.144 64.3424 6.144H65.0624V4.908C65.0624 4.708 65.1144 4.556 65.2184 4.452C65.3304 4.348 65.4824 4.296 65.6744 4.296C65.8664 4.296 66.0144 4.348 66.1184 4.452C66.2224 4.556 66.2744 4.708 66.2744 4.908V6.144H67.6784C67.8384 6.144 67.9624 6.184 68.0504 6.264C68.1384 6.344 68.1824 6.46 68.1824 6.612C68.1824 6.756 68.1384 6.872 68.0504 6.96C67.9624 7.04 67.8384 7.08 67.6784 7.08H66.2744V9.816C66.2744 10.24 66.3624 10.56 66.5384 10.776C66.7224 10.992 67.0184 11.1 67.4264 11.1C67.5704 11.1 67.6944 11.088 67.7984 11.064C67.9104 11.032 68.0024 11.012 68.0744 11.004C68.1624 11.004 68.2344 11.036 68.2904 11.1C68.3464 11.156 68.3744 11.268 68.3744 11.436C68.3744 11.556 68.3504 11.668 68.3024 11.772C68.2624 11.876 68.1864 11.944 68.0744 11.976C67.9784 12.008 67.8464 12.036 67.6784 12.06C67.5184 12.092 67.3744 12.108 67.2464 12.108ZM75.1173 12.084C74.9173 12.084 74.7613 12.028 74.6493 11.916C74.5453 11.804 74.4933 11.648 74.4933 11.448V4.584H71.9493C71.7813 4.584 71.6493 4.54 71.5533 4.452C71.4573 4.356 71.4093 4.224 71.4093 4.056C71.4093 3.888 71.4573 3.76 71.5533 3.672C71.6493 3.584 71.7813 3.54 71.9493 3.54H78.2733C78.4493 3.54 78.5853 3.584 78.6813 3.672C78.7773 3.76 78.8253 3.888 78.8253 4.056C78.8253 4.224 78.7773 4.356 78.6813 4.452C78.5853 4.54 78.4493 4.584 78.2733 4.584H75.7293V11.448C75.7293 11.648 75.6773 11.804 75.5733 11.916C75.4773 12.028 75.3253 12.084 75.1173 12.084ZM80.702 12.072C80.51 12.072 80.362 12.016 80.258 11.904C80.154 11.784 80.102 11.62 80.102 11.412V6.732C80.102 6.524 80.154 6.364 80.258 6.252C80.362 6.14 80.51 6.084 80.702 6.084C80.894 6.084 81.042 6.14 81.146 6.252C81.258 6.364 81.314 6.524 81.314 6.732V11.412C81.314 11.62 81.262 11.784 81.158 11.904C81.054 12.016 80.902 12.072 80.702 12.072ZM80.702 4.836C80.462 4.836 80.274 4.776 80.138 4.656C80.01 4.536 79.946 4.368 79.946 4.152C79.946 3.928 80.01 3.76 80.138 3.648C80.274 3.528 80.462 3.468 80.702 3.468C80.942 3.468 81.126 3.528 81.254 3.648C81.39 3.76 81.458 3.928 81.458 4.152C81.458 4.368 81.39 4.536 81.254 4.656C81.126 4.776 80.942 4.836 80.702 4.836ZM83.644 12.084C83.452 12.084 83.304 12.032 83.2 11.928C83.096 11.816 83.044 11.664 83.044 11.472V6.672C83.044 6.472 83.096 6.32 83.2 6.216C83.304 6.112 83.448 6.06 83.632 6.06C83.824 6.06 83.968 6.112 84.064 6.216C84.168 6.32 84.22 6.472 84.22 6.672V7.656L84.088 7.392C84.248 6.968 84.496 6.636 84.832 6.396C85.168 6.156 85.572 6.036 86.044 6.036C86.532 6.036 86.928 6.152 87.232 6.384C87.536 6.616 87.744 6.972 87.856 7.452H87.688C87.84 7.012 88.1 6.668 88.468 6.42C88.836 6.164 89.264 6.036 89.752 6.036C90.2 6.036 90.568 6.124 90.856 6.3C91.144 6.468 91.36 6.728 91.504 7.08C91.648 7.424 91.72 7.86 91.72 8.388V11.472C91.72 11.664 91.664 11.816 91.552 11.928C91.448 12.032 91.3 12.084 91.108 12.084C90.916 12.084 90.768 12.032 90.664 11.928C90.56 11.816 90.508 11.664 90.508 11.472V8.448C90.508 7.952 90.42 7.588 90.244 7.356C90.076 7.124 89.796 7.008 89.404 7.008C88.964 7.008 88.616 7.16 88.36 7.464C88.104 7.768 87.976 8.188 87.976 8.724V11.472C87.976 11.664 87.924 11.816 87.82 11.928C87.716 12.032 87.568 12.084 87.376 12.084C87.184 12.084 87.032 12.032 86.92 11.928C86.816 11.816 86.764 11.664 86.764 11.472V8.448C86.764 7.952 86.68 7.588 86.512 7.356C86.344 7.124 86.064 7.008 85.672 7.008C85.232 7.008 84.884 7.16 84.628 7.464C84.38 7.768 84.256 8.188 84.256 8.724V11.472C84.256 11.88 84.052 12.084 83.644 12.084ZM96.1625 12.108C95.5225 12.108 94.9705 11.988 94.5065 11.748C94.0505 11.5 93.6945 11.152 93.4385 10.704C93.1905 10.248 93.0665 9.708 93.0665 9.084C93.0665 8.476 93.1905 7.944 93.4385 7.488C93.6865 7.032 94.0265 6.676 94.4585 6.42C94.8905 6.164 95.3825 6.036 95.9345 6.036C96.3425 6.036 96.7065 6.104 97.0265 6.24C97.3465 6.368 97.6185 6.56 97.8425 6.816C98.0745 7.064 98.2465 7.368 98.3585 7.728C98.4785 8.088 98.5385 8.492 98.5385 8.94C98.5385 9.076 98.4985 9.18 98.4185 9.252C98.3385 9.316 98.2185 9.348 98.0585 9.348H94.0265V8.604H97.7225L97.5185 8.772C97.5185 8.372 97.4585 8.032 97.3385 7.752C97.2265 7.472 97.0545 7.26 96.8225 7.116C96.5985 6.964 96.3185 6.888 95.9825 6.888C95.6065 6.888 95.2865 6.976 95.0225 7.152C94.7665 7.328 94.5705 7.572 94.4345 7.884C94.2985 8.196 94.2305 8.56 94.2305 8.976V9.048C94.2305 9.752 94.3945 10.284 94.7225 10.644C95.0585 10.996 95.5425 11.172 96.1745 11.172C96.4145 11.172 96.6665 11.14 96.9305 11.076C97.2025 11.012 97.4585 10.904 97.6985 10.752C97.8345 10.672 97.9545 10.636 98.0585 10.644C98.1705 10.652 98.2585 10.688 98.3225 10.752C98.3945 10.816 98.4385 10.896 98.4545 10.992C98.4705 11.088 98.4545 11.188 98.4065 11.292C98.3585 11.388 98.2745 11.476 98.1545 11.556C97.8825 11.74 97.5665 11.88 97.2065 11.976C96.8465 12.064 96.4985 12.108 96.1625 12.108Z" fill="#64728C"/>
<defs>
<filter id="filter0_d_1007_3984" x="0" y="25" width="299" height="421" filterUnits="userSpaceOnUse" color-interpolation-filters="sRGB">
<feFlood flood-opacity="0" result="BackgroundImageFix"/>
<feColorMatrix in="SourceAlpha" type="matrix" values="0 0 0 0 0 0 0 0 0 0 0 0 0 0 0 0 0 0 127 0" result="hardAlpha"/>
<feOffset dy="4"/>
<feGaussianBlur stdDeviation="25"/>
<feComposite in2="hardAlpha" operator="out"/>
<feColorMatrix type="matrix" values="0 0 0 0 0 0 0 0 0 0 0 0 0 0 0 0 0 0 0.05 0"/>
<feBlend mode="normal" in2="BackgroundImageFix" result="effect1_dropShadow_1007_3984"/>
<feBlend mode="normal" in="SourceGraphic" in2="effect1_dropShadow_1007_3984" result="shape"/>
</filter>
<filter id="filter1_d_1007_3984" x="46" y="71" width="207" height="329" filterUnits="userSpaceOnUse" color-interpolation-filters="sRGB">
<feFlood flood-opacity="0" result="BackgroundImageFix"/>
<feColorMatrix in="SourceAlpha" type="matrix" values="0 0 0 0 0 0 0 0 0 0 0 0 0 0 0 0 0 0 127 0" result="hardAlpha"/>
<feOffset dy="4"/>
<feGaussianBlur stdDeviation="2"/>
<feComposite in2="hardAlpha" operator="out"/>
<feColorMatrix type="matrix" values="0 0 0 0 0 0 0 0 0 0 0 0 0 0 0 0 0 0 0.05 0"/>
<feBlend mode="normal" in2="BackgroundImageFix" result="effect1_dropShadow_1007_3984"/>
<feBlend mode="normal" in="SourceGraphic" in2="effect1_dropShadow_1007_3984" result="shape"/>
</filter>
<filter id="filter2_ddii_1007_3984" x="42" y="59" width="217" height="218" filterUnits="userSpaceOnUse" color-interpolation-filters="sRGB">
<feFlood flood-opacity="0" result="BackgroundImageFix"/>
<feColorMatrix in="SourceAlpha" type="matrix" values="0 0 0 0 0 0 0 0 0 0 0 0 0 0 0 0 0 0 127 0" result="hardAlpha"/>
<feOffset dx="-6" dy="-7"/>
<feGaussianBlur stdDeviation="10"/>
<feComposite in2="hardAlpha" operator="out"/>
<feColorMatrix type="matrix" values="0 0 0 0 1 0 0 0 0 1 0 0 0 0 1 0 0 0 0.5 0"/>
<feBlend mode="normal" in2="BackgroundImageFix" result="effect1_dropShadow_1007_3984"/>
<feColorMatrix in="SourceAlpha" type="matrix" values="0 0 0 0 0 0 0 0 0 0 0 0 0 0 0 0 0 0 127 0" result="hardAlpha"/>
<feOffset dx="8" dy="8"/>
<feGaussianBlur stdDeviation="10"/>
<feComposite in2="hardAlpha" operator="out"/>
<feColorMatrix type="matrix" values="0 0 0 0 0.666667 0 0 0 0 0.666667 0 0 0 0 0.666667 0 0 0 0.25 0"/>
<feBlend mode="normal" in2="effect1_dropShadow_1007_3984" result="effect2_dropShadow_1007_3984"/>
<feBlend mode="normal" in="SourceGraphic" in2="effect2_dropShadow_1007_3984" result="shape"/>
<feColorMatrix in="SourceAlpha" type="matrix" values="0 0 0 0 0 0 0 0 0 0 0 0 0 0 0 0 0 0 127 0" result="hardAlpha"/>
<feMorphology radius="1" operator="dilate" in="SourceAlpha" result="effect3_innerShadow_1007_3984"/>
<feOffset dx="5" dy="7"/>
<feGaussianBlur stdDeviation="5"/>
<feComposite in2="hardAlpha" operator="arithmetic" k2="-1" k3="1"/>
<feColorMatrix type="matrix" values="0 0 0 0 0.65 0 0 0 0 0.65 0 0 0 0 0.65 0 0 0 0.25 0"/>
<feBlend mode="normal" in2="shape" result="effect3_innerShadow_1007_3984"/>
<feColorMatrix in="SourceAlpha" type="matrix" values="0 0 0 0 0 0 0 0 0 0 0 0 0 0 0 0 0 0 127 0" result="hardAlpha"/>
<feMorphology radius="2" operator="erode" in="SourceAlpha" result="effect4_innerShadow_1007_3984"/>
<feOffset dx="-6" dy="-1"/>
<feGaussianBlur stdDeviation="5"/>
<feComposite in2="hardAlpha" operator="arithmetic" k2="-1" k3="1"/>
<feColorMatrix type="matrix" values="0 0 0 0 1 0 0 0 0 1 0 0 0 0 1 0 0 0 0.5 0"/>
<feBlend mode="normal" in2="effect3_innerShadow_1007_3984" result="effect4_innerShadow_1007_3984"/>
</filter>
<filter id="filter3_i_1007_3984" x="70" y="307" width="38" height="40" filterUnits="userSpaceOnUse" color-interpolation-filters="sRGB">
<feFlood flood-opacity="0" result="BackgroundImageFix"/>
<feBlend mode="normal" in="SourceGraphic" in2="BackgroundImageFix" result="shape"/>
<feColorMatrix in="SourceAlpha" type="matrix" values="0 0 0 0 0 0 0 0 0 0 0 0 0 0 0 0 0 0 127 0" result="hardAlpha"/>
<feOffset dy="2"/>
<feGaussianBlur stdDeviation="1"/>
<feComposite in2="hardAlpha" operator="arithmetic" k2="-1" k3="1"/>
<feColorMatrix type="matrix" values="0 0 0 0 0 0 0 0 0 0 0 0 0 0 0 0 0 0 0.05 0"/>
<feBlend mode="normal" in2="shape" result="effect1_innerShadow_1007_3984"/>
</filter>
<filter id="filter4_i_1007_3984" x="128" y="307" width="38" height="40" filterUnits="userSpaceOnUse" color-interpolation-filters="sRGB">
<feFlood flood-opacity="0" result="BackgroundImageFix"/>
<feBlend mode="normal" in="SourceGraphic" in2="BackgroundImageFix" result="shape"/>
<feColorMatrix in="SourceAlpha" type="matrix" values="0 0 0 0 0 0 0 0 0 0 0 0 0 0 0 0 0 0 127 0" result="hardAlpha"/>
<feOffset dy="2"/>
<feGaussianBlur stdDeviation="1"/>
<feComposite in2="hardAlpha" operator="arithmetic" k2="-1" k3="1"/>
<feColorMatrix type="matrix" values="0 0 0 0 0 0 0 0 0 0 0 0 0 0 0 0 0 0 0.05 0"/>
<feBlend mode="normal" in2="shape" result="effect1_innerShadow_1007_3984"/>
</filter>
<filter id="filter5_d_1007_3984" x="175" y="280" width="58" height="50" filterUnits="userSpaceOnUse" color-interpolation-filters="sRGB">
<feFlood flood-opacity="0" result="BackgroundImageFix"/>
<feColorMatrix in="SourceAlpha" type="matrix" values="0 0 0 0 0 0 0 0 0 0 0 0 0 0 0 0 0 0 127 0" result="hardAlpha"/>
<feOffset dy="4"/>
<feGaussianBlur stdDeviation="2"/>
<feComposite in2="hardAlpha" operator="out"/>
<feColorMatrix type="matrix" values="0 0 0 0 0 0 0 0 0 0 0 0 0 0 0 0 0 0 0.05 0"/>
<feBlend mode="normal" in2="BackgroundImageFix" result="effect1_dropShadow_1007_3984"/>
<feBlend mode="normal" in="SourceGraphic" in2="effect1_dropShadow_1007_3984" result="shape"/>
</filter>
<filter id="filter6_i_1007_3984" x="179.5" y="330" width="49" height="46" filterUnits="userSpaceOnUse" color-interpolation-filters="sRGB">
<feFlood flood-opacity="0" result="BackgroundImageFix"/>
<feBlend mode="normal" in="SourceGraphic" in2="BackgroundImageFix" result="shape"/>
<feColorMatrix in="SourceAlpha" type="matrix" values="0 0 0 0 0 0 0 0 0 0 0 0 0 0 0 0 0 0 127 0" result="hardAlpha"/>
<feOffset dy="4"/>
<feGaussianBlur stdDeviation="2"/>
<feComposite in2="hardAlpha" operator="arithmetic" k2="-1" k3="1"/>
<feColorMatrix type="matrix" values="0 0 0 0 0 0 0 0 0 0 0 0 0 0 0 0 0 0 0.1 0"/>
<feBlend mode="normal" in2="shape" result="effect1_innerShadow_1007_3984"/>
</filter>
<linearGradient id="paint0_linear_1007_3984" x1="221.5" y1="317" x2="185" y2="284.5" gradientUnits="userSpaceOnUse">
<stop stop-color="white" stop-opacity="0"/>
<stop offset="1" stop-color="white"/>
</linearGradient>
<clipPath id="clip0_1007_3984">
<rect x="50" y="71" width="199" height="321" rx="16" fill="white"/>
</clipPath>
<clipPath id="clip1_1007_3984">
<rect width="38" height="94" fill="white" transform="translate(70 279)"/>
</clipPath>
<clipPath id="clip2_1007_3984">
<rect width="4" height="94" fill="white" transform="translate(116 279)"/>
</clipPath>
<clipPath id="clip3_1007_3984">
<rect width="38" height="94" fill="white" transform="translate(128 279)"/>
</clipPath>
<clipPath id="clip4_1007_3984">
<rect width="55" height="94" fill="white" transform="translate(174 279)"/>
</clipPath>
</defs>
</svg>
