<svg width="144" height="131" viewBox="0 0 144 131" fill="none" xmlns="http://www.w3.org/2000/svg">
<rect width="136" height="115" transform="translate(8 16)" fill="white"/>
<rect x="14" width="116" height="118" rx="16" fill="#E8EAEF" fill-opacity="0.75"/>
<g filter="url(#filter0_d_1032_6126)">
<g clip-path="url(#clip0_1032_6126)">
<rect x="4" y="16" width="136" height="113" rx="14" fill="#E8EAEF"/>
<g filter="url(#filter1_di_1032_6126)">
<rect x="4" y="20" width="136" height="109" rx="14" fill="white"/>
<rect x="4" y="20" width="136" height="109" rx="14" fill="url(#paint0_linear_1032_6126)" fill-opacity="0.1"/>
<rect x="4.5" y="20.5" width="135" height="108" rx="13.5" stroke="url(#paint1_linear_1032_6126)" stroke-opacity="0.2"/>
<path d="M70.95 68.55C71.1 68.7 71.25 68.85 71.4 68.85C71.55 69 71.85 69 72 69C72.15 69 72.45 69 72.6 68.85C72.75 68.7 72.9 68.7 73.05 68.55L79.05 62.55C79.65 61.95 79.65 61.05 79.05 60.45C78.45 59.85 77.55 59.85 76.95 60.45L73.5 63.9V52.5C73.5 51.6 72.9 51 72 51C71.1 51 70.5 51.6 70.5 52.5V63.9L67.05 60.45C66.45 59.85 65.55 59.85 64.95 60.45C64.35 61.05 64.35 61.95 64.95 62.55L70.95 68.55Z" fill="#64728C"/>
<path d="M82.5 64.5C81.6 64.5 81 65.1 81 66V69C81 70.65 79.65 72 78 72H66C64.35 72 63 70.65 63 69V66C63 65.1 62.4 64.5 61.5 64.5C60.6 64.5 60 65.1 60 66V69C60 72.3 62.7 75 66 75H78C81.3 75 84 72.3 84 69V66C84 65.1 83.4 64.5 82.5 64.5Z" fill="#64728C"/>
<path d="M33.86 100.12C32.98 100.12 32.224 99.944 31.592 99.592C30.968 99.232 30.488 98.728 30.152 98.08C29.816 97.424 29.648 96.652 29.648 95.764C29.648 95.1 29.744 94.504 29.936 93.976C30.128 93.44 30.404 92.984 30.764 92.608C31.124 92.224 31.564 91.932 32.084 91.732C32.612 91.524 33.204 91.42 33.86 91.42C34.3 91.42 34.732 91.476 35.156 91.588C35.58 91.7 35.952 91.86 36.272 92.068C36.44 92.172 36.552 92.3 36.608 92.452C36.664 92.596 36.676 92.74 36.644 92.884C36.612 93.02 36.544 93.136 36.44 93.232C36.344 93.328 36.22 93.384 36.068 93.4C35.924 93.408 35.764 93.356 35.588 93.244C35.34 93.084 35.072 92.968 34.784 92.896C34.496 92.824 34.204 92.788 33.908 92.788C33.34 92.788 32.86 92.904 32.468 93.136C32.076 93.368 31.78 93.704 31.58 94.144C31.38 94.584 31.28 95.124 31.28 95.764C31.28 96.396 31.38 96.936 31.58 97.384C31.78 97.832 32.076 98.172 32.468 98.404C32.86 98.636 33.34 98.752 33.908 98.752C34.212 98.752 34.512 98.716 34.808 98.644C35.104 98.564 35.384 98.444 35.648 98.284C35.824 98.18 35.98 98.136 36.116 98.152C36.26 98.16 36.38 98.208 36.476 98.296C36.572 98.384 36.636 98.496 36.668 98.632C36.7 98.76 36.692 98.896 36.644 99.04C36.596 99.176 36.5 99.296 36.356 99.4C36.036 99.632 35.652 99.812 35.204 99.94C34.764 100.06 34.316 100.12 33.86 100.12ZM39.9403 100.12C39.2763 100.12 38.7763 99.932 38.4403 99.556C38.1043 99.172 37.9363 98.612 37.9363 97.876V92.2C37.9363 91.952 38.0003 91.764 38.1283 91.636C38.2563 91.508 38.4403 91.444 38.6803 91.444C38.9203 91.444 39.1043 91.508 39.2323 91.636C39.3683 91.764 39.4363 91.952 39.4363 92.2V97.804C39.4363 98.172 39.5123 98.444 39.6643 98.62C39.8243 98.796 40.0483 98.884 40.3363 98.884C40.4003 98.884 40.4603 98.884 40.5163 98.884C40.5723 98.876 40.6283 98.868 40.6842 98.86C40.7963 98.844 40.8723 98.876 40.9123 98.956C40.9523 99.028 40.9723 99.18 40.9723 99.412C40.9723 99.612 40.9323 99.768 40.8523 99.88C40.7723 99.992 40.6403 100.06 40.4563 100.084C40.3763 100.092 40.2923 100.1 40.2043 100.108C40.1163 100.116 40.0283 100.12 39.9403 100.12ZM42.5123 100.084C42.2723 100.084 42.0883 100.012 41.9603 99.868C41.8323 99.724 41.7683 99.524 41.7683 99.268V94.864C41.7683 94.6 41.8323 94.4 41.9603 94.264C42.0883 94.12 42.2723 94.048 42.5123 94.048C42.7523 94.048 42.9363 94.12 43.0643 94.264C43.2003 94.4 43.2683 94.6 43.2683 94.864V99.268C43.2683 99.524 43.2043 99.724 43.0763 99.868C42.9483 100.012 42.7603 100.084 42.5123 100.084ZM42.5123 92.932C42.2323 92.932 42.0123 92.864 41.8523 92.728C41.7003 92.584 41.6243 92.388 41.6243 92.14C41.6243 91.884 41.7003 91.688 41.8523 91.552C42.0123 91.416 42.2323 91.348 42.5123 91.348C42.8003 91.348 43.0203 91.416 43.1723 91.552C43.3243 91.688 43.4003 91.884 43.4003 92.14C43.4003 92.388 43.3243 92.584 43.1723 92.728C43.0203 92.864 42.8003 92.932 42.5123 92.932ZM47.7189 100.12C47.0549 100.12 46.4829 99.996 46.0029 99.748C45.5229 99.5 45.1509 99.148 44.8869 98.692C44.6309 98.236 44.5029 97.696 44.5029 97.072C44.5029 96.464 44.6269 95.932 44.8749 95.476C45.1309 95.02 45.4789 94.664 45.9189 94.408C46.3669 94.144 46.8749 94.012 47.4429 94.012C47.8589 94.012 48.2309 94.08 48.5589 94.216C48.8949 94.352 49.1789 94.548 49.4109 94.804C49.6509 95.06 49.8309 95.372 49.9509 95.74C50.0789 96.1 50.1429 96.508 50.1429 96.964C50.1429 97.108 50.0909 97.22 49.9869 97.3C49.8909 97.372 49.7509 97.408 49.5669 97.408H45.7149V96.544H49.0869L48.8949 96.724C48.8949 96.356 48.8389 96.048 48.7269 95.8C48.6229 95.552 48.4669 95.364 48.2589 95.236C48.0589 95.1 47.8069 95.032 47.5029 95.032C47.1669 95.032 46.8789 95.112 46.6389 95.272C46.4069 95.424 46.2269 95.644 46.0989 95.932C45.9789 96.212 45.9189 96.548 45.9189 96.94V97.024C45.9189 97.68 46.0709 98.172 46.3749 98.5C46.6869 98.82 47.1429 98.98 47.7429 98.98C47.9509 98.98 48.1829 98.956 48.4389 98.908C48.7029 98.852 48.9509 98.76 49.1829 98.632C49.3509 98.536 49.4989 98.496 49.6269 98.512C49.7549 98.52 49.8549 98.564 49.9269 98.644C50.0069 98.724 50.0549 98.824 50.0709 98.944C50.0869 99.056 50.0629 99.172 49.9989 99.292C49.9429 99.412 49.8429 99.516 49.6989 99.604C49.4189 99.78 49.0949 99.912 48.7269 100C48.3669 100.08 48.0309 100.12 47.7189 100.12ZM52.0748 100.096C51.8348 100.096 51.6508 100.032 51.5228 99.904C51.3948 99.768 51.3308 99.576 51.3308 99.328V94.792C51.3308 94.544 51.3948 94.356 51.5228 94.228C51.6508 94.1 51.8308 94.036 52.0628 94.036C52.2948 94.036 52.4748 94.1 52.6028 94.228C52.7308 94.356 52.7948 94.544 52.7948 94.792V95.608L52.6628 95.308C52.8388 94.884 53.1108 94.564 53.4788 94.348C53.8548 94.124 54.2788 94.012 54.7508 94.012C55.2228 94.012 55.6108 94.1 55.9148 94.276C56.2188 94.452 56.4468 94.72 56.5988 95.08C56.7508 95.432 56.8268 95.88 56.8268 96.424V99.328C56.8268 99.576 56.7628 99.768 56.6348 99.904C56.5068 100.032 56.3228 100.096 56.0828 100.096C55.8428 100.096 55.6548 100.032 55.5188 99.904C55.3908 99.768 55.3268 99.576 55.3268 99.328V96.496C55.3268 96.04 55.2388 95.708 55.0628 95.5C54.8948 95.292 54.6308 95.188 54.2708 95.188C53.8308 95.188 53.4788 95.328 53.2148 95.608C52.9588 95.88 52.8308 96.244 52.8308 96.7V99.328C52.8308 99.84 52.5788 100.096 52.0748 100.096ZM61.0383 100.12C60.5183 100.12 60.0823 100.032 59.7303 99.856C59.3863 99.68 59.1303 99.424 58.9623 99.088C58.7943 98.744 58.7103 98.32 58.7103 97.816V95.26H58.0863C57.8943 95.26 57.7463 95.212 57.6423 95.116C57.5383 95.012 57.4863 94.872 57.4863 94.696C57.4863 94.512 57.5383 94.372 57.6423 94.276C57.7463 94.18 57.8943 94.132 58.0863 94.132H58.7103V93.04C58.7103 92.792 58.7743 92.604 58.9023 92.476C59.0383 92.348 59.2263 92.284 59.4663 92.284C59.7063 92.284 59.8903 92.348 60.0183 92.476C60.1463 92.604 60.2103 92.792 60.2103 93.04V94.132H61.4823C61.6743 94.132 61.8223 94.18 61.9263 94.276C62.0303 94.372 62.0823 94.512 62.0823 94.696C62.0823 94.872 62.0303 95.012 61.9263 95.116C61.8223 95.212 61.6743 95.26 61.4823 95.26H60.2103V97.732C60.2103 98.116 60.2943 98.404 60.4623 98.596C60.6303 98.788 60.9023 98.884 61.2783 98.884C61.4143 98.884 61.5343 98.872 61.6383 98.848C61.7423 98.824 61.8343 98.808 61.9143 98.8C62.0103 98.792 62.0903 98.824 62.1543 98.896C62.2183 98.96 62.2503 99.096 62.2503 99.304C62.2503 99.464 62.2223 99.608 62.1663 99.736C62.1183 99.856 62.0263 99.94 61.8903 99.988C61.7863 100.02 61.6503 100.048 61.4823 100.072C61.3143 100.104 61.1663 100.12 61.0383 100.12ZM67.1736 100C66.9096 100 66.7056 99.932 66.5616 99.796C66.4256 99.652 66.3576 99.448 66.3576 99.184V92.356C66.3576 92.092 66.4256 91.892 66.5616 91.756C66.7056 91.612 66.9096 91.54 67.1736 91.54H69.5016C70.9176 91.54 72.0096 91.904 72.7776 92.632C73.5536 93.36 73.9416 94.404 73.9416 95.764C73.9416 96.444 73.8416 97.048 73.6416 97.576C73.4496 98.096 73.1616 98.536 72.7776 98.896C72.4016 99.256 71.9376 99.532 71.3856 99.724C70.8416 99.908 70.2136 100 69.5016 100H67.1736ZM67.8936 98.728H69.4056C69.9016 98.728 70.3296 98.668 70.6896 98.548C71.0576 98.42 71.3616 98.236 71.6016 97.996C71.8496 97.748 72.0336 97.44 72.1536 97.072C72.2736 96.696 72.3336 96.26 72.3336 95.764C72.3336 94.772 72.0896 94.032 71.6016 93.544C71.1136 93.056 70.3816 92.812 69.4056 92.812H67.8936V98.728ZM77.2862 100.12C76.8622 100.12 76.4822 100.04 76.1462 99.88C75.8182 99.712 75.5582 99.488 75.3662 99.208C75.1822 98.928 75.0902 98.612 75.0902 98.26C75.0902 97.828 75.2022 97.488 75.4262 97.24C75.6502 96.984 76.0142 96.8 76.5182 96.688C77.0222 96.576 77.6982 96.52 78.5462 96.52H79.1462V97.384H78.5582C78.0622 97.384 77.6662 97.408 77.3702 97.456C77.0742 97.504 76.8622 97.588 76.7342 97.708C76.6142 97.82 76.5542 97.98 76.5542 98.188C76.5542 98.452 76.6462 98.668 76.8302 98.836C77.0142 99.004 77.2702 99.088 77.5982 99.088C77.8622 99.088 78.0942 99.028 78.2942 98.908C78.5022 98.78 78.6662 98.608 78.7862 98.392C78.9062 98.176 78.9662 97.928 78.9662 97.648V96.268C78.9662 95.868 78.8782 95.58 78.7022 95.404C78.5262 95.228 78.2302 95.14 77.8142 95.14C77.5822 95.14 77.3302 95.168 77.0582 95.224C76.7942 95.28 76.5142 95.376 76.2182 95.512C76.0662 95.584 75.9302 95.604 75.8102 95.572C75.6982 95.54 75.6102 95.476 75.5462 95.38C75.4822 95.276 75.4502 95.164 75.4502 95.044C75.4502 94.924 75.4822 94.808 75.5462 94.696C75.6102 94.576 75.7182 94.488 75.8702 94.432C76.2382 94.28 76.5902 94.172 76.9262 94.108C77.2702 94.044 77.5822 94.012 77.8622 94.012C78.4382 94.012 78.9102 94.1 79.2782 94.276C79.6542 94.452 79.9342 94.72 80.1182 95.08C80.3022 95.432 80.3942 95.888 80.3942 96.448V99.328C80.3942 99.576 80.3342 99.768 80.2142 99.904C80.0942 100.032 79.9222 100.096 79.6982 100.096C79.4742 100.096 79.2982 100.032 79.1702 99.904C79.0502 99.768 78.9902 99.576 78.9902 99.328V98.752H79.0862C79.0302 99.032 78.9182 99.276 78.7502 99.484C78.5902 99.684 78.3862 99.84 78.1382 99.952C77.8902 100.064 77.6062 100.12 77.2862 100.12ZM84.6047 100.12C84.0847 100.12 83.6487 100.032 83.2967 99.856C82.9527 99.68 82.6967 99.424 82.5287 99.088C82.3607 98.744 82.2767 98.32 82.2767 97.816V95.26H81.6527C81.4607 95.26 81.3127 95.212 81.2087 95.116C81.1047 95.012 81.0527 94.872 81.0527 94.696C81.0527 94.512 81.1047 94.372 81.2087 94.276C81.3127 94.18 81.4607 94.132 81.6527 94.132H82.2767V93.04C82.2767 92.792 82.3407 92.604 82.4687 92.476C82.6047 92.348 82.7927 92.284 83.0327 92.284C83.2727 92.284 83.4567 92.348 83.5847 92.476C83.7127 92.604 83.7767 92.792 83.7767 93.04V94.132H85.0487C85.2407 94.132 85.3887 94.18 85.4927 94.276C85.5967 94.372 85.6487 94.512 85.6487 94.696C85.6487 94.872 85.5967 95.012 85.4927 95.116C85.3887 95.212 85.2407 95.26 85.0487 95.26H83.7767V97.732C83.7767 98.116 83.8607 98.404 84.0287 98.596C84.1967 98.788 84.4687 98.884 84.8447 98.884C84.9807 98.884 85.1007 98.872 85.2047 98.848C85.3087 98.824 85.4007 98.808 85.4807 98.8C85.5767 98.792 85.6567 98.824 85.7207 98.896C85.7847 98.96 85.8167 99.096 85.8167 99.304C85.8167 99.464 85.7887 99.608 85.7327 99.736C85.6847 99.856 85.5927 99.94 85.4567 99.988C85.3527 100.02 85.2167 100.048 85.0487 100.072C84.8807 100.104 84.7327 100.12 84.6047 100.12ZM88.4542 100.12C88.0302 100.12 87.6502 100.04 87.3142 99.88C86.9862 99.712 86.7262 99.488 86.5342 99.208C86.3502 98.928 86.2582 98.612 86.2582 98.26C86.2582 97.828 86.3702 97.488 86.5942 97.24C86.8182 96.984 87.1822 96.8 87.6862 96.688C88.1902 96.576 88.8662 96.52 89.7142 96.52H90.3142V97.384H89.7262C89.2302 97.384 88.8342 97.408 88.5382 97.456C88.2422 97.504 88.0302 97.588 87.9022 97.708C87.7822 97.82 87.7222 97.98 87.7222 98.188C87.7222 98.452 87.8142 98.668 87.9982 98.836C88.1822 99.004 88.4382 99.088 88.7662 99.088C89.0302 99.088 89.2622 99.028 89.4622 98.908C89.6702 98.78 89.8342 98.608 89.9542 98.392C90.0742 98.176 90.1342 97.928 90.1342 97.648V96.268C90.1342 95.868 90.0462 95.58 89.8702 95.404C89.6942 95.228 89.3982 95.14 88.9822 95.14C88.7502 95.14 88.4982 95.168 88.2262 95.224C87.9622 95.28 87.6822 95.376 87.3862 95.512C87.2342 95.584 87.0982 95.604 86.9782 95.572C86.8662 95.54 86.7782 95.476 86.7142 95.38C86.6502 95.276 86.6182 95.164 86.6182 95.044C86.6182 94.924 86.6502 94.808 86.7142 94.696C86.7782 94.576 86.8862 94.488 87.0382 94.432C87.4062 94.28 87.7582 94.172 88.0942 94.108C88.4382 94.044 88.7502 94.012 89.0302 94.012C89.6062 94.012 90.0782 94.1 90.4462 94.276C90.8222 94.452 91.1022 94.72 91.2862 95.08C91.4702 95.432 91.5622 95.888 91.5622 96.448V99.328C91.5622 99.576 91.5022 99.768 91.3822 99.904C91.2622 100.032 91.0902 100.096 90.8662 100.096C90.6422 100.096 90.4662 100.032 90.3382 99.904C90.2182 99.768 90.1582 99.576 90.1582 99.328V98.752H90.2542C90.1982 99.032 90.0862 99.276 89.9182 99.484C89.7582 99.684 89.5542 99.84 89.3062 99.952C89.0582 100.064 88.7742 100.12 88.4542 100.12ZM93.8047 100.06C93.5327 100.06 93.3127 99.976 93.1447 99.808C92.9847 99.64 92.9047 99.424 92.9047 99.16C92.9047 98.904 92.9847 98.696 93.1447 98.536C93.3127 98.368 93.5327 98.284 93.8047 98.284C94.0847 98.284 94.3007 98.368 94.4527 98.536C94.6127 98.696 94.6927 98.904 94.6927 99.16C94.6927 99.424 94.6127 99.64 94.4527 99.808C94.3007 99.976 94.0847 100.06 93.8047 100.06ZM96.8053 102.256C96.5653 102.256 96.3813 102.192 96.2533 102.064C96.1253 101.936 96.0613 101.748 96.0613 101.5V94.792C96.0613 94.544 96.1253 94.356 96.2533 94.228C96.3813 94.1 96.5613 94.036 96.7933 94.036C97.0333 94.036 97.2173 94.1 97.3453 94.228C97.4733 94.356 97.5373 94.544 97.5373 94.792V95.728L97.4053 95.368C97.5253 94.96 97.7693 94.632 98.1373 94.384C98.5133 94.136 98.9493 94.012 99.4453 94.012C99.9573 94.012 100.405 94.136 100.789 94.384C101.181 94.632 101.485 94.984 101.701 95.44C101.917 95.888 102.025 96.428 102.025 97.06C102.025 97.684 101.917 98.228 101.701 98.692C101.485 99.148 101.185 99.5 100.801 99.748C100.417 99.996 99.9653 100.12 99.4453 100.12C98.9573 100.12 98.5293 100 98.1613 99.76C97.7933 99.512 97.5453 99.192 97.4173 98.8H97.5613V101.5C97.5613 101.748 97.4933 101.936 97.3573 102.064C97.2293 102.192 97.0453 102.256 96.8053 102.256ZM99.0253 98.98C99.3213 98.98 99.5813 98.908 99.8053 98.764C100.029 98.62 100.201 98.408 100.321 98.128C100.449 97.84 100.513 97.484 100.513 97.06C100.513 96.42 100.377 95.944 100.105 95.632C99.8333 95.312 99.4733 95.152 99.0253 95.152C98.7293 95.152 98.4693 95.224 98.2453 95.368C98.0213 95.504 97.8453 95.716 97.7173 96.004C97.5973 96.284 97.5373 96.636 97.5373 97.06C97.5373 97.692 97.6733 98.172 97.9453 98.5C98.2173 98.82 98.5773 98.98 99.0253 98.98ZM105.513 100.12C105.001 100.12 104.549 99.996 104.157 99.748C103.773 99.5 103.473 99.148 103.257 98.692C103.041 98.228 102.933 97.684 102.933 97.06C102.933 96.428 103.041 95.888 103.257 95.44C103.473 94.984 103.773 94.632 104.157 94.384C104.549 94.136 105.001 94.012 105.513 94.012C106.001 94.012 106.425 94.132 106.785 94.372C107.153 94.612 107.401 94.928 107.529 95.32H107.397V92.2C107.397 91.952 107.461 91.764 107.589 91.636C107.717 91.508 107.901 91.444 108.141 91.444C108.381 91.444 108.565 91.508 108.693 91.636C108.829 91.764 108.897 91.952 108.897 92.2V99.328C108.897 99.576 108.833 99.768 108.705 99.904C108.577 100.032 108.393 100.096 108.153 100.096C107.913 100.096 107.729 100.032 107.601 99.904C107.473 99.768 107.409 99.576 107.409 99.328V98.392L107.541 98.752C107.421 99.168 107.177 99.5 106.809 99.748C106.441 99.996 106.009 100.12 105.513 100.12ZM105.933 98.98C106.229 98.98 106.489 98.908 106.713 98.764C106.937 98.62 107.109 98.408 107.229 98.128C107.357 97.84 107.421 97.484 107.421 97.06C107.421 96.42 107.285 95.944 107.013 95.632C106.741 95.312 106.381 95.152 105.933 95.152C105.637 95.152 105.377 95.224 105.153 95.368C104.929 95.504 104.753 95.716 104.625 96.004C104.505 96.284 104.445 96.636 104.445 97.06C104.445 97.692 104.581 98.172 104.853 98.5C105.125 98.82 105.485 98.98 105.933 98.98ZM111.604 100.096C111.364 100.096 111.176 100.032 111.04 99.904C110.912 99.768 110.848 99.576 110.848 99.328V95.26H110.296C110.104 95.26 109.956 95.212 109.852 95.116C109.748 95.012 109.696 94.872 109.696 94.696C109.696 94.512 109.748 94.372 109.852 94.276C109.956 94.18 110.104 94.132 110.296 94.132H111.28L110.848 94.528V94.12C110.848 93.296 111.056 92.68 111.472 92.272C111.888 91.856 112.488 91.612 113.272 91.54L113.68 91.504C113.84 91.488 113.968 91.516 114.064 91.588C114.16 91.652 114.224 91.74 114.256 91.852C114.288 91.956 114.292 92.064 114.268 92.176C114.244 92.288 114.192 92.388 114.112 92.476C114.04 92.556 113.944 92.6 113.824 92.608L113.656 92.62C113.2 92.652 112.868 92.768 112.66 92.968C112.452 93.168 112.348 93.472 112.348 93.88V94.324L112.156 94.132H113.368C113.56 94.132 113.708 94.18 113.812 94.276C113.916 94.372 113.968 94.512 113.968 94.696C113.968 94.872 113.916 95.012 113.812 95.116C113.708 95.212 113.56 95.26 113.368 95.26H112.348V99.328C112.348 99.84 112.1 100.096 111.604 100.096Z" fill="#64728C"/>
</g>
</g>
<rect x="4.5" y="16.5" width="135" height="112" rx="13.5" stroke="#64728C" stroke-opacity="0.22"/>
</g>
<defs>
<filter id="filter0_d_1032_6126" x="0" y="8" width="144" height="121" filterUnits="userSpaceOnUse" color-interpolation-filters="sRGB">
<feFlood flood-opacity="0" result="BackgroundImageFix"/>
<feColorMatrix in="SourceAlpha" type="matrix" values="0 0 0 0 0 0 0 0 0 0 0 0 0 0 0 0 0 0 127 0" result="hardAlpha"/>
<feOffset dy="-4"/>
<feGaussianBlur stdDeviation="2"/>
<feComposite in2="hardAlpha" operator="out"/>
<feColorMatrix type="matrix" values="0 0 0 0 0 0 0 0 0 0 0 0 0 0 0 0 0 0 0.05 0"/>
<feBlend mode="normal" in2="BackgroundImageFix" result="effect1_dropShadow_1032_6126"/>
<feBlend mode="normal" in="SourceGraphic" in2="effect1_dropShadow_1032_6126" result="shape"/>
</filter>
<filter id="filter1_di_1032_6126" x="-1" y="1" width="146" height="128" filterUnits="userSpaceOnUse" color-interpolation-filters="sRGB">
<feFlood flood-opacity="0" result="BackgroundImageFix"/>
<feColorMatrix in="SourceAlpha" type="matrix" values="0 0 0 0 0 0 0 0 0 0 0 0 0 0 0 0 0 0 127 0" result="hardAlpha"/>
<feOffset dy="-14"/>
<feGaussianBlur stdDeviation="2.5"/>
<feComposite in2="hardAlpha" operator="out"/>
<feColorMatrix type="matrix" values="0 0 0 0 0 0 0 0 0 0 0 0 0 0 0 0 0 0 0.05 0"/>
<feBlend mode="normal" in2="BackgroundImageFix" result="effect1_dropShadow_1032_6126"/>
<feBlend mode="normal" in="SourceGraphic" in2="effect1_dropShadow_1032_6126" result="shape"/>
<feColorMatrix in="SourceAlpha" type="matrix" values="0 0 0 0 0 0 0 0 0 0 0 0 0 0 0 0 0 0 127 0" result="hardAlpha"/>
<feOffset dy="-10"/>
<feGaussianBlur stdDeviation="2"/>
<feComposite in2="hardAlpha" operator="arithmetic" k2="-1" k3="1"/>
<feColorMatrix type="matrix" values="0 0 0 0 1 0 0 0 0 1 0 0 0 0 1 0 0 0 0.15 0"/>
<feBlend mode="normal" in2="shape" result="effect2_innerShadow_1032_6126"/>
</filter>
<linearGradient id="paint0_linear_1032_6126" x1="72" y1="20" x2="72" y2="129" gradientUnits="userSpaceOnUse">
<stop stop-color="#64728C" stop-opacity="0.04"/>
<stop offset="1" stop-color="#64728C" stop-opacity="0.15"/>
</linearGradient>
<linearGradient id="paint1_linear_1032_6126" x1="72" y1="20" x2="72" y2="129" gradientUnits="userSpaceOnUse">
<stop offset="0.345231" stop-color="#64728C" stop-opacity="0.03"/>
<stop offset="1" stop-color="#64728C" stop-opacity="0.37"/>
</linearGradient>
<clipPath id="clip0_1032_6126">
<rect x="4" y="16" width="136" height="113" rx="14" fill="white"/>
</clipPath>
</defs>
</svg>
