<svg width="155" height="125" viewBox="0 0 155 125" fill="none" xmlns="http://www.w3.org/2000/svg">
<rect width="135" height="115" transform="translate(5 10)" fill="white"/>
<rect x="14" width="116" height="118" rx="16" fill="#E8EAEF" fill-opacity="0.75"/>
<g filter="url(#filter0_d_1347_5032)">
<g clip-path="url(#clip0_1347_5032)">
<rect x="4" y="10" width="136" height="113" rx="14" fill="#E8EAEF"/>
<g filter="url(#filter1_di_1347_5032)">
<rect x="4" y="14" width="136" height="109" rx="14" fill="white"/>
<rect x="4" y="14" width="136" height="109" rx="14" fill="url(#paint0_linear_1347_5032)" fill-opacity="0.1"/>
<rect x="4.5" y="14.5" width="135" height="108" rx="13.5" stroke="url(#paint1_linear_1347_5032)" stroke-opacity="0.2"/>
<path d="M70.95 62.55C71.1 62.7 71.25 62.85 71.4 62.85C71.55 63 71.85 63 72 63C72.15 63 72.45 63 72.6 62.85C72.75 62.7 72.9 62.7 73.05 62.55L79.05 56.55C79.65 55.95 79.65 55.05 79.05 54.45C78.45 53.85 77.55 53.85 76.95 54.45L73.5 57.9V46.5C73.5 45.6 72.9 45 72 45C71.1 45 70.5 45.6 70.5 46.5V57.9L67.05 54.45C66.45 53.85 65.55 53.85 64.95 54.45C64.35 55.05 64.35 55.95 64.95 56.55L70.95 62.55Z" fill="#64728C"/>
<path d="M82.5 58.5C81.6 58.5 81 59.1 81 60V63C81 64.65 79.65 66 78 66H66C64.35 66 63 64.65 63 63V60C63 59.1 62.4 58.5 61.5 58.5C60.6 58.5 60 59.1 60 60V63C60 66.3 62.7 69 66 69H78C81.3 69 84 66.3 84 63V60C84 59.1 83.4 58.5 82.5 58.5Z" fill="#64728C"/>
<path d="M33.86 94.12C32.98 94.12 32.224 93.944 31.592 93.592C30.968 93.232 30.488 92.728 30.152 92.08C29.816 91.424 29.648 90.652 29.648 89.764C29.648 89.1 29.744 88.504 29.936 87.976C30.128 87.44 30.404 86.984 30.764 86.608C31.124 86.224 31.564 85.932 32.084 85.732C32.612 85.524 33.204 85.42 33.86 85.42C34.3 85.42 34.732 85.476 35.156 85.588C35.58 85.7 35.952 85.86 36.272 86.068C36.44 86.172 36.552 86.3 36.608 86.452C36.664 86.596 36.676 86.74 36.644 86.884C36.612 87.02 36.544 87.136 36.44 87.232C36.344 87.328 36.22 87.384 36.068 87.4C35.924 87.408 35.764 87.356 35.588 87.244C35.34 87.084 35.072 86.968 34.784 86.896C34.496 86.824 34.204 86.788 33.908 86.788C33.34 86.788 32.86 86.904 32.468 87.136C32.076 87.368 31.78 87.704 31.58 88.144C31.38 88.584 31.28 89.124 31.28 89.764C31.28 90.396 31.38 90.936 31.58 91.384C31.78 91.832 32.076 92.172 32.468 92.404C32.86 92.636 33.34 92.752 33.908 92.752C34.212 92.752 34.512 92.716 34.808 92.644C35.104 92.564 35.384 92.444 35.648 92.284C35.824 92.18 35.98 92.136 36.116 92.152C36.26 92.16 36.38 92.208 36.476 92.296C36.572 92.384 36.636 92.496 36.668 92.632C36.7 92.76 36.692 92.896 36.644 93.04C36.596 93.176 36.5 93.296 36.356 93.4C36.036 93.632 35.652 93.812 35.204 93.94C34.764 94.06 34.316 94.12 33.86 94.12ZM39.9403 94.12C39.2763 94.12 38.7763 93.932 38.4403 93.556C38.1043 93.172 37.9363 92.612 37.9363 91.876V86.2C37.9363 85.952 38.0003 85.764 38.1283 85.636C38.2563 85.508 38.4403 85.444 38.6803 85.444C38.9203 85.444 39.1043 85.508 39.2323 85.636C39.3683 85.764 39.4363 85.952 39.4363 86.2V91.804C39.4363 92.172 39.5123 92.444 39.6643 92.62C39.8243 92.796 40.0483 92.884 40.3363 92.884C40.4003 92.884 40.4603 92.884 40.5163 92.884C40.5723 92.876 40.6283 92.868 40.6842 92.86C40.7963 92.844 40.8723 92.876 40.9123 92.956C40.9523 93.028 40.9723 93.18 40.9723 93.412C40.9723 93.612 40.9323 93.768 40.8523 93.88C40.7723 93.992 40.6403 94.06 40.4563 94.084C40.3763 94.092 40.2923 94.1 40.2043 94.108C40.1163 94.116 40.0283 94.12 39.9403 94.12ZM42.5123 94.084C42.2723 94.084 42.0883 94.012 41.9603 93.868C41.8323 93.724 41.7683 93.524 41.7683 93.268V88.864C41.7683 88.6 41.8323 88.4 41.9603 88.264C42.0883 88.12 42.2723 88.048 42.5123 88.048C42.7523 88.048 42.9363 88.12 43.0643 88.264C43.2003 88.4 43.2683 88.6 43.2683 88.864V93.268C43.2683 93.524 43.2043 93.724 43.0763 93.868C42.9483 94.012 42.7603 94.084 42.5123 94.084ZM42.5123 86.932C42.2323 86.932 42.0123 86.864 41.8523 86.728C41.7003 86.584 41.6243 86.388 41.6243 86.14C41.6243 85.884 41.7003 85.688 41.8523 85.552C42.0123 85.416 42.2323 85.348 42.5123 85.348C42.8003 85.348 43.0203 85.416 43.1723 85.552C43.3243 85.688 43.4003 85.884 43.4003 86.14C43.4003 86.388 43.3243 86.584 43.1723 86.728C43.0203 86.864 42.8003 86.932 42.5123 86.932ZM47.7189 94.12C47.0549 94.12 46.4829 93.996 46.0029 93.748C45.5229 93.5 45.1509 93.148 44.8869 92.692C44.6309 92.236 44.5029 91.696 44.5029 91.072C44.5029 90.464 44.6269 89.932 44.8749 89.476C45.1309 89.02 45.4789 88.664 45.9189 88.408C46.3669 88.144 46.8749 88.012 47.4429 88.012C47.8589 88.012 48.2309 88.08 48.5589 88.216C48.8949 88.352 49.1789 88.548 49.4109 88.804C49.6509 89.06 49.8309 89.372 49.9509 89.74C50.0789 90.1 50.1429 90.508 50.1429 90.964C50.1429 91.108 50.0909 91.22 49.9869 91.3C49.8909 91.372 49.7509 91.408 49.5669 91.408H45.7149V90.544H49.0869L48.8949 90.724C48.8949 90.356 48.8389 90.048 48.7269 89.8C48.6229 89.552 48.4669 89.364 48.2589 89.236C48.0589 89.1 47.8069 89.032 47.5029 89.032C47.1669 89.032 46.8789 89.112 46.6389 89.272C46.4069 89.424 46.2269 89.644 46.0989 89.932C45.9789 90.212 45.9189 90.548 45.9189 90.94V91.024C45.9189 91.68 46.0709 92.172 46.3749 92.5C46.6869 92.82 47.1429 92.98 47.7429 92.98C47.9509 92.98 48.1829 92.956 48.4389 92.908C48.7029 92.852 48.9509 92.76 49.1829 92.632C49.3509 92.536 49.4989 92.496 49.6269 92.512C49.7549 92.52 49.8549 92.564 49.9269 92.644C50.0069 92.724 50.0549 92.824 50.0709 92.944C50.0869 93.056 50.0629 93.172 49.9989 93.292C49.9429 93.412 49.8429 93.516 49.6989 93.604C49.4189 93.78 49.0949 93.912 48.7269 94C48.3669 94.08 48.0309 94.12 47.7189 94.12ZM52.0748 94.096C51.8348 94.096 51.6508 94.032 51.5228 93.904C51.3948 93.768 51.3308 93.576 51.3308 93.328V88.792C51.3308 88.544 51.3948 88.356 51.5228 88.228C51.6508 88.1 51.8308 88.036 52.0628 88.036C52.2948 88.036 52.4748 88.1 52.6028 88.228C52.7308 88.356 52.7948 88.544 52.7948 88.792V89.608L52.6628 89.308C52.8388 88.884 53.1108 88.564 53.4788 88.348C53.8548 88.124 54.2788 88.012 54.7508 88.012C55.2228 88.012 55.6108 88.1 55.9148 88.276C56.2188 88.452 56.4468 88.72 56.5988 89.08C56.7508 89.432 56.8268 89.88 56.8268 90.424V93.328C56.8268 93.576 56.7628 93.768 56.6348 93.904C56.5068 94.032 56.3228 94.096 56.0828 94.096C55.8428 94.096 55.6548 94.032 55.5188 93.904C55.3908 93.768 55.3268 93.576 55.3268 93.328V90.496C55.3268 90.04 55.2388 89.708 55.0628 89.5C54.8948 89.292 54.6308 89.188 54.2708 89.188C53.8308 89.188 53.4788 89.328 53.2148 89.608C52.9588 89.88 52.8308 90.244 52.8308 90.7V93.328C52.8308 93.84 52.5788 94.096 52.0748 94.096ZM61.0383 94.12C60.5183 94.12 60.0823 94.032 59.7303 93.856C59.3863 93.68 59.1303 93.424 58.9623 93.088C58.7943 92.744 58.7103 92.32 58.7103 91.816V89.26H58.0863C57.8943 89.26 57.7463 89.212 57.6423 89.116C57.5383 89.012 57.4863 88.872 57.4863 88.696C57.4863 88.512 57.5383 88.372 57.6423 88.276C57.7463 88.18 57.8943 88.132 58.0863 88.132H58.7103V87.04C58.7103 86.792 58.7743 86.604 58.9023 86.476C59.0383 86.348 59.2263 86.284 59.4663 86.284C59.7063 86.284 59.8903 86.348 60.0183 86.476C60.1463 86.604 60.2103 86.792 60.2103 87.04V88.132H61.4823C61.6743 88.132 61.8223 88.18 61.9263 88.276C62.0303 88.372 62.0823 88.512 62.0823 88.696C62.0823 88.872 62.0303 89.012 61.9263 89.116C61.8223 89.212 61.6743 89.26 61.4823 89.26H60.2103V91.732C60.2103 92.116 60.2943 92.404 60.4623 92.596C60.6303 92.788 60.9023 92.884 61.2783 92.884C61.4143 92.884 61.5343 92.872 61.6383 92.848C61.7423 92.824 61.8343 92.808 61.9143 92.8C62.0103 92.792 62.0903 92.824 62.1543 92.896C62.2183 92.96 62.2503 93.096 62.2503 93.304C62.2503 93.464 62.2223 93.608 62.1663 93.736C62.1183 93.856 62.0263 93.94 61.8903 93.988C61.7863 94.02 61.6503 94.048 61.4823 94.072C61.3143 94.104 61.1663 94.12 61.0383 94.12ZM67.1736 94C66.9096 94 66.7056 93.932 66.5616 93.796C66.4256 93.652 66.3576 93.448 66.3576 93.184V86.356C66.3576 86.092 66.4256 85.892 66.5616 85.756C66.7056 85.612 66.9096 85.54 67.1736 85.54H69.5016C70.9176 85.54 72.0096 85.904 72.7776 86.632C73.5536 87.36 73.9416 88.404 73.9416 89.764C73.9416 90.444 73.8416 91.048 73.6416 91.576C73.4496 92.096 73.1616 92.536 72.7776 92.896C72.4016 93.256 71.9376 93.532 71.3856 93.724C70.8416 93.908 70.2136 94 69.5016 94H67.1736ZM67.8936 92.728H69.4056C69.9016 92.728 70.3296 92.668 70.6896 92.548C71.0576 92.42 71.3616 92.236 71.6016 91.996C71.8496 91.748 72.0336 91.44 72.1536 91.072C72.2736 90.696 72.3336 90.26 72.3336 89.764C72.3336 88.772 72.0896 88.032 71.6016 87.544C71.1136 87.056 70.3816 86.812 69.4056 86.812H67.8936V92.728ZM77.2862 94.12C76.8622 94.12 76.4822 94.04 76.1462 93.88C75.8182 93.712 75.5582 93.488 75.3662 93.208C75.1822 92.928 75.0902 92.612 75.0902 92.26C75.0902 91.828 75.2022 91.488 75.4262 91.24C75.6502 90.984 76.0142 90.8 76.5182 90.688C77.0222 90.576 77.6982 90.52 78.5462 90.52H79.1462V91.384H78.5582C78.0622 91.384 77.6662 91.408 77.3702 91.456C77.0742 91.504 76.8622 91.588 76.7342 91.708C76.6142 91.82 76.5542 91.98 76.5542 92.188C76.5542 92.452 76.6462 92.668 76.8302 92.836C77.0142 93.004 77.2702 93.088 77.5982 93.088C77.8622 93.088 78.0942 93.028 78.2942 92.908C78.5022 92.78 78.6662 92.608 78.7862 92.392C78.9062 92.176 78.9662 91.928 78.9662 91.648V90.268C78.9662 89.868 78.8782 89.58 78.7022 89.404C78.5262 89.228 78.2302 89.14 77.8142 89.14C77.5822 89.14 77.3302 89.168 77.0582 89.224C76.7942 89.28 76.5142 89.376 76.2182 89.512C76.0662 89.584 75.9302 89.604 75.8102 89.572C75.6982 89.54 75.6102 89.476 75.5462 89.38C75.4822 89.276 75.4502 89.164 75.4502 89.044C75.4502 88.924 75.4822 88.808 75.5462 88.696C75.6102 88.576 75.7182 88.488 75.8702 88.432C76.2382 88.28 76.5902 88.172 76.9262 88.108C77.2702 88.044 77.5822 88.012 77.8622 88.012C78.4382 88.012 78.9102 88.1 79.2782 88.276C79.6542 88.452 79.9342 88.72 80.1182 89.08C80.3022 89.432 80.3942 89.888 80.3942 90.448V93.328C80.3942 93.576 80.3342 93.768 80.2142 93.904C80.0942 94.032 79.9222 94.096 79.6982 94.096C79.4742 94.096 79.2982 94.032 79.1702 93.904C79.0502 93.768 78.9902 93.576 78.9902 93.328V92.752H79.0862C79.0302 93.032 78.9182 93.276 78.7502 93.484C78.5902 93.684 78.3862 93.84 78.1382 93.952C77.8902 94.064 77.6062 94.12 77.2862 94.12ZM84.6047 94.12C84.0847 94.12 83.6487 94.032 83.2967 93.856C82.9527 93.68 82.6967 93.424 82.5287 93.088C82.3607 92.744 82.2767 92.32 82.2767 91.816V89.26H81.6527C81.4607 89.26 81.3127 89.212 81.2087 89.116C81.1047 89.012 81.0527 88.872 81.0527 88.696C81.0527 88.512 81.1047 88.372 81.2087 88.276C81.3127 88.18 81.4607 88.132 81.6527 88.132H82.2767V87.04C82.2767 86.792 82.3407 86.604 82.4687 86.476C82.6047 86.348 82.7927 86.284 83.0327 86.284C83.2727 86.284 83.4567 86.348 83.5847 86.476C83.7127 86.604 83.7767 86.792 83.7767 87.04V88.132H85.0487C85.2407 88.132 85.3887 88.18 85.4927 88.276C85.5967 88.372 85.6487 88.512 85.6487 88.696C85.6487 88.872 85.5967 89.012 85.4927 89.116C85.3887 89.212 85.2407 89.26 85.0487 89.26H83.7767V91.732C83.7767 92.116 83.8607 92.404 84.0287 92.596C84.1967 92.788 84.4687 92.884 84.8447 92.884C84.9807 92.884 85.1007 92.872 85.2047 92.848C85.3087 92.824 85.4007 92.808 85.4807 92.8C85.5767 92.792 85.6567 92.824 85.7207 92.896C85.7847 92.96 85.8167 93.096 85.8167 93.304C85.8167 93.464 85.7887 93.608 85.7327 93.736C85.6847 93.856 85.5927 93.94 85.4567 93.988C85.3527 94.02 85.2167 94.048 85.0487 94.072C84.8807 94.104 84.7327 94.12 84.6047 94.12ZM88.4542 94.12C88.0302 94.12 87.6502 94.04 87.3142 93.88C86.9862 93.712 86.7262 93.488 86.5342 93.208C86.3502 92.928 86.2582 92.612 86.2582 92.26C86.2582 91.828 86.3702 91.488 86.5942 91.24C86.8182 90.984 87.1822 90.8 87.6862 90.688C88.1902 90.576 88.8662 90.52 89.7142 90.52H90.3142V91.384H89.7262C89.2302 91.384 88.8342 91.408 88.5382 91.456C88.2422 91.504 88.0302 91.588 87.9022 91.708C87.7822 91.82 87.7222 91.98 87.7222 92.188C87.7222 92.452 87.8142 92.668 87.9982 92.836C88.1822 93.004 88.4382 93.088 88.7662 93.088C89.0302 93.088 89.2622 93.028 89.4622 92.908C89.6702 92.78 89.8342 92.608 89.9542 92.392C90.0742 92.176 90.1342 91.928 90.1342 91.648V90.268C90.1342 89.868 90.0462 89.58 89.8702 89.404C89.6942 89.228 89.3982 89.14 88.9822 89.14C88.7502 89.14 88.4982 89.168 88.2262 89.224C87.9622 89.28 87.6822 89.376 87.3862 89.512C87.2342 89.584 87.0982 89.604 86.9782 89.572C86.8662 89.54 86.7782 89.476 86.7142 89.38C86.6502 89.276 86.6182 89.164 86.6182 89.044C86.6182 88.924 86.6502 88.808 86.7142 88.696C86.7782 88.576 86.8862 88.488 87.0382 88.432C87.4062 88.28 87.7582 88.172 88.0942 88.108C88.4382 88.044 88.7502 88.012 89.0302 88.012C89.6062 88.012 90.0782 88.1 90.4462 88.276C90.8222 88.452 91.1022 88.72 91.2862 89.08C91.4702 89.432 91.5622 89.888 91.5622 90.448V93.328C91.5622 93.576 91.5022 93.768 91.3822 93.904C91.2622 94.032 91.0902 94.096 90.8662 94.096C90.6422 94.096 90.4662 94.032 90.3382 93.904C90.2182 93.768 90.1582 93.576 90.1582 93.328V92.752H90.2542C90.1982 93.032 90.0862 93.276 89.9182 93.484C89.7582 93.684 89.5542 93.84 89.3062 93.952C89.0582 94.064 88.7742 94.12 88.4542 94.12ZM93.8047 94.06C93.5327 94.06 93.3127 93.976 93.1447 93.808C92.9847 93.64 92.9047 93.424 92.9047 93.16C92.9047 92.904 92.9847 92.696 93.1447 92.536C93.3127 92.368 93.5327 92.284 93.8047 92.284C94.0847 92.284 94.3007 92.368 94.4527 92.536C94.6127 92.696 94.6927 92.904 94.6927 93.16C94.6927 93.424 94.6127 93.64 94.4527 93.808C94.3007 93.976 94.0847 94.06 93.8047 94.06ZM96.8053 96.256C96.5653 96.256 96.3813 96.192 96.2533 96.064C96.1253 95.936 96.0613 95.748 96.0613 95.5V88.792C96.0613 88.544 96.1253 88.356 96.2533 88.228C96.3813 88.1 96.5613 88.036 96.7933 88.036C97.0333 88.036 97.2173 88.1 97.3453 88.228C97.4733 88.356 97.5373 88.544 97.5373 88.792V89.728L97.4053 89.368C97.5253 88.96 97.7693 88.632 98.1373 88.384C98.5133 88.136 98.9493 88.012 99.4453 88.012C99.9573 88.012 100.405 88.136 100.789 88.384C101.181 88.632 101.485 88.984 101.701 89.44C101.917 89.888 102.025 90.428 102.025 91.06C102.025 91.684 101.917 92.228 101.701 92.692C101.485 93.148 101.185 93.5 100.801 93.748C100.417 93.996 99.9653 94.12 99.4453 94.12C98.9573 94.12 98.5293 94 98.1613 93.76C97.7933 93.512 97.5453 93.192 97.4173 92.8H97.5613V95.5C97.5613 95.748 97.4933 95.936 97.3573 96.064C97.2293 96.192 97.0453 96.256 96.8053 96.256ZM99.0253 92.98C99.3213 92.98 99.5813 92.908 99.8053 92.764C100.029 92.62 100.201 92.408 100.321 92.128C100.449 91.84 100.513 91.484 100.513 91.06C100.513 90.42 100.377 89.944 100.105 89.632C99.8333 89.312 99.4733 89.152 99.0253 89.152C98.7293 89.152 98.4693 89.224 98.2453 89.368C98.0213 89.504 97.8453 89.716 97.7173 90.004C97.5973 90.284 97.5373 90.636 97.5373 91.06C97.5373 91.692 97.6733 92.172 97.9453 92.5C98.2173 92.82 98.5773 92.98 99.0253 92.98ZM105.513 94.12C105.001 94.12 104.549 93.996 104.157 93.748C103.773 93.5 103.473 93.148 103.257 92.692C103.041 92.228 102.933 91.684 102.933 91.06C102.933 90.428 103.041 89.888 103.257 89.44C103.473 88.984 103.773 88.632 104.157 88.384C104.549 88.136 105.001 88.012 105.513 88.012C106.001 88.012 106.425 88.132 106.785 88.372C107.153 88.612 107.401 88.928 107.529 89.32H107.397V86.2C107.397 85.952 107.461 85.764 107.589 85.636C107.717 85.508 107.901 85.444 108.141 85.444C108.381 85.444 108.565 85.508 108.693 85.636C108.829 85.764 108.897 85.952 108.897 86.2V93.328C108.897 93.576 108.833 93.768 108.705 93.904C108.577 94.032 108.393 94.096 108.153 94.096C107.913 94.096 107.729 94.032 107.601 93.904C107.473 93.768 107.409 93.576 107.409 93.328V92.392L107.541 92.752C107.421 93.168 107.177 93.5 106.809 93.748C106.441 93.996 106.009 94.12 105.513 94.12ZM105.933 92.98C106.229 92.98 106.489 92.908 106.713 92.764C106.937 92.62 107.109 92.408 107.229 92.128C107.357 91.84 107.421 91.484 107.421 91.06C107.421 90.42 107.285 89.944 107.013 89.632C106.741 89.312 106.381 89.152 105.933 89.152C105.637 89.152 105.377 89.224 105.153 89.368C104.929 89.504 104.753 89.716 104.625 90.004C104.505 90.284 104.445 90.636 104.445 91.06C104.445 91.692 104.581 92.172 104.853 92.5C105.125 92.82 105.485 92.98 105.933 92.98ZM111.604 94.096C111.364 94.096 111.176 94.032 111.04 93.904C110.912 93.768 110.848 93.576 110.848 93.328V89.26H110.296C110.104 89.26 109.956 89.212 109.852 89.116C109.748 89.012 109.696 88.872 109.696 88.696C109.696 88.512 109.748 88.372 109.852 88.276C109.956 88.18 110.104 88.132 110.296 88.132H111.28L110.848 88.528V88.12C110.848 87.296 111.056 86.68 111.472 86.272C111.888 85.856 112.488 85.612 113.272 85.54L113.68 85.504C113.84 85.488 113.968 85.516 114.064 85.588C114.16 85.652 114.224 85.74 114.256 85.852C114.288 85.956 114.292 86.064 114.268 86.176C114.244 86.288 114.192 86.388 114.112 86.476C114.04 86.556 113.944 86.6 113.824 86.608L113.656 86.62C113.2 86.652 112.868 86.768 112.66 86.968C112.452 87.168 112.348 87.472 112.348 87.88V88.324L112.156 88.132H113.368C113.56 88.132 113.708 88.18 113.812 88.276C113.916 88.372 113.968 88.512 113.968 88.696C113.968 88.872 113.916 89.012 113.812 89.116C113.708 89.212 113.56 89.26 113.368 89.26H112.348V93.328C112.348 93.84 112.1 94.096 111.604 94.096Z" fill="#64728C"/>
</g>
</g>
<rect x="4.5" y="10.5" width="135" height="112" rx="13.5" stroke="#64728C" stroke-opacity="0.22"/>
</g>
<g filter="url(#filter2_b_1347_5032)">
<rect x="125" y="42" width="30" height="49" rx="15" fill="#64728C" fill-opacity="0.11"/>
<path d="M138.833 56.4165C138.483 56.4165 138.25 56.6498 138.25 56.9998V59.3332C138.25 59.6832 138.483 59.9165 138.833 59.9165C139.183 59.9165 139.417 59.6832 139.417 59.3332V56.9998C139.417 56.6498 139.183 56.4165 138.833 56.4165Z" fill="#64728C"/>
<path d="M141.167 56.4165C140.817 56.4165 140.583 56.6498 140.583 56.9998V59.3332C140.583 59.6832 140.817 59.9165 141.167 59.9165C141.517 59.9165 141.75 59.6832 141.75 59.3332V56.9998C141.75 56.6498 141.517 56.4165 141.167 56.4165Z" fill="#64728C"/>
<path d="M140.875 51.1665H139.125C138.308 51.1665 137.667 51.8082 137.667 52.6248V52.9165H135.917C135.567 52.9165 135.333 53.1498 135.333 53.4998C135.333 53.8498 135.567 54.0832 135.917 54.0832H135.975L136.442 60.6165C136.5 61.8998 137.492 62.8332 138.717 62.8332H141.283C142.508 62.8332 143.558 61.8998 143.617 60.6748L144.025 54.0832H144.083C144.433 54.0832 144.667 53.8498 144.667 53.4998C144.667 53.1498 144.433 52.9165 144.083 52.9165H142.333V52.6248C142.333 51.8082 141.692 51.1665 140.875 51.1665ZM138.833 52.6248C138.833 52.4498 138.95 52.3332 139.125 52.3332H140.875C141.05 52.3332 141.167 52.4498 141.167 52.6248V52.9165H138.833V52.6248ZM142.858 54.0832L142.392 60.5582C142.333 61.1998 141.867 61.6665 141.225 61.6665H138.717C138.075 61.6665 137.608 61.1998 137.55 60.5582L137.142 54.0832H138.25H141.75H142.858Z" fill="#64728C"/>
<path d="M142.933 72.8729C143.067 72.9377 143.133 73.0674 143.267 73.1322C143.333 73.197 143.333 73.197 143.4 73.2618L142.2 73.4562C141.867 73.521 141.6 73.8451 141.667 74.234C141.733 74.558 142 74.7525 142.333 74.7525C142.4 74.7525 142.4 74.7525 142.467 74.7525L145.267 74.234C145.6 74.1692 145.867 73.8451 145.8 73.4562L145.267 70.799C145.2 70.4749 144.867 70.2157 144.467 70.2805C144.133 70.3453 143.867 70.6694 143.933 71.0582L144.133 72.16C144 72.0304 143.8 71.836 143.667 71.7712C143.667 71.7712 143.667 71.7712 143.6 71.7712C143.533 71.7063 143.467 71.6415 143.4 71.6415C143.267 71.5119 143.133 71.4471 142.933 71.3175C142.733 71.1879 142.533 71.123 142.333 70.9934H142.267C142.2 70.9286 142.067 70.9286 141.933 70.8638C141.667 70.799 141.4 70.7342 141.2 70.6694C141.067 70.6694 140.933 70.6046 140.8 70.6046H140.733C140.667 70.6046 140.533 70.6046 140.467 70.6046C140.333 70.6046 140.133 70.6046 140 70.6046C136.667 70.6046 134 73.197 134 76.4375C134 79.6781 136.667 82.2705 140 82.2705C143.333 82.2705 146 79.6781 146 76.4375C146 76.0487 145.733 75.7894 145.333 75.7894C144.933 75.7894 144.667 76.0487 144.667 76.4375C144.667 78.9652 142.6 80.9743 140 80.9743C137.4 80.9743 135.333 78.9652 135.333 76.4375C135.333 73.9099 137.4 71.9008 140 71.9008C140.133 71.9008 140.333 71.9008 140.467 71.9008C140.6 71.9008 140.667 71.9008 140.8 71.9656C140.933 71.9656 141 72.0304 141.133 72.0304C141.2 72.0304 141.267 72.0952 141.333 72.0952C141.8 72.2248 142.267 72.4193 142.667 72.7433C142.733 72.8081 142.8 72.8081 142.867 72.8729C142.867 72.7433 142.933 72.8081 142.933 72.8729Z" fill="#64728C"/>
</g>
<defs>
<filter id="filter0_d_1347_5032" x="0" y="2" width="144" height="121" filterUnits="userSpaceOnUse" color-interpolation-filters="sRGB">
<feFlood flood-opacity="0" result="BackgroundImageFix"/>
<feColorMatrix in="SourceAlpha" type="matrix" values="0 0 0 0 0 0 0 0 0 0 0 0 0 0 0 0 0 0 127 0" result="hardAlpha"/>
<feOffset dy="-4"/>
<feGaussianBlur stdDeviation="2"/>
<feComposite in2="hardAlpha" operator="out"/>
<feColorMatrix type="matrix" values="0 0 0 0 0 0 0 0 0 0 0 0 0 0 0 0 0 0 0.05 0"/>
<feBlend mode="normal" in2="BackgroundImageFix" result="effect1_dropShadow_1347_5032"/>
<feBlend mode="normal" in="SourceGraphic" in2="effect1_dropShadow_1347_5032" result="shape"/>
</filter>
<filter id="filter1_di_1347_5032" x="-1" y="-5" width="146" height="128" filterUnits="userSpaceOnUse" color-interpolation-filters="sRGB">
<feFlood flood-opacity="0" result="BackgroundImageFix"/>
<feColorMatrix in="SourceAlpha" type="matrix" values="0 0 0 0 0 0 0 0 0 0 0 0 0 0 0 0 0 0 127 0" result="hardAlpha"/>
<feOffset dy="-14"/>
<feGaussianBlur stdDeviation="2.5"/>
<feComposite in2="hardAlpha" operator="out"/>
<feColorMatrix type="matrix" values="0 0 0 0 0 0 0 0 0 0 0 0 0 0 0 0 0 0 0.05 0"/>
<feBlend mode="normal" in2="BackgroundImageFix" result="effect1_dropShadow_1347_5032"/>
<feBlend mode="normal" in="SourceGraphic" in2="effect1_dropShadow_1347_5032" result="shape"/>
<feColorMatrix in="SourceAlpha" type="matrix" values="0 0 0 0 0 0 0 0 0 0 0 0 0 0 0 0 0 0 127 0" result="hardAlpha"/>
<feOffset dy="-10"/>
<feGaussianBlur stdDeviation="2"/>
<feComposite in2="hardAlpha" operator="arithmetic" k2="-1" k3="1"/>
<feColorMatrix type="matrix" values="0 0 0 0 1 0 0 0 0 1 0 0 0 0 1 0 0 0 0.15 0"/>
<feBlend mode="normal" in2="shape" result="effect2_innerShadow_1347_5032"/>
</filter>
<filter id="filter2_b_1347_5032" x="121" y="38" width="38" height="57" filterUnits="userSpaceOnUse" color-interpolation-filters="sRGB">
<feFlood flood-opacity="0" result="BackgroundImageFix"/>
<feGaussianBlur in="BackgroundImageFix" stdDeviation="2"/>
<feComposite in2="SourceAlpha" operator="in" result="effect1_backgroundBlur_1347_5032"/>
<feBlend mode="normal" in="SourceGraphic" in2="effect1_backgroundBlur_1347_5032" result="shape"/>
</filter>
<linearGradient id="paint0_linear_1347_5032" x1="72" y1="14" x2="72" y2="123" gradientUnits="userSpaceOnUse">
<stop stop-color="#64728C" stop-opacity="0.04"/>
<stop offset="1" stop-color="#64728C" stop-opacity="0.15"/>
</linearGradient>
<linearGradient id="paint1_linear_1347_5032" x1="72" y1="14" x2="72" y2="123" gradientUnits="userSpaceOnUse">
<stop offset="0.345231" stop-color="#64728C" stop-opacity="0.03"/>
<stop offset="1" stop-color="#64728C" stop-opacity="0.37"/>
</linearGradient>
<clipPath id="clip0_1347_5032">
<rect x="4" y="10" width="136" height="113" rx="14" fill="white"/>
</clipPath>
</defs>
</svg>
