<svg width="149" height="140" viewBox="0 0 149 140" fill="none" xmlns="http://www.w3.org/2000/svg">
<rect width="141" height="132" transform="translate(4 8)" fill="white"/>
<g filter="url(#filter0_d_1037_6847)">
<g clip-path="url(#clip0_1037_6847)">
<rect x="4" y="8" width="141" height="132" rx="14" fill="#E8EAEF"/>
<g filter="url(#filter1_di_1037_6847)">
<rect x="4" y="12" width="141" height="128" rx="14" fill="white"/>
<rect x="4" y="12" width="141" height="128" rx="14" fill="url(#paint0_linear_1037_6847)" fill-opacity="0.1"/>
<rect x="4.5" y="12.5" width="140" height="127" rx="13.5" stroke="url(#paint1_linear_1037_6847)" stroke-opacity="0.2"/>
<path d="M73.45 60.55C73.6 60.7 73.75 60.85 73.9 60.85C74.05 61 74.35 61 74.5 61C74.65 61 74.95 61 75.1 60.85C75.25 60.7 75.4 60.7 75.55 60.55L81.55 54.55C82.15 53.95 82.15 53.05 81.55 52.45C80.95 51.85 80.05 51.85 79.45 52.45L76 55.9V44.5C76 43.6 75.4 43 74.5 43C73.6 43 73 43.6 73 44.5V55.9L69.55 52.45C68.95 51.85 68.05 51.85 67.45 52.45C66.85 53.05 66.85 53.95 67.45 54.55L73.45 60.55Z" fill="#64728C"/>
<path d="M85 56.5C84.1 56.5 83.5 57.1 83.5 58V61C83.5 62.65 82.15 64 80.5 64H68.5C66.85 64 65.5 62.65 65.5 61V58C65.5 57.1 64.9 56.5 64 56.5C63.1 56.5 62.5 57.1 62.5 58V61C62.5 64.3 65.2 67 68.5 67H80.5C83.8 67 86.5 64.3 86.5 61V58C86.5 57.1 85.9 56.5 85 56.5Z" fill="#64728C"/>
<rect x="30" y="81" width="90" height="10" rx="5" fill="#DAFDF5"/>
<rect x="29" y="81" width="46" height="10" rx="5" fill="#08838F"/>
<path d="M38.7634 111C38.4994 111 38.2954 110.932 38.1514 110.796C38.0154 110.652 37.9474 110.448 37.9474 110.184V103.356C37.9474 103.092 38.0154 102.892 38.1514 102.756C38.2954 102.612 38.4994 102.54 38.7634 102.54H41.0914C42.5074 102.54 43.5994 102.904 44.3674 103.632C45.1434 104.36 45.5314 105.404 45.5314 106.764C45.5314 107.444 45.4314 108.048 45.2314 108.576C45.0394 109.096 44.7514 109.536 44.3674 109.896C43.9914 110.256 43.5274 110.532 42.9754 110.724C42.4314 110.908 41.8034 111 41.0914 111H38.7634ZM39.4834 109.728H40.9954C41.4914 109.728 41.9194 109.668 42.2794 109.548C42.6474 109.42 42.9514 109.236 43.1914 108.996C43.4394 108.748 43.6234 108.44 43.7434 108.072C43.8634 107.696 43.9234 107.26 43.9234 106.764C43.9234 105.772 43.6794 105.032 43.1914 104.544C42.7034 104.056 41.9714 103.812 40.9954 103.812H39.4834V109.728ZM49.6201 111.12C49.0121 111.12 48.4841 110.996 48.0361 110.748C47.5881 110.5 47.2401 110.148 46.9921 109.692C46.7441 109.228 46.6201 108.684 46.6201 108.06C46.6201 107.588 46.6881 107.168 46.8241 106.8C46.9681 106.424 47.1721 106.104 47.4361 105.84C47.7001 105.568 48.0161 105.364 48.3841 105.228C48.7521 105.084 49.1641 105.012 49.6201 105.012C50.2281 105.012 50.7561 105.136 51.2041 105.384C51.6521 105.632 52.0001 105.984 52.2481 106.44C52.4961 106.896 52.6201 107.436 52.6201 108.06C52.6201 108.532 52.5481 108.956 52.4041 109.332C52.2681 109.708 52.0681 110.032 51.8041 110.304C51.5401 110.568 51.2241 110.772 50.8561 110.916C50.4881 111.052 50.0761 111.12 49.6201 111.12ZM49.6201 109.98C49.9161 109.98 50.1761 109.908 50.4001 109.764C50.6241 109.62 50.7961 109.408 50.9161 109.128C51.0441 108.84 51.1081 108.484 51.1081 108.06C51.1081 107.42 50.9721 106.944 50.7001 106.632C50.4281 106.312 50.0681 106.152 49.6201 106.152C49.3241 106.152 49.0641 106.224 48.8401 106.368C48.6161 106.504 48.4401 106.716 48.3121 107.004C48.1921 107.284 48.1321 107.636 48.1321 108.06C48.1321 108.692 48.2681 109.172 48.5401 109.5C48.8121 109.82 49.1721 109.98 49.6201 109.98ZM56.0089 111.096C55.8089 111.096 55.6369 111.048 55.4929 110.952C55.3489 110.848 55.2329 110.688 55.1449 110.472L53.4049 106.032C53.3329 105.84 53.3089 105.672 53.3329 105.528C53.3649 105.376 53.4409 105.256 53.5609 105.168C53.6809 105.08 53.8409 105.036 54.0409 105.036C54.2169 105.036 54.3609 105.08 54.4729 105.168C54.5849 105.248 54.6809 105.404 54.7609 105.636L56.2129 109.632H55.9369L57.4369 105.54C57.5009 105.364 57.5849 105.236 57.6889 105.156C57.8009 105.076 57.9449 105.036 58.1209 105.036C58.2969 105.036 58.4409 105.08 58.5529 105.168C58.6649 105.248 58.7489 105.372 58.8049 105.54L60.2809 109.632H60.0289L61.4929 105.6C61.5729 105.384 61.6729 105.236 61.7929 105.156C61.9209 105.076 62.0609 105.036 62.2129 105.036C62.4049 105.036 62.5529 105.084 62.6569 105.18C62.7609 105.276 62.8209 105.4 62.8369 105.552C62.8529 105.696 62.8249 105.856 62.7529 106.032L61.0249 110.472C60.9449 110.68 60.8289 110.836 60.6769 110.94C60.5329 111.044 60.3609 111.096 60.1609 111.096C59.9609 111.096 59.7849 111.044 59.6329 110.94C59.4889 110.836 59.3769 110.68 59.2969 110.472L57.7249 106.308H58.4089L56.8729 110.46C56.7929 110.676 56.6809 110.836 56.5369 110.94C56.3929 111.044 56.2169 111.096 56.0089 111.096ZM64.7154 111.096C64.4754 111.096 64.2914 111.032 64.1634 110.904C64.0354 110.768 63.9714 110.576 63.9714 110.328V105.792C63.9714 105.544 64.0354 105.356 64.1634 105.228C64.2914 105.1 64.4714 105.036 64.7034 105.036C64.9354 105.036 65.1154 105.1 65.2434 105.228C65.3714 105.356 65.4354 105.544 65.4354 105.792V106.608L65.3034 106.308C65.4794 105.884 65.7514 105.564 66.1194 105.348C66.4954 105.124 66.9194 105.012 67.3914 105.012C67.8634 105.012 68.2514 105.1 68.5554 105.276C68.8594 105.452 69.0874 105.72 69.2394 106.08C69.3914 106.432 69.4674 106.88 69.4674 107.424V110.328C69.4674 110.576 69.4034 110.768 69.2754 110.904C69.1474 111.032 68.9634 111.096 68.7234 111.096C68.4834 111.096 68.2954 111.032 68.1594 110.904C68.0314 110.768 67.9674 110.576 67.9674 110.328V107.496C67.9674 107.04 67.8794 106.708 67.7034 106.5C67.5354 106.292 67.2714 106.188 66.9114 106.188C66.4714 106.188 66.1194 106.328 65.8554 106.608C65.5994 106.88 65.4714 107.244 65.4714 107.7V110.328C65.4714 110.84 65.2194 111.096 64.7154 111.096ZM72.9949 111.12C72.3309 111.12 71.8309 110.932 71.4949 110.556C71.1589 110.172 70.9909 109.612 70.9909 108.876V103.2C70.9909 102.952 71.0549 102.764 71.1829 102.636C71.3109 102.508 71.4949 102.444 71.7349 102.444C71.9749 102.444 72.1589 102.508 72.2869 102.636C72.4229 102.764 72.4909 102.952 72.4909 103.2V108.804C72.4909 109.172 72.5669 109.444 72.7189 109.62C72.8789 109.796 73.1029 109.884 73.3909 109.884C73.4549 109.884 73.5149 109.884 73.5709 109.884C73.6269 109.876 73.6829 109.868 73.7389 109.86C73.8509 109.844 73.9269 109.876 73.9669 109.956C74.0069 110.028 74.0269 110.18 74.0269 110.412C74.0269 110.612 73.9869 110.768 73.9069 110.88C73.8269 110.992 73.6949 111.06 73.5109 111.084C73.4309 111.092 73.3469 111.1 73.2589 111.108C73.1709 111.116 73.0829 111.12 72.9949 111.12ZM77.4404 111.12C76.8324 111.12 76.3044 110.996 75.8564 110.748C75.4084 110.5 75.0604 110.148 74.8124 109.692C74.5644 109.228 74.4404 108.684 74.4404 108.06C74.4404 107.588 74.5084 107.168 74.6444 106.8C74.7884 106.424 74.9924 106.104 75.2564 105.84C75.5204 105.568 75.8364 105.364 76.2044 105.228C76.5724 105.084 76.9844 105.012 77.4404 105.012C78.0484 105.012 78.5764 105.136 79.0244 105.384C79.4724 105.632 79.8204 105.984 80.0684 106.44C80.3164 106.896 80.4404 107.436 80.4404 108.06C80.4404 108.532 80.3684 108.956 80.2244 109.332C80.0884 109.708 79.8884 110.032 79.6244 110.304C79.3604 110.568 79.0444 110.772 78.6764 110.916C78.3084 111.052 77.8964 111.12 77.4404 111.12ZM77.4404 109.98C77.7364 109.98 77.9964 109.908 78.2204 109.764C78.4444 109.62 78.6164 109.408 78.7364 109.128C78.8644 108.84 78.9284 108.484 78.9284 108.06C78.9284 107.42 78.7924 106.944 78.5204 106.632C78.2484 106.312 77.8884 106.152 77.4404 106.152C77.1444 106.152 76.8844 106.224 76.6604 106.368C76.4364 106.504 76.2604 106.716 76.1324 107.004C76.0124 107.284 75.9524 107.636 75.9524 108.06C75.9524 108.692 76.0884 109.172 76.3604 109.5C76.6324 109.82 76.9924 109.98 77.4404 109.98ZM83.6104 111.12C83.1864 111.12 82.8064 111.04 82.4704 110.88C82.1424 110.712 81.8824 110.488 81.6904 110.208C81.5064 109.928 81.4144 109.612 81.4144 109.26C81.4144 108.828 81.5264 108.488 81.7504 108.24C81.9744 107.984 82.3384 107.8 82.8424 107.688C83.3464 107.576 84.0224 107.52 84.8704 107.52H85.4704V108.384H84.8824C84.3864 108.384 83.9904 108.408 83.6944 108.456C83.3984 108.504 83.1864 108.588 83.0584 108.708C82.9384 108.82 82.8784 108.98 82.8784 109.188C82.8784 109.452 82.9704 109.668 83.1544 109.836C83.3384 110.004 83.5944 110.088 83.9224 110.088C84.1864 110.088 84.4184 110.028 84.6184 109.908C84.8264 109.78 84.9904 109.608 85.1104 109.392C85.2304 109.176 85.2904 108.928 85.2904 108.648V107.268C85.2904 106.868 85.2024 106.58 85.0264 106.404C84.8504 106.228 84.5544 106.14 84.1384 106.14C83.9064 106.14 83.6544 106.168 83.3824 106.224C83.1184 106.28 82.8384 106.376 82.5424 106.512C82.3904 106.584 82.2544 106.604 82.1344 106.572C82.0224 106.54 81.9344 106.476 81.8704 106.38C81.8064 106.276 81.7744 106.164 81.7744 106.044C81.7744 105.924 81.8064 105.808 81.8704 105.696C81.9344 105.576 82.0424 105.488 82.1944 105.432C82.5624 105.28 82.9144 105.172 83.2504 105.108C83.5944 105.044 83.9064 105.012 84.1864 105.012C84.7624 105.012 85.2344 105.1 85.6024 105.276C85.9784 105.452 86.2584 105.72 86.4424 106.08C86.6264 106.432 86.7184 106.888 86.7184 107.448V110.328C86.7184 110.576 86.6584 110.768 86.5384 110.904C86.4184 111.032 86.2464 111.096 86.0224 111.096C85.7984 111.096 85.6224 111.032 85.4944 110.904C85.3744 110.768 85.3144 110.576 85.3144 110.328V109.752H85.4104C85.3544 110.032 85.2424 110.276 85.0744 110.484C84.9144 110.684 84.7104 110.84 84.4624 110.952C84.2144 111.064 83.9304 111.12 83.6104 111.12ZM90.4969 111.12C89.9849 111.12 89.5329 110.996 89.1409 110.748C88.7569 110.5 88.4569 110.148 88.2409 109.692C88.0249 109.228 87.9169 108.684 87.9169 108.06C87.9169 107.428 88.0249 106.888 88.2409 106.44C88.4569 105.984 88.7569 105.632 89.1409 105.384C89.5329 105.136 89.9849 105.012 90.4969 105.012C90.9849 105.012 91.4089 105.132 91.7689 105.372C92.1369 105.612 92.3849 105.928 92.5129 106.32H92.3809V103.2C92.3809 102.952 92.4449 102.764 92.5729 102.636C92.7009 102.508 92.8849 102.444 93.1249 102.444C93.3649 102.444 93.5489 102.508 93.6769 102.636C93.8129 102.764 93.8809 102.952 93.8809 103.2V110.328C93.8809 110.576 93.8169 110.768 93.6889 110.904C93.5609 111.032 93.3769 111.096 93.1369 111.096C92.8969 111.096 92.7129 111.032 92.5849 110.904C92.4569 110.768 92.3929 110.576 92.3929 110.328V109.392L92.5249 109.752C92.4049 110.168 92.1609 110.5 91.7929 110.748C91.4249 110.996 90.9929 111.12 90.4969 111.12ZM90.9169 109.98C91.2129 109.98 91.4729 109.908 91.6969 109.764C91.9209 109.62 92.0929 109.408 92.2129 109.128C92.3409 108.84 92.4049 108.484 92.4049 108.06C92.4049 107.42 92.2689 106.944 91.9969 106.632C91.7249 106.312 91.3649 106.152 90.9169 106.152C90.6209 106.152 90.3609 106.224 90.1369 106.368C89.9129 106.504 89.7369 106.716 89.6089 107.004C89.4889 107.284 89.4289 107.636 89.4289 108.06C89.4289 108.692 89.5649 109.172 89.8369 109.5C90.1089 109.82 90.4689 109.98 90.9169 109.98ZM96.1803 111.084C95.9403 111.084 95.7563 111.012 95.6283 110.868C95.5003 110.724 95.4363 110.524 95.4363 110.268V105.864C95.4363 105.6 95.5003 105.4 95.6283 105.264C95.7563 105.12 95.9403 105.048 96.1803 105.048C96.4203 105.048 96.6043 105.12 96.7323 105.264C96.8683 105.4 96.9363 105.6 96.9363 105.864V110.268C96.9363 110.524 96.8723 110.724 96.7443 110.868C96.6163 111.012 96.4283 111.084 96.1803 111.084ZM96.1803 103.932C95.9003 103.932 95.6803 103.864 95.5203 103.728C95.3683 103.584 95.2923 103.388 95.2923 103.14C95.2923 102.884 95.3683 102.688 95.5203 102.552C95.6803 102.416 95.9003 102.348 96.1803 102.348C96.4683 102.348 96.6883 102.416 96.8403 102.552C96.9923 102.688 97.0683 102.884 97.0683 103.14C97.0683 103.388 96.9923 103.584 96.8403 103.728C96.6883 103.864 96.4683 103.932 96.1803 103.932ZM99.2388 111.096C98.9988 111.096 98.8148 111.032 98.6868 110.904C98.5588 110.768 98.4948 110.576 98.4948 110.328V105.792C98.4948 105.544 98.5588 105.356 98.6868 105.228C98.8148 105.1 98.9948 105.036 99.2268 105.036C99.4588 105.036 99.6388 105.1 99.7668 105.228C99.8948 105.356 99.9588 105.544 99.9588 105.792V106.608L99.8268 106.308C100.003 105.884 100.275 105.564 100.643 105.348C101.019 105.124 101.443 105.012 101.915 105.012C102.387 105.012 102.775 105.1 103.079 105.276C103.383 105.452 103.611 105.72 103.763 106.08C103.915 106.432 103.991 106.88 103.991 107.424V110.328C103.991 110.576 103.927 110.768 103.799 110.904C103.671 111.032 103.487 111.096 103.247 111.096C103.007 111.096 102.819 111.032 102.683 110.904C102.555 110.768 102.491 110.576 102.491 110.328V107.496C102.491 107.04 102.403 106.708 102.227 106.5C102.059 106.292 101.795 106.188 101.435 106.188C100.995 106.188 100.643 106.328 100.379 106.608C100.123 106.88 99.9948 107.244 99.9948 107.7V110.328C99.9948 110.84 99.7428 111.096 99.2388 111.096ZM108.25 113.28C107.818 113.28 107.398 113.24 106.99 113.16C106.59 113.08 106.226 112.956 105.898 112.788C105.746 112.708 105.642 112.612 105.586 112.5C105.538 112.388 105.522 112.272 105.538 112.152C105.562 112.04 105.61 111.94 105.682 111.852C105.762 111.764 105.858 111.704 105.97 111.672C106.082 111.64 106.198 111.656 106.318 111.72C106.67 111.896 107.002 112.008 107.314 112.056C107.634 112.112 107.906 112.14 108.13 112.14C108.666 112.14 109.066 112.008 109.33 111.744C109.602 111.488 109.738 111.104 109.738 110.592V109.512H109.846C109.726 109.92 109.474 110.248 109.09 110.496C108.714 110.736 108.286 110.856 107.806 110.856C107.278 110.856 106.818 110.736 106.426 110.496C106.034 110.248 105.73 109.904 105.514 109.464C105.298 109.024 105.19 108.512 105.19 107.928C105.19 107.488 105.25 107.092 105.37 106.74C105.498 106.38 105.674 106.072 105.898 105.816C106.13 105.56 106.406 105.364 106.726 105.228C107.054 105.084 107.414 105.012 107.806 105.012C108.302 105.012 108.734 105.136 109.102 105.384C109.478 105.624 109.722 105.944 109.834 106.344L109.714 106.644V105.792C109.714 105.544 109.778 105.356 109.906 105.228C110.042 105.1 110.226 105.036 110.458 105.036C110.698 105.036 110.882 105.1 111.01 105.228C111.138 105.356 111.202 105.544 111.202 105.792V110.412C111.202 111.364 110.95 112.08 110.446 112.56C109.942 113.04 109.21 113.28 108.25 113.28ZM108.214 109.716C108.526 109.716 108.794 109.644 109.018 109.5C109.242 109.356 109.414 109.152 109.534 108.888C109.662 108.616 109.726 108.296 109.726 107.928C109.726 107.376 109.59 106.944 109.318 106.632C109.046 106.312 108.678 106.152 108.214 106.152C107.902 106.152 107.634 106.224 107.41 106.368C107.186 106.512 107.01 106.716 106.882 106.98C106.762 107.244 106.702 107.56 106.702 107.928C106.702 108.48 106.838 108.916 107.11 109.236C107.382 109.556 107.75 109.716 108.214 109.716Z" fill="#64728C"/>
</g>
</g>
<rect x="4.5" y="8.5" width="140" height="131" rx="13.5" stroke="#64728C" stroke-opacity="0.22"/>
</g>
<defs>
<filter id="filter0_d_1037_6847" x="0" y="0" width="149" height="140" filterUnits="userSpaceOnUse" color-interpolation-filters="sRGB">
<feFlood flood-opacity="0" result="BackgroundImageFix"/>
<feColorMatrix in="SourceAlpha" type="matrix" values="0 0 0 0 0 0 0 0 0 0 0 0 0 0 0 0 0 0 127 0" result="hardAlpha"/>
<feOffset dy="-4"/>
<feGaussianBlur stdDeviation="2"/>
<feComposite in2="hardAlpha" operator="out"/>
<feColorMatrix type="matrix" values="0 0 0 0 0 0 0 0 0 0 0 0 0 0 0 0 0 0 0.05 0"/>
<feBlend mode="normal" in2="BackgroundImageFix" result="effect1_dropShadow_1037_6847"/>
<feBlend mode="normal" in="SourceGraphic" in2="effect1_dropShadow_1037_6847" result="shape"/>
</filter>
<filter id="filter1_di_1037_6847" x="-1" y="-7" width="151" height="147" filterUnits="userSpaceOnUse" color-interpolation-filters="sRGB">
<feFlood flood-opacity="0" result="BackgroundImageFix"/>
<feColorMatrix in="SourceAlpha" type="matrix" values="0 0 0 0 0 0 0 0 0 0 0 0 0 0 0 0 0 0 127 0" result="hardAlpha"/>
<feOffset dy="-14"/>
<feGaussianBlur stdDeviation="2.5"/>
<feComposite in2="hardAlpha" operator="out"/>
<feColorMatrix type="matrix" values="0 0 0 0 0 0 0 0 0 0 0 0 0 0 0 0 0 0 0.05 0"/>
<feBlend mode="normal" in2="BackgroundImageFix" result="effect1_dropShadow_1037_6847"/>
<feBlend mode="normal" in="SourceGraphic" in2="effect1_dropShadow_1037_6847" result="shape"/>
<feColorMatrix in="SourceAlpha" type="matrix" values="0 0 0 0 0 0 0 0 0 0 0 0 0 0 0 0 0 0 127 0" result="hardAlpha"/>
<feOffset dy="-10"/>
<feGaussianBlur stdDeviation="2"/>
<feComposite in2="hardAlpha" operator="arithmetic" k2="-1" k3="1"/>
<feColorMatrix type="matrix" values="0 0 0 0 1 0 0 0 0 1 0 0 0 0 1 0 0 0 0.15 0"/>
<feBlend mode="normal" in2="shape" result="effect2_innerShadow_1037_6847"/>
</filter>
<linearGradient id="paint0_linear_1037_6847" x1="74.5" y1="12" x2="74.5" y2="140" gradientUnits="userSpaceOnUse">
<stop stop-color="#64728C" stop-opacity="0.04"/>
<stop offset="1" stop-color="#64728C" stop-opacity="0.15"/>
</linearGradient>
<linearGradient id="paint1_linear_1037_6847" x1="74.5" y1="12" x2="74.5" y2="140" gradientUnits="userSpaceOnUse">
<stop offset="0.345231" stop-color="#64728C" stop-opacity="0.03"/>
<stop offset="1" stop-color="#64728C" stop-opacity="0.37"/>
</linearGradient>
<clipPath id="clip0_1037_6847">
<rect x="4" y="8" width="141" height="132" rx="14" fill="white"/>
</clipPath>
</defs>
</svg>
