<svg width="173" height="131" viewBox="0 0 173 131" fill="none" xmlns="http://www.w3.org/2000/svg">
<rect x="26" width="109" height="103" rx="16" fill="#E8EAEF" fill-opacity="0.5"/>
<rect width="136" height="115" transform="translate(8 16)" fill="white"/>
<rect x="18" y="7" width="123" height="118" rx="16" fill="#E8EAEF"/>
<g filter="url(#filter0_d_1347_5033)">
<g clip-path="url(#clip0_1347_5033)">
<rect x="4" y="16" width="152" height="113" rx="14" fill="#E8EAEF"/>
<g filter="url(#filter1_di_1347_5033)">
<rect x="4" y="20" width="152" height="109" rx="14" fill="white"/>
<rect x="4" y="20" width="152" height="109" rx="14" fill="url(#paint0_linear_1347_5033)" fill-opacity="0.1"/>
<rect x="4.5" y="20.5" width="151" height="108" rx="13.5" stroke="url(#paint1_linear_1347_5033)" stroke-opacity="0.2"/>
<path d="M78.95 68.55C79.1 68.7 79.25 68.85 79.4 68.85C79.55 69 79.85 69 80 69C80.15 69 80.45 69 80.6 68.85C80.75 68.7 80.9 68.7 81.05 68.55L87.05 62.55C87.65 61.95 87.65 61.05 87.05 60.45C86.45 59.85 85.55 59.85 84.95 60.45L81.5 63.9V52.5C81.5 51.6 80.9 51 80 51C79.1 51 78.5 51.6 78.5 52.5V63.9L75.05 60.45C74.45 59.85 73.55 59.85 72.95 60.45C72.35 61.05 72.35 61.95 72.95 62.55L78.95 68.55Z" fill="#64728C"/>
<path d="M90.5 64.5C89.6 64.5 89 65.1 89 66V69C89 70.65 87.65 72 86 72H74C72.35 72 71 70.65 71 69V66C71 65.1 70.4 64.5 69.5 64.5C68.6 64.5 68 65.1 68 66V69C68 72.3 70.7 75 74 75H86C89.3 75 92 72.3 92 69V66C92 65.1 91.4 64.5 90.5 64.5Z" fill="#64728C"/>
<path d="M30.872 100C30.664 100 30.5 99.944 30.38 99.832C30.268 99.712 30.212 99.552 30.212 99.352C30.212 99.144 30.268 98.988 30.38 98.884C30.5 98.78 30.664 98.728 30.872 98.728H32.216V92.836H32.96L31.196 93.904C31.044 93.992 30.9 94.028 30.764 94.012C30.636 93.988 30.524 93.932 30.428 93.844C30.34 93.748 30.28 93.636 30.248 93.508C30.216 93.38 30.224 93.252 30.272 93.124C30.328 92.988 30.432 92.876 30.584 92.788L32.24 91.792C32.4 91.696 32.56 91.616 32.72 91.552C32.88 91.48 33.028 91.444 33.164 91.444C33.332 91.444 33.472 91.492 33.584 91.588C33.696 91.676 33.752 91.824 33.752 92.032V98.728H34.976C35.184 98.728 35.344 98.78 35.456 98.884C35.576 98.988 35.636 99.144 35.636 99.352C35.636 99.56 35.576 99.72 35.456 99.832C35.344 99.944 35.184 100 34.976 100H30.872ZM40.1073 100.12C39.4113 100.12 38.8153 99.956 38.3193 99.628C37.8313 99.292 37.4593 98.812 37.2033 98.188C36.9473 97.564 36.8193 96.808 36.8193 95.92C36.8193 95.2 36.8993 94.564 37.0593 94.012C37.2273 93.452 37.4673 92.98 37.7793 92.596C38.0913 92.212 38.4713 91.92 38.9193 91.72C39.3753 91.52 39.8873 91.42 40.4553 91.42C40.8073 91.42 41.1633 91.476 41.5233 91.588C41.8913 91.692 42.2353 91.852 42.5553 92.068C42.6833 92.148 42.7673 92.252 42.8073 92.38C42.8473 92.508 42.8513 92.636 42.8193 92.764C42.7953 92.884 42.7393 92.992 42.6513 93.088C42.5713 93.176 42.4673 93.232 42.3393 93.256C42.2113 93.272 42.0713 93.236 41.9193 93.148C41.6473 92.988 41.3913 92.876 41.1513 92.812C40.9113 92.748 40.6713 92.716 40.4313 92.716C39.9673 92.716 39.5753 92.824 39.2553 93.04C38.9353 93.256 38.6913 93.58 38.5233 94.012C38.3633 94.444 38.2833 94.984 38.2833 95.632V96.532H38.1393C38.2033 96.124 38.3353 95.776 38.5353 95.488C38.7433 95.192 39.0073 94.968 39.3273 94.816C39.6473 94.656 40.0033 94.576 40.3953 94.576C40.8833 94.576 41.3153 94.692 41.6913 94.924C42.0673 95.156 42.3633 95.476 42.5793 95.884C42.7953 96.292 42.9033 96.76 42.9033 97.288C42.9033 97.832 42.7833 98.32 42.5433 98.752C42.3113 99.176 41.9833 99.512 41.5593 99.76C41.1433 100 40.6593 100.12 40.1073 100.12ZM40.0233 98.896C40.3113 98.896 40.5633 98.832 40.7793 98.704C41.0033 98.576 41.1753 98.396 41.2953 98.164C41.4153 97.924 41.4753 97.652 41.4753 97.348C41.4753 97.036 41.4153 96.764 41.2953 96.532C41.1753 96.3 41.0033 96.12 40.7793 95.992C40.5633 95.856 40.3113 95.788 40.0233 95.788C39.7353 95.788 39.4833 95.856 39.2673 95.992C39.0513 96.12 38.8793 96.3 38.7513 96.532C38.6313 96.764 38.5713 97.036 38.5713 97.348C38.5713 97.652 38.6313 97.924 38.7513 98.164C38.8793 98.396 39.0513 98.576 39.2673 98.704C39.4833 98.832 39.7353 98.896 40.0233 98.896ZM48.3644 100.096C48.1164 100.096 47.9204 100.028 47.7764 99.892C47.6404 99.748 47.5724 99.544 47.5724 99.28V92.356C47.5724 92.092 47.6404 91.892 47.7764 91.756C47.9204 91.612 48.1244 91.54 48.3884 91.54H52.5764C52.7844 91.54 52.9404 91.592 53.0444 91.696C53.1484 91.8 53.2004 91.948 53.2004 92.14C53.2004 92.34 53.1484 92.496 53.0444 92.608C52.9404 92.712 52.7844 92.764 52.5764 92.764H49.1084V95.152H52.3244C52.5244 95.152 52.6764 95.204 52.7804 95.308C52.8924 95.412 52.9484 95.56 52.9484 95.752C52.9484 95.952 52.8924 96.108 52.7804 96.22C52.6764 96.324 52.5244 96.376 52.3244 96.376H49.1084V99.28C49.1084 99.824 48.8604 100.096 48.3644 100.096ZM55.3912 100.084C55.1512 100.084 54.9672 100.012 54.8392 99.868C54.7112 99.724 54.6472 99.524 54.6472 99.268V94.864C54.6472 94.6 54.7112 94.4 54.8392 94.264C54.9672 94.12 55.1512 94.048 55.3912 94.048C55.6312 94.048 55.8152 94.12 55.9432 94.264C56.0792 94.4 56.1472 94.6 56.1472 94.864V99.268C56.1472 99.524 56.0832 99.724 55.9552 99.868C55.8272 100.012 55.6392 100.084 55.3912 100.084ZM55.3912 92.932C55.1112 92.932 54.8912 92.864 54.7312 92.728C54.5792 92.584 54.5032 92.388 54.5032 92.14C54.5032 91.884 54.5792 91.688 54.7312 91.552C54.8912 91.416 55.1112 91.348 55.3912 91.348C55.6792 91.348 55.8992 91.416 56.0512 91.552C56.2032 91.688 56.2792 91.884 56.2792 92.14C56.2792 92.388 56.2032 92.584 56.0512 92.728C55.8992 92.864 55.6792 92.932 55.3912 92.932ZM59.7098 100.12C59.0458 100.12 58.5458 99.932 58.2098 99.556C57.8738 99.172 57.7058 98.612 57.7058 97.876V92.2C57.7058 91.952 57.7698 91.764 57.8978 91.636C58.0258 91.508 58.2098 91.444 58.4498 91.444C58.6898 91.444 58.8738 91.508 59.0018 91.636C59.1378 91.764 59.2058 91.952 59.2058 92.2V97.804C59.2058 98.172 59.2818 98.444 59.4338 98.62C59.5938 98.796 59.8178 98.884 60.1058 98.884C60.1698 98.884 60.2298 98.884 60.2858 98.884C60.3418 98.876 60.3978 98.868 60.4538 98.86C60.5658 98.844 60.6418 98.876 60.6818 98.956C60.7218 99.028 60.7418 99.18 60.7418 99.412C60.7418 99.612 60.7018 99.768 60.6218 99.88C60.5418 99.992 60.4098 100.06 60.2258 100.084C60.1458 100.092 60.0618 100.1 59.9738 100.108C59.8858 100.116 59.7978 100.12 59.7098 100.12ZM64.3712 100.12C63.7072 100.12 63.1352 99.996 62.6552 99.748C62.1752 99.5 61.8032 99.148 61.5392 98.692C61.2832 98.236 61.1552 97.696 61.1552 97.072C61.1552 96.464 61.2792 95.932 61.5272 95.476C61.7832 95.02 62.1312 94.664 62.5712 94.408C63.0192 94.144 63.5272 94.012 64.0952 94.012C64.5112 94.012 64.8832 94.08 65.2112 94.216C65.5472 94.352 65.8312 94.548 66.0632 94.804C66.3032 95.06 66.4832 95.372 66.6032 95.74C66.7312 96.1 66.7952 96.508 66.7952 96.964C66.7952 97.108 66.7432 97.22 66.6392 97.3C66.5432 97.372 66.4032 97.408 66.2192 97.408H62.3672V96.544H65.7392L65.5472 96.724C65.5472 96.356 65.4912 96.048 65.3792 95.8C65.2752 95.552 65.1192 95.364 64.9112 95.236C64.7112 95.1 64.4592 95.032 64.1552 95.032C63.8192 95.032 63.5312 95.112 63.2912 95.272C63.0592 95.424 62.8792 95.644 62.7512 95.932C62.6312 96.212 62.5712 96.548 62.5712 96.94V97.024C62.5712 97.68 62.7232 98.172 63.0272 98.5C63.3392 98.82 63.7952 98.98 64.3952 98.98C64.6032 98.98 64.8352 98.956 65.0912 98.908C65.3552 98.852 65.6032 98.76 65.8352 98.632C66.0032 98.536 66.1512 98.496 66.2792 98.512C66.4072 98.52 66.5072 98.564 66.5792 98.644C66.6592 98.724 66.7072 98.824 66.7232 98.944C66.7392 99.056 66.7152 99.172 66.6512 99.292C66.5952 99.412 66.4952 99.516 66.3512 99.604C66.0712 99.78 65.7472 99.912 65.3792 100C65.0192 100.08 64.6832 100.12 64.3712 100.12ZM70.1311 100.12C69.7871 100.12 69.4231 100.084 69.0391 100.012C68.6551 99.94 68.3111 99.816 68.0071 99.64C67.8791 99.56 67.7871 99.468 67.7311 99.364C67.6831 99.252 67.6631 99.144 67.6711 99.04C67.6871 98.928 67.7271 98.832 67.7911 98.752C67.8631 98.672 67.9511 98.62 68.0551 98.596C68.1671 98.572 68.2871 98.592 68.4151 98.656C68.7351 98.808 69.0351 98.916 69.3151 98.98C69.5951 99.036 69.8711 99.064 70.1431 99.064C70.5271 99.064 70.8111 99 70.9951 98.872C71.1871 98.736 71.2831 98.56 71.2831 98.344C71.2831 98.16 71.2191 98.02 71.0911 97.924C70.9711 97.82 70.7871 97.744 70.5391 97.696L69.3391 97.468C68.8431 97.372 68.4631 97.192 68.1991 96.928C67.9431 96.656 67.8151 96.308 67.8151 95.884C67.8151 95.5 67.9191 95.168 68.1271 94.888C68.3431 94.608 68.6391 94.392 69.0151 94.24C69.3911 94.088 69.8231 94.012 70.3111 94.012C70.6631 94.012 70.9911 94.052 71.2951 94.132C71.6071 94.204 71.9071 94.32 72.1951 94.48C72.3151 94.544 72.3951 94.628 72.4351 94.732C72.4831 94.836 72.4951 94.944 72.4711 95.056C72.4471 95.16 72.3991 95.256 72.3271 95.344C72.2551 95.424 72.1631 95.476 72.0511 95.5C71.9471 95.516 71.8271 95.492 71.6911 95.428C71.4431 95.3 71.2031 95.208 70.9711 95.152C70.7471 95.096 70.5311 95.068 70.3231 95.068C69.9311 95.068 69.6391 95.136 69.4471 95.272C69.2631 95.408 69.1711 95.588 69.1711 95.812C69.1711 95.98 69.2271 96.12 69.3391 96.232C69.4511 96.344 69.6231 96.42 69.8551 96.46L71.0551 96.688C71.5751 96.784 71.9671 96.96 72.2311 97.216C72.5031 97.472 72.6391 97.816 72.6391 98.248C72.6391 98.832 72.4111 99.292 71.9551 99.628C71.4991 99.956 70.8911 100.12 70.1311 100.12ZM80.7603 100.12C80.1763 100.12 79.6603 100.044 79.2123 99.892C78.7723 99.74 78.4003 99.516 78.0963 99.22C77.7923 98.916 77.5643 98.54 77.4123 98.092C77.2603 97.644 77.1843 97.124 77.1843 96.532V92.224C77.1843 91.96 77.2483 91.764 77.3763 91.636C77.5123 91.508 77.7043 91.444 77.9523 91.444C78.2003 91.444 78.3883 91.508 78.5163 91.636C78.6523 91.764 78.7203 91.96 78.7203 92.224V96.52C78.7203 97.28 78.8923 97.852 79.2363 98.236C79.5883 98.612 80.0963 98.8 80.7603 98.8C81.4243 98.8 81.9283 98.612 82.2723 98.236C82.6163 97.852 82.7883 97.28 82.7883 96.52V92.224C82.7883 91.96 82.8523 91.764 82.9803 91.636C83.1163 91.508 83.3083 91.444 83.5563 91.444C83.7963 91.444 83.9803 91.508 84.1083 91.636C84.2443 91.764 84.3123 91.96 84.3123 92.224V96.532C84.3123 97.316 84.1763 97.976 83.9043 98.512C83.6403 99.048 83.2443 99.452 82.7163 99.724C82.1883 99.988 81.5363 100.12 80.7603 100.12ZM86.7037 102.256C86.4637 102.256 86.2797 102.192 86.1517 102.064C86.0237 101.936 85.9597 101.748 85.9597 101.5V94.792C85.9597 94.544 86.0237 94.356 86.1517 94.228C86.2797 94.1 86.4597 94.036 86.6917 94.036C86.9317 94.036 87.1157 94.1 87.2437 94.228C87.3717 94.356 87.4357 94.544 87.4357 94.792V95.728L87.3037 95.368C87.4237 94.96 87.6677 94.632 88.0357 94.384C88.4117 94.136 88.8477 94.012 89.3437 94.012C89.8557 94.012 90.3037 94.136 90.6877 94.384C91.0797 94.632 91.3837 94.984 91.5997 95.44C91.8157 95.888 91.9237 96.428 91.9237 97.06C91.9237 97.684 91.8157 98.228 91.5997 98.692C91.3837 99.148 91.0837 99.5 90.6997 99.748C90.3157 99.996 89.8637 100.12 89.3437 100.12C88.8557 100.12 88.4277 100 88.0597 99.76C87.6917 99.512 87.4437 99.192 87.3157 98.8H87.4597V101.5C87.4597 101.748 87.3917 101.936 87.2557 102.064C87.1277 102.192 86.9437 102.256 86.7037 102.256ZM88.9237 98.98C89.2197 98.98 89.4797 98.908 89.7037 98.764C89.9277 98.62 90.0997 98.408 90.2197 98.128C90.3477 97.84 90.4117 97.484 90.4117 97.06C90.4117 96.42 90.2757 95.944 90.0037 95.632C89.7317 95.312 89.3717 95.152 88.9237 95.152C88.6277 95.152 88.3677 95.224 88.1437 95.368C87.9197 95.504 87.7437 95.716 87.6157 96.004C87.4957 96.284 87.4357 96.636 87.4357 97.06C87.4357 97.692 87.5717 98.172 87.8437 98.5C88.1157 98.82 88.4757 98.98 88.9237 98.98ZM95.159 100.12C94.495 100.12 93.995 99.932 93.659 99.556C93.323 99.172 93.155 98.612 93.155 97.876V92.2C93.155 91.952 93.219 91.764 93.347 91.636C93.475 91.508 93.659 91.444 93.899 91.444C94.139 91.444 94.323 91.508 94.451 91.636C94.587 91.764 94.655 91.952 94.655 92.2V97.804C94.655 98.172 94.731 98.444 94.883 98.62C95.043 98.796 95.267 98.884 95.555 98.884C95.619 98.884 95.679 98.884 95.735 98.884C95.791 98.876 95.847 98.868 95.903 98.86C96.015 98.844 96.091 98.876 96.131 98.956C96.171 99.028 96.191 99.18 96.191 99.412C96.191 99.612 96.151 99.768 96.071 99.88C95.991 99.992 95.859 100.06 95.675 100.084C95.595 100.092 95.511 100.1 95.423 100.108C95.335 100.116 95.247 100.12 95.159 100.12ZM99.6044 100.12C98.9964 100.12 98.4684 99.996 98.0204 99.748C97.5724 99.5 97.2244 99.148 96.9764 98.692C96.7284 98.228 96.6044 97.684 96.6044 97.06C96.6044 96.588 96.6724 96.168 96.8084 95.8C96.9524 95.424 97.1564 95.104 97.4204 94.84C97.6844 94.568 98.0004 94.364 98.3684 94.228C98.7364 94.084 99.1484 94.012 99.6044 94.012C100.212 94.012 100.74 94.136 101.188 94.384C101.636 94.632 101.984 94.984 102.232 95.44C102.48 95.896 102.604 96.436 102.604 97.06C102.604 97.532 102.532 97.956 102.388 98.332C102.252 98.708 102.052 99.032 101.788 99.304C101.524 99.568 101.208 99.772 100.84 99.916C100.472 100.052 100.06 100.12 99.6044 100.12ZM99.6044 98.98C99.9004 98.98 100.16 98.908 100.384 98.764C100.608 98.62 100.78 98.408 100.9 98.128C101.028 97.84 101.092 97.484 101.092 97.06C101.092 96.42 100.956 95.944 100.684 95.632C100.412 95.312 100.052 95.152 99.6044 95.152C99.3084 95.152 99.0484 95.224 98.8244 95.368C98.6004 95.504 98.4244 95.716 98.2964 96.004C98.1764 96.284 98.1164 96.636 98.1164 97.06C98.1164 97.692 98.2524 98.172 98.5244 98.5C98.7964 98.82 99.1564 98.98 99.6044 98.98ZM105.775 100.12C105.351 100.12 104.971 100.04 104.635 99.88C104.307 99.712 104.047 99.488 103.854 99.208C103.671 98.928 103.579 98.612 103.579 98.26C103.579 97.828 103.691 97.488 103.915 97.24C104.139 96.984 104.503 96.8 105.007 96.688C105.511 96.576 106.187 96.52 107.035 96.52H107.635V97.384H107.047C106.551 97.384 106.155 97.408 105.859 97.456C105.563 97.504 105.351 97.588 105.223 97.708C105.103 97.82 105.043 97.98 105.043 98.188C105.043 98.452 105.135 98.668 105.319 98.836C105.503 99.004 105.759 99.088 106.087 99.088C106.351 99.088 106.583 99.028 106.783 98.908C106.991 98.78 107.155 98.608 107.275 98.392C107.395 98.176 107.455 97.928 107.455 97.648V96.268C107.455 95.868 107.367 95.58 107.191 95.404C107.015 95.228 106.719 95.14 106.303 95.14C106.071 95.14 105.819 95.168 105.547 95.224C105.283 95.28 105.003 95.376 104.707 95.512C104.555 95.584 104.419 95.604 104.299 95.572C104.187 95.54 104.099 95.476 104.035 95.38C103.971 95.276 103.939 95.164 103.939 95.044C103.939 94.924 103.971 94.808 104.035 94.696C104.099 94.576 104.207 94.488 104.359 94.432C104.727 94.28 105.079 94.172 105.415 94.108C105.759 94.044 106.071 94.012 106.351 94.012C106.927 94.012 107.399 94.1 107.767 94.276C108.143 94.452 108.423 94.72 108.607 95.08C108.791 95.432 108.883 95.888 108.883 96.448V99.328C108.883 99.576 108.823 99.768 108.703 99.904C108.583 100.032 108.411 100.096 108.187 100.096C107.963 100.096 107.787 100.032 107.659 99.904C107.539 99.768 107.479 99.576 107.479 99.328V98.752H107.575C107.519 99.032 107.407 99.276 107.239 99.484C107.079 99.684 106.875 99.84 106.627 99.952C106.379 100.064 106.095 100.12 105.775 100.12ZM112.661 100.12C112.149 100.12 111.697 99.996 111.305 99.748C110.921 99.5 110.621 99.148 110.405 98.692C110.189 98.228 110.081 97.684 110.081 97.06C110.081 96.428 110.189 95.888 110.405 95.44C110.621 94.984 110.921 94.632 111.305 94.384C111.697 94.136 112.149 94.012 112.661 94.012C113.149 94.012 113.573 94.132 113.933 94.372C114.301 94.612 114.549 94.928 114.677 95.32H114.545V92.2C114.545 91.952 114.609 91.764 114.737 91.636C114.865 91.508 115.049 91.444 115.289 91.444C115.529 91.444 115.713 91.508 115.841 91.636C115.977 91.764 116.045 91.952 116.045 92.2V99.328C116.045 99.576 115.981 99.768 115.853 99.904C115.725 100.032 115.541 100.096 115.301 100.096C115.061 100.096 114.877 100.032 114.749 99.904C114.621 99.768 114.557 99.576 114.557 99.328V98.392L114.689 98.752C114.569 99.168 114.325 99.5 113.957 99.748C113.589 99.996 113.157 100.12 112.661 100.12ZM113.081 98.98C113.377 98.98 113.637 98.908 113.861 98.764C114.085 98.62 114.257 98.408 114.377 98.128C114.505 97.84 114.569 97.484 114.569 97.06C114.569 96.42 114.433 95.944 114.161 95.632C113.889 95.312 113.529 95.152 113.081 95.152C112.785 95.152 112.525 95.224 112.301 95.368C112.077 95.504 111.901 95.716 111.773 96.004C111.653 96.284 111.593 96.636 111.593 97.06C111.593 97.692 111.729 98.172 112.001 98.5C112.273 98.82 112.633 98.98 113.081 98.98ZM120.492 100.12C119.828 100.12 119.256 99.996 118.776 99.748C118.296 99.5 117.924 99.148 117.66 98.692C117.404 98.236 117.276 97.696 117.276 97.072C117.276 96.464 117.4 95.932 117.648 95.476C117.904 95.02 118.252 94.664 118.692 94.408C119.14 94.144 119.648 94.012 120.216 94.012C120.632 94.012 121.004 94.08 121.332 94.216C121.668 94.352 121.952 94.548 122.184 94.804C122.424 95.06 122.604 95.372 122.724 95.74C122.852 96.1 122.916 96.508 122.916 96.964C122.916 97.108 122.864 97.22 122.76 97.3C122.664 97.372 122.524 97.408 122.34 97.408H118.488V96.544H121.86L121.668 96.724C121.668 96.356 121.612 96.048 121.5 95.8C121.396 95.552 121.24 95.364 121.032 95.236C120.832 95.1 120.58 95.032 120.276 95.032C119.94 95.032 119.652 95.112 119.412 95.272C119.18 95.424 119 95.644 118.872 95.932C118.752 96.212 118.692 96.548 118.692 96.94V97.024C118.692 97.68 118.844 98.172 119.148 98.5C119.46 98.82 119.916 98.98 120.516 98.98C120.724 98.98 120.956 98.956 121.212 98.908C121.476 98.852 121.724 98.76 121.956 98.632C122.124 98.536 122.272 98.496 122.4 98.512C122.528 98.52 122.628 98.564 122.7 98.644C122.78 98.724 122.828 98.824 122.844 98.944C122.86 99.056 122.836 99.172 122.772 99.292C122.716 99.412 122.616 99.516 122.472 99.604C122.192 99.78 121.868 99.912 121.5 100C121.14 100.08 120.804 100.12 120.492 100.12ZM126.36 100.12C125.848 100.12 125.396 99.996 125.004 99.748C124.62 99.5 124.32 99.148 124.104 98.692C123.888 98.228 123.78 97.684 123.78 97.06C123.78 96.428 123.888 95.888 124.104 95.44C124.32 94.984 124.62 94.632 125.004 94.384C125.396 94.136 125.848 94.012 126.36 94.012C126.848 94.012 127.272 94.132 127.632 94.372C128 94.612 128.248 94.928 128.376 95.32H128.244V92.2C128.244 91.952 128.308 91.764 128.436 91.636C128.564 91.508 128.748 91.444 128.988 91.444C129.228 91.444 129.412 91.508 129.54 91.636C129.676 91.764 129.744 91.952 129.744 92.2V99.328C129.744 99.576 129.68 99.768 129.552 99.904C129.424 100.032 129.24 100.096 129 100.096C128.76 100.096 128.576 100.032 128.448 99.904C128.32 99.768 128.256 99.576 128.256 99.328V98.392L128.388 98.752C128.268 99.168 128.024 99.5 127.656 99.748C127.288 99.996 126.856 100.12 126.36 100.12ZM126.78 98.98C127.076 98.98 127.336 98.908 127.56 98.764C127.784 98.62 127.956 98.408 128.076 98.128C128.204 97.84 128.268 97.484 128.268 97.06C128.268 96.42 128.132 95.944 127.86 95.632C127.588 95.312 127.228 95.152 126.78 95.152C126.484 95.152 126.224 95.224 126 95.368C125.776 95.504 125.6 95.716 125.472 96.004C125.352 96.284 125.292 96.636 125.292 97.06C125.292 97.692 125.428 98.172 125.7 98.5C125.972 98.82 126.332 98.98 126.78 98.98Z" fill="#64728C"/>
</g>
</g>
<rect x="4.5" y="16.5" width="151" height="112" rx="13.5" stroke="#64728C" stroke-opacity="0.22"/>
</g>
<g filter="url(#filter2_b_1347_5033)">
<rect x="141" y="46" width="32" height="51" rx="16" fill="#64728C" fill-opacity="0.11"/>
<path d="M155.833 60.4165C155.483 60.4165 155.25 60.6498 155.25 60.9998V63.3332C155.25 63.6832 155.483 63.9165 155.833 63.9165C156.183 63.9165 156.417 63.6832 156.417 63.3332V60.9998C156.417 60.6498 156.183 60.4165 155.833 60.4165Z" fill="#64728C"/>
<path d="M158.167 60.4165C157.817 60.4165 157.583 60.6498 157.583 60.9998V63.3332C157.583 63.6832 157.817 63.9165 158.167 63.9165C158.517 63.9165 158.75 63.6832 158.75 63.3332V60.9998C158.75 60.6498 158.517 60.4165 158.167 60.4165Z" fill="#64728C"/>
<path d="M157.875 55.1665H156.125C155.308 55.1665 154.667 55.8082 154.667 56.6248V56.9165H152.917C152.567 56.9165 152.333 57.1498 152.333 57.4998C152.333 57.8498 152.567 58.0832 152.917 58.0832H152.975L153.442 64.6165C153.5 65.8998 154.492 66.8332 155.717 66.8332H158.283C159.508 66.8332 160.558 65.8998 160.617 64.6748L161.025 58.0832H161.083C161.433 58.0832 161.667 57.8498 161.667 57.4998C161.667 57.1498 161.433 56.9165 161.083 56.9165H159.333V56.6248C159.333 55.8082 158.692 55.1665 157.875 55.1665ZM155.833 56.6248C155.833 56.4498 155.95 56.3332 156.125 56.3332H157.875C158.05 56.3332 158.167 56.4498 158.167 56.6248V56.9165H155.833V56.6248ZM159.858 58.0832L159.392 64.5582C159.333 65.1998 158.867 65.6665 158.225 65.6665H155.717C155.075 65.6665 154.608 65.1998 154.55 64.5582L154.142 58.0832H155.25H158.75H159.858Z" fill="#64728C"/>
<path d="M157 83.6665C157.264 83.6665 157.521 83.7447 157.741 83.8912C157.96 84.0377 158.131 84.246 158.232 84.4896C158.333 84.7332 158.359 85.0013 158.308 85.26C158.256 85.5186 158.129 85.7562 157.943 85.9426C157.756 86.1291 157.519 86.2561 157.26 86.3076C157.001 86.359 156.733 86.3326 156.49 86.2317C156.246 86.1308 156.038 85.9599 155.891 85.7406C155.745 85.5213 155.667 85.2635 155.667 84.9998C155.667 84.6462 155.807 84.3071 156.057 84.057C156.307 83.807 156.646 83.6665 157 83.6665ZM155.667 76.9998C155.667 77.2635 155.745 77.5213 155.891 77.7406C156.038 77.9599 156.246 78.1308 156.49 78.2317C156.733 78.3326 157.001 78.359 157.26 78.3076C157.519 78.2561 157.756 78.1291 157.943 77.9426C158.129 77.7562 158.256 77.5186 158.308 77.26C158.359 77.0013 158.333 76.7332 158.232 76.4896C158.131 76.246 157.96 76.0377 157.741 75.8912C157.521 75.7447 157.264 75.6665 157 75.6665C156.646 75.6665 156.307 75.807 156.057 76.057C155.807 76.3071 155.667 76.6462 155.667 76.9998ZM155.667 80.9998C155.667 81.2635 155.745 81.5213 155.891 81.7406C156.038 81.9599 156.246 82.1308 156.49 82.2317C156.733 82.3326 157.001 82.359 157.26 82.3076C157.519 82.2561 157.756 82.1291 157.943 81.9426C158.129 81.7562 158.256 81.5186 158.308 81.26C158.359 81.0013 158.333 80.7332 158.232 80.4896C158.131 80.246 157.96 80.0377 157.741 79.8912C157.521 79.7447 157.264 79.6665 157 79.6665C156.646 79.6665 156.307 79.807 156.057 80.057C155.807 80.3071 155.667 80.6462 155.667 80.9998Z" fill="#64728C"/>
</g>
<defs>
<filter id="filter0_d_1347_5033" x="0" y="8" width="160" height="121" filterUnits="userSpaceOnUse" color-interpolation-filters="sRGB">
<feFlood flood-opacity="0" result="BackgroundImageFix"/>
<feColorMatrix in="SourceAlpha" type="matrix" values="0 0 0 0 0 0 0 0 0 0 0 0 0 0 0 0 0 0 127 0" result="hardAlpha"/>
<feOffset dy="-4"/>
<feGaussianBlur stdDeviation="2"/>
<feComposite in2="hardAlpha" operator="out"/>
<feColorMatrix type="matrix" values="0 0 0 0 0 0 0 0 0 0 0 0 0 0 0 0 0 0 0.05 0"/>
<feBlend mode="normal" in2="BackgroundImageFix" result="effect1_dropShadow_1347_5033"/>
<feBlend mode="normal" in="SourceGraphic" in2="effect1_dropShadow_1347_5033" result="shape"/>
</filter>
<filter id="filter1_di_1347_5033" x="-1" y="1" width="162" height="128" filterUnits="userSpaceOnUse" color-interpolation-filters="sRGB">
<feFlood flood-opacity="0" result="BackgroundImageFix"/>
<feColorMatrix in="SourceAlpha" type="matrix" values="0 0 0 0 0 0 0 0 0 0 0 0 0 0 0 0 0 0 127 0" result="hardAlpha"/>
<feOffset dy="-14"/>
<feGaussianBlur stdDeviation="2.5"/>
<feComposite in2="hardAlpha" operator="out"/>
<feColorMatrix type="matrix" values="0 0 0 0 0 0 0 0 0 0 0 0 0 0 0 0 0 0 0.05 0"/>
<feBlend mode="normal" in2="BackgroundImageFix" result="effect1_dropShadow_1347_5033"/>
<feBlend mode="normal" in="SourceGraphic" in2="effect1_dropShadow_1347_5033" result="shape"/>
<feColorMatrix in="SourceAlpha" type="matrix" values="0 0 0 0 0 0 0 0 0 0 0 0 0 0 0 0 0 0 127 0" result="hardAlpha"/>
<feOffset dy="-10"/>
<feGaussianBlur stdDeviation="2"/>
<feComposite in2="hardAlpha" operator="arithmetic" k2="-1" k3="1"/>
<feColorMatrix type="matrix" values="0 0 0 0 1 0 0 0 0 1 0 0 0 0 1 0 0 0 0.15 0"/>
<feBlend mode="normal" in2="shape" result="effect2_innerShadow_1347_5033"/>
</filter>
<filter id="filter2_b_1347_5033" x="137" y="42" width="40" height="59" filterUnits="userSpaceOnUse" color-interpolation-filters="sRGB">
<feFlood flood-opacity="0" result="BackgroundImageFix"/>
<feGaussianBlur in="BackgroundImageFix" stdDeviation="2"/>
<feComposite in2="SourceAlpha" operator="in" result="effect1_backgroundBlur_1347_5033"/>
<feBlend mode="normal" in="SourceGraphic" in2="effect1_backgroundBlur_1347_5033" result="shape"/>
</filter>
<linearGradient id="paint0_linear_1347_5033" x1="80" y1="20" x2="80" y2="129" gradientUnits="userSpaceOnUse">
<stop stop-color="#64728C" stop-opacity="0.04"/>
<stop offset="1" stop-color="#64728C" stop-opacity="0.15"/>
</linearGradient>
<linearGradient id="paint1_linear_1347_5033" x1="80" y1="20" x2="80" y2="129" gradientUnits="userSpaceOnUse">
<stop offset="0.345231" stop-color="#64728C" stop-opacity="0.03"/>
<stop offset="1" stop-color="#64728C" stop-opacity="0.37"/>
</linearGradient>
<clipPath id="clip0_1347_5033">
<rect x="4" y="16" width="152" height="113" rx="14" fill="white"/>
</clipPath>
</defs>
</svg>
